<?xml version="1.0" encoding="utf-8" standalone="no"?>
<!DOCTYPE svg PUBLIC "-//W3C//DTD SVG 1.1//EN"
  "http://www.w3.org/Graphics/SVG/1.1/DTD/svg11.dtd">
<svg xmlns:xlink="http://www.w3.org/1999/xlink" width="1242.115466pt" height="505.354841pt" viewBox="0 0 1242.115466 505.354841" xmlns="http://www.w3.org/2000/svg" version="1.1">
 <metadata>
  <rdf:RDF xmlns:dc="http://purl.org/dc/elements/1.1/" xmlns:cc="http://creativecommons.org/ns#" xmlns:rdf="http://www.w3.org/1999/02/22-rdf-syntax-ns#">
   <cc:Work>
    <dc:type rdf:resource="http://purl.org/dc/dcmitype/StillImage"/>
    <dc:date>2024-01-18T16:11:52.314251</dc:date>
    <dc:format>image/svg+xml</dc:format>
    <dc:creator>
     <cc:Agent>
      <dc:title>Matplotlib v3.7.2, https://matplotlib.org/</dc:title>
     </cc:Agent>
    </dc:creator>
   </cc:Work>
  </rdf:RDF>
 </metadata>
 <defs>
  <style type="text/css">*{stroke-linejoin: round; stroke-linecap: butt}</style>
 </defs>
 <g id="figure_1">
  <g id="patch_1">
   <path d="M 0 505.354841 
L 1242.115466 505.354841 
L 1242.115466 -0 
L 0 -0 
z
" style="fill: #ffffff"/>
  </g>
  <g id="axes_1">
   <g id="patch_2">
    <path d="M 103.074841 395.28 
L 940.074841 395.28 
L 940.074841 7.2 
L 103.074841 7.2 
z
" style="fill: #ffffff"/>
   </g>
   <g id="PolyCollection_1">
    <path d="M -451.867625 183.938809 
L -451.867625 184.626918 
L -449.574474 182.606524 
L -447.281324 180.325707 
L -444.988173 177.975324 
L -442.695022 175.383039 
L -440.401872 172.556771 
L -438.108721 170.399929 
L -435.81557 167.771587 
L -433.52242 165.203479 
L -431.229269 162.303596 
L -428.936118 159.983146 
L -426.642968 157.314299 
L -424.349817 154.634998 
L -422.056666 152.439932 
L -419.763515 150.486024 
L -417.470365 148.155753 
L -415.177214 146.235766 
L -412.884063 143.971018 
L -410.590913 141.46086 
L -408.297762 138.037488 
L -406.004611 135.689034 
L -403.711461 133.35704 
L -401.41831 131.549499 
L -399.125159 128.519883 
L -396.832009 126.801775 
L -394.538858 124.164363 
L -392.245707 121.204358 
L -389.952557 121.437888 
L -387.659406 118.829659 
L -385.366255 116.793533 
L -383.073105 115.99681 
L -380.779954 111.943776 
L -378.486803 110.914326 
L -376.193652 105.631185 
L -373.900502 106.81941 
L -371.607351 106.264893 
L -369.3142 102.896483 
L -367.02105 102.188739 
L -364.727899 102.083542 
L -362.434748 103.505603 
L -360.141598 100.236314 
L -357.848447 98.171323 
L -355.555296 97.406413 
L -353.262146 96.754364 
L -350.968995 92.492846 
L -348.675844 97.254873 
L -346.382694 98.216963 
L -344.089543 98.334712 
L -341.796392 98.800254 
L -339.503241 100.231001 
L -337.210091 94.382548 
L -334.91694 95.765767 
L -332.623789 99.906053 
L -330.330639 103.590897 
L -328.037488 102.909029 
L -325.744337 102.271086 
L -323.451187 108.709977 
L -321.158036 110.973381 
L -318.864885 112.448994 
L -316.571735 114.129034 
L -314.278584 116.289441 
L -311.985433 119.233348 
L -309.692283 121.425995 
L -307.399132 123.139784 
L -305.105981 120.666542 
L -302.812831 123.330506 
L -300.51968 129.132276 
L -298.226529 128.325355 
L -295.933378 127.794274 
L -293.640228 128.951812 
L -291.347077 136.977021 
L -289.053926 135.520544 
L -286.760776 133.803875 
L -284.467625 135.011908 
L -282.174474 136.778417 
L -279.881324 137.206186 
L -277.588173 137.642396 
L -275.295022 140.563284 
L -273.001872 140.310357 
L -270.708721 139.938499 
L -268.41557 140.50484 
L -266.12242 141.084825 
L -263.829269 141.796401 
L -261.536118 142.37659 
L -259.242968 140.862519 
L -256.949817 144.538642 
L -254.656666 142.83226 
L -252.363515 143.580892 
L -250.070365 144.298954 
L -247.777214 142.383339 
L -245.484063 141.524019 
L -243.190913 145.510739 
L -240.897762 148.389608 
L -238.604611 146.387381 
L -236.311461 146.272027 
L -234.01831 146.187257 
L -231.725159 146.129637 
L -229.432009 147.552037 
L -227.138858 148.920384 
L -224.845707 136.258244 
L -222.552557 143.589851 
L -220.259406 139.507478 
L -217.966255 150.397939 
L -215.673105 142.933782 
L -213.379954 140.859823 
L -211.086803 149.540488 
L -208.793652 149.48838 
L -206.500502 149.746812 
L -204.207351 148.638289 
L -201.9142 148.998059 
L -199.62105 149.603135 
L -197.327899 152.506527 
L -195.034748 152.819008 
L -192.741598 151.30678 
L -190.448447 151.261246 
L -188.155296 153.191278 
L -185.862146 152.800577 
L -183.568995 152.066305 
L -181.275844 155.84399 
L -178.982694 157.155248 
L -176.689543 156.665425 
L -174.396392 156.203827 
L -172.103241 156.947958 
L -169.810091 162.262022 
L -167.51694 159.331107 
L -165.223789 157.432615 
L -162.930639 157.916199 
L -160.637488 159.266028 
L -158.344337 159.840755 
L -156.051187 162.44156 
L -153.758036 166.237261 
L -151.464885 163.430686 
L -149.171735 164.642497 
L -146.878584 166.300574 
L -144.585433 166.324121 
L -142.292283 166.577987 
L -139.999132 167.63438 
L -137.705981 170.884307 
L -135.412831 167.587682 
L -133.11968 168.906219 
L -130.826529 169.902981 
L -128.533378 167.509131 
L -126.240228 167.223694 
L -123.947077 168.241929 
L -121.653926 172.585109 
L -119.360776 171.450076 
L -117.067625 171.847591 
L -114.774474 171.948294 
L -112.481324 173.249259 
L -110.188173 172.566022 
L -107.895022 173.061783 
L -105.601872 173.647203 
L -103.308721 172.682021 
L -101.01557 171.22516 
L -98.72242 170.719879 
L -96.429269 171.002973 
L -94.136118 170.530496 
L -91.842968 170.546326 
L -89.549817 170.958573 
L -87.256666 170.128428 
L -84.963515 169.473417 
L -82.670365 169.178115 
L -80.377214 169.114929 
L -78.084063 168.598756 
L -75.790913 167.912889 
L -73.497762 172.888922 
L -71.204611 167.253474 
L -68.911461 167.050242 
L -66.61831 166.836153 
L -64.325159 165.842514 
L -62.032009 166.452242 
L -59.738858 165.623913 
L -57.445707 166.296314 
L -55.152557 165.285923 
L -52.859406 164.676966 
L -50.566255 163.70821 
L -48.273105 167.382423 
L -45.979954 163.359469 
L -43.686803 163.349 
L -41.393652 161.440875 
L -39.100502 160.01774 
L -36.807351 160.261044 
L -34.5142 160.582432 
L -32.22105 158.66485 
L -29.927899 156.630707 
L -27.634748 155.653722 
L -25.341598 154.632851 
L -23.048447 153.521415 
L -20.755296 153.481893 
L -18.462146 154.371716 
L -16.168995 152.561828 
L -13.875844 152.128132 
L -11.582694 150.512555 
L -9.289543 153.825802 
L -6.996392 157.275897 
L -4.703241 150.577792 
L -2.410091 155.1397 
L -0.11694 159.762097 
L 2.176211 160.388001 
L 4.469361 161.473172 
L 6.762512 155.424308 
L 9.055663 149.797652 
L 11.348813 144.607536 
L 13.641964 145.263396 
L 15.935115 146.268746 
L 18.228265 147.689101 
L 20.521416 146.97793 
L 22.814567 146.230712 
L 25.107717 145.44264 
L 27.400868 144.610489 
L 29.694019 144.578819 
L 31.987169 144.60732 
L 34.28032 144.700077 
L 36.573471 174.747748 
L 38.866622 160.43764 
L 41.159772 145.769745 
L 43.452923 145.884461 
L 45.746074 145.918245 
L 48.039224 145.894684 
L 50.332375 145.831062 
L 52.625526 145.905002 
L 54.918676 146.047769 
L 57.211827 146.311349 
L 59.504978 146.712618 
L 61.798128 147.568235 
L 64.091279 148.487609 
L 66.38443 149.460166 
L 68.67758 150.47954 
L 70.970731 151.55029 
L 73.263882 151.079701 
L 75.557032 150.599467 
L 77.850183 150.107965 
L 80.143334 149.603632 
L 82.436485 149.084544 
L 84.729635 148.548311 
L 87.022786 147.99211 
L 89.315937 150.799474 
L 91.609087 153.375079 
L 93.902238 155.744112 
L 96.195389 157.929928 
L 98.488539 159.954083 
L 100.78169 161.835783 
L 103.074841 163.591786 
L 105.367991 165.236475 
L 107.661142 163.386055 
L 109.954293 161.437966 
L 112.247443 159.260561 
L 114.540594 156.816907 
L 116.833745 159.990351 
L 119.126895 163.02884 
L 121.420046 165.941347 
L 123.713197 167.552947 
L 126.006348 168.949052 
L 128.299498 170.167978 
L 130.592649 171.239903 
L 132.8858 174.464213 
L 135.17895 177.188658 
L 137.472101 179.524588 
L 139.765252 182.233064 
L 142.058402 186.404442 
L 144.351553 184.499441 
L 146.644704 181.856134 
L 148.937854 178.022948 
L 151.231005 180.773874 
L 153.524156 182.674178 
L 155.817306 184.334298 
L 158.110457 185.663052 
L 160.403608 186.750408 
L 162.696759 184.689617 
L 164.989909 185.199072 
L 167.28306 185.746782 
L 169.576211 187.300166 
L 171.869361 188.388932 
L 174.162512 192.136175 
L 176.455663 190.295472 
L 178.748813 188.743056 
L 181.041964 185.209236 
L 183.335115 191.458963 
L 185.628265 197.531662 
L 187.921416 191.897739 
L 190.214567 196.09279 
L 192.507717 196.128399 
L 194.800868 196.512975 
L 197.094019 194.927978 
L 199.387169 195.41829 
L 201.68032 196.64854 
L 203.973471 197.961562 
L 206.266622 194.339168 
L 208.559772 198.132684 
L 210.852923 199.696873 
L 213.146074 198.873544 
L 215.439224 202.046661 
L 217.732375 203.077624 
L 220.025526 202.462143 
L 222.318676 198.896994 
L 224.611827 199.431818 
L 226.904978 203.865596 
L 229.198128 200.233805 
L 231.491279 200.16055 
L 233.78443 201.018333 
L 236.07758 201.135774 
L 238.370731 199.530924 
L 240.663882 202.090813 
L 242.957032 205.164708 
L 245.250183 203.710992 
L 247.543334 205.238868 
L 249.836485 204.530694 
L 252.129635 204.200492 
L 254.422786 205.727963 
L 256.715937 206.267354 
L 259.009087 205.095819 
L 261.302238 205.927369 
L 263.595389 203.299731 
L 265.888539 200.825901 
L 268.18169 206.829327 
L 270.474841 204.922861 
L 272.767991 202.319916 
L 275.061142 206.817335 
L 277.354293 210.478639 
L 279.647443 209.564384 
L 281.940594 208.03793 
L 284.233745 206.682679 
L 286.526895 207.800514 
L 288.820046 211.556828 
L 291.113197 214.827146 
L 293.406348 213.631169 
L 295.699498 211.855029 
L 297.992649 214.559267 
L 300.2858 216.299043 
L 302.57895 208.029853 
L 304.872101 204.030097 
L 307.165252 206.917125 
L 309.458402 210.019315 
L 311.751553 213.30885 
L 314.044704 208.888646 
L 316.337854 205.620128 
L 318.631005 234.943012 
L 320.924156 215.966949 
L 323.217306 208.567032 
L 325.510457 221.669803 
L 327.803608 220.631284 
L 330.096759 220.210751 
L 332.389909 224.633855 
L 334.68306 228.769492 
L 336.976211 232.639626 
L 339.269361 231.418058 
L 341.562512 229.555603 
L 343.855663 234.922583 
L 346.148813 240.256024 
L 348.441964 239.482771 
L 350.735115 238.717113 
L 353.028265 237.954789 
L 355.321416 237.167672 
L 357.614567 236.056244 
L 359.907717 238.202306 
L 362.200868 240.052638 
L 364.494019 241.655428 
L 366.787169 247.587269 
L 369.08032 254.299678 
L 371.373471 261.938706 
L 373.666622 262.761558 
L 375.959772 263.331693 
L 378.252923 263.72673 
L 380.546074 279.988341 
L 382.839224 295.493979 
L 385.132375 310.28021 
L 387.425526 324.082795 
L 389.718676 315.49041 
L 392.011827 306.314473 
L 394.304978 315.329231 
L 396.598128 321.320794 
L 398.891279 338.353037 
L 401.18443 336.033266 
L 403.47758 339.209454 
L 405.770731 348.967392 
L 408.063882 345.045843 
L 410.357032 341.605598 
L 412.650183 348.668002 
L 414.943334 343.902904 
L 417.236485 345.418697 
L 419.529635 344.524306 
L 421.822786 346.178513 
L 424.115937 346.354833 
L 426.409087 346.324371 
L 428.702238 344.818679 
L 430.995389 343.359493 
L 433.288539 341.940018 
L 435.58169 339.803823 
L 437.874841 343.013241 
L 440.167991 346.864235 
L 442.461142 350.490148 
L 444.754293 352.436974 
L 447.047443 352.280076 
L 449.340594 349.226174 
L 451.633745 346.730182 
L 453.926895 350.435211 
L 456.220046 355.809282 
L 458.513197 354.522399 
L 460.806348 353.235993 
L 463.099498 352.0637 
L 465.392649 350.940116 
L 467.6858 348.864236 
L 469.97895 346.466224 
L 472.272101 349.140768 
L 474.565252 351.533046 
L 476.858402 348.785322 
L 479.151553 346.254568 
L 481.444704 343.90904 
L 483.737854 346.854788 
L 486.031005 350.605284 
L 488.324156 349.900917 
L 490.617306 349.196004 
L 492.910457 348.487451 
L 495.203608 340.105932 
L 497.496759 334.111984 
L 499.789909 335.601378 
L 502.08306 338.015289 
L 504.376211 337.949392 
L 506.669361 337.776618 
L 508.962512 337.50843 
L 511.255663 336.420554 
L 513.548813 335.373294 
L 515.841964 334.369426 
L 518.135115 332.541207 
L 520.428265 330.809902 
L 522.721416 329.15072 
L 525.014567 330.069975 
L 527.307717 330.979654 
L 529.600868 331.863361 
L 531.894019 331.881845 
L 534.187169 331.97662 
L 536.48032 332.150292 
L 538.773471 330.546473 
L 541.066622 328.963433 
L 543.359772 327.38861 
L 545.652923 326.110145 
L 547.946074 324.759145 
L 550.239224 323.172749 
L 552.532375 321.581881 
L 554.825526 319.981786 
L 557.118676 322.341135 
L 559.411827 324.449443 
L 561.704978 326.32569 
L 563.998128 325.374326 
L 566.291279 324.470135 
L 568.58443 323.624127 
L 570.87758 322.847537 
L 573.170731 322.228671 
L 575.463882 321.675523 
L 577.757032 321.191539 
L 580.050183 323.62962 
L 582.343334 325.618555 
L 584.636485 324.033558 
L 586.929635 322.411642 
L 589.222786 320.733071 
L 591.515937 318.299434 
L 593.809087 316.14885 
L 596.102238 314.205484 
L 598.395389 313.369692 
L 600.688539 312.499049 
L 602.98169 311.579903 
L 605.274841 310.970314 
L 607.567991 310.290386 
L 609.861142 309.53225 
L 612.154293 308.365359 
L 614.447443 307.134542 
L 616.740594 305.836466 
L 619.033745 304.468696 
L 621.326895 303.264264 
L 623.620046 302.035096 
L 625.913197 300.793869 
L 628.206348 298.161992 
L 630.499498 295.405235 
L 632.792649 292.521354 
L 635.0858 289.241733 
L 637.37895 286.060292 
L 639.672101 282.94068 
L 641.965252 282.951572 
L 644.258402 283.107465 
L 646.551553 283.066888 
L 648.844704 282.956384 
L 651.137854 282.75741 
L 653.431005 282.453494 
L 655.724156 279.909849 
L 658.017306 277.202293 
L 660.310457 274.308748 
L 662.603608 271.489631 
L 664.896759 268.739678 
L 667.189909 266.065876 
L 669.48306 262.738454 
L 671.776211 259.211876 
L 674.069361 255.461186 
L 676.362512 254.566043 
L 678.655663 253.678686 
L 680.948813 252.816041 
L 683.241964 251.988157 
L 685.535115 249.904074 
L 687.828265 247.852866 
L 690.121416 245.833638 
L 692.414567 243.844481 
L 694.707717 244.975334 
L 697.000868 246.452557 
L 699.294019 248.229806 
L 701.587169 246.497898 
L 703.88032 244.782049 
L 706.173471 243.065161 
L 708.466622 241.33474 
L 710.759772 239.582051 
L 713.052923 237.801888 
L 715.346074 236.606777 
L 717.639224 235.388033 
L 719.932375 234.147326 
L 722.225526 232.889434 
L 724.518676 231.621114 
L 726.811827 230.428426 
L 729.104978 229.290433 
L 731.398128 228.208273 
L 733.691279 227.17999 
L 735.98443 226.201565 
L 738.27758 224.504278 
L 740.570731 222.842227 
L 742.863882 221.203014 
L 745.157032 219.576979 
L 747.450183 217.956417 
L 749.743334 217.490925 
L 752.036485 217.061057 
L 754.329635 216.663427 
L 756.622786 216.295686 
L 758.915937 215.956609 
L 761.209087 215.646167 
L 763.502238 215.365711 
L 765.795389 215.118167 
L 768.088539 213.609659 
L 770.38169 212.109835 
L 772.674841 210.622412 
L 774.967991 209.150433 
L 777.261142 207.695906 
L 779.554293 206.259896 
L 781.847443 204.842877 
L 784.140594 203.445142 
L 786.433745 202.067202 
L 788.726895 200.710157 
L 791.020046 199.645877 
L 793.313197 198.627932 
L 795.606348 197.655918 
L 797.899498 196.729377 
L 800.192649 195.847475 
L 802.4858 195.008421 
L 804.77895 194.209068 
L 807.072101 193.44486 
L 809.365252 192.710072 
L 811.658402 191.875135 
L 813.951553 191.038473 
L 816.244704 190.186026 
L 818.537854 189.301519 
L 820.831005 188.365881 
L 823.124156 187.357298 
L 825.417306 186.252313 
L 827.710457 185.390941 
L 830.003608 184.484073 
L 832.296759 183.539325 
L 834.589909 182.567768 
L 836.88306 181.582248 
L 839.176211 181.569192 
L 841.469361 181.522118 
L 843.762512 181.44993 
L 846.055663 181.359226 
L 848.348813 180.540495 
L 850.641964 179.768889 
L 852.935115 179.035494 
L 855.228265 178.330139 
L 857.521416 177.642886 
L 859.814567 177.394451 
L 862.107717 177.081899 
L 864.400868 176.706005 
L 866.694019 176.270397 
L 868.987169 174.600047 
L 871.28032 172.965747 
L 873.573471 171.363172 
L 875.866622 169.78876 
L 878.159772 167.349496 
L 880.452923 164.576568 
L 882.746074 161.283038 
L 885.039224 162.480643 
L 887.332375 163.309413 
L 889.625526 163.832881 
L 891.918676 164.100707 
L 894.211827 161.801537 
L 896.504978 159.497977 
L 898.798128 157.185092 
L 901.091279 156.267768 
L 903.38443 155.554147 
L 905.67758 155.075107 
L 907.970731 154.501991 
L 910.263882 153.849275 
L 912.557032 152.892929 
L 914.850183 151.988862 
L 917.143334 151.134887 
L 919.436485 150.271399 
L 921.729635 149.400167 
L 924.022786 148.517892 
L 926.315937 147.62417 
L 928.609087 152.37853 
L 930.902238 156.806912 
L 933.195389 160.936325 
L 935.488539 155.648127 
L 937.78169 151.090812 
L 940.074841 147.090357 
L 942.367991 144.312374 
L 944.661142 141.189577 
L 946.954293 137.608963 
L 949.247443 140.660585 
L 951.540594 144.362306 
L 953.833745 140.375317 
L 956.126895 136.517846 
L 958.420046 132.744358 
L 960.713197 131.42608 
L 963.006348 130.038284 
L 965.299498 128.559974 
L 967.592649 126.976676 
L 969.8858 125.283021 
L 972.17895 123.951642 
L 974.472101 122.496355 
L 976.765252 120.94187 
L 979.058402 119.324895 
L 981.351553 117.691675 
L 983.644704 116.094256 
L 985.937854 114.80454 
L 988.231005 113.632643 
L 990.524156 112.603836 
L 992.817306 111.730825 
L 995.110457 110.136409 
L 997.403608 108.703229 
L 999.696759 107.405356 
L 1001.989909 106.213501 
L 1004.28306 105.098906 
L 1006.576211 104.035676 
L 1008.869361 107.322779 
L 1008.869361 77.582164 
L 1008.869361 77.582164 
L 1006.576211 74.377246 
L 1004.28306 74.810659 
L 1001.989909 75.29981 
L 999.696759 75.870101 
L 997.403608 76.549381 
L 995.110457 77.276818 
L 992.817306 78.163128 
L 990.524156 78.507926 
L 988.231005 78.997866 
L 985.937854 79.619458 
L 983.644704 80.347291 
L 981.351553 81.579514 
L 979.058402 82.824603 
L 976.765252 84.033472 
L 974.472101 85.163083 
L 972.17895 86.179944 
L 969.8858 87.062419 
L 967.592649 87.950186 
L 965.299498 88.737997 
L 963.006348 89.339042 
L 960.713197 89.841637 
L 958.420046 90.285161 
L 956.126895 92.716835 
L 953.833745 95.213996 
L 951.540594 97.819466 
L 949.247443 94.553829 
L 946.954293 91.768582 
L 944.661142 94.439654 
L 942.367991 96.67368 
L 940.074841 98.508327 
L 937.78169 101.152088 
L 935.488539 104.276917 
L 933.195389 108.033474 
L 930.902238 104.197662 
L 928.609087 100.091044 
L 926.315937 95.689663 
L 924.022786 95.99309 
L 921.729635 96.279494 
L 919.436485 96.550001 
L 917.143334 96.808473 
L 914.850183 96.780153 
L 912.557032 96.807792 
L 910.263882 96.80629 
L 907.970731 96.760048 
L 905.67758 96.657889 
L 903.38443 96.490304 
L 901.091279 96.045557 
L 898.798128 95.891905 
L 896.504978 97.499538 
L 894.211827 99.124729 
L 891.918676 100.775021 
L 889.625526 100.146687 
L 887.332375 99.32808 
L 885.039224 98.303101 
L 882.746074 97.035229 
L 880.452923 98.015535 
L 878.159772 98.833988 
L 875.866622 99.556825 
L 873.573471 100.247449 
L 871.28032 100.98167 
L 868.987169 101.764871 
L 866.694019 102.603577 
L 864.400868 102.102234 
L 862.107717 101.539991 
L 859.814567 100.913549 
L 857.521416 100.222223 
L 855.228265 100.055009 
L 852.935115 99.914747 
L 850.641964 99.811414 
L 848.348813 99.754871 
L 846.055663 99.753235 
L 843.762512 99.291443 
L 841.469361 98.805371 
L 839.176211 98.28834 
L 836.88306 97.73184 
L 834.589909 97.892664 
L 832.296759 98.047241 
L 830.003608 98.18348 
L 827.710457 98.291174 
L 825.417306 98.363366 
L 823.124156 99.065671 
L 820.831005 99.675107 
L 818.537854 100.21618 
L 816.244704 100.711547 
L 813.951553 101.180998 
L 811.658402 101.64144 
L 809.365252 102.107445 
L 807.072101 101.921564 
L 804.77895 101.781608 
L 802.4858 101.693382 
L 800.192649 101.661484 
L 797.899498 101.689096 
L 795.606348 101.778059 
L 793.313197 101.818772 
L 791.020046 101.826708 
L 788.726895 101.898417 
L 786.433745 102.258509 
L 784.140594 102.645426 
L 781.847443 103.058118 
L 779.554293 103.496105 
L 777.261142 103.9591 
L 774.967991 104.4466 
L 772.674841 104.957471 
L 770.38169 105.489604 
L 768.088539 106.039835 
L 765.795389 106.527297 
L 763.502238 106.383066 
L 761.209087 106.274298 
L 758.915937 106.198471 
L 756.622786 106.154669 
L 754.329635 106.14339 
L 752.036485 106.166355 
L 749.743334 106.226468 
L 747.450183 106.32785 
L 745.157032 106.998708 
L 742.863882 107.669135 
L 740.570731 108.257682 
L 738.27758 108.846582 
L 735.98443 109.459283 
L 733.691279 109.507521 
L 731.398128 109.626799 
L 729.104978 109.821847 
L 726.811827 110.095147 
L 724.518676 110.445929 
L 722.225526 111.481111 
L 719.932375 112.497453 
L 717.639224 113.490115 
L 715.346074 114.454195 
L 713.052923 115.387811 
L 710.759772 116.31276 
L 708.466622 117.221192 
L 706.173471 118.114728 
L 703.88032 118.998402 
L 701.587169 119.88079 
L 699.294019 120.774699 
L 697.000868 117.942408 
L 694.707717 115.447286 
L 692.414567 113.32461 
L 690.121416 115.553063 
L 687.828265 117.858125 
L 685.535115 120.246329 
L 683.241964 122.721271 
L 680.948813 123.062204 
L 678.655663 123.464057 
L 676.362512 123.922719 
L 674.069361 124.429854 
L 671.776211 129.473701 
L 669.48306 134.315238 
L 667.189909 138.962407 
L 664.896759 139.617702 
L 662.603608 140.451354 
L 660.310457 141.451405 
L 658.017306 144.594999 
L 655.724156 147.529896 
L 653.431005 150.274737 
L 651.137854 151.298643 
L 648.844704 152.238933 
L 646.551553 153.112591 
L 644.258402 153.939996 
L 641.965252 153.415354 
L 639.672101 153.078167 
L 637.37895 155.865462 
L 635.0858 158.701739 
L 632.792649 161.611292 
L 630.499498 164.018621 
L 628.206348 166.33811 
L 625.913197 168.568964 
L 623.620046 169.604576 
L 621.326895 170.648097 
L 619.033745 171.685016 
L 616.740594 172.781542 
L 614.447443 173.845766 
L 612.154293 174.876627 
L 609.861142 175.874804 
L 607.567991 176.768931 
L 605.274841 177.601358 
L 602.98169 178.379937 
L 600.688539 179.556343 
L 598.395389 180.701623 
L 596.102238 181.829749 
L 593.809087 183.081195 
L 591.515937 184.398496 
L 589.222786 185.810145 
L 586.929635 187.767667 
L 584.636485 189.663444 
L 582.343334 191.519567 
L 580.050183 191.253523 
L 577.757032 190.832272 
L 575.463882 192.203665 
L 573.170731 193.622672 
L 570.87758 195.089399 
L 568.58443 196.222737 
L 566.291279 197.449497 
L 563.998128 198.755149 
L 561.704978 200.124951 
L 559.411827 200.383499 
L 557.118676 200.542217 
L 554.825526 200.594728 
L 552.532375 202.699196 
L 550.239224 204.821208 
L 547.946074 206.965086 
L 545.652923 208.84114 
L 543.359772 210.623983 
L 541.066622 212.430296 
L 538.773471 214.24165 
L 536.48032 216.064961 
L 534.187169 216.867611 
L 531.894019 217.711348 
L 529.600868 218.596416 
L 527.307717 219.957928 
L 525.014567 221.27624 
L 522.721416 222.563707 
L 520.428265 223.731967 
L 518.135115 224.958595 
L 515.841964 226.264299 
L 513.548813 228.253897 
L 511.255663 230.298679 
L 508.962512 232.397467 
L 506.669361 233.549282 
L 504.376211 234.60952 
L 502.08306 235.5633 
L 499.789909 235.346492 
L 497.496759 235.576078 
L 495.203608 239.259244 
L 492.910457 244.026106 
L 490.617306 245.53376 
L 488.324156 247.030206 
L 486.031005 248.517426 
L 483.737854 247.280864 
L 481.444704 246.447576 
L 479.151553 248.611887 
L 476.858402 250.900517 
L 474.565252 253.336901 
L 472.272101 252.861885 
L 469.97895 252.170192 
L 467.6858 254.286486 
L 465.392649 256.215801 
L 463.099498 258.916859 
L 460.806348 261.805971 
L 458.513197 263.034942 
L 456.220046 264.218869 
L 453.926895 261.622082 
L 451.633745 260.020089 
L 449.340594 262.9807 
L 447.047443 266.571225 
L 444.754293 267.145613 
L 442.461142 267.233213 
L 440.167991 266.666942 
L 437.874841 265.34813 
L 435.58169 264.307442 
L 433.288539 263.991781 
L 430.995389 265.781642 
L 428.702238 267.609398 
L 426.409087 269.480713 
L 424.115937 271.053531 
L 421.822786 272.883599 
L 419.529635 270.777123 
L 417.236485 270.639085 
L 414.943334 269.802627 
L 412.650183 273.925612 
L 410.357032 270.984204 
L 408.063882 273.068938 
L 405.770731 275.412604 
L 403.47758 269.3776 
L 401.18443 267.698945 
L 398.891279 267.366522 
L 396.598128 256.98636 
L 394.304978 253.667606 
L 392.011827 248.607755 
L 389.718676 254.012339 
L 387.425526 259.094986 
L 385.132375 247.265237 
L 382.839224 237.738478 
L 380.546074 227.856876 
L 378.252923 217.615446 
L 375.959772 217.881428 
L 373.666622 218.103085 
L 371.373471 218.261704 
L 369.08032 213.392158 
L 366.787169 209.189926 
L 364.494019 205.547039 
L 362.200868 205.344612 
L 359.907717 205.041015 
L 357.614567 204.622035 
L 355.321416 205.293908 
L 353.028265 205.80036 
L 350.735115 206.13983 
L 348.441964 206.481317 
L 346.148813 206.830002 
L 343.855663 203.827383 
L 341.562512 200.853234 
L 339.269361 202.521468 
L 336.976211 203.646938 
L 334.68306 201.871178 
L 332.389909 199.959288 
L 330.096759 197.893124 
L 327.803608 197.825398 
L 325.510457 197.786511 
L 323.217306 191.644172 
L 320.924156 195.164537 
L 318.631005 206.015678 
L 316.337854 189.673501 
L 314.044704 191.427829 
L 311.751553 193.69881 
L 309.458402 192.667979 
L 307.165252 191.7158 
L 304.872101 190.359161 
L 302.57895 192.325953 
L 300.2858 196.639012 
L 297.992649 195.896918 
L 295.699498 194.745923 
L 293.406348 195.907659 
L 291.113197 196.659838 
L 288.820046 194.26887 
L 286.526895 192.558623 
L 284.233745 192.263489 
L 281.940594 193.558794 
L 279.647443 194.003439 
L 277.354293 194.323145 
L 275.061142 192.662324 
L 272.767991 190.834855 
L 270.474841 191.824262 
L 268.18169 193.174116 
L 265.888539 190.356108 
L 263.595389 191.446471 
L 261.302238 192.663154 
L 259.009087 192.55895 
L 256.715937 193.389097 
L 254.422786 193.101769 
L 252.129635 192.636029 
L 249.836485 192.659877 
L 247.543334 192.368502 
L 245.250183 192.583185 
L 242.957032 193.258157 
L 240.663882 192.395055 
L 238.370731 190.658894 
L 236.07758 191.189383 
L 233.78443 191.246254 
L 231.491279 190.988628 
L 229.198128 191.464629 
L 226.904978 192.587463 
L 224.611827 190.536777 
L 222.318676 190.217033 
L 220.025526 192.132446 
L 217.732375 192.826761 
L 215.439224 192.833125 
L 213.146074 190.43778 
L 210.852923 190.220855 
L 208.559772 189.675765 
L 206.266622 187.048814 
L 203.973471 190.609529 
L 201.68032 188.648192 
L 199.387169 188.828245 
L 197.094019 188.478827 
L 194.800868 189.581628 
L 192.507717 188.80566 
L 190.214567 188.61643 
L 187.921416 185.544135 
L 185.628265 189.918308 
L 183.335115 184.120569 
L 181.041964 178.035764 
L 178.748813 184.403441 
L 176.455663 185.075029 
L 174.162512 185.897725 
L 171.869361 185.3489 
L 169.576211 184.049797 
L 167.28306 182.158252 
L 164.989909 182.133536 
L 162.696759 182.106814 
L 160.403608 182.968113 
L 158.110457 182.298911 
L 155.817306 181.464072 
L 153.524156 180.400538 
L 151.231005 176.809977 
L 148.937854 171.498332 
L 146.644704 175.280903 
L 144.351553 177.943273 
L 142.058402 183.743351 
L 139.765252 177.636091 
L 137.472101 173.657421 
L 135.17895 170.177492 
L 132.8858 166.097707 
L 130.592649 161.244779 
L 128.299498 159.292583 
L 126.006348 157.069335 
L 123.713197 154.514168 
L 121.420046 151.547927 
L 119.126895 147.520375 
L 116.833745 143.305446 
L 114.540594 138.892399 
L 112.247443 142.773919 
L 109.954293 146.291291 
L 107.661142 149.49522 
L 105.367991 152.426694 
L 103.074841 150.329483 
L 100.78169 148.094225 
L 98.488539 145.704735 
L 96.195389 143.142027 
L 93.902238 140.384004 
L 91.609087 137.405285 
L 89.315937 134.177259 
L 87.022786 130.668408 
L 84.729635 131.972401 
L 82.436485 133.241501 
L 80.143334 134.477524 
L 77.850183 135.681684 
L 75.557032 136.854359 
L 73.263882 137.994819 
L 70.970731 139.100893 
L 68.67758 137.666574 
L 66.38443 136.344264 
L 64.091279 135.131399 
L 61.798128 134.027722 
L 59.504978 133.0368 
L 57.211827 133.142824 
L 54.918676 133.318532 
L 52.625526 133.567673 
L 50.332375 133.894205 
L 48.039224 134.690586 
L 45.746074 135.466643 
L 43.452923 136.212928 
L 41.159772 136.918456 
L 38.866622 154.255612 
L 36.573471 168.36074 
L 34.28032 136.123064 
L 31.987169 136.419022 
L 29.694019 136.786705 
L 27.400868 137.220726 
L 25.107717 138.559175 
L 22.814567 139.851306 
L 20.521416 141.095896 
L 18.228265 142.289183 
L 15.935115 141.007742 
L 13.641964 140.202162 
L 11.348813 139.793871 
L 9.055663 144.572989 
L 6.762512 148.776462 
L 4.469361 153.240143 
L 2.176211 152.381114 
L -0.11694 151.873866 
L -2.410091 148.8251 
L -4.703241 145.933781 
L -6.996392 149.171002 
L -9.289543 147.273665 
L -11.582694 145.60055 
L -13.875844 146.995394 
L -16.168995 147.492902 
L -18.462146 148.836236 
L -20.755296 148.45693 
L -23.048447 148.380194 
L -25.341598 149.217057 
L -27.634748 150.044575 
L -29.927899 151.019554 
L -32.22105 152.98304 
L -34.5142 153.685692 
L -36.807351 153.709999 
L -39.100502 153.800748 
L -41.393652 154.944513 
L -43.686803 156.345025 
L -45.979954 156.781753 
L -48.273105 160.382534 
L -50.566255 157.672291 
L -52.859406 157.956528 
L -55.152557 158.46199 
L -57.445707 159.402486 
L -59.738858 158.83245 
L -62.032009 158.926891 
L -64.325159 158.142768 
L -66.61831 159.016804 
L -68.911461 159.609302 
L -71.204611 159.583657 
L -73.497762 163.54749 
L -75.790913 159.470723 
L -78.084063 160.085344 
L -80.377214 160.758184 
L -82.670365 160.531521 
L -84.963515 161.486517 
L -87.256666 161.497811 
L -89.549817 161.462841 
L -91.842968 161.630538 
L -94.136118 162.356327 
L -96.429269 162.706166 
L -98.72242 162.212393 
L -101.01557 163.110635 
L -103.308721 164.540946 
L -105.601872 163.993798 
L -107.895022 164.864091 
L -110.188173 164.629692 
L -112.481324 164.685346 
L -114.774474 163.418647 
L -117.067625 163.096678 
L -119.360776 162.782662 
L -121.653926 162.316189 
L -123.947077 157.936072 
L -126.240228 156.139146 
L -128.533378 156.307972 
L -130.826529 158.18286 
L -133.11968 157.509924 
L -135.412831 155.797338 
L -137.705981 158.697234 
L -139.999132 155.119246 
L -142.292283 153.116981 
L -144.585433 154.104193 
L -146.878584 154.133012 
L -149.171735 152.197517 
L -151.464885 150.432064 
L -153.758036 153.807228 
L -156.051187 148.803659 
L -158.344337 144.885007 
L -160.637488 144.359638 
L -162.930639 142.327622 
L -165.223789 141.812384 
L -167.51694 143.833857 
L -169.810091 147.667176 
L -172.103241 140.630738 
L -174.396392 139.18286 
L -176.689543 139.870773 
L -178.982694 141.05315 
L -181.275844 138.920702 
L -183.568995 132.436815 
L -185.862146 133.948654 
L -188.155296 134.695478 
L -190.448447 132.260177 
L -192.741598 132.286717 
L -195.034748 134.709778 
L -197.327899 134.27157 
L -199.62105 129.410399 
L -201.9142 128.891432 
L -204.207351 128.631978 
L -206.500502 130.327608 
L -208.793652 130.272451 
L -211.086803 130.244113 
L -213.379954 118.818136 
L -215.673105 121.829043 
L -217.966255 131.399645 
L -220.259406 118.320746 
L -222.552557 123.641459 
L -224.845707 115.565878 
L -227.138858 130.390529 
L -229.432009 129.319364 
L -231.725159 127.854425 
L -234.01831 128.18479 
L -236.311461 128.549741 
L -238.604611 129.44985 
L -240.897762 131.286409 
L -243.190913 128.6475 
L -245.484063 124.92781 
L -247.777214 126.162283 
L -250.070365 128.489534 
L -252.363515 127.917443 
L -254.656666 127.312853 
L -256.949817 129.386912 
L -259.242968 125.911855 
L -261.536118 127.286551 
L -263.829269 127.092895 
L -266.12242 126.798048 
L -268.41557 126.60796 
L -270.708721 126.425362 
L -273.001872 126.915788 
L -275.295022 127.330087 
L -277.588173 124.686112 
L -279.881324 124.836669 
L -282.174474 125.011828 
L -284.467625 123.780146 
L -286.760776 123.042369 
L -289.053926 124.825182 
L -291.347077 126.690912 
L -293.640228 119.838708 
L -295.933378 119.282794 
L -298.226529 119.953429 
L -300.51968 120.839183 
L -302.812831 116.055597 
L -305.105981 114.009329 
L -307.399132 116.50392 
L -309.692283 114.943268 
L -311.985433 113.381328 
L -314.278584 111.201503 
L -316.571735 109.663002 
L -318.864885 108.226968 
L -321.158036 107.219242 
L -323.451187 105.497539 
L -325.744337 100.172505 
L -328.037488 100.766327 
L -330.330639 101.392322 
L -332.623789 98.182875 
L -334.91694 94.505254 
L -337.210091 93.340688 
L -339.503241 99.190005 
L -341.796392 97.916233 
L -344.089543 97.570245 
L -346.382694 97.329334 
L -348.675844 96.212264 
L -350.968995 91.098047 
L -353.262146 95.415703 
L -355.555296 96.152721 
L -357.848447 96.855257 
L -360.141598 98.871821 
L -362.434748 102.098607 
L -364.727899 100.513832 
L -367.02105 100.486446 
L -369.3142 101.272075 
L -371.607351 104.699285 
L -373.900502 105.168981 
L -376.193652 104.027395 
L -378.486803 109.436419 
L -380.779954 110.489745 
L -383.073105 114.633508 
L -385.366255 115.494313 
L -387.659406 117.592688 
L -389.952557 120.179094 
L -392.245707 120.122756 
L -394.538858 123.014203 
L -396.832009 125.63913 
L -399.125159 127.385557 
L -401.41831 130.370954 
L -403.711461 132.296893 
L -406.004611 134.634165 
L -408.297762 137.077532 
L -410.590913 140.532028 
L -412.884063 142.857826 
L -415.177214 145.156572 
L -417.470365 147.109442 
L -419.763515 149.327568 
L -422.056666 151.154625 
L -424.349817 153.443306 
L -426.642968 155.797635 
L -428.936118 158.555416 
L -431.229269 160.779824 
L -433.52242 163.487302 
L -435.81557 165.985783 
L -438.108721 168.485592 
L -440.401872 170.719189 
L -442.695022 173.584218 
L -444.988173 176.212609 
L -447.281324 178.791424 
L -449.574474 181.398299 
L -451.867625 183.938809 
z
" clip-path="url(#pffadd0d649)" style="fill: #008000; fill-opacity: 0.3; stroke: #008000; stroke-opacity: 0.3"/>
   </g>
   <g id="matplotlib.axis_1">
    <g id="xtick_1">
     <g id="line2d_1">
      <defs>
       <path id="m8dbd1dc0ac" d="M 0 0 
L 0 3.5 
" style="stroke: #000000; stroke-width: 0.8"/>
      </defs>
      <g>
       <use xlink:href="#m8dbd1dc0ac" x="103.074841" y="395.28" style="stroke: #000000; stroke-width: 0.8"/>
      </g>
     </g>
     <g id="text_1">
      <!-- 2022-10-01 -->
      <g transform="translate(17.945813 495.213718) rotate(-45) scale(0.2 -0.2)">
       <defs>
        <path id="DejaVuSans-32" d="M 1228 531 
L 3431 531 
L 3431 0 
L 469 0 
L 469 531 
Q 828 903 1448 1529 
Q 2069 2156 2228 2338 
Q 2531 2678 2651 2914 
Q 2772 3150 2772 3378 
Q 2772 3750 2511 3984 
Q 2250 4219 1831 4219 
Q 1534 4219 1204 4116 
Q 875 4013 500 3803 
L 500 4441 
Q 881 4594 1212 4672 
Q 1544 4750 1819 4750 
Q 2544 4750 2975 4387 
Q 3406 4025 3406 3419 
Q 3406 3131 3298 2873 
Q 3191 2616 2906 2266 
Q 2828 2175 2409 1742 
Q 1991 1309 1228 531 
z
" transform="scale(0.015625)"/>
        <path id="DejaVuSans-30" d="M 2034 4250 
Q 1547 4250 1301 3770 
Q 1056 3291 1056 2328 
Q 1056 1369 1301 889 
Q 1547 409 2034 409 
Q 2525 409 2770 889 
Q 3016 1369 3016 2328 
Q 3016 3291 2770 3770 
Q 2525 4250 2034 4250 
z
M 2034 4750 
Q 2819 4750 3233 4129 
Q 3647 3509 3647 2328 
Q 3647 1150 3233 529 
Q 2819 -91 2034 -91 
Q 1250 -91 836 529 
Q 422 1150 422 2328 
Q 422 3509 836 4129 
Q 1250 4750 2034 4750 
z
" transform="scale(0.015625)"/>
        <path id="DejaVuSans-2d" d="M 313 2009 
L 1997 2009 
L 1997 1497 
L 313 1497 
L 313 2009 
z
" transform="scale(0.015625)"/>
        <path id="DejaVuSans-31" d="M 794 531 
L 1825 531 
L 1825 4091 
L 703 3866 
L 703 4441 
L 1819 4666 
L 2450 4666 
L 2450 531 
L 3481 531 
L 3481 0 
L 794 0 
L 794 531 
z
" transform="scale(0.015625)"/>
       </defs>
       <use xlink:href="#DejaVuSans-32"/>
       <use xlink:href="#DejaVuSans-30" x="63.623047"/>
       <use xlink:href="#DejaVuSans-32" x="127.246094"/>
       <use xlink:href="#DejaVuSans-32" x="190.869141"/>
       <use xlink:href="#DejaVuSans-2d" x="254.492188"/>
       <use xlink:href="#DejaVuSans-31" x="290.576172"/>
       <use xlink:href="#DejaVuSans-30" x="354.199219"/>
       <use xlink:href="#DejaVuSans-2d" x="417.822266"/>
       <use xlink:href="#DejaVuSans-30" x="453.90625"/>
       <use xlink:href="#DejaVuSans-31" x="517.529297"/>
      </g>
     </g>
    </g>
    <g id="xtick_2">
     <g id="line2d_2">
      <g>
       <use xlink:href="#m8dbd1dc0ac" x="167.28306" y="395.28" style="stroke: #000000; stroke-width: 0.8"/>
      </g>
     </g>
     <g id="text_2">
      <!-- 2022-10-29 -->
      <g transform="translate(82.154033 495.213718) rotate(-45) scale(0.2 -0.2)">
       <defs>
        <path id="DejaVuSans-39" d="M 703 97 
L 703 672 
Q 941 559 1184 500 
Q 1428 441 1663 441 
Q 2288 441 2617 861 
Q 2947 1281 2994 2138 
Q 2813 1869 2534 1725 
Q 2256 1581 1919 1581 
Q 1219 1581 811 2004 
Q 403 2428 403 3163 
Q 403 3881 828 4315 
Q 1253 4750 1959 4750 
Q 2769 4750 3195 4129 
Q 3622 3509 3622 2328 
Q 3622 1225 3098 567 
Q 2575 -91 1691 -91 
Q 1453 -91 1209 -44 
Q 966 3 703 97 
z
M 1959 2075 
Q 2384 2075 2632 2365 
Q 2881 2656 2881 3163 
Q 2881 3666 2632 3958 
Q 2384 4250 1959 4250 
Q 1534 4250 1286 3958 
Q 1038 3666 1038 3163 
Q 1038 2656 1286 2365 
Q 1534 2075 1959 2075 
z
" transform="scale(0.015625)"/>
       </defs>
       <use xlink:href="#DejaVuSans-32"/>
       <use xlink:href="#DejaVuSans-30" x="63.623047"/>
       <use xlink:href="#DejaVuSans-32" x="127.246094"/>
       <use xlink:href="#DejaVuSans-32" x="190.869141"/>
       <use xlink:href="#DejaVuSans-2d" x="254.492188"/>
       <use xlink:href="#DejaVuSans-31" x="290.576172"/>
       <use xlink:href="#DejaVuSans-30" x="354.199219"/>
       <use xlink:href="#DejaVuSans-2d" x="417.822266"/>
       <use xlink:href="#DejaVuSans-32" x="453.90625"/>
       <use xlink:href="#DejaVuSans-39" x="517.529297"/>
      </g>
     </g>
    </g>
    <g id="xtick_3">
     <g id="line2d_3">
      <g>
       <use xlink:href="#m8dbd1dc0ac" x="231.491279" y="395.28" style="stroke: #000000; stroke-width: 0.8"/>
      </g>
     </g>
     <g id="text_3">
      <!-- 2022-11-26 -->
      <g transform="translate(146.362252 495.213718) rotate(-45) scale(0.2 -0.2)">
       <defs>
        <path id="DejaVuSans-36" d="M 2113 2584 
Q 1688 2584 1439 2293 
Q 1191 2003 1191 1497 
Q 1191 994 1439 701 
Q 1688 409 2113 409 
Q 2538 409 2786 701 
Q 3034 994 3034 1497 
Q 3034 2003 2786 2293 
Q 2538 2584 2113 2584 
z
M 3366 4563 
L 3366 3988 
Q 3128 4100 2886 4159 
Q 2644 4219 2406 4219 
Q 1781 4219 1451 3797 
Q 1122 3375 1075 2522 
Q 1259 2794 1537 2939 
Q 1816 3084 2150 3084 
Q 2853 3084 3261 2657 
Q 3669 2231 3669 1497 
Q 3669 778 3244 343 
Q 2819 -91 2113 -91 
Q 1303 -91 875 529 
Q 447 1150 447 2328 
Q 447 3434 972 4092 
Q 1497 4750 2381 4750 
Q 2619 4750 2861 4703 
Q 3103 4656 3366 4563 
z
" transform="scale(0.015625)"/>
       </defs>
       <use xlink:href="#DejaVuSans-32"/>
       <use xlink:href="#DejaVuSans-30" x="63.623047"/>
       <use xlink:href="#DejaVuSans-32" x="127.246094"/>
       <use xlink:href="#DejaVuSans-32" x="190.869141"/>
       <use xlink:href="#DejaVuSans-2d" x="254.492188"/>
       <use xlink:href="#DejaVuSans-31" x="290.576172"/>
       <use xlink:href="#DejaVuSans-31" x="354.199219"/>
       <use xlink:href="#DejaVuSans-2d" x="417.822266"/>
       <use xlink:href="#DejaVuSans-32" x="453.90625"/>
       <use xlink:href="#DejaVuSans-36" x="517.529297"/>
      </g>
     </g>
    </g>
    <g id="xtick_4">
     <g id="line2d_4">
      <g>
       <use xlink:href="#m8dbd1dc0ac" x="295.699498" y="395.28" style="stroke: #000000; stroke-width: 0.8"/>
      </g>
     </g>
     <g id="text_4">
      <!-- 2022-12-24 -->
      <g transform="translate(210.570471 495.213718) rotate(-45) scale(0.2 -0.2)">
       <defs>
        <path id="DejaVuSans-34" d="M 2419 4116 
L 825 1625 
L 2419 1625 
L 2419 4116 
z
M 2253 4666 
L 3047 4666 
L 3047 1625 
L 3713 1625 
L 3713 1100 
L 3047 1100 
L 3047 0 
L 2419 0 
L 2419 1100 
L 313 1100 
L 313 1709 
L 2253 4666 
z
" transform="scale(0.015625)"/>
       </defs>
       <use xlink:href="#DejaVuSans-32"/>
       <use xlink:href="#DejaVuSans-30" x="63.623047"/>
       <use xlink:href="#DejaVuSans-32" x="127.246094"/>
       <use xlink:href="#DejaVuSans-32" x="190.869141"/>
       <use xlink:href="#DejaVuSans-2d" x="254.492188"/>
       <use xlink:href="#DejaVuSans-31" x="290.576172"/>
       <use xlink:href="#DejaVuSans-32" x="354.199219"/>
       <use xlink:href="#DejaVuSans-2d" x="417.822266"/>
       <use xlink:href="#DejaVuSans-32" x="453.90625"/>
       <use xlink:href="#DejaVuSans-34" x="517.529297"/>
      </g>
     </g>
    </g>
    <g id="xtick_5">
     <g id="line2d_5">
      <g>
       <use xlink:href="#m8dbd1dc0ac" x="359.907717" y="395.28" style="stroke: #000000; stroke-width: 0.8"/>
      </g>
     </g>
     <g id="text_5">
      <!-- 2023-01-21 -->
      <g transform="translate(274.77869 495.213718) rotate(-45) scale(0.2 -0.2)">
       <defs>
        <path id="DejaVuSans-33" d="M 2597 2516 
Q 3050 2419 3304 2112 
Q 3559 1806 3559 1356 
Q 3559 666 3084 287 
Q 2609 -91 1734 -91 
Q 1441 -91 1130 -33 
Q 819 25 488 141 
L 488 750 
Q 750 597 1062 519 
Q 1375 441 1716 441 
Q 2309 441 2620 675 
Q 2931 909 2931 1356 
Q 2931 1769 2642 2001 
Q 2353 2234 1838 2234 
L 1294 2234 
L 1294 2753 
L 1863 2753 
Q 2328 2753 2575 2939 
Q 2822 3125 2822 3475 
Q 2822 3834 2567 4026 
Q 2313 4219 1838 4219 
Q 1578 4219 1281 4162 
Q 984 4106 628 3988 
L 628 4550 
Q 988 4650 1302 4700 
Q 1616 4750 1894 4750 
Q 2613 4750 3031 4423 
Q 3450 4097 3450 3541 
Q 3450 3153 3228 2886 
Q 3006 2619 2597 2516 
z
" transform="scale(0.015625)"/>
       </defs>
       <use xlink:href="#DejaVuSans-32"/>
       <use xlink:href="#DejaVuSans-30" x="63.623047"/>
       <use xlink:href="#DejaVuSans-32" x="127.246094"/>
       <use xlink:href="#DejaVuSans-33" x="190.869141"/>
       <use xlink:href="#DejaVuSans-2d" x="254.492188"/>
       <use xlink:href="#DejaVuSans-30" x="290.576172"/>
       <use xlink:href="#DejaVuSans-31" x="354.199219"/>
       <use xlink:href="#DejaVuSans-2d" x="417.822266"/>
       <use xlink:href="#DejaVuSans-32" x="453.90625"/>
       <use xlink:href="#DejaVuSans-31" x="517.529297"/>
      </g>
     </g>
    </g>
    <g id="xtick_6">
     <g id="line2d_6">
      <g>
       <use xlink:href="#m8dbd1dc0ac" x="424.115937" y="395.28" style="stroke: #000000; stroke-width: 0.8"/>
      </g>
     </g>
     <g id="text_6">
      <!-- 2023-02-18 -->
      <g transform="translate(338.986909 495.213718) rotate(-45) scale(0.2 -0.2)">
       <defs>
        <path id="DejaVuSans-38" d="M 2034 2216 
Q 1584 2216 1326 1975 
Q 1069 1734 1069 1313 
Q 1069 891 1326 650 
Q 1584 409 2034 409 
Q 2484 409 2743 651 
Q 3003 894 3003 1313 
Q 3003 1734 2745 1975 
Q 2488 2216 2034 2216 
z
M 1403 2484 
Q 997 2584 770 2862 
Q 544 3141 544 3541 
Q 544 4100 942 4425 
Q 1341 4750 2034 4750 
Q 2731 4750 3128 4425 
Q 3525 4100 3525 3541 
Q 3525 3141 3298 2862 
Q 3072 2584 2669 2484 
Q 3125 2378 3379 2068 
Q 3634 1759 3634 1313 
Q 3634 634 3220 271 
Q 2806 -91 2034 -91 
Q 1263 -91 848 271 
Q 434 634 434 1313 
Q 434 1759 690 2068 
Q 947 2378 1403 2484 
z
M 1172 3481 
Q 1172 3119 1398 2916 
Q 1625 2713 2034 2713 
Q 2441 2713 2670 2916 
Q 2900 3119 2900 3481 
Q 2900 3844 2670 4047 
Q 2441 4250 2034 4250 
Q 1625 4250 1398 4047 
Q 1172 3844 1172 3481 
z
" transform="scale(0.015625)"/>
       </defs>
       <use xlink:href="#DejaVuSans-32"/>
       <use xlink:href="#DejaVuSans-30" x="63.623047"/>
       <use xlink:href="#DejaVuSans-32" x="127.246094"/>
       <use xlink:href="#DejaVuSans-33" x="190.869141"/>
       <use xlink:href="#DejaVuSans-2d" x="254.492188"/>
       <use xlink:href="#DejaVuSans-30" x="290.576172"/>
       <use xlink:href="#DejaVuSans-32" x="354.199219"/>
       <use xlink:href="#DejaVuSans-2d" x="417.822266"/>
       <use xlink:href="#DejaVuSans-31" x="453.90625"/>
       <use xlink:href="#DejaVuSans-38" x="517.529297"/>
      </g>
     </g>
    </g>
    <g id="xtick_7">
     <g id="line2d_7">
      <g>
       <use xlink:href="#m8dbd1dc0ac" x="488.324156" y="395.28" style="stroke: #000000; stroke-width: 0.8"/>
      </g>
     </g>
     <g id="text_7">
      <!-- 2023-03-18 -->
      <g transform="translate(403.195128 495.213718) rotate(-45) scale(0.2 -0.2)">
       <use xlink:href="#DejaVuSans-32"/>
       <use xlink:href="#DejaVuSans-30" x="63.623047"/>
       <use xlink:href="#DejaVuSans-32" x="127.246094"/>
       <use xlink:href="#DejaVuSans-33" x="190.869141"/>
       <use xlink:href="#DejaVuSans-2d" x="254.492188"/>
       <use xlink:href="#DejaVuSans-30" x="290.576172"/>
       <use xlink:href="#DejaVuSans-33" x="354.199219"/>
       <use xlink:href="#DejaVuSans-2d" x="417.822266"/>
       <use xlink:href="#DejaVuSans-31" x="453.90625"/>
       <use xlink:href="#DejaVuSans-38" x="517.529297"/>
      </g>
     </g>
    </g>
    <g id="xtick_8">
     <g id="line2d_8">
      <g>
       <use xlink:href="#m8dbd1dc0ac" x="552.532375" y="395.28" style="stroke: #000000; stroke-width: 0.8"/>
      </g>
     </g>
     <g id="text_8">
      <!-- 2023-04-15 -->
      <g transform="translate(467.403348 495.213718) rotate(-45) scale(0.2 -0.2)">
       <defs>
        <path id="DejaVuSans-35" d="M 691 4666 
L 3169 4666 
L 3169 4134 
L 1269 4134 
L 1269 2991 
Q 1406 3038 1543 3061 
Q 1681 3084 1819 3084 
Q 2600 3084 3056 2656 
Q 3513 2228 3513 1497 
Q 3513 744 3044 326 
Q 2575 -91 1722 -91 
Q 1428 -91 1123 -41 
Q 819 9 494 109 
L 494 744 
Q 775 591 1075 516 
Q 1375 441 1709 441 
Q 2250 441 2565 725 
Q 2881 1009 2881 1497 
Q 2881 1984 2565 2268 
Q 2250 2553 1709 2553 
Q 1456 2553 1204 2497 
Q 953 2441 691 2322 
L 691 4666 
z
" transform="scale(0.015625)"/>
       </defs>
       <use xlink:href="#DejaVuSans-32"/>
       <use xlink:href="#DejaVuSans-30" x="63.623047"/>
       <use xlink:href="#DejaVuSans-32" x="127.246094"/>
       <use xlink:href="#DejaVuSans-33" x="190.869141"/>
       <use xlink:href="#DejaVuSans-2d" x="254.492188"/>
       <use xlink:href="#DejaVuSans-30" x="290.576172"/>
       <use xlink:href="#DejaVuSans-34" x="354.199219"/>
       <use xlink:href="#DejaVuSans-2d" x="417.822266"/>
       <use xlink:href="#DejaVuSans-31" x="453.90625"/>
       <use xlink:href="#DejaVuSans-35" x="517.529297"/>
      </g>
     </g>
    </g>
    <g id="xtick_9">
     <g id="line2d_9">
      <g>
       <use xlink:href="#m8dbd1dc0ac" x="616.740594" y="395.28" style="stroke: #000000; stroke-width: 0.8"/>
      </g>
     </g>
     <g id="text_9">
      <!-- 2023-05-13 -->
      <g transform="translate(531.611567 495.213718) rotate(-45) scale(0.2 -0.2)">
       <use xlink:href="#DejaVuSans-32"/>
       <use xlink:href="#DejaVuSans-30" x="63.623047"/>
       <use xlink:href="#DejaVuSans-32" x="127.246094"/>
       <use xlink:href="#DejaVuSans-33" x="190.869141"/>
       <use xlink:href="#DejaVuSans-2d" x="254.492188"/>
       <use xlink:href="#DejaVuSans-30" x="290.576172"/>
       <use xlink:href="#DejaVuSans-35" x="354.199219"/>
       <use xlink:href="#DejaVuSans-2d" x="417.822266"/>
       <use xlink:href="#DejaVuSans-31" x="453.90625"/>
       <use xlink:href="#DejaVuSans-33" x="517.529297"/>
      </g>
     </g>
    </g>
    <g id="xtick_10">
     <g id="line2d_10">
      <g>
       <use xlink:href="#m8dbd1dc0ac" x="680.948813" y="395.28" style="stroke: #000000; stroke-width: 0.8"/>
      </g>
     </g>
     <g id="text_10">
      <!-- 2023-06-10 -->
      <g transform="translate(595.819786 495.213718) rotate(-45) scale(0.2 -0.2)">
       <use xlink:href="#DejaVuSans-32"/>
       <use xlink:href="#DejaVuSans-30" x="63.623047"/>
       <use xlink:href="#DejaVuSans-32" x="127.246094"/>
       <use xlink:href="#DejaVuSans-33" x="190.869141"/>
       <use xlink:href="#DejaVuSans-2d" x="254.492188"/>
       <use xlink:href="#DejaVuSans-30" x="290.576172"/>
       <use xlink:href="#DejaVuSans-36" x="354.199219"/>
       <use xlink:href="#DejaVuSans-2d" x="417.822266"/>
       <use xlink:href="#DejaVuSans-31" x="453.90625"/>
       <use xlink:href="#DejaVuSans-30" x="517.529297"/>
      </g>
     </g>
    </g>
    <g id="xtick_11">
     <g id="line2d_11">
      <g>
       <use xlink:href="#m8dbd1dc0ac" x="745.157032" y="395.28" style="stroke: #000000; stroke-width: 0.8"/>
      </g>
     </g>
     <g id="text_11">
      <!-- 2023-07-08 -->
      <g transform="translate(660.028005 495.213718) rotate(-45) scale(0.2 -0.2)">
       <defs>
        <path id="DejaVuSans-37" d="M 525 4666 
L 3525 4666 
L 3525 4397 
L 1831 0 
L 1172 0 
L 2766 4134 
L 525 4134 
L 525 4666 
z
" transform="scale(0.015625)"/>
       </defs>
       <use xlink:href="#DejaVuSans-32"/>
       <use xlink:href="#DejaVuSans-30" x="63.623047"/>
       <use xlink:href="#DejaVuSans-32" x="127.246094"/>
       <use xlink:href="#DejaVuSans-33" x="190.869141"/>
       <use xlink:href="#DejaVuSans-2d" x="254.492188"/>
       <use xlink:href="#DejaVuSans-30" x="290.576172"/>
       <use xlink:href="#DejaVuSans-37" x="354.199219"/>
       <use xlink:href="#DejaVuSans-2d" x="417.822266"/>
       <use xlink:href="#DejaVuSans-30" x="453.90625"/>
       <use xlink:href="#DejaVuSans-38" x="517.529297"/>
      </g>
     </g>
    </g>
    <g id="xtick_12">
     <g id="line2d_12">
      <g>
       <use xlink:href="#m8dbd1dc0ac" x="809.365252" y="395.28" style="stroke: #000000; stroke-width: 0.8"/>
      </g>
     </g>
     <g id="text_12">
      <!-- 2023-08-05 -->
      <g transform="translate(724.236224 495.213718) rotate(-45) scale(0.2 -0.2)">
       <use xlink:href="#DejaVuSans-32"/>
       <use xlink:href="#DejaVuSans-30" x="63.623047"/>
       <use xlink:href="#DejaVuSans-32" x="127.246094"/>
       <use xlink:href="#DejaVuSans-33" x="190.869141"/>
       <use xlink:href="#DejaVuSans-2d" x="254.492188"/>
       <use xlink:href="#DejaVuSans-30" x="290.576172"/>
       <use xlink:href="#DejaVuSans-38" x="354.199219"/>
       <use xlink:href="#DejaVuSans-2d" x="417.822266"/>
       <use xlink:href="#DejaVuSans-30" x="453.90625"/>
       <use xlink:href="#DejaVuSans-35" x="517.529297"/>
      </g>
     </g>
    </g>
    <g id="xtick_13">
     <g id="line2d_13">
      <g>
       <use xlink:href="#m8dbd1dc0ac" x="873.573471" y="395.28" style="stroke: #000000; stroke-width: 0.8"/>
      </g>
     </g>
     <g id="text_13">
      <!-- 2023-09-02 -->
      <g transform="translate(788.444444 495.213718) rotate(-45) scale(0.2 -0.2)">
       <use xlink:href="#DejaVuSans-32"/>
       <use xlink:href="#DejaVuSans-30" x="63.623047"/>
       <use xlink:href="#DejaVuSans-32" x="127.246094"/>
       <use xlink:href="#DejaVuSans-33" x="190.869141"/>
       <use xlink:href="#DejaVuSans-2d" x="254.492188"/>
       <use xlink:href="#DejaVuSans-30" x="290.576172"/>
       <use xlink:href="#DejaVuSans-39" x="354.199219"/>
       <use xlink:href="#DejaVuSans-2d" x="417.822266"/>
       <use xlink:href="#DejaVuSans-30" x="453.90625"/>
       <use xlink:href="#DejaVuSans-32" x="517.529297"/>
      </g>
     </g>
    </g>
    <g id="xtick_14">
     <g id="line2d_14">
      <g>
       <use xlink:href="#m8dbd1dc0ac" x="937.78169" y="395.28" style="stroke: #000000; stroke-width: 0.8"/>
      </g>
     </g>
     <g id="text_14">
      <!-- 2023-09-30 -->
      <g transform="translate(852.652663 495.213718) rotate(-45) scale(0.2 -0.2)">
       <use xlink:href="#DejaVuSans-32"/>
       <use xlink:href="#DejaVuSans-30" x="63.623047"/>
       <use xlink:href="#DejaVuSans-32" x="127.246094"/>
       <use xlink:href="#DejaVuSans-33" x="190.869141"/>
       <use xlink:href="#DejaVuSans-2d" x="254.492188"/>
       <use xlink:href="#DejaVuSans-30" x="290.576172"/>
       <use xlink:href="#DejaVuSans-39" x="354.199219"/>
       <use xlink:href="#DejaVuSans-2d" x="417.822266"/>
       <use xlink:href="#DejaVuSans-33" x="453.90625"/>
       <use xlink:href="#DejaVuSans-30" x="517.529297"/>
      </g>
     </g>
    </g>
    <g id="xtick_15">
     <g id="line2d_15">
      <g>
       <use xlink:href="#m8dbd1dc0ac" x="940.074841" y="395.28" style="stroke: #000000; stroke-width: 0.8"/>
      </g>
     </g>
     <g id="text_15">
      <!-- 2023-10-01 -->
      <g transform="translate(854.945813 495.213718) rotate(-45) scale(0.2 -0.2)">
       <use xlink:href="#DejaVuSans-32"/>
       <use xlink:href="#DejaVuSans-30" x="63.623047"/>
       <use xlink:href="#DejaVuSans-32" x="127.246094"/>
       <use xlink:href="#DejaVuSans-33" x="190.869141"/>
       <use xlink:href="#DejaVuSans-2d" x="254.492188"/>
       <use xlink:href="#DejaVuSans-31" x="290.576172"/>
       <use xlink:href="#DejaVuSans-30" x="354.199219"/>
       <use xlink:href="#DejaVuSans-2d" x="417.822266"/>
       <use xlink:href="#DejaVuSans-30" x="453.90625"/>
       <use xlink:href="#DejaVuSans-31" x="517.529297"/>
      </g>
     </g>
    </g>
   </g>
   <g id="matplotlib.axis_2">
    <g id="ytick_1">
     <g id="line2d_16">
      <defs>
       <path id="m15253d1723" d="M 0 0 
L -3.5 0 
" style="stroke: #000000; stroke-width: 0.8"/>
      </defs>
      <g>
       <use xlink:href="#m15253d1723" x="103.074841" y="330.212846" style="stroke: #000000; stroke-width: 0.8"/>
      </g>
     </g>
     <g id="text_16">
      <!-- 0.10 -->
      <g transform="translate(34.784216 337.811283) scale(0.2 -0.2)">
       <defs>
        <path id="DejaVuSans-2212" d="M 678 2272 
L 4684 2272 
L 4684 1741 
L 678 1741 
L 678 2272 
z
" transform="scale(0.015625)"/>
        <path id="DejaVuSans-2e" d="M 684 794 
L 1344 794 
L 1344 0 
L 684 0 
L 684 794 
z
" transform="scale(0.015625)"/>
       </defs>
       <use xlink:href="#DejaVuSans-2212"/>
       <use xlink:href="#DejaVuSans-30" x="83.789062"/>
       <use xlink:href="#DejaVuSans-2e" x="147.412109"/>
       <use xlink:href="#DejaVuSans-31" x="179.199219"/>
       <use xlink:href="#DejaVuSans-30" x="242.822266"/>
      </g>
     </g>
    </g>
    <g id="ytick_2">
     <g id="line2d_17">
      <g>
       <use xlink:href="#m15253d1723" x="103.074841" y="258.15357" style="stroke: #000000; stroke-width: 0.8"/>
      </g>
     </g>
     <g id="text_17">
      <!-- 0.05 -->
      <g transform="translate(34.784216 265.752008) scale(0.2 -0.2)">
       <use xlink:href="#DejaVuSans-2212"/>
       <use xlink:href="#DejaVuSans-30" x="83.789062"/>
       <use xlink:href="#DejaVuSans-2e" x="147.412109"/>
       <use xlink:href="#DejaVuSans-30" x="179.199219"/>
       <use xlink:href="#DejaVuSans-35" x="242.822266"/>
      </g>
     </g>
    </g>
    <g id="ytick_3">
     <g id="line2d_18">
      <g>
       <use xlink:href="#m15253d1723" x="103.074841" y="186.094295" style="stroke: #000000; stroke-width: 0.8"/>
      </g>
     </g>
     <g id="text_18">
      <!-- 0.00 -->
      <g transform="translate(51.543591 193.692732) scale(0.2 -0.2)">
       <use xlink:href="#DejaVuSans-30"/>
       <use xlink:href="#DejaVuSans-2e" x="63.623047"/>
       <use xlink:href="#DejaVuSans-30" x="95.410156"/>
       <use xlink:href="#DejaVuSans-30" x="159.033203"/>
      </g>
     </g>
    </g>
    <g id="ytick_4">
     <g id="line2d_19">
      <g>
       <use xlink:href="#m15253d1723" x="103.074841" y="114.035019" style="stroke: #000000; stroke-width: 0.8"/>
      </g>
     </g>
     <g id="text_19">
      <!-- 0.05 -->
      <g transform="translate(51.543591 121.633457) scale(0.2 -0.2)">
       <use xlink:href="#DejaVuSans-30"/>
       <use xlink:href="#DejaVuSans-2e" x="63.623047"/>
       <use xlink:href="#DejaVuSans-30" x="95.410156"/>
       <use xlink:href="#DejaVuSans-35" x="159.033203"/>
      </g>
     </g>
    </g>
    <g id="ytick_5">
     <g id="line2d_20">
      <g>
       <use xlink:href="#m15253d1723" x="103.074841" y="41.975744" style="stroke: #000000; stroke-width: 0.8"/>
      </g>
     </g>
     <g id="text_20">
      <!-- 0.10 -->
      <g transform="translate(51.543591 49.574181) scale(0.2 -0.2)">
       <use xlink:href="#DejaVuSans-30"/>
       <use xlink:href="#DejaVuSans-2e" x="63.623047"/>
       <use xlink:href="#DejaVuSans-31" x="95.410156"/>
       <use xlink:href="#DejaVuSans-30" x="159.033203"/>
      </g>
     </g>
    </g>
    <g id="text_21">
     <!-- Relative fitness $\gamma_y$ -->
     <g transform="translate(24.584216 291.84) rotate(-90) scale(0.2 -0.2)">
      <defs>
       <path id="DejaVuSans-52" d="M 2841 2188 
Q 3044 2119 3236 1894 
Q 3428 1669 3622 1275 
L 4263 0 
L 3584 0 
L 2988 1197 
Q 2756 1666 2539 1819 
Q 2322 1972 1947 1972 
L 1259 1972 
L 1259 0 
L 628 0 
L 628 4666 
L 2053 4666 
Q 2853 4666 3247 4331 
Q 3641 3997 3641 3322 
Q 3641 2881 3436 2590 
Q 3231 2300 2841 2188 
z
M 1259 4147 
L 1259 2491 
L 2053 2491 
Q 2509 2491 2742 2702 
Q 2975 2913 2975 3322 
Q 2975 3731 2742 3939 
Q 2509 4147 2053 4147 
L 1259 4147 
z
" transform="scale(0.015625)"/>
       <path id="DejaVuSans-65" d="M 3597 1894 
L 3597 1613 
L 953 1613 
Q 991 1019 1311 708 
Q 1631 397 2203 397 
Q 2534 397 2845 478 
Q 3156 559 3463 722 
L 3463 178 
Q 3153 47 2828 -22 
Q 2503 -91 2169 -91 
Q 1331 -91 842 396 
Q 353 884 353 1716 
Q 353 2575 817 3079 
Q 1281 3584 2069 3584 
Q 2775 3584 3186 3129 
Q 3597 2675 3597 1894 
z
M 3022 2063 
Q 3016 2534 2758 2815 
Q 2500 3097 2075 3097 
Q 1594 3097 1305 2825 
Q 1016 2553 972 2059 
L 3022 2063 
z
" transform="scale(0.015625)"/>
       <path id="DejaVuSans-6c" d="M 603 4863 
L 1178 4863 
L 1178 0 
L 603 0 
L 603 4863 
z
" transform="scale(0.015625)"/>
       <path id="DejaVuSans-61" d="M 2194 1759 
Q 1497 1759 1228 1600 
Q 959 1441 959 1056 
Q 959 750 1161 570 
Q 1363 391 1709 391 
Q 2188 391 2477 730 
Q 2766 1069 2766 1631 
L 2766 1759 
L 2194 1759 
z
M 3341 1997 
L 3341 0 
L 2766 0 
L 2766 531 
Q 2569 213 2275 61 
Q 1981 -91 1556 -91 
Q 1019 -91 701 211 
Q 384 513 384 1019 
Q 384 1609 779 1909 
Q 1175 2209 1959 2209 
L 2766 2209 
L 2766 2266 
Q 2766 2663 2505 2880 
Q 2244 3097 1772 3097 
Q 1472 3097 1187 3025 
Q 903 2953 641 2809 
L 641 3341 
Q 956 3463 1253 3523 
Q 1550 3584 1831 3584 
Q 2591 3584 2966 3190 
Q 3341 2797 3341 1997 
z
" transform="scale(0.015625)"/>
       <path id="DejaVuSans-74" d="M 1172 4494 
L 1172 3500 
L 2356 3500 
L 2356 3053 
L 1172 3053 
L 1172 1153 
Q 1172 725 1289 603 
Q 1406 481 1766 481 
L 2356 481 
L 2356 0 
L 1766 0 
Q 1100 0 847 248 
Q 594 497 594 1153 
L 594 3053 
L 172 3053 
L 172 3500 
L 594 3500 
L 594 4494 
L 1172 4494 
z
" transform="scale(0.015625)"/>
       <path id="DejaVuSans-69" d="M 603 3500 
L 1178 3500 
L 1178 0 
L 603 0 
L 603 3500 
z
M 603 4863 
L 1178 4863 
L 1178 4134 
L 603 4134 
L 603 4863 
z
" transform="scale(0.015625)"/>
       <path id="DejaVuSans-76" d="M 191 3500 
L 800 3500 
L 1894 563 
L 2988 3500 
L 3597 3500 
L 2284 0 
L 1503 0 
L 191 3500 
z
" transform="scale(0.015625)"/>
       <path id="DejaVuSans-20" transform="scale(0.015625)"/>
       <path id="DejaVuSans-66" d="M 2375 4863 
L 2375 4384 
L 1825 4384 
Q 1516 4384 1395 4259 
Q 1275 4134 1275 3809 
L 1275 3500 
L 2222 3500 
L 2222 3053 
L 1275 3053 
L 1275 0 
L 697 0 
L 697 3053 
L 147 3053 
L 147 3500 
L 697 3500 
L 697 3744 
Q 697 4328 969 4595 
Q 1241 4863 1831 4863 
L 2375 4863 
z
" transform="scale(0.015625)"/>
       <path id="DejaVuSans-6e" d="M 3513 2113 
L 3513 0 
L 2938 0 
L 2938 2094 
Q 2938 2591 2744 2837 
Q 2550 3084 2163 3084 
Q 1697 3084 1428 2787 
Q 1159 2491 1159 1978 
L 1159 0 
L 581 0 
L 581 3500 
L 1159 3500 
L 1159 2956 
Q 1366 3272 1645 3428 
Q 1925 3584 2291 3584 
Q 2894 3584 3203 3211 
Q 3513 2838 3513 2113 
z
" transform="scale(0.015625)"/>
       <path id="DejaVuSans-73" d="M 2834 3397 
L 2834 2853 
Q 2591 2978 2328 3040 
Q 2066 3103 1784 3103 
Q 1356 3103 1142 2972 
Q 928 2841 928 2578 
Q 928 2378 1081 2264 
Q 1234 2150 1697 2047 
L 1894 2003 
Q 2506 1872 2764 1633 
Q 3022 1394 3022 966 
Q 3022 478 2636 193 
Q 2250 -91 1575 -91 
Q 1294 -91 989 -36 
Q 684 19 347 128 
L 347 722 
Q 666 556 975 473 
Q 1284 391 1588 391 
Q 1994 391 2212 530 
Q 2431 669 2431 922 
Q 2431 1156 2273 1281 
Q 2116 1406 1581 1522 
L 1381 1569 
Q 847 1681 609 1914 
Q 372 2147 372 2553 
Q 372 3047 722 3315 
Q 1072 3584 1716 3584 
Q 2034 3584 2315 3537 
Q 2597 3491 2834 3397 
z
" transform="scale(0.015625)"/>
       <path id="DejaVuSans-Oblique-3b3" d="M 1491 2950 
L 1838 788 
L 3456 3500 
L 4066 3500 
L 1972 0 
L 1713 -1331 
L 1138 -1331 
L 1397 0 
L 988 2613 
Q 925 3006 628 3006 
L 475 3006 
L 569 3500 
L 788 3500 
Q 1403 3500 1491 2950 
z
" transform="scale(0.015625)"/>
       <path id="DejaVuSans-Oblique-79" d="M 1588 -325 
Q 1188 -997 936 -1164 
Q 684 -1331 294 -1331 
L -159 -1331 
L -63 -850 
L 269 -850 
Q 509 -850 678 -719 
Q 847 -588 1056 -206 
L 1234 128 
L 459 3500 
L 1069 3500 
L 1650 819 
L 3256 3500 
L 3859 3500 
L 1588 -325 
z
" transform="scale(0.015625)"/>
      </defs>
      <use xlink:href="#DejaVuSans-52" transform="translate(0 0.015625)"/>
      <use xlink:href="#DejaVuSans-65" transform="translate(69.482422 0.015625)"/>
      <use xlink:href="#DejaVuSans-6c" transform="translate(131.005859 0.015625)"/>
      <use xlink:href="#DejaVuSans-61" transform="translate(158.789062 0.015625)"/>
      <use xlink:href="#DejaVuSans-74" transform="translate(220.068359 0.015625)"/>
      <use xlink:href="#DejaVuSans-69" transform="translate(259.277344 0.015625)"/>
      <use xlink:href="#DejaVuSans-76" transform="translate(287.060547 0.015625)"/>
      <use xlink:href="#DejaVuSans-65" transform="translate(346.240234 0.015625)"/>
      <use xlink:href="#DejaVuSans-20" transform="translate(407.763672 0.015625)"/>
      <use xlink:href="#DejaVuSans-66" transform="translate(439.550781 0.015625)"/>
      <use xlink:href="#DejaVuSans-69" transform="translate(474.755859 0.015625)"/>
      <use xlink:href="#DejaVuSans-74" transform="translate(502.539062 0.015625)"/>
      <use xlink:href="#DejaVuSans-6e" transform="translate(541.748047 0.015625)"/>
      <use xlink:href="#DejaVuSans-65" transform="translate(605.126953 0.015625)"/>
      <use xlink:href="#DejaVuSans-73" transform="translate(666.650391 0.015625)"/>
      <use xlink:href="#DejaVuSans-73" transform="translate(718.75 0.015625)"/>
      <use xlink:href="#DejaVuSans-20" transform="translate(770.849609 0.015625)"/>
      <use xlink:href="#DejaVuSans-Oblique-3b3" transform="translate(802.636719 0.015625)"/>
      <use xlink:href="#DejaVuSans-Oblique-79" transform="translate(861.816406 -16.390625) scale(0.7)"/>
     </g>
    </g>
   </g>
   <g id="line2d_21">
    <path d="M 103.074841 186.094295 
L 1243.115466 186.094295 
" clip-path="url(#pffadd0d649)" style="fill: none; stroke-dasharray: 7.4,3.2; stroke-dashoffset: 0; stroke: #000000; stroke-width: 2"/>
   </g>
   <g id="patch_3">
    <path d="M 103.074841 395.28 
L 103.074841 7.2 
" style="fill: none; stroke: #000000; stroke-width: 0.8; stroke-linejoin: miter; stroke-linecap: square"/>
   </g>
   <g id="patch_4">
    <path d="M 940.074841 395.28 
L 940.074841 7.2 
" style="fill: none; stroke: #000000; stroke-width: 0.8; stroke-linejoin: miter; stroke-linecap: square"/>
   </g>
   <g id="patch_5">
    <path d="M 103.074841 395.28 
L 940.074841 395.28 
" style="fill: none; stroke: #000000; stroke-width: 0.8; stroke-linejoin: miter; stroke-linecap: square"/>
   </g>
   <g id="patch_6">
    <path d="M 103.074841 7.2 
L 940.074841 7.2 
" style="fill: none; stroke: #000000; stroke-width: 0.8; stroke-linejoin: miter; stroke-linecap: square"/>
   </g>
   <g id="legend_1">
    <g id="patch_7">
     <path d="M 1111.474841 395.28 
L 1230.915466 395.28 
Q 1234.915466 395.28 1234.915466 391.28 
L 1234.915466 363.92375 
Q 1234.915466 359.92375 1230.915466 359.92375 
L 1111.474841 359.92375 
Q 1107.474841 359.92375 1107.474841 363.92375 
L 1107.474841 391.28 
Q 1107.474841 395.28 1111.474841 395.28 
z
" style="fill: #ffffff; opacity: 0.8; stroke: #cccccc; stroke-linejoin: miter"/>
    </g>
    <g id="patch_8">
     <path d="M 1115.474841 383.120625 
L 1155.474841 383.120625 
L 1155.474841 369.120625 
L 1115.474841 369.120625 
z
" style="fill: #008000; fill-opacity: 0.3; stroke: #008000; stroke-opacity: 0.3; stroke-linejoin: miter"/>
    </g>
    <g id="text_22">
     <!-- BE.9* -->
     <g transform="translate(1171.474841 383.120625) scale(0.2 -0.2)">
      <defs>
       <path id="DejaVuSans-42" d="M 1259 2228 
L 1259 519 
L 2272 519 
Q 2781 519 3026 730 
Q 3272 941 3272 1375 
Q 3272 1813 3026 2020 
Q 2781 2228 2272 2228 
L 1259 2228 
z
M 1259 4147 
L 1259 2741 
L 2194 2741 
Q 2656 2741 2882 2914 
Q 3109 3088 3109 3444 
Q 3109 3797 2882 3972 
Q 2656 4147 2194 4147 
L 1259 4147 
z
M 628 4666 
L 2241 4666 
Q 2963 4666 3353 4366 
Q 3744 4066 3744 3513 
Q 3744 3084 3544 2831 
Q 3344 2578 2956 2516 
Q 3422 2416 3680 2098 
Q 3938 1781 3938 1306 
Q 3938 681 3513 340 
Q 3088 0 2303 0 
L 628 0 
L 628 4666 
z
" transform="scale(0.015625)"/>
       <path id="DejaVuSans-45" d="M 628 4666 
L 3578 4666 
L 3578 4134 
L 1259 4134 
L 1259 2753 
L 3481 2753 
L 3481 2222 
L 1259 2222 
L 1259 531 
L 3634 531 
L 3634 0 
L 628 0 
L 628 4666 
z
" transform="scale(0.015625)"/>
       <path id="DejaVuSans-2a" d="M 3009 3897 
L 1888 3291 
L 3009 2681 
L 2828 2375 
L 1778 3009 
L 1778 1831 
L 1422 1831 
L 1422 3009 
L 372 2375 
L 191 2681 
L 1313 3291 
L 191 3897 
L 372 4206 
L 1422 3572 
L 1422 4750 
L 1778 4750 
L 1778 3572 
L 2828 4206 
L 3009 3897 
z
" transform="scale(0.015625)"/>
      </defs>
      <use xlink:href="#DejaVuSans-42"/>
      <use xlink:href="#DejaVuSans-45" x="68.603516"/>
      <use xlink:href="#DejaVuSans-2e" x="131.787109"/>
      <use xlink:href="#DejaVuSans-39" x="163.574219"/>
      <use xlink:href="#DejaVuSans-2a" x="227.197266"/>
     </g>
    </g>
   </g>
  </g>
  <g id="axes_2">
   <g id="matplotlib.axis_3">
    <g id="ytick_6">
     <g id="line2d_22">
      <defs>
       <path id="mb524f70029" d="M 0 0 
L 3.5 0 
" style="stroke: #000000; stroke-width: 0.8"/>
      </defs>
      <g>
       <use xlink:href="#mb524f70029" x="940.074841" y="330.212846" style="stroke: #000000; stroke-width: 0.8"/>
      </g>
     </g>
     <g id="text_23">
      <!-- 0.10 -->
      <g transform="translate(947.074841 337.811283) scale(0.2 -0.2)">
       <use xlink:href="#DejaVuSans-2212"/>
       <use xlink:href="#DejaVuSans-30" x="83.789062"/>
       <use xlink:href="#DejaVuSans-2e" x="147.412109"/>
       <use xlink:href="#DejaVuSans-31" x="179.199219"/>
       <use xlink:href="#DejaVuSans-30" x="242.822266"/>
      </g>
     </g>
    </g>
    <g id="ytick_7">
     <g id="line2d_23">
      <g>
       <use xlink:href="#mb524f70029" x="940.074841" y="258.15357" style="stroke: #000000; stroke-width: 0.8"/>
      </g>
     </g>
     <g id="text_24">
      <!-- 0.05 -->
      <g transform="translate(947.074841 265.752008) scale(0.2 -0.2)">
       <use xlink:href="#DejaVuSans-2212"/>
       <use xlink:href="#DejaVuSans-30" x="83.789062"/>
       <use xlink:href="#DejaVuSans-2e" x="147.412109"/>
       <use xlink:href="#DejaVuSans-30" x="179.199219"/>
       <use xlink:href="#DejaVuSans-35" x="242.822266"/>
      </g>
     </g>
    </g>
    <g id="ytick_8">
     <g id="line2d_24">
      <g>
       <use xlink:href="#mb524f70029" x="940.074841" y="186.094295" style="stroke: #000000; stroke-width: 0.8"/>
      </g>
     </g>
     <g id="text_25">
      <!-- 0.00 -->
      <g transform="translate(947.074841 193.692732) scale(0.2 -0.2)">
       <use xlink:href="#DejaVuSans-30"/>
       <use xlink:href="#DejaVuSans-2e" x="63.623047"/>
       <use xlink:href="#DejaVuSans-30" x="95.410156"/>
       <use xlink:href="#DejaVuSans-30" x="159.033203"/>
      </g>
     </g>
    </g>
    <g id="ytick_9">
     <g id="line2d_25">
      <g>
       <use xlink:href="#mb524f70029" x="940.074841" y="114.035019" style="stroke: #000000; stroke-width: 0.8"/>
      </g>
     </g>
     <g id="text_26">
      <!-- 0.05 -->
      <g transform="translate(947.074841 121.633457) scale(0.2 -0.2)">
       <use xlink:href="#DejaVuSans-30"/>
       <use xlink:href="#DejaVuSans-2e" x="63.623047"/>
       <use xlink:href="#DejaVuSans-30" x="95.410156"/>
       <use xlink:href="#DejaVuSans-35" x="159.033203"/>
      </g>
     </g>
    </g>
    <g id="ytick_10">
     <g id="line2d_26">
      <g>
       <use xlink:href="#mb524f70029" x="940.074841" y="41.975744" style="stroke: #000000; stroke-width: 0.8"/>
      </g>
     </g>
     <g id="text_27">
      <!-- 0.10 -->
      <g transform="translate(947.074841 49.574181) scale(0.2 -0.2)">
       <use xlink:href="#DejaVuSans-30"/>
       <use xlink:href="#DejaVuSans-2e" x="63.623047"/>
       <use xlink:href="#DejaVuSans-31" x="95.410156"/>
       <use xlink:href="#DejaVuSans-30" x="159.033203"/>
      </g>
     </g>
    </g>
    <g id="text_28">
     <!-- Change in proportion $\gamma_{prop}$ -->
     <g transform="translate(1027.565466 332.74) rotate(-90) scale(0.2 -0.2)">
      <defs>
       <path id="DejaVuSans-43" d="M 4122 4306 
L 4122 3641 
Q 3803 3938 3442 4084 
Q 3081 4231 2675 4231 
Q 1875 4231 1450 3742 
Q 1025 3253 1025 2328 
Q 1025 1406 1450 917 
Q 1875 428 2675 428 
Q 3081 428 3442 575 
Q 3803 722 4122 1019 
L 4122 359 
Q 3791 134 3420 21 
Q 3050 -91 2638 -91 
Q 1578 -91 968 557 
Q 359 1206 359 2328 
Q 359 3453 968 4101 
Q 1578 4750 2638 4750 
Q 3056 4750 3426 4639 
Q 3797 4528 4122 4306 
z
" transform="scale(0.015625)"/>
       <path id="DejaVuSans-68" d="M 3513 2113 
L 3513 0 
L 2938 0 
L 2938 2094 
Q 2938 2591 2744 2837 
Q 2550 3084 2163 3084 
Q 1697 3084 1428 2787 
Q 1159 2491 1159 1978 
L 1159 0 
L 581 0 
L 581 4863 
L 1159 4863 
L 1159 2956 
Q 1366 3272 1645 3428 
Q 1925 3584 2291 3584 
Q 2894 3584 3203 3211 
Q 3513 2838 3513 2113 
z
" transform="scale(0.015625)"/>
       <path id="DejaVuSans-67" d="M 2906 1791 
Q 2906 2416 2648 2759 
Q 2391 3103 1925 3103 
Q 1463 3103 1205 2759 
Q 947 2416 947 1791 
Q 947 1169 1205 825 
Q 1463 481 1925 481 
Q 2391 481 2648 825 
Q 2906 1169 2906 1791 
z
M 3481 434 
Q 3481 -459 3084 -895 
Q 2688 -1331 1869 -1331 
Q 1566 -1331 1297 -1286 
Q 1028 -1241 775 -1147 
L 775 -588 
Q 1028 -725 1275 -790 
Q 1522 -856 1778 -856 
Q 2344 -856 2625 -561 
Q 2906 -266 2906 331 
L 2906 616 
Q 2728 306 2450 153 
Q 2172 0 1784 0 
Q 1141 0 747 490 
Q 353 981 353 1791 
Q 353 2603 747 3093 
Q 1141 3584 1784 3584 
Q 2172 3584 2450 3431 
Q 2728 3278 2906 2969 
L 2906 3500 
L 3481 3500 
L 3481 434 
z
" transform="scale(0.015625)"/>
       <path id="DejaVuSans-70" d="M 1159 525 
L 1159 -1331 
L 581 -1331 
L 581 3500 
L 1159 3500 
L 1159 2969 
Q 1341 3281 1617 3432 
Q 1894 3584 2278 3584 
Q 2916 3584 3314 3078 
Q 3713 2572 3713 1747 
Q 3713 922 3314 415 
Q 2916 -91 2278 -91 
Q 1894 -91 1617 61 
Q 1341 213 1159 525 
z
M 3116 1747 
Q 3116 2381 2855 2742 
Q 2594 3103 2138 3103 
Q 1681 3103 1420 2742 
Q 1159 2381 1159 1747 
Q 1159 1113 1420 752 
Q 1681 391 2138 391 
Q 2594 391 2855 752 
Q 3116 1113 3116 1747 
z
" transform="scale(0.015625)"/>
       <path id="DejaVuSans-72" d="M 2631 2963 
Q 2534 3019 2420 3045 
Q 2306 3072 2169 3072 
Q 1681 3072 1420 2755 
Q 1159 2438 1159 1844 
L 1159 0 
L 581 0 
L 581 3500 
L 1159 3500 
L 1159 2956 
Q 1341 3275 1631 3429 
Q 1922 3584 2338 3584 
Q 2397 3584 2469 3576 
Q 2541 3569 2628 3553 
L 2631 2963 
z
" transform="scale(0.015625)"/>
       <path id="DejaVuSans-6f" d="M 1959 3097 
Q 1497 3097 1228 2736 
Q 959 2375 959 1747 
Q 959 1119 1226 758 
Q 1494 397 1959 397 
Q 2419 397 2687 759 
Q 2956 1122 2956 1747 
Q 2956 2369 2687 2733 
Q 2419 3097 1959 3097 
z
M 1959 3584 
Q 2709 3584 3137 3096 
Q 3566 2609 3566 1747 
Q 3566 888 3137 398 
Q 2709 -91 1959 -91 
Q 1206 -91 779 398 
Q 353 888 353 1747 
Q 353 2609 779 3096 
Q 1206 3584 1959 3584 
z
" transform="scale(0.015625)"/>
       <path id="DejaVuSans-Oblique-70" d="M 3175 2156 
Q 3175 2616 2975 2859 
Q 2775 3103 2400 3103 
Q 2144 3103 1911 2972 
Q 1678 2841 1497 2591 
Q 1319 2344 1212 1994 
Q 1106 1644 1106 1300 
Q 1106 863 1306 627 
Q 1506 391 1875 391 
Q 2147 391 2380 519 
Q 2613 647 2778 891 
Q 2956 1147 3065 1494 
Q 3175 1841 3175 2156 
z
M 1394 2969 
Q 1625 3272 1939 3428 
Q 2253 3584 2638 3584 
Q 3175 3584 3472 3232 
Q 3769 2881 3769 2247 
Q 3769 1728 3584 1258 
Q 3400 788 3053 416 
Q 2822 169 2531 39 
Q 2241 -91 1919 -91 
Q 1547 -91 1294 64 
Q 1041 219 916 525 
L 556 -1331 
L -19 -1331 
L 922 3500 
L 1497 3500 
L 1394 2969 
z
" transform="scale(0.015625)"/>
       <path id="DejaVuSans-Oblique-72" d="M 2853 2969 
Q 2766 3016 2653 3041 
Q 2541 3066 2413 3066 
Q 1953 3066 1609 2717 
Q 1266 2369 1153 1784 
L 800 0 
L 225 0 
L 909 3500 
L 1484 3500 
L 1375 2956 
Q 1603 3259 1920 3421 
Q 2238 3584 2597 3584 
Q 2691 3584 2781 3573 
Q 2872 3563 2963 3538 
L 2853 2969 
z
" transform="scale(0.015625)"/>
       <path id="DejaVuSans-Oblique-6f" d="M 1625 -91 
Q 1009 -91 651 289 
Q 294 669 294 1325 
Q 294 1706 417 2101 
Q 541 2497 738 2766 
Q 1047 3184 1428 3384 
Q 1809 3584 2291 3584 
Q 2888 3584 3255 3212 
Q 3622 2841 3622 2241 
Q 3622 1825 3500 1412 
Q 3378 1000 3181 728 
Q 2875 309 2494 109 
Q 2113 -91 1625 -91 
z
M 891 1344 
Q 891 869 1089 633 
Q 1288 397 1691 397 
Q 2269 397 2648 901 
Q 3028 1406 3028 2181 
Q 3028 2634 2825 2865 
Q 2622 3097 2228 3097 
Q 1903 3097 1650 2945 
Q 1397 2794 1197 2484 
Q 1050 2253 970 1956 
Q 891 1659 891 1344 
z
" transform="scale(0.015625)"/>
      </defs>
      <use xlink:href="#DejaVuSans-43" transform="translate(0 0.015625)"/>
      <use xlink:href="#DejaVuSans-68" transform="translate(69.824219 0.015625)"/>
      <use xlink:href="#DejaVuSans-61" transform="translate(133.203125 0.015625)"/>
      <use xlink:href="#DejaVuSans-6e" transform="translate(194.482422 0.015625)"/>
      <use xlink:href="#DejaVuSans-67" transform="translate(257.861328 0.015625)"/>
      <use xlink:href="#DejaVuSans-65" transform="translate(321.337891 0.015625)"/>
      <use xlink:href="#DejaVuSans-20" transform="translate(382.861328 0.015625)"/>
      <use xlink:href="#DejaVuSans-69" transform="translate(414.648438 0.015625)"/>
      <use xlink:href="#DejaVuSans-6e" transform="translate(442.431641 0.015625)"/>
      <use xlink:href="#DejaVuSans-20" transform="translate(505.810547 0.015625)"/>
      <use xlink:href="#DejaVuSans-70" transform="translate(537.597656 0.015625)"/>
      <use xlink:href="#DejaVuSans-72" transform="translate(601.074219 0.015625)"/>
      <use xlink:href="#DejaVuSans-6f" transform="translate(642.1875 0.015625)"/>
      <use xlink:href="#DejaVuSans-70" transform="translate(703.369141 0.015625)"/>
      <use xlink:href="#DejaVuSans-6f" transform="translate(766.845703 0.015625)"/>
      <use xlink:href="#DejaVuSans-72" transform="translate(828.027344 0.015625)"/>
      <use xlink:href="#DejaVuSans-74" transform="translate(869.140625 0.015625)"/>
      <use xlink:href="#DejaVuSans-69" transform="translate(908.349609 0.015625)"/>
      <use xlink:href="#DejaVuSans-6f" transform="translate(936.132812 0.015625)"/>
      <use xlink:href="#DejaVuSans-6e" transform="translate(997.314453 0.015625)"/>
      <use xlink:href="#DejaVuSans-20" transform="translate(1060.693359 0.015625)"/>
      <use xlink:href="#DejaVuSans-Oblique-3b3" transform="translate(1092.480469 0.015625)"/>
      <use xlink:href="#DejaVuSans-Oblique-70" transform="translate(1151.660156 -16.390625) scale(0.7)"/>
      <use xlink:href="#DejaVuSans-Oblique-72" transform="translate(1196.09375 -16.390625) scale(0.7)"/>
      <use xlink:href="#DejaVuSans-Oblique-6f" transform="translate(1224.873047 -16.390625) scale(0.7)"/>
      <use xlink:href="#DejaVuSans-Oblique-70" transform="translate(1267.700195 -16.390625) scale(0.7)"/>
     </g>
    </g>
   </g>
   <g id="line2d_27">
    <path d="M 96.195389 33.355529 
L 98.488539 29.054751 
L 100.78169 29.372288 
L 103.074841 32.744848 
L 105.367991 59.658535 
L 107.661142 82.629393 
L 109.954293 103.199973 
L 112.247443 122.512236 
L 114.540594 116.558496 
L 116.833745 111.537417 
L 119.126895 107.394928 
L 121.420046 73.593182 
L 123.713197 52.775126 
L 126.006348 41.961002 
L 128.299498 38.148488 
L 130.592649 27.007074 
L 132.8858 24.84 
L 135.17895 27.939285 
L 137.472101 37.794857 
L 139.765252 29.064144 
L 142.058402 88.318029 
L 144.351553 109.047007 
L 146.644704 134.496417 
L 148.937854 84.801977 
L 151.231005 59.160308 
L 153.524156 71.259576 
L 155.817306 97.277078 
L 158.110457 116.58129 
L 160.403608 151.62952 
L 162.696759 162.905817 
L 164.989909 176.741389 
L 167.28306 198.490182 
L 169.576211 215.491968 
L 171.869361 229.303177 
L 174.162512 237.842374 
L 176.455663 205.856019 
L 178.748813 213.907222 
L 181.041964 201.346591 
L 183.335115 250.279095 
L 185.628265 262.887786 
L 187.921416 264.481317 
L 190.214567 281.480576 
L 192.507717 274.200351 
L 194.800868 244.193576 
L 197.094019 256.613253 
L 199.387169 276.873744 
L 201.68032 232.624924 
L 203.973471 207.748744 
L 208.559772 228.701045 
L 210.852923 229.274275 
L 213.146074 207.471326 
L 215.439224 192.155288 
L 217.732375 172.637724 
L 220.025526 213.631876 
L 222.318676 201.945417 
L 224.611827 199.851868 
L 226.904978 185.824229 
L 229.198128 195.120672 
L 231.491279 199.828274 
L 233.78443 182.136092 
L 236.07758 193.16799 
L 238.370731 222.143663 
L 240.663882 208.502312 
L 242.957032 186.149565 
L 245.250183 211.071611 
L 247.543334 191.856453 
L 249.836485 193.434593 
L 252.129635 178.494667 
L 254.422786 186.188158 
L 256.715937 190.174074 
L 259.009087 191.165386 
L 261.302238 195.312471 
L 263.595389 160.569032 
L 265.888539 188.324742 
L 268.18169 207.52094 
L 270.474841 203.010238 
L 272.767991 202.814147 
L 275.061142 197.626477 
L 277.354293 216.101135 
L 279.647443 198.14602 
L 281.940594 190.162919 
L 284.233745 207.602569 
L 286.526895 247.641424 
L 288.820046 187.240684 
L 291.113197 204.699895 
L 293.406348 184.052588 
L 297.992649 266.212461 
L 300.2858 187.397956 
L 302.57895 142.371885 
L 304.872101 224.998486 
L 307.165252 216.997337 
L 309.458402 218.054413 
L 314.044704 199.395103 
L 316.337854 218.6028 
L 318.631005 205.242766 
L 320.924156 203.448383 
L 323.217306 225.302217 
L 325.510457 194.75976 
L 327.803608 174.193693 
L 332.389909 214.53783 
L 334.68306 262.643284 
L 336.976211 274.8361 
L 339.269361 210.434305 
L 341.562512 194.145378 
L 343.855663 176.757479 
L 346.148813 184.725924 
L 348.441964 189.868988 
L 350.735115 176.468781 
L 353.028265 167.908025 
L 355.321416 147.283868 
L 357.614567 179.982675 
L 359.907717 204.478698 
L 362.200868 216.095441 
L 366.787169 151.815214 
L 369.08032 121.444163 
L 371.373471 144.812586 
L 373.666622 166.814007 
L 375.959772 176.560346 
L 382.839224 234.287223 
L 385.132375 262.170109 
L 387.425526 229.001333 
L 389.718676 188.936896 
L 392.011827 208.625103 
L 394.304978 224.135655 
L 396.598128 267.976567 
L 398.891279 292.016381 
L 401.18443 320.926502 
L 403.47758 367.985842 
L 405.770731 352.4682 
L 408.063882 335.66302 
L 410.357032 377.64 
L 412.650183 362.990434 
L 412.650183 362.990434 
" clip-path="url(#pffadd0d649)" style="fill: none; stroke: #800080; stroke-width: 4; stroke-linecap: square"/>
   </g>
   <g id="patch_9">
    <path d="M 103.074841 395.28 
L 103.074841 7.2 
" style="fill: none; stroke: #000000; stroke-width: 0.8; stroke-linejoin: miter; stroke-linecap: square"/>
   </g>
   <g id="patch_10">
    <path d="M 940.074841 395.28 
L 940.074841 7.2 
" style="fill: none; stroke: #000000; stroke-width: 0.8; stroke-linejoin: miter; stroke-linecap: square"/>
   </g>
   <g id="patch_11">
    <path d="M 103.074841 395.28 
L 940.074841 395.28 
" style="fill: none; stroke: #000000; stroke-width: 0.8; stroke-linejoin: miter; stroke-linecap: square"/>
   </g>
   <g id="patch_12">
    <path d="M 103.074841 7.2 
L 940.074841 7.2 
" style="fill: none; stroke: #000000; stroke-width: 0.8; stroke-linejoin: miter; stroke-linecap: square"/>
   </g>
   <g id="legend_2">
    <g id="patch_13">
     <path d="M 1111.474841 395.28 
L 1230.915466 395.28 
Q 1234.915466 395.28 1234.915466 391.28 
L 1234.915466 363.92375 
Q 1234.915466 359.92375 1230.915466 359.92375 
L 1111.474841 359.92375 
Q 1107.474841 359.92375 1107.474841 363.92375 
L 1107.474841 391.28 
Q 1107.474841 395.28 1111.474841 395.28 
z
" style="fill: #ffffff; opacity: 0.8; stroke: #cccccc; stroke-linejoin: miter"/>
    </g>
    <g id="line2d_28">
     <path d="M 1115.474841 376.120625 
L 1135.474841 376.120625 
L 1155.474841 376.120625 
" style="fill: none; stroke: #800080; stroke-width: 4; stroke-linecap: square"/>
    </g>
    <g id="text_29">
     <!-- BE.9* -->
     <g transform="translate(1171.474841 383.120625) scale(0.2 -0.2)">
      <use xlink:href="#DejaVuSans-42"/>
      <use xlink:href="#DejaVuSans-45" x="68.603516"/>
      <use xlink:href="#DejaVuSans-2e" x="131.787109"/>
      <use xlink:href="#DejaVuSans-39" x="163.574219"/>
      <use xlink:href="#DejaVuSans-2a" x="227.197266"/>
     </g>
    </g>
   </g>
  </g>
 </g>
 <defs>
  <clipPath id="pffadd0d649">
   <rect x="103.074841" y="7.2" width="837" height="388.08"/>
  </clipPath>
 </defs>
</svg>
