<?xml version="1.0" encoding="utf-8" standalone="no"?>
<!DOCTYPE svg PUBLIC "-//W3C//DTD SVG 1.1//EN"
  "http://www.w3.org/Graphics/SVG/1.1/DTD/svg11.dtd">
<svg xmlns:xlink="http://www.w3.org/1999/xlink" width="1242.115466pt" height="505.354841pt" viewBox="0 0 1242.115466 505.354841" xmlns="http://www.w3.org/2000/svg" version="1.1">
 <metadata>
  <rdf:RDF xmlns:dc="http://purl.org/dc/elements/1.1/" xmlns:cc="http://creativecommons.org/ns#" xmlns:rdf="http://www.w3.org/1999/02/22-rdf-syntax-ns#">
   <cc:Work>
    <dc:type rdf:resource="http://purl.org/dc/dcmitype/StillImage"/>
    <dc:date>2024-01-18T16:11:52.460866</dc:date>
    <dc:format>image/svg+xml</dc:format>
    <dc:creator>
     <cc:Agent>
      <dc:title>Matplotlib v3.7.2, https://matplotlib.org/</dc:title>
     </cc:Agent>
    </dc:creator>
   </cc:Work>
  </rdf:RDF>
 </metadata>
 <defs>
  <style type="text/css">*{stroke-linejoin: round; stroke-linecap: butt}</style>
 </defs>
 <g id="figure_1">
  <g id="patch_1">
   <path d="M 0 505.354841 
L 1242.115466 505.354841 
L 1242.115466 -0 
L 0 -0 
z
" style="fill: #ffffff"/>
  </g>
  <g id="axes_1">
   <g id="patch_2">
    <path d="M 103.074841 395.28 
L 940.074841 395.28 
L 940.074841 7.2 
L 103.074841 7.2 
z
" style="fill: #ffffff"/>
   </g>
   <g id="PolyCollection_1">
    <defs>
     <path id="m375e9ce32f" d="M 103.074841 -355.025358 
L 103.074841 -341.763055 
L 107.323572 -340.118365 
L 111.572303 -341.968786 
L 115.821034 -343.916875 
L 120.069765 -346.09428 
L 124.318496 -348.537934 
L 128.567226 -345.36449 
L 132.815957 -342.326 
L 137.064688 -339.413494 
L 141.313419 -337.801893 
L 145.56215 -336.405789 
L 149.810881 -335.186863 
L 154.059612 -334.114937 
L 158.308343 -330.890628 
L 162.557074 -328.166183 
L 166.805805 -325.830252 
L 171.054536 -323.121777 
L 175.303267 -318.950398 
L 179.551998 -320.855399 
L 183.800729 -323.498706 
L 188.04946 -327.331893 
L 192.298191 -324.580967 
L 196.546922 -322.680662 
L 200.795653 -321.020542 
L 205.044384 -319.691789 
L 209.293115 -318.604432 
L 213.541846 -320.665224 
L 217.790577 -320.155769 
L 222.039308 -319.608059 
L 226.288039 -318.054674 
L 230.53677 -316.965909 
L 234.785501 -313.218666 
L 239.034232 -315.059369 
L 243.282963 -316.611785 
L 247.531693 -320.145605 
L 251.780424 -313.895877 
L 256.029155 -307.823179 
L 260.277886 -313.457102 
L 264.526617 -309.262051 
L 268.775348 -309.226442 
L 273.024079 -308.841865 
L 277.27281 -310.426863 
L 281.521541 -309.93655 
L 285.770272 -308.7063 
L 290.019003 -307.393279 
L 294.267734 -311.015673 
L 298.516465 -307.222157 
L 302.765196 -305.657968 
L 307.013927 -306.481297 
L 311.262658 -303.30818 
L 315.511389 -302.277217 
L 319.76012 -302.892698 
L 324.008851 -306.457847 
L 328.257582 -305.923023 
L 332.506313 -301.489245 
L 336.755044 -305.121036 
L 341.003775 -305.19429 
L 345.252506 -304.336508 
L 349.501237 -304.219066 
L 353.749968 -305.823917 
L 357.998699 -303.264028 
L 362.24743 -300.190133 
L 366.49616 -301.643849 
L 370.744891 -300.115973 
L 374.993622 -300.824147 
L 379.242353 -301.154349 
L 383.491084 -299.626877 
L 387.739815 -299.087486 
L 391.988546 -300.259022 
L 396.237277 -299.427471 
L 400.486008 -302.05511 
L 404.734739 -304.52894 
L 408.98347 -298.525514 
L 413.232201 -300.43198 
L 417.480932 -303.034924 
L 421.729663 -298.537506 
L 425.978394 -294.876201 
L 430.227125 -295.790457 
L 434.475856 -297.31691 
L 438.724587 -298.672162 
L 442.973318 -297.554327 
L 447.222049 -293.798013 
L 451.47078 -290.527695 
L 455.719511 -291.723672 
L 459.968242 -293.499812 
L 464.216973 -290.795574 
L 468.465704 -289.055798 
L 472.714435 -297.324988 
L 476.963166 -301.324744 
L 481.211897 -298.437715 
L 485.460627 -295.335526 
L 489.709358 -292.045991 
L 493.958089 -296.466194 
L 498.20682 -299.734713 
L 502.455551 -270.411829 
L 506.704282 -289.387892 
L 510.953013 -296.787809 
L 515.201744 -283.685038 
L 519.450475 -284.723556 
L 523.699206 -285.14409 
L 527.947937 -280.720986 
L 532.196668 -276.585349 
L 536.445399 -272.715214 
L 540.69413 -273.936783 
L 544.942861 -275.799238 
L 549.191592 -270.432257 
L 553.440323 -265.098817 
L 557.689054 -265.872069 
L 561.937785 -266.637727 
L 566.186516 -267.400052 
L 570.435247 -268.187168 
L 574.683978 -269.298597 
L 578.932709 -267.152534 
L 583.18144 -265.302203 
L 587.430171 -263.699413 
L 591.678902 -257.767572 
L 595.927633 -251.055163 
L 600.176364 -243.416135 
L 604.425095 -242.593283 
L 608.673825 -242.023148 
L 612.922556 -241.628111 
L 617.171287 -225.3665 
L 621.420018 -209.860862 
L 625.668749 -195.074631 
L 629.91748 -181.272045 
L 634.166211 -189.864431 
L 638.414942 -199.040368 
L 642.663673 -190.02561 
L 646.912404 -184.034047 
L 651.161135 -167.001804 
L 655.409866 -169.321575 
L 659.658597 -166.145387 
L 663.907328 -156.387449 
L 668.156059 -160.308998 
L 672.40479 -163.749243 
L 676.653521 -156.686839 
L 680.902252 -161.451937 
L 685.150983 -159.936143 
L 689.399714 -160.830535 
L 693.648445 -159.176327 
L 697.897176 -159.000007 
L 702.145907 -159.03047 
L 706.394638 -160.536162 
L 710.643369 -161.995348 
L 714.8921 -163.414822 
L 719.140831 -165.551018 
L 723.389562 -162.3416 
L 727.638292 -158.490606 
L 731.887023 -154.864693 
L 736.135754 -152.917867 
L 740.384485 -153.074765 
L 744.633216 -156.128666 
L 748.881947 -158.624659 
L 753.130678 -154.919629 
L 757.379409 -149.545559 
L 761.62814 -150.832441 
L 765.876871 -152.118847 
L 770.125602 -153.291141 
L 774.374333 -154.414725 
L 778.623064 -156.490604 
L 782.871795 -158.888617 
L 787.120526 -156.214073 
L 791.369257 -153.821794 
L 795.617988 -156.569519 
L 799.866719 -159.100273 
L 804.11545 -161.445801 
L 808.364181 -158.500052 
L 812.612912 -154.749557 
L 816.861643 -155.453924 
L 821.110374 -156.158836 
L 825.359105 -156.867389 
L 829.607836 -165.248908 
L 833.856567 -171.242857 
L 838.105298 -169.753463 
L 842.354029 -167.339552 
L 846.602759 -167.405448 
L 850.85149 -167.578222 
L 855.100221 -167.846411 
L 859.348952 -168.934286 
L 863.597683 -169.981546 
L 867.846414 -170.985414 
L 872.095145 -172.813633 
L 876.343876 -174.544939 
L 880.592607 -176.20412 
L 884.841338 -175.284866 
L 889.090069 -174.375187 
L 893.3388 -173.49148 
L 897.587531 -173.472996 
L 901.836262 -173.378221 
L 906.084993 -173.204549 
L 910.333724 -174.808367 
L 914.582455 -176.391407 
L 918.831186 -177.96623 
L 923.079917 -179.244696 
L 927.328648 -180.595696 
L 931.577379 -182.182091 
L 935.82611 -183.77296 
L 940.074841 -185.373055 
L 940.074841 -304.760112 
L 940.074841 -304.760112 
L 935.82611 -302.655645 
L 931.577379 -300.533633 
L 927.328648 -298.389755 
L 923.079917 -296.5137 
L 918.831186 -294.730858 
L 914.582455 -292.924545 
L 910.333724 -291.113191 
L 906.084993 -289.28988 
L 901.836262 -288.48723 
L 897.587531 -287.643493 
L 893.3388 -286.758424 
L 889.090069 -285.396912 
L 884.841338 -284.078601 
L 880.592607 -282.791134 
L 876.343876 -281.622874 
L 872.095145 -280.396245 
L 867.846414 -279.090541 
L 863.597683 -277.100943 
L 859.348952 -275.056162 
L 855.100221 -272.957373 
L 850.85149 -271.805559 
L 846.602759 -270.74532 
L 842.354029 -269.791541 
L 838.105298 -270.008349 
L 833.856567 -269.778763 
L 829.607836 -266.095597 
L 825.359105 -261.328735 
L 821.110374 -259.821081 
L 816.861643 -258.324634 
L 812.612912 -256.837414 
L 808.364181 -258.073977 
L 804.11545 -258.907265 
L 799.866719 -256.742954 
L 795.617988 -254.454324 
L 791.369257 -252.01794 
L 787.120526 -252.492955 
L 782.871795 -253.184649 
L 778.623064 -251.068355 
L 774.374333 -249.139039 
L 770.125602 -246.437982 
L 765.876871 -243.54887 
L 761.62814 -242.319899 
L 757.379409 -241.135971 
L 753.130678 -243.732759 
L 748.881947 -245.334752 
L 744.633216 -242.374141 
L 740.384485 -238.783615 
L 736.135754 -238.209227 
L 731.887023 -238.121627 
L 727.638292 -238.687899 
L 723.389562 -240.006711 
L 719.140831 -241.047399 
L 714.8921 -241.36306 
L 710.643369 -239.573199 
L 706.394638 -237.745443 
L 702.145907 -235.874128 
L 697.897176 -234.30131 
L 693.648445 -232.471242 
L 689.399714 -234.577718 
L 685.150983 -234.715756 
L 680.902252 -235.552214 
L 676.653521 -231.429229 
L 672.40479 -234.370637 
L 668.156059 -232.285903 
L 663.907328 -229.942237 
L 659.658597 -235.977241 
L 655.409866 -237.655895 
L 651.161135 -237.988318 
L 646.912404 -248.368481 
L 642.663673 -251.687235 
L 638.414942 -256.747086 
L 634.166211 -251.342501 
L 629.91748 -246.259855 
L 625.668749 -258.089604 
L 621.420018 -267.616362 
L 617.171287 -277.497964 
L 612.922556 -287.739395 
L 608.673825 -287.473412 
L 604.425095 -287.251756 
L 600.176364 -287.093136 
L 595.927633 -291.962683 
L 591.678902 -296.164914 
L 587.430171 -299.807801 
L 583.18144 -300.010229 
L 578.932709 -300.313826 
L 574.683978 -300.732806 
L 570.435247 -300.060933 
L 566.186516 -299.55448 
L 561.937785 -299.21501 
L 557.689054 -298.873524 
L 553.440323 -298.524839 
L 549.191592 -301.527458 
L 544.942861 -304.501607 
L 540.69413 -302.833373 
L 536.445399 -301.707903 
L 532.196668 -303.483662 
L 527.947937 -305.395553 
L 523.699206 -307.461716 
L 519.450475 -307.529443 
L 515.201744 -307.56833 
L 510.953013 -313.710669 
L 506.704282 -310.190304 
L 502.455551 -299.339162 
L 498.20682 -315.68134 
L 493.958089 -313.927011 
L 489.709358 -311.65603 
L 485.460627 -312.686862 
L 481.211897 -313.63904 
L 476.963166 -314.99568 
L 472.714435 -313.028888 
L 468.465704 -308.715829 
L 464.216973 -309.457923 
L 459.968242 -310.608918 
L 455.719511 -309.447181 
L 451.47078 -308.695003 
L 447.222049 -311.085971 
L 442.973318 -312.796218 
L 438.724587 -313.091352 
L 434.475856 -311.796047 
L 430.227125 -311.351402 
L 425.978394 -311.031696 
L 421.729663 -312.692517 
L 417.480932 -314.519985 
L 413.232201 -313.530579 
L 408.98347 -312.180724 
L 404.734739 -314.998732 
L 400.486008 -313.908369 
L 396.237277 -312.691687 
L 391.988546 -312.79589 
L 387.739815 -311.965744 
L 383.491084 -312.253072 
L 379.242353 -312.718812 
L 374.993622 -312.694964 
L 370.744891 -312.986339 
L 366.49616 -312.771655 
L 362.24743 -312.096683 
L 357.998699 -312.959785 
L 353.749968 -314.695946 
L 349.501237 -314.165457 
L 345.252506 -314.108586 
L 341.003775 -314.366212 
L 336.755044 -313.890212 
L 332.506313 -312.767378 
L 328.257582 -314.818063 
L 324.008851 -315.137808 
L 319.76012 -313.222395 
L 315.511389 -312.528079 
L 311.262658 -312.521716 
L 307.013927 -314.917061 
L 302.765196 -315.133986 
L 298.516465 -315.679076 
L 294.267734 -318.306027 
L 290.019003 -314.745312 
L 285.770272 -316.706649 
L 281.521541 -316.526596 
L 277.27281 -316.876014 
L 273.024079 -315.773213 
L 268.775348 -316.549181 
L 264.526617 -316.73841 
L 260.277886 -319.810706 
L 256.029155 -315.436533 
L 251.780424 -321.234272 
L 247.531693 -327.319077 
L 243.282963 -320.9514 
L 239.034232 -320.279812 
L 234.785501 -319.457116 
L 230.53677 -320.00594 
L 226.288039 -321.305044 
L 222.039308 -323.196589 
L 217.790577 -323.221304 
L 213.541846 -323.248027 
L 209.293115 -322.386728 
L 205.044384 -323.055929 
L 200.795653 -323.890769 
L 196.546922 -324.954303 
L 192.298191 -328.544863 
L 188.04946 -333.856509 
L 183.800729 -330.073938 
L 179.551998 -327.411567 
L 175.303267 -321.61149 
L 171.054536 -327.71875 
L 166.805805 -331.69742 
L 162.557074 -335.177349 
L 158.308343 -339.257134 
L 154.059612 -344.110062 
L 149.810881 -346.062258 
L 145.56215 -348.285506 
L 141.313419 -350.840673 
L 137.064688 -353.806914 
L 132.815957 -357.834466 
L 128.567226 -362.049395 
L 124.318496 -366.462441 
L 120.069765 -362.580921 
L 115.821034 -359.06355 
L 111.572303 -355.859621 
L 107.323572 -352.928146 
L 103.074841 -355.025358 
z
" style="stroke: #008000; stroke-opacity: 0.3"/>
    </defs>
    <g clip-path="url(#pece0a06e6c)">
     <use xlink:href="#m375e9ce32f" x="0" y="505.354841" style="fill: #008000; fill-opacity: 0.3; stroke: #008000; stroke-opacity: 0.3"/>
    </g>
   </g>
   <g id="matplotlib.axis_1">
    <g id="xtick_1">
     <g id="line2d_1">
      <defs>
       <path id="m0173b7f727" d="M 0 0 
L 0 3.5 
" style="stroke: #000000; stroke-width: 0.8"/>
      </defs>
      <g>
       <use xlink:href="#m0173b7f727" x="103.074841" y="395.28" style="stroke: #000000; stroke-width: 0.8"/>
      </g>
     </g>
     <g id="text_1">
      <!-- 2022-10-01 -->
      <g transform="translate(17.945813 495.213718) rotate(-45) scale(0.2 -0.2)">
       <defs>
        <path id="DejaVuSans-32" d="M 1228 531 
L 3431 531 
L 3431 0 
L 469 0 
L 469 531 
Q 828 903 1448 1529 
Q 2069 2156 2228 2338 
Q 2531 2678 2651 2914 
Q 2772 3150 2772 3378 
Q 2772 3750 2511 3984 
Q 2250 4219 1831 4219 
Q 1534 4219 1204 4116 
Q 875 4013 500 3803 
L 500 4441 
Q 881 4594 1212 4672 
Q 1544 4750 1819 4750 
Q 2544 4750 2975 4387 
Q 3406 4025 3406 3419 
Q 3406 3131 3298 2873 
Q 3191 2616 2906 2266 
Q 2828 2175 2409 1742 
Q 1991 1309 1228 531 
z
" transform="scale(0.015625)"/>
        <path id="DejaVuSans-30" d="M 2034 4250 
Q 1547 4250 1301 3770 
Q 1056 3291 1056 2328 
Q 1056 1369 1301 889 
Q 1547 409 2034 409 
Q 2525 409 2770 889 
Q 3016 1369 3016 2328 
Q 3016 3291 2770 3770 
Q 2525 4250 2034 4250 
z
M 2034 4750 
Q 2819 4750 3233 4129 
Q 3647 3509 3647 2328 
Q 3647 1150 3233 529 
Q 2819 -91 2034 -91 
Q 1250 -91 836 529 
Q 422 1150 422 2328 
Q 422 3509 836 4129 
Q 1250 4750 2034 4750 
z
" transform="scale(0.015625)"/>
        <path id="DejaVuSans-2d" d="M 313 2009 
L 1997 2009 
L 1997 1497 
L 313 1497 
L 313 2009 
z
" transform="scale(0.015625)"/>
        <path id="DejaVuSans-31" d="M 794 531 
L 1825 531 
L 1825 4091 
L 703 3866 
L 703 4441 
L 1819 4666 
L 2450 4666 
L 2450 531 
L 3481 531 
L 3481 0 
L 794 0 
L 794 531 
z
" transform="scale(0.015625)"/>
       </defs>
       <use xlink:href="#DejaVuSans-32"/>
       <use xlink:href="#DejaVuSans-30" x="63.623047"/>
       <use xlink:href="#DejaVuSans-32" x="127.246094"/>
       <use xlink:href="#DejaVuSans-32" x="190.869141"/>
       <use xlink:href="#DejaVuSans-2d" x="254.492188"/>
       <use xlink:href="#DejaVuSans-31" x="290.576172"/>
       <use xlink:href="#DejaVuSans-30" x="354.199219"/>
       <use xlink:href="#DejaVuSans-2d" x="417.822266"/>
       <use xlink:href="#DejaVuSans-30" x="453.90625"/>
       <use xlink:href="#DejaVuSans-31" x="517.529297"/>
      </g>
     </g>
    </g>
    <g id="xtick_2">
     <g id="line2d_2">
      <g>
       <use xlink:href="#m0173b7f727" x="162.557074" y="395.28" style="stroke: #000000; stroke-width: 0.8"/>
      </g>
     </g>
     <g id="text_2">
      <!-- 2022-10-15 -->
      <g transform="translate(77.428047 495.213718) rotate(-45) scale(0.2 -0.2)">
       <defs>
        <path id="DejaVuSans-35" d="M 691 4666 
L 3169 4666 
L 3169 4134 
L 1269 4134 
L 1269 2991 
Q 1406 3038 1543 3061 
Q 1681 3084 1819 3084 
Q 2600 3084 3056 2656 
Q 3513 2228 3513 1497 
Q 3513 744 3044 326 
Q 2575 -91 1722 -91 
Q 1428 -91 1123 -41 
Q 819 9 494 109 
L 494 744 
Q 775 591 1075 516 
Q 1375 441 1709 441 
Q 2250 441 2565 725 
Q 2881 1009 2881 1497 
Q 2881 1984 2565 2268 
Q 2250 2553 1709 2553 
Q 1456 2553 1204 2497 
Q 953 2441 691 2322 
L 691 4666 
z
" transform="scale(0.015625)"/>
       </defs>
       <use xlink:href="#DejaVuSans-32"/>
       <use xlink:href="#DejaVuSans-30" x="63.623047"/>
       <use xlink:href="#DejaVuSans-32" x="127.246094"/>
       <use xlink:href="#DejaVuSans-32" x="190.869141"/>
       <use xlink:href="#DejaVuSans-2d" x="254.492188"/>
       <use xlink:href="#DejaVuSans-31" x="290.576172"/>
       <use xlink:href="#DejaVuSans-30" x="354.199219"/>
       <use xlink:href="#DejaVuSans-2d" x="417.822266"/>
       <use xlink:href="#DejaVuSans-31" x="453.90625"/>
       <use xlink:href="#DejaVuSans-35" x="517.529297"/>
      </g>
     </g>
    </g>
    <g id="xtick_3">
     <g id="line2d_3">
      <g>
       <use xlink:href="#m0173b7f727" x="222.039308" y="395.28" style="stroke: #000000; stroke-width: 0.8"/>
      </g>
     </g>
     <g id="text_3">
      <!-- 2022-10-29 -->
      <g transform="translate(136.91028 495.213718) rotate(-45) scale(0.2 -0.2)">
       <defs>
        <path id="DejaVuSans-39" d="M 703 97 
L 703 672 
Q 941 559 1184 500 
Q 1428 441 1663 441 
Q 2288 441 2617 861 
Q 2947 1281 2994 2138 
Q 2813 1869 2534 1725 
Q 2256 1581 1919 1581 
Q 1219 1581 811 2004 
Q 403 2428 403 3163 
Q 403 3881 828 4315 
Q 1253 4750 1959 4750 
Q 2769 4750 3195 4129 
Q 3622 3509 3622 2328 
Q 3622 1225 3098 567 
Q 2575 -91 1691 -91 
Q 1453 -91 1209 -44 
Q 966 3 703 97 
z
M 1959 2075 
Q 2384 2075 2632 2365 
Q 2881 2656 2881 3163 
Q 2881 3666 2632 3958 
Q 2384 4250 1959 4250 
Q 1534 4250 1286 3958 
Q 1038 3666 1038 3163 
Q 1038 2656 1286 2365 
Q 1534 2075 1959 2075 
z
" transform="scale(0.015625)"/>
       </defs>
       <use xlink:href="#DejaVuSans-32"/>
       <use xlink:href="#DejaVuSans-30" x="63.623047"/>
       <use xlink:href="#DejaVuSans-32" x="127.246094"/>
       <use xlink:href="#DejaVuSans-32" x="190.869141"/>
       <use xlink:href="#DejaVuSans-2d" x="254.492188"/>
       <use xlink:href="#DejaVuSans-31" x="290.576172"/>
       <use xlink:href="#DejaVuSans-30" x="354.199219"/>
       <use xlink:href="#DejaVuSans-2d" x="417.822266"/>
       <use xlink:href="#DejaVuSans-32" x="453.90625"/>
       <use xlink:href="#DejaVuSans-39" x="517.529297"/>
      </g>
     </g>
    </g>
    <g id="xtick_4">
     <g id="line2d_4">
      <g>
       <use xlink:href="#m0173b7f727" x="281.521541" y="395.28" style="stroke: #000000; stroke-width: 0.8"/>
      </g>
     </g>
     <g id="text_4">
      <!-- 2022-11-12 -->
      <g transform="translate(196.392514 495.213718) rotate(-45) scale(0.2 -0.2)">
       <use xlink:href="#DejaVuSans-32"/>
       <use xlink:href="#DejaVuSans-30" x="63.623047"/>
       <use xlink:href="#DejaVuSans-32" x="127.246094"/>
       <use xlink:href="#DejaVuSans-32" x="190.869141"/>
       <use xlink:href="#DejaVuSans-2d" x="254.492188"/>
       <use xlink:href="#DejaVuSans-31" x="290.576172"/>
       <use xlink:href="#DejaVuSans-31" x="354.199219"/>
       <use xlink:href="#DejaVuSans-2d" x="417.822266"/>
       <use xlink:href="#DejaVuSans-31" x="453.90625"/>
       <use xlink:href="#DejaVuSans-32" x="517.529297"/>
      </g>
     </g>
    </g>
    <g id="xtick_5">
     <g id="line2d_5">
      <g>
       <use xlink:href="#m0173b7f727" x="341.003775" y="395.28" style="stroke: #000000; stroke-width: 0.8"/>
      </g>
     </g>
     <g id="text_5">
      <!-- 2022-11-26 -->
      <g transform="translate(255.874747 495.213718) rotate(-45) scale(0.2 -0.2)">
       <defs>
        <path id="DejaVuSans-36" d="M 2113 2584 
Q 1688 2584 1439 2293 
Q 1191 2003 1191 1497 
Q 1191 994 1439 701 
Q 1688 409 2113 409 
Q 2538 409 2786 701 
Q 3034 994 3034 1497 
Q 3034 2003 2786 2293 
Q 2538 2584 2113 2584 
z
M 3366 4563 
L 3366 3988 
Q 3128 4100 2886 4159 
Q 2644 4219 2406 4219 
Q 1781 4219 1451 3797 
Q 1122 3375 1075 2522 
Q 1259 2794 1537 2939 
Q 1816 3084 2150 3084 
Q 2853 3084 3261 2657 
Q 3669 2231 3669 1497 
Q 3669 778 3244 343 
Q 2819 -91 2113 -91 
Q 1303 -91 875 529 
Q 447 1150 447 2328 
Q 447 3434 972 4092 
Q 1497 4750 2381 4750 
Q 2619 4750 2861 4703 
Q 3103 4656 3366 4563 
z
" transform="scale(0.015625)"/>
       </defs>
       <use xlink:href="#DejaVuSans-32"/>
       <use xlink:href="#DejaVuSans-30" x="63.623047"/>
       <use xlink:href="#DejaVuSans-32" x="127.246094"/>
       <use xlink:href="#DejaVuSans-32" x="190.869141"/>
       <use xlink:href="#DejaVuSans-2d" x="254.492188"/>
       <use xlink:href="#DejaVuSans-31" x="290.576172"/>
       <use xlink:href="#DejaVuSans-31" x="354.199219"/>
       <use xlink:href="#DejaVuSans-2d" x="417.822266"/>
       <use xlink:href="#DejaVuSans-32" x="453.90625"/>
       <use xlink:href="#DejaVuSans-36" x="517.529297"/>
      </g>
     </g>
    </g>
    <g id="xtick_6">
     <g id="line2d_6">
      <g>
       <use xlink:href="#m0173b7f727" x="400.486008" y="395.28" style="stroke: #000000; stroke-width: 0.8"/>
      </g>
     </g>
     <g id="text_6">
      <!-- 2022-12-10 -->
      <g transform="translate(315.356981 495.213718) rotate(-45) scale(0.2 -0.2)">
       <use xlink:href="#DejaVuSans-32"/>
       <use xlink:href="#DejaVuSans-30" x="63.623047"/>
       <use xlink:href="#DejaVuSans-32" x="127.246094"/>
       <use xlink:href="#DejaVuSans-32" x="190.869141"/>
       <use xlink:href="#DejaVuSans-2d" x="254.492188"/>
       <use xlink:href="#DejaVuSans-31" x="290.576172"/>
       <use xlink:href="#DejaVuSans-32" x="354.199219"/>
       <use xlink:href="#DejaVuSans-2d" x="417.822266"/>
       <use xlink:href="#DejaVuSans-31" x="453.90625"/>
       <use xlink:href="#DejaVuSans-30" x="517.529297"/>
      </g>
     </g>
    </g>
    <g id="xtick_7">
     <g id="line2d_7">
      <g>
       <use xlink:href="#m0173b7f727" x="459.968242" y="395.28" style="stroke: #000000; stroke-width: 0.8"/>
      </g>
     </g>
     <g id="text_7">
      <!-- 2022-12-24 -->
      <g transform="translate(374.839214 495.213718) rotate(-45) scale(0.2 -0.2)">
       <defs>
        <path id="DejaVuSans-34" d="M 2419 4116 
L 825 1625 
L 2419 1625 
L 2419 4116 
z
M 2253 4666 
L 3047 4666 
L 3047 1625 
L 3713 1625 
L 3713 1100 
L 3047 1100 
L 3047 0 
L 2419 0 
L 2419 1100 
L 313 1100 
L 313 1709 
L 2253 4666 
z
" transform="scale(0.015625)"/>
       </defs>
       <use xlink:href="#DejaVuSans-32"/>
       <use xlink:href="#DejaVuSans-30" x="63.623047"/>
       <use xlink:href="#DejaVuSans-32" x="127.246094"/>
       <use xlink:href="#DejaVuSans-32" x="190.869141"/>
       <use xlink:href="#DejaVuSans-2d" x="254.492188"/>
       <use xlink:href="#DejaVuSans-31" x="290.576172"/>
       <use xlink:href="#DejaVuSans-32" x="354.199219"/>
       <use xlink:href="#DejaVuSans-2d" x="417.822266"/>
       <use xlink:href="#DejaVuSans-32" x="453.90625"/>
       <use xlink:href="#DejaVuSans-34" x="517.529297"/>
      </g>
     </g>
    </g>
    <g id="xtick_8">
     <g id="line2d_8">
      <g>
       <use xlink:href="#m0173b7f727" x="519.450475" y="395.28" style="stroke: #000000; stroke-width: 0.8"/>
      </g>
     </g>
     <g id="text_8">
      <!-- 2023-01-07 -->
      <g transform="translate(434.321448 495.213718) rotate(-45) scale(0.2 -0.2)">
       <defs>
        <path id="DejaVuSans-33" d="M 2597 2516 
Q 3050 2419 3304 2112 
Q 3559 1806 3559 1356 
Q 3559 666 3084 287 
Q 2609 -91 1734 -91 
Q 1441 -91 1130 -33 
Q 819 25 488 141 
L 488 750 
Q 750 597 1062 519 
Q 1375 441 1716 441 
Q 2309 441 2620 675 
Q 2931 909 2931 1356 
Q 2931 1769 2642 2001 
Q 2353 2234 1838 2234 
L 1294 2234 
L 1294 2753 
L 1863 2753 
Q 2328 2753 2575 2939 
Q 2822 3125 2822 3475 
Q 2822 3834 2567 4026 
Q 2313 4219 1838 4219 
Q 1578 4219 1281 4162 
Q 984 4106 628 3988 
L 628 4550 
Q 988 4650 1302 4700 
Q 1616 4750 1894 4750 
Q 2613 4750 3031 4423 
Q 3450 4097 3450 3541 
Q 3450 3153 3228 2886 
Q 3006 2619 2597 2516 
z
" transform="scale(0.015625)"/>
        <path id="DejaVuSans-37" d="M 525 4666 
L 3525 4666 
L 3525 4397 
L 1831 0 
L 1172 0 
L 2766 4134 
L 525 4134 
L 525 4666 
z
" transform="scale(0.015625)"/>
       </defs>
       <use xlink:href="#DejaVuSans-32"/>
       <use xlink:href="#DejaVuSans-30" x="63.623047"/>
       <use xlink:href="#DejaVuSans-32" x="127.246094"/>
       <use xlink:href="#DejaVuSans-33" x="190.869141"/>
       <use xlink:href="#DejaVuSans-2d" x="254.492188"/>
       <use xlink:href="#DejaVuSans-30" x="290.576172"/>
       <use xlink:href="#DejaVuSans-31" x="354.199219"/>
       <use xlink:href="#DejaVuSans-2d" x="417.822266"/>
       <use xlink:href="#DejaVuSans-30" x="453.90625"/>
       <use xlink:href="#DejaVuSans-37" x="517.529297"/>
      </g>
     </g>
    </g>
    <g id="xtick_9">
     <g id="line2d_9">
      <g>
       <use xlink:href="#m0173b7f727" x="578.932709" y="395.28" style="stroke: #000000; stroke-width: 0.8"/>
      </g>
     </g>
     <g id="text_9">
      <!-- 2023-01-21 -->
      <g transform="translate(493.803681 495.213718) rotate(-45) scale(0.2 -0.2)">
       <use xlink:href="#DejaVuSans-32"/>
       <use xlink:href="#DejaVuSans-30" x="63.623047"/>
       <use xlink:href="#DejaVuSans-32" x="127.246094"/>
       <use xlink:href="#DejaVuSans-33" x="190.869141"/>
       <use xlink:href="#DejaVuSans-2d" x="254.492188"/>
       <use xlink:href="#DejaVuSans-30" x="290.576172"/>
       <use xlink:href="#DejaVuSans-31" x="354.199219"/>
       <use xlink:href="#DejaVuSans-2d" x="417.822266"/>
       <use xlink:href="#DejaVuSans-32" x="453.90625"/>
       <use xlink:href="#DejaVuSans-31" x="517.529297"/>
      </g>
     </g>
    </g>
    <g id="xtick_10">
     <g id="line2d_10">
      <g>
       <use xlink:href="#m0173b7f727" x="638.414942" y="395.28" style="stroke: #000000; stroke-width: 0.8"/>
      </g>
     </g>
     <g id="text_10">
      <!-- 2023-02-04 -->
      <g transform="translate(553.285915 495.213718) rotate(-45) scale(0.2 -0.2)">
       <use xlink:href="#DejaVuSans-32"/>
       <use xlink:href="#DejaVuSans-30" x="63.623047"/>
       <use xlink:href="#DejaVuSans-32" x="127.246094"/>
       <use xlink:href="#DejaVuSans-33" x="190.869141"/>
       <use xlink:href="#DejaVuSans-2d" x="254.492188"/>
       <use xlink:href="#DejaVuSans-30" x="290.576172"/>
       <use xlink:href="#DejaVuSans-32" x="354.199219"/>
       <use xlink:href="#DejaVuSans-2d" x="417.822266"/>
       <use xlink:href="#DejaVuSans-30" x="453.90625"/>
       <use xlink:href="#DejaVuSans-34" x="517.529297"/>
      </g>
     </g>
    </g>
    <g id="xtick_11">
     <g id="line2d_11">
      <g>
       <use xlink:href="#m0173b7f727" x="697.897176" y="395.28" style="stroke: #000000; stroke-width: 0.8"/>
      </g>
     </g>
     <g id="text_11">
      <!-- 2023-02-18 -->
      <g transform="translate(612.768148 495.213718) rotate(-45) scale(0.2 -0.2)">
       <defs>
        <path id="DejaVuSans-38" d="M 2034 2216 
Q 1584 2216 1326 1975 
Q 1069 1734 1069 1313 
Q 1069 891 1326 650 
Q 1584 409 2034 409 
Q 2484 409 2743 651 
Q 3003 894 3003 1313 
Q 3003 1734 2745 1975 
Q 2488 2216 2034 2216 
z
M 1403 2484 
Q 997 2584 770 2862 
Q 544 3141 544 3541 
Q 544 4100 942 4425 
Q 1341 4750 2034 4750 
Q 2731 4750 3128 4425 
Q 3525 4100 3525 3541 
Q 3525 3141 3298 2862 
Q 3072 2584 2669 2484 
Q 3125 2378 3379 2068 
Q 3634 1759 3634 1313 
Q 3634 634 3220 271 
Q 2806 -91 2034 -91 
Q 1263 -91 848 271 
Q 434 634 434 1313 
Q 434 1759 690 2068 
Q 947 2378 1403 2484 
z
M 1172 3481 
Q 1172 3119 1398 2916 
Q 1625 2713 2034 2713 
Q 2441 2713 2670 2916 
Q 2900 3119 2900 3481 
Q 2900 3844 2670 4047 
Q 2441 4250 2034 4250 
Q 1625 4250 1398 4047 
Q 1172 3844 1172 3481 
z
" transform="scale(0.015625)"/>
       </defs>
       <use xlink:href="#DejaVuSans-32"/>
       <use xlink:href="#DejaVuSans-30" x="63.623047"/>
       <use xlink:href="#DejaVuSans-32" x="127.246094"/>
       <use xlink:href="#DejaVuSans-33" x="190.869141"/>
       <use xlink:href="#DejaVuSans-2d" x="254.492188"/>
       <use xlink:href="#DejaVuSans-30" x="290.576172"/>
       <use xlink:href="#DejaVuSans-32" x="354.199219"/>
       <use xlink:href="#DejaVuSans-2d" x="417.822266"/>
       <use xlink:href="#DejaVuSans-31" x="453.90625"/>
       <use xlink:href="#DejaVuSans-38" x="517.529297"/>
      </g>
     </g>
    </g>
    <g id="xtick_12">
     <g id="line2d_12">
      <g>
       <use xlink:href="#m0173b7f727" x="757.379409" y="395.28" style="stroke: #000000; stroke-width: 0.8"/>
      </g>
     </g>
     <g id="text_12">
      <!-- 2023-03-04 -->
      <g transform="translate(672.250382 495.213718) rotate(-45) scale(0.2 -0.2)">
       <use xlink:href="#DejaVuSans-32"/>
       <use xlink:href="#DejaVuSans-30" x="63.623047"/>
       <use xlink:href="#DejaVuSans-32" x="127.246094"/>
       <use xlink:href="#DejaVuSans-33" x="190.869141"/>
       <use xlink:href="#DejaVuSans-2d" x="254.492188"/>
       <use xlink:href="#DejaVuSans-30" x="290.576172"/>
       <use xlink:href="#DejaVuSans-33" x="354.199219"/>
       <use xlink:href="#DejaVuSans-2d" x="417.822266"/>
       <use xlink:href="#DejaVuSans-30" x="453.90625"/>
       <use xlink:href="#DejaVuSans-34" x="517.529297"/>
      </g>
     </g>
    </g>
    <g id="xtick_13">
     <g id="line2d_13">
      <g>
       <use xlink:href="#m0173b7f727" x="816.861643" y="395.28" style="stroke: #000000; stroke-width: 0.8"/>
      </g>
     </g>
     <g id="text_13">
      <!-- 2023-03-18 -->
      <g transform="translate(731.732615 495.213718) rotate(-45) scale(0.2 -0.2)">
       <use xlink:href="#DejaVuSans-32"/>
       <use xlink:href="#DejaVuSans-30" x="63.623047"/>
       <use xlink:href="#DejaVuSans-32" x="127.246094"/>
       <use xlink:href="#DejaVuSans-33" x="190.869141"/>
       <use xlink:href="#DejaVuSans-2d" x="254.492188"/>
       <use xlink:href="#DejaVuSans-30" x="290.576172"/>
       <use xlink:href="#DejaVuSans-33" x="354.199219"/>
       <use xlink:href="#DejaVuSans-2d" x="417.822266"/>
       <use xlink:href="#DejaVuSans-31" x="453.90625"/>
       <use xlink:href="#DejaVuSans-38" x="517.529297"/>
      </g>
     </g>
    </g>
    <g id="xtick_14">
     <g id="line2d_14">
      <g>
       <use xlink:href="#m0173b7f727" x="876.343876" y="395.28" style="stroke: #000000; stroke-width: 0.8"/>
      </g>
     </g>
     <g id="text_14">
      <!-- 2023-04-01 -->
      <g transform="translate(791.214849 495.213718) rotate(-45) scale(0.2 -0.2)">
       <use xlink:href="#DejaVuSans-32"/>
       <use xlink:href="#DejaVuSans-30" x="63.623047"/>
       <use xlink:href="#DejaVuSans-32" x="127.246094"/>
       <use xlink:href="#DejaVuSans-33" x="190.869141"/>
       <use xlink:href="#DejaVuSans-2d" x="254.492188"/>
       <use xlink:href="#DejaVuSans-30" x="290.576172"/>
       <use xlink:href="#DejaVuSans-34" x="354.199219"/>
       <use xlink:href="#DejaVuSans-2d" x="417.822266"/>
       <use xlink:href="#DejaVuSans-30" x="453.90625"/>
       <use xlink:href="#DejaVuSans-31" x="517.529297"/>
      </g>
     </g>
    </g>
    <g id="xtick_15">
     <g id="line2d_15">
      <g>
       <use xlink:href="#m0173b7f727" x="935.82611" y="395.28" style="stroke: #000000; stroke-width: 0.8"/>
      </g>
     </g>
     <g id="text_15">
      <!-- 2023-04-15 -->
      <g transform="translate(850.697082 495.213718) rotate(-45) scale(0.2 -0.2)">
       <use xlink:href="#DejaVuSans-32"/>
       <use xlink:href="#DejaVuSans-30" x="63.623047"/>
       <use xlink:href="#DejaVuSans-32" x="127.246094"/>
       <use xlink:href="#DejaVuSans-33" x="190.869141"/>
       <use xlink:href="#DejaVuSans-2d" x="254.492188"/>
       <use xlink:href="#DejaVuSans-30" x="290.576172"/>
       <use xlink:href="#DejaVuSans-34" x="354.199219"/>
       <use xlink:href="#DejaVuSans-2d" x="417.822266"/>
       <use xlink:href="#DejaVuSans-31" x="453.90625"/>
       <use xlink:href="#DejaVuSans-35" x="517.529297"/>
      </g>
     </g>
    </g>
    <g id="xtick_16">
     <g id="line2d_16">
      <g>
       <use xlink:href="#m0173b7f727" x="940.074841" y="395.28" style="stroke: #000000; stroke-width: 0.8"/>
      </g>
     </g>
     <g id="text_16">
      <!-- 2023-04-16 -->
      <g transform="translate(854.945813 495.213718) rotate(-45) scale(0.2 -0.2)">
       <use xlink:href="#DejaVuSans-32"/>
       <use xlink:href="#DejaVuSans-30" x="63.623047"/>
       <use xlink:href="#DejaVuSans-32" x="127.246094"/>
       <use xlink:href="#DejaVuSans-33" x="190.869141"/>
       <use xlink:href="#DejaVuSans-2d" x="254.492188"/>
       <use xlink:href="#DejaVuSans-30" x="290.576172"/>
       <use xlink:href="#DejaVuSans-34" x="354.199219"/>
       <use xlink:href="#DejaVuSans-2d" x="417.822266"/>
       <use xlink:href="#DejaVuSans-31" x="453.90625"/>
       <use xlink:href="#DejaVuSans-36" x="517.529297"/>
      </g>
     </g>
    </g>
   </g>
   <g id="matplotlib.axis_2">
    <g id="ytick_1">
     <g id="line2d_17">
      <defs>
       <path id="m5f957476a7" d="M 0 0 
L -3.5 0 
" style="stroke: #000000; stroke-width: 0.8"/>
      </defs>
      <g>
       <use xlink:href="#m5f957476a7" x="103.074841" y="330.212846" style="stroke: #000000; stroke-width: 0.8"/>
      </g>
     </g>
     <g id="text_17">
      <!-- −0.10 -->
      <g transform="translate(34.784216 337.811283) scale(0.2 -0.2)">
       <defs>
        <path id="DejaVuSans-2212" d="M 678 2272 
L 4684 2272 
L 4684 1741 
L 678 1741 
L 678 2272 
z
" transform="scale(0.015625)"/>
        <path id="DejaVuSans-2e" d="M 684 794 
L 1344 794 
L 1344 0 
L 684 0 
L 684 794 
z
" transform="scale(0.015625)"/>
       </defs>
       <use xlink:href="#DejaVuSans-2212"/>
       <use xlink:href="#DejaVuSans-30" x="83.789062"/>
       <use xlink:href="#DejaVuSans-2e" x="147.412109"/>
       <use xlink:href="#DejaVuSans-31" x="179.199219"/>
       <use xlink:href="#DejaVuSans-30" x="242.822266"/>
      </g>
     </g>
    </g>
    <g id="ytick_2">
     <g id="line2d_18">
      <g>
       <use xlink:href="#m5f957476a7" x="103.074841" y="258.15357" style="stroke: #000000; stroke-width: 0.8"/>
      </g>
     </g>
     <g id="text_18">
      <!-- −0.05 -->
      <g transform="translate(34.784216 265.752008) scale(0.2 -0.2)">
       <use xlink:href="#DejaVuSans-2212"/>
       <use xlink:href="#DejaVuSans-30" x="83.789062"/>
       <use xlink:href="#DejaVuSans-2e" x="147.412109"/>
       <use xlink:href="#DejaVuSans-30" x="179.199219"/>
       <use xlink:href="#DejaVuSans-35" x="242.822266"/>
      </g>
     </g>
    </g>
    <g id="ytick_3">
     <g id="line2d_19">
      <g>
       <use xlink:href="#m5f957476a7" x="103.074841" y="186.094295" style="stroke: #000000; stroke-width: 0.8"/>
      </g>
     </g>
     <g id="text_19">
      <!-- 0.00 -->
      <g transform="translate(51.543591 193.692732) scale(0.2 -0.2)">
       <use xlink:href="#DejaVuSans-30"/>
       <use xlink:href="#DejaVuSans-2e" x="63.623047"/>
       <use xlink:href="#DejaVuSans-30" x="95.410156"/>
       <use xlink:href="#DejaVuSans-30" x="159.033203"/>
      </g>
     </g>
    </g>
    <g id="ytick_4">
     <g id="line2d_20">
      <g>
       <use xlink:href="#m5f957476a7" x="103.074841" y="114.035019" style="stroke: #000000; stroke-width: 0.8"/>
      </g>
     </g>
     <g id="text_20">
      <!-- 0.05 -->
      <g transform="translate(51.543591 121.633457) scale(0.2 -0.2)">
       <use xlink:href="#DejaVuSans-30"/>
       <use xlink:href="#DejaVuSans-2e" x="63.623047"/>
       <use xlink:href="#DejaVuSans-30" x="95.410156"/>
       <use xlink:href="#DejaVuSans-35" x="159.033203"/>
      </g>
     </g>
    </g>
    <g id="ytick_5">
     <g id="line2d_21">
      <g>
       <use xlink:href="#m5f957476a7" x="103.074841" y="41.975744" style="stroke: #000000; stroke-width: 0.8"/>
      </g>
     </g>
     <g id="text_21">
      <!-- 0.10 -->
      <g transform="translate(51.543591 49.574181) scale(0.2 -0.2)">
       <use xlink:href="#DejaVuSans-30"/>
       <use xlink:href="#DejaVuSans-2e" x="63.623047"/>
       <use xlink:href="#DejaVuSans-31" x="95.410156"/>
       <use xlink:href="#DejaVuSans-30" x="159.033203"/>
      </g>
     </g>
    </g>
    <g id="text_22">
     <!-- Relative fitness $\gamma_y$ -->
     <g transform="translate(24.584216 291.84) rotate(-90) scale(0.2 -0.2)">
      <defs>
       <path id="DejaVuSans-52" d="M 2841 2188 
Q 3044 2119 3236 1894 
Q 3428 1669 3622 1275 
L 4263 0 
L 3584 0 
L 2988 1197 
Q 2756 1666 2539 1819 
Q 2322 1972 1947 1972 
L 1259 1972 
L 1259 0 
L 628 0 
L 628 4666 
L 2053 4666 
Q 2853 4666 3247 4331 
Q 3641 3997 3641 3322 
Q 3641 2881 3436 2590 
Q 3231 2300 2841 2188 
z
M 1259 4147 
L 1259 2491 
L 2053 2491 
Q 2509 2491 2742 2702 
Q 2975 2913 2975 3322 
Q 2975 3731 2742 3939 
Q 2509 4147 2053 4147 
L 1259 4147 
z
" transform="scale(0.015625)"/>
       <path id="DejaVuSans-65" d="M 3597 1894 
L 3597 1613 
L 953 1613 
Q 991 1019 1311 708 
Q 1631 397 2203 397 
Q 2534 397 2845 478 
Q 3156 559 3463 722 
L 3463 178 
Q 3153 47 2828 -22 
Q 2503 -91 2169 -91 
Q 1331 -91 842 396 
Q 353 884 353 1716 
Q 353 2575 817 3079 
Q 1281 3584 2069 3584 
Q 2775 3584 3186 3129 
Q 3597 2675 3597 1894 
z
M 3022 2063 
Q 3016 2534 2758 2815 
Q 2500 3097 2075 3097 
Q 1594 3097 1305 2825 
Q 1016 2553 972 2059 
L 3022 2063 
z
" transform="scale(0.015625)"/>
       <path id="DejaVuSans-6c" d="M 603 4863 
L 1178 4863 
L 1178 0 
L 603 0 
L 603 4863 
z
" transform="scale(0.015625)"/>
       <path id="DejaVuSans-61" d="M 2194 1759 
Q 1497 1759 1228 1600 
Q 959 1441 959 1056 
Q 959 750 1161 570 
Q 1363 391 1709 391 
Q 2188 391 2477 730 
Q 2766 1069 2766 1631 
L 2766 1759 
L 2194 1759 
z
M 3341 1997 
L 3341 0 
L 2766 0 
L 2766 531 
Q 2569 213 2275 61 
Q 1981 -91 1556 -91 
Q 1019 -91 701 211 
Q 384 513 384 1019 
Q 384 1609 779 1909 
Q 1175 2209 1959 2209 
L 2766 2209 
L 2766 2266 
Q 2766 2663 2505 2880 
Q 2244 3097 1772 3097 
Q 1472 3097 1187 3025 
Q 903 2953 641 2809 
L 641 3341 
Q 956 3463 1253 3523 
Q 1550 3584 1831 3584 
Q 2591 3584 2966 3190 
Q 3341 2797 3341 1997 
z
" transform="scale(0.015625)"/>
       <path id="DejaVuSans-74" d="M 1172 4494 
L 1172 3500 
L 2356 3500 
L 2356 3053 
L 1172 3053 
L 1172 1153 
Q 1172 725 1289 603 
Q 1406 481 1766 481 
L 2356 481 
L 2356 0 
L 1766 0 
Q 1100 0 847 248 
Q 594 497 594 1153 
L 594 3053 
L 172 3053 
L 172 3500 
L 594 3500 
L 594 4494 
L 1172 4494 
z
" transform="scale(0.015625)"/>
       <path id="DejaVuSans-69" d="M 603 3500 
L 1178 3500 
L 1178 0 
L 603 0 
L 603 3500 
z
M 603 4863 
L 1178 4863 
L 1178 4134 
L 603 4134 
L 603 4863 
z
" transform="scale(0.015625)"/>
       <path id="DejaVuSans-76" d="M 191 3500 
L 800 3500 
L 1894 563 
L 2988 3500 
L 3597 3500 
L 2284 0 
L 1503 0 
L 191 3500 
z
" transform="scale(0.015625)"/>
       <path id="DejaVuSans-20" transform="scale(0.015625)"/>
       <path id="DejaVuSans-66" d="M 2375 4863 
L 2375 4384 
L 1825 4384 
Q 1516 4384 1395 4259 
Q 1275 4134 1275 3809 
L 1275 3500 
L 2222 3500 
L 2222 3053 
L 1275 3053 
L 1275 0 
L 697 0 
L 697 3053 
L 147 3053 
L 147 3500 
L 697 3500 
L 697 3744 
Q 697 4328 969 4595 
Q 1241 4863 1831 4863 
L 2375 4863 
z
" transform="scale(0.015625)"/>
       <path id="DejaVuSans-6e" d="M 3513 2113 
L 3513 0 
L 2938 0 
L 2938 2094 
Q 2938 2591 2744 2837 
Q 2550 3084 2163 3084 
Q 1697 3084 1428 2787 
Q 1159 2491 1159 1978 
L 1159 0 
L 581 0 
L 581 3500 
L 1159 3500 
L 1159 2956 
Q 1366 3272 1645 3428 
Q 1925 3584 2291 3584 
Q 2894 3584 3203 3211 
Q 3513 2838 3513 2113 
z
" transform="scale(0.015625)"/>
       <path id="DejaVuSans-73" d="M 2834 3397 
L 2834 2853 
Q 2591 2978 2328 3040 
Q 2066 3103 1784 3103 
Q 1356 3103 1142 2972 
Q 928 2841 928 2578 
Q 928 2378 1081 2264 
Q 1234 2150 1697 2047 
L 1894 2003 
Q 2506 1872 2764 1633 
Q 3022 1394 3022 966 
Q 3022 478 2636 193 
Q 2250 -91 1575 -91 
Q 1294 -91 989 -36 
Q 684 19 347 128 
L 347 722 
Q 666 556 975 473 
Q 1284 391 1588 391 
Q 1994 391 2212 530 
Q 2431 669 2431 922 
Q 2431 1156 2273 1281 
Q 2116 1406 1581 1522 
L 1381 1569 
Q 847 1681 609 1914 
Q 372 2147 372 2553 
Q 372 3047 722 3315 
Q 1072 3584 1716 3584 
Q 2034 3584 2315 3537 
Q 2597 3491 2834 3397 
z
" transform="scale(0.015625)"/>
       <path id="DejaVuSans-Oblique-3b3" d="M 1491 2950 
L 1838 788 
L 3456 3500 
L 4066 3500 
L 1972 0 
L 1713 -1331 
L 1138 -1331 
L 1397 0 
L 988 2613 
Q 925 3006 628 3006 
L 475 3006 
L 569 3500 
L 788 3500 
Q 1403 3500 1491 2950 
z
" transform="scale(0.015625)"/>
       <path id="DejaVuSans-Oblique-79" d="M 1588 -325 
Q 1188 -997 936 -1164 
Q 684 -1331 294 -1331 
L -159 -1331 
L -63 -850 
L 269 -850 
Q 509 -850 678 -719 
Q 847 -588 1056 -206 
L 1234 128 
L 459 3500 
L 1069 3500 
L 1650 819 
L 3256 3500 
L 3859 3500 
L 1588 -325 
z
" transform="scale(0.015625)"/>
      </defs>
      <use xlink:href="#DejaVuSans-52" transform="translate(0 0.015625)"/>
      <use xlink:href="#DejaVuSans-65" transform="translate(69.482422 0.015625)"/>
      <use xlink:href="#DejaVuSans-6c" transform="translate(131.005859 0.015625)"/>
      <use xlink:href="#DejaVuSans-61" transform="translate(158.789062 0.015625)"/>
      <use xlink:href="#DejaVuSans-74" transform="translate(220.068359 0.015625)"/>
      <use xlink:href="#DejaVuSans-69" transform="translate(259.277344 0.015625)"/>
      <use xlink:href="#DejaVuSans-76" transform="translate(287.060547 0.015625)"/>
      <use xlink:href="#DejaVuSans-65" transform="translate(346.240234 0.015625)"/>
      <use xlink:href="#DejaVuSans-20" transform="translate(407.763672 0.015625)"/>
      <use xlink:href="#DejaVuSans-66" transform="translate(439.550781 0.015625)"/>
      <use xlink:href="#DejaVuSans-69" transform="translate(474.755859 0.015625)"/>
      <use xlink:href="#DejaVuSans-74" transform="translate(502.539062 0.015625)"/>
      <use xlink:href="#DejaVuSans-6e" transform="translate(541.748047 0.015625)"/>
      <use xlink:href="#DejaVuSans-65" transform="translate(605.126953 0.015625)"/>
      <use xlink:href="#DejaVuSans-73" transform="translate(666.650391 0.015625)"/>
      <use xlink:href="#DejaVuSans-73" transform="translate(718.75 0.015625)"/>
      <use xlink:href="#DejaVuSans-20" transform="translate(770.849609 0.015625)"/>
      <use xlink:href="#DejaVuSans-Oblique-3b3" transform="translate(802.636719 0.015625)"/>
      <use xlink:href="#DejaVuSans-Oblique-79" transform="translate(861.816406 -16.390625) scale(0.7)"/>
     </g>
    </g>
   </g>
   <g id="line2d_22">
    <path d="M 103.074841 186.094295 
L 1243.115466 186.094295 
" clip-path="url(#pece0a06e6c)" style="fill: none; stroke-dasharray: 7.4,3.2; stroke-dashoffset: 0; stroke: #000000; stroke-width: 2"/>
   </g>
   <g id="patch_3">
    <path d="M 103.074841 395.28 
L 103.074841 7.2 
" style="fill: none; stroke: #000000; stroke-width: 0.8; stroke-linejoin: miter; stroke-linecap: square"/>
   </g>
   <g id="patch_4">
    <path d="M 940.074841 395.28 
L 940.074841 7.2 
" style="fill: none; stroke: #000000; stroke-width: 0.8; stroke-linejoin: miter; stroke-linecap: square"/>
   </g>
   <g id="patch_5">
    <path d="M 103.074841 395.28 
L 940.074841 395.28 
" style="fill: none; stroke: #000000; stroke-width: 0.8; stroke-linejoin: miter; stroke-linecap: square"/>
   </g>
   <g id="patch_6">
    <path d="M 103.074841 7.2 
L 940.074841 7.2 
" style="fill: none; stroke: #000000; stroke-width: 0.8; stroke-linejoin: miter; stroke-linecap: square"/>
   </g>
   <g id="legend_1">
    <g id="patch_7">
     <path d="M 1111.474841 395.28 
L 1230.915466 395.28 
Q 1234.915466 395.28 1234.915466 391.28 
L 1234.915466 363.92375 
Q 1234.915466 359.92375 1230.915466 359.92375 
L 1111.474841 359.92375 
Q 1107.474841 359.92375 1107.474841 363.92375 
L 1107.474841 391.28 
Q 1107.474841 395.28 1111.474841 395.28 
z
" style="fill: #ffffff; opacity: 0.8; stroke: #cccccc; stroke-linejoin: miter"/>
    </g>
    <g id="patch_8">
     <path d="M 1115.474841 383.120625 
L 1155.474841 383.120625 
L 1155.474841 369.120625 
L 1115.474841 369.120625 
z
" style="fill: #008000; fill-opacity: 0.3; stroke: #008000; stroke-opacity: 0.3; stroke-linejoin: miter"/>
    </g>
    <g id="text_23">
     <!-- BE.9* -->
     <g transform="translate(1171.474841 383.120625) scale(0.2 -0.2)">
      <defs>
       <path id="DejaVuSans-42" d="M 1259 2228 
L 1259 519 
L 2272 519 
Q 2781 519 3026 730 
Q 3272 941 3272 1375 
Q 3272 1813 3026 2020 
Q 2781 2228 2272 2228 
L 1259 2228 
z
M 1259 4147 
L 1259 2741 
L 2194 2741 
Q 2656 2741 2882 2914 
Q 3109 3088 3109 3444 
Q 3109 3797 2882 3972 
Q 2656 4147 2194 4147 
L 1259 4147 
z
M 628 4666 
L 2241 4666 
Q 2963 4666 3353 4366 
Q 3744 4066 3744 3513 
Q 3744 3084 3544 2831 
Q 3344 2578 2956 2516 
Q 3422 2416 3680 2098 
Q 3938 1781 3938 1306 
Q 3938 681 3513 340 
Q 3088 0 2303 0 
L 628 0 
L 628 4666 
z
" transform="scale(0.015625)"/>
       <path id="DejaVuSans-45" d="M 628 4666 
L 3578 4666 
L 3578 4134 
L 1259 4134 
L 1259 2753 
L 3481 2753 
L 3481 2222 
L 1259 2222 
L 1259 531 
L 3634 531 
L 3634 0 
L 628 0 
L 628 4666 
z
" transform="scale(0.015625)"/>
       <path id="DejaVuSans-2a" d="M 3009 3897 
L 1888 3291 
L 3009 2681 
L 2828 2375 
L 1778 3009 
L 1778 1831 
L 1422 1831 
L 1422 3009 
L 372 2375 
L 191 2681 
L 1313 3291 
L 191 3897 
L 372 4206 
L 1422 3572 
L 1422 4750 
L 1778 4750 
L 1778 3572 
L 2828 4206 
L 3009 3897 
z
" transform="scale(0.015625)"/>
      </defs>
      <use xlink:href="#DejaVuSans-42"/>
      <use xlink:href="#DejaVuSans-45" x="68.603516"/>
      <use xlink:href="#DejaVuSans-2e" x="131.787109"/>
      <use xlink:href="#DejaVuSans-39" x="163.574219"/>
      <use xlink:href="#DejaVuSans-2a" x="227.197266"/>
     </g>
    </g>
   </g>
  </g>
  <g id="axes_2">
   <g id="matplotlib.axis_3">
    <g id="ytick_6">
     <g id="line2d_23">
      <defs>
       <path id="m326012d33b" d="M 0 0 
L 3.5 0 
" style="stroke: #000000; stroke-width: 0.8"/>
      </defs>
      <g>
       <use xlink:href="#m326012d33b" x="940.074841" y="330.212846" style="stroke: #000000; stroke-width: 0.8"/>
      </g>
     </g>
     <g id="text_24">
      <!-- −0.10 -->
      <g transform="translate(947.074841 337.811283) scale(0.2 -0.2)">
       <use xlink:href="#DejaVuSans-2212"/>
       <use xlink:href="#DejaVuSans-30" x="83.789062"/>
       <use xlink:href="#DejaVuSans-2e" x="147.412109"/>
       <use xlink:href="#DejaVuSans-31" x="179.199219"/>
       <use xlink:href="#DejaVuSans-30" x="242.822266"/>
      </g>
     </g>
    </g>
    <g id="ytick_7">
     <g id="line2d_24">
      <g>
       <use xlink:href="#m326012d33b" x="940.074841" y="258.15357" style="stroke: #000000; stroke-width: 0.8"/>
      </g>
     </g>
     <g id="text_25">
      <!-- −0.05 -->
      <g transform="translate(947.074841 265.752008) scale(0.2 -0.2)">
       <use xlink:href="#DejaVuSans-2212"/>
       <use xlink:href="#DejaVuSans-30" x="83.789062"/>
       <use xlink:href="#DejaVuSans-2e" x="147.412109"/>
       <use xlink:href="#DejaVuSans-30" x="179.199219"/>
       <use xlink:href="#DejaVuSans-35" x="242.822266"/>
      </g>
     </g>
    </g>
    <g id="ytick_8">
     <g id="line2d_25">
      <g>
       <use xlink:href="#m326012d33b" x="940.074841" y="186.094295" style="stroke: #000000; stroke-width: 0.8"/>
      </g>
     </g>
     <g id="text_26">
      <!-- 0.00 -->
      <g transform="translate(947.074841 193.692732) scale(0.2 -0.2)">
       <use xlink:href="#DejaVuSans-30"/>
       <use xlink:href="#DejaVuSans-2e" x="63.623047"/>
       <use xlink:href="#DejaVuSans-30" x="95.410156"/>
       <use xlink:href="#DejaVuSans-30" x="159.033203"/>
      </g>
     </g>
    </g>
    <g id="ytick_9">
     <g id="line2d_26">
      <g>
       <use xlink:href="#m326012d33b" x="940.074841" y="114.035019" style="stroke: #000000; stroke-width: 0.8"/>
      </g>
     </g>
     <g id="text_27">
      <!-- 0.05 -->
      <g transform="translate(947.074841 121.633457) scale(0.2 -0.2)">
       <use xlink:href="#DejaVuSans-30"/>
       <use xlink:href="#DejaVuSans-2e" x="63.623047"/>
       <use xlink:href="#DejaVuSans-30" x="95.410156"/>
       <use xlink:href="#DejaVuSans-35" x="159.033203"/>
      </g>
     </g>
    </g>
    <g id="ytick_10">
     <g id="line2d_27">
      <g>
       <use xlink:href="#m326012d33b" x="940.074841" y="41.975744" style="stroke: #000000; stroke-width: 0.8"/>
      </g>
     </g>
     <g id="text_28">
      <!-- 0.10 -->
      <g transform="translate(947.074841 49.574181) scale(0.2 -0.2)">
       <use xlink:href="#DejaVuSans-30"/>
       <use xlink:href="#DejaVuSans-2e" x="63.623047"/>
       <use xlink:href="#DejaVuSans-31" x="95.410156"/>
       <use xlink:href="#DejaVuSans-30" x="159.033203"/>
      </g>
     </g>
    </g>
    <g id="text_29">
     <!-- Change in proportion $\gamma_{prop}$ -->
     <g transform="translate(1027.565466 332.74) rotate(-90) scale(0.2 -0.2)">
      <defs>
       <path id="DejaVuSans-43" d="M 4122 4306 
L 4122 3641 
Q 3803 3938 3442 4084 
Q 3081 4231 2675 4231 
Q 1875 4231 1450 3742 
Q 1025 3253 1025 2328 
Q 1025 1406 1450 917 
Q 1875 428 2675 428 
Q 3081 428 3442 575 
Q 3803 722 4122 1019 
L 4122 359 
Q 3791 134 3420 21 
Q 3050 -91 2638 -91 
Q 1578 -91 968 557 
Q 359 1206 359 2328 
Q 359 3453 968 4101 
Q 1578 4750 2638 4750 
Q 3056 4750 3426 4639 
Q 3797 4528 4122 4306 
z
" transform="scale(0.015625)"/>
       <path id="DejaVuSans-68" d="M 3513 2113 
L 3513 0 
L 2938 0 
L 2938 2094 
Q 2938 2591 2744 2837 
Q 2550 3084 2163 3084 
Q 1697 3084 1428 2787 
Q 1159 2491 1159 1978 
L 1159 0 
L 581 0 
L 581 4863 
L 1159 4863 
L 1159 2956 
Q 1366 3272 1645 3428 
Q 1925 3584 2291 3584 
Q 2894 3584 3203 3211 
Q 3513 2838 3513 2113 
z
" transform="scale(0.015625)"/>
       <path id="DejaVuSans-67" d="M 2906 1791 
Q 2906 2416 2648 2759 
Q 2391 3103 1925 3103 
Q 1463 3103 1205 2759 
Q 947 2416 947 1791 
Q 947 1169 1205 825 
Q 1463 481 1925 481 
Q 2391 481 2648 825 
Q 2906 1169 2906 1791 
z
M 3481 434 
Q 3481 -459 3084 -895 
Q 2688 -1331 1869 -1331 
Q 1566 -1331 1297 -1286 
Q 1028 -1241 775 -1147 
L 775 -588 
Q 1028 -725 1275 -790 
Q 1522 -856 1778 -856 
Q 2344 -856 2625 -561 
Q 2906 -266 2906 331 
L 2906 616 
Q 2728 306 2450 153 
Q 2172 0 1784 0 
Q 1141 0 747 490 
Q 353 981 353 1791 
Q 353 2603 747 3093 
Q 1141 3584 1784 3584 
Q 2172 3584 2450 3431 
Q 2728 3278 2906 2969 
L 2906 3500 
L 3481 3500 
L 3481 434 
z
" transform="scale(0.015625)"/>
       <path id="DejaVuSans-70" d="M 1159 525 
L 1159 -1331 
L 581 -1331 
L 581 3500 
L 1159 3500 
L 1159 2969 
Q 1341 3281 1617 3432 
Q 1894 3584 2278 3584 
Q 2916 3584 3314 3078 
Q 3713 2572 3713 1747 
Q 3713 922 3314 415 
Q 2916 -91 2278 -91 
Q 1894 -91 1617 61 
Q 1341 213 1159 525 
z
M 3116 1747 
Q 3116 2381 2855 2742 
Q 2594 3103 2138 3103 
Q 1681 3103 1420 2742 
Q 1159 2381 1159 1747 
Q 1159 1113 1420 752 
Q 1681 391 2138 391 
Q 2594 391 2855 752 
Q 3116 1113 3116 1747 
z
" transform="scale(0.015625)"/>
       <path id="DejaVuSans-72" d="M 2631 2963 
Q 2534 3019 2420 3045 
Q 2306 3072 2169 3072 
Q 1681 3072 1420 2755 
Q 1159 2438 1159 1844 
L 1159 0 
L 581 0 
L 581 3500 
L 1159 3500 
L 1159 2956 
Q 1341 3275 1631 3429 
Q 1922 3584 2338 3584 
Q 2397 3584 2469 3576 
Q 2541 3569 2628 3553 
L 2631 2963 
z
" transform="scale(0.015625)"/>
       <path id="DejaVuSans-6f" d="M 1959 3097 
Q 1497 3097 1228 2736 
Q 959 2375 959 1747 
Q 959 1119 1226 758 
Q 1494 397 1959 397 
Q 2419 397 2687 759 
Q 2956 1122 2956 1747 
Q 2956 2369 2687 2733 
Q 2419 3097 1959 3097 
z
M 1959 3584 
Q 2709 3584 3137 3096 
Q 3566 2609 3566 1747 
Q 3566 888 3137 398 
Q 2709 -91 1959 -91 
Q 1206 -91 779 398 
Q 353 888 353 1747 
Q 353 2609 779 3096 
Q 1206 3584 1959 3584 
z
" transform="scale(0.015625)"/>
       <path id="DejaVuSans-Oblique-70" d="M 3175 2156 
Q 3175 2616 2975 2859 
Q 2775 3103 2400 3103 
Q 2144 3103 1911 2972 
Q 1678 2841 1497 2591 
Q 1319 2344 1212 1994 
Q 1106 1644 1106 1300 
Q 1106 863 1306 627 
Q 1506 391 1875 391 
Q 2147 391 2380 519 
Q 2613 647 2778 891 
Q 2956 1147 3065 1494 
Q 3175 1841 3175 2156 
z
M 1394 2969 
Q 1625 3272 1939 3428 
Q 2253 3584 2638 3584 
Q 3175 3584 3472 3232 
Q 3769 2881 3769 2247 
Q 3769 1728 3584 1258 
Q 3400 788 3053 416 
Q 2822 169 2531 39 
Q 2241 -91 1919 -91 
Q 1547 -91 1294 64 
Q 1041 219 916 525 
L 556 -1331 
L -19 -1331 
L 922 3500 
L 1497 3500 
L 1394 2969 
z
" transform="scale(0.015625)"/>
       <path id="DejaVuSans-Oblique-72" d="M 2853 2969 
Q 2766 3016 2653 3041 
Q 2541 3066 2413 3066 
Q 1953 3066 1609 2717 
Q 1266 2369 1153 1784 
L 800 0 
L 225 0 
L 909 3500 
L 1484 3500 
L 1375 2956 
Q 1603 3259 1920 3421 
Q 2238 3584 2597 3584 
Q 2691 3584 2781 3573 
Q 2872 3563 2963 3538 
L 2853 2969 
z
" transform="scale(0.015625)"/>
       <path id="DejaVuSans-Oblique-6f" d="M 1625 -91 
Q 1009 -91 651 289 
Q 294 669 294 1325 
Q 294 1706 417 2101 
Q 541 2497 738 2766 
Q 1047 3184 1428 3384 
Q 1809 3584 2291 3584 
Q 2888 3584 3255 3212 
Q 3622 2841 3622 2241 
Q 3622 1825 3500 1412 
Q 3378 1000 3181 728 
Q 2875 309 2494 109 
Q 2113 -91 1625 -91 
z
M 891 1344 
Q 891 869 1089 633 
Q 1288 397 1691 397 
Q 2269 397 2648 901 
Q 3028 1406 3028 2181 
Q 3028 2634 2825 2865 
Q 2622 3097 2228 3097 
Q 1903 3097 1650 2945 
Q 1397 2794 1197 2484 
Q 1050 2253 970 1956 
Q 891 1659 891 1344 
z
" transform="scale(0.015625)"/>
      </defs>
      <use xlink:href="#DejaVuSans-43" transform="translate(0 0.015625)"/>
      <use xlink:href="#DejaVuSans-68" transform="translate(69.824219 0.015625)"/>
      <use xlink:href="#DejaVuSans-61" transform="translate(133.203125 0.015625)"/>
      <use xlink:href="#DejaVuSans-6e" transform="translate(194.482422 0.015625)"/>
      <use xlink:href="#DejaVuSans-67" transform="translate(257.861328 0.015625)"/>
      <use xlink:href="#DejaVuSans-65" transform="translate(321.337891 0.015625)"/>
      <use xlink:href="#DejaVuSans-20" transform="translate(382.861328 0.015625)"/>
      <use xlink:href="#DejaVuSans-69" transform="translate(414.648438 0.015625)"/>
      <use xlink:href="#DejaVuSans-6e" transform="translate(442.431641 0.015625)"/>
      <use xlink:href="#DejaVuSans-20" transform="translate(505.810547 0.015625)"/>
      <use xlink:href="#DejaVuSans-70" transform="translate(537.597656 0.015625)"/>
      <use xlink:href="#DejaVuSans-72" transform="translate(601.074219 0.015625)"/>
      <use xlink:href="#DejaVuSans-6f" transform="translate(642.1875 0.015625)"/>
      <use xlink:href="#DejaVuSans-70" transform="translate(703.369141 0.015625)"/>
      <use xlink:href="#DejaVuSans-6f" transform="translate(766.845703 0.015625)"/>
      <use xlink:href="#DejaVuSans-72" transform="translate(828.027344 0.015625)"/>
      <use xlink:href="#DejaVuSans-74" transform="translate(869.140625 0.015625)"/>
      <use xlink:href="#DejaVuSans-69" transform="translate(908.349609 0.015625)"/>
      <use xlink:href="#DejaVuSans-6f" transform="translate(936.132812 0.015625)"/>
      <use xlink:href="#DejaVuSans-6e" transform="translate(997.314453 0.015625)"/>
      <use xlink:href="#DejaVuSans-20" transform="translate(1060.693359 0.015625)"/>
      <use xlink:href="#DejaVuSans-Oblique-3b3" transform="translate(1092.480469 0.015625)"/>
      <use xlink:href="#DejaVuSans-Oblique-70" transform="translate(1151.660156 -16.390625) scale(0.7)"/>
      <use xlink:href="#DejaVuSans-Oblique-72" transform="translate(1196.09375 -16.390625) scale(0.7)"/>
      <use xlink:href="#DejaVuSans-Oblique-6f" transform="translate(1224.873047 -16.390625) scale(0.7)"/>
      <use xlink:href="#DejaVuSans-Oblique-70" transform="translate(1267.700195 -16.390625) scale(0.7)"/>
     </g>
    </g>
   </g>
   <g id="line2d_28">
    <path d="M 103.074841 32.744848 
L 107.323572 59.658535 
L 111.572303 82.629393 
L 115.821034 103.199973 
L 120.069765 122.512236 
L 124.318496 116.558496 
L 128.567226 111.537417 
L 132.815957 107.394928 
L 137.064688 73.593182 
L 141.313419 52.775126 
L 145.56215 41.961002 
L 149.810881 38.148488 
L 154.059612 27.007074 
L 158.308343 24.84 
L 162.557074 27.939285 
L 166.805805 37.794857 
L 171.054536 29.064144 
L 175.303267 88.318029 
L 179.551998 109.047007 
L 183.800729 134.496417 
L 188.04946 84.801977 
L 192.298191 59.160308 
L 196.546922 71.259576 
L 200.795653 97.277078 
L 205.044384 116.58129 
L 209.293115 151.62952 
L 213.541846 162.905817 
L 217.790577 176.741389 
L 222.039308 198.490182 
L 226.288039 215.491968 
L 230.53677 229.303177 
L 234.785501 237.842374 
L 239.034232 205.856019 
L 243.282963 213.907222 
L 247.531693 201.346591 
L 251.780424 250.279095 
L 256.029155 262.887786 
L 260.277886 264.481317 
L 264.526617 281.480576 
L 268.775348 274.200351 
L 273.024079 244.193576 
L 277.27281 256.613253 
L 281.521541 276.873744 
L 285.770272 232.624924 
L 290.019003 207.748744 
L 294.267734 218.042093 
L 298.516465 228.701045 
L 302.765196 229.274275 
L 307.013927 207.471326 
L 311.262658 192.155288 
L 315.511389 172.637724 
L 319.76012 213.631876 
L 324.008851 201.945417 
L 328.257582 199.851868 
L 332.506313 185.824229 
L 336.755044 195.120672 
L 341.003775 199.828274 
L 345.252506 182.136092 
L 349.501237 193.16799 
L 353.749968 222.143663 
L 357.998699 208.502312 
L 362.24743 186.149565 
L 366.49616 211.071611 
L 370.744891 191.856453 
L 374.993622 193.434593 
L 379.242353 178.494667 
L 383.491084 186.188158 
L 387.739815 190.174074 
L 391.988546 191.165386 
L 396.237277 195.312471 
L 400.486008 160.569032 
L 404.734739 188.324742 
L 408.98347 207.52094 
L 413.232201 203.010238 
L 417.480932 202.814147 
L 421.729663 197.626477 
L 425.978394 216.101135 
L 430.227125 198.14602 
L 434.475856 190.162919 
L 438.724587 207.602569 
L 442.973318 247.641424 
L 447.222049 187.240684 
L 451.47078 204.699895 
L 455.719511 184.052588 
L 464.216973 266.212461 
L 468.465704 187.397956 
L 472.714435 142.371885 
L 476.963166 224.998486 
L 481.211897 216.997337 
L 485.460627 218.054413 
L 489.709358 208.87837 
L 493.958089 199.395103 
L 498.20682 218.6028 
L 502.455551 205.242766 
L 506.704282 203.448383 
L 510.953013 225.302217 
L 515.201744 194.75976 
L 519.450475 174.193693 
L 527.947937 214.53783 
L 532.196668 262.643284 
L 536.445399 274.8361 
L 540.69413 210.434305 
L 544.942861 194.145378 
L 549.191592 176.757479 
L 553.440323 184.725924 
L 557.689054 189.868988 
L 561.937785 176.468781 
L 566.186516 167.908025 
L 570.435247 147.283868 
L 574.683978 179.982675 
L 578.932709 204.478698 
L 583.18144 216.095441 
L 591.678902 151.815214 
L 595.927633 121.444163 
L 600.176364 144.812586 
L 604.425095 166.814007 
L 608.673825 176.560346 
L 612.922556 196.066282 
L 617.171287 214.882169 
L 621.420018 234.287223 
L 625.668749 262.170109 
L 629.91748 229.001333 
L 634.166211 188.936896 
L 638.414942 208.625103 
L 642.663673 224.135655 
L 646.912404 267.976567 
L 651.161135 292.016381 
L 655.409866 320.926502 
L 659.658597 367.985842 
L 663.907328 352.4682 
L 668.156059 335.66302 
L 672.40479 377.64 
L 676.653521 362.990434 
L 676.653521 362.990434 
" clip-path="url(#pece0a06e6c)" style="fill: none; stroke: #800080; stroke-width: 4; stroke-linecap: square"/>
   </g>
   <g id="patch_9">
    <path d="M 103.074841 395.28 
L 103.074841 7.2 
" style="fill: none; stroke: #000000; stroke-width: 0.8; stroke-linejoin: miter; stroke-linecap: square"/>
   </g>
   <g id="patch_10">
    <path d="M 940.074841 395.28 
L 940.074841 7.2 
" style="fill: none; stroke: #000000; stroke-width: 0.8; stroke-linejoin: miter; stroke-linecap: square"/>
   </g>
   <g id="patch_11">
    <path d="M 103.074841 395.28 
L 940.074841 395.28 
" style="fill: none; stroke: #000000; stroke-width: 0.8; stroke-linejoin: miter; stroke-linecap: square"/>
   </g>
   <g id="patch_12">
    <path d="M 103.074841 7.2 
L 940.074841 7.2 
" style="fill: none; stroke: #000000; stroke-width: 0.8; stroke-linejoin: miter; stroke-linecap: square"/>
   </g>
   <g id="legend_2">
    <g id="patch_13">
     <path d="M 1111.474841 395.28 
L 1230.915466 395.28 
Q 1234.915466 395.28 1234.915466 391.28 
L 1234.915466 363.92375 
Q 1234.915466 359.92375 1230.915466 359.92375 
L 1111.474841 359.92375 
Q 1107.474841 359.92375 1107.474841 363.92375 
L 1107.474841 391.28 
Q 1107.474841 395.28 1111.474841 395.28 
z
" style="fill: #ffffff; opacity: 0.8; stroke: #cccccc; stroke-linejoin: miter"/>
    </g>
    <g id="line2d_29">
     <path d="M 1115.474841 376.120625 
L 1135.474841 376.120625 
L 1155.474841 376.120625 
" style="fill: none; stroke: #800080; stroke-width: 4; stroke-linecap: square"/>
    </g>
    <g id="text_30">
     <!-- BE.9* -->
     <g transform="translate(1171.474841 383.120625) scale(0.2 -0.2)">
      <use xlink:href="#DejaVuSans-42"/>
      <use xlink:href="#DejaVuSans-45" x="68.603516"/>
      <use xlink:href="#DejaVuSans-2e" x="131.787109"/>
      <use xlink:href="#DejaVuSans-39" x="163.574219"/>
      <use xlink:href="#DejaVuSans-2a" x="227.197266"/>
     </g>
    </g>
   </g>
  </g>
 </g>
 <defs>
  <clipPath id="pece0a06e6c">
   <rect x="103.074841" y="7.2" width="837" height="388.08"/>
  </clipPath>
 </defs>
</svg>
