<?xml version="1.0" encoding="utf-8" standalone="no"?>
<!DOCTYPE svg PUBLIC "-//W3C//DTD SVG 1.1//EN"
  "http://www.w3.org/Graphics/SVG/1.1/DTD/svg11.dtd">
<svg xmlns:xlink="http://www.w3.org/1999/xlink" width="1237.756091pt" height="505.354841pt" viewBox="0 0 1237.756091 505.354841" xmlns="http://www.w3.org/2000/svg" version="1.1">
 <metadata>
  <rdf:RDF xmlns:dc="http://purl.org/dc/elements/1.1/" xmlns:cc="http://creativecommons.org/ns#" xmlns:rdf="http://www.w3.org/1999/02/22-rdf-syntax-ns#">
   <cc:Work>
    <dc:type rdf:resource="http://purl.org/dc/dcmitype/StillImage"/>
    <dc:date>2024-01-23T16:11:39.692136</dc:date>
    <dc:format>image/svg+xml</dc:format>
    <dc:creator>
     <cc:Agent>
      <dc:title>Matplotlib v3.7.2, https://matplotlib.org/</dc:title>
     </cc:Agent>
    </dc:creator>
   </cc:Work>
  </rdf:RDF>
 </metadata>
 <defs>
  <style type="text/css">*{stroke-linejoin: round; stroke-linecap: butt}</style>
 </defs>
 <g id="figure_1">
  <g id="patch_1">
   <path d="M 0 505.354841 
L 1237.756091 505.354841 
L 1237.756091 -0 
L 0 -0 
z
" style="fill: #ffffff"/>
  </g>
  <g id="axes_1">
   <g id="patch_2">
    <path d="M 103.074841 395.28 
L 940.074841 395.28 
L 940.074841 7.2 
L 103.074841 7.2 
z
" style="fill: #ffffff"/>
   </g>
   <g id="PolyCollection_1">
    <defs>
     <path id="m501351baac" d="M 103.074841 -377.950093 
L 103.074841 -371.52319 
L 105.981091 -369.033975 
L 108.887341 -372.630693 
L 111.793591 -370.383004 
L 114.699841 -370.911413 
L 117.606091 -366.579577 
L 120.512341 -368.311706 
L 123.418591 -369.563296 
L 126.324841 -368.037192 
L 129.231091 -366.85715 
L 132.137341 -367.539562 
L 135.043591 -369.628132 
L 137.949841 -367.970668 
L 140.856091 -371.602202 
L 143.762341 -370.357054 
L 146.668591 -365.630557 
L 149.574841 -366.120312 
L 152.481091 -368.410506 
L 155.387341 -369.032965 
L 158.293591 -368.484433 
L 161.199841 -371.602482 
L 164.106091 -369.945069 
L 167.012341 -369.453502 
L 169.918591 -369.994866 
L 172.824841 -370.311583 
L 175.731091 -371.76574 
L 178.637341 -370.150971 
L 181.543591 -370.727327 
L 184.449841 -370.876576 
L 187.356091 -371.036557 
L 190.262341 -371.178104 
L 193.168591 -371.616409 
L 196.074841 -373.793836 
L 198.981091 -374.146757 
L 201.887341 -375.207192 
L 204.793591 -378.158202 
L 207.699841 -375.145525 
L 210.606091 -378.607406 
L 213.512341 -377.216958 
L 216.418591 -376.998674 
L 219.324841 -376.307034 
L 222.231091 -378.077531 
L 225.137341 -377.668835 
L 228.043591 -376.844068 
L 230.949841 -381.038492 
L 233.856091 -378.648161 
L 236.762341 -378.983655 
L 239.668591 -377.652159 
L 242.574841 -379.587817 
L 245.481091 -378.246451 
L 248.387341 -378.268688 
L 251.293591 -380.512604 
L 254.199841 -381.154748 
L 257.106091 -381.58598 
L 260.012341 -382.07121 
L 262.918591 -382.077432 
L 265.824841 -382.087006 
L 268.731091 -382.210514 
L 271.637341 -382.796695 
L 274.543591 -382.529991 
L 277.449841 -384.013589 
L 280.356091 -382.767764 
L 283.262341 -381.731274 
L 286.168591 -382.451218 
L 289.074841 -383.274726 
L 291.981091 -386.347143 
L 294.887341 -382.445323 
L 297.793591 -382.245529 
L 300.699841 -382.705602 
L 303.606091 -383.64585 
L 306.512341 -384.203567 
L 309.418591 -384.79936 
L 312.324841 -384.638218 
L 315.231091 -385.19916 
L 318.137341 -384.881893 
L 321.043591 -386.361162 
L 323.949841 -387.496425 
L 326.856091 -385.458259 
L 329.762341 -386.839477 
L 332.668591 -387.391804 
L 335.574841 -385.876528 
L 338.481091 -389.552221 
L 341.387341 -389.896679 
L 344.293591 -388.196847 
L 347.199841 -390.493994 
L 350.106091 -388.111168 
L 353.012341 -389.437307 
L 355.918591 -391.993051 
L 358.824841 -390.222291 
L 361.731091 -389.237178 
L 364.637341 -390.577074 
L 367.543591 -389.80916 
L 370.449841 -390.78739 
L 373.356091 -386.405488 
L 376.262341 -387.588227 
L 379.168591 -387.374404 
L 382.074841 -389.758582 
L 384.981091 -391.118175 
L 387.887341 -387.938139 
L 390.793591 -385.219067 
L 393.699841 -386.244247 
L 396.606091 -387.301994 
L 399.512341 -390.427818 
L 402.418591 -388.696225 
L 405.324841 -387.75981 
L 408.231091 -389.014813 
L 411.137341 -391.057073 
L 414.043591 -386.334571 
L 416.949841 -389.086866 
L 419.856091 -385.256554 
L 422.762341 -384.729843 
L 425.668591 -389.884649 
L 428.574841 -389.749 
L 431.481091 -392.42398 
L 434.387341 -388.603856 
L 437.293591 -385.6132 
L 440.199841 -380.36501 
L 443.106091 -378.358417 
L 446.012341 -378.22507 
L 448.918591 -372.358169 
L 451.824841 -362.654525 
L 454.731091 -375.098029 
L 457.637341 -378.810463 
L 460.543591 -376.364951 
L 463.449841 -372.353271 
L 466.356091 -371.065659 
L 469.262341 -374.219939 
L 472.168591 -365.457354 
L 475.074841 -362.378551 
L 477.981091 -368.898601 
L 480.887341 -362.244964 
L 483.793591 -364.225489 
L 486.699841 -365.01774 
L 489.606091 -358.541568 
L 492.512341 -357.552905 
L 495.418591 -353.50568 
L 498.324841 -356.272246 
L 501.231091 -360.197757 
L 504.137341 -354.577909 
L 507.043591 -354.458482 
L 509.949841 -348.229776 
L 512.856091 -351.150657 
L 515.762341 -343.646306 
L 518.668591 -347.281354 
L 521.574841 -344.451515 
L 524.481091 -344.789793 
L 527.387341 -340.112863 
L 530.293591 -347.536775 
L 533.199841 -339.203262 
L 536.106091 -336.713977 
L 539.012341 -331.709764 
L 541.918591 -331.06284 
L 544.824841 -326.745122 
L 547.731091 -329.122232 
L 550.637341 -324.977418 
L 553.543591 -317.411316 
L 556.449841 -320.73005 
L 559.356091 -325.866781 
L 562.262341 -321.379681 
L 565.168591 -317.390956 
L 568.074841 -323.270759 
L 570.981091 -325.484922 
L 573.887341 -313.156543 
L 576.793591 -306.673262 
L 579.699841 -320.761155 
L 582.606091 -315.52387 
L 585.512341 -313.371835 
L 588.418591 -312.740894 
L 591.324841 -305.409493 
L 594.231091 -306.652863 
L 597.137341 -310.525409 
L 600.043591 -305.231302 
L 602.949841 -303.147281 
L 605.856091 -310.469652 
L 608.762341 -309.270748 
L 611.668591 -310.262142 
L 614.574841 -292.816262 
L 617.481091 -282.991924 
L 620.387341 -284.594009 
L 623.293591 -296.501765 
L 626.199841 -298.672956 
L 629.106091 -296.663061 
L 632.012341 -298.106138 
L 634.918591 -283.75429 
L 637.824841 -295.99257 
L 640.731091 -285.295683 
L 643.637341 -275.276622 
L 646.543591 -283.119383 
L 649.449841 -266.250589 
L 652.356091 -278.057514 
L 655.262341 -268.548722 
L 658.168591 -273.690886 
L 661.074841 -267.410071 
L 663.981091 -260.734755 
L 666.887341 -263.14417 
L 669.793591 -258.932776 
L 672.699841 -257.795083 
L 675.606091 -253.480733 
L 678.512341 -274.605696 
L 681.418591 -245.991581 
L 684.324841 -234.80308 
L 687.231091 -245.835935 
L 690.137341 -240.789544 
L 693.043591 -231.379366 
L 695.949841 -242.441755 
L 698.856091 -229.84944 
L 701.762341 -221.277195 
L 704.668591 -222.685683 
L 707.574841 -219.144901 
L 710.481091 -217.383591 
L 713.387341 -213.758738 
L 716.293591 -217.255433 
L 719.199841 -205.04859 
L 722.106091 -201.531196 
L 725.012341 -197.771139 
L 727.918591 -202.37105 
L 730.824841 -211.563831 
L 733.731091 -193.738348 
L 736.637341 -181.278116 
L 739.543591 -192.736804 
L 742.449841 -191.217728 
L 745.356091 -172.485853 
L 748.262341 -209.347762 
L 751.168591 -176.179071 
L 754.074841 -197.819193 
L 756.981091 -163.055075 
L 759.887341 -177.544097 
L 762.793591 -163.359834 
L 765.699841 -162.675143 
L 768.606091 -157.110471 
L 771.512341 -156.113675 
L 774.418591 -162.015265 
L 777.324841 -163.69607 
L 780.231091 -150.912504 
L 783.137341 -145.045537 
L 786.043591 -146.043586 
L 788.949841 -143.969435 
L 791.856091 -138.26275 
L 794.762341 -138.395504 
L 797.668591 -144.543886 
L 800.574841 -146.822848 
L 803.481091 -128.299505 
L 806.387341 -129.510563 
L 809.293591 -126.890795 
L 812.199841 -131.820205 
L 815.106091 -153.234647 
L 818.012341 -129.038691 
L 820.918591 -137.721992 
L 823.824841 -132.162341 
L 826.731091 -127.556191 
L 829.637341 -136.897414 
L 832.543591 -124.075704 
L 835.449841 -133.510306 
L 838.356091 -131.38457 
L 841.262341 -135.042701 
L 844.168591 -127.071519 
L 847.074841 -127.979763 
L 849.981091 -128.544005 
L 852.887341 -136.921467 
L 855.793591 -132.114577 
L 858.699841 -132.177456 
L 861.606091 -132.221019 
L 864.512341 -129.435583 
L 867.418591 -133.076065 
L 870.324841 -129.544389 
L 873.231091 -125.928702 
L 876.137341 -127.191016 
L 879.043591 -131.487314 
L 881.949841 -134.232406 
L 884.856091 -131.163229 
L 887.762341 -131.737925 
L 890.668591 -131.063811 
L 893.574841 -141.60279 
L 896.481091 -132.679588 
L 899.387341 -181.129213 
L 902.293591 -146.414866 
L 905.199841 -131.854049 
L 908.106091 -135.762401 
L 911.012341 -145.663843 
L 913.918591 -133.367794 
L 916.824841 -135.09299 
L 919.731091 -137.216624 
L 922.637341 -138.871387 
L 925.543591 -140.097172 
L 928.449841 -139.969306 
L 931.356091 -138.716802 
L 934.262341 -143.435845 
L 937.168591 -140.481758 
L 940.074841 -143.107152 
L 940.074841 -305.454406 
L 940.074841 -305.454406 
L 937.168591 -303.210231 
L 934.262341 -305.67544 
L 931.356091 -302.218207 
L 928.449841 -302.35895 
L 925.543591 -301.787298 
L 922.637341 -299.946779 
L 919.731091 -297.197073 
L 916.824841 -296.473976 
L 913.918591 -295.480632 
L 911.012341 -295.874149 
L 908.106091 -294.105083 
L 905.199841 -290.87947 
L 902.293591 -292.268624 
L 899.387341 -297.417772 
L 896.481091 -288.114401 
L 893.574841 -289.041484 
L 890.668591 -286.034555 
L 887.762341 -285.139736 
L 884.856091 -283.834567 
L 881.949841 -282.95222 
L 879.043591 -280.534794 
L 876.137341 -279.125046 
L 873.231091 -277.547762 
L 870.324841 -276.970641 
L 867.418591 -276.696365 
L 864.512341 -275.464761 
L 861.606091 -275.516536 
L 858.699841 -274.263864 
L 855.793591 -273.05634 
L 852.887341 -273.63636 
L 849.981091 -270.219194 
L 847.074841 -268.727643 
L 844.168591 -267.053234 
L 841.262341 -269.436875 
L 838.356091 -266.996746 
L 835.449841 -266.568525 
L 832.543591 -263.020949 
L 829.637341 -266.178036 
L 826.731091 -262.426767 
L 823.824841 -263.219057 
L 820.918591 -263.96889 
L 818.012341 -260.571355 
L 815.106091 -267.122419 
L 812.199841 -260.153705 
L 809.293591 -257.393747 
L 806.387341 -257.435894 
L 803.481091 -256.567319 
L 800.574841 -261.290878 
L 797.668591 -260.440374 
L 794.762341 -257.730243 
L 791.856091 -257.062029 
L 788.949841 -258.736806 
L 786.043591 -259.049037 
L 783.137341 -257.615839 
L 780.231091 -260.389079 
L 777.324841 -263.924029 
L 774.418591 -262.720931 
L 771.512341 -260.114856 
L 768.606091 -259.862624 
L 765.699841 -262.171723 
L 762.793591 -262.098357 
L 759.887341 -266.803363 
L 756.981091 -261.478755 
L 754.074841 -272.185062 
L 751.168591 -264.897692 
L 748.262341 -277.189885 
L 745.356091 -263.575677 
L 742.449841 -270.550238 
L 739.543591 -271.414207 
L 736.637341 -265.614148 
L 733.731091 -270.845528 
L 730.824841 -277.407088 
L 727.918591 -273.39399 
L 725.012341 -272.006233 
L 722.106091 -273.283797 
L 719.199841 -273.830974 
L 716.293591 -276.092064 
L 713.387341 -277.877344 
L 710.481091 -279.719185 
L 707.574841 -280.074281 
L 704.668591 -281.185134 
L 701.762341 -280.588244 
L 698.856091 -283.737268 
L 695.949841 -288.894813 
L 693.043591 -285.904482 
L 690.137341 -288.124467 
L 687.231091 -291.361501 
L 684.324841 -286.272129 
L 681.418591 -291.278937 
L 678.512341 -303.2414 
L 675.606091 -294.328059 
L 672.699841 -295.665066 
L 669.793591 -296.584715 
L 666.887341 -298.318371 
L 663.981091 -297.489414 
L 661.074841 -300.603405 
L 658.168591 -303.804487 
L 655.262341 -301.402874 
L 652.356091 -305.029603 
L 649.449841 -300.354702 
L 646.543591 -307.943127 
L 643.637341 -303.780193 
L 640.731091 -309.007873 
L 637.824841 -314.72124 
L 634.918591 -308.649645 
L 632.012341 -315.728227 
L 629.106091 -315.110927 
L 626.199841 -316.771524 
L 623.293591 -315.739108 
L 620.387341 -309.13386 
L 617.481091 -309.125089 
L 614.574841 -314.256862 
L 611.668591 -323.05219 
L 608.762341 -322.521107 
L 605.856091 -324.466099 
L 602.949841 -320.357601 
L 600.043591 -321.309502 
L 597.137341 -324.420163 
L 594.231091 -322.957272 
L 591.324841 -321.30382 
L 588.418591 -325.86046 
L 585.512341 -327.307089 
L 582.606091 -328.465278 
L 579.699841 -332.547989 
L 576.793591 -324.206941 
L 573.887341 -327.066427 
L 570.981091 -336.583499 
L 568.074841 -336.084694 
L 565.168591 -331.158148 
L 562.262341 -333.949497 
L 559.356091 -337.49673 
L 556.449841 -335.059033 
L 553.543591 -333.858341 
L 550.637341 -337.062656 
L 547.731091 -341.384078 
L 544.824841 -339.973267 
L 541.918591 -340.671419 
L 539.012341 -343.773688 
L 536.106091 -347.249968 
L 533.199841 -349.909964 
L 530.293591 -357.044837 
L 527.387341 -350.412163 
L 524.481091 -354.527189 
L 521.574841 -354.491196 
L 518.668591 -358.46297 
L 515.762341 -353.849456 
L 512.856091 -360.119292 
L 509.949841 -359.130052 
L 507.043591 -364.083849 
L 504.137341 -364.64301 
L 501.231091 -369.98678 
L 498.324841 -364.515219 
L 495.418591 -363.034374 
L 492.512341 -368.729357 
L 489.606091 -368.727451 
L 486.699841 -375.128389 
L 483.793591 -375.160403 
L 480.887341 -371.72383 
L 477.981091 -378.405414 
L 475.074841 -370.512219 
L 472.168591 -375.213544 
L 469.262341 -382.911316 
L 466.356091 -380.471689 
L 463.449841 -381.59457 
L 460.543591 -385.139363 
L 457.637341 -388.075274 
L 454.731091 -384.312209 
L 451.824841 -373.69148 
L 448.918591 -383.171924 
L 446.012341 -387.890717 
L 443.106091 -387.868277 
L 440.199841 -389.246286 
L 437.293591 -394.977608 
L 434.387341 -397.989554 
L 431.481091 -400.536737 
L 428.574841 -399.19326 
L 425.668591 -399.47567 
L 422.762341 -393.892497 
L 419.856091 -394.385119 
L 416.949841 -398.240373 
L 414.043591 -396.00578 
L 411.137341 -400.388982 
L 408.231091 -399.025812 
L 405.324841 -397.058105 
L 402.418591 -399.158808 
L 399.512341 -399.959907 
L 396.606091 -397.513925 
L 393.699841 -396.254057 
L 390.793591 -394.601609 
L 387.887341 -398.242436 
L 384.981091 -401.746597 
L 382.074841 -400.318764 
L 379.168591 -397.297822 
L 376.262341 -397.848918 
L 373.356091 -397.070157 
L 370.449841 -402.269879 
L 367.543591 -401.442389 
L 364.637341 -402.277016 
L 361.731091 -400.471688 
L 358.824841 -401.511329 
L 355.918591 -404.092978 
L 353.012341 -401.758903 
L 350.106091 -399.84784 
L 347.199841 -402.492564 
L 344.293591 -400.144088 
L 341.387341 -401.410476 
L 338.481091 -401.981949 
L 335.574841 -397.637157 
L 332.668591 -399.338936 
L 329.762341 -398.944399 
L 326.856091 -397.16817 
L 323.949841 -399.517575 
L 321.043591 -397.79806 
L 318.137341 -396.224645 
L 315.231091 -396.440665 
L 312.324841 -395.779739 
L 309.418591 -395.926067 
L 306.512341 -395.018743 
L 303.606091 -394.054615 
L 300.699841 -392.679766 
L 297.793591 -392.01897 
L 294.887341 -392.013728 
L 291.981091 -396.992175 
L 289.074841 -393.017809 
L 286.168591 -392.099252 
L 283.262341 -391.288945 
L 280.356091 -392.598027 
L 277.449841 -393.8713 
L 274.543591 -391.958491 
L 271.637341 -392.227368 
L 268.731091 -391.355671 
L 265.824841 -391.219374 
L 262.918591 -391.373479 
L 260.012341 -391.426534 
L 257.106091 -390.65366 
L 254.199841 -390.073676 
L 251.293591 -389.47135 
L 248.387341 -386.825496 
L 245.481091 -386.848274 
L 242.574841 -388.75716 
L 239.668591 -386.801943 
L 236.762341 -388.766698 
L 233.856091 -388.479353 
L 230.949841 -391.783254 
L 228.043591 -386.896911 
L 225.137341 -388.231388 
L 222.231091 -388.759383 
L 219.324841 -387.351954 
L 216.418591 -388.339505 
L 213.512341 -388.790448 
L 210.606091 -391.258527 
L 207.699841 -387.737631 
L 204.793591 -390.757896 
L 201.887341 -387.784611 
L 198.981091 -386.656308 
L 196.074841 -386.425352 
L 193.168591 -384.071092 
L 190.262341 -383.313893 
L 187.356091 -384.019371 
L 184.449841 -383.625511 
L 181.543591 -384.071788 
L 178.637341 -383.374779 
L 175.731091 -385.54146 
L 172.824841 -383.546674 
L 169.918591 -382.733997 
L 167.012341 -382.512667 
L 164.106091 -383.014122 
L 161.199841 -384.315634 
L 158.293591 -381.28917 
L 155.387341 -381.613994 
L 152.481091 -380.20487 
L 149.574841 -378.184361 
L 146.668591 -377.917735 
L 143.762341 -381.969765 
L 140.856091 -382.322072 
L 137.949841 -378.973501 
L 135.043591 -379.716724 
L 132.137341 -377.994197 
L 129.231091 -377.359379 
L 126.324841 -377.962004 
L 123.418591 -378.031999 
L 120.512341 -377.309957 
L 117.606091 -375.809874 
L 114.699841 -379.638931 
L 111.793591 -378.607531 
L 108.887341 -379.997919 
L 105.981091 -377.227162 
L 103.074841 -377.950093 
z
" style="stroke: #008000; stroke-opacity: 0.3"/>
    </defs>
    <g clip-path="url(#p2a4a261943)">
     <use xlink:href="#m501351baac" x="0" y="505.354841" style="fill: #008000; fill-opacity: 0.3; stroke: #008000; stroke-opacity: 0.3"/>
    </g>
   </g>
   <g id="matplotlib.axis_1">
    <g id="xtick_1">
     <g id="line2d_1">
      <defs>
       <path id="md4c0cf4a02" d="M 0 0 
L 0 3.5 
" style="stroke: #000000; stroke-width: 0.8"/>
      </defs>
      <g>
       <use xlink:href="#md4c0cf4a02" x="103.074841" y="395.28" style="stroke: #000000; stroke-width: 0.8"/>
      </g>
     </g>
     <g id="text_1">
      <!-- 2022-07-01 -->
      <g transform="translate(17.945813 495.213718) rotate(-45) scale(0.2 -0.2)">
       <defs>
        <path id="DejaVuSans-32" d="M 1228 531 
L 3431 531 
L 3431 0 
L 469 0 
L 469 531 
Q 828 903 1448 1529 
Q 2069 2156 2228 2338 
Q 2531 2678 2651 2914 
Q 2772 3150 2772 3378 
Q 2772 3750 2511 3984 
Q 2250 4219 1831 4219 
Q 1534 4219 1204 4116 
Q 875 4013 500 3803 
L 500 4441 
Q 881 4594 1212 4672 
Q 1544 4750 1819 4750 
Q 2544 4750 2975 4387 
Q 3406 4025 3406 3419 
Q 3406 3131 3298 2873 
Q 3191 2616 2906 2266 
Q 2828 2175 2409 1742 
Q 1991 1309 1228 531 
z
" transform="scale(0.015625)"/>
        <path id="DejaVuSans-30" d="M 2034 4250 
Q 1547 4250 1301 3770 
Q 1056 3291 1056 2328 
Q 1056 1369 1301 889 
Q 1547 409 2034 409 
Q 2525 409 2770 889 
Q 3016 1369 3016 2328 
Q 3016 3291 2770 3770 
Q 2525 4250 2034 4250 
z
M 2034 4750 
Q 2819 4750 3233 4129 
Q 3647 3509 3647 2328 
Q 3647 1150 3233 529 
Q 2819 -91 2034 -91 
Q 1250 -91 836 529 
Q 422 1150 422 2328 
Q 422 3509 836 4129 
Q 1250 4750 2034 4750 
z
" transform="scale(0.015625)"/>
        <path id="DejaVuSans-2d" d="M 313 2009 
L 1997 2009 
L 1997 1497 
L 313 1497 
L 313 2009 
z
" transform="scale(0.015625)"/>
        <path id="DejaVuSans-37" d="M 525 4666 
L 3525 4666 
L 3525 4397 
L 1831 0 
L 1172 0 
L 2766 4134 
L 525 4134 
L 525 4666 
z
" transform="scale(0.015625)"/>
        <path id="DejaVuSans-31" d="M 794 531 
L 1825 531 
L 1825 4091 
L 703 3866 
L 703 4441 
L 1819 4666 
L 2450 4666 
L 2450 531 
L 3481 531 
L 3481 0 
L 794 0 
L 794 531 
z
" transform="scale(0.015625)"/>
       </defs>
       <use xlink:href="#DejaVuSans-32"/>
       <use xlink:href="#DejaVuSans-30" x="63.623047"/>
       <use xlink:href="#DejaVuSans-32" x="127.246094"/>
       <use xlink:href="#DejaVuSans-32" x="190.869141"/>
       <use xlink:href="#DejaVuSans-2d" x="254.492188"/>
       <use xlink:href="#DejaVuSans-30" x="290.576172"/>
       <use xlink:href="#DejaVuSans-37" x="354.199219"/>
       <use xlink:href="#DejaVuSans-2d" x="417.822266"/>
       <use xlink:href="#DejaVuSans-30" x="453.90625"/>
       <use xlink:href="#DejaVuSans-31" x="517.529297"/>
      </g>
     </g>
    </g>
    <g id="xtick_2">
     <g id="line2d_2">
      <g>
       <use xlink:href="#md4c0cf4a02" x="143.762341" y="395.28" style="stroke: #000000; stroke-width: 0.8"/>
      </g>
     </g>
     <g id="text_2">
      <!-- 2022-07-15 -->
      <g transform="translate(58.633313 495.213718) rotate(-45) scale(0.2 -0.2)">
       <defs>
        <path id="DejaVuSans-35" d="M 691 4666 
L 3169 4666 
L 3169 4134 
L 1269 4134 
L 1269 2991 
Q 1406 3038 1543 3061 
Q 1681 3084 1819 3084 
Q 2600 3084 3056 2656 
Q 3513 2228 3513 1497 
Q 3513 744 3044 326 
Q 2575 -91 1722 -91 
Q 1428 -91 1123 -41 
Q 819 9 494 109 
L 494 744 
Q 775 591 1075 516 
Q 1375 441 1709 441 
Q 2250 441 2565 725 
Q 2881 1009 2881 1497 
Q 2881 1984 2565 2268 
Q 2250 2553 1709 2553 
Q 1456 2553 1204 2497 
Q 953 2441 691 2322 
L 691 4666 
z
" transform="scale(0.015625)"/>
       </defs>
       <use xlink:href="#DejaVuSans-32"/>
       <use xlink:href="#DejaVuSans-30" x="63.623047"/>
       <use xlink:href="#DejaVuSans-32" x="127.246094"/>
       <use xlink:href="#DejaVuSans-32" x="190.869141"/>
       <use xlink:href="#DejaVuSans-2d" x="254.492188"/>
       <use xlink:href="#DejaVuSans-30" x="290.576172"/>
       <use xlink:href="#DejaVuSans-37" x="354.199219"/>
       <use xlink:href="#DejaVuSans-2d" x="417.822266"/>
       <use xlink:href="#DejaVuSans-31" x="453.90625"/>
       <use xlink:href="#DejaVuSans-35" x="517.529297"/>
      </g>
     </g>
    </g>
    <g id="xtick_3">
     <g id="line2d_3">
      <g>
       <use xlink:href="#md4c0cf4a02" x="184.449841" y="395.28" style="stroke: #000000; stroke-width: 0.8"/>
      </g>
     </g>
     <g id="text_3">
      <!-- 2022-07-29 -->
      <g transform="translate(99.320813 495.213718) rotate(-45) scale(0.2 -0.2)">
       <defs>
        <path id="DejaVuSans-39" d="M 703 97 
L 703 672 
Q 941 559 1184 500 
Q 1428 441 1663 441 
Q 2288 441 2617 861 
Q 2947 1281 2994 2138 
Q 2813 1869 2534 1725 
Q 2256 1581 1919 1581 
Q 1219 1581 811 2004 
Q 403 2428 403 3163 
Q 403 3881 828 4315 
Q 1253 4750 1959 4750 
Q 2769 4750 3195 4129 
Q 3622 3509 3622 2328 
Q 3622 1225 3098 567 
Q 2575 -91 1691 -91 
Q 1453 -91 1209 -44 
Q 966 3 703 97 
z
M 1959 2075 
Q 2384 2075 2632 2365 
Q 2881 2656 2881 3163 
Q 2881 3666 2632 3958 
Q 2384 4250 1959 4250 
Q 1534 4250 1286 3958 
Q 1038 3666 1038 3163 
Q 1038 2656 1286 2365 
Q 1534 2075 1959 2075 
z
" transform="scale(0.015625)"/>
       </defs>
       <use xlink:href="#DejaVuSans-32"/>
       <use xlink:href="#DejaVuSans-30" x="63.623047"/>
       <use xlink:href="#DejaVuSans-32" x="127.246094"/>
       <use xlink:href="#DejaVuSans-32" x="190.869141"/>
       <use xlink:href="#DejaVuSans-2d" x="254.492188"/>
       <use xlink:href="#DejaVuSans-30" x="290.576172"/>
       <use xlink:href="#DejaVuSans-37" x="354.199219"/>
       <use xlink:href="#DejaVuSans-2d" x="417.822266"/>
       <use xlink:href="#DejaVuSans-32" x="453.90625"/>
       <use xlink:href="#DejaVuSans-39" x="517.529297"/>
      </g>
     </g>
    </g>
    <g id="xtick_4">
     <g id="line2d_4">
      <g>
       <use xlink:href="#md4c0cf4a02" x="225.137341" y="395.28" style="stroke: #000000; stroke-width: 0.8"/>
      </g>
     </g>
     <g id="text_4">
      <!-- 2022-08-12 -->
      <g transform="translate(140.008313 495.213718) rotate(-45) scale(0.2 -0.2)">
       <defs>
        <path id="DejaVuSans-38" d="M 2034 2216 
Q 1584 2216 1326 1975 
Q 1069 1734 1069 1313 
Q 1069 891 1326 650 
Q 1584 409 2034 409 
Q 2484 409 2743 651 
Q 3003 894 3003 1313 
Q 3003 1734 2745 1975 
Q 2488 2216 2034 2216 
z
M 1403 2484 
Q 997 2584 770 2862 
Q 544 3141 544 3541 
Q 544 4100 942 4425 
Q 1341 4750 2034 4750 
Q 2731 4750 3128 4425 
Q 3525 4100 3525 3541 
Q 3525 3141 3298 2862 
Q 3072 2584 2669 2484 
Q 3125 2378 3379 2068 
Q 3634 1759 3634 1313 
Q 3634 634 3220 271 
Q 2806 -91 2034 -91 
Q 1263 -91 848 271 
Q 434 634 434 1313 
Q 434 1759 690 2068 
Q 947 2378 1403 2484 
z
M 1172 3481 
Q 1172 3119 1398 2916 
Q 1625 2713 2034 2713 
Q 2441 2713 2670 2916 
Q 2900 3119 2900 3481 
Q 2900 3844 2670 4047 
Q 2441 4250 2034 4250 
Q 1625 4250 1398 4047 
Q 1172 3844 1172 3481 
z
" transform="scale(0.015625)"/>
       </defs>
       <use xlink:href="#DejaVuSans-32"/>
       <use xlink:href="#DejaVuSans-30" x="63.623047"/>
       <use xlink:href="#DejaVuSans-32" x="127.246094"/>
       <use xlink:href="#DejaVuSans-32" x="190.869141"/>
       <use xlink:href="#DejaVuSans-2d" x="254.492188"/>
       <use xlink:href="#DejaVuSans-30" x="290.576172"/>
       <use xlink:href="#DejaVuSans-38" x="354.199219"/>
       <use xlink:href="#DejaVuSans-2d" x="417.822266"/>
       <use xlink:href="#DejaVuSans-31" x="453.90625"/>
       <use xlink:href="#DejaVuSans-32" x="517.529297"/>
      </g>
     </g>
    </g>
    <g id="xtick_5">
     <g id="line2d_5">
      <g>
       <use xlink:href="#md4c0cf4a02" x="265.824841" y="395.28" style="stroke: #000000; stroke-width: 0.8"/>
      </g>
     </g>
     <g id="text_5">
      <!-- 2022-08-26 -->
      <g transform="translate(180.695813 495.213718) rotate(-45) scale(0.2 -0.2)">
       <defs>
        <path id="DejaVuSans-36" d="M 2113 2584 
Q 1688 2584 1439 2293 
Q 1191 2003 1191 1497 
Q 1191 994 1439 701 
Q 1688 409 2113 409 
Q 2538 409 2786 701 
Q 3034 994 3034 1497 
Q 3034 2003 2786 2293 
Q 2538 2584 2113 2584 
z
M 3366 4563 
L 3366 3988 
Q 3128 4100 2886 4159 
Q 2644 4219 2406 4219 
Q 1781 4219 1451 3797 
Q 1122 3375 1075 2522 
Q 1259 2794 1537 2939 
Q 1816 3084 2150 3084 
Q 2853 3084 3261 2657 
Q 3669 2231 3669 1497 
Q 3669 778 3244 343 
Q 2819 -91 2113 -91 
Q 1303 -91 875 529 
Q 447 1150 447 2328 
Q 447 3434 972 4092 
Q 1497 4750 2381 4750 
Q 2619 4750 2861 4703 
Q 3103 4656 3366 4563 
z
" transform="scale(0.015625)"/>
       </defs>
       <use xlink:href="#DejaVuSans-32"/>
       <use xlink:href="#DejaVuSans-30" x="63.623047"/>
       <use xlink:href="#DejaVuSans-32" x="127.246094"/>
       <use xlink:href="#DejaVuSans-32" x="190.869141"/>
       <use xlink:href="#DejaVuSans-2d" x="254.492188"/>
       <use xlink:href="#DejaVuSans-30" x="290.576172"/>
       <use xlink:href="#DejaVuSans-38" x="354.199219"/>
       <use xlink:href="#DejaVuSans-2d" x="417.822266"/>
       <use xlink:href="#DejaVuSans-32" x="453.90625"/>
       <use xlink:href="#DejaVuSans-36" x="517.529297"/>
      </g>
     </g>
    </g>
    <g id="xtick_6">
     <g id="line2d_6">
      <g>
       <use xlink:href="#md4c0cf4a02" x="306.512341" y="395.28" style="stroke: #000000; stroke-width: 0.8"/>
      </g>
     </g>
     <g id="text_6">
      <!-- 2022-09-09 -->
      <g transform="translate(221.383313 495.213718) rotate(-45) scale(0.2 -0.2)">
       <use xlink:href="#DejaVuSans-32"/>
       <use xlink:href="#DejaVuSans-30" x="63.623047"/>
       <use xlink:href="#DejaVuSans-32" x="127.246094"/>
       <use xlink:href="#DejaVuSans-32" x="190.869141"/>
       <use xlink:href="#DejaVuSans-2d" x="254.492188"/>
       <use xlink:href="#DejaVuSans-30" x="290.576172"/>
       <use xlink:href="#DejaVuSans-39" x="354.199219"/>
       <use xlink:href="#DejaVuSans-2d" x="417.822266"/>
       <use xlink:href="#DejaVuSans-30" x="453.90625"/>
       <use xlink:href="#DejaVuSans-39" x="517.529297"/>
      </g>
     </g>
    </g>
    <g id="xtick_7">
     <g id="line2d_7">
      <g>
       <use xlink:href="#md4c0cf4a02" x="347.199841" y="395.28" style="stroke: #000000; stroke-width: 0.8"/>
      </g>
     </g>
     <g id="text_7">
      <!-- 2022-09-23 -->
      <g transform="translate(262.070813 495.213718) rotate(-45) scale(0.2 -0.2)">
       <defs>
        <path id="DejaVuSans-33" d="M 2597 2516 
Q 3050 2419 3304 2112 
Q 3559 1806 3559 1356 
Q 3559 666 3084 287 
Q 2609 -91 1734 -91 
Q 1441 -91 1130 -33 
Q 819 25 488 141 
L 488 750 
Q 750 597 1062 519 
Q 1375 441 1716 441 
Q 2309 441 2620 675 
Q 2931 909 2931 1356 
Q 2931 1769 2642 2001 
Q 2353 2234 1838 2234 
L 1294 2234 
L 1294 2753 
L 1863 2753 
Q 2328 2753 2575 2939 
Q 2822 3125 2822 3475 
Q 2822 3834 2567 4026 
Q 2313 4219 1838 4219 
Q 1578 4219 1281 4162 
Q 984 4106 628 3988 
L 628 4550 
Q 988 4650 1302 4700 
Q 1616 4750 1894 4750 
Q 2613 4750 3031 4423 
Q 3450 4097 3450 3541 
Q 3450 3153 3228 2886 
Q 3006 2619 2597 2516 
z
" transform="scale(0.015625)"/>
       </defs>
       <use xlink:href="#DejaVuSans-32"/>
       <use xlink:href="#DejaVuSans-30" x="63.623047"/>
       <use xlink:href="#DejaVuSans-32" x="127.246094"/>
       <use xlink:href="#DejaVuSans-32" x="190.869141"/>
       <use xlink:href="#DejaVuSans-2d" x="254.492188"/>
       <use xlink:href="#DejaVuSans-30" x="290.576172"/>
       <use xlink:href="#DejaVuSans-39" x="354.199219"/>
       <use xlink:href="#DejaVuSans-2d" x="417.822266"/>
       <use xlink:href="#DejaVuSans-32" x="453.90625"/>
       <use xlink:href="#DejaVuSans-33" x="517.529297"/>
      </g>
     </g>
    </g>
    <g id="xtick_8">
     <g id="line2d_8">
      <g>
       <use xlink:href="#md4c0cf4a02" x="387.887341" y="395.28" style="stroke: #000000; stroke-width: 0.8"/>
      </g>
     </g>
     <g id="text_8">
      <!-- 2022-10-07 -->
      <g transform="translate(302.758313 495.213718) rotate(-45) scale(0.2 -0.2)">
       <use xlink:href="#DejaVuSans-32"/>
       <use xlink:href="#DejaVuSans-30" x="63.623047"/>
       <use xlink:href="#DejaVuSans-32" x="127.246094"/>
       <use xlink:href="#DejaVuSans-32" x="190.869141"/>
       <use xlink:href="#DejaVuSans-2d" x="254.492188"/>
       <use xlink:href="#DejaVuSans-31" x="290.576172"/>
       <use xlink:href="#DejaVuSans-30" x="354.199219"/>
       <use xlink:href="#DejaVuSans-2d" x="417.822266"/>
       <use xlink:href="#DejaVuSans-30" x="453.90625"/>
       <use xlink:href="#DejaVuSans-37" x="517.529297"/>
      </g>
     </g>
    </g>
    <g id="xtick_9">
     <g id="line2d_9">
      <g>
       <use xlink:href="#md4c0cf4a02" x="428.574841" y="395.28" style="stroke: #000000; stroke-width: 0.8"/>
      </g>
     </g>
     <g id="text_9">
      <!-- 2022-10-21 -->
      <g transform="translate(343.445813 495.213718) rotate(-45) scale(0.2 -0.2)">
       <use xlink:href="#DejaVuSans-32"/>
       <use xlink:href="#DejaVuSans-30" x="63.623047"/>
       <use xlink:href="#DejaVuSans-32" x="127.246094"/>
       <use xlink:href="#DejaVuSans-32" x="190.869141"/>
       <use xlink:href="#DejaVuSans-2d" x="254.492188"/>
       <use xlink:href="#DejaVuSans-31" x="290.576172"/>
       <use xlink:href="#DejaVuSans-30" x="354.199219"/>
       <use xlink:href="#DejaVuSans-2d" x="417.822266"/>
       <use xlink:href="#DejaVuSans-32" x="453.90625"/>
       <use xlink:href="#DejaVuSans-31" x="517.529297"/>
      </g>
     </g>
    </g>
    <g id="xtick_10">
     <g id="line2d_10">
      <g>
       <use xlink:href="#md4c0cf4a02" x="469.262341" y="395.28" style="stroke: #000000; stroke-width: 0.8"/>
      </g>
     </g>
     <g id="text_10">
      <!-- 2022-11-04 -->
      <g transform="translate(384.133313 495.213718) rotate(-45) scale(0.2 -0.2)">
       <defs>
        <path id="DejaVuSans-34" d="M 2419 4116 
L 825 1625 
L 2419 1625 
L 2419 4116 
z
M 2253 4666 
L 3047 4666 
L 3047 1625 
L 3713 1625 
L 3713 1100 
L 3047 1100 
L 3047 0 
L 2419 0 
L 2419 1100 
L 313 1100 
L 313 1709 
L 2253 4666 
z
" transform="scale(0.015625)"/>
       </defs>
       <use xlink:href="#DejaVuSans-32"/>
       <use xlink:href="#DejaVuSans-30" x="63.623047"/>
       <use xlink:href="#DejaVuSans-32" x="127.246094"/>
       <use xlink:href="#DejaVuSans-32" x="190.869141"/>
       <use xlink:href="#DejaVuSans-2d" x="254.492188"/>
       <use xlink:href="#DejaVuSans-31" x="290.576172"/>
       <use xlink:href="#DejaVuSans-31" x="354.199219"/>
       <use xlink:href="#DejaVuSans-2d" x="417.822266"/>
       <use xlink:href="#DejaVuSans-30" x="453.90625"/>
       <use xlink:href="#DejaVuSans-34" x="517.529297"/>
      </g>
     </g>
    </g>
    <g id="xtick_11">
     <g id="line2d_11">
      <g>
       <use xlink:href="#md4c0cf4a02" x="509.949841" y="395.28" style="stroke: #000000; stroke-width: 0.8"/>
      </g>
     </g>
     <g id="text_11">
      <!-- 2022-11-18 -->
      <g transform="translate(424.820813 495.213718) rotate(-45) scale(0.2 -0.2)">
       <use xlink:href="#DejaVuSans-32"/>
       <use xlink:href="#DejaVuSans-30" x="63.623047"/>
       <use xlink:href="#DejaVuSans-32" x="127.246094"/>
       <use xlink:href="#DejaVuSans-32" x="190.869141"/>
       <use xlink:href="#DejaVuSans-2d" x="254.492188"/>
       <use xlink:href="#DejaVuSans-31" x="290.576172"/>
       <use xlink:href="#DejaVuSans-31" x="354.199219"/>
       <use xlink:href="#DejaVuSans-2d" x="417.822266"/>
       <use xlink:href="#DejaVuSans-31" x="453.90625"/>
       <use xlink:href="#DejaVuSans-38" x="517.529297"/>
      </g>
     </g>
    </g>
    <g id="xtick_12">
     <g id="line2d_12">
      <g>
       <use xlink:href="#md4c0cf4a02" x="550.637341" y="395.28" style="stroke: #000000; stroke-width: 0.8"/>
      </g>
     </g>
     <g id="text_12">
      <!-- 2022-12-02 -->
      <g transform="translate(465.508313 495.213718) rotate(-45) scale(0.2 -0.2)">
       <use xlink:href="#DejaVuSans-32"/>
       <use xlink:href="#DejaVuSans-30" x="63.623047"/>
       <use xlink:href="#DejaVuSans-32" x="127.246094"/>
       <use xlink:href="#DejaVuSans-32" x="190.869141"/>
       <use xlink:href="#DejaVuSans-2d" x="254.492188"/>
       <use xlink:href="#DejaVuSans-31" x="290.576172"/>
       <use xlink:href="#DejaVuSans-32" x="354.199219"/>
       <use xlink:href="#DejaVuSans-2d" x="417.822266"/>
       <use xlink:href="#DejaVuSans-30" x="453.90625"/>
       <use xlink:href="#DejaVuSans-32" x="517.529297"/>
      </g>
     </g>
    </g>
    <g id="xtick_13">
     <g id="line2d_13">
      <g>
       <use xlink:href="#md4c0cf4a02" x="591.324841" y="395.28" style="stroke: #000000; stroke-width: 0.8"/>
      </g>
     </g>
     <g id="text_13">
      <!-- 2022-12-16 -->
      <g transform="translate(506.195813 495.213718) rotate(-45) scale(0.2 -0.2)">
       <use xlink:href="#DejaVuSans-32"/>
       <use xlink:href="#DejaVuSans-30" x="63.623047"/>
       <use xlink:href="#DejaVuSans-32" x="127.246094"/>
       <use xlink:href="#DejaVuSans-32" x="190.869141"/>
       <use xlink:href="#DejaVuSans-2d" x="254.492188"/>
       <use xlink:href="#DejaVuSans-31" x="290.576172"/>
       <use xlink:href="#DejaVuSans-32" x="354.199219"/>
       <use xlink:href="#DejaVuSans-2d" x="417.822266"/>
       <use xlink:href="#DejaVuSans-31" x="453.90625"/>
       <use xlink:href="#DejaVuSans-36" x="517.529297"/>
      </g>
     </g>
    </g>
    <g id="xtick_14">
     <g id="line2d_14">
      <g>
       <use xlink:href="#md4c0cf4a02" x="632.012341" y="395.28" style="stroke: #000000; stroke-width: 0.8"/>
      </g>
     </g>
     <g id="text_14">
      <!-- 2022-12-30 -->
      <g transform="translate(546.883313 495.213718) rotate(-45) scale(0.2 -0.2)">
       <use xlink:href="#DejaVuSans-32"/>
       <use xlink:href="#DejaVuSans-30" x="63.623047"/>
       <use xlink:href="#DejaVuSans-32" x="127.246094"/>
       <use xlink:href="#DejaVuSans-32" x="190.869141"/>
       <use xlink:href="#DejaVuSans-2d" x="254.492188"/>
       <use xlink:href="#DejaVuSans-31" x="290.576172"/>
       <use xlink:href="#DejaVuSans-32" x="354.199219"/>
       <use xlink:href="#DejaVuSans-2d" x="417.822266"/>
       <use xlink:href="#DejaVuSans-33" x="453.90625"/>
       <use xlink:href="#DejaVuSans-30" x="517.529297"/>
      </g>
     </g>
    </g>
    <g id="xtick_15">
     <g id="line2d_15">
      <g>
       <use xlink:href="#md4c0cf4a02" x="672.699841" y="395.28" style="stroke: #000000; stroke-width: 0.8"/>
      </g>
     </g>
     <g id="text_15">
      <!-- 2023-01-13 -->
      <g transform="translate(587.570813 495.213718) rotate(-45) scale(0.2 -0.2)">
       <use xlink:href="#DejaVuSans-32"/>
       <use xlink:href="#DejaVuSans-30" x="63.623047"/>
       <use xlink:href="#DejaVuSans-32" x="127.246094"/>
       <use xlink:href="#DejaVuSans-33" x="190.869141"/>
       <use xlink:href="#DejaVuSans-2d" x="254.492188"/>
       <use xlink:href="#DejaVuSans-30" x="290.576172"/>
       <use xlink:href="#DejaVuSans-31" x="354.199219"/>
       <use xlink:href="#DejaVuSans-2d" x="417.822266"/>
       <use xlink:href="#DejaVuSans-31" x="453.90625"/>
       <use xlink:href="#DejaVuSans-33" x="517.529297"/>
      </g>
     </g>
    </g>
    <g id="xtick_16">
     <g id="line2d_16">
      <g>
       <use xlink:href="#md4c0cf4a02" x="713.387341" y="395.28" style="stroke: #000000; stroke-width: 0.8"/>
      </g>
     </g>
     <g id="text_16">
      <!-- 2023-01-27 -->
      <g transform="translate(628.258313 495.213718) rotate(-45) scale(0.2 -0.2)">
       <use xlink:href="#DejaVuSans-32"/>
       <use xlink:href="#DejaVuSans-30" x="63.623047"/>
       <use xlink:href="#DejaVuSans-32" x="127.246094"/>
       <use xlink:href="#DejaVuSans-33" x="190.869141"/>
       <use xlink:href="#DejaVuSans-2d" x="254.492188"/>
       <use xlink:href="#DejaVuSans-30" x="290.576172"/>
       <use xlink:href="#DejaVuSans-31" x="354.199219"/>
       <use xlink:href="#DejaVuSans-2d" x="417.822266"/>
       <use xlink:href="#DejaVuSans-32" x="453.90625"/>
       <use xlink:href="#DejaVuSans-37" x="517.529297"/>
      </g>
     </g>
    </g>
    <g id="xtick_17">
     <g id="line2d_17">
      <g>
       <use xlink:href="#md4c0cf4a02" x="754.074841" y="395.28" style="stroke: #000000; stroke-width: 0.8"/>
      </g>
     </g>
     <g id="text_17">
      <!-- 2023-02-10 -->
      <g transform="translate(668.945813 495.213718) rotate(-45) scale(0.2 -0.2)">
       <use xlink:href="#DejaVuSans-32"/>
       <use xlink:href="#DejaVuSans-30" x="63.623047"/>
       <use xlink:href="#DejaVuSans-32" x="127.246094"/>
       <use xlink:href="#DejaVuSans-33" x="190.869141"/>
       <use xlink:href="#DejaVuSans-2d" x="254.492188"/>
       <use xlink:href="#DejaVuSans-30" x="290.576172"/>
       <use xlink:href="#DejaVuSans-32" x="354.199219"/>
       <use xlink:href="#DejaVuSans-2d" x="417.822266"/>
       <use xlink:href="#DejaVuSans-31" x="453.90625"/>
       <use xlink:href="#DejaVuSans-30" x="517.529297"/>
      </g>
     </g>
    </g>
    <g id="xtick_18">
     <g id="line2d_18">
      <g>
       <use xlink:href="#md4c0cf4a02" x="794.762341" y="395.28" style="stroke: #000000; stroke-width: 0.8"/>
      </g>
     </g>
     <g id="text_18">
      <!-- 2023-02-24 -->
      <g transform="translate(709.633313 495.213718) rotate(-45) scale(0.2 -0.2)">
       <use xlink:href="#DejaVuSans-32"/>
       <use xlink:href="#DejaVuSans-30" x="63.623047"/>
       <use xlink:href="#DejaVuSans-32" x="127.246094"/>
       <use xlink:href="#DejaVuSans-33" x="190.869141"/>
       <use xlink:href="#DejaVuSans-2d" x="254.492188"/>
       <use xlink:href="#DejaVuSans-30" x="290.576172"/>
       <use xlink:href="#DejaVuSans-32" x="354.199219"/>
       <use xlink:href="#DejaVuSans-2d" x="417.822266"/>
       <use xlink:href="#DejaVuSans-32" x="453.90625"/>
       <use xlink:href="#DejaVuSans-34" x="517.529297"/>
      </g>
     </g>
    </g>
    <g id="xtick_19">
     <g id="line2d_19">
      <g>
       <use xlink:href="#md4c0cf4a02" x="835.449841" y="395.28" style="stroke: #000000; stroke-width: 0.8"/>
      </g>
     </g>
     <g id="text_19">
      <!-- 2023-03-10 -->
      <g transform="translate(750.320813 495.213718) rotate(-45) scale(0.2 -0.2)">
       <use xlink:href="#DejaVuSans-32"/>
       <use xlink:href="#DejaVuSans-30" x="63.623047"/>
       <use xlink:href="#DejaVuSans-32" x="127.246094"/>
       <use xlink:href="#DejaVuSans-33" x="190.869141"/>
       <use xlink:href="#DejaVuSans-2d" x="254.492188"/>
       <use xlink:href="#DejaVuSans-30" x="290.576172"/>
       <use xlink:href="#DejaVuSans-33" x="354.199219"/>
       <use xlink:href="#DejaVuSans-2d" x="417.822266"/>
       <use xlink:href="#DejaVuSans-31" x="453.90625"/>
       <use xlink:href="#DejaVuSans-30" x="517.529297"/>
      </g>
     </g>
    </g>
    <g id="xtick_20">
     <g id="line2d_20">
      <g>
       <use xlink:href="#md4c0cf4a02" x="876.137341" y="395.28" style="stroke: #000000; stroke-width: 0.8"/>
      </g>
     </g>
     <g id="text_20">
      <!-- 2023-03-24 -->
      <g transform="translate(791.008313 495.213718) rotate(-45) scale(0.2 -0.2)">
       <use xlink:href="#DejaVuSans-32"/>
       <use xlink:href="#DejaVuSans-30" x="63.623047"/>
       <use xlink:href="#DejaVuSans-32" x="127.246094"/>
       <use xlink:href="#DejaVuSans-33" x="190.869141"/>
       <use xlink:href="#DejaVuSans-2d" x="254.492188"/>
       <use xlink:href="#DejaVuSans-30" x="290.576172"/>
       <use xlink:href="#DejaVuSans-33" x="354.199219"/>
       <use xlink:href="#DejaVuSans-2d" x="417.822266"/>
       <use xlink:href="#DejaVuSans-32" x="453.90625"/>
       <use xlink:href="#DejaVuSans-34" x="517.529297"/>
      </g>
     </g>
    </g>
    <g id="xtick_21">
     <g id="line2d_21">
      <g>
       <use xlink:href="#md4c0cf4a02" x="916.824841" y="395.28" style="stroke: #000000; stroke-width: 0.8"/>
      </g>
     </g>
     <g id="text_21">
      <!-- 2023-04-07 -->
      <g transform="translate(831.695813 495.213718) rotate(-45) scale(0.2 -0.2)">
       <use xlink:href="#DejaVuSans-32"/>
       <use xlink:href="#DejaVuSans-30" x="63.623047"/>
       <use xlink:href="#DejaVuSans-32" x="127.246094"/>
       <use xlink:href="#DejaVuSans-33" x="190.869141"/>
       <use xlink:href="#DejaVuSans-2d" x="254.492188"/>
       <use xlink:href="#DejaVuSans-30" x="290.576172"/>
       <use xlink:href="#DejaVuSans-34" x="354.199219"/>
       <use xlink:href="#DejaVuSans-2d" x="417.822266"/>
       <use xlink:href="#DejaVuSans-30" x="453.90625"/>
       <use xlink:href="#DejaVuSans-37" x="517.529297"/>
      </g>
     </g>
    </g>
    <g id="xtick_22">
     <g id="line2d_22">
      <g>
       <use xlink:href="#md4c0cf4a02" x="940.074841" y="395.28" style="stroke: #000000; stroke-width: 0.8"/>
      </g>
     </g>
     <g id="text_22">
      <!-- 2023-04-15 -->
      <g transform="translate(854.945813 495.213718) rotate(-45) scale(0.2 -0.2)">
       <use xlink:href="#DejaVuSans-32"/>
       <use xlink:href="#DejaVuSans-30" x="63.623047"/>
       <use xlink:href="#DejaVuSans-32" x="127.246094"/>
       <use xlink:href="#DejaVuSans-33" x="190.869141"/>
       <use xlink:href="#DejaVuSans-2d" x="254.492188"/>
       <use xlink:href="#DejaVuSans-30" x="290.576172"/>
       <use xlink:href="#DejaVuSans-34" x="354.199219"/>
       <use xlink:href="#DejaVuSans-2d" x="417.822266"/>
       <use xlink:href="#DejaVuSans-31" x="453.90625"/>
       <use xlink:href="#DejaVuSans-35" x="517.529297"/>
      </g>
     </g>
    </g>
   </g>
   <g id="matplotlib.axis_2">
    <g id="ytick_1">
     <g id="line2d_23">
      <defs>
       <path id="m90df940ad2" d="M 0 0 
L -3.5 0 
" style="stroke: #000000; stroke-width: 0.8"/>
      </defs>
      <g>
       <use xlink:href="#m90df940ad2" x="103.074841" y="334.358597" style="stroke: #000000; stroke-width: 0.8"/>
      </g>
     </g>
     <g id="text_23">
      <!-- −0.10 -->
      <g transform="translate(34.784216 341.957034) scale(0.2 -0.2)">
       <defs>
        <path id="DejaVuSans-2212" d="M 678 2272 
L 4684 2272 
L 4684 1741 
L 678 1741 
L 678 2272 
z
" transform="scale(0.015625)"/>
        <path id="DejaVuSans-2e" d="M 684 794 
L 1344 794 
L 1344 0 
L 684 0 
L 684 794 
z
" transform="scale(0.015625)"/>
       </defs>
       <use xlink:href="#DejaVuSans-2212"/>
       <use xlink:href="#DejaVuSans-30" x="83.789062"/>
       <use xlink:href="#DejaVuSans-2e" x="147.412109"/>
       <use xlink:href="#DejaVuSans-31" x="179.199219"/>
       <use xlink:href="#DejaVuSans-30" x="242.822266"/>
      </g>
     </g>
    </g>
    <g id="ytick_2">
     <g id="line2d_24">
      <g>
       <use xlink:href="#m90df940ad2" x="103.074841" y="250.983811" style="stroke: #000000; stroke-width: 0.8"/>
      </g>
     </g>
     <g id="text_24">
      <!-- −0.05 -->
      <g transform="translate(34.784216 258.582248) scale(0.2 -0.2)">
       <use xlink:href="#DejaVuSans-2212"/>
       <use xlink:href="#DejaVuSans-30" x="83.789062"/>
       <use xlink:href="#DejaVuSans-2e" x="147.412109"/>
       <use xlink:href="#DejaVuSans-30" x="179.199219"/>
       <use xlink:href="#DejaVuSans-35" x="242.822266"/>
      </g>
     </g>
    </g>
    <g id="ytick_3">
     <g id="line2d_25">
      <g>
       <use xlink:href="#m90df940ad2" x="103.074841" y="167.609024" style="stroke: #000000; stroke-width: 0.8"/>
      </g>
     </g>
     <g id="text_25">
      <!-- 0.00 -->
      <g transform="translate(51.543591 175.207462) scale(0.2 -0.2)">
       <use xlink:href="#DejaVuSans-30"/>
       <use xlink:href="#DejaVuSans-2e" x="63.623047"/>
       <use xlink:href="#DejaVuSans-30" x="95.410156"/>
       <use xlink:href="#DejaVuSans-30" x="159.033203"/>
      </g>
     </g>
    </g>
    <g id="ytick_4">
     <g id="line2d_26">
      <g>
       <use xlink:href="#m90df940ad2" x="103.074841" y="84.234238" style="stroke: #000000; stroke-width: 0.8"/>
      </g>
     </g>
     <g id="text_26">
      <!-- 0.05 -->
      <g transform="translate(51.543591 91.832676) scale(0.2 -0.2)">
       <use xlink:href="#DejaVuSans-30"/>
       <use xlink:href="#DejaVuSans-2e" x="63.623047"/>
       <use xlink:href="#DejaVuSans-30" x="95.410156"/>
       <use xlink:href="#DejaVuSans-35" x="159.033203"/>
      </g>
     </g>
    </g>
    <g id="text_27">
     <!-- Relative fitness $\gamma_y$ -->
     <g transform="translate(24.584216 291.84) rotate(-90) scale(0.2 -0.2)">
      <defs>
       <path id="DejaVuSans-52" d="M 2841 2188 
Q 3044 2119 3236 1894 
Q 3428 1669 3622 1275 
L 4263 0 
L 3584 0 
L 2988 1197 
Q 2756 1666 2539 1819 
Q 2322 1972 1947 1972 
L 1259 1972 
L 1259 0 
L 628 0 
L 628 4666 
L 2053 4666 
Q 2853 4666 3247 4331 
Q 3641 3997 3641 3322 
Q 3641 2881 3436 2590 
Q 3231 2300 2841 2188 
z
M 1259 4147 
L 1259 2491 
L 2053 2491 
Q 2509 2491 2742 2702 
Q 2975 2913 2975 3322 
Q 2975 3731 2742 3939 
Q 2509 4147 2053 4147 
L 1259 4147 
z
" transform="scale(0.015625)"/>
       <path id="DejaVuSans-65" d="M 3597 1894 
L 3597 1613 
L 953 1613 
Q 991 1019 1311 708 
Q 1631 397 2203 397 
Q 2534 397 2845 478 
Q 3156 559 3463 722 
L 3463 178 
Q 3153 47 2828 -22 
Q 2503 -91 2169 -91 
Q 1331 -91 842 396 
Q 353 884 353 1716 
Q 353 2575 817 3079 
Q 1281 3584 2069 3584 
Q 2775 3584 3186 3129 
Q 3597 2675 3597 1894 
z
M 3022 2063 
Q 3016 2534 2758 2815 
Q 2500 3097 2075 3097 
Q 1594 3097 1305 2825 
Q 1016 2553 972 2059 
L 3022 2063 
z
" transform="scale(0.015625)"/>
       <path id="DejaVuSans-6c" d="M 603 4863 
L 1178 4863 
L 1178 0 
L 603 0 
L 603 4863 
z
" transform="scale(0.015625)"/>
       <path id="DejaVuSans-61" d="M 2194 1759 
Q 1497 1759 1228 1600 
Q 959 1441 959 1056 
Q 959 750 1161 570 
Q 1363 391 1709 391 
Q 2188 391 2477 730 
Q 2766 1069 2766 1631 
L 2766 1759 
L 2194 1759 
z
M 3341 1997 
L 3341 0 
L 2766 0 
L 2766 531 
Q 2569 213 2275 61 
Q 1981 -91 1556 -91 
Q 1019 -91 701 211 
Q 384 513 384 1019 
Q 384 1609 779 1909 
Q 1175 2209 1959 2209 
L 2766 2209 
L 2766 2266 
Q 2766 2663 2505 2880 
Q 2244 3097 1772 3097 
Q 1472 3097 1187 3025 
Q 903 2953 641 2809 
L 641 3341 
Q 956 3463 1253 3523 
Q 1550 3584 1831 3584 
Q 2591 3584 2966 3190 
Q 3341 2797 3341 1997 
z
" transform="scale(0.015625)"/>
       <path id="DejaVuSans-74" d="M 1172 4494 
L 1172 3500 
L 2356 3500 
L 2356 3053 
L 1172 3053 
L 1172 1153 
Q 1172 725 1289 603 
Q 1406 481 1766 481 
L 2356 481 
L 2356 0 
L 1766 0 
Q 1100 0 847 248 
Q 594 497 594 1153 
L 594 3053 
L 172 3053 
L 172 3500 
L 594 3500 
L 594 4494 
L 1172 4494 
z
" transform="scale(0.015625)"/>
       <path id="DejaVuSans-69" d="M 603 3500 
L 1178 3500 
L 1178 0 
L 603 0 
L 603 3500 
z
M 603 4863 
L 1178 4863 
L 1178 4134 
L 603 4134 
L 603 4863 
z
" transform="scale(0.015625)"/>
       <path id="DejaVuSans-76" d="M 191 3500 
L 800 3500 
L 1894 563 
L 2988 3500 
L 3597 3500 
L 2284 0 
L 1503 0 
L 191 3500 
z
" transform="scale(0.015625)"/>
       <path id="DejaVuSans-20" transform="scale(0.015625)"/>
       <path id="DejaVuSans-66" d="M 2375 4863 
L 2375 4384 
L 1825 4384 
Q 1516 4384 1395 4259 
Q 1275 4134 1275 3809 
L 1275 3500 
L 2222 3500 
L 2222 3053 
L 1275 3053 
L 1275 0 
L 697 0 
L 697 3053 
L 147 3053 
L 147 3500 
L 697 3500 
L 697 3744 
Q 697 4328 969 4595 
Q 1241 4863 1831 4863 
L 2375 4863 
z
" transform="scale(0.015625)"/>
       <path id="DejaVuSans-6e" d="M 3513 2113 
L 3513 0 
L 2938 0 
L 2938 2094 
Q 2938 2591 2744 2837 
Q 2550 3084 2163 3084 
Q 1697 3084 1428 2787 
Q 1159 2491 1159 1978 
L 1159 0 
L 581 0 
L 581 3500 
L 1159 3500 
L 1159 2956 
Q 1366 3272 1645 3428 
Q 1925 3584 2291 3584 
Q 2894 3584 3203 3211 
Q 3513 2838 3513 2113 
z
" transform="scale(0.015625)"/>
       <path id="DejaVuSans-73" d="M 2834 3397 
L 2834 2853 
Q 2591 2978 2328 3040 
Q 2066 3103 1784 3103 
Q 1356 3103 1142 2972 
Q 928 2841 928 2578 
Q 928 2378 1081 2264 
Q 1234 2150 1697 2047 
L 1894 2003 
Q 2506 1872 2764 1633 
Q 3022 1394 3022 966 
Q 3022 478 2636 193 
Q 2250 -91 1575 -91 
Q 1294 -91 989 -36 
Q 684 19 347 128 
L 347 722 
Q 666 556 975 473 
Q 1284 391 1588 391 
Q 1994 391 2212 530 
Q 2431 669 2431 922 
Q 2431 1156 2273 1281 
Q 2116 1406 1581 1522 
L 1381 1569 
Q 847 1681 609 1914 
Q 372 2147 372 2553 
Q 372 3047 722 3315 
Q 1072 3584 1716 3584 
Q 2034 3584 2315 3537 
Q 2597 3491 2834 3397 
z
" transform="scale(0.015625)"/>
       <path id="DejaVuSans-Oblique-3b3" d="M 1491 2950 
L 1838 788 
L 3456 3500 
L 4066 3500 
L 1972 0 
L 1713 -1331 
L 1138 -1331 
L 1397 0 
L 988 2613 
Q 925 3006 628 3006 
L 475 3006 
L 569 3500 
L 788 3500 
Q 1403 3500 1491 2950 
z
" transform="scale(0.015625)"/>
       <path id="DejaVuSans-Oblique-79" d="M 1588 -325 
Q 1188 -997 936 -1164 
Q 684 -1331 294 -1331 
L -159 -1331 
L -63 -850 
L 269 -850 
Q 509 -850 678 -719 
Q 847 -588 1056 -206 
L 1234 128 
L 459 3500 
L 1069 3500 
L 1650 819 
L 3256 3500 
L 3859 3500 
L 1588 -325 
z
" transform="scale(0.015625)"/>
      </defs>
      <use xlink:href="#DejaVuSans-52" transform="translate(0 0.015625)"/>
      <use xlink:href="#DejaVuSans-65" transform="translate(69.482422 0.015625)"/>
      <use xlink:href="#DejaVuSans-6c" transform="translate(131.005859 0.015625)"/>
      <use xlink:href="#DejaVuSans-61" transform="translate(158.789062 0.015625)"/>
      <use xlink:href="#DejaVuSans-74" transform="translate(220.068359 0.015625)"/>
      <use xlink:href="#DejaVuSans-69" transform="translate(259.277344 0.015625)"/>
      <use xlink:href="#DejaVuSans-76" transform="translate(287.060547 0.015625)"/>
      <use xlink:href="#DejaVuSans-65" transform="translate(346.240234 0.015625)"/>
      <use xlink:href="#DejaVuSans-20" transform="translate(407.763672 0.015625)"/>
      <use xlink:href="#DejaVuSans-66" transform="translate(439.550781 0.015625)"/>
      <use xlink:href="#DejaVuSans-69" transform="translate(474.755859 0.015625)"/>
      <use xlink:href="#DejaVuSans-74" transform="translate(502.539062 0.015625)"/>
      <use xlink:href="#DejaVuSans-6e" transform="translate(541.748047 0.015625)"/>
      <use xlink:href="#DejaVuSans-65" transform="translate(605.126953 0.015625)"/>
      <use xlink:href="#DejaVuSans-73" transform="translate(666.650391 0.015625)"/>
      <use xlink:href="#DejaVuSans-73" transform="translate(718.75 0.015625)"/>
      <use xlink:href="#DejaVuSans-20" transform="translate(770.849609 0.015625)"/>
      <use xlink:href="#DejaVuSans-Oblique-3b3" transform="translate(802.636719 0.015625)"/>
      <use xlink:href="#DejaVuSans-Oblique-79" transform="translate(861.816406 -16.390625) scale(0.7)"/>
     </g>
    </g>
   </g>
   <g id="line2d_27">
    <path d="M 103.074841 167.609024 
L 1238.756091 167.609024 
" clip-path="url(#p2a4a261943)" style="fill: none; stroke-dasharray: 7.4,3.2; stroke-dashoffset: 0; stroke: #000000; stroke-width: 2"/>
   </g>
   <g id="patch_3">
    <path d="M 103.074841 395.28 
L 103.074841 7.2 
" style="fill: none; stroke: #000000; stroke-width: 0.8; stroke-linejoin: miter; stroke-linecap: square"/>
   </g>
   <g id="patch_4">
    <path d="M 940.074841 395.28 
L 940.074841 7.2 
" style="fill: none; stroke: #000000; stroke-width: 0.8; stroke-linejoin: miter; stroke-linecap: square"/>
   </g>
   <g id="patch_5">
    <path d="M 103.074841 395.28 
L 940.074841 395.28 
" style="fill: none; stroke: #000000; stroke-width: 0.8; stroke-linejoin: miter; stroke-linecap: square"/>
   </g>
   <g id="patch_6">
    <path d="M 103.074841 7.2 
L 940.074841 7.2 
" style="fill: none; stroke: #000000; stroke-width: 0.8; stroke-linejoin: miter; stroke-linecap: square"/>
   </g>
   <g id="legend_1">
    <g id="patch_7">
     <path d="M 1111.474841 395.28 
L 1226.556091 395.28 
Q 1230.556091 395.28 1230.556091 391.28 
L 1230.556091 363.92375 
Q 1230.556091 359.92375 1226.556091 359.92375 
L 1111.474841 359.92375 
Q 1107.474841 359.92375 1107.474841 363.92375 
L 1107.474841 391.28 
Q 1107.474841 395.28 1111.474841 395.28 
z
" style="fill: #ffffff; opacity: 0.8; stroke: #cccccc; stroke-linejoin: miter"/>
    </g>
    <g id="patch_8">
     <path d="M 1115.474841 383.120625 
L 1155.474841 383.120625 
L 1155.474841 369.120625 
L 1115.474841 369.120625 
z
" style="fill: #008000; fill-opacity: 0.3; stroke: #008000; stroke-opacity: 0.3; stroke-linejoin: miter"/>
    </g>
    <g id="text_28">
     <!-- BF.7* -->
     <g transform="translate(1171.474841 383.120625) scale(0.2 -0.2)">
      <defs>
       <path id="DejaVuSans-42" d="M 1259 2228 
L 1259 519 
L 2272 519 
Q 2781 519 3026 730 
Q 3272 941 3272 1375 
Q 3272 1813 3026 2020 
Q 2781 2228 2272 2228 
L 1259 2228 
z
M 1259 4147 
L 1259 2741 
L 2194 2741 
Q 2656 2741 2882 2914 
Q 3109 3088 3109 3444 
Q 3109 3797 2882 3972 
Q 2656 4147 2194 4147 
L 1259 4147 
z
M 628 4666 
L 2241 4666 
Q 2963 4666 3353 4366 
Q 3744 4066 3744 3513 
Q 3744 3084 3544 2831 
Q 3344 2578 2956 2516 
Q 3422 2416 3680 2098 
Q 3938 1781 3938 1306 
Q 3938 681 3513 340 
Q 3088 0 2303 0 
L 628 0 
L 628 4666 
z
" transform="scale(0.015625)"/>
       <path id="DejaVuSans-46" d="M 628 4666 
L 3309 4666 
L 3309 4134 
L 1259 4134 
L 1259 2759 
L 3109 2759 
L 3109 2228 
L 1259 2228 
L 1259 0 
L 628 0 
L 628 4666 
z
" transform="scale(0.015625)"/>
       <path id="DejaVuSans-2a" d="M 3009 3897 
L 1888 3291 
L 3009 2681 
L 2828 2375 
L 1778 3009 
L 1778 1831 
L 1422 1831 
L 1422 3009 
L 372 2375 
L 191 2681 
L 1313 3291 
L 191 3897 
L 372 4206 
L 1422 3572 
L 1422 4750 
L 1778 4750 
L 1778 3572 
L 2828 4206 
L 3009 3897 
z
" transform="scale(0.015625)"/>
      </defs>
      <use xlink:href="#DejaVuSans-42"/>
      <use xlink:href="#DejaVuSans-46" x="68.603516"/>
      <use xlink:href="#DejaVuSans-2e" x="109.998047"/>
      <use xlink:href="#DejaVuSans-37" x="141.785156"/>
      <use xlink:href="#DejaVuSans-2a" x="205.408203"/>
     </g>
    </g>
   </g>
  </g>
  <g id="axes_2">
   <g id="matplotlib.axis_3">
    <g id="ytick_5">
     <g id="line2d_28">
      <defs>
       <path id="m3fb58edacd" d="M 0 0 
L 3.5 0 
" style="stroke: #000000; stroke-width: 0.8"/>
      </defs>
      <g>
       <use xlink:href="#m3fb58edacd" x="940.074841" y="334.358597" style="stroke: #000000; stroke-width: 0.8"/>
      </g>
     </g>
     <g id="text_29">
      <!-- −0.10 -->
      <g transform="translate(947.074841 341.957034) scale(0.2 -0.2)">
       <use xlink:href="#DejaVuSans-2212"/>
       <use xlink:href="#DejaVuSans-30" x="83.789062"/>
       <use xlink:href="#DejaVuSans-2e" x="147.412109"/>
       <use xlink:href="#DejaVuSans-31" x="179.199219"/>
       <use xlink:href="#DejaVuSans-30" x="242.822266"/>
      </g>
     </g>
    </g>
    <g id="ytick_6">
     <g id="line2d_29">
      <g>
       <use xlink:href="#m3fb58edacd" x="940.074841" y="250.983811" style="stroke: #000000; stroke-width: 0.8"/>
      </g>
     </g>
     <g id="text_30">
      <!-- −0.05 -->
      <g transform="translate(947.074841 258.582248) scale(0.2 -0.2)">
       <use xlink:href="#DejaVuSans-2212"/>
       <use xlink:href="#DejaVuSans-30" x="83.789062"/>
       <use xlink:href="#DejaVuSans-2e" x="147.412109"/>
       <use xlink:href="#DejaVuSans-30" x="179.199219"/>
       <use xlink:href="#DejaVuSans-35" x="242.822266"/>
      </g>
     </g>
    </g>
    <g id="ytick_7">
     <g id="line2d_30">
      <g>
       <use xlink:href="#m3fb58edacd" x="940.074841" y="167.609024" style="stroke: #000000; stroke-width: 0.8"/>
      </g>
     </g>
     <g id="text_31">
      <!-- 0.00 -->
      <g transform="translate(947.074841 175.207462) scale(0.2 -0.2)">
       <use xlink:href="#DejaVuSans-30"/>
       <use xlink:href="#DejaVuSans-2e" x="63.623047"/>
       <use xlink:href="#DejaVuSans-30" x="95.410156"/>
       <use xlink:href="#DejaVuSans-30" x="159.033203"/>
      </g>
     </g>
    </g>
    <g id="ytick_8">
     <g id="line2d_31">
      <g>
       <use xlink:href="#m3fb58edacd" x="940.074841" y="84.234238" style="stroke: #000000; stroke-width: 0.8"/>
      </g>
     </g>
     <g id="text_32">
      <!-- 0.05 -->
      <g transform="translate(947.074841 91.832676) scale(0.2 -0.2)">
       <use xlink:href="#DejaVuSans-30"/>
       <use xlink:href="#DejaVuSans-2e" x="63.623047"/>
       <use xlink:href="#DejaVuSans-30" x="95.410156"/>
       <use xlink:href="#DejaVuSans-35" x="159.033203"/>
      </g>
     </g>
    </g>
    <g id="text_33">
     <!-- Change in proportion $\gamma_{prop}$ -->
     <g transform="translate(1027.565466 332.74) rotate(-90) scale(0.2 -0.2)">
      <defs>
       <path id="DejaVuSans-43" d="M 4122 4306 
L 4122 3641 
Q 3803 3938 3442 4084 
Q 3081 4231 2675 4231 
Q 1875 4231 1450 3742 
Q 1025 3253 1025 2328 
Q 1025 1406 1450 917 
Q 1875 428 2675 428 
Q 3081 428 3442 575 
Q 3803 722 4122 1019 
L 4122 359 
Q 3791 134 3420 21 
Q 3050 -91 2638 -91 
Q 1578 -91 968 557 
Q 359 1206 359 2328 
Q 359 3453 968 4101 
Q 1578 4750 2638 4750 
Q 3056 4750 3426 4639 
Q 3797 4528 4122 4306 
z
" transform="scale(0.015625)"/>
       <path id="DejaVuSans-68" d="M 3513 2113 
L 3513 0 
L 2938 0 
L 2938 2094 
Q 2938 2591 2744 2837 
Q 2550 3084 2163 3084 
Q 1697 3084 1428 2787 
Q 1159 2491 1159 1978 
L 1159 0 
L 581 0 
L 581 4863 
L 1159 4863 
L 1159 2956 
Q 1366 3272 1645 3428 
Q 1925 3584 2291 3584 
Q 2894 3584 3203 3211 
Q 3513 2838 3513 2113 
z
" transform="scale(0.015625)"/>
       <path id="DejaVuSans-67" d="M 2906 1791 
Q 2906 2416 2648 2759 
Q 2391 3103 1925 3103 
Q 1463 3103 1205 2759 
Q 947 2416 947 1791 
Q 947 1169 1205 825 
Q 1463 481 1925 481 
Q 2391 481 2648 825 
Q 2906 1169 2906 1791 
z
M 3481 434 
Q 3481 -459 3084 -895 
Q 2688 -1331 1869 -1331 
Q 1566 -1331 1297 -1286 
Q 1028 -1241 775 -1147 
L 775 -588 
Q 1028 -725 1275 -790 
Q 1522 -856 1778 -856 
Q 2344 -856 2625 -561 
Q 2906 -266 2906 331 
L 2906 616 
Q 2728 306 2450 153 
Q 2172 0 1784 0 
Q 1141 0 747 490 
Q 353 981 353 1791 
Q 353 2603 747 3093 
Q 1141 3584 1784 3584 
Q 2172 3584 2450 3431 
Q 2728 3278 2906 2969 
L 2906 3500 
L 3481 3500 
L 3481 434 
z
" transform="scale(0.015625)"/>
       <path id="DejaVuSans-70" d="M 1159 525 
L 1159 -1331 
L 581 -1331 
L 581 3500 
L 1159 3500 
L 1159 2969 
Q 1341 3281 1617 3432 
Q 1894 3584 2278 3584 
Q 2916 3584 3314 3078 
Q 3713 2572 3713 1747 
Q 3713 922 3314 415 
Q 2916 -91 2278 -91 
Q 1894 -91 1617 61 
Q 1341 213 1159 525 
z
M 3116 1747 
Q 3116 2381 2855 2742 
Q 2594 3103 2138 3103 
Q 1681 3103 1420 2742 
Q 1159 2381 1159 1747 
Q 1159 1113 1420 752 
Q 1681 391 2138 391 
Q 2594 391 2855 752 
Q 3116 1113 3116 1747 
z
" transform="scale(0.015625)"/>
       <path id="DejaVuSans-72" d="M 2631 2963 
Q 2534 3019 2420 3045 
Q 2306 3072 2169 3072 
Q 1681 3072 1420 2755 
Q 1159 2438 1159 1844 
L 1159 0 
L 581 0 
L 581 3500 
L 1159 3500 
L 1159 2956 
Q 1341 3275 1631 3429 
Q 1922 3584 2338 3584 
Q 2397 3584 2469 3576 
Q 2541 3569 2628 3553 
L 2631 2963 
z
" transform="scale(0.015625)"/>
       <path id="DejaVuSans-6f" d="M 1959 3097 
Q 1497 3097 1228 2736 
Q 959 2375 959 1747 
Q 959 1119 1226 758 
Q 1494 397 1959 397 
Q 2419 397 2687 759 
Q 2956 1122 2956 1747 
Q 2956 2369 2687 2733 
Q 2419 3097 1959 3097 
z
M 1959 3584 
Q 2709 3584 3137 3096 
Q 3566 2609 3566 1747 
Q 3566 888 3137 398 
Q 2709 -91 1959 -91 
Q 1206 -91 779 398 
Q 353 888 353 1747 
Q 353 2609 779 3096 
Q 1206 3584 1959 3584 
z
" transform="scale(0.015625)"/>
       <path id="DejaVuSans-Oblique-70" d="M 3175 2156 
Q 3175 2616 2975 2859 
Q 2775 3103 2400 3103 
Q 2144 3103 1911 2972 
Q 1678 2841 1497 2591 
Q 1319 2344 1212 1994 
Q 1106 1644 1106 1300 
Q 1106 863 1306 627 
Q 1506 391 1875 391 
Q 2147 391 2380 519 
Q 2613 647 2778 891 
Q 2956 1147 3065 1494 
Q 3175 1841 3175 2156 
z
M 1394 2969 
Q 1625 3272 1939 3428 
Q 2253 3584 2638 3584 
Q 3175 3584 3472 3232 
Q 3769 2881 3769 2247 
Q 3769 1728 3584 1258 
Q 3400 788 3053 416 
Q 2822 169 2531 39 
Q 2241 -91 1919 -91 
Q 1547 -91 1294 64 
Q 1041 219 916 525 
L 556 -1331 
L -19 -1331 
L 922 3500 
L 1497 3500 
L 1394 2969 
z
" transform="scale(0.015625)"/>
       <path id="DejaVuSans-Oblique-72" d="M 2853 2969 
Q 2766 3016 2653 3041 
Q 2541 3066 2413 3066 
Q 1953 3066 1609 2717 
Q 1266 2369 1153 1784 
L 800 0 
L 225 0 
L 909 3500 
L 1484 3500 
L 1375 2956 
Q 1603 3259 1920 3421 
Q 2238 3584 2597 3584 
Q 2691 3584 2781 3573 
Q 2872 3563 2963 3538 
L 2853 2969 
z
" transform="scale(0.015625)"/>
       <path id="DejaVuSans-Oblique-6f" d="M 1625 -91 
Q 1009 -91 651 289 
Q 294 669 294 1325 
Q 294 1706 417 2101 
Q 541 2497 738 2766 
Q 1047 3184 1428 3384 
Q 1809 3584 2291 3584 
Q 2888 3584 3255 3212 
Q 3622 2841 3622 2241 
Q 3622 1825 3500 1412 
Q 3378 1000 3181 728 
Q 2875 309 2494 109 
Q 2113 -91 1625 -91 
z
M 891 1344 
Q 891 869 1089 633 
Q 1288 397 1691 397 
Q 2269 397 2648 901 
Q 3028 1406 3028 2181 
Q 3028 2634 2825 2865 
Q 2622 3097 2228 3097 
Q 1903 3097 1650 2945 
Q 1397 2794 1197 2484 
Q 1050 2253 970 1956 
Q 891 1659 891 1344 
z
" transform="scale(0.015625)"/>
      </defs>
      <use xlink:href="#DejaVuSans-43" transform="translate(0 0.015625)"/>
      <use xlink:href="#DejaVuSans-68" transform="translate(69.824219 0.015625)"/>
      <use xlink:href="#DejaVuSans-61" transform="translate(133.203125 0.015625)"/>
      <use xlink:href="#DejaVuSans-6e" transform="translate(194.482422 0.015625)"/>
      <use xlink:href="#DejaVuSans-67" transform="translate(257.861328 0.015625)"/>
      <use xlink:href="#DejaVuSans-65" transform="translate(321.337891 0.015625)"/>
      <use xlink:href="#DejaVuSans-20" transform="translate(382.861328 0.015625)"/>
      <use xlink:href="#DejaVuSans-69" transform="translate(414.648438 0.015625)"/>
      <use xlink:href="#DejaVuSans-6e" transform="translate(442.431641 0.015625)"/>
      <use xlink:href="#DejaVuSans-20" transform="translate(505.810547 0.015625)"/>
      <use xlink:href="#DejaVuSans-70" transform="translate(537.597656 0.015625)"/>
      <use xlink:href="#DejaVuSans-72" transform="translate(601.074219 0.015625)"/>
      <use xlink:href="#DejaVuSans-6f" transform="translate(642.1875 0.015625)"/>
      <use xlink:href="#DejaVuSans-70" transform="translate(703.369141 0.015625)"/>
      <use xlink:href="#DejaVuSans-6f" transform="translate(766.845703 0.015625)"/>
      <use xlink:href="#DejaVuSans-72" transform="translate(828.027344 0.015625)"/>
      <use xlink:href="#DejaVuSans-74" transform="translate(869.140625 0.015625)"/>
      <use xlink:href="#DejaVuSans-69" transform="translate(908.349609 0.015625)"/>
      <use xlink:href="#DejaVuSans-6f" transform="translate(936.132812 0.015625)"/>
      <use xlink:href="#DejaVuSans-6e" transform="translate(997.314453 0.015625)"/>
      <use xlink:href="#DejaVuSans-20" transform="translate(1060.693359 0.015625)"/>
      <use xlink:href="#DejaVuSans-Oblique-3b3" transform="translate(1092.480469 0.015625)"/>
      <use xlink:href="#DejaVuSans-Oblique-70" transform="translate(1151.660156 -16.390625) scale(0.7)"/>
      <use xlink:href="#DejaVuSans-Oblique-72" transform="translate(1196.09375 -16.390625) scale(0.7)"/>
      <use xlink:href="#DejaVuSans-Oblique-6f" transform="translate(1224.873047 -16.390625) scale(0.7)"/>
      <use xlink:href="#DejaVuSans-Oblique-70" transform="translate(1267.700195 -16.390625) scale(0.7)"/>
     </g>
    </g>
   </g>
   <g id="line2d_32">
    <path d="M 283.262341 75.840291 
L 286.168591 102.801524 
L 289.074841 104.290726 
L 291.981091 20.32826 
L 294.887341 96.920555 
L 297.793591 63.886473 
L 300.699841 145.683528 
L 303.606091 110.788748 
L 306.512341 122.841168 
L 309.418591 95.95906 
L 312.324841 114.039337 
L 315.231091 99.584977 
L 318.137341 95.60567 
L 321.043591 144.606207 
L 323.949841 120.934498 
L 326.856091 126.103366 
L 329.762341 141.656102 
L 332.668591 124.617638 
L 335.574841 154.051721 
L 338.481091 139.782282 
L 341.387341 156.46944 
L 344.293591 126.254767 
L 347.199841 114.526295 
L 350.106091 111.176298 
L 353.012341 148.368584 
L 355.918591 121.430337 
L 358.824841 128.753209 
L 361.731091 144.57756 
L 364.637341 121.37219 
L 367.543591 124.952633 
L 370.449841 118.485015 
L 373.356091 105.443368 
L 376.262341 121.032468 
L 379.168591 123.490033 
L 382.074841 127.878707 
L 384.981091 118.435086 
L 387.887341 98.687963 
L 390.793591 118.394143 
L 393.699841 126.902004 
L 396.606091 122.864596 
L 399.512341 117.171405 
L 402.418591 120.639797 
L 405.324841 114.578445 
L 408.231091 155.139362 
L 411.137341 145.050032 
L 414.043591 136.815813 
L 416.949841 135.934309 
L 419.856091 123.658058 
L 422.762341 142.657635 
L 425.668591 144.683223 
L 428.574841 140.28205 
L 431.481091 148.539745 
L 434.387341 152.603141 
L 437.293591 130.3889 
L 440.199841 123.81176 
L 443.106091 142.415835 
L 446.012341 129.356063 
L 448.918591 127.183602 
L 451.824841 113.140965 
L 454.731091 127.99949 
L 457.637341 139.077077 
L 460.543591 144.368224 
L 463.449841 134.106453 
L 466.356091 124.89016 
L 469.262341 123.905791 
L 472.168591 91.21323 
L 475.074841 141.739346 
L 477.981091 145.288832 
L 480.887341 166.702446 
L 483.793591 160.863025 
L 486.699841 158.080619 
L 489.606091 175.335224 
L 492.512341 132.328087 
L 495.418591 159.922928 
L 498.324841 172.752683 
L 501.231091 172.816916 
L 504.137341 157.376874 
L 507.043591 174.128939 
L 509.949841 164.706977 
L 512.856091 164.478618 
L 515.762341 213.210384 
L 518.668591 161.621195 
L 521.574841 160.23259 
L 524.481091 151.244231 
L 527.387341 154.054578 
L 530.293591 159.454632 
L 533.199841 151.723512 
L 536.106091 187.165301 
L 539.012341 157.271592 
L 541.918591 147.380482 
L 544.824841 150.896995 
L 547.731091 154.758165 
L 550.637341 180.631667 
L 553.543591 180.934926 
L 556.449841 173.458829 
L 559.356091 179.739895 
L 562.262341 174.632614 
L 565.168591 173.167923 
L 568.074841 174.382062 
L 570.981091 189.338644 
L 573.887341 170.81103 
L 576.793591 174.862404 
L 579.699841 175.080613 
L 582.606091 181.265297 
L 585.512341 170.317519 
L 588.418591 174.39476 
L 591.324841 201.057503 
L 594.231091 159.050889 
L 597.137341 162.391379 
L 600.043591 174.931073 
L 602.949841 147.665861 
L 605.856091 169.833225 
L 608.762341 160.515418 
L 611.668591 187.247526 
L 614.574841 184.709035 
L 617.481091 195.667222 
L 620.387341 184.076273 
L 623.293591 180.834285 
L 626.199841 165.089568 
L 629.106091 190.836086 
L 632.012341 190.234522 
L 634.918591 142.570602 
L 637.824841 184.771897 
L 640.731091 189.514991 
L 643.637341 182.448176 
L 646.543591 209.028047 
L 649.449841 192.040457 
L 652.356091 202.079217 
L 655.262341 184.990315 
L 658.168591 163.739469 
L 661.074841 184.348337 
L 663.981091 185.537539 
L 666.887341 197.05479 
L 669.793591 191.86359 
L 672.699841 206.536807 
L 675.606091 165.3911 
L 678.512341 224.809951 
L 681.418591 205.681743 
L 684.324841 174.618547 
L 687.231091 216.611662 
L 690.137341 181.726591 
L 693.043591 182.798835 
L 695.949841 211.275321 
L 698.856091 207.90636 
L 701.762341 220.396653 
L 704.668591 200.740857 
L 707.574841 213.381605 
L 710.481091 210.360737 
L 713.387341 266.177057 
L 716.293591 220.049109 
L 719.199841 267.19955 
L 722.106091 252.02723 
L 725.012341 216.418619 
L 727.918591 246.202459 
L 730.824841 219.570093 
L 733.731091 275.816735 
L 736.637341 274.649111 
L 739.543591 239.070934 
L 742.449841 227.887871 
L 745.356091 173.285283 
L 748.262341 235.06629 
L 751.168591 253.046077 
L 754.074841 253.693455 
L 756.981091 193.98572 
L 759.887341 231.395714 
L 762.793591 222.658285 
L 765.699841 230.119505 
L 768.606091 245.956853 
L 771.512341 282.578775 
L 774.418591 271.533539 
L 777.324841 178.465469 
L 780.231091 272.404265 
L 783.137341 282.893466 
L 786.043591 248.570413 
L 786.043591 248.570413 
" clip-path="url(#p2a4a261943)" style="fill: none; stroke: #ffc0cb; stroke-width: 4; stroke-linecap: square"/>
   </g>
   <g id="patch_9">
    <path d="M 103.074841 395.28 
L 103.074841 7.2 
" style="fill: none; stroke: #000000; stroke-width: 0.8; stroke-linejoin: miter; stroke-linecap: square"/>
   </g>
   <g id="patch_10">
    <path d="M 940.074841 395.28 
L 940.074841 7.2 
" style="fill: none; stroke: #000000; stroke-width: 0.8; stroke-linejoin: miter; stroke-linecap: square"/>
   </g>
   <g id="patch_11">
    <path d="M 103.074841 395.28 
L 940.074841 395.28 
" style="fill: none; stroke: #000000; stroke-width: 0.8; stroke-linejoin: miter; stroke-linecap: square"/>
   </g>
   <g id="patch_12">
    <path d="M 103.074841 7.2 
L 940.074841 7.2 
" style="fill: none; stroke: #000000; stroke-width: 0.8; stroke-linejoin: miter; stroke-linecap: square"/>
   </g>
   <g id="legend_2">
    <g id="patch_13">
     <path d="M 1111.474841 395.28 
L 1226.556091 395.28 
Q 1230.556091 395.28 1230.556091 391.28 
L 1230.556091 363.92375 
Q 1230.556091 359.92375 1226.556091 359.92375 
L 1111.474841 359.92375 
Q 1107.474841 359.92375 1107.474841 363.92375 
L 1107.474841 391.28 
Q 1107.474841 395.28 1111.474841 395.28 
z
" style="fill: #ffffff; opacity: 0.8; stroke: #cccccc; stroke-linejoin: miter"/>
    </g>
    <g id="line2d_33">
     <path d="M 1115.474841 376.120625 
L 1135.474841 376.120625 
L 1155.474841 376.120625 
" style="fill: none; stroke: #ffc0cb; stroke-width: 4; stroke-linecap: square"/>
    </g>
    <g id="text_34">
     <!-- BF.7* -->
     <g transform="translate(1171.474841 383.120625) scale(0.2 -0.2)">
      <use xlink:href="#DejaVuSans-42"/>
      <use xlink:href="#DejaVuSans-46" x="68.603516"/>
      <use xlink:href="#DejaVuSans-2e" x="109.998047"/>
      <use xlink:href="#DejaVuSans-37" x="141.785156"/>
      <use xlink:href="#DejaVuSans-2a" x="205.408203"/>
     </g>
    </g>
   </g>
  </g>
 </g>
 <defs>
  <clipPath id="p2a4a261943">
   <rect x="103.074841" y="7.2" width="837" height="388.08"/>
  </clipPath>
 </defs>
</svg>
