<?xml version="1.0" encoding="utf-8" standalone="no"?>
<!DOCTYPE svg PUBLIC "-//W3C//DTD SVG 1.1//EN"
  "http://www.w3.org/Graphics/SVG/1.1/DTD/svg11.dtd">
<svg xmlns:xlink="http://www.w3.org/1999/xlink" width="1262.971716pt" height="505.354841pt" viewBox="0 0 1262.971716 505.354841" xmlns="http://www.w3.org/2000/svg" version="1.1">
 <metadata>
  <rdf:RDF xmlns:dc="http://purl.org/dc/elements/1.1/" xmlns:cc="http://creativecommons.org/ns#" xmlns:rdf="http://www.w3.org/1999/02/22-rdf-syntax-ns#">
   <cc:Work>
    <dc:type rdf:resource="http://purl.org/dc/dcmitype/StillImage"/>
    <dc:date>2024-02-06T19:17:21.956922</dc:date>
    <dc:format>image/svg+xml</dc:format>
    <dc:creator>
     <cc:Agent>
      <dc:title>Matplotlib v3.7.2, https://matplotlib.org/</dc:title>
     </cc:Agent>
    </dc:creator>
   </cc:Work>
  </rdf:RDF>
 </metadata>
 <defs>
  <style type="text/css">*{stroke-linejoin: round; stroke-linecap: butt}</style>
 </defs>
 <g id="figure_1">
  <g id="patch_1">
   <path d="M 0 505.354841 
L 1262.971716 505.354841 
L 1262.971716 -0 
L 0 -0 
z
" style="fill: #ffffff"/>
  </g>
  <g id="axes_1">
   <g id="patch_2">
    <path d="M 103.074841 395.28 
L 940.074841 395.28 
L 940.074841 7.2 
L 103.074841 7.2 
z
" style="fill: #ffffff"/>
   </g>
   <g id="PolyCollection_1">
    <path d="M -4315.31939 327.419836 
L -4315.31939 327.436276 
L -4307.271313 327.363772 
L -4299.223236 327.291617 
L -4291.175159 327.221681 
L -4283.127082 327.157498 
L -4275.079005 327.089949 
L -4267.030929 327.009779 
L -4258.982852 326.9219 
L -4250.934775 326.853988 
L -4242.886698 326.784505 
L -4234.838621 326.717317 
L -4226.790544 326.64323 
L -4218.742467 326.568533 
L -4210.69439 326.480673 
L -4202.646313 326.402613 
L -4194.598236 326.312743 
L -4186.550159 326.217298 
L -4178.502082 326.120831 
L -4170.454005 326.021183 
L -4162.405929 325.920661 
L -4154.357852 325.811378 
L -4146.309775 325.702351 
L -4138.261698 325.591019 
L -4130.213621 325.469738 
L -4122.165544 325.350907 
L -4114.117467 325.228847 
L -4106.06939 325.105112 
L -4098.021313 324.968117 
L -4089.973236 324.824324 
L -4081.925159 324.699828 
L -4073.877082 324.553346 
L -4065.829005 324.40268 
L -4057.780929 324.248118 
L -4049.732852 324.087433 
L -4041.684775 323.911416 
L -4033.636698 323.744435 
L -4025.588621 323.561627 
L -4017.540544 323.365767 
L -4009.492467 323.167358 
L -4001.44439 322.954566 
L -3993.396313 322.72297 
L -3985.348236 322.47722 
L -3977.300159 322.212635 
L -3969.252082 321.936153 
L -3961.204005 321.635537 
L -3953.155929 321.332075 
L -3945.107852 321.000805 
L -3937.059775 320.67223 
L -3929.011698 320.302421 
L -3920.963621 319.91503 
L -3912.915544 319.530171 
L -3904.867467 319.115486 
L -3896.81939 318.670941 
L -3888.771313 318.222575 
L -3880.723236 317.75811 
L -3872.675159 317.266686 
L -3864.627082 316.76238 
L -3856.579005 316.246752 
L -3848.530929 315.708392 
L -3840.482852 315.160089 
L -3832.434775 314.610278 
L -3824.386698 314.044348 
L -3816.338621 313.476317 
L -3808.290544 312.90776 
L -3800.242467 312.319885 
L -3792.19439 311.719007 
L -3784.146313 311.119312 
L -3776.098236 310.519185 
L -3768.050159 309.921889 
L -3760.002082 309.311285 
L -3751.954005 308.709487 
L -3743.905929 308.101935 
L -3735.857852 307.537857 
L -3727.809775 306.916724 
L -3719.761698 306.342693 
L -3711.713621 305.764813 
L -3703.665544 305.204166 
L -3695.617467 304.653888 
L -3687.56939 304.120488 
L -3679.521313 303.589556 
L -3671.473236 303.069163 
L -3663.425159 302.568864 
L -3655.377082 302.073357 
L -3647.329005 301.599975 
L -3639.280929 301.112156 
L -3631.232852 300.624724 
L -3623.184775 300.158727 
L -3615.136698 299.687773 
L -3607.088621 299.223792 
L -3599.040544 298.760351 
L -3590.992467 298.298333 
L -3582.94439 297.837128 
L -3574.896313 297.379458 
L -3566.848236 296.916762 
L -3558.800159 296.467259 
L -3550.752082 296.004667 
L -3542.704005 295.515448 
L -3534.655929 295.037243 
L -3526.607852 294.561055 
L -3518.559775 294.080358 
L -3510.511698 293.597505 
L -3502.463621 293.107702 
L -3494.415544 292.636391 
L -3486.367467 292.151045 
L -3478.31939 291.658753 
L -3470.271313 291.166196 
L -3462.223236 290.674465 
L -3454.175159 290.215269 
L -3446.127082 289.70559 
L -3438.079005 289.208879 
L -3430.030929 288.721035 
L -3421.982852 288.223965 
L -3413.934775 287.719009 
L -3405.886698 287.189939 
L -3397.838621 286.653342 
L -3389.790544 286.127133 
L -3381.742467 285.582052 
L -3373.69439 285.034302 
L -3365.646313 284.446492 
L -3357.598236 283.895594 
L -3349.550159 283.25007 
L -3341.502082 282.605923 
L -3333.454005 281.969585 
L -3325.405929 281.301094 
L -3317.357852 280.606126 
L -3309.309775 279.867313 
L -3301.261698 279.151052 
L -3293.213621 278.33754 
L -3285.165544 277.594389 
L -3277.117467 276.750285 
L -3269.06939 275.925262 
L -3261.021313 275.125508 
L -3252.973236 274.314374 
L -3244.925159 273.494049 
L -3236.877082 272.75674 
L -3228.829005 271.85047 
L -3220.780929 271.074844 
L -3212.732852 270.365651 
L -3204.684775 269.58552 
L -3196.636698 268.779145 
L -3188.588621 267.88679 
L -3180.540544 267.050914 
L -3172.492467 266.493865 
L -3164.44439 265.395472 
L -3156.396313 264.613663 
L -3148.348236 263.768764 
L -3140.300159 262.854716 
L -3132.252082 261.864521 
L -3124.204005 260.812305 
L -3116.155929 260.097427 
L -3108.107852 259.113358 
L -3100.059775 257.405721 
L -3092.011698 255.923288 
L -3083.963621 254.888998 
L -3075.915544 253.41474 
L -3067.867467 252.035161 
L -3059.81939 250.886503 
L -3051.771313 249.188991 
L -3043.723236 247.22014 
L -3035.675159 245.820006 
L -3027.627082 244.83834 
L -3019.579005 243.123726 
L -3011.530929 242.18711 
L -3003.482852 240.929957 
L -2995.434775 239.130233 
L -2987.386698 238.65626 
L -2979.338621 238.908466 
L -2971.290544 239.817073 
L -2963.242467 237.987538 
L -2955.19439 240.486932 
L -2947.146313 240.83526 
L -2939.098236 236.787372 
L -2931.050159 237.458008 
L -2923.002082 239.114686 
L -2914.954005 237.952003 
L -2906.905929 237.709686 
L -2898.857852 244.875468 
L -2890.809775 254.990101 
L -2882.761698 260.128625 
L -2874.713621 248.854687 
L -2866.665544 254.468311 
L -2858.617467 262.026176 
L -2850.56939 261.854155 
L -2842.521313 276.973965 
L -2834.473236 274.823974 
L -2826.425159 270.176826 
L -2818.377082 258.580463 
L -2810.329005 269.517635 
L -2802.280929 276.235302 
L -2794.232852 273.474064 
L -2786.184775 275.279701 
L -2778.136698 281.514036 
L -2770.088621 280.672776 
L -2762.040544 275.194406 
L -2753.992467 282.012613 
L -2745.94439 283.425253 
L -2737.896313 280.890715 
L -2729.848236 285.200991 
L -2721.800159 286.65494 
L -2713.752082 286.138234 
L -2705.704005 284.590144 
L -2697.655929 285.877202 
L -2689.607852 284.230413 
L -2681.559775 284.089176 
L -2673.511698 285.266238 
L -2665.463621 283.859162 
L -2657.415544 284.246348 
L -2649.367467 283.977112 
L -2641.31939 282.587126 
L -2633.271313 282.719017 
L -2625.223236 280.859945 
L -2617.175159 280.670102 
L -2609.127082 280.773823 
L -2601.079005 280.450594 
L -2593.030929 279.3207 
L -2584.982852 278.287675 
L -2576.934775 277.918726 
L -2568.886698 276.818083 
L -2560.838621 276.362574 
L -2552.790544 275.936689 
L -2544.742467 274.508567 
L -2536.69439 274.724078 
L -2528.646313 273.597034 
L -2520.598236 272.981247 
L -2512.550159 272.636409 
L -2504.502082 271.513594 
L -2496.454005 270.983197 
L -2488.405929 270.868463 
L -2480.357852 270.836792 
L -2472.309775 269.230652 
L -2464.261698 268.65435 
L -2456.213621 267.755765 
L -2448.165544 269.474794 
L -2440.117467 269.127563 
L -2432.06939 269.546293 
L -2424.021313 267.076382 
L -2415.973236 265.452541 
L -2407.925159 265.449653 
L -2399.877082 266.444348 
L -2391.829005 266.299786 
L -2383.780929 263.468775 
L -2375.732852 265.198671 
L -2367.684775 264.333155 
L -2359.636698 263.685466 
L -2351.588621 262.22475 
L -2343.540544 262.815667 
L -2335.492467 261.979665 
L -2327.44439 262.208103 
L -2319.396313 261.219497 
L -2311.348236 260.364532 
L -2303.300159 259.055466 
L -2295.252082 258.274089 
L -2287.204005 257.502018 
L -2279.155929 256.584099 
L -2271.107852 256.19396 
L -2263.059775 255.30052 
L -2255.011698 254.377968 
L -2246.963621 252.38359 
L -2238.915544 250.828761 
L -2230.867467 249.957388 
L -2222.81939 248.239173 
L -2214.771313 247.632498 
L -2206.723236 246.084903 
L -2198.675159 243.963279 
L -2190.627082 242.141105 
L -2182.579005 240.595336 
L -2174.530929 238.382231 
L -2166.482852 236.762266 
L -2158.434775 234.739108 
L -2150.386698 232.789654 
L -2142.338621 230.632926 
L -2134.290544 228.569782 
L -2126.242467 226.159513 
L -2118.19439 224.071762 
L -2110.146313 221.760771 
L -2102.098236 219.02629 
L -2094.050159 216.400638 
L -2086.002082 214.417994 
L -2077.954005 212.098279 
L -2069.905929 209.303076 
L -2061.857852 206.990724 
L -2053.809775 204.249365 
L -2045.761698 200.665344 
L -2037.713621 198.641903 
L -2029.665544 196.022319 
L -2021.617467 193.62823 
L -2013.56939 190.831531 
L -2005.521313 187.467776 
L -1997.473236 184.670403 
L -1989.425159 181.506474 
L -1981.377082 177.761541 
L -1973.329005 175.285208 
L -1965.280929 171.610216 
L -1957.232852 168.663706 
L -1949.184775 164.897186 
L -1941.136698 160.561809 
L -1933.088621 156.955949 
L -1925.040544 153.912173 
L -1916.992467 149.491859 
L -1908.94439 146.072625 
L -1900.896313 141.959553 
L -1892.848236 138.691464 
L -1884.800159 134.436948 
L -1876.752082 130.591876 
L -1868.704005 129.675133 
L -1860.655929 123.329699 
L -1852.607852 121.76161 
L -1844.559775 117.337255 
L -1836.511698 114.643578 
L -1828.463621 110.798282 
L -1820.415544 107.278961 
L -1812.367467 103.95363 
L -1804.31939 100.211592 
L -1796.271313 97.458531 
L -1788.223236 94.152936 
L -1780.175159 94.894041 
L -1772.127082 87.084323 
L -1764.079005 84.366702 
L -1756.030929 89.190625 
L -1747.982852 80.227098 
L -1739.934775 80.791549 
L -1731.886698 79.357818 
L -1723.838621 73.824242 
L -1715.790544 73.700169 
L -1707.742467 77.745205 
L -1699.69439 74.534847 
L -1691.646313 73.076096 
L -1683.598236 75.03664 
L -1675.550159 75.428105 
L -1667.502082 77.400523 
L -1659.454005 81.372474 
L -1651.405929 87.641524 
L -1643.357852 99.941455 
L -1635.309775 98.394257 
L -1627.261698 106.234398 
L -1619.213621 111.820695 
L -1611.165544 115.75072 
L -1603.117467 122.979552 
L -1595.06939 129.07225 
L -1587.021313 121.605473 
L -1578.973236 130.840349 
L -1570.925159 141.287635 
L -1562.877082 146.805046 
L -1554.829005 149.917977 
L -1546.780929 163.720724 
L -1538.732852 166.156536 
L -1530.684775 170.511266 
L -1522.636698 170.015104 
L -1514.588621 181.962178 
L -1506.540544 178.814431 
L -1498.492467 177.484383 
L -1490.44439 188.050749 
L -1482.396313 195.011444 
L -1474.348236 194.5091 
L -1466.300159 199.817608 
L -1458.252082 201.884902 
L -1450.204005 202.309161 
L -1442.155929 202.378544 
L -1434.107852 204.83607 
L -1426.059775 206.756388 
L -1418.011698 214.20038 
L -1409.963621 210.409883 
L -1401.915544 217.191343 
L -1393.867467 216.017681 
L -1385.81939 215.928153 
L -1377.771313 218.498452 
L -1369.723236 220.841774 
L -1361.675159 218.370201 
L -1353.627082 220.467442 
L -1345.579005 220.342144 
L -1337.530929 224.006241 
L -1329.482852 222.851908 
L -1321.434775 222.029849 
L -1313.386698 223.330439 
L -1305.338621 224.305321 
L -1297.290544 223.74179 
L -1289.242467 222.026059 
L -1281.19439 223.181092 
L -1273.146313 220.120991 
L -1265.098236 220.829056 
L -1257.050159 224.202606 
L -1249.002082 223.388716 
L -1240.954005 221.126241 
L -1232.905929 220.145531 
L -1224.857852 220.044351 
L -1216.809775 217.024164 
L -1208.761698 217.747612 
L -1200.713621 217.52538 
L -1192.665544 216.472346 
L -1184.617467 215.607303 
L -1176.56939 213.827707 
L -1168.521313 214.452633 
L -1160.473236 213.32696 
L -1152.425159 212.544127 
L -1144.377082 211.725472 
L -1136.329005 210.947054 
L -1128.280929 209.941977 
L -1120.232852 207.543286 
L -1112.184775 206.626698 
L -1104.136698 205.175842 
L -1096.088621 202.239023 
L -1088.040544 204.003605 
L -1079.992467 200.655004 
L -1071.94439 201.212712 
L -1063.896313 200.774883 
L -1055.848236 200.675188 
L -1047.800159 198.763491 
L -1039.752082 198.583097 
L -1031.704005 198.511176 
L -1023.655929 195.180702 
L -1015.607852 196.18238 
L -1007.559775 195.509246 
L -999.511698 195.992 
L -991.463621 194.049368 
L -983.415544 194.73791 
L -975.367467 194.161726 
L -967.31939 191.817818 
L -959.271313 191.212285 
L -951.223236 190.648187 
L -943.175159 190.161907 
L -935.127082 189.250016 
L -927.079005 189.183535 
L -919.030929 188.52208 
L -910.982852 187.913345 
L -902.934775 187.913044 
L -894.886698 186.297447 
L -886.838621 187.811563 
L -878.790544 187.941173 
L -870.742467 186.821254 
L -862.69439 185.808599 
L -854.646313 184.108071 
L -846.598236 185.891186 
L -838.550159 185.989324 
L -830.502082 185.31745 
L -822.454005 184.277406 
L -814.405929 183.574731 
L -806.357852 182.942611 
L -798.309775 183.171298 
L -790.261698 182.786702 
L -782.213621 183.107622 
L -774.165544 182.040412 
L -766.117467 180.877102 
L -758.06939 182.95717 
L -750.021313 181.76571 
L -741.973236 181.695545 
L -733.925159 183.281291 
L -725.877082 180.054056 
L -717.829005 180.844204 
L -709.780929 181.94397 
L -701.732852 180.305626 
L -693.684775 182.520734 
L -685.636698 181.110427 
L -677.588621 179.521013 
L -669.540544 181.777778 
L -661.492467 182.58284 
L -653.44439 181.200383 
L -645.396313 181.81752 
L -637.348236 181.229788 
L -629.300159 185.226232 
L -621.252082 184.647402 
L -613.204005 185.021598 
L -605.155929 182.342829 
L -597.107852 180.974041 
L -589.059775 183.389453 
L -581.011698 186.050387 
L -572.963621 184.207388 
L -564.915544 182.820935 
L -556.867467 180.733875 
L -548.81939 180.757907 
L -540.771313 182.031488 
L -532.723236 180.079196 
L -524.675159 179.086194 
L -516.627082 181.716429 
L -508.579005 179.69924 
L -500.530929 182.324053 
L -492.482852 182.51852 
L -484.434775 178.045863 
L -476.386698 178.353132 
L -468.338621 178.097033 
L -460.290544 179.049108 
L -452.242467 181.364026 
L -444.19439 185.619362 
L -436.146313 186.831053 
L -428.098236 186.860764 
L -420.050159 190.291095 
L -412.002082 197.240991 
L -403.954005 190.293255 
L -395.905929 187.965651 
L -387.857852 190.747325 
L -379.809775 193.621128 
L -371.761698 194.536126 
L -363.713621 193.537912 
L -355.665544 198.884305 
L -347.617467 202.497697 
L -339.56939 197.345083 
L -331.521313 202.498061 
L -323.473236 199.958334 
L -315.425159 200.380762 
L -307.377082 204.971526 
L -299.329005 204.839256 
L -291.280929 208.668642 
L -283.232852 208.446369 
L -275.184775 204.531303 
L -267.136698 208.021455 
L -259.088621 208.369491 
L -251.040544 211.516953 
L -242.992467 210.75341 
L -234.94439 214.643583 
L -226.896313 211.660616 
L -218.848236 214.037579 
L -210.800159 214.129687 
L -202.752082 216.722811 
L -194.704005 212.492581 
L -186.655929 216.626605 
L -178.607852 218.2299 
L -170.559775 220.150716 
L -162.511698 222.216044 
L -154.463621 222.029437 
L -146.415544 221.075267 
L -138.367467 223.572252 
L -130.31939 225.384905 
L -122.271313 224.565572 
L -114.223236 222.914185 
L -106.175159 225.160244 
L -98.127082 226.726164 
L -90.079005 223.310486 
L -82.030929 222.809626 
L -73.982852 229.067582 
L -65.934775 230.562238 
L -57.886698 224.760277 
L -49.838621 227.075748 
L -41.790544 227.539767 
L -33.742467 228.123439 
L -25.69439 231.141388 
L -17.646313 229.696378 
L -9.598236 228.291738 
L -1.550159 230.229118 
L 6.497918 230.621397 
L 14.545995 227.54722 
L 22.594071 228.627213 
L 30.642148 228.127218 
L 38.690225 234.304806 
L 46.738302 238.414179 
L 54.786379 238.371768 
L 62.834456 233.196149 
L 70.882533 232.405853 
L 78.93061 233.387665 
L 86.978687 233.139488 
L 95.026764 238.519465 
L 103.074841 233.514884 
L 111.122918 238.13796 
L 119.170995 242.423305 
L 127.219071 239.115222 
L 135.267148 245.345653 
L 143.315225 241.629998 
L 151.363302 244.608863 
L 159.411379 242.750397 
L 167.459456 245.434026 
L 175.507533 248.093945 
L 183.55561 247.542953 
L 191.603687 249.078978 
L 199.651764 249.936986 
L 207.699841 251.226652 
L 215.747918 244.16154 
L 223.795995 253.998514 
L 231.844071 258.283392 
L 239.892148 254.368044 
L 247.940225 257.245783 
L 255.988302 259.274001 
L 264.036379 257.067237 
L 272.084456 261.482294 
L 280.132533 264.320124 
L 288.18061 264.130837 
L 296.228687 265.29154 
L 304.276764 265.836904 
L 312.324841 267.590878 
L 320.372918 269.357134 
L 328.420995 271.505546 
L 336.469071 272.278009 
L 344.517148 273.659964 
L 352.565225 272.860761 
L 360.613302 269.92537 
L 368.661379 275.528581 
L 376.709456 280.147172 
L 384.757533 275.835094 
L 392.80561 276.892254 
L 400.853687 282.906498 
L 408.901764 272.273342 
L 416.949841 282.52417 
L 424.997918 277.046389 
L 433.045995 286.052513 
L 441.094071 282.205996 
L 449.142148 286.436937 
L 457.190225 286.844525 
L 465.238302 289.207417 
L 473.286379 289.53194 
L 481.334456 287.968986 
L 489.382533 287.54408 
L 497.43061 290.891547 
L 505.478687 293.712739 
L 513.526764 293.22586 
L 521.574841 294.151462 
L 529.622918 296.2125 
L 537.670995 296.416826 
L 545.719071 294.967549 
L 553.767148 294.968176 
L 561.815225 299.543045 
L 569.863302 299.700609 
L 577.911379 300.613323 
L 585.959456 299.317065 
L 594.007533 294.581234 
L 602.05561 300.654711 
L 610.103687 298.841141 
L 618.151764 300.327983 
L 626.199841 301.887041 
L 634.247918 299.834608 
L 642.295995 303.284151 
L 650.344071 301.427695 
L 658.392148 302.051924 
L 666.440225 301.068092 
L 674.488302 303.920366 
L 682.536379 303.590815 
L 690.584456 303.416113 
L 698.632533 301.71927 
L 706.68061 303.16987 
L 714.728687 303.223523 
L 722.776764 303.250046 
L 730.824841 304.313666 
L 738.872918 304.353878 
L 746.920995 305.157457 
L 754.969071 305.742695 
L 763.017148 305.557851 
L 771.065225 305.494999 
L 779.113302 304.629179 
L 787.161379 304.974006 
L 795.209456 304.995484 
L 803.257533 305.353118 
L 811.30561 304.037703 
L 819.353687 305.769736 
L 827.401764 299.431791 
L 835.449841 304.360712 
L 843.497918 306.431435 
L 851.545995 304.937483 
L 859.594071 304.538149 
L 867.642148 305.83293 
L 875.690225 306.047214 
L 883.738302 306.448837 
L 891.786379 305.282626 
L 899.834456 304.812201 
L 907.882533 305.308348 
L 915.93061 306.338492 
L 923.978687 304.599662 
L 932.026764 307.390529 
L 940.074841 306.556216 
L 940.074841 279.045387 
L 940.074841 279.045387 
L 932.026764 280.349172 
L 923.978687 276.793994 
L 915.93061 279.918417 
L 907.882533 277.843094 
L 899.834456 276.746943 
L 891.786379 276.834527 
L 883.738302 277.301573 
L 875.690225 278.1813 
L 867.642148 278.709088 
L 859.594071 266.956232 
L 851.545995 274.684913 
L 843.497918 277.150946 
L 835.449841 263.41533 
L 827.401764 232.003837 
L 819.353687 273.74764 
L 811.30561 264.932955 
L 803.257533 273.245052 
L 795.209456 271.665951 
L 787.161379 271.211227 
L 779.113302 267.548119 
L 771.065225 269.030311 
L 763.017148 271.871645 
L 754.969071 272.038246 
L 746.920995 267.901692 
L 738.872918 263.853865 
L 730.824841 266.177839 
L 722.776764 262.792971 
L 714.728687 261.935167 
L 706.68061 261.103199 
L 698.632533 255.949163 
L 690.584456 262.53154 
L 682.536379 262.162559 
L 674.488302 262.110372 
L 666.440225 254.159285 
L 658.392148 256.607301 
L 650.344071 253.878728 
L 642.295995 261.494356 
L 634.247918 249.222851 
L 626.199841 256.799181 
L 618.151764 251.899344 
L 610.103687 246.179606 
L 602.05561 253.223737 
L 594.007533 230.816054 
L 585.959456 249.362463 
L 577.911379 253.050313 
L 569.863302 249.992282 
L 561.815225 250.412744 
L 553.767148 233.142309 
L 545.719071 234.68525 
L 537.670995 239.683795 
L 529.622918 239.247612 
L 521.574841 233.575018 
L 513.526764 231.217642 
L 505.478687 231.638704 
L 497.43061 225.934216 
L 489.382533 214.071073 
L 481.334456 215.205233 
L 473.286379 220.166519 
L 465.238302 218.904369 
L 457.190225 213.53 
L 449.142148 212.601375 
L 441.094071 199.48155 
L 433.045995 212.289593 
L 424.997918 180.60937 
L 416.949841 199.90085 
L 408.901764 169.6603 
L 400.853687 202.781556 
L 392.80561 185.525009 
L 384.757533 183.864346 
L 376.709456 193.941856 
L 368.661379 182.308445 
L 360.613302 165.904718 
L 352.565225 173.977001 
L 344.517148 177.850427 
L 336.469071 174.105812 
L 328.420995 170.593295 
L 320.372918 159.202713 
L 312.324841 162.025905 
L 304.276764 158.46494 
L 296.228687 156.591694 
L 288.18061 153.081146 
L 280.132533 154.017898 
L 272.084456 145.899125 
L 264.036379 134.178102 
L 255.988302 143.979681 
L 247.940225 135.153054 
L 239.892148 130.244638 
L 231.844071 140.025575 
L 223.795995 129.565674 
L 215.747918 103.347279 
L 207.699841 122.361678 
L 199.651764 118.175916 
L 191.603687 116.986608 
L 183.55561 112.967719 
L 175.507533 114.980088 
L 167.459456 108.707836 
L 159.411379 102.85139 
L 151.363302 107.404063 
L 143.315225 98.669882 
L 135.267148 109.299981 
L 127.219071 93.814017 
L 119.170995 100.868449 
L 111.122918 91.681878 
L 103.074841 81.949053 
L 95.026764 93.234802 
L 86.978687 80.184677 
L 78.93061 81.558037 
L 70.882533 79.892023 
L 62.834456 82.006046 
L 54.786379 92.948938 
L 46.738302 94.501868 
L 38.690225 85.6835 
L 30.642148 70.10964 
L 22.594071 71.462885 
L 14.545995 70.865814 
L 6.497918 78.068425 
L -1.550159 76.705128 
L -9.598236 72.491057 
L -17.646313 76.632752 
L -25.69439 78.312846 
L -33.742467 72.316462 
L -41.790544 72.439288 
L -49.838621 71.129552 
L -57.886698 67.05312 
L -65.934775 80.416248 
L -73.982852 75.156527 
L -82.030929 64.504852 
L -90.079005 67.070197 
L -98.127082 72.94011 
L -106.175159 69.899307 
L -114.223236 66.342805 
L -122.271313 71.535096 
L -130.31939 75.044541 
L -138.367467 68.736902 
L -146.415544 65.684905 
L -154.463621 68.436123 
L -162.511698 65.191305 
L -170.559775 65.26808 
L -178.607852 61.407084 
L -186.655929 59.794357 
L -194.704005 52.902628 
L -202.752082 60.149433 
L -210.800159 56.519768 
L -218.848236 57.376067 
L -226.896313 55.389358 
L -234.94439 59.125679 
L -242.992467 52.937243 
L -251.040544 56.056822 
L -259.088621 50.917586 
L -267.136698 51.241718 
L -275.184775 46.52371 
L -283.232852 50.305598 
L -291.280929 53.078713 
L -299.329005 49.829218 
L -307.377082 49.091571 
L -315.425159 43.407458 
L -323.473236 44.151867 
L -331.521313 45.905089 
L -339.56939 39.912541 
L -347.617467 45.711889 
L -355.665544 43.059511 
L -363.713621 35.194487 
L -371.761698 37.982523 
L -379.809775 36.835216 
L -387.857852 33.227983 
L -395.905929 31.071816 
L -403.954005 34.49692 
L -412.002082 45.787284 
L -420.050159 37.341934 
L -428.098236 32.430358 
L -436.146313 32.702866 
L -444.19439 31.399164 
L -452.242467 27.3184 
L -460.290544 25.306615 
L -468.338621 22.449346 
L -476.386698 25.950459 
L -484.434775 26.755133 
L -492.482852 32.372004 
L -500.530929 33.113358 
L -508.579005 30.930608 
L -516.627082 34.638656 
L -524.675159 31.715074 
L -532.723236 34.713622 
L -540.771313 37.146637 
L -548.81939 37.687179 
L -556.867467 37.481447 
L -564.915544 41.461941 
L -572.963621 43.612838 
L -581.011698 45.738266 
L -589.059775 44.312683 
L -597.107852 42.324847 
L -605.155929 44.356331 
L -613.204005 46.744727 
L -621.252082 47.224645 
L -629.300159 49.603199 
L -637.348236 45.276597 
L -645.396313 46.78941 
L -653.44439 46.2489 
L -661.492467 47.354979 
L -669.540544 46.311536 
L -677.588621 44.836496 
L -685.636698 47.971658 
L -693.684775 49.220521 
L -701.732852 46.677665 
L -709.780929 49.049263 
L -717.829005 46.860909 
L -725.877082 47.836994 
L -733.925159 51.471962 
L -741.973236 49.878952 
L -750.021313 50.593066 
L -758.06939 51.886203 
L -766.117467 49.710877 
L -774.165544 50.78175 
L -782.213621 52.523361 
L -790.261698 52.206245 
L -798.309775 53.053764 
L -806.357852 52.958893 
L -814.405929 53.629022 
L -822.454005 54.566517 
L -830.502082 55.683288 
L -838.550159 56.111586 
L -846.598236 56.444364 
L -854.646313 52.594721 
L -862.69439 56.222349 
L -870.742467 57.225753 
L -878.790544 58.249988 
L -886.838621 57.303119 
L -894.886698 56.470941 
L -902.934775 58.233323 
L -910.982852 58.195013 
L -919.030929 59.121469 
L -927.079005 59.420492 
L -935.127082 59.498758 
L -943.175159 59.702747 
L -951.223236 60.586027 
L -959.271313 61.434189 
L -967.31939 62.505391 
L -975.367467 65.346829 
L -983.415544 65.946723 
L -991.463621 64.960555 
L -999.511698 67.355312 
L -1007.559775 66.438536 
L -1015.607852 67.516654 
L -1023.655929 65.515023 
L -1031.704005 70.68257 
L -1039.752082 70.534587 
L -1047.800159 71.15034 
L -1055.848236 73.510971 
L -1063.896313 73.813819 
L -1071.94439 74.670273 
L -1079.992467 73.801086 
L -1088.040544 78.106015 
L -1096.088621 76.866777 
L -1104.136698 80.848438 
L -1112.184775 83.274459 
L -1120.232852 84.976178 
L -1128.280929 88.549616 
L -1136.329005 90.743866 
L -1144.377082 91.707232 
L -1152.425159 93.651841 
L -1160.473236 94.853316 
L -1168.521313 97.048841 
L -1176.56939 96.788071 
L -1184.617467 100.059678 
L -1192.665544 102.316648 
L -1200.713621 104.091636 
L -1208.761698 105.234958 
L -1216.809775 105.671961 
L -1224.857852 109.750427 
L -1232.905929 110.953523 
L -1240.954005 113.571703 
L -1249.002082 116.666036 
L -1257.050159 118.237763 
L -1265.098236 116.067873 
L -1273.146313 116.935374 
L -1281.19439 120.842744 
L -1289.242467 121.246582 
L -1297.290544 123.643913 
L -1305.338621 125.079346 
L -1313.386698 125.398401 
L -1321.434775 126.112085 
L -1329.482852 127.427685 
L -1337.530929 129.352559 
L -1345.579005 126.76995 
L -1353.627082 128.230245 
L -1361.675159 127.628775 
L -1369.723236 130.481837 
L -1377.771313 130.396423 
L -1385.81939 128.731215 
L -1393.867467 130.000602 
L -1401.915544 131.74106 
L -1409.963621 127.064996 
L -1418.011698 131.534998 
L -1426.059775 126.23033 
L -1434.107852 125.876786 
L -1442.155929 124.988311 
L -1450.204005 126.369689 
L -1458.252082 126.866761 
L -1466.300159 125.866783 
L -1474.348236 122.687093 
L -1482.396313 125.005784 
L -1490.44439 119.194803 
L -1498.492467 112.85881 
L -1506.540544 114.580454 
L -1514.588621 117.435171 
L -1522.636698 109.60567 
L -1530.684775 110.076863 
L -1538.732852 107.89398 
L -1546.780929 106.432066 
L -1554.829005 97.074023 
L -1562.877082 96.013287 
L -1570.925159 91.975134 
L -1578.973236 83.936498 
L -1587.021313 78.5612 
L -1595.06939 84.807822 
L -1603.117467 81.10024 
L -1611.165544 76.205642 
L -1619.213621 73.297736 
L -1627.261698 69.491408 
L -1635.309775 64.160314 
L -1643.357852 66.026067 
L -1651.405929 56.579538 
L -1659.454005 53.015406 
L -1667.502082 49.700543 
L -1675.550159 48.716647 
L -1683.598236 48.650872 
L -1691.646313 46.814002 
L -1699.69439 47.828141 
L -1707.742467 51.39839 
L -1715.790544 48.263841 
L -1723.838621 48.365521 
L -1731.886698 53.509064 
L -1739.934775 54.969671 
L -1747.982852 54.788152 
L -1756.030929 62.885636 
L -1764.079005 59.071887 
L -1772.127082 61.37459 
L -1780.175159 68.931688 
L -1788.223236 68.29631 
L -1796.271313 71.487259 
L -1804.31939 74.167012 
L -1812.367467 77.617313 
L -1820.415544 80.921453 
L -1828.463621 84.238228 
L -1836.511698 87.891213 
L -1844.559775 90.60844 
L -1852.607852 94.575685 
L -1860.655929 96.185246 
L -1868.704005 102.382525 
L -1876.752082 103.221809 
L -1884.800159 106.989794 
L -1892.848236 111.036547 
L -1900.896313 114.295542 
L -1908.94439 118.120032 
L -1916.992467 121.53071 
L -1925.040544 125.711819 
L -1933.088621 128.770799 
L -1941.136698 132.135171 
L -1949.184775 136.249921 
L -1957.232852 139.925908 
L -1965.280929 142.685551 
L -1973.329005 146.168643 
L -1981.377082 148.729922 
L -1989.425159 152.268162 
L -1997.473236 155.297115 
L -2005.521313 157.937513 
L -2013.56939 161.144388 
L -2021.617467 163.815437 
L -2029.665544 166.174755 
L -2037.713621 168.764988 
L -2045.761698 170.756675 
L -2053.809775 174.261352 
L -2061.857852 176.920854 
L -2069.905929 179.363664 
L -2077.954005 182.133155 
L -2086.002082 184.167496 
L -2094.050159 186.690646 
L -2102.098236 189.328396 
L -2110.146313 192.141937 
L -2118.19439 194.481982 
L -2126.242467 196.812489 
L -2134.290544 199.128766 
L -2142.338621 201.556244 
L -2150.386698 203.936421 
L -2158.434775 206.038814 
L -2166.482852 208.241743 
L -2174.530929 210.052445 
L -2182.579005 212.450451 
L -2190.627082 214.257392 
L -2198.675159 216.253822 
L -2206.723236 218.618867 
L -2214.771313 220.326714 
L -2222.81939 221.043699 
L -2230.867467 223.037544 
L -2238.915544 224.190912 
L -2246.963621 226.016802 
L -2255.011698 228.217142 
L -2263.059775 229.459484 
L -2271.107852 230.625861 
L -2279.155929 231.091931 
L -2287.204005 232.267515 
L -2295.252082 233.172824 
L -2303.300159 234.075575 
L -2311.348236 235.61983 
L -2319.396313 236.696545 
L -2327.44439 238.00468 
L -2335.492467 237.750162 
L -2343.540544 238.684923 
L -2351.588621 238.160864 
L -2359.636698 239.972795 
L -2367.684775 240.604561 
L -2375.732852 242.009991 
L -2383.780929 240.167687 
L -2391.829005 243.35349 
L -2399.877082 243.584648 
L -2407.925159 242.487876 
L -2415.973236 242.54498 
L -2424.021313 244.378659 
L -2432.06939 247.333191 
L -2440.117467 246.852348 
L -2448.165544 247.26354 
L -2456.213621 245.247209 
L -2464.261698 245.869038 
L -2472.309775 246.891787 
L -2480.357852 248.792506 
L -2488.405929 248.800053 
L -2496.454005 248.881707 
L -2504.502082 249.475754 
L -2512.550159 250.781822 
L -2520.598236 251.010713 
L -2528.646313 251.840493 
L -2536.69439 253.193707 
L -2544.742467 252.872949 
L -2552.790544 254.550412 
L -2560.838621 255.070162 
L -2568.886698 255.619986 
L -2576.934775 256.909667 
L -2584.982852 257.324039 
L -2593.030929 258.656397 
L -2601.079005 260.060225 
L -2609.127082 260.496647 
L -2617.175159 260.490563 
L -2625.223236 260.586231 
L -2633.271313 262.969101 
L -2641.31939 262.925142 
L -2649.367467 264.692076 
L -2657.415544 265.087139 
L -2665.463621 264.951867 
L -2673.511698 266.4146 
L -2681.559775 265.436056 
L -2689.607852 265.868991 
L -2697.655929 267.757085 
L -2705.704005 266.781472 
L -2713.752082 268.651879 
L -2721.800159 269.284008 
L -2729.848236 268.191054 
L -2737.896313 264.135528 
L -2745.94439 266.943904 
L -2753.992467 265.686739 
L -2762.040544 259.618853 
L -2770.088621 264.975343 
L -2778.136698 266.138868 
L -2786.184775 260.592702 
L -2794.232852 259.019063 
L -2802.280929 262.127357 
L -2810.329005 255.975937 
L -2818.377082 245.652241 
L -2826.425159 257.19604 
L -2834.473236 261.874862 
L -2842.521313 264.323095 
L -2850.56939 250.049328 
L -2858.617467 250.49238 
L -2866.665544 243.534634 
L -2874.713621 238.159615 
L -2882.761698 249.583964 
L -2890.809775 244.840406 
L -2898.857852 235.076734 
L -2906.905929 228.234741 
L -2914.954005 228.807466 
L -2923.002082 230.309108 
L -2931.050159 228.945555 
L -2939.098236 228.556073 
L -2947.146313 232.959996 
L -2955.19439 232.846565 
L -2963.242467 230.610234 
L -2971.290544 232.726271 
L -2979.338621 232.08872 
L -2987.386698 232.100379 
L -2995.434775 232.893817 
L -3003.482852 234.937129 
L -3011.530929 236.46664 
L -3019.579005 237.630547 
L -3027.627082 239.606479 
L -3035.675159 240.80965 
L -3043.723236 242.431118 
L -3051.771313 244.599977 
L -3059.81939 246.567907 
L -3067.867467 247.90209 
L -3075.915544 249.500213 
L -3083.963621 251.157954 
L -3092.011698 252.414278 
L -3100.059775 254.064397 
L -3108.107852 255.946878 
L -3116.155929 257.085828 
L -3124.204005 257.994899 
L -3132.252082 259.189707 
L -3140.300159 260.365907 
L -3148.348236 261.409428 
L -3156.396313 262.385721 
L -3164.44439 263.309485 
L -3172.492467 264.510721 
L -3180.540544 265.165565 
L -3188.588621 266.017675 
L -3196.636698 266.918252 
L -3204.684775 267.73024 
L -3212.732852 268.504754 
L -3220.780929 269.174137 
L -3228.829005 269.918111 
L -3236.877082 270.869173 
L -3244.925159 271.56575 
L -3252.973236 272.387996 
L -3261.021313 273.18459 
L -3269.06939 273.982295 
L -3277.117467 274.799859 
L -3285.165544 275.646948 
L -3293.213621 276.37192 
L -3301.261698 277.195059 
L -3309.309775 277.915116 
L -3317.357852 278.666185 
L -3325.405929 279.361521 
L -3333.454005 280.038748 
L -3341.502082 280.678957 
L -3349.550159 281.3334 
L -3357.598236 282.015685 
L -3365.646313 282.550187 
L -3373.69439 283.179625 
L -3381.742467 283.738323 
L -3389.790544 284.299641 
L -3397.838621 284.833402 
L -3405.886698 285.405208 
L -3413.934775 285.952798 
L -3421.982852 286.474271 
L -3430.030929 286.997029 
L -3438.079005 287.50718 
L -3446.127082 288.036448 
L -3454.175159 288.603936 
L -3462.223236 289.056439 
L -3470.271313 289.584637 
L -3478.31939 290.116956 
L -3486.367467 290.646875 
L -3494.415544 291.162739 
L -3502.463621 291.648836 
L -3510.511698 292.180901 
L -3518.559775 292.702867 
L -3526.607852 293.225503 
L -3534.655929 293.743793 
L -3542.704005 294.271739 
L -3550.752082 294.812466 
L -3558.800159 295.320914 
L -3566.848236 295.81486 
L -3574.896313 296.326437 
L -3582.94439 296.83042 
L -3590.992467 297.341475 
L -3599.040544 297.854009 
L -3607.088621 298.368849 
L -3615.136698 298.881015 
L -3623.184775 299.396456 
L -3631.232852 299.901509 
L -3639.280929 300.438426 
L -3647.329005 300.964596 
L -3655.377082 301.466518 
L -3663.425159 301.995603 
L -3671.473236 302.524109 
L -3679.521313 303.072297 
L -3687.56939 303.631437 
L -3695.617467 304.188219 
L -3703.665544 304.757113 
L -3711.713621 305.335055 
L -3719.761698 305.931775 
L -3727.809775 306.520885 
L -3735.857852 307.163621 
L -3743.905929 307.738102 
L -3751.954005 308.362406 
L -3760.002082 308.978645 
L -3768.050159 309.604718 
L -3776.098236 310.213606 
L -3784.146313 310.826579 
L -3792.19439 311.440568 
L -3800.242467 312.056548 
L -3808.290544 312.656768 
L -3816.338621 313.235691 
L -3824.386698 313.813975 
L -3832.434775 314.39137 
L -3840.482852 314.950937 
L -3848.530929 315.51135 
L -3856.579005 316.061146 
L -3864.627082 316.585967 
L -3872.675159 317.100086 
L -3880.723236 317.601518 
L -3888.771313 318.074261 
L -3896.81939 318.530501 
L -3904.867467 318.986046 
L -3912.915544 319.408032 
L -3920.963621 319.79898 
L -3929.011698 320.19537 
L -3937.059775 320.573262 
L -3945.107852 320.906621 
L -3953.155929 321.244667 
L -3961.204005 321.553314 
L -3969.252082 321.861132 
L -3977.300159 322.142928 
L -3985.348236 322.413425 
L -3993.396313 322.664322 
L -4001.44439 322.897527 
L -4009.492467 323.10917 
L -4017.540544 323.305602 
L -4025.588621 323.503491 
L -4033.636698 323.68704 
L -4041.684775 323.851965 
L -4049.732852 324.032424 
L -4057.780929 324.19293 
L -4065.829005 324.347719 
L -4073.877082 324.498915 
L -4081.925159 324.647124 
L -4089.973236 324.767902 
L -4098.021313 324.916212 
L -4106.06939 325.057646 
L -4114.117467 325.181067 
L -4122.165544 325.304356 
L -4130.213621 325.424447 
L -4138.261698 325.549008 
L -4146.309775 325.660901 
L -4154.357852 325.771522 
L -4162.405929 325.883813 
L -4170.454005 325.98538 
L -4178.502082 326.0874 
L -4186.550159 326.186504 
L -4194.598236 326.287143 
L -4202.646313 326.381621 
L -4210.69439 326.45951 
L -4218.742467 326.553939 
L -4226.790544 326.632041 
L -4234.838621 326.708508 
L -4242.886698 326.777366 
L -4250.934775 326.845842 
L -4258.982852 326.912623 
L -4267.030929 326.994235 
L -4275.079005 327.070115 
L -4283.127082 327.135136 
L -4291.175159 327.199338 
L -4299.223236 327.268977 
L -4307.271313 327.342031 
L -4315.31939 327.419836 
z
" clip-path="url(#p38fc897f8e)" style="fill: #008000; fill-opacity: 0.3; stroke: #008000; stroke-opacity: 0.3"/>
   </g>
   <g id="matplotlib.axis_1">
    <g id="xtick_1">
     <g id="line2d_1">
      <defs>
       <path id="m9fc705f924" d="M 0 0 
L 0 3.5 
" style="stroke: #000000; stroke-width: 0.8"/>
      </defs>
      <g>
       <use xlink:href="#m9fc705f924" x="103.074841" y="395.28" style="stroke: #000000; stroke-width: 0.8"/>
      </g>
     </g>
     <g id="text_1">
      <!-- 2023-01-01 -->
      <g transform="translate(17.945813 495.213718) rotate(-45) scale(0.2 -0.2)">
       <defs>
        <path id="DejaVuSans-32" d="M 1228 531 
L 3431 531 
L 3431 0 
L 469 0 
L 469 531 
Q 828 903 1448 1529 
Q 2069 2156 2228 2338 
Q 2531 2678 2651 2914 
Q 2772 3150 2772 3378 
Q 2772 3750 2511 3984 
Q 2250 4219 1831 4219 
Q 1534 4219 1204 4116 
Q 875 4013 500 3803 
L 500 4441 
Q 881 4594 1212 4672 
Q 1544 4750 1819 4750 
Q 2544 4750 2975 4387 
Q 3406 4025 3406 3419 
Q 3406 3131 3298 2873 
Q 3191 2616 2906 2266 
Q 2828 2175 2409 1742 
Q 1991 1309 1228 531 
z
" transform="scale(0.015625)"/>
        <path id="DejaVuSans-30" d="M 2034 4250 
Q 1547 4250 1301 3770 
Q 1056 3291 1056 2328 
Q 1056 1369 1301 889 
Q 1547 409 2034 409 
Q 2525 409 2770 889 
Q 3016 1369 3016 2328 
Q 3016 3291 2770 3770 
Q 2525 4250 2034 4250 
z
M 2034 4750 
Q 2819 4750 3233 4129 
Q 3647 3509 3647 2328 
Q 3647 1150 3233 529 
Q 2819 -91 2034 -91 
Q 1250 -91 836 529 
Q 422 1150 422 2328 
Q 422 3509 836 4129 
Q 1250 4750 2034 4750 
z
" transform="scale(0.015625)"/>
        <path id="DejaVuSans-33" d="M 2597 2516 
Q 3050 2419 3304 2112 
Q 3559 1806 3559 1356 
Q 3559 666 3084 287 
Q 2609 -91 1734 -91 
Q 1441 -91 1130 -33 
Q 819 25 488 141 
L 488 750 
Q 750 597 1062 519 
Q 1375 441 1716 441 
Q 2309 441 2620 675 
Q 2931 909 2931 1356 
Q 2931 1769 2642 2001 
Q 2353 2234 1838 2234 
L 1294 2234 
L 1294 2753 
L 1863 2753 
Q 2328 2753 2575 2939 
Q 2822 3125 2822 3475 
Q 2822 3834 2567 4026 
Q 2313 4219 1838 4219 
Q 1578 4219 1281 4162 
Q 984 4106 628 3988 
L 628 4550 
Q 988 4650 1302 4700 
Q 1616 4750 1894 4750 
Q 2613 4750 3031 4423 
Q 3450 4097 3450 3541 
Q 3450 3153 3228 2886 
Q 3006 2619 2597 2516 
z
" transform="scale(0.015625)"/>
        <path id="DejaVuSans-2d" d="M 313 2009 
L 1997 2009 
L 1997 1497 
L 313 1497 
L 313 2009 
z
" transform="scale(0.015625)"/>
        <path id="DejaVuSans-31" d="M 794 531 
L 1825 531 
L 1825 4091 
L 703 3866 
L 703 4441 
L 1819 4666 
L 2450 4666 
L 2450 531 
L 3481 531 
L 3481 0 
L 794 0 
L 794 531 
z
" transform="scale(0.015625)"/>
       </defs>
       <use xlink:href="#DejaVuSans-32"/>
       <use xlink:href="#DejaVuSans-30" x="63.623047"/>
       <use xlink:href="#DejaVuSans-32" x="127.246094"/>
       <use xlink:href="#DejaVuSans-33" x="190.869141"/>
       <use xlink:href="#DejaVuSans-2d" x="254.492188"/>
       <use xlink:href="#DejaVuSans-30" x="290.576172"/>
       <use xlink:href="#DejaVuSans-31" x="354.199219"/>
       <use xlink:href="#DejaVuSans-2d" x="417.822266"/>
       <use xlink:href="#DejaVuSans-30" x="453.90625"/>
       <use xlink:href="#DejaVuSans-31" x="517.529297"/>
      </g>
     </g>
    </g>
    <g id="xtick_2">
     <g id="line2d_2">
      <g>
       <use xlink:href="#m9fc705f924" x="215.747918" y="395.28" style="stroke: #000000; stroke-width: 0.8"/>
      </g>
     </g>
     <g id="text_2">
      <!-- 2023-01-15 -->
      <g transform="translate(130.61889 495.213718) rotate(-45) scale(0.2 -0.2)">
       <defs>
        <path id="DejaVuSans-35" d="M 691 4666 
L 3169 4666 
L 3169 4134 
L 1269 4134 
L 1269 2991 
Q 1406 3038 1543 3061 
Q 1681 3084 1819 3084 
Q 2600 3084 3056 2656 
Q 3513 2228 3513 1497 
Q 3513 744 3044 326 
Q 2575 -91 1722 -91 
Q 1428 -91 1123 -41 
Q 819 9 494 109 
L 494 744 
Q 775 591 1075 516 
Q 1375 441 1709 441 
Q 2250 441 2565 725 
Q 2881 1009 2881 1497 
Q 2881 1984 2565 2268 
Q 2250 2553 1709 2553 
Q 1456 2553 1204 2497 
Q 953 2441 691 2322 
L 691 4666 
z
" transform="scale(0.015625)"/>
       </defs>
       <use xlink:href="#DejaVuSans-32"/>
       <use xlink:href="#DejaVuSans-30" x="63.623047"/>
       <use xlink:href="#DejaVuSans-32" x="127.246094"/>
       <use xlink:href="#DejaVuSans-33" x="190.869141"/>
       <use xlink:href="#DejaVuSans-2d" x="254.492188"/>
       <use xlink:href="#DejaVuSans-30" x="290.576172"/>
       <use xlink:href="#DejaVuSans-31" x="354.199219"/>
       <use xlink:href="#DejaVuSans-2d" x="417.822266"/>
       <use xlink:href="#DejaVuSans-31" x="453.90625"/>
       <use xlink:href="#DejaVuSans-35" x="517.529297"/>
      </g>
     </g>
    </g>
    <g id="xtick_3">
     <g id="line2d_3">
      <g>
       <use xlink:href="#m9fc705f924" x="328.420995" y="395.28" style="stroke: #000000; stroke-width: 0.8"/>
      </g>
     </g>
     <g id="text_3">
      <!-- 2023-01-29 -->
      <g transform="translate(243.291967 495.213718) rotate(-45) scale(0.2 -0.2)">
       <defs>
        <path id="DejaVuSans-39" d="M 703 97 
L 703 672 
Q 941 559 1184 500 
Q 1428 441 1663 441 
Q 2288 441 2617 861 
Q 2947 1281 2994 2138 
Q 2813 1869 2534 1725 
Q 2256 1581 1919 1581 
Q 1219 1581 811 2004 
Q 403 2428 403 3163 
Q 403 3881 828 4315 
Q 1253 4750 1959 4750 
Q 2769 4750 3195 4129 
Q 3622 3509 3622 2328 
Q 3622 1225 3098 567 
Q 2575 -91 1691 -91 
Q 1453 -91 1209 -44 
Q 966 3 703 97 
z
M 1959 2075 
Q 2384 2075 2632 2365 
Q 2881 2656 2881 3163 
Q 2881 3666 2632 3958 
Q 2384 4250 1959 4250 
Q 1534 4250 1286 3958 
Q 1038 3666 1038 3163 
Q 1038 2656 1286 2365 
Q 1534 2075 1959 2075 
z
" transform="scale(0.015625)"/>
       </defs>
       <use xlink:href="#DejaVuSans-32"/>
       <use xlink:href="#DejaVuSans-30" x="63.623047"/>
       <use xlink:href="#DejaVuSans-32" x="127.246094"/>
       <use xlink:href="#DejaVuSans-33" x="190.869141"/>
       <use xlink:href="#DejaVuSans-2d" x="254.492188"/>
       <use xlink:href="#DejaVuSans-30" x="290.576172"/>
       <use xlink:href="#DejaVuSans-31" x="354.199219"/>
       <use xlink:href="#DejaVuSans-2d" x="417.822266"/>
       <use xlink:href="#DejaVuSans-32" x="453.90625"/>
       <use xlink:href="#DejaVuSans-39" x="517.529297"/>
      </g>
     </g>
    </g>
    <g id="xtick_4">
     <g id="line2d_4">
      <g>
       <use xlink:href="#m9fc705f924" x="441.094071" y="395.28" style="stroke: #000000; stroke-width: 0.8"/>
      </g>
     </g>
     <g id="text_4">
      <!-- 2023-02-12 -->
      <g transform="translate(355.965044 495.213718) rotate(-45) scale(0.2 -0.2)">
       <use xlink:href="#DejaVuSans-32"/>
       <use xlink:href="#DejaVuSans-30" x="63.623047"/>
       <use xlink:href="#DejaVuSans-32" x="127.246094"/>
       <use xlink:href="#DejaVuSans-33" x="190.869141"/>
       <use xlink:href="#DejaVuSans-2d" x="254.492188"/>
       <use xlink:href="#DejaVuSans-30" x="290.576172"/>
       <use xlink:href="#DejaVuSans-32" x="354.199219"/>
       <use xlink:href="#DejaVuSans-2d" x="417.822266"/>
       <use xlink:href="#DejaVuSans-31" x="453.90625"/>
       <use xlink:href="#DejaVuSans-32" x="517.529297"/>
      </g>
     </g>
    </g>
    <g id="xtick_5">
     <g id="line2d_5">
      <g>
       <use xlink:href="#m9fc705f924" x="553.767148" y="395.28" style="stroke: #000000; stroke-width: 0.8"/>
      </g>
     </g>
     <g id="text_5">
      <!-- 2023-02-26 -->
      <g transform="translate(468.638121 495.213718) rotate(-45) scale(0.2 -0.2)">
       <defs>
        <path id="DejaVuSans-36" d="M 2113 2584 
Q 1688 2584 1439 2293 
Q 1191 2003 1191 1497 
Q 1191 994 1439 701 
Q 1688 409 2113 409 
Q 2538 409 2786 701 
Q 3034 994 3034 1497 
Q 3034 2003 2786 2293 
Q 2538 2584 2113 2584 
z
M 3366 4563 
L 3366 3988 
Q 3128 4100 2886 4159 
Q 2644 4219 2406 4219 
Q 1781 4219 1451 3797 
Q 1122 3375 1075 2522 
Q 1259 2794 1537 2939 
Q 1816 3084 2150 3084 
Q 2853 3084 3261 2657 
Q 3669 2231 3669 1497 
Q 3669 778 3244 343 
Q 2819 -91 2113 -91 
Q 1303 -91 875 529 
Q 447 1150 447 2328 
Q 447 3434 972 4092 
Q 1497 4750 2381 4750 
Q 2619 4750 2861 4703 
Q 3103 4656 3366 4563 
z
" transform="scale(0.015625)"/>
       </defs>
       <use xlink:href="#DejaVuSans-32"/>
       <use xlink:href="#DejaVuSans-30" x="63.623047"/>
       <use xlink:href="#DejaVuSans-32" x="127.246094"/>
       <use xlink:href="#DejaVuSans-33" x="190.869141"/>
       <use xlink:href="#DejaVuSans-2d" x="254.492188"/>
       <use xlink:href="#DejaVuSans-30" x="290.576172"/>
       <use xlink:href="#DejaVuSans-32" x="354.199219"/>
       <use xlink:href="#DejaVuSans-2d" x="417.822266"/>
       <use xlink:href="#DejaVuSans-32" x="453.90625"/>
       <use xlink:href="#DejaVuSans-36" x="517.529297"/>
      </g>
     </g>
    </g>
    <g id="xtick_6">
     <g id="line2d_6">
      <g>
       <use xlink:href="#m9fc705f924" x="666.440225" y="395.28" style="stroke: #000000; stroke-width: 0.8"/>
      </g>
     </g>
     <g id="text_6">
      <!-- 2023-03-12 -->
      <g transform="translate(581.311198 495.213718) rotate(-45) scale(0.2 -0.2)">
       <use xlink:href="#DejaVuSans-32"/>
       <use xlink:href="#DejaVuSans-30" x="63.623047"/>
       <use xlink:href="#DejaVuSans-32" x="127.246094"/>
       <use xlink:href="#DejaVuSans-33" x="190.869141"/>
       <use xlink:href="#DejaVuSans-2d" x="254.492188"/>
       <use xlink:href="#DejaVuSans-30" x="290.576172"/>
       <use xlink:href="#DejaVuSans-33" x="354.199219"/>
       <use xlink:href="#DejaVuSans-2d" x="417.822266"/>
       <use xlink:href="#DejaVuSans-31" x="453.90625"/>
       <use xlink:href="#DejaVuSans-32" x="517.529297"/>
      </g>
     </g>
    </g>
    <g id="xtick_7">
     <g id="line2d_7">
      <g>
       <use xlink:href="#m9fc705f924" x="779.113302" y="395.28" style="stroke: #000000; stroke-width: 0.8"/>
      </g>
     </g>
     <g id="text_7">
      <!-- 2023-03-26 -->
      <g transform="translate(693.984275 495.213718) rotate(-45) scale(0.2 -0.2)">
       <use xlink:href="#DejaVuSans-32"/>
       <use xlink:href="#DejaVuSans-30" x="63.623047"/>
       <use xlink:href="#DejaVuSans-32" x="127.246094"/>
       <use xlink:href="#DejaVuSans-33" x="190.869141"/>
       <use xlink:href="#DejaVuSans-2d" x="254.492188"/>
       <use xlink:href="#DejaVuSans-30" x="290.576172"/>
       <use xlink:href="#DejaVuSans-33" x="354.199219"/>
       <use xlink:href="#DejaVuSans-2d" x="417.822266"/>
       <use xlink:href="#DejaVuSans-32" x="453.90625"/>
       <use xlink:href="#DejaVuSans-36" x="517.529297"/>
      </g>
     </g>
    </g>
    <g id="xtick_8">
     <g id="line2d_8">
      <g>
       <use xlink:href="#m9fc705f924" x="891.786379" y="395.28" style="stroke: #000000; stroke-width: 0.8"/>
      </g>
     </g>
     <g id="text_8">
      <!-- 2023-04-09 -->
      <g transform="translate(806.657352 495.213718) rotate(-45) scale(0.2 -0.2)">
       <defs>
        <path id="DejaVuSans-34" d="M 2419 4116 
L 825 1625 
L 2419 1625 
L 2419 4116 
z
M 2253 4666 
L 3047 4666 
L 3047 1625 
L 3713 1625 
L 3713 1100 
L 3047 1100 
L 3047 0 
L 2419 0 
L 2419 1100 
L 313 1100 
L 313 1709 
L 2253 4666 
z
" transform="scale(0.015625)"/>
       </defs>
       <use xlink:href="#DejaVuSans-32"/>
       <use xlink:href="#DejaVuSans-30" x="63.623047"/>
       <use xlink:href="#DejaVuSans-32" x="127.246094"/>
       <use xlink:href="#DejaVuSans-33" x="190.869141"/>
       <use xlink:href="#DejaVuSans-2d" x="254.492188"/>
       <use xlink:href="#DejaVuSans-30" x="290.576172"/>
       <use xlink:href="#DejaVuSans-34" x="354.199219"/>
       <use xlink:href="#DejaVuSans-2d" x="417.822266"/>
       <use xlink:href="#DejaVuSans-30" x="453.90625"/>
       <use xlink:href="#DejaVuSans-39" x="517.529297"/>
      </g>
     </g>
    </g>
    <g id="xtick_9">
     <g id="line2d_9">
      <g>
       <use xlink:href="#m9fc705f924" x="940.074841" y="395.28" style="stroke: #000000; stroke-width: 0.8"/>
      </g>
     </g>
     <g id="text_9">
      <!-- 2023-04-15 -->
      <g transform="translate(854.945813 495.213718) rotate(-45) scale(0.2 -0.2)">
       <use xlink:href="#DejaVuSans-32"/>
       <use xlink:href="#DejaVuSans-30" x="63.623047"/>
       <use xlink:href="#DejaVuSans-32" x="127.246094"/>
       <use xlink:href="#DejaVuSans-33" x="190.869141"/>
       <use xlink:href="#DejaVuSans-2d" x="254.492188"/>
       <use xlink:href="#DejaVuSans-30" x="290.576172"/>
       <use xlink:href="#DejaVuSans-34" x="354.199219"/>
       <use xlink:href="#DejaVuSans-2d" x="417.822266"/>
       <use xlink:href="#DejaVuSans-31" x="453.90625"/>
       <use xlink:href="#DejaVuSans-35" x="517.529297"/>
      </g>
     </g>
    </g>
   </g>
   <g id="matplotlib.axis_2">
    <g id="ytick_1">
     <g id="line2d_10">
      <defs>
       <path id="m4f9aa5733b" d="M 0 0 
L -3.5 0 
" style="stroke: #000000; stroke-width: 0.8"/>
      </defs>
      <g>
       <use xlink:href="#m4f9aa5733b" x="103.074841" y="389.117501" style="stroke: #000000; stroke-width: 0.8"/>
      </g>
     </g>
     <g id="text_10">
      <!-- −0.05 -->
      <g transform="translate(34.784216 396.715938) scale(0.2 -0.2)">
       <defs>
        <path id="DejaVuSans-2212" d="M 678 2272 
L 4684 2272 
L 4684 1741 
L 678 1741 
L 678 2272 
z
" transform="scale(0.015625)"/>
        <path id="DejaVuSans-2e" d="M 684 794 
L 1344 794 
L 1344 0 
L 684 0 
L 684 794 
z
" transform="scale(0.015625)"/>
       </defs>
       <use xlink:href="#DejaVuSans-2212"/>
       <use xlink:href="#DejaVuSans-30" x="83.789062"/>
       <use xlink:href="#DejaVuSans-2e" x="147.412109"/>
       <use xlink:href="#DejaVuSans-30" x="179.199219"/>
       <use xlink:href="#DejaVuSans-35" x="242.822266"/>
      </g>
     </g>
    </g>
    <g id="ytick_2">
     <g id="line2d_11">
      <g>
       <use xlink:href="#m4f9aa5733b" x="103.074841" y="327.492507" style="stroke: #000000; stroke-width: 0.8"/>
      </g>
     </g>
     <g id="text_11">
      <!-- 0.00 -->
      <g transform="translate(51.543591 335.090944) scale(0.2 -0.2)">
       <use xlink:href="#DejaVuSans-30"/>
       <use xlink:href="#DejaVuSans-2e" x="63.623047"/>
       <use xlink:href="#DejaVuSans-30" x="95.410156"/>
       <use xlink:href="#DejaVuSans-30" x="159.033203"/>
      </g>
     </g>
    </g>
    <g id="ytick_3">
     <g id="line2d_12">
      <g>
       <use xlink:href="#m4f9aa5733b" x="103.074841" y="265.867513" style="stroke: #000000; stroke-width: 0.8"/>
      </g>
     </g>
     <g id="text_12">
      <!-- 0.05 -->
      <g transform="translate(51.543591 273.46595) scale(0.2 -0.2)">
       <use xlink:href="#DejaVuSans-30"/>
       <use xlink:href="#DejaVuSans-2e" x="63.623047"/>
       <use xlink:href="#DejaVuSans-30" x="95.410156"/>
       <use xlink:href="#DejaVuSans-35" x="159.033203"/>
      </g>
     </g>
    </g>
    <g id="ytick_4">
     <g id="line2d_13">
      <g>
       <use xlink:href="#m4f9aa5733b" x="103.074841" y="204.242519" style="stroke: #000000; stroke-width: 0.8"/>
      </g>
     </g>
     <g id="text_13">
      <!-- 0.10 -->
      <g transform="translate(51.543591 211.840956) scale(0.2 -0.2)">
       <use xlink:href="#DejaVuSans-30"/>
       <use xlink:href="#DejaVuSans-2e" x="63.623047"/>
       <use xlink:href="#DejaVuSans-31" x="95.410156"/>
       <use xlink:href="#DejaVuSans-30" x="159.033203"/>
      </g>
     </g>
    </g>
    <g id="ytick_5">
     <g id="line2d_14">
      <g>
       <use xlink:href="#m4f9aa5733b" x="103.074841" y="142.617525" style="stroke: #000000; stroke-width: 0.8"/>
      </g>
     </g>
     <g id="text_14">
      <!-- 0.15 -->
      <g transform="translate(51.543591 150.215962) scale(0.2 -0.2)">
       <use xlink:href="#DejaVuSans-30"/>
       <use xlink:href="#DejaVuSans-2e" x="63.623047"/>
       <use xlink:href="#DejaVuSans-31" x="95.410156"/>
       <use xlink:href="#DejaVuSans-35" x="159.033203"/>
      </g>
     </g>
    </g>
    <g id="ytick_6">
     <g id="line2d_15">
      <g>
       <use xlink:href="#m4f9aa5733b" x="103.074841" y="80.992531" style="stroke: #000000; stroke-width: 0.8"/>
      </g>
     </g>
     <g id="text_15">
      <!-- 0.20 -->
      <g transform="translate(51.543591 88.590968) scale(0.2 -0.2)">
       <use xlink:href="#DejaVuSans-30"/>
       <use xlink:href="#DejaVuSans-2e" x="63.623047"/>
       <use xlink:href="#DejaVuSans-32" x="95.410156"/>
       <use xlink:href="#DejaVuSans-30" x="159.033203"/>
      </g>
     </g>
    </g>
    <g id="ytick_7">
     <g id="line2d_16">
      <g>
       <use xlink:href="#m4f9aa5733b" x="103.074841" y="19.367537" style="stroke: #000000; stroke-width: 0.8"/>
      </g>
     </g>
     <g id="text_16">
      <!-- 0.25 -->
      <g transform="translate(51.543591 26.965975) scale(0.2 -0.2)">
       <use xlink:href="#DejaVuSans-30"/>
       <use xlink:href="#DejaVuSans-2e" x="63.623047"/>
       <use xlink:href="#DejaVuSans-32" x="95.410156"/>
       <use xlink:href="#DejaVuSans-35" x="159.033203"/>
      </g>
     </g>
    </g>
    <g id="text_17">
     <!-- Relative fitness $\gamma_y$ -->
     <g transform="translate(24.584216 291.84) rotate(-90) scale(0.2 -0.2)">
      <defs>
       <path id="DejaVuSans-52" d="M 2841 2188 
Q 3044 2119 3236 1894 
Q 3428 1669 3622 1275 
L 4263 0 
L 3584 0 
L 2988 1197 
Q 2756 1666 2539 1819 
Q 2322 1972 1947 1972 
L 1259 1972 
L 1259 0 
L 628 0 
L 628 4666 
L 2053 4666 
Q 2853 4666 3247 4331 
Q 3641 3997 3641 3322 
Q 3641 2881 3436 2590 
Q 3231 2300 2841 2188 
z
M 1259 4147 
L 1259 2491 
L 2053 2491 
Q 2509 2491 2742 2702 
Q 2975 2913 2975 3322 
Q 2975 3731 2742 3939 
Q 2509 4147 2053 4147 
L 1259 4147 
z
" transform="scale(0.015625)"/>
       <path id="DejaVuSans-65" d="M 3597 1894 
L 3597 1613 
L 953 1613 
Q 991 1019 1311 708 
Q 1631 397 2203 397 
Q 2534 397 2845 478 
Q 3156 559 3463 722 
L 3463 178 
Q 3153 47 2828 -22 
Q 2503 -91 2169 -91 
Q 1331 -91 842 396 
Q 353 884 353 1716 
Q 353 2575 817 3079 
Q 1281 3584 2069 3584 
Q 2775 3584 3186 3129 
Q 3597 2675 3597 1894 
z
M 3022 2063 
Q 3016 2534 2758 2815 
Q 2500 3097 2075 3097 
Q 1594 3097 1305 2825 
Q 1016 2553 972 2059 
L 3022 2063 
z
" transform="scale(0.015625)"/>
       <path id="DejaVuSans-6c" d="M 603 4863 
L 1178 4863 
L 1178 0 
L 603 0 
L 603 4863 
z
" transform="scale(0.015625)"/>
       <path id="DejaVuSans-61" d="M 2194 1759 
Q 1497 1759 1228 1600 
Q 959 1441 959 1056 
Q 959 750 1161 570 
Q 1363 391 1709 391 
Q 2188 391 2477 730 
Q 2766 1069 2766 1631 
L 2766 1759 
L 2194 1759 
z
M 3341 1997 
L 3341 0 
L 2766 0 
L 2766 531 
Q 2569 213 2275 61 
Q 1981 -91 1556 -91 
Q 1019 -91 701 211 
Q 384 513 384 1019 
Q 384 1609 779 1909 
Q 1175 2209 1959 2209 
L 2766 2209 
L 2766 2266 
Q 2766 2663 2505 2880 
Q 2244 3097 1772 3097 
Q 1472 3097 1187 3025 
Q 903 2953 641 2809 
L 641 3341 
Q 956 3463 1253 3523 
Q 1550 3584 1831 3584 
Q 2591 3584 2966 3190 
Q 3341 2797 3341 1997 
z
" transform="scale(0.015625)"/>
       <path id="DejaVuSans-74" d="M 1172 4494 
L 1172 3500 
L 2356 3500 
L 2356 3053 
L 1172 3053 
L 1172 1153 
Q 1172 725 1289 603 
Q 1406 481 1766 481 
L 2356 481 
L 2356 0 
L 1766 0 
Q 1100 0 847 248 
Q 594 497 594 1153 
L 594 3053 
L 172 3053 
L 172 3500 
L 594 3500 
L 594 4494 
L 1172 4494 
z
" transform="scale(0.015625)"/>
       <path id="DejaVuSans-69" d="M 603 3500 
L 1178 3500 
L 1178 0 
L 603 0 
L 603 3500 
z
M 603 4863 
L 1178 4863 
L 1178 4134 
L 603 4134 
L 603 4863 
z
" transform="scale(0.015625)"/>
       <path id="DejaVuSans-76" d="M 191 3500 
L 800 3500 
L 1894 563 
L 2988 3500 
L 3597 3500 
L 2284 0 
L 1503 0 
L 191 3500 
z
" transform="scale(0.015625)"/>
       <path id="DejaVuSans-20" transform="scale(0.015625)"/>
       <path id="DejaVuSans-66" d="M 2375 4863 
L 2375 4384 
L 1825 4384 
Q 1516 4384 1395 4259 
Q 1275 4134 1275 3809 
L 1275 3500 
L 2222 3500 
L 2222 3053 
L 1275 3053 
L 1275 0 
L 697 0 
L 697 3053 
L 147 3053 
L 147 3500 
L 697 3500 
L 697 3744 
Q 697 4328 969 4595 
Q 1241 4863 1831 4863 
L 2375 4863 
z
" transform="scale(0.015625)"/>
       <path id="DejaVuSans-6e" d="M 3513 2113 
L 3513 0 
L 2938 0 
L 2938 2094 
Q 2938 2591 2744 2837 
Q 2550 3084 2163 3084 
Q 1697 3084 1428 2787 
Q 1159 2491 1159 1978 
L 1159 0 
L 581 0 
L 581 3500 
L 1159 3500 
L 1159 2956 
Q 1366 3272 1645 3428 
Q 1925 3584 2291 3584 
Q 2894 3584 3203 3211 
Q 3513 2838 3513 2113 
z
" transform="scale(0.015625)"/>
       <path id="DejaVuSans-73" d="M 2834 3397 
L 2834 2853 
Q 2591 2978 2328 3040 
Q 2066 3103 1784 3103 
Q 1356 3103 1142 2972 
Q 928 2841 928 2578 
Q 928 2378 1081 2264 
Q 1234 2150 1697 2047 
L 1894 2003 
Q 2506 1872 2764 1633 
Q 3022 1394 3022 966 
Q 3022 478 2636 193 
Q 2250 -91 1575 -91 
Q 1294 -91 989 -36 
Q 684 19 347 128 
L 347 722 
Q 666 556 975 473 
Q 1284 391 1588 391 
Q 1994 391 2212 530 
Q 2431 669 2431 922 
Q 2431 1156 2273 1281 
Q 2116 1406 1581 1522 
L 1381 1569 
Q 847 1681 609 1914 
Q 372 2147 372 2553 
Q 372 3047 722 3315 
Q 1072 3584 1716 3584 
Q 2034 3584 2315 3537 
Q 2597 3491 2834 3397 
z
" transform="scale(0.015625)"/>
       <path id="DejaVuSans-Oblique-3b3" d="M 1491 2950 
L 1838 788 
L 3456 3500 
L 4066 3500 
L 1972 0 
L 1713 -1331 
L 1138 -1331 
L 1397 0 
L 988 2613 
Q 925 3006 628 3006 
L 475 3006 
L 569 3500 
L 788 3500 
Q 1403 3500 1491 2950 
z
" transform="scale(0.015625)"/>
       <path id="DejaVuSans-Oblique-79" d="M 1588 -325 
Q 1188 -997 936 -1164 
Q 684 -1331 294 -1331 
L -159 -1331 
L -63 -850 
L 269 -850 
Q 509 -850 678 -719 
Q 847 -588 1056 -206 
L 1234 128 
L 459 3500 
L 1069 3500 
L 1650 819 
L 3256 3500 
L 3859 3500 
L 1588 -325 
z
" transform="scale(0.015625)"/>
      </defs>
      <use xlink:href="#DejaVuSans-52" transform="translate(0 0.015625)"/>
      <use xlink:href="#DejaVuSans-65" transform="translate(69.482422 0.015625)"/>
      <use xlink:href="#DejaVuSans-6c" transform="translate(131.005859 0.015625)"/>
      <use xlink:href="#DejaVuSans-61" transform="translate(158.789062 0.015625)"/>
      <use xlink:href="#DejaVuSans-74" transform="translate(220.068359 0.015625)"/>
      <use xlink:href="#DejaVuSans-69" transform="translate(259.277344 0.015625)"/>
      <use xlink:href="#DejaVuSans-76" transform="translate(287.060547 0.015625)"/>
      <use xlink:href="#DejaVuSans-65" transform="translate(346.240234 0.015625)"/>
      <use xlink:href="#DejaVuSans-20" transform="translate(407.763672 0.015625)"/>
      <use xlink:href="#DejaVuSans-66" transform="translate(439.550781 0.015625)"/>
      <use xlink:href="#DejaVuSans-69" transform="translate(474.755859 0.015625)"/>
      <use xlink:href="#DejaVuSans-74" transform="translate(502.539062 0.015625)"/>
      <use xlink:href="#DejaVuSans-6e" transform="translate(541.748047 0.015625)"/>
      <use xlink:href="#DejaVuSans-65" transform="translate(605.126953 0.015625)"/>
      <use xlink:href="#DejaVuSans-73" transform="translate(666.650391 0.015625)"/>
      <use xlink:href="#DejaVuSans-73" transform="translate(718.75 0.015625)"/>
      <use xlink:href="#DejaVuSans-20" transform="translate(770.849609 0.015625)"/>
      <use xlink:href="#DejaVuSans-Oblique-3b3" transform="translate(802.636719 0.015625)"/>
      <use xlink:href="#DejaVuSans-Oblique-79" transform="translate(861.816406 -16.390625) scale(0.7)"/>
     </g>
    </g>
   </g>
   <g id="line2d_17">
    <path d="M 103.074841 327.492507 
L 1263.971716 327.492507 
" clip-path="url(#p38fc897f8e)" style="fill: none; stroke-dasharray: 7.4,3.2; stroke-dashoffset: 0; stroke: #000000; stroke-width: 2"/>
   </g>
   <g id="patch_3">
    <path d="M 103.074841 395.28 
L 103.074841 7.2 
" style="fill: none; stroke: #000000; stroke-width: 0.8; stroke-linejoin: miter; stroke-linecap: square"/>
   </g>
   <g id="patch_4">
    <path d="M 940.074841 395.28 
L 940.074841 7.2 
" style="fill: none; stroke: #000000; stroke-width: 0.8; stroke-linejoin: miter; stroke-linecap: square"/>
   </g>
   <g id="patch_5">
    <path d="M 103.074841 395.28 
L 940.074841 395.28 
" style="fill: none; stroke: #000000; stroke-width: 0.8; stroke-linejoin: miter; stroke-linecap: square"/>
   </g>
   <g id="patch_6">
    <path d="M 103.074841 7.2 
L 940.074841 7.2 
" style="fill: none; stroke: #000000; stroke-width: 0.8; stroke-linejoin: miter; stroke-linecap: square"/>
   </g>
   <g id="legend_1">
    <g id="patch_7">
     <path d="M 1111.474841 395.28 
L 1251.771716 395.28 
Q 1255.771716 395.28 1255.771716 391.28 
L 1255.771716 363.92375 
Q 1255.771716 359.92375 1251.771716 359.92375 
L 1111.474841 359.92375 
Q 1107.474841 359.92375 1107.474841 363.92375 
L 1107.474841 391.28 
Q 1107.474841 395.28 1111.474841 395.28 
z
" style="fill: #ffffff; opacity: 0.8; stroke: #cccccc; stroke-linejoin: miter"/>
    </g>
    <g id="patch_8">
     <path d="M 1115.474841 383.120625 
L 1155.474841 383.120625 
L 1155.474841 369.120625 
L 1115.474841 369.120625 
z
" style="fill: #008000; fill-opacity: 0.3; stroke: #008000; stroke-opacity: 0.3; stroke-linejoin: miter"/>
    </g>
    <g id="text_18">
     <!-- EG.5.1* -->
     <g transform="translate(1171.474841 383.120625) scale(0.2 -0.2)">
      <defs>
       <path id="DejaVuSans-45" d="M 628 4666 
L 3578 4666 
L 3578 4134 
L 1259 4134 
L 1259 2753 
L 3481 2753 
L 3481 2222 
L 1259 2222 
L 1259 531 
L 3634 531 
L 3634 0 
L 628 0 
L 628 4666 
z
" transform="scale(0.015625)"/>
       <path id="DejaVuSans-47" d="M 3809 666 
L 3809 1919 
L 2778 1919 
L 2778 2438 
L 4434 2438 
L 4434 434 
Q 4069 175 3628 42 
Q 3188 -91 2688 -91 
Q 1594 -91 976 548 
Q 359 1188 359 2328 
Q 359 3472 976 4111 
Q 1594 4750 2688 4750 
Q 3144 4750 3555 4637 
Q 3966 4525 4313 4306 
L 4313 3634 
Q 3963 3931 3569 4081 
Q 3175 4231 2741 4231 
Q 1884 4231 1454 3753 
Q 1025 3275 1025 2328 
Q 1025 1384 1454 906 
Q 1884 428 2741 428 
Q 3075 428 3337 486 
Q 3600 544 3809 666 
z
" transform="scale(0.015625)"/>
       <path id="DejaVuSans-2a" d="M 3009 3897 
L 1888 3291 
L 3009 2681 
L 2828 2375 
L 1778 3009 
L 1778 1831 
L 1422 1831 
L 1422 3009 
L 372 2375 
L 191 2681 
L 1313 3291 
L 191 3897 
L 372 4206 
L 1422 3572 
L 1422 4750 
L 1778 4750 
L 1778 3572 
L 2828 4206 
L 3009 3897 
z
" transform="scale(0.015625)"/>
      </defs>
      <use xlink:href="#DejaVuSans-45"/>
      <use xlink:href="#DejaVuSans-47" x="63.183594"/>
      <use xlink:href="#DejaVuSans-2e" x="140.673828"/>
      <use xlink:href="#DejaVuSans-35" x="172.460938"/>
      <use xlink:href="#DejaVuSans-2e" x="236.083984"/>
      <use xlink:href="#DejaVuSans-31" x="267.871094"/>
      <use xlink:href="#DejaVuSans-2a" x="331.494141"/>
     </g>
    </g>
   </g>
  </g>
  <g id="axes_2">
   <g id="matplotlib.axis_3">
    <g id="ytick_8">
     <g id="line2d_18">
      <defs>
       <path id="m48015de93c" d="M 0 0 
L 3.5 0 
" style="stroke: #000000; stroke-width: 0.8"/>
      </defs>
      <g>
       <use xlink:href="#m48015de93c" x="940.074841" y="389.117501" style="stroke: #000000; stroke-width: 0.8"/>
      </g>
     </g>
     <g id="text_19">
      <!-- −0.05 -->
      <g transform="translate(947.074841 396.715938) scale(0.2 -0.2)">
       <use xlink:href="#DejaVuSans-2212"/>
       <use xlink:href="#DejaVuSans-30" x="83.789062"/>
       <use xlink:href="#DejaVuSans-2e" x="147.412109"/>
       <use xlink:href="#DejaVuSans-30" x="179.199219"/>
       <use xlink:href="#DejaVuSans-35" x="242.822266"/>
      </g>
     </g>
    </g>
    <g id="ytick_9">
     <g id="line2d_19">
      <g>
       <use xlink:href="#m48015de93c" x="940.074841" y="327.492507" style="stroke: #000000; stroke-width: 0.8"/>
      </g>
     </g>
     <g id="text_20">
      <!-- 0.00 -->
      <g transform="translate(947.074841 335.090944) scale(0.2 -0.2)">
       <use xlink:href="#DejaVuSans-30"/>
       <use xlink:href="#DejaVuSans-2e" x="63.623047"/>
       <use xlink:href="#DejaVuSans-30" x="95.410156"/>
       <use xlink:href="#DejaVuSans-30" x="159.033203"/>
      </g>
     </g>
    </g>
    <g id="ytick_10">
     <g id="line2d_20">
      <g>
       <use xlink:href="#m48015de93c" x="940.074841" y="265.867513" style="stroke: #000000; stroke-width: 0.8"/>
      </g>
     </g>
     <g id="text_21">
      <!-- 0.05 -->
      <g transform="translate(947.074841 273.46595) scale(0.2 -0.2)">
       <use xlink:href="#DejaVuSans-30"/>
       <use xlink:href="#DejaVuSans-2e" x="63.623047"/>
       <use xlink:href="#DejaVuSans-30" x="95.410156"/>
       <use xlink:href="#DejaVuSans-35" x="159.033203"/>
      </g>
     </g>
    </g>
    <g id="ytick_11">
     <g id="line2d_21">
      <g>
       <use xlink:href="#m48015de93c" x="940.074841" y="204.242519" style="stroke: #000000; stroke-width: 0.8"/>
      </g>
     </g>
     <g id="text_22">
      <!-- 0.10 -->
      <g transform="translate(947.074841 211.840956) scale(0.2 -0.2)">
       <use xlink:href="#DejaVuSans-30"/>
       <use xlink:href="#DejaVuSans-2e" x="63.623047"/>
       <use xlink:href="#DejaVuSans-31" x="95.410156"/>
       <use xlink:href="#DejaVuSans-30" x="159.033203"/>
      </g>
     </g>
    </g>
    <g id="ytick_12">
     <g id="line2d_22">
      <g>
       <use xlink:href="#m48015de93c" x="940.074841" y="142.617525" style="stroke: #000000; stroke-width: 0.8"/>
      </g>
     </g>
     <g id="text_23">
      <!-- 0.15 -->
      <g transform="translate(947.074841 150.215962) scale(0.2 -0.2)">
       <use xlink:href="#DejaVuSans-30"/>
       <use xlink:href="#DejaVuSans-2e" x="63.623047"/>
       <use xlink:href="#DejaVuSans-31" x="95.410156"/>
       <use xlink:href="#DejaVuSans-35" x="159.033203"/>
      </g>
     </g>
    </g>
    <g id="ytick_13">
     <g id="line2d_23">
      <g>
       <use xlink:href="#m48015de93c" x="940.074841" y="80.992531" style="stroke: #000000; stroke-width: 0.8"/>
      </g>
     </g>
     <g id="text_24">
      <!-- 0.20 -->
      <g transform="translate(947.074841 88.590968) scale(0.2 -0.2)">
       <use xlink:href="#DejaVuSans-30"/>
       <use xlink:href="#DejaVuSans-2e" x="63.623047"/>
       <use xlink:href="#DejaVuSans-32" x="95.410156"/>
       <use xlink:href="#DejaVuSans-30" x="159.033203"/>
      </g>
     </g>
    </g>
    <g id="ytick_14">
     <g id="line2d_24">
      <g>
       <use xlink:href="#m48015de93c" x="940.074841" y="19.367537" style="stroke: #000000; stroke-width: 0.8"/>
      </g>
     </g>
     <g id="text_25">
      <!-- 0.25 -->
      <g transform="translate(947.074841 26.965975) scale(0.2 -0.2)">
       <use xlink:href="#DejaVuSans-30"/>
       <use xlink:href="#DejaVuSans-2e" x="63.623047"/>
       <use xlink:href="#DejaVuSans-32" x="95.410156"/>
       <use xlink:href="#DejaVuSans-35" x="159.033203"/>
      </g>
     </g>
    </g>
    <g id="text_26">
     <!-- Change in proportion $\gamma_{prop}$ -->
     <g transform="translate(1027.565466 332.74) rotate(-90) scale(0.2 -0.2)">
      <defs>
       <path id="DejaVuSans-43" d="M 4122 4306 
L 4122 3641 
Q 3803 3938 3442 4084 
Q 3081 4231 2675 4231 
Q 1875 4231 1450 3742 
Q 1025 3253 1025 2328 
Q 1025 1406 1450 917 
Q 1875 428 2675 428 
Q 3081 428 3442 575 
Q 3803 722 4122 1019 
L 4122 359 
Q 3791 134 3420 21 
Q 3050 -91 2638 -91 
Q 1578 -91 968 557 
Q 359 1206 359 2328 
Q 359 3453 968 4101 
Q 1578 4750 2638 4750 
Q 3056 4750 3426 4639 
Q 3797 4528 4122 4306 
z
" transform="scale(0.015625)"/>
       <path id="DejaVuSans-68" d="M 3513 2113 
L 3513 0 
L 2938 0 
L 2938 2094 
Q 2938 2591 2744 2837 
Q 2550 3084 2163 3084 
Q 1697 3084 1428 2787 
Q 1159 2491 1159 1978 
L 1159 0 
L 581 0 
L 581 4863 
L 1159 4863 
L 1159 2956 
Q 1366 3272 1645 3428 
Q 1925 3584 2291 3584 
Q 2894 3584 3203 3211 
Q 3513 2838 3513 2113 
z
" transform="scale(0.015625)"/>
       <path id="DejaVuSans-67" d="M 2906 1791 
Q 2906 2416 2648 2759 
Q 2391 3103 1925 3103 
Q 1463 3103 1205 2759 
Q 947 2416 947 1791 
Q 947 1169 1205 825 
Q 1463 481 1925 481 
Q 2391 481 2648 825 
Q 2906 1169 2906 1791 
z
M 3481 434 
Q 3481 -459 3084 -895 
Q 2688 -1331 1869 -1331 
Q 1566 -1331 1297 -1286 
Q 1028 -1241 775 -1147 
L 775 -588 
Q 1028 -725 1275 -790 
Q 1522 -856 1778 -856 
Q 2344 -856 2625 -561 
Q 2906 -266 2906 331 
L 2906 616 
Q 2728 306 2450 153 
Q 2172 0 1784 0 
Q 1141 0 747 490 
Q 353 981 353 1791 
Q 353 2603 747 3093 
Q 1141 3584 1784 3584 
Q 2172 3584 2450 3431 
Q 2728 3278 2906 2969 
L 2906 3500 
L 3481 3500 
L 3481 434 
z
" transform="scale(0.015625)"/>
       <path id="DejaVuSans-70" d="M 1159 525 
L 1159 -1331 
L 581 -1331 
L 581 3500 
L 1159 3500 
L 1159 2969 
Q 1341 3281 1617 3432 
Q 1894 3584 2278 3584 
Q 2916 3584 3314 3078 
Q 3713 2572 3713 1747 
Q 3713 922 3314 415 
Q 2916 -91 2278 -91 
Q 1894 -91 1617 61 
Q 1341 213 1159 525 
z
M 3116 1747 
Q 3116 2381 2855 2742 
Q 2594 3103 2138 3103 
Q 1681 3103 1420 2742 
Q 1159 2381 1159 1747 
Q 1159 1113 1420 752 
Q 1681 391 2138 391 
Q 2594 391 2855 752 
Q 3116 1113 3116 1747 
z
" transform="scale(0.015625)"/>
       <path id="DejaVuSans-72" d="M 2631 2963 
Q 2534 3019 2420 3045 
Q 2306 3072 2169 3072 
Q 1681 3072 1420 2755 
Q 1159 2438 1159 1844 
L 1159 0 
L 581 0 
L 581 3500 
L 1159 3500 
L 1159 2956 
Q 1341 3275 1631 3429 
Q 1922 3584 2338 3584 
Q 2397 3584 2469 3576 
Q 2541 3569 2628 3553 
L 2631 2963 
z
" transform="scale(0.015625)"/>
       <path id="DejaVuSans-6f" d="M 1959 3097 
Q 1497 3097 1228 2736 
Q 959 2375 959 1747 
Q 959 1119 1226 758 
Q 1494 397 1959 397 
Q 2419 397 2687 759 
Q 2956 1122 2956 1747 
Q 2956 2369 2687 2733 
Q 2419 3097 1959 3097 
z
M 1959 3584 
Q 2709 3584 3137 3096 
Q 3566 2609 3566 1747 
Q 3566 888 3137 398 
Q 2709 -91 1959 -91 
Q 1206 -91 779 398 
Q 353 888 353 1747 
Q 353 2609 779 3096 
Q 1206 3584 1959 3584 
z
" transform="scale(0.015625)"/>
       <path id="DejaVuSans-Oblique-70" d="M 3175 2156 
Q 3175 2616 2975 2859 
Q 2775 3103 2400 3103 
Q 2144 3103 1911 2972 
Q 1678 2841 1497 2591 
Q 1319 2344 1212 1994 
Q 1106 1644 1106 1300 
Q 1106 863 1306 627 
Q 1506 391 1875 391 
Q 2147 391 2380 519 
Q 2613 647 2778 891 
Q 2956 1147 3065 1494 
Q 3175 1841 3175 2156 
z
M 1394 2969 
Q 1625 3272 1939 3428 
Q 2253 3584 2638 3584 
Q 3175 3584 3472 3232 
Q 3769 2881 3769 2247 
Q 3769 1728 3584 1258 
Q 3400 788 3053 416 
Q 2822 169 2531 39 
Q 2241 -91 1919 -91 
Q 1547 -91 1294 64 
Q 1041 219 916 525 
L 556 -1331 
L -19 -1331 
L 922 3500 
L 1497 3500 
L 1394 2969 
z
" transform="scale(0.015625)"/>
       <path id="DejaVuSans-Oblique-72" d="M 2853 2969 
Q 2766 3016 2653 3041 
Q 2541 3066 2413 3066 
Q 1953 3066 1609 2717 
Q 1266 2369 1153 1784 
L 800 0 
L 225 0 
L 909 3500 
L 1484 3500 
L 1375 2956 
Q 1603 3259 1920 3421 
Q 2238 3584 2597 3584 
Q 2691 3584 2781 3573 
Q 2872 3563 2963 3538 
L 2853 2969 
z
" transform="scale(0.015625)"/>
       <path id="DejaVuSans-Oblique-6f" d="M 1625 -91 
Q 1009 -91 651 289 
Q 294 669 294 1325 
Q 294 1706 417 2101 
Q 541 2497 738 2766 
Q 1047 3184 1428 3384 
Q 1809 3584 2291 3584 
Q 2888 3584 3255 3212 
Q 3622 2841 3622 2241 
Q 3622 1825 3500 1412 
Q 3378 1000 3181 728 
Q 2875 309 2494 109 
Q 2113 -91 1625 -91 
z
M 891 1344 
Q 891 869 1089 633 
Q 1288 397 1691 397 
Q 2269 397 2648 901 
Q 3028 1406 3028 2181 
Q 3028 2634 2825 2865 
Q 2622 3097 2228 3097 
Q 1903 3097 1650 2945 
Q 1397 2794 1197 2484 
Q 1050 2253 970 1956 
Q 891 1659 891 1344 
z
" transform="scale(0.015625)"/>
      </defs>
      <use xlink:href="#DejaVuSans-43" transform="translate(0 0.015625)"/>
      <use xlink:href="#DejaVuSans-68" transform="translate(69.824219 0.015625)"/>
      <use xlink:href="#DejaVuSans-61" transform="translate(133.203125 0.015625)"/>
      <use xlink:href="#DejaVuSans-6e" transform="translate(194.482422 0.015625)"/>
      <use xlink:href="#DejaVuSans-67" transform="translate(257.861328 0.015625)"/>
      <use xlink:href="#DejaVuSans-65" transform="translate(321.337891 0.015625)"/>
      <use xlink:href="#DejaVuSans-20" transform="translate(382.861328 0.015625)"/>
      <use xlink:href="#DejaVuSans-69" transform="translate(414.648438 0.015625)"/>
      <use xlink:href="#DejaVuSans-6e" transform="translate(442.431641 0.015625)"/>
      <use xlink:href="#DejaVuSans-20" transform="translate(505.810547 0.015625)"/>
      <use xlink:href="#DejaVuSans-70" transform="translate(537.597656 0.015625)"/>
      <use xlink:href="#DejaVuSans-72" transform="translate(601.074219 0.015625)"/>
      <use xlink:href="#DejaVuSans-6f" transform="translate(642.1875 0.015625)"/>
      <use xlink:href="#DejaVuSans-70" transform="translate(703.369141 0.015625)"/>
      <use xlink:href="#DejaVuSans-6f" transform="translate(766.845703 0.015625)"/>
      <use xlink:href="#DejaVuSans-72" transform="translate(828.027344 0.015625)"/>
      <use xlink:href="#DejaVuSans-74" transform="translate(869.140625 0.015625)"/>
      <use xlink:href="#DejaVuSans-69" transform="translate(908.349609 0.015625)"/>
      <use xlink:href="#DejaVuSans-6f" transform="translate(936.132812 0.015625)"/>
      <use xlink:href="#DejaVuSans-6e" transform="translate(997.314453 0.015625)"/>
      <use xlink:href="#DejaVuSans-20" transform="translate(1060.693359 0.015625)"/>
      <use xlink:href="#DejaVuSans-Oblique-3b3" transform="translate(1092.480469 0.015625)"/>
      <use xlink:href="#DejaVuSans-Oblique-70" transform="translate(1151.660156 -16.390625) scale(0.7)"/>
      <use xlink:href="#DejaVuSans-Oblique-72" transform="translate(1196.09375 -16.390625) scale(0.7)"/>
      <use xlink:href="#DejaVuSans-Oblique-6f" transform="translate(1224.873047 -16.390625) scale(0.7)"/>
      <use xlink:href="#DejaVuSans-Oblique-70" transform="translate(1267.700195 -16.390625) scale(0.7)"/>
     </g>
    </g>
   </g>
   <g id="line2d_25">
    <path d="M 0 0 
" clip-path="url(#p38fc897f8e)" style="fill: none; stroke: #ff652c; stroke-width: 4; stroke-linecap: square"/>
   </g>
   <g id="patch_9">
    <path d="M 103.074841 395.28 
L 103.074841 7.2 
" style="fill: none; stroke: #000000; stroke-width: 0.8; stroke-linejoin: miter; stroke-linecap: square"/>
   </g>
   <g id="patch_10">
    <path d="M 940.074841 395.28 
L 940.074841 7.2 
" style="fill: none; stroke: #000000; stroke-width: 0.8; stroke-linejoin: miter; stroke-linecap: square"/>
   </g>
   <g id="patch_11">
    <path d="M 103.074841 395.28 
L 940.074841 395.28 
" style="fill: none; stroke: #000000; stroke-width: 0.8; stroke-linejoin: miter; stroke-linecap: square"/>
   </g>
   <g id="patch_12">
    <path d="M 103.074841 7.2 
L 940.074841 7.2 
" style="fill: none; stroke: #000000; stroke-width: 0.8; stroke-linejoin: miter; stroke-linecap: square"/>
   </g>
   <g id="legend_2">
    <g id="patch_13">
     <path d="M 1111.474841 395.28 
L 1251.771716 395.28 
Q 1255.771716 395.28 1255.771716 391.28 
L 1255.771716 363.92375 
Q 1255.771716 359.92375 1251.771716 359.92375 
L 1111.474841 359.92375 
Q 1107.474841 359.92375 1107.474841 363.92375 
L 1107.474841 391.28 
Q 1107.474841 395.28 1111.474841 395.28 
z
" style="fill: #ffffff; opacity: 0.8; stroke: #cccccc; stroke-linejoin: miter"/>
    </g>
    <g id="line2d_26">
     <path d="M 1115.474841 376.120625 
L 1135.474841 376.120625 
L 1155.474841 376.120625 
" style="fill: none; stroke: #ff652c; stroke-width: 4; stroke-linecap: square"/>
    </g>
    <g id="text_27">
     <!-- EG.5.1* -->
     <g transform="translate(1171.474841 383.120625) scale(0.2 -0.2)">
      <use xlink:href="#DejaVuSans-45"/>
      <use xlink:href="#DejaVuSans-47" x="63.183594"/>
      <use xlink:href="#DejaVuSans-2e" x="140.673828"/>
      <use xlink:href="#DejaVuSans-35" x="172.460938"/>
      <use xlink:href="#DejaVuSans-2e" x="236.083984"/>
      <use xlink:href="#DejaVuSans-31" x="267.871094"/>
      <use xlink:href="#DejaVuSans-2a" x="331.494141"/>
     </g>
    </g>
   </g>
  </g>
 </g>
 <defs>
  <clipPath id="p38fc897f8e">
   <rect x="103.074841" y="7.2" width="837" height="388.08"/>
  </clipPath>
 </defs>
</svg>
