<?xml version="1.0" encoding="utf-8" standalone="no"?>
<!DOCTYPE svg PUBLIC "-//W3C//DTD SVG 1.1//EN"
  "http://www.w3.org/Graphics/SVG/1.1/DTD/svg11.dtd">
<svg xmlns:xlink="http://www.w3.org/1999/xlink" width="656.958125pt" height="452.1925pt" viewBox="0 0 656.958125 452.1925" xmlns="http://www.w3.org/2000/svg" version="1.1">
 <metadata>
  <rdf:RDF xmlns:dc="http://purl.org/dc/elements/1.1/" xmlns:cc="http://creativecommons.org/ns#" xmlns:rdf="http://www.w3.org/1999/02/22-rdf-syntax-ns#">
   <cc:Work>
    <dc:type rdf:resource="http://purl.org/dc/dcmitype/StillImage"/>
    <dc:date>2023-11-06T13:37:49.649477</dc:date>
    <dc:format>image/svg+xml</dc:format>
    <dc:creator>
     <cc:Agent>
      <dc:title>Matplotlib v3.7.2, https://matplotlib.org/</dc:title>
     </cc:Agent>
    </dc:creator>
   </cc:Work>
  </rdf:RDF>
 </metadata>
 <defs>
  <style type="text/css">*{stroke-linejoin: round; stroke-linecap: butt}</style>
 </defs>
 <g id="figure_1">
  <g id="patch_1">
   <path d="M 0 452.1925 
L 656.958125 452.1925 
L 656.958125 0 
L 0 0 
z
" style="fill: #ffffff"/>
  </g>
  <g id="axes_1">
   <g id="patch_2">
    <path d="M 91.758125 395.28 
L 649.758125 395.28 
L 649.758125 7.2 
L 91.758125 7.2 
z
" style="fill: #ffffff"/>
   </g>
   <g id="PolyCollection_1">
    <defs>
     <path id="m7d7a52e82f" d="M 117.121761 -159.255385 
L 117.121761 -107.90402 
L 117.897408 -138.872587 
L 118.673054 -167.588232 
L 119.4487 -194.174577 
L 120.224347 -218.749127 
L 120.999993 -241.42356 
L 121.77564 -262.304 
L 122.551286 -281.491283 
L 123.326932 -299.081201 
L 124.102579 -315.164744 
L 124.878225 -329.828329 
L 125.653871 -343.154014 
L 126.429518 -355.219707 
L 127.205164 -366.099362 
L 127.980811 -375.863169 
L 128.756457 -384.577735 
L 129.532103 -392.306252 
L 130.30775 -399.108663 
L 131.083396 -405.041817 
L 131.859042 -408.800669 
L 132.634689 -403.379212 
L 133.410335 -397.598444 
L 134.185982 -391.537469 
L 134.961628 -385.263772 
L 135.737274 -378.834827 
L 136.512921 -372.299486 
L 137.288567 -365.699176 
L 138.064213 -359.068935 
L 138.83986 -352.4383 
L 139.615506 -345.832084 
L 140.391153 -339.271033 
L 141.166799 -332.772406 
L 141.942445 -326.350463 
L 142.718092 -320.016897 
L 143.493738 -313.781197 
L 144.269384 -307.650968 
L 145.045031 -301.632205 
L 145.820677 -295.729525 
L 146.596323 -289.946374 
L 147.37197 -284.285201 
L 148.147616 -278.747605 
L 148.923263 -273.33447 
L 149.698909 -268.046073 
L 150.474555 -262.882181 
L 151.250202 -257.842134 
L 152.025848 -252.924915 
L 152.801494 -248.129212 
L 153.577141 -243.453469 
L 154.352787 -238.895931 
L 155.128434 -234.454684 
L 155.90408 -230.127685 
L 156.679726 -225.912794 
L 157.455373 -221.807791 
L 158.231019 -217.810406 
L 159.006665 -213.918328 
L 159.782312 -210.129223 
L 160.557958 -206.440747 
L 161.333605 -202.850557 
L 162.109251 -199.356315 
L 162.884897 -195.955703 
L 163.660544 -192.646421 
L 164.43619 -189.426199 
L 165.211836 -186.292798 
L 165.987483 -183.244011 
L 166.763129 -180.277671 
L 167.538776 -177.391649 
L 168.314422 -174.583858 
L 169.090068 -171.852252 
L 169.865715 -169.19483 
L 170.641361 -166.609631 
L 171.417007 -164.094743 
L 172.192654 -161.648295 
L 172.9683 -159.268459 
L 173.743947 -156.953454 
L 174.519593 -154.701541 
L 175.295239 -152.511022 
L 176.070886 -150.380245 
L 176.846532 -148.307597 
L 177.622178 -146.291507 
L 178.397825 -144.330446 
L 179.173471 -142.422922 
L 179.949117 -140.567483 
L 180.724764 -138.762715 
L 181.50041 -137.007242 
L 182.276057 -135.299724 
L 183.051703 -133.638855 
L 183.827349 -132.023367 
L 184.602996 -130.452022 
L 185.378642 -128.923619 
L 186.154288 -127.436986 
L 186.929935 -125.990986 
L 187.705581 -124.584508 
L 188.481228 -123.216476 
L 189.256874 -121.88584 
L 190.03252 -120.591578 
L 190.808167 -119.332699 
L 191.583813 -118.108235 
L 192.359459 -116.917247 
L 193.135106 -115.75882 
L 193.910752 -114.632065 
L 194.686399 -113.536117 
L 195.462045 -112.470133 
L 196.237691 -111.433295 
L 197.013338 -110.424807 
L 197.788984 -109.443893 
L 198.56463 -108.4898 
L 199.340277 -107.561795 
L 200.115923 -106.659164 
L 200.89157 -105.781215 
L 201.667216 -104.927271 
L 202.442862 -104.096678 
L 203.218509 -103.288797 
L 203.994155 -102.503006 
L 204.769801 -101.738702 
L 205.545448 -100.995298 
L 206.321094 -100.272221 
L 207.096741 -99.568917 
L 207.872387 -98.884844 
L 208.648033 -98.219476 
L 209.42368 -97.572303 
L 210.199326 -96.942827 
L 210.974972 -96.330563 
L 211.750619 -95.735042 
L 212.526265 -95.155805 
L 213.301911 -94.592407 
L 214.077558 -94.044415 
L 214.853204 -93.511408 
L 215.628851 -92.992976 
L 216.404497 -92.488721 
L 217.180143 -91.998254 
L 217.95579 -91.521199 
L 218.731436 -91.057189 
L 219.507082 -90.605868 
L 220.282729 -90.166888 
L 221.058375 -89.739911 
L 221.834022 -89.324611 
L 222.609668 -88.920666 
L 223.385314 -88.527768 
L 224.160961 -88.145614 
L 224.936607 -87.773909 
L 225.712253 -87.412369 
L 226.4879 -87.060715 
L 227.263546 -86.718677 
L 228.039193 -86.385992 
L 228.814839 -86.062404 
L 229.590485 -85.747665 
L 230.366132 -85.441533 
L 231.141778 -85.143771 
L 231.917424 -84.854152 
L 232.693071 -84.572453 
L 233.468717 -84.298456 
L 234.244364 -84.031952 
L 235.02001 -83.772736 
L 235.795656 -83.520608 
L 236.571303 -83.275374 
L 237.346949 -83.036847 
L 238.122595 -82.804842 
L 238.898242 -82.579181 
L 239.673888 -82.35969 
L 240.449535 -82.146202 
L 241.225181 -81.938552 
L 242.000827 -81.73658 
L 242.776474 -81.54013 
L 243.55212 -81.349053 
L 244.327766 -81.163201 
L 245.103413 -80.982431 
L 245.879059 -80.806603 
L 246.654705 -80.635584 
L 247.430352 -80.469242 
L 248.205998 -80.307448 
L 248.981645 -80.150079 
L 249.757291 -79.997012 
L 250.532937 -79.848132 
L 251.308584 -79.703322 
L 252.08423 -79.562472 
L 252.859876 -79.425474 
L 253.635523 -79.292222 
L 254.411169 -79.162614 
L 255.186816 -79.03655 
L 255.962462 -78.913933 
L 256.738108 -78.794669 
L 257.513755 -78.678667 
L 258.289401 -78.565836 
L 259.065047 -78.456091 
L 259.840694 -78.349347 
L 260.61634 -78.245522 
L 261.391987 -78.144536 
L 262.167633 -78.046311 
L 262.943279 -77.950772 
L 263.718926 -77.857846 
L 264.494572 -77.767461 
L 265.270218 -77.679548 
L 266.045865 -77.594038 
L 266.821511 -77.510867 
L 267.597158 -77.42997 
L 268.372804 -77.351285 
L 269.14845 -77.274752 
L 269.924097 -77.200312 
L 270.699743 -77.127907 
L 271.475389 -77.057482 
L 272.251036 -76.988983 
L 273.026682 -76.922357 
L 273.802329 -76.857553 
L 274.577975 -76.794521 
L 275.353621 -76.733212 
L 276.129268 -76.67358 
L 276.904914 -76.615579 
L 277.68056 -76.559164 
L 278.456207 -76.504291 
L 279.231853 -76.450919 
L 280.007499 -76.399007 
L 280.783146 -76.348514 
L 281.558792 -76.299401 
L 282.334439 -76.251632 
L 283.110085 -76.205169 
L 283.885731 -76.159976 
L 284.661378 -76.11602 
L 285.437024 -76.073265 
L 286.21267 -76.031679 
L 286.988317 -75.991231 
L 287.763963 -75.951888 
L 288.53961 -75.913622 
L 289.315256 -75.876402 
L 290.090902 -75.840199 
L 290.866549 -75.804987 
L 291.642195 -75.770737 
L 292.417841 -75.737424 
L 293.193488 -75.705022 
L 293.969134 -75.673506 
L 294.744781 -75.642852 
L 295.520427 -75.613036 
L 296.296073 -75.584035 
L 297.07172 -75.555828 
L 297.847366 -75.528392 
L 298.623012 -75.501706 
L 299.398659 -75.475749 
L 300.174305 -75.450503 
L 300.949952 -75.425947 
L 301.725598 -75.402062 
L 302.501244 -75.37883 
L 303.276891 -75.356234 
L 304.052537 -75.334256 
L 304.828183 -75.312878 
L 305.60383 -75.292085 
L 306.379476 -75.271861 
L 307.155122 -75.25219 
L 307.930769 -75.233057 
L 308.706415 -75.214447 
L 309.482062 -75.196345 
L 310.257708 -75.178739 
L 311.033354 -75.161614 
L 311.809001 -75.144958 
L 312.584647 -75.128757 
L 313.360293 -75.112999 
L 314.13594 -75.097672 
L 314.911586 -75.082764 
L 315.687233 -75.068264 
L 316.462879 -75.05416 
L 317.238525 -75.040442 
L 318.014172 -75.027099 
L 318.789818 -75.01412 
L 319.565464 -75.001497 
L 320.341111 -74.989219 
L 321.116757 -74.977277 
L 321.892404 -74.965661 
L 322.66805 -74.954363 
L 323.443696 -74.943374 
L 324.219343 -74.932685 
L 324.994989 -74.922289 
L 325.770635 -74.912176 
L 326.546282 -74.902341 
L 327.321928 -74.892774 
L 328.097575 -74.883469 
L 328.873221 -74.874419 
L 329.648867 -74.865615 
L 330.424514 -74.857053 
L 331.20016 -74.848725 
L 331.975806 -74.840624 
L 332.751453 -74.832745 
L 333.527099 -74.825082 
L 334.302746 -74.817628 
L 335.078392 -74.810378 
L 335.854038 -74.803326 
L 336.629685 -74.796467 
L 337.405331 -74.789795 
L 338.180977 -74.783306 
L 338.956624 -74.776994 
L 339.73227 -74.770855 
L 340.507916 -74.764884 
L 341.283563 -74.759076 
L 342.059209 -74.753427 
L 342.834856 -74.747933 
L 343.610502 -74.742588 
L 344.386148 -74.73739 
L 345.161795 -74.732334 
L 345.937441 -74.727416 
L 346.713087 -74.722633 
L 347.488734 -74.71798 
L 348.26438 -74.713455 
L 349.040027 -74.709054 
L 349.815673 -74.704772 
L 350.591319 -74.700608 
L 351.366966 -74.696558 
L 352.142612 -74.692619 
L 352.918258 -74.688787 
L 353.693905 -74.68506 
L 354.469551 -74.681435 
L 355.245198 -74.677909 
L 356.020844 -74.674479 
L 356.79649 -74.671143 
L 357.572137 -74.667899 
L 358.347783 -74.664743 
L 359.123429 -74.661674 
L 359.899076 -74.658688 
L 360.674722 -74.655784 
L 361.450369 -74.652959 
L 362.226015 -74.650212 
L 363.001661 -74.64754 
L 363.777308 -74.644941 
L 364.552954 -74.642413 
L 365.3286 -74.639954 
L 366.104247 -74.637562 
L 366.879893 -74.635236 
L 367.65554 -74.632973 
L 368.431186 -74.630773 
L 369.206832 -74.628632 
L 369.982479 -74.62655 
L 370.758125 -74.624525 
L 371.533771 -74.622555 
L 372.309418 -74.620639 
L 373.085064 -74.618776 
L 373.86071 -74.616963 
L 374.636357 -74.6152 
L 375.412003 -74.613485 
L 376.18765 -74.611818 
L 376.963296 -74.610195 
L 377.738942 -74.608617 
L 378.514589 -74.607083 
L 379.290235 -74.60559 
L 380.065881 -74.604138 
L 380.841528 -74.602726 
L 381.617174 -74.601352 
L 382.392821 -74.600016 
L 383.168467 -74.598716 
L 383.944113 -74.597452 
L 384.71976 -74.596223 
L 385.495406 -74.595027 
L 386.271052 -74.593864 
L 387.046699 -74.592733 
L 387.822345 -74.591632 
L 388.597992 -74.590562 
L 389.373638 -74.589521 
L 390.149284 -74.588508 
L 390.924931 -74.587523 
L 391.700577 -74.586565 
L 392.476223 -74.585634 
L 393.25187 -74.584727 
L 394.027516 -74.583846 
L 394.803163 -74.582989 
L 395.578809 -74.582155 
L 396.354455 -74.581343 
L 397.130102 -74.580555 
L 397.905748 -74.579787 
L 398.681394 -74.579041 
L 399.457041 -74.578315 
L 400.232687 -74.577609 
L 401.008334 -74.576922 
L 401.78398 -74.576254 
L 402.559626 -74.575604 
L 403.335273 -74.574972 
L 404.110919 -74.574357 
L 404.886565 -74.573759 
L 405.662212 -74.573178 
L 406.437858 -74.572612 
L 407.213504 -74.572062 
L 407.989151 -74.571527 
L 408.764797 -74.571006 
L 409.540444 -74.5705 
L 410.31609 -74.570008 
L 411.091736 -74.569529 
L 411.867383 -74.569063 
L 412.643029 -74.56861 
L 413.418675 -74.568169 
L 414.194322 -74.56774 
L 414.969968 -74.567323 
L 415.745615 -74.566918 
L 416.521261 -74.566523 
L 417.296907 -74.566139 
L 418.072554 -74.565766 
L 418.8482 -74.565403 
L 419.623846 -74.56505 
L 420.399493 -74.564707 
L 421.175139 -74.564373 
L 421.950786 -74.564048 
L 422.726432 -74.563732 
L 423.502078 -74.563424 
L 424.277725 -74.563126 
L 425.053371 -74.562835 
L 425.829017 -74.562552 
L 426.604664 -74.562277 
L 427.38031 -74.562009 
L 428.155957 -74.561749 
L 428.931603 -74.561496 
L 429.707249 -74.56125 
L 430.482896 -74.56101 
L 431.258542 -74.560777 
L 432.034188 -74.560551 
L 432.809835 -74.56033 
L 433.585481 -74.560116 
L 434.361128 -74.559907 
L 435.136774 -74.559705 
L 435.91242 -74.559507 
L 436.688067 -74.559316 
L 437.463713 -74.559129 
L 438.239359 -74.558947 
L 439.015006 -74.558771 
L 439.790652 -74.558599 
L 440.566298 -74.558432 
L 441.341945 -74.55827 
L 442.117591 -74.558112 
L 442.893238 -74.557958 
L 443.668884 -74.557809 
L 444.44453 -74.557663 
L 445.220177 -74.557522 
L 445.995823 -74.557384 
L 446.771469 -74.55725 
L 447.547116 -74.55712 
L 448.322762 -74.556994 
L 449.098409 -74.556871 
L 449.874055 -74.556751 
L 450.649701 -74.556634 
L 451.425348 -74.556521 
L 452.200994 -74.556411 
L 452.97664 -74.556304 
L 453.752287 -74.5562 
L 454.527933 -74.556098 
L 455.30358 -74.556 
L 456.079226 -74.555904 
L 456.854872 -74.55581 
L 457.630519 -74.55572 
L 458.406165 -74.555631 
L 459.181811 -74.555545 
L 459.957458 -74.555462 
L 460.733104 -74.555381 
L 461.508751 -74.555302 
L 462.284397 -74.555225 
L 463.060043 -74.55515 
L 463.83569 -74.555077 
L 464.611336 -74.555007 
L 465.386982 -74.554938 
L 466.162629 -74.554871 
L 466.938275 -74.554806 
L 467.713921 -74.554743 
L 468.489568 -74.554681 
L 469.265214 -74.554621 
L 470.040861 -74.554563 
L 470.816507 -74.554506 
L 471.592153 -74.554451 
L 472.3678 -74.554398 
L 473.143446 -74.554346 
L 473.919092 -74.554295 
L 474.694739 -74.554246 
L 475.470385 -74.554198 
L 476.246032 -74.554151 
L 477.021678 -74.554106 
L 477.797324 -74.554061 
L 478.572971 -74.554019 
L 479.348617 -74.553977 
L 480.124263 -74.553936 
L 480.89991 -74.553897 
L 481.675556 -74.553858 
L 482.451203 -74.553821 
L 483.226849 -74.553785 
L 484.002495 -74.553749 
L 484.778142 -74.553715 
L 485.553788 -74.553681 
L 486.329434 -74.553649 
L 487.105081 -74.553617 
L 487.880727 -74.553586 
L 488.656374 -74.553556 
L 489.43202 -74.553527 
L 490.207666 -74.553499 
L 490.983313 -74.553472 
L 491.758959 -74.553445 
L 492.534605 -74.553419 
L 493.310252 -74.553393 
L 494.085898 -74.553369 
L 494.861545 -74.553345 
L 495.637191 -74.553321 
L 496.412837 -74.553299 
L 497.188484 -74.553277 
L 497.96413 -74.553255 
L 498.739776 -74.553234 
L 499.515423 -74.553214 
L 500.291069 -74.553194 
L 501.066715 -74.553175 
L 501.842362 -74.553156 
L 502.618008 -74.553138 
L 503.393655 -74.55312 
L 504.169301 -74.553103 
L 504.944947 -74.553087 
L 505.720594 -74.55307 
L 506.49624 -74.553054 
L 507.271886 -74.553039 
L 508.047533 -74.553024 
L 508.823179 -74.55301 
L 509.598826 -74.552995 
L 510.374472 -74.552982 
L 511.150118 -74.552968 
L 511.925765 -74.552955 
L 512.701411 -74.552942 
L 513.477057 -74.55293 
L 514.252704 -74.552918 
L 515.02835 -74.552907 
L 515.803997 -74.552895 
L 516.579643 -74.552884 
L 517.355289 -74.552873 
L 518.130936 -74.552863 
L 518.906582 -74.552853 
L 519.682228 -74.552843 
L 520.457875 -74.552833 
L 521.233521 -74.552824 
L 522.009168 -74.552815 
L 522.784814 -74.552806 
L 523.56046 -74.552797 
L 524.336107 -74.552789 
L 525.111753 -74.552781 
L 525.887399 -74.552773 
L 526.663046 -74.552765 
L 527.438692 -74.552758 
L 528.214339 -74.552751 
L 528.989985 -74.552744 
L 529.765631 -74.552737 
L 530.541278 -74.55273 
L 531.316924 -74.552723 
L 532.09257 -74.552717 
L 532.868217 -74.552711 
L 533.643863 -74.552705 
L 534.419509 -74.552699 
L 535.195156 -74.552693 
L 535.970802 -74.552688 
L 536.746449 -74.552683 
L 537.522095 -74.552677 
L 538.297741 -74.552672 
L 539.073388 -74.552667 
L 539.849034 -74.552663 
L 540.62468 -74.552658 
L 541.400327 -74.552653 
L 542.175973 -74.552649 
L 542.95162 -74.552645 
L 543.727266 -74.55264 
L 544.502912 -74.552636 
L 545.278559 -74.552632 
L 546.054205 -74.552629 
L 546.829851 -74.552625 
L 547.605498 -74.552621 
L 548.381144 -74.552618 
L 549.156791 -74.552614 
L 549.932437 -74.552611 
L 550.708083 -74.552608 
L 551.48373 -74.552604 
L 552.259376 -74.552601 
L 553.035022 -74.552598 
L 553.810669 -74.552595 
L 554.586315 -74.552593 
L 555.361962 -74.55259 
L 556.137608 -74.552587 
L 556.913254 -74.552585 
L 557.688901 -74.552582 
L 558.464547 -74.552579 
L 559.240193 -74.552577 
L 560.01584 -74.552575 
L 560.791486 -74.552572 
L 561.567133 -74.55257 
L 562.342779 -74.552568 
L 563.118425 -74.552566 
L 563.894072 -74.552564 
L 564.669718 -74.552562 
L 565.445364 -74.55256 
L 566.221011 -74.552558 
L 566.996657 -74.552556 
L 567.772303 -74.552555 
L 568.54795 -74.552553 
L 569.323596 -74.552551 
L 570.099243 -74.55255 
L 570.874889 -74.552548 
L 571.650535 -74.552546 
L 572.426182 -74.552545 
L 573.201828 -74.552544 
L 573.977474 -74.552542 
L 574.753121 -74.552541 
L 575.528767 -74.552539 
L 576.304414 -74.552538 
L 577.08006 -74.552537 
L 577.855706 -74.552536 
L 578.631353 -74.552534 
L 579.406999 -74.552533 
L 580.182645 -74.552532 
L 580.958292 -74.552531 
L 581.733938 -74.55253 
L 582.509585 -74.552529 
L 583.285231 -74.552528 
L 584.060877 -74.552527 
L 584.836524 -74.552526 
L 585.61217 -74.552525 
L 586.387816 -74.552524 
L 587.163463 -74.552523 
L 587.939109 -74.552522 
L 588.714756 -74.552521 
L 589.490402 -74.552521 
L 590.266048 -74.55252 
L 591.041695 -74.552519 
L 591.817341 -74.552518 
L 592.592987 -74.552518 
L 593.368634 -74.552517 
L 594.14428 -74.552516 
L 594.919927 -74.552516 
L 595.695573 -74.552515 
L 596.471219 -74.552514 
L 597.246866 -74.552514 
L 598.022512 -74.552513 
L 598.798158 -74.552512 
L 599.573805 -74.552512 
L 600.349451 -74.552511 
L 601.125097 -74.552511 
L 601.900744 -74.55251 
L 602.67639 -74.55251 
L 603.452037 -74.552509 
L 604.227683 -74.552509 
L 605.003329 -74.552508 
L 605.778976 -74.552508 
L 606.554622 -74.552507 
L 607.330268 -74.552507 
L 608.105915 -74.552507 
L 608.881561 -74.552506 
L 609.657208 -74.552506 
L 610.432854 -74.552505 
L 611.2085 -74.552505 
L 611.984147 -74.552505 
L 612.759793 -74.552504 
L 613.535439 -74.552504 
L 614.311086 -74.552504 
L 615.086732 -74.552503 
L 615.862379 -74.552503 
L 616.638025 -74.552503 
L 617.413671 -74.552502 
L 618.189318 -74.552502 
L 618.964964 -74.552502 
L 619.74061 -74.552502 
L 620.516257 -74.552501 
L 621.291903 -74.552501 
L 622.06755 -74.552501 
L 622.843196 -74.5525 
L 623.618842 -74.5525 
L 624.394489 -74.5525 
L 624.394489 -75.285669 
L 624.394489 -75.285669 
L 623.618842 -75.293071 
L 622.843196 -75.300548 
L 622.06755 -75.3081 
L 621.291903 -75.315729 
L 620.516257 -75.323435 
L 619.74061 -75.331219 
L 618.964964 -75.339081 
L 618.189318 -75.347023 
L 617.413671 -75.355044 
L 616.638025 -75.363147 
L 615.862379 -75.371332 
L 615.086732 -75.379599 
L 614.311086 -75.387949 
L 613.535439 -75.396384 
L 612.759793 -75.404905 
L 611.984147 -75.413511 
L 611.2085 -75.422204 
L 610.432854 -75.430985 
L 609.657208 -75.439854 
L 608.881561 -75.448813 
L 608.105915 -75.457863 
L 607.330268 -75.467003 
L 606.554622 -75.476237 
L 605.778976 -75.485563 
L 605.003329 -75.494983 
L 604.227683 -75.504499 
L 603.452037 -75.514111 
L 602.67639 -75.52382 
L 601.900744 -75.533626 
L 601.125097 -75.543532 
L 600.349451 -75.553538 
L 599.573805 -75.563645 
L 598.798158 -75.573853 
L 598.022512 -75.584165 
L 597.246866 -75.594581 
L 596.471219 -75.605103 
L 595.695573 -75.61573 
L 594.919927 -75.626465 
L 594.14428 -75.637308 
L 593.368634 -75.64826 
L 592.592987 -75.659323 
L 591.817341 -75.670498 
L 591.041695 -75.681786 
L 590.266048 -75.693188 
L 589.490402 -75.704704 
L 588.714756 -75.716337 
L 587.939109 -75.728088 
L 587.163463 -75.739957 
L 586.387816 -75.751946 
L 585.61217 -75.764056 
L 584.836524 -75.776288 
L 584.060877 -75.788644 
L 583.285231 -75.801124 
L 582.509585 -75.813731 
L 581.733938 -75.826465 
L 580.958292 -75.839327 
L 580.182645 -75.852319 
L 579.406999 -75.865442 
L 578.631353 -75.878698 
L 577.855706 -75.892088 
L 577.08006 -75.905613 
L 576.304414 -75.919274 
L 575.528767 -75.933074 
L 574.753121 -75.947012 
L 573.977474 -75.961092 
L 573.201828 -75.975313 
L 572.426182 -75.989678 
L 571.650535 -76.004189 
L 570.874889 -76.018845 
L 570.099243 -76.03365 
L 569.323596 -76.048604 
L 568.54795 -76.063709 
L 567.772303 -76.078967 
L 566.996657 -76.094378 
L 566.221011 -76.109946 
L 565.445364 -76.12567 
L 564.669718 -76.141553 
L 563.894072 -76.157597 
L 563.118425 -76.173802 
L 562.342779 -76.190172 
L 561.567133 -76.206706 
L 560.791486 -76.223407 
L 560.01584 -76.240277 
L 559.240193 -76.257318 
L 558.464547 -76.27453 
L 557.688901 -76.291916 
L 556.913254 -76.309478 
L 556.137608 -76.327217 
L 555.361962 -76.345135 
L 554.586315 -76.363234 
L 553.810669 -76.381515 
L 553.035022 -76.399982 
L 552.259376 -76.418634 
L 551.48373 -76.437475 
L 550.708083 -76.456506 
L 549.932437 -76.47573 
L 549.156791 -76.495147 
L 548.381144 -76.514761 
L 547.605498 -76.534572 
L 546.829851 -76.554584 
L 546.054205 -76.574798 
L 545.278559 -76.595215 
L 544.502912 -76.615839 
L 543.727266 -76.636671 
L 542.95162 -76.657713 
L 542.175973 -76.678968 
L 541.400327 -76.700438 
L 540.62468 -76.722124 
L 539.849034 -76.744029 
L 539.073388 -76.766155 
L 538.297741 -76.788505 
L 537.522095 -76.81108 
L 536.746449 -76.833884 
L 535.970802 -76.856917 
L 535.195156 -76.880183 
L 534.419509 -76.903684 
L 533.643863 -76.927422 
L 532.868217 -76.9514 
L 532.09257 -76.97562 
L 531.316924 -77.000084 
L 530.541278 -77.024796 
L 529.765631 -77.049757 
L 528.989985 -77.07497 
L 528.214339 -77.100437 
L 527.438692 -77.126162 
L 526.663046 -77.152146 
L 525.887399 -77.178393 
L 525.111753 -77.204905 
L 524.336107 -77.231684 
L 523.56046 -77.258734 
L 522.784814 -77.286057 
L 522.009168 -77.313656 
L 521.233521 -77.341533 
L 520.457875 -77.369692 
L 519.682228 -77.398135 
L 518.906582 -77.426865 
L 518.130936 -77.455886 
L 517.355289 -77.485199 
L 516.579643 -77.514808 
L 515.803997 -77.544717 
L 515.02835 -77.574927 
L 514.252704 -77.605442 
L 513.477057 -77.636265 
L 512.701411 -77.6674 
L 511.925765 -77.698849 
L 511.150118 -77.730615 
L 510.374472 -77.762702 
L 509.598826 -77.795113 
L 508.823179 -77.827851 
L 508.047533 -77.86092 
L 507.271886 -77.894323 
L 506.49624 -77.928063 
L 505.720594 -77.962143 
L 504.944947 -77.996568 
L 504.169301 -78.03134 
L 503.393655 -78.066464 
L 502.618008 -78.101941 
L 501.842362 -78.137778 
L 501.066715 -78.173975 
L 500.291069 -78.210539 
L 499.515423 -78.247471 
L 498.739776 -78.284777 
L 497.96413 -78.322459 
L 497.188484 -78.360521 
L 496.412837 -78.398968 
L 495.637191 -78.437803 
L 494.861545 -78.47703 
L 494.085898 -78.516653 
L 493.310252 -78.556676 
L 492.534605 -78.597103 
L 491.758959 -78.637939 
L 490.983313 -78.679186 
L 490.207666 -78.72085 
L 489.43202 -78.762935 
L 488.656374 -78.805445 
L 487.880727 -78.848384 
L 487.105081 -78.891756 
L 486.329434 -78.935566 
L 485.553788 -78.979819 
L 484.778142 -79.024518 
L 484.002495 -79.069669 
L 483.226849 -79.115275 
L 482.451203 -79.161342 
L 481.675556 -79.207874 
L 480.89991 -79.254876 
L 480.124263 -79.302353 
L 479.348617 -79.350308 
L 478.572971 -79.398748 
L 477.797324 -79.447677 
L 477.021678 -79.4971 
L 476.246032 -79.547022 
L 475.470385 -79.597448 
L 474.694739 -79.648383 
L 473.919092 -79.699832 
L 473.143446 -79.751801 
L 472.3678 -79.804295 
L 471.592153 -79.857318 
L 470.816507 -79.910877 
L 470.040861 -79.964976 
L 469.265214 -80.019622 
L 468.489568 -80.07482 
L 467.713921 -80.130574 
L 466.938275 -80.186892 
L 466.162629 -80.243778 
L 465.386982 -80.301239 
L 464.611336 -80.35928 
L 463.83569 -80.417906 
L 463.060043 -80.477125 
L 462.284397 -80.536941 
L 461.508751 -80.597362 
L 460.733104 -80.658392 
L 459.957458 -80.720039 
L 459.181811 -80.782308 
L 458.406165 -80.845206 
L 457.630519 -80.908738 
L 456.854872 -80.972913 
L 456.079226 -81.037735 
L 455.30358 -81.103211 
L 454.527933 -81.169349 
L 453.752287 -81.236154 
L 452.97664 -81.303634 
L 452.200994 -81.371795 
L 451.425348 -81.440645 
L 450.649701 -81.510189 
L 449.874055 -81.580436 
L 449.098409 -81.651391 
L 448.322762 -81.723063 
L 447.547116 -81.795459 
L 446.771469 -81.868586 
L 445.995823 -81.942451 
L 445.220177 -82.017062 
L 444.44453 -82.092426 
L 443.668884 -82.168551 
L 442.893238 -82.245444 
L 442.117591 -82.323114 
L 441.341945 -82.401568 
L 440.566298 -82.480814 
L 439.790652 -82.560861 
L 439.015006 -82.641715 
L 438.239359 -82.723386 
L 437.463713 -82.805881 
L 436.688067 -82.889209 
L 435.91242 -82.973379 
L 435.136774 -83.058398 
L 434.361128 -83.144276 
L 433.585481 -83.23102 
L 432.809835 -83.318641 
L 432.034188 -83.407146 
L 431.258542 -83.496545 
L 430.482896 -83.586846 
L 429.707249 -83.678059 
L 428.931603 -83.770193 
L 428.155957 -83.863257 
L 427.38031 -83.957261 
L 426.604664 -84.052214 
L 425.829017 -84.148125 
L 425.053371 -84.245005 
L 424.277725 -84.342863 
L 423.502078 -84.441709 
L 422.726432 -84.541552 
L 421.950786 -84.642404 
L 421.175139 -84.744275 
L 420.399493 -84.847173 
L 419.623846 -84.951111 
L 418.8482 -85.056098 
L 418.072554 -85.162145 
L 417.296907 -85.269262 
L 416.521261 -85.377461 
L 415.745615 -85.486753 
L 414.969968 -85.597148 
L 414.194322 -85.708657 
L 413.418675 -85.821292 
L 412.643029 -85.935065 
L 411.867383 -86.049986 
L 411.091736 -86.166068 
L 410.31609 -86.283321 
L 409.540444 -86.401758 
L 408.764797 -86.521391 
L 407.989151 -86.642232 
L 407.213504 -86.764293 
L 406.437858 -86.887586 
L 405.662212 -87.012124 
L 404.886565 -87.13792 
L 404.110919 -87.264985 
L 403.335273 -87.393333 
L 402.559626 -87.522978 
L 401.78398 -87.653931 
L 401.008334 -87.786206 
L 400.232687 -87.919817 
L 399.457041 -88.054776 
L 398.681394 -88.191099 
L 397.905748 -88.328797 
L 397.130102 -88.467886 
L 396.354455 -88.608379 
L 395.578809 -88.750291 
L 394.803163 -88.893635 
L 394.027516 -89.038427 
L 393.25187 -89.18468 
L 392.476223 -89.33241 
L 391.700577 -89.481632 
L 390.924931 -89.63236 
L 390.149284 -89.78461 
L 389.373638 -89.938397 
L 388.597992 -90.093737 
L 387.822345 -90.250645 
L 387.046699 -90.409137 
L 386.271052 -90.56923 
L 385.495406 -90.730939 
L 384.71976 -90.89428 
L 383.944113 -91.059271 
L 383.168467 -91.225927 
L 382.392821 -91.394266 
L 381.617174 -91.564304 
L 380.841528 -91.73606 
L 380.065881 -91.909549 
L 379.290235 -92.08479 
L 378.514589 -92.2618 
L 377.738942 -92.440598 
L 376.963296 -92.6212 
L 376.18765 -92.803626 
L 375.412003 -92.987894 
L 374.636357 -93.174022 
L 373.86071 -93.36203 
L 373.085064 -93.551935 
L 372.309418 -93.743758 
L 371.533771 -93.937518 
L 370.758125 -94.133234 
L 369.982479 -94.330925 
L 369.206832 -94.530613 
L 368.431186 -94.732317 
L 367.65554 -94.936057 
L 366.879893 -95.141855 
L 366.104247 -95.34973 
L 365.3286 -95.559704 
L 364.552954 -95.771798 
L 363.777308 -95.986033 
L 363.001661 -96.202431 
L 362.226015 -96.421014 
L 361.450369 -96.641804 
L 360.674722 -96.864823 
L 359.899076 -97.090093 
L 359.123429 -97.317638 
L 358.347783 -97.54748 
L 357.572137 -97.779643 
L 356.79649 -98.01415 
L 356.020844 -98.251025 
L 355.245198 -98.490291 
L 354.469551 -98.731972 
L 353.693905 -98.976094 
L 352.918258 -99.222681 
L 352.142612 -99.471757 
L 351.366966 -99.723348 
L 350.591319 -99.977479 
L 349.815673 -100.234175 
L 349.040027 -100.493464 
L 348.26438 -100.75537 
L 347.488734 -101.01992 
L 346.713087 -101.287142 
L 345.937441 -101.557061 
L 345.161795 -101.829706 
L 344.386148 -102.105103 
L 343.610502 -102.383281 
L 342.834856 -102.664267 
L 342.059209 -102.94809 
L 341.283563 -103.234779 
L 340.507916 -103.524362 
L 339.73227 -103.816869 
L 338.956624 -104.112329 
L 338.180977 -104.410772 
L 337.405331 -104.712229 
L 336.629685 -105.016728 
L 335.854038 -105.324303 
L 335.078392 -105.634982 
L 334.302746 -105.948798 
L 333.527099 -106.265783 
L 332.751453 -106.585968 
L 331.975806 -106.909385 
L 331.20016 -107.236068 
L 330.424514 -107.566049 
L 329.648867 -107.899362 
L 328.873221 -108.23604 
L 328.097575 -108.576117 
L 327.321928 -108.919628 
L 326.546282 -109.266607 
L 325.770635 -109.617089 
L 324.994989 -109.971109 
L 324.219343 -110.328704 
L 323.443696 -110.689909 
L 322.66805 -111.054761 
L 321.892404 -111.423297 
L 321.116757 -111.795553 
L 320.341111 -112.171568 
L 319.565464 -112.551379 
L 318.789818 -112.935025 
L 318.014172 -113.322544 
L 317.238525 -113.713976 
L 316.462879 -114.109359 
L 315.687233 -114.508735 
L 314.911586 -114.912142 
L 314.13594 -115.319623 
L 313.360293 -115.731218 
L 312.584647 -116.146968 
L 311.809001 -116.566916 
L 311.033354 -116.991103 
L 310.257708 -117.419574 
L 309.482062 -117.85237 
L 308.706415 -118.289536 
L 307.930769 -118.731115 
L 307.155122 -119.177153 
L 306.379476 -119.627694 
L 305.60383 -120.082784 
L 304.828183 -120.542469 
L 304.052537 -121.006795 
L 303.276891 -121.475808 
L 302.501244 -121.949557 
L 301.725598 -122.428089 
L 300.949952 -122.911453 
L 300.174305 -123.399696 
L 299.398659 -123.892869 
L 298.623012 -124.391021 
L 297.847366 -124.894203 
L 297.07172 -125.402465 
L 296.296073 -125.915858 
L 295.520427 -126.434435 
L 294.744781 -126.958247 
L 293.969134 -127.487348 
L 293.193488 -128.021791 
L 292.417841 -128.561629 
L 291.642195 -129.106918 
L 290.866549 -129.657713 
L 290.090902 -130.214068 
L 289.315256 -130.77604 
L 288.53961 -131.343687 
L 287.763963 -131.917064 
L 286.988317 -132.49623 
L 286.21267 -133.081244 
L 285.437024 -133.672164 
L 284.661378 -134.26905 
L 283.885731 -134.871962 
L 283.110085 -135.480961 
L 282.334439 -136.096109 
L 281.558792 -136.717468 
L 280.783146 -137.3451 
L 280.007499 -137.979069 
L 279.231853 -138.619438 
L 278.456207 -139.266273 
L 277.68056 -139.919638 
L 276.904914 -140.5796 
L 276.129268 -141.246225 
L 275.353621 -141.91958 
L 274.577975 -142.599733 
L 273.802329 -143.286753 
L 273.026682 -143.98071 
L 272.251036 -144.681673 
L 271.475389 -145.389713 
L 270.699743 -146.104901 
L 269.924097 -146.82731 
L 269.14845 -147.557012 
L 268.372804 -148.294082 
L 267.597158 -149.038593 
L 266.821511 -149.79062 
L 266.045865 -150.550241 
L 265.270218 -151.31753 
L 264.494572 -152.092566 
L 263.718926 -152.875426 
L 262.943279 -153.666191 
L 262.167633 -154.464938 
L 261.391987 -155.27175 
L 260.61634 -156.086707 
L 259.840694 -156.909892 
L 259.065047 -157.741388 
L 258.289401 -158.581278 
L 257.513755 -159.429648 
L 256.738108 -160.286583 
L 255.962462 -161.152168 
L 255.186816 -162.026493 
L 254.411169 -162.909644 
L 253.635523 -163.801711 
L 252.859876 -164.702784 
L 252.08423 -165.612954 
L 251.308584 -166.532312 
L 250.532937 -167.460951 
L 249.757291 -168.398965 
L 248.981645 -169.346448 
L 248.205998 -170.303496 
L 247.430352 -171.270206 
L 246.654705 -172.246674 
L 245.879059 -173.232999 
L 245.103413 -174.229281 
L 244.327766 -175.23562 
L 243.55212 -176.252116 
L 242.776474 -177.278874 
L 242.000827 -178.315995 
L 241.225181 -179.363585 
L 240.449535 -180.421749 
L 239.673888 -181.490593 
L 238.898242 -182.570225 
L 238.122595 -183.660754 
L 237.346949 -184.762288 
L 236.571303 -185.87494 
L 235.795656 -186.998821 
L 235.02001 -188.134043 
L 234.244364 -189.280721 
L 233.468717 -190.43897 
L 232.693071 -191.608906 
L 231.917424 -192.790647 
L 231.141778 -193.98431 
L 230.366132 -195.190017 
L 229.590485 -196.407887 
L 228.814839 -197.638042 
L 228.039193 -198.880606 
L 227.263546 -200.135702 
L 226.4879 -201.403457 
L 225.712253 -202.683996 
L 224.936607 -203.977447 
L 224.160961 -205.28394 
L 223.385314 -206.603604 
L 222.609668 -207.936571 
L 221.834022 -209.282972 
L 221.058375 -210.642942 
L 220.282729 -212.016615 
L 219.507082 -213.404127 
L 218.731436 -214.805615 
L 217.95579 -216.221218 
L 217.180143 -217.651073 
L 216.404497 -219.095322 
L 215.628851 -220.554107 
L 214.853204 -222.027569 
L 214.077558 -223.515852 
L 213.301911 -225.019101 
L 212.526265 -226.537462 
L 211.750619 -228.071081 
L 210.974972 -229.620105 
L 210.199326 -231.184684 
L 209.42368 -232.764965 
L 208.648033 -234.3611 
L 207.872387 -235.973239 
L 207.096741 -237.601534 
L 206.321094 -239.246136 
L 205.545448 -240.907199 
L 204.769801 -242.584875 
L 203.994155 -244.279318 
L 203.218509 -245.990681 
L 202.442862 -247.719119 
L 201.667216 -249.464784 
L 200.89157 -251.227831 
L 200.115923 -253.008413 
L 199.340277 -254.806683 
L 198.56463 -256.622793 
L 197.788984 -258.456894 
L 197.013338 -260.309136 
L 196.237691 -262.17967 
L 195.462045 -264.06864 
L 194.686399 -265.976194 
L 193.910752 -267.902474 
L 193.135106 -269.847621 
L 192.359459 -271.811772 
L 191.583813 -273.795061 
L 190.808167 -275.797618 
L 190.03252 -277.819569 
L 189.256874 -279.861034 
L 188.481228 -281.922129 
L 187.705581 -284.002963 
L 186.929935 -286.103636 
L 186.154288 -288.224243 
L 185.378642 -290.364868 
L 184.602996 -292.525587 
L 183.827349 -294.706465 
L 183.051703 -296.907553 
L 182.276057 -299.128892 
L 181.50041 -301.370505 
L 180.724764 -303.632401 
L 179.949117 -305.914572 
L 179.173471 -308.216987 
L 178.397825 -310.539596 
L 177.622178 -312.882325 
L 176.846532 -315.245074 
L 176.070886 -317.627714 
L 175.295239 -320.030084 
L 174.519593 -322.451988 
L 173.743947 -324.893194 
L 172.9683 -327.353427 
L 172.192654 -329.832367 
L 171.417007 -332.329644 
L 170.641361 -334.844832 
L 169.865715 -337.377448 
L 169.090068 -339.92694 
L 168.314422 -342.492687 
L 167.538776 -345.073987 
L 166.763129 -347.670055 
L 165.987483 -350.28001 
L 165.211836 -352.902869 
L 164.43619 -355.537535 
L 163.660544 -358.182791 
L 162.884897 -360.837283 
L 162.109251 -363.499513 
L 161.333605 -366.167821 
L 160.557958 -368.840371 
L 159.782312 -371.515138 
L 159.006665 -374.189886 
L 158.231019 -376.862151 
L 157.455373 -379.52922 
L 156.679726 -382.188107 
L 155.90408 -384.835529 
L 155.128434 -387.467877 
L 154.352787 -390.081189 
L 153.577141 -392.671114 
L 152.801494 -395.232879 
L 152.025848 -397.761247 
L 151.250202 -400.25048 
L 150.474555 -402.694288 
L 149.698909 -405.08578 
L 148.923263 -407.417408 
L 148.147616 -409.68091 
L 147.37197 -411.867242 
L 146.596323 -413.966505 
L 145.820677 -415.967871 
L 145.045031 -417.859494 
L 144.269384 -419.628421 
L 143.493738 -421.260484 
L 142.718092 -422.740198 
L 141.942445 -424.050634 
L 141.166799 -425.173288 
L 140.391153 -426.087938 
L 139.615506 -426.772491 
L 138.83986 -427.202803 
L 138.064213 -427.3525 
L 137.288567 -427.192771 
L 136.512921 -426.952154 
L 135.737274 -427.306284 
L 134.961628 -427.304455 
L 134.185982 -426.902727 
L 133.410335 -427.127549 
L 132.634689 -427.3525 
L 131.859042 -427.105025 
L 131.083396 -426.72354 
L 130.30775 -427.278345 
L 129.532103 -427.273692 
L 128.756457 -426.597529 
L 127.980811 -426.967694 
L 127.205164 -427.3525 
L 126.429518 -426.899295 
L 125.653871 -425.376254 
L 124.878225 -422.489953 
L 124.102579 -417.869021 
L 123.326932 -411.043462 
L 122.551286 -401.418487 
L 121.77564 -388.241403 
L 120.999993 -370.559721 
L 120.224347 -347.168146 
L 119.4487 -316.541501 
L 118.673054 -276.749863 
L 117.897408 -225.351178 
L 117.121761 -159.255385 
z
" style="stroke: #73c476; stroke-opacity: 0.3"/>
    </defs>
    <g clip-path="url(#p9c17ad6384)">
     <use xlink:href="#m7d7a52e82f" x="0" y="452.1925" style="fill: #73c476; fill-opacity: 0.3; stroke: #73c476; stroke-opacity: 0.3"/>
    </g>
   </g>
   <g id="matplotlib.axis_1">
    <g id="xtick_1">
     <g id="line2d_1">
      <defs>
       <path id="mff34e201e3" d="M 0 0 
L 0 3.5 
" style="stroke: #000000; stroke-width: 0.8"/>
      </defs>
      <g>
       <use xlink:href="#mff34e201e3" x="116.346115" y="395.28" style="stroke: #000000; stroke-width: 0.8"/>
      </g>
     </g>
     <g id="text_1">
      <!-- 0 -->
      <g transform="translate(109.983615 417.476875) scale(0.2 -0.2)">
       <defs>
        <path id="DejaVuSans-30" d="M 2034 4250 
Q 1547 4250 1301 3770 
Q 1056 3291 1056 2328 
Q 1056 1369 1301 889 
Q 1547 409 2034 409 
Q 2525 409 2770 889 
Q 3016 1369 3016 2328 
Q 3016 3291 2770 3770 
Q 2525 4250 2034 4250 
z
M 2034 4750 
Q 2819 4750 3233 4129 
Q 3647 3509 3647 2328 
Q 3647 1150 3233 529 
Q 2819 -91 2034 -91 
Q 1250 -91 836 529 
Q 422 1150 422 2328 
Q 422 3509 836 4129 
Q 1250 4750 2034 4750 
z
" transform="scale(0.015625)"/>
       </defs>
       <use xlink:href="#DejaVuSans-30"/>
      </g>
     </g>
    </g>
    <g id="xtick_2">
     <g id="line2d_2">
      <g>
       <use xlink:href="#mff34e201e3" x="193.910752" y="395.28" style="stroke: #000000; stroke-width: 0.8"/>
      </g>
     </g>
     <g id="text_2">
      <!-- 100 -->
      <g transform="translate(174.823252 417.476875) scale(0.2 -0.2)">
       <defs>
        <path id="DejaVuSans-31" d="M 794 531 
L 1825 531 
L 1825 4091 
L 703 3866 
L 703 4441 
L 1819 4666 
L 2450 4666 
L 2450 531 
L 3481 531 
L 3481 0 
L 794 0 
L 794 531 
z
" transform="scale(0.015625)"/>
       </defs>
       <use xlink:href="#DejaVuSans-31"/>
       <use xlink:href="#DejaVuSans-30" x="63.623047"/>
       <use xlink:href="#DejaVuSans-30" x="127.246094"/>
      </g>
     </g>
    </g>
    <g id="xtick_3">
     <g id="line2d_3">
      <g>
       <use xlink:href="#mff34e201e3" x="271.475389" y="395.28" style="stroke: #000000; stroke-width: 0.8"/>
      </g>
     </g>
     <g id="text_3">
      <!-- 200 -->
      <g transform="translate(252.387889 417.476875) scale(0.2 -0.2)">
       <defs>
        <path id="DejaVuSans-32" d="M 1228 531 
L 3431 531 
L 3431 0 
L 469 0 
L 469 531 
Q 828 903 1448 1529 
Q 2069 2156 2228 2338 
Q 2531 2678 2651 2914 
Q 2772 3150 2772 3378 
Q 2772 3750 2511 3984 
Q 2250 4219 1831 4219 
Q 1534 4219 1204 4116 
Q 875 4013 500 3803 
L 500 4441 
Q 881 4594 1212 4672 
Q 1544 4750 1819 4750 
Q 2544 4750 2975 4387 
Q 3406 4025 3406 3419 
Q 3406 3131 3298 2873 
Q 3191 2616 2906 2266 
Q 2828 2175 2409 1742 
Q 1991 1309 1228 531 
z
" transform="scale(0.015625)"/>
       </defs>
       <use xlink:href="#DejaVuSans-32"/>
       <use xlink:href="#DejaVuSans-30" x="63.623047"/>
       <use xlink:href="#DejaVuSans-30" x="127.246094"/>
      </g>
     </g>
    </g>
    <g id="xtick_4">
     <g id="line2d_4">
      <g>
       <use xlink:href="#mff34e201e3" x="349.040027" y="395.28" style="stroke: #000000; stroke-width: 0.8"/>
      </g>
     </g>
     <g id="text_4">
      <!-- 300 -->
      <g transform="translate(329.952527 417.476875) scale(0.2 -0.2)">
       <defs>
        <path id="DejaVuSans-33" d="M 2597 2516 
Q 3050 2419 3304 2112 
Q 3559 1806 3559 1356 
Q 3559 666 3084 287 
Q 2609 -91 1734 -91 
Q 1441 -91 1130 -33 
Q 819 25 488 141 
L 488 750 
Q 750 597 1062 519 
Q 1375 441 1716 441 
Q 2309 441 2620 675 
Q 2931 909 2931 1356 
Q 2931 1769 2642 2001 
Q 2353 2234 1838 2234 
L 1294 2234 
L 1294 2753 
L 1863 2753 
Q 2328 2753 2575 2939 
Q 2822 3125 2822 3475 
Q 2822 3834 2567 4026 
Q 2313 4219 1838 4219 
Q 1578 4219 1281 4162 
Q 984 4106 628 3988 
L 628 4550 
Q 988 4650 1302 4700 
Q 1616 4750 1894 4750 
Q 2613 4750 3031 4423 
Q 3450 4097 3450 3541 
Q 3450 3153 3228 2886 
Q 3006 2619 2597 2516 
z
" transform="scale(0.015625)"/>
       </defs>
       <use xlink:href="#DejaVuSans-33"/>
       <use xlink:href="#DejaVuSans-30" x="63.623047"/>
       <use xlink:href="#DejaVuSans-30" x="127.246094"/>
      </g>
     </g>
    </g>
    <g id="xtick_5">
     <g id="line2d_5">
      <g>
       <use xlink:href="#mff34e201e3" x="426.604664" y="395.28" style="stroke: #000000; stroke-width: 0.8"/>
      </g>
     </g>
     <g id="text_5">
      <!-- 400 -->
      <g transform="translate(407.517164 417.476875) scale(0.2 -0.2)">
       <defs>
        <path id="DejaVuSans-34" d="M 2419 4116 
L 825 1625 
L 2419 1625 
L 2419 4116 
z
M 2253 4666 
L 3047 4666 
L 3047 1625 
L 3713 1625 
L 3713 1100 
L 3047 1100 
L 3047 0 
L 2419 0 
L 2419 1100 
L 313 1100 
L 313 1709 
L 2253 4666 
z
" transform="scale(0.015625)"/>
       </defs>
       <use xlink:href="#DejaVuSans-34"/>
       <use xlink:href="#DejaVuSans-30" x="63.623047"/>
       <use xlink:href="#DejaVuSans-30" x="127.246094"/>
      </g>
     </g>
    </g>
    <g id="xtick_6">
     <g id="line2d_6">
      <g>
       <use xlink:href="#mff34e201e3" x="504.169301" y="395.28" style="stroke: #000000; stroke-width: 0.8"/>
      </g>
     </g>
     <g id="text_6">
      <!-- 500 -->
      <g transform="translate(485.081801 417.476875) scale(0.2 -0.2)">
       <defs>
        <path id="DejaVuSans-35" d="M 691 4666 
L 3169 4666 
L 3169 4134 
L 1269 4134 
L 1269 2991 
Q 1406 3038 1543 3061 
Q 1681 3084 1819 3084 
Q 2600 3084 3056 2656 
Q 3513 2228 3513 1497 
Q 3513 744 3044 326 
Q 2575 -91 1722 -91 
Q 1428 -91 1123 -41 
Q 819 9 494 109 
L 494 744 
Q 775 591 1075 516 
Q 1375 441 1709 441 
Q 2250 441 2565 725 
Q 2881 1009 2881 1497 
Q 2881 1984 2565 2268 
Q 2250 2553 1709 2553 
Q 1456 2553 1204 2497 
Q 953 2441 691 2322 
L 691 4666 
z
" transform="scale(0.015625)"/>
       </defs>
       <use xlink:href="#DejaVuSans-35"/>
       <use xlink:href="#DejaVuSans-30" x="63.623047"/>
       <use xlink:href="#DejaVuSans-30" x="127.246094"/>
      </g>
     </g>
    </g>
    <g id="xtick_7">
     <g id="line2d_7">
      <g>
       <use xlink:href="#mff34e201e3" x="581.733938" y="395.28" style="stroke: #000000; stroke-width: 0.8"/>
      </g>
     </g>
     <g id="text_7">
      <!-- 600 -->
      <g transform="translate(562.646438 417.476875) scale(0.2 -0.2)">
       <defs>
        <path id="DejaVuSans-36" d="M 2113 2584 
Q 1688 2584 1439 2293 
Q 1191 2003 1191 1497 
Q 1191 994 1439 701 
Q 1688 409 2113 409 
Q 2538 409 2786 701 
Q 3034 994 3034 1497 
Q 3034 2003 2786 2293 
Q 2538 2584 2113 2584 
z
M 3366 4563 
L 3366 3988 
Q 3128 4100 2886 4159 
Q 2644 4219 2406 4219 
Q 1781 4219 1451 3797 
Q 1122 3375 1075 2522 
Q 1259 2794 1537 2939 
Q 1816 3084 2150 3084 
Q 2853 3084 3261 2657 
Q 3669 2231 3669 1497 
Q 3669 778 3244 343 
Q 2819 -91 2113 -91 
Q 1303 -91 875 529 
Q 447 1150 447 2328 
Q 447 3434 972 4092 
Q 1497 4750 2381 4750 
Q 2619 4750 2861 4703 
Q 3103 4656 3366 4563 
z
" transform="scale(0.015625)"/>
       </defs>
       <use xlink:href="#DejaVuSans-36"/>
       <use xlink:href="#DejaVuSans-30" x="63.623047"/>
       <use xlink:href="#DejaVuSans-30" x="127.246094"/>
      </g>
     </g>
    </g>
    <g id="text_8">
     <!-- Days since antigen exposure -->
     <g transform="translate(226.337813 440.833125) scale(0.2 -0.2)">
      <defs>
       <path id="DejaVuSans-44" d="M 1259 4147 
L 1259 519 
L 2022 519 
Q 2988 519 3436 956 
Q 3884 1394 3884 2338 
Q 3884 3275 3436 3711 
Q 2988 4147 2022 4147 
L 1259 4147 
z
M 628 4666 
L 1925 4666 
Q 3281 4666 3915 4102 
Q 4550 3538 4550 2338 
Q 4550 1131 3912 565 
Q 3275 0 1925 0 
L 628 0 
L 628 4666 
z
" transform="scale(0.015625)"/>
       <path id="DejaVuSans-61" d="M 2194 1759 
Q 1497 1759 1228 1600 
Q 959 1441 959 1056 
Q 959 750 1161 570 
Q 1363 391 1709 391 
Q 2188 391 2477 730 
Q 2766 1069 2766 1631 
L 2766 1759 
L 2194 1759 
z
M 3341 1997 
L 3341 0 
L 2766 0 
L 2766 531 
Q 2569 213 2275 61 
Q 1981 -91 1556 -91 
Q 1019 -91 701 211 
Q 384 513 384 1019 
Q 384 1609 779 1909 
Q 1175 2209 1959 2209 
L 2766 2209 
L 2766 2266 
Q 2766 2663 2505 2880 
Q 2244 3097 1772 3097 
Q 1472 3097 1187 3025 
Q 903 2953 641 2809 
L 641 3341 
Q 956 3463 1253 3523 
Q 1550 3584 1831 3584 
Q 2591 3584 2966 3190 
Q 3341 2797 3341 1997 
z
" transform="scale(0.015625)"/>
       <path id="DejaVuSans-79" d="M 2059 -325 
Q 1816 -950 1584 -1140 
Q 1353 -1331 966 -1331 
L 506 -1331 
L 506 -850 
L 844 -850 
Q 1081 -850 1212 -737 
Q 1344 -625 1503 -206 
L 1606 56 
L 191 3500 
L 800 3500 
L 1894 763 
L 2988 3500 
L 3597 3500 
L 2059 -325 
z
" transform="scale(0.015625)"/>
       <path id="DejaVuSans-73" d="M 2834 3397 
L 2834 2853 
Q 2591 2978 2328 3040 
Q 2066 3103 1784 3103 
Q 1356 3103 1142 2972 
Q 928 2841 928 2578 
Q 928 2378 1081 2264 
Q 1234 2150 1697 2047 
L 1894 2003 
Q 2506 1872 2764 1633 
Q 3022 1394 3022 966 
Q 3022 478 2636 193 
Q 2250 -91 1575 -91 
Q 1294 -91 989 -36 
Q 684 19 347 128 
L 347 722 
Q 666 556 975 473 
Q 1284 391 1588 391 
Q 1994 391 2212 530 
Q 2431 669 2431 922 
Q 2431 1156 2273 1281 
Q 2116 1406 1581 1522 
L 1381 1569 
Q 847 1681 609 1914 
Q 372 2147 372 2553 
Q 372 3047 722 3315 
Q 1072 3584 1716 3584 
Q 2034 3584 2315 3537 
Q 2597 3491 2834 3397 
z
" transform="scale(0.015625)"/>
       <path id="DejaVuSans-20" transform="scale(0.015625)"/>
       <path id="DejaVuSans-69" d="M 603 3500 
L 1178 3500 
L 1178 0 
L 603 0 
L 603 3500 
z
M 603 4863 
L 1178 4863 
L 1178 4134 
L 603 4134 
L 603 4863 
z
" transform="scale(0.015625)"/>
       <path id="DejaVuSans-6e" d="M 3513 2113 
L 3513 0 
L 2938 0 
L 2938 2094 
Q 2938 2591 2744 2837 
Q 2550 3084 2163 3084 
Q 1697 3084 1428 2787 
Q 1159 2491 1159 1978 
L 1159 0 
L 581 0 
L 581 3500 
L 1159 3500 
L 1159 2956 
Q 1366 3272 1645 3428 
Q 1925 3584 2291 3584 
Q 2894 3584 3203 3211 
Q 3513 2838 3513 2113 
z
" transform="scale(0.015625)"/>
       <path id="DejaVuSans-63" d="M 3122 3366 
L 3122 2828 
Q 2878 2963 2633 3030 
Q 2388 3097 2138 3097 
Q 1578 3097 1268 2742 
Q 959 2388 959 1747 
Q 959 1106 1268 751 
Q 1578 397 2138 397 
Q 2388 397 2633 464 
Q 2878 531 3122 666 
L 3122 134 
Q 2881 22 2623 -34 
Q 2366 -91 2075 -91 
Q 1284 -91 818 406 
Q 353 903 353 1747 
Q 353 2603 823 3093 
Q 1294 3584 2113 3584 
Q 2378 3584 2631 3529 
Q 2884 3475 3122 3366 
z
" transform="scale(0.015625)"/>
       <path id="DejaVuSans-65" d="M 3597 1894 
L 3597 1613 
L 953 1613 
Q 991 1019 1311 708 
Q 1631 397 2203 397 
Q 2534 397 2845 478 
Q 3156 559 3463 722 
L 3463 178 
Q 3153 47 2828 -22 
Q 2503 -91 2169 -91 
Q 1331 -91 842 396 
Q 353 884 353 1716 
Q 353 2575 817 3079 
Q 1281 3584 2069 3584 
Q 2775 3584 3186 3129 
Q 3597 2675 3597 1894 
z
M 3022 2063 
Q 3016 2534 2758 2815 
Q 2500 3097 2075 3097 
Q 1594 3097 1305 2825 
Q 1016 2553 972 2059 
L 3022 2063 
z
" transform="scale(0.015625)"/>
       <path id="DejaVuSans-74" d="M 1172 4494 
L 1172 3500 
L 2356 3500 
L 2356 3053 
L 1172 3053 
L 1172 1153 
Q 1172 725 1289 603 
Q 1406 481 1766 481 
L 2356 481 
L 2356 0 
L 1766 0 
Q 1100 0 847 248 
Q 594 497 594 1153 
L 594 3053 
L 172 3053 
L 172 3500 
L 594 3500 
L 594 4494 
L 1172 4494 
z
" transform="scale(0.015625)"/>
       <path id="DejaVuSans-67" d="M 2906 1791 
Q 2906 2416 2648 2759 
Q 2391 3103 1925 3103 
Q 1463 3103 1205 2759 
Q 947 2416 947 1791 
Q 947 1169 1205 825 
Q 1463 481 1925 481 
Q 2391 481 2648 825 
Q 2906 1169 2906 1791 
z
M 3481 434 
Q 3481 -459 3084 -895 
Q 2688 -1331 1869 -1331 
Q 1566 -1331 1297 -1286 
Q 1028 -1241 775 -1147 
L 775 -588 
Q 1028 -725 1275 -790 
Q 1522 -856 1778 -856 
Q 2344 -856 2625 -561 
Q 2906 -266 2906 331 
L 2906 616 
Q 2728 306 2450 153 
Q 2172 0 1784 0 
Q 1141 0 747 490 
Q 353 981 353 1791 
Q 353 2603 747 3093 
Q 1141 3584 1784 3584 
Q 2172 3584 2450 3431 
Q 2728 3278 2906 2969 
L 2906 3500 
L 3481 3500 
L 3481 434 
z
" transform="scale(0.015625)"/>
       <path id="DejaVuSans-78" d="M 3513 3500 
L 2247 1797 
L 3578 0 
L 2900 0 
L 1881 1375 
L 863 0 
L 184 0 
L 1544 1831 
L 300 3500 
L 978 3500 
L 1906 2253 
L 2834 3500 
L 3513 3500 
z
" transform="scale(0.015625)"/>
       <path id="DejaVuSans-70" d="M 1159 525 
L 1159 -1331 
L 581 -1331 
L 581 3500 
L 1159 3500 
L 1159 2969 
Q 1341 3281 1617 3432 
Q 1894 3584 2278 3584 
Q 2916 3584 3314 3078 
Q 3713 2572 3713 1747 
Q 3713 922 3314 415 
Q 2916 -91 2278 -91 
Q 1894 -91 1617 61 
Q 1341 213 1159 525 
z
M 3116 1747 
Q 3116 2381 2855 2742 
Q 2594 3103 2138 3103 
Q 1681 3103 1420 2742 
Q 1159 2381 1159 1747 
Q 1159 1113 1420 752 
Q 1681 391 2138 391 
Q 2594 391 2855 752 
Q 3116 1113 3116 1747 
z
" transform="scale(0.015625)"/>
       <path id="DejaVuSans-6f" d="M 1959 3097 
Q 1497 3097 1228 2736 
Q 959 2375 959 1747 
Q 959 1119 1226 758 
Q 1494 397 1959 397 
Q 2419 397 2687 759 
Q 2956 1122 2956 1747 
Q 2956 2369 2687 2733 
Q 2419 3097 1959 3097 
z
M 1959 3584 
Q 2709 3584 3137 3096 
Q 3566 2609 3566 1747 
Q 3566 888 3137 398 
Q 2709 -91 1959 -91 
Q 1206 -91 779 398 
Q 353 888 353 1747 
Q 353 2609 779 3096 
Q 1206 3584 1959 3584 
z
" transform="scale(0.015625)"/>
       <path id="DejaVuSans-75" d="M 544 1381 
L 544 3500 
L 1119 3500 
L 1119 1403 
Q 1119 906 1312 657 
Q 1506 409 1894 409 
Q 2359 409 2629 706 
Q 2900 1003 2900 1516 
L 2900 3500 
L 3475 3500 
L 3475 0 
L 2900 0 
L 2900 538 
Q 2691 219 2414 64 
Q 2138 -91 1772 -91 
Q 1169 -91 856 284 
Q 544 659 544 1381 
z
M 1991 3584 
L 1991 3584 
z
" transform="scale(0.015625)"/>
       <path id="DejaVuSans-72" d="M 2631 2963 
Q 2534 3019 2420 3045 
Q 2306 3072 2169 3072 
Q 1681 3072 1420 2755 
Q 1159 2438 1159 1844 
L 1159 0 
L 581 0 
L 581 3500 
L 1159 3500 
L 1159 2956 
Q 1341 3275 1631 3429 
Q 1922 3584 2338 3584 
Q 2397 3584 2469 3576 
Q 2541 3569 2628 3553 
L 2631 2963 
z
" transform="scale(0.015625)"/>
      </defs>
      <use xlink:href="#DejaVuSans-44"/>
      <use xlink:href="#DejaVuSans-61" x="77.001953"/>
      <use xlink:href="#DejaVuSans-79" x="138.28125"/>
      <use xlink:href="#DejaVuSans-73" x="197.460938"/>
      <use xlink:href="#DejaVuSans-20" x="249.560547"/>
      <use xlink:href="#DejaVuSans-73" x="281.347656"/>
      <use xlink:href="#DejaVuSans-69" x="333.447266"/>
      <use xlink:href="#DejaVuSans-6e" x="361.230469"/>
      <use xlink:href="#DejaVuSans-63" x="424.609375"/>
      <use xlink:href="#DejaVuSans-65" x="479.589844"/>
      <use xlink:href="#DejaVuSans-20" x="541.113281"/>
      <use xlink:href="#DejaVuSans-61" x="572.900391"/>
      <use xlink:href="#DejaVuSans-6e" x="634.179688"/>
      <use xlink:href="#DejaVuSans-74" x="697.558594"/>
      <use xlink:href="#DejaVuSans-69" x="736.767578"/>
      <use xlink:href="#DejaVuSans-67" x="764.550781"/>
      <use xlink:href="#DejaVuSans-65" x="828.027344"/>
      <use xlink:href="#DejaVuSans-6e" x="889.550781"/>
      <use xlink:href="#DejaVuSans-20" x="952.929688"/>
      <use xlink:href="#DejaVuSans-65" x="984.716797"/>
      <use xlink:href="#DejaVuSans-78" x="1044.490234"/>
      <use xlink:href="#DejaVuSans-70" x="1103.669922"/>
      <use xlink:href="#DejaVuSans-6f" x="1167.146484"/>
      <use xlink:href="#DejaVuSans-73" x="1228.328125"/>
      <use xlink:href="#DejaVuSans-75" x="1280.427734"/>
      <use xlink:href="#DejaVuSans-72" x="1343.806641"/>
      <use xlink:href="#DejaVuSans-65" x="1382.669922"/>
     </g>
    </g>
   </g>
   <g id="matplotlib.axis_2">
    <g id="ytick_1">
     <g id="line2d_8">
      <defs>
       <path id="m9e096c954e" d="M 0 0 
L -3.5 0 
" style="stroke: #000000; stroke-width: 0.8"/>
      </defs>
      <g>
       <use xlink:href="#m9e096c954e" x="91.758125" y="377.640008" style="stroke: #000000; stroke-width: 0.8"/>
      </g>
     </g>
     <g id="text_9">
      <!-- 0.0 -->
      <g transform="translate(52.951875 385.238446) scale(0.2 -0.2)">
       <defs>
        <path id="DejaVuSans-2e" d="M 684 794 
L 1344 794 
L 1344 0 
L 684 0 
L 684 794 
z
" transform="scale(0.015625)"/>
       </defs>
       <use xlink:href="#DejaVuSans-30"/>
       <use xlink:href="#DejaVuSans-2e" x="63.623047"/>
       <use xlink:href="#DejaVuSans-30" x="95.410156"/>
      </g>
     </g>
    </g>
    <g id="ytick_2">
     <g id="line2d_9">
      <g>
       <use xlink:href="#m9e096c954e" x="91.758125" y="307.080007" style="stroke: #000000; stroke-width: 0.8"/>
      </g>
     </g>
     <g id="text_10">
      <!-- 0.2 -->
      <g transform="translate(52.951875 314.678444) scale(0.2 -0.2)">
       <use xlink:href="#DejaVuSans-30"/>
       <use xlink:href="#DejaVuSans-2e" x="63.623047"/>
       <use xlink:href="#DejaVuSans-32" x="95.410156"/>
      </g>
     </g>
    </g>
    <g id="ytick_3">
     <g id="line2d_10">
      <g>
       <use xlink:href="#m9e096c954e" x="91.758125" y="236.520005" style="stroke: #000000; stroke-width: 0.8"/>
      </g>
     </g>
     <g id="text_11">
      <!-- 0.4 -->
      <g transform="translate(52.951875 244.118442) scale(0.2 -0.2)">
       <use xlink:href="#DejaVuSans-30"/>
       <use xlink:href="#DejaVuSans-2e" x="63.623047"/>
       <use xlink:href="#DejaVuSans-34" x="95.410156"/>
      </g>
     </g>
    </g>
    <g id="ytick_4">
     <g id="line2d_11">
      <g>
       <use xlink:href="#m9e096c954e" x="91.758125" y="165.960003" style="stroke: #000000; stroke-width: 0.8"/>
      </g>
     </g>
     <g id="text_12">
      <!-- 0.6 -->
      <g transform="translate(52.951875 173.558441) scale(0.2 -0.2)">
       <use xlink:href="#DejaVuSans-30"/>
       <use xlink:href="#DejaVuSans-2e" x="63.623047"/>
       <use xlink:href="#DejaVuSans-36" x="95.410156"/>
      </g>
     </g>
    </g>
    <g id="ytick_5">
     <g id="line2d_12">
      <g>
       <use xlink:href="#m9e096c954e" x="91.758125" y="95.400002" style="stroke: #000000; stroke-width: 0.8"/>
      </g>
     </g>
     <g id="text_13">
      <!-- 0.8 -->
      <g transform="translate(52.951875 102.998439) scale(0.2 -0.2)">
       <defs>
        <path id="DejaVuSans-38" d="M 2034 2216 
Q 1584 2216 1326 1975 
Q 1069 1734 1069 1313 
Q 1069 891 1326 650 
Q 1584 409 2034 409 
Q 2484 409 2743 651 
Q 3003 894 3003 1313 
Q 3003 1734 2745 1975 
Q 2488 2216 2034 2216 
z
M 1403 2484 
Q 997 2584 770 2862 
Q 544 3141 544 3541 
Q 544 4100 942 4425 
Q 1341 4750 2034 4750 
Q 2731 4750 3128 4425 
Q 3525 4100 3525 3541 
Q 3525 3141 3298 2862 
Q 3072 2584 2669 2484 
Q 3125 2378 3379 2068 
Q 3634 1759 3634 1313 
Q 3634 634 3220 271 
Q 2806 -91 2034 -91 
Q 1263 -91 848 271 
Q 434 634 434 1313 
Q 434 1759 690 2068 
Q 947 2378 1403 2484 
z
M 1172 3481 
Q 1172 3119 1398 2916 
Q 1625 2713 2034 2713 
Q 2441 2713 2670 2916 
Q 2900 3119 2900 3481 
Q 2900 3844 2670 4047 
Q 2441 4250 2034 4250 
Q 1625 4250 1398 4047 
Q 1172 3844 1172 3481 
z
" transform="scale(0.015625)"/>
       </defs>
       <use xlink:href="#DejaVuSans-30"/>
       <use xlink:href="#DejaVuSans-2e" x="63.623047"/>
       <use xlink:href="#DejaVuSans-38" x="95.410156"/>
      </g>
     </g>
    </g>
    <g id="ytick_6">
     <g id="line2d_13">
      <g>
       <use xlink:href="#m9e096c954e" x="91.758125" y="24.84" style="stroke: #000000; stroke-width: 0.8"/>
      </g>
     </g>
     <g id="text_14">
      <!-- 1.0 -->
      <g transform="translate(52.951875 32.438437) scale(0.2 -0.2)">
       <use xlink:href="#DejaVuSans-31"/>
       <use xlink:href="#DejaVuSans-2e" x="63.623047"/>
       <use xlink:href="#DejaVuSans-30" x="95.410156"/>
      </g>
     </g>
    </g>
    <g id="text_15">
     <!-- Virus neutralization -->
     <g transform="translate(22.396875 298.544688) rotate(-90) scale(0.2 -0.2)">
      <defs>
       <path id="DejaVuSans-56" d="M 1831 0 
L 50 4666 
L 709 4666 
L 2188 738 
L 3669 4666 
L 4325 4666 
L 2547 0 
L 1831 0 
z
" transform="scale(0.015625)"/>
       <path id="DejaVuSans-6c" d="M 603 4863 
L 1178 4863 
L 1178 0 
L 603 0 
L 603 4863 
z
" transform="scale(0.015625)"/>
       <path id="DejaVuSans-7a" d="M 353 3500 
L 3084 3500 
L 3084 2975 
L 922 459 
L 3084 459 
L 3084 0 
L 275 0 
L 275 525 
L 2438 3041 
L 353 3041 
L 353 3500 
z
" transform="scale(0.015625)"/>
      </defs>
      <use xlink:href="#DejaVuSans-56"/>
      <use xlink:href="#DejaVuSans-69" x="66.158203"/>
      <use xlink:href="#DejaVuSans-72" x="93.941406"/>
      <use xlink:href="#DejaVuSans-75" x="135.054688"/>
      <use xlink:href="#DejaVuSans-73" x="198.433594"/>
      <use xlink:href="#DejaVuSans-20" x="250.533203"/>
      <use xlink:href="#DejaVuSans-6e" x="282.320312"/>
      <use xlink:href="#DejaVuSans-65" x="345.699219"/>
      <use xlink:href="#DejaVuSans-75" x="407.222656"/>
      <use xlink:href="#DejaVuSans-74" x="470.601562"/>
      <use xlink:href="#DejaVuSans-72" x="509.810547"/>
      <use xlink:href="#DejaVuSans-61" x="550.923828"/>
      <use xlink:href="#DejaVuSans-6c" x="612.203125"/>
      <use xlink:href="#DejaVuSans-69" x="639.986328"/>
      <use xlink:href="#DejaVuSans-7a" x="667.769531"/>
      <use xlink:href="#DejaVuSans-61" x="720.259766"/>
      <use xlink:href="#DejaVuSans-74" x="781.539062"/>
      <use xlink:href="#DejaVuSans-69" x="820.748047"/>
      <use xlink:href="#DejaVuSans-6f" x="848.53125"/>
      <use xlink:href="#DejaVuSans-6e" x="909.712891"/>
     </g>
     <!--  probability -->
     <g transform="translate(44.7925 257.769688) rotate(-90) scale(0.2 -0.2)">
      <defs>
       <path id="DejaVuSans-62" d="M 3116 1747 
Q 3116 2381 2855 2742 
Q 2594 3103 2138 3103 
Q 1681 3103 1420 2742 
Q 1159 2381 1159 1747 
Q 1159 1113 1420 752 
Q 1681 391 2138 391 
Q 2594 391 2855 752 
Q 3116 1113 3116 1747 
z
M 1159 2969 
Q 1341 3281 1617 3432 
Q 1894 3584 2278 3584 
Q 2916 3584 3314 3078 
Q 3713 2572 3713 1747 
Q 3713 922 3314 415 
Q 2916 -91 2278 -91 
Q 1894 -91 1617 61 
Q 1341 213 1159 525 
L 1159 0 
L 581 0 
L 581 4863 
L 1159 4863 
L 1159 2969 
z
" transform="scale(0.015625)"/>
      </defs>
      <use xlink:href="#DejaVuSans-20"/>
      <use xlink:href="#DejaVuSans-70" x="31.787109"/>
      <use xlink:href="#DejaVuSans-72" x="95.263672"/>
      <use xlink:href="#DejaVuSans-6f" x="134.126953"/>
      <use xlink:href="#DejaVuSans-62" x="195.308594"/>
      <use xlink:href="#DejaVuSans-61" x="258.785156"/>
      <use xlink:href="#DejaVuSans-62" x="320.064453"/>
      <use xlink:href="#DejaVuSans-69" x="383.541016"/>
      <use xlink:href="#DejaVuSans-6c" x="411.324219"/>
      <use xlink:href="#DejaVuSans-69" x="439.107422"/>
      <use xlink:href="#DejaVuSans-74" x="466.890625"/>
      <use xlink:href="#DejaVuSans-79" x="506.099609"/>
     </g>
    </g>
   </g>
   <g id="patch_3">
    <path d="M 91.758125 395.28 
L 91.758125 7.2 
" style="fill: none; stroke: #000000; stroke-width: 0.8; stroke-linejoin: miter; stroke-linecap: square"/>
   </g>
   <g id="patch_4">
    <path d="M 649.758125 395.28 
L 649.758125 7.2 
" style="fill: none; stroke: #000000; stroke-width: 0.8; stroke-linejoin: miter; stroke-linecap: square"/>
   </g>
   <g id="patch_5">
    <path d="M 91.758125 395.28 
L 649.758125 395.28 
" style="fill: none; stroke: #000000; stroke-width: 0.8; stroke-linejoin: miter; stroke-linecap: square"/>
   </g>
   <g id="patch_6">
    <path d="M 91.758125 7.2 
L 649.758125 7.2 
" style="fill: none; stroke: #000000; stroke-width: 0.8; stroke-linejoin: miter; stroke-linecap: square"/>
   </g>
   <g id="legend_1">
    <g id="patch_7">
     <path d="M 363.29875 52.55625 
L 635.758125 52.55625 
Q 639.758125 52.55625 639.758125 48.55625 
L 639.758125 21.2 
Q 639.758125 17.2 635.758125 17.2 
L 363.29875 17.2 
Q 359.29875 17.2 359.29875 21.2 
L 359.29875 48.55625 
Q 359.29875 52.55625 363.29875 52.55625 
z
" style="fill: #ffffff; opacity: 0.8; stroke: #cccccc; stroke-linejoin: miter"/>
    </g>
    <g id="patch_8">
     <path d="M 367.29875 40.396875 
L 407.29875 40.396875 
L 407.29875 26.396875 
L 367.29875 26.396875 
z
" style="fill: #73c476; fill-opacity: 0.3; stroke: #73c476; stroke-opacity: 0.3; stroke-linejoin: miter"/>
    </g>
    <g id="text_16">
     <!-- Epitopes PK (ranges) -->
     <g transform="translate(423.29875 40.396875) scale(0.2 -0.2)">
      <defs>
       <path id="DejaVuSans-45" d="M 628 4666 
L 3578 4666 
L 3578 4134 
L 1259 4134 
L 1259 2753 
L 3481 2753 
L 3481 2222 
L 1259 2222 
L 1259 531 
L 3634 531 
L 3634 0 
L 628 0 
L 628 4666 
z
" transform="scale(0.015625)"/>
       <path id="DejaVuSans-50" d="M 1259 4147 
L 1259 2394 
L 2053 2394 
Q 2494 2394 2734 2622 
Q 2975 2850 2975 3272 
Q 2975 3691 2734 3919 
Q 2494 4147 2053 4147 
L 1259 4147 
z
M 628 4666 
L 2053 4666 
Q 2838 4666 3239 4311 
Q 3641 3956 3641 3272 
Q 3641 2581 3239 2228 
Q 2838 1875 2053 1875 
L 1259 1875 
L 1259 0 
L 628 0 
L 628 4666 
z
" transform="scale(0.015625)"/>
       <path id="DejaVuSans-4b" d="M 628 4666 
L 1259 4666 
L 1259 2694 
L 3353 4666 
L 4166 4666 
L 1850 2491 
L 4331 0 
L 3500 0 
L 1259 2247 
L 1259 0 
L 628 0 
L 628 4666 
z
" transform="scale(0.015625)"/>
       <path id="DejaVuSans-28" d="M 1984 4856 
Q 1566 4138 1362 3434 
Q 1159 2731 1159 2009 
Q 1159 1288 1364 580 
Q 1569 -128 1984 -844 
L 1484 -844 
Q 1016 -109 783 600 
Q 550 1309 550 2009 
Q 550 2706 781 3412 
Q 1013 4119 1484 4856 
L 1984 4856 
z
" transform="scale(0.015625)"/>
       <path id="DejaVuSans-29" d="M 513 4856 
L 1013 4856 
Q 1481 4119 1714 3412 
Q 1947 2706 1947 2009 
Q 1947 1309 1714 600 
Q 1481 -109 1013 -844 
L 513 -844 
Q 928 -128 1133 580 
Q 1338 1288 1338 2009 
Q 1338 2731 1133 3434 
Q 928 4138 513 4856 
z
" transform="scale(0.015625)"/>
      </defs>
      <use xlink:href="#DejaVuSans-45"/>
      <use xlink:href="#DejaVuSans-70" x="63.183594"/>
      <use xlink:href="#DejaVuSans-69" x="126.660156"/>
      <use xlink:href="#DejaVuSans-74" x="154.443359"/>
      <use xlink:href="#DejaVuSans-6f" x="193.652344"/>
      <use xlink:href="#DejaVuSans-70" x="254.833984"/>
      <use xlink:href="#DejaVuSans-65" x="318.310547"/>
      <use xlink:href="#DejaVuSans-73" x="379.833984"/>
      <use xlink:href="#DejaVuSans-20" x="431.933594"/>
      <use xlink:href="#DejaVuSans-50" x="463.720703"/>
      <use xlink:href="#DejaVuSans-4b" x="524.023438"/>
      <use xlink:href="#DejaVuSans-20" x="589.599609"/>
      <use xlink:href="#DejaVuSans-28" x="621.386719"/>
      <use xlink:href="#DejaVuSans-72" x="660.400391"/>
      <use xlink:href="#DejaVuSans-61" x="701.513672"/>
      <use xlink:href="#DejaVuSans-6e" x="762.792969"/>
      <use xlink:href="#DejaVuSans-67" x="826.171875"/>
      <use xlink:href="#DejaVuSans-65" x="889.648438"/>
      <use xlink:href="#DejaVuSans-73" x="951.171875"/>
      <use xlink:href="#DejaVuSans-29" x="1003.271484"/>
     </g>
    </g>
   </g>
  </g>
 </g>
 <defs>
  <clipPath id="p9c17ad6384">
   <rect x="91.758125" y="7.2" width="558" height="388.08"/>
  </clipPath>
 </defs>
</svg>
