<?xml version="1.0" encoding="utf-8" standalone="no"?>
<!DOCTYPE svg PUBLIC "-//W3C//DTD SVG 1.1//EN"
  "http://www.w3.org/Graphics/SVG/1.1/DTD/svg11.dtd">
<svg xmlns:xlink="http://www.w3.org/1999/xlink" width="1080pt" height="504pt" viewBox="0 0 1080 504" xmlns="http://www.w3.org/2000/svg" version="1.1">
 <metadata>
  <rdf:RDF xmlns:dc="http://purl.org/dc/elements/1.1/" xmlns:cc="http://creativecommons.org/ns#" xmlns:rdf="http://www.w3.org/1999/02/22-rdf-syntax-ns#">
   <cc:Work>
    <dc:type rdf:resource="http://purl.org/dc/dcmitype/StillImage"/>
    <dc:date>2023-12-29T15:14:39.392595</dc:date>
    <dc:format>image/svg+xml</dc:format>
    <dc:creator>
     <cc:Agent>
      <dc:title>Matplotlib v3.7.2, https://matplotlib.org/</dc:title>
     </cc:Agent>
    </dc:creator>
   </cc:Work>
  </rdf:RDF>
 </metadata>
 <defs>
  <style type="text/css">*{stroke-linejoin: round; stroke-linecap: butt}</style>
 </defs>
 <g id="figure_1">
  <g id="patch_1">
   <path d="M 0 504 
L 1080 504 
L 1080 0 
L 0 0 
z
" style="fill: #ffffff"/>
  </g>
  <g id="axes_1">
   <g id="patch_2">
    <path d="M 135 448.56 
L 972 448.56 
L 972 60.48 
L 135 60.48 
z
" style="fill: #ffffff"/>
   </g>
   <g id="matplotlib.axis_1">
    <g id="xtick_1">
     <g id="line2d_1">
      <defs>
       <path id="mba5ae25e01" d="M 0 0 
L 0 3.5 
" style="stroke: #000000; stroke-width: 0.8"/>
      </defs>
      <g>
       <use xlink:href="#mba5ae25e01" x="135" y="448.56" style="stroke: #000000; stroke-width: 0.8"/>
      </g>
     </g>
     <g id="text_1">
      <!-- 2023-01-01 -->
      <g transform="translate(49.870973 548.493718) rotate(-45) scale(0.2 -0.2)">
       <defs>
        <path id="DejaVuSans-32" d="M 1228 531 
L 3431 531 
L 3431 0 
L 469 0 
L 469 531 
Q 828 903 1448 1529 
Q 2069 2156 2228 2338 
Q 2531 2678 2651 2914 
Q 2772 3150 2772 3378 
Q 2772 3750 2511 3984 
Q 2250 4219 1831 4219 
Q 1534 4219 1204 4116 
Q 875 4013 500 3803 
L 500 4441 
Q 881 4594 1212 4672 
Q 1544 4750 1819 4750 
Q 2544 4750 2975 4387 
Q 3406 4025 3406 3419 
Q 3406 3131 3298 2873 
Q 3191 2616 2906 2266 
Q 2828 2175 2409 1742 
Q 1991 1309 1228 531 
z
" transform="scale(0.015625)"/>
        <path id="DejaVuSans-30" d="M 2034 4250 
Q 1547 4250 1301 3770 
Q 1056 3291 1056 2328 
Q 1056 1369 1301 889 
Q 1547 409 2034 409 
Q 2525 409 2770 889 
Q 3016 1369 3016 2328 
Q 3016 3291 2770 3770 
Q 2525 4250 2034 4250 
z
M 2034 4750 
Q 2819 4750 3233 4129 
Q 3647 3509 3647 2328 
Q 3647 1150 3233 529 
Q 2819 -91 2034 -91 
Q 1250 -91 836 529 
Q 422 1150 422 2328 
Q 422 3509 836 4129 
Q 1250 4750 2034 4750 
z
" transform="scale(0.015625)"/>
        <path id="DejaVuSans-33" d="M 2597 2516 
Q 3050 2419 3304 2112 
Q 3559 1806 3559 1356 
Q 3559 666 3084 287 
Q 2609 -91 1734 -91 
Q 1441 -91 1130 -33 
Q 819 25 488 141 
L 488 750 
Q 750 597 1062 519 
Q 1375 441 1716 441 
Q 2309 441 2620 675 
Q 2931 909 2931 1356 
Q 2931 1769 2642 2001 
Q 2353 2234 1838 2234 
L 1294 2234 
L 1294 2753 
L 1863 2753 
Q 2328 2753 2575 2939 
Q 2822 3125 2822 3475 
Q 2822 3834 2567 4026 
Q 2313 4219 1838 4219 
Q 1578 4219 1281 4162 
Q 984 4106 628 3988 
L 628 4550 
Q 988 4650 1302 4700 
Q 1616 4750 1894 4750 
Q 2613 4750 3031 4423 
Q 3450 4097 3450 3541 
Q 3450 3153 3228 2886 
Q 3006 2619 2597 2516 
z
" transform="scale(0.015625)"/>
        <path id="DejaVuSans-2d" d="M 313 2009 
L 1997 2009 
L 1997 1497 
L 313 1497 
L 313 2009 
z
" transform="scale(0.015625)"/>
        <path id="DejaVuSans-31" d="M 794 531 
L 1825 531 
L 1825 4091 
L 703 3866 
L 703 4441 
L 1819 4666 
L 2450 4666 
L 2450 531 
L 3481 531 
L 3481 0 
L 794 0 
L 794 531 
z
" transform="scale(0.015625)"/>
       </defs>
       <use xlink:href="#DejaVuSans-32"/>
       <use xlink:href="#DejaVuSans-30" x="63.623047"/>
       <use xlink:href="#DejaVuSans-32" x="127.246094"/>
       <use xlink:href="#DejaVuSans-33" x="190.869141"/>
       <use xlink:href="#DejaVuSans-2d" x="254.492188"/>
       <use xlink:href="#DejaVuSans-30" x="290.576172"/>
       <use xlink:href="#DejaVuSans-31" x="354.199219"/>
       <use xlink:href="#DejaVuSans-2d" x="417.822266"/>
       <use xlink:href="#DejaVuSans-30" x="453.90625"/>
       <use xlink:href="#DejaVuSans-31" x="517.529297"/>
      </g>
     </g>
    </g>
    <g id="xtick_2">
     <g id="line2d_2">
      <g>
       <use xlink:href="#mba5ae25e01" x="191.608696" y="448.56" style="stroke: #000000; stroke-width: 0.8"/>
      </g>
     </g>
     <g id="text_2">
      <!-- 2023-01-15 -->
      <g transform="translate(106.479668 548.493718) rotate(-45) scale(0.2 -0.2)">
       <defs>
        <path id="DejaVuSans-35" d="M 691 4666 
L 3169 4666 
L 3169 4134 
L 1269 4134 
L 1269 2991 
Q 1406 3038 1543 3061 
Q 1681 3084 1819 3084 
Q 2600 3084 3056 2656 
Q 3513 2228 3513 1497 
Q 3513 744 3044 326 
Q 2575 -91 1722 -91 
Q 1428 -91 1123 -41 
Q 819 9 494 109 
L 494 744 
Q 775 591 1075 516 
Q 1375 441 1709 441 
Q 2250 441 2565 725 
Q 2881 1009 2881 1497 
Q 2881 1984 2565 2268 
Q 2250 2553 1709 2553 
Q 1456 2553 1204 2497 
Q 953 2441 691 2322 
L 691 4666 
z
" transform="scale(0.015625)"/>
       </defs>
       <use xlink:href="#DejaVuSans-32"/>
       <use xlink:href="#DejaVuSans-30" x="63.623047"/>
       <use xlink:href="#DejaVuSans-32" x="127.246094"/>
       <use xlink:href="#DejaVuSans-33" x="190.869141"/>
       <use xlink:href="#DejaVuSans-2d" x="254.492188"/>
       <use xlink:href="#DejaVuSans-30" x="290.576172"/>
       <use xlink:href="#DejaVuSans-31" x="354.199219"/>
       <use xlink:href="#DejaVuSans-2d" x="417.822266"/>
       <use xlink:href="#DejaVuSans-31" x="453.90625"/>
       <use xlink:href="#DejaVuSans-35" x="517.529297"/>
      </g>
     </g>
    </g>
    <g id="xtick_3">
     <g id="line2d_3">
      <g>
       <use xlink:href="#mba5ae25e01" x="248.217391" y="448.56" style="stroke: #000000; stroke-width: 0.8"/>
      </g>
     </g>
     <g id="text_3">
      <!-- 2023-01-29 -->
      <g transform="translate(163.088364 548.493718) rotate(-45) scale(0.2 -0.2)">
       <defs>
        <path id="DejaVuSans-39" d="M 703 97 
L 703 672 
Q 941 559 1184 500 
Q 1428 441 1663 441 
Q 2288 441 2617 861 
Q 2947 1281 2994 2138 
Q 2813 1869 2534 1725 
Q 2256 1581 1919 1581 
Q 1219 1581 811 2004 
Q 403 2428 403 3163 
Q 403 3881 828 4315 
Q 1253 4750 1959 4750 
Q 2769 4750 3195 4129 
Q 3622 3509 3622 2328 
Q 3622 1225 3098 567 
Q 2575 -91 1691 -91 
Q 1453 -91 1209 -44 
Q 966 3 703 97 
z
M 1959 2075 
Q 2384 2075 2632 2365 
Q 2881 2656 2881 3163 
Q 2881 3666 2632 3958 
Q 2384 4250 1959 4250 
Q 1534 4250 1286 3958 
Q 1038 3666 1038 3163 
Q 1038 2656 1286 2365 
Q 1534 2075 1959 2075 
z
" transform="scale(0.015625)"/>
       </defs>
       <use xlink:href="#DejaVuSans-32"/>
       <use xlink:href="#DejaVuSans-30" x="63.623047"/>
       <use xlink:href="#DejaVuSans-32" x="127.246094"/>
       <use xlink:href="#DejaVuSans-33" x="190.869141"/>
       <use xlink:href="#DejaVuSans-2d" x="254.492188"/>
       <use xlink:href="#DejaVuSans-30" x="290.576172"/>
       <use xlink:href="#DejaVuSans-31" x="354.199219"/>
       <use xlink:href="#DejaVuSans-2d" x="417.822266"/>
       <use xlink:href="#DejaVuSans-32" x="453.90625"/>
       <use xlink:href="#DejaVuSans-39" x="517.529297"/>
      </g>
     </g>
    </g>
    <g id="xtick_4">
     <g id="line2d_4">
      <g>
       <use xlink:href="#mba5ae25e01" x="304.826087" y="448.56" style="stroke: #000000; stroke-width: 0.8"/>
      </g>
     </g>
     <g id="text_4">
      <!-- 2023-02-12 -->
      <g transform="translate(219.69706 548.493718) rotate(-45) scale(0.2 -0.2)">
       <use xlink:href="#DejaVuSans-32"/>
       <use xlink:href="#DejaVuSans-30" x="63.623047"/>
       <use xlink:href="#DejaVuSans-32" x="127.246094"/>
       <use xlink:href="#DejaVuSans-33" x="190.869141"/>
       <use xlink:href="#DejaVuSans-2d" x="254.492188"/>
       <use xlink:href="#DejaVuSans-30" x="290.576172"/>
       <use xlink:href="#DejaVuSans-32" x="354.199219"/>
       <use xlink:href="#DejaVuSans-2d" x="417.822266"/>
       <use xlink:href="#DejaVuSans-31" x="453.90625"/>
       <use xlink:href="#DejaVuSans-32" x="517.529297"/>
      </g>
     </g>
    </g>
    <g id="xtick_5">
     <g id="line2d_5">
      <g>
       <use xlink:href="#mba5ae25e01" x="361.434783" y="448.56" style="stroke: #000000; stroke-width: 0.8"/>
      </g>
     </g>
     <g id="text_5">
      <!-- 2023-02-26 -->
      <g transform="translate(276.305755 548.493718) rotate(-45) scale(0.2 -0.2)">
       <defs>
        <path id="DejaVuSans-36" d="M 2113 2584 
Q 1688 2584 1439 2293 
Q 1191 2003 1191 1497 
Q 1191 994 1439 701 
Q 1688 409 2113 409 
Q 2538 409 2786 701 
Q 3034 994 3034 1497 
Q 3034 2003 2786 2293 
Q 2538 2584 2113 2584 
z
M 3366 4563 
L 3366 3988 
Q 3128 4100 2886 4159 
Q 2644 4219 2406 4219 
Q 1781 4219 1451 3797 
Q 1122 3375 1075 2522 
Q 1259 2794 1537 2939 
Q 1816 3084 2150 3084 
Q 2853 3084 3261 2657 
Q 3669 2231 3669 1497 
Q 3669 778 3244 343 
Q 2819 -91 2113 -91 
Q 1303 -91 875 529 
Q 447 1150 447 2328 
Q 447 3434 972 4092 
Q 1497 4750 2381 4750 
Q 2619 4750 2861 4703 
Q 3103 4656 3366 4563 
z
" transform="scale(0.015625)"/>
       </defs>
       <use xlink:href="#DejaVuSans-32"/>
       <use xlink:href="#DejaVuSans-30" x="63.623047"/>
       <use xlink:href="#DejaVuSans-32" x="127.246094"/>
       <use xlink:href="#DejaVuSans-33" x="190.869141"/>
       <use xlink:href="#DejaVuSans-2d" x="254.492188"/>
       <use xlink:href="#DejaVuSans-30" x="290.576172"/>
       <use xlink:href="#DejaVuSans-32" x="354.199219"/>
       <use xlink:href="#DejaVuSans-2d" x="417.822266"/>
       <use xlink:href="#DejaVuSans-32" x="453.90625"/>
       <use xlink:href="#DejaVuSans-36" x="517.529297"/>
      </g>
     </g>
    </g>
    <g id="xtick_6">
     <g id="line2d_6">
      <g>
       <use xlink:href="#mba5ae25e01" x="418.043478" y="448.56" style="stroke: #000000; stroke-width: 0.8"/>
      </g>
     </g>
     <g id="text_6">
      <!-- 2023-03-12 -->
      <g transform="translate(332.914451 548.493718) rotate(-45) scale(0.2 -0.2)">
       <use xlink:href="#DejaVuSans-32"/>
       <use xlink:href="#DejaVuSans-30" x="63.623047"/>
       <use xlink:href="#DejaVuSans-32" x="127.246094"/>
       <use xlink:href="#DejaVuSans-33" x="190.869141"/>
       <use xlink:href="#DejaVuSans-2d" x="254.492188"/>
       <use xlink:href="#DejaVuSans-30" x="290.576172"/>
       <use xlink:href="#DejaVuSans-33" x="354.199219"/>
       <use xlink:href="#DejaVuSans-2d" x="417.822266"/>
       <use xlink:href="#DejaVuSans-31" x="453.90625"/>
       <use xlink:href="#DejaVuSans-32" x="517.529297"/>
      </g>
     </g>
    </g>
    <g id="xtick_7">
     <g id="line2d_7">
      <g>
       <use xlink:href="#mba5ae25e01" x="474.652174" y="448.56" style="stroke: #000000; stroke-width: 0.8"/>
      </g>
     </g>
     <g id="text_7">
      <!-- 2023-03-26 -->
      <g transform="translate(389.523147 548.493718) rotate(-45) scale(0.2 -0.2)">
       <use xlink:href="#DejaVuSans-32"/>
       <use xlink:href="#DejaVuSans-30" x="63.623047"/>
       <use xlink:href="#DejaVuSans-32" x="127.246094"/>
       <use xlink:href="#DejaVuSans-33" x="190.869141"/>
       <use xlink:href="#DejaVuSans-2d" x="254.492188"/>
       <use xlink:href="#DejaVuSans-30" x="290.576172"/>
       <use xlink:href="#DejaVuSans-33" x="354.199219"/>
       <use xlink:href="#DejaVuSans-2d" x="417.822266"/>
       <use xlink:href="#DejaVuSans-32" x="453.90625"/>
       <use xlink:href="#DejaVuSans-36" x="517.529297"/>
      </g>
     </g>
    </g>
    <g id="xtick_8">
     <g id="line2d_8">
      <g>
       <use xlink:href="#mba5ae25e01" x="531.26087" y="448.56" style="stroke: #000000; stroke-width: 0.8"/>
      </g>
     </g>
     <g id="text_8">
      <!-- 2023-04-09 -->
      <g transform="translate(446.131842 548.493718) rotate(-45) scale(0.2 -0.2)">
       <defs>
        <path id="DejaVuSans-34" d="M 2419 4116 
L 825 1625 
L 2419 1625 
L 2419 4116 
z
M 2253 4666 
L 3047 4666 
L 3047 1625 
L 3713 1625 
L 3713 1100 
L 3047 1100 
L 3047 0 
L 2419 0 
L 2419 1100 
L 313 1100 
L 313 1709 
L 2253 4666 
z
" transform="scale(0.015625)"/>
       </defs>
       <use xlink:href="#DejaVuSans-32"/>
       <use xlink:href="#DejaVuSans-30" x="63.623047"/>
       <use xlink:href="#DejaVuSans-32" x="127.246094"/>
       <use xlink:href="#DejaVuSans-33" x="190.869141"/>
       <use xlink:href="#DejaVuSans-2d" x="254.492188"/>
       <use xlink:href="#DejaVuSans-30" x="290.576172"/>
       <use xlink:href="#DejaVuSans-34" x="354.199219"/>
       <use xlink:href="#DejaVuSans-2d" x="417.822266"/>
       <use xlink:href="#DejaVuSans-30" x="453.90625"/>
       <use xlink:href="#DejaVuSans-39" x="517.529297"/>
      </g>
     </g>
    </g>
    <g id="xtick_9">
     <g id="line2d_9">
      <g>
       <use xlink:href="#mba5ae25e01" x="587.869565" y="448.56" style="stroke: #000000; stroke-width: 0.8"/>
      </g>
     </g>
     <g id="text_9">
      <!-- 2023-04-23 -->
      <g transform="translate(502.740538 548.493718) rotate(-45) scale(0.2 -0.2)">
       <use xlink:href="#DejaVuSans-32"/>
       <use xlink:href="#DejaVuSans-30" x="63.623047"/>
       <use xlink:href="#DejaVuSans-32" x="127.246094"/>
       <use xlink:href="#DejaVuSans-33" x="190.869141"/>
       <use xlink:href="#DejaVuSans-2d" x="254.492188"/>
       <use xlink:href="#DejaVuSans-30" x="290.576172"/>
       <use xlink:href="#DejaVuSans-34" x="354.199219"/>
       <use xlink:href="#DejaVuSans-2d" x="417.822266"/>
       <use xlink:href="#DejaVuSans-32" x="453.90625"/>
       <use xlink:href="#DejaVuSans-33" x="517.529297"/>
      </g>
     </g>
    </g>
    <g id="xtick_10">
     <g id="line2d_10">
      <g>
       <use xlink:href="#mba5ae25e01" x="644.478261" y="448.56" style="stroke: #000000; stroke-width: 0.8"/>
      </g>
     </g>
     <g id="text_10">
      <!-- 2023-05-07 -->
      <g transform="translate(559.349234 548.493718) rotate(-45) scale(0.2 -0.2)">
       <defs>
        <path id="DejaVuSans-37" d="M 525 4666 
L 3525 4666 
L 3525 4397 
L 1831 0 
L 1172 0 
L 2766 4134 
L 525 4134 
L 525 4666 
z
" transform="scale(0.015625)"/>
       </defs>
       <use xlink:href="#DejaVuSans-32"/>
       <use xlink:href="#DejaVuSans-30" x="63.623047"/>
       <use xlink:href="#DejaVuSans-32" x="127.246094"/>
       <use xlink:href="#DejaVuSans-33" x="190.869141"/>
       <use xlink:href="#DejaVuSans-2d" x="254.492188"/>
       <use xlink:href="#DejaVuSans-30" x="290.576172"/>
       <use xlink:href="#DejaVuSans-35" x="354.199219"/>
       <use xlink:href="#DejaVuSans-2d" x="417.822266"/>
       <use xlink:href="#DejaVuSans-30" x="453.90625"/>
       <use xlink:href="#DejaVuSans-37" x="517.529297"/>
      </g>
     </g>
    </g>
    <g id="xtick_11">
     <g id="line2d_11">
      <g>
       <use xlink:href="#mba5ae25e01" x="701.086957" y="448.56" style="stroke: #000000; stroke-width: 0.8"/>
      </g>
     </g>
     <g id="text_11">
      <!-- 2023-05-21 -->
      <g transform="translate(615.957929 548.493718) rotate(-45) scale(0.2 -0.2)">
       <use xlink:href="#DejaVuSans-32"/>
       <use xlink:href="#DejaVuSans-30" x="63.623047"/>
       <use xlink:href="#DejaVuSans-32" x="127.246094"/>
       <use xlink:href="#DejaVuSans-33" x="190.869141"/>
       <use xlink:href="#DejaVuSans-2d" x="254.492188"/>
       <use xlink:href="#DejaVuSans-30" x="290.576172"/>
       <use xlink:href="#DejaVuSans-35" x="354.199219"/>
       <use xlink:href="#DejaVuSans-2d" x="417.822266"/>
       <use xlink:href="#DejaVuSans-32" x="453.90625"/>
       <use xlink:href="#DejaVuSans-31" x="517.529297"/>
      </g>
     </g>
    </g>
    <g id="xtick_12">
     <g id="line2d_12">
      <g>
       <use xlink:href="#mba5ae25e01" x="757.695652" y="448.56" style="stroke: #000000; stroke-width: 0.8"/>
      </g>
     </g>
     <g id="text_12">
      <!-- 2023-06-04 -->
      <g transform="translate(672.566625 548.493718) rotate(-45) scale(0.2 -0.2)">
       <use xlink:href="#DejaVuSans-32"/>
       <use xlink:href="#DejaVuSans-30" x="63.623047"/>
       <use xlink:href="#DejaVuSans-32" x="127.246094"/>
       <use xlink:href="#DejaVuSans-33" x="190.869141"/>
       <use xlink:href="#DejaVuSans-2d" x="254.492188"/>
       <use xlink:href="#DejaVuSans-30" x="290.576172"/>
       <use xlink:href="#DejaVuSans-36" x="354.199219"/>
       <use xlink:href="#DejaVuSans-2d" x="417.822266"/>
       <use xlink:href="#DejaVuSans-30" x="453.90625"/>
       <use xlink:href="#DejaVuSans-34" x="517.529297"/>
      </g>
     </g>
    </g>
    <g id="xtick_13">
     <g id="line2d_13">
      <g>
       <use xlink:href="#mba5ae25e01" x="814.304348" y="448.56" style="stroke: #000000; stroke-width: 0.8"/>
      </g>
     </g>
     <g id="text_13">
      <!-- 2023-06-18 -->
      <g transform="translate(729.17532 548.493718) rotate(-45) scale(0.2 -0.2)">
       <defs>
        <path id="DejaVuSans-38" d="M 2034 2216 
Q 1584 2216 1326 1975 
Q 1069 1734 1069 1313 
Q 1069 891 1326 650 
Q 1584 409 2034 409 
Q 2484 409 2743 651 
Q 3003 894 3003 1313 
Q 3003 1734 2745 1975 
Q 2488 2216 2034 2216 
z
M 1403 2484 
Q 997 2584 770 2862 
Q 544 3141 544 3541 
Q 544 4100 942 4425 
Q 1341 4750 2034 4750 
Q 2731 4750 3128 4425 
Q 3525 4100 3525 3541 
Q 3525 3141 3298 2862 
Q 3072 2584 2669 2484 
Q 3125 2378 3379 2068 
Q 3634 1759 3634 1313 
Q 3634 634 3220 271 
Q 2806 -91 2034 -91 
Q 1263 -91 848 271 
Q 434 634 434 1313 
Q 434 1759 690 2068 
Q 947 2378 1403 2484 
z
M 1172 3481 
Q 1172 3119 1398 2916 
Q 1625 2713 2034 2713 
Q 2441 2713 2670 2916 
Q 2900 3119 2900 3481 
Q 2900 3844 2670 4047 
Q 2441 4250 2034 4250 
Q 1625 4250 1398 4047 
Q 1172 3844 1172 3481 
z
" transform="scale(0.015625)"/>
       </defs>
       <use xlink:href="#DejaVuSans-32"/>
       <use xlink:href="#DejaVuSans-30" x="63.623047"/>
       <use xlink:href="#DejaVuSans-32" x="127.246094"/>
       <use xlink:href="#DejaVuSans-33" x="190.869141"/>
       <use xlink:href="#DejaVuSans-2d" x="254.492188"/>
       <use xlink:href="#DejaVuSans-30" x="290.576172"/>
       <use xlink:href="#DejaVuSans-36" x="354.199219"/>
       <use xlink:href="#DejaVuSans-2d" x="417.822266"/>
       <use xlink:href="#DejaVuSans-31" x="453.90625"/>
       <use xlink:href="#DejaVuSans-38" x="517.529297"/>
      </g>
     </g>
    </g>
    <g id="xtick_14">
     <g id="line2d_14">
      <g>
       <use xlink:href="#mba5ae25e01" x="870.913043" y="448.56" style="stroke: #000000; stroke-width: 0.8"/>
      </g>
     </g>
     <g id="text_14">
      <!-- 2023-07-02 -->
      <g transform="translate(785.784016 548.493718) rotate(-45) scale(0.2 -0.2)">
       <use xlink:href="#DejaVuSans-32"/>
       <use xlink:href="#DejaVuSans-30" x="63.623047"/>
       <use xlink:href="#DejaVuSans-32" x="127.246094"/>
       <use xlink:href="#DejaVuSans-33" x="190.869141"/>
       <use xlink:href="#DejaVuSans-2d" x="254.492188"/>
       <use xlink:href="#DejaVuSans-30" x="290.576172"/>
       <use xlink:href="#DejaVuSans-37" x="354.199219"/>
       <use xlink:href="#DejaVuSans-2d" x="417.822266"/>
       <use xlink:href="#DejaVuSans-30" x="453.90625"/>
       <use xlink:href="#DejaVuSans-32" x="517.529297"/>
      </g>
     </g>
    </g>
    <g id="xtick_15">
     <g id="line2d_15">
      <g>
       <use xlink:href="#mba5ae25e01" x="927.521739" y="448.56" style="stroke: #000000; stroke-width: 0.8"/>
      </g>
     </g>
     <g id="text_15">
      <!-- 2023-07-16 -->
      <g transform="translate(842.392712 548.493718) rotate(-45) scale(0.2 -0.2)">
       <use xlink:href="#DejaVuSans-32"/>
       <use xlink:href="#DejaVuSans-30" x="63.623047"/>
       <use xlink:href="#DejaVuSans-32" x="127.246094"/>
       <use xlink:href="#DejaVuSans-33" x="190.869141"/>
       <use xlink:href="#DejaVuSans-2d" x="254.492188"/>
       <use xlink:href="#DejaVuSans-30" x="290.576172"/>
       <use xlink:href="#DejaVuSans-37" x="354.199219"/>
       <use xlink:href="#DejaVuSans-2d" x="417.822266"/>
       <use xlink:href="#DejaVuSans-31" x="453.90625"/>
       <use xlink:href="#DejaVuSans-36" x="517.529297"/>
      </g>
     </g>
    </g>
    <g id="xtick_16">
     <g id="line2d_16">
      <g>
       <use xlink:href="#mba5ae25e01" x="972" y="448.56" style="stroke: #000000; stroke-width: 0.8"/>
      </g>
     </g>
     <g id="text_16">
      <!-- 2023-07-27 -->
      <g transform="translate(886.870973 548.493718) rotate(-45) scale(0.2 -0.2)">
       <use xlink:href="#DejaVuSans-32"/>
       <use xlink:href="#DejaVuSans-30" x="63.623047"/>
       <use xlink:href="#DejaVuSans-32" x="127.246094"/>
       <use xlink:href="#DejaVuSans-33" x="190.869141"/>
       <use xlink:href="#DejaVuSans-2d" x="254.492188"/>
       <use xlink:href="#DejaVuSans-30" x="290.576172"/>
       <use xlink:href="#DejaVuSans-37" x="354.199219"/>
       <use xlink:href="#DejaVuSans-2d" x="417.822266"/>
       <use xlink:href="#DejaVuSans-32" x="453.90625"/>
       <use xlink:href="#DejaVuSans-37" x="517.529297"/>
      </g>
     </g>
    </g>
   </g>
   <g id="matplotlib.axis_2">
    <g id="ytick_1">
     <g id="line2d_17">
      <defs>
       <path id="m4d17d80e07" d="M 0 0 
L -3.5 0 
" style="stroke: #000000; stroke-width: 0.8"/>
      </defs>
      <g>
       <use xlink:href="#m4d17d80e07" x="135" y="448.56" style="stroke: #000000; stroke-width: 0.8"/>
      </g>
     </g>
     <g id="text_17">
      <!-- 0 -->
      <g transform="translate(115.275 456.158437) scale(0.2 -0.2)">
       <use xlink:href="#DejaVuSans-30"/>
      </g>
     </g>
    </g>
    <g id="ytick_2">
     <g id="line2d_18">
      <g>
       <use xlink:href="#m4d17d80e07" x="135" y="374.64" style="stroke: #000000; stroke-width: 0.8"/>
      </g>
     </g>
     <g id="text_18">
      <!-- 20 -->
      <g transform="translate(102.55 382.238438) scale(0.2 -0.2)">
       <use xlink:href="#DejaVuSans-32"/>
       <use xlink:href="#DejaVuSans-30" x="63.623047"/>
      </g>
     </g>
    </g>
    <g id="ytick_3">
     <g id="line2d_19">
      <g>
       <use xlink:href="#m4d17d80e07" x="135" y="300.72" style="stroke: #000000; stroke-width: 0.8"/>
      </g>
     </g>
     <g id="text_19">
      <!-- 40 -->
      <g transform="translate(102.55 308.318437) scale(0.2 -0.2)">
       <use xlink:href="#DejaVuSans-34"/>
       <use xlink:href="#DejaVuSans-30" x="63.623047"/>
      </g>
     </g>
    </g>
    <g id="ytick_4">
     <g id="line2d_20">
      <g>
       <use xlink:href="#m4d17d80e07" x="135" y="226.8" style="stroke: #000000; stroke-width: 0.8"/>
      </g>
     </g>
     <g id="text_20">
      <!-- 60 -->
      <g transform="translate(102.55 234.398438) scale(0.2 -0.2)">
       <use xlink:href="#DejaVuSans-36"/>
       <use xlink:href="#DejaVuSans-30" x="63.623047"/>
      </g>
     </g>
    </g>
    <g id="ytick_5">
     <g id="line2d_21">
      <g>
       <use xlink:href="#m4d17d80e07" x="135" y="152.88" style="stroke: #000000; stroke-width: 0.8"/>
      </g>
     </g>
     <g id="text_21">
      <!-- 80 -->
      <g transform="translate(102.55 160.478437) scale(0.2 -0.2)">
       <use xlink:href="#DejaVuSans-38"/>
       <use xlink:href="#DejaVuSans-30" x="63.623047"/>
      </g>
     </g>
    </g>
    <g id="ytick_6">
     <g id="line2d_22">
      <g>
       <use xlink:href="#m4d17d80e07" x="135" y="78.96" style="stroke: #000000; stroke-width: 0.8"/>
      </g>
     </g>
     <g id="text_22">
      <!-- 100 -->
      <g transform="translate(89.825 86.558437) scale(0.2 -0.2)">
       <use xlink:href="#DejaVuSans-31"/>
       <use xlink:href="#DejaVuSans-30" x="63.623047"/>
       <use xlink:href="#DejaVuSans-30" x="127.246094"/>
      </g>
     </g>
    </g>
    <g id="text_23">
     <!-- Spikegroups Frequency (daily %) -->
     <g transform="translate(81.665625 418.274688) rotate(-90) scale(0.2 -0.2)">
      <defs>
       <path id="DejaVuSans-53" d="M 3425 4513 
L 3425 3897 
Q 3066 4069 2747 4153 
Q 2428 4238 2131 4238 
Q 1616 4238 1336 4038 
Q 1056 3838 1056 3469 
Q 1056 3159 1242 3001 
Q 1428 2844 1947 2747 
L 2328 2669 
Q 3034 2534 3370 2195 
Q 3706 1856 3706 1288 
Q 3706 609 3251 259 
Q 2797 -91 1919 -91 
Q 1588 -91 1214 -16 
Q 841 59 441 206 
L 441 856 
Q 825 641 1194 531 
Q 1563 422 1919 422 
Q 2459 422 2753 634 
Q 3047 847 3047 1241 
Q 3047 1584 2836 1778 
Q 2625 1972 2144 2069 
L 1759 2144 
Q 1053 2284 737 2584 
Q 422 2884 422 3419 
Q 422 4038 858 4394 
Q 1294 4750 2059 4750 
Q 2388 4750 2728 4690 
Q 3069 4631 3425 4513 
z
" transform="scale(0.015625)"/>
       <path id="DejaVuSans-70" d="M 1159 525 
L 1159 -1331 
L 581 -1331 
L 581 3500 
L 1159 3500 
L 1159 2969 
Q 1341 3281 1617 3432 
Q 1894 3584 2278 3584 
Q 2916 3584 3314 3078 
Q 3713 2572 3713 1747 
Q 3713 922 3314 415 
Q 2916 -91 2278 -91 
Q 1894 -91 1617 61 
Q 1341 213 1159 525 
z
M 3116 1747 
Q 3116 2381 2855 2742 
Q 2594 3103 2138 3103 
Q 1681 3103 1420 2742 
Q 1159 2381 1159 1747 
Q 1159 1113 1420 752 
Q 1681 391 2138 391 
Q 2594 391 2855 752 
Q 3116 1113 3116 1747 
z
" transform="scale(0.015625)"/>
       <path id="DejaVuSans-69" d="M 603 3500 
L 1178 3500 
L 1178 0 
L 603 0 
L 603 3500 
z
M 603 4863 
L 1178 4863 
L 1178 4134 
L 603 4134 
L 603 4863 
z
" transform="scale(0.015625)"/>
       <path id="DejaVuSans-6b" d="M 581 4863 
L 1159 4863 
L 1159 1991 
L 2875 3500 
L 3609 3500 
L 1753 1863 
L 3688 0 
L 2938 0 
L 1159 1709 
L 1159 0 
L 581 0 
L 581 4863 
z
" transform="scale(0.015625)"/>
       <path id="DejaVuSans-65" d="M 3597 1894 
L 3597 1613 
L 953 1613 
Q 991 1019 1311 708 
Q 1631 397 2203 397 
Q 2534 397 2845 478 
Q 3156 559 3463 722 
L 3463 178 
Q 3153 47 2828 -22 
Q 2503 -91 2169 -91 
Q 1331 -91 842 396 
Q 353 884 353 1716 
Q 353 2575 817 3079 
Q 1281 3584 2069 3584 
Q 2775 3584 3186 3129 
Q 3597 2675 3597 1894 
z
M 3022 2063 
Q 3016 2534 2758 2815 
Q 2500 3097 2075 3097 
Q 1594 3097 1305 2825 
Q 1016 2553 972 2059 
L 3022 2063 
z
" transform="scale(0.015625)"/>
       <path id="DejaVuSans-67" d="M 2906 1791 
Q 2906 2416 2648 2759 
Q 2391 3103 1925 3103 
Q 1463 3103 1205 2759 
Q 947 2416 947 1791 
Q 947 1169 1205 825 
Q 1463 481 1925 481 
Q 2391 481 2648 825 
Q 2906 1169 2906 1791 
z
M 3481 434 
Q 3481 -459 3084 -895 
Q 2688 -1331 1869 -1331 
Q 1566 -1331 1297 -1286 
Q 1028 -1241 775 -1147 
L 775 -588 
Q 1028 -725 1275 -790 
Q 1522 -856 1778 -856 
Q 2344 -856 2625 -561 
Q 2906 -266 2906 331 
L 2906 616 
Q 2728 306 2450 153 
Q 2172 0 1784 0 
Q 1141 0 747 490 
Q 353 981 353 1791 
Q 353 2603 747 3093 
Q 1141 3584 1784 3584 
Q 2172 3584 2450 3431 
Q 2728 3278 2906 2969 
L 2906 3500 
L 3481 3500 
L 3481 434 
z
" transform="scale(0.015625)"/>
       <path id="DejaVuSans-72" d="M 2631 2963 
Q 2534 3019 2420 3045 
Q 2306 3072 2169 3072 
Q 1681 3072 1420 2755 
Q 1159 2438 1159 1844 
L 1159 0 
L 581 0 
L 581 3500 
L 1159 3500 
L 1159 2956 
Q 1341 3275 1631 3429 
Q 1922 3584 2338 3584 
Q 2397 3584 2469 3576 
Q 2541 3569 2628 3553 
L 2631 2963 
z
" transform="scale(0.015625)"/>
       <path id="DejaVuSans-6f" d="M 1959 3097 
Q 1497 3097 1228 2736 
Q 959 2375 959 1747 
Q 959 1119 1226 758 
Q 1494 397 1959 397 
Q 2419 397 2687 759 
Q 2956 1122 2956 1747 
Q 2956 2369 2687 2733 
Q 2419 3097 1959 3097 
z
M 1959 3584 
Q 2709 3584 3137 3096 
Q 3566 2609 3566 1747 
Q 3566 888 3137 398 
Q 2709 -91 1959 -91 
Q 1206 -91 779 398 
Q 353 888 353 1747 
Q 353 2609 779 3096 
Q 1206 3584 1959 3584 
z
" transform="scale(0.015625)"/>
       <path id="DejaVuSans-75" d="M 544 1381 
L 544 3500 
L 1119 3500 
L 1119 1403 
Q 1119 906 1312 657 
Q 1506 409 1894 409 
Q 2359 409 2629 706 
Q 2900 1003 2900 1516 
L 2900 3500 
L 3475 3500 
L 3475 0 
L 2900 0 
L 2900 538 
Q 2691 219 2414 64 
Q 2138 -91 1772 -91 
Q 1169 -91 856 284 
Q 544 659 544 1381 
z
M 1991 3584 
L 1991 3584 
z
" transform="scale(0.015625)"/>
       <path id="DejaVuSans-73" d="M 2834 3397 
L 2834 2853 
Q 2591 2978 2328 3040 
Q 2066 3103 1784 3103 
Q 1356 3103 1142 2972 
Q 928 2841 928 2578 
Q 928 2378 1081 2264 
Q 1234 2150 1697 2047 
L 1894 2003 
Q 2506 1872 2764 1633 
Q 3022 1394 3022 966 
Q 3022 478 2636 193 
Q 2250 -91 1575 -91 
Q 1294 -91 989 -36 
Q 684 19 347 128 
L 347 722 
Q 666 556 975 473 
Q 1284 391 1588 391 
Q 1994 391 2212 530 
Q 2431 669 2431 922 
Q 2431 1156 2273 1281 
Q 2116 1406 1581 1522 
L 1381 1569 
Q 847 1681 609 1914 
Q 372 2147 372 2553 
Q 372 3047 722 3315 
Q 1072 3584 1716 3584 
Q 2034 3584 2315 3537 
Q 2597 3491 2834 3397 
z
" transform="scale(0.015625)"/>
       <path id="DejaVuSans-20" transform="scale(0.015625)"/>
       <path id="DejaVuSans-46" d="M 628 4666 
L 3309 4666 
L 3309 4134 
L 1259 4134 
L 1259 2759 
L 3109 2759 
L 3109 2228 
L 1259 2228 
L 1259 0 
L 628 0 
L 628 4666 
z
" transform="scale(0.015625)"/>
       <path id="DejaVuSans-71" d="M 947 1747 
Q 947 1113 1208 752 
Q 1469 391 1925 391 
Q 2381 391 2643 752 
Q 2906 1113 2906 1747 
Q 2906 2381 2643 2742 
Q 2381 3103 1925 3103 
Q 1469 3103 1208 2742 
Q 947 2381 947 1747 
z
M 2906 525 
Q 2725 213 2448 61 
Q 2172 -91 1784 -91 
Q 1150 -91 751 415 
Q 353 922 353 1747 
Q 353 2572 751 3078 
Q 1150 3584 1784 3584 
Q 2172 3584 2448 3432 
Q 2725 3281 2906 2969 
L 2906 3500 
L 3481 3500 
L 3481 -1331 
L 2906 -1331 
L 2906 525 
z
" transform="scale(0.015625)"/>
       <path id="DejaVuSans-6e" d="M 3513 2113 
L 3513 0 
L 2938 0 
L 2938 2094 
Q 2938 2591 2744 2837 
Q 2550 3084 2163 3084 
Q 1697 3084 1428 2787 
Q 1159 2491 1159 1978 
L 1159 0 
L 581 0 
L 581 3500 
L 1159 3500 
L 1159 2956 
Q 1366 3272 1645 3428 
Q 1925 3584 2291 3584 
Q 2894 3584 3203 3211 
Q 3513 2838 3513 2113 
z
" transform="scale(0.015625)"/>
       <path id="DejaVuSans-63" d="M 3122 3366 
L 3122 2828 
Q 2878 2963 2633 3030 
Q 2388 3097 2138 3097 
Q 1578 3097 1268 2742 
Q 959 2388 959 1747 
Q 959 1106 1268 751 
Q 1578 397 2138 397 
Q 2388 397 2633 464 
Q 2878 531 3122 666 
L 3122 134 
Q 2881 22 2623 -34 
Q 2366 -91 2075 -91 
Q 1284 -91 818 406 
Q 353 903 353 1747 
Q 353 2603 823 3093 
Q 1294 3584 2113 3584 
Q 2378 3584 2631 3529 
Q 2884 3475 3122 3366 
z
" transform="scale(0.015625)"/>
       <path id="DejaVuSans-79" d="M 2059 -325 
Q 1816 -950 1584 -1140 
Q 1353 -1331 966 -1331 
L 506 -1331 
L 506 -850 
L 844 -850 
Q 1081 -850 1212 -737 
Q 1344 -625 1503 -206 
L 1606 56 
L 191 3500 
L 800 3500 
L 1894 763 
L 2988 3500 
L 3597 3500 
L 2059 -325 
z
" transform="scale(0.015625)"/>
       <path id="DejaVuSans-28" d="M 1984 4856 
Q 1566 4138 1362 3434 
Q 1159 2731 1159 2009 
Q 1159 1288 1364 580 
Q 1569 -128 1984 -844 
L 1484 -844 
Q 1016 -109 783 600 
Q 550 1309 550 2009 
Q 550 2706 781 3412 
Q 1013 4119 1484 4856 
L 1984 4856 
z
" transform="scale(0.015625)"/>
       <path id="DejaVuSans-64" d="M 2906 2969 
L 2906 4863 
L 3481 4863 
L 3481 0 
L 2906 0 
L 2906 525 
Q 2725 213 2448 61 
Q 2172 -91 1784 -91 
Q 1150 -91 751 415 
Q 353 922 353 1747 
Q 353 2572 751 3078 
Q 1150 3584 1784 3584 
Q 2172 3584 2448 3432 
Q 2725 3281 2906 2969 
z
M 947 1747 
Q 947 1113 1208 752 
Q 1469 391 1925 391 
Q 2381 391 2643 752 
Q 2906 1113 2906 1747 
Q 2906 2381 2643 2742 
Q 2381 3103 1925 3103 
Q 1469 3103 1208 2742 
Q 947 2381 947 1747 
z
" transform="scale(0.015625)"/>
       <path id="DejaVuSans-61" d="M 2194 1759 
Q 1497 1759 1228 1600 
Q 959 1441 959 1056 
Q 959 750 1161 570 
Q 1363 391 1709 391 
Q 2188 391 2477 730 
Q 2766 1069 2766 1631 
L 2766 1759 
L 2194 1759 
z
M 3341 1997 
L 3341 0 
L 2766 0 
L 2766 531 
Q 2569 213 2275 61 
Q 1981 -91 1556 -91 
Q 1019 -91 701 211 
Q 384 513 384 1019 
Q 384 1609 779 1909 
Q 1175 2209 1959 2209 
L 2766 2209 
L 2766 2266 
Q 2766 2663 2505 2880 
Q 2244 3097 1772 3097 
Q 1472 3097 1187 3025 
Q 903 2953 641 2809 
L 641 3341 
Q 956 3463 1253 3523 
Q 1550 3584 1831 3584 
Q 2591 3584 2966 3190 
Q 3341 2797 3341 1997 
z
" transform="scale(0.015625)"/>
       <path id="DejaVuSans-6c" d="M 603 4863 
L 1178 4863 
L 1178 0 
L 603 0 
L 603 4863 
z
" transform="scale(0.015625)"/>
       <path id="DejaVuSans-25" d="M 4653 2053 
Q 4381 2053 4226 1822 
Q 4072 1591 4072 1178 
Q 4072 772 4226 539 
Q 4381 306 4653 306 
Q 4919 306 5073 539 
Q 5228 772 5228 1178 
Q 5228 1588 5073 1820 
Q 4919 2053 4653 2053 
z
M 4653 2450 
Q 5147 2450 5437 2106 
Q 5728 1763 5728 1178 
Q 5728 594 5436 251 
Q 5144 -91 4653 -91 
Q 4153 -91 3862 251 
Q 3572 594 3572 1178 
Q 3572 1766 3864 2108 
Q 4156 2450 4653 2450 
z
M 1428 4353 
Q 1159 4353 1004 4120 
Q 850 3888 850 3481 
Q 850 3069 1003 2837 
Q 1156 2606 1428 2606 
Q 1700 2606 1854 2837 
Q 2009 3069 2009 3481 
Q 2009 3884 1853 4118 
Q 1697 4353 1428 4353 
z
M 4250 4750 
L 4750 4750 
L 1831 -91 
L 1331 -91 
L 4250 4750 
z
M 1428 4750 
Q 1922 4750 2215 4408 
Q 2509 4066 2509 3481 
Q 2509 2891 2217 2550 
Q 1925 2209 1428 2209 
Q 931 2209 642 2551 
Q 353 2894 353 3481 
Q 353 4063 643 4406 
Q 934 4750 1428 4750 
z
" transform="scale(0.015625)"/>
       <path id="DejaVuSans-29" d="M 513 4856 
L 1013 4856 
Q 1481 4119 1714 3412 
Q 1947 2706 1947 2009 
Q 1947 1309 1714 600 
Q 1481 -109 1013 -844 
L 513 -844 
Q 928 -128 1133 580 
Q 1338 1288 1338 2009 
Q 1338 2731 1133 3434 
Q 928 4138 513 4856 
z
" transform="scale(0.015625)"/>
      </defs>
      <use xlink:href="#DejaVuSans-53"/>
      <use xlink:href="#DejaVuSans-70" x="63.476562"/>
      <use xlink:href="#DejaVuSans-69" x="126.953125"/>
      <use xlink:href="#DejaVuSans-6b" x="154.736328"/>
      <use xlink:href="#DejaVuSans-65" x="209.021484"/>
      <use xlink:href="#DejaVuSans-67" x="270.544922"/>
      <use xlink:href="#DejaVuSans-72" x="334.021484"/>
      <use xlink:href="#DejaVuSans-6f" x="372.884766"/>
      <use xlink:href="#DejaVuSans-75" x="434.066406"/>
      <use xlink:href="#DejaVuSans-70" x="497.445312"/>
      <use xlink:href="#DejaVuSans-73" x="560.921875"/>
      <use xlink:href="#DejaVuSans-20" x="613.021484"/>
      <use xlink:href="#DejaVuSans-46" x="644.808594"/>
      <use xlink:href="#DejaVuSans-72" x="695.078125"/>
      <use xlink:href="#DejaVuSans-65" x="733.941406"/>
      <use xlink:href="#DejaVuSans-71" x="795.464844"/>
      <use xlink:href="#DejaVuSans-75" x="858.941406"/>
      <use xlink:href="#DejaVuSans-65" x="922.320312"/>
      <use xlink:href="#DejaVuSans-6e" x="983.84375"/>
      <use xlink:href="#DejaVuSans-63" x="1047.222656"/>
      <use xlink:href="#DejaVuSans-79" x="1102.203125"/>
      <use xlink:href="#DejaVuSans-20" x="1161.382812"/>
      <use xlink:href="#DejaVuSans-28" x="1193.169922"/>
      <use xlink:href="#DejaVuSans-64" x="1232.183594"/>
      <use xlink:href="#DejaVuSans-61" x="1295.660156"/>
      <use xlink:href="#DejaVuSans-69" x="1356.939453"/>
      <use xlink:href="#DejaVuSans-6c" x="1384.722656"/>
      <use xlink:href="#DejaVuSans-79" x="1412.505859"/>
      <use xlink:href="#DejaVuSans-20" x="1471.685547"/>
      <use xlink:href="#DejaVuSans-25" x="1503.472656"/>
      <use xlink:href="#DejaVuSans-29" x="1598.492188"/>
     </g>
    </g>
   </g>
   <g id="line2d_23">
    <path d="M -1 448.56 
L 567.652174 448.56 
L 571.695652 448.371908 
L 591.913043 448.32243 
L 600 448.018184 
L 628.304348 446.627138 
L 632.347826 446.681498 
L 644.478261 446.472313 
L 652.565217 446.521791 
L 660.652174 446.826037 
L 693 448.350815 
L 705.130435 448.56 
L 749.608696 448.474261 
L 761.73913 448.123146 
L 773.869565 447.49111 
L 786 446.561197 
L 798.130435 445.314872 
L 810.26087 443.81755 
L 814.304348 442.945724 
L 818.347826 441.707897 
L 822.391304 440.100756 
L 826.434783 438.120944 
L 830.478261 435.765065 
L 834.521739 433.029681 
L 838.565217 429.911309 
L 842.608696 426.406426 
L 846.652174 422.511464 
L 850.695652 418.222812 
L 854.73913 413.536814 
L 858.782609 408.449772 
L 862.826087 402.957938 
L 866.869565 397.057523 
L 879 377.926113 
L 891.130435 358.57609 
L 895.173913 352.616344 
L 899.217391 346.965127 
L 903.26087 341.622996 
L 907.304348 336.590383 
L 911.347826 331.867586 
L 915.391304 327.454753 
L 919.434783 323.351871 
L 923.478261 319.558747 
L 927.521739 316.074994 
L 931.565217 312.90001 
L 935.608696 310.032959 
L 939.652174 307.472746 
L 943.695652 305.217993 
L 959.869565 297.509668 
L 967.956522 294.221567 
L 967.956522 294.221567 
" clip-path="url(#pdc713cd195)" style="fill: none; stroke: #008000; stroke-width: 4; stroke-linecap: square"/>
   </g>
   <g id="line2d_24">
    <path d="M -1 448.56 
L 397.826087 448.464179 
L 414 448.307181 
L 466.565217 448.31833 
L 474.652174 447.968094 
L 482.73913 447.968094 
L 486.782609 447.824421 
L 498.913043 447.732136 
L 507 447.228136 
L 511.043478 447.27343 
L 515.086957 446.819237 
L 519.130435 446.498384 
L 523.173913 446.325828 
L 527.217391 446.325828 
L 535.304348 446.584492 
L 539.347826 446.359982 
L 543.391304 445.843059 
L 547.434783 445.804214 
L 563.608696 445.222736 
L 567.652174 445.521403 
L 571.695652 445.521403 
L 575.73913 445.775271 
L 579.782609 445.583898 
L 587.869565 445.376954 
L 600 444.882092 
L 604.043478 444.965351 
L 612.130435 444.282744 
L 620.217391 443.548492 
L 624.26087 443.053705 
L 636.391304 440.844274 
L 640.434783 440.517046 
L 644.478261 439.859904 
L 656.608696 437.06702 
L 664.695652 435.120192 
L 672.782609 432.963426 
L 676.826087 432.124725 
L 680.869565 431.550722 
L 684.913043 431.225323 
L 688.956522 431.147077 
L 693 431.314799 
L 697.043478 431.72758 
L 705.130435 432.95117 
L 713.217391 433.862687 
L 721.304348 434.588091 
L 733.434783 435.393889 
L 737.478261 435.285842 
L 741.521739 434.839441 
L 745.565217 434.105094 
L 749.608696 433.084887 
L 753.652174 431.780763 
L 757.695652 430.19452 
L 765.782609 426.517161 
L 773.869565 423.047925 
L 786 418.163537 
L 798.130435 413.564391 
L 814.304348 407.650481 
L 818.347826 406.489681 
L 822.391304 405.527384 
L 826.434783 404.766431 
L 830.478261 404.209733 
L 834.521739 403.860269 
L 838.565217 403.721092 
L 842.608696 403.79533 
L 846.652174 404.086192 
L 850.695652 404.596966 
L 854.73913 405.331025 
L 858.782609 406.291829 
L 862.826087 407.482931 
L 866.869565 408.907974 
L 883.043478 415.661038 
L 887.086957 417.39274 
L 891.130435 418.897918 
L 895.173913 420.171609 
L 899.217391 421.208641 
L 903.26087 422.003617 
L 907.304348 422.550902 
L 911.347826 422.844608 
L 915.391304 422.878576 
L 919.434783 422.646357 
L 923.478261 422.141191 
L 927.521739 421.355987 
L 931.565217 420.283295 
L 935.608696 418.915282 
L 939.652174 417.243704 
L 943.695652 415.259867 
L 959.869565 406.151772 
L 963.913043 404.141236 
L 967.956522 402.266578 
L 967.956522 402.266578 
" clip-path="url(#pdc713cd195)" style="fill: none; stroke: #0000ff; stroke-width: 4; stroke-linecap: square"/>
   </g>
   <g id="line2d_25">
    <path d="M -1 448.274797 
L 9.652174 448.228325 
L 13.695652 448.109717 
L 17.73913 448.145846 
L 21.782609 448.068763 
L 29.869565 448.129057 
L 46.043478 448.062998 
L 54.130435 447.968718 
L 78.391304 448.066646 
L 82.434783 448.203535 
L 102.652174 448.191871 
L 118.826087 448.406364 
L 143.086957 448.340756 
L 151.173913 448.210887 
L 167.347826 448.108753 
L 171.391304 448.023787 
L 175.434783 447.780429 
L 183.521739 447.523117 
L 191.608696 446.856057 
L 195.652174 446.220186 
L 211.826087 444.987903 
L 215.869565 444.629068 
L 219.913043 444.085539 
L 223.956522 443.146402 
L 232.043478 442.710638 
L 236.086957 442.350568 
L 240.130435 442.125644 
L 244.173913 441.396342 
L 252.26087 440.405187 
L 256.304348 440.158633 
L 260.347826 439.746385 
L 264.391304 439.575087 
L 268.434783 439.183426 
L 272.478261 438.376647 
L 276.521739 437.16938 
L 280.565217 436.685019 
L 284.608696 436.498014 
L 288.652174 436.02925 
L 292.695652 435.162369 
L 296.73913 434.809347 
L 300.782609 433.526576 
L 308.869565 432.643698 
L 312.913043 432.186383 
L 316.956522 431.911474 
L 321 431.229655 
L 325.043478 430.855353 
L 329.086957 429.739829 
L 333.130435 429.150115 
L 337.173913 429.729301 
L 345.26087 428.769604 
L 349.304348 427.529051 
L 353.347826 426.559654 
L 357.391304 425.462772 
L 361.434783 424.759998 
L 365.478261 423.340347 
L 369.521739 422.611629 
L 377.608696 419.864069 
L 381.652174 419.511426 
L 385.695652 417.77813 
L 389.73913 417.372271 
L 393.782609 416.747337 
L 397.826087 415.06911 
L 401.869565 414.149143 
L 405.913043 412.648167 
L 409.956522 412.440602 
L 414 409.681291 
L 418.043478 409.698261 
L 422.086957 408.766411 
L 426.130435 408.955724 
L 430.173913 407.902423 
L 434.217391 407.954968 
L 438.26087 407.145239 
L 442.304348 405.726661 
L 446.347826 405.224643 
L 450.391304 404.576177 
L 454.434783 403.461225 
L 458.478261 403.893135 
L 462.521739 402.849337 
L 466.565217 402.067784 
L 470.608696 399.202176 
L 474.652174 401.410176 
L 478.695652 399.587263 
L 482.73913 399.74396 
L 490.826087 397.484855 
L 494.869565 396.299778 
L 498.913043 397.449645 
L 502.956522 397.931984 
L 507 398.091566 
L 511.043478 397.761837 
L 515.086957 398.486276 
L 519.130435 397.161862 
L 523.173913 397.379241 
L 527.217391 398.542003 
L 531.26087 399.379012 
L 535.304348 397.270904 
L 539.347826 396.303211 
L 543.391304 394.589293 
L 547.434783 394.348241 
L 551.478261 395.629167 
L 555.521739 395.867789 
L 559.565217 393.989922 
L 563.608696 392.425832 
L 567.652174 390.244613 
L 571.695652 386.559069 
L 575.73913 384.476426 
L 579.782609 383.145184 
L 583.826087 381.633592 
L 587.869565 379.709748 
L 591.913043 379.492668 
L 595.956522 380.1303 
L 604.043478 382.02891 
L 608.086957 381.903241 
L 612.130435 380.887326 
L 616.173913 380.446314 
L 620.217391 380.316639 
L 624.26087 380.413245 
L 628.304348 381.315242 
L 632.347826 383.828064 
L 640.434783 384.291951 
L 644.478261 384.247523 
L 648.521739 383.981144 
L 652.565217 383.593377 
L 656.608696 383.031854 
L 660.652174 382.220232 
L 664.695652 381.553608 
L 668.73913 381.036275 
L 676.826087 380.373255 
L 684.913043 380.00758 
L 693 380.056306 
L 697.043478 380.248546 
L 705.130435 380.924589 
L 709.173913 381.349591 
L 713.217391 381.619035 
L 717.26087 381.73233 
L 721.304348 381.688826 
L 725.347826 381.487808 
L 729.391304 381.128494 
L 737.478261 380.026182 
L 749.608696 378.19105 
L 757.695652 377.15611 
L 761.73913 376.697613 
L 765.782609 376.352166 
L 769.826087 376.119593 
L 773.869565 375.999764 
L 777.913043 375.992594 
L 781.956522 376.098047 
L 786 376.316132 
L 790.043478 376.64691 
L 794.086957 377.090486 
L 798.130435 377.64702 
L 810.26087 379.696752 
L 818.347826 381.267262 
L 826.434783 383.074641 
L 834.521739 385.120355 
L 842.608696 387.405717 
L 850.695652 389.931867 
L 858.782609 392.699743 
L 866.869565 395.710056 
L 883.043478 402.192997 
L 891.130435 405.419244 
L 899.217391 408.247479 
L 907.304348 410.67056 
L 915.391304 412.681224 
L 923.478261 414.272092 
L 931.565217 415.435687 
L 939.652174 416.164442 
L 943.695652 416.363373 
L 967.956522 416.855751 
L 967.956522 416.855751 
" clip-path="url(#pdc713cd195)" style="fill: none; stroke: #ffa500; stroke-width: 4; stroke-linecap: square"/>
   </g>
   <g id="line2d_26">
    <path d="M -1 79.245203 
L 9.652174 79.291675 
L 13.695652 79.410283 
L 17.73913 79.374154 
L 21.782609 79.451237 
L 29.869565 79.390943 
L 46.043478 79.457002 
L 54.130435 79.551282 
L 78.391304 79.453354 
L 82.434783 79.316465 
L 102.652174 79.328129 
L 118.826087 79.113636 
L 143.086957 79.179244 
L 151.173913 79.309113 
L 167.347826 79.411247 
L 171.391304 79.496213 
L 175.434783 79.739571 
L 183.521739 79.996883 
L 191.608696 80.663943 
L 195.652174 81.299814 
L 211.826087 82.532097 
L 215.869565 82.890932 
L 219.913043 83.434461 
L 223.956522 84.373598 
L 232.043478 84.809362 
L 236.086957 85.169432 
L 240.130435 85.394356 
L 244.173913 86.123658 
L 252.26087 87.114813 
L 256.304348 87.361367 
L 260.347826 87.81368 
L 264.391304 87.984978 
L 268.434783 88.376639 
L 272.478261 89.183418 
L 276.521739 90.390685 
L 280.565217 90.875046 
L 284.608696 91.062051 
L 288.652174 91.530815 
L 292.695652 92.397696 
L 296.73913 92.750718 
L 300.782609 94.033489 
L 308.869565 94.916367 
L 312.913043 95.373682 
L 316.956522 95.648591 
L 321 96.290345 
L 325.043478 96.699847 
L 329.086957 97.815371 
L 333.130435 98.405085 
L 337.173913 97.825899 
L 345.26087 98.785596 
L 349.304348 100.026149 
L 353.347826 100.995546 
L 357.391304 102.092428 
L 361.434783 102.795202 
L 365.478261 104.247575 
L 369.521739 104.976293 
L 377.608696 107.723854 
L 381.652174 108.076496 
L 385.695652 109.774593 
L 389.73913 110.180451 
L 393.782609 110.868484 
L 397.826087 112.546711 
L 401.869565 113.52036 
L 405.913043 115.073319 
L 409.956522 115.332218 
L 414 118.091529 
L 418.043478 118.074559 
L 422.086957 119.006408 
L 426.130435 118.784373 
L 430.173913 119.837674 
L 434.217391 119.785129 
L 438.26087 120.594858 
L 442.304348 122.013436 
L 446.347826 122.515454 
L 450.391304 123.209214 
L 454.434783 124.261067 
L 458.478261 123.903598 
L 462.521739 124.964316 
L 466.565217 125.693886 
L 470.608696 128.749729 
L 474.652174 126.701729 
L 478.695652 128.524643 
L 482.73913 128.367946 
L 494.869565 132.123208 
L 498.913043 130.973341 
L 502.956522 130.696335 
L 507 130.83542 
L 511.043478 131.119854 
L 515.086957 130.849609 
L 519.130435 132.494876 
L 523.173913 132.450054 
L 527.217391 131.287291 
L 531.26087 130.268374 
L 535.304348 132.299726 
L 539.347826 133.491929 
L 543.391304 135.72277 
L 547.434783 136.002667 
L 551.478261 134.804568 
L 555.521739 134.708329 
L 559.565217 136.866195 
L 563.608696 138.431432 
L 567.652174 140.313985 
L 571.695652 144.18762 
L 575.73913 146.016395 
L 583.826087 149.124357 
L 587.869565 151.18139 
L 591.913043 151.586198 
L 595.956522 151.256434 
L 600 150.632454 
L 604.043478 149.824675 
L 608.086957 150.454514 
L 612.130435 152.057892 
L 616.173913 153.07141 
L 620.217391 153.793298 
L 624.26087 154.382733 
L 628.304348 154.394537 
L 632.347826 152.629743 
L 636.391304 153.139054 
L 640.434783 153.322614 
L 644.478261 154.060261 
L 652.565217 156.505177 
L 656.608696 157.907589 
L 664.695652 160.943043 
L 672.782609 163.571619 
L 676.826087 164.497423 
L 680.869565 165.085691 
L 684.913043 165.353192 
L 688.956522 165.2981 
L 693 164.91808 
L 697.043478 164.210249 
L 705.130435 162.204241 
L 709.173913 161.298315 
L 713.217391 160.598278 
L 717.26087 160.100918 
L 721.304348 159.803083 
L 725.347826 159.701679 
L 729.391304 159.793669 
L 733.434783 160.07607 
L 737.478261 160.767975 
L 741.521739 161.862739 
L 745.565217 163.237457 
L 749.608696 164.889803 
L 753.652174 166.817588 
L 757.695652 169.018767 
L 761.73913 171.49143 
L 765.782609 173.826186 
L 769.826087 176.027845 
L 777.913043 180.051026 
L 786 183.599134 
L 794.086957 186.710197 
L 802.173913 189.422241 
L 810.26087 192.118688 
L 818.347826 195.17516 
L 826.434783 198.677983 
L 834.521739 202.629696 
L 842.608696 207.032527 
L 850.695652 211.888355 
L 858.782609 217.198656 
L 866.869565 222.964447 
L 879 232.219413 
L 891.130435 241.746748 
L 903.26087 251.503273 
L 911.347826 258.199904 
L 919.434783 265.112175 
L 927.521739 272.30125 
L 935.608696 279.836863 
L 943.695652 287.798767 
L 955.826087 300.396581 
L 959.869565 304.270037 
L 963.913043 307.905933 
L 967.956522 311.296104 
L 967.956522 311.296104 
" clip-path="url(#pdc713cd195)" style="fill: none; stroke: #808080; stroke-width: 4; stroke-linecap: square"/>
   </g>
   <g id="patch_3">
    <path d="M 135 448.56 
L 135 60.48 
" style="fill: none; stroke: #000000; stroke-width: 0.8; stroke-linejoin: miter; stroke-linecap: square"/>
   </g>
   <g id="patch_4">
    <path d="M 972 448.56 
L 972 60.48 
" style="fill: none; stroke: #000000; stroke-width: 0.8; stroke-linejoin: miter; stroke-linecap: square"/>
   </g>
   <g id="patch_5">
    <path d="M 135 448.56 
L 972 448.56 
" style="fill: none; stroke: #000000; stroke-width: 0.8; stroke-linejoin: miter; stroke-linecap: square"/>
   </g>
   <g id="patch_6">
    <path d="M 135 60.48 
L 972 60.48 
" style="fill: none; stroke: #000000; stroke-width: 0.8; stroke-linejoin: miter; stroke-linecap: square"/>
   </g>
   <g id="legend_1">
    <g id="patch_7">
     <path d="M 1143.4 448.56 
L 1540.334375 448.56 
Q 1544.334375 448.56 1544.334375 444.56 
L 1544.334375 329.135 
Q 1544.334375 325.135 1540.334375 325.135 
L 1143.4 325.135 
Q 1139.4 325.135 1139.4 329.135 
L 1139.4 444.56 
Q 1139.4 448.56 1143.4 448.56 
z
" style="fill: #ffffff; opacity: 0.8; stroke: #cccccc; stroke-linejoin: miter"/>
    </g>
    <g id="line2d_27">
     <path style="fill: none; stroke: #008000; stroke-width: 4; stroke-linecap: square"/>
    </g>
    <g id="text_24">
     <!-- EG.5.1* -->
     <g transform="translate(1203.4 348.331875) scale(0.2 -0.2)">
      <defs>
       <path id="DejaVuSans-45" d="M 628 4666 
L 3578 4666 
L 3578 4134 
L 1259 4134 
L 1259 2753 
L 3481 2753 
L 3481 2222 
L 1259 2222 
L 1259 531 
L 3634 531 
L 3634 0 
L 628 0 
L 628 4666 
z
" transform="scale(0.015625)"/>
       <path id="DejaVuSans-47" d="M 3809 666 
L 3809 1919 
L 2778 1919 
L 2778 2438 
L 4434 2438 
L 4434 434 
Q 4069 175 3628 42 
Q 3188 -91 2688 -91 
Q 1594 -91 976 548 
Q 359 1188 359 2328 
Q 359 3472 976 4111 
Q 1594 4750 2688 4750 
Q 3144 4750 3555 4637 
Q 3966 4525 4313 4306 
L 4313 3634 
Q 3963 3931 3569 4081 
Q 3175 4231 2741 4231 
Q 1884 4231 1454 3753 
Q 1025 3275 1025 2328 
Q 1025 1384 1454 906 
Q 1884 428 2741 428 
Q 3075 428 3337 486 
Q 3600 544 3809 666 
z
" transform="scale(0.015625)"/>
       <path id="DejaVuSans-2e" d="M 684 794 
L 1344 794 
L 1344 0 
L 684 0 
L 684 794 
z
" transform="scale(0.015625)"/>
       <path id="DejaVuSans-2a" d="M 3009 3897 
L 1888 3291 
L 3009 2681 
L 2828 2375 
L 1778 3009 
L 1778 1831 
L 1422 1831 
L 1422 3009 
L 372 2375 
L 191 2681 
L 1313 3291 
L 191 3897 
L 372 4206 
L 1422 3572 
L 1422 4750 
L 1778 4750 
L 1778 3572 
L 2828 4206 
L 3009 3897 
z
" transform="scale(0.015625)"/>
      </defs>
      <use xlink:href="#DejaVuSans-45"/>
      <use xlink:href="#DejaVuSans-47" x="63.183594"/>
      <use xlink:href="#DejaVuSans-2e" x="140.673828"/>
      <use xlink:href="#DejaVuSans-35" x="172.460938"/>
      <use xlink:href="#DejaVuSans-2e" x="236.083984"/>
      <use xlink:href="#DejaVuSans-31" x="267.871094"/>
      <use xlink:href="#DejaVuSans-2a" x="331.494141"/>
     </g>
    </g>
    <g id="line2d_28">
     <path style="fill: none; stroke: #0000ff; stroke-width: 4; stroke-linecap: square"/>
    </g>
    <g id="text_25">
     <!-- XBB.1.16* + XBB.1.16.1* -->
     <g transform="translate(1203.4 377.688125) scale(0.2 -0.2)">
      <defs>
       <path id="DejaVuSans-58" d="M 403 4666 
L 1081 4666 
L 2241 2931 
L 3406 4666 
L 4084 4666 
L 2584 2425 
L 4184 0 
L 3506 0 
L 2194 1984 
L 872 0 
L 191 0 
L 1856 2491 
L 403 4666 
z
" transform="scale(0.015625)"/>
       <path id="DejaVuSans-42" d="M 1259 2228 
L 1259 519 
L 2272 519 
Q 2781 519 3026 730 
Q 3272 941 3272 1375 
Q 3272 1813 3026 2020 
Q 2781 2228 2272 2228 
L 1259 2228 
z
M 1259 4147 
L 1259 2741 
L 2194 2741 
Q 2656 2741 2882 2914 
Q 3109 3088 3109 3444 
Q 3109 3797 2882 3972 
Q 2656 4147 2194 4147 
L 1259 4147 
z
M 628 4666 
L 2241 4666 
Q 2963 4666 3353 4366 
Q 3744 4066 3744 3513 
Q 3744 3084 3544 2831 
Q 3344 2578 2956 2516 
Q 3422 2416 3680 2098 
Q 3938 1781 3938 1306 
Q 3938 681 3513 340 
Q 3088 0 2303 0 
L 628 0 
L 628 4666 
z
" transform="scale(0.015625)"/>
       <path id="DejaVuSans-2b" d="M 2944 4013 
L 2944 2272 
L 4684 2272 
L 4684 1741 
L 2944 1741 
L 2944 0 
L 2419 0 
L 2419 1741 
L 678 1741 
L 678 2272 
L 2419 2272 
L 2419 4013 
L 2944 4013 
z
" transform="scale(0.015625)"/>
      </defs>
      <use xlink:href="#DejaVuSans-58"/>
      <use xlink:href="#DejaVuSans-42" x="68.505859"/>
      <use xlink:href="#DejaVuSans-42" x="137.109375"/>
      <use xlink:href="#DejaVuSans-2e" x="205.712891"/>
      <use xlink:href="#DejaVuSans-31" x="237.5"/>
      <use xlink:href="#DejaVuSans-2e" x="301.123047"/>
      <use xlink:href="#DejaVuSans-31" x="332.910156"/>
      <use xlink:href="#DejaVuSans-36" x="396.533203"/>
      <use xlink:href="#DejaVuSans-2a" x="460.15625"/>
      <use xlink:href="#DejaVuSans-20" x="510.15625"/>
      <use xlink:href="#DejaVuSans-2b" x="541.943359"/>
      <use xlink:href="#DejaVuSans-20" x="625.732422"/>
      <use xlink:href="#DejaVuSans-58" x="657.519531"/>
      <use xlink:href="#DejaVuSans-42" x="726.025391"/>
      <use xlink:href="#DejaVuSans-42" x="794.628906"/>
      <use xlink:href="#DejaVuSans-2e" x="863.232422"/>
      <use xlink:href="#DejaVuSans-31" x="895.019531"/>
      <use xlink:href="#DejaVuSans-2e" x="958.642578"/>
      <use xlink:href="#DejaVuSans-31" x="990.429688"/>
      <use xlink:href="#DejaVuSans-36" x="1054.052734"/>
      <use xlink:href="#DejaVuSans-2e" x="1117.675781"/>
      <use xlink:href="#DejaVuSans-31" x="1149.462891"/>
      <use xlink:href="#DejaVuSans-2a" x="1213.085938"/>
     </g>
    </g>
    <g id="line2d_29">
     <path style="fill: none; stroke: #ffa500; stroke-width: 4; stroke-linecap: square"/>
    </g>
    <g id="text_26">
     <!-- XBB.1.9* + EG.1.3* + XBB.1.9.2* -->
     <g transform="translate(1203.4 407.044375) scale(0.2 -0.2)">
      <use xlink:href="#DejaVuSans-58"/>
      <use xlink:href="#DejaVuSans-42" x="68.505859"/>
      <use xlink:href="#DejaVuSans-42" x="137.109375"/>
      <use xlink:href="#DejaVuSans-2e" x="205.712891"/>
      <use xlink:href="#DejaVuSans-31" x="237.5"/>
      <use xlink:href="#DejaVuSans-2e" x="301.123047"/>
      <use xlink:href="#DejaVuSans-39" x="332.910156"/>
      <use xlink:href="#DejaVuSans-2a" x="396.533203"/>
      <use xlink:href="#DejaVuSans-20" x="446.533203"/>
      <use xlink:href="#DejaVuSans-2b" x="478.320312"/>
      <use xlink:href="#DejaVuSans-20" x="562.109375"/>
      <use xlink:href="#DejaVuSans-45" x="593.896484"/>
      <use xlink:href="#DejaVuSans-47" x="657.080078"/>
      <use xlink:href="#DejaVuSans-2e" x="734.570312"/>
      <use xlink:href="#DejaVuSans-31" x="766.357422"/>
      <use xlink:href="#DejaVuSans-2e" x="829.980469"/>
      <use xlink:href="#DejaVuSans-33" x="861.767578"/>
      <use xlink:href="#DejaVuSans-2a" x="925.390625"/>
      <use xlink:href="#DejaVuSans-20" x="975.390625"/>
      <use xlink:href="#DejaVuSans-2b" x="1007.177734"/>
      <use xlink:href="#DejaVuSans-20" x="1090.966797"/>
      <use xlink:href="#DejaVuSans-58" x="1122.753906"/>
      <use xlink:href="#DejaVuSans-42" x="1191.259766"/>
      <use xlink:href="#DejaVuSans-42" x="1259.863281"/>
      <use xlink:href="#DejaVuSans-2e" x="1328.466797"/>
      <use xlink:href="#DejaVuSans-31" x="1360.253906"/>
      <use xlink:href="#DejaVuSans-2e" x="1423.876953"/>
      <use xlink:href="#DejaVuSans-39" x="1455.664062"/>
      <use xlink:href="#DejaVuSans-2e" x="1519.287109"/>
      <use xlink:href="#DejaVuSans-32" x="1551.074219"/>
      <use xlink:href="#DejaVuSans-2a" x="1614.697266"/>
     </g>
    </g>
    <g id="line2d_30">
     <path style="fill: none; stroke: #808080; stroke-width: 4; stroke-linecap: square"/>
    </g>
    <g id="text_27">
     <!-- Other -->
     <g transform="translate(1203.4 436.400625) scale(0.2 -0.2)">
      <defs>
       <path id="DejaVuSans-4f" d="M 2522 4238 
Q 1834 4238 1429 3725 
Q 1025 3213 1025 2328 
Q 1025 1447 1429 934 
Q 1834 422 2522 422 
Q 3209 422 3611 934 
Q 4013 1447 4013 2328 
Q 4013 3213 3611 3725 
Q 3209 4238 2522 4238 
z
M 2522 4750 
Q 3503 4750 4090 4092 
Q 4678 3434 4678 2328 
Q 4678 1225 4090 567 
Q 3503 -91 2522 -91 
Q 1538 -91 948 565 
Q 359 1222 359 2328 
Q 359 3434 948 4092 
Q 1538 4750 2522 4750 
z
" transform="scale(0.015625)"/>
       <path id="DejaVuSans-74" d="M 1172 4494 
L 1172 3500 
L 2356 3500 
L 2356 3053 
L 1172 3053 
L 1172 1153 
Q 1172 725 1289 603 
Q 1406 481 1766 481 
L 2356 481 
L 2356 0 
L 1766 0 
Q 1100 0 847 248 
Q 594 497 594 1153 
L 594 3053 
L 172 3053 
L 172 3500 
L 594 3500 
L 594 4494 
L 1172 4494 
z
" transform="scale(0.015625)"/>
       <path id="DejaVuSans-68" d="M 3513 2113 
L 3513 0 
L 2938 0 
L 2938 2094 
Q 2938 2591 2744 2837 
Q 2550 3084 2163 3084 
Q 1697 3084 1428 2787 
Q 1159 2491 1159 1978 
L 1159 0 
L 581 0 
L 581 4863 
L 1159 4863 
L 1159 2956 
Q 1366 3272 1645 3428 
Q 1925 3584 2291 3584 
Q 2894 3584 3203 3211 
Q 3513 2838 3513 2113 
z
" transform="scale(0.015625)"/>
      </defs>
      <use xlink:href="#DejaVuSans-4f"/>
      <use xlink:href="#DejaVuSans-74" x="78.710938"/>
      <use xlink:href="#DejaVuSans-68" x="117.919922"/>
      <use xlink:href="#DejaVuSans-65" x="181.298828"/>
      <use xlink:href="#DejaVuSans-72" x="242.822266"/>
     </g>
    </g>
   </g>
  </g>
 </g>
 <defs>
  <clipPath id="pdc713cd195">
   <rect x="135" y="60.48" width="837" height="388.08"/>
  </clipPath>
 </defs>
</svg>
