<?xml version="1.0" encoding="utf-8" standalone="no"?>
<!DOCTYPE svg PUBLIC "-//W3C//DTD SVG 1.1//EN"
  "http://www.w3.org/Graphics/SVG/1.1/DTD/svg11.dtd">
<svg xmlns:xlink="http://www.w3.org/1999/xlink" width="1272.252966pt" height="505.354841pt" viewBox="0 0 1272.252966 505.354841" xmlns="http://www.w3.org/2000/svg" version="1.1">
 <metadata>
  <rdf:RDF xmlns:dc="http://purl.org/dc/elements/1.1/" xmlns:cc="http://creativecommons.org/ns#" xmlns:rdf="http://www.w3.org/1999/02/22-rdf-syntax-ns#">
   <cc:Work>
    <dc:type rdf:resource="http://purl.org/dc/dcmitype/StillImage"/>
    <dc:date>2023-12-29T15:14:39.164839</dc:date>
    <dc:format>image/svg+xml</dc:format>
    <dc:creator>
     <cc:Agent>
      <dc:title>Matplotlib v3.7.2, https://matplotlib.org/</dc:title>
     </cc:Agent>
    </dc:creator>
   </cc:Work>
  </rdf:RDF>
 </metadata>
 <defs>
  <style type="text/css">*{stroke-linejoin: round; stroke-linecap: butt}</style>
 </defs>
 <g id="figure_1">
  <g id="patch_1">
   <path d="M 0 505.354841 
L 1272.252966 505.354841 
L 1272.252966 -0 
L 0 -0 
z
" style="fill: #ffffff"/>
  </g>
  <g id="axes_1">
   <g id="patch_2">
    <path d="M 103.074841 395.28 
L 940.074841 395.28 
L 940.074841 7.2 
L 103.074841 7.2 
z
" style="fill: #ffffff"/>
   </g>
   <g id="PolyCollection_1">
    <path d="M -4315.31939 311.02432 
L -4315.31939 311.042804 
L -4307.271313 310.955337 
L -4299.223236 310.869321 
L -4291.175159 310.786938 
L -4283.127082 310.712449 
L -4275.079005 310.634411 
L -4267.030929 310.544391 
L -4258.982852 310.457141 
L -4250.934775 310.385285 
L -4242.886698 310.312013 
L -4234.838621 310.238666 
L -4226.790544 310.156926 
L -4218.742467 310.074615 
L -4210.69439 309.976199 
L -4202.646313 309.890256 
L -4194.598236 309.789998 
L -4186.550159 309.683216 
L -4178.502082 309.575615 
L -4170.454005 309.464547 
L -4162.405929 309.352889 
L -4154.357852 309.230859 
L -4146.309775 309.109637 
L -4138.261698 308.986028 
L -4130.213621 308.850524 
L -4122.165544 308.718496 
L -4114.117467 308.582885 
L -4106.06939 308.445612 
L -4098.021313 308.292306 
L -4089.973236 308.13101 
L -4081.925159 307.994126 
L -4073.877082 307.830437 
L -4065.829005 307.662082 
L -4057.780929 307.489455 
L -4049.732852 307.309823 
L -4041.684775 307.11181 
L -4033.636698 306.92573 
L -4025.588621 306.720803 
L -4017.540544 306.500592 
L -4009.492467 306.278267 
L -4001.44439 306.039301 
L -3993.396313 305.778386 
L -3985.348236 305.50147 
L -3977.300159 305.202908 
L -3969.252082 304.891444 
L -3961.204005 304.552 
L -3953.155929 304.211072 
L -3945.107852 303.837727 
L -3937.059775 303.46986 
L -3929.011698 303.052986 
L -3920.963621 302.616499 
L -3912.915544 302.1854 
L -3904.867467 301.719576 
L -3896.81939 301.219032 
L -3888.771313 300.716106 
L -3880.723236 300.195568 
L -3872.675159 299.643922 
L -3864.627082 299.078571 
L -3856.579005 298.501352 
L -3848.530929 297.897972 
L -3840.482852 297.284129 
L -3832.434775 296.670103 
L -3824.386698 296.037575 
L -3816.338621 295.403745 
L -3808.290544 294.770391 
L -3800.242467 294.114052 
L -3792.19439 293.442425 
L -3784.146313 292.772965 
L -3776.098236 292.103528 
L -3768.050159 291.438001 
L -3760.002082 290.756186 
L -3751.954005 290.08528 
L -3743.905929 289.406975 
L -3735.857852 288.781976 
L -3727.809775 288.085429 
L -3719.761698 287.446173 
L -3711.713621 286.800817 
L -3703.665544 286.175301 
L -3695.617467 285.560192 
L -3687.56939 284.957268 
L -3679.521313 284.362335 
L -3671.473236 283.782863 
L -3663.425159 283.220939 
L -3655.377082 282.661346 
L -3647.329005 282.1382 
L -3639.280929 281.592351 
L -3631.232852 281.042093 
L -3623.184775 280.520038 
L -3615.136698 279.99713 
L -3607.088621 279.476296 
L -3599.040544 278.952854 
L -3590.992467 278.436103 
L -3582.94439 277.923547 
L -3574.896313 277.41441 
L -3566.848236 276.898149 
L -3558.800159 276.397392 
L -3550.752082 275.879649 
L -3542.704005 275.328223 
L -3534.655929 274.789798 
L -3526.607852 274.253289 
L -3518.559775 273.710666 
L -3510.511698 273.164881 
L -3502.463621 272.610023 
L -3494.415544 272.077604 
L -3486.367467 271.527341 
L -3478.31939 270.968004 
L -3470.271313 270.407851 
L -3462.223236 269.848223 
L -3454.175159 269.328383 
L -3446.127082 268.745565 
L -3438.079005 268.178369 
L -3430.030929 267.621772 
L -3421.982852 267.053452 
L -3413.934775 266.475166 
L -3405.886698 265.866936 
L -3397.838621 265.249415 
L -3389.790544 264.644902 
L -3381.742467 264.017302 
L -3373.69439 263.386799 
L -3365.646313 262.70725 
L -3357.598236 262.07406 
L -3349.550159 261.324595 
L -3341.502082 260.577853 
L -3333.454005 259.841979 
L -3325.405929 259.067718 
L -3317.357852 258.262302 
L -3309.309775 257.404438 
L -3301.261698 256.576436 
L -3293.213621 255.63016 
L -3285.165544 254.773002 
L -3277.117467 253.792918 
L -3269.06939 252.838251 
L -3261.021313 251.916388 
L -3252.973236 250.981702 
L -3244.925159 250.036598 
L -3236.877082 249.194849 
L -3228.829005 248.14456 
L -3220.780929 247.25616 
L -3212.732852 246.450116 
L -3204.684775 245.556543 
L -3196.636698 244.63086 
L -3188.588621 243.59945 
L -3180.540544 242.638837 
L -3172.492467 241.824614 
L -3164.44439 240.504211 
L -3156.396313 239.423538 
L -3148.348236 238.292421 
L -3140.300159 237.089865 
L -3132.252082 235.696955 
L -3124.204005 234.320457 
L -3116.155929 233.224059 
L -3108.107852 231.895016 
L -3100.059775 229.725006 
L -3092.011698 227.814315 
L -3083.963621 226.288235 
L -3075.915544 224.544865 
L -3067.867467 222.960354 
L -3059.81939 221.669894 
L -3051.771313 219.708295 
L -3043.723236 217.418598 
L -3035.675159 215.839566 
L -3027.627082 214.7844 
L -3019.579005 212.827952 
L -3011.530929 211.837864 
L -3003.482852 210.454304 
L -2995.434775 208.401826 
L -2987.386698 207.952679 
L -2979.338621 208.472302 
L -2971.290544 209.764286 
L -2963.242467 207.667775 
L -2955.19439 210.915318 
L -2947.146313 211.496963 
L -2939.098236 206.638338 
L -2931.050159 207.600315 
L -2923.002082 209.770258 
L -2914.954005 208.446752 
L -2906.905929 208.249356 
L -2898.857852 217.191097 
L -2890.809775 229.763023 
L -2882.761698 236.178001 
L -2874.713621 222.313343 
L -2866.665544 229.293005 
L -2858.617467 238.663136 
L -2850.56939 238.47806 
L -2842.521313 257.166585 
L -2834.473236 254.52181 
L -2826.425159 248.786833 
L -2818.377082 234.487373 
L -2810.329005 247.961372 
L -2802.280929 256.244484 
L -2794.232852 252.820238 
L -2786.184775 255.03372 
L -2778.136698 262.715249 
L -2770.088621 261.659162 
L -2762.040544 254.892906 
L -2753.992467 263.357593 
L -2745.94439 265.016411 
L -2737.896313 261.877842 
L -2729.848236 267.196104 
L -2721.800159 268.991541 
L -2713.752082 268.359023 
L -2705.704005 266.517365 
L -2697.655929 268.129818 
L -2689.607852 266.118073 
L -2681.559775 266.028447 
L -2673.511698 267.492076 
L -2665.463621 265.691222 
L -2657.415544 266.216528 
L -2649.367467 265.979107 
L -2641.31939 264.325181 
L -2633.271313 264.50372 
L -2625.223236 262.320202 
L -2617.175159 262.133661 
L -2609.127082 262.349357 
L -2601.079005 262.044995 
L -2593.030929 260.794118 
L -2584.982852 259.634962 
L -2576.934775 259.240134 
L -2568.886698 258.016246 
L -2560.838621 257.561432 
L -2552.790544 257.16649 
L -2544.742467 255.540522 
L -2536.69439 255.950477 
L -2528.646313 254.748276 
L -2520.598236 254.109632 
L -2512.550159 253.850064 
L -2504.502082 252.637647 
L -2496.454005 252.163798 
L -2488.405929 252.211928 
L -2480.357852 252.392497 
L -2472.309775 250.595748 
L -2464.261698 250.102378 
L -2456.213621 249.201183 
L -2448.165544 251.54343 
L -2440.117467 251.347238 
L -2432.06939 252.103029 
L -2424.021313 249.328556 
L -2415.973236 247.558415 
L -2407.925159 247.772637 
L -2399.877082 249.252354 
L -2391.829005 249.314852 
L -2383.780929 246.077338 
L -2375.732852 248.45753 
L -2367.684775 247.645922 
L -2359.636698 247.124362 
L -2351.588621 245.558287 
L -2343.540544 246.554574 
L -2335.492467 245.791649 
L -2327.44439 246.329082 
L -2319.396313 245.355596 
L -2311.348236 244.587898 
L -2303.300159 243.232604 
L -2295.252082 242.541078 
L -2287.204005 241.875356 
L -2279.155929 241.00819 
L -2271.107852 240.814702 
L -2263.059775 240.010277 
L -2255.011698 239.181879 
L -2246.963621 237.04203 
L -2238.915544 235.435749 
L -2230.867467 234.658253 
L -2222.81939 232.885546 
L -2214.771313 232.452965 
L -2206.723236 230.884775 
L -2198.675159 228.614248 
L -2190.627082 226.673508 
L -2182.579005 225.171615 
L -2174.530929 222.802318 
L -2166.482852 221.172415 
L -2158.434775 219.053474 
L -2150.386698 217.030028 
L -2142.338621 214.719289 
L -2134.290544 212.577427 
L -2126.242467 210.010267 
L -2118.19439 207.86075 
L -2110.146313 205.419795 
L -2102.098236 202.465423 
L -2094.050159 199.647342 
L -2086.002082 197.575994 
L -2077.954005 195.102479 
L -2069.905929 192.10054 
L -2061.857852 189.691524 
L -2053.809775 186.722225 
L -2045.761698 182.725357 
L -2037.713621 180.62814 
L -2029.665544 177.765579 
L -2021.617467 175.194875 
L -2013.56939 172.138414 
L -2005.521313 168.596266 
L -1997.473236 165.701811 
L -1989.425159 162.395339 
L -1981.377082 158.388396 
L -1973.329005 155.861407 
L -1965.280929 151.881841 
L -1957.232852 148.912883 
L -1949.184775 144.877718 
L -1941.136698 140.314565 
L -1933.088621 136.682442 
L -1925.040544 133.599755 
L -1916.992467 129.019472 
L -1908.94439 125.49996 
L -1900.896313 121.302674 
L -1892.848236 117.918939 
L -1884.800159 113.423753 
L -1876.752082 109.381339 
L -1868.704005 108.724798 
L -1860.655929 101.886809 
L -1852.607852 100.573002 
L -1844.559775 96.110269 
L -1836.511698 93.455953 
L -1828.463621 89.571271 
L -1820.415544 86.023816 
L -1812.367467 82.660842 
L -1804.31939 78.832142 
L -1796.271313 76.023992 
L -1788.223236 72.673351 
L -1780.175159 73.960026 
L -1772.127082 65.543183 
L -1764.079005 63.0684 
L -1756.030929 68.607633 
L -1747.982852 59.151248 
L -1739.934775 60.047855 
L -1731.886698 58.721605 
L -1723.838621 52.875331 
L -1715.790544 53.068589 
L -1707.742467 57.693323 
L -1699.69439 53.791202 
L -1691.646313 52.654068 
L -1683.598236 54.991268 
L -1675.550159 55.157222 
L -1667.502082 56.69941 
L -1659.454005 60.640311 
L -1651.405929 65.723174 
L -1643.357852 77.419553 
L -1635.309775 75.352798 
L -1627.261698 82.139326 
L -1619.213621 87.224168 
L -1611.165544 91.201257 
L -1603.117467 99.601576 
L -1595.06939 106.615036 
L -1587.021313 97.17908 
L -1578.973236 107.989137 
L -1570.925159 120.268911 
L -1562.877082 126.56766 
L -1554.829005 129.946881 
L -1546.780929 146.303824 
L -1538.732852 148.864499 
L -1530.684775 153.755039 
L -1522.636698 152.75536 
L -1514.588621 166.879053 
L -1506.540544 162.66549 
L -1498.492467 160.663816 
L -1490.44439 173.13373 
L -1482.396313 181.228792 
L -1474.348236 180.257004 
L -1466.300159 186.366644 
L -1458.252082 188.546795 
L -1450.204005 188.741958 
L -1442.155929 188.518239 
L -1434.107852 191.214897 
L -1426.059775 193.270435 
L -1418.011698 202.067154 
L -1409.963621 197.232096 
L -1401.915544 205.20517 
L -1393.867467 203.536744 
L -1385.81939 203.198764 
L -1377.771313 206.112785 
L -1369.723236 208.757872 
L -1361.675159 205.541149 
L -1353.627082 207.908946 
L -1345.579005 207.580003 
L -1337.530929 211.889234 
L -1329.482852 210.337116 
L -1321.434775 209.205637 
L -1313.386698 210.685436 
L -1305.338621 211.788835 
L -1297.290544 211.036975 
L -1289.242467 208.902454 
L -1281.19439 210.295428 
L -1273.146313 206.569109 
L -1265.098236 207.465595 
L -1257.050159 211.638935 
L -1249.002082 210.721595 
L -1240.954005 208.05984 
L -1232.905929 206.97968 
L -1224.857852 206.987213 
L -1216.809775 203.447999 
L -1208.761698 204.485679 
L -1200.713621 204.378108 
L -1192.665544 203.263519 
L -1184.617467 202.385761 
L -1176.56939 200.399547 
L -1168.521313 201.347788 
L -1160.473236 200.164477 
L -1152.425159 199.401776 
L -1144.377082 198.595883 
L -1136.329005 197.835107 
L -1128.280929 196.795697 
L -1120.232852 194.055893 
L -1112.184775 193.116027 
L -1104.136698 191.518388 
L -1096.088621 188.101889 
L -1088.040544 190.399533 
L -1079.992467 186.460973 
L -1071.94439 187.266597 
L -1063.896313 186.846868 
L -1055.848236 186.826678 
L -1047.800159 184.586315 
L -1039.752082 184.438684 
L -1031.704005 184.409706 
L -1023.655929 180.399978 
L -1015.607852 181.647095 
L -1007.559775 180.839942 
L -999.511698 181.425373 
L -991.463621 179.046442 
L -983.415544 179.857076 
L -975.367467 179.117152 
L -967.31939 176.215823 
L -959.271313 175.420102 
L -951.223236 174.665401 
L -943.175159 173.995241 
L -935.127082 172.797888 
L -927.079005 172.620866 
L -919.030929 171.712389 
L -910.982852 170.860997 
L -902.934775 170.746625 
L -894.886698 168.662864 
L -886.838621 170.388835 
L -878.790544 170.429042 
L -870.742467 168.9489 
L -862.69439 167.601036 
L -854.646313 165.41659 
L -846.598236 167.476177 
L -838.550159 167.48269 
L -830.502082 166.549674 
L -822.454005 165.165804 
L -814.405929 164.188256 
L -806.357852 163.291947 
L -798.309775 163.438492 
L -790.261698 162.831585 
L -782.213621 163.078364 
L -774.165544 161.627431 
L -766.117467 160.054044 
L -758.06939 162.430998 
L -750.021313 160.817051 
L -741.973236 160.568565 
L -733.925159 162.339822 
L -725.877082 158.242522 
L -717.829005 159.048733 
L -709.780929 160.237267 
L -701.732852 158.091562 
L -693.684775 160.653202 
L -685.636698 158.799415 
L -677.588621 156.735751 
L -669.540544 159.374491 
L -661.492467 160.250378 
L -653.44439 158.465358 
L -645.396313 159.131038 
L -637.348236 158.337087 
L -629.300159 163.151919 
L -621.252082 162.394262 
L -613.204005 162.817113 
L -605.155929 159.530572 
L -597.107852 157.863803 
L -589.059775 160.835712 
L -581.011698 164.125397 
L -572.963621 161.933912 
L -564.915544 160.315394 
L -556.867467 157.855777 
L -548.81939 157.979618 
L -540.771313 159.634591 
L -532.723236 157.355762 
L -524.675159 156.249353 
L -516.627082 159.561468 
L -508.579005 157.198765 
L -500.530929 160.492394 
L -492.482852 160.81133 
L -484.434775 155.42519 
L -476.386698 155.856745 
L -468.338621 155.584942 
L -460.290544 156.769065 
L -452.242467 159.594871 
L -444.19439 164.767688 
L -436.146313 166.206951 
L -428.098236 166.186741 
L -420.050159 170.297354 
L -412.002082 178.686369 
L -403.954005 170.105027 
L -395.905929 167.150435 
L -387.857852 170.420399 
L -379.809775 173.793787 
L -371.761698 174.768533 
L -363.713621 173.403312 
L -355.665544 179.779636 
L -347.617467 184.038758 
L -339.56939 177.596629 
L -331.521313 183.739483 
L -323.473236 180.494565 
L -315.425159 180.874158 
L -307.377082 186.353305 
L -299.329005 186.070093 
L -291.280929 190.635331 
L -283.232852 190.260001 
L -275.184775 185.383239 
L -267.136698 189.562272 
L -259.088621 189.908467 
L -251.040544 193.678497 
L -242.992467 192.67783 
L -234.94439 197.367211 
L -226.896313 193.661168 
L -218.848236 196.510001 
L -210.800159 196.571442 
L -202.752082 199.692203 
L -194.704005 194.478522 
L -186.655929 199.489977 
L -178.607852 201.410424 
L -170.559775 203.721048 
L -162.511698 206.210405 
L -154.463621 205.947497 
L -146.415544 204.750715 
L -138.367467 207.771224 
L -130.31939 209.952739 
L -122.271313 208.920468 
L -114.223236 206.871989 
L -106.175159 209.584788 
L -98.127082 211.463148 
L -90.079005 207.253719 
L -82.030929 206.612567 
L -73.982852 214.235095 
L -65.934775 216.028127 
L -57.886698 208.90739 
L -49.838621 211.71867 
L -41.790544 212.269791 
L -33.742467 212.969414 
L -25.69439 216.643098 
L -17.646313 214.859535 
L -9.598236 213.126463 
L -1.550159 215.476073 
L 6.497918 215.927097 
L 14.545995 212.13705 
L 22.594071 213.42135 
L 30.642148 212.769065 
L 38.690225 220.268737 
L 46.738302 225.223732 
L 54.786379 225.08842 
L 62.834456 218.669953 
L 70.882533 217.611223 
L 78.93061 218.713532 
L 86.978687 218.304713 
L 95.026764 224.774628 
L 103.074841 218.534803 
L 111.122918 224.069191 
L 119.170995 229.183848 
L 127.219071 225.005607 
L 135.267148 232.491139 
L 143.315225 227.805986 
L 151.363302 231.317344 
L 159.411379 228.897493 
L 167.459456 232.036738 
L 175.507533 235.136576 
L 183.55561 234.302875 
L 191.603687 236.020304 
L 199.651764 236.906823 
L 207.699841 238.309434 
L 215.747918 229.481889 
L 223.795995 241.352383 
L 231.844071 246.417379 
L 239.892148 241.434184 
L 247.940225 244.774457 
L 255.988302 247.056836 
L 264.036379 244.154046 
L 272.084456 249.372931 
L 280.132533 252.645176 
L 288.18061 252.21311 
L 296.228687 253.436965 
L 304.276764 253.905834 
L 312.324841 255.854443 
L 320.372918 257.814825 
L 328.420995 260.23594 
L 336.469071 260.963942 
L 344.517148 262.420284 
L 352.565225 261.205377 
L 360.613302 257.378956 
L 368.661379 264.026022 
L 376.709456 269.445434 
L 384.757533 263.894193 
L 392.80561 264.930332 
L 400.853687 272.037201 
L 408.901764 258.720343 
L 416.949841 271.043956 
L 424.997918 264.051091 
L 433.045995 274.820175 
L 441.094071 269.778889 
L 449.142148 274.668297 
L 457.190225 274.844977 
L 465.238302 277.408235 
L 473.286379 277.453835 
L 481.334456 275.182766 
L 489.382533 274.304527 
L 497.43061 278.056527 
L 505.478687 281.149079 
L 513.526764 280.152695 
L 521.574841 280.869242 
L 529.622918 282.965897 
L 537.670995 282.768767 
L 545.719071 280.534527 
L 553.767148 280.132285 
L 561.815225 285.314744 
L 569.863302 285.027819 
L 577.911379 285.6666 
L 585.959456 283.57552 
L 594.007533 277.288966 
L 602.05561 284.344439 
L 610.103687 281.660988 
L 618.151764 283.051282 
L 626.199841 284.522258 
L 634.247918 281.544071 
L 642.295995 285.362069 
L 650.344071 282.622538 
L 658.392148 282.955828 
L 666.440225 281.316128 
L 674.488302 284.420506 
L 682.536379 283.582026 
L 690.584456 282.930175 
L 698.632533 280.398354 
L 706.68061 281.778883 
L 714.728687 281.428633 
L 722.776764 281.044342 
L 730.824841 281.950478 
L 738.872918 281.60466 
L 746.920995 282.211447 
L 754.969071 282.539823 
L 763.017148 281.904653 
L 771.065225 281.441456 
L 779.113302 279.986045 
L 787.161379 280.031994 
L 795.209456 279.674722 
L 803.257533 279.823238 
L 811.30561 277.737886 
L 819.353687 279.549215 
L 827.401764 271.383228 
L 835.449841 277.242281 
L 843.497918 281.24941 
L 851.545995 277.730863 
L 859.594071 276.599291 
L 867.642148 281.62025 
L 875.690225 280.482507 
L 883.738302 278.929769 
L 891.786379 277.886515 
L 899.834456 277.312628 
L 907.882533 278.191669 
L 915.93061 280.276882 
L 923.978687 276.025859 
L 932.026764 279.933906 
L 940.074841 277.92115 
L 940.074841 276.051276 
L 940.074841 276.051276 
L 932.026764 277.411416 
L 923.978687 273.917252 
L 915.93061 276.766415 
L 907.882533 275.450048 
L 899.834456 274.930334 
L 891.786379 275.739675 
L 883.738302 277.354437 
L 875.690225 277.600852 
L 867.642148 277.791454 
L 859.594071 267.820029 
L 851.545995 276.367894 
L 843.497918 279.24771 
L 835.449841 265.064661 
L 827.401764 227.398355 
L 819.353687 277.81308 
L 811.30561 268.497067 
L 803.257533 278.576384 
L 795.209456 277.386288 
L 787.161379 277.525726 
L 779.113302 273.980031 
L 771.065225 276.280425 
L 763.017148 279.969185 
L 754.969071 280.800261 
L 746.920995 276.704364 
L 738.872918 272.371273 
L 730.824841 275.754781 
L 722.776764 272.2406 
L 714.728687 271.784253 
L 706.68061 271.357144 
L 698.632533 265.707745 
L 690.584456 274.242243 
L 682.536379 274.379899 
L 674.488302 274.894428 
L 666.440225 265.876948 
L 658.392148 269.40227 
L 650.344071 266.695238 
L 642.295995 276.456601 
L 634.247918 262.256614 
L 626.199841 271.96064 
L 618.151764 266.648921 
L 610.103687 260.346247 
L 602.05561 269.39806 
L 594.007533 243.032253 
L 585.959456 265.90734 
L 577.911379 270.945007 
L 569.863302 267.868691 
L 561.815225 268.959297 
L 553.767148 248.794709 
L 545.719071 251.177394 
L 537.670995 257.729742 
L 529.622918 257.756472 
L 521.574841 251.495061 
L 513.526764 249.188382 
L 505.478687 250.18658 
L 497.43061 243.834332 
L 489.382533 230.099048 
L 481.334456 231.912397 
L 473.286379 238.295691 
L 465.238302 237.231203 
L 457.190225 231.237388 
L 449.142148 230.543559 
L 441.094071 215.266948 
L 433.045995 230.972917 
L 424.997918 193.510799 
L 416.949841 216.914552 
L 408.901764 181.168155 
L 400.853687 221.066681 
L 392.80561 200.83459 
L 384.757533 199.20453 
L 376.709456 211.571328 
L 368.661379 198.029049 
L 360.613302 178.786516 
L 352.565225 188.728825 
L 344.517148 193.667609 
L 336.469071 189.523909 
L 328.420995 185.641347 
L 320.372918 172.367009 
L 312.324841 176.022459 
L 304.276764 172.068284 
L 296.228687 170.12217 
L 288.18061 166.225857 
L 280.132533 167.624416 
L 272.084456 158.245918 
L 264.036379 144.572126 
L 255.988302 156.513395 
L 247.940225 146.288752 
L 239.892148 140.713471 
L 231.844071 152.607734 
L 223.795995 140.425499 
L 215.747918 109.503511 
L 207.699841 132.355973 
L 199.651764 127.624216 
L 191.603687 126.443015 
L 183.55561 121.895925 
L 175.507533 124.509809 
L 167.459456 117.275229 
L 159.411379 110.52563 
L 151.363302 116.136903 
L 143.315225 105.957715 
L 135.267148 118.774581 
L 127.219071 100.57683 
L 119.170995 109.133215 
L 111.122918 98.402924 
L 103.074841 87.01682 
L 95.026764 100.571463 
L 86.978687 85.233595 
L 78.93061 87.004931 
L 70.882533 85.159672 
L 62.834456 87.790054 
L 54.786379 100.886882 
L 46.738302 102.832282 
L 38.690225 92.458231 
L 30.642148 74.054992 
L 22.594071 75.718849 
L 14.545995 75.06288 
L 6.497918 83.652107 
L -1.550159 82.076317 
L -9.598236 77.11109 
L -17.646313 82.053434 
L -25.69439 84.076473 
L -33.742467 76.994361 
L -41.790544 77.16893 
L -49.838621 75.646857 
L -57.886698 70.846894 
L -65.934775 86.734962 
L -73.982852 80.541199 
L -82.030929 67.948659 
L -90.079005 71.030362 
L -98.127082 78.033229 
L -106.175159 74.469804 
L -114.223236 70.2918 
L -122.271313 76.485189 
L -130.31939 80.683369 
L -138.367467 73.243123 
L -146.415544 69.661686 
L -154.463621 72.960656 
L -162.511698 69.154094 
L -170.559775 69.287037 
L -178.607852 64.753997 
L -186.655929 62.889392 
L -194.704005 54.769592 
L -202.752082 63.414677 
L -210.800159 59.171351 
L -218.848236 60.250004 
L -226.896313 57.964538 
L -234.94439 62.468516 
L -242.992467 55.214266 
L -251.040544 58.997931 
L -259.088621 53.002407 
L -267.136698 53.487644 
L -275.184775 48.00603 
L -283.232852 52.606409 
L -291.280929 56.021487 
L -299.329005 52.309768 
L -307.377082 51.582515 
L -315.425159 45.001935 
L -323.473236 46.042841 
L -331.521313 48.282747 
L -339.56939 41.351779 
L -347.617467 48.38283 
L -355.665544 45.402588 
L -363.713621 36.244459 
L -371.761698 39.689832 
L -379.809775 38.465568 
L -387.857852 34.315704 
L -395.905929 31.868122 
L -403.954005 36.009348 
L -412.002082 49.440942 
L -420.050159 39.495622 
L -428.098236 33.709929 
L -436.146313 34.035157 
L -444.19439 32.471461 
L -452.242467 27.596005 
L -460.290544 25.144602 
L -468.338621 21.668705 
L -476.386698 25.698091 
L -484.434775 26.518606 
L -492.482852 33.021197 
L -500.530929 33.741453 
L -508.579005 30.991075 
L -516.627082 35.209563 
L -524.675159 31.573348 
L -532.723236 34.95033 
L -540.771313 37.662365 
L -548.81939 38.139881 
L -556.867467 37.743159 
L -564.915544 42.317469 
L -572.963621 44.741908 
L -581.011698 47.155173 
L -589.059775 45.38077 
L -597.107852 42.960336 
L -605.155929 45.323276 
L -613.204005 48.129998 
L -621.252082 48.693051 
L -629.300159 51.522633 
L -637.348236 46.419021 
L -645.396313 48.247638 
L -653.44439 47.653555 
L -661.492467 49.020092 
L -669.540544 47.847941 
L -677.588621 46.172368 
L -685.636698 49.966619 
L -693.684775 51.532825 
L -701.732852 48.612829 
L -709.780929 51.518819 
L -717.829005 49.026409 
L -725.877082 50.284201 
L -733.925159 54.691477 
L -741.973236 52.904918 
L -750.021313 53.847849 
L -758.06939 55.471726 
L -766.117467 52.98294 
L -774.165544 54.331618 
L -782.213621 56.46698 
L -790.261698 56.156947 
L -798.309775 57.21812 
L -806.357852 57.156249 
L -814.405929 57.993325 
L -822.454005 59.141656 
L -830.502082 60.497497 
L -838.550159 61.035651 
L -846.598236 61.458938 
L -854.646313 56.929817 
L -862.69439 61.252221 
L -870.742467 62.468024 
L -878.790544 63.708329 
L -886.838621 62.614309 
L -894.886698 61.653467 
L -902.934775 63.759555 
L -910.982852 63.728284 
L -919.030929 64.831604 
L -927.079005 65.182045 
L -935.127082 65.260537 
L -943.175159 65.475737 
L -951.223236 66.482469 
L -959.271313 67.434143 
L -967.31939 68.636649 
L -975.367467 71.920939 
L -983.415544 72.537256 
L -991.463621 71.259945 
L -999.511698 73.969006 
L -1007.559775 72.739686 
L -1015.607852 73.854322 
L -1023.655929 71.301729 
L -1031.704005 77.221938 
L -1039.752082 76.827632 
L -1047.800159 77.320993 
L -1055.848236 79.864446 
L -1063.896313 79.952328 
L -1071.94439 80.681194 
L -1079.992467 79.348592 
L -1088.040544 84.136991 
L -1096.088621 82.338426 
L -1104.136698 86.720314 
L -1112.184775 89.247226 
L -1120.232852 90.907007 
L -1128.280929 94.782509 
L -1136.329005 97.017714 
L -1144.377082 97.788459 
L -1152.425159 99.721347 
L -1160.473236 100.772151 
L -1168.521313 103.006661 
L -1176.56939 102.324977 
L -1184.617467 105.845973 
L -1192.665544 108.168253 
L -1200.713621 109.925797 
L -1208.761698 110.939982 
L -1216.809775 111.123974 
L -1224.857852 115.653664 
L -1232.905929 116.777633 
L -1240.954005 119.602965 
L -1249.002082 123.015117 
L -1257.050159 124.63764 
L -1265.098236 121.824427 
L -1273.146313 122.652153 
L -1281.19439 127.124661 
L -1289.242467 127.446469 
L -1297.290544 130.165494 
L -1305.338621 131.759145 
L -1313.386698 132.041325 
L -1321.434775 132.811007 
L -1329.482852 134.314849 
L -1337.530929 136.556901 
L -1345.579005 133.43902 
L -1353.627082 135.150518 
L -1361.675159 134.41397 
L -1369.723236 137.803064 
L -1377.771313 137.695308 
L -1385.81939 135.709218 
L -1393.867467 137.226921 
L -1401.915544 139.312507 
L -1409.963621 133.770374 
L -1418.011698 139.110827 
L -1426.059775 132.823271 
L -1434.107852 132.444789 
L -1442.155929 131.437739 
L -1450.204005 133.144343 
L -1458.252082 133.806219 
L -1466.300159 132.693559 
L -1474.348236 128.991556 
L -1482.396313 131.846223 
L -1490.44439 125.019148 
L -1498.492467 117.568151 
L -1506.540544 119.717003 
L -1514.588621 123.214393 
L -1522.636698 113.984563 
L -1530.684775 114.639179 
L -1538.732852 112.128643 
L -1546.780929 110.426515 
L -1554.829005 97.648338 
L -1562.877082 96.171559 
L -1570.925159 90.911314 
L -1578.973236 80.330952 
L -1587.021313 72.999073 
L -1595.06939 81.5146 
L -1603.117467 76.71782 
L -1611.165544 70.351795 
L -1619.213621 66.73429 
L -1627.261698 61.940773 
L -1635.309775 55.111771 
L -1643.357852 57.739336 
L -1651.405929 45.70178 
L -1659.454005 41.140453 
L -1667.502082 37.126103 
L -1675.550159 36.019447 
L -1683.598236 36.074189 
L -1691.646313 33.828395 
L -1699.69439 35.185546 
L -1707.742467 39.626431 
L -1715.790544 35.450946 
L -1723.838621 35.438426 
L -1731.886698 41.676058 
L -1739.934775 43.288336 
L -1747.982852 42.802928 
L -1756.030929 52.567341 
L -1764.079005 47.576774 
L -1772.127082 50.108721 
L -1780.175159 58.514713 
L -1788.223236 57.119072 
L -1796.271313 60.293491 
L -1804.31939 62.850686 
L -1812.367467 66.326172 
L -1820.415544 69.622267 
L -1828.463621 72.929129 
L -1836.511698 76.635235 
L -1844.559775 79.214401 
L -1852.607852 83.287602 
L -1860.655929 84.52692 
L -1868.704005 91.266987 
L -1876.752082 91.570038 
L -1884.800159 95.388284 
L -1892.848236 99.541502 
L -1900.896313 102.749997 
L -1908.94439 106.642729 
L -1916.992467 110.044869 
L -1925.040544 114.383999 
L -1933.088621 117.38419 
L -1941.136698 120.764943 
L -1949.184775 125.0534 
L -1957.232852 128.85524 
L -1965.280929 131.522399 
L -1973.329005 135.140062 
L -1981.377082 137.627305 
L -1989.425159 141.305391 
L -1997.473236 144.380291 
L -2005.521313 146.994533 
L -2013.56939 150.245984 
L -2021.617467 152.918428 
L -2029.665544 155.213109 
L -2037.713621 157.818407 
L -2045.761698 159.662658 
L -2053.809775 163.339536 
L -2061.857852 165.99745 
L -2069.905929 168.355781 
L -2077.954005 171.161133 
L -2086.002082 173.055583 
L -2094.050159 175.603317 
L -2102.098236 178.250539 
L -2110.146313 181.118717 
L -2118.19439 183.420402 
L -2126.242467 185.689908 
L -2134.290544 187.979444 
L -2142.338621 190.430573 
L -2150.386698 192.82523 
L -2158.434775 194.880054 
L -2166.482852 197.065664 
L -2174.530929 198.810013 
L -2182.579005 201.237131 
L -2190.627082 202.92905 
L -2198.675159 204.919203 
L -2206.723236 207.348071 
L -2214.771313 208.980477 
L -2222.81939 209.432497 
L -2230.867467 211.402949 
L -2238.915544 212.405237 
L -2246.963621 214.269074 
L -2255.011698 216.484605 
L -2263.059775 217.587891 
L -2271.107852 218.613865 
L -2279.155929 218.79319 
L -2287.204005 219.871374 
L -2295.252082 220.587209 
L -2303.300159 221.319587 
L -2311.348236 222.864467 
L -2319.396313 223.785203 
L -2327.44439 225.053564 
L -2335.492467 224.399243 
L -2343.540544 225.18125 
L -2351.588621 224.16649 
L -2359.636698 226.07328 
L -2367.684775 226.473233 
L -2375.732852 227.855756 
L -2383.780929 225.265748 
L -2391.829005 228.838924 
L -2399.877082 228.809765 
L -2407.925159 227.129796 
L -2415.973236 226.913106 
L -2424.021313 228.873172 
L -2432.06939 232.13627 
L -2440.117467 231.242584 
L -2448.165544 231.452379 
L -2456.213621 228.69343 
L -2464.261698 229.201542 
L -2472.309775 230.166004 
L -2480.357852 232.261316 
L -2488.405929 231.990782 
L -2496.454005 231.845628 
L -2504.502082 232.338893 
L -2512.550159 233.714789 
L -2520.598236 233.77529 
L -2528.646313 234.632191 
L -2536.69439 236.038732 
L -2544.742467 235.446359 
L -2552.790544 237.316769 
L -2560.838621 237.770612 
L -2568.886698 238.28846 
L -2576.934775 239.68082 
L -2584.982852 240.08124 
L -2593.030929 241.55342 
L -2601.079005 243.071694 
L -2609.127082 243.459477 
L -2617.175159 243.30956 
L -2625.223236 243.323636 
L -2633.271313 246.087823 
L -2641.31939 245.974314 
L -2649.367467 248.021402 
L -2657.415544 248.342124 
L -2665.463621 248.067758 
L -2673.511698 249.867168 
L -2681.559775 248.595714 
L -2689.607852 248.96835 
L -2697.655929 251.209593 
L -2705.704005 249.917111 
L -2713.752082 252.074337 
L -2721.800159 252.77403 
L -2729.848236 251.353629 
L -2737.896313 246.288552 
L -2745.94439 249.674453 
L -2753.992467 248.138864 
L -2762.040544 240.537857 
L -2770.088621 247.040404 
L -2778.136698 248.401863 
L -2786.184775 241.499851 
L -2794.232852 239.486414 
L -2802.280929 243.235158 
L -2810.329005 235.577252 
L -2818.377082 222.65878 
L -2826.425159 236.899403 
L -2834.473236 242.562991 
L -2842.521313 245.473367 
L -2850.56939 227.777805 
L -2858.617467 228.20273 
L -2866.665544 219.084969 
L -2874.713621 212.226877 
L -2882.761698 226.525435 
L -2890.809775 220.331041 
L -2898.857852 207.920062 
L -2906.905929 199.021703 
L -2914.954005 199.552836 
L -2923.002082 201.234286 
L -2931.050159 199.289995 
L -2939.098236 198.583566 
L -2947.146313 203.894452 
L -2955.19439 203.528089 
L -2963.242467 200.455242 
L -2971.290544 202.870748 
L -2979.338621 201.826017 
L -2987.386698 201.54931 
L -2995.434775 202.312595 
L -3003.482852 204.628764 
L -3011.530929 206.294276 
L -3019.579005 207.51547 
L -3027.627082 209.759767 
L -3035.675159 211.046007 
L -3043.723236 212.850546 
L -3051.771313 215.355894 
L -3059.81939 217.596662 
L -3067.867467 219.074889 
L -3075.915544 220.886078 
L -3083.963621 222.795746 
L -3092.011698 224.206742 
L -3100.059775 226.126651 
L -3108.107852 228.338426 
L -3116.155929 229.626134 
L -3124.204005 230.620593 
L -3132.252082 231.997761 
L -3140.300159 233.350191 
L -3148.348236 234.561054 
L -3156.396313 235.692875 
L -3164.44439 236.761626 
L -3172.492467 238.18857 
L -3180.540544 238.906418 
L -3188.588621 239.891472 
L -3196.636698 240.927519 
L -3204.684775 241.865059 
L -3212.732852 242.761749 
L -3220.780929 243.523893 
L -3228.829005 244.376451 
L -3236.877082 245.50033 
L -3244.925159 246.289237 
L -3252.973236 247.234024 
L -3261.021313 248.140765 
L -3269.06939 249.067532 
L -3277.117467 250.019067 
L -3285.165544 251.009786 
L -3293.213621 251.851398 
L -3301.261698 252.818505 
L -3309.309775 253.663677 
L -3317.357852 254.548565 
L -3325.405929 255.345984 
L -3333.454005 256.133725 
L -3341.502082 256.88586 
L -3349.550159 257.657927 
L -3357.598236 258.471612 
L -3365.646313 259.09434 
L -3373.69439 259.848939 
L -3381.742467 260.509487 
L -3389.790544 261.174984 
L -3397.838621 261.791696 
L -3405.886698 262.471746 
L -3413.934775 263.119794 
L -3421.982852 263.737066 
L -3430.030929 264.358773 
L -3438.079005 264.964422 
L -3446.127082 265.595884 
L -3454.175159 266.281081 
L -3462.223236 266.807005 
L -3470.271313 267.437903 
L -3478.31939 268.074572 
L -3486.367467 268.713966 
L -3494.415544 269.336163 
L -3502.463621 269.920923 
L -3510.511698 270.562094 
L -3518.559775 271.190205 
L -3526.607852 271.818569 
L -3534.655929 272.44092 
L -3542.704005 273.074534 
L -3550.752082 273.723193 
L -3558.800159 274.330963 
L -3566.848236 274.919762 
L -3574.896313 275.529298 
L -3582.94439 276.128206 
L -3590.992467 276.73455 
L -3599.040544 277.341289 
L -3607.088621 277.949332 
L -3615.136698 278.552394 
L -3623.184775 279.157728 
L -3631.232852 279.748284 
L -3639.280929 280.376314 
L -3647.329005 280.988902 
L -3655.377082 281.569221 
L -3663.425159 282.180919 
L -3671.473236 282.789564 
L -3679.521313 283.420248 
L -3687.56939 284.062158 
L -3695.617467 284.698839 
L -3703.665544 285.348303 
L -3711.713621 286.006876 
L -3719.761698 286.686787 
L -3727.809775 287.355537 
L -3735.857852 288.089295 
L -3743.905929 288.737236 
L -3751.954005 289.446013 
L -3760.002082 290.144167 
L -3768.050159 290.854159 
L -3776.098236 291.542713 
L -3784.146313 292.236405 
L -3792.19439 292.931607 
L -3800.242467 293.625748 
L -3808.290544 294.297452 
L -3816.338621 294.945038 
L -3824.386698 295.593927 
L -3832.434775 296.246064 
L -3840.482852 296.877672 
L -3848.530929 297.516102 
L -3856.579005 298.142164 
L -3864.627082 298.737023 
L -3872.675159 299.322045 
L -3880.723236 299.893719 
L -3888.771313 300.430582 
L -3896.81939 300.948034 
L -3904.867467 301.472187 
L -3912.915544 301.9496 
L -3920.963621 302.391067 
L -3929.011698 302.844869 
L -3937.059775 303.275195 
L -3945.107852 303.649123 
L -3953.155929 304.032024 
L -3961.204005 304.378573 
L -3969.252082 304.729546 
L -3977.300159 305.045471 
L -3985.348236 305.350798 
L -3993.396313 305.631909 
L -4001.44439 305.896927 
L -4009.492467 306.136665 
L -4017.540544 306.358446 
L -4025.588621 306.582862 
L -4033.636698 306.790221 
L -4041.684775 306.975137 
L -4049.732852 307.179962 
L -4057.780929 307.360605 
L -4065.829005 307.534707 
L -4073.877082 307.704884 
L -4081.925159 307.871867 
L -4089.973236 308.005291 
L -4098.021313 308.173374 
L -4106.06939 308.333397 
L -4114.117467 308.471528 
L -4122.165544 308.609962 
L -4130.213621 308.744897 
L -4138.261698 308.885859 
L -4146.309775 309.011577 
L -4154.357852 309.136221 
L -4162.405929 309.263492 
L -4170.454005 309.377883 
L -4178.502082 309.493398 
L -4186.550159 309.605809 
L -4194.598236 309.721079 
L -4202.646313 309.829379 
L -4210.69439 309.916414 
L -4218.742467 310.02582 
L -4226.790544 310.115324 
L -4234.838621 310.203174 
L -4242.886698 310.281202 
L -4250.934775 310.359977 
L -4258.982852 310.436262 
L -4267.030929 310.534237 
L -4275.079005 310.622928 
L -4283.127082 310.697186 
L -4291.175159 310.769494 
L -4299.223236 310.849216 
L -4307.271313 310.933178 
L -4315.31939 311.02432 
z
" clip-path="url(#p58d11a58cb)" style="fill: #008000; fill-opacity: 0.3; stroke: #008000; stroke-opacity: 0.3"/>
   </g>
   <g id="matplotlib.axis_1">
    <g id="xtick_1">
     <g id="line2d_1">
      <defs>
       <path id="mbae84c081f" d="M 0 0 
L 0 3.5 
" style="stroke: #000000; stroke-width: 0.8"/>
      </defs>
      <g>
       <use xlink:href="#mbae84c081f" x="103.074841" y="395.28" style="stroke: #000000; stroke-width: 0.8"/>
      </g>
     </g>
     <g id="text_1">
      <!-- 2023-01-01 -->
      <g transform="translate(17.945813 495.213718) rotate(-45) scale(0.2 -0.2)">
       <defs>
        <path id="DejaVuSans-32" d="M 1228 531 
L 3431 531 
L 3431 0 
L 469 0 
L 469 531 
Q 828 903 1448 1529 
Q 2069 2156 2228 2338 
Q 2531 2678 2651 2914 
Q 2772 3150 2772 3378 
Q 2772 3750 2511 3984 
Q 2250 4219 1831 4219 
Q 1534 4219 1204 4116 
Q 875 4013 500 3803 
L 500 4441 
Q 881 4594 1212 4672 
Q 1544 4750 1819 4750 
Q 2544 4750 2975 4387 
Q 3406 4025 3406 3419 
Q 3406 3131 3298 2873 
Q 3191 2616 2906 2266 
Q 2828 2175 2409 1742 
Q 1991 1309 1228 531 
z
" transform="scale(0.015625)"/>
        <path id="DejaVuSans-30" d="M 2034 4250 
Q 1547 4250 1301 3770 
Q 1056 3291 1056 2328 
Q 1056 1369 1301 889 
Q 1547 409 2034 409 
Q 2525 409 2770 889 
Q 3016 1369 3016 2328 
Q 3016 3291 2770 3770 
Q 2525 4250 2034 4250 
z
M 2034 4750 
Q 2819 4750 3233 4129 
Q 3647 3509 3647 2328 
Q 3647 1150 3233 529 
Q 2819 -91 2034 -91 
Q 1250 -91 836 529 
Q 422 1150 422 2328 
Q 422 3509 836 4129 
Q 1250 4750 2034 4750 
z
" transform="scale(0.015625)"/>
        <path id="DejaVuSans-33" d="M 2597 2516 
Q 3050 2419 3304 2112 
Q 3559 1806 3559 1356 
Q 3559 666 3084 287 
Q 2609 -91 1734 -91 
Q 1441 -91 1130 -33 
Q 819 25 488 141 
L 488 750 
Q 750 597 1062 519 
Q 1375 441 1716 441 
Q 2309 441 2620 675 
Q 2931 909 2931 1356 
Q 2931 1769 2642 2001 
Q 2353 2234 1838 2234 
L 1294 2234 
L 1294 2753 
L 1863 2753 
Q 2328 2753 2575 2939 
Q 2822 3125 2822 3475 
Q 2822 3834 2567 4026 
Q 2313 4219 1838 4219 
Q 1578 4219 1281 4162 
Q 984 4106 628 3988 
L 628 4550 
Q 988 4650 1302 4700 
Q 1616 4750 1894 4750 
Q 2613 4750 3031 4423 
Q 3450 4097 3450 3541 
Q 3450 3153 3228 2886 
Q 3006 2619 2597 2516 
z
" transform="scale(0.015625)"/>
        <path id="DejaVuSans-2d" d="M 313 2009 
L 1997 2009 
L 1997 1497 
L 313 1497 
L 313 2009 
z
" transform="scale(0.015625)"/>
        <path id="DejaVuSans-31" d="M 794 531 
L 1825 531 
L 1825 4091 
L 703 3866 
L 703 4441 
L 1819 4666 
L 2450 4666 
L 2450 531 
L 3481 531 
L 3481 0 
L 794 0 
L 794 531 
z
" transform="scale(0.015625)"/>
       </defs>
       <use xlink:href="#DejaVuSans-32"/>
       <use xlink:href="#DejaVuSans-30" x="63.623047"/>
       <use xlink:href="#DejaVuSans-32" x="127.246094"/>
       <use xlink:href="#DejaVuSans-33" x="190.869141"/>
       <use xlink:href="#DejaVuSans-2d" x="254.492188"/>
       <use xlink:href="#DejaVuSans-30" x="290.576172"/>
       <use xlink:href="#DejaVuSans-31" x="354.199219"/>
       <use xlink:href="#DejaVuSans-2d" x="417.822266"/>
       <use xlink:href="#DejaVuSans-30" x="453.90625"/>
       <use xlink:href="#DejaVuSans-31" x="517.529297"/>
      </g>
     </g>
    </g>
    <g id="xtick_2">
     <g id="line2d_2">
      <g>
       <use xlink:href="#mbae84c081f" x="215.747918" y="395.28" style="stroke: #000000; stroke-width: 0.8"/>
      </g>
     </g>
     <g id="text_2">
      <!-- 2023-01-15 -->
      <g transform="translate(130.61889 495.213718) rotate(-45) scale(0.2 -0.2)">
       <defs>
        <path id="DejaVuSans-35" d="M 691 4666 
L 3169 4666 
L 3169 4134 
L 1269 4134 
L 1269 2991 
Q 1406 3038 1543 3061 
Q 1681 3084 1819 3084 
Q 2600 3084 3056 2656 
Q 3513 2228 3513 1497 
Q 3513 744 3044 326 
Q 2575 -91 1722 -91 
Q 1428 -91 1123 -41 
Q 819 9 494 109 
L 494 744 
Q 775 591 1075 516 
Q 1375 441 1709 441 
Q 2250 441 2565 725 
Q 2881 1009 2881 1497 
Q 2881 1984 2565 2268 
Q 2250 2553 1709 2553 
Q 1456 2553 1204 2497 
Q 953 2441 691 2322 
L 691 4666 
z
" transform="scale(0.015625)"/>
       </defs>
       <use xlink:href="#DejaVuSans-32"/>
       <use xlink:href="#DejaVuSans-30" x="63.623047"/>
       <use xlink:href="#DejaVuSans-32" x="127.246094"/>
       <use xlink:href="#DejaVuSans-33" x="190.869141"/>
       <use xlink:href="#DejaVuSans-2d" x="254.492188"/>
       <use xlink:href="#DejaVuSans-30" x="290.576172"/>
       <use xlink:href="#DejaVuSans-31" x="354.199219"/>
       <use xlink:href="#DejaVuSans-2d" x="417.822266"/>
       <use xlink:href="#DejaVuSans-31" x="453.90625"/>
       <use xlink:href="#DejaVuSans-35" x="517.529297"/>
      </g>
     </g>
    </g>
    <g id="xtick_3">
     <g id="line2d_3">
      <g>
       <use xlink:href="#mbae84c081f" x="328.420995" y="395.28" style="stroke: #000000; stroke-width: 0.8"/>
      </g>
     </g>
     <g id="text_3">
      <!-- 2023-01-29 -->
      <g transform="translate(243.291967 495.213718) rotate(-45) scale(0.2 -0.2)">
       <defs>
        <path id="DejaVuSans-39" d="M 703 97 
L 703 672 
Q 941 559 1184 500 
Q 1428 441 1663 441 
Q 2288 441 2617 861 
Q 2947 1281 2994 2138 
Q 2813 1869 2534 1725 
Q 2256 1581 1919 1581 
Q 1219 1581 811 2004 
Q 403 2428 403 3163 
Q 403 3881 828 4315 
Q 1253 4750 1959 4750 
Q 2769 4750 3195 4129 
Q 3622 3509 3622 2328 
Q 3622 1225 3098 567 
Q 2575 -91 1691 -91 
Q 1453 -91 1209 -44 
Q 966 3 703 97 
z
M 1959 2075 
Q 2384 2075 2632 2365 
Q 2881 2656 2881 3163 
Q 2881 3666 2632 3958 
Q 2384 4250 1959 4250 
Q 1534 4250 1286 3958 
Q 1038 3666 1038 3163 
Q 1038 2656 1286 2365 
Q 1534 2075 1959 2075 
z
" transform="scale(0.015625)"/>
       </defs>
       <use xlink:href="#DejaVuSans-32"/>
       <use xlink:href="#DejaVuSans-30" x="63.623047"/>
       <use xlink:href="#DejaVuSans-32" x="127.246094"/>
       <use xlink:href="#DejaVuSans-33" x="190.869141"/>
       <use xlink:href="#DejaVuSans-2d" x="254.492188"/>
       <use xlink:href="#DejaVuSans-30" x="290.576172"/>
       <use xlink:href="#DejaVuSans-31" x="354.199219"/>
       <use xlink:href="#DejaVuSans-2d" x="417.822266"/>
       <use xlink:href="#DejaVuSans-32" x="453.90625"/>
       <use xlink:href="#DejaVuSans-39" x="517.529297"/>
      </g>
     </g>
    </g>
    <g id="xtick_4">
     <g id="line2d_4">
      <g>
       <use xlink:href="#mbae84c081f" x="441.094071" y="395.28" style="stroke: #000000; stroke-width: 0.8"/>
      </g>
     </g>
     <g id="text_4">
      <!-- 2023-02-12 -->
      <g transform="translate(355.965044 495.213718) rotate(-45) scale(0.2 -0.2)">
       <use xlink:href="#DejaVuSans-32"/>
       <use xlink:href="#DejaVuSans-30" x="63.623047"/>
       <use xlink:href="#DejaVuSans-32" x="127.246094"/>
       <use xlink:href="#DejaVuSans-33" x="190.869141"/>
       <use xlink:href="#DejaVuSans-2d" x="254.492188"/>
       <use xlink:href="#DejaVuSans-30" x="290.576172"/>
       <use xlink:href="#DejaVuSans-32" x="354.199219"/>
       <use xlink:href="#DejaVuSans-2d" x="417.822266"/>
       <use xlink:href="#DejaVuSans-31" x="453.90625"/>
       <use xlink:href="#DejaVuSans-32" x="517.529297"/>
      </g>
     </g>
    </g>
    <g id="xtick_5">
     <g id="line2d_5">
      <g>
       <use xlink:href="#mbae84c081f" x="553.767148" y="395.28" style="stroke: #000000; stroke-width: 0.8"/>
      </g>
     </g>
     <g id="text_5">
      <!-- 2023-02-26 -->
      <g transform="translate(468.638121 495.213718) rotate(-45) scale(0.2 -0.2)">
       <defs>
        <path id="DejaVuSans-36" d="M 2113 2584 
Q 1688 2584 1439 2293 
Q 1191 2003 1191 1497 
Q 1191 994 1439 701 
Q 1688 409 2113 409 
Q 2538 409 2786 701 
Q 3034 994 3034 1497 
Q 3034 2003 2786 2293 
Q 2538 2584 2113 2584 
z
M 3366 4563 
L 3366 3988 
Q 3128 4100 2886 4159 
Q 2644 4219 2406 4219 
Q 1781 4219 1451 3797 
Q 1122 3375 1075 2522 
Q 1259 2794 1537 2939 
Q 1816 3084 2150 3084 
Q 2853 3084 3261 2657 
Q 3669 2231 3669 1497 
Q 3669 778 3244 343 
Q 2819 -91 2113 -91 
Q 1303 -91 875 529 
Q 447 1150 447 2328 
Q 447 3434 972 4092 
Q 1497 4750 2381 4750 
Q 2619 4750 2861 4703 
Q 3103 4656 3366 4563 
z
" transform="scale(0.015625)"/>
       </defs>
       <use xlink:href="#DejaVuSans-32"/>
       <use xlink:href="#DejaVuSans-30" x="63.623047"/>
       <use xlink:href="#DejaVuSans-32" x="127.246094"/>
       <use xlink:href="#DejaVuSans-33" x="190.869141"/>
       <use xlink:href="#DejaVuSans-2d" x="254.492188"/>
       <use xlink:href="#DejaVuSans-30" x="290.576172"/>
       <use xlink:href="#DejaVuSans-32" x="354.199219"/>
       <use xlink:href="#DejaVuSans-2d" x="417.822266"/>
       <use xlink:href="#DejaVuSans-32" x="453.90625"/>
       <use xlink:href="#DejaVuSans-36" x="517.529297"/>
      </g>
     </g>
    </g>
    <g id="xtick_6">
     <g id="line2d_6">
      <g>
       <use xlink:href="#mbae84c081f" x="666.440225" y="395.28" style="stroke: #000000; stroke-width: 0.8"/>
      </g>
     </g>
     <g id="text_6">
      <!-- 2023-03-12 -->
      <g transform="translate(581.311198 495.213718) rotate(-45) scale(0.2 -0.2)">
       <use xlink:href="#DejaVuSans-32"/>
       <use xlink:href="#DejaVuSans-30" x="63.623047"/>
       <use xlink:href="#DejaVuSans-32" x="127.246094"/>
       <use xlink:href="#DejaVuSans-33" x="190.869141"/>
       <use xlink:href="#DejaVuSans-2d" x="254.492188"/>
       <use xlink:href="#DejaVuSans-30" x="290.576172"/>
       <use xlink:href="#DejaVuSans-33" x="354.199219"/>
       <use xlink:href="#DejaVuSans-2d" x="417.822266"/>
       <use xlink:href="#DejaVuSans-31" x="453.90625"/>
       <use xlink:href="#DejaVuSans-32" x="517.529297"/>
      </g>
     </g>
    </g>
    <g id="xtick_7">
     <g id="line2d_7">
      <g>
       <use xlink:href="#mbae84c081f" x="779.113302" y="395.28" style="stroke: #000000; stroke-width: 0.8"/>
      </g>
     </g>
     <g id="text_7">
      <!-- 2023-03-26 -->
      <g transform="translate(693.984275 495.213718) rotate(-45) scale(0.2 -0.2)">
       <use xlink:href="#DejaVuSans-32"/>
       <use xlink:href="#DejaVuSans-30" x="63.623047"/>
       <use xlink:href="#DejaVuSans-32" x="127.246094"/>
       <use xlink:href="#DejaVuSans-33" x="190.869141"/>
       <use xlink:href="#DejaVuSans-2d" x="254.492188"/>
       <use xlink:href="#DejaVuSans-30" x="290.576172"/>
       <use xlink:href="#DejaVuSans-33" x="354.199219"/>
       <use xlink:href="#DejaVuSans-2d" x="417.822266"/>
       <use xlink:href="#DejaVuSans-32" x="453.90625"/>
       <use xlink:href="#DejaVuSans-36" x="517.529297"/>
      </g>
     </g>
    </g>
    <g id="xtick_8">
     <g id="line2d_8">
      <g>
       <use xlink:href="#mbae84c081f" x="891.786379" y="395.28" style="stroke: #000000; stroke-width: 0.8"/>
      </g>
     </g>
     <g id="text_8">
      <!-- 2023-04-09 -->
      <g transform="translate(806.657352 495.213718) rotate(-45) scale(0.2 -0.2)">
       <defs>
        <path id="DejaVuSans-34" d="M 2419 4116 
L 825 1625 
L 2419 1625 
L 2419 4116 
z
M 2253 4666 
L 3047 4666 
L 3047 1625 
L 3713 1625 
L 3713 1100 
L 3047 1100 
L 3047 0 
L 2419 0 
L 2419 1100 
L 313 1100 
L 313 1709 
L 2253 4666 
z
" transform="scale(0.015625)"/>
       </defs>
       <use xlink:href="#DejaVuSans-32"/>
       <use xlink:href="#DejaVuSans-30" x="63.623047"/>
       <use xlink:href="#DejaVuSans-32" x="127.246094"/>
       <use xlink:href="#DejaVuSans-33" x="190.869141"/>
       <use xlink:href="#DejaVuSans-2d" x="254.492188"/>
       <use xlink:href="#DejaVuSans-30" x="290.576172"/>
       <use xlink:href="#DejaVuSans-34" x="354.199219"/>
       <use xlink:href="#DejaVuSans-2d" x="417.822266"/>
       <use xlink:href="#DejaVuSans-30" x="453.90625"/>
       <use xlink:href="#DejaVuSans-39" x="517.529297"/>
      </g>
     </g>
    </g>
    <g id="xtick_9">
     <g id="line2d_9">
      <g>
       <use xlink:href="#mbae84c081f" x="940.074841" y="395.28" style="stroke: #000000; stroke-width: 0.8"/>
      </g>
     </g>
     <g id="text_9">
      <!-- 2023-04-15 -->
      <g transform="translate(854.945813 495.213718) rotate(-45) scale(0.2 -0.2)">
       <use xlink:href="#DejaVuSans-32"/>
       <use xlink:href="#DejaVuSans-30" x="63.623047"/>
       <use xlink:href="#DejaVuSans-32" x="127.246094"/>
       <use xlink:href="#DejaVuSans-33" x="190.869141"/>
       <use xlink:href="#DejaVuSans-2d" x="254.492188"/>
       <use xlink:href="#DejaVuSans-30" x="290.576172"/>
       <use xlink:href="#DejaVuSans-34" x="354.199219"/>
       <use xlink:href="#DejaVuSans-2d" x="417.822266"/>
       <use xlink:href="#DejaVuSans-31" x="453.90625"/>
       <use xlink:href="#DejaVuSans-35" x="517.529297"/>
      </g>
     </g>
    </g>
   </g>
   <g id="matplotlib.axis_2">
    <g id="ytick_1">
     <g id="line2d_10">
      <defs>
       <path id="m681785663c" d="M 0 0 
L -3.5 0 
" style="stroke: #000000; stroke-width: 0.8"/>
      </defs>
      <g>
       <use xlink:href="#m681785663c" x="103.074841" y="387.628295" style="stroke: #000000; stroke-width: 0.8"/>
      </g>
     </g>
     <g id="text_10">
      <!-- −0.05 -->
      <g transform="translate(34.784216 395.226733) scale(0.2 -0.2)">
       <defs>
        <path id="DejaVuSans-2212" d="M 678 2272 
L 4684 2272 
L 4684 1741 
L 678 1741 
L 678 2272 
z
" transform="scale(0.015625)"/>
        <path id="DejaVuSans-2e" d="M 684 794 
L 1344 794 
L 1344 0 
L 684 0 
L 684 794 
z
" transform="scale(0.015625)"/>
       </defs>
       <use xlink:href="#DejaVuSans-2212"/>
       <use xlink:href="#DejaVuSans-30" x="83.789062"/>
       <use xlink:href="#DejaVuSans-2e" x="147.412109"/>
       <use xlink:href="#DejaVuSans-30" x="179.199219"/>
       <use xlink:href="#DejaVuSans-35" x="242.822266"/>
      </g>
     </g>
    </g>
    <g id="ytick_2">
     <g id="line2d_11">
      <g>
       <use xlink:href="#m681785663c" x="103.074841" y="311.111249" style="stroke: #000000; stroke-width: 0.8"/>
      </g>
     </g>
     <g id="text_11">
      <!-- 0.00 -->
      <g transform="translate(51.543591 318.709686) scale(0.2 -0.2)">
       <use xlink:href="#DejaVuSans-30"/>
       <use xlink:href="#DejaVuSans-2e" x="63.623047"/>
       <use xlink:href="#DejaVuSans-30" x="95.410156"/>
       <use xlink:href="#DejaVuSans-30" x="159.033203"/>
      </g>
     </g>
    </g>
    <g id="ytick_3">
     <g id="line2d_12">
      <g>
       <use xlink:href="#m681785663c" x="103.074841" y="234.594202" style="stroke: #000000; stroke-width: 0.8"/>
      </g>
     </g>
     <g id="text_12">
      <!-- 0.05 -->
      <g transform="translate(51.543591 242.19264) scale(0.2 -0.2)">
       <use xlink:href="#DejaVuSans-30"/>
       <use xlink:href="#DejaVuSans-2e" x="63.623047"/>
       <use xlink:href="#DejaVuSans-30" x="95.410156"/>
       <use xlink:href="#DejaVuSans-35" x="159.033203"/>
      </g>
     </g>
    </g>
    <g id="ytick_4">
     <g id="line2d_13">
      <g>
       <use xlink:href="#m681785663c" x="103.074841" y="158.077155" style="stroke: #000000; stroke-width: 0.8"/>
      </g>
     </g>
     <g id="text_13">
      <!-- 0.10 -->
      <g transform="translate(51.543591 165.675593) scale(0.2 -0.2)">
       <use xlink:href="#DejaVuSans-30"/>
       <use xlink:href="#DejaVuSans-2e" x="63.623047"/>
       <use xlink:href="#DejaVuSans-31" x="95.410156"/>
       <use xlink:href="#DejaVuSans-30" x="159.033203"/>
      </g>
     </g>
    </g>
    <g id="ytick_5">
     <g id="line2d_14">
      <g>
       <use xlink:href="#m681785663c" x="103.074841" y="81.560109" style="stroke: #000000; stroke-width: 0.8"/>
      </g>
     </g>
     <g id="text_14">
      <!-- 0.15 -->
      <g transform="translate(51.543591 89.158546) scale(0.2 -0.2)">
       <use xlink:href="#DejaVuSans-30"/>
       <use xlink:href="#DejaVuSans-2e" x="63.623047"/>
       <use xlink:href="#DejaVuSans-31" x="95.410156"/>
       <use xlink:href="#DejaVuSans-35" x="159.033203"/>
      </g>
     </g>
    </g>
    <g id="text_15">
     <!-- Relative fitness $\gamma_y$ -->
     <g transform="translate(24.584216 291.84) rotate(-90) scale(0.2 -0.2)">
      <defs>
       <path id="DejaVuSans-52" d="M 2841 2188 
Q 3044 2119 3236 1894 
Q 3428 1669 3622 1275 
L 4263 0 
L 3584 0 
L 2988 1197 
Q 2756 1666 2539 1819 
Q 2322 1972 1947 1972 
L 1259 1972 
L 1259 0 
L 628 0 
L 628 4666 
L 2053 4666 
Q 2853 4666 3247 4331 
Q 3641 3997 3641 3322 
Q 3641 2881 3436 2590 
Q 3231 2300 2841 2188 
z
M 1259 4147 
L 1259 2491 
L 2053 2491 
Q 2509 2491 2742 2702 
Q 2975 2913 2975 3322 
Q 2975 3731 2742 3939 
Q 2509 4147 2053 4147 
L 1259 4147 
z
" transform="scale(0.015625)"/>
       <path id="DejaVuSans-65" d="M 3597 1894 
L 3597 1613 
L 953 1613 
Q 991 1019 1311 708 
Q 1631 397 2203 397 
Q 2534 397 2845 478 
Q 3156 559 3463 722 
L 3463 178 
Q 3153 47 2828 -22 
Q 2503 -91 2169 -91 
Q 1331 -91 842 396 
Q 353 884 353 1716 
Q 353 2575 817 3079 
Q 1281 3584 2069 3584 
Q 2775 3584 3186 3129 
Q 3597 2675 3597 1894 
z
M 3022 2063 
Q 3016 2534 2758 2815 
Q 2500 3097 2075 3097 
Q 1594 3097 1305 2825 
Q 1016 2553 972 2059 
L 3022 2063 
z
" transform="scale(0.015625)"/>
       <path id="DejaVuSans-6c" d="M 603 4863 
L 1178 4863 
L 1178 0 
L 603 0 
L 603 4863 
z
" transform="scale(0.015625)"/>
       <path id="DejaVuSans-61" d="M 2194 1759 
Q 1497 1759 1228 1600 
Q 959 1441 959 1056 
Q 959 750 1161 570 
Q 1363 391 1709 391 
Q 2188 391 2477 730 
Q 2766 1069 2766 1631 
L 2766 1759 
L 2194 1759 
z
M 3341 1997 
L 3341 0 
L 2766 0 
L 2766 531 
Q 2569 213 2275 61 
Q 1981 -91 1556 -91 
Q 1019 -91 701 211 
Q 384 513 384 1019 
Q 384 1609 779 1909 
Q 1175 2209 1959 2209 
L 2766 2209 
L 2766 2266 
Q 2766 2663 2505 2880 
Q 2244 3097 1772 3097 
Q 1472 3097 1187 3025 
Q 903 2953 641 2809 
L 641 3341 
Q 956 3463 1253 3523 
Q 1550 3584 1831 3584 
Q 2591 3584 2966 3190 
Q 3341 2797 3341 1997 
z
" transform="scale(0.015625)"/>
       <path id="DejaVuSans-74" d="M 1172 4494 
L 1172 3500 
L 2356 3500 
L 2356 3053 
L 1172 3053 
L 1172 1153 
Q 1172 725 1289 603 
Q 1406 481 1766 481 
L 2356 481 
L 2356 0 
L 1766 0 
Q 1100 0 847 248 
Q 594 497 594 1153 
L 594 3053 
L 172 3053 
L 172 3500 
L 594 3500 
L 594 4494 
L 1172 4494 
z
" transform="scale(0.015625)"/>
       <path id="DejaVuSans-69" d="M 603 3500 
L 1178 3500 
L 1178 0 
L 603 0 
L 603 3500 
z
M 603 4863 
L 1178 4863 
L 1178 4134 
L 603 4134 
L 603 4863 
z
" transform="scale(0.015625)"/>
       <path id="DejaVuSans-76" d="M 191 3500 
L 800 3500 
L 1894 563 
L 2988 3500 
L 3597 3500 
L 2284 0 
L 1503 0 
L 191 3500 
z
" transform="scale(0.015625)"/>
       <path id="DejaVuSans-20" transform="scale(0.015625)"/>
       <path id="DejaVuSans-66" d="M 2375 4863 
L 2375 4384 
L 1825 4384 
Q 1516 4384 1395 4259 
Q 1275 4134 1275 3809 
L 1275 3500 
L 2222 3500 
L 2222 3053 
L 1275 3053 
L 1275 0 
L 697 0 
L 697 3053 
L 147 3053 
L 147 3500 
L 697 3500 
L 697 3744 
Q 697 4328 969 4595 
Q 1241 4863 1831 4863 
L 2375 4863 
z
" transform="scale(0.015625)"/>
       <path id="DejaVuSans-6e" d="M 3513 2113 
L 3513 0 
L 2938 0 
L 2938 2094 
Q 2938 2591 2744 2837 
Q 2550 3084 2163 3084 
Q 1697 3084 1428 2787 
Q 1159 2491 1159 1978 
L 1159 0 
L 581 0 
L 581 3500 
L 1159 3500 
L 1159 2956 
Q 1366 3272 1645 3428 
Q 1925 3584 2291 3584 
Q 2894 3584 3203 3211 
Q 3513 2838 3513 2113 
z
" transform="scale(0.015625)"/>
       <path id="DejaVuSans-73" d="M 2834 3397 
L 2834 2853 
Q 2591 2978 2328 3040 
Q 2066 3103 1784 3103 
Q 1356 3103 1142 2972 
Q 928 2841 928 2578 
Q 928 2378 1081 2264 
Q 1234 2150 1697 2047 
L 1894 2003 
Q 2506 1872 2764 1633 
Q 3022 1394 3022 966 
Q 3022 478 2636 193 
Q 2250 -91 1575 -91 
Q 1294 -91 989 -36 
Q 684 19 347 128 
L 347 722 
Q 666 556 975 473 
Q 1284 391 1588 391 
Q 1994 391 2212 530 
Q 2431 669 2431 922 
Q 2431 1156 2273 1281 
Q 2116 1406 1581 1522 
L 1381 1569 
Q 847 1681 609 1914 
Q 372 2147 372 2553 
Q 372 3047 722 3315 
Q 1072 3584 1716 3584 
Q 2034 3584 2315 3537 
Q 2597 3491 2834 3397 
z
" transform="scale(0.015625)"/>
       <path id="DejaVuSans-Oblique-3b3" d="M 1491 2950 
L 1838 788 
L 3456 3500 
L 4066 3500 
L 1972 0 
L 1713 -1331 
L 1138 -1331 
L 1397 0 
L 988 2613 
Q 925 3006 628 3006 
L 475 3006 
L 569 3500 
L 788 3500 
Q 1403 3500 1491 2950 
z
" transform="scale(0.015625)"/>
       <path id="DejaVuSans-Oblique-79" d="M 1588 -325 
Q 1188 -997 936 -1164 
Q 684 -1331 294 -1331 
L -159 -1331 
L -63 -850 
L 269 -850 
Q 509 -850 678 -719 
Q 847 -588 1056 -206 
L 1234 128 
L 459 3500 
L 1069 3500 
L 1650 819 
L 3256 3500 
L 3859 3500 
L 1588 -325 
z
" transform="scale(0.015625)"/>
      </defs>
      <use xlink:href="#DejaVuSans-52" transform="translate(0 0.015625)"/>
      <use xlink:href="#DejaVuSans-65" transform="translate(69.482422 0.015625)"/>
      <use xlink:href="#DejaVuSans-6c" transform="translate(131.005859 0.015625)"/>
      <use xlink:href="#DejaVuSans-61" transform="translate(158.789062 0.015625)"/>
      <use xlink:href="#DejaVuSans-74" transform="translate(220.068359 0.015625)"/>
      <use xlink:href="#DejaVuSans-69" transform="translate(259.277344 0.015625)"/>
      <use xlink:href="#DejaVuSans-76" transform="translate(287.060547 0.015625)"/>
      <use xlink:href="#DejaVuSans-65" transform="translate(346.240234 0.015625)"/>
      <use xlink:href="#DejaVuSans-20" transform="translate(407.763672 0.015625)"/>
      <use xlink:href="#DejaVuSans-66" transform="translate(439.550781 0.015625)"/>
      <use xlink:href="#DejaVuSans-69" transform="translate(474.755859 0.015625)"/>
      <use xlink:href="#DejaVuSans-74" transform="translate(502.539062 0.015625)"/>
      <use xlink:href="#DejaVuSans-6e" transform="translate(541.748047 0.015625)"/>
      <use xlink:href="#DejaVuSans-65" transform="translate(605.126953 0.015625)"/>
      <use xlink:href="#DejaVuSans-73" transform="translate(666.650391 0.015625)"/>
      <use xlink:href="#DejaVuSans-73" transform="translate(718.75 0.015625)"/>
      <use xlink:href="#DejaVuSans-20" transform="translate(770.849609 0.015625)"/>
      <use xlink:href="#DejaVuSans-Oblique-3b3" transform="translate(802.636719 0.015625)"/>
      <use xlink:href="#DejaVuSans-Oblique-79" transform="translate(861.816406 -16.390625) scale(0.7)"/>
     </g>
    </g>
   </g>
   <g id="line2d_15">
    <path d="M 103.074841 311.111249 
L 1273.252966 311.111249 
" clip-path="url(#p58d11a58cb)" style="fill: none; stroke-dasharray: 7.4,3.2; stroke-dashoffset: 0; stroke: #000000; stroke-width: 2"/>
   </g>
   <g id="patch_3">
    <path d="M 103.074841 395.28 
L 103.074841 7.2 
" style="fill: none; stroke: #000000; stroke-width: 0.8; stroke-linejoin: miter; stroke-linecap: square"/>
   </g>
   <g id="patch_4">
    <path d="M 940.074841 395.28 
L 940.074841 7.2 
" style="fill: none; stroke: #000000; stroke-width: 0.8; stroke-linejoin: miter; stroke-linecap: square"/>
   </g>
   <g id="patch_5">
    <path d="M 103.074841 395.28 
L 940.074841 395.28 
" style="fill: none; stroke: #000000; stroke-width: 0.8; stroke-linejoin: miter; stroke-linecap: square"/>
   </g>
   <g id="patch_6">
    <path d="M 103.074841 7.2 
L 940.074841 7.2 
" style="fill: none; stroke: #000000; stroke-width: 0.8; stroke-linejoin: miter; stroke-linecap: square"/>
   </g>
   <g id="legend_1">
    <g id="patch_7">
     <path d="M 1111.474841 395.28 
L 1261.052966 395.28 
Q 1265.052966 395.28 1265.052966 391.28 
L 1265.052966 363.3675 
Q 1265.052966 359.3675 1261.052966 359.3675 
L 1111.474841 359.3675 
Q 1107.474841 359.3675 1107.474841 363.3675 
L 1107.474841 391.28 
Q 1107.474841 395.28 1111.474841 395.28 
z
" style="fill: #ffffff; opacity: 0.8; stroke: #cccccc; stroke-linejoin: miter"/>
    </g>
    <g id="patch_8">
     <path d="M 1115.474841 382.564375 
L 1155.474841 382.564375 
L 1155.474841 368.564375 
L 1115.474841 368.564375 
z
" style="fill: #008000; fill-opacity: 0.3; stroke: #008000; stroke-opacity: 0.3; stroke-linejoin: miter"/>
    </g>
    <g id="text_16">
     <!-- BA_2_86 -->
     <g transform="translate(1171.474841 382.564375) scale(0.2 -0.2)">
      <defs>
       <path id="DejaVuSans-42" d="M 1259 2228 
L 1259 519 
L 2272 519 
Q 2781 519 3026 730 
Q 3272 941 3272 1375 
Q 3272 1813 3026 2020 
Q 2781 2228 2272 2228 
L 1259 2228 
z
M 1259 4147 
L 1259 2741 
L 2194 2741 
Q 2656 2741 2882 2914 
Q 3109 3088 3109 3444 
Q 3109 3797 2882 3972 
Q 2656 4147 2194 4147 
L 1259 4147 
z
M 628 4666 
L 2241 4666 
Q 2963 4666 3353 4366 
Q 3744 4066 3744 3513 
Q 3744 3084 3544 2831 
Q 3344 2578 2956 2516 
Q 3422 2416 3680 2098 
Q 3938 1781 3938 1306 
Q 3938 681 3513 340 
Q 3088 0 2303 0 
L 628 0 
L 628 4666 
z
" transform="scale(0.015625)"/>
       <path id="DejaVuSans-41" d="M 2188 4044 
L 1331 1722 
L 3047 1722 
L 2188 4044 
z
M 1831 4666 
L 2547 4666 
L 4325 0 
L 3669 0 
L 3244 1197 
L 1141 1197 
L 716 0 
L 50 0 
L 1831 4666 
z
" transform="scale(0.015625)"/>
       <path id="DejaVuSans-5f" d="M 3263 -1063 
L 3263 -1509 
L -63 -1509 
L -63 -1063 
L 3263 -1063 
z
" transform="scale(0.015625)"/>
       <path id="DejaVuSans-38" d="M 2034 2216 
Q 1584 2216 1326 1975 
Q 1069 1734 1069 1313 
Q 1069 891 1326 650 
Q 1584 409 2034 409 
Q 2484 409 2743 651 
Q 3003 894 3003 1313 
Q 3003 1734 2745 1975 
Q 2488 2216 2034 2216 
z
M 1403 2484 
Q 997 2584 770 2862 
Q 544 3141 544 3541 
Q 544 4100 942 4425 
Q 1341 4750 2034 4750 
Q 2731 4750 3128 4425 
Q 3525 4100 3525 3541 
Q 3525 3141 3298 2862 
Q 3072 2584 2669 2484 
Q 3125 2378 3379 2068 
Q 3634 1759 3634 1313 
Q 3634 634 3220 271 
Q 2806 -91 2034 -91 
Q 1263 -91 848 271 
Q 434 634 434 1313 
Q 434 1759 690 2068 
Q 947 2378 1403 2484 
z
M 1172 3481 
Q 1172 3119 1398 2916 
Q 1625 2713 2034 2713 
Q 2441 2713 2670 2916 
Q 2900 3119 2900 3481 
Q 2900 3844 2670 4047 
Q 2441 4250 2034 4250 
Q 1625 4250 1398 4047 
Q 1172 3844 1172 3481 
z
" transform="scale(0.015625)"/>
      </defs>
      <use xlink:href="#DejaVuSans-42"/>
      <use xlink:href="#DejaVuSans-41" x="68.603516"/>
      <use xlink:href="#DejaVuSans-5f" x="137.011719"/>
      <use xlink:href="#DejaVuSans-32" x="187.011719"/>
      <use xlink:href="#DejaVuSans-5f" x="250.634766"/>
      <use xlink:href="#DejaVuSans-38" x="300.634766"/>
      <use xlink:href="#DejaVuSans-36" x="364.257812"/>
     </g>
    </g>
   </g>
  </g>
  <g id="axes_2">
   <g id="matplotlib.axis_3">
    <g id="ytick_6">
     <g id="line2d_16">
      <defs>
       <path id="m6a796b7fe2" d="M 0 0 
L 3.5 0 
" style="stroke: #000000; stroke-width: 0.8"/>
      </defs>
      <g>
       <use xlink:href="#m6a796b7fe2" x="940.074841" y="387.628295" style="stroke: #000000; stroke-width: 0.8"/>
      </g>
     </g>
     <g id="text_17">
      <!-- −0.05 -->
      <g transform="translate(947.074841 395.226733) scale(0.2 -0.2)">
       <use xlink:href="#DejaVuSans-2212"/>
       <use xlink:href="#DejaVuSans-30" x="83.789062"/>
       <use xlink:href="#DejaVuSans-2e" x="147.412109"/>
       <use xlink:href="#DejaVuSans-30" x="179.199219"/>
       <use xlink:href="#DejaVuSans-35" x="242.822266"/>
      </g>
     </g>
    </g>
    <g id="ytick_7">
     <g id="line2d_17">
      <g>
       <use xlink:href="#m6a796b7fe2" x="940.074841" y="311.111249" style="stroke: #000000; stroke-width: 0.8"/>
      </g>
     </g>
     <g id="text_18">
      <!-- 0.00 -->
      <g transform="translate(947.074841 318.709686) scale(0.2 -0.2)">
       <use xlink:href="#DejaVuSans-30"/>
       <use xlink:href="#DejaVuSans-2e" x="63.623047"/>
       <use xlink:href="#DejaVuSans-30" x="95.410156"/>
       <use xlink:href="#DejaVuSans-30" x="159.033203"/>
      </g>
     </g>
    </g>
    <g id="ytick_8">
     <g id="line2d_18">
      <g>
       <use xlink:href="#m6a796b7fe2" x="940.074841" y="234.594202" style="stroke: #000000; stroke-width: 0.8"/>
      </g>
     </g>
     <g id="text_19">
      <!-- 0.05 -->
      <g transform="translate(947.074841 242.19264) scale(0.2 -0.2)">
       <use xlink:href="#DejaVuSans-30"/>
       <use xlink:href="#DejaVuSans-2e" x="63.623047"/>
       <use xlink:href="#DejaVuSans-30" x="95.410156"/>
       <use xlink:href="#DejaVuSans-35" x="159.033203"/>
      </g>
     </g>
    </g>
    <g id="ytick_9">
     <g id="line2d_19">
      <g>
       <use xlink:href="#m6a796b7fe2" x="940.074841" y="158.077155" style="stroke: #000000; stroke-width: 0.8"/>
      </g>
     </g>
     <g id="text_20">
      <!-- 0.10 -->
      <g transform="translate(947.074841 165.675593) scale(0.2 -0.2)">
       <use xlink:href="#DejaVuSans-30"/>
       <use xlink:href="#DejaVuSans-2e" x="63.623047"/>
       <use xlink:href="#DejaVuSans-31" x="95.410156"/>
       <use xlink:href="#DejaVuSans-30" x="159.033203"/>
      </g>
     </g>
    </g>
    <g id="ytick_10">
     <g id="line2d_20">
      <g>
       <use xlink:href="#m6a796b7fe2" x="940.074841" y="81.560109" style="stroke: #000000; stroke-width: 0.8"/>
      </g>
     </g>
     <g id="text_21">
      <!-- 0.15 -->
      <g transform="translate(947.074841 89.158546) scale(0.2 -0.2)">
       <use xlink:href="#DejaVuSans-30"/>
       <use xlink:href="#DejaVuSans-2e" x="63.623047"/>
       <use xlink:href="#DejaVuSans-31" x="95.410156"/>
       <use xlink:href="#DejaVuSans-35" x="159.033203"/>
      </g>
     </g>
    </g>
    <g id="text_22">
     <!-- Change in proportion $\gamma_{prop}$ -->
     <g transform="translate(1027.565466 332.74) rotate(-90) scale(0.2 -0.2)">
      <defs>
       <path id="DejaVuSans-43" d="M 4122 4306 
L 4122 3641 
Q 3803 3938 3442 4084 
Q 3081 4231 2675 4231 
Q 1875 4231 1450 3742 
Q 1025 3253 1025 2328 
Q 1025 1406 1450 917 
Q 1875 428 2675 428 
Q 3081 428 3442 575 
Q 3803 722 4122 1019 
L 4122 359 
Q 3791 134 3420 21 
Q 3050 -91 2638 -91 
Q 1578 -91 968 557 
Q 359 1206 359 2328 
Q 359 3453 968 4101 
Q 1578 4750 2638 4750 
Q 3056 4750 3426 4639 
Q 3797 4528 4122 4306 
z
" transform="scale(0.015625)"/>
       <path id="DejaVuSans-68" d="M 3513 2113 
L 3513 0 
L 2938 0 
L 2938 2094 
Q 2938 2591 2744 2837 
Q 2550 3084 2163 3084 
Q 1697 3084 1428 2787 
Q 1159 2491 1159 1978 
L 1159 0 
L 581 0 
L 581 4863 
L 1159 4863 
L 1159 2956 
Q 1366 3272 1645 3428 
Q 1925 3584 2291 3584 
Q 2894 3584 3203 3211 
Q 3513 2838 3513 2113 
z
" transform="scale(0.015625)"/>
       <path id="DejaVuSans-67" d="M 2906 1791 
Q 2906 2416 2648 2759 
Q 2391 3103 1925 3103 
Q 1463 3103 1205 2759 
Q 947 2416 947 1791 
Q 947 1169 1205 825 
Q 1463 481 1925 481 
Q 2391 481 2648 825 
Q 2906 1169 2906 1791 
z
M 3481 434 
Q 3481 -459 3084 -895 
Q 2688 -1331 1869 -1331 
Q 1566 -1331 1297 -1286 
Q 1028 -1241 775 -1147 
L 775 -588 
Q 1028 -725 1275 -790 
Q 1522 -856 1778 -856 
Q 2344 -856 2625 -561 
Q 2906 -266 2906 331 
L 2906 616 
Q 2728 306 2450 153 
Q 2172 0 1784 0 
Q 1141 0 747 490 
Q 353 981 353 1791 
Q 353 2603 747 3093 
Q 1141 3584 1784 3584 
Q 2172 3584 2450 3431 
Q 2728 3278 2906 2969 
L 2906 3500 
L 3481 3500 
L 3481 434 
z
" transform="scale(0.015625)"/>
       <path id="DejaVuSans-70" d="M 1159 525 
L 1159 -1331 
L 581 -1331 
L 581 3500 
L 1159 3500 
L 1159 2969 
Q 1341 3281 1617 3432 
Q 1894 3584 2278 3584 
Q 2916 3584 3314 3078 
Q 3713 2572 3713 1747 
Q 3713 922 3314 415 
Q 2916 -91 2278 -91 
Q 1894 -91 1617 61 
Q 1341 213 1159 525 
z
M 3116 1747 
Q 3116 2381 2855 2742 
Q 2594 3103 2138 3103 
Q 1681 3103 1420 2742 
Q 1159 2381 1159 1747 
Q 1159 1113 1420 752 
Q 1681 391 2138 391 
Q 2594 391 2855 752 
Q 3116 1113 3116 1747 
z
" transform="scale(0.015625)"/>
       <path id="DejaVuSans-72" d="M 2631 2963 
Q 2534 3019 2420 3045 
Q 2306 3072 2169 3072 
Q 1681 3072 1420 2755 
Q 1159 2438 1159 1844 
L 1159 0 
L 581 0 
L 581 3500 
L 1159 3500 
L 1159 2956 
Q 1341 3275 1631 3429 
Q 1922 3584 2338 3584 
Q 2397 3584 2469 3576 
Q 2541 3569 2628 3553 
L 2631 2963 
z
" transform="scale(0.015625)"/>
       <path id="DejaVuSans-6f" d="M 1959 3097 
Q 1497 3097 1228 2736 
Q 959 2375 959 1747 
Q 959 1119 1226 758 
Q 1494 397 1959 397 
Q 2419 397 2687 759 
Q 2956 1122 2956 1747 
Q 2956 2369 2687 2733 
Q 2419 3097 1959 3097 
z
M 1959 3584 
Q 2709 3584 3137 3096 
Q 3566 2609 3566 1747 
Q 3566 888 3137 398 
Q 2709 -91 1959 -91 
Q 1206 -91 779 398 
Q 353 888 353 1747 
Q 353 2609 779 3096 
Q 1206 3584 1959 3584 
z
" transform="scale(0.015625)"/>
       <path id="DejaVuSans-Oblique-70" d="M 3175 2156 
Q 3175 2616 2975 2859 
Q 2775 3103 2400 3103 
Q 2144 3103 1911 2972 
Q 1678 2841 1497 2591 
Q 1319 2344 1212 1994 
Q 1106 1644 1106 1300 
Q 1106 863 1306 627 
Q 1506 391 1875 391 
Q 2147 391 2380 519 
Q 2613 647 2778 891 
Q 2956 1147 3065 1494 
Q 3175 1841 3175 2156 
z
M 1394 2969 
Q 1625 3272 1939 3428 
Q 2253 3584 2638 3584 
Q 3175 3584 3472 3232 
Q 3769 2881 3769 2247 
Q 3769 1728 3584 1258 
Q 3400 788 3053 416 
Q 2822 169 2531 39 
Q 2241 -91 1919 -91 
Q 1547 -91 1294 64 
Q 1041 219 916 525 
L 556 -1331 
L -19 -1331 
L 922 3500 
L 1497 3500 
L 1394 2969 
z
" transform="scale(0.015625)"/>
       <path id="DejaVuSans-Oblique-72" d="M 2853 2969 
Q 2766 3016 2653 3041 
Q 2541 3066 2413 3066 
Q 1953 3066 1609 2717 
Q 1266 2369 1153 1784 
L 800 0 
L 225 0 
L 909 3500 
L 1484 3500 
L 1375 2956 
Q 1603 3259 1920 3421 
Q 2238 3584 2597 3584 
Q 2691 3584 2781 3573 
Q 2872 3563 2963 3538 
L 2853 2969 
z
" transform="scale(0.015625)"/>
       <path id="DejaVuSans-Oblique-6f" d="M 1625 -91 
Q 1009 -91 651 289 
Q 294 669 294 1325 
Q 294 1706 417 2101 
Q 541 2497 738 2766 
Q 1047 3184 1428 3384 
Q 1809 3584 2291 3584 
Q 2888 3584 3255 3212 
Q 3622 2841 3622 2241 
Q 3622 1825 3500 1412 
Q 3378 1000 3181 728 
Q 2875 309 2494 109 
Q 2113 -91 1625 -91 
z
M 891 1344 
Q 891 869 1089 633 
Q 1288 397 1691 397 
Q 2269 397 2648 901 
Q 3028 1406 3028 2181 
Q 3028 2634 2825 2865 
Q 2622 3097 2228 3097 
Q 1903 3097 1650 2945 
Q 1397 2794 1197 2484 
Q 1050 2253 970 1956 
Q 891 1659 891 1344 
z
" transform="scale(0.015625)"/>
      </defs>
      <use xlink:href="#DejaVuSans-43" transform="translate(0 0.015625)"/>
      <use xlink:href="#DejaVuSans-68" transform="translate(69.824219 0.015625)"/>
      <use xlink:href="#DejaVuSans-61" transform="translate(133.203125 0.015625)"/>
      <use xlink:href="#DejaVuSans-6e" transform="translate(194.482422 0.015625)"/>
      <use xlink:href="#DejaVuSans-67" transform="translate(257.861328 0.015625)"/>
      <use xlink:href="#DejaVuSans-65" transform="translate(321.337891 0.015625)"/>
      <use xlink:href="#DejaVuSans-20" transform="translate(382.861328 0.015625)"/>
      <use xlink:href="#DejaVuSans-69" transform="translate(414.648438 0.015625)"/>
      <use xlink:href="#DejaVuSans-6e" transform="translate(442.431641 0.015625)"/>
      <use xlink:href="#DejaVuSans-20" transform="translate(505.810547 0.015625)"/>
      <use xlink:href="#DejaVuSans-70" transform="translate(537.597656 0.015625)"/>
      <use xlink:href="#DejaVuSans-72" transform="translate(601.074219 0.015625)"/>
      <use xlink:href="#DejaVuSans-6f" transform="translate(642.1875 0.015625)"/>
      <use xlink:href="#DejaVuSans-70" transform="translate(703.369141 0.015625)"/>
      <use xlink:href="#DejaVuSans-6f" transform="translate(766.845703 0.015625)"/>
      <use xlink:href="#DejaVuSans-72" transform="translate(828.027344 0.015625)"/>
      <use xlink:href="#DejaVuSans-74" transform="translate(869.140625 0.015625)"/>
      <use xlink:href="#DejaVuSans-69" transform="translate(908.349609 0.015625)"/>
      <use xlink:href="#DejaVuSans-6f" transform="translate(936.132812 0.015625)"/>
      <use xlink:href="#DejaVuSans-6e" transform="translate(997.314453 0.015625)"/>
      <use xlink:href="#DejaVuSans-20" transform="translate(1060.693359 0.015625)"/>
      <use xlink:href="#DejaVuSans-Oblique-3b3" transform="translate(1092.480469 0.015625)"/>
      <use xlink:href="#DejaVuSans-Oblique-70" transform="translate(1151.660156 -16.390625) scale(0.7)"/>
      <use xlink:href="#DejaVuSans-Oblique-72" transform="translate(1196.09375 -16.390625) scale(0.7)"/>
      <use xlink:href="#DejaVuSans-Oblique-6f" transform="translate(1224.873047 -16.390625) scale(0.7)"/>
      <use xlink:href="#DejaVuSans-Oblique-70" transform="translate(1267.700195 -16.390625) scale(0.7)"/>
     </g>
    </g>
   </g>
   <g id="line2d_21">
    <path d="M 0 0 
" clip-path="url(#p58d11a58cb)" style="fill: none; stroke: #66c2a5; stroke-width: 4; stroke-linecap: square"/>
   </g>
   <g id="patch_9">
    <path d="M 103.074841 395.28 
L 103.074841 7.2 
" style="fill: none; stroke: #000000; stroke-width: 0.8; stroke-linejoin: miter; stroke-linecap: square"/>
   </g>
   <g id="patch_10">
    <path d="M 940.074841 395.28 
L 940.074841 7.2 
" style="fill: none; stroke: #000000; stroke-width: 0.8; stroke-linejoin: miter; stroke-linecap: square"/>
   </g>
   <g id="patch_11">
    <path d="M 103.074841 395.28 
L 940.074841 395.28 
" style="fill: none; stroke: #000000; stroke-width: 0.8; stroke-linejoin: miter; stroke-linecap: square"/>
   </g>
   <g id="patch_12">
    <path d="M 103.074841 7.2 
L 940.074841 7.2 
" style="fill: none; stroke: #000000; stroke-width: 0.8; stroke-linejoin: miter; stroke-linecap: square"/>
   </g>
   <g id="legend_2">
    <g id="patch_13">
     <path d="M 1111.474841 395.28 
L 1261.052966 395.28 
Q 1265.052966 395.28 1265.052966 391.28 
L 1265.052966 363.3675 
Q 1265.052966 359.3675 1261.052966 359.3675 
L 1111.474841 359.3675 
Q 1107.474841 359.3675 1107.474841 363.3675 
L 1107.474841 391.28 
Q 1107.474841 395.28 1111.474841 395.28 
z
" style="fill: #ffffff; opacity: 0.8; stroke: #cccccc; stroke-linejoin: miter"/>
    </g>
    <g id="line2d_22">
     <path d="M 1115.474841 375.564375 
L 1135.474841 375.564375 
L 1155.474841 375.564375 
" style="fill: none; stroke: #66c2a5; stroke-width: 4; stroke-linecap: square"/>
    </g>
    <g id="text_23">
     <!-- BA_2_86 -->
     <g transform="translate(1171.474841 382.564375) scale(0.2 -0.2)">
      <use xlink:href="#DejaVuSans-42"/>
      <use xlink:href="#DejaVuSans-41" x="68.603516"/>
      <use xlink:href="#DejaVuSans-5f" x="137.011719"/>
      <use xlink:href="#DejaVuSans-32" x="187.011719"/>
      <use xlink:href="#DejaVuSans-5f" x="250.634766"/>
      <use xlink:href="#DejaVuSans-38" x="300.634766"/>
      <use xlink:href="#DejaVuSans-36" x="364.257812"/>
     </g>
    </g>
   </g>
  </g>
 </g>
 <defs>
  <clipPath id="p58d11a58cb">
   <rect x="103.074841" y="7.2" width="837" height="388.08"/>
  </clipPath>
 </defs>
</svg>
