<?xml version="1.0" encoding="utf-8" standalone="no"?>
<!DOCTYPE svg PUBLIC "-//W3C//DTD SVG 1.1//EN"
  "http://www.w3.org/Graphics/SVG/1.1/DTD/svg11.dtd">
<svg xmlns:xlink="http://www.w3.org/1999/xlink" width="938.86125pt" height="473.389375pt" viewBox="0 0 938.86125 473.389375" xmlns="http://www.w3.org/2000/svg" version="1.1">
 <metadata>
  <rdf:RDF xmlns:dc="http://purl.org/dc/elements/1.1/" xmlns:cc="http://creativecommons.org/ns#" xmlns:rdf="http://www.w3.org/1999/02/22-rdf-syntax-ns#">
   <cc:Work>
    <dc:type rdf:resource="http://purl.org/dc/dcmitype/StillImage"/>
    <dc:date>2023-11-12T17:28:15.497139</dc:date>
    <dc:format>image/svg+xml</dc:format>
    <dc:creator>
     <cc:Agent>
      <dc:title>Matplotlib v3.7.2, https://matplotlib.org/</dc:title>
     </cc:Agent>
    </dc:creator>
   </cc:Work>
  </rdf:RDF>
 </metadata>
 <defs>
  <style type="text/css">*{stroke-linejoin: round; stroke-linecap: butt}</style>
 </defs>
 <g id="figure_1">
  <g id="patch_1">
   <path d="M 0 473.389375 
L 938.86125 473.389375 
L 938.86125 0 
L 0 0 
z
" style="fill: #ffffff"/>
  </g>
  <g id="axes_1">
   <g id="patch_2">
    <path d="M 104.483125 416.476875 
L 662.483125 416.476875 
L 662.483125 28.396875 
L 104.483125 28.396875 
z
" style="fill: #ffffff"/>
   </g>
   <g id="PolyCollection_1">
    <defs>
     <path id="m5f34f85753" d="M 129.846761 -176.46596 
L 129.846761 -116.250976 
L 130.622408 -153.120019 
L 131.398054 -185.807659 
L 132.1737 -214.853921 
L 132.949347 -240.711974 
L 133.724993 -263.764581 
L 134.50064 -284.337002 
L 135.276286 -302.707212 
L 136.051932 -319.114046 
L 136.827579 -333.763746 
L 137.603225 -346.83526 
L 138.378871 -358.48456 
L 139.154518 -368.848175 
L 139.930164 -378.046108 
L 140.705811 -386.184252 
L 141.481457 -393.356402 
L 142.257103 -399.645937 
L 143.03275 -405.127235 
L 143.808396 -409.866871 
L 144.584042 -412.849899 
L 145.359689 -408.542566 
L 146.135335 -403.914698 
L 146.910982 -399.023261 
L 147.686628 -393.917393 
L 148.462274 -388.639569 
L 149.237921 -383.226556 
L 150.013567 -377.710218 
L 150.789213 -372.118192 
L 151.56486 -366.474457 
L 152.340506 -360.799815 
L 153.116153 -355.112313 
L 153.891799 -349.427588 
L 154.667445 -343.759179 
L 155.443092 -338.118788 
L 156.218738 -332.516511 
L 156.994384 -326.961032 
L 157.770031 -321.459802 
L 158.545677 -316.019183 
L 159.321323 -310.644587 
L 160.09697 -305.340584 
L 160.872616 -300.11101 
L 161.648263 -294.959051 
L 162.423909 -289.887322 
L 163.199555 -284.897938 
L 163.975202 -279.992571 
L 164.750848 -275.172505 
L 165.526494 -270.438681 
L 166.302141 -265.791743 
L 167.077787 -261.232068 
L 167.853434 -256.759803 
L 168.62908 -252.37489 
L 169.404726 -248.077096 
L 170.180373 -243.866029 
L 170.956019 -239.741162 
L 171.731665 -235.70185 
L 172.507312 -231.747342 
L 173.282958 -227.876801 
L 174.058605 -224.08931 
L 174.834251 -220.383885 
L 175.609897 -216.759486 
L 176.385544 -213.215023 
L 177.16119 -209.749367 
L 177.936836 -206.361351 
L 178.712483 -203.049783 
L 179.488129 -199.813445 
L 180.263776 -196.651103 
L 181.039422 -193.561507 
L 181.815068 -190.543398 
L 182.590715 -187.595507 
L 183.366361 -184.716565 
L 184.142007 -181.905298 
L 184.917654 -179.160435 
L 185.6933 -176.480708 
L 186.468947 -173.864853 
L 187.244593 -171.311612 
L 188.020239 -168.819738 
L 188.795886 -166.387991 
L 189.571532 -164.015142 
L 190.347178 -161.699974 
L 191.122825 -159.441283 
L 191.898471 -157.237878 
L 192.674117 -155.088582 
L 193.449764 -152.992233 
L 194.22541 -150.947685 
L 195.001057 -148.953806 
L 195.776703 -147.009482 
L 196.552349 -145.113614 
L 197.327996 -143.265122 
L 198.103642 -141.46294 
L 198.879288 -139.706022 
L 199.654935 -137.993338 
L 200.430581 -136.323876 
L 201.206228 -134.69664 
L 201.981874 -133.110655 
L 202.75752 -131.564959 
L 203.533167 -130.058613 
L 204.308813 -128.59069 
L 205.084459 -127.160285 
L 205.860106 -125.766507 
L 206.635752 -124.408485 
L 207.411399 -123.085364 
L 208.187045 -121.796306 
L 208.962691 -120.54049 
L 209.738338 -119.317111 
L 210.513984 -118.125383 
L 211.28963 -116.964533 
L 212.065277 -115.833807 
L 212.840923 -114.732467 
L 213.61657 -113.659788 
L 214.392216 -112.615063 
L 215.167862 -111.597601 
L 215.943509 -110.606723 
L 216.719155 -109.64177 
L 217.494801 -108.702092 
L 218.270448 -107.787057 
L 219.046094 -106.896047 
L 219.821741 -106.028458 
L 220.597387 -105.183698 
L 221.373033 -104.36119 
L 222.14868 -103.560371 
L 222.924326 -102.780691 
L 223.699972 -102.02161 
L 224.475619 -101.282605 
L 225.251265 -100.563161 
L 226.026911 -99.862779 
L 226.802558 -99.180969 
L 227.578204 -98.517254 
L 228.353851 -97.871169 
L 229.129497 -97.242259 
L 229.905143 -96.63008 
L 230.68079 -96.0342 
L 231.456436 -95.454196 
L 232.232082 -94.889657 
L 233.007729 -94.34018 
L 233.783375 -93.805374 
L 234.559022 -93.284856 
L 235.334668 -92.778254 
L 236.110314 -92.285203 
L 236.885961 -91.80535 
L 237.661607 -91.338348 
L 238.437253 -90.883861 
L 239.2129 -90.44156 
L 239.988546 -90.011125 
L 240.764193 -89.592243 
L 241.539839 -89.18461 
L 242.315485 -88.787929 
L 243.091132 -88.401912 
L 243.866778 -88.026276 
L 244.642424 -87.660747 
L 245.418071 -87.305057 
L 246.193717 -86.958946 
L 246.969364 -86.62216 
L 247.74501 -86.29445 
L 248.520656 -85.975577 
L 249.296303 -85.665304 
L 250.071949 -85.363404 
L 250.847595 -85.069653 
L 251.623242 -84.783834 
L 252.398888 -84.505736 
L 253.174535 -84.235152 
L 253.950181 -83.971882 
L 254.725827 -83.71573 
L 255.501474 -83.466507 
L 256.27712 -83.224026 
L 257.052766 -82.988108 
L 257.828413 -82.758576 
L 258.604059 -82.535259 
L 259.379705 -82.317991 
L 260.155352 -82.10661 
L 260.930998 -81.900956 
L 261.706645 -81.700877 
L 262.482291 -81.506223 
L 263.257937 -81.316847 
L 264.033584 -81.132609 
L 264.80923 -80.953369 
L 265.584876 -80.778993 
L 266.360523 -80.60935 
L 267.136169 -80.444312 
L 267.911816 -80.283756 
L 268.687462 -80.127561 
L 269.463108 -79.975608 
L 270.238755 -79.827783 
L 271.014401 -79.683976 
L 271.790047 -79.544077 
L 272.565694 -79.407981 
L 273.34134 -79.275585 
L 274.116987 -79.146789 
L 274.892633 -79.021495 
L 275.668279 -78.89961 
L 276.443926 -78.78104 
L 277.219572 -78.665697 
L 277.995218 -78.553492 
L 278.770865 -78.444341 
L 279.546511 -78.33816 
L 280.322158 -78.23487 
L 281.097804 -78.134393 
L 281.87345 -78.036651 
L 282.649097 -77.94157 
L 283.424743 -77.84908 
L 284.200389 -77.759108 
L 284.976036 -77.671588 
L 285.751682 -77.586452 
L 286.527329 -77.503635 
L 287.302975 -77.423075 
L 288.078621 -77.344711 
L 288.854268 -77.268482 
L 289.629914 -77.194331 
L 290.40556 -77.122202 
L 291.181207 -77.052039 
L 291.956853 -76.983788 
L 292.732499 -76.917399 
L 293.508146 -76.85282 
L 294.283792 -76.790002 
L 295.059439 -76.728897 
L 295.835085 -76.669459 
L 296.610731 -76.611642 
L 297.386378 -76.555402 
L 298.162024 -76.500697 
L 298.93767 -76.447484 
L 299.713317 -76.395723 
L 300.488963 -76.345374 
L 301.26461 -76.296399 
L 302.040256 -76.24876 
L 302.815902 -76.202421 
L 303.591549 -76.157347 
L 304.367195 -76.113504 
L 305.142841 -76.070857 
L 305.918488 -76.029374 
L 306.694134 -75.989023 
L 307.469781 -75.949774 
L 308.245427 -75.911597 
L 309.021073 -75.874461 
L 309.79672 -75.83834 
L 310.572366 -75.803205 
L 311.348012 -75.769029 
L 312.123659 -75.735786 
L 312.899305 -75.703451 
L 313.674952 -75.671999 
L 314.450598 -75.641406 
L 315.226244 -75.611649 
L 316.001891 -75.582704 
L 316.777537 -75.55455 
L 317.553183 -75.527164 
L 318.32883 -75.500527 
L 319.104476 -75.474617 
L 319.880122 -75.449415 
L 320.655769 -75.424902 
L 321.431415 -75.401058 
L 322.207062 -75.377865 
L 322.982708 -75.355306 
L 323.758354 -75.333363 
L 324.534001 -75.31202 
L 325.309647 -75.29126 
L 326.085293 -75.271067 
L 326.86094 -75.251426 
L 327.636586 -75.232321 
L 328.412233 -75.213738 
L 329.187879 -75.195663 
L 329.963525 -75.178082 
L 330.739172 -75.160982 
L 331.514818 -75.144348 
L 332.290464 -75.12817 
L 333.066111 -75.112433 
L 333.841757 -75.097126 
L 334.617404 -75.082238 
L 335.39305 -75.067756 
L 336.168696 -75.053671 
L 336.944343 -75.03997 
L 337.719989 -75.026643 
L 338.495635 -75.013681 
L 339.271282 -75.001073 
L 340.046928 -74.98881 
L 340.822575 -74.976882 
L 341.598221 -74.96528 
L 342.373867 -74.953995 
L 343.149514 -74.943018 
L 343.92516 -74.932341 
L 344.700806 -74.921957 
L 345.476453 -74.911856 
L 346.252099 -74.902031 
L 347.027746 -74.892475 
L 347.803392 -74.88318 
L 348.579038 -74.874139 
L 349.354685 -74.865345 
L 350.130331 -74.856791 
L 350.905977 -74.848472 
L 351.681624 -74.840379 
L 352.45727 -74.832508 
L 353.232916 -74.824852 
L 354.008563 -74.817406 
L 354.784209 -74.810163 
L 355.559856 -74.803118 
L 356.335502 -74.796265 
L 357.111148 -74.7896 
L 357.886795 -74.783117 
L 358.662441 -74.776812 
L 359.438087 -74.770678 
L 360.213734 -74.764713 
L 360.98938 -74.75891 
L 361.765027 -74.753266 
L 362.540673 -74.747777 
L 363.316319 -74.742437 
L 364.091966 -74.737244 
L 364.867612 -74.732192 
L 365.643258 -74.727279 
L 366.418905 -74.722499 
L 367.194551 -74.717851 
L 367.970198 -74.71333 
L 368.745844 -74.708932 
L 369.52149 -74.704654 
L 370.297137 -74.700494 
L 371.072783 -74.696447 
L 371.848429 -74.692511 
L 372.624076 -74.688682 
L 373.399722 -74.684958 
L 374.175369 -74.681336 
L 374.951015 -74.677813 
L 375.726661 -74.674386 
L 376.502308 -74.671053 
L 377.277954 -74.667811 
L 378.0536 -74.664658 
L 378.829247 -74.661591 
L 379.604893 -74.658608 
L 380.38054 -74.655706 
L 381.156186 -74.652884 
L 381.931832 -74.650139 
L 382.707479 -74.647469 
L 383.483125 -74.644872 
L 384.258771 -74.642346 
L 385.034418 -74.639889 
L 385.810064 -74.637499 
L 386.58571 -74.635174 
L 387.361357 -74.632913 
L 388.137003 -74.630714 
L 388.91265 -74.628575 
L 389.688296 -74.626495 
L 390.463942 -74.624471 
L 391.239589 -74.622503 
L 392.015235 -74.620588 
L 392.790881 -74.618726 
L 393.566528 -74.616915 
L 394.342174 -74.615154 
L 395.117821 -74.61344 
L 395.893467 -74.611773 
L 396.669113 -74.610152 
L 397.44476 -74.608576 
L 398.220406 -74.607042 
L 398.996052 -74.60555 
L 399.771699 -74.604099 
L 400.547345 -74.602688 
L 401.322992 -74.601315 
L 402.098638 -74.59998 
L 402.874284 -74.598682 
L 403.649931 -74.597419 
L 404.425577 -74.59619 
L 405.201223 -74.594995 
L 405.97687 -74.593833 
L 406.752516 -74.592702 
L 407.528163 -74.591603 
L 408.303809 -74.590533 
L 409.079455 -74.589493 
L 409.855102 -74.588481 
L 410.630748 -74.587497 
L 411.406394 -74.58654 
L 412.182041 -74.585609 
L 412.957687 -74.584703 
L 413.733334 -74.583822 
L 414.50898 -74.582965 
L 415.284626 -74.582132 
L 416.060273 -74.581321 
L 416.835919 -74.580533 
L 417.611565 -74.579766 
L 418.387212 -74.57902 
L 419.162858 -74.578295 
L 419.938504 -74.577589 
L 420.714151 -74.576903 
L 421.489797 -74.576235 
L 422.265444 -74.575586 
L 423.04109 -74.574954 
L 423.816736 -74.57434 
L 424.592383 -74.573742 
L 425.368029 -74.573161 
L 426.143675 -74.572596 
L 426.919322 -74.572046 
L 427.694968 -74.571511 
L 428.470615 -74.570991 
L 429.246261 -74.570485 
L 430.021907 -74.569993 
L 430.797554 -74.569515 
L 431.5732 -74.569049 
L 432.348846 -74.568596 
L 433.124493 -74.568156 
L 433.900139 -74.567727 
L 434.675786 -74.567311 
L 435.451432 -74.566905 
L 436.227078 -74.566511 
L 437.002725 -74.566128 
L 437.778371 -74.565755 
L 438.554017 -74.565392 
L 439.329664 -74.565039 
L 440.10531 -74.564696 
L 440.880957 -74.564362 
L 441.656603 -74.564038 
L 442.432249 -74.563722 
L 443.207896 -74.563415 
L 443.983542 -74.563116 
L 444.759188 -74.562825 
L 445.534835 -74.562543 
L 446.310481 -74.562268 
L 447.086128 -74.562 
L 447.861774 -74.56174 
L 448.63742 -74.561487 
L 449.413067 -74.561241 
L 450.188713 -74.561002 
L 450.964359 -74.560769 
L 451.740006 -74.560543 
L 452.515652 -74.560323 
L 453.291298 -74.560108 
L 454.066945 -74.5599 
L 454.842591 -74.559697 
L 455.618238 -74.5595 
L 456.393884 -74.559309 
L 457.16953 -74.559122 
L 457.945177 -74.558941 
L 458.720823 -74.558764 
L 459.496469 -74.558593 
L 460.272116 -74.558426 
L 461.047762 -74.558264 
L 461.823409 -74.558106 
L 462.599055 -74.557952 
L 463.374701 -74.557803 
L 464.150348 -74.557657 
L 464.925994 -74.557516 
L 465.70164 -74.557379 
L 466.477287 -74.557245 
L 467.252933 -74.557115 
L 468.02858 -74.556988 
L 468.804226 -74.556865 
L 469.579872 -74.556746 
L 470.355519 -74.556629 
L 471.131165 -74.556516 
L 471.906811 -74.556406 
L 472.682458 -74.556299 
L 473.458104 -74.556195 
L 474.233751 -74.556093 
L 475.009397 -74.555995 
L 475.785043 -74.555899 
L 476.56069 -74.555806 
L 477.336336 -74.555715 
L 478.111982 -74.555627 
L 478.887629 -74.555541 
L 479.663275 -74.555458 
L 480.438921 -74.555376 
L 481.214568 -74.555297 
L 481.990214 -74.555221 
L 482.765861 -74.555146 
L 483.541507 -74.555073 
L 484.317153 -74.555003 
L 485.0928 -74.554934 
L 485.868446 -74.554867 
L 486.644092 -74.554802 
L 487.419739 -74.554739 
L 488.195385 -74.554677 
L 488.971032 -74.554618 
L 489.746678 -74.554559 
L 490.522324 -74.554503 
L 491.297971 -74.554448 
L 492.073617 -74.554394 
L 492.849263 -74.554342 
L 493.62491 -74.554291 
L 494.400556 -74.554242 
L 495.176203 -74.554194 
L 495.951849 -74.554148 
L 496.727495 -74.554102 
L 497.503142 -74.554058 
L 498.278788 -74.554015 
L 499.054434 -74.553973 
L 499.830081 -74.553933 
L 500.605727 -74.553893 
L 501.381374 -74.553855 
L 502.15702 -74.553818 
L 502.932666 -74.553781 
L 503.708313 -74.553746 
L 504.483959 -74.553712 
L 505.259605 -74.553678 
L 506.035252 -74.553646 
L 506.810898 -74.553614 
L 507.586545 -74.553583 
L 508.362191 -74.553553 
L 509.137837 -74.553524 
L 509.913484 -74.553496 
L 510.68913 -74.553468 
L 511.464776 -74.553442 
L 512.240423 -74.553416 
L 513.016069 -74.55339 
L 513.791715 -74.553366 
L 514.567362 -74.553342 
L 515.343008 -74.553318 
L 516.118655 -74.553296 
L 516.894301 -74.553274 
L 517.669947 -74.553252 
L 518.445594 -74.553231 
L 519.22124 -74.553211 
L 519.996886 -74.553191 
L 520.772533 -74.553172 
L 521.548179 -74.553154 
L 522.323826 -74.553135 
L 523.099472 -74.553118 
L 523.875118 -74.5531 
L 524.650765 -74.553084 
L 525.426411 -74.553068 
L 526.202057 -74.553052 
L 526.977704 -74.553036 
L 527.75335 -74.553021 
L 528.528997 -74.553007 
L 529.304643 -74.552993 
L 530.080289 -74.552979 
L 530.855936 -74.552966 
L 531.631582 -74.552953 
L 532.407228 -74.55294 
L 533.182875 -74.552928 
L 533.958521 -74.552916 
L 534.734168 -74.552904 
L 535.509814 -74.552893 
L 536.28546 -74.552882 
L 537.061107 -74.552871 
L 537.836753 -74.55286 
L 538.612399 -74.55285 
L 539.388046 -74.55284 
L 540.163692 -74.552831 
L 540.939339 -74.552821 
L 541.714985 -74.552812 
L 542.490631 -74.552804 
L 543.266278 -74.552795 
L 544.041924 -74.552787 
L 544.81757 -74.552778 
L 545.593217 -74.552771 
L 546.368863 -74.552763 
L 547.144509 -74.552755 
L 547.920156 -74.552748 
L 548.695802 -74.552741 
L 549.471449 -74.552734 
L 550.247095 -74.552727 
L 551.022741 -74.552721 
L 551.798388 -74.552715 
L 552.574034 -74.552708 
L 553.34968 -74.552702 
L 554.125327 -74.552697 
L 554.900973 -74.552691 
L 555.67662 -74.552685 
L 556.452266 -74.55268 
L 557.227912 -74.552675 
L 558.003559 -74.55267 
L 558.779205 -74.552665 
L 559.554851 -74.55266 
L 560.330498 -74.552655 
L 561.106144 -74.552651 
L 561.881791 -74.552646 
L 562.657437 -74.552642 
L 563.433083 -74.552638 
L 564.20873 -74.552634 
L 564.984376 -74.55263 
L 565.760022 -74.552626 
L 566.535669 -74.552622 
L 567.311315 -74.552619 
L 568.086962 -74.552615 
L 568.862608 -74.552612 
L 569.638254 -74.552608 
L 570.413901 -74.552605 
L 571.189547 -74.552602 
L 571.965193 -74.552599 
L 572.74084 -74.552596 
L 573.516486 -74.552593 
L 574.292133 -74.55259 
L 575.067779 -74.552587 
L 575.843425 -74.552585 
L 576.619072 -74.552582 
L 577.394718 -74.55258 
L 578.170364 -74.552577 
L 578.946011 -74.552575 
L 579.721657 -74.552572 
L 580.497303 -74.55257 
L 581.27295 -74.552568 
L 582.048596 -74.552566 
L 582.824243 -74.552564 
L 583.599889 -74.552562 
L 584.375535 -74.55256 
L 585.151182 -74.552558 
L 585.926828 -74.552556 
L 586.702474 -74.552554 
L 587.478121 -74.552552 
L 588.253767 -74.552551 
L 589.029414 -74.552549 
L 589.80506 -74.552547 
L 590.580706 -74.552546 
L 591.356353 -74.552544 
L 592.131999 -74.552543 
L 592.907645 -74.552541 
L 593.683292 -74.55254 
L 594.458938 -74.552538 
L 595.234585 -74.552537 
L 596.010231 -74.552536 
L 596.785877 -74.552534 
L 597.561524 -74.552533 
L 598.33717 -74.552532 
L 599.112816 -74.552531 
L 599.888463 -74.55253 
L 600.664109 -74.552529 
L 601.439756 -74.552528 
L 602.215402 -74.552526 
L 602.991048 -74.552525 
L 603.766695 -74.552524 
L 604.542341 -74.552524 
L 605.317987 -74.552523 
L 606.093634 -74.552522 
L 606.86928 -74.552521 
L 607.644927 -74.55252 
L 608.420573 -74.552519 
L 609.196219 -74.552518 
L 609.971866 -74.552517 
L 610.747512 -74.552517 
L 611.523158 -74.552516 
L 612.298805 -74.552515 
L 613.074451 -74.552515 
L 613.850097 -74.552514 
L 614.625744 -74.552513 
L 615.40139 -74.552513 
L 616.177037 -74.552512 
L 616.952683 -74.552511 
L 617.728329 -74.552511 
L 618.503976 -74.55251 
L 619.279622 -74.55251 
L 620.055268 -74.552509 
L 620.830915 -74.552508 
L 621.606561 -74.552508 
L 622.382208 -74.552507 
L 623.157854 -74.552507 
L 623.9335 -74.552506 
L 624.709147 -74.552506 
L 625.484793 -74.552506 
L 626.260439 -74.552505 
L 627.036086 -74.552505 
L 627.811732 -74.552504 
L 628.587379 -74.552504 
L 629.363025 -74.552503 
L 630.138671 -74.552503 
L 630.914318 -74.552503 
L 631.689964 -74.552502 
L 632.46561 -74.552502 
L 633.241257 -74.552502 
L 634.016903 -74.552501 
L 634.79255 -74.552501 
L 635.568196 -74.552501 
L 636.343842 -74.5525 
L 637.119489 -74.5525 
L 637.119489 -75.492306 
L 637.119489 -75.492306 
L 636.343842 -75.501789 
L 635.568196 -75.511368 
L 634.79255 -75.521044 
L 634.016903 -75.530817 
L 633.241257 -75.540688 
L 632.46561 -75.550659 
L 631.689964 -75.560731 
L 630.914318 -75.570904 
L 630.138671 -75.58118 
L 629.363025 -75.591559 
L 628.587379 -75.602044 
L 627.811732 -75.612633 
L 627.036086 -75.62333 
L 626.260439 -75.634134 
L 625.484793 -75.645048 
L 624.709147 -75.656071 
L 623.9335 -75.667206 
L 623.157854 -75.678452 
L 622.382208 -75.689813 
L 621.606561 -75.701287 
L 620.830915 -75.712878 
L 620.055268 -75.724585 
L 619.279622 -75.73641 
L 618.503976 -75.748355 
L 617.728329 -75.76042 
L 616.952683 -75.772607 
L 616.177037 -75.784916 
L 615.40139 -75.79735 
L 614.625744 -75.809908 
L 613.850097 -75.822594 
L 613.074451 -75.835407 
L 612.298805 -75.84835 
L 611.523158 -75.861423 
L 610.747512 -75.874628 
L 609.971866 -75.887966 
L 609.196219 -75.901438 
L 608.420573 -75.915046 
L 607.644927 -75.928791 
L 606.86928 -75.942675 
L 606.093634 -75.956699 
L 605.317987 -75.970864 
L 604.542341 -75.985172 
L 603.766695 -75.999624 
L 602.991048 -76.014222 
L 602.215402 -76.028967 
L 601.439756 -76.04386 
L 600.664109 -76.058904 
L 599.888463 -76.074099 
L 599.112816 -76.089447 
L 598.33717 -76.10495 
L 597.561524 -76.12061 
L 596.785877 -76.136427 
L 596.010231 -76.152403 
L 595.234585 -76.16854 
L 594.458938 -76.18484 
L 593.683292 -76.201305 
L 592.907645 -76.217935 
L 592.131999 -76.234733 
L 591.356353 -76.2517 
L 590.580706 -76.268837 
L 589.80506 -76.286148 
L 589.029414 -76.303633 
L 588.253767 -76.321294 
L 587.478121 -76.339133 
L 586.702474 -76.357152 
L 585.926828 -76.375352 
L 585.151182 -76.393736 
L 584.375535 -76.412305 
L 583.599889 -76.431061 
L 582.824243 -76.450006 
L 582.048596 -76.469141 
L 581.27295 -76.48847 
L 580.497303 -76.507993 
L 579.721657 -76.527713 
L 578.946011 -76.547631 
L 578.170364 -76.56775 
L 577.394718 -76.588072 
L 576.619072 -76.608598 
L 575.843425 -76.629331 
L 575.067779 -76.650273 
L 574.292133 -76.671425 
L 573.516486 -76.692791 
L 572.74084 -76.714372 
L 571.965193 -76.73617 
L 571.189547 -76.758188 
L 570.413901 -76.780427 
L 569.638254 -76.802891 
L 568.862608 -76.82558 
L 568.086962 -76.848498 
L 567.311315 -76.871647 
L 566.535669 -76.895029 
L 565.760022 -76.918646 
L 564.984376 -76.942501 
L 564.20873 -76.966596 
L 563.433083 -76.990933 
L 562.657437 -77.015516 
L 561.881791 -77.040346 
L 561.106144 -77.065426 
L 560.330498 -77.090758 
L 559.554851 -77.116346 
L 558.779205 -77.142191 
L 558.003559 -77.168296 
L 557.227912 -77.194664 
L 556.452266 -77.221297 
L 555.67662 -77.248198 
L 554.900973 -77.27537 
L 554.125327 -77.302815 
L 553.34968 -77.330537 
L 552.574034 -77.358537 
L 551.798388 -77.386819 
L 551.022741 -77.415386 
L 550.247095 -77.44424 
L 549.471449 -77.473385 
L 548.695802 -77.502823 
L 547.920156 -77.532556 
L 547.144509 -77.562589 
L 546.368863 -77.592924 
L 545.593217 -77.623565 
L 544.81757 -77.654513 
L 544.041924 -77.685773 
L 543.266278 -77.717347 
L 542.490631 -77.749239 
L 541.714985 -77.781451 
L 540.939339 -77.813987 
L 540.163692 -77.846851 
L 539.388046 -77.880045 
L 538.612399 -77.913573 
L 537.836753 -77.947438 
L 537.061107 -77.981643 
L 536.28546 -78.016192 
L 535.509814 -78.051089 
L 534.734168 -78.086337 
L 533.958521 -78.121939 
L 533.182875 -78.157898 
L 532.407228 -78.19422 
L 531.631582 -78.230906 
L 530.855936 -78.267961 
L 530.080289 -78.305389 
L 529.304643 -78.343192 
L 528.528997 -78.381376 
L 527.75335 -78.419943 
L 526.977704 -78.458898 
L 526.202057 -78.498245 
L 525.426411 -78.537986 
L 524.650765 -78.578127 
L 523.875118 -78.618672 
L 523.099472 -78.659623 
L 522.323826 -78.700986 
L 521.548179 -78.742765 
L 520.772533 -78.784963 
L 519.996886 -78.827585 
L 519.22124 -78.870635 
L 518.445594 -78.914118 
L 517.669947 -78.958037 
L 516.894301 -79.002397 
L 516.118655 -79.047203 
L 515.343008 -79.092459 
L 514.567362 -79.138169 
L 513.791715 -79.184338 
L 513.016069 -79.23097 
L 512.240423 -79.278071 
L 511.464776 -79.325645 
L 510.68913 -79.373696 
L 509.913484 -79.422229 
L 509.137837 -79.471249 
L 508.362191 -79.520762 
L 507.586545 -79.570771 
L 506.810898 -79.621282 
L 506.035252 -79.6723 
L 505.259605 -79.72383 
L 504.483959 -79.775877 
L 503.708313 -79.828446 
L 502.932666 -79.881542 
L 502.15702 -79.935171 
L 501.381374 -79.989338 
L 500.605727 -80.044048 
L 499.830081 -80.099307 
L 499.054434 -80.15512 
L 498.278788 -80.211493 
L 497.503142 -80.268431 
L 496.727495 -80.32594 
L 495.951849 -80.384025 
L 495.176203 -80.442693 
L 494.400556 -80.501949 
L 493.62491 -80.561799 
L 492.849263 -80.622248 
L 492.073617 -80.683304 
L 491.297971 -80.744971 
L 490.522324 -80.807256 
L 489.746678 -80.870165 
L 488.971032 -80.933705 
L 488.195385 -80.997881 
L 487.419739 -81.0627 
L 486.644092 -81.128169 
L 485.868446 -81.194293 
L 485.0928 -81.261079 
L 484.317153 -81.328534 
L 483.541507 -81.396665 
L 482.765861 -81.465477 
L 481.990214 -81.534979 
L 481.214568 -81.605176 
L 480.438921 -81.676076 
L 479.663275 -81.747686 
L 478.887629 -81.820012 
L 478.111982 -81.893063 
L 477.336336 -81.966844 
L 476.56069 -82.041363 
L 475.785043 -82.116628 
L 475.009397 -82.192646 
L 474.233751 -82.269424 
L 473.458104 -82.34697 
L 472.682458 -82.425292 
L 471.906811 -82.504397 
L 471.131165 -82.584293 
L 470.355519 -82.664987 
L 469.579872 -82.746489 
L 468.804226 -82.828805 
L 468.02858 -82.911944 
L 467.252933 -82.995913 
L 466.477287 -83.080722 
L 465.70164 -83.166378 
L 464.925994 -83.25289 
L 464.150348 -83.340267 
L 463.374701 -83.428516 
L 462.599055 -83.517646 
L 461.823409 -83.607666 
L 461.047762 -83.698586 
L 460.272116 -83.790413 
L 459.496469 -83.883157 
L 458.720823 -83.976826 
L 457.945177 -84.071431 
L 457.16953 -84.16698 
L 456.393884 -84.263482 
L 455.618238 -84.360947 
L 454.842591 -84.459384 
L 454.066945 -84.558803 
L 453.291298 -84.659214 
L 452.515652 -84.760626 
L 451.740006 -84.863049 
L 450.964359 -84.966494 
L 450.188713 -85.070969 
L 449.413067 -85.176487 
L 448.63742 -85.283055 
L 447.861774 -85.390686 
L 447.086128 -85.499389 
L 446.310481 -85.609175 
L 445.534835 -85.720054 
L 444.759188 -85.832038 
L 443.983542 -85.945137 
L 443.207896 -86.059362 
L 442.432249 -86.174724 
L 441.656603 -86.291234 
L 440.880957 -86.408904 
L 440.10531 -86.527745 
L 439.329664 -86.647769 
L 438.554017 -86.768986 
L 437.778371 -86.891409 
L 437.002725 -87.01505 
L 436.227078 -87.13992 
L 435.451432 -87.266031 
L 434.675786 -87.393396 
L 433.900139 -87.522027 
L 433.124493 -87.651937 
L 432.348846 -87.783137 
L 431.5732 -87.91564 
L 430.797554 -88.049459 
L 430.021907 -88.184608 
L 429.246261 -88.321098 
L 428.470615 -88.458943 
L 427.694968 -88.598157 
L 426.919322 -88.738752 
L 426.143675 -88.880742 
L 425.368029 -89.024141 
L 424.592383 -89.168962 
L 423.816736 -89.315219 
L 423.04109 -89.462927 
L 422.265444 -89.612099 
L 421.489797 -89.762749 
L 420.714151 -89.914892 
L 419.938504 -90.068543 
L 419.162858 -90.223716 
L 418.387212 -90.380426 
L 417.611565 -90.538687 
L 416.835919 -90.698515 
L 416.060273 -90.859925 
L 415.284626 -91.022933 
L 414.50898 -91.187553 
L 413.733334 -91.353802 
L 412.957687 -91.521695 
L 412.182041 -91.691249 
L 411.406394 -91.862478 
L 410.630748 -92.0354 
L 409.855102 -92.210031 
L 409.079455 -92.386387 
L 408.303809 -92.564485 
L 407.528163 -92.744342 
L 406.752516 -92.925974 
L 405.97687 -93.109399 
L 405.201223 -93.294635 
L 404.425577 -93.481698 
L 403.649931 -93.670606 
L 402.874284 -93.861377 
L 402.098638 -94.05403 
L 401.322992 -94.248581 
L 400.547345 -94.445049 
L 399.771699 -94.643453 
L 398.996052 -94.843811 
L 398.220406 -95.046142 
L 397.44476 -95.250465 
L 396.669113 -95.456799 
L 395.893467 -95.665163 
L 395.117821 -95.875577 
L 394.342174 -96.08806 
L 393.566528 -96.302632 
L 392.790881 -96.519313 
L 392.015235 -96.738124 
L 391.239589 -96.959084 
L 390.463942 -97.182214 
L 389.688296 -97.407535 
L 388.91265 -97.635068 
L 388.137003 -97.864833 
L 387.361357 -98.096852 
L 386.58571 -98.331147 
L 385.810064 -98.567738 
L 385.034418 -98.806649 
L 384.258771 -99.0479 
L 383.483125 -99.291515 
L 382.707479 -99.537515 
L 381.931832 -99.785923 
L 381.156186 -100.036763 
L 380.38054 -100.290056 
L 379.604893 -100.545826 
L 378.829247 -100.804097 
L 378.0536 -101.064892 
L 377.277954 -101.328236 
L 376.502308 -101.594151 
L 375.726661 -101.862663 
L 374.951015 -102.133795 
L 374.175369 -102.407573 
L 373.399722 -102.684021 
L 372.624076 -102.963165 
L 371.848429 -103.245029 
L 371.072783 -103.52964 
L 370.297137 -103.817023 
L 369.52149 -104.107203 
L 368.745844 -104.400208 
L 367.970198 -104.696064 
L 367.194551 -104.994797 
L 366.418905 -105.296434 
L 365.643258 -105.601002 
L 364.867612 -105.908529 
L 364.091966 -106.219042 
L 363.316319 -106.532569 
L 362.540673 -106.849138 
L 361.765027 -107.168777 
L 360.98938 -107.491515 
L 360.213734 -107.817381 
L 359.438087 -108.146403 
L 358.662441 -108.478611 
L 357.886795 -108.814034 
L 357.111148 -109.152702 
L 356.335502 -109.494645 
L 355.559856 -109.839893 
L 354.784209 -110.188476 
L 354.008563 -110.540426 
L 353.232916 -110.895773 
L 352.45727 -111.254549 
L 351.681624 -111.616784 
L 350.905977 -111.982512 
L 350.130331 -112.351763 
L 349.354685 -112.724569 
L 348.579038 -113.100965 
L 347.803392 -113.480981 
L 347.027746 -113.864652 
L 346.252099 -114.252011 
L 345.476453 -114.64309 
L 344.700806 -115.037925 
L 343.92516 -115.436548 
L 343.149514 -115.838995 
L 342.373867 -116.2453 
L 341.598221 -116.655499 
L 340.822575 -117.069625 
L 340.046928 -117.487715 
L 339.271282 -117.909805 
L 338.495635 -118.33593 
L 337.719989 -118.766127 
L 336.944343 -119.200433 
L 336.168696 -119.638884 
L 335.39305 -120.081517 
L 334.617404 -120.52837 
L 333.841757 -120.979481 
L 333.066111 -121.434887 
L 332.290464 -121.894628 
L 331.514818 -122.358741 
L 330.739172 -122.827265 
L 329.963525 -123.30024 
L 329.187879 -123.777705 
L 328.412233 -124.259701 
L 327.636586 -124.746266 
L 326.86094 -125.237441 
L 326.085293 -125.733267 
L 325.309647 -126.233786 
L 324.534001 -126.739037 
L 323.758354 -127.249063 
L 322.982708 -127.763906 
L 322.207062 -128.283608 
L 321.431415 -128.808211 
L 320.655769 -129.337757 
L 319.880122 -129.872291 
L 319.104476 -130.411855 
L 318.32883 -130.956494 
L 317.553183 -131.50625 
L 316.777537 -132.061169 
L 316.001891 -132.621295 
L 315.226244 -133.186672 
L 314.450598 -133.757347 
L 313.674952 -134.333365 
L 312.899305 -134.91477 
L 312.123659 -135.501611 
L 311.348012 -136.093932 
L 310.572366 -136.691782 
L 309.79672 -137.295206 
L 309.021073 -137.904253 
L 308.245427 -138.518969 
L 307.469781 -139.139404 
L 306.694134 -139.765604 
L 305.918488 -140.39762 
L 305.142841 -141.0355 
L 304.367195 -141.679293 
L 303.591549 -142.329048 
L 302.815902 -142.984816 
L 302.040256 -143.646647 
L 301.26461 -144.314592 
L 300.488963 -144.9887 
L 299.713317 -145.669024 
L 298.93767 -146.355614 
L 298.162024 -147.048523 
L 297.386378 -147.747802 
L 296.610731 -148.453504 
L 295.835085 -149.165681 
L 295.059439 -149.884387 
L 294.283792 -150.609675 
L 293.508146 -151.341597 
L 292.732499 -152.080209 
L 291.956853 -152.825565 
L 291.181207 -153.577718 
L 290.40556 -154.336724 
L 289.629914 -155.102638 
L 288.854268 -155.875514 
L 288.078621 -156.65541 
L 287.302975 -157.44238 
L 286.527329 -158.236481 
L 285.751682 -159.03777 
L 284.976036 -159.846304 
L 284.200389 -160.662138 
L 283.424743 -161.485332 
L 282.649097 -162.315942 
L 281.87345 -163.154027 
L 281.097804 -163.999645 
L 280.322158 -164.852855 
L 279.546511 -165.713714 
L 278.770865 -166.582283 
L 277.995218 -167.45862 
L 277.219572 -168.342786 
L 276.443926 -169.23484 
L 275.668279 -170.134842 
L 274.892633 -171.042852 
L 274.116987 -171.958932 
L 273.34134 -172.883142 
L 272.565694 -173.815543 
L 271.790047 -174.756197 
L 271.014401 -175.705165 
L 270.238755 -176.662509 
L 269.463108 -177.628291 
L 268.687462 -178.602573 
L 267.911816 -179.585418 
L 267.136169 -180.576889 
L 266.360523 -181.577048 
L 265.584876 -182.585959 
L 264.80923 -183.603685 
L 264.033584 -184.630289 
L 263.257937 -185.665836 
L 262.482291 -186.710388 
L 261.706645 -187.764011 
L 260.930998 -188.826768 
L 260.155352 -189.898724 
L 259.379705 -190.979943 
L 258.604059 -192.07049 
L 257.828413 -193.17043 
L 257.052766 -194.279827 
L 256.27712 -195.398748 
L 255.501474 -196.527256 
L 254.725827 -197.665419 
L 253.950181 -198.8133 
L 253.174535 -199.970965 
L 252.398888 -201.13848 
L 251.623242 -202.315912 
L 250.847595 -203.503324 
L 250.071949 -204.700784 
L 249.296303 -205.908357 
L 248.520656 -207.126109 
L 247.74501 -208.354105 
L 246.969364 -209.592413 
L 246.193717 -210.841097 
L 245.418071 -212.100223 
L 244.642424 -213.369858 
L 243.866778 -214.650067 
L 243.091132 -215.940916 
L 242.315485 -217.24247 
L 241.539839 -218.554795 
L 240.764193 -219.877956 
L 239.988546 -221.21202 
L 239.2129 -222.55705 
L 238.437253 -223.913112 
L 237.661607 -225.280271 
L 236.885961 -226.658591 
L 236.110314 -228.048137 
L 235.334668 -229.448973 
L 234.559022 -230.861162 
L 233.783375 -232.284768 
L 233.007729 -233.719854 
L 232.232082 -235.166483 
L 231.456436 -236.624718 
L 230.68079 -238.09462 
L 229.905143 -239.576251 
L 229.129497 -241.069671 
L 228.353851 -242.574941 
L 227.578204 -244.092121 
L 226.802558 -245.621271 
L 226.026911 -247.162447 
L 225.251265 -248.715709 
L 224.475619 -250.281113 
L 223.699972 -251.858715 
L 222.924326 -253.44857 
L 222.14868 -255.050733 
L 221.373033 -256.665256 
L 220.597387 -258.292192 
L 219.821741 -259.93159 
L 219.046094 -261.583501 
L 218.270448 -263.247972 
L 217.494801 -264.92505 
L 216.719155 -266.61478 
L 215.943509 -268.317204 
L 215.167862 -270.032364 
L 214.392216 -271.760298 
L 213.61657 -273.501044 
L 212.840923 -275.254637 
L 212.065277 -277.021108 
L 211.28963 -278.800487 
L 210.513984 -280.5928 
L 209.738338 -282.39807 
L 208.962691 -284.216319 
L 208.187045 -286.047561 
L 207.411399 -287.89181 
L 206.635752 -289.749073 
L 205.860106 -291.619355 
L 205.084459 -293.502654 
L 204.308813 -295.398965 
L 203.533167 -297.308274 
L 202.75752 -299.230564 
L 201.981874 -301.165811 
L 201.206228 -303.113982 
L 200.430581 -305.075037 
L 199.654935 -307.04893 
L 198.879288 -309.035604 
L 198.103642 -311.034992 
L 197.327996 -313.047017 
L 196.552349 -315.071592 
L 195.776703 -317.108617 
L 195.001057 -319.157977 
L 194.22541 -321.219546 
L 193.449764 -323.29318 
L 192.674117 -325.37872 
L 191.898471 -327.475989 
L 191.122825 -329.584789 
L 190.347178 -331.704902 
L 189.571532 -333.836087 
L 188.795886 -335.978078 
L 188.020239 -338.130583 
L 187.244593 -340.29328 
L 186.468947 -342.465817 
L 185.6933 -344.647806 
L 184.917654 -346.838823 
L 184.142007 -349.038404 
L 183.366361 -351.246043 
L 182.590715 -353.461185 
L 181.815068 -355.683224 
L 181.039422 -357.911501 
L 180.263776 -360.145295 
L 179.488129 -362.383821 
L 178.712483 -364.626222 
L 177.936836 -366.871565 
L 177.16119 -369.118837 
L 176.385544 -371.366929 
L 175.609897 -373.614638 
L 174.834251 -375.860654 
L 174.058605 -378.10355 
L 173.282958 -380.341774 
L 172.507312 -382.573638 
L 171.731665 -384.797303 
L 170.956019 -387.010772 
L 170.180373 -389.211868 
L 169.404726 -391.398226 
L 168.62908 -393.567269 
L 167.853434 -395.716196 
L 167.077787 -397.841956 
L 166.302141 -399.941229 
L 165.526494 -402.010399 
L 164.750848 -404.045531 
L 163.975202 -406.042335 
L 163.199555 -407.996138 
L 162.423909 -409.901848 
L 161.648263 -411.75391 
L 160.872616 -413.546266 
L 160.09697 -415.272304 
L 159.321323 -416.924804 
L 158.545677 -418.495878 
L 157.770031 -419.976901 
L 156.994384 -421.35844 
L 156.218738 -422.630166 
L 155.443092 -423.780761 
L 154.667445 -424.797814 
L 153.891799 -425.667697 
L 153.116153 -426.375439 
L 152.340506 -426.904563 
L 151.56486 -427.236923 
L 150.789213 -427.3525 
L 150.013567 -427.229178 
L 149.237921 -427.043353 
L 148.462274 -427.31682 
L 147.686628 -427.315409 
L 146.910982 -427.005175 
L 146.135335 -427.178814 
L 145.359689 -427.3525 
L 144.584042 -427.16142 
L 143.808396 -426.866743 
L 143.03275 -427.29525 
L 142.257103 -427.291658 
L 141.481457 -426.769373 
L 140.705811 -427.055356 
L 139.930164 -427.3525 
L 139.154518 -427.002523 
L 138.378871 -425.824824 
L 137.603225 -423.586337 
L 136.827579 -419.98435 
L 136.051932 -414.622556 
L 135.276286 -406.976955 
L 134.50064 -396.346199 
L 133.724993 -381.777366 
L 132.949347 -361.951664 
L 132.1737 -335.00246 
L 131.398054 -298.214272 
L 130.622408 -247.502449 
L 129.846761 -176.46596 
z
" style="stroke: #ffa500; stroke-opacity: 0.3"/>
    </defs>
    <g clip-path="url(#p43c2697490)">
     <use xlink:href="#m5f34f85753" x="0" y="473.389375" style="fill: #ffa500; fill-opacity: 0.3; stroke: #ffa500; stroke-opacity: 0.3"/>
    </g>
   </g>
   <g id="matplotlib.axis_1">
    <g id="xtick_1">
     <g id="line2d_1">
      <defs>
       <path id="mb2a4aeb3cd" d="M 0 0 
L 0 3.5 
" style="stroke: #000000; stroke-width: 0.8"/>
      </defs>
      <g>
       <use xlink:href="#mb2a4aeb3cd" x="129.071115" y="416.476875" style="stroke: #000000; stroke-width: 0.8"/>
      </g>
     </g>
     <g id="text_1">
      <!-- 0 -->
      <g transform="translate(122.708615 438.67375) scale(0.2 -0.2)">
       <defs>
        <path id="DejaVuSans-30" d="M 2034 4250 
Q 1547 4250 1301 3770 
Q 1056 3291 1056 2328 
Q 1056 1369 1301 889 
Q 1547 409 2034 409 
Q 2525 409 2770 889 
Q 3016 1369 3016 2328 
Q 3016 3291 2770 3770 
Q 2525 4250 2034 4250 
z
M 2034 4750 
Q 2819 4750 3233 4129 
Q 3647 3509 3647 2328 
Q 3647 1150 3233 529 
Q 2819 -91 2034 -91 
Q 1250 -91 836 529 
Q 422 1150 422 2328 
Q 422 3509 836 4129 
Q 1250 4750 2034 4750 
z
" transform="scale(0.015625)"/>
       </defs>
       <use xlink:href="#DejaVuSans-30"/>
      </g>
     </g>
    </g>
    <g id="xtick_2">
     <g id="line2d_2">
      <g>
       <use xlink:href="#mb2a4aeb3cd" x="206.635752" y="416.476875" style="stroke: #000000; stroke-width: 0.8"/>
      </g>
     </g>
     <g id="text_2">
      <!-- 100 -->
      <g transform="translate(187.548252 438.67375) scale(0.2 -0.2)">
       <defs>
        <path id="DejaVuSans-31" d="M 794 531 
L 1825 531 
L 1825 4091 
L 703 3866 
L 703 4441 
L 1819 4666 
L 2450 4666 
L 2450 531 
L 3481 531 
L 3481 0 
L 794 0 
L 794 531 
z
" transform="scale(0.015625)"/>
       </defs>
       <use xlink:href="#DejaVuSans-31"/>
       <use xlink:href="#DejaVuSans-30" x="63.623047"/>
       <use xlink:href="#DejaVuSans-30" x="127.246094"/>
      </g>
     </g>
    </g>
    <g id="xtick_3">
     <g id="line2d_3">
      <g>
       <use xlink:href="#mb2a4aeb3cd" x="284.200389" y="416.476875" style="stroke: #000000; stroke-width: 0.8"/>
      </g>
     </g>
     <g id="text_3">
      <!-- 200 -->
      <g transform="translate(265.112889 438.67375) scale(0.2 -0.2)">
       <defs>
        <path id="DejaVuSans-32" d="M 1228 531 
L 3431 531 
L 3431 0 
L 469 0 
L 469 531 
Q 828 903 1448 1529 
Q 2069 2156 2228 2338 
Q 2531 2678 2651 2914 
Q 2772 3150 2772 3378 
Q 2772 3750 2511 3984 
Q 2250 4219 1831 4219 
Q 1534 4219 1204 4116 
Q 875 4013 500 3803 
L 500 4441 
Q 881 4594 1212 4672 
Q 1544 4750 1819 4750 
Q 2544 4750 2975 4387 
Q 3406 4025 3406 3419 
Q 3406 3131 3298 2873 
Q 3191 2616 2906 2266 
Q 2828 2175 2409 1742 
Q 1991 1309 1228 531 
z
" transform="scale(0.015625)"/>
       </defs>
       <use xlink:href="#DejaVuSans-32"/>
       <use xlink:href="#DejaVuSans-30" x="63.623047"/>
       <use xlink:href="#DejaVuSans-30" x="127.246094"/>
      </g>
     </g>
    </g>
    <g id="xtick_4">
     <g id="line2d_4">
      <g>
       <use xlink:href="#mb2a4aeb3cd" x="361.765027" y="416.476875" style="stroke: #000000; stroke-width: 0.8"/>
      </g>
     </g>
     <g id="text_4">
      <!-- 300 -->
      <g transform="translate(342.677527 438.67375) scale(0.2 -0.2)">
       <defs>
        <path id="DejaVuSans-33" d="M 2597 2516 
Q 3050 2419 3304 2112 
Q 3559 1806 3559 1356 
Q 3559 666 3084 287 
Q 2609 -91 1734 -91 
Q 1441 -91 1130 -33 
Q 819 25 488 141 
L 488 750 
Q 750 597 1062 519 
Q 1375 441 1716 441 
Q 2309 441 2620 675 
Q 2931 909 2931 1356 
Q 2931 1769 2642 2001 
Q 2353 2234 1838 2234 
L 1294 2234 
L 1294 2753 
L 1863 2753 
Q 2328 2753 2575 2939 
Q 2822 3125 2822 3475 
Q 2822 3834 2567 4026 
Q 2313 4219 1838 4219 
Q 1578 4219 1281 4162 
Q 984 4106 628 3988 
L 628 4550 
Q 988 4650 1302 4700 
Q 1616 4750 1894 4750 
Q 2613 4750 3031 4423 
Q 3450 4097 3450 3541 
Q 3450 3153 3228 2886 
Q 3006 2619 2597 2516 
z
" transform="scale(0.015625)"/>
       </defs>
       <use xlink:href="#DejaVuSans-33"/>
       <use xlink:href="#DejaVuSans-30" x="63.623047"/>
       <use xlink:href="#DejaVuSans-30" x="127.246094"/>
      </g>
     </g>
    </g>
    <g id="xtick_5">
     <g id="line2d_5">
      <g>
       <use xlink:href="#mb2a4aeb3cd" x="439.329664" y="416.476875" style="stroke: #000000; stroke-width: 0.8"/>
      </g>
     </g>
     <g id="text_5">
      <!-- 400 -->
      <g transform="translate(420.242164 438.67375) scale(0.2 -0.2)">
       <defs>
        <path id="DejaVuSans-34" d="M 2419 4116 
L 825 1625 
L 2419 1625 
L 2419 4116 
z
M 2253 4666 
L 3047 4666 
L 3047 1625 
L 3713 1625 
L 3713 1100 
L 3047 1100 
L 3047 0 
L 2419 0 
L 2419 1100 
L 313 1100 
L 313 1709 
L 2253 4666 
z
" transform="scale(0.015625)"/>
       </defs>
       <use xlink:href="#DejaVuSans-34"/>
       <use xlink:href="#DejaVuSans-30" x="63.623047"/>
       <use xlink:href="#DejaVuSans-30" x="127.246094"/>
      </g>
     </g>
    </g>
    <g id="xtick_6">
     <g id="line2d_6">
      <g>
       <use xlink:href="#mb2a4aeb3cd" x="516.894301" y="416.476875" style="stroke: #000000; stroke-width: 0.8"/>
      </g>
     </g>
     <g id="text_6">
      <!-- 500 -->
      <g transform="translate(497.806801 438.67375) scale(0.2 -0.2)">
       <defs>
        <path id="DejaVuSans-35" d="M 691 4666 
L 3169 4666 
L 3169 4134 
L 1269 4134 
L 1269 2991 
Q 1406 3038 1543 3061 
Q 1681 3084 1819 3084 
Q 2600 3084 3056 2656 
Q 3513 2228 3513 1497 
Q 3513 744 3044 326 
Q 2575 -91 1722 -91 
Q 1428 -91 1123 -41 
Q 819 9 494 109 
L 494 744 
Q 775 591 1075 516 
Q 1375 441 1709 441 
Q 2250 441 2565 725 
Q 2881 1009 2881 1497 
Q 2881 1984 2565 2268 
Q 2250 2553 1709 2553 
Q 1456 2553 1204 2497 
Q 953 2441 691 2322 
L 691 4666 
z
" transform="scale(0.015625)"/>
       </defs>
       <use xlink:href="#DejaVuSans-35"/>
       <use xlink:href="#DejaVuSans-30" x="63.623047"/>
       <use xlink:href="#DejaVuSans-30" x="127.246094"/>
      </g>
     </g>
    </g>
    <g id="xtick_7">
     <g id="line2d_7">
      <g>
       <use xlink:href="#mb2a4aeb3cd" x="594.458938" y="416.476875" style="stroke: #000000; stroke-width: 0.8"/>
      </g>
     </g>
     <g id="text_7">
      <!-- 600 -->
      <g transform="translate(575.371438 438.67375) scale(0.2 -0.2)">
       <defs>
        <path id="DejaVuSans-36" d="M 2113 2584 
Q 1688 2584 1439 2293 
Q 1191 2003 1191 1497 
Q 1191 994 1439 701 
Q 1688 409 2113 409 
Q 2538 409 2786 701 
Q 3034 994 3034 1497 
Q 3034 2003 2786 2293 
Q 2538 2584 2113 2584 
z
M 3366 4563 
L 3366 3988 
Q 3128 4100 2886 4159 
Q 2644 4219 2406 4219 
Q 1781 4219 1451 3797 
Q 1122 3375 1075 2522 
Q 1259 2794 1537 2939 
Q 1816 3084 2150 3084 
Q 2853 3084 3261 2657 
Q 3669 2231 3669 1497 
Q 3669 778 3244 343 
Q 2819 -91 2113 -91 
Q 1303 -91 875 529 
Q 447 1150 447 2328 
Q 447 3434 972 4092 
Q 1497 4750 2381 4750 
Q 2619 4750 2861 4703 
Q 3103 4656 3366 4563 
z
" transform="scale(0.015625)"/>
       </defs>
       <use xlink:href="#DejaVuSans-36"/>
       <use xlink:href="#DejaVuSans-30" x="63.623047"/>
       <use xlink:href="#DejaVuSans-30" x="127.246094"/>
      </g>
     </g>
    </g>
    <g id="text_8">
     <!-- Days since antigen exposure -->
     <g transform="translate(239.062812 462.03) scale(0.2 -0.2)">
      <defs>
       <path id="DejaVuSans-44" d="M 1259 4147 
L 1259 519 
L 2022 519 
Q 2988 519 3436 956 
Q 3884 1394 3884 2338 
Q 3884 3275 3436 3711 
Q 2988 4147 2022 4147 
L 1259 4147 
z
M 628 4666 
L 1925 4666 
Q 3281 4666 3915 4102 
Q 4550 3538 4550 2338 
Q 4550 1131 3912 565 
Q 3275 0 1925 0 
L 628 0 
L 628 4666 
z
" transform="scale(0.015625)"/>
       <path id="DejaVuSans-61" d="M 2194 1759 
Q 1497 1759 1228 1600 
Q 959 1441 959 1056 
Q 959 750 1161 570 
Q 1363 391 1709 391 
Q 2188 391 2477 730 
Q 2766 1069 2766 1631 
L 2766 1759 
L 2194 1759 
z
M 3341 1997 
L 3341 0 
L 2766 0 
L 2766 531 
Q 2569 213 2275 61 
Q 1981 -91 1556 -91 
Q 1019 -91 701 211 
Q 384 513 384 1019 
Q 384 1609 779 1909 
Q 1175 2209 1959 2209 
L 2766 2209 
L 2766 2266 
Q 2766 2663 2505 2880 
Q 2244 3097 1772 3097 
Q 1472 3097 1187 3025 
Q 903 2953 641 2809 
L 641 3341 
Q 956 3463 1253 3523 
Q 1550 3584 1831 3584 
Q 2591 3584 2966 3190 
Q 3341 2797 3341 1997 
z
" transform="scale(0.015625)"/>
       <path id="DejaVuSans-79" d="M 2059 -325 
Q 1816 -950 1584 -1140 
Q 1353 -1331 966 -1331 
L 506 -1331 
L 506 -850 
L 844 -850 
Q 1081 -850 1212 -737 
Q 1344 -625 1503 -206 
L 1606 56 
L 191 3500 
L 800 3500 
L 1894 763 
L 2988 3500 
L 3597 3500 
L 2059 -325 
z
" transform="scale(0.015625)"/>
       <path id="DejaVuSans-73" d="M 2834 3397 
L 2834 2853 
Q 2591 2978 2328 3040 
Q 2066 3103 1784 3103 
Q 1356 3103 1142 2972 
Q 928 2841 928 2578 
Q 928 2378 1081 2264 
Q 1234 2150 1697 2047 
L 1894 2003 
Q 2506 1872 2764 1633 
Q 3022 1394 3022 966 
Q 3022 478 2636 193 
Q 2250 -91 1575 -91 
Q 1294 -91 989 -36 
Q 684 19 347 128 
L 347 722 
Q 666 556 975 473 
Q 1284 391 1588 391 
Q 1994 391 2212 530 
Q 2431 669 2431 922 
Q 2431 1156 2273 1281 
Q 2116 1406 1581 1522 
L 1381 1569 
Q 847 1681 609 1914 
Q 372 2147 372 2553 
Q 372 3047 722 3315 
Q 1072 3584 1716 3584 
Q 2034 3584 2315 3537 
Q 2597 3491 2834 3397 
z
" transform="scale(0.015625)"/>
       <path id="DejaVuSans-20" transform="scale(0.015625)"/>
       <path id="DejaVuSans-69" d="M 603 3500 
L 1178 3500 
L 1178 0 
L 603 0 
L 603 3500 
z
M 603 4863 
L 1178 4863 
L 1178 4134 
L 603 4134 
L 603 4863 
z
" transform="scale(0.015625)"/>
       <path id="DejaVuSans-6e" d="M 3513 2113 
L 3513 0 
L 2938 0 
L 2938 2094 
Q 2938 2591 2744 2837 
Q 2550 3084 2163 3084 
Q 1697 3084 1428 2787 
Q 1159 2491 1159 1978 
L 1159 0 
L 581 0 
L 581 3500 
L 1159 3500 
L 1159 2956 
Q 1366 3272 1645 3428 
Q 1925 3584 2291 3584 
Q 2894 3584 3203 3211 
Q 3513 2838 3513 2113 
z
" transform="scale(0.015625)"/>
       <path id="DejaVuSans-63" d="M 3122 3366 
L 3122 2828 
Q 2878 2963 2633 3030 
Q 2388 3097 2138 3097 
Q 1578 3097 1268 2742 
Q 959 2388 959 1747 
Q 959 1106 1268 751 
Q 1578 397 2138 397 
Q 2388 397 2633 464 
Q 2878 531 3122 666 
L 3122 134 
Q 2881 22 2623 -34 
Q 2366 -91 2075 -91 
Q 1284 -91 818 406 
Q 353 903 353 1747 
Q 353 2603 823 3093 
Q 1294 3584 2113 3584 
Q 2378 3584 2631 3529 
Q 2884 3475 3122 3366 
z
" transform="scale(0.015625)"/>
       <path id="DejaVuSans-65" d="M 3597 1894 
L 3597 1613 
L 953 1613 
Q 991 1019 1311 708 
Q 1631 397 2203 397 
Q 2534 397 2845 478 
Q 3156 559 3463 722 
L 3463 178 
Q 3153 47 2828 -22 
Q 2503 -91 2169 -91 
Q 1331 -91 842 396 
Q 353 884 353 1716 
Q 353 2575 817 3079 
Q 1281 3584 2069 3584 
Q 2775 3584 3186 3129 
Q 3597 2675 3597 1894 
z
M 3022 2063 
Q 3016 2534 2758 2815 
Q 2500 3097 2075 3097 
Q 1594 3097 1305 2825 
Q 1016 2553 972 2059 
L 3022 2063 
z
" transform="scale(0.015625)"/>
       <path id="DejaVuSans-74" d="M 1172 4494 
L 1172 3500 
L 2356 3500 
L 2356 3053 
L 1172 3053 
L 1172 1153 
Q 1172 725 1289 603 
Q 1406 481 1766 481 
L 2356 481 
L 2356 0 
L 1766 0 
Q 1100 0 847 248 
Q 594 497 594 1153 
L 594 3053 
L 172 3053 
L 172 3500 
L 594 3500 
L 594 4494 
L 1172 4494 
z
" transform="scale(0.015625)"/>
       <path id="DejaVuSans-67" d="M 2906 1791 
Q 2906 2416 2648 2759 
Q 2391 3103 1925 3103 
Q 1463 3103 1205 2759 
Q 947 2416 947 1791 
Q 947 1169 1205 825 
Q 1463 481 1925 481 
Q 2391 481 2648 825 
Q 2906 1169 2906 1791 
z
M 3481 434 
Q 3481 -459 3084 -895 
Q 2688 -1331 1869 -1331 
Q 1566 -1331 1297 -1286 
Q 1028 -1241 775 -1147 
L 775 -588 
Q 1028 -725 1275 -790 
Q 1522 -856 1778 -856 
Q 2344 -856 2625 -561 
Q 2906 -266 2906 331 
L 2906 616 
Q 2728 306 2450 153 
Q 2172 0 1784 0 
Q 1141 0 747 490 
Q 353 981 353 1791 
Q 353 2603 747 3093 
Q 1141 3584 1784 3584 
Q 2172 3584 2450 3431 
Q 2728 3278 2906 2969 
L 2906 3500 
L 3481 3500 
L 3481 434 
z
" transform="scale(0.015625)"/>
       <path id="DejaVuSans-78" d="M 3513 3500 
L 2247 1797 
L 3578 0 
L 2900 0 
L 1881 1375 
L 863 0 
L 184 0 
L 1544 1831 
L 300 3500 
L 978 3500 
L 1906 2253 
L 2834 3500 
L 3513 3500 
z
" transform="scale(0.015625)"/>
       <path id="DejaVuSans-70" d="M 1159 525 
L 1159 -1331 
L 581 -1331 
L 581 3500 
L 1159 3500 
L 1159 2969 
Q 1341 3281 1617 3432 
Q 1894 3584 2278 3584 
Q 2916 3584 3314 3078 
Q 3713 2572 3713 1747 
Q 3713 922 3314 415 
Q 2916 -91 2278 -91 
Q 1894 -91 1617 61 
Q 1341 213 1159 525 
z
M 3116 1747 
Q 3116 2381 2855 2742 
Q 2594 3103 2138 3103 
Q 1681 3103 1420 2742 
Q 1159 2381 1159 1747 
Q 1159 1113 1420 752 
Q 1681 391 2138 391 
Q 2594 391 2855 752 
Q 3116 1113 3116 1747 
z
" transform="scale(0.015625)"/>
       <path id="DejaVuSans-6f" d="M 1959 3097 
Q 1497 3097 1228 2736 
Q 959 2375 959 1747 
Q 959 1119 1226 758 
Q 1494 397 1959 397 
Q 2419 397 2687 759 
Q 2956 1122 2956 1747 
Q 2956 2369 2687 2733 
Q 2419 3097 1959 3097 
z
M 1959 3584 
Q 2709 3584 3137 3096 
Q 3566 2609 3566 1747 
Q 3566 888 3137 398 
Q 2709 -91 1959 -91 
Q 1206 -91 779 398 
Q 353 888 353 1747 
Q 353 2609 779 3096 
Q 1206 3584 1959 3584 
z
" transform="scale(0.015625)"/>
       <path id="DejaVuSans-75" d="M 544 1381 
L 544 3500 
L 1119 3500 
L 1119 1403 
Q 1119 906 1312 657 
Q 1506 409 1894 409 
Q 2359 409 2629 706 
Q 2900 1003 2900 1516 
L 2900 3500 
L 3475 3500 
L 3475 0 
L 2900 0 
L 2900 538 
Q 2691 219 2414 64 
Q 2138 -91 1772 -91 
Q 1169 -91 856 284 
Q 544 659 544 1381 
z
M 1991 3584 
L 1991 3584 
z
" transform="scale(0.015625)"/>
       <path id="DejaVuSans-72" d="M 2631 2963 
Q 2534 3019 2420 3045 
Q 2306 3072 2169 3072 
Q 1681 3072 1420 2755 
Q 1159 2438 1159 1844 
L 1159 0 
L 581 0 
L 581 3500 
L 1159 3500 
L 1159 2956 
Q 1341 3275 1631 3429 
Q 1922 3584 2338 3584 
Q 2397 3584 2469 3576 
Q 2541 3569 2628 3553 
L 2631 2963 
z
" transform="scale(0.015625)"/>
      </defs>
      <use xlink:href="#DejaVuSans-44"/>
      <use xlink:href="#DejaVuSans-61" x="77.001953"/>
      <use xlink:href="#DejaVuSans-79" x="138.28125"/>
      <use xlink:href="#DejaVuSans-73" x="197.460938"/>
      <use xlink:href="#DejaVuSans-20" x="249.560547"/>
      <use xlink:href="#DejaVuSans-73" x="281.347656"/>
      <use xlink:href="#DejaVuSans-69" x="333.447266"/>
      <use xlink:href="#DejaVuSans-6e" x="361.230469"/>
      <use xlink:href="#DejaVuSans-63" x="424.609375"/>
      <use xlink:href="#DejaVuSans-65" x="479.589844"/>
      <use xlink:href="#DejaVuSans-20" x="541.113281"/>
      <use xlink:href="#DejaVuSans-61" x="572.900391"/>
      <use xlink:href="#DejaVuSans-6e" x="634.179688"/>
      <use xlink:href="#DejaVuSans-74" x="697.558594"/>
      <use xlink:href="#DejaVuSans-69" x="736.767578"/>
      <use xlink:href="#DejaVuSans-67" x="764.550781"/>
      <use xlink:href="#DejaVuSans-65" x="828.027344"/>
      <use xlink:href="#DejaVuSans-6e" x="889.550781"/>
      <use xlink:href="#DejaVuSans-20" x="952.929688"/>
      <use xlink:href="#DejaVuSans-65" x="984.716797"/>
      <use xlink:href="#DejaVuSans-78" x="1044.490234"/>
      <use xlink:href="#DejaVuSans-70" x="1103.669922"/>
      <use xlink:href="#DejaVuSans-6f" x="1167.146484"/>
      <use xlink:href="#DejaVuSans-73" x="1228.328125"/>
      <use xlink:href="#DejaVuSans-75" x="1280.427734"/>
      <use xlink:href="#DejaVuSans-72" x="1343.806641"/>
      <use xlink:href="#DejaVuSans-65" x="1382.669922"/>
     </g>
    </g>
   </g>
   <g id="matplotlib.axis_2">
    <g id="ytick_1">
     <g id="line2d_8">
      <defs>
       <path id="mdd07c73151" d="M 0 0 
L -3.5 0 
" style="stroke: #000000; stroke-width: 0.8"/>
      </defs>
      <g>
       <use xlink:href="#mdd07c73151" x="104.483125" y="398.836886" style="stroke: #000000; stroke-width: 0.8"/>
      </g>
     </g>
     <g id="text_9">
      <!-- 0.00 -->
      <g transform="translate(52.951875 406.435323) scale(0.2 -0.2)">
       <defs>
        <path id="DejaVuSans-2e" d="M 684 794 
L 1344 794 
L 1344 0 
L 684 0 
L 684 794 
z
" transform="scale(0.015625)"/>
       </defs>
       <use xlink:href="#DejaVuSans-30"/>
       <use xlink:href="#DejaVuSans-2e" x="63.623047"/>
       <use xlink:href="#DejaVuSans-30" x="95.410156"/>
       <use xlink:href="#DejaVuSans-30" x="159.033203"/>
      </g>
     </g>
    </g>
    <g id="ytick_2">
     <g id="line2d_9">
      <g>
       <use xlink:href="#mdd07c73151" x="104.483125" y="344.516778" style="stroke: #000000; stroke-width: 0.8"/>
      </g>
     </g>
     <g id="text_10">
      <!-- 0.05 -->
      <g transform="translate(52.951875 352.115215) scale(0.2 -0.2)">
       <use xlink:href="#DejaVuSans-30"/>
       <use xlink:href="#DejaVuSans-2e" x="63.623047"/>
       <use xlink:href="#DejaVuSans-30" x="95.410156"/>
       <use xlink:href="#DejaVuSans-35" x="159.033203"/>
      </g>
     </g>
    </g>
    <g id="ytick_3">
     <g id="line2d_10">
      <g>
       <use xlink:href="#mdd07c73151" x="104.483125" y="290.19667" style="stroke: #000000; stroke-width: 0.8"/>
      </g>
     </g>
     <g id="text_11">
      <!-- 0.10 -->
      <g transform="translate(52.951875 297.795108) scale(0.2 -0.2)">
       <use xlink:href="#DejaVuSans-30"/>
       <use xlink:href="#DejaVuSans-2e" x="63.623047"/>
       <use xlink:href="#DejaVuSans-31" x="95.410156"/>
       <use xlink:href="#DejaVuSans-30" x="159.033203"/>
      </g>
     </g>
    </g>
    <g id="ytick_4">
     <g id="line2d_11">
      <g>
       <use xlink:href="#mdd07c73151" x="104.483125" y="235.876562" style="stroke: #000000; stroke-width: 0.8"/>
      </g>
     </g>
     <g id="text_12">
      <!-- 0.15 -->
      <g transform="translate(52.951875 243.475) scale(0.2 -0.2)">
       <use xlink:href="#DejaVuSans-30"/>
       <use xlink:href="#DejaVuSans-2e" x="63.623047"/>
       <use xlink:href="#DejaVuSans-31" x="95.410156"/>
       <use xlink:href="#DejaVuSans-35" x="159.033203"/>
      </g>
     </g>
    </g>
    <g id="ytick_5">
     <g id="line2d_12">
      <g>
       <use xlink:href="#mdd07c73151" x="104.483125" y="181.556455" style="stroke: #000000; stroke-width: 0.8"/>
      </g>
     </g>
     <g id="text_13">
      <!-- 0.20 -->
      <g transform="translate(52.951875 189.154892) scale(0.2 -0.2)">
       <use xlink:href="#DejaVuSans-30"/>
       <use xlink:href="#DejaVuSans-2e" x="63.623047"/>
       <use xlink:href="#DejaVuSans-32" x="95.410156"/>
       <use xlink:href="#DejaVuSans-30" x="159.033203"/>
      </g>
     </g>
    </g>
    <g id="ytick_6">
     <g id="line2d_13">
      <g>
       <use xlink:href="#mdd07c73151" x="104.483125" y="127.236347" style="stroke: #000000; stroke-width: 0.8"/>
      </g>
     </g>
     <g id="text_14">
      <!-- 0.25 -->
      <g transform="translate(52.951875 134.834784) scale(0.2 -0.2)">
       <use xlink:href="#DejaVuSans-30"/>
       <use xlink:href="#DejaVuSans-2e" x="63.623047"/>
       <use xlink:href="#DejaVuSans-32" x="95.410156"/>
       <use xlink:href="#DejaVuSans-35" x="159.033203"/>
      </g>
     </g>
    </g>
    <g id="ytick_7">
     <g id="line2d_14">
      <g>
       <use xlink:href="#mdd07c73151" x="104.483125" y="72.916239" style="stroke: #000000; stroke-width: 0.8"/>
      </g>
     </g>
     <g id="text_15">
      <!-- 0.30 -->
      <g transform="translate(52.951875 80.514677) scale(0.2 -0.2)">
       <use xlink:href="#DejaVuSans-30"/>
       <use xlink:href="#DejaVuSans-2e" x="63.623047"/>
       <use xlink:href="#DejaVuSans-33" x="95.410156"/>
       <use xlink:href="#DejaVuSans-30" x="159.033203"/>
      </g>
     </g>
    </g>
    <g id="text_16">
     <!-- Virus neutralization -->
     <g transform="translate(22.396875 319.741562) rotate(-90) scale(0.2 -0.2)">
      <defs>
       <path id="DejaVuSans-56" d="M 1831 0 
L 50 4666 
L 709 4666 
L 2188 738 
L 3669 4666 
L 4325 4666 
L 2547 0 
L 1831 0 
z
" transform="scale(0.015625)"/>
       <path id="DejaVuSans-6c" d="M 603 4863 
L 1178 4863 
L 1178 0 
L 603 0 
L 603 4863 
z
" transform="scale(0.015625)"/>
       <path id="DejaVuSans-7a" d="M 353 3500 
L 3084 3500 
L 3084 2975 
L 922 459 
L 3084 459 
L 3084 0 
L 275 0 
L 275 525 
L 2438 3041 
L 353 3041 
L 353 3500 
z
" transform="scale(0.015625)"/>
      </defs>
      <use xlink:href="#DejaVuSans-56"/>
      <use xlink:href="#DejaVuSans-69" x="66.158203"/>
      <use xlink:href="#DejaVuSans-72" x="93.941406"/>
      <use xlink:href="#DejaVuSans-75" x="135.054688"/>
      <use xlink:href="#DejaVuSans-73" x="198.433594"/>
      <use xlink:href="#DejaVuSans-20" x="250.533203"/>
      <use xlink:href="#DejaVuSans-6e" x="282.320312"/>
      <use xlink:href="#DejaVuSans-65" x="345.699219"/>
      <use xlink:href="#DejaVuSans-75" x="407.222656"/>
      <use xlink:href="#DejaVuSans-74" x="470.601562"/>
      <use xlink:href="#DejaVuSans-72" x="509.810547"/>
      <use xlink:href="#DejaVuSans-61" x="550.923828"/>
      <use xlink:href="#DejaVuSans-6c" x="612.203125"/>
      <use xlink:href="#DejaVuSans-69" x="639.986328"/>
      <use xlink:href="#DejaVuSans-7a" x="667.769531"/>
      <use xlink:href="#DejaVuSans-61" x="720.259766"/>
      <use xlink:href="#DejaVuSans-74" x="781.539062"/>
      <use xlink:href="#DejaVuSans-69" x="820.748047"/>
      <use xlink:href="#DejaVuSans-6f" x="848.53125"/>
      <use xlink:href="#DejaVuSans-6e" x="909.712891"/>
     </g>
     <!--  probability -->
     <g transform="translate(44.7925 278.966562) rotate(-90) scale(0.2 -0.2)">
      <defs>
       <path id="DejaVuSans-62" d="M 3116 1747 
Q 3116 2381 2855 2742 
Q 2594 3103 2138 3103 
Q 1681 3103 1420 2742 
Q 1159 2381 1159 1747 
Q 1159 1113 1420 752 
Q 1681 391 2138 391 
Q 2594 391 2855 752 
Q 3116 1113 3116 1747 
z
M 1159 2969 
Q 1341 3281 1617 3432 
Q 1894 3584 2278 3584 
Q 2916 3584 3314 3078 
Q 3713 2572 3713 1747 
Q 3713 922 3314 415 
Q 2916 -91 2278 -91 
Q 1894 -91 1617 61 
Q 1341 213 1159 525 
L 1159 0 
L 581 0 
L 581 4863 
L 1159 4863 
L 1159 2969 
z
" transform="scale(0.015625)"/>
      </defs>
      <use xlink:href="#DejaVuSans-20"/>
      <use xlink:href="#DejaVuSans-70" x="31.787109"/>
      <use xlink:href="#DejaVuSans-72" x="95.263672"/>
      <use xlink:href="#DejaVuSans-6f" x="134.126953"/>
      <use xlink:href="#DejaVuSans-62" x="195.308594"/>
      <use xlink:href="#DejaVuSans-61" x="258.785156"/>
      <use xlink:href="#DejaVuSans-62" x="320.064453"/>
      <use xlink:href="#DejaVuSans-69" x="383.541016"/>
      <use xlink:href="#DejaVuSans-6c" x="411.324219"/>
      <use xlink:href="#DejaVuSans-69" x="439.107422"/>
      <use xlink:href="#DejaVuSans-74" x="466.890625"/>
      <use xlink:href="#DejaVuSans-79" x="506.099609"/>
     </g>
    </g>
   </g>
   <g id="patch_3">
    <path d="M 104.483125 416.476875 
L 104.483125 28.396875 
" style="fill: none; stroke: #000000; stroke-width: 0.8; stroke-linejoin: miter; stroke-linecap: square"/>
   </g>
   <g id="patch_4">
    <path d="M 662.483125 416.476875 
L 662.483125 28.396875 
" style="fill: none; stroke: #000000; stroke-width: 0.8; stroke-linejoin: miter; stroke-linecap: square"/>
   </g>
   <g id="patch_5">
    <path d="M 104.483125 416.476875 
L 662.483125 416.476875 
" style="fill: none; stroke: #000000; stroke-width: 0.8; stroke-linejoin: miter; stroke-linecap: square"/>
   </g>
   <g id="patch_6">
    <path d="M 104.483125 28.396875 
L 662.483125 28.396875 
" style="fill: none; stroke: #000000; stroke-width: 0.8; stroke-linejoin: miter; stroke-linecap: square"/>
   </g>
   <g id="text_17">
    <!-- Wuhan-Hu-1 antigen -->
    <g transform="translate(280.200312 22.396875) scale(0.2 -0.2)">
     <defs>
      <path id="DejaVuSans-57" d="M 213 4666 
L 850 4666 
L 1831 722 
L 2809 4666 
L 3519 4666 
L 4500 722 
L 5478 4666 
L 6119 4666 
L 4947 0 
L 4153 0 
L 3169 4050 
L 2175 0 
L 1381 0 
L 213 4666 
z
" transform="scale(0.015625)"/>
      <path id="DejaVuSans-68" d="M 3513 2113 
L 3513 0 
L 2938 0 
L 2938 2094 
Q 2938 2591 2744 2837 
Q 2550 3084 2163 3084 
Q 1697 3084 1428 2787 
Q 1159 2491 1159 1978 
L 1159 0 
L 581 0 
L 581 4863 
L 1159 4863 
L 1159 2956 
Q 1366 3272 1645 3428 
Q 1925 3584 2291 3584 
Q 2894 3584 3203 3211 
Q 3513 2838 3513 2113 
z
" transform="scale(0.015625)"/>
      <path id="DejaVuSans-2d" d="M 313 2009 
L 1997 2009 
L 1997 1497 
L 313 1497 
L 313 2009 
z
" transform="scale(0.015625)"/>
      <path id="DejaVuSans-48" d="M 628 4666 
L 1259 4666 
L 1259 2753 
L 3553 2753 
L 3553 4666 
L 4184 4666 
L 4184 0 
L 3553 0 
L 3553 2222 
L 1259 2222 
L 1259 0 
L 628 0 
L 628 4666 
z
" transform="scale(0.015625)"/>
     </defs>
     <use xlink:href="#DejaVuSans-57"/>
     <use xlink:href="#DejaVuSans-75" x="95.251953"/>
     <use xlink:href="#DejaVuSans-68" x="158.630859"/>
     <use xlink:href="#DejaVuSans-61" x="222.009766"/>
     <use xlink:href="#DejaVuSans-6e" x="283.289062"/>
     <use xlink:href="#DejaVuSans-2d" x="346.667969"/>
     <use xlink:href="#DejaVuSans-48" x="382.751953"/>
     <use xlink:href="#DejaVuSans-75" x="457.947266"/>
     <use xlink:href="#DejaVuSans-2d" x="521.326172"/>
     <use xlink:href="#DejaVuSans-31" x="557.410156"/>
     <use xlink:href="#DejaVuSans-20" x="621.033203"/>
     <use xlink:href="#DejaVuSans-61" x="652.820312"/>
     <use xlink:href="#DejaVuSans-6e" x="714.099609"/>
     <use xlink:href="#DejaVuSans-74" x="777.478516"/>
     <use xlink:href="#DejaVuSans-69" x="816.6875"/>
     <use xlink:href="#DejaVuSans-67" x="844.470703"/>
     <use xlink:href="#DejaVuSans-65" x="907.947266"/>
     <use xlink:href="#DejaVuSans-6e" x="969.470703"/>
    </g>
   </g>
   <g id="legend_1">
    <g id="patch_7">
     <path d="M 778.083125 416.476875 
L 927.66125 416.476875 
Q 931.66125 416.476875 931.66125 412.476875 
L 931.66125 384.564375 
Q 931.66125 380.564375 927.66125 380.564375 
L 778.083125 380.564375 
Q 774.083125 380.564375 774.083125 384.564375 
L 774.083125 412.476875 
Q 774.083125 416.476875 778.083125 416.476875 
z
" style="fill: #ffffff; opacity: 0.8; stroke: #cccccc; stroke-linejoin: miter"/>
    </g>
    <g id="patch_8">
     <path d="M 782.083125 403.76125 
L 822.083125 403.76125 
L 822.083125 389.76125 
L 782.083125 389.76125 
z
" style="fill: #ffa500; fill-opacity: 0.3; stroke: #ffa500; stroke-opacity: 0.3; stroke-linejoin: miter"/>
    </g>
    <g id="text_18">
     <!-- BA_2_86 -->
     <g transform="translate(838.083125 403.76125) scale(0.2 -0.2)">
      <defs>
       <path id="DejaVuSans-42" d="M 1259 2228 
L 1259 519 
L 2272 519 
Q 2781 519 3026 730 
Q 3272 941 3272 1375 
Q 3272 1813 3026 2020 
Q 2781 2228 2272 2228 
L 1259 2228 
z
M 1259 4147 
L 1259 2741 
L 2194 2741 
Q 2656 2741 2882 2914 
Q 3109 3088 3109 3444 
Q 3109 3797 2882 3972 
Q 2656 4147 2194 4147 
L 1259 4147 
z
M 628 4666 
L 2241 4666 
Q 2963 4666 3353 4366 
Q 3744 4066 3744 3513 
Q 3744 3084 3544 2831 
Q 3344 2578 2956 2516 
Q 3422 2416 3680 2098 
Q 3938 1781 3938 1306 
Q 3938 681 3513 340 
Q 3088 0 2303 0 
L 628 0 
L 628 4666 
z
" transform="scale(0.015625)"/>
       <path id="DejaVuSans-41" d="M 2188 4044 
L 1331 1722 
L 3047 1722 
L 2188 4044 
z
M 1831 4666 
L 2547 4666 
L 4325 0 
L 3669 0 
L 3244 1197 
L 1141 1197 
L 716 0 
L 50 0 
L 1831 4666 
z
" transform="scale(0.015625)"/>
       <path id="DejaVuSans-5f" d="M 3263 -1063 
L 3263 -1509 
L -63 -1509 
L -63 -1063 
L 3263 -1063 
z
" transform="scale(0.015625)"/>
       <path id="DejaVuSans-38" d="M 2034 2216 
Q 1584 2216 1326 1975 
Q 1069 1734 1069 1313 
Q 1069 891 1326 650 
Q 1584 409 2034 409 
Q 2484 409 2743 651 
Q 3003 894 3003 1313 
Q 3003 1734 2745 1975 
Q 2488 2216 2034 2216 
z
M 1403 2484 
Q 997 2584 770 2862 
Q 544 3141 544 3541 
Q 544 4100 942 4425 
Q 1341 4750 2034 4750 
Q 2731 4750 3128 4425 
Q 3525 4100 3525 3541 
Q 3525 3141 3298 2862 
Q 3072 2584 2669 2484 
Q 3125 2378 3379 2068 
Q 3634 1759 3634 1313 
Q 3634 634 3220 271 
Q 2806 -91 2034 -91 
Q 1263 -91 848 271 
Q 434 634 434 1313 
Q 434 1759 690 2068 
Q 947 2378 1403 2484 
z
M 1172 3481 
Q 1172 3119 1398 2916 
Q 1625 2713 2034 2713 
Q 2441 2713 2670 2916 
Q 2900 3119 2900 3481 
Q 2900 3844 2670 4047 
Q 2441 4250 2034 4250 
Q 1625 4250 1398 4047 
Q 1172 3844 1172 3481 
z
" transform="scale(0.015625)"/>
      </defs>
      <use xlink:href="#DejaVuSans-42"/>
      <use xlink:href="#DejaVuSans-41" x="68.603516"/>
      <use xlink:href="#DejaVuSans-5f" x="137.011719"/>
      <use xlink:href="#DejaVuSans-32" x="187.011719"/>
      <use xlink:href="#DejaVuSans-5f" x="250.634766"/>
      <use xlink:href="#DejaVuSans-38" x="300.634766"/>
      <use xlink:href="#DejaVuSans-36" x="364.257812"/>
     </g>
    </g>
   </g>
  </g>
 </g>
 <defs>
  <clipPath id="p43c2697490">
   <rect x="104.483125" y="28.396875" width="558" height="388.08"/>
  </clipPath>
 </defs>
</svg>
