<?xml version="1.0" encoding="utf-8" standalone="no"?>
<!DOCTYPE svg PUBLIC "-//W3C//DTD SVG 1.1//EN"
  "http://www.w3.org/Graphics/SVG/1.1/DTD/svg11.dtd">
<svg xmlns:xlink="http://www.w3.org/1999/xlink" width="1049.0175pt" height="452.1925pt" viewBox="0 0 1049.0175 452.1925" xmlns="http://www.w3.org/2000/svg" version="1.1">
 <metadata>
  <rdf:RDF xmlns:dc="http://purl.org/dc/elements/1.1/" xmlns:cc="http://creativecommons.org/ns#" xmlns:rdf="http://www.w3.org/1999/02/22-rdf-syntax-ns#">
   <cc:Work>
    <dc:type rdf:resource="http://purl.org/dc/dcmitype/StillImage"/>
    <dc:date>2024-02-06T18:17:35.053698</dc:date>
    <dc:format>image/svg+xml</dc:format>
    <dc:creator>
     <cc:Agent>
      <dc:title>Matplotlib v3.7.2, https://matplotlib.org/</dc:title>
     </cc:Agent>
    </dc:creator>
   </cc:Work>
  </rdf:RDF>
 </metadata>
 <defs>
  <style type="text/css">*{stroke-linejoin: round; stroke-linecap: butt}</style>
 </defs>
 <g id="figure_1">
  <g id="patch_1">
   <path d="M 0 452.1925 
L 1049.0175 452.1925 
L 1049.0175 0 
L 0 0 
z
" style="fill: #ffffff"/>
  </g>
  <g id="axes_1">
   <g id="patch_2">
    <path d="M 91.758125 395.28 
L 649.758125 395.28 
L 649.758125 7.2 
L 91.758125 7.2 
z
" style="fill: #ffffff"/>
   </g>
   <g id="PolyCollection_1">
    <defs>
     <path id="m37adc060e4" d="M 117.121761 -166.896817 
L 117.121761 -119.824733 
L 117.897408 -148.212586 
L 118.673054 -174.53526 
L 119.4487 -198.906076 
L 120.224347 -221.432746 
L 120.999993 -242.217642 
L 121.77564 -261.358046 
L 122.551286 -278.946388 
L 123.326932 -295.070479 
L 124.102579 -309.813726 
L 124.878225 -323.255346 
L 125.653871 -335.470557 
L 126.429518 -346.530774 
L 127.205164 -356.503791 
L 127.980811 -365.453948 
L 128.756457 -373.4423 
L 129.532103 -380.526774 
L 130.30775 -386.762317 
L 131.083396 -392.201041 
L 131.859042 -395.646655 
L 132.634689 -390.676986 
L 133.410335 -385.377949 
L 134.185982 -379.822056 
L 134.961628 -374.071167 
L 135.737274 -368.177968 
L 136.512921 -362.187239 
L 137.288567 -356.136955 
L 138.064213 -350.059233 
L 138.83986 -343.981152 
L 139.615506 -337.925453 
L 140.391153 -331.911157 
L 141.166799 -325.954083 
L 141.942445 -320.067302 
L 142.718092 -314.261533 
L 143.493738 -308.545475 
L 144.269384 -302.926098 
L 145.045031 -297.408899 
L 145.820677 -291.998109 
L 146.596323 -286.696888 
L 147.37197 -281.507479 
L 148.147616 -276.43135 
L 148.923263 -271.469309 
L 149.698909 -266.621612 
L 150.474555 -261.888045 
L 151.250202 -257.268002 
L 152.025848 -252.760551 
L 152.801494 -248.36449 
L 153.577141 -244.078392 
L 154.352787 -239.900649 
L 155.128434 -235.829506 
L 155.90408 -231.863091 
L 156.679726 -227.99944 
L 157.455373 -224.236521 
L 158.231019 -220.572252 
L 159.006665 -217.004513 
L 159.782312 -213.531167 
L 160.557958 -210.150065 
L 161.333605 -206.859057 
L 162.109251 -203.656002 
L 162.884897 -200.538774 
L 163.660544 -197.505266 
L 164.43619 -194.553396 
L 165.211836 -191.681111 
L 165.987483 -188.88639 
L 166.763129 -186.167245 
L 167.538776 -183.521725 
L 168.314422 -180.947917 
L 169.090068 -178.443945 
L 169.865715 -176.007974 
L 170.641361 -173.638209 
L 171.417007 -171.332895 
L 172.192654 -169.090317 
L 172.9683 -166.908802 
L 173.743947 -164.786714 
L 174.519593 -162.72246 
L 175.295239 -160.714484 
L 176.070886 -158.761272 
L 176.846532 -156.861345 
L 177.622178 -155.013263 
L 178.397825 -153.215623 
L 179.173471 -151.467059 
L 179.949117 -149.76624 
L 180.724764 -148.11187 
L 181.50041 -146.502687 
L 182.276057 -144.937461 
L 183.051703 -143.414999 
L 183.827349 -141.934134 
L 184.602996 -140.493735 
L 185.378642 -139.092699 
L 186.154288 -137.729952 
L 186.929935 -136.404452 
L 187.705581 -135.115181 
L 188.481228 -133.861151 
L 189.256874 -132.641401 
L 190.03252 -131.454995 
L 190.808167 -130.301022 
L 191.583813 -129.178597 
L 192.359459 -128.086858 
L 193.135106 -127.024967 
L 193.910752 -125.992108 
L 194.686399 -124.987489 
L 195.462045 -124.010337 
L 196.237691 -123.059902 
L 197.013338 -122.135455 
L 197.788984 -121.236284 
L 198.56463 -120.361698 
L 199.340277 -119.511027 
L 200.115923 -118.683616 
L 200.89157 -117.878829 
L 201.667216 -117.096048 
L 202.442862 -116.33467 
L 203.218509 -115.594113 
L 203.994155 -114.873804 
L 204.769801 -114.173193 
L 205.545448 -113.491738 
L 206.321094 -112.828918 
L 207.096741 -112.184222 
L 207.872387 -111.557155 
L 208.648033 -110.947235 
L 209.42368 -110.353993 
L 210.199326 -109.776973 
L 210.974972 -109.215732 
L 211.750619 -108.669837 
L 212.526265 -108.13887 
L 213.301911 -107.622422 
L 214.077558 -107.120096 
L 214.853204 -106.631507 
L 215.628851 -106.156277 
L 216.404497 -105.694043 
L 217.180143 -105.244448 
L 217.95579 -104.807148 
L 218.731436 -104.381806 
L 219.507082 -103.968094 
L 220.282729 -103.565696 
L 221.058375 -103.174301 
L 221.834022 -102.793609 
L 222.609668 -102.423327 
L 223.385314 -102.06317 
L 224.160961 -101.712861 
L 224.936607 -101.372132 
L 225.712253 -101.04072 
L 226.4879 -100.718371 
L 227.263546 -100.404836 
L 228.039193 -100.099875 
L 228.814839 -99.803253 
L 229.590485 -99.514742 
L 230.366132 -99.234121 
L 231.141778 -98.961173 
L 231.917424 -98.695689 
L 232.693071 -98.437464 
L 233.468717 -98.186301 
L 234.244364 -97.942006 
L 235.02001 -97.704391 
L 235.795656 -97.473273 
L 236.571303 -97.248476 
L 237.346949 -97.029825 
L 238.122595 -96.817154 
L 238.898242 -96.610298 
L 239.673888 -96.409099 
L 240.449535 -96.213401 
L 241.225181 -96.023055 
L 242.000827 -95.837914 
L 242.776474 -95.657835 
L 243.55212 -95.482681 
L 244.327766 -95.312316 
L 245.103413 -95.14661 
L 245.879059 -94.985436 
L 246.654705 -94.828668 
L 247.430352 -94.676188 
L 248.205998 -94.527877 
L 248.981645 -94.383621 
L 249.757291 -94.24331 
L 250.532937 -94.106836 
L 251.308584 -93.974094 
L 252.08423 -93.844982 
L 252.859876 -93.7194 
L 253.635523 -93.597253 
L 254.411169 -93.478445 
L 255.186816 -93.362887 
L 255.962462 -93.250488 
L 256.738108 -93.141163 
L 257.513755 -93.034827 
L 258.289401 -92.931399 
L 259.065047 -92.830799 
L 259.840694 -92.732951 
L 260.61634 -92.637778 
L 261.391987 -92.545207 
L 262.167633 -92.455168 
L 262.943279 -92.367591 
L 263.718926 -92.282408 
L 264.494572 -92.199555 
L 265.270218 -92.118968 
L 266.045865 -92.040584 
L 266.821511 -91.964344 
L 267.597158 -91.890188 
L 268.372804 -91.818061 
L 269.14845 -91.747905 
L 269.924097 -91.679668 
L 270.699743 -91.613297 
L 271.475389 -91.548741 
L 272.251036 -91.48595 
L 273.026682 -91.424876 
L 273.802329 -91.365473 
L 274.577975 -91.307693 
L 275.353621 -91.251494 
L 276.129268 -91.196831 
L 276.904914 -91.143664 
L 277.68056 -91.09195 
L 278.456207 -91.04165 
L 279.231853 -90.992725 
L 280.007499 -90.945139 
L 280.783146 -90.898853 
L 281.558792 -90.853834 
L 282.334439 -90.810045 
L 283.110085 -90.767454 
L 283.885731 -90.726028 
L 284.661378 -90.685734 
L 285.437024 -90.646542 
L 286.21267 -90.608422 
L 286.988317 -90.571344 
L 287.763963 -90.53528 
L 288.53961 -90.500203 
L 289.315256 -90.466084 
L 290.090902 -90.432899 
L 290.866549 -90.400621 
L 291.642195 -90.369225 
L 292.417841 -90.338688 
L 293.193488 -90.308986 
L 293.969134 -90.280097 
L 294.744781 -90.251997 
L 295.520427 -90.224666 
L 296.296073 -90.198082 
L 297.07172 -90.172225 
L 297.847366 -90.147075 
L 298.623012 -90.122613 
L 299.398659 -90.098819 
L 300.174305 -90.075677 
L 300.949952 -90.053167 
L 301.725598 -90.031273 
L 302.501244 -90.009977 
L 303.276891 -89.989264 
L 304.052537 -89.969117 
L 304.828183 -89.949521 
L 305.60383 -89.930461 
L 306.379476 -89.911922 
L 307.155122 -89.89389 
L 307.930769 -89.876351 
L 308.706415 -89.859292 
L 309.482062 -89.842699 
L 310.257708 -89.82656 
L 311.033354 -89.810863 
L 311.809001 -89.795594 
L 312.584647 -89.780743 
L 313.360293 -89.766298 
L 314.13594 -89.752248 
L 314.911586 -89.738583 
L 315.687233 -89.725291 
L 316.462879 -89.712362 
L 317.238525 -89.699787 
L 318.014172 -89.687556 
L 318.789818 -89.67566 
L 319.565464 -89.664088 
L 320.341111 -89.652833 
L 321.116757 -89.641886 
L 321.892404 -89.631239 
L 322.66805 -89.620882 
L 323.443696 -89.610808 
L 324.219343 -89.601011 
L 324.994989 -89.59148 
L 325.770635 -89.582211 
L 326.546282 -89.573195 
L 327.321928 -89.564426 
L 328.097575 -89.555896 
L 328.873221 -89.5476 
L 329.648867 -89.53953 
L 330.424514 -89.531681 
L 331.20016 -89.524047 
L 331.975806 -89.516622 
L 332.751453 -89.509399 
L 333.527099 -89.502374 
L 334.302746 -89.495541 
L 335.078392 -89.488895 
L 335.854038 -89.482431 
L 336.629685 -89.476144 
L 337.405331 -89.470028 
L 338.180977 -89.46408 
L 338.956624 -89.458294 
L 339.73227 -89.452667 
L 340.507916 -89.447193 
L 341.283563 -89.441869 
L 342.059209 -89.436691 
L 342.834856 -89.431654 
L 343.610502 -89.426755 
L 344.386148 -89.42199 
L 345.161795 -89.417356 
L 345.937441 -89.412848 
L 346.713087 -89.408463 
L 347.488734 -89.404198 
L 348.26438 -89.40005 
L 349.040027 -89.396015 
L 349.815673 -89.392091 
L 350.591319 -89.388274 
L 351.366966 -89.384561 
L 352.142612 -89.38095 
L 352.918258 -89.377437 
L 353.693905 -89.374021 
L 354.469551 -89.370698 
L 355.245198 -89.367466 
L 356.020844 -89.364322 
L 356.79649 -89.361264 
L 357.572137 -89.35829 
L 358.347783 -89.355397 
L 359.123429 -89.352583 
L 359.899076 -89.349847 
L 360.674722 -89.347185 
L 361.450369 -89.344595 
L 362.226015 -89.342077 
L 363.001661 -89.339628 
L 363.777308 -89.337245 
L 364.552954 -89.334928 
L 365.3286 -89.332674 
L 366.104247 -89.330481 
L 366.879893 -89.328349 
L 367.65554 -89.326275 
L 368.431186 -89.324258 
L 369.206832 -89.322295 
L 369.982479 -89.320387 
L 370.758125 -89.31853 
L 371.533771 -89.316725 
L 372.309418 -89.314969 
L 373.085064 -89.31326 
L 373.86071 -89.311599 
L 374.636357 -89.309983 
L 375.412003 -89.308411 
L 376.18765 -89.306882 
L 376.963296 -89.305395 
L 377.738942 -89.303949 
L 378.514589 -89.302542 
L 379.290235 -89.301173 
L 380.065881 -89.299842 
L 380.841528 -89.298548 
L 381.617174 -89.297289 
L 382.392821 -89.296064 
L 383.168467 -89.294873 
L 383.944113 -89.293714 
L 384.71976 -89.292587 
L 385.495406 -89.291491 
L 386.271052 -89.290425 
L 387.046699 -89.289387 
L 387.822345 -89.288379 
L 388.597992 -89.287398 
L 389.373638 -89.286443 
L 390.149284 -89.285515 
L 390.924931 -89.284612 
L 391.700577 -89.283734 
L 392.476223 -89.28288 
L 393.25187 -89.282049 
L 394.027516 -89.281241 
L 394.803163 -89.280455 
L 395.578809 -89.279691 
L 396.354455 -89.278947 
L 397.130102 -89.278224 
L 397.905748 -89.277521 
L 398.681394 -89.276837 
L 399.457041 -89.276171 
L 400.232687 -89.275524 
L 401.008334 -89.274894 
L 401.78398 -89.274282 
L 402.559626 -89.273686 
L 403.335273 -89.273107 
L 404.110919 -89.272543 
L 404.886565 -89.271995 
L 405.662212 -89.271462 
L 406.437858 -89.270944 
L 407.213504 -89.270439 
L 407.989151 -89.269949 
L 408.764797 -89.269472 
L 409.540444 -89.269008 
L 410.31609 -89.268556 
L 411.091736 -89.268117 
L 411.867383 -89.26769 
L 412.643029 -89.267275 
L 413.418675 -89.266871 
L 414.194322 -89.266478 
L 414.969968 -89.266096 
L 415.745615 -89.265724 
L 416.521261 -89.265362 
L 417.296907 -89.26501 
L 418.072554 -89.264668 
L 418.8482 -89.264336 
L 419.623846 -89.264012 
L 420.399493 -89.263697 
L 421.175139 -89.263391 
L 421.950786 -89.263093 
L 422.726432 -89.262803 
L 423.502078 -89.262522 
L 424.277725 -89.262248 
L 425.053371 -89.261981 
L 425.829017 -89.261722 
L 426.604664 -89.26147 
L 427.38031 -89.261224 
L 428.155957 -89.260986 
L 428.931603 -89.260754 
L 429.707249 -89.260528 
L 430.482896 -89.260309 
L 431.258542 -89.260095 
L 432.034188 -89.259887 
L 432.809835 -89.259685 
L 433.585481 -89.259489 
L 434.361128 -89.259298 
L 435.136774 -89.259112 
L 435.91242 -89.258931 
L 436.688067 -89.258755 
L 437.463713 -89.258584 
L 438.239359 -89.258418 
L 439.015006 -89.258256 
L 439.790652 -89.258099 
L 440.566298 -89.257945 
L 441.341945 -89.257797 
L 442.117591 -89.257652 
L 442.893238 -89.257511 
L 443.668884 -89.257374 
L 444.44453 -89.257241 
L 445.220177 -89.257111 
L 445.995823 -89.256985 
L 446.771469 -89.256862 
L 447.547116 -89.256743 
L 448.322762 -89.256627 
L 449.098409 -89.256514 
L 449.874055 -89.256404 
L 450.649701 -89.256298 
L 451.425348 -89.256194 
L 452.200994 -89.256093 
L 452.97664 -89.255994 
L 453.752287 -89.255899 
L 454.527933 -89.255806 
L 455.30358 -89.255716 
L 456.079226 -89.255628 
L 456.854872 -89.255542 
L 457.630519 -89.255459 
L 458.406165 -89.255378 
L 459.181811 -89.255299 
L 459.957458 -89.255223 
L 460.733104 -89.255148 
L 461.508751 -89.255076 
L 462.284397 -89.255005 
L 463.060043 -89.254937 
L 463.83569 -89.25487 
L 464.611336 -89.254805 
L 465.386982 -89.254742 
L 466.162629 -89.254681 
L 466.938275 -89.254621 
L 467.713921 -89.254563 
L 468.489568 -89.254507 
L 469.265214 -89.254452 
L 470.040861 -89.254399 
L 470.816507 -89.254347 
L 471.592153 -89.254296 
L 472.3678 -89.254247 
L 473.143446 -89.254199 
L 473.919092 -89.254153 
L 474.694739 -89.254108 
L 475.470385 -89.254064 
L 476.246032 -89.254021 
L 477.021678 -89.253979 
L 477.797324 -89.253939 
L 478.572971 -89.2539 
L 479.348617 -89.253861 
L 480.124263 -89.253824 
L 480.89991 -89.253788 
L 481.675556 -89.253753 
L 482.451203 -89.253718 
L 483.226849 -89.253685 
L 484.002495 -89.253653 
L 484.778142 -89.253621 
L 485.553788 -89.253591 
L 486.329434 -89.253561 
L 487.105081 -89.253532 
L 487.880727 -89.253504 
L 488.656374 -89.253476 
L 489.43202 -89.253449 
L 490.207666 -89.253423 
L 490.983313 -89.253398 
L 491.758959 -89.253374 
L 492.534605 -89.25335 
L 493.310252 -89.253326 
L 494.085898 -89.253304 
L 494.861545 -89.253282 
L 495.637191 -89.253261 
L 496.412837 -89.25324 
L 497.188484 -89.253219 
L 497.96413 -89.2532 
L 498.739776 -89.253181 
L 499.515423 -89.253162 
L 500.291069 -89.253144 
L 501.066715 -89.253126 
L 501.842362 -89.253109 
L 502.618008 -89.253093 
L 503.393655 -89.253076 
L 504.169301 -89.253061 
L 504.944947 -89.253045 
L 505.720594 -89.25303 
L 506.49624 -89.253016 
L 507.271886 -89.253002 
L 508.047533 -89.252988 
L 508.823179 -89.252975 
L 509.598826 -89.252962 
L 510.374472 -89.252949 
L 511.150118 -89.252937 
L 511.925765 -89.252925 
L 512.701411 -89.252913 
L 513.477057 -89.252902 
L 514.252704 -89.252891 
L 515.02835 -89.25288 
L 515.803997 -89.25287 
L 516.579643 -89.25286 
L 517.355289 -89.25285 
L 518.130936 -89.25284 
L 518.906582 -89.252831 
L 519.682228 -89.252822 
L 520.457875 -89.252813 
L 521.233521 -89.252805 
L 522.009168 -89.252796 
L 522.784814 -89.252788 
L 523.56046 -89.25278 
L 524.336107 -89.252773 
L 525.111753 -89.252765 
L 525.887399 -89.252758 
L 526.663046 -89.252751 
L 527.438692 -89.252744 
L 528.214339 -89.252737 
L 528.989985 -89.252731 
L 529.765631 -89.252725 
L 530.541278 -89.252718 
L 531.316924 -89.252712 
L 532.09257 -89.252707 
L 532.868217 -89.252701 
L 533.643863 -89.252695 
L 534.419509 -89.25269 
L 535.195156 -89.252685 
L 535.970802 -89.25268 
L 536.746449 -89.252675 
L 537.522095 -89.25267 
L 538.297741 -89.252666 
L 539.073388 -89.252661 
L 539.849034 -89.252657 
L 540.62468 -89.252652 
L 541.400327 -89.252648 
L 542.175973 -89.252644 
L 542.95162 -89.25264 
L 543.727266 -89.252636 
L 544.502912 -89.252633 
L 545.278559 -89.252629 
L 546.054205 -89.252625 
L 546.829851 -89.252622 
L 547.605498 -89.252619 
L 548.381144 -89.252615 
L 549.156791 -89.252612 
L 549.932437 -89.252609 
L 550.708083 -89.252606 
L 551.48373 -89.252603 
L 552.259376 -89.2526 
L 553.035022 -89.252598 
L 553.810669 -89.252595 
L 554.586315 -89.252592 
L 555.361962 -89.25259 
L 556.137608 -89.252587 
L 556.913254 -89.252585 
L 557.688901 -89.252583 
L 558.464547 -89.25258 
L 559.240193 -89.252578 
L 560.01584 -89.252576 
L 560.791486 -89.252574 
L 561.567133 -89.252572 
L 562.342779 -89.25257 
L 563.118425 -89.252568 
L 563.894072 -89.252566 
L 564.669718 -89.252564 
L 565.445364 -89.252563 
L 566.221011 -89.252561 
L 566.996657 -89.252559 
L 567.772303 -89.252558 
L 568.54795 -89.252556 
L 569.323596 -89.252555 
L 570.099243 -89.252553 
L 570.874889 -89.252552 
L 571.650535 -89.25255 
L 572.426182 -89.252549 
L 573.201828 -89.252548 
L 573.977474 -89.252546 
L 574.753121 -89.252545 
L 575.528767 -89.252544 
L 576.304414 -89.252543 
L 577.08006 -89.252541 
L 577.855706 -89.25254 
L 578.631353 -89.252539 
L 579.406999 -89.252538 
L 580.182645 -89.252537 
L 580.958292 -89.252536 
L 581.733938 -89.252535 
L 582.509585 -89.252534 
L 583.285231 -89.252533 
L 584.060877 -89.252532 
L 584.836524 -89.252531 
L 585.61217 -89.252531 
L 586.387816 -89.25253 
L 587.163463 -89.252529 
L 587.939109 -89.252528 
L 588.714756 -89.252527 
L 589.490402 -89.252527 
L 590.266048 -89.252526 
L 591.041695 -89.252525 
L 591.817341 -89.252524 
L 592.592987 -89.252524 
L 593.368634 -89.252523 
L 594.14428 -89.252522 
L 594.919927 -89.252522 
L 595.695573 -89.252521 
L 596.471219 -89.252521 
L 597.246866 -89.25252 
L 598.022512 -89.25252 
L 598.798158 -89.252519 
L 599.573805 -89.252519 
L 600.349451 -89.252518 
L 601.125097 -89.252518 
L 601.900744 -89.252517 
L 602.67639 -89.252517 
L 603.452037 -89.252516 
L 604.227683 -89.252516 
L 605.003329 -89.252515 
L 605.778976 -89.252515 
L 606.554622 -89.252514 
L 607.330268 -89.252514 
L 608.105915 -89.252514 
L 608.881561 -89.252513 
L 609.657208 -89.252513 
L 610.432854 -89.252513 
L 611.2085 -89.252512 
L 611.984147 -89.252512 
L 612.759793 -89.252512 
L 613.535439 -89.252511 
L 614.311086 -89.252511 
L 615.086732 -89.252511 
L 615.862379 -89.25251 
L 616.638025 -89.25251 
L 617.413671 -89.25251 
L 618.189318 -89.25251 
L 618.964964 -89.252509 
L 619.74061 -89.252509 
L 620.516257 -89.252509 
L 621.291903 -89.252509 
L 622.06755 -89.252508 
L 622.843196 -89.252508 
L 623.618842 -89.252508 
L 624.394489 -89.252508 
L 624.394489 -89.924579 
L 624.394489 -89.924579 
L 623.618842 -89.931364 
L 622.843196 -89.938218 
L 622.06755 -89.945141 
L 621.291903 -89.952134 
L 620.516257 -89.959198 
L 619.74061 -89.966333 
L 618.964964 -89.97354 
L 618.189318 -89.98082 
L 617.413671 -89.988173 
L 616.638025 -89.995601 
L 615.862379 -90.003103 
L 615.086732 -90.010682 
L 614.311086 -90.018336 
L 613.535439 -90.026068 
L 612.759793 -90.033879 
L 611.984147 -90.041767 
L 611.2085 -90.049736 
L 610.432854 -90.057785 
L 609.657208 -90.065916 
L 608.881561 -90.074128 
L 608.105915 -90.082423 
L 607.330268 -90.090802 
L 606.554622 -90.099266 
L 605.778976 -90.107815 
L 605.003329 -90.116451 
L 604.227683 -90.125173 
L 603.452037 -90.133984 
L 602.67639 -90.142884 
L 601.900744 -90.151873 
L 601.125097 -90.160954 
L 600.349451 -90.170126 
L 599.573805 -90.17939 
L 598.798158 -90.188748 
L 598.022512 -90.198201 
L 597.246866 -90.207749 
L 596.471219 -90.217393 
L 595.695573 -90.227135 
L 594.919927 -90.236975 
L 594.14428 -90.246915 
L 593.368634 -90.256955 
L 592.592987 -90.267096 
L 591.817341 -90.277339 
L 591.041695 -90.287686 
L 590.266048 -90.298138 
L 589.490402 -90.308695 
L 588.714756 -90.319359 
L 587.939109 -90.33013 
L 587.163463 -90.34101 
L 586.387816 -90.352 
L 585.61217 -90.3631 
L 584.836524 -90.374313 
L 584.060877 -90.385639 
L 583.285231 -90.39708 
L 582.509585 -90.408636 
L 581.733938 -90.420308 
L 580.958292 -90.432099 
L 580.182645 -90.444008 
L 579.406999 -90.456038 
L 578.631353 -90.468189 
L 577.855706 -90.480463 
L 577.08006 -90.492861 
L 576.304414 -90.505384 
L 575.528767 -90.518033 
L 574.753121 -90.530811 
L 573.977474 -90.543717 
L 573.201828 -90.556753 
L 572.426182 -90.569921 
L 571.650535 -90.583222 
L 570.874889 -90.596657 
L 570.099243 -90.610228 
L 569.323596 -90.623936 
L 568.54795 -90.637783 
L 567.772303 -90.651769 
L 566.996657 -90.665896 
L 566.221011 -90.680166 
L 565.445364 -90.69458 
L 564.669718 -90.70914 
L 563.894072 -90.723846 
L 563.118425 -90.738701 
L 562.342779 -90.753707 
L 561.567133 -90.768863 
L 560.791486 -90.784173 
L 560.01584 -90.799637 
L 559.240193 -90.815257 
L 558.464547 -90.831035 
L 557.688901 -90.846972 
L 556.913254 -90.86307 
L 556.137608 -90.879331 
L 555.361962 -90.895756 
L 554.586315 -90.912347 
L 553.810669 -90.929105 
L 553.035022 -90.946032 
L 552.259376 -90.963131 
L 551.48373 -90.980402 
L 550.708083 -90.997847 
L 549.932437 -91.015468 
L 549.156791 -91.033268 
L 548.381144 -91.051247 
L 547.605498 -91.069407 
L 546.829851 -91.087751 
L 546.054205 -91.10628 
L 545.278559 -91.124997 
L 544.502912 -91.143902 
L 543.727266 -91.162998 
L 542.95162 -91.182287 
L 542.175973 -91.20177 
L 541.400327 -91.22145 
L 540.62468 -91.241329 
L 539.849034 -91.261409 
L 539.073388 -91.281692 
L 538.297741 -91.302179 
L 537.522095 -91.322873 
L 536.746449 -91.343776 
L 535.970802 -91.36489 
L 535.195156 -91.386217 
L 534.419509 -91.40776 
L 533.643863 -91.42952 
L 532.868217 -91.451499 
L 532.09257 -91.473701 
L 531.316924 -91.496127 
L 530.541278 -91.518779 
L 529.765631 -91.54166 
L 528.989985 -91.564772 
L 528.214339 -91.588117 
L 527.438692 -91.611698 
L 526.663046 -91.635517 
L 525.887399 -91.659576 
L 525.111753 -91.683879 
L 524.336107 -91.708427 
L 523.56046 -91.733222 
L 522.784814 -91.758268 
L 522.009168 -91.783567 
L 521.233521 -91.809121 
L 520.457875 -91.834933 
L 519.682228 -91.861006 
L 518.906582 -91.887342 
L 518.130936 -91.913944 
L 517.355289 -91.940815 
L 516.579643 -91.967957 
L 515.803997 -91.995373 
L 515.02835 -92.023065 
L 514.252704 -92.051038 
L 513.477057 -92.079292 
L 512.701411 -92.107832 
L 511.925765 -92.136661 
L 511.150118 -92.16578 
L 510.374472 -92.195193 
L 509.598826 -92.224903 
L 508.823179 -92.254913 
L 508.047533 -92.285226 
L 507.271886 -92.315845 
L 506.49624 -92.346774 
L 505.720594 -92.378014 
L 504.944947 -92.40957 
L 504.169301 -92.441445 
L 503.393655 -92.473641 
L 502.618008 -92.506162 
L 501.842362 -92.539012 
L 501.066715 -92.572193 
L 500.291069 -92.60571 
L 499.515423 -92.639565 
L 498.739776 -92.673761 
L 497.96413 -92.708303 
L 497.188484 -92.743194 
L 496.412837 -92.778437 
L 495.637191 -92.814035 
L 494.861545 -92.849993 
L 494.085898 -92.886315 
L 493.310252 -92.923002 
L 492.534605 -92.960061 
L 491.758959 -92.997493 
L 490.983313 -93.035303 
L 490.207666 -93.073495 
L 489.43202 -93.112073 
L 488.656374 -93.15104 
L 487.880727 -93.190401 
L 487.105081 -93.230159 
L 486.329434 -93.270318 
L 485.553788 -93.310883 
L 484.778142 -93.351858 
L 484.002495 -93.393246 
L 483.226849 -93.435052 
L 482.451203 -93.47728 
L 481.675556 -93.519934 
L 480.89991 -93.563019 
L 480.124263 -93.606539 
L 479.348617 -93.650498 
L 478.572971 -93.694902 
L 477.797324 -93.739753 
L 477.021678 -93.785058 
L 476.246032 -93.830819 
L 475.470385 -93.877043 
L 474.694739 -93.923734 
L 473.919092 -93.970896 
L 473.143446 -94.018534 
L 472.3678 -94.066653 
L 471.592153 -94.115257 
L 470.816507 -94.164353 
L 470.040861 -94.213944 
L 469.265214 -94.264036 
L 468.489568 -94.314634 
L 467.713921 -94.365742 
L 466.938275 -94.417367 
L 466.162629 -94.469513 
L 465.386982 -94.522185 
L 464.611336 -94.575389 
L 463.83569 -94.62913 
L 463.060043 -94.683414 
L 462.284397 -94.738245 
L 461.508751 -94.793631 
L 460.733104 -94.849575 
L 459.957458 -94.906085 
L 459.181811 -94.963165 
L 458.406165 -95.020821 
L 457.630519 -95.079059 
L 456.854872 -95.137886 
L 456.079226 -95.197306 
L 455.30358 -95.257326 
L 454.527933 -95.317952 
L 453.752287 -95.379191 
L 452.97664 -95.441047 
L 452.200994 -95.503528 
L 451.425348 -95.56664 
L 450.649701 -95.630389 
L 449.874055 -95.694782 
L 449.098409 -95.759824 
L 448.322762 -95.825524 
L 447.547116 -95.891887 
L 446.771469 -95.95892 
L 445.995823 -96.026629 
L 445.220177 -96.095022 
L 444.44453 -96.164106 
L 443.668884 -96.233887 
L 442.893238 -96.304373 
L 442.117591 -96.375571 
L 441.341945 -96.447487 
L 440.566298 -96.520129 
L 439.790652 -96.593505 
L 439.015006 -96.667621 
L 438.239359 -96.742486 
L 437.463713 -96.818107 
L 436.688067 -96.894491 
L 435.91242 -96.971646 
L 435.136774 -97.049581 
L 434.361128 -97.128302 
L 433.585481 -97.207818 
L 432.809835 -97.288137 
L 432.034188 -97.369266 
L 431.258542 -97.451215 
L 430.482896 -97.533991 
L 429.707249 -97.617603 
L 428.931603 -97.702059 
L 428.155957 -97.787368 
L 427.38031 -97.873538 
L 426.604664 -97.960578 
L 425.829017 -98.048497 
L 425.053371 -98.137303 
L 424.277725 -98.227007 
L 423.502078 -98.317615 
L 422.726432 -98.409139 
L 421.950786 -98.501586 
L 421.175139 -98.594967 
L 420.399493 -98.689291 
L 419.623846 -98.784567 
L 418.8482 -98.880805 
L 418.072554 -98.978015 
L 417.296907 -99.076206 
L 416.521261 -99.175389 
L 415.745615 -99.275572 
L 414.969968 -99.376768 
L 414.194322 -99.478985 
L 413.418675 -99.582234 
L 412.643029 -99.686525 
L 411.867383 -99.79187 
L 411.091736 -99.898278 
L 410.31609 -100.00576 
L 409.540444 -100.114327 
L 408.764797 -100.223991 
L 407.989151 -100.334762 
L 407.213504 -100.446651 
L 406.437858 -100.55967 
L 405.662212 -100.67383 
L 404.886565 -100.789142 
L 404.110919 -100.905619 
L 403.335273 -101.023271 
L 402.559626 -101.142112 
L 401.78398 -101.262152 
L 401.008334 -101.383405 
L 400.232687 -101.505881 
L 399.457041 -101.629594 
L 398.681394 -101.754556 
L 397.905748 -101.88078 
L 397.130102 -102.008278 
L 396.354455 -102.137063 
L 395.578809 -102.267149 
L 394.803163 -102.398548 
L 394.027516 -102.531274 
L 393.25187 -102.665339 
L 392.476223 -102.800758 
L 391.700577 -102.937545 
L 390.924931 -103.075712 
L 390.149284 -103.215275 
L 389.373638 -103.356246 
L 388.597992 -103.498641 
L 387.822345 -103.642474 
L 387.046699 -103.787758 
L 386.271052 -103.93451 
L 385.495406 -104.082743 
L 384.71976 -104.232472 
L 383.944113 -104.383714 
L 383.168467 -104.536482 
L 382.392821 -104.690793 
L 381.617174 -104.846661 
L 380.841528 -105.004104 
L 380.065881 -105.163136 
L 379.290235 -105.323773 
L 378.514589 -105.486033 
L 377.738942 -105.64993 
L 376.963296 -105.815483 
L 376.18765 -105.982706 
L 375.412003 -106.151619 
L 374.636357 -106.322236 
L 373.86071 -106.494576 
L 373.085064 -106.668656 
L 372.309418 -106.844494 
L 371.533771 -107.022107 
L 370.758125 -107.201513 
L 369.982479 -107.382731 
L 369.206832 -107.565778 
L 368.431186 -107.750673 
L 367.65554 -107.937435 
L 366.879893 -108.126082 
L 366.104247 -108.316635 
L 365.3286 -108.509111 
L 364.552954 -108.70353 
L 363.777308 -108.899912 
L 363.001661 -109.098277 
L 362.226015 -109.298645 
L 361.450369 -109.501035 
L 360.674722 -109.705469 
L 359.899076 -109.911968 
L 359.123429 -110.12055 
L 358.347783 -110.331239 
L 357.572137 -110.544055 
L 356.79649 -110.75902 
L 356.020844 -110.976155 
L 355.245198 -111.195482 
L 354.469551 -111.417023 
L 353.693905 -111.640802 
L 352.918258 -111.866839 
L 352.142612 -112.095159 
L 351.366966 -112.325784 
L 350.591319 -112.558737 
L 349.815673 -112.794043 
L 349.040027 -113.031724 
L 348.26438 -113.271804 
L 347.488734 -113.514309 
L 346.713087 -113.759262 
L 345.937441 -114.006688 
L 345.161795 -114.256612 
L 344.386148 -114.50906 
L 343.610502 -114.764056 
L 342.834856 -115.021627 
L 342.059209 -115.281798 
L 341.283563 -115.544596 
L 340.507916 -115.810047 
L 339.73227 -116.078179 
L 338.956624 -116.349017 
L 338.180977 -116.62259 
L 337.405331 -116.898925 
L 336.629685 -117.17805 
L 335.854038 -117.459993 
L 335.078392 -117.744782 
L 334.302746 -118.032447 
L 333.527099 -118.323016 
L 332.751453 -118.616519 
L 331.975806 -118.912985 
L 331.20016 -119.212445 
L 330.424514 -119.514927 
L 329.648867 -119.820464 
L 328.873221 -120.129085 
L 328.097575 -120.440823 
L 327.321928 -120.755707 
L 326.546282 -121.073771 
L 325.770635 -121.395046 
L 324.994989 -121.719565 
L 324.219343 -122.04736 
L 323.443696 -122.378465 
L 322.66805 -122.712913 
L 321.892404 -123.050737 
L 321.116757 -123.391972 
L 320.341111 -123.736652 
L 319.565464 -124.084812 
L 318.789818 -124.436488 
L 318.014172 -124.791714 
L 317.238525 -125.150526 
L 316.462879 -125.512961 
L 315.687233 -125.879055 
L 314.911586 -126.248846 
L 314.13594 -126.62237 
L 313.360293 -126.999665 
L 312.584647 -127.380769 
L 311.809001 -127.765721 
L 311.033354 -128.15456 
L 310.257708 -128.547324 
L 309.482062 -128.944054 
L 308.706415 -129.344789 
L 307.930769 -129.749571 
L 307.155122 -130.158439 
L 306.379476 -130.571435 
L 305.60383 -130.988601 
L 304.828183 -131.409978 
L 304.052537 -131.83561 
L 303.276891 -132.265539 
L 302.501244 -132.699809 
L 301.725598 -133.138463 
L 300.949952 -133.581546 
L 300.174305 -134.029103 
L 299.398659 -134.481178 
L 298.623012 -134.937818 
L 297.847366 -135.399067 
L 297.07172 -135.864974 
L 296.296073 -136.335585 
L 295.520427 -136.810947 
L 294.744781 -137.291108 
L 293.969134 -137.776117 
L 293.193488 -138.266023 
L 292.417841 -138.760875 
L 291.642195 -139.260723 
L 290.866549 -139.765618 
L 290.090902 -140.27561 
L 289.315256 -140.790752 
L 288.53961 -141.311094 
L 287.763963 -141.83669 
L 286.988317 -142.367592 
L 286.21267 -142.903855 
L 285.437024 -143.445531 
L 284.661378 -143.992677 
L 283.885731 -144.545346 
L 283.110085 -145.103596 
L 282.334439 -145.667482 
L 281.558792 -146.23706 
L 280.783146 -146.81239 
L 280.007499 -147.393528 
L 279.231853 -147.980533 
L 278.456207 -148.573465 
L 277.68056 -149.172383 
L 276.904914 -149.777348 
L 276.129268 -150.38842 
L 275.353621 -151.005662 
L 274.577975 -151.629136 
L 273.802329 -152.258905 
L 273.026682 -152.895032 
L 272.251036 -153.537581 
L 271.475389 -154.186618 
L 270.699743 -154.842207 
L 269.924097 -155.504415 
L 269.14845 -156.173309 
L 268.372804 -156.848956 
L 267.597158 -157.531424 
L 266.821511 -158.220783 
L 266.045865 -158.917102 
L 265.270218 -159.62045 
L 264.494572 -160.3309 
L 263.718926 -161.048522 
L 262.943279 -161.773389 
L 262.167633 -162.505574 
L 261.391987 -163.245152 
L 260.61634 -163.992196 
L 259.840694 -164.746782 
L 259.065047 -165.508987 
L 258.289401 -166.278886 
L 257.513755 -167.056558 
L 256.738108 -167.842082 
L 255.962462 -168.635535 
L 255.186816 -169.436999 
L 254.411169 -170.246555 
L 253.635523 -171.064283 
L 252.859876 -171.890266 
L 252.08423 -172.724588 
L 251.308584 -173.567333 
L 250.532937 -174.418586 
L 249.757291 -175.278432 
L 248.981645 -176.146958 
L 248.205998 -177.024252 
L 247.430352 -177.910403 
L 246.654705 -178.805498 
L 245.879059 -179.70963 
L 245.103413 -180.622888 
L 244.327766 -181.545365 
L 243.55212 -182.477154 
L 242.776474 -183.418348 
L 242.000827 -184.369043 
L 241.225181 -185.329333 
L 240.449535 -186.299317 
L 239.673888 -187.279091 
L 238.898242 -188.268753 
L 238.122595 -189.268404 
L 237.346949 -190.278145 
L 236.571303 -191.298075 
L 235.795656 -192.328299 
L 235.02001 -193.36892 
L 234.244364 -194.420041 
L 233.468717 -195.481769 
L 232.693071 -196.554211 
L 231.917424 -197.637473 
L 231.141778 -198.731665 
L 230.366132 -199.836895 
L 229.590485 -200.953276 
L 228.814839 -202.080918 
L 228.039193 -203.219935 
L 227.263546 -204.37044 
L 226.4879 -205.532548 
L 225.712253 -206.706376 
L 224.936607 -207.89204 
L 224.160961 -209.089658 
L 223.385314 -210.29935 
L 222.609668 -211.521236 
L 221.834022 -212.755438 
L 221.058375 -214.002077 
L 220.282729 -215.261277 
L 219.507082 -216.533163 
L 218.731436 -217.81786 
L 217.95579 -219.115496 
L 217.180143 -220.426197 
L 216.404497 -221.750092 
L 215.628851 -223.087311 
L 214.853204 -224.437984 
L 214.077558 -225.802244 
L 213.301911 -227.180222 
L 212.526265 -228.572053 
L 211.750619 -229.97787 
L 210.974972 -231.397809 
L 210.199326 -232.832006 
L 209.42368 -234.280597 
L 208.648033 -235.743721 
L 207.872387 -237.221515 
L 207.096741 -238.714119 
L 206.321094 -240.221671 
L 205.545448 -241.744312 
L 204.769801 -243.282181 
L 203.994155 -244.83542 
L 203.218509 -246.40417 
L 202.442862 -247.988571 
L 201.667216 -249.588764 
L 200.89157 -251.204891 
L 200.115923 -252.837091 
L 199.340277 -254.485505 
L 198.56463 -256.150272 
L 197.788984 -257.831531 
L 197.013338 -259.52942 
L 196.237691 -261.244076 
L 195.462045 -262.975632 
L 194.686399 -264.724223 
L 193.910752 -266.48998 
L 193.135106 -268.273031 
L 192.359459 -270.073503 
L 191.583813 -271.891517 
L 190.808167 -273.727195 
L 190.03252 -275.58065 
L 189.256874 -277.451993 
L 188.481228 -279.34133 
L 187.705581 -281.248761 
L 186.929935 -283.174378 
L 186.154288 -285.118267 
L 185.378642 -287.080507 
L 184.602996 -289.061166 
L 183.827349 -291.060304 
L 183.051703 -293.077968 
L 182.276057 -295.114195 
L 181.50041 -297.169007 
L 180.724764 -299.242412 
L 179.949117 -301.334402 
L 179.173471 -303.444949 
L 178.397825 -305.574007 
L 177.622178 -307.721509 
L 176.846532 -309.887362 
L 176.070886 -312.071449 
L 175.295239 -314.273621 
L 174.519593 -316.4937 
L 173.743947 -318.731472 
L 172.9683 -320.986685 
L 172.192654 -323.259047 
L 171.417007 -325.548217 
L 170.641361 -327.853807 
L 169.865715 -330.175371 
L 169.090068 -332.512405 
L 168.314422 -334.86434 
L 167.538776 -337.230532 
L 166.763129 -339.610261 
L 165.987483 -342.002719 
L 165.211836 -344.407006 
L 164.43619 -346.822117 
L 163.660544 -349.246935 
L 162.884897 -351.680219 
L 162.109251 -354.120597 
L 161.333605 -356.566546 
L 160.557958 -359.016383 
L 159.782312 -361.468253 
L 159.006665 -363.920105 
L 158.231019 -366.369681 
L 157.455373 -368.814494 
L 156.679726 -371.251807 
L 155.90408 -373.678611 
L 155.128434 -376.091597 
L 154.352787 -378.487133 
L 153.577141 -380.86123 
L 152.801494 -383.209514 
L 152.025848 -385.527186 
L 151.250202 -387.808983 
L 150.474555 -390.04914 
L 149.698909 -392.24134 
L 148.923263 -394.378666 
L 148.147616 -396.453543 
L 147.37197 -398.45768 
L 146.596323 -400.382005 
L 145.820677 -402.21659 
L 145.045031 -403.950578 
L 144.269384 -405.572094 
L 143.493738 -407.068152 
L 142.718092 -408.424557 
L 141.942445 -409.625789 
L 141.166799 -410.654889 
L 140.391153 -411.493319 
L 139.615506 -412.120825 
L 138.83986 -412.515278 
L 138.064213 -412.6525 
L 137.288567 -412.506082 
L 136.512921 -412.285516 
L 135.737274 -412.610135 
L 134.961628 -412.608459 
L 134.185982 -412.240208 
L 133.410335 -412.446295 
L 132.634689 -412.6525 
L 131.859042 -412.425648 
L 131.083396 -412.075953 
L 130.30775 -412.584525 
L 129.532103 -412.580259 
L 128.756457 -411.960444 
L 127.980811 -412.299761 
L 127.205164 -412.6525 
L 126.429518 -412.237062 
L 125.653871 -410.840941 
L 124.878225 -408.195165 
L 124.102579 -403.959311 
L 123.326932 -397.702548 
L 122.551286 -388.879655 
L 121.77564 -376.800662 
L 120.999993 -360.592454 
L 120.224347 -339.150177 
L 119.4487 -311.075753 
L 118.673054 -274.600086 
L 117.897408 -227.484626 
L 117.121761 -166.896817 
z
" style="stroke: #73c476; stroke-opacity: 0.3"/>
    </defs>
    <g clip-path="url(#p5d535247d3)">
     <use xlink:href="#m37adc060e4" x="0" y="452.1925" style="fill: #73c476; fill-opacity: 0.3; stroke: #73c476; stroke-opacity: 0.3"/>
    </g>
   </g>
   <g id="matplotlib.axis_1">
    <g id="xtick_1">
     <g id="line2d_1">
      <defs>
       <path id="m42c21059af" d="M 0 0 
L 0 3.5 
" style="stroke: #000000; stroke-width: 0.8"/>
      </defs>
      <g>
       <use xlink:href="#m42c21059af" x="116.346115" y="395.28" style="stroke: #000000; stroke-width: 0.8"/>
      </g>
     </g>
     <g id="text_1">
      <!-- 0 -->
      <g transform="translate(109.983615 417.476875) scale(0.2 -0.2)">
       <defs>
        <path id="DejaVuSans-30" d="M 2034 4250 
Q 1547 4250 1301 3770 
Q 1056 3291 1056 2328 
Q 1056 1369 1301 889 
Q 1547 409 2034 409 
Q 2525 409 2770 889 
Q 3016 1369 3016 2328 
Q 3016 3291 2770 3770 
Q 2525 4250 2034 4250 
z
M 2034 4750 
Q 2819 4750 3233 4129 
Q 3647 3509 3647 2328 
Q 3647 1150 3233 529 
Q 2819 -91 2034 -91 
Q 1250 -91 836 529 
Q 422 1150 422 2328 
Q 422 3509 836 4129 
Q 1250 4750 2034 4750 
z
" transform="scale(0.015625)"/>
       </defs>
       <use xlink:href="#DejaVuSans-30"/>
      </g>
     </g>
    </g>
    <g id="xtick_2">
     <g id="line2d_2">
      <g>
       <use xlink:href="#m42c21059af" x="193.910752" y="395.28" style="stroke: #000000; stroke-width: 0.8"/>
      </g>
     </g>
     <g id="text_2">
      <!-- 100 -->
      <g transform="translate(174.823252 417.476875) scale(0.2 -0.2)">
       <defs>
        <path id="DejaVuSans-31" d="M 794 531 
L 1825 531 
L 1825 4091 
L 703 3866 
L 703 4441 
L 1819 4666 
L 2450 4666 
L 2450 531 
L 3481 531 
L 3481 0 
L 794 0 
L 794 531 
z
" transform="scale(0.015625)"/>
       </defs>
       <use xlink:href="#DejaVuSans-31"/>
       <use xlink:href="#DejaVuSans-30" x="63.623047"/>
       <use xlink:href="#DejaVuSans-30" x="127.246094"/>
      </g>
     </g>
    </g>
    <g id="xtick_3">
     <g id="line2d_3">
      <g>
       <use xlink:href="#m42c21059af" x="271.475389" y="395.28" style="stroke: #000000; stroke-width: 0.8"/>
      </g>
     </g>
     <g id="text_3">
      <!-- 200 -->
      <g transform="translate(252.387889 417.476875) scale(0.2 -0.2)">
       <defs>
        <path id="DejaVuSans-32" d="M 1228 531 
L 3431 531 
L 3431 0 
L 469 0 
L 469 531 
Q 828 903 1448 1529 
Q 2069 2156 2228 2338 
Q 2531 2678 2651 2914 
Q 2772 3150 2772 3378 
Q 2772 3750 2511 3984 
Q 2250 4219 1831 4219 
Q 1534 4219 1204 4116 
Q 875 4013 500 3803 
L 500 4441 
Q 881 4594 1212 4672 
Q 1544 4750 1819 4750 
Q 2544 4750 2975 4387 
Q 3406 4025 3406 3419 
Q 3406 3131 3298 2873 
Q 3191 2616 2906 2266 
Q 2828 2175 2409 1742 
Q 1991 1309 1228 531 
z
" transform="scale(0.015625)"/>
       </defs>
       <use xlink:href="#DejaVuSans-32"/>
       <use xlink:href="#DejaVuSans-30" x="63.623047"/>
       <use xlink:href="#DejaVuSans-30" x="127.246094"/>
      </g>
     </g>
    </g>
    <g id="xtick_4">
     <g id="line2d_4">
      <g>
       <use xlink:href="#m42c21059af" x="349.040027" y="395.28" style="stroke: #000000; stroke-width: 0.8"/>
      </g>
     </g>
     <g id="text_4">
      <!-- 300 -->
      <g transform="translate(329.952527 417.476875) scale(0.2 -0.2)">
       <defs>
        <path id="DejaVuSans-33" d="M 2597 2516 
Q 3050 2419 3304 2112 
Q 3559 1806 3559 1356 
Q 3559 666 3084 287 
Q 2609 -91 1734 -91 
Q 1441 -91 1130 -33 
Q 819 25 488 141 
L 488 750 
Q 750 597 1062 519 
Q 1375 441 1716 441 
Q 2309 441 2620 675 
Q 2931 909 2931 1356 
Q 2931 1769 2642 2001 
Q 2353 2234 1838 2234 
L 1294 2234 
L 1294 2753 
L 1863 2753 
Q 2328 2753 2575 2939 
Q 2822 3125 2822 3475 
Q 2822 3834 2567 4026 
Q 2313 4219 1838 4219 
Q 1578 4219 1281 4162 
Q 984 4106 628 3988 
L 628 4550 
Q 988 4650 1302 4700 
Q 1616 4750 1894 4750 
Q 2613 4750 3031 4423 
Q 3450 4097 3450 3541 
Q 3450 3153 3228 2886 
Q 3006 2619 2597 2516 
z
" transform="scale(0.015625)"/>
       </defs>
       <use xlink:href="#DejaVuSans-33"/>
       <use xlink:href="#DejaVuSans-30" x="63.623047"/>
       <use xlink:href="#DejaVuSans-30" x="127.246094"/>
      </g>
     </g>
    </g>
    <g id="xtick_5">
     <g id="line2d_5">
      <g>
       <use xlink:href="#m42c21059af" x="426.604664" y="395.28" style="stroke: #000000; stroke-width: 0.8"/>
      </g>
     </g>
     <g id="text_5">
      <!-- 400 -->
      <g transform="translate(407.517164 417.476875) scale(0.2 -0.2)">
       <defs>
        <path id="DejaVuSans-34" d="M 2419 4116 
L 825 1625 
L 2419 1625 
L 2419 4116 
z
M 2253 4666 
L 3047 4666 
L 3047 1625 
L 3713 1625 
L 3713 1100 
L 3047 1100 
L 3047 0 
L 2419 0 
L 2419 1100 
L 313 1100 
L 313 1709 
L 2253 4666 
z
" transform="scale(0.015625)"/>
       </defs>
       <use xlink:href="#DejaVuSans-34"/>
       <use xlink:href="#DejaVuSans-30" x="63.623047"/>
       <use xlink:href="#DejaVuSans-30" x="127.246094"/>
      </g>
     </g>
    </g>
    <g id="xtick_6">
     <g id="line2d_6">
      <g>
       <use xlink:href="#m42c21059af" x="504.169301" y="395.28" style="stroke: #000000; stroke-width: 0.8"/>
      </g>
     </g>
     <g id="text_6">
      <!-- 500 -->
      <g transform="translate(485.081801 417.476875) scale(0.2 -0.2)">
       <defs>
        <path id="DejaVuSans-35" d="M 691 4666 
L 3169 4666 
L 3169 4134 
L 1269 4134 
L 1269 2991 
Q 1406 3038 1543 3061 
Q 1681 3084 1819 3084 
Q 2600 3084 3056 2656 
Q 3513 2228 3513 1497 
Q 3513 744 3044 326 
Q 2575 -91 1722 -91 
Q 1428 -91 1123 -41 
Q 819 9 494 109 
L 494 744 
Q 775 591 1075 516 
Q 1375 441 1709 441 
Q 2250 441 2565 725 
Q 2881 1009 2881 1497 
Q 2881 1984 2565 2268 
Q 2250 2553 1709 2553 
Q 1456 2553 1204 2497 
Q 953 2441 691 2322 
L 691 4666 
z
" transform="scale(0.015625)"/>
       </defs>
       <use xlink:href="#DejaVuSans-35"/>
       <use xlink:href="#DejaVuSans-30" x="63.623047"/>
       <use xlink:href="#DejaVuSans-30" x="127.246094"/>
      </g>
     </g>
    </g>
    <g id="xtick_7">
     <g id="line2d_7">
      <g>
       <use xlink:href="#m42c21059af" x="581.733938" y="395.28" style="stroke: #000000; stroke-width: 0.8"/>
      </g>
     </g>
     <g id="text_7">
      <!-- 600 -->
      <g transform="translate(562.646438 417.476875) scale(0.2 -0.2)">
       <defs>
        <path id="DejaVuSans-36" d="M 2113 2584 
Q 1688 2584 1439 2293 
Q 1191 2003 1191 1497 
Q 1191 994 1439 701 
Q 1688 409 2113 409 
Q 2538 409 2786 701 
Q 3034 994 3034 1497 
Q 3034 2003 2786 2293 
Q 2538 2584 2113 2584 
z
M 3366 4563 
L 3366 3988 
Q 3128 4100 2886 4159 
Q 2644 4219 2406 4219 
Q 1781 4219 1451 3797 
Q 1122 3375 1075 2522 
Q 1259 2794 1537 2939 
Q 1816 3084 2150 3084 
Q 2853 3084 3261 2657 
Q 3669 2231 3669 1497 
Q 3669 778 3244 343 
Q 2819 -91 2113 -91 
Q 1303 -91 875 529 
Q 447 1150 447 2328 
Q 447 3434 972 4092 
Q 1497 4750 2381 4750 
Q 2619 4750 2861 4703 
Q 3103 4656 3366 4563 
z
" transform="scale(0.015625)"/>
       </defs>
       <use xlink:href="#DejaVuSans-36"/>
       <use xlink:href="#DejaVuSans-30" x="63.623047"/>
       <use xlink:href="#DejaVuSans-30" x="127.246094"/>
      </g>
     </g>
    </g>
    <g id="text_8">
     <!-- Days since antigen exposure -->
     <g transform="translate(226.337813 440.833125) scale(0.2 -0.2)">
      <defs>
       <path id="DejaVuSans-44" d="M 1259 4147 
L 1259 519 
L 2022 519 
Q 2988 519 3436 956 
Q 3884 1394 3884 2338 
Q 3884 3275 3436 3711 
Q 2988 4147 2022 4147 
L 1259 4147 
z
M 628 4666 
L 1925 4666 
Q 3281 4666 3915 4102 
Q 4550 3538 4550 2338 
Q 4550 1131 3912 565 
Q 3275 0 1925 0 
L 628 0 
L 628 4666 
z
" transform="scale(0.015625)"/>
       <path id="DejaVuSans-61" d="M 2194 1759 
Q 1497 1759 1228 1600 
Q 959 1441 959 1056 
Q 959 750 1161 570 
Q 1363 391 1709 391 
Q 2188 391 2477 730 
Q 2766 1069 2766 1631 
L 2766 1759 
L 2194 1759 
z
M 3341 1997 
L 3341 0 
L 2766 0 
L 2766 531 
Q 2569 213 2275 61 
Q 1981 -91 1556 -91 
Q 1019 -91 701 211 
Q 384 513 384 1019 
Q 384 1609 779 1909 
Q 1175 2209 1959 2209 
L 2766 2209 
L 2766 2266 
Q 2766 2663 2505 2880 
Q 2244 3097 1772 3097 
Q 1472 3097 1187 3025 
Q 903 2953 641 2809 
L 641 3341 
Q 956 3463 1253 3523 
Q 1550 3584 1831 3584 
Q 2591 3584 2966 3190 
Q 3341 2797 3341 1997 
z
" transform="scale(0.015625)"/>
       <path id="DejaVuSans-79" d="M 2059 -325 
Q 1816 -950 1584 -1140 
Q 1353 -1331 966 -1331 
L 506 -1331 
L 506 -850 
L 844 -850 
Q 1081 -850 1212 -737 
Q 1344 -625 1503 -206 
L 1606 56 
L 191 3500 
L 800 3500 
L 1894 763 
L 2988 3500 
L 3597 3500 
L 2059 -325 
z
" transform="scale(0.015625)"/>
       <path id="DejaVuSans-73" d="M 2834 3397 
L 2834 2853 
Q 2591 2978 2328 3040 
Q 2066 3103 1784 3103 
Q 1356 3103 1142 2972 
Q 928 2841 928 2578 
Q 928 2378 1081 2264 
Q 1234 2150 1697 2047 
L 1894 2003 
Q 2506 1872 2764 1633 
Q 3022 1394 3022 966 
Q 3022 478 2636 193 
Q 2250 -91 1575 -91 
Q 1294 -91 989 -36 
Q 684 19 347 128 
L 347 722 
Q 666 556 975 473 
Q 1284 391 1588 391 
Q 1994 391 2212 530 
Q 2431 669 2431 922 
Q 2431 1156 2273 1281 
Q 2116 1406 1581 1522 
L 1381 1569 
Q 847 1681 609 1914 
Q 372 2147 372 2553 
Q 372 3047 722 3315 
Q 1072 3584 1716 3584 
Q 2034 3584 2315 3537 
Q 2597 3491 2834 3397 
z
" transform="scale(0.015625)"/>
       <path id="DejaVuSans-20" transform="scale(0.015625)"/>
       <path id="DejaVuSans-69" d="M 603 3500 
L 1178 3500 
L 1178 0 
L 603 0 
L 603 3500 
z
M 603 4863 
L 1178 4863 
L 1178 4134 
L 603 4134 
L 603 4863 
z
" transform="scale(0.015625)"/>
       <path id="DejaVuSans-6e" d="M 3513 2113 
L 3513 0 
L 2938 0 
L 2938 2094 
Q 2938 2591 2744 2837 
Q 2550 3084 2163 3084 
Q 1697 3084 1428 2787 
Q 1159 2491 1159 1978 
L 1159 0 
L 581 0 
L 581 3500 
L 1159 3500 
L 1159 2956 
Q 1366 3272 1645 3428 
Q 1925 3584 2291 3584 
Q 2894 3584 3203 3211 
Q 3513 2838 3513 2113 
z
" transform="scale(0.015625)"/>
       <path id="DejaVuSans-63" d="M 3122 3366 
L 3122 2828 
Q 2878 2963 2633 3030 
Q 2388 3097 2138 3097 
Q 1578 3097 1268 2742 
Q 959 2388 959 1747 
Q 959 1106 1268 751 
Q 1578 397 2138 397 
Q 2388 397 2633 464 
Q 2878 531 3122 666 
L 3122 134 
Q 2881 22 2623 -34 
Q 2366 -91 2075 -91 
Q 1284 -91 818 406 
Q 353 903 353 1747 
Q 353 2603 823 3093 
Q 1294 3584 2113 3584 
Q 2378 3584 2631 3529 
Q 2884 3475 3122 3366 
z
" transform="scale(0.015625)"/>
       <path id="DejaVuSans-65" d="M 3597 1894 
L 3597 1613 
L 953 1613 
Q 991 1019 1311 708 
Q 1631 397 2203 397 
Q 2534 397 2845 478 
Q 3156 559 3463 722 
L 3463 178 
Q 3153 47 2828 -22 
Q 2503 -91 2169 -91 
Q 1331 -91 842 396 
Q 353 884 353 1716 
Q 353 2575 817 3079 
Q 1281 3584 2069 3584 
Q 2775 3584 3186 3129 
Q 3597 2675 3597 1894 
z
M 3022 2063 
Q 3016 2534 2758 2815 
Q 2500 3097 2075 3097 
Q 1594 3097 1305 2825 
Q 1016 2553 972 2059 
L 3022 2063 
z
" transform="scale(0.015625)"/>
       <path id="DejaVuSans-74" d="M 1172 4494 
L 1172 3500 
L 2356 3500 
L 2356 3053 
L 1172 3053 
L 1172 1153 
Q 1172 725 1289 603 
Q 1406 481 1766 481 
L 2356 481 
L 2356 0 
L 1766 0 
Q 1100 0 847 248 
Q 594 497 594 1153 
L 594 3053 
L 172 3053 
L 172 3500 
L 594 3500 
L 594 4494 
L 1172 4494 
z
" transform="scale(0.015625)"/>
       <path id="DejaVuSans-67" d="M 2906 1791 
Q 2906 2416 2648 2759 
Q 2391 3103 1925 3103 
Q 1463 3103 1205 2759 
Q 947 2416 947 1791 
Q 947 1169 1205 825 
Q 1463 481 1925 481 
Q 2391 481 2648 825 
Q 2906 1169 2906 1791 
z
M 3481 434 
Q 3481 -459 3084 -895 
Q 2688 -1331 1869 -1331 
Q 1566 -1331 1297 -1286 
Q 1028 -1241 775 -1147 
L 775 -588 
Q 1028 -725 1275 -790 
Q 1522 -856 1778 -856 
Q 2344 -856 2625 -561 
Q 2906 -266 2906 331 
L 2906 616 
Q 2728 306 2450 153 
Q 2172 0 1784 0 
Q 1141 0 747 490 
Q 353 981 353 1791 
Q 353 2603 747 3093 
Q 1141 3584 1784 3584 
Q 2172 3584 2450 3431 
Q 2728 3278 2906 2969 
L 2906 3500 
L 3481 3500 
L 3481 434 
z
" transform="scale(0.015625)"/>
       <path id="DejaVuSans-78" d="M 3513 3500 
L 2247 1797 
L 3578 0 
L 2900 0 
L 1881 1375 
L 863 0 
L 184 0 
L 1544 1831 
L 300 3500 
L 978 3500 
L 1906 2253 
L 2834 3500 
L 3513 3500 
z
" transform="scale(0.015625)"/>
       <path id="DejaVuSans-70" d="M 1159 525 
L 1159 -1331 
L 581 -1331 
L 581 3500 
L 1159 3500 
L 1159 2969 
Q 1341 3281 1617 3432 
Q 1894 3584 2278 3584 
Q 2916 3584 3314 3078 
Q 3713 2572 3713 1747 
Q 3713 922 3314 415 
Q 2916 -91 2278 -91 
Q 1894 -91 1617 61 
Q 1341 213 1159 525 
z
M 3116 1747 
Q 3116 2381 2855 2742 
Q 2594 3103 2138 3103 
Q 1681 3103 1420 2742 
Q 1159 2381 1159 1747 
Q 1159 1113 1420 752 
Q 1681 391 2138 391 
Q 2594 391 2855 752 
Q 3116 1113 3116 1747 
z
" transform="scale(0.015625)"/>
       <path id="DejaVuSans-6f" d="M 1959 3097 
Q 1497 3097 1228 2736 
Q 959 2375 959 1747 
Q 959 1119 1226 758 
Q 1494 397 1959 397 
Q 2419 397 2687 759 
Q 2956 1122 2956 1747 
Q 2956 2369 2687 2733 
Q 2419 3097 1959 3097 
z
M 1959 3584 
Q 2709 3584 3137 3096 
Q 3566 2609 3566 1747 
Q 3566 888 3137 398 
Q 2709 -91 1959 -91 
Q 1206 -91 779 398 
Q 353 888 353 1747 
Q 353 2609 779 3096 
Q 1206 3584 1959 3584 
z
" transform="scale(0.015625)"/>
       <path id="DejaVuSans-75" d="M 544 1381 
L 544 3500 
L 1119 3500 
L 1119 1403 
Q 1119 906 1312 657 
Q 1506 409 1894 409 
Q 2359 409 2629 706 
Q 2900 1003 2900 1516 
L 2900 3500 
L 3475 3500 
L 3475 0 
L 2900 0 
L 2900 538 
Q 2691 219 2414 64 
Q 2138 -91 1772 -91 
Q 1169 -91 856 284 
Q 544 659 544 1381 
z
M 1991 3584 
L 1991 3584 
z
" transform="scale(0.015625)"/>
       <path id="DejaVuSans-72" d="M 2631 2963 
Q 2534 3019 2420 3045 
Q 2306 3072 2169 3072 
Q 1681 3072 1420 2755 
Q 1159 2438 1159 1844 
L 1159 0 
L 581 0 
L 581 3500 
L 1159 3500 
L 1159 2956 
Q 1341 3275 1631 3429 
Q 1922 3584 2338 3584 
Q 2397 3584 2469 3576 
Q 2541 3569 2628 3553 
L 2631 2963 
z
" transform="scale(0.015625)"/>
      </defs>
      <use xlink:href="#DejaVuSans-44"/>
      <use xlink:href="#DejaVuSans-61" x="77.001953"/>
      <use xlink:href="#DejaVuSans-79" x="138.28125"/>
      <use xlink:href="#DejaVuSans-73" x="197.460938"/>
      <use xlink:href="#DejaVuSans-20" x="249.560547"/>
      <use xlink:href="#DejaVuSans-73" x="281.347656"/>
      <use xlink:href="#DejaVuSans-69" x="333.447266"/>
      <use xlink:href="#DejaVuSans-6e" x="361.230469"/>
      <use xlink:href="#DejaVuSans-63" x="424.609375"/>
      <use xlink:href="#DejaVuSans-65" x="479.589844"/>
      <use xlink:href="#DejaVuSans-20" x="541.113281"/>
      <use xlink:href="#DejaVuSans-61" x="572.900391"/>
      <use xlink:href="#DejaVuSans-6e" x="634.179688"/>
      <use xlink:href="#DejaVuSans-74" x="697.558594"/>
      <use xlink:href="#DejaVuSans-69" x="736.767578"/>
      <use xlink:href="#DejaVuSans-67" x="764.550781"/>
      <use xlink:href="#DejaVuSans-65" x="828.027344"/>
      <use xlink:href="#DejaVuSans-6e" x="889.550781"/>
      <use xlink:href="#DejaVuSans-20" x="952.929688"/>
      <use xlink:href="#DejaVuSans-65" x="984.716797"/>
      <use xlink:href="#DejaVuSans-78" x="1044.490234"/>
      <use xlink:href="#DejaVuSans-70" x="1103.669922"/>
      <use xlink:href="#DejaVuSans-6f" x="1167.146484"/>
      <use xlink:href="#DejaVuSans-73" x="1228.328125"/>
      <use xlink:href="#DejaVuSans-75" x="1280.427734"/>
      <use xlink:href="#DejaVuSans-72" x="1343.806641"/>
      <use xlink:href="#DejaVuSans-65" x="1382.669922"/>
     </g>
    </g>
   </g>
   <g id="matplotlib.axis_2">
    <g id="ytick_1">
     <g id="line2d_8">
      <defs>
       <path id="mac56e101af" d="M 0 0 
L -3.5 0 
" style="stroke: #000000; stroke-width: 0.8"/>
      </defs>
      <g>
       <use xlink:href="#mac56e101af" x="91.758125" y="362.94" style="stroke: #000000; stroke-width: 0.8"/>
      </g>
     </g>
     <g id="text_9">
      <!-- 0.0 -->
      <g transform="translate(52.951875 370.538437) scale(0.2 -0.2)">
       <defs>
        <path id="DejaVuSans-2e" d="M 684 794 
L 1344 794 
L 1344 0 
L 684 0 
L 684 794 
z
" transform="scale(0.015625)"/>
       </defs>
       <use xlink:href="#DejaVuSans-30"/>
       <use xlink:href="#DejaVuSans-2e" x="63.623047"/>
       <use xlink:href="#DejaVuSans-30" x="95.410156"/>
      </g>
     </g>
    </g>
    <g id="ytick_2">
     <g id="line2d_9">
      <g>
       <use xlink:href="#mac56e101af" x="91.758125" y="298.26" style="stroke: #000000; stroke-width: 0.8"/>
      </g>
     </g>
     <g id="text_10">
      <!-- 0.2 -->
      <g transform="translate(52.951875 305.858437) scale(0.2 -0.2)">
       <use xlink:href="#DejaVuSans-30"/>
       <use xlink:href="#DejaVuSans-2e" x="63.623047"/>
       <use xlink:href="#DejaVuSans-32" x="95.410156"/>
      </g>
     </g>
    </g>
    <g id="ytick_3">
     <g id="line2d_10">
      <g>
       <use xlink:href="#mac56e101af" x="91.758125" y="233.58" style="stroke: #000000; stroke-width: 0.8"/>
      </g>
     </g>
     <g id="text_11">
      <!-- 0.4 -->
      <g transform="translate(52.951875 241.178437) scale(0.2 -0.2)">
       <use xlink:href="#DejaVuSans-30"/>
       <use xlink:href="#DejaVuSans-2e" x="63.623047"/>
       <use xlink:href="#DejaVuSans-34" x="95.410156"/>
      </g>
     </g>
    </g>
    <g id="ytick_4">
     <g id="line2d_11">
      <g>
       <use xlink:href="#mac56e101af" x="91.758125" y="168.9" style="stroke: #000000; stroke-width: 0.8"/>
      </g>
     </g>
     <g id="text_12">
      <!-- 0.6 -->
      <g transform="translate(52.951875 176.498437) scale(0.2 -0.2)">
       <use xlink:href="#DejaVuSans-30"/>
       <use xlink:href="#DejaVuSans-2e" x="63.623047"/>
       <use xlink:href="#DejaVuSans-36" x="95.410156"/>
      </g>
     </g>
    </g>
    <g id="ytick_5">
     <g id="line2d_12">
      <g>
       <use xlink:href="#mac56e101af" x="91.758125" y="104.22" style="stroke: #000000; stroke-width: 0.8"/>
      </g>
     </g>
     <g id="text_13">
      <!-- 0.8 -->
      <g transform="translate(52.951875 111.818438) scale(0.2 -0.2)">
       <defs>
        <path id="DejaVuSans-38" d="M 2034 2216 
Q 1584 2216 1326 1975 
Q 1069 1734 1069 1313 
Q 1069 891 1326 650 
Q 1584 409 2034 409 
Q 2484 409 2743 651 
Q 3003 894 3003 1313 
Q 3003 1734 2745 1975 
Q 2488 2216 2034 2216 
z
M 1403 2484 
Q 997 2584 770 2862 
Q 544 3141 544 3541 
Q 544 4100 942 4425 
Q 1341 4750 2034 4750 
Q 2731 4750 3128 4425 
Q 3525 4100 3525 3541 
Q 3525 3141 3298 2862 
Q 3072 2584 2669 2484 
Q 3125 2378 3379 2068 
Q 3634 1759 3634 1313 
Q 3634 634 3220 271 
Q 2806 -91 2034 -91 
Q 1263 -91 848 271 
Q 434 634 434 1313 
Q 434 1759 690 2068 
Q 947 2378 1403 2484 
z
M 1172 3481 
Q 1172 3119 1398 2916 
Q 1625 2713 2034 2713 
Q 2441 2713 2670 2916 
Q 2900 3119 2900 3481 
Q 2900 3844 2670 4047 
Q 2441 4250 2034 4250 
Q 1625 4250 1398 4047 
Q 1172 3844 1172 3481 
z
" transform="scale(0.015625)"/>
       </defs>
       <use xlink:href="#DejaVuSans-30"/>
       <use xlink:href="#DejaVuSans-2e" x="63.623047"/>
       <use xlink:href="#DejaVuSans-38" x="95.410156"/>
      </g>
     </g>
    </g>
    <g id="ytick_6">
     <g id="line2d_13">
      <g>
       <use xlink:href="#mac56e101af" x="91.758125" y="39.54" style="stroke: #000000; stroke-width: 0.8"/>
      </g>
     </g>
     <g id="text_14">
      <!-- 1.0 -->
      <g transform="translate(52.951875 47.138437) scale(0.2 -0.2)">
       <use xlink:href="#DejaVuSans-31"/>
       <use xlink:href="#DejaVuSans-2e" x="63.623047"/>
       <use xlink:href="#DejaVuSans-30" x="95.410156"/>
      </g>
     </g>
    </g>
    <g id="text_15">
     <!-- Virus neutralization -->
     <g transform="translate(22.396875 298.544688) rotate(-90) scale(0.2 -0.2)">
      <defs>
       <path id="DejaVuSans-56" d="M 1831 0 
L 50 4666 
L 709 4666 
L 2188 738 
L 3669 4666 
L 4325 4666 
L 2547 0 
L 1831 0 
z
" transform="scale(0.015625)"/>
       <path id="DejaVuSans-6c" d="M 603 4863 
L 1178 4863 
L 1178 0 
L 603 0 
L 603 4863 
z
" transform="scale(0.015625)"/>
       <path id="DejaVuSans-7a" d="M 353 3500 
L 3084 3500 
L 3084 2975 
L 922 459 
L 3084 459 
L 3084 0 
L 275 0 
L 275 525 
L 2438 3041 
L 353 3041 
L 353 3500 
z
" transform="scale(0.015625)"/>
      </defs>
      <use xlink:href="#DejaVuSans-56"/>
      <use xlink:href="#DejaVuSans-69" x="66.158203"/>
      <use xlink:href="#DejaVuSans-72" x="93.941406"/>
      <use xlink:href="#DejaVuSans-75" x="135.054688"/>
      <use xlink:href="#DejaVuSans-73" x="198.433594"/>
      <use xlink:href="#DejaVuSans-20" x="250.533203"/>
      <use xlink:href="#DejaVuSans-6e" x="282.320312"/>
      <use xlink:href="#DejaVuSans-65" x="345.699219"/>
      <use xlink:href="#DejaVuSans-75" x="407.222656"/>
      <use xlink:href="#DejaVuSans-74" x="470.601562"/>
      <use xlink:href="#DejaVuSans-72" x="509.810547"/>
      <use xlink:href="#DejaVuSans-61" x="550.923828"/>
      <use xlink:href="#DejaVuSans-6c" x="612.203125"/>
      <use xlink:href="#DejaVuSans-69" x="639.986328"/>
      <use xlink:href="#DejaVuSans-7a" x="667.769531"/>
      <use xlink:href="#DejaVuSans-61" x="720.259766"/>
      <use xlink:href="#DejaVuSans-74" x="781.539062"/>
      <use xlink:href="#DejaVuSans-69" x="820.748047"/>
      <use xlink:href="#DejaVuSans-6f" x="848.53125"/>
      <use xlink:href="#DejaVuSans-6e" x="909.712891"/>
     </g>
     <!--  probability -->
     <g transform="translate(44.7925 257.769688) rotate(-90) scale(0.2 -0.2)">
      <defs>
       <path id="DejaVuSans-62" d="M 3116 1747 
Q 3116 2381 2855 2742 
Q 2594 3103 2138 3103 
Q 1681 3103 1420 2742 
Q 1159 2381 1159 1747 
Q 1159 1113 1420 752 
Q 1681 391 2138 391 
Q 2594 391 2855 752 
Q 3116 1113 3116 1747 
z
M 1159 2969 
Q 1341 3281 1617 3432 
Q 1894 3584 2278 3584 
Q 2916 3584 3314 3078 
Q 3713 2572 3713 1747 
Q 3713 922 3314 415 
Q 2916 -91 2278 -91 
Q 1894 -91 1617 61 
Q 1341 213 1159 525 
L 1159 0 
L 581 0 
L 581 4863 
L 1159 4863 
L 1159 2969 
z
" transform="scale(0.015625)"/>
      </defs>
      <use xlink:href="#DejaVuSans-20"/>
      <use xlink:href="#DejaVuSans-70" x="31.787109"/>
      <use xlink:href="#DejaVuSans-72" x="95.263672"/>
      <use xlink:href="#DejaVuSans-6f" x="134.126953"/>
      <use xlink:href="#DejaVuSans-62" x="195.308594"/>
      <use xlink:href="#DejaVuSans-61" x="258.785156"/>
      <use xlink:href="#DejaVuSans-62" x="320.064453"/>
      <use xlink:href="#DejaVuSans-69" x="383.541016"/>
      <use xlink:href="#DejaVuSans-6c" x="411.324219"/>
      <use xlink:href="#DejaVuSans-69" x="439.107422"/>
      <use xlink:href="#DejaVuSans-74" x="466.890625"/>
      <use xlink:href="#DejaVuSans-79" x="506.099609"/>
     </g>
    </g>
   </g>
   <g id="patch_3">
    <path d="M 91.758125 395.28 
L 91.758125 7.2 
" style="fill: none; stroke: #000000; stroke-width: 0.8; stroke-linejoin: miter; stroke-linecap: square"/>
   </g>
   <g id="patch_4">
    <path d="M 649.758125 395.28 
L 649.758125 7.2 
" style="fill: none; stroke: #000000; stroke-width: 0.8; stroke-linejoin: miter; stroke-linecap: square"/>
   </g>
   <g id="patch_5">
    <path d="M 91.758125 395.28 
L 649.758125 395.28 
" style="fill: none; stroke: #000000; stroke-width: 0.8; stroke-linejoin: miter; stroke-linecap: square"/>
   </g>
   <g id="patch_6">
    <path d="M 91.758125 7.2 
L 649.758125 7.2 
" style="fill: none; stroke: #000000; stroke-width: 0.8; stroke-linejoin: miter; stroke-linecap: square"/>
   </g>
   <g id="legend_1">
    <g id="patch_7">
     <path d="M 765.358125 395.28 
L 1037.8175 395.28 
Q 1041.8175 395.28 1041.8175 391.28 
L 1041.8175 363.92375 
Q 1041.8175 359.92375 1037.8175 359.92375 
L 765.358125 359.92375 
Q 761.358125 359.92375 761.358125 363.92375 
L 761.358125 391.28 
Q 761.358125 395.28 765.358125 395.28 
z
" style="fill: #ffffff; opacity: 0.8; stroke: #cccccc; stroke-linejoin: miter"/>
    </g>
    <g id="patch_8">
     <path d="M 769.358125 383.120625 
L 809.358125 383.120625 
L 809.358125 369.120625 
L 769.358125 369.120625 
z
" style="fill: #73c476; fill-opacity: 0.3; stroke: #73c476; stroke-opacity: 0.3; stroke-linejoin: miter"/>
    </g>
    <g id="text_16">
     <!-- Epitopes PK (ranges) -->
     <g transform="translate(825.358125 383.120625) scale(0.2 -0.2)">
      <defs>
       <path id="DejaVuSans-45" d="M 628 4666 
L 3578 4666 
L 3578 4134 
L 1259 4134 
L 1259 2753 
L 3481 2753 
L 3481 2222 
L 1259 2222 
L 1259 531 
L 3634 531 
L 3634 0 
L 628 0 
L 628 4666 
z
" transform="scale(0.015625)"/>
       <path id="DejaVuSans-50" d="M 1259 4147 
L 1259 2394 
L 2053 2394 
Q 2494 2394 2734 2622 
Q 2975 2850 2975 3272 
Q 2975 3691 2734 3919 
Q 2494 4147 2053 4147 
L 1259 4147 
z
M 628 4666 
L 2053 4666 
Q 2838 4666 3239 4311 
Q 3641 3956 3641 3272 
Q 3641 2581 3239 2228 
Q 2838 1875 2053 1875 
L 1259 1875 
L 1259 0 
L 628 0 
L 628 4666 
z
" transform="scale(0.015625)"/>
       <path id="DejaVuSans-4b" d="M 628 4666 
L 1259 4666 
L 1259 2694 
L 3353 4666 
L 4166 4666 
L 1850 2491 
L 4331 0 
L 3500 0 
L 1259 2247 
L 1259 0 
L 628 0 
L 628 4666 
z
" transform="scale(0.015625)"/>
       <path id="DejaVuSans-28" d="M 1984 4856 
Q 1566 4138 1362 3434 
Q 1159 2731 1159 2009 
Q 1159 1288 1364 580 
Q 1569 -128 1984 -844 
L 1484 -844 
Q 1016 -109 783 600 
Q 550 1309 550 2009 
Q 550 2706 781 3412 
Q 1013 4119 1484 4856 
L 1984 4856 
z
" transform="scale(0.015625)"/>
       <path id="DejaVuSans-29" d="M 513 4856 
L 1013 4856 
Q 1481 4119 1714 3412 
Q 1947 2706 1947 2009 
Q 1947 1309 1714 600 
Q 1481 -109 1013 -844 
L 513 -844 
Q 928 -128 1133 580 
Q 1338 1288 1338 2009 
Q 1338 2731 1133 3434 
Q 928 4138 513 4856 
z
" transform="scale(0.015625)"/>
      </defs>
      <use xlink:href="#DejaVuSans-45"/>
      <use xlink:href="#DejaVuSans-70" x="63.183594"/>
      <use xlink:href="#DejaVuSans-69" x="126.660156"/>
      <use xlink:href="#DejaVuSans-74" x="154.443359"/>
      <use xlink:href="#DejaVuSans-6f" x="193.652344"/>
      <use xlink:href="#DejaVuSans-70" x="254.833984"/>
      <use xlink:href="#DejaVuSans-65" x="318.310547"/>
      <use xlink:href="#DejaVuSans-73" x="379.833984"/>
      <use xlink:href="#DejaVuSans-20" x="431.933594"/>
      <use xlink:href="#DejaVuSans-50" x="463.720703"/>
      <use xlink:href="#DejaVuSans-4b" x="524.023438"/>
      <use xlink:href="#DejaVuSans-20" x="589.599609"/>
      <use xlink:href="#DejaVuSans-28" x="621.386719"/>
      <use xlink:href="#DejaVuSans-72" x="660.400391"/>
      <use xlink:href="#DejaVuSans-61" x="701.513672"/>
      <use xlink:href="#DejaVuSans-6e" x="762.792969"/>
      <use xlink:href="#DejaVuSans-67" x="826.171875"/>
      <use xlink:href="#DejaVuSans-65" x="889.648438"/>
      <use xlink:href="#DejaVuSans-73" x="951.171875"/>
      <use xlink:href="#DejaVuSans-29" x="1003.271484"/>
     </g>
    </g>
   </g>
  </g>
 </g>
 <defs>
  <clipPath id="p5d535247d3">
   <rect x="91.758125" y="7.2" width="558" height="388.08"/>
  </clipPath>
 </defs>
</svg>
