<?xml version="1.0" encoding="utf-8" standalone="no"?>
<!DOCTYPE svg PUBLIC "-//W3C//DTD SVG 1.1//EN"
  "http://www.w3.org/Graphics/SVG/1.1/DTD/svg11.dtd">
<svg xmlns:xlink="http://www.w3.org/1999/xlink" width="938.86125pt" height="473.389375pt" viewBox="0 0 938.86125 473.389375" xmlns="http://www.w3.org/2000/svg" version="1.1">
 <metadata>
  <rdf:RDF xmlns:dc="http://purl.org/dc/elements/1.1/" xmlns:cc="http://creativecommons.org/ns#" xmlns:rdf="http://www.w3.org/1999/02/22-rdf-syntax-ns#">
   <cc:Work>
    <dc:type rdf:resource="http://purl.org/dc/dcmitype/StillImage"/>
    <dc:date>2023-11-12T17:28:15.672898</dc:date>
    <dc:format>image/svg+xml</dc:format>
    <dc:creator>
     <cc:Agent>
      <dc:title>Matplotlib v3.7.2, https://matplotlib.org/</dc:title>
     </cc:Agent>
    </dc:creator>
   </cc:Work>
  </rdf:RDF>
 </metadata>
 <defs>
  <style type="text/css">*{stroke-linejoin: round; stroke-linecap: butt}</style>
 </defs>
 <g id="figure_1">
  <g id="patch_1">
   <path d="M 0 473.389375 
L 938.86125 473.389375 
L 938.86125 0 
L 0 0 
z
" style="fill: #ffffff"/>
  </g>
  <g id="axes_1">
   <g id="patch_2">
    <path d="M 104.483125 416.476875 
L 662.483125 416.476875 
L 662.483125 28.396875 
L 104.483125 28.396875 
z
" style="fill: #ffffff"/>
   </g>
   <g id="PolyCollection_1">
    <defs>
     <path id="m72315a516e" d="M 129.846761 -158.825967 
L 129.846761 -98.610986 
L 130.622408 -135.480027 
L 131.398054 -168.167666 
L 132.1737 -197.213928 
L 132.949347 -223.07198 
L 133.724993 -246.124586 
L 134.50064 -266.697006 
L 135.276286 -285.067216 
L 136.051932 -301.474049 
L 136.827579 -316.123748 
L 137.603225 -329.195263 
L 138.378871 -340.844562 
L 139.154518 -351.208177 
L 139.930164 -360.40611 
L 140.705811 -368.544254 
L 141.481457 -375.716403 
L 142.257103 -382.005938 
L 143.03275 -387.487236 
L 143.808396 -392.226872 
L 144.584042 -395.2099 
L 145.359689 -390.902567 
L 146.135335 -386.274699 
L 146.910982 -381.383261 
L 147.686628 -376.277394 
L 148.462274 -370.99957 
L 149.237921 -365.586557 
L 150.013567 -360.07022 
L 150.789213 -354.478194 
L 151.56486 -348.834458 
L 152.340506 -343.159817 
L 153.116153 -337.472315 
L 153.891799 -331.78759 
L 154.667445 -326.119181 
L 155.443092 -320.478791 
L 156.218738 -314.876513 
L 156.994384 -309.321035 
L 157.770031 -303.819805 
L 158.545677 -298.379186 
L 159.321323 -293.00459 
L 160.09697 -287.700588 
L 160.872616 -282.471014 
L 161.648263 -277.319055 
L 162.423909 -272.247326 
L 163.199555 -267.257943 
L 163.975202 -262.352575 
L 164.750848 -257.532509 
L 165.526494 -252.798686 
L 166.302141 -248.151748 
L 167.077787 -243.592073 
L 167.853434 -239.119808 
L 168.62908 -234.734896 
L 169.404726 -230.437101 
L 170.180373 -226.226034 
L 170.956019 -222.101168 
L 171.731665 -218.061855 
L 172.507312 -214.107348 
L 173.282958 -210.236807 
L 174.058605 -206.449316 
L 174.834251 -202.743891 
L 175.609897 -199.119492 
L 176.385544 -195.57503 
L 177.16119 -192.109373 
L 177.936836 -188.721358 
L 178.712483 -185.40979 
L 179.488129 -182.173452 
L 180.263776 -179.01111 
L 181.039422 -175.921514 
L 181.815068 -172.903405 
L 182.590715 -169.955514 
L 183.366361 -167.076572 
L 184.142007 -164.265305 
L 184.917654 -161.520443 
L 185.6933 -158.840716 
L 186.468947 -156.22486 
L 187.244593 -153.67162 
L 188.020239 -151.179746 
L 188.795886 -148.747999 
L 189.571532 -146.37515 
L 190.347178 -144.059982 
L 191.122825 -141.801291 
L 191.898471 -139.597886 
L 192.674117 -137.448591 
L 193.449764 -135.352242 
L 194.22541 -133.307693 
L 195.001057 -131.313815 
L 195.776703 -129.36949 
L 196.552349 -127.473623 
L 197.327996 -125.62513 
L 198.103642 -123.822949 
L 198.879288 -122.066031 
L 199.654935 -120.353347 
L 200.430581 -118.683884 
L 201.206228 -117.056649 
L 201.981874 -115.470664 
L 202.75752 -113.924968 
L 203.533167 -112.418622 
L 204.308813 -110.950699 
L 205.084459 -109.520294 
L 205.860106 -108.126516 
L 206.635752 -106.768495 
L 207.411399 -105.445374 
L 208.187045 -104.156315 
L 208.962691 -102.900499 
L 209.738338 -101.67712 
L 210.513984 -100.485392 
L 211.28963 -99.324542 
L 212.065277 -98.193817 
L 212.840923 -97.092476 
L 213.61657 -96.019797 
L 214.392216 -94.975073 
L 215.167862 -93.95761 
L 215.943509 -92.966733 
L 216.719155 -92.001779 
L 217.494801 -91.062101 
L 218.270448 -90.147067 
L 219.046094 -89.256057 
L 219.821741 -88.388467 
L 220.597387 -87.543707 
L 221.373033 -86.7212 
L 222.14868 -85.920381 
L 222.924326 -85.140701 
L 223.699972 -84.38162 
L 224.475619 -83.642614 
L 225.251265 -82.923171 
L 226.026911 -82.222789 
L 226.802558 -81.540979 
L 227.578204 -80.877264 
L 228.353851 -80.231179 
L 229.129497 -79.602269 
L 229.905143 -78.99009 
L 230.68079 -78.39421 
L 231.456436 -77.814206 
L 232.232082 -77.249667 
L 233.007729 -76.70019 
L 233.783375 -76.165384 
L 234.559022 -75.644866 
L 235.334668 -75.138264 
L 236.110314 -74.645213 
L 236.885961 -74.16536 
L 237.661607 -73.698358 
L 238.437253 -73.243871 
L 239.2129 -72.80157 
L 239.988546 -72.371135 
L 240.764193 -71.952253 
L 241.539839 -71.54462 
L 242.315485 -71.147939 
L 243.091132 -70.761922 
L 243.866778 -70.386286 
L 244.642424 -70.020757 
L 245.418071 -69.665067 
L 246.193717 -69.318956 
L 246.969364 -68.98217 
L 247.74501 -68.654461 
L 248.520656 -68.335587 
L 249.296303 -68.025315 
L 250.071949 -67.723414 
L 250.847595 -67.429663 
L 251.623242 -67.143845 
L 252.398888 -66.865746 
L 253.174535 -66.595162 
L 253.950181 -66.331892 
L 254.725827 -66.075741 
L 255.501474 -65.826517 
L 256.27712 -65.584037 
L 257.052766 -65.348118 
L 257.828413 -65.118586 
L 258.604059 -64.89527 
L 259.379705 -64.678002 
L 260.155352 -64.46662 
L 260.930998 -64.260967 
L 261.706645 -64.060888 
L 262.482291 -63.866233 
L 263.257937 -63.676858 
L 264.033584 -63.492619 
L 264.80923 -63.313379 
L 265.584876 -63.139003 
L 266.360523 -62.96936 
L 267.136169 -62.804323 
L 267.911816 -62.643767 
L 268.687462 -62.487571 
L 269.463108 -62.335618 
L 270.238755 -62.187794 
L 271.014401 -62.043987 
L 271.790047 -61.904088 
L 272.565694 -61.767991 
L 273.34134 -61.635595 
L 274.116987 -61.506799 
L 274.892633 -61.381506 
L 275.668279 -61.259621 
L 276.443926 -61.141051 
L 277.219572 -61.025707 
L 277.995218 -60.913502 
L 278.770865 -60.804351 
L 279.546511 -60.698171 
L 280.322158 -60.594881 
L 281.097804 -60.494403 
L 281.87345 -60.396661 
L 282.649097 -60.301581 
L 283.424743 -60.20909 
L 284.200389 -60.119119 
L 284.976036 -60.031598 
L 285.751682 -59.946462 
L 286.527329 -59.863646 
L 287.302975 -59.783086 
L 288.078621 -59.704722 
L 288.854268 -59.628493 
L 289.629914 -59.554342 
L 290.40556 -59.482212 
L 291.181207 -59.412049 
L 291.956853 -59.343799 
L 292.732499 -59.27741 
L 293.508146 -59.212831 
L 294.283792 -59.150013 
L 295.059439 -59.088908 
L 295.835085 -59.02947 
L 296.610731 -58.971653 
L 297.386378 -58.915413 
L 298.162024 -58.860707 
L 298.93767 -58.807494 
L 299.713317 -58.755733 
L 300.488963 -58.705384 
L 301.26461 -58.656409 
L 302.040256 -58.608771 
L 302.815902 -58.562432 
L 303.591549 -58.517358 
L 304.367195 -58.473514 
L 305.142841 -58.430867 
L 305.918488 -58.389384 
L 306.694134 -58.349034 
L 307.469781 -58.309785 
L 308.245427 -58.271607 
L 309.021073 -58.234472 
L 309.79672 -58.198351 
L 310.572366 -58.163215 
L 311.348012 -58.129039 
L 312.123659 -58.095797 
L 312.899305 -58.063462 
L 313.674952 -58.03201 
L 314.450598 -58.001417 
L 315.226244 -57.97166 
L 316.001891 -57.942715 
L 316.777537 -57.91456 
L 317.553183 -57.887175 
L 318.32883 -57.860538 
L 319.104476 -57.834628 
L 319.880122 -57.809426 
L 320.655769 -57.784912 
L 321.431415 -57.761068 
L 322.207062 -57.737876 
L 322.982708 -57.715317 
L 323.758354 -57.693374 
L 324.534001 -57.672031 
L 325.309647 -57.65127 
L 326.085293 -57.631078 
L 326.86094 -57.611436 
L 327.636586 -57.592332 
L 328.412233 -57.573749 
L 329.187879 -57.555674 
L 329.963525 -57.538093 
L 330.739172 -57.520992 
L 331.514818 -57.504359 
L 332.290464 -57.48818 
L 333.066111 -57.472444 
L 333.841757 -57.457137 
L 334.617404 -57.442249 
L 335.39305 -57.427767 
L 336.168696 -57.413681 
L 336.944343 -57.39998 
L 337.719989 -57.386654 
L 338.495635 -57.373692 
L 339.271282 -57.361084 
L 340.046928 -57.348821 
L 340.822575 -57.336893 
L 341.598221 -57.32529 
L 342.373867 -57.314005 
L 343.149514 -57.303029 
L 343.92516 -57.292352 
L 344.700806 -57.281967 
L 345.476453 -57.271866 
L 346.252099 -57.262042 
L 347.027746 -57.252485 
L 347.803392 -57.24319 
L 348.579038 -57.234149 
L 349.354685 -57.225355 
L 350.130331 -57.216802 
L 350.905977 -57.208482 
L 351.681624 -57.20039 
L 352.45727 -57.192519 
L 353.232916 -57.184863 
L 354.008563 -57.177416 
L 354.784209 -57.170173 
L 355.559856 -57.163128 
L 356.335502 -57.156276 
L 357.111148 -57.149611 
L 357.886795 -57.143128 
L 358.662441 -57.136822 
L 359.438087 -57.130689 
L 360.213734 -57.124723 
L 360.98938 -57.118921 
L 361.765027 -57.113277 
L 362.540673 -57.107787 
L 363.316319 -57.102448 
L 364.091966 -57.097254 
L 364.867612 -57.092203 
L 365.643258 -57.087289 
L 366.418905 -57.08251 
L 367.194551 -57.077862 
L 367.970198 -57.07334 
L 368.745844 -57.068942 
L 369.52149 -57.064665 
L 370.297137 -57.060504 
L 371.072783 -57.056457 
L 371.848429 -57.052521 
L 372.624076 -57.048693 
L 373.399722 -57.044969 
L 374.175369 -57.041347 
L 374.951015 -57.037824 
L 375.726661 -57.034397 
L 376.502308 -57.031064 
L 377.277954 -57.027822 
L 378.0536 -57.024669 
L 378.829247 -57.021602 
L 379.604893 -57.018618 
L 380.38054 -57.015717 
L 381.156186 -57.012895 
L 381.931832 -57.010149 
L 382.707479 -57.007479 
L 383.483125 -57.004882 
L 384.258771 -57.002356 
L 385.034418 -56.999899 
L 385.810064 -56.997509 
L 386.58571 -56.995185 
L 387.361357 -56.992924 
L 388.137003 -56.990725 
L 388.91265 -56.988586 
L 389.688296 -56.986505 
L 390.463942 -56.984482 
L 391.239589 -56.982514 
L 392.015235 -56.980599 
L 392.790881 -56.978737 
L 393.566528 -56.976926 
L 394.342174 -56.975164 
L 395.117821 -56.973451 
L 395.893467 -56.971784 
L 396.669113 -56.970163 
L 397.44476 -56.968586 
L 398.220406 -56.967053 
L 398.996052 -56.965561 
L 399.771699 -56.96411 
L 400.547345 -56.962699 
L 401.322992 -56.961326 
L 402.098638 -56.959991 
L 402.874284 -56.958692 
L 403.649931 -56.957429 
L 404.425577 -56.956201 
L 405.201223 -56.955006 
L 405.97687 -56.953843 
L 406.752516 -56.952713 
L 407.528163 -56.951613 
L 408.303809 -56.950544 
L 409.079455 -56.949504 
L 409.855102 -56.948492 
L 410.630748 -56.947508 
L 411.406394 -56.94655 
L 412.182041 -56.945619 
L 412.957687 -56.944714 
L 413.733334 -56.943833 
L 414.50898 -56.942976 
L 415.284626 -56.942143 
L 416.060273 -56.941332 
L 416.835919 -56.940544 
L 417.611565 -56.939777 
L 418.387212 -56.939031 
L 419.162858 -56.938305 
L 419.938504 -56.9376 
L 420.714151 -56.936913 
L 421.489797 -56.936246 
L 422.265444 -56.935597 
L 423.04109 -56.934965 
L 423.816736 -56.934351 
L 424.592383 -56.933753 
L 425.368029 -56.933172 
L 426.143675 -56.932607 
L 426.919322 -56.932057 
L 427.694968 -56.931522 
L 428.470615 -56.931002 
L 429.246261 -56.930496 
L 430.021907 -56.930004 
L 430.797554 -56.929525 
L 431.5732 -56.92906 
L 432.348846 -56.928607 
L 433.124493 -56.928166 
L 433.900139 -56.927738 
L 434.675786 -56.927321 
L 435.451432 -56.926916 
L 436.227078 -56.926522 
L 437.002725 -56.926138 
L 437.778371 -56.925766 
L 438.554017 -56.925403 
L 439.329664 -56.92505 
L 440.10531 -56.924707 
L 440.880957 -56.924373 
L 441.656603 -56.924048 
L 442.432249 -56.923733 
L 443.207896 -56.923425 
L 443.983542 -56.923127 
L 444.759188 -56.922836 
L 445.534835 -56.922553 
L 446.310481 -56.922279 
L 447.086128 -56.922011 
L 447.861774 -56.921751 
L 448.63742 -56.921498 
L 449.413067 -56.921252 
L 450.188713 -56.921013 
L 450.964359 -56.92078 
L 451.740006 -56.920554 
L 452.515652 -56.920333 
L 453.291298 -56.920119 
L 454.066945 -56.919911 
L 454.842591 -56.919708 
L 455.618238 -56.919511 
L 456.393884 -56.919319 
L 457.16953 -56.919133 
L 457.945177 -56.918951 
L 458.720823 -56.918775 
L 459.496469 -56.918603 
L 460.272116 -56.918437 
L 461.047762 -56.918274 
L 461.823409 -56.918116 
L 462.599055 -56.917963 
L 463.374701 -56.917813 
L 464.150348 -56.917668 
L 464.925994 -56.917527 
L 465.70164 -56.917389 
L 466.477287 -56.917256 
L 467.252933 -56.917126 
L 468.02858 -56.916999 
L 468.804226 -56.916876 
L 469.579872 -56.916756 
L 470.355519 -56.91664 
L 471.131165 -56.916527 
L 471.906811 -56.916417 
L 472.682458 -56.91631 
L 473.458104 -56.916205 
L 474.233751 -56.916104 
L 475.009397 -56.916006 
L 475.785043 -56.91591 
L 476.56069 -56.915816 
L 477.336336 -56.915726 
L 478.111982 -56.915638 
L 478.887629 -56.915552 
L 479.663275 -56.915468 
L 480.438921 -56.915387 
L 481.214568 -56.915308 
L 481.990214 -56.915231 
L 482.765861 -56.915157 
L 483.541507 -56.915084 
L 484.317153 -56.915013 
L 485.0928 -56.914945 
L 485.868446 -56.914878 
L 486.644092 -56.914813 
L 487.419739 -56.91475 
L 488.195385 -56.914688 
L 488.971032 -56.914628 
L 489.746678 -56.91457 
L 490.522324 -56.914513 
L 491.297971 -56.914458 
L 492.073617 -56.914405 
L 492.849263 -56.914353 
L 493.62491 -56.914302 
L 494.400556 -56.914253 
L 495.176203 -56.914205 
L 495.951849 -56.914158 
L 496.727495 -56.914113 
L 497.503142 -56.914069 
L 498.278788 -56.914026 
L 499.054434 -56.913984 
L 499.830081 -56.913944 
L 500.605727 -56.913904 
L 501.381374 -56.913866 
L 502.15702 -56.913828 
L 502.932666 -56.913792 
L 503.708313 -56.913757 
L 504.483959 -56.913722 
L 505.259605 -56.913689 
L 506.035252 -56.913656 
L 506.810898 -56.913625 
L 507.586545 -56.913594 
L 508.362191 -56.913564 
L 509.137837 -56.913535 
L 509.913484 -56.913507 
L 510.68913 -56.913479 
L 511.464776 -56.913452 
L 512.240423 -56.913426 
L 513.016069 -56.913401 
L 513.791715 -56.913376 
L 514.567362 -56.913352 
L 515.343008 -56.913329 
L 516.118655 -56.913306 
L 516.894301 -56.913284 
L 517.669947 -56.913263 
L 518.445594 -56.913242 
L 519.22124 -56.913222 
L 519.996886 -56.913202 
L 520.772533 -56.913183 
L 521.548179 -56.913164 
L 522.323826 -56.913146 
L 523.099472 -56.913128 
L 523.875118 -56.913111 
L 524.650765 -56.913094 
L 525.426411 -56.913078 
L 526.202057 -56.913062 
L 526.977704 -56.913047 
L 527.75335 -56.913032 
L 528.528997 -56.913017 
L 529.304643 -56.913003 
L 530.080289 -56.91299 
L 530.855936 -56.912976 
L 531.631582 -56.912963 
L 532.407228 -56.912951 
L 533.182875 -56.912938 
L 533.958521 -56.912926 
L 534.734168 -56.912915 
L 535.509814 -56.912903 
L 536.28546 -56.912892 
L 537.061107 -56.912881 
L 537.836753 -56.912871 
L 538.612399 -56.912861 
L 539.388046 -56.912851 
L 540.163692 -56.912841 
L 540.939339 -56.912832 
L 541.714985 -56.912823 
L 542.490631 -56.912814 
L 543.266278 -56.912806 
L 544.041924 -56.912797 
L 544.81757 -56.912789 
L 545.593217 -56.912781 
L 546.368863 -56.912774 
L 547.144509 -56.912766 
L 547.920156 -56.912759 
L 548.695802 -56.912752 
L 549.471449 -56.912745 
L 550.247095 -56.912738 
L 551.022741 -56.912732 
L 551.798388 -56.912725 
L 552.574034 -56.912719 
L 553.34968 -56.912713 
L 554.125327 -56.912707 
L 554.900973 -56.912702 
L 555.67662 -56.912696 
L 556.452266 -56.912691 
L 557.227912 -56.912686 
L 558.003559 -56.91268 
L 558.779205 -56.912676 
L 559.554851 -56.912671 
L 560.330498 -56.912666 
L 561.106144 -56.912662 
L 561.881791 -56.912657 
L 562.657437 -56.912653 
L 563.433083 -56.912649 
L 564.20873 -56.912645 
L 564.984376 -56.912641 
L 565.760022 -56.912637 
L 566.535669 -56.912633 
L 567.311315 -56.912629 
L 568.086962 -56.912626 
L 568.862608 -56.912622 
L 569.638254 -56.912619 
L 570.413901 -56.912616 
L 571.189547 -56.912613 
L 571.965193 -56.91261 
L 572.74084 -56.912607 
L 573.516486 -56.912604 
L 574.292133 -56.912601 
L 575.067779 -56.912598 
L 575.843425 -56.912595 
L 576.619072 -56.912593 
L 577.394718 -56.91259 
L 578.170364 -56.912588 
L 578.946011 -56.912585 
L 579.721657 -56.912583 
L 580.497303 -56.912581 
L 581.27295 -56.912579 
L 582.048596 -56.912576 
L 582.824243 -56.912574 
L 583.599889 -56.912572 
L 584.375535 -56.91257 
L 585.151182 -56.912568 
L 585.926828 -56.912567 
L 586.702474 -56.912565 
L 587.478121 -56.912563 
L 588.253767 -56.912561 
L 589.029414 -56.91256 
L 589.80506 -56.912558 
L 590.580706 -56.912556 
L 591.356353 -56.912555 
L 592.131999 -56.912553 
L 592.907645 -56.912552 
L 593.683292 -56.91255 
L 594.458938 -56.912549 
L 595.234585 -56.912548 
L 596.010231 -56.912546 
L 596.785877 -56.912545 
L 597.561524 -56.912544 
L 598.33717 -56.912543 
L 599.112816 -56.912542 
L 599.888463 -56.91254 
L 600.664109 -56.912539 
L 601.439756 -56.912538 
L 602.215402 -56.912537 
L 602.991048 -56.912536 
L 603.766695 -56.912535 
L 604.542341 -56.912534 
L 605.317987 -56.912533 
L 606.093634 -56.912532 
L 606.86928 -56.912531 
L 607.644927 -56.912531 
L 608.420573 -56.91253 
L 609.196219 -56.912529 
L 609.971866 -56.912528 
L 610.747512 -56.912527 
L 611.523158 -56.912527 
L 612.298805 -56.912526 
L 613.074451 -56.912525 
L 613.850097 -56.912525 
L 614.625744 -56.912524 
L 615.40139 -56.912523 
L 616.177037 -56.912523 
L 616.952683 -56.912522 
L 617.728329 -56.912521 
L 618.503976 -56.912521 
L 619.279622 -56.91252 
L 620.055268 -56.91252 
L 620.830915 -56.912519 
L 621.606561 -56.912519 
L 622.382208 -56.912518 
L 623.157854 -56.912518 
L 623.9335 -56.912517 
L 624.709147 -56.912517 
L 625.484793 -56.912516 
L 626.260439 -56.912516 
L 627.036086 -56.912515 
L 627.811732 -56.912515 
L 628.587379 -56.912514 
L 629.363025 -56.912514 
L 630.138671 -56.912514 
L 630.914318 -56.912513 
L 631.689964 -56.912513 
L 632.46561 -56.912513 
L 633.241257 -56.912512 
L 634.016903 -56.912512 
L 634.79255 -56.912512 
L 635.568196 -56.912511 
L 636.343842 -56.912511 
L 637.119489 -56.912511 
L 637.119489 -57.852317 
L 637.119489 -57.852317 
L 636.343842 -57.8618 
L 635.568196 -57.871379 
L 634.79255 -57.881054 
L 634.016903 -57.890827 
L 633.241257 -57.900699 
L 632.46561 -57.91067 
L 631.689964 -57.920742 
L 630.914318 -57.930915 
L 630.138671 -57.941191 
L 629.363025 -57.95157 
L 628.587379 -57.962054 
L 627.811732 -57.972644 
L 627.036086 -57.98334 
L 626.260439 -57.994145 
L 625.484793 -58.005058 
L 624.709147 -58.016082 
L 623.9335 -58.027216 
L 623.157854 -58.038463 
L 622.382208 -58.049823 
L 621.606561 -58.061298 
L 620.830915 -58.072888 
L 620.055268 -58.084596 
L 619.279622 -58.096421 
L 618.503976 -58.108366 
L 617.728329 -58.120431 
L 616.952683 -58.132617 
L 616.177037 -58.144927 
L 615.40139 -58.15736 
L 614.625744 -58.169919 
L 613.850097 -58.182605 
L 613.074451 -58.195418 
L 612.298805 -58.208361 
L 611.523158 -58.221434 
L 610.747512 -58.234638 
L 609.971866 -58.247976 
L 609.196219 -58.261449 
L 608.420573 -58.275057 
L 607.644927 -58.288802 
L 606.86928 -58.302686 
L 606.093634 -58.31671 
L 605.317987 -58.330875 
L 604.542341 -58.345183 
L 603.766695 -58.359635 
L 602.991048 -58.374233 
L 602.215402 -58.388977 
L 601.439756 -58.403871 
L 600.664109 -58.418915 
L 599.888463 -58.43411 
L 599.112816 -58.449458 
L 598.33717 -58.464961 
L 597.561524 -58.48062 
L 596.785877 -58.496437 
L 596.010231 -58.512414 
L 595.234585 -58.528551 
L 594.458938 -58.544851 
L 593.683292 -58.561315 
L 592.907645 -58.577945 
L 592.131999 -58.594743 
L 591.356353 -58.61171 
L 590.580706 -58.628848 
L 589.80506 -58.646159 
L 589.029414 -58.663644 
L 588.253767 -58.681305 
L 587.478121 -58.699144 
L 586.702474 -58.717163 
L 585.926828 -58.735363 
L 585.151182 -58.753747 
L 584.375535 -58.772315 
L 583.599889 -58.791071 
L 582.824243 -58.810016 
L 582.048596 -58.829152 
L 581.27295 -58.84848 
L 580.497303 -58.868003 
L 579.721657 -58.887723 
L 578.946011 -58.907642 
L 578.170364 -58.927761 
L 577.394718 -58.948082 
L 576.619072 -58.968609 
L 575.843425 -58.989342 
L 575.067779 -59.010283 
L 574.292133 -59.031436 
L 573.516486 -59.052802 
L 572.74084 -59.074383 
L 571.965193 -59.096181 
L 571.189547 -59.118199 
L 570.413901 -59.140438 
L 569.638254 -59.162901 
L 568.862608 -59.185591 
L 568.086962 -59.208509 
L 567.311315 -59.231657 
L 566.535669 -59.255039 
L 565.760022 -59.278656 
L 564.984376 -59.302511 
L 564.20873 -59.326606 
L 563.433083 -59.350944 
L 562.657437 -59.375527 
L 561.881791 -59.400357 
L 561.106144 -59.425437 
L 560.330498 -59.450769 
L 559.554851 -59.476356 
L 558.779205 -59.502201 
L 558.003559 -59.528306 
L 557.227912 -59.554674 
L 556.452266 -59.581307 
L 555.67662 -59.608209 
L 554.900973 -59.635381 
L 554.125327 -59.662826 
L 553.34968 -59.690547 
L 552.574034 -59.718548 
L 551.798388 -59.74683 
L 551.022741 -59.775397 
L 550.247095 -59.804251 
L 549.471449 -59.833395 
L 548.695802 -59.862833 
L 547.920156 -59.892567 
L 547.144509 -59.9226 
L 546.368863 -59.952935 
L 545.593217 -59.983575 
L 544.81757 -60.014524 
L 544.041924 -60.045783 
L 543.266278 -60.077357 
L 542.490631 -60.109249 
L 541.714985 -60.141462 
L 540.939339 -60.173998 
L 540.163692 -60.206861 
L 539.388046 -60.240055 
L 538.612399 -60.273583 
L 537.836753 -60.307448 
L 537.061107 -60.341654 
L 536.28546 -60.376203 
L 535.509814 -60.4111 
L 534.734168 -60.446347 
L 533.958521 -60.481949 
L 533.182875 -60.517909 
L 532.407228 -60.55423 
L 531.631582 -60.590917 
L 530.855936 -60.627972 
L 530.080289 -60.665399 
L 529.304643 -60.703203 
L 528.528997 -60.741387 
L 527.75335 -60.779954 
L 526.977704 -60.818909 
L 526.202057 -60.858255 
L 525.426411 -60.897997 
L 524.650765 -60.938138 
L 523.875118 -60.978682 
L 523.099472 -61.019634 
L 522.323826 -61.060997 
L 521.548179 -61.102775 
L 520.772533 -61.144974 
L 519.996886 -61.187596 
L 519.22124 -61.230646 
L 518.445594 -61.274128 
L 517.669947 -61.318048 
L 516.894301 -61.362408 
L 516.118655 -61.407214 
L 515.343008 -61.452469 
L 514.567362 -61.498179 
L 513.791715 -61.544348 
L 513.016069 -61.590981 
L 512.240423 -61.638082 
L 511.464776 -61.685655 
L 510.68913 -61.733706 
L 509.913484 -61.782239 
L 509.137837 -61.83126 
L 508.362191 -61.880772 
L 507.586545 -61.930781 
L 506.810898 -61.981293 
L 506.035252 -62.032311 
L 505.259605 -62.08384 
L 504.483959 -62.135887 
L 503.708313 -62.188456 
L 502.932666 -62.241553 
L 502.15702 -62.295182 
L 501.381374 -62.349349 
L 500.605727 -62.404059 
L 499.830081 -62.459318 
L 499.054434 -62.515131 
L 498.278788 -62.571503 
L 497.503142 -62.628441 
L 496.727495 -62.68595 
L 495.951849 -62.744036 
L 495.176203 -62.802703 
L 494.400556 -62.861959 
L 493.62491 -62.921809 
L 492.849263 -62.982259 
L 492.073617 -63.043314 
L 491.297971 -63.104981 
L 490.522324 -63.167267 
L 489.746678 -63.230176 
L 488.971032 -63.293716 
L 488.195385 -63.357892 
L 487.419739 -63.422711 
L 486.644092 -63.488179 
L 485.868446 -63.554303 
L 485.0928 -63.621089 
L 484.317153 -63.688545 
L 483.541507 -63.756675 
L 482.765861 -63.825488 
L 481.990214 -63.894989 
L 481.214568 -63.965187 
L 480.438921 -64.036087 
L 479.663275 -64.107696 
L 478.887629 -64.180023 
L 478.111982 -64.253073 
L 477.336336 -64.326854 
L 476.56069 -64.401374 
L 475.785043 -64.476639 
L 475.009397 -64.552656 
L 474.233751 -64.629435 
L 473.458104 -64.706981 
L 472.682458 -64.785302 
L 471.906811 -64.864407 
L 471.131165 -64.944303 
L 470.355519 -65.024998 
L 469.579872 -65.106499 
L 468.804226 -65.188815 
L 468.02858 -65.271954 
L 467.252933 -65.355924 
L 466.477287 -65.440733 
L 465.70164 -65.526389 
L 464.925994 -65.612901 
L 464.150348 -65.700277 
L 463.374701 -65.788526 
L 462.599055 -65.877656 
L 461.823409 -65.967677 
L 461.047762 -66.058596 
L 460.272116 -66.150423 
L 459.496469 -66.243167 
L 458.720823 -66.336837 
L 457.945177 -66.431441 
L 457.16953 -66.52699 
L 456.393884 -66.623492 
L 455.618238 -66.720957 
L 454.842591 -66.819394 
L 454.066945 -66.918813 
L 453.291298 -67.019224 
L 452.515652 -67.120636 
L 451.740006 -67.22306 
L 450.964359 -67.326504 
L 450.188713 -67.43098 
L 449.413067 -67.536497 
L 448.63742 -67.643066 
L 447.861774 -67.750696 
L 447.086128 -67.859399 
L 446.310481 -67.969185 
L 445.534835 -68.080064 
L 444.759188 -68.192048 
L 443.983542 -68.305147 
L 443.207896 -68.419372 
L 442.432249 -68.534734 
L 441.656603 -68.651245 
L 440.880957 -68.768915 
L 440.10531 -68.887756 
L 439.329664 -69.007779 
L 438.554017 -69.128996 
L 437.778371 -69.25142 
L 437.002725 -69.37506 
L 436.227078 -69.49993 
L 435.451432 -69.626042 
L 434.675786 -69.753407 
L 433.900139 -69.882038 
L 433.124493 -70.011947 
L 432.348846 -70.143147 
L 431.5732 -70.27565 
L 430.797554 -70.40947 
L 430.021907 -70.544618 
L 429.246261 -70.681108 
L 428.470615 -70.818954 
L 427.694968 -70.958167 
L 426.919322 -71.098762 
L 426.143675 -71.240752 
L 425.368029 -71.384151 
L 424.592383 -71.528972 
L 423.816736 -71.67523 
L 423.04109 -71.822937 
L 422.265444 -71.972109 
L 421.489797 -72.122759 
L 420.714151 -72.274903 
L 419.938504 -72.428553 
L 419.162858 -72.583726 
L 418.387212 -72.740436 
L 417.611565 -72.898697 
L 416.835919 -73.058525 
L 416.060273 -73.219936 
L 415.284626 -73.382943 
L 414.50898 -73.547564 
L 413.733334 -73.713812 
L 412.957687 -73.881706 
L 412.182041 -74.051259 
L 411.406394 -74.222488 
L 410.630748 -74.39541 
L 409.855102 -74.570041 
L 409.079455 -74.746397 
L 408.303809 -74.924495 
L 407.528163 -75.104352 
L 406.752516 -75.285984 
L 405.97687 -75.46941 
L 405.201223 -75.654645 
L 404.425577 -75.841708 
L 403.649931 -76.030616 
L 402.874284 -76.221388 
L 402.098638 -76.41404 
L 401.322992 -76.608591 
L 400.547345 -76.805059 
L 399.771699 -77.003463 
L 398.996052 -77.203821 
L 398.220406 -77.406152 
L 397.44476 -77.610475 
L 396.669113 -77.816809 
L 395.893467 -78.025173 
L 395.117821 -78.235587 
L 394.342174 -78.44807 
L 393.566528 -78.662642 
L 392.790881 -78.879323 
L 392.015235 -79.098134 
L 391.239589 -79.319094 
L 390.463942 -79.542224 
L 389.688296 -79.767545 
L 388.91265 -79.995078 
L 388.137003 -80.224843 
L 387.361357 -80.456862 
L 386.58571 -80.691157 
L 385.810064 -80.927748 
L 385.034418 -81.166659 
L 384.258771 -81.40791 
L 383.483125 -81.651525 
L 382.707479 -81.897525 
L 381.931832 -82.145933 
L 381.156186 -82.396773 
L 380.38054 -82.650066 
L 379.604893 -82.905836 
L 378.829247 -83.164107 
L 378.0536 -83.424902 
L 377.277954 -83.688246 
L 376.502308 -83.954161 
L 375.726661 -84.222672 
L 374.951015 -84.493805 
L 374.175369 -84.767583 
L 373.399722 -85.044031 
L 372.624076 -85.323175 
L 371.848429 -85.605039 
L 371.072783 -85.88965 
L 370.297137 -86.177032 
L 369.52149 -86.467213 
L 368.745844 -86.760218 
L 367.970198 -87.056074 
L 367.194551 -87.354806 
L 366.418905 -87.656443 
L 365.643258 -87.961012 
L 364.867612 -88.268539 
L 364.091966 -88.579052 
L 363.316319 -88.892579 
L 362.540673 -89.209148 
L 361.765027 -89.528787 
L 360.98938 -89.851525 
L 360.213734 -90.17739 
L 359.438087 -90.506413 
L 358.662441 -90.83862 
L 357.886795 -91.174043 
L 357.111148 -91.512711 
L 356.335502 -91.854654 
L 355.559856 -92.199902 
L 354.784209 -92.548486 
L 354.008563 -92.900436 
L 353.232916 -93.255783 
L 352.45727 -93.614558 
L 351.681624 -93.976794 
L 350.905977 -94.342521 
L 350.130331 -94.711772 
L 349.354685 -95.084579 
L 348.579038 -95.460974 
L 347.803392 -95.840991 
L 347.027746 -96.224662 
L 346.252099 -96.61202 
L 345.476453 -97.0031 
L 344.700806 -97.397934 
L 343.92516 -97.796558 
L 343.149514 -98.199005 
L 342.373867 -98.60531 
L 341.598221 -99.015508 
L 340.822575 -99.429635 
L 340.046928 -99.847725 
L 339.271282 -100.269814 
L 338.495635 -100.69594 
L 337.719989 -101.126137 
L 336.944343 -101.560442 
L 336.168696 -101.998893 
L 335.39305 -102.441526 
L 334.617404 -102.888379 
L 333.841757 -103.33949 
L 333.066111 -103.794896 
L 332.290464 -104.254637 
L 331.514818 -104.71875 
L 330.739172 -105.187274 
L 329.963525 -105.660249 
L 329.187879 -106.137715 
L 328.412233 -106.61971 
L 327.636586 -107.106275 
L 326.86094 -107.59745 
L 326.085293 -108.093277 
L 325.309647 -108.593795 
L 324.534001 -109.099046 
L 323.758354 -109.609072 
L 322.982708 -110.123915 
L 322.207062 -110.643617 
L 321.431415 -111.16822 
L 320.655769 -111.697766 
L 319.880122 -112.2323 
L 319.104476 -112.771864 
L 318.32883 -113.316503 
L 317.553183 -113.866259 
L 316.777537 -114.421178 
L 316.001891 -114.981304 
L 315.226244 -115.546681 
L 314.450598 -116.117356 
L 313.674952 -116.693373 
L 312.899305 -117.274779 
L 312.123659 -117.86162 
L 311.348012 -118.453941 
L 310.572366 -119.051791 
L 309.79672 -119.655215 
L 309.021073 -120.264261 
L 308.245427 -120.878978 
L 307.469781 -121.499412 
L 306.694134 -122.125613 
L 305.918488 -122.757629 
L 305.142841 -123.395509 
L 304.367195 -124.039301 
L 303.591549 -124.689057 
L 302.815902 -125.344825 
L 302.040256 -126.006656 
L 301.26461 -126.6746 
L 300.488963 -127.348709 
L 299.713317 -128.029032 
L 298.93767 -128.715622 
L 298.162024 -129.408531 
L 297.386378 -130.10781 
L 296.610731 -130.813512 
L 295.835085 -131.52569 
L 295.059439 -132.244395 
L 294.283792 -132.969683 
L 293.508146 -133.701606 
L 292.732499 -134.440218 
L 291.956853 -135.185573 
L 291.181207 -135.937726 
L 290.40556 -136.696732 
L 289.629914 -137.462646 
L 288.854268 -138.235523 
L 288.078621 -139.015418 
L 287.302975 -139.802388 
L 286.527329 -140.59649 
L 285.751682 -141.397778 
L 284.976036 -142.206312 
L 284.200389 -143.022146 
L 283.424743 -143.84534 
L 282.649097 -144.67595 
L 281.87345 -145.514035 
L 281.097804 -146.359653 
L 280.322158 -147.212863 
L 279.546511 -148.073722 
L 278.770865 -148.942291 
L 277.995218 -149.818628 
L 277.219572 -150.702794 
L 276.443926 -151.594848 
L 275.668279 -152.49485 
L 274.892633 -153.40286 
L 274.116987 -154.31894 
L 273.34134 -155.24315 
L 272.565694 -156.175551 
L 271.790047 -157.116205 
L 271.014401 -158.065173 
L 270.238755 -159.022516 
L 269.463108 -159.988298 
L 268.687462 -160.962581 
L 267.911816 -161.945426 
L 267.136169 -162.936897 
L 266.360523 -163.937056 
L 265.584876 -164.945967 
L 264.80923 -165.963693 
L 264.033584 -166.990297 
L 263.257937 -168.025843 
L 262.482291 -169.070396 
L 261.706645 -170.124018 
L 260.930998 -171.186775 
L 260.155352 -172.258731 
L 259.379705 -173.33995 
L 258.604059 -174.430497 
L 257.828413 -175.530437 
L 257.052766 -176.639834 
L 256.27712 -177.758755 
L 255.501474 -178.887263 
L 254.725827 -180.025425 
L 253.950181 -181.173306 
L 253.174535 -182.330972 
L 252.398888 -183.498487 
L 251.623242 -184.675918 
L 250.847595 -185.863331 
L 250.071949 -187.060791 
L 249.296303 -188.268364 
L 248.520656 -189.486115 
L 247.74501 -190.714112 
L 246.969364 -191.952419 
L 246.193717 -193.201103 
L 245.418071 -194.46023 
L 244.642424 -195.729864 
L 243.866778 -197.010073 
L 243.091132 -198.300922 
L 242.315485 -199.602476 
L 241.539839 -200.914801 
L 240.764193 -202.237963 
L 239.988546 -203.572026 
L 239.2129 -204.917056 
L 238.437253 -206.273118 
L 237.661607 -207.640277 
L 236.885961 -209.018597 
L 236.110314 -210.408143 
L 235.334668 -211.808979 
L 234.559022 -213.221168 
L 233.783375 -214.644774 
L 233.007729 -216.07986 
L 232.232082 -217.526489 
L 231.456436 -218.984724 
L 230.68079 -220.454626 
L 229.905143 -221.936256 
L 229.129497 -223.429676 
L 228.353851 -224.934947 
L 227.578204 -226.452127 
L 226.802558 -227.981276 
L 226.026911 -229.522453 
L 225.251265 -231.075714 
L 224.475619 -232.641118 
L 223.699972 -234.21872 
L 222.924326 -235.808576 
L 222.14868 -237.410738 
L 221.373033 -239.025261 
L 220.597387 -240.652197 
L 219.821741 -242.291595 
L 219.046094 -243.943506 
L 218.270448 -245.607977 
L 217.494801 -247.285055 
L 216.719155 -248.974785 
L 215.943509 -250.677209 
L 215.167862 -252.392368 
L 214.392216 -254.120303 
L 213.61657 -255.861049 
L 212.840923 -257.614641 
L 212.065277 -259.381112 
L 211.28963 -261.160491 
L 210.513984 -262.952804 
L 209.738338 -264.758075 
L 208.962691 -266.576323 
L 208.187045 -268.407565 
L 207.411399 -270.251814 
L 206.635752 -272.109077 
L 205.860106 -273.979359 
L 205.084459 -275.862658 
L 204.308813 -277.758969 
L 203.533167 -279.668278 
L 202.75752 -281.590568 
L 201.981874 -283.525814 
L 201.206228 -285.473985 
L 200.430581 -287.435041 
L 199.654935 -289.408934 
L 198.879288 -291.395608 
L 198.103642 -293.394995 
L 197.327996 -295.407021 
L 196.552349 -297.431596 
L 195.776703 -299.46862 
L 195.001057 -301.51798 
L 194.22541 -303.579549 
L 193.449764 -305.653183 
L 192.674117 -307.738723 
L 191.898471 -309.835992 
L 191.122825 -311.944792 
L 190.347178 -314.064905 
L 189.571532 -316.19609 
L 188.795886 -318.338081 
L 188.020239 -320.490586 
L 187.244593 -322.653283 
L 186.468947 -324.825819 
L 185.6933 -327.007808 
L 184.917654 -329.198825 
L 184.142007 -331.398407 
L 183.366361 -333.606045 
L 182.590715 -335.821187 
L 181.815068 -338.043226 
L 181.039422 -340.271503 
L 180.263776 -342.505297 
L 179.488129 -344.743822 
L 178.712483 -346.986223 
L 177.936836 -349.231567 
L 177.16119 -351.478838 
L 176.385544 -353.726931 
L 175.609897 -355.97464 
L 174.834251 -358.220656 
L 174.058605 -360.463552 
L 173.282958 -362.701776 
L 172.507312 -364.933639 
L 171.731665 -367.157305 
L 170.956019 -369.370773 
L 170.180373 -371.571869 
L 169.404726 -373.758227 
L 168.62908 -375.92727 
L 167.853434 -378.076197 
L 167.077787 -380.201957 
L 166.302141 -382.301229 
L 165.526494 -384.3704 
L 164.750848 -386.405531 
L 163.975202 -388.402335 
L 163.199555 -390.356139 
L 162.423909 -392.261849 
L 161.648263 -394.113911 
L 160.872616 -395.906267 
L 160.09697 -397.632305 
L 159.321323 -399.284804 
L 158.545677 -400.855878 
L 157.770031 -402.336901 
L 156.994384 -403.718441 
L 156.218738 -404.990166 
L 155.443092 -406.140762 
L 154.667445 -407.157814 
L 153.891799 -408.027697 
L 153.116153 -408.735439 
L 152.340506 -409.264563 
L 151.56486 -409.596923 
L 150.789213 -409.7125 
L 150.013567 -409.589178 
L 149.237921 -409.403353 
L 148.462274 -409.67682 
L 147.686628 -409.675409 
L 146.910982 -409.365175 
L 146.135335 -409.538814 
L 145.359689 -409.7125 
L 144.584042 -409.52142 
L 143.808396 -409.226743 
L 143.03275 -409.65525 
L 142.257103 -409.651658 
L 141.481457 -409.129373 
L 140.705811 -409.415356 
L 139.930164 -409.7125 
L 139.154518 -409.362523 
L 138.378871 -408.184825 
L 137.603225 -405.946337 
L 136.827579 -402.34435 
L 136.051932 -396.982557 
L 135.276286 -389.336956 
L 134.50064 -378.7062 
L 133.724993 -364.137367 
L 132.949347 -344.311666 
L 132.1737 -317.362462 
L 131.398054 -280.574276 
L 130.622408 -229.862455 
L 129.846761 -158.825967 
z
" style="stroke: #ffa500; stroke-opacity: 0.3"/>
    </defs>
    <g clip-path="url(#pd63056bf98)">
     <use xlink:href="#m72315a516e" x="0" y="473.389375" style="fill: #ffa500; fill-opacity: 0.3; stroke: #ffa500; stroke-opacity: 0.3"/>
    </g>
   </g>
   <g id="matplotlib.axis_1">
    <g id="xtick_1">
     <g id="line2d_1">
      <defs>
       <path id="m0d6fd344be" d="M 0 0 
L 0 3.5 
" style="stroke: #000000; stroke-width: 0.8"/>
      </defs>
      <g>
       <use xlink:href="#m0d6fd344be" x="129.071115" y="416.476875" style="stroke: #000000; stroke-width: 0.8"/>
      </g>
     </g>
     <g id="text_1">
      <!-- 0 -->
      <g transform="translate(122.708615 438.67375) scale(0.2 -0.2)">
       <defs>
        <path id="DejaVuSans-30" d="M 2034 4250 
Q 1547 4250 1301 3770 
Q 1056 3291 1056 2328 
Q 1056 1369 1301 889 
Q 1547 409 2034 409 
Q 2525 409 2770 889 
Q 3016 1369 3016 2328 
Q 3016 3291 2770 3770 
Q 2525 4250 2034 4250 
z
M 2034 4750 
Q 2819 4750 3233 4129 
Q 3647 3509 3647 2328 
Q 3647 1150 3233 529 
Q 2819 -91 2034 -91 
Q 1250 -91 836 529 
Q 422 1150 422 2328 
Q 422 3509 836 4129 
Q 1250 4750 2034 4750 
z
" transform="scale(0.015625)"/>
       </defs>
       <use xlink:href="#DejaVuSans-30"/>
      </g>
     </g>
    </g>
    <g id="xtick_2">
     <g id="line2d_2">
      <g>
       <use xlink:href="#m0d6fd344be" x="206.635752" y="416.476875" style="stroke: #000000; stroke-width: 0.8"/>
      </g>
     </g>
     <g id="text_2">
      <!-- 100 -->
      <g transform="translate(187.548252 438.67375) scale(0.2 -0.2)">
       <defs>
        <path id="DejaVuSans-31" d="M 794 531 
L 1825 531 
L 1825 4091 
L 703 3866 
L 703 4441 
L 1819 4666 
L 2450 4666 
L 2450 531 
L 3481 531 
L 3481 0 
L 794 0 
L 794 531 
z
" transform="scale(0.015625)"/>
       </defs>
       <use xlink:href="#DejaVuSans-31"/>
       <use xlink:href="#DejaVuSans-30" x="63.623047"/>
       <use xlink:href="#DejaVuSans-30" x="127.246094"/>
      </g>
     </g>
    </g>
    <g id="xtick_3">
     <g id="line2d_3">
      <g>
       <use xlink:href="#m0d6fd344be" x="284.200389" y="416.476875" style="stroke: #000000; stroke-width: 0.8"/>
      </g>
     </g>
     <g id="text_3">
      <!-- 200 -->
      <g transform="translate(265.112889 438.67375) scale(0.2 -0.2)">
       <defs>
        <path id="DejaVuSans-32" d="M 1228 531 
L 3431 531 
L 3431 0 
L 469 0 
L 469 531 
Q 828 903 1448 1529 
Q 2069 2156 2228 2338 
Q 2531 2678 2651 2914 
Q 2772 3150 2772 3378 
Q 2772 3750 2511 3984 
Q 2250 4219 1831 4219 
Q 1534 4219 1204 4116 
Q 875 4013 500 3803 
L 500 4441 
Q 881 4594 1212 4672 
Q 1544 4750 1819 4750 
Q 2544 4750 2975 4387 
Q 3406 4025 3406 3419 
Q 3406 3131 3298 2873 
Q 3191 2616 2906 2266 
Q 2828 2175 2409 1742 
Q 1991 1309 1228 531 
z
" transform="scale(0.015625)"/>
       </defs>
       <use xlink:href="#DejaVuSans-32"/>
       <use xlink:href="#DejaVuSans-30" x="63.623047"/>
       <use xlink:href="#DejaVuSans-30" x="127.246094"/>
      </g>
     </g>
    </g>
    <g id="xtick_4">
     <g id="line2d_4">
      <g>
       <use xlink:href="#m0d6fd344be" x="361.765027" y="416.476875" style="stroke: #000000; stroke-width: 0.8"/>
      </g>
     </g>
     <g id="text_4">
      <!-- 300 -->
      <g transform="translate(342.677527 438.67375) scale(0.2 -0.2)">
       <defs>
        <path id="DejaVuSans-33" d="M 2597 2516 
Q 3050 2419 3304 2112 
Q 3559 1806 3559 1356 
Q 3559 666 3084 287 
Q 2609 -91 1734 -91 
Q 1441 -91 1130 -33 
Q 819 25 488 141 
L 488 750 
Q 750 597 1062 519 
Q 1375 441 1716 441 
Q 2309 441 2620 675 
Q 2931 909 2931 1356 
Q 2931 1769 2642 2001 
Q 2353 2234 1838 2234 
L 1294 2234 
L 1294 2753 
L 1863 2753 
Q 2328 2753 2575 2939 
Q 2822 3125 2822 3475 
Q 2822 3834 2567 4026 
Q 2313 4219 1838 4219 
Q 1578 4219 1281 4162 
Q 984 4106 628 3988 
L 628 4550 
Q 988 4650 1302 4700 
Q 1616 4750 1894 4750 
Q 2613 4750 3031 4423 
Q 3450 4097 3450 3541 
Q 3450 3153 3228 2886 
Q 3006 2619 2597 2516 
z
" transform="scale(0.015625)"/>
       </defs>
       <use xlink:href="#DejaVuSans-33"/>
       <use xlink:href="#DejaVuSans-30" x="63.623047"/>
       <use xlink:href="#DejaVuSans-30" x="127.246094"/>
      </g>
     </g>
    </g>
    <g id="xtick_5">
     <g id="line2d_5">
      <g>
       <use xlink:href="#m0d6fd344be" x="439.329664" y="416.476875" style="stroke: #000000; stroke-width: 0.8"/>
      </g>
     </g>
     <g id="text_5">
      <!-- 400 -->
      <g transform="translate(420.242164 438.67375) scale(0.2 -0.2)">
       <defs>
        <path id="DejaVuSans-34" d="M 2419 4116 
L 825 1625 
L 2419 1625 
L 2419 4116 
z
M 2253 4666 
L 3047 4666 
L 3047 1625 
L 3713 1625 
L 3713 1100 
L 3047 1100 
L 3047 0 
L 2419 0 
L 2419 1100 
L 313 1100 
L 313 1709 
L 2253 4666 
z
" transform="scale(0.015625)"/>
       </defs>
       <use xlink:href="#DejaVuSans-34"/>
       <use xlink:href="#DejaVuSans-30" x="63.623047"/>
       <use xlink:href="#DejaVuSans-30" x="127.246094"/>
      </g>
     </g>
    </g>
    <g id="xtick_6">
     <g id="line2d_6">
      <g>
       <use xlink:href="#m0d6fd344be" x="516.894301" y="416.476875" style="stroke: #000000; stroke-width: 0.8"/>
      </g>
     </g>
     <g id="text_6">
      <!-- 500 -->
      <g transform="translate(497.806801 438.67375) scale(0.2 -0.2)">
       <defs>
        <path id="DejaVuSans-35" d="M 691 4666 
L 3169 4666 
L 3169 4134 
L 1269 4134 
L 1269 2991 
Q 1406 3038 1543 3061 
Q 1681 3084 1819 3084 
Q 2600 3084 3056 2656 
Q 3513 2228 3513 1497 
Q 3513 744 3044 326 
Q 2575 -91 1722 -91 
Q 1428 -91 1123 -41 
Q 819 9 494 109 
L 494 744 
Q 775 591 1075 516 
Q 1375 441 1709 441 
Q 2250 441 2565 725 
Q 2881 1009 2881 1497 
Q 2881 1984 2565 2268 
Q 2250 2553 1709 2553 
Q 1456 2553 1204 2497 
Q 953 2441 691 2322 
L 691 4666 
z
" transform="scale(0.015625)"/>
       </defs>
       <use xlink:href="#DejaVuSans-35"/>
       <use xlink:href="#DejaVuSans-30" x="63.623047"/>
       <use xlink:href="#DejaVuSans-30" x="127.246094"/>
      </g>
     </g>
    </g>
    <g id="xtick_7">
     <g id="line2d_7">
      <g>
       <use xlink:href="#m0d6fd344be" x="594.458938" y="416.476875" style="stroke: #000000; stroke-width: 0.8"/>
      </g>
     </g>
     <g id="text_7">
      <!-- 600 -->
      <g transform="translate(575.371438 438.67375) scale(0.2 -0.2)">
       <defs>
        <path id="DejaVuSans-36" d="M 2113 2584 
Q 1688 2584 1439 2293 
Q 1191 2003 1191 1497 
Q 1191 994 1439 701 
Q 1688 409 2113 409 
Q 2538 409 2786 701 
Q 3034 994 3034 1497 
Q 3034 2003 2786 2293 
Q 2538 2584 2113 2584 
z
M 3366 4563 
L 3366 3988 
Q 3128 4100 2886 4159 
Q 2644 4219 2406 4219 
Q 1781 4219 1451 3797 
Q 1122 3375 1075 2522 
Q 1259 2794 1537 2939 
Q 1816 3084 2150 3084 
Q 2853 3084 3261 2657 
Q 3669 2231 3669 1497 
Q 3669 778 3244 343 
Q 2819 -91 2113 -91 
Q 1303 -91 875 529 
Q 447 1150 447 2328 
Q 447 3434 972 4092 
Q 1497 4750 2381 4750 
Q 2619 4750 2861 4703 
Q 3103 4656 3366 4563 
z
" transform="scale(0.015625)"/>
       </defs>
       <use xlink:href="#DejaVuSans-36"/>
       <use xlink:href="#DejaVuSans-30" x="63.623047"/>
       <use xlink:href="#DejaVuSans-30" x="127.246094"/>
      </g>
     </g>
    </g>
    <g id="text_8">
     <!-- Days since antigen exposure -->
     <g transform="translate(239.062812 462.03) scale(0.2 -0.2)">
      <defs>
       <path id="DejaVuSans-44" d="M 1259 4147 
L 1259 519 
L 2022 519 
Q 2988 519 3436 956 
Q 3884 1394 3884 2338 
Q 3884 3275 3436 3711 
Q 2988 4147 2022 4147 
L 1259 4147 
z
M 628 4666 
L 1925 4666 
Q 3281 4666 3915 4102 
Q 4550 3538 4550 2338 
Q 4550 1131 3912 565 
Q 3275 0 1925 0 
L 628 0 
L 628 4666 
z
" transform="scale(0.015625)"/>
       <path id="DejaVuSans-61" d="M 2194 1759 
Q 1497 1759 1228 1600 
Q 959 1441 959 1056 
Q 959 750 1161 570 
Q 1363 391 1709 391 
Q 2188 391 2477 730 
Q 2766 1069 2766 1631 
L 2766 1759 
L 2194 1759 
z
M 3341 1997 
L 3341 0 
L 2766 0 
L 2766 531 
Q 2569 213 2275 61 
Q 1981 -91 1556 -91 
Q 1019 -91 701 211 
Q 384 513 384 1019 
Q 384 1609 779 1909 
Q 1175 2209 1959 2209 
L 2766 2209 
L 2766 2266 
Q 2766 2663 2505 2880 
Q 2244 3097 1772 3097 
Q 1472 3097 1187 3025 
Q 903 2953 641 2809 
L 641 3341 
Q 956 3463 1253 3523 
Q 1550 3584 1831 3584 
Q 2591 3584 2966 3190 
Q 3341 2797 3341 1997 
z
" transform="scale(0.015625)"/>
       <path id="DejaVuSans-79" d="M 2059 -325 
Q 1816 -950 1584 -1140 
Q 1353 -1331 966 -1331 
L 506 -1331 
L 506 -850 
L 844 -850 
Q 1081 -850 1212 -737 
Q 1344 -625 1503 -206 
L 1606 56 
L 191 3500 
L 800 3500 
L 1894 763 
L 2988 3500 
L 3597 3500 
L 2059 -325 
z
" transform="scale(0.015625)"/>
       <path id="DejaVuSans-73" d="M 2834 3397 
L 2834 2853 
Q 2591 2978 2328 3040 
Q 2066 3103 1784 3103 
Q 1356 3103 1142 2972 
Q 928 2841 928 2578 
Q 928 2378 1081 2264 
Q 1234 2150 1697 2047 
L 1894 2003 
Q 2506 1872 2764 1633 
Q 3022 1394 3022 966 
Q 3022 478 2636 193 
Q 2250 -91 1575 -91 
Q 1294 -91 989 -36 
Q 684 19 347 128 
L 347 722 
Q 666 556 975 473 
Q 1284 391 1588 391 
Q 1994 391 2212 530 
Q 2431 669 2431 922 
Q 2431 1156 2273 1281 
Q 2116 1406 1581 1522 
L 1381 1569 
Q 847 1681 609 1914 
Q 372 2147 372 2553 
Q 372 3047 722 3315 
Q 1072 3584 1716 3584 
Q 2034 3584 2315 3537 
Q 2597 3491 2834 3397 
z
" transform="scale(0.015625)"/>
       <path id="DejaVuSans-20" transform="scale(0.015625)"/>
       <path id="DejaVuSans-69" d="M 603 3500 
L 1178 3500 
L 1178 0 
L 603 0 
L 603 3500 
z
M 603 4863 
L 1178 4863 
L 1178 4134 
L 603 4134 
L 603 4863 
z
" transform="scale(0.015625)"/>
       <path id="DejaVuSans-6e" d="M 3513 2113 
L 3513 0 
L 2938 0 
L 2938 2094 
Q 2938 2591 2744 2837 
Q 2550 3084 2163 3084 
Q 1697 3084 1428 2787 
Q 1159 2491 1159 1978 
L 1159 0 
L 581 0 
L 581 3500 
L 1159 3500 
L 1159 2956 
Q 1366 3272 1645 3428 
Q 1925 3584 2291 3584 
Q 2894 3584 3203 3211 
Q 3513 2838 3513 2113 
z
" transform="scale(0.015625)"/>
       <path id="DejaVuSans-63" d="M 3122 3366 
L 3122 2828 
Q 2878 2963 2633 3030 
Q 2388 3097 2138 3097 
Q 1578 3097 1268 2742 
Q 959 2388 959 1747 
Q 959 1106 1268 751 
Q 1578 397 2138 397 
Q 2388 397 2633 464 
Q 2878 531 3122 666 
L 3122 134 
Q 2881 22 2623 -34 
Q 2366 -91 2075 -91 
Q 1284 -91 818 406 
Q 353 903 353 1747 
Q 353 2603 823 3093 
Q 1294 3584 2113 3584 
Q 2378 3584 2631 3529 
Q 2884 3475 3122 3366 
z
" transform="scale(0.015625)"/>
       <path id="DejaVuSans-65" d="M 3597 1894 
L 3597 1613 
L 953 1613 
Q 991 1019 1311 708 
Q 1631 397 2203 397 
Q 2534 397 2845 478 
Q 3156 559 3463 722 
L 3463 178 
Q 3153 47 2828 -22 
Q 2503 -91 2169 -91 
Q 1331 -91 842 396 
Q 353 884 353 1716 
Q 353 2575 817 3079 
Q 1281 3584 2069 3584 
Q 2775 3584 3186 3129 
Q 3597 2675 3597 1894 
z
M 3022 2063 
Q 3016 2534 2758 2815 
Q 2500 3097 2075 3097 
Q 1594 3097 1305 2825 
Q 1016 2553 972 2059 
L 3022 2063 
z
" transform="scale(0.015625)"/>
       <path id="DejaVuSans-74" d="M 1172 4494 
L 1172 3500 
L 2356 3500 
L 2356 3053 
L 1172 3053 
L 1172 1153 
Q 1172 725 1289 603 
Q 1406 481 1766 481 
L 2356 481 
L 2356 0 
L 1766 0 
Q 1100 0 847 248 
Q 594 497 594 1153 
L 594 3053 
L 172 3053 
L 172 3500 
L 594 3500 
L 594 4494 
L 1172 4494 
z
" transform="scale(0.015625)"/>
       <path id="DejaVuSans-67" d="M 2906 1791 
Q 2906 2416 2648 2759 
Q 2391 3103 1925 3103 
Q 1463 3103 1205 2759 
Q 947 2416 947 1791 
Q 947 1169 1205 825 
Q 1463 481 1925 481 
Q 2391 481 2648 825 
Q 2906 1169 2906 1791 
z
M 3481 434 
Q 3481 -459 3084 -895 
Q 2688 -1331 1869 -1331 
Q 1566 -1331 1297 -1286 
Q 1028 -1241 775 -1147 
L 775 -588 
Q 1028 -725 1275 -790 
Q 1522 -856 1778 -856 
Q 2344 -856 2625 -561 
Q 2906 -266 2906 331 
L 2906 616 
Q 2728 306 2450 153 
Q 2172 0 1784 0 
Q 1141 0 747 490 
Q 353 981 353 1791 
Q 353 2603 747 3093 
Q 1141 3584 1784 3584 
Q 2172 3584 2450 3431 
Q 2728 3278 2906 2969 
L 2906 3500 
L 3481 3500 
L 3481 434 
z
" transform="scale(0.015625)"/>
       <path id="DejaVuSans-78" d="M 3513 3500 
L 2247 1797 
L 3578 0 
L 2900 0 
L 1881 1375 
L 863 0 
L 184 0 
L 1544 1831 
L 300 3500 
L 978 3500 
L 1906 2253 
L 2834 3500 
L 3513 3500 
z
" transform="scale(0.015625)"/>
       <path id="DejaVuSans-70" d="M 1159 525 
L 1159 -1331 
L 581 -1331 
L 581 3500 
L 1159 3500 
L 1159 2969 
Q 1341 3281 1617 3432 
Q 1894 3584 2278 3584 
Q 2916 3584 3314 3078 
Q 3713 2572 3713 1747 
Q 3713 922 3314 415 
Q 2916 -91 2278 -91 
Q 1894 -91 1617 61 
Q 1341 213 1159 525 
z
M 3116 1747 
Q 3116 2381 2855 2742 
Q 2594 3103 2138 3103 
Q 1681 3103 1420 2742 
Q 1159 2381 1159 1747 
Q 1159 1113 1420 752 
Q 1681 391 2138 391 
Q 2594 391 2855 752 
Q 3116 1113 3116 1747 
z
" transform="scale(0.015625)"/>
       <path id="DejaVuSans-6f" d="M 1959 3097 
Q 1497 3097 1228 2736 
Q 959 2375 959 1747 
Q 959 1119 1226 758 
Q 1494 397 1959 397 
Q 2419 397 2687 759 
Q 2956 1122 2956 1747 
Q 2956 2369 2687 2733 
Q 2419 3097 1959 3097 
z
M 1959 3584 
Q 2709 3584 3137 3096 
Q 3566 2609 3566 1747 
Q 3566 888 3137 398 
Q 2709 -91 1959 -91 
Q 1206 -91 779 398 
Q 353 888 353 1747 
Q 353 2609 779 3096 
Q 1206 3584 1959 3584 
z
" transform="scale(0.015625)"/>
       <path id="DejaVuSans-75" d="M 544 1381 
L 544 3500 
L 1119 3500 
L 1119 1403 
Q 1119 906 1312 657 
Q 1506 409 1894 409 
Q 2359 409 2629 706 
Q 2900 1003 2900 1516 
L 2900 3500 
L 3475 3500 
L 3475 0 
L 2900 0 
L 2900 538 
Q 2691 219 2414 64 
Q 2138 -91 1772 -91 
Q 1169 -91 856 284 
Q 544 659 544 1381 
z
M 1991 3584 
L 1991 3584 
z
" transform="scale(0.015625)"/>
       <path id="DejaVuSans-72" d="M 2631 2963 
Q 2534 3019 2420 3045 
Q 2306 3072 2169 3072 
Q 1681 3072 1420 2755 
Q 1159 2438 1159 1844 
L 1159 0 
L 581 0 
L 581 3500 
L 1159 3500 
L 1159 2956 
Q 1341 3275 1631 3429 
Q 1922 3584 2338 3584 
Q 2397 3584 2469 3576 
Q 2541 3569 2628 3553 
L 2631 2963 
z
" transform="scale(0.015625)"/>
      </defs>
      <use xlink:href="#DejaVuSans-44"/>
      <use xlink:href="#DejaVuSans-61" x="77.001953"/>
      <use xlink:href="#DejaVuSans-79" x="138.28125"/>
      <use xlink:href="#DejaVuSans-73" x="197.460938"/>
      <use xlink:href="#DejaVuSans-20" x="249.560547"/>
      <use xlink:href="#DejaVuSans-73" x="281.347656"/>
      <use xlink:href="#DejaVuSans-69" x="333.447266"/>
      <use xlink:href="#DejaVuSans-6e" x="361.230469"/>
      <use xlink:href="#DejaVuSans-63" x="424.609375"/>
      <use xlink:href="#DejaVuSans-65" x="479.589844"/>
      <use xlink:href="#DejaVuSans-20" x="541.113281"/>
      <use xlink:href="#DejaVuSans-61" x="572.900391"/>
      <use xlink:href="#DejaVuSans-6e" x="634.179688"/>
      <use xlink:href="#DejaVuSans-74" x="697.558594"/>
      <use xlink:href="#DejaVuSans-69" x="736.767578"/>
      <use xlink:href="#DejaVuSans-67" x="764.550781"/>
      <use xlink:href="#DejaVuSans-65" x="828.027344"/>
      <use xlink:href="#DejaVuSans-6e" x="889.550781"/>
      <use xlink:href="#DejaVuSans-20" x="952.929688"/>
      <use xlink:href="#DejaVuSans-65" x="984.716797"/>
      <use xlink:href="#DejaVuSans-78" x="1044.490234"/>
      <use xlink:href="#DejaVuSans-70" x="1103.669922"/>
      <use xlink:href="#DejaVuSans-6f" x="1167.146484"/>
      <use xlink:href="#DejaVuSans-73" x="1228.328125"/>
      <use xlink:href="#DejaVuSans-75" x="1280.427734"/>
      <use xlink:href="#DejaVuSans-72" x="1343.806641"/>
      <use xlink:href="#DejaVuSans-65" x="1382.669922"/>
     </g>
    </g>
   </g>
   <g id="matplotlib.axis_2">
    <g id="ytick_1">
     <g id="line2d_8">
      <defs>
       <path id="madec2b2bde" d="M 0 0 
L -3.5 0 
" style="stroke: #000000; stroke-width: 0.8"/>
      </defs>
      <g>
       <use xlink:href="#madec2b2bde" x="104.483125" y="416.476875" style="stroke: #000000; stroke-width: 0.8"/>
      </g>
     </g>
     <g id="text_9">
      <!-- 0.00 -->
      <g transform="translate(52.951875 424.075312) scale(0.2 -0.2)">
       <defs>
        <path id="DejaVuSans-2e" d="M 684 794 
L 1344 794 
L 1344 0 
L 684 0 
L 684 794 
z
" transform="scale(0.015625)"/>
       </defs>
       <use xlink:href="#DejaVuSans-30"/>
       <use xlink:href="#DejaVuSans-2e" x="63.623047"/>
       <use xlink:href="#DejaVuSans-30" x="95.410156"/>
       <use xlink:href="#DejaVuSans-30" x="159.033203"/>
      </g>
     </g>
    </g>
    <g id="ytick_2">
     <g id="line2d_9">
      <g>
       <use xlink:href="#madec2b2bde" x="104.483125" y="362.156769" style="stroke: #000000; stroke-width: 0.8"/>
      </g>
     </g>
     <g id="text_10">
      <!-- 0.05 -->
      <g transform="translate(52.951875 369.755206) scale(0.2 -0.2)">
       <use xlink:href="#DejaVuSans-30"/>
       <use xlink:href="#DejaVuSans-2e" x="63.623047"/>
       <use xlink:href="#DejaVuSans-30" x="95.410156"/>
       <use xlink:href="#DejaVuSans-35" x="159.033203"/>
      </g>
     </g>
    </g>
    <g id="ytick_3">
     <g id="line2d_10">
      <g>
       <use xlink:href="#madec2b2bde" x="104.483125" y="307.836663" style="stroke: #000000; stroke-width: 0.8"/>
      </g>
     </g>
     <g id="text_11">
      <!-- 0.10 -->
      <g transform="translate(52.951875 315.4351) scale(0.2 -0.2)">
       <use xlink:href="#DejaVuSans-30"/>
       <use xlink:href="#DejaVuSans-2e" x="63.623047"/>
       <use xlink:href="#DejaVuSans-31" x="95.410156"/>
       <use xlink:href="#DejaVuSans-30" x="159.033203"/>
      </g>
     </g>
    </g>
    <g id="ytick_4">
     <g id="line2d_11">
      <g>
       <use xlink:href="#madec2b2bde" x="104.483125" y="253.516557" style="stroke: #000000; stroke-width: 0.8"/>
      </g>
     </g>
     <g id="text_12">
      <!-- 0.15 -->
      <g transform="translate(52.951875 261.114994) scale(0.2 -0.2)">
       <use xlink:href="#DejaVuSans-30"/>
       <use xlink:href="#DejaVuSans-2e" x="63.623047"/>
       <use xlink:href="#DejaVuSans-31" x="95.410156"/>
       <use xlink:href="#DejaVuSans-35" x="159.033203"/>
      </g>
     </g>
    </g>
    <g id="ytick_5">
     <g id="line2d_12">
      <g>
       <use xlink:href="#madec2b2bde" x="104.483125" y="199.19645" style="stroke: #000000; stroke-width: 0.8"/>
      </g>
     </g>
     <g id="text_13">
      <!-- 0.20 -->
      <g transform="translate(52.951875 206.794888) scale(0.2 -0.2)">
       <use xlink:href="#DejaVuSans-30"/>
       <use xlink:href="#DejaVuSans-2e" x="63.623047"/>
       <use xlink:href="#DejaVuSans-32" x="95.410156"/>
       <use xlink:href="#DejaVuSans-30" x="159.033203"/>
      </g>
     </g>
    </g>
    <g id="ytick_6">
     <g id="line2d_13">
      <g>
       <use xlink:href="#madec2b2bde" x="104.483125" y="144.876344" style="stroke: #000000; stroke-width: 0.8"/>
      </g>
     </g>
     <g id="text_14">
      <!-- 0.25 -->
      <g transform="translate(52.951875 152.474782) scale(0.2 -0.2)">
       <use xlink:href="#DejaVuSans-30"/>
       <use xlink:href="#DejaVuSans-2e" x="63.623047"/>
       <use xlink:href="#DejaVuSans-32" x="95.410156"/>
       <use xlink:href="#DejaVuSans-35" x="159.033203"/>
      </g>
     </g>
    </g>
    <g id="ytick_7">
     <g id="line2d_14">
      <g>
       <use xlink:href="#madec2b2bde" x="104.483125" y="90.556238" style="stroke: #000000; stroke-width: 0.8"/>
      </g>
     </g>
     <g id="text_15">
      <!-- 0.30 -->
      <g transform="translate(52.951875 98.154676) scale(0.2 -0.2)">
       <use xlink:href="#DejaVuSans-30"/>
       <use xlink:href="#DejaVuSans-2e" x="63.623047"/>
       <use xlink:href="#DejaVuSans-33" x="95.410156"/>
       <use xlink:href="#DejaVuSans-30" x="159.033203"/>
      </g>
     </g>
    </g>
    <g id="ytick_8">
     <g id="line2d_15">
      <g>
       <use xlink:href="#madec2b2bde" x="104.483125" y="36.236132" style="stroke: #000000; stroke-width: 0.8"/>
      </g>
     </g>
     <g id="text_16">
      <!-- 0.35 -->
      <g transform="translate(52.951875 43.83457) scale(0.2 -0.2)">
       <use xlink:href="#DejaVuSans-30"/>
       <use xlink:href="#DejaVuSans-2e" x="63.623047"/>
       <use xlink:href="#DejaVuSans-33" x="95.410156"/>
       <use xlink:href="#DejaVuSans-35" x="159.033203"/>
      </g>
     </g>
    </g>
    <g id="text_17">
     <!-- Virus neutralization -->
     <g transform="translate(22.396875 319.741562) rotate(-90) scale(0.2 -0.2)">
      <defs>
       <path id="DejaVuSans-56" d="M 1831 0 
L 50 4666 
L 709 4666 
L 2188 738 
L 3669 4666 
L 4325 4666 
L 2547 0 
L 1831 0 
z
" transform="scale(0.015625)"/>
       <path id="DejaVuSans-6c" d="M 603 4863 
L 1178 4863 
L 1178 0 
L 603 0 
L 603 4863 
z
" transform="scale(0.015625)"/>
       <path id="DejaVuSans-7a" d="M 353 3500 
L 3084 3500 
L 3084 2975 
L 922 459 
L 3084 459 
L 3084 0 
L 275 0 
L 275 525 
L 2438 3041 
L 353 3041 
L 353 3500 
z
" transform="scale(0.015625)"/>
      </defs>
      <use xlink:href="#DejaVuSans-56"/>
      <use xlink:href="#DejaVuSans-69" x="66.158203"/>
      <use xlink:href="#DejaVuSans-72" x="93.941406"/>
      <use xlink:href="#DejaVuSans-75" x="135.054688"/>
      <use xlink:href="#DejaVuSans-73" x="198.433594"/>
      <use xlink:href="#DejaVuSans-20" x="250.533203"/>
      <use xlink:href="#DejaVuSans-6e" x="282.320312"/>
      <use xlink:href="#DejaVuSans-65" x="345.699219"/>
      <use xlink:href="#DejaVuSans-75" x="407.222656"/>
      <use xlink:href="#DejaVuSans-74" x="470.601562"/>
      <use xlink:href="#DejaVuSans-72" x="509.810547"/>
      <use xlink:href="#DejaVuSans-61" x="550.923828"/>
      <use xlink:href="#DejaVuSans-6c" x="612.203125"/>
      <use xlink:href="#DejaVuSans-69" x="639.986328"/>
      <use xlink:href="#DejaVuSans-7a" x="667.769531"/>
      <use xlink:href="#DejaVuSans-61" x="720.259766"/>
      <use xlink:href="#DejaVuSans-74" x="781.539062"/>
      <use xlink:href="#DejaVuSans-69" x="820.748047"/>
      <use xlink:href="#DejaVuSans-6f" x="848.53125"/>
      <use xlink:href="#DejaVuSans-6e" x="909.712891"/>
     </g>
     <!--  probability -->
     <g transform="translate(44.7925 278.966562) rotate(-90) scale(0.2 -0.2)">
      <defs>
       <path id="DejaVuSans-62" d="M 3116 1747 
Q 3116 2381 2855 2742 
Q 2594 3103 2138 3103 
Q 1681 3103 1420 2742 
Q 1159 2381 1159 1747 
Q 1159 1113 1420 752 
Q 1681 391 2138 391 
Q 2594 391 2855 752 
Q 3116 1113 3116 1747 
z
M 1159 2969 
Q 1341 3281 1617 3432 
Q 1894 3584 2278 3584 
Q 2916 3584 3314 3078 
Q 3713 2572 3713 1747 
Q 3713 922 3314 415 
Q 2916 -91 2278 -91 
Q 1894 -91 1617 61 
Q 1341 213 1159 525 
L 1159 0 
L 581 0 
L 581 4863 
L 1159 4863 
L 1159 2969 
z
" transform="scale(0.015625)"/>
      </defs>
      <use xlink:href="#DejaVuSans-20"/>
      <use xlink:href="#DejaVuSans-70" x="31.787109"/>
      <use xlink:href="#DejaVuSans-72" x="95.263672"/>
      <use xlink:href="#DejaVuSans-6f" x="134.126953"/>
      <use xlink:href="#DejaVuSans-62" x="195.308594"/>
      <use xlink:href="#DejaVuSans-61" x="258.785156"/>
      <use xlink:href="#DejaVuSans-62" x="320.064453"/>
      <use xlink:href="#DejaVuSans-69" x="383.541016"/>
      <use xlink:href="#DejaVuSans-6c" x="411.324219"/>
      <use xlink:href="#DejaVuSans-69" x="439.107422"/>
      <use xlink:href="#DejaVuSans-74" x="466.890625"/>
      <use xlink:href="#DejaVuSans-79" x="506.099609"/>
     </g>
    </g>
   </g>
   <g id="patch_3">
    <path d="M 104.483125 416.476875 
L 104.483125 28.396875 
" style="fill: none; stroke: #000000; stroke-width: 0.8; stroke-linejoin: miter; stroke-linecap: square"/>
   </g>
   <g id="patch_4">
    <path d="M 662.483125 416.476875 
L 662.483125 28.396875 
" style="fill: none; stroke: #000000; stroke-width: 0.8; stroke-linejoin: miter; stroke-linecap: square"/>
   </g>
   <g id="patch_5">
    <path d="M 104.483125 416.476875 
L 662.483125 416.476875 
" style="fill: none; stroke: #000000; stroke-width: 0.8; stroke-linejoin: miter; stroke-linecap: square"/>
   </g>
   <g id="patch_6">
    <path d="M 104.483125 28.396875 
L 662.483125 28.396875 
" style="fill: none; stroke: #000000; stroke-width: 0.8; stroke-linejoin: miter; stroke-linecap: square"/>
   </g>
   <g id="text_18">
    <!-- Wuhan-Hu-1 antigen -->
    <g transform="translate(280.200312 22.396875) scale(0.2 -0.2)">
     <defs>
      <path id="DejaVuSans-57" d="M 213 4666 
L 850 4666 
L 1831 722 
L 2809 4666 
L 3519 4666 
L 4500 722 
L 5478 4666 
L 6119 4666 
L 4947 0 
L 4153 0 
L 3169 4050 
L 2175 0 
L 1381 0 
L 213 4666 
z
" transform="scale(0.015625)"/>
      <path id="DejaVuSans-68" d="M 3513 2113 
L 3513 0 
L 2938 0 
L 2938 2094 
Q 2938 2591 2744 2837 
Q 2550 3084 2163 3084 
Q 1697 3084 1428 2787 
Q 1159 2491 1159 1978 
L 1159 0 
L 581 0 
L 581 4863 
L 1159 4863 
L 1159 2956 
Q 1366 3272 1645 3428 
Q 1925 3584 2291 3584 
Q 2894 3584 3203 3211 
Q 3513 2838 3513 2113 
z
" transform="scale(0.015625)"/>
      <path id="DejaVuSans-2d" d="M 313 2009 
L 1997 2009 
L 1997 1497 
L 313 1497 
L 313 2009 
z
" transform="scale(0.015625)"/>
      <path id="DejaVuSans-48" d="M 628 4666 
L 1259 4666 
L 1259 2753 
L 3553 2753 
L 3553 4666 
L 4184 4666 
L 4184 0 
L 3553 0 
L 3553 2222 
L 1259 2222 
L 1259 0 
L 628 0 
L 628 4666 
z
" transform="scale(0.015625)"/>
     </defs>
     <use xlink:href="#DejaVuSans-57"/>
     <use xlink:href="#DejaVuSans-75" x="95.251953"/>
     <use xlink:href="#DejaVuSans-68" x="158.630859"/>
     <use xlink:href="#DejaVuSans-61" x="222.009766"/>
     <use xlink:href="#DejaVuSans-6e" x="283.289062"/>
     <use xlink:href="#DejaVuSans-2d" x="346.667969"/>
     <use xlink:href="#DejaVuSans-48" x="382.751953"/>
     <use xlink:href="#DejaVuSans-75" x="457.947266"/>
     <use xlink:href="#DejaVuSans-2d" x="521.326172"/>
     <use xlink:href="#DejaVuSans-31" x="557.410156"/>
     <use xlink:href="#DejaVuSans-20" x="621.033203"/>
     <use xlink:href="#DejaVuSans-61" x="652.820312"/>
     <use xlink:href="#DejaVuSans-6e" x="714.099609"/>
     <use xlink:href="#DejaVuSans-74" x="777.478516"/>
     <use xlink:href="#DejaVuSans-69" x="816.6875"/>
     <use xlink:href="#DejaVuSans-67" x="844.470703"/>
     <use xlink:href="#DejaVuSans-65" x="907.947266"/>
     <use xlink:href="#DejaVuSans-6e" x="969.470703"/>
    </g>
   </g>
   <g id="legend_1">
    <g id="patch_7">
     <path d="M 778.083125 416.476875 
L 927.66125 416.476875 
Q 931.66125 416.476875 931.66125 412.476875 
L 931.66125 384.564375 
Q 931.66125 380.564375 927.66125 380.564375 
L 778.083125 380.564375 
Q 774.083125 380.564375 774.083125 384.564375 
L 774.083125 412.476875 
Q 774.083125 416.476875 778.083125 416.476875 
z
" style="fill: #ffffff; opacity: 0.8; stroke: #cccccc; stroke-linejoin: miter"/>
    </g>
    <g id="patch_8">
     <path d="M 782.083125 403.76125 
L 822.083125 403.76125 
L 822.083125 389.76125 
L 782.083125 389.76125 
z
" style="fill: #ffa500; fill-opacity: 0.3; stroke: #ffa500; stroke-opacity: 0.3; stroke-linejoin: miter"/>
    </g>
    <g id="text_19">
     <!-- BA_2_86 -->
     <g transform="translate(838.083125 403.76125) scale(0.2 -0.2)">
      <defs>
       <path id="DejaVuSans-42" d="M 1259 2228 
L 1259 519 
L 2272 519 
Q 2781 519 3026 730 
Q 3272 941 3272 1375 
Q 3272 1813 3026 2020 
Q 2781 2228 2272 2228 
L 1259 2228 
z
M 1259 4147 
L 1259 2741 
L 2194 2741 
Q 2656 2741 2882 2914 
Q 3109 3088 3109 3444 
Q 3109 3797 2882 3972 
Q 2656 4147 2194 4147 
L 1259 4147 
z
M 628 4666 
L 2241 4666 
Q 2963 4666 3353 4366 
Q 3744 4066 3744 3513 
Q 3744 3084 3544 2831 
Q 3344 2578 2956 2516 
Q 3422 2416 3680 2098 
Q 3938 1781 3938 1306 
Q 3938 681 3513 340 
Q 3088 0 2303 0 
L 628 0 
L 628 4666 
z
" transform="scale(0.015625)"/>
       <path id="DejaVuSans-41" d="M 2188 4044 
L 1331 1722 
L 3047 1722 
L 2188 4044 
z
M 1831 4666 
L 2547 4666 
L 4325 0 
L 3669 0 
L 3244 1197 
L 1141 1197 
L 716 0 
L 50 0 
L 1831 4666 
z
" transform="scale(0.015625)"/>
       <path id="DejaVuSans-5f" d="M 3263 -1063 
L 3263 -1509 
L -63 -1509 
L -63 -1063 
L 3263 -1063 
z
" transform="scale(0.015625)"/>
       <path id="DejaVuSans-38" d="M 2034 2216 
Q 1584 2216 1326 1975 
Q 1069 1734 1069 1313 
Q 1069 891 1326 650 
Q 1584 409 2034 409 
Q 2484 409 2743 651 
Q 3003 894 3003 1313 
Q 3003 1734 2745 1975 
Q 2488 2216 2034 2216 
z
M 1403 2484 
Q 997 2584 770 2862 
Q 544 3141 544 3541 
Q 544 4100 942 4425 
Q 1341 4750 2034 4750 
Q 2731 4750 3128 4425 
Q 3525 4100 3525 3541 
Q 3525 3141 3298 2862 
Q 3072 2584 2669 2484 
Q 3125 2378 3379 2068 
Q 3634 1759 3634 1313 
Q 3634 634 3220 271 
Q 2806 -91 2034 -91 
Q 1263 -91 848 271 
Q 434 634 434 1313 
Q 434 1759 690 2068 
Q 947 2378 1403 2484 
z
M 1172 3481 
Q 1172 3119 1398 2916 
Q 1625 2713 2034 2713 
Q 2441 2713 2670 2916 
Q 2900 3119 2900 3481 
Q 2900 3844 2670 4047 
Q 2441 4250 2034 4250 
Q 1625 4250 1398 4047 
Q 1172 3844 1172 3481 
z
" transform="scale(0.015625)"/>
      </defs>
      <use xlink:href="#DejaVuSans-42"/>
      <use xlink:href="#DejaVuSans-41" x="68.603516"/>
      <use xlink:href="#DejaVuSans-5f" x="137.011719"/>
      <use xlink:href="#DejaVuSans-32" x="187.011719"/>
      <use xlink:href="#DejaVuSans-5f" x="250.634766"/>
      <use xlink:href="#DejaVuSans-38" x="300.634766"/>
      <use xlink:href="#DejaVuSans-36" x="364.257812"/>
     </g>
    </g>
   </g>
  </g>
 </g>
 <defs>
  <clipPath id="pd63056bf98">
   <rect x="104.483125" y="28.396875" width="558" height="388.08"/>
  </clipPath>
 </defs>
</svg>
