<?xml version="1.0" encoding="utf-8" standalone="no"?>
<!DOCTYPE svg PUBLIC "-//W3C//DTD SVG 1.1//EN"
  "http://www.w3.org/Graphics/SVG/1.1/DTD/svg11.dtd">
<svg xmlns:xlink="http://www.w3.org/1999/xlink" width="909.229386pt" height="505.354841pt" viewBox="0 0 909.229386 505.354841" xmlns="http://www.w3.org/2000/svg" version="1.1">
 <metadata>
  <rdf:RDF xmlns:dc="http://purl.org/dc/elements/1.1/" xmlns:cc="http://creativecommons.org/ns#" xmlns:rdf="http://www.w3.org/1999/02/22-rdf-syntax-ns#">
   <cc:Work>
    <dc:type rdf:resource="http://purl.org/dc/dcmitype/StillImage"/>
    <dc:date>2023-11-08T00:22:10.005900</dc:date>
    <dc:format>image/svg+xml</dc:format>
    <dc:creator>
     <cc:Agent>
      <dc:title>Matplotlib v3.7.2, https://matplotlib.org/</dc:title>
     </cc:Agent>
    </dc:creator>
   </cc:Work>
  </rdf:RDF>
 </metadata>
 <defs>
  <style type="text/css">*{stroke-linejoin: round; stroke-linecap: butt}</style>
 </defs>
 <g id="figure_1">
  <g id="patch_1">
   <path d="M 0 505.354841 
L 909.229386 505.354841 
L 909.229386 -0 
L 0 -0 
z
" style="fill: #ffffff"/>
  </g>
  <g id="axes_1">
   <g id="patch_2">
    <path d="M 65.029386 395.28 
L 902.029386 395.28 
L 902.029386 7.2 
L 65.029386 7.2 
z
" style="fill: #ffffff"/>
   </g>
   <g id="PolyCollection_1">
    <defs>
     <path id="m40834ad6b7" d="M 103.074841 -206.186607 
L 103.074841 -206.184804 
L 112.24242 -206.194571 
L 121.41 -206.158556 
L 130.577579 -206.161704 
L 139.745158 -206.146825 
L 148.912738 -206.150204 
L 158.080317 -206.127109 
L 167.247897 -206.121835 
L 176.415476 -206.095838 
L 185.583055 -206.135512 
L 194.750635 -206.082762 
L 203.918214 -206.083567 
L 213.085794 -206.062355 
L 222.253373 -206.096317 
L 231.420952 -206.027767 
L 240.588532 -206.113822 
L 249.756111 -206.090715 
L 258.923691 -206.025471 
L 268.09127 -205.988402 
L 277.258849 -206.044671 
L 286.426429 -206.053423 
L 295.594008 -205.975361 
L 304.761588 -206.01742 
L 313.929167 -206.075208 
L 323.096746 -206.010536 
L 332.264326 -206.049301 
L 341.431905 -205.977856 
L 350.599485 -206.004652 
L 359.767064 -205.999401 
L 368.934644 -206.023096 
L 378.102223 -206.022308 
L 387.269802 -206.061603 
L 396.437382 -206.067001 
L 405.604961 -206.047604 
L 414.772541 -206.074112 
L 423.94012 -206.067923 
L 433.107699 -206.110686 
L 442.275279 -206.149117 
L 451.442858 -206.174054 
L 460.610438 -206.16768 
L 469.778017 -206.179131 
L 478.945596 -206.204319 
L 488.113176 -206.239579 
L 497.280755 -206.297144 
L 506.448335 -206.324311 
L 515.615914 -206.3347 
L 524.783493 -206.427431 
L 533.951073 -206.466379 
L 543.118652 -206.455287 
L 552.286232 -206.432999 
L 561.453811 -206.494935 
L 570.621391 -206.490093 
L 579.78897 -206.63491 
L 588.956549 -206.635598 
L 598.124129 -206.646444 
L 607.291708 -206.716859 
L 616.459288 -206.591277 
L 625.626867 -206.778895 
L 634.794446 -206.711645 
L 643.962026 -206.81216 
L 653.129605 -206.749213 
L 662.297185 -206.834663 
L 671.464764 -206.929744 
L 680.632343 -206.956884 
L 689.799923 -206.918361 
L 698.967502 -207.092906 
L 708.135082 -206.949364 
L 717.302661 -207.014718 
L 726.47024 -207.203574 
L 735.63782 -207.094351 
L 744.805399 -207.342041 
L 753.972979 -207.143626 
L 763.140558 -207.216629 
L 772.308138 -207.338528 
L 781.475717 -207.377367 
L 790.643296 -207.339803 
L 799.810876 -207.440709 
L 808.978455 -207.316748 
L 818.146035 -207.376913 
L 827.313614 -207.737003 
L 836.481193 -207.48614 
L 845.648773 -207.573526 
L 854.816352 -207.575792 
L 863.983932 -207.528538 
L 863.983932 -207.924673 
L 863.983932 -207.924673 
L 854.816352 -207.956545 
L 845.648773 -207.944969 
L 836.481193 -207.827072 
L 827.313614 -208.111417 
L 818.146035 -207.676017 
L 808.978455 -207.59275 
L 799.810876 -207.722896 
L 790.643296 -207.596787 
L 781.475717 -207.626955 
L 772.308138 -207.568419 
L 763.140558 -207.416897 
L 753.972979 -207.316839 
L 744.805399 -207.5322 
L 735.63782 -207.244167 
L 726.47024 -207.35465 
L 717.302661 -207.137237 
L 708.135082 -207.05563 
L 698.967502 -207.20388 
L 689.799923 -207.006323 
L 680.632343 -207.036449 
L 671.464764 -207.002686 
L 662.297185 -206.907275 
L 653.129605 -206.825909 
L 643.962026 -206.902511 
L 634.794446 -206.793425 
L 625.626867 -206.874873 
L 616.459288 -206.685254 
L 607.291708 -206.816585 
L 598.124129 -206.747756 
L 588.956549 -206.739515 
L 579.78897 -206.741469 
L 570.621391 -206.601823 
L 561.453811 -206.600455 
L 552.286232 -206.537499 
L 543.118652 -206.559568 
L 533.951073 -206.570462 
L 524.783493 -206.531835 
L 515.615914 -206.440988 
L 506.448335 -206.421523 
L 497.280755 -206.397824 
L 488.113176 -206.335607 
L 478.945596 -206.289769 
L 469.778017 -206.268385 
L 460.610438 -206.247904 
L 451.442858 -206.253585 
L 442.275279 -206.219068 
L 433.107699 -206.180528 
L 423.94012 -206.127303 
L 414.772541 -206.127129 
L 405.604961 -206.094493 
L 396.437382 -206.111349 
L 387.269802 -206.099634 
L 378.102223 -206.052613 
L 368.934644 -206.052693 
L 359.767064 -206.023175 
L 350.599485 -206.026787 
L 341.431905 -205.995004 
L 332.264326 -206.068326 
L 323.096746 -206.021949 
L 313.929167 -206.090817 
L 304.761588 -206.023114 
L 295.594008 -205.979532 
L 286.426429 -206.062857 
L 277.258849 -206.050189 
L 268.09127 -205.992539 
L 258.923691 -206.028761 
L 249.756111 -206.104438 
L 240.588532 -206.127799 
L 231.420952 -206.033385 
L 222.253373 -206.105006 
L 213.085794 -206.06511 
L 203.918214 -206.085565 
L 194.750635 -206.084544 
L 185.583055 -206.142213 
L 176.415476 -206.100137 
L 167.247897 -206.130741 
L 158.080317 -206.136739 
L 148.912738 -206.160984 
L 139.745158 -206.156616 
L 130.577579 -206.171362 
L 121.41 -206.168113 
L 112.24242 -206.195896 
L 103.074841 -206.186607 
z
" style="stroke: #008000; stroke-opacity: 0.3"/>
    </defs>
    <g clip-path="url(#pffa003a418)">
     <use xlink:href="#m40834ad6b7" x="0" y="505.354841" style="fill: #008000; fill-opacity: 0.3; stroke: #008000; stroke-opacity: 0.3"/>
    </g>
   </g>
   <g id="matplotlib.axis_1">
    <g id="xtick_1">
     <g id="line2d_1">
      <defs>
       <path id="md16f015189" d="M 0 0 
L 0 3.5 
" style="stroke: #000000; stroke-width: 0.8"/>
      </defs>
      <g>
       <use xlink:href="#md16f015189" x="103.074841" y="395.28" style="stroke: #000000; stroke-width: 0.8"/>
      </g>
     </g>
     <g id="text_1">
      <!-- 2023-01-06 -->
      <g transform="translate(17.945813 495.213718) rotate(-45) scale(0.2 -0.2)">
       <defs>
        <path id="DejaVuSans-32" d="M 1228 531 
L 3431 531 
L 3431 0 
L 469 0 
L 469 531 
Q 828 903 1448 1529 
Q 2069 2156 2228 2338 
Q 2531 2678 2651 2914 
Q 2772 3150 2772 3378 
Q 2772 3750 2511 3984 
Q 2250 4219 1831 4219 
Q 1534 4219 1204 4116 
Q 875 4013 500 3803 
L 500 4441 
Q 881 4594 1212 4672 
Q 1544 4750 1819 4750 
Q 2544 4750 2975 4387 
Q 3406 4025 3406 3419 
Q 3406 3131 3298 2873 
Q 3191 2616 2906 2266 
Q 2828 2175 2409 1742 
Q 1991 1309 1228 531 
z
" transform="scale(0.015625)"/>
        <path id="DejaVuSans-30" d="M 2034 4250 
Q 1547 4250 1301 3770 
Q 1056 3291 1056 2328 
Q 1056 1369 1301 889 
Q 1547 409 2034 409 
Q 2525 409 2770 889 
Q 3016 1369 3016 2328 
Q 3016 3291 2770 3770 
Q 2525 4250 2034 4250 
z
M 2034 4750 
Q 2819 4750 3233 4129 
Q 3647 3509 3647 2328 
Q 3647 1150 3233 529 
Q 2819 -91 2034 -91 
Q 1250 -91 836 529 
Q 422 1150 422 2328 
Q 422 3509 836 4129 
Q 1250 4750 2034 4750 
z
" transform="scale(0.015625)"/>
        <path id="DejaVuSans-33" d="M 2597 2516 
Q 3050 2419 3304 2112 
Q 3559 1806 3559 1356 
Q 3559 666 3084 287 
Q 2609 -91 1734 -91 
Q 1441 -91 1130 -33 
Q 819 25 488 141 
L 488 750 
Q 750 597 1062 519 
Q 1375 441 1716 441 
Q 2309 441 2620 675 
Q 2931 909 2931 1356 
Q 2931 1769 2642 2001 
Q 2353 2234 1838 2234 
L 1294 2234 
L 1294 2753 
L 1863 2753 
Q 2328 2753 2575 2939 
Q 2822 3125 2822 3475 
Q 2822 3834 2567 4026 
Q 2313 4219 1838 4219 
Q 1578 4219 1281 4162 
Q 984 4106 628 3988 
L 628 4550 
Q 988 4650 1302 4700 
Q 1616 4750 1894 4750 
Q 2613 4750 3031 4423 
Q 3450 4097 3450 3541 
Q 3450 3153 3228 2886 
Q 3006 2619 2597 2516 
z
" transform="scale(0.015625)"/>
        <path id="DejaVuSans-2d" d="M 313 2009 
L 1997 2009 
L 1997 1497 
L 313 1497 
L 313 2009 
z
" transform="scale(0.015625)"/>
        <path id="DejaVuSans-31" d="M 794 531 
L 1825 531 
L 1825 4091 
L 703 3866 
L 703 4441 
L 1819 4666 
L 2450 4666 
L 2450 531 
L 3481 531 
L 3481 0 
L 794 0 
L 794 531 
z
" transform="scale(0.015625)"/>
        <path id="DejaVuSans-36" d="M 2113 2584 
Q 1688 2584 1439 2293 
Q 1191 2003 1191 1497 
Q 1191 994 1439 701 
Q 1688 409 2113 409 
Q 2538 409 2786 701 
Q 3034 994 3034 1497 
Q 3034 2003 2786 2293 
Q 2538 2584 2113 2584 
z
M 3366 4563 
L 3366 3988 
Q 3128 4100 2886 4159 
Q 2644 4219 2406 4219 
Q 1781 4219 1451 3797 
Q 1122 3375 1075 2522 
Q 1259 2794 1537 2939 
Q 1816 3084 2150 3084 
Q 2853 3084 3261 2657 
Q 3669 2231 3669 1497 
Q 3669 778 3244 343 
Q 2819 -91 2113 -91 
Q 1303 -91 875 529 
Q 447 1150 447 2328 
Q 447 3434 972 4092 
Q 1497 4750 2381 4750 
Q 2619 4750 2861 4703 
Q 3103 4656 3366 4563 
z
" transform="scale(0.015625)"/>
       </defs>
       <use xlink:href="#DejaVuSans-32"/>
       <use xlink:href="#DejaVuSans-30" x="63.623047"/>
       <use xlink:href="#DejaVuSans-32" x="127.246094"/>
       <use xlink:href="#DejaVuSans-33" x="190.869141"/>
       <use xlink:href="#DejaVuSans-2d" x="254.492188"/>
       <use xlink:href="#DejaVuSans-30" x="290.576172"/>
       <use xlink:href="#DejaVuSans-31" x="354.199219"/>
       <use xlink:href="#DejaVuSans-2d" x="417.822266"/>
       <use xlink:href="#DejaVuSans-30" x="453.90625"/>
       <use xlink:href="#DejaVuSans-36" x="517.529297"/>
      </g>
     </g>
    </g>
    <g id="xtick_2">
     <g id="line2d_2">
      <g>
       <use xlink:href="#md16f015189" x="231.420952" y="395.28" style="stroke: #000000; stroke-width: 0.8"/>
      </g>
     </g>
     <g id="text_2">
      <!-- 2023-01-20 -->
      <g transform="translate(146.291925 495.213718) rotate(-45) scale(0.2 -0.2)">
       <use xlink:href="#DejaVuSans-32"/>
       <use xlink:href="#DejaVuSans-30" x="63.623047"/>
       <use xlink:href="#DejaVuSans-32" x="127.246094"/>
       <use xlink:href="#DejaVuSans-33" x="190.869141"/>
       <use xlink:href="#DejaVuSans-2d" x="254.492188"/>
       <use xlink:href="#DejaVuSans-30" x="290.576172"/>
       <use xlink:href="#DejaVuSans-31" x="354.199219"/>
       <use xlink:href="#DejaVuSans-2d" x="417.822266"/>
       <use xlink:href="#DejaVuSans-32" x="453.90625"/>
       <use xlink:href="#DejaVuSans-30" x="517.529297"/>
      </g>
     </g>
    </g>
    <g id="xtick_3">
     <g id="line2d_3">
      <g>
       <use xlink:href="#md16f015189" x="359.767064" y="395.28" style="stroke: #000000; stroke-width: 0.8"/>
      </g>
     </g>
     <g id="text_3">
      <!-- 2023-02-03 -->
      <g transform="translate(274.638037 495.213718) rotate(-45) scale(0.2 -0.2)">
       <use xlink:href="#DejaVuSans-32"/>
       <use xlink:href="#DejaVuSans-30" x="63.623047"/>
       <use xlink:href="#DejaVuSans-32" x="127.246094"/>
       <use xlink:href="#DejaVuSans-33" x="190.869141"/>
       <use xlink:href="#DejaVuSans-2d" x="254.492188"/>
       <use xlink:href="#DejaVuSans-30" x="290.576172"/>
       <use xlink:href="#DejaVuSans-32" x="354.199219"/>
       <use xlink:href="#DejaVuSans-2d" x="417.822266"/>
       <use xlink:href="#DejaVuSans-30" x="453.90625"/>
       <use xlink:href="#DejaVuSans-33" x="517.529297"/>
      </g>
     </g>
    </g>
    <g id="xtick_4">
     <g id="line2d_4">
      <g>
       <use xlink:href="#md16f015189" x="488.113176" y="395.28" style="stroke: #000000; stroke-width: 0.8"/>
      </g>
     </g>
     <g id="text_4">
      <!-- 2023-02-17 -->
      <g transform="translate(402.984149 495.213718) rotate(-45) scale(0.2 -0.2)">
       <defs>
        <path id="DejaVuSans-37" d="M 525 4666 
L 3525 4666 
L 3525 4397 
L 1831 0 
L 1172 0 
L 2766 4134 
L 525 4134 
L 525 4666 
z
" transform="scale(0.015625)"/>
       </defs>
       <use xlink:href="#DejaVuSans-32"/>
       <use xlink:href="#DejaVuSans-30" x="63.623047"/>
       <use xlink:href="#DejaVuSans-32" x="127.246094"/>
       <use xlink:href="#DejaVuSans-33" x="190.869141"/>
       <use xlink:href="#DejaVuSans-2d" x="254.492188"/>
       <use xlink:href="#DejaVuSans-30" x="290.576172"/>
       <use xlink:href="#DejaVuSans-32" x="354.199219"/>
       <use xlink:href="#DejaVuSans-2d" x="417.822266"/>
       <use xlink:href="#DejaVuSans-31" x="453.90625"/>
       <use xlink:href="#DejaVuSans-37" x="517.529297"/>
      </g>
     </g>
    </g>
    <g id="xtick_5">
     <g id="line2d_5">
      <g>
       <use xlink:href="#md16f015189" x="616.459288" y="395.28" style="stroke: #000000; stroke-width: 0.8"/>
      </g>
     </g>
     <g id="text_5">
      <!-- 2023-03-03 -->
      <g transform="translate(531.33026 495.213718) rotate(-45) scale(0.2 -0.2)">
       <use xlink:href="#DejaVuSans-32"/>
       <use xlink:href="#DejaVuSans-30" x="63.623047"/>
       <use xlink:href="#DejaVuSans-32" x="127.246094"/>
       <use xlink:href="#DejaVuSans-33" x="190.869141"/>
       <use xlink:href="#DejaVuSans-2d" x="254.492188"/>
       <use xlink:href="#DejaVuSans-30" x="290.576172"/>
       <use xlink:href="#DejaVuSans-33" x="354.199219"/>
       <use xlink:href="#DejaVuSans-2d" x="417.822266"/>
       <use xlink:href="#DejaVuSans-30" x="453.90625"/>
       <use xlink:href="#DejaVuSans-33" x="517.529297"/>
      </g>
     </g>
    </g>
    <g id="xtick_6">
     <g id="line2d_6">
      <g>
       <use xlink:href="#md16f015189" x="744.805399" y="395.28" style="stroke: #000000; stroke-width: 0.8"/>
      </g>
     </g>
     <g id="text_6">
      <!-- 2023-03-17 -->
      <g transform="translate(659.676372 495.213718) rotate(-45) scale(0.2 -0.2)">
       <use xlink:href="#DejaVuSans-32"/>
       <use xlink:href="#DejaVuSans-30" x="63.623047"/>
       <use xlink:href="#DejaVuSans-32" x="127.246094"/>
       <use xlink:href="#DejaVuSans-33" x="190.869141"/>
       <use xlink:href="#DejaVuSans-2d" x="254.492188"/>
       <use xlink:href="#DejaVuSans-30" x="290.576172"/>
       <use xlink:href="#DejaVuSans-33" x="354.199219"/>
       <use xlink:href="#DejaVuSans-2d" x="417.822266"/>
       <use xlink:href="#DejaVuSans-31" x="453.90625"/>
       <use xlink:href="#DejaVuSans-37" x="517.529297"/>
      </g>
     </g>
    </g>
    <g id="xtick_7">
     <g id="line2d_7">
      <g>
       <use xlink:href="#md16f015189" x="863.983932" y="395.28" style="stroke: #000000; stroke-width: 0.8"/>
      </g>
     </g>
     <g id="text_7">
      <!-- 2023-03-30 -->
      <g transform="translate(778.854904 495.213718) rotate(-45) scale(0.2 -0.2)">
       <use xlink:href="#DejaVuSans-32"/>
       <use xlink:href="#DejaVuSans-30" x="63.623047"/>
       <use xlink:href="#DejaVuSans-32" x="127.246094"/>
       <use xlink:href="#DejaVuSans-33" x="190.869141"/>
       <use xlink:href="#DejaVuSans-2d" x="254.492188"/>
       <use xlink:href="#DejaVuSans-30" x="290.576172"/>
       <use xlink:href="#DejaVuSans-33" x="354.199219"/>
       <use xlink:href="#DejaVuSans-2d" x="417.822266"/>
       <use xlink:href="#DejaVuSans-33" x="453.90625"/>
       <use xlink:href="#DejaVuSans-30" x="517.529297"/>
      </g>
     </g>
    </g>
   </g>
   <g id="matplotlib.axis_2">
    <g id="ytick_1">
     <g id="line2d_8">
      <defs>
       <path id="m5ff4516fd5" d="M 0 0 
L -3.5 0 
" style="stroke: #000000; stroke-width: 0.8"/>
      </defs>
      <g>
       <use xlink:href="#m5ff4516fd5" x="65.029386" y="361.515686" style="stroke: #000000; stroke-width: 0.8"/>
      </g>
     </g>
     <g id="text_8">
      <!-- −0.5 -->
      <g transform="translate(9.463761 369.114123) scale(0.2 -0.2)">
       <defs>
        <path id="DejaVuSans-2212" d="M 678 2272 
L 4684 2272 
L 4684 1741 
L 678 1741 
L 678 2272 
z
" transform="scale(0.015625)"/>
        <path id="DejaVuSans-2e" d="M 684 794 
L 1344 794 
L 1344 0 
L 684 0 
L 684 794 
z
" transform="scale(0.015625)"/>
        <path id="DejaVuSans-35" d="M 691 4666 
L 3169 4666 
L 3169 4134 
L 1269 4134 
L 1269 2991 
Q 1406 3038 1543 3061 
Q 1681 3084 1819 3084 
Q 2600 3084 3056 2656 
Q 3513 2228 3513 1497 
Q 3513 744 3044 326 
Q 2575 -91 1722 -91 
Q 1428 -91 1123 -41 
Q 819 9 494 109 
L 494 744 
Q 775 591 1075 516 
Q 1375 441 1709 441 
Q 2250 441 2565 725 
Q 2881 1009 2881 1497 
Q 2881 1984 2565 2268 
Q 2250 2553 1709 2553 
Q 1456 2553 1204 2497 
Q 953 2441 691 2322 
L 691 4666 
z
" transform="scale(0.015625)"/>
       </defs>
       <use xlink:href="#DejaVuSans-2212"/>
       <use xlink:href="#DejaVuSans-30" x="83.789062"/>
       <use xlink:href="#DejaVuSans-2e" x="147.412109"/>
       <use xlink:href="#DejaVuSans-35" x="179.199219"/>
      </g>
     </g>
    </g>
    <g id="ytick_2">
     <g id="line2d_9">
      <g>
       <use xlink:href="#m5ff4516fd5" x="65.029386" y="299.168336" style="stroke: #000000; stroke-width: 0.8"/>
      </g>
     </g>
     <g id="text_9">
      <!-- 0.0 -->
      <g transform="translate(26.223136 306.766774) scale(0.2 -0.2)">
       <use xlink:href="#DejaVuSans-30"/>
       <use xlink:href="#DejaVuSans-2e" x="63.623047"/>
       <use xlink:href="#DejaVuSans-30" x="95.410156"/>
      </g>
     </g>
    </g>
    <g id="ytick_3">
     <g id="line2d_10">
      <g>
       <use xlink:href="#m5ff4516fd5" x="65.029386" y="236.820987" style="stroke: #000000; stroke-width: 0.8"/>
      </g>
     </g>
     <g id="text_10">
      <!-- 0.5 -->
      <g transform="translate(26.223136 244.419425) scale(0.2 -0.2)">
       <use xlink:href="#DejaVuSans-30"/>
       <use xlink:href="#DejaVuSans-2e" x="63.623047"/>
       <use xlink:href="#DejaVuSans-35" x="95.410156"/>
      </g>
     </g>
    </g>
    <g id="ytick_4">
     <g id="line2d_11">
      <g>
       <use xlink:href="#m5ff4516fd5" x="65.029386" y="174.473638" style="stroke: #000000; stroke-width: 0.8"/>
      </g>
     </g>
     <g id="text_11">
      <!-- 1.0 -->
      <g transform="translate(26.223136 182.072076) scale(0.2 -0.2)">
       <use xlink:href="#DejaVuSans-31"/>
       <use xlink:href="#DejaVuSans-2e" x="63.623047"/>
       <use xlink:href="#DejaVuSans-30" x="95.410156"/>
      </g>
     </g>
    </g>
    <g id="ytick_5">
     <g id="line2d_12">
      <g>
       <use xlink:href="#m5ff4516fd5" x="65.029386" y="112.126289" style="stroke: #000000; stroke-width: 0.8"/>
      </g>
     </g>
     <g id="text_12">
      <!-- 1.5 -->
      <g transform="translate(26.223136 119.724726) scale(0.2 -0.2)">
       <use xlink:href="#DejaVuSans-31"/>
       <use xlink:href="#DejaVuSans-2e" x="63.623047"/>
       <use xlink:href="#DejaVuSans-35" x="95.410156"/>
      </g>
     </g>
    </g>
    <g id="ytick_6">
     <g id="line2d_13">
      <g>
       <use xlink:href="#m5ff4516fd5" x="65.029386" y="49.77894" style="stroke: #000000; stroke-width: 0.8"/>
      </g>
     </g>
     <g id="text_13">
      <!-- 2.0 -->
      <g transform="translate(26.223136 57.377377) scale(0.2 -0.2)">
       <use xlink:href="#DejaVuSans-32"/>
       <use xlink:href="#DejaVuSans-2e" x="63.623047"/>
       <use xlink:href="#DejaVuSans-30" x="95.410156"/>
      </g>
     </g>
    </g>
   </g>
   <g id="line2d_14">
    <path d="M 103.074841 33.15298 
M 130.577579 88.572846 
L 139.745158 357.685996 
L 148.912738 272.096461 
L 158.080317 335.706783 
L 167.247897 377.64 
M 194.750635 24.84 
L 203.918214 220.279854 
L 213.085794 265.844753 
L 222.253373 333.313268 
L 231.420952 292.228796 
L 240.588532 306.593584 
L 249.756111 292.499524 
L 258.923691 302.145557 
L 268.09127 321.248564 
L 277.258849 304.164739 
L 286.426429 313.463707 
L 295.594008 313.58541 
L 304.761588 305.211275 
L 313.929167 284.434699 
L 323.096746 287.681401 
L 332.264326 294.480823 
L 341.431905 308.726604 
L 350.599485 299.248163 
L 359.767064 303.764929 
L 368.934644 306.162161 
L 378.102223 295.910795 
L 387.269802 303.881777 
L 396.437382 301.257482 
L 405.604961 286.643532 
L 414.772541 301.282061 
L 423.94012 297.577924 
L 433.107699 292.519087 
L 442.275279 297.621741 
L 451.442858 298.790362 
L 460.610438 306.825852 
L 469.778017 304.802844 
L 478.945596 294.368237 
L 488.113176 312.805646 
L 497.280755 291.921602 
L 506.448335 306.660537 
L 515.615914 307.926029 
L 524.783493 303.767017 
L 533.951073 298.895431 
L 543.118652 307.73318 
L 552.286232 295.546107 
L 561.453811 307.124224 
L 570.621391 307.12592 
L 579.78897 298.284682 
L 588.956549 310.39002 
L 598.124129 299.69655 
L 607.291708 300.767284 
L 616.459288 306.13278 
L 625.626867 247.188031 
L 634.794446 304.277097 
L 643.962026 275.909973 
L 653.129605 296.816219 
L 662.297185 299.067671 
L 671.464764 300.652145 
L 680.632343 278.895685 
L 689.799923 304.28424 
L 698.967502 290.398641 
L 708.135082 292.709108 
L 717.302661 297.615847 
L 726.47024 301.858253 
L 735.63782 299.434074 
L 744.805399 289.626282 
L 753.972979 292.141204 
L 763.140558 322.235691 
L 772.308138 305.139887 
L 781.475717 320.074699 
L 790.643296 306.258003 
L 799.810876 297.768302 
L 808.978455 304.999896 
L 818.146035 329.756648 
L 827.313614 303.680432 
L 836.481193 311.30485 
L 845.648773 295.208873 
L 854.816352 306.94056 
L 863.983932 299.168336 
" clip-path="url(#pffa003a418)" style="fill: none; stroke: #ffa500; stroke-width: 1.5; stroke-linecap: square"/>
   </g>
   <g id="line2d_15">
    <path d="M 65.029386 299.168336 
L 910.229386 299.168336 
" clip-path="url(#pffa003a418)" style="fill: none; stroke-dasharray: 7.4,3.2; stroke-dashoffset: 0; stroke: #000000; stroke-width: 2"/>
   </g>
   <g id="patch_3">
    <path d="M 65.029386 395.28 
L 65.029386 7.2 
" style="fill: none; stroke: #000000; stroke-width: 0.8; stroke-linejoin: miter; stroke-linecap: square"/>
   </g>
   <g id="patch_4">
    <path d="M 902.029386 395.28 
L 902.029386 7.2 
" style="fill: none; stroke: #000000; stroke-width: 0.8; stroke-linejoin: miter; stroke-linecap: square"/>
   </g>
   <g id="patch_5">
    <path d="M 65.029386 395.28 
L 902.029386 395.28 
" style="fill: none; stroke: #000000; stroke-width: 0.8; stroke-linejoin: miter; stroke-linecap: square"/>
   </g>
   <g id="patch_6">
    <path d="M 65.029386 7.2 
L 902.029386 7.2 
" style="fill: none; stroke: #000000; stroke-width: 0.8; stroke-linejoin: miter; stroke-linecap: square"/>
   </g>
  </g>
 </g>
 <defs>
  <clipPath id="pffa003a418">
   <rect x="65.029386" y="7.2" width="837" height="388.08"/>
  </clipPath>
 </defs>
</svg>
