<?xml version="1.0" encoding="utf-8" standalone="no"?>
<!DOCTYPE svg PUBLIC "-//W3C//DTD SVG 1.1//EN"
  "http://www.w3.org/Graphics/SVG/1.1/DTD/svg11.dtd">
<svg xmlns:xlink="http://www.w3.org/1999/xlink" width="919.864375pt" height="473.389375pt" viewBox="0 0 919.864375 473.389375" xmlns="http://www.w3.org/2000/svg" version="1.1">
 <metadata>
  <rdf:RDF xmlns:dc="http://purl.org/dc/elements/1.1/" xmlns:cc="http://creativecommons.org/ns#" xmlns:rdf="http://www.w3.org/1999/02/22-rdf-syntax-ns#">
   <cc:Work>
    <dc:type rdf:resource="http://purl.org/dc/dcmitype/StillImage"/>
    <dc:date>2023-11-12T17:15:30.474042</dc:date>
    <dc:format>image/svg+xml</dc:format>
    <dc:creator>
     <cc:Agent>
      <dc:title>Matplotlib v3.7.2, https://matplotlib.org/</dc:title>
     </cc:Agent>
    </dc:creator>
   </cc:Work>
  </rdf:RDF>
 </metadata>
 <defs>
  <style type="text/css">*{stroke-linejoin: round; stroke-linecap: butt}</style>
 </defs>
 <g id="figure_1">
  <g id="patch_1">
   <path d="M 0 473.389375 
L 919.864375 473.389375 
L 919.864375 0 
L 0 0 
z
" style="fill: #ffffff"/>
  </g>
  <g id="axes_1">
   <g id="patch_2">
    <path d="M 91.758125 416.476875 
L 649.758125 416.476875 
L 649.758125 28.396875 
L 91.758125 28.396875 
z
" style="fill: #ffffff"/>
   </g>
   <g id="PolyCollection_1">
    <defs>
     <path id="m9677e53a64" d="M 117.121761 -207.795509 
L 117.121761 -125.264527 
L 117.897408 -177.870564 
L 118.673054 -219.089716 
L 119.4487 -251.888355 
L 120.224347 -278.336783 
L 120.999993 -299.912205 
L 121.77564 -317.689404 
L 122.551286 -332.464072 
L 123.326932 -344.834534 
L 124.102579 -355.257065 
L 124.878225 -364.08408 
L 125.653871 -371.590953 
L 126.429518 -377.995153 
L 127.205164 -383.470104 
L 127.980811 -388.155347 
L 128.756457 -392.164097 
L 129.532103 -395.588913 
L 130.30775 -398.506008 
L 131.083396 -400.978549 
L 131.859042 -402.511355 
L 132.634689 -400.292303 
L 133.410335 -397.866069 
L 134.185982 -395.253573 
L 134.961628 -392.472981 
L 135.737274 -389.54025 
L 136.512921 -386.469542 
L 137.288567 -383.273553 
L 138.064213 -379.963759 
L 138.83986 -376.550616 
L 139.615506 -373.043717 
L 140.391153 -369.451912 
L 141.166799 -365.783415 
L 141.942445 -362.045877 
L 142.718092 -358.246456 
L 143.493738 -354.39187 
L 144.269384 -350.488442 
L 145.045031 -346.542136 
L 145.820677 -342.558588 
L 146.596323 -338.543134 
L 147.37197 -334.500831 
L 148.147616 -330.436478 
L 148.923263 -326.35463 
L 149.698909 -322.259615 
L 150.474555 -318.155548 
L 151.250202 -314.046337 
L 152.025848 -309.935699 
L 152.801494 -305.827167 
L 153.577141 -301.724096 
L 154.352787 -297.629674 
L 155.128434 -293.546927 
L 155.90408 -289.478726 
L 156.679726 -285.427789 
L 157.455373 -281.396693 
L 158.231019 -277.387876 
L 159.006665 -273.403637 
L 159.782312 -269.44615 
L 160.557958 -265.51746 
L 161.333605 -261.61949 
L 162.109251 -257.754046 
L 162.884897 -253.922821 
L 163.660544 -250.127393 
L 164.43619 -246.369239 
L 165.211836 -242.649726 
L 165.987483 -238.970125 
L 166.763129 -235.331608 
L 167.538776 -231.735254 
L 168.314422 -228.18205 
L 169.090068 -224.672897 
L 169.865715 -221.20861 
L 170.641361 -217.789923 
L 171.417007 -214.417491 
L 172.192654 -211.091894 
L 172.9683 -207.813638 
L 173.743947 -204.583161 
L 174.519593 -201.400831 
L 175.295239 -198.266954 
L 176.070886 -195.181774 
L 176.846532 -192.145475 
L 177.622178 -189.158184 
L 178.397825 -186.219976 
L 179.173471 -183.330875 
L 179.949117 -180.490853 
L 180.724764 -177.699839 
L 181.50041 -174.957717 
L 182.276057 -172.264329 
L 183.051703 -169.619478 
L 183.827349 -167.022929 
L 184.602996 -164.474413 
L 185.378642 -161.973628 
L 186.154288 -159.52024 
L 186.929935 -157.113889 
L 187.705581 -154.754184 
L 188.481228 -152.440712 
L 189.256874 -150.173035 
L 190.03252 -147.950695 
L 190.808167 -145.773212 
L 191.583813 -143.640091 
L 192.359459 -141.550816 
L 193.135106 -139.504859 
L 193.910752 -137.501677 
L 194.686399 -135.540714 
L 195.462045 -133.621405 
L 196.237691 -131.743173 
L 197.013338 -129.905433 
L 197.788984 -128.107593 
L 198.56463 -126.349054 
L 199.340277 -124.629211 
L 200.115923 -122.947456 
L 200.89157 -121.303176 
L 201.667216 -119.695758 
L 202.442862 -118.124584 
L 203.218509 -116.589038 
L 203.994155 -115.088502 
L 204.769801 -113.622358 
L 205.545448 -112.189992 
L 206.321094 -110.790788 
L 207.096741 -109.424136 
L 207.872387 -108.089427 
L 208.648033 -106.786054 
L 209.42368 -105.513418 
L 210.199326 -104.270921 
L 210.974972 -103.057971 
L 211.750619 -101.87398 
L 212.526265 -100.718368 
L 213.301911 -99.590558 
L 214.077558 -98.489981 
L 214.853204 -97.416073 
L 215.628851 -96.368278 
L 216.404497 -95.346046 
L 217.180143 -94.348834 
L 217.95579 -93.376107 
L 218.731436 -92.427336 
L 219.507082 -91.502001 
L 220.282729 -90.599588 
L 221.058375 -89.719592 
L 221.834022 -88.861516 
L 222.609668 -88.024869 
L 223.385314 -87.20917 
L 224.160961 -86.413946 
L 224.936607 -85.63873 
L 225.712253 -84.883065 
L 226.4879 -84.1465 
L 227.263546 -83.428595 
L 228.039193 -82.728915 
L 228.814839 -82.047035 
L 229.590485 -81.382536 
L 230.366132 -80.735011 
L 231.141778 -80.104055 
L 231.917424 -79.489275 
L 232.693071 -78.890286 
L 233.468717 -78.306707 
L 234.244364 -77.738169 
L 235.02001 -77.184308 
L 235.795656 -76.644767 
L 236.571303 -76.119199 
L 237.346949 -75.607262 
L 238.122595 -75.108622 
L 238.898242 -74.622953 
L 239.673888 -74.149933 
L 240.449535 -73.689252 
L 241.225181 -73.240602 
L 242.000827 -72.803684 
L 242.776474 -72.378206 
L 243.55212 -71.963881 
L 244.327766 -71.56043 
L 245.103413 -71.16758 
L 245.879059 -70.785064 
L 246.654705 -70.412619 
L 247.430352 -70.049993 
L 248.205998 -69.696934 
L 248.981645 -69.353201 
L 249.757291 -69.018555 
L 250.532937 -68.692765 
L 251.308584 -68.375604 
L 252.08423 -68.066851 
L 252.859876 -67.766289 
L 253.635523 -67.473709 
L 254.411169 -67.188905 
L 255.186816 -66.911675 
L 255.962462 -66.641825 
L 256.738108 -66.379163 
L 257.513755 -66.123502 
L 258.289401 -65.874661 
L 259.065047 -65.632463 
L 259.840694 -65.396733 
L 260.61634 -65.167305 
L 261.391987 -64.944013 
L 262.167633 -64.726696 
L 262.943279 -64.515199 
L 263.718926 -64.309368 
L 264.494572 -64.109055 
L 265.270218 -63.914115 
L 266.045865 -63.724406 
L 266.821511 -63.539792 
L 267.597158 -63.360137 
L 268.372804 -63.18531 
L 269.14845 -63.015185 
L 269.924097 -62.849636 
L 270.699743 -62.688543 
L 271.475389 -62.531788 
L 272.251036 -62.379255 
L 273.026682 -62.230833 
L 273.802329 -62.086412 
L 274.577975 -61.945887 
L 275.353621 -61.809152 
L 276.129268 -61.676109 
L 276.904914 -61.546657 
L 277.68056 -61.420702 
L 278.456207 -61.29815 
L 279.231853 -61.17891 
L 280.007499 -61.062894 
L 280.783146 -60.950015 
L 281.558792 -60.840191 
L 282.334439 -60.733338 
L 283.110085 -60.629377 
L 283.885731 -60.528232 
L 284.661378 -60.429825 
L 285.437024 -60.334085 
L 286.21267 -60.240939 
L 286.988317 -60.150317 
L 287.763963 -60.062153 
L 288.53961 -59.976379 
L 289.315256 -59.892931 
L 290.090902 -59.811748 
L 290.866549 -59.732767 
L 291.642195 -59.65593 
L 292.417841 -59.581179 
L 293.193488 -59.508458 
L 293.969134 -59.437711 
L 294.744781 -59.368887 
L 295.520427 -59.301932 
L 296.296073 -59.236796 
L 297.07172 -59.17343 
L 297.847366 -59.111787 
L 298.623012 -59.05182 
L 299.398659 -58.993483 
L 300.174305 -58.936733 
L 300.949952 -58.881526 
L 301.725598 -58.827821 
L 302.501244 -58.775577 
L 303.276891 -58.724755 
L 304.052537 -58.675315 
L 304.828183 -58.627222 
L 305.60383 -58.580437 
L 306.379476 -58.534927 
L 307.155122 -58.490655 
L 307.930769 -58.447589 
L 308.706415 -58.405696 
L 309.482062 -58.364944 
L 310.257708 -58.325302 
L 311.033354 -58.28674 
L 311.809001 -58.249228 
L 312.584647 -58.212739 
L 313.360293 -58.177244 
L 314.13594 -58.142716 
L 314.911586 -58.10913 
L 315.687233 -58.076459 
L 316.462879 -58.044679 
L 317.238525 -58.013765 
L 318.014172 -57.983694 
L 318.789818 -57.954443 
L 319.565464 -57.92599 
L 320.341111 -57.898312 
L 321.116757 -57.87139 
L 321.892404 -57.845202 
L 322.66805 -57.819728 
L 323.443696 -57.794949 
L 324.219343 -57.770846 
L 324.994989 -57.747401 
L 325.770635 -57.724595 
L 326.546282 -57.702412 
L 327.321928 -57.680834 
L 328.097575 -57.659845 
L 328.873221 -57.639428 
L 329.648867 -57.619569 
L 330.424514 -57.600252 
L 331.20016 -57.581462 
L 331.975806 -57.563186 
L 332.751453 -57.545408 
L 333.527099 -57.528115 
L 334.302746 -57.511294 
L 335.078392 -57.494933 
L 335.854038 -57.479019 
L 336.629685 -57.463538 
L 337.405331 -57.448481 
L 338.180977 -57.433835 
L 338.956624 -57.419589 
L 339.73227 -57.405731 
L 340.507916 -57.392253 
L 341.283563 -57.379142 
L 342.059209 -57.366389 
L 342.834856 -57.353985 
L 343.610502 -57.34192 
L 344.386148 -57.330184 
L 345.161795 -57.318768 
L 345.937441 -57.307665 
L 346.713087 -57.296864 
L 347.488734 -57.286359 
L 348.26438 -57.276141 
L 349.040027 -57.266202 
L 349.815673 -57.256534 
L 350.591319 -57.247131 
L 351.366966 -57.237984 
L 352.142612 -57.229088 
L 352.918258 -57.220434 
L 353.693905 -57.212017 
L 354.469551 -57.20383 
L 355.245198 -57.195867 
L 356.020844 -57.188121 
L 356.79649 -57.180587 
L 357.572137 -57.173258 
L 358.347783 -57.16613 
L 359.123429 -57.159197 
L 359.899076 -57.152453 
L 360.674722 -57.145894 
L 361.450369 -57.139514 
L 362.226015 -57.133308 
L 363.001661 -57.127271 
L 363.777308 -57.1214 
L 364.552954 -57.115689 
L 365.3286 -57.110135 
L 366.104247 -57.104732 
L 366.879893 -57.099476 
L 367.65554 -57.094365 
L 368.431186 -57.089393 
L 369.206832 -57.084557 
L 369.982479 -57.079853 
L 370.758125 -57.075278 
L 371.533771 -57.070827 
L 372.309418 -57.066499 
L 373.085064 -57.062289 
L 373.86071 -57.058193 
L 374.636357 -57.05421 
L 375.412003 -57.050336 
L 376.18765 -57.046567 
L 376.963296 -57.042902 
L 377.738942 -57.039337 
L 378.514589 -57.035869 
L 379.290235 -57.032496 
L 380.065881 -57.029215 
L 380.841528 -57.026024 
L 381.617174 -57.02292 
L 382.392821 -57.019901 
L 383.168467 -57.016965 
L 383.944113 -57.014108 
L 384.71976 -57.01133 
L 385.495406 -57.008628 
L 386.271052 -57.006 
L 387.046699 -57.003443 
L 387.822345 -57.000957 
L 388.597992 -56.998538 
L 389.373638 -56.996186 
L 390.149284 -56.993898 
L 390.924931 -56.991672 
L 391.700577 -56.989507 
L 392.476223 -56.987402 
L 393.25187 -56.985354 
L 394.027516 -56.983362 
L 394.803163 -56.981424 
L 395.578809 -56.97954 
L 396.354455 -56.977707 
L 397.130102 -56.975924 
L 397.905748 -56.97419 
L 398.681394 -56.972503 
L 399.457041 -56.970862 
L 400.232687 -56.969266 
L 401.008334 -56.967714 
L 401.78398 -56.966204 
L 402.559626 -56.964736 
L 403.335273 -56.963308 
L 404.110919 -56.961918 
L 404.886565 -56.960567 
L 405.662212 -56.959253 
L 406.437858 -56.957974 
L 407.213504 -56.956731 
L 407.989151 -56.955522 
L 408.764797 -56.954345 
L 409.540444 -56.953201 
L 410.31609 -56.952088 
L 411.091736 -56.951006 
L 411.867383 -56.949953 
L 412.643029 -56.948929 
L 413.418675 -56.947933 
L 414.194322 -56.946964 
L 414.969968 -56.946021 
L 415.745615 -56.945105 
L 416.521261 -56.944213 
L 417.296907 -56.943346 
L 418.072554 -56.942503 
L 418.8482 -56.941682 
L 419.623846 -56.940884 
L 420.399493 -56.940108 
L 421.175139 -56.939353 
L 421.950786 -56.938619 
L 422.726432 -56.937905 
L 423.502078 -56.93721 
L 424.277725 -56.936534 
L 425.053371 -56.935877 
L 425.829017 -56.935238 
L 426.604664 -56.934616 
L 427.38031 -56.934011 
L 428.155957 -56.933423 
L 428.931603 -56.932851 
L 429.707249 -56.932295 
L 430.482896 -56.931753 
L 431.258542 -56.931227 
L 432.034188 -56.930715 
L 432.809835 -56.930217 
L 433.585481 -56.929732 
L 434.361128 -56.929261 
L 435.136774 -56.928803 
L 435.91242 -56.928357 
L 436.688067 -56.927923 
L 437.463713 -56.927502 
L 438.239359 -56.927091 
L 439.015006 -56.926692 
L 439.790652 -56.926304 
L 440.566298 -56.925927 
L 441.341945 -56.92556 
L 442.117591 -56.925203 
L 442.893238 -56.924855 
L 443.668884 -56.924517 
L 444.44453 -56.924189 
L 445.220177 -56.923869 
L 445.995823 -56.923558 
L 446.771469 -56.923256 
L 447.547116 -56.922962 
L 448.322762 -56.922676 
L 449.098409 -56.922397 
L 449.874055 -56.922127 
L 450.649701 -56.921864 
L 451.425348 -56.921608 
L 452.200994 -56.921358 
L 452.97664 -56.921116 
L 453.752287 -56.920881 
L 454.527933 -56.920651 
L 455.30358 -56.920429 
L 456.079226 -56.920212 
L 456.854872 -56.920001 
L 457.630519 -56.919796 
L 458.406165 -56.919596 
L 459.181811 -56.919402 
L 459.957458 -56.919213 
L 460.733104 -56.91903 
L 461.508751 -56.918851 
L 462.284397 -56.918678 
L 463.060043 -56.918509 
L 463.83569 -56.918344 
L 464.611336 -56.918185 
L 465.386982 -56.918029 
L 466.162629 -56.917878 
L 466.938275 -56.917731 
L 467.713921 -56.917588 
L 468.489568 -56.917449 
L 469.265214 -56.917313 
L 470.040861 -56.917182 
L 470.816507 -56.917054 
L 471.592153 -56.916929 
L 472.3678 -56.916808 
L 473.143446 -56.91669 
L 473.919092 -56.916576 
L 474.694739 -56.916464 
L 475.470385 -56.916356 
L 476.246032 -56.91625 
L 477.021678 -56.916148 
L 477.797324 -56.916048 
L 478.572971 -56.915951 
L 479.348617 -56.915857 
L 480.124263 -56.915765 
L 480.89991 -56.915676 
L 481.675556 -56.915589 
L 482.451203 -56.915504 
L 483.226849 -56.915422 
L 484.002495 -56.915342 
L 484.778142 -56.915265 
L 485.553788 -56.915189 
L 486.329434 -56.915115 
L 487.105081 -56.915044 
L 487.880727 -56.914974 
L 488.656374 -56.914907 
L 489.43202 -56.914841 
L 490.207666 -56.914777 
L 490.983313 -56.914715 
L 491.758959 -56.914654 
L 492.534605 -56.914595 
L 493.310252 -56.914538 
L 494.085898 -56.914482 
L 494.861545 -56.914428 
L 495.637191 -56.914375 
L 496.412837 -56.914324 
L 497.188484 -56.914274 
L 497.96413 -56.914226 
L 498.739776 -56.914178 
L 499.515423 -56.914132 
L 500.291069 -56.914088 
L 501.066715 -56.914044 
L 501.842362 -56.914002 
L 502.618008 -56.913961 
L 503.393655 -56.913921 
L 504.169301 -56.913882 
L 504.944947 -56.913845 
L 505.720594 -56.913808 
L 506.49624 -56.913772 
L 507.271886 -56.913737 
L 508.047533 -56.913703 
L 508.823179 -56.91367 
L 509.598826 -56.913638 
L 510.374472 -56.913607 
L 511.150118 -56.913577 
L 511.925765 -56.913548 
L 512.701411 -56.913519 
L 513.477057 -56.913491 
L 514.252704 -56.913464 
L 515.02835 -56.913438 
L 515.803997 -56.913412 
L 516.579643 -56.913387 
L 517.355289 -56.913363 
L 518.130936 -56.913339 
L 518.906582 -56.913316 
L 519.682228 -56.913294 
L 520.457875 -56.913272 
L 521.233521 -56.913251 
L 522.009168 -56.913231 
L 522.784814 -56.913211 
L 523.56046 -56.913191 
L 524.336107 -56.913172 
L 525.111753 -56.913154 
L 525.887399 -56.913136 
L 526.663046 -56.913119 
L 527.438692 -56.913102 
L 528.214339 -56.913085 
L 528.989985 -56.913069 
L 529.765631 -56.913054 
L 530.541278 -56.913039 
L 531.316924 -56.913024 
L 532.09257 -56.913009 
L 532.868217 -56.912996 
L 533.643863 -56.912982 
L 534.419509 -56.912969 
L 535.195156 -56.912956 
L 535.970802 -56.912944 
L 536.746449 -56.912931 
L 537.522095 -56.91292 
L 538.297741 -56.912908 
L 539.073388 -56.912897 
L 539.849034 -56.912886 
L 540.62468 -56.912876 
L 541.400327 -56.912865 
L 542.175973 -56.912855 
L 542.95162 -56.912846 
L 543.727266 -56.912836 
L 544.502912 -56.912827 
L 545.278559 -56.912818 
L 546.054205 -56.912809 
L 546.829851 -56.912801 
L 547.605498 -56.912793 
L 548.381144 -56.912785 
L 549.156791 -56.912777 
L 549.932437 -56.912769 
L 550.708083 -56.912762 
L 551.48373 -56.912755 
L 552.259376 -56.912748 
L 553.035022 -56.912741 
L 553.810669 -56.912734 
L 554.586315 -56.912728 
L 555.361962 -56.912722 
L 556.137608 -56.912716 
L 556.913254 -56.91271 
L 557.688901 -56.912704 
L 558.464547 -56.912698 
L 559.240193 -56.912693 
L 560.01584 -56.912688 
L 560.791486 -56.912683 
L 561.567133 -56.912678 
L 562.342779 -56.912673 
L 563.118425 -56.912668 
L 563.894072 -56.912663 
L 564.669718 -56.912659 
L 565.445364 -56.912655 
L 566.221011 -56.91265 
L 566.996657 -56.912646 
L 567.772303 -56.912642 
L 568.54795 -56.912638 
L 569.323596 -56.912635 
L 570.099243 -56.912631 
L 570.874889 -56.912627 
L 571.650535 -56.912624 
L 572.426182 -56.91262 
L 573.201828 -56.912617 
L 573.977474 -56.912614 
L 574.753121 -56.912611 
L 575.528767 -56.912608 
L 576.304414 -56.912605 
L 577.08006 -56.912602 
L 577.855706 -56.912599 
L 578.631353 -56.912597 
L 579.406999 -56.912594 
L 580.182645 -56.912591 
L 580.958292 -56.912589 
L 581.733938 -56.912586 
L 582.509585 -56.912584 
L 583.285231 -56.912582 
L 584.060877 -56.912579 
L 584.836524 -56.912577 
L 585.61217 -56.912575 
L 586.387816 -56.912573 
L 587.163463 -56.912571 
L 587.939109 -56.912569 
L 588.714756 -56.912567 
L 589.490402 -56.912565 
L 590.266048 -56.912564 
L 591.041695 -56.912562 
L 591.817341 -56.91256 
L 592.592987 -56.912559 
L 593.368634 -56.912557 
L 594.14428 -56.912555 
L 594.919927 -56.912554 
L 595.695573 -56.912552 
L 596.471219 -56.912551 
L 597.246866 -56.91255 
L 598.022512 -56.912548 
L 598.798158 -56.912547 
L 599.573805 -56.912546 
L 600.349451 -56.912544 
L 601.125097 -56.912543 
L 601.900744 -56.912542 
L 602.67639 -56.912541 
L 603.452037 -56.91254 
L 604.227683 -56.912539 
L 605.003329 -56.912538 
L 605.778976 -56.912537 
L 606.554622 -56.912536 
L 607.330268 -56.912535 
L 608.105915 -56.912534 
L 608.881561 -56.912533 
L 609.657208 -56.912532 
L 610.432854 -56.912531 
L 611.2085 -56.91253 
L 611.984147 -56.912529 
L 612.759793 -56.912528 
L 613.535439 -56.912528 
L 614.311086 -56.912527 
L 615.086732 -56.912526 
L 615.862379 -56.912526 
L 616.638025 -56.912525 
L 617.413671 -56.912524 
L 618.189318 -56.912523 
L 618.964964 -56.912523 
L 619.74061 -56.912522 
L 620.516257 -56.912522 
L 621.291903 -56.912521 
L 622.06755 -56.91252 
L 622.843196 -56.91252 
L 623.618842 -56.912519 
L 624.394489 -56.912519 
L 624.394489 -58.565998 
L 624.394489 -58.565998 
L 623.618842 -58.582655 
L 622.843196 -58.599479 
L 622.06755 -58.616472 
L 621.291903 -58.633636 
L 620.516257 -58.650973 
L 619.74061 -58.668483 
L 618.964964 -58.68617 
L 618.189318 -58.704035 
L 617.413671 -58.722079 
L 616.638025 -58.740304 
L 615.862379 -58.758712 
L 615.086732 -58.777305 
L 614.311086 -58.796085 
L 613.535439 -58.815054 
L 612.759793 -58.834213 
L 611.984147 -58.853565 
L 611.2085 -58.873111 
L 610.432854 -58.892853 
L 609.657208 -58.912794 
L 608.881561 -58.932935 
L 608.105915 -58.953278 
L 607.330268 -58.973825 
L 606.554622 -58.994579 
L 605.778976 -59.01554 
L 605.003329 -59.036713 
L 604.227683 -59.058098 
L 603.452037 -59.079697 
L 602.67639 -59.101514 
L 601.900744 -59.123549 
L 601.125097 -59.145806 
L 600.349451 -59.168286 
L 599.573805 -59.190991 
L 598.798158 -59.213924 
L 598.022512 -59.237088 
L 597.246866 -59.260483 
L 596.471219 -59.284114 
L 595.695573 -59.307982 
L 594.919927 -59.332089 
L 594.14428 -59.356437 
L 593.368634 -59.38103 
L 592.592987 -59.40587 
L 591.817341 -59.430959 
L 591.041695 -59.456299 
L 590.266048 -59.481893 
L 589.490402 -59.507744 
L 588.714756 -59.533855 
L 587.939109 -59.560227 
L 587.163463 -59.586863 
L 586.387816 -59.613766 
L 585.61217 -59.640939 
L 584.836524 -59.668384 
L 584.060877 -59.696105 
L 583.285231 -59.724103 
L 582.509585 -59.752381 
L 581.733938 -59.780943 
L 580.958292 -59.809791 
L 580.182645 -59.838928 
L 579.406999 -59.868357 
L 578.631353 -59.898081 
L 577.855706 -59.928102 
L 577.08006 -59.958424 
L 576.304414 -59.98905 
L 575.528767 -60.019982 
L 574.753121 -60.051224 
L 573.977474 -60.082779 
L 573.201828 -60.114649 
L 572.426182 -60.146839 
L 571.650535 -60.179351 
L 570.874889 -60.212188 
L 570.099243 -60.245353 
L 569.323596 -60.278851 
L 568.54795 -60.312684 
L 567.772303 -60.346855 
L 566.996657 -60.381367 
L 566.221011 -60.416226 
L 565.445364 -60.451432 
L 564.669718 -60.486991 
L 563.894072 -60.522905 
L 563.118425 -60.559179 
L 562.342779 -60.595815 
L 561.567133 -60.632817 
L 560.791486 -60.670189 
L 560.01584 -60.707934 
L 559.240193 -60.746057 
L 558.464547 -60.784561 
L 557.688901 -60.823449 
L 556.913254 -60.862726 
L 556.137608 -60.902395 
L 555.361962 -60.94246 
L 554.586315 -60.982926 
L 553.810669 -61.023795 
L 553.035022 -61.065073 
L 552.259376 -61.106762 
L 551.48373 -61.148868 
L 550.708083 -61.191394 
L 549.932437 -61.234344 
L 549.156791 -61.277723 
L 548.381144 -61.321535 
L 547.605498 -61.365784 
L 546.829851 -61.410474 
L 546.054205 -61.45561 
L 545.278559 -61.501196 
L 544.502912 -61.547237 
L 543.727266 -61.593737 
L 542.95162 -61.6407 
L 542.175973 -61.688131 
L 541.400327 -61.736035 
L 540.62468 -61.784416 
L 539.849034 -61.83328 
L 539.073388 -61.88263 
L 538.297741 -61.932472 
L 537.522095 -61.98281 
L 536.746449 -62.033649 
L 535.970802 -62.084995 
L 535.195156 -62.136852 
L 534.419509 -62.189225 
L 533.643863 -62.242119 
L 532.868217 -62.295539 
L 532.09257 -62.349491 
L 531.316924 -62.40398 
L 530.541278 -62.459011 
L 529.765631 -62.514589 
L 528.989985 -62.57072 
L 528.214339 -62.627408 
L 527.438692 -62.68466 
L 526.663046 -62.742482 
L 525.887399 -62.800877 
L 525.111753 -62.859853 
L 524.336107 -62.919415 
L 523.56046 -62.979569 
L 522.784814 -63.04032 
L 522.009168 -63.101674 
L 521.233521 -63.163637 
L 520.457875 -63.226215 
L 519.682228 -63.289414 
L 518.906582 -63.35324 
L 518.130936 -63.4177 
L 517.355289 -63.482798 
L 516.579643 -63.548543 
L 515.803997 -63.614939 
L 515.02835 -63.681993 
L 514.252704 -63.749712 
L 513.477057 -63.818103 
L 512.701411 -63.88717 
L 511.925765 -63.956922 
L 511.150118 -64.027365 
L 510.374472 -64.098505 
L 509.598826 -64.170349 
L 508.823179 -64.242905 
L 508.047533 -64.316179 
L 507.271886 -64.390177 
L 506.49624 -64.464908 
L 505.720594 -64.540378 
L 504.944947 -64.616594 
L 504.169301 -64.693563 
L 503.393655 -64.771293 
L 502.618008 -64.849791 
L 501.842362 -64.929065 
L 501.066715 -65.009122 
L 500.291069 -65.089969 
L 499.515423 -65.171615 
L 498.739776 -65.254066 
L 497.96413 -65.337331 
L 497.188484 -65.421417 
L 496.412837 -65.506333 
L 495.637191 -65.592087 
L 494.861545 -65.678685 
L 494.085898 -65.766138 
L 493.310252 -65.854452 
L 492.534605 -65.943636 
L 491.758959 -66.033698 
L 490.983313 -66.124648 
L 490.207666 -66.216492 
L 489.43202 -66.309241 
L 488.656374 -66.402902 
L 487.880727 -66.497485 
L 487.105081 -66.592997 
L 486.329434 -66.689449 
L 485.553788 -66.786848 
L 484.778142 -66.885205 
L 484.002495 -66.984528 
L 483.226849 -67.084826 
L 482.451203 -67.186109 
L 481.675556 -67.288386 
L 480.89991 -67.391667 
L 480.124263 -67.495961 
L 479.348617 -67.601277 
L 478.572971 -67.707626 
L 477.797324 -67.815018 
L 477.021678 -67.923461 
L 476.246032 -68.032967 
L 475.470385 -68.143544 
L 474.694739 -68.255205 
L 473.919092 -68.367958 
L 473.143446 -68.481814 
L 472.3678 -68.596783 
L 471.592153 -68.712876 
L 470.816507 -68.830104 
L 470.040861 -68.948477 
L 469.265214 -69.068006 
L 468.489568 -69.188702 
L 467.713921 -69.310577 
L 466.938275 -69.43364 
L 466.162629 -69.557903 
L 465.386982 -69.683378 
L 464.611336 -69.810076 
L 463.83569 -69.938008 
L 463.060043 -70.067186 
L 462.284397 -70.197621 
L 461.508751 -70.329326 
L 460.733104 -70.462312 
L 459.957458 -70.596592 
L 459.181811 -70.732176 
L 458.406165 -70.869078 
L 457.630519 -71.00731 
L 456.854872 -71.146884 
L 456.079226 -71.287813 
L 455.30358 -71.430108 
L 454.527933 -71.573784 
L 453.752287 -71.718853 
L 452.97664 -71.865327 
L 452.200994 -72.013219 
L 451.425348 -72.162544 
L 450.649701 -72.313313 
L 449.874055 -72.465541 
L 449.098409 -72.619241 
L 448.322762 -72.774426 
L 447.547116 -72.93111 
L 446.771469 -73.089308 
L 445.995823 -73.249031 
L 445.220177 -73.410296 
L 444.44453 -73.573116 
L 443.668884 -73.737505 
L 442.893238 -73.903478 
L 442.117591 -74.071048 
L 441.341945 -74.240232 
L 440.566298 -74.411042 
L 439.790652 -74.583495 
L 439.015006 -74.757605 
L 438.239359 -74.933388 
L 437.463713 -75.110858 
L 436.688067 -75.290031 
L 435.91242 -75.470922 
L 435.136774 -75.653546 
L 434.361128 -75.837921 
L 433.585481 -76.02406 
L 432.809835 -76.211981 
L 432.034188 -76.401699 
L 431.258542 -76.593231 
L 430.482896 -76.786592 
L 429.707249 -76.981799 
L 428.931603 -77.17887 
L 428.155957 -77.377819 
L 427.38031 -77.578665 
L 426.604664 -77.781424 
L 425.829017 -77.986114 
L 425.053371 -78.192751 
L 424.277725 -78.401352 
L 423.502078 -78.611936 
L 422.726432 -78.82452 
L 421.950786 -79.039121 
L 421.175139 -79.255758 
L 420.399493 -79.474448 
L 419.623846 -79.69521 
L 418.8482 -79.918061 
L 418.072554 -80.143021 
L 417.296907 -80.370107 
L 416.521261 -80.599338 
L 415.745615 -80.830734 
L 414.969968 -81.064312 
L 414.194322 -81.300093 
L 413.418675 -81.538095 
L 412.643029 -81.778338 
L 411.867383 -82.02084 
L 411.091736 -82.265622 
L 410.31609 -82.512704 
L 409.540444 -82.762105 
L 408.764797 -83.013845 
L 407.989151 -83.267944 
L 407.213504 -83.524423 
L 406.437858 -83.783302 
L 405.662212 -84.044602 
L 404.886565 -84.308343 
L 404.110919 -84.574547 
L 403.335273 -84.843233 
L 402.559626 -85.114424 
L 401.78398 -85.388141 
L 401.008334 -85.664404 
L 400.232687 -85.943235 
L 399.457041 -86.224657 
L 398.681394 -86.508691 
L 397.905748 -86.795358 
L 397.130102 -87.084682 
L 396.354455 -87.376683 
L 395.578809 -87.671385 
L 394.803163 -87.96881 
L 394.027516 -88.268981 
L 393.25187 -88.57192 
L 392.476223 -88.877651 
L 391.700577 -89.186195 
L 390.924931 -89.497577 
L 390.149284 -89.81182 
L 389.373638 -90.128948 
L 388.597992 -90.448983 
L 387.822345 -90.77195 
L 387.046699 -91.097872 
L 386.271052 -91.426774 
L 385.495406 -91.758679 
L 384.71976 -92.093612 
L 383.944113 -92.431597 
L 383.168467 -92.77266 
L 382.392821 -93.116823 
L 381.617174 -93.464113 
L 380.841528 -93.814554 
L 380.065881 -94.168171 
L 379.290235 -94.524989 
L 378.514589 -94.885034 
L 377.738942 -95.248331 
L 376.963296 -95.614906 
L 376.18765 -95.984784 
L 375.412003 -96.357991 
L 374.636357 -96.734553 
L 373.86071 -97.114496 
L 373.085064 -97.497846 
L 372.309418 -97.88463 
L 371.533771 -98.274874 
L 370.758125 -98.668604 
L 369.982479 -99.065847 
L 369.206832 -99.46663 
L 368.431186 -99.87098 
L 367.65554 -100.278923 
L 366.879893 -100.690488 
L 366.104247 -101.1057 
L 365.3286 -101.524587 
L 364.552954 -101.947177 
L 363.777308 -102.373497 
L 363.001661 -102.803574 
L 362.226015 -103.237437 
L 361.450369 -103.675113 
L 360.674722 -104.116631 
L 359.899076 -104.562017 
L 359.123429 -105.0113 
L 358.347783 -105.464509 
L 357.572137 -105.921671 
L 356.79649 -106.382815 
L 356.020844 -106.847969 
L 355.245198 -107.317162 
L 354.469551 -107.790422 
L 353.693905 -108.267778 
L 352.918258 -108.749258 
L 352.142612 -109.234892 
L 351.366966 -109.724708 
L 350.591319 -110.218735 
L 349.815673 -110.717002 
L 349.040027 -111.219538 
L 348.26438 -111.726373 
L 347.488734 -112.237534 
L 346.713087 -112.753051 
L 345.937441 -113.272955 
L 345.161795 -113.797272 
L 344.386148 -114.326034 
L 343.610502 -114.859269 
L 342.834856 -115.397007 
L 342.059209 -115.939276 
L 341.283563 -116.486107 
L 340.507916 -117.037528 
L 339.73227 -117.593569 
L 338.956624 -118.15426 
L 338.180977 -118.71963 
L 337.405331 -119.289708 
L 336.629685 -119.864523 
L 335.854038 -120.444105 
L 335.078392 -121.028484 
L 334.302746 -121.617688 
L 333.527099 -122.211747 
L 332.751453 -122.81069 
L 331.975806 -123.414547 
L 331.20016 -124.023346 
L 330.424514 -124.637117 
L 329.648867 -125.255889 
L 328.873221 -125.879691 
L 328.097575 -126.508551 
L 327.321928 -127.1425 
L 326.546282 -127.781565 
L 325.770635 -128.425775 
L 324.994989 -129.075159 
L 324.219343 -129.729746 
L 323.443696 -130.389564 
L 322.66805 -131.054641 
L 321.892404 -131.725006 
L 321.116757 -132.400686 
L 320.341111 -133.081711 
L 319.565464 -133.768106 
L 318.789818 -134.459902 
L 318.014172 -135.157123 
L 317.238525 -135.8598 
L 316.462879 -136.567957 
L 315.687233 -137.281624 
L 314.911586 -138.000825 
L 314.13594 -138.725589 
L 313.360293 -139.455942 
L 312.584647 -140.19191 
L 311.809001 -140.933519 
L 311.033354 -141.680795 
L 310.257708 -142.433764 
L 309.482062 -143.192451 
L 308.706415 -143.956881 
L 307.930769 -144.727079 
L 307.155122 -145.503071 
L 306.379476 -146.284879 
L 305.60383 -147.07253 
L 304.828183 -147.866045 
L 304.052537 -148.665449 
L 303.276891 -149.470766 
L 302.501244 -150.282017 
L 301.725598 -151.099226 
L 300.949952 -151.922415 
L 300.174305 -152.751605 
L 299.398659 -153.586818 
L 298.623012 -154.428076 
L 297.847366 -155.275399 
L 297.07172 -156.128808 
L 296.296073 -156.988322 
L 295.520427 -157.853962 
L 294.744781 -158.725745 
L 293.969134 -159.603692 
L 293.193488 -160.48782 
L 292.417841 -161.378148 
L 291.642195 -162.274692 
L 290.866549 -163.177469 
L 290.090902 -164.086497 
L 289.315256 -165.00179 
L 288.53961 -165.923365 
L 287.763963 -166.851235 
L 286.988317 -167.785416 
L 286.21267 -168.725922 
L 285.437024 -169.672764 
L 284.661378 -170.625957 
L 283.885731 -171.585513 
L 283.110085 -172.551441 
L 282.334439 -173.523755 
L 281.558792 -174.502463 
L 280.783146 -175.487576 
L 280.007499 -176.479102 
L 279.231853 -177.47705 
L 278.456207 -178.481427 
L 277.68056 -179.49224 
L 276.904914 -180.509496 
L 276.129268 -181.5332 
L 275.353621 -182.563357 
L 274.577975 -183.59997 
L 273.802329 -184.643044 
L 273.026682 -185.692581 
L 272.251036 -186.748582 
L 271.475389 -187.811049 
L 270.699743 -188.879981 
L 269.924097 -189.955378 
L 269.14845 -191.037239 
L 268.372804 -192.125561 
L 267.597158 -193.22034 
L 266.821511 -194.321574 
L 266.045865 -195.429257 
L 265.270218 -196.543382 
L 264.494572 -197.663944 
L 263.718926 -198.790934 
L 262.943279 -199.924344 
L 262.167633 -201.064165 
L 261.391987 -202.210384 
L 260.61634 -203.362992 
L 259.840694 -204.521976 
L 259.065047 -205.687321 
L 258.289401 -206.859013 
L 257.513755 -208.037037 
L 256.738108 -209.221376 
L 255.962462 -210.412011 
L 255.186816 -211.608925 
L 254.411169 -212.812097 
L 253.635523 -214.021506 
L 252.859876 -215.23713 
L 252.08423 -216.458946 
L 251.308584 -217.686929 
L 250.532937 -218.921053 
L 249.757291 -220.161292 
L 248.981645 -221.407617 
L 248.205998 -222.66 
L 247.430352 -223.91841 
L 246.654705 -225.182815 
L 245.879059 -226.453183 
L 245.103413 -227.729479 
L 244.327766 -229.011669 
L 243.55212 -230.299714 
L 242.776474 -231.593578 
L 242.000827 -232.893222 
L 241.225181 -234.198604 
L 240.449535 -235.509682 
L 239.673888 -236.826414 
L 238.898242 -238.148756 
L 238.122595 -239.47666 
L 237.346949 -240.81008 
L 236.571303 -242.148968 
L 235.795656 -243.493273 
L 235.02001 -244.842943 
L 234.244364 -246.197926 
L 233.468717 -247.558169 
L 232.693071 -248.923614 
L 231.917424 -250.294205 
L 231.141778 -251.669883 
L 230.366132 -253.050589 
L 229.590485 -254.436261 
L 228.814839 -255.826835 
L 228.039193 -257.222249 
L 227.263546 -258.622434 
L 226.4879 -260.027325 
L 225.712253 -261.436851 
L 224.936607 -262.850944 
L 224.160961 -264.269529 
L 223.385314 -265.692535 
L 222.609668 -267.119886 
L 221.834022 -268.551505 
L 221.058375 -269.987313 
L 220.282729 -271.427232 
L 219.507082 -272.871179 
L 218.731436 -274.319072 
L 217.95579 -275.770825 
L 217.180143 -277.226353 
L 216.404497 -278.685567 
L 215.628851 -280.148378 
L 214.853204 -281.614694 
L 214.077558 -283.084423 
L 213.301911 -284.557469 
L 212.526265 -286.033737 
L 211.750619 -287.513128 
L 210.974972 -288.995541 
L 210.199326 -290.480876 
L 209.42368 -291.969029 
L 208.648033 -293.459894 
L 207.872387 -294.953365 
L 207.096741 -296.449331 
L 206.321094 -297.947682 
L 205.545448 -299.448305 
L 204.769801 -300.951084 
L 203.994155 -302.455904 
L 203.218509 -303.962644 
L 202.442862 -305.471184 
L 201.667216 -306.9814 
L 200.89157 -308.493166 
L 200.115923 -310.006354 
L 199.340277 -311.520835 
L 198.56463 -313.036475 
L 197.788984 -314.55314 
L 197.013338 -316.070691 
L 196.237691 -317.588989 
L 195.462045 -319.107889 
L 194.686399 -320.627246 
L 193.910752 -322.146912 
L 193.135106 -323.666733 
L 192.359459 -325.186555 
L 191.583813 -326.706218 
L 190.808167 -328.225561 
L 190.03252 -329.744417 
L 189.256874 -331.262617 
L 188.481228 -332.779987 
L 187.705581 -334.296348 
L 186.929935 -335.811518 
L 186.154288 -337.32531 
L 185.378642 -338.83753 
L 184.602996 -340.347981 
L 183.827349 -341.856459 
L 183.051703 -343.362754 
L 182.276057 -344.866652 
L 181.50041 -346.367929 
L 180.724764 -347.866355 
L 179.949117 -349.361694 
L 179.173471 -350.853699 
L 178.397825 -352.342116 
L 177.622178 -353.826682 
L 176.846532 -355.307123 
L 176.070886 -356.783156 
L 175.295239 -358.254486 
L 174.519593 -359.720805 
L 173.743947 -361.181794 
L 172.9683 -362.637117 
L 172.192654 -364.086427 
L 171.417007 -365.529359 
L 170.641361 -366.965532 
L 169.865715 -368.394545 
L 169.090068 -369.815978 
L 168.314422 -371.229391 
L 167.538776 -372.634321 
L 166.763129 -374.030278 
L 165.987483 -375.41675 
L 165.211836 -376.793193 
L 164.43619 -378.159034 
L 163.660544 -379.513666 
L 162.884897 -380.856447 
L 162.109251 -382.186696 
L 161.333605 -383.503691 
L 160.557958 -384.806664 
L 159.782312 -386.094797 
L 159.006665 -387.367221 
L 158.231019 -388.623007 
L 157.455373 -389.861165 
L 156.679726 -391.080634 
L 155.90408 -392.28028 
L 155.128434 -393.458886 
L 154.352787 -394.615147 
L 153.577141 -395.747658 
L 152.801494 -396.854907 
L 152.025848 -397.935264 
L 151.250202 -398.986967 
L 150.474555 -400.00811 
L 149.698909 -400.996626 
L 148.923263 -401.950271 
L 148.147616 -402.866604 
L 147.37197 -403.742959 
L 146.596323 -404.576428 
L 145.820677 -405.36382 
L 145.045031 -406.101635 
L 144.269384 -406.786019 
L 143.493738 -407.412717 
L 142.718092 -407.977019 
L 141.942445 -408.473695 
L 141.166799 -408.89692 
L 140.391153 -409.240186 
L 139.615506 -409.496193 
L 138.83986 -409.656725 
L 138.064213 -409.7125 
L 137.288567 -409.652986 
L 136.512921 -409.563255 
L 135.737274 -409.695284 
L 134.961628 -409.694603 
L 134.185982 -409.544811 
L 133.410335 -409.628673 
L 132.634689 -409.7125 
L 131.859042 -409.620275 
L 131.083396 -409.477912 
L 130.30775 -409.684876 
L 129.532103 -409.683142 
L 128.756457 -409.430835 
L 127.980811 -409.569053 
L 127.205164 -409.7125 
L 126.429518 -409.54353 
L 125.653871 -408.973212 
L 124.878225 -407.881844 
L 124.102579 -406.105335 
L 123.326932 -403.413762 
L 122.551286 -399.476413 
L 121.77564 -393.802559 
L 120.999993 -385.636495 
L 120.224347 -373.76171 
L 119.4487 -356.11234 
L 118.673054 -328.942764 
L 117.897408 -284.881331 
L 117.121761 -207.795509 
z
" style="stroke: #ffc0cb; stroke-opacity: 0.3"/>
    </defs>
    <g clip-path="url(#pb5cc088b61)">
     <use xlink:href="#m9677e53a64" x="0" y="473.389375" style="fill: #ffc0cb; fill-opacity: 0.3; stroke: #ffc0cb; stroke-opacity: 0.3"/>
    </g>
   </g>
   <g id="matplotlib.axis_1">
    <g id="xtick_1">
     <g id="line2d_1">
      <defs>
       <path id="m9bb38cda0c" d="M 0 0 
L 0 3.5 
" style="stroke: #000000; stroke-width: 0.8"/>
      </defs>
      <g>
       <use xlink:href="#m9bb38cda0c" x="116.346115" y="416.476875" style="stroke: #000000; stroke-width: 0.8"/>
      </g>
     </g>
     <g id="text_1">
      <!-- 0 -->
      <g transform="translate(109.983615 438.67375) scale(0.2 -0.2)">
       <defs>
        <path id="DejaVuSans-30" d="M 2034 4250 
Q 1547 4250 1301 3770 
Q 1056 3291 1056 2328 
Q 1056 1369 1301 889 
Q 1547 409 2034 409 
Q 2525 409 2770 889 
Q 3016 1369 3016 2328 
Q 3016 3291 2770 3770 
Q 2525 4250 2034 4250 
z
M 2034 4750 
Q 2819 4750 3233 4129 
Q 3647 3509 3647 2328 
Q 3647 1150 3233 529 
Q 2819 -91 2034 -91 
Q 1250 -91 836 529 
Q 422 1150 422 2328 
Q 422 3509 836 4129 
Q 1250 4750 2034 4750 
z
" transform="scale(0.015625)"/>
       </defs>
       <use xlink:href="#DejaVuSans-30"/>
      </g>
     </g>
    </g>
    <g id="xtick_2">
     <g id="line2d_2">
      <g>
       <use xlink:href="#m9bb38cda0c" x="193.910752" y="416.476875" style="stroke: #000000; stroke-width: 0.8"/>
      </g>
     </g>
     <g id="text_2">
      <!-- 100 -->
      <g transform="translate(174.823252 438.67375) scale(0.2 -0.2)">
       <defs>
        <path id="DejaVuSans-31" d="M 794 531 
L 1825 531 
L 1825 4091 
L 703 3866 
L 703 4441 
L 1819 4666 
L 2450 4666 
L 2450 531 
L 3481 531 
L 3481 0 
L 794 0 
L 794 531 
z
" transform="scale(0.015625)"/>
       </defs>
       <use xlink:href="#DejaVuSans-31"/>
       <use xlink:href="#DejaVuSans-30" x="63.623047"/>
       <use xlink:href="#DejaVuSans-30" x="127.246094"/>
      </g>
     </g>
    </g>
    <g id="xtick_3">
     <g id="line2d_3">
      <g>
       <use xlink:href="#m9bb38cda0c" x="271.475389" y="416.476875" style="stroke: #000000; stroke-width: 0.8"/>
      </g>
     </g>
     <g id="text_3">
      <!-- 200 -->
      <g transform="translate(252.387889 438.67375) scale(0.2 -0.2)">
       <defs>
        <path id="DejaVuSans-32" d="M 1228 531 
L 3431 531 
L 3431 0 
L 469 0 
L 469 531 
Q 828 903 1448 1529 
Q 2069 2156 2228 2338 
Q 2531 2678 2651 2914 
Q 2772 3150 2772 3378 
Q 2772 3750 2511 3984 
Q 2250 4219 1831 4219 
Q 1534 4219 1204 4116 
Q 875 4013 500 3803 
L 500 4441 
Q 881 4594 1212 4672 
Q 1544 4750 1819 4750 
Q 2544 4750 2975 4387 
Q 3406 4025 3406 3419 
Q 3406 3131 3298 2873 
Q 3191 2616 2906 2266 
Q 2828 2175 2409 1742 
Q 1991 1309 1228 531 
z
" transform="scale(0.015625)"/>
       </defs>
       <use xlink:href="#DejaVuSans-32"/>
       <use xlink:href="#DejaVuSans-30" x="63.623047"/>
       <use xlink:href="#DejaVuSans-30" x="127.246094"/>
      </g>
     </g>
    </g>
    <g id="xtick_4">
     <g id="line2d_4">
      <g>
       <use xlink:href="#m9bb38cda0c" x="349.040027" y="416.476875" style="stroke: #000000; stroke-width: 0.8"/>
      </g>
     </g>
     <g id="text_4">
      <!-- 300 -->
      <g transform="translate(329.952527 438.67375) scale(0.2 -0.2)">
       <defs>
        <path id="DejaVuSans-33" d="M 2597 2516 
Q 3050 2419 3304 2112 
Q 3559 1806 3559 1356 
Q 3559 666 3084 287 
Q 2609 -91 1734 -91 
Q 1441 -91 1130 -33 
Q 819 25 488 141 
L 488 750 
Q 750 597 1062 519 
Q 1375 441 1716 441 
Q 2309 441 2620 675 
Q 2931 909 2931 1356 
Q 2931 1769 2642 2001 
Q 2353 2234 1838 2234 
L 1294 2234 
L 1294 2753 
L 1863 2753 
Q 2328 2753 2575 2939 
Q 2822 3125 2822 3475 
Q 2822 3834 2567 4026 
Q 2313 4219 1838 4219 
Q 1578 4219 1281 4162 
Q 984 4106 628 3988 
L 628 4550 
Q 988 4650 1302 4700 
Q 1616 4750 1894 4750 
Q 2613 4750 3031 4423 
Q 3450 4097 3450 3541 
Q 3450 3153 3228 2886 
Q 3006 2619 2597 2516 
z
" transform="scale(0.015625)"/>
       </defs>
       <use xlink:href="#DejaVuSans-33"/>
       <use xlink:href="#DejaVuSans-30" x="63.623047"/>
       <use xlink:href="#DejaVuSans-30" x="127.246094"/>
      </g>
     </g>
    </g>
    <g id="xtick_5">
     <g id="line2d_5">
      <g>
       <use xlink:href="#m9bb38cda0c" x="426.604664" y="416.476875" style="stroke: #000000; stroke-width: 0.8"/>
      </g>
     </g>
     <g id="text_5">
      <!-- 400 -->
      <g transform="translate(407.517164 438.67375) scale(0.2 -0.2)">
       <defs>
        <path id="DejaVuSans-34" d="M 2419 4116 
L 825 1625 
L 2419 1625 
L 2419 4116 
z
M 2253 4666 
L 3047 4666 
L 3047 1625 
L 3713 1625 
L 3713 1100 
L 3047 1100 
L 3047 0 
L 2419 0 
L 2419 1100 
L 313 1100 
L 313 1709 
L 2253 4666 
z
" transform="scale(0.015625)"/>
       </defs>
       <use xlink:href="#DejaVuSans-34"/>
       <use xlink:href="#DejaVuSans-30" x="63.623047"/>
       <use xlink:href="#DejaVuSans-30" x="127.246094"/>
      </g>
     </g>
    </g>
    <g id="xtick_6">
     <g id="line2d_6">
      <g>
       <use xlink:href="#m9bb38cda0c" x="504.169301" y="416.476875" style="stroke: #000000; stroke-width: 0.8"/>
      </g>
     </g>
     <g id="text_6">
      <!-- 500 -->
      <g transform="translate(485.081801 438.67375) scale(0.2 -0.2)">
       <defs>
        <path id="DejaVuSans-35" d="M 691 4666 
L 3169 4666 
L 3169 4134 
L 1269 4134 
L 1269 2991 
Q 1406 3038 1543 3061 
Q 1681 3084 1819 3084 
Q 2600 3084 3056 2656 
Q 3513 2228 3513 1497 
Q 3513 744 3044 326 
Q 2575 -91 1722 -91 
Q 1428 -91 1123 -41 
Q 819 9 494 109 
L 494 744 
Q 775 591 1075 516 
Q 1375 441 1709 441 
Q 2250 441 2565 725 
Q 2881 1009 2881 1497 
Q 2881 1984 2565 2268 
Q 2250 2553 1709 2553 
Q 1456 2553 1204 2497 
Q 953 2441 691 2322 
L 691 4666 
z
" transform="scale(0.015625)"/>
       </defs>
       <use xlink:href="#DejaVuSans-35"/>
       <use xlink:href="#DejaVuSans-30" x="63.623047"/>
       <use xlink:href="#DejaVuSans-30" x="127.246094"/>
      </g>
     </g>
    </g>
    <g id="xtick_7">
     <g id="line2d_7">
      <g>
       <use xlink:href="#m9bb38cda0c" x="581.733938" y="416.476875" style="stroke: #000000; stroke-width: 0.8"/>
      </g>
     </g>
     <g id="text_7">
      <!-- 600 -->
      <g transform="translate(562.646438 438.67375) scale(0.2 -0.2)">
       <defs>
        <path id="DejaVuSans-36" d="M 2113 2584 
Q 1688 2584 1439 2293 
Q 1191 2003 1191 1497 
Q 1191 994 1439 701 
Q 1688 409 2113 409 
Q 2538 409 2786 701 
Q 3034 994 3034 1497 
Q 3034 2003 2786 2293 
Q 2538 2584 2113 2584 
z
M 3366 4563 
L 3366 3988 
Q 3128 4100 2886 4159 
Q 2644 4219 2406 4219 
Q 1781 4219 1451 3797 
Q 1122 3375 1075 2522 
Q 1259 2794 1537 2939 
Q 1816 3084 2150 3084 
Q 2853 3084 3261 2657 
Q 3669 2231 3669 1497 
Q 3669 778 3244 343 
Q 2819 -91 2113 -91 
Q 1303 -91 875 529 
Q 447 1150 447 2328 
Q 447 3434 972 4092 
Q 1497 4750 2381 4750 
Q 2619 4750 2861 4703 
Q 3103 4656 3366 4563 
z
" transform="scale(0.015625)"/>
       </defs>
       <use xlink:href="#DejaVuSans-36"/>
       <use xlink:href="#DejaVuSans-30" x="63.623047"/>
       <use xlink:href="#DejaVuSans-30" x="127.246094"/>
      </g>
     </g>
    </g>
    <g id="text_8">
     <!-- Days since antigen exposure -->
     <g transform="translate(226.337813 462.03) scale(0.2 -0.2)">
      <defs>
       <path id="DejaVuSans-44" d="M 1259 4147 
L 1259 519 
L 2022 519 
Q 2988 519 3436 956 
Q 3884 1394 3884 2338 
Q 3884 3275 3436 3711 
Q 2988 4147 2022 4147 
L 1259 4147 
z
M 628 4666 
L 1925 4666 
Q 3281 4666 3915 4102 
Q 4550 3538 4550 2338 
Q 4550 1131 3912 565 
Q 3275 0 1925 0 
L 628 0 
L 628 4666 
z
" transform="scale(0.015625)"/>
       <path id="DejaVuSans-61" d="M 2194 1759 
Q 1497 1759 1228 1600 
Q 959 1441 959 1056 
Q 959 750 1161 570 
Q 1363 391 1709 391 
Q 2188 391 2477 730 
Q 2766 1069 2766 1631 
L 2766 1759 
L 2194 1759 
z
M 3341 1997 
L 3341 0 
L 2766 0 
L 2766 531 
Q 2569 213 2275 61 
Q 1981 -91 1556 -91 
Q 1019 -91 701 211 
Q 384 513 384 1019 
Q 384 1609 779 1909 
Q 1175 2209 1959 2209 
L 2766 2209 
L 2766 2266 
Q 2766 2663 2505 2880 
Q 2244 3097 1772 3097 
Q 1472 3097 1187 3025 
Q 903 2953 641 2809 
L 641 3341 
Q 956 3463 1253 3523 
Q 1550 3584 1831 3584 
Q 2591 3584 2966 3190 
Q 3341 2797 3341 1997 
z
" transform="scale(0.015625)"/>
       <path id="DejaVuSans-79" d="M 2059 -325 
Q 1816 -950 1584 -1140 
Q 1353 -1331 966 -1331 
L 506 -1331 
L 506 -850 
L 844 -850 
Q 1081 -850 1212 -737 
Q 1344 -625 1503 -206 
L 1606 56 
L 191 3500 
L 800 3500 
L 1894 763 
L 2988 3500 
L 3597 3500 
L 2059 -325 
z
" transform="scale(0.015625)"/>
       <path id="DejaVuSans-73" d="M 2834 3397 
L 2834 2853 
Q 2591 2978 2328 3040 
Q 2066 3103 1784 3103 
Q 1356 3103 1142 2972 
Q 928 2841 928 2578 
Q 928 2378 1081 2264 
Q 1234 2150 1697 2047 
L 1894 2003 
Q 2506 1872 2764 1633 
Q 3022 1394 3022 966 
Q 3022 478 2636 193 
Q 2250 -91 1575 -91 
Q 1294 -91 989 -36 
Q 684 19 347 128 
L 347 722 
Q 666 556 975 473 
Q 1284 391 1588 391 
Q 1994 391 2212 530 
Q 2431 669 2431 922 
Q 2431 1156 2273 1281 
Q 2116 1406 1581 1522 
L 1381 1569 
Q 847 1681 609 1914 
Q 372 2147 372 2553 
Q 372 3047 722 3315 
Q 1072 3584 1716 3584 
Q 2034 3584 2315 3537 
Q 2597 3491 2834 3397 
z
" transform="scale(0.015625)"/>
       <path id="DejaVuSans-20" transform="scale(0.015625)"/>
       <path id="DejaVuSans-69" d="M 603 3500 
L 1178 3500 
L 1178 0 
L 603 0 
L 603 3500 
z
M 603 4863 
L 1178 4863 
L 1178 4134 
L 603 4134 
L 603 4863 
z
" transform="scale(0.015625)"/>
       <path id="DejaVuSans-6e" d="M 3513 2113 
L 3513 0 
L 2938 0 
L 2938 2094 
Q 2938 2591 2744 2837 
Q 2550 3084 2163 3084 
Q 1697 3084 1428 2787 
Q 1159 2491 1159 1978 
L 1159 0 
L 581 0 
L 581 3500 
L 1159 3500 
L 1159 2956 
Q 1366 3272 1645 3428 
Q 1925 3584 2291 3584 
Q 2894 3584 3203 3211 
Q 3513 2838 3513 2113 
z
" transform="scale(0.015625)"/>
       <path id="DejaVuSans-63" d="M 3122 3366 
L 3122 2828 
Q 2878 2963 2633 3030 
Q 2388 3097 2138 3097 
Q 1578 3097 1268 2742 
Q 959 2388 959 1747 
Q 959 1106 1268 751 
Q 1578 397 2138 397 
Q 2388 397 2633 464 
Q 2878 531 3122 666 
L 3122 134 
Q 2881 22 2623 -34 
Q 2366 -91 2075 -91 
Q 1284 -91 818 406 
Q 353 903 353 1747 
Q 353 2603 823 3093 
Q 1294 3584 2113 3584 
Q 2378 3584 2631 3529 
Q 2884 3475 3122 3366 
z
" transform="scale(0.015625)"/>
       <path id="DejaVuSans-65" d="M 3597 1894 
L 3597 1613 
L 953 1613 
Q 991 1019 1311 708 
Q 1631 397 2203 397 
Q 2534 397 2845 478 
Q 3156 559 3463 722 
L 3463 178 
Q 3153 47 2828 -22 
Q 2503 -91 2169 -91 
Q 1331 -91 842 396 
Q 353 884 353 1716 
Q 353 2575 817 3079 
Q 1281 3584 2069 3584 
Q 2775 3584 3186 3129 
Q 3597 2675 3597 1894 
z
M 3022 2063 
Q 3016 2534 2758 2815 
Q 2500 3097 2075 3097 
Q 1594 3097 1305 2825 
Q 1016 2553 972 2059 
L 3022 2063 
z
" transform="scale(0.015625)"/>
       <path id="DejaVuSans-74" d="M 1172 4494 
L 1172 3500 
L 2356 3500 
L 2356 3053 
L 1172 3053 
L 1172 1153 
Q 1172 725 1289 603 
Q 1406 481 1766 481 
L 2356 481 
L 2356 0 
L 1766 0 
Q 1100 0 847 248 
Q 594 497 594 1153 
L 594 3053 
L 172 3053 
L 172 3500 
L 594 3500 
L 594 4494 
L 1172 4494 
z
" transform="scale(0.015625)"/>
       <path id="DejaVuSans-67" d="M 2906 1791 
Q 2906 2416 2648 2759 
Q 2391 3103 1925 3103 
Q 1463 3103 1205 2759 
Q 947 2416 947 1791 
Q 947 1169 1205 825 
Q 1463 481 1925 481 
Q 2391 481 2648 825 
Q 2906 1169 2906 1791 
z
M 3481 434 
Q 3481 -459 3084 -895 
Q 2688 -1331 1869 -1331 
Q 1566 -1331 1297 -1286 
Q 1028 -1241 775 -1147 
L 775 -588 
Q 1028 -725 1275 -790 
Q 1522 -856 1778 -856 
Q 2344 -856 2625 -561 
Q 2906 -266 2906 331 
L 2906 616 
Q 2728 306 2450 153 
Q 2172 0 1784 0 
Q 1141 0 747 490 
Q 353 981 353 1791 
Q 353 2603 747 3093 
Q 1141 3584 1784 3584 
Q 2172 3584 2450 3431 
Q 2728 3278 2906 2969 
L 2906 3500 
L 3481 3500 
L 3481 434 
z
" transform="scale(0.015625)"/>
       <path id="DejaVuSans-78" d="M 3513 3500 
L 2247 1797 
L 3578 0 
L 2900 0 
L 1881 1375 
L 863 0 
L 184 0 
L 1544 1831 
L 300 3500 
L 978 3500 
L 1906 2253 
L 2834 3500 
L 3513 3500 
z
" transform="scale(0.015625)"/>
       <path id="DejaVuSans-70" d="M 1159 525 
L 1159 -1331 
L 581 -1331 
L 581 3500 
L 1159 3500 
L 1159 2969 
Q 1341 3281 1617 3432 
Q 1894 3584 2278 3584 
Q 2916 3584 3314 3078 
Q 3713 2572 3713 1747 
Q 3713 922 3314 415 
Q 2916 -91 2278 -91 
Q 1894 -91 1617 61 
Q 1341 213 1159 525 
z
M 3116 1747 
Q 3116 2381 2855 2742 
Q 2594 3103 2138 3103 
Q 1681 3103 1420 2742 
Q 1159 2381 1159 1747 
Q 1159 1113 1420 752 
Q 1681 391 2138 391 
Q 2594 391 2855 752 
Q 3116 1113 3116 1747 
z
" transform="scale(0.015625)"/>
       <path id="DejaVuSans-6f" d="M 1959 3097 
Q 1497 3097 1228 2736 
Q 959 2375 959 1747 
Q 959 1119 1226 758 
Q 1494 397 1959 397 
Q 2419 397 2687 759 
Q 2956 1122 2956 1747 
Q 2956 2369 2687 2733 
Q 2419 3097 1959 3097 
z
M 1959 3584 
Q 2709 3584 3137 3096 
Q 3566 2609 3566 1747 
Q 3566 888 3137 398 
Q 2709 -91 1959 -91 
Q 1206 -91 779 398 
Q 353 888 353 1747 
Q 353 2609 779 3096 
Q 1206 3584 1959 3584 
z
" transform="scale(0.015625)"/>
       <path id="DejaVuSans-75" d="M 544 1381 
L 544 3500 
L 1119 3500 
L 1119 1403 
Q 1119 906 1312 657 
Q 1506 409 1894 409 
Q 2359 409 2629 706 
Q 2900 1003 2900 1516 
L 2900 3500 
L 3475 3500 
L 3475 0 
L 2900 0 
L 2900 538 
Q 2691 219 2414 64 
Q 2138 -91 1772 -91 
Q 1169 -91 856 284 
Q 544 659 544 1381 
z
M 1991 3584 
L 1991 3584 
z
" transform="scale(0.015625)"/>
       <path id="DejaVuSans-72" d="M 2631 2963 
Q 2534 3019 2420 3045 
Q 2306 3072 2169 3072 
Q 1681 3072 1420 2755 
Q 1159 2438 1159 1844 
L 1159 0 
L 581 0 
L 581 3500 
L 1159 3500 
L 1159 2956 
Q 1341 3275 1631 3429 
Q 1922 3584 2338 3584 
Q 2397 3584 2469 3576 
Q 2541 3569 2628 3553 
L 2631 2963 
z
" transform="scale(0.015625)"/>
      </defs>
      <use xlink:href="#DejaVuSans-44"/>
      <use xlink:href="#DejaVuSans-61" x="77.001953"/>
      <use xlink:href="#DejaVuSans-79" x="138.28125"/>
      <use xlink:href="#DejaVuSans-73" x="197.460938"/>
      <use xlink:href="#DejaVuSans-20" x="249.560547"/>
      <use xlink:href="#DejaVuSans-73" x="281.347656"/>
      <use xlink:href="#DejaVuSans-69" x="333.447266"/>
      <use xlink:href="#DejaVuSans-6e" x="361.230469"/>
      <use xlink:href="#DejaVuSans-63" x="424.609375"/>
      <use xlink:href="#DejaVuSans-65" x="479.589844"/>
      <use xlink:href="#DejaVuSans-20" x="541.113281"/>
      <use xlink:href="#DejaVuSans-61" x="572.900391"/>
      <use xlink:href="#DejaVuSans-6e" x="634.179688"/>
      <use xlink:href="#DejaVuSans-74" x="697.558594"/>
      <use xlink:href="#DejaVuSans-69" x="736.767578"/>
      <use xlink:href="#DejaVuSans-67" x="764.550781"/>
      <use xlink:href="#DejaVuSans-65" x="828.027344"/>
      <use xlink:href="#DejaVuSans-6e" x="889.550781"/>
      <use xlink:href="#DejaVuSans-20" x="952.929688"/>
      <use xlink:href="#DejaVuSans-65" x="984.716797"/>
      <use xlink:href="#DejaVuSans-78" x="1044.490234"/>
      <use xlink:href="#DejaVuSans-70" x="1103.669922"/>
      <use xlink:href="#DejaVuSans-6f" x="1167.146484"/>
      <use xlink:href="#DejaVuSans-73" x="1228.328125"/>
      <use xlink:href="#DejaVuSans-75" x="1280.427734"/>
      <use xlink:href="#DejaVuSans-72" x="1343.806641"/>
      <use xlink:href="#DejaVuSans-65" x="1382.669922"/>
     </g>
    </g>
   </g>
   <g id="matplotlib.axis_2">
    <g id="ytick_1">
     <g id="line2d_8">
      <defs>
       <path id="m8185e73ad2" d="M 0 0 
L -3.5 0 
" style="stroke: #000000; stroke-width: 0.8"/>
      </defs>
      <g>
       <use xlink:href="#m8185e73ad2" x="91.758125" y="416.476875" style="stroke: #000000; stroke-width: 0.8"/>
      </g>
     </g>
     <g id="text_9">
      <!-- 0.0 -->
      <g transform="translate(52.951875 424.075312) scale(0.2 -0.2)">
       <defs>
        <path id="DejaVuSans-2e" d="M 684 794 
L 1344 794 
L 1344 0 
L 684 0 
L 684 794 
z
" transform="scale(0.015625)"/>
       </defs>
       <use xlink:href="#DejaVuSans-30"/>
       <use xlink:href="#DejaVuSans-2e" x="63.623047"/>
       <use xlink:href="#DejaVuSans-30" x="95.410156"/>
      </g>
     </g>
    </g>
    <g id="ytick_2">
     <g id="line2d_9">
      <g>
       <use xlink:href="#m8185e73ad2" x="91.758125" y="371.244993" style="stroke: #000000; stroke-width: 0.8"/>
      </g>
     </g>
     <g id="text_10">
      <!-- 0.1 -->
      <g transform="translate(52.951875 378.843431) scale(0.2 -0.2)">
       <use xlink:href="#DejaVuSans-30"/>
       <use xlink:href="#DejaVuSans-2e" x="63.623047"/>
       <use xlink:href="#DejaVuSans-31" x="95.410156"/>
      </g>
     </g>
    </g>
    <g id="ytick_3">
     <g id="line2d_10">
      <g>
       <use xlink:href="#m8185e73ad2" x="91.758125" y="326.013111" style="stroke: #000000; stroke-width: 0.8"/>
      </g>
     </g>
     <g id="text_11">
      <!-- 0.2 -->
      <g transform="translate(52.951875 333.611549) scale(0.2 -0.2)">
       <use xlink:href="#DejaVuSans-30"/>
       <use xlink:href="#DejaVuSans-2e" x="63.623047"/>
       <use xlink:href="#DejaVuSans-32" x="95.410156"/>
      </g>
     </g>
    </g>
    <g id="ytick_4">
     <g id="line2d_11">
      <g>
       <use xlink:href="#m8185e73ad2" x="91.758125" y="280.781229" style="stroke: #000000; stroke-width: 0.8"/>
      </g>
     </g>
     <g id="text_12">
      <!-- 0.3 -->
      <g transform="translate(52.951875 288.379667) scale(0.2 -0.2)">
       <use xlink:href="#DejaVuSans-30"/>
       <use xlink:href="#DejaVuSans-2e" x="63.623047"/>
       <use xlink:href="#DejaVuSans-33" x="95.410156"/>
      </g>
     </g>
    </g>
    <g id="ytick_5">
     <g id="line2d_12">
      <g>
       <use xlink:href="#m8185e73ad2" x="91.758125" y="235.549347" style="stroke: #000000; stroke-width: 0.8"/>
      </g>
     </g>
     <g id="text_13">
      <!-- 0.4 -->
      <g transform="translate(52.951875 243.147785) scale(0.2 -0.2)">
       <use xlink:href="#DejaVuSans-30"/>
       <use xlink:href="#DejaVuSans-2e" x="63.623047"/>
       <use xlink:href="#DejaVuSans-34" x="95.410156"/>
      </g>
     </g>
    </g>
    <g id="ytick_6">
     <g id="line2d_13">
      <g>
       <use xlink:href="#m8185e73ad2" x="91.758125" y="190.317465" style="stroke: #000000; stroke-width: 0.8"/>
      </g>
     </g>
     <g id="text_14">
      <!-- 0.5 -->
      <g transform="translate(52.951875 197.915903) scale(0.2 -0.2)">
       <use xlink:href="#DejaVuSans-30"/>
       <use xlink:href="#DejaVuSans-2e" x="63.623047"/>
       <use xlink:href="#DejaVuSans-35" x="95.410156"/>
      </g>
     </g>
    </g>
    <g id="ytick_7">
     <g id="line2d_14">
      <g>
       <use xlink:href="#m8185e73ad2" x="91.758125" y="145.085583" style="stroke: #000000; stroke-width: 0.8"/>
      </g>
     </g>
     <g id="text_15">
      <!-- 0.6 -->
      <g transform="translate(52.951875 152.684021) scale(0.2 -0.2)">
       <use xlink:href="#DejaVuSans-30"/>
       <use xlink:href="#DejaVuSans-2e" x="63.623047"/>
       <use xlink:href="#DejaVuSans-36" x="95.410156"/>
      </g>
     </g>
    </g>
    <g id="ytick_8">
     <g id="line2d_15">
      <g>
       <use xlink:href="#m8185e73ad2" x="91.758125" y="99.853702" style="stroke: #000000; stroke-width: 0.8"/>
      </g>
     </g>
     <g id="text_16">
      <!-- 0.7 -->
      <g transform="translate(52.951875 107.452139) scale(0.2 -0.2)">
       <defs>
        <path id="DejaVuSans-37" d="M 525 4666 
L 3525 4666 
L 3525 4397 
L 1831 0 
L 1172 0 
L 2766 4134 
L 525 4134 
L 525 4666 
z
" transform="scale(0.015625)"/>
       </defs>
       <use xlink:href="#DejaVuSans-30"/>
       <use xlink:href="#DejaVuSans-2e" x="63.623047"/>
       <use xlink:href="#DejaVuSans-37" x="95.410156"/>
      </g>
     </g>
    </g>
    <g id="ytick_9">
     <g id="line2d_16">
      <g>
       <use xlink:href="#m8185e73ad2" x="91.758125" y="54.62182" style="stroke: #000000; stroke-width: 0.8"/>
      </g>
     </g>
     <g id="text_17">
      <!-- 0.8 -->
      <g transform="translate(52.951875 62.220257) scale(0.2 -0.2)">
       <defs>
        <path id="DejaVuSans-38" d="M 2034 2216 
Q 1584 2216 1326 1975 
Q 1069 1734 1069 1313 
Q 1069 891 1326 650 
Q 1584 409 2034 409 
Q 2484 409 2743 651 
Q 3003 894 3003 1313 
Q 3003 1734 2745 1975 
Q 2488 2216 2034 2216 
z
M 1403 2484 
Q 997 2584 770 2862 
Q 544 3141 544 3541 
Q 544 4100 942 4425 
Q 1341 4750 2034 4750 
Q 2731 4750 3128 4425 
Q 3525 4100 3525 3541 
Q 3525 3141 3298 2862 
Q 3072 2584 2669 2484 
Q 3125 2378 3379 2068 
Q 3634 1759 3634 1313 
Q 3634 634 3220 271 
Q 2806 -91 2034 -91 
Q 1263 -91 848 271 
Q 434 634 434 1313 
Q 434 1759 690 2068 
Q 947 2378 1403 2484 
z
M 1172 3481 
Q 1172 3119 1398 2916 
Q 1625 2713 2034 2713 
Q 2441 2713 2670 2916 
Q 2900 3119 2900 3481 
Q 2900 3844 2670 4047 
Q 2441 4250 2034 4250 
Q 1625 4250 1398 4047 
Q 1172 3844 1172 3481 
z
" transform="scale(0.015625)"/>
       </defs>
       <use xlink:href="#DejaVuSans-30"/>
       <use xlink:href="#DejaVuSans-2e" x="63.623047"/>
       <use xlink:href="#DejaVuSans-38" x="95.410156"/>
      </g>
     </g>
    </g>
    <g id="text_18">
     <!-- Virus neutralization -->
     <g transform="translate(22.396875 319.741562) rotate(-90) scale(0.2 -0.2)">
      <defs>
       <path id="DejaVuSans-56" d="M 1831 0 
L 50 4666 
L 709 4666 
L 2188 738 
L 3669 4666 
L 4325 4666 
L 2547 0 
L 1831 0 
z
" transform="scale(0.015625)"/>
       <path id="DejaVuSans-6c" d="M 603 4863 
L 1178 4863 
L 1178 0 
L 603 0 
L 603 4863 
z
" transform="scale(0.015625)"/>
       <path id="DejaVuSans-7a" d="M 353 3500 
L 3084 3500 
L 3084 2975 
L 922 459 
L 3084 459 
L 3084 0 
L 275 0 
L 275 525 
L 2438 3041 
L 353 3041 
L 353 3500 
z
" transform="scale(0.015625)"/>
      </defs>
      <use xlink:href="#DejaVuSans-56"/>
      <use xlink:href="#DejaVuSans-69" x="66.158203"/>
      <use xlink:href="#DejaVuSans-72" x="93.941406"/>
      <use xlink:href="#DejaVuSans-75" x="135.054688"/>
      <use xlink:href="#DejaVuSans-73" x="198.433594"/>
      <use xlink:href="#DejaVuSans-20" x="250.533203"/>
      <use xlink:href="#DejaVuSans-6e" x="282.320312"/>
      <use xlink:href="#DejaVuSans-65" x="345.699219"/>
      <use xlink:href="#DejaVuSans-75" x="407.222656"/>
      <use xlink:href="#DejaVuSans-74" x="470.601562"/>
      <use xlink:href="#DejaVuSans-72" x="509.810547"/>
      <use xlink:href="#DejaVuSans-61" x="550.923828"/>
      <use xlink:href="#DejaVuSans-6c" x="612.203125"/>
      <use xlink:href="#DejaVuSans-69" x="639.986328"/>
      <use xlink:href="#DejaVuSans-7a" x="667.769531"/>
      <use xlink:href="#DejaVuSans-61" x="720.259766"/>
      <use xlink:href="#DejaVuSans-74" x="781.539062"/>
      <use xlink:href="#DejaVuSans-69" x="820.748047"/>
      <use xlink:href="#DejaVuSans-6f" x="848.53125"/>
      <use xlink:href="#DejaVuSans-6e" x="909.712891"/>
     </g>
     <!--  probability -->
     <g transform="translate(44.7925 278.966562) rotate(-90) scale(0.2 -0.2)">
      <defs>
       <path id="DejaVuSans-62" d="M 3116 1747 
Q 3116 2381 2855 2742 
Q 2594 3103 2138 3103 
Q 1681 3103 1420 2742 
Q 1159 2381 1159 1747 
Q 1159 1113 1420 752 
Q 1681 391 2138 391 
Q 2594 391 2855 752 
Q 3116 1113 3116 1747 
z
M 1159 2969 
Q 1341 3281 1617 3432 
Q 1894 3584 2278 3584 
Q 2916 3584 3314 3078 
Q 3713 2572 3713 1747 
Q 3713 922 3314 415 
Q 2916 -91 2278 -91 
Q 1894 -91 1617 61 
Q 1341 213 1159 525 
L 1159 0 
L 581 0 
L 581 4863 
L 1159 4863 
L 1159 2969 
z
" transform="scale(0.015625)"/>
      </defs>
      <use xlink:href="#DejaVuSans-20"/>
      <use xlink:href="#DejaVuSans-70" x="31.787109"/>
      <use xlink:href="#DejaVuSans-72" x="95.263672"/>
      <use xlink:href="#DejaVuSans-6f" x="134.126953"/>
      <use xlink:href="#DejaVuSans-62" x="195.308594"/>
      <use xlink:href="#DejaVuSans-61" x="258.785156"/>
      <use xlink:href="#DejaVuSans-62" x="320.064453"/>
      <use xlink:href="#DejaVuSans-69" x="383.541016"/>
      <use xlink:href="#DejaVuSans-6c" x="411.324219"/>
      <use xlink:href="#DejaVuSans-69" x="439.107422"/>
      <use xlink:href="#DejaVuSans-74" x="466.890625"/>
      <use xlink:href="#DejaVuSans-79" x="506.099609"/>
     </g>
    </g>
   </g>
   <g id="patch_3">
    <path d="M 91.758125 416.476875 
L 91.758125 28.396875 
" style="fill: none; stroke: #000000; stroke-width: 0.8; stroke-linejoin: miter; stroke-linecap: square"/>
   </g>
   <g id="patch_4">
    <path d="M 649.758125 416.476875 
L 649.758125 28.396875 
" style="fill: none; stroke: #000000; stroke-width: 0.8; stroke-linejoin: miter; stroke-linecap: square"/>
   </g>
   <g id="patch_5">
    <path d="M 91.758125 416.476875 
L 649.758125 416.476875 
" style="fill: none; stroke: #000000; stroke-width: 0.8; stroke-linejoin: miter; stroke-linecap: square"/>
   </g>
   <g id="patch_6">
    <path d="M 91.758125 28.396875 
L 649.758125 28.396875 
" style="fill: none; stroke: #000000; stroke-width: 0.8; stroke-linejoin: miter; stroke-linecap: square"/>
   </g>
   <g id="text_19">
    <!-- XBB.1.5 antigen -->
    <g transform="translate(289.92375 22.396875) scale(0.2 -0.2)">
     <defs>
      <path id="DejaVuSans-58" d="M 403 4666 
L 1081 4666 
L 2241 2931 
L 3406 4666 
L 4084 4666 
L 2584 2425 
L 4184 0 
L 3506 0 
L 2194 1984 
L 872 0 
L 191 0 
L 1856 2491 
L 403 4666 
z
" transform="scale(0.015625)"/>
      <path id="DejaVuSans-42" d="M 1259 2228 
L 1259 519 
L 2272 519 
Q 2781 519 3026 730 
Q 3272 941 3272 1375 
Q 3272 1813 3026 2020 
Q 2781 2228 2272 2228 
L 1259 2228 
z
M 1259 4147 
L 1259 2741 
L 2194 2741 
Q 2656 2741 2882 2914 
Q 3109 3088 3109 3444 
Q 3109 3797 2882 3972 
Q 2656 4147 2194 4147 
L 1259 4147 
z
M 628 4666 
L 2241 4666 
Q 2963 4666 3353 4366 
Q 3744 4066 3744 3513 
Q 3744 3084 3544 2831 
Q 3344 2578 2956 2516 
Q 3422 2416 3680 2098 
Q 3938 1781 3938 1306 
Q 3938 681 3513 340 
Q 3088 0 2303 0 
L 628 0 
L 628 4666 
z
" transform="scale(0.015625)"/>
     </defs>
     <use xlink:href="#DejaVuSans-58"/>
     <use xlink:href="#DejaVuSans-42" x="68.505859"/>
     <use xlink:href="#DejaVuSans-42" x="137.109375"/>
     <use xlink:href="#DejaVuSans-2e" x="205.712891"/>
     <use xlink:href="#DejaVuSans-31" x="237.5"/>
     <use xlink:href="#DejaVuSans-2e" x="301.123047"/>
     <use xlink:href="#DejaVuSans-35" x="332.910156"/>
     <use xlink:href="#DejaVuSans-20" x="396.533203"/>
     <use xlink:href="#DejaVuSans-61" x="428.320312"/>
     <use xlink:href="#DejaVuSans-6e" x="489.599609"/>
     <use xlink:href="#DejaVuSans-74" x="552.978516"/>
     <use xlink:href="#DejaVuSans-69" x="592.1875"/>
     <use xlink:href="#DejaVuSans-67" x="619.970703"/>
     <use xlink:href="#DejaVuSans-65" x="683.447266"/>
     <use xlink:href="#DejaVuSans-6e" x="744.970703"/>
    </g>
   </g>
   <g id="legend_1">
    <g id="patch_7">
     <path d="M 765.358125 416.476875 
L 908.664375 416.476875 
Q 912.664375 416.476875 912.664375 412.476875 
L 912.664375 385.120625 
Q 912.664375 381.120625 908.664375 381.120625 
L 765.358125 381.120625 
Q 761.358125 381.120625 761.358125 385.120625 
L 761.358125 412.476875 
Q 761.358125 416.476875 765.358125 416.476875 
z
" style="fill: #ffffff; opacity: 0.8; stroke: #cccccc; stroke-linejoin: miter"/>
    </g>
    <g id="patch_8">
     <path d="M 769.358125 404.3175 
L 809.358125 404.3175 
L 809.358125 390.3175 
L 769.358125 390.3175 
z
" style="fill: #ffc0cb; fill-opacity: 0.3; stroke: #ffc0cb; stroke-opacity: 0.3; stroke-linejoin: miter"/>
    </g>
    <g id="text_20">
     <!-- XBB.1.9 -->
     <g transform="translate(825.358125 404.3175) scale(0.2 -0.2)">
      <defs>
       <path id="DejaVuSans-39" d="M 703 97 
L 703 672 
Q 941 559 1184 500 
Q 1428 441 1663 441 
Q 2288 441 2617 861 
Q 2947 1281 2994 2138 
Q 2813 1869 2534 1725 
Q 2256 1581 1919 1581 
Q 1219 1581 811 2004 
Q 403 2428 403 3163 
Q 403 3881 828 4315 
Q 1253 4750 1959 4750 
Q 2769 4750 3195 4129 
Q 3622 3509 3622 2328 
Q 3622 1225 3098 567 
Q 2575 -91 1691 -91 
Q 1453 -91 1209 -44 
Q 966 3 703 97 
z
M 1959 2075 
Q 2384 2075 2632 2365 
Q 2881 2656 2881 3163 
Q 2881 3666 2632 3958 
Q 2384 4250 1959 4250 
Q 1534 4250 1286 3958 
Q 1038 3666 1038 3163 
Q 1038 2656 1286 2365 
Q 1534 2075 1959 2075 
z
" transform="scale(0.015625)"/>
      </defs>
      <use xlink:href="#DejaVuSans-58"/>
      <use xlink:href="#DejaVuSans-42" x="68.505859"/>
      <use xlink:href="#DejaVuSans-42" x="137.109375"/>
      <use xlink:href="#DejaVuSans-2e" x="205.712891"/>
      <use xlink:href="#DejaVuSans-31" x="237.5"/>
      <use xlink:href="#DejaVuSans-2e" x="301.123047"/>
      <use xlink:href="#DejaVuSans-39" x="332.910156"/>
     </g>
    </g>
   </g>
  </g>
 </g>
 <defs>
  <clipPath id="pb5cc088b61">
   <rect x="91.758125" y="28.396875" width="558" height="388.08"/>
  </clipPath>
 </defs>
</svg>
