<?xml version="1.0" encoding="utf-8" standalone="no"?>
<!DOCTYPE svg PUBLIC "-//W3C//DTD SVG 1.1//EN"
  "http://www.w3.org/Graphics/SVG/1.1/DTD/svg11.dtd">
<svg xmlns:xlink="http://www.w3.org/1999/xlink" width="906.855pt" height="473.389375pt" viewBox="0 0 906.855 473.389375" xmlns="http://www.w3.org/2000/svg" version="1.1">
 <metadata>
  <rdf:RDF xmlns:dc="http://purl.org/dc/elements/1.1/" xmlns:cc="http://creativecommons.org/ns#" xmlns:rdf="http://www.w3.org/1999/02/22-rdf-syntax-ns#">
   <cc:Work>
    <dc:type rdf:resource="http://purl.org/dc/dcmitype/StillImage"/>
    <dc:date>2023-11-12T17:15:29.862147</dc:date>
    <dc:format>image/svg+xml</dc:format>
    <dc:creator>
     <cc:Agent>
      <dc:title>Matplotlib v3.7.2, https://matplotlib.org/</dc:title>
     </cc:Agent>
    </dc:creator>
   </cc:Work>
  </rdf:RDF>
 </metadata>
 <defs>
  <style type="text/css">*{stroke-linejoin: round; stroke-linecap: butt}</style>
 </defs>
 <g id="figure_1">
  <g id="patch_1">
   <path d="M 0 473.389375 
L 906.855 473.389375 
L 906.855 0 
L 0 0 
z
" style="fill: #ffffff"/>
  </g>
  <g id="axes_1">
   <g id="patch_2">
    <path d="M 91.758125 416.476875 
L 649.758125 416.476875 
L 649.758125 28.396875 
L 91.758125 28.396875 
z
" style="fill: #ffffff"/>
   </g>
   <g id="PolyCollection_1">
    <defs>
     <path id="mdc5235e6ec" d="M 117.121761 -213.415884 
L 117.121761 -128.474546 
L 117.897408 -182.829045 
L 118.673054 -224.889345 
L 119.4487 -257.965522 
L 120.224347 -284.344656 
L 120.999993 -305.642421 
L 121.77564 -323.022825 
L 122.551286 -337.33931 
L 123.326932 -349.227558 
L 124.102579 -359.167855 
L 124.878225 -367.527818 
L 125.653871 -374.592172 
L 126.429518 -380.583845 
L 127.205164 -385.67913 
L 127.980811 -390.018723 
L 128.756457 -393.715868 
L 129.532103 -396.86243 
L 130.30775 -399.533472 
L 131.083396 -401.790746 
L 131.859042 -403.186934 
L 132.634689 -401.164874 
L 133.410335 -398.948237 
L 134.185982 -396.554836 
L 134.961628 -394.000118 
L 135.737274 -391.297661 
L 136.512921 -388.459548 
L 137.288567 -385.496655 
L 138.064213 -382.418871 
L 138.83986 -379.235273 
L 139.615506 -375.954253 
L 140.391153 -372.583631 
L 141.166799 -369.13073 
L 141.942445 -365.602446 
L 142.718092 -362.005299 
L 143.493738 -358.345476 
L 144.269384 -354.628862 
L 145.045031 -350.861068 
L 145.820677 -347.047457 
L 146.596323 -343.193158 
L 147.37197 -339.303084 
L 148.147616 -335.381943 
L 148.923263 -331.43425 
L 149.698909 -327.464338 
L 150.474555 -323.476361 
L 151.250202 -319.474306 
L 152.025848 -315.461997 
L 152.801494 -311.4431 
L 153.577141 -307.421126 
L 154.352787 -303.399441 
L 155.128434 -299.381266 
L 155.90408 -295.369678 
L 156.679726 -291.36762 
L 157.455373 -287.377901 
L 158.231019 -283.403198 
L 159.006665 -279.446058 
L 159.782312 -275.508908 
L 160.557958 -271.594049 
L 161.333605 -267.703662 
L 162.109251 -263.839815 
L 162.884897 -260.004458 
L 163.660544 -256.199432 
L 164.43619 -252.426468 
L 165.211836 -248.687192 
L 165.987483 -244.983125 
L 166.763129 -241.315689 
L 167.538776 -237.686207 
L 168.314422 -234.095907 
L 169.090068 -230.545923 
L 169.865715 -227.037301 
L 170.641361 -223.570999 
L 171.417007 -220.147889 
L 172.192654 -216.768763 
L 172.9683 -213.434333 
L 173.743947 -210.145235 
L 174.519593 -206.902031 
L 175.295239 -203.705212 
L 176.070886 -200.5552 
L 176.846532 -197.452353 
L 177.622178 -194.396964 
L 178.397825 -191.389266 
L 179.173471 -188.429436 
L 179.949117 -185.517594 
L 180.724764 -182.653807 
L 181.50041 -179.838092 
L 182.276057 -177.07042 
L 183.051703 -174.350713 
L 183.827349 -171.678853 
L 184.602996 -169.054679 
L 185.378642 -166.477993 
L 186.154288 -163.948561 
L 186.929935 -161.466112 
L 187.705581 -159.030345 
L 188.481228 -156.640929 
L 189.256874 -154.297503 
L 190.03252 -151.999682 
L 190.808167 -149.747054 
L 191.583813 -147.539187 
L 192.359459 -145.375626 
L 193.135106 -143.255897 
L 193.910752 -141.179508 
L 194.686399 -139.145953 
L 195.462045 -137.154707 
L 196.237691 -135.205237 
L 197.013338 -133.296993 
L 197.788984 -131.429418 
L 198.56463 -129.601943 
L 199.340277 -127.813992 
L 200.115923 -126.064982 
L 200.89157 -124.354323 
L 201.667216 -122.681421 
L 202.442862 -121.045678 
L 203.218509 -119.44649 
L 203.994155 -117.883255 
L 204.769801 -116.355367 
L 205.545448 -114.86222 
L 206.321094 -113.403206 
L 207.096741 -111.977721 
L 207.872387 -110.585161 
L 208.648033 -109.224922 
L 209.42368 -107.896407 
L 210.199326 -106.599016 
L 210.974972 -105.332159 
L 211.750619 -104.095244 
L 212.526265 -102.887689 
L 213.301911 -101.708912 
L 214.077558 -100.558339 
L 214.853204 -99.435401 
L 215.628851 -98.339535 
L 216.404497 -97.270182 
L 217.180143 -96.226793 
L 217.95579 -95.208823 
L 218.731436 -94.215734 
L 219.507082 -93.246996 
L 220.282729 -92.302085 
L 221.058375 -91.380486 
L 221.834022 -90.48169 
L 222.609668 -89.605195 
L 223.385314 -88.750509 
L 224.160961 -87.917144 
L 224.936607 -87.104624 
L 225.712253 -86.312478 
L 226.4879 -85.540244 
L 227.263546 -84.787468 
L 228.039193 -84.053702 
L 228.814839 -83.338509 
L 229.590485 -82.641457 
L 230.366132 -81.962123 
L 231.141778 -81.300094 
L 231.917424 -80.65496 
L 232.693071 -80.026324 
L 233.468717 -79.413794 
L 234.244364 -78.816985 
L 235.02001 -78.235521 
L 235.795656 -77.669033 
L 236.571303 -77.11716 
L 237.346949 -76.579548 
L 238.122595 -76.055851 
L 238.898242 -75.545729 
L 239.673888 -75.048849 
L 240.449535 -74.564888 
L 241.225181 -74.093526 
L 242.000827 -73.634452 
L 242.776474 -73.187362 
L 243.55212 -72.751959 
L 244.327766 -72.327951 
L 245.103413 -71.915052 
L 245.879059 -71.512986 
L 246.654705 -71.12148 
L 247.430352 -70.740268 
L 248.205998 -70.36909 
L 248.981645 -70.007693 
L 249.757291 -69.655828 
L 250.532937 -69.313254 
L 251.308584 -68.979734 
L 252.08423 -68.655037 
L 252.859876 -68.338937 
L 253.635523 -68.031214 
L 254.411169 -67.731654 
L 255.186816 -67.440046 
L 255.962462 -67.156185 
L 256.738108 -66.879873 
L 257.513755 -66.610913 
L 258.289401 -66.349116 
L 259.065047 -66.094296 
L 259.840694 -65.846271 
L 260.61634 -65.604866 
L 261.391987 -65.369907 
L 262.167633 -65.141227 
L 262.943279 -64.918662 
L 263.718926 -64.702052 
L 264.494572 -64.491241 
L 265.270218 -64.286078 
L 266.045865 -64.086413 
L 266.821511 -63.892103 
L 267.597158 -63.703006 
L 268.372804 -63.518986 
L 269.14845 -63.339909 
L 269.924097 -63.165644 
L 270.699743 -62.996065 
L 271.475389 -62.831047 
L 272.251036 -62.670469 
L 273.026682 -62.514215 
L 273.802329 -62.362169 
L 274.577975 -62.21422 
L 275.353621 -62.07026 
L 276.129268 -61.930181 
L 276.904914 -61.793882 
L 277.68056 -61.66126 
L 278.456207 -61.532219 
L 279.231853 -61.406663 
L 280.007499 -61.284499 
L 280.783146 -61.165636 
L 281.558792 -61.049987 
L 282.334439 -60.937465 
L 283.110085 -60.827987 
L 283.885731 -60.721471 
L 284.661378 -60.617838 
L 285.437024 -60.51701 
L 286.21267 -60.418914 
L 286.988317 -60.323474 
L 287.763963 -60.23062 
L 288.53961 -60.140283 
L 289.315256 -60.052395 
L 290.090902 -59.96689 
L 290.866549 -59.883704 
L 291.642195 -59.802775 
L 292.417841 -59.724041 
L 293.193488 -59.647445 
L 293.969134 -59.572927 
L 294.744781 -59.500433 
L 295.520427 -59.429907 
L 296.296073 -59.361297 
L 297.07172 -59.29455 
L 297.847366 -59.229618 
L 298.623012 -59.16645 
L 299.398659 -59.104998 
L 300.174305 -59.045218 
L 300.949952 -58.987062 
L 301.725598 -58.930488 
L 302.501244 -58.875453 
L 303.276891 -58.821915 
L 304.052537 -58.769833 
L 304.828183 -58.719169 
L 305.60383 -58.669883 
L 306.379476 -58.621938 
L 307.155122 -58.575299 
L 307.930769 -58.529929 
L 308.706415 -58.485795 
L 309.482062 -58.442862 
L 310.257708 -58.401099 
L 311.033354 -58.360473 
L 311.809001 -58.320953 
L 312.584647 -58.282511 
L 313.360293 -58.245115 
L 314.13594 -58.208739 
L 314.911586 -58.173354 
L 315.687233 -58.138933 
L 316.462879 -58.10545 
L 317.238525 -58.07288 
L 318.014172 -58.041198 
L 318.789818 -58.010379 
L 319.565464 -57.980401 
L 320.341111 -57.951241 
L 321.116757 -57.922875 
L 321.892404 -57.895283 
L 322.66805 -57.868444 
L 323.443696 -57.842336 
L 324.219343 -57.816941 
L 324.994989 -57.792238 
L 325.770635 -57.76821 
L 326.546282 -57.744837 
L 327.321928 -57.722101 
L 328.097575 -57.699986 
L 328.873221 -57.678475 
L 329.648867 -57.65755 
L 330.424514 -57.637197 
L 331.20016 -57.617399 
L 331.975806 -57.598141 
L 332.751453 -57.579409 
L 333.527099 -57.561189 
L 334.302746 -57.543465 
L 335.078392 -57.526226 
L 335.854038 -57.509457 
L 336.629685 -57.493146 
L 337.405331 -57.47728 
L 338.180977 -57.461848 
L 338.956624 -57.446837 
L 339.73227 -57.432236 
L 340.507916 -57.418033 
L 341.283563 -57.404219 
L 342.059209 -57.390781 
L 342.834856 -57.377711 
L 343.610502 -57.364997 
L 344.386148 -57.352631 
L 345.161795 -57.340603 
L 345.937441 -57.328903 
L 346.713087 -57.317523 
L 347.488734 -57.306453 
L 348.26438 -57.295686 
L 349.040027 -57.285213 
L 349.815673 -57.275026 
L 350.591319 -57.265118 
L 351.366966 -57.25548 
L 352.142612 -57.246105 
L 352.918258 -57.236987 
L 353.693905 -57.228117 
L 354.469551 -57.21949 
L 355.245198 -57.211099 
L 356.020844 -57.202937 
L 356.79649 -57.194998 
L 357.572137 -57.187276 
L 358.347783 -57.179765 
L 359.123429 -57.172459 
L 359.899076 -57.165353 
L 360.674722 -57.158441 
L 361.450369 -57.151718 
L 362.226015 -57.145179 
L 363.001661 -57.138818 
L 363.777308 -57.132631 
L 364.552954 -57.126613 
L 365.3286 -57.12076 
L 366.104247 -57.115067 
L 366.879893 -57.109529 
L 367.65554 -57.104143 
L 368.431186 -57.098904 
L 369.206832 -57.093808 
L 369.982479 -57.088851 
L 370.758125 -57.08403 
L 371.533771 -57.07934 
L 372.309418 -57.074779 
L 373.085064 -57.070342 
L 373.86071 -57.066027 
L 374.636357 -57.06183 
L 375.412003 -57.057747 
L 376.18765 -57.053776 
L 376.963296 -57.049914 
L 377.738942 -57.046157 
L 378.514589 -57.042503 
L 379.290235 -57.038948 
L 380.065881 -57.035491 
L 380.841528 -57.032128 
L 381.617174 -57.028858 
L 382.392821 -57.025676 
L 383.168467 -57.022582 
L 383.944113 -57.019572 
L 384.71976 -57.016645 
L 385.495406 -57.013797 
L 386.271052 -57.011028 
L 387.046699 -57.008334 
L 387.822345 -57.005714 
L 388.597992 -57.003165 
L 389.373638 -57.000686 
L 390.149284 -56.998275 
L 390.924931 -56.99593 
L 391.700577 -56.993648 
L 392.476223 -56.99143 
L 393.25187 -56.989272 
L 394.027516 -56.987172 
L 394.803163 -56.985131 
L 395.578809 -56.983145 
L 396.354455 -56.981213 
L 397.130102 -56.979334 
L 397.905748 -56.977507 
L 398.681394 -56.97573 
L 399.457041 -56.974001 
L 400.232687 -56.972319 
L 401.008334 -56.970683 
L 401.78398 -56.969093 
L 402.559626 -56.967545 
L 403.335273 -56.96604 
L 404.110919 -56.964576 
L 404.886565 -56.963152 
L 405.662212 -56.961767 
L 406.437858 -56.96042 
L 407.213504 -56.95911 
L 407.989151 -56.957835 
L 408.764797 -56.956596 
L 409.540444 -56.95539 
L 410.31609 -56.954217 
L 411.091736 -56.953076 
L 411.867383 -56.951967 
L 412.643029 -56.950888 
L 413.418675 -56.949838 
L 414.194322 -56.948817 
L 414.969968 -56.947824 
L 415.745615 -56.946858 
L 416.521261 -56.945919 
L 417.296907 -56.945005 
L 418.072554 -56.944116 
L 418.8482 -56.943252 
L 419.623846 -56.942411 
L 420.399493 -56.941593 
L 421.175139 -56.940797 
L 421.950786 -56.940024 
L 422.726432 -56.939271 
L 423.502078 -56.938539 
L 424.277725 -56.937827 
L 425.053371 -56.937134 
L 425.829017 -56.936461 
L 426.604664 -56.935806 
L 427.38031 -56.935168 
L 428.155957 -56.934548 
L 428.931603 -56.933946 
L 429.707249 -56.933359 
L 430.482896 -56.932789 
L 431.258542 -56.932234 
L 432.034188 -56.931694 
L 432.809835 -56.93117 
L 433.585481 -56.930659 
L 434.361128 -56.930162 
L 435.136774 -56.92968 
L 435.91242 -56.92921 
L 436.688067 -56.928753 
L 437.463713 -56.928308 
L 438.239359 -56.927876 
L 439.015006 -56.927456 
L 439.790652 -56.927047 
L 440.566298 -56.926649 
L 441.341945 -56.926262 
L 442.117591 -56.925886 
L 442.893238 -56.92552 
L 443.668884 -56.925164 
L 444.44453 -56.924817 
L 445.220177 -56.924481 
L 445.995823 -56.924153 
L 446.771469 -56.923834 
L 447.547116 -56.923524 
L 448.322762 -56.923223 
L 449.098409 -56.92293 
L 449.874055 -56.922645 
L 450.649701 -56.922367 
L 451.425348 -56.922097 
L 452.200994 -56.921835 
L 452.97664 -56.92158 
L 453.752287 -56.921331 
L 454.527933 -56.92109 
L 455.30358 -56.920855 
L 456.079226 -56.920626 
L 456.854872 -56.920404 
L 457.630519 -56.920188 
L 458.406165 -56.919978 
L 459.181811 -56.919773 
L 459.957458 -56.919575 
L 460.733104 -56.919381 
L 461.508751 -56.919193 
L 462.284397 -56.91901 
L 463.060043 -56.918832 
L 463.83569 -56.918659 
L 464.611336 -56.91849 
L 465.386982 -56.918327 
L 466.162629 -56.918167 
L 466.938275 -56.918012 
L 467.713921 -56.917862 
L 468.489568 -56.917715 
L 469.265214 -56.917572 
L 470.040861 -56.917434 
L 470.816507 -56.917299 
L 471.592153 -56.917167 
L 472.3678 -56.91704 
L 473.143446 -56.916916 
L 473.919092 -56.916795 
L 474.694739 -56.916678 
L 475.470385 -56.916563 
L 476.246032 -56.916452 
L 477.021678 -56.916344 
L 477.797324 -56.916239 
L 478.572971 -56.916137 
L 479.348617 -56.916037 
L 480.124263 -56.915941 
L 480.89991 -56.915846 
L 481.675556 -56.915755 
L 482.451203 -56.915666 
L 483.226849 -56.915579 
L 484.002495 -56.915495 
L 484.778142 -56.915413 
L 485.553788 -56.915334 
L 486.329434 -56.915256 
L 487.105081 -56.915181 
L 487.880727 -56.915107 
L 488.656374 -56.915036 
L 489.43202 -56.914967 
L 490.207666 -56.914899 
L 490.983313 -56.914834 
L 491.758959 -56.91477 
L 492.534605 -56.914708 
L 493.310252 -56.914647 
L 494.085898 -56.914589 
L 494.861545 -56.914532 
L 495.637191 -56.914476 
L 496.412837 -56.914422 
L 497.188484 -56.914369 
L 497.96413 -56.914318 
L 498.739776 -56.914269 
L 499.515423 -56.91422 
L 500.291069 -56.914173 
L 501.066715 -56.914127 
L 501.842362 -56.914083 
L 502.618008 -56.91404 
L 503.393655 -56.913998 
L 504.169301 -56.913957 
L 504.944947 -56.913917 
L 505.720594 -56.913878 
L 506.49624 -56.91384 
L 507.271886 -56.913804 
L 508.047533 -56.913768 
L 508.823179 -56.913733 
L 509.598826 -56.9137 
L 510.374472 -56.913667 
L 511.150118 -56.913635 
L 511.925765 -56.913604 
L 512.701411 -56.913574 
L 513.477057 -56.913544 
L 514.252704 -56.913516 
L 515.02835 -56.913488 
L 515.803997 -56.913461 
L 516.579643 -56.913435 
L 517.355289 -56.913409 
L 518.130936 -56.913384 
L 518.906582 -56.91336 
L 519.682228 -56.913337 
L 520.457875 -56.913314 
L 521.233521 -56.913291 
L 522.009168 -56.91327 
L 522.784814 -56.913249 
L 523.56046 -56.913228 
L 524.336107 -56.913208 
L 525.111753 -56.913189 
L 525.887399 -56.91317 
L 526.663046 -56.913152 
L 527.438692 -56.913134 
L 528.214339 -56.913117 
L 528.989985 -56.9131 
L 529.765631 -56.913083 
L 530.541278 -56.913067 
L 531.316924 -56.913052 
L 532.09257 -56.913037 
L 532.868217 -56.913022 
L 533.643863 -56.913008 
L 534.419509 -56.912994 
L 535.195156 -56.912981 
L 535.970802 -56.912967 
L 536.746449 -56.912955 
L 537.522095 -56.912942 
L 538.297741 -56.91293 
L 539.073388 -56.912918 
L 539.849034 -56.912907 
L 540.62468 -56.912896 
L 541.400327 -56.912885 
L 542.175973 -56.912874 
L 542.95162 -56.912864 
L 543.727266 -56.912854 
L 544.502912 -56.912845 
L 545.278559 -56.912835 
L 546.054205 -56.912826 
L 546.829851 -56.912817 
L 547.605498 -56.912808 
L 548.381144 -56.9128 
L 549.156791 -56.912792 
L 549.932437 -56.912784 
L 550.708083 -56.912776 
L 551.48373 -56.912768 
L 552.259376 -56.912761 
L 553.035022 -56.912754 
L 553.810669 -56.912747 
L 554.586315 -56.91274 
L 555.361962 -56.912734 
L 556.137608 -56.912727 
L 556.913254 -56.912721 
L 557.688901 -56.912715 
L 558.464547 -56.912709 
L 559.240193 -56.912703 
L 560.01584 -56.912698 
L 560.791486 -56.912692 
L 561.567133 -56.912687 
L 562.342779 -56.912682 
L 563.118425 -56.912677 
L 563.894072 -56.912672 
L 564.669718 -56.912668 
L 565.445364 -56.912663 
L 566.221011 -56.912659 
L 566.996657 -56.912654 
L 567.772303 -56.91265 
L 568.54795 -56.912646 
L 569.323596 -56.912642 
L 570.099243 -56.912638 
L 570.874889 -56.912634 
L 571.650535 -56.912631 
L 572.426182 -56.912627 
L 573.201828 -56.912624 
L 573.977474 -56.91262 
L 574.753121 -56.912617 
L 575.528767 -56.912614 
L 576.304414 -56.912611 
L 577.08006 -56.912608 
L 577.855706 -56.912605 
L 578.631353 -56.912602 
L 579.406999 -56.912599 
L 580.182645 -56.912596 
L 580.958292 -56.912594 
L 581.733938 -56.912591 
L 582.509585 -56.912589 
L 583.285231 -56.912586 
L 584.060877 -56.912584 
L 584.836524 -56.912581 
L 585.61217 -56.912579 
L 586.387816 -56.912577 
L 587.163463 -56.912575 
L 587.939109 -56.912573 
L 588.714756 -56.912571 
L 589.490402 -56.912569 
L 590.266048 -56.912567 
L 591.041695 -56.912565 
L 591.817341 -56.912563 
L 592.592987 -56.912562 
L 593.368634 -56.91256 
L 594.14428 -56.912558 
L 594.919927 -56.912557 
L 595.695573 -56.912555 
L 596.471219 -56.912554 
L 597.246866 -56.912552 
L 598.022512 -56.912551 
L 598.798158 -56.912549 
L 599.573805 -56.912548 
L 600.349451 -56.912547 
L 601.125097 -56.912546 
L 601.900744 -56.912544 
L 602.67639 -56.912543 
L 603.452037 -56.912542 
L 604.227683 -56.912541 
L 605.003329 -56.91254 
L 605.778976 -56.912539 
L 606.554622 -56.912537 
L 607.330268 -56.912536 
L 608.105915 -56.912535 
L 608.881561 -56.912534 
L 609.657208 -56.912534 
L 610.432854 -56.912533 
L 611.2085 -56.912532 
L 611.984147 -56.912531 
L 612.759793 -56.91253 
L 613.535439 -56.912529 
L 614.311086 -56.912528 
L 615.086732 -56.912528 
L 615.862379 -56.912527 
L 616.638025 -56.912526 
L 617.413671 -56.912525 
L 618.189318 -56.912525 
L 618.964964 -56.912524 
L 619.74061 -56.912523 
L 620.516257 -56.912523 
L 621.291903 -56.912522 
L 622.06755 -56.912522 
L 622.843196 -56.912521 
L 623.618842 -56.91252 
L 624.394489 -56.91252 
L 624.394489 -58.654671 
L 624.394489 -58.654671 
L 623.618842 -58.672219 
L 622.843196 -58.689942 
L 622.06755 -58.707844 
L 621.291903 -58.725926 
L 620.516257 -58.744189 
L 619.74061 -58.762636 
L 618.964964 -58.781268 
L 618.189318 -58.800087 
L 617.413671 -58.819096 
L 616.638025 -58.838295 
L 615.862379 -58.857687 
L 615.086732 -58.877274 
L 614.311086 -58.897057 
L 613.535439 -58.917039 
L 612.759793 -58.937222 
L 611.984147 -58.957608 
L 611.2085 -58.978198 
L 610.432854 -58.998995 
L 609.657208 -59.02 
L 608.881561 -59.041217 
L 608.105915 -59.062646 
L 607.330268 -59.084291 
L 606.554622 -59.106152 
L 605.778976 -59.128233 
L 605.003329 -59.150536 
L 604.227683 -59.173063 
L 603.452037 -59.195815 
L 602.67639 -59.218796 
L 601.900744 -59.242008 
L 601.125097 -59.265452 
L 600.349451 -59.289131 
L 599.573805 -59.313048 
L 598.798158 -59.337205 
L 598.022512 -59.361604 
L 597.246866 -59.386248 
L 596.471219 -59.411139 
L 595.695573 -59.43628 
L 594.919927 -59.461672 
L 594.14428 -59.487319 
L 593.368634 -59.513224 
L 592.592987 -59.539388 
L 591.817341 -59.565814 
L 591.041695 -59.592505 
L 590.266048 -59.619464 
L 589.490402 -59.646693 
L 588.714756 -59.674195 
L 587.939109 -59.701972 
L 587.163463 -59.730028 
L 586.387816 -59.758364 
L 585.61217 -59.786985 
L 584.836524 -59.815892 
L 584.060877 -59.845089 
L 583.285231 -59.874578 
L 582.509585 -59.904363 
L 581.733938 -59.934445 
L 580.958292 -59.964829 
L 580.182645 -59.995518 
L 579.406999 -60.026513 
L 578.631353 -60.057819 
L 577.855706 -60.089438 
L 577.08006 -60.121374 
L 576.304414 -60.153629 
L 575.528767 -60.186207 
L 574.753121 -60.219111 
L 573.977474 -60.252344 
L 573.201828 -60.285909 
L 572.426182 -60.319811 
L 571.650535 -60.354051 
L 570.874889 -60.388634 
L 570.099243 -60.423563 
L 569.323596 -60.458841 
L 568.54795 -60.494472 
L 567.772303 -60.530459 
L 566.996657 -60.566805 
L 566.221011 -60.603515 
L 565.445364 -60.640592 
L 564.669718 -60.67804 
L 563.894072 -60.715862 
L 563.118425 -60.754061 
L 562.342779 -60.792642 
L 561.567133 -60.831609 
L 560.791486 -60.870965 
L 560.01584 -60.910713 
L 559.240193 -60.950859 
L 558.464547 -60.991406 
L 557.688901 -61.032357 
L 556.913254 -61.073718 
L 556.137608 -61.115491 
L 555.361962 -61.157681 
L 554.586315 -61.200292 
L 553.810669 -61.243328 
L 553.035022 -61.286793 
L 552.259376 -61.330693 
L 551.48373 -61.37503 
L 550.708083 -61.419809 
L 549.932437 -61.465034 
L 549.156791 -61.510711 
L 548.381144 -61.556843 
L 547.605498 -61.603435 
L 546.829851 -61.650491 
L 546.054205 -61.698017 
L 545.278559 -61.746015 
L 544.502912 -61.794492 
L 543.727266 -61.843452 
L 542.95162 -61.8929 
L 542.175973 -61.94284 
L 541.400327 -61.993277 
L 540.62468 -62.044216 
L 539.849034 -62.095663 
L 539.073388 -62.147621 
L 538.297741 -62.200097 
L 537.522095 -62.253095 
L 536.746449 -62.30662 
L 535.970802 -62.360677 
L 535.195156 -62.415272 
L 534.419509 -62.47041 
L 533.643863 -62.526097 
L 532.868217 -62.582336 
L 532.09257 -62.639135 
L 531.316924 -62.696499 
L 530.541278 -62.754432 
L 529.765631 -62.812941 
L 528.989985 -62.872031 
L 528.214339 -62.931708 
L 527.438692 -62.991977 
L 526.663046 -63.052845 
L 525.887399 -63.114318 
L 525.111753 -63.1764 
L 524.336107 -63.239098 
L 523.56046 -63.302418 
L 522.784814 -63.366367 
L 522.009168 -63.43095 
L 521.233521 -63.496173 
L 520.457875 -63.562043 
L 519.682228 -63.628565 
L 518.906582 -63.695747 
L 518.130936 -63.763595 
L 517.355289 -63.832115 
L 516.579643 -63.901313 
L 515.803997 -63.971197 
L 515.02835 -64.041773 
L 514.252704 -64.113047 
L 513.477057 -64.185027 
L 512.701411 -64.257719 
L 511.925765 -64.331131 
L 511.150118 -64.405268 
L 510.374472 -64.480138 
L 509.598826 -64.555749 
L 508.823179 -64.632107 
L 508.047533 -64.70922 
L 507.271886 -64.787095 
L 506.49624 -64.865739 
L 505.720594 -64.945159 
L 504.944947 -65.025364 
L 504.169301 -65.106361 
L 503.393655 -65.188157 
L 502.618008 -65.27076 
L 501.842362 -65.354178 
L 501.066715 -65.438419 
L 500.291069 -65.52349 
L 499.515423 -65.6094 
L 498.739776 -65.696157 
L 497.96413 -65.783769 
L 497.188484 -65.872243 
L 496.412837 -65.961589 
L 495.637191 -66.051815 
L 494.861545 -66.142928 
L 494.085898 -66.234938 
L 493.310252 -66.327854 
L 492.534605 -66.421683 
L 491.758959 -66.516435 
L 490.983313 -66.612118 
L 490.207666 -66.708742 
L 489.43202 -66.806315 
L 488.656374 -66.904847 
L 487.880727 -67.004345 
L 487.105081 -67.104821 
L 486.329434 -67.206283 
L 485.553788 -67.30874 
L 484.778142 -67.412202 
L 484.002495 -67.516678 
L 483.226849 -67.622179 
L 482.451203 -67.728713 
L 481.675556 -67.836291 
L 480.89991 -67.944923 
L 480.124263 -68.054618 
L 479.348617 -68.165387 
L 478.572971 -68.277239 
L 477.797324 -68.390185 
L 477.021678 -68.504236 
L 476.246032 -68.619402 
L 475.470385 -68.735693 
L 474.694739 -68.85312 
L 473.919092 -68.971693 
L 473.143446 -69.091424 
L 472.3678 -69.212323 
L 471.592153 -69.334402 
L 470.816507 -69.457671 
L 470.040861 -69.582142 
L 469.265214 -69.707825 
L 468.489568 -69.834733 
L 467.713921 -69.962877 
L 466.938275 -70.092267 
L 466.162629 -70.222917 
L 465.386982 -70.354838 
L 464.611336 -70.488041 
L 463.83569 -70.622538 
L 463.060043 -70.758343 
L 462.284397 -70.895466 
L 461.508751 -71.03392 
L 460.733104 -71.173718 
L 459.957458 -71.314871 
L 459.181811 -71.457394 
L 458.406165 -71.601297 
L 457.630519 -71.746595 
L 456.854872 -71.893299 
L 456.079226 -72.041424 
L 455.30358 -72.190981 
L 454.527933 -72.341985 
L 453.752287 -72.494449 
L 452.97664 -72.648386 
L 452.200994 -72.803809 
L 451.425348 -72.960733 
L 450.649701 -73.119171 
L 449.874055 -73.279137 
L 449.098409 -73.440645 
L 448.322762 -73.603709 
L 447.547116 -73.768344 
L 446.771469 -73.934564 
L 445.995823 -74.102382 
L 445.220177 -74.271815 
L 444.44453 -74.442876 
L 443.668884 -74.615581 
L 442.893238 -74.789944 
L 442.117591 -74.965981 
L 441.341945 -75.143706 
L 440.566298 -75.323134 
L 439.790652 -75.504283 
L 439.015006 -75.687166 
L 438.239359 -75.871799 
L 437.463713 -76.058199 
L 436.688067 -76.246381 
L 435.91242 -76.436361 
L 435.136774 -76.628156 
L 434.361128 -76.821781 
L 433.585481 -77.017253 
L 432.809835 -77.214589 
L 432.034188 -77.413806 
L 431.258542 -77.614919 
L 430.482896 -77.817946 
L 429.707249 -78.022905 
L 428.931603 -78.229811 
L 428.155957 -78.438683 
L 427.38031 -78.649538 
L 426.604664 -78.862393 
L 425.829017 -79.077266 
L 425.053371 -79.294176 
L 424.277725 -79.513139 
L 423.502078 -79.734174 
L 422.726432 -79.957299 
L 421.950786 -80.182533 
L 421.175139 -80.409894 
L 420.399493 -80.6394 
L 419.623846 -80.871071 
L 418.8482 -81.104925 
L 418.072554 -81.340981 
L 417.296907 -81.579258 
L 416.521261 -81.819776 
L 415.745615 -82.062554 
L 414.969968 -82.307611 
L 414.194322 -82.554968 
L 413.418675 -82.804644 
L 412.643029 -83.056659 
L 411.867383 -83.311032 
L 411.091736 -83.567785 
L 410.31609 -83.826938 
L 409.540444 -84.088511 
L 408.764797 -84.352525 
L 407.989151 -84.619 
L 407.213504 -84.887957 
L 406.437858 -85.159418 
L 405.662212 -85.433403 
L 404.886565 -85.709935 
L 404.110919 -85.989033 
L 403.335273 -86.270721 
L 402.559626 -86.555019 
L 401.78398 -86.84195 
L 401.008334 -87.131535 
L 400.232687 -87.423797 
L 399.457041 -87.718758 
L 398.681394 -88.01644 
L 397.905748 -88.316866 
L 397.130102 -88.620058 
L 396.354455 -88.926039 
L 395.578809 -89.234833 
L 394.803163 -89.546462 
L 394.027516 -89.860949 
L 393.25187 -90.178318 
L 392.476223 -90.498592 
L 391.700577 -90.821795 
L 390.924931 -91.147951 
L 390.149284 -91.477083 
L 389.373638 -91.809215 
L 388.597992 -92.144372 
L 387.822345 -92.482578 
L 387.046699 -92.823856 
L 386.271052 -93.168233 
L 385.495406 -93.515732 
L 384.71976 -93.866377 
L 383.944113 -94.220195 
L 383.168467 -94.57721 
L 382.392821 -94.937446 
L 381.617174 -95.30093 
L 380.841528 -95.667687 
L 380.065881 -96.037741 
L 379.290235 -96.41112 
L 378.514589 -96.787848 
L 377.738942 -97.167951 
L 376.963296 -97.551456 
L 376.18765 -97.938388 
L 375.412003 -98.328774 
L 374.636357 -98.72264 
L 373.86071 -99.120012 
L 373.085064 -99.520916 
L 372.309418 -99.92538 
L 371.533771 -100.333431 
L 370.758125 -100.745094 
L 369.982479 -101.160397 
L 369.206832 -101.579368 
L 368.431186 -102.002032 
L 367.65554 -102.428418 
L 366.879893 -102.858552 
L 366.104247 -103.292462 
L 365.3286 -103.730176 
L 364.552954 -104.171721 
L 363.777308 -104.617125 
L 363.001661 -105.066416 
L 362.226015 -105.519621 
L 361.450369 -105.976769 
L 360.674722 -106.437886 
L 359.899076 -106.903002 
L 359.123429 -107.372145 
L 358.347783 -107.845343 
L 357.572137 -108.322623 
L 356.79649 -108.804015 
L 356.020844 -109.289547 
L 355.245198 -109.779247 
L 354.469551 -110.273143 
L 353.693905 -110.771265 
L 352.918258 -111.27364 
L 352.142612 -111.780298 
L 351.366966 -112.291268 
L 350.591319 -112.806577 
L 349.815673 -113.326254 
L 349.040027 -113.850329 
L 348.26438 -114.37883 
L 347.488734 -114.911786 
L 346.713087 -115.449226 
L 345.937441 -115.991178 
L 345.161795 -116.537672 
L 344.386148 -117.088737 
L 343.610502 -117.6444 
L 342.834856 -118.204692 
L 342.059209 -118.76964 
L 341.283563 -119.339274 
L 340.507916 -119.913623 
L 339.73227 -120.492714 
L 338.956624 -121.076578 
L 338.180977 -121.665243 
L 337.405331 -122.258737 
L 336.629685 -122.857089 
L 335.854038 -123.460328 
L 335.078392 -124.068482 
L 334.302746 -124.681579 
L 333.527099 -125.299649 
L 332.751453 -125.922719 
L 331.975806 -126.550817 
L 331.20016 -127.183973 
L 330.424514 -127.822213 
L 329.648867 -128.465566 
L 328.873221 -129.11406 
L 328.097575 -129.767722 
L 327.321928 -130.426581 
L 326.546282 -131.090663 
L 325.770635 -131.759996 
L 324.994989 -132.434608 
L 324.219343 -133.114524 
L 323.443696 -133.799774 
L 322.66805 -134.490382 
L 321.892404 -135.186376 
L 321.116757 -135.887783 
L 320.341111 -136.594628 
L 319.565464 -137.306938 
L 318.789818 -138.024738 
L 318.014172 -138.748054 
L 317.238525 -139.476912 
L 316.462879 -140.211337 
L 315.687233 -140.951354 
L 314.911586 -141.696988 
L 314.13594 -142.448263 
L 313.360293 -143.205204 
L 312.584647 -143.967834 
L 311.809001 -144.736177 
L 311.033354 -145.510257 
L 310.257708 -146.290097 
L 309.482062 -147.07572 
L 308.706415 -147.867148 
L 307.930769 -148.664404 
L 307.155122 -149.467508 
L 306.379476 -150.276484 
L 305.60383 -151.091352 
L 304.828183 -151.912133 
L 304.052537 -152.738847 
L 303.276891 -153.571515 
L 302.501244 -154.410155 
L 301.725598 -155.254788 
L 300.949952 -156.105432 
L 300.174305 -156.962106 
L 299.398659 -157.824828 
L 298.623012 -158.693614 
L 297.847366 -159.568483 
L 297.07172 -160.449451 
L 296.296073 -161.336534 
L 295.520427 -162.229747 
L 294.744781 -163.129106 
L 293.969134 -164.034625 
L 293.193488 -164.946318 
L 292.417841 -165.864199 
L 291.642195 -166.788281 
L 290.866549 -167.718576 
L 290.090902 -168.655096 
L 289.315256 -169.597853 
L 288.53961 -170.546856 
L 287.763963 -171.502116 
L 286.988317 -172.463641 
L 286.21267 -173.431442 
L 285.437024 -174.405526 
L 284.661378 -175.3859 
L 283.885731 -176.37257 
L 283.110085 -177.365544 
L 282.334439 -178.364826 
L 281.558792 -179.37042 
L 280.783146 -180.382332 
L 280.007499 -181.400562 
L 279.231853 -182.425115 
L 278.456207 -183.455991 
L 277.68056 -184.493191 
L 276.904914 -185.536716 
L 276.129268 -186.586563 
L 275.353621 -187.642732 
L 274.577975 -188.705219 
L 273.802329 -189.774022 
L 273.026682 -190.849136 
L 272.251036 -191.930556 
L 271.475389 -193.018275 
L 270.699743 -194.112287 
L 269.924097 -195.212584 
L 269.14845 -196.319156 
L 268.372804 -197.431993 
L 267.597158 -198.551086 
L 266.821511 -199.676422 
L 266.045865 -200.807987 
L 265.270218 -201.945769 
L 264.494572 -203.089753 
L 263.718926 -204.239921 
L 262.943279 -205.396258 
L 262.167633 -206.558745 
L 261.391987 -207.727363 
L 260.61634 -208.902091 
L 259.840694 -210.082909 
L 259.065047 -211.269794 
L 258.289401 -212.462721 
L 257.513755 -213.661667 
L 256.738108 -214.866605 
L 255.962462 -216.077507 
L 255.186816 -217.294347 
L 254.411169 -218.517093 
L 253.635523 -219.745715 
L 252.859876 -220.980181 
L 252.08423 -222.220458 
L 251.308584 -223.466511 
L 250.532937 -224.718305 
L 249.757291 -225.975801 
L 248.981645 -227.238963 
L 248.205998 -228.507749 
L 247.430352 -229.782119 
L 246.654705 -231.062031 
L 245.879059 -232.347441 
L 245.103413 -233.638303 
L 244.327766 -234.934572 
L 243.55212 -236.236199 
L 242.776474 -237.543135 
L 242.000827 -238.85533 
L 241.225181 -240.172732 
L 240.449535 -241.495287 
L 239.673888 -242.82294 
L 238.898242 -244.155636 
L 238.122595 -245.493316 
L 237.346949 -246.83592 
L 236.571303 -248.18339 
L 235.795656 -249.535662 
L 235.02001 -250.892672 
L 234.244364 -252.254357 
L 233.468717 -253.620648 
L 232.693071 -254.991479 
L 231.917424 -256.366779 
L 231.141778 -257.746478 
L 230.366132 -259.130502 
L 229.590485 -260.518778 
L 228.814839 -261.91123 
L 228.039193 -263.307781 
L 227.263546 -264.708352 
L 226.4879 -266.112863 
L 225.712253 -267.521231 
L 224.936607 -268.933374 
L 224.160961 -270.349206 
L 223.385314 -271.768641 
L 222.609668 -273.191591 
L 221.834022 -274.617965 
L 221.058375 -276.047673 
L 220.282729 -277.480621 
L 219.507082 -278.916715 
L 218.731436 -280.355859 
L 217.95579 -281.797956 
L 217.180143 -283.242904 
L 216.404497 -284.690604 
L 215.628851 -286.140953 
L 214.853204 -287.593847 
L 214.077558 -289.049179 
L 213.301911 -290.506842 
L 212.526265 -291.966726 
L 211.750619 -293.428721 
L 210.974972 -294.892713 
L 210.199326 -296.358589 
L 209.42368 -297.826232 
L 208.648033 -299.295524 
L 207.872387 -300.766345 
L 207.096741 -302.238574 
L 206.321094 -303.712088 
L 205.545448 -305.186762 
L 204.769801 -306.662468 
L 203.994155 -308.139078 
L 203.218509 -309.61646 
L 202.442862 -311.094483 
L 201.667216 -312.573012 
L 200.89157 -314.051909 
L 200.115923 -315.531036 
L 199.340277 -317.010252 
L 198.56463 -318.489415 
L 197.788984 -319.968377 
L 197.013338 -321.446993 
L 196.237691 -322.925111 
L 195.462045 -324.40258 
L 194.686399 -325.879244 
L 193.910752 -327.354945 
L 193.135106 -328.829524 
L 192.359459 -330.302817 
L 191.583813 -331.774658 
L 190.808167 -333.244877 
L 190.03252 -334.713303 
L 189.256874 -336.179759 
L 188.481228 -337.644065 
L 187.705581 -339.10604 
L 186.929935 -340.565495 
L 186.154288 -342.02224 
L 185.378642 -343.476079 
L 184.602996 -344.926811 
L 183.827349 -346.374233 
L 183.051703 -347.818134 
L 182.276057 -349.258299 
L 181.50041 -350.694506 
L 180.724764 -352.126528 
L 179.949117 -353.554131 
L 179.173471 -354.977074 
L 178.397825 -356.395108 
L 177.622178 -357.807979 
L 176.846532 -359.21542 
L 176.070886 -360.617159 
L 175.295239 -362.012913 
L 174.519593 -363.402387 
L 173.743947 -364.785279 
L 172.9683 -366.16127 
L 172.192654 -367.530034 
L 171.417007 -368.891227 
L 170.641361 -370.244492 
L 169.865715 -371.589459 
L 169.090068 -372.925737 
L 168.314422 -374.25292 
L 167.538776 -375.570581 
L 166.763129 -376.878275 
L 165.987483 -378.17553 
L 165.211836 -379.461855 
L 164.43619 -380.73673 
L 163.660544 -381.999607 
L 162.884897 -383.249908 
L 162.109251 -384.487024 
L 161.333605 -385.710309 
L 160.557958 -386.919077 
L 159.782312 -388.112604 
L 159.006665 -389.290118 
L 158.231019 -390.450797 
L 157.455373 -391.59377 
L 156.679726 -392.718101 
L 155.90408 -393.822796 
L 155.128434 -394.906787 
L 154.352787 -395.968931 
L 153.577141 -397.008001 
L 152.801494 -398.022677 
L 152.025848 -399.011537 
L 151.250202 -399.973045 
L 150.474555 -400.905541 
L 149.698909 -401.807226 
L 148.923263 -402.676144 
L 148.147616 -403.510169 
L 147.37197 -404.306978 
L 146.596323 -405.064035 
L 145.820677 -405.778554 
L 145.045031 -406.447475 
L 144.269384 -407.067422 
L 143.493738 -407.634662 
L 142.718092 -408.145053 
L 141.942445 -408.593985 
L 141.166799 -408.976309 
L 140.391153 -409.286253 
L 139.615506 -409.517322 
L 138.83986 -409.662178 
L 138.064213 -409.7125 
L 137.288567 -409.658805 
L 136.512921 -409.577839 
L 135.737274 -409.696968 
L 134.961628 -409.696353 
L 134.185982 -409.561196 
L 133.410335 -409.636868 
L 132.634689 -409.7125 
L 131.859042 -409.62929 
L 131.083396 -409.500824 
L 130.30775 -409.687577 
L 129.532103 -409.686013 
L 128.756457 -409.458337 
L 127.980811 -409.583071 
L 127.205164 -409.7125 
L 126.429518 -409.56004 
L 125.653871 -409.045207 
L 124.878225 -408.058996 
L 124.102579 -406.450828 
L 123.326932 -404.007757 
L 122.551286 -400.420135 
L 121.77564 -395.22262 
L 120.999993 -387.688131 
L 120.224347 -376.626809 
L 119.4487 -359.980295 
L 118.673054 -333.938432 
L 117.897408 -290.827193 
L 117.121761 -213.415884 
z
" style="stroke: #008000; stroke-opacity: 0.3"/>
    </defs>
    <g clip-path="url(#p8b728f09fe)">
     <use xlink:href="#mdc5235e6ec" x="0" y="473.389375" style="fill: #008000; fill-opacity: 0.3; stroke: #008000; stroke-opacity: 0.3"/>
    </g>
   </g>
   <g id="matplotlib.axis_1">
    <g id="xtick_1">
     <g id="line2d_1">
      <defs>
       <path id="ma2ca2a514b" d="M 0 0 
L 0 3.5 
" style="stroke: #000000; stroke-width: 0.8"/>
      </defs>
      <g>
       <use xlink:href="#ma2ca2a514b" x="116.346115" y="416.476875" style="stroke: #000000; stroke-width: 0.8"/>
      </g>
     </g>
     <g id="text_1">
      <!-- 0 -->
      <g transform="translate(109.983615 438.67375) scale(0.2 -0.2)">
       <defs>
        <path id="DejaVuSans-30" d="M 2034 4250 
Q 1547 4250 1301 3770 
Q 1056 3291 1056 2328 
Q 1056 1369 1301 889 
Q 1547 409 2034 409 
Q 2525 409 2770 889 
Q 3016 1369 3016 2328 
Q 3016 3291 2770 3770 
Q 2525 4250 2034 4250 
z
M 2034 4750 
Q 2819 4750 3233 4129 
Q 3647 3509 3647 2328 
Q 3647 1150 3233 529 
Q 2819 -91 2034 -91 
Q 1250 -91 836 529 
Q 422 1150 422 2328 
Q 422 3509 836 4129 
Q 1250 4750 2034 4750 
z
" transform="scale(0.015625)"/>
       </defs>
       <use xlink:href="#DejaVuSans-30"/>
      </g>
     </g>
    </g>
    <g id="xtick_2">
     <g id="line2d_2">
      <g>
       <use xlink:href="#ma2ca2a514b" x="193.910752" y="416.476875" style="stroke: #000000; stroke-width: 0.8"/>
      </g>
     </g>
     <g id="text_2">
      <!-- 100 -->
      <g transform="translate(174.823252 438.67375) scale(0.2 -0.2)">
       <defs>
        <path id="DejaVuSans-31" d="M 794 531 
L 1825 531 
L 1825 4091 
L 703 3866 
L 703 4441 
L 1819 4666 
L 2450 4666 
L 2450 531 
L 3481 531 
L 3481 0 
L 794 0 
L 794 531 
z
" transform="scale(0.015625)"/>
       </defs>
       <use xlink:href="#DejaVuSans-31"/>
       <use xlink:href="#DejaVuSans-30" x="63.623047"/>
       <use xlink:href="#DejaVuSans-30" x="127.246094"/>
      </g>
     </g>
    </g>
    <g id="xtick_3">
     <g id="line2d_3">
      <g>
       <use xlink:href="#ma2ca2a514b" x="271.475389" y="416.476875" style="stroke: #000000; stroke-width: 0.8"/>
      </g>
     </g>
     <g id="text_3">
      <!-- 200 -->
      <g transform="translate(252.387889 438.67375) scale(0.2 -0.2)">
       <defs>
        <path id="DejaVuSans-32" d="M 1228 531 
L 3431 531 
L 3431 0 
L 469 0 
L 469 531 
Q 828 903 1448 1529 
Q 2069 2156 2228 2338 
Q 2531 2678 2651 2914 
Q 2772 3150 2772 3378 
Q 2772 3750 2511 3984 
Q 2250 4219 1831 4219 
Q 1534 4219 1204 4116 
Q 875 4013 500 3803 
L 500 4441 
Q 881 4594 1212 4672 
Q 1544 4750 1819 4750 
Q 2544 4750 2975 4387 
Q 3406 4025 3406 3419 
Q 3406 3131 3298 2873 
Q 3191 2616 2906 2266 
Q 2828 2175 2409 1742 
Q 1991 1309 1228 531 
z
" transform="scale(0.015625)"/>
       </defs>
       <use xlink:href="#DejaVuSans-32"/>
       <use xlink:href="#DejaVuSans-30" x="63.623047"/>
       <use xlink:href="#DejaVuSans-30" x="127.246094"/>
      </g>
     </g>
    </g>
    <g id="xtick_4">
     <g id="line2d_4">
      <g>
       <use xlink:href="#ma2ca2a514b" x="349.040027" y="416.476875" style="stroke: #000000; stroke-width: 0.8"/>
      </g>
     </g>
     <g id="text_4">
      <!-- 300 -->
      <g transform="translate(329.952527 438.67375) scale(0.2 -0.2)">
       <defs>
        <path id="DejaVuSans-33" d="M 2597 2516 
Q 3050 2419 3304 2112 
Q 3559 1806 3559 1356 
Q 3559 666 3084 287 
Q 2609 -91 1734 -91 
Q 1441 -91 1130 -33 
Q 819 25 488 141 
L 488 750 
Q 750 597 1062 519 
Q 1375 441 1716 441 
Q 2309 441 2620 675 
Q 2931 909 2931 1356 
Q 2931 1769 2642 2001 
Q 2353 2234 1838 2234 
L 1294 2234 
L 1294 2753 
L 1863 2753 
Q 2328 2753 2575 2939 
Q 2822 3125 2822 3475 
Q 2822 3834 2567 4026 
Q 2313 4219 1838 4219 
Q 1578 4219 1281 4162 
Q 984 4106 628 3988 
L 628 4550 
Q 988 4650 1302 4700 
Q 1616 4750 1894 4750 
Q 2613 4750 3031 4423 
Q 3450 4097 3450 3541 
Q 3450 3153 3228 2886 
Q 3006 2619 2597 2516 
z
" transform="scale(0.015625)"/>
       </defs>
       <use xlink:href="#DejaVuSans-33"/>
       <use xlink:href="#DejaVuSans-30" x="63.623047"/>
       <use xlink:href="#DejaVuSans-30" x="127.246094"/>
      </g>
     </g>
    </g>
    <g id="xtick_5">
     <g id="line2d_5">
      <g>
       <use xlink:href="#ma2ca2a514b" x="426.604664" y="416.476875" style="stroke: #000000; stroke-width: 0.8"/>
      </g>
     </g>
     <g id="text_5">
      <!-- 400 -->
      <g transform="translate(407.517164 438.67375) scale(0.2 -0.2)">
       <defs>
        <path id="DejaVuSans-34" d="M 2419 4116 
L 825 1625 
L 2419 1625 
L 2419 4116 
z
M 2253 4666 
L 3047 4666 
L 3047 1625 
L 3713 1625 
L 3713 1100 
L 3047 1100 
L 3047 0 
L 2419 0 
L 2419 1100 
L 313 1100 
L 313 1709 
L 2253 4666 
z
" transform="scale(0.015625)"/>
       </defs>
       <use xlink:href="#DejaVuSans-34"/>
       <use xlink:href="#DejaVuSans-30" x="63.623047"/>
       <use xlink:href="#DejaVuSans-30" x="127.246094"/>
      </g>
     </g>
    </g>
    <g id="xtick_6">
     <g id="line2d_6">
      <g>
       <use xlink:href="#ma2ca2a514b" x="504.169301" y="416.476875" style="stroke: #000000; stroke-width: 0.8"/>
      </g>
     </g>
     <g id="text_6">
      <!-- 500 -->
      <g transform="translate(485.081801 438.67375) scale(0.2 -0.2)">
       <defs>
        <path id="DejaVuSans-35" d="M 691 4666 
L 3169 4666 
L 3169 4134 
L 1269 4134 
L 1269 2991 
Q 1406 3038 1543 3061 
Q 1681 3084 1819 3084 
Q 2600 3084 3056 2656 
Q 3513 2228 3513 1497 
Q 3513 744 3044 326 
Q 2575 -91 1722 -91 
Q 1428 -91 1123 -41 
Q 819 9 494 109 
L 494 744 
Q 775 591 1075 516 
Q 1375 441 1709 441 
Q 2250 441 2565 725 
Q 2881 1009 2881 1497 
Q 2881 1984 2565 2268 
Q 2250 2553 1709 2553 
Q 1456 2553 1204 2497 
Q 953 2441 691 2322 
L 691 4666 
z
" transform="scale(0.015625)"/>
       </defs>
       <use xlink:href="#DejaVuSans-35"/>
       <use xlink:href="#DejaVuSans-30" x="63.623047"/>
       <use xlink:href="#DejaVuSans-30" x="127.246094"/>
      </g>
     </g>
    </g>
    <g id="xtick_7">
     <g id="line2d_7">
      <g>
       <use xlink:href="#ma2ca2a514b" x="581.733938" y="416.476875" style="stroke: #000000; stroke-width: 0.8"/>
      </g>
     </g>
     <g id="text_7">
      <!-- 600 -->
      <g transform="translate(562.646438 438.67375) scale(0.2 -0.2)">
       <defs>
        <path id="DejaVuSans-36" d="M 2113 2584 
Q 1688 2584 1439 2293 
Q 1191 2003 1191 1497 
Q 1191 994 1439 701 
Q 1688 409 2113 409 
Q 2538 409 2786 701 
Q 3034 994 3034 1497 
Q 3034 2003 2786 2293 
Q 2538 2584 2113 2584 
z
M 3366 4563 
L 3366 3988 
Q 3128 4100 2886 4159 
Q 2644 4219 2406 4219 
Q 1781 4219 1451 3797 
Q 1122 3375 1075 2522 
Q 1259 2794 1537 2939 
Q 1816 3084 2150 3084 
Q 2853 3084 3261 2657 
Q 3669 2231 3669 1497 
Q 3669 778 3244 343 
Q 2819 -91 2113 -91 
Q 1303 -91 875 529 
Q 447 1150 447 2328 
Q 447 3434 972 4092 
Q 1497 4750 2381 4750 
Q 2619 4750 2861 4703 
Q 3103 4656 3366 4563 
z
" transform="scale(0.015625)"/>
       </defs>
       <use xlink:href="#DejaVuSans-36"/>
       <use xlink:href="#DejaVuSans-30" x="63.623047"/>
       <use xlink:href="#DejaVuSans-30" x="127.246094"/>
      </g>
     </g>
    </g>
    <g id="text_8">
     <!-- Days since antigen exposure -->
     <g transform="translate(226.337813 462.03) scale(0.2 -0.2)">
      <defs>
       <path id="DejaVuSans-44" d="M 1259 4147 
L 1259 519 
L 2022 519 
Q 2988 519 3436 956 
Q 3884 1394 3884 2338 
Q 3884 3275 3436 3711 
Q 2988 4147 2022 4147 
L 1259 4147 
z
M 628 4666 
L 1925 4666 
Q 3281 4666 3915 4102 
Q 4550 3538 4550 2338 
Q 4550 1131 3912 565 
Q 3275 0 1925 0 
L 628 0 
L 628 4666 
z
" transform="scale(0.015625)"/>
       <path id="DejaVuSans-61" d="M 2194 1759 
Q 1497 1759 1228 1600 
Q 959 1441 959 1056 
Q 959 750 1161 570 
Q 1363 391 1709 391 
Q 2188 391 2477 730 
Q 2766 1069 2766 1631 
L 2766 1759 
L 2194 1759 
z
M 3341 1997 
L 3341 0 
L 2766 0 
L 2766 531 
Q 2569 213 2275 61 
Q 1981 -91 1556 -91 
Q 1019 -91 701 211 
Q 384 513 384 1019 
Q 384 1609 779 1909 
Q 1175 2209 1959 2209 
L 2766 2209 
L 2766 2266 
Q 2766 2663 2505 2880 
Q 2244 3097 1772 3097 
Q 1472 3097 1187 3025 
Q 903 2953 641 2809 
L 641 3341 
Q 956 3463 1253 3523 
Q 1550 3584 1831 3584 
Q 2591 3584 2966 3190 
Q 3341 2797 3341 1997 
z
" transform="scale(0.015625)"/>
       <path id="DejaVuSans-79" d="M 2059 -325 
Q 1816 -950 1584 -1140 
Q 1353 -1331 966 -1331 
L 506 -1331 
L 506 -850 
L 844 -850 
Q 1081 -850 1212 -737 
Q 1344 -625 1503 -206 
L 1606 56 
L 191 3500 
L 800 3500 
L 1894 763 
L 2988 3500 
L 3597 3500 
L 2059 -325 
z
" transform="scale(0.015625)"/>
       <path id="DejaVuSans-73" d="M 2834 3397 
L 2834 2853 
Q 2591 2978 2328 3040 
Q 2066 3103 1784 3103 
Q 1356 3103 1142 2972 
Q 928 2841 928 2578 
Q 928 2378 1081 2264 
Q 1234 2150 1697 2047 
L 1894 2003 
Q 2506 1872 2764 1633 
Q 3022 1394 3022 966 
Q 3022 478 2636 193 
Q 2250 -91 1575 -91 
Q 1294 -91 989 -36 
Q 684 19 347 128 
L 347 722 
Q 666 556 975 473 
Q 1284 391 1588 391 
Q 1994 391 2212 530 
Q 2431 669 2431 922 
Q 2431 1156 2273 1281 
Q 2116 1406 1581 1522 
L 1381 1569 
Q 847 1681 609 1914 
Q 372 2147 372 2553 
Q 372 3047 722 3315 
Q 1072 3584 1716 3584 
Q 2034 3584 2315 3537 
Q 2597 3491 2834 3397 
z
" transform="scale(0.015625)"/>
       <path id="DejaVuSans-20" transform="scale(0.015625)"/>
       <path id="DejaVuSans-69" d="M 603 3500 
L 1178 3500 
L 1178 0 
L 603 0 
L 603 3500 
z
M 603 4863 
L 1178 4863 
L 1178 4134 
L 603 4134 
L 603 4863 
z
" transform="scale(0.015625)"/>
       <path id="DejaVuSans-6e" d="M 3513 2113 
L 3513 0 
L 2938 0 
L 2938 2094 
Q 2938 2591 2744 2837 
Q 2550 3084 2163 3084 
Q 1697 3084 1428 2787 
Q 1159 2491 1159 1978 
L 1159 0 
L 581 0 
L 581 3500 
L 1159 3500 
L 1159 2956 
Q 1366 3272 1645 3428 
Q 1925 3584 2291 3584 
Q 2894 3584 3203 3211 
Q 3513 2838 3513 2113 
z
" transform="scale(0.015625)"/>
       <path id="DejaVuSans-63" d="M 3122 3366 
L 3122 2828 
Q 2878 2963 2633 3030 
Q 2388 3097 2138 3097 
Q 1578 3097 1268 2742 
Q 959 2388 959 1747 
Q 959 1106 1268 751 
Q 1578 397 2138 397 
Q 2388 397 2633 464 
Q 2878 531 3122 666 
L 3122 134 
Q 2881 22 2623 -34 
Q 2366 -91 2075 -91 
Q 1284 -91 818 406 
Q 353 903 353 1747 
Q 353 2603 823 3093 
Q 1294 3584 2113 3584 
Q 2378 3584 2631 3529 
Q 2884 3475 3122 3366 
z
" transform="scale(0.015625)"/>
       <path id="DejaVuSans-65" d="M 3597 1894 
L 3597 1613 
L 953 1613 
Q 991 1019 1311 708 
Q 1631 397 2203 397 
Q 2534 397 2845 478 
Q 3156 559 3463 722 
L 3463 178 
Q 3153 47 2828 -22 
Q 2503 -91 2169 -91 
Q 1331 -91 842 396 
Q 353 884 353 1716 
Q 353 2575 817 3079 
Q 1281 3584 2069 3584 
Q 2775 3584 3186 3129 
Q 3597 2675 3597 1894 
z
M 3022 2063 
Q 3016 2534 2758 2815 
Q 2500 3097 2075 3097 
Q 1594 3097 1305 2825 
Q 1016 2553 972 2059 
L 3022 2063 
z
" transform="scale(0.015625)"/>
       <path id="DejaVuSans-74" d="M 1172 4494 
L 1172 3500 
L 2356 3500 
L 2356 3053 
L 1172 3053 
L 1172 1153 
Q 1172 725 1289 603 
Q 1406 481 1766 481 
L 2356 481 
L 2356 0 
L 1766 0 
Q 1100 0 847 248 
Q 594 497 594 1153 
L 594 3053 
L 172 3053 
L 172 3500 
L 594 3500 
L 594 4494 
L 1172 4494 
z
" transform="scale(0.015625)"/>
       <path id="DejaVuSans-67" d="M 2906 1791 
Q 2906 2416 2648 2759 
Q 2391 3103 1925 3103 
Q 1463 3103 1205 2759 
Q 947 2416 947 1791 
Q 947 1169 1205 825 
Q 1463 481 1925 481 
Q 2391 481 2648 825 
Q 2906 1169 2906 1791 
z
M 3481 434 
Q 3481 -459 3084 -895 
Q 2688 -1331 1869 -1331 
Q 1566 -1331 1297 -1286 
Q 1028 -1241 775 -1147 
L 775 -588 
Q 1028 -725 1275 -790 
Q 1522 -856 1778 -856 
Q 2344 -856 2625 -561 
Q 2906 -266 2906 331 
L 2906 616 
Q 2728 306 2450 153 
Q 2172 0 1784 0 
Q 1141 0 747 490 
Q 353 981 353 1791 
Q 353 2603 747 3093 
Q 1141 3584 1784 3584 
Q 2172 3584 2450 3431 
Q 2728 3278 2906 2969 
L 2906 3500 
L 3481 3500 
L 3481 434 
z
" transform="scale(0.015625)"/>
       <path id="DejaVuSans-78" d="M 3513 3500 
L 2247 1797 
L 3578 0 
L 2900 0 
L 1881 1375 
L 863 0 
L 184 0 
L 1544 1831 
L 300 3500 
L 978 3500 
L 1906 2253 
L 2834 3500 
L 3513 3500 
z
" transform="scale(0.015625)"/>
       <path id="DejaVuSans-70" d="M 1159 525 
L 1159 -1331 
L 581 -1331 
L 581 3500 
L 1159 3500 
L 1159 2969 
Q 1341 3281 1617 3432 
Q 1894 3584 2278 3584 
Q 2916 3584 3314 3078 
Q 3713 2572 3713 1747 
Q 3713 922 3314 415 
Q 2916 -91 2278 -91 
Q 1894 -91 1617 61 
Q 1341 213 1159 525 
z
M 3116 1747 
Q 3116 2381 2855 2742 
Q 2594 3103 2138 3103 
Q 1681 3103 1420 2742 
Q 1159 2381 1159 1747 
Q 1159 1113 1420 752 
Q 1681 391 2138 391 
Q 2594 391 2855 752 
Q 3116 1113 3116 1747 
z
" transform="scale(0.015625)"/>
       <path id="DejaVuSans-6f" d="M 1959 3097 
Q 1497 3097 1228 2736 
Q 959 2375 959 1747 
Q 959 1119 1226 758 
Q 1494 397 1959 397 
Q 2419 397 2687 759 
Q 2956 1122 2956 1747 
Q 2956 2369 2687 2733 
Q 2419 3097 1959 3097 
z
M 1959 3584 
Q 2709 3584 3137 3096 
Q 3566 2609 3566 1747 
Q 3566 888 3137 398 
Q 2709 -91 1959 -91 
Q 1206 -91 779 398 
Q 353 888 353 1747 
Q 353 2609 779 3096 
Q 1206 3584 1959 3584 
z
" transform="scale(0.015625)"/>
       <path id="DejaVuSans-75" d="M 544 1381 
L 544 3500 
L 1119 3500 
L 1119 1403 
Q 1119 906 1312 657 
Q 1506 409 1894 409 
Q 2359 409 2629 706 
Q 2900 1003 2900 1516 
L 2900 3500 
L 3475 3500 
L 3475 0 
L 2900 0 
L 2900 538 
Q 2691 219 2414 64 
Q 2138 -91 1772 -91 
Q 1169 -91 856 284 
Q 544 659 544 1381 
z
M 1991 3584 
L 1991 3584 
z
" transform="scale(0.015625)"/>
       <path id="DejaVuSans-72" d="M 2631 2963 
Q 2534 3019 2420 3045 
Q 2306 3072 2169 3072 
Q 1681 3072 1420 2755 
Q 1159 2438 1159 1844 
L 1159 0 
L 581 0 
L 581 3500 
L 1159 3500 
L 1159 2956 
Q 1341 3275 1631 3429 
Q 1922 3584 2338 3584 
Q 2397 3584 2469 3576 
Q 2541 3569 2628 3553 
L 2631 2963 
z
" transform="scale(0.015625)"/>
      </defs>
      <use xlink:href="#DejaVuSans-44"/>
      <use xlink:href="#DejaVuSans-61" x="77.001953"/>
      <use xlink:href="#DejaVuSans-79" x="138.28125"/>
      <use xlink:href="#DejaVuSans-73" x="197.460938"/>
      <use xlink:href="#DejaVuSans-20" x="249.560547"/>
      <use xlink:href="#DejaVuSans-73" x="281.347656"/>
      <use xlink:href="#DejaVuSans-69" x="333.447266"/>
      <use xlink:href="#DejaVuSans-6e" x="361.230469"/>
      <use xlink:href="#DejaVuSans-63" x="424.609375"/>
      <use xlink:href="#DejaVuSans-65" x="479.589844"/>
      <use xlink:href="#DejaVuSans-20" x="541.113281"/>
      <use xlink:href="#DejaVuSans-61" x="572.900391"/>
      <use xlink:href="#DejaVuSans-6e" x="634.179688"/>
      <use xlink:href="#DejaVuSans-74" x="697.558594"/>
      <use xlink:href="#DejaVuSans-69" x="736.767578"/>
      <use xlink:href="#DejaVuSans-67" x="764.550781"/>
      <use xlink:href="#DejaVuSans-65" x="828.027344"/>
      <use xlink:href="#DejaVuSans-6e" x="889.550781"/>
      <use xlink:href="#DejaVuSans-20" x="952.929688"/>
      <use xlink:href="#DejaVuSans-65" x="984.716797"/>
      <use xlink:href="#DejaVuSans-78" x="1044.490234"/>
      <use xlink:href="#DejaVuSans-70" x="1103.669922"/>
      <use xlink:href="#DejaVuSans-6f" x="1167.146484"/>
      <use xlink:href="#DejaVuSans-73" x="1228.328125"/>
      <use xlink:href="#DejaVuSans-75" x="1280.427734"/>
      <use xlink:href="#DejaVuSans-72" x="1343.806641"/>
      <use xlink:href="#DejaVuSans-65" x="1382.669922"/>
     </g>
    </g>
   </g>
   <g id="matplotlib.axis_2">
    <g id="ytick_1">
     <g id="line2d_8">
      <defs>
       <path id="md7559572bb" d="M 0 0 
L -3.5 0 
" style="stroke: #000000; stroke-width: 0.8"/>
      </defs>
      <g>
       <use xlink:href="#md7559572bb" x="91.758125" y="416.476875" style="stroke: #000000; stroke-width: 0.8"/>
      </g>
     </g>
     <g id="text_9">
      <!-- 0.0 -->
      <g transform="translate(52.951875 424.075312) scale(0.2 -0.2)">
       <defs>
        <path id="DejaVuSans-2e" d="M 684 794 
L 1344 794 
L 1344 0 
L 684 0 
L 684 794 
z
" transform="scale(0.015625)"/>
       </defs>
       <use xlink:href="#DejaVuSans-30"/>
       <use xlink:href="#DejaVuSans-2e" x="63.623047"/>
       <use xlink:href="#DejaVuSans-30" x="95.410156"/>
      </g>
     </g>
    </g>
    <g id="ytick_2">
     <g id="line2d_9">
      <g>
       <use xlink:href="#md7559572bb" x="91.758125" y="330.30632" style="stroke: #000000; stroke-width: 0.8"/>
      </g>
     </g>
     <g id="text_10">
      <!-- 0.2 -->
      <g transform="translate(52.951875 337.904758) scale(0.2 -0.2)">
       <use xlink:href="#DejaVuSans-30"/>
       <use xlink:href="#DejaVuSans-2e" x="63.623047"/>
       <use xlink:href="#DejaVuSans-32" x="95.410156"/>
      </g>
     </g>
    </g>
    <g id="ytick_3">
     <g id="line2d_10">
      <g>
       <use xlink:href="#md7559572bb" x="91.758125" y="244.135766" style="stroke: #000000; stroke-width: 0.8"/>
      </g>
     </g>
     <g id="text_11">
      <!-- 0.4 -->
      <g transform="translate(52.951875 251.734203) scale(0.2 -0.2)">
       <use xlink:href="#DejaVuSans-30"/>
       <use xlink:href="#DejaVuSans-2e" x="63.623047"/>
       <use xlink:href="#DejaVuSans-34" x="95.410156"/>
      </g>
     </g>
    </g>
    <g id="ytick_4">
     <g id="line2d_11">
      <g>
       <use xlink:href="#md7559572bb" x="91.758125" y="157.965211" style="stroke: #000000; stroke-width: 0.8"/>
      </g>
     </g>
     <g id="text_12">
      <!-- 0.6 -->
      <g transform="translate(52.951875 165.563649) scale(0.2 -0.2)">
       <use xlink:href="#DejaVuSans-30"/>
       <use xlink:href="#DejaVuSans-2e" x="63.623047"/>
       <use xlink:href="#DejaVuSans-36" x="95.410156"/>
      </g>
     </g>
    </g>
    <g id="ytick_5">
     <g id="line2d_12">
      <g>
       <use xlink:href="#md7559572bb" x="91.758125" y="71.794656" style="stroke: #000000; stroke-width: 0.8"/>
      </g>
     </g>
     <g id="text_13">
      <!-- 0.8 -->
      <g transform="translate(52.951875 79.393094) scale(0.2 -0.2)">
       <defs>
        <path id="DejaVuSans-38" d="M 2034 2216 
Q 1584 2216 1326 1975 
Q 1069 1734 1069 1313 
Q 1069 891 1326 650 
Q 1584 409 2034 409 
Q 2484 409 2743 651 
Q 3003 894 3003 1313 
Q 3003 1734 2745 1975 
Q 2488 2216 2034 2216 
z
M 1403 2484 
Q 997 2584 770 2862 
Q 544 3141 544 3541 
Q 544 4100 942 4425 
Q 1341 4750 2034 4750 
Q 2731 4750 3128 4425 
Q 3525 4100 3525 3541 
Q 3525 3141 3298 2862 
Q 3072 2584 2669 2484 
Q 3125 2378 3379 2068 
Q 3634 1759 3634 1313 
Q 3634 634 3220 271 
Q 2806 -91 2034 -91 
Q 1263 -91 848 271 
Q 434 634 434 1313 
Q 434 1759 690 2068 
Q 947 2378 1403 2484 
z
M 1172 3481 
Q 1172 3119 1398 2916 
Q 1625 2713 2034 2713 
Q 2441 2713 2670 2916 
Q 2900 3119 2900 3481 
Q 2900 3844 2670 4047 
Q 2441 4250 2034 4250 
Q 1625 4250 1398 4047 
Q 1172 3844 1172 3481 
z
" transform="scale(0.015625)"/>
       </defs>
       <use xlink:href="#DejaVuSans-30"/>
       <use xlink:href="#DejaVuSans-2e" x="63.623047"/>
       <use xlink:href="#DejaVuSans-38" x="95.410156"/>
      </g>
     </g>
    </g>
    <g id="text_14">
     <!-- Virus neutralization -->
     <g transform="translate(22.396875 319.741562) rotate(-90) scale(0.2 -0.2)">
      <defs>
       <path id="DejaVuSans-56" d="M 1831 0 
L 50 4666 
L 709 4666 
L 2188 738 
L 3669 4666 
L 4325 4666 
L 2547 0 
L 1831 0 
z
" transform="scale(0.015625)"/>
       <path id="DejaVuSans-6c" d="M 603 4863 
L 1178 4863 
L 1178 0 
L 603 0 
L 603 4863 
z
" transform="scale(0.015625)"/>
       <path id="DejaVuSans-7a" d="M 353 3500 
L 3084 3500 
L 3084 2975 
L 922 459 
L 3084 459 
L 3084 0 
L 275 0 
L 275 525 
L 2438 3041 
L 353 3041 
L 353 3500 
z
" transform="scale(0.015625)"/>
      </defs>
      <use xlink:href="#DejaVuSans-56"/>
      <use xlink:href="#DejaVuSans-69" x="66.158203"/>
      <use xlink:href="#DejaVuSans-72" x="93.941406"/>
      <use xlink:href="#DejaVuSans-75" x="135.054688"/>
      <use xlink:href="#DejaVuSans-73" x="198.433594"/>
      <use xlink:href="#DejaVuSans-20" x="250.533203"/>
      <use xlink:href="#DejaVuSans-6e" x="282.320312"/>
      <use xlink:href="#DejaVuSans-65" x="345.699219"/>
      <use xlink:href="#DejaVuSans-75" x="407.222656"/>
      <use xlink:href="#DejaVuSans-74" x="470.601562"/>
      <use xlink:href="#DejaVuSans-72" x="509.810547"/>
      <use xlink:href="#DejaVuSans-61" x="550.923828"/>
      <use xlink:href="#DejaVuSans-6c" x="612.203125"/>
      <use xlink:href="#DejaVuSans-69" x="639.986328"/>
      <use xlink:href="#DejaVuSans-7a" x="667.769531"/>
      <use xlink:href="#DejaVuSans-61" x="720.259766"/>
      <use xlink:href="#DejaVuSans-74" x="781.539062"/>
      <use xlink:href="#DejaVuSans-69" x="820.748047"/>
      <use xlink:href="#DejaVuSans-6f" x="848.53125"/>
      <use xlink:href="#DejaVuSans-6e" x="909.712891"/>
     </g>
     <!--  probability -->
     <g transform="translate(44.7925 278.966562) rotate(-90) scale(0.2 -0.2)">
      <defs>
       <path id="DejaVuSans-62" d="M 3116 1747 
Q 3116 2381 2855 2742 
Q 2594 3103 2138 3103 
Q 1681 3103 1420 2742 
Q 1159 2381 1159 1747 
Q 1159 1113 1420 752 
Q 1681 391 2138 391 
Q 2594 391 2855 752 
Q 3116 1113 3116 1747 
z
M 1159 2969 
Q 1341 3281 1617 3432 
Q 1894 3584 2278 3584 
Q 2916 3584 3314 3078 
Q 3713 2572 3713 1747 
Q 3713 922 3314 415 
Q 2916 -91 2278 -91 
Q 1894 -91 1617 61 
Q 1341 213 1159 525 
L 1159 0 
L 581 0 
L 581 4863 
L 1159 4863 
L 1159 2969 
z
" transform="scale(0.015625)"/>
      </defs>
      <use xlink:href="#DejaVuSans-20"/>
      <use xlink:href="#DejaVuSans-70" x="31.787109"/>
      <use xlink:href="#DejaVuSans-72" x="95.263672"/>
      <use xlink:href="#DejaVuSans-6f" x="134.126953"/>
      <use xlink:href="#DejaVuSans-62" x="195.308594"/>
      <use xlink:href="#DejaVuSans-61" x="258.785156"/>
      <use xlink:href="#DejaVuSans-62" x="320.064453"/>
      <use xlink:href="#DejaVuSans-69" x="383.541016"/>
      <use xlink:href="#DejaVuSans-6c" x="411.324219"/>
      <use xlink:href="#DejaVuSans-69" x="439.107422"/>
      <use xlink:href="#DejaVuSans-74" x="466.890625"/>
      <use xlink:href="#DejaVuSans-79" x="506.099609"/>
     </g>
    </g>
   </g>
   <g id="patch_3">
    <path d="M 91.758125 416.476875 
L 91.758125 28.396875 
" style="fill: none; stroke: #000000; stroke-width: 0.8; stroke-linejoin: miter; stroke-linecap: square"/>
   </g>
   <g id="patch_4">
    <path d="M 649.758125 416.476875 
L 649.758125 28.396875 
" style="fill: none; stroke: #000000; stroke-width: 0.8; stroke-linejoin: miter; stroke-linecap: square"/>
   </g>
   <g id="patch_5">
    <path d="M 91.758125 416.476875 
L 649.758125 416.476875 
" style="fill: none; stroke: #000000; stroke-width: 0.8; stroke-linejoin: miter; stroke-linecap: square"/>
   </g>
   <g id="patch_6">
    <path d="M 91.758125 28.396875 
L 649.758125 28.396875 
" style="fill: none; stroke: #000000; stroke-width: 0.8; stroke-linejoin: miter; stroke-linecap: square"/>
   </g>
   <g id="text_15">
    <!-- XBB.1.5 antigen -->
    <g transform="translate(289.92375 22.396875) scale(0.2 -0.2)">
     <defs>
      <path id="DejaVuSans-58" d="M 403 4666 
L 1081 4666 
L 2241 2931 
L 3406 4666 
L 4084 4666 
L 2584 2425 
L 4184 0 
L 3506 0 
L 2194 1984 
L 872 0 
L 191 0 
L 1856 2491 
L 403 4666 
z
" transform="scale(0.015625)"/>
      <path id="DejaVuSans-42" d="M 1259 2228 
L 1259 519 
L 2272 519 
Q 2781 519 3026 730 
Q 3272 941 3272 1375 
Q 3272 1813 3026 2020 
Q 2781 2228 2272 2228 
L 1259 2228 
z
M 1259 4147 
L 1259 2741 
L 2194 2741 
Q 2656 2741 2882 2914 
Q 3109 3088 3109 3444 
Q 3109 3797 2882 3972 
Q 2656 4147 2194 4147 
L 1259 4147 
z
M 628 4666 
L 2241 4666 
Q 2963 4666 3353 4366 
Q 3744 4066 3744 3513 
Q 3744 3084 3544 2831 
Q 3344 2578 2956 2516 
Q 3422 2416 3680 2098 
Q 3938 1781 3938 1306 
Q 3938 681 3513 340 
Q 3088 0 2303 0 
L 628 0 
L 628 4666 
z
" transform="scale(0.015625)"/>
     </defs>
     <use xlink:href="#DejaVuSans-58"/>
     <use xlink:href="#DejaVuSans-42" x="68.505859"/>
     <use xlink:href="#DejaVuSans-42" x="137.109375"/>
     <use xlink:href="#DejaVuSans-2e" x="205.712891"/>
     <use xlink:href="#DejaVuSans-31" x="237.5"/>
     <use xlink:href="#DejaVuSans-2e" x="301.123047"/>
     <use xlink:href="#DejaVuSans-35" x="332.910156"/>
     <use xlink:href="#DejaVuSans-20" x="396.533203"/>
     <use xlink:href="#DejaVuSans-61" x="428.320312"/>
     <use xlink:href="#DejaVuSans-6e" x="489.599609"/>
     <use xlink:href="#DejaVuSans-74" x="552.978516"/>
     <use xlink:href="#DejaVuSans-69" x="592.1875"/>
     <use xlink:href="#DejaVuSans-67" x="619.970703"/>
     <use xlink:href="#DejaVuSans-65" x="683.447266"/>
     <use xlink:href="#DejaVuSans-6e" x="744.970703"/>
    </g>
   </g>
   <g id="legend_1">
    <g id="patch_7">
     <path d="M 765.358125 416.476875 
L 895.655 416.476875 
Q 899.655 416.476875 899.655 412.476875 
L 899.655 385.120625 
Q 899.655 381.120625 895.655 381.120625 
L 765.358125 381.120625 
Q 761.358125 381.120625 761.358125 385.120625 
L 761.358125 412.476875 
Q 761.358125 416.476875 765.358125 416.476875 
z
" style="fill: #ffffff; opacity: 0.8; stroke: #cccccc; stroke-linejoin: miter"/>
    </g>
    <g id="patch_8">
     <path d="M 769.358125 404.3175 
L 809.358125 404.3175 
L 809.358125 390.3175 
L 769.358125 390.3175 
z
" style="fill: #008000; fill-opacity: 0.3; stroke: #008000; stroke-opacity: 0.3; stroke-linejoin: miter"/>
    </g>
    <g id="text_16">
     <!-- EG.5.1 -->
     <g transform="translate(825.358125 404.3175) scale(0.2 -0.2)">
      <defs>
       <path id="DejaVuSans-45" d="M 628 4666 
L 3578 4666 
L 3578 4134 
L 1259 4134 
L 1259 2753 
L 3481 2753 
L 3481 2222 
L 1259 2222 
L 1259 531 
L 3634 531 
L 3634 0 
L 628 0 
L 628 4666 
z
" transform="scale(0.015625)"/>
       <path id="DejaVuSans-47" d="M 3809 666 
L 3809 1919 
L 2778 1919 
L 2778 2438 
L 4434 2438 
L 4434 434 
Q 4069 175 3628 42 
Q 3188 -91 2688 -91 
Q 1594 -91 976 548 
Q 359 1188 359 2328 
Q 359 3472 976 4111 
Q 1594 4750 2688 4750 
Q 3144 4750 3555 4637 
Q 3966 4525 4313 4306 
L 4313 3634 
Q 3963 3931 3569 4081 
Q 3175 4231 2741 4231 
Q 1884 4231 1454 3753 
Q 1025 3275 1025 2328 
Q 1025 1384 1454 906 
Q 1884 428 2741 428 
Q 3075 428 3337 486 
Q 3600 544 3809 666 
z
" transform="scale(0.015625)"/>
      </defs>
      <use xlink:href="#DejaVuSans-45"/>
      <use xlink:href="#DejaVuSans-47" x="63.183594"/>
      <use xlink:href="#DejaVuSans-2e" x="140.673828"/>
      <use xlink:href="#DejaVuSans-35" x="172.460938"/>
      <use xlink:href="#DejaVuSans-2e" x="236.083984"/>
      <use xlink:href="#DejaVuSans-31" x="267.871094"/>
     </g>
    </g>
   </g>
  </g>
 </g>
 <defs>
  <clipPath id="p8b728f09fe">
   <rect x="91.758125" y="28.396875" width="558" height="388.08"/>
  </clipPath>
 </defs>
</svg>
