<?xml version="1.0" encoding="utf-8" standalone="no"?>
<!DOCTYPE svg PUBLIC "-//W3C//DTD SVG 1.1//EN"
  "http://www.w3.org/Graphics/SVG/1.1/DTD/svg11.dtd">
<svg xmlns:xlink="http://www.w3.org/1999/xlink" width="1049.0175pt" height="452.1925pt" viewBox="0 0 1049.0175 452.1925" xmlns="http://www.w3.org/2000/svg" version="1.1">
 <metadata>
  <rdf:RDF xmlns:dc="http://purl.org/dc/elements/1.1/" xmlns:cc="http://creativecommons.org/ns#" xmlns:rdf="http://www.w3.org/1999/02/22-rdf-syntax-ns#">
   <cc:Work>
    <dc:type rdf:resource="http://purl.org/dc/dcmitype/StillImage"/>
    <dc:date>2023-11-12T17:21:45.423522</dc:date>
    <dc:format>image/svg+xml</dc:format>
    <dc:creator>
     <cc:Agent>
      <dc:title>Matplotlib v3.7.2, https://matplotlib.org/</dc:title>
     </cc:Agent>
    </dc:creator>
   </cc:Work>
  </rdf:RDF>
 </metadata>
 <defs>
  <style type="text/css">*{stroke-linejoin: round; stroke-linecap: butt}</style>
 </defs>
 <g id="figure_1">
  <g id="patch_1">
   <path d="M 0 452.1925 
L 1049.0175 452.1925 
L 1049.0175 0 
L 0 0 
z
" style="fill: #ffffff"/>
  </g>
  <g id="axes_1">
   <g id="patch_2">
    <path d="M 91.758125 395.28 
L 649.758125 395.28 
L 649.758125 7.2 
L 91.758125 7.2 
z
" style="fill: #ffffff"/>
   </g>
   <g id="PolyCollection_1">
    <defs>
     <path id="mca9d109607" d="M 117.121761 -141.615391 
L 117.121761 -90.264027 
L 117.897408 -121.232594 
L 118.673054 -149.948238 
L 119.4487 -176.534582 
L 120.224347 -201.109132 
L 120.999993 -223.783564 
L 121.77564 -244.664004 
L 122.551286 -263.851287 
L 123.326932 -281.441204 
L 124.102579 -297.524747 
L 124.878225 -312.188332 
L 125.653871 -325.514016 
L 126.429518 -337.579708 
L 127.205164 -348.459363 
L 127.980811 -358.22317 
L 128.756457 -366.937736 
L 129.532103 -374.666253 
L 130.30775 -381.468664 
L 131.083396 -387.401818 
L 131.859042 -391.160669 
L 132.634689 -385.739212 
L 133.410335 -379.958444 
L 134.185982 -373.89747 
L 134.961628 -367.623773 
L 135.737274 -361.194829 
L 136.512921 -354.659488 
L 137.288567 -348.059178 
L 138.064213 -341.428936 
L 138.83986 -334.798302 
L 139.615506 -328.192085 
L 140.391153 -321.631035 
L 141.166799 -315.132408 
L 141.942445 -308.710466 
L 142.718092 -302.3769 
L 143.493738 -296.1412 
L 144.269384 -290.010971 
L 145.045031 -283.992208 
L 145.820677 -278.089528 
L 146.596323 -272.306378 
L 147.37197 -266.645204 
L 148.147616 -261.107609 
L 148.923263 -255.694474 
L 149.698909 -250.406077 
L 150.474555 -245.242185 
L 151.250202 -240.202138 
L 152.025848 -235.284919 
L 152.801494 -230.489216 
L 153.577141 -225.813473 
L 154.352787 -221.255936 
L 155.128434 -216.814689 
L 155.90408 -212.48769 
L 156.679726 -208.272798 
L 157.455373 -204.167796 
L 158.231019 -200.170411 
L 159.006665 -196.278333 
L 159.782312 -192.489228 
L 160.557958 -188.800753 
L 161.333605 -185.210562 
L 162.109251 -181.716321 
L 162.884897 -178.315708 
L 163.660544 -175.006427 
L 164.43619 -171.786205 
L 165.211836 -168.652803 
L 165.987483 -165.604017 
L 166.763129 -162.637677 
L 167.538776 -159.751655 
L 168.314422 -156.943864 
L 169.090068 -154.212258 
L 169.865715 -151.554836 
L 170.641361 -148.969638 
L 171.417007 -146.454749 
L 172.192654 -144.008301 
L 172.9683 -141.628465 
L 173.743947 -139.313461 
L 174.519593 -137.061547 
L 175.295239 -134.871028 
L 176.070886 -132.740251 
L 176.846532 -130.667603 
L 177.622178 -128.651514 
L 178.397825 -126.690453 
L 179.173471 -124.782929 
L 179.949117 -122.92749 
L 180.724764 -121.122722 
L 181.50041 -119.367249 
L 182.276057 -117.659731 
L 183.051703 -115.998862 
L 183.827349 -114.383374 
L 184.602996 -112.812029 
L 185.378642 -111.283626 
L 186.154288 -109.796994 
L 186.929935 -108.350993 
L 187.705581 -106.944515 
L 188.481228 -105.576483 
L 189.256874 -104.245847 
L 190.03252 -102.951585 
L 190.808167 -101.692706 
L 191.583813 -100.468242 
L 192.359459 -99.277254 
L 193.135106 -98.118827 
L 193.910752 -96.992072 
L 194.686399 -95.896124 
L 195.462045 -94.83014 
L 196.237691 -93.793303 
L 197.013338 -92.784814 
L 197.788984 -91.8039 
L 198.56463 -90.849807 
L 199.340277 -89.921802 
L 200.115923 -89.019172 
L 200.89157 -88.141222 
L 201.667216 -87.287279 
L 202.442862 -86.456686 
L 203.218509 -85.648805 
L 203.994155 -84.863014 
L 204.769801 -84.09871 
L 205.545448 -83.355305 
L 206.321094 -82.632229 
L 207.096741 -81.928924 
L 207.872387 -81.244851 
L 208.648033 -80.579484 
L 209.42368 -79.932311 
L 210.199326 -79.302835 
L 210.974972 -78.690571 
L 211.750619 -78.09505 
L 212.526265 -77.515813 
L 213.301911 -76.952415 
L 214.077558 -76.404423 
L 214.853204 -75.871416 
L 215.628851 -75.352984 
L 216.404497 -74.848729 
L 217.180143 -74.358262 
L 217.95579 -73.881207 
L 218.731436 -73.417197 
L 219.507082 -72.965876 
L 220.282729 -72.526895 
L 221.058375 -72.099919 
L 221.834022 -71.684619 
L 222.609668 -71.280674 
L 223.385314 -70.887776 
L 224.160961 -70.505622 
L 224.936607 -70.133917 
L 225.712253 -69.772377 
L 226.4879 -69.420723 
L 227.263546 -69.078685 
L 228.039193 -68.746 
L 228.814839 -68.422412 
L 229.590485 -68.107673 
L 230.366132 -67.801541 
L 231.141778 -67.503779 
L 231.917424 -67.21416 
L 232.693071 -66.932461 
L 233.468717 -66.658464 
L 234.244364 -66.391961 
L 235.02001 -66.132744 
L 235.795656 -65.880616 
L 236.571303 -65.635383 
L 237.346949 -65.396855 
L 238.122595 -65.16485 
L 238.898242 -64.939189 
L 239.673888 -64.719699 
L 240.449535 -64.50621 
L 241.225181 -64.29856 
L 242.000827 -64.096588 
L 242.776474 -63.900139 
L 243.55212 -63.709061 
L 244.327766 -63.523209 
L 245.103413 -63.342439 
L 245.879059 -63.166612 
L 246.654705 -62.995593 
L 247.430352 -62.82925 
L 248.205998 -62.667456 
L 248.981645 -62.510087 
L 249.757291 -62.35702 
L 250.532937 -62.20814 
L 251.308584 -62.06333 
L 252.08423 -61.92248 
L 252.859876 -61.785482 
L 253.635523 -61.65223 
L 254.411169 -61.522622 
L 255.186816 -61.396558 
L 255.962462 -61.273941 
L 256.738108 -61.154677 
L 257.513755 -61.038675 
L 258.289401 -60.925844 
L 259.065047 -60.816099 
L 259.840694 -60.709355 
L 260.61634 -60.60553 
L 261.391987 -60.504544 
L 262.167633 -60.406319 
L 262.943279 -60.310781 
L 263.718926 -60.217854 
L 264.494572 -60.127469 
L 265.270218 -60.039556 
L 266.045865 -59.954046 
L 266.821511 -59.870875 
L 267.597158 -59.789978 
L 268.372804 -59.711293 
L 269.14845 -59.63476 
L 269.924097 -59.56032 
L 270.699743 -59.487915 
L 271.475389 -59.41749 
L 272.251036 -59.348991 
L 273.026682 -59.282365 
L 273.802329 -59.217561 
L 274.577975 -59.154529 
L 275.353621 -59.093221 
L 276.129268 -59.033589 
L 276.904914 -58.975587 
L 277.68056 -58.919172 
L 278.456207 -58.8643 
L 279.231853 -58.810928 
L 280.007499 -58.759015 
L 280.783146 -58.708522 
L 281.558792 -58.65941 
L 282.334439 -58.61164 
L 283.110085 -58.565177 
L 283.885731 -58.519985 
L 284.661378 -58.476028 
L 285.437024 -58.433273 
L 286.21267 -58.391688 
L 286.988317 -58.351239 
L 287.763963 -58.311897 
L 288.53961 -58.27363 
L 289.315256 -58.23641 
L 290.090902 -58.200208 
L 290.866549 -58.164995 
L 291.642195 -58.130746 
L 292.417841 -58.097433 
L 293.193488 -58.065031 
L 293.969134 -58.033515 
L 294.744781 -58.00286 
L 295.520427 -57.973044 
L 296.296073 -57.944044 
L 297.07172 -57.915836 
L 297.847366 -57.8884 
L 298.623012 -57.861714 
L 299.398659 -57.835758 
L 300.174305 -57.810511 
L 300.949952 -57.785955 
L 301.725598 -57.76207 
L 302.501244 -57.738839 
L 303.276891 -57.716242 
L 304.052537 -57.694264 
L 304.828183 -57.672887 
L 305.60383 -57.652094 
L 306.379476 -57.63187 
L 307.155122 -57.612198 
L 307.930769 -57.593065 
L 308.706415 -57.574455 
L 309.482062 -57.556354 
L 310.257708 -57.538748 
L 311.033354 -57.521623 
L 311.809001 -57.504966 
L 312.584647 -57.488765 
L 313.360293 -57.473007 
L 314.13594 -57.45768 
L 314.911586 -57.442772 
L 315.687233 -57.428272 
L 316.462879 -57.414168 
L 317.238525 -57.40045 
L 318.014172 -57.387107 
L 318.789818 -57.374129 
L 319.565464 -57.361505 
L 320.341111 -57.349227 
L 321.116757 -57.337285 
L 321.892404 -57.325669 
L 322.66805 -57.314371 
L 323.443696 -57.303382 
L 324.219343 -57.292693 
L 324.994989 -57.282297 
L 325.770635 -57.272185 
L 326.546282 -57.262349 
L 327.321928 -57.252783 
L 328.097575 -57.243477 
L 328.873221 -57.234427 
L 329.648867 -57.225624 
L 330.424514 -57.217061 
L 331.20016 -57.208733 
L 331.975806 -57.200633 
L 332.751453 -57.192754 
L 333.527099 -57.18509 
L 334.302746 -57.177636 
L 335.078392 -57.170386 
L 335.854038 -57.163334 
L 336.629685 -57.156475 
L 337.405331 -57.149803 
L 338.180977 -57.143314 
L 338.956624 -57.137003 
L 339.73227 -57.130864 
L 340.507916 -57.124893 
L 341.283563 -57.119085 
L 342.059209 -57.113436 
L 342.834856 -57.107941 
L 343.610502 -57.102597 
L 344.386148 -57.097398 
L 345.161795 -57.092342 
L 345.937441 -57.087425 
L 346.713087 -57.082641 
L 347.488734 -57.077989 
L 348.26438 -57.073463 
L 349.040027 -57.069062 
L 349.815673 -57.064781 
L 350.591319 -57.060617 
L 351.366966 -57.056566 
L 352.142612 -57.052627 
L 352.918258 -57.048795 
L 353.693905 -57.045068 
L 354.469551 -57.041443 
L 355.245198 -57.037917 
L 356.020844 -57.034487 
L 356.79649 -57.031152 
L 357.572137 -57.027907 
L 358.347783 -57.024751 
L 359.123429 -57.021682 
L 359.899076 -57.018696 
L 360.674722 -57.015792 
L 361.450369 -57.012968 
L 362.226015 -57.01022 
L 363.001661 -57.007548 
L 363.777308 -57.004949 
L 364.552954 -57.002421 
L 365.3286 -56.999962 
L 366.104247 -56.997571 
L 366.879893 -56.995244 
L 367.65554 -56.992982 
L 368.431186 -56.990781 
L 369.206832 -56.98864 
L 369.982479 -56.986558 
L 370.758125 -56.984533 
L 371.533771 -56.982563 
L 372.309418 -56.980648 
L 373.085064 -56.978784 
L 373.86071 -56.976971 
L 374.636357 -56.975209 
L 375.412003 -56.973494 
L 376.18765 -56.971826 
L 376.963296 -56.970204 
L 377.738942 -56.968626 
L 378.514589 -56.967091 
L 379.290235 -56.965598 
L 380.065881 -56.964146 
L 380.841528 -56.962734 
L 381.617174 -56.96136 
L 382.392821 -56.960024 
L 383.168467 -56.958725 
L 383.944113 -56.957461 
L 384.71976 -56.956231 
L 385.495406 -56.955035 
L 386.271052 -56.953872 
L 387.046699 -56.952741 
L 387.822345 -56.95164 
L 388.597992 -56.95057 
L 389.373638 -56.949529 
L 390.149284 -56.948517 
L 390.924931 -56.947532 
L 391.700577 -56.946574 
L 392.476223 -56.945642 
L 393.25187 -56.944736 
L 394.027516 -56.943854 
L 394.803163 -56.942997 
L 395.578809 -56.942163 
L 396.354455 -56.941352 
L 397.130102 -56.940563 
L 397.905748 -56.939795 
L 398.681394 -56.939049 
L 399.457041 -56.938323 
L 400.232687 -56.937617 
L 401.008334 -56.93693 
L 401.78398 -56.936262 
L 402.559626 -56.935612 
L 403.335273 -56.93498 
L 404.110919 -56.934366 
L 404.886565 -56.933768 
L 405.662212 -56.933186 
L 406.437858 -56.93262 
L 407.213504 -56.93207 
L 407.989151 -56.931535 
L 408.764797 -56.931015 
L 409.540444 -56.930508 
L 410.31609 -56.930016 
L 411.091736 -56.929537 
L 411.867383 -56.929071 
L 412.643029 -56.928618 
L 413.418675 -56.928177 
L 414.194322 -56.927748 
L 414.969968 -56.927331 
L 415.745615 -56.926926 
L 416.521261 -56.926531 
L 417.296907 -56.926148 
L 418.072554 -56.925775 
L 418.8482 -56.925412 
L 419.623846 -56.925058 
L 420.399493 -56.924715 
L 421.175139 -56.924381 
L 421.950786 -56.924056 
L 422.726432 -56.92374 
L 423.502078 -56.923433 
L 424.277725 -56.923134 
L 425.053371 -56.922843 
L 425.829017 -56.92256 
L 426.604664 -56.922285 
L 427.38031 -56.922018 
L 428.155957 -56.921757 
L 428.931603 -56.921504 
L 429.707249 -56.921258 
L 430.482896 -56.921018 
L 431.258542 -56.920786 
L 432.034188 -56.920559 
L 432.809835 -56.920339 
L 433.585481 -56.920124 
L 434.361128 -56.919916 
L 435.136774 -56.919713 
L 435.91242 -56.919516 
L 436.688067 -56.919324 
L 437.463713 -56.919137 
L 438.239359 -56.918956 
L 439.015006 -56.918779 
L 439.790652 -56.918608 
L 440.566298 -56.918441 
L 441.341945 -56.918278 
L 442.117591 -56.91812 
L 442.893238 -56.917966 
L 443.668884 -56.917817 
L 444.44453 -56.917672 
L 445.220177 -56.91753 
L 445.995823 -56.917393 
L 446.771469 -56.917259 
L 447.547116 -56.917129 
L 448.322762 -56.917002 
L 449.098409 -56.916879 
L 449.874055 -56.916759 
L 450.649701 -56.916643 
L 451.425348 -56.916529 
L 452.200994 -56.916419 
L 452.97664 -56.916312 
L 453.752287 -56.916208 
L 454.527933 -56.916106 
L 455.30358 -56.916008 
L 456.079226 -56.915912 
L 456.854872 -56.915819 
L 457.630519 -56.915728 
L 458.406165 -56.91564 
L 459.181811 -56.915554 
L 459.957458 -56.91547 
L 460.733104 -56.915389 
L 461.508751 -56.91531 
L 462.284397 -56.915233 
L 463.060043 -56.915158 
L 463.83569 -56.915086 
L 464.611336 -56.915015 
L 465.386982 -56.914946 
L 466.162629 -56.914879 
L 466.938275 -56.914814 
L 467.713921 -56.914751 
L 468.489568 -56.914689 
L 469.265214 -56.91463 
L 470.040861 -56.914571 
L 470.816507 -56.914515 
L 471.592153 -56.91446 
L 472.3678 -56.914406 
L 473.143446 -56.914354 
L 473.919092 -56.914303 
L 474.694739 -56.914254 
L 475.470385 -56.914206 
L 476.246032 -56.914159 
L 477.021678 -56.914114 
L 477.797324 -56.91407 
L 478.572971 -56.914027 
L 479.348617 -56.913985 
L 480.124263 -56.913945 
L 480.89991 -56.913905 
L 481.675556 -56.913867 
L 482.451203 -56.913829 
L 483.226849 -56.913793 
L 484.002495 -56.913758 
L 484.778142 -56.913723 
L 485.553788 -56.91369 
L 486.329434 -56.913657 
L 487.105081 -56.913626 
L 487.880727 -56.913595 
L 488.656374 -56.913565 
L 489.43202 -56.913536 
L 490.207666 -56.913507 
L 490.983313 -56.91348 
L 491.758959 -56.913453 
L 492.534605 -56.913427 
L 493.310252 -56.913402 
L 494.085898 -56.913377 
L 494.861545 -56.913353 
L 495.637191 -56.91333 
L 496.412837 -56.913307 
L 497.188484 -56.913285 
L 497.96413 -56.913263 
L 498.739776 -56.913243 
L 499.515423 -56.913222 
L 500.291069 -56.913203 
L 501.066715 -56.913183 
L 501.842362 -56.913165 
L 502.618008 -56.913146 
L 503.393655 -56.913129 
L 504.169301 -56.913112 
L 504.944947 -56.913095 
L 505.720594 -56.913079 
L 506.49624 -56.913063 
L 507.271886 -56.913047 
L 508.047533 -56.913032 
L 508.823179 -56.913018 
L 509.598826 -56.913004 
L 510.374472 -56.91299 
L 511.150118 -56.912977 
L 511.925765 -56.912963 
L 512.701411 -56.912951 
L 513.477057 -56.912938 
L 514.252704 -56.912926 
L 515.02835 -56.912915 
L 515.803997 -56.912903 
L 516.579643 -56.912892 
L 517.355289 -56.912882 
L 518.130936 -56.912871 
L 518.906582 -56.912861 
L 519.682228 -56.912851 
L 520.457875 -56.912842 
L 521.233521 -56.912832 
L 522.009168 -56.912823 
L 522.784814 -56.912814 
L 523.56046 -56.912806 
L 524.336107 -56.912797 
L 525.111753 -56.912789 
L 525.887399 -56.912781 
L 526.663046 -56.912774 
L 527.438692 -56.912766 
L 528.214339 -56.912759 
L 528.989985 -56.912752 
L 529.765631 -56.912745 
L 530.541278 -56.912738 
L 531.316924 -56.912732 
L 532.09257 -56.912725 
L 532.868217 -56.912719 
L 533.643863 -56.912713 
L 534.419509 -56.912707 
L 535.195156 -56.912702 
L 535.970802 -56.912696 
L 536.746449 -56.912691 
L 537.522095 -56.912686 
L 538.297741 -56.912681 
L 539.073388 -56.912676 
L 539.849034 -56.912671 
L 540.62468 -56.912666 
L 541.400327 -56.912662 
L 542.175973 -56.912657 
L 542.95162 -56.912653 
L 543.727266 -56.912649 
L 544.502912 -56.912645 
L 545.278559 -56.912641 
L 546.054205 -56.912637 
L 546.829851 -56.912633 
L 547.605498 -56.912629 
L 548.381144 -56.912626 
L 549.156791 -56.912622 
L 549.932437 -56.912619 
L 550.708083 -56.912616 
L 551.48373 -56.912613 
L 552.259376 -56.91261 
L 553.035022 -56.912607 
L 553.810669 -56.912604 
L 554.586315 -56.912601 
L 555.361962 -56.912598 
L 556.137608 -56.912595 
L 556.913254 -56.912593 
L 557.688901 -56.91259 
L 558.464547 -56.912588 
L 559.240193 -56.912585 
L 560.01584 -56.912583 
L 560.791486 -56.912581 
L 561.567133 -56.912579 
L 562.342779 -56.912576 
L 563.118425 -56.912574 
L 563.894072 -56.912572 
L 564.669718 -56.91257 
L 565.445364 -56.912568 
L 566.221011 -56.912567 
L 566.996657 -56.912565 
L 567.772303 -56.912563 
L 568.54795 -56.912561 
L 569.323596 -56.91256 
L 570.099243 -56.912558 
L 570.874889 -56.912556 
L 571.650535 -56.912555 
L 572.426182 -56.912553 
L 573.201828 -56.912552 
L 573.977474 -56.91255 
L 574.753121 -56.912549 
L 575.528767 -56.912548 
L 576.304414 -56.912546 
L 577.08006 -56.912545 
L 577.855706 -56.912544 
L 578.631353 -56.912543 
L 579.406999 -56.912542 
L 580.182645 -56.91254 
L 580.958292 -56.912539 
L 581.733938 -56.912538 
L 582.509585 -56.912537 
L 583.285231 -56.912536 
L 584.060877 -56.912535 
L 584.836524 -56.912534 
L 585.61217 -56.912533 
L 586.387816 -56.912532 
L 587.163463 -56.912531 
L 587.939109 -56.912531 
L 588.714756 -56.91253 
L 589.490402 -56.912529 
L 590.266048 -56.912528 
L 591.041695 -56.912527 
L 591.817341 -56.912527 
L 592.592987 -56.912526 
L 593.368634 -56.912525 
L 594.14428 -56.912525 
L 594.919927 -56.912524 
L 595.695573 -56.912523 
L 596.471219 -56.912523 
L 597.246866 -56.912522 
L 598.022512 -56.912521 
L 598.798158 -56.912521 
L 599.573805 -56.91252 
L 600.349451 -56.91252 
L 601.125097 -56.912519 
L 601.900744 -56.912519 
L 602.67639 -56.912518 
L 603.452037 -56.912518 
L 604.227683 -56.912517 
L 605.003329 -56.912517 
L 605.778976 -56.912516 
L 606.554622 -56.912516 
L 607.330268 -56.912515 
L 608.105915 -56.912515 
L 608.881561 -56.912514 
L 609.657208 -56.912514 
L 610.432854 -56.912514 
L 611.2085 -56.912513 
L 611.984147 -56.912513 
L 612.759793 -56.912513 
L 613.535439 -56.912512 
L 614.311086 -56.912512 
L 615.086732 -56.912512 
L 615.862379 -56.912511 
L 616.638025 -56.912511 
L 617.413671 -56.912511 
L 618.189318 -56.91251 
L 618.964964 -56.91251 
L 619.74061 -56.91251 
L 620.516257 -56.91251 
L 621.291903 -56.912509 
L 622.06755 -56.912509 
L 622.843196 -56.912509 
L 623.618842 -56.912509 
L 624.394489 -56.912508 
L 624.394489 -57.645677 
L 624.394489 -57.645677 
L 623.618842 -57.653079 
L 622.843196 -57.660556 
L 622.06755 -57.668109 
L 621.291903 -57.675738 
L 620.516257 -57.683443 
L 619.74061 -57.691227 
L 618.964964 -57.699089 
L 618.189318 -57.707031 
L 617.413671 -57.715053 
L 616.638025 -57.723155 
L 615.862379 -57.73134 
L 615.086732 -57.739607 
L 614.311086 -57.747958 
L 613.535439 -57.756393 
L 612.759793 -57.764913 
L 611.984147 -57.773519 
L 611.2085 -57.782212 
L 610.432854 -57.790993 
L 609.657208 -57.799862 
L 608.881561 -57.808821 
L 608.105915 -57.817871 
L 607.330268 -57.827012 
L 606.554622 -57.836245 
L 605.778976 -57.845571 
L 605.003329 -57.854992 
L 604.227683 -57.864507 
L 603.452037 -57.874119 
L 602.67639 -57.883828 
L 601.900744 -57.893635 
L 601.125097 -57.90354 
L 600.349451 -57.913546 
L 599.573805 -57.923653 
L 598.798158 -57.933862 
L 598.022512 -57.944174 
L 597.246866 -57.95459 
L 596.471219 -57.965111 
L 595.695573 -57.975738 
L 594.919927 -57.986473 
L 594.14428 -57.997316 
L 593.368634 -58.008269 
L 592.592987 -58.019332 
L 591.817341 -58.030507 
L 591.041695 -58.041794 
L 590.266048 -58.053196 
L 589.490402 -58.064713 
L 588.714756 -58.076346 
L 587.939109 -58.088096 
L 587.163463 -58.099965 
L 586.387816 -58.111954 
L 585.61217 -58.124064 
L 584.836524 -58.136296 
L 584.060877 -58.148652 
L 583.285231 -58.161133 
L 582.509585 -58.173739 
L 581.733938 -58.186473 
L 580.958292 -58.199335 
L 580.182645 -58.212327 
L 579.406999 -58.225451 
L 578.631353 -58.238707 
L 577.855706 -58.252096 
L 577.08006 -58.265621 
L 576.304414 -58.279283 
L 575.528767 -58.293082 
L 574.753121 -58.307021 
L 573.977474 -58.3211 
L 573.201828 -58.335322 
L 572.426182 -58.349687 
L 571.650535 -58.364197 
L 570.874889 -58.378854 
L 570.099243 -58.393658 
L 569.323596 -58.408612 
L 568.54795 -58.423718 
L 567.772303 -58.438975 
L 566.996657 -58.454387 
L 566.221011 -58.469954 
L 565.445364 -58.485678 
L 564.669718 -58.501562 
L 563.894072 -58.517605 
L 563.118425 -58.533811 
L 562.342779 -58.55018 
L 561.567133 -58.566714 
L 560.791486 -58.583416 
L 560.01584 -58.600286 
L 559.240193 -58.617326 
L 558.464547 -58.634538 
L 557.688901 -58.651924 
L 556.913254 -58.669486 
L 556.137608 -58.687225 
L 555.361962 -58.705143 
L 554.586315 -58.723242 
L 553.810669 -58.741524 
L 553.035022 -58.75999 
L 552.259376 -58.778642 
L 551.48373 -58.797484 
L 550.708083 -58.816515 
L 549.932437 -58.835738 
L 549.156791 -58.855156 
L 548.381144 -58.874769 
L 547.605498 -58.894581 
L 546.829851 -58.914592 
L 546.054205 -58.934806 
L 545.278559 -58.955223 
L 544.502912 -58.975847 
L 543.727266 -58.996679 
L 542.95162 -59.017722 
L 542.175973 -59.038977 
L 541.400327 -59.060446 
L 540.62468 -59.082132 
L 539.849034 -59.104037 
L 539.073388 -59.126164 
L 538.297741 -59.148513 
L 537.522095 -59.171089 
L 536.746449 -59.193892 
L 535.970802 -59.216925 
L 535.195156 -59.240191 
L 534.419509 -59.263692 
L 533.643863 -59.28743 
L 532.868217 -59.311408 
L 532.09257 -59.335628 
L 531.316924 -59.360093 
L 530.541278 -59.384804 
L 529.765631 -59.409765 
L 528.989985 -59.434978 
L 528.214339 -59.460446 
L 527.438692 -59.48617 
L 526.663046 -59.512155 
L 525.887399 -59.538401 
L 525.111753 -59.564913 
L 524.336107 -59.591693 
L 523.56046 -59.618742 
L 522.784814 -59.646065 
L 522.009168 -59.673664 
L 521.233521 -59.701541 
L 520.457875 -59.7297 
L 519.682228 -59.758143 
L 518.906582 -59.786874 
L 518.130936 -59.815894 
L 517.355289 -59.845207 
L 516.579643 -59.874817 
L 515.803997 -59.904725 
L 515.02835 -59.934935 
L 514.252704 -59.96545 
L 513.477057 -59.996274 
L 512.701411 -60.027408 
L 511.925765 -60.058857 
L 511.150118 -60.090623 
L 510.374472 -60.12271 
L 509.598826 -60.155121 
L 508.823179 -60.18786 
L 508.047533 -60.220929 
L 507.271886 -60.254331 
L 506.49624 -60.288071 
L 505.720594 -60.322152 
L 504.944947 -60.356576 
L 504.169301 -60.391349 
L 503.393655 -60.426472 
L 502.618008 -60.46195 
L 501.842362 -60.497786 
L 501.066715 -60.533984 
L 500.291069 -60.570547 
L 499.515423 -60.60748 
L 498.739776 -60.644785 
L 497.96413 -60.682467 
L 497.188484 -60.72053 
L 496.412837 -60.758976 
L 495.637191 -60.797811 
L 494.861545 -60.837038 
L 494.085898 -60.876661 
L 493.310252 -60.916684 
L 492.534605 -60.957112 
L 491.758959 -60.997947 
L 490.983313 -61.039195 
L 490.207666 -61.080859 
L 489.43202 -61.122943 
L 488.656374 -61.165453 
L 487.880727 -61.208392 
L 487.105081 -61.251764 
L 486.329434 -61.295575 
L 485.553788 -61.339827 
L 484.778142 -61.384526 
L 484.002495 -61.429677 
L 483.226849 -61.475284 
L 482.451203 -61.521351 
L 481.675556 -61.567883 
L 480.89991 -61.614884 
L 480.124263 -61.662361 
L 479.348617 -61.710317 
L 478.572971 -61.758756 
L 477.797324 -61.807685 
L 477.021678 -61.857108 
L 476.246032 -61.90703 
L 475.470385 -61.957456 
L 474.694739 -62.008391 
L 473.919092 -62.059841 
L 473.143446 -62.111809 
L 472.3678 -62.164303 
L 471.592153 -62.217326 
L 470.816507 -62.270885 
L 470.040861 -62.324985 
L 469.265214 -62.37963 
L 468.489568 -62.434828 
L 467.713921 -62.490583 
L 466.938275 -62.5469 
L 466.162629 -62.603786 
L 465.386982 -62.661247 
L 464.611336 -62.719288 
L 463.83569 -62.777914 
L 463.060043 -62.837133 
L 462.284397 -62.89695 
L 461.508751 -62.95737 
L 460.733104 -63.0184 
L 459.957458 -63.080047 
L 459.181811 -63.142316 
L 458.406165 -63.205214 
L 457.630519 -63.268747 
L 456.854872 -63.332921 
L 456.079226 -63.397743 
L 455.30358 -63.463219 
L 454.527933 -63.529357 
L 453.752287 -63.596162 
L 452.97664 -63.663642 
L 452.200994 -63.731803 
L 451.425348 -63.800653 
L 450.649701 -63.870197 
L 449.874055 -63.940444 
L 449.098409 -64.011399 
L 448.322762 -64.083072 
L 447.547116 -64.155467 
L 446.771469 -64.228594 
L 445.995823 -64.302459 
L 445.220177 -64.37707 
L 444.44453 -64.452434 
L 443.668884 -64.528559 
L 442.893238 -64.605453 
L 442.117591 -64.683122 
L 441.341945 -64.761576 
L 440.566298 -64.840823 
L 439.790652 -64.920869 
L 439.015006 -65.001723 
L 438.239359 -65.083394 
L 437.463713 -65.165889 
L 436.688067 -65.249217 
L 435.91242 -65.333387 
L 435.136774 -65.418406 
L 434.361128 -65.504284 
L 433.585481 -65.591029 
L 432.809835 -65.678649 
L 432.034188 -65.767154 
L 431.258542 -65.856553 
L 430.482896 -65.946854 
L 429.707249 -66.038067 
L 428.931603 -66.130201 
L 428.155957 -66.223265 
L 427.38031 -66.317269 
L 426.604664 -66.412222 
L 425.829017 -66.508133 
L 425.053371 -66.605013 
L 424.277725 -66.702871 
L 423.502078 -66.801717 
L 422.726432 -66.901561 
L 421.950786 -67.002412 
L 421.175139 -67.104283 
L 420.399493 -67.207181 
L 419.623846 -67.311119 
L 418.8482 -67.416106 
L 418.072554 -67.522153 
L 417.296907 -67.62927 
L 416.521261 -67.737469 
L 415.745615 -67.846761 
L 414.969968 -67.957156 
L 414.194322 -68.068665 
L 413.418675 -68.1813 
L 412.643029 -68.295073 
L 411.867383 -68.409994 
L 411.091736 -68.526076 
L 410.31609 -68.643329 
L 409.540444 -68.761766 
L 408.764797 -68.881399 
L 407.989151 -69.00224 
L 407.213504 -69.124301 
L 406.437858 -69.247594 
L 405.662212 -69.372132 
L 404.886565 -69.497928 
L 404.110919 -69.624993 
L 403.335273 -69.753341 
L 402.559626 -69.882986 
L 401.78398 -70.013939 
L 401.008334 -70.146214 
L 400.232687 -70.279825 
L 399.457041 -70.414784 
L 398.681394 -70.551107 
L 397.905748 -70.688805 
L 397.130102 -70.827894 
L 396.354455 -70.968387 
L 395.578809 -71.110299 
L 394.803163 -71.253643 
L 394.027516 -71.398435 
L 393.25187 -71.544688 
L 392.476223 -71.692418 
L 391.700577 -71.84164 
L 390.924931 -71.992368 
L 390.149284 -72.144618 
L 389.373638 -72.298405 
L 388.597992 -72.453745 
L 387.822345 -72.610653 
L 387.046699 -72.769145 
L 386.271052 -72.929238 
L 385.495406 -73.090946 
L 384.71976 -73.254288 
L 383.944113 -73.419279 
L 383.168467 -73.585935 
L 382.392821 -73.754274 
L 381.617174 -73.924312 
L 380.841528 -74.096068 
L 380.065881 -74.269557 
L 379.290235 -74.444798 
L 378.514589 -74.621808 
L 377.738942 -74.800606 
L 376.963296 -74.981208 
L 376.18765 -75.163634 
L 375.412003 -75.347902 
L 374.636357 -75.53403 
L 373.86071 -75.722038 
L 373.085064 -75.911943 
L 372.309418 -76.103766 
L 371.533771 -76.297526 
L 370.758125 -76.493242 
L 369.982479 -76.690933 
L 369.206832 -76.890621 
L 368.431186 -77.092325 
L 367.65554 -77.296065 
L 366.879893 -77.501863 
L 366.104247 -77.709738 
L 365.3286 -77.919712 
L 364.552954 -78.131805 
L 363.777308 -78.346041 
L 363.001661 -78.562439 
L 362.226015 -78.781022 
L 361.450369 -79.001811 
L 360.674722 -79.22483 
L 359.899076 -79.450101 
L 359.123429 -79.677646 
L 358.347783 -79.907488 
L 357.572137 -80.139651 
L 356.79649 -80.374158 
L 356.020844 -80.611032 
L 355.245198 -80.850298 
L 354.469551 -81.09198 
L 353.693905 -81.336102 
L 352.918258 -81.582688 
L 352.142612 -81.831765 
L 351.366966 -82.083355 
L 350.591319 -82.337486 
L 349.815673 -82.594183 
L 349.040027 -82.853471 
L 348.26438 -83.115378 
L 347.488734 -83.379928 
L 346.713087 -83.64715 
L 345.937441 -83.917069 
L 345.161795 -84.189713 
L 344.386148 -84.465111 
L 343.610502 -84.743288 
L 342.834856 -85.024275 
L 342.059209 -85.308098 
L 341.283563 -85.594787 
L 340.507916 -85.88437 
L 339.73227 -86.176877 
L 338.956624 -86.472337 
L 338.180977 -86.77078 
L 337.405331 -87.072236 
L 336.629685 -87.376736 
L 335.854038 -87.68431 
L 335.078392 -87.99499 
L 334.302746 -88.308806 
L 333.527099 -88.62579 
L 332.751453 -88.945975 
L 331.975806 -89.269393 
L 331.20016 -89.596076 
L 330.424514 -89.926057 
L 329.648867 -90.25937 
L 328.873221 -90.596048 
L 328.097575 -90.936125 
L 327.321928 -91.279635 
L 326.546282 -91.626614 
L 325.770635 -91.977096 
L 324.994989 -92.331117 
L 324.219343 -92.688711 
L 323.443696 -93.049917 
L 322.66805 -93.414768 
L 321.892404 -93.783304 
L 321.116757 -94.15556 
L 320.341111 -94.531575 
L 319.565464 -94.911386 
L 318.789818 -95.295032 
L 318.014172 -95.682551 
L 317.238525 -96.073983 
L 316.462879 -96.469367 
L 315.687233 -96.868742 
L 314.911586 -97.27215 
L 314.13594 -97.67963 
L 313.360293 -98.091225 
L 312.584647 -98.506975 
L 311.809001 -98.926923 
L 311.033354 -99.351111 
L 310.257708 -99.779581 
L 309.482062 -100.212377 
L 308.706415 -100.649543 
L 307.930769 -101.091123 
L 307.155122 -101.53716 
L 306.379476 -101.987702 
L 305.60383 -102.442792 
L 304.828183 -102.902476 
L 304.052537 -103.366802 
L 303.276891 -103.835815 
L 302.501244 -104.309564 
L 301.725598 -104.788096 
L 300.949952 -105.27146 
L 300.174305 -105.759703 
L 299.398659 -106.252876 
L 298.623012 -106.751028 
L 297.847366 -107.25421 
L 297.07172 -107.762472 
L 296.296073 -108.275865 
L 295.520427 -108.794442 
L 294.744781 -109.318254 
L 293.969134 -109.847355 
L 293.193488 -110.381798 
L 292.417841 -110.921636 
L 291.642195 -111.466925 
L 290.866549 -112.01772 
L 290.090902 -112.574075 
L 289.315256 -113.136047 
L 288.53961 -113.703694 
L 287.763963 -114.277071 
L 286.988317 -114.856237 
L 286.21267 -115.441251 
L 285.437024 -116.032171 
L 284.661378 -116.629057 
L 283.885731 -117.231969 
L 283.110085 -117.840968 
L 282.334439 -118.456116 
L 281.558792 -119.077475 
L 280.783146 -119.705107 
L 280.007499 -120.339076 
L 279.231853 -120.979445 
L 278.456207 -121.62628 
L 277.68056 -122.279645 
L 276.904914 -122.939606 
L 276.129268 -123.606231 
L 275.353621 -124.279586 
L 274.577975 -124.95974 
L 273.802329 -125.64676 
L 273.026682 -126.340717 
L 272.251036 -127.041679 
L 271.475389 -127.749719 
L 270.699743 -128.464908 
L 269.924097 -129.187316 
L 269.14845 -129.917019 
L 268.372804 -130.654088 
L 267.597158 -131.398599 
L 266.821511 -132.150627 
L 266.045865 -132.910247 
L 265.270218 -133.677536 
L 264.494572 -134.452572 
L 263.718926 -135.235433 
L 262.943279 -136.026197 
L 262.167633 -136.824945 
L 261.391987 -137.631757 
L 260.61634 -138.446714 
L 259.840694 -139.269899 
L 259.065047 -140.101395 
L 258.289401 -140.941285 
L 257.513755 -141.789654 
L 256.738108 -142.646589 
L 255.962462 -143.512175 
L 255.186816 -144.386499 
L 254.411169 -145.26965 
L 253.635523 -146.161717 
L 252.859876 -147.06279 
L 252.08423 -147.97296 
L 251.308584 -148.892318 
L 250.532937 -149.820957 
L 249.757291 -150.758971 
L 248.981645 -151.706454 
L 248.205998 -152.663503 
L 247.430352 -153.630212 
L 246.654705 -154.60668 
L 245.879059 -155.593005 
L 245.103413 -156.589287 
L 244.327766 -157.595626 
L 243.55212 -158.612122 
L 242.776474 -159.63888 
L 242.000827 -160.676001 
L 241.225181 -161.723591 
L 240.449535 -162.781755 
L 239.673888 -163.850599 
L 238.898242 -164.930231 
L 238.122595 -166.020759 
L 237.346949 -167.122294 
L 236.571303 -168.234946 
L 235.795656 -169.358826 
L 235.02001 -170.494049 
L 234.244364 -171.640727 
L 233.468717 -172.798976 
L 232.693071 -173.968912 
L 231.917424 -175.150652 
L 231.141778 -176.344316 
L 230.366132 -177.550022 
L 229.590485 -178.767892 
L 228.814839 -179.998047 
L 228.039193 -181.240611 
L 227.263546 -182.495707 
L 226.4879 -183.763462 
L 225.712253 -185.044001 
L 224.936607 -186.337453 
L 224.160961 -187.643945 
L 223.385314 -188.963609 
L 222.609668 -190.296576 
L 221.834022 -191.642977 
L 221.058375 -193.002947 
L 220.282729 -194.37662 
L 219.507082 -195.764132 
L 218.731436 -197.16562 
L 217.95579 -198.581223 
L 217.180143 -200.011078 
L 216.404497 -201.455327 
L 215.628851 -202.914112 
L 214.853204 -204.387574 
L 214.077558 -205.875857 
L 213.301911 -207.379106 
L 212.526265 -208.897467 
L 211.750619 -210.431085 
L 210.974972 -211.98011 
L 210.199326 -213.544688 
L 209.42368 -215.12497 
L 208.648033 -216.721105 
L 207.872387 -218.333244 
L 207.096741 -219.961538 
L 206.321094 -221.606141 
L 205.545448 -223.267204 
L 204.769801 -224.94488 
L 203.994155 -226.639322 
L 203.218509 -228.350686 
L 202.442862 -230.079123 
L 201.667216 -231.824788 
L 200.89157 -233.587835 
L 200.115923 -235.368417 
L 199.340277 -237.166687 
L 198.56463 -238.982797 
L 197.788984 -240.816898 
L 197.013338 -242.66914 
L 196.237691 -244.539674 
L 195.462045 -246.428644 
L 194.686399 -248.336198 
L 193.910752 -250.262478 
L 193.135106 -252.207625 
L 192.359459 -254.171776 
L 191.583813 -256.155064 
L 190.808167 -258.157621 
L 190.03252 -260.179572 
L 189.256874 -262.221038 
L 188.481228 -264.282133 
L 187.705581 -266.362966 
L 186.929935 -268.463639 
L 186.154288 -270.584246 
L 185.378642 -272.724871 
L 184.602996 -274.88559 
L 183.827349 -277.066468 
L 183.051703 -279.267556 
L 182.276057 -281.488895 
L 181.50041 -283.730508 
L 180.724764 -285.992404 
L 179.949117 -288.274574 
L 179.173471 -290.576989 
L 178.397825 -292.899599 
L 177.622178 -295.242328 
L 176.846532 -297.605077 
L 176.070886 -299.987717 
L 175.295239 -302.390086 
L 174.519593 -304.81199 
L 173.743947 -307.253196 
L 172.9683 -309.713429 
L 172.192654 -312.192369 
L 171.417007 -314.689646 
L 170.641361 -317.204834 
L 169.865715 -319.73745 
L 169.090068 -322.286942 
L 168.314422 -324.852689 
L 167.538776 -327.433989 
L 166.763129 -330.030057 
L 165.987483 -332.640012 
L 165.211836 -335.26287 
L 164.43619 -337.897537 
L 163.660544 -340.542792 
L 162.884897 -343.197285 
L 162.109251 -345.859515 
L 161.333605 -348.527822 
L 160.557958 -351.200373 
L 159.782312 -353.87514 
L 159.006665 -356.549887 
L 158.231019 -359.222152 
L 157.455373 -361.889221 
L 156.679726 -364.548108 
L 155.90408 -367.19553 
L 155.128434 -369.827878 
L 154.352787 -372.44119 
L 153.577141 -375.031115 
L 152.801494 -377.592879 
L 152.025848 -380.121248 
L 151.250202 -382.610481 
L 150.474555 -385.054289 
L 149.698909 -387.44578 
L 148.923263 -389.777409 
L 148.147616 -392.040911 
L 147.37197 -394.227242 
L 146.596323 -396.326505 
L 145.820677 -398.327871 
L 145.045031 -400.219495 
L 144.269384 -401.988421 
L 143.493738 -403.620484 
L 142.718092 -405.100199 
L 141.942445 -406.410634 
L 141.166799 -407.533288 
L 140.391153 -408.447938 
L 139.615506 -409.132491 
L 138.83986 -409.562803 
L 138.064213 -409.7125 
L 137.288567 -409.552771 
L 136.512921 -409.312154 
L 135.737274 -409.666284 
L 134.961628 -409.664455 
L 134.185982 -409.262727 
L 133.410335 -409.487549 
L 132.634689 -409.7125 
L 131.859042 -409.465025 
L 131.083396 -409.08354 
L 130.30775 -409.638345 
L 129.532103 -409.633692 
L 128.756457 -408.957529 
L 127.980811 -409.327694 
L 127.205164 -409.7125 
L 126.429518 -409.259295 
L 125.653871 -407.736254 
L 124.878225 -404.849953 
L 124.102579 -400.229021 
L 123.326932 -393.403462 
L 122.551286 -383.778487 
L 121.77564 -370.601404 
L 120.999993 -352.919723 
L 120.224347 -329.528148 
L 119.4487 -298.901503 
L 118.673054 -259.109866 
L 117.897408 -207.711183 
L 117.121761 -141.615391 
z
" style="stroke: #73c476; stroke-opacity: 0.3"/>
    </defs>
    <g clip-path="url(#p4e2c32b758)">
     <use xlink:href="#mca9d109607" x="0" y="452.1925" style="fill: #73c476; fill-opacity: 0.3; stroke: #73c476; stroke-opacity: 0.3"/>
    </g>
   </g>
   <g id="matplotlib.axis_1">
    <g id="xtick_1">
     <g id="line2d_1">
      <defs>
       <path id="m0994af1e62" d="M 0 0 
L 0 3.5 
" style="stroke: #000000; stroke-width: 0.8"/>
      </defs>
      <g>
       <use xlink:href="#m0994af1e62" x="116.346115" y="395.28" style="stroke: #000000; stroke-width: 0.8"/>
      </g>
     </g>
     <g id="text_1">
      <!-- 0 -->
      <g transform="translate(109.983615 417.476875) scale(0.2 -0.2)">
       <defs>
        <path id="DejaVuSans-30" d="M 2034 4250 
Q 1547 4250 1301 3770 
Q 1056 3291 1056 2328 
Q 1056 1369 1301 889 
Q 1547 409 2034 409 
Q 2525 409 2770 889 
Q 3016 1369 3016 2328 
Q 3016 3291 2770 3770 
Q 2525 4250 2034 4250 
z
M 2034 4750 
Q 2819 4750 3233 4129 
Q 3647 3509 3647 2328 
Q 3647 1150 3233 529 
Q 2819 -91 2034 -91 
Q 1250 -91 836 529 
Q 422 1150 422 2328 
Q 422 3509 836 4129 
Q 1250 4750 2034 4750 
z
" transform="scale(0.015625)"/>
       </defs>
       <use xlink:href="#DejaVuSans-30"/>
      </g>
     </g>
    </g>
    <g id="xtick_2">
     <g id="line2d_2">
      <g>
       <use xlink:href="#m0994af1e62" x="193.910752" y="395.28" style="stroke: #000000; stroke-width: 0.8"/>
      </g>
     </g>
     <g id="text_2">
      <!-- 100 -->
      <g transform="translate(174.823252 417.476875) scale(0.2 -0.2)">
       <defs>
        <path id="DejaVuSans-31" d="M 794 531 
L 1825 531 
L 1825 4091 
L 703 3866 
L 703 4441 
L 1819 4666 
L 2450 4666 
L 2450 531 
L 3481 531 
L 3481 0 
L 794 0 
L 794 531 
z
" transform="scale(0.015625)"/>
       </defs>
       <use xlink:href="#DejaVuSans-31"/>
       <use xlink:href="#DejaVuSans-30" x="63.623047"/>
       <use xlink:href="#DejaVuSans-30" x="127.246094"/>
      </g>
     </g>
    </g>
    <g id="xtick_3">
     <g id="line2d_3">
      <g>
       <use xlink:href="#m0994af1e62" x="271.475389" y="395.28" style="stroke: #000000; stroke-width: 0.8"/>
      </g>
     </g>
     <g id="text_3">
      <!-- 200 -->
      <g transform="translate(252.387889 417.476875) scale(0.2 -0.2)">
       <defs>
        <path id="DejaVuSans-32" d="M 1228 531 
L 3431 531 
L 3431 0 
L 469 0 
L 469 531 
Q 828 903 1448 1529 
Q 2069 2156 2228 2338 
Q 2531 2678 2651 2914 
Q 2772 3150 2772 3378 
Q 2772 3750 2511 3984 
Q 2250 4219 1831 4219 
Q 1534 4219 1204 4116 
Q 875 4013 500 3803 
L 500 4441 
Q 881 4594 1212 4672 
Q 1544 4750 1819 4750 
Q 2544 4750 2975 4387 
Q 3406 4025 3406 3419 
Q 3406 3131 3298 2873 
Q 3191 2616 2906 2266 
Q 2828 2175 2409 1742 
Q 1991 1309 1228 531 
z
" transform="scale(0.015625)"/>
       </defs>
       <use xlink:href="#DejaVuSans-32"/>
       <use xlink:href="#DejaVuSans-30" x="63.623047"/>
       <use xlink:href="#DejaVuSans-30" x="127.246094"/>
      </g>
     </g>
    </g>
    <g id="xtick_4">
     <g id="line2d_4">
      <g>
       <use xlink:href="#m0994af1e62" x="349.040027" y="395.28" style="stroke: #000000; stroke-width: 0.8"/>
      </g>
     </g>
     <g id="text_4">
      <!-- 300 -->
      <g transform="translate(329.952527 417.476875) scale(0.2 -0.2)">
       <defs>
        <path id="DejaVuSans-33" d="M 2597 2516 
Q 3050 2419 3304 2112 
Q 3559 1806 3559 1356 
Q 3559 666 3084 287 
Q 2609 -91 1734 -91 
Q 1441 -91 1130 -33 
Q 819 25 488 141 
L 488 750 
Q 750 597 1062 519 
Q 1375 441 1716 441 
Q 2309 441 2620 675 
Q 2931 909 2931 1356 
Q 2931 1769 2642 2001 
Q 2353 2234 1838 2234 
L 1294 2234 
L 1294 2753 
L 1863 2753 
Q 2328 2753 2575 2939 
Q 2822 3125 2822 3475 
Q 2822 3834 2567 4026 
Q 2313 4219 1838 4219 
Q 1578 4219 1281 4162 
Q 984 4106 628 3988 
L 628 4550 
Q 988 4650 1302 4700 
Q 1616 4750 1894 4750 
Q 2613 4750 3031 4423 
Q 3450 4097 3450 3541 
Q 3450 3153 3228 2886 
Q 3006 2619 2597 2516 
z
" transform="scale(0.015625)"/>
       </defs>
       <use xlink:href="#DejaVuSans-33"/>
       <use xlink:href="#DejaVuSans-30" x="63.623047"/>
       <use xlink:href="#DejaVuSans-30" x="127.246094"/>
      </g>
     </g>
    </g>
    <g id="xtick_5">
     <g id="line2d_5">
      <g>
       <use xlink:href="#m0994af1e62" x="426.604664" y="395.28" style="stroke: #000000; stroke-width: 0.8"/>
      </g>
     </g>
     <g id="text_5">
      <!-- 400 -->
      <g transform="translate(407.517164 417.476875) scale(0.2 -0.2)">
       <defs>
        <path id="DejaVuSans-34" d="M 2419 4116 
L 825 1625 
L 2419 1625 
L 2419 4116 
z
M 2253 4666 
L 3047 4666 
L 3047 1625 
L 3713 1625 
L 3713 1100 
L 3047 1100 
L 3047 0 
L 2419 0 
L 2419 1100 
L 313 1100 
L 313 1709 
L 2253 4666 
z
" transform="scale(0.015625)"/>
       </defs>
       <use xlink:href="#DejaVuSans-34"/>
       <use xlink:href="#DejaVuSans-30" x="63.623047"/>
       <use xlink:href="#DejaVuSans-30" x="127.246094"/>
      </g>
     </g>
    </g>
    <g id="xtick_6">
     <g id="line2d_6">
      <g>
       <use xlink:href="#m0994af1e62" x="504.169301" y="395.28" style="stroke: #000000; stroke-width: 0.8"/>
      </g>
     </g>
     <g id="text_6">
      <!-- 500 -->
      <g transform="translate(485.081801 417.476875) scale(0.2 -0.2)">
       <defs>
        <path id="DejaVuSans-35" d="M 691 4666 
L 3169 4666 
L 3169 4134 
L 1269 4134 
L 1269 2991 
Q 1406 3038 1543 3061 
Q 1681 3084 1819 3084 
Q 2600 3084 3056 2656 
Q 3513 2228 3513 1497 
Q 3513 744 3044 326 
Q 2575 -91 1722 -91 
Q 1428 -91 1123 -41 
Q 819 9 494 109 
L 494 744 
Q 775 591 1075 516 
Q 1375 441 1709 441 
Q 2250 441 2565 725 
Q 2881 1009 2881 1497 
Q 2881 1984 2565 2268 
Q 2250 2553 1709 2553 
Q 1456 2553 1204 2497 
Q 953 2441 691 2322 
L 691 4666 
z
" transform="scale(0.015625)"/>
       </defs>
       <use xlink:href="#DejaVuSans-35"/>
       <use xlink:href="#DejaVuSans-30" x="63.623047"/>
       <use xlink:href="#DejaVuSans-30" x="127.246094"/>
      </g>
     </g>
    </g>
    <g id="xtick_7">
     <g id="line2d_7">
      <g>
       <use xlink:href="#m0994af1e62" x="581.733938" y="395.28" style="stroke: #000000; stroke-width: 0.8"/>
      </g>
     </g>
     <g id="text_7">
      <!-- 600 -->
      <g transform="translate(562.646438 417.476875) scale(0.2 -0.2)">
       <defs>
        <path id="DejaVuSans-36" d="M 2113 2584 
Q 1688 2584 1439 2293 
Q 1191 2003 1191 1497 
Q 1191 994 1439 701 
Q 1688 409 2113 409 
Q 2538 409 2786 701 
Q 3034 994 3034 1497 
Q 3034 2003 2786 2293 
Q 2538 2584 2113 2584 
z
M 3366 4563 
L 3366 3988 
Q 3128 4100 2886 4159 
Q 2644 4219 2406 4219 
Q 1781 4219 1451 3797 
Q 1122 3375 1075 2522 
Q 1259 2794 1537 2939 
Q 1816 3084 2150 3084 
Q 2853 3084 3261 2657 
Q 3669 2231 3669 1497 
Q 3669 778 3244 343 
Q 2819 -91 2113 -91 
Q 1303 -91 875 529 
Q 447 1150 447 2328 
Q 447 3434 972 4092 
Q 1497 4750 2381 4750 
Q 2619 4750 2861 4703 
Q 3103 4656 3366 4563 
z
" transform="scale(0.015625)"/>
       </defs>
       <use xlink:href="#DejaVuSans-36"/>
       <use xlink:href="#DejaVuSans-30" x="63.623047"/>
       <use xlink:href="#DejaVuSans-30" x="127.246094"/>
      </g>
     </g>
    </g>
    <g id="text_8">
     <!-- Days since antigen exposure -->
     <g transform="translate(226.337813 440.833125) scale(0.2 -0.2)">
      <defs>
       <path id="DejaVuSans-44" d="M 1259 4147 
L 1259 519 
L 2022 519 
Q 2988 519 3436 956 
Q 3884 1394 3884 2338 
Q 3884 3275 3436 3711 
Q 2988 4147 2022 4147 
L 1259 4147 
z
M 628 4666 
L 1925 4666 
Q 3281 4666 3915 4102 
Q 4550 3538 4550 2338 
Q 4550 1131 3912 565 
Q 3275 0 1925 0 
L 628 0 
L 628 4666 
z
" transform="scale(0.015625)"/>
       <path id="DejaVuSans-61" d="M 2194 1759 
Q 1497 1759 1228 1600 
Q 959 1441 959 1056 
Q 959 750 1161 570 
Q 1363 391 1709 391 
Q 2188 391 2477 730 
Q 2766 1069 2766 1631 
L 2766 1759 
L 2194 1759 
z
M 3341 1997 
L 3341 0 
L 2766 0 
L 2766 531 
Q 2569 213 2275 61 
Q 1981 -91 1556 -91 
Q 1019 -91 701 211 
Q 384 513 384 1019 
Q 384 1609 779 1909 
Q 1175 2209 1959 2209 
L 2766 2209 
L 2766 2266 
Q 2766 2663 2505 2880 
Q 2244 3097 1772 3097 
Q 1472 3097 1187 3025 
Q 903 2953 641 2809 
L 641 3341 
Q 956 3463 1253 3523 
Q 1550 3584 1831 3584 
Q 2591 3584 2966 3190 
Q 3341 2797 3341 1997 
z
" transform="scale(0.015625)"/>
       <path id="DejaVuSans-79" d="M 2059 -325 
Q 1816 -950 1584 -1140 
Q 1353 -1331 966 -1331 
L 506 -1331 
L 506 -850 
L 844 -850 
Q 1081 -850 1212 -737 
Q 1344 -625 1503 -206 
L 1606 56 
L 191 3500 
L 800 3500 
L 1894 763 
L 2988 3500 
L 3597 3500 
L 2059 -325 
z
" transform="scale(0.015625)"/>
       <path id="DejaVuSans-73" d="M 2834 3397 
L 2834 2853 
Q 2591 2978 2328 3040 
Q 2066 3103 1784 3103 
Q 1356 3103 1142 2972 
Q 928 2841 928 2578 
Q 928 2378 1081 2264 
Q 1234 2150 1697 2047 
L 1894 2003 
Q 2506 1872 2764 1633 
Q 3022 1394 3022 966 
Q 3022 478 2636 193 
Q 2250 -91 1575 -91 
Q 1294 -91 989 -36 
Q 684 19 347 128 
L 347 722 
Q 666 556 975 473 
Q 1284 391 1588 391 
Q 1994 391 2212 530 
Q 2431 669 2431 922 
Q 2431 1156 2273 1281 
Q 2116 1406 1581 1522 
L 1381 1569 
Q 847 1681 609 1914 
Q 372 2147 372 2553 
Q 372 3047 722 3315 
Q 1072 3584 1716 3584 
Q 2034 3584 2315 3537 
Q 2597 3491 2834 3397 
z
" transform="scale(0.015625)"/>
       <path id="DejaVuSans-20" transform="scale(0.015625)"/>
       <path id="DejaVuSans-69" d="M 603 3500 
L 1178 3500 
L 1178 0 
L 603 0 
L 603 3500 
z
M 603 4863 
L 1178 4863 
L 1178 4134 
L 603 4134 
L 603 4863 
z
" transform="scale(0.015625)"/>
       <path id="DejaVuSans-6e" d="M 3513 2113 
L 3513 0 
L 2938 0 
L 2938 2094 
Q 2938 2591 2744 2837 
Q 2550 3084 2163 3084 
Q 1697 3084 1428 2787 
Q 1159 2491 1159 1978 
L 1159 0 
L 581 0 
L 581 3500 
L 1159 3500 
L 1159 2956 
Q 1366 3272 1645 3428 
Q 1925 3584 2291 3584 
Q 2894 3584 3203 3211 
Q 3513 2838 3513 2113 
z
" transform="scale(0.015625)"/>
       <path id="DejaVuSans-63" d="M 3122 3366 
L 3122 2828 
Q 2878 2963 2633 3030 
Q 2388 3097 2138 3097 
Q 1578 3097 1268 2742 
Q 959 2388 959 1747 
Q 959 1106 1268 751 
Q 1578 397 2138 397 
Q 2388 397 2633 464 
Q 2878 531 3122 666 
L 3122 134 
Q 2881 22 2623 -34 
Q 2366 -91 2075 -91 
Q 1284 -91 818 406 
Q 353 903 353 1747 
Q 353 2603 823 3093 
Q 1294 3584 2113 3584 
Q 2378 3584 2631 3529 
Q 2884 3475 3122 3366 
z
" transform="scale(0.015625)"/>
       <path id="DejaVuSans-65" d="M 3597 1894 
L 3597 1613 
L 953 1613 
Q 991 1019 1311 708 
Q 1631 397 2203 397 
Q 2534 397 2845 478 
Q 3156 559 3463 722 
L 3463 178 
Q 3153 47 2828 -22 
Q 2503 -91 2169 -91 
Q 1331 -91 842 396 
Q 353 884 353 1716 
Q 353 2575 817 3079 
Q 1281 3584 2069 3584 
Q 2775 3584 3186 3129 
Q 3597 2675 3597 1894 
z
M 3022 2063 
Q 3016 2534 2758 2815 
Q 2500 3097 2075 3097 
Q 1594 3097 1305 2825 
Q 1016 2553 972 2059 
L 3022 2063 
z
" transform="scale(0.015625)"/>
       <path id="DejaVuSans-74" d="M 1172 4494 
L 1172 3500 
L 2356 3500 
L 2356 3053 
L 1172 3053 
L 1172 1153 
Q 1172 725 1289 603 
Q 1406 481 1766 481 
L 2356 481 
L 2356 0 
L 1766 0 
Q 1100 0 847 248 
Q 594 497 594 1153 
L 594 3053 
L 172 3053 
L 172 3500 
L 594 3500 
L 594 4494 
L 1172 4494 
z
" transform="scale(0.015625)"/>
       <path id="DejaVuSans-67" d="M 2906 1791 
Q 2906 2416 2648 2759 
Q 2391 3103 1925 3103 
Q 1463 3103 1205 2759 
Q 947 2416 947 1791 
Q 947 1169 1205 825 
Q 1463 481 1925 481 
Q 2391 481 2648 825 
Q 2906 1169 2906 1791 
z
M 3481 434 
Q 3481 -459 3084 -895 
Q 2688 -1331 1869 -1331 
Q 1566 -1331 1297 -1286 
Q 1028 -1241 775 -1147 
L 775 -588 
Q 1028 -725 1275 -790 
Q 1522 -856 1778 -856 
Q 2344 -856 2625 -561 
Q 2906 -266 2906 331 
L 2906 616 
Q 2728 306 2450 153 
Q 2172 0 1784 0 
Q 1141 0 747 490 
Q 353 981 353 1791 
Q 353 2603 747 3093 
Q 1141 3584 1784 3584 
Q 2172 3584 2450 3431 
Q 2728 3278 2906 2969 
L 2906 3500 
L 3481 3500 
L 3481 434 
z
" transform="scale(0.015625)"/>
       <path id="DejaVuSans-78" d="M 3513 3500 
L 2247 1797 
L 3578 0 
L 2900 0 
L 1881 1375 
L 863 0 
L 184 0 
L 1544 1831 
L 300 3500 
L 978 3500 
L 1906 2253 
L 2834 3500 
L 3513 3500 
z
" transform="scale(0.015625)"/>
       <path id="DejaVuSans-70" d="M 1159 525 
L 1159 -1331 
L 581 -1331 
L 581 3500 
L 1159 3500 
L 1159 2969 
Q 1341 3281 1617 3432 
Q 1894 3584 2278 3584 
Q 2916 3584 3314 3078 
Q 3713 2572 3713 1747 
Q 3713 922 3314 415 
Q 2916 -91 2278 -91 
Q 1894 -91 1617 61 
Q 1341 213 1159 525 
z
M 3116 1747 
Q 3116 2381 2855 2742 
Q 2594 3103 2138 3103 
Q 1681 3103 1420 2742 
Q 1159 2381 1159 1747 
Q 1159 1113 1420 752 
Q 1681 391 2138 391 
Q 2594 391 2855 752 
Q 3116 1113 3116 1747 
z
" transform="scale(0.015625)"/>
       <path id="DejaVuSans-6f" d="M 1959 3097 
Q 1497 3097 1228 2736 
Q 959 2375 959 1747 
Q 959 1119 1226 758 
Q 1494 397 1959 397 
Q 2419 397 2687 759 
Q 2956 1122 2956 1747 
Q 2956 2369 2687 2733 
Q 2419 3097 1959 3097 
z
M 1959 3584 
Q 2709 3584 3137 3096 
Q 3566 2609 3566 1747 
Q 3566 888 3137 398 
Q 2709 -91 1959 -91 
Q 1206 -91 779 398 
Q 353 888 353 1747 
Q 353 2609 779 3096 
Q 1206 3584 1959 3584 
z
" transform="scale(0.015625)"/>
       <path id="DejaVuSans-75" d="M 544 1381 
L 544 3500 
L 1119 3500 
L 1119 1403 
Q 1119 906 1312 657 
Q 1506 409 1894 409 
Q 2359 409 2629 706 
Q 2900 1003 2900 1516 
L 2900 3500 
L 3475 3500 
L 3475 0 
L 2900 0 
L 2900 538 
Q 2691 219 2414 64 
Q 2138 -91 1772 -91 
Q 1169 -91 856 284 
Q 544 659 544 1381 
z
M 1991 3584 
L 1991 3584 
z
" transform="scale(0.015625)"/>
       <path id="DejaVuSans-72" d="M 2631 2963 
Q 2534 3019 2420 3045 
Q 2306 3072 2169 3072 
Q 1681 3072 1420 2755 
Q 1159 2438 1159 1844 
L 1159 0 
L 581 0 
L 581 3500 
L 1159 3500 
L 1159 2956 
Q 1341 3275 1631 3429 
Q 1922 3584 2338 3584 
Q 2397 3584 2469 3576 
Q 2541 3569 2628 3553 
L 2631 2963 
z
" transform="scale(0.015625)"/>
      </defs>
      <use xlink:href="#DejaVuSans-44"/>
      <use xlink:href="#DejaVuSans-61" x="77.001953"/>
      <use xlink:href="#DejaVuSans-79" x="138.28125"/>
      <use xlink:href="#DejaVuSans-73" x="197.460938"/>
      <use xlink:href="#DejaVuSans-20" x="249.560547"/>
      <use xlink:href="#DejaVuSans-73" x="281.347656"/>
      <use xlink:href="#DejaVuSans-69" x="333.447266"/>
      <use xlink:href="#DejaVuSans-6e" x="361.230469"/>
      <use xlink:href="#DejaVuSans-63" x="424.609375"/>
      <use xlink:href="#DejaVuSans-65" x="479.589844"/>
      <use xlink:href="#DejaVuSans-20" x="541.113281"/>
      <use xlink:href="#DejaVuSans-61" x="572.900391"/>
      <use xlink:href="#DejaVuSans-6e" x="634.179688"/>
      <use xlink:href="#DejaVuSans-74" x="697.558594"/>
      <use xlink:href="#DejaVuSans-69" x="736.767578"/>
      <use xlink:href="#DejaVuSans-67" x="764.550781"/>
      <use xlink:href="#DejaVuSans-65" x="828.027344"/>
      <use xlink:href="#DejaVuSans-6e" x="889.550781"/>
      <use xlink:href="#DejaVuSans-20" x="952.929688"/>
      <use xlink:href="#DejaVuSans-65" x="984.716797"/>
      <use xlink:href="#DejaVuSans-78" x="1044.490234"/>
      <use xlink:href="#DejaVuSans-70" x="1103.669922"/>
      <use xlink:href="#DejaVuSans-6f" x="1167.146484"/>
      <use xlink:href="#DejaVuSans-73" x="1228.328125"/>
      <use xlink:href="#DejaVuSans-75" x="1280.427734"/>
      <use xlink:href="#DejaVuSans-72" x="1343.806641"/>
      <use xlink:href="#DejaVuSans-65" x="1382.669922"/>
     </g>
    </g>
   </g>
   <g id="matplotlib.axis_2">
    <g id="ytick_1">
     <g id="line2d_8">
      <defs>
       <path id="m8276e3cd67" d="M 0 0 
L -3.5 0 
" style="stroke: #000000; stroke-width: 0.8"/>
      </defs>
      <g>
       <use xlink:href="#m8276e3cd67" x="91.758125" y="395.28" style="stroke: #000000; stroke-width: 0.8"/>
      </g>
     </g>
     <g id="text_9">
      <!-- 0.0 -->
      <g transform="translate(52.951875 402.878438) scale(0.2 -0.2)">
       <defs>
        <path id="DejaVuSans-2e" d="M 684 794 
L 1344 794 
L 1344 0 
L 684 0 
L 684 794 
z
" transform="scale(0.015625)"/>
       </defs>
       <use xlink:href="#DejaVuSans-30"/>
       <use xlink:href="#DejaVuSans-2e" x="63.623047"/>
       <use xlink:href="#DejaVuSans-30" x="95.410156"/>
      </g>
     </g>
    </g>
    <g id="ytick_2">
     <g id="line2d_9">
      <g>
       <use xlink:href="#m8276e3cd67" x="91.758125" y="324.72" style="stroke: #000000; stroke-width: 0.8"/>
      </g>
     </g>
     <g id="text_10">
      <!-- 0.2 -->
      <g transform="translate(52.951875 332.318438) scale(0.2 -0.2)">
       <use xlink:href="#DejaVuSans-30"/>
       <use xlink:href="#DejaVuSans-2e" x="63.623047"/>
       <use xlink:href="#DejaVuSans-32" x="95.410156"/>
      </g>
     </g>
    </g>
    <g id="ytick_3">
     <g id="line2d_10">
      <g>
       <use xlink:href="#m8276e3cd67" x="91.758125" y="254.16" style="stroke: #000000; stroke-width: 0.8"/>
      </g>
     </g>
     <g id="text_11">
      <!-- 0.4 -->
      <g transform="translate(52.951875 261.758438) scale(0.2 -0.2)">
       <use xlink:href="#DejaVuSans-30"/>
       <use xlink:href="#DejaVuSans-2e" x="63.623047"/>
       <use xlink:href="#DejaVuSans-34" x="95.410156"/>
      </g>
     </g>
    </g>
    <g id="ytick_4">
     <g id="line2d_11">
      <g>
       <use xlink:href="#m8276e3cd67" x="91.758125" y="183.6" style="stroke: #000000; stroke-width: 0.8"/>
      </g>
     </g>
     <g id="text_12">
      <!-- 0.6 -->
      <g transform="translate(52.951875 191.198437) scale(0.2 -0.2)">
       <use xlink:href="#DejaVuSans-30"/>
       <use xlink:href="#DejaVuSans-2e" x="63.623047"/>
       <use xlink:href="#DejaVuSans-36" x="95.410156"/>
      </g>
     </g>
    </g>
    <g id="ytick_5">
     <g id="line2d_12">
      <g>
       <use xlink:href="#m8276e3cd67" x="91.758125" y="113.04" style="stroke: #000000; stroke-width: 0.8"/>
      </g>
     </g>
     <g id="text_13">
      <!-- 0.8 -->
      <g transform="translate(52.951875 120.638438) scale(0.2 -0.2)">
       <defs>
        <path id="DejaVuSans-38" d="M 2034 2216 
Q 1584 2216 1326 1975 
Q 1069 1734 1069 1313 
Q 1069 891 1326 650 
Q 1584 409 2034 409 
Q 2484 409 2743 651 
Q 3003 894 3003 1313 
Q 3003 1734 2745 1975 
Q 2488 2216 2034 2216 
z
M 1403 2484 
Q 997 2584 770 2862 
Q 544 3141 544 3541 
Q 544 4100 942 4425 
Q 1341 4750 2034 4750 
Q 2731 4750 3128 4425 
Q 3525 4100 3525 3541 
Q 3525 3141 3298 2862 
Q 3072 2584 2669 2484 
Q 3125 2378 3379 2068 
Q 3634 1759 3634 1313 
Q 3634 634 3220 271 
Q 2806 -91 2034 -91 
Q 1263 -91 848 271 
Q 434 634 434 1313 
Q 434 1759 690 2068 
Q 947 2378 1403 2484 
z
M 1172 3481 
Q 1172 3119 1398 2916 
Q 1625 2713 2034 2713 
Q 2441 2713 2670 2916 
Q 2900 3119 2900 3481 
Q 2900 3844 2670 4047 
Q 2441 4250 2034 4250 
Q 1625 4250 1398 4047 
Q 1172 3844 1172 3481 
z
" transform="scale(0.015625)"/>
       </defs>
       <use xlink:href="#DejaVuSans-30"/>
       <use xlink:href="#DejaVuSans-2e" x="63.623047"/>
       <use xlink:href="#DejaVuSans-38" x="95.410156"/>
      </g>
     </g>
    </g>
    <g id="ytick_6">
     <g id="line2d_13">
      <g>
       <use xlink:href="#m8276e3cd67" x="91.758125" y="42.48" style="stroke: #000000; stroke-width: 0.8"/>
      </g>
     </g>
     <g id="text_14">
      <!-- 1.0 -->
      <g transform="translate(52.951875 50.078438) scale(0.2 -0.2)">
       <use xlink:href="#DejaVuSans-31"/>
       <use xlink:href="#DejaVuSans-2e" x="63.623047"/>
       <use xlink:href="#DejaVuSans-30" x="95.410156"/>
      </g>
     </g>
    </g>
    <g id="text_15">
     <!-- Virus neutralization -->
     <g transform="translate(22.396875 298.544688) rotate(-90) scale(0.2 -0.2)">
      <defs>
       <path id="DejaVuSans-56" d="M 1831 0 
L 50 4666 
L 709 4666 
L 2188 738 
L 3669 4666 
L 4325 4666 
L 2547 0 
L 1831 0 
z
" transform="scale(0.015625)"/>
       <path id="DejaVuSans-6c" d="M 603 4863 
L 1178 4863 
L 1178 0 
L 603 0 
L 603 4863 
z
" transform="scale(0.015625)"/>
       <path id="DejaVuSans-7a" d="M 353 3500 
L 3084 3500 
L 3084 2975 
L 922 459 
L 3084 459 
L 3084 0 
L 275 0 
L 275 525 
L 2438 3041 
L 353 3041 
L 353 3500 
z
" transform="scale(0.015625)"/>
      </defs>
      <use xlink:href="#DejaVuSans-56"/>
      <use xlink:href="#DejaVuSans-69" x="66.158203"/>
      <use xlink:href="#DejaVuSans-72" x="93.941406"/>
      <use xlink:href="#DejaVuSans-75" x="135.054688"/>
      <use xlink:href="#DejaVuSans-73" x="198.433594"/>
      <use xlink:href="#DejaVuSans-20" x="250.533203"/>
      <use xlink:href="#DejaVuSans-6e" x="282.320312"/>
      <use xlink:href="#DejaVuSans-65" x="345.699219"/>
      <use xlink:href="#DejaVuSans-75" x="407.222656"/>
      <use xlink:href="#DejaVuSans-74" x="470.601562"/>
      <use xlink:href="#DejaVuSans-72" x="509.810547"/>
      <use xlink:href="#DejaVuSans-61" x="550.923828"/>
      <use xlink:href="#DejaVuSans-6c" x="612.203125"/>
      <use xlink:href="#DejaVuSans-69" x="639.986328"/>
      <use xlink:href="#DejaVuSans-7a" x="667.769531"/>
      <use xlink:href="#DejaVuSans-61" x="720.259766"/>
      <use xlink:href="#DejaVuSans-74" x="781.539062"/>
      <use xlink:href="#DejaVuSans-69" x="820.748047"/>
      <use xlink:href="#DejaVuSans-6f" x="848.53125"/>
      <use xlink:href="#DejaVuSans-6e" x="909.712891"/>
     </g>
     <!--  probability -->
     <g transform="translate(44.7925 257.769688) rotate(-90) scale(0.2 -0.2)">
      <defs>
       <path id="DejaVuSans-62" d="M 3116 1747 
Q 3116 2381 2855 2742 
Q 2594 3103 2138 3103 
Q 1681 3103 1420 2742 
Q 1159 2381 1159 1747 
Q 1159 1113 1420 752 
Q 1681 391 2138 391 
Q 2594 391 2855 752 
Q 3116 1113 3116 1747 
z
M 1159 2969 
Q 1341 3281 1617 3432 
Q 1894 3584 2278 3584 
Q 2916 3584 3314 3078 
Q 3713 2572 3713 1747 
Q 3713 922 3314 415 
Q 2916 -91 2278 -91 
Q 1894 -91 1617 61 
Q 1341 213 1159 525 
L 1159 0 
L 581 0 
L 581 4863 
L 1159 4863 
L 1159 2969 
z
" transform="scale(0.015625)"/>
      </defs>
      <use xlink:href="#DejaVuSans-20"/>
      <use xlink:href="#DejaVuSans-70" x="31.787109"/>
      <use xlink:href="#DejaVuSans-72" x="95.263672"/>
      <use xlink:href="#DejaVuSans-6f" x="134.126953"/>
      <use xlink:href="#DejaVuSans-62" x="195.308594"/>
      <use xlink:href="#DejaVuSans-61" x="258.785156"/>
      <use xlink:href="#DejaVuSans-62" x="320.064453"/>
      <use xlink:href="#DejaVuSans-69" x="383.541016"/>
      <use xlink:href="#DejaVuSans-6c" x="411.324219"/>
      <use xlink:href="#DejaVuSans-69" x="439.107422"/>
      <use xlink:href="#DejaVuSans-74" x="466.890625"/>
      <use xlink:href="#DejaVuSans-79" x="506.099609"/>
     </g>
    </g>
   </g>
   <g id="patch_3">
    <path d="M 91.758125 395.28 
L 91.758125 7.2 
" style="fill: none; stroke: #000000; stroke-width: 0.8; stroke-linejoin: miter; stroke-linecap: square"/>
   </g>
   <g id="patch_4">
    <path d="M 649.758125 395.28 
L 649.758125 7.2 
" style="fill: none; stroke: #000000; stroke-width: 0.8; stroke-linejoin: miter; stroke-linecap: square"/>
   </g>
   <g id="patch_5">
    <path d="M 91.758125 395.28 
L 649.758125 395.28 
" style="fill: none; stroke: #000000; stroke-width: 0.8; stroke-linejoin: miter; stroke-linecap: square"/>
   </g>
   <g id="patch_6">
    <path d="M 91.758125 7.2 
L 649.758125 7.2 
" style="fill: none; stroke: #000000; stroke-width: 0.8; stroke-linejoin: miter; stroke-linecap: square"/>
   </g>
   <g id="legend_1">
    <g id="patch_7">
     <path d="M 765.358125 395.28 
L 1037.8175 395.28 
Q 1041.8175 395.28 1041.8175 391.28 
L 1041.8175 363.92375 
Q 1041.8175 359.92375 1037.8175 359.92375 
L 765.358125 359.92375 
Q 761.358125 359.92375 761.358125 363.92375 
L 761.358125 391.28 
Q 761.358125 395.28 765.358125 395.28 
z
" style="fill: #ffffff; opacity: 0.8; stroke: #cccccc; stroke-linejoin: miter"/>
    </g>
    <g id="patch_8">
     <path d="M 769.358125 383.120625 
L 809.358125 383.120625 
L 809.358125 369.120625 
L 769.358125 369.120625 
z
" style="fill: #73c476; fill-opacity: 0.3; stroke: #73c476; stroke-opacity: 0.3; stroke-linejoin: miter"/>
    </g>
    <g id="text_16">
     <!-- Epitopes PK (ranges) -->
     <g transform="translate(825.358125 383.120625) scale(0.2 -0.2)">
      <defs>
       <path id="DejaVuSans-45" d="M 628 4666 
L 3578 4666 
L 3578 4134 
L 1259 4134 
L 1259 2753 
L 3481 2753 
L 3481 2222 
L 1259 2222 
L 1259 531 
L 3634 531 
L 3634 0 
L 628 0 
L 628 4666 
z
" transform="scale(0.015625)"/>
       <path id="DejaVuSans-50" d="M 1259 4147 
L 1259 2394 
L 2053 2394 
Q 2494 2394 2734 2622 
Q 2975 2850 2975 3272 
Q 2975 3691 2734 3919 
Q 2494 4147 2053 4147 
L 1259 4147 
z
M 628 4666 
L 2053 4666 
Q 2838 4666 3239 4311 
Q 3641 3956 3641 3272 
Q 3641 2581 3239 2228 
Q 2838 1875 2053 1875 
L 1259 1875 
L 1259 0 
L 628 0 
L 628 4666 
z
" transform="scale(0.015625)"/>
       <path id="DejaVuSans-4b" d="M 628 4666 
L 1259 4666 
L 1259 2694 
L 3353 4666 
L 4166 4666 
L 1850 2491 
L 4331 0 
L 3500 0 
L 1259 2247 
L 1259 0 
L 628 0 
L 628 4666 
z
" transform="scale(0.015625)"/>
       <path id="DejaVuSans-28" d="M 1984 4856 
Q 1566 4138 1362 3434 
Q 1159 2731 1159 2009 
Q 1159 1288 1364 580 
Q 1569 -128 1984 -844 
L 1484 -844 
Q 1016 -109 783 600 
Q 550 1309 550 2009 
Q 550 2706 781 3412 
Q 1013 4119 1484 4856 
L 1984 4856 
z
" transform="scale(0.015625)"/>
       <path id="DejaVuSans-29" d="M 513 4856 
L 1013 4856 
Q 1481 4119 1714 3412 
Q 1947 2706 1947 2009 
Q 1947 1309 1714 600 
Q 1481 -109 1013 -844 
L 513 -844 
Q 928 -128 1133 580 
Q 1338 1288 1338 2009 
Q 1338 2731 1133 3434 
Q 928 4138 513 4856 
z
" transform="scale(0.015625)"/>
      </defs>
      <use xlink:href="#DejaVuSans-45"/>
      <use xlink:href="#DejaVuSans-70" x="63.183594"/>
      <use xlink:href="#DejaVuSans-69" x="126.660156"/>
      <use xlink:href="#DejaVuSans-74" x="154.443359"/>
      <use xlink:href="#DejaVuSans-6f" x="193.652344"/>
      <use xlink:href="#DejaVuSans-70" x="254.833984"/>
      <use xlink:href="#DejaVuSans-65" x="318.310547"/>
      <use xlink:href="#DejaVuSans-73" x="379.833984"/>
      <use xlink:href="#DejaVuSans-20" x="431.933594"/>
      <use xlink:href="#DejaVuSans-50" x="463.720703"/>
      <use xlink:href="#DejaVuSans-4b" x="524.023438"/>
      <use xlink:href="#DejaVuSans-20" x="589.599609"/>
      <use xlink:href="#DejaVuSans-28" x="621.386719"/>
      <use xlink:href="#DejaVuSans-72" x="660.400391"/>
      <use xlink:href="#DejaVuSans-61" x="701.513672"/>
      <use xlink:href="#DejaVuSans-6e" x="762.792969"/>
      <use xlink:href="#DejaVuSans-67" x="826.171875"/>
      <use xlink:href="#DejaVuSans-65" x="889.648438"/>
      <use xlink:href="#DejaVuSans-73" x="951.171875"/>
      <use xlink:href="#DejaVuSans-29" x="1003.271484"/>
     </g>
    </g>
   </g>
  </g>
 </g>
 <defs>
  <clipPath id="p4e2c32b758">
   <rect x="91.758125" y="7.2" width="558" height="388.08"/>
  </clipPath>
 </defs>
</svg>
