<?xml version="1.0" encoding="utf-8" standalone="no"?>
<!DOCTYPE svg PUBLIC "-//W3C//DTD SVG 1.1//EN"
  "http://www.w3.org/Graphics/SVG/1.1/DTD/svg11.dtd">
<svg xmlns:xlink="http://www.w3.org/1999/xlink" width="919.58pt" height="473.389375pt" viewBox="0 0 919.58 473.389375" xmlns="http://www.w3.org/2000/svg" version="1.1">
 <metadata>
  <rdf:RDF xmlns:dc="http://purl.org/dc/elements/1.1/" xmlns:cc="http://creativecommons.org/ns#" xmlns:rdf="http://www.w3.org/1999/02/22-rdf-syntax-ns#">
   <cc:Work>
    <dc:type rdf:resource="http://purl.org/dc/dcmitype/StillImage"/>
    <dc:date>2023-11-12T17:22:46.980008</dc:date>
    <dc:format>image/svg+xml</dc:format>
    <dc:creator>
     <cc:Agent>
      <dc:title>Matplotlib v3.7.2, https://matplotlib.org/</dc:title>
     </cc:Agent>
    </dc:creator>
   </cc:Work>
  </rdf:RDF>
 </metadata>
 <defs>
  <style type="text/css">*{stroke-linejoin: round; stroke-linecap: butt}</style>
 </defs>
 <g id="figure_1">
  <g id="patch_1">
   <path d="M 0 473.389375 
L 919.58 473.389375 
L 919.58 0 
L 0 0 
z
" style="fill: #ffffff"/>
  </g>
  <g id="axes_1">
   <g id="patch_2">
    <path d="M 104.483125 416.476875 
L 662.483125 416.476875 
L 662.483125 28.396875 
L 104.483125 28.396875 
z
" style="fill: #ffffff"/>
   </g>
   <g id="PolyCollection_1">
    <defs>
     <path id="m6bcc8dd698" d="M 129.846761 -159.228192 
L 129.846761 -98.821182 
L 130.622408 -135.822996 
L 131.398054 -168.588359 
L 132.1737 -197.67341 
L 132.949347 -223.542982 
L 133.724993 -246.588306 
L 134.50064 -267.140807 
L 135.276286 -285.482944 
L 136.051932 -301.856812 
L 136.827579 -316.471015 
L 137.603225 -329.506201 
L 138.378871 -341.119552 
L 139.154518 -351.448449 
L 139.930164 -360.613477 
L 140.705811 -368.720917 
L 141.481457 -375.864803 
L 142.257103 -382.128647 
L 143.03275 -387.586883 
L 143.808396 -392.306083 
L 144.584042 -395.276018 
L 145.359689 -390.987533 
L 146.135335 -386.379501 
L 146.910982 -381.508551 
L 147.686628 -376.423537 
L 148.462274 -371.166684 
L 149.237921 -365.77455 
L 150.013567 -360.278823 
L 150.789213 -354.70699 
L 151.56486 -349.082905 
L 152.340506 -343.427272 
L 153.116153 -337.758051 
L 153.891799 -332.090816 
L 154.667445 -326.439055 
L 155.443092 -320.814434 
L 156.218738 -315.22702 
L 156.994384 -309.685482 
L 157.770031 -304.197263 
L 158.545677 -298.768725 
L 159.321323 -293.405283 
L 160.09697 -288.111519 
L 160.872616 -282.891284 
L 161.648263 -277.747782 
L 162.423909 -272.683651 
L 163.199555 -267.701028 
L 163.975202 -262.801612 
L 164.750848 -257.986714 
L 165.526494 -253.257306 
L 166.302141 -248.614059 
L 167.077787 -244.057381 
L 167.853434 -239.58745 
L 168.62908 -235.204238 
L 169.404726 -230.907542 
L 170.180373 -226.697001 
L 170.956019 -222.572118 
L 171.731665 -218.532276 
L 172.507312 -214.576755 
L 173.282958 -210.704744 
L 174.058605 -206.915354 
L 174.834251 -203.207628 
L 175.609897 -199.580552 
L 176.385544 -196.033061 
L 177.16119 -192.56405 
L 177.936836 -189.172376 
L 178.712483 -185.856868 
L 179.488129 -182.616332 
L 180.263776 -179.449552 
L 181.039422 -176.3553 
L 181.815068 -173.332333 
L 182.590715 -170.379405 
L 183.366361 -167.49526 
L 184.142007 -164.678643 
L 184.917654 -161.928298 
L 185.6933 -159.242972 
L 186.468947 -156.621414 
L 187.244593 -154.062382 
L 188.020239 -151.564639 
L 188.795886 -149.126959 
L 189.571532 -146.748123 
L 190.347178 -144.426926 
L 191.122825 -142.162173 
L 191.898471 -139.952683 
L 192.674117 -137.797288 
L 193.449764 -135.694835 
L 194.22541 -133.644184 
L 195.001057 -131.644212 
L 195.776703 -129.693811 
L 196.552349 -127.791889 
L 197.327996 -125.937371 
L 198.103642 -124.129197 
L 198.879288 -122.366327 
L 199.654935 -120.647734 
L 200.430581 -118.972411 
L 201.206228 -117.339368 
L 201.981874 -115.74763 
L 202.75752 -114.196241 
L 203.533167 -112.684264 
L 204.308813 -111.210775 
L 205.084459 -109.774871 
L 205.860106 -108.375664 
L 206.635752 -107.012285 
L 207.411399 -105.683879 
L 208.187045 -104.389612 
L 208.962691 -103.128662 
L 209.738338 -101.900228 
L 210.513984 -100.703522 
L 211.28963 -99.537774 
L 212.065277 -98.402229 
L 212.840923 -97.29615 
L 213.61657 -96.218813 
L 214.392216 -95.169512 
L 215.167862 -94.147553 
L 215.943509 -93.152261 
L 216.719155 -92.182972 
L 217.494801 -91.23904 
L 218.270448 -90.319832 
L 219.046094 -89.424728 
L 219.821741 -88.553124 
L 220.597387 -87.704429 
L 221.373033 -86.878064 
L 222.14868 -86.073466 
L 222.924326 -85.290083 
L 223.699972 -84.527376 
L 224.475619 -83.784819 
L 225.251265 -83.061899 
L 226.026911 -82.358113 
L 226.802558 -81.672973 
L 227.578204 -81.006 
L 228.353851 -80.356727 
L 229.129497 -79.724699 
L 229.905143 -79.109471 
L 230.68079 -78.510609 
L 231.456436 -77.927691 
L 232.232082 -77.360302 
L 233.007729 -76.808041 
L 233.783375 -76.270514 
L 234.559022 -75.747337 
L 235.334668 -75.238138 
L 236.110314 -74.74255 
L 236.885961 -74.260219 
L 237.661607 -73.790798 
L 238.437253 -73.333948 
L 239.2129 -72.88934 
L 239.988546 -72.456652 
L 240.764193 -72.035572 
L 241.539839 -71.625793 
L 242.315485 -71.227019 
L 243.091132 -70.838958 
L 243.866778 -70.461328 
L 244.642424 -70.093854 
L 245.418071 -69.736267 
L 246.193717 -69.388305 
L 246.969364 -69.049712 
L 247.74501 -68.720242 
L 248.520656 -68.399651 
L 249.296303 -68.087704 
L 250.071949 -67.78417 
L 250.847595 -67.488827 
L 251.623242 -67.201456 
L 252.398888 -66.921844 
L 253.174535 -66.649785 
L 253.950181 -66.385076 
L 254.725827 -66.127523 
L 255.501474 -65.876933 
L 256.27712 -65.633121 
L 257.052766 -65.395905 
L 257.828413 -65.165109 
L 258.604059 -64.94056 
L 259.379705 -64.722091 
L 260.155352 -64.509539 
L 260.930998 -64.302746 
L 261.706645 -64.101557 
L 262.482291 -63.905821 
L 263.257937 -63.715392 
L 264.033584 -63.530126 
L 264.80923 -63.349887 
L 265.584876 -63.174537 
L 266.360523 -63.003945 
L 267.136169 -62.837984 
L 267.911816 -62.676528 
L 268.687462 -62.519456 
L 269.463108 -62.36665 
L 270.238755 -62.217994 
L 271.014401 -62.073378 
L 271.790047 -61.932691 
L 272.565694 -61.795827 
L 273.34134 -61.662684 
L 274.116987 -61.53316 
L 274.892633 -61.407159 
L 275.668279 -61.284584 
L 276.443926 -61.165343 
L 277.219572 -61.049346 
L 277.995218 -60.936504 
L 278.770865 -60.826734 
L 279.546511 -60.71995 
L 280.322158 -60.616073 
L 281.097804 -60.515024 
L 281.87345 -60.416726 
L 282.649097 -60.321105 
L 283.424743 -60.228087 
L 284.200389 -60.137602 
L 284.976036 -60.049583 
L 285.751682 -59.963961 
L 286.527329 -59.880671 
L 287.302975 -59.799651 
L 288.078621 -59.720838 
L 288.854268 -59.644174 
L 289.629914 -59.569598 
L 290.40556 -59.497056 
L 291.181207 -59.426491 
L 291.956853 -59.357849 
L 292.732499 -59.291079 
L 293.508146 -59.22613 
L 294.283792 -59.162951 
L 295.059439 -59.101496 
L 295.835085 -59.041716 
L 296.610731 -58.983567 
L 297.386378 -58.927004 
L 298.162024 -58.871984 
L 298.93767 -58.818465 
L 299.713317 -58.766406 
L 300.488963 -58.715767 
L 301.26461 -58.66651 
L 302.040256 -58.618597 
L 302.815902 -58.571991 
L 303.591549 -58.526658 
L 304.367195 -58.482561 
L 305.142841 -58.439668 
L 305.918488 -58.397946 
L 306.694134 -58.357363 
L 307.469781 -58.317887 
L 308.245427 -58.279489 
L 309.021073 -58.242139 
L 309.79672 -58.205809 
L 310.572366 -58.170471 
L 311.348012 -58.136098 
L 312.123659 -58.102663 
L 312.899305 -58.070141 
L 313.674952 -58.038508 
L 314.450598 -58.007738 
L 315.226244 -57.977808 
L 316.001891 -57.948696 
L 316.777537 -57.920378 
L 317.553183 -57.892835 
L 318.32883 -57.866043 
L 319.104476 -57.839983 
L 319.880122 -57.814635 
L 320.655769 -57.78998 
L 321.431415 -57.765998 
L 322.207062 -57.742671 
L 322.982708 -57.719981 
L 323.758354 -57.697911 
L 324.534001 -57.676444 
L 325.309647 -57.655564 
L 326.085293 -57.635254 
L 326.86094 -57.615498 
L 327.636586 -57.596283 
L 328.412233 -57.577593 
L 329.187879 -57.559413 
L 329.963525 -57.54173 
L 330.739172 -57.52453 
L 331.514818 -57.5078 
L 332.290464 -57.491527 
L 333.066111 -57.475699 
L 333.841757 -57.460304 
L 334.617404 -57.445329 
L 335.39305 -57.430764 
L 336.168696 -57.416596 
L 336.944343 -57.402816 
L 337.719989 -57.389412 
L 338.495635 -57.376374 
L 339.271282 -57.363693 
L 340.046928 -57.351359 
L 340.822575 -57.339361 
L 341.598221 -57.327692 
L 342.373867 -57.316341 
L 343.149514 -57.305301 
L 343.92516 -57.294562 
L 344.700806 -57.284117 
L 345.476453 -57.273957 
L 346.252099 -57.264075 
L 347.027746 -57.254464 
L 347.803392 -57.245115 
L 348.579038 -57.236021 
L 349.354685 -57.227176 
L 350.130331 -57.218573 
L 350.905977 -57.210205 
L 351.681624 -57.202065 
L 352.45727 -57.194149 
L 353.232916 -57.186448 
L 354.008563 -57.178958 
L 354.784209 -57.171673 
L 355.559856 -57.164587 
L 356.335502 -57.157695 
L 357.111148 -57.150991 
L 357.886795 -57.14447 
L 358.662441 -57.138128 
L 359.438087 -57.131959 
L 360.213734 -57.125959 
L 360.98938 -57.120122 
L 361.765027 -57.114446 
L 362.540673 -57.108924 
L 363.316319 -57.103554 
L 364.091966 -57.09833 
L 364.867612 -57.093249 
L 365.643258 -57.088307 
L 366.418905 -57.0835 
L 367.194551 -57.078824 
L 367.970198 -57.074277 
L 368.745844 -57.069853 
L 369.52149 -57.065551 
L 370.297137 -57.061366 
L 371.072783 -57.057296 
L 371.848429 -57.053337 
L 372.624076 -57.049486 
L 373.399722 -57.04574 
L 374.175369 -57.042097 
L 374.951015 -57.038553 
L 375.726661 -57.035107 
L 376.502308 -57.031754 
L 377.277954 -57.028494 
L 378.0536 -57.025322 
L 378.829247 -57.022237 
L 379.604893 -57.019236 
L 380.38054 -57.016318 
L 381.156186 -57.013479 
L 381.931832 -57.010718 
L 382.707479 -57.008032 
L 383.483125 -57.00542 
L 384.258771 -57.002879 
L 385.034418 -57.000408 
L 385.810064 -56.998004 
L 386.58571 -56.995666 
L 387.361357 -56.993392 
L 388.137003 -56.99118 
L 388.91265 -56.989029 
L 389.688296 -56.986936 
L 390.463942 -56.984901 
L 391.239589 -56.982921 
L 392.015235 -56.980996 
L 392.790881 -56.979123 
L 393.566528 -56.977301 
L 394.342174 -56.975529 
L 395.117821 -56.973806 
L 395.893467 -56.972129 
L 396.669113 -56.970499 
L 397.44476 -56.968913 
L 398.220406 -56.96737 
L 398.996052 -56.96587 
L 399.771699 -56.964411 
L 400.547345 -56.962991 
L 401.322992 -56.961611 
L 402.098638 -56.960268 
L 402.874284 -56.958961 
L 403.649931 -56.957691 
L 404.425577 -56.956455 
L 405.201223 -56.955253 
L 405.97687 -56.954084 
L 406.752516 -56.952947 
L 407.528163 -56.951841 
L 408.303809 -56.950765 
L 409.079455 -56.949719 
L 409.855102 -56.948701 
L 410.630748 -56.947711 
L 411.406394 -56.946749 
L 412.182041 -56.945812 
L 412.957687 -56.944901 
L 413.733334 -56.944015 
L 414.50898 -56.943153 
L 415.284626 -56.942315 
L 416.060273 -56.9415 
L 416.835919 -56.940707 
L 417.611565 -56.939936 
L 418.387212 -56.939185 
L 419.162858 -56.938456 
L 419.938504 -56.937746 
L 420.714151 -56.937056 
L 421.489797 -56.936384 
L 422.265444 -56.935731 
L 423.04109 -56.935096 
L 423.816736 -56.934478 
L 424.592383 -56.933877 
L 425.368029 -56.933292 
L 426.143675 -56.932724 
L 426.919322 -56.932171 
L 427.694968 -56.931633 
L 428.470615 -56.93111 
L 429.246261 -56.930601 
L 430.021907 -56.930106 
L 430.797554 -56.929624 
L 431.5732 -56.929156 
L 432.348846 -56.928701 
L 433.124493 -56.928258 
L 433.900139 -56.927827 
L 434.675786 -56.927408 
L 435.451432 -56.927 
L 436.227078 -56.926604 
L 437.002725 -56.926218 
L 437.778371 -56.925843 
L 438.554017 -56.925478 
L 439.329664 -56.925123 
L 440.10531 -56.924778 
L 440.880957 -56.924442 
L 441.656603 -56.924116 
L 442.432249 -56.923798 
L 443.207896 -56.923489 
L 443.983542 -56.923189 
L 444.759188 -56.922896 
L 445.534835 -56.922612 
L 446.310481 -56.922335 
L 447.086128 -56.922067 
L 447.861774 -56.921805 
L 448.63742 -56.92155 
L 449.413067 -56.921303 
L 450.188713 -56.921062 
L 450.964359 -56.920828 
L 451.740006 -56.9206 
L 452.515652 -56.920379 
L 453.291298 -56.920163 
L 454.066945 -56.919954 
L 454.842591 -56.91975 
L 455.618238 -56.919552 
L 456.393884 -56.919359 
L 457.16953 -56.919171 
L 457.945177 -56.918989 
L 458.720823 -56.918812 
L 459.496469 -56.918639 
L 460.272116 -56.918471 
L 461.047762 -56.918308 
L 461.823409 -56.918149 
L 462.599055 -56.917995 
L 463.374701 -56.917844 
L 464.150348 -56.917698 
L 464.925994 -56.917556 
L 465.70164 -56.917418 
L 466.477287 -56.917283 
L 467.252933 -56.917152 
L 468.02858 -56.917025 
L 468.804226 -56.916902 
L 469.579872 -56.916781 
L 470.355519 -56.916664 
L 471.131165 -56.91655 
L 471.906811 -56.916439 
L 472.682458 -56.916332 
L 473.458104 -56.916227 
L 474.233751 -56.916125 
L 475.009397 -56.916026 
L 475.785043 -56.91593 
L 476.56069 -56.915836 
L 477.336336 -56.915745 
L 478.111982 -56.915656 
L 478.887629 -56.915569 
L 479.663275 -56.915486 
L 480.438921 -56.915404 
L 481.214568 -56.915325 
L 481.990214 -56.915247 
L 482.765861 -56.915172 
L 483.541507 -56.915099 
L 484.317153 -56.915028 
L 485.0928 -56.914959 
L 485.868446 -56.914892 
L 486.644092 -56.914826 
L 487.419739 -56.914763 
L 488.195385 -56.914701 
L 488.971032 -56.914641 
L 489.746678 -56.914582 
L 490.522324 -56.914525 
L 491.297971 -56.91447 
L 492.073617 -56.914416 
L 492.849263 -56.914363 
L 493.62491 -56.914313 
L 494.400556 -56.914263 
L 495.176203 -56.914215 
L 495.951849 -56.914168 
L 496.727495 -56.914122 
L 497.503142 -56.914078 
L 498.278788 -56.914035 
L 499.054434 -56.913993 
L 499.830081 -56.913952 
L 500.605727 -56.913912 
L 501.381374 -56.913874 
L 502.15702 -56.913836 
L 502.932666 -56.9138 
L 503.708313 -56.913764 
L 504.483959 -56.913729 
L 505.259605 -56.913696 
L 506.035252 -56.913663 
L 506.810898 -56.913631 
L 507.586545 -56.9136 
L 508.362191 -56.91357 
L 509.137837 -56.913541 
L 509.913484 -56.913513 
L 510.68913 -56.913485 
L 511.464776 -56.913458 
L 512.240423 -56.913432 
L 513.016069 -56.913406 
L 513.791715 -56.913381 
L 514.567362 -56.913357 
L 515.343008 -56.913334 
L 516.118655 -56.913311 
L 516.894301 -56.913289 
L 517.669947 -56.913267 
L 518.445594 -56.913246 
L 519.22124 -56.913226 
L 519.996886 -56.913206 
L 520.772533 -56.913187 
L 521.548179 -56.913168 
L 522.323826 -56.91315 
L 523.099472 -56.913132 
L 523.875118 -56.913115 
L 524.650765 -56.913098 
L 525.426411 -56.913082 
L 526.202057 -56.913066 
L 526.977704 -56.91305 
L 527.75335 -56.913035 
L 528.528997 -56.913021 
L 529.304643 -56.913006 
L 530.080289 -56.912992 
L 530.855936 -56.912979 
L 531.631582 -56.912966 
L 532.407228 -56.912953 
L 533.182875 -56.912941 
L 533.958521 -56.912929 
L 534.734168 -56.912917 
L 535.509814 -56.912906 
L 536.28546 -56.912894 
L 537.061107 -56.912884 
L 537.836753 -56.912873 
L 538.612399 -56.912863 
L 539.388046 -56.912853 
L 540.163692 -56.912843 
L 540.939339 -56.912834 
L 541.714985 -56.912825 
L 542.490631 -56.912816 
L 543.266278 -56.912807 
L 544.041924 -56.912799 
L 544.81757 -56.912791 
L 545.593217 -56.912783 
L 546.368863 -56.912775 
L 547.144509 -56.912768 
L 547.920156 -56.91276 
L 548.695802 -56.912753 
L 549.471449 -56.912746 
L 550.247095 -56.912739 
L 551.022741 -56.912733 
L 551.798388 -56.912727 
L 552.574034 -56.91272 
L 553.34968 -56.912714 
L 554.125327 -56.912708 
L 554.900973 -56.912703 
L 555.67662 -56.912697 
L 556.452266 -56.912692 
L 557.227912 -56.912687 
L 558.003559 -56.912681 
L 558.779205 -56.912677 
L 559.554851 -56.912672 
L 560.330498 -56.912667 
L 561.106144 -56.912662 
L 561.881791 -56.912658 
L 562.657437 -56.912654 
L 563.433083 -56.912649 
L 564.20873 -56.912645 
L 564.984376 -56.912641 
L 565.760022 -56.912638 
L 566.535669 -56.912634 
L 567.311315 -56.91263 
L 568.086962 -56.912627 
L 568.862608 -56.912623 
L 569.638254 -56.91262 
L 570.413901 -56.912616 
L 571.189547 -56.912613 
L 571.965193 -56.91261 
L 572.74084 -56.912607 
L 573.516486 -56.912604 
L 574.292133 -56.912601 
L 575.067779 -56.912599 
L 575.843425 -56.912596 
L 576.619072 -56.912593 
L 577.394718 -56.912591 
L 578.170364 -56.912588 
L 578.946011 -56.912586 
L 579.721657 -56.912584 
L 580.497303 -56.912581 
L 581.27295 -56.912579 
L 582.048596 -56.912577 
L 582.824243 -56.912575 
L 583.599889 -56.912573 
L 584.375535 -56.912571 
L 585.151182 -56.912569 
L 585.926828 -56.912567 
L 586.702474 -56.912565 
L 587.478121 -56.912563 
L 588.253767 -56.912562 
L 589.029414 -56.91256 
L 589.80506 -56.912558 
L 590.580706 -56.912557 
L 591.356353 -56.912555 
L 592.131999 -56.912554 
L 592.907645 -56.912552 
L 593.683292 -56.912551 
L 594.458938 -56.912549 
L 595.234585 -56.912548 
L 596.010231 -56.912547 
L 596.785877 -56.912545 
L 597.561524 -56.912544 
L 598.33717 -56.912543 
L 599.112816 -56.912542 
L 599.888463 -56.912541 
L 600.664109 -56.91254 
L 601.439756 -56.912538 
L 602.215402 -56.912537 
L 602.991048 -56.912536 
L 603.766695 -56.912535 
L 604.542341 -56.912534 
L 605.317987 -56.912533 
L 606.093634 -56.912533 
L 606.86928 -56.912532 
L 607.644927 -56.912531 
L 608.420573 -56.91253 
L 609.196219 -56.912529 
L 609.971866 -56.912528 
L 610.747512 -56.912528 
L 611.523158 -56.912527 
L 612.298805 -56.912526 
L 613.074451 -56.912525 
L 613.850097 -56.912525 
L 614.625744 -56.912524 
L 615.40139 -56.912523 
L 616.177037 -56.912523 
L 616.952683 -56.912522 
L 617.728329 -56.912521 
L 618.503976 -56.912521 
L 619.279622 -56.91252 
L 620.055268 -56.91252 
L 620.830915 -56.912519 
L 621.606561 -56.912519 
L 622.382208 -56.912518 
L 623.157854 -56.912518 
L 623.9335 -56.912517 
L 624.709147 -56.912517 
L 625.484793 -56.912516 
L 626.260439 -56.912516 
L 627.036086 -56.912515 
L 627.811732 -56.912515 
L 628.587379 -56.912515 
L 629.363025 -56.912514 
L 630.138671 -56.912514 
L 630.914318 -56.912513 
L 631.689964 -56.912513 
L 632.46561 -56.912513 
L 633.241257 -56.912512 
L 634.016903 -56.912512 
L 634.79255 -56.912512 
L 635.568196 -56.912511 
L 636.343842 -56.912511 
L 637.119489 -56.912511 
L 637.119489 -57.857775 
L 637.119489 -57.857775 
L 636.343842 -57.867313 
L 635.568196 -57.876947 
L 634.79255 -57.886679 
L 634.016903 -57.896508 
L 633.241257 -57.906437 
L 632.46561 -57.916466 
L 631.689964 -57.926596 
L 630.914318 -57.936828 
L 630.138671 -57.947163 
L 629.363025 -57.957602 
L 628.587379 -57.968147 
L 627.811732 -57.978798 
L 627.036086 -57.989557 
L 626.260439 -58.000423 
L 625.484793 -58.0114 
L 624.709147 -58.022487 
L 623.9335 -58.033686 
L 623.157854 -58.044998 
L 622.382208 -58.056424 
L 621.606561 -58.067965 
L 620.830915 -58.079622 
L 620.055268 -58.091397 
L 619.279622 -58.103291 
L 618.503976 -58.115305 
L 617.728329 -58.127439 
L 616.952683 -58.139696 
L 616.177037 -58.152077 
L 615.40139 -58.164582 
L 614.625744 -58.177214 
L 613.850097 -58.189973 
L 613.074451 -58.20286 
L 612.298805 -58.215877 
L 611.523158 -58.229026 
L 610.747512 -58.242307 
L 609.971866 -58.255722 
L 609.196219 -58.269272 
L 608.420573 -58.282959 
L 607.644927 -58.296783 
L 606.86928 -58.310747 
L 606.093634 -58.324852 
L 605.317987 -58.339099 
L 604.542341 -58.353489 
L 603.766695 -58.368025 
L 602.991048 -58.382707 
L 602.215402 -58.397537 
L 601.439756 -58.412516 
L 600.664109 -58.427646 
L 599.888463 -58.442929 
L 599.112816 -58.458366 
L 598.33717 -58.473959 
L 597.561524 -58.489708 
L 596.785877 -58.505616 
L 596.010231 -58.521685 
L 595.234585 -58.537915 
L 594.458938 -58.554309 
L 593.683292 -58.570868 
L 592.907645 -58.587594 
L 592.131999 -58.604489 
L 591.356353 -58.621553 
L 590.580706 -58.63879 
L 589.80506 -58.6562 
L 589.029414 -58.673786 
L 588.253767 -58.691549 
L 587.478121 -58.709491 
L 586.702474 -58.727613 
L 585.926828 -58.745918 
L 585.151182 -58.764408 
L 584.375535 -58.783083 
L 583.599889 -58.801947 
L 582.824243 -58.821001 
L 582.048596 -58.840247 
L 581.27295 -58.859686 
L 580.497303 -58.879322 
L 579.721657 -58.899155 
L 578.946011 -58.919188 
L 578.170364 -58.939423 
L 577.394718 -58.959861 
L 576.619072 -58.980505 
L 575.843425 -59.001357 
L 575.067779 -59.02242 
L 574.292133 -59.043694 
L 573.516486 -59.065182 
L 572.74084 -59.086887 
L 571.965193 -59.10881 
L 571.189547 -59.130955 
L 570.413901 -59.153322 
L 569.638254 -59.175914 
L 568.862608 -59.198734 
L 568.086962 -59.221783 
L 567.311315 -59.245065 
L 566.535669 -59.26858 
L 565.760022 -59.292333 
L 564.984376 -59.316325 
L 564.20873 -59.340558 
L 563.433083 -59.365035 
L 562.657437 -59.389759 
L 561.881791 -59.414731 
L 561.106144 -59.439955 
L 560.330498 -59.465432 
L 559.554851 -59.491166 
L 558.779205 -59.517159 
L 558.003559 -59.543414 
L 557.227912 -59.569933 
L 556.452266 -59.596718 
L 555.67662 -59.623773 
L 554.900973 -59.651101 
L 554.125327 -59.678703 
L 553.34968 -59.706583 
L 552.574034 -59.734744 
L 551.798388 -59.763188 
L 551.022741 -59.791918 
L 550.247095 -59.820937 
L 549.471449 -59.850248 
L 548.695802 -59.879854 
L 547.920156 -59.909757 
L 547.144509 -59.939962 
L 546.368863 -59.97047 
L 545.593217 -60.001285 
L 544.81757 -60.03241 
L 544.041924 -60.063848 
L 543.266278 -60.095603 
L 542.490631 -60.127676 
L 541.714985 -60.160072 
L 540.939339 -60.192794 
L 540.163692 -60.225845 
L 539.388046 -60.259228 
L 538.612399 -60.292947 
L 537.836753 -60.327005 
L 537.061107 -60.361405 
L 536.28546 -60.396152 
L 535.509814 -60.431247 
L 534.734168 -60.466695 
L 533.958521 -60.5025 
L 533.182875 -60.538664 
L 532.407228 -60.575192 
L 531.631582 -60.612087 
L 530.855936 -60.649352 
L 530.080289 -60.686993 
L 529.304643 -60.725011 
L 528.528997 -60.763412 
L 527.75335 -60.802198 
L 526.977704 -60.841374 
L 526.202057 -60.880944 
L 525.426411 -60.920911 
L 524.650765 -60.96128 
L 523.875118 -61.002054 
L 523.099472 -61.043238 
L 522.323826 -61.084835 
L 521.548179 -61.126851 
L 520.772533 -61.169288 
L 519.996886 -61.212151 
L 519.22124 -61.255445 
L 518.445594 -61.299174 
L 517.669947 -61.343342 
L 516.894301 -61.387953 
L 516.118655 -61.433012 
L 515.343008 -61.478523 
L 514.567362 -61.524492 
L 513.791715 -61.570922 
L 513.016069 -61.617818 
L 512.240423 -61.665184 
L 511.464776 -61.713026 
L 510.68913 -61.761348 
L 509.913484 -61.810155 
L 509.137837 -61.859452 
L 508.362191 -61.909244 
L 507.586545 -61.959535 
L 506.810898 -62.010331 
L 506.035252 -62.061636 
L 505.259605 -62.113456 
L 504.483959 -62.165796 
L 503.708313 -62.21866 
L 502.932666 -62.272055 
L 502.15702 -62.325986 
L 501.381374 -62.380457 
L 500.605727 -62.435475 
L 499.830081 -62.491044 
L 499.054434 -62.54717 
L 498.278788 -62.603859 
L 497.503142 -62.661116 
L 496.727495 -62.718948 
L 495.951849 -62.777359 
L 495.176203 -62.836355 
L 494.400556 -62.895943 
L 493.62491 -62.956128 
L 492.849263 -63.016916 
L 492.073617 -63.078312 
L 491.297971 -63.140325 
L 490.522324 -63.202958 
L 489.746678 -63.266219 
L 488.971032 -63.330113 
L 488.195385 -63.394647 
L 487.419739 -63.459828 
L 486.644092 -63.525662 
L 485.868446 -63.592154 
L 485.0928 -63.659313 
L 484.317153 -63.727143 
L 483.541507 -63.795653 
L 482.765861 -63.864849 
L 481.990214 -63.934737 
L 481.214568 -64.005324 
L 480.438921 -64.076618 
L 479.663275 -64.148626 
L 478.887629 -64.221353 
L 478.111982 -64.294809 
L 477.336336 -64.368999 
L 476.56069 -64.443932 
L 475.785043 -64.519613 
L 475.009397 -64.596052 
L 474.233751 -64.673255 
L 473.458104 -64.75123 
L 472.682458 -64.829985 
L 471.906811 -64.909527 
L 471.131165 -64.989864 
L 470.355519 -65.071004 
L 469.579872 -65.152955 
L 468.804226 -65.235725 
L 468.02858 -65.319321 
L 467.252933 -65.403753 
L 466.477287 -65.489029 
L 465.70164 -65.575156 
L 464.925994 -65.662144 
L 464.150348 -65.75 
L 463.374701 -65.838733 
L 462.599055 -65.928353 
L 461.823409 -66.018867 
L 461.047762 -66.110284 
L 460.272116 -66.202614 
L 459.496469 -66.295866 
L 458.720823 -66.390048 
L 457.945177 -66.485169 
L 457.16953 -66.58124 
L 456.393884 -66.678269 
L 455.618238 -66.776265 
L 454.842591 -66.875239 
L 454.066945 -66.9752 
L 453.291298 -67.076157 
L 452.515652 -67.178121 
L 451.740006 -67.281101 
L 450.964359 -67.385108 
L 450.188713 -67.490151 
L 449.413067 -67.59624 
L 448.63742 -67.703386 
L 447.861774 -67.8116 
L 447.086128 -67.920891 
L 446.310481 -68.031271 
L 445.534835 -68.142749 
L 444.759188 -68.255338 
L 443.983542 -68.369047 
L 443.207896 -68.483888 
L 442.432249 -68.599871 
L 441.656603 -68.717009 
L 440.880957 -68.835312 
L 440.10531 -68.954791 
L 439.329664 -69.075459 
L 438.554017 -69.197327 
L 437.778371 -69.320406 
L 437.002725 -69.444709 
L 436.227078 -69.570247 
L 435.451432 -69.697032 
L 434.675786 -69.825078 
L 433.900139 -69.954395 
L 433.124493 -70.084997 
L 432.348846 -70.216896 
L 431.5732 -70.350104 
L 430.797554 -70.484635 
L 430.021907 -70.620501 
L 429.246261 -70.757716 
L 428.470615 -70.896292 
L 427.694968 -71.036243 
L 426.919322 -71.177582 
L 426.143675 -71.320322 
L 425.368029 -71.464478 
L 424.592383 -71.610063 
L 423.816736 -71.757091 
L 423.04109 -71.905576 
L 422.265444 -72.055532 
L 421.489797 -72.206974 
L 420.714151 -72.359916 
L 419.938504 -72.514371 
L 419.162858 -72.670357 
L 418.387212 -72.827886 
L 417.611565 -72.986974 
L 416.835919 -73.147636 
L 416.060273 -73.309887 
L 415.284626 -73.473743 
L 414.50898 -73.63922 
L 413.733334 -73.806332 
L 412.957687 -73.975096 
L 412.182041 -74.145527 
L 411.406394 -74.317643 
L 410.630748 -74.491458 
L 409.855102 -74.66699 
L 409.079455 -74.844255 
L 408.303809 -75.02327 
L 407.528163 -75.204052 
L 406.752516 -75.386617 
L 405.97687 -75.570982 
L 405.201223 -75.757166 
L 404.425577 -75.945186 
L 403.649931 -76.135059 
L 402.874284 -76.326803 
L 402.098638 -76.520436 
L 401.322992 -76.715976 
L 400.547345 -76.913442 
L 399.771699 -77.112852 
L 398.996052 -77.314224 
L 398.220406 -77.517578 
L 397.44476 -77.722933 
L 396.669113 -77.930306 
L 395.893467 -78.139719 
L 395.117821 -78.35119 
L 394.342174 -78.564739 
L 393.566528 -78.780386 
L 392.790881 -78.998151 
L 392.015235 -79.218054 
L 391.239589 -79.440115 
L 390.463942 -79.664356 
L 389.688296 -79.890796 
L 388.91265 -80.119457 
L 388.137003 -80.350359 
L 387.361357 -80.583525 
L 386.58571 -80.818976 
L 385.810064 -81.056733 
L 385.034418 -81.296818 
L 384.258771 -81.539253 
L 383.483125 -81.784061 
L 382.707479 -82.031263 
L 381.931832 -82.280884 
L 381.156186 -82.532944 
L 380.38054 -82.787469 
L 379.604893 -83.04448 
L 378.829247 -83.304001 
L 378.0536 -83.566057 
L 377.277954 -83.83067 
L 376.502308 -84.097865 
L 375.726661 -84.367666 
L 374.951015 -84.640098 
L 374.175369 -84.915185 
L 373.399722 -85.192952 
L 372.624076 -85.473425 
L 371.848429 -85.756629 
L 371.072783 -86.042589 
L 370.297137 -86.331331 
L 369.52149 -86.622881 
L 368.745844 -86.917266 
L 367.970198 -87.214511 
L 367.194551 -87.514644 
L 366.418905 -87.817692 
L 365.643258 -88.123681 
L 364.867612 -88.432639 
L 364.091966 -88.744593 
L 363.316319 -89.059572 
L 362.540673 -89.377603 
L 361.765027 -89.698715 
L 360.98938 -90.022936 
L 360.213734 -90.350295 
L 359.438087 -90.680821 
L 358.662441 -91.014543 
L 357.886795 -91.351491 
L 357.111148 -91.691694 
L 356.335502 -92.035183 
L 355.559856 -92.381988 
L 354.784209 -92.732139 
L 354.008563 -93.085667 
L 353.232916 -93.442602 
L 352.45727 -93.802977 
L 351.681624 -94.166822 
L 350.905977 -94.534169 
L 350.130331 -94.905051 
L 349.354685 -95.2795 
L 348.579038 -95.657547 
L 347.803392 -96.039227 
L 347.027746 -96.424571 
L 346.252099 -96.813613 
L 345.476453 -97.206387 
L 344.700806 -97.602927 
L 343.92516 -98.003266 
L 343.149514 -98.40744 
L 342.373867 -98.815482 
L 341.598221 -99.227427 
L 340.822575 -99.643311 
L 340.046928 -100.06317 
L 339.271282 -100.487038 
L 338.495635 -100.914953 
L 337.719989 -101.346949 
L 336.944343 -101.783064 
L 336.168696 -102.223335 
L 335.39305 -102.667799 
L 334.617404 -103.116493 
L 333.841757 -103.569454 
L 333.066111 -104.026721 
L 332.290464 -104.488333 
L 331.514818 -104.954327 
L 330.739172 -105.424742 
L 329.963525 -105.899618 
L 329.187879 -106.378993 
L 328.412233 -106.862909 
L 327.636586 -107.351404 
L 326.86094 -107.844519 
L 326.085293 -108.342294 
L 325.309647 -108.844771 
L 324.534001 -109.35199 
L 323.758354 -109.863993 
L 322.982708 -110.380822 
L 322.207062 -110.902518 
L 321.431415 -111.429125 
L 320.655769 -111.960685 
L 319.880122 -112.49724 
L 319.104476 -113.038834 
L 318.32883 -113.585511 
L 317.553183 -114.137314 
L 316.777537 -114.694288 
L 316.001891 -115.256477 
L 315.226244 -115.823925 
L 314.450598 -116.396679 
L 313.674952 -116.974783 
L 312.899305 -117.558282 
L 312.123659 -118.147224 
L 311.348012 -118.741653 
L 310.572366 -119.341618 
L 309.79672 -119.947164 
L 309.021073 -120.558338 
L 308.245427 -121.17519 
L 307.469781 -121.797765 
L 306.694134 -122.426113 
L 305.918488 -123.060281 
L 305.142841 -123.700319 
L 304.367195 -124.346275 
L 303.591549 -124.998199 
L 302.815902 -125.656141 
L 302.040256 -126.32015 
L 301.26461 -126.990276 
L 300.488963 -127.666571 
L 299.713317 -128.349085 
L 298.93767 -129.037869 
L 298.162024 -129.732975 
L 297.386378 -130.434454 
L 296.610731 -131.142358 
L 295.835085 -131.856741 
L 295.059439 -132.577654 
L 294.283792 -133.30515 
L 293.508146 -134.039283 
L 292.732499 -134.780107 
L 291.956853 -135.527674 
L 291.181207 -136.28204 
L 290.40556 -137.043258 
L 289.629914 -137.811384 
L 288.854268 -138.586472 
L 288.078621 -139.368578 
L 287.302975 -140.157757 
L 286.527329 -140.954065 
L 285.751682 -141.757558 
L 284.976036 -142.568293 
L 284.200389 -143.386327 
L 283.424743 -144.211715 
L 282.649097 -145.044516 
L 281.87345 -145.884788 
L 281.097804 -146.732587 
L 280.322158 -147.587971 
L 279.546511 -148.451001 
L 278.770865 -149.321732 
L 277.995218 -150.200226 
L 277.219572 -151.08654 
L 276.443926 -151.980733 
L 275.668279 -152.882867 
L 274.892633 -153.792999 
L 274.116987 -154.711192 
L 273.34134 -155.637503 
L 272.565694 -156.571995 
L 271.790047 -157.514728 
L 271.014401 -158.465763 
L 270.238755 -159.42516 
L 269.463108 -160.392983 
L 268.687462 -161.369291 
L 267.911816 -162.354147 
L 267.136169 -163.347613 
L 266.360523 -164.349752 
L 265.584876 -165.360625 
L 264.80923 -166.380295 
L 264.033584 -167.408825 
L 263.257937 -168.446278 
L 262.482291 -169.492717 
L 261.706645 -170.548205 
L 260.930998 -171.612806 
L 260.155352 -172.686583 
L 259.379705 -173.7696 
L 258.604059 -174.861921 
L 257.828413 -175.96361 
L 257.052766 -177.07473 
L 256.27712 -178.195347 
L 255.501474 -179.325525 
L 254.725827 -180.465327 
L 253.950181 -181.614818 
L 253.174535 -182.774064 
L 252.398888 -183.943128 
L 251.623242 -185.122075 
L 250.847595 -186.31097 
L 250.071949 -187.509878 
L 249.296303 -188.718864 
L 248.520656 -189.937992 
L 247.74501 -191.167327 
L 246.969364 -192.406935 
L 246.193717 -193.656879 
L 245.418071 -194.917225 
L 244.642424 -196.188037 
L 243.866778 -197.46938 
L 243.091132 -198.761318 
L 242.315485 -200.063917 
L 241.539839 -201.37724 
L 240.764193 -202.701351 
L 239.988546 -204.036315 
L 239.2129 -205.382196 
L 238.437253 -206.739056 
L 237.661607 -208.106961 
L 236.885961 -209.485973 
L 236.110314 -210.876155 
L 235.334668 -212.277569 
L 234.559022 -213.690279 
L 233.783375 -215.114347 
L 233.007729 -216.549834 
L 232.232082 -217.996801 
L 231.456436 -219.45531 
L 230.68079 -220.925421 
L 229.905143 -222.407195 
L 229.129497 -223.90069 
L 228.353851 -225.405965 
L 227.578204 -226.923079 
L 226.802558 -228.45209 
L 226.026911 -229.993054 
L 225.251265 -231.546028 
L 224.475619 -233.111067 
L 223.699972 -234.688225 
L 222.924326 -236.277556 
L 222.14868 -237.879113 
L 221.373033 -239.492946 
L 220.597387 -241.119107 
L 219.821741 -242.757644 
L 219.046094 -244.408606 
L 218.270448 -246.072037 
L 217.494801 -247.747984 
L 216.719155 -249.436489 
L 215.943509 -251.137593 
L 215.167862 -252.851337 
L 214.392216 -254.577757 
L 213.61657 -256.316888 
L 212.840923 -258.068764 
L 212.065277 -259.833415 
L 211.28963 -261.610869 
L 210.513984 -263.40115 
L 209.738338 -265.20428 
L 208.962691 -267.020277 
L 208.187045 -268.849156 
L 207.411399 -270.690927 
L 206.635752 -272.545598 
L 205.860106 -274.413171 
L 205.084459 -276.293642 
L 204.308813 -278.187003 
L 203.533167 -280.093241 
L 202.75752 -282.012336 
L 201.981874 -283.944262 
L 201.206228 -285.888985 
L 200.430581 -287.846465 
L 199.654935 -289.816652 
L 198.879288 -291.799487 
L 198.103642 -293.794904 
L 197.327996 -295.802824 
L 196.552349 -297.823157 
L 195.776703 -299.855803 
L 195.001057 -301.900646 
L 194.22541 -303.957557 
L 193.449764 -306.026394 
L 192.674117 -308.106995 
L 191.898471 -310.199181 
L 191.122825 -312.302755 
L 190.347178 -314.417498 
L 189.571532 -316.543167 
L 188.795886 -318.679498 
L 188.020239 -320.826197 
L 187.244593 -322.982942 
L 186.468947 -325.14938 
L 185.6933 -327.325125 
L 184.917654 -329.509753 
L 184.142007 -331.702801 
L 183.366361 -333.903762 
L 182.590715 -336.112084 
L 181.815068 -338.327162 
L 181.039422 -340.548339 
L 180.263776 -342.774895 
L 179.488129 -345.006048 
L 178.712483 -347.240944 
L 177.936836 -349.478656 
L 177.16119 -351.71817 
L 176.385544 -353.958385 
L 175.609897 -356.198102 
L 174.834251 -358.436016 
L 174.058605 -360.670708 
L 173.282958 -362.900631 
L 172.507312 -365.124107 
L 171.731665 -367.339305 
L 170.956019 -369.544236 
L 170.180373 -371.736738 
L 169.404726 -373.914453 
L 168.62908 -376.074822 
L 167.853434 -378.215055 
L 167.077787 -380.33212 
L 166.302141 -382.422712 
L 165.526494 -384.483237 
L 164.750848 -386.509779 
L 163.975202 -388.498072 
L 163.199555 -390.44347 
L 162.423909 -392.340907 
L 161.648263 -394.18486 
L 160.872616 -395.969303 
L 160.09697 -397.687661 
L 159.321323 -399.332753 
L 158.545677 -400.896735 
L 157.770031 -402.37103 
L 156.994384 -403.746255 
L 156.218738 -405.012136 
L 155.443092 -406.157417 
L 154.667445 -407.16975 
L 153.891799 -408.035583 
L 153.116153 -408.740018 
L 152.340506 -409.266665 
L 151.56486 -409.597466 
L 150.789213 -409.7125 
L 150.013567 -409.589757 
L 149.237921 -409.404804 
L 148.462274 -409.676988 
L 147.686628 -409.675583 
L 146.910982 -409.366805 
L 146.135335 -409.539629 
L 145.359689 -409.7125 
L 144.584042 -409.522317 
L 143.808396 -409.229022 
L 143.03275 -409.655519 
L 142.257103 -409.651943 
L 141.481457 -409.132109 
L 140.705811 -409.416751 
L 139.930164 -409.7125 
L 139.154518 -409.364165 
L 138.378871 -408.191977 
L 137.603225 -405.963892 
L 136.827579 -402.378445 
L 136.051932 -397.040811 
L 135.276286 -389.428681 
L 134.50064 -378.842491 
L 133.724993 -364.33084 
L 132.949347 -344.575324 
L 132.1737 -317.706472 
L 131.398054 -280.997746 
L 130.622408 -230.333 
L 129.846761 -159.228192 
z
" style="stroke: #ff0000; stroke-opacity: 0.3"/>
    </defs>
    <g clip-path="url(#p099be2e75c)">
     <use xlink:href="#m6bcc8dd698" x="0" y="473.389375" style="fill: #ff0000; fill-opacity: 0.3; stroke: #ff0000; stroke-opacity: 0.3"/>
    </g>
   </g>
   <g id="matplotlib.axis_1">
    <g id="xtick_1">
     <g id="line2d_1">
      <defs>
       <path id="m633271e15a" d="M 0 0 
L 0 3.5 
" style="stroke: #000000; stroke-width: 0.8"/>
      </defs>
      <g>
       <use xlink:href="#m633271e15a" x="129.071115" y="416.476875" style="stroke: #000000; stroke-width: 0.8"/>
      </g>
     </g>
     <g id="text_1">
      <!-- 0 -->
      <g transform="translate(122.708615 438.67375) scale(0.2 -0.2)">
       <defs>
        <path id="DejaVuSans-30" d="M 2034 4250 
Q 1547 4250 1301 3770 
Q 1056 3291 1056 2328 
Q 1056 1369 1301 889 
Q 1547 409 2034 409 
Q 2525 409 2770 889 
Q 3016 1369 3016 2328 
Q 3016 3291 2770 3770 
Q 2525 4250 2034 4250 
z
M 2034 4750 
Q 2819 4750 3233 4129 
Q 3647 3509 3647 2328 
Q 3647 1150 3233 529 
Q 2819 -91 2034 -91 
Q 1250 -91 836 529 
Q 422 1150 422 2328 
Q 422 3509 836 4129 
Q 1250 4750 2034 4750 
z
" transform="scale(0.015625)"/>
       </defs>
       <use xlink:href="#DejaVuSans-30"/>
      </g>
     </g>
    </g>
    <g id="xtick_2">
     <g id="line2d_2">
      <g>
       <use xlink:href="#m633271e15a" x="206.635752" y="416.476875" style="stroke: #000000; stroke-width: 0.8"/>
      </g>
     </g>
     <g id="text_2">
      <!-- 100 -->
      <g transform="translate(187.548252 438.67375) scale(0.2 -0.2)">
       <defs>
        <path id="DejaVuSans-31" d="M 794 531 
L 1825 531 
L 1825 4091 
L 703 3866 
L 703 4441 
L 1819 4666 
L 2450 4666 
L 2450 531 
L 3481 531 
L 3481 0 
L 794 0 
L 794 531 
z
" transform="scale(0.015625)"/>
       </defs>
       <use xlink:href="#DejaVuSans-31"/>
       <use xlink:href="#DejaVuSans-30" x="63.623047"/>
       <use xlink:href="#DejaVuSans-30" x="127.246094"/>
      </g>
     </g>
    </g>
    <g id="xtick_3">
     <g id="line2d_3">
      <g>
       <use xlink:href="#m633271e15a" x="284.200389" y="416.476875" style="stroke: #000000; stroke-width: 0.8"/>
      </g>
     </g>
     <g id="text_3">
      <!-- 200 -->
      <g transform="translate(265.112889 438.67375) scale(0.2 -0.2)">
       <defs>
        <path id="DejaVuSans-32" d="M 1228 531 
L 3431 531 
L 3431 0 
L 469 0 
L 469 531 
Q 828 903 1448 1529 
Q 2069 2156 2228 2338 
Q 2531 2678 2651 2914 
Q 2772 3150 2772 3378 
Q 2772 3750 2511 3984 
Q 2250 4219 1831 4219 
Q 1534 4219 1204 4116 
Q 875 4013 500 3803 
L 500 4441 
Q 881 4594 1212 4672 
Q 1544 4750 1819 4750 
Q 2544 4750 2975 4387 
Q 3406 4025 3406 3419 
Q 3406 3131 3298 2873 
Q 3191 2616 2906 2266 
Q 2828 2175 2409 1742 
Q 1991 1309 1228 531 
z
" transform="scale(0.015625)"/>
       </defs>
       <use xlink:href="#DejaVuSans-32"/>
       <use xlink:href="#DejaVuSans-30" x="63.623047"/>
       <use xlink:href="#DejaVuSans-30" x="127.246094"/>
      </g>
     </g>
    </g>
    <g id="xtick_4">
     <g id="line2d_4">
      <g>
       <use xlink:href="#m633271e15a" x="361.765027" y="416.476875" style="stroke: #000000; stroke-width: 0.8"/>
      </g>
     </g>
     <g id="text_4">
      <!-- 300 -->
      <g transform="translate(342.677527 438.67375) scale(0.2 -0.2)">
       <defs>
        <path id="DejaVuSans-33" d="M 2597 2516 
Q 3050 2419 3304 2112 
Q 3559 1806 3559 1356 
Q 3559 666 3084 287 
Q 2609 -91 1734 -91 
Q 1441 -91 1130 -33 
Q 819 25 488 141 
L 488 750 
Q 750 597 1062 519 
Q 1375 441 1716 441 
Q 2309 441 2620 675 
Q 2931 909 2931 1356 
Q 2931 1769 2642 2001 
Q 2353 2234 1838 2234 
L 1294 2234 
L 1294 2753 
L 1863 2753 
Q 2328 2753 2575 2939 
Q 2822 3125 2822 3475 
Q 2822 3834 2567 4026 
Q 2313 4219 1838 4219 
Q 1578 4219 1281 4162 
Q 984 4106 628 3988 
L 628 4550 
Q 988 4650 1302 4700 
Q 1616 4750 1894 4750 
Q 2613 4750 3031 4423 
Q 3450 4097 3450 3541 
Q 3450 3153 3228 2886 
Q 3006 2619 2597 2516 
z
" transform="scale(0.015625)"/>
       </defs>
       <use xlink:href="#DejaVuSans-33"/>
       <use xlink:href="#DejaVuSans-30" x="63.623047"/>
       <use xlink:href="#DejaVuSans-30" x="127.246094"/>
      </g>
     </g>
    </g>
    <g id="xtick_5">
     <g id="line2d_5">
      <g>
       <use xlink:href="#m633271e15a" x="439.329664" y="416.476875" style="stroke: #000000; stroke-width: 0.8"/>
      </g>
     </g>
     <g id="text_5">
      <!-- 400 -->
      <g transform="translate(420.242164 438.67375) scale(0.2 -0.2)">
       <defs>
        <path id="DejaVuSans-34" d="M 2419 4116 
L 825 1625 
L 2419 1625 
L 2419 4116 
z
M 2253 4666 
L 3047 4666 
L 3047 1625 
L 3713 1625 
L 3713 1100 
L 3047 1100 
L 3047 0 
L 2419 0 
L 2419 1100 
L 313 1100 
L 313 1709 
L 2253 4666 
z
" transform="scale(0.015625)"/>
       </defs>
       <use xlink:href="#DejaVuSans-34"/>
       <use xlink:href="#DejaVuSans-30" x="63.623047"/>
       <use xlink:href="#DejaVuSans-30" x="127.246094"/>
      </g>
     </g>
    </g>
    <g id="xtick_6">
     <g id="line2d_6">
      <g>
       <use xlink:href="#m633271e15a" x="516.894301" y="416.476875" style="stroke: #000000; stroke-width: 0.8"/>
      </g>
     </g>
     <g id="text_6">
      <!-- 500 -->
      <g transform="translate(497.806801 438.67375) scale(0.2 -0.2)">
       <defs>
        <path id="DejaVuSans-35" d="M 691 4666 
L 3169 4666 
L 3169 4134 
L 1269 4134 
L 1269 2991 
Q 1406 3038 1543 3061 
Q 1681 3084 1819 3084 
Q 2600 3084 3056 2656 
Q 3513 2228 3513 1497 
Q 3513 744 3044 326 
Q 2575 -91 1722 -91 
Q 1428 -91 1123 -41 
Q 819 9 494 109 
L 494 744 
Q 775 591 1075 516 
Q 1375 441 1709 441 
Q 2250 441 2565 725 
Q 2881 1009 2881 1497 
Q 2881 1984 2565 2268 
Q 2250 2553 1709 2553 
Q 1456 2553 1204 2497 
Q 953 2441 691 2322 
L 691 4666 
z
" transform="scale(0.015625)"/>
       </defs>
       <use xlink:href="#DejaVuSans-35"/>
       <use xlink:href="#DejaVuSans-30" x="63.623047"/>
       <use xlink:href="#DejaVuSans-30" x="127.246094"/>
      </g>
     </g>
    </g>
    <g id="xtick_7">
     <g id="line2d_7">
      <g>
       <use xlink:href="#m633271e15a" x="594.458938" y="416.476875" style="stroke: #000000; stroke-width: 0.8"/>
      </g>
     </g>
     <g id="text_7">
      <!-- 600 -->
      <g transform="translate(575.371438 438.67375) scale(0.2 -0.2)">
       <defs>
        <path id="DejaVuSans-36" d="M 2113 2584 
Q 1688 2584 1439 2293 
Q 1191 2003 1191 1497 
Q 1191 994 1439 701 
Q 1688 409 2113 409 
Q 2538 409 2786 701 
Q 3034 994 3034 1497 
Q 3034 2003 2786 2293 
Q 2538 2584 2113 2584 
z
M 3366 4563 
L 3366 3988 
Q 3128 4100 2886 4159 
Q 2644 4219 2406 4219 
Q 1781 4219 1451 3797 
Q 1122 3375 1075 2522 
Q 1259 2794 1537 2939 
Q 1816 3084 2150 3084 
Q 2853 3084 3261 2657 
Q 3669 2231 3669 1497 
Q 3669 778 3244 343 
Q 2819 -91 2113 -91 
Q 1303 -91 875 529 
Q 447 1150 447 2328 
Q 447 3434 972 4092 
Q 1497 4750 2381 4750 
Q 2619 4750 2861 4703 
Q 3103 4656 3366 4563 
z
" transform="scale(0.015625)"/>
       </defs>
       <use xlink:href="#DejaVuSans-36"/>
       <use xlink:href="#DejaVuSans-30" x="63.623047"/>
       <use xlink:href="#DejaVuSans-30" x="127.246094"/>
      </g>
     </g>
    </g>
    <g id="text_8">
     <!-- Days since antigen exposure -->
     <g transform="translate(239.062812 462.03) scale(0.2 -0.2)">
      <defs>
       <path id="DejaVuSans-44" d="M 1259 4147 
L 1259 519 
L 2022 519 
Q 2988 519 3436 956 
Q 3884 1394 3884 2338 
Q 3884 3275 3436 3711 
Q 2988 4147 2022 4147 
L 1259 4147 
z
M 628 4666 
L 1925 4666 
Q 3281 4666 3915 4102 
Q 4550 3538 4550 2338 
Q 4550 1131 3912 565 
Q 3275 0 1925 0 
L 628 0 
L 628 4666 
z
" transform="scale(0.015625)"/>
       <path id="DejaVuSans-61" d="M 2194 1759 
Q 1497 1759 1228 1600 
Q 959 1441 959 1056 
Q 959 750 1161 570 
Q 1363 391 1709 391 
Q 2188 391 2477 730 
Q 2766 1069 2766 1631 
L 2766 1759 
L 2194 1759 
z
M 3341 1997 
L 3341 0 
L 2766 0 
L 2766 531 
Q 2569 213 2275 61 
Q 1981 -91 1556 -91 
Q 1019 -91 701 211 
Q 384 513 384 1019 
Q 384 1609 779 1909 
Q 1175 2209 1959 2209 
L 2766 2209 
L 2766 2266 
Q 2766 2663 2505 2880 
Q 2244 3097 1772 3097 
Q 1472 3097 1187 3025 
Q 903 2953 641 2809 
L 641 3341 
Q 956 3463 1253 3523 
Q 1550 3584 1831 3584 
Q 2591 3584 2966 3190 
Q 3341 2797 3341 1997 
z
" transform="scale(0.015625)"/>
       <path id="DejaVuSans-79" d="M 2059 -325 
Q 1816 -950 1584 -1140 
Q 1353 -1331 966 -1331 
L 506 -1331 
L 506 -850 
L 844 -850 
Q 1081 -850 1212 -737 
Q 1344 -625 1503 -206 
L 1606 56 
L 191 3500 
L 800 3500 
L 1894 763 
L 2988 3500 
L 3597 3500 
L 2059 -325 
z
" transform="scale(0.015625)"/>
       <path id="DejaVuSans-73" d="M 2834 3397 
L 2834 2853 
Q 2591 2978 2328 3040 
Q 2066 3103 1784 3103 
Q 1356 3103 1142 2972 
Q 928 2841 928 2578 
Q 928 2378 1081 2264 
Q 1234 2150 1697 2047 
L 1894 2003 
Q 2506 1872 2764 1633 
Q 3022 1394 3022 966 
Q 3022 478 2636 193 
Q 2250 -91 1575 -91 
Q 1294 -91 989 -36 
Q 684 19 347 128 
L 347 722 
Q 666 556 975 473 
Q 1284 391 1588 391 
Q 1994 391 2212 530 
Q 2431 669 2431 922 
Q 2431 1156 2273 1281 
Q 2116 1406 1581 1522 
L 1381 1569 
Q 847 1681 609 1914 
Q 372 2147 372 2553 
Q 372 3047 722 3315 
Q 1072 3584 1716 3584 
Q 2034 3584 2315 3537 
Q 2597 3491 2834 3397 
z
" transform="scale(0.015625)"/>
       <path id="DejaVuSans-20" transform="scale(0.015625)"/>
       <path id="DejaVuSans-69" d="M 603 3500 
L 1178 3500 
L 1178 0 
L 603 0 
L 603 3500 
z
M 603 4863 
L 1178 4863 
L 1178 4134 
L 603 4134 
L 603 4863 
z
" transform="scale(0.015625)"/>
       <path id="DejaVuSans-6e" d="M 3513 2113 
L 3513 0 
L 2938 0 
L 2938 2094 
Q 2938 2591 2744 2837 
Q 2550 3084 2163 3084 
Q 1697 3084 1428 2787 
Q 1159 2491 1159 1978 
L 1159 0 
L 581 0 
L 581 3500 
L 1159 3500 
L 1159 2956 
Q 1366 3272 1645 3428 
Q 1925 3584 2291 3584 
Q 2894 3584 3203 3211 
Q 3513 2838 3513 2113 
z
" transform="scale(0.015625)"/>
       <path id="DejaVuSans-63" d="M 3122 3366 
L 3122 2828 
Q 2878 2963 2633 3030 
Q 2388 3097 2138 3097 
Q 1578 3097 1268 2742 
Q 959 2388 959 1747 
Q 959 1106 1268 751 
Q 1578 397 2138 397 
Q 2388 397 2633 464 
Q 2878 531 3122 666 
L 3122 134 
Q 2881 22 2623 -34 
Q 2366 -91 2075 -91 
Q 1284 -91 818 406 
Q 353 903 353 1747 
Q 353 2603 823 3093 
Q 1294 3584 2113 3584 
Q 2378 3584 2631 3529 
Q 2884 3475 3122 3366 
z
" transform="scale(0.015625)"/>
       <path id="DejaVuSans-65" d="M 3597 1894 
L 3597 1613 
L 953 1613 
Q 991 1019 1311 708 
Q 1631 397 2203 397 
Q 2534 397 2845 478 
Q 3156 559 3463 722 
L 3463 178 
Q 3153 47 2828 -22 
Q 2503 -91 2169 -91 
Q 1331 -91 842 396 
Q 353 884 353 1716 
Q 353 2575 817 3079 
Q 1281 3584 2069 3584 
Q 2775 3584 3186 3129 
Q 3597 2675 3597 1894 
z
M 3022 2063 
Q 3016 2534 2758 2815 
Q 2500 3097 2075 3097 
Q 1594 3097 1305 2825 
Q 1016 2553 972 2059 
L 3022 2063 
z
" transform="scale(0.015625)"/>
       <path id="DejaVuSans-74" d="M 1172 4494 
L 1172 3500 
L 2356 3500 
L 2356 3053 
L 1172 3053 
L 1172 1153 
Q 1172 725 1289 603 
Q 1406 481 1766 481 
L 2356 481 
L 2356 0 
L 1766 0 
Q 1100 0 847 248 
Q 594 497 594 1153 
L 594 3053 
L 172 3053 
L 172 3500 
L 594 3500 
L 594 4494 
L 1172 4494 
z
" transform="scale(0.015625)"/>
       <path id="DejaVuSans-67" d="M 2906 1791 
Q 2906 2416 2648 2759 
Q 2391 3103 1925 3103 
Q 1463 3103 1205 2759 
Q 947 2416 947 1791 
Q 947 1169 1205 825 
Q 1463 481 1925 481 
Q 2391 481 2648 825 
Q 2906 1169 2906 1791 
z
M 3481 434 
Q 3481 -459 3084 -895 
Q 2688 -1331 1869 -1331 
Q 1566 -1331 1297 -1286 
Q 1028 -1241 775 -1147 
L 775 -588 
Q 1028 -725 1275 -790 
Q 1522 -856 1778 -856 
Q 2344 -856 2625 -561 
Q 2906 -266 2906 331 
L 2906 616 
Q 2728 306 2450 153 
Q 2172 0 1784 0 
Q 1141 0 747 490 
Q 353 981 353 1791 
Q 353 2603 747 3093 
Q 1141 3584 1784 3584 
Q 2172 3584 2450 3431 
Q 2728 3278 2906 2969 
L 2906 3500 
L 3481 3500 
L 3481 434 
z
" transform="scale(0.015625)"/>
       <path id="DejaVuSans-78" d="M 3513 3500 
L 2247 1797 
L 3578 0 
L 2900 0 
L 1881 1375 
L 863 0 
L 184 0 
L 1544 1831 
L 300 3500 
L 978 3500 
L 1906 2253 
L 2834 3500 
L 3513 3500 
z
" transform="scale(0.015625)"/>
       <path id="DejaVuSans-70" d="M 1159 525 
L 1159 -1331 
L 581 -1331 
L 581 3500 
L 1159 3500 
L 1159 2969 
Q 1341 3281 1617 3432 
Q 1894 3584 2278 3584 
Q 2916 3584 3314 3078 
Q 3713 2572 3713 1747 
Q 3713 922 3314 415 
Q 2916 -91 2278 -91 
Q 1894 -91 1617 61 
Q 1341 213 1159 525 
z
M 3116 1747 
Q 3116 2381 2855 2742 
Q 2594 3103 2138 3103 
Q 1681 3103 1420 2742 
Q 1159 2381 1159 1747 
Q 1159 1113 1420 752 
Q 1681 391 2138 391 
Q 2594 391 2855 752 
Q 3116 1113 3116 1747 
z
" transform="scale(0.015625)"/>
       <path id="DejaVuSans-6f" d="M 1959 3097 
Q 1497 3097 1228 2736 
Q 959 2375 959 1747 
Q 959 1119 1226 758 
Q 1494 397 1959 397 
Q 2419 397 2687 759 
Q 2956 1122 2956 1747 
Q 2956 2369 2687 2733 
Q 2419 3097 1959 3097 
z
M 1959 3584 
Q 2709 3584 3137 3096 
Q 3566 2609 3566 1747 
Q 3566 888 3137 398 
Q 2709 -91 1959 -91 
Q 1206 -91 779 398 
Q 353 888 353 1747 
Q 353 2609 779 3096 
Q 1206 3584 1959 3584 
z
" transform="scale(0.015625)"/>
       <path id="DejaVuSans-75" d="M 544 1381 
L 544 3500 
L 1119 3500 
L 1119 1403 
Q 1119 906 1312 657 
Q 1506 409 1894 409 
Q 2359 409 2629 706 
Q 2900 1003 2900 1516 
L 2900 3500 
L 3475 3500 
L 3475 0 
L 2900 0 
L 2900 538 
Q 2691 219 2414 64 
Q 2138 -91 1772 -91 
Q 1169 -91 856 284 
Q 544 659 544 1381 
z
M 1991 3584 
L 1991 3584 
z
" transform="scale(0.015625)"/>
       <path id="DejaVuSans-72" d="M 2631 2963 
Q 2534 3019 2420 3045 
Q 2306 3072 2169 3072 
Q 1681 3072 1420 2755 
Q 1159 2438 1159 1844 
L 1159 0 
L 581 0 
L 581 3500 
L 1159 3500 
L 1159 2956 
Q 1341 3275 1631 3429 
Q 1922 3584 2338 3584 
Q 2397 3584 2469 3576 
Q 2541 3569 2628 3553 
L 2631 2963 
z
" transform="scale(0.015625)"/>
      </defs>
      <use xlink:href="#DejaVuSans-44"/>
      <use xlink:href="#DejaVuSans-61" x="77.001953"/>
      <use xlink:href="#DejaVuSans-79" x="138.28125"/>
      <use xlink:href="#DejaVuSans-73" x="197.460938"/>
      <use xlink:href="#DejaVuSans-20" x="249.560547"/>
      <use xlink:href="#DejaVuSans-73" x="281.347656"/>
      <use xlink:href="#DejaVuSans-69" x="333.447266"/>
      <use xlink:href="#DejaVuSans-6e" x="361.230469"/>
      <use xlink:href="#DejaVuSans-63" x="424.609375"/>
      <use xlink:href="#DejaVuSans-65" x="479.589844"/>
      <use xlink:href="#DejaVuSans-20" x="541.113281"/>
      <use xlink:href="#DejaVuSans-61" x="572.900391"/>
      <use xlink:href="#DejaVuSans-6e" x="634.179688"/>
      <use xlink:href="#DejaVuSans-74" x="697.558594"/>
      <use xlink:href="#DejaVuSans-69" x="736.767578"/>
      <use xlink:href="#DejaVuSans-67" x="764.550781"/>
      <use xlink:href="#DejaVuSans-65" x="828.027344"/>
      <use xlink:href="#DejaVuSans-6e" x="889.550781"/>
      <use xlink:href="#DejaVuSans-20" x="952.929688"/>
      <use xlink:href="#DejaVuSans-65" x="984.716797"/>
      <use xlink:href="#DejaVuSans-78" x="1044.490234"/>
      <use xlink:href="#DejaVuSans-70" x="1103.669922"/>
      <use xlink:href="#DejaVuSans-6f" x="1167.146484"/>
      <use xlink:href="#DejaVuSans-73" x="1228.328125"/>
      <use xlink:href="#DejaVuSans-75" x="1280.427734"/>
      <use xlink:href="#DejaVuSans-72" x="1343.806641"/>
      <use xlink:href="#DejaVuSans-65" x="1382.669922"/>
     </g>
    </g>
   </g>
   <g id="matplotlib.axis_2">
    <g id="ytick_1">
     <g id="line2d_8">
      <defs>
       <path id="m9a3e8d1159" d="M 0 0 
L -3.5 0 
" style="stroke: #000000; stroke-width: 0.8"/>
      </defs>
      <g>
       <use xlink:href="#m9a3e8d1159" x="104.483125" y="416.476875" style="stroke: #000000; stroke-width: 0.8"/>
      </g>
     </g>
     <g id="text_9">
      <!-- 0.00 -->
      <g transform="translate(52.951875 424.075312) scale(0.2 -0.2)">
       <defs>
        <path id="DejaVuSans-2e" d="M 684 794 
L 1344 794 
L 1344 0 
L 684 0 
L 684 794 
z
" transform="scale(0.015625)"/>
       </defs>
       <use xlink:href="#DejaVuSans-30"/>
       <use xlink:href="#DejaVuSans-2e" x="63.623047"/>
       <use xlink:href="#DejaVuSans-30" x="95.410156"/>
       <use xlink:href="#DejaVuSans-30" x="159.033203"/>
      </g>
     </g>
    </g>
    <g id="ytick_2">
     <g id="line2d_9">
      <g>
       <use xlink:href="#m9a3e8d1159" x="104.483125" y="361.245745" style="stroke: #000000; stroke-width: 0.8"/>
      </g>
     </g>
     <g id="text_10">
      <!-- 0.05 -->
      <g transform="translate(52.951875 368.844183) scale(0.2 -0.2)">
       <use xlink:href="#DejaVuSans-30"/>
       <use xlink:href="#DejaVuSans-2e" x="63.623047"/>
       <use xlink:href="#DejaVuSans-30" x="95.410156"/>
       <use xlink:href="#DejaVuSans-35" x="159.033203"/>
      </g>
     </g>
    </g>
    <g id="ytick_3">
     <g id="line2d_10">
      <g>
       <use xlink:href="#m9a3e8d1159" x="104.483125" y="306.014616" style="stroke: #000000; stroke-width: 0.8"/>
      </g>
     </g>
     <g id="text_11">
      <!-- 0.10 -->
      <g transform="translate(52.951875 313.613053) scale(0.2 -0.2)">
       <use xlink:href="#DejaVuSans-30"/>
       <use xlink:href="#DejaVuSans-2e" x="63.623047"/>
       <use xlink:href="#DejaVuSans-31" x="95.410156"/>
       <use xlink:href="#DejaVuSans-30" x="159.033203"/>
      </g>
     </g>
    </g>
    <g id="ytick_4">
     <g id="line2d_11">
      <g>
       <use xlink:href="#m9a3e8d1159" x="104.483125" y="250.783486" style="stroke: #000000; stroke-width: 0.8"/>
      </g>
     </g>
     <g id="text_12">
      <!-- 0.15 -->
      <g transform="translate(52.951875 258.381924) scale(0.2 -0.2)">
       <use xlink:href="#DejaVuSans-30"/>
       <use xlink:href="#DejaVuSans-2e" x="63.623047"/>
       <use xlink:href="#DejaVuSans-31" x="95.410156"/>
       <use xlink:href="#DejaVuSans-35" x="159.033203"/>
      </g>
     </g>
    </g>
    <g id="ytick_5">
     <g id="line2d_12">
      <g>
       <use xlink:href="#m9a3e8d1159" x="104.483125" y="195.552357" style="stroke: #000000; stroke-width: 0.8"/>
      </g>
     </g>
     <g id="text_13">
      <!-- 0.20 -->
      <g transform="translate(52.951875 203.150794) scale(0.2 -0.2)">
       <use xlink:href="#DejaVuSans-30"/>
       <use xlink:href="#DejaVuSans-2e" x="63.623047"/>
       <use xlink:href="#DejaVuSans-32" x="95.410156"/>
       <use xlink:href="#DejaVuSans-30" x="159.033203"/>
      </g>
     </g>
    </g>
    <g id="ytick_6">
     <g id="line2d_13">
      <g>
       <use xlink:href="#m9a3e8d1159" x="104.483125" y="140.321227" style="stroke: #000000; stroke-width: 0.8"/>
      </g>
     </g>
     <g id="text_14">
      <!-- 0.25 -->
      <g transform="translate(52.951875 147.919665) scale(0.2 -0.2)">
       <use xlink:href="#DejaVuSans-30"/>
       <use xlink:href="#DejaVuSans-2e" x="63.623047"/>
       <use xlink:href="#DejaVuSans-32" x="95.410156"/>
       <use xlink:href="#DejaVuSans-35" x="159.033203"/>
      </g>
     </g>
    </g>
    <g id="ytick_7">
     <g id="line2d_14">
      <g>
       <use xlink:href="#m9a3e8d1159" x="104.483125" y="85.090097" style="stroke: #000000; stroke-width: 0.8"/>
      </g>
     </g>
     <g id="text_15">
      <!-- 0.30 -->
      <g transform="translate(52.951875 92.688535) scale(0.2 -0.2)">
       <use xlink:href="#DejaVuSans-30"/>
       <use xlink:href="#DejaVuSans-2e" x="63.623047"/>
       <use xlink:href="#DejaVuSans-33" x="95.410156"/>
       <use xlink:href="#DejaVuSans-30" x="159.033203"/>
      </g>
     </g>
    </g>
    <g id="ytick_8">
     <g id="line2d_15">
      <g>
       <use xlink:href="#m9a3e8d1159" x="104.483125" y="29.858968" style="stroke: #000000; stroke-width: 0.8"/>
      </g>
     </g>
     <g id="text_16">
      <!-- 0.35 -->
      <g transform="translate(52.951875 37.457405) scale(0.2 -0.2)">
       <use xlink:href="#DejaVuSans-30"/>
       <use xlink:href="#DejaVuSans-2e" x="63.623047"/>
       <use xlink:href="#DejaVuSans-33" x="95.410156"/>
       <use xlink:href="#DejaVuSans-35" x="159.033203"/>
      </g>
     </g>
    </g>
    <g id="text_17">
     <!-- Virus neutralization -->
     <g transform="translate(22.396875 319.741562) rotate(-90) scale(0.2 -0.2)">
      <defs>
       <path id="DejaVuSans-56" d="M 1831 0 
L 50 4666 
L 709 4666 
L 2188 738 
L 3669 4666 
L 4325 4666 
L 2547 0 
L 1831 0 
z
" transform="scale(0.015625)"/>
       <path id="DejaVuSans-6c" d="M 603 4863 
L 1178 4863 
L 1178 0 
L 603 0 
L 603 4863 
z
" transform="scale(0.015625)"/>
       <path id="DejaVuSans-7a" d="M 353 3500 
L 3084 3500 
L 3084 2975 
L 922 459 
L 3084 459 
L 3084 0 
L 275 0 
L 275 525 
L 2438 3041 
L 353 3041 
L 353 3500 
z
" transform="scale(0.015625)"/>
      </defs>
      <use xlink:href="#DejaVuSans-56"/>
      <use xlink:href="#DejaVuSans-69" x="66.158203"/>
      <use xlink:href="#DejaVuSans-72" x="93.941406"/>
      <use xlink:href="#DejaVuSans-75" x="135.054688"/>
      <use xlink:href="#DejaVuSans-73" x="198.433594"/>
      <use xlink:href="#DejaVuSans-20" x="250.533203"/>
      <use xlink:href="#DejaVuSans-6e" x="282.320312"/>
      <use xlink:href="#DejaVuSans-65" x="345.699219"/>
      <use xlink:href="#DejaVuSans-75" x="407.222656"/>
      <use xlink:href="#DejaVuSans-74" x="470.601562"/>
      <use xlink:href="#DejaVuSans-72" x="509.810547"/>
      <use xlink:href="#DejaVuSans-61" x="550.923828"/>
      <use xlink:href="#DejaVuSans-6c" x="612.203125"/>
      <use xlink:href="#DejaVuSans-69" x="639.986328"/>
      <use xlink:href="#DejaVuSans-7a" x="667.769531"/>
      <use xlink:href="#DejaVuSans-61" x="720.259766"/>
      <use xlink:href="#DejaVuSans-74" x="781.539062"/>
      <use xlink:href="#DejaVuSans-69" x="820.748047"/>
      <use xlink:href="#DejaVuSans-6f" x="848.53125"/>
      <use xlink:href="#DejaVuSans-6e" x="909.712891"/>
     </g>
     <!--  probability -->
     <g transform="translate(44.7925 278.966562) rotate(-90) scale(0.2 -0.2)">
      <defs>
       <path id="DejaVuSans-62" d="M 3116 1747 
Q 3116 2381 2855 2742 
Q 2594 3103 2138 3103 
Q 1681 3103 1420 2742 
Q 1159 2381 1159 1747 
Q 1159 1113 1420 752 
Q 1681 391 2138 391 
Q 2594 391 2855 752 
Q 3116 1113 3116 1747 
z
M 1159 2969 
Q 1341 3281 1617 3432 
Q 1894 3584 2278 3584 
Q 2916 3584 3314 3078 
Q 3713 2572 3713 1747 
Q 3713 922 3314 415 
Q 2916 -91 2278 -91 
Q 1894 -91 1617 61 
Q 1341 213 1159 525 
L 1159 0 
L 581 0 
L 581 4863 
L 1159 4863 
L 1159 2969 
z
" transform="scale(0.015625)"/>
      </defs>
      <use xlink:href="#DejaVuSans-20"/>
      <use xlink:href="#DejaVuSans-70" x="31.787109"/>
      <use xlink:href="#DejaVuSans-72" x="95.263672"/>
      <use xlink:href="#DejaVuSans-6f" x="134.126953"/>
      <use xlink:href="#DejaVuSans-62" x="195.308594"/>
      <use xlink:href="#DejaVuSans-61" x="258.785156"/>
      <use xlink:href="#DejaVuSans-62" x="320.064453"/>
      <use xlink:href="#DejaVuSans-69" x="383.541016"/>
      <use xlink:href="#DejaVuSans-6c" x="411.324219"/>
      <use xlink:href="#DejaVuSans-69" x="439.107422"/>
      <use xlink:href="#DejaVuSans-74" x="466.890625"/>
      <use xlink:href="#DejaVuSans-79" x="506.099609"/>
     </g>
    </g>
   </g>
   <g id="patch_3">
    <path d="M 104.483125 416.476875 
L 104.483125 28.396875 
" style="fill: none; stroke: #000000; stroke-width: 0.8; stroke-linejoin: miter; stroke-linecap: square"/>
   </g>
   <g id="patch_4">
    <path d="M 662.483125 416.476875 
L 662.483125 28.396875 
" style="fill: none; stroke: #000000; stroke-width: 0.8; stroke-linejoin: miter; stroke-linecap: square"/>
   </g>
   <g id="patch_5">
    <path d="M 104.483125 416.476875 
L 662.483125 416.476875 
" style="fill: none; stroke: #000000; stroke-width: 0.8; stroke-linejoin: miter; stroke-linecap: square"/>
   </g>
   <g id="patch_6">
    <path d="M 104.483125 28.396875 
L 662.483125 28.396875 
" style="fill: none; stroke: #000000; stroke-width: 0.8; stroke-linejoin: miter; stroke-linecap: square"/>
   </g>
   <g id="text_18">
    <!-- Wuhan-Hu-1 antigen -->
    <g transform="translate(280.200312 22.396875) scale(0.2 -0.2)">
     <defs>
      <path id="DejaVuSans-57" d="M 213 4666 
L 850 4666 
L 1831 722 
L 2809 4666 
L 3519 4666 
L 4500 722 
L 5478 4666 
L 6119 4666 
L 4947 0 
L 4153 0 
L 3169 4050 
L 2175 0 
L 1381 0 
L 213 4666 
z
" transform="scale(0.015625)"/>
      <path id="DejaVuSans-68" d="M 3513 2113 
L 3513 0 
L 2938 0 
L 2938 2094 
Q 2938 2591 2744 2837 
Q 2550 3084 2163 3084 
Q 1697 3084 1428 2787 
Q 1159 2491 1159 1978 
L 1159 0 
L 581 0 
L 581 4863 
L 1159 4863 
L 1159 2956 
Q 1366 3272 1645 3428 
Q 1925 3584 2291 3584 
Q 2894 3584 3203 3211 
Q 3513 2838 3513 2113 
z
" transform="scale(0.015625)"/>
      <path id="DejaVuSans-2d" d="M 313 2009 
L 1997 2009 
L 1997 1497 
L 313 1497 
L 313 2009 
z
" transform="scale(0.015625)"/>
      <path id="DejaVuSans-48" d="M 628 4666 
L 1259 4666 
L 1259 2753 
L 3553 2753 
L 3553 4666 
L 4184 4666 
L 4184 0 
L 3553 0 
L 3553 2222 
L 1259 2222 
L 1259 0 
L 628 0 
L 628 4666 
z
" transform="scale(0.015625)"/>
     </defs>
     <use xlink:href="#DejaVuSans-57"/>
     <use xlink:href="#DejaVuSans-75" x="95.251953"/>
     <use xlink:href="#DejaVuSans-68" x="158.630859"/>
     <use xlink:href="#DejaVuSans-61" x="222.009766"/>
     <use xlink:href="#DejaVuSans-6e" x="283.289062"/>
     <use xlink:href="#DejaVuSans-2d" x="346.667969"/>
     <use xlink:href="#DejaVuSans-48" x="382.751953"/>
     <use xlink:href="#DejaVuSans-75" x="457.947266"/>
     <use xlink:href="#DejaVuSans-2d" x="521.326172"/>
     <use xlink:href="#DejaVuSans-31" x="557.410156"/>
     <use xlink:href="#DejaVuSans-20" x="621.033203"/>
     <use xlink:href="#DejaVuSans-61" x="652.820312"/>
     <use xlink:href="#DejaVuSans-6e" x="714.099609"/>
     <use xlink:href="#DejaVuSans-74" x="777.478516"/>
     <use xlink:href="#DejaVuSans-69" x="816.6875"/>
     <use xlink:href="#DejaVuSans-67" x="844.470703"/>
     <use xlink:href="#DejaVuSans-65" x="907.947266"/>
     <use xlink:href="#DejaVuSans-6e" x="969.470703"/>
    </g>
   </g>
   <g id="legend_1">
    <g id="patch_7">
     <path d="M 778.083125 416.476875 
L 908.38 416.476875 
Q 912.38 416.476875 912.38 412.476875 
L 912.38 385.120625 
Q 912.38 381.120625 908.38 381.120625 
L 778.083125 381.120625 
Q 774.083125 381.120625 774.083125 385.120625 
L 774.083125 412.476875 
Q 774.083125 416.476875 778.083125 416.476875 
z
" style="fill: #ffffff; opacity: 0.8; stroke: #cccccc; stroke-linejoin: miter"/>
    </g>
    <g id="patch_8">
     <path d="M 782.083125 404.3175 
L 822.083125 404.3175 
L 822.083125 390.3175 
L 782.083125 390.3175 
z
" style="fill: #ff0000; fill-opacity: 0.3; stroke: #ff0000; stroke-opacity: 0.3; stroke-linejoin: miter"/>
    </g>
    <g id="text_19">
     <!-- EG.1.3 -->
     <g transform="translate(838.083125 404.3175) scale(0.2 -0.2)">
      <defs>
       <path id="DejaVuSans-45" d="M 628 4666 
L 3578 4666 
L 3578 4134 
L 1259 4134 
L 1259 2753 
L 3481 2753 
L 3481 2222 
L 1259 2222 
L 1259 531 
L 3634 531 
L 3634 0 
L 628 0 
L 628 4666 
z
" transform="scale(0.015625)"/>
       <path id="DejaVuSans-47" d="M 3809 666 
L 3809 1919 
L 2778 1919 
L 2778 2438 
L 4434 2438 
L 4434 434 
Q 4069 175 3628 42 
Q 3188 -91 2688 -91 
Q 1594 -91 976 548 
Q 359 1188 359 2328 
Q 359 3472 976 4111 
Q 1594 4750 2688 4750 
Q 3144 4750 3555 4637 
Q 3966 4525 4313 4306 
L 4313 3634 
Q 3963 3931 3569 4081 
Q 3175 4231 2741 4231 
Q 1884 4231 1454 3753 
Q 1025 3275 1025 2328 
Q 1025 1384 1454 906 
Q 1884 428 2741 428 
Q 3075 428 3337 486 
Q 3600 544 3809 666 
z
" transform="scale(0.015625)"/>
      </defs>
      <use xlink:href="#DejaVuSans-45"/>
      <use xlink:href="#DejaVuSans-47" x="63.183594"/>
      <use xlink:href="#DejaVuSans-2e" x="140.673828"/>
      <use xlink:href="#DejaVuSans-31" x="172.460938"/>
      <use xlink:href="#DejaVuSans-2e" x="236.083984"/>
      <use xlink:href="#DejaVuSans-33" x="267.871094"/>
     </g>
    </g>
   </g>
  </g>
 </g>
 <defs>
  <clipPath id="p099be2e75c">
   <rect x="104.483125" y="28.396875" width="558" height="388.08"/>
  </clipPath>
 </defs>
</svg>
