<?xml version="1.0" encoding="utf-8" standalone="no"?>
<!DOCTYPE svg PUBLIC "-//W3C//DTD SVG 1.1//EN"
  "http://www.w3.org/Graphics/SVG/1.1/DTD/svg11.dtd">
<svg xmlns:xlink="http://www.w3.org/1999/xlink" width="900.520625pt" height="473.389375pt" viewBox="0 0 900.520625 473.389375" xmlns="http://www.w3.org/2000/svg" version="1.1">
 <metadata>
  <rdf:RDF xmlns:dc="http://purl.org/dc/elements/1.1/" xmlns:cc="http://creativecommons.org/ns#" xmlns:rdf="http://www.w3.org/1999/02/22-rdf-syntax-ns#">
   <cc:Work>
    <dc:type rdf:resource="http://purl.org/dc/dcmitype/StillImage"/>
    <dc:date>2023-11-12T17:22:46.384079</dc:date>
    <dc:format>image/svg+xml</dc:format>
    <dc:creator>
     <cc:Agent>
      <dc:title>Matplotlib v3.7.2, https://matplotlib.org/</dc:title>
     </cc:Agent>
    </dc:creator>
   </cc:Work>
  </rdf:RDF>
 </metadata>
 <defs>
  <style type="text/css">*{stroke-linejoin: round; stroke-linecap: butt}</style>
 </defs>
 <g id="figure_1">
  <g id="patch_1">
   <path d="M 0 473.389375 
L 900.520625 473.389375 
L 900.520625 0 
L 0 0 
z
" style="fill: #ffffff"/>
  </g>
  <g id="axes_1">
   <g id="patch_2">
    <path d="M 104.483125 416.476875 
L 662.483125 416.476875 
L 662.483125 28.396875 
L 104.483125 28.396875 
z
" style="fill: #ffffff"/>
   </g>
   <g id="PolyCollection_1">
    <defs>
     <path id="m5e194a9a50" d="M 129.846761 -155.122642 
L 129.846761 -96.789583 
L 130.622408 -132.397263 
L 131.398054 -164.256108 
L 132.1737 -192.806046 
L 132.949347 -218.421378 
L 133.724993 -241.42257 
L 134.50064 -262.085602 
L 135.276286 -280.649435 
L 136.051932 -297.322041 
L 136.827579 -312.285283 
L 137.603225 -325.698921 
L 138.378871 -337.703892 
L 139.154518 -348.425034 
L 139.930164 -357.973348 
L 140.705811 -366.447895 
L 141.481457 -373.937387 
L 142.257103 -380.52153 
L 143.03275 -386.272172 
L 143.808396 -391.254265 
L 144.584042 -394.394477 
L 145.359689 -389.861317 
L 146.135335 -384.999035 
L 146.910982 -379.869001 
L 147.686628 -374.524032 
L 148.462274 -369.009634 
L 149.237921 -363.365045 
L 150.013567 -357.624109 
L 150.789213 -351.816024 
L 151.56486 -345.965966 
L 152.340506 -340.095632 
L 153.116153 -334.223698 
L 153.891799 -328.366217 
L 154.667445 -322.536957 
L 155.443092 -316.747702 
L 156.218738 -311.008502 
L 156.994384 -305.327898 
L 157.770031 -299.713111 
L 158.545677 -294.170215 
L 159.321323 -288.704277 
L 160.09697 -283.31949 
L 160.872616 -278.01928 
L 161.648263 -272.806406 
L 162.423909 -267.683043 
L 163.199555 -262.650858 
L 163.975202 -257.711074 
L 164.750848 -252.864528 
L 165.526494 -248.111722 
L 166.302141 -243.452863 
L 167.077787 -238.887905 
L 167.853434 -234.416583 
L 168.62908 -230.038441 
L 169.404726 -225.752857 
L 170.180373 -221.559068 
L 170.956019 -217.45619 
L 171.731665 -213.443234 
L 172.507312 -209.519124 
L 173.282958 -205.682707 
L 174.058605 -201.932768 
L 174.834251 -198.268042 
L 175.609897 -194.687216 
L 176.385544 -191.188945 
L 177.16119 -187.771858 
L 177.936836 -184.434558 
L 178.712483 -181.175636 
L 179.488129 -177.993669 
L 180.263776 -174.887229 
L 181.039422 -171.854885 
L 181.815068 -168.895206 
L 182.590715 -166.006763 
L 183.366361 -163.188135 
L 184.142007 -160.437906 
L 184.917654 -157.754673 
L 185.6933 -155.137043 
L 186.468947 -152.583636 
L 187.244593 -150.093087 
L 188.020239 -147.664046 
L 188.795886 -145.29518 
L 189.571532 -142.985174 
L 190.347178 -140.732729 
L 191.122825 -138.536565 
L 191.898471 -136.395424 
L 192.674117 -134.308063 
L 193.449764 -132.273262 
L 194.22541 -130.289821 
L 195.001057 -128.356558 
L 195.776703 -126.472314 
L 196.552349 -124.63595 
L 197.327996 -122.846346 
L 198.103642 -121.102405 
L 198.879288 -119.403048 
L 199.654935 -117.747218 
L 200.430581 -116.13388 
L 201.206228 -114.562016 
L 201.981874 -113.030631 
L 202.75752 -111.538748 
L 203.533167 -110.085412 
L 204.308813 -108.669685 
L 205.084459 -107.290652 
L 205.860106 -105.947414 
L 206.635752 -104.639092 
L 207.411399 -103.364828 
L 208.187045 -102.123779 
L 208.962691 -100.915123 
L 209.738338 -99.738056 
L 210.513984 -98.591789 
L 211.28963 -97.475554 
L 212.065277 -96.388598 
L 212.840923 -95.330187 
L 213.61657 -94.299601 
L 214.392216 -93.296138 
L 215.167862 -92.319113 
L 215.943509 -91.367855 
L 216.719155 -90.44171 
L 217.494801 -89.540039 
L 218.270448 -88.662216 
L 219.046094 -87.807634 
L 219.821741 -86.975695 
L 220.597387 -86.165821 
L 221.373033 -85.377443 
L 222.14868 -84.610008 
L 222.924326 -83.862976 
L 223.699972 -83.135819 
L 224.475619 -82.428025 
L 225.251265 -81.73909 
L 226.026911 -81.068525 
L 226.802558 -80.415853 
L 227.578204 -79.780609 
L 228.353851 -79.162337 
L 229.129497 -78.560595 
L 229.905143 -77.974951 
L 230.68079 -77.404984 
L 231.456436 -76.850283 
L 232.232082 -76.310447 
L 233.007729 -75.785086 
L 233.783375 -75.27382 
L 234.559022 -74.776277 
L 235.334668 -74.292096 
L 236.110314 -73.820925 
L 236.885961 -73.36242 
L 237.661607 -72.916247 
L 238.437253 -72.482079 
L 239.2129 -72.059598 
L 239.988546 -71.648494 
L 240.764193 -71.248467 
L 241.539839 -70.859221 
L 242.315485 -70.480471 
L 243.091132 -70.111937 
L 243.866778 -69.753347 
L 244.642424 -69.404437 
L 245.418071 -69.064949 
L 246.193717 -68.734632 
L 246.969364 -68.41324 
L 247.74501 -68.100535 
L 248.520656 -67.796285 
L 249.296303 -67.500265 
L 250.071949 -67.212254 
L 250.847595 -66.932037 
L 251.623242 -66.659406 
L 252.398888 -66.394157 
L 253.174535 -66.136093 
L 253.950181 -65.885021 
L 254.725827 -65.640752 
L 255.501474 -65.403105 
L 256.27712 -65.171901 
L 257.052766 -64.946967 
L 257.828413 -64.728134 
L 258.604059 -64.515239 
L 259.379705 -64.308121 
L 260.155352 -64.106625 
L 260.930998 -63.910599 
L 261.706645 -63.719896 
L 262.482291 -63.534372 
L 263.257937 -63.353887 
L 264.033584 -63.178307 
L 264.80923 -63.007497 
L 265.584876 -62.84133 
L 266.360523 -62.67968 
L 267.136169 -62.522424 
L 267.911816 -62.369445 
L 268.687462 -62.220626 
L 269.463108 -62.075855 
L 270.238755 -61.935022 
L 271.014401 -61.798021 
L 271.790047 -61.664748 
L 272.565694 -61.535102 
L 273.34134 -61.408984 
L 274.116987 -61.2863 
L 274.892633 -61.166956 
L 275.668279 -61.050862 
L 276.443926 -60.937929 
L 277.219572 -60.828072 
L 277.995218 -60.721207 
L 278.770865 -60.617253 
L 279.546511 -60.516132 
L 280.322158 -60.417765 
L 281.097804 -60.322079 
L 281.87345 -60.229001 
L 282.649097 -60.138459 
L 283.424743 -60.050385 
L 284.200389 -59.964712 
L 284.976036 -59.881375 
L 285.751682 -59.80031 
L 286.527329 -59.721455 
L 287.302975 -59.64475 
L 288.078621 -59.570137 
L 288.854268 -59.497559 
L 289.629914 -59.426961 
L 290.40556 -59.358288 
L 291.181207 -59.291488 
L 291.956853 -59.226511 
L 292.732499 -59.163306 
L 293.508146 -59.101826 
L 294.283792 -59.042024 
L 295.059439 -58.983853 
L 295.835085 -58.927269 
L 296.610731 -58.87223 
L 297.386378 -58.818693 
L 298.162024 -58.766617 
L 298.93767 -58.715962 
L 299.713317 -58.666691 
L 300.488963 -58.618764 
L 301.26461 -58.572145 
L 302.040256 -58.526799 
L 302.815902 -58.482691 
L 303.591549 -58.439787 
L 304.367195 -58.398055 
L 305.142841 -58.357462 
L 305.918488 -58.317978 
L 306.694134 -58.279571 
L 307.469781 -58.242214 
L 308.245427 -58.205877 
L 309.021073 -58.170532 
L 309.79672 -58.136152 
L 310.572366 -58.102712 
L 311.348012 -58.070184 
L 312.123659 -58.038545 
L 312.899305 -58.007771 
L 313.674952 -57.977837 
L 314.450598 -57.94872 
L 315.226244 -57.920399 
L 316.001891 -57.892852 
L 316.777537 -57.866057 
L 317.553183 -57.839994 
L 318.32883 -57.814643 
L 319.104476 -57.789985 
L 319.880122 -57.766001 
L 320.655769 -57.742672 
L 321.431415 -57.71998 
L 322.207062 -57.697908 
L 322.982708 -57.676439 
L 323.758354 -57.655557 
L 324.534001 -57.635246 
L 325.309647 -57.615489 
L 326.085293 -57.596273 
L 326.86094 -57.577581 
L 327.636586 -57.5594 
L 328.412233 -57.541716 
L 329.187879 -57.524516 
L 329.963525 -57.507785 
L 330.739172 -57.491512 
L 331.514818 -57.475683 
L 332.290464 -57.460287 
L 333.066111 -57.445312 
L 333.841757 -57.430746 
L 334.617404 -57.416578 
L 335.39305 -57.402798 
L 336.168696 -57.389394 
L 336.944343 -57.376356 
L 337.719989 -57.363675 
L 338.495635 -57.35134 
L 339.271282 -57.339343 
L 340.046928 -57.327673 
L 340.822575 -57.316322 
L 341.598221 -57.305282 
L 342.373867 -57.294544 
L 343.149514 -57.284099 
L 343.92516 -57.273939 
L 344.700806 -57.264057 
L 345.476453 -57.254446 
L 346.252099 -57.245097 
L 347.027746 -57.236003 
L 347.803392 -57.227158 
L 348.579038 -57.218555 
L 349.354685 -57.210188 
L 350.130331 -57.202048 
L 350.905977 -57.194132 
L 351.681624 -57.186432 
L 352.45727 -57.178942 
L 353.232916 -57.171657 
L 354.008563 -57.164571 
L 354.784209 -57.157679 
L 355.559856 -57.150976 
L 356.335502 -57.144455 
L 357.111148 -57.138113 
L 357.886795 -57.131944 
L 358.662441 -57.125944 
L 359.438087 -57.120108 
L 360.213734 -57.114432 
L 360.98938 -57.108911 
L 361.765027 -57.10354 
L 362.540673 -57.098317 
L 363.316319 -57.093236 
L 364.091966 -57.088294 
L 364.867612 -57.083488 
L 365.643258 -57.078812 
L 366.418905 -57.074265 
L 367.194551 -57.069842 
L 367.970198 -57.06554 
L 368.745844 -57.061355 
L 369.52149 -57.057285 
L 370.297137 -57.053326 
L 371.072783 -57.049475 
L 371.848429 -57.04573 
L 372.624076 -57.042087 
L 373.399722 -57.038544 
L 374.175369 -57.035097 
L 374.951015 -57.031745 
L 375.726661 -57.028484 
L 376.502308 -57.025313 
L 377.277954 -57.022228 
L 378.0536 -57.019228 
L 378.829247 -57.01631 
L 379.604893 -57.013471 
L 380.38054 -57.01071 
L 381.156186 -57.008025 
L 381.931832 -57.005413 
L 382.707479 -57.002872 
L 383.483125 -57.000401 
L 384.258771 -56.997997 
L 385.034418 -56.99566 
L 385.810064 -56.993386 
L 386.58571 -56.991174 
L 387.361357 -56.989023 
L 388.137003 -56.98693 
L 388.91265 -56.984895 
L 389.688296 -56.982916 
L 390.463942 -56.98099 
L 391.239589 -56.979117 
L 392.015235 -56.977296 
L 392.790881 -56.975524 
L 393.566528 -56.973801 
L 394.342174 -56.972124 
L 395.117821 -56.970494 
L 395.893467 -56.968908 
L 396.669113 -56.967366 
L 397.44476 -56.965865 
L 398.220406 -56.964406 
L 398.996052 -56.962987 
L 399.771699 -56.961606 
L 400.547345 -56.960264 
L 401.322992 -56.958957 
L 402.098638 -56.957687 
L 402.874284 -56.956451 
L 403.649931 -56.95525 
L 404.425577 -56.954081 
L 405.201223 -56.952944 
L 405.97687 -56.951838 
L 406.752516 -56.950762 
L 407.528163 -56.949716 
L 408.303809 -56.948698 
L 409.079455 -56.947708 
L 409.855102 -56.946746 
L 410.630748 -56.945809 
L 411.406394 -56.944898 
L 412.182041 -56.944012 
L 412.957687 -56.943151 
L 413.733334 -56.942313 
L 414.50898 -56.941497 
L 415.284626 -56.940704 
L 416.060273 -56.939933 
L 416.835919 -56.939183 
L 417.611565 -56.938453 
L 418.387212 -56.937744 
L 419.162858 -56.937053 
L 419.938504 -56.936382 
L 420.714151 -56.935729 
L 421.489797 -56.935094 
L 422.265444 -56.934476 
L 423.04109 -56.933875 
L 423.816736 -56.933291 
L 424.592383 -56.932722 
L 425.368029 -56.932169 
L 426.143675 -56.931631 
L 426.919322 -56.931108 
L 427.694968 -56.930599 
L 428.470615 -56.930104 
L 429.246261 -56.929623 
L 430.021907 -56.929155 
L 430.797554 -56.928699 
L 431.5732 -56.928256 
L 432.348846 -56.927825 
L 433.124493 -56.927406 
L 433.900139 -56.926999 
L 434.675786 -56.926602 
L 435.451432 -56.926217 
L 436.227078 -56.925842 
L 437.002725 -56.925477 
L 437.778371 -56.925122 
L 438.554017 -56.924777 
L 439.329664 -56.924441 
L 440.10531 -56.924115 
L 440.880957 -56.923797 
L 441.656603 -56.923488 
L 442.432249 -56.923188 
L 443.207896 -56.922895 
L 443.983542 -56.922611 
L 444.759188 -56.922335 
L 445.534835 -56.922066 
L 446.310481 -56.921804 
L 447.086128 -56.92155 
L 447.861774 -56.921302 
L 448.63742 -56.921062 
L 449.413067 -56.920827 
L 450.188713 -56.9206 
L 450.964359 -56.920378 
L 451.740006 -56.920163 
L 452.515652 -56.919953 
L 453.291298 -56.919749 
L 454.066945 -56.919551 
L 454.842591 -56.919358 
L 455.618238 -56.919171 
L 456.393884 -56.918988 
L 457.16953 -56.918811 
L 457.945177 -56.918638 
L 458.720823 -56.918471 
L 459.496469 -56.918307 
L 460.272116 -56.918149 
L 461.047762 -56.917994 
L 461.823409 -56.917844 
L 462.599055 -56.917698 
L 463.374701 -56.917556 
L 464.150348 -56.917417 
L 464.925994 -56.917283 
L 465.70164 -56.917152 
L 466.477287 -56.917025 
L 467.252933 -56.916901 
L 468.02858 -56.916781 
L 468.804226 -56.916664 
L 469.579872 -56.91655 
L 470.355519 -56.916439 
L 471.131165 -56.916331 
L 471.906811 -56.916227 
L 472.682458 -56.916125 
L 473.458104 -56.916026 
L 474.233751 -56.915929 
L 475.009397 -56.915835 
L 475.785043 -56.915744 
L 476.56069 -56.915656 
L 477.336336 -56.915569 
L 478.111982 -56.915485 
L 478.887629 -56.915404 
L 479.663275 -56.915324 
L 480.438921 -56.915247 
L 481.214568 -56.915172 
L 481.990214 -56.915099 
L 482.765861 -56.915028 
L 483.541507 -56.914959 
L 484.317153 -56.914891 
L 485.0928 -56.914826 
L 485.868446 -56.914762 
L 486.644092 -56.914701 
L 487.419739 -56.91464 
L 488.195385 -56.914582 
L 488.971032 -56.914525 
L 489.746678 -56.91447 
L 490.522324 -56.914416 
L 491.297971 -56.914363 
L 492.073617 -56.914312 
L 492.849263 -56.914263 
L 493.62491 -56.914215 
L 494.400556 -56.914168 
L 495.176203 -56.914122 
L 495.951849 -56.914078 
L 496.727495 -56.914035 
L 497.503142 -56.913993 
L 498.278788 -56.913952 
L 499.054434 -56.913912 
L 499.830081 -56.913874 
L 500.605727 -56.913836 
L 501.381374 -56.913799 
L 502.15702 -56.913764 
L 502.932666 -56.913729 
L 503.708313 -56.913696 
L 504.483959 -56.913663 
L 505.259605 -56.913631 
L 506.035252 -56.9136 
L 506.810898 -56.91357 
L 507.586545 -56.913541 
L 508.362191 -56.913512 
L 509.137837 -56.913485 
L 509.913484 -56.913458 
L 510.68913 -56.913432 
L 511.464776 -56.913406 
L 512.240423 -56.913381 
L 513.016069 -56.913357 
L 513.791715 -56.913334 
L 514.567362 -56.913311 
L 515.343008 -56.913289 
L 516.118655 -56.913267 
L 516.894301 -56.913246 
L 517.669947 -56.913226 
L 518.445594 -56.913206 
L 519.22124 -56.913187 
L 519.996886 -56.913168 
L 520.772533 -56.91315 
L 521.548179 -56.913132 
L 522.323826 -56.913115 
L 523.099472 -56.913098 
L 523.875118 -56.913082 
L 524.650765 -56.913066 
L 525.426411 -56.91305 
L 526.202057 -56.913035 
L 526.977704 -56.91302 
L 527.75335 -56.913006 
L 528.528997 -56.912992 
L 529.304643 -56.912979 
L 530.080289 -56.912966 
L 530.855936 -56.912953 
L 531.631582 -56.912941 
L 532.407228 -56.912929 
L 533.182875 -56.912917 
L 533.958521 -56.912906 
L 534.734168 -56.912894 
L 535.509814 -56.912884 
L 536.28546 -56.912873 
L 537.061107 -56.912863 
L 537.836753 -56.912853 
L 538.612399 -56.912843 
L 539.388046 -56.912834 
L 540.163692 -56.912825 
L 540.939339 -56.912816 
L 541.714985 -56.912807 
L 542.490631 -56.912799 
L 543.266278 -56.912791 
L 544.041924 -56.912783 
L 544.81757 -56.912775 
L 545.593217 -56.912768 
L 546.368863 -56.91276 
L 547.144509 -56.912753 
L 547.920156 -56.912746 
L 548.695802 -56.912739 
L 549.471449 -56.912733 
L 550.247095 -56.912727 
L 551.022741 -56.91272 
L 551.798388 -56.912714 
L 552.574034 -56.912708 
L 553.34968 -56.912703 
L 554.125327 -56.912697 
L 554.900973 -56.912692 
L 555.67662 -56.912687 
L 556.452266 -56.912681 
L 557.227912 -56.912677 
L 558.003559 -56.912672 
L 558.779205 -56.912667 
L 559.554851 -56.912662 
L 560.330498 -56.912658 
L 561.106144 -56.912654 
L 561.881791 -56.912649 
L 562.657437 -56.912645 
L 563.433083 -56.912641 
L 564.20873 -56.912638 
L 564.984376 -56.912634 
L 565.760022 -56.91263 
L 566.535669 -56.912627 
L 567.311315 -56.912623 
L 568.086962 -56.91262 
L 568.862608 -56.912616 
L 569.638254 -56.912613 
L 570.413901 -56.91261 
L 571.189547 -56.912607 
L 571.965193 -56.912604 
L 572.74084 -56.912601 
L 573.516486 -56.912599 
L 574.292133 -56.912596 
L 575.067779 -56.912593 
L 575.843425 -56.912591 
L 576.619072 -56.912588 
L 577.394718 -56.912586 
L 578.170364 -56.912583 
L 578.946011 -56.912581 
L 579.721657 -56.912579 
L 580.497303 -56.912577 
L 581.27295 -56.912575 
L 582.048596 -56.912573 
L 582.824243 -56.912571 
L 583.599889 -56.912569 
L 584.375535 -56.912567 
L 585.151182 -56.912565 
L 585.926828 -56.912563 
L 586.702474 -56.912562 
L 587.478121 -56.91256 
L 588.253767 -56.912558 
L 589.029414 -56.912557 
L 589.80506 -56.912555 
L 590.580706 -56.912554 
L 591.356353 -56.912552 
L 592.131999 -56.912551 
L 592.907645 -56.912549 
L 593.683292 -56.912548 
L 594.458938 -56.912547 
L 595.234585 -56.912545 
L 596.010231 -56.912544 
L 596.785877 -56.912543 
L 597.561524 -56.912542 
L 598.33717 -56.912541 
L 599.112816 -56.912539 
L 599.888463 -56.912538 
L 600.664109 -56.912537 
L 601.439756 -56.912536 
L 602.215402 -56.912535 
L 602.991048 -56.912534 
L 603.766695 -56.912533 
L 604.542341 -56.912533 
L 605.317987 -56.912532 
L 606.093634 -56.912531 
L 606.86928 -56.91253 
L 607.644927 -56.912529 
L 608.420573 -56.912528 
L 609.196219 -56.912528 
L 609.971866 -56.912527 
L 610.747512 -56.912526 
L 611.523158 -56.912525 
L 612.298805 -56.912525 
L 613.074451 -56.912524 
L 613.850097 -56.912523 
L 614.625744 -56.912523 
L 615.40139 -56.912522 
L 616.177037 -56.912521 
L 616.952683 -56.912521 
L 617.728329 -56.91252 
L 618.503976 -56.91252 
L 619.279622 -56.912519 
L 620.055268 -56.912519 
L 620.830915 -56.912518 
L 621.606561 -56.912518 
L 622.382208 -56.912517 
L 623.157854 -56.912517 
L 623.9335 -56.912516 
L 624.709147 -56.912516 
L 625.484793 -56.912515 
L 626.260439 -56.912515 
L 627.036086 -56.912515 
L 627.811732 -56.912514 
L 628.587379 -56.912514 
L 629.363025 -56.912513 
L 630.138671 -56.912513 
L 630.914318 -56.912513 
L 631.689964 -56.912512 
L 632.46561 -56.912512 
L 633.241257 -56.912512 
L 634.016903 -56.912511 
L 634.79255 -56.912511 
L 635.568196 -56.912511 
L 636.343842 -56.91251 
L 637.119489 -56.91251 
L 637.119489 -57.80682 
L 637.119489 -57.80682 
L 636.343842 -57.815845 
L 635.568196 -57.824961 
L 634.79255 -57.834169 
L 634.016903 -57.84347 
L 633.241257 -57.852865 
L 632.46561 -57.862354 
L 631.689964 -57.87194 
L 630.914318 -57.881622 
L 630.138671 -57.891401 
L 629.363025 -57.90128 
L 628.587379 -57.911258 
L 627.811732 -57.921336 
L 627.036086 -57.931516 
L 626.260439 -57.941799 
L 625.484793 -57.952186 
L 624.709147 -57.962677 
L 623.9335 -57.973274 
L 623.157854 -57.983978 
L 622.382208 -57.99479 
L 621.606561 -58.005711 
L 620.830915 -58.016742 
L 620.055268 -58.027885 
L 619.279622 -58.039139 
L 618.503976 -58.050508 
L 617.728329 -58.061991 
L 616.952683 -58.073589 
L 616.177037 -58.085305 
L 615.40139 -58.097139 
L 614.625744 -58.109092 
L 613.850097 -58.121166 
L 613.074451 -58.133361 
L 612.298805 -58.145679 
L 611.523158 -58.158122 
L 610.747512 -58.17069 
L 609.971866 -58.183385 
L 609.196219 -58.196208 
L 608.420573 -58.20916 
L 607.644927 -58.222243 
L 606.86928 -58.235457 
L 606.093634 -58.248805 
L 605.317987 -58.262287 
L 604.542341 -58.275906 
L 603.766695 -58.289662 
L 602.991048 -58.303556 
L 602.215402 -58.31759 
L 601.439756 -58.331766 
L 600.664109 -58.346085 
L 599.888463 -58.360548 
L 599.112816 -58.375157 
L 598.33717 -58.389914 
L 597.561524 -58.404819 
L 596.785877 -58.419874 
L 596.010231 -58.435081 
L 595.234585 -58.450441 
L 594.458938 -58.465956 
L 593.683292 -58.481628 
L 592.907645 -58.497458 
L 592.131999 -58.513447 
L 591.356353 -58.529597 
L 590.580706 -58.54591 
L 589.80506 -58.562388 
L 589.029414 -58.579031 
L 588.253767 -58.595843 
L 587.478121 -58.612823 
L 586.702474 -58.629975 
L 585.926828 -58.6473 
L 585.151182 -58.6648 
L 584.375535 -58.682475 
L 583.599889 -58.700329 
L 582.824243 -58.718363 
L 582.048596 -58.736579 
L 581.27295 -58.754978 
L 580.497303 -58.773562 
L 579.721657 -58.792334 
L 578.946011 -58.811295 
L 578.170364 -58.830447 
L 577.394718 -58.849792 
L 576.619072 -58.869332 
L 575.843425 -58.889069 
L 575.067779 -58.909005 
L 574.292133 -58.929141 
L 573.516486 -58.949481 
L 572.74084 -58.970025 
L 571.965193 -58.990777 
L 571.189547 -59.011737 
L 570.413901 -59.032909 
L 569.638254 -59.054294 
L 568.862608 -59.075894 
L 568.086962 -59.097712 
L 567.311315 -59.11975 
L 566.535669 -59.142009 
L 565.760022 -59.164493 
L 564.984376 -59.187204 
L 564.20873 -59.210143 
L 563.433083 -59.233313 
L 562.657437 -59.256717 
L 561.881791 -59.280356 
L 561.106144 -59.304234 
L 560.330498 -59.328352 
L 559.554851 -59.352713 
L 558.779205 -59.377319 
L 558.003559 -59.402173 
L 557.227912 -59.427277 
L 556.452266 -59.452634 
L 555.67662 -59.478247 
L 554.900973 -59.504117 
L 554.125327 -59.530248 
L 553.34968 -59.556642 
L 552.574034 -59.583302 
L 551.798388 -59.61023 
L 551.022741 -59.637429 
L 550.247095 -59.664902 
L 549.471449 -59.692652 
L 548.695802 -59.720681 
L 547.920156 -59.748993 
L 547.144509 -59.777589 
L 546.368863 -59.806473 
L 545.593217 -59.835648 
L 544.81757 -59.865117 
L 544.041924 -59.894882 
L 543.266278 -59.924947 
L 542.490631 -59.955314 
L 541.714985 -59.985987 
L 540.939339 -60.016969 
L 540.163692 -60.048263 
L 539.388046 -60.079871 
L 538.612399 -60.111798 
L 537.836753 -60.144046 
L 537.061107 -60.176619 
L 536.28546 -60.209519 
L 535.509814 -60.24275 
L 534.734168 -60.276316 
L 533.958521 -60.310219 
L 533.182875 -60.344464 
L 532.407228 -60.379053 
L 531.631582 -60.41399 
L 530.855936 -60.449278 
L 530.080289 -60.484922 
L 529.304643 -60.520924 
L 528.528997 -60.557288 
L 527.75335 -60.594018 
L 526.977704 -60.631118 
L 526.202057 -60.66859 
L 525.426411 -60.70644 
L 524.650765 -60.74467 
L 523.875118 -60.783284 
L 523.099472 -60.822287 
L 522.323826 -60.861683 
L 521.548179 -60.901474 
L 520.772533 -60.941665 
L 519.996886 -60.982261 
L 519.22124 -61.023264 
L 518.445594 -61.06468 
L 517.669947 -61.106513 
L 516.894301 -61.148765 
L 516.118655 -61.191443 
L 515.343008 -61.23455 
L 514.567362 -61.27809 
L 513.791715 -61.322067 
L 513.016069 -61.366487 
L 512.240423 -61.411353 
L 511.464776 -61.45667 
L 510.68913 -61.502442 
L 509.913484 -61.548674 
L 509.137837 -61.595371 
L 508.362191 -61.642537 
L 507.586545 -61.690177 
L 506.810898 -61.738296 
L 506.035252 -61.786898 
L 505.259605 -61.835988 
L 504.483959 -61.885571 
L 503.708313 -61.935653 
L 502.932666 -61.986237 
L 502.15702 -62.03733 
L 501.381374 -62.088936 
L 500.605727 -62.14106 
L 499.830081 -62.193707 
L 499.054434 -62.246883 
L 498.278788 -62.300594 
L 497.503142 -62.354843 
L 496.727495 -62.409637 
L 495.951849 -62.464981 
L 495.176203 -62.520881 
L 494.400556 -62.577342 
L 493.62491 -62.63437 
L 492.849263 -62.69197 
L 492.073617 -62.750148 
L 491.297971 -62.80891 
L 490.522324 -62.868262 
L 489.746678 -62.92821 
L 488.971032 -62.988759 
L 488.195385 -63.049915 
L 487.419739 -63.111685 
L 486.644092 -63.174075 
L 485.868446 -63.237091 
L 485.0928 -63.300739 
L 484.317153 -63.365025 
L 483.541507 -63.429956 
L 482.765861 -63.495538 
L 481.990214 -63.561778 
L 481.214568 -63.628682 
L 480.438921 -63.696257 
L 479.663275 -63.76451 
L 478.887629 -63.833447 
L 478.111982 -63.903075 
L 477.336336 -63.973401 
L 476.56069 -64.044432 
L 475.785043 -64.116174 
L 475.009397 -64.188636 
L 474.233751 -64.261824 
L 473.458104 -64.335745 
L 472.682458 -64.410408 
L 471.906811 -64.485818 
L 471.131165 -64.561983 
L 470.355519 -64.638912 
L 469.579872 -64.716611 
L 468.804226 -64.795088 
L 468.02858 -64.874352 
L 467.252933 -64.954409 
L 466.477287 -65.035267 
L 465.70164 -65.116936 
L 464.925994 -65.199422 
L 464.150348 -65.282733 
L 463.374701 -65.366879 
L 462.599055 -65.451867 
L 461.823409 -65.537706 
L 461.047762 -65.624403 
L 460.272116 -65.711968 
L 459.496469 -65.80041 
L 458.720823 -65.889736 
L 457.945177 -65.979956 
L 457.16953 -66.071078 
L 456.393884 -66.163111 
L 455.618238 -66.256065 
L 454.842591 -66.349949 
L 454.066945 -66.444771 
L 453.291298 -66.540542 
L 452.515652 -66.637269 
L 451.740006 -66.734964 
L 450.964359 -66.833635 
L 450.188713 -66.933293 
L 449.413067 -67.033946 
L 448.63742 -67.135605 
L 447.861774 -67.23828 
L 447.086128 -67.34198 
L 446.310481 -67.446716 
L 445.534835 -67.552498 
L 444.759188 -67.659337 
L 443.983542 -67.767243 
L 443.207896 -67.876226 
L 442.432249 -67.986297 
L 441.656603 -68.097466 
L 440.880957 -68.209746 
L 440.10531 -68.323146 
L 439.329664 -68.437677 
L 438.554017 -68.553351 
L 437.778371 -68.67018 
L 437.002725 -68.788173 
L 436.227078 -68.907344 
L 435.451432 -69.027703 
L 434.675786 -69.149262 
L 433.900139 -69.272033 
L 433.124493 -69.396028 
L 432.348846 -69.521259 
L 431.5732 -69.647738 
L 430.797554 -69.775478 
L 430.021907 -69.90449 
L 429.246261 -70.034788 
L 428.470615 -70.166383 
L 427.694968 -70.299289 
L 426.919322 -70.433519 
L 426.143675 -70.569085 
L 425.368029 -70.706001 
L 424.592383 -70.84428 
L 423.816736 -70.983935 
L 423.04109 -71.12498 
L 422.265444 -71.267428 
L 421.489797 -71.411293 
L 420.714151 -71.55659 
L 419.938504 -71.703331 
L 419.162858 -71.851532 
L 418.387212 -72.001206 
L 417.611565 -72.152368 
L 416.835919 -72.305032 
L 416.060273 -72.459214 
L 415.284626 -72.614928 
L 414.50898 -72.772188 
L 413.733334 -72.931011 
L 412.957687 -73.091411 
L 412.182041 -73.253403 
L 411.406394 -73.417004 
L 410.630748 -73.582229 
L 409.855102 -73.749094 
L 409.079455 -73.917614 
L 408.303809 -74.087807 
L 407.528163 -74.259687 
L 406.752516 -74.433273 
L 405.97687 -74.608579 
L 405.201223 -74.785624 
L 404.425577 -74.964423 
L 403.649931 -75.144994 
L 402.874284 -75.327355 
L 402.098638 -75.511522 
L 401.322992 -75.697513 
L 400.547345 -75.885347 
L 399.771699 -76.075039 
L 398.996052 -76.26661 
L 398.220406 -76.460077 
L 397.44476 -76.655458 
L 396.669113 -76.852771 
L 395.893467 -77.052037 
L 395.117821 -77.253273 
L 394.342174 -77.456498 
L 393.566528 -77.661733 
L 392.790881 -77.868995 
L 392.015235 -78.078306 
L 391.239589 -78.289684 
L 390.463942 -78.503149 
L 389.688296 -78.718723 
L 388.91265 -78.936424 
L 388.137003 -79.156274 
L 387.361357 -79.378294 
L 386.58571 -79.602503 
L 385.810064 -79.828924 
L 385.034418 -80.057577 
L 384.258771 -80.288485 
L 383.483125 -80.521668 
L 382.707479 -80.757149 
L 381.931832 -80.994949 
L 381.156186 -81.235091 
L 380.38054 -81.477598 
L 379.604893 -81.722492 
L 378.829247 -81.969795 
L 378.0536 -82.219532 
L 377.277954 -82.471725 
L 376.502308 -82.726398 
L 375.726661 -82.983574 
L 374.951015 -83.243277 
L 374.175369 -83.505533 
L 373.399722 -83.770364 
L 372.624076 -84.037796 
L 371.848429 -84.307853 
L 371.072783 -84.58056 
L 370.297137 -84.855943 
L 369.52149 -85.134027 
L 368.745844 -85.414838 
L 367.970198 -85.698402 
L 367.194551 -85.984744 
L 366.418905 -86.273892 
L 365.643258 -86.565871 
L 364.867612 -86.860709 
L 364.091966 -87.158433 
L 363.316319 -87.45907 
L 362.540673 -87.762647 
L 361.765027 -88.069194 
L 360.98938 -88.378736 
L 360.213734 -88.691304 
L 359.438087 -89.006925 
L 358.662441 -89.325628 
L 357.886795 -89.647442 
L 357.111148 -89.972397 
L 356.335502 -90.300522 
L 355.559856 -90.631847 
L 354.784209 -90.966402 
L 354.008563 -91.304217 
L 353.232916 -91.645323 
L 352.45727 -91.989751 
L 351.681624 -92.337532 
L 350.905977 -92.688697 
L 350.130331 -93.043278 
L 349.354685 -93.401307 
L 348.579038 -93.762816 
L 347.803392 -94.127838 
L 347.027746 -94.496405 
L 346.252099 -94.86855 
L 345.476453 -95.244307 
L 344.700806 -95.623709 
L 343.92516 -96.00679 
L 343.149514 -96.393585 
L 342.373867 -96.784127 
L 341.598221 -97.178451 
L 340.822575 -97.576594 
L 340.046928 -97.978588 
L 339.271282 -98.384472 
L 338.495635 -98.79428 
L 337.719989 -99.208048 
L 336.944343 -99.625813 
L 336.168696 -100.047612 
L 335.39305 -100.473482 
L 334.617404 -100.90346 
L 333.841757 -101.337585 
L 333.066111 -101.775893 
L 332.290464 -102.218424 
L 331.514818 -102.665216 
L 330.739172 -103.116309 
L 329.963525 -103.57174 
L 329.187879 -104.031551 
L 328.412233 -104.49578 
L 327.636586 -104.964468 
L 326.86094 -105.437656 
L 326.085293 -105.915385 
L 325.309647 -106.397695 
L 324.534001 -106.884629 
L 323.758354 -107.376227 
L 322.982708 -107.872533 
L 322.207062 -108.373589 
L 321.431415 -108.879438 
L 320.655769 -109.390122 
L 319.880122 -109.905686 
L 319.104476 -110.426173 
L 318.32883 -110.951628 
L 317.553183 -111.482094 
L 316.777537 -112.017618 
L 316.001891 -112.558244 
L 315.226244 -113.104017 
L 314.450598 -113.654985 
L 313.674952 -114.211192 
L 312.899305 -114.772686 
L 312.123659 -115.339513 
L 311.348012 -115.911721 
L 310.572366 -116.489358 
L 309.79672 -117.072472 
L 309.021073 -117.66111 
L 308.245427 -118.255322 
L 307.469781 -118.855158 
L 306.694134 -119.460665 
L 305.918488 -120.071895 
L 305.142841 -120.688897 
L 304.367195 -121.311722 
L 303.591549 -121.940421 
L 302.815902 -122.575046 
L 302.040256 -123.215647 
L 301.26461 -123.862277 
L 300.488963 -124.514988 
L 299.713317 -125.173833 
L 298.93767 -125.838866 
L 298.162024 -126.510139 
L 297.386378 -127.187707 
L 296.610731 -127.871624 
L 295.835085 -128.561944 
L 295.059439 -129.258723 
L 294.283792 -129.962015 
L 293.508146 -130.671877 
L 292.732499 -131.388365 
L 291.956853 -132.111535 
L 291.181207 -132.841444 
L 290.40556 -133.57815 
L 289.629914 -134.321709 
L 288.854268 -135.072181 
L 288.078621 -135.829623 
L 287.302975 -136.594094 
L 286.527329 -137.365654 
L 285.751682 -138.144361 
L 284.976036 -138.930276 
L 284.200389 -139.72346 
L 283.424743 -140.523972 
L 282.649097 -141.331874 
L 281.87345 -142.147227 
L 281.097804 -142.970092 
L 280.322158 -143.800534 
L 279.546511 -144.638612 
L 278.770865 -145.484392 
L 277.995218 -146.337935 
L 277.219572 -147.199306 
L 276.443926 -148.068568 
L 275.668279 -148.945786 
L 274.892633 -149.831025 
L 274.116987 -150.72435 
L 273.34134 -151.625827 
L 272.565694 -152.535521 
L 271.790047 -153.453498 
L 271.014401 -154.379826 
L 270.238755 -155.314571 
L 269.463108 -156.2578 
L 268.687462 -157.209581 
L 267.911816 -158.169983 
L 267.136169 -159.139073 
L 266.360523 -160.116921 
L 265.584876 -161.103595 
L 264.80923 -162.099165 
L 264.033584 -163.103701 
L 263.257937 -164.117273 
L 262.482291 -165.139951 
L 261.706645 -166.171806 
L 260.930998 -167.212909 
L 260.155352 -168.263332 
L 259.379705 -169.323147 
L 258.604059 -170.392425 
L 257.828413 -171.47124 
L 257.052766 -172.559663 
L 256.27712 -173.657767 
L 255.501474 -174.765627 
L 254.725827 -175.883316 
L 253.950181 -177.010907 
L 253.174535 -178.148476 
L 252.398888 -179.296095 
L 251.623242 -180.453841 
L 250.847595 -181.621788 
L 250.071949 -182.800011 
L 249.296303 -183.988586 
L 248.520656 -185.187589 
L 247.74501 -186.397096 
L 246.969364 -187.617183 
L 246.193717 -188.847926 
L 245.418071 -190.089402 
L 244.642424 -191.341689 
L 243.866778 -192.604862 
L 243.091132 -193.878999 
L 242.315485 -195.164179 
L 241.539839 -196.460477 
L 240.764193 -197.767972 
L 239.988546 -199.086742 
L 239.2129 -200.416865 
L 238.437253 -201.758418 
L 237.661607 -203.111479 
L 236.885961 -204.476128 
L 236.110314 -205.852441 
L 235.334668 -207.240497 
L 234.559022 -208.640375 
L 233.783375 -210.052152 
L 233.007729 -211.475907 
L 232.232082 -212.911718 
L 231.456436 -214.359662 
L 230.68079 -215.819817 
L 229.905143 -217.292261 
L 229.129497 -218.777071 
L 228.353851 -220.274325 
L 227.578204 -221.7841 
L 226.802558 -223.306471 
L 226.026911 -224.841515 
L 225.251265 -226.389308 
L 224.475619 -227.949925 
L 223.699972 -229.523441 
L 222.924326 -231.109931 
L 222.14868 -232.709467 
L 221.373033 -234.322122 
L 220.597387 -235.947969 
L 219.821741 -237.587078 
L 219.046094 -239.239521 
L 218.270448 -240.905365 
L 217.494801 -242.584678 
L 216.719155 -244.277528 
L 215.943509 -245.98398 
L 215.167862 -247.704097 
L 214.392216 -249.437941 
L 213.61657 -251.185573 
L 212.840923 -252.947051 
L 212.065277 -254.722431 
L 211.28963 -256.511766 
L 210.513984 -258.315108 
L 209.738338 -260.132505 
L 208.962691 -261.964003 
L 208.187045 -263.809643 
L 207.411399 -265.669464 
L 206.635752 -267.543501 
L 205.860106 -269.431784 
L 205.084459 -271.334339 
L 204.308813 -273.251187 
L 203.533167 -275.182343 
L 202.75752 -277.127817 
L 201.981874 -279.087612 
L 201.206228 -281.061724 
L 200.430581 -283.050142 
L 199.654935 -285.052847 
L 198.879288 -287.06981 
L 198.103642 -289.100995 
L 197.327996 -291.146352 
L 196.552349 -293.205823 
L 195.776703 -295.279335 
L 195.001057 -297.366803 
L 194.22541 -299.468129 
L 193.449764 -301.583197 
L 192.674117 -303.711874 
L 191.898471 -305.85401 
L 191.122825 -308.009435 
L 190.347178 -310.177955 
L 189.571532 -312.359355 
L 188.795886 -314.553392 
L 188.020239 -316.759797 
L 187.244593 -318.97827 
L 186.468947 -321.208478 
L 185.6933 -323.450052 
L 184.917654 -325.702585 
L 184.142007 -327.965627 
L 183.366361 -330.238682 
L 182.590715 -332.521205 
L 181.815068 -334.812597 
L 181.039422 -337.112201 
L 180.263776 -339.419293 
L 179.488129 -341.733084 
L 178.712483 -344.052705 
L 177.936836 -346.377209 
L 177.16119 -348.705559 
L 176.385544 -351.036618 
L 175.609897 -353.369148 
L 174.834251 -355.701794 
L 174.058605 -358.033077 
L 173.282958 -360.361381 
L 172.507312 -362.684945 
L 171.731665 -365.001845 
L 170.956019 -367.309982 
L 170.180373 -369.60707 
L 169.404726 -371.89061 
L 168.62908 -374.157882 
L 167.853434 -376.405917 
L 167.077787 -378.631477 
L 166.302141 -380.831032 
L 165.526494 -383.000732 
L 164.750848 -385.136378 
L 163.975202 -387.23339 
L 163.199555 -389.286769 
L 162.423909 -391.291064 
L 161.648263 -393.240324 
L 160.872616 -395.12805 
L 160.09697 -396.947149 
L 159.321323 -398.68987 
L 158.545677 -400.347742 
L 157.770031 -401.911506 
L 156.994384 -403.371033 
L 156.218738 -404.715235 
L 155.443092 -405.931973 
L 154.667445 -407.007943 
L 153.891799 -407.928557 
L 153.116153 -408.677802 
L 152.340506 -409.238091 
L 151.56486 -409.590085 
L 150.789213 -409.7125 
L 150.013567 -409.581881 
L 149.237921 -409.385074 
L 148.462274 -409.674709 
L 147.686628 -409.673213 
L 146.910982 -409.344641 
L 146.135335 -409.528539 
L 145.359689 -409.7125 
L 144.584042 -409.510117 
L 143.808396 -409.198039 
L 143.03275 -409.651862 
L 142.257103 -409.648057 
L 141.481457 -409.094927 
L 140.705811 -409.397786 
L 139.930164 -409.7125 
L 139.154518 -409.341833 
L 138.378871 -408.094881 
L 137.603225 -405.726334 
L 136.827579 -401.919374 
L 136.051932 -396.262229 
L 135.276286 -388.215455 
L 134.50064 -377.065314 
L 133.724993 -361.855741 
L 132.949347 -341.286255 
L 132.1737 -313.553871 
L 131.398054 -276.099119 
L 130.622408 -225.180259 
L 129.846761 -155.122642 
z
" style="stroke: #0000ff; stroke-opacity: 0.3"/>
    </defs>
    <g clip-path="url(#p18621f97b5)">
     <use xlink:href="#m5e194a9a50" x="0" y="473.389375" style="fill: #0000ff; fill-opacity: 0.3; stroke: #0000ff; stroke-opacity: 0.3"/>
    </g>
   </g>
   <g id="matplotlib.axis_1">
    <g id="xtick_1">
     <g id="line2d_1">
      <defs>
       <path id="mae0329529f" d="M 0 0 
L 0 3.5 
" style="stroke: #000000; stroke-width: 0.8"/>
      </defs>
      <g>
       <use xlink:href="#mae0329529f" x="129.071115" y="416.476875" style="stroke: #000000; stroke-width: 0.8"/>
      </g>
     </g>
     <g id="text_1">
      <!-- 0 -->
      <g transform="translate(122.708615 438.67375) scale(0.2 -0.2)">
       <defs>
        <path id="DejaVuSans-30" d="M 2034 4250 
Q 1547 4250 1301 3770 
Q 1056 3291 1056 2328 
Q 1056 1369 1301 889 
Q 1547 409 2034 409 
Q 2525 409 2770 889 
Q 3016 1369 3016 2328 
Q 3016 3291 2770 3770 
Q 2525 4250 2034 4250 
z
M 2034 4750 
Q 2819 4750 3233 4129 
Q 3647 3509 3647 2328 
Q 3647 1150 3233 529 
Q 2819 -91 2034 -91 
Q 1250 -91 836 529 
Q 422 1150 422 2328 
Q 422 3509 836 4129 
Q 1250 4750 2034 4750 
z
" transform="scale(0.015625)"/>
       </defs>
       <use xlink:href="#DejaVuSans-30"/>
      </g>
     </g>
    </g>
    <g id="xtick_2">
     <g id="line2d_2">
      <g>
       <use xlink:href="#mae0329529f" x="206.635752" y="416.476875" style="stroke: #000000; stroke-width: 0.8"/>
      </g>
     </g>
     <g id="text_2">
      <!-- 100 -->
      <g transform="translate(187.548252 438.67375) scale(0.2 -0.2)">
       <defs>
        <path id="DejaVuSans-31" d="M 794 531 
L 1825 531 
L 1825 4091 
L 703 3866 
L 703 4441 
L 1819 4666 
L 2450 4666 
L 2450 531 
L 3481 531 
L 3481 0 
L 794 0 
L 794 531 
z
" transform="scale(0.015625)"/>
       </defs>
       <use xlink:href="#DejaVuSans-31"/>
       <use xlink:href="#DejaVuSans-30" x="63.623047"/>
       <use xlink:href="#DejaVuSans-30" x="127.246094"/>
      </g>
     </g>
    </g>
    <g id="xtick_3">
     <g id="line2d_3">
      <g>
       <use xlink:href="#mae0329529f" x="284.200389" y="416.476875" style="stroke: #000000; stroke-width: 0.8"/>
      </g>
     </g>
     <g id="text_3">
      <!-- 200 -->
      <g transform="translate(265.112889 438.67375) scale(0.2 -0.2)">
       <defs>
        <path id="DejaVuSans-32" d="M 1228 531 
L 3431 531 
L 3431 0 
L 469 0 
L 469 531 
Q 828 903 1448 1529 
Q 2069 2156 2228 2338 
Q 2531 2678 2651 2914 
Q 2772 3150 2772 3378 
Q 2772 3750 2511 3984 
Q 2250 4219 1831 4219 
Q 1534 4219 1204 4116 
Q 875 4013 500 3803 
L 500 4441 
Q 881 4594 1212 4672 
Q 1544 4750 1819 4750 
Q 2544 4750 2975 4387 
Q 3406 4025 3406 3419 
Q 3406 3131 3298 2873 
Q 3191 2616 2906 2266 
Q 2828 2175 2409 1742 
Q 1991 1309 1228 531 
z
" transform="scale(0.015625)"/>
       </defs>
       <use xlink:href="#DejaVuSans-32"/>
       <use xlink:href="#DejaVuSans-30" x="63.623047"/>
       <use xlink:href="#DejaVuSans-30" x="127.246094"/>
      </g>
     </g>
    </g>
    <g id="xtick_4">
     <g id="line2d_4">
      <g>
       <use xlink:href="#mae0329529f" x="361.765027" y="416.476875" style="stroke: #000000; stroke-width: 0.8"/>
      </g>
     </g>
     <g id="text_4">
      <!-- 300 -->
      <g transform="translate(342.677527 438.67375) scale(0.2 -0.2)">
       <defs>
        <path id="DejaVuSans-33" d="M 2597 2516 
Q 3050 2419 3304 2112 
Q 3559 1806 3559 1356 
Q 3559 666 3084 287 
Q 2609 -91 1734 -91 
Q 1441 -91 1130 -33 
Q 819 25 488 141 
L 488 750 
Q 750 597 1062 519 
Q 1375 441 1716 441 
Q 2309 441 2620 675 
Q 2931 909 2931 1356 
Q 2931 1769 2642 2001 
Q 2353 2234 1838 2234 
L 1294 2234 
L 1294 2753 
L 1863 2753 
Q 2328 2753 2575 2939 
Q 2822 3125 2822 3475 
Q 2822 3834 2567 4026 
Q 2313 4219 1838 4219 
Q 1578 4219 1281 4162 
Q 984 4106 628 3988 
L 628 4550 
Q 988 4650 1302 4700 
Q 1616 4750 1894 4750 
Q 2613 4750 3031 4423 
Q 3450 4097 3450 3541 
Q 3450 3153 3228 2886 
Q 3006 2619 2597 2516 
z
" transform="scale(0.015625)"/>
       </defs>
       <use xlink:href="#DejaVuSans-33"/>
       <use xlink:href="#DejaVuSans-30" x="63.623047"/>
       <use xlink:href="#DejaVuSans-30" x="127.246094"/>
      </g>
     </g>
    </g>
    <g id="xtick_5">
     <g id="line2d_5">
      <g>
       <use xlink:href="#mae0329529f" x="439.329664" y="416.476875" style="stroke: #000000; stroke-width: 0.8"/>
      </g>
     </g>
     <g id="text_5">
      <!-- 400 -->
      <g transform="translate(420.242164 438.67375) scale(0.2 -0.2)">
       <defs>
        <path id="DejaVuSans-34" d="M 2419 4116 
L 825 1625 
L 2419 1625 
L 2419 4116 
z
M 2253 4666 
L 3047 4666 
L 3047 1625 
L 3713 1625 
L 3713 1100 
L 3047 1100 
L 3047 0 
L 2419 0 
L 2419 1100 
L 313 1100 
L 313 1709 
L 2253 4666 
z
" transform="scale(0.015625)"/>
       </defs>
       <use xlink:href="#DejaVuSans-34"/>
       <use xlink:href="#DejaVuSans-30" x="63.623047"/>
       <use xlink:href="#DejaVuSans-30" x="127.246094"/>
      </g>
     </g>
    </g>
    <g id="xtick_6">
     <g id="line2d_6">
      <g>
       <use xlink:href="#mae0329529f" x="516.894301" y="416.476875" style="stroke: #000000; stroke-width: 0.8"/>
      </g>
     </g>
     <g id="text_6">
      <!-- 500 -->
      <g transform="translate(497.806801 438.67375) scale(0.2 -0.2)">
       <defs>
        <path id="DejaVuSans-35" d="M 691 4666 
L 3169 4666 
L 3169 4134 
L 1269 4134 
L 1269 2991 
Q 1406 3038 1543 3061 
Q 1681 3084 1819 3084 
Q 2600 3084 3056 2656 
Q 3513 2228 3513 1497 
Q 3513 744 3044 326 
Q 2575 -91 1722 -91 
Q 1428 -91 1123 -41 
Q 819 9 494 109 
L 494 744 
Q 775 591 1075 516 
Q 1375 441 1709 441 
Q 2250 441 2565 725 
Q 2881 1009 2881 1497 
Q 2881 1984 2565 2268 
Q 2250 2553 1709 2553 
Q 1456 2553 1204 2497 
Q 953 2441 691 2322 
L 691 4666 
z
" transform="scale(0.015625)"/>
       </defs>
       <use xlink:href="#DejaVuSans-35"/>
       <use xlink:href="#DejaVuSans-30" x="63.623047"/>
       <use xlink:href="#DejaVuSans-30" x="127.246094"/>
      </g>
     </g>
    </g>
    <g id="xtick_7">
     <g id="line2d_7">
      <g>
       <use xlink:href="#mae0329529f" x="594.458938" y="416.476875" style="stroke: #000000; stroke-width: 0.8"/>
      </g>
     </g>
     <g id="text_7">
      <!-- 600 -->
      <g transform="translate(575.371438 438.67375) scale(0.2 -0.2)">
       <defs>
        <path id="DejaVuSans-36" d="M 2113 2584 
Q 1688 2584 1439 2293 
Q 1191 2003 1191 1497 
Q 1191 994 1439 701 
Q 1688 409 2113 409 
Q 2538 409 2786 701 
Q 3034 994 3034 1497 
Q 3034 2003 2786 2293 
Q 2538 2584 2113 2584 
z
M 3366 4563 
L 3366 3988 
Q 3128 4100 2886 4159 
Q 2644 4219 2406 4219 
Q 1781 4219 1451 3797 
Q 1122 3375 1075 2522 
Q 1259 2794 1537 2939 
Q 1816 3084 2150 3084 
Q 2853 3084 3261 2657 
Q 3669 2231 3669 1497 
Q 3669 778 3244 343 
Q 2819 -91 2113 -91 
Q 1303 -91 875 529 
Q 447 1150 447 2328 
Q 447 3434 972 4092 
Q 1497 4750 2381 4750 
Q 2619 4750 2861 4703 
Q 3103 4656 3366 4563 
z
" transform="scale(0.015625)"/>
       </defs>
       <use xlink:href="#DejaVuSans-36"/>
       <use xlink:href="#DejaVuSans-30" x="63.623047"/>
       <use xlink:href="#DejaVuSans-30" x="127.246094"/>
      </g>
     </g>
    </g>
    <g id="text_8">
     <!-- Days since antigen exposure -->
     <g transform="translate(239.062812 462.03) scale(0.2 -0.2)">
      <defs>
       <path id="DejaVuSans-44" d="M 1259 4147 
L 1259 519 
L 2022 519 
Q 2988 519 3436 956 
Q 3884 1394 3884 2338 
Q 3884 3275 3436 3711 
Q 2988 4147 2022 4147 
L 1259 4147 
z
M 628 4666 
L 1925 4666 
Q 3281 4666 3915 4102 
Q 4550 3538 4550 2338 
Q 4550 1131 3912 565 
Q 3275 0 1925 0 
L 628 0 
L 628 4666 
z
" transform="scale(0.015625)"/>
       <path id="DejaVuSans-61" d="M 2194 1759 
Q 1497 1759 1228 1600 
Q 959 1441 959 1056 
Q 959 750 1161 570 
Q 1363 391 1709 391 
Q 2188 391 2477 730 
Q 2766 1069 2766 1631 
L 2766 1759 
L 2194 1759 
z
M 3341 1997 
L 3341 0 
L 2766 0 
L 2766 531 
Q 2569 213 2275 61 
Q 1981 -91 1556 -91 
Q 1019 -91 701 211 
Q 384 513 384 1019 
Q 384 1609 779 1909 
Q 1175 2209 1959 2209 
L 2766 2209 
L 2766 2266 
Q 2766 2663 2505 2880 
Q 2244 3097 1772 3097 
Q 1472 3097 1187 3025 
Q 903 2953 641 2809 
L 641 3341 
Q 956 3463 1253 3523 
Q 1550 3584 1831 3584 
Q 2591 3584 2966 3190 
Q 3341 2797 3341 1997 
z
" transform="scale(0.015625)"/>
       <path id="DejaVuSans-79" d="M 2059 -325 
Q 1816 -950 1584 -1140 
Q 1353 -1331 966 -1331 
L 506 -1331 
L 506 -850 
L 844 -850 
Q 1081 -850 1212 -737 
Q 1344 -625 1503 -206 
L 1606 56 
L 191 3500 
L 800 3500 
L 1894 763 
L 2988 3500 
L 3597 3500 
L 2059 -325 
z
" transform="scale(0.015625)"/>
       <path id="DejaVuSans-73" d="M 2834 3397 
L 2834 2853 
Q 2591 2978 2328 3040 
Q 2066 3103 1784 3103 
Q 1356 3103 1142 2972 
Q 928 2841 928 2578 
Q 928 2378 1081 2264 
Q 1234 2150 1697 2047 
L 1894 2003 
Q 2506 1872 2764 1633 
Q 3022 1394 3022 966 
Q 3022 478 2636 193 
Q 2250 -91 1575 -91 
Q 1294 -91 989 -36 
Q 684 19 347 128 
L 347 722 
Q 666 556 975 473 
Q 1284 391 1588 391 
Q 1994 391 2212 530 
Q 2431 669 2431 922 
Q 2431 1156 2273 1281 
Q 2116 1406 1581 1522 
L 1381 1569 
Q 847 1681 609 1914 
Q 372 2147 372 2553 
Q 372 3047 722 3315 
Q 1072 3584 1716 3584 
Q 2034 3584 2315 3537 
Q 2597 3491 2834 3397 
z
" transform="scale(0.015625)"/>
       <path id="DejaVuSans-20" transform="scale(0.015625)"/>
       <path id="DejaVuSans-69" d="M 603 3500 
L 1178 3500 
L 1178 0 
L 603 0 
L 603 3500 
z
M 603 4863 
L 1178 4863 
L 1178 4134 
L 603 4134 
L 603 4863 
z
" transform="scale(0.015625)"/>
       <path id="DejaVuSans-6e" d="M 3513 2113 
L 3513 0 
L 2938 0 
L 2938 2094 
Q 2938 2591 2744 2837 
Q 2550 3084 2163 3084 
Q 1697 3084 1428 2787 
Q 1159 2491 1159 1978 
L 1159 0 
L 581 0 
L 581 3500 
L 1159 3500 
L 1159 2956 
Q 1366 3272 1645 3428 
Q 1925 3584 2291 3584 
Q 2894 3584 3203 3211 
Q 3513 2838 3513 2113 
z
" transform="scale(0.015625)"/>
       <path id="DejaVuSans-63" d="M 3122 3366 
L 3122 2828 
Q 2878 2963 2633 3030 
Q 2388 3097 2138 3097 
Q 1578 3097 1268 2742 
Q 959 2388 959 1747 
Q 959 1106 1268 751 
Q 1578 397 2138 397 
Q 2388 397 2633 464 
Q 2878 531 3122 666 
L 3122 134 
Q 2881 22 2623 -34 
Q 2366 -91 2075 -91 
Q 1284 -91 818 406 
Q 353 903 353 1747 
Q 353 2603 823 3093 
Q 1294 3584 2113 3584 
Q 2378 3584 2631 3529 
Q 2884 3475 3122 3366 
z
" transform="scale(0.015625)"/>
       <path id="DejaVuSans-65" d="M 3597 1894 
L 3597 1613 
L 953 1613 
Q 991 1019 1311 708 
Q 1631 397 2203 397 
Q 2534 397 2845 478 
Q 3156 559 3463 722 
L 3463 178 
Q 3153 47 2828 -22 
Q 2503 -91 2169 -91 
Q 1331 -91 842 396 
Q 353 884 353 1716 
Q 353 2575 817 3079 
Q 1281 3584 2069 3584 
Q 2775 3584 3186 3129 
Q 3597 2675 3597 1894 
z
M 3022 2063 
Q 3016 2534 2758 2815 
Q 2500 3097 2075 3097 
Q 1594 3097 1305 2825 
Q 1016 2553 972 2059 
L 3022 2063 
z
" transform="scale(0.015625)"/>
       <path id="DejaVuSans-74" d="M 1172 4494 
L 1172 3500 
L 2356 3500 
L 2356 3053 
L 1172 3053 
L 1172 1153 
Q 1172 725 1289 603 
Q 1406 481 1766 481 
L 2356 481 
L 2356 0 
L 1766 0 
Q 1100 0 847 248 
Q 594 497 594 1153 
L 594 3053 
L 172 3053 
L 172 3500 
L 594 3500 
L 594 4494 
L 1172 4494 
z
" transform="scale(0.015625)"/>
       <path id="DejaVuSans-67" d="M 2906 1791 
Q 2906 2416 2648 2759 
Q 2391 3103 1925 3103 
Q 1463 3103 1205 2759 
Q 947 2416 947 1791 
Q 947 1169 1205 825 
Q 1463 481 1925 481 
Q 2391 481 2648 825 
Q 2906 1169 2906 1791 
z
M 3481 434 
Q 3481 -459 3084 -895 
Q 2688 -1331 1869 -1331 
Q 1566 -1331 1297 -1286 
Q 1028 -1241 775 -1147 
L 775 -588 
Q 1028 -725 1275 -790 
Q 1522 -856 1778 -856 
Q 2344 -856 2625 -561 
Q 2906 -266 2906 331 
L 2906 616 
Q 2728 306 2450 153 
Q 2172 0 1784 0 
Q 1141 0 747 490 
Q 353 981 353 1791 
Q 353 2603 747 3093 
Q 1141 3584 1784 3584 
Q 2172 3584 2450 3431 
Q 2728 3278 2906 2969 
L 2906 3500 
L 3481 3500 
L 3481 434 
z
" transform="scale(0.015625)"/>
       <path id="DejaVuSans-78" d="M 3513 3500 
L 2247 1797 
L 3578 0 
L 2900 0 
L 1881 1375 
L 863 0 
L 184 0 
L 1544 1831 
L 300 3500 
L 978 3500 
L 1906 2253 
L 2834 3500 
L 3513 3500 
z
" transform="scale(0.015625)"/>
       <path id="DejaVuSans-70" d="M 1159 525 
L 1159 -1331 
L 581 -1331 
L 581 3500 
L 1159 3500 
L 1159 2969 
Q 1341 3281 1617 3432 
Q 1894 3584 2278 3584 
Q 2916 3584 3314 3078 
Q 3713 2572 3713 1747 
Q 3713 922 3314 415 
Q 2916 -91 2278 -91 
Q 1894 -91 1617 61 
Q 1341 213 1159 525 
z
M 3116 1747 
Q 3116 2381 2855 2742 
Q 2594 3103 2138 3103 
Q 1681 3103 1420 2742 
Q 1159 2381 1159 1747 
Q 1159 1113 1420 752 
Q 1681 391 2138 391 
Q 2594 391 2855 752 
Q 3116 1113 3116 1747 
z
" transform="scale(0.015625)"/>
       <path id="DejaVuSans-6f" d="M 1959 3097 
Q 1497 3097 1228 2736 
Q 959 2375 959 1747 
Q 959 1119 1226 758 
Q 1494 397 1959 397 
Q 2419 397 2687 759 
Q 2956 1122 2956 1747 
Q 2956 2369 2687 2733 
Q 2419 3097 1959 3097 
z
M 1959 3584 
Q 2709 3584 3137 3096 
Q 3566 2609 3566 1747 
Q 3566 888 3137 398 
Q 2709 -91 1959 -91 
Q 1206 -91 779 398 
Q 353 888 353 1747 
Q 353 2609 779 3096 
Q 1206 3584 1959 3584 
z
" transform="scale(0.015625)"/>
       <path id="DejaVuSans-75" d="M 544 1381 
L 544 3500 
L 1119 3500 
L 1119 1403 
Q 1119 906 1312 657 
Q 1506 409 1894 409 
Q 2359 409 2629 706 
Q 2900 1003 2900 1516 
L 2900 3500 
L 3475 3500 
L 3475 0 
L 2900 0 
L 2900 538 
Q 2691 219 2414 64 
Q 2138 -91 1772 -91 
Q 1169 -91 856 284 
Q 544 659 544 1381 
z
M 1991 3584 
L 1991 3584 
z
" transform="scale(0.015625)"/>
       <path id="DejaVuSans-72" d="M 2631 2963 
Q 2534 3019 2420 3045 
Q 2306 3072 2169 3072 
Q 1681 3072 1420 2755 
Q 1159 2438 1159 1844 
L 1159 0 
L 581 0 
L 581 3500 
L 1159 3500 
L 1159 2956 
Q 1341 3275 1631 3429 
Q 1922 3584 2338 3584 
Q 2397 3584 2469 3576 
Q 2541 3569 2628 3553 
L 2631 2963 
z
" transform="scale(0.015625)"/>
      </defs>
      <use xlink:href="#DejaVuSans-44"/>
      <use xlink:href="#DejaVuSans-61" x="77.001953"/>
      <use xlink:href="#DejaVuSans-79" x="138.28125"/>
      <use xlink:href="#DejaVuSans-73" x="197.460938"/>
      <use xlink:href="#DejaVuSans-20" x="249.560547"/>
      <use xlink:href="#DejaVuSans-73" x="281.347656"/>
      <use xlink:href="#DejaVuSans-69" x="333.447266"/>
      <use xlink:href="#DejaVuSans-6e" x="361.230469"/>
      <use xlink:href="#DejaVuSans-63" x="424.609375"/>
      <use xlink:href="#DejaVuSans-65" x="479.589844"/>
      <use xlink:href="#DejaVuSans-20" x="541.113281"/>
      <use xlink:href="#DejaVuSans-61" x="572.900391"/>
      <use xlink:href="#DejaVuSans-6e" x="634.179688"/>
      <use xlink:href="#DejaVuSans-74" x="697.558594"/>
      <use xlink:href="#DejaVuSans-69" x="736.767578"/>
      <use xlink:href="#DejaVuSans-67" x="764.550781"/>
      <use xlink:href="#DejaVuSans-65" x="828.027344"/>
      <use xlink:href="#DejaVuSans-6e" x="889.550781"/>
      <use xlink:href="#DejaVuSans-20" x="952.929688"/>
      <use xlink:href="#DejaVuSans-65" x="984.716797"/>
      <use xlink:href="#DejaVuSans-78" x="1044.490234"/>
      <use xlink:href="#DejaVuSans-70" x="1103.669922"/>
      <use xlink:href="#DejaVuSans-6f" x="1167.146484"/>
      <use xlink:href="#DejaVuSans-73" x="1228.328125"/>
      <use xlink:href="#DejaVuSans-75" x="1280.427734"/>
      <use xlink:href="#DejaVuSans-72" x="1343.806641"/>
      <use xlink:href="#DejaVuSans-65" x="1382.669922"/>
     </g>
    </g>
   </g>
   <g id="matplotlib.axis_2">
    <g id="ytick_1">
     <g id="line2d_8">
      <defs>
       <path id="mf41bba2181" d="M 0 0 
L -3.5 0 
" style="stroke: #000000; stroke-width: 0.8"/>
      </defs>
      <g>
       <use xlink:href="#mf41bba2181" x="104.483125" y="416.476875" style="stroke: #000000; stroke-width: 0.8"/>
      </g>
     </g>
     <g id="text_9">
      <!-- 0.00 -->
      <g transform="translate(52.951875 424.075312) scale(0.2 -0.2)">
       <defs>
        <path id="DejaVuSans-2e" d="M 684 794 
L 1344 794 
L 1344 0 
L 684 0 
L 684 794 
z
" transform="scale(0.015625)"/>
       </defs>
       <use xlink:href="#DejaVuSans-30"/>
       <use xlink:href="#DejaVuSans-2e" x="63.623047"/>
       <use xlink:href="#DejaVuSans-30" x="95.410156"/>
       <use xlink:href="#DejaVuSans-30" x="159.033203"/>
      </g>
     </g>
    </g>
    <g id="ytick_2">
     <g id="line2d_9">
      <g>
       <use xlink:href="#mf41bba2181" x="104.483125" y="339.836017" style="stroke: #000000; stroke-width: 0.8"/>
      </g>
     </g>
     <g id="text_10">
      <!-- 0.05 -->
      <g transform="translate(52.951875 347.434455) scale(0.2 -0.2)">
       <use xlink:href="#DejaVuSans-30"/>
       <use xlink:href="#DejaVuSans-2e" x="63.623047"/>
       <use xlink:href="#DejaVuSans-30" x="95.410156"/>
       <use xlink:href="#DejaVuSans-35" x="159.033203"/>
      </g>
     </g>
    </g>
    <g id="ytick_3">
     <g id="line2d_10">
      <g>
       <use xlink:href="#mf41bba2181" x="104.483125" y="263.195159" style="stroke: #000000; stroke-width: 0.8"/>
      </g>
     </g>
     <g id="text_11">
      <!-- 0.10 -->
      <g transform="translate(52.951875 270.793597) scale(0.2 -0.2)">
       <use xlink:href="#DejaVuSans-30"/>
       <use xlink:href="#DejaVuSans-2e" x="63.623047"/>
       <use xlink:href="#DejaVuSans-31" x="95.410156"/>
       <use xlink:href="#DejaVuSans-30" x="159.033203"/>
      </g>
     </g>
    </g>
    <g id="ytick_4">
     <g id="line2d_11">
      <g>
       <use xlink:href="#mf41bba2181" x="104.483125" y="186.554301" style="stroke: #000000; stroke-width: 0.8"/>
      </g>
     </g>
     <g id="text_12">
      <!-- 0.15 -->
      <g transform="translate(52.951875 194.152739) scale(0.2 -0.2)">
       <use xlink:href="#DejaVuSans-30"/>
       <use xlink:href="#DejaVuSans-2e" x="63.623047"/>
       <use xlink:href="#DejaVuSans-31" x="95.410156"/>
       <use xlink:href="#DejaVuSans-35" x="159.033203"/>
      </g>
     </g>
    </g>
    <g id="ytick_5">
     <g id="line2d_12">
      <g>
       <use xlink:href="#mf41bba2181" x="104.483125" y="109.913443" style="stroke: #000000; stroke-width: 0.8"/>
      </g>
     </g>
     <g id="text_13">
      <!-- 0.20 -->
      <g transform="translate(52.951875 117.511881) scale(0.2 -0.2)">
       <use xlink:href="#DejaVuSans-30"/>
       <use xlink:href="#DejaVuSans-2e" x="63.623047"/>
       <use xlink:href="#DejaVuSans-32" x="95.410156"/>
       <use xlink:href="#DejaVuSans-30" x="159.033203"/>
      </g>
     </g>
    </g>
    <g id="ytick_6">
     <g id="line2d_13">
      <g>
       <use xlink:href="#mf41bba2181" x="104.483125" y="33.272585" style="stroke: #000000; stroke-width: 0.8"/>
      </g>
     </g>
     <g id="text_14">
      <!-- 0.25 -->
      <g transform="translate(52.951875 40.871023) scale(0.2 -0.2)">
       <use xlink:href="#DejaVuSans-30"/>
       <use xlink:href="#DejaVuSans-2e" x="63.623047"/>
       <use xlink:href="#DejaVuSans-32" x="95.410156"/>
       <use xlink:href="#DejaVuSans-35" x="159.033203"/>
      </g>
     </g>
    </g>
    <g id="text_15">
     <!-- Virus neutralization -->
     <g transform="translate(22.396875 319.741562) rotate(-90) scale(0.2 -0.2)">
      <defs>
       <path id="DejaVuSans-56" d="M 1831 0 
L 50 4666 
L 709 4666 
L 2188 738 
L 3669 4666 
L 4325 4666 
L 2547 0 
L 1831 0 
z
" transform="scale(0.015625)"/>
       <path id="DejaVuSans-6c" d="M 603 4863 
L 1178 4863 
L 1178 0 
L 603 0 
L 603 4863 
z
" transform="scale(0.015625)"/>
       <path id="DejaVuSans-7a" d="M 353 3500 
L 3084 3500 
L 3084 2975 
L 922 459 
L 3084 459 
L 3084 0 
L 275 0 
L 275 525 
L 2438 3041 
L 353 3041 
L 353 3500 
z
" transform="scale(0.015625)"/>
      </defs>
      <use xlink:href="#DejaVuSans-56"/>
      <use xlink:href="#DejaVuSans-69" x="66.158203"/>
      <use xlink:href="#DejaVuSans-72" x="93.941406"/>
      <use xlink:href="#DejaVuSans-75" x="135.054688"/>
      <use xlink:href="#DejaVuSans-73" x="198.433594"/>
      <use xlink:href="#DejaVuSans-20" x="250.533203"/>
      <use xlink:href="#DejaVuSans-6e" x="282.320312"/>
      <use xlink:href="#DejaVuSans-65" x="345.699219"/>
      <use xlink:href="#DejaVuSans-75" x="407.222656"/>
      <use xlink:href="#DejaVuSans-74" x="470.601562"/>
      <use xlink:href="#DejaVuSans-72" x="509.810547"/>
      <use xlink:href="#DejaVuSans-61" x="550.923828"/>
      <use xlink:href="#DejaVuSans-6c" x="612.203125"/>
      <use xlink:href="#DejaVuSans-69" x="639.986328"/>
      <use xlink:href="#DejaVuSans-7a" x="667.769531"/>
      <use xlink:href="#DejaVuSans-61" x="720.259766"/>
      <use xlink:href="#DejaVuSans-74" x="781.539062"/>
      <use xlink:href="#DejaVuSans-69" x="820.748047"/>
      <use xlink:href="#DejaVuSans-6f" x="848.53125"/>
      <use xlink:href="#DejaVuSans-6e" x="909.712891"/>
     </g>
     <!--  probability -->
     <g transform="translate(44.7925 278.966562) rotate(-90) scale(0.2 -0.2)">
      <defs>
       <path id="DejaVuSans-62" d="M 3116 1747 
Q 3116 2381 2855 2742 
Q 2594 3103 2138 3103 
Q 1681 3103 1420 2742 
Q 1159 2381 1159 1747 
Q 1159 1113 1420 752 
Q 1681 391 2138 391 
Q 2594 391 2855 752 
Q 3116 1113 3116 1747 
z
M 1159 2969 
Q 1341 3281 1617 3432 
Q 1894 3584 2278 3584 
Q 2916 3584 3314 3078 
Q 3713 2572 3713 1747 
Q 3713 922 3314 415 
Q 2916 -91 2278 -91 
Q 1894 -91 1617 61 
Q 1341 213 1159 525 
L 1159 0 
L 581 0 
L 581 4863 
L 1159 4863 
L 1159 2969 
z
" transform="scale(0.015625)"/>
      </defs>
      <use xlink:href="#DejaVuSans-20"/>
      <use xlink:href="#DejaVuSans-70" x="31.787109"/>
      <use xlink:href="#DejaVuSans-72" x="95.263672"/>
      <use xlink:href="#DejaVuSans-6f" x="134.126953"/>
      <use xlink:href="#DejaVuSans-62" x="195.308594"/>
      <use xlink:href="#DejaVuSans-61" x="258.785156"/>
      <use xlink:href="#DejaVuSans-62" x="320.064453"/>
      <use xlink:href="#DejaVuSans-69" x="383.541016"/>
      <use xlink:href="#DejaVuSans-6c" x="411.324219"/>
      <use xlink:href="#DejaVuSans-69" x="439.107422"/>
      <use xlink:href="#DejaVuSans-74" x="466.890625"/>
      <use xlink:href="#DejaVuSans-79" x="506.099609"/>
     </g>
    </g>
   </g>
   <g id="patch_3">
    <path d="M 104.483125 416.476875 
L 104.483125 28.396875 
" style="fill: none; stroke: #000000; stroke-width: 0.8; stroke-linejoin: miter; stroke-linecap: square"/>
   </g>
   <g id="patch_4">
    <path d="M 662.483125 416.476875 
L 662.483125 28.396875 
" style="fill: none; stroke: #000000; stroke-width: 0.8; stroke-linejoin: miter; stroke-linecap: square"/>
   </g>
   <g id="patch_5">
    <path d="M 104.483125 416.476875 
L 662.483125 416.476875 
" style="fill: none; stroke: #000000; stroke-width: 0.8; stroke-linejoin: miter; stroke-linecap: square"/>
   </g>
   <g id="patch_6">
    <path d="M 104.483125 28.396875 
L 662.483125 28.396875 
" style="fill: none; stroke: #000000; stroke-width: 0.8; stroke-linejoin: miter; stroke-linecap: square"/>
   </g>
   <g id="text_16">
    <!-- Wuhan-Hu-1 antigen -->
    <g transform="translate(280.200312 22.396875) scale(0.2 -0.2)">
     <defs>
      <path id="DejaVuSans-57" d="M 213 4666 
L 850 4666 
L 1831 722 
L 2809 4666 
L 3519 4666 
L 4500 722 
L 5478 4666 
L 6119 4666 
L 4947 0 
L 4153 0 
L 3169 4050 
L 2175 0 
L 1381 0 
L 213 4666 
z
" transform="scale(0.015625)"/>
      <path id="DejaVuSans-68" d="M 3513 2113 
L 3513 0 
L 2938 0 
L 2938 2094 
Q 2938 2591 2744 2837 
Q 2550 3084 2163 3084 
Q 1697 3084 1428 2787 
Q 1159 2491 1159 1978 
L 1159 0 
L 581 0 
L 581 4863 
L 1159 4863 
L 1159 2956 
Q 1366 3272 1645 3428 
Q 1925 3584 2291 3584 
Q 2894 3584 3203 3211 
Q 3513 2838 3513 2113 
z
" transform="scale(0.015625)"/>
      <path id="DejaVuSans-2d" d="M 313 2009 
L 1997 2009 
L 1997 1497 
L 313 1497 
L 313 2009 
z
" transform="scale(0.015625)"/>
      <path id="DejaVuSans-48" d="M 628 4666 
L 1259 4666 
L 1259 2753 
L 3553 2753 
L 3553 4666 
L 4184 4666 
L 4184 0 
L 3553 0 
L 3553 2222 
L 1259 2222 
L 1259 0 
L 628 0 
L 628 4666 
z
" transform="scale(0.015625)"/>
     </defs>
     <use xlink:href="#DejaVuSans-57"/>
     <use xlink:href="#DejaVuSans-75" x="95.251953"/>
     <use xlink:href="#DejaVuSans-68" x="158.630859"/>
     <use xlink:href="#DejaVuSans-61" x="222.009766"/>
     <use xlink:href="#DejaVuSans-6e" x="283.289062"/>
     <use xlink:href="#DejaVuSans-2d" x="346.667969"/>
     <use xlink:href="#DejaVuSans-48" x="382.751953"/>
     <use xlink:href="#DejaVuSans-75" x="457.947266"/>
     <use xlink:href="#DejaVuSans-2d" x="521.326172"/>
     <use xlink:href="#DejaVuSans-31" x="557.410156"/>
     <use xlink:href="#DejaVuSans-20" x="621.033203"/>
     <use xlink:href="#DejaVuSans-61" x="652.820312"/>
     <use xlink:href="#DejaVuSans-6e" x="714.099609"/>
     <use xlink:href="#DejaVuSans-74" x="777.478516"/>
     <use xlink:href="#DejaVuSans-69" x="816.6875"/>
     <use xlink:href="#DejaVuSans-67" x="844.470703"/>
     <use xlink:href="#DejaVuSans-65" x="907.947266"/>
     <use xlink:href="#DejaVuSans-6e" x="969.470703"/>
    </g>
   </g>
   <g id="legend_1">
    <g id="patch_7">
     <path d="M 778.083125 416.476875 
L 889.320625 416.476875 
Q 893.320625 416.476875 893.320625 412.476875 
L 893.320625 385.120625 
Q 893.320625 381.120625 889.320625 381.120625 
L 778.083125 381.120625 
Q 774.083125 381.120625 774.083125 385.120625 
L 774.083125 412.476875 
Q 774.083125 416.476875 778.083125 416.476875 
z
" style="fill: #ffffff; opacity: 0.8; stroke: #cccccc; stroke-linejoin: miter"/>
    </g>
    <g id="patch_8">
     <path d="M 782.083125 404.3175 
L 822.083125 404.3175 
L 822.083125 390.3175 
L 782.083125 390.3175 
z
" style="fill: #0000ff; fill-opacity: 0.3; stroke: #0000ff; stroke-opacity: 0.3; stroke-linejoin: miter"/>
    </g>
    <g id="text_17">
     <!-- HK.3 -->
     <g transform="translate(838.083125 404.3175) scale(0.2 -0.2)">
      <defs>
       <path id="DejaVuSans-4b" d="M 628 4666 
L 1259 4666 
L 1259 2694 
L 3353 4666 
L 4166 4666 
L 1850 2491 
L 4331 0 
L 3500 0 
L 1259 2247 
L 1259 0 
L 628 0 
L 628 4666 
z
" transform="scale(0.015625)"/>
      </defs>
      <use xlink:href="#DejaVuSans-48"/>
      <use xlink:href="#DejaVuSans-4b" x="75.195312"/>
      <use xlink:href="#DejaVuSans-2e" x="140.771484"/>
      <use xlink:href="#DejaVuSans-33" x="172.558594"/>
     </g>
    </g>
   </g>
  </g>
 </g>
 <defs>
  <clipPath id="p18621f97b5">
   <rect x="104.483125" y="28.396875" width="558" height="388.08"/>
  </clipPath>
 </defs>
</svg>
