<?xml version="1.0" encoding="utf-8" standalone="no"?>
<!DOCTYPE svg PUBLIC "-//W3C//DTD SVG 1.1//EN"
  "http://www.w3.org/Graphics/SVG/1.1/DTD/svg11.dtd">
<svg xmlns:xlink="http://www.w3.org/1999/xlink" width="947.274841pt" height="505.354841pt" viewBox="0 0 947.274841 505.354841" xmlns="http://www.w3.org/2000/svg" version="1.1">
 <metadata>
  <rdf:RDF xmlns:dc="http://purl.org/dc/elements/1.1/" xmlns:cc="http://creativecommons.org/ns#" xmlns:rdf="http://www.w3.org/1999/02/22-rdf-syntax-ns#">
   <cc:Work>
    <dc:type rdf:resource="http://purl.org/dc/dcmitype/StillImage"/>
    <dc:date>2023-11-15T18:15:36.179761</dc:date>
    <dc:format>image/svg+xml</dc:format>
    <dc:creator>
     <cc:Agent>
      <dc:title>Matplotlib v3.7.2, https://matplotlib.org/</dc:title>
     </cc:Agent>
    </dc:creator>
   </cc:Work>
  </rdf:RDF>
 </metadata>
 <defs>
  <style type="text/css">*{stroke-linejoin: round; stroke-linecap: butt}</style>
 </defs>
 <g id="figure_1">
  <g id="patch_1">
   <path d="M 0 505.354841 
L 947.274841 505.354841 
L 947.274841 -0 
L 0 -0 
z
" style="fill: #ffffff"/>
  </g>
  <g id="axes_1">
   <g id="patch_2">
    <path d="M 103.074841 395.28 
L 940.074841 395.28 
L 940.074841 7.2 
L 103.074841 7.2 
z
" style="fill: #ffffff"/>
   </g>
   <g id="PolyCollection_1">
    <path d="M -4315.31939 295.052013 
L -4315.31939 295.052586 
L -4307.271313 295.055942 
L -4299.223236 295.068552 
L -4291.175159 295.06537 
L -4283.127082 295.085476 
L -4275.079005 295.089438 
L -4267.030929 295.082933 
L -4258.982852 295.077603 
L -4250.934775 295.080579 
L -4242.886698 295.092102 
L -4234.838621 295.095144 
L -4226.790544 295.08963 
L -4218.742467 295.090135 
L -4210.69439 295.072784 
L -4202.646313 295.079619 
L -4194.598236 295.068726 
L -4186.550159 295.076148 
L -4178.502082 295.054178 
L -4170.454005 295.058881 
L -4162.405929 295.068624 
L -4154.357852 295.062747 
L -4146.309775 295.063872 
L -4138.261698 295.071476 
L -4130.213621 295.060609 
L -4122.165544 295.071995 
L -4114.117467 295.068709 
L -4106.06939 295.070689 
L -4098.021313 295.064395 
L -4089.973236 295.061761 
L -4081.925159 295.073468 
L -4073.877082 295.068228 
L -4065.829005 295.051988 
L -4057.780929 295.068191 
L -4049.732852 295.070711 
L -4041.684775 295.056096 
L -4033.636698 295.071207 
L -4025.588621 295.062652 
L -4017.540544 295.06427 
L -4009.492467 295.074699 
L -4001.44439 295.078751 
L -3993.396313 295.074154 
L -3985.348236 295.064848 
L -3977.300159 295.054071 
L -3969.252082 295.071276 
L -3961.204005 295.047166 
L -3953.155929 295.059717 
L -3945.107852 295.062892 
L -3937.059775 295.077829 
L -3929.011698 295.076412 
L -3920.963621 295.05504 
L -3912.915544 295.079095 
L -3904.867467 295.0699 
L -3896.81939 295.05112 
L -3888.771313 295.05719 
L -3880.723236 295.075905 
L -3872.675159 295.063635 
L -3864.627082 295.05697 
L -3856.579005 295.061643 
L -3848.530929 295.053441 
L -3840.482852 295.047635 
L -3832.434775 295.054865 
L -3824.386698 295.052159 
L -3816.338621 295.057527 
L -3808.290544 295.077091 
L -3800.242467 295.079685 
L -3792.19439 295.051881 
L -3784.146313 295.047836 
L -3776.098236 295.05029 
L -3768.050159 295.064246 
L -3760.002082 295.053856 
L -3751.954005 295.05782 
L -3743.905929 295.051244 
L -3735.857852 295.098652 
L -3727.809775 295.05195 
L -3719.761698 295.084618 
L -3711.713621 295.067104 
L -3703.665544 295.074341 
L -3695.617467 295.054068 
L -3687.56939 295.090433 
L -3679.521313 295.050495 
L -3671.473236 295.046774 
L -3663.425159 295.077034 
L -3655.377082 295.06319 
L -3647.329005 295.08122 
L -3639.280929 295.075051 
L -3631.232852 295.055011 
L -3623.184775 295.065928 
L -3615.136698 295.088626 
L -3607.088621 295.064952 
L -3599.040544 295.069066 
L -3590.992467 295.05809 
L -3582.94439 295.05802 
L -3574.896313 295.073037 
L -3566.848236 295.065901 
L -3558.800159 295.04786 
L -3550.752082 295.096149 
L -3542.704005 295.065519 
L -3534.655929 295.055407 
L -3526.607852 295.057725 
L -3518.559775 295.057124 
L -3510.511698 295.058481 
L -3502.463621 295.049727 
L -3494.415544 295.089007 
L -3486.367467 295.094913 
L -3478.31939 295.085012 
L -3470.271313 295.076002 
L -3462.223236 295.07024 
L -3454.175159 295.152219 
L -3446.127082 295.143696 
L -3438.079005 295.082207 
L -3430.030929 295.11401 
L -3421.982852 295.110217 
L -3413.934775 295.123205 
L -3405.886698 295.115361 
L -3397.838621 295.087001 
L -3389.790544 295.194453 
L -3381.742467 295.133196 
L -3373.69439 295.168866 
L -3365.646313 295.120597 
L -3357.598236 295.209047 
L -3349.550159 295.138682 
L -3341.502082 295.124715 
L -3333.454005 295.159963 
L -3325.405929 295.150443 
L -3317.357852 295.174887 
L -3309.309775 295.155533 
L -3301.261698 295.186637 
L -3293.213621 295.140041 
L -3285.165544 295.211534 
L -3277.117467 295.176634 
L -3269.06939 295.156304 
L -3261.021313 295.158835 
L -3252.973236 295.258111 
L -3244.925159 295.210424 
L -3236.877082 295.294295 
L -3228.829005 295.081071 
L -3220.780929 295.148868 
L -3212.732852 295.279254 
L -3204.684775 295.288695 
L -3196.636698 295.312548 
L -3188.588621 295.224491 
L -3180.540544 295.18659 
L -3172.492467 295.475319 
L -3164.44439 295.161344 
L -3156.396313 295.231884 
L -3148.348236 295.28828 
L -3140.300159 295.330981 
L -3132.252082 295.351107 
L -3124.204005 295.406393 
L -3116.155929 295.880019 
L -3108.107852 296.019295 
L -3100.059775 295.566943 
L -3092.011698 295.445447 
L -3083.963621 295.856176 
L -3075.915544 295.725115 
L -3067.867467 296.002582 
L -3059.81939 296.385888 
L -3051.771313 296.394684 
L -3043.723236 295.97256 
L -3035.675159 296.265868 
L -3027.627082 297.047075 
L -3019.579005 297.08818 
L -3011.530929 297.976515 
L -3003.482852 298.458041 
L -2995.434775 298.242119 
L -2987.386698 299.588973 
L -2979.338621 301.419454 
L -2971.290544 303.892436 
L -2963.242467 303.54991 
L -2955.19439 307.556242 
L -2947.146313 309.24686 
L -2939.098236 306.3152 
L -2931.050159 308.449145 
L -2923.002082 311.157939 
L -2914.954005 311.036677 
L -2906.905929 311.718081 
L -2898.857852 320.070926 
L -2890.809775 331.457572 
L -2882.761698 337.330887 
L -2874.713621 326.228538 
L -2866.665544 332.907172 
L -2858.617467 341.317067 
L -2850.56939 341.345973 
L -2842.521313 357.832874 
L -2834.473236 355.952089 
L -2826.425159 351.419723 
L -2818.377082 339.577485 
L -2810.329005 351.719326 
L -2802.280929 359.091008 
L -2794.232852 356.514723 
L -2786.184775 358.752964 
L -2778.136698 365.695114 
L -2770.088621 365.127897 
L -2762.040544 359.815549 
L -2753.992467 367.361012 
L -2745.94439 369.160937 
L -2737.896313 366.886497 
L -2729.848236 371.87149 
L -2721.800159 373.84599 
L -2713.752082 373.704633 
L -2705.704005 372.603447 
L -2697.655929 374.446502 
L -2689.607852 373.189762 
L -2681.559775 373.658012 
L -2673.511698 375.433665 
L -2665.463621 374.359761 
L -2657.415544 375.395689 
L -2649.367467 375.740171 
L -2641.31939 374.91271 
L -2633.271313 375.624513 
L -2625.223236 374.187246 
L -2617.175159 374.752606 
L -2609.127082 375.520579 
L -2601.079005 375.892094 
L -2593.030929 375.363316 
L -2584.982852 374.960844 
L -2576.934775 375.027178 
L -2568.886698 374.682353 
L -2560.838621 374.86518 
L -2552.790544 374.988763 
L -2544.742467 374.171891 
L -2536.69439 374.98633 
L -2528.646313 374.531542 
L -2520.598236 374.379509 
L -2512.550159 374.806257 
L -2504.502082 374.351593 
L -2496.454005 374.402356 
L -2488.405929 374.833266 
L -2480.357852 375.468246 
L -2472.309775 374.54836 
L -2464.261698 374.260805 
L -2456.213621 374.463649 
L -2448.165544 376.5559 
L -2440.117467 376.769945 
L -2432.06939 377.64 
L -2424.021313 375.893365 
L -2415.973236 374.921559 
L -2407.925159 375.395567 
L -2399.877082 376.800855 
L -2391.829005 377.084035 
L -2383.780929 374.977568 
L -2375.732852 376.906307 
L -2367.684775 376.21338 
L -2359.636698 376.134926 
L -2351.588621 375.058668 
L -2343.540544 375.948062 
L -2335.492467 375.556003 
L -2327.44439 376.141424 
L -2319.396313 375.359856 
L -2311.348236 374.809424 
L -2303.300159 373.831516 
L -2295.252082 373.414875 
L -2287.204005 373.015306 
L -2279.155929 372.330952 
L -2271.107852 372.270362 
L -2263.059775 371.600831 
L -2255.011698 370.907595 
L -2246.963621 369.394604 
L -2238.915544 368.102718 
L -2230.867467 367.465183 
L -2222.81939 366.075485 
L -2214.771313 365.859628 
L -2206.723236 364.747452 
L -2198.675159 363.025041 
L -2190.627082 361.621639 
L -2182.579005 360.509617 
L -2174.530929 358.679746 
L -2166.482852 357.64279 
L -2158.434775 356.032519 
L -2150.386698 354.6152 
L -2142.338621 352.906625 
L -2134.290544 351.143903 
L -2126.242467 349.544741 
L -2118.19439 347.803408 
L -2110.146313 346.240328 
L -2102.098236 344.128998 
L -2094.050159 342.179841 
L -2086.002082 340.180835 
L -2077.954005 338.630008 
L -2069.905929 336.543997 
L -2061.857852 334.657063 
L -2053.809775 332.59031 
L -2045.761698 329.811457 
L -2037.713621 328.233742 
L -2029.665544 325.794522 
L -2021.617467 323.744478 
L -2013.56939 321.544839 
L -2005.521313 319.080759 
L -1997.473236 316.733136 
L -1989.425159 314.424246 
L -1981.377082 311.547576 
L -1973.329005 309.476748 
L -1965.280929 306.712817 
L -1957.232852 304.75464 
L -1949.184775 301.876949 
L -1941.136698 299.045694 
L -1933.088621 296.524296 
L -1925.040544 294.383887 
L -1916.992467 291.208072 
L -1908.94439 288.854991 
L -1900.896313 285.990772 
L -1892.848236 283.574097 
L -1884.800159 280.556774 
L -1876.752082 277.789668 
L -1868.704005 277.200098 
L -1860.655929 272.306325 
L -1852.607852 271.223522 
L -1844.559775 268.227252 
L -1836.511698 265.933334 
L -1828.463621 263.302948 
L -1820.415544 260.592675 
L -1812.367467 257.992635 
L -1804.31939 255.601198 
L -1796.271313 253.34552 
L -1788.223236 250.980563 
L -1780.175159 252.035702 
L -1772.127082 245.910641 
L -1764.079005 244.328116 
L -1756.030929 247.984889 
L -1747.982852 241.190094 
L -1739.934775 241.687785 
L -1731.886698 240.56491 
L -1723.838621 236.620347 
L -1715.790544 236.862049 
L -1707.742467 239.368538 
L -1699.69439 236.437709 
L -1691.646313 234.984663 
L -1683.598236 236.654542 
L -1675.550159 235.570477 
L -1667.502082 236.450601 
L -1659.454005 238.092365 
L -1651.405929 240.401801 
L -1643.357852 247.72716 
L -1635.309775 245.309622 
L -1627.261698 248.880294 
L -1619.213621 251.536978 
L -1611.165544 252.92412 
L -1603.117467 256.558394 
L -1595.06939 258.442191 
L -1587.021313 252.87596 
L -1578.973236 256.938362 
L -1570.925159 262.989178 
L -1562.877082 265.512229 
L -1554.829005 265.545436 
L -1546.780929 273.171081 
L -1538.732852 272.933755 
L -1530.684775 273.816229 
L -1522.636698 272.978541 
L -1514.588621 278.880591 
L -1506.540544 275.654608 
L -1498.492467 273.793576 
L -1490.44439 278.032853 
L -1482.396313 282.355484 
L -1474.348236 280.111817 
L -1466.300159 281.603172 
L -1458.252082 281.506527 
L -1450.204005 280.552627 
L -1442.155929 278.847482 
L -1434.107852 279.070274 
L -1426.059775 278.596001 
L -1418.011698 282.350373 
L -1409.963621 278.202571 
L -1401.915544 281.279255 
L -1393.867467 279.137535 
L -1385.81939 277.025126 
L -1377.771313 277.748562 
L -1369.723236 277.331148 
L -1361.675159 273.950167 
L -1353.627082 273.175286 
L -1345.579005 271.500121 
L -1337.530929 272.765445 
L -1329.482852 270.101334 
L -1321.434775 268.242768 
L -1313.386698 266.574367 
L -1305.338621 266.442399 
L -1297.290544 264.218944 
L -1289.242467 261.460302 
L -1281.19439 260.229053 
L -1273.146313 256.579494 
L -1265.098236 254.9509 
L -1257.050159 256.199835 
L -1249.002082 254.416815 
L -1240.954005 250.916793 
L -1232.905929 248.197024 
L -1224.857852 246.502028 
L -1216.809775 242.69633 
L -1208.761698 241.08227 
L -1200.713621 239.309305 
L -1192.665544 237.064862 
L -1184.617467 234.025849 
L -1176.56939 230.327149 
L -1168.521313 229.690568 
L -1160.473236 226.68224 
L -1152.425159 225.094809 
L -1144.377082 222.496288 
L -1136.329005 221.3777 
L -1128.280929 217.892311 
L -1120.232852 213.757647 
L -1112.184775 211.871599 
L -1104.136698 208.329355 
L -1096.088621 203.837891 
L -1088.040544 203.642498 
L -1079.992467 199.039221 
L -1071.94439 199.102903 
L -1063.896313 196.889414 
L -1055.848236 195.944659 
L -1047.800159 192.269761 
L -1039.752082 190.832642 
L -1031.704005 189.383511 
L -1023.655929 184.0228 
L -1015.607852 184.442694 
L -1007.559775 182.884224 
L -999.511698 181.677454 
L -991.463621 179.192851 
L -983.415544 178.816585 
L -975.367467 176.304683 
L -967.31939 174.543312 
L -959.271313 170.52012 
L -951.223236 168.584195 
L -943.175159 166.681837 
L -935.127082 165.006818 
L -927.079005 164.364875 
L -919.030929 162.714692 
L -910.982852 159.948564 
L -902.934775 159.26875 
L -894.886698 157.074621 
L -886.838621 155.992174 
L -878.790544 154.809687 
L -870.742467 154.190533 
L -862.69439 151.553812 
L -854.646313 146.556276 
L -846.598236 149.039122 
L -838.550159 147.517302 
L -830.502082 145.988404 
L -822.454005 144.352007 
L -814.405929 141.268737 
L -806.357852 140.400106 
L -798.309775 137.965895 
L -790.261698 136.959753 
L -782.213621 135.185647 
L -774.165544 133.136744 
L -766.117467 130.851463 
L -758.06939 133.601648 
L -750.021313 132.828831 
L -741.973236 130.875484 
L -733.925159 131.962699 
L -725.877082 128.541077 
L -717.829005 128.85153 
L -709.780929 128.963237 
L -701.732852 126.602774 
L -693.684775 130.329117 
L -685.636698 126.355948 
L -677.588621 124.276864 
L -669.540544 126.652069 
L -661.492467 127.180446 
L -653.44439 125.791397 
L -645.396313 126.594746 
L -637.348236 124.637911 
L -629.300159 127.873444 
L -621.252082 125.900355 
L -613.204005 126.372028 
L -605.155929 123.771261 
L -597.107852 121.401527 
L -589.059775 123.807999 
L -581.011698 128.32601 
L -572.963621 122.546504 
L -564.915544 122.543121 
L -556.867467 120.182642 
L -548.81939 120.83685 
L -540.771313 120.246959 
L -532.723236 118.665796 
L -524.675159 117.888644 
L -516.627082 119.936256 
L -508.579005 118.430645 
L -500.530929 120.300206 
L -492.482852 120.439631 
L -484.434775 113.962938 
L -476.386698 116.315946 
L -468.338621 116.331289 
L -460.290544 116.589095 
L -452.242467 116.818564 
L -444.19439 120.676307 
L -436.146313 122.148913 
L -428.098236 121.865589 
L -420.050159 126.179982 
L -412.002082 133.394822 
L -403.954005 124.643939 
L -395.905929 124.496765 
L -387.857852 124.648132 
L -379.809775 127.513251 
L -371.761698 128.155326 
L -363.713621 128.120872 
L -355.665544 134.380897 
L -347.617467 136.672583 
L -339.56939 129.505285 
L -331.521313 135.938084 
L -323.473236 132.710563 
L -315.425159 130.680194 
L -307.377082 138.480296 
L -299.329005 136.844823 
L -291.280929 141.83881 
L -283.232852 140.198614 
L -275.184775 136.663606 
L -267.136698 139.727017 
L -259.088621 139.602505 
L -251.040544 142.590344 
L -242.992467 140.478223 
L -234.94439 145.475604 
L -226.896313 141.604062 
L -218.848236 144.155549 
L -210.800159 143.422207 
L -202.752082 146.242106 
L -194.704005 141.22407 
L -186.655929 146.218274 
L -178.607852 145.741797 
L -170.559775 149.091733 
L -162.511698 150.764319 
L -154.463621 150.579586 
L -146.415544 149.47579 
L -138.367467 151.558312 
L -130.31939 153.060318 
L -122.271313 151.345953 
L -114.223236 150.582667 
L -106.175159 152.388502 
L -98.127082 154.011113 
L -90.079005 150.66862 
L -82.030929 148.668066 
L -73.982852 155.697859 
L -65.934775 158.792478 
L -57.886698 151.233423 
L -49.838621 153.235326 
L -41.790544 154.15747 
L -33.742467 154.519839 
L -25.69439 158.062784 
L -17.646313 157.438426 
L -9.598236 155.789264 
L -1.550159 157.273663 
L 6.497918 157.582848 
L 14.545995 153.488958 
L 22.594071 155.397336 
L 30.642148 154.063859 
L 38.690225 159.489965 
L 46.738302 166.195072 
L 54.786379 165.155342 
L 62.834456 159.720023 
L 70.882533 159.100123 
L 78.93061 159.804022 
L 86.978687 160.035061 
L 95.026764 165.053151 
L 103.074841 158.62662 
L 111.122918 165.357857 
L 119.170995 170.774017 
L 127.219071 166.256639 
L 135.267148 173.23216 
L 143.315225 168.890755 
L 151.363302 172.709059 
L 159.411379 170.225941 
L 167.459456 172.13254 
L 175.507533 175.898105 
L 183.55561 175.682449 
L 191.603687 176.872263 
L 199.651764 177.21746 
L 207.699841 177.649709 
L 215.747918 168.580945 
L 223.795995 180.3593 
L 231.844071 185.229747 
L 239.892148 180.590868 
L 247.940225 184.896524 
L 255.988302 185.858769 
L 264.036379 183.450203 
L 272.084456 188.306414 
L 280.132533 191.569681 
L 288.18061 189.715539 
L 296.228687 191.019216 
L 304.276764 191.774348 
L 312.324841 192.979016 
L 320.372918 196.680984 
L 328.420995 189.275016 
L 336.469071 198.599879 
L 344.517148 198.8611 
L 352.565225 199.302834 
L 360.613302 193.590149 
L 368.661379 200.64495 
L 376.709456 205.331203 
L 384.757533 200.586657 
L 392.80561 201.116735 
L 400.853687 207.621177 
L 408.901764 196.226587 
L 416.949841 206.820707 
L 424.997918 200.140271 
L 433.045995 209.376885 
L 441.094071 204.931566 
L 449.142148 208.885892 
L 457.190225 210.062602 
L 465.238302 211.734814 
L 473.286379 212.179346 
L 481.334456 209.600617 
L 489.382533 209.580083 
L 497.43061 210.740063 
L 505.478687 214.895408 
L 513.526764 214.268067 
L 521.574841 214.038363 
L 529.622918 216.53684 
L 537.670995 216.625545 
L 545.719071 214.463224 
L 553.767148 214.740932 
L 561.815225 218.603655 
L 569.863302 219.108468 
L 577.911379 220.008506 
L 585.959456 216.777507 
L 594.007533 212.010763 
L 602.05561 217.183982 
L 610.103687 215.539918 
L 618.151764 216.901231 
L 626.199841 219.105722 
L 634.247918 216.188613 
L 642.295995 219.83452 
L 650.344071 217.131053 
L 658.392148 216.689547 
L 666.440225 216.440649 
L 674.488302 219.626979 
L 682.536379 218.718456 
L 690.584456 218.342304 
L 698.632533 215.889187 
L 706.68061 217.066963 
L 714.728687 217.526919 
L 722.776764 216.768214 
L 730.824841 218.818898 
L 738.872918 218.231454 
L 746.920995 219.363591 
L 754.969071 220.636582 
L 763.017148 220.437228 
L 771.065225 219.03807 
L 779.113302 219.318709 
L 787.161379 218.430743 
L 795.209456 219.401923 
L 803.257533 219.556619 
L 811.30561 217.99194 
L 819.353687 219.63845 
L 827.401764 212.215934 
L 835.449841 219.543748 
L 843.497918 222.253809 
L 851.545995 219.247658 
L 859.594071 219.213853 
L 867.642148 221.935007 
L 875.690225 222.010374 
L 883.738302 219.397406 
L 891.786379 219.208105 
L 899.834456 220.94169 
L 907.882533 220.34261 
L 915.93061 223.667851 
L 923.978687 222.548263 
L 932.026764 224.908146 
L 940.074841 221.54905 
L 940.074841 160.346712 
L 940.074841 160.346712 
L 932.026764 157.951082 
L 923.978687 154.587978 
L 915.93061 158.601458 
L 907.882533 151.189936 
L 899.834456 153.348898 
L 891.786379 152.389287 
L 883.738302 144.691446 
L 875.690225 154.882786 
L 867.642148 160.410274 
L 859.594071 145.728463 
L 851.545995 152.309693 
L 843.497918 158.650236 
L 835.449841 154.786909 
L 827.401764 106.376507 
L 819.353687 153.707416 
L 811.30561 145.129333 
L 803.257533 154.874403 
L 795.209456 154.503465 
L 787.161379 151.232249 
L 779.113302 152.003307 
L 771.065225 151.494185 
L 763.017148 157.333761 
L 754.969071 158.014118 
L 746.920995 151.615447 
L 738.872918 147.524308 
L 730.824841 152.137484 
L 722.776764 146.05235 
L 714.728687 149.402859 
L 706.68061 146.159188 
L 698.632533 141.863792 
L 690.584456 149.620396 
L 682.536379 151.095817 
L 674.488302 151.869273 
L 666.440225 144.677302 
L 658.392148 143.73696 
L 650.344071 144.21865 
L 642.295995 154.125174 
L 634.247918 142.314805 
L 626.199841 151.675628 
L 618.151764 145.17189 
L 610.103687 140.437346 
L 602.05561 145.870036 
L 594.007533 126.311515 
L 585.959456 145.3905 
L 577.911379 153.591667 
L 569.863302 150.896195 
L 561.815225 150.030366 
L 553.767148 134.942575 
L 545.719071 136.354405 
L 537.670995 142.999309 
L 529.622918 143.485182 
L 521.574841 135.673604 
L 513.526764 137.163637 
L 505.478687 137.404021 
L 497.43061 129.559154 
L 489.382533 122.951924 
L 481.334456 122.300876 
L 473.286379 130.050854 
L 465.238302 129.13067 
L 457.190225 126.230454 
L 449.142148 123.219998 
L 441.094071 111.120486 
L 433.045995 125.220158 
L 424.997918 92.423215 
L 416.949841 116.209847 
L 408.901764 85.036809 
L 400.853687 120.7418 
L 392.80561 102.463725 
L 384.757533 103.010077 
L 376.709456 113.78793 
L 368.661379 102.999599 
L 360.613302 82.597397 
L 352.565225 98.975238 
L 344.517148 99.494576 
L 336.469071 99.696005 
L 328.420995 75.783742 
L 320.372918 88.856401 
L 312.324841 86.71521 
L 304.276764 85.796819 
L 296.228687 83.879269 
L 288.18061 79.515929 
L 280.132533 85.367166 
L 272.084456 77.072991 
L 264.036379 66.511612 
L 255.988302 76.678666 
L 247.940225 70.017343 
L 239.892148 64.146589 
L 231.844071 75.713985 
L 223.795995 64.714083 
L 215.747918 35.301959 
L 207.699841 58.086518 
L 199.651764 57.963311 
L 191.603687 58.756695 
L 183.55561 56.816394 
L 175.507533 57.682889 
L 167.459456 50.237593 
L 159.411379 47.613776 
L 151.363302 54.696994 
L 143.315225 43.569163 
L 135.267148 56.510446 
L 127.219071 40.797378 
L 119.170995 51.075022 
L 111.122918 40.9108 
L 103.074841 28.148081 
L 95.026764 41.46352 
L 86.978687 30.415471 
L 78.93061 32.094231 
L 70.882533 32.446551 
L 62.834456 34.48557 
L 54.786379 46.602115 
L 46.738302 50.18093 
L 38.690225 37.662765 
L 30.642148 24.84 
L 22.594071 29.65948 
L 14.545995 27.8687 
L 6.497918 37.49394 
L -1.550159 37.613037 
L -9.598236 35.170355 
L -17.646313 40.690259 
L -25.69439 41.391757 
L -33.742467 35.505489 
L -41.790544 37.438069 
L -49.838621 35.84611 
L -57.886698 33.625176 
L -65.934775 50.134178 
L -73.982852 42.586719 
L -82.030929 31.726491 
L -90.079005 38.414326 
L -98.127082 44.617907 
L -106.175159 42.341345 
L -114.223236 40.872365 
L -122.271313 43.852179 
L -130.31939 50.105576 
L -138.367467 45.593556 
L -146.415544 44.430004 
L -154.463621 47.850656 
L -162.511698 45.561189 
L -170.559775 47.401239 
L -178.607852 41.394666 
L -186.655929 44.809891 
L -194.704005 37.218275 
L -202.752082 45.797887 
L -210.800159 43.193308 
L -218.848236 46.263872 
L -226.896313 44.627704 
L -234.94439 50.317021 
L -242.992467 43.729789 
L -251.040544 48.971721 
L -259.088621 45.218627 
L -267.136698 46.846894 
L -275.184775 43.887974 
L -283.232852 47.249382 
L -291.280929 53.464012 
L -299.329005 48.507315 
L -307.377082 50.720021 
L -315.425159 41.212102 
L -323.473236 46.407011 
L -331.521313 49.873203 
L -339.56939 42.787753 
L -347.617467 52.732387 
L -355.665544 53.17452 
L -363.713621 44.542254 
L -371.761698 45.674337 
L -379.809775 45.642366 
L -387.857852 43.008106 
L -395.905929 45.835584 
L -403.954005 46.055395 
L -412.002082 58.5287 
L -420.050159 51.078052 
L -428.098236 46.165146 
L -436.146313 47.244852 
L -444.19439 46.593017 
L -452.242467 43.73115 
L -460.290544 45.693842 
L -468.338621 44.434427 
L -476.386698 47.644295 
L -484.434775 45.491759 
L -492.482852 53.335166 
L -500.530929 55.073166 
L -508.579005 54.548608 
L -516.627082 57.098865 
L -524.675159 55.504159 
L -532.723236 58.435747 
L -540.771313 60.765365 
L -548.81939 64.201947 
L -556.867467 63.172254 
L -564.915544 67.478088 
L -572.963621 67.983904 
L -581.011698 75.222764 
L -589.059775 71.876244 
L -597.107852 70.466425 
L -605.155929 73.95567 
L -613.204005 76.383743 
L -621.252082 77.165595 
L -629.300159 81.155983 
L -637.348236 78.837818 
L -645.396313 82.013465 
L -653.44439 81.499965 
L -661.492467 82.974278 
L -669.540544 82.683534 
L -677.588621 81.814143 
L -685.636698 85.407425 
L -693.684775 89.797656 
L -701.732852 86.569994 
L -709.780929 89.669194 
L -717.829005 89.316014 
L -725.877082 90.877991 
L -733.925159 94.596389 
L -741.973236 94.067601 
L -750.021313 96.993548 
L -758.06939 98.161628 
L -766.117467 96.028792 
L -774.165544 98.279248 
L -782.213621 100.663939 
L -790.261698 101.736534 
L -798.309775 102.211878 
L -806.357852 103.912011 
L -814.405929 104.409363 
L -822.454005 106.499163 
L -830.502082 107.535285 
L -838.550159 108.567601 
L -846.598236 109.244208 
L -854.646313 106.131782 
L -862.69439 110.326137 
L -870.742467 112.334356 
L -878.790544 112.302915 
L -886.838621 112.896514 
L -894.886698 113.351139 
L -902.934775 114.792053 
L -910.982852 114.906954 
L -919.030929 116.70909 
L -927.079005 117.516144 
L -935.127082 117.714947 
L -943.175159 118.493776 
L -951.223236 119.491385 
L -959.271313 120.699536 
L -967.31939 123.752111 
L -975.367467 124.836378 
L -983.415544 126.325489 
L -991.463621 126.044615 
L -999.511698 127.614259 
L -1007.559775 127.853689 
L -1015.607852 128.507545 
L -1023.655929 127.324065 
L -1031.704005 131.644844 
L -1039.752082 132.134228 
L -1047.800159 132.819521 
L -1055.848236 135.625355 
L -1063.896313 135.504678 
L -1071.94439 136.728018 
L -1079.992467 135.917569 
L -1088.040544 139.845348 
L -1096.088621 138.29691 
L -1104.136698 142.2067 
L -1112.184775 144.631625 
L -1120.232852 145.514034 
L -1128.280929 148.832416 
L -1136.329005 150.952021 
L -1144.377082 151.573743 
L -1152.425159 153.031225 
L -1160.473236 153.993644 
L -1168.521313 156.110628 
L -1176.56939 155.894708 
L -1184.617467 158.600708 
L -1192.665544 160.581968 
L -1200.713621 161.978828 
L -1208.761698 163.008343 
L -1216.809775 163.454458 
L -1224.857852 166.976632 
L -1232.905929 167.779165 
L -1240.954005 169.567302 
L -1249.002082 172.818143 
L -1257.050159 173.974539 
L -1265.098236 171.181453 
L -1273.146313 172.018381 
L -1281.19439 175.378697 
L -1289.242467 175.742282 
L -1297.290544 178.178631 
L -1305.338621 180.062403 
L -1313.386698 179.383776 
L -1321.434775 179.984271 
L -1329.482852 181.62944 
L -1337.530929 184.307454 
L -1345.579005 181.942331 
L -1353.627082 183.102552 
L -1361.675159 183.110746 
L -1369.723236 186.667425 
L -1377.771313 186.162447 
L -1385.81939 184.920847 
L -1393.867467 186.752629 
L -1401.915544 188.919693 
L -1409.963621 184.165759 
L -1418.011698 188.417778 
L -1426.059775 182.98698 
L -1434.107852 182.675083 
L -1442.155929 181.610895 
L -1450.204005 182.679853 
L -1458.252082 183.367368 
L -1466.300159 183.731407 
L -1474.348236 181.016688 
L -1482.396313 182.825735 
L -1490.44439 176.61945 
L -1498.492467 168.74091 
L -1506.540544 171.127228 
L -1514.588621 174.938448 
L -1522.636698 165.760598 
L -1530.684775 167.094118 
L -1538.732852 164.608464 
L -1546.780929 164.153419 
L -1554.829005 152.319211 
L -1562.877082 150.869392 
L -1570.925159 146.51893 
L -1578.973236 137.099095 
L -1587.021313 129.580784 
L -1595.06939 137.393485 
L -1603.117467 133.43383 
L -1611.165544 127.154608 
L -1619.213621 124.741182 
L -1627.261698 120.427703 
L -1635.309775 114.624709 
L -1643.357852 117.355061 
L -1651.405929 107.364905 
L -1659.454005 102.375747 
L -1667.502082 100.469032 
L -1675.550159 99.037446 
L -1683.598236 100.784305 
L -1691.646313 98.96712 
L -1699.69439 101.869156 
L -1707.742467 105.512024 
L -1715.790544 101.544105 
L -1723.838621 102.015125 
L -1731.886698 107.619518 
L -1739.934775 109.691312 
L -1747.982852 108.986237 
L -1756.030929 119.571262 
L -1764.079005 114.087568 
L -1772.127082 117.541232 
L -1780.175159 125.955625 
L -1788.223236 125.204131 
L -1796.271313 129.123028 
L -1804.31939 132.791495 
L -1812.367467 136.890865 
L -1820.415544 140.874284 
L -1828.463621 145.226076 
L -1836.511698 149.365975 
L -1844.559775 153.016424 
L -1852.607852 158.008557 
L -1860.655929 160.286036 
L -1868.704005 167.433718 
L -1876.752082 169.110341 
L -1884.800159 173.41781 
L -1892.848236 178.211023 
L -1900.896313 182.161078 
L -1908.94439 186.821235 
L -1916.992467 190.574894 
L -1925.040544 195.553158 
L -1933.088621 199.1436 
L -1941.136698 203.341062 
L -1949.184775 207.713037 
L -1957.232852 212.222706 
L -1965.280929 215.616131 
L -1973.329005 220.070271 
L -1981.377082 223.403557 
L -1989.425159 227.911435 
L -1997.473236 231.647676 
L -2005.521313 235.604481 
L -2013.56939 239.465469 
L -2021.617467 243.176192 
L -2029.665544 246.567634 
L -2037.713621 250.515534 
L -2045.761698 253.254867 
L -2053.809775 257.634727 
L -2061.857852 261.109365 
L -2069.905929 264.211525 
L -2077.954005 267.760478 
L -2086.002082 270.909075 
L -2094.050159 273.751677 
L -2102.098236 277.137285 
L -2110.146313 280.653505 
L -2118.19439 283.634969 
L -2126.242467 286.475571 
L -2134.290544 289.702826 
L -2142.338621 292.421188 
L -2150.386698 295.429847 
L -2158.434775 298.089096 
L -2166.482852 300.905159 
L -2174.530929 303.251205 
L -2182.579005 306.211924 
L -2190.627082 308.523103 
L -2198.675159 311.138279 
L -2206.723236 314.002964 
L -2214.771313 316.342359 
L -2222.81939 317.820587 
L -2230.867467 320.250954 
L -2238.915544 321.949758 
L -2246.963621 324.246396 
L -2255.011698 326.881128 
L -2263.059775 328.583771 
L -2271.107852 330.223312 
L -2279.155929 331.441743 
L -2287.204005 333.062229 
L -2295.252082 334.50884 
L -2303.300159 335.968246 
L -2311.348236 337.886449 
L -2319.396313 339.368872 
L -2327.44439 340.963142 
L -2335.492467 341.418966 
L -2343.540544 342.780138 
L -2351.588621 342.807331 
L -2359.636698 344.624548 
L -2367.684775 345.723931 
L -2375.732852 346.950364 
L -2383.780929 345.87605 
L -2391.829005 348.759915 
L -2399.877082 349.256568 
L -2407.925159 348.695633 
L -2415.973236 348.983071 
L -2424.021313 350.692713 
L -2432.06939 353.06792 
L -2440.117467 352.928603 
L -2448.165544 353.429294 
L -2456.213621 352.07881 
L -2464.261698 352.90106 
L -2472.309775 353.517384 
L -2480.357852 355.020936 
L -2488.405929 355.065926 
L -2496.454005 355.220785 
L -2504.502082 355.742361 
L -2512.550159 356.734568 
L -2520.598236 357.031534 
L -2528.646313 357.605893 
L -2536.69439 358.547515 
L -2544.742467 358.324482 
L -2552.790544 359.572134 
L -2560.838621 359.925917 
L -2568.886698 360.239088 
L -2576.934775 361.092452 
L -2584.982852 361.410863 
L -2593.030929 362.173242 
L -2601.079005 363.028978 
L -2609.127082 363.149034 
L -2617.175159 362.863214 
L -2625.223236 362.786894 
L -2633.271313 364.229695 
L -2641.31939 363.502753 
L -2649.367467 364.351559 
L -2657.415544 363.979021 
L -2665.463621 363.101315 
L -2673.511698 363.939333 
L -2681.559775 362.401525 
L -2689.607852 362.058533 
L -2697.655929 363.244557 
L -2705.704005 361.738952 
L -2713.752082 362.851222 
L -2721.800159 362.977365 
L -2729.848236 361.374884 
L -2737.896313 356.990325 
L -2745.94439 359.141198 
L -2753.992467 357.536282 
L -2762.040544 351.162283 
L -2770.088621 355.789727 
L -2778.136698 356.467223 
L -2786.184775 350.573205 
L -2794.232852 348.620363 
L -2802.280929 351.152427 
L -2810.329005 344.737095 
L -2818.377082 333.989581 
L -2826.425159 344.71102 
L -2834.473236 348.872764 
L -2842.521313 350.808997 
L -2850.56939 336.134312 
L -2858.617467 336.199152 
L -2866.665544 328.746126 
L -2874.713621 322.750407 
L -2882.761698 332.91135 
L -2890.809775 327.662416 
L -2898.857852 317.417449 
L -2906.905929 309.891173 
L -2914.954005 309.319755 
L -2923.002082 309.48369 
L -2931.050159 307.039298 
L -2939.098236 305.121192 
L -2947.146313 307.842668 
L -2955.19439 306.256543 
L -2963.242467 302.628159 
L -2971.290544 302.935627 
L -2979.338621 300.688405 
L -2987.386698 299.037166 
L -2995.434775 297.890012 
L -3003.482852 298.013715 
L -3011.530929 297.607503 
L -3019.579005 296.793979 
L -3027.627082 296.774861 
L -3035.675159 296.063249 
L -3043.723236 295.779344 
L -3051.771313 296.066072 
L -3059.81939 296.178352 
L -3067.867467 295.784948 
L -3075.915544 295.568311 
L -3083.963621 295.622634 
L -3092.011698 295.326875 
L -3100.059775 295.424263 
L -3108.107852 295.833279 
L -3116.155929 295.647703 
L -3124.204005 295.286639 
L -3132.252082 295.213862 
L -3140.300159 295.249736 
L -3148.348236 295.186157 
L -3156.396313 295.124415 
L -3164.44439 295.077676 
L -3172.492467 295.292524 
L -3180.540544 295.118136 
L -3188.588621 295.111173 
L -3196.636698 295.192635 
L -3204.684775 295.175937 
L -3212.732852 295.160455 
L -3220.780929 295.073692 
L -3228.829005 295.054738 
L -3236.877082 295.173301 
L -3244.925159 295.123682 
L -3252.973236 295.160459 
L -3261.021313 295.100536 
L -3269.06939 295.078166 
L -3277.117467 295.085168 
L -3285.165544 295.127269 
L -3293.213621 295.073941 
L -3301.261698 295.116138 
L -3309.309775 295.079069 
L -3317.357852 295.094659 
L -3325.405929 295.092837 
L -3333.454005 295.081101 
L -3341.502082 295.070615 
L -3349.550159 295.086396 
L -3357.598236 295.124922 
L -3365.646313 295.080618 
L -3373.69439 295.09145 
L -3381.742467 295.073644 
L -3389.790544 295.094777 
L -3397.838621 295.059237 
L -3405.886698 295.068742 
L -3413.934775 295.081876 
L -3421.982852 295.077342 
L -3430.030929 295.075378 
L -3438.079005 295.058048 
L -3446.127082 295.080127 
L -3454.175159 295.083328 
L -3462.223236 295.054189 
L -3470.271313 295.056472 
L -3478.31939 295.059858 
L -3486.367467 295.063839 
L -3494.415544 295.062056 
L -3502.463621 295.046863 
L -3510.511698 295.050556 
L -3518.559775 295.049981 
L -3526.607852 295.050115 
L -3534.655929 295.049282 
L -3542.704005 295.053505 
L -3550.752082 295.078132 
L -3558.800159 295.046431 
L -3566.848236 295.054094 
L -3574.896313 295.05827 
L -3582.94439 295.050938 
L -3590.992467 295.051007 
L -3599.040544 295.057208 
L -3607.088621 295.054373 
L -3615.136698 295.070481 
L -3623.184775 295.055153 
L -3631.232852 295.049988 
L -3639.280929 295.059963 
L -3647.329005 295.066909 
L -3655.377082 295.05502 
L -3663.425159 295.069004 
L -3671.473236 295.046199 
L -3679.521313 295.048144 
L -3687.56939 295.080341 
L -3695.617467 295.050132 
L -3703.665544 295.067233 
L -3711.713621 295.060989 
L -3719.761698 295.077076 
L -3727.809775 295.048866 
L -3735.857852 295.087633 
L -3743.905929 295.048576 
L -3751.954005 295.053539 
L -3760.002082 295.049832 
L -3768.050159 295.05756 
L -3776.098236 295.047933 
L -3784.146313 295.046611 
L -3792.19439 295.048702 
L -3800.242467 295.070788 
L -3808.290544 295.067344 
L -3816.338621 295.05179 
L -3824.386698 295.048766 
L -3832.434775 295.051308 
L -3840.482852 295.046503 
L -3848.530929 295.049424 
L -3856.579005 295.055333 
L -3864.627082 295.05229 
L -3872.675159 295.057206 
L -3880.723236 295.06613 
L -3888.771313 295.051892 
L -3896.81939 295.048249 
L -3904.867467 295.059679 
L -3912.915544 295.069647 
L -3920.963621 295.050418 
L -3929.011698 295.066693 
L -3937.059775 295.067801 
L -3945.107852 295.056605 
L -3953.155929 295.055092 
L -3961.204005 295.046326 
L -3969.252082 295.063968 
L -3977.300159 295.05072 
L -3985.348236 295.058699 
L -3993.396313 295.065084 
L -4001.44439 295.069705 
L -4009.492467 295.062819 
L -4017.540544 295.057667 
L -4025.588621 295.056533 
L -4033.636698 295.063348 
L -4041.684775 295.052183 
L -4049.732852 295.062017 
L -4057.780929 295.060595 
L -4065.829005 295.048621 
L -4073.877082 295.061288 
L -4081.925159 295.065043 
L -4089.973236 295.057773 
L -4098.021313 295.058174 
L -4106.06939 295.061929 
L -4114.117467 295.060737 
L -4122.165544 295.063226 
L -4130.213621 295.054864 
L -4138.261698 295.062784 
L -4146.309775 295.057465 
L -4154.357852 295.056518 
L -4162.405929 295.060662 
L -4170.454005 295.053815 
L -4178.502082 295.050967 
L -4186.550159 295.066412 
L -4194.598236 295.060066 
L -4202.646313 295.066594 
L -4210.69439 295.063403 
L -4218.742467 295.074284 
L -4226.790544 295.072422 
L -4234.838621 295.074012 
L -4242.886698 295.075281 
L -4250.934775 295.066904 
L -4258.982852 295.065913 
L -4267.030929 295.068185 
L -4275.079005 295.073416 
L -4283.127082 295.070952 
L -4291.175159 295.058616 
L -4299.223236 295.061816 
L -4307.271313 295.053991 
L -4315.31939 295.052013 
z
" clip-path="url(#p43f55d3a8a)" style="fill: #008000; fill-opacity: 0.3; stroke: #008000; stroke-opacity: 0.3"/>
   </g>
   <g id="matplotlib.axis_1">
    <g id="xtick_1">
     <g id="line2d_1">
      <defs>
       <path id="mfa6eb3434e" d="M 0 0 
L 0 3.5 
" style="stroke: #000000; stroke-width: 0.8"/>
      </defs>
      <g>
       <use xlink:href="#mfa6eb3434e" x="103.074841" y="395.28" style="stroke: #000000; stroke-width: 0.8"/>
      </g>
     </g>
     <g id="text_1">
      <!-- 2023-01-01 -->
      <g transform="translate(17.945813 495.213718) rotate(-45) scale(0.2 -0.2)">
       <defs>
        <path id="DejaVuSans-32" d="M 1228 531 
L 3431 531 
L 3431 0 
L 469 0 
L 469 531 
Q 828 903 1448 1529 
Q 2069 2156 2228 2338 
Q 2531 2678 2651 2914 
Q 2772 3150 2772 3378 
Q 2772 3750 2511 3984 
Q 2250 4219 1831 4219 
Q 1534 4219 1204 4116 
Q 875 4013 500 3803 
L 500 4441 
Q 881 4594 1212 4672 
Q 1544 4750 1819 4750 
Q 2544 4750 2975 4387 
Q 3406 4025 3406 3419 
Q 3406 3131 3298 2873 
Q 3191 2616 2906 2266 
Q 2828 2175 2409 1742 
Q 1991 1309 1228 531 
z
" transform="scale(0.015625)"/>
        <path id="DejaVuSans-30" d="M 2034 4250 
Q 1547 4250 1301 3770 
Q 1056 3291 1056 2328 
Q 1056 1369 1301 889 
Q 1547 409 2034 409 
Q 2525 409 2770 889 
Q 3016 1369 3016 2328 
Q 3016 3291 2770 3770 
Q 2525 4250 2034 4250 
z
M 2034 4750 
Q 2819 4750 3233 4129 
Q 3647 3509 3647 2328 
Q 3647 1150 3233 529 
Q 2819 -91 2034 -91 
Q 1250 -91 836 529 
Q 422 1150 422 2328 
Q 422 3509 836 4129 
Q 1250 4750 2034 4750 
z
" transform="scale(0.015625)"/>
        <path id="DejaVuSans-33" d="M 2597 2516 
Q 3050 2419 3304 2112 
Q 3559 1806 3559 1356 
Q 3559 666 3084 287 
Q 2609 -91 1734 -91 
Q 1441 -91 1130 -33 
Q 819 25 488 141 
L 488 750 
Q 750 597 1062 519 
Q 1375 441 1716 441 
Q 2309 441 2620 675 
Q 2931 909 2931 1356 
Q 2931 1769 2642 2001 
Q 2353 2234 1838 2234 
L 1294 2234 
L 1294 2753 
L 1863 2753 
Q 2328 2753 2575 2939 
Q 2822 3125 2822 3475 
Q 2822 3834 2567 4026 
Q 2313 4219 1838 4219 
Q 1578 4219 1281 4162 
Q 984 4106 628 3988 
L 628 4550 
Q 988 4650 1302 4700 
Q 1616 4750 1894 4750 
Q 2613 4750 3031 4423 
Q 3450 4097 3450 3541 
Q 3450 3153 3228 2886 
Q 3006 2619 2597 2516 
z
" transform="scale(0.015625)"/>
        <path id="DejaVuSans-2d" d="M 313 2009 
L 1997 2009 
L 1997 1497 
L 313 1497 
L 313 2009 
z
" transform="scale(0.015625)"/>
        <path id="DejaVuSans-31" d="M 794 531 
L 1825 531 
L 1825 4091 
L 703 3866 
L 703 4441 
L 1819 4666 
L 2450 4666 
L 2450 531 
L 3481 531 
L 3481 0 
L 794 0 
L 794 531 
z
" transform="scale(0.015625)"/>
       </defs>
       <use xlink:href="#DejaVuSans-32"/>
       <use xlink:href="#DejaVuSans-30" x="63.623047"/>
       <use xlink:href="#DejaVuSans-32" x="127.246094"/>
       <use xlink:href="#DejaVuSans-33" x="190.869141"/>
       <use xlink:href="#DejaVuSans-2d" x="254.492188"/>
       <use xlink:href="#DejaVuSans-30" x="290.576172"/>
       <use xlink:href="#DejaVuSans-31" x="354.199219"/>
       <use xlink:href="#DejaVuSans-2d" x="417.822266"/>
       <use xlink:href="#DejaVuSans-30" x="453.90625"/>
       <use xlink:href="#DejaVuSans-31" x="517.529297"/>
      </g>
     </g>
    </g>
    <g id="xtick_2">
     <g id="line2d_2">
      <g>
       <use xlink:href="#mfa6eb3434e" x="215.747918" y="395.28" style="stroke: #000000; stroke-width: 0.8"/>
      </g>
     </g>
     <g id="text_2">
      <!-- 2023-01-15 -->
      <g transform="translate(130.61889 495.213718) rotate(-45) scale(0.2 -0.2)">
       <defs>
        <path id="DejaVuSans-35" d="M 691 4666 
L 3169 4666 
L 3169 4134 
L 1269 4134 
L 1269 2991 
Q 1406 3038 1543 3061 
Q 1681 3084 1819 3084 
Q 2600 3084 3056 2656 
Q 3513 2228 3513 1497 
Q 3513 744 3044 326 
Q 2575 -91 1722 -91 
Q 1428 -91 1123 -41 
Q 819 9 494 109 
L 494 744 
Q 775 591 1075 516 
Q 1375 441 1709 441 
Q 2250 441 2565 725 
Q 2881 1009 2881 1497 
Q 2881 1984 2565 2268 
Q 2250 2553 1709 2553 
Q 1456 2553 1204 2497 
Q 953 2441 691 2322 
L 691 4666 
z
" transform="scale(0.015625)"/>
       </defs>
       <use xlink:href="#DejaVuSans-32"/>
       <use xlink:href="#DejaVuSans-30" x="63.623047"/>
       <use xlink:href="#DejaVuSans-32" x="127.246094"/>
       <use xlink:href="#DejaVuSans-33" x="190.869141"/>
       <use xlink:href="#DejaVuSans-2d" x="254.492188"/>
       <use xlink:href="#DejaVuSans-30" x="290.576172"/>
       <use xlink:href="#DejaVuSans-31" x="354.199219"/>
       <use xlink:href="#DejaVuSans-2d" x="417.822266"/>
       <use xlink:href="#DejaVuSans-31" x="453.90625"/>
       <use xlink:href="#DejaVuSans-35" x="517.529297"/>
      </g>
     </g>
    </g>
    <g id="xtick_3">
     <g id="line2d_3">
      <g>
       <use xlink:href="#mfa6eb3434e" x="328.420995" y="395.28" style="stroke: #000000; stroke-width: 0.8"/>
      </g>
     </g>
     <g id="text_3">
      <!-- 2023-01-29 -->
      <g transform="translate(243.291967 495.213718) rotate(-45) scale(0.2 -0.2)">
       <defs>
        <path id="DejaVuSans-39" d="M 703 97 
L 703 672 
Q 941 559 1184 500 
Q 1428 441 1663 441 
Q 2288 441 2617 861 
Q 2947 1281 2994 2138 
Q 2813 1869 2534 1725 
Q 2256 1581 1919 1581 
Q 1219 1581 811 2004 
Q 403 2428 403 3163 
Q 403 3881 828 4315 
Q 1253 4750 1959 4750 
Q 2769 4750 3195 4129 
Q 3622 3509 3622 2328 
Q 3622 1225 3098 567 
Q 2575 -91 1691 -91 
Q 1453 -91 1209 -44 
Q 966 3 703 97 
z
M 1959 2075 
Q 2384 2075 2632 2365 
Q 2881 2656 2881 3163 
Q 2881 3666 2632 3958 
Q 2384 4250 1959 4250 
Q 1534 4250 1286 3958 
Q 1038 3666 1038 3163 
Q 1038 2656 1286 2365 
Q 1534 2075 1959 2075 
z
" transform="scale(0.015625)"/>
       </defs>
       <use xlink:href="#DejaVuSans-32"/>
       <use xlink:href="#DejaVuSans-30" x="63.623047"/>
       <use xlink:href="#DejaVuSans-32" x="127.246094"/>
       <use xlink:href="#DejaVuSans-33" x="190.869141"/>
       <use xlink:href="#DejaVuSans-2d" x="254.492188"/>
       <use xlink:href="#DejaVuSans-30" x="290.576172"/>
       <use xlink:href="#DejaVuSans-31" x="354.199219"/>
       <use xlink:href="#DejaVuSans-2d" x="417.822266"/>
       <use xlink:href="#DejaVuSans-32" x="453.90625"/>
       <use xlink:href="#DejaVuSans-39" x="517.529297"/>
      </g>
     </g>
    </g>
    <g id="xtick_4">
     <g id="line2d_4">
      <g>
       <use xlink:href="#mfa6eb3434e" x="441.094071" y="395.28" style="stroke: #000000; stroke-width: 0.8"/>
      </g>
     </g>
     <g id="text_4">
      <!-- 2023-02-12 -->
      <g transform="translate(355.965044 495.213718) rotate(-45) scale(0.2 -0.2)">
       <use xlink:href="#DejaVuSans-32"/>
       <use xlink:href="#DejaVuSans-30" x="63.623047"/>
       <use xlink:href="#DejaVuSans-32" x="127.246094"/>
       <use xlink:href="#DejaVuSans-33" x="190.869141"/>
       <use xlink:href="#DejaVuSans-2d" x="254.492188"/>
       <use xlink:href="#DejaVuSans-30" x="290.576172"/>
       <use xlink:href="#DejaVuSans-32" x="354.199219"/>
       <use xlink:href="#DejaVuSans-2d" x="417.822266"/>
       <use xlink:href="#DejaVuSans-31" x="453.90625"/>
       <use xlink:href="#DejaVuSans-32" x="517.529297"/>
      </g>
     </g>
    </g>
    <g id="xtick_5">
     <g id="line2d_5">
      <g>
       <use xlink:href="#mfa6eb3434e" x="553.767148" y="395.28" style="stroke: #000000; stroke-width: 0.8"/>
      </g>
     </g>
     <g id="text_5">
      <!-- 2023-02-26 -->
      <g transform="translate(468.638121 495.213718) rotate(-45) scale(0.2 -0.2)">
       <defs>
        <path id="DejaVuSans-36" d="M 2113 2584 
Q 1688 2584 1439 2293 
Q 1191 2003 1191 1497 
Q 1191 994 1439 701 
Q 1688 409 2113 409 
Q 2538 409 2786 701 
Q 3034 994 3034 1497 
Q 3034 2003 2786 2293 
Q 2538 2584 2113 2584 
z
M 3366 4563 
L 3366 3988 
Q 3128 4100 2886 4159 
Q 2644 4219 2406 4219 
Q 1781 4219 1451 3797 
Q 1122 3375 1075 2522 
Q 1259 2794 1537 2939 
Q 1816 3084 2150 3084 
Q 2853 3084 3261 2657 
Q 3669 2231 3669 1497 
Q 3669 778 3244 343 
Q 2819 -91 2113 -91 
Q 1303 -91 875 529 
Q 447 1150 447 2328 
Q 447 3434 972 4092 
Q 1497 4750 2381 4750 
Q 2619 4750 2861 4703 
Q 3103 4656 3366 4563 
z
" transform="scale(0.015625)"/>
       </defs>
       <use xlink:href="#DejaVuSans-32"/>
       <use xlink:href="#DejaVuSans-30" x="63.623047"/>
       <use xlink:href="#DejaVuSans-32" x="127.246094"/>
       <use xlink:href="#DejaVuSans-33" x="190.869141"/>
       <use xlink:href="#DejaVuSans-2d" x="254.492188"/>
       <use xlink:href="#DejaVuSans-30" x="290.576172"/>
       <use xlink:href="#DejaVuSans-32" x="354.199219"/>
       <use xlink:href="#DejaVuSans-2d" x="417.822266"/>
       <use xlink:href="#DejaVuSans-32" x="453.90625"/>
       <use xlink:href="#DejaVuSans-36" x="517.529297"/>
      </g>
     </g>
    </g>
    <g id="xtick_6">
     <g id="line2d_6">
      <g>
       <use xlink:href="#mfa6eb3434e" x="666.440225" y="395.28" style="stroke: #000000; stroke-width: 0.8"/>
      </g>
     </g>
     <g id="text_6">
      <!-- 2023-03-12 -->
      <g transform="translate(581.311198 495.213718) rotate(-45) scale(0.2 -0.2)">
       <use xlink:href="#DejaVuSans-32"/>
       <use xlink:href="#DejaVuSans-30" x="63.623047"/>
       <use xlink:href="#DejaVuSans-32" x="127.246094"/>
       <use xlink:href="#DejaVuSans-33" x="190.869141"/>
       <use xlink:href="#DejaVuSans-2d" x="254.492188"/>
       <use xlink:href="#DejaVuSans-30" x="290.576172"/>
       <use xlink:href="#DejaVuSans-33" x="354.199219"/>
       <use xlink:href="#DejaVuSans-2d" x="417.822266"/>
       <use xlink:href="#DejaVuSans-31" x="453.90625"/>
       <use xlink:href="#DejaVuSans-32" x="517.529297"/>
      </g>
     </g>
    </g>
    <g id="xtick_7">
     <g id="line2d_7">
      <g>
       <use xlink:href="#mfa6eb3434e" x="779.113302" y="395.28" style="stroke: #000000; stroke-width: 0.8"/>
      </g>
     </g>
     <g id="text_7">
      <!-- 2023-03-26 -->
      <g transform="translate(693.984275 495.213718) rotate(-45) scale(0.2 -0.2)">
       <use xlink:href="#DejaVuSans-32"/>
       <use xlink:href="#DejaVuSans-30" x="63.623047"/>
       <use xlink:href="#DejaVuSans-32" x="127.246094"/>
       <use xlink:href="#DejaVuSans-33" x="190.869141"/>
       <use xlink:href="#DejaVuSans-2d" x="254.492188"/>
       <use xlink:href="#DejaVuSans-30" x="290.576172"/>
       <use xlink:href="#DejaVuSans-33" x="354.199219"/>
       <use xlink:href="#DejaVuSans-2d" x="417.822266"/>
       <use xlink:href="#DejaVuSans-32" x="453.90625"/>
       <use xlink:href="#DejaVuSans-36" x="517.529297"/>
      </g>
     </g>
    </g>
    <g id="xtick_8">
     <g id="line2d_8">
      <g>
       <use xlink:href="#mfa6eb3434e" x="891.786379" y="395.28" style="stroke: #000000; stroke-width: 0.8"/>
      </g>
     </g>
     <g id="text_8">
      <!-- 2023-04-09 -->
      <g transform="translate(806.657352 495.213718) rotate(-45) scale(0.2 -0.2)">
       <defs>
        <path id="DejaVuSans-34" d="M 2419 4116 
L 825 1625 
L 2419 1625 
L 2419 4116 
z
M 2253 4666 
L 3047 4666 
L 3047 1625 
L 3713 1625 
L 3713 1100 
L 3047 1100 
L 3047 0 
L 2419 0 
L 2419 1100 
L 313 1100 
L 313 1709 
L 2253 4666 
z
" transform="scale(0.015625)"/>
       </defs>
       <use xlink:href="#DejaVuSans-32"/>
       <use xlink:href="#DejaVuSans-30" x="63.623047"/>
       <use xlink:href="#DejaVuSans-32" x="127.246094"/>
       <use xlink:href="#DejaVuSans-33" x="190.869141"/>
       <use xlink:href="#DejaVuSans-2d" x="254.492188"/>
       <use xlink:href="#DejaVuSans-30" x="290.576172"/>
       <use xlink:href="#DejaVuSans-34" x="354.199219"/>
       <use xlink:href="#DejaVuSans-2d" x="417.822266"/>
       <use xlink:href="#DejaVuSans-30" x="453.90625"/>
       <use xlink:href="#DejaVuSans-39" x="517.529297"/>
      </g>
     </g>
    </g>
    <g id="xtick_9">
     <g id="line2d_9">
      <g>
       <use xlink:href="#mfa6eb3434e" x="940.074841" y="395.28" style="stroke: #000000; stroke-width: 0.8"/>
      </g>
     </g>
     <g id="text_9">
      <!-- 2023-04-15 -->
      <g transform="translate(854.945813 495.213718) rotate(-45) scale(0.2 -0.2)">
       <use xlink:href="#DejaVuSans-32"/>
       <use xlink:href="#DejaVuSans-30" x="63.623047"/>
       <use xlink:href="#DejaVuSans-32" x="127.246094"/>
       <use xlink:href="#DejaVuSans-33" x="190.869141"/>
       <use xlink:href="#DejaVuSans-2d" x="254.492188"/>
       <use xlink:href="#DejaVuSans-30" x="290.576172"/>
       <use xlink:href="#DejaVuSans-34" x="354.199219"/>
       <use xlink:href="#DejaVuSans-2d" x="417.822266"/>
       <use xlink:href="#DejaVuSans-31" x="453.90625"/>
       <use xlink:href="#DejaVuSans-35" x="517.529297"/>
      </g>
     </g>
    </g>
   </g>
   <g id="matplotlib.axis_2">
    <g id="ytick_1">
     <g id="line2d_10">
      <defs>
       <path id="m5a856256f2" d="M 0 0 
L -3.5 0 
" style="stroke: #000000; stroke-width: 0.8"/>
      </defs>
      <g>
       <use xlink:href="#m5a856256f2" x="103.074841" y="353.667176" style="stroke: #000000; stroke-width: 0.8"/>
      </g>
     </g>
     <g id="text_10">
      <!-- −0.05 -->
      <g transform="translate(34.784216 361.265614) scale(0.2 -0.2)">
       <defs>
        <path id="DejaVuSans-2212" d="M 678 2272 
L 4684 2272 
L 4684 1741 
L 678 1741 
L 678 2272 
z
" transform="scale(0.015625)"/>
        <path id="DejaVuSans-2e" d="M 684 794 
L 1344 794 
L 1344 0 
L 684 0 
L 684 794 
z
" transform="scale(0.015625)"/>
       </defs>
       <use xlink:href="#DejaVuSans-2212"/>
       <use xlink:href="#DejaVuSans-30" x="83.789062"/>
       <use xlink:href="#DejaVuSans-2e" x="147.412109"/>
       <use xlink:href="#DejaVuSans-30" x="179.199219"/>
       <use xlink:href="#DejaVuSans-35" x="242.822266"/>
      </g>
     </g>
    </g>
    <g id="ytick_2">
     <g id="line2d_11">
      <g>
       <use xlink:href="#m5a856256f2" x="103.074841" y="295.045752" style="stroke: #000000; stroke-width: 0.8"/>
      </g>
     </g>
     <g id="text_11">
      <!-- 0.00 -->
      <g transform="translate(51.543591 302.644189) scale(0.2 -0.2)">
       <use xlink:href="#DejaVuSans-30"/>
       <use xlink:href="#DejaVuSans-2e" x="63.623047"/>
       <use xlink:href="#DejaVuSans-30" x="95.410156"/>
       <use xlink:href="#DejaVuSans-30" x="159.033203"/>
      </g>
     </g>
    </g>
    <g id="ytick_3">
     <g id="line2d_12">
      <g>
       <use xlink:href="#m5a856256f2" x="103.074841" y="236.424328" style="stroke: #000000; stroke-width: 0.8"/>
      </g>
     </g>
     <g id="text_12">
      <!-- 0.05 -->
      <g transform="translate(51.543591 244.022765) scale(0.2 -0.2)">
       <use xlink:href="#DejaVuSans-30"/>
       <use xlink:href="#DejaVuSans-2e" x="63.623047"/>
       <use xlink:href="#DejaVuSans-30" x="95.410156"/>
       <use xlink:href="#DejaVuSans-35" x="159.033203"/>
      </g>
     </g>
    </g>
    <g id="ytick_4">
     <g id="line2d_13">
      <g>
       <use xlink:href="#m5a856256f2" x="103.074841" y="177.802903" style="stroke: #000000; stroke-width: 0.8"/>
      </g>
     </g>
     <g id="text_13">
      <!-- 0.10 -->
      <g transform="translate(51.543591 185.401341) scale(0.2 -0.2)">
       <use xlink:href="#DejaVuSans-30"/>
       <use xlink:href="#DejaVuSans-2e" x="63.623047"/>
       <use xlink:href="#DejaVuSans-31" x="95.410156"/>
       <use xlink:href="#DejaVuSans-30" x="159.033203"/>
      </g>
     </g>
    </g>
    <g id="ytick_5">
     <g id="line2d_14">
      <g>
       <use xlink:href="#m5a856256f2" x="103.074841" y="119.181479" style="stroke: #000000; stroke-width: 0.8"/>
      </g>
     </g>
     <g id="text_14">
      <!-- 0.15 -->
      <g transform="translate(51.543591 126.779916) scale(0.2 -0.2)">
       <use xlink:href="#DejaVuSans-30"/>
       <use xlink:href="#DejaVuSans-2e" x="63.623047"/>
       <use xlink:href="#DejaVuSans-31" x="95.410156"/>
       <use xlink:href="#DejaVuSans-35" x="159.033203"/>
      </g>
     </g>
    </g>
    <g id="ytick_6">
     <g id="line2d_15">
      <g>
       <use xlink:href="#m5a856256f2" x="103.074841" y="60.560055" style="stroke: #000000; stroke-width: 0.8"/>
      </g>
     </g>
     <g id="text_15">
      <!-- 0.20 -->
      <g transform="translate(51.543591 68.158492) scale(0.2 -0.2)">
       <use xlink:href="#DejaVuSans-30"/>
       <use xlink:href="#DejaVuSans-2e" x="63.623047"/>
       <use xlink:href="#DejaVuSans-32" x="95.410156"/>
       <use xlink:href="#DejaVuSans-30" x="159.033203"/>
      </g>
     </g>
    </g>
   </g>
   <g id="line2d_16">
    <path d="M 0 0 
" clip-path="url(#p43f55d3a8a)" style="fill: none; stroke: #ffa500; stroke-width: 1.5; stroke-linecap: square"/>
   </g>
   <g id="line2d_17">
    <path d="M 103.074841 295.045752 
L 948.274841 295.045752 
" clip-path="url(#p43f55d3a8a)" style="fill: none; stroke-dasharray: 7.4,3.2; stroke-dashoffset: 0; stroke: #000000; stroke-width: 2"/>
   </g>
   <g id="patch_3">
    <path d="M 103.074841 395.28 
L 103.074841 7.2 
" style="fill: none; stroke: #000000; stroke-width: 0.8; stroke-linejoin: miter; stroke-linecap: square"/>
   </g>
   <g id="patch_4">
    <path d="M 940.074841 395.28 
L 940.074841 7.2 
" style="fill: none; stroke: #000000; stroke-width: 0.8; stroke-linejoin: miter; stroke-linecap: square"/>
   </g>
   <g id="patch_5">
    <path d="M 103.074841 395.28 
L 940.074841 395.28 
" style="fill: none; stroke: #000000; stroke-width: 0.8; stroke-linejoin: miter; stroke-linecap: square"/>
   </g>
   <g id="patch_6">
    <path d="M 103.074841 7.2 
L 940.074841 7.2 
" style="fill: none; stroke: #000000; stroke-width: 0.8; stroke-linejoin: miter; stroke-linecap: square"/>
   </g>
  </g>
 </g>
 <defs>
  <clipPath id="p43f55d3a8a">
   <rect x="103.074841" y="7.2" width="837" height="388.08"/>
  </clipPath>
 </defs>
</svg>
