<?xml version="1.0" encoding="utf-8" standalone="no"?>
<!DOCTYPE svg PUBLIC "-//W3C//DTD SVG 1.1//EN"
  "http://www.w3.org/Graphics/SVG/1.1/DTD/svg11.dtd">
<svg xmlns:xlink="http://www.w3.org/1999/xlink" width="947.274841pt" height="506.308269pt" viewBox="0 0 947.274841 506.308269" xmlns="http://www.w3.org/2000/svg" version="1.1">
 <metadata>
  <rdf:RDF xmlns:dc="http://purl.org/dc/elements/1.1/" xmlns:cc="http://creativecommons.org/ns#" xmlns:rdf="http://www.w3.org/1999/02/22-rdf-syntax-ns#">
   <cc:Work>
    <dc:type rdf:resource="http://purl.org/dc/dcmitype/StillImage"/>
    <dc:date>2023-11-12T23:19:35.884223</dc:date>
    <dc:format>image/svg+xml</dc:format>
    <dc:creator>
     <cc:Agent>
      <dc:title>Matplotlib v3.7.2, https://matplotlib.org/</dc:title>
     </cc:Agent>
    </dc:creator>
   </cc:Work>
  </rdf:RDF>
 </metadata>
 <defs>
  <style type="text/css">*{stroke-linejoin: round; stroke-linecap: butt}</style>
 </defs>
 <g id="figure_1">
  <g id="patch_1">
   <path d="M 0 506.308269 
L 947.274841 506.308269 
L 947.274841 0 
L 0 0 
z
" style="fill: #ffffff"/>
  </g>
  <g id="axes_1">
   <g id="patch_2">
    <path d="M 103.074841 396.233428 
L 940.074841 396.233428 
L 940.074841 8.153428 
L 103.074841 8.153428 
z
" style="fill: #ffffff"/>
   </g>
   <g id="PolyCollection_1">
    <path d="M -393.000769 174.613487 
L -393.000769 174.62196 
L -390.959306 174.558966 
L -388.917842 174.513461 
L -386.876379 174.46214 
L -384.834915 174.431371 
L -382.793452 174.391431 
L -380.751989 174.34384 
L -378.710525 174.297174 
L -376.669062 174.255227 
L -374.627598 174.221634 
L -372.586135 174.179013 
L -370.544672 174.1343 
L -368.503208 174.092455 
L -366.461745 174.03635 
L -364.420281 173.993994 
L -362.378818 173.940763 
L -360.337354 173.900079 
L -358.295891 173.837226 
L -356.254428 173.790729 
L -354.212964 173.747292 
L -352.171501 173.691417 
L -350.130037 173.63843 
L -348.088574 173.58804 
L -346.047111 173.522414 
L -344.005647 173.469688 
L -341.964184 173.40412 
L -339.92272 173.338469 
L -337.881257 173.263989 
L -335.839793 173.188297 
L -333.79833 173.116934 
L -331.756867 173.029587 
L -329.715403 172.926168 
L -327.67394 172.842251 
L -325.632476 172.743874 
L -323.591013 172.627332 
L -321.54955 172.524789 
L -319.508086 172.399246 
L -317.466623 172.274502 
L -315.425159 172.147998 
L -313.383696 172.013158 
L -311.342232 171.859618 
L -309.300769 171.696114 
L -307.259306 171.523123 
L -305.217842 171.364561 
L -303.176379 171.166729 
L -301.134915 170.988709 
L -299.093452 170.795872 
L -297.051989 170.606114 
L -295.010525 170.397245 
L -292.969062 170.16699 
L -290.927598 169.965473 
L -288.886135 169.731526 
L -286.844672 169.490829 
L -284.803208 169.26073 
L -282.761745 169.035965 
L -280.720281 168.784633 
L -278.678818 168.531606 
L -276.637354 168.281548 
L -274.595891 168.019874 
L -272.554428 167.75499 
L -270.512964 167.494152 
L -268.471501 167.221445 
L -266.430037 166.949767 
L -264.388574 166.686604 
L -262.347111 166.408215 
L -260.305647 166.101313 
L -258.264184 165.81 
L -256.22272 165.521484 
L -254.181257 165.240128 
L -252.139793 164.941193 
L -250.09833 164.653253 
L -248.056867 164.358319 
L -246.015403 164.107496 
L -243.97394 163.780751 
L -241.932476 163.516945 
L -239.891013 163.211827 
L -237.84955 162.926732 
L -235.808086 162.619617 
L -233.766623 162.356051 
L -231.725159 162.03375 
L -229.683696 161.739451 
L -227.642232 161.47617 
L -225.600769 161.175091 
L -223.559306 160.896742 
L -221.517842 160.599251 
L -219.476379 160.300477 
L -217.434915 160.020151 
L -215.393452 159.746743 
L -213.351989 159.441533 
L -211.310525 159.152992 
L -209.269062 158.863487 
L -207.227598 158.580482 
L -205.186135 158.305644 
L -203.144672 158.018607 
L -201.103208 157.730393 
L -199.061745 157.490447 
L -197.020281 157.198012 
L -194.978818 156.922417 
L -192.937354 156.65218 
L -190.895891 156.380717 
L -188.854428 156.109954 
L -186.812964 155.832728 
L -184.771501 155.573353 
L -182.730037 155.296379 
L -180.688574 155.0083 
L -178.647111 154.715406 
L -176.605647 154.417856 
L -174.564184 154.146451 
L -172.52272 153.83504 
L -170.481257 153.495615 
L -168.439793 153.185345 
L -166.39833 152.851932 
L -164.356867 152.513946 
L -162.315403 152.151327 
L -160.27394 151.782379 
L -158.232476 151.450884 
L -156.191013 151.054439 
L -154.14955 150.685863 
L -152.108086 150.281381 
L -150.066623 149.923566 
L -148.025159 149.479815 
L -145.983696 149.051014 
L -143.942232 148.640146 
L -141.900769 148.221642 
L -139.859306 147.787606 
L -137.817842 147.329335 
L -135.776379 146.912233 
L -133.734915 146.413913 
L -131.693452 145.998254 
L -129.651989 145.486284 
L -127.610525 144.997362 
L -125.569062 144.526368 
L -123.527598 144.083665 
L -121.486135 143.54098 
L -119.444672 143.070291 
L -117.403208 142.426429 
L -115.361745 141.899829 
L -113.320281 141.42563 
L -111.278818 140.869977 
L -109.237354 140.300315 
L -107.195891 139.620399 
L -105.154428 139.001957 
L -103.112964 138.525221 
L -101.071501 137.651135 
L -99.030037 136.998905 
L -96.988574 136.335543 
L -94.947111 135.64907 
L -92.905647 134.842594 
L -90.864184 134.108591 
L -88.82272 133.629811 
L -86.781257 132.954181 
L -84.739793 131.679149 
L -82.69833 130.665166 
L -80.656867 130.005936 
L -78.615403 128.984927 
L -76.57394 128.202522 
L -74.532476 127.574517 
L -72.491013 126.454952 
L -70.44955 125.143815 
L -68.408086 124.369547 
L -66.366623 124.012407 
L -64.325159 122.996598 
L -62.283696 122.755686 
L -60.242232 122.142054 
L -58.200769 121.017515 
L -56.159306 121.144924 
L -54.117842 121.798127 
L -52.076379 123.079387 
L -50.034915 121.915487 
L -47.993452 124.603256 
L -45.951989 125.372022 
L -43.910525 121.96119 
L -41.869062 123.048944 
L -39.827598 124.69588 
L -37.786135 123.839272 
L -35.744672 123.707003 
L -33.703208 130.407008 
L -31.661745 139.900932 
L -29.620281 144.655415 
L -27.578818 134.367045 
L -25.537354 139.733825 
L -23.495891 146.605137 
L -21.454428 146.195713 
L -19.412964 160.217857 
L -17.371501 158.138522 
L -15.330037 153.811399 
L -13.288574 142.955105 
L -11.247111 152.979065 
L -9.205647 158.887535 
L -7.164184 156.085326 
L -5.12272 157.622886 
L -3.081257 163.044043 
L -1.039793 162.068736 
L 1.00167 157.161377 
L 3.043133 162.996388 
L 5.084597 164.210688 
L 7.12606 161.730367 
L 9.167524 165.654038 
L 11.208987 167.036676 
L 13.25045 166.512112 
L 15.291914 164.990545 
L 17.333377 166.256391 
L 19.374841 164.60599 
L 21.416304 164.581405 
L 23.457768 165.823586 
L 25.499231 164.43701 
L 27.540694 164.981541 
L 29.582158 164.932998 
L 31.623621 163.676632 
L 33.665085 163.978189 
L 35.706548 162.057616 
L 37.748011 162.259418 
L 39.789475 162.596644 
L 41.830938 162.579764 
L 43.872402 161.652587 
L 45.913865 160.825084 
L 47.955328 160.538082 
L 49.996792 159.826416 
L 52.038255 159.639996 
L 54.079719 159.407321 
L 56.121182 158.207034 
L 58.162646 158.712474 
L 60.204109 157.888512 
L 62.245572 157.37894 
L 64.287036 157.533051 
L 66.328499 156.767076 
L 68.369963 156.523819 
L 70.411426 156.72551 
L 72.452889 157.096997 
L 74.494353 155.898782 
L 76.535816 155.291682 
L 78.57728 155.326734 
L 80.618743 157.252006 
L 82.660207 157.313031 
L 84.70167 158.072047 
L 86.743133 156.169798 
L 88.784597 155.056669 
L 90.82606 155.398366 
L 92.867524 156.707762 
L 94.908987 156.928998 
L 96.95045 154.755822 
L 98.991914 156.659095 
L 101.033377 155.910106 
L 103.074841 155.829961 
L 105.116304 154.72496 
L 107.157768 155.634682 
L 109.199231 155.283931 
L 111.240694 155.969076 
L 113.282158 155.280144 
L 115.323621 154.840462 
L 117.365085 153.96686 
L 119.406548 153.679254 
L 121.448011 153.427111 
L 123.489475 152.902638 
L 125.530938 153.054175 
L 127.572402 152.607959 
L 129.613865 152.150045 
L 131.655328 150.879357 
L 133.696792 149.830945 
L 135.738255 149.449932 
L 137.779719 148.325256 
L 139.821182 148.411426 
L 141.862646 147.640785 
L 143.904109 146.2474 
L 145.945572 145.178503 
L 147.987036 144.416608 
L 150.028499 142.942363 
L 152.069963 142.283968 
L 154.111426 141.068537 
L 156.152889 140.058392 
L 158.194353 138.777049 
L 160.235816 137.438159 
L 162.27728 136.290094 
L 164.318743 135.006035 
L 166.360207 133.921502 
L 168.40167 132.311921 
L 170.443133 130.88065 
L 172.484597 129.39521 
L 174.52606 128.356597 
L 176.567524 126.8091 
L 178.608987 125.467682 
L 180.65045 123.967142 
L 182.691914 121.791047 
L 184.733377 120.809109 
L 186.774841 119.017388 
L 188.816304 117.58652 
L 190.857768 115.995418 
L 192.899231 114.159864 
L 194.940694 112.45413 
L 196.982158 110.805174 
L 199.023621 108.649391 
L 201.065085 107.254391 
L 203.106548 105.174197 
L 205.148011 103.900711 
L 207.189475 101.736201 
L 209.230938 99.634026 
L 211.272402 97.868918 
L 213.313865 96.483173 
L 215.355328 94.071479 
L 217.396792 92.473186 
L 219.438255 90.386469 
L 221.479719 88.748622 
L 223.521182 86.536488 
L 225.562646 84.598726 
L 227.604109 84.762756 
L 229.645572 80.7353 
L 231.687036 80.406543 
L 233.728499 78.237387 
L 235.769963 76.757266 
L 237.811426 74.956043 
L 239.852889 73.095212 
L 241.894353 71.344128 
L 243.935816 69.782954 
L 245.97728 68.363851 
L 248.018743 66.836018 
L 250.060207 68.633515 
L 252.10167 63.483604 
L 254.143133 62.716623 
L 256.184597 67.004336 
L 258.22606 61.223874 
L 260.267524 62.451372 
L 262.308987 62.123746 
L 264.35045 59.063966 
L 266.391914 60.021979 
L 268.433377 63.134375 
L 270.474841 61.005017 
L 272.516304 60.291188 
L 274.557768 62.556158 
L 276.599231 62.186993 
L 278.640694 63.674754 
L 280.682158 65.899691 
L 282.723621 68.738722 
L 284.765085 76.411103 
L 286.806548 74.765063 
L 288.848011 78.825626 
L 290.889475 82.012483 
L 292.930938 83.994624 
L 294.972402 88.115129 
L 297.013865 90.571861 
L 299.055328 85.899624 
L 301.096792 90.368204 
L 303.138255 96.758166 
L 305.179719 99.826618 
L 307.221182 100.520454 
L 309.262646 108.438948 
L 311.304109 108.915488 
L 313.345572 110.42385 
L 315.387036 110.336477 
L 317.428499 116.682354 
L 319.469963 114.395759 
L 321.511426 113.403763 
L 323.552889 118.173594 
L 325.594353 123.039842 
L 327.635816 121.703378 
L 329.67728 123.942413 
L 331.718743 124.704043 
L 333.760207 124.717747 
L 335.80167 124.029283 
L 337.843133 125.159928 
L 339.884597 125.701492 
L 341.92606 131.925255 
L 343.967524 129.077655 
L 346.008987 134.544414 
L 348.05045 133.623321 
L 350.091914 133.212435 
L 352.133377 135.655112 
L 354.174841 137.846698 
L 356.216304 135.790678 
L 358.257768 137.339283 
L 360.299231 137.793809 
L 362.340694 141.061843 
L 364.382158 140.081834 
L 366.423621 139.887459 
L 368.465085 141.176562 
L 370.506548 143.076492 
L 372.548011 142.943982 
L 374.589475 142.173616 
L 376.630938 143.552738 
L 378.672402 142.118791 
L 380.713865 143.001184 
L 382.755328 147.074439 
L 384.796792 147.58404 
L 386.838255 146.449456 
L 388.879719 146.745208 
L 390.921182 147.738537 
L 392.962646 146.459254 
L 395.004109 147.7902 
L 397.045572 148.653147 
L 399.087036 149.063433 
L 401.128499 149.424397 
L 403.169963 149.042922 
L 405.211426 150.701175 
L 407.252889 150.802249 
L 409.294353 151.587267 
L 411.335816 152.024396 
L 413.37728 153.115071 
L 415.418743 153.03879 
L 417.460207 152.205048 
L 419.50167 152.996274 
L 421.543133 152.451591 
L 423.584597 151.313842 
L 425.62606 153.654385 
L 427.667524 151.755838 
L 429.708987 153.781414 
L 431.75045 154.150432 
L 433.791914 155.250329 
L 435.833377 154.318665 
L 437.874841 155.027683 
L 439.916304 155.663364 
L 441.957768 154.292661 
L 443.999231 155.654875 
L 446.040694 156.229733 
L 448.082158 156.944954 
L 450.123621 156.717333 
L 452.165085 157.996247 
L 454.206548 157.706077 
L 456.248011 157.509507 
L 458.289475 156.699198 
L 460.330938 157.002868 
L 462.372402 157.439122 
L 464.413865 157.115035 
L 466.455328 158.08403 
L 468.496792 158.371723 
L 470.538255 158.218832 
L 472.579719 159.099573 
L 474.621182 158.815739 
L 476.662646 160.541442 
L 478.704109 160.609 
L 480.745572 161.481306 
L 482.787036 160.92482 
L 484.828499 159.876214 
L 486.869963 162.294675 
L 488.911426 163.063359 
L 490.952889 163.261567 
L 492.994353 163.441961 
L 495.035816 162.93311 
L 497.07728 163.461679 
L 499.118743 163.579317 
L 501.160207 164.455019 
L 503.20167 164.96124 
L 505.243133 164.492865 
L 507.284597 163.493232 
L 509.32606 166.570463 
L 511.367524 166.851453 
L 513.408987 166.127565 
L 515.45045 167.886724 
L 517.491914 165.972473 
L 519.533377 167.087584 
L 521.574841 168.05454 
L 523.616304 167.073213 
L 525.657768 170.954665 
L 527.699231 168.706286 
L 529.740694 168.013056 
L 531.782158 170.837139 
L 533.823621 172.22315 
L 535.865085 172.065543 
L 537.906548 173.690555 
L 539.948011 173.1465 
L 541.989475 176.72801 
L 544.030938 176.240925 
L 546.072402 177.684923 
L 548.113865 176.735856 
L 550.155328 176.041763 
L 552.196792 179.094571 
L 554.238255 183.711714 
L 556.279719 180.301965 
L 558.321182 181.440721 
L 560.362646 180.791611 
L 562.404109 182.349266 
L 564.445572 183.006392 
L 566.487036 182.81147 
L 568.528499 183.273572 
L 570.569963 185.86353 
L 572.611426 185.664142 
L 574.652889 187.98322 
L 576.694353 188.908134 
L 578.735816 184.751209 
L 580.77728 187.340751 
L 582.818743 188.04558 
L 584.860207 188.832023 
L 586.90167 189.627627 
L 588.943133 193.152042 
L 590.984597 194.747808 
L 593.02606 194.944197 
L 595.067524 198.628387 
L 597.108987 204.528366 
L 599.15045 198.045319 
L 601.191914 198.237276 
L 603.233377 198.646242 
L 605.274841 201.068343 
L 607.316304 201.770228 
L 609.357768 201.939125 
L 611.399231 207.40335 
L 613.440694 209.438482 
L 615.482158 203.800684 
L 617.523621 209.285732 
L 619.565085 207.040175 
L 621.606548 205.688734 
L 623.648011 212.611171 
L 625.689475 211.700674 
L 627.730938 216.548915 
L 629.772402 215.150665 
L 631.813865 212.699682 
L 633.855328 215.896451 
L 635.896792 216.309872 
L 637.938255 219.594901 
L 639.979719 218.392396 
L 642.021182 223.44495 
L 644.062646 220.448419 
L 646.104109 223.463511 
L 648.145572 223.102651 
L 650.187036 226.245908 
L 652.228499 221.970873 
L 654.269963 227.662501 
L 656.311426 227.669258 
L 658.352889 231.754108 
L 660.394353 233.404735 
L 662.435816 234.644878 
L 664.47728 233.89796 
L 666.518743 236.518179 
L 668.560207 239.493994 
L 670.60167 237.55524 
L 672.643133 237.257151 
L 674.684597 239.509463 
L 676.72606 241.932747 
L 678.767524 239.031086 
L 680.808987 237.206849 
L 682.85045 245.183187 
L 684.891914 250.013485 
L 686.933377 241.587747 
L 688.974841 244.365433 
L 691.016304 246.248516 
L 693.057768 247.019857 
L 695.099231 251.45477 
L 697.140694 251.279494 
L 699.182158 250.015442 
L 701.223621 252.048762 
L 703.265085 253.169566 
L 705.306548 248.491359 
L 707.348011 250.76263 
L 709.389475 249.595566 
L 711.430938 257.115275 
L 713.472402 265.620442 
L 715.513865 264.448573 
L 717.555328 258.051028 
L 719.596792 257.616407 
L 721.638255 258.821502 
L 723.679719 258.58909 
L 725.721182 266.108138 
L 727.762646 259.13442 
L 729.804109 267.379208 
L 731.845572 274.757054 
L 733.887036 268.883236 
L 735.928499 279.84662 
L 737.969963 272.598134 
L 740.011426 280.181435 
L 742.052889 276.339372 
L 744.094353 278.99669 
L 746.135816 284.568332 
L 748.17728 284.888693 
L 750.218743 286.634869 
L 752.260207 286.914977 
L 754.30167 287.469296 
L 756.343133 273.893168 
L 758.384597 293.115136 
L 760.42606 300.702209 
L 762.467524 294.093541 
L 764.508987 298.408364 
L 766.55045 303.229988 
L 768.591914 297.641148 
L 770.633377 305.164691 
L 772.674841 311.081817 
L 774.716304 307.935503 
L 776.757768 311.451399 
L 778.799231 313.363754 
L 780.840694 314.651855 
L 782.882158 316.760558 
L 784.923621 308.718615 
L 786.965085 325.419061 
L 789.006548 325.938378 
L 791.048011 326.233452 
L 793.089475 315.978814 
L 795.130938 330.228701 
L 797.172402 338.033229 
L 799.213865 331.435745 
L 801.255328 331.701272 
L 803.296792 344.452414 
L 805.338255 321.394109 
L 807.379719 342.730446 
L 809.421182 327.6155 
L 811.462646 349.969901 
L 813.504109 341.226988 
L 815.545572 349.827655 
L 817.587036 352.392431 
L 819.628499 354.876533 
L 821.669963 356.025772 
L 823.711426 351.4913 
L 825.752889 352.458679 
L 827.794353 357.342144 
L 829.835816 363.008754 
L 831.87728 363.331525 
L 833.918743 362.80211 
L 835.960207 368.553427 
L 838.00167 368.572171 
L 840.043133 364.456372 
L 842.084597 363.890584 
L 844.12606 374.381497 
L 846.167524 375.202441 
L 848.208987 377.288085 
L 850.25045 371.900987 
L 852.291914 359.489217 
L 854.333377 372.601538 
L 856.374841 369.073096 
L 858.416304 372.342113 
L 860.457768 376.795705 
L 862.499231 370.535601 
L 864.540694 378.491466 
L 866.582158 371.785475 
L 868.623621 371.432233 
L 870.665085 371.990947 
L 872.706548 376.692621 
L 874.748011 376.048313 
L 876.789475 374.901371 
L 878.830938 369.660485 
L 880.872402 372.303885 
L 882.913865 374.229574 
L 884.955328 371.802476 
L 886.996792 375.557077 
L 889.038255 372.246172 
L 891.079719 374.637726 
L 893.121182 378.593428 
L 895.162646 377.765604 
L 897.204109 373.479525 
L 899.245572 373.392533 
L 901.287036 372.431622 
L 903.328499 374.105622 
L 905.369963 373.837418 
L 907.411426 366.86249 
L 909.452889 371.967735 
L 911.494353 340.090642 
L 913.535816 371.501052 
L 915.57728 373.404563 
L 917.618743 368.519791 
L 919.660207 363.441567 
L 921.70167 372.438666 
L 923.743133 367.992921 
L 925.784597 360.413784 
L 927.82606 364.712114 
L 929.867524 364.504305 
L 931.908987 362.193782 
L 933.95045 366.245973 
L 935.991914 362.646522 
L 938.033377 364.113914 
L 940.074841 365.080638 
L 940.074841 179.90283 
L 940.074841 179.90283 
L 938.033377 183.494812 
L 935.991914 182.406892 
L 933.95045 184.506815 
L 931.908987 182.837335 
L 929.867524 184.494111 
L 927.82606 184.177778 
L 925.784597 185.490566 
L 923.743133 188.853434 
L 921.70167 189.947528 
L 919.660207 188.814613 
L 917.618743 189.991271 
L 915.57728 193.665348 
L 913.535816 192.533915 
L 911.494353 187.515102 
L 909.452889 194.83806 
L 907.411426 194.580708 
L 905.369963 197.006242 
L 903.328499 197.994804 
L 901.287036 198.296872 
L 899.245572 200.141223 
L 897.204109 201.007646 
L 895.162646 203.248244 
L 893.121182 204.497825 
L 891.079719 204.521658 
L 889.038255 204.642017 
L 886.996792 206.185192 
L 884.955328 205.536241 
L 882.913865 207.207626 
L 880.872402 207.876214 
L 878.830938 207.94589 
L 876.789475 210.996208 
L 874.748011 212.343612 
L 872.706548 214.128378 
L 870.665085 212.539726 
L 868.623621 213.764502 
L 866.582158 215.14606 
L 864.540694 218.369341 
L 862.499231 216.407512 
L 860.457768 219.795117 
L 858.416304 218.992217 
L 856.374841 218.852001 
L 854.333377 221.157674 
L 852.291914 217.904957 
L 850.25045 222.692243 
L 848.208987 226.267889 
L 846.167524 226.481968 
L 844.12606 227.003121 
L 842.084597 224.782523 
L 840.043133 225.429466 
L 838.00167 228.055669 
L 835.960207 228.846887 
L 833.918743 227.673833 
L 831.87728 228.683074 
L 829.835816 230.024916 
L 827.794353 227.502493 
L 825.752889 227.377833 
L 823.711426 228.203469 
L 821.669963 231.042786 
L 819.628499 231.503452 
L 817.587036 230.965467 
L 815.545572 230.827982 
L 813.504109 228.46909 
L 811.462646 232.822727 
L 809.421182 226.268851 
L 807.379719 232.367466 
L 805.338255 224.729182 
L 803.296792 234.583861 
L 801.255328 230.25132 
L 799.213865 230.654304 
L 797.172402 235.309589 
L 795.130938 232.445134 
L 793.089475 227.699109 
L 791.048011 233.060785 
L 789.006548 233.573006 
L 786.965085 234.228338 
L 784.923621 227.675594 
L 782.882158 234.355041 
L 780.840694 232.2871 
L 778.799231 232.17943 
L 776.757768 232.431711 
L 774.716304 232.239906 
L 772.674841 234.532304 
L 770.633377 232.787481 
L 768.591914 229.803203 
L 766.55045 232.513307 
L 764.508987 232.557884 
L 762.467524 229.972631 
L 760.42606 234.42659 
L 758.384597 231.409395 
L 756.343133 222.962889 
L 754.30167 230.808433 
L 752.260207 231.219067 
L 750.218743 231.729992 
L 748.17728 231.575785 
L 746.135816 232.516867 
L 744.094353 230.319114 
L 742.052889 229.555137 
L 740.011426 232.178968 
L 737.969963 229.918916 
L 735.928499 233.98289 
L 733.887036 229.22598 
L 731.845572 233.36335 
L 729.804109 229.798234 
L 727.762646 225.181249 
L 725.721182 230.75862 
L 723.679719 227.442726 
L 721.638255 227.775638 
L 719.596792 227.750065 
L 717.555328 228.703585 
L 715.513865 233.357792 
L 713.472402 234.657517 
L 711.430938 229.9294 
L 709.389475 226.121401 
L 707.348011 227.516372 
L 705.306548 226.362304 
L 703.265085 229.813282 
L 701.223621 229.866047 
L 699.182158 228.98867 
L 697.140694 230.485964 
L 695.099231 231.157135 
L 693.057768 228.642628 
L 691.016304 228.516825 
L 688.974841 227.91542 
L 686.933377 226.464709 
L 684.891914 232.339783 
L 682.85045 230.063327 
L 680.808987 223.049705 
L 678.767524 226.216723 
L 676.72606 228.757712 
L 674.684597 225.767106 
L 672.643133 223.041328 
L 670.60167 223.61033 
L 668.560207 226.598091 
L 666.518743 221.45894 
L 664.47728 219.048112 
L 662.435816 219.858272 
L 660.394353 216.315178 
L 658.352889 216.330261 
L 656.311426 210.098556 
L 654.269963 211.062141 
L 652.228499 203.575351 
L 650.187036 208.228091 
L 648.145572 204.658434 
L 646.104109 205.295854 
L 644.062646 202.538277 
L 642.021182 205.007427 
L 639.979719 198.204899 
L 637.938255 200.922741 
L 635.896792 196.278328 
L 633.855328 196.062676 
L 631.813865 192.194718 
L 629.772402 192.820763 
L 627.730938 196.21026 
L 625.689475 191.33321 
L 623.648011 191.509863 
L 621.606548 182.68732 
L 619.565085 185.57695 
L 617.523621 186.706369 
L 615.482158 179.822553 
L 613.440694 186.05585 
L 611.399231 186.020056 
L 609.357768 177.491775 
L 607.316304 177.001361 
L 605.274841 175.825268 
L 603.233377 172.371899 
L 601.191914 173.640274 
L 599.15045 172.250991 
L 597.108987 180.90638 
L 595.067524 173.868004 
L 593.02606 168.482844 
L 590.984597 167.891723 
L 588.943133 165.757871 
L 586.90167 162.076395 
L 584.860207 162.224663 
L 582.818743 159.466611 
L 580.77728 160.712527 
L 578.735816 156.892918 
L 576.694353 161.139578 
L 574.652889 160.860175 
L 572.611426 158.57363 
L 570.569963 158.599532 
L 568.528499 155.379163 
L 566.487036 155.745328 
L 564.445572 155.48997 
L 562.404109 156.77022 
L 560.362646 153.550197 
L 558.321182 155.050569 
L 556.279719 153.225246 
L 554.238255 157.318423 
L 552.196792 152.554199 
L 550.155328 149.352827 
L 548.113865 150.360006 
L 546.072402 150.203008 
L 544.030938 149.128583 
L 541.989475 151.085472 
L 539.948011 147.301193 
L 537.906548 148.313608 
L 535.865085 146.24209 
L 533.823621 145.720983 
L 531.782158 143.771397 
L 529.740694 141.435264 
L 527.699231 142.913692 
L 525.657768 145.293108 
L 523.616304 140.908183 
L 521.574841 141.935576 
L 519.533377 140.18307 
L 517.491914 140.444152 
L 515.45045 142.232786 
L 513.408987 140.474294 
L 511.367524 141.778649 
L 509.32606 141.475804 
L 507.284597 138.29092 
L 505.243133 138.948195 
L 503.20167 139.762001 
L 501.160207 139.579174 
L 499.118743 138.774654 
L 497.07728 139.08582 
L 495.035816 138.130326 
L 492.994353 139.052727 
L 490.952889 138.766297 
L 488.911426 138.404325 
L 486.869963 138.038236 
L 484.828499 134.336324 
L 482.787036 136.875467 
L 480.745572 137.463066 
L 478.704109 136.357178 
L 476.662646 135.727215 
L 474.621182 135.065453 
L 472.579719 135.30406 
L 470.538255 134.255573 
L 468.496792 134.989027 
L 466.455328 134.789144 
L 464.413865 133.767294 
L 462.372402 133.638479 
L 460.330938 133.696127 
L 458.289475 133.729329 
L 456.248011 135.563165 
L 454.206548 135.403037 
L 452.165085 135.904871 
L 450.123621 134.540378 
L 448.082158 134.94341 
L 446.040694 134.256598 
L 443.999231 133.840295 
L 441.957768 131.660067 
L 439.916304 134.396543 
L 437.874841 133.702289 
L 435.833377 133.016562 
L 433.791914 134.245642 
L 431.75045 132.959508 
L 429.708987 132.788957 
L 427.667524 130.659536 
L 425.62606 132.641466 
L 423.584597 130.476748 
L 421.543133 132.36509 
L 419.50167 133.221002 
L 417.460207 132.605352 
L 415.418743 134.005449 
L 413.37728 134.642194 
L 411.335816 133.189573 
L 409.294353 133.053161 
L 407.252889 132.044518 
L 405.211426 132.302215 
L 403.169963 130.446143 
L 401.128499 131.343233 
L 399.087036 131.632789 
L 397.045572 131.291519 
L 395.004109 130.598885 
L 392.962646 129.5961 
L 390.921182 131.065897 
L 388.879719 130.36227 
L 386.838255 130.60554 
L 384.796792 131.838752 
L 382.755328 131.460268 
L 380.713865 127.922895 
L 378.672402 127.392325 
L 376.630938 129.007332 
L 374.589475 128.183711 
L 372.548011 129.025979 
L 370.506548 129.471134 
L 368.465085 127.757365 
L 366.423621 127.41185 
L 364.382158 127.698834 
L 362.340694 128.905691 
L 360.299231 125.860123 
L 358.257768 125.917557 
L 356.216304 125.019 
L 354.174841 127.082226 
L 352.133377 125.769262 
L 350.091914 123.675312 
L 348.05045 124.327362 
L 346.008987 125.277464 
L 343.967524 120.72314 
L 341.92606 123.648554 
L 339.884597 118.568784 
L 337.843133 117.687442 
L 335.80167 116.060441 
L 333.760207 116.40384 
L 331.718743 116.237911 
L 329.67728 115.309248 
L 327.635816 112.068392 
L 325.594353 113.124329 
L 323.552889 107.037883 
L 321.511426 99.447508 
L 319.469963 101.07946 
L 317.428499 104.031166 
L 315.387036 94.868647 
L 313.345572 95.533833 
L 311.304109 92.880221 
L 309.262646 92.065993 
L 307.221182 81.011479 
L 305.179719 79.374554 
L 303.138255 75.323445 
L 301.096792 66.872562 
L 299.055328 60.172581 
L 297.013865 66.713205 
L 294.972402 62.937087 
L 292.930938 57.102112 
L 290.889475 54.585154 
L 288.848011 50.383921 
L 286.806548 44.869251 
L 284.765085 46.711651 
L 282.723621 37.248562 
L 280.682158 32.231388 
L 278.640694 29.891217 
L 276.599231 27.959977 
L 274.557768 28.793964 
L 272.516304 26.444047 
L 270.474841 28.242655 
L 268.433377 30.671535 
L 266.391914 26.28357 
L 264.35045 25.793428 
L 262.308987 29.845298 
L 260.267524 30.698439 
L 258.22606 29.052042 
L 256.184597 37.443677 
L 254.143133 31.445283 
L 252.10167 33.417548 
L 250.060207 39.813854 
L 248.018743 37.944529 
L 245.97728 40.265755 
L 243.935816 42.331893 
L 241.894353 44.777835 
L 239.852889 47.084744 
L 237.811426 49.698854 
L 235.769963 52.119077 
L 233.728499 54.080587 
L 231.687036 57.240691 
L 229.645572 57.946132 
L 227.604109 63.040835 
L 225.562646 63.137946 
L 223.521182 65.645117 
L 221.479719 68.580314 
L 219.438255 70.741659 
L 217.396792 73.546039 
L 215.355328 75.517421 
L 213.313865 78.601791 
L 211.272402 80.418967 
L 209.230938 82.790525 
L 207.189475 85.333193 
L 205.148011 88.008237 
L 203.106548 89.65308 
L 201.065085 92.280651 
L 199.023621 93.878978 
L 196.982158 96.55602 
L 194.940694 98.531865 
L 192.899231 100.720876 
L 190.857768 102.828096 
L 188.816304 104.802945 
L 186.774841 106.487066 
L 184.733377 108.690032 
L 182.691914 109.773541 
L 180.65045 112.387122 
L 178.608987 114.174375 
L 176.567524 115.625911 
L 174.52606 117.5013 
L 172.484597 119.015106 
L 170.443133 120.244035 
L 168.40167 121.978889 
L 166.360207 123.853195 
L 164.318743 125.239401 
L 162.27728 126.51402 
L 160.235816 128.16035 
L 158.194353 129.352378 
L 156.152889 130.819694 
L 154.111426 131.974709 
L 152.069963 133.295842 
L 150.028499 134.185401 
L 147.987036 135.690339 
L 145.945572 136.583242 
L 143.904109 137.788081 
L 141.862646 139.2476 
L 139.821182 140.22598 
L 137.779719 140.418219 
L 135.738255 141.561789 
L 133.696792 142.017387 
L 131.655328 143.069263 
L 129.613865 144.463222 
L 127.572402 144.983023 
L 125.530938 145.475063 
L 123.489475 145.59571 
L 121.448011 146.147481 
L 119.406548 146.559227 
L 117.365085 147.013394 
L 115.323621 147.94225 
L 113.282158 148.474922 
L 111.240694 149.14468 
L 109.199231 148.743863 
L 107.157768 149.270735 
L 105.116304 148.540051 
L 103.074841 149.584157 
L 101.033377 149.952406 
L 98.991914 150.479014 
L 96.95045 148.789204 
L 94.908987 150.997127 
L 92.867524 150.897735 
L 90.82606 149.809009 
L 88.784597 149.592895 
L 86.743133 150.79067 
L 84.70167 152.654594 
L 82.660207 152.080582 
L 80.618743 152.178598 
L 78.57728 150.510906 
L 76.535816 151.019491 
L 74.494353 151.364293 
L 72.452889 152.587153 
L 70.411426 152.407077 
L 68.369963 152.372796 
L 66.328499 152.7238 
L 64.287036 153.56362 
L 62.245572 153.745526 
L 60.204109 154.233182 
L 58.162646 155.097214 
L 56.121182 154.84209 
L 54.079719 156.051184 
L 52.038255 156.395727 
L 49.996792 156.723551 
L 47.955328 157.604973 
L 45.913865 157.982494 
L 43.872402 158.806167 
L 41.830938 159.730964 
L 39.789475 159.942279 
L 37.748011 159.781556 
L 35.706548 159.920627 
L 33.665085 161.574629 
L 31.623621 161.448522 
L 29.582158 162.665889 
L 27.540694 162.862887 
L 25.499231 162.460672 
L 23.457768 163.903956 
L 21.416304 162.841169 
L 19.374841 162.944907 
L 17.333377 164.54869 
L 15.291914 163.413714 
L 13.25045 164.877527 
L 11.208987 165.494087 
L 9.167524 164.193382 
L 7.12606 160.035364 
L 5.084597 162.689378 
L 3.043133 161.466112 
L 1.00167 154.61133 
L -1.039793 160.340807 
L -3.081257 161.356469 
L -5.12272 155.053353 
L -7.164184 153.401307 
L -9.205647 156.401337 
L -11.247111 149.703951 
L -13.288574 138.414201 
L -15.330037 150.650615 
L -17.371501 155.581231 
L -19.412964 157.829881 
L -21.454428 142.149095 
L -23.495891 142.663465 
L -25.537354 134.98147 
L -27.578818 129.08875 
L -29.620281 140.577051 
L -31.661745 135.357279 
L -33.703208 124.831564 
L -35.744672 117.409986 
L -37.786135 117.552893 
L -39.827598 118.478804 
L -41.869062 116.659399 
L -43.910525 115.440511 
L -45.951989 119.167266 
L -47.993452 118.362946 
L -50.034915 115.350352 
L -52.076379 116.61042 
L -54.117842 115.140387 
L -56.159306 114.338224 
L -58.200769 114.03908 
L -60.242232 115.271972 
L -62.283696 115.823098 
L -64.325159 115.970848 
L -66.366623 116.94835 
L -68.408086 117.211524 
L -70.44955 117.951462 
L -72.491013 119.370018 
L -74.532476 120.376139 
L -76.57394 120.987359 
L -78.615403 121.702139 
L -80.656867 122.782521 
L -82.69833 123.336248 
L -84.739793 124.376995 
L -86.781257 125.699756 
L -88.82272 126.396977 
L -90.864184 126.76032 
L -92.905647 127.505417 
L -94.947111 128.271132 
L -96.988574 128.982558 
L -99.030037 129.664835 
L -101.071501 130.318842 
L -103.112964 131.316673 
L -105.154428 131.724915 
L -107.195891 132.417306 
L -109.237354 133.146951 
L -111.278818 133.728524 
L -113.320281 134.314242 
L -115.361745 134.776316 
L -117.403208 135.29207 
L -119.444672 136.065027 
L -121.486135 136.547133 
L -123.527598 137.148142 
L -125.569062 137.60541 
L -127.610525 138.150829 
L -129.651989 138.713134 
L -131.693452 139.282924 
L -133.734915 139.748845 
L -135.776379 140.323577 
L -137.817842 140.821794 
L -139.859306 141.363842 
L -141.900769 141.860318 
L -143.942232 142.385809 
L -145.983696 142.864377 
L -148.025159 143.384998 
L -150.066623 143.956424 
L -152.108086 144.373569 
L -154.14955 144.917241 
L -156.191013 145.377859 
L -158.232476 145.924459 
L -160.27394 146.303504 
L -162.315403 146.807005 
L -164.356867 147.285633 
L -166.39833 147.738604 
L -168.439793 148.203706 
L -170.481257 148.628801 
L -172.52272 149.135907 
L -174.564184 149.58628 
L -176.605647 149.944852 
L -178.647111 150.381051 
L -180.688574 150.815715 
L -182.730037 151.247278 
L -184.771501 151.659201 
L -186.812964 152.034662 
L -188.854428 152.453236 
L -190.895891 152.859228 
L -192.937354 153.266599 
L -194.978818 153.670625 
L -197.020281 154.085027 
L -199.061745 154.516549 
L -201.103208 154.871971 
L -203.144672 155.290049 
L -205.186135 155.697591 
L -207.227598 156.082244 
L -209.269062 156.479515 
L -211.310525 156.885939 
L -213.351989 157.275375 
L -215.393452 157.687075 
L -217.434915 158.051475 
L -219.476379 158.422804 
L -221.517842 158.82033 
L -223.559306 159.198688 
L -225.600769 159.550968 
L -227.642232 159.929492 
L -229.683696 160.260037 
L -231.725159 160.618712 
L -233.766623 161.008718 
L -235.808086 161.324704 
L -237.84955 161.691116 
L -239.891013 162.029518 
L -241.932476 162.388381 
L -243.97394 162.69813 
L -246.015403 163.08145 
L -248.056867 163.371447 
L -250.09833 163.713555 
L -252.139793 164.045107 
L -254.181257 164.388505 
L -256.22272 164.707446 
L -258.264184 165.005803 
L -260.305647 165.30656 
L -262.347111 165.626976 
L -264.388574 165.915486 
L -266.430037 166.185692 
L -268.471501 166.467359 
L -270.512964 166.7541 
L -272.554428 167.028651 
L -274.595891 167.313215 
L -276.637354 167.595353 
L -278.678818 167.862401 
L -280.720281 168.13692 
L -282.761745 168.412327 
L -284.803208 168.655111 
L -286.844672 168.907066 
L -288.886135 169.178934 
L -290.927598 169.435107 
L -292.969062 169.656404 
L -295.010525 169.914919 
L -297.051989 170.146639 
L -299.093452 170.356226 
L -301.134915 170.570105 
L -303.176379 170.768084 
L -305.217842 170.993106 
L -307.259306 171.168858 
L -309.300769 171.363436 
L -311.342232 171.546508 
L -313.383696 171.714999 
L -315.425159 171.866026 
L -317.466623 172.000554 
L -319.508086 172.137261 
L -321.54955 172.275546 
L -323.591013 172.384215 
L -325.632476 172.513801 
L -327.67394 172.618879 
L -329.715403 172.705808 
L -331.756867 172.817232 
L -333.79833 172.911041 
L -335.839793 172.983614 
L -337.881257 173.065901 
L -339.92272 173.1465 
L -341.964184 173.214705 
L -344.005647 173.284409 
L -346.047111 173.337829 
L -348.088574 173.409612 
L -350.130037 173.461712 
L -352.171501 173.518704 
L -354.212964 173.580637 
L -356.254428 173.626816 
L -358.295891 173.677935 
L -360.337354 173.753511 
L -362.378818 173.800514 
L -364.420281 173.864634 
L -366.461745 173.911278 
L -368.503208 173.981294 
L -370.544672 174.032801 
L -372.586135 174.089397 
L -374.627598 174.13711 
L -376.669062 174.179163 
L -378.710525 174.231241 
L -380.751989 174.292525 
L -382.793452 174.353366 
L -384.834915 174.404434 
L -386.876379 174.441542 
L -388.917842 174.504452 
L -390.959306 174.552784 
L -393.000769 174.613487 
z
" clip-path="url(#pa6034839df)" style="fill: #008000; fill-opacity: 0.3; stroke: #008000; stroke-opacity: 0.3"/>
   </g>
   <g id="matplotlib.axis_1">
    <g id="xtick_1">
     <g id="line2d_1">
      <defs>
       <path id="m9c23bada7f" d="M 0 0 
L 0 3.5 
" style="stroke: #000000; stroke-width: 0.8"/>
      </defs>
      <g>
       <use xlink:href="#m9c23bada7f" x="103.074841" y="396.233428" style="stroke: #000000; stroke-width: 0.8"/>
      </g>
     </g>
     <g id="text_1">
      <!-- 2022-03-01 -->
      <g transform="translate(17.945813 496.167146) rotate(-45) scale(0.2 -0.2)">
       <defs>
        <path id="DejaVuSans-32" d="M 1228 531 
L 3431 531 
L 3431 0 
L 469 0 
L 469 531 
Q 828 903 1448 1529 
Q 2069 2156 2228 2338 
Q 2531 2678 2651 2914 
Q 2772 3150 2772 3378 
Q 2772 3750 2511 3984 
Q 2250 4219 1831 4219 
Q 1534 4219 1204 4116 
Q 875 4013 500 3803 
L 500 4441 
Q 881 4594 1212 4672 
Q 1544 4750 1819 4750 
Q 2544 4750 2975 4387 
Q 3406 4025 3406 3419 
Q 3406 3131 3298 2873 
Q 3191 2616 2906 2266 
Q 2828 2175 2409 1742 
Q 1991 1309 1228 531 
z
" transform="scale(0.015625)"/>
        <path id="DejaVuSans-30" d="M 2034 4250 
Q 1547 4250 1301 3770 
Q 1056 3291 1056 2328 
Q 1056 1369 1301 889 
Q 1547 409 2034 409 
Q 2525 409 2770 889 
Q 3016 1369 3016 2328 
Q 3016 3291 2770 3770 
Q 2525 4250 2034 4250 
z
M 2034 4750 
Q 2819 4750 3233 4129 
Q 3647 3509 3647 2328 
Q 3647 1150 3233 529 
Q 2819 -91 2034 -91 
Q 1250 -91 836 529 
Q 422 1150 422 2328 
Q 422 3509 836 4129 
Q 1250 4750 2034 4750 
z
" transform="scale(0.015625)"/>
        <path id="DejaVuSans-2d" d="M 313 2009 
L 1997 2009 
L 1997 1497 
L 313 1497 
L 313 2009 
z
" transform="scale(0.015625)"/>
        <path id="DejaVuSans-33" d="M 2597 2516 
Q 3050 2419 3304 2112 
Q 3559 1806 3559 1356 
Q 3559 666 3084 287 
Q 2609 -91 1734 -91 
Q 1441 -91 1130 -33 
Q 819 25 488 141 
L 488 750 
Q 750 597 1062 519 
Q 1375 441 1716 441 
Q 2309 441 2620 675 
Q 2931 909 2931 1356 
Q 2931 1769 2642 2001 
Q 2353 2234 1838 2234 
L 1294 2234 
L 1294 2753 
L 1863 2753 
Q 2328 2753 2575 2939 
Q 2822 3125 2822 3475 
Q 2822 3834 2567 4026 
Q 2313 4219 1838 4219 
Q 1578 4219 1281 4162 
Q 984 4106 628 3988 
L 628 4550 
Q 988 4650 1302 4700 
Q 1616 4750 1894 4750 
Q 2613 4750 3031 4423 
Q 3450 4097 3450 3541 
Q 3450 3153 3228 2886 
Q 3006 2619 2597 2516 
z
" transform="scale(0.015625)"/>
        <path id="DejaVuSans-31" d="M 794 531 
L 1825 531 
L 1825 4091 
L 703 3866 
L 703 4441 
L 1819 4666 
L 2450 4666 
L 2450 531 
L 3481 531 
L 3481 0 
L 794 0 
L 794 531 
z
" transform="scale(0.015625)"/>
       </defs>
       <use xlink:href="#DejaVuSans-32"/>
       <use xlink:href="#DejaVuSans-30" x="63.623047"/>
       <use xlink:href="#DejaVuSans-32" x="127.246094"/>
       <use xlink:href="#DejaVuSans-32" x="190.869141"/>
       <use xlink:href="#DejaVuSans-2d" x="254.492188"/>
       <use xlink:href="#DejaVuSans-30" x="290.576172"/>
       <use xlink:href="#DejaVuSans-33" x="354.199219"/>
       <use xlink:href="#DejaVuSans-2d" x="417.822266"/>
       <use xlink:href="#DejaVuSans-30" x="453.90625"/>
       <use xlink:href="#DejaVuSans-31" x="517.529297"/>
      </g>
     </g>
    </g>
    <g id="xtick_2">
     <g id="line2d_2">
      <g>
       <use xlink:href="#m9c23bada7f" x="160.235816" y="396.233428" style="stroke: #000000; stroke-width: 0.8"/>
      </g>
     </g>
     <g id="text_2">
      <!-- 2022-03-29 -->
      <g transform="translate(75.106789 496.167146) rotate(-45) scale(0.2 -0.2)">
       <defs>
        <path id="DejaVuSans-39" d="M 703 97 
L 703 672 
Q 941 559 1184 500 
Q 1428 441 1663 441 
Q 2288 441 2617 861 
Q 2947 1281 2994 2138 
Q 2813 1869 2534 1725 
Q 2256 1581 1919 1581 
Q 1219 1581 811 2004 
Q 403 2428 403 3163 
Q 403 3881 828 4315 
Q 1253 4750 1959 4750 
Q 2769 4750 3195 4129 
Q 3622 3509 3622 2328 
Q 3622 1225 3098 567 
Q 2575 -91 1691 -91 
Q 1453 -91 1209 -44 
Q 966 3 703 97 
z
M 1959 2075 
Q 2384 2075 2632 2365 
Q 2881 2656 2881 3163 
Q 2881 3666 2632 3958 
Q 2384 4250 1959 4250 
Q 1534 4250 1286 3958 
Q 1038 3666 1038 3163 
Q 1038 2656 1286 2365 
Q 1534 2075 1959 2075 
z
" transform="scale(0.015625)"/>
       </defs>
       <use xlink:href="#DejaVuSans-32"/>
       <use xlink:href="#DejaVuSans-30" x="63.623047"/>
       <use xlink:href="#DejaVuSans-32" x="127.246094"/>
       <use xlink:href="#DejaVuSans-32" x="190.869141"/>
       <use xlink:href="#DejaVuSans-2d" x="254.492188"/>
       <use xlink:href="#DejaVuSans-30" x="290.576172"/>
       <use xlink:href="#DejaVuSans-33" x="354.199219"/>
       <use xlink:href="#DejaVuSans-2d" x="417.822266"/>
       <use xlink:href="#DejaVuSans-32" x="453.90625"/>
       <use xlink:href="#DejaVuSans-39" x="517.529297"/>
      </g>
     </g>
    </g>
    <g id="xtick_3">
     <g id="line2d_3">
      <g>
       <use xlink:href="#m9c23bada7f" x="217.396792" y="396.233428" style="stroke: #000000; stroke-width: 0.8"/>
      </g>
     </g>
     <g id="text_3">
      <!-- 2022-04-26 -->
      <g transform="translate(132.267765 496.167146) rotate(-45) scale(0.2 -0.2)">
       <defs>
        <path id="DejaVuSans-34" d="M 2419 4116 
L 825 1625 
L 2419 1625 
L 2419 4116 
z
M 2253 4666 
L 3047 4666 
L 3047 1625 
L 3713 1625 
L 3713 1100 
L 3047 1100 
L 3047 0 
L 2419 0 
L 2419 1100 
L 313 1100 
L 313 1709 
L 2253 4666 
z
" transform="scale(0.015625)"/>
        <path id="DejaVuSans-36" d="M 2113 2584 
Q 1688 2584 1439 2293 
Q 1191 2003 1191 1497 
Q 1191 994 1439 701 
Q 1688 409 2113 409 
Q 2538 409 2786 701 
Q 3034 994 3034 1497 
Q 3034 2003 2786 2293 
Q 2538 2584 2113 2584 
z
M 3366 4563 
L 3366 3988 
Q 3128 4100 2886 4159 
Q 2644 4219 2406 4219 
Q 1781 4219 1451 3797 
Q 1122 3375 1075 2522 
Q 1259 2794 1537 2939 
Q 1816 3084 2150 3084 
Q 2853 3084 3261 2657 
Q 3669 2231 3669 1497 
Q 3669 778 3244 343 
Q 2819 -91 2113 -91 
Q 1303 -91 875 529 
Q 447 1150 447 2328 
Q 447 3434 972 4092 
Q 1497 4750 2381 4750 
Q 2619 4750 2861 4703 
Q 3103 4656 3366 4563 
z
" transform="scale(0.015625)"/>
       </defs>
       <use xlink:href="#DejaVuSans-32"/>
       <use xlink:href="#DejaVuSans-30" x="63.623047"/>
       <use xlink:href="#DejaVuSans-32" x="127.246094"/>
       <use xlink:href="#DejaVuSans-32" x="190.869141"/>
       <use xlink:href="#DejaVuSans-2d" x="254.492188"/>
       <use xlink:href="#DejaVuSans-30" x="290.576172"/>
       <use xlink:href="#DejaVuSans-34" x="354.199219"/>
       <use xlink:href="#DejaVuSans-2d" x="417.822266"/>
       <use xlink:href="#DejaVuSans-32" x="453.90625"/>
       <use xlink:href="#DejaVuSans-36" x="517.529297"/>
      </g>
     </g>
    </g>
    <g id="xtick_4">
     <g id="line2d_4">
      <g>
       <use xlink:href="#m9c23bada7f" x="274.557768" y="396.233428" style="stroke: #000000; stroke-width: 0.8"/>
      </g>
     </g>
     <g id="text_4">
      <!-- 2022-05-24 -->
      <g transform="translate(189.42874 496.167146) rotate(-45) scale(0.2 -0.2)">
       <defs>
        <path id="DejaVuSans-35" d="M 691 4666 
L 3169 4666 
L 3169 4134 
L 1269 4134 
L 1269 2991 
Q 1406 3038 1543 3061 
Q 1681 3084 1819 3084 
Q 2600 3084 3056 2656 
Q 3513 2228 3513 1497 
Q 3513 744 3044 326 
Q 2575 -91 1722 -91 
Q 1428 -91 1123 -41 
Q 819 9 494 109 
L 494 744 
Q 775 591 1075 516 
Q 1375 441 1709 441 
Q 2250 441 2565 725 
Q 2881 1009 2881 1497 
Q 2881 1984 2565 2268 
Q 2250 2553 1709 2553 
Q 1456 2553 1204 2497 
Q 953 2441 691 2322 
L 691 4666 
z
" transform="scale(0.015625)"/>
       </defs>
       <use xlink:href="#DejaVuSans-32"/>
       <use xlink:href="#DejaVuSans-30" x="63.623047"/>
       <use xlink:href="#DejaVuSans-32" x="127.246094"/>
       <use xlink:href="#DejaVuSans-32" x="190.869141"/>
       <use xlink:href="#DejaVuSans-2d" x="254.492188"/>
       <use xlink:href="#DejaVuSans-30" x="290.576172"/>
       <use xlink:href="#DejaVuSans-35" x="354.199219"/>
       <use xlink:href="#DejaVuSans-2d" x="417.822266"/>
       <use xlink:href="#DejaVuSans-32" x="453.90625"/>
       <use xlink:href="#DejaVuSans-34" x="517.529297"/>
      </g>
     </g>
    </g>
    <g id="xtick_5">
     <g id="line2d_5">
      <g>
       <use xlink:href="#m9c23bada7f" x="331.718743" y="396.233428" style="stroke: #000000; stroke-width: 0.8"/>
      </g>
     </g>
     <g id="text_5">
      <!-- 2022-06-21 -->
      <g transform="translate(246.589716 496.167146) rotate(-45) scale(0.2 -0.2)">
       <use xlink:href="#DejaVuSans-32"/>
       <use xlink:href="#DejaVuSans-30" x="63.623047"/>
       <use xlink:href="#DejaVuSans-32" x="127.246094"/>
       <use xlink:href="#DejaVuSans-32" x="190.869141"/>
       <use xlink:href="#DejaVuSans-2d" x="254.492188"/>
       <use xlink:href="#DejaVuSans-30" x="290.576172"/>
       <use xlink:href="#DejaVuSans-36" x="354.199219"/>
       <use xlink:href="#DejaVuSans-2d" x="417.822266"/>
       <use xlink:href="#DejaVuSans-32" x="453.90625"/>
       <use xlink:href="#DejaVuSans-31" x="517.529297"/>
      </g>
     </g>
    </g>
    <g id="xtick_6">
     <g id="line2d_6">
      <g>
       <use xlink:href="#m9c23bada7f" x="388.879719" y="396.233428" style="stroke: #000000; stroke-width: 0.8"/>
      </g>
     </g>
     <g id="text_6">
      <!-- 2022-07-19 -->
      <g transform="translate(303.750691 496.167146) rotate(-45) scale(0.2 -0.2)">
       <defs>
        <path id="DejaVuSans-37" d="M 525 4666 
L 3525 4666 
L 3525 4397 
L 1831 0 
L 1172 0 
L 2766 4134 
L 525 4134 
L 525 4666 
z
" transform="scale(0.015625)"/>
       </defs>
       <use xlink:href="#DejaVuSans-32"/>
       <use xlink:href="#DejaVuSans-30" x="63.623047"/>
       <use xlink:href="#DejaVuSans-32" x="127.246094"/>
       <use xlink:href="#DejaVuSans-32" x="190.869141"/>
       <use xlink:href="#DejaVuSans-2d" x="254.492188"/>
       <use xlink:href="#DejaVuSans-30" x="290.576172"/>
       <use xlink:href="#DejaVuSans-37" x="354.199219"/>
       <use xlink:href="#DejaVuSans-2d" x="417.822266"/>
       <use xlink:href="#DejaVuSans-31" x="453.90625"/>
       <use xlink:href="#DejaVuSans-39" x="517.529297"/>
      </g>
     </g>
    </g>
    <g id="xtick_7">
     <g id="line2d_7">
      <g>
       <use xlink:href="#m9c23bada7f" x="446.040694" y="396.233428" style="stroke: #000000; stroke-width: 0.8"/>
      </g>
     </g>
     <g id="text_7">
      <!-- 2022-08-16 -->
      <g transform="translate(360.911667 496.167146) rotate(-45) scale(0.2 -0.2)">
       <defs>
        <path id="DejaVuSans-38" d="M 2034 2216 
Q 1584 2216 1326 1975 
Q 1069 1734 1069 1313 
Q 1069 891 1326 650 
Q 1584 409 2034 409 
Q 2484 409 2743 651 
Q 3003 894 3003 1313 
Q 3003 1734 2745 1975 
Q 2488 2216 2034 2216 
z
M 1403 2484 
Q 997 2584 770 2862 
Q 544 3141 544 3541 
Q 544 4100 942 4425 
Q 1341 4750 2034 4750 
Q 2731 4750 3128 4425 
Q 3525 4100 3525 3541 
Q 3525 3141 3298 2862 
Q 3072 2584 2669 2484 
Q 3125 2378 3379 2068 
Q 3634 1759 3634 1313 
Q 3634 634 3220 271 
Q 2806 -91 2034 -91 
Q 1263 -91 848 271 
Q 434 634 434 1313 
Q 434 1759 690 2068 
Q 947 2378 1403 2484 
z
M 1172 3481 
Q 1172 3119 1398 2916 
Q 1625 2713 2034 2713 
Q 2441 2713 2670 2916 
Q 2900 3119 2900 3481 
Q 2900 3844 2670 4047 
Q 2441 4250 2034 4250 
Q 1625 4250 1398 4047 
Q 1172 3844 1172 3481 
z
" transform="scale(0.015625)"/>
       </defs>
       <use xlink:href="#DejaVuSans-32"/>
       <use xlink:href="#DejaVuSans-30" x="63.623047"/>
       <use xlink:href="#DejaVuSans-32" x="127.246094"/>
       <use xlink:href="#DejaVuSans-32" x="190.869141"/>
       <use xlink:href="#DejaVuSans-2d" x="254.492188"/>
       <use xlink:href="#DejaVuSans-30" x="290.576172"/>
       <use xlink:href="#DejaVuSans-38" x="354.199219"/>
       <use xlink:href="#DejaVuSans-2d" x="417.822266"/>
       <use xlink:href="#DejaVuSans-31" x="453.90625"/>
       <use xlink:href="#DejaVuSans-36" x="517.529297"/>
      </g>
     </g>
    </g>
    <g id="xtick_8">
     <g id="line2d_8">
      <g>
       <use xlink:href="#m9c23bada7f" x="503.20167" y="396.233428" style="stroke: #000000; stroke-width: 0.8"/>
      </g>
     </g>
     <g id="text_8">
      <!-- 2022-09-13 -->
      <g transform="translate(418.072643 496.167146) rotate(-45) scale(0.2 -0.2)">
       <use xlink:href="#DejaVuSans-32"/>
       <use xlink:href="#DejaVuSans-30" x="63.623047"/>
       <use xlink:href="#DejaVuSans-32" x="127.246094"/>
       <use xlink:href="#DejaVuSans-32" x="190.869141"/>
       <use xlink:href="#DejaVuSans-2d" x="254.492188"/>
       <use xlink:href="#DejaVuSans-30" x="290.576172"/>
       <use xlink:href="#DejaVuSans-39" x="354.199219"/>
       <use xlink:href="#DejaVuSans-2d" x="417.822266"/>
       <use xlink:href="#DejaVuSans-31" x="453.90625"/>
       <use xlink:href="#DejaVuSans-33" x="517.529297"/>
      </g>
     </g>
    </g>
    <g id="xtick_9">
     <g id="line2d_9">
      <g>
       <use xlink:href="#m9c23bada7f" x="560.362646" y="396.233428" style="stroke: #000000; stroke-width: 0.8"/>
      </g>
     </g>
     <g id="text_9">
      <!-- 2022-10-11 -->
      <g transform="translate(475.233618 496.167146) rotate(-45) scale(0.2 -0.2)">
       <use xlink:href="#DejaVuSans-32"/>
       <use xlink:href="#DejaVuSans-30" x="63.623047"/>
       <use xlink:href="#DejaVuSans-32" x="127.246094"/>
       <use xlink:href="#DejaVuSans-32" x="190.869141"/>
       <use xlink:href="#DejaVuSans-2d" x="254.492188"/>
       <use xlink:href="#DejaVuSans-31" x="290.576172"/>
       <use xlink:href="#DejaVuSans-30" x="354.199219"/>
       <use xlink:href="#DejaVuSans-2d" x="417.822266"/>
       <use xlink:href="#DejaVuSans-31" x="453.90625"/>
       <use xlink:href="#DejaVuSans-31" x="517.529297"/>
      </g>
     </g>
    </g>
    <g id="xtick_10">
     <g id="line2d_10">
      <g>
       <use xlink:href="#m9c23bada7f" x="617.523621" y="396.233428" style="stroke: #000000; stroke-width: 0.8"/>
      </g>
     </g>
     <g id="text_10">
      <!-- 2022-11-08 -->
      <g transform="translate(532.394594 496.167146) rotate(-45) scale(0.2 -0.2)">
       <use xlink:href="#DejaVuSans-32"/>
       <use xlink:href="#DejaVuSans-30" x="63.623047"/>
       <use xlink:href="#DejaVuSans-32" x="127.246094"/>
       <use xlink:href="#DejaVuSans-32" x="190.869141"/>
       <use xlink:href="#DejaVuSans-2d" x="254.492188"/>
       <use xlink:href="#DejaVuSans-31" x="290.576172"/>
       <use xlink:href="#DejaVuSans-31" x="354.199219"/>
       <use xlink:href="#DejaVuSans-2d" x="417.822266"/>
       <use xlink:href="#DejaVuSans-30" x="453.90625"/>
       <use xlink:href="#DejaVuSans-38" x="517.529297"/>
      </g>
     </g>
    </g>
    <g id="xtick_11">
     <g id="line2d_11">
      <g>
       <use xlink:href="#m9c23bada7f" x="674.684597" y="396.233428" style="stroke: #000000; stroke-width: 0.8"/>
      </g>
     </g>
     <g id="text_11">
      <!-- 2022-12-06 -->
      <g transform="translate(589.555569 496.167146) rotate(-45) scale(0.2 -0.2)">
       <use xlink:href="#DejaVuSans-32"/>
       <use xlink:href="#DejaVuSans-30" x="63.623047"/>
       <use xlink:href="#DejaVuSans-32" x="127.246094"/>
       <use xlink:href="#DejaVuSans-32" x="190.869141"/>
       <use xlink:href="#DejaVuSans-2d" x="254.492188"/>
       <use xlink:href="#DejaVuSans-31" x="290.576172"/>
       <use xlink:href="#DejaVuSans-32" x="354.199219"/>
       <use xlink:href="#DejaVuSans-2d" x="417.822266"/>
       <use xlink:href="#DejaVuSans-30" x="453.90625"/>
       <use xlink:href="#DejaVuSans-36" x="517.529297"/>
      </g>
     </g>
    </g>
    <g id="xtick_12">
     <g id="line2d_12">
      <g>
       <use xlink:href="#m9c23bada7f" x="731.845572" y="396.233428" style="stroke: #000000; stroke-width: 0.8"/>
      </g>
     </g>
     <g id="text_12">
      <!-- 2023-01-03 -->
      <g transform="translate(646.716545 496.167146) rotate(-45) scale(0.2 -0.2)">
       <use xlink:href="#DejaVuSans-32"/>
       <use xlink:href="#DejaVuSans-30" x="63.623047"/>
       <use xlink:href="#DejaVuSans-32" x="127.246094"/>
       <use xlink:href="#DejaVuSans-33" x="190.869141"/>
       <use xlink:href="#DejaVuSans-2d" x="254.492188"/>
       <use xlink:href="#DejaVuSans-30" x="290.576172"/>
       <use xlink:href="#DejaVuSans-31" x="354.199219"/>
       <use xlink:href="#DejaVuSans-2d" x="417.822266"/>
       <use xlink:href="#DejaVuSans-30" x="453.90625"/>
       <use xlink:href="#DejaVuSans-33" x="517.529297"/>
      </g>
     </g>
    </g>
    <g id="xtick_13">
     <g id="line2d_13">
      <g>
       <use xlink:href="#m9c23bada7f" x="789.006548" y="396.233428" style="stroke: #000000; stroke-width: 0.8"/>
      </g>
     </g>
     <g id="text_13">
      <!-- 2023-01-31 -->
      <g transform="translate(703.877521 496.167146) rotate(-45) scale(0.2 -0.2)">
       <use xlink:href="#DejaVuSans-32"/>
       <use xlink:href="#DejaVuSans-30" x="63.623047"/>
       <use xlink:href="#DejaVuSans-32" x="127.246094"/>
       <use xlink:href="#DejaVuSans-33" x="190.869141"/>
       <use xlink:href="#DejaVuSans-2d" x="254.492188"/>
       <use xlink:href="#DejaVuSans-30" x="290.576172"/>
       <use xlink:href="#DejaVuSans-31" x="354.199219"/>
       <use xlink:href="#DejaVuSans-2d" x="417.822266"/>
       <use xlink:href="#DejaVuSans-33" x="453.90625"/>
       <use xlink:href="#DejaVuSans-31" x="517.529297"/>
      </g>
     </g>
    </g>
    <g id="xtick_14">
     <g id="line2d_14">
      <g>
       <use xlink:href="#m9c23bada7f" x="846.167524" y="396.233428" style="stroke: #000000; stroke-width: 0.8"/>
      </g>
     </g>
     <g id="text_14">
      <!-- 2023-02-28 -->
      <g transform="translate(761.038496 496.167146) rotate(-45) scale(0.2 -0.2)">
       <use xlink:href="#DejaVuSans-32"/>
       <use xlink:href="#DejaVuSans-30" x="63.623047"/>
       <use xlink:href="#DejaVuSans-32" x="127.246094"/>
       <use xlink:href="#DejaVuSans-33" x="190.869141"/>
       <use xlink:href="#DejaVuSans-2d" x="254.492188"/>
       <use xlink:href="#DejaVuSans-30" x="290.576172"/>
       <use xlink:href="#DejaVuSans-32" x="354.199219"/>
       <use xlink:href="#DejaVuSans-2d" x="417.822266"/>
       <use xlink:href="#DejaVuSans-32" x="453.90625"/>
       <use xlink:href="#DejaVuSans-38" x="517.529297"/>
      </g>
     </g>
    </g>
    <g id="xtick_15">
     <g id="line2d_15">
      <g>
       <use xlink:href="#m9c23bada7f" x="903.328499" y="396.233428" style="stroke: #000000; stroke-width: 0.8"/>
      </g>
     </g>
     <g id="text_15">
      <!-- 2023-03-28 -->
      <g transform="translate(818.199472 496.167146) rotate(-45) scale(0.2 -0.2)">
       <use xlink:href="#DejaVuSans-32"/>
       <use xlink:href="#DejaVuSans-30" x="63.623047"/>
       <use xlink:href="#DejaVuSans-32" x="127.246094"/>
       <use xlink:href="#DejaVuSans-33" x="190.869141"/>
       <use xlink:href="#DejaVuSans-2d" x="254.492188"/>
       <use xlink:href="#DejaVuSans-30" x="290.576172"/>
       <use xlink:href="#DejaVuSans-33" x="354.199219"/>
       <use xlink:href="#DejaVuSans-2d" x="417.822266"/>
       <use xlink:href="#DejaVuSans-32" x="453.90625"/>
       <use xlink:href="#DejaVuSans-38" x="517.529297"/>
      </g>
     </g>
    </g>
    <g id="xtick_16">
     <g id="line2d_16">
      <g>
       <use xlink:href="#m9c23bada7f" x="940.074841" y="396.233428" style="stroke: #000000; stroke-width: 0.8"/>
      </g>
     </g>
     <g id="text_16">
      <!-- 2023-04-15 -->
      <g transform="translate(854.945813 496.167146) rotate(-45) scale(0.2 -0.2)">
       <use xlink:href="#DejaVuSans-32"/>
       <use xlink:href="#DejaVuSans-30" x="63.623047"/>
       <use xlink:href="#DejaVuSans-32" x="127.246094"/>
       <use xlink:href="#DejaVuSans-33" x="190.869141"/>
       <use xlink:href="#DejaVuSans-2d" x="254.492188"/>
       <use xlink:href="#DejaVuSans-30" x="290.576172"/>
       <use xlink:href="#DejaVuSans-34" x="354.199219"/>
       <use xlink:href="#DejaVuSans-2d" x="417.822266"/>
       <use xlink:href="#DejaVuSans-31" x="453.90625"/>
       <use xlink:href="#DejaVuSans-35" x="517.529297"/>
      </g>
     </g>
    </g>
   </g>
   <g id="matplotlib.axis_2">
    <g id="ytick_1">
     <g id="line2d_17">
      <defs>
       <path id="me78c8a5040" d="M 0 0 
L -3.5 0 
" style="stroke: #000000; stroke-width: 0.8"/>
      </defs>
      <g>
       <use xlink:href="#me78c8a5040" x="103.074841" y="387.838522" style="stroke: #000000; stroke-width: 0.8"/>
      </g>
     </g>
     <g id="text_17">
      <!-- 0.20 -->
      <g transform="translate(34.784216 395.436959) scale(0.2 -0.2)">
       <defs>
        <path id="DejaVuSans-2212" d="M 678 2272 
L 4684 2272 
L 4684 1741 
L 678 1741 
L 678 2272 
z
" transform="scale(0.015625)"/>
        <path id="DejaVuSans-2e" d="M 684 794 
L 1344 794 
L 1344 0 
L 684 0 
L 684 794 
z
" transform="scale(0.015625)"/>
       </defs>
       <use xlink:href="#DejaVuSans-2212"/>
       <use xlink:href="#DejaVuSans-30" x="83.789062"/>
       <use xlink:href="#DejaVuSans-2e" x="147.412109"/>
       <use xlink:href="#DejaVuSans-32" x="179.199219"/>
       <use xlink:href="#DejaVuSans-30" x="242.822266"/>
      </g>
     </g>
    </g>
    <g id="ytick_2">
     <g id="line2d_18">
      <g>
       <use xlink:href="#me78c8a5040" x="103.074841" y="334.547081" style="stroke: #000000; stroke-width: 0.8"/>
      </g>
     </g>
     <g id="text_18">
      <!-- 0.15 -->
      <g transform="translate(34.784216 342.145519) scale(0.2 -0.2)">
       <use xlink:href="#DejaVuSans-2212"/>
       <use xlink:href="#DejaVuSans-30" x="83.789062"/>
       <use xlink:href="#DejaVuSans-2e" x="147.412109"/>
       <use xlink:href="#DejaVuSans-31" x="179.199219"/>
       <use xlink:href="#DejaVuSans-35" x="242.822266"/>
      </g>
     </g>
    </g>
    <g id="ytick_3">
     <g id="line2d_19">
      <g>
       <use xlink:href="#me78c8a5040" x="103.074841" y="281.255641" style="stroke: #000000; stroke-width: 0.8"/>
      </g>
     </g>
     <g id="text_19">
      <!-- 0.10 -->
      <g transform="translate(34.784216 288.854078) scale(0.2 -0.2)">
       <use xlink:href="#DejaVuSans-2212"/>
       <use xlink:href="#DejaVuSans-30" x="83.789062"/>
       <use xlink:href="#DejaVuSans-2e" x="147.412109"/>
       <use xlink:href="#DejaVuSans-31" x="179.199219"/>
       <use xlink:href="#DejaVuSans-30" x="242.822266"/>
      </g>
     </g>
    </g>
    <g id="ytick_4">
     <g id="line2d_20">
      <g>
       <use xlink:href="#me78c8a5040" x="103.074841" y="227.9642" style="stroke: #000000; stroke-width: 0.8"/>
      </g>
     </g>
     <g id="text_20">
      <!-- 0.05 -->
      <g transform="translate(34.784216 235.562637) scale(0.2 -0.2)">
       <use xlink:href="#DejaVuSans-2212"/>
       <use xlink:href="#DejaVuSans-30" x="83.789062"/>
       <use xlink:href="#DejaVuSans-2e" x="147.412109"/>
       <use xlink:href="#DejaVuSans-30" x="179.199219"/>
       <use xlink:href="#DejaVuSans-35" x="242.822266"/>
      </g>
     </g>
    </g>
    <g id="ytick_5">
     <g id="line2d_21">
      <g>
       <use xlink:href="#me78c8a5040" x="103.074841" y="174.672759" style="stroke: #000000; stroke-width: 0.8"/>
      </g>
     </g>
     <g id="text_21">
      <!-- 0.00 -->
      <g transform="translate(51.543591 182.271197) scale(0.2 -0.2)">
       <use xlink:href="#DejaVuSans-30"/>
       <use xlink:href="#DejaVuSans-2e" x="63.623047"/>
       <use xlink:href="#DejaVuSans-30" x="95.410156"/>
       <use xlink:href="#DejaVuSans-30" x="159.033203"/>
      </g>
     </g>
    </g>
    <g id="ytick_6">
     <g id="line2d_22">
      <g>
       <use xlink:href="#me78c8a5040" x="103.074841" y="121.381319" style="stroke: #000000; stroke-width: 0.8"/>
      </g>
     </g>
     <g id="text_22">
      <!-- 0.05 -->
      <g transform="translate(51.543591 128.979756) scale(0.2 -0.2)">
       <use xlink:href="#DejaVuSans-30"/>
       <use xlink:href="#DejaVuSans-2e" x="63.623047"/>
       <use xlink:href="#DejaVuSans-30" x="95.410156"/>
       <use xlink:href="#DejaVuSans-35" x="159.033203"/>
      </g>
     </g>
    </g>
    <g id="ytick_7">
     <g id="line2d_23">
      <g>
       <use xlink:href="#me78c8a5040" x="103.074841" y="68.089878" style="stroke: #000000; stroke-width: 0.8"/>
      </g>
     </g>
     <g id="text_23">
      <!-- 0.10 -->
      <g transform="translate(51.543591 75.688316) scale(0.2 -0.2)">
       <use xlink:href="#DejaVuSans-30"/>
       <use xlink:href="#DejaVuSans-2e" x="63.623047"/>
       <use xlink:href="#DejaVuSans-31" x="95.410156"/>
       <use xlink:href="#DejaVuSans-30" x="159.033203"/>
      </g>
     </g>
    </g>
    <g id="ytick_8">
     <g id="line2d_24">
      <g>
       <use xlink:href="#me78c8a5040" x="103.074841" y="14.798437" style="stroke: #000000; stroke-width: 0.8"/>
      </g>
     </g>
     <g id="text_24">
      <!-- 0.15 -->
      <g transform="translate(51.543591 22.396875) scale(0.2 -0.2)">
       <use xlink:href="#DejaVuSans-30"/>
       <use xlink:href="#DejaVuSans-2e" x="63.623047"/>
       <use xlink:href="#DejaVuSans-31" x="95.410156"/>
       <use xlink:href="#DejaVuSans-35" x="159.033203"/>
      </g>
     </g>
    </g>
   </g>
   <g id="line2d_25">
    <path d="M 511.367524 163.912401 
L 513.408987 163.912401 
L 515.45045 222.588645 
L 517.491914 222.588645 
M 564.445572 30.676513 
L 570.569963 30.676513 
L 572.611426 101.835375 
L 574.652889 80.689798 
L 580.77728 80.689798 
L 582.818743 187.353893 
L 584.860207 187.353893 
L 586.90167 158.369817 
L 588.943133 184.020259 
L 593.02606 184.020259 
L 595.067524 169.333989 
L 601.191914 169.333989 
L 603.233377 189.183789 
L 605.274841 213.583243 
L 611.399231 213.583243 
L 613.440694 182.859582 
L 615.482158 146.200193 
L 617.523621 199.861947 
L 619.565085 186.740219 
L 621.606548 186.740219 
L 623.648011 123.176407 
L 625.689475 82.542971 
L 631.813865 82.542971 
L 633.855328 61.747677 
L 635.896792 69.912468 
L 644.062646 69.912468 
L 646.104109 121.395498 
L 648.145572 82.831698 
L 652.228499 82.831698 
L 656.311426 266.281168 
L 664.47728 266.281168 
L 666.518743 254.8625 
L 674.684597 254.8625 
L 676.72606 240.038859 
M 725.721182 174.375243 
L 729.804109 174.375243 
L 729.804109 174.375243 
" clip-path="url(#pa6034839df)" style="fill: none; stroke: #ffa500; stroke-width: 1.5; stroke-linecap: square"/>
   </g>
   <g id="line2d_26">
    <path d="M 103.074841 174.672759 
L 948.274841 174.672759 
" clip-path="url(#pa6034839df)" style="fill: none; stroke-dasharray: 7.4,3.2; stroke-dashoffset: 0; stroke: #000000; stroke-width: 2"/>
   </g>
   <g id="patch_3">
    <path d="M 103.074841 396.233428 
L 103.074841 8.153428 
" style="fill: none; stroke: #000000; stroke-width: 0.8; stroke-linejoin: miter; stroke-linecap: square"/>
   </g>
   <g id="patch_4">
    <path d="M 940.074841 396.233428 
L 940.074841 8.153428 
" style="fill: none; stroke: #000000; stroke-width: 0.8; stroke-linejoin: miter; stroke-linecap: square"/>
   </g>
   <g id="patch_5">
    <path d="M 103.074841 396.233428 
L 940.074841 396.233428 
" style="fill: none; stroke: #000000; stroke-width: 0.8; stroke-linejoin: miter; stroke-linecap: square"/>
   </g>
   <g id="patch_6">
    <path d="M 103.074841 8.153428 
L 940.074841 8.153428 
" style="fill: none; stroke: #000000; stroke-width: 0.8; stroke-linejoin: miter; stroke-linecap: square"/>
   </g>
  </g>
 </g>
 <defs>
  <clipPath id="pa6034839df">
   <rect x="103.074841" y="8.153428" width="837" height="388.08"/>
  </clipPath>
 </defs>
</svg>
