<?xml version="1.0" encoding="utf-8" standalone="no"?>
<!DOCTYPE svg PUBLIC "-//W3C//DTD SVG 1.1//EN"
  "http://www.w3.org/Graphics/SVG/1.1/DTD/svg11.dtd">
<svg xmlns:xlink="http://www.w3.org/1999/xlink" width="947.274841pt" height="505.354841pt" viewBox="0 0 947.274841 505.354841" xmlns="http://www.w3.org/2000/svg" version="1.1">
 <metadata>
  <rdf:RDF xmlns:dc="http://purl.org/dc/elements/1.1/" xmlns:cc="http://creativecommons.org/ns#" xmlns:rdf="http://www.w3.org/1999/02/22-rdf-syntax-ns#">
   <cc:Work>
    <dc:type rdf:resource="http://purl.org/dc/dcmitype/StillImage"/>
    <dc:date>2023-11-15T18:16:32.638328</dc:date>
    <dc:format>image/svg+xml</dc:format>
    <dc:creator>
     <cc:Agent>
      <dc:title>Matplotlib v3.7.2, https://matplotlib.org/</dc:title>
     </cc:Agent>
    </dc:creator>
   </cc:Work>
  </rdf:RDF>
 </metadata>
 <defs>
  <style type="text/css">*{stroke-linejoin: round; stroke-linecap: butt}</style>
 </defs>
 <g id="figure_1">
  <g id="patch_1">
   <path d="M 0 505.354841 
L 947.274841 505.354841 
L 947.274841 -0 
L 0 -0 
z
" style="fill: #ffffff"/>
  </g>
  <g id="axes_1">
   <g id="patch_2">
    <path d="M 103.074841 395.28 
L 940.074841 395.28 
L 940.074841 7.2 
L 103.074841 7.2 
z
" style="fill: #ffffff"/>
   </g>
   <g id="PolyCollection_1">
    <path d="M -4315.31939 377.626262 
L -4315.31939 377.64 
L -4307.271313 377.547835 
L -4299.223236 377.476086 
L -4291.175159 377.398874 
L -4283.127082 377.352046 
L -4275.079005 377.29271 
L -4267.030929 377.222297 
L -4258.982852 377.153548 
L -4250.934775 377.091135 
L -4242.886698 377.039815 
L -4234.838621 376.977116 
L -4226.790544 376.910554 
L -4218.742467 376.846921 
L -4210.69439 376.763059 
L -4202.646313 376.69893 
L -4194.598236 376.618818 
L -4186.550159 376.554962 
L -4178.502082 376.45885 
L -4170.454005 376.385832 
L -4162.405929 376.317306 
L -4154.357852 376.231203 
L -4146.309775 376.148848 
L -4138.261698 376.06992 
L -4130.213621 375.96869 
L -4122.165544 375.885622 
L -4114.117467 375.783452 
L -4106.06939 375.681011 
L -4098.021313 375.565188 
L -4089.973236 375.446842 
L -4081.925159 375.333958 
L -4073.877082 375.198559 
L -4065.829005 375.041778 
L -4057.780929 374.910659 
L -4049.732852 374.757395 
L -4041.684775 374.577658 
L -4033.636698 374.417679 
L -4025.588621 374.223008 
L -4017.540544 374.028068 
L -4009.492467 373.828986 
L -4001.44439 373.618782 
L -3993.396313 373.381891 
L -3985.348236 373.12887 
L -3977.300159 372.860316 
L -3969.252082 372.609423 
L -3961.204005 372.303079 
L -3953.155929 372.021507 
L -3945.107852 371.71959 
L -3937.059775 371.420783 
L -3929.011698 371.094995 
L -3920.963621 370.737036 
L -3912.915544 370.419074 
L -3904.867467 370.054559 
L -3896.81939 369.676594 
L -3888.771313 369.312606 
L -3880.723236 368.957164 
L -3872.675159 368.56268 
L -3864.627082 368.165521 
L -3856.579005 367.77235 
L -3848.530929 367.359333 
L -3840.482852 366.942224 
L -3832.434775 366.529426 
L -3824.386698 366.099706 
L -3816.338621 365.671058 
L -3808.290544 365.253638 
L -3800.242467 364.814108 
L -3792.19439 364.333876 
L -3784.146313 363.875363 
L -3776.098236 363.419415 
L -3768.050159 362.973985 
L -3760.002082 362.503388 
L -3751.954005 362.047622 
L -3743.905929 361.580496 
L -3735.857852 361.175055 
L -3727.809775 360.665684 
L -3719.761698 360.245589 
L -3711.713621 359.767709 
L -3703.665544 359.318867 
L -3695.617467 358.837996 
L -3687.56939 358.419388 
L -3679.521313 357.916493 
L -3671.473236 357.464805 
L -3663.425159 357.046468 
L -3655.377082 356.576728 
L -3647.329005 356.138187 
L -3639.280929 355.684204 
L -3631.232852 355.220316 
L -3623.184775 354.777539 
L -3615.136698 354.345501 
L -3607.088621 353.87267 
L -3599.040544 353.432969 
L -3590.992467 352.978498 
L -3582.94439 352.53222 
L -3574.896313 352.097931 
L -3566.848236 351.655164 
L -3558.800159 351.211201 
L -3550.752082 350.825249 
L -3542.704005 350.366383 
L -3534.655929 349.931432 
L -3526.607852 349.504378 
L -3518.559775 349.074936 
L -3510.511698 348.645256 
L -3502.463621 348.206634 
L -3494.415544 347.793342 
L -3486.367467 347.356606 
L -3478.31939 346.904578 
L -3470.271313 346.445104 
L -3462.223236 345.978585 
L -3454.175159 345.549997 
L -3446.127082 345.065016 
L -3438.079005 344.539395 
L -3430.030929 344.054382 
L -3421.982852 343.536542 
L -3413.934775 343.009731 
L -3405.886698 342.447301 
L -3397.838621 341.873769 
L -3389.790544 341.352084 
L -3381.742467 340.73944 
L -3373.69439 340.166019 
L -3365.646313 339.54008 
L -3357.598236 338.979002 
L -3349.550159 338.295947 
L -3341.502082 337.631369 
L -3333.454005 336.991824 
L -3325.405929 336.340755 
L -3317.357852 335.667155 
L -3309.309775 334.958551 
L -3301.261698 334.30687 
L -3293.213621 333.539596 
L -3285.165544 332.8871 
L -3277.117467 332.097772 
L -3269.06939 331.340775 
L -3261.021313 330.608365 
L -3252.973236 329.915698 
L -3244.925159 329.080999 
L -3236.877082 328.347477 
L -3228.829005 327.368798 
L -3220.780929 326.556347 
L -3212.732852 325.816033 
L -3204.684775 324.959489 
L -3196.636698 324.080392 
L -3188.588621 323.042648 
L -3180.540544 322.088602 
L -3172.492467 321.333831 
L -3164.44439 320.02037 
L -3156.396313 319.016621 
L -3148.348236 317.99402 
L -3140.300159 316.932782 
L -3132.252082 315.700071 
L -3124.204005 314.56602 
L -3116.155929 313.783484 
L -3108.107852 312.721689 
L -3100.059775 310.811251 
L -3092.011698 309.263691 
L -3083.963621 308.211316 
L -3075.915544 306.645199 
L -3067.867467 305.413251 
L -3059.81939 304.393987 
L -3051.771313 302.67963 
L -3043.723236 300.691598 
L -3035.675159 299.456439 
L -3027.627082 298.807609 
L -3019.579005 297.228017 
L -3011.530929 296.739162 
L -3003.482852 295.722242 
L -2995.434775 293.986166 
L -2987.386698 294.01669 
L -2979.338621 294.790193 
L -2971.290544 296.450438 
L -2963.242467 294.66304 
L -2955.19439 298.31518 
L -2947.146313 299.258207 
L -2939.098236 294.305753 
L -2931.050159 295.703845 
L -2923.002082 297.896134 
L -2914.954005 296.560362 
L -2906.905929 296.250839 
L -2898.857852 305.592171 
L -2890.809775 318.884471 
L -2882.761698 325.492514 
L -2874.713621 310.863987 
L -2866.665544 318.33962 
L -2858.617467 327.943588 
L -2850.56939 327.269387 
L -2842.521313 346.978993 
L -2834.473236 343.95024 
L -2826.425159 337.743778 
L -2818.377082 322.312648 
L -2810.329005 336.37493 
L -2802.280929 344.626095 
L -2794.232852 340.637937 
L -2786.184775 342.728506 
L -2778.136698 350.907306 
L -2770.088621 349.502349 
L -2762.040544 341.943366 
L -2753.992467 350.800663 
L -2745.94439 352.306434 
L -2737.896313 348.723093 
L -2729.848236 354.204798 
L -2721.800159 355.98376 
L -2713.752082 355.054489 
L -2705.704005 352.930376 
L -2697.655929 354.473679 
L -2689.607852 352.15055 
L -2681.559775 351.945684 
L -2673.511698 353.386618 
L -2665.463621 351.288197 
L -2657.415544 351.792994 
L -2649.367467 351.451893 
L -2641.31939 349.672296 
L -2633.271313 349.789061 
L -2625.223236 347.396402 
L -2617.175159 347.138371 
L -2609.127082 347.300113 
L -2601.079005 346.948995 
L -2593.030929 345.572089 
L -2584.982852 344.336626 
L -2576.934775 343.736247 
L -2568.886698 342.43525 
L -2560.838621 341.973533 
L -2552.790544 341.475494 
L -2544.742467 339.600464 
L -2536.69439 340.136209 
L -2528.646313 338.784071 
L -2520.598236 337.875961 
L -2512.550159 337.90299 
L -2504.502082 336.622616 
L -2496.454005 336.072714 
L -2488.405929 336.142916 
L -2480.357852 336.455188 
L -2472.309775 334.54108 
L -2464.261698 333.461026 
L -2456.213621 333.292255 
L -2448.165544 335.797446 
L -2440.117467 335.660267 
L -2432.06939 336.496995 
L -2424.021313 333.553457 
L -2415.973236 331.724801 
L -2407.925159 331.980199 
L -2399.877082 333.610611 
L -2391.829005 333.668601 
L -2383.780929 330.315317 
L -2375.732852 332.772671 
L -2367.684775 331.447351 
L -2359.636698 331.068454 
L -2351.588621 329.231746 
L -2343.540544 330.249364 
L -2335.492467 329.473924 
L -2327.44439 330.155771 
L -2319.396313 328.877274 
L -2311.348236 327.953434 
L -2303.300159 326.407673 
L -2295.252082 325.687534 
L -2287.204005 325.016646 
L -2279.155929 323.952461 
L -2271.107852 323.834721 
L -2263.059775 322.860619 
L -2255.011698 321.864113 
L -2246.963621 319.704135 
L -2238.915544 317.859687 
L -2230.867467 316.965933 
L -2222.81939 315.014752 
L -2214.771313 314.778667 
L -2206.723236 313.308375 
L -2198.675159 310.945685 
L -2190.627082 309.043023 
L -2182.579005 307.574298 
L -2174.530929 305.09007 
L -2166.482852 303.757382 
L -2158.434775 301.628412 
L -2150.386698 299.792909 
L -2142.338621 297.56221 
L -2134.290544 295.251346 
L -2126.242467 293.203045 
L -2118.19439 290.961639 
L -2110.146313 289.000144 
L -2102.098236 286.280501 
L -2094.050159 283.804798 
L -2086.002082 281.245651 
L -2077.954005 279.337501 
L -2069.905929 276.696494 
L -2061.857852 274.351377 
L -2053.809775 271.766888 
L -2045.761698 268.204165 
L -2037.713621 266.346335 
L -2029.665544 263.287491 
L -2021.617467 260.710135 
L -2013.56939 257.934022 
L -2005.521313 254.79652 
L -1997.473236 251.808317 
L -1989.425159 248.919371 
L -1981.377082 245.237626 
L -1973.329005 242.63846 
L -1965.280929 239.101054 
L -1957.232852 236.701043 
L -1949.184775 233.024416 
L -1941.136698 229.434588 
L -1933.088621 226.290687 
L -1925.040544 223.625634 
L -1916.992467 219.536453 
L -1908.94439 216.615334 
L -1900.896313 213.001984 
L -1892.848236 210.010556 
L -1884.800159 206.200614 
L -1876.752082 202.740654 
L -1868.704005 202.192853 
L -1860.655929 195.753314 
L -1852.607852 194.610019 
L -1844.559775 190.814011 
L -1836.511698 187.994265 
L -1828.463621 184.71843 
L -1820.415544 181.396436 
L -1812.367467 178.253114 
L -1804.31939 175.411944 
L -1796.271313 172.766615 
L -1788.223236 169.975812 
L -1780.175159 171.973858 
L -1772.127082 163.930723 
L -1764.079005 162.246527 
L -1756.030929 167.883817 
L -1747.982852 158.912866 
L -1739.934775 160.134529 
L -1731.886698 159.087915 
L -1723.838621 154.098548 
L -1715.790544 154.950599 
L -1707.742467 158.961307 
L -1699.69439 155.376944 
L -1691.646313 153.849429 
L -1683.598236 156.673002 
L -1675.550159 155.650597 
L -1667.502082 157.362244 
L -1659.454005 160.126973 
L -1651.405929 163.815242 
L -1643.357852 174.478064 
L -1635.309775 171.571726 
L -1627.261698 176.994109 
L -1619.213621 181.136632 
L -1611.165544 183.512622 
L -1603.117467 189.009661 
L -1595.06939 192.070718 
L -1587.021313 184.77999 
L -1578.973236 190.87196 
L -1570.925159 200.026824 
L -1562.877082 205.89382 
L -1554.829005 208.502831 
L -1546.780929 224.830624 
L -1538.732852 226.007103 
L -1530.684775 230.341516 
L -1522.636698 228.968919 
L -1514.588621 242.700665 
L -1506.540544 238.202407 
L -1498.492467 235.56357 
L -1490.44439 247.252562 
L -1482.396313 255.495165 
L -1474.348236 254.551411 
L -1466.300159 259.352388 
L -1458.252082 260.754488 
L -1450.204005 260.815765 
L -1442.155929 260.562264 
L -1434.107852 263.085652 
L -1426.059775 264.392841 
L -1418.011698 272.767424 
L -1409.963621 268.044288 
L -1401.915544 275.279613 
L -1393.867467 273.268135 
L -1385.81939 271.928203 
L -1377.771313 274.644502 
L -1369.723236 277.026779 
L -1361.675159 273.234616 
L -1353.627082 274.570782 
L -1345.579005 274.309011 
L -1337.530929 278.013429 
L -1329.482852 275.574891 
L -1321.434775 274.206849 
L -1313.386698 274.942781 
L -1305.338621 276.45691 
L -1297.290544 275.003087 
L -1289.242467 272.537725 
L -1281.19439 273.110763 
L -1273.146313 269.579389 
L -1265.098236 269.324863 
L -1257.050159 273.631657 
L -1249.002082 272.717705 
L -1240.954005 269.291362 
L -1232.905929 267.936982 
L -1224.857852 267.565233 
L -1216.809775 263.860827 
L -1208.761698 263.854944 
L -1200.713621 263.090849 
L -1192.665544 261.691613 
L -1184.617467 260.102461 
L -1176.56939 257.460203 
L -1168.521313 257.763555 
L -1160.473236 255.717545 
L -1152.425159 254.641634 
L -1144.377082 253.171666 
L -1136.329005 252.458362 
L -1128.280929 250.246414 
L -1120.232852 246.885946 
L -1112.184775 246.006658 
L -1104.136698 243.149942 
L -1096.088621 239.386238 
L -1088.040544 240.895853 
L -1079.992467 236.065629 
L -1071.94439 237.120431 
L -1063.896313 235.681304 
L -1055.848236 235.339692 
L -1047.800159 232.065966 
L -1039.752082 231.282423 
L -1031.704005 230.321193 
L -1023.655929 226.459641 
L -1015.607852 226.756264 
L -1007.559775 225.957341 
L -999.511698 225.330917 
L -991.463621 223.291482 
L -983.415544 223.57964 
L -975.367467 221.519149 
L -967.31939 219.575515 
L -959.271313 216.733841 
L -951.223236 215.570985 
L -943.175159 214.688462 
L -935.127082 212.634382 
L -927.079005 212.553477 
L -919.030929 211.395596 
L -910.982852 209.566647 
L -902.934775 209.325234 
L -894.886698 207.31822 
L -886.838621 208.473609 
L -878.790544 207.006373 
L -870.742467 206.805673 
L -862.69439 204.41301 
L -854.646313 201.24804 
L -846.598236 203.498742 
L -838.550159 203.190846 
L -830.502082 202.019885 
L -822.454005 200.822528 
L -814.405929 198.586146 
L -806.357852 197.934772 
L -798.309775 196.633292 
L -790.261698 196.627615 
L -782.213621 196.036616 
L -774.165544 193.931486 
L -766.117467 191.019013 
L -758.06939 194.443458 
L -750.021313 193.435988 
L -741.973236 190.941937 
L -733.925159 192.276505 
L -725.877082 187.942119 
L -717.829005 188.308013 
L -709.780929 188.429193 
L -701.732852 185.442174 
L -693.684775 190.118975 
L -685.636698 185.112631 
L -677.588621 182.488996 
L -669.540544 185.48873 
L -661.492467 186.168546 
L -653.44439 184.443545 
L -645.396313 185.495288 
L -637.348236 183.073649 
L -629.300159 187.196361 
L -621.252082 184.778049 
L -613.204005 185.447457 
L -605.155929 182.262934 
L -597.107852 179.376444 
L -589.059775 182.503933 
L -581.011698 188.307243 
L -572.963621 181.164141 
L -564.915544 181.290218 
L -556.867467 178.453421 
L -548.81939 179.416964 
L -540.771313 178.813233 
L -532.723236 176.961354 
L -524.675159 176.11831 
L -516.627082 178.825859 
L -508.579005 177.080494 
L -500.530929 179.551877 
L -492.482852 179.843732 
L -484.434775 171.810694 
L -476.386698 174.870891 
L -468.338621 174.984006 
L -460.290544 175.395471 
L -452.242467 175.750328 
L -444.19439 180.659477 
L -436.146313 182.561069 
L -428.098236 182.248053 
L -420.050159 187.701156 
L -412.002082 196.79181 
L -403.954005 185.820344 
L -395.905929 185.651683 
L -387.857852 185.846088 
L -379.809775 189.445858 
L -371.761698 190.253475 
L -363.713621 190.214765 
L -355.665544 198.0721 
L -347.617467 200.954574 
L -339.56939 191.951789 
L -331.521313 200.034978 
L -323.473236 195.990873 
L -315.425159 193.453739 
L -307.377082 203.270232 
L -299.329005 201.246798 
L -291.280929 207.558147 
L -283.232852 205.546845 
L -275.184775 201.158109 
L -267.136698 205.061817 
L -259.088621 204.970875 
L -251.040544 208.796498 
L -242.992467 206.232594 
L -234.94439 212.608228 
L -226.896313 207.839856 
L -218.848236 211.14 
L -210.800159 210.3218 
L -202.752082 213.959947 
L -194.704005 207.764681 
L -186.655929 214.139121 
L -178.607852 213.645031 
L -170.559775 217.958965 
L -162.511698 220.170655 
L -154.463621 220.054556 
L -146.415544 218.783129 
L -138.367467 221.508058 
L -130.31939 223.502616 
L -122.271313 221.457721 
L -114.223236 220.606114 
L -106.175159 222.975271 
L -98.127082 225.113794 
L -90.079005 221.025262 
L -82.030929 218.611945 
L -73.982852 227.522568 
L -65.934775 231.511977 
L -57.886698 222.124154 
L -49.838621 224.720788 
L -41.790544 225.955784 
L -33.742467 226.487972 
L -25.69439 231.004727 
L -17.646313 230.288693 
L -9.598236 228.286653 
L -1.550159 230.20295 
L 6.497918 230.635938 
L 14.545995 225.546578 
L 22.594071 227.976692 
L 30.642148 226.357917 
L 38.690225 233.18261 
L 46.738302 241.598826 
L 54.786379 240.295861 
L 62.834456 233.482689 
L 70.882533 232.700759 
L 78.93061 233.575173 
L 86.978687 233.851223 
L 95.026764 240.120092 
L 103.074841 232.049182 
L 111.122918 240.462129 
L 119.170995 247.21958 
L 127.219071 241.5217 
L 135.267148 250.222113 
L 143.315225 244.732158 
L 151.363302 249.473857 
L 159.411379 246.300487 
L 167.459456 248.629661 
L 175.507533 253.287124 
L 183.55561 252.953382 
L 191.603687 254.377715 
L 199.651764 254.742612 
L 207.699841 255.215097 
L 215.747918 243.778357 
L 223.795995 258.484555 
L 231.844071 264.52955 
L 239.892148 258.656105 
L 247.940225 263.996918 
L 255.988302 265.141111 
L 264.036379 262.06656 
L 272.084456 268.102268 
L 280.132533 272.138252 
L 288.18061 269.75097 
L 296.228687 271.328501 
L 304.276764 272.219832 
L 312.324841 273.672785 
L 320.372918 278.257648 
L 328.420995 268.909433 
L 336.469071 280.54907 
L 344.517148 280.817797 
L 352.565225 281.319106 
L 360.613302 274.106189 
L 368.661379 282.912549 
L 376.709456 288.738385 
L 384.757533 282.734532 
L 392.80561 283.350429 
L 400.853687 291.467005 
L 408.901764 277.128674 
L 416.949841 290.387756 
L 424.997918 281.968661 
L 433.045995 293.53426 
L 441.094071 287.930499 
L 449.142148 292.875349 
L 457.190225 294.334569 
L 465.238302 296.412156 
L 473.286379 296.947628 
L 481.334456 293.68583 
L 489.382533 293.656135 
L 497.43061 295.085322 
L 505.478687 300.274872 
L 513.526764 299.461297 
L 521.574841 299.139074 
L 529.622918 302.238556 
L 537.670995 302.30596 
L 545.719071 299.54515 
L 553.767148 299.846233 
L 561.815225 304.638259 
L 569.863302 305.212272 
L 577.911379 306.275978 
L 585.959456 302.144509 
L 594.007533 296.078879 
L 602.05561 302.49134 
L 610.103687 300.343585 
L 618.151764 301.965568 
L 626.199841 304.639349 
L 634.247918 300.874733 
L 642.295995 305.347379 
L 650.344071 301.839796 
L 658.392148 301.173326 
L 666.440225 300.745455 
L 674.488302 304.627231 
L 682.536379 303.359775 
L 690.584456 302.757685 
L 698.632533 299.544068 
L 706.68061 300.892674 
L 714.728687 301.333074 
L 722.776764 300.241222 
L 730.824841 302.678793 
L 738.872918 301.79687 
L 746.920995 303.071884 
L 754.969071 304.512931 
L 763.017148 304.102821 
L 771.065225 302.177619 
L 779.113302 302.36424 
L 787.161379 301.076732 
L 795.209456 302.122966 
L 803.257533 302.13482 
L 811.30561 299.978548 
L 819.353687 301.857337 
L 827.401764 292.318496 
L 835.449841 301.340641 
L 843.497918 304.541755 
L 851.545995 300.541624 
L 859.594071 300.2803 
L 867.642148 303.484142 
L 875.690225 303.350228 
L 883.738302 299.824782 
L 891.786379 299.351583 
L 899.834456 301.303051 
L 907.882533 300.311842 
L 915.93061 304.265201 
L 923.978687 302.612662 
L 932.026764 305.345434 
L 940.074841 300.863417 
L 940.074841 242.852704 
L 940.074841 242.852704 
L 932.026764 239.951705 
L 923.978687 235.837999 
L 915.93061 240.912607 
L 907.882533 231.73746 
L 899.834456 234.484541 
L 891.786379 233.336419 
L 883.738302 223.783626 
L 875.690225 236.521106 
L 867.642148 243.435539 
L 859.594071 225.150664 
L 851.545995 233.357863 
L 843.497918 241.255677 
L 835.449841 236.426255 
L 827.401764 176.058923 
L 819.353687 235.014954 
L 811.30561 224.276548 
L 803.257533 236.367269 
L 795.209456 235.839221 
L 787.161379 231.684614 
L 779.113302 232.559792 
L 771.065225 231.830827 
L 763.017148 239.131621 
L 754.969071 239.904043 
L 746.920995 231.655884 
L 738.872918 226.423648 
L 730.824841 232.040504 
L 722.776764 224.301698 
L 714.728687 228.327847 
L 706.68061 224.122612 
L 698.632533 218.59502 
L 690.584456 228.099773 
L 682.536379 229.842638 
L 674.488302 230.663065 
L 666.440225 221.364642 
L 658.392148 219.983516 
L 650.344071 220.370072 
L 642.295995 232.899422 
L 634.247918 217.542116 
L 626.199841 229.29723 
L 618.151764 220.708259 
L 610.103687 214.447022 
L 602.05561 221.157163 
L 594.007533 196.248964 
L 585.959456 220.037414 
L 577.911379 230.391379 
L 569.863302 226.567861 
L 561.815225 225.205377 
L 553.767148 205.518417 
L 545.719071 206.951493 
L 537.670995 215.146166 
L 529.622918 215.531947 
L 521.574841 205.067531 
L 513.526764 206.592851 
L 505.478687 206.493411 
L 497.43061 196.287007 
L 489.382533 187.624328 
L 481.334456 186.400821 
L 473.286379 195.727185 
L 465.238302 194.17977 
L 457.190225 190.144033 
L 449.142148 185.963027 
L 441.094071 170.371642 
L 433.045995 187.662067 
L 424.997918 146.077447 
L 416.949841 175.53829 
L 408.901764 135.972162 
L 400.853687 180.417059 
L 392.80561 157.040481 
L 384.757533 157.31504 
L 376.709456 170.451296 
L 368.661379 156.468075 
L 360.613302 130.37001 
L 352.565225 150.537177 
L 344.517148 150.760039 
L 336.469071 150.583062 
L 328.420995 120.035913 
L 320.372918 136.053567 
L 312.324841 132.908895 
L 304.276764 131.298587 
L 296.228687 128.422347 
L 288.18061 122.458057 
L 280.132533 129.372161 
L 272.084456 118.43678 
L 264.036379 104.629063 
L 255.988302 116.974719 
L 247.940225 108.081347 
L 239.892148 100.174675 
L 231.844071 114.287159 
L 223.795995 99.892027 
L 215.747918 62.211022 
L 207.699841 90.504116 
L 199.651764 89.83864 
L 191.603687 90.326256 
L 183.55561 87.348572 
L 175.507533 87.912448 
L 167.459456 77.948134 
L 159.411379 74.077482 
L 151.363302 82.496317 
L 143.315225 67.818558 
L 135.267148 83.648906 
L 127.219071 63.138458 
L 119.170995 75.577954 
L 111.122918 62.073943 
L 103.074841 45.251373 
L 95.026764 61.526244 
L 86.978687 46.858255 
L 78.93061 48.343889 
L 70.882533 48.134962 
L 62.834456 50.063782 
L 54.786379 64.807221 
L 46.738302 68.688154 
L 38.690225 52.061249 
L 30.642148 35.017641 
L 22.594071 40.411241 
L 14.545995 37.39637 
L 6.497918 48.930307 
L -1.550159 48.33828 
L -9.598236 44.464207 
L -17.646313 50.743426 
L -25.69439 50.868249 
L -33.742467 42.565011 
L -41.790544 44.245876 
L -49.838621 41.415314 
L -57.886698 37.793275 
L -65.934775 58.491099 
L -73.982852 47.81166 
L -82.030929 32.997592 
L -90.079005 41.059195 
L -98.127082 48.342858 
L -106.175159 44.645498 
L -114.223236 41.964163 
L -122.271313 45.272212 
L -130.31939 52.942215 
L -138.367467 46.069718 
L -146.415544 43.983371 
L -154.463621 47.763275 
L -162.511698 43.721577 
L -170.559775 45.940605 
L -178.607852 37.116351 
L -186.655929 41.27846 
L -194.704005 30.371508 
L -202.752082 41.066716 
L -210.800159 37.07084 
L -218.848236 40.560079 
L -226.896313 38.0867 
L -234.94439 44.874668 
L -242.992467 35.163167 
L -251.040544 42.373621 
L -259.088621 36.50919 
L -267.136698 38.454937 
L -275.184775 33.996729 
L -283.232852 37.369869 
L -291.280929 45.400673 
L -299.329005 38.917645 
L -307.377082 41.301568 
L -315.425159 27.914523 
L -323.473236 35.04263 
L -331.521313 38.973097 
L -339.56939 28.814245 
L -347.617467 41.517701 
L -355.665544 43.109523 
L -363.713621 30.110091 
L -371.761698 31.017885 
L -379.809775 30.743377 
L -387.857852 26.529821 
L -395.905929 30.647311 
L -403.954005 30.159628 
L -412.002082 46.965659 
L -420.050159 36.695873 
L -428.098236 29.346194 
L -436.146313 30.401736 
L -444.19439 28.875703 
L -452.242467 24.84 
L -460.290544 27.51533 
L -468.338621 25.132826 
L -476.386698 29.821198 
L -484.434775 25.983863 
L -492.482852 36.117818 
L -500.530929 38.35256 
L -508.579005 37.268393 
L -516.627082 40.304435 
L -524.675159 37.86093 
L -532.723236 41.603755 
L -540.771313 44.215472 
L -548.81939 49.521541 
L -556.867467 47.103154 
L -564.915544 52.903594 
L -572.963621 52.948295 
L -581.011698 62.862848 
L -589.059775 57.8034 
L -597.107852 55.550335 
L -605.155929 60.30303 
L -613.204005 62.947102 
L -621.252082 63.977102 
L -629.300159 70.014013 
L -637.348236 66.400806 
L -645.396313 70.692022 
L -653.44439 69.817089 
L -661.492467 71.428584 
L -669.540544 70.706279 
L -677.588621 69.270106 
L -685.636698 74.142567 
L -693.684775 80.372152 
L -701.732852 75.463912 
L -709.780929 79.376141 
L -717.829005 78.662917 
L -725.877082 81.181205 
L -733.925159 86.107641 
L -741.973236 85.339315 
L -750.021313 89.450537 
L -758.06939 91.021897 
L -766.117467 87.802063 
L -774.165544 90.737407 
L -782.213621 93.932445 
L -790.261698 95.499954 
L -798.309775 96.043498 
L -806.357852 98.497416 
L -814.405929 98.85958 
L -822.454005 102.18575 
L -830.502082 103.579207 
L -838.550159 104.830806 
L -846.598236 106.07725 
L -854.646313 101.955183 
L -862.69439 107.862822 
L -870.742467 110.609215 
L -878.790544 110.651527 
L -886.838621 111.455402 
L -894.886698 112.120427 
L -902.934775 114.283264 
L -910.982852 114.410286 
L -919.030929 117.345245 
L -927.079005 118.780904 
L -935.127082 118.859663 
L -943.175159 120.334031 
L -951.223236 122.111278 
L -959.271313 123.934244 
L -967.31939 128.571122 
L -975.367467 130.142741 
L -983.415544 132.740875 
L -991.463621 132.42351 
L -999.511698 134.960255 
L -1007.559775 135.832019 
L -1015.607852 137.104741 
L -1023.655929 135.787487 
L -1031.704005 142.140591 
L -1039.752082 143.37747 
L -1047.800159 144.50131 
L -1055.848236 148.640128 
L -1063.896313 149.181248 
L -1071.94439 151.369675 
L -1079.992467 150.461725 
L -1088.040544 155.906104 
L -1096.088621 155.356909 
L -1104.136698 160.649632 
L -1112.184775 164.659048 
L -1120.232852 166.410135 
L -1128.280929 171.233102 
L -1136.329005 175.183292 
L -1144.377082 175.907492 
L -1152.425159 178.655465 
L -1160.473236 180.030396 
L -1168.521313 183.35158 
L -1176.56939 183.442314 
L -1184.617467 187.72352 
L -1192.665544 191.112589 
L -1200.713621 193.425063 
L -1208.761698 195.103092 
L -1216.809775 196.573582 
L -1224.857852 201.051459 
L -1232.905929 202.651453 
L -1240.954005 205.6657 
L -1249.002082 209.762075 
L -1257.050159 211.517227 
L -1265.098236 209.124025 
L -1273.146313 210.687074 
L -1281.19439 215.034962 
L -1289.242467 216.073281 
L -1297.290544 219.220342 
L -1305.338621 221.642006 
L -1313.386698 221.198597 
L -1321.434775 222.875394 
L -1329.482852 224.825302 
L -1337.530929 227.896242 
L -1345.579005 225.569045 
L -1353.627082 227.291237 
L -1361.675159 227.782239 
L -1369.723236 231.873379 
L -1377.771313 231.888449 
L -1385.81939 230.337032 
L -1393.867467 232.705129 
L -1401.915544 235.120722 
L -1409.963621 230.338586 
L -1418.011698 235.538753 
L -1426.059775 229.830241 
L -1434.107852 229.951499 
L -1442.155929 229.012344 
L -1450.204005 230.778347 
L -1458.252082 231.537507 
L -1466.300159 230.912821 
L -1474.348236 227.801544 
L -1482.396313 230.197401 
L -1490.44439 223.016656 
L -1498.492467 215.035737 
L -1506.540544 217.518028 
L -1514.588621 221.948326 
L -1522.636698 211.321242 
L -1530.684775 212.250675 
L -1538.732852 209.847916 
L -1546.780929 209.405013 
L -1554.829005 195.666241 
L -1562.877082 194.426513 
L -1570.925159 189.502176 
L -1578.973236 178.472968 
L -1587.021313 170.07044 
L -1595.06939 179.324363 
L -1603.117467 174.996548 
L -1611.165544 167.661569 
L -1619.213621 164.662757 
L -1627.261698 159.291685 
L -1635.309775 152.192541 
L -1643.357852 155.429203 
L -1651.405929 142.636112 
L -1659.454005 136.439454 
L -1667.502082 133.53601 
L -1675.550159 131.22122 
L -1683.598236 132.740634 
L -1691.646313 129.646625 
L -1699.69439 132.414897 
L -1707.742467 136.341196 
L -1715.790544 130.537326 
L -1723.838621 130.147808 
L -1731.886698 136.238449 
L -1739.934775 137.721505 
L -1747.982852 135.612321 
L -1756.030929 147.907822 
L -1764.079005 139.610516 
L -1772.127082 142.711239 
L -1780.175159 152.144668 
L -1788.223236 149.797398 
L -1796.271313 153.410961 
L -1804.31939 156.681233 
L -1812.367467 160.481079 
L -1820.415544 164.115756 
L -1828.463621 168.199967 
L -1836.511698 171.991994 
L -1844.559775 175.135481 
L -1852.607852 179.99523 
L -1860.655929 181.331054 
L -1868.704005 188.955669 
L -1876.752082 189.4884 
L -1884.800159 193.402327 
L -1892.848236 197.939593 
L -1900.896313 201.374785 
L -1908.94439 205.723319 
L -1916.992467 208.887183 
L -1925.040544 213.639034 
L -1933.088621 216.578205 
L -1941.136698 220.306429 
L -1949.184775 224.269972 
L -1957.232852 228.413954 
L -1965.280929 231.092328 
L -1973.329005 235.165596 
L -1981.377082 237.76372 
L -1989.425159 241.908319 
L -1997.473236 245.044535 
L -2005.521313 248.480568 
L -2013.56939 251.790153 
L -2021.617467 254.909122 
L -2029.665544 257.615077 
L -2037.713621 260.798566 
L -2045.761698 262.244827 
L -2053.809775 265.933388 
L -2061.857852 268.449395 
L -2069.905929 270.549767 
L -2077.954005 273.251026 
L -2086.002082 275.173334 
L -2094.050159 277.176987 
L -2102.098236 279.690166 
L -2110.146313 282.422577 
L -2118.19439 284.562637 
L -2126.242467 286.447244 
L -2134.290544 288.965479 
L -2142.338621 290.838443 
L -2150.386698 293.184702 
L -2158.434775 295.033617 
L -2166.482852 297.015263 
L -2174.530929 298.833275 
L -2182.579005 301.012909 
L -2190.627082 302.746326 
L -2198.675159 304.647961 
L -2206.723236 306.921262 
L -2214.771313 308.700412 
L -2222.81939 309.550878 
L -2230.867467 311.418615 
L -2238.915544 312.530476 
L -2246.963621 314.350831 
L -2255.011698 316.538459 
L -2263.059775 317.785909 
L -2271.107852 318.928231 
L -2279.155929 319.567916 
L -2287.204005 320.770145 
L -2295.252082 321.656748 
L -2303.300159 322.623734 
L -2311.348236 324.244198 
L -2319.396313 325.305261 
L -2327.44439 326.649259 
L -2335.492467 326.455115 
L -2343.540544 327.401863 
L -2351.588621 326.751751 
L -2359.636698 328.509229 
L -2367.684775 329.178126 
L -2375.732852 330.42544 
L -2383.780929 328.340482 
L -2391.829005 331.547658 
L -2399.877082 331.625057 
L -2407.925159 330.333424 
L -2415.973236 330.18514 
L -2424.021313 332.016097 
L -2432.06939 334.790227 
L -2440.117467 334.124245 
L -2448.165544 334.398637 
L -2456.213621 332.171571 
L -2464.261698 332.867147 
L -2472.309775 333.61444 
L -2480.357852 335.461819 
L -2488.405929 335.327741 
L -2496.454005 335.395554 
L -2504.502082 336.001755 
L -2512.550159 337.292797 
L -2520.598236 337.399292 
L -2528.646313 338.310421 
L -2536.69439 339.636908 
L -2544.742467 339.12383 
L -2552.790544 340.95702 
L -2560.838621 341.437419 
L -2568.886698 341.861228 
L -2576.934775 343.096296 
L -2584.982852 343.572116 
L -2593.030929 344.909849 
L -2601.079005 346.346504 
L -2609.127082 346.577646 
L -2617.175159 346.291013 
L -2625.223236 346.13975 
L -2633.271313 348.918572 
L -2641.31939 348.666665 
L -2649.367467 350.589913 
L -2657.415544 350.805599 
L -2665.463621 350.295593 
L -2673.511698 352.204063 
L -2681.559775 350.758258 
L -2689.607852 350.974141 
L -2697.655929 353.334183 
L -2705.704005 351.822718 
L -2713.752082 354.042861 
L -2721.800159 354.861649 
L -2729.848236 353.048814 
L -2737.896313 346.84541 
L -2745.94439 350.804202 
L -2753.992467 349.024474 
L -2762.040544 339.372377 
L -2770.088621 347.584481 
L -2778.136698 349.130921 
L -2786.184775 340.269996 
L -2794.232852 337.993795 
L -2802.280929 342.388562 
L -2810.329005 332.966962 
L -2818.377082 317.084111 
L -2826.425159 334.488395 
L -2834.473236 341.571274 
L -2842.521313 344.859268 
L -2850.56939 322.741136 
L -2858.617467 323.555099 
L -2866.665544 312.815746 
L -2874.713621 304.595341 
L -2882.761698 320.907724 
L -2890.809775 313.631526 
L -2898.857852 298.861205 
L -2906.905929 288.482385 
L -2914.954005 288.805801 
L -2923.002082 290.24707 
L -2931.050159 287.812263 
L -2939.098236 286.233533 
L -2947.146313 291.64403 
L -2955.19439 290.646674 
L -2963.242467 286.540194 
L -2971.290544 288.442662 
L -2979.338621 286.489601 
L -2987.386698 285.477898 
L -2995.434775 285.176712 
L -3003.482852 287.036552 
L -3011.530929 287.947654 
L -3019.579005 288.310603 
L -3027.627082 289.84945 
L -3035.675159 290.371551 
L -3043.723236 291.564029 
L -3051.771313 293.696877 
L -3059.81939 295.248926 
L -3067.867467 296.216985 
L -3075.915544 297.325185 
L -3083.963621 298.948119 
L -3092.011698 299.826202 
L -3100.059775 301.38589 
L -3108.107852 303.357287 
L -3116.155929 304.45207 
L -3124.204005 305.095895 
L -3132.252082 306.251683 
L -3140.300159 307.446468 
L -3148.348236 308.524246 
L -3156.396313 309.544773 
L -3164.44439 310.521841 
L -3172.492467 311.979265 
L -3180.540544 312.60967 
L -3188.588621 313.641726 
L -3196.636698 314.726662 
L -3204.684775 315.637284 
L -3212.732852 316.545649 
L -3220.780929 317.280536 
L -3228.829005 318.09302 
L -3236.877082 319.223332 
L -3244.925159 319.942963 
L -3252.973236 320.830621 
L -3261.021313 321.51467 
L -3269.06939 322.323507 
L -3277.117467 323.156014 
L -3285.165544 324.000202 
L -3293.213621 324.697464 
L -3301.261698 325.546544 
L -3309.309775 326.286979 
L -3317.357852 327.088566 
L -3325.405929 327.825685 
L -3333.454005 328.603652 
L -3341.502082 329.315593 
L -3349.550159 330.088053 
L -3357.598236 330.929108 
L -3365.646313 331.55267 
L -3373.69439 332.354263 
L -3381.742467 333.036694 
L -3389.790544 333.841078 
L -3397.838621 334.411971 
L -3405.886698 335.15823 
L -3413.934775 335.867395 
L -3421.982852 336.540471 
L -3430.030929 337.227438 
L -3438.079005 337.858682 
L -3446.127082 338.605627 
L -3454.175159 339.271426 
L -3462.223236 339.808371 
L -3470.271313 340.457178 
L -3478.31939 341.103745 
L -3486.367467 341.745254 
L -3494.415544 342.359952 
L -3502.463621 342.926129 
L -3510.511698 343.554039 
L -3518.559775 344.165472 
L -3526.607852 344.777537 
L -3534.655929 345.384212 
L -3542.704005 346.006467 
L -3550.752082 346.653575 
L -3558.800159 347.19581 
L -3566.848236 347.826834 
L -3574.896313 348.441211 
L -3582.94439 349.024377 
L -3590.992467 349.626628 
L -3599.040544 350.240845 
L -3607.088621 350.831269 
L -3615.136698 351.454002 
L -3623.184775 352.00997 
L -3631.232852 352.577346 
L -3639.280929 353.181453 
L -3647.329005 353.758788 
L -3655.377082 354.298241 
L -3663.425159 354.874028 
L -3671.473236 355.386384 
L -3679.521313 355.940415 
L -3687.56939 356.536613 
L -3695.617467 357.026841 
L -3703.665544 357.589019 
L -3711.713621 358.111192 
L -3719.761698 358.66315 
L -3727.809775 359.146627 
L -3735.857852 359.73449 
L -3743.905929 360.193706 
L -3751.954005 360.725874 
L -3760.002082 361.241951 
L -3768.050159 361.774205 
L -3776.098236 362.271781 
L -3784.146313 362.781528 
L -3792.19439 363.263248 
L -3800.242467 363.761689 
L -3808.290544 364.21473 
L -3816.338621 364.641437 
L -3824.386698 365.083594 
L -3832.434775 365.532335 
L -3840.482852 365.963363 
L -3848.530929 366.407383 
L -3856.579005 366.84749 
L -3864.627082 367.264448 
L -3872.675159 367.691397 
L -3880.723236 368.11892 
L -3888.771313 368.499434 
L -3896.81939 368.892538 
L -3904.867467 369.312226 
L -3912.915544 369.70748 
L -3920.963621 370.05276 
L -3929.011698 370.449401 
L -3937.059775 370.806889 
L -3945.107852 371.13255 
L -3953.155929 371.462973 
L -3961.204005 371.770276 
L -3969.252082 372.113311 
L -3977.300159 372.386065 
L -3985.348236 372.683186 
L -3993.396313 372.962436 
L -4001.44439 373.219743 
L -4009.492467 373.451825 
L -4017.540544 373.660255 
L -4025.588621 373.870258 
L -4033.636698 374.081157 
L -4041.684775 374.248972 
L -4049.732852 374.445648 
L -4057.780929 374.606961 
L -4065.829005 374.741614 
L -4073.877082 374.909747 
L -4081.925159 375.053414 
L -4089.973236 375.166881 
L -4098.021313 375.293327 
L -4106.06939 375.416699 
L -4114.117467 375.52199 
L -4122.165544 375.629039 
L -4130.213621 375.71258 
L -4138.261698 375.821693 
L -4146.309775 375.902642 
L -4154.357852 375.990232 
L -4162.405929 376.084507 
L -4170.454005 376.156508 
L -4178.502082 376.235333 
L -4186.550159 376.348212 
L -4194.598236 376.420229 
L -4202.646313 376.515534 
L -4210.69439 376.585988 
L -4218.742467 376.689332 
L -4226.790544 376.766479 
L -4234.838621 376.850256 
L -4242.886698 376.921297 
L -4250.934775 376.984946 
L -4258.982852 377.062379 
L -4267.030929 377.152642 
L -4275.079005 377.242425 
L -4283.127082 377.31776 
L -4291.175159 377.373734 
L -4299.223236 377.465675 
L -4307.271313 377.536671 
L -4315.31939 377.626262 
z
" clip-path="url(#p157b1c56d5)" style="fill: #008000; fill-opacity: 0.3; stroke: #008000; stroke-opacity: 0.3"/>
   </g>
   <g id="matplotlib.axis_1">
    <g id="xtick_1">
     <g id="line2d_1">
      <defs>
       <path id="m0590519729" d="M 0 0 
L 0 3.5 
" style="stroke: #000000; stroke-width: 0.8"/>
      </defs>
      <g>
       <use xlink:href="#m0590519729" x="103.074841" y="395.28" style="stroke: #000000; stroke-width: 0.8"/>
      </g>
     </g>
     <g id="text_1">
      <!-- 2023-01-01 -->
      <g transform="translate(17.945813 495.213718) rotate(-45) scale(0.2 -0.2)">
       <defs>
        <path id="DejaVuSans-32" d="M 1228 531 
L 3431 531 
L 3431 0 
L 469 0 
L 469 531 
Q 828 903 1448 1529 
Q 2069 2156 2228 2338 
Q 2531 2678 2651 2914 
Q 2772 3150 2772 3378 
Q 2772 3750 2511 3984 
Q 2250 4219 1831 4219 
Q 1534 4219 1204 4116 
Q 875 4013 500 3803 
L 500 4441 
Q 881 4594 1212 4672 
Q 1544 4750 1819 4750 
Q 2544 4750 2975 4387 
Q 3406 4025 3406 3419 
Q 3406 3131 3298 2873 
Q 3191 2616 2906 2266 
Q 2828 2175 2409 1742 
Q 1991 1309 1228 531 
z
" transform="scale(0.015625)"/>
        <path id="DejaVuSans-30" d="M 2034 4250 
Q 1547 4250 1301 3770 
Q 1056 3291 1056 2328 
Q 1056 1369 1301 889 
Q 1547 409 2034 409 
Q 2525 409 2770 889 
Q 3016 1369 3016 2328 
Q 3016 3291 2770 3770 
Q 2525 4250 2034 4250 
z
M 2034 4750 
Q 2819 4750 3233 4129 
Q 3647 3509 3647 2328 
Q 3647 1150 3233 529 
Q 2819 -91 2034 -91 
Q 1250 -91 836 529 
Q 422 1150 422 2328 
Q 422 3509 836 4129 
Q 1250 4750 2034 4750 
z
" transform="scale(0.015625)"/>
        <path id="DejaVuSans-33" d="M 2597 2516 
Q 3050 2419 3304 2112 
Q 3559 1806 3559 1356 
Q 3559 666 3084 287 
Q 2609 -91 1734 -91 
Q 1441 -91 1130 -33 
Q 819 25 488 141 
L 488 750 
Q 750 597 1062 519 
Q 1375 441 1716 441 
Q 2309 441 2620 675 
Q 2931 909 2931 1356 
Q 2931 1769 2642 2001 
Q 2353 2234 1838 2234 
L 1294 2234 
L 1294 2753 
L 1863 2753 
Q 2328 2753 2575 2939 
Q 2822 3125 2822 3475 
Q 2822 3834 2567 4026 
Q 2313 4219 1838 4219 
Q 1578 4219 1281 4162 
Q 984 4106 628 3988 
L 628 4550 
Q 988 4650 1302 4700 
Q 1616 4750 1894 4750 
Q 2613 4750 3031 4423 
Q 3450 4097 3450 3541 
Q 3450 3153 3228 2886 
Q 3006 2619 2597 2516 
z
" transform="scale(0.015625)"/>
        <path id="DejaVuSans-2d" d="M 313 2009 
L 1997 2009 
L 1997 1497 
L 313 1497 
L 313 2009 
z
" transform="scale(0.015625)"/>
        <path id="DejaVuSans-31" d="M 794 531 
L 1825 531 
L 1825 4091 
L 703 3866 
L 703 4441 
L 1819 4666 
L 2450 4666 
L 2450 531 
L 3481 531 
L 3481 0 
L 794 0 
L 794 531 
z
" transform="scale(0.015625)"/>
       </defs>
       <use xlink:href="#DejaVuSans-32"/>
       <use xlink:href="#DejaVuSans-30" x="63.623047"/>
       <use xlink:href="#DejaVuSans-32" x="127.246094"/>
       <use xlink:href="#DejaVuSans-33" x="190.869141"/>
       <use xlink:href="#DejaVuSans-2d" x="254.492188"/>
       <use xlink:href="#DejaVuSans-30" x="290.576172"/>
       <use xlink:href="#DejaVuSans-31" x="354.199219"/>
       <use xlink:href="#DejaVuSans-2d" x="417.822266"/>
       <use xlink:href="#DejaVuSans-30" x="453.90625"/>
       <use xlink:href="#DejaVuSans-31" x="517.529297"/>
      </g>
     </g>
    </g>
    <g id="xtick_2">
     <g id="line2d_2">
      <g>
       <use xlink:href="#m0590519729" x="215.747918" y="395.28" style="stroke: #000000; stroke-width: 0.8"/>
      </g>
     </g>
     <g id="text_2">
      <!-- 2023-01-15 -->
      <g transform="translate(130.61889 495.213718) rotate(-45) scale(0.2 -0.2)">
       <defs>
        <path id="DejaVuSans-35" d="M 691 4666 
L 3169 4666 
L 3169 4134 
L 1269 4134 
L 1269 2991 
Q 1406 3038 1543 3061 
Q 1681 3084 1819 3084 
Q 2600 3084 3056 2656 
Q 3513 2228 3513 1497 
Q 3513 744 3044 326 
Q 2575 -91 1722 -91 
Q 1428 -91 1123 -41 
Q 819 9 494 109 
L 494 744 
Q 775 591 1075 516 
Q 1375 441 1709 441 
Q 2250 441 2565 725 
Q 2881 1009 2881 1497 
Q 2881 1984 2565 2268 
Q 2250 2553 1709 2553 
Q 1456 2553 1204 2497 
Q 953 2441 691 2322 
L 691 4666 
z
" transform="scale(0.015625)"/>
       </defs>
       <use xlink:href="#DejaVuSans-32"/>
       <use xlink:href="#DejaVuSans-30" x="63.623047"/>
       <use xlink:href="#DejaVuSans-32" x="127.246094"/>
       <use xlink:href="#DejaVuSans-33" x="190.869141"/>
       <use xlink:href="#DejaVuSans-2d" x="254.492188"/>
       <use xlink:href="#DejaVuSans-30" x="290.576172"/>
       <use xlink:href="#DejaVuSans-31" x="354.199219"/>
       <use xlink:href="#DejaVuSans-2d" x="417.822266"/>
       <use xlink:href="#DejaVuSans-31" x="453.90625"/>
       <use xlink:href="#DejaVuSans-35" x="517.529297"/>
      </g>
     </g>
    </g>
    <g id="xtick_3">
     <g id="line2d_3">
      <g>
       <use xlink:href="#m0590519729" x="328.420995" y="395.28" style="stroke: #000000; stroke-width: 0.8"/>
      </g>
     </g>
     <g id="text_3">
      <!-- 2023-01-29 -->
      <g transform="translate(243.291967 495.213718) rotate(-45) scale(0.2 -0.2)">
       <defs>
        <path id="DejaVuSans-39" d="M 703 97 
L 703 672 
Q 941 559 1184 500 
Q 1428 441 1663 441 
Q 2288 441 2617 861 
Q 2947 1281 2994 2138 
Q 2813 1869 2534 1725 
Q 2256 1581 1919 1581 
Q 1219 1581 811 2004 
Q 403 2428 403 3163 
Q 403 3881 828 4315 
Q 1253 4750 1959 4750 
Q 2769 4750 3195 4129 
Q 3622 3509 3622 2328 
Q 3622 1225 3098 567 
Q 2575 -91 1691 -91 
Q 1453 -91 1209 -44 
Q 966 3 703 97 
z
M 1959 2075 
Q 2384 2075 2632 2365 
Q 2881 2656 2881 3163 
Q 2881 3666 2632 3958 
Q 2384 4250 1959 4250 
Q 1534 4250 1286 3958 
Q 1038 3666 1038 3163 
Q 1038 2656 1286 2365 
Q 1534 2075 1959 2075 
z
" transform="scale(0.015625)"/>
       </defs>
       <use xlink:href="#DejaVuSans-32"/>
       <use xlink:href="#DejaVuSans-30" x="63.623047"/>
       <use xlink:href="#DejaVuSans-32" x="127.246094"/>
       <use xlink:href="#DejaVuSans-33" x="190.869141"/>
       <use xlink:href="#DejaVuSans-2d" x="254.492188"/>
       <use xlink:href="#DejaVuSans-30" x="290.576172"/>
       <use xlink:href="#DejaVuSans-31" x="354.199219"/>
       <use xlink:href="#DejaVuSans-2d" x="417.822266"/>
       <use xlink:href="#DejaVuSans-32" x="453.90625"/>
       <use xlink:href="#DejaVuSans-39" x="517.529297"/>
      </g>
     </g>
    </g>
    <g id="xtick_4">
     <g id="line2d_4">
      <g>
       <use xlink:href="#m0590519729" x="441.094071" y="395.28" style="stroke: #000000; stroke-width: 0.8"/>
      </g>
     </g>
     <g id="text_4">
      <!-- 2023-02-12 -->
      <g transform="translate(355.965044 495.213718) rotate(-45) scale(0.2 -0.2)">
       <use xlink:href="#DejaVuSans-32"/>
       <use xlink:href="#DejaVuSans-30" x="63.623047"/>
       <use xlink:href="#DejaVuSans-32" x="127.246094"/>
       <use xlink:href="#DejaVuSans-33" x="190.869141"/>
       <use xlink:href="#DejaVuSans-2d" x="254.492188"/>
       <use xlink:href="#DejaVuSans-30" x="290.576172"/>
       <use xlink:href="#DejaVuSans-32" x="354.199219"/>
       <use xlink:href="#DejaVuSans-2d" x="417.822266"/>
       <use xlink:href="#DejaVuSans-31" x="453.90625"/>
       <use xlink:href="#DejaVuSans-32" x="517.529297"/>
      </g>
     </g>
    </g>
    <g id="xtick_5">
     <g id="line2d_5">
      <g>
       <use xlink:href="#m0590519729" x="553.767148" y="395.28" style="stroke: #000000; stroke-width: 0.8"/>
      </g>
     </g>
     <g id="text_5">
      <!-- 2023-02-26 -->
      <g transform="translate(468.638121 495.213718) rotate(-45) scale(0.2 -0.2)">
       <defs>
        <path id="DejaVuSans-36" d="M 2113 2584 
Q 1688 2584 1439 2293 
Q 1191 2003 1191 1497 
Q 1191 994 1439 701 
Q 1688 409 2113 409 
Q 2538 409 2786 701 
Q 3034 994 3034 1497 
Q 3034 2003 2786 2293 
Q 2538 2584 2113 2584 
z
M 3366 4563 
L 3366 3988 
Q 3128 4100 2886 4159 
Q 2644 4219 2406 4219 
Q 1781 4219 1451 3797 
Q 1122 3375 1075 2522 
Q 1259 2794 1537 2939 
Q 1816 3084 2150 3084 
Q 2853 3084 3261 2657 
Q 3669 2231 3669 1497 
Q 3669 778 3244 343 
Q 2819 -91 2113 -91 
Q 1303 -91 875 529 
Q 447 1150 447 2328 
Q 447 3434 972 4092 
Q 1497 4750 2381 4750 
Q 2619 4750 2861 4703 
Q 3103 4656 3366 4563 
z
" transform="scale(0.015625)"/>
       </defs>
       <use xlink:href="#DejaVuSans-32"/>
       <use xlink:href="#DejaVuSans-30" x="63.623047"/>
       <use xlink:href="#DejaVuSans-32" x="127.246094"/>
       <use xlink:href="#DejaVuSans-33" x="190.869141"/>
       <use xlink:href="#DejaVuSans-2d" x="254.492188"/>
       <use xlink:href="#DejaVuSans-30" x="290.576172"/>
       <use xlink:href="#DejaVuSans-32" x="354.199219"/>
       <use xlink:href="#DejaVuSans-2d" x="417.822266"/>
       <use xlink:href="#DejaVuSans-32" x="453.90625"/>
       <use xlink:href="#DejaVuSans-36" x="517.529297"/>
      </g>
     </g>
    </g>
    <g id="xtick_6">
     <g id="line2d_6">
      <g>
       <use xlink:href="#m0590519729" x="666.440225" y="395.28" style="stroke: #000000; stroke-width: 0.8"/>
      </g>
     </g>
     <g id="text_6">
      <!-- 2023-03-12 -->
      <g transform="translate(581.311198 495.213718) rotate(-45) scale(0.2 -0.2)">
       <use xlink:href="#DejaVuSans-32"/>
       <use xlink:href="#DejaVuSans-30" x="63.623047"/>
       <use xlink:href="#DejaVuSans-32" x="127.246094"/>
       <use xlink:href="#DejaVuSans-33" x="190.869141"/>
       <use xlink:href="#DejaVuSans-2d" x="254.492188"/>
       <use xlink:href="#DejaVuSans-30" x="290.576172"/>
       <use xlink:href="#DejaVuSans-33" x="354.199219"/>
       <use xlink:href="#DejaVuSans-2d" x="417.822266"/>
       <use xlink:href="#DejaVuSans-31" x="453.90625"/>
       <use xlink:href="#DejaVuSans-32" x="517.529297"/>
      </g>
     </g>
    </g>
    <g id="xtick_7">
     <g id="line2d_7">
      <g>
       <use xlink:href="#m0590519729" x="779.113302" y="395.28" style="stroke: #000000; stroke-width: 0.8"/>
      </g>
     </g>
     <g id="text_7">
      <!-- 2023-03-26 -->
      <g transform="translate(693.984275 495.213718) rotate(-45) scale(0.2 -0.2)">
       <use xlink:href="#DejaVuSans-32"/>
       <use xlink:href="#DejaVuSans-30" x="63.623047"/>
       <use xlink:href="#DejaVuSans-32" x="127.246094"/>
       <use xlink:href="#DejaVuSans-33" x="190.869141"/>
       <use xlink:href="#DejaVuSans-2d" x="254.492188"/>
       <use xlink:href="#DejaVuSans-30" x="290.576172"/>
       <use xlink:href="#DejaVuSans-33" x="354.199219"/>
       <use xlink:href="#DejaVuSans-2d" x="417.822266"/>
       <use xlink:href="#DejaVuSans-32" x="453.90625"/>
       <use xlink:href="#DejaVuSans-36" x="517.529297"/>
      </g>
     </g>
    </g>
    <g id="xtick_8">
     <g id="line2d_8">
      <g>
       <use xlink:href="#m0590519729" x="891.786379" y="395.28" style="stroke: #000000; stroke-width: 0.8"/>
      </g>
     </g>
     <g id="text_8">
      <!-- 2023-04-09 -->
      <g transform="translate(806.657352 495.213718) rotate(-45) scale(0.2 -0.2)">
       <defs>
        <path id="DejaVuSans-34" d="M 2419 4116 
L 825 1625 
L 2419 1625 
L 2419 4116 
z
M 2253 4666 
L 3047 4666 
L 3047 1625 
L 3713 1625 
L 3713 1100 
L 3047 1100 
L 3047 0 
L 2419 0 
L 2419 1100 
L 313 1100 
L 313 1709 
L 2253 4666 
z
" transform="scale(0.015625)"/>
       </defs>
       <use xlink:href="#DejaVuSans-32"/>
       <use xlink:href="#DejaVuSans-30" x="63.623047"/>
       <use xlink:href="#DejaVuSans-32" x="127.246094"/>
       <use xlink:href="#DejaVuSans-33" x="190.869141"/>
       <use xlink:href="#DejaVuSans-2d" x="254.492188"/>
       <use xlink:href="#DejaVuSans-30" x="290.576172"/>
       <use xlink:href="#DejaVuSans-34" x="354.199219"/>
       <use xlink:href="#DejaVuSans-2d" x="417.822266"/>
       <use xlink:href="#DejaVuSans-30" x="453.90625"/>
       <use xlink:href="#DejaVuSans-39" x="517.529297"/>
      </g>
     </g>
    </g>
    <g id="xtick_9">
     <g id="line2d_9">
      <g>
       <use xlink:href="#m0590519729" x="940.074841" y="395.28" style="stroke: #000000; stroke-width: 0.8"/>
      </g>
     </g>
     <g id="text_9">
      <!-- 2023-04-15 -->
      <g transform="translate(854.945813 495.213718) rotate(-45) scale(0.2 -0.2)">
       <use xlink:href="#DejaVuSans-32"/>
       <use xlink:href="#DejaVuSans-30" x="63.623047"/>
       <use xlink:href="#DejaVuSans-32" x="127.246094"/>
       <use xlink:href="#DejaVuSans-33" x="190.869141"/>
       <use xlink:href="#DejaVuSans-2d" x="254.492188"/>
       <use xlink:href="#DejaVuSans-30" x="290.576172"/>
       <use xlink:href="#DejaVuSans-34" x="354.199219"/>
       <use xlink:href="#DejaVuSans-2d" x="417.822266"/>
       <use xlink:href="#DejaVuSans-31" x="453.90625"/>
       <use xlink:href="#DejaVuSans-35" x="517.529297"/>
      </g>
     </g>
    </g>
   </g>
   <g id="matplotlib.axis_2">
    <g id="ytick_1">
     <g id="line2d_10">
      <defs>
       <path id="m18cf9364fa" d="M 0 0 
L -3.5 0 
" style="stroke: #000000; stroke-width: 0.8"/>
      </defs>
      <g>
       <use xlink:href="#m18cf9364fa" x="103.074841" y="377.713394" style="stroke: #000000; stroke-width: 0.8"/>
      </g>
     </g>
     <g id="text_10">
      <!-- 0.00 -->
      <g transform="translate(51.543591 385.311831) scale(0.2 -0.2)">
       <defs>
        <path id="DejaVuSans-2e" d="M 684 794 
L 1344 794 
L 1344 0 
L 684 0 
L 684 794 
z
" transform="scale(0.015625)"/>
       </defs>
       <use xlink:href="#DejaVuSans-30"/>
       <use xlink:href="#DejaVuSans-2e" x="63.623047"/>
       <use xlink:href="#DejaVuSans-30" x="95.410156"/>
       <use xlink:href="#DejaVuSans-30" x="159.033203"/>
      </g>
     </g>
    </g>
    <g id="ytick_2">
     <g id="line2d_11">
      <g>
       <use xlink:href="#m18cf9364fa" x="103.074841" y="302.970145" style="stroke: #000000; stroke-width: 0.8"/>
      </g>
     </g>
     <g id="text_11">
      <!-- 0.05 -->
      <g transform="translate(51.543591 310.568583) scale(0.2 -0.2)">
       <use xlink:href="#DejaVuSans-30"/>
       <use xlink:href="#DejaVuSans-2e" x="63.623047"/>
       <use xlink:href="#DejaVuSans-30" x="95.410156"/>
       <use xlink:href="#DejaVuSans-35" x="159.033203"/>
      </g>
     </g>
    </g>
    <g id="ytick_3">
     <g id="line2d_12">
      <g>
       <use xlink:href="#m18cf9364fa" x="103.074841" y="228.226897" style="stroke: #000000; stroke-width: 0.8"/>
      </g>
     </g>
     <g id="text_12">
      <!-- 0.10 -->
      <g transform="translate(51.543591 235.825334) scale(0.2 -0.2)">
       <use xlink:href="#DejaVuSans-30"/>
       <use xlink:href="#DejaVuSans-2e" x="63.623047"/>
       <use xlink:href="#DejaVuSans-31" x="95.410156"/>
       <use xlink:href="#DejaVuSans-30" x="159.033203"/>
      </g>
     </g>
    </g>
    <g id="ytick_4">
     <g id="line2d_13">
      <g>
       <use xlink:href="#m18cf9364fa" x="103.074841" y="153.483648" style="stroke: #000000; stroke-width: 0.8"/>
      </g>
     </g>
     <g id="text_13">
      <!-- 0.15 -->
      <g transform="translate(51.543591 161.082086) scale(0.2 -0.2)">
       <use xlink:href="#DejaVuSans-30"/>
       <use xlink:href="#DejaVuSans-2e" x="63.623047"/>
       <use xlink:href="#DejaVuSans-31" x="95.410156"/>
       <use xlink:href="#DejaVuSans-35" x="159.033203"/>
      </g>
     </g>
    </g>
    <g id="ytick_5">
     <g id="line2d_14">
      <g>
       <use xlink:href="#m18cf9364fa" x="103.074841" y="78.7404" style="stroke: #000000; stroke-width: 0.8"/>
      </g>
     </g>
     <g id="text_14">
      <!-- 0.20 -->
      <g transform="translate(51.543591 86.338837) scale(0.2 -0.2)">
       <use xlink:href="#DejaVuSans-30"/>
       <use xlink:href="#DejaVuSans-2e" x="63.623047"/>
       <use xlink:href="#DejaVuSans-32" x="95.410156"/>
       <use xlink:href="#DejaVuSans-30" x="159.033203"/>
      </g>
     </g>
    </g>
   </g>
   <g id="line2d_15">
    <path d="M 0 0 
" clip-path="url(#p157b1c56d5)" style="fill: none; stroke: #ffa500; stroke-width: 1.5; stroke-linecap: square"/>
   </g>
   <g id="line2d_16">
    <path d="M 103.074841 377.713394 
L 948.274841 377.713394 
" clip-path="url(#p157b1c56d5)" style="fill: none; stroke-dasharray: 7.4,3.2; stroke-dashoffset: 0; stroke: #000000; stroke-width: 2"/>
   </g>
   <g id="patch_3">
    <path d="M 103.074841 395.28 
L 103.074841 7.2 
" style="fill: none; stroke: #000000; stroke-width: 0.8; stroke-linejoin: miter; stroke-linecap: square"/>
   </g>
   <g id="patch_4">
    <path d="M 940.074841 395.28 
L 940.074841 7.2 
" style="fill: none; stroke: #000000; stroke-width: 0.8; stroke-linejoin: miter; stroke-linecap: square"/>
   </g>
   <g id="patch_5">
    <path d="M 103.074841 395.28 
L 940.074841 395.28 
" style="fill: none; stroke: #000000; stroke-width: 0.8; stroke-linejoin: miter; stroke-linecap: square"/>
   </g>
   <g id="patch_6">
    <path d="M 103.074841 7.2 
L 940.074841 7.2 
" style="fill: none; stroke: #000000; stroke-width: 0.8; stroke-linejoin: miter; stroke-linecap: square"/>
   </g>
  </g>
 </g>
 <defs>
  <clipPath id="p157b1c56d5">
   <rect x="103.074841" y="7.2" width="837" height="388.08"/>
  </clipPath>
 </defs>
</svg>
