<?xml version="1.0" encoding="utf-8" standalone="no"?>
<!DOCTYPE svg PUBLIC "-//W3C//DTD SVG 1.1//EN"
  "http://www.w3.org/Graphics/SVG/1.1/DTD/svg11.dtd">
<svg xmlns:xlink="http://www.w3.org/1999/xlink" width="947.274841pt" height="505.354841pt" viewBox="0 0 947.274841 505.354841" xmlns="http://www.w3.org/2000/svg" version="1.1">
 <metadata>
  <rdf:RDF xmlns:dc="http://purl.org/dc/elements/1.1/" xmlns:cc="http://creativecommons.org/ns#" xmlns:rdf="http://www.w3.org/1999/02/22-rdf-syntax-ns#">
   <cc:Work>
    <dc:type rdf:resource="http://purl.org/dc/dcmitype/StillImage"/>
    <dc:date>2023-11-21T19:32:35.537531</dc:date>
    <dc:format>image/svg+xml</dc:format>
    <dc:creator>
     <cc:Agent>
      <dc:title>Matplotlib v3.7.2, https://matplotlib.org/</dc:title>
     </cc:Agent>
    </dc:creator>
   </cc:Work>
  </rdf:RDF>
 </metadata>
 <defs>
  <style type="text/css">*{stroke-linejoin: round; stroke-linecap: butt}</style>
 </defs>
 <g id="figure_1">
  <g id="patch_1">
   <path d="M 0 505.354841 
L 947.274841 505.354841 
L 947.274841 -0 
L 0 -0 
z
" style="fill: #ffffff"/>
  </g>
  <g id="axes_1">
   <g id="patch_2">
    <path d="M 103.074841 395.28 
L 940.074841 395.28 
L 940.074841 7.2 
L 103.074841 7.2 
z
" style="fill: #ffffff"/>
   </g>
   <g id="PolyCollection_1">
    <path d="M -393.000769 283.829188 
L -393.000769 283.851019 
L -390.959306 283.742246 
L -388.917842 283.649061 
L -386.876379 283.529649 
L -384.834915 283.44277 
L -382.793452 283.346026 
L -380.751989 283.237932 
L -378.710525 283.133269 
L -376.669062 283.03691 
L -374.627598 282.953133 
L -372.586135 282.853911 
L -370.544672 282.746058 
L -368.503208 282.639361 
L -366.461745 282.519574 
L -364.420281 282.417199 
L -362.378818 282.299689 
L -360.337354 282.182984 
L -358.295891 282.055451 
L -356.254428 281.940656 
L -354.212964 281.829426 
L -352.171501 281.697398 
L -350.130037 281.568277 
L -348.088574 281.442968 
L -346.047111 281.293766 
L -344.005647 281.163852 
L -341.964184 281.00565 
L -339.92272 280.85465 
L -337.881257 280.679573 
L -335.839793 280.498228 
L -333.79833 280.324926 
L -331.756867 280.130919 
L -329.715403 279.905182 
L -327.67394 279.704333 
L -325.632476 279.476063 
L -323.591013 279.214386 
L -321.54955 278.963735 
L -319.508086 278.687793 
L -317.466623 278.397395 
L -315.425159 278.100981 
L -313.383696 277.774655 
L -311.342232 277.423196 
L -309.300769 277.059684 
L -307.259306 276.673516 
L -305.217842 276.276756 
L -303.176379 275.849208 
L -301.134915 275.426543 
L -299.093452 274.967678 
L -297.051989 274.523428 
L -295.010525 274.031127 
L -292.969062 273.506852 
L -290.927598 273.008646 
L -288.886135 272.477107 
L -286.844672 271.915029 
L -284.803208 271.363939 
L -282.761745 270.804142 
L -280.720281 270.21861 
L -278.678818 269.627138 
L -276.637354 269.030297 
L -274.595891 268.408687 
L -272.554428 267.779167 
L -270.512964 267.151822 
L -268.471501 266.503285 
L -266.430037 265.850789 
L -264.388574 265.203566 
L -262.347111 264.522095 
L -260.305647 263.831704 
L -258.264184 263.141253 
L -256.22272 262.452275 
L -254.181257 261.769162 
L -252.139793 261.067351 
L -250.09833 260.377522 
L -248.056867 259.675603 
L -246.015403 259.030791 
L -243.97394 258.294445 
L -241.932476 257.616225 
L -239.891013 256.91995 
L -237.84955 256.261929 
L -235.808086 255.562369 
L -233.766623 254.893924 
L -231.725159 254.215787 
L -229.683696 253.540166 
L -227.642232 252.883068 
L -225.600769 252.22217 
L -223.559306 251.583356 
L -221.517842 250.909606 
L -219.476379 250.229241 
L -217.434915 249.577994 
L -215.393452 248.938853 
L -213.351989 248.252319 
L -211.310525 247.594152 
L -209.269062 246.928454 
L -207.227598 246.273396 
L -205.186135 245.633254 
L -203.144672 244.976216 
L -201.103208 244.312689 
L -199.061745 243.714039 
L -197.020281 243.037388 
L -194.978818 242.388726 
L -192.937354 241.750505 
L -190.895891 241.111447 
L -188.854428 240.474003 
L -186.812964 239.828594 
L -184.771501 239.212132 
L -182.730037 238.572016 
L -180.688574 237.916267 
L -178.647111 237.253468 
L -176.605647 236.583943 
L -174.564184 235.956167 
L -172.52272 235.266234 
L -170.481257 234.533201 
L -168.439793 233.836755 
L -166.39833 233.116214 
L -164.356867 232.379041 
L -162.315403 231.601375 
L -160.27394 230.809788 
L -158.232476 230.072255 
L -156.191013 229.235237 
L -154.14955 228.438277 
L -152.108086 227.580966 
L -150.066623 226.791437 
L -148.025159 225.867874 
L -145.983696 224.960819 
L -143.942232 224.079011 
L -141.900769 223.18209 
L -139.859306 222.258427 
L -137.817842 221.293452 
L -135.776379 220.38731 
L -133.734915 219.351885 
L -131.693452 218.438678 
L -129.651989 217.373334 
L -127.610525 216.341099 
L -125.569062 215.331577 
L -123.527598 214.269903 
L -121.486135 213.192057 
L -119.444672 212.208119 
L -117.403208 210.916444 
L -115.361745 209.801476 
L -113.320281 208.760111 
L -111.278818 207.58699 
L -109.237354 206.344469 
L -107.195891 204.985969 
L -105.154428 203.701544 
L -103.112964 202.616724 
L -101.071501 200.908569 
L -99.030037 199.531757 
L -96.988574 198.123685 
L -94.947111 196.665444 
L -92.905647 195.005292 
L -90.864184 193.406533 
L -88.82272 192.227154 
L -86.781257 190.736113 
L -84.739793 188.243437 
L -82.69833 186.172342 
L -80.656867 184.595567 
L -78.615403 182.561934 
L -76.57394 180.624417 
L -74.532476 179.13316 
L -72.491013 176.779781 
L -70.44955 174.367884 
L -68.408086 172.95395 
L -66.366623 172.088204 
L -64.325159 170.21713 
L -62.283696 169.29897 
L -60.242232 168.398757 
L -58.200769 166.00785 
L -56.159306 166.252267 
L -54.117842 167.285938 
L -52.076379 168.985221 
L -50.034915 166.778599 
L -47.993452 170.698448 
L -45.951989 171.9707 
L -43.910525 166.593509 
L -41.869062 167.103414 
L -39.827598 170.050678 
L -37.786135 168.403356 
L -35.744672 168.82016 
L -33.703208 179.490271 
L -31.661745 194.314871 
L -29.620281 202.337421 
L -27.578818 185.239513 
L -25.537354 193.566502 
L -23.495891 204.72697 
L -21.454428 204.635269 
L -19.412964 226.963341 
L -17.371501 223.590248 
L -15.330037 217.66694 
L -13.288574 199.596191 
L -11.247111 215.800913 
L -9.205647 225.353167 
L -7.164184 221.401677 
L -5.12272 224.163611 
L -3.081257 233.489888 
L -1.039793 232.213675 
L 1.00167 223.878937 
L 3.043133 233.93543 
L 5.084597 235.790762 
L 7.12606 232.053256 
L 9.167524 238.535999 
L 11.208987 241.025768 
L 13.25045 240.159662 
L 15.291914 238.276067 
L 17.333377 240.439658 
L 19.374841 238.348569 
L 21.416304 238.569177 
L 23.457768 240.481597 
L 25.499231 238.625961 
L 27.540694 239.581592 
L 29.582158 239.66731 
L 31.623621 238.175054 
L 33.665085 238.77892 
L 35.706548 236.487963 
L 37.748011 236.727174 
L 39.789475 237.36279 
L 41.830938 237.404943 
L 43.872402 236.346804 
L 45.913865 235.422664 
L 47.955328 235.177534 
L 49.996792 234.228724 
L 52.038255 234.083226 
L 54.079719 233.809651 
L 56.121182 232.39951 
L 58.162646 233.143708 
L 60.204109 232.075427 
L 62.245572 231.640087 
L 64.287036 231.678925 
L 66.328499 230.711568 
L 68.369963 230.55518 
L 70.411426 230.936131 
L 72.452889 231.35646 
L 74.494353 229.762603 
L 76.535816 229.452745 
L 78.57728 228.995623 
L 80.618743 231.670953 
L 82.660207 231.713385 
L 84.70167 232.764104 
L 86.743133 230.241969 
L 88.784597 228.625584 
L 90.82606 229.166372 
L 92.867524 230.935536 
L 94.908987 231.246813 
L 96.95045 228.013042 
L 98.991914 230.789158 
L 101.033377 229.934971 
L 103.074841 229.714818 
L 105.116304 228.240082 
L 107.157768 229.376127 
L 109.199231 228.635814 
L 111.240694 229.399182 
L 113.282158 228.565363 
L 115.323621 227.503406 
L 117.365085 226.254648 
L 119.406548 225.701709 
L 121.448011 224.939966 
L 123.489475 224.158959 
L 125.530938 224.125179 
L 127.572402 223.225804 
L 129.613865 222.394031 
L 131.655328 220.416793 
L 133.696792 218.636699 
L 135.738255 217.846766 
L 137.779719 216.033786 
L 139.821182 215.597631 
L 141.862646 213.985644 
L 143.904109 211.792658 
L 145.945572 209.807419 
L 147.987036 208.352559 
L 150.028499 205.965304 
L 152.069963 204.524585 
L 154.111426 202.281477 
L 156.152889 200.064574 
L 158.194353 198.075795 
L 160.235816 195.938431 
L 162.27728 193.474636 
L 164.318743 191.06182 
L 166.360207 188.675541 
L 168.40167 185.773375 
L 170.443133 183.200947 
L 172.484597 180.966442 
L 174.52606 178.543848 
L 176.567524 175.859158 
L 178.608987 173.164697 
L 180.65045 170.404377 
L 182.691914 166.779853 
L 184.733377 164.376057 
L 186.774841 161.518352 
L 188.816304 159.272428 
L 190.857768 155.90556 
L 192.899231 152.67237 
L 194.940694 150.245549 
L 196.982158 146.785556 
L 199.023621 143.126436 
L 201.065085 140.380046 
L 203.106548 136.663145 
L 205.148011 133.980178 
L 207.189475 130.649479 
L 209.230938 126.410267 
L 211.272402 123.010994 
L 213.313865 120.575604 
L 215.355328 116.53411 
L 217.396792 113.257828 
L 219.438255 109.38054 
L 221.479719 106.651495 
L 223.521182 102.167406 
L 225.562646 98.503949 
L 227.604109 98.85195 
L 229.645572 91.733174 
L 231.687036 90.363278 
L 233.728499 86.208358 
L 235.769963 84.187106 
L 237.811426 79.880383 
L 239.852889 76.897017 
L 241.894353 73.581591 
L 243.935816 70.895459 
L 245.97728 68.185861 
L 248.018743 64.9612 
L 250.060207 66.8428 
L 252.10167 58.115851 
L 254.143133 56.774612 
L 256.184597 60.512947 
L 258.22606 52.240693 
L 260.267524 53.66434 
L 262.308987 52.555704 
L 264.35045 47.309255 
L 266.391914 47.583133 
L 268.433377 53.678175 
L 270.474841 47.884236 
L 272.516304 47.152378 
L 274.557768 49.061094 
L 276.599231 48.822785 
L 278.640694 51.106523 
L 280.682158 54.204182 
L 282.723621 58.688005 
L 284.765085 73.536801 
L 286.806548 67.788457 
L 288.848011 75.713684 
L 290.889475 80.441839 
L 292.930938 83.843571 
L 294.972402 89.218926 
L 297.013865 94.691704 
L 299.055328 87.044463 
L 301.096792 93.775541 
L 303.138255 104.405468 
L 305.179719 110.66372 
L 307.221182 113.299258 
L 309.262646 131.385259 
L 311.304109 132.673017 
L 313.345572 136.641011 
L 315.387036 135.815886 
L 317.428499 150.290317 
L 319.469963 146.411253 
L 321.511426 143.030735 
L 323.552889 156.420816 
L 325.594353 164.75924 
L 327.635816 164.274911 
L 329.67728 170.376198 
L 331.718743 172.024694 
L 333.760207 172.7328 
L 335.80167 172.892599 
L 337.843133 174.772832 
L 339.884597 177.229355 
L 341.92606 186.427062 
L 343.967524 180.5664 
L 346.008987 188.498481 
L 348.05045 187.412442 
L 350.091914 186.11632 
L 352.133377 189.30834 
L 354.174841 192.111268 
L 356.216304 187.848396 
L 358.257768 191.457182 
L 360.299231 191.380565 
L 362.340694 195.268183 
L 364.382158 193.909296 
L 366.423621 192.273794 
L 368.465085 194.412772 
L 370.506548 194.752222 
L 372.548011 194.258695 
L 374.589475 193.151021 
L 376.630938 194.21396 
L 378.672402 191.706786 
L 380.713865 192.404242 
L 382.755328 195.981858 
L 384.796792 195.595004 
L 386.838255 192.947938 
L 388.879719 193.168729 
L 390.921182 192.855807 
L 392.962646 189.370028 
L 395.004109 190.895644 
L 397.045572 193.291352 
L 399.087036 189.900503 
L 401.128499 189.580273 
L 403.169963 187.951584 
L 405.211426 188.949238 
L 407.252889 188.59832 
L 409.294353 187.499534 
L 411.335816 187.114498 
L 413.37728 186.648343 
L 415.418743 185.627125 
L 417.460207 183.277134 
L 419.50167 182.575155 
L 421.543133 181.129553 
L 423.584597 177.421401 
L 425.62606 180.449784 
L 427.667524 176.14251 
L 429.708987 177.392574 
L 431.75045 177.197412 
L 433.791914 177.425497 
L 435.833377 175.174296 
L 437.874841 175.585085 
L 439.916304 175.367438 
L 441.957768 171.039288 
L 443.999231 172.291869 
L 446.040694 171.661774 
L 448.082158 172.444977 
L 450.123621 169.638226 
L 452.165085 170.625227 
L 454.206548 169.906904 
L 456.248011 165.808289 
L 458.289475 165.491866 
L 460.330938 164.458424 
L 462.372402 164.098918 
L 464.413865 162.196477 
L 466.455328 162.392923 
L 468.496792 161.494652 
L 470.538255 160.78591 
L 472.579719 159.511456 
L 474.621182 157.363739 
L 476.662646 159.416596 
L 478.704109 158.806496 
L 480.745572 157.133734 
L 482.787036 156.099838 
L 484.828499 153.420471 
L 486.869963 155.524475 
L 488.911426 154.93581 
L 490.952889 154.756882 
L 492.994353 153.21212 
L 495.035816 151.503046 
L 497.07728 150.316912 
L 499.118743 150.252553 
L 501.160207 149.862522 
L 503.20167 149.625299 
L 505.243133 147.463114 
L 507.284597 145.456099 
L 509.32606 147.84818 
L 511.367524 144.836368 
L 513.408987 145.1602 
L 515.45045 146.019081 
L 517.491914 141.404841 
L 519.533377 142.030175 
L 521.574841 142.696549 
L 523.616304 141.023778 
L 525.657768 143.00798 
L 527.699231 140.01014 
L 529.740694 137.786339 
L 531.782158 140.835967 
L 533.823621 140.860863 
L 535.865085 138.946793 
L 537.906548 139.912425 
L 539.948011 138.860366 
L 541.989475 143.484559 
L 544.030938 142.53386 
L 546.072402 143.163683 
L 548.113865 139.406644 
L 550.155328 136.874929 
L 552.196792 140.552549 
L 554.238255 144.66417 
L 556.279719 140.39567 
L 558.321182 140.261833 
L 560.362646 137.258849 
L 562.404109 138.082323 
L 564.445572 140.335401 
L 566.487036 138.118673 
L 568.528499 135.963942 
L 570.569963 140.539121 
L 572.611426 137.884778 
L 574.652889 141.912972 
L 576.694353 142.970289 
L 578.735816 137.051139 
L 580.77728 138.186288 
L 582.818743 136.488689 
L 584.860207 138.4493 
L 586.90167 140.997855 
L 588.943133 147.851605 
L 590.984597 150.526508 
L 593.02606 147.946131 
L 595.067524 154.638116 
L 597.108987 164.81097 
L 599.15045 152.994688 
L 601.191914 148.975635 
L 603.233377 153.381474 
L 605.274841 157.237415 
L 607.316304 158.044202 
L 609.357768 155.89759 
L 611.399231 163.728382 
L 613.440694 168.509872 
L 615.482158 160.051756 
L 617.523621 167.998474 
L 619.565085 164.438935 
L 621.606548 164.625373 
L 623.648011 171.923618 
L 625.689475 170.031601 
L 627.730938 175.933473 
L 629.772402 176.615121 
L 631.813865 168.826043 
L 633.855328 175.438691 
L 635.896792 175.260463 
L 637.938255 180.557417 
L 639.979719 178.758744 
L 642.021182 185.096541 
L 644.062646 181.165946 
L 646.104109 184.992142 
L 648.145572 185.596979 
L 650.187036 187.92811 
L 652.228499 182.268285 
L 654.269963 189.327609 
L 656.311426 191.583941 
L 658.352889 194.603415 
L 660.394353 199.59721 
L 662.435816 198.303971 
L 664.47728 197.367838 
L 666.518743 201.808937 
L 668.560207 205.739163 
L 670.60167 202.421329 
L 672.643133 200.894422 
L 674.684597 205.15104 
L 676.72606 208.112734 
L 678.767524 203.249379 
L 680.808987 202.368398 
L 682.85045 212.101462 
L 684.891914 215.663966 
L 686.933377 206.613218 
L 688.974841 209.669293 
L 691.016304 211.779672 
L 693.057768 213.482956 
L 695.099231 219.558267 
L 697.140694 217.373977 
L 699.182158 214.30714 
L 701.223621 218.647674 
L 703.265085 221.146093 
L 705.306548 215.240233 
L 707.348011 216.664191 
L 709.389475 216.531234 
L 711.430938 226.334963 
L 713.472402 232.451016 
L 715.513865 233.446625 
L 717.555328 226.035761 
L 719.596792 222.999504 
L 721.638255 225.572599 
L 723.679719 226.342106 
L 725.721182 235.180334 
L 727.762646 224.980134 
L 729.804109 233.921891 
L 731.845572 239.562205 
L 733.887036 234.723205 
L 735.928499 244.102866 
L 737.969963 238.640373 
L 740.011426 240.954165 
L 742.052889 242.053641 
L 744.094353 244.299932 
L 746.135816 249.077558 
L 748.17728 246.404984 
L 750.218743 249.430932 
L 752.260207 251.043668 
L 754.30167 251.331126 
L 756.343133 240.835733 
L 758.384597 256.644874 
L 760.42606 262.262092 
L 762.467524 256.716666 
L 764.508987 261.302289 
L 766.55045 263.145702 
L 768.591914 260.590523 
L 770.633377 265.713089 
L 772.674841 272.272059 
L 774.716304 270.654755 
L 776.757768 272.51584 
L 778.799231 274.949149 
L 780.840694 275.634006 
L 782.882158 280.022308 
L 784.923621 271.487626 
L 786.965085 284.254602 
L 789.006548 284.364326 
L 791.048011 283.429765 
L 793.089475 277.064452 
L 795.130938 287.6799 
L 797.172402 297.226011 
L 799.213865 287.634354 
L 801.255328 289.24957 
L 803.296792 300.847394 
L 805.338255 281.35635 
L 807.379719 298.600797 
L 809.421182 287.546242 
L 811.462646 311.404601 
L 813.504109 296.464305 
L 815.545572 309.38007 
L 817.587036 311.65601 
L 819.628499 320.218965 
L 821.669963 320.090657 
L 823.711426 314.548532 
L 825.752889 314.70572 
L 827.794353 324.822137 
L 829.835816 336.021078 
L 831.87728 336.192297 
L 833.918743 333.080869 
L 835.960207 346.981665 
L 838.00167 345.564238 
L 840.043133 341.351473 
L 842.084597 336.101767 
L 844.12606 357.799014 
L 846.167524 358.389767 
L 848.208987 363.144905 
L 850.25045 353.972944 
L 852.291914 332.684843 
L 854.333377 359.940638 
L 856.374841 350.552207 
L 858.416304 357.320729 
L 860.457768 364.554018 
L 862.499231 353.336392 
L 864.540694 369.257973 
L 866.582158 356.728321 
L 868.623621 356.45318 
L 870.665085 362.320269 
L 872.706548 368.198712 
L 874.748011 365.262028 
L 876.789475 364.616192 
L 878.830938 357.746113 
L 880.872402 360.523294 
L 882.913865 364.997205 
L 884.955328 362.120482 
L 886.996792 370.267524 
L 889.038255 364.717431 
L 891.079719 371.893127 
L 893.121182 377.634457 
L 895.162646 377.64 
L 897.204109 370.749673 
L 899.245572 370.520091 
L 901.287036 370.492531 
L 903.328499 373.218479 
L 905.369963 372.964977 
L 907.411426 362.314654 
L 909.452889 371.610367 
L 911.494353 316.517422 
L 913.535816 371.806516 
L 915.57728 375.652612 
L 917.618743 368.191754 
L 919.660207 361.406082 
L 921.70167 374.812724 
L 923.743133 368.562184 
L 925.784597 357.908894 
L 927.82606 366.294608 
L 929.867524 367.112949 
L 931.908987 363.433581 
L 933.95045 372.00456 
L 935.991914 366.236322 
L 938.033377 370.143994 
L 940.074841 372.842521 
L 940.074841 292.09022 
L 940.074841 292.09022 
L 938.033377 297.152885 
L 935.991914 293.965896 
L 933.95045 297.787934 
L 931.908987 294.33966 
L 929.867524 296.443045 
L 927.82606 295.4472 
L 925.784597 296.904084 
L 923.743133 300.504774 
L 921.70167 300.967365 
L 919.660207 299.717271 
L 917.618743 300.442623 
L 915.57728 304.735309 
L 913.535816 302.812413 
L 911.494353 294.229945 
L 909.452889 304.707869 
L 907.411426 303.156659 
L 905.369963 305.758754 
L 903.328499 306.812841 
L 901.287036 306.260983 
L 899.245572 307.940303 
L 897.204109 309.018375 
L 895.162646 311.332402 
L 893.121182 311.720848 
L 891.079719 311.39777 
L 889.038255 309.665863 
L 886.996792 311.415007 
L 884.955328 309.008093 
L 882.913865 310.322426 
L 880.872402 309.911543 
L 878.830938 309.747647 
L 876.789475 312.183061 
L 874.748011 313.121554 
L 872.706548 315.20084 
L 870.665085 312.667083 
L 868.623621 312.042581 
L 866.582158 312.736212 
L 864.540694 316.865514 
L 862.499231 312.300743 
L 860.457768 316.195528 
L 858.416304 313.995514 
L 856.374841 311.782583 
L 854.333377 315.582322 
L 852.291914 307.984906 
L 850.25045 314.078958 
L 848.208987 318.014666 
L 846.167524 316.825038 
L 844.12606 316.526937 
L 842.084597 310.639923 
L 840.043133 311.9595 
L 838.00167 313.524194 
L 835.960207 314.030302 
L 833.918743 309.246774 
L 831.87728 310.287851 
L 829.835816 311.027859 
L 827.794353 305.239594 
L 825.752889 302.525795 
L 823.711426 303.099549 
L 821.669963 305.513319 
L 819.628499 305.75424 
L 817.587036 301.545879 
L 815.545572 300.658771 
L 813.504109 290.116114 
L 811.462646 301.538537 
L 809.421182 266.209394 
L 807.379719 292.541612 
L 805.338255 253.422365 
L 803.296792 297.15671 
L 801.255328 276.293976 
L 799.213865 274.058044 
L 797.172402 289.79423 
L 795.130938 272.01524 
L 793.089475 246.25042 
L 791.048011 260.956834 
L 789.006548 265.071897 
L 786.965085 265.084921 
L 784.923621 232.976789 
L 782.882158 244.439965 
L 780.840694 244.814712 
L 778.799231 243.295021 
L 776.757768 237.269865 
L 774.716304 231.286319 
L 772.674841 236.781886 
L 770.633377 219.8656 
L 768.591914 207.605263 
L 766.55045 218.275335 
L 764.508987 208.630682 
L 762.467524 201.93482 
L 760.42606 214.90798 
L 758.384597 202.062459 
L 756.343133 164.911604 
L 754.30167 188.96841 
L 752.260207 187.104263 
L 750.218743 184.625432 
L 748.17728 177.540927 
L 746.135816 183.976177 
L 744.094353 174.376439 
L 742.052889 170.164372 
L 740.011426 167.183901 
L 737.969963 159.648219 
L 735.928499 174.206697 
L 733.887036 153.647592 
L 731.845572 163.230672 
L 729.804109 152.241636 
L 727.762646 135.86293 
L 725.721182 154.699507 
L 723.679719 135.39454 
L 721.638255 135.704822 
L 719.596792 131.354178 
L 717.555328 137.393749 
L 715.513865 152.176785 
L 713.472402 151.673415 
L 711.430938 139.83576 
L 709.389475 117.868369 
L 707.348011 118.774327 
L 705.306548 118.228742 
L 703.265085 129.937714 
L 701.223621 126.146355 
L 699.182158 117.46971 
L 697.140694 124.703074 
L 695.099231 127.553996 
L 693.057768 117.123876 
L 691.016304 115.79471 
L 688.974841 111.607413 
L 686.933377 106.421106 
L 684.891914 125.704743 
L 682.85045 115.853716 
L 680.808987 100.395517 
L 678.767524 104.261024 
L 676.72606 113.51595 
L 674.684597 107.647428 
L 672.643133 101.363876 
L 670.60167 105.780092 
L 668.560207 114.319861 
L 666.518743 103.878197 
L 664.47728 98.338152 
L 662.435816 101.642474 
L 660.394353 98.921092 
L 658.352889 95.595214 
L 656.311426 91.450449 
L 654.269963 88.336796 
L 652.228499 76.647613 
L 650.187036 86.073726 
L 648.145572 83.1564 
L 646.104109 83.785501 
L 644.062646 80.649526 
L 642.021182 84.52443 
L 639.979719 75.845631 
L 637.938255 80.44619 
L 635.896792 72.448758 
L 633.855328 73.833298 
L 631.813865 64.514642 
L 629.772402 73.053879 
L 627.730938 75.786934 
L 625.689475 70.646434 
L 623.648011 70.880903 
L 621.606548 62.530842 
L 619.565085 64.264579 
L 617.523621 66.652944 
L 615.482158 57.061453 
L 613.440694 66.430186 
L 611.399231 63.27205 
L 609.357768 52.517388 
L 607.316304 56.523262 
L 605.274841 55.529947 
L 603.233377 52.573683 
L 601.191914 47.551598 
L 599.15045 51.949964 
L 597.108987 69.63001 
L 595.067524 57.285049 
L 593.02606 48.161423 
L 590.984597 51.515828 
L 588.943133 48.573744 
L 586.90167 42.304654 
L 584.860207 39.131188 
L 582.818743 36.675173 
L 580.77728 40.238773 
L 578.735816 40.131679 
L 576.694353 46.620622 
L 574.652889 46.345881 
L 572.611426 42.656126 
L 570.569963 47.031605 
L 568.528499 41.306256 
L 566.487036 46.099212 
L 564.445572 48.406902 
L 562.404109 48.444654 
L 560.362646 46.771423 
L 558.321182 51.71088 
L 556.279719 51.982553 
L 554.238255 56.80865 
L 552.196792 54.037303 
L 550.155328 50.773517 
L 548.113865 54.184623 
L 546.072402 56.919516 
L 544.030938 57.203819 
L 541.989475 60.335677 
L 539.948011 55.271291 
L 537.906548 57.327168 
L 535.865085 56.429286 
L 533.823621 57.689885 
L 531.782158 57.075366 
L 529.740694 55.12455 
L 527.699231 59.354348 
L 525.657768 61.729744 
L 523.616304 59.170384 
L 521.574841 61.649612 
L 519.533377 59.543995 
L 517.491914 61.280595 
L 515.45045 65.973054 
L 513.408987 65.234298 
L 511.367524 65.463385 
L 509.32606 68.381093 
L 507.284597 65.913218 
L 505.243133 67.837812 
L 503.20167 70.452051 
L 501.160207 70.309471 
L 499.118743 71.090988 
L 497.07728 71.092472 
L 495.035816 72.227831 
L 492.994353 73.976794 
L 490.952889 75.278627 
L 488.911426 74.810626 
L 486.869963 75.867406 
L 484.828499 71.002095 
L 482.787036 75.981408 
L 480.745572 76.714244 
L 478.704109 77.858765 
L 476.662646 77.514616 
L 474.621182 76.375168 
L 472.579719 78.44426 
L 470.538255 79.567791 
L 468.496792 80.558915 
L 466.455328 80.796377 
L 464.413865 80.507752 
L 462.372402 81.459356 
L 460.330938 82.078567 
L 458.289475 83.234229 
L 456.248011 83.880246 
L 454.206548 88.292935 
L 452.165085 88.797191 
L 450.123621 87.377269 
L 448.082158 90.41713 
L 446.040694 88.952443 
L 443.999231 89.806552 
L 441.957768 87.043764 
L 439.916304 93.387653 
L 437.874841 93.549175 
L 435.833377 92.983486 
L 433.791914 95.541236 
L 431.75045 95.148663 
L 429.708987 95.517707 
L 427.667524 93.827636 
L 425.62606 98.792753 
L 423.584597 95.998353 
L 421.543133 100.781991 
L 419.50167 103.132786 
L 417.460207 104.333482 
L 415.418743 107.636222 
L 413.37728 109.845169 
L 411.335816 110.129216 
L 409.294353 111.613591 
L 407.252889 112.902535 
L 405.211426 113.993361 
L 403.169963 113.183572 
L 401.128499 116.18644 
L 399.087036 117.808703 
L 397.045572 121.701801 
L 395.004109 120.06189 
L 392.962646 119.564382 
L 390.921182 123.832296 
L 388.879719 125.076853 
L 386.838255 126.458268 
L 384.796792 129.522069 
L 382.755328 130.525327 
L 380.713865 128.456278 
L 378.672402 129.027571 
L 376.630938 132.186967 
L 374.589475 132.647683 
L 372.548011 134.14635 
L 370.506548 135.338763 
L 368.465085 136.242752 
L 366.423621 136.39054 
L 364.382158 138.260112 
L 362.340694 140.223627 
L 360.299231 137.246897 
L 358.257768 138.795442 
L 356.216304 137.115547 
L 354.174841 141.359288 
L 352.133377 140.859352 
L 350.091914 138.52447 
L 348.05045 140.737181 
L 346.008987 142.091244 
L 343.967524 136.561609 
L 341.92606 142.582507 
L 339.884597 135.909394 
L 337.843133 135.226212 
L 335.80167 134.583585 
L 333.760207 135.936163 
L 331.718743 136.106672 
L 329.67728 135.31363 
L 327.635816 131.410474 
L 325.594353 133.526606 
L 323.552889 126.504492 
L 321.511426 117.177039 
L 319.469963 120.25953 
L 317.428499 123.79557 
L 315.387036 112.932537 
L 313.345572 113.422049 
L 311.304109 110.95717 
L 309.262646 110.448748 
L 307.221182 96.200235 
L 305.179719 95.103926 
L 303.138255 90.079399 
L 301.096792 78.846861 
L 299.055328 72.137118 
L 297.013865 80.193742 
L 294.972402 74.688293 
L 292.930938 69.014646 
L 290.889475 64.954236 
L 288.848011 59.67976 
L 286.806548 50.035816 
L 284.765085 56.995521 
L 282.723621 39.017479 
L 280.682158 32.986321 
L 278.640694 29.508859 
L 276.599231 26.594919 
L 274.557768 26.924342 
L 272.516304 24.84 
L 270.474841 26.18374 
L 268.433377 32.525683 
L 266.391914 25.213253 
L 264.35045 25.059419 
L 262.308987 31.449551 
L 260.267524 32.731719 
L 258.22606 30.816312 
L 256.184597 41.187048 
L 254.143133 36.295605 
L 252.10167 38.20745 
L 250.060207 48.675935 
L 248.018743 46.354713 
L 245.97728 50.516821 
L 243.935816 53.833073 
L 241.894353 57.285893 
L 239.852889 61.163953 
L 237.811426 64.964248 
L 235.769963 70.198243 
L 233.728499 72.677888 
L 231.687036 77.89455 
L 229.645572 79.563009 
L 227.604109 86.734648 
L 225.562646 86.055447 
L 223.521182 89.635779 
L 221.479719 93.724453 
L 219.438255 96.267524 
L 217.396792 99.803024 
L 215.355328 102.850054 
L 213.313865 106.630865 
L 211.272402 108.945741 
L 209.230938 112.033674 
L 207.189475 115.996647 
L 205.148011 119.264675 
L 203.106548 121.689133 
L 201.065085 124.946503 
L 199.023621 127.537995 
L 196.982158 130.881823 
L 194.940694 134.081186 
L 192.899231 136.241462 
L 190.857768 139.273601 
L 188.816304 142.399201 
L 186.774841 144.422361 
L 184.733377 146.954959 
L 182.691914 149.021973 
L 180.65045 152.379952 
L 178.608987 154.781942 
L 176.567524 157.305016 
L 174.52606 159.784417 
L 172.484597 161.881638 
L 170.443133 164.010146 
L 168.40167 166.205117 
L 166.360207 168.798682 
L 164.318743 170.835965 
L 162.27728 173.067212 
L 160.235816 175.067036 
L 158.194353 177.283002 
L 156.152889 179.232458 
L 154.111426 181.245436 
L 152.069963 183.308378 
L 150.028499 184.813799 
L 147.987036 187.006293 
L 145.945572 188.555361 
L 143.904109 190.389043 
L 141.862646 192.564146 
L 139.821182 194.132794 
L 137.779719 194.5675 
L 135.738255 196.413012 
L 133.696792 197.359797 
L 131.655328 199.234801 
L 129.613865 201.161425 
L 127.572402 202.223725 
L 125.530938 203.306217 
L 123.489475 203.27393 
L 121.448011 204.233563 
L 119.406548 204.925293 
L 117.365085 205.460036 
L 115.323621 206.844342 
L 113.282158 207.935106 
L 111.240694 209.012182 
L 109.199231 208.144081 
L 107.157768 208.790243 
L 105.116304 207.627187 
L 103.074841 209.360007 
L 101.033377 209.372999 
L 98.991914 210.825159 
L 96.95045 207.830876 
L 94.908987 211.206273 
L 92.867524 210.861378 
L 90.82606 208.94102 
L 88.784597 208.385456 
L 86.743133 210.140088 
L 84.70167 212.946073 
L 82.660207 211.765976 
L 80.618743 211.690496 
L 78.57728 208.637966 
L 76.535816 208.516784 
L 74.494353 209.399684 
L 72.452889 211.221055 
L 70.411426 210.666995 
L 68.369963 210.199643 
L 66.328499 210.365909 
L 64.287036 211.467373 
L 62.245572 211.153775 
L 60.204109 211.846463 
L 58.162646 213.103004 
L 56.121182 212.176864 
L 54.079719 213.764283 
L 52.038255 214.087371 
L 49.996792 214.241645 
L 47.955328 215.25947 
L 45.913865 215.509019 
L 43.872402 216.73748 
L 41.830938 218.036085 
L 39.789475 218.015724 
L 37.748011 217.408743 
L 35.706548 216.870452 
L 33.665085 219.811774 
L 31.623621 219.240885 
L 29.582158 221.086984 
L 27.540694 221.056208 
L 25.499231 220.316058 
L 23.457768 222.178127 
L 21.416304 220.439797 
L 19.374841 220.471063 
L 17.333377 222.804724 
L 15.291914 220.966113 
L 13.25045 223.14615 
L 11.208987 224.129203 
L 9.167524 221.996527 
L 7.12606 215.758157 
L 5.084597 219.766035 
L 3.043133 218.024629 
L 1.00167 208.879547 
L -1.039793 216.998812 
L -3.081257 218.529131 
L -5.12272 210.073607 
L -7.164184 207.556589 
L -9.205647 211.866489 
L -11.247111 202.983444 
L -13.288574 187.126988 
L -15.330037 205.363035 
L -17.371501 211.240886 
L -19.412964 214.883362 
L -21.454428 193.522109 
L -23.495891 193.871769 
L -25.537354 182.89467 
L -27.578818 174.501251 
L -29.620281 192.336183 
L -31.661745 184.484792 
L -33.703208 169.530905 
L -35.744672 158.777945 
L -37.786135 158.697785 
L -39.827598 160.75561 
L -41.869062 158.008687 
L -43.910525 157.781422 
L -45.951989 163.702867 
L -47.993452 162.638223 
L -50.034915 158.877367 
L -52.076379 161.443798 
L -54.117842 159.984501 
L -56.159306 159.207114 
L -58.200769 159.31761 
L -60.242232 162.015529 
L -62.283696 163.20956 
L -64.325159 164.373665 
L -66.366623 166.558581 
L -68.408086 167.675251 
L -70.44955 169.350044 
L -72.491013 172.013451 
L -74.532476 174.316682 
L -76.57394 175.736167 
L -78.615403 177.594495 
L -80.656867 179.613449 
L -82.69833 181.038264 
L -84.739793 183.120475 
L -86.781257 185.6748 
L -88.82272 187.147836 
L -90.864184 188.191026 
L -92.905647 189.795695 
L -94.947111 191.408647 
L -96.988574 192.863758 
L -99.030037 194.250915 
L -101.071501 195.587479 
L -103.112964 197.414917 
L -105.154428 198.367209 
L -107.195891 199.684743 
L -109.237354 201.043901 
L -111.278818 202.32151 
L -113.320281 203.512827 
L -115.361745 204.514296 
L -117.403208 205.577327 
L -119.444672 206.985535 
L -121.486135 207.902576 
L -123.527598 208.998876 
L -125.569062 210.069906 
L -127.610525 211.116039 
L -129.651989 212.186607 
L -131.693452 213.279068 
L -133.734915 214.197849 
L -135.776379 215.261532 
L -137.817842 216.190857 
L -139.859306 217.185439 
L -141.900769 218.110213 
L -143.942232 219.065101 
L -145.983696 219.955888 
L -148.025159 220.906008 
L -150.066623 221.918154 
L -152.108086 222.706163 
L -154.14955 223.666437 
L -156.191013 224.487973 
L -158.232476 225.43155 
L -160.27394 226.123886 
L -162.315403 227.004025 
L -164.356867 227.841895 
L -166.39833 228.638758 
L -168.439793 229.437551 
L -170.481257 230.201262 
L -172.52272 231.075885 
L -174.564184 231.866034 
L -176.605647 232.514171 
L -178.647111 233.285178 
L -180.688574 234.055797 
L -182.730037 234.822862 
L -184.771501 235.562432 
L -186.812964 236.25268 
L -188.854428 237.012511 
L -190.895891 237.757586 
L -192.937354 238.506812 
L -194.978818 239.25343 
L -197.020281 240.020575 
L -199.061745 240.818524 
L -201.103208 241.505347 
L -203.144672 242.292474 
L -205.186135 243.064665 
L -207.227598 243.806812 
L -209.269062 244.57241 
L -211.310525 245.353966 
L -213.351989 246.112734 
L -215.393452 246.908313 
L -217.434915 247.63565 
L -219.476379 248.377272 
L -221.517842 249.161492 
L -223.559306 249.918733 
L -225.600769 250.629478 
L -227.642232 251.370209 
L -229.683696 252.097509 
L -231.725159 252.841777 
L -233.766623 253.588882 
L -235.808086 254.318216 
L -237.84955 255.080621 
L -239.891013 255.781844 
L -241.932476 256.528109 
L -243.97394 257.249741 
L -246.015403 258.039034 
L -248.056867 258.718966 
L -250.09833 259.465263 
L -252.139793 260.195299 
L -254.181257 260.93839 
L -256.22272 261.656252 
L -258.264184 262.381204 
L -260.305647 263.109175 
L -262.347111 263.836236 
L -264.388574 264.552229 
L -266.430037 265.227969 
L -268.471501 265.890601 
L -270.512964 266.550902 
L -272.554428 267.18833 
L -274.595891 267.837182 
L -276.637354 268.477538 
L -278.678818 269.089028 
L -280.720281 269.699524 
L -282.761745 270.306393 
L -284.803208 270.884824 
L -286.844672 271.453769 
L -288.886135 272.046998 
L -290.927598 272.595588 
L -292.969062 273.10952 
L -295.010525 273.66114 
L -297.051989 274.174342 
L -299.093452 274.631077 
L -301.134915 275.108376 
L -303.176379 275.544836 
L -305.217842 275.99538 
L -307.259306 276.405999 
L -309.300769 276.809743 
L -311.342232 277.187385 
L -313.383696 277.55213 
L -315.425159 277.893344 
L -317.466623 278.189245 
L -319.508086 278.488167 
L -321.54955 278.771591 
L -323.591013 279.024355 
L -325.632476 279.298094 
L -327.67394 279.528712 
L -329.715403 279.727567 
L -331.756867 279.960462 
L -333.79833 280.156881 
L -335.839793 280.327583 
L -337.881257 280.514159 
L -339.92272 280.695134 
L -341.964184 280.844175 
L -344.005647 281.006662 
L -346.047111 281.133099 
L -348.088574 281.288686 
L -350.130037 281.413971 
L -352.171501 281.546701 
L -354.212964 281.686224 
L -356.254428 281.799188 
L -358.295891 281.91782 
L -360.337354 282.056865 
L -362.378818 282.183855 
L -364.420281 282.31402 
L -366.461745 282.419935 
L -368.503208 282.555524 
L -370.544672 282.674658 
L -372.586135 282.798228 
L -374.627598 282.901489 
L -376.669062 282.991705 
L -378.710525 283.096427 
L -380.751989 283.215449 
L -382.793452 283.334042 
L -384.834915 283.42856 
L -386.876379 283.513606 
L -388.917842 283.626295 
L -390.959306 283.717965 
L -393.000769 283.829188 
z
" clip-path="url(#p53123d11d1)" style="fill: #008000; fill-opacity: 0.3; stroke: #008000; stroke-opacity: 0.3"/>
   </g>
   <g id="matplotlib.axis_1">
    <g id="xtick_1">
     <g id="line2d_1">
      <defs>
       <path id="m7987de1409" d="M 0 0 
L 0 3.5 
" style="stroke: #000000; stroke-width: 0.8"/>
      </defs>
      <g>
       <use xlink:href="#m7987de1409" x="103.074841" y="395.28" style="stroke: #000000; stroke-width: 0.8"/>
      </g>
     </g>
     <g id="text_1">
      <!-- 2022-03-01 -->
      <g transform="translate(17.945813 495.213718) rotate(-45) scale(0.2 -0.2)">
       <defs>
        <path id="DejaVuSans-32" d="M 1228 531 
L 3431 531 
L 3431 0 
L 469 0 
L 469 531 
Q 828 903 1448 1529 
Q 2069 2156 2228 2338 
Q 2531 2678 2651 2914 
Q 2772 3150 2772 3378 
Q 2772 3750 2511 3984 
Q 2250 4219 1831 4219 
Q 1534 4219 1204 4116 
Q 875 4013 500 3803 
L 500 4441 
Q 881 4594 1212 4672 
Q 1544 4750 1819 4750 
Q 2544 4750 2975 4387 
Q 3406 4025 3406 3419 
Q 3406 3131 3298 2873 
Q 3191 2616 2906 2266 
Q 2828 2175 2409 1742 
Q 1991 1309 1228 531 
z
" transform="scale(0.015625)"/>
        <path id="DejaVuSans-30" d="M 2034 4250 
Q 1547 4250 1301 3770 
Q 1056 3291 1056 2328 
Q 1056 1369 1301 889 
Q 1547 409 2034 409 
Q 2525 409 2770 889 
Q 3016 1369 3016 2328 
Q 3016 3291 2770 3770 
Q 2525 4250 2034 4250 
z
M 2034 4750 
Q 2819 4750 3233 4129 
Q 3647 3509 3647 2328 
Q 3647 1150 3233 529 
Q 2819 -91 2034 -91 
Q 1250 -91 836 529 
Q 422 1150 422 2328 
Q 422 3509 836 4129 
Q 1250 4750 2034 4750 
z
" transform="scale(0.015625)"/>
        <path id="DejaVuSans-2d" d="M 313 2009 
L 1997 2009 
L 1997 1497 
L 313 1497 
L 313 2009 
z
" transform="scale(0.015625)"/>
        <path id="DejaVuSans-33" d="M 2597 2516 
Q 3050 2419 3304 2112 
Q 3559 1806 3559 1356 
Q 3559 666 3084 287 
Q 2609 -91 1734 -91 
Q 1441 -91 1130 -33 
Q 819 25 488 141 
L 488 750 
Q 750 597 1062 519 
Q 1375 441 1716 441 
Q 2309 441 2620 675 
Q 2931 909 2931 1356 
Q 2931 1769 2642 2001 
Q 2353 2234 1838 2234 
L 1294 2234 
L 1294 2753 
L 1863 2753 
Q 2328 2753 2575 2939 
Q 2822 3125 2822 3475 
Q 2822 3834 2567 4026 
Q 2313 4219 1838 4219 
Q 1578 4219 1281 4162 
Q 984 4106 628 3988 
L 628 4550 
Q 988 4650 1302 4700 
Q 1616 4750 1894 4750 
Q 2613 4750 3031 4423 
Q 3450 4097 3450 3541 
Q 3450 3153 3228 2886 
Q 3006 2619 2597 2516 
z
" transform="scale(0.015625)"/>
        <path id="DejaVuSans-31" d="M 794 531 
L 1825 531 
L 1825 4091 
L 703 3866 
L 703 4441 
L 1819 4666 
L 2450 4666 
L 2450 531 
L 3481 531 
L 3481 0 
L 794 0 
L 794 531 
z
" transform="scale(0.015625)"/>
       </defs>
       <use xlink:href="#DejaVuSans-32"/>
       <use xlink:href="#DejaVuSans-30" x="63.623047"/>
       <use xlink:href="#DejaVuSans-32" x="127.246094"/>
       <use xlink:href="#DejaVuSans-32" x="190.869141"/>
       <use xlink:href="#DejaVuSans-2d" x="254.492188"/>
       <use xlink:href="#DejaVuSans-30" x="290.576172"/>
       <use xlink:href="#DejaVuSans-33" x="354.199219"/>
       <use xlink:href="#DejaVuSans-2d" x="417.822266"/>
       <use xlink:href="#DejaVuSans-30" x="453.90625"/>
       <use xlink:href="#DejaVuSans-31" x="517.529297"/>
      </g>
     </g>
    </g>
    <g id="xtick_2">
     <g id="line2d_2">
      <g>
       <use xlink:href="#m7987de1409" x="160.235816" y="395.28" style="stroke: #000000; stroke-width: 0.8"/>
      </g>
     </g>
     <g id="text_2">
      <!-- 2022-03-29 -->
      <g transform="translate(75.106789 495.213718) rotate(-45) scale(0.2 -0.2)">
       <defs>
        <path id="DejaVuSans-39" d="M 703 97 
L 703 672 
Q 941 559 1184 500 
Q 1428 441 1663 441 
Q 2288 441 2617 861 
Q 2947 1281 2994 2138 
Q 2813 1869 2534 1725 
Q 2256 1581 1919 1581 
Q 1219 1581 811 2004 
Q 403 2428 403 3163 
Q 403 3881 828 4315 
Q 1253 4750 1959 4750 
Q 2769 4750 3195 4129 
Q 3622 3509 3622 2328 
Q 3622 1225 3098 567 
Q 2575 -91 1691 -91 
Q 1453 -91 1209 -44 
Q 966 3 703 97 
z
M 1959 2075 
Q 2384 2075 2632 2365 
Q 2881 2656 2881 3163 
Q 2881 3666 2632 3958 
Q 2384 4250 1959 4250 
Q 1534 4250 1286 3958 
Q 1038 3666 1038 3163 
Q 1038 2656 1286 2365 
Q 1534 2075 1959 2075 
z
" transform="scale(0.015625)"/>
       </defs>
       <use xlink:href="#DejaVuSans-32"/>
       <use xlink:href="#DejaVuSans-30" x="63.623047"/>
       <use xlink:href="#DejaVuSans-32" x="127.246094"/>
       <use xlink:href="#DejaVuSans-32" x="190.869141"/>
       <use xlink:href="#DejaVuSans-2d" x="254.492188"/>
       <use xlink:href="#DejaVuSans-30" x="290.576172"/>
       <use xlink:href="#DejaVuSans-33" x="354.199219"/>
       <use xlink:href="#DejaVuSans-2d" x="417.822266"/>
       <use xlink:href="#DejaVuSans-32" x="453.90625"/>
       <use xlink:href="#DejaVuSans-39" x="517.529297"/>
      </g>
     </g>
    </g>
    <g id="xtick_3">
     <g id="line2d_3">
      <g>
       <use xlink:href="#m7987de1409" x="217.396792" y="395.28" style="stroke: #000000; stroke-width: 0.8"/>
      </g>
     </g>
     <g id="text_3">
      <!-- 2022-04-26 -->
      <g transform="translate(132.267765 495.213718) rotate(-45) scale(0.2 -0.2)">
       <defs>
        <path id="DejaVuSans-34" d="M 2419 4116 
L 825 1625 
L 2419 1625 
L 2419 4116 
z
M 2253 4666 
L 3047 4666 
L 3047 1625 
L 3713 1625 
L 3713 1100 
L 3047 1100 
L 3047 0 
L 2419 0 
L 2419 1100 
L 313 1100 
L 313 1709 
L 2253 4666 
z
" transform="scale(0.015625)"/>
        <path id="DejaVuSans-36" d="M 2113 2584 
Q 1688 2584 1439 2293 
Q 1191 2003 1191 1497 
Q 1191 994 1439 701 
Q 1688 409 2113 409 
Q 2538 409 2786 701 
Q 3034 994 3034 1497 
Q 3034 2003 2786 2293 
Q 2538 2584 2113 2584 
z
M 3366 4563 
L 3366 3988 
Q 3128 4100 2886 4159 
Q 2644 4219 2406 4219 
Q 1781 4219 1451 3797 
Q 1122 3375 1075 2522 
Q 1259 2794 1537 2939 
Q 1816 3084 2150 3084 
Q 2853 3084 3261 2657 
Q 3669 2231 3669 1497 
Q 3669 778 3244 343 
Q 2819 -91 2113 -91 
Q 1303 -91 875 529 
Q 447 1150 447 2328 
Q 447 3434 972 4092 
Q 1497 4750 2381 4750 
Q 2619 4750 2861 4703 
Q 3103 4656 3366 4563 
z
" transform="scale(0.015625)"/>
       </defs>
       <use xlink:href="#DejaVuSans-32"/>
       <use xlink:href="#DejaVuSans-30" x="63.623047"/>
       <use xlink:href="#DejaVuSans-32" x="127.246094"/>
       <use xlink:href="#DejaVuSans-32" x="190.869141"/>
       <use xlink:href="#DejaVuSans-2d" x="254.492188"/>
       <use xlink:href="#DejaVuSans-30" x="290.576172"/>
       <use xlink:href="#DejaVuSans-34" x="354.199219"/>
       <use xlink:href="#DejaVuSans-2d" x="417.822266"/>
       <use xlink:href="#DejaVuSans-32" x="453.90625"/>
       <use xlink:href="#DejaVuSans-36" x="517.529297"/>
      </g>
     </g>
    </g>
    <g id="xtick_4">
     <g id="line2d_4">
      <g>
       <use xlink:href="#m7987de1409" x="274.557768" y="395.28" style="stroke: #000000; stroke-width: 0.8"/>
      </g>
     </g>
     <g id="text_4">
      <!-- 2022-05-24 -->
      <g transform="translate(189.42874 495.213718) rotate(-45) scale(0.2 -0.2)">
       <defs>
        <path id="DejaVuSans-35" d="M 691 4666 
L 3169 4666 
L 3169 4134 
L 1269 4134 
L 1269 2991 
Q 1406 3038 1543 3061 
Q 1681 3084 1819 3084 
Q 2600 3084 3056 2656 
Q 3513 2228 3513 1497 
Q 3513 744 3044 326 
Q 2575 -91 1722 -91 
Q 1428 -91 1123 -41 
Q 819 9 494 109 
L 494 744 
Q 775 591 1075 516 
Q 1375 441 1709 441 
Q 2250 441 2565 725 
Q 2881 1009 2881 1497 
Q 2881 1984 2565 2268 
Q 2250 2553 1709 2553 
Q 1456 2553 1204 2497 
Q 953 2441 691 2322 
L 691 4666 
z
" transform="scale(0.015625)"/>
       </defs>
       <use xlink:href="#DejaVuSans-32"/>
       <use xlink:href="#DejaVuSans-30" x="63.623047"/>
       <use xlink:href="#DejaVuSans-32" x="127.246094"/>
       <use xlink:href="#DejaVuSans-32" x="190.869141"/>
       <use xlink:href="#DejaVuSans-2d" x="254.492188"/>
       <use xlink:href="#DejaVuSans-30" x="290.576172"/>
       <use xlink:href="#DejaVuSans-35" x="354.199219"/>
       <use xlink:href="#DejaVuSans-2d" x="417.822266"/>
       <use xlink:href="#DejaVuSans-32" x="453.90625"/>
       <use xlink:href="#DejaVuSans-34" x="517.529297"/>
      </g>
     </g>
    </g>
    <g id="xtick_5">
     <g id="line2d_5">
      <g>
       <use xlink:href="#m7987de1409" x="331.718743" y="395.28" style="stroke: #000000; stroke-width: 0.8"/>
      </g>
     </g>
     <g id="text_5">
      <!-- 2022-06-21 -->
      <g transform="translate(246.589716 495.213718) rotate(-45) scale(0.2 -0.2)">
       <use xlink:href="#DejaVuSans-32"/>
       <use xlink:href="#DejaVuSans-30" x="63.623047"/>
       <use xlink:href="#DejaVuSans-32" x="127.246094"/>
       <use xlink:href="#DejaVuSans-32" x="190.869141"/>
       <use xlink:href="#DejaVuSans-2d" x="254.492188"/>
       <use xlink:href="#DejaVuSans-30" x="290.576172"/>
       <use xlink:href="#DejaVuSans-36" x="354.199219"/>
       <use xlink:href="#DejaVuSans-2d" x="417.822266"/>
       <use xlink:href="#DejaVuSans-32" x="453.90625"/>
       <use xlink:href="#DejaVuSans-31" x="517.529297"/>
      </g>
     </g>
    </g>
    <g id="xtick_6">
     <g id="line2d_6">
      <g>
       <use xlink:href="#m7987de1409" x="388.879719" y="395.28" style="stroke: #000000; stroke-width: 0.8"/>
      </g>
     </g>
     <g id="text_6">
      <!-- 2022-07-19 -->
      <g transform="translate(303.750691 495.213718) rotate(-45) scale(0.2 -0.2)">
       <defs>
        <path id="DejaVuSans-37" d="M 525 4666 
L 3525 4666 
L 3525 4397 
L 1831 0 
L 1172 0 
L 2766 4134 
L 525 4134 
L 525 4666 
z
" transform="scale(0.015625)"/>
       </defs>
       <use xlink:href="#DejaVuSans-32"/>
       <use xlink:href="#DejaVuSans-30" x="63.623047"/>
       <use xlink:href="#DejaVuSans-32" x="127.246094"/>
       <use xlink:href="#DejaVuSans-32" x="190.869141"/>
       <use xlink:href="#DejaVuSans-2d" x="254.492188"/>
       <use xlink:href="#DejaVuSans-30" x="290.576172"/>
       <use xlink:href="#DejaVuSans-37" x="354.199219"/>
       <use xlink:href="#DejaVuSans-2d" x="417.822266"/>
       <use xlink:href="#DejaVuSans-31" x="453.90625"/>
       <use xlink:href="#DejaVuSans-39" x="517.529297"/>
      </g>
     </g>
    </g>
    <g id="xtick_7">
     <g id="line2d_7">
      <g>
       <use xlink:href="#m7987de1409" x="446.040694" y="395.28" style="stroke: #000000; stroke-width: 0.8"/>
      </g>
     </g>
     <g id="text_7">
      <!-- 2022-08-16 -->
      <g transform="translate(360.911667 495.213718) rotate(-45) scale(0.2 -0.2)">
       <defs>
        <path id="DejaVuSans-38" d="M 2034 2216 
Q 1584 2216 1326 1975 
Q 1069 1734 1069 1313 
Q 1069 891 1326 650 
Q 1584 409 2034 409 
Q 2484 409 2743 651 
Q 3003 894 3003 1313 
Q 3003 1734 2745 1975 
Q 2488 2216 2034 2216 
z
M 1403 2484 
Q 997 2584 770 2862 
Q 544 3141 544 3541 
Q 544 4100 942 4425 
Q 1341 4750 2034 4750 
Q 2731 4750 3128 4425 
Q 3525 4100 3525 3541 
Q 3525 3141 3298 2862 
Q 3072 2584 2669 2484 
Q 3125 2378 3379 2068 
Q 3634 1759 3634 1313 
Q 3634 634 3220 271 
Q 2806 -91 2034 -91 
Q 1263 -91 848 271 
Q 434 634 434 1313 
Q 434 1759 690 2068 
Q 947 2378 1403 2484 
z
M 1172 3481 
Q 1172 3119 1398 2916 
Q 1625 2713 2034 2713 
Q 2441 2713 2670 2916 
Q 2900 3119 2900 3481 
Q 2900 3844 2670 4047 
Q 2441 4250 2034 4250 
Q 1625 4250 1398 4047 
Q 1172 3844 1172 3481 
z
" transform="scale(0.015625)"/>
       </defs>
       <use xlink:href="#DejaVuSans-32"/>
       <use xlink:href="#DejaVuSans-30" x="63.623047"/>
       <use xlink:href="#DejaVuSans-32" x="127.246094"/>
       <use xlink:href="#DejaVuSans-32" x="190.869141"/>
       <use xlink:href="#DejaVuSans-2d" x="254.492188"/>
       <use xlink:href="#DejaVuSans-30" x="290.576172"/>
       <use xlink:href="#DejaVuSans-38" x="354.199219"/>
       <use xlink:href="#DejaVuSans-2d" x="417.822266"/>
       <use xlink:href="#DejaVuSans-31" x="453.90625"/>
       <use xlink:href="#DejaVuSans-36" x="517.529297"/>
      </g>
     </g>
    </g>
    <g id="xtick_8">
     <g id="line2d_8">
      <g>
       <use xlink:href="#m7987de1409" x="503.20167" y="395.28" style="stroke: #000000; stroke-width: 0.8"/>
      </g>
     </g>
     <g id="text_8">
      <!-- 2022-09-13 -->
      <g transform="translate(418.072643 495.213718) rotate(-45) scale(0.2 -0.2)">
       <use xlink:href="#DejaVuSans-32"/>
       <use xlink:href="#DejaVuSans-30" x="63.623047"/>
       <use xlink:href="#DejaVuSans-32" x="127.246094"/>
       <use xlink:href="#DejaVuSans-32" x="190.869141"/>
       <use xlink:href="#DejaVuSans-2d" x="254.492188"/>
       <use xlink:href="#DejaVuSans-30" x="290.576172"/>
       <use xlink:href="#DejaVuSans-39" x="354.199219"/>
       <use xlink:href="#DejaVuSans-2d" x="417.822266"/>
       <use xlink:href="#DejaVuSans-31" x="453.90625"/>
       <use xlink:href="#DejaVuSans-33" x="517.529297"/>
      </g>
     </g>
    </g>
    <g id="xtick_9">
     <g id="line2d_9">
      <g>
       <use xlink:href="#m7987de1409" x="560.362646" y="395.28" style="stroke: #000000; stroke-width: 0.8"/>
      </g>
     </g>
     <g id="text_9">
      <!-- 2022-10-11 -->
      <g transform="translate(475.233618 495.213718) rotate(-45) scale(0.2 -0.2)">
       <use xlink:href="#DejaVuSans-32"/>
       <use xlink:href="#DejaVuSans-30" x="63.623047"/>
       <use xlink:href="#DejaVuSans-32" x="127.246094"/>
       <use xlink:href="#DejaVuSans-32" x="190.869141"/>
       <use xlink:href="#DejaVuSans-2d" x="254.492188"/>
       <use xlink:href="#DejaVuSans-31" x="290.576172"/>
       <use xlink:href="#DejaVuSans-30" x="354.199219"/>
       <use xlink:href="#DejaVuSans-2d" x="417.822266"/>
       <use xlink:href="#DejaVuSans-31" x="453.90625"/>
       <use xlink:href="#DejaVuSans-31" x="517.529297"/>
      </g>
     </g>
    </g>
    <g id="xtick_10">
     <g id="line2d_10">
      <g>
       <use xlink:href="#m7987de1409" x="617.523621" y="395.28" style="stroke: #000000; stroke-width: 0.8"/>
      </g>
     </g>
     <g id="text_10">
      <!-- 2022-11-08 -->
      <g transform="translate(532.394594 495.213718) rotate(-45) scale(0.2 -0.2)">
       <use xlink:href="#DejaVuSans-32"/>
       <use xlink:href="#DejaVuSans-30" x="63.623047"/>
       <use xlink:href="#DejaVuSans-32" x="127.246094"/>
       <use xlink:href="#DejaVuSans-32" x="190.869141"/>
       <use xlink:href="#DejaVuSans-2d" x="254.492188"/>
       <use xlink:href="#DejaVuSans-31" x="290.576172"/>
       <use xlink:href="#DejaVuSans-31" x="354.199219"/>
       <use xlink:href="#DejaVuSans-2d" x="417.822266"/>
       <use xlink:href="#DejaVuSans-30" x="453.90625"/>
       <use xlink:href="#DejaVuSans-38" x="517.529297"/>
      </g>
     </g>
    </g>
    <g id="xtick_11">
     <g id="line2d_11">
      <g>
       <use xlink:href="#m7987de1409" x="674.684597" y="395.28" style="stroke: #000000; stroke-width: 0.8"/>
      </g>
     </g>
     <g id="text_11">
      <!-- 2022-12-06 -->
      <g transform="translate(589.555569 495.213718) rotate(-45) scale(0.2 -0.2)">
       <use xlink:href="#DejaVuSans-32"/>
       <use xlink:href="#DejaVuSans-30" x="63.623047"/>
       <use xlink:href="#DejaVuSans-32" x="127.246094"/>
       <use xlink:href="#DejaVuSans-32" x="190.869141"/>
       <use xlink:href="#DejaVuSans-2d" x="254.492188"/>
       <use xlink:href="#DejaVuSans-31" x="290.576172"/>
       <use xlink:href="#DejaVuSans-32" x="354.199219"/>
       <use xlink:href="#DejaVuSans-2d" x="417.822266"/>
       <use xlink:href="#DejaVuSans-30" x="453.90625"/>
       <use xlink:href="#DejaVuSans-36" x="517.529297"/>
      </g>
     </g>
    </g>
    <g id="xtick_12">
     <g id="line2d_12">
      <g>
       <use xlink:href="#m7987de1409" x="731.845572" y="395.28" style="stroke: #000000; stroke-width: 0.8"/>
      </g>
     </g>
     <g id="text_12">
      <!-- 2023-01-03 -->
      <g transform="translate(646.716545 495.213718) rotate(-45) scale(0.2 -0.2)">
       <use xlink:href="#DejaVuSans-32"/>
       <use xlink:href="#DejaVuSans-30" x="63.623047"/>
       <use xlink:href="#DejaVuSans-32" x="127.246094"/>
       <use xlink:href="#DejaVuSans-33" x="190.869141"/>
       <use xlink:href="#DejaVuSans-2d" x="254.492188"/>
       <use xlink:href="#DejaVuSans-30" x="290.576172"/>
       <use xlink:href="#DejaVuSans-31" x="354.199219"/>
       <use xlink:href="#DejaVuSans-2d" x="417.822266"/>
       <use xlink:href="#DejaVuSans-30" x="453.90625"/>
       <use xlink:href="#DejaVuSans-33" x="517.529297"/>
      </g>
     </g>
    </g>
    <g id="xtick_13">
     <g id="line2d_13">
      <g>
       <use xlink:href="#m7987de1409" x="789.006548" y="395.28" style="stroke: #000000; stroke-width: 0.8"/>
      </g>
     </g>
     <g id="text_13">
      <!-- 2023-01-31 -->
      <g transform="translate(703.877521 495.213718) rotate(-45) scale(0.2 -0.2)">
       <use xlink:href="#DejaVuSans-32"/>
       <use xlink:href="#DejaVuSans-30" x="63.623047"/>
       <use xlink:href="#DejaVuSans-32" x="127.246094"/>
       <use xlink:href="#DejaVuSans-33" x="190.869141"/>
       <use xlink:href="#DejaVuSans-2d" x="254.492188"/>
       <use xlink:href="#DejaVuSans-30" x="290.576172"/>
       <use xlink:href="#DejaVuSans-31" x="354.199219"/>
       <use xlink:href="#DejaVuSans-2d" x="417.822266"/>
       <use xlink:href="#DejaVuSans-33" x="453.90625"/>
       <use xlink:href="#DejaVuSans-31" x="517.529297"/>
      </g>
     </g>
    </g>
    <g id="xtick_14">
     <g id="line2d_14">
      <g>
       <use xlink:href="#m7987de1409" x="846.167524" y="395.28" style="stroke: #000000; stroke-width: 0.8"/>
      </g>
     </g>
     <g id="text_14">
      <!-- 2023-02-28 -->
      <g transform="translate(761.038496 495.213718) rotate(-45) scale(0.2 -0.2)">
       <use xlink:href="#DejaVuSans-32"/>
       <use xlink:href="#DejaVuSans-30" x="63.623047"/>
       <use xlink:href="#DejaVuSans-32" x="127.246094"/>
       <use xlink:href="#DejaVuSans-33" x="190.869141"/>
       <use xlink:href="#DejaVuSans-2d" x="254.492188"/>
       <use xlink:href="#DejaVuSans-30" x="290.576172"/>
       <use xlink:href="#DejaVuSans-32" x="354.199219"/>
       <use xlink:href="#DejaVuSans-2d" x="417.822266"/>
       <use xlink:href="#DejaVuSans-32" x="453.90625"/>
       <use xlink:href="#DejaVuSans-38" x="517.529297"/>
      </g>
     </g>
    </g>
    <g id="xtick_15">
     <g id="line2d_15">
      <g>
       <use xlink:href="#m7987de1409" x="903.328499" y="395.28" style="stroke: #000000; stroke-width: 0.8"/>
      </g>
     </g>
     <g id="text_15">
      <!-- 2023-03-28 -->
      <g transform="translate(818.199472 495.213718) rotate(-45) scale(0.2 -0.2)">
       <use xlink:href="#DejaVuSans-32"/>
       <use xlink:href="#DejaVuSans-30" x="63.623047"/>
       <use xlink:href="#DejaVuSans-32" x="127.246094"/>
       <use xlink:href="#DejaVuSans-33" x="190.869141"/>
       <use xlink:href="#DejaVuSans-2d" x="254.492188"/>
       <use xlink:href="#DejaVuSans-30" x="290.576172"/>
       <use xlink:href="#DejaVuSans-33" x="354.199219"/>
       <use xlink:href="#DejaVuSans-2d" x="417.822266"/>
       <use xlink:href="#DejaVuSans-32" x="453.90625"/>
       <use xlink:href="#DejaVuSans-38" x="517.529297"/>
      </g>
     </g>
    </g>
    <g id="xtick_16">
     <g id="line2d_16">
      <g>
       <use xlink:href="#m7987de1409" x="940.074841" y="395.28" style="stroke: #000000; stroke-width: 0.8"/>
      </g>
     </g>
     <g id="text_16">
      <!-- 2023-04-15 -->
      <g transform="translate(854.945813 495.213718) rotate(-45) scale(0.2 -0.2)">
       <use xlink:href="#DejaVuSans-32"/>
       <use xlink:href="#DejaVuSans-30" x="63.623047"/>
       <use xlink:href="#DejaVuSans-32" x="127.246094"/>
       <use xlink:href="#DejaVuSans-33" x="190.869141"/>
       <use xlink:href="#DejaVuSans-2d" x="254.492188"/>
       <use xlink:href="#DejaVuSans-30" x="290.576172"/>
       <use xlink:href="#DejaVuSans-34" x="354.199219"/>
       <use xlink:href="#DejaVuSans-2d" x="417.822266"/>
       <use xlink:href="#DejaVuSans-31" x="453.90625"/>
       <use xlink:href="#DejaVuSans-35" x="517.529297"/>
      </g>
     </g>
    </g>
   </g>
   <g id="matplotlib.axis_2">
    <g id="ytick_1">
     <g id="line2d_17">
      <defs>
       <path id="m7adefb9173" d="M 0 0 
L -3.5 0 
" style="stroke: #000000; stroke-width: 0.8"/>
      </defs>
      <g>
       <use xlink:href="#m7adefb9173" x="103.074841" y="363.554441" style="stroke: #000000; stroke-width: 0.8"/>
      </g>
     </g>
     <g id="text_17">
      <!-- 0.05 -->
      <g transform="translate(34.784216 371.152878) scale(0.2 -0.2)">
       <defs>
        <path id="DejaVuSans-2212" d="M 678 2272 
L 4684 2272 
L 4684 1741 
L 678 1741 
L 678 2272 
z
" transform="scale(0.015625)"/>
        <path id="DejaVuSans-2e" d="M 684 794 
L 1344 794 
L 1344 0 
L 684 0 
L 684 794 
z
" transform="scale(0.015625)"/>
       </defs>
       <use xlink:href="#DejaVuSans-2212"/>
       <use xlink:href="#DejaVuSans-30" x="83.789062"/>
       <use xlink:href="#DejaVuSans-2e" x="147.412109"/>
       <use xlink:href="#DejaVuSans-30" x="179.199219"/>
       <use xlink:href="#DejaVuSans-35" x="242.822266"/>
      </g>
     </g>
    </g>
    <g id="ytick_2">
     <g id="line2d_18">
      <g>
       <use xlink:href="#m7adefb9173" x="103.074841" y="283.936415" style="stroke: #000000; stroke-width: 0.8"/>
      </g>
     </g>
     <g id="text_18">
      <!-- 0.00 -->
      <g transform="translate(51.543591 291.534853) scale(0.2 -0.2)">
       <use xlink:href="#DejaVuSans-30"/>
       <use xlink:href="#DejaVuSans-2e" x="63.623047"/>
       <use xlink:href="#DejaVuSans-30" x="95.410156"/>
       <use xlink:href="#DejaVuSans-30" x="159.033203"/>
      </g>
     </g>
    </g>
    <g id="ytick_3">
     <g id="line2d_19">
      <g>
       <use xlink:href="#m7adefb9173" x="103.074841" y="204.31839" style="stroke: #000000; stroke-width: 0.8"/>
      </g>
     </g>
     <g id="text_19">
      <!-- 0.05 -->
      <g transform="translate(51.543591 211.916828) scale(0.2 -0.2)">
       <use xlink:href="#DejaVuSans-30"/>
       <use xlink:href="#DejaVuSans-2e" x="63.623047"/>
       <use xlink:href="#DejaVuSans-30" x="95.410156"/>
       <use xlink:href="#DejaVuSans-35" x="159.033203"/>
      </g>
     </g>
    </g>
    <g id="ytick_4">
     <g id="line2d_20">
      <g>
       <use xlink:href="#m7adefb9173" x="103.074841" y="124.700365" style="stroke: #000000; stroke-width: 0.8"/>
      </g>
     </g>
     <g id="text_20">
      <!-- 0.10 -->
      <g transform="translate(51.543591 132.298803) scale(0.2 -0.2)">
       <use xlink:href="#DejaVuSans-30"/>
       <use xlink:href="#DejaVuSans-2e" x="63.623047"/>
       <use xlink:href="#DejaVuSans-31" x="95.410156"/>
       <use xlink:href="#DejaVuSans-30" x="159.033203"/>
      </g>
     </g>
    </g>
    <g id="ytick_5">
     <g id="line2d_21">
      <g>
       <use xlink:href="#m7adefb9173" x="103.074841" y="45.08234" style="stroke: #000000; stroke-width: 0.8"/>
      </g>
     </g>
     <g id="text_21">
      <!-- 0.15 -->
      <g transform="translate(51.543591 52.680778) scale(0.2 -0.2)">
       <use xlink:href="#DejaVuSans-30"/>
       <use xlink:href="#DejaVuSans-2e" x="63.623047"/>
       <use xlink:href="#DejaVuSans-31" x="95.410156"/>
       <use xlink:href="#DejaVuSans-35" x="159.033203"/>
      </g>
     </g>
    </g>
   </g>
   <g id="line2d_22">
    <path d="M 940.074841 283.936415 
" clip-path="url(#p53123d11d1)" style="fill: none; stroke: #ffa500; stroke-width: 1.5; stroke-linecap: square"/>
   </g>
   <g id="line2d_23">
    <path d="M 103.074841 283.936415 
L 948.274841 283.936415 
" clip-path="url(#p53123d11d1)" style="fill: none; stroke-dasharray: 7.4,3.2; stroke-dashoffset: 0; stroke: #000000; stroke-width: 2"/>
   </g>
   <g id="patch_3">
    <path d="M 103.074841 395.28 
L 103.074841 7.2 
" style="fill: none; stroke: #000000; stroke-width: 0.8; stroke-linejoin: miter; stroke-linecap: square"/>
   </g>
   <g id="patch_4">
    <path d="M 940.074841 395.28 
L 940.074841 7.2 
" style="fill: none; stroke: #000000; stroke-width: 0.8; stroke-linejoin: miter; stroke-linecap: square"/>
   </g>
   <g id="patch_5">
    <path d="M 103.074841 395.28 
L 940.074841 395.28 
" style="fill: none; stroke: #000000; stroke-width: 0.8; stroke-linejoin: miter; stroke-linecap: square"/>
   </g>
   <g id="patch_6">
    <path d="M 103.074841 7.2 
L 940.074841 7.2 
" style="fill: none; stroke: #000000; stroke-width: 0.8; stroke-linejoin: miter; stroke-linecap: square"/>
   </g>
  </g>
 </g>
 <defs>
  <clipPath id="p53123d11d1">
   <rect x="103.074841" y="7.2" width="837" height="388.08"/>
  </clipPath>
 </defs>
</svg>
