<?xml version="1.0" encoding="utf-8" standalone="no"?>
<!DOCTYPE svg PUBLIC "-//W3C//DTD SVG 1.1//EN"
  "http://www.w3.org/Graphics/SVG/1.1/DTD/svg11.dtd">
<svg xmlns:xlink="http://www.w3.org/1999/xlink" width="947.274841pt" height="505.354841pt" viewBox="0 0 947.274841 505.354841" xmlns="http://www.w3.org/2000/svg" version="1.1">
 <metadata>
  <rdf:RDF xmlns:dc="http://purl.org/dc/elements/1.1/" xmlns:cc="http://creativecommons.org/ns#" xmlns:rdf="http://www.w3.org/1999/02/22-rdf-syntax-ns#">
   <cc:Work>
    <dc:type rdf:resource="http://purl.org/dc/dcmitype/StillImage"/>
    <dc:date>2023-11-15T19:57:24.039398</dc:date>
    <dc:format>image/svg+xml</dc:format>
    <dc:creator>
     <cc:Agent>
      <dc:title>Matplotlib v3.7.2, https://matplotlib.org/</dc:title>
     </cc:Agent>
    </dc:creator>
   </cc:Work>
  </rdf:RDF>
 </metadata>
 <defs>
  <style type="text/css">*{stroke-linejoin: round; stroke-linecap: butt}</style>
 </defs>
 <g id="figure_1">
  <g id="patch_1">
   <path d="M 0 505.354841 
L 947.274841 505.354841 
L 947.274841 -0 
L 0 -0 
z
" style="fill: #ffffff"/>
  </g>
  <g id="axes_1">
   <g id="patch_2">
    <path d="M 103.074841 395.28 
L 940.074841 395.28 
L 940.074841 7.2 
L 103.074841 7.2 
z
" style="fill: #ffffff"/>
   </g>
   <g id="PolyCollection_1">
    <path d="M -393.000769 270.737225 
L -393.000769 270.755483 
L -390.959306 270.663781 
L -388.917842 270.584167 
L -386.876379 270.483087 
L -384.834915 270.415278 
L -382.793452 270.330516 
L -380.751989 270.241919 
L -378.710525 270.154219 
L -376.669062 270.071683 
L -374.627598 269.998874 
L -372.586135 269.915066 
L -370.544672 269.827312 
L -368.503208 269.741906 
L -366.461745 269.63766 
L -364.420281 269.550789 
L -362.378818 269.448965 
L -360.337354 269.361291 
L -358.295891 269.243833 
L -356.254428 269.146687 
L -354.212964 269.052965 
L -352.171501 268.942648 
L -350.130037 268.834975 
L -348.088574 268.729583 
L -346.047111 268.602985 
L -344.005647 268.491742 
L -341.964184 268.361978 
L -339.92272 268.230562 
L -337.881257 268.085443 
L -335.839793 267.936273 
L -333.79833 267.790124 
L -331.756867 267.621408 
L -329.715403 267.430869 
L -327.67394 267.261061 
L -325.632476 267.068471 
L -323.591013 266.848889 
L -321.54955 266.643985 
L -319.508086 266.404298 
L -317.466623 266.160642 
L -315.425159 265.909554 
L -313.383696 265.64444 
L -311.342232 265.350866 
L -309.300769 265.038362 
L -307.259306 264.707261 
L -305.217842 264.387616 
L -303.176379 264.012995 
L -301.134915 263.656099 
L -299.093452 263.276152 
L -297.051989 262.894471 
L -295.010525 262.483958 
L -292.969062 262.039901 
L -290.927598 261.62797 
L -288.886135 261.170001 
L -286.844672 260.696089 
L -284.803208 260.231366 
L -282.761745 259.771184 
L -280.720281 259.272493 
L -278.678818 258.768397 
L -276.637354 258.265121 
L -274.595891 257.741077 
L -272.554428 257.210623 
L -270.512964 256.681639 
L -268.471501 256.134945 
L -266.430037 255.58698 
L -264.388574 255.047132 
L -262.347111 254.485322 
L -260.305647 253.884896 
L -258.264184 253.302776 
L -256.22272 252.721925 
L -254.181257 252.149964 
L -252.139793 251.554835 
L -250.09833 250.973231 
L -248.056867 250.381695 
L -246.015403 249.846662 
L -243.97394 249.218348 
L -241.932476 248.672517 
L -239.891013 248.075538 
L -237.84955 247.506497 
L -235.808086 246.915372 
L -233.766623 246.386932 
L -231.725159 245.781757 
L -229.683696 245.212113 
L -227.642232 244.679398 
L -225.600769 244.105902 
L -223.559306 243.562323 
L -221.517842 242.994084 
L -219.476379 242.419088 
L -217.434915 241.870151 
L -215.393452 241.331674 
L -213.351989 240.75269 
L -211.310525 240.196287 
L -209.269062 239.635326 
L -207.227598 239.083292 
L -205.186135 238.543965 
L -203.144672 237.990178 
L -201.103208 237.431021 
L -199.061745 236.926088 
L -197.020281 236.356202 
L -194.978818 235.809589 
L -192.937354 235.2717 
L -190.895891 234.733153 
L -188.854428 234.195868 
L -186.812964 233.651838 
L -184.771501 233.132206 
L -182.730037 232.592383 
L -180.688574 232.039602 
L -178.647111 231.480796 
L -176.605647 230.916088 
L -174.564184 230.386282 
L -172.52272 229.805061 
L -170.481257 229.186468 
L -168.439793 228.604314 
L -166.39833 227.991342 
L -164.356867 227.36905 
L -162.315403 226.712949 
L -160.27394 226.045175 
L -158.232476 225.423035 
L -156.191013 224.716065 
L -154.14955 224.042943 
L -152.108086 223.319797 
L -150.066623 222.65367 
L -148.025159 221.874003 
L -145.983696 221.108982 
L -143.942232 220.364604 
L -141.900769 219.607366 
L -139.859306 218.82719 
L -137.817842 218.012629 
L -135.776379 217.247495 
L -133.734915 216.374208 
L -131.693452 215.603132 
L -129.651989 214.704387 
L -127.610525 213.83249 
L -125.569062 212.980188 
L -123.527598 212.161341 
L -121.486135 211.20953 
L -119.444672 210.346946 
L -117.403208 209.256724 
L -115.361745 208.314952 
L -113.320281 207.435066 
L -111.278818 206.444306 
L -109.237354 205.428186 
L -107.195891 204.261558 
L -105.154428 203.16557 
L -103.112964 202.245328 
L -101.071501 200.806543 
L -99.030037 199.643618 
L -96.988574 198.454989 
L -94.947111 197.222008 
L -92.905647 195.821919 
L -90.864184 194.501802 
L -88.82272 193.49372 
L -86.781257 192.21912 
L -84.739793 190.15379 
L -82.69833 188.408385 
L -80.656867 187.104403 
L -78.615403 185.31638 
L -76.57394 183.822647 
L -74.532476 182.513278 
L -72.491013 180.55398 
L -70.44955 178.379357 
L -68.408086 177.114246 
L -66.366623 176.4475 
L -64.325159 174.891302 
L -62.283696 174.364588 
L -60.242232 173.377712 
L -58.200769 171.510376 
L -56.159306 171.626236 
L -54.117842 172.349728 
L -52.076379 173.914424 
L -50.034915 172.106615 
L -47.993452 175.625324 
L -45.951989 176.39469 
L -43.910525 171.612723 
L -41.869062 172.945848 
L -39.827598 175.042188 
L -37.786135 173.785458 
L -35.744672 173.519235 
L -33.703208 182.565625 
L -31.661745 195.433921 
L -29.620281 201.841443 
L -27.578818 187.876684 
L -25.537354 195.063469 
L -23.495891 204.47834 
L -21.454428 203.943507 
L -19.412964 223.097238 
L -17.371501 220.504043 
L -15.330037 214.668958 
L -13.288574 200.182631 
L -11.247111 213.837645 
L -9.205647 222.058411 
L -7.164184 218.654332 
L -5.12272 220.815695 
L -3.081257 228.579288 
L -1.039793 227.576324 
L 1.00167 220.933947 
L 3.043133 229.3441 
L 5.084597 231.037577 
L 7.12606 228.077486 
L 9.167524 233.430975 
L 11.208987 235.410933 
L 13.25045 234.921732 
L 15.291914 233.345328 
L 17.333377 235.131848 
L 19.374841 233.387009 
L 21.416304 233.5834 
L 23.457768 235.290441 
L 25.499231 233.764986 
L 27.540694 234.621103 
L 29.582158 234.708415 
L 31.623621 233.486702 
L 33.665085 233.998475 
L 35.706548 232.219859 
L 37.748011 232.38978 
L 39.789475 232.943443 
L 41.830938 233.019586 
L 43.872402 232.177261 
L 45.913865 231.465204 
L 47.955328 231.319789 
L 49.996792 230.527649 
L 52.038255 230.443239 
L 54.079719 230.330249 
L 56.121182 229.101987 
L 58.162646 229.745783 
L 60.204109 228.945847 
L 62.245572 228.621323 
L 64.287036 228.682541 
L 66.328499 227.895228 
L 68.369963 227.724438 
L 70.411426 228.032448 
L 72.452889 228.510064 
L 74.494353 227.184382 
L 76.535816 226.971157 
L 78.57728 226.542958 
L 80.618743 228.873709 
L 82.660207 228.920686 
L 84.70167 229.800916 
L 86.743133 227.556789 
L 88.784597 226.167291 
L 90.82606 226.57894 
L 92.867524 228.081708 
L 94.908987 228.294458 
L 96.95045 225.556013 
L 98.991914 227.776297 
L 101.033377 227.141937 
L 103.074841 226.695245 
L 105.116304 225.375978 
L 107.157768 226.303031 
L 109.199231 225.60623 
L 111.240694 226.070394 
L 113.282158 225.14744 
L 115.323621 224.386417 
L 117.365085 223.107526 
L 119.406548 222.422375 
L 121.448011 221.779474 
L 123.489475 220.941772 
L 125.530938 220.631672 
L 127.572402 219.824778 
L 129.613865 218.959871 
L 131.655328 216.965655 
L 133.696792 215.403605 
L 135.738255 214.592826 
L 137.779719 212.894426 
L 139.821182 212.389787 
L 141.862646 210.855963 
L 143.904109 208.695342 
L 145.945572 206.854983 
L 147.987036 205.402445 
L 150.028499 203.164892 
L 152.069963 201.696522 
L 154.111426 199.665749 
L 156.152889 197.840322 
L 158.194353 195.603036 
L 160.235816 193.716893 
L 162.27728 191.233626 
L 164.318743 189.224215 
L 166.360207 187.057086 
L 168.40167 184.34917 
L 170.443133 181.841001 
L 172.484597 179.910109 
L 174.52606 177.724621 
L 176.567524 175.053439 
L 178.608987 172.884895 
L 180.65045 170.295072 
L 182.691914 166.672309 
L 184.733377 165.050303 
L 186.774841 162.066652 
L 188.816304 159.679859 
L 190.857768 157.01501 
L 192.899231 154.110013 
L 194.940694 151.141421 
L 196.982158 148.406167 
L 199.023621 144.803674 
L 201.065085 142.465639 
L 203.106548 139.079731 
L 205.148011 136.832065 
L 207.189475 133.371493 
L 209.230938 130.00301 
L 211.272402 126.908777 
L 213.313865 124.386638 
L 215.355328 120.417271 
L 217.396792 117.637773 
L 219.438255 114.067515 
L 221.479719 111.171288 
L 223.521182 107.579621 
L 225.562646 104.393754 
L 227.604109 103.756934 
L 229.645572 97.767324 
L 231.687036 96.600026 
L 233.728499 92.851585 
L 235.769963 90.178342 
L 237.811426 87.077143 
L 239.852889 83.787843 
L 241.894353 80.785262 
L 243.935816 77.874877 
L 245.97728 75.117767 
L 248.018743 72.348188 
L 250.060207 73.875423 
L 252.10167 66.370246 
L 254.143133 64.245069 
L 256.184597 69.776091 
L 258.22606 60.798436 
L 260.267524 61.90452 
L 262.308987 60.62386 
L 264.35045 55.801503 
L 266.391914 56.250707 
L 268.433377 60.312813 
L 270.474841 56.798525 
L 272.516304 55.030287 
L 274.557768 57.475122 
L 276.599231 56.182414 
L 278.640694 57.792693 
L 280.682158 60.079425 
L 282.723621 64.178233 
L 284.765085 74.014823 
L 286.806548 71.49144 
L 288.848011 76.741477 
L 290.889475 81.064204 
L 292.930938 83.307667 
L 294.972402 88.885673 
L 297.013865 92.463052 
L 299.055328 85.308347 
L 301.096792 93.288028 
L 303.138255 104.676889 
L 305.179719 110.227018 
L 307.221182 112.827641 
L 309.262646 127.89244 
L 311.304109 129.218324 
L 313.345572 133.416002 
L 315.387036 132.446256 
L 317.428499 145.188005 
L 319.469963 141.408734 
L 321.511426 139.319919 
L 323.552889 150.223204 
L 325.594353 158.005946 
L 327.635816 157.469042 
L 329.67728 162.145263 
L 331.718743 163.759082 
L 333.760207 164.174113 
L 335.80167 164.311319 
L 337.843133 166.969036 
L 339.884597 168.532386 
L 341.92606 176.505092 
L 343.967524 172.645086 
L 346.008987 179.609458 
L 348.05045 178.230046 
L 350.091914 177.467589 
L 352.133377 180.385829 
L 354.174841 183.005406 
L 356.216304 180.059117 
L 358.257768 181.757069 
L 360.299231 182.024936 
L 362.340694 185.891826 
L 364.382158 184.236557 
L 366.423621 183.555102 
L 368.465085 184.786767 
L 370.506548 186.730613 
L 372.548011 186.025302 
L 374.589475 184.424705 
L 376.630938 185.579685 
L 378.672402 183.062055 
L 380.713865 183.503435 
L 382.755328 188.065636 
L 384.796792 187.96118 
L 386.838255 185.627273 
L 388.879719 185.159789 
L 390.921182 185.589962 
L 392.962646 183.050346 
L 395.004109 183.834587 
L 397.045572 183.961141 
L 399.087036 183.527763 
L 401.128499 182.93954 
L 403.169963 181.417903 
L 405.211426 182.527746 
L 407.252889 181.550221 
L 409.294353 181.442125 
L 411.335816 180.989789 
L 413.37728 181.194732 
L 415.418743 180.065275 
L 417.460207 177.910379 
L 419.50167 177.944251 
L 421.543133 176.215544 
L 423.584597 173.660635 
L 425.62606 175.766567 
L 427.667524 172.230255 
L 429.708987 173.895498 
L 431.75045 173.329762 
L 433.791914 173.717105 
L 435.833377 171.490532 
L 437.874841 171.447457 
L 439.916304 171.233733 
L 441.957768 168.423625 
L 443.999231 169.267662 
L 446.040694 169.119617 
L 448.082158 169.109696 
L 450.123621 167.818756 
L 452.165085 168.570235 
L 454.206548 167.238154 
L 456.248011 165.964823 
L 458.289475 163.900241 
L 460.330938 163.30067 
L 462.372402 162.934258 
L 464.413865 161.517764 
L 466.455328 161.826241 
L 468.496792 161.17734 
L 470.538255 159.92427 
L 472.579719 160.058414 
L 474.621182 158.623429 
L 476.662646 159.965663 
L 478.704109 158.994002 
L 480.745572 159.128106 
L 482.787036 157.328361 
L 484.828499 154.836949 
L 486.869963 157.100451 
L 488.911426 157.107178 
L 490.952889 156.350686 
L 492.994353 155.561317 
L 495.035816 153.84692 
L 497.07728 153.516041 
L 499.118743 152.605027 
L 501.160207 152.823315 
L 503.20167 152.522855 
L 505.243133 150.888189 
L 507.284597 148.538939 
L 509.32606 151.745165 
L 511.367524 151.06809 
L 513.408987 149.083748 
L 515.45045 150.457696 
L 517.491914 146.860523 
L 519.533377 147.379557 
L 521.574841 147.687749 
L 523.616304 145.277598 
L 525.657768 149.585657 
L 527.699231 145.427946 
L 529.740694 143.36018 
L 531.782158 146.221578 
L 533.823621 147.07725 
L 535.865085 145.841676 
L 537.906548 147.041643 
L 539.948011 145.225663 
L 541.989475 149.166549 
L 544.030938 147.404848 
L 546.072402 148.357199 
L 548.113865 145.95087 
L 550.155328 143.813624 
L 552.196792 146.951874 
L 554.238255 152.43649 
L 556.279719 146.631841 
L 558.321182 147.179252 
L 560.362646 145.140241 
L 562.404109 146.404575 
L 564.445572 146.316095 
L 566.487036 145.131585 
L 568.528499 144.805334 
L 570.569963 147.567745 
L 572.611426 146.416241 
L 574.652889 148.946393 
L 576.694353 149.564634 
L 578.735816 142.912966 
L 580.77728 145.885487 
L 582.818743 146.269996 
L 584.860207 146.894257 
L 586.90167 147.449957 
L 588.943133 151.946108 
L 590.984597 153.806312 
L 593.02606 153.719374 
L 595.067524 158.62775 
L 597.108987 166.685845 
L 599.15045 157.309525 
L 601.191914 157.283507 
L 603.233377 157.553442 
L 605.274841 160.779097 
L 607.316304 161.568346 
L 609.357768 161.611861 
L 611.399231 168.533591 
L 613.440694 171.139697 
L 615.482158 163.427494 
L 617.523621 170.558455 
L 619.565085 167.16081 
L 621.606548 165.087275 
L 623.648011 173.754102 
L 625.689475 172.156793 
L 627.730938 177.815849 
L 629.772402 176.277231 
L 631.813865 172.692112 
L 633.855328 176.313692 
L 635.896792 176.477957 
L 637.938255 180.062119 
L 639.979719 178.107777 
L 642.021182 183.937608 
L 644.062646 180.10241 
L 646.104109 183.278321 
L 648.145572 182.898084 
L 650.187036 186.376037 
L 652.228499 181.320353 
L 654.269963 187.168335 
L 656.311426 187.0728 
L 658.352889 191.136417 
L 660.394353 193.390445 
L 662.435816 193.623158 
L 664.47728 192.845242 
L 666.518743 195.538758 
L 668.560207 197.605893 
L 670.60167 196.177901 
L 672.643133 195.768393 
L 674.684597 198.149302 
L 676.72606 200.323596 
L 678.767524 197.10766 
L 680.808987 195.334577 
L 682.85045 203.345313 
L 684.891914 207.0802 
L 686.933377 199.286763 
L 688.974841 201.831128 
L 691.016304 203.195987 
L 693.057768 203.949704 
L 695.099231 208.133349 
L 697.140694 207.777799 
L 699.182158 206.295201 
L 701.223621 208.188579 
L 703.265085 208.812493 
L 705.306548 204.65298 
L 707.348011 206.959131 
L 709.389475 205.749162 
L 711.430938 211.825298 
L 713.472402 219.252195 
L 715.513865 218.308775 
L 717.555328 212.594492 
L 719.596792 212.060142 
L 721.638255 212.949225 
L 723.679719 213.299474 
L 725.721182 218.794543 
L 727.762646 211.975594 
L 729.804109 219.320417 
L 731.845572 225.234849 
L 733.887036 220.418309 
L 735.928499 227.979322 
L 737.969963 223.351604 
L 740.011426 227.525652 
L 742.052889 224.888561 
L 744.094353 226.981028 
L 746.135816 231.063616 
L 748.17728 230.879662 
L 750.218743 232.201916 
L 752.260207 232.610639 
L 754.30167 233.109477 
L 756.343133 223.387181 
L 758.384597 236.122009 
L 760.42606 241.4031 
L 762.467524 236.462425 
L 764.508987 241.149182 
L 766.55045 242.23137 
L 768.591914 239.659535 
L 770.633377 244.938132 
L 772.674841 248.505612 
L 774.716304 246.591129 
L 776.757768 248.06904 
L 778.799231 248.965562 
L 780.840694 250.343627 
L 782.882158 254.389294 
L 784.923621 246.478048 
L 786.965085 256.583673 
L 789.006548 256.93675 
L 791.048011 257.474475 
L 793.089475 251.423709 
L 795.130938 259.125056 
L 797.172402 264.530052 
L 799.213865 259.342608 
L 801.255328 260.005452 
L 803.296792 268.614144 
L 805.338255 255.053236 
L 807.379719 267.695025 
L 809.421182 259.607285 
L 811.462646 272.439087 
L 813.504109 265.875741 
L 815.545572 272.371912 
L 817.587036 274.529545 
L 819.628499 277.111253 
L 821.669963 278.127979 
L 823.711426 274.077275 
L 825.752889 275.189651 
L 827.794353 278.519399 
L 829.835816 286.726318 
L 831.87728 287.450446 
L 833.918743 286.90801 
L 835.960207 295.943508 
L 838.00167 296.241167 
L 840.043133 290.290037 
L 842.084597 289.715914 
L 844.12606 305.997661 
L 846.167524 307.579938 
L 848.208987 311.095587 
L 850.25045 303.279074 
L 852.291914 284.728108 
L 854.333377 305.032037 
L 856.374841 300.067421 
L 858.416304 305.425357 
L 860.457768 312.606352 
L 862.499231 303.562222 
L 864.540694 316.092869 
L 866.582158 306.382176 
L 868.623621 306.332276 
L 870.665085 307.676145 
L 872.706548 315.301132 
L 874.748011 314.856626 
L 876.789475 313.662267 
L 878.830938 306.27435 
L 880.872402 310.834254 
L 882.913865 314.329275 
L 884.955328 311.249188 
L 886.996792 317.496361 
L 889.038255 313.106651 
L 891.079719 317.323155 
L 893.121182 323.898502 
L 895.162646 323.260367 
L 897.204109 317.421408 
L 899.245572 317.950492 
L 901.287036 317.178691 
L 903.328499 320.367124 
L 905.369963 320.645034 
L 907.411426 310.863399 
L 909.452889 319.227529 
L 911.494353 272.232947 
L 913.535816 319.932403 
L 915.57728 323.515431 
L 917.618743 316.938975 
L 919.660207 310.094597 
L 921.70167 324.330101 
L 923.743133 318.481429 
L 925.784597 307.950336 
L 927.82606 315.179391 
L 929.867524 315.670539 
L 931.908987 313.03621 
L 933.95045 319.896103 
L 935.991914 315.352434 
L 938.033377 318.141389 
L 940.074841 319.937527 
L 940.074841 264.371051 
L 940.074841 264.371051 
L 938.033377 268.958264 
L 935.991914 267.290694 
L 933.95045 269.414941 
L 931.908987 266.683034 
L 929.867524 268.199593 
L 927.82606 267.174109 
L 925.784597 268.205654 
L 923.743133 271.860283 
L 921.70167 272.55785 
L 919.660207 270.395359 
L 917.618743 271.18609 
L 915.57728 275.178804 
L 913.535816 272.970221 
L 911.494353 265.73047 
L 909.452889 274.397009 
L 907.411426 273.2565 
L 905.369963 275.558185 
L 903.328499 275.990782 
L 901.287036 275.520926 
L 899.245572 277.011447 
L 897.204109 277.218013 
L 895.162646 279.213632 
L 893.121182 279.916248 
L 891.079719 279.003341 
L 889.038255 278.192579 
L 886.996792 279.20273 
L 884.955328 277.368534 
L 882.913865 278.520053 
L 880.872402 278.334877 
L 878.830938 277.3668 
L 876.789475 280.287172 
L 874.748011 280.961655 
L 872.706548 282.192297 
L 870.665085 279.014924 
L 868.623621 279.498435 
L 866.582158 280.176704 
L 864.540694 283.273911 
L 862.499231 279.542201 
L 860.457768 282.815893 
L 858.416304 280.5874 
L 856.374841 279.23303 
L 854.333377 281.079468 
L 852.291914 275.580002 
L 850.25045 280.732897 
L 848.208987 284.223109 
L 846.167524 283.280009 
L 844.12606 282.73415 
L 842.084597 278.541641 
L 840.043133 278.167947 
L 838.00167 280.373216 
L 835.960207 280.175089 
L 833.918743 277.341665 
L 831.87728 277.413465 
L 829.835816 277.87803 
L 827.794353 273.185323 
L 825.752889 270.009052 
L 823.711426 267.914807 
L 821.669963 273.961837 
L 819.628499 272.569428 
L 817.587036 268.83697 
L 815.545572 264.959606 
L 813.504109 251.666895 
L 811.462646 264.893643 
L 809.421182 230.681639 
L 807.379719 253.758677 
L 805.338255 221.157396 
L 803.296792 256.367861 
L 801.255328 236.821123 
L 799.213865 236.385951 
L 797.172402 246.352607 
L 795.130938 234.425539 
L 793.089475 212.683288 
L 791.048011 228.397344 
L 789.006548 227.98981 
L 786.965085 227.2461 
L 784.923621 201.881683 
L 782.882158 214.268814 
L 780.840694 211.110884 
L 778.799231 209.179131 
L 776.757768 206.222544 
L 774.716304 200.76543 
L 772.674841 205.770702 
L 770.633377 196.294934 
L 768.591914 184.481744 
L 766.55045 193.959546 
L 764.508987 186.126311 
L 762.467524 179.090976 
L 760.42606 189.992274 
L 758.384597 177.674883 
L 756.343133 146.349021 
L 754.30167 168.825304 
L 752.260207 167.690537 
L 750.218743 167.493808 
L 748.17728 164.464132 
L 746.135816 164.328214 
L 744.094353 155.602874 
L 742.052889 151.84439 
L 740.011426 158.137497 
L 737.969963 145.527734 
L 735.928499 157.892517 
L 733.887036 140.502361 
L 731.845572 150.093553 
L 729.804109 138.401468 
L 727.762646 123.970432 
L 725.721182 136.675743 
L 723.679719 123.998649 
L 721.638255 124.561363 
L 719.596792 123.705837 
L 717.555328 124.597823 
L 715.513865 136.012371 
L 713.472402 138.469206 
L 711.430938 124.034936 
L 709.389475 109.226017 
L 707.348011 112.903376 
L 705.306548 109.61577 
L 703.265085 118.312403 
L 701.223621 116.982701 
L 699.182158 112.942093 
L 697.140694 117.279516 
L 695.099231 116.509813 
L 693.057768 108.739974 
L 691.016304 109.220441 
L 688.974841 105.95776 
L 686.933377 102.029906 
L 684.891914 118.265463 
L 682.85045 108.488499 
L 680.808987 95.239427 
L 678.767524 100.98756 
L 676.72606 106.089077 
L 674.684597 102.047667 
L 672.643133 98.841051 
L 670.60167 100.623432 
L 668.560207 106.032806 
L 666.518743 99.317652 
L 664.47728 96.595392 
L 662.435816 98.780648 
L 660.394353 94.424011 
L 658.352889 95.294111 
L 656.311426 86.935237 
L 654.269963 89.441699 
L 652.228499 79.332598 
L 650.187036 87.339062 
L 648.145572 83.021784 
L 646.104109 84.988798 
L 644.062646 81.968383 
L 642.021182 86.74995 
L 639.979719 77.672355 
L 637.938255 82.857875 
L 635.896792 77.051734 
L 633.855328 77.845416 
L 631.813865 73.258159 
L 629.772402 75.289005 
L 627.730938 81.275225 
L 625.689475 75.045748 
L 623.648011 76.324987 
L 621.606548 64.296536 
L 619.565085 69.614481 
L 617.523621 72.246773 
L 615.482158 62.964687 
L 613.440694 73.030688 
L 611.399231 73.699127 
L 609.357768 62.011944 
L 607.316304 62.113897 
L 605.274841 61.196351 
L 603.233377 56.920133 
L 601.191914 59.698191 
L 599.15045 58.54378 
L 597.108987 72.042093 
L 595.067524 62.533658 
L 593.02606 55.481477 
L 590.984597 55.550138 
L 588.943133 53.39412 
L 586.90167 49.073209 
L 584.860207 50.441668 
L 582.818743 47.477513 
L 580.77728 50.516723 
L 578.735816 46.252937 
L 576.694353 53.887844 
L 574.652889 54.755488 
L 572.611426 52.773148 
L 570.569963 54.322064 
L 568.528499 51.145514 
L 566.487036 53.262837 
L 564.445572 54.397921 
L 562.404109 57.845573 
L 560.362646 54.677392 
L 558.321182 58.564962 
L 556.279719 57.512831 
L 554.238255 64.969749 
L 552.196792 59.559155 
L 550.155328 56.579186 
L 548.113865 59.664279 
L 546.072402 60.948603 
L 544.030938 60.858746 
L 541.989475 65.119051 
L 539.948011 61.066712 
L 537.906548 63.885147 
L 535.865085 62.262618 
L 533.823621 62.803257 
L 531.782158 61.34166 
L 529.740694 59.286655 
L 527.699231 62.712706 
L 525.657768 67.32936 
L 523.616304 62.294991 
L 521.574841 64.929003 
L 519.533377 63.55292 
L 517.491914 64.992716 
L 515.45045 68.531778 
L 513.408987 67.119252 
L 511.367524 69.961341 
L 509.32606 70.594573 
L 507.284597 67.058034 
L 505.243133 68.889481 
L 503.20167 70.947508 
L 501.160207 71.585732 
L 499.118743 71.329992 
L 497.07728 72.741071 
L 495.035816 72.321413 
L 492.994353 74.491616 
L 490.952889 74.967427 
L 488.911426 75.317465 
L 486.869963 75.664492 
L 484.828499 71.306443 
L 482.787036 75.740211 
L 480.745572 77.400313 
L 478.704109 76.68848 
L 476.662646 76.644208 
L 474.621182 76.476815 
L 472.579719 77.626731 
L 470.538255 76.979343 
L 468.496792 78.797638 
L 466.455328 79.290995 
L 464.413865 78.585431 
L 462.372402 79.101224 
L 460.330938 79.872378 
L 458.289475 80.675955 
L 456.248011 83.954298 
L 454.206548 84.531395 
L 452.165085 85.978154 
L 450.123621 84.841047 
L 448.082158 86.217822 
L 446.040694 86.095543 
L 443.999231 86.316296 
L 441.957768 84.223659 
L 439.916304 88.910511 
L 437.874841 89.040134 
L 435.833377 89.059031 
L 433.791914 91.740063 
L 431.75045 91.212415 
L 429.708987 92.134569 
L 427.667524 90.287259 
L 425.62606 94.082563 
L 423.584597 92.527297 
L 421.543133 96.167166 
L 419.50167 98.65361 
L 417.460207 99.126559 
L 415.418743 102.336112 
L 413.37728 104.771253 
L 411.335816 104.327173 
L 409.294353 105.691026 
L 407.252889 105.839778 
L 405.211426 107.746377 
L 403.169963 106.771126 
L 401.128499 109.569696 
L 399.087036 111.585274 
L 397.045572 112.656413 
L 395.004109 113.175301 
L 392.962646 113.534232 
L 390.921182 116.623901 
L 388.879719 117.143729 
L 386.838255 118.963668 
L 384.796792 121.78066 
L 382.755328 122.514967 
L 380.713865 119.527892 
L 378.672402 120.145611 
L 376.630938 123.304382 
L 374.589475 123.492326 
L 372.548011 125.6169 
L 370.506548 127.105793 
L 368.465085 126.023642 
L 366.423621 126.88129 
L 364.382158 128.009087 
L 362.340694 130.170184 
L 360.299231 127.451255 
L 358.257768 128.433513 
L 356.216304 128.31322 
L 354.174841 131.483702 
L 352.133377 130.960537 
L 350.091914 129.022866 
L 348.05045 130.6703 
L 346.008987 132.375884 
L 343.967524 127.544889 
L 341.92606 131.821026 
L 339.884597 126.174366 
L 337.843133 125.872806 
L 335.80167 124.707848 
L 333.760207 125.991473 
L 331.718743 126.347944 
L 329.67728 125.649238 
L 327.635816 122.975252 
L 325.594353 125.03178 
L 323.552889 118.801557 
L 321.511426 112.070536 
L 319.469963 113.939264 
L 317.428499 117.527898 
L 315.387036 107.94668 
L 313.345572 108.41316 
L 311.304109 106.141348 
L 309.262646 105.55439 
L 307.221182 93.63821 
L 305.179719 92.675626 
L 303.138255 88.331535 
L 301.096792 79.004422 
L 299.055328 72.372934 
L 297.013865 79.728126 
L 294.972402 76.385854 
L 292.930938 70.581612 
L 290.889475 68.066748 
L 288.848011 63.857914 
L 286.806548 58.208123 
L 284.765085 61.109641 
L 282.723621 49.725777 
L 280.682158 44.383742 
L 278.640694 41.727587 
L 276.599231 39.666672 
L 274.557768 41.104074 
L 272.516304 38.367359 
L 270.474841 40.855685 
L 268.433377 44.600755 
L 266.391914 39.358317 
L 264.35045 39.030954 
L 262.308987 44.630573 
L 260.267524 46.132914 
L 258.22606 44.463392 
L 256.184597 55.581194 
L 254.143133 48.256063 
L 252.10167 51.172311 
L 250.060207 59.852779 
L 248.018743 57.828171 
L 245.97728 61.237871 
L 243.935816 64.334892 
L 241.894353 67.925128 
L 239.852889 71.361886 
L 237.811426 75.212654 
L 235.769963 78.806781 
L 233.728499 81.814035 
L 231.687036 86.384871 
L 229.645572 87.676401 
L 227.604109 93.638938 
L 225.562646 94.078604 
L 223.521182 97.251426 
L 221.479719 100.750317 
L 219.438255 103.469662 
L 217.396792 106.794788 
L 215.355328 109.454077 
L 213.313865 113.20502 
L 211.272402 115.568841 
L 209.230938 118.39763 
L 207.189475 121.667432 
L 205.148011 124.992848 
L 203.106548 127.117068 
L 201.065085 130.330304 
L 199.023621 132.597544 
L 196.982158 135.887334 
L 194.940694 138.487029 
L 192.899231 141.069466 
L 190.857768 143.899732 
L 188.816304 146.431449 
L 186.774841 148.614189 
L 184.733377 151.374797 
L 182.691914 152.88343 
L 180.65045 156.231826 
L 178.608987 158.556704 
L 176.567524 160.626365 
L 174.52606 163.106059 
L 172.484597 164.697674 
L 170.443133 166.913877 
L 168.40167 169.180941 
L 166.360207 171.652352 
L 164.318743 173.581406 
L 162.27728 175.477431 
L 160.235816 177.52671 
L 158.194353 179.498734 
L 156.152889 181.607694 
L 154.111426 183.31867 
L 152.069963 185.162841 
L 150.028499 186.691518 
L 147.987036 188.750161 
L 145.945572 190.271069 
L 143.904109 191.971475 
L 141.862646 194.055464 
L 139.821182 195.528579 
L 137.779719 196.029886 
L 135.738255 197.742244 
L 133.696792 198.660872 
L 131.655328 200.306747 
L 129.613865 202.204307 
L 127.572402 203.214433 
L 125.530938 204.156553 
L 123.489475 204.388923 
L 121.448011 205.358286 
L 119.406548 205.950013 
L 117.365085 206.580811 
L 115.323621 207.913827 
L 113.282158 208.698352 
L 111.240694 209.807928 
L 109.199231 209.201951 
L 107.157768 209.807173 
L 105.116304 208.837329 
L 103.074841 210.340801 
L 101.033377 210.559325 
L 98.991914 211.6489 
L 96.95045 209.276381 
L 94.908987 212.098118 
L 92.867524 211.843423 
L 90.82606 210.179121 
L 88.784597 209.728939 
L 86.743133 211.159728 
L 84.70167 213.659769 
L 82.660207 212.628487 
L 80.618743 212.5247 
L 78.57728 209.907548 
L 76.535816 209.812978 
L 74.494353 210.483405 
L 72.452889 211.977131 
L 70.411426 211.393808 
L 68.369963 210.992732 
L 66.328499 211.159713 
L 64.287036 212.036064 
L 62.245572 211.729856 
L 60.204109 212.253132 
L 58.162646 213.178242 
L 56.121182 212.378643 
L 54.079719 213.75723 
L 52.038255 213.895087 
L 49.996792 213.983742 
L 47.955328 214.823905 
L 45.913865 214.970779 
L 43.872402 215.913286 
L 41.830938 216.952119 
L 39.789475 216.885331 
L 37.748011 216.348395 
L 35.706548 215.940502 
L 33.665085 218.23941 
L 31.623621 217.748381 
L 29.582158 219.269912 
L 27.540694 219.223994 
L 25.499231 218.536559 
L 23.457768 220.046269 
L 21.416304 218.502486 
L 19.374841 218.507184 
L 17.333377 220.448746 
L 15.291914 218.936521 
L 13.25045 220.770866 
L 11.208987 221.317625 
L 9.167524 219.655255 
L 7.12606 214.501849 
L 5.084597 217.70358 
L 3.043133 216.089358 
L 1.00167 208.458118 
L -1.039793 214.867722 
L -3.081257 216.145197 
L -5.12272 209.088241 
L -7.164184 207.123328 
L -9.205647 210.837259 
L -11.247111 203.192903 
L -13.288574 189.827656 
L -15.330037 204.480079 
L -17.371501 210.233415 
L -19.412964 213.067918 
L -21.454428 194.728388 
L -23.495891 195.476099 
L -25.537354 186.198937 
L -27.578818 178.944391 
L -29.620281 193.517244 
L -31.661745 187.274569 
L -33.703208 174.266403 
L -35.744672 165.128335 
L -37.786135 165.699596 
L -39.827598 167.295928 
L -41.869062 165.374001 
L -43.910525 164.256557 
L -45.951989 169.505444 
L -47.993452 168.909006 
L -50.034915 165.513482 
L -52.076379 167.626623 
L -54.117842 166.248824 
L -56.159306 165.751942 
L -58.200769 165.937821 
L -60.242232 168.024985 
L -62.283696 169.276429 
L -64.325159 170.016221 
L -66.366623 171.836575 
L -68.408086 172.718167 
L -70.44955 174.203036 
L -72.491013 176.514155 
L -74.532476 178.364816 
L -76.57394 179.626474 
L -78.615403 181.014207 
L -80.656867 182.834179 
L -82.69833 183.994932 
L -84.739793 185.739073 
L -86.781257 187.845951 
L -88.82272 189.122492 
L -90.864184 190.011273 
L -92.905647 191.328005 
L -94.947111 192.68355 
L -96.988574 193.909511 
L -99.030037 195.081793 
L -101.071501 196.211502 
L -103.112964 197.751068 
L -105.154428 198.563381 
L -107.195891 199.696034 
L -109.237354 200.884685 
L -111.278818 201.905688 
L -113.320281 202.913015 
L -115.361745 203.750367 
L -117.403208 204.650465 
L -119.444672 205.840343 
L -121.486135 206.677934 
L -123.527598 207.653513 
L -125.569062 208.447648 
L -127.610525 209.332299 
L -129.651989 210.239333 
L -131.693452 211.162295 
L -133.734915 211.935035 
L -135.776379 212.829259 
L -137.817842 213.615504 
L -139.859306 214.457286 
L -141.900769 215.241158 
L -143.942232 216.049673 
L -145.983696 216.804101 
L -148.025159 217.606816 
L -150.066623 218.463545 
L -152.108086 219.130139 
L -154.14955 219.938373 
L -156.191013 220.629166 
L -158.232476 221.429356 
L -160.27394 222.015343 
L -162.315403 222.759614 
L -164.356867 223.468792 
L -166.39833 224.144056 
L -168.439793 224.831071 
L -170.481257 225.466743 
L -172.52272 226.207476 
L -174.564184 226.874388 
L -176.605647 227.424458 
L -178.647111 228.077262 
L -180.688574 228.729191 
L -182.730037 229.378011 
L -184.771501 230.004249 
L -186.812964 230.588448 
L -188.854428 231.231199 
L -190.895891 231.861489 
L -192.937354 232.495049 
L -194.978818 233.126515 
L -197.020281 233.775057 
L -199.061745 234.449124 
L -201.103208 235.03069 
L -203.144672 235.695962 
L -205.186135 236.348824 
L -207.227598 236.975973 
L -209.269062 237.623032 
L -211.310525 238.283401 
L -213.351989 238.924467 
L -215.393452 239.597153 
L -217.434915 240.211381 
L -219.476379 240.838014 
L -221.517842 241.50022 
L -223.559306 242.140271 
L -225.600769 242.748163 
L -227.642232 243.391448 
L -229.683696 243.979529 
L -231.725159 244.608044 
L -233.766623 245.277384 
L -235.808086 245.852979 
L -237.84955 246.496661 
L -239.891013 247.106588 
L -241.932476 247.746125 
L -243.97394 248.325799 
L -246.015403 249.002551 
L -248.056867 249.564458 
L -250.09833 250.19396 
L -252.139793 250.810058 
L -254.181257 251.441685 
L -256.22272 252.042282 
L -258.264184 252.654006 
L -260.305647 253.268224 
L -262.347111 253.902937 
L -264.388574 254.492938 
L -266.430037 255.051341 
L -268.471501 255.605128 
L -270.512964 256.162171 
L -272.554428 256.700313 
L -274.595891 257.247286 
L -276.637354 257.787583 
L -278.678818 258.303677 
L -280.720281 258.825526 
L -282.761745 259.344439 
L -284.803208 259.817169 
L -286.844672 260.297613 
L -288.886135 260.798267 
L -290.927598 261.272742 
L -292.969062 261.697819 
L -295.010525 262.165164 
L -297.051989 262.592674 
L -299.093452 262.987002 
L -301.134915 263.381252 
L -303.176379 263.750189 
L -305.217842 264.147138 
L -307.259306 264.476177 
L -309.300769 264.823187 
L -311.342232 265.150032 
L -313.383696 265.453212 
L -315.425159 265.729889 
L -317.466623 265.981743 
L -319.508086 266.23182 
L -321.54955 266.479599 
L -323.591013 266.68553 
L -325.632476 266.914904 
L -327.67394 267.109777 
L -329.715403 267.278244 
L -331.756867 267.474917 
L -333.79833 267.647459 
L -335.839793 267.790893 
L -337.881257 267.944476 
L -339.92272 268.093817 
L -341.964184 268.225473 
L -344.005647 268.357527 
L -346.047111 268.467237 
L -348.088574 268.599109 
L -350.130037 268.704581 
L -352.171501 268.81525 
L -354.212964 268.931195 
L -356.254428 269.026248 
L -358.295891 269.126756 
L -360.337354 269.257374 
L -362.378818 269.350316 
L -364.420281 269.463625 
L -366.461745 269.55376 
L -368.503208 269.672935 
L -370.544672 269.767649 
L -372.586135 269.867604 
L -374.627598 269.955096 
L -376.669062 270.034388 
L -378.710525 270.124748 
L -380.751989 270.224016 
L -382.793452 270.320664 
L -384.834915 270.403058 
L -386.876379 270.469684 
L -388.917842 270.565036 
L -390.959306 270.643233 
L -393.000769 270.737225 
z
" clip-path="url(#pd203df1669)" style="fill: #008000; fill-opacity: 0.3; stroke: #008000; stroke-opacity: 0.3"/>
   </g>
   <g id="matplotlib.axis_1">
    <g id="xtick_1">
     <g id="line2d_1">
      <defs>
       <path id="m41e91cf803" d="M 0 0 
L 0 3.5 
" style="stroke: #000000; stroke-width: 0.8"/>
      </defs>
      <g>
       <use xlink:href="#m41e91cf803" x="103.074841" y="395.28" style="stroke: #000000; stroke-width: 0.8"/>
      </g>
     </g>
     <g id="text_1">
      <!-- 2022-03-01 -->
      <g transform="translate(17.945813 495.213718) rotate(-45) scale(0.2 -0.2)">
       <defs>
        <path id="DejaVuSans-32" d="M 1228 531 
L 3431 531 
L 3431 0 
L 469 0 
L 469 531 
Q 828 903 1448 1529 
Q 2069 2156 2228 2338 
Q 2531 2678 2651 2914 
Q 2772 3150 2772 3378 
Q 2772 3750 2511 3984 
Q 2250 4219 1831 4219 
Q 1534 4219 1204 4116 
Q 875 4013 500 3803 
L 500 4441 
Q 881 4594 1212 4672 
Q 1544 4750 1819 4750 
Q 2544 4750 2975 4387 
Q 3406 4025 3406 3419 
Q 3406 3131 3298 2873 
Q 3191 2616 2906 2266 
Q 2828 2175 2409 1742 
Q 1991 1309 1228 531 
z
" transform="scale(0.015625)"/>
        <path id="DejaVuSans-30" d="M 2034 4250 
Q 1547 4250 1301 3770 
Q 1056 3291 1056 2328 
Q 1056 1369 1301 889 
Q 1547 409 2034 409 
Q 2525 409 2770 889 
Q 3016 1369 3016 2328 
Q 3016 3291 2770 3770 
Q 2525 4250 2034 4250 
z
M 2034 4750 
Q 2819 4750 3233 4129 
Q 3647 3509 3647 2328 
Q 3647 1150 3233 529 
Q 2819 -91 2034 -91 
Q 1250 -91 836 529 
Q 422 1150 422 2328 
Q 422 3509 836 4129 
Q 1250 4750 2034 4750 
z
" transform="scale(0.015625)"/>
        <path id="DejaVuSans-2d" d="M 313 2009 
L 1997 2009 
L 1997 1497 
L 313 1497 
L 313 2009 
z
" transform="scale(0.015625)"/>
        <path id="DejaVuSans-33" d="M 2597 2516 
Q 3050 2419 3304 2112 
Q 3559 1806 3559 1356 
Q 3559 666 3084 287 
Q 2609 -91 1734 -91 
Q 1441 -91 1130 -33 
Q 819 25 488 141 
L 488 750 
Q 750 597 1062 519 
Q 1375 441 1716 441 
Q 2309 441 2620 675 
Q 2931 909 2931 1356 
Q 2931 1769 2642 2001 
Q 2353 2234 1838 2234 
L 1294 2234 
L 1294 2753 
L 1863 2753 
Q 2328 2753 2575 2939 
Q 2822 3125 2822 3475 
Q 2822 3834 2567 4026 
Q 2313 4219 1838 4219 
Q 1578 4219 1281 4162 
Q 984 4106 628 3988 
L 628 4550 
Q 988 4650 1302 4700 
Q 1616 4750 1894 4750 
Q 2613 4750 3031 4423 
Q 3450 4097 3450 3541 
Q 3450 3153 3228 2886 
Q 3006 2619 2597 2516 
z
" transform="scale(0.015625)"/>
        <path id="DejaVuSans-31" d="M 794 531 
L 1825 531 
L 1825 4091 
L 703 3866 
L 703 4441 
L 1819 4666 
L 2450 4666 
L 2450 531 
L 3481 531 
L 3481 0 
L 794 0 
L 794 531 
z
" transform="scale(0.015625)"/>
       </defs>
       <use xlink:href="#DejaVuSans-32"/>
       <use xlink:href="#DejaVuSans-30" x="63.623047"/>
       <use xlink:href="#DejaVuSans-32" x="127.246094"/>
       <use xlink:href="#DejaVuSans-32" x="190.869141"/>
       <use xlink:href="#DejaVuSans-2d" x="254.492188"/>
       <use xlink:href="#DejaVuSans-30" x="290.576172"/>
       <use xlink:href="#DejaVuSans-33" x="354.199219"/>
       <use xlink:href="#DejaVuSans-2d" x="417.822266"/>
       <use xlink:href="#DejaVuSans-30" x="453.90625"/>
       <use xlink:href="#DejaVuSans-31" x="517.529297"/>
      </g>
     </g>
    </g>
    <g id="xtick_2">
     <g id="line2d_2">
      <g>
       <use xlink:href="#m41e91cf803" x="160.235816" y="395.28" style="stroke: #000000; stroke-width: 0.8"/>
      </g>
     </g>
     <g id="text_2">
      <!-- 2022-03-29 -->
      <g transform="translate(75.106789 495.213718) rotate(-45) scale(0.2 -0.2)">
       <defs>
        <path id="DejaVuSans-39" d="M 703 97 
L 703 672 
Q 941 559 1184 500 
Q 1428 441 1663 441 
Q 2288 441 2617 861 
Q 2947 1281 2994 2138 
Q 2813 1869 2534 1725 
Q 2256 1581 1919 1581 
Q 1219 1581 811 2004 
Q 403 2428 403 3163 
Q 403 3881 828 4315 
Q 1253 4750 1959 4750 
Q 2769 4750 3195 4129 
Q 3622 3509 3622 2328 
Q 3622 1225 3098 567 
Q 2575 -91 1691 -91 
Q 1453 -91 1209 -44 
Q 966 3 703 97 
z
M 1959 2075 
Q 2384 2075 2632 2365 
Q 2881 2656 2881 3163 
Q 2881 3666 2632 3958 
Q 2384 4250 1959 4250 
Q 1534 4250 1286 3958 
Q 1038 3666 1038 3163 
Q 1038 2656 1286 2365 
Q 1534 2075 1959 2075 
z
" transform="scale(0.015625)"/>
       </defs>
       <use xlink:href="#DejaVuSans-32"/>
       <use xlink:href="#DejaVuSans-30" x="63.623047"/>
       <use xlink:href="#DejaVuSans-32" x="127.246094"/>
       <use xlink:href="#DejaVuSans-32" x="190.869141"/>
       <use xlink:href="#DejaVuSans-2d" x="254.492188"/>
       <use xlink:href="#DejaVuSans-30" x="290.576172"/>
       <use xlink:href="#DejaVuSans-33" x="354.199219"/>
       <use xlink:href="#DejaVuSans-2d" x="417.822266"/>
       <use xlink:href="#DejaVuSans-32" x="453.90625"/>
       <use xlink:href="#DejaVuSans-39" x="517.529297"/>
      </g>
     </g>
    </g>
    <g id="xtick_3">
     <g id="line2d_3">
      <g>
       <use xlink:href="#m41e91cf803" x="217.396792" y="395.28" style="stroke: #000000; stroke-width: 0.8"/>
      </g>
     </g>
     <g id="text_3">
      <!-- 2022-04-26 -->
      <g transform="translate(132.267765 495.213718) rotate(-45) scale(0.2 -0.2)">
       <defs>
        <path id="DejaVuSans-34" d="M 2419 4116 
L 825 1625 
L 2419 1625 
L 2419 4116 
z
M 2253 4666 
L 3047 4666 
L 3047 1625 
L 3713 1625 
L 3713 1100 
L 3047 1100 
L 3047 0 
L 2419 0 
L 2419 1100 
L 313 1100 
L 313 1709 
L 2253 4666 
z
" transform="scale(0.015625)"/>
        <path id="DejaVuSans-36" d="M 2113 2584 
Q 1688 2584 1439 2293 
Q 1191 2003 1191 1497 
Q 1191 994 1439 701 
Q 1688 409 2113 409 
Q 2538 409 2786 701 
Q 3034 994 3034 1497 
Q 3034 2003 2786 2293 
Q 2538 2584 2113 2584 
z
M 3366 4563 
L 3366 3988 
Q 3128 4100 2886 4159 
Q 2644 4219 2406 4219 
Q 1781 4219 1451 3797 
Q 1122 3375 1075 2522 
Q 1259 2794 1537 2939 
Q 1816 3084 2150 3084 
Q 2853 3084 3261 2657 
Q 3669 2231 3669 1497 
Q 3669 778 3244 343 
Q 2819 -91 2113 -91 
Q 1303 -91 875 529 
Q 447 1150 447 2328 
Q 447 3434 972 4092 
Q 1497 4750 2381 4750 
Q 2619 4750 2861 4703 
Q 3103 4656 3366 4563 
z
" transform="scale(0.015625)"/>
       </defs>
       <use xlink:href="#DejaVuSans-32"/>
       <use xlink:href="#DejaVuSans-30" x="63.623047"/>
       <use xlink:href="#DejaVuSans-32" x="127.246094"/>
       <use xlink:href="#DejaVuSans-32" x="190.869141"/>
       <use xlink:href="#DejaVuSans-2d" x="254.492188"/>
       <use xlink:href="#DejaVuSans-30" x="290.576172"/>
       <use xlink:href="#DejaVuSans-34" x="354.199219"/>
       <use xlink:href="#DejaVuSans-2d" x="417.822266"/>
       <use xlink:href="#DejaVuSans-32" x="453.90625"/>
       <use xlink:href="#DejaVuSans-36" x="517.529297"/>
      </g>
     </g>
    </g>
    <g id="xtick_4">
     <g id="line2d_4">
      <g>
       <use xlink:href="#m41e91cf803" x="274.557768" y="395.28" style="stroke: #000000; stroke-width: 0.8"/>
      </g>
     </g>
     <g id="text_4">
      <!-- 2022-05-24 -->
      <g transform="translate(189.42874 495.213718) rotate(-45) scale(0.2 -0.2)">
       <defs>
        <path id="DejaVuSans-35" d="M 691 4666 
L 3169 4666 
L 3169 4134 
L 1269 4134 
L 1269 2991 
Q 1406 3038 1543 3061 
Q 1681 3084 1819 3084 
Q 2600 3084 3056 2656 
Q 3513 2228 3513 1497 
Q 3513 744 3044 326 
Q 2575 -91 1722 -91 
Q 1428 -91 1123 -41 
Q 819 9 494 109 
L 494 744 
Q 775 591 1075 516 
Q 1375 441 1709 441 
Q 2250 441 2565 725 
Q 2881 1009 2881 1497 
Q 2881 1984 2565 2268 
Q 2250 2553 1709 2553 
Q 1456 2553 1204 2497 
Q 953 2441 691 2322 
L 691 4666 
z
" transform="scale(0.015625)"/>
       </defs>
       <use xlink:href="#DejaVuSans-32"/>
       <use xlink:href="#DejaVuSans-30" x="63.623047"/>
       <use xlink:href="#DejaVuSans-32" x="127.246094"/>
       <use xlink:href="#DejaVuSans-32" x="190.869141"/>
       <use xlink:href="#DejaVuSans-2d" x="254.492188"/>
       <use xlink:href="#DejaVuSans-30" x="290.576172"/>
       <use xlink:href="#DejaVuSans-35" x="354.199219"/>
       <use xlink:href="#DejaVuSans-2d" x="417.822266"/>
       <use xlink:href="#DejaVuSans-32" x="453.90625"/>
       <use xlink:href="#DejaVuSans-34" x="517.529297"/>
      </g>
     </g>
    </g>
    <g id="xtick_5">
     <g id="line2d_5">
      <g>
       <use xlink:href="#m41e91cf803" x="331.718743" y="395.28" style="stroke: #000000; stroke-width: 0.8"/>
      </g>
     </g>
     <g id="text_5">
      <!-- 2022-06-21 -->
      <g transform="translate(246.589716 495.213718) rotate(-45) scale(0.2 -0.2)">
       <use xlink:href="#DejaVuSans-32"/>
       <use xlink:href="#DejaVuSans-30" x="63.623047"/>
       <use xlink:href="#DejaVuSans-32" x="127.246094"/>
       <use xlink:href="#DejaVuSans-32" x="190.869141"/>
       <use xlink:href="#DejaVuSans-2d" x="254.492188"/>
       <use xlink:href="#DejaVuSans-30" x="290.576172"/>
       <use xlink:href="#DejaVuSans-36" x="354.199219"/>
       <use xlink:href="#DejaVuSans-2d" x="417.822266"/>
       <use xlink:href="#DejaVuSans-32" x="453.90625"/>
       <use xlink:href="#DejaVuSans-31" x="517.529297"/>
      </g>
     </g>
    </g>
    <g id="xtick_6">
     <g id="line2d_6">
      <g>
       <use xlink:href="#m41e91cf803" x="388.879719" y="395.28" style="stroke: #000000; stroke-width: 0.8"/>
      </g>
     </g>
     <g id="text_6">
      <!-- 2022-07-19 -->
      <g transform="translate(303.750691 495.213718) rotate(-45) scale(0.2 -0.2)">
       <defs>
        <path id="DejaVuSans-37" d="M 525 4666 
L 3525 4666 
L 3525 4397 
L 1831 0 
L 1172 0 
L 2766 4134 
L 525 4134 
L 525 4666 
z
" transform="scale(0.015625)"/>
       </defs>
       <use xlink:href="#DejaVuSans-32"/>
       <use xlink:href="#DejaVuSans-30" x="63.623047"/>
       <use xlink:href="#DejaVuSans-32" x="127.246094"/>
       <use xlink:href="#DejaVuSans-32" x="190.869141"/>
       <use xlink:href="#DejaVuSans-2d" x="254.492188"/>
       <use xlink:href="#DejaVuSans-30" x="290.576172"/>
       <use xlink:href="#DejaVuSans-37" x="354.199219"/>
       <use xlink:href="#DejaVuSans-2d" x="417.822266"/>
       <use xlink:href="#DejaVuSans-31" x="453.90625"/>
       <use xlink:href="#DejaVuSans-39" x="517.529297"/>
      </g>
     </g>
    </g>
    <g id="xtick_7">
     <g id="line2d_7">
      <g>
       <use xlink:href="#m41e91cf803" x="446.040694" y="395.28" style="stroke: #000000; stroke-width: 0.8"/>
      </g>
     </g>
     <g id="text_7">
      <!-- 2022-08-16 -->
      <g transform="translate(360.911667 495.213718) rotate(-45) scale(0.2 -0.2)">
       <defs>
        <path id="DejaVuSans-38" d="M 2034 2216 
Q 1584 2216 1326 1975 
Q 1069 1734 1069 1313 
Q 1069 891 1326 650 
Q 1584 409 2034 409 
Q 2484 409 2743 651 
Q 3003 894 3003 1313 
Q 3003 1734 2745 1975 
Q 2488 2216 2034 2216 
z
M 1403 2484 
Q 997 2584 770 2862 
Q 544 3141 544 3541 
Q 544 4100 942 4425 
Q 1341 4750 2034 4750 
Q 2731 4750 3128 4425 
Q 3525 4100 3525 3541 
Q 3525 3141 3298 2862 
Q 3072 2584 2669 2484 
Q 3125 2378 3379 2068 
Q 3634 1759 3634 1313 
Q 3634 634 3220 271 
Q 2806 -91 2034 -91 
Q 1263 -91 848 271 
Q 434 634 434 1313 
Q 434 1759 690 2068 
Q 947 2378 1403 2484 
z
M 1172 3481 
Q 1172 3119 1398 2916 
Q 1625 2713 2034 2713 
Q 2441 2713 2670 2916 
Q 2900 3119 2900 3481 
Q 2900 3844 2670 4047 
Q 2441 4250 2034 4250 
Q 1625 4250 1398 4047 
Q 1172 3844 1172 3481 
z
" transform="scale(0.015625)"/>
       </defs>
       <use xlink:href="#DejaVuSans-32"/>
       <use xlink:href="#DejaVuSans-30" x="63.623047"/>
       <use xlink:href="#DejaVuSans-32" x="127.246094"/>
       <use xlink:href="#DejaVuSans-32" x="190.869141"/>
       <use xlink:href="#DejaVuSans-2d" x="254.492188"/>
       <use xlink:href="#DejaVuSans-30" x="290.576172"/>
       <use xlink:href="#DejaVuSans-38" x="354.199219"/>
       <use xlink:href="#DejaVuSans-2d" x="417.822266"/>
       <use xlink:href="#DejaVuSans-31" x="453.90625"/>
       <use xlink:href="#DejaVuSans-36" x="517.529297"/>
      </g>
     </g>
    </g>
    <g id="xtick_8">
     <g id="line2d_8">
      <g>
       <use xlink:href="#m41e91cf803" x="503.20167" y="395.28" style="stroke: #000000; stroke-width: 0.8"/>
      </g>
     </g>
     <g id="text_8">
      <!-- 2022-09-13 -->
      <g transform="translate(418.072643 495.213718) rotate(-45) scale(0.2 -0.2)">
       <use xlink:href="#DejaVuSans-32"/>
       <use xlink:href="#DejaVuSans-30" x="63.623047"/>
       <use xlink:href="#DejaVuSans-32" x="127.246094"/>
       <use xlink:href="#DejaVuSans-32" x="190.869141"/>
       <use xlink:href="#DejaVuSans-2d" x="254.492188"/>
       <use xlink:href="#DejaVuSans-30" x="290.576172"/>
       <use xlink:href="#DejaVuSans-39" x="354.199219"/>
       <use xlink:href="#DejaVuSans-2d" x="417.822266"/>
       <use xlink:href="#DejaVuSans-31" x="453.90625"/>
       <use xlink:href="#DejaVuSans-33" x="517.529297"/>
      </g>
     </g>
    </g>
    <g id="xtick_9">
     <g id="line2d_9">
      <g>
       <use xlink:href="#m41e91cf803" x="560.362646" y="395.28" style="stroke: #000000; stroke-width: 0.8"/>
      </g>
     </g>
     <g id="text_9">
      <!-- 2022-10-11 -->
      <g transform="translate(475.233618 495.213718) rotate(-45) scale(0.2 -0.2)">
       <use xlink:href="#DejaVuSans-32"/>
       <use xlink:href="#DejaVuSans-30" x="63.623047"/>
       <use xlink:href="#DejaVuSans-32" x="127.246094"/>
       <use xlink:href="#DejaVuSans-32" x="190.869141"/>
       <use xlink:href="#DejaVuSans-2d" x="254.492188"/>
       <use xlink:href="#DejaVuSans-31" x="290.576172"/>
       <use xlink:href="#DejaVuSans-30" x="354.199219"/>
       <use xlink:href="#DejaVuSans-2d" x="417.822266"/>
       <use xlink:href="#DejaVuSans-31" x="453.90625"/>
       <use xlink:href="#DejaVuSans-31" x="517.529297"/>
      </g>
     </g>
    </g>
    <g id="xtick_10">
     <g id="line2d_10">
      <g>
       <use xlink:href="#m41e91cf803" x="617.523621" y="395.28" style="stroke: #000000; stroke-width: 0.8"/>
      </g>
     </g>
     <g id="text_10">
      <!-- 2022-11-08 -->
      <g transform="translate(532.394594 495.213718) rotate(-45) scale(0.2 -0.2)">
       <use xlink:href="#DejaVuSans-32"/>
       <use xlink:href="#DejaVuSans-30" x="63.623047"/>
       <use xlink:href="#DejaVuSans-32" x="127.246094"/>
       <use xlink:href="#DejaVuSans-32" x="190.869141"/>
       <use xlink:href="#DejaVuSans-2d" x="254.492188"/>
       <use xlink:href="#DejaVuSans-31" x="290.576172"/>
       <use xlink:href="#DejaVuSans-31" x="354.199219"/>
       <use xlink:href="#DejaVuSans-2d" x="417.822266"/>
       <use xlink:href="#DejaVuSans-30" x="453.90625"/>
       <use xlink:href="#DejaVuSans-38" x="517.529297"/>
      </g>
     </g>
    </g>
    <g id="xtick_11">
     <g id="line2d_11">
      <g>
       <use xlink:href="#m41e91cf803" x="674.684597" y="395.28" style="stroke: #000000; stroke-width: 0.8"/>
      </g>
     </g>
     <g id="text_11">
      <!-- 2022-12-06 -->
      <g transform="translate(589.555569 495.213718) rotate(-45) scale(0.2 -0.2)">
       <use xlink:href="#DejaVuSans-32"/>
       <use xlink:href="#DejaVuSans-30" x="63.623047"/>
       <use xlink:href="#DejaVuSans-32" x="127.246094"/>
       <use xlink:href="#DejaVuSans-32" x="190.869141"/>
       <use xlink:href="#DejaVuSans-2d" x="254.492188"/>
       <use xlink:href="#DejaVuSans-31" x="290.576172"/>
       <use xlink:href="#DejaVuSans-32" x="354.199219"/>
       <use xlink:href="#DejaVuSans-2d" x="417.822266"/>
       <use xlink:href="#DejaVuSans-30" x="453.90625"/>
       <use xlink:href="#DejaVuSans-36" x="517.529297"/>
      </g>
     </g>
    </g>
    <g id="xtick_12">
     <g id="line2d_12">
      <g>
       <use xlink:href="#m41e91cf803" x="731.845572" y="395.28" style="stroke: #000000; stroke-width: 0.8"/>
      </g>
     </g>
     <g id="text_12">
      <!-- 2023-01-03 -->
      <g transform="translate(646.716545 495.213718) rotate(-45) scale(0.2 -0.2)">
       <use xlink:href="#DejaVuSans-32"/>
       <use xlink:href="#DejaVuSans-30" x="63.623047"/>
       <use xlink:href="#DejaVuSans-32" x="127.246094"/>
       <use xlink:href="#DejaVuSans-33" x="190.869141"/>
       <use xlink:href="#DejaVuSans-2d" x="254.492188"/>
       <use xlink:href="#DejaVuSans-30" x="290.576172"/>
       <use xlink:href="#DejaVuSans-31" x="354.199219"/>
       <use xlink:href="#DejaVuSans-2d" x="417.822266"/>
       <use xlink:href="#DejaVuSans-30" x="453.90625"/>
       <use xlink:href="#DejaVuSans-33" x="517.529297"/>
      </g>
     </g>
    </g>
    <g id="xtick_13">
     <g id="line2d_13">
      <g>
       <use xlink:href="#m41e91cf803" x="789.006548" y="395.28" style="stroke: #000000; stroke-width: 0.8"/>
      </g>
     </g>
     <g id="text_13">
      <!-- 2023-01-31 -->
      <g transform="translate(703.877521 495.213718) rotate(-45) scale(0.2 -0.2)">
       <use xlink:href="#DejaVuSans-32"/>
       <use xlink:href="#DejaVuSans-30" x="63.623047"/>
       <use xlink:href="#DejaVuSans-32" x="127.246094"/>
       <use xlink:href="#DejaVuSans-33" x="190.869141"/>
       <use xlink:href="#DejaVuSans-2d" x="254.492188"/>
       <use xlink:href="#DejaVuSans-30" x="290.576172"/>
       <use xlink:href="#DejaVuSans-31" x="354.199219"/>
       <use xlink:href="#DejaVuSans-2d" x="417.822266"/>
       <use xlink:href="#DejaVuSans-33" x="453.90625"/>
       <use xlink:href="#DejaVuSans-31" x="517.529297"/>
      </g>
     </g>
    </g>
    <g id="xtick_14">
     <g id="line2d_14">
      <g>
       <use xlink:href="#m41e91cf803" x="846.167524" y="395.28" style="stroke: #000000; stroke-width: 0.8"/>
      </g>
     </g>
     <g id="text_14">
      <!-- 2023-02-28 -->
      <g transform="translate(761.038496 495.213718) rotate(-45) scale(0.2 -0.2)">
       <use xlink:href="#DejaVuSans-32"/>
       <use xlink:href="#DejaVuSans-30" x="63.623047"/>
       <use xlink:href="#DejaVuSans-32" x="127.246094"/>
       <use xlink:href="#DejaVuSans-33" x="190.869141"/>
       <use xlink:href="#DejaVuSans-2d" x="254.492188"/>
       <use xlink:href="#DejaVuSans-30" x="290.576172"/>
       <use xlink:href="#DejaVuSans-32" x="354.199219"/>
       <use xlink:href="#DejaVuSans-2d" x="417.822266"/>
       <use xlink:href="#DejaVuSans-32" x="453.90625"/>
       <use xlink:href="#DejaVuSans-38" x="517.529297"/>
      </g>
     </g>
    </g>
    <g id="xtick_15">
     <g id="line2d_15">
      <g>
       <use xlink:href="#m41e91cf803" x="903.328499" y="395.28" style="stroke: #000000; stroke-width: 0.8"/>
      </g>
     </g>
     <g id="text_15">
      <!-- 2023-03-28 -->
      <g transform="translate(818.199472 495.213718) rotate(-45) scale(0.2 -0.2)">
       <use xlink:href="#DejaVuSans-32"/>
       <use xlink:href="#DejaVuSans-30" x="63.623047"/>
       <use xlink:href="#DejaVuSans-32" x="127.246094"/>
       <use xlink:href="#DejaVuSans-33" x="190.869141"/>
       <use xlink:href="#DejaVuSans-2d" x="254.492188"/>
       <use xlink:href="#DejaVuSans-30" x="290.576172"/>
       <use xlink:href="#DejaVuSans-33" x="354.199219"/>
       <use xlink:href="#DejaVuSans-2d" x="417.822266"/>
       <use xlink:href="#DejaVuSans-32" x="453.90625"/>
       <use xlink:href="#DejaVuSans-38" x="517.529297"/>
      </g>
     </g>
    </g>
    <g id="xtick_16">
     <g id="line2d_16">
      <g>
       <use xlink:href="#m41e91cf803" x="940.074841" y="395.28" style="stroke: #000000; stroke-width: 0.8"/>
      </g>
     </g>
     <g id="text_16">
      <!-- 2023-04-15 -->
      <g transform="translate(854.945813 495.213718) rotate(-45) scale(0.2 -0.2)">
       <use xlink:href="#DejaVuSans-32"/>
       <use xlink:href="#DejaVuSans-30" x="63.623047"/>
       <use xlink:href="#DejaVuSans-32" x="127.246094"/>
       <use xlink:href="#DejaVuSans-33" x="190.869141"/>
       <use xlink:href="#DejaVuSans-2d" x="254.492188"/>
       <use xlink:href="#DejaVuSans-30" x="290.576172"/>
       <use xlink:href="#DejaVuSans-34" x="354.199219"/>
       <use xlink:href="#DejaVuSans-2d" x="417.822266"/>
       <use xlink:href="#DejaVuSans-31" x="453.90625"/>
       <use xlink:href="#DejaVuSans-35" x="517.529297"/>
      </g>
     </g>
    </g>
   </g>
   <g id="matplotlib.axis_2">
    <g id="ytick_1">
     <g id="line2d_17">
      <defs>
       <path id="ma28795cfc4" d="M 0 0 
L -3.5 0 
" style="stroke: #000000; stroke-width: 0.8"/>
      </defs>
      <g>
       <use xlink:href="#ma28795cfc4" x="103.074841" y="338.425303" style="stroke: #000000; stroke-width: 0.8"/>
      </g>
     </g>
     <g id="text_17">
      <!-- 0.05 -->
      <g transform="translate(34.784216 346.02374) scale(0.2 -0.2)">
       <defs>
        <path id="DejaVuSans-2212" d="M 678 2272 
L 4684 2272 
L 4684 1741 
L 678 1741 
L 678 2272 
z
" transform="scale(0.015625)"/>
        <path id="DejaVuSans-2e" d="M 684 794 
L 1344 794 
L 1344 0 
L 684 0 
L 684 794 
z
" transform="scale(0.015625)"/>
       </defs>
       <use xlink:href="#DejaVuSans-2212"/>
       <use xlink:href="#DejaVuSans-30" x="83.789062"/>
       <use xlink:href="#DejaVuSans-2e" x="147.412109"/>
       <use xlink:href="#DejaVuSans-30" x="179.199219"/>
       <use xlink:href="#DejaVuSans-35" x="242.822266"/>
      </g>
     </g>
    </g>
    <g id="ytick_2">
     <g id="line2d_18">
      <g>
       <use xlink:href="#ma28795cfc4" x="103.074841" y="270.826461" style="stroke: #000000; stroke-width: 0.8"/>
      </g>
     </g>
     <g id="text_18">
      <!-- 0.00 -->
      <g transform="translate(51.543591 278.424899) scale(0.2 -0.2)">
       <use xlink:href="#DejaVuSans-30"/>
       <use xlink:href="#DejaVuSans-2e" x="63.623047"/>
       <use xlink:href="#DejaVuSans-30" x="95.410156"/>
       <use xlink:href="#DejaVuSans-30" x="159.033203"/>
      </g>
     </g>
    </g>
    <g id="ytick_3">
     <g id="line2d_19">
      <g>
       <use xlink:href="#ma28795cfc4" x="103.074841" y="203.227619" style="stroke: #000000; stroke-width: 0.8"/>
      </g>
     </g>
     <g id="text_19">
      <!-- 0.05 -->
      <g transform="translate(51.543591 210.826057) scale(0.2 -0.2)">
       <use xlink:href="#DejaVuSans-30"/>
       <use xlink:href="#DejaVuSans-2e" x="63.623047"/>
       <use xlink:href="#DejaVuSans-30" x="95.410156"/>
       <use xlink:href="#DejaVuSans-35" x="159.033203"/>
      </g>
     </g>
    </g>
    <g id="ytick_4">
     <g id="line2d_20">
      <g>
       <use xlink:href="#ma28795cfc4" x="103.074841" y="135.628777" style="stroke: #000000; stroke-width: 0.8"/>
      </g>
     </g>
     <g id="text_20">
      <!-- 0.10 -->
      <g transform="translate(51.543591 143.227215) scale(0.2 -0.2)">
       <use xlink:href="#DejaVuSans-30"/>
       <use xlink:href="#DejaVuSans-2e" x="63.623047"/>
       <use xlink:href="#DejaVuSans-31" x="95.410156"/>
       <use xlink:href="#DejaVuSans-30" x="159.033203"/>
      </g>
     </g>
    </g>
    <g id="ytick_5">
     <g id="line2d_21">
      <g>
       <use xlink:href="#ma28795cfc4" x="103.074841" y="68.029936" style="stroke: #000000; stroke-width: 0.8"/>
      </g>
     </g>
     <g id="text_21">
      <!-- 0.15 -->
      <g transform="translate(51.543591 75.628373) scale(0.2 -0.2)">
       <use xlink:href="#DejaVuSans-30"/>
       <use xlink:href="#DejaVuSans-2e" x="63.623047"/>
       <use xlink:href="#DejaVuSans-31" x="95.410156"/>
       <use xlink:href="#DejaVuSans-35" x="159.033203"/>
      </g>
     </g>
    </g>
   </g>
   <g id="line2d_22">
    <path d="M 786.965085 24.84 
L 789.006548 165.126994 
L 793.089475 165.126994 
L 795.130938 256.375812 
L 797.172402 256.375812 
L 799.213865 231.429223 
L 807.379719 231.429223 
L 809.421182 377.64 
L 815.545572 377.64 
L 817.587036 250.957197 
L 819.628499 231.636552 
L 823.711426 231.636552 
L 825.752889 202.203325 
L 827.794353 114.212782 
L 829.835816 132.068596 
L 838.00167 132.068596 
L 840.043133 61.475496 
L 846.167524 61.475496 
L 848.208987 174.429992 
L 850.25045 174.429992 
L 852.291914 121.330461 
L 856.374841 121.330461 
L 858.416304 234.92191 
L 860.457768 263.858382 
L 876.789475 263.858382 
L 878.830938 293.704459 
L 880.872402 293.704459 
L 880.872402 293.704459 
" clip-path="url(#pd203df1669)" style="fill: none; stroke: #ffa500; stroke-width: 1.5; stroke-linecap: square"/>
   </g>
   <g id="line2d_23">
    <path d="M 103.074841 270.826461 
L 948.274841 270.826461 
" clip-path="url(#pd203df1669)" style="fill: none; stroke-dasharray: 7.4,3.2; stroke-dashoffset: 0; stroke: #000000; stroke-width: 2"/>
   </g>
   <g id="patch_3">
    <path d="M 103.074841 395.28 
L 103.074841 7.2 
" style="fill: none; stroke: #000000; stroke-width: 0.8; stroke-linejoin: miter; stroke-linecap: square"/>
   </g>
   <g id="patch_4">
    <path d="M 940.074841 395.28 
L 940.074841 7.2 
" style="fill: none; stroke: #000000; stroke-width: 0.8; stroke-linejoin: miter; stroke-linecap: square"/>
   </g>
   <g id="patch_5">
    <path d="M 103.074841 395.28 
L 940.074841 395.28 
" style="fill: none; stroke: #000000; stroke-width: 0.8; stroke-linejoin: miter; stroke-linecap: square"/>
   </g>
   <g id="patch_6">
    <path d="M 103.074841 7.2 
L 940.074841 7.2 
" style="fill: none; stroke: #000000; stroke-width: 0.8; stroke-linejoin: miter; stroke-linecap: square"/>
   </g>
  </g>
 </g>
 <defs>
  <clipPath id="pd203df1669">
   <rect x="103.074841" y="7.2" width="837" height="388.08"/>
  </clipPath>
 </defs>
</svg>
