<?xml version="1.0" encoding="utf-8" standalone="no"?>
<!DOCTYPE svg PUBLIC "-//W3C//DTD SVG 1.1//EN"
  "http://www.w3.org/Graphics/SVG/1.1/DTD/svg11.dtd">
<svg xmlns:xlink="http://www.w3.org/1999/xlink" width="947.274841pt" height="505.354841pt" viewBox="0 0 947.274841 505.354841" xmlns="http://www.w3.org/2000/svg" version="1.1">
 <metadata>
  <rdf:RDF xmlns:dc="http://purl.org/dc/elements/1.1/" xmlns:cc="http://creativecommons.org/ns#" xmlns:rdf="http://www.w3.org/1999/02/22-rdf-syntax-ns#">
   <cc:Work>
    <dc:type rdf:resource="http://purl.org/dc/dcmitype/StillImage"/>
    <dc:date>2023-11-15T18:16:01.005039</dc:date>
    <dc:format>image/svg+xml</dc:format>
    <dc:creator>
     <cc:Agent>
      <dc:title>Matplotlib v3.7.2, https://matplotlib.org/</dc:title>
     </cc:Agent>
    </dc:creator>
   </cc:Work>
  </rdf:RDF>
 </metadata>
 <defs>
  <style type="text/css">*{stroke-linejoin: round; stroke-linecap: butt}</style>
 </defs>
 <g id="figure_1">
  <g id="patch_1">
   <path d="M 0 505.354841 
L 947.274841 505.354841 
L 947.274841 -0 
L 0 -0 
z
" style="fill: #ffffff"/>
  </g>
  <g id="axes_1">
   <g id="patch_2">
    <path d="M 103.074841 395.28 
L 940.074841 395.28 
L 940.074841 7.2 
L 103.074841 7.2 
z
" style="fill: #ffffff"/>
   </g>
   <g id="PolyCollection_1">
    <path d="M -4315.31939 235.859033 
L -4315.31939 235.87128 
L -4307.271313 235.807326 
L -4299.223236 235.752214 
L -4291.175159 235.68225 
L -4283.127082 235.636072 
L -4275.079005 235.583932 
L -4267.030929 235.524359 
L -4258.982852 235.46548 
L -4250.934775 235.410364 
L -4242.886698 235.362245 
L -4234.838621 235.30633 
L -4226.790544 235.247754 
L -4218.742467 235.190983 
L -4210.69439 235.120937 
L -4202.646313 235.063236 
L -4194.598236 234.995052 
L -4186.550159 234.937044 
L -4178.502082 234.858124 
L -4170.454005 234.79365 
L -4162.405929 234.731656 
L -4154.357852 234.658005 
L -4146.309775 234.586326 
L -4138.261698 234.516358 
L -4130.213621 234.431561 
L -4122.165544 234.357746 
L -4114.117467 234.271037 
L -4106.06939 234.183328 
L -4098.021313 234.086167 
L -4089.973236 233.986405 
L -4081.925159 233.889041 
L -4073.877082 233.776119 
L -4065.829005 233.64848 
L -4057.780929 233.535514 
L -4049.732852 233.406703 
L -4041.684775 233.259189 
L -4033.636698 233.122468 
L -4025.588621 232.961593 
L -4017.540544 232.79856 
L -4009.492467 232.630718 
L -4001.44439 232.45338 
L -3993.396313 232.256486 
L -3985.348236 232.046776 
L -3977.300159 231.824547 
L -3969.252082 231.611112 
L -3961.204005 231.359376 
L -3953.155929 231.120961 
L -3945.107852 230.86677 
L -3937.059775 230.612068 
L -3929.011698 230.33744 
L -3920.963621 230.03983 
L -3912.915544 229.765493 
L -3904.867467 229.459053 
L -3896.81939 229.14205 
L -3888.771313 228.832054 
L -3880.723236 228.525816 
L -3872.675159 228.192703 
L -3864.627082 227.856182 
L -3856.579005 227.520504 
L -3848.530929 227.17093 
L -3840.482852 226.817589 
L -3832.434775 226.465273 
L -3824.386698 226.100547 
L -3816.338621 225.735112 
L -3808.290544 225.375729 
L -3800.242467 225.001044 
L -3792.19439 224.599228 
L -3784.146313 224.210496 
L -3776.098236 223.822853 
L -3768.050159 223.44161 
L -3760.002082 223.043989 
L -3751.954005 222.655936 
L -3743.905929 222.260906 
L -3735.857852 221.905731 
L -3727.809775 221.48465 
L -3719.761698 221.121397 
L -3711.713621 220.721835 
L -3703.665544 220.341793 
L -3695.617467 219.94204 
L -3687.56939 219.590693 
L -3679.521313 219.185004 
L -3671.473236 218.804376 
L -3663.425159 218.44587 
L -3655.377082 218.061699 
L -3647.329005 217.699272 
L -3639.280929 217.319289 
L -3631.232852 216.931537 
L -3623.184775 216.5632 
L -3615.136698 216.204825 
L -3607.088621 215.817539 
L -3599.040544 215.445523 
L -3590.992467 215.065791 
L -3582.94439 214.697623 
L -3574.896313 214.338258 
L -3566.848236 213.968421 
L -3558.800159 213.59466 
L -3550.752082 213.259008 
L -3542.704005 212.877169 
L -3534.655929 212.511529 
L -3526.607852 212.151794 
L -3518.559775 211.791405 
L -3510.511698 211.431765 
L -3502.463621 211.067139 
L -3494.415544 210.719529 
L -3486.367467 210.357362 
L -3478.31939 209.985826 
L -3470.271313 209.609907 
L -3462.223236 209.229712 
L -3454.175159 208.873975 
L -3446.127082 208.481817 
L -3438.079005 208.063322 
L -3430.030929 207.67056 
L -3421.982852 207.256039 
L -3413.934775 206.835135 
L -3405.886698 206.390488 
L -3397.838621 205.937852 
L -3389.790544 205.517639 
L -3381.742467 205.037626 
L -3373.69439 204.581679 
L -3365.646313 204.090705 
L -3357.598236 203.640417 
L -3349.550159 203.1103 
L -3341.502082 202.59109 
L -3333.454005 202.086598 
L -3325.405929 201.573234 
L -3317.357852 201.043906 
L -3309.309775 200.490614 
L -3301.261698 199.972627 
L -3293.213621 199.378765 
L -3285.165544 198.857377 
L -3277.117467 198.24614 
L -3269.06939 197.654183 
L -3261.021313 197.076488 
L -3252.973236 196.522691 
L -3244.925159 195.875471 
L -3236.877082 195.291662 
L -3228.829005 194.54767 
L -3220.780929 193.908715 
L -3212.732852 193.31401 
L -3204.684775 192.641739 
L -3196.636698 191.952145 
L -3188.588621 191.157069 
L -3180.540544 190.41283 
L -3172.492467 189.79332 
L -3164.44439 188.808293 
L -3156.396313 188.019158 
L -3148.348236 187.212875 
L -3140.300159 186.376729 
L -3132.252082 185.424002 
L -3124.204005 184.529076 
L -3116.155929 183.856019 
L -3108.107852 182.996179 
L -3100.059775 181.579875 
L -3092.011698 180.390982 
L -3083.963621 179.515403 
L -3075.915544 178.300114 
L -3067.867467 177.29401 
L -3059.81939 176.419733 
L -3051.771313 175.088143 
L -3043.723236 173.572469 
L -3035.675159 172.539346 
L -3027.627082 171.882312 
L -3019.579005 170.617732 
L -3011.530929 170.058628 
L -3003.482852 169.354364 
L -2995.434775 168.077795 
L -2987.386698 168.200041 
L -2979.338621 168.748854 
L -2971.290544 169.888091 
L -2963.242467 168.64393 
L -2955.19439 171.155068 
L -2947.146313 171.720594 
L -2939.098236 168.366913 
L -2931.050159 169.327217 
L -2923.002082 170.822285 
L -2914.954005 169.947166 
L -2906.905929 169.76906 
L -2898.857852 176.158499 
L -2890.809775 185.233664 
L -2882.761698 189.739453 
L -2874.713621 179.863354 
L -2866.665544 184.911513 
L -2858.617467 191.524693 
L -2850.56939 191.109312 
L -2842.521313 204.581077 
L -2834.473236 202.69448 
L -2826.425159 198.519702 
L -2818.377082 188.238251 
L -2810.329005 197.824932 
L -2802.280929 203.568624 
L -2794.232852 201.101953 
L -2786.184775 202.563859 
L -2778.136698 207.976825 
L -2770.088621 207.192541 
L -2762.040544 202.427409 
L -2753.992467 208.289765 
L -2745.94439 209.40193 
L -2737.896313 207.224499 
L -2729.848236 210.918122 
L -2721.800159 212.22448 
L -2713.752082 211.78721 
L -2705.704005 210.578235 
L -2697.655929 211.742889 
L -2689.607852 210.410889 
L -2681.559775 210.447592 
L -2673.511698 211.552603 
L -2665.463621 210.376314 
L -2657.415544 210.884814 
L -2649.367467 210.850849 
L -2641.31939 209.88646 
L -2633.271313 210.148905 
L -2625.223236 208.789598 
L -2617.175159 208.811029 
L -2609.127082 209.109611 
L -2601.079005 209.072684 
L -2593.030929 208.387222 
L -2584.982852 207.793859 
L -2576.934775 207.610295 
L -2568.886698 206.967381 
L -2560.838621 206.829393 
L -2552.790544 206.679644 
L -2544.742467 205.742641 
L -2536.69439 206.143899 
L -2528.646313 205.529553 
L -2520.598236 205.261127 
L -2512.550159 205.274847 
L -2504.502082 204.692104 
L -2496.454005 204.55692 
L -2488.405929 204.778949 
L -2480.357852 205.142204 
L -2472.309775 204.231788 
L -2464.261698 204.122781 
L -2456.213621 203.866429 
L -2448.165544 205.60133 
L -2440.117467 205.744534 
L -2432.06939 206.509909 
L -2424.021313 205.061105 
L -2415.973236 204.211514 
L -2407.925159 204.647518 
L -2399.877082 205.886978 
L -2391.829005 206.242029 
L -2383.780929 204.501141 
L -2375.732852 206.30262 
L -2367.684775 206.105398 
L -2359.636698 206.056661 
L -2351.588621 205.396796 
L -2343.540544 206.352741 
L -2335.492467 206.177682 
L -2327.44439 206.853912 
L -2319.396313 206.568626 
L -2311.348236 206.412686 
L -2303.300159 205.901096 
L -2295.252082 205.822796 
L -2287.204005 205.78832 
L -2279.155929 205.633302 
L -2271.107852 205.879067 
L -2263.059775 205.798368 
L -2255.011698 205.702069 
L -2246.963621 204.81849 
L -2238.915544 204.241816 
L -2230.867467 204.207885 
L -2222.81939 203.554925 
L -2214.771313 203.771066 
L -2206.723236 203.291467 
L -2198.675159 202.380128 
L -2190.627082 201.696129 
L -2182.579005 201.299607 
L -2174.530929 200.349212 
L -2166.482852 199.961614 
L -2158.434775 199.188544 
L -2150.386698 198.567353 
L -2142.338621 197.671231 
L -2134.290544 197.017787 
L -2126.242467 195.967046 
L -2118.19439 195.248445 
L -2110.146313 194.436682 
L -2102.098236 193.193381 
L -2094.050159 192.076316 
L -2086.002082 191.404466 
L -2077.954005 190.47701 
L -2069.905929 189.343554 
L -2061.857852 188.570499 
L -2053.809775 187.514434 
L -2045.761698 185.760728 
L -2037.713621 185.325763 
L -2029.665544 183.929056 
L -2021.617467 182.958937 
L -2013.56939 181.850937 
L -2005.521313 180.639705 
L -1997.473236 179.392225 
L -1989.425159 178.317675 
L -1981.377082 176.658721 
L -1973.329005 175.876094 
L -1965.280929 174.283816 
L -1957.232852 173.490114 
L -1949.184775 171.913911 
L -1941.136698 170.477842 
L -1933.088621 169.242508 
L -1925.040544 168.40556 
L -1916.992467 166.587999 
L -1908.94439 165.58778 
L -1900.896313 164.052831 
L -1892.848236 162.932919 
L -1884.800159 161.279796 
L -1876.752082 160.024191 
L -1868.704005 160.514073 
L -1860.655929 157.364327 
L -1852.607852 157.485083 
L -1844.559775 155.853926 
L -1836.511698 154.94904 
L -1828.463621 153.750104 
L -1820.415544 152.420869 
L -1812.367467 151.27709 
L -1804.31939 150.186358 
L -1796.271313 149.190216 
L -1788.223236 148.173932 
L -1780.175159 150.04099 
L -1772.127082 145.808293 
L -1764.079005 145.181362 
L -1756.030929 149.68031 
L -1747.982852 144.411236 
L -1739.934775 145.88697 
L -1731.886698 145.73994 
L -1723.838621 143.216064 
L -1715.790544 144.236281 
L -1707.742467 147.534773 
L -1699.69439 145.807032 
L -1691.646313 145.313942 
L -1683.598236 147.560898 
L -1675.550159 147.359419 
L -1667.502082 148.948338 
L -1659.454005 151.074933 
L -1651.405929 153.998064 
L -1643.357852 160.971288 
L -1635.309775 159.716293 
L -1627.261698 163.510247 
L -1619.213621 166.588663 
L -1611.165544 168.481444 
L -1603.117467 172.331384 
L -1595.06939 174.743852 
L -1587.021313 170.676155 
L -1578.973236 174.906188 
L -1570.925159 180.788874 
L -1562.877082 183.644016 
L -1554.829005 184.461667 
L -1546.780929 191.815493 
L -1538.732852 192.364864 
L -1530.684775 193.951345 
L -1522.636698 193.808695 
L -1514.588621 200.095507 
L -1506.540544 197.883366 
L -1498.492467 196.854969 
L -1490.44439 202.242445 
L -1482.396313 207.319594 
L -1474.348236 206.012614 
L -1466.300159 208.470774 
L -1458.252082 208.535609 
L -1450.204005 208.521479 
L -1442.155929 208.350011 
L -1434.107852 209.946521 
L -1426.059775 210.810865 
L -1418.011698 216.01694 
L -1409.963621 213.234549 
L -1401.915544 217.773439 
L -1393.867467 216.682594 
L -1385.81939 216.017481 
L -1377.771313 217.852402 
L -1369.723236 219.496051 
L -1361.675159 217.387394 
L -1353.627082 218.435186 
L -1345.579005 218.528135 
L -1337.530929 221.073347 
L -1329.482852 219.892219 
L -1321.434775 219.383809 
L -1313.386698 220.190455 
L -1305.338621 221.499625 
L -1297.290544 221.035954 
L -1289.242467 219.993367 
L -1281.19439 220.837573 
L -1273.146313 219.209905 
L -1265.098236 219.607576 
L -1257.050159 222.820643 
L -1249.002082 222.88529 
L -1240.954005 221.469237 
L -1232.905929 221.332672 
L -1224.857852 221.818879 
L -1216.809775 220.314675 
L -1208.761698 221.073565 
L -1200.713621 221.413848 
L -1192.665544 221.377668 
L -1184.617467 221.254764 
L -1176.56939 220.515187 
L -1168.521313 221.557802 
L -1160.473236 221.195284 
L -1152.425159 221.428032 
L -1144.377082 221.423156 
L -1136.329005 221.889336 
L -1128.280929 221.433851 
L -1120.232852 220.292844 
L -1112.184775 220.610241 
L -1104.136698 219.780637 
L -1096.088621 218.296331 
L -1088.040544 220.101119 
L -1079.992467 218.088311 
L -1071.94439 219.464443 
L -1063.896313 219.394407 
L -1055.848236 220.063522 
L -1047.800159 218.86704 
L -1039.752082 219.158211 
L -1031.704005 219.493366 
L -1023.655929 217.55341 
L -1015.607852 218.776136 
L -1007.559775 218.970771 
L -999.511698 219.352301 
L -991.463621 218.876393 
L -983.415544 219.68038 
L -975.367467 219.245141 
L -967.31939 219.004767 
L -959.271313 217.687778 
L -951.223236 217.505468 
L -943.175159 217.477417 
L -935.127082 217.335302 
L -927.079005 217.789632 
L -919.030929 217.825782 
L -910.982852 217.203759 
L -902.934775 217.7123 
L -894.886698 217.323919 
L -886.838621 217.829411 
L -878.790544 217.967453 
L -870.742467 218.58494 
L -862.69439 217.840399 
L -854.646313 215.811226 
L -846.598236 218.364729 
L -838.550159 218.581541 
L -830.502082 218.455733 
L -822.454005 218.353017 
L -814.405929 217.582861 
L -806.357852 217.762397 
L -798.309775 217.2825 
L -790.261698 217.678454 
L -782.213621 217.660545 
L -774.165544 216.750339 
L -766.117467 215.794022 
L -758.06939 217.837158 
L -750.021313 217.679365 
L -741.973236 216.486056 
L -733.925159 217.440884 
L -725.877082 215.635142 
L -717.829005 215.52138 
L -709.780929 216.224466 
L -701.732852 214.909724 
L -693.684775 217.762899 
L -685.636698 215.550729 
L -677.588621 214.118222 
L -669.540544 215.707291 
L -661.492467 216.636314 
L -653.44439 216.651304 
L -645.396313 218.133828 
L -637.348236 216.888088 
L -629.300159 219.867654 
L -621.252082 217.874302 
L -613.204005 218.548691 
L -605.155929 218.259056 
L -597.107852 217.008084 
L -589.059775 219.437747 
L -581.011698 223.428012 
L -572.963621 219.418532 
L -564.915544 220.714082 
L -556.867467 218.944084 
L -548.81939 221.560324 
L -540.771313 220.054489 
L -532.723236 219.996367 
L -524.675159 219.309552 
L -516.627082 221.87558 
L -508.579005 221.49263 
L -500.530929 223.269301 
L -492.482852 223.253417 
L -484.434775 219.050498 
L -476.386698 222.168673 
L -468.338621 220.73702 
L -460.290544 222.985365 
L -452.242467 222.544103 
L -444.19439 225.570857 
L -436.146313 227.236975 
L -428.098236 227.504466 
L -420.050159 232.119423 
L -412.002082 238.210126 
L -403.954005 230.099069 
L -395.905929 231.019027 
L -387.857852 229.5357 
L -379.809775 232.370204 
L -371.761698 233.130108 
L -363.713621 233.26261 
L -355.665544 240.626212 
L -347.617467 240.391857 
L -339.56939 234.404435 
L -331.521313 240.321633 
L -323.473236 238.911716 
L -315.425159 235.884797 
L -307.377082 243.50856 
L -299.329005 242.963322 
L -291.280929 247.019036 
L -283.232852 243.617698 
L -275.184775 242.652312 
L -267.136698 245.763294 
L -259.088621 245.585473 
L -251.040544 249.445397 
L -242.992467 246.591639 
L -234.94439 252.438686 
L -226.896313 249.819437 
L -218.848236 251.971556 
L -210.800159 251.065436 
L -202.752082 254.013857 
L -194.704005 249.451215 
L -186.655929 255.931298 
L -178.607852 254.696664 
L -170.559775 260.072595 
L -162.511698 259.797815 
L -154.463621 262.697413 
L -146.415544 261.609163 
L -138.367467 263.494389 
L -130.31939 267.777535 
L -122.271313 264.698326 
L -114.223236 263.830739 
L -106.175159 265.984161 
L -98.127082 268.638488 
L -90.079005 265.720815 
L -82.030929 262.419805 
L -73.982852 270.681437 
L -65.934775 276.77528 
L -57.886698 267.036981 
L -49.838621 269.567426 
L -41.790544 271.693675 
L -33.742467 271.526604 
L -25.69439 276.357883 
L -17.646313 276.911645 
L -9.598236 274.361458 
L -1.550159 276.890584 
L 6.497918 277.74606 
L 14.545995 272.513913 
L 22.594071 274.55683 
L 30.642148 272.364588 
L 38.690225 281.388525 
L 46.738302 290.155821 
L 54.786379 288.628783 
L 62.834456 281.65878 
L 70.882533 281.102978 
L 78.93061 281.590323 
L 86.978687 281.229155 
L 95.026764 288.89913 
L 103.074841 281.125364 
L 111.122918 289.836328 
L 119.170995 296.864413 
L 127.219071 290.940542 
L 135.267148 301.411382 
L 143.315225 293.772872 
L 151.363302 301.30715 
L 159.411379 297.335253 
L 167.459456 299.473875 
L 175.507533 304.639701 
L 183.55561 304.553069 
L 191.603687 306.216797 
L 199.651764 306.148946 
L 207.699841 306.652991 
L 215.747918 292.794436 
L 223.795995 311.703787 
L 231.844071 319.005865 
L 239.892148 312.136901 
L 247.940225 316.218275 
L 255.988302 320.76179 
L 264.036379 314.781359 
L 272.084456 321.78841 
L 280.132533 327.334842 
L 288.18061 324.014488 
L 296.228687 327.082341 
L 304.276764 328.603447 
L 312.324841 329.487398 
L 320.372918 331.122855 
L 328.420995 323.27069 
L 336.469071 338.495242 
L 344.517148 338.642409 
L 352.565225 338.570247 
L 360.613302 328.623836 
L 368.661379 341.607692 
L 376.709456 348.567818 
L 384.757533 342.08677 
L 392.80561 341.995059 
L 400.853687 353.614841 
L 408.901764 331.646984 
L 416.949841 351.321504 
L 424.997918 336.801313 
L 433.045995 357.458495 
L 441.094071 348.954695 
L 449.142148 356.729687 
L 457.190225 358.837763 
L 465.238302 360.860224 
L 473.286379 361.639602 
L 481.334456 357.038936 
L 489.382533 357.657987 
L 497.43061 361.94701 
L 505.478687 366.973163 
L 513.526764 366.971539 
L 521.574841 366.162343 
L 529.622918 371.267739 
L 537.670995 370.972621 
L 545.719071 366.785054 
L 553.767148 365.928306 
L 561.815225 375.515159 
L 569.863302 375.981337 
L 577.911379 377.64 
L 585.959456 372.255163 
L 594.007533 360.207146 
L 602.05561 372.322062 
L 610.103687 368.71281 
L 618.151764 371.521846 
L 626.199841 375.456506 
L 634.247918 369.266015 
L 642.295995 376.538392 
L 650.344071 369.92172 
L 658.392148 369.336285 
L 666.440225 369.619455 
L 674.488302 373.831925 
L 682.536379 372.982034 
L 690.584456 371.654096 
L 698.632533 366.443191 
L 706.68061 368.725446 
L 714.728687 370.332042 
L 722.776764 367.810669 
L 730.824841 371.159596 
L 738.872918 367.806716 
L 746.920995 369.877108 
L 754.969071 373.434762 
L 763.017148 372.446243 
L 771.065225 368.161836 
L 779.113302 367.892005 
L 787.161379 366.800037 
L 795.209456 368.221404 
L 803.257533 367.799783 
L 811.30561 361.002923 
L 819.353687 365.702024 
L 827.401764 335.198537 
L 835.449841 364.978261 
L 843.497918 366.657943 
L 851.545995 361.871861 
L 859.594071 356.907191 
L 867.642148 365.364578 
L 875.690225 361.014125 
L 883.738302 353.686545 
L 891.786379 357.683889 
L 899.834456 357.390647 
L 907.882533 355.096383 
L 915.93061 358.875881 
L 923.978687 355.364075 
L 932.026764 356.5405 
L 940.074841 357.088192 
L 940.074841 234.288991 
L 940.074841 234.288991 
L 932.026764 237.753536 
L 923.978687 236.821586 
L 915.93061 238.559893 
L 907.882533 236.890138 
L 899.834456 238.222726 
L 891.786379 237.7667 
L 883.738302 238.77968 
L 875.690225 241.636487 
L 867.642148 242.445469 
L 859.594071 241.233747 
L 851.545995 242.10725 
L 843.497918 245.24057 
L 835.449841 244.018116 
L 827.401764 239.263313 
L 819.353687 245.67515 
L 811.30561 245.23648 
L 803.257533 247.212964 
L 795.209456 247.88875 
L 787.161379 247.936677 
L 779.113302 249.377754 
L 771.065225 249.929489 
L 763.017148 251.739938 
L 754.969071 252.640299 
L 746.920995 252.420872 
L 738.872918 252.27687 
L 730.824841 253.420019 
L 722.776764 252.572775 
L 714.728687 253.82415 
L 706.68061 254.16006 
L 698.632533 253.945189 
L 690.584456 256.443477 
L 682.536379 257.391258 
L 674.488302 258.728043 
L 666.440225 256.99012 
L 658.392148 257.804596 
L 650.344071 258.756785 
L 642.295995 261.396421 
L 634.247918 259.29935 
L 626.199841 262.071295 
L 618.151764 261.032203 
L 610.103687 260.591765 
L 602.05561 262.364725 
L 594.007533 259.054322 
L 585.959456 263.114188 
L 577.911379 266.051451 
L 569.863302 265.927516 
L 561.815225 266.076295 
L 553.767148 263.711211 
L 545.719071 263.975081 
L 537.670995 266.032145 
L 529.622918 266.412036 
L 521.574841 264.989393 
L 513.526764 265.557855 
L 505.478687 266.425487 
L 497.43061 263.745883 
L 489.382533 263.25688 
L 481.334456 263.61567 
L 473.286379 265.870933 
L 465.238302 265.908869 
L 457.190225 265.036524 
L 449.142148 264.52056 
L 441.094071 261.952023 
L 433.045995 265.554886 
L 424.997918 259.11949 
L 416.949841 264.361442 
L 408.901764 256.920202 
L 400.853687 265.641441 
L 392.80561 261.251004 
L 384.757533 261.23939 
L 376.709456 265.122683 
L 368.661379 262.095382 
L 360.613302 257.315956 
L 352.565225 261.893793 
L 344.517148 261.988932 
L 336.469071 262.202744 
L 328.420995 255.769973 
L 320.372918 261.570002 
L 312.324841 259.26079 
L 304.276764 258.776481 
L 296.228687 258.617317 
L 288.18061 258.048225 
L 280.132533 259.79009 
L 272.084456 257.792694 
L 264.036379 254.604524 
L 255.988302 256.717924 
L 247.940225 256.408872 
L 239.892148 253.633619 
L 231.844071 257.396123 
L 223.795995 254.232224 
L 215.747918 246.008486 
L 207.699841 252.943578 
L 199.651764 252.997013 
L 191.603687 253.115467 
L 183.55561 252.619498 
L 175.507533 253.136092 
L 167.459456 250.749299 
L 159.411379 249.715509 
L 151.363302 251.86592 
L 143.315225 249.43648 
L 135.267148 252.915924 
L 127.219071 248.184678 
L 119.170995 251.77337 
L 111.122918 248.144287 
L 103.074841 243.54382 
L 95.026764 248.456004 
L 86.978687 245.080221 
L 78.93061 245.147107 
L 70.882533 244.871048 
L 62.834456 245.531304 
L 54.786379 249.687087 
L 46.738302 250.657163 
L 38.690225 245.996292 
L 30.642148 242.22981 
L 22.594071 243.320401 
L 14.545995 242.062073 
L 6.497918 245.125109 
L -1.550159 245.00275 
L -9.598236 244.010434 
L -17.646313 245.263252 
L -25.69439 245.773252 
L -33.742467 243.238242 
L -41.790544 242.980093 
L -49.838621 242.298534 
L -57.886698 240.832959 
L -65.934775 246.27537 
L -73.982852 244.030848 
L -82.030929 238.879113 
L -90.079005 240.252487 
L -98.127082 242.602344 
L -106.175159 241.353714 
L -114.223236 239.962398 
L -122.271313 240.414078 
L -130.31939 241.547593 
L -138.367467 240.385328 
L -146.415544 238.774185 
L -154.463621 239.455906 
L -162.511698 239.474302 
L -170.559775 238.134219 
L -178.607852 235.58066 
L -186.655929 235.770444 
L -194.704005 231.996417 
L -202.752082 235.452639 
L -210.800159 233.24177 
L -218.848236 233.60984 
L -226.896313 231.599226 
L -234.94439 234.250117 
L -242.992467 230.487664 
L -251.040544 231.865022 
L -259.088621 229.572247 
L -267.136698 229.539011 
L -275.184775 227.203988 
L -283.232852 229.67797 
L -291.280929 230.793876 
L -299.329005 227.147516 
L -307.377082 228.317776 
L -315.425159 222.654444 
L -323.473236 224.129174 
L -331.521313 226.511833 
L -339.56939 221.883942 
L -347.617467 227.137525 
L -355.665544 225.552544 
L -363.713621 221.096501 
L -371.761698 221.199444 
L -379.809775 220.809142 
L -387.857852 218.796664 
L -395.905929 218.729016 
L -403.954005 218.875145 
L -412.002082 225.260836 
L -420.050159 220.041485 
L -428.098236 216.890652 
L -436.146313 217.030662 
L -444.19439 215.86287 
L -452.242467 212.930509 
L -460.290544 212.583879 
L -468.338621 212.185365 
L -476.386698 211.933714 
L -484.434775 209.932443 
L -492.482852 214.297328 
L -500.530929 213.839623 
L -508.579005 212.087108 
L -516.627082 212.761242 
L -524.675159 210.819952 
L -532.723236 210.904298 
L -540.771313 211.539592 
L -548.81939 211.453999 
L -556.867467 210.451829 
L -564.915544 211.638182 
L -572.963621 211.107112 
L -581.011698 214.806843 
L -589.059775 210.996955 
L -597.107852 208.733958 
L -605.155929 209.968264 
L -613.204005 211.418221 
L -621.252082 210.598095 
L -629.300159 211.613697 
L -637.348236 208.829591 
L -645.396313 209.904519 
L -653.44439 208.963376 
L -661.492467 209.649346 
L -669.540544 208.944901 
L -677.588621 206.901897 
L -685.636698 208.148954 
L -693.684775 210.79506 
L -701.732852 207.826962 
L -709.780929 209.316827 
L -717.829005 209.01054 
L -725.877082 208.554988 
L -733.925159 210.855094 
L -741.973236 209.829371 
L -750.021313 211.043718 
L -758.06939 211.386507 
L -766.117467 209.137179 
L -774.165544 210.593065 
L -782.213621 211.570466 
L -790.261698 211.656177 
L -798.309775 211.381663 
L -806.357852 211.854097 
L -814.405929 211.937773 
L -822.454005 212.943458 
L -830.502082 213.325783 
L -838.550159 213.670055 
L -846.598236 213.511083 
L -854.646313 211.357514 
L -862.69439 213.338174 
L -870.742467 214.375975 
L -878.790544 213.947711 
L -886.838621 213.655373 
L -894.886698 213.219685 
L -902.934775 213.716835 
L -910.982852 213.029676 
L -919.030929 213.860943 
L -927.079005 213.796006 
L -935.127082 212.984911 
L -943.175159 212.938183 
L -951.223236 213.054741 
L -959.271313 213.181481 
L -967.31939 214.87615 
L -975.367467 214.850814 
L -983.415544 215.357141 
L -991.463621 214.205819 
L -999.511698 214.644782 
L -1007.559775 214.115864 
L -1015.607852 213.792874 
L -1023.655929 211.968142 
L -1031.704005 214.441509 
L -1039.752082 213.986648 
L -1047.800159 213.448363 
L -1055.848236 214.586311 
L -1063.896313 213.641057 
L -1071.94439 213.613652 
L -1079.992467 211.792272 
L -1088.040544 213.559108 
L -1096.088621 211.874192 
L -1104.136698 213.504078 
L -1112.184775 214.375848 
L -1120.232852 213.931065 
L -1128.280929 215.21865 
L -1136.329005 216.0031 
L -1144.377082 214.908511 
L -1152.425159 214.996193 
L -1160.473236 214.289899 
L -1168.521313 214.719446 
L -1176.56939 213.284253 
L -1184.617467 214.289664 
L -1192.665544 214.800472 
L -1200.713621 214.714423 
L -1208.761698 214.269071 
L -1216.809775 213.745504 
L -1224.857852 215.007133 
L -1232.905929 214.618507 
L -1240.954005 215.09004 
L -1249.002082 216.229185 
L -1257.050159 216.038617 
L -1265.098236 213.433374 
L -1273.146313 213.204309 
L -1281.19439 214.654596 
L -1289.242467 214.181693 
L -1297.290544 214.997575 
L -1305.338621 215.426275 
L -1313.386698 214.194131 
L -1321.434775 214.250228 
L -1329.482852 214.50262 
L -1337.530929 215.444407 
L -1345.579005 213.199567 
L -1353.627082 213.397119 
L -1361.675159 212.884839 
L -1369.723236 214.54641 
L -1377.771313 213.795642 
L -1385.81939 212.126969 
L -1393.867467 212.824111 
L -1401.915544 213.569776 
L -1409.963621 209.875482 
L -1418.011698 212.481838 
L -1426.059775 207.943935 
L -1434.107852 207.275783 
L -1442.155929 205.978386 
L -1450.204005 206.457666 
L -1458.252082 206.349667 
L -1466.300159 205.387349 
L -1474.348236 203.023502 
L -1482.396313 204.010416 
L -1490.44439 198.765905 
L -1498.492467 192.048051 
L -1506.540544 193.593805 
L -1514.588621 196.294391 
L -1522.636698 188.212555 
L -1530.684775 188.924409 
L -1538.732852 186.54566 
L -1546.780929 185.877589 
L -1554.829005 176.119506 
L -1562.877082 174.650976 
L -1570.925159 171.118666 
L -1578.973236 163.666687 
L -1587.021313 157.748475 
L -1595.06939 163.52097 
L -1603.117467 160.223689 
L -1611.165544 155.021087 
L -1619.213621 152.78183 
L -1627.261698 149.038489 
L -1635.309775 144.095752 
L -1643.357852 145.731655 
L -1651.405929 137.451751 
L -1659.454005 133.019635 
L -1667.502082 130.929384 
L -1675.550159 129.168043 
L -1683.598236 129.821434 
L -1691.646313 127.659001 
L -1699.69439 129.118755 
L -1707.742467 131.102703 
L -1715.790544 127.092554 
L -1723.838621 126.485228 
L -1731.886698 129.839456 
L -1739.934775 130.378511 
L -1747.982852 128.697251 
L -1756.030929 135.815448 
L -1764.079005 130.284306 
L -1772.127082 131.726458 
L -1780.175159 137.041957 
L -1788.223236 135.095484 
L -1796.271313 136.804409 
L -1804.31939 138.282416 
L -1812.367467 140.078916 
L -1820.415544 141.754845 
L -1828.463621 143.692888 
L -1836.511698 145.447274 
L -1844.559775 146.791582 
L -1852.607852 149.187101 
L -1860.655929 149.407163 
L -1868.704005 153.493412 
L -1876.752082 153.183666 
L -1884.800159 154.972435 
L -1892.848236 157.136974 
L -1900.896313 158.58449 
L -1908.94439 159.90249 
L -1916.992467 160.775845 
L -1925.040544 162.402054 
L -1933.088621 163.094028 
L -1941.136698 164.113983 
L -1949.184775 165.451943 
L -1957.232852 166.843426 
L -1965.280929 167.422709 
L -1973.329005 168.762596 
L -1981.377082 169.466839 
L -1989.425159 170.884645 
L -1997.473236 171.844131 
L -2005.521313 172.807213 
L -2013.56939 173.951855 
L -2021.617467 174.905519 
L -2029.665544 175.630793 
L -2037.713621 176.759943 
L -2045.761698 177.035377 
L -2053.809775 178.59034 
L -2061.857852 179.456132 
L -2069.905929 180.156688 
L -2077.954005 181.151122 
L -2086.002082 181.540971 
L -2094.050159 182.366407 
L -2102.098236 183.230903 
L -2110.146313 184.249975 
L -2118.19439 184.905459 
L -2126.242467 185.554488 
L -2134.290544 186.317921 
L -2142.338621 187.044623 
L -2150.386698 187.871465 
L -2158.434775 188.434659 
L -2166.482852 189.102098 
L -2174.530929 189.560511 
L -2182.579005 190.409582 
L -2190.627082 190.885517 
L -2198.675159 191.502717 
L -2206.723236 192.39695 
L -2214.771313 192.876577 
L -2222.81939 192.699392 
L -2230.867467 193.39582 
L -2238.915544 193.543336 
L -2246.963621 194.215607 
L -2255.011698 195.072902 
L -2263.059775 195.319533 
L -2271.107852 195.542505 
L -2279.155929 195.288856 
L -2287.204005 195.577918 
L -2295.252082 195.617125 
L -2303.300159 195.697944 
L -2311.348236 196.287764 
L -2319.396313 196.503695 
L -2327.44439 196.965317 
L -2335.492467 196.236832 
L -2343.540544 196.38826 
L -2351.588621 195.445157 
L -2359.636698 196.269055 
L -2367.684775 196.195356 
L -2375.732852 196.752371 
L -2383.780929 194.884315 
L -2391.829005 196.708412 
L -2399.877082 196.361148 
L -2407.925159 195.041735 
L -2415.973236 194.6023 
L -2424.021313 195.500171 
L -2432.06939 197.153897 
L -2440.117467 196.318876 
L -2448.165544 196.166506 
L -2456.213621 194.260318 
L -2464.261698 194.163159 
L -2472.309775 194.612681 
L -2480.357852 195.655316 
L -2488.405929 195.2364 
L -2496.454005 194.962972 
L -2504.502082 195.104527 
L -2512.550159 195.755736 
L -2520.598236 195.576012 
L -2528.646313 195.989961 
L -2536.69439 196.695165 
L -2544.742467 196.18753 
L -2552.790544 197.22734 
L -2560.838621 197.392592 
L -2568.886698 197.528462 
L -2576.934775 198.197365 
L -2584.982852 198.375973 
L -2593.030929 199.121631 
L -2601.079005 199.934915 
L -2609.127082 199.968249 
L -2617.175159 199.671039 
L -2625.223236 199.46776 
L -2633.271313 201.175589 
L -2641.31939 200.911917 
L -2649.367467 202.068036 
L -2657.415544 202.11429 
L -2665.463621 201.708004 
L -2673.511698 202.85197 
L -2681.559775 201.842761 
L -2689.607852 201.924635 
L -2697.655929 203.369176 
L -2705.704005 202.37519 
L -2713.752082 203.738335 
L -2721.800159 204.189856 
L -2729.848236 203.082356 
L -2737.896313 199.508851 
L -2745.94439 201.824212 
L -2753.992467 200.740261 
L -2762.040544 195.408411 
L -2770.088621 199.972607 
L -2778.136698 200.917806 
L -2786.184775 195.981464 
L -2794.232852 194.630566 
L -2802.280929 197.28099 
L -2810.329005 191.918131 
L -2818.377082 182.094043 
L -2826.425159 192.874105 
L -2834.473236 196.952713 
L -2842.521313 198.970615 
L -2850.56939 185.719321 
L -2858.617467 186.270915 
L -2866.665544 179.588011 
L -2874.713621 174.406719 
L -2882.761698 184.848883 
L -2890.809775 180.343583 
L -2898.857852 171.043492 
L -2906.905929 164.525432 
L -2914.954005 164.905183 
L -2923.002082 166.002259 
L -2931.050159 164.599794 
L -2939.098236 163.763063 
L -2947.146313 167.440355 
L -2955.19439 166.976869 
L -2963.242467 164.539904 
L -2971.290544 165.988586 
L -2979.338621 164.951647 
L -2987.386698 164.534789 
L -2995.434775 164.596804 
L -3003.482852 166.022221 
L -3011.530929 166.857313 
L -3019.579005 167.330685 
L -3027.627082 168.564828 
L -3035.675159 169.121895 
L -3043.723236 170.108423 
L -3051.771313 171.689674 
L -3059.81939 172.927634 
L -3067.867467 173.765004 
L -3075.915544 174.70273 
L -3083.963621 175.946868 
L -3092.011698 176.727525 
L -3100.059775 177.922035 
L -3108.107852 179.367267 
L -3116.155929 180.225444 
L -3124.204005 180.798841 
L -3132.252082 181.686852 
L -3140.300159 182.601055 
L -3148.348236 183.440145 
L -3156.396313 184.243135 
L -3164.44439 185.017115 
L -3172.492467 186.082036 
L -3180.540544 186.632552 
L -3188.588621 187.400231 
L -3196.636698 188.204062 
L -3204.684775 188.89108 
L -3212.732852 189.571238 
L -3220.780929 190.139421 
L -3228.829005 190.758691 
L -3236.877082 191.582662 
L -3244.925159 192.158363 
L -3252.973236 192.831906 
L -3261.021313 193.371852 
L -3269.06939 193.969837 
L -3277.117467 194.583017 
L -3285.165544 195.205191 
L -3293.213621 195.727677 
L -3301.261698 196.346613 
L -3309.309775 196.889851 
L -3317.357852 197.472767 
L -3325.405929 198.015099 
L -3333.454005 198.575041 
L -3341.502082 199.092076 
L -3349.550159 199.633194 
L -3357.598236 200.217876 
L -3365.646313 200.661677 
L -3373.69439 201.219255 
L -3381.742467 201.699239 
L -3389.790544 202.256675 
L -3397.838621 202.662797 
L -3405.886698 203.180975 
L -3413.934775 203.674695 
L -3421.982852 204.144609 
L -3430.030929 204.623143 
L -3438.079005 205.06539 
L -3446.127082 205.581857 
L -3454.175159 206.046286 
L -3462.223236 206.428008 
L -3470.271313 206.882025 
L -3478.31939 207.335277 
L -3486.367467 207.786172 
L -3494.415544 208.220794 
L -3502.463621 208.625238 
L -3510.511698 209.070704 
L -3518.559775 209.506992 
L -3526.607852 209.945368 
L -3534.655929 210.381963 
L -3542.704005 210.830195 
L -3550.752082 211.296044 
L -3558.800159 211.695999 
L -3566.848236 212.154721 
L -3574.896313 212.60442 
L -3582.94439 213.03546 
L -3590.992467 213.480207 
L -3599.040544 213.934016 
L -3607.088621 214.373679 
L -3615.136698 214.83537 
L -3623.184775 215.255146 
L -3631.232852 215.683886 
L -3639.280929 216.137455 
L -3647.329005 216.575018 
L -3655.377082 216.989559 
L -3663.425159 217.428741 
L -3671.473236 217.828196 
L -3679.521313 218.25581 
L -3687.56939 218.712055 
L -3695.617467 219.101747 
L -3703.665544 219.539022 
L -3711.713621 219.951965 
L -3719.761698 220.385464 
L -3727.809775 220.776324 
L -3735.857852 221.23526 
L -3743.905929 221.612882 
L -3751.954005 222.038082 
L -3760.002082 222.453706 
L -3768.050159 222.88019 
L -3776.098236 223.284623 
L -3784.146313 223.696917 
L -3792.19439 224.111041 
L -3800.242467 224.539685 
L -3808.290544 224.930965 
L -3816.338621 225.292972 
L -3824.386698 225.66344 
L -3832.434775 226.036538 
L -3840.482852 226.396597 
L -3848.530929 226.763249 
L -3856.579005 227.125855 
L -3864.627082 227.471978 
L -3872.675159 227.822597 
L -3880.723236 228.171645 
L -3888.771313 228.488522 
L -3896.81939 228.811441 
L -3904.867467 229.149226 
L -3912.915544 229.469129 
L -3920.963621 229.754628 
L -3929.011698 230.070618 
L -3937.059775 230.359077 
L -3945.107852 230.624604 
L -3953.155929 230.890708 
L -3961.204005 231.139459 
L -3969.252082 231.408665 
L -3977.300159 231.63037 
L -3985.348236 231.865361 
L -3993.396313 232.086611 
L -4001.44439 232.291608 
L -4009.492467 232.478327 
L -4017.540544 232.647887 
L -4025.588621 232.816598 
L -4033.636698 232.984151 
L -4041.684775 233.122456 
L -4049.732852 233.277685 
L -4057.780929 233.408811 
L -4065.829005 233.521511 
L -4073.877082 233.654363 
L -4081.925159 233.770609 
L -4089.973236 233.866554 
L -4098.021313 233.9699 
L -4106.06939 234.070459 
L -4114.117467 234.158698 
L -4122.165544 234.247378 
L -4130.213621 234.320416 
L -4138.261698 234.409267 
L -4146.309775 234.479584 
L -4154.357852 234.553695 
L -4162.405929 234.631658 
L -4170.454005 234.694949 
L -4178.502082 234.762208 
L -4186.550159 234.850895 
L -4194.598236 234.913074 
L -4202.646313 234.989815 
L -4210.69439 235.050278 
L -4218.742467 235.131399 
L -4226.790544 235.195329 
L -4234.838621 235.263147 
L -4242.886698 235.322358 
L -4250.934775 235.376219 
L -4258.982852 235.438066 
L -4267.030929 235.506531 
L -4275.079005 235.573206 
L -4283.127082 235.629796 
L -4291.175159 235.674736 
L -4299.223236 235.7407 
L -4307.271313 235.794359 
L -4315.31939 235.859033 
z
" clip-path="url(#pbc919e8806)" style="fill: #008000; fill-opacity: 0.3; stroke: #008000; stroke-opacity: 0.3"/>
   </g>
   <g id="matplotlib.axis_1">
    <g id="xtick_1">
     <g id="line2d_1">
      <defs>
       <path id="m3baed76138" d="M 0 0 
L 0 3.5 
" style="stroke: #000000; stroke-width: 0.8"/>
      </defs>
      <g>
       <use xlink:href="#m3baed76138" x="103.074841" y="395.28" style="stroke: #000000; stroke-width: 0.8"/>
      </g>
     </g>
     <g id="text_1">
      <!-- 2023-01-01 -->
      <g transform="translate(17.945813 495.213718) rotate(-45) scale(0.2 -0.2)">
       <defs>
        <path id="DejaVuSans-32" d="M 1228 531 
L 3431 531 
L 3431 0 
L 469 0 
L 469 531 
Q 828 903 1448 1529 
Q 2069 2156 2228 2338 
Q 2531 2678 2651 2914 
Q 2772 3150 2772 3378 
Q 2772 3750 2511 3984 
Q 2250 4219 1831 4219 
Q 1534 4219 1204 4116 
Q 875 4013 500 3803 
L 500 4441 
Q 881 4594 1212 4672 
Q 1544 4750 1819 4750 
Q 2544 4750 2975 4387 
Q 3406 4025 3406 3419 
Q 3406 3131 3298 2873 
Q 3191 2616 2906 2266 
Q 2828 2175 2409 1742 
Q 1991 1309 1228 531 
z
" transform="scale(0.015625)"/>
        <path id="DejaVuSans-30" d="M 2034 4250 
Q 1547 4250 1301 3770 
Q 1056 3291 1056 2328 
Q 1056 1369 1301 889 
Q 1547 409 2034 409 
Q 2525 409 2770 889 
Q 3016 1369 3016 2328 
Q 3016 3291 2770 3770 
Q 2525 4250 2034 4250 
z
M 2034 4750 
Q 2819 4750 3233 4129 
Q 3647 3509 3647 2328 
Q 3647 1150 3233 529 
Q 2819 -91 2034 -91 
Q 1250 -91 836 529 
Q 422 1150 422 2328 
Q 422 3509 836 4129 
Q 1250 4750 2034 4750 
z
" transform="scale(0.015625)"/>
        <path id="DejaVuSans-33" d="M 2597 2516 
Q 3050 2419 3304 2112 
Q 3559 1806 3559 1356 
Q 3559 666 3084 287 
Q 2609 -91 1734 -91 
Q 1441 -91 1130 -33 
Q 819 25 488 141 
L 488 750 
Q 750 597 1062 519 
Q 1375 441 1716 441 
Q 2309 441 2620 675 
Q 2931 909 2931 1356 
Q 2931 1769 2642 2001 
Q 2353 2234 1838 2234 
L 1294 2234 
L 1294 2753 
L 1863 2753 
Q 2328 2753 2575 2939 
Q 2822 3125 2822 3475 
Q 2822 3834 2567 4026 
Q 2313 4219 1838 4219 
Q 1578 4219 1281 4162 
Q 984 4106 628 3988 
L 628 4550 
Q 988 4650 1302 4700 
Q 1616 4750 1894 4750 
Q 2613 4750 3031 4423 
Q 3450 4097 3450 3541 
Q 3450 3153 3228 2886 
Q 3006 2619 2597 2516 
z
" transform="scale(0.015625)"/>
        <path id="DejaVuSans-2d" d="M 313 2009 
L 1997 2009 
L 1997 1497 
L 313 1497 
L 313 2009 
z
" transform="scale(0.015625)"/>
        <path id="DejaVuSans-31" d="M 794 531 
L 1825 531 
L 1825 4091 
L 703 3866 
L 703 4441 
L 1819 4666 
L 2450 4666 
L 2450 531 
L 3481 531 
L 3481 0 
L 794 0 
L 794 531 
z
" transform="scale(0.015625)"/>
       </defs>
       <use xlink:href="#DejaVuSans-32"/>
       <use xlink:href="#DejaVuSans-30" x="63.623047"/>
       <use xlink:href="#DejaVuSans-32" x="127.246094"/>
       <use xlink:href="#DejaVuSans-33" x="190.869141"/>
       <use xlink:href="#DejaVuSans-2d" x="254.492188"/>
       <use xlink:href="#DejaVuSans-30" x="290.576172"/>
       <use xlink:href="#DejaVuSans-31" x="354.199219"/>
       <use xlink:href="#DejaVuSans-2d" x="417.822266"/>
       <use xlink:href="#DejaVuSans-30" x="453.90625"/>
       <use xlink:href="#DejaVuSans-31" x="517.529297"/>
      </g>
     </g>
    </g>
    <g id="xtick_2">
     <g id="line2d_2">
      <g>
       <use xlink:href="#m3baed76138" x="215.747918" y="395.28" style="stroke: #000000; stroke-width: 0.8"/>
      </g>
     </g>
     <g id="text_2">
      <!-- 2023-01-15 -->
      <g transform="translate(130.61889 495.213718) rotate(-45) scale(0.2 -0.2)">
       <defs>
        <path id="DejaVuSans-35" d="M 691 4666 
L 3169 4666 
L 3169 4134 
L 1269 4134 
L 1269 2991 
Q 1406 3038 1543 3061 
Q 1681 3084 1819 3084 
Q 2600 3084 3056 2656 
Q 3513 2228 3513 1497 
Q 3513 744 3044 326 
Q 2575 -91 1722 -91 
Q 1428 -91 1123 -41 
Q 819 9 494 109 
L 494 744 
Q 775 591 1075 516 
Q 1375 441 1709 441 
Q 2250 441 2565 725 
Q 2881 1009 2881 1497 
Q 2881 1984 2565 2268 
Q 2250 2553 1709 2553 
Q 1456 2553 1204 2497 
Q 953 2441 691 2322 
L 691 4666 
z
" transform="scale(0.015625)"/>
       </defs>
       <use xlink:href="#DejaVuSans-32"/>
       <use xlink:href="#DejaVuSans-30" x="63.623047"/>
       <use xlink:href="#DejaVuSans-32" x="127.246094"/>
       <use xlink:href="#DejaVuSans-33" x="190.869141"/>
       <use xlink:href="#DejaVuSans-2d" x="254.492188"/>
       <use xlink:href="#DejaVuSans-30" x="290.576172"/>
       <use xlink:href="#DejaVuSans-31" x="354.199219"/>
       <use xlink:href="#DejaVuSans-2d" x="417.822266"/>
       <use xlink:href="#DejaVuSans-31" x="453.90625"/>
       <use xlink:href="#DejaVuSans-35" x="517.529297"/>
      </g>
     </g>
    </g>
    <g id="xtick_3">
     <g id="line2d_3">
      <g>
       <use xlink:href="#m3baed76138" x="328.420995" y="395.28" style="stroke: #000000; stroke-width: 0.8"/>
      </g>
     </g>
     <g id="text_3">
      <!-- 2023-01-29 -->
      <g transform="translate(243.291967 495.213718) rotate(-45) scale(0.2 -0.2)">
       <defs>
        <path id="DejaVuSans-39" d="M 703 97 
L 703 672 
Q 941 559 1184 500 
Q 1428 441 1663 441 
Q 2288 441 2617 861 
Q 2947 1281 2994 2138 
Q 2813 1869 2534 1725 
Q 2256 1581 1919 1581 
Q 1219 1581 811 2004 
Q 403 2428 403 3163 
Q 403 3881 828 4315 
Q 1253 4750 1959 4750 
Q 2769 4750 3195 4129 
Q 3622 3509 3622 2328 
Q 3622 1225 3098 567 
Q 2575 -91 1691 -91 
Q 1453 -91 1209 -44 
Q 966 3 703 97 
z
M 1959 2075 
Q 2384 2075 2632 2365 
Q 2881 2656 2881 3163 
Q 2881 3666 2632 3958 
Q 2384 4250 1959 4250 
Q 1534 4250 1286 3958 
Q 1038 3666 1038 3163 
Q 1038 2656 1286 2365 
Q 1534 2075 1959 2075 
z
" transform="scale(0.015625)"/>
       </defs>
       <use xlink:href="#DejaVuSans-32"/>
       <use xlink:href="#DejaVuSans-30" x="63.623047"/>
       <use xlink:href="#DejaVuSans-32" x="127.246094"/>
       <use xlink:href="#DejaVuSans-33" x="190.869141"/>
       <use xlink:href="#DejaVuSans-2d" x="254.492188"/>
       <use xlink:href="#DejaVuSans-30" x="290.576172"/>
       <use xlink:href="#DejaVuSans-31" x="354.199219"/>
       <use xlink:href="#DejaVuSans-2d" x="417.822266"/>
       <use xlink:href="#DejaVuSans-32" x="453.90625"/>
       <use xlink:href="#DejaVuSans-39" x="517.529297"/>
      </g>
     </g>
    </g>
    <g id="xtick_4">
     <g id="line2d_4">
      <g>
       <use xlink:href="#m3baed76138" x="441.094071" y="395.28" style="stroke: #000000; stroke-width: 0.8"/>
      </g>
     </g>
     <g id="text_4">
      <!-- 2023-02-12 -->
      <g transform="translate(355.965044 495.213718) rotate(-45) scale(0.2 -0.2)">
       <use xlink:href="#DejaVuSans-32"/>
       <use xlink:href="#DejaVuSans-30" x="63.623047"/>
       <use xlink:href="#DejaVuSans-32" x="127.246094"/>
       <use xlink:href="#DejaVuSans-33" x="190.869141"/>
       <use xlink:href="#DejaVuSans-2d" x="254.492188"/>
       <use xlink:href="#DejaVuSans-30" x="290.576172"/>
       <use xlink:href="#DejaVuSans-32" x="354.199219"/>
       <use xlink:href="#DejaVuSans-2d" x="417.822266"/>
       <use xlink:href="#DejaVuSans-31" x="453.90625"/>
       <use xlink:href="#DejaVuSans-32" x="517.529297"/>
      </g>
     </g>
    </g>
    <g id="xtick_5">
     <g id="line2d_5">
      <g>
       <use xlink:href="#m3baed76138" x="553.767148" y="395.28" style="stroke: #000000; stroke-width: 0.8"/>
      </g>
     </g>
     <g id="text_5">
      <!-- 2023-02-26 -->
      <g transform="translate(468.638121 495.213718) rotate(-45) scale(0.2 -0.2)">
       <defs>
        <path id="DejaVuSans-36" d="M 2113 2584 
Q 1688 2584 1439 2293 
Q 1191 2003 1191 1497 
Q 1191 994 1439 701 
Q 1688 409 2113 409 
Q 2538 409 2786 701 
Q 3034 994 3034 1497 
Q 3034 2003 2786 2293 
Q 2538 2584 2113 2584 
z
M 3366 4563 
L 3366 3988 
Q 3128 4100 2886 4159 
Q 2644 4219 2406 4219 
Q 1781 4219 1451 3797 
Q 1122 3375 1075 2522 
Q 1259 2794 1537 2939 
Q 1816 3084 2150 3084 
Q 2853 3084 3261 2657 
Q 3669 2231 3669 1497 
Q 3669 778 3244 343 
Q 2819 -91 2113 -91 
Q 1303 -91 875 529 
Q 447 1150 447 2328 
Q 447 3434 972 4092 
Q 1497 4750 2381 4750 
Q 2619 4750 2861 4703 
Q 3103 4656 3366 4563 
z
" transform="scale(0.015625)"/>
       </defs>
       <use xlink:href="#DejaVuSans-32"/>
       <use xlink:href="#DejaVuSans-30" x="63.623047"/>
       <use xlink:href="#DejaVuSans-32" x="127.246094"/>
       <use xlink:href="#DejaVuSans-33" x="190.869141"/>
       <use xlink:href="#DejaVuSans-2d" x="254.492188"/>
       <use xlink:href="#DejaVuSans-30" x="290.576172"/>
       <use xlink:href="#DejaVuSans-32" x="354.199219"/>
       <use xlink:href="#DejaVuSans-2d" x="417.822266"/>
       <use xlink:href="#DejaVuSans-32" x="453.90625"/>
       <use xlink:href="#DejaVuSans-36" x="517.529297"/>
      </g>
     </g>
    </g>
    <g id="xtick_6">
     <g id="line2d_6">
      <g>
       <use xlink:href="#m3baed76138" x="666.440225" y="395.28" style="stroke: #000000; stroke-width: 0.8"/>
      </g>
     </g>
     <g id="text_6">
      <!-- 2023-03-12 -->
      <g transform="translate(581.311198 495.213718) rotate(-45) scale(0.2 -0.2)">
       <use xlink:href="#DejaVuSans-32"/>
       <use xlink:href="#DejaVuSans-30" x="63.623047"/>
       <use xlink:href="#DejaVuSans-32" x="127.246094"/>
       <use xlink:href="#DejaVuSans-33" x="190.869141"/>
       <use xlink:href="#DejaVuSans-2d" x="254.492188"/>
       <use xlink:href="#DejaVuSans-30" x="290.576172"/>
       <use xlink:href="#DejaVuSans-33" x="354.199219"/>
       <use xlink:href="#DejaVuSans-2d" x="417.822266"/>
       <use xlink:href="#DejaVuSans-31" x="453.90625"/>
       <use xlink:href="#DejaVuSans-32" x="517.529297"/>
      </g>
     </g>
    </g>
    <g id="xtick_7">
     <g id="line2d_7">
      <g>
       <use xlink:href="#m3baed76138" x="779.113302" y="395.28" style="stroke: #000000; stroke-width: 0.8"/>
      </g>
     </g>
     <g id="text_7">
      <!-- 2023-03-26 -->
      <g transform="translate(693.984275 495.213718) rotate(-45) scale(0.2 -0.2)">
       <use xlink:href="#DejaVuSans-32"/>
       <use xlink:href="#DejaVuSans-30" x="63.623047"/>
       <use xlink:href="#DejaVuSans-32" x="127.246094"/>
       <use xlink:href="#DejaVuSans-33" x="190.869141"/>
       <use xlink:href="#DejaVuSans-2d" x="254.492188"/>
       <use xlink:href="#DejaVuSans-30" x="290.576172"/>
       <use xlink:href="#DejaVuSans-33" x="354.199219"/>
       <use xlink:href="#DejaVuSans-2d" x="417.822266"/>
       <use xlink:href="#DejaVuSans-32" x="453.90625"/>
       <use xlink:href="#DejaVuSans-36" x="517.529297"/>
      </g>
     </g>
    </g>
    <g id="xtick_8">
     <g id="line2d_8">
      <g>
       <use xlink:href="#m3baed76138" x="891.786379" y="395.28" style="stroke: #000000; stroke-width: 0.8"/>
      </g>
     </g>
     <g id="text_8">
      <!-- 2023-04-09 -->
      <g transform="translate(806.657352 495.213718) rotate(-45) scale(0.2 -0.2)">
       <defs>
        <path id="DejaVuSans-34" d="M 2419 4116 
L 825 1625 
L 2419 1625 
L 2419 4116 
z
M 2253 4666 
L 3047 4666 
L 3047 1625 
L 3713 1625 
L 3713 1100 
L 3047 1100 
L 3047 0 
L 2419 0 
L 2419 1100 
L 313 1100 
L 313 1709 
L 2253 4666 
z
" transform="scale(0.015625)"/>
       </defs>
       <use xlink:href="#DejaVuSans-32"/>
       <use xlink:href="#DejaVuSans-30" x="63.623047"/>
       <use xlink:href="#DejaVuSans-32" x="127.246094"/>
       <use xlink:href="#DejaVuSans-33" x="190.869141"/>
       <use xlink:href="#DejaVuSans-2d" x="254.492188"/>
       <use xlink:href="#DejaVuSans-30" x="290.576172"/>
       <use xlink:href="#DejaVuSans-34" x="354.199219"/>
       <use xlink:href="#DejaVuSans-2d" x="417.822266"/>
       <use xlink:href="#DejaVuSans-30" x="453.90625"/>
       <use xlink:href="#DejaVuSans-39" x="517.529297"/>
      </g>
     </g>
    </g>
    <g id="xtick_9">
     <g id="line2d_9">
      <g>
       <use xlink:href="#m3baed76138" x="940.074841" y="395.28" style="stroke: #000000; stroke-width: 0.8"/>
      </g>
     </g>
     <g id="text_9">
      <!-- 2023-04-15 -->
      <g transform="translate(854.945813 495.213718) rotate(-45) scale(0.2 -0.2)">
       <use xlink:href="#DejaVuSans-32"/>
       <use xlink:href="#DejaVuSans-30" x="63.623047"/>
       <use xlink:href="#DejaVuSans-32" x="127.246094"/>
       <use xlink:href="#DejaVuSans-33" x="190.869141"/>
       <use xlink:href="#DejaVuSans-2d" x="254.492188"/>
       <use xlink:href="#DejaVuSans-30" x="290.576172"/>
       <use xlink:href="#DejaVuSans-34" x="354.199219"/>
       <use xlink:href="#DejaVuSans-2d" x="417.822266"/>
       <use xlink:href="#DejaVuSans-31" x="453.90625"/>
       <use xlink:href="#DejaVuSans-35" x="517.529297"/>
      </g>
     </g>
    </g>
   </g>
   <g id="matplotlib.axis_2">
    <g id="ytick_1">
     <g id="line2d_10">
      <defs>
       <path id="md4038fe8f7" d="M 0 0 
L -3.5 0 
" style="stroke: #000000; stroke-width: 0.8"/>
      </defs>
      <g>
       <use xlink:href="#md4038fe8f7" x="103.074841" y="379.443697" style="stroke: #000000; stroke-width: 0.8"/>
      </g>
     </g>
     <g id="text_10">
      <!-- −0.15 -->
      <g transform="translate(34.784216 387.042134) scale(0.2 -0.2)">
       <defs>
        <path id="DejaVuSans-2212" d="M 678 2272 
L 4684 2272 
L 4684 1741 
L 678 1741 
L 678 2272 
z
" transform="scale(0.015625)"/>
        <path id="DejaVuSans-2e" d="M 684 794 
L 1344 794 
L 1344 0 
L 684 0 
L 684 794 
z
" transform="scale(0.015625)"/>
       </defs>
       <use xlink:href="#DejaVuSans-2212"/>
       <use xlink:href="#DejaVuSans-30" x="83.789062"/>
       <use xlink:href="#DejaVuSans-2e" x="147.412109"/>
       <use xlink:href="#DejaVuSans-31" x="179.199219"/>
       <use xlink:href="#DejaVuSans-35" x="242.822266"/>
      </g>
     </g>
    </g>
    <g id="ytick_2">
     <g id="line2d_11">
      <g>
       <use xlink:href="#md4038fe8f7" x="103.074841" y="331.602803" style="stroke: #000000; stroke-width: 0.8"/>
      </g>
     </g>
     <g id="text_11">
      <!-- −0.10 -->
      <g transform="translate(34.784216 339.20124) scale(0.2 -0.2)">
       <use xlink:href="#DejaVuSans-2212"/>
       <use xlink:href="#DejaVuSans-30" x="83.789062"/>
       <use xlink:href="#DejaVuSans-2e" x="147.412109"/>
       <use xlink:href="#DejaVuSans-31" x="179.199219"/>
       <use xlink:href="#DejaVuSans-30" x="242.822266"/>
      </g>
     </g>
    </g>
    <g id="ytick_3">
     <g id="line2d_12">
      <g>
       <use xlink:href="#md4038fe8f7" x="103.074841" y="283.761909" style="stroke: #000000; stroke-width: 0.8"/>
      </g>
     </g>
     <g id="text_12">
      <!-- −0.05 -->
      <g transform="translate(34.784216 291.360347) scale(0.2 -0.2)">
       <use xlink:href="#DejaVuSans-2212"/>
       <use xlink:href="#DejaVuSans-30" x="83.789062"/>
       <use xlink:href="#DejaVuSans-2e" x="147.412109"/>
       <use xlink:href="#DejaVuSans-30" x="179.199219"/>
       <use xlink:href="#DejaVuSans-35" x="242.822266"/>
      </g>
     </g>
    </g>
    <g id="ytick_4">
     <g id="line2d_13">
      <g>
       <use xlink:href="#md4038fe8f7" x="103.074841" y="235.921015" style="stroke: #000000; stroke-width: 0.8"/>
      </g>
     </g>
     <g id="text_13">
      <!-- 0.00 -->
      <g transform="translate(51.543591 243.519453) scale(0.2 -0.2)">
       <use xlink:href="#DejaVuSans-30"/>
       <use xlink:href="#DejaVuSans-2e" x="63.623047"/>
       <use xlink:href="#DejaVuSans-30" x="95.410156"/>
       <use xlink:href="#DejaVuSans-30" x="159.033203"/>
      </g>
     </g>
    </g>
    <g id="ytick_5">
     <g id="line2d_14">
      <g>
       <use xlink:href="#md4038fe8f7" x="103.074841" y="188.080121" style="stroke: #000000; stroke-width: 0.8"/>
      </g>
     </g>
     <g id="text_14">
      <!-- 0.05 -->
      <g transform="translate(51.543591 195.678559) scale(0.2 -0.2)">
       <use xlink:href="#DejaVuSans-30"/>
       <use xlink:href="#DejaVuSans-2e" x="63.623047"/>
       <use xlink:href="#DejaVuSans-30" x="95.410156"/>
       <use xlink:href="#DejaVuSans-35" x="159.033203"/>
      </g>
     </g>
    </g>
    <g id="ytick_6">
     <g id="line2d_15">
      <g>
       <use xlink:href="#md4038fe8f7" x="103.074841" y="140.239228" style="stroke: #000000; stroke-width: 0.8"/>
      </g>
     </g>
     <g id="text_15">
      <!-- 0.10 -->
      <g transform="translate(51.543591 147.837665) scale(0.2 -0.2)">
       <use xlink:href="#DejaVuSans-30"/>
       <use xlink:href="#DejaVuSans-2e" x="63.623047"/>
       <use xlink:href="#DejaVuSans-31" x="95.410156"/>
       <use xlink:href="#DejaVuSans-30" x="159.033203"/>
      </g>
     </g>
    </g>
    <g id="ytick_7">
     <g id="line2d_16">
      <g>
       <use xlink:href="#md4038fe8f7" x="103.074841" y="92.398334" style="stroke: #000000; stroke-width: 0.8"/>
      </g>
     </g>
     <g id="text_16">
      <!-- 0.15 -->
      <g transform="translate(51.543591 99.996771) scale(0.2 -0.2)">
       <use xlink:href="#DejaVuSans-30"/>
       <use xlink:href="#DejaVuSans-2e" x="63.623047"/>
       <use xlink:href="#DejaVuSans-31" x="95.410156"/>
       <use xlink:href="#DejaVuSans-35" x="159.033203"/>
      </g>
     </g>
    </g>
    <g id="ytick_8">
     <g id="line2d_17">
      <g>
       <use xlink:href="#md4038fe8f7" x="103.074841" y="44.55744" style="stroke: #000000; stroke-width: 0.8"/>
      </g>
     </g>
     <g id="text_17">
      <!-- 0.20 -->
      <g transform="translate(51.543591 52.155877) scale(0.2 -0.2)">
       <use xlink:href="#DejaVuSans-30"/>
       <use xlink:href="#DejaVuSans-2e" x="63.623047"/>
       <use xlink:href="#DejaVuSans-32" x="95.410156"/>
       <use xlink:href="#DejaVuSans-30" x="159.033203"/>
      </g>
     </g>
    </g>
   </g>
   <g id="line2d_18">
    <path d="M -1 157.720095 
L 6.497918 149.031322 
L 14.545995 114.930096 
L 22.594071 114.930096 
L 30.642148 72.432992 
L 54.786379 72.432992 
L 62.834456 206.210297 
L 70.882533 206.210297 
L 78.93061 250.978469 
L 86.978687 250.978469 
L 95.026764 83.571135 
L 103.074841 73.911524 
L 111.122918 96.935713 
L 127.219071 96.935713 
L 135.267148 124.065611 
L 175.507533 124.065611 
L 183.55561 80.791835 
L 191.603687 80.791835 
L 199.651764 60.614626 
L 207.699841 24.84 
L 215.747918 219.777855 
L 223.795995 225.705592 
L 231.844071 219.145613 
L 239.892148 207.488462 
L 247.940225 207.488462 
L 255.988302 197.763576 
L 280.132533 197.763576 
L 288.18061 187.12908 
L 296.228687 187.12908 
L 304.276764 210.782705 
L 320.372918 210.782705 
L 328.420995 278.774613 
L 336.469071 233.506472 
L 344.517148 238.76305 
L 352.565225 199.953736 
L 360.613302 221.538028 
L 400.853687 221.538028 
L 408.901764 244.858009 
L 416.949841 244.858009 
L 424.997918 235.728695 
L 441.094071 235.728695 
L 449.142148 203.511412 
L 457.190225 234.317131 
L 465.238302 251.719975 
L 465.238302 251.719975 
" clip-path="url(#pbc919e8806)" style="fill: none; stroke: #ffa500; stroke-width: 1.5; stroke-linecap: square"/>
   </g>
   <g id="line2d_19">
    <path d="M 103.074841 235.921015 
L 948.274841 235.921015 
" clip-path="url(#pbc919e8806)" style="fill: none; stroke-dasharray: 7.4,3.2; stroke-dashoffset: 0; stroke: #000000; stroke-width: 2"/>
   </g>
   <g id="patch_3">
    <path d="M 103.074841 395.28 
L 103.074841 7.2 
" style="fill: none; stroke: #000000; stroke-width: 0.8; stroke-linejoin: miter; stroke-linecap: square"/>
   </g>
   <g id="patch_4">
    <path d="M 940.074841 395.28 
L 940.074841 7.2 
" style="fill: none; stroke: #000000; stroke-width: 0.8; stroke-linejoin: miter; stroke-linecap: square"/>
   </g>
   <g id="patch_5">
    <path d="M 103.074841 395.28 
L 940.074841 395.28 
" style="fill: none; stroke: #000000; stroke-width: 0.8; stroke-linejoin: miter; stroke-linecap: square"/>
   </g>
   <g id="patch_6">
    <path d="M 103.074841 7.2 
L 940.074841 7.2 
" style="fill: none; stroke: #000000; stroke-width: 0.8; stroke-linejoin: miter; stroke-linecap: square"/>
   </g>
  </g>
 </g>
 <defs>
  <clipPath id="pbc919e8806">
   <rect x="103.074841" y="7.2" width="837" height="388.08"/>
  </clipPath>
 </defs>
</svg>
