<?xml version="1.0" encoding="utf-8" standalone="no"?>
<!DOCTYPE svg PUBLIC "-//W3C//DTD SVG 1.1//EN"
  "http://www.w3.org/Graphics/SVG/1.1/DTD/svg11.dtd">
<svg xmlns:xlink="http://www.w3.org/1999/xlink" width="947.274841pt" height="505.354841pt" viewBox="0 0 947.274841 505.354841" xmlns="http://www.w3.org/2000/svg" version="1.1">
 <metadata>
  <rdf:RDF xmlns:dc="http://purl.org/dc/elements/1.1/" xmlns:cc="http://creativecommons.org/ns#" xmlns:rdf="http://www.w3.org/1999/02/22-rdf-syntax-ns#">
   <cc:Work>
    <dc:type rdf:resource="http://purl.org/dc/dcmitype/StillImage"/>
    <dc:date>2023-11-15T19:56:21.215211</dc:date>
    <dc:format>image/svg+xml</dc:format>
    <dc:creator>
     <cc:Agent>
      <dc:title>Matplotlib v3.7.2, https://matplotlib.org/</dc:title>
     </cc:Agent>
    </dc:creator>
   </cc:Work>
  </rdf:RDF>
 </metadata>
 <defs>
  <style type="text/css">*{stroke-linejoin: round; stroke-linecap: butt}</style>
 </defs>
 <g id="figure_1">
  <g id="patch_1">
   <path d="M 0 505.354841 
L 947.274841 505.354841 
L 947.274841 -0 
L 0 -0 
z
" style="fill: #ffffff"/>
  </g>
  <g id="axes_1">
   <g id="patch_2">
    <path d="M 103.074841 395.28 
L 940.074841 395.28 
L 940.074841 7.2 
L 103.074841 7.2 
z
" style="fill: #ffffff"/>
   </g>
   <g id="PolyCollection_1">
    <path d="M -393.000769 330.19015 
L -393.000769 330.19721 
L -390.959306 330.181893 
L -388.917842 330.18165 
L -386.876379 330.17119 
L -384.834915 330.180211 
L -382.793452 330.1785 
L -380.751989 330.169371 
L -378.710525 330.160555 
L -376.669062 330.156415 
L -374.627598 330.159513 
L -372.586135 330.156962 
L -370.544672 330.150584 
L -368.503208 330.146116 
L -366.461745 330.12852 
L -364.420281 330.126078 
L -362.378818 330.113258 
L -360.337354 330.11238 
L -358.295891 330.090309 
L -356.254428 330.085567 
L -354.212964 330.084807 
L -352.171501 330.073655 
L -350.130037 330.066617 
L -348.088574 330.063802 
L -346.047111 330.047753 
L -344.005647 330.04594 
L -341.964184 330.033873 
L -339.92272 330.024274 
L -337.881257 330.008497 
L -335.839793 329.994177 
L -333.79833 329.987833 
L -331.756867 329.969662 
L -329.715403 329.940898 
L -327.67394 329.93501 
L -325.632476 329.918435 
L -323.591013 329.888958 
L -321.54955 329.878397 
L -319.508086 329.849882 
L -317.466623 329.827054 
L -315.425159 329.807696 
L -313.383696 329.787167 
L -311.342232 329.755346 
L -309.300769 329.719721 
L -307.259306 329.680882 
L -305.217842 329.661153 
L -303.176379 329.610812 
L -301.134915 329.584951 
L -299.093452 329.551526 
L -297.051989 329.527484 
L -295.010525 329.490563 
L -292.969062 329.438035 
L -290.927598 329.418569 
L -288.886135 329.372102 
L -286.844672 329.321808 
L -284.803208 329.286047 
L -282.761745 329.260689 
L -280.720281 329.212871 
L -278.678818 329.167879 
L -276.637354 329.130017 
L -274.595891 329.08264 
L -272.554428 329.037019 
L -270.512964 328.99861 
L -268.471501 328.952577 
L -266.430037 328.911449 
L -264.388574 328.881513 
L -262.347111 328.840104 
L -260.305647 328.773339 
L -258.264184 328.72452 
L -256.22272 328.679369 
L -254.181257 328.642708 
L -252.139793 328.589516 
L -250.09833 328.547039 
L -248.056867 328.496573 
L -246.015403 328.488185 
L -243.97394 328.406874 
L -241.932476 328.386316 
L -239.891013 328.32538 
L -237.84955 328.284118 
L -235.808086 328.220435 
L -233.766623 328.199112 
L -231.725159 328.119587 
L -229.683696 328.066177 
L -227.642232 328.034813 
L -225.600769 327.969239 
L -223.559306 327.925392 
L -221.517842 327.862725 
L -219.476379 327.794885 
L -217.434915 327.74047 
L -215.393452 327.695695 
L -213.351989 327.619333 
L -211.310525 327.55938 
L -209.269062 327.489914 
L -207.227598 327.426436 
L -205.186135 327.375386 
L -203.144672 327.312576 
L -201.103208 327.245069 
L -199.061745 327.214222 
L -197.020281 327.135238 
L -194.978818 327.076024 
L -192.937354 327.020863 
L -190.895891 326.963458 
L -188.854428 326.905328 
L -186.812964 326.848451 
L -184.771501 326.808642 
L -182.730037 326.753936 
L -180.688574 326.690533 
L -178.647111 326.626748 
L -176.605647 326.565255 
L -174.564184 326.532614 
L -172.52272 326.465091 
L -170.481257 326.37447 
L -168.439793 326.316928 
L -166.39833 326.241878 
L -164.356867 326.166166 
L -162.315403 326.071927 
L -160.27394 325.976272 
L -158.232476 325.921706 
L -156.191013 325.811019 
L -154.14955 325.73301 
L -152.108086 325.625052 
L -150.066623 325.566732 
L -148.025159 325.430684 
L -145.983696 325.31295 
L -143.942232 325.217767 
L -141.900769 325.120154 
L -139.859306 325.012477 
L -137.817842 324.886489 
L -135.776379 324.804795 
L -133.734915 324.64989 
L -131.693452 324.57869 
L -129.651989 324.419915 
L -127.610525 324.28919 
L -125.569062 324.181185 
L -123.527598 324.106729 
L -121.486135 323.941297 
L -119.444672 323.851376 
L -117.403208 323.602607 
L -115.361745 323.475088 
L -113.320281 323.404849 
L -111.278818 323.26497 
L -109.237354 323.120867 
L -107.195891 322.880893 
L -105.154428 322.711311 
L -103.112964 322.689957 
L -101.071501 322.306555 
L -99.030037 322.150454 
L -96.988574 321.999552 
L -94.947111 321.841484 
L -92.905647 321.587609 
L -90.864184 321.422387 
L -88.82272 321.514409 
L -86.781257 321.438165 
L -84.739793 320.813645 
L -82.69833 320.459611 
L -80.656867 320.46113 
L -78.615403 320.138652 
L -76.57394 320.060684 
L -74.532476 320.142048 
L -72.491013 319.771997 
L -70.44955 319.235258 
L -68.408086 319.216427 
L -66.366623 319.595691 
L -64.325159 319.355402 
L -62.283696 319.844508 
L -60.242232 319.975996 
L -58.200769 319.625782 
L -56.159306 320.445949 
L -54.117842 321.743932 
L -52.076379 323.6068 
L -50.034915 323.153922 
L -47.993452 326.294147 
L -45.951989 327.597293 
L -43.910525 324.97165 
L -41.869062 326.555346 
L -39.827598 328.638843 
L -37.786135 328.358376 
L -35.744672 328.743214 
L -33.703208 335.480986 
L -31.661745 344.756077 
L -29.620281 349.529266 
L -27.578818 340.240839 
L -25.537354 345.583903 
L -23.495891 352.291197 
L -21.454428 352.171011 
L -19.412964 365.474975 
L -17.371501 363.704706 
L -15.330037 359.845426 
L -13.288574 349.942375 
L -11.247111 359.533076 
L -9.205647 365.398867 
L -7.164184 362.877234 
L -5.12272 364.616182 
L -3.081257 370.341554 
L -1.039793 369.600501 
L 1.00167 364.826189 
L 3.043133 371.038177 
L 5.084597 372.445308 
L 7.12606 370.191667 
L 9.167524 374.357413 
L 11.208987 375.818133 
L 13.25045 375.493271 
L 15.291914 374.252804 
L 17.333377 375.597439 
L 19.374841 374.235912 
L 21.416304 374.389175 
L 23.457768 375.705106 
L 25.499231 374.575849 
L 27.540694 375.232118 
L 29.582158 375.330101 
L 31.623621 374.310514 
L 33.665085 374.731143 
L 35.706548 373.101325 
L 37.748011 373.4324 
L 39.789475 373.875217 
L 41.830938 373.976106 
L 43.872402 373.23178 
L 45.913865 372.581727 
L 47.955328 372.428225 
L 49.996792 371.873518 
L 52.038255 371.796417 
L 54.079719 371.665994 
L 56.121182 370.636371 
L 58.162646 371.175544 
L 60.204109 370.480913 
L 62.245572 370.085666 
L 64.287036 370.284819 
L 66.328499 369.624187 
L 68.369963 369.44005 
L 70.411426 369.645421 
L 72.452889 370.008168 
L 74.494353 368.90333 
L 76.535816 368.358433 
L 78.57728 368.378202 
L 80.618743 370.126941 
L 82.660207 370.121464 
L 84.70167 370.755377 
L 86.743133 368.890534 
L 88.784597 367.768994 
L 90.82606 367.976277 
L 92.867524 369.036628 
L 94.908987 369.102086 
L 96.95045 366.964886 
L 98.991914 368.521812 
L 101.033377 367.605768 
L 103.074841 367.300516 
L 105.116304 366.071886 
L 107.157768 366.599396 
L 109.199231 365.990067 
L 111.240694 366.228521 
L 113.282158 365.229502 
L 115.323621 364.451344 
L 117.365085 363.271812 
L 119.406548 362.582116 
L 121.448011 361.90751 
L 123.489475 360.952826 
L 125.530938 360.510583 
L 127.572402 359.546878 
L 129.613865 358.523586 
L 131.655328 356.856058 
L 133.696792 355.360055 
L 135.738255 354.376215 
L 137.779719 352.818283 
L 139.821182 352.114775 
L 141.862646 350.69982 
L 143.904109 348.836373 
L 145.945572 347.238636 
L 147.987036 345.759393 
L 150.028499 343.887613 
L 152.069963 342.385223 
L 154.111426 340.647505 
L 156.152889 338.996178 
L 158.194353 337.048851 
L 160.235816 335.197458 
L 162.27728 333.27788 
L 164.318743 331.462104 
L 166.360207 329.611978 
L 168.40167 327.360412 
L 170.443133 325.245601 
L 172.484597 323.174196 
L 174.52606 321.536711 
L 176.567524 319.247811 
L 178.608987 317.248244 
L 180.65045 315.056503 
L 182.691914 312.112498 
L 184.733377 310.492242 
L 186.774841 307.958744 
L 188.816304 305.835906 
L 190.857768 303.453381 
L 192.899231 300.846244 
L 194.940694 298.409695 
L 196.982158 295.951382 
L 199.023621 292.980821 
L 201.065085 290.746659 
L 203.106548 287.819556 
L 205.148011 285.673577 
L 207.189475 282.646942 
L 209.230938 279.651319 
L 211.272402 276.966139 
L 213.313865 274.61147 
L 215.355328 271.236151 
L 217.396792 268.648735 
L 219.438255 265.568375 
L 221.479719 262.922731 
L 223.521182 259.700481 
L 225.562646 256.711688 
L 227.604109 255.709601 
L 229.645572 250.659837 
L 231.687036 249.197351 
L 233.728499 245.934965 
L 235.769963 243.335362 
L 237.811426 240.420391 
L 239.852889 237.431449 
L 241.894353 234.551057 
L 243.935816 231.86747 
L 245.97728 229.314479 
L 248.018743 226.662079 
L 250.060207 227.243685 
L 252.10167 221.047065 
L 254.143133 219.146726 
L 256.184597 222.204189 
L 258.22606 215.384983 
L 260.267524 215.469062 
L 262.308987 214.026975 
L 264.35045 209.920743 
L 266.391914 209.785494 
L 268.433377 211.804856 
L 270.474841 208.681017 
L 272.516304 206.965726 
L 274.557768 208.220962 
L 276.599231 206.874528 
L 278.640694 207.401016 
L 280.682158 208.660414 
L 282.723621 210.563522 
L 284.765085 217.238414 
L 286.806548 214.672827 
L 288.848011 217.802939 
L 290.889475 220.07367 
L 292.930938 221.149018 
L 294.972402 224.369157 
L 297.013865 225.934386 
L 299.055328 220.42476 
L 301.096792 224.078516 
L 303.138255 229.63241 
L 305.179719 231.838944 
L 307.221182 231.683975 
L 309.262646 238.760614 
L 311.304109 238.361227 
L 313.345572 239.033417 
L 315.387036 238.073731 
L 317.428499 243.536379 
L 319.469963 240.312289 
L 321.511426 238.392685 
L 323.552889 242.288363 
L 325.594353 246.266062 
L 327.635816 243.995343 
L 329.67728 245.287625 
L 331.718743 245.067459 
L 333.760207 244.033481 
L 335.80167 242.286424 
L 337.843133 242.38001 
L 339.884597 241.812585 
L 341.92606 245.278227 
L 343.967524 241.21073 
L 346.008987 244.034127 
L 348.05045 241.882129 
L 350.091914 239.76069 
L 352.133377 240.343487 
L 354.174841 239.837789 
L 356.216304 236.504794 
L 358.257768 237.484418 
L 360.299231 237.318921 
L 362.340694 239.980697 
L 364.382158 238.250175 
L 366.423621 237.271664 
L 368.465085 237.780935 
L 370.506548 238.835677 
L 372.548011 237.766696 
L 374.589475 235.968165 
L 376.630938 236.322085 
L 378.672402 233.742703 
L 380.713865 233.486147 
L 382.755328 236.466801 
L 384.796792 235.716942 
L 386.838255 233.16573 
L 388.879719 232.078559 
L 390.921182 231.681614 
L 392.962646 228.900424 
L 395.004109 228.749548 
L 397.045572 228.046964 
L 399.087036 226.883534 
L 401.128499 225.57868 
L 403.169963 223.518039 
L 405.211426 223.551949 
L 407.252889 221.907507 
L 409.294353 220.951298 
L 411.335816 219.713822 
L 413.37728 219.015537 
L 415.418743 217.254543 
L 417.460207 214.672567 
L 419.50167 213.861712 
L 421.543133 211.65416 
L 423.584597 208.7988 
L 425.62606 209.717035 
L 427.667524 206.116148 
L 429.708987 206.729183 
L 431.75045 205.569534 
L 433.791914 205.206991 
L 435.833377 202.760087 
L 437.874841 202.103981 
L 439.916304 201.333758 
L 441.957768 198.501629 
L 443.999231 198.653476 
L 446.040694 198.031772 
L 448.082158 197.54376 
L 450.123621 196.051978 
L 452.165085 196.236508 
L 454.206548 194.75018 
L 456.248011 193.348166 
L 458.289475 191.323083 
L 460.330938 190.505361 
L 462.372402 189.894144 
L 464.413865 188.452001 
L 466.455328 188.424043 
L 468.496792 187.631426 
L 470.538255 186.362735 
L 472.579719 186.23151 
L 474.621182 184.843906 
L 476.662646 185.716065 
L 478.704109 184.719889 
L 480.745572 184.62722 
L 482.787036 182.969224 
L 484.828499 180.761361 
L 486.869963 182.424897 
L 488.911426 182.262602 
L 490.952889 181.482811 
L 492.994353 180.685895 
L 495.035816 179.146741 
L 497.07728 178.741279 
L 499.118743 177.872278 
L 501.160207 177.929488 
L 503.20167 177.568157 
L 505.243133 176.125275 
L 507.284597 174.104665 
L 509.32606 176.609445 
L 511.367524 175.946888 
L 513.408987 174.222234 
L 515.45045 175.229177 
L 517.491914 172.183429 
L 519.533377 172.490243 
L 521.574841 172.616789 
L 523.616304 170.51962 
L 525.657768 173.890124 
L 527.699231 170.338658 
L 529.740694 168.484317 
L 531.782158 170.63306 
L 533.823621 171.119342 
L 535.865085 169.879846 
L 537.906548 170.604949 
L 539.948011 168.847629 
L 541.989475 171.752964 
L 544.030938 169.974572 
L 546.072402 170.389696 
L 548.113865 168.040507 
L 550.155328 165.895165 
L 552.196792 168.036854 
L 554.238255 172.076038 
L 556.279719 166.859612 
L 558.321182 166.831228 
L 560.362646 164.682812 
L 562.404109 165.243176 
L 564.445572 164.684938 
L 566.487036 163.23588 
L 568.528499 162.510839 
L 570.569963 164.326292 
L 572.611426 162.950228 
L 574.652889 164.609652 
L 576.694353 164.717183 
L 578.735816 158.880627 
L 580.77728 160.983756 
L 582.818743 160.989024 
L 584.860207 161.217037 
L 586.90167 161.42364 
L 588.943133 164.895807 
L 590.984597 166.22973 
L 593.02606 165.989792 
L 595.067524 169.888369 
L 597.108987 176.395501 
L 599.15045 168.557762 
L 601.191914 168.454689 
L 603.233377 168.622912 
L 605.274841 171.233218 
L 607.316304 171.847825 
L 609.357768 171.855296 
L 611.399231 177.521821 
L 613.440694 179.623189 
L 615.482158 173.224254 
L 617.523621 179.044463 
L 619.565085 176.185046 
L 621.606548 174.399486 
L 623.648011 181.444768 
L 625.689475 180.010922 
L 627.730938 184.529737 
L 629.772402 183.086587 
L 631.813865 179.939472 
L 633.855328 182.71749 
L 635.896792 182.629891 
L 637.938255 185.33652 
L 639.979719 183.459275 
L 642.021182 187.96769 
L 644.062646 184.50844 
L 646.104109 186.816843 
L 648.145572 186.173576 
L 650.187036 188.720847 
L 652.228499 184.227447 
L 654.269963 188.726589 
L 656.311426 188.312048 
L 658.352889 191.334271 
L 660.394353 192.850795 
L 662.435816 192.699485 
L 664.47728 191.723714 
L 666.518743 193.609832 
L 668.560207 194.975967 
L 670.60167 193.453509 
L 672.643133 192.784894 
L 674.684597 194.423457 
L 676.72606 195.898227 
L 678.767524 192.91437 
L 680.808987 191.135192 
L 682.85045 197.465911 
L 684.891914 200.265041 
L 686.933377 193.49839 
L 688.974841 195.316439 
L 691.016304 196.166562 
L 693.057768 196.514913 
L 695.099231 199.720792 
L 697.140694 199.185574 
L 699.182158 197.731028 
L 701.223621 199.091969 
L 703.265085 199.398321 
L 705.306548 195.752848 
L 707.348011 197.497705 
L 709.389475 196.332712 
L 711.430938 201.238226 
L 713.472402 207.295121 
L 715.513865 206.400159 
L 717.555328 201.559602 
L 719.596792 201.041744 
L 721.638255 201.713269 
L 723.679719 201.961571 
L 725.721182 206.507699 
L 727.762646 200.783199 
L 729.804109 206.86757 
L 731.845572 211.774675 
L 733.887036 207.768433 
L 735.928499 214.076695 
L 737.969963 210.229913 
L 740.011426 213.705787 
L 742.052889 211.528947 
L 744.094353 213.289959 
L 746.135816 216.719552 
L 748.17728 216.576331 
L 750.218743 217.693888 
L 752.260207 218.053413 
L 754.30167 218.491966 
L 756.343133 210.406678 
L 758.384597 221.019591 
L 760.42606 225.438003 
L 762.467524 221.327791 
L 764.508987 225.239521 
L 766.55045 226.15331 
L 768.591914 224.044385 
L 770.633377 228.44985 
L 772.674841 231.427509 
L 774.716304 229.816244 
L 776.757768 231.036721 
L 778.799231 231.765873 
L 780.840694 232.897678 
L 782.882158 236.269088 
L 784.923621 229.682785 
L 786.965085 238.094184 
L 789.006548 238.382448 
L 791.048011 238.833242 
L 793.089475 233.766251 
L 795.130938 240.141666 
L 797.172402 244.395074 
L 799.213865 240.196977 
L 801.255328 240.723965 
L 803.296792 246.605972 
L 805.338255 236.447764 
L 807.379719 245.991044 
L 809.421182 240.055511 
L 811.462646 248.382037 
L 813.504109 244.451514 
L 815.545572 248.045926 
L 817.587036 249.152498 
L 819.628499 250.704095 
L 821.669963 251.156646 
L 823.711426 248.901315 
L 825.752889 248.93735 
L 827.794353 250.030783 
L 829.835816 253.808272 
L 831.87728 253.30439 
L 833.918743 253.15801 
L 835.960207 255.457095 
L 838.00167 255.599605 
L 840.043133 253.726611 
L 842.084597 254.038359 
L 844.12606 257.56146 
L 846.167524 258.081212 
L 848.208987 258.95634 
L 850.25045 256.135239 
L 852.291914 251.936368 
L 854.333377 256.633667 
L 856.374841 255.230579 
L 858.416304 256.517226 
L 860.457768 258.559255 
L 862.499231 256.018907 
L 864.540694 259.35025 
L 866.582158 257.001183 
L 868.623621 256.675275 
L 870.665085 256.520851 
L 872.706548 259.438776 
L 874.748011 258.694884 
L 876.789475 258.427757 
L 878.830938 256.30109 
L 880.872402 257.420714 
L 882.913865 257.897584 
L 884.955328 257.284214 
L 886.996792 259.182958 
L 889.038255 258.72302 
L 891.079719 259.799939 
L 893.121182 261.002822 
L 895.162646 260.889864 
L 897.204109 259.703351 
L 899.245572 260.016851 
L 901.287036 259.285382 
L 903.328499 260.214625 
L 905.369963 260.413741 
L 907.411426 259.075075 
L 909.452889 260.604377 
L 911.494353 254.027712 
L 913.535816 260.628096 
L 915.57728 263.104542 
L 917.618743 260.472797 
L 919.660207 260.494997 
L 921.70167 262.977444 
L 923.743133 263.095635 
L 925.784597 260.811466 
L 927.82606 260.691454 
L 929.867524 262.288171 
L 931.908987 261.801148 
L 933.95045 264.817207 
L 935.991914 263.863708 
L 938.033377 266.015547 
L 940.074841 263.060986 
L 940.074841 183.952286 
L 940.074841 183.952286 
L 938.033377 181.518411 
L 935.991914 178.200027 
L 933.95045 181.606387 
L 931.908987 174.590418 
L 929.867524 176.302553 
L 927.82606 175.168061 
L 925.784597 167.88125 
L 923.743133 176.923751 
L 921.70167 181.709276 
L 919.660207 168.035673 
L 917.618743 173.781924 
L 915.57728 179.309245 
L 913.535816 175.509411 
L 911.494353 130.98192 
L 909.452889 173.984898 
L 907.411426 165.866024 
L 905.369963 174.505609 
L 903.328499 173.890691 
L 901.287036 170.620181 
L 899.245572 171.048127 
L 897.204109 170.303159 
L 895.162646 175.459906 
L 893.121182 175.827705 
L 891.079719 169.571347 
L 889.038255 165.539656 
L 886.996792 169.487478 
L 884.955328 163.622628 
L 882.913865 166.411453 
L 880.872402 163.151081 
L 878.830938 158.923132 
L 876.789475 165.754859 
L 874.748011 166.880339 
L 872.706548 167.334443 
L 870.665085 160.34916 
L 868.623621 159.19591 
L 866.582158 159.348252 
L 864.540694 168.44277 
L 862.499231 157.016426 
L 860.457768 165.55621 
L 858.416304 159.12542 
L 856.374841 154.416005 
L 854.333377 159.264501 
L 852.291914 140.832187 
L 850.25045 158.269632 
L 848.208987 165.818999 
L 846.167524 162.936855 
L 844.12606 161.875362 
L 842.084597 147.321225 
L 840.043133 148.335657 
L 838.00167 154.336992 
L 835.960207 154.588695 
L 833.918743 146.854404 
L 831.87728 147.960428 
L 829.835816 147.878334 
L 827.794353 140.353015 
L 825.752889 133.968988 
L 823.711426 133.082336 
L 821.669963 139.955156 
L 819.628499 138.819502 
L 817.587036 135.853134 
L 815.545572 132.783553 
L 813.504109 121.308281 
L 811.462646 134.056205 
L 809.421182 103.428929 
L 807.379719 125.140983 
L 805.338255 95.997988 
L 803.296792 128.747498 
L 801.255328 111.527009 
L 799.213865 111.732306 
L 797.172402 121.4135 
L 795.130938 111.115985 
L 793.089475 91.903539 
L 791.048011 106.776292 
L 789.006548 106.949612 
L 786.965085 106.828111 
L 784.923621 84.33718 
L 782.882158 96.153735 
L 780.840694 93.854452 
L 778.799231 92.689435 
L 776.757768 90.595247 
L 774.716304 86.228176 
L 772.674841 91.348398 
L 770.633377 83.325295 
L 768.591914 73.190943 
L 766.55045 82.322857 
L 764.508987 75.809148 
L 762.467524 70.027271 
L 760.42606 80.466937 
L 758.384597 69.908998 
L 756.343133 42.207 
L 754.30167 63.091202 
L 752.260207 62.649119 
L 750.218743 63.061003 
L 748.17728 60.92522 
L 746.135816 61.404052 
L 744.094353 54.133358 
L 742.052889 51.35576 
L 740.011426 57.630514 
L 737.969963 46.919183 
L 735.928499 58.664805 
L 733.887036 43.669569 
L 731.845572 52.934922 
L 729.804109 43.115282 
L 727.762646 30.866197 
L 725.721182 42.978012 
L 723.679719 32.327121 
L 721.638255 33.569681 
L 719.596792 33.57388 
L 717.555328 35.156857 
L 715.513865 46.168518 
L 713.472402 49.197017 
L 711.430938 37.162293 
L 709.389475 24.84 
L 707.348011 29.034071 
L 705.306548 27.03992 
L 703.265085 35.741379 
L 701.223621 35.54059 
L 699.182158 32.939621 
L 697.140694 37.804085 
L 695.099231 38.153574 
L 693.057768 32.325266 
L 691.016304 33.831006 
L 688.974841 32.031245 
L 686.933377 29.661172 
L 684.891914 45.131121 
L 682.85045 37.605891 
L 680.808987 27.044663 
L 678.767524 33.254966 
L 676.72606 38.899086 
L 674.684597 36.4984 
L 672.643133 34.845658 
L 670.60167 37.581583 
L 668.560207 43.510721 
L 666.518743 38.799354 
L 664.47728 37.595225 
L 662.435816 40.684891 
L 660.394353 38.056883 
L 658.352889 40.00526 
L 656.311426 33.88088 
L 654.269963 37.246315 
L 652.228499 29.602798 
L 650.187036 37.739003 
L 648.145572 35.139899 
L 646.104109 38.008385 
L 644.062646 36.5194 
L 642.021182 41.785996 
L 639.979719 35.018093 
L 637.938255 40.585418 
L 635.896792 36.603614 
L 633.855328 38.311036 
L 631.813865 35.343638 
L 629.772402 38.079844 
L 627.730938 44.205757 
L 625.689475 39.749881 
L 623.648011 41.748611 
L 621.606548 32.25529 
L 619.565085 37.698334 
L 617.523621 40.811281 
L 615.482158 33.669441 
L 613.440694 43.165908 
L 611.399231 44.580888 
L 609.357768 35.384499 
L 607.316304 36.319476 
L 605.274841 36.396608 
L 603.233377 33.617674 
L 601.191914 36.905116 
L 599.15045 36.861333 
L 597.108987 49.387925 
L 595.067524 42.260703 
L 593.02606 37.267898 
L 590.984597 38.395306 
L 588.943133 37.663869 
L 586.90167 35.129814 
L 584.860207 37.475459 
L 582.818743 36.176165 
L 580.77728 40.012544 
L 578.735816 37.681906 
L 576.694353 45.477175 
L 574.652889 47.56075 
L 572.611426 47.251102 
L 570.569963 49.942753 
L 568.528499 48.661213 
L 566.487036 51.855408 
L 564.445572 54.233256 
L 562.404109 58.557455 
L 560.362646 57.302797 
L 558.321182 61.974489 
L 556.279719 62.48724 
L 554.238255 70.113374 
L 552.196792 66.932617 
L 550.155328 65.763806 
L 548.113865 69.636024 
L 546.072402 71.979336 
L 544.030938 73.149376 
L 541.989475 77.913442 
L 539.948011 75.721638 
L 537.906548 79.21023 
L 535.865085 78.98199 
L 533.823621 80.526267 
L 531.782158 80.387475 
L 529.740694 79.733462 
L 527.699231 83.602876 
L 525.657768 88.44355 
L 523.616304 85.283322 
L 521.574841 88.453691 
L 519.533377 88.303383 
L 517.491914 90.469818 
L 515.45045 94.36164 
L 513.408987 94.169646 
L 511.367524 97.476219 
L 509.32606 98.964703 
L 507.284597 97.023434 
L 505.243133 99.493367 
L 503.20167 102.150909 
L 501.160207 103.646277 
L 499.118743 104.41202 
L 497.07728 106.547905 
L 495.035816 107.19164 
L 492.994353 109.958186 
L 490.952889 111.346212 
L 488.911426 112.637214 
L 486.869963 113.927125 
L 484.828499 111.390685 
L 482.787036 116.017916 
L 480.745572 118.392482 
L 478.704109 118.827638 
L 476.662646 119.76187 
L 474.621182 120.641564 
L 472.579719 122.558282 
L 470.538255 123.054468 
L 468.496792 125.501962 
L 466.455328 126.853472 
L 464.413865 127.313719 
L 462.372402 128.686229 
L 460.330938 130.306307 
L 458.289475 131.946568 
L 456.248011 135.589019 
L 454.206548 137.037619 
L 452.165085 139.203937 
L 450.123621 139.371466 
L 448.082158 141.479057 
L 446.040694 142.368149 
L 443.999231 143.614985 
L 441.957768 142.981722 
L 439.916304 147.860118 
L 437.874841 148.950837 
L 435.833377 150.100438 
L 433.791914 153.435552 
L 431.75045 154.029924 
L 429.708987 155.848442 
L 427.667524 155.574266 
L 425.62606 159.81171 
L 423.584597 159.361819 
L 421.543133 163.635016 
L 419.50167 166.578995 
L 417.460207 168.018892 
L 415.418743 171.764115 
L 413.37728 174.58819 
L 411.335816 175.438093 
L 409.294353 177.396129 
L 407.252889 178.636945 
L 405.211426 181.13946 
L 403.169963 181.333243 
L 401.128499 184.329689 
L 399.087036 186.677287 
L 397.045572 188.304744 
L 395.004109 189.603596 
L 392.962646 190.400381 
L 390.921182 193.833121 
L 388.879719 194.831272 
L 386.838255 196.781256 
L 384.796792 199.889918 
L 382.755328 201.129854 
L 380.713865 198.758589 
L 378.672402 199.617073 
L 376.630938 202.743714 
L 374.589475 203.19697 
L 372.548011 205.387191 
L 370.506548 207.031836 
L 368.465085 206.341952 
L 366.423621 206.891342 
L 364.382158 208.267186 
L 362.340694 210.518712 
L 360.299231 208.158286 
L 358.257768 209.002781 
L 356.216304 208.80186 
L 354.174841 211.755126 
L 352.133377 210.958892 
L 350.091914 209.482574 
L 348.05045 210.789286 
L 346.008987 212.434702 
L 343.967524 208.263303 
L 341.92606 211.919764 
L 339.884597 207.172456 
L 337.843133 206.8129 
L 335.80167 205.82917 
L 333.760207 206.717248 
L 331.718743 207.20583 
L 329.67728 207.588272 
L 327.635816 205.11635 
L 325.594353 207.113549 
L 323.552889 201.555554 
L 321.511426 195.476317 
L 319.469963 197.362475 
L 317.428499 200.486847 
L 315.387036 193.370263 
L 313.345572 194.255943 
L 311.304109 192.645939 
L 309.262646 192.345326 
L 307.221182 182.939348 
L 305.179719 182.064059 
L 303.138255 178.912797 
L 301.096792 171.198706 
L 299.055328 165.317041 
L 297.013865 171.733089 
L 294.972402 168.609846 
L 292.930938 162.931579 
L 290.889475 160.628427 
L 288.848011 156.615433 
L 286.806548 151.14993 
L 284.765085 153.266538 
L 282.723621 143.861189 
L 280.682158 138.972417 
L 278.640694 136.867556 
L 276.599231 135.187008 
L 274.557768 136.382551 
L 272.516304 134.342311 
L 270.474841 136.578337 
L 268.433377 139.484076 
L 266.391914 135.478321 
L 264.35045 135.496767 
L 262.308987 140.173951 
L 260.267524 141.641051 
L 258.22606 140.58111 
L 256.184597 149.782108 
L 254.143133 144.371472 
L 252.10167 147.08238 
L 250.060207 154.307273 
L 248.018743 153.188518 
L 245.97728 156.318783 
L 243.935816 159.220461 
L 241.894353 162.513374 
L 239.852889 165.697507 
L 237.811426 169.219064 
L 235.769963 172.546065 
L 233.728499 175.425757 
L 231.687036 179.530122 
L 229.645572 181.154859 
L 227.604109 187.230245 
L 225.562646 188.307643 
L 223.521182 191.787208 
L 221.479719 195.711908 
L 219.438255 198.866621 
L 217.396792 202.672781 
L 215.355328 205.650582 
L 213.313865 209.751687 
L 211.272402 212.582781 
L 209.230938 215.972133 
L 207.189475 219.525279 
L 205.148011 223.206611 
L 203.106548 225.8667 
L 201.065085 229.50149 
L 199.023621 232.11141 
L 196.982158 235.805026 
L 194.940694 238.79352 
L 192.899231 241.989665 
L 190.857768 245.103359 
L 188.816304 248.083431 
L 186.774841 250.775532 
L 184.733377 253.986831 
L 182.691914 256.091258 
L 180.65045 259.714861 
L 178.608987 262.511308 
L 176.567524 264.971897 
L 174.52606 267.853579 
L 172.484597 270.375327 
L 170.443133 272.614104 
L 168.40167 275.370497 
L 166.360207 278.257293 
L 164.318743 280.659654 
L 162.27728 282.941348 
L 160.235816 285.591208 
L 158.194353 287.781058 
L 156.152889 290.250551 
L 154.111426 292.407347 
L 152.069963 294.721991 
L 150.028499 296.611767 
L 147.987036 299.083717 
L 145.945572 300.965857 
L 143.904109 303.142195 
L 141.862646 305.56303 
L 139.821182 307.509779 
L 137.779719 308.670143 
L 135.738255 310.726498 
L 133.696792 312.117596 
L 131.655328 314.07704 
L 129.613865 316.363973 
L 127.572402 317.7996 
L 125.530938 319.190184 
L 123.489475 320.201332 
L 121.448011 321.600079 
L 119.406548 322.850943 
L 117.365085 324.127476 
L 115.323621 325.844101 
L 113.282158 327.170374 
L 111.240694 328.613798 
L 109.199231 329.01221 
L 107.157768 330.265609 
L 105.116304 330.295296 
L 103.074841 331.999467 
L 101.033377 333.050779 
L 98.991914 334.233178 
L 96.95045 333.290399 
L 94.908987 336.037559 
L 92.867524 336.581213 
L 90.82606 336.154739 
L 88.784597 336.528923 
L 86.743133 338.235853 
L 84.70167 340.572645 
L 82.660207 340.586031 
L 80.618743 341.203977 
L 78.57728 340.113755 
L 76.535816 341.050818 
L 74.494353 341.80601 
L 72.452889 343.393954 
L 70.411426 343.639245 
L 68.369963 343.99666 
L 66.328499 344.697622 
L 64.287036 345.844489 
L 62.245572 346.35364 
L 60.204109 347.127726 
L 58.162646 348.24782 
L 56.121182 348.295432 
L 54.079719 349.70939 
L 52.038255 350.297514 
L 49.996792 350.853667 
L 47.955328 351.917037 
L 45.913865 352.49102 
L 43.872402 353.475196 
L 41.830938 354.548851 
L 39.789475 354.94094 
L 37.748011 354.962593 
L 35.706548 355.247836 
L 33.665085 356.946771 
L 31.623621 356.971271 
L 29.582158 358.249743 
L 27.540694 358.562413 
L 25.499231 358.296538 
L 23.457768 359.755642 
L 21.416304 358.843525 
L 19.374841 359.011953 
L 17.333377 360.591157 
L 15.291914 359.58811 
L 13.25045 361.022192 
L 11.208987 361.662162 
L 9.167524 360.484991 
L 7.12606 356.813923 
L 5.084597 359.172416 
L 3.043133 358.138873 
L 1.00167 352.171317 
L -1.039793 357.145787 
L -3.081257 358.034326 
L -5.12272 352.515021 
L -7.164184 351.030619 
L -9.205647 353.588414 
L -11.247111 347.665077 
L -13.288574 337.711742 
L -15.330037 348.228831 
L -17.371501 352.521797 
L -19.412964 354.472022 
L -21.454428 340.536099 
L -23.495891 340.833239 
L -25.537354 333.844701 
L -27.578818 328.402674 
L -29.620281 338.351153 
L -31.661745 333.483674 
L -33.703208 323.806075 
L -35.744672 316.78682 
L -37.786135 316.47907 
L -39.827598 316.870383 
L -41.869062 314.785098 
L -43.910525 313.212913 
L -45.951989 316.088882 
L -47.993452 314.905488 
L -50.034915 311.662591 
L -52.076379 312.271229 
L -54.117842 310.387456 
L -56.159306 309.079684 
L -58.200769 308.189225 
L -60.242232 308.739121 
L -62.283696 308.640734 
L -64.325159 308.196556 
L -66.366623 308.50544 
L -68.408086 308.163452 
L -70.44955 308.264873 
L -72.491013 309.018799 
L -74.532476 309.359959 
L -76.57394 309.383608 
L -78.615403 309.495421 
L -80.656867 309.98204 
L -82.69833 309.969165 
L -84.739793 310.445042 
L -86.781257 311.216099 
L -88.82272 311.442048 
L -90.864184 311.356605 
L -92.905647 311.651985 
L -94.947111 311.974533 
L -96.988574 312.273484 
L -99.030037 312.555423 
L -101.071501 312.820541 
L -103.112964 313.431154 
L -105.154428 313.486058 
L -107.195891 313.837778 
L -109.237354 314.23001 
L -111.278818 314.515713 
L -113.320281 314.811572 
L -115.361745 314.994463 
L -117.403208 315.232434 
L -119.444672 315.724173 
L -121.486135 315.941139 
L -123.527598 316.276181 
L -125.569062 316.474697 
L -127.610525 316.761318 
L -129.651989 317.06643 
L -131.693452 317.381946 
L -133.734915 317.599338 
L -135.776379 317.921867 
L -137.817842 318.172094 
L -139.859306 318.465484 
L -141.900769 318.716478 
L -143.942232 318.996616 
L -145.983696 319.232827 
L -148.025159 319.511578 
L -150.066623 319.838658 
L -152.108086 320.018391 
L -154.14955 320.320577 
L -156.191013 320.542781 
L -158.232476 320.849833 
L -160.27394 320.998926 
L -162.315403 321.269286 
L -164.356867 321.516285 
L -166.39833 321.74046 
L -168.439793 321.97573 
L -170.481257 322.173941 
L -172.52272 322.453002 
L -174.564184 322.677885 
L -176.605647 322.815043 
L -178.647111 323.028487 
L -180.688574 323.240169 
L -182.730037 323.447741 
L -184.771501 323.635829 
L -186.812964 323.788961 
L -188.854428 323.982161 
L -190.895891 324.161851 
L -192.937354 324.339307 
L -194.978818 324.510213 
L -197.020281 324.688858 
L -199.061745 324.881751 
L -201.103208 324.999467 
L -203.144672 325.175204 
L -205.186135 325.337081 
L -207.227598 325.475062 
L -209.269062 325.624206 
L -211.310525 325.780014 
L -213.351989 325.918213 
L -215.393452 326.078042 
L -217.434915 326.190371 
L -219.476379 326.311255 
L -221.517842 326.457332 
L -223.559306 326.585566 
L -225.600769 326.687639 
L -227.642232 326.814328 
L -229.683696 326.897812 
L -231.725159 327.009498 
L -233.766623 327.150252 
L -235.808086 327.217833 
L -237.84955 327.334052 
L -239.891013 327.421928 
L -241.932476 327.529643 
L -243.97394 327.589229 
L -246.015403 327.719778 
L -248.056867 327.728329 
L -250.09833 327.781196 
L -252.139793 327.825913 
L -254.181257 327.885106 
L -256.22272 327.923253 
L -258.264184 327.974741 
L -260.305647 328.033906 
L -262.347111 328.114423 
L -264.388574 328.165811 
L -266.430037 328.202192 
L -268.471501 328.252342 
L -270.512964 328.310753 
L -272.554428 328.360468 
L -274.595891 328.422985 
L -276.637354 328.486808 
L -278.678818 328.538446 
L -280.720281 328.60113 
L -282.761745 328.668609 
L -284.803208 328.707886 
L -286.844672 328.760528 
L -288.886135 328.83677 
L -290.927598 328.90166 
L -292.969062 328.937461 
L -295.010525 329.014889 
L -297.051989 329.072226 
L -299.093452 329.114153 
L -301.134915 329.166975 
L -303.176379 329.211074 
L -305.217842 329.287971 
L -307.259306 329.324067 
L -309.300769 329.384696 
L -311.342232 329.44081 
L -313.383696 329.489296 
L -315.425159 329.527597 
L -317.466623 329.556217 
L -319.508086 329.592444 
L -321.54955 329.635496 
L -323.591013 329.65463 
L -325.632476 329.699255 
L -327.67394 329.724796 
L -329.715403 329.736633 
L -331.756867 329.776644 
L -333.79833 329.803805 
L -335.839793 329.813625 
L -337.881257 329.836383 
L -339.92272 329.860072 
L -341.964184 329.873994 
L -344.005647 329.891508 
L -346.047111 329.895088 
L -348.088574 329.91783 
L -350.130037 329.922844 
L -352.171501 329.933886 
L -354.212964 329.950696 
L -356.254428 329.953246 
L -358.295891 329.961142 
L -360.337354 329.993555 
L -362.378818 329.998054 
L -364.420281 330.019139 
L -366.461745 330.023264 
L -368.503208 330.050931 
L -370.544672 330.060375 
L -372.586135 330.073693 
L -374.627598 330.076903 
L -376.669062 330.076639 
L -378.710525 330.085482 
L -380.751989 330.103146 
L -382.793452 330.120132 
L -384.834915 330.127958 
L -386.876379 330.122966 
L -388.917842 330.146847 
L -390.959306 330.159579 
L -393.000769 330.19015 
z
" clip-path="url(#pec305d7ecd)" style="fill: #008000; fill-opacity: 0.3; stroke: #008000; stroke-opacity: 0.3"/>
   </g>
   <g id="matplotlib.axis_1">
    <g id="xtick_1">
     <g id="line2d_1">
      <defs>
       <path id="m65816641d4" d="M 0 0 
L 0 3.5 
" style="stroke: #000000; stroke-width: 0.8"/>
      </defs>
      <g>
       <use xlink:href="#m65816641d4" x="103.074841" y="395.28" style="stroke: #000000; stroke-width: 0.8"/>
      </g>
     </g>
     <g id="text_1">
      <!-- 2022-03-01 -->
      <g transform="translate(17.945813 495.213718) rotate(-45) scale(0.2 -0.2)">
       <defs>
        <path id="DejaVuSans-32" d="M 1228 531 
L 3431 531 
L 3431 0 
L 469 0 
L 469 531 
Q 828 903 1448 1529 
Q 2069 2156 2228 2338 
Q 2531 2678 2651 2914 
Q 2772 3150 2772 3378 
Q 2772 3750 2511 3984 
Q 2250 4219 1831 4219 
Q 1534 4219 1204 4116 
Q 875 4013 500 3803 
L 500 4441 
Q 881 4594 1212 4672 
Q 1544 4750 1819 4750 
Q 2544 4750 2975 4387 
Q 3406 4025 3406 3419 
Q 3406 3131 3298 2873 
Q 3191 2616 2906 2266 
Q 2828 2175 2409 1742 
Q 1991 1309 1228 531 
z
" transform="scale(0.015625)"/>
        <path id="DejaVuSans-30" d="M 2034 4250 
Q 1547 4250 1301 3770 
Q 1056 3291 1056 2328 
Q 1056 1369 1301 889 
Q 1547 409 2034 409 
Q 2525 409 2770 889 
Q 3016 1369 3016 2328 
Q 3016 3291 2770 3770 
Q 2525 4250 2034 4250 
z
M 2034 4750 
Q 2819 4750 3233 4129 
Q 3647 3509 3647 2328 
Q 3647 1150 3233 529 
Q 2819 -91 2034 -91 
Q 1250 -91 836 529 
Q 422 1150 422 2328 
Q 422 3509 836 4129 
Q 1250 4750 2034 4750 
z
" transform="scale(0.015625)"/>
        <path id="DejaVuSans-2d" d="M 313 2009 
L 1997 2009 
L 1997 1497 
L 313 1497 
L 313 2009 
z
" transform="scale(0.015625)"/>
        <path id="DejaVuSans-33" d="M 2597 2516 
Q 3050 2419 3304 2112 
Q 3559 1806 3559 1356 
Q 3559 666 3084 287 
Q 2609 -91 1734 -91 
Q 1441 -91 1130 -33 
Q 819 25 488 141 
L 488 750 
Q 750 597 1062 519 
Q 1375 441 1716 441 
Q 2309 441 2620 675 
Q 2931 909 2931 1356 
Q 2931 1769 2642 2001 
Q 2353 2234 1838 2234 
L 1294 2234 
L 1294 2753 
L 1863 2753 
Q 2328 2753 2575 2939 
Q 2822 3125 2822 3475 
Q 2822 3834 2567 4026 
Q 2313 4219 1838 4219 
Q 1578 4219 1281 4162 
Q 984 4106 628 3988 
L 628 4550 
Q 988 4650 1302 4700 
Q 1616 4750 1894 4750 
Q 2613 4750 3031 4423 
Q 3450 4097 3450 3541 
Q 3450 3153 3228 2886 
Q 3006 2619 2597 2516 
z
" transform="scale(0.015625)"/>
        <path id="DejaVuSans-31" d="M 794 531 
L 1825 531 
L 1825 4091 
L 703 3866 
L 703 4441 
L 1819 4666 
L 2450 4666 
L 2450 531 
L 3481 531 
L 3481 0 
L 794 0 
L 794 531 
z
" transform="scale(0.015625)"/>
       </defs>
       <use xlink:href="#DejaVuSans-32"/>
       <use xlink:href="#DejaVuSans-30" x="63.623047"/>
       <use xlink:href="#DejaVuSans-32" x="127.246094"/>
       <use xlink:href="#DejaVuSans-32" x="190.869141"/>
       <use xlink:href="#DejaVuSans-2d" x="254.492188"/>
       <use xlink:href="#DejaVuSans-30" x="290.576172"/>
       <use xlink:href="#DejaVuSans-33" x="354.199219"/>
       <use xlink:href="#DejaVuSans-2d" x="417.822266"/>
       <use xlink:href="#DejaVuSans-30" x="453.90625"/>
       <use xlink:href="#DejaVuSans-31" x="517.529297"/>
      </g>
     </g>
    </g>
    <g id="xtick_2">
     <g id="line2d_2">
      <g>
       <use xlink:href="#m65816641d4" x="160.235816" y="395.28" style="stroke: #000000; stroke-width: 0.8"/>
      </g>
     </g>
     <g id="text_2">
      <!-- 2022-03-29 -->
      <g transform="translate(75.106789 495.213718) rotate(-45) scale(0.2 -0.2)">
       <defs>
        <path id="DejaVuSans-39" d="M 703 97 
L 703 672 
Q 941 559 1184 500 
Q 1428 441 1663 441 
Q 2288 441 2617 861 
Q 2947 1281 2994 2138 
Q 2813 1869 2534 1725 
Q 2256 1581 1919 1581 
Q 1219 1581 811 2004 
Q 403 2428 403 3163 
Q 403 3881 828 4315 
Q 1253 4750 1959 4750 
Q 2769 4750 3195 4129 
Q 3622 3509 3622 2328 
Q 3622 1225 3098 567 
Q 2575 -91 1691 -91 
Q 1453 -91 1209 -44 
Q 966 3 703 97 
z
M 1959 2075 
Q 2384 2075 2632 2365 
Q 2881 2656 2881 3163 
Q 2881 3666 2632 3958 
Q 2384 4250 1959 4250 
Q 1534 4250 1286 3958 
Q 1038 3666 1038 3163 
Q 1038 2656 1286 2365 
Q 1534 2075 1959 2075 
z
" transform="scale(0.015625)"/>
       </defs>
       <use xlink:href="#DejaVuSans-32"/>
       <use xlink:href="#DejaVuSans-30" x="63.623047"/>
       <use xlink:href="#DejaVuSans-32" x="127.246094"/>
       <use xlink:href="#DejaVuSans-32" x="190.869141"/>
       <use xlink:href="#DejaVuSans-2d" x="254.492188"/>
       <use xlink:href="#DejaVuSans-30" x="290.576172"/>
       <use xlink:href="#DejaVuSans-33" x="354.199219"/>
       <use xlink:href="#DejaVuSans-2d" x="417.822266"/>
       <use xlink:href="#DejaVuSans-32" x="453.90625"/>
       <use xlink:href="#DejaVuSans-39" x="517.529297"/>
      </g>
     </g>
    </g>
    <g id="xtick_3">
     <g id="line2d_3">
      <g>
       <use xlink:href="#m65816641d4" x="217.396792" y="395.28" style="stroke: #000000; stroke-width: 0.8"/>
      </g>
     </g>
     <g id="text_3">
      <!-- 2022-04-26 -->
      <g transform="translate(132.267765 495.213718) rotate(-45) scale(0.2 -0.2)">
       <defs>
        <path id="DejaVuSans-34" d="M 2419 4116 
L 825 1625 
L 2419 1625 
L 2419 4116 
z
M 2253 4666 
L 3047 4666 
L 3047 1625 
L 3713 1625 
L 3713 1100 
L 3047 1100 
L 3047 0 
L 2419 0 
L 2419 1100 
L 313 1100 
L 313 1709 
L 2253 4666 
z
" transform="scale(0.015625)"/>
        <path id="DejaVuSans-36" d="M 2113 2584 
Q 1688 2584 1439 2293 
Q 1191 2003 1191 1497 
Q 1191 994 1439 701 
Q 1688 409 2113 409 
Q 2538 409 2786 701 
Q 3034 994 3034 1497 
Q 3034 2003 2786 2293 
Q 2538 2584 2113 2584 
z
M 3366 4563 
L 3366 3988 
Q 3128 4100 2886 4159 
Q 2644 4219 2406 4219 
Q 1781 4219 1451 3797 
Q 1122 3375 1075 2522 
Q 1259 2794 1537 2939 
Q 1816 3084 2150 3084 
Q 2853 3084 3261 2657 
Q 3669 2231 3669 1497 
Q 3669 778 3244 343 
Q 2819 -91 2113 -91 
Q 1303 -91 875 529 
Q 447 1150 447 2328 
Q 447 3434 972 4092 
Q 1497 4750 2381 4750 
Q 2619 4750 2861 4703 
Q 3103 4656 3366 4563 
z
" transform="scale(0.015625)"/>
       </defs>
       <use xlink:href="#DejaVuSans-32"/>
       <use xlink:href="#DejaVuSans-30" x="63.623047"/>
       <use xlink:href="#DejaVuSans-32" x="127.246094"/>
       <use xlink:href="#DejaVuSans-32" x="190.869141"/>
       <use xlink:href="#DejaVuSans-2d" x="254.492188"/>
       <use xlink:href="#DejaVuSans-30" x="290.576172"/>
       <use xlink:href="#DejaVuSans-34" x="354.199219"/>
       <use xlink:href="#DejaVuSans-2d" x="417.822266"/>
       <use xlink:href="#DejaVuSans-32" x="453.90625"/>
       <use xlink:href="#DejaVuSans-36" x="517.529297"/>
      </g>
     </g>
    </g>
    <g id="xtick_4">
     <g id="line2d_4">
      <g>
       <use xlink:href="#m65816641d4" x="274.557768" y="395.28" style="stroke: #000000; stroke-width: 0.8"/>
      </g>
     </g>
     <g id="text_4">
      <!-- 2022-05-24 -->
      <g transform="translate(189.42874 495.213718) rotate(-45) scale(0.2 -0.2)">
       <defs>
        <path id="DejaVuSans-35" d="M 691 4666 
L 3169 4666 
L 3169 4134 
L 1269 4134 
L 1269 2991 
Q 1406 3038 1543 3061 
Q 1681 3084 1819 3084 
Q 2600 3084 3056 2656 
Q 3513 2228 3513 1497 
Q 3513 744 3044 326 
Q 2575 -91 1722 -91 
Q 1428 -91 1123 -41 
Q 819 9 494 109 
L 494 744 
Q 775 591 1075 516 
Q 1375 441 1709 441 
Q 2250 441 2565 725 
Q 2881 1009 2881 1497 
Q 2881 1984 2565 2268 
Q 2250 2553 1709 2553 
Q 1456 2553 1204 2497 
Q 953 2441 691 2322 
L 691 4666 
z
" transform="scale(0.015625)"/>
       </defs>
       <use xlink:href="#DejaVuSans-32"/>
       <use xlink:href="#DejaVuSans-30" x="63.623047"/>
       <use xlink:href="#DejaVuSans-32" x="127.246094"/>
       <use xlink:href="#DejaVuSans-32" x="190.869141"/>
       <use xlink:href="#DejaVuSans-2d" x="254.492188"/>
       <use xlink:href="#DejaVuSans-30" x="290.576172"/>
       <use xlink:href="#DejaVuSans-35" x="354.199219"/>
       <use xlink:href="#DejaVuSans-2d" x="417.822266"/>
       <use xlink:href="#DejaVuSans-32" x="453.90625"/>
       <use xlink:href="#DejaVuSans-34" x="517.529297"/>
      </g>
     </g>
    </g>
    <g id="xtick_5">
     <g id="line2d_5">
      <g>
       <use xlink:href="#m65816641d4" x="331.718743" y="395.28" style="stroke: #000000; stroke-width: 0.8"/>
      </g>
     </g>
     <g id="text_5">
      <!-- 2022-06-21 -->
      <g transform="translate(246.589716 495.213718) rotate(-45) scale(0.2 -0.2)">
       <use xlink:href="#DejaVuSans-32"/>
       <use xlink:href="#DejaVuSans-30" x="63.623047"/>
       <use xlink:href="#DejaVuSans-32" x="127.246094"/>
       <use xlink:href="#DejaVuSans-32" x="190.869141"/>
       <use xlink:href="#DejaVuSans-2d" x="254.492188"/>
       <use xlink:href="#DejaVuSans-30" x="290.576172"/>
       <use xlink:href="#DejaVuSans-36" x="354.199219"/>
       <use xlink:href="#DejaVuSans-2d" x="417.822266"/>
       <use xlink:href="#DejaVuSans-32" x="453.90625"/>
       <use xlink:href="#DejaVuSans-31" x="517.529297"/>
      </g>
     </g>
    </g>
    <g id="xtick_6">
     <g id="line2d_6">
      <g>
       <use xlink:href="#m65816641d4" x="388.879719" y="395.28" style="stroke: #000000; stroke-width: 0.8"/>
      </g>
     </g>
     <g id="text_6">
      <!-- 2022-07-19 -->
      <g transform="translate(303.750691 495.213718) rotate(-45) scale(0.2 -0.2)">
       <defs>
        <path id="DejaVuSans-37" d="M 525 4666 
L 3525 4666 
L 3525 4397 
L 1831 0 
L 1172 0 
L 2766 4134 
L 525 4134 
L 525 4666 
z
" transform="scale(0.015625)"/>
       </defs>
       <use xlink:href="#DejaVuSans-32"/>
       <use xlink:href="#DejaVuSans-30" x="63.623047"/>
       <use xlink:href="#DejaVuSans-32" x="127.246094"/>
       <use xlink:href="#DejaVuSans-32" x="190.869141"/>
       <use xlink:href="#DejaVuSans-2d" x="254.492188"/>
       <use xlink:href="#DejaVuSans-30" x="290.576172"/>
       <use xlink:href="#DejaVuSans-37" x="354.199219"/>
       <use xlink:href="#DejaVuSans-2d" x="417.822266"/>
       <use xlink:href="#DejaVuSans-31" x="453.90625"/>
       <use xlink:href="#DejaVuSans-39" x="517.529297"/>
      </g>
     </g>
    </g>
    <g id="xtick_7">
     <g id="line2d_7">
      <g>
       <use xlink:href="#m65816641d4" x="446.040694" y="395.28" style="stroke: #000000; stroke-width: 0.8"/>
      </g>
     </g>
     <g id="text_7">
      <!-- 2022-08-16 -->
      <g transform="translate(360.911667 495.213718) rotate(-45) scale(0.2 -0.2)">
       <defs>
        <path id="DejaVuSans-38" d="M 2034 2216 
Q 1584 2216 1326 1975 
Q 1069 1734 1069 1313 
Q 1069 891 1326 650 
Q 1584 409 2034 409 
Q 2484 409 2743 651 
Q 3003 894 3003 1313 
Q 3003 1734 2745 1975 
Q 2488 2216 2034 2216 
z
M 1403 2484 
Q 997 2584 770 2862 
Q 544 3141 544 3541 
Q 544 4100 942 4425 
Q 1341 4750 2034 4750 
Q 2731 4750 3128 4425 
Q 3525 4100 3525 3541 
Q 3525 3141 3298 2862 
Q 3072 2584 2669 2484 
Q 3125 2378 3379 2068 
Q 3634 1759 3634 1313 
Q 3634 634 3220 271 
Q 2806 -91 2034 -91 
Q 1263 -91 848 271 
Q 434 634 434 1313 
Q 434 1759 690 2068 
Q 947 2378 1403 2484 
z
M 1172 3481 
Q 1172 3119 1398 2916 
Q 1625 2713 2034 2713 
Q 2441 2713 2670 2916 
Q 2900 3119 2900 3481 
Q 2900 3844 2670 4047 
Q 2441 4250 2034 4250 
Q 1625 4250 1398 4047 
Q 1172 3844 1172 3481 
z
" transform="scale(0.015625)"/>
       </defs>
       <use xlink:href="#DejaVuSans-32"/>
       <use xlink:href="#DejaVuSans-30" x="63.623047"/>
       <use xlink:href="#DejaVuSans-32" x="127.246094"/>
       <use xlink:href="#DejaVuSans-32" x="190.869141"/>
       <use xlink:href="#DejaVuSans-2d" x="254.492188"/>
       <use xlink:href="#DejaVuSans-30" x="290.576172"/>
       <use xlink:href="#DejaVuSans-38" x="354.199219"/>
       <use xlink:href="#DejaVuSans-2d" x="417.822266"/>
       <use xlink:href="#DejaVuSans-31" x="453.90625"/>
       <use xlink:href="#DejaVuSans-36" x="517.529297"/>
      </g>
     </g>
    </g>
    <g id="xtick_8">
     <g id="line2d_8">
      <g>
       <use xlink:href="#m65816641d4" x="503.20167" y="395.28" style="stroke: #000000; stroke-width: 0.8"/>
      </g>
     </g>
     <g id="text_8">
      <!-- 2022-09-13 -->
      <g transform="translate(418.072643 495.213718) rotate(-45) scale(0.2 -0.2)">
       <use xlink:href="#DejaVuSans-32"/>
       <use xlink:href="#DejaVuSans-30" x="63.623047"/>
       <use xlink:href="#DejaVuSans-32" x="127.246094"/>
       <use xlink:href="#DejaVuSans-32" x="190.869141"/>
       <use xlink:href="#DejaVuSans-2d" x="254.492188"/>
       <use xlink:href="#DejaVuSans-30" x="290.576172"/>
       <use xlink:href="#DejaVuSans-39" x="354.199219"/>
       <use xlink:href="#DejaVuSans-2d" x="417.822266"/>
       <use xlink:href="#DejaVuSans-31" x="453.90625"/>
       <use xlink:href="#DejaVuSans-33" x="517.529297"/>
      </g>
     </g>
    </g>
    <g id="xtick_9">
     <g id="line2d_9">
      <g>
       <use xlink:href="#m65816641d4" x="560.362646" y="395.28" style="stroke: #000000; stroke-width: 0.8"/>
      </g>
     </g>
     <g id="text_9">
      <!-- 2022-10-11 -->
      <g transform="translate(475.233618 495.213718) rotate(-45) scale(0.2 -0.2)">
       <use xlink:href="#DejaVuSans-32"/>
       <use xlink:href="#DejaVuSans-30" x="63.623047"/>
       <use xlink:href="#DejaVuSans-32" x="127.246094"/>
       <use xlink:href="#DejaVuSans-32" x="190.869141"/>
       <use xlink:href="#DejaVuSans-2d" x="254.492188"/>
       <use xlink:href="#DejaVuSans-31" x="290.576172"/>
       <use xlink:href="#DejaVuSans-30" x="354.199219"/>
       <use xlink:href="#DejaVuSans-2d" x="417.822266"/>
       <use xlink:href="#DejaVuSans-31" x="453.90625"/>
       <use xlink:href="#DejaVuSans-31" x="517.529297"/>
      </g>
     </g>
    </g>
    <g id="xtick_10">
     <g id="line2d_10">
      <g>
       <use xlink:href="#m65816641d4" x="617.523621" y="395.28" style="stroke: #000000; stroke-width: 0.8"/>
      </g>
     </g>
     <g id="text_10">
      <!-- 2022-11-08 -->
      <g transform="translate(532.394594 495.213718) rotate(-45) scale(0.2 -0.2)">
       <use xlink:href="#DejaVuSans-32"/>
       <use xlink:href="#DejaVuSans-30" x="63.623047"/>
       <use xlink:href="#DejaVuSans-32" x="127.246094"/>
       <use xlink:href="#DejaVuSans-32" x="190.869141"/>
       <use xlink:href="#DejaVuSans-2d" x="254.492188"/>
       <use xlink:href="#DejaVuSans-31" x="290.576172"/>
       <use xlink:href="#DejaVuSans-31" x="354.199219"/>
       <use xlink:href="#DejaVuSans-2d" x="417.822266"/>
       <use xlink:href="#DejaVuSans-30" x="453.90625"/>
       <use xlink:href="#DejaVuSans-38" x="517.529297"/>
      </g>
     </g>
    </g>
    <g id="xtick_11">
     <g id="line2d_11">
      <g>
       <use xlink:href="#m65816641d4" x="674.684597" y="395.28" style="stroke: #000000; stroke-width: 0.8"/>
      </g>
     </g>
     <g id="text_11">
      <!-- 2022-12-06 -->
      <g transform="translate(589.555569 495.213718) rotate(-45) scale(0.2 -0.2)">
       <use xlink:href="#DejaVuSans-32"/>
       <use xlink:href="#DejaVuSans-30" x="63.623047"/>
       <use xlink:href="#DejaVuSans-32" x="127.246094"/>
       <use xlink:href="#DejaVuSans-32" x="190.869141"/>
       <use xlink:href="#DejaVuSans-2d" x="254.492188"/>
       <use xlink:href="#DejaVuSans-31" x="290.576172"/>
       <use xlink:href="#DejaVuSans-32" x="354.199219"/>
       <use xlink:href="#DejaVuSans-2d" x="417.822266"/>
       <use xlink:href="#DejaVuSans-30" x="453.90625"/>
       <use xlink:href="#DejaVuSans-36" x="517.529297"/>
      </g>
     </g>
    </g>
    <g id="xtick_12">
     <g id="line2d_12">
      <g>
       <use xlink:href="#m65816641d4" x="731.845572" y="395.28" style="stroke: #000000; stroke-width: 0.8"/>
      </g>
     </g>
     <g id="text_12">
      <!-- 2023-01-03 -->
      <g transform="translate(646.716545 495.213718) rotate(-45) scale(0.2 -0.2)">
       <use xlink:href="#DejaVuSans-32"/>
       <use xlink:href="#DejaVuSans-30" x="63.623047"/>
       <use xlink:href="#DejaVuSans-32" x="127.246094"/>
       <use xlink:href="#DejaVuSans-33" x="190.869141"/>
       <use xlink:href="#DejaVuSans-2d" x="254.492188"/>
       <use xlink:href="#DejaVuSans-30" x="290.576172"/>
       <use xlink:href="#DejaVuSans-31" x="354.199219"/>
       <use xlink:href="#DejaVuSans-2d" x="417.822266"/>
       <use xlink:href="#DejaVuSans-30" x="453.90625"/>
       <use xlink:href="#DejaVuSans-33" x="517.529297"/>
      </g>
     </g>
    </g>
    <g id="xtick_13">
     <g id="line2d_13">
      <g>
       <use xlink:href="#m65816641d4" x="789.006548" y="395.28" style="stroke: #000000; stroke-width: 0.8"/>
      </g>
     </g>
     <g id="text_13">
      <!-- 2023-01-31 -->
      <g transform="translate(703.877521 495.213718) rotate(-45) scale(0.2 -0.2)">
       <use xlink:href="#DejaVuSans-32"/>
       <use xlink:href="#DejaVuSans-30" x="63.623047"/>
       <use xlink:href="#DejaVuSans-32" x="127.246094"/>
       <use xlink:href="#DejaVuSans-33" x="190.869141"/>
       <use xlink:href="#DejaVuSans-2d" x="254.492188"/>
       <use xlink:href="#DejaVuSans-30" x="290.576172"/>
       <use xlink:href="#DejaVuSans-31" x="354.199219"/>
       <use xlink:href="#DejaVuSans-2d" x="417.822266"/>
       <use xlink:href="#DejaVuSans-33" x="453.90625"/>
       <use xlink:href="#DejaVuSans-31" x="517.529297"/>
      </g>
     </g>
    </g>
    <g id="xtick_14">
     <g id="line2d_14">
      <g>
       <use xlink:href="#m65816641d4" x="846.167524" y="395.28" style="stroke: #000000; stroke-width: 0.8"/>
      </g>
     </g>
     <g id="text_14">
      <!-- 2023-02-28 -->
      <g transform="translate(761.038496 495.213718) rotate(-45) scale(0.2 -0.2)">
       <use xlink:href="#DejaVuSans-32"/>
       <use xlink:href="#DejaVuSans-30" x="63.623047"/>
       <use xlink:href="#DejaVuSans-32" x="127.246094"/>
       <use xlink:href="#DejaVuSans-33" x="190.869141"/>
       <use xlink:href="#DejaVuSans-2d" x="254.492188"/>
       <use xlink:href="#DejaVuSans-30" x="290.576172"/>
       <use xlink:href="#DejaVuSans-32" x="354.199219"/>
       <use xlink:href="#DejaVuSans-2d" x="417.822266"/>
       <use xlink:href="#DejaVuSans-32" x="453.90625"/>
       <use xlink:href="#DejaVuSans-38" x="517.529297"/>
      </g>
     </g>
    </g>
    <g id="xtick_15">
     <g id="line2d_15">
      <g>
       <use xlink:href="#m65816641d4" x="903.328499" y="395.28" style="stroke: #000000; stroke-width: 0.8"/>
      </g>
     </g>
     <g id="text_15">
      <!-- 2023-03-28 -->
      <g transform="translate(818.199472 495.213718) rotate(-45) scale(0.2 -0.2)">
       <use xlink:href="#DejaVuSans-32"/>
       <use xlink:href="#DejaVuSans-30" x="63.623047"/>
       <use xlink:href="#DejaVuSans-32" x="127.246094"/>
       <use xlink:href="#DejaVuSans-33" x="190.869141"/>
       <use xlink:href="#DejaVuSans-2d" x="254.492188"/>
       <use xlink:href="#DejaVuSans-30" x="290.576172"/>
       <use xlink:href="#DejaVuSans-33" x="354.199219"/>
       <use xlink:href="#DejaVuSans-2d" x="417.822266"/>
       <use xlink:href="#DejaVuSans-32" x="453.90625"/>
       <use xlink:href="#DejaVuSans-38" x="517.529297"/>
      </g>
     </g>
    </g>
    <g id="xtick_16">
     <g id="line2d_16">
      <g>
       <use xlink:href="#m65816641d4" x="940.074841" y="395.28" style="stroke: #000000; stroke-width: 0.8"/>
      </g>
     </g>
     <g id="text_16">
      <!-- 2023-04-15 -->
      <g transform="translate(854.945813 495.213718) rotate(-45) scale(0.2 -0.2)">
       <use xlink:href="#DejaVuSans-32"/>
       <use xlink:href="#DejaVuSans-30" x="63.623047"/>
       <use xlink:href="#DejaVuSans-32" x="127.246094"/>
       <use xlink:href="#DejaVuSans-33" x="190.869141"/>
       <use xlink:href="#DejaVuSans-2d" x="254.492188"/>
       <use xlink:href="#DejaVuSans-30" x="290.576172"/>
       <use xlink:href="#DejaVuSans-34" x="354.199219"/>
       <use xlink:href="#DejaVuSans-2d" x="417.822266"/>
       <use xlink:href="#DejaVuSans-31" x="453.90625"/>
       <use xlink:href="#DejaVuSans-35" x="517.529297"/>
      </g>
     </g>
    </g>
   </g>
   <g id="matplotlib.axis_2">
    <g id="ytick_1">
     <g id="line2d_17">
      <defs>
       <path id="macdcbf384f" d="M 0 0 
L -3.5 0 
" style="stroke: #000000; stroke-width: 0.8"/>
      </defs>
      <g>
       <use xlink:href="#macdcbf384f" x="103.074841" y="382.477026" style="stroke: #000000; stroke-width: 0.8"/>
      </g>
     </g>
     <g id="text_17">
      <!-- 0.05 -->
      <g transform="translate(34.784216 390.075464) scale(0.2 -0.2)">
       <defs>
        <path id="DejaVuSans-2212" d="M 678 2272 
L 4684 2272 
L 4684 1741 
L 678 1741 
L 678 2272 
z
" transform="scale(0.015625)"/>
        <path id="DejaVuSans-2e" d="M 684 794 
L 1344 794 
L 1344 0 
L 684 0 
L 684 794 
z
" transform="scale(0.015625)"/>
       </defs>
       <use xlink:href="#DejaVuSans-2212"/>
       <use xlink:href="#DejaVuSans-30" x="83.789062"/>
       <use xlink:href="#DejaVuSans-2e" x="147.412109"/>
       <use xlink:href="#DejaVuSans-30" x="179.199219"/>
       <use xlink:href="#DejaVuSans-35" x="242.822266"/>
      </g>
     </g>
    </g>
    <g id="ytick_2">
     <g id="line2d_18">
      <g>
       <use xlink:href="#macdcbf384f" x="103.074841" y="330.219939" style="stroke: #000000; stroke-width: 0.8"/>
      </g>
     </g>
     <g id="text_18">
      <!-- 0.00 -->
      <g transform="translate(51.543591 337.818376) scale(0.2 -0.2)">
       <use xlink:href="#DejaVuSans-30"/>
       <use xlink:href="#DejaVuSans-2e" x="63.623047"/>
       <use xlink:href="#DejaVuSans-30" x="95.410156"/>
       <use xlink:href="#DejaVuSans-30" x="159.033203"/>
      </g>
     </g>
    </g>
    <g id="ytick_3">
     <g id="line2d_19">
      <g>
       <use xlink:href="#macdcbf384f" x="103.074841" y="277.962851" style="stroke: #000000; stroke-width: 0.8"/>
      </g>
     </g>
     <g id="text_19">
      <!-- 0.05 -->
      <g transform="translate(51.543591 285.561289) scale(0.2 -0.2)">
       <use xlink:href="#DejaVuSans-30"/>
       <use xlink:href="#DejaVuSans-2e" x="63.623047"/>
       <use xlink:href="#DejaVuSans-30" x="95.410156"/>
       <use xlink:href="#DejaVuSans-35" x="159.033203"/>
      </g>
     </g>
    </g>
    <g id="ytick_4">
     <g id="line2d_20">
      <g>
       <use xlink:href="#macdcbf384f" x="103.074841" y="225.705764" style="stroke: #000000; stroke-width: 0.8"/>
      </g>
     </g>
     <g id="text_20">
      <!-- 0.10 -->
      <g transform="translate(51.543591 233.304201) scale(0.2 -0.2)">
       <use xlink:href="#DejaVuSans-30"/>
       <use xlink:href="#DejaVuSans-2e" x="63.623047"/>
       <use xlink:href="#DejaVuSans-31" x="95.410156"/>
       <use xlink:href="#DejaVuSans-30" x="159.033203"/>
      </g>
     </g>
    </g>
    <g id="ytick_5">
     <g id="line2d_21">
      <g>
       <use xlink:href="#macdcbf384f" x="103.074841" y="173.448676" style="stroke: #000000; stroke-width: 0.8"/>
      </g>
     </g>
     <g id="text_21">
      <!-- 0.15 -->
      <g transform="translate(51.543591 181.047114) scale(0.2 -0.2)">
       <use xlink:href="#DejaVuSans-30"/>
       <use xlink:href="#DejaVuSans-2e" x="63.623047"/>
       <use xlink:href="#DejaVuSans-31" x="95.410156"/>
       <use xlink:href="#DejaVuSans-35" x="159.033203"/>
      </g>
     </g>
    </g>
    <g id="ytick_6">
     <g id="line2d_22">
      <g>
       <use xlink:href="#macdcbf384f" x="103.074841" y="121.191589" style="stroke: #000000; stroke-width: 0.8"/>
      </g>
     </g>
     <g id="text_22">
      <!-- 0.20 -->
      <g transform="translate(51.543591 128.790026) scale(0.2 -0.2)">
       <use xlink:href="#DejaVuSans-30"/>
       <use xlink:href="#DejaVuSans-2e" x="63.623047"/>
       <use xlink:href="#DejaVuSans-32" x="95.410156"/>
       <use xlink:href="#DejaVuSans-30" x="159.033203"/>
      </g>
     </g>
    </g>
    <g id="ytick_7">
     <g id="line2d_23">
      <g>
       <use xlink:href="#macdcbf384f" x="103.074841" y="68.934501" style="stroke: #000000; stroke-width: 0.8"/>
      </g>
     </g>
     <g id="text_23">
      <!-- 0.25 -->
      <g transform="translate(51.543591 76.532939) scale(0.2 -0.2)">
       <use xlink:href="#DejaVuSans-30"/>
       <use xlink:href="#DejaVuSans-2e" x="63.623047"/>
       <use xlink:href="#DejaVuSans-32" x="95.410156"/>
       <use xlink:href="#DejaVuSans-35" x="159.033203"/>
      </g>
     </g>
    </g>
    <g id="ytick_8">
     <g id="line2d_24">
      <g>
       <use xlink:href="#macdcbf384f" x="103.074841" y="16.677413" style="stroke: #000000; stroke-width: 0.8"/>
      </g>
     </g>
     <g id="text_24">
      <!-- 0.30 -->
      <g transform="translate(51.543591 24.275851) scale(0.2 -0.2)">
       <use xlink:href="#DejaVuSans-30"/>
       <use xlink:href="#DejaVuSans-2e" x="63.623047"/>
       <use xlink:href="#DejaVuSans-33" x="95.410156"/>
       <use xlink:href="#DejaVuSans-30" x="159.033203"/>
      </g>
     </g>
    </g>
   </g>
   <g id="line2d_25">
    <path d="M 0 0 
" clip-path="url(#pec305d7ecd)" style="fill: none; stroke: #ffa500; stroke-width: 1.5; stroke-linecap: square"/>
   </g>
   <g id="line2d_26">
    <path d="M 103.074841 330.219939 
L 948.274841 330.219939 
" clip-path="url(#pec305d7ecd)" style="fill: none; stroke-dasharray: 7.4,3.2; stroke-dashoffset: 0; stroke: #000000; stroke-width: 2"/>
   </g>
   <g id="patch_3">
    <path d="M 103.074841 395.28 
L 103.074841 7.2 
" style="fill: none; stroke: #000000; stroke-width: 0.8; stroke-linejoin: miter; stroke-linecap: square"/>
   </g>
   <g id="patch_4">
    <path d="M 940.074841 395.28 
L 940.074841 7.2 
" style="fill: none; stroke: #000000; stroke-width: 0.8; stroke-linejoin: miter; stroke-linecap: square"/>
   </g>
   <g id="patch_5">
    <path d="M 103.074841 395.28 
L 940.074841 395.28 
" style="fill: none; stroke: #000000; stroke-width: 0.8; stroke-linejoin: miter; stroke-linecap: square"/>
   </g>
   <g id="patch_6">
    <path d="M 103.074841 7.2 
L 940.074841 7.2 
" style="fill: none; stroke: #000000; stroke-width: 0.8; stroke-linejoin: miter; stroke-linecap: square"/>
   </g>
  </g>
 </g>
 <defs>
  <clipPath id="pec305d7ecd">
   <rect x="103.074841" y="7.2" width="837" height="388.08"/>
  </clipPath>
 </defs>
</svg>
