<?xml version="1.0" encoding="utf-8" standalone="no"?>
<!DOCTYPE svg PUBLIC "-//W3C//DTD SVG 1.1//EN"
  "http://www.w3.org/Graphics/SVG/1.1/DTD/svg11.dtd">
<svg xmlns:xlink="http://www.w3.org/1999/xlink" width="947.274841pt" height="505.354841pt" viewBox="0 0 947.274841 505.354841" xmlns="http://www.w3.org/2000/svg" version="1.1">
 <metadata>
  <rdf:RDF xmlns:dc="http://purl.org/dc/elements/1.1/" xmlns:cc="http://creativecommons.org/ns#" xmlns:rdf="http://www.w3.org/1999/02/22-rdf-syntax-ns#">
   <cc:Work>
    <dc:type rdf:resource="http://purl.org/dc/dcmitype/StillImage"/>
    <dc:date>2023-11-12T23:20:31.371214</dc:date>
    <dc:format>image/svg+xml</dc:format>
    <dc:creator>
     <cc:Agent>
      <dc:title>Matplotlib v3.7.2, https://matplotlib.org/</dc:title>
     </cc:Agent>
    </dc:creator>
   </cc:Work>
  </rdf:RDF>
 </metadata>
 <defs>
  <style type="text/css">*{stroke-linejoin: round; stroke-linecap: butt}</style>
 </defs>
 <g id="figure_1">
  <g id="patch_1">
   <path d="M 0 505.354841 
L 947.274841 505.354841 
L 947.274841 -0 
L 0 -0 
z
" style="fill: #ffffff"/>
  </g>
  <g id="axes_1">
   <g id="patch_2">
    <path d="M 103.074841 395.28 
L 940.074841 395.28 
L 940.074841 7.2 
L 103.074841 7.2 
z
" style="fill: #ffffff"/>
   </g>
   <g id="PolyCollection_1">
    <path d="M -393.000769 370.213816 
L -393.000769 370.23524 
L -390.959306 370.12758 
L -388.917842 370.034049 
L -386.876379 369.915363 
L -384.834915 369.835723 
L -382.793452 369.736256 
L -380.751989 369.632196 
L -378.710525 369.529093 
L -376.669062 369.43208 
L -374.627598 369.346549 
L -372.586135 369.248004 
L -370.544672 369.144911 
L -368.503208 369.044669 
L -366.461745 368.922293 
L -364.420281 368.820279 
L -362.378818 368.70075 
L -360.337354 368.597997 
L -358.295891 368.460393 
L -356.254428 368.346643 
L -354.212964 368.23689 
L -352.171501 368.10764 
L -350.130037 367.981506 
L -348.088574 367.858062 
L -346.047111 367.709791 
L -344.005647 367.579524 
L -341.964184 367.427605 
L -339.92272 367.273745 
L -337.881257 367.103855 
L -335.839793 366.92925 
L -333.79833 366.758242 
L -331.756867 366.560688 
L -329.715403 366.337259 
L -327.67394 366.138288 
L -325.632476 365.912713 
L -323.591013 365.655475 
L -321.54955 365.415402 
L -319.508086 365.134675 
L -317.466623 364.849401 
L -315.425159 364.555532 
L -313.383696 364.24504 
L -311.342232 363.901061 
L -309.300769 363.53497 
L -307.259306 363.147196 
L -305.217842 362.773121 
L -303.176379 362.334436 
L -301.134915 361.916867 
L -299.093452 361.472099 
L -297.051989 361.025379 
L -295.010525 360.544712 
L -292.969062 360.02479 
L -290.927598 359.542594 
L -288.886135 359.006362 
L -286.844672 358.451806 
L -284.803208 357.90815 
L -282.761745 357.369662 
L -280.720281 356.786081 
L -278.678818 356.196138 
L -276.637354 355.607115 
L -274.595891 354.994061 
L -272.554428 354.373422 
L -270.512964 353.754622 
L -268.471501 353.114999 
L -266.430037 352.473865 
L -264.388574 351.842305 
L -262.347111 351.184995 
L -260.305647 350.482347 
L -258.264184 349.801179 
L -256.22272 349.121628 
L -254.181257 348.452459 
L -252.139793 347.756109 
L -250.09833 347.075718 
L -248.056867 346.383867 
L -246.015403 345.758511 
L -243.97394 345.023274 
L -241.932476 344.38477 
L -239.891013 343.686119 
L -237.84955 343.020144 
L -235.808086 342.327623 
L -233.766623 341.709395 
L -231.725159 341.001259 
L -229.683696 340.335113 
L -227.642232 339.711269 
L -225.600769 339.040105 
L -223.559306 338.404067 
L -221.517842 337.739147 
L -219.476379 337.065381 
L -217.434915 336.423215 
L -215.393452 335.793239 
L -213.351989 335.115686 
L -211.310525 334.463657 
L -209.269062 333.807221 
L -207.227598 333.161385 
L -205.186135 332.530419 
L -203.144672 331.882421 
L -201.103208 331.228262 
L -199.061745 330.637813 
L -197.020281 329.970987 
L -194.978818 329.331466 
L -192.937354 328.702145 
L -190.895891 328.072119 
L -188.854428 327.443714 
L -186.812964 326.807382 
L -184.771501 326.199682 
L -182.730037 325.568105 
L -180.688574 324.921229 
L -178.647111 324.267297 
L -176.605647 323.606439 
L -174.564184 322.986385 
L -172.52272 322.305884 
L -170.481257 321.581535 
L -168.439793 320.899946 
L -166.39833 320.182099 
L -164.356867 319.453497 
L -162.315403 318.685222 
L -160.27394 317.903405 
L -158.232476 317.17523 
L -156.191013 316.347304 
L -154.14955 315.559038 
L -152.108086 314.712152 
L -150.066623 313.932257 
L -148.025159 313.019059 
L -145.983696 312.123291 
L -143.942232 311.251746 
L -141.900769 310.36512 
L -139.859306 309.451569 
L -137.817842 308.49767 
L -135.776379 307.601878 
L -133.734915 306.579147 
L -131.693452 305.676585 
L -129.651989 304.624178 
L -127.610525 303.603256 
L -125.569062 302.605351 
L -123.527598 301.646677 
L -121.486135 300.531904 
L -119.444672 299.521866 
L -117.403208 298.244517 
L -115.361745 297.141251 
L -113.320281 296.110716 
L -111.278818 294.950007 
L -109.237354 293.759689 
L -107.195891 292.392841 
L -105.154428 291.109131 
L -103.112964 290.031718 
L -101.071501 288.344985 
L -99.030037 286.982268 
L -96.988574 285.589463 
L -94.947111 284.145016 
L -92.905647 282.504355 
L -90.864184 280.957752 
L -88.82272 279.778373 
L -86.781257 278.286109 
L -84.739793 275.865368 
L -82.69833 273.820569 
L -80.656867 272.294483 
L -78.615403 270.200187 
L -76.57394 268.451591 
L -74.532476 266.920027 
L -72.491013 264.625294 
L -70.44955 262.021637 
L -68.408086 260.494477 
L -66.366623 259.717586 
L -64.325159 257.896444 
L -62.283696 257.285003 
L -60.242232 256.133828 
L -58.200769 253.948368 
L -56.159306 254.092416 
L -54.117842 254.950883 
L -52.076379 256.798704 
L -50.034915 254.686139 
L -47.993452 258.829825 
L -45.951989 259.746699 
L -43.910525 254.143296 
L -41.869062 255.721376 
L -39.827598 258.195961 
L -37.786135 256.732216 
L -35.744672 256.431441 
L -33.703208 267.068137 
L -31.661745 282.196852 
L -29.620281 289.740476 
L -27.578818 273.358832 
L -25.537354 281.816846 
L -23.495891 292.8932 
L -21.454428 292.286299 
L -19.412964 314.803123 
L -17.371501 311.784663 
L -15.330037 304.958196 
L -13.288574 287.970231 
L -11.247111 304.02632 
L -9.205647 313.703209 
L -7.164184 309.730736 
L -5.12272 312.293119 
L -3.081257 321.435263 
L -1.039793 320.28583 
L 1.00167 312.513806 
L 3.043133 322.416647 
L 5.084597 324.435252 
L 7.12606 320.99077 
L 9.167524 327.308341 
L 11.208987 329.666539 
L 13.25045 329.125998 
L 15.291914 327.309789 
L 17.333377 329.442492 
L 19.374841 327.430162 
L 21.416304 327.697557 
L 23.457768 329.738491 
L 25.499231 327.983867 
L 27.540694 329.024764 
L 29.582158 329.162605 
L 31.623621 327.765121 
L 33.665085 328.401945 
L 35.706548 326.350472 
L 37.748011 326.585772 
L 39.789475 327.270241 
L 41.830938 327.39353 
L 43.872402 326.438583 
L 45.913865 325.636631 
L 47.955328 325.497077 
L 49.996792 324.599098 
L 52.038255 324.531189 
L 54.079719 324.427962 
L 56.121182 323.016123 
L 58.162646 323.796745 
L 60.204109 322.881199 
L 62.245572 322.519981 
L 64.287036 322.608111 
L 66.328499 321.698619 
L 68.369963 321.50937 
L 70.411426 321.875926 
L 72.452889 322.434613 
L 74.494353 320.875406 
L 76.535816 320.616366 
L 78.57728 320.102948 
L 80.618743 322.815728 
L 82.660207 322.840394 
L 84.70167 323.831993 
L 86.743133 321.156774 
L 88.784597 319.48515 
L 90.82606 319.923204 
L 92.867524 321.631752 
L 94.908987 321.817386 
L 96.95045 318.540807 
L 98.991914 321.074571 
L 101.033377 320.250646 
L 103.074841 319.641615 
L 105.116304 318.005608 
L 107.157768 318.998111 
L 109.199231 318.078903 
L 111.240694 318.513076 
L 113.282158 317.311941 
L 115.323621 316.295663 
L 117.365085 314.667823 
L 119.406548 313.732449 
L 121.448011 312.842161 
L 123.489475 311.717935 
L 125.530938 311.204362 
L 127.572402 310.099817 
L 129.613865 308.91934 
L 131.655328 306.409068 
L 133.696792 304.405206 
L 135.738255 303.279607 
L 137.779719 301.109599 
L 139.821182 300.334013 
L 141.862646 298.340464 
L 143.904109 295.607363 
L 145.945572 293.249645 
L 147.987036 291.343418 
L 150.028499 288.515443 
L 152.069963 286.585548 
L 154.111426 283.991927 
L 156.152889 281.637214 
L 158.194353 278.794101 
L 160.235816 276.364716 
L 162.27728 273.22788 
L 164.318743 270.660746 
L 166.360207 268.028699 
L 168.40167 264.637551 
L 170.443133 261.455872 
L 172.484597 258.953449 
L 174.52606 256.152616 
L 176.567524 252.777551 
L 178.608987 249.992991 
L 180.65045 246.711727 
L 182.691914 242.35185 
L 184.733377 240.228022 
L 186.774841 236.466632 
L 188.816304 233.408304 
L 190.857768 230.020166 
L 192.899231 226.345884 
L 194.940694 222.594767 
L 196.982158 219.11559 
L 199.023621 214.650514 
L 201.065085 211.760787 
L 203.106548 207.503017 
L 205.148011 204.581264 
L 207.189475 200.226397 
L 209.230938 195.976956 
L 211.272402 192.047888 
L 213.313865 188.792229 
L 215.355328 183.824947 
L 217.396792 180.261381 
L 219.438255 175.839352 
L 221.479719 172.205436 
L 223.521182 167.669087 
L 225.562646 163.611737 
L 227.604109 162.564713 
L 229.645572 155.190168 
L 231.687036 153.518805 
L 233.728499 148.794979 
L 235.769963 145.342864 
L 237.811426 141.38525 
L 239.852889 137.205235 
L 241.894353 133.366513 
L 243.935816 129.639959 
L 245.97728 126.096615 
L 248.018743 122.541976 
L 250.060207 124.076648 
L 252.10167 114.920677 
L 254.143133 112.140332 
L 256.184597 118.432905 
L 258.22606 107.543083 
L 260.267524 108.607592 
L 262.308987 106.849787 
L 264.35045 100.902537 
L 266.391914 101.211694 
L 268.433377 105.813356 
L 270.474841 101.440799 
L 272.516304 99.149057 
L 274.557768 101.863584 
L 276.599231 100.153763 
L 278.640694 101.896186 
L 280.682158 104.449184 
L 282.723621 109.15961 
L 284.765085 120.683069 
L 286.806548 117.548864 
L 288.848011 123.644906 
L 290.889475 128.647718 
L 292.930938 131.18845 
L 294.972402 139.382656 
L 297.013865 145.500468 
L 299.055328 135.552956 
L 301.096792 146.474871 
L 303.138255 159.967131 
L 305.179719 166.542913 
L 307.221182 169.626129 
L 309.262646 187.471144 
L 311.304109 189.038462 
L 313.345572 194.006145 
L 315.387036 192.852532 
L 317.428499 207.937836 
L 319.469963 203.450444 
L 321.511426 200.964127 
L 323.552889 213.8661 
L 325.594353 223.068735 
L 327.635816 222.41324 
L 329.67728 227.927743 
L 331.718743 229.805121 
L 333.760207 230.254612 
L 335.80167 230.371394 
L 337.843133 233.469026 
L 339.884597 235.266062 
L 341.92606 244.645482 
L 343.967524 239.997541 
L 346.008987 248.165486 
L 348.05045 246.438296 
L 350.091914 245.434398 
L 352.133377 248.78239 
L 354.174841 251.76882 
L 356.216304 248.15058 
L 358.257768 250.025516 
L 360.299231 250.194195 
L 362.340694 254.616725 
L 364.382158 252.481413 
L 366.423621 251.490436 
L 368.465085 252.751914 
L 370.506548 254.847711 
L 372.548011 253.783966 
L 374.589475 251.647497 
L 376.630938 252.763764 
L 378.672402 249.511124 
L 380.713865 249.758091 
L 382.755328 254.877502 
L 384.796792 254.4401 
L 386.838255 251.337316 
L 388.879719 250.440779 
L 390.921182 250.596603 
L 392.962646 247.21208 
L 395.004109 247.766664 
L 397.045572 247.524131 
L 399.087036 246.610019 
L 401.128499 245.502719 
L 403.169963 243.280275 
L 405.211426 244.182251 
L 407.252889 242.594076 
L 409.294353 242.034783 
L 411.335816 241.063634 
L 413.37728 240.882873 
L 415.418743 239.113054 
L 417.460207 236.121979 
L 419.50167 235.746545 
L 421.543133 233.279538 
L 423.584597 229.834714 
L 425.62606 231.960263 
L 427.667524 227.367517 
L 429.708987 228.988271 
L 431.75045 227.95584 
L 433.791914 228.077876 
L 435.833377 225.088402 
L 437.874841 224.718456 
L 439.916304 224.155784 
L 441.957768 220.51205 
L 443.999231 221.245771 
L 446.040694 220.805021 
L 448.082158 220.53803 
L 450.123621 218.754497 
L 452.165085 219.420752 
L 454.206548 217.601637 
L 456.248011 215.874313 
L 458.289475 213.20774 
L 460.330938 212.300568 
L 462.372402 211.679577 
L 464.413865 209.812546 
L 466.455328 210.013836 
L 468.496792 209.075209 
L 470.538255 207.421304 
L 472.579719 207.430774 
L 474.621182 205.570001 
L 476.662646 207.033792 
L 478.704109 205.73118 
L 480.745572 205.755957 
L 482.787036 203.469571 
L 484.828499 200.365536 
L 486.869963 202.95398 
L 488.911426 202.844184 
L 490.952889 201.822565 
L 492.994353 200.766895 
L 495.035816 198.609857 
L 497.07728 198.11477 
L 499.118743 196.92997 
L 501.160207 197.102432 
L 503.20167 196.655143 
L 505.243133 194.613085 
L 507.284597 191.716226 
L 509.32606 195.475365 
L 511.367524 194.579224 
L 513.408987 192.123854 
L 515.45045 193.687894 
L 517.491914 189.293628 
L 519.533377 189.83167 
L 521.574841 190.111493 
L 523.616304 187.130586 
L 525.657768 192.199177 
L 527.699231 187.108608 
L 529.740694 184.520638 
L 531.782158 187.830803 
L 533.823621 188.722451 
L 535.865085 187.096784 
L 537.906548 188.378678 
L 539.948011 186.036651 
L 541.989475 190.571866 
L 544.030938 188.252003 
L 546.072402 189.176876 
L 548.113865 186.065704 
L 550.155328 183.275919 
L 552.196792 186.797733 
L 554.238255 193.121583 
L 556.279719 185.880995 
L 558.321182 186.265893 
L 560.362646 183.547931 
L 562.404109 184.80149 
L 564.445572 184.422553 
L 566.487036 182.73493 
L 568.528499 182.094627 
L 570.569963 185.164151 
L 572.611426 183.541686 
L 574.652889 186.349939 
L 576.694353 186.869044 
L 578.735816 178.666661 
L 580.77728 182.05121 
L 582.818743 182.342531 
L 584.860207 182.928856 
L 586.90167 183.452308 
L 588.943133 188.722179 
L 590.984597 190.841391 
L 593.02606 190.628147 
L 595.067524 196.43817 
L 597.108987 206.045591 
L 599.15045 194.667541 
L 601.191914 194.568937 
L 603.233377 194.843428 
L 605.274841 198.671599 
L 607.316304 199.573001 
L 609.357768 199.578771 
L 611.399231 207.861855 
L 613.440694 210.935955 
L 615.482158 201.585536 
L 617.523621 210.09659 
L 619.565085 205.933524 
L 621.606548 203.35038 
L 623.648011 213.69529 
L 625.689475 211.662953 
L 627.730938 218.353368 
L 629.772402 216.348845 
L 631.813865 211.875913 
L 633.855328 216.086506 
L 635.896792 216.126293 
L 637.938255 220.265113 
L 639.979719 217.717102 
L 642.021182 224.518885 
L 644.062646 219.699809 
L 646.104109 223.315736 
L 648.145572 222.633692 
L 650.187036 226.610599 
L 652.228499 220.310393 
L 654.269963 227.143333 
L 656.311426 226.80754 
L 658.352889 231.492293 
L 660.394353 233.985095 
L 662.435816 234.044234 
L 664.47728 232.90468 
L 666.518743 235.937448 
L 668.560207 238.205844 
L 670.60167 236.268047 
L 672.643133 235.569931 
L 674.684597 238.237117 
L 676.72606 240.658133 
L 678.767524 236.574362 
L 680.808987 234.226222 
L 682.85045 243.691327 
L 684.891914 247.996581 
L 686.933377 238.390991 
L 688.974841 241.26893 
L 691.016304 242.731151 
L 693.057768 243.454985 
L 695.099231 248.332192 
L 697.140694 247.738179 
L 699.182158 245.79294 
L 701.223621 247.922152 
L 703.265085 248.530057 
L 705.306548 243.358143 
L 707.348011 246.017971 
L 709.389475 244.414616 
L 711.430938 251.636397 
L 713.472402 260.535145 
L 715.513865 259.304147 
L 717.555328 252.320637 
L 719.596792 251.602883 
L 721.638255 252.614065 
L 723.679719 252.991953 
L 725.721182 259.587869 
L 727.762646 251.310391 
L 729.804109 260.159268 
L 731.845572 267.310913 
L 733.887036 261.467718 
L 735.928499 270.639221 
L 737.969963 265.029773 
L 740.011426 270.056327 
L 742.052889 266.892532 
L 744.094353 269.405352 
L 746.135816 274.399489 
L 748.17728 274.183346 
L 750.218743 275.776062 
L 752.260207 276.288215 
L 754.30167 276.96837 
L 756.343133 265.276354 
L 758.384597 280.753958 
L 760.42606 287.215371 
L 762.467524 281.283971 
L 764.508987 287.030159 
L 766.55045 288.514227 
L 768.591914 285.559216 
L 770.633377 292.031818 
L 772.674841 296.559219 
L 774.716304 294.334949 
L 776.757768 296.251576 
L 778.799231 297.456857 
L 780.840694 299.259276 
L 782.882158 304.343119 
L 784.923621 294.994925 
L 786.965085 307.436382 
L 789.006548 308.20446 
L 791.048011 309.100416 
L 793.089475 301.980234 
L 795.130938 311.531171 
L 797.172402 318.088519 
L 799.213865 312.406162 
L 801.255328 313.602704 
L 803.296792 322.666684 
L 805.338255 308.314663 
L 807.379719 322.681187 
L 809.421182 314.532826 
L 811.462646 327.296877 
L 813.504109 322.291941 
L 815.545572 328.153911 
L 817.587036 330.413109 
L 819.628499 333.339472 
L 821.669963 334.729989 
L 823.711426 332.17691 
L 825.752889 332.966863 
L 827.794353 335.401365 
L 829.835816 341.61207 
L 831.87728 341.668784 
L 833.918743 342.354947 
L 835.960207 346.497315 
L 838.00167 347.420866 
L 840.043133 345.375903 
L 842.084597 346.2959 
L 844.12606 352.221854 
L 846.167524 353.706755 
L 848.208987 355.700016 
L 850.25045 352.420316 
L 852.291914 346.887557 
L 854.333377 354.275754 
L 856.374841 352.888155 
L 858.416304 355.38063 
L 860.457768 358.880123 
L 862.499231 355.750408 
L 864.540694 361.120576 
L 866.582158 358.269442 
L 868.623621 358.267305 
L 870.665085 358.576449 
L 872.706548 363.260748 
L 874.748011 362.760969 
L 876.789475 362.932594 
L 878.830938 360.407861 
L 880.872402 362.489752 
L 882.913865 363.7071 
L 884.955328 363.329162 
L 886.996792 366.504589 
L 889.038255 366.199686 
L 891.079719 368.098225 
L 893.121182 370.193395 
L 895.162646 370.34848 
L 897.204109 368.988222 
L 899.245572 369.625726 
L 901.287036 368.848251 
L 903.328499 370.399723 
L 905.369963 370.90847 
L 907.411426 369.103549 
L 909.452889 371.376061 
L 911.494353 361.834596 
L 913.535816 371.378288 
L 915.57728 374.893174 
L 917.618743 371.172961 
L 919.660207 371.080498 
L 921.70167 374.557102 
L 923.743133 374.556901 
L 925.784597 371.171802 
L 927.82606 370.921834 
L 929.867524 373.004715 
L 931.908987 372.101836 
L 933.95045 376.147001 
L 935.991914 374.53727 
L 938.033377 377.64 
L 940.074841 373.826504 
L 940.074841 365.131756 
L 940.074841 365.131756 
L 938.033377 361.637263 
L 935.991914 357.340253 
L 933.95045 362.264461 
L 931.908987 353.245696 
L 929.867524 355.849833 
L 927.82606 354.61386 
L 925.784597 345.045224 
L 923.743133 357.345139 
L 921.70167 363.967161 
L 919.660207 345.824961 
L 917.618743 353.662991 
L 915.57728 361.050628 
L 913.535816 356.009603 
L 911.494353 296.430849 
L 909.452889 354.037481 
L 907.411426 343.075367 
L 905.369963 354.469532 
L 903.328499 353.362226 
L 901.287036 348.695813 
L 899.245572 348.935029 
L 897.204109 347.645304 
L 895.162646 354.098818 
L 893.121182 354.152545 
L 891.079719 345.261084 
L 889.038255 339.348805 
L 886.996792 344.102713 
L 884.955328 335.589297 
L 882.913865 338.619604 
L 880.872402 333.487089 
L 878.830938 327.10626 
L 876.789475 335.510305 
L 874.748011 336.21506 
L 872.706548 336.006604 
L 870.665085 325.849984 
L 868.623621 323.494831 
L 866.582158 322.973075 
L 864.540694 334.376181 
L 862.499231 318.068394 
L 860.457768 328.721747 
L 858.416304 319.11703 
L 856.374841 311.736421 
L 854.333377 317.259978 
L 852.291914 291.332426 
L 850.25045 313.940328 
L 848.208987 322.914987 
L 846.167524 317.811398 
L 844.12606 315.160332 
L 842.084597 294.150211 
L 840.043133 294.595869 
L 838.00167 301.585611 
L 835.960207 300.675571 
L 833.918743 288.784635 
L 831.87728 288.836984 
L 829.835816 287.397876 
L 827.794353 275.827051 
L 825.752889 265.722029 
L 823.711426 263.239356 
L 821.669963 271.363696 
L 819.628499 268.53312 
L 817.587036 263.257893 
L 815.545572 257.851225 
L 813.504109 240.916153 
L 811.462646 257.135805 
L 809.421182 213.894891 
L 807.379719 242.691222 
L 805.338255 201.601317 
L 803.296792 245.65519 
L 801.255328 220.899451 
L 799.213865 220.20574 
L 797.172402 232.587237 
L 795.130938 217.491305 
L 793.089475 190.195604 
L 791.048011 209.913281 
L 789.006548 209.356134 
L 786.965085 208.29234 
L 784.923621 176.487252 
L 782.882158 192.032217 
L 780.840694 188.129816 
L 778.799231 185.819861 
L 776.757768 182.236681 
L 774.716304 175.502682 
L 772.674841 181.908902 
L 770.633377 170.057318 
L 768.591914 155.400025 
L 766.55045 167.359506 
L 764.508987 157.615065 
L 762.467524 148.980743 
L 760.42606 162.851327 
L 758.384597 147.599949 
L 756.343133 108.533991 
L 754.30167 136.874242 
L 752.260207 135.646304 
L 750.218743 135.658055 
L 748.17728 132.142769 
L 746.135816 132.227672 
L 744.094353 121.520485 
L 742.052889 117.105935 
L 740.011426 125.230223 
L 737.969963 109.746788 
L 735.928499 125.495017 
L 733.887036 103.990162 
L 731.845572 116.284667 
L 729.804109 101.949538 
L 727.762646 84.230207 
L 725.721182 100.432382 
L 723.679719 84.937588 
L 721.638255 85.991412 
L 719.596792 85.292595 
L 717.555328 86.79208 
L 715.513865 101.44194 
L 713.472402 104.924359 
L 711.430938 87.321379 
L 709.389475 69.302934 
L 707.348011 74.37486 
L 705.306548 70.750702 
L 703.265085 82.092403 
L 701.223621 80.932488 
L 699.182158 76.413074 
L 697.140694 82.331395 
L 695.099231 81.902431 
L 693.057768 72.771315 
L 691.016304 73.929018 
L 688.974841 70.430212 
L 686.933377 66.118226 
L 684.891914 86.887158 
L 682.85045 75.315788 
L 680.808987 59.436809 
L 678.767524 67.17613 
L 676.72606 74.104421 
L 674.684597 69.678037 
L 672.643133 66.294269 
L 670.60167 69.108177 
L 668.560207 76.433364 
L 666.518743 68.723776 
L 664.47728 65.961549 
L 662.435816 69.272904 
L 660.394353 64.494049 
L 658.352889 66.194546 
L 656.311426 56.4562 
L 654.269963 60.176161 
L 652.228499 48.276908 
L 650.187036 58.784356 
L 648.145572 54.051084 
L 646.104109 57.091401 
L 644.062646 53.949764 
L 642.021182 60.434182 
L 639.979719 49.80595 
L 637.938255 56.763206 
L 635.896792 50.127004 
L 633.855328 51.615868 
L 631.813865 46.453594 
L 629.772402 49.453945 
L 627.730938 57.317357 
L 625.689475 50.084316 
L 623.648011 52.090965 
L 621.606548 37.675977 
L 619.565085 44.633416 
L 617.523621 48.26613 
L 615.482158 37.22145 
L 613.440694 49.999347 
L 611.399231 51.198226 
L 609.357768 37.177303 
L 607.316304 37.67217 
L 605.274841 36.919036 
L 603.233377 32.044458 
L 601.191914 35.85406 
L 599.15045 34.849107 
L 597.108987 51.885756 
L 595.067524 40.639201 
L 593.02606 32.428936 
L 590.984597 32.988992 
L 588.943133 30.834149 
L 586.90167 26.046428 
L 584.860207 28.25896 
L 582.818743 25.177008 
L 580.77728 29.47651 
L 578.735816 24.84 
L 576.694353 34.813441 
L 574.652889 36.50833 
L 572.611426 34.721365 
L 570.569963 37.268366 
L 568.528499 34.039699 
L 566.487036 37.294175 
L 564.445572 39.358344 
L 562.404109 44.254617 
L 560.362646 41.050702 
L 558.321182 46.473857 
L 556.279719 45.855747 
L 554.238255 55.623483 
L 552.196792 49.656573 
L 550.155328 46.639943 
L 548.113865 51.004451 
L 546.072402 53.16229 
L 544.030938 53.630076 
L 541.989475 59.382638 
L 539.948011 54.979179 
L 537.906548 58.920512 
L 535.865085 57.43765 
L 533.823621 58.572671 
L 531.782158 57.25515 
L 529.740694 55.199327 
L 527.699231 59.800953 
L 525.657768 65.842279 
L 523.616304 60.129432 
L 521.574841 63.738171 
L 519.533377 62.464194 
L 517.491914 64.606705 
L 515.45045 69.296046 
L 513.408987 67.963529 
L 511.367524 71.794614 
L 509.32606 72.944019 
L 507.284597 69.024833 
L 505.243133 71.621842 
L 503.20167 74.492483 
L 501.160207 75.639819 
L 499.118743 75.701549 
L 497.07728 77.787237 
L 495.035816 77.653784 
L 492.994353 80.66302 
L 490.952889 81.619552 
L 488.911426 82.424614 
L 486.869963 83.224789 
L 484.828499 78.323514 
L 482.787036 84.072714 
L 480.745572 86.465815 
L 478.704109 85.986251 
L 476.662646 86.315223 
L 474.621182 86.495474 
L 472.579719 88.268482 
L 470.538255 87.870894 
L 468.496792 90.458238 
L 466.455328 91.447602 
L 464.413865 90.991061 
L 462.372402 92.015579 
L 460.330938 93.357378 
L 458.289475 94.74477 
L 456.248011 99.129539 
L 454.206548 100.258736 
L 452.165085 102.456321 
L 450.123621 101.540408 
L 448.082158 103.66886 
L 446.040694 104.002031 
L 443.999231 104.759323 
L 441.957768 102.738965 
L 439.916304 108.908141 
L 437.874841 109.600799 
L 435.833377 110.172034 
L 433.791914 113.963195 
L 431.75045 113.899834 
L 429.708987 115.597974 
L 427.667524 113.972211 
L 425.62606 119.145343 
L 423.584597 117.89355 
L 421.543133 122.899721 
L 419.50167 126.524828 
L 417.460207 127.737069 
L 415.418743 132.240728 
L 413.37728 135.812454 
L 411.335816 135.926413 
L 409.294353 138.213116 
L 407.252889 139.036426 
L 405.211426 141.95913 
L 403.169963 141.41816 
L 401.128499 145.390561 
L 399.087036 148.415137 
L 397.045572 150.295754 
L 395.004109 151.50422 
L 392.962646 152.5037 
L 390.921182 156.7554 
L 388.879719 157.917445 
L 386.838255 160.616822 
L 384.796792 164.492194 
L 382.755328 165.857696 
L 380.713865 162.758667 
L 378.672402 163.945884 
L 376.630938 168.152456 
L 374.589475 168.798112 
L 372.548011 171.73735 
L 370.506548 173.90428 
L 368.465085 172.986368 
L 366.423621 174.36961 
L 364.382158 176.058391 
L 362.340694 178.967153 
L 360.299231 176.046561 
L 358.257768 177.524222 
L 356.216304 177.676351 
L 354.174841 181.737448 
L 352.133377 181.389716 
L 350.091914 179.348731 
L 348.05045 181.567119 
L 346.008987 183.845808 
L 343.967524 178.333789 
L 341.92606 183.653401 
L 339.884597 177.154524 
L 337.843133 177.007673 
L 335.80167 175.829005 
L 333.760207 177.55827 
L 331.718743 178.179617 
L 329.67728 177.538403 
L 327.635816 174.54038 
L 325.594353 177.163938 
L 323.552889 169.93083 
L 321.511426 162.813306 
L 319.469963 164.878597 
L 317.428499 169.014615 
L 315.387036 158.783165 
L 313.345572 159.474919 
L 311.304109 156.914232 
L 309.262646 156.352604 
L 307.221182 142.333524 
L 305.179719 141.318591 
L 303.138255 136.289456 
L 301.096792 125.343719 
L 299.055328 117.598262 
L 297.013865 126.462038 
L 294.972402 122.632679 
L 292.930938 115.884409 
L 290.889475 113.041963 
L 288.848011 108.191657 
L 286.806548 101.83627 
L 284.765085 105.422702 
L 282.723621 93.187257 
L 280.682158 87.500821 
L 278.640694 84.49274 
L 276.599231 82.303669 
L 274.557768 84.169735 
L 272.516304 81.077405 
L 270.474841 84.128363 
L 268.433377 88.694553 
L 266.391914 82.886985 
L 264.35045 82.661265 
L 262.308987 89.429327 
L 260.267524 91.356828 
L 258.22606 89.587036 
L 256.184597 102.862524 
L 254.143133 94.637069 
L 252.10167 98.234263 
L 250.060207 108.686657 
L 248.018743 106.47646 
L 245.97728 110.692434 
L 243.935816 114.54475 
L 241.894353 118.983778 
L 239.852889 123.247478 
L 237.811426 128.006163 
L 235.769963 132.463276 
L 233.728499 136.229599 
L 231.687036 141.846787 
L 229.645572 143.410073 
L 227.604109 150.76788 
L 225.562646 151.596994 
L 223.521182 155.652282 
L 221.479719 160.091416 
L 219.438255 163.607262 
L 217.396792 167.836323 
L 215.355328 171.276354 
L 213.313865 176.002303 
L 211.272402 179.086537 
L 209.230938 182.716191 
L 207.189475 186.861595 
L 205.148011 191.068013 
L 203.106548 193.854342 
L 201.065085 197.921324 
L 199.023621 200.868821 
L 196.982158 205.019182 
L 194.940694 208.350834 
L 192.899231 211.657514 
L 190.857768 215.253105 
L 188.816304 218.49257 
L 186.774841 221.317545 
L 184.733377 224.821591 
L 182.691914 226.847729 
L 180.65045 231.038338 
L 178.608987 234.017706 
L 176.567524 236.693254 
L 174.52606 239.848597 
L 172.484597 241.955222 
L 170.443133 244.796496 
L 168.40167 247.695263 
L 166.360207 250.830781 
L 164.318743 253.323859 
L 162.27728 255.772918 
L 160.235816 258.399695 
L 158.194353 260.93049 
L 156.152889 263.620124 
L 154.111426 265.836979 
L 152.069963 268.206401 
L 150.028499 270.201108 
L 147.987036 272.812602 
L 145.945572 274.79055 
L 143.904109 276.974203 
L 141.862646 279.605166 
L 139.821182 281.513653 
L 137.779719 282.272632 
L 135.738255 284.446754 
L 133.696792 285.685496 
L 131.655328 287.773253 
L 129.613865 290.15304 
L 127.572402 291.485801 
L 125.530938 292.730897 
L 123.489475 293.135302 
L 121.448011 294.39701 
L 119.406548 295.209989 
L 117.365085 296.063793 
L 115.323621 297.736591 
L 113.282158 298.760914 
L 111.240694 300.160717 
L 109.199231 299.540302 
L 107.157768 300.332976 
L 105.116304 299.271753 
L 103.074841 301.105567 
L 101.033377 301.427787 
L 98.991914 302.766346 
L 96.95045 300.036309 
L 94.908987 303.392822 
L 92.867524 303.138548 
L 90.82606 301.222878 
L 88.784597 300.723925 
L 86.743133 302.427811 
L 84.70167 305.384556 
L 82.660207 304.195664 
L 80.618743 304.085696 
L 78.57728 301.020132 
L 76.535816 300.905565 
L 74.494353 301.685706 
L 72.452889 303.427226 
L 70.411426 302.72951 
L 68.369963 302.240126 
L 66.328499 302.412601 
L 64.287036 303.414622 
L 62.245572 303.027408 
L 60.204109 303.610648 
L 58.162646 304.662698 
L 56.121182 303.689632 
L 54.079719 305.269371 
L 52.038255 305.393388 
L 49.996792 305.458574 
L 47.955328 306.405249 
L 45.913865 306.538653 
L 43.872402 307.604099 
L 41.830938 308.782699 
L 39.789475 308.663749 
L 37.748011 307.992648 
L 35.706548 307.472338 
L 33.665085 310.12855 
L 31.623621 309.510841 
L 29.582158 311.255047 
L 27.540694 311.160533 
L 25.499231 310.312858 
L 23.457768 312.04405 
L 21.416304 310.191024 
L 19.374841 310.156004 
L 17.333377 312.395345 
L 15.291914 310.581436 
L 13.25045 312.696759 
L 11.208987 313.301507 
L 9.167524 311.31356 
L 7.12606 305.228713 
L 5.084597 308.953351 
L 3.043133 307.025158 
L 1.00167 298.034574 
L -1.039793 305.528791 
L -3.081257 306.997608 
L -5.12272 298.682952 
L -7.164184 296.347814 
L -9.205647 300.680222 
L -11.247111 291.677584 
L -13.288574 275.959454 
L -15.330037 293.136204 
L -17.371501 299.863481 
L -19.412964 303.16367 
L -21.454428 281.602528 
L -23.495891 282.456741 
L -25.537354 271.527602 
L -27.578818 262.975827 
L -29.620281 280.092589 
L -31.661745 272.72368 
L -33.703208 257.413168 
L -35.744672 246.662945 
L -37.786135 247.312714 
L -39.827598 249.174102 
L -41.869062 246.903296 
L -43.910525 245.577452 
L -45.951989 251.727825 
L -47.993452 251.012759 
L -50.034915 247.004978 
L -52.076379 249.475051 
L -54.117842 247.845758 
L -56.159306 247.252518 
L -58.200769 247.454073 
L -60.242232 249.896909 
L -62.283696 251.357981 
L -64.325159 252.218893 
L -66.366623 254.349492 
L -68.408086 255.377968 
L -70.44955 257.115335 
L -72.491013 259.823563 
L -74.532476 261.99127 
L -76.57394 263.459814 
L -78.615403 265.084637 
L -80.656867 267.217033 
L -82.69833 268.575462 
L -84.739793 270.619412 
L -86.781257 273.089581 
L -88.82272 274.584658 
L -90.864184 275.624247 
L -92.905647 277.167726 
L -94.947111 278.75012 
L -96.988574 280.187204 
L -99.030037 281.562025 
L -101.071501 282.887038 
L -103.112964 284.693522 
L -105.154428 285.645239 
L -107.195891 286.972892 
L -109.237354 288.36653 
L -111.278818 289.563637 
L -113.320281 290.744993 
L -115.361745 291.720529 
L -117.403208 292.776276 
L -119.444672 294.171872 
L -121.486135 295.153773 
L -123.527598 296.297605 
L -125.569062 297.228431 
L -127.610525 298.265426 
L -129.651989 299.328678 
L -131.693452 300.410478 
L -133.734915 301.310096 
L -135.776379 302.358548 
L -137.817842 303.280287 
L -139.859306 304.267319 
L -141.900769 305.186369 
L -143.942232 306.134352 
L -145.983696 307.018805 
L -148.025159 307.95986 
L -150.066623 308.964729 
L -152.108086 309.746345 
L -154.14955 310.689142 
L -156.191013 311.499566 
L -158.232476 312.438312 
L -160.27394 313.125222 
L -162.315403 313.998067 
L -164.356867 314.829961 
L -166.39833 315.622055 
L -168.439793 316.428305 
L -170.481257 317.174159 
L -172.52272 318.043356 
L -174.564184 318.825963 
L -176.605647 319.471269 
L -178.647111 320.236919 
L -180.688574 321.001555 
L -182.730037 321.762601 
L -184.771501 322.497002 
L -186.812964 323.181731 
L -188.854428 323.935158 
L -190.895891 324.673894 
L -192.937354 325.416696 
L -194.978818 326.157158 
L -197.020281 326.917593 
L -199.061745 327.707948 
L -201.103208 328.389475 
L -203.144672 329.169323 
L -205.186135 329.934847 
L -207.227598 330.670081 
L -209.269062 331.428584 
L -211.310525 332.202836 
L -213.351989 332.954393 
L -215.393452 333.742962 
L -217.434915 334.462861 
L -219.476379 335.197174 
L -221.517842 335.973267 
L -223.559306 336.723305 
L -225.600769 337.43567 
L -227.642232 338.189588 
L -229.683696 338.878165 
L -231.725159 339.614022 
L -233.766623 340.398078 
L -235.808086 341.072234 
L -237.84955 341.826218 
L -239.891013 342.54059 
L -241.932476 343.289592 
L -243.97394 343.968189 
L -246.015403 344.76066 
L -248.056867 345.41797 
L -250.09833 346.15478 
L -252.139793 346.876007 
L -254.181257 347.615524 
L -256.22272 348.318605 
L -258.264184 349.034695 
L -260.305647 349.753812 
L -262.347111 350.49697 
L -264.388574 351.187619 
L -266.430037 351.836701 
L -268.471501 352.484802 
L -270.512964 353.136761 
L -272.554428 353.766559 
L -274.595891 354.406822 
L -276.637354 355.039282 
L -278.678818 355.643494 
L -280.720281 356.254487 
L -282.761745 356.862073 
L -284.803208 357.415508 
L -286.844672 357.977997 
L -288.886135 358.564336 
L -290.927598 359.120126 
L -292.969062 359.61794 
L -295.010525 360.165437 
L -297.051989 360.666232 
L -299.093452 361.128057 
L -301.134915 361.589862 
L -303.176379 362.021942 
L -305.217842 362.487089 
L -307.259306 362.872501 
L -309.300769 363.27916 
L -311.342232 363.66222 
L -313.383696 364.017546 
L -315.425159 364.341734 
L -317.466623 364.636741 
L -319.508086 364.929749 
L -321.54955 365.220134 
L -323.591013 365.461455 
L -325.632476 365.730301 
L -327.67394 365.958656 
L -329.715403 366.156064 
L -331.756867 366.386639 
L -333.79833 366.588782 
L -335.839793 366.756738 
L -337.881257 366.936659 
L -339.92272 367.111635 
L -341.964184 367.265882 
L -344.005647 367.420616 
L -346.047111 367.549161 
L -348.088574 367.703742 
L -350.130037 367.827358 
L -352.171501 367.957098 
L -354.212964 368.093054 
L -356.254428 368.204483 
L -358.295891 368.322333 
L -360.337354 368.475578 
L -362.378818 368.584644 
L -364.420281 368.717708 
L -366.461745 368.823574 
L -368.503208 368.96354 
L -370.544672 369.074784 
L -372.586135 369.192224 
L -374.627598 369.295057 
L -376.669062 369.38822 
L -378.710525 369.494406 
L -380.751989 369.611076 
L -382.793452 369.724621 
L -384.834915 369.821428 
L -386.876379 369.899696 
L -388.917842 370.011633 
L -390.959306 370.103544 
L -393.000769 370.213816 
z
" clip-path="url(#pfa1b0946ec)" style="fill: #008000; fill-opacity: 0.3; stroke: #008000; stroke-opacity: 0.3"/>
   </g>
   <g id="matplotlib.axis_1">
    <g id="xtick_1">
     <g id="line2d_1">
      <defs>
       <path id="m3fb7713609" d="M 0 0 
L 0 3.5 
" style="stroke: #000000; stroke-width: 0.8"/>
      </defs>
      <g>
       <use xlink:href="#m3fb7713609" x="103.074841" y="395.28" style="stroke: #000000; stroke-width: 0.8"/>
      </g>
     </g>
     <g id="text_1">
      <!-- 2022-03-01 -->
      <g transform="translate(17.945813 495.213718) rotate(-45) scale(0.2 -0.2)">
       <defs>
        <path id="DejaVuSans-32" d="M 1228 531 
L 3431 531 
L 3431 0 
L 469 0 
L 469 531 
Q 828 903 1448 1529 
Q 2069 2156 2228 2338 
Q 2531 2678 2651 2914 
Q 2772 3150 2772 3378 
Q 2772 3750 2511 3984 
Q 2250 4219 1831 4219 
Q 1534 4219 1204 4116 
Q 875 4013 500 3803 
L 500 4441 
Q 881 4594 1212 4672 
Q 1544 4750 1819 4750 
Q 2544 4750 2975 4387 
Q 3406 4025 3406 3419 
Q 3406 3131 3298 2873 
Q 3191 2616 2906 2266 
Q 2828 2175 2409 1742 
Q 1991 1309 1228 531 
z
" transform="scale(0.015625)"/>
        <path id="DejaVuSans-30" d="M 2034 4250 
Q 1547 4250 1301 3770 
Q 1056 3291 1056 2328 
Q 1056 1369 1301 889 
Q 1547 409 2034 409 
Q 2525 409 2770 889 
Q 3016 1369 3016 2328 
Q 3016 3291 2770 3770 
Q 2525 4250 2034 4250 
z
M 2034 4750 
Q 2819 4750 3233 4129 
Q 3647 3509 3647 2328 
Q 3647 1150 3233 529 
Q 2819 -91 2034 -91 
Q 1250 -91 836 529 
Q 422 1150 422 2328 
Q 422 3509 836 4129 
Q 1250 4750 2034 4750 
z
" transform="scale(0.015625)"/>
        <path id="DejaVuSans-2d" d="M 313 2009 
L 1997 2009 
L 1997 1497 
L 313 1497 
L 313 2009 
z
" transform="scale(0.015625)"/>
        <path id="DejaVuSans-33" d="M 2597 2516 
Q 3050 2419 3304 2112 
Q 3559 1806 3559 1356 
Q 3559 666 3084 287 
Q 2609 -91 1734 -91 
Q 1441 -91 1130 -33 
Q 819 25 488 141 
L 488 750 
Q 750 597 1062 519 
Q 1375 441 1716 441 
Q 2309 441 2620 675 
Q 2931 909 2931 1356 
Q 2931 1769 2642 2001 
Q 2353 2234 1838 2234 
L 1294 2234 
L 1294 2753 
L 1863 2753 
Q 2328 2753 2575 2939 
Q 2822 3125 2822 3475 
Q 2822 3834 2567 4026 
Q 2313 4219 1838 4219 
Q 1578 4219 1281 4162 
Q 984 4106 628 3988 
L 628 4550 
Q 988 4650 1302 4700 
Q 1616 4750 1894 4750 
Q 2613 4750 3031 4423 
Q 3450 4097 3450 3541 
Q 3450 3153 3228 2886 
Q 3006 2619 2597 2516 
z
" transform="scale(0.015625)"/>
        <path id="DejaVuSans-31" d="M 794 531 
L 1825 531 
L 1825 4091 
L 703 3866 
L 703 4441 
L 1819 4666 
L 2450 4666 
L 2450 531 
L 3481 531 
L 3481 0 
L 794 0 
L 794 531 
z
" transform="scale(0.015625)"/>
       </defs>
       <use xlink:href="#DejaVuSans-32"/>
       <use xlink:href="#DejaVuSans-30" x="63.623047"/>
       <use xlink:href="#DejaVuSans-32" x="127.246094"/>
       <use xlink:href="#DejaVuSans-32" x="190.869141"/>
       <use xlink:href="#DejaVuSans-2d" x="254.492188"/>
       <use xlink:href="#DejaVuSans-30" x="290.576172"/>
       <use xlink:href="#DejaVuSans-33" x="354.199219"/>
       <use xlink:href="#DejaVuSans-2d" x="417.822266"/>
       <use xlink:href="#DejaVuSans-30" x="453.90625"/>
       <use xlink:href="#DejaVuSans-31" x="517.529297"/>
      </g>
     </g>
    </g>
    <g id="xtick_2">
     <g id="line2d_2">
      <g>
       <use xlink:href="#m3fb7713609" x="160.235816" y="395.28" style="stroke: #000000; stroke-width: 0.8"/>
      </g>
     </g>
     <g id="text_2">
      <!-- 2022-03-29 -->
      <g transform="translate(75.106789 495.213718) rotate(-45) scale(0.2 -0.2)">
       <defs>
        <path id="DejaVuSans-39" d="M 703 97 
L 703 672 
Q 941 559 1184 500 
Q 1428 441 1663 441 
Q 2288 441 2617 861 
Q 2947 1281 2994 2138 
Q 2813 1869 2534 1725 
Q 2256 1581 1919 1581 
Q 1219 1581 811 2004 
Q 403 2428 403 3163 
Q 403 3881 828 4315 
Q 1253 4750 1959 4750 
Q 2769 4750 3195 4129 
Q 3622 3509 3622 2328 
Q 3622 1225 3098 567 
Q 2575 -91 1691 -91 
Q 1453 -91 1209 -44 
Q 966 3 703 97 
z
M 1959 2075 
Q 2384 2075 2632 2365 
Q 2881 2656 2881 3163 
Q 2881 3666 2632 3958 
Q 2384 4250 1959 4250 
Q 1534 4250 1286 3958 
Q 1038 3666 1038 3163 
Q 1038 2656 1286 2365 
Q 1534 2075 1959 2075 
z
" transform="scale(0.015625)"/>
       </defs>
       <use xlink:href="#DejaVuSans-32"/>
       <use xlink:href="#DejaVuSans-30" x="63.623047"/>
       <use xlink:href="#DejaVuSans-32" x="127.246094"/>
       <use xlink:href="#DejaVuSans-32" x="190.869141"/>
       <use xlink:href="#DejaVuSans-2d" x="254.492188"/>
       <use xlink:href="#DejaVuSans-30" x="290.576172"/>
       <use xlink:href="#DejaVuSans-33" x="354.199219"/>
       <use xlink:href="#DejaVuSans-2d" x="417.822266"/>
       <use xlink:href="#DejaVuSans-32" x="453.90625"/>
       <use xlink:href="#DejaVuSans-39" x="517.529297"/>
      </g>
     </g>
    </g>
    <g id="xtick_3">
     <g id="line2d_3">
      <g>
       <use xlink:href="#m3fb7713609" x="217.396792" y="395.28" style="stroke: #000000; stroke-width: 0.8"/>
      </g>
     </g>
     <g id="text_3">
      <!-- 2022-04-26 -->
      <g transform="translate(132.267765 495.213718) rotate(-45) scale(0.2 -0.2)">
       <defs>
        <path id="DejaVuSans-34" d="M 2419 4116 
L 825 1625 
L 2419 1625 
L 2419 4116 
z
M 2253 4666 
L 3047 4666 
L 3047 1625 
L 3713 1625 
L 3713 1100 
L 3047 1100 
L 3047 0 
L 2419 0 
L 2419 1100 
L 313 1100 
L 313 1709 
L 2253 4666 
z
" transform="scale(0.015625)"/>
        <path id="DejaVuSans-36" d="M 2113 2584 
Q 1688 2584 1439 2293 
Q 1191 2003 1191 1497 
Q 1191 994 1439 701 
Q 1688 409 2113 409 
Q 2538 409 2786 701 
Q 3034 994 3034 1497 
Q 3034 2003 2786 2293 
Q 2538 2584 2113 2584 
z
M 3366 4563 
L 3366 3988 
Q 3128 4100 2886 4159 
Q 2644 4219 2406 4219 
Q 1781 4219 1451 3797 
Q 1122 3375 1075 2522 
Q 1259 2794 1537 2939 
Q 1816 3084 2150 3084 
Q 2853 3084 3261 2657 
Q 3669 2231 3669 1497 
Q 3669 778 3244 343 
Q 2819 -91 2113 -91 
Q 1303 -91 875 529 
Q 447 1150 447 2328 
Q 447 3434 972 4092 
Q 1497 4750 2381 4750 
Q 2619 4750 2861 4703 
Q 3103 4656 3366 4563 
z
" transform="scale(0.015625)"/>
       </defs>
       <use xlink:href="#DejaVuSans-32"/>
       <use xlink:href="#DejaVuSans-30" x="63.623047"/>
       <use xlink:href="#DejaVuSans-32" x="127.246094"/>
       <use xlink:href="#DejaVuSans-32" x="190.869141"/>
       <use xlink:href="#DejaVuSans-2d" x="254.492188"/>
       <use xlink:href="#DejaVuSans-30" x="290.576172"/>
       <use xlink:href="#DejaVuSans-34" x="354.199219"/>
       <use xlink:href="#DejaVuSans-2d" x="417.822266"/>
       <use xlink:href="#DejaVuSans-32" x="453.90625"/>
       <use xlink:href="#DejaVuSans-36" x="517.529297"/>
      </g>
     </g>
    </g>
    <g id="xtick_4">
     <g id="line2d_4">
      <g>
       <use xlink:href="#m3fb7713609" x="274.557768" y="395.28" style="stroke: #000000; stroke-width: 0.8"/>
      </g>
     </g>
     <g id="text_4">
      <!-- 2022-05-24 -->
      <g transform="translate(189.42874 495.213718) rotate(-45) scale(0.2 -0.2)">
       <defs>
        <path id="DejaVuSans-35" d="M 691 4666 
L 3169 4666 
L 3169 4134 
L 1269 4134 
L 1269 2991 
Q 1406 3038 1543 3061 
Q 1681 3084 1819 3084 
Q 2600 3084 3056 2656 
Q 3513 2228 3513 1497 
Q 3513 744 3044 326 
Q 2575 -91 1722 -91 
Q 1428 -91 1123 -41 
Q 819 9 494 109 
L 494 744 
Q 775 591 1075 516 
Q 1375 441 1709 441 
Q 2250 441 2565 725 
Q 2881 1009 2881 1497 
Q 2881 1984 2565 2268 
Q 2250 2553 1709 2553 
Q 1456 2553 1204 2497 
Q 953 2441 691 2322 
L 691 4666 
z
" transform="scale(0.015625)"/>
       </defs>
       <use xlink:href="#DejaVuSans-32"/>
       <use xlink:href="#DejaVuSans-30" x="63.623047"/>
       <use xlink:href="#DejaVuSans-32" x="127.246094"/>
       <use xlink:href="#DejaVuSans-32" x="190.869141"/>
       <use xlink:href="#DejaVuSans-2d" x="254.492188"/>
       <use xlink:href="#DejaVuSans-30" x="290.576172"/>
       <use xlink:href="#DejaVuSans-35" x="354.199219"/>
       <use xlink:href="#DejaVuSans-2d" x="417.822266"/>
       <use xlink:href="#DejaVuSans-32" x="453.90625"/>
       <use xlink:href="#DejaVuSans-34" x="517.529297"/>
      </g>
     </g>
    </g>
    <g id="xtick_5">
     <g id="line2d_5">
      <g>
       <use xlink:href="#m3fb7713609" x="331.718743" y="395.28" style="stroke: #000000; stroke-width: 0.8"/>
      </g>
     </g>
     <g id="text_5">
      <!-- 2022-06-21 -->
      <g transform="translate(246.589716 495.213718) rotate(-45) scale(0.2 -0.2)">
       <use xlink:href="#DejaVuSans-32"/>
       <use xlink:href="#DejaVuSans-30" x="63.623047"/>
       <use xlink:href="#DejaVuSans-32" x="127.246094"/>
       <use xlink:href="#DejaVuSans-32" x="190.869141"/>
       <use xlink:href="#DejaVuSans-2d" x="254.492188"/>
       <use xlink:href="#DejaVuSans-30" x="290.576172"/>
       <use xlink:href="#DejaVuSans-36" x="354.199219"/>
       <use xlink:href="#DejaVuSans-2d" x="417.822266"/>
       <use xlink:href="#DejaVuSans-32" x="453.90625"/>
       <use xlink:href="#DejaVuSans-31" x="517.529297"/>
      </g>
     </g>
    </g>
    <g id="xtick_6">
     <g id="line2d_6">
      <g>
       <use xlink:href="#m3fb7713609" x="388.879719" y="395.28" style="stroke: #000000; stroke-width: 0.8"/>
      </g>
     </g>
     <g id="text_6">
      <!-- 2022-07-19 -->
      <g transform="translate(303.750691 495.213718) rotate(-45) scale(0.2 -0.2)">
       <defs>
        <path id="DejaVuSans-37" d="M 525 4666 
L 3525 4666 
L 3525 4397 
L 1831 0 
L 1172 0 
L 2766 4134 
L 525 4134 
L 525 4666 
z
" transform="scale(0.015625)"/>
       </defs>
       <use xlink:href="#DejaVuSans-32"/>
       <use xlink:href="#DejaVuSans-30" x="63.623047"/>
       <use xlink:href="#DejaVuSans-32" x="127.246094"/>
       <use xlink:href="#DejaVuSans-32" x="190.869141"/>
       <use xlink:href="#DejaVuSans-2d" x="254.492188"/>
       <use xlink:href="#DejaVuSans-30" x="290.576172"/>
       <use xlink:href="#DejaVuSans-37" x="354.199219"/>
       <use xlink:href="#DejaVuSans-2d" x="417.822266"/>
       <use xlink:href="#DejaVuSans-31" x="453.90625"/>
       <use xlink:href="#DejaVuSans-39" x="517.529297"/>
      </g>
     </g>
    </g>
    <g id="xtick_7">
     <g id="line2d_7">
      <g>
       <use xlink:href="#m3fb7713609" x="446.040694" y="395.28" style="stroke: #000000; stroke-width: 0.8"/>
      </g>
     </g>
     <g id="text_7">
      <!-- 2022-08-16 -->
      <g transform="translate(360.911667 495.213718) rotate(-45) scale(0.2 -0.2)">
       <defs>
        <path id="DejaVuSans-38" d="M 2034 2216 
Q 1584 2216 1326 1975 
Q 1069 1734 1069 1313 
Q 1069 891 1326 650 
Q 1584 409 2034 409 
Q 2484 409 2743 651 
Q 3003 894 3003 1313 
Q 3003 1734 2745 1975 
Q 2488 2216 2034 2216 
z
M 1403 2484 
Q 997 2584 770 2862 
Q 544 3141 544 3541 
Q 544 4100 942 4425 
Q 1341 4750 2034 4750 
Q 2731 4750 3128 4425 
Q 3525 4100 3525 3541 
Q 3525 3141 3298 2862 
Q 3072 2584 2669 2484 
Q 3125 2378 3379 2068 
Q 3634 1759 3634 1313 
Q 3634 634 3220 271 
Q 2806 -91 2034 -91 
Q 1263 -91 848 271 
Q 434 634 434 1313 
Q 434 1759 690 2068 
Q 947 2378 1403 2484 
z
M 1172 3481 
Q 1172 3119 1398 2916 
Q 1625 2713 2034 2713 
Q 2441 2713 2670 2916 
Q 2900 3119 2900 3481 
Q 2900 3844 2670 4047 
Q 2441 4250 2034 4250 
Q 1625 4250 1398 4047 
Q 1172 3844 1172 3481 
z
" transform="scale(0.015625)"/>
       </defs>
       <use xlink:href="#DejaVuSans-32"/>
       <use xlink:href="#DejaVuSans-30" x="63.623047"/>
       <use xlink:href="#DejaVuSans-32" x="127.246094"/>
       <use xlink:href="#DejaVuSans-32" x="190.869141"/>
       <use xlink:href="#DejaVuSans-2d" x="254.492188"/>
       <use xlink:href="#DejaVuSans-30" x="290.576172"/>
       <use xlink:href="#DejaVuSans-38" x="354.199219"/>
       <use xlink:href="#DejaVuSans-2d" x="417.822266"/>
       <use xlink:href="#DejaVuSans-31" x="453.90625"/>
       <use xlink:href="#DejaVuSans-36" x="517.529297"/>
      </g>
     </g>
    </g>
    <g id="xtick_8">
     <g id="line2d_8">
      <g>
       <use xlink:href="#m3fb7713609" x="503.20167" y="395.28" style="stroke: #000000; stroke-width: 0.8"/>
      </g>
     </g>
     <g id="text_8">
      <!-- 2022-09-13 -->
      <g transform="translate(418.072643 495.213718) rotate(-45) scale(0.2 -0.2)">
       <use xlink:href="#DejaVuSans-32"/>
       <use xlink:href="#DejaVuSans-30" x="63.623047"/>
       <use xlink:href="#DejaVuSans-32" x="127.246094"/>
       <use xlink:href="#DejaVuSans-32" x="190.869141"/>
       <use xlink:href="#DejaVuSans-2d" x="254.492188"/>
       <use xlink:href="#DejaVuSans-30" x="290.576172"/>
       <use xlink:href="#DejaVuSans-39" x="354.199219"/>
       <use xlink:href="#DejaVuSans-2d" x="417.822266"/>
       <use xlink:href="#DejaVuSans-31" x="453.90625"/>
       <use xlink:href="#DejaVuSans-33" x="517.529297"/>
      </g>
     </g>
    </g>
    <g id="xtick_9">
     <g id="line2d_9">
      <g>
       <use xlink:href="#m3fb7713609" x="560.362646" y="395.28" style="stroke: #000000; stroke-width: 0.8"/>
      </g>
     </g>
     <g id="text_9">
      <!-- 2022-10-11 -->
      <g transform="translate(475.233618 495.213718) rotate(-45) scale(0.2 -0.2)">
       <use xlink:href="#DejaVuSans-32"/>
       <use xlink:href="#DejaVuSans-30" x="63.623047"/>
       <use xlink:href="#DejaVuSans-32" x="127.246094"/>
       <use xlink:href="#DejaVuSans-32" x="190.869141"/>
       <use xlink:href="#DejaVuSans-2d" x="254.492188"/>
       <use xlink:href="#DejaVuSans-31" x="290.576172"/>
       <use xlink:href="#DejaVuSans-30" x="354.199219"/>
       <use xlink:href="#DejaVuSans-2d" x="417.822266"/>
       <use xlink:href="#DejaVuSans-31" x="453.90625"/>
       <use xlink:href="#DejaVuSans-31" x="517.529297"/>
      </g>
     </g>
    </g>
    <g id="xtick_10">
     <g id="line2d_10">
      <g>
       <use xlink:href="#m3fb7713609" x="617.523621" y="395.28" style="stroke: #000000; stroke-width: 0.8"/>
      </g>
     </g>
     <g id="text_10">
      <!-- 2022-11-08 -->
      <g transform="translate(532.394594 495.213718) rotate(-45) scale(0.2 -0.2)">
       <use xlink:href="#DejaVuSans-32"/>
       <use xlink:href="#DejaVuSans-30" x="63.623047"/>
       <use xlink:href="#DejaVuSans-32" x="127.246094"/>
       <use xlink:href="#DejaVuSans-32" x="190.869141"/>
       <use xlink:href="#DejaVuSans-2d" x="254.492188"/>
       <use xlink:href="#DejaVuSans-31" x="290.576172"/>
       <use xlink:href="#DejaVuSans-31" x="354.199219"/>
       <use xlink:href="#DejaVuSans-2d" x="417.822266"/>
       <use xlink:href="#DejaVuSans-30" x="453.90625"/>
       <use xlink:href="#DejaVuSans-38" x="517.529297"/>
      </g>
     </g>
    </g>
    <g id="xtick_11">
     <g id="line2d_11">
      <g>
       <use xlink:href="#m3fb7713609" x="674.684597" y="395.28" style="stroke: #000000; stroke-width: 0.8"/>
      </g>
     </g>
     <g id="text_11">
      <!-- 2022-12-06 -->
      <g transform="translate(589.555569 495.213718) rotate(-45) scale(0.2 -0.2)">
       <use xlink:href="#DejaVuSans-32"/>
       <use xlink:href="#DejaVuSans-30" x="63.623047"/>
       <use xlink:href="#DejaVuSans-32" x="127.246094"/>
       <use xlink:href="#DejaVuSans-32" x="190.869141"/>
       <use xlink:href="#DejaVuSans-2d" x="254.492188"/>
       <use xlink:href="#DejaVuSans-31" x="290.576172"/>
       <use xlink:href="#DejaVuSans-32" x="354.199219"/>
       <use xlink:href="#DejaVuSans-2d" x="417.822266"/>
       <use xlink:href="#DejaVuSans-30" x="453.90625"/>
       <use xlink:href="#DejaVuSans-36" x="517.529297"/>
      </g>
     </g>
    </g>
    <g id="xtick_12">
     <g id="line2d_12">
      <g>
       <use xlink:href="#m3fb7713609" x="731.845572" y="395.28" style="stroke: #000000; stroke-width: 0.8"/>
      </g>
     </g>
     <g id="text_12">
      <!-- 2023-01-03 -->
      <g transform="translate(646.716545 495.213718) rotate(-45) scale(0.2 -0.2)">
       <use xlink:href="#DejaVuSans-32"/>
       <use xlink:href="#DejaVuSans-30" x="63.623047"/>
       <use xlink:href="#DejaVuSans-32" x="127.246094"/>
       <use xlink:href="#DejaVuSans-33" x="190.869141"/>
       <use xlink:href="#DejaVuSans-2d" x="254.492188"/>
       <use xlink:href="#DejaVuSans-30" x="290.576172"/>
       <use xlink:href="#DejaVuSans-31" x="354.199219"/>
       <use xlink:href="#DejaVuSans-2d" x="417.822266"/>
       <use xlink:href="#DejaVuSans-30" x="453.90625"/>
       <use xlink:href="#DejaVuSans-33" x="517.529297"/>
      </g>
     </g>
    </g>
    <g id="xtick_13">
     <g id="line2d_13">
      <g>
       <use xlink:href="#m3fb7713609" x="789.006548" y="395.28" style="stroke: #000000; stroke-width: 0.8"/>
      </g>
     </g>
     <g id="text_13">
      <!-- 2023-01-31 -->
      <g transform="translate(703.877521 495.213718) rotate(-45) scale(0.2 -0.2)">
       <use xlink:href="#DejaVuSans-32"/>
       <use xlink:href="#DejaVuSans-30" x="63.623047"/>
       <use xlink:href="#DejaVuSans-32" x="127.246094"/>
       <use xlink:href="#DejaVuSans-33" x="190.869141"/>
       <use xlink:href="#DejaVuSans-2d" x="254.492188"/>
       <use xlink:href="#DejaVuSans-30" x="290.576172"/>
       <use xlink:href="#DejaVuSans-31" x="354.199219"/>
       <use xlink:href="#DejaVuSans-2d" x="417.822266"/>
       <use xlink:href="#DejaVuSans-33" x="453.90625"/>
       <use xlink:href="#DejaVuSans-31" x="517.529297"/>
      </g>
     </g>
    </g>
    <g id="xtick_14">
     <g id="line2d_14">
      <g>
       <use xlink:href="#m3fb7713609" x="846.167524" y="395.28" style="stroke: #000000; stroke-width: 0.8"/>
      </g>
     </g>
     <g id="text_14">
      <!-- 2023-02-28 -->
      <g transform="translate(761.038496 495.213718) rotate(-45) scale(0.2 -0.2)">
       <use xlink:href="#DejaVuSans-32"/>
       <use xlink:href="#DejaVuSans-30" x="63.623047"/>
       <use xlink:href="#DejaVuSans-32" x="127.246094"/>
       <use xlink:href="#DejaVuSans-33" x="190.869141"/>
       <use xlink:href="#DejaVuSans-2d" x="254.492188"/>
       <use xlink:href="#DejaVuSans-30" x="290.576172"/>
       <use xlink:href="#DejaVuSans-32" x="354.199219"/>
       <use xlink:href="#DejaVuSans-2d" x="417.822266"/>
       <use xlink:href="#DejaVuSans-32" x="453.90625"/>
       <use xlink:href="#DejaVuSans-38" x="517.529297"/>
      </g>
     </g>
    </g>
    <g id="xtick_15">
     <g id="line2d_15">
      <g>
       <use xlink:href="#m3fb7713609" x="903.328499" y="395.28" style="stroke: #000000; stroke-width: 0.8"/>
      </g>
     </g>
     <g id="text_15">
      <!-- 2023-03-28 -->
      <g transform="translate(818.199472 495.213718) rotate(-45) scale(0.2 -0.2)">
       <use xlink:href="#DejaVuSans-32"/>
       <use xlink:href="#DejaVuSans-30" x="63.623047"/>
       <use xlink:href="#DejaVuSans-32" x="127.246094"/>
       <use xlink:href="#DejaVuSans-33" x="190.869141"/>
       <use xlink:href="#DejaVuSans-2d" x="254.492188"/>
       <use xlink:href="#DejaVuSans-30" x="290.576172"/>
       <use xlink:href="#DejaVuSans-33" x="354.199219"/>
       <use xlink:href="#DejaVuSans-2d" x="417.822266"/>
       <use xlink:href="#DejaVuSans-32" x="453.90625"/>
       <use xlink:href="#DejaVuSans-38" x="517.529297"/>
      </g>
     </g>
    </g>
    <g id="xtick_16">
     <g id="line2d_16">
      <g>
       <use xlink:href="#m3fb7713609" x="940.074841" y="395.28" style="stroke: #000000; stroke-width: 0.8"/>
      </g>
     </g>
     <g id="text_16">
      <!-- 2023-04-15 -->
      <g transform="translate(854.945813 495.213718) rotate(-45) scale(0.2 -0.2)">
       <use xlink:href="#DejaVuSans-32"/>
       <use xlink:href="#DejaVuSans-30" x="63.623047"/>
       <use xlink:href="#DejaVuSans-32" x="127.246094"/>
       <use xlink:href="#DejaVuSans-33" x="190.869141"/>
       <use xlink:href="#DejaVuSans-2d" x="254.492188"/>
       <use xlink:href="#DejaVuSans-30" x="290.576172"/>
       <use xlink:href="#DejaVuSans-34" x="354.199219"/>
       <use xlink:href="#DejaVuSans-2d" x="417.822266"/>
       <use xlink:href="#DejaVuSans-31" x="453.90625"/>
       <use xlink:href="#DejaVuSans-35" x="517.529297"/>
      </g>
     </g>
    </g>
   </g>
   <g id="matplotlib.axis_2">
    <g id="ytick_1">
     <g id="line2d_17">
      <defs>
       <path id="meaa1d9270f" d="M 0 0 
L -3.5 0 
" style="stroke: #000000; stroke-width: 0.8"/>
      </defs>
      <g>
       <use xlink:href="#meaa1d9270f" x="103.074841" y="370.318599" style="stroke: #000000; stroke-width: 0.8"/>
      </g>
     </g>
     <g id="text_17">
      <!-- 0.00 -->
      <g transform="translate(51.543591 377.917037) scale(0.2 -0.2)">
       <defs>
        <path id="DejaVuSans-2e" d="M 684 794 
L 1344 794 
L 1344 0 
L 684 0 
L 684 794 
z
" transform="scale(0.015625)"/>
       </defs>
       <use xlink:href="#DejaVuSans-30"/>
       <use xlink:href="#DejaVuSans-2e" x="63.623047"/>
       <use xlink:href="#DejaVuSans-30" x="95.410156"/>
       <use xlink:href="#DejaVuSans-30" x="159.033203"/>
      </g>
     </g>
    </g>
    <g id="ytick_2">
     <g id="line2d_18">
      <g>
       <use xlink:href="#meaa1d9270f" x="103.074841" y="290.913243" style="stroke: #000000; stroke-width: 0.8"/>
      </g>
     </g>
     <g id="text_18">
      <!-- 0.05 -->
      <g transform="translate(51.543591 298.51168) scale(0.2 -0.2)">
       <use xlink:href="#DejaVuSans-30"/>
       <use xlink:href="#DejaVuSans-2e" x="63.623047"/>
       <use xlink:href="#DejaVuSans-30" x="95.410156"/>
       <use xlink:href="#DejaVuSans-35" x="159.033203"/>
      </g>
     </g>
    </g>
    <g id="ytick_3">
     <g id="line2d_19">
      <g>
       <use xlink:href="#meaa1d9270f" x="103.074841" y="211.507887" style="stroke: #000000; stroke-width: 0.8"/>
      </g>
     </g>
     <g id="text_19">
      <!-- 0.10 -->
      <g transform="translate(51.543591 219.106324) scale(0.2 -0.2)">
       <use xlink:href="#DejaVuSans-30"/>
       <use xlink:href="#DejaVuSans-2e" x="63.623047"/>
       <use xlink:href="#DejaVuSans-31" x="95.410156"/>
       <use xlink:href="#DejaVuSans-30" x="159.033203"/>
      </g>
     </g>
    </g>
    <g id="ytick_4">
     <g id="line2d_20">
      <g>
       <use xlink:href="#meaa1d9270f" x="103.074841" y="132.102531" style="stroke: #000000; stroke-width: 0.8"/>
      </g>
     </g>
     <g id="text_20">
      <!-- 0.15 -->
      <g transform="translate(51.543591 139.700968) scale(0.2 -0.2)">
       <use xlink:href="#DejaVuSans-30"/>
       <use xlink:href="#DejaVuSans-2e" x="63.623047"/>
       <use xlink:href="#DejaVuSans-31" x="95.410156"/>
       <use xlink:href="#DejaVuSans-35" x="159.033203"/>
      </g>
     </g>
    </g>
    <g id="ytick_5">
     <g id="line2d_21">
      <g>
       <use xlink:href="#meaa1d9270f" x="103.074841" y="52.697174" style="stroke: #000000; stroke-width: 0.8"/>
      </g>
     </g>
     <g id="text_21">
      <!-- 0.20 -->
      <g transform="translate(51.543591 60.295612) scale(0.2 -0.2)">
       <use xlink:href="#DejaVuSans-30"/>
       <use xlink:href="#DejaVuSans-2e" x="63.623047"/>
       <use xlink:href="#DejaVuSans-32" x="95.410156"/>
       <use xlink:href="#DejaVuSans-30" x="159.033203"/>
      </g>
     </g>
    </g>
   </g>
   <g id="line2d_22">
    <path d="M 0 0 
" clip-path="url(#pfa1b0946ec)" style="fill: none; stroke: #ffa500; stroke-width: 1.5; stroke-linecap: square"/>
   </g>
   <g id="line2d_23">
    <path d="M 103.074841 370.318599 
L 948.274841 370.318599 
" clip-path="url(#pfa1b0946ec)" style="fill: none; stroke-dasharray: 7.4,3.2; stroke-dashoffset: 0; stroke: #000000; stroke-width: 2"/>
   </g>
   <g id="patch_3">
    <path d="M 103.074841 395.28 
L 103.074841 7.2 
" style="fill: none; stroke: #000000; stroke-width: 0.8; stroke-linejoin: miter; stroke-linecap: square"/>
   </g>
   <g id="patch_4">
    <path d="M 940.074841 395.28 
L 940.074841 7.2 
" style="fill: none; stroke: #000000; stroke-width: 0.8; stroke-linejoin: miter; stroke-linecap: square"/>
   </g>
   <g id="patch_5">
    <path d="M 103.074841 395.28 
L 940.074841 395.28 
" style="fill: none; stroke: #000000; stroke-width: 0.8; stroke-linejoin: miter; stroke-linecap: square"/>
   </g>
   <g id="patch_6">
    <path d="M 103.074841 7.2 
L 940.074841 7.2 
" style="fill: none; stroke: #000000; stroke-width: 0.8; stroke-linejoin: miter; stroke-linecap: square"/>
   </g>
  </g>
 </g>
 <defs>
  <clipPath id="pfa1b0946ec">
   <rect x="103.074841" y="7.2" width="837" height="388.08"/>
  </clipPath>
 </defs>
</svg>
