<?xml version="1.0" encoding="utf-8" standalone="no"?>
<!DOCTYPE svg PUBLIC "-//W3C//DTD SVG 1.1//EN"
  "http://www.w3.org/Graphics/SVG/1.1/DTD/svg11.dtd">
<svg xmlns:xlink="http://www.w3.org/1999/xlink" width="1040.965466pt" height="505.354841pt" viewBox="0 0 1040.965466 505.354841" xmlns="http://www.w3.org/2000/svg" version="1.1">
 <metadata>
  <rdf:RDF xmlns:dc="http://purl.org/dc/elements/1.1/" xmlns:cc="http://creativecommons.org/ns#" xmlns:rdf="http://www.w3.org/1999/02/22-rdf-syntax-ns#">
   <cc:Work>
    <dc:type rdf:resource="http://purl.org/dc/dcmitype/StillImage"/>
    <dc:date>2023-12-29T15:33:13.778801</dc:date>
    <dc:format>image/svg+xml</dc:format>
    <dc:creator>
     <cc:Agent>
      <dc:title>Matplotlib v3.7.2, https://matplotlib.org/</dc:title>
     </cc:Agent>
    </dc:creator>
   </cc:Work>
  </rdf:RDF>
 </metadata>
 <defs>
  <style type="text/css">*{stroke-linejoin: round; stroke-linecap: butt}</style>
 </defs>
 <g id="figure_1">
  <g id="patch_1">
   <path d="M 0 505.354841 
L 1040.965466 505.354841 
L 1040.965466 -0 
L 0 -0 
z
" style="fill: #ffffff"/>
  </g>
  <g id="axes_1">
   <g id="patch_2">
    <path d="M 103.074841 395.28 
L 940.074841 395.28 
L 940.074841 7.2 
L 103.074841 7.2 
z
" style="fill: #ffffff"/>
   </g>
   <g id="PolyCollection_1">
    <path d="M -393.000769 308.902929 
L -393.000769 308.917689 
L -390.959306 308.833791 
L -388.917842 308.753511 
L -386.876379 308.684574 
L -384.834915 308.628513 
L -382.793452 308.572416 
L -380.751989 308.504536 
L -378.710525 308.433073 
L -376.669062 308.377622 
L -374.627598 308.320937 
L -372.586135 308.264418 
L -370.544672 308.199598 
L -368.503208 308.13451 
L -366.461745 308.053267 
L -364.420281 307.985398 
L -362.378818 307.903474 
L -360.337354 307.815553 
L -358.295891 307.727607 
L -356.254428 307.636996 
L -354.212964 307.546714 
L -352.171501 307.446723 
L -350.130037 307.348471 
L -348.088574 307.248674 
L -346.047111 307.137491 
L -344.005647 307.03067 
L -341.964184 306.920964 
L -339.92272 306.810349 
L -337.881257 306.68407 
L -335.839793 306.550378 
L -333.79833 306.442626 
L -331.756867 306.308339 
L -329.715403 306.17027 
L -327.67394 306.028883 
L -325.632476 305.881437 
L -323.591013 305.716331 
L -321.54955 305.564823 
L -319.508086 305.395528 
L -317.466623 305.212291 
L -315.425159 305.028899 
L -313.383696 304.830777 
L -311.342232 304.612814 
L -309.300769 304.381424 
L -307.259306 304.131099 
L -305.217842 303.871046 
L -303.176379 303.585979 
L -301.134915 303.303209 
L -299.093452 302.991068 
L -297.051989 302.688539 
L -295.010525 302.339743 
L -292.969062 301.974831 
L -290.927598 301.619584 
L -288.886135 301.232939 
L -286.844672 300.814957 
L -284.803208 300.398832 
L -282.761745 299.969019 
L -280.720281 299.5116 
L -278.678818 299.044276 
L -276.637354 298.568744 
L -274.595891 298.070071 
L -272.554428 297.564024 
L -270.512964 297.060801 
L -268.471501 296.541279 
L -266.430037 296.022742 
L -264.388574 295.506746 
L -262.347111 294.969001 
L -260.305647 294.417109 
L -258.264184 293.868715 
L -256.22272 293.321388 
L -254.181257 292.778847 
L -252.139793 292.220069 
L -250.09833 291.67248 
L -248.056867 291.116854 
L -246.015403 290.614791 
L -243.97394 290.038068 
L -241.932476 289.517938 
L -239.891013 288.989184 
L -237.84955 288.47801 
L -235.808086 287.97456 
L -233.766623 287.480517 
L -231.725159 286.985119 
L -229.683696 286.497669 
L -227.642232 286.041033 
L -225.600769 285.583387 
L -223.559306 285.148396 
L -221.517842 284.694585 
L -219.476379 284.243748 
L -217.434915 283.81449 
L -215.393452 283.37575 
L -213.351989 282.945773 
L -211.310525 282.518364 
L -209.269062 282.089694 
L -207.227598 281.659169 
L -205.186135 281.238508 
L -203.144672 280.816389 
L -201.103208 280.408919 
L -199.061745 279.98305 
L -197.020281 279.521841 
L -194.978818 279.073063 
L -192.937354 278.625502 
L -190.895891 278.171048 
L -188.854428 277.712773 
L -186.812964 277.24467 
L -184.771501 276.798883 
L -182.730037 276.33428 
L -180.688574 275.859768 
L -178.647111 275.383729 
L -176.605647 274.907501 
L -174.564184 274.471121 
L -172.52272 273.969813 
L -170.481257 273.483821 
L -168.439793 273.008143 
L -166.39833 272.520174 
L -164.356867 272.021893 
L -162.315403 271.493137 
L -160.27394 270.955198 
L -158.232476 270.431041 
L -156.191013 269.884102 
L -154.14955 269.335205 
L -152.108086 268.737572 
L -150.066623 268.188722 
L -148.025159 267.523174 
L -145.983696 266.862534 
L -143.942232 266.215466 
L -141.900769 265.532154 
L -139.859306 264.820347 
L -137.817842 264.058697 
L -135.776379 263.331353 
L -133.734915 262.487513 
L -131.693452 261.738422 
L -129.651989 260.86781 
L -127.610525 260.026352 
L -125.569062 259.221011 
L -123.527598 258.404691 
L -121.486135 257.579205 
L -119.444672 256.859859 
L -117.403208 255.928638 
L -115.361745 255.162404 
L -113.320281 254.480081 
L -111.278818 253.708861 
L -109.237354 252.905499 
L -107.195891 251.995627 
L -105.154428 251.159697 
L -103.112964 250.475615 
L -101.071501 249.280531 
L -99.030037 248.334591 
L -96.988574 247.343825 
L -94.947111 246.288096 
L -92.905647 245.047627 
L -90.864184 243.83377 
L -88.82272 242.915494 
L -86.781257 241.772278 
L -84.739793 239.786644 
L -82.69833 238.077815 
L -80.656867 236.773604 
L -78.615403 235.07548 
L -76.57394 233.434874 
L -74.532476 232.137399 
L -72.491013 230.079552 
L -70.44955 227.852358 
L -68.408086 226.255735 
L -66.366623 225.152585 
L -64.325159 223.162045 
L -62.283696 222.158999 
L -60.242232 220.735681 
L -58.200769 218.744098 
L -56.159306 218.147285 
L -54.117842 218.595189 
L -52.076379 219.797885 
L -50.034915 217.778643 
L -47.993452 221.247765 
L -45.951989 222.114827 
L -43.910525 217.439872 
L -41.869062 218.660623 
L -39.827598 221.089477 
L -37.786135 219.952087 
L -35.744672 219.939585 
L -33.703208 229.18529 
L -31.661745 242.095122 
L -29.620281 248.734275 
L -27.578818 234.772671 
L -25.537354 241.94839 
L -23.495891 251.532308 
L -21.454428 251.403542 
L -19.412964 270.410897 
L -17.371501 267.756586 
L -15.330037 261.95351 
L -13.288574 247.45058 
L -11.247111 261.120599 
L -9.205647 269.517731 
L -7.164184 266.031043 
L -5.12272 268.261985 
L -3.081257 276.040528 
L -1.039793 274.954002 
L 1.00167 268.07445 
L 3.043133 276.654207 
L 5.084597 278.332944 
L 7.12606 275.149348 
L 9.167524 280.553474 
L 11.208987 282.39007 
L 13.25045 281.769074 
L 15.291914 279.929525 
L 17.333377 281.60359 
L 19.374841 279.60889 
L 21.416304 279.574457 
L 23.457768 281.124567 
L 25.499231 279.369972 
L 27.540694 279.983713 
L 29.582158 279.832005 
L 31.623621 278.254081 
L 33.665085 278.543922 
L 35.706548 276.448195 
L 37.748011 276.386519 
L 39.789475 276.739122 
L 41.830938 276.571298 
L 43.872402 275.450377 
L 45.913865 274.429543 
L 47.955328 274.187208 
L 49.996792 273.110808 
L 52.038255 272.81856 
L 54.079719 272.590003 
L 56.121182 271.119757 
L 58.162646 271.714445 
L 60.204109 270.679597 
L 62.245572 270.219194 
L 64.287036 270.145899 
L 66.328499 269.112213 
L 68.369963 268.82885 
L 70.411426 269.073426 
L 72.452889 269.449089 
L 74.494353 267.824713 
L 76.535816 267.518581 
L 78.57728 266.799435 
L 80.618743 269.350049 
L 82.660207 269.320635 
L 84.70167 270.24064 
L 86.743133 267.586325 
L 88.784597 265.947313 
L 90.82606 266.309989 
L 92.867524 267.938705 
L 94.908987 268.120404 
L 96.95045 264.963257 
L 98.991914 267.470557 
L 101.033377 266.740179 
L 103.074841 266.292608 
L 105.116304 264.783131 
L 107.157768 265.850913 
L 109.199231 265.131293 
L 111.240694 265.711849 
L 113.282158 264.755485 
L 115.323621 263.99998 
L 117.365085 262.64562 
L 119.406548 261.95668 
L 121.448011 261.289309 
L 123.489475 260.412977 
L 125.530938 260.207724 
L 127.572402 259.376304 
L 129.613865 258.511733 
L 131.655328 256.31809 
L 133.696792 254.66246 
L 135.738255 253.840823 
L 137.779719 252.012158 
L 139.821182 251.52847 
L 141.862646 249.887481 
L 143.904109 247.532981 
L 145.945572 245.51099 
L 147.987036 243.969662 
L 150.028499 241.49746 
L 152.069963 240.046744 
L 154.111426 237.886751 
L 156.152889 235.977016 
L 158.194353 233.780917 
L 160.235816 231.328203 
L 162.27728 229.331389 
L 164.318743 227.032085 
L 166.360207 224.975857 
L 168.40167 222.201412 
L 170.443133 219.657418 
L 172.484597 217.074964 
L 174.52606 215.110564 
L 176.567524 212.444457 
L 178.608987 210.067348 
L 180.65045 207.410081 
L 182.691914 203.868058 
L 184.733377 201.820942 
L 186.774841 199.163756 
L 188.816304 196.664027 
L 190.857768 193.94753 
L 192.899231 190.622736 
L 194.940694 187.808125 
L 196.982158 184.651585 
L 199.023621 180.860491 
L 201.065085 178.219716 
L 203.106548 174.520285 
L 205.148011 171.773368 
L 207.189475 167.933807 
L 209.230938 163.647274 
L 211.272402 160.240986 
L 213.313865 157.19029 
L 215.355328 152.86154 
L 217.396792 149.415868 
L 219.438255 145.509017 
L 221.479719 142.295988 
L 223.521182 138.159874 
L 225.562646 134.337383 
L 227.604109 133.899618 
L 229.645572 127.190878 
L 231.687036 125.860908 
L 233.728499 121.794215 
L 235.769963 119.189737 
L 237.811426 115.467706 
L 239.852889 112.124341 
L 241.894353 108.810291 
L 243.935816 105.393591 
L 245.97728 102.887877 
L 248.018743 99.764167 
L 250.060207 101.188429 
L 252.10167 92.842234 
L 254.143133 90.744577 
L 256.184597 95.908929 
L 258.22606 86.877876 
L 260.267524 87.676875 
L 262.308987 86.493081 
L 264.35045 80.898824 
L 266.391914 81.259251 
L 268.433377 85.416853 
L 270.474841 81.554699 
L 272.516304 80.673513 
L 274.557768 83.117284 
L 276.599231 83.395573 
L 278.640694 84.702869 
L 280.682158 88.736154 
L 282.723621 92.97683 
L 284.765085 104.166689 
L 286.806548 101.880547 
L 288.848011 108.099032 
L 290.889475 112.471526 
L 292.930938 115.745691 
L 294.972402 121.351577 
L 297.013865 125.522857 
L 299.055328 117.847569 
L 301.096792 123.961231 
L 303.138255 133.224744 
L 305.179719 137.720733 
L 307.221182 138.665414 
L 309.262646 154.660285 
L 311.304109 157.011879 
L 313.345572 161.733635 
L 315.387036 160.467508 
L 317.428499 174.583731 
L 319.469963 170.049449 
L 321.511426 167.767319 
L 323.552889 180.212807 
L 325.594353 188.211791 
L 327.635816 186.985789 
L 329.67728 192.968916 
L 331.718743 194.949202 
L 333.760207 194.905969 
L 335.80167 194.437218 
L 337.843133 196.943391 
L 339.884597 198.798933 
L 341.92606 207.521952 
L 343.967524 202.355801 
L 346.008987 210.240627 
L 348.05045 208.299865 
L 350.091914 207.717376 
L 352.133377 210.452698 
L 354.174841 212.915421 
L 356.216304 209.402511 
L 358.257768 211.585394 
L 360.299231 211.018049 
L 362.340694 215.183663 
L 364.382158 213.370346 
L 366.423621 211.986356 
L 368.465085 213.265822 
L 370.506548 214.160636 
L 372.548011 213.160102 
L 374.589475 210.746718 
L 376.630938 211.933844 
L 378.672402 207.894779 
L 380.713865 208.57734 
L 382.755328 212.603478 
L 384.796792 211.429249 
L 386.838255 208.468803 
L 388.879719 207.123389 
L 390.921182 206.889088 
L 392.962646 203.029944 
L 395.004109 203.850457 
L 397.045572 203.499225 
L 399.087036 202.122022 
L 401.128499 200.987034 
L 403.169963 198.717931 
L 405.211426 199.453248 
L 407.252889 198.009144 
L 409.294353 196.995524 
L 411.335816 195.942417 
L 413.37728 194.938069 
L 415.418743 193.652721 
L 417.460207 190.62793 
L 419.50167 189.451019 
L 421.543133 187.606302 
L 423.584597 183.900714 
L 425.62606 186.055249 
L 427.667524 181.820757 
L 429.708987 182.453812 
L 431.75045 181.835087 
L 433.791914 181.630398 
L 435.833377 179.154362 
L 437.874841 178.829879 
L 439.916304 178.630499 
L 441.957768 174.35575 
L 443.999231 175.476704 
L 446.040694 174.496523 
L 448.082158 174.950285 
L 450.123621 172.365564 
L 452.165085 173.058069 
L 454.206548 172.163442 
L 456.248011 169.056208 
L 458.289475 168.114028 
L 460.330938 167.218232 
L 462.372402 166.415825 
L 464.413865 165.076323 
L 466.455328 164.787914 
L 468.496792 163.75119 
L 470.538255 162.777837 
L 472.579719 162.563684 
L 474.621182 160.3297 
L 476.662646 162.012008 
L 478.704109 161.966028 
L 480.745572 160.360543 
L 482.787036 158.892077 
L 484.828499 156.568429 
L 486.869963 158.605948 
L 488.911426 158.537602 
L 490.952889 157.50622 
L 492.994353 156.013008 
L 495.035816 154.941043 
L 497.07728 153.955548 
L 499.118743 154.045066 
L 501.160207 153.364457 
L 503.20167 153.565056 
L 505.243133 152.024792 
L 507.284597 150.361071 
L 509.32606 152.759092 
L 511.367524 151.057975 
L 513.408987 150.763558 
L 515.45045 152.545839 
L 517.491914 148.298863 
L 519.533377 149.092328 
L 521.574841 150.280342 
L 523.616304 148.041952 
L 525.657768 150.645378 
L 527.699231 148.709747 
L 529.740694 146.557218 
L 531.782158 149.237408 
L 533.823621 150.105759 
L 535.865085 148.240086 
L 537.906548 148.892946 
L 539.948011 148.047303 
L 541.989475 152.965629 
L 544.030938 152.160347 
L 546.072402 152.563715 
L 548.113865 149.153932 
L 550.155328 147.406233 
L 552.196792 150.426714 
L 554.238255 153.772109 
L 556.279719 151.481476 
L 558.321182 149.778751 
L 560.362646 147.210079 
L 562.404109 147.303825 
L 564.445572 148.972348 
L 566.487036 146.597244 
L 568.528499 145.426003 
L 570.569963 148.80135 
L 572.611426 146.341612 
L 574.652889 149.699863 
L 576.694353 150.002153 
L 578.735816 144.440997 
L 580.77728 144.863779 
L 582.818743 144.567185 
L 584.860207 145.771325 
L 586.90167 148.672034 
L 588.943133 153.991131 
L 590.984597 155.477425 
L 593.02606 155.466959 
L 595.067524 159.710313 
L 597.108987 168.355821 
L 599.15045 159.555003 
L 601.191914 156.536819 
L 603.233377 159.922 
L 605.274841 163.414586 
L 607.316304 164.445231 
L 609.357768 163.07054 
L 611.399231 169.658319 
L 613.440694 174.071316 
L 615.482158 167.483521 
L 617.523621 173.837899 
L 619.565085 170.537689 
L 621.606548 170.962246 
L 623.648011 176.631138 
L 625.689475 176.38145 
L 627.730938 181.114063 
L 629.772402 180.76923 
L 631.813865 175.796364 
L 633.855328 180.128864 
L 635.896792 180.526024 
L 637.938255 184.449551 
L 639.979719 183.460359 
L 642.021182 188.324314 
L 644.062646 184.563677 
L 646.104109 187.539548 
L 648.145572 187.646901 
L 650.187036 190.905338 
L 652.228499 185.599119 
L 654.269963 190.803455 
L 656.311426 192.83924 
L 658.352889 195.280106 
L 660.394353 197.906079 
L 662.435816 197.709427 
L 664.47728 196.545766 
L 666.518743 199.723988 
L 668.560207 202.045823 
L 670.60167 201.063001 
L 672.643133 199.031174 
L 674.684597 201.890756 
L 676.72606 203.901839 
L 678.767524 199.656064 
L 680.808987 199.069236 
L 682.85045 206.973422 
L 684.891914 208.91098 
L 686.933377 201.681817 
L 688.974841 204.649642 
L 691.016304 205.293419 
L 693.057768 206.090909 
L 695.099231 209.949879 
L 697.140694 208.212285 
L 699.182158 206.509944 
L 701.223621 209.009132 
L 703.265085 209.571943 
L 705.306548 205.773718 
L 707.348011 207.176862 
L 709.389475 206.584137 
L 711.430938 214.369575 
L 713.472402 219.555949 
L 715.513865 219.530521 
L 717.555328 213.043727 
L 719.596792 212.049678 
L 721.638255 213.268656 
L 723.679719 212.944506 
L 725.721182 219.689869 
L 727.762646 213.381003 
L 729.804109 219.15909 
L 731.845572 224.511051 
L 733.887036 220.328726 
L 735.928499 228.12326 
L 737.969963 223.424997 
L 740.011426 227.133205 
L 742.052889 224.76805 
L 744.094353 228.102958 
L 746.135816 231.405533 
L 748.17728 230.672622 
L 750.218743 232.564954 
L 752.260207 233.599278 
L 754.30167 235.174969 
L 756.343133 226.243551 
L 758.384597 238.538351 
L 760.42606 243.875954 
L 762.467524 238.914436 
L 764.508987 242.481759 
L 766.55045 244.980547 
L 768.591914 242.158961 
L 770.633377 247.660257 
L 772.674841 251.177167 
L 774.716304 250.90958 
L 776.757768 252.345024 
L 778.799231 253.007698 
L 780.840694 255.202168 
L 782.882158 257.404793 
L 784.923621 260.091324 
L 786.965085 261.054585 
L 789.006548 262.782962 
L 791.048011 261.77847 
L 793.089475 258.093229 
L 795.130938 265.154291 
L 797.172402 270.996177 
L 799.213865 265.609066 
L 801.255328 266.95884 
L 803.296792 274.542304 
L 805.338255 261.227144 
L 807.379719 274.153824 
L 809.421182 267.345212 
L 811.462646 278.739109 
L 813.504109 273.970622 
L 815.545572 279.364156 
L 817.587036 279.959198 
L 819.628499 283.051403 
L 821.669963 283.59509 
L 823.711426 281.747319 
L 825.752889 281.282596 
L 827.794353 285.569633 
L 829.835816 289.231527 
L 831.87728 288.7351 
L 833.918743 289.977607 
L 835.960207 292.664908 
L 838.00167 293.018488 
L 840.043133 291.277016 
L 842.084597 291.432642 
L 844.12606 297.230546 
L 846.167524 297.506905 
L 848.208987 298.694952 
L 850.25045 297.053708 
L 852.291914 291.135876 
L 854.333377 298.710051 
L 856.374841 296.43227 
L 858.416304 298.27362 
L 860.457768 300.19704 
L 862.499231 297.575015 
L 864.540694 301.852131 
L 866.582158 299.483304 
L 868.623621 300.202537 
L 870.665085 298.906927 
L 872.706548 302.437139 
L 874.748011 301.954288 
L 876.789475 301.657278 
L 878.830938 299.437715 
L 880.872402 301.161524 
L 882.913865 301.121243 
L 884.955328 301.03425 
L 886.996792 302.301097 
L 889.038255 302.220218 
L 891.079719 303.248627 
L 893.121182 306.04919 
L 895.162646 305.648395 
L 897.204109 303.543037 
L 899.245572 302.285379 
L 901.287036 304.241889 
L 903.328499 304.595128 
L 905.369963 306.310102 
L 907.411426 301.161504 
L 909.452889 306.46849 
L 911.494353 294.886024 
L 913.535816 301.138196 
L 915.57728 309.946118 
L 917.618743 306.684358 
L 919.660207 301.207082 
L 921.70167 311.092353 
L 923.743133 310.17844 
L 925.784597 308.827213 
L 927.82606 307.960516 
L 929.867524 307.54243 
L 931.908987 308.569459 
L 933.95045 310.801484 
L 935.991914 306.667986 
L 938.033377 310.711828 
L 940.074841 308.803621 
L 940.074841 301.513735 
L 940.074841 301.513735 
L 938.033377 302.749069 
L 935.991914 299.425812 
L 933.95045 301.795966 
L 931.908987 300.684761 
L 929.867524 300.256269 
L 927.82606 301.045223 
L 925.784597 302.696374 
L 923.743133 302.356043 
L 921.70167 302.246589 
L 919.660207 296.687912 
L 917.618743 301.417794 
L 915.57728 303.438447 
L 913.535816 293.388524 
L 911.494353 255.233504 
L 909.452889 302.899976 
L 907.411426 295.922737 
L 905.369963 302.690584 
L 903.328499 302.207267 
L 901.287036 302.160088 
L 899.245572 299.765501 
L 897.204109 301.164429 
L 895.162646 303.166173 
L 893.121182 303.593329 
L 891.079719 300.722656 
L 889.038255 296.463119 
L 886.996792 299.167026 
L 884.955328 295.569696 
L 882.913865 294.75792 
L 880.872402 293.948189 
L 878.830938 287.855331 
L 876.789475 296.050158 
L 874.748011 295.781979 
L 872.706548 295.877315 
L 870.665085 286.327861 
L 868.623621 289.46441 
L 866.582158 286.283798 
L 864.540694 295.689368 
L 862.499231 280.864528 
L 860.457768 290.215893 
L 858.416304 284.347414 
L 856.374841 277.465618 
L 854.333377 286.11216 
L 852.291914 258.905134 
L 850.25045 281.529722 
L 848.208987 286.068461 
L 846.167524 282.335064 
L 844.12606 282.806541 
L 842.084597 261.736368 
L 840.043133 263.507749 
L 838.00167 269.559446 
L 835.960207 268.969999 
L 833.918743 261.999337 
L 831.87728 259.083808 
L 829.835816 259.531033 
L 827.794353 252.517205 
L 825.752889 238.027747 
L 823.711426 239.381904 
L 821.669963 245.363847 
L 819.628499 243.751526 
L 817.587036 237.146291 
L 815.545572 235.998985 
L 813.504109 219.998531 
L 811.462646 235.612329 
L 809.421182 196.993603 
L 807.379719 220.517317 
L 805.338255 183.69279 
L 803.296792 224.102401 
L 801.255328 203.124843 
L 799.213865 201.16178 
L 797.172402 213.499351 
L 795.130938 199.376264 
L 793.089475 179.46292 
L 791.048011 189.39442 
L 789.006548 194.212452 
L 786.965085 189.755521 
L 784.923621 185.58738 
L 782.882158 171.830313 
L 780.840694 175.391472 
L 778.799231 171.175647 
L 776.757768 169.029608 
L 774.716304 164.893646 
L 772.674841 166.183465 
L 770.633377 156.461627 
L 768.591914 142.355464 
L 766.55045 154.456082 
L 764.508987 143.880525 
L 762.467524 138.073928 
L 760.42606 150.144996 
L 758.384597 137.585068 
L 756.343133 105.866422 
L 754.30167 129.182661 
L 752.260207 124.259382 
L 750.218743 122.981715 
L 748.17728 118.258426 
L 746.135816 120.874237 
L 744.094353 113.411808 
L 742.052889 106.454989 
L 740.011426 112.153133 
L 737.969963 101.69891 
L 735.928499 114.784051 
L 733.887036 96.119152 
L 731.845572 104.853204 
L 729.804109 93.846078 
L 727.762646 82.173889 
L 725.721182 96.039021 
L 723.679719 80.320203 
L 721.638255 82.127779 
L 719.596792 80.239538 
L 717.555328 82.930025 
L 715.513865 96.330058 
L 713.472402 98.308252 
L 711.430938 87.689564 
L 709.389475 68.865066 
L 707.348011 70.591047 
L 705.306548 69.936551 
L 703.265085 78.741332 
L 701.223621 77.138635 
L 699.182158 72.078925 
L 697.140694 77.168451 
L 695.099231 79.259679 
L 693.057768 72.038998 
L 691.016304 72.253777 
L 688.974841 70.734036 
L 686.933377 65.858149 
L 684.891914 82.155116 
L 682.85045 75.84626 
L 680.808987 63.006758 
L 678.767524 66.21256 
L 676.72606 73.427514 
L 674.684597 69.828906 
L 672.643133 65.610273 
L 670.60167 72.006461 
L 668.560207 76.358781 
L 666.518743 68.802961 
L 664.47728 65.203468 
L 662.435816 68.652071 
L 660.394353 64.827928 
L 658.352889 65.041324 
L 656.311426 60.485975 
L 654.269963 58.666948 
L 652.228499 50.458251 
L 650.187036 59.402322 
L 648.145572 55.166117 
L 646.104109 56.379843 
L 644.062646 54.151757 
L 642.021182 58.868525 
L 639.979719 51.566464 
L 637.938255 55.555479 
L 635.896792 49.541222 
L 633.855328 50.160798 
L 631.813865 44.685222 
L 629.772402 49.515037 
L 627.730938 53.133608 
L 625.689475 49.470428 
L 623.648011 48.858316 
L 621.606548 42.270625 
L 619.565085 43.47433 
L 617.523621 45.903354 
L 615.482158 38.962292 
L 613.440694 46.290682 
L 611.399231 43.394364 
L 609.357768 34.191981 
L 607.316304 37.867493 
L 605.274841 36.776135 
L 603.233377 32.702582 
L 601.191914 30.370448 
L 599.15045 34.769471 
L 597.108987 48.651701 
L 595.067524 38.674156 
L 593.02606 32.949167 
L 590.984597 33.469279 
L 588.943133 32.067462 
L 586.90167 27.293884 
L 584.860207 25.000609 
L 582.818743 21.671064 
L 580.77728 26.001647 
L 578.735816 27.062817 
L 576.694353 33.92081 
L 574.652889 34.884546 
L 572.611426 32.312682 
L 570.569963 36.847536 
L 568.528499 33.376303 
L 566.487036 37.056515 
L 564.445572 40.058171 
L 562.404109 40.784296 
L 560.362646 40.621739 
L 558.321182 45.528177 
L 556.279719 48.243652 
L 554.238255 50.946719 
L 552.196792 49.384761 
L 550.155328 47.164757 
L 548.113865 49.814578 
L 546.072402 52.91414 
L 544.030938 53.730298 
L 541.989475 56.850107 
L 539.948011 51.902625 
L 537.906548 54.007817 
L 535.865085 53.650283 
L 533.823621 55.286927 
L 531.782158 54.342826 
L 529.740694 52.887401 
L 527.699231 56.992498 
L 525.657768 58.831617 
L 523.616304 56.111246 
L 521.574841 59.314827 
L 519.533377 57.033753 
L 517.491914 58.564281 
L 515.45045 63.294618 
L 513.408987 61.735133 
L 511.367524 62.948824 
L 509.32606 64.85634 
L 507.284597 62.590106 
L 505.243133 64.221398 
L 503.20167 66.652497 
L 501.160207 66.604395 
L 499.118743 67.950299 
L 497.07728 68.159325 
L 495.035816 69.282223 
L 492.994353 70.722141 
L 490.952889 72.374106 
L 488.911426 73.197063 
L 486.869963 73.904275 
L 484.828499 69.594003 
L 482.787036 74.25465 
L 480.745572 75.768836 
L 478.704109 77.307554 
L 476.662646 76.482366 
L 474.621182 75.793538 
L 472.579719 78.212195 
L 470.538255 78.467318 
L 468.496792 79.871686 
L 466.455328 80.516173 
L 464.413865 80.886251 
L 462.372402 81.396312 
L 460.330938 82.708943 
L 458.289475 83.969139 
L 456.248011 85.484508 
L 454.206548 89.105941 
L 452.165085 90.032098 
L 450.123621 89.045634 
L 448.082158 92.089436 
L 446.040694 91.154246 
L 443.999231 92.589549 
L 441.957768 90.323667 
L 439.916304 96.615551 
L 437.874841 96.534175 
L 435.833377 97.349836 
L 433.791914 100.236865 
L 431.75045 100.647174 
L 429.708987 101.705562 
L 427.667524 100.685705 
L 425.62606 105.841231 
L 423.584597 104.353413 
L 421.543133 109.098827 
L 419.50167 111.973977 
L 417.460207 113.977351 
L 415.418743 118.214144 
L 413.37728 120.797406 
L 411.335816 121.906472 
L 409.294353 124.18574 
L 407.252889 125.577719 
L 405.211426 128.159075 
L 403.169963 127.804436 
L 401.128499 131.677945 
L 399.087036 134.342715 
L 397.045572 136.437146 
L 395.004109 137.7843 
L 392.962646 138.294001 
L 390.921182 143.170153 
L 388.879719 144.62109 
L 386.838255 147.778778 
L 384.796792 151.522366 
L 382.755328 153.463446 
L 380.713865 150.947964 
L 378.672402 152.084803 
L 376.630938 156.879343 
L 374.589475 157.506548 
L 372.548011 160.536822 
L 370.506548 162.435061 
L 368.465085 163.014721 
L 366.423621 164.081347 
L 364.382158 165.88155 
L 362.340694 168.420572 
L 360.299231 165.584836 
L 358.257768 167.589897 
L 356.216304 167.139766 
L 354.174841 170.822656 
L 352.133377 171.00112 
L 350.091914 169.297022 
L 348.05045 171.102473 
L 346.008987 173.475712 
L 343.967524 168.209457 
L 341.92606 173.835754 
L 339.884597 167.692671 
L 337.843133 167.393116 
L 335.80167 166.369358 
L 333.760207 168.230916 
L 331.718743 169.072127 
L 329.67728 167.762249 
L 327.635816 163.584013 
L 325.594353 166.443847 
L 323.552889 159.219701 
L 321.511426 150.288715 
L 319.469963 153.007651 
L 317.428499 157.293192 
L 315.387036 146.130686 
L 313.345572 147.258306 
L 311.304109 144.203257 
L 309.262646 142.37816 
L 307.221182 128.447775 
L 305.179719 126.572541 
L 303.138255 121.047504 
L 301.096792 109.567516 
L 299.055328 100.505268 
L 297.013865 110.314659 
L 294.972402 104.516904 
L 292.930938 97.027309 
L 290.889475 93.177556 
L 288.848011 87.470647 
L 286.806548 79.070065 
L 284.765085 81.835677 
L 282.723621 67.794925 
L 280.682158 60.997584 
L 278.640694 56.70404 
L 276.599231 54.914142 
L 274.557768 54.932338 
L 272.516304 52.740821 
L 270.474841 54.802733 
L 268.433377 58.648436 
L 266.391914 53.00997 
L 264.35045 52.938086 
L 262.308987 60.117049 
L 260.267524 61.591862 
L 258.22606 60.268321 
L 256.184597 72.2374 
L 254.143133 64.903901 
L 252.10167 68.313902 
L 250.060207 78.351491 
L 248.018743 76.835258 
L 245.97728 80.963265 
L 243.935816 84.132471 
L 241.894353 88.757085 
L 239.852889 92.662939 
L 237.811426 96.817758 
L 235.769963 101.405742 
L 233.728499 104.444962 
L 231.687036 109.787946 
L 229.645572 111.383328 
L 227.604109 119.138422 
L 225.562646 119.835304 
L 223.521182 124.320213 
L 221.479719 129.344603 
L 219.438255 133.038872 
L 217.396792 137.721808 
L 215.355328 141.544284 
L 213.313865 146.602279 
L 211.272402 149.971425 
L 209.230938 154.042122 
L 207.189475 159.005291 
L 205.148011 163.319986 
L 203.106548 166.537735 
L 201.065085 170.839263 
L 199.023621 173.592827 
L 196.982158 177.92458 
L 194.940694 181.550306 
L 192.899231 184.731399 
L 190.857768 188.561873 
L 188.816304 191.75468 
L 186.774841 194.454855 
L 184.733377 197.451803 
L 182.691914 199.672036 
L 180.65045 203.279258 
L 178.608987 205.843686 
L 176.567524 208.105156 
L 174.52606 210.810612 
L 172.484597 212.604305 
L 170.443133 215.050006 
L 168.40167 217.594856 
L 166.360207 220.356723 
L 164.318743 222.550538 
L 162.27728 224.709649 
L 160.235816 226.888644 
L 158.194353 229.226063 
L 156.152889 231.508029 
L 154.111426 233.448789 
L 152.069963 235.518752 
L 150.028499 237.146014 
L 147.987036 239.450584 
L 145.945572 241.021214 
L 143.904109 242.886053 
L 141.862646 245.187337 
L 139.821182 246.689081 
L 137.779719 247.00425 
L 135.738255 248.830215 
L 133.696792 249.686778 
L 131.655328 251.401078 
L 129.613865 253.464676 
L 127.572402 254.412323 
L 125.530938 255.275462 
L 123.489475 255.284996 
L 121.448011 256.186059 
L 119.406548 256.719957 
L 117.365085 257.265856 
L 115.323621 258.619263 
L 113.282158 259.342853 
L 111.240694 260.407297 
L 109.199231 259.538807 
L 107.157768 260.096724 
L 105.116304 258.847804 
L 103.074841 260.5138 
L 101.033377 260.665027 
L 98.991914 261.791703 
L 96.95045 258.930472 
L 94.908987 262.232641 
L 92.867524 261.922521 
L 90.82606 259.947991 
L 88.784597 259.430841 
L 86.743133 261.092225 
L 84.70167 264.059359 
L 82.660207 262.854777 
L 80.618743 262.748123 
L 78.57728 259.655744 
L 76.535816 259.835144 
L 74.494353 260.473744 
L 72.452889 262.248777 
L 70.411426 261.6508 
L 68.369963 261.178638 
L 66.328499 261.349509 
L 64.287036 262.410971 
L 62.245572 262.155558 
L 60.204109 262.704593 
L 58.162646 263.810601 
L 56.121182 262.911117 
L 54.079719 264.491968 
L 52.038255 264.653815 
L 49.996792 264.884247 
L 47.955328 265.999999 
L 45.913865 266.123792 
L 43.872402 267.331406 
L 41.830938 268.592685 
L 39.789475 268.722624 
L 37.748011 268.318091 
L 35.706548 268.085508 
L 33.665085 270.631804 
L 31.623621 270.287979 
L 29.582158 272.129715 
L 27.540694 272.240803 
L 25.499231 271.759554 
L 23.457768 273.376388 
L 21.416304 271.904051 
L 19.374841 272.096871 
L 17.333377 274.182307 
L 15.291914 272.710937 
L 13.25045 274.725995 
L 11.208987 275.277322 
L 9.167524 273.694566 
L 7.12606 268.439119 
L 5.084597 271.714891 
L 3.043133 270.027856 
L 1.00167 262.17444 
L -1.039793 268.650521 
L -3.081257 269.890342 
L -5.12272 262.704731 
L -7.164184 260.420334 
L -9.205647 264.251002 
L -11.247111 255.668989 
L -13.288574 241.205191 
L -15.330037 256.786038 
L -17.371501 262.821474 
L -19.412964 265.674317 
L -21.454428 246.041696 
L -23.495891 246.30594 
L -25.537354 236.36281 
L -27.578818 228.893603 
L -29.620281 243.807951 
L -31.661745 236.981816 
L -33.703208 223.582701 
L -35.744672 214.081469 
L -37.786135 214.307173 
L -39.827598 215.714567 
L -41.869062 213.373216 
L -43.910525 212.29213 
L -45.951989 217.390584 
L -47.993452 216.645212 
L -50.034915 213.113283 
L -52.076379 215.201485 
L -54.117842 213.691041 
L -56.159306 212.985179 
L -58.200769 213.337492 
L -60.242232 215.311223 
L -62.283696 216.60918 
L -64.325159 217.467801 
L -66.366623 219.373388 
L -68.408086 220.319205 
L -70.44955 221.809397 
L -72.491013 224.025568 
L -74.532476 225.958602 
L -76.57394 227.154089 
L -78.615403 228.694118 
L -80.656867 230.362702 
L -82.69833 231.517367 
L -84.739793 233.233408 
L -86.781257 235.267129 
L -88.82272 236.380685 
L -90.864184 237.192276 
L -92.905647 238.404518 
L -94.947111 239.58232 
L -96.988574 240.650402 
L -99.030037 241.646093 
L -101.071501 242.580333 
L -103.112964 243.909083 
L -105.154428 244.498602 
L -107.195891 245.394208 
L -109.237354 246.337135 
L -111.278818 247.175171 
L -113.320281 247.956511 
L -115.361745 248.592902 
L -117.403208 249.314536 
L -119.444672 250.348379 
L -121.486135 251.016213 
L -123.527598 251.870616 
L -125.569062 252.68278 
L -127.610525 253.524742 
L -129.651989 254.390158 
L -131.693452 255.28265 
L -133.734915 256.017645 
L -135.776379 256.886224 
L -137.817842 257.646312 
L -139.859306 258.44823 
L -141.900769 259.179463 
L -143.942232 259.90964 
L -145.983696 260.608376 
L -148.025159 261.331307 
L -150.066623 262.10595 
L -152.108086 262.6781 
L -154.14955 263.40227 
L -156.191013 264.023678 
L -158.232476 264.652675 
L -160.27394 265.244443 
L -162.315403 265.907921 
L -164.356867 266.539095 
L -166.39833 267.138898 
L -168.439793 267.742988 
L -170.481257 268.330161 
L -172.52272 268.94291 
L -174.564184 269.609538 
L -176.605647 270.112392 
L -178.647111 270.721187 
L -180.688574 271.334602 
L -182.730037 271.949544 
L -184.771501 272.545713 
L -186.812964 273.102491 
L -188.854428 273.715765 
L -190.895891 274.314617 
L -192.937354 274.912624 
L -194.978818 275.503318 
L -197.020281 276.104238 
L -199.061745 276.719111 
L -201.103208 277.290642 
L -203.144672 277.841087 
L -205.186135 278.41084 
L -207.227598 278.967669 
L -209.269062 279.529856 
L -211.310525 280.090038 
L -213.351989 280.648965 
L -215.393452 281.200036 
L -217.434915 281.75047 
L -219.476379 282.282651 
L -221.517842 282.849772 
L -223.559306 283.397581 
L -225.600769 283.908706 
L -227.642232 284.44808 
L -229.683696 284.980399 
L -231.725159 285.531251 
L -233.766623 286.089574 
L -235.808086 286.638594 
L -237.84955 287.196825 
L -239.891013 287.760698 
L -241.932476 288.342983 
L -243.97394 288.910807 
L -246.015403 289.542506 
L -248.056867 290.084344 
L -250.09833 290.686866 
L -252.139793 291.277484 
L -254.181257 291.8509 
L -256.22272 292.402048 
L -258.264184 292.964226 
L -260.305647 293.534265 
L -262.347111 294.112129 
L -264.388574 294.673596 
L -266.430037 295.212981 
L -268.471501 295.756532 
L -270.512964 296.306461 
L -272.554428 296.838659 
L -274.595891 297.381357 
L -276.637354 297.915101 
L -278.678818 298.420764 
L -280.720281 298.92035 
L -282.761745 299.410326 
L -284.803208 299.868725 
L -286.844672 300.311304 
L -288.886135 300.764723 
L -290.927598 301.174155 
L -292.969062 301.550566 
L -295.010525 301.943326 
L -297.051989 302.315613 
L -299.093452 302.63361 
L -301.134915 302.964217 
L -303.176379 303.260835 
L -305.217842 303.565114 
L -307.259306 303.836426 
L -309.300769 304.099627 
L -311.342232 304.340536 
L -313.383696 304.56724 
L -315.425159 304.77008 
L -317.466623 304.95633 
L -319.508086 305.146881 
L -321.54955 305.321374 
L -323.591013 305.474161 
L -325.632476 305.648539 
L -327.67394 305.799219 
L -329.715403 305.944236 
L -331.756867 306.086228 
L -333.79833 306.225903 
L -335.839793 306.3321 
L -337.881257 306.474716 
L -339.92272 306.609908 
L -341.964184 306.723499 
L -344.005647 306.838251 
L -346.047111 306.950265 
L -348.088574 307.069312 
L -350.130037 307.173596 
L -352.171501 307.277669 
L -354.212964 307.385316 
L -356.254428 307.48063 
L -358.295891 307.577943 
L -360.337354 307.672877 
L -362.378818 307.771488 
L -364.420281 307.863632 
L -366.461745 307.934618 
L -368.503208 308.029153 
L -370.544672 308.103843 
L -372.586135 308.177722 
L -374.627598 308.242418 
L -376.669062 308.308807 
L -378.710525 308.372945 
L -380.751989 308.463632 
L -382.793452 308.544755 
L -384.834915 308.610458 
L -386.876379 308.673093 
L -388.917842 308.743926 
L -390.959306 308.819961 
L -393.000769 308.902929 
z
" clip-path="url(#p6cc3628271)" style="fill: #008000; fill-opacity: 0.3; stroke: #008000; stroke-opacity: 0.3"/>
   </g>
   <g id="matplotlib.axis_1">
    <g id="xtick_1">
     <g id="line2d_1">
      <defs>
       <path id="m2626505c79" d="M 0 0 
L 0 3.5 
" style="stroke: #000000; stroke-width: 0.8"/>
      </defs>
      <g>
       <use xlink:href="#m2626505c79" x="103.074841" y="395.28" style="stroke: #000000; stroke-width: 0.8"/>
      </g>
     </g>
     <g id="text_1">
      <!-- 2022-03-01 -->
      <g transform="translate(17.945813 495.213718) rotate(-45) scale(0.2 -0.2)">
       <defs>
        <path id="DejaVuSans-32" d="M 1228 531 
L 3431 531 
L 3431 0 
L 469 0 
L 469 531 
Q 828 903 1448 1529 
Q 2069 2156 2228 2338 
Q 2531 2678 2651 2914 
Q 2772 3150 2772 3378 
Q 2772 3750 2511 3984 
Q 2250 4219 1831 4219 
Q 1534 4219 1204 4116 
Q 875 4013 500 3803 
L 500 4441 
Q 881 4594 1212 4672 
Q 1544 4750 1819 4750 
Q 2544 4750 2975 4387 
Q 3406 4025 3406 3419 
Q 3406 3131 3298 2873 
Q 3191 2616 2906 2266 
Q 2828 2175 2409 1742 
Q 1991 1309 1228 531 
z
" transform="scale(0.015625)"/>
        <path id="DejaVuSans-30" d="M 2034 4250 
Q 1547 4250 1301 3770 
Q 1056 3291 1056 2328 
Q 1056 1369 1301 889 
Q 1547 409 2034 409 
Q 2525 409 2770 889 
Q 3016 1369 3016 2328 
Q 3016 3291 2770 3770 
Q 2525 4250 2034 4250 
z
M 2034 4750 
Q 2819 4750 3233 4129 
Q 3647 3509 3647 2328 
Q 3647 1150 3233 529 
Q 2819 -91 2034 -91 
Q 1250 -91 836 529 
Q 422 1150 422 2328 
Q 422 3509 836 4129 
Q 1250 4750 2034 4750 
z
" transform="scale(0.015625)"/>
        <path id="DejaVuSans-2d" d="M 313 2009 
L 1997 2009 
L 1997 1497 
L 313 1497 
L 313 2009 
z
" transform="scale(0.015625)"/>
        <path id="DejaVuSans-33" d="M 2597 2516 
Q 3050 2419 3304 2112 
Q 3559 1806 3559 1356 
Q 3559 666 3084 287 
Q 2609 -91 1734 -91 
Q 1441 -91 1130 -33 
Q 819 25 488 141 
L 488 750 
Q 750 597 1062 519 
Q 1375 441 1716 441 
Q 2309 441 2620 675 
Q 2931 909 2931 1356 
Q 2931 1769 2642 2001 
Q 2353 2234 1838 2234 
L 1294 2234 
L 1294 2753 
L 1863 2753 
Q 2328 2753 2575 2939 
Q 2822 3125 2822 3475 
Q 2822 3834 2567 4026 
Q 2313 4219 1838 4219 
Q 1578 4219 1281 4162 
Q 984 4106 628 3988 
L 628 4550 
Q 988 4650 1302 4700 
Q 1616 4750 1894 4750 
Q 2613 4750 3031 4423 
Q 3450 4097 3450 3541 
Q 3450 3153 3228 2886 
Q 3006 2619 2597 2516 
z
" transform="scale(0.015625)"/>
        <path id="DejaVuSans-31" d="M 794 531 
L 1825 531 
L 1825 4091 
L 703 3866 
L 703 4441 
L 1819 4666 
L 2450 4666 
L 2450 531 
L 3481 531 
L 3481 0 
L 794 0 
L 794 531 
z
" transform="scale(0.015625)"/>
       </defs>
       <use xlink:href="#DejaVuSans-32"/>
       <use xlink:href="#DejaVuSans-30" x="63.623047"/>
       <use xlink:href="#DejaVuSans-32" x="127.246094"/>
       <use xlink:href="#DejaVuSans-32" x="190.869141"/>
       <use xlink:href="#DejaVuSans-2d" x="254.492188"/>
       <use xlink:href="#DejaVuSans-30" x="290.576172"/>
       <use xlink:href="#DejaVuSans-33" x="354.199219"/>
       <use xlink:href="#DejaVuSans-2d" x="417.822266"/>
       <use xlink:href="#DejaVuSans-30" x="453.90625"/>
       <use xlink:href="#DejaVuSans-31" x="517.529297"/>
      </g>
     </g>
    </g>
    <g id="xtick_2">
     <g id="line2d_2">
      <g>
       <use xlink:href="#m2626505c79" x="160.235816" y="395.28" style="stroke: #000000; stroke-width: 0.8"/>
      </g>
     </g>
     <g id="text_2">
      <!-- 2022-03-29 -->
      <g transform="translate(75.106789 495.213718) rotate(-45) scale(0.2 -0.2)">
       <defs>
        <path id="DejaVuSans-39" d="M 703 97 
L 703 672 
Q 941 559 1184 500 
Q 1428 441 1663 441 
Q 2288 441 2617 861 
Q 2947 1281 2994 2138 
Q 2813 1869 2534 1725 
Q 2256 1581 1919 1581 
Q 1219 1581 811 2004 
Q 403 2428 403 3163 
Q 403 3881 828 4315 
Q 1253 4750 1959 4750 
Q 2769 4750 3195 4129 
Q 3622 3509 3622 2328 
Q 3622 1225 3098 567 
Q 2575 -91 1691 -91 
Q 1453 -91 1209 -44 
Q 966 3 703 97 
z
M 1959 2075 
Q 2384 2075 2632 2365 
Q 2881 2656 2881 3163 
Q 2881 3666 2632 3958 
Q 2384 4250 1959 4250 
Q 1534 4250 1286 3958 
Q 1038 3666 1038 3163 
Q 1038 2656 1286 2365 
Q 1534 2075 1959 2075 
z
" transform="scale(0.015625)"/>
       </defs>
       <use xlink:href="#DejaVuSans-32"/>
       <use xlink:href="#DejaVuSans-30" x="63.623047"/>
       <use xlink:href="#DejaVuSans-32" x="127.246094"/>
       <use xlink:href="#DejaVuSans-32" x="190.869141"/>
       <use xlink:href="#DejaVuSans-2d" x="254.492188"/>
       <use xlink:href="#DejaVuSans-30" x="290.576172"/>
       <use xlink:href="#DejaVuSans-33" x="354.199219"/>
       <use xlink:href="#DejaVuSans-2d" x="417.822266"/>
       <use xlink:href="#DejaVuSans-32" x="453.90625"/>
       <use xlink:href="#DejaVuSans-39" x="517.529297"/>
      </g>
     </g>
    </g>
    <g id="xtick_3">
     <g id="line2d_3">
      <g>
       <use xlink:href="#m2626505c79" x="217.396792" y="395.28" style="stroke: #000000; stroke-width: 0.8"/>
      </g>
     </g>
     <g id="text_3">
      <!-- 2022-04-26 -->
      <g transform="translate(132.267765 495.213718) rotate(-45) scale(0.2 -0.2)">
       <defs>
        <path id="DejaVuSans-34" d="M 2419 4116 
L 825 1625 
L 2419 1625 
L 2419 4116 
z
M 2253 4666 
L 3047 4666 
L 3047 1625 
L 3713 1625 
L 3713 1100 
L 3047 1100 
L 3047 0 
L 2419 0 
L 2419 1100 
L 313 1100 
L 313 1709 
L 2253 4666 
z
" transform="scale(0.015625)"/>
        <path id="DejaVuSans-36" d="M 2113 2584 
Q 1688 2584 1439 2293 
Q 1191 2003 1191 1497 
Q 1191 994 1439 701 
Q 1688 409 2113 409 
Q 2538 409 2786 701 
Q 3034 994 3034 1497 
Q 3034 2003 2786 2293 
Q 2538 2584 2113 2584 
z
M 3366 4563 
L 3366 3988 
Q 3128 4100 2886 4159 
Q 2644 4219 2406 4219 
Q 1781 4219 1451 3797 
Q 1122 3375 1075 2522 
Q 1259 2794 1537 2939 
Q 1816 3084 2150 3084 
Q 2853 3084 3261 2657 
Q 3669 2231 3669 1497 
Q 3669 778 3244 343 
Q 2819 -91 2113 -91 
Q 1303 -91 875 529 
Q 447 1150 447 2328 
Q 447 3434 972 4092 
Q 1497 4750 2381 4750 
Q 2619 4750 2861 4703 
Q 3103 4656 3366 4563 
z
" transform="scale(0.015625)"/>
       </defs>
       <use xlink:href="#DejaVuSans-32"/>
       <use xlink:href="#DejaVuSans-30" x="63.623047"/>
       <use xlink:href="#DejaVuSans-32" x="127.246094"/>
       <use xlink:href="#DejaVuSans-32" x="190.869141"/>
       <use xlink:href="#DejaVuSans-2d" x="254.492188"/>
       <use xlink:href="#DejaVuSans-30" x="290.576172"/>
       <use xlink:href="#DejaVuSans-34" x="354.199219"/>
       <use xlink:href="#DejaVuSans-2d" x="417.822266"/>
       <use xlink:href="#DejaVuSans-32" x="453.90625"/>
       <use xlink:href="#DejaVuSans-36" x="517.529297"/>
      </g>
     </g>
    </g>
    <g id="xtick_4">
     <g id="line2d_4">
      <g>
       <use xlink:href="#m2626505c79" x="274.557768" y="395.28" style="stroke: #000000; stroke-width: 0.8"/>
      </g>
     </g>
     <g id="text_4">
      <!-- 2022-05-24 -->
      <g transform="translate(189.42874 495.213718) rotate(-45) scale(0.2 -0.2)">
       <defs>
        <path id="DejaVuSans-35" d="M 691 4666 
L 3169 4666 
L 3169 4134 
L 1269 4134 
L 1269 2991 
Q 1406 3038 1543 3061 
Q 1681 3084 1819 3084 
Q 2600 3084 3056 2656 
Q 3513 2228 3513 1497 
Q 3513 744 3044 326 
Q 2575 -91 1722 -91 
Q 1428 -91 1123 -41 
Q 819 9 494 109 
L 494 744 
Q 775 591 1075 516 
Q 1375 441 1709 441 
Q 2250 441 2565 725 
Q 2881 1009 2881 1497 
Q 2881 1984 2565 2268 
Q 2250 2553 1709 2553 
Q 1456 2553 1204 2497 
Q 953 2441 691 2322 
L 691 4666 
z
" transform="scale(0.015625)"/>
       </defs>
       <use xlink:href="#DejaVuSans-32"/>
       <use xlink:href="#DejaVuSans-30" x="63.623047"/>
       <use xlink:href="#DejaVuSans-32" x="127.246094"/>
       <use xlink:href="#DejaVuSans-32" x="190.869141"/>
       <use xlink:href="#DejaVuSans-2d" x="254.492188"/>
       <use xlink:href="#DejaVuSans-30" x="290.576172"/>
       <use xlink:href="#DejaVuSans-35" x="354.199219"/>
       <use xlink:href="#DejaVuSans-2d" x="417.822266"/>
       <use xlink:href="#DejaVuSans-32" x="453.90625"/>
       <use xlink:href="#DejaVuSans-34" x="517.529297"/>
      </g>
     </g>
    </g>
    <g id="xtick_5">
     <g id="line2d_5">
      <g>
       <use xlink:href="#m2626505c79" x="331.718743" y="395.28" style="stroke: #000000; stroke-width: 0.8"/>
      </g>
     </g>
     <g id="text_5">
      <!-- 2022-06-21 -->
      <g transform="translate(246.589716 495.213718) rotate(-45) scale(0.2 -0.2)">
       <use xlink:href="#DejaVuSans-32"/>
       <use xlink:href="#DejaVuSans-30" x="63.623047"/>
       <use xlink:href="#DejaVuSans-32" x="127.246094"/>
       <use xlink:href="#DejaVuSans-32" x="190.869141"/>
       <use xlink:href="#DejaVuSans-2d" x="254.492188"/>
       <use xlink:href="#DejaVuSans-30" x="290.576172"/>
       <use xlink:href="#DejaVuSans-36" x="354.199219"/>
       <use xlink:href="#DejaVuSans-2d" x="417.822266"/>
       <use xlink:href="#DejaVuSans-32" x="453.90625"/>
       <use xlink:href="#DejaVuSans-31" x="517.529297"/>
      </g>
     </g>
    </g>
    <g id="xtick_6">
     <g id="line2d_6">
      <g>
       <use xlink:href="#m2626505c79" x="388.879719" y="395.28" style="stroke: #000000; stroke-width: 0.8"/>
      </g>
     </g>
     <g id="text_6">
      <!-- 2022-07-19 -->
      <g transform="translate(303.750691 495.213718) rotate(-45) scale(0.2 -0.2)">
       <defs>
        <path id="DejaVuSans-37" d="M 525 4666 
L 3525 4666 
L 3525 4397 
L 1831 0 
L 1172 0 
L 2766 4134 
L 525 4134 
L 525 4666 
z
" transform="scale(0.015625)"/>
       </defs>
       <use xlink:href="#DejaVuSans-32"/>
       <use xlink:href="#DejaVuSans-30" x="63.623047"/>
       <use xlink:href="#DejaVuSans-32" x="127.246094"/>
       <use xlink:href="#DejaVuSans-32" x="190.869141"/>
       <use xlink:href="#DejaVuSans-2d" x="254.492188"/>
       <use xlink:href="#DejaVuSans-30" x="290.576172"/>
       <use xlink:href="#DejaVuSans-37" x="354.199219"/>
       <use xlink:href="#DejaVuSans-2d" x="417.822266"/>
       <use xlink:href="#DejaVuSans-31" x="453.90625"/>
       <use xlink:href="#DejaVuSans-39" x="517.529297"/>
      </g>
     </g>
    </g>
    <g id="xtick_7">
     <g id="line2d_7">
      <g>
       <use xlink:href="#m2626505c79" x="446.040694" y="395.28" style="stroke: #000000; stroke-width: 0.8"/>
      </g>
     </g>
     <g id="text_7">
      <!-- 2022-08-16 -->
      <g transform="translate(360.911667 495.213718) rotate(-45) scale(0.2 -0.2)">
       <defs>
        <path id="DejaVuSans-38" d="M 2034 2216 
Q 1584 2216 1326 1975 
Q 1069 1734 1069 1313 
Q 1069 891 1326 650 
Q 1584 409 2034 409 
Q 2484 409 2743 651 
Q 3003 894 3003 1313 
Q 3003 1734 2745 1975 
Q 2488 2216 2034 2216 
z
M 1403 2484 
Q 997 2584 770 2862 
Q 544 3141 544 3541 
Q 544 4100 942 4425 
Q 1341 4750 2034 4750 
Q 2731 4750 3128 4425 
Q 3525 4100 3525 3541 
Q 3525 3141 3298 2862 
Q 3072 2584 2669 2484 
Q 3125 2378 3379 2068 
Q 3634 1759 3634 1313 
Q 3634 634 3220 271 
Q 2806 -91 2034 -91 
Q 1263 -91 848 271 
Q 434 634 434 1313 
Q 434 1759 690 2068 
Q 947 2378 1403 2484 
z
M 1172 3481 
Q 1172 3119 1398 2916 
Q 1625 2713 2034 2713 
Q 2441 2713 2670 2916 
Q 2900 3119 2900 3481 
Q 2900 3844 2670 4047 
Q 2441 4250 2034 4250 
Q 1625 4250 1398 4047 
Q 1172 3844 1172 3481 
z
" transform="scale(0.015625)"/>
       </defs>
       <use xlink:href="#DejaVuSans-32"/>
       <use xlink:href="#DejaVuSans-30" x="63.623047"/>
       <use xlink:href="#DejaVuSans-32" x="127.246094"/>
       <use xlink:href="#DejaVuSans-32" x="190.869141"/>
       <use xlink:href="#DejaVuSans-2d" x="254.492188"/>
       <use xlink:href="#DejaVuSans-30" x="290.576172"/>
       <use xlink:href="#DejaVuSans-38" x="354.199219"/>
       <use xlink:href="#DejaVuSans-2d" x="417.822266"/>
       <use xlink:href="#DejaVuSans-31" x="453.90625"/>
       <use xlink:href="#DejaVuSans-36" x="517.529297"/>
      </g>
     </g>
    </g>
    <g id="xtick_8">
     <g id="line2d_8">
      <g>
       <use xlink:href="#m2626505c79" x="503.20167" y="395.28" style="stroke: #000000; stroke-width: 0.8"/>
      </g>
     </g>
     <g id="text_8">
      <!-- 2022-09-13 -->
      <g transform="translate(418.072643 495.213718) rotate(-45) scale(0.2 -0.2)">
       <use xlink:href="#DejaVuSans-32"/>
       <use xlink:href="#DejaVuSans-30" x="63.623047"/>
       <use xlink:href="#DejaVuSans-32" x="127.246094"/>
       <use xlink:href="#DejaVuSans-32" x="190.869141"/>
       <use xlink:href="#DejaVuSans-2d" x="254.492188"/>
       <use xlink:href="#DejaVuSans-30" x="290.576172"/>
       <use xlink:href="#DejaVuSans-39" x="354.199219"/>
       <use xlink:href="#DejaVuSans-2d" x="417.822266"/>
       <use xlink:href="#DejaVuSans-31" x="453.90625"/>
       <use xlink:href="#DejaVuSans-33" x="517.529297"/>
      </g>
     </g>
    </g>
    <g id="xtick_9">
     <g id="line2d_9">
      <g>
       <use xlink:href="#m2626505c79" x="560.362646" y="395.28" style="stroke: #000000; stroke-width: 0.8"/>
      </g>
     </g>
     <g id="text_9">
      <!-- 2022-10-11 -->
      <g transform="translate(475.233618 495.213718) rotate(-45) scale(0.2 -0.2)">
       <use xlink:href="#DejaVuSans-32"/>
       <use xlink:href="#DejaVuSans-30" x="63.623047"/>
       <use xlink:href="#DejaVuSans-32" x="127.246094"/>
       <use xlink:href="#DejaVuSans-32" x="190.869141"/>
       <use xlink:href="#DejaVuSans-2d" x="254.492188"/>
       <use xlink:href="#DejaVuSans-31" x="290.576172"/>
       <use xlink:href="#DejaVuSans-30" x="354.199219"/>
       <use xlink:href="#DejaVuSans-2d" x="417.822266"/>
       <use xlink:href="#DejaVuSans-31" x="453.90625"/>
       <use xlink:href="#DejaVuSans-31" x="517.529297"/>
      </g>
     </g>
    </g>
    <g id="xtick_10">
     <g id="line2d_10">
      <g>
       <use xlink:href="#m2626505c79" x="617.523621" y="395.28" style="stroke: #000000; stroke-width: 0.8"/>
      </g>
     </g>
     <g id="text_10">
      <!-- 2022-11-08 -->
      <g transform="translate(532.394594 495.213718) rotate(-45) scale(0.2 -0.2)">
       <use xlink:href="#DejaVuSans-32"/>
       <use xlink:href="#DejaVuSans-30" x="63.623047"/>
       <use xlink:href="#DejaVuSans-32" x="127.246094"/>
       <use xlink:href="#DejaVuSans-32" x="190.869141"/>
       <use xlink:href="#DejaVuSans-2d" x="254.492188"/>
       <use xlink:href="#DejaVuSans-31" x="290.576172"/>
       <use xlink:href="#DejaVuSans-31" x="354.199219"/>
       <use xlink:href="#DejaVuSans-2d" x="417.822266"/>
       <use xlink:href="#DejaVuSans-30" x="453.90625"/>
       <use xlink:href="#DejaVuSans-38" x="517.529297"/>
      </g>
     </g>
    </g>
    <g id="xtick_11">
     <g id="line2d_11">
      <g>
       <use xlink:href="#m2626505c79" x="674.684597" y="395.28" style="stroke: #000000; stroke-width: 0.8"/>
      </g>
     </g>
     <g id="text_11">
      <!-- 2022-12-06 -->
      <g transform="translate(589.555569 495.213718) rotate(-45) scale(0.2 -0.2)">
       <use xlink:href="#DejaVuSans-32"/>
       <use xlink:href="#DejaVuSans-30" x="63.623047"/>
       <use xlink:href="#DejaVuSans-32" x="127.246094"/>
       <use xlink:href="#DejaVuSans-32" x="190.869141"/>
       <use xlink:href="#DejaVuSans-2d" x="254.492188"/>
       <use xlink:href="#DejaVuSans-31" x="290.576172"/>
       <use xlink:href="#DejaVuSans-32" x="354.199219"/>
       <use xlink:href="#DejaVuSans-2d" x="417.822266"/>
       <use xlink:href="#DejaVuSans-30" x="453.90625"/>
       <use xlink:href="#DejaVuSans-36" x="517.529297"/>
      </g>
     </g>
    </g>
    <g id="xtick_12">
     <g id="line2d_12">
      <g>
       <use xlink:href="#m2626505c79" x="731.845572" y="395.28" style="stroke: #000000; stroke-width: 0.8"/>
      </g>
     </g>
     <g id="text_12">
      <!-- 2023-01-03 -->
      <g transform="translate(646.716545 495.213718) rotate(-45) scale(0.2 -0.2)">
       <use xlink:href="#DejaVuSans-32"/>
       <use xlink:href="#DejaVuSans-30" x="63.623047"/>
       <use xlink:href="#DejaVuSans-32" x="127.246094"/>
       <use xlink:href="#DejaVuSans-33" x="190.869141"/>
       <use xlink:href="#DejaVuSans-2d" x="254.492188"/>
       <use xlink:href="#DejaVuSans-30" x="290.576172"/>
       <use xlink:href="#DejaVuSans-31" x="354.199219"/>
       <use xlink:href="#DejaVuSans-2d" x="417.822266"/>
       <use xlink:href="#DejaVuSans-30" x="453.90625"/>
       <use xlink:href="#DejaVuSans-33" x="517.529297"/>
      </g>
     </g>
    </g>
    <g id="xtick_13">
     <g id="line2d_13">
      <g>
       <use xlink:href="#m2626505c79" x="789.006548" y="395.28" style="stroke: #000000; stroke-width: 0.8"/>
      </g>
     </g>
     <g id="text_13">
      <!-- 2023-01-31 -->
      <g transform="translate(703.877521 495.213718) rotate(-45) scale(0.2 -0.2)">
       <use xlink:href="#DejaVuSans-32"/>
       <use xlink:href="#DejaVuSans-30" x="63.623047"/>
       <use xlink:href="#DejaVuSans-32" x="127.246094"/>
       <use xlink:href="#DejaVuSans-33" x="190.869141"/>
       <use xlink:href="#DejaVuSans-2d" x="254.492188"/>
       <use xlink:href="#DejaVuSans-30" x="290.576172"/>
       <use xlink:href="#DejaVuSans-31" x="354.199219"/>
       <use xlink:href="#DejaVuSans-2d" x="417.822266"/>
       <use xlink:href="#DejaVuSans-33" x="453.90625"/>
       <use xlink:href="#DejaVuSans-31" x="517.529297"/>
      </g>
     </g>
    </g>
    <g id="xtick_14">
     <g id="line2d_14">
      <g>
       <use xlink:href="#m2626505c79" x="846.167524" y="395.28" style="stroke: #000000; stroke-width: 0.8"/>
      </g>
     </g>
     <g id="text_14">
      <!-- 2023-02-28 -->
      <g transform="translate(761.038496 495.213718) rotate(-45) scale(0.2 -0.2)">
       <use xlink:href="#DejaVuSans-32"/>
       <use xlink:href="#DejaVuSans-30" x="63.623047"/>
       <use xlink:href="#DejaVuSans-32" x="127.246094"/>
       <use xlink:href="#DejaVuSans-33" x="190.869141"/>
       <use xlink:href="#DejaVuSans-2d" x="254.492188"/>
       <use xlink:href="#DejaVuSans-30" x="290.576172"/>
       <use xlink:href="#DejaVuSans-32" x="354.199219"/>
       <use xlink:href="#DejaVuSans-2d" x="417.822266"/>
       <use xlink:href="#DejaVuSans-32" x="453.90625"/>
       <use xlink:href="#DejaVuSans-38" x="517.529297"/>
      </g>
     </g>
    </g>
    <g id="xtick_15">
     <g id="line2d_15">
      <g>
       <use xlink:href="#m2626505c79" x="903.328499" y="395.28" style="stroke: #000000; stroke-width: 0.8"/>
      </g>
     </g>
     <g id="text_15">
      <!-- 2023-03-28 -->
      <g transform="translate(818.199472 495.213718) rotate(-45) scale(0.2 -0.2)">
       <use xlink:href="#DejaVuSans-32"/>
       <use xlink:href="#DejaVuSans-30" x="63.623047"/>
       <use xlink:href="#DejaVuSans-32" x="127.246094"/>
       <use xlink:href="#DejaVuSans-33" x="190.869141"/>
       <use xlink:href="#DejaVuSans-2d" x="254.492188"/>
       <use xlink:href="#DejaVuSans-30" x="290.576172"/>
       <use xlink:href="#DejaVuSans-33" x="354.199219"/>
       <use xlink:href="#DejaVuSans-2d" x="417.822266"/>
       <use xlink:href="#DejaVuSans-32" x="453.90625"/>
       <use xlink:href="#DejaVuSans-38" x="517.529297"/>
      </g>
     </g>
    </g>
    <g id="xtick_16">
     <g id="line2d_16">
      <g>
       <use xlink:href="#m2626505c79" x="940.074841" y="395.28" style="stroke: #000000; stroke-width: 0.8"/>
      </g>
     </g>
     <g id="text_16">
      <!-- 2023-04-15 -->
      <g transform="translate(854.945813 495.213718) rotate(-45) scale(0.2 -0.2)">
       <use xlink:href="#DejaVuSans-32"/>
       <use xlink:href="#DejaVuSans-30" x="63.623047"/>
       <use xlink:href="#DejaVuSans-32" x="127.246094"/>
       <use xlink:href="#DejaVuSans-33" x="190.869141"/>
       <use xlink:href="#DejaVuSans-2d" x="254.492188"/>
       <use xlink:href="#DejaVuSans-30" x="290.576172"/>
       <use xlink:href="#DejaVuSans-34" x="354.199219"/>
       <use xlink:href="#DejaVuSans-2d" x="417.822266"/>
       <use xlink:href="#DejaVuSans-31" x="453.90625"/>
       <use xlink:href="#DejaVuSans-35" x="517.529297"/>
      </g>
     </g>
    </g>
   </g>
   <g id="matplotlib.axis_2">
    <g id="ytick_1">
     <g id="line2d_17">
      <defs>
       <path id="m087ffe640f" d="M 0 0 
L -3.5 0 
" style="stroke: #000000; stroke-width: 0.8"/>
      </defs>
      <g>
       <use xlink:href="#m087ffe640f" x="103.074841" y="387.43497" style="stroke: #000000; stroke-width: 0.8"/>
      </g>
     </g>
     <g id="text_17">
      <!-- 0.05 -->
      <g transform="translate(34.784216 395.033407) scale(0.2 -0.2)">
       <defs>
        <path id="DejaVuSans-2212" d="M 678 2272 
L 4684 2272 
L 4684 1741 
L 678 1741 
L 678 2272 
z
" transform="scale(0.015625)"/>
        <path id="DejaVuSans-2e" d="M 684 794 
L 1344 794 
L 1344 0 
L 684 0 
L 684 794 
z
" transform="scale(0.015625)"/>
       </defs>
       <use xlink:href="#DejaVuSans-2212"/>
       <use xlink:href="#DejaVuSans-30" x="83.789062"/>
       <use xlink:href="#DejaVuSans-2e" x="147.412109"/>
       <use xlink:href="#DejaVuSans-30" x="179.199219"/>
       <use xlink:href="#DejaVuSans-35" x="242.822266"/>
      </g>
     </g>
    </g>
    <g id="ytick_2">
     <g id="line2d_18">
      <g>
       <use xlink:href="#m087ffe640f" x="103.074841" y="308.984666" style="stroke: #000000; stroke-width: 0.8"/>
      </g>
     </g>
     <g id="text_18">
      <!-- 0.00 -->
      <g transform="translate(51.543591 316.583104) scale(0.2 -0.2)">
       <use xlink:href="#DejaVuSans-30"/>
       <use xlink:href="#DejaVuSans-2e" x="63.623047"/>
       <use xlink:href="#DejaVuSans-30" x="95.410156"/>
       <use xlink:href="#DejaVuSans-30" x="159.033203"/>
      </g>
     </g>
    </g>
    <g id="ytick_3">
     <g id="line2d_19">
      <g>
       <use xlink:href="#m087ffe640f" x="103.074841" y="230.534363" style="stroke: #000000; stroke-width: 0.8"/>
      </g>
     </g>
     <g id="text_19">
      <!-- 0.05 -->
      <g transform="translate(51.543591 238.1328) scale(0.2 -0.2)">
       <use xlink:href="#DejaVuSans-30"/>
       <use xlink:href="#DejaVuSans-2e" x="63.623047"/>
       <use xlink:href="#DejaVuSans-30" x="95.410156"/>
       <use xlink:href="#DejaVuSans-35" x="159.033203"/>
      </g>
     </g>
    </g>
    <g id="ytick_4">
     <g id="line2d_20">
      <g>
       <use xlink:href="#m087ffe640f" x="103.074841" y="152.084059" style="stroke: #000000; stroke-width: 0.8"/>
      </g>
     </g>
     <g id="text_20">
      <!-- 0.10 -->
      <g transform="translate(51.543591 159.682496) scale(0.2 -0.2)">
       <use xlink:href="#DejaVuSans-30"/>
       <use xlink:href="#DejaVuSans-2e" x="63.623047"/>
       <use xlink:href="#DejaVuSans-31" x="95.410156"/>
       <use xlink:href="#DejaVuSans-30" x="159.033203"/>
      </g>
     </g>
    </g>
    <g id="ytick_5">
     <g id="line2d_21">
      <g>
       <use xlink:href="#m087ffe640f" x="103.074841" y="73.633755" style="stroke: #000000; stroke-width: 0.8"/>
      </g>
     </g>
     <g id="text_21">
      <!-- 0.15 -->
      <g transform="translate(51.543591 81.232193) scale(0.2 -0.2)">
       <use xlink:href="#DejaVuSans-30"/>
       <use xlink:href="#DejaVuSans-2e" x="63.623047"/>
       <use xlink:href="#DejaVuSans-31" x="95.410156"/>
       <use xlink:href="#DejaVuSans-35" x="159.033203"/>
      </g>
     </g>
    </g>
    <g id="text_22">
     <!-- Relative fitness $\gamma_y$ -->
     <g transform="translate(24.584216 291.84) rotate(-90) scale(0.2 -0.2)">
      <defs>
       <path id="DejaVuSans-52" d="M 2841 2188 
Q 3044 2119 3236 1894 
Q 3428 1669 3622 1275 
L 4263 0 
L 3584 0 
L 2988 1197 
Q 2756 1666 2539 1819 
Q 2322 1972 1947 1972 
L 1259 1972 
L 1259 0 
L 628 0 
L 628 4666 
L 2053 4666 
Q 2853 4666 3247 4331 
Q 3641 3997 3641 3322 
Q 3641 2881 3436 2590 
Q 3231 2300 2841 2188 
z
M 1259 4147 
L 1259 2491 
L 2053 2491 
Q 2509 2491 2742 2702 
Q 2975 2913 2975 3322 
Q 2975 3731 2742 3939 
Q 2509 4147 2053 4147 
L 1259 4147 
z
" transform="scale(0.015625)"/>
       <path id="DejaVuSans-65" d="M 3597 1894 
L 3597 1613 
L 953 1613 
Q 991 1019 1311 708 
Q 1631 397 2203 397 
Q 2534 397 2845 478 
Q 3156 559 3463 722 
L 3463 178 
Q 3153 47 2828 -22 
Q 2503 -91 2169 -91 
Q 1331 -91 842 396 
Q 353 884 353 1716 
Q 353 2575 817 3079 
Q 1281 3584 2069 3584 
Q 2775 3584 3186 3129 
Q 3597 2675 3597 1894 
z
M 3022 2063 
Q 3016 2534 2758 2815 
Q 2500 3097 2075 3097 
Q 1594 3097 1305 2825 
Q 1016 2553 972 2059 
L 3022 2063 
z
" transform="scale(0.015625)"/>
       <path id="DejaVuSans-6c" d="M 603 4863 
L 1178 4863 
L 1178 0 
L 603 0 
L 603 4863 
z
" transform="scale(0.015625)"/>
       <path id="DejaVuSans-61" d="M 2194 1759 
Q 1497 1759 1228 1600 
Q 959 1441 959 1056 
Q 959 750 1161 570 
Q 1363 391 1709 391 
Q 2188 391 2477 730 
Q 2766 1069 2766 1631 
L 2766 1759 
L 2194 1759 
z
M 3341 1997 
L 3341 0 
L 2766 0 
L 2766 531 
Q 2569 213 2275 61 
Q 1981 -91 1556 -91 
Q 1019 -91 701 211 
Q 384 513 384 1019 
Q 384 1609 779 1909 
Q 1175 2209 1959 2209 
L 2766 2209 
L 2766 2266 
Q 2766 2663 2505 2880 
Q 2244 3097 1772 3097 
Q 1472 3097 1187 3025 
Q 903 2953 641 2809 
L 641 3341 
Q 956 3463 1253 3523 
Q 1550 3584 1831 3584 
Q 2591 3584 2966 3190 
Q 3341 2797 3341 1997 
z
" transform="scale(0.015625)"/>
       <path id="DejaVuSans-74" d="M 1172 4494 
L 1172 3500 
L 2356 3500 
L 2356 3053 
L 1172 3053 
L 1172 1153 
Q 1172 725 1289 603 
Q 1406 481 1766 481 
L 2356 481 
L 2356 0 
L 1766 0 
Q 1100 0 847 248 
Q 594 497 594 1153 
L 594 3053 
L 172 3053 
L 172 3500 
L 594 3500 
L 594 4494 
L 1172 4494 
z
" transform="scale(0.015625)"/>
       <path id="DejaVuSans-69" d="M 603 3500 
L 1178 3500 
L 1178 0 
L 603 0 
L 603 3500 
z
M 603 4863 
L 1178 4863 
L 1178 4134 
L 603 4134 
L 603 4863 
z
" transform="scale(0.015625)"/>
       <path id="DejaVuSans-76" d="M 191 3500 
L 800 3500 
L 1894 563 
L 2988 3500 
L 3597 3500 
L 2284 0 
L 1503 0 
L 191 3500 
z
" transform="scale(0.015625)"/>
       <path id="DejaVuSans-20" transform="scale(0.015625)"/>
       <path id="DejaVuSans-66" d="M 2375 4863 
L 2375 4384 
L 1825 4384 
Q 1516 4384 1395 4259 
Q 1275 4134 1275 3809 
L 1275 3500 
L 2222 3500 
L 2222 3053 
L 1275 3053 
L 1275 0 
L 697 0 
L 697 3053 
L 147 3053 
L 147 3500 
L 697 3500 
L 697 3744 
Q 697 4328 969 4595 
Q 1241 4863 1831 4863 
L 2375 4863 
z
" transform="scale(0.015625)"/>
       <path id="DejaVuSans-6e" d="M 3513 2113 
L 3513 0 
L 2938 0 
L 2938 2094 
Q 2938 2591 2744 2837 
Q 2550 3084 2163 3084 
Q 1697 3084 1428 2787 
Q 1159 2491 1159 1978 
L 1159 0 
L 581 0 
L 581 3500 
L 1159 3500 
L 1159 2956 
Q 1366 3272 1645 3428 
Q 1925 3584 2291 3584 
Q 2894 3584 3203 3211 
Q 3513 2838 3513 2113 
z
" transform="scale(0.015625)"/>
       <path id="DejaVuSans-73" d="M 2834 3397 
L 2834 2853 
Q 2591 2978 2328 3040 
Q 2066 3103 1784 3103 
Q 1356 3103 1142 2972 
Q 928 2841 928 2578 
Q 928 2378 1081 2264 
Q 1234 2150 1697 2047 
L 1894 2003 
Q 2506 1872 2764 1633 
Q 3022 1394 3022 966 
Q 3022 478 2636 193 
Q 2250 -91 1575 -91 
Q 1294 -91 989 -36 
Q 684 19 347 128 
L 347 722 
Q 666 556 975 473 
Q 1284 391 1588 391 
Q 1994 391 2212 530 
Q 2431 669 2431 922 
Q 2431 1156 2273 1281 
Q 2116 1406 1581 1522 
L 1381 1569 
Q 847 1681 609 1914 
Q 372 2147 372 2553 
Q 372 3047 722 3315 
Q 1072 3584 1716 3584 
Q 2034 3584 2315 3537 
Q 2597 3491 2834 3397 
z
" transform="scale(0.015625)"/>
       <path id="DejaVuSans-Oblique-3b3" d="M 1491 2950 
L 1838 788 
L 3456 3500 
L 4066 3500 
L 1972 0 
L 1713 -1331 
L 1138 -1331 
L 1397 0 
L 988 2613 
Q 925 3006 628 3006 
L 475 3006 
L 569 3500 
L 788 3500 
Q 1403 3500 1491 2950 
z
" transform="scale(0.015625)"/>
       <path id="DejaVuSans-Oblique-79" d="M 1588 -325 
Q 1188 -997 936 -1164 
Q 684 -1331 294 -1331 
L -159 -1331 
L -63 -850 
L 269 -850 
Q 509 -850 678 -719 
Q 847 -588 1056 -206 
L 1234 128 
L 459 3500 
L 1069 3500 
L 1650 819 
L 3256 3500 
L 3859 3500 
L 1588 -325 
z
" transform="scale(0.015625)"/>
      </defs>
      <use xlink:href="#DejaVuSans-52" transform="translate(0 0.015625)"/>
      <use xlink:href="#DejaVuSans-65" transform="translate(69.482422 0.015625)"/>
      <use xlink:href="#DejaVuSans-6c" transform="translate(131.005859 0.015625)"/>
      <use xlink:href="#DejaVuSans-61" transform="translate(158.789062 0.015625)"/>
      <use xlink:href="#DejaVuSans-74" transform="translate(220.068359 0.015625)"/>
      <use xlink:href="#DejaVuSans-69" transform="translate(259.277344 0.015625)"/>
      <use xlink:href="#DejaVuSans-76" transform="translate(287.060547 0.015625)"/>
      <use xlink:href="#DejaVuSans-65" transform="translate(346.240234 0.015625)"/>
      <use xlink:href="#DejaVuSans-20" transform="translate(407.763672 0.015625)"/>
      <use xlink:href="#DejaVuSans-66" transform="translate(439.550781 0.015625)"/>
      <use xlink:href="#DejaVuSans-69" transform="translate(474.755859 0.015625)"/>
      <use xlink:href="#DejaVuSans-74" transform="translate(502.539062 0.015625)"/>
      <use xlink:href="#DejaVuSans-6e" transform="translate(541.748047 0.015625)"/>
      <use xlink:href="#DejaVuSans-65" transform="translate(605.126953 0.015625)"/>
      <use xlink:href="#DejaVuSans-73" transform="translate(666.650391 0.015625)"/>
      <use xlink:href="#DejaVuSans-73" transform="translate(718.75 0.015625)"/>
      <use xlink:href="#DejaVuSans-20" transform="translate(770.849609 0.015625)"/>
      <use xlink:href="#DejaVuSans-Oblique-3b3" transform="translate(802.636719 0.015625)"/>
      <use xlink:href="#DejaVuSans-Oblique-79" transform="translate(861.816406 -16.390625) scale(0.7)"/>
     </g>
    </g>
   </g>
   <g id="line2d_22">
    <path d="M 103.074841 308.984666 
L 1041.965466 308.984666 
" clip-path="url(#p6cc3628271)" style="fill: none; stroke-dasharray: 7.4,3.2; stroke-dashoffset: 0; stroke: #000000; stroke-width: 2"/>
   </g>
   <g id="patch_3">
    <path d="M 103.074841 395.28 
L 103.074841 7.2 
" style="fill: none; stroke: #000000; stroke-width: 0.8; stroke-linejoin: miter; stroke-linecap: square"/>
   </g>
   <g id="patch_4">
    <path d="M 940.074841 395.28 
L 940.074841 7.2 
" style="fill: none; stroke: #000000; stroke-width: 0.8; stroke-linejoin: miter; stroke-linecap: square"/>
   </g>
   <g id="patch_5">
    <path d="M 103.074841 395.28 
L 940.074841 395.28 
" style="fill: none; stroke: #000000; stroke-width: 0.8; stroke-linejoin: miter; stroke-linecap: square"/>
   </g>
   <g id="patch_6">
    <path d="M 103.074841 7.2 
L 940.074841 7.2 
" style="fill: none; stroke: #000000; stroke-width: 0.8; stroke-linejoin: miter; stroke-linecap: square"/>
   </g>
  </g>
  <g id="axes_2">
   <g id="matplotlib.axis_3">
    <g id="ytick_6">
     <g id="line2d_23">
      <defs>
       <path id="m67af6a67cc" d="M 0 0 
L 3.5 0 
" style="stroke: #000000; stroke-width: 0.8"/>
      </defs>
      <g>
       <use xlink:href="#m67af6a67cc" x="940.074841" y="387.43497" style="stroke: #000000; stroke-width: 0.8"/>
      </g>
     </g>
     <g id="text_23">
      <!-- 0.05 -->
      <g transform="translate(947.074841 395.033407) scale(0.2 -0.2)">
       <use xlink:href="#DejaVuSans-2212"/>
       <use xlink:href="#DejaVuSans-30" x="83.789062"/>
       <use xlink:href="#DejaVuSans-2e" x="147.412109"/>
       <use xlink:href="#DejaVuSans-30" x="179.199219"/>
       <use xlink:href="#DejaVuSans-35" x="242.822266"/>
      </g>
     </g>
    </g>
    <g id="ytick_7">
     <g id="line2d_24">
      <g>
       <use xlink:href="#m67af6a67cc" x="940.074841" y="308.984666" style="stroke: #000000; stroke-width: 0.8"/>
      </g>
     </g>
     <g id="text_24">
      <!-- 0.00 -->
      <g transform="translate(947.074841 316.583104) scale(0.2 -0.2)">
       <use xlink:href="#DejaVuSans-30"/>
       <use xlink:href="#DejaVuSans-2e" x="63.623047"/>
       <use xlink:href="#DejaVuSans-30" x="95.410156"/>
       <use xlink:href="#DejaVuSans-30" x="159.033203"/>
      </g>
     </g>
    </g>
    <g id="ytick_8">
     <g id="line2d_25">
      <g>
       <use xlink:href="#m67af6a67cc" x="940.074841" y="230.534363" style="stroke: #000000; stroke-width: 0.8"/>
      </g>
     </g>
     <g id="text_25">
      <!-- 0.05 -->
      <g transform="translate(947.074841 238.1328) scale(0.2 -0.2)">
       <use xlink:href="#DejaVuSans-30"/>
       <use xlink:href="#DejaVuSans-2e" x="63.623047"/>
       <use xlink:href="#DejaVuSans-30" x="95.410156"/>
       <use xlink:href="#DejaVuSans-35" x="159.033203"/>
      </g>
     </g>
    </g>
    <g id="ytick_9">
     <g id="line2d_26">
      <g>
       <use xlink:href="#m67af6a67cc" x="940.074841" y="152.084059" style="stroke: #000000; stroke-width: 0.8"/>
      </g>
     </g>
     <g id="text_26">
      <!-- 0.10 -->
      <g transform="translate(947.074841 159.682496) scale(0.2 -0.2)">
       <use xlink:href="#DejaVuSans-30"/>
       <use xlink:href="#DejaVuSans-2e" x="63.623047"/>
       <use xlink:href="#DejaVuSans-31" x="95.410156"/>
       <use xlink:href="#DejaVuSans-30" x="159.033203"/>
      </g>
     </g>
    </g>
    <g id="ytick_10">
     <g id="line2d_27">
      <g>
       <use xlink:href="#m67af6a67cc" x="940.074841" y="73.633755" style="stroke: #000000; stroke-width: 0.8"/>
      </g>
     </g>
     <g id="text_27">
      <!-- 0.15 -->
      <g transform="translate(947.074841 81.232193) scale(0.2 -0.2)">
       <use xlink:href="#DejaVuSans-30"/>
       <use xlink:href="#DejaVuSans-2e" x="63.623047"/>
       <use xlink:href="#DejaVuSans-31" x="95.410156"/>
       <use xlink:href="#DejaVuSans-35" x="159.033203"/>
      </g>
     </g>
    </g>
    <g id="text_28">
     <!-- Change in proportion $\gamma_{prop}$ -->
     <g transform="translate(1027.565466 332.74) rotate(-90) scale(0.2 -0.2)">
      <defs>
       <path id="DejaVuSans-43" d="M 4122 4306 
L 4122 3641 
Q 3803 3938 3442 4084 
Q 3081 4231 2675 4231 
Q 1875 4231 1450 3742 
Q 1025 3253 1025 2328 
Q 1025 1406 1450 917 
Q 1875 428 2675 428 
Q 3081 428 3442 575 
Q 3803 722 4122 1019 
L 4122 359 
Q 3791 134 3420 21 
Q 3050 -91 2638 -91 
Q 1578 -91 968 557 
Q 359 1206 359 2328 
Q 359 3453 968 4101 
Q 1578 4750 2638 4750 
Q 3056 4750 3426 4639 
Q 3797 4528 4122 4306 
z
" transform="scale(0.015625)"/>
       <path id="DejaVuSans-68" d="M 3513 2113 
L 3513 0 
L 2938 0 
L 2938 2094 
Q 2938 2591 2744 2837 
Q 2550 3084 2163 3084 
Q 1697 3084 1428 2787 
Q 1159 2491 1159 1978 
L 1159 0 
L 581 0 
L 581 4863 
L 1159 4863 
L 1159 2956 
Q 1366 3272 1645 3428 
Q 1925 3584 2291 3584 
Q 2894 3584 3203 3211 
Q 3513 2838 3513 2113 
z
" transform="scale(0.015625)"/>
       <path id="DejaVuSans-67" d="M 2906 1791 
Q 2906 2416 2648 2759 
Q 2391 3103 1925 3103 
Q 1463 3103 1205 2759 
Q 947 2416 947 1791 
Q 947 1169 1205 825 
Q 1463 481 1925 481 
Q 2391 481 2648 825 
Q 2906 1169 2906 1791 
z
M 3481 434 
Q 3481 -459 3084 -895 
Q 2688 -1331 1869 -1331 
Q 1566 -1331 1297 -1286 
Q 1028 -1241 775 -1147 
L 775 -588 
Q 1028 -725 1275 -790 
Q 1522 -856 1778 -856 
Q 2344 -856 2625 -561 
Q 2906 -266 2906 331 
L 2906 616 
Q 2728 306 2450 153 
Q 2172 0 1784 0 
Q 1141 0 747 490 
Q 353 981 353 1791 
Q 353 2603 747 3093 
Q 1141 3584 1784 3584 
Q 2172 3584 2450 3431 
Q 2728 3278 2906 2969 
L 2906 3500 
L 3481 3500 
L 3481 434 
z
" transform="scale(0.015625)"/>
       <path id="DejaVuSans-70" d="M 1159 525 
L 1159 -1331 
L 581 -1331 
L 581 3500 
L 1159 3500 
L 1159 2969 
Q 1341 3281 1617 3432 
Q 1894 3584 2278 3584 
Q 2916 3584 3314 3078 
Q 3713 2572 3713 1747 
Q 3713 922 3314 415 
Q 2916 -91 2278 -91 
Q 1894 -91 1617 61 
Q 1341 213 1159 525 
z
M 3116 1747 
Q 3116 2381 2855 2742 
Q 2594 3103 2138 3103 
Q 1681 3103 1420 2742 
Q 1159 2381 1159 1747 
Q 1159 1113 1420 752 
Q 1681 391 2138 391 
Q 2594 391 2855 752 
Q 3116 1113 3116 1747 
z
" transform="scale(0.015625)"/>
       <path id="DejaVuSans-72" d="M 2631 2963 
Q 2534 3019 2420 3045 
Q 2306 3072 2169 3072 
Q 1681 3072 1420 2755 
Q 1159 2438 1159 1844 
L 1159 0 
L 581 0 
L 581 3500 
L 1159 3500 
L 1159 2956 
Q 1341 3275 1631 3429 
Q 1922 3584 2338 3584 
Q 2397 3584 2469 3576 
Q 2541 3569 2628 3553 
L 2631 2963 
z
" transform="scale(0.015625)"/>
       <path id="DejaVuSans-6f" d="M 1959 3097 
Q 1497 3097 1228 2736 
Q 959 2375 959 1747 
Q 959 1119 1226 758 
Q 1494 397 1959 397 
Q 2419 397 2687 759 
Q 2956 1122 2956 1747 
Q 2956 2369 2687 2733 
Q 2419 3097 1959 3097 
z
M 1959 3584 
Q 2709 3584 3137 3096 
Q 3566 2609 3566 1747 
Q 3566 888 3137 398 
Q 2709 -91 1959 -91 
Q 1206 -91 779 398 
Q 353 888 353 1747 
Q 353 2609 779 3096 
Q 1206 3584 1959 3584 
z
" transform="scale(0.015625)"/>
       <path id="DejaVuSans-Oblique-70" d="M 3175 2156 
Q 3175 2616 2975 2859 
Q 2775 3103 2400 3103 
Q 2144 3103 1911 2972 
Q 1678 2841 1497 2591 
Q 1319 2344 1212 1994 
Q 1106 1644 1106 1300 
Q 1106 863 1306 627 
Q 1506 391 1875 391 
Q 2147 391 2380 519 
Q 2613 647 2778 891 
Q 2956 1147 3065 1494 
Q 3175 1841 3175 2156 
z
M 1394 2969 
Q 1625 3272 1939 3428 
Q 2253 3584 2638 3584 
Q 3175 3584 3472 3232 
Q 3769 2881 3769 2247 
Q 3769 1728 3584 1258 
Q 3400 788 3053 416 
Q 2822 169 2531 39 
Q 2241 -91 1919 -91 
Q 1547 -91 1294 64 
Q 1041 219 916 525 
L 556 -1331 
L -19 -1331 
L 922 3500 
L 1497 3500 
L 1394 2969 
z
" transform="scale(0.015625)"/>
       <path id="DejaVuSans-Oblique-72" d="M 2853 2969 
Q 2766 3016 2653 3041 
Q 2541 3066 2413 3066 
Q 1953 3066 1609 2717 
Q 1266 2369 1153 1784 
L 800 0 
L 225 0 
L 909 3500 
L 1484 3500 
L 1375 2956 
Q 1603 3259 1920 3421 
Q 2238 3584 2597 3584 
Q 2691 3584 2781 3573 
Q 2872 3563 2963 3538 
L 2853 2969 
z
" transform="scale(0.015625)"/>
       <path id="DejaVuSans-Oblique-6f" d="M 1625 -91 
Q 1009 -91 651 289 
Q 294 669 294 1325 
Q 294 1706 417 2101 
Q 541 2497 738 2766 
Q 1047 3184 1428 3384 
Q 1809 3584 2291 3584 
Q 2888 3584 3255 3212 
Q 3622 2841 3622 2241 
Q 3622 1825 3500 1412 
Q 3378 1000 3181 728 
Q 2875 309 2494 109 
Q 2113 -91 1625 -91 
z
M 891 1344 
Q 891 869 1089 633 
Q 1288 397 1691 397 
Q 2269 397 2648 901 
Q 3028 1406 3028 2181 
Q 3028 2634 2825 2865 
Q 2622 3097 2228 3097 
Q 1903 3097 1650 2945 
Q 1397 2794 1197 2484 
Q 1050 2253 970 1956 
Q 891 1659 891 1344 
z
" transform="scale(0.015625)"/>
      </defs>
      <use xlink:href="#DejaVuSans-43" transform="translate(0 0.015625)"/>
      <use xlink:href="#DejaVuSans-68" transform="translate(69.824219 0.015625)"/>
      <use xlink:href="#DejaVuSans-61" transform="translate(133.203125 0.015625)"/>
      <use xlink:href="#DejaVuSans-6e" transform="translate(194.482422 0.015625)"/>
      <use xlink:href="#DejaVuSans-67" transform="translate(257.861328 0.015625)"/>
      <use xlink:href="#DejaVuSans-65" transform="translate(321.337891 0.015625)"/>
      <use xlink:href="#DejaVuSans-20" transform="translate(382.861328 0.015625)"/>
      <use xlink:href="#DejaVuSans-69" transform="translate(414.648438 0.015625)"/>
      <use xlink:href="#DejaVuSans-6e" transform="translate(442.431641 0.015625)"/>
      <use xlink:href="#DejaVuSans-20" transform="translate(505.810547 0.015625)"/>
      <use xlink:href="#DejaVuSans-70" transform="translate(537.597656 0.015625)"/>
      <use xlink:href="#DejaVuSans-72" transform="translate(601.074219 0.015625)"/>
      <use xlink:href="#DejaVuSans-6f" transform="translate(642.1875 0.015625)"/>
      <use xlink:href="#DejaVuSans-70" transform="translate(703.369141 0.015625)"/>
      <use xlink:href="#DejaVuSans-6f" transform="translate(766.845703 0.015625)"/>
      <use xlink:href="#DejaVuSans-72" transform="translate(828.027344 0.015625)"/>
      <use xlink:href="#DejaVuSans-74" transform="translate(869.140625 0.015625)"/>
      <use xlink:href="#DejaVuSans-69" transform="translate(908.349609 0.015625)"/>
      <use xlink:href="#DejaVuSans-6f" transform="translate(936.132812 0.015625)"/>
      <use xlink:href="#DejaVuSans-6e" transform="translate(997.314453 0.015625)"/>
      <use xlink:href="#DejaVuSans-20" transform="translate(1060.693359 0.015625)"/>
      <use xlink:href="#DejaVuSans-Oblique-3b3" transform="translate(1092.480469 0.015625)"/>
      <use xlink:href="#DejaVuSans-Oblique-70" transform="translate(1151.660156 -16.390625) scale(0.7)"/>
      <use xlink:href="#DejaVuSans-Oblique-72" transform="translate(1196.09375 -16.390625) scale(0.7)"/>
      <use xlink:href="#DejaVuSans-Oblique-6f" transform="translate(1224.873047 -16.390625) scale(0.7)"/>
      <use xlink:href="#DejaVuSans-Oblique-70" transform="translate(1267.700195 -16.390625) scale(0.7)"/>
     </g>
    </g>
   </g>
   <g id="line2d_28">
    <path d="M 0 0 
" clip-path="url(#p6cc3628271)" style="fill: none; stroke: #ffa500; stroke-width: 1.5; stroke-linecap: square"/>
   </g>
   <g id="patch_7">
    <path d="M 103.074841 395.28 
L 103.074841 7.2 
" style="fill: none; stroke: #000000; stroke-width: 0.8; stroke-linejoin: miter; stroke-linecap: square"/>
   </g>
   <g id="patch_8">
    <path d="M 940.074841 395.28 
L 940.074841 7.2 
" style="fill: none; stroke: #000000; stroke-width: 0.8; stroke-linejoin: miter; stroke-linecap: square"/>
   </g>
   <g id="patch_9">
    <path d="M 103.074841 395.28 
L 940.074841 395.28 
" style="fill: none; stroke: #000000; stroke-width: 0.8; stroke-linejoin: miter; stroke-linecap: square"/>
   </g>
   <g id="patch_10">
    <path d="M 103.074841 7.2 
L 940.074841 7.2 
" style="fill: none; stroke: #000000; stroke-width: 0.8; stroke-linejoin: miter; stroke-linecap: square"/>
   </g>
  </g>
 </g>
 <defs>
  <clipPath id="p6cc3628271">
   <rect x="103.074841" y="7.2" width="837" height="388.08"/>
  </clipPath>
 </defs>
</svg>
