<?xml version="1.0" encoding="utf-8" standalone="no"?>
<!DOCTYPE svg PUBLIC "-//W3C//DTD SVG 1.1//EN"
  "http://www.w3.org/Graphics/SVG/1.1/DTD/svg11.dtd">
<svg xmlns:xlink="http://www.w3.org/1999/xlink" width="947.274841pt" height="505.354841pt" viewBox="0 0 947.274841 505.354841" xmlns="http://www.w3.org/2000/svg" version="1.1">
 <metadata>
  <rdf:RDF xmlns:dc="http://purl.org/dc/elements/1.1/" xmlns:cc="http://creativecommons.org/ns#" xmlns:rdf="http://www.w3.org/1999/02/22-rdf-syntax-ns#">
   <cc:Work>
    <dc:type rdf:resource="http://purl.org/dc/dcmitype/StillImage"/>
    <dc:date>2023-11-12T23:19:52.874299</dc:date>
    <dc:format>image/svg+xml</dc:format>
    <dc:creator>
     <cc:Agent>
      <dc:title>Matplotlib v3.7.2, https://matplotlib.org/</dc:title>
     </cc:Agent>
    </dc:creator>
   </cc:Work>
  </rdf:RDF>
 </metadata>
 <defs>
  <style type="text/css">*{stroke-linejoin: round; stroke-linecap: butt}</style>
 </defs>
 <g id="figure_1">
  <g id="patch_1">
   <path d="M 0 505.354841 
L 947.274841 505.354841 
L 947.274841 -0 
L 0 -0 
z
" style="fill: #ffffff"/>
  </g>
  <g id="axes_1">
   <g id="patch_2">
    <path d="M 103.074841 395.28 
L 940.074841 395.28 
L 940.074841 7.2 
L 103.074841 7.2 
z
" style="fill: #ffffff"/>
   </g>
   <g id="PolyCollection_1">
    <path d="M -393.000769 224.17021 
L -393.000769 224.18454 
L -390.959306 224.110365 
L -388.917842 224.046393 
L -386.876379 223.965128 
L -384.834915 223.911303 
L -382.793452 223.848855 
L -380.751989 223.77915 
L -378.710525 223.710228 
L -376.669062 223.645593 
L -374.627598 223.58898 
L -372.586135 223.523396 
L -370.544672 223.454645 
L -368.503208 223.38786 
L -366.461745 223.305687 
L -364.420281 223.23776 
L -362.378818 223.157636 
L -360.337354 223.089125 
L -358.295891 222.996294 
L -356.254428 222.920117 
L -354.212964 222.846796 
L -352.171501 222.759964 
L -350.130037 222.675363 
L -348.088574 222.592716 
L -346.047111 222.492817 
L -344.005647 222.405574 
L -341.964184 222.303315 
L -339.92272 222.199843 
L -337.881257 222.085319 
L -335.839793 221.967654 
L -333.79833 221.85266 
L -331.756867 221.71944 
L -329.715403 221.568652 
L -327.67394 221.435047 
L -325.632476 221.283076 
L -323.591013 221.109317 
L -321.54955 220.947877 
L -319.508086 220.758334 
L -317.466623 220.565915 
L -315.425159 220.367803 
L -313.383696 220.158628 
L -311.342232 219.926591 
L -309.300769 219.679515 
L -307.259306 219.417686 
L -305.217842 219.165708 
L -303.176379 218.869238 
L -301.134915 218.58776 
L -299.093452 218.287893 
L -297.051989 217.987112 
L -295.010525 217.663201 
L -292.969062 217.312308 
L -290.927598 216.988112 
L -288.886135 216.62666 
L -286.844672 216.252564 
L -284.803208 215.886336 
L -282.761745 215.524178 
L -280.720281 215.130845 
L -278.678818 214.733391 
L -276.637354 214.33688 
L -274.595891 213.923709 
L -272.554428 213.505613 
L -270.512964 213.088934 
L -268.471501 212.657985 
L -266.430037 212.226202 
L -264.388574 211.801268 
L -262.347111 211.358564 
L -260.305647 210.884446 
L -258.264184 210.425418 
L -256.22272 209.967531 
L -254.181257 209.516973 
L -252.139793 209.047502 
L -250.09833 208.589079 
L -248.056867 208.1225 
L -246.015403 207.702038 
L -243.97394 207.205244 
L -241.932476 206.775713 
L -239.891013 206.304215 
L -237.84955 205.855392 
L -235.808086 205.38573 
L -233.766623 204.970199 
L -231.725159 204.491801 
L -229.683696 204.042297 
L -227.642232 203.61971 
L -225.600769 203.16721 
L -223.559306 202.739026 
L -221.517842 202.290566 
L -219.476379 201.833194 
L -217.434915 201.400402 
L -215.393452 200.976429 
L -213.351989 200.519238 
L -211.310525 200.079755 
L -209.269062 199.634022 
L -207.227598 199.19895 
L -205.186135 198.774137 
L -203.144672 198.337366 
L -201.103208 197.896072 
L -199.061745 197.498933 
L -197.020281 197.048552 
L -194.978818 196.617014 
L -192.937354 196.192427 
L -190.895891 195.767134 
L -188.854428 195.342712 
L -186.812964 194.912617 
L -184.771501 194.502297 
L -182.730037 194.075327 
L -180.688574 193.637643 
L -178.647111 193.194934 
L -176.605647 192.747324 
L -174.564184 192.328152 
L -172.52272 191.866935 
L -170.481257 191.375197 
L -168.439793 190.913251 
L -166.39833 190.426181 
L -164.356867 189.931591 
L -162.315403 189.409487 
L -160.27394 188.877985 
L -158.232476 188.383895 
L -156.191013 187.820662 
L -154.14955 187.285244 
L -152.108086 186.709162 
L -150.066623 186.179872 
L -148.025159 185.558058 
L -145.983696 184.948448 
L -143.942232 184.355895 
L -141.900769 183.753056 
L -139.859306 183.131702 
L -137.817842 182.482496 
L -135.776379 181.873917 
L -133.734915 181.177273 
L -131.693452 180.564364 
L -129.651989 179.847436 
L -127.610525 179.152699 
L -125.569062 178.474255 
L -123.527598 177.823413 
L -121.486135 177.064293 
L -119.444672 176.378368 
L -117.403208 175.506894 
L -115.361745 174.756981 
L -113.320281 174.058005 
L -111.278818 173.268943 
L -109.237354 172.459649 
L -107.195891 171.527975 
L -105.154428 170.654582 
L -103.112964 169.925321 
L -101.071501 168.773291 
L -99.030037 167.847275 
L -96.988574 166.901088 
L -94.947111 165.919626 
L -92.905647 164.802702 
L -90.864184 163.752113 
L -88.82272 162.957427 
L -86.781257 161.946342 
L -84.739793 160.290926 
L -82.69833 158.89793 
L -80.656867 157.866578 
L -78.615403 156.441423 
L -76.57394 155.25781 
L -74.532476 154.226043 
L -72.491013 152.664981 
L -70.44955 150.89023 
L -68.408086 149.673198 
L -66.366623 148.891245 
L -64.325159 147.497177 
L -62.283696 147.101054 
L -60.242232 146.329419 
L -58.200769 144.838865 
L -56.159306 144.967605 
L -54.117842 145.592303 
L -52.076379 146.903505 
L -50.034915 145.460489 
L -47.993452 148.365626 
L -45.951989 149.025235 
L -43.910525 145.151506 
L -41.869062 146.268777 
L -39.827598 148.007797 
L -37.786135 147.008021 
L -35.744672 146.815344 
L -33.703208 154.223223 
L -31.661745 164.749817 
L -29.620281 170.000992 
L -27.578818 158.620925 
L -25.537354 164.50398 
L -23.495891 172.20424 
L -21.454428 171.781805 
L -19.412964 187.428356 
L -17.371501 185.323746 
L -15.330037 180.571394 
L -13.288574 168.755987 
L -11.247111 179.908005 
L -9.205647 186.624311 
L -7.164184 183.852333 
L -5.12272 185.622044 
L -3.081257 191.964144 
L -1.039793 191.151313 
L 1.00167 185.735234 
L 3.043133 192.604591 
L 5.084597 193.992396 
L 7.12606 191.582361 
L 9.167524 195.957802 
L 11.208987 197.580445 
L 13.25045 197.188035 
L 15.291914 195.908662 
L 17.333377 197.37431 
L 19.374841 195.958523 
L 21.416304 196.127525 
L 23.457768 197.529872 
L 25.499231 196.294415 
L 27.540694 197.003055 
L 29.582158 197.08464 
L 31.623621 196.098842 
L 33.665085 196.528147 
L 35.706548 195.089138 
L 37.748011 195.241065 
L 39.789475 195.706802 
L 41.830938 195.783579 
L 43.872402 195.111797 
L 45.913865 194.547451 
L 47.955328 194.44597 
L 49.996792 193.818004 
L 52.038255 193.768673 
L 54.079719 193.696933 
L 56.121182 192.71673 
L 58.162646 193.263925 
L 60.204109 192.633938 
L 62.245572 192.39208 
L 64.287036 192.465123 
L 66.328499 191.846362 
L 68.369963 191.730922 
L 70.411426 192.005588 
L 72.452889 192.417993 
L 74.494353 191.359671 
L 76.535816 191.208625 
L 78.57728 190.882267 
L 80.618743 192.804716 
L 82.660207 192.862923 
L 84.70167 193.599275 
L 86.743133 191.787593 
L 88.784597 190.673535 
L 90.82606 191.027949 
L 92.867524 192.270331 
L 94.908987 192.459088 
L 96.95045 190.241551 
L 98.991914 192.067047 
L 101.033377 191.563308 
L 103.074841 191.211941 
L 105.116304 190.148873 
L 107.157768 190.91668 
L 109.199231 190.359519 
L 111.240694 190.747586 
L 113.282158 190.003385 
L 115.323621 189.390855 
L 117.365085 188.355813 
L 119.406548 187.804439 
L 121.448011 187.287029 
L 123.489475 186.610116 
L 125.530938 186.36178 
L 127.572402 185.707073 
L 129.613865 185.003994 
L 131.655328 183.37975 
L 133.696792 182.107928 
L 135.738255 181.448085 
L 137.779719 180.064337 
L 139.821182 179.65238 
L 141.862646 178.399556 
L 143.904109 176.635235 
L 145.945572 175.131908 
L 147.987036 173.943886 
L 150.028499 172.116157 
L 152.069963 170.914194 
L 154.111426 169.253139 
L 156.152889 167.758937 
L 158.194353 165.928044 
L 160.235816 164.383646 
L 162.27728 162.431945 
L 164.318743 160.864313 
L 166.360207 159.190651 
L 168.40167 156.992736 
L 170.443133 154.940854 
L 172.484597 153.359375 
L 174.52606 151.570567 
L 176.567524 149.39334 
L 178.608987 147.702082 
L 180.65045 145.680071 
L 182.691914 142.824971 
L 184.733377 141.517291 
L 186.774841 139.07779 
L 188.816304 137.124651 
L 190.857768 134.944456 
L 192.899231 132.567894 
L 194.940694 130.198359 
L 196.982158 128.057488 
L 199.023621 125.227533 
L 201.065085 123.407638 
L 203.106548 120.644391 
L 205.148011 118.80555 
L 207.189475 115.978261 
L 209.230938 113.225627 
L 211.272402 110.696057 
L 213.313865 108.659929 
L 215.355328 105.533462 
L 217.396792 103.358162 
L 219.438255 100.570894 
L 221.479719 98.260007 
L 223.521182 95.327315 
L 225.562646 92.724881 
L 227.604109 92.197485 
L 229.645572 87.30858 
L 231.687036 86.348734 
L 233.728499 83.284957 
L 235.769963 81.096272 
L 237.811426 78.557902 
L 239.852889 75.865095 
L 241.894353 73.405214 
L 243.935816 71.019914 
L 245.97728 68.758299 
L 248.018743 66.485782 
L 250.060207 67.712652 
L 252.10167 61.57902 
L 254.143133 59.827855 
L 256.184597 64.313577 
L 258.22606 56.975356 
L 260.267524 57.853164 
L 262.308987 56.784014 
L 264.35045 52.827379 
L 266.391914 53.165013 
L 268.433377 56.445696 
L 270.474841 53.550131 
L 272.516304 52.076523 
L 274.557768 54.035329 
L 276.599231 52.945788 
L 278.640694 54.220494 
L 280.682158 56.044496 
L 282.723621 59.343438 
L 284.765085 67.317593 
L 286.806548 65.214502 
L 288.848011 69.446248 
L 290.889475 72.920794 
L 292.930938 74.698031 
L 294.972402 79.191917 
L 297.013865 81.976242 
L 299.055328 76.162698 
L 301.096792 81.419137 
L 303.138255 90.16711 
L 305.179719 94.646419 
L 307.221182 96.717527 
L 309.262646 108.966358 
L 311.304109 109.993951 
L 313.345572 113.36703 
L 315.387036 112.520246 
L 317.428499 122.872365 
L 319.469963 119.729787 
L 321.511426 117.967961 
L 323.552889 126.819774 
L 325.594353 133.123127 
L 327.635816 132.630487 
L 329.67728 136.395789 
L 331.718743 137.657023 
L 333.760207 137.937054 
L 335.80167 137.990686 
L 337.843133 140.103999 
L 339.884597 141.323861 
L 341.92606 147.77968 
L 343.967524 144.564437 
L 346.008987 150.194873 
L 348.05045 149.005346 
L 350.091914 148.319536 
L 352.133377 150.641716 
L 354.174841 152.719999 
L 356.216304 150.24822 
L 358.257768 151.571649 
L 360.299231 151.724675 
L 362.340694 154.819425 
L 364.382158 153.398754 
L 366.423621 152.774106 
L 368.465085 153.710903 
L 370.506548 155.229947 
L 372.548011 154.579392 
L 374.589475 153.196321 
L 376.630938 154.06485 
L 378.672402 151.930174 
L 380.713865 152.214663 
L 382.755328 155.867377 
L 384.796792 155.700582 
L 386.838255 153.7057 
L 388.879719 153.237651 
L 390.921182 153.502602 
L 392.962646 151.336437 
L 395.004109 151.888981 
L 397.045572 151.90162 
L 399.087036 151.455864 
L 401.128499 150.881298 
L 403.169963 149.542329 
L 405.211426 150.356895 
L 407.252889 149.461551 
L 409.294353 149.276196 
L 411.335816 148.810011 
L 413.37728 148.885096 
L 415.418743 147.867407 
L 417.460207 146.0091 
L 419.50167 145.945587 
L 421.543133 144.440979 
L 423.584597 142.258495 
L 425.62606 143.897671 
L 427.667524 140.913316 
L 429.708987 142.192915 
L 431.75045 141.64338 
L 433.791914 141.878013 
L 435.833377 139.97087 
L 437.874841 139.855187 
L 439.916304 139.599874 
L 441.957768 137.220699 
L 443.999231 137.837889 
L 446.040694 137.642857 
L 448.082158 137.562072 
L 450.123621 136.432256 
L 452.165085 136.978457 
L 454.206548 135.816128 
L 456.248011 134.70694 
L 458.289475 132.948698 
L 460.330938 132.392105 
L 462.372402 132.028884 
L 464.413865 130.805729 
L 466.455328 130.998153 
L 468.496792 130.40567 
L 470.538255 129.319103 
L 472.579719 129.371383 
L 474.621182 128.136496 
L 476.662646 129.181448 
L 478.704109 128.328007 
L 480.745572 128.382547 
L 482.787036 126.850253 
L 484.828499 124.754073 
L 486.869963 126.559775 
L 488.911426 126.513714 
L 490.952889 125.842097 
L 492.994353 125.143655 
L 495.035816 123.688181 
L 497.07728 123.369628 
L 499.118743 122.576855 
L 501.160207 122.71225 
L 503.20167 122.421317 
L 505.243133 121.036983 
L 507.284597 119.067235 
L 509.32606 121.659409 
L 511.367524 121.063549 
L 513.408987 119.39632 
L 515.45045 120.485615 
L 517.491914 117.491204 
L 519.533377 117.877828 
L 521.574841 118.091823 
L 523.616304 116.075097 
L 525.657768 119.577355 
L 527.699231 116.119172 
L 529.740694 114.379023 
L 531.782158 116.68752 
L 533.823621 117.345727 
L 535.865085 116.290851 
L 537.906548 117.234304 
L 539.948011 115.699032 
L 541.989475 118.893455 
L 544.030938 117.402966 
L 546.072402 118.145865 
L 548.113865 116.120522 
L 550.155328 114.313902 
L 552.196792 116.84865 
L 554.238255 121.308782 
L 556.279719 116.493234 
L 558.321182 116.896933 
L 560.362646 115.175674 
L 562.404109 116.169866 
L 564.445572 116.051695 
L 566.487036 115.034517 
L 568.528499 114.730167 
L 570.569963 116.963171 
L 572.611426 115.975946 
L 574.652889 118.024795 
L 576.694353 118.497996 
L 578.735816 112.999723 
L 580.77728 115.419401 
L 582.818743 115.707852 
L 584.860207 116.196525 
L 586.90167 116.629798 
L 588.943133 120.306598 
L 590.984597 121.830601 
L 593.02606 121.747099 
L 595.067524 125.775461 
L 597.108987 132.395127 
L 599.15045 124.695771 
L 601.191914 124.667483 
L 603.233377 124.888358 
L 605.274841 127.543044 
L 607.316304 128.194555 
L 609.357768 128.231588 
L 611.399231 133.93432 
L 613.440694 136.077627 
L 615.482158 129.740818 
L 617.523621 135.615108 
L 619.565085 132.831668 
L 621.606548 131.139533 
L 623.648011 138.277944 
L 625.689475 136.985648 
L 627.730938 141.645132 
L 629.772402 140.399059 
L 631.813865 137.471538 
L 633.855328 140.471032 
L 635.896792 140.614399 
L 637.938255 143.576076 
L 639.979719 141.97847 
L 642.021182 146.813407 
L 644.062646 143.680194 
L 646.104109 146.32117 
L 648.145572 146.040424 
L 650.187036 148.937554 
L 652.228499 144.805219 
L 654.269963 149.639163 
L 656.311426 149.590504 
L 658.352889 152.978365 
L 660.394353 154.884249 
L 662.435816 155.123579 
L 664.47728 154.52003 
L 666.518743 156.796378 
L 668.560207 158.551008 
L 670.60167 157.455228 
L 672.643133 157.147412 
L 674.684597 159.176098 
L 676.72606 161.022798 
L 678.767524 158.432935 
L 680.808987 157.025815 
L 682.85045 163.687798 
L 684.891914 166.843326 
L 686.933377 160.507912 
L 688.974841 162.665764 
L 691.016304 163.842525 
L 693.057768 164.539125 
L 695.099231 168.068365 
L 697.140694 167.863528 
L 699.182158 166.724997 
L 701.223621 168.357254 
L 703.265085 168.973173 
L 705.306548 165.653267 
L 707.348011 167.625337 
L 709.389475 166.700058 
L 711.430938 171.804942 
L 713.472402 178.008029 
L 715.513865 177.33855 
L 717.555328 172.748447 
L 719.596792 172.39616 
L 721.638255 173.206504 
L 723.679719 173.634984 
L 725.721182 178.249905 
L 727.762646 172.753057 
L 729.804109 178.902518 
L 731.845572 183.849566 
L 733.887036 180.004486 
L 735.928499 186.315686 
L 737.969963 182.634339 
L 740.011426 186.167643 
L 742.052889 184.116052 
L 744.094353 185.969191 
L 746.135816 189.444557 
L 748.17728 189.441828 
L 750.218743 190.665269 
L 752.260207 191.104834 
L 754.30167 191.663854 
L 756.343133 183.849745 
L 758.384597 194.405799 
L 760.42606 198.844501 
L 762.467524 194.949217 
L 764.508987 198.9209 
L 766.55045 199.945886 
L 768.591914 197.967442 
L 770.633377 202.423939 
L 772.674841 205.516636 
L 774.716304 204.119631 
L 776.757768 205.478929 
L 778.799231 206.344837 
L 780.840694 207.607335 
L 782.882158 211.051759 
L 784.923621 204.696875 
L 786.965085 213.097203 
L 789.006548 213.537922 
L 791.048011 214.128495 
L 793.089475 209.318601 
L 795.130938 215.773275 
L 797.172402 220.129247 
L 799.213865 216.247694 
L 801.255328 216.97376 
L 803.296792 222.951809 
L 805.338255 213.201218 
L 807.379719 222.789594 
L 809.421182 217.245585 
L 811.462646 225.684655 
L 813.504109 222.131924 
L 815.545572 225.967479 
L 817.587036 227.515438 
L 819.628499 229.584578 
L 821.669963 230.472201 
L 823.711426 228.043797 
L 825.752889 228.650276 
L 827.794353 230.494968 
L 829.835816 235.73088 
L 831.87728 235.611923 
L 833.918743 235.395562 
L 835.960207 240.43648 
L 838.00167 240.797821 
L 840.043133 237.037576 
L 842.084597 237.197078 
L 844.12606 249.109381 
L 846.167524 250.51885 
L 848.208987 253.525403 
L 850.25045 247.212917 
L 852.291914 235.167947 
L 854.333377 248.854008 
L 856.374841 244.917306 
L 858.416304 249.434072 
L 860.457768 255.456048 
L 862.499231 248.175844 
L 864.540694 258.577649 
L 866.582158 250.733208 
L 868.623621 250.835398 
L 870.665085 252.080523 
L 872.706548 258.434465 
L 874.748011 258.181892 
L 876.789475 257.31329 
L 878.830938 251.373787 
L 880.872402 255.237472 
L 882.913865 258.233395 
L 884.955328 255.847783 
L 886.996792 261.091896 
L 889.038255 257.611859 
L 891.079719 261.169064 
L 893.121182 266.657819 
L 895.162646 266.261214 
L 897.204109 261.586143 
L 899.245572 262.142522 
L 901.287036 261.623705 
L 903.328499 264.348834 
L 905.369963 264.698765 
L 907.411426 256.820129 
L 909.452889 263.775321 
L 911.494353 230.752815 
L 913.535816 264.601119 
L 915.57728 267.638638 
L 917.618743 262.366798 
L 919.660207 256.887267 
L 921.70167 268.628435 
L 923.743133 263.953743 
L 925.784597 255.454566 
L 927.82606 261.459628 
L 929.867524 261.964997 
L 931.908987 259.918189 
L 933.95045 265.630732 
L 935.991914 262.027553 
L 938.033377 264.600511 
L 940.074841 266.565803 
L 940.074841 228.379635 
L 940.074841 228.379635 
L 938.033377 231.663439 
L 935.991914 230.065365 
L 933.95045 231.772788 
L 931.908987 229.535798 
L 929.867524 230.745603 
L 927.82606 229.890151 
L 925.784597 230.709094 
L 923.743133 233.643585 
L 921.70167 234.17686 
L 919.660207 232.388449 
L 917.618743 232.982726 
L 915.57728 236.18343 
L 913.535816 234.345149 
L 911.494353 225.383923 
L 909.452889 235.380371 
L 907.411426 234.395247 
L 905.369963 236.194003 
L 903.328499 236.468226 
L 901.287036 236.013178 
L 899.245572 237.152233 
L 897.204109 237.233262 
L 895.162646 238.785166 
L 893.121182 239.259149 
L 891.079719 238.437032 
L 889.038255 237.699897 
L 886.996792 238.433987 
L 884.955328 236.842903 
L 882.913865 237.664662 
L 880.872402 237.39728 
L 878.830938 236.493359 
L 876.789475 238.762672 
L 874.748011 239.207781 
L 872.706548 240.103079 
L 870.665085 237.424489 
L 868.623621 237.681662 
L 866.582158 238.089796 
L 864.540694 240.489137 
L 862.499231 237.328013 
L 860.457768 239.853456 
L 858.416304 237.901357 
L 856.374841 236.666929 
L 854.333377 238.011073 
L 852.291914 231.99346 
L 850.25045 237.48344 
L 848.208987 240.200905 
L 846.167524 239.285592 
L 844.12606 238.698668 
L 842.084597 235.16882 
L 840.043133 234.72109 
L 838.00167 236.392971 
L 835.960207 236.079251 
L 833.918743 232.862863 
L 831.87728 233.220628 
L 829.835816 232.505869 
L 827.794353 225.063985 
L 825.752889 218.508033 
L 823.711426 216.945583 
L 821.669963 222.37196 
L 819.628499 220.585738 
L 817.587036 217.17848 
L 815.545572 213.690048 
L 813.504109 202.638244 
L 811.462646 213.364387 
L 809.421182 185.107023 
L 807.379719 203.948176 
L 805.338255 177.027908 
L 803.296792 205.901017 
L 801.255328 189.727482 
L 799.213865 189.264999 
L 797.172402 197.333857 
L 795.130938 187.400033 
L 793.089475 169.392729 
L 791.048011 182.239119 
L 789.006548 181.800733 
L 786.965085 181.094742 
L 784.923621 160.134059 
L 782.882158 170.274919 
L 780.840694 167.589876 
L 778.799231 165.914109 
L 776.757768 163.393895 
L 774.716304 158.79759 
L 772.674841 162.800461 
L 770.633377 154.884631 
L 768.591914 145.084679 
L 766.55045 152.81589 
L 764.508987 146.282251 
L 762.467524 140.409583 
L 760.42606 149.305531 
L 758.384597 139.108744 
L 756.343133 113.228444 
L 754.30167 131.660853 
L 752.260207 130.642912 
L 750.218743 130.441729 
L 748.17728 127.869353 
L 746.135816 127.674861 
L 744.094353 120.42382 
L 742.052889 117.261586 
L 740.011426 122.415703 
L 737.969963 111.981525 
L 735.928499 122.138414 
L 733.887036 107.764455 
L 731.845572 115.643518 
L 729.804109 105.978672 
L 727.762646 94.028949 
L 725.721182 104.482136 
L 723.679719 93.988931 
L 721.638255 94.384288 
L 719.596792 93.67763 
L 717.555328 94.400835 
L 715.513865 103.789039 
L 713.472402 105.783337 
L 711.430938 93.843184 
L 709.389475 81.595538 
L 707.348011 84.64434 
L 705.306548 81.928475 
L 703.265085 89.078443 
L 701.223621 87.955637 
L 699.182158 84.621663 
L 697.140694 88.193083 
L 695.099231 87.546045 
L 693.057768 81.12337 
L 691.016304 81.525342 
L 688.974841 78.858648 
L 686.933377 75.62817 
L 684.891914 89.023896 
L 682.85045 80.947692 
L 680.808987 70.02197 
L 678.767524 74.793715 
L 676.72606 79.025105 
L 674.684597 75.711286 
L 672.643133 73.078446 
L 670.60167 74.59375 
L 668.560207 79.041883 
L 666.518743 73.521425 
L 664.47728 71.290255 
L 662.435816 73.132158 
L 660.394353 69.566653 
L 658.352889 70.310398 
L 656.311426 63.451124 
L 654.269963 65.568347 
L 652.228499 57.288177 
L 650.187036 63.942974 
L 648.145572 60.420709 
L 646.104109 62.08798 
L 644.062646 59.645738 
L 642.021182 63.644155 
L 639.979719 56.203884 
L 637.938255 60.548135 
L 635.896792 55.827328 
L 633.855328 56.547866 
L 631.813865 52.821848 
L 629.772402 54.553159 
L 627.730938 59.545767 
L 625.689475 54.478159 
L 623.648011 55.586868 
L 621.606548 45.739974 
L 619.565085 50.187396 
L 617.523621 52.425227 
L 615.482158 44.847757 
L 613.440694 53.213021 
L 611.399231 53.838485 
L 609.357768 44.280243 
L 607.316304 44.442564 
L 605.274841 43.763174 
L 603.233377 40.320308 
L 601.191914 42.690017 
L 599.15045 41.82547 
L 597.108987 53.011163 
L 595.067524 45.273969 
L 593.02606 39.562013 
L 590.984597 39.716427 
L 588.943133 38.036377 
L 586.90167 34.590757 
L 584.860207 35.830859 
L 582.818743 33.506626 
L 580.77728 36.126036 
L 578.735816 32.734659 
L 576.694353 39.138172 
L 574.652889 39.979705 
L 572.611426 38.475309 
L 570.569963 39.883302 
L 568.528499 37.401272 
L 566.487036 39.272021 
L 564.445572 40.341966 
L 562.404109 43.314757 
L 560.362646 40.848064 
L 558.321182 44.180832 
L 556.279719 43.453596 
L 554.238255 49.716932 
L 552.196792 45.408656 
L 550.155328 43.095224 
L 548.113865 45.76766 
L 546.072402 46.956799 
L 544.030938 47.009762 
L 541.989475 50.637843 
L 539.948011 47.439227 
L 537.906548 49.880811 
L 535.865085 48.674227 
L 533.823621 49.240625 
L 531.782158 48.166602 
L 529.740694 46.602417 
L 527.699231 49.53455 
L 525.657768 53.442062 
L 523.616304 49.424186 
L 521.574841 51.698168 
L 519.533377 50.683193 
L 517.491914 51.977534 
L 515.45045 54.992228 
L 513.408987 53.943739 
L 511.367524 56.382586 
L 509.32606 57.010973 
L 507.284597 54.22043 
L 505.243133 55.830228 
L 503.20167 57.626048 
L 501.160207 58.258505 
L 499.118743 58.157001 
L 497.07728 59.421601 
L 495.035816 59.186504 
L 492.994353 61.073703 
L 490.952889 61.573071 
L 488.911426 61.968411 
L 486.869963 62.360914 
L 484.828499 58.898492 
L 482.787036 62.636284 
L 480.745572 64.103723 
L 478.704109 63.627698 
L 476.662646 63.697582 
L 474.621182 63.666105 
L 472.579719 64.712442 
L 470.538255 64.286659 
L 468.496792 65.879255 
L 466.455328 66.387635 
L 464.413865 65.914434 
L 462.372402 66.440598 
L 460.330938 67.176549 
L 458.289475 67.939982 
L 456.248011 70.727868 
L 454.206548 71.305608 
L 452.165085 72.598221 
L 450.123621 71.777072 
L 448.082158 73.012738 
L 446.040694 73.023314 
L 443.999231 73.315129 
L 441.957768 71.716256 
L 439.916304 75.66152 
L 437.874841 75.884169 
L 435.833377 76.016602 
L 433.791914 78.326316 
L 431.75045 78.014161 
L 429.708987 78.889044 
L 427.667524 77.500304 
L 425.62606 80.723249 
L 423.584597 79.57503 
L 421.543133 82.672953 
L 419.50167 84.828168 
L 417.460207 85.341054 
L 415.418743 88.08999 
L 413.37728 90.205847 
L 411.335816 89.970842 
L 409.294353 91.213902 
L 407.252889 91.464879 
L 405.211426 93.148604 
L 403.169963 92.478833 
L 401.128499 94.887539 
L 399.087036 96.656092 
L 397.045572 97.651565 
L 395.004109 98.195437 
L 392.962646 98.606675 
L 390.921182 101.24311 
L 388.879719 101.781805 
L 386.838255 103.378482 
L 384.796792 105.786325 
L 382.755328 106.491748 
L 380.713865 104.160731 
L 378.672402 104.765518 
L 376.630938 107.439964 
L 374.589475 107.692353 
L 372.548011 109.520468 
L 370.506548 110.829068 
L 368.465085 110.039207 
L 366.423621 110.828869 
L 364.382158 111.835463 
L 362.340694 113.68295 
L 360.299231 111.553523 
L 358.257768 112.4377 
L 356.216304 112.421857 
L 354.174841 115.084519 
L 352.133377 114.737922 
L 350.091914 113.238436 
L 348.05045 114.657246 
L 346.008987 116.121948 
L 343.967524 112.262619 
L 341.92606 115.81702 
L 339.884597 111.29055 
L 337.843133 111.113754 
L 335.80167 110.233744 
L 333.760207 111.346082 
L 331.718743 111.702765 
L 329.67728 111.198085 
L 327.635816 109.083238 
L 325.594353 110.791454 
L 323.552889 105.435998 
L 321.511426 99.400001 
L 319.469963 100.981464 
L 317.428499 104.030506 
L 315.387036 96.219142 
L 313.345572 96.655934 
L 311.304109 94.863287 
L 309.262646 94.442078 
L 307.221182 84.794635 
L 305.179719 84.063269 
L 303.138255 80.578675 
L 301.096792 73.036313 
L 299.055328 67.198926 
L 297.013865 73.706966 
L 294.972402 70.671306 
L 292.930938 65.355011 
L 290.889475 63.114795 
L 288.848011 59.122062 
L 286.806548 53.883062 
L 284.765085 56.23433 
L 282.723621 46.785913 
L 280.682158 42.169392 
L 278.640694 40.004853 
L 276.599231 38.303423 
L 274.557768 39.44246 
L 272.516304 37.174259 
L 270.474841 39.260087 
L 268.433377 42.21218 
L 266.391914 37.961795 
L 264.35045 37.69295 
L 262.308987 42.227764 
L 260.267524 43.397674 
L 258.22606 41.916755 
L 256.184597 51.12265 
L 254.143133 45.064588 
L 252.10167 47.468312 
L 250.060207 54.573739 
L 248.018743 52.945046 
L 245.97728 55.748143 
L 243.935816 58.295887 
L 241.894353 61.244743 
L 239.852889 64.068374 
L 237.811426 67.229672 
L 235.769963 70.180511 
L 233.728499 72.65171 
L 231.687036 76.397634 
L 229.645572 77.536509 
L 227.604109 83.331051 
L 225.562646 83.868579 
L 223.521182 86.929738 
L 221.479719 90.447934 
L 219.438255 93.149544 
L 217.396792 96.529813 
L 215.355328 99.013441 
L 213.313865 102.047333 
L 211.272402 103.952887 
L 209.230938 106.236648 
L 207.189475 108.878955 
L 205.148011 111.566409 
L 203.106548 113.277215 
L 201.065085 115.873812 
L 199.023621 117.701119 
L 196.982158 120.360488 
L 194.940694 122.45816 
L 192.899231 124.541569 
L 190.857768 126.82647 
L 188.816304 128.868249 
L 186.774841 130.626073 
L 184.733377 132.854097 
L 182.691914 134.063551 
L 180.65045 136.769603 
L 178.608987 138.642328 
L 176.567524 140.307181 
L 174.52606 142.305531 
L 172.484597 143.581172 
L 170.443133 145.365412 
L 168.40167 147.191034 
L 166.360207 149.182621 
L 164.318743 150.73264 
L 162.27728 152.255356 
L 160.235816 153.902945 
L 158.194353 155.487252 
L 156.152889 157.183216 
L 154.111426 158.555004 
L 152.069963 160.03496 
L 150.028499 161.258057 
L 147.987036 162.911717 
L 145.945572 164.12828 
L 143.904109 165.490478 
L 141.862646 167.164831 
L 139.821182 168.34187 
L 137.779719 168.727126 
L 135.738255 170.09708 
L 133.696792 170.821239 
L 131.655328 172.137031 
L 129.613865 173.657782 
L 127.572402 174.45614 
L 125.530938 175.198443 
L 123.489475 175.362284 
L 121.448011 176.12504 
L 119.406548 176.580154 
L 117.365085 177.066878 
L 115.323621 178.12496 
L 113.282158 178.73648 
L 111.240694 179.612282 
L 109.199231 179.090792 
L 107.157768 179.554241 
L 105.116304 178.734992 
L 103.074841 179.928551 
L 101.033377 180.0759 
L 98.991914 180.931858 
L 96.95045 178.968277 
L 94.908987 181.23294 
L 92.867524 180.993005 
L 90.82606 179.60414 
L 88.784597 179.202558 
L 86.743133 180.332265 
L 84.70167 182.33297 
L 82.660207 181.457961 
L 80.618743 181.337001 
L 78.57728 179.168092 
L 76.535816 179.052463 
L 74.494353 179.559936 
L 72.452889 180.737878 
L 70.411426 180.224272 
L 68.369963 179.858728 
L 66.328499 179.955709 
L 64.287036 180.630921 
L 62.245572 180.343262 
L 60.204109 180.731632 
L 58.162646 181.447764 
L 56.121182 180.759472 
L 54.079719 181.846098 
L 52.038255 181.923073 
L 49.996792 181.960785 
L 47.955328 182.611783 
L 45.913865 182.698813 
L 43.872402 183.434666 
L 41.830938 184.249895 
L 39.789475 184.164864 
L 37.748011 183.697229 
L 35.706548 183.335231 
L 33.665085 185.179752 
L 31.623621 184.751077 
L 29.582158 185.962976 
L 27.540694 185.89793 
L 25.499231 185.310214 
L 23.457768 186.5136 
L 21.416304 185.228281 
L 19.374841 185.205405 
L 17.333377 186.761636 
L 15.291914 185.502879 
L 13.25045 186.972336 
L 11.208987 187.392371 
L 9.167524 186.011568 
L 7.12606 181.784981 
L 5.084597 184.369845 
L 3.043133 183.028515 
L 1.00167 176.781598 
L -1.039793 181.981806 
L -3.081257 182.997319 
L -5.12272 177.217323 
L -7.164184 175.588649 
L -9.205647 178.589544 
L -11.247111 172.32853 
L -13.288574 161.200828 
L -15.330037 173.319725 
L -17.371501 177.97983 
L -19.412964 180.25864 
L -21.454428 165.111528 
L -23.495891 165.695716 
L -25.537354 157.980856 
L -27.578818 151.973945 
L -29.620281 163.962287 
L -31.661745 158.754738 
L -33.703208 148.007182 
L -35.744672 140.471247 
L -37.786135 140.900493 
L -39.827598 142.170621 
L -41.869062 140.561491 
L -43.910525 139.589673 
L -45.951989 143.84121 
L -47.993452 143.301727 
L -50.034915 140.484109 
L -52.076379 142.170643 
L -54.117842 141.006431 
L -56.159306 140.536452 
L -58.200769 140.623108 
L -60.242232 142.2884 
L -62.283696 143.271529 
L -64.325159 143.837247 
L -66.366623 145.285681 
L -68.408086 145.968302 
L -70.44955 147.136551 
L -72.491013 148.983954 
L -74.532476 150.433474 
L -76.57394 151.419719 
L -78.615403 152.521409 
L -80.656867 153.977329 
L -82.69833 154.896282 
L -84.739793 156.29297 
L -86.781257 157.987151 
L -88.82272 159.004478 
L -90.864184 159.689608 
L -92.905647 160.728907 
L -94.947111 161.798015 
L -96.988574 162.779557 
L -99.030037 163.71832 
L -101.071501 164.623212 
L -103.112964 165.863735 
L -105.154428 166.510894 
L -107.195891 167.420387 
L -109.237354 168.371014 
L -111.278818 169.173217 
L -113.320281 169.967341 
L -115.361745 170.631482 
L -117.403208 171.354373 
L -119.444672 172.314286 
L -121.486135 172.986753 
L -123.527598 173.772262 
L -125.569062 174.409844 
L -127.610525 175.12162 
L -129.651989 175.84047 
L -131.693452 176.56562 
L -133.734915 177.175422 
L -135.776379 177.896776 
L -137.817842 178.530176 
L -139.859306 179.209206 
L -141.900769 179.841142 
L -143.942232 180.493414 
L -145.983696 181.101701 
L -148.025159 181.749508 
L -150.066623 182.429626 
L -152.108086 182.946621 
L -154.14955 183.594799 
L -156.191013 184.15303 
L -158.232476 184.800822 
L -160.27394 185.273748 
L -162.315403 185.876148 
L -164.356867 186.450032 
L -166.39833 186.99632 
L -168.439793 187.552326 
L -170.481257 188.066435 
L -172.52272 188.666414 
L -174.564184 189.206085 
L -176.605647 189.650218 
L -178.647111 190.17818 
L -180.688574 190.705309 
L -182.730037 191.229749 
L -184.771501 191.735543 
L -186.812964 192.206747 
L -188.854428 192.725547 
L -190.895891 193.233901 
L -192.937354 193.744669 
L -194.978818 194.253447 
L -197.020281 194.775876 
L -199.061745 195.318858 
L -201.103208 195.785936 
L -203.144672 196.321131 
L -205.186135 196.845916 
L -207.227598 197.349397 
L -209.269062 197.868883 
L -211.310525 198.398988 
L -213.351989 198.913051 
L -215.393452 199.452717 
L -217.434915 199.944344 
L -219.476379 200.445937 
L -221.517842 200.976358 
L -223.559306 201.488421 
L -225.600769 201.973947 
L -227.642232 202.488126 
L -229.683696 202.956872 
L -231.725159 203.458388 
L -233.766623 203.992993 
L -235.808086 204.450694 
L -237.84955 204.963748 
L -239.891013 205.448914 
L -241.932476 205.958014 
L -243.97394 206.417921 
L -246.015403 206.956929 
L -248.056867 207.401878 
L -250.09833 207.901919 
L -252.139793 208.390872 
L -254.181257 208.892426 
L -256.22272 209.368555 
L -258.264184 209.853757 
L -260.305647 210.34102 
L -262.347111 210.845082 
L -264.388574 211.312669 
L -266.430037 211.743462 
L -268.471501 212.180721 
L -270.512964 212.620916 
L -272.554428 213.045946 
L -274.595891 213.478497 
L -276.637354 213.905938 
L -278.678818 214.313943 
L -280.720281 214.726992 
L -282.761745 215.137999 
L -284.803208 215.511618 
L -286.844672 215.891938 
L -288.886135 216.289179 
L -290.927598 216.665433 
L -292.969062 217.001715 
L -295.010525 217.372993 
L -297.051989 217.712141 
L -299.093452 218.024598 
L -301.134915 218.337446 
L -303.176379 218.630029 
L -305.217842 218.945955 
L -307.259306 219.206768 
L -309.300769 219.482688 
L -311.342232 219.742508 
L -313.383696 219.98335 
L -315.425159 220.202871 
L -317.466623 220.402432 
L -319.508086 220.600856 
L -321.54955 220.797701 
L -323.591013 220.960602 
L -325.632476 221.14293 
L -327.67394 221.297279 
L -329.715403 221.430254 
L -331.756867 221.586493 
L -333.79833 221.723207 
L -335.839793 221.836296 
L -337.881257 221.957842 
L -339.92272 222.076061 
L -341.964184 222.179945 
L -344.005647 222.284272 
L -346.047111 222.370435 
L -348.088574 222.474813 
L -350.130037 222.55769 
L -352.171501 222.644901 
L -354.212964 222.736503 
L -356.254428 222.81109 
L -358.295891 222.890207 
L -360.337354 222.994012 
L -362.378818 223.067071 
L -364.420281 223.156855 
L -366.461745 223.227757 
L -368.503208 223.322482 
L -370.544672 223.397278 
L -372.586135 223.47648 
L -374.627598 223.545669 
L -376.669062 223.608579 
L -378.710525 223.680577 
L -380.751989 223.760263 
L -382.793452 223.837661 
L -384.834915 223.903375 
L -386.876379 223.955931 
L -388.917842 224.032567 
L -390.959306 224.094925 
L -393.000769 224.17021 
z
" clip-path="url(#p3277bd2e50)" style="fill: #008000; fill-opacity: 0.3; stroke: #008000; stroke-opacity: 0.3"/>
   </g>
   <g id="matplotlib.axis_1">
    <g id="xtick_1">
     <g id="line2d_1">
      <defs>
       <path id="m6214226197" d="M 0 0 
L 0 3.5 
" style="stroke: #000000; stroke-width: 0.8"/>
      </defs>
      <g>
       <use xlink:href="#m6214226197" x="103.074841" y="395.28" style="stroke: #000000; stroke-width: 0.8"/>
      </g>
     </g>
     <g id="text_1">
      <!-- 2022-03-01 -->
      <g transform="translate(17.945813 495.213718) rotate(-45) scale(0.2 -0.2)">
       <defs>
        <path id="DejaVuSans-32" d="M 1228 531 
L 3431 531 
L 3431 0 
L 469 0 
L 469 531 
Q 828 903 1448 1529 
Q 2069 2156 2228 2338 
Q 2531 2678 2651 2914 
Q 2772 3150 2772 3378 
Q 2772 3750 2511 3984 
Q 2250 4219 1831 4219 
Q 1534 4219 1204 4116 
Q 875 4013 500 3803 
L 500 4441 
Q 881 4594 1212 4672 
Q 1544 4750 1819 4750 
Q 2544 4750 2975 4387 
Q 3406 4025 3406 3419 
Q 3406 3131 3298 2873 
Q 3191 2616 2906 2266 
Q 2828 2175 2409 1742 
Q 1991 1309 1228 531 
z
" transform="scale(0.015625)"/>
        <path id="DejaVuSans-30" d="M 2034 4250 
Q 1547 4250 1301 3770 
Q 1056 3291 1056 2328 
Q 1056 1369 1301 889 
Q 1547 409 2034 409 
Q 2525 409 2770 889 
Q 3016 1369 3016 2328 
Q 3016 3291 2770 3770 
Q 2525 4250 2034 4250 
z
M 2034 4750 
Q 2819 4750 3233 4129 
Q 3647 3509 3647 2328 
Q 3647 1150 3233 529 
Q 2819 -91 2034 -91 
Q 1250 -91 836 529 
Q 422 1150 422 2328 
Q 422 3509 836 4129 
Q 1250 4750 2034 4750 
z
" transform="scale(0.015625)"/>
        <path id="DejaVuSans-2d" d="M 313 2009 
L 1997 2009 
L 1997 1497 
L 313 1497 
L 313 2009 
z
" transform="scale(0.015625)"/>
        <path id="DejaVuSans-33" d="M 2597 2516 
Q 3050 2419 3304 2112 
Q 3559 1806 3559 1356 
Q 3559 666 3084 287 
Q 2609 -91 1734 -91 
Q 1441 -91 1130 -33 
Q 819 25 488 141 
L 488 750 
Q 750 597 1062 519 
Q 1375 441 1716 441 
Q 2309 441 2620 675 
Q 2931 909 2931 1356 
Q 2931 1769 2642 2001 
Q 2353 2234 1838 2234 
L 1294 2234 
L 1294 2753 
L 1863 2753 
Q 2328 2753 2575 2939 
Q 2822 3125 2822 3475 
Q 2822 3834 2567 4026 
Q 2313 4219 1838 4219 
Q 1578 4219 1281 4162 
Q 984 4106 628 3988 
L 628 4550 
Q 988 4650 1302 4700 
Q 1616 4750 1894 4750 
Q 2613 4750 3031 4423 
Q 3450 4097 3450 3541 
Q 3450 3153 3228 2886 
Q 3006 2619 2597 2516 
z
" transform="scale(0.015625)"/>
        <path id="DejaVuSans-31" d="M 794 531 
L 1825 531 
L 1825 4091 
L 703 3866 
L 703 4441 
L 1819 4666 
L 2450 4666 
L 2450 531 
L 3481 531 
L 3481 0 
L 794 0 
L 794 531 
z
" transform="scale(0.015625)"/>
       </defs>
       <use xlink:href="#DejaVuSans-32"/>
       <use xlink:href="#DejaVuSans-30" x="63.623047"/>
       <use xlink:href="#DejaVuSans-32" x="127.246094"/>
       <use xlink:href="#DejaVuSans-32" x="190.869141"/>
       <use xlink:href="#DejaVuSans-2d" x="254.492188"/>
       <use xlink:href="#DejaVuSans-30" x="290.576172"/>
       <use xlink:href="#DejaVuSans-33" x="354.199219"/>
       <use xlink:href="#DejaVuSans-2d" x="417.822266"/>
       <use xlink:href="#DejaVuSans-30" x="453.90625"/>
       <use xlink:href="#DejaVuSans-31" x="517.529297"/>
      </g>
     </g>
    </g>
    <g id="xtick_2">
     <g id="line2d_2">
      <g>
       <use xlink:href="#m6214226197" x="160.235816" y="395.28" style="stroke: #000000; stroke-width: 0.8"/>
      </g>
     </g>
     <g id="text_2">
      <!-- 2022-03-29 -->
      <g transform="translate(75.106789 495.213718) rotate(-45) scale(0.2 -0.2)">
       <defs>
        <path id="DejaVuSans-39" d="M 703 97 
L 703 672 
Q 941 559 1184 500 
Q 1428 441 1663 441 
Q 2288 441 2617 861 
Q 2947 1281 2994 2138 
Q 2813 1869 2534 1725 
Q 2256 1581 1919 1581 
Q 1219 1581 811 2004 
Q 403 2428 403 3163 
Q 403 3881 828 4315 
Q 1253 4750 1959 4750 
Q 2769 4750 3195 4129 
Q 3622 3509 3622 2328 
Q 3622 1225 3098 567 
Q 2575 -91 1691 -91 
Q 1453 -91 1209 -44 
Q 966 3 703 97 
z
M 1959 2075 
Q 2384 2075 2632 2365 
Q 2881 2656 2881 3163 
Q 2881 3666 2632 3958 
Q 2384 4250 1959 4250 
Q 1534 4250 1286 3958 
Q 1038 3666 1038 3163 
Q 1038 2656 1286 2365 
Q 1534 2075 1959 2075 
z
" transform="scale(0.015625)"/>
       </defs>
       <use xlink:href="#DejaVuSans-32"/>
       <use xlink:href="#DejaVuSans-30" x="63.623047"/>
       <use xlink:href="#DejaVuSans-32" x="127.246094"/>
       <use xlink:href="#DejaVuSans-32" x="190.869141"/>
       <use xlink:href="#DejaVuSans-2d" x="254.492188"/>
       <use xlink:href="#DejaVuSans-30" x="290.576172"/>
       <use xlink:href="#DejaVuSans-33" x="354.199219"/>
       <use xlink:href="#DejaVuSans-2d" x="417.822266"/>
       <use xlink:href="#DejaVuSans-32" x="453.90625"/>
       <use xlink:href="#DejaVuSans-39" x="517.529297"/>
      </g>
     </g>
    </g>
    <g id="xtick_3">
     <g id="line2d_3">
      <g>
       <use xlink:href="#m6214226197" x="217.396792" y="395.28" style="stroke: #000000; stroke-width: 0.8"/>
      </g>
     </g>
     <g id="text_3">
      <!-- 2022-04-26 -->
      <g transform="translate(132.267765 495.213718) rotate(-45) scale(0.2 -0.2)">
       <defs>
        <path id="DejaVuSans-34" d="M 2419 4116 
L 825 1625 
L 2419 1625 
L 2419 4116 
z
M 2253 4666 
L 3047 4666 
L 3047 1625 
L 3713 1625 
L 3713 1100 
L 3047 1100 
L 3047 0 
L 2419 0 
L 2419 1100 
L 313 1100 
L 313 1709 
L 2253 4666 
z
" transform="scale(0.015625)"/>
        <path id="DejaVuSans-36" d="M 2113 2584 
Q 1688 2584 1439 2293 
Q 1191 2003 1191 1497 
Q 1191 994 1439 701 
Q 1688 409 2113 409 
Q 2538 409 2786 701 
Q 3034 994 3034 1497 
Q 3034 2003 2786 2293 
Q 2538 2584 2113 2584 
z
M 3366 4563 
L 3366 3988 
Q 3128 4100 2886 4159 
Q 2644 4219 2406 4219 
Q 1781 4219 1451 3797 
Q 1122 3375 1075 2522 
Q 1259 2794 1537 2939 
Q 1816 3084 2150 3084 
Q 2853 3084 3261 2657 
Q 3669 2231 3669 1497 
Q 3669 778 3244 343 
Q 2819 -91 2113 -91 
Q 1303 -91 875 529 
Q 447 1150 447 2328 
Q 447 3434 972 4092 
Q 1497 4750 2381 4750 
Q 2619 4750 2861 4703 
Q 3103 4656 3366 4563 
z
" transform="scale(0.015625)"/>
       </defs>
       <use xlink:href="#DejaVuSans-32"/>
       <use xlink:href="#DejaVuSans-30" x="63.623047"/>
       <use xlink:href="#DejaVuSans-32" x="127.246094"/>
       <use xlink:href="#DejaVuSans-32" x="190.869141"/>
       <use xlink:href="#DejaVuSans-2d" x="254.492188"/>
       <use xlink:href="#DejaVuSans-30" x="290.576172"/>
       <use xlink:href="#DejaVuSans-34" x="354.199219"/>
       <use xlink:href="#DejaVuSans-2d" x="417.822266"/>
       <use xlink:href="#DejaVuSans-32" x="453.90625"/>
       <use xlink:href="#DejaVuSans-36" x="517.529297"/>
      </g>
     </g>
    </g>
    <g id="xtick_4">
     <g id="line2d_4">
      <g>
       <use xlink:href="#m6214226197" x="274.557768" y="395.28" style="stroke: #000000; stroke-width: 0.8"/>
      </g>
     </g>
     <g id="text_4">
      <!-- 2022-05-24 -->
      <g transform="translate(189.42874 495.213718) rotate(-45) scale(0.2 -0.2)">
       <defs>
        <path id="DejaVuSans-35" d="M 691 4666 
L 3169 4666 
L 3169 4134 
L 1269 4134 
L 1269 2991 
Q 1406 3038 1543 3061 
Q 1681 3084 1819 3084 
Q 2600 3084 3056 2656 
Q 3513 2228 3513 1497 
Q 3513 744 3044 326 
Q 2575 -91 1722 -91 
Q 1428 -91 1123 -41 
Q 819 9 494 109 
L 494 744 
Q 775 591 1075 516 
Q 1375 441 1709 441 
Q 2250 441 2565 725 
Q 2881 1009 2881 1497 
Q 2881 1984 2565 2268 
Q 2250 2553 1709 2553 
Q 1456 2553 1204 2497 
Q 953 2441 691 2322 
L 691 4666 
z
" transform="scale(0.015625)"/>
       </defs>
       <use xlink:href="#DejaVuSans-32"/>
       <use xlink:href="#DejaVuSans-30" x="63.623047"/>
       <use xlink:href="#DejaVuSans-32" x="127.246094"/>
       <use xlink:href="#DejaVuSans-32" x="190.869141"/>
       <use xlink:href="#DejaVuSans-2d" x="254.492188"/>
       <use xlink:href="#DejaVuSans-30" x="290.576172"/>
       <use xlink:href="#DejaVuSans-35" x="354.199219"/>
       <use xlink:href="#DejaVuSans-2d" x="417.822266"/>
       <use xlink:href="#DejaVuSans-32" x="453.90625"/>
       <use xlink:href="#DejaVuSans-34" x="517.529297"/>
      </g>
     </g>
    </g>
    <g id="xtick_5">
     <g id="line2d_5">
      <g>
       <use xlink:href="#m6214226197" x="331.718743" y="395.28" style="stroke: #000000; stroke-width: 0.8"/>
      </g>
     </g>
     <g id="text_5">
      <!-- 2022-06-21 -->
      <g transform="translate(246.589716 495.213718) rotate(-45) scale(0.2 -0.2)">
       <use xlink:href="#DejaVuSans-32"/>
       <use xlink:href="#DejaVuSans-30" x="63.623047"/>
       <use xlink:href="#DejaVuSans-32" x="127.246094"/>
       <use xlink:href="#DejaVuSans-32" x="190.869141"/>
       <use xlink:href="#DejaVuSans-2d" x="254.492188"/>
       <use xlink:href="#DejaVuSans-30" x="290.576172"/>
       <use xlink:href="#DejaVuSans-36" x="354.199219"/>
       <use xlink:href="#DejaVuSans-2d" x="417.822266"/>
       <use xlink:href="#DejaVuSans-32" x="453.90625"/>
       <use xlink:href="#DejaVuSans-31" x="517.529297"/>
      </g>
     </g>
    </g>
    <g id="xtick_6">
     <g id="line2d_6">
      <g>
       <use xlink:href="#m6214226197" x="388.879719" y="395.28" style="stroke: #000000; stroke-width: 0.8"/>
      </g>
     </g>
     <g id="text_6">
      <!-- 2022-07-19 -->
      <g transform="translate(303.750691 495.213718) rotate(-45) scale(0.2 -0.2)">
       <defs>
        <path id="DejaVuSans-37" d="M 525 4666 
L 3525 4666 
L 3525 4397 
L 1831 0 
L 1172 0 
L 2766 4134 
L 525 4134 
L 525 4666 
z
" transform="scale(0.015625)"/>
       </defs>
       <use xlink:href="#DejaVuSans-32"/>
       <use xlink:href="#DejaVuSans-30" x="63.623047"/>
       <use xlink:href="#DejaVuSans-32" x="127.246094"/>
       <use xlink:href="#DejaVuSans-32" x="190.869141"/>
       <use xlink:href="#DejaVuSans-2d" x="254.492188"/>
       <use xlink:href="#DejaVuSans-30" x="290.576172"/>
       <use xlink:href="#DejaVuSans-37" x="354.199219"/>
       <use xlink:href="#DejaVuSans-2d" x="417.822266"/>
       <use xlink:href="#DejaVuSans-31" x="453.90625"/>
       <use xlink:href="#DejaVuSans-39" x="517.529297"/>
      </g>
     </g>
    </g>
    <g id="xtick_7">
     <g id="line2d_7">
      <g>
       <use xlink:href="#m6214226197" x="446.040694" y="395.28" style="stroke: #000000; stroke-width: 0.8"/>
      </g>
     </g>
     <g id="text_7">
      <!-- 2022-08-16 -->
      <g transform="translate(360.911667 495.213718) rotate(-45) scale(0.2 -0.2)">
       <defs>
        <path id="DejaVuSans-38" d="M 2034 2216 
Q 1584 2216 1326 1975 
Q 1069 1734 1069 1313 
Q 1069 891 1326 650 
Q 1584 409 2034 409 
Q 2484 409 2743 651 
Q 3003 894 3003 1313 
Q 3003 1734 2745 1975 
Q 2488 2216 2034 2216 
z
M 1403 2484 
Q 997 2584 770 2862 
Q 544 3141 544 3541 
Q 544 4100 942 4425 
Q 1341 4750 2034 4750 
Q 2731 4750 3128 4425 
Q 3525 4100 3525 3541 
Q 3525 3141 3298 2862 
Q 3072 2584 2669 2484 
Q 3125 2378 3379 2068 
Q 3634 1759 3634 1313 
Q 3634 634 3220 271 
Q 2806 -91 2034 -91 
Q 1263 -91 848 271 
Q 434 634 434 1313 
Q 434 1759 690 2068 
Q 947 2378 1403 2484 
z
M 1172 3481 
Q 1172 3119 1398 2916 
Q 1625 2713 2034 2713 
Q 2441 2713 2670 2916 
Q 2900 3119 2900 3481 
Q 2900 3844 2670 4047 
Q 2441 4250 2034 4250 
Q 1625 4250 1398 4047 
Q 1172 3844 1172 3481 
z
" transform="scale(0.015625)"/>
       </defs>
       <use xlink:href="#DejaVuSans-32"/>
       <use xlink:href="#DejaVuSans-30" x="63.623047"/>
       <use xlink:href="#DejaVuSans-32" x="127.246094"/>
       <use xlink:href="#DejaVuSans-32" x="190.869141"/>
       <use xlink:href="#DejaVuSans-2d" x="254.492188"/>
       <use xlink:href="#DejaVuSans-30" x="290.576172"/>
       <use xlink:href="#DejaVuSans-38" x="354.199219"/>
       <use xlink:href="#DejaVuSans-2d" x="417.822266"/>
       <use xlink:href="#DejaVuSans-31" x="453.90625"/>
       <use xlink:href="#DejaVuSans-36" x="517.529297"/>
      </g>
     </g>
    </g>
    <g id="xtick_8">
     <g id="line2d_8">
      <g>
       <use xlink:href="#m6214226197" x="503.20167" y="395.28" style="stroke: #000000; stroke-width: 0.8"/>
      </g>
     </g>
     <g id="text_8">
      <!-- 2022-09-13 -->
      <g transform="translate(418.072643 495.213718) rotate(-45) scale(0.2 -0.2)">
       <use xlink:href="#DejaVuSans-32"/>
       <use xlink:href="#DejaVuSans-30" x="63.623047"/>
       <use xlink:href="#DejaVuSans-32" x="127.246094"/>
       <use xlink:href="#DejaVuSans-32" x="190.869141"/>
       <use xlink:href="#DejaVuSans-2d" x="254.492188"/>
       <use xlink:href="#DejaVuSans-30" x="290.576172"/>
       <use xlink:href="#DejaVuSans-39" x="354.199219"/>
       <use xlink:href="#DejaVuSans-2d" x="417.822266"/>
       <use xlink:href="#DejaVuSans-31" x="453.90625"/>
       <use xlink:href="#DejaVuSans-33" x="517.529297"/>
      </g>
     </g>
    </g>
    <g id="xtick_9">
     <g id="line2d_9">
      <g>
       <use xlink:href="#m6214226197" x="560.362646" y="395.28" style="stroke: #000000; stroke-width: 0.8"/>
      </g>
     </g>
     <g id="text_9">
      <!-- 2022-10-11 -->
      <g transform="translate(475.233618 495.213718) rotate(-45) scale(0.2 -0.2)">
       <use xlink:href="#DejaVuSans-32"/>
       <use xlink:href="#DejaVuSans-30" x="63.623047"/>
       <use xlink:href="#DejaVuSans-32" x="127.246094"/>
       <use xlink:href="#DejaVuSans-32" x="190.869141"/>
       <use xlink:href="#DejaVuSans-2d" x="254.492188"/>
       <use xlink:href="#DejaVuSans-31" x="290.576172"/>
       <use xlink:href="#DejaVuSans-30" x="354.199219"/>
       <use xlink:href="#DejaVuSans-2d" x="417.822266"/>
       <use xlink:href="#DejaVuSans-31" x="453.90625"/>
       <use xlink:href="#DejaVuSans-31" x="517.529297"/>
      </g>
     </g>
    </g>
    <g id="xtick_10">
     <g id="line2d_10">
      <g>
       <use xlink:href="#m6214226197" x="617.523621" y="395.28" style="stroke: #000000; stroke-width: 0.8"/>
      </g>
     </g>
     <g id="text_10">
      <!-- 2022-11-08 -->
      <g transform="translate(532.394594 495.213718) rotate(-45) scale(0.2 -0.2)">
       <use xlink:href="#DejaVuSans-32"/>
       <use xlink:href="#DejaVuSans-30" x="63.623047"/>
       <use xlink:href="#DejaVuSans-32" x="127.246094"/>
       <use xlink:href="#DejaVuSans-32" x="190.869141"/>
       <use xlink:href="#DejaVuSans-2d" x="254.492188"/>
       <use xlink:href="#DejaVuSans-31" x="290.576172"/>
       <use xlink:href="#DejaVuSans-31" x="354.199219"/>
       <use xlink:href="#DejaVuSans-2d" x="417.822266"/>
       <use xlink:href="#DejaVuSans-30" x="453.90625"/>
       <use xlink:href="#DejaVuSans-38" x="517.529297"/>
      </g>
     </g>
    </g>
    <g id="xtick_11">
     <g id="line2d_11">
      <g>
       <use xlink:href="#m6214226197" x="674.684597" y="395.28" style="stroke: #000000; stroke-width: 0.8"/>
      </g>
     </g>
     <g id="text_11">
      <!-- 2022-12-06 -->
      <g transform="translate(589.555569 495.213718) rotate(-45) scale(0.2 -0.2)">
       <use xlink:href="#DejaVuSans-32"/>
       <use xlink:href="#DejaVuSans-30" x="63.623047"/>
       <use xlink:href="#DejaVuSans-32" x="127.246094"/>
       <use xlink:href="#DejaVuSans-32" x="190.869141"/>
       <use xlink:href="#DejaVuSans-2d" x="254.492188"/>
       <use xlink:href="#DejaVuSans-31" x="290.576172"/>
       <use xlink:href="#DejaVuSans-32" x="354.199219"/>
       <use xlink:href="#DejaVuSans-2d" x="417.822266"/>
       <use xlink:href="#DejaVuSans-30" x="453.90625"/>
       <use xlink:href="#DejaVuSans-36" x="517.529297"/>
      </g>
     </g>
    </g>
    <g id="xtick_12">
     <g id="line2d_12">
      <g>
       <use xlink:href="#m6214226197" x="731.845572" y="395.28" style="stroke: #000000; stroke-width: 0.8"/>
      </g>
     </g>
     <g id="text_12">
      <!-- 2023-01-03 -->
      <g transform="translate(646.716545 495.213718) rotate(-45) scale(0.2 -0.2)">
       <use xlink:href="#DejaVuSans-32"/>
       <use xlink:href="#DejaVuSans-30" x="63.623047"/>
       <use xlink:href="#DejaVuSans-32" x="127.246094"/>
       <use xlink:href="#DejaVuSans-33" x="190.869141"/>
       <use xlink:href="#DejaVuSans-2d" x="254.492188"/>
       <use xlink:href="#DejaVuSans-30" x="290.576172"/>
       <use xlink:href="#DejaVuSans-31" x="354.199219"/>
       <use xlink:href="#DejaVuSans-2d" x="417.822266"/>
       <use xlink:href="#DejaVuSans-30" x="453.90625"/>
       <use xlink:href="#DejaVuSans-33" x="517.529297"/>
      </g>
     </g>
    </g>
    <g id="xtick_13">
     <g id="line2d_13">
      <g>
       <use xlink:href="#m6214226197" x="789.006548" y="395.28" style="stroke: #000000; stroke-width: 0.8"/>
      </g>
     </g>
     <g id="text_13">
      <!-- 2023-01-31 -->
      <g transform="translate(703.877521 495.213718) rotate(-45) scale(0.2 -0.2)">
       <use xlink:href="#DejaVuSans-32"/>
       <use xlink:href="#DejaVuSans-30" x="63.623047"/>
       <use xlink:href="#DejaVuSans-32" x="127.246094"/>
       <use xlink:href="#DejaVuSans-33" x="190.869141"/>
       <use xlink:href="#DejaVuSans-2d" x="254.492188"/>
       <use xlink:href="#DejaVuSans-30" x="290.576172"/>
       <use xlink:href="#DejaVuSans-31" x="354.199219"/>
       <use xlink:href="#DejaVuSans-2d" x="417.822266"/>
       <use xlink:href="#DejaVuSans-33" x="453.90625"/>
       <use xlink:href="#DejaVuSans-31" x="517.529297"/>
      </g>
     </g>
    </g>
    <g id="xtick_14">
     <g id="line2d_14">
      <g>
       <use xlink:href="#m6214226197" x="846.167524" y="395.28" style="stroke: #000000; stroke-width: 0.8"/>
      </g>
     </g>
     <g id="text_14">
      <!-- 2023-02-28 -->
      <g transform="translate(761.038496 495.213718) rotate(-45) scale(0.2 -0.2)">
       <use xlink:href="#DejaVuSans-32"/>
       <use xlink:href="#DejaVuSans-30" x="63.623047"/>
       <use xlink:href="#DejaVuSans-32" x="127.246094"/>
       <use xlink:href="#DejaVuSans-33" x="190.869141"/>
       <use xlink:href="#DejaVuSans-2d" x="254.492188"/>
       <use xlink:href="#DejaVuSans-30" x="290.576172"/>
       <use xlink:href="#DejaVuSans-32" x="354.199219"/>
       <use xlink:href="#DejaVuSans-2d" x="417.822266"/>
       <use xlink:href="#DejaVuSans-32" x="453.90625"/>
       <use xlink:href="#DejaVuSans-38" x="517.529297"/>
      </g>
     </g>
    </g>
    <g id="xtick_15">
     <g id="line2d_15">
      <g>
       <use xlink:href="#m6214226197" x="903.328499" y="395.28" style="stroke: #000000; stroke-width: 0.8"/>
      </g>
     </g>
     <g id="text_15">
      <!-- 2023-03-28 -->
      <g transform="translate(818.199472 495.213718) rotate(-45) scale(0.2 -0.2)">
       <use xlink:href="#DejaVuSans-32"/>
       <use xlink:href="#DejaVuSans-30" x="63.623047"/>
       <use xlink:href="#DejaVuSans-32" x="127.246094"/>
       <use xlink:href="#DejaVuSans-33" x="190.869141"/>
       <use xlink:href="#DejaVuSans-2d" x="254.492188"/>
       <use xlink:href="#DejaVuSans-30" x="290.576172"/>
       <use xlink:href="#DejaVuSans-33" x="354.199219"/>
       <use xlink:href="#DejaVuSans-2d" x="417.822266"/>
       <use xlink:href="#DejaVuSans-32" x="453.90625"/>
       <use xlink:href="#DejaVuSans-38" x="517.529297"/>
      </g>
     </g>
    </g>
    <g id="xtick_16">
     <g id="line2d_16">
      <g>
       <use xlink:href="#m6214226197" x="940.074841" y="395.28" style="stroke: #000000; stroke-width: 0.8"/>
      </g>
     </g>
     <g id="text_16">
      <!-- 2023-04-15 -->
      <g transform="translate(854.945813 495.213718) rotate(-45) scale(0.2 -0.2)">
       <use xlink:href="#DejaVuSans-32"/>
       <use xlink:href="#DejaVuSans-30" x="63.623047"/>
       <use xlink:href="#DejaVuSans-32" x="127.246094"/>
       <use xlink:href="#DejaVuSans-33" x="190.869141"/>
       <use xlink:href="#DejaVuSans-2d" x="254.492188"/>
       <use xlink:href="#DejaVuSans-30" x="290.576172"/>
       <use xlink:href="#DejaVuSans-34" x="354.199219"/>
       <use xlink:href="#DejaVuSans-2d" x="417.822266"/>
       <use xlink:href="#DejaVuSans-31" x="453.90625"/>
       <use xlink:href="#DejaVuSans-35" x="517.529297"/>
      </g>
     </g>
    </g>
   </g>
   <g id="matplotlib.axis_2">
    <g id="ytick_1">
     <g id="line2d_17">
      <defs>
       <path id="mc6d144148f" d="M 0 0 
L -3.5 0 
" style="stroke: #000000; stroke-width: 0.8"/>
      </defs>
      <g>
       <use xlink:href="#mc6d144148f" x="103.074841" y="390.084989" style="stroke: #000000; stroke-width: 0.8"/>
      </g>
     </g>
     <g id="text_17">
      <!-- 0.15 -->
      <g transform="translate(34.784216 397.683426) scale(0.2 -0.2)">
       <defs>
        <path id="DejaVuSans-2212" d="M 678 2272 
L 4684 2272 
L 4684 1741 
L 678 1741 
L 678 2272 
z
" transform="scale(0.015625)"/>
        <path id="DejaVuSans-2e" d="M 684 794 
L 1344 794 
L 1344 0 
L 684 0 
L 684 794 
z
" transform="scale(0.015625)"/>
       </defs>
       <use xlink:href="#DejaVuSans-2212"/>
       <use xlink:href="#DejaVuSans-30" x="83.789062"/>
       <use xlink:href="#DejaVuSans-2e" x="147.412109"/>
       <use xlink:href="#DejaVuSans-31" x="179.199219"/>
       <use xlink:href="#DejaVuSans-35" x="242.822266"/>
      </g>
     </g>
    </g>
    <g id="ytick_2">
     <g id="line2d_18">
      <g>
       <use xlink:href="#mc6d144148f" x="103.074841" y="334.804037" style="stroke: #000000; stroke-width: 0.8"/>
      </g>
     </g>
     <g id="text_18">
      <!-- 0.10 -->
      <g transform="translate(34.784216 342.402474) scale(0.2 -0.2)">
       <use xlink:href="#DejaVuSans-2212"/>
       <use xlink:href="#DejaVuSans-30" x="83.789062"/>
       <use xlink:href="#DejaVuSans-2e" x="147.412109"/>
       <use xlink:href="#DejaVuSans-31" x="179.199219"/>
       <use xlink:href="#DejaVuSans-30" x="242.822266"/>
      </g>
     </g>
    </g>
    <g id="ytick_3">
     <g id="line2d_19">
      <g>
       <use xlink:href="#mc6d144148f" x="103.074841" y="279.523085" style="stroke: #000000; stroke-width: 0.8"/>
      </g>
     </g>
     <g id="text_19">
      <!-- 0.05 -->
      <g transform="translate(34.784216 287.121522) scale(0.2 -0.2)">
       <use xlink:href="#DejaVuSans-2212"/>
       <use xlink:href="#DejaVuSans-30" x="83.789062"/>
       <use xlink:href="#DejaVuSans-2e" x="147.412109"/>
       <use xlink:href="#DejaVuSans-30" x="179.199219"/>
       <use xlink:href="#DejaVuSans-35" x="242.822266"/>
      </g>
     </g>
    </g>
    <g id="ytick_4">
     <g id="line2d_20">
      <g>
       <use xlink:href="#mc6d144148f" x="103.074841" y="224.242132" style="stroke: #000000; stroke-width: 0.8"/>
      </g>
     </g>
     <g id="text_20">
      <!-- 0.00 -->
      <g transform="translate(51.543591 231.84057) scale(0.2 -0.2)">
       <use xlink:href="#DejaVuSans-30"/>
       <use xlink:href="#DejaVuSans-2e" x="63.623047"/>
       <use xlink:href="#DejaVuSans-30" x="95.410156"/>
       <use xlink:href="#DejaVuSans-30" x="159.033203"/>
      </g>
     </g>
    </g>
    <g id="ytick_5">
     <g id="line2d_21">
      <g>
       <use xlink:href="#mc6d144148f" x="103.074841" y="168.96118" style="stroke: #000000; stroke-width: 0.8"/>
      </g>
     </g>
     <g id="text_21">
      <!-- 0.05 -->
      <g transform="translate(51.543591 176.559618) scale(0.2 -0.2)">
       <use xlink:href="#DejaVuSans-30"/>
       <use xlink:href="#DejaVuSans-2e" x="63.623047"/>
       <use xlink:href="#DejaVuSans-30" x="95.410156"/>
       <use xlink:href="#DejaVuSans-35" x="159.033203"/>
      </g>
     </g>
    </g>
    <g id="ytick_6">
     <g id="line2d_22">
      <g>
       <use xlink:href="#mc6d144148f" x="103.074841" y="113.680228" style="stroke: #000000; stroke-width: 0.8"/>
      </g>
     </g>
     <g id="text_22">
      <!-- 0.10 -->
      <g transform="translate(51.543591 121.278665) scale(0.2 -0.2)">
       <use xlink:href="#DejaVuSans-30"/>
       <use xlink:href="#DejaVuSans-2e" x="63.623047"/>
       <use xlink:href="#DejaVuSans-31" x="95.410156"/>
       <use xlink:href="#DejaVuSans-30" x="159.033203"/>
      </g>
     </g>
    </g>
    <g id="ytick_7">
     <g id="line2d_23">
      <g>
       <use xlink:href="#mc6d144148f" x="103.074841" y="58.399276" style="stroke: #000000; stroke-width: 0.8"/>
      </g>
     </g>
     <g id="text_23">
      <!-- 0.15 -->
      <g transform="translate(51.543591 65.997713) scale(0.2 -0.2)">
       <use xlink:href="#DejaVuSans-30"/>
       <use xlink:href="#DejaVuSans-2e" x="63.623047"/>
       <use xlink:href="#DejaVuSans-31" x="95.410156"/>
       <use xlink:href="#DejaVuSans-35" x="159.033203"/>
      </g>
     </g>
    </g>
   </g>
   <g id="line2d_24">
    <path d="M 715.513865 45.479591 
L 721.638255 45.479591 
L 723.679719 146.69587 
L 725.721182 146.69587 
L 727.762646 121.887789 
L 729.804109 179.598767 
L 731.845572 179.598767 
L 733.887036 144.315951 
L 735.928499 196.794486 
L 744.094353 196.794486 
L 746.135816 232.367215 
L 748.17728 193.962632 
L 750.218743 167.367079 
L 752.260207 167.367079 
L 754.30167 96.857416 
L 756.343133 96.857416 
L 758.384597 129.668018 
L 760.42606 115.15418 
L 762.467524 115.15418 
L 764.508987 149.438825 
L 766.55045 133.183549 
L 768.591914 82.361356 
L 770.633377 66.281155 
L 772.674841 66.281155 
L 774.716304 60.624589 
L 776.757768 24.84 
L 778.799231 63.894147 
L 780.840694 86.088917 
L 782.882158 58.822832 
L 784.923621 122.182259 
L 786.965085 116.483444 
L 789.006548 105.434904 
L 791.048011 105.434904 
L 793.089475 102.052716 
L 795.130938 100.549779 
L 797.172402 93.372336 
L 799.213865 153.671858 
L 801.255328 170.332789 
L 803.296792 165.407056 
L 805.338255 171.38958 
L 807.379719 190.980509 
L 809.421182 192.998063 
L 811.462646 196.827898 
L 813.504109 244.591747 
L 815.545572 240.441346 
L 817.587036 253.792125 
L 819.628499 245.196145 
L 821.669963 233.869769 
L 823.711426 234.736284 
L 825.752889 235.93435 
L 827.794353 252.391026 
L 829.835816 245.90755 
L 831.87728 244.790655 
L 833.918743 256.868871 
L 835.960207 260.807714 
L 838.00167 253.957798 
L 840.043133 251.290681 
L 842.084597 259.093203 
L 844.12606 233.891622 
L 846.167524 230.78897 
L 848.208987 223.137006 
L 852.291914 280.800761 
L 854.333377 299.277455 
L 856.374841 329.054916 
L 858.416304 319.775685 
L 860.457768 316.781831 
L 862.499231 360.237091 
L 864.540694 353.084607 
L 866.582158 348.819806 
L 870.665085 348.819806 
L 872.706548 377.64 
M 907.411426 151.463574 
L 917.618743 151.463574 
L 917.618743 151.463574 
" clip-path="url(#p3277bd2e50)" style="fill: none; stroke: #ffa500; stroke-width: 1.5; stroke-linecap: square"/>
   </g>
   <g id="line2d_25">
    <path d="M 103.074841 224.242132 
L 948.274841 224.242132 
" clip-path="url(#p3277bd2e50)" style="fill: none; stroke-dasharray: 7.4,3.2; stroke-dashoffset: 0; stroke: #000000; stroke-width: 2"/>
   </g>
   <g id="patch_3">
    <path d="M 103.074841 395.28 
L 103.074841 7.2 
" style="fill: none; stroke: #000000; stroke-width: 0.8; stroke-linejoin: miter; stroke-linecap: square"/>
   </g>
   <g id="patch_4">
    <path d="M 940.074841 395.28 
L 940.074841 7.2 
" style="fill: none; stroke: #000000; stroke-width: 0.8; stroke-linejoin: miter; stroke-linecap: square"/>
   </g>
   <g id="patch_5">
    <path d="M 103.074841 395.28 
L 940.074841 395.28 
" style="fill: none; stroke: #000000; stroke-width: 0.8; stroke-linejoin: miter; stroke-linecap: square"/>
   </g>
   <g id="patch_6">
    <path d="M 103.074841 7.2 
L 940.074841 7.2 
" style="fill: none; stroke: #000000; stroke-width: 0.8; stroke-linejoin: miter; stroke-linecap: square"/>
   </g>
  </g>
 </g>
 <defs>
  <clipPath id="p3277bd2e50">
   <rect x="103.074841" y="7.2" width="837" height="388.08"/>
  </clipPath>
 </defs>
</svg>
