<?xml version="1.0" encoding="utf-8" standalone="no"?>
<!DOCTYPE svg PUBLIC "-//W3C//DTD SVG 1.1//EN"
  "http://www.w3.org/Graphics/SVG/1.1/DTD/svg11.dtd">
<svg xmlns:xlink="http://www.w3.org/1999/xlink" width="1040.965466pt" height="505.354841pt" viewBox="0 0 1040.965466 505.354841" xmlns="http://www.w3.org/2000/svg" version="1.1">
 <metadata>
  <rdf:RDF xmlns:dc="http://purl.org/dc/elements/1.1/" xmlns:cc="http://creativecommons.org/ns#" xmlns:rdf="http://www.w3.org/1999/02/22-rdf-syntax-ns#">
   <cc:Work>
    <dc:type rdf:resource="http://purl.org/dc/dcmitype/StillImage"/>
    <dc:date>2023-11-29T15:47:56.636333</dc:date>
    <dc:format>image/svg+xml</dc:format>
    <dc:creator>
     <cc:Agent>
      <dc:title>Matplotlib v3.7.2, https://matplotlib.org/</dc:title>
     </cc:Agent>
    </dc:creator>
   </cc:Work>
  </rdf:RDF>
 </metadata>
 <defs>
  <style type="text/css">*{stroke-linejoin: round; stroke-linecap: butt}</style>
 </defs>
 <g id="figure_1">
  <g id="patch_1">
   <path d="M 0 505.354841 
L 1040.965466 505.354841 
L 1040.965466 -0 
L 0 -0 
z
" style="fill: #ffffff"/>
  </g>
  <g id="axes_1">
   <g id="patch_2">
    <path d="M 103.074841 395.28 
L 940.074841 395.28 
L 940.074841 7.2 
L 103.074841 7.2 
z
" style="fill: #ffffff"/>
   </g>
   <g id="PolyCollection_1">
    <path d="M -393.000769 318.645793 
L -393.000769 318.661473 
L -390.959306 318.570691 
L -388.917842 318.495551 
L -386.876379 318.406405 
L -384.834915 318.347332 
L -382.793452 318.283596 
L -380.751989 318.205673 
L -378.710525 318.12893 
L -376.669062 318.057913 
L -374.627598 318.000129 
L -372.586135 317.929038 
L -370.544672 317.850525 
L -368.503208 317.773322 
L -366.461745 317.684982 
L -364.420281 317.611822 
L -362.378818 317.525862 
L -360.337354 317.447704 
L -358.295891 317.347 
L -356.254428 317.263916 
L -354.212964 317.184161 
L -352.171501 317.087399 
L -350.130037 316.993128 
L -348.088574 316.902476 
L -346.047111 316.792799 
L -344.005647 316.697578 
L -341.964184 316.579927 
L -339.92272 316.46915 
L -337.881257 316.338496 
L -335.839793 316.203427 
L -333.79833 316.07628 
L -331.756867 315.932101 
L -329.715403 315.761633 
L -327.67394 315.613973 
L -325.632476 315.444197 
L -323.591013 315.2481 
L -321.54955 315.061059 
L -319.508086 314.854894 
L -317.466623 314.638081 
L -315.425159 314.418259 
L -313.383696 314.17967 
L -311.342232 313.911111 
L -309.300769 313.639512 
L -307.259306 313.350445 
L -305.217842 313.063999 
L -303.176379 312.73532 
L -301.134915 312.421734 
L -299.093452 312.079375 
L -297.051989 311.752059 
L -295.010525 311.38568 
L -292.969062 310.993796 
L -290.927598 310.626382 
L -288.886135 310.232841 
L -286.844672 309.814401 
L -284.803208 309.407322 
L -282.761745 308.994577 
L -280.720281 308.56081 
L -278.678818 308.123792 
L -276.637354 307.683566 
L -274.595891 307.223189 
L -272.554428 306.757353 
L -270.512964 306.294631 
L -268.471501 305.814732 
L -266.430037 305.334737 
L -264.388574 304.856309 
L -262.347111 304.355077 
L -260.305647 303.839652 
L -258.264184 303.328292 
L -256.22272 302.818702 
L -254.181257 302.314552 
L -252.139793 301.794455 
L -250.09833 301.284586 
L -248.056867 300.764111 
L -246.015403 300.292982 
L -243.97394 299.741416 
L -241.932476 299.266925 
L -239.891013 298.722912 
L -237.84955 298.236924 
L -235.808086 297.70726 
L -233.766623 297.240251 
L -231.725159 296.702186 
L -229.683696 296.199989 
L -227.642232 295.729677 
L -225.600769 295.207161 
L -223.559306 294.737047 
L -221.517842 294.236176 
L -219.476379 293.723453 
L -217.434915 293.230813 
L -215.393452 292.757971 
L -213.351989 292.245969 
L -211.310525 291.755714 
L -209.269062 291.252082 
L -207.227598 290.758165 
L -205.186135 290.286581 
L -203.144672 289.79954 
L -201.103208 289.30629 
L -199.061745 288.868166 
L -197.020281 288.362154 
L -194.978818 287.879364 
L -192.937354 287.40471 
L -190.895891 286.928495 
L -188.854428 286.452757 
L -186.812964 285.969317 
L -184.771501 285.510163 
L -182.730037 285.029724 
L -180.688574 284.535287 
L -178.647111 284.034279 
L -176.605647 283.526872 
L -174.564184 283.055036 
L -172.52272 282.530421 
L -170.481257 281.967582 
L -168.439793 281.436879 
L -166.39833 280.885461 
L -164.356867 280.32012 
L -162.315403 279.720401 
L -160.27394 279.109603 
L -158.232476 278.546375 
L -156.191013 277.897282 
L -154.14955 277.283697 
L -152.108086 276.619896 
L -150.066623 276.015441 
L -148.025159 275.295712 
L -145.983696 274.592108 
L -143.942232 273.910861 
L -141.900769 273.217642 
L -139.859306 272.50228 
L -137.817842 271.752615 
L -135.776379 271.055139 
L -133.734915 270.247999 
L -131.693452 269.54732 
L -129.651989 268.716477 
L -127.610525 267.914988 
L -125.569062 267.135102 
L -123.527598 266.322379 
L -121.486135 265.476499 
L -119.444672 264.723167 
L -117.403208 263.706414 
L -115.361745 262.843543 
L -113.320281 262.04645 
L -111.278818 261.137418 
L -109.237354 260.182252 
L -107.195891 259.10832 
L -105.154428 258.111984 
L -103.112964 257.286632 
L -101.071501 255.934513 
L -99.030037 254.868765 
L -96.988574 253.781072 
L -94.947111 252.652883 
L -92.905647 251.357633 
L -90.864184 250.125847 
L -88.82272 249.246302 
L -86.781257 248.115988 
L -84.739793 246.148083 
L -82.69833 244.501932 
L -80.656867 243.310358 
L -78.615403 241.733936 
L -76.57394 240.249014 
L -74.532476 239.149752 
L -72.491013 237.297356 
L -70.44955 235.283477 
L -68.408086 233.954141 
L -66.366623 233.135519 
L -64.325159 231.410148 
L -62.283696 230.691037 
L -60.242232 229.54499 
L -58.200769 227.801062 
L -56.159306 227.455043 
L -54.117842 228.125557 
L -52.076379 229.516587 
L -50.034915 227.662913 
L -47.993452 230.831946 
L -45.951989 231.836481 
L -43.910525 227.145499 
L -41.869062 228.349322 
L -39.827598 230.838674 
L -37.786135 229.675266 
L -35.744672 229.527791 
L -33.703208 238.803482 
L -31.661745 252.135218 
L -29.620281 258.681642 
L -27.578818 244.409983 
L -25.537354 251.768759 
L -23.495891 261.487027 
L -21.454428 260.976292 
L -19.412964 280.581619 
L -17.371501 277.722195 
L -15.330037 271.776276 
L -13.288574 256.897865 
L -11.247111 270.949447 
L -9.205647 279.185559 
L -7.164184 275.84614 
L -5.12272 277.786878 
L -3.081257 285.704252 
L -1.039793 284.646074 
L 1.00167 277.776312 
L 3.043133 286.291791 
L 5.084597 287.952216 
L 7.12606 284.867677 
L 9.167524 290.317617 
L 11.208987 292.409604 
L 13.25045 291.642641 
L 15.291914 289.950528 
L 17.333377 291.709316 
L 19.374841 289.844234 
L 21.416304 289.975336 
L 23.457768 291.703947 
L 25.499231 290.004454 
L 27.540694 290.792695 
L 29.582158 290.82005 
L 31.623621 289.495432 
L 33.665085 289.942568 
L 35.706548 288.052673 
L 37.748011 288.156482 
L 39.789475 288.66636 
L 41.830938 288.673365 
L 43.872402 287.749452 
L 45.913865 286.962508 
L 47.955328 286.767321 
L 49.996792 285.905067 
L 52.038255 285.772957 
L 54.079719 285.60268 
L 56.121182 284.334594 
L 58.162646 284.957042 
L 60.204109 284.085463 
L 62.245572 283.710565 
L 64.287036 283.749326 
L 66.328499 282.930757 
L 68.369963 282.752565 
L 70.411426 283.048935 
L 72.452889 283.501858 
L 74.494353 282.134936 
L 76.535816 281.928156 
L 78.57728 281.478312 
L 80.618743 283.83159 
L 82.660207 283.919567 
L 84.70167 284.859799 
L 86.743133 282.552967 
L 88.784597 281.141122 
L 90.82606 281.557505 
L 92.867524 283.101086 
L 94.908987 283.332398 
L 96.95045 280.538384 
L 98.991914 282.876365 
L 101.033377 282.210642 
L 103.074841 281.848488 
L 105.116304 280.474973 
L 107.157768 281.458765 
L 109.199231 280.784535 
L 111.240694 281.301667 
L 113.282158 280.412563 
L 115.323621 279.670852 
L 117.365085 278.41383 
L 119.406548 277.757534 
L 121.448011 277.151036 
L 123.489475 276.327543 
L 125.530938 276.107577 
L 127.572402 275.339295 
L 129.613865 274.527464 
L 131.655328 272.525956 
L 133.696792 271.020326 
L 135.738255 270.260717 
L 137.779719 268.605064 
L 139.821182 268.172627 
L 141.862646 266.67835 
L 143.904109 264.534466 
L 145.945572 262.732609 
L 147.987036 261.351016 
L 150.028499 259.136601 
L 152.069963 257.65413 
L 154.111426 255.806874 
L 156.152889 254.052652 
L 158.194353 252.020837 
L 160.235816 250.132817 
L 162.27728 247.922656 
L 164.318743 246.046218 
L 166.360207 243.998884 
L 168.40167 241.42494 
L 170.443133 239.076452 
L 172.484597 237.24215 
L 174.52606 235.269466 
L 176.567524 232.762282 
L 178.608987 230.701579 
L 180.65045 228.136071 
L 182.691914 224.705966 
L 184.733377 222.882008 
L 186.774841 220.465235 
L 188.816304 218.264493 
L 190.857768 215.801931 
L 192.899231 212.741786 
L 194.940694 210.251961 
L 196.982158 207.451482 
L 199.023621 204.043112 
L 201.065085 201.969852 
L 203.106548 198.797856 
L 205.148011 196.634041 
L 207.189475 193.506229 
L 209.230938 189.913511 
L 211.272402 187.182529 
L 213.313865 184.839428 
L 215.355328 181.235392 
L 217.396792 178.472542 
L 219.438255 175.184757 
L 221.479719 172.497877 
L 223.521182 168.904659 
L 225.562646 165.625089 
L 227.604109 165.282441 
L 229.645572 159.373341 
L 231.687036 158.258801 
L 233.728499 154.574127 
L 235.769963 152.296083 
L 237.811426 149.05224 
L 239.852889 146.159432 
L 241.894353 143.320674 
L 243.935816 140.319979 
L 245.97728 138.245415 
L 248.018743 135.662396 
L 250.060207 137.262114 
L 252.10167 129.919454 
L 254.143133 128.504451 
L 256.184597 133.453897 
L 258.22606 125.583016 
L 260.267524 126.72352 
L 262.308987 125.979485 
L 264.35045 121.253692 
L 266.391914 121.806344 
L 268.433377 125.630325 
L 270.474841 122.286851 
L 272.516304 121.040276 
L 274.557768 123.130656 
L 276.599231 123.061584 
L 278.640694 123.773268 
L 280.682158 127.175096 
L 282.723621 130.89369 
L 284.765085 140.507912 
L 286.806548 137.878594 
L 288.848011 143.239682 
L 290.889475 146.801222 
L 292.930938 150.038436 
L 294.972402 154.333979 
L 297.013865 157.516418 
L 299.055328 150.869339 
L 301.096792 155.719978 
L 303.138255 164.287666 
L 305.179719 168.651639 
L 307.221182 169.147858 
L 309.262646 182.30068 
L 311.304109 184.441609 
L 313.345572 188.094692 
L 315.387036 186.500712 
L 317.428499 199.37779 
L 319.469963 195.282601 
L 321.511426 192.02436 
L 323.552889 203.673849 
L 325.594353 210.290167 
L 327.635816 209.726209 
L 329.67728 214.780564 
L 331.718743 216.247177 
L 333.760207 216.012094 
L 335.80167 215.600874 
L 337.843133 217.733397 
L 339.884597 219.922911 
L 341.92606 227.503524 
L 343.967524 222.244549 
L 346.008987 229.060384 
L 348.05045 227.380953 
L 350.091914 226.735392 
L 352.133377 228.915972 
L 354.174841 230.550476 
L 356.216304 227.017061 
L 358.257768 229.225183 
L 360.299231 229.266942 
L 362.340694 232.537579 
L 364.382158 230.524382 
L 366.423621 228.670777 
L 368.465085 230.342746 
L 370.506548 230.289871 
L 372.548011 229.20386 
L 374.589475 227.346731 
L 376.630938 228.097152 
L 378.672402 224.995948 
L 380.713865 224.546094 
L 382.755328 228.39997 
L 384.796792 227.483468 
L 386.838255 224.697257 
L 388.879719 223.803255 
L 390.921182 223.25103 
L 392.962646 219.745002 
L 395.004109 220.41211 
L 397.045572 219.738638 
L 399.087036 218.605821 
L 401.128499 217.441233 
L 403.169963 215.130896 
L 405.211426 215.842371 
L 407.252889 214.296523 
L 409.294353 212.993358 
L 411.335816 211.915999 
L 413.37728 210.889165 
L 415.418743 209.564402 
L 417.460207 206.550878 
L 419.50167 205.343216 
L 421.543133 203.34644 
L 423.584597 199.882278 
L 425.62606 201.770786 
L 427.667524 197.32522 
L 429.708987 197.9935 
L 431.75045 197.368856 
L 433.791914 196.973361 
L 435.833377 194.246183 
L 437.874841 193.560267 
L 439.916304 193.357685 
L 441.957768 189.270471 
L 443.999231 190.034653 
L 446.040694 188.976428 
L 448.082158 189.092457 
L 450.123621 186.372998 
L 452.165085 186.842936 
L 454.206548 185.790657 
L 456.248011 182.590532 
L 458.289475 181.344592 
L 460.330938 180.048562 
L 462.372402 179.464653 
L 464.413865 177.733134 
L 466.455328 177.253952 
L 468.496792 176.259657 
L 470.538255 175.270756 
L 472.579719 174.330926 
L 474.621182 171.995593 
L 476.662646 173.358758 
L 478.704109 173.232932 
L 480.745572 171.298399 
L 482.787036 170.044124 
L 484.828499 167.559685 
L 486.869963 169.173887 
L 488.911426 168.871082 
L 490.952889 167.935451 
L 492.994353 166.626642 
L 495.035816 165.018216 
L 497.07728 163.40248 
L 499.118743 163.46677 
L 501.160207 162.588063 
L 503.20167 162.464621 
L 505.243133 160.368607 
L 507.284597 158.210229 
L 509.32606 160.353713 
L 511.367524 158.054172 
L 513.408987 157.812542 
L 515.45045 159.059412 
L 517.491914 154.105406 
L 519.533377 154.657928 
L 521.574841 155.443905 
L 523.616304 153.046914 
L 525.657768 155.684783 
L 527.699231 152.583718 
L 529.740694 150.154712 
L 531.782158 152.424513 
L 533.823621 152.800472 
L 535.865085 150.84921 
L 537.906548 150.57162 
L 539.948011 149.827422 
L 541.989475 154.276402 
L 544.030938 153.109252 
L 546.072402 153.293642 
L 548.113865 150.03287 
L 550.155328 147.146296 
L 552.196792 150.256873 
L 554.238255 154.277649 
L 556.279719 150.467724 
L 558.321182 149.346158 
L 560.362646 146.730142 
L 562.404109 147.298597 
L 564.445572 148.220049 
L 566.487036 145.329353 
L 568.528499 144.756644 
L 570.569963 147.75224 
L 572.611426 145.446682 
L 574.652889 148.427859 
L 576.694353 148.923598 
L 578.735816 142.987316 
L 580.77728 143.676859 
L 582.818743 143.345645 
L 584.860207 144.335218 
L 586.90167 146.483142 
L 588.943133 151.714674 
L 590.984597 153.299576 
L 593.02606 152.563788 
L 595.067524 157.187167 
L 597.108987 166.396923 
L 599.15045 155.804458 
L 601.191914 153.134268 
L 603.233377 156.436835 
L 605.274841 159.46477 
L 607.316304 159.942123 
L 609.357768 158.534008 
L 611.399231 164.632893 
L 613.440694 168.334431 
L 615.482158 161.760624 
L 617.523621 168.351548 
L 619.565085 164.751632 
L 621.606548 164.48413 
L 623.648011 170.872204 
L 625.689475 170.884898 
L 627.730938 174.699472 
L 629.772402 174.982719 
L 631.813865 169.079842 
L 633.855328 173.676893 
L 635.896792 173.641122 
L 637.938255 178.070433 
L 639.979719 176.603255 
L 642.021182 181.409351 
L 644.062646 177.54545 
L 646.104109 180.170584 
L 648.145572 180.275 
L 650.187036 183.431085 
L 652.228499 177.783735 
L 654.269963 183.813958 
L 656.311426 184.69497 
L 658.352889 187.51819 
L 660.394353 190.821549 
L 662.435816 190.091604 
L 664.47728 188.83323 
L 666.518743 192.236102 
L 668.560207 195.949138 
L 670.60167 193.345688 
L 672.643133 191.256982 
L 674.684597 194.518679 
L 676.72606 196.724155 
L 678.767524 192.06874 
L 680.808987 191.120543 
L 682.85045 199.494692 
L 684.891914 201.925178 
L 686.933377 193.61161 
L 688.974841 196.775526 
L 691.016304 197.939196 
L 693.057768 198.933073 
L 695.099231 203.49915 
L 697.140694 201.98992 
L 699.182158 199.497961 
L 701.223621 202.260808 
L 703.265085 203.123269 
L 705.306548 198.602854 
L 707.348011 200.05329 
L 709.389475 199.608375 
L 711.430938 207.757549 
L 713.472402 213.756311 
L 715.513865 214.061878 
L 717.555328 208.002903 
L 719.596792 204.954884 
L 721.638255 206.441867 
L 723.679719 206.840473 
L 725.721182 214.549149 
L 727.762646 205.846166 
L 729.804109 213.409401 
L 731.845572 218.542302 
L 733.887036 214.310567 
L 735.928499 222.770547 
L 737.969963 216.909352 
L 740.011426 220.634953 
L 742.052889 218.436981 
L 744.094353 221.74298 
L 746.135816 225.904892 
L 748.17728 224.31806 
L 750.218743 226.987272 
L 752.260207 226.819644 
L 754.30167 228.320791 
L 756.343133 218.594829 
L 758.384597 232.392904 
L 760.42606 238.299834 
L 762.467524 232.177669 
L 764.508987 236.969945 
L 766.55045 238.790165 
L 768.591914 236.358866 
L 770.633377 241.559429 
L 772.674841 246.159061 
L 774.716304 245.265122 
L 776.757768 246.752416 
L 778.799231 247.608429 
L 780.840694 249.503829 
L 782.882158 253.193863 
L 784.923621 245.957771 
L 786.965085 256.819602 
L 789.006548 257.587911 
L 791.048011 256.889772 
L 793.089475 251.100733 
L 795.130938 259.756963 
L 797.172402 266.743233 
L 799.213865 260.087974 
L 801.255328 261.318282 
L 803.296792 270.016625 
L 805.338255 255.356403 
L 807.379719 269.248384 
L 809.421182 262.098558 
L 811.462646 274.270527 
L 813.504109 268.057059 
L 815.545572 274.338222 
L 817.587036 275.232581 
L 819.628499 278.798726 
L 821.669963 279.612886 
L 823.711426 276.960959 
L 825.752889 276.476439 
L 827.794353 279.870707 
L 829.835816 285.097473 
L 831.87728 284.884462 
L 833.918743 285.416006 
L 835.960207 289.106183 
L 838.00167 289.578738 
L 840.043133 287.763426 
L 842.084597 287.940429 
L 844.12606 293.807623 
L 846.167524 294.801383 
L 848.208987 296.398661 
L 850.25045 293.160575 
L 852.291914 287.855995 
L 854.333377 295.118815 
L 856.374841 292.909121 
L 858.416304 295.373276 
L 860.457768 298.375583 
L 862.499231 294.974297 
L 864.540694 299.406522 
L 866.582158 296.61529 
L 868.623621 296.786529 
L 870.665085 296.501764 
L 872.706548 300.880614 
L 874.748011 299.835901 
L 876.789475 299.319699 
L 878.830938 297.484319 
L 880.872402 298.456571 
L 882.913865 299.312305 
L 884.955328 299.090249 
L 886.996792 301.659289 
L 889.038255 300.629087 
L 891.079719 302.811141 
L 893.121182 303.79968 
L 895.162646 304.070779 
L 897.204109 303.499862 
L 899.245572 302.590566 
L 901.287036 302.068882 
L 903.328499 303.278135 
L 905.369963 303.174035 
L 907.411426 300.850674 
L 909.452889 303.200645 
L 911.494353 293.021241 
L 913.535816 302.654587 
L 915.57728 305.606481 
L 917.618743 301.422666 
L 919.660207 301.04517 
L 921.70167 304.00172 
L 923.743133 304.071327 
L 925.784597 299.629667 
L 927.82606 300.276745 
L 929.867524 300.909505 
L 931.908987 300.270794 
L 933.95045 304.466805 
L 935.991914 301.765471 
L 938.033377 304.521789 
L 940.074841 301.325169 
L 940.074841 295.604613 
L 940.074841 295.604613 
L 938.033377 294.116843 
L 935.991914 291.138847 
L 933.95045 295.957016 
L 931.908987 285.923938 
L 929.867524 288.014044 
L 927.82606 287.901498 
L 925.784597 278.295097 
L 923.743133 290.448259 
L 921.70167 295.420715 
L 919.660207 279.852381 
L 917.618743 287.765614 
L 915.57728 295.668168 
L 913.535816 290.170824 
L 911.494353 233.06162 
L 909.452889 288.737538 
L 907.411426 277.705798 
L 905.369963 289.547436 
L 903.328499 288.959598 
L 901.287036 285.149596 
L 899.245572 284.564514 
L 897.204109 284.739878 
L 895.162646 289.734123 
L 893.121182 288.649563 
L 891.079719 283.328195 
L 889.038255 275.734312 
L 886.996792 281.421139 
L 884.955328 273.340084 
L 882.913865 274.772025 
L 880.872402 270.273248 
L 878.830938 267.093529 
L 876.789475 273.399276 
L 874.748011 274.252608 
L 872.706548 275.64915 
L 870.665085 265.230347 
L 868.623621 264.318603 
L 866.582158 263.269869 
L 864.540694 274.021936 
L 862.499231 259.444384 
L 860.457768 270.606947 
L 858.416304 262.070127 
L 856.374841 254.289938 
L 854.333377 261.963523 
L 852.291914 236.6707 
L 850.25045 257.165809 
L 848.208987 265.981273 
L 846.167524 261.517466 
L 844.12606 259.761977 
L 842.084597 238.678076 
L 840.043133 241.328677 
L 838.00167 247.529859 
L 835.960207 246.932556 
L 833.918743 236.647595 
L 831.87728 236.795201 
L 829.835816 236.11405 
L 827.794353 226.255596 
L 825.752889 213.998865 
L 823.711426 215.106207 
L 821.669963 222.623197 
L 819.628499 221.117096 
L 817.587036 213.959906 
L 815.545572 211.969124 
L 813.504109 194.205928 
L 811.462646 212.772904 
L 809.421182 172.247071 
L 807.379719 197.298841 
L 805.338255 158.439169 
L 803.296792 201.919352 
L 801.255328 178.370738 
L 799.213865 177.269644 
L 797.172402 192.306928 
L 795.130938 175.84085 
L 793.089475 152.572106 
L 791.048011 167.796045 
L 789.006548 171.30214 
L 786.965085 169.825825 
L 784.923621 142.404267 
L 782.882158 152.952685 
L 780.840694 152.594388 
L 778.799231 149.564542 
L 776.757768 147.13204 
L 774.716304 142.178738 
L 772.674841 145.257934 
L 770.633377 133.602847 
L 768.591914 121.053327 
L 766.55045 131.903336 
L 764.508987 122.015814 
L 762.467524 114.920625 
L 760.42606 129.753184 
L 758.384597 115.97954 
L 756.343133 81.739078 
L 754.30167 106.070451 
L 752.260207 101.753927 
L 750.218743 103.232015 
L 748.17728 97.001857 
L 746.135816 101.396026 
L 744.094353 92.302754 
L 742.052889 85.945041 
L 740.011426 91.201936 
L 737.969963 80.439621 
L 735.928499 96.43348 
L 733.887036 76.701455 
L 731.845572 85.538041 
L 729.804109 75.767951 
L 727.762646 61.787194 
L 725.721182 79.007835 
L 723.679719 61.064887 
L 721.638255 62.362306 
L 719.596792 60.047385 
L 717.555328 66.822628 
L 715.513865 79.201374 
L 713.472402 80.061099 
L 711.430938 68.854899 
L 709.389475 50.041913 
L 707.348011 51.644613 
L 705.306548 51.245138 
L 703.265085 60.981546 
L 701.223621 59.558794 
L 699.182158 53.916784 
L 697.140694 60.534364 
L 695.099231 62.722964 
L 693.057768 54.518553 
L 691.016304 54.955952 
L 688.974841 52.363947 
L 686.933377 47.383738 
L 684.891914 65.786829 
L 682.85045 58.598445 
L 680.808987 45.243678 
L 678.767524 49.267809 
L 676.72606 57.663038 
L 674.684597 54.01485 
L 672.643133 49.458462 
L 670.60167 55.508159 
L 668.560207 63.18472 
L 666.518743 53.658892 
L 664.47728 49.69943 
L 662.435816 53.636972 
L 660.394353 50.999986 
L 658.352889 50.231728 
L 656.311426 45.191582 
L 654.269963 45.765739 
L 652.228499 35.986263 
L 650.187036 45.467156 
L 648.145572 42.022575 
L 646.104109 43.720959 
L 644.062646 42.298443 
L 642.021182 47.056813 
L 639.979719 40.149313 
L 637.938255 45.001201 
L 635.896792 38.403823 
L 633.855328 39.733813 
L 631.813865 33.864898 
L 629.772402 40.322877 
L 627.730938 43.549435 
L 625.689475 41.605107 
L 623.648011 40.416899 
L 621.606548 32.93804 
L 619.565085 35.48162 
L 617.523621 38.664673 
L 615.482158 31.200179 
L 613.440694 38.901889 
L 611.399231 37.063367 
L 609.357768 28.626052 
L 607.316304 32.557058 
L 605.274841 32.174487 
L 603.233377 29.212114 
L 601.191914 27.053909 
L 599.15045 30.8771 
L 597.108987 47.308403 
L 595.067524 36.468116 
L 593.02606 30.45712 
L 590.984597 32.07776 
L 588.943133 30.648497 
L 586.90167 26.092194 
L 584.860207 24.61465 
L 582.818743 22.031499 
L 580.77728 26.197039 
L 578.735816 26.932033 
L 576.694353 34.10459 
L 574.652889 35.039548 
L 572.611426 32.979466 
L 570.569963 37.319803 
L 568.528499 34.266543 
L 566.487036 37.331706 
L 564.445572 41.043409 
L 562.404109 42.722285 
L 560.362646 41.917121 
L 558.321182 46.928258 
L 556.279719 49.017511 
L 554.238255 53.70961 
L 552.196792 51.33329 
L 550.155328 49.056456 
L 548.113865 53.190457 
L 546.072402 56.276353 
L 544.030938 57.48042 
L 541.989475 61.080151 
L 539.948011 56.765717 
L 537.906548 58.969729 
L 535.865085 59.80155 
L 533.823621 61.690785 
L 531.782158 61.385353 
L 529.740694 60.519343 
L 527.699231 65.117632 
L 525.657768 68.280758 
L 523.616304 65.717064 
L 521.574841 69.266243 
L 519.533377 67.7201 
L 517.491914 69.649353 
L 515.45045 75.099309 
L 513.408987 74.449266 
L 511.367524 75.638112 
L 509.32606 78.365159 
L 507.284597 76.609131 
L 505.243133 78.807215 
L 503.20167 82.09644 
L 501.160207 82.357151 
L 499.118743 83.989279 
L 497.07728 84.347362 
L 495.035816 86.321224 
L 492.994353 88.297464 
L 490.952889 89.852429 
L 488.911426 90.688833 
L 486.869963 91.744892 
L 484.828499 88.156171 
L 482.787036 92.983025 
L 480.745572 94.373336 
L 478.704109 96.363296 
L 476.662646 95.891855 
L 474.621182 95.687041 
L 472.579719 98.289343 
L 470.538255 99.438889 
L 468.496792 101.015385 
L 466.455328 101.806109 
L 464.413865 102.54554 
L 462.372402 103.805096 
L 460.330938 104.901626 
L 458.289475 106.634329 
L 456.248011 108.53515 
L 454.206548 112.272503 
L 452.165085 113.462618 
L 450.123621 112.932782 
L 448.082158 116.150814 
L 446.040694 115.773794 
L 443.999231 117.348478 
L 441.957768 115.592473 
L 439.916304 121.687673 
L 437.874841 121.954118 
L 435.833377 123.006777 
L 433.791914 126.341227 
L 431.75045 126.899175 
L 429.708987 127.961282 
L 427.667524 127.182981 
L 425.62606 132.576141 
L 423.584597 131.170829 
L 421.543133 135.751851 
L 419.50167 138.748424 
L 417.460207 140.750744 
L 415.418743 144.957556 
L 413.37728 147.500834 
L 411.335816 148.647507 
L 409.294353 150.952587 
L 407.252889 152.642022 
L 405.211426 155.164361 
L 403.169963 154.8051 
L 401.128499 158.518679 
L 399.087036 161.068063 
L 397.045572 162.924099 
L 395.004109 164.316398 
L 392.962646 164.785413 
L 390.921182 169.218308 
L 388.879719 170.796308 
L 386.838255 173.228475 
L 384.796792 176.558225 
L 382.755328 178.217033 
L 380.713865 175.991683 
L 378.672402 177.481033 
L 376.630938 181.36074 
L 374.589475 182.094186 
L 372.548011 184.529144 
L 370.506548 186.334242 
L 368.465085 187.615717 
L 366.423621 188.093119 
L 364.382158 190.282758 
L 362.340694 192.869158 
L 360.299231 190.645154 
L 358.257768 192.119574 
L 356.216304 191.584931 
L 354.174841 195.28424 
L 352.133377 195.755909 
L 350.091914 194.452178 
L 348.05045 196.067597 
L 346.008987 198.081759 
L 343.967524 193.528917 
L 341.92606 199.133924 
L 339.884597 193.704558 
L 337.843133 193.053369 
L 335.80167 192.122966 
L 333.760207 193.842363 
L 331.718743 194.724013 
L 329.67728 193.787156 
L 327.635816 190.074197 
L 325.594353 192.038793 
L 323.552889 186.347856 
L 321.511426 178.077435 
L 319.469963 181.251798 
L 317.428499 185.104088 
L 315.387036 174.989801 
L 313.345572 176.520746 
L 311.304109 174.03835 
L 309.262646 172.475467 
L 307.221182 159.97075 
L 305.179719 158.70184 
L 303.138255 153.177144 
L 301.096792 142.126635 
L 299.055328 135.124539 
L 297.013865 143.259246 
L 294.972402 138.874883 
L 292.930938 132.891049 
L 290.889475 129.091361 
L 288.848011 124.197386 
L 286.806548 116.878825 
L 284.765085 120.157372 
L 282.723621 107.708147 
L 280.682158 101.550564 
L 278.640694 97.97895 
L 276.599231 96.800056 
L 274.557768 97.197714 
L 272.516304 95.108376 
L 270.474841 97.42777 
L 268.433377 100.609645 
L 266.391914 95.373915 
L 264.35045 95.253439 
L 262.308987 101.426445 
L 260.267524 102.52912 
L 258.22606 100.957079 
L 256.184597 111.376885 
L 254.143133 104.771067 
L 252.10167 107.349232 
L 250.060207 116.185014 
L 248.018743 114.520127 
L 245.97728 117.949838 
L 243.935816 120.636407 
L 241.894353 124.690081 
L 239.852889 128.045774 
L 237.811426 131.739168 
L 235.769963 135.792928 
L 233.728499 138.508375 
L 231.687036 143.171209 
L 229.645572 144.637789 
L 227.604109 151.556529 
L 225.562646 152.132126 
L 223.521182 156.040654 
L 221.479719 160.404845 
L 219.438255 163.556728 
L 217.396792 167.60847 
L 215.355328 170.854074 
L 213.313865 175.138546 
L 211.272402 177.940511 
L 209.230938 181.324616 
L 207.189475 185.564233 
L 205.148011 189.272309 
L 203.106548 191.987405 
L 201.065085 195.746519 
L 199.023621 198.156986 
L 196.982158 202.032448 
L 194.940694 205.285746 
L 192.899231 208.201436 
L 190.857768 211.716532 
L 188.816304 214.640542 
L 186.774841 216.898804 
L 184.733377 219.234761 
L 182.691914 220.876314 
L 180.65045 224.103366 
L 178.608987 226.40085 
L 176.567524 228.400536 
L 174.52606 230.763329 
L 172.484597 232.236563 
L 170.443133 234.356202 
L 168.40167 236.510052 
L 166.360207 238.863692 
L 164.318743 240.6944 
L 162.27728 242.496106 
L 160.235816 244.349727 
L 158.194353 246.321763 
L 156.152889 248.271314 
L 154.111426 249.915298 
L 152.069963 251.662431 
L 150.028499 253.129048 
L 147.987036 255.093584 
L 145.945572 256.493002 
L 143.904109 258.101056 
L 141.862646 260.12458 
L 139.821182 261.514056 
L 137.779719 261.891762 
L 135.738255 263.511142 
L 133.696792 264.350428 
L 131.655328 265.894873 
L 129.613865 267.735326 
L 127.572402 268.676156 
L 125.530938 269.557644 
L 123.489475 269.64078 
L 121.448011 270.529738 
L 119.406548 271.043617 
L 117.365085 271.605203 
L 115.323621 272.87125 
L 113.282158 273.609931 
L 111.240694 274.6293 
L 109.199231 273.934198 
L 107.157768 274.472161 
L 105.116304 273.41316 
L 103.074841 274.923827 
L 101.033377 275.009061 
L 98.991914 276.096208 
L 96.95045 273.582155 
L 94.908987 276.390294 
L 92.867524 276.084975 
L 90.82606 274.333092 
L 88.784597 273.834186 
L 86.743133 275.23116 
L 84.70167 277.736774 
L 82.660207 276.60767 
L 80.618743 276.420606 
L 78.57728 273.723082 
L 76.535816 273.586256 
L 74.494353 274.20296 
L 72.452889 275.677349 
L 70.411426 275.064692 
L 68.369963 274.628189 
L 66.328499 274.736169 
L 64.287036 275.579933 
L 62.245572 275.230424 
L 60.204109 275.747393 
L 58.162646 276.699606 
L 56.121182 275.83876 
L 54.079719 277.187403 
L 52.038255 277.316921 
L 49.996792 277.385622 
L 47.955328 278.222586 
L 45.913865 278.346303 
L 43.872402 279.291159 
L 41.830938 280.335913 
L 39.789475 280.265298 
L 37.748011 279.697395 
L 35.706548 279.273194 
L 33.665085 281.602515 
L 31.623621 281.099119 
L 29.582158 282.638651 
L 27.540694 282.562237 
L 25.499231 281.869654 
L 23.457768 283.487733 
L 21.416304 281.81472 
L 19.374841 281.799901 
L 17.333377 283.764272 
L 15.291914 282.200413 
L 13.25045 284.046651 
L 11.208987 284.798551 
L 9.167524 282.93421 
L 7.12606 277.604501 
L 5.084597 280.822663 
L 3.043133 279.150914 
L 1.00167 271.362875 
L -1.039793 277.862999 
L -3.081257 279.09545 
L -5.12272 271.84391 
L -7.164184 269.928944 
L -9.205647 273.525605 
L -11.247111 265.212411 
L -13.288574 250.326826 
L -15.330037 266.349466 
L -17.371501 272.552331 
L -19.412964 275.583288 
L -21.454428 255.353404 
L -23.495891 256.029895 
L -25.537354 245.936932 
L -27.578818 238.263825 
L -29.620281 253.536002 
L -31.661745 246.801977 
L -33.703208 232.938922 
L -35.744672 223.394034 
L -37.786135 223.775216 
L -39.827598 225.215241 
L -41.869062 222.806387 
L -43.910525 221.741262 
L -45.951989 226.873535 
L -47.993452 225.984543 
L -50.034915 222.393656 
L -52.076379 224.346148 
L -54.117842 222.656584 
L -56.159306 221.737712 
L -58.200769 221.857417 
L -60.242232 223.629599 
L -62.283696 224.686992 
L -64.325159 225.29917 
L -66.366623 226.983008 
L -68.408086 227.681575 
L -70.44955 228.954427 
L -72.491013 231.012635 
L -74.532476 232.768625 
L -76.57394 233.794471 
L -78.615403 235.20355 
L -80.656867 236.773796 
L -82.69833 237.829921 
L -84.739793 239.500433 
L -86.781257 241.5295 
L -88.82272 242.655572 
L -90.864184 243.42274 
L -92.905647 244.66556 
L -94.947111 245.890091 
L -96.988574 247.020456 
L -99.030037 248.100508 
L -101.071501 249.138825 
L -103.112964 250.612945 
L -105.154428 251.32688 
L -107.195891 252.370805 
L -109.237354 253.4684 
L -111.278818 254.462897 
L -113.320281 255.406603 
L -115.361745 256.15767 
L -117.403208 256.980919 
L -119.444672 258.123105 
L -121.486135 258.826211 
L -123.527598 259.717334 
L -125.569062 260.542953 
L -127.610525 261.377328 
L -129.651989 262.234388 
L -131.693452 263.106199 
L -133.734915 263.832816 
L -135.776379 264.675068 
L -137.817842 265.412085 
L -139.859306 266.205688 
L -141.900769 266.937225 
L -143.942232 267.706489 
L -145.983696 268.413027 
L -148.025159 269.175336 
L -150.066623 270.001227 
L -152.108086 270.622762 
L -154.14955 271.40966 
L -156.191013 272.084236 
L -158.232476 272.871566 
L -160.27394 273.440274 
L -162.315403 274.172358 
L -164.356867 274.869417 
L -166.39833 275.531572 
L -168.439793 276.195856 
L -170.481257 276.829621 
L -172.52272 277.560352 
L -174.564184 278.215242 
L -176.605647 278.74983 
L -178.647111 279.38957 
L -180.688574 280.027801 
L -182.730037 280.662234 
L -184.771501 281.272165 
L -186.812964 281.83799 
L -188.854428 282.462769 
L -190.895891 283.073424 
L -192.937354 283.686052 
L -194.978818 284.294955 
L -197.020281 284.91997 
L -199.061745 285.569866 
L -201.103208 286.122579 
L -203.144672 286.760167 
L -205.186135 287.383532 
L -207.227598 287.979113 
L -209.269062 288.593718 
L -211.310525 289.220793 
L -213.351989 289.826798 
L -215.393452 290.46386 
L -217.434915 291.039755 
L -219.476379 291.627342 
L -221.517842 292.250328 
L -223.559306 292.848872 
L -225.600769 293.405924 
L -227.642232 294.01363 
L -229.683696 294.555088 
L -231.725159 295.136883 
L -233.766623 295.759377 
L -235.808086 296.283626 
L -237.84955 296.876593 
L -239.891013 297.415182 
L -241.932476 298.020745 
L -243.97394 298.543147 
L -246.015403 299.154168 
L -248.056867 299.668631 
L -250.09833 300.240035 
L -252.139793 300.79679 
L -254.181257 301.364232 
L -256.22272 301.909636 
L -258.264184 302.461124 
L -260.305647 303.015268 
L -262.347111 303.567259 
L -264.388574 304.078129 
L -266.430037 304.565004 
L -268.471501 305.054355 
L -270.512964 305.548521 
L -272.554428 306.024352 
L -274.595891 306.511552 
L -276.637354 306.993113 
L -278.678818 307.45129 
L -280.720281 307.910279 
L -282.761745 308.368503 
L -284.803208 308.803504 
L -286.844672 309.232528 
L -288.886135 309.684638 
L -290.927598 310.099627 
L -292.969062 310.487712 
L -295.010525 310.910267 
L -297.051989 311.301752 
L -299.093452 311.646848 
L -301.134915 312.011897 
L -303.176379 312.343937 
L -305.217842 312.700045 
L -307.259306 313.003286 
L -309.300769 313.31336 
L -311.342232 313.602582 
L -313.383696 313.888565 
L -315.425159 314.144178 
L -317.466623 314.36797 
L -319.508086 314.596279 
L -321.54955 314.812695 
L -323.591013 315.005616 
L -325.632476 315.214564 
L -327.67394 315.389192 
L -329.715403 315.537707 
L -331.756867 315.71652 
L -333.79833 315.864848 
L -335.839793 315.991566 
L -337.881257 316.132762 
L -339.92272 316.270032 
L -341.964184 316.380565 
L -344.005647 316.503149 
L -346.047111 316.597606 
L -348.088574 316.712825 
L -350.130037 316.804339 
L -352.171501 316.902523 
L -354.212964 317.006246 
L -356.254428 317.088516 
L -358.295891 317.175875 
L -360.337354 317.289303 
L -362.378818 317.375871 
L -364.420281 317.474138 
L -366.461745 317.551945 
L -368.503208 317.655629 
L -370.544672 317.74556 
L -372.586135 317.840076 
L -374.627598 317.917266 
L -376.669062 317.983745 
L -378.710525 318.066755 
L -380.751989 318.162335 
L -382.793452 318.254457 
L -384.834915 318.328334 
L -386.876379 318.393097 
L -388.917842 318.48439 
L -390.959306 318.55599 
L -393.000769 318.645793 
z
" clip-path="url(#pbf9bc5274d)" style="fill: #008000; fill-opacity: 0.3; stroke: #008000; stroke-opacity: 0.3"/>
   </g>
   <g id="matplotlib.axis_1">
    <g id="xtick_1">
     <g id="line2d_1">
      <defs>
       <path id="md4ad1bc41c" d="M 0 0 
L 0 3.5 
" style="stroke: #000000; stroke-width: 0.8"/>
      </defs>
      <g>
       <use xlink:href="#md4ad1bc41c" x="103.074841" y="395.28" style="stroke: #000000; stroke-width: 0.8"/>
      </g>
     </g>
     <g id="text_1">
      <!-- 2022-03-01 -->
      <g transform="translate(17.945813 495.213718) rotate(-45) scale(0.2 -0.2)">
       <defs>
        <path id="DejaVuSans-32" d="M 1228 531 
L 3431 531 
L 3431 0 
L 469 0 
L 469 531 
Q 828 903 1448 1529 
Q 2069 2156 2228 2338 
Q 2531 2678 2651 2914 
Q 2772 3150 2772 3378 
Q 2772 3750 2511 3984 
Q 2250 4219 1831 4219 
Q 1534 4219 1204 4116 
Q 875 4013 500 3803 
L 500 4441 
Q 881 4594 1212 4672 
Q 1544 4750 1819 4750 
Q 2544 4750 2975 4387 
Q 3406 4025 3406 3419 
Q 3406 3131 3298 2873 
Q 3191 2616 2906 2266 
Q 2828 2175 2409 1742 
Q 1991 1309 1228 531 
z
" transform="scale(0.015625)"/>
        <path id="DejaVuSans-30" d="M 2034 4250 
Q 1547 4250 1301 3770 
Q 1056 3291 1056 2328 
Q 1056 1369 1301 889 
Q 1547 409 2034 409 
Q 2525 409 2770 889 
Q 3016 1369 3016 2328 
Q 3016 3291 2770 3770 
Q 2525 4250 2034 4250 
z
M 2034 4750 
Q 2819 4750 3233 4129 
Q 3647 3509 3647 2328 
Q 3647 1150 3233 529 
Q 2819 -91 2034 -91 
Q 1250 -91 836 529 
Q 422 1150 422 2328 
Q 422 3509 836 4129 
Q 1250 4750 2034 4750 
z
" transform="scale(0.015625)"/>
        <path id="DejaVuSans-2d" d="M 313 2009 
L 1997 2009 
L 1997 1497 
L 313 1497 
L 313 2009 
z
" transform="scale(0.015625)"/>
        <path id="DejaVuSans-33" d="M 2597 2516 
Q 3050 2419 3304 2112 
Q 3559 1806 3559 1356 
Q 3559 666 3084 287 
Q 2609 -91 1734 -91 
Q 1441 -91 1130 -33 
Q 819 25 488 141 
L 488 750 
Q 750 597 1062 519 
Q 1375 441 1716 441 
Q 2309 441 2620 675 
Q 2931 909 2931 1356 
Q 2931 1769 2642 2001 
Q 2353 2234 1838 2234 
L 1294 2234 
L 1294 2753 
L 1863 2753 
Q 2328 2753 2575 2939 
Q 2822 3125 2822 3475 
Q 2822 3834 2567 4026 
Q 2313 4219 1838 4219 
Q 1578 4219 1281 4162 
Q 984 4106 628 3988 
L 628 4550 
Q 988 4650 1302 4700 
Q 1616 4750 1894 4750 
Q 2613 4750 3031 4423 
Q 3450 4097 3450 3541 
Q 3450 3153 3228 2886 
Q 3006 2619 2597 2516 
z
" transform="scale(0.015625)"/>
        <path id="DejaVuSans-31" d="M 794 531 
L 1825 531 
L 1825 4091 
L 703 3866 
L 703 4441 
L 1819 4666 
L 2450 4666 
L 2450 531 
L 3481 531 
L 3481 0 
L 794 0 
L 794 531 
z
" transform="scale(0.015625)"/>
       </defs>
       <use xlink:href="#DejaVuSans-32"/>
       <use xlink:href="#DejaVuSans-30" x="63.623047"/>
       <use xlink:href="#DejaVuSans-32" x="127.246094"/>
       <use xlink:href="#DejaVuSans-32" x="190.869141"/>
       <use xlink:href="#DejaVuSans-2d" x="254.492188"/>
       <use xlink:href="#DejaVuSans-30" x="290.576172"/>
       <use xlink:href="#DejaVuSans-33" x="354.199219"/>
       <use xlink:href="#DejaVuSans-2d" x="417.822266"/>
       <use xlink:href="#DejaVuSans-30" x="453.90625"/>
       <use xlink:href="#DejaVuSans-31" x="517.529297"/>
      </g>
     </g>
    </g>
    <g id="xtick_2">
     <g id="line2d_2">
      <g>
       <use xlink:href="#md4ad1bc41c" x="160.235816" y="395.28" style="stroke: #000000; stroke-width: 0.8"/>
      </g>
     </g>
     <g id="text_2">
      <!-- 2022-03-29 -->
      <g transform="translate(75.106789 495.213718) rotate(-45) scale(0.2 -0.2)">
       <defs>
        <path id="DejaVuSans-39" d="M 703 97 
L 703 672 
Q 941 559 1184 500 
Q 1428 441 1663 441 
Q 2288 441 2617 861 
Q 2947 1281 2994 2138 
Q 2813 1869 2534 1725 
Q 2256 1581 1919 1581 
Q 1219 1581 811 2004 
Q 403 2428 403 3163 
Q 403 3881 828 4315 
Q 1253 4750 1959 4750 
Q 2769 4750 3195 4129 
Q 3622 3509 3622 2328 
Q 3622 1225 3098 567 
Q 2575 -91 1691 -91 
Q 1453 -91 1209 -44 
Q 966 3 703 97 
z
M 1959 2075 
Q 2384 2075 2632 2365 
Q 2881 2656 2881 3163 
Q 2881 3666 2632 3958 
Q 2384 4250 1959 4250 
Q 1534 4250 1286 3958 
Q 1038 3666 1038 3163 
Q 1038 2656 1286 2365 
Q 1534 2075 1959 2075 
z
" transform="scale(0.015625)"/>
       </defs>
       <use xlink:href="#DejaVuSans-32"/>
       <use xlink:href="#DejaVuSans-30" x="63.623047"/>
       <use xlink:href="#DejaVuSans-32" x="127.246094"/>
       <use xlink:href="#DejaVuSans-32" x="190.869141"/>
       <use xlink:href="#DejaVuSans-2d" x="254.492188"/>
       <use xlink:href="#DejaVuSans-30" x="290.576172"/>
       <use xlink:href="#DejaVuSans-33" x="354.199219"/>
       <use xlink:href="#DejaVuSans-2d" x="417.822266"/>
       <use xlink:href="#DejaVuSans-32" x="453.90625"/>
       <use xlink:href="#DejaVuSans-39" x="517.529297"/>
      </g>
     </g>
    </g>
    <g id="xtick_3">
     <g id="line2d_3">
      <g>
       <use xlink:href="#md4ad1bc41c" x="217.396792" y="395.28" style="stroke: #000000; stroke-width: 0.8"/>
      </g>
     </g>
     <g id="text_3">
      <!-- 2022-04-26 -->
      <g transform="translate(132.267765 495.213718) rotate(-45) scale(0.2 -0.2)">
       <defs>
        <path id="DejaVuSans-34" d="M 2419 4116 
L 825 1625 
L 2419 1625 
L 2419 4116 
z
M 2253 4666 
L 3047 4666 
L 3047 1625 
L 3713 1625 
L 3713 1100 
L 3047 1100 
L 3047 0 
L 2419 0 
L 2419 1100 
L 313 1100 
L 313 1709 
L 2253 4666 
z
" transform="scale(0.015625)"/>
        <path id="DejaVuSans-36" d="M 2113 2584 
Q 1688 2584 1439 2293 
Q 1191 2003 1191 1497 
Q 1191 994 1439 701 
Q 1688 409 2113 409 
Q 2538 409 2786 701 
Q 3034 994 3034 1497 
Q 3034 2003 2786 2293 
Q 2538 2584 2113 2584 
z
M 3366 4563 
L 3366 3988 
Q 3128 4100 2886 4159 
Q 2644 4219 2406 4219 
Q 1781 4219 1451 3797 
Q 1122 3375 1075 2522 
Q 1259 2794 1537 2939 
Q 1816 3084 2150 3084 
Q 2853 3084 3261 2657 
Q 3669 2231 3669 1497 
Q 3669 778 3244 343 
Q 2819 -91 2113 -91 
Q 1303 -91 875 529 
Q 447 1150 447 2328 
Q 447 3434 972 4092 
Q 1497 4750 2381 4750 
Q 2619 4750 2861 4703 
Q 3103 4656 3366 4563 
z
" transform="scale(0.015625)"/>
       </defs>
       <use xlink:href="#DejaVuSans-32"/>
       <use xlink:href="#DejaVuSans-30" x="63.623047"/>
       <use xlink:href="#DejaVuSans-32" x="127.246094"/>
       <use xlink:href="#DejaVuSans-32" x="190.869141"/>
       <use xlink:href="#DejaVuSans-2d" x="254.492188"/>
       <use xlink:href="#DejaVuSans-30" x="290.576172"/>
       <use xlink:href="#DejaVuSans-34" x="354.199219"/>
       <use xlink:href="#DejaVuSans-2d" x="417.822266"/>
       <use xlink:href="#DejaVuSans-32" x="453.90625"/>
       <use xlink:href="#DejaVuSans-36" x="517.529297"/>
      </g>
     </g>
    </g>
    <g id="xtick_4">
     <g id="line2d_4">
      <g>
       <use xlink:href="#md4ad1bc41c" x="274.557768" y="395.28" style="stroke: #000000; stroke-width: 0.8"/>
      </g>
     </g>
     <g id="text_4">
      <!-- 2022-05-24 -->
      <g transform="translate(189.42874 495.213718) rotate(-45) scale(0.2 -0.2)">
       <defs>
        <path id="DejaVuSans-35" d="M 691 4666 
L 3169 4666 
L 3169 4134 
L 1269 4134 
L 1269 2991 
Q 1406 3038 1543 3061 
Q 1681 3084 1819 3084 
Q 2600 3084 3056 2656 
Q 3513 2228 3513 1497 
Q 3513 744 3044 326 
Q 2575 -91 1722 -91 
Q 1428 -91 1123 -41 
Q 819 9 494 109 
L 494 744 
Q 775 591 1075 516 
Q 1375 441 1709 441 
Q 2250 441 2565 725 
Q 2881 1009 2881 1497 
Q 2881 1984 2565 2268 
Q 2250 2553 1709 2553 
Q 1456 2553 1204 2497 
Q 953 2441 691 2322 
L 691 4666 
z
" transform="scale(0.015625)"/>
       </defs>
       <use xlink:href="#DejaVuSans-32"/>
       <use xlink:href="#DejaVuSans-30" x="63.623047"/>
       <use xlink:href="#DejaVuSans-32" x="127.246094"/>
       <use xlink:href="#DejaVuSans-32" x="190.869141"/>
       <use xlink:href="#DejaVuSans-2d" x="254.492188"/>
       <use xlink:href="#DejaVuSans-30" x="290.576172"/>
       <use xlink:href="#DejaVuSans-35" x="354.199219"/>
       <use xlink:href="#DejaVuSans-2d" x="417.822266"/>
       <use xlink:href="#DejaVuSans-32" x="453.90625"/>
       <use xlink:href="#DejaVuSans-34" x="517.529297"/>
      </g>
     </g>
    </g>
    <g id="xtick_5">
     <g id="line2d_5">
      <g>
       <use xlink:href="#md4ad1bc41c" x="331.718743" y="395.28" style="stroke: #000000; stroke-width: 0.8"/>
      </g>
     </g>
     <g id="text_5">
      <!-- 2022-06-21 -->
      <g transform="translate(246.589716 495.213718) rotate(-45) scale(0.2 -0.2)">
       <use xlink:href="#DejaVuSans-32"/>
       <use xlink:href="#DejaVuSans-30" x="63.623047"/>
       <use xlink:href="#DejaVuSans-32" x="127.246094"/>
       <use xlink:href="#DejaVuSans-32" x="190.869141"/>
       <use xlink:href="#DejaVuSans-2d" x="254.492188"/>
       <use xlink:href="#DejaVuSans-30" x="290.576172"/>
       <use xlink:href="#DejaVuSans-36" x="354.199219"/>
       <use xlink:href="#DejaVuSans-2d" x="417.822266"/>
       <use xlink:href="#DejaVuSans-32" x="453.90625"/>
       <use xlink:href="#DejaVuSans-31" x="517.529297"/>
      </g>
     </g>
    </g>
    <g id="xtick_6">
     <g id="line2d_6">
      <g>
       <use xlink:href="#md4ad1bc41c" x="388.879719" y="395.28" style="stroke: #000000; stroke-width: 0.8"/>
      </g>
     </g>
     <g id="text_6">
      <!-- 2022-07-19 -->
      <g transform="translate(303.750691 495.213718) rotate(-45) scale(0.2 -0.2)">
       <defs>
        <path id="DejaVuSans-37" d="M 525 4666 
L 3525 4666 
L 3525 4397 
L 1831 0 
L 1172 0 
L 2766 4134 
L 525 4134 
L 525 4666 
z
" transform="scale(0.015625)"/>
       </defs>
       <use xlink:href="#DejaVuSans-32"/>
       <use xlink:href="#DejaVuSans-30" x="63.623047"/>
       <use xlink:href="#DejaVuSans-32" x="127.246094"/>
       <use xlink:href="#DejaVuSans-32" x="190.869141"/>
       <use xlink:href="#DejaVuSans-2d" x="254.492188"/>
       <use xlink:href="#DejaVuSans-30" x="290.576172"/>
       <use xlink:href="#DejaVuSans-37" x="354.199219"/>
       <use xlink:href="#DejaVuSans-2d" x="417.822266"/>
       <use xlink:href="#DejaVuSans-31" x="453.90625"/>
       <use xlink:href="#DejaVuSans-39" x="517.529297"/>
      </g>
     </g>
    </g>
    <g id="xtick_7">
     <g id="line2d_7">
      <g>
       <use xlink:href="#md4ad1bc41c" x="446.040694" y="395.28" style="stroke: #000000; stroke-width: 0.8"/>
      </g>
     </g>
     <g id="text_7">
      <!-- 2022-08-16 -->
      <g transform="translate(360.911667 495.213718) rotate(-45) scale(0.2 -0.2)">
       <defs>
        <path id="DejaVuSans-38" d="M 2034 2216 
Q 1584 2216 1326 1975 
Q 1069 1734 1069 1313 
Q 1069 891 1326 650 
Q 1584 409 2034 409 
Q 2484 409 2743 651 
Q 3003 894 3003 1313 
Q 3003 1734 2745 1975 
Q 2488 2216 2034 2216 
z
M 1403 2484 
Q 997 2584 770 2862 
Q 544 3141 544 3541 
Q 544 4100 942 4425 
Q 1341 4750 2034 4750 
Q 2731 4750 3128 4425 
Q 3525 4100 3525 3541 
Q 3525 3141 3298 2862 
Q 3072 2584 2669 2484 
Q 3125 2378 3379 2068 
Q 3634 1759 3634 1313 
Q 3634 634 3220 271 
Q 2806 -91 2034 -91 
Q 1263 -91 848 271 
Q 434 634 434 1313 
Q 434 1759 690 2068 
Q 947 2378 1403 2484 
z
M 1172 3481 
Q 1172 3119 1398 2916 
Q 1625 2713 2034 2713 
Q 2441 2713 2670 2916 
Q 2900 3119 2900 3481 
Q 2900 3844 2670 4047 
Q 2441 4250 2034 4250 
Q 1625 4250 1398 4047 
Q 1172 3844 1172 3481 
z
" transform="scale(0.015625)"/>
       </defs>
       <use xlink:href="#DejaVuSans-32"/>
       <use xlink:href="#DejaVuSans-30" x="63.623047"/>
       <use xlink:href="#DejaVuSans-32" x="127.246094"/>
       <use xlink:href="#DejaVuSans-32" x="190.869141"/>
       <use xlink:href="#DejaVuSans-2d" x="254.492188"/>
       <use xlink:href="#DejaVuSans-30" x="290.576172"/>
       <use xlink:href="#DejaVuSans-38" x="354.199219"/>
       <use xlink:href="#DejaVuSans-2d" x="417.822266"/>
       <use xlink:href="#DejaVuSans-31" x="453.90625"/>
       <use xlink:href="#DejaVuSans-36" x="517.529297"/>
      </g>
     </g>
    </g>
    <g id="xtick_8">
     <g id="line2d_8">
      <g>
       <use xlink:href="#md4ad1bc41c" x="503.20167" y="395.28" style="stroke: #000000; stroke-width: 0.8"/>
      </g>
     </g>
     <g id="text_8">
      <!-- 2022-09-13 -->
      <g transform="translate(418.072643 495.213718) rotate(-45) scale(0.2 -0.2)">
       <use xlink:href="#DejaVuSans-32"/>
       <use xlink:href="#DejaVuSans-30" x="63.623047"/>
       <use xlink:href="#DejaVuSans-32" x="127.246094"/>
       <use xlink:href="#DejaVuSans-32" x="190.869141"/>
       <use xlink:href="#DejaVuSans-2d" x="254.492188"/>
       <use xlink:href="#DejaVuSans-30" x="290.576172"/>
       <use xlink:href="#DejaVuSans-39" x="354.199219"/>
       <use xlink:href="#DejaVuSans-2d" x="417.822266"/>
       <use xlink:href="#DejaVuSans-31" x="453.90625"/>
       <use xlink:href="#DejaVuSans-33" x="517.529297"/>
      </g>
     </g>
    </g>
    <g id="xtick_9">
     <g id="line2d_9">
      <g>
       <use xlink:href="#md4ad1bc41c" x="560.362646" y="395.28" style="stroke: #000000; stroke-width: 0.8"/>
      </g>
     </g>
     <g id="text_9">
      <!-- 2022-10-11 -->
      <g transform="translate(475.233618 495.213718) rotate(-45) scale(0.2 -0.2)">
       <use xlink:href="#DejaVuSans-32"/>
       <use xlink:href="#DejaVuSans-30" x="63.623047"/>
       <use xlink:href="#DejaVuSans-32" x="127.246094"/>
       <use xlink:href="#DejaVuSans-32" x="190.869141"/>
       <use xlink:href="#DejaVuSans-2d" x="254.492188"/>
       <use xlink:href="#DejaVuSans-31" x="290.576172"/>
       <use xlink:href="#DejaVuSans-30" x="354.199219"/>
       <use xlink:href="#DejaVuSans-2d" x="417.822266"/>
       <use xlink:href="#DejaVuSans-31" x="453.90625"/>
       <use xlink:href="#DejaVuSans-31" x="517.529297"/>
      </g>
     </g>
    </g>
    <g id="xtick_10">
     <g id="line2d_10">
      <g>
       <use xlink:href="#md4ad1bc41c" x="617.523621" y="395.28" style="stroke: #000000; stroke-width: 0.8"/>
      </g>
     </g>
     <g id="text_10">
      <!-- 2022-11-08 -->
      <g transform="translate(532.394594 495.213718) rotate(-45) scale(0.2 -0.2)">
       <use xlink:href="#DejaVuSans-32"/>
       <use xlink:href="#DejaVuSans-30" x="63.623047"/>
       <use xlink:href="#DejaVuSans-32" x="127.246094"/>
       <use xlink:href="#DejaVuSans-32" x="190.869141"/>
       <use xlink:href="#DejaVuSans-2d" x="254.492188"/>
       <use xlink:href="#DejaVuSans-31" x="290.576172"/>
       <use xlink:href="#DejaVuSans-31" x="354.199219"/>
       <use xlink:href="#DejaVuSans-2d" x="417.822266"/>
       <use xlink:href="#DejaVuSans-30" x="453.90625"/>
       <use xlink:href="#DejaVuSans-38" x="517.529297"/>
      </g>
     </g>
    </g>
    <g id="xtick_11">
     <g id="line2d_11">
      <g>
       <use xlink:href="#md4ad1bc41c" x="674.684597" y="395.28" style="stroke: #000000; stroke-width: 0.8"/>
      </g>
     </g>
     <g id="text_11">
      <!-- 2022-12-06 -->
      <g transform="translate(589.555569 495.213718) rotate(-45) scale(0.2 -0.2)">
       <use xlink:href="#DejaVuSans-32"/>
       <use xlink:href="#DejaVuSans-30" x="63.623047"/>
       <use xlink:href="#DejaVuSans-32" x="127.246094"/>
       <use xlink:href="#DejaVuSans-32" x="190.869141"/>
       <use xlink:href="#DejaVuSans-2d" x="254.492188"/>
       <use xlink:href="#DejaVuSans-31" x="290.576172"/>
       <use xlink:href="#DejaVuSans-32" x="354.199219"/>
       <use xlink:href="#DejaVuSans-2d" x="417.822266"/>
       <use xlink:href="#DejaVuSans-30" x="453.90625"/>
       <use xlink:href="#DejaVuSans-36" x="517.529297"/>
      </g>
     </g>
    </g>
    <g id="xtick_12">
     <g id="line2d_12">
      <g>
       <use xlink:href="#md4ad1bc41c" x="731.845572" y="395.28" style="stroke: #000000; stroke-width: 0.8"/>
      </g>
     </g>
     <g id="text_12">
      <!-- 2023-01-03 -->
      <g transform="translate(646.716545 495.213718) rotate(-45) scale(0.2 -0.2)">
       <use xlink:href="#DejaVuSans-32"/>
       <use xlink:href="#DejaVuSans-30" x="63.623047"/>
       <use xlink:href="#DejaVuSans-32" x="127.246094"/>
       <use xlink:href="#DejaVuSans-33" x="190.869141"/>
       <use xlink:href="#DejaVuSans-2d" x="254.492188"/>
       <use xlink:href="#DejaVuSans-30" x="290.576172"/>
       <use xlink:href="#DejaVuSans-31" x="354.199219"/>
       <use xlink:href="#DejaVuSans-2d" x="417.822266"/>
       <use xlink:href="#DejaVuSans-30" x="453.90625"/>
       <use xlink:href="#DejaVuSans-33" x="517.529297"/>
      </g>
     </g>
    </g>
    <g id="xtick_13">
     <g id="line2d_13">
      <g>
       <use xlink:href="#md4ad1bc41c" x="789.006548" y="395.28" style="stroke: #000000; stroke-width: 0.8"/>
      </g>
     </g>
     <g id="text_13">
      <!-- 2023-01-31 -->
      <g transform="translate(703.877521 495.213718) rotate(-45) scale(0.2 -0.2)">
       <use xlink:href="#DejaVuSans-32"/>
       <use xlink:href="#DejaVuSans-30" x="63.623047"/>
       <use xlink:href="#DejaVuSans-32" x="127.246094"/>
       <use xlink:href="#DejaVuSans-33" x="190.869141"/>
       <use xlink:href="#DejaVuSans-2d" x="254.492188"/>
       <use xlink:href="#DejaVuSans-30" x="290.576172"/>
       <use xlink:href="#DejaVuSans-31" x="354.199219"/>
       <use xlink:href="#DejaVuSans-2d" x="417.822266"/>
       <use xlink:href="#DejaVuSans-33" x="453.90625"/>
       <use xlink:href="#DejaVuSans-31" x="517.529297"/>
      </g>
     </g>
    </g>
    <g id="xtick_14">
     <g id="line2d_14">
      <g>
       <use xlink:href="#md4ad1bc41c" x="846.167524" y="395.28" style="stroke: #000000; stroke-width: 0.8"/>
      </g>
     </g>
     <g id="text_14">
      <!-- 2023-02-28 -->
      <g transform="translate(761.038496 495.213718) rotate(-45) scale(0.2 -0.2)">
       <use xlink:href="#DejaVuSans-32"/>
       <use xlink:href="#DejaVuSans-30" x="63.623047"/>
       <use xlink:href="#DejaVuSans-32" x="127.246094"/>
       <use xlink:href="#DejaVuSans-33" x="190.869141"/>
       <use xlink:href="#DejaVuSans-2d" x="254.492188"/>
       <use xlink:href="#DejaVuSans-30" x="290.576172"/>
       <use xlink:href="#DejaVuSans-32" x="354.199219"/>
       <use xlink:href="#DejaVuSans-2d" x="417.822266"/>
       <use xlink:href="#DejaVuSans-32" x="453.90625"/>
       <use xlink:href="#DejaVuSans-38" x="517.529297"/>
      </g>
     </g>
    </g>
    <g id="xtick_15">
     <g id="line2d_15">
      <g>
       <use xlink:href="#md4ad1bc41c" x="903.328499" y="395.28" style="stroke: #000000; stroke-width: 0.8"/>
      </g>
     </g>
     <g id="text_15">
      <!-- 2023-03-28 -->
      <g transform="translate(818.199472 495.213718) rotate(-45) scale(0.2 -0.2)">
       <use xlink:href="#DejaVuSans-32"/>
       <use xlink:href="#DejaVuSans-30" x="63.623047"/>
       <use xlink:href="#DejaVuSans-32" x="127.246094"/>
       <use xlink:href="#DejaVuSans-33" x="190.869141"/>
       <use xlink:href="#DejaVuSans-2d" x="254.492188"/>
       <use xlink:href="#DejaVuSans-30" x="290.576172"/>
       <use xlink:href="#DejaVuSans-33" x="354.199219"/>
       <use xlink:href="#DejaVuSans-2d" x="417.822266"/>
       <use xlink:href="#DejaVuSans-32" x="453.90625"/>
       <use xlink:href="#DejaVuSans-38" x="517.529297"/>
      </g>
     </g>
    </g>
    <g id="xtick_16">
     <g id="line2d_16">
      <g>
       <use xlink:href="#md4ad1bc41c" x="940.074841" y="395.28" style="stroke: #000000; stroke-width: 0.8"/>
      </g>
     </g>
     <g id="text_16">
      <!-- 2023-04-15 -->
      <g transform="translate(854.945813 495.213718) rotate(-45) scale(0.2 -0.2)">
       <use xlink:href="#DejaVuSans-32"/>
       <use xlink:href="#DejaVuSans-30" x="63.623047"/>
       <use xlink:href="#DejaVuSans-32" x="127.246094"/>
       <use xlink:href="#DejaVuSans-33" x="190.869141"/>
       <use xlink:href="#DejaVuSans-2d" x="254.492188"/>
       <use xlink:href="#DejaVuSans-30" x="290.576172"/>
       <use xlink:href="#DejaVuSans-34" x="354.199219"/>
       <use xlink:href="#DejaVuSans-2d" x="417.822266"/>
       <use xlink:href="#DejaVuSans-31" x="453.90625"/>
       <use xlink:href="#DejaVuSans-35" x="517.529297"/>
      </g>
     </g>
    </g>
   </g>
   <g id="matplotlib.axis_2">
    <g id="ytick_1">
     <g id="line2d_17">
      <defs>
       <path id="mfbccca2470" d="M 0 0 
L -3.5 0 
" style="stroke: #000000; stroke-width: 0.8"/>
      </defs>
      <g>
       <use xlink:href="#mfbccca2470" x="103.074841" y="388.321164" style="stroke: #000000; stroke-width: 0.8"/>
      </g>
     </g>
     <g id="text_17">
      <!-- 0.05 -->
      <g transform="translate(34.784216 395.919601) scale(0.2 -0.2)">
       <defs>
        <path id="DejaVuSans-2212" d="M 678 2272 
L 4684 2272 
L 4684 1741 
L 678 1741 
L 678 2272 
z
" transform="scale(0.015625)"/>
        <path id="DejaVuSans-2e" d="M 684 794 
L 1344 794 
L 1344 0 
L 684 0 
L 684 794 
z
" transform="scale(0.015625)"/>
       </defs>
       <use xlink:href="#DejaVuSans-2212"/>
       <use xlink:href="#DejaVuSans-30" x="83.789062"/>
       <use xlink:href="#DejaVuSans-2e" x="147.412109"/>
       <use xlink:href="#DejaVuSans-30" x="179.199219"/>
       <use xlink:href="#DejaVuSans-35" x="242.822266"/>
      </g>
     </g>
    </g>
    <g id="ytick_2">
     <g id="line2d_18">
      <g>
       <use xlink:href="#mfbccca2470" x="103.074841" y="318.732799" style="stroke: #000000; stroke-width: 0.8"/>
      </g>
     </g>
     <g id="text_18">
      <!-- 0.00 -->
      <g transform="translate(51.543591 326.331237) scale(0.2 -0.2)">
       <use xlink:href="#DejaVuSans-30"/>
       <use xlink:href="#DejaVuSans-2e" x="63.623047"/>
       <use xlink:href="#DejaVuSans-30" x="95.410156"/>
       <use xlink:href="#DejaVuSans-30" x="159.033203"/>
      </g>
     </g>
    </g>
    <g id="ytick_3">
     <g id="line2d_19">
      <g>
       <use xlink:href="#mfbccca2470" x="103.074841" y="249.144435" style="stroke: #000000; stroke-width: 0.8"/>
      </g>
     </g>
     <g id="text_19">
      <!-- 0.05 -->
      <g transform="translate(51.543591 256.742872) scale(0.2 -0.2)">
       <use xlink:href="#DejaVuSans-30"/>
       <use xlink:href="#DejaVuSans-2e" x="63.623047"/>
       <use xlink:href="#DejaVuSans-30" x="95.410156"/>
       <use xlink:href="#DejaVuSans-35" x="159.033203"/>
      </g>
     </g>
    </g>
    <g id="ytick_4">
     <g id="line2d_20">
      <g>
       <use xlink:href="#mfbccca2470" x="103.074841" y="179.55607" style="stroke: #000000; stroke-width: 0.8"/>
      </g>
     </g>
     <g id="text_20">
      <!-- 0.10 -->
      <g transform="translate(51.543591 187.154508) scale(0.2 -0.2)">
       <use xlink:href="#DejaVuSans-30"/>
       <use xlink:href="#DejaVuSans-2e" x="63.623047"/>
       <use xlink:href="#DejaVuSans-31" x="95.410156"/>
       <use xlink:href="#DejaVuSans-30" x="159.033203"/>
      </g>
     </g>
    </g>
    <g id="ytick_5">
     <g id="line2d_21">
      <g>
       <use xlink:href="#mfbccca2470" x="103.074841" y="109.967706" style="stroke: #000000; stroke-width: 0.8"/>
      </g>
     </g>
     <g id="text_21">
      <!-- 0.15 -->
      <g transform="translate(51.543591 117.566143) scale(0.2 -0.2)">
       <use xlink:href="#DejaVuSans-30"/>
       <use xlink:href="#DejaVuSans-2e" x="63.623047"/>
       <use xlink:href="#DejaVuSans-31" x="95.410156"/>
       <use xlink:href="#DejaVuSans-35" x="159.033203"/>
      </g>
     </g>
    </g>
    <g id="ytick_6">
     <g id="line2d_22">
      <g>
       <use xlink:href="#mfbccca2470" x="103.074841" y="40.379342" style="stroke: #000000; stroke-width: 0.8"/>
      </g>
     </g>
     <g id="text_22">
      <!-- 0.20 -->
      <g transform="translate(51.543591 47.977779) scale(0.2 -0.2)">
       <use xlink:href="#DejaVuSans-30"/>
       <use xlink:href="#DejaVuSans-2e" x="63.623047"/>
       <use xlink:href="#DejaVuSans-32" x="95.410156"/>
       <use xlink:href="#DejaVuSans-30" x="159.033203"/>
      </g>
     </g>
    </g>
    <g id="text_23">
     <!-- Relative fitness $\gamma_y$ -->
     <g transform="translate(24.584216 291.84) rotate(-90) scale(0.2 -0.2)">
      <defs>
       <path id="DejaVuSans-52" d="M 2841 2188 
Q 3044 2119 3236 1894 
Q 3428 1669 3622 1275 
L 4263 0 
L 3584 0 
L 2988 1197 
Q 2756 1666 2539 1819 
Q 2322 1972 1947 1972 
L 1259 1972 
L 1259 0 
L 628 0 
L 628 4666 
L 2053 4666 
Q 2853 4666 3247 4331 
Q 3641 3997 3641 3322 
Q 3641 2881 3436 2590 
Q 3231 2300 2841 2188 
z
M 1259 4147 
L 1259 2491 
L 2053 2491 
Q 2509 2491 2742 2702 
Q 2975 2913 2975 3322 
Q 2975 3731 2742 3939 
Q 2509 4147 2053 4147 
L 1259 4147 
z
" transform="scale(0.015625)"/>
       <path id="DejaVuSans-65" d="M 3597 1894 
L 3597 1613 
L 953 1613 
Q 991 1019 1311 708 
Q 1631 397 2203 397 
Q 2534 397 2845 478 
Q 3156 559 3463 722 
L 3463 178 
Q 3153 47 2828 -22 
Q 2503 -91 2169 -91 
Q 1331 -91 842 396 
Q 353 884 353 1716 
Q 353 2575 817 3079 
Q 1281 3584 2069 3584 
Q 2775 3584 3186 3129 
Q 3597 2675 3597 1894 
z
M 3022 2063 
Q 3016 2534 2758 2815 
Q 2500 3097 2075 3097 
Q 1594 3097 1305 2825 
Q 1016 2553 972 2059 
L 3022 2063 
z
" transform="scale(0.015625)"/>
       <path id="DejaVuSans-6c" d="M 603 4863 
L 1178 4863 
L 1178 0 
L 603 0 
L 603 4863 
z
" transform="scale(0.015625)"/>
       <path id="DejaVuSans-61" d="M 2194 1759 
Q 1497 1759 1228 1600 
Q 959 1441 959 1056 
Q 959 750 1161 570 
Q 1363 391 1709 391 
Q 2188 391 2477 730 
Q 2766 1069 2766 1631 
L 2766 1759 
L 2194 1759 
z
M 3341 1997 
L 3341 0 
L 2766 0 
L 2766 531 
Q 2569 213 2275 61 
Q 1981 -91 1556 -91 
Q 1019 -91 701 211 
Q 384 513 384 1019 
Q 384 1609 779 1909 
Q 1175 2209 1959 2209 
L 2766 2209 
L 2766 2266 
Q 2766 2663 2505 2880 
Q 2244 3097 1772 3097 
Q 1472 3097 1187 3025 
Q 903 2953 641 2809 
L 641 3341 
Q 956 3463 1253 3523 
Q 1550 3584 1831 3584 
Q 2591 3584 2966 3190 
Q 3341 2797 3341 1997 
z
" transform="scale(0.015625)"/>
       <path id="DejaVuSans-74" d="M 1172 4494 
L 1172 3500 
L 2356 3500 
L 2356 3053 
L 1172 3053 
L 1172 1153 
Q 1172 725 1289 603 
Q 1406 481 1766 481 
L 2356 481 
L 2356 0 
L 1766 0 
Q 1100 0 847 248 
Q 594 497 594 1153 
L 594 3053 
L 172 3053 
L 172 3500 
L 594 3500 
L 594 4494 
L 1172 4494 
z
" transform="scale(0.015625)"/>
       <path id="DejaVuSans-69" d="M 603 3500 
L 1178 3500 
L 1178 0 
L 603 0 
L 603 3500 
z
M 603 4863 
L 1178 4863 
L 1178 4134 
L 603 4134 
L 603 4863 
z
" transform="scale(0.015625)"/>
       <path id="DejaVuSans-76" d="M 191 3500 
L 800 3500 
L 1894 563 
L 2988 3500 
L 3597 3500 
L 2284 0 
L 1503 0 
L 191 3500 
z
" transform="scale(0.015625)"/>
       <path id="DejaVuSans-20" transform="scale(0.015625)"/>
       <path id="DejaVuSans-66" d="M 2375 4863 
L 2375 4384 
L 1825 4384 
Q 1516 4384 1395 4259 
Q 1275 4134 1275 3809 
L 1275 3500 
L 2222 3500 
L 2222 3053 
L 1275 3053 
L 1275 0 
L 697 0 
L 697 3053 
L 147 3053 
L 147 3500 
L 697 3500 
L 697 3744 
Q 697 4328 969 4595 
Q 1241 4863 1831 4863 
L 2375 4863 
z
" transform="scale(0.015625)"/>
       <path id="DejaVuSans-6e" d="M 3513 2113 
L 3513 0 
L 2938 0 
L 2938 2094 
Q 2938 2591 2744 2837 
Q 2550 3084 2163 3084 
Q 1697 3084 1428 2787 
Q 1159 2491 1159 1978 
L 1159 0 
L 581 0 
L 581 3500 
L 1159 3500 
L 1159 2956 
Q 1366 3272 1645 3428 
Q 1925 3584 2291 3584 
Q 2894 3584 3203 3211 
Q 3513 2838 3513 2113 
z
" transform="scale(0.015625)"/>
       <path id="DejaVuSans-73" d="M 2834 3397 
L 2834 2853 
Q 2591 2978 2328 3040 
Q 2066 3103 1784 3103 
Q 1356 3103 1142 2972 
Q 928 2841 928 2578 
Q 928 2378 1081 2264 
Q 1234 2150 1697 2047 
L 1894 2003 
Q 2506 1872 2764 1633 
Q 3022 1394 3022 966 
Q 3022 478 2636 193 
Q 2250 -91 1575 -91 
Q 1294 -91 989 -36 
Q 684 19 347 128 
L 347 722 
Q 666 556 975 473 
Q 1284 391 1588 391 
Q 1994 391 2212 530 
Q 2431 669 2431 922 
Q 2431 1156 2273 1281 
Q 2116 1406 1581 1522 
L 1381 1569 
Q 847 1681 609 1914 
Q 372 2147 372 2553 
Q 372 3047 722 3315 
Q 1072 3584 1716 3584 
Q 2034 3584 2315 3537 
Q 2597 3491 2834 3397 
z
" transform="scale(0.015625)"/>
       <path id="DejaVuSans-Oblique-3b3" d="M 1491 2950 
L 1838 788 
L 3456 3500 
L 4066 3500 
L 1972 0 
L 1713 -1331 
L 1138 -1331 
L 1397 0 
L 988 2613 
Q 925 3006 628 3006 
L 475 3006 
L 569 3500 
L 788 3500 
Q 1403 3500 1491 2950 
z
" transform="scale(0.015625)"/>
       <path id="DejaVuSans-Oblique-79" d="M 1588 -325 
Q 1188 -997 936 -1164 
Q 684 -1331 294 -1331 
L -159 -1331 
L -63 -850 
L 269 -850 
Q 509 -850 678 -719 
Q 847 -588 1056 -206 
L 1234 128 
L 459 3500 
L 1069 3500 
L 1650 819 
L 3256 3500 
L 3859 3500 
L 1588 -325 
z
" transform="scale(0.015625)"/>
      </defs>
      <use xlink:href="#DejaVuSans-52" transform="translate(0 0.015625)"/>
      <use xlink:href="#DejaVuSans-65" transform="translate(69.482422 0.015625)"/>
      <use xlink:href="#DejaVuSans-6c" transform="translate(131.005859 0.015625)"/>
      <use xlink:href="#DejaVuSans-61" transform="translate(158.789062 0.015625)"/>
      <use xlink:href="#DejaVuSans-74" transform="translate(220.068359 0.015625)"/>
      <use xlink:href="#DejaVuSans-69" transform="translate(259.277344 0.015625)"/>
      <use xlink:href="#DejaVuSans-76" transform="translate(287.060547 0.015625)"/>
      <use xlink:href="#DejaVuSans-65" transform="translate(346.240234 0.015625)"/>
      <use xlink:href="#DejaVuSans-20" transform="translate(407.763672 0.015625)"/>
      <use xlink:href="#DejaVuSans-66" transform="translate(439.550781 0.015625)"/>
      <use xlink:href="#DejaVuSans-69" transform="translate(474.755859 0.015625)"/>
      <use xlink:href="#DejaVuSans-74" transform="translate(502.539062 0.015625)"/>
      <use xlink:href="#DejaVuSans-6e" transform="translate(541.748047 0.015625)"/>
      <use xlink:href="#DejaVuSans-65" transform="translate(605.126953 0.015625)"/>
      <use xlink:href="#DejaVuSans-73" transform="translate(666.650391 0.015625)"/>
      <use xlink:href="#DejaVuSans-73" transform="translate(718.75 0.015625)"/>
      <use xlink:href="#DejaVuSans-20" transform="translate(770.849609 0.015625)"/>
      <use xlink:href="#DejaVuSans-Oblique-3b3" transform="translate(802.636719 0.015625)"/>
      <use xlink:href="#DejaVuSans-Oblique-79" transform="translate(861.816406 -16.390625) scale(0.7)"/>
     </g>
    </g>
   </g>
   <g id="line2d_23">
    <path d="M 103.074841 318.732799 
L 1041.965466 318.732799 
" clip-path="url(#pbf9bc5274d)" style="fill: none; stroke-dasharray: 7.4,3.2; stroke-dashoffset: 0; stroke: #000000; stroke-width: 2"/>
   </g>
   <g id="patch_3">
    <path d="M 103.074841 395.28 
L 103.074841 7.2 
" style="fill: none; stroke: #000000; stroke-width: 0.8; stroke-linejoin: miter; stroke-linecap: square"/>
   </g>
   <g id="patch_4">
    <path d="M 940.074841 395.28 
L 940.074841 7.2 
" style="fill: none; stroke: #000000; stroke-width: 0.8; stroke-linejoin: miter; stroke-linecap: square"/>
   </g>
   <g id="patch_5">
    <path d="M 103.074841 395.28 
L 940.074841 395.28 
" style="fill: none; stroke: #000000; stroke-width: 0.8; stroke-linejoin: miter; stroke-linecap: square"/>
   </g>
   <g id="patch_6">
    <path d="M 103.074841 7.2 
L 940.074841 7.2 
" style="fill: none; stroke: #000000; stroke-width: 0.8; stroke-linejoin: miter; stroke-linecap: square"/>
   </g>
  </g>
  <g id="axes_2">
   <g id="matplotlib.axis_3">
    <g id="ytick_7">
     <g id="line2d_24">
      <defs>
       <path id="md17b500220" d="M 0 0 
L 3.5 0 
" style="stroke: #000000; stroke-width: 0.8"/>
      </defs>
      <g>
       <use xlink:href="#md17b500220" x="940.074841" y="388.321164" style="stroke: #000000; stroke-width: 0.8"/>
      </g>
     </g>
     <g id="text_24">
      <!-- 0.05 -->
      <g transform="translate(947.074841 395.919601) scale(0.2 -0.2)">
       <use xlink:href="#DejaVuSans-2212"/>
       <use xlink:href="#DejaVuSans-30" x="83.789062"/>
       <use xlink:href="#DejaVuSans-2e" x="147.412109"/>
       <use xlink:href="#DejaVuSans-30" x="179.199219"/>
       <use xlink:href="#DejaVuSans-35" x="242.822266"/>
      </g>
     </g>
    </g>
    <g id="ytick_8">
     <g id="line2d_25">
      <g>
       <use xlink:href="#md17b500220" x="940.074841" y="318.732799" style="stroke: #000000; stroke-width: 0.8"/>
      </g>
     </g>
     <g id="text_25">
      <!-- 0.00 -->
      <g transform="translate(947.074841 326.331237) scale(0.2 -0.2)">
       <use xlink:href="#DejaVuSans-30"/>
       <use xlink:href="#DejaVuSans-2e" x="63.623047"/>
       <use xlink:href="#DejaVuSans-30" x="95.410156"/>
       <use xlink:href="#DejaVuSans-30" x="159.033203"/>
      </g>
     </g>
    </g>
    <g id="ytick_9">
     <g id="line2d_26">
      <g>
       <use xlink:href="#md17b500220" x="940.074841" y="249.144435" style="stroke: #000000; stroke-width: 0.8"/>
      </g>
     </g>
     <g id="text_26">
      <!-- 0.05 -->
      <g transform="translate(947.074841 256.742872) scale(0.2 -0.2)">
       <use xlink:href="#DejaVuSans-30"/>
       <use xlink:href="#DejaVuSans-2e" x="63.623047"/>
       <use xlink:href="#DejaVuSans-30" x="95.410156"/>
       <use xlink:href="#DejaVuSans-35" x="159.033203"/>
      </g>
     </g>
    </g>
    <g id="ytick_10">
     <g id="line2d_27">
      <g>
       <use xlink:href="#md17b500220" x="940.074841" y="179.55607" style="stroke: #000000; stroke-width: 0.8"/>
      </g>
     </g>
     <g id="text_27">
      <!-- 0.10 -->
      <g transform="translate(947.074841 187.154508) scale(0.2 -0.2)">
       <use xlink:href="#DejaVuSans-30"/>
       <use xlink:href="#DejaVuSans-2e" x="63.623047"/>
       <use xlink:href="#DejaVuSans-31" x="95.410156"/>
       <use xlink:href="#DejaVuSans-30" x="159.033203"/>
      </g>
     </g>
    </g>
    <g id="ytick_11">
     <g id="line2d_28">
      <g>
       <use xlink:href="#md17b500220" x="940.074841" y="109.967706" style="stroke: #000000; stroke-width: 0.8"/>
      </g>
     </g>
     <g id="text_28">
      <!-- 0.15 -->
      <g transform="translate(947.074841 117.566143) scale(0.2 -0.2)">
       <use xlink:href="#DejaVuSans-30"/>
       <use xlink:href="#DejaVuSans-2e" x="63.623047"/>
       <use xlink:href="#DejaVuSans-31" x="95.410156"/>
       <use xlink:href="#DejaVuSans-35" x="159.033203"/>
      </g>
     </g>
    </g>
    <g id="ytick_12">
     <g id="line2d_29">
      <g>
       <use xlink:href="#md17b500220" x="940.074841" y="40.379342" style="stroke: #000000; stroke-width: 0.8"/>
      </g>
     </g>
     <g id="text_29">
      <!-- 0.20 -->
      <g transform="translate(947.074841 47.977779) scale(0.2 -0.2)">
       <use xlink:href="#DejaVuSans-30"/>
       <use xlink:href="#DejaVuSans-2e" x="63.623047"/>
       <use xlink:href="#DejaVuSans-32" x="95.410156"/>
       <use xlink:href="#DejaVuSans-30" x="159.033203"/>
      </g>
     </g>
    </g>
    <g id="text_30">
     <!-- Change in proportion $\gamma_{prop}$ -->
     <g transform="translate(1027.565466 332.74) rotate(-90) scale(0.2 -0.2)">
      <defs>
       <path id="DejaVuSans-43" d="M 4122 4306 
L 4122 3641 
Q 3803 3938 3442 4084 
Q 3081 4231 2675 4231 
Q 1875 4231 1450 3742 
Q 1025 3253 1025 2328 
Q 1025 1406 1450 917 
Q 1875 428 2675 428 
Q 3081 428 3442 575 
Q 3803 722 4122 1019 
L 4122 359 
Q 3791 134 3420 21 
Q 3050 -91 2638 -91 
Q 1578 -91 968 557 
Q 359 1206 359 2328 
Q 359 3453 968 4101 
Q 1578 4750 2638 4750 
Q 3056 4750 3426 4639 
Q 3797 4528 4122 4306 
z
" transform="scale(0.015625)"/>
       <path id="DejaVuSans-68" d="M 3513 2113 
L 3513 0 
L 2938 0 
L 2938 2094 
Q 2938 2591 2744 2837 
Q 2550 3084 2163 3084 
Q 1697 3084 1428 2787 
Q 1159 2491 1159 1978 
L 1159 0 
L 581 0 
L 581 4863 
L 1159 4863 
L 1159 2956 
Q 1366 3272 1645 3428 
Q 1925 3584 2291 3584 
Q 2894 3584 3203 3211 
Q 3513 2838 3513 2113 
z
" transform="scale(0.015625)"/>
       <path id="DejaVuSans-67" d="M 2906 1791 
Q 2906 2416 2648 2759 
Q 2391 3103 1925 3103 
Q 1463 3103 1205 2759 
Q 947 2416 947 1791 
Q 947 1169 1205 825 
Q 1463 481 1925 481 
Q 2391 481 2648 825 
Q 2906 1169 2906 1791 
z
M 3481 434 
Q 3481 -459 3084 -895 
Q 2688 -1331 1869 -1331 
Q 1566 -1331 1297 -1286 
Q 1028 -1241 775 -1147 
L 775 -588 
Q 1028 -725 1275 -790 
Q 1522 -856 1778 -856 
Q 2344 -856 2625 -561 
Q 2906 -266 2906 331 
L 2906 616 
Q 2728 306 2450 153 
Q 2172 0 1784 0 
Q 1141 0 747 490 
Q 353 981 353 1791 
Q 353 2603 747 3093 
Q 1141 3584 1784 3584 
Q 2172 3584 2450 3431 
Q 2728 3278 2906 2969 
L 2906 3500 
L 3481 3500 
L 3481 434 
z
" transform="scale(0.015625)"/>
       <path id="DejaVuSans-70" d="M 1159 525 
L 1159 -1331 
L 581 -1331 
L 581 3500 
L 1159 3500 
L 1159 2969 
Q 1341 3281 1617 3432 
Q 1894 3584 2278 3584 
Q 2916 3584 3314 3078 
Q 3713 2572 3713 1747 
Q 3713 922 3314 415 
Q 2916 -91 2278 -91 
Q 1894 -91 1617 61 
Q 1341 213 1159 525 
z
M 3116 1747 
Q 3116 2381 2855 2742 
Q 2594 3103 2138 3103 
Q 1681 3103 1420 2742 
Q 1159 2381 1159 1747 
Q 1159 1113 1420 752 
Q 1681 391 2138 391 
Q 2594 391 2855 752 
Q 3116 1113 3116 1747 
z
" transform="scale(0.015625)"/>
       <path id="DejaVuSans-72" d="M 2631 2963 
Q 2534 3019 2420 3045 
Q 2306 3072 2169 3072 
Q 1681 3072 1420 2755 
Q 1159 2438 1159 1844 
L 1159 0 
L 581 0 
L 581 3500 
L 1159 3500 
L 1159 2956 
Q 1341 3275 1631 3429 
Q 1922 3584 2338 3584 
Q 2397 3584 2469 3576 
Q 2541 3569 2628 3553 
L 2631 2963 
z
" transform="scale(0.015625)"/>
       <path id="DejaVuSans-6f" d="M 1959 3097 
Q 1497 3097 1228 2736 
Q 959 2375 959 1747 
Q 959 1119 1226 758 
Q 1494 397 1959 397 
Q 2419 397 2687 759 
Q 2956 1122 2956 1747 
Q 2956 2369 2687 2733 
Q 2419 3097 1959 3097 
z
M 1959 3584 
Q 2709 3584 3137 3096 
Q 3566 2609 3566 1747 
Q 3566 888 3137 398 
Q 2709 -91 1959 -91 
Q 1206 -91 779 398 
Q 353 888 353 1747 
Q 353 2609 779 3096 
Q 1206 3584 1959 3584 
z
" transform="scale(0.015625)"/>
       <path id="DejaVuSans-Oblique-70" d="M 3175 2156 
Q 3175 2616 2975 2859 
Q 2775 3103 2400 3103 
Q 2144 3103 1911 2972 
Q 1678 2841 1497 2591 
Q 1319 2344 1212 1994 
Q 1106 1644 1106 1300 
Q 1106 863 1306 627 
Q 1506 391 1875 391 
Q 2147 391 2380 519 
Q 2613 647 2778 891 
Q 2956 1147 3065 1494 
Q 3175 1841 3175 2156 
z
M 1394 2969 
Q 1625 3272 1939 3428 
Q 2253 3584 2638 3584 
Q 3175 3584 3472 3232 
Q 3769 2881 3769 2247 
Q 3769 1728 3584 1258 
Q 3400 788 3053 416 
Q 2822 169 2531 39 
Q 2241 -91 1919 -91 
Q 1547 -91 1294 64 
Q 1041 219 916 525 
L 556 -1331 
L -19 -1331 
L 922 3500 
L 1497 3500 
L 1394 2969 
z
" transform="scale(0.015625)"/>
       <path id="DejaVuSans-Oblique-72" d="M 2853 2969 
Q 2766 3016 2653 3041 
Q 2541 3066 2413 3066 
Q 1953 3066 1609 2717 
Q 1266 2369 1153 1784 
L 800 0 
L 225 0 
L 909 3500 
L 1484 3500 
L 1375 2956 
Q 1603 3259 1920 3421 
Q 2238 3584 2597 3584 
Q 2691 3584 2781 3573 
Q 2872 3563 2963 3538 
L 2853 2969 
z
" transform="scale(0.015625)"/>
       <path id="DejaVuSans-Oblique-6f" d="M 1625 -91 
Q 1009 -91 651 289 
Q 294 669 294 1325 
Q 294 1706 417 2101 
Q 541 2497 738 2766 
Q 1047 3184 1428 3384 
Q 1809 3584 2291 3584 
Q 2888 3584 3255 3212 
Q 3622 2841 3622 2241 
Q 3622 1825 3500 1412 
Q 3378 1000 3181 728 
Q 2875 309 2494 109 
Q 2113 -91 1625 -91 
z
M 891 1344 
Q 891 869 1089 633 
Q 1288 397 1691 397 
Q 2269 397 2648 901 
Q 3028 1406 3028 2181 
Q 3028 2634 2825 2865 
Q 2622 3097 2228 3097 
Q 1903 3097 1650 2945 
Q 1397 2794 1197 2484 
Q 1050 2253 970 1956 
Q 891 1659 891 1344 
z
" transform="scale(0.015625)"/>
      </defs>
      <use xlink:href="#DejaVuSans-43" transform="translate(0 0.015625)"/>
      <use xlink:href="#DejaVuSans-68" transform="translate(69.824219 0.015625)"/>
      <use xlink:href="#DejaVuSans-61" transform="translate(133.203125 0.015625)"/>
      <use xlink:href="#DejaVuSans-6e" transform="translate(194.482422 0.015625)"/>
      <use xlink:href="#DejaVuSans-67" transform="translate(257.861328 0.015625)"/>
      <use xlink:href="#DejaVuSans-65" transform="translate(321.337891 0.015625)"/>
      <use xlink:href="#DejaVuSans-20" transform="translate(382.861328 0.015625)"/>
      <use xlink:href="#DejaVuSans-69" transform="translate(414.648438 0.015625)"/>
      <use xlink:href="#DejaVuSans-6e" transform="translate(442.431641 0.015625)"/>
      <use xlink:href="#DejaVuSans-20" transform="translate(505.810547 0.015625)"/>
      <use xlink:href="#DejaVuSans-70" transform="translate(537.597656 0.015625)"/>
      <use xlink:href="#DejaVuSans-72" transform="translate(601.074219 0.015625)"/>
      <use xlink:href="#DejaVuSans-6f" transform="translate(642.1875 0.015625)"/>
      <use xlink:href="#DejaVuSans-70" transform="translate(703.369141 0.015625)"/>
      <use xlink:href="#DejaVuSans-6f" transform="translate(766.845703 0.015625)"/>
      <use xlink:href="#DejaVuSans-72" transform="translate(828.027344 0.015625)"/>
      <use xlink:href="#DejaVuSans-74" transform="translate(869.140625 0.015625)"/>
      <use xlink:href="#DejaVuSans-69" transform="translate(908.349609 0.015625)"/>
      <use xlink:href="#DejaVuSans-6f" transform="translate(936.132812 0.015625)"/>
      <use xlink:href="#DejaVuSans-6e" transform="translate(997.314453 0.015625)"/>
      <use xlink:href="#DejaVuSans-20" transform="translate(1060.693359 0.015625)"/>
      <use xlink:href="#DejaVuSans-Oblique-3b3" transform="translate(1092.480469 0.015625)"/>
      <use xlink:href="#DejaVuSans-Oblique-70" transform="translate(1151.660156 -16.390625) scale(0.7)"/>
      <use xlink:href="#DejaVuSans-Oblique-72" transform="translate(1196.09375 -16.390625) scale(0.7)"/>
      <use xlink:href="#DejaVuSans-Oblique-6f" transform="translate(1224.873047 -16.390625) scale(0.7)"/>
      <use xlink:href="#DejaVuSans-Oblique-70" transform="translate(1267.700195 -16.390625) scale(0.7)"/>
     </g>
    </g>
   </g>
   <g id="line2d_30">
    <path d="M 940.074841 318.732799 
" clip-path="url(#pbf9bc5274d)" style="fill: none; stroke: #ffa500; stroke-width: 1.5; stroke-linecap: square"/>
   </g>
   <g id="patch_7">
    <path d="M 103.074841 395.28 
L 103.074841 7.2 
" style="fill: none; stroke: #000000; stroke-width: 0.8; stroke-linejoin: miter; stroke-linecap: square"/>
   </g>
   <g id="patch_8">
    <path d="M 940.074841 395.28 
L 940.074841 7.2 
" style="fill: none; stroke: #000000; stroke-width: 0.8; stroke-linejoin: miter; stroke-linecap: square"/>
   </g>
   <g id="patch_9">
    <path d="M 103.074841 395.28 
L 940.074841 395.28 
" style="fill: none; stroke: #000000; stroke-width: 0.8; stroke-linejoin: miter; stroke-linecap: square"/>
   </g>
   <g id="patch_10">
    <path d="M 103.074841 7.2 
L 940.074841 7.2 
" style="fill: none; stroke: #000000; stroke-width: 0.8; stroke-linejoin: miter; stroke-linecap: square"/>
   </g>
  </g>
 </g>
 <defs>
  <clipPath id="pbf9bc5274d">
   <rect x="103.074841" y="7.2" width="837" height="388.08"/>
  </clipPath>
 </defs>
</svg>
