<?xml version="1.0" encoding="utf-8" standalone="no"?>
<!DOCTYPE svg PUBLIC "-//W3C//DTD SVG 1.1//EN"
  "http://www.w3.org/Graphics/SVG/1.1/DTD/svg11.dtd">
<svg xmlns:xlink="http://www.w3.org/1999/xlink" width="947.274841pt" height="505.354841pt" viewBox="0 0 947.274841 505.354841" xmlns="http://www.w3.org/2000/svg" version="1.1">
 <metadata>
  <rdf:RDF xmlns:dc="http://purl.org/dc/elements/1.1/" xmlns:cc="http://creativecommons.org/ns#" xmlns:rdf="http://www.w3.org/1999/02/22-rdf-syntax-ns#">
   <cc:Work>
    <dc:type rdf:resource="http://purl.org/dc/dcmitype/StillImage"/>
    <dc:date>2023-11-12T22:44:15.816869</dc:date>
    <dc:format>image/svg+xml</dc:format>
    <dc:creator>
     <cc:Agent>
      <dc:title>Matplotlib v3.7.2, https://matplotlib.org/</dc:title>
     </cc:Agent>
    </dc:creator>
   </cc:Work>
  </rdf:RDF>
 </metadata>
 <defs>
  <style type="text/css">*{stroke-linejoin: round; stroke-linecap: butt}</style>
 </defs>
 <g id="figure_1">
  <g id="patch_1">
   <path d="M 0 505.354841 
L 947.274841 505.354841 
L 947.274841 -0 
L 0 -0 
z
" style="fill: #ffffff"/>
  </g>
  <g id="axes_1">
   <g id="patch_2">
    <path d="M 103.074841 395.28 
L 940.074841 395.28 
L 940.074841 7.2 
L 103.074841 7.2 
z
" style="fill: #ffffff"/>
   </g>
   <g id="PolyCollection_1">
    <path d="M -4315.31939 377.564694 
L -4315.31939 377.575371 
L -4307.271313 377.494921 
L -4299.223236 377.440145 
L -4291.175159 377.376548 
L -4283.127082 377.340834 
L -4275.079005 377.293773 
L -4267.030929 377.236722 
L -4258.982852 377.180956 
L -4250.934775 377.130989 
L -4242.886698 377.091202 
L -4234.838621 377.041023 
L -4226.790544 376.9875 
L -4218.742467 376.936622 
L -4210.69439 376.867276 
L -4202.646313 376.815902 
L -4194.598236 376.750044 
L -4186.550159 376.698763 
L -4178.502082 376.618302 
L -4170.454005 376.558825 
L -4162.405929 376.503545 
L -4154.357852 376.43251 
L -4146.309775 376.365039 
L -4138.261698 376.300953 
L -4130.213621 376.216849 
L -4122.165544 376.149346 
L -4114.117467 376.064942 
L -4106.06939 375.980642 
L -4098.021313 375.884526 
L -4089.973236 375.786456 
L -4081.925159 375.693827 
L -4073.877082 375.581277 
L -4065.829005 375.449756 
L -4057.780929 375.342161 
L -4049.732852 375.215182 
L -4041.684775 375.064775 
L -4033.636698 374.932929 
L -4025.588621 374.770474 
L -4017.540544 374.608362 
L -4009.492467 374.443527 
L -4001.44439 374.269531 
L -3993.396313 374.072123 
L -3985.348236 373.861074 
L -3977.300159 373.63685 
L -3969.252082 373.429585 
L -3961.204005 373.173047 
L -3953.155929 372.939905 
L -3945.107852 372.689321 
L -3937.059775 372.442681 
L -3929.011698 372.17256 
L -3920.963621 371.874031 
L -3912.915544 371.612545 
L -3904.867467 371.309769 
L -3896.81939 370.9954 
L -3888.771313 370.694318 
L -3880.723236 370.40165 
L -3872.675159 370.074298 
L -3864.627082 369.745089 
L -3856.579005 369.420097 
L -3848.530929 369.077635 
L -3840.482852 368.731882 
L -3832.434775 368.390622 
L -3824.386698 368.034601 
L -3816.338621 367.680061 
L -3808.290544 367.336163 
L -3800.242467 366.972739 
L -3792.19439 366.57287 
L -3784.146313 366.19286 
L -3776.098236 365.81539 
L -3768.050159 365.447636 
L -3760.002082 365.057236 
L -3751.954005 364.680261 
L -3743.905929 364.292916 
L -3735.857852 363.96113 
L -3727.809775 363.535301 
L -3719.761698 363.190013 
L -3711.713621 362.79228 
L -3703.665544 362.420561 
L -3695.617467 362.019685 
L -3687.56939 361.674918 
L -3679.521313 361.253001 
L -3671.473236 360.871451 
L -3663.425159 360.526612 
L -3655.377082 360.135257 
L -3647.329005 359.771999 
L -3639.280929 359.386891 
L -3631.232852 359.000819 
L -3623.184775 358.63372 
L -3615.136698 358.276138 
L -3607.088621 357.877734 
L -3599.040544 357.508949 
L -3590.992467 357.131158 
L -3582.94439 356.760636 
L -3574.896313 356.400795 
L -3566.848236 356.025627 
L -3558.800159 355.655867 
L -3550.752082 355.339414 
L -3542.704005 354.956936 
L -3534.655929 354.595785 
L -3526.607852 354.241515 
L -3518.559775 353.884847 
L -3510.511698 353.527742 
L -3502.463621 353.162366 
L -3494.415544 352.8197 
L -3486.367467 352.455779 
L -3478.31939 352.077998 
L -3470.271313 351.693473 
L -3462.223236 351.302612 
L -3454.175159 350.946109 
L -3446.127082 350.538877 
L -3438.079005 350.095177 
L -3430.030929 349.688372 
L -3421.982852 349.252279 
L -3413.934775 348.80846 
L -3405.886698 348.332934 
L -3397.838621 347.847831 
L -3389.790544 347.409981 
L -3381.742467 346.890611 
L -3373.69439 346.407154 
L -3365.646313 345.876827 
L -3357.598236 345.405506 
L -3349.550159 344.824679 
L -3341.502082 344.260984 
L -3333.454005 343.720405 
L -3325.405929 343.16999 
L -3317.357852 342.599814 
L -3309.309775 341.998614 
L -3301.261698 341.44928 
L -3293.213621 340.79626 
L -3285.165544 340.247308 
L -3277.117467 339.575561 
L -3269.06939 338.933579 
L -3261.021313 338.314363 
L -3252.973236 337.73164 
L -3244.925159 337.021477 
L -3236.877082 336.403281 
L -3228.829005 335.564786 
L -3220.780929 334.877011 
L -3212.732852 334.255134 
L -3204.684775 333.529438 
L -3196.636698 332.784591 
L -3188.588621 331.89789 
L -3180.540544 331.087889 
L -3172.492467 330.458983 
L -3164.44439 329.328146 
L -3156.396313 328.478128 
L -3148.348236 327.613047 
L -3140.300159 326.715346 
L -3132.252082 325.665275 
L -3124.204005 324.70654 
L -3116.155929 324.067672 
L -3108.107852 323.180793 
L -3100.059775 321.53191 
L -3092.011698 320.212491 
L -3083.963621 319.34203 
L -3075.915544 318.011837 
L -3067.867467 316.985843 
L -3059.81939 316.155278 
L -3051.771313 314.701408 
L -3043.723236 313.003271 
L -3035.675159 311.98583 
L -3027.627082 311.500123 
L -3019.579005 310.179265 
L -3011.530929 309.844298 
L -3003.482852 309.037615 
L -2995.434775 307.585941 
L -2987.386698 307.727923 
L -2979.338621 308.543899 
L -2971.290544 310.165215 
L -2963.242467 308.688442 
L -2955.19439 312.115189 
L -2947.146313 313.11284 
L -2939.098236 308.806706 
L -2931.050159 310.215065 
L -2923.002082 312.34165 
L -2914.954005 311.296529 
L -2906.905929 311.174674 
L -2898.857852 319.73858 
L -2890.809775 331.874168 
L -2882.761698 338.017885 
L -2874.713621 325.073518 
L -2866.665544 332.000534 
L -2858.617467 340.851231 
L -2850.56939 340.475132 
L -2842.521313 358.429663 
L -2834.473236 355.974923 
L -2826.425159 350.669838 
L -2818.377082 337.074422 
L -2810.329005 349.95404 
L -2802.280929 357.626996 
L -2794.232852 354.262575 
L -2786.184775 356.402346 
L -2778.136698 363.476349 
L -2770.088621 362.457047 
L -2762.040544 356.453858 
L -2753.992467 364.069102 
L -2745.94439 365.844486 
L -2737.896313 362.948105 
L -2729.848236 368.267369 
L -2721.800159 370.305537 
L -2713.752082 369.920456 
L -2705.704005 368.282458 
L -2697.655929 370.182741 
L -2689.607852 368.398126 
L -2681.559775 368.681181 
L -2673.511698 370.57237 
L -2665.463621 369.135031 
L -2657.415544 370.143299 
L -2649.367467 370.405621 
L -2641.31939 369.156842 
L -2633.271313 369.880363 
L -2625.223236 367.80802 
L -2617.175159 368.416424 
L -2609.127082 369.19372 
L -2601.079005 369.527476 
L -2593.030929 368.718729 
L -2584.982852 368.045295 
L -2576.934775 368.044525 
L -2568.886698 367.521015 
L -2560.838621 367.661295 
L -2552.790544 367.737106 
L -2544.742467 366.600559 
L -2536.69439 367.594598 
L -2528.646313 366.91173 
L -2520.598236 366.615233 
L -2512.550159 367.1436 
L -2504.502082 366.513233 
L -2496.454005 366.522953 
L -2488.405929 367.058299 
L -2480.357852 367.777627 
L -2472.309775 366.52472 
L -2464.261698 365.998991 
L -2456.213621 366.277423 
L -2448.165544 368.868988 
L -2440.117467 369.076698 
L -2432.06939 370.103749 
L -2424.021313 367.797251 
L -2415.973236 366.498564 
L -2407.925159 367.000077 
L -2399.877082 368.64957 
L -2391.829005 368.900688 
L -2383.780929 366.198657 
L -2375.732852 368.483785 
L -2367.684775 367.424952 
L -2359.636698 367.191461 
L -2351.588621 365.690973 
L -2343.540544 366.59418 
L -2335.492467 365.946943 
L -2327.44439 366.488708 
L -2319.396313 365.322922 
L -2311.348236 364.450713 
L -2303.300159 363.02827 
L -2295.252082 362.304732 
L -2287.204005 361.608009 
L -2279.155929 360.537038 
L -2271.107852 360.255034 
L -2263.059775 359.19958 
L -2255.011698 358.086711 
L -2246.963621 355.94291 
L -2238.915544 354.077394 
L -2230.867467 353.027747 
L -2222.81939 351.038045 
L -2214.771313 350.515796 
L -2206.723236 348.864599 
L -2198.675159 346.416893 
L -2190.627082 344.375453 
L -2182.579005 342.693783 
L -2174.530929 340.129804 
L -2166.482852 338.537726 
L -2158.434775 336.234118 
L -2150.386698 334.190544 
L -2142.338621 331.773097 
L -2134.290544 329.331464 
L -2126.242467 327.034844 
L -2118.19439 324.631219 
L -2110.146313 322.391423 
L -2102.098236 319.497696 
L -2094.050159 316.807258 
L -2086.002082 314.092411 
L -2077.954005 312.007458 
L -2069.905929 309.160632 
L -2061.857852 306.622448 
L -2053.809775 303.846266 
L -2045.761698 300.126995 
L -2037.713621 298.028261 
L -2029.665544 294.810896 
L -2021.617467 292.125299 
L -2013.56939 289.140562 
L -2005.521313 285.841314 
L -1997.473236 282.7469 
L -1989.425159 279.652266 
L -1981.377082 275.865623 
L -1973.329005 273.089499 
L -1965.280929 269.399332 
L -1957.232852 266.763821 
L -1949.184775 262.951798 
L -1941.136698 259.184452 
L -1933.088621 255.837095 
L -1925.040544 252.937667 
L -1916.992467 248.673839 
L -1908.94439 245.471023 
L -1900.896313 241.610717 
L -1892.848236 238.337861 
L -1884.800159 234.295526 
L -1876.752082 230.567668 
L -1868.704005 229.509355 
L -1860.655929 223.033865 
L -1852.607852 221.363974 
L -1844.559775 217.287867 
L -1836.511698 214.102221 
L -1828.463621 210.497253 
L -1820.415544 206.79738 
L -1812.367467 203.242189 
L -1804.31939 199.956543 
L -1796.271313 196.850794 
L -1788.223236 193.61399 
L -1780.175159 194.702595 
L -1772.127082 186.7391 
L -1764.079005 184.518139 
L -1756.030929 188.917786 
L -1747.982852 180.134515 
L -1739.934775 180.569272 
L -1731.886698 178.97058 
L -1723.838621 173.822116 
L -1715.790544 173.974862 
L -1707.742467 176.999097 
L -1699.69439 173.168059 
L -1691.646313 171.218392 
L -1683.598236 173.228541 
L -1675.550159 171.774805 
L -1667.502082 172.81786 
L -1659.454005 174.840321 
L -1651.405929 177.72142 
L -1643.357852 186.956819 
L -1635.309775 183.893676 
L -1627.261698 188.414163 
L -1619.213621 191.791043 
L -1611.165544 193.579972 
L -1603.117467 198.224232 
L -1595.06939 200.668688 
L -1587.021313 193.71129 
L -1578.973236 198.932232 
L -1570.925159 206.677051 
L -1562.877082 209.976754 
L -1554.829005 210.141926 
L -1546.780929 219.909487 
L -1538.732852 219.754754 
L -1530.684775 221.740309 
L -1522.636698 220.576991 
L -1514.588621 233.281073 
L -1506.540544 229.268055 
L -1498.492467 226.965077 
L -1490.44439 237.810786 
L -1482.396313 245.49955 
L -1474.348236 244.764641 
L -1466.300159 249.303111 
L -1458.252082 250.726517 
L -1450.204005 250.924001 
L -1442.155929 250.833862 
L -1434.107852 253.289465 
L -1426.059775 254.630163 
L -1418.011698 262.449887 
L -1409.963621 258.266647 
L -1401.915544 265.040997 
L -1393.867467 263.342383 
L -1385.81939 262.257844 
L -1377.771313 264.890174 
L -1369.723236 267.207983 
L -1361.675159 263.864656 
L -1353.627082 265.217429 
L -1345.579005 265.102086 
L -1337.530929 268.622 
L -1329.482852 266.513286 
L -1321.434775 265.376512 
L -1313.386698 266.160959 
L -1305.338621 267.651607 
L -1297.290544 266.420772 
L -1289.242467 264.258784 
L -1281.19439 264.87398 
L -1273.146313 261.72925 
L -1265.098236 261.576606 
L -1257.050159 265.593224 
L -1249.002082 264.826451 
L -1240.954005 261.757421 
L -1232.905929 260.574624 
L -1224.857852 260.285451 
L -1216.809775 256.944156 
L -1208.761698 256.981398 
L -1200.713621 256.323192 
L -1192.665544 255.078511 
L -1184.617467 253.660899 
L -1176.56939 251.278395 
L -1168.521313 251.584089 
L -1160.473236 249.741589 
L -1152.425159 248.784286 
L -1144.377082 247.470107 
L -1136.329005 246.84235 
L -1128.280929 244.848049 
L -1120.232852 241.805874 
L -1112.184775 241.02939 
L -1104.136698 238.455104 
L -1096.088621 235.050058 
L -1088.040544 236.469062 
L -1079.992467 232.093145 
L -1071.94439 233.103646 
L -1063.896313 231.836528 
L -1055.848236 231.58177 
L -1047.800159 228.650915 
L -1039.752082 228.002136 
L -1031.704005 227.200958 
L -1023.655929 223.751913 
L -1015.607852 224.108386 
L -1007.559775 223.463945 
L -999.511698 222.983137 
L -991.463621 221.20596 
L -983.415544 221.564266 
L -975.367467 219.780264 
L -967.31939 218.091198 
L -959.271313 215.598769 
L -951.223236 214.642141 
L -943.175159 213.943492 
L -935.127082 212.174293 
L -927.079005 212.207077 
L -919.030929 211.258754 
L -910.982852 209.696916 
L -902.934775 209.584858 
L -894.886698 207.859033 
L -886.838621 209.022933 
L -878.790544 207.793768 
L -870.742467 207.720862 
L -862.69439 205.646947 
L -854.646313 202.868734 
L -846.598236 205.034595 
L -838.550159 204.865087 
L -830.502082 203.908477 
L -822.454005 202.92768 
L -814.405929 200.996324 
L -806.357852 200.511179 
L -798.309775 199.431808 
L -790.261698 199.534032 
L -782.213621 199.10192 
L -774.165544 197.288059 
L -766.117467 194.734944 
L -758.06939 197.961242 
L -750.021313 197.145929 
L -741.973236 194.975218 
L -733.925159 196.295102 
L -725.877082 192.441545 
L -717.829005 192.869689 
L -709.780929 193.070897 
L -701.732852 190.436281 
L -693.684775 194.789056 
L -685.636698 190.310982 
L -677.588621 188.000349 
L -669.540544 190.807438 
L -661.492467 191.503182 
L -653.44439 190.003816 
L -645.396313 191.020529 
L -637.348236 188.878422 
L -629.300159 192.699407 
L -621.252082 190.557905 
L -613.204005 191.222346 
L -605.155929 188.36985 
L -597.107852 185.785685 
L -589.059775 188.678658 
L -581.011698 194.000093 
L -572.963621 187.523809 
L -564.915544 187.669523 
L -556.867467 185.116881 
L -548.81939 186.021187 
L -540.771313 185.503795 
L -532.723236 183.849719 
L -524.675159 183.110525 
L -516.627082 185.609151 
L -508.579005 184.034096 
L -500.530929 186.320913 
L -492.482852 186.624942 
L -484.434775 179.349744 
L -476.386698 182.174788 
L -468.338621 182.318579 
L -460.290544 182.73542 
L -452.242467 183.114795 
L -444.19439 187.641738 
L -436.146313 189.435968 
L -428.098236 189.215548 
L -420.050159 194.251999 
L -412.002082 202.603411 
L -403.954005 192.694074 
L -395.905929 192.614978 
L -387.857852 192.870372 
L -379.809775 196.22549 
L -371.761698 197.03896 
L -363.713621 197.075968 
L -355.665544 204.31605 
L -347.617467 207.021933 
L -339.56939 198.912936 
L -331.521313 206.355523 
L -323.473236 202.753955 
L -315.425159 200.523136 
L -307.377082 209.535009 
L -299.329005 207.771582 
L -291.280929 213.586953 
L -283.232852 211.827957 
L -275.184775 207.910241 
L -267.136698 211.536695 
L -259.088621 211.527163 
L -251.040544 215.085846 
L -242.992467 212.815352 
L -234.94439 218.675986 
L -226.896313 214.408914 
L -218.848236 217.482541 
L -210.800159 216.807079 
L -202.752082 220.19142 
L -194.704005 214.62885 
L -186.655929 220.502185 
L -178.607852 220.135191 
L -170.559775 224.135865 
L -162.511698 226.22773 
L -154.463621 226.205685 
L -146.415544 225.129713 
L -138.367467 227.70082 
L -130.31939 229.611625 
L -122.271313 227.848655 
L -114.223236 227.164619 
L -106.175159 229.411196 
L -98.127082 231.452312 
L -90.079005 227.827712 
L -82.030929 225.726321 
L -73.982852 233.915305 
L -65.934775 237.632888 
L -57.886698 229.200002 
L -49.838621 231.652667 
L -41.790544 232.871635 
L -33.742467 233.452586 
L -25.69439 237.65791 
L -17.646313 237.110546 
L -9.598236 235.381771 
L -1.550159 237.221203 
L 6.497918 237.729921 
L 14.545995 233.215937 
L 22.594071 235.526648 
L 30.642148 234.134357 
L 38.690225 240.437106 
L 46.738302 248.205923 
L 54.786379 247.166643 
L 62.834456 241.104786 
L 70.882533 240.509068 
L 78.93061 241.414246 
L 86.978687 241.786709 
L 95.026764 247.606777 
L 103.074841 240.40441 
L 111.122918 248.163574 
L 119.170995 254.427213 
L 127.219071 249.391319 
L 135.267148 257.425748 
L 143.315225 252.592577 
L 151.363302 257.037819 
L 159.411379 254.332142 
L 167.459456 256.61146 
L 175.507533 261.008803 
L 183.55561 260.879782 
L 191.603687 262.351443 
L 199.651764 262.861988 
L 207.699841 263.49048 
L 215.747918 253.315376 
L 223.795995 266.831915 
L 231.844071 272.50961 
L 239.892148 267.395407 
L 247.940225 272.436817 
L 255.988302 273.707894 
L 264.036379 271.144493 
L 272.084456 276.829012 
L 280.132533 280.721519 
L 288.18061 278.81653 
L 296.228687 280.495401 
L 304.276764 281.556076 
L 312.324841 283.136775 
L 320.372918 287.553044 
L 328.420995 279.368523 
L 336.469071 290.176931 
L 344.517148 290.73639 
L 352.565225 291.505134 
L 360.613302 285.291781 
L 368.661379 293.564645 
L 376.709456 299.179645 
L 384.757533 294.132961 
L 392.80561 295.072534 
L 400.853687 302.800083 
L 408.901764 290.251006 
L 416.949841 302.62088 
L 424.997918 295.442107 
L 433.045995 306.312843 
L 441.094071 301.725939 
L 449.142148 306.649463 
L 457.190225 308.459167 
L 465.238302 310.860959 
L 473.286379 311.895454 
L 481.334456 309.506877 
L 489.382533 309.988367 
L 497.43061 311.82225 
L 505.478687 317.047661 
L 513.526764 316.885914 
L 521.574841 317.178389 
L 529.622918 320.554056 
L 537.670995 321.221618 
L 545.719071 319.32948 
L 553.767148 320.138949 
L 561.815225 325.003367 
L 569.863302 326.109583 
L 577.911379 327.656353 
L 585.959456 324.53569 
L 594.007533 319.64499 
L 602.05561 325.899509 
L 610.103687 324.494296 
L 618.151764 326.454777 
L 626.199841 329.368896 
L 634.247918 326.510641 
L 642.295995 331.014672 
L 650.344071 328.387458 
L 658.392148 328.271993 
L 666.440225 328.359177 
L 674.488302 332.294141 
L 682.536379 331.625939 
L 690.584456 331.542525 
L 698.632533 329.126682 
L 706.68061 330.759434 
L 714.728687 331.566365 
L 722.776764 331.006882 
L 730.824841 333.582828 
L 738.872918 333.187023 
L 746.920995 334.690359 
L 754.969071 336.341921 
L 763.017148 336.343025 
L 771.065225 334.962019 
L 779.113302 335.428 
L 787.161379 334.566953 
L 795.209456 335.766551 
L 803.257533 336.035172 
L 811.30561 334.34266 
L 819.353687 336.217656 
L 827.401764 327.883669 
L 835.449841 336.005413 
L 843.497918 338.970661 
L 851.545995 335.549081 
L 859.594071 335.409099 
L 867.642148 338.327652 
L 875.690225 338.261601 
L 883.738302 335.167236 
L 891.786379 334.766409 
L 899.834456 336.509299 
L 907.882533 335.618897 
L 915.93061 339.096364 
L 923.978687 337.598547 
L 932.026764 340.259653 
L 940.074841 336.761958 
L 940.074841 284.473728 
L 940.074841 284.473728 
L 932.026764 281.116262 
L 923.978687 276.942757 
L 915.93061 281.155991 
L 907.882533 272.720314 
L 899.834456 274.84834 
L 891.786379 273.498841 
L 883.738302 264.68122 
L 875.690225 275.640359 
L 867.642148 281.409785 
L 859.594071 264.769439 
L 851.545995 271.65221 
L 843.497918 278.239711 
L 835.449841 273.507809 
L 827.401764 219.365072 
L 819.353687 271.355084 
L 811.30561 261.272846 
L 803.257533 271.500697 
L 795.209456 270.464758 
L 787.161379 266.184141 
L 779.113302 266.374366 
L 771.065225 265.116041 
L 763.017148 270.998303 
L 754.969071 271.031723 
L 746.920995 263.007144 
L 738.872918 257.671896 
L 730.824841 262.018563 
L 722.776764 254.412874 
L 714.728687 257.32736 
L 706.68061 252.871643 
L 698.632533 247.214953 
L 690.584456 255.015457 
L 682.536379 255.859533 
L 674.488302 255.871426 
L 666.440225 246.792947 
L 658.392148 244.821414 
L 650.344071 244.42742 
L 642.295995 254.930134 
L 634.247918 240.362047 
L 626.199841 250.181941 
L 618.151764 241.685479 
L 610.103687 235.290086 
L 602.05561 240.573226 
L 594.007533 217.348454 
L 585.959456 238.013055 
L 577.911379 246.545343 
L 569.863302 242.276188 
L 561.815225 240.235932 
L 553.767148 221.64932 
L 545.719071 222.167799 
L 537.670995 228.778576 
L 529.622918 228.314826 
L 521.574841 218.041552 
L 513.526764 218.643667 
L 505.478687 217.791876 
L 497.43061 207.781979 
L 489.382533 199.184418 
L 481.334456 197.370494 
L 473.286379 205.113963 
L 465.238302 202.987116 
L 457.190225 198.625685 
L 449.142148 194.16734 
L 441.094071 179.349363 
L 433.045995 194.474546 
L 424.997918 156.003638 
L 416.949841 182.275439 
L 408.901764 145.651363 
L 400.853687 185.635693 
L 392.80561 163.775293 
L 384.757533 163.506403 
L 376.709456 174.994402 
L 368.661379 161.750502 
L 360.613302 137.471185 
L 352.565225 155.461064 
L 344.517148 155.227812 
L 336.469071 154.637552 
L 328.420995 126.308714 
L 320.372918 140.570359 
L 312.324841 137.3093 
L 304.276764 135.459641 
L 296.228687 132.464487 
L 288.18061 126.647479 
L 280.132533 132.621685 
L 272.084456 122.269577 
L 264.036379 109.299205 
L 255.988302 120.287103 
L 247.940225 111.813243 
L 239.892148 104.266275 
L 231.844071 116.905518 
L 223.795995 103.41783 
L 215.747918 68.583947 
L 207.699841 94.253078 
L 199.651764 93.36113 
L 191.603687 93.546102 
L 183.55561 90.555153 
L 175.507533 90.823981 
L 167.459456 81.430848 
L 159.411379 77.639403 
L 151.363302 85.134178 
L 143.315225 71.45013 
L 135.267148 85.777757 
L 127.219071 66.737751 
L 119.170995 77.97023 
L 111.122918 65.373902 
L 103.074841 49.733546 
L 95.026764 64.507743 
L 86.978687 50.843887 
L 78.93061 52.03471 
L 70.882533 51.67762 
L 62.834456 53.284173 
L 54.786379 66.666321 
L 46.738302 70.052704 
L 38.690225 54.600754 
L 30.642148 38.785721 
L 22.594071 43.629351 
L 14.545995 40.714349 
L 6.497918 51.180281 
L -1.550159 50.490961 
L -9.598236 46.797352 
L -17.646313 52.451738 
L -25.69439 52.435579 
L -33.742467 44.667139 
L -41.790544 46.091147 
L -49.838621 43.365955 
L -57.886698 39.916892 
L -65.934775 58.85111 
L -73.982852 48.914138 
L -82.030929 35.16693 
L -90.079005 42.479089 
L -98.127082 49.078052 
L -106.175159 45.563669 
L -114.223236 42.989768 
L -122.271313 45.934419 
L -130.31939 52.893544 
L -138.367467 46.462429 
L -146.415544 44.444925 
L -154.463621 47.843058 
L -162.511698 44.037366 
L -170.559775 46.001074 
L -178.607852 37.796201 
L -186.655929 41.552432 
L -194.704005 31.433269 
L -202.752082 41.220152 
L -210.800159 37.47145 
L -218.848236 40.625004 
L -226.896313 38.283349 
L -234.94439 44.478102 
L -242.992467 35.479579 
L -251.040544 42.07089 
L -259.088621 36.600356 
L -267.136698 38.332082 
L -275.184775 34.162112 
L -283.232852 37.210355 
L -291.280929 44.555688 
L -299.329005 38.523134 
L -307.377082 40.661372 
L -315.425159 28.261883 
L -323.473236 34.773177 
L -331.521313 38.33776 
L -339.56939 28.911733 
L -347.617467 40.564052 
L -355.665544 41.978051 
L -363.713621 29.940197 
L -371.761698 30.74022 
L -379.809775 30.44575 
L -387.857852 26.522015 
L -395.905929 30.282432 
L -403.954005 29.80424 
L -412.002082 45.269164 
L -420.050159 35.779422 
L -428.098236 28.988585 
L -436.146313 29.956408 
L -444.19439 28.550153 
L -452.242467 24.84 
L -460.290544 27.321907 
L -468.338621 25.158547 
L -476.386698 29.517339 
L -484.434775 26.020218 
L -492.482852 35.402065 
L -500.530929 37.507406 
L -508.579005 36.559754 
L -516.627082 39.431608 
L -524.675159 37.234759 
L -532.723236 40.744549 
L -540.771313 43.210219 
L -548.81939 48.161764 
L -556.867467 46.000148 
L -564.915544 51.409487 
L -572.963621 51.515232 
L -581.011698 60.716501 
L -589.059775 56.116866 
L -597.107852 54.095489 
L -605.155929 58.528496 
L -613.204005 61.016027 
L -621.252082 62.012542 
L -629.300159 67.617859 
L -637.348236 64.331724 
L -645.396313 68.330048 
L -653.44439 67.575949 
L -661.492467 69.099845 
L -669.540544 68.472858 
L -677.588621 67.19242 
L -685.636698 71.717847 
L -693.684775 77.491297 
L -701.732852 73.003612 
L -709.780929 76.643795 
L -717.829005 76.023065 
L -725.877082 78.377985 
L -733.925159 82.949963 
L -741.973236 82.27581 
L -750.021313 86.098275 
L -758.06939 87.584066 
L -766.117467 84.659955 
L -774.165544 87.407039 
L -782.213621 90.393659 
L -790.261698 91.883563 
L -798.309775 92.432886 
L -806.357852 94.743708 
L -814.405929 95.130135 
L -822.454005 98.248495 
L -830.502082 99.588214 
L -838.550159 100.80034 
L -846.598236 102.011304 
L -854.646313 98.282751 
L -862.69439 103.792125 
L -870.742467 106.394201 
L -878.790544 106.510069 
L -886.838621 107.330279 
L -894.886698 108.027192 
L -902.934775 110.107235 
L -910.982852 110.315582 
L -919.030929 113.111563 
L -927.079005 114.530871 
L -935.127082 114.707016 
L -943.175159 116.170871 
L -951.223236 117.917328 
L -959.271313 119.711782 
L -967.31939 124.102311 
L -975.367467 125.692793 
L -983.415544 128.217753 
L -991.463621 128.069093 
L -999.511698 130.556763 
L -1007.559775 131.512712 
L -1015.607852 132.846424 
L -1023.655929 131.804601 
L -1031.704005 137.822582 
L -1039.752082 139.144965 
L -1047.800159 140.375676 
L -1055.848236 144.385466 
L -1063.896313 145.097156 
L -1071.94439 147.332493 
L -1079.992467 146.729252 
L -1088.040544 151.967476 
L -1096.088621 151.706074 
L -1104.136698 156.813144 
L -1112.184775 160.744173 
L -1120.232852 162.613299 
L -1128.280929 167.299727 
L -1136.329005 171.188646 
L -1144.377082 172.121977 
L -1152.425159 174.909604 
L -1160.473236 176.44184 
L -1168.521313 179.758422 
L -1176.56939 180.114429 
L -1184.617467 184.308405 
L -1192.665544 187.683966 
L -1200.713621 190.073623 
L -1208.761698 191.878552 
L -1216.809775 193.492431 
L -1224.857852 197.85711 
L -1232.905929 199.583422 
L -1240.954005 202.600356 
L -1249.002082 206.600724 
L -1257.050159 208.455224 
L -1265.098236 206.509727 
L -1273.146313 208.141156 
L -1281.19439 212.3339 
L -1289.242467 213.437671 
L -1297.290544 216.487769 
L -1305.338621 218.886525 
L -1313.386698 218.531579 
L -1321.434775 220.031671 
L -1329.482852 221.94996 
L -1337.530929 224.953328 
L -1345.579005 222.644372 
L -1353.627082 224.206192 
L -1361.675159 224.519903 
L -1369.723236 228.440993 
L -1377.771313 228.157441 
L -1385.81939 226.641305 
L -1393.867467 228.686355 
L -1401.915544 230.964056 
L -1409.963621 226.12124 
L -1418.011698 230.992378 
L -1426.059775 225.320164 
L -1434.107852 225.092081 
L -1442.155929 224.063272 
L -1450.204005 225.387343 
L -1458.252082 226.088234 
L -1466.300159 226.518314 
L -1474.348236 223.517449 
L -1482.396313 226.122712 
L -1490.44439 219.019452 
L -1498.492467 211.2091 
L -1506.540544 213.516034 
L -1514.588621 217.413267 
L -1522.636698 208.135882 
L -1530.684775 209.149202 
L -1538.732852 207.189916 
L -1546.780929 206.971181 
L -1554.829005 193.677515 
L -1562.877082 192.206526 
L -1570.925159 187.487542 
L -1578.973236 176.949478 
L -1587.021313 168.80113 
L -1595.06939 177.618327 
L -1603.117467 173.432058 
L -1611.165544 166.33223 
L -1619.213621 163.499744 
L -1627.261698 158.495809 
L -1635.309775 151.856901 
L -1643.357852 154.798078 
L -1651.405929 142.940794 
L -1659.454005 137.106199 
L -1667.502082 134.581427 
L -1675.550159 132.503131 
L -1683.598236 134.017604 
L -1691.646313 131.365211 
L -1699.69439 134.209305 
L -1707.742467 137.911049 
L -1715.790544 132.713702 
L -1723.838621 132.684649 
L -1731.886698 138.647292 
L -1739.934775 140.474754 
L -1747.982852 139.04541 
L -1756.030929 150.818378 
L -1764.079005 143.777468 
L -1772.127082 147.183733 
L -1780.175159 156.396217 
L -1788.223236 154.860034 
L -1796.271313 158.791633 
L -1804.31939 162.420628 
L -1812.367467 166.550052 
L -1820.415544 170.536251 
L -1828.463621 174.948261 
L -1836.511698 179.104948 
L -1844.559775 182.67833 
L -1852.607852 187.823791 
L -1860.655929 189.767168 
L -1868.704005 197.439271 
L -1876.752082 198.660834 
L -1884.800159 202.981374 
L -1892.848236 207.866709 
L -1900.896313 211.751802 
L -1908.94439 216.472551 
L -1916.992467 220.11772 
L -1925.040544 225.206954 
L -1933.088621 228.651685 
L -1941.136698 232.811852 
L -1949.184775 237.17669 
L -1957.232852 241.699014 
L -1965.280929 244.898166 
L -1973.329005 249.351992 
L -1981.377082 252.473858 
L -1989.425159 256.986787 
L -1997.473236 260.582164 
L -2005.521313 264.435145 
L -2013.56939 268.178003 
L -2021.617467 271.735538 
L -2029.665544 274.90917 
L -2037.713621 278.752389 
L -2045.761698 281.155706 
L -2053.809775 285.515367 
L -2061.857852 288.79059 
L -2069.905929 291.620082 
L -2077.954005 294.981345 
L -2086.002082 297.865601 
L -2094.050159 300.397765 
L -2102.098236 303.577846 
L -2110.146313 306.919902 
L -2118.19439 309.625473 
L -2126.242467 312.160145 
L -2134.290544 315.164302 
L -2142.338621 317.562515 
L -2150.386698 320.312681 
L -2158.434775 322.644686 
L -2166.482852 325.171963 
L -2174.530929 327.138446 
L -2182.579005 329.84218 
L -2190.627082 331.778374 
L -2198.675159 334.083063 
L -2206.723236 336.702035 
L -2214.771313 338.697274 
L -2222.81939 339.653006 
L -2230.867467 341.756493 
L -2238.915544 342.985242 
L -2246.963621 344.941151 
L -2255.011698 347.321339 
L -2263.059775 348.585691 
L -2271.107852 349.771425 
L -2279.155929 350.447752 
L -2287.204005 351.615474 
L -2295.252082 352.578788 
L -2303.300159 353.571916 
L -2311.348236 355.13677 
L -2319.396313 356.187031 
L -2327.44439 357.384186 
L -2335.492467 357.203349 
L -2343.540544 358.133697 
L -2351.588621 357.458065 
L -2359.636698 358.963146 
L -2367.684775 359.609788 
L -2375.732852 360.427931 
L -2383.780929 358.430066 
L -2391.829005 361.266396 
L -2399.877082 361.218861 
L -2407.925159 359.880699 
L -2415.973236 359.582271 
L -2424.021313 361.039427 
L -2432.06939 363.341152 
L -2440.117467 362.585102 
L -2448.165544 362.613686 
L -2456.213621 360.380248 
L -2464.261698 360.816066 
L -2472.309775 361.03773 
L -2480.357852 362.34142 
L -2488.405929 361.878005 
L -2496.454005 361.563426 
L -2504.502082 361.703721 
L -2512.550159 362.443569 
L -2520.598236 362.351778 
L -2528.646313 362.633405 
L -2536.69439 363.378111 
L -2544.742467 362.708878 
L -2552.790544 363.867064 
L -2560.838621 363.940485 
L -2568.886698 363.986789 
L -2576.934775 364.731674 
L -2584.982852 364.851108 
L -2593.030929 365.525248 
L -2601.079005 366.334597 
L -2609.127082 366.248608 
L -2617.175159 365.695689 
L -2625.223236 365.519251 
L -2633.271313 367.256552 
L -2641.31939 366.755547 
L -2649.367467 367.95549 
L -2657.415544 367.879407 
L -2665.463621 367.049544 
L -2673.511698 368.555375 
L -2681.559775 366.890552 
L -2689.607852 366.706701 
L -2697.655929 368.429813 
L -2705.704005 366.689163 
L -2713.752082 368.256538 
L -2721.800159 368.755189 
L -2729.848236 366.775705 
L -2737.896313 361.061424 
L -2745.94439 364.225261 
L -2753.992467 362.382189 
L -2762.040544 353.411973 
L -2770.088621 360.503666 
L -2778.136698 361.565684 
L -2786.184775 353.330402 
L -2794.232852 351.031578 
L -2802.280929 354.683543 
L -2810.329005 345.972968 
L -2818.377082 331.497083 
L -2826.425159 346.857949 
L -2834.473236 352.959048 
L -2842.521313 355.625848 
L -2850.56939 335.503379 
L -2858.617467 336.004429 
L -2866.665544 326.11563 
L -2874.713621 318.515699 
L -2882.761698 332.9836 
L -2890.809775 326.223921 
L -2898.857852 312.751602 
L -2906.905929 303.260965 
L -2914.954005 303.412894 
L -2923.002082 304.561226 
L -2931.050159 302.206406 
L -2939.098236 300.624059 
L -2947.146313 305.322662 
L -2955.19439 304.266224 
L -2963.242467 300.410127 
L -2971.290544 301.996597 
L -2979.338621 300.121919 
L -2987.386698 299.104307 
L -2995.434775 298.73318 
L -3003.482852 300.312173 
L -3011.530929 301.037914 
L -3019.579005 301.273481 
L -3027.627082 302.543234 
L -3035.675159 302.898891 
L -3043.723236 303.863648 
L -3051.771313 305.688853 
L -3059.81939 306.988691 
L -3067.867467 307.788371 
L -3075.915544 308.718572 
L -3083.963621 310.115873 
L -3092.011698 310.844794 
L -3100.059775 312.190886 
L -3108.107852 313.910235 
L -3116.155929 314.839586 
L -3124.204005 315.325274 
L -3132.252082 316.289625 
L -3140.300159 317.280004 
L -3148.348236 318.202712 
L -3156.396313 319.083562 
L -3164.44439 319.927213 
L -3172.492467 321.205724 
L -3180.540544 321.740042 
L -3188.588621 322.638099 
L -3196.636698 323.585065 
L -3204.684775 324.372842 
L -3212.732852 325.128459 
L -3220.780929 325.726586 
L -3228.829005 326.391629 
L -3236.877082 327.386508 
L -3244.925159 328.01151 
L -3252.973236 328.788743 
L -3261.021313 329.382742 
L -3269.06939 330.089835 
L -3277.117467 330.818707 
L -3285.165544 331.558577 
L -3293.213621 332.166314 
L -3301.261698 332.911404 
L -3309.309775 333.558829 
L -3317.357852 334.261745 
L -3325.405929 334.906831 
L -3333.454005 335.589118 
L -3341.502082 336.212197 
L -3349.550159 336.890217 
L -3357.598236 337.630329 
L -3365.646313 338.174468 
L -3373.69439 338.879488 
L -3381.742467 339.477225 
L -3389.790544 340.185306 
L -3397.838621 340.683024 
L -3405.886698 341.339243 
L -3413.934775 341.962202 
L -3421.982852 342.552808 
L -3430.030929 343.156096 
L -3438.079005 343.709215 
L -3446.127082 344.366778 
L -3454.175159 344.951079 
L -3462.223236 345.419019 
L -3470.271313 345.987837 
L -3478.31939 346.554407 
L -3486.367467 347.116127 
L -3494.415544 347.653333 
L -3502.463621 348.146391 
L -3510.511698 348.694744 
L -3518.559775 349.227724 
L -3526.607852 349.760744 
L -3534.655929 350.288331 
L -3542.704005 350.8294 
L -3550.752082 351.392287 
L -3558.800159 351.859935 
L -3566.848236 352.407268 
L -3574.896313 352.939005 
L -3582.94439 353.442081 
L -3590.992467 353.961933 
L -3599.040544 354.492154 
L -3607.088621 355.000491 
L -3615.136698 355.537616 
L -3623.184775 356.014184 
L -3631.232852 356.500587 
L -3639.280929 357.019811 
L -3647.329005 357.514486 
L -3655.377082 357.97463 
L -3663.425159 358.467282 
L -3671.473236 358.90233 
L -3679.521313 359.374697 
L -3687.56939 359.884674 
L -3695.617467 360.298499 
L -3703.665544 360.776972 
L -3711.713621 361.218903 
L -3719.761698 361.687343 
L -3727.809775 362.093528 
L -3735.857852 362.593719 
L -3743.905929 362.977403 
L -3751.954005 363.426683 
L -3760.002082 363.8612 
L -3768.050159 364.31023 
L -3776.098236 364.727911 
L -3784.146313 365.152327 
L -3792.19439 365.544544 
L -3800.242467 365.961701 
L -3808.290544 366.338259 
L -3816.338621 366.691508 
L -3824.386698 367.059217 
L -3832.434775 367.433392 
L -3840.482852 367.792099 
L -3848.530929 368.163102 
L -3856.579005 368.531071 
L -3864.627082 368.87868 
L -3872.675159 369.235947 
L -3880.723236 369.594357 
L -3888.771313 369.910965 
L -3896.81939 370.239666 
L -3904.867467 370.593101 
L -3912.915544 370.92518 
L -3920.963621 371.212944 
L -3929.011698 371.548 
L -3937.059775 371.848502 
L -3945.107852 372.12119 
L -3953.155929 372.3992 
L -3961.204005 372.657247 
L -3969.252082 372.948514 
L -3977.300159 373.177138 
L -3985.348236 373.428686 
L -3993.396313 373.664922 
L -4001.44439 373.882172 
L -4009.492467 374.07737 
L -4017.540544 374.252003 
L -4025.588621 374.428861 
L -4033.636698 374.607133 
L -4041.684775 374.747126 
L -4049.732852 374.913801 
L -4057.780929 375.049028 
L -4065.829005 375.16071 
L -4073.877082 375.303185 
L -4081.925159 375.423912 
L -4089.973236 375.517734 
L -4098.021313 375.623668 
L -4106.06939 375.727114 
L -4114.117467 375.814484 
L -4122.165544 375.903717 
L -4130.213621 375.971961 
L -4138.261698 376.063473 
L -4146.309775 376.129675 
L -4154.357852 376.202061 
L -4162.405929 376.280601 
L -4170.454005 376.339097 
L -4178.502082 376.403827 
L -4186.550159 376.499368 
L -4194.598236 376.557957 
L -4202.646313 376.637545 
L -4210.69439 376.694678 
L -4218.742467 376.781601 
L -4226.790544 376.844805 
L -4234.838621 376.914062 
L -4242.886698 376.971939 
L -4250.934775 377.023187 
L -4258.982852 377.087069 
L -4267.030929 377.162708 
L -4275.079005 377.238026 
L -4283.127082 377.301197 
L -4291.175159 377.347221 
L -4299.223236 377.426801 
L -4307.271313 377.487086 
L -4315.31939 377.564694 
z
" clip-path="url(#peddb8a5b11)" style="fill: #008000; fill-opacity: 0.3; stroke: #008000; stroke-opacity: 0.3"/>
   </g>
   <g id="matplotlib.axis_1">
    <g id="xtick_1">
     <g id="line2d_1">
      <defs>
       <path id="mbdea2bf3f2" d="M 0 0 
L 0 3.5 
" style="stroke: #000000; stroke-width: 0.8"/>
      </defs>
      <g>
       <use xlink:href="#mbdea2bf3f2" x="103.074841" y="395.28" style="stroke: #000000; stroke-width: 0.8"/>
      </g>
     </g>
     <g id="text_1">
      <!-- 2023-01-01 -->
      <g transform="translate(17.945813 495.213718) rotate(-45) scale(0.2 -0.2)">
       <defs>
        <path id="DejaVuSans-32" d="M 1228 531 
L 3431 531 
L 3431 0 
L 469 0 
L 469 531 
Q 828 903 1448 1529 
Q 2069 2156 2228 2338 
Q 2531 2678 2651 2914 
Q 2772 3150 2772 3378 
Q 2772 3750 2511 3984 
Q 2250 4219 1831 4219 
Q 1534 4219 1204 4116 
Q 875 4013 500 3803 
L 500 4441 
Q 881 4594 1212 4672 
Q 1544 4750 1819 4750 
Q 2544 4750 2975 4387 
Q 3406 4025 3406 3419 
Q 3406 3131 3298 2873 
Q 3191 2616 2906 2266 
Q 2828 2175 2409 1742 
Q 1991 1309 1228 531 
z
" transform="scale(0.015625)"/>
        <path id="DejaVuSans-30" d="M 2034 4250 
Q 1547 4250 1301 3770 
Q 1056 3291 1056 2328 
Q 1056 1369 1301 889 
Q 1547 409 2034 409 
Q 2525 409 2770 889 
Q 3016 1369 3016 2328 
Q 3016 3291 2770 3770 
Q 2525 4250 2034 4250 
z
M 2034 4750 
Q 2819 4750 3233 4129 
Q 3647 3509 3647 2328 
Q 3647 1150 3233 529 
Q 2819 -91 2034 -91 
Q 1250 -91 836 529 
Q 422 1150 422 2328 
Q 422 3509 836 4129 
Q 1250 4750 2034 4750 
z
" transform="scale(0.015625)"/>
        <path id="DejaVuSans-33" d="M 2597 2516 
Q 3050 2419 3304 2112 
Q 3559 1806 3559 1356 
Q 3559 666 3084 287 
Q 2609 -91 1734 -91 
Q 1441 -91 1130 -33 
Q 819 25 488 141 
L 488 750 
Q 750 597 1062 519 
Q 1375 441 1716 441 
Q 2309 441 2620 675 
Q 2931 909 2931 1356 
Q 2931 1769 2642 2001 
Q 2353 2234 1838 2234 
L 1294 2234 
L 1294 2753 
L 1863 2753 
Q 2328 2753 2575 2939 
Q 2822 3125 2822 3475 
Q 2822 3834 2567 4026 
Q 2313 4219 1838 4219 
Q 1578 4219 1281 4162 
Q 984 4106 628 3988 
L 628 4550 
Q 988 4650 1302 4700 
Q 1616 4750 1894 4750 
Q 2613 4750 3031 4423 
Q 3450 4097 3450 3541 
Q 3450 3153 3228 2886 
Q 3006 2619 2597 2516 
z
" transform="scale(0.015625)"/>
        <path id="DejaVuSans-2d" d="M 313 2009 
L 1997 2009 
L 1997 1497 
L 313 1497 
L 313 2009 
z
" transform="scale(0.015625)"/>
        <path id="DejaVuSans-31" d="M 794 531 
L 1825 531 
L 1825 4091 
L 703 3866 
L 703 4441 
L 1819 4666 
L 2450 4666 
L 2450 531 
L 3481 531 
L 3481 0 
L 794 0 
L 794 531 
z
" transform="scale(0.015625)"/>
       </defs>
       <use xlink:href="#DejaVuSans-32"/>
       <use xlink:href="#DejaVuSans-30" x="63.623047"/>
       <use xlink:href="#DejaVuSans-32" x="127.246094"/>
       <use xlink:href="#DejaVuSans-33" x="190.869141"/>
       <use xlink:href="#DejaVuSans-2d" x="254.492188"/>
       <use xlink:href="#DejaVuSans-30" x="290.576172"/>
       <use xlink:href="#DejaVuSans-31" x="354.199219"/>
       <use xlink:href="#DejaVuSans-2d" x="417.822266"/>
       <use xlink:href="#DejaVuSans-30" x="453.90625"/>
       <use xlink:href="#DejaVuSans-31" x="517.529297"/>
      </g>
     </g>
    </g>
    <g id="xtick_2">
     <g id="line2d_2">
      <g>
       <use xlink:href="#mbdea2bf3f2" x="215.747918" y="395.28" style="stroke: #000000; stroke-width: 0.8"/>
      </g>
     </g>
     <g id="text_2">
      <!-- 2023-01-15 -->
      <g transform="translate(130.61889 495.213718) rotate(-45) scale(0.2 -0.2)">
       <defs>
        <path id="DejaVuSans-35" d="M 691 4666 
L 3169 4666 
L 3169 4134 
L 1269 4134 
L 1269 2991 
Q 1406 3038 1543 3061 
Q 1681 3084 1819 3084 
Q 2600 3084 3056 2656 
Q 3513 2228 3513 1497 
Q 3513 744 3044 326 
Q 2575 -91 1722 -91 
Q 1428 -91 1123 -41 
Q 819 9 494 109 
L 494 744 
Q 775 591 1075 516 
Q 1375 441 1709 441 
Q 2250 441 2565 725 
Q 2881 1009 2881 1497 
Q 2881 1984 2565 2268 
Q 2250 2553 1709 2553 
Q 1456 2553 1204 2497 
Q 953 2441 691 2322 
L 691 4666 
z
" transform="scale(0.015625)"/>
       </defs>
       <use xlink:href="#DejaVuSans-32"/>
       <use xlink:href="#DejaVuSans-30" x="63.623047"/>
       <use xlink:href="#DejaVuSans-32" x="127.246094"/>
       <use xlink:href="#DejaVuSans-33" x="190.869141"/>
       <use xlink:href="#DejaVuSans-2d" x="254.492188"/>
       <use xlink:href="#DejaVuSans-30" x="290.576172"/>
       <use xlink:href="#DejaVuSans-31" x="354.199219"/>
       <use xlink:href="#DejaVuSans-2d" x="417.822266"/>
       <use xlink:href="#DejaVuSans-31" x="453.90625"/>
       <use xlink:href="#DejaVuSans-35" x="517.529297"/>
      </g>
     </g>
    </g>
    <g id="xtick_3">
     <g id="line2d_3">
      <g>
       <use xlink:href="#mbdea2bf3f2" x="328.420995" y="395.28" style="stroke: #000000; stroke-width: 0.8"/>
      </g>
     </g>
     <g id="text_3">
      <!-- 2023-01-29 -->
      <g transform="translate(243.291967 495.213718) rotate(-45) scale(0.2 -0.2)">
       <defs>
        <path id="DejaVuSans-39" d="M 703 97 
L 703 672 
Q 941 559 1184 500 
Q 1428 441 1663 441 
Q 2288 441 2617 861 
Q 2947 1281 2994 2138 
Q 2813 1869 2534 1725 
Q 2256 1581 1919 1581 
Q 1219 1581 811 2004 
Q 403 2428 403 3163 
Q 403 3881 828 4315 
Q 1253 4750 1959 4750 
Q 2769 4750 3195 4129 
Q 3622 3509 3622 2328 
Q 3622 1225 3098 567 
Q 2575 -91 1691 -91 
Q 1453 -91 1209 -44 
Q 966 3 703 97 
z
M 1959 2075 
Q 2384 2075 2632 2365 
Q 2881 2656 2881 3163 
Q 2881 3666 2632 3958 
Q 2384 4250 1959 4250 
Q 1534 4250 1286 3958 
Q 1038 3666 1038 3163 
Q 1038 2656 1286 2365 
Q 1534 2075 1959 2075 
z
" transform="scale(0.015625)"/>
       </defs>
       <use xlink:href="#DejaVuSans-32"/>
       <use xlink:href="#DejaVuSans-30" x="63.623047"/>
       <use xlink:href="#DejaVuSans-32" x="127.246094"/>
       <use xlink:href="#DejaVuSans-33" x="190.869141"/>
       <use xlink:href="#DejaVuSans-2d" x="254.492188"/>
       <use xlink:href="#DejaVuSans-30" x="290.576172"/>
       <use xlink:href="#DejaVuSans-31" x="354.199219"/>
       <use xlink:href="#DejaVuSans-2d" x="417.822266"/>
       <use xlink:href="#DejaVuSans-32" x="453.90625"/>
       <use xlink:href="#DejaVuSans-39" x="517.529297"/>
      </g>
     </g>
    </g>
    <g id="xtick_4">
     <g id="line2d_4">
      <g>
       <use xlink:href="#mbdea2bf3f2" x="441.094071" y="395.28" style="stroke: #000000; stroke-width: 0.8"/>
      </g>
     </g>
     <g id="text_4">
      <!-- 2023-02-12 -->
      <g transform="translate(355.965044 495.213718) rotate(-45) scale(0.2 -0.2)">
       <use xlink:href="#DejaVuSans-32"/>
       <use xlink:href="#DejaVuSans-30" x="63.623047"/>
       <use xlink:href="#DejaVuSans-32" x="127.246094"/>
       <use xlink:href="#DejaVuSans-33" x="190.869141"/>
       <use xlink:href="#DejaVuSans-2d" x="254.492188"/>
       <use xlink:href="#DejaVuSans-30" x="290.576172"/>
       <use xlink:href="#DejaVuSans-32" x="354.199219"/>
       <use xlink:href="#DejaVuSans-2d" x="417.822266"/>
       <use xlink:href="#DejaVuSans-31" x="453.90625"/>
       <use xlink:href="#DejaVuSans-32" x="517.529297"/>
      </g>
     </g>
    </g>
    <g id="xtick_5">
     <g id="line2d_5">
      <g>
       <use xlink:href="#mbdea2bf3f2" x="553.767148" y="395.28" style="stroke: #000000; stroke-width: 0.8"/>
      </g>
     </g>
     <g id="text_5">
      <!-- 2023-02-26 -->
      <g transform="translate(468.638121 495.213718) rotate(-45) scale(0.2 -0.2)">
       <defs>
        <path id="DejaVuSans-36" d="M 2113 2584 
Q 1688 2584 1439 2293 
Q 1191 2003 1191 1497 
Q 1191 994 1439 701 
Q 1688 409 2113 409 
Q 2538 409 2786 701 
Q 3034 994 3034 1497 
Q 3034 2003 2786 2293 
Q 2538 2584 2113 2584 
z
M 3366 4563 
L 3366 3988 
Q 3128 4100 2886 4159 
Q 2644 4219 2406 4219 
Q 1781 4219 1451 3797 
Q 1122 3375 1075 2522 
Q 1259 2794 1537 2939 
Q 1816 3084 2150 3084 
Q 2853 3084 3261 2657 
Q 3669 2231 3669 1497 
Q 3669 778 3244 343 
Q 2819 -91 2113 -91 
Q 1303 -91 875 529 
Q 447 1150 447 2328 
Q 447 3434 972 4092 
Q 1497 4750 2381 4750 
Q 2619 4750 2861 4703 
Q 3103 4656 3366 4563 
z
" transform="scale(0.015625)"/>
       </defs>
       <use xlink:href="#DejaVuSans-32"/>
       <use xlink:href="#DejaVuSans-30" x="63.623047"/>
       <use xlink:href="#DejaVuSans-32" x="127.246094"/>
       <use xlink:href="#DejaVuSans-33" x="190.869141"/>
       <use xlink:href="#DejaVuSans-2d" x="254.492188"/>
       <use xlink:href="#DejaVuSans-30" x="290.576172"/>
       <use xlink:href="#DejaVuSans-32" x="354.199219"/>
       <use xlink:href="#DejaVuSans-2d" x="417.822266"/>
       <use xlink:href="#DejaVuSans-32" x="453.90625"/>
       <use xlink:href="#DejaVuSans-36" x="517.529297"/>
      </g>
     </g>
    </g>
    <g id="xtick_6">
     <g id="line2d_6">
      <g>
       <use xlink:href="#mbdea2bf3f2" x="666.440225" y="395.28" style="stroke: #000000; stroke-width: 0.8"/>
      </g>
     </g>
     <g id="text_6">
      <!-- 2023-03-12 -->
      <g transform="translate(581.311198 495.213718) rotate(-45) scale(0.2 -0.2)">
       <use xlink:href="#DejaVuSans-32"/>
       <use xlink:href="#DejaVuSans-30" x="63.623047"/>
       <use xlink:href="#DejaVuSans-32" x="127.246094"/>
       <use xlink:href="#DejaVuSans-33" x="190.869141"/>
       <use xlink:href="#DejaVuSans-2d" x="254.492188"/>
       <use xlink:href="#DejaVuSans-30" x="290.576172"/>
       <use xlink:href="#DejaVuSans-33" x="354.199219"/>
       <use xlink:href="#DejaVuSans-2d" x="417.822266"/>
       <use xlink:href="#DejaVuSans-31" x="453.90625"/>
       <use xlink:href="#DejaVuSans-32" x="517.529297"/>
      </g>
     </g>
    </g>
    <g id="xtick_7">
     <g id="line2d_7">
      <g>
       <use xlink:href="#mbdea2bf3f2" x="779.113302" y="395.28" style="stroke: #000000; stroke-width: 0.8"/>
      </g>
     </g>
     <g id="text_7">
      <!-- 2023-03-26 -->
      <g transform="translate(693.984275 495.213718) rotate(-45) scale(0.2 -0.2)">
       <use xlink:href="#DejaVuSans-32"/>
       <use xlink:href="#DejaVuSans-30" x="63.623047"/>
       <use xlink:href="#DejaVuSans-32" x="127.246094"/>
       <use xlink:href="#DejaVuSans-33" x="190.869141"/>
       <use xlink:href="#DejaVuSans-2d" x="254.492188"/>
       <use xlink:href="#DejaVuSans-30" x="290.576172"/>
       <use xlink:href="#DejaVuSans-33" x="354.199219"/>
       <use xlink:href="#DejaVuSans-2d" x="417.822266"/>
       <use xlink:href="#DejaVuSans-32" x="453.90625"/>
       <use xlink:href="#DejaVuSans-36" x="517.529297"/>
      </g>
     </g>
    </g>
    <g id="xtick_8">
     <g id="line2d_8">
      <g>
       <use xlink:href="#mbdea2bf3f2" x="891.786379" y="395.28" style="stroke: #000000; stroke-width: 0.8"/>
      </g>
     </g>
     <g id="text_8">
      <!-- 2023-04-09 -->
      <g transform="translate(806.657352 495.213718) rotate(-45) scale(0.2 -0.2)">
       <defs>
        <path id="DejaVuSans-34" d="M 2419 4116 
L 825 1625 
L 2419 1625 
L 2419 4116 
z
M 2253 4666 
L 3047 4666 
L 3047 1625 
L 3713 1625 
L 3713 1100 
L 3047 1100 
L 3047 0 
L 2419 0 
L 2419 1100 
L 313 1100 
L 313 1709 
L 2253 4666 
z
" transform="scale(0.015625)"/>
       </defs>
       <use xlink:href="#DejaVuSans-32"/>
       <use xlink:href="#DejaVuSans-30" x="63.623047"/>
       <use xlink:href="#DejaVuSans-32" x="127.246094"/>
       <use xlink:href="#DejaVuSans-33" x="190.869141"/>
       <use xlink:href="#DejaVuSans-2d" x="254.492188"/>
       <use xlink:href="#DejaVuSans-30" x="290.576172"/>
       <use xlink:href="#DejaVuSans-34" x="354.199219"/>
       <use xlink:href="#DejaVuSans-2d" x="417.822266"/>
       <use xlink:href="#DejaVuSans-30" x="453.90625"/>
       <use xlink:href="#DejaVuSans-39" x="517.529297"/>
      </g>
     </g>
    </g>
    <g id="xtick_9">
     <g id="line2d_9">
      <g>
       <use xlink:href="#mbdea2bf3f2" x="940.074841" y="395.28" style="stroke: #000000; stroke-width: 0.8"/>
      </g>
     </g>
     <g id="text_9">
      <!-- 2023-04-15 -->
      <g transform="translate(854.945813 495.213718) rotate(-45) scale(0.2 -0.2)">
       <use xlink:href="#DejaVuSans-32"/>
       <use xlink:href="#DejaVuSans-30" x="63.623047"/>
       <use xlink:href="#DejaVuSans-32" x="127.246094"/>
       <use xlink:href="#DejaVuSans-33" x="190.869141"/>
       <use xlink:href="#DejaVuSans-2d" x="254.492188"/>
       <use xlink:href="#DejaVuSans-30" x="290.576172"/>
       <use xlink:href="#DejaVuSans-34" x="354.199219"/>
       <use xlink:href="#DejaVuSans-2d" x="417.822266"/>
       <use xlink:href="#DejaVuSans-31" x="453.90625"/>
       <use xlink:href="#DejaVuSans-35" x="517.529297"/>
      </g>
     </g>
    </g>
   </g>
   <g id="matplotlib.axis_2">
    <g id="ytick_1">
     <g id="line2d_10">
      <defs>
       <path id="m2714721a7b" d="M 0 0 
L -3.5 0 
" style="stroke: #000000; stroke-width: 0.8"/>
      </defs>
      <g>
       <use xlink:href="#m2714721a7b" x="103.074841" y="377.64" style="stroke: #000000; stroke-width: 0.8"/>
      </g>
     </g>
     <g id="text_10">
      <!-- 0.00 -->
      <g transform="translate(51.543591 385.238437) scale(0.2 -0.2)">
       <defs>
        <path id="DejaVuSans-2e" d="M 684 794 
L 1344 794 
L 1344 0 
L 684 0 
L 684 794 
z
" transform="scale(0.015625)"/>
       </defs>
       <use xlink:href="#DejaVuSans-30"/>
       <use xlink:href="#DejaVuSans-2e" x="63.623047"/>
       <use xlink:href="#DejaVuSans-30" x="95.410156"/>
       <use xlink:href="#DejaVuSans-30" x="159.033203"/>
      </g>
     </g>
    </g>
    <g id="ytick_2">
     <g id="line2d_11">
      <g>
       <use xlink:href="#m2714721a7b" x="103.074841" y="310.096761" style="stroke: #000000; stroke-width: 0.8"/>
      </g>
     </g>
     <g id="text_11">
      <!-- 0.05 -->
      <g transform="translate(51.543591 317.695199) scale(0.2 -0.2)">
       <use xlink:href="#DejaVuSans-30"/>
       <use xlink:href="#DejaVuSans-2e" x="63.623047"/>
       <use xlink:href="#DejaVuSans-30" x="95.410156"/>
       <use xlink:href="#DejaVuSans-35" x="159.033203"/>
      </g>
     </g>
    </g>
    <g id="ytick_3">
     <g id="line2d_12">
      <g>
       <use xlink:href="#m2714721a7b" x="103.074841" y="242.553522" style="stroke: #000000; stroke-width: 0.8"/>
      </g>
     </g>
     <g id="text_12">
      <!-- 0.10 -->
      <g transform="translate(51.543591 250.15196) scale(0.2 -0.2)">
       <use xlink:href="#DejaVuSans-30"/>
       <use xlink:href="#DejaVuSans-2e" x="63.623047"/>
       <use xlink:href="#DejaVuSans-31" x="95.410156"/>
       <use xlink:href="#DejaVuSans-30" x="159.033203"/>
      </g>
     </g>
    </g>
    <g id="ytick_4">
     <g id="line2d_13">
      <g>
       <use xlink:href="#m2714721a7b" x="103.074841" y="175.010284" style="stroke: #000000; stroke-width: 0.8"/>
      </g>
     </g>
     <g id="text_13">
      <!-- 0.15 -->
      <g transform="translate(51.543591 182.608721) scale(0.2 -0.2)">
       <use xlink:href="#DejaVuSans-30"/>
       <use xlink:href="#DejaVuSans-2e" x="63.623047"/>
       <use xlink:href="#DejaVuSans-31" x="95.410156"/>
       <use xlink:href="#DejaVuSans-35" x="159.033203"/>
      </g>
     </g>
    </g>
    <g id="ytick_5">
     <g id="line2d_14">
      <g>
       <use xlink:href="#m2714721a7b" x="103.074841" y="107.467045" style="stroke: #000000; stroke-width: 0.8"/>
      </g>
     </g>
     <g id="text_14">
      <!-- 0.20 -->
      <g transform="translate(51.543591 115.065482) scale(0.2 -0.2)">
       <use xlink:href="#DejaVuSans-30"/>
       <use xlink:href="#DejaVuSans-2e" x="63.623047"/>
       <use xlink:href="#DejaVuSans-32" x="95.410156"/>
       <use xlink:href="#DejaVuSans-30" x="159.033203"/>
      </g>
     </g>
    </g>
    <g id="ytick_6">
     <g id="line2d_15">
      <g>
       <use xlink:href="#m2714721a7b" x="103.074841" y="39.923806" style="stroke: #000000; stroke-width: 0.8"/>
      </g>
     </g>
     <g id="text_15">
      <!-- 0.25 -->
      <g transform="translate(51.543591 47.522244) scale(0.2 -0.2)">
       <use xlink:href="#DejaVuSans-30"/>
       <use xlink:href="#DejaVuSans-2e" x="63.623047"/>
       <use xlink:href="#DejaVuSans-32" x="95.410156"/>
       <use xlink:href="#DejaVuSans-35" x="159.033203"/>
      </g>
     </g>
    </g>
   </g>
   <g id="line2d_16">
    <path d="M 923.978687 377.64 
L 940.074841 377.64 
L 940.074841 377.64 
" clip-path="url(#peddb8a5b11)" style="fill: none; stroke: #ffa500; stroke-width: 1.5; stroke-linecap: square"/>
   </g>
   <g id="line2d_17">
    <path d="M 103.074841 377.64 
L 948.274841 377.64 
" clip-path="url(#peddb8a5b11)" style="fill: none; stroke-dasharray: 7.4,3.2; stroke-dashoffset: 0; stroke: #000000; stroke-width: 2"/>
   </g>
   <g id="patch_3">
    <path d="M 103.074841 395.28 
L 103.074841 7.2 
" style="fill: none; stroke: #000000; stroke-width: 0.8; stroke-linejoin: miter; stroke-linecap: square"/>
   </g>
   <g id="patch_4">
    <path d="M 940.074841 395.28 
L 940.074841 7.2 
" style="fill: none; stroke: #000000; stroke-width: 0.8; stroke-linejoin: miter; stroke-linecap: square"/>
   </g>
   <g id="patch_5">
    <path d="M 103.074841 395.28 
L 940.074841 395.28 
" style="fill: none; stroke: #000000; stroke-width: 0.8; stroke-linejoin: miter; stroke-linecap: square"/>
   </g>
   <g id="patch_6">
    <path d="M 103.074841 7.2 
L 940.074841 7.2 
" style="fill: none; stroke: #000000; stroke-width: 0.8; stroke-linejoin: miter; stroke-linecap: square"/>
   </g>
  </g>
 </g>
 <defs>
  <clipPath id="peddb8a5b11">
   <rect x="103.074841" y="7.2" width="837" height="388.08"/>
  </clipPath>
 </defs>
</svg>
