<?xml version="1.0" encoding="utf-8" standalone="no"?>
<!DOCTYPE svg PUBLIC "-//W3C//DTD SVG 1.1//EN"
  "http://www.w3.org/Graphics/SVG/1.1/DTD/svg11.dtd">
<svg xmlns:xlink="http://www.w3.org/1999/xlink" width="947.274841pt" height="505.354841pt" viewBox="0 0 947.274841 505.354841" xmlns="http://www.w3.org/2000/svg" version="1.1">
 <metadata>
  <rdf:RDF xmlns:dc="http://purl.org/dc/elements/1.1/" xmlns:cc="http://creativecommons.org/ns#" xmlns:rdf="http://www.w3.org/1999/02/22-rdf-syntax-ns#">
   <cc:Work>
    <dc:type rdf:resource="http://purl.org/dc/dcmitype/StillImage"/>
    <dc:date>2023-11-15T18:16:59.058830</dc:date>
    <dc:format>image/svg+xml</dc:format>
    <dc:creator>
     <cc:Agent>
      <dc:title>Matplotlib v3.7.2, https://matplotlib.org/</dc:title>
     </cc:Agent>
    </dc:creator>
   </cc:Work>
  </rdf:RDF>
 </metadata>
 <defs>
  <style type="text/css">*{stroke-linejoin: round; stroke-linecap: butt}</style>
 </defs>
 <g id="figure_1">
  <g id="patch_1">
   <path d="M 0 505.354841 
L 947.274841 505.354841 
L 947.274841 -0 
L 0 -0 
z
" style="fill: #ffffff"/>
  </g>
  <g id="axes_1">
   <g id="patch_2">
    <path d="M 103.074841 395.28 
L 940.074841 395.28 
L 940.074841 7.2 
L 103.074841 7.2 
z
" style="fill: #ffffff"/>
   </g>
   <g id="PolyCollection_1">
    <path d="M -4315.31939 377.629321 
L -4315.31939 377.64 
L -4307.271313 377.559536 
L -4299.223236 377.50475 
L -4291.175159 377.441141 
L -4283.127082 377.40542 
L -4275.079005 377.358351 
L -4267.030929 377.301289 
L -4258.982852 377.245513 
L -4250.934775 377.195537 
L -4242.886698 377.155743 
L -4234.838621 377.105555 
L -4226.790544 377.052021 
L -4218.742467 377.001135 
L -4210.69439 376.931776 
L -4202.646313 376.880392 
L -4194.598236 376.814523 
L -4186.550159 376.763232 
L -4178.502082 376.682756 
L -4170.454005 376.623268 
L -4162.405929 376.567978 
L -4154.357852 376.49693 
L -4146.309775 376.429447 
L -4138.261698 376.365349 
L -4130.213621 376.281229 
L -4122.165544 376.213714 
L -4114.117467 376.129294 
L -4106.06939 376.04498 
L -4098.021313 375.948846 
L -4089.973236 375.850758 
L -4081.925159 375.758112 
L -4073.877082 375.645541 
L -4065.829005 375.513996 
L -4057.780929 375.406381 
L -4049.732852 375.279379 
L -4041.684775 375.128945 
L -4033.636698 374.997074 
L -4025.588621 374.834589 
L -4017.540544 374.672448 
L -4009.492467 374.507583 
L -4001.44439 374.333555 
L -3993.396313 374.136111 
L -3985.348236 373.925023 
L -3977.300159 373.700758 
L -3969.252082 373.493455 
L -3961.204005 373.236869 
L -3953.155929 373.003685 
L -3945.107852 372.753055 
L -3937.059775 372.50637 
L -3929.011698 372.236199 
L -3920.963621 371.937616 
L -3912.915544 371.676082 
L -3904.867467 371.37325 
L -3896.81939 371.058824 
L -3888.771313 370.757686 
L -3880.723236 370.464965 
L -3872.675159 370.137553 
L -3864.627082 369.808284 
L -3856.579005 369.483232 
L -3848.530929 369.140707 
L -3840.482852 368.794891 
L -3832.434775 368.453569 
L -3824.386698 368.097483 
L -3816.338621 367.742877 
L -3808.290544 367.398916 
L -3800.242467 367.035426 
L -3792.19439 366.635483 
L -3784.146313 366.255404 
L -3776.098236 365.877864 
L -3768.050159 365.510043 
L -3760.002082 365.119572 
L -3751.954005 364.742528 
L -3743.905929 364.355111 
L -3735.857852 364.023265 
L -3727.809775 363.597358 
L -3719.761698 363.252007 
L -3711.713621 362.854201 
L -3703.665544 362.482414 
L -3695.617467 362.081465 
L -3687.56939 361.736634 
L -3679.521313 361.31464 
L -3671.473236 360.93302 
L -3663.425159 360.588118 
L -3655.377082 360.196691 
L -3647.329005 359.833367 
L -3639.280929 359.448188 
L -3631.232852 359.062046 
L -3623.184775 358.694879 
L -3615.136698 358.337232 
L -3607.088621 357.938754 
L -3599.040544 357.569902 
L -3590.992467 357.192042 
L -3582.94439 356.821452 
L -3574.896313 356.461545 
L -3566.848236 356.086308 
L -3558.800159 355.71648 
L -3550.752082 355.399969 
L -3542.704005 355.017422 
L -3534.655929 354.656204 
L -3526.607852 354.301869 
L -3518.559775 353.945136 
L -3510.511698 353.587966 
L -3502.463621 353.222523 
L -3494.415544 352.879794 
L -3486.367467 352.515806 
L -3478.31939 352.137956 
L -3470.271313 351.75336 
L -3462.223236 351.362428 
L -3454.175159 351.005859 
L -3446.127082 350.598553 
L -3438.079005 350.154772 
L -3430.030929 349.747892 
L -3421.982852 349.311719 
L -3413.934775 348.867818 
L -3405.886698 348.392205 
L -3397.838621 347.907013 
L -3389.790544 347.469084 
L -3381.742467 346.949618 
L -3373.69439 346.466073 
L -3365.646313 345.935648 
L -3357.598236 345.464241 
L -3349.550159 344.883308 
L -3341.502082 344.31951 
L -3333.454005 343.778832 
L -3325.405929 343.228316 
L -3317.357852 342.658035 
L -3309.309775 342.056725 
L -3301.261698 341.507291 
L -3293.213621 340.854151 
L -3285.165544 340.305098 
L -3277.117467 339.633228 
L -3269.06939 338.991129 
L -3261.021313 338.371799 
L -3252.973236 337.788969 
L -3244.925159 337.078676 
L -3236.877082 336.460367 
L -3228.829005 335.621718 
L -3220.780929 334.933817 
L -3212.732852 334.311826 
L -3204.684775 333.585998 
L -3196.636698 332.841014 
L -3188.588621 331.95415 
L -3180.540544 331.144001 
L -3172.492467 330.51498 
L -3164.44439 329.383935 
L -3156.396313 328.533762 
L -3148.348236 327.668522 
L -3140.300159 326.770657 
L -3132.252082 325.720393 
L -3124.204005 324.761482 
L -3116.155929 324.122498 
L -3108.107852 323.235456 
L -3100.059775 321.586271 
L -3092.011698 320.266611 
L -3083.963621 319.39599 
L -3075.915544 318.065553 
L -3067.867467 317.039371 
L -3059.81939 316.208654 
L -3051.771313 314.754518 
L -3043.723236 313.05607 
L -3035.675159 312.038442 
L -3027.627082 311.552646 
L -3019.579005 310.231546 
L -3011.530929 309.896518 
L -3003.482852 309.089687 
L -2995.434775 307.637746 
L -2987.386698 307.779755 
L -2979.338621 308.59588 
L -2971.290544 310.217493 
L -2963.242467 308.74045 
L -2955.19439 312.167825 
L -2947.146313 313.165658 
L -2939.098236 308.858735 
L -2931.050159 310.267352 
L -2923.002082 312.394327 
L -2914.954005 311.349015 
L -2906.905929 311.227138 
L -2898.857852 319.792613 
L -2890.809775 331.930424 
L -2882.761698 338.075267 
L -2874.713621 325.128528 
L -2866.665544 332.056813 
L -2858.617467 340.909132 
L -2850.56939 340.532964 
L -2842.521313 358.490784 
L -2834.473236 356.035595 
L -2826.425159 350.729537 
L -2818.377082 337.131631 
L -2810.329005 350.013609 
L -2802.280929 357.687971 
L -2794.232852 354.322933 
L -2786.184775 356.463096 
L -2778.136698 363.538395 
L -2770.088621 362.518907 
L -2762.040544 356.514617 
L -2753.992467 364.131257 
L -2745.94439 365.906966 
L -2737.896313 363.010055 
L -2729.848236 368.330293 
L -2721.800159 370.368835 
L -2713.752082 369.983683 
L -2705.704005 368.345385 
L -2697.655929 370.246016 
L -2689.607852 368.461074 
L -2681.559775 368.744181 
L -2673.511698 370.635716 
L -2665.463621 369.198114 
L -2657.415544 370.206567 
L -2649.367467 370.468937 
L -2641.31939 369.219929 
L -2633.271313 369.943583 
L -2625.223236 367.87086 
L -2617.175159 368.479376 
L -2609.127082 369.256814 
L -2601.079005 369.590631 
L -2593.030929 368.781736 
L -2584.982852 368.108178 
L -2576.934775 368.107408 
L -2568.886698 367.583802 
L -2560.838621 367.724108 
L -2552.790544 367.799933 
L -2544.742467 366.663177 
L -2536.69439 367.657398 
L -2528.646313 366.974406 
L -2520.598236 366.677855 
L -2512.550159 367.206318 
L -2504.502082 366.575835 
L -2496.454005 366.585558 
L -2488.405929 367.121002 
L -2480.357852 367.840461 
L -2472.309775 366.587325 
L -2464.261698 366.061499 
L -2456.213621 366.339983 
L -2448.165544 368.932023 
L -2440.117467 369.13977 
L -2432.06939 370.167009 
L -2424.021313 367.860089 
L -2415.973236 366.561164 
L -2407.925159 367.062768 
L -2399.877082 368.712564 
L -2391.829005 368.963728 
L -2383.780929 366.261202 
L -2375.732852 368.546749 
L -2367.684775 367.487722 
L -2359.636698 367.254188 
L -2351.588621 365.753425 
L -2343.540544 366.656798 
L -2335.492467 366.009442 
L -2327.44439 366.551306 
L -2319.396313 365.385307 
L -2311.348236 364.512938 
L -2303.300159 363.090234 
L -2295.252082 362.366563 
L -2287.204005 361.669713 
L -2279.155929 360.598546 
L -2271.107852 360.31649 
L -2263.059775 359.260842 
L -2255.011698 358.147769 
L -2246.963621 356.003576 
L -2238.915544 354.137718 
L -2230.867467 353.087879 
L -2222.81939 351.097812 
L -2214.771313 350.575467 
L -2206.723236 348.923968 
L -2198.675159 346.475814 
L -2190.627082 344.433999 
L -2182.579005 342.752021 
L -2174.530929 340.187573 
L -2166.482852 338.595203 
L -2158.434775 336.291173 
L -2150.386698 334.247225 
L -2142.338621 331.829335 
L -2134.290544 329.387254 
L -2126.242467 327.090213 
L -2118.19439 324.686148 
L -2110.146313 322.445941 
L -2102.098236 319.551685 
L -2094.050159 316.860754 
L -2086.002082 314.145408 
L -2077.954005 312.060074 
L -2069.905929 309.212726 
L -2061.857852 306.674077 
L -2053.809775 303.897387 
L -2045.761698 300.177434 
L -2037.713621 298.078316 
L -2029.665544 294.860361 
L -2021.617467 292.174272 
L -2013.56939 289.188988 
L -2005.521313 285.889136 
L -1997.473236 282.794155 
L -1989.425159 279.698954 
L -1981.377082 275.911616 
L -1973.329005 273.134984 
L -1965.280929 269.444141 
L -1957.232852 266.808147 
L -1949.184775 262.995425 
L -1941.136698 259.227389 
L -1933.088621 255.879419 
L -1925.040544 252.979459 
L -1916.992467 248.714851 
L -1908.94439 245.511448 
L -1900.896313 241.650435 
L -1892.848236 238.376979 
L -1884.800159 234.333903 
L -1876.752082 230.605362 
L -1868.704005 229.546855 
L -1860.655929 223.070179 
L -1852.607852 221.399982 
L -1844.559775 217.323128 
L -1836.511698 214.136898 
L -1828.463621 210.53127 
L -1820.415544 206.830719 
L -1812.367467 203.274876 
L -1804.31939 199.988629 
L -1796.271313 196.88231 
L -1788.223236 193.644913 
L -1780.175159 194.733718 
L -1772.127082 186.768763 
L -1764.079005 184.547396 
L -1756.030929 188.947849 
L -1747.982852 180.162968 
L -1739.934775 180.597805 
L -1731.886698 178.99882 
L -1723.838621 173.849413 
L -1715.790544 174.002187 
L -1707.742467 177.026976 
L -1699.69439 173.195236 
L -1691.646313 171.245212 
L -1683.598236 173.255729 
L -1675.550159 171.801727 
L -1667.502082 172.844973 
L -1659.454005 174.867805 
L -1651.405929 177.749432 
L -1643.357852 186.986523 
L -1635.309775 183.922818 
L -1627.261698 188.444133 
L -1619.213621 191.821632 
L -1611.165544 193.610889 
L -1603.117467 198.256 
L -1595.06939 200.700904 
L -1587.021313 193.742231 
L -1578.973236 198.96413 
L -1570.925159 206.710367 
L -1562.877082 210.010675 
L -1554.829005 210.175877 
L -1546.780929 219.945228 
L -1538.732852 219.790467 
L -1530.684775 221.776386 
L -1522.636698 220.612854 
L -1514.588621 233.319265 
L -1506.540544 229.305511 
L -1498.492467 227.002111 
L -1490.44439 237.849807 
L -1482.396313 245.53998 
L -1474.348236 244.804937 
L -1466.300159 249.344238 
L -1458.252082 250.767905 
L -1450.204005 250.965425 
L -1442.155929 250.875269 
L -1434.107852 253.331323 
L -1426.059775 254.672266 
L -1418.011698 262.493423 
L -1409.963621 258.309417 
L -1401.915544 265.085007 
L -1393.867467 263.386082 
L -1385.81939 262.301344 
L -1377.771313 264.934157 
L -1369.723236 267.25239 
L -1361.675159 263.908451 
L -1353.627082 265.261472 
L -1345.579005 265.146108 
L -1337.530929 268.666666 
L -1329.482852 266.557567 
L -1321.434775 265.420584 
L -1313.386698 266.205174 
L -1305.338621 267.696096 
L -1297.290544 266.465035 
L -1289.242467 264.302651 
L -1281.19439 264.91796 
L -1273.146313 261.772654 
L -1265.098236 261.619982 
L -1257.050159 265.637335 
L -1249.002082 264.870422 
L -1240.954005 261.80083 
L -1232.905929 260.617816 
L -1224.857852 260.32859 
L -1216.809775 256.986683 
L -1208.761698 257.023932 
L -1200.713621 256.365605 
L -1192.665544 255.120696 
L -1184.617467 253.702825 
L -1176.56939 251.319884 
L -1168.521313 251.625634 
L -1160.473236 249.782796 
L -1152.425159 248.825318 
L -1144.377082 247.510898 
L -1136.329005 246.883026 
L -1128.280929 244.88836 
L -1120.232852 241.845627 
L -1112.184775 241.069001 
L -1104.136698 238.494243 
L -1096.088621 235.088574 
L -1088.040544 236.507837 
L -1079.992467 232.131118 
L -1071.94439 233.141805 
L -1063.896313 231.874455 
L -1055.848236 231.61965 
L -1047.800159 228.688258 
L -1039.752082 228.039361 
L -1031.704005 227.238035 
L -1023.655929 223.788359 
L -1015.607852 224.144896 
L -1007.559775 223.500338 
L -999.511698 223.019442 
L -991.463621 221.241939 
L -983.415544 221.60031 
L -975.367467 219.815982 
L -967.31939 218.126606 
L -959.271313 215.63372 
L -951.223236 214.676918 
L -943.175159 213.97814 
L -935.127082 212.208617 
L -927.079005 212.241407 
L -919.030929 211.29291 
L -910.982852 209.730786 
L -902.934775 209.618708 
L -894.886698 207.892567 
L -886.838621 209.05668 
L -878.790544 207.82729 
L -870.742467 207.75437 
L -862.69439 205.680075 
L -854.646313 202.901353 
L -846.598236 205.067611 
L -838.550159 204.898072 
L -830.502082 203.941287 
L -822.454005 202.96031 
L -814.405929 201.0286 
L -806.357852 200.543366 
L -798.309775 199.463797 
L -790.261698 199.56604 
L -782.213621 199.133849 
L -774.165544 197.319656 
L -766.117467 194.766073 
L -758.06939 197.992962 
L -750.021313 197.1775 
L -741.973236 195.006391 
L -733.925159 196.326516 
L -725.877082 192.472253 
L -717.829005 192.900476 
L -709.780929 193.101721 
L -701.732852 190.466622 
L -693.684775 194.820194 
L -685.636698 190.3413 
L -677.588621 188.030244 
L -669.540544 190.837847 
L -661.492467 191.533719 
L -653.44439 190.034078 
L -645.396313 191.050977 
L -637.348236 188.908477 
L -629.300159 192.730163 
L -621.252082 190.588269 
L -613.204005 191.252831 
L -605.155929 188.399812 
L -597.107852 185.815174 
L -589.059775 188.708677 
L -581.011698 194.031087 
L -572.963621 187.553617 
L -564.915544 187.699358 
L -556.867467 185.146247 
L -548.81939 186.05072 
L -540.771313 185.533233 
L -532.723236 183.878853 
L -524.675159 183.139524 
L -516.627082 185.638608 
L -508.579005 184.063264 
L -500.530929 186.3505 
L -492.482852 186.654585 
L -484.434775 179.378054 
L -476.386698 182.203616 
L -468.338621 182.347433 
L -460.290544 182.76435 
L -452.242467 183.143795 
L -444.19439 187.671567 
L -436.146313 189.466126 
L -428.098236 189.245665 
L -420.050159 194.283039 
L -412.002082 202.635981 
L -403.954005 192.724829 
L -395.905929 192.645718 
L -387.857852 192.901159 
L -379.809775 196.256892 
L -371.761698 197.070511 
L -363.713621 197.107526 
L -355.665544 204.348935 
L -347.617467 207.055313 
L -339.56939 198.94483 
L -331.521313 206.388781 
L -323.473236 202.786553 
L -315.425159 200.555326 
L -307.377082 209.56885 
L -299.329005 207.805099 
L -291.280929 213.621536 
L -283.232852 211.862218 
L -275.184775 207.943784 
L -267.136698 211.570902 
L -259.088621 211.561369 
L -251.040544 215.120703 
L -242.992467 212.849793 
L -234.94439 218.711501 
L -226.896313 214.443647 
L -218.848236 217.517838 
L -210.800159 216.842252 
L -202.752082 220.227213 
L -194.704005 214.663624 
L -186.655929 220.538035 
L -178.607852 220.170974 
L -170.559775 224.172381 
L -162.511698 226.264629 
L -154.463621 226.24258 
L -146.415544 225.166411 
L -138.367467 227.737989 
L -130.31939 229.649144 
L -122.271313 227.885851 
L -114.223236 227.20169 
L -106.175159 229.448678 
L -98.127082 231.490168 
L -90.079005 227.864904 
L -82.030929 225.763128 
L -73.982852 233.953613 
L -65.934775 237.671877 
L -57.886698 229.237446 
L -49.838621 231.69056 
L -41.790544 232.909752 
L -33.742467 233.490809 
L -25.69439 237.696903 
L -17.646313 237.149439 
L -9.598236 235.420347 
L -1.550159 237.260116 
L 6.497918 237.768927 
L 14.545995 233.254117 
L 22.594071 235.565251 
L 30.642148 234.172704 
L 38.690225 240.476609 
L 46.738302 248.246849 
L 54.786379 247.207378 
L 62.834456 241.144411 
L 70.882533 240.548584 
L 78.93061 241.453928 
L 86.978687 241.826459 
L 95.026764 247.647593 
L 103.074841 240.443907 
L 111.122918 248.204492 
L 119.170995 254.469279 
L 127.219071 249.432463 
L 135.267148 257.468363 
L 143.315225 252.634307 
L 151.363302 257.080363 
L 159.411379 254.37419 
L 167.459456 256.653926 
L 175.507533 261.052074 
L 183.55561 260.92303 
L 191.603687 262.394961 
L 199.651764 262.905599 
L 207.699841 263.534206 
L 215.747918 253.357238 
L 223.795995 266.876254 
L 231.844071 272.554989 
L 239.892148 267.439849 
L 247.940225 272.482183 
L 255.988302 273.753492 
L 264.036379 271.189622 
L 272.084456 276.875183 
L 280.132533 280.768402 
L 288.18061 278.863065 
L 296.228687 280.542243 
L 304.276764 281.603113 
L 312.324841 283.184101 
L 320.372918 287.601179 
L 328.420995 279.415159 
L 336.469071 290.225547 
L 344.517148 290.785108 
L 352.565225 291.553993 
L 360.613302 285.339502 
L 368.661379 293.613882 
L 376.709456 299.22991 
L 384.757533 294.182301 
L 392.80561 295.122047 
L 400.853687 302.851012 
L 408.901764 290.299636 
L 416.949841 302.671776 
L 424.997918 295.491688 
L 433.045995 306.364415 
L 441.094071 301.776671 
L 449.142148 306.701097 
L 457.190225 308.511133 
L 465.238302 310.913364 
L 473.286379 311.948049 
L 481.334456 309.559035 
L 489.382533 310.040613 
L 497.43061 311.874832 
L 505.478687 317.1012 
L 513.526764 316.939424 
L 521.574841 317.231952 
L 529.622918 320.608238 
L 537.670995 321.275922 
L 545.719071 319.383437 
L 553.767148 320.193055 
L 561.815225 325.058364 
L 569.863302 326.164783 
L 577.911379 327.711836 
L 585.959456 324.590602 
L 594.007533 319.699005 
L 602.05561 325.95467 
L 610.103687 324.549199 
L 618.151764 326.510039 
L 626.199841 329.424693 
L 634.247918 326.565914 
L 642.295995 331.070771 
L 650.344071 328.443076 
L 658.392148 328.327589 
L 666.440225 328.414789 
L 674.488302 332.350474 
L 682.536379 331.682149 
L 690.584456 331.59872 
L 698.632533 329.182434 
L 706.68061 330.815486 
L 714.728687 331.622564 
L 722.776764 331.062979 
L 730.824841 333.639397 
L 738.872918 333.243519 
L 746.920995 334.747131 
L 754.969071 336.398996 
L 763.017148 336.4001 
L 771.065225 335.01884 
L 779.113302 335.484907 
L 787.161379 334.623702 
L 795.209456 335.823521 
L 803.257533 336.092191 
L 811.30561 334.399368 
L 819.353687 336.274708 
L 827.401764 327.939194 
L 835.449841 336.062425 
L 843.497918 339.028217 
L 851.545995 335.606011 
L 859.594071 335.466002 
L 867.642148 338.38509 
L 875.690225 338.319027 
L 883.738302 335.224095 
L 891.786379 334.823195 
L 899.834456 336.566404 
L 907.882533 335.675839 
L 915.93061 339.153943 
L 923.978687 337.655851 
L 932.026764 340.018762 
L 940.074841 335.982075 
L 940.074841 283.731776 
L 940.074841 283.731776 
L 932.026764 280.903449 
L 923.978687 276.988948 
L 915.93061 281.202954 
L 907.882533 272.765731 
L 899.834456 274.894147 
L 891.786379 273.544401 
L 883.738302 264.725165 
L 875.690225 275.686312 
L 867.642148 281.456794 
L 859.594071 264.8134 
L 851.545995 271.697432 
L 843.497918 278.28614 
L 835.449841 273.553371 
L 827.401764 219.400713 
L 819.353687 271.400251 
L 811.30561 261.316166 
L 803.257533 271.545891 
L 795.209456 270.509762 
L 787.161379 266.228361 
L 779.113302 266.418621 
L 771.065225 265.160065 
L 763.017148 271.043405 
L 754.969071 271.076831 
L 746.920995 263.050782 
L 738.872918 257.714556 
L 730.824841 262.06202 
L 722.776764 254.454937 
L 714.728687 257.369957 
L 706.68061 252.913424 
L 698.632533 247.255697 
L 690.584456 255.057631 
L 682.536379 255.901861 
L 674.488302 255.913757 
L 666.440225 246.833614 
L 658.392148 244.86172 
L 650.344071 244.467653 
L 642.295995 254.972292 
L 634.247918 240.401536 
L 626.199841 250.223229 
L 618.151764 241.72521 
L 610.103687 235.328645 
L 602.05561 240.612754 
L 594.007533 217.383726 
L 585.959456 238.052113 
L 577.911379 246.585965 
L 569.863302 242.316028 
L 561.815225 240.275398 
L 553.767148 221.68538 
L 545.719071 222.203955 
L 537.670995 228.815943 
L 529.622918 228.352108 
L 521.574841 218.076951 
L 513.526764 218.679177 
L 505.478687 217.827229 
L 497.43061 207.815498 
L 489.382533 199.216362 
L 481.334456 197.402106 
L 473.286379 205.146994 
L 465.238302 203.019757 
L 457.190225 198.657527 
L 449.142148 194.198365 
L 441.094071 179.377673 
L 433.045995 194.505627 
L 424.997918 156.02767 
L 416.949841 182.304285 
L 408.901764 145.673498 
L 400.853687 185.665154 
L 392.80561 163.800749 
L 384.757533 163.53181 
L 376.709456 175.021914 
L 368.661379 161.775588 
L 360.613302 137.491822 
L 352.565225 155.484997 
L 344.517148 155.251702 
L 336.469071 154.661334 
L 328.420995 126.327306 
L 320.372918 140.591564 
L 312.324841 137.329907 
L 304.276764 135.479909 
L 296.228687 132.484206 
L 288.18061 126.666132 
L 280.132533 132.641433 
L 272.084456 122.287428 
L 264.036379 109.31468 
L 255.988302 120.304592 
L 247.940225 111.829178 
L 239.892148 104.280827 
L 231.844071 116.922386 
L 223.795995 103.432227 
L 215.747918 68.591962 
L 207.699841 94.265796 
L 199.651764 93.373685 
L 191.603687 93.558691 
L 183.55561 90.567193 
L 175.507533 90.836071 
L 167.459456 81.441217 
L 159.411379 77.649077 
L 151.363302 85.145226 
L 143.315225 71.45867 
L 135.267148 85.788922 
L 127.219071 66.745428 
L 119.170995 77.979964 
L 111.122918 65.381329 
L 103.074841 49.738107 
L 95.026764 64.515011 
L 86.978687 50.848652 
L 78.93061 52.039693 
L 70.882533 51.682538 
L 62.834456 53.289385 
L 54.786379 66.673985 
L 46.738302 70.060988 
L 38.690225 54.606206 
L 30.642148 38.788277 
L 22.594071 43.632794 
L 14.545995 40.717257 
L 6.497918 51.185108 
L -1.550159 50.495661 
L -9.598236 46.801375 
L -17.646313 52.456797 
L -25.69439 52.440635 
L -33.742467 44.670772 
L -41.790544 46.09504 
L -49.838621 43.36935 
L -57.886698 39.919655 
L -65.934775 58.857341 
L -73.982852 48.918549 
L -82.030929 35.168822 
L -90.079005 42.482321 
L -98.127082 49.082493 
L -106.175159 45.567466 
L -114.223236 42.993093 
L -122.271313 45.938284 
L -130.31939 52.898684 
L -138.367467 46.466391 
L -146.415544 44.448517 
L -154.463621 47.847273 
L -162.511698 44.040883 
L -170.559775 46.004951 
L -178.607852 37.798574 
L -186.655929 41.555494 
L -194.704005 31.434477 
L -202.752082 41.223154 
L -210.800159 37.473764 
L -218.848236 40.627896 
L -226.896313 38.285812 
L -234.94439 44.4817 
L -242.992467 35.481528 
L -251.040544 42.074047 
L -259.088621 36.602511 
L -267.136698 38.334554 
L -275.184775 34.16382 
L -283.232852 37.212622 
L -291.280929 44.5593 
L -299.329005 38.525641 
L -307.377082 40.66427 
L -315.425159 28.26251 
L -323.473236 34.774997 
L -331.521313 38.340233 
L -339.56939 28.912479 
L -347.617467 40.566933 
L -355.665544 41.981191 
L -363.713621 29.941132 
L -371.761698 30.741301 
L -379.809775 30.446777 
L -387.857852 26.522323 
L -395.905929 30.283429 
L -403.954005 29.805149 
L -412.002082 45.272907 
L -420.050159 35.781426 
L -428.098236 28.989345 
L -436.146313 29.957346 
L -444.19439 28.550833 
L -452.242467 24.84 
L -460.290544 27.322362 
L -468.338621 25.158605 
L -476.386698 29.518196 
L -484.434775 26.020434 
L -492.482852 35.404 
L -500.530929 37.509727 
L -508.579005 36.561901 
L -516.627082 39.434282 
L -524.675159 37.23703 
L -532.723236 40.747463 
L -540.771313 43.213585 
L -548.81939 48.166038 
L -556.867467 46.004025 
L -564.915544 51.414356 
L -572.963621 51.52012 
L -581.011698 60.723075 
L -589.059775 56.122597 
L -597.107852 54.10085 
L -605.155929 58.534668 
L -613.204005 61.022655 
L -621.252082 62.019353 
L -629.300159 67.625697 
L -637.348236 64.338959 
L -645.396313 68.338016 
L -653.44439 67.583779 
L -661.492467 69.107954 
L -669.540544 68.480852 
L -677.588621 67.20018 
L -685.636698 71.726436 
L -693.684775 77.500944 
L -701.732852 73.012437 
L -709.780929 76.653287 
L -717.829005 76.032443 
L -725.877082 78.387794 
L -733.925159 82.96061 
L -741.973236 82.286334 
L -750.021313 86.109499 
L -758.06939 87.595562 
L -766.117467 84.670916 
L -774.165544 87.418503 
L -782.213621 90.405669 
L -790.261698 91.895847 
L -798.309775 92.44527 
L -806.357852 94.756516 
L -814.405929 95.143014 
L -822.454005 98.261946 
L -830.502082 99.601909 
L -838.550159 100.814258 
L -846.598236 102.025444 
L -854.646313 98.296208 
L -862.69439 103.806591 
L -870.742467 106.409144 
L -878.790544 106.525033 
L -886.838621 107.345394 
L -894.886698 108.042434 
L -902.934775 110.122858 
L -910.982852 110.331244 
L -919.030929 113.127737 
L -927.079005 114.547305 
L -935.127082 114.723482 
L -943.175159 116.187605 
L -951.223236 117.934382 
L -959.271313 119.729164 
L -967.31939 124.120498 
L -975.367467 125.711271 
L -983.415544 128.236694 
L -991.463621 128.088007 
L -999.511698 130.576133 
L -1007.559775 131.532257 
L -1015.607852 132.866213 
L -1023.655929 131.8242 
L -1031.704005 137.843283 
L -1039.752082 139.165909 
L -1047.800159 140.396844 
L -1055.848236 144.40737 
L -1063.896313 145.11919 
L -1071.94439 147.354936 
L -1079.992467 146.751585 
L -1088.040544 151.990769 
L -1096.088621 151.729319 
L -1104.136698 156.837325 
L -1112.184775 160.769074 
L -1120.232852 162.638542 
L -1128.280929 167.325829 
L -1136.329005 171.21546 
L -1144.377082 172.148962 
L -1152.425159 174.9371 
L -1160.473236 176.469617 
L -1168.521313 179.786806 
L -1176.56939 180.142879 
L -1184.617467 184.337624 
L -1192.665544 187.713802 
L -1200.713621 190.103898 
L -1208.761698 191.909157 
L -1216.809775 193.523332 
L -1224.857852 197.888811 
L -1232.905929 199.615439 
L -1240.954005 202.632926 
L -1249.002082 206.634027 
L -1257.050159 208.488866 
L -1265.098236 206.543013 
L -1273.146313 208.174741 
L -1281.19439 212.368253 
L -1289.242467 213.472226 
L -1297.290544 216.522883 
L -1305.338621 218.922079 
L -1313.386698 218.567068 
L -1321.434775 220.067435 
L -1329.482852 221.986075 
L -1337.530929 224.989993 
L -1345.579005 222.680614 
L -1353.627082 224.24272 
L -1361.675159 224.556489 
L -1369.723236 228.478297 
L -1377.771313 228.194693 
L -1385.81939 226.67828 
L -1393.867467 228.723705 
L -1401.915544 231.001823 
L -1409.963621 226.158119 
L -1418.011698 231.03015 
L -1426.059775 225.356897 
L -1434.107852 225.128772 
L -1442.155929 224.099775 
L -1450.204005 225.424088 
L -1458.252082 226.125107 
L -1466.300159 226.555266 
L -1474.348236 223.553852 
L -1482.396313 226.159592 
L -1490.44439 219.055031 
L -1498.492467 211.243247 
L -1506.540544 213.550604 
L -1514.588621 217.448551 
L -1522.636698 208.169466 
L -1530.684775 209.182972 
L -1538.732852 207.223326 
L -1546.780929 207.004551 
L -1554.829005 193.70845 
L -1562.877082 192.237191 
L -1570.925159 187.517343 
L -1578.973236 176.977348 
L -1587.021313 168.827507 
L -1595.06939 177.64632 
L -1603.117467 173.459284 
L -1611.165544 166.358155 
L -1619.213621 163.52515 
L -1627.261698 158.520297 
L -1635.309775 151.880173 
L -1643.357852 154.821889 
L -1651.405929 142.962433 
L -1659.454005 137.126769 
L -1667.502082 134.601534 
L -1675.550159 132.522858 
L -1683.598236 134.037608 
L -1691.646313 131.384729 
L -1699.69439 134.229344 
L -1707.742467 137.931766 
L -1715.790544 132.733467 
L -1723.838621 132.704409 
L -1731.886698 138.668144 
L -1739.934775 140.495941 
L -1747.982852 139.066336 
L -1756.030929 150.84146 
L -1764.079005 143.79926 
L -1772.127082 147.20615 
L -1780.175159 156.420321 
L -1788.223236 154.883857 
L -1796.271313 158.816176 
L -1804.31939 162.445836 
L -1812.367467 166.576016 
L -1820.415544 170.562946 
L -1828.463621 174.975765 
L -1836.511698 179.133213 
L -1844.559775 182.70725 
L -1852.607852 187.853654 
L -1860.655929 189.797387 
L -1868.704005 197.470895 
L -1876.752082 198.692683 
L -1884.800159 203.014014 
L -1892.848236 207.900244 
L -1900.896313 211.786048 
L -1908.94439 216.507663 
L -1916.992467 220.1535 
L -1925.040544 225.243666 
L -1933.088621 228.689028 
L -1941.136698 232.849957 
L -1949.184775 237.215595 
L -1957.232852 241.738748 
L -1965.280929 244.938486 
L -1973.329005 249.393128 
L -1981.377082 252.515566 
L -1989.425159 257.029322 
L -1997.473236 260.625357 
L -2005.521313 264.479045 
L -2013.56939 268.222588 
L -2021.617467 271.780775 
L -2029.665544 274.954988 
L -2037.713621 278.798911 
L -2045.761698 281.202669 
L -2053.809775 285.563129 
L -2061.857852 288.838952 
L -2069.905929 291.668963 
L -2077.954005 295.030841 
L -2086.002082 297.915626 
L -2094.050159 300.448254 
L -2102.098236 303.628917 
L -2110.146313 306.971586 
L -2118.19439 309.677653 
L -2126.242467 312.212789 
L -2134.290544 315.217496 
L -2142.338621 317.616149 
L -2150.386698 320.366818 
L -2158.434775 322.699251 
L -2166.482852 325.226991 
L -2174.530929 327.193834 
L -2182.579005 329.898064 
L -2190.627082 331.834612 
L -2198.675159 334.139724 
L -2206.723236 336.759176 
L -2214.771313 338.75478 
L -2222.81939 339.710687 
L -2230.867467 341.81456 
L -2238.915544 343.043534 
L -2246.963621 344.999801 
L -2255.011698 347.380425 
L -2263.059775 348.645009 
L -2271.107852 349.83096 
L -2279.155929 350.507411 
L -2287.204005 351.675347 
L -2295.252082 352.638837 
L -2303.300159 353.632147 
L -2311.348236 355.197289 
L -2319.396313 356.247741 
L -2327.44439 357.445116 
L -2335.492467 357.264245 
L -2343.540544 358.194764 
L -2351.588621 357.519008 
L -2359.636698 359.024365 
L -2367.684775 359.671126 
L -2375.732852 360.489419 
L -2383.780929 358.491188 
L -2391.829005 361.328037 
L -2399.877082 361.280494 
L -2407.925159 359.942086 
L -2415.973236 359.643604 
L -2424.021313 361.101027 
L -2432.06939 363.403173 
L -2440.117467 362.646985 
L -2448.165544 362.675574 
L -2456.213621 360.441727 
L -2464.261698 360.877624 
L -2472.309775 361.099329 
L -2480.357852 362.403259 
L -2488.405929 361.939759 
L -2496.454005 361.625122 
L -2504.502082 361.765442 
L -2512.550159 362.505426 
L -2520.598236 362.413618 
L -2528.646313 362.695296 
L -2536.69439 363.440139 
L -2544.742467 362.770784 
L -2552.790544 363.929182 
L -2560.838621 364.002616 
L -2568.886698 364.048929 
L -2576.934775 364.793951 
L -2584.982852 364.913406 
L -2593.030929 365.587669 
L -2601.079005 366.397167 
L -2609.127082 366.311163 
L -2617.175159 365.758142 
L -2625.223236 365.581671 
L -2633.271313 367.319291 
L -2641.31939 366.818194 
L -2649.367467 368.018356 
L -2657.415544 367.94226 
L -2665.463621 367.112245 
L -2673.511698 368.618352 
L -2681.559775 366.953224 
L -2689.607852 366.769339 
L -2697.655929 368.492767 
L -2705.704005 366.751797 
L -2713.752082 368.31946 
L -2721.800159 368.818202 
L -2729.848236 366.838356 
L -2737.896313 361.123028 
L -2745.94439 364.287445 
L -2753.992467 362.444034 
L -2762.040544 353.472175 
L -2770.088621 360.565168 
L -2778.136698 361.62738 
L -2786.184775 353.390589 
L -2794.232852 351.091344 
L -2802.280929 354.743978 
L -2810.329005 346.031807 
L -2818.377082 331.553269 
L -2826.425159 346.91695 
L -2834.473236 353.019167 
L -2842.521313 355.686455 
L -2850.56939 335.5603 
L -2858.617467 336.061442 
L -2866.665544 326.170831 
L -2874.713621 318.569508 
L -2882.761698 333.040059 
L -2890.809775 326.279141 
L -2898.857852 312.804354 
L -2906.905929 303.311978 
L -2914.954005 303.463935 
L -2923.002082 304.612477 
L -2931.050159 302.257226 
L -2939.098236 300.674589 
L -2947.146313 305.374053 
L -2955.19439 304.317421 
L -2963.242467 300.460618 
L -2971.290544 302.047379 
L -2979.338621 300.172357 
L -2987.386698 299.154559 
L -2995.434775 298.783364 
L -3003.482852 300.362646 
L -3011.530929 301.08852 
L -3019.579005 301.32413 
L -3027.627082 302.594116 
L -3035.675159 302.949838 
L -3043.723236 303.914772 
L -3051.771313 305.740312 
L -3059.81939 307.040387 
L -3067.867467 307.840214 
L -3075.915544 308.770585 
L -3083.963621 310.168142 
L -3092.011698 310.897197 
L -3100.059775 312.243535 
L -3108.107852 313.9632 
L -3116.155929 314.892721 
L -3124.204005 315.378498 
L -3132.252082 316.343026 
L -3140.300159 317.333586 
L -3148.348236 318.256463 
L -3156.396313 319.137474 
L -3164.44439 319.98128 
L -3172.492467 321.260026 
L -3180.540544 321.794441 
L -3188.588621 322.692663 
L -3196.636698 323.639802 
L -3204.684775 324.427724 
L -3212.732852 325.183479 
L -3220.780929 325.781716 
L -3228.829005 326.44688 
L -3236.877082 327.441942 
L -3244.925159 328.067058 
L -3252.973236 328.844433 
L -3261.021313 329.438541 
L -3269.06939 330.145764 
L -3277.117467 330.87477 
L -3285.165544 331.614775 
L -3293.213621 332.222624 
L -3301.261698 332.96785 
L -3309.309775 333.615394 
L -3317.357852 334.318439 
L -3325.405929 334.963643 
L -3333.454005 335.646054 
L -3341.502082 336.269248 
L -3349.550159 336.947392 
L -3357.598236 337.687639 
L -3365.646313 338.231878 
L -3373.69439 338.937027 
L -3381.742467 339.534874 
L -3389.790544 340.243085 
L -3397.838621 340.740894 
L -3405.886698 341.397233 
L -3413.934775 342.020306 
L -3421.982852 342.611021 
L -3430.030929 343.214419 
L -3438.079005 343.76764 
L -3446.127082 344.425323 
L -3454.175159 345.009731 
L -3462.223236 345.477757 
L -3470.271313 346.046679 
L -3478.31939 346.613353 
L -3486.367467 347.175175 
L -3494.415544 347.71248 
L -3502.463621 348.205628 
L -3510.511698 348.754082 
L -3518.559775 349.28716 
L -3526.607852 349.820277 
L -3534.655929 350.347961 
L -3542.704005 350.889129 
L -3550.752082 351.452119 
L -3558.800159 351.919852 
L -3566.848236 352.467286 
L -3574.896313 352.99912 
L -3582.94439 353.502288 
L -3590.992467 354.022236 
L -3599.040544 354.552554 
L -3607.088621 355.060985 
L -3615.136698 355.598208 
L -3623.184775 356.074863 
L -3631.232852 356.561355 
L -3639.280929 357.080674 
L -3647.329005 357.57544 
L -3655.377082 358.035669 
L -3663.425159 358.52841 
L -3671.473236 358.963539 
L -3679.521313 359.435992 
L -3687.56939 359.946062 
L -3695.617467 360.359963 
L -3703.665544 360.838523 
L -3711.713621 361.280535 
L -3719.761698 361.749062 
L -3727.809775 362.155321 
L -3735.857852 362.655604 
L -3743.905929 363.039357 
L -3751.954005 363.48872 
L -3760.002082 363.923316 
L -3768.050159 364.372429 
L -3776.098236 364.790186 
L -3784.146313 365.21468 
L -3792.19439 365.606969 
L -3800.242467 366.024203 
L -3808.290544 366.40083 
L -3816.338621 366.754143 
L -3824.386698 367.12192 
L -3832.434775 367.496163 
L -3840.482852 367.854936 
L -3848.530929 368.226007 
L -3856.579005 368.594043 
L -3864.627082 368.941717 
L -3872.675159 369.299048 
L -3880.723236 369.657524 
L -3888.771313 369.97419 
L -3896.81939 370.302951 
L -3904.867467 370.656451 
L -3912.915544 370.988591 
L -3920.963621 371.276408 
L -3929.011698 371.611525 
L -3937.059775 371.912082 
L -3945.107852 372.18482 
L -3953.155929 372.462882 
L -3961.204005 372.720976 
L -3969.252082 373.012295 
L -3977.300159 373.240962 
L -3985.348236 373.492556 
L -3993.396313 373.728835 
L -4001.44439 373.946125 
L -4009.492467 374.141359 
L -4017.540544 374.316024 
L -4025.588621 374.492914 
L -4033.636698 374.671218 
L -4041.684775 374.811237 
L -4049.732852 374.977943 
L -4057.780929 375.113194 
L -4065.829005 375.224897 
L -4073.877082 375.367398 
L -4081.925159 375.488147 
L -4089.973236 375.581987 
L -4098.021313 375.68794 
L -4106.06939 375.791405 
L -4114.117467 375.878791 
L -4122.165544 375.968041 
L -4130.213621 376.036297 
L -4138.261698 376.127826 
L -4146.309775 376.194039 
L -4154.357852 376.266439 
L -4162.405929 376.344994 
L -4170.454005 376.4035 
L -4178.502082 376.468242 
L -4186.550159 376.5638 
L -4194.598236 376.6224 
L -4202.646313 376.702003 
L -4210.69439 376.759146 
L -4218.742467 376.846085 
L -4226.790544 376.909301 
L -4234.838621 376.97857 
L -4242.886698 377.036458 
L -4250.934775 377.087715 
L -4258.982852 377.151609 
L -4267.030929 377.227262 
L -4275.079005 377.302593 
L -4283.127082 377.365776 
L -4291.175159 377.411809 
L -4299.223236 377.491404 
L -4307.271313 377.551699 
L -4315.31939 377.629321 
z
" clip-path="url(#pf47e56ad95)" style="fill: #008000; fill-opacity: 0.3; stroke: #008000; stroke-opacity: 0.3"/>
   </g>
   <g id="matplotlib.axis_1">
    <g id="xtick_1">
     <g id="line2d_1">
      <defs>
       <path id="m8693b52c49" d="M 0 0 
L 0 3.5 
" style="stroke: #000000; stroke-width: 0.8"/>
      </defs>
      <g>
       <use xlink:href="#m8693b52c49" x="103.074841" y="395.28" style="stroke: #000000; stroke-width: 0.8"/>
      </g>
     </g>
     <g id="text_1">
      <!-- 2023-01-01 -->
      <g transform="translate(17.945813 495.213718) rotate(-45) scale(0.2 -0.2)">
       <defs>
        <path id="DejaVuSans-32" d="M 1228 531 
L 3431 531 
L 3431 0 
L 469 0 
L 469 531 
Q 828 903 1448 1529 
Q 2069 2156 2228 2338 
Q 2531 2678 2651 2914 
Q 2772 3150 2772 3378 
Q 2772 3750 2511 3984 
Q 2250 4219 1831 4219 
Q 1534 4219 1204 4116 
Q 875 4013 500 3803 
L 500 4441 
Q 881 4594 1212 4672 
Q 1544 4750 1819 4750 
Q 2544 4750 2975 4387 
Q 3406 4025 3406 3419 
Q 3406 3131 3298 2873 
Q 3191 2616 2906 2266 
Q 2828 2175 2409 1742 
Q 1991 1309 1228 531 
z
" transform="scale(0.015625)"/>
        <path id="DejaVuSans-30" d="M 2034 4250 
Q 1547 4250 1301 3770 
Q 1056 3291 1056 2328 
Q 1056 1369 1301 889 
Q 1547 409 2034 409 
Q 2525 409 2770 889 
Q 3016 1369 3016 2328 
Q 3016 3291 2770 3770 
Q 2525 4250 2034 4250 
z
M 2034 4750 
Q 2819 4750 3233 4129 
Q 3647 3509 3647 2328 
Q 3647 1150 3233 529 
Q 2819 -91 2034 -91 
Q 1250 -91 836 529 
Q 422 1150 422 2328 
Q 422 3509 836 4129 
Q 1250 4750 2034 4750 
z
" transform="scale(0.015625)"/>
        <path id="DejaVuSans-33" d="M 2597 2516 
Q 3050 2419 3304 2112 
Q 3559 1806 3559 1356 
Q 3559 666 3084 287 
Q 2609 -91 1734 -91 
Q 1441 -91 1130 -33 
Q 819 25 488 141 
L 488 750 
Q 750 597 1062 519 
Q 1375 441 1716 441 
Q 2309 441 2620 675 
Q 2931 909 2931 1356 
Q 2931 1769 2642 2001 
Q 2353 2234 1838 2234 
L 1294 2234 
L 1294 2753 
L 1863 2753 
Q 2328 2753 2575 2939 
Q 2822 3125 2822 3475 
Q 2822 3834 2567 4026 
Q 2313 4219 1838 4219 
Q 1578 4219 1281 4162 
Q 984 4106 628 3988 
L 628 4550 
Q 988 4650 1302 4700 
Q 1616 4750 1894 4750 
Q 2613 4750 3031 4423 
Q 3450 4097 3450 3541 
Q 3450 3153 3228 2886 
Q 3006 2619 2597 2516 
z
" transform="scale(0.015625)"/>
        <path id="DejaVuSans-2d" d="M 313 2009 
L 1997 2009 
L 1997 1497 
L 313 1497 
L 313 2009 
z
" transform="scale(0.015625)"/>
        <path id="DejaVuSans-31" d="M 794 531 
L 1825 531 
L 1825 4091 
L 703 3866 
L 703 4441 
L 1819 4666 
L 2450 4666 
L 2450 531 
L 3481 531 
L 3481 0 
L 794 0 
L 794 531 
z
" transform="scale(0.015625)"/>
       </defs>
       <use xlink:href="#DejaVuSans-32"/>
       <use xlink:href="#DejaVuSans-30" x="63.623047"/>
       <use xlink:href="#DejaVuSans-32" x="127.246094"/>
       <use xlink:href="#DejaVuSans-33" x="190.869141"/>
       <use xlink:href="#DejaVuSans-2d" x="254.492188"/>
       <use xlink:href="#DejaVuSans-30" x="290.576172"/>
       <use xlink:href="#DejaVuSans-31" x="354.199219"/>
       <use xlink:href="#DejaVuSans-2d" x="417.822266"/>
       <use xlink:href="#DejaVuSans-30" x="453.90625"/>
       <use xlink:href="#DejaVuSans-31" x="517.529297"/>
      </g>
     </g>
    </g>
    <g id="xtick_2">
     <g id="line2d_2">
      <g>
       <use xlink:href="#m8693b52c49" x="215.747918" y="395.28" style="stroke: #000000; stroke-width: 0.8"/>
      </g>
     </g>
     <g id="text_2">
      <!-- 2023-01-15 -->
      <g transform="translate(130.61889 495.213718) rotate(-45) scale(0.2 -0.2)">
       <defs>
        <path id="DejaVuSans-35" d="M 691 4666 
L 3169 4666 
L 3169 4134 
L 1269 4134 
L 1269 2991 
Q 1406 3038 1543 3061 
Q 1681 3084 1819 3084 
Q 2600 3084 3056 2656 
Q 3513 2228 3513 1497 
Q 3513 744 3044 326 
Q 2575 -91 1722 -91 
Q 1428 -91 1123 -41 
Q 819 9 494 109 
L 494 744 
Q 775 591 1075 516 
Q 1375 441 1709 441 
Q 2250 441 2565 725 
Q 2881 1009 2881 1497 
Q 2881 1984 2565 2268 
Q 2250 2553 1709 2553 
Q 1456 2553 1204 2497 
Q 953 2441 691 2322 
L 691 4666 
z
" transform="scale(0.015625)"/>
       </defs>
       <use xlink:href="#DejaVuSans-32"/>
       <use xlink:href="#DejaVuSans-30" x="63.623047"/>
       <use xlink:href="#DejaVuSans-32" x="127.246094"/>
       <use xlink:href="#DejaVuSans-33" x="190.869141"/>
       <use xlink:href="#DejaVuSans-2d" x="254.492188"/>
       <use xlink:href="#DejaVuSans-30" x="290.576172"/>
       <use xlink:href="#DejaVuSans-31" x="354.199219"/>
       <use xlink:href="#DejaVuSans-2d" x="417.822266"/>
       <use xlink:href="#DejaVuSans-31" x="453.90625"/>
       <use xlink:href="#DejaVuSans-35" x="517.529297"/>
      </g>
     </g>
    </g>
    <g id="xtick_3">
     <g id="line2d_3">
      <g>
       <use xlink:href="#m8693b52c49" x="328.420995" y="395.28" style="stroke: #000000; stroke-width: 0.8"/>
      </g>
     </g>
     <g id="text_3">
      <!-- 2023-01-29 -->
      <g transform="translate(243.291967 495.213718) rotate(-45) scale(0.2 -0.2)">
       <defs>
        <path id="DejaVuSans-39" d="M 703 97 
L 703 672 
Q 941 559 1184 500 
Q 1428 441 1663 441 
Q 2288 441 2617 861 
Q 2947 1281 2994 2138 
Q 2813 1869 2534 1725 
Q 2256 1581 1919 1581 
Q 1219 1581 811 2004 
Q 403 2428 403 3163 
Q 403 3881 828 4315 
Q 1253 4750 1959 4750 
Q 2769 4750 3195 4129 
Q 3622 3509 3622 2328 
Q 3622 1225 3098 567 
Q 2575 -91 1691 -91 
Q 1453 -91 1209 -44 
Q 966 3 703 97 
z
M 1959 2075 
Q 2384 2075 2632 2365 
Q 2881 2656 2881 3163 
Q 2881 3666 2632 3958 
Q 2384 4250 1959 4250 
Q 1534 4250 1286 3958 
Q 1038 3666 1038 3163 
Q 1038 2656 1286 2365 
Q 1534 2075 1959 2075 
z
" transform="scale(0.015625)"/>
       </defs>
       <use xlink:href="#DejaVuSans-32"/>
       <use xlink:href="#DejaVuSans-30" x="63.623047"/>
       <use xlink:href="#DejaVuSans-32" x="127.246094"/>
       <use xlink:href="#DejaVuSans-33" x="190.869141"/>
       <use xlink:href="#DejaVuSans-2d" x="254.492188"/>
       <use xlink:href="#DejaVuSans-30" x="290.576172"/>
       <use xlink:href="#DejaVuSans-31" x="354.199219"/>
       <use xlink:href="#DejaVuSans-2d" x="417.822266"/>
       <use xlink:href="#DejaVuSans-32" x="453.90625"/>
       <use xlink:href="#DejaVuSans-39" x="517.529297"/>
      </g>
     </g>
    </g>
    <g id="xtick_4">
     <g id="line2d_4">
      <g>
       <use xlink:href="#m8693b52c49" x="441.094071" y="395.28" style="stroke: #000000; stroke-width: 0.8"/>
      </g>
     </g>
     <g id="text_4">
      <!-- 2023-02-12 -->
      <g transform="translate(355.965044 495.213718) rotate(-45) scale(0.2 -0.2)">
       <use xlink:href="#DejaVuSans-32"/>
       <use xlink:href="#DejaVuSans-30" x="63.623047"/>
       <use xlink:href="#DejaVuSans-32" x="127.246094"/>
       <use xlink:href="#DejaVuSans-33" x="190.869141"/>
       <use xlink:href="#DejaVuSans-2d" x="254.492188"/>
       <use xlink:href="#DejaVuSans-30" x="290.576172"/>
       <use xlink:href="#DejaVuSans-32" x="354.199219"/>
       <use xlink:href="#DejaVuSans-2d" x="417.822266"/>
       <use xlink:href="#DejaVuSans-31" x="453.90625"/>
       <use xlink:href="#DejaVuSans-32" x="517.529297"/>
      </g>
     </g>
    </g>
    <g id="xtick_5">
     <g id="line2d_5">
      <g>
       <use xlink:href="#m8693b52c49" x="553.767148" y="395.28" style="stroke: #000000; stroke-width: 0.8"/>
      </g>
     </g>
     <g id="text_5">
      <!-- 2023-02-26 -->
      <g transform="translate(468.638121 495.213718) rotate(-45) scale(0.2 -0.2)">
       <defs>
        <path id="DejaVuSans-36" d="M 2113 2584 
Q 1688 2584 1439 2293 
Q 1191 2003 1191 1497 
Q 1191 994 1439 701 
Q 1688 409 2113 409 
Q 2538 409 2786 701 
Q 3034 994 3034 1497 
Q 3034 2003 2786 2293 
Q 2538 2584 2113 2584 
z
M 3366 4563 
L 3366 3988 
Q 3128 4100 2886 4159 
Q 2644 4219 2406 4219 
Q 1781 4219 1451 3797 
Q 1122 3375 1075 2522 
Q 1259 2794 1537 2939 
Q 1816 3084 2150 3084 
Q 2853 3084 3261 2657 
Q 3669 2231 3669 1497 
Q 3669 778 3244 343 
Q 2819 -91 2113 -91 
Q 1303 -91 875 529 
Q 447 1150 447 2328 
Q 447 3434 972 4092 
Q 1497 4750 2381 4750 
Q 2619 4750 2861 4703 
Q 3103 4656 3366 4563 
z
" transform="scale(0.015625)"/>
       </defs>
       <use xlink:href="#DejaVuSans-32"/>
       <use xlink:href="#DejaVuSans-30" x="63.623047"/>
       <use xlink:href="#DejaVuSans-32" x="127.246094"/>
       <use xlink:href="#DejaVuSans-33" x="190.869141"/>
       <use xlink:href="#DejaVuSans-2d" x="254.492188"/>
       <use xlink:href="#DejaVuSans-30" x="290.576172"/>
       <use xlink:href="#DejaVuSans-32" x="354.199219"/>
       <use xlink:href="#DejaVuSans-2d" x="417.822266"/>
       <use xlink:href="#DejaVuSans-32" x="453.90625"/>
       <use xlink:href="#DejaVuSans-36" x="517.529297"/>
      </g>
     </g>
    </g>
    <g id="xtick_6">
     <g id="line2d_6">
      <g>
       <use xlink:href="#m8693b52c49" x="666.440225" y="395.28" style="stroke: #000000; stroke-width: 0.8"/>
      </g>
     </g>
     <g id="text_6">
      <!-- 2023-03-12 -->
      <g transform="translate(581.311198 495.213718) rotate(-45) scale(0.2 -0.2)">
       <use xlink:href="#DejaVuSans-32"/>
       <use xlink:href="#DejaVuSans-30" x="63.623047"/>
       <use xlink:href="#DejaVuSans-32" x="127.246094"/>
       <use xlink:href="#DejaVuSans-33" x="190.869141"/>
       <use xlink:href="#DejaVuSans-2d" x="254.492188"/>
       <use xlink:href="#DejaVuSans-30" x="290.576172"/>
       <use xlink:href="#DejaVuSans-33" x="354.199219"/>
       <use xlink:href="#DejaVuSans-2d" x="417.822266"/>
       <use xlink:href="#DejaVuSans-31" x="453.90625"/>
       <use xlink:href="#DejaVuSans-32" x="517.529297"/>
      </g>
     </g>
    </g>
    <g id="xtick_7">
     <g id="line2d_7">
      <g>
       <use xlink:href="#m8693b52c49" x="779.113302" y="395.28" style="stroke: #000000; stroke-width: 0.8"/>
      </g>
     </g>
     <g id="text_7">
      <!-- 2023-03-26 -->
      <g transform="translate(693.984275 495.213718) rotate(-45) scale(0.2 -0.2)">
       <use xlink:href="#DejaVuSans-32"/>
       <use xlink:href="#DejaVuSans-30" x="63.623047"/>
       <use xlink:href="#DejaVuSans-32" x="127.246094"/>
       <use xlink:href="#DejaVuSans-33" x="190.869141"/>
       <use xlink:href="#DejaVuSans-2d" x="254.492188"/>
       <use xlink:href="#DejaVuSans-30" x="290.576172"/>
       <use xlink:href="#DejaVuSans-33" x="354.199219"/>
       <use xlink:href="#DejaVuSans-2d" x="417.822266"/>
       <use xlink:href="#DejaVuSans-32" x="453.90625"/>
       <use xlink:href="#DejaVuSans-36" x="517.529297"/>
      </g>
     </g>
    </g>
    <g id="xtick_8">
     <g id="line2d_8">
      <g>
       <use xlink:href="#m8693b52c49" x="891.786379" y="395.28" style="stroke: #000000; stroke-width: 0.8"/>
      </g>
     </g>
     <g id="text_8">
      <!-- 2023-04-09 -->
      <g transform="translate(806.657352 495.213718) rotate(-45) scale(0.2 -0.2)">
       <defs>
        <path id="DejaVuSans-34" d="M 2419 4116 
L 825 1625 
L 2419 1625 
L 2419 4116 
z
M 2253 4666 
L 3047 4666 
L 3047 1625 
L 3713 1625 
L 3713 1100 
L 3047 1100 
L 3047 0 
L 2419 0 
L 2419 1100 
L 313 1100 
L 313 1709 
L 2253 4666 
z
" transform="scale(0.015625)"/>
       </defs>
       <use xlink:href="#DejaVuSans-32"/>
       <use xlink:href="#DejaVuSans-30" x="63.623047"/>
       <use xlink:href="#DejaVuSans-32" x="127.246094"/>
       <use xlink:href="#DejaVuSans-33" x="190.869141"/>
       <use xlink:href="#DejaVuSans-2d" x="254.492188"/>
       <use xlink:href="#DejaVuSans-30" x="290.576172"/>
       <use xlink:href="#DejaVuSans-34" x="354.199219"/>
       <use xlink:href="#DejaVuSans-2d" x="417.822266"/>
       <use xlink:href="#DejaVuSans-30" x="453.90625"/>
       <use xlink:href="#DejaVuSans-39" x="517.529297"/>
      </g>
     </g>
    </g>
    <g id="xtick_9">
     <g id="line2d_9">
      <g>
       <use xlink:href="#m8693b52c49" x="940.074841" y="395.28" style="stroke: #000000; stroke-width: 0.8"/>
      </g>
     </g>
     <g id="text_9">
      <!-- 2023-04-15 -->
      <g transform="translate(854.945813 495.213718) rotate(-45) scale(0.2 -0.2)">
       <use xlink:href="#DejaVuSans-32"/>
       <use xlink:href="#DejaVuSans-30" x="63.623047"/>
       <use xlink:href="#DejaVuSans-32" x="127.246094"/>
       <use xlink:href="#DejaVuSans-33" x="190.869141"/>
       <use xlink:href="#DejaVuSans-2d" x="254.492188"/>
       <use xlink:href="#DejaVuSans-30" x="290.576172"/>
       <use xlink:href="#DejaVuSans-34" x="354.199219"/>
       <use xlink:href="#DejaVuSans-2d" x="417.822266"/>
       <use xlink:href="#DejaVuSans-31" x="453.90625"/>
       <use xlink:href="#DejaVuSans-35" x="517.529297"/>
      </g>
     </g>
    </g>
   </g>
   <g id="matplotlib.axis_2">
    <g id="ytick_1">
     <g id="line2d_10">
      <defs>
       <path id="m81096eca6d" d="M 0 0 
L -3.5 0 
" style="stroke: #000000; stroke-width: 0.8"/>
      </defs>
      <g>
       <use xlink:href="#m81096eca6d" x="103.074841" y="377.704641" style="stroke: #000000; stroke-width: 0.8"/>
      </g>
     </g>
     <g id="text_10">
      <!-- 0.00 -->
      <g transform="translate(51.543591 385.303079) scale(0.2 -0.2)">
       <defs>
        <path id="DejaVuSans-2e" d="M 684 794 
L 1344 794 
L 1344 0 
L 684 0 
L 684 794 
z
" transform="scale(0.015625)"/>
       </defs>
       <use xlink:href="#DejaVuSans-30"/>
       <use xlink:href="#DejaVuSans-2e" x="63.623047"/>
       <use xlink:href="#DejaVuSans-30" x="95.410156"/>
       <use xlink:href="#DejaVuSans-30" x="159.033203"/>
      </g>
     </g>
    </g>
    <g id="ytick_2">
     <g id="line2d_11">
      <g>
       <use xlink:href="#m81096eca6d" x="103.074841" y="310.149027" style="stroke: #000000; stroke-width: 0.8"/>
      </g>
     </g>
     <g id="text_11">
      <!-- 0.05 -->
      <g transform="translate(51.543591 317.747465) scale(0.2 -0.2)">
       <use xlink:href="#DejaVuSans-30"/>
       <use xlink:href="#DejaVuSans-2e" x="63.623047"/>
       <use xlink:href="#DejaVuSans-30" x="95.410156"/>
       <use xlink:href="#DejaVuSans-35" x="159.033203"/>
      </g>
     </g>
    </g>
    <g id="ytick_3">
     <g id="line2d_12">
      <g>
       <use xlink:href="#m81096eca6d" x="103.074841" y="242.593413" style="stroke: #000000; stroke-width: 0.8"/>
      </g>
     </g>
     <g id="text_12">
      <!-- 0.10 -->
      <g transform="translate(51.543591 250.19185) scale(0.2 -0.2)">
       <use xlink:href="#DejaVuSans-30"/>
       <use xlink:href="#DejaVuSans-2e" x="63.623047"/>
       <use xlink:href="#DejaVuSans-31" x="95.410156"/>
       <use xlink:href="#DejaVuSans-30" x="159.033203"/>
      </g>
     </g>
    </g>
    <g id="ytick_4">
     <g id="line2d_13">
      <g>
       <use xlink:href="#m81096eca6d" x="103.074841" y="175.037798" style="stroke: #000000; stroke-width: 0.8"/>
      </g>
     </g>
     <g id="text_13">
      <!-- 0.15 -->
      <g transform="translate(51.543591 182.636236) scale(0.2 -0.2)">
       <use xlink:href="#DejaVuSans-30"/>
       <use xlink:href="#DejaVuSans-2e" x="63.623047"/>
       <use xlink:href="#DejaVuSans-31" x="95.410156"/>
       <use xlink:href="#DejaVuSans-35" x="159.033203"/>
      </g>
     </g>
    </g>
    <g id="ytick_5">
     <g id="line2d_14">
      <g>
       <use xlink:href="#m81096eca6d" x="103.074841" y="107.482184" style="stroke: #000000; stroke-width: 0.8"/>
      </g>
     </g>
     <g id="text_14">
      <!-- 0.20 -->
      <g transform="translate(51.543591 115.080622) scale(0.2 -0.2)">
       <use xlink:href="#DejaVuSans-30"/>
       <use xlink:href="#DejaVuSans-2e" x="63.623047"/>
       <use xlink:href="#DejaVuSans-32" x="95.410156"/>
       <use xlink:href="#DejaVuSans-30" x="159.033203"/>
      </g>
     </g>
    </g>
    <g id="ytick_6">
     <g id="line2d_15">
      <g>
       <use xlink:href="#m81096eca6d" x="103.074841" y="39.92657" style="stroke: #000000; stroke-width: 0.8"/>
      </g>
     </g>
     <g id="text_15">
      <!-- 0.25 -->
      <g transform="translate(51.543591 47.525007) scale(0.2 -0.2)">
       <use xlink:href="#DejaVuSans-30"/>
       <use xlink:href="#DejaVuSans-2e" x="63.623047"/>
       <use xlink:href="#DejaVuSans-32" x="95.410156"/>
       <use xlink:href="#DejaVuSans-35" x="159.033203"/>
      </g>
     </g>
    </g>
   </g>
   <g id="line2d_16">
    <path d="M 0 0 
" clip-path="url(#pf47e56ad95)" style="fill: none; stroke: #ffa500; stroke-width: 1.5; stroke-linecap: square"/>
   </g>
   <g id="line2d_17">
    <path d="M 103.074841 377.704641 
L 948.274841 377.704641 
" clip-path="url(#pf47e56ad95)" style="fill: none; stroke-dasharray: 7.4,3.2; stroke-dashoffset: 0; stroke: #000000; stroke-width: 2"/>
   </g>
   <g id="patch_3">
    <path d="M 103.074841 395.28 
L 103.074841 7.2 
" style="fill: none; stroke: #000000; stroke-width: 0.8; stroke-linejoin: miter; stroke-linecap: square"/>
   </g>
   <g id="patch_4">
    <path d="M 940.074841 395.28 
L 940.074841 7.2 
" style="fill: none; stroke: #000000; stroke-width: 0.8; stroke-linejoin: miter; stroke-linecap: square"/>
   </g>
   <g id="patch_5">
    <path d="M 103.074841 395.28 
L 940.074841 395.28 
" style="fill: none; stroke: #000000; stroke-width: 0.8; stroke-linejoin: miter; stroke-linecap: square"/>
   </g>
   <g id="patch_6">
    <path d="M 103.074841 7.2 
L 940.074841 7.2 
" style="fill: none; stroke: #000000; stroke-width: 0.8; stroke-linejoin: miter; stroke-linecap: square"/>
   </g>
  </g>
 </g>
 <defs>
  <clipPath id="pf47e56ad95">
   <rect x="103.074841" y="7.2" width="837" height="388.08"/>
  </clipPath>
 </defs>
</svg>
