<?xml version="1.0" encoding="utf-8" standalone="no"?>
<!DOCTYPE svg PUBLIC "-//W3C//DTD SVG 1.1//EN"
  "http://www.w3.org/Graphics/SVG/1.1/DTD/svg11.dtd">
<svg xmlns:xlink="http://www.w3.org/1999/xlink" width="947.274841pt" height="505.354841pt" viewBox="0 0 947.274841 505.354841" xmlns="http://www.w3.org/2000/svg" version="1.1">
 <metadata>
  <rdf:RDF xmlns:dc="http://purl.org/dc/elements/1.1/" xmlns:cc="http://creativecommons.org/ns#" xmlns:rdf="http://www.w3.org/1999/02/22-rdf-syntax-ns#">
   <cc:Work>
    <dc:type rdf:resource="http://purl.org/dc/dcmitype/StillImage"/>
    <dc:date>2023-11-15T19:56:21.365157</dc:date>
    <dc:format>image/svg+xml</dc:format>
    <dc:creator>
     <cc:Agent>
      <dc:title>Matplotlib v3.7.2, https://matplotlib.org/</dc:title>
     </cc:Agent>
    </dc:creator>
   </cc:Work>
  </rdf:RDF>
 </metadata>
 <defs>
  <style type="text/css">*{stroke-linejoin: round; stroke-linecap: butt}</style>
 </defs>
 <g id="figure_1">
  <g id="patch_1">
   <path d="M 0 505.354841 
L 947.274841 505.354841 
L 947.274841 -0 
L 0 -0 
z
" style="fill: #ffffff"/>
  </g>
  <g id="axes_1">
   <g id="patch_2">
    <path d="M 103.074841 395.28 
L 940.074841 395.28 
L 940.074841 7.2 
L 103.074841 7.2 
z
" style="fill: #ffffff"/>
   </g>
   <g id="PolyCollection_1">
    <path d="M -393.000769 341.998109 
L -393.000769 342.001716 
L -390.959306 341.964572 
L -388.917842 341.945628 
L -386.876379 341.91693 
L -384.834915 341.912587 
L -382.793452 341.898979 
L -380.751989 341.875758 
L -378.710525 341.853561 
L -376.669062 341.836493 
L -374.627598 341.829061 
L -372.586135 341.812213 
L -370.544672 341.792372 
L -368.503208 341.776094 
L -366.461745 341.743632 
L -364.420281 341.726855 
L -362.378818 341.698217 
L -360.337354 341.683027 
L -358.295891 341.643134 
L -356.254428 341.622269 
L -354.212964 341.605859 
L -352.171501 341.576667 
L -350.130037 341.551907 
L -348.088574 341.531094 
L -346.047111 341.494133 
L -344.005647 341.474165 
L -341.964184 341.439899 
L -339.92272 341.407659 
L -337.881257 341.367204 
L -335.839793 341.326813 
L -333.79833 341.294286 
L -331.756867 341.247019 
L -329.715403 341.185009 
L -327.67394 341.147019 
L -325.632476 341.0956 
L -323.591013 341.027302 
L -321.54955 340.978578 
L -319.508086 340.907173 
L -317.466623 340.840117 
L -315.425159 340.774605 
L -313.383696 340.705399 
L -311.342232 340.620648 
L -309.300769 340.528929 
L -307.259306 340.430749 
L -305.217842 340.352345 
L -303.176379 340.235967 
L -301.134915 340.144878 
L -299.093452 340.043392 
L -297.051989 339.949781 
L -295.010525 339.840046 
L -292.969062 339.709884 
L -290.927598 339.615897 
L -288.886135 339.489688 
L -286.844672 339.357341 
L -284.803208 339.239897 
L -282.761745 339.133206 
L -280.720281 338.999634 
L -278.678818 338.867098 
L -276.637354 338.74108 
L -274.595891 338.602956 
L -272.554428 338.464988 
L -270.512964 338.333746 
L -268.471501 338.192349 
L -266.430037 338.054822 
L -264.388574 337.929435 
L -262.347111 337.789021 
L -260.305647 337.618942 
L -258.264184 337.467911 
L -256.22272 337.320424 
L -254.181257 337.182117 
L -252.139793 337.024735 
L -250.09833 336.879268 
L -248.056867 336.724814 
L -246.015403 336.617759 
L -243.97394 336.428674 
L -241.932476 336.308409 
L -239.891013 336.142083 
L -237.84955 335.997579 
L -235.808086 335.827336 
L -233.766623 335.70484 
L -231.725159 335.515572 
L -229.683696 335.355062 
L -227.642232 335.218825 
L -225.600769 335.04212 
L -223.559306 334.889775 
L -221.517842 334.716604 
L -219.476379 334.545474 
L -217.434915 334.389744 
L -215.393452 334.24274 
L -213.351989 334.060498 
L -211.310525 333.90006 
L -209.269062 333.735196 
L -207.227598 333.576092 
L -205.186135 333.425139 
L -203.144672 333.26059 
L -201.103208 333.0969 
L -199.061745 332.980919 
L -197.020281 332.806908 
L -194.978818 332.65056 
L -192.937354 332.498842 
L -190.895891 332.354591 
L -188.854428 332.211212 
L -186.812964 332.060336 
L -184.771501 331.928768 
L -182.730037 331.778812 
L -180.688574 331.617229 
L -178.647111 331.450581 
L -176.605647 331.279553 
L -174.564184 331.139229 
L -172.52272 330.956928 
L -170.481257 330.745409 
L -168.439793 330.568113 
L -166.39833 330.368225 
L -164.356867 330.164676 
L -162.315403 329.93693 
L -160.27394 329.704325 
L -158.232476 329.515641 
L -156.191013 329.259998 
L -154.14955 329.038483 
L -152.108086 328.780098 
L -150.066623 328.575614 
L -148.025159 328.280197 
L -145.983696 328.003005 
L -143.942232 327.748891 
L -141.900769 327.489437 
L -139.859306 327.216158 
L -137.817842 326.919532 
L -135.776379 326.670745 
L -133.734915 326.336221 
L -131.693452 326.094438 
L -129.651989 325.750644 
L -127.610525 325.435831 
L -125.569062 325.144077 
L -123.527598 324.887549 
L -121.486135 324.525413 
L -119.444672 324.245874 
L -117.403208 323.781845 
L -115.361745 323.451623 
L -113.320281 323.182997 
L -111.278818 322.8309 
L -109.237354 322.468844 
L -107.195891 321.99252 
L -105.154428 321.589738 
L -103.112964 321.349807 
L -101.071501 320.689463 
L -99.030037 320.279907 
L -96.988574 319.868368 
L -94.947111 319.440678 
L -92.905647 318.894915 
L -90.864184 318.440507 
L -88.82272 318.273086 
L -86.781257 317.906594 
L -84.739793 316.90402 
L -82.69833 316.198702 
L -80.656867 315.891008 
L -78.615403 315.205082 
L -76.57394 314.791862 
L -74.532476 314.557287 
L -72.491013 313.804464 
L -70.44955 312.853961 
L -68.408086 312.492206 
L -66.366623 312.588715 
L -64.325159 311.979294 
L -62.283696 312.210842 
L -60.242232 312.041746 
L -58.200769 311.324414 
L -56.159306 311.957153 
L -54.117842 313.154526 
L -52.076379 315.023033 
L -50.034915 314.252422 
L -47.993452 317.624999 
L -45.951989 318.918621 
L -43.910525 315.709204 
L -41.869062 317.331698 
L -39.827598 319.546648 
L -37.786135 319.061928 
L -35.744672 319.346491 
L -33.703208 326.954187 
L -31.661745 337.540803 
L -29.620281 343.019415 
L -27.578818 332.353641 
L -25.537354 338.471811 
L -23.495891 346.18836 
L -21.454428 346.088594 
L -19.412964 361.437739 
L -17.371501 359.526095 
L -15.330037 355.204321 
L -13.288574 343.897791 
L -11.247111 354.938687 
L -9.205647 361.565295 
L -7.164184 358.872213 
L -5.12272 360.820726 
L -3.081257 366.922056 
L -1.039793 366.188152 
L 1.00167 361.256108 
L 3.043133 367.807849 
L 5.084597 369.424051 
L 7.12606 367.101546 
L 9.167524 371.602879 
L 11.208987 373.240406 
L 13.25045 373.066918 
L 15.291914 371.842753 
L 17.333377 373.350985 
L 19.374841 372.042437 
L 21.416304 372.318107 
L 23.457768 373.86602 
L 25.499231 372.901419 
L 27.540694 373.739195 
L 29.582158 374.050962 
L 31.623621 373.089493 
L 33.665085 373.771993 
L 35.706548 372.179204 
L 37.748011 372.801495 
L 39.789475 373.529322 
L 41.830938 373.87398 
L 43.872402 373.319867 
L 45.913865 372.853548 
L 47.955328 373.038765 
L 49.996792 372.66481 
L 52.038255 372.907487 
L 54.079719 373.114591 
L 56.121182 372.323554 
L 58.162646 373.299518 
L 60.204109 372.877602 
L 62.245572 372.784298 
L 64.287036 373.359661 
L 66.328499 372.973864 
L 68.369963 373.164022 
L 70.411426 373.807792 
L 72.452889 374.588938 
L 74.494353 373.682763 
L 76.535816 373.446786 
L 78.57728 373.822262 
L 80.618743 376.221244 
L 82.660207 376.565052 
L 84.70167 377.64 
L 86.743133 375.85012 
L 88.784597 374.924628 
L 90.82606 375.512889 
L 92.867524 377.065278 
L 94.908987 377.460345 
L 96.95045 375.365013 
L 98.991914 377.457079 
L 101.033377 376.740759 
L 103.074841 376.717889 
L 105.116304 375.652995 
L 107.157768 376.576066 
L 109.199231 376.214734 
L 111.240694 376.814109 
L 113.282158 376.014321 
L 115.323621 375.468012 
L 117.365085 374.473602 
L 119.406548 374.038978 
L 121.448011 373.62592 
L 123.489475 372.900037 
L 125.530938 372.753349 
L 127.572402 372.019711 
L 129.613865 371.219424 
L 131.655328 369.697341 
L 133.696792 368.376428 
L 135.738255 367.635439 
L 137.779719 366.251642 
L 139.821182 365.830457 
L 141.862646 364.607333 
L 143.904109 362.884663 
L 145.945572 361.467587 
L 147.987036 360.186425 
L 150.028499 358.471768 
L 152.069963 357.173897 
L 154.111426 355.615388 
L 156.152889 354.157578 
L 158.194353 352.370576 
L 160.235816 350.696381 
L 162.27728 348.949581 
L 164.318743 347.324841 
L 166.360207 345.662772 
L 168.40167 343.55457 
L 170.443133 341.604841 
L 172.484597 339.698803 
L 174.52606 338.296948 
L 176.567524 336.169389 
L 178.608987 334.368262 
L 180.65045 332.355117 
L 182.691914 329.502225 
L 184.733377 328.133675 
L 186.774841 325.747513 
L 188.816304 323.827617 
L 190.857768 321.62047 
L 192.899231 319.165651 
L 194.940694 316.907666 
L 196.982158 314.629137 
L 199.023621 311.78498 
L 201.065085 309.768246 
L 203.106548 306.983152 
L 205.148011 305.07614 
L 207.189475 302.195122 
L 209.230938 299.354519 
L 211.272402 296.864547 
L 213.313865 294.747287 
L 215.355328 291.499895 
L 217.396792 289.133489 
L 219.438255 286.222224 
L 221.479719 283.797386 
L 223.521182 280.734082 
L 225.562646 277.930619 
L 227.604109 277.332511 
L 229.645572 272.246359 
L 231.687036 271.136293 
L 233.728499 268.029673 
L 235.769963 265.654969 
L 237.811426 262.928116 
L 239.852889 260.116949 
L 241.894353 257.420673 
L 243.935816 254.940985 
L 245.97728 252.601903 
L 248.018743 250.146406 
L 250.060207 251.253071 
L 252.10167 244.870118 
L 254.143133 243.221272 
L 256.184597 247.025874 
L 258.22606 239.926834 
L 260.267524 240.426551 
L 262.308987 239.229263 
L 264.35045 235.084962 
L 266.391914 235.300173 
L 268.433377 237.86623 
L 270.474841 234.754229 
L 272.516304 233.176769 
L 274.557768 234.848297 
L 276.599231 233.639412 
L 278.640694 234.47209 
L 280.682158 236.092237 
L 282.723621 238.401069 
L 284.765085 245.934177 
L 286.806548 243.292722 
L 288.848011 246.894348 
L 290.889475 249.534182 
L 292.930938 250.845228 
L 294.972402 254.498199 
L 297.013865 256.319568 
L 299.055328 250.359857 
L 301.096792 254.454097 
L 303.138255 260.623503 
L 305.179719 263.106716 
L 307.221182 262.988045 
L 309.262646 270.800896 
L 311.304109 270.396251 
L 313.345572 271.16225 
L 315.387036 270.131214 
L 317.428499 276.145657 
L 319.469963 272.617967 
L 321.511426 270.519312 
L 323.552889 274.799814 
L 325.594353 279.164547 
L 327.635816 276.663834 
L 329.67728 278.071211 
L 331.718743 277.821771 
L 333.760207 276.678074 
L 335.80167 274.750352 
L 337.843133 274.842545 
L 339.884597 274.206432 
L 341.92606 277.998013 
L 343.967524 273.518039 
L 346.008987 276.603442 
L 348.05045 274.225508 
L 350.091914 271.879325 
L 352.133377 272.504684 
L 354.174841 271.935295 
L 356.216304 268.262687 
L 358.257768 267.321957 
L 360.299231 265.439169 
L 362.340694 266.637586 
L 364.382158 263.719572 
L 366.423621 261.647718 
L 368.465085 259.775785 
L 370.506548 259.513702 
L 372.548011 257.059235 
L 374.589475 254.043973 
L 376.630938 253.804488 
L 378.672402 250.745785 
L 380.713865 250.273932 
L 382.755328 253.403772 
L 384.796792 252.395053 
L 386.838255 249.390443 
L 388.879719 248.019601 
L 390.921182 247.422304 
L 392.962646 244.181886 
L 395.004109 243.868437 
L 397.045572 242.95017 
L 399.087036 241.523102 
L 401.128499 239.943723 
L 403.169963 237.529003 
L 405.211426 237.446101 
L 407.252889 235.499912 
L 409.294353 234.321487 
L 411.335816 232.832907 
L 413.37728 231.945002 
L 415.418743 229.873749 
L 417.460207 226.894428 
L 419.50167 225.88709 
L 421.543133 223.322579 
L 423.584597 220.043429 
L 425.62606 220.964255 
L 427.667524 216.853022 
L 429.708987 217.432076 
L 431.75045 216.034543 
L 433.791914 215.521795 
L 435.833377 212.685685 
L 437.874841 211.84258 
L 439.916304 210.86979 
L 441.957768 207.59951 
L 443.999231 207.651968 
L 446.040694 206.840104 
L 448.082158 206.175278 
L 450.123621 204.38929 
L 452.165085 204.470402 
L 454.206548 202.688065 
L 456.248011 200.997968 
L 458.289475 198.614112 
L 460.330938 197.576944 
L 462.372402 196.770701 
L 464.413865 195.03725 
L 466.455328 194.881803 
L 468.496792 193.874372 
L 470.538255 192.336677 
L 472.579719 192.06828 
L 474.621182 190.396822 
L 476.662646 191.251253 
L 478.704109 190.018827 
L 480.745572 189.798124 
L 482.787036 187.830969 
L 484.828499 185.251741 
L 486.869963 186.995093 
L 488.911426 186.699875 
L 490.952889 185.717708 
L 492.994353 184.717453 
L 495.035816 182.889578 
L 497.07728 182.328589 
L 499.118743 181.251072 
L 501.160207 181.209626 
L 503.20167 180.702494 
L 505.243133 178.989131 
L 507.284597 176.632047 
L 509.32606 179.33243 
L 511.367524 178.495398 
L 513.408987 176.473957 
L 515.45045 177.506825 
L 517.491914 174.013153 
L 519.533377 174.269449 
L 521.574841 174.326465 
L 523.616304 171.900935 
L 525.657768 175.590176 
L 527.699231 171.54347 
L 529.740694 169.396687 
L 531.782158 171.7301 
L 533.823621 172.207899 
L 535.865085 170.759822 
L 537.906548 171.511542 
L 539.948011 169.491474 
L 541.989475 172.688527 
L 544.030938 170.650229 
L 546.072402 171.068629 
L 548.113865 168.398597 
L 550.155328 165.961039 
L 552.196792 168.321369 
L 554.238255 172.80658 
L 556.279719 166.939656 
L 558.321182 166.878433 
L 560.362646 164.448614 
L 562.404109 165.049997 
L 564.445572 164.400737 
L 566.487036 162.756092 
L 568.528499 161.922004 
L 570.569963 163.928887 
L 572.611426 162.363568 
L 574.652889 164.192289 
L 576.694353 164.284529 
L 578.735816 157.725051 
L 580.77728 160.04766 
L 582.818743 160.02216 
L 584.860207 160.243071 
L 586.90167 160.436785 
L 588.943133 164.281539 
L 590.984597 165.730603 
L 593.02606 165.415574 
L 595.067524 169.727263 
L 597.108987 176.957347 
L 599.15045 168.130037 
L 601.191914 167.958075 
L 603.233377 168.089109 
L 605.274841 170.952221 
L 607.316304 171.580493 
L 609.357768 171.528821 
L 611.399231 177.811532 
L 613.440694 180.101935 
L 615.482158 172.876193 
L 617.523621 179.331859 
L 619.565085 176.069758 
L 621.606548 174.011846 
L 623.648011 181.84468 
L 625.689475 180.183293 
L 627.730938 185.190526 
L 629.772402 183.521997 
L 631.813865 179.947207 
L 633.855328 183.01045 
L 635.896792 182.866042 
L 637.938255 185.852247 
L 639.979719 183.705113 
L 642.021182 188.709975 
L 644.062646 184.791347 
L 646.104109 187.336182 
L 648.145572 186.574571 
L 650.187036 189.387126 
L 652.228499 184.315411 
L 654.269963 189.318064 
L 656.311426 188.816157 
L 658.352889 192.164083 
L 660.394353 193.824832 
L 662.435816 193.615684 
L 664.47728 192.482888 
L 666.518743 194.556546 
L 668.560207 196.046676 
L 670.60167 194.300932 
L 672.643133 193.51211 
L 674.684597 195.308449 
L 676.72606 196.92097 
L 678.767524 193.537173 
L 680.808987 191.50501 
L 682.85045 198.561394 
L 684.891914 201.657634 
L 686.933377 194.03216 
L 688.974841 196.030651 
L 691.016304 196.943395 
L 693.057768 197.293471 
L 695.099231 200.845962 
L 697.140694 200.2049 
L 699.182158 198.533064 
L 701.223621 200.016864 
L 703.265085 200.317543 
L 705.306548 196.187364 
L 707.348011 198.101155 
L 709.389475 196.751213 
L 711.430938 202.208332 
L 713.472402 208.956535 
L 715.513865 207.90844 
L 717.555328 202.434443 
L 719.596792 201.808535 
L 721.638255 202.516098 
L 723.679719 202.749496 
L 725.721182 207.802792 
L 727.762646 201.336426 
L 729.804109 208.115594 
L 731.845572 213.574994 
L 733.887036 209.035772 
L 735.928499 216.066559 
L 737.969963 211.705872 
L 740.011426 215.561623 
L 742.052889 213.075214 
L 744.094353 215.00617 
L 746.135816 218.809611 
L 748.17728 218.604248 
L 750.218743 219.812952 
L 752.260207 220.172167 
L 754.30167 220.620976 
L 756.343133 211.50616 
L 758.384597 223.374992 
L 760.42606 228.291333 
L 762.467524 223.63602 
L 764.508987 227.984698 
L 766.55045 228.969399 
L 768.591914 226.560669 
L 770.633377 231.464985 
L 772.674841 234.76764 
L 774.716304 232.91938 
L 776.757768 234.250007 
L 778.799231 235.029484 
L 780.840694 236.261342 
L 782.882158 240.009594 
L 784.923621 232.579596 
L 786.965085 241.987554 
L 789.006548 242.275401 
L 791.048011 242.745395 
L 793.089475 237.022523 
L 795.130938 244.147329 
L 797.172402 248.888479 
L 799.213865 244.140929 
L 801.255328 244.70044 
L 803.296792 251.274378 
L 805.338255 239.83807 
L 807.379719 250.526784 
L 809.421182 243.833895 
L 811.462646 253.157733 
L 813.504109 248.717513 
L 815.545572 252.727155 
L 817.587036 253.941911 
L 819.628499 255.657401 
L 821.669963 256.138499 
L 823.711426 253.578855 
L 825.752889 253.594759 
L 827.794353 254.799574 
L 829.835816 259.018757 
L 831.87728 258.427074 
L 833.918743 258.238236 
L 835.960207 260.795779 
L 838.00167 260.928825 
L 840.043133 258.798536 
L 842.084597 259.119949 
L 844.12606 263.049876 
L 846.167524 263.604902 
L 848.208987 264.55829 
L 850.25045 261.360253 
L 852.291914 256.615057 
L 854.333377 261.866253 
L 856.374841 260.261988 
L 858.416304 261.680546 
L 860.457768 263.947361 
L 862.499231 261.063834 
L 864.540694 264.777539 
L 866.582158 262.108704 
L 868.623621 261.714693 
L 870.665085 261.512485 
L 872.706548 264.76236 
L 874.748011 263.897721 
L 876.789475 263.568537 
L 878.830938 261.152012 
L 880.872402 262.383267 
L 882.913865 262.891391 
L 884.955328 262.175538 
L 886.996792 264.282724 
L 889.038255 263.738531 
L 891.079719 264.921232 
L 893.121182 266.242492 
L 895.162646 266.085626 
L 897.204109 264.722915 
L 899.245572 265.045628 
L 901.287036 264.194118 
L 903.328499 265.2088 
L 905.369963 265.403127 
L 907.411426 263.869067 
L 909.452889 265.558661 
L 911.494353 258.13584 
L 913.535816 265.5291 
L 915.57728 268.283572 
L 917.618743 265.296445 
L 919.660207 265.292739 
L 921.70167 268.055191 
L 923.743133 268.159067 
L 925.784597 265.562135 
L 927.82606 265.399785 
L 929.867524 267.16682 
L 931.908987 266.590975 
L 933.95045 269.953703 
L 935.991914 268.852533 
L 938.033377 271.244176 
L 940.074841 267.893544 
L 940.074841 189.135534 
L 940.074841 189.135534 
L 938.033377 186.517878 
L 935.991914 182.914088 
L 933.95045 186.814995 
L 931.908987 179.08652 
L 929.867524 181.096395 
L 927.82606 179.930499 
L 925.784597 171.901079 
L 923.743133 182.087892 
L 921.70167 187.525531 
L 919.660207 172.375301 
L 917.618743 178.8839 
L 915.57728 185.147308 
L 913.535816 181.011917 
L 911.494353 131.466066 
L 909.452889 179.511781 
L 907.411426 170.56208 
L 905.369963 180.293633 
L 903.328499 179.708949 
L 901.287036 176.164841 
L 899.245572 176.742401 
L 897.204109 176.013138 
L 895.162646 181.859639 
L 893.121182 182.370219 
L 891.079719 175.501163 
L 889.038255 171.108948 
L 886.996792 175.605655 
L 884.955328 169.17175 
L 882.913865 172.376739 
L 880.872402 168.845253 
L 878.830938 164.236325 
L 876.789475 171.943227 
L 874.748011 173.298078 
L 872.706548 173.904189 
L 870.665085 166.228534 
L 868.623621 165.045682 
L 866.582158 165.315753 
L 864.540694 175.539532 
L 862.499231 162.923619 
L 860.457768 172.528327 
L 858.416304 165.471729 
L 856.374841 160.331165 
L 854.333377 165.825962 
L 852.291914 145.418668 
L 850.25045 164.918203 
L 848.208987 173.416397 
L 846.167524 170.311257 
L 844.12606 169.230696 
L 842.084597 153.144242 
L 840.043133 154.373034 
L 838.00167 161.145011 
L 835.960207 161.52363 
L 833.918743 153.02215 
L 831.87728 154.349409 
L 829.835816 154.35665 
L 827.794353 146.089472 
L 825.752889 139.091992 
L 823.711426 138.206493 
L 821.669963 145.945899 
L 819.628499 144.785748 
L 817.587036 141.591877 
L 815.545572 138.284622 
L 813.504109 125.639033 
L 811.462646 139.904255 
L 809.421182 105.987147 
L 807.379719 130.210118 
L 805.338255 97.949279 
L 803.296792 134.429179 
L 801.255328 115.415682 
L 799.213865 115.755354 
L 797.172402 126.617086 
L 795.130938 115.29785 
L 793.089475 94.083237 
L 791.048011 110.707473 
L 789.006548 111.015731 
L 786.965085 110.996653 
L 784.923621 86.153226 
L 782.882158 99.383486 
L 780.840694 96.950348 
L 778.799231 95.777592 
L 776.757768 93.574556 
L 774.716304 88.850977 
L 772.674841 94.651599 
L 770.633377 85.874315 
L 768.591914 74.757776 
L 766.55045 85.008228 
L 764.508987 77.908464 
L 762.467524 71.62185 
L 760.42606 83.320244 
L 758.384597 71.740257 
L 756.343133 41.158561 
L 754.30167 64.431835 
L 752.260207 64.067971 
L 750.218743 64.651032 
L 748.17728 62.41158 
L 746.135816 63.06866 
L 744.094353 55.140023 
L 742.052889 52.189834 
L 740.011426 59.26634 
L 737.969963 47.528106 
L 735.928499 60.662984 
L 733.887036 44.183725 
L 731.845572 54.569498 
L 729.804109 43.822696 
L 727.762646 30.388053 
L 725.721182 43.922384 
L 723.679719 32.258216 
L 721.638255 33.758811 
L 719.596792 33.888503 
L 717.555328 35.764417 
L 715.513865 48.072839 
L 713.472402 51.545203 
L 711.430938 38.351001 
L 709.389475 24.84 
L 707.348011 29.600358 
L 705.306548 27.51415 
L 703.265085 37.257018 
L 701.223621 37.152911 
L 699.182158 34.393572 
L 697.140694 39.888266 
L 695.099231 40.389731 
L 693.057768 34.061145 
L 691.016304 35.839855 
L 688.974841 33.96389 
L 686.933377 31.456992 
L 684.891914 48.667996 
L 682.85045 40.463782 
L 680.808987 28.904153 
L 678.767524 35.876923 
L 676.72606 42.224018 
L 674.684597 39.682592 
L 672.643133 37.967237 
L 670.60167 41.099325 
L 668.560207 47.757861 
L 666.518743 42.663752 
L 664.47728 41.442772 
L 662.435816 44.962948 
L 660.394353 42.168821 
L 658.352889 44.427172 
L 656.311426 37.77198 
L 654.269963 41.593772 
L 652.228499 33.262751 
L 650.187036 42.35106 
L 648.145572 39.592628 
L 646.104109 42.867999 
L 644.062646 41.334477 
L 642.021182 47.257785 
L 639.979719 39.902573 
L 637.938255 46.15765 
L 635.896792 41.877809 
L 633.855328 43.87558 
L 631.813865 40.718012 
L 629.772402 43.853378 
L 627.730938 50.72854 
L 625.689475 45.933702 
L 623.648011 48.258612 
L 621.606548 37.912035 
L 619.565085 44.035871 
L 617.523621 47.590559 
L 615.482158 39.839843 
L 613.440694 50.429301 
L 611.399231 52.109244 
L 609.357768 42.091868 
L 607.316304 43.238466 
L 605.274841 43.437754 
L 603.233377 40.487612 
L 601.191914 44.218541 
L 599.15045 44.276518 
L 597.108987 58.178816 
L 595.067524 50.426534 
L 593.02606 45.023618 
L 590.984597 46.355423 
L 588.943133 45.63579 
L 586.90167 42.92694 
L 584.860207 45.587664 
L 582.818743 44.230573 
L 580.77728 48.525094 
L 578.735816 46.027252 
L 576.694353 54.675822 
L 574.652889 57.033738 
L 572.611426 56.755536 
L 570.569963 59.778829 
L 568.528499 58.426484 
L 566.487036 61.999653 
L 564.445572 64.674236 
L 562.404109 69.491711 
L 560.362646 68.169088 
L 558.321182 73.369865 
L 556.279719 73.995521 
L 554.238255 82.450991 
L 552.196792 79.014847 
L 550.155328 77.794855 
L 548.113865 82.123954 
L 546.072402 84.773955 
L 544.030938 86.135552 
L 541.989475 91.453493 
L 539.948011 89.120858 
L 537.906548 93.038869 
L 535.865085 92.871051 
L 533.823621 94.6547 
L 531.782158 94.58961 
L 529.740694 93.95983 
L 527.699231 98.306886 
L 525.657768 103.722392 
L 523.616304 100.34086 
L 521.574841 103.920748 
L 519.533377 103.85069 
L 517.491914 106.327922 
L 515.45045 110.702205 
L 513.408987 110.587747 
L 511.367524 114.318161 
L 509.32606 116.050089 
L 507.284597 114.011973 
L 505.243133 116.82043 
L 503.20167 119.834223 
L 501.160207 121.570233 
L 499.118743 122.503577 
L 497.07728 124.940875 
L 495.035816 125.737276 
L 492.994353 128.863712 
L 490.952889 130.474282 
L 488.911426 131.976645 
L 486.869963 133.430355 
L 484.828499 130.652913 
L 482.787036 135.780702 
L 480.745572 138.422721 
L 478.704109 138.897798 
L 476.662646 139.949778 
L 474.621182 140.972822 
L 472.579719 143.100974 
L 470.538255 143.687877 
L 468.496792 146.383734 
L 466.455328 147.884568 
L 464.413865 148.443505 
L 462.372402 149.948919 
L 460.330938 151.742962 
L 458.289475 153.574447 
L 456.248011 157.590244 
L 454.206548 159.193167 
L 452.165085 161.566875 
L 450.123621 161.787185 
L 448.082158 164.109686 
L 446.040694 165.074597 
L 443.999231 166.444273 
L 441.957768 165.737323 
L 439.916304 171.103288 
L 437.874841 172.275373 
L 435.833377 173.537293 
L 433.791914 177.197671 
L 431.75045 177.808853 
L 429.708987 179.788556 
L 427.667524 179.493318 
L 425.62606 184.140336 
L 423.584597 183.548069 
L 421.543133 188.242803 
L 419.50167 191.444516 
L 417.460207 193.004956 
L 415.418743 197.107028 
L 413.37728 200.101244 
L 411.335816 201.073548 
L 409.294353 203.197063 
L 407.252889 204.581683 
L 405.211426 207.321344 
L 403.169963 207.491498 
L 401.128499 210.759193 
L 399.087036 213.329813 
L 397.045572 215.141438 
L 395.004109 216.560377 
L 392.962646 217.373407 
L 390.921182 221.21951 
L 388.879719 222.363381 
L 386.838255 224.52482 
L 384.796792 227.96423 
L 382.755328 229.325599 
L 380.713865 226.777821 
L 378.672402 227.812886 
L 376.630938 231.288226 
L 374.589475 231.762907 
L 372.548011 234.269951 
L 370.506548 236.223492 
L 368.465085 235.559039 
L 366.423621 236.142381 
L 364.382158 237.757932 
L 362.340694 240.394756 
L 360.299231 237.998741 
L 358.257768 239.104772 
L 356.216304 239.053897 
L 354.174841 242.52976 
L 352.133377 241.94919 
L 350.091914 240.623656 
L 348.05045 242.35077 
L 346.008987 244.446221 
L 343.967524 240.167001 
L 341.92606 244.462512 
L 339.884597 239.552055 
L 337.843133 239.446236 
L 335.80167 238.653829 
L 333.760207 239.907985 
L 331.718743 240.722121 
L 329.67728 241.036893 
L 327.635816 238.250423 
L 325.594353 240.334434 
L 323.552889 234.297897 
L 321.511426 227.000806 
L 319.469963 229.335249 
L 317.428499 233.077385 
L 315.387036 223.886589 
L 313.345572 225.138301 
L 311.304109 222.883176 
L 309.262646 222.539502 
L 307.221182 210.332743 
L 305.179719 208.807022 
L 303.138255 204.645885 
L 301.096792 195.448533 
L 299.055328 187.936449 
L 297.013865 195.661783 
L 294.972402 191.664072 
L 292.930938 185.340798 
L 290.889475 182.845104 
L 288.848011 178.441117 
L 286.806548 172.531689 
L 284.765085 175.092909 
L 282.723621 164.970896 
L 280.682158 159.79693 
L 278.640694 157.666026 
L 276.599231 155.984073 
L 274.557768 157.44372 
L 272.516304 155.329155 
L 270.474841 157.890721 
L 268.433377 161.169095 
L 266.391914 156.838039 
L 264.35045 156.90119 
L 262.308987 162.06209 
L 260.267524 163.681268 
L 258.22606 162.505396 
L 256.184597 172.581334 
L 254.143133 166.591756 
L 252.10167 169.50073 
L 250.060207 177.35324 
L 248.018743 176.027303 
L 245.97728 179.353115 
L 243.935816 182.413194 
L 241.894353 185.891981 
L 239.852889 189.242289 
L 237.811426 192.951817 
L 235.769963 196.43756 
L 233.728499 199.420367 
L 231.687036 203.73939 
L 229.645572 205.320358 
L 227.604109 211.787674 
L 225.562646 212.74769 
L 223.521182 216.344542 
L 221.479719 220.422398 
L 219.438255 223.644727 
L 217.396792 227.578927 
L 215.355328 230.59398 
L 213.313865 234.84228 
L 211.272402 237.687216 
L 209.230938 241.143177 
L 207.189475 244.775163 
L 205.148011 248.544677 
L 203.106548 251.186239 
L 201.065085 254.9011 
L 199.023621 257.480696 
L 196.982158 261.253218 
L 194.940694 264.244655 
L 192.899231 267.458886 
L 190.857768 270.580271 
L 188.816304 273.54706 
L 186.774841 276.187448 
L 184.733377 279.400671 
L 182.691914 281.384438 
L 180.65045 285.042086 
L 178.608987 287.776313 
L 176.567524 290.131744 
L 174.52606 292.943858 
L 172.484597 295.347911 
L 170.443133 297.447612 
L 168.40167 300.10747 
L 166.360207 302.907563 
L 164.318743 305.165572 
L 162.27728 307.278962 
L 160.235816 309.796766 
L 158.194353 311.797668 
L 156.152889 314.104954 
L 154.111426 316.058578 
L 152.069963 318.181165 
L 150.028499 319.826483 
L 147.987036 322.108047 
L 145.945572 323.734804 
L 143.904109 325.68091 
L 141.862646 327.897771 
L 139.821182 329.586247 
L 137.779719 330.38929 
L 135.738255 332.179119 
L 133.696792 333.224084 
L 131.655328 334.895201 
L 129.613865 336.93315 
L 127.572402 338.021426 
L 125.530938 339.052332 
L 123.489475 339.653693 
L 121.448011 340.680775 
L 119.406548 341.539277 
L 117.365085 342.42449 
L 115.323621 343.803219 
L 113.282158 344.747326 
L 111.240694 345.822691 
L 109.199231 345.724146 
L 107.157768 346.580576 
L 105.116304 346.064837 
L 103.074841 347.422328 
L 101.033377 348.050689 
L 98.991914 348.827068 
L 96.95045 347.206157 
L 94.908987 349.727839 
L 92.867524 349.783251 
L 90.82606 348.742606 
L 88.784597 348.595521 
L 86.743133 349.949334 
L 84.70167 352.023886 
L 82.660207 351.485489 
L 80.618743 351.625318 
L 78.57728 349.834457 
L 76.535816 350.327506 
L 74.494353 350.629135 
L 72.452889 351.868648 
L 70.411426 351.599423 
L 68.369963 351.459604 
L 66.328499 351.710001 
L 64.287036 352.476897 
L 62.245572 352.533102 
L 60.204109 352.902649 
L 58.162646 353.670272 
L 56.121182 353.234433 
L 54.079719 354.353179 
L 52.038255 354.551536 
L 49.996792 354.728823 
L 47.955328 355.501606 
L 45.913865 355.737059 
L 43.872402 356.446903 
L 41.830938 357.273664 
L 39.789475 357.336798 
L 37.748011 356.995333 
L 35.706548 356.971028 
L 33.665085 358.573563 
L 31.623621 358.273207 
L 29.582158 359.415648 
L 27.540694 359.468012 
L 25.499231 358.871293 
L 23.457768 360.258312 
L 21.416304 358.942648 
L 19.374841 358.880621 
L 17.333377 360.437409 
L 15.291914 359.04981 
L 13.25045 360.462958 
L 11.208987 360.968885 
L 9.167524 359.405732 
L 7.12606 355.014139 
L 5.084597 357.543523 
L 3.043133 356.190717 
L 1.00167 349.217326 
L -1.039793 354.788305 
L -3.081257 355.65863 
L -5.12272 349.20519 
L -7.164184 347.403343 
L -9.205647 350.22964 
L -11.247111 343.350674 
L -13.288574 331.903983 
L -15.330037 343.909827 
L -17.371501 348.71573 
L -19.412964 350.806973 
L -21.454428 334.721236 
L -23.495891 335.001018 
L -25.537354 326.943012 
L -27.578818 320.608165 
L -29.620281 332.079371 
L -31.661745 326.44212 
L -33.703208 315.1736 
L -35.744672 307.009199 
L -37.786135 306.790211 
L -39.827598 307.39445 
L -41.869062 305.093132 
L -43.910525 303.416012 
L -45.951989 306.964031 
L -47.993452 305.727202 
L -50.034915 302.109125 
L -52.076379 303.028751 
L -54.117842 301.038248 
L -56.159306 299.74766 
L -58.200769 298.971629 
L -60.242232 299.869161 
L -62.283696 300.021619 
L -64.325159 299.772374 
L -66.366623 300.412246 
L -68.408086 300.277576 
L -70.44955 300.642459 
L -72.491013 301.751621 
L -74.532476 302.381431 
L -76.57394 302.64729 
L -78.615403 303.013703 
L -80.656867 303.804374 
L -82.69833 304.018692 
L -84.739793 304.78598 
L -86.781257 305.880904 
L -88.82272 306.343962 
L -90.864184 306.447061 
L -92.905647 306.98186 
L -94.947111 307.540557 
L -96.988574 308.065576 
L -99.030037 308.565926 
L -101.071501 309.041876 
L -103.112964 309.906053 
L -105.154428 310.130512 
L -107.195891 310.689653 
L -109.237354 311.290347 
L -111.278818 311.76643 
L -113.320281 312.251075 
L -115.361745 312.604858 
L -117.403208 313.020194 
L -119.444672 313.72238 
L -121.486135 314.109928 
L -123.527598 314.630503 
L -125.569062 314.995676 
L -127.610525 315.460612 
L -129.651989 315.94617 
L -131.693452 316.442867 
L -133.734915 316.827634 
L -135.776379 317.332096 
L -137.817842 317.754038 
L -139.859306 318.225055 
L -141.900769 318.647685 
L -143.942232 319.103474 
L -145.983696 319.509214 
L -148.025159 319.963217 
L -150.066623 320.472104 
L -152.108086 320.81326 
L -154.14955 321.293746 
L -156.191013 321.683094 
L -158.232476 322.168424 
L -160.27394 322.473363 
L -162.315403 322.915833 
L -164.356867 323.330901 
L -166.39833 323.719058 
L -168.439793 324.119124 
L -170.481257 324.476531 
L -172.52272 324.924466 
L -174.564184 325.309619 
L -176.605647 325.594401 
L -178.647111 325.965295 
L -180.688574 326.33354 
L -182.730037 326.696621 
L -184.771501 327.037124 
L -186.812964 327.337658 
L -188.854428 327.683771 
L -190.895891 328.014454 
L -192.937354 328.342867 
L -194.978818 328.664185 
L -197.020281 328.994546 
L -199.061745 329.341205 
L -201.103208 329.602768 
L -203.144672 329.930652 
L -205.186135 330.242988 
L -207.227598 330.528388 
L -209.269062 330.826181 
L -211.310525 331.131273 
L -213.351989 331.41608 
L -215.393452 331.724441 
L -217.434915 331.9792 
L -219.476379 332.241626 
L -221.517842 332.531533 
L -223.559306 332.799591 
L -225.600769 333.036902 
L -227.642232 333.30156 
L -229.683696 333.515275 
L -231.725159 333.759906 
L -233.766623 334.03627 
L -235.808086 334.228592 
L -237.84955 334.475388 
L -239.891013 334.689362 
L -241.932476 334.924963 
L -243.97394 335.105389 
L -246.015403 335.365793 
L -248.056867 335.524184 
L -250.09833 335.738287 
L -252.139793 335.939189 
L -254.181257 336.105699 
L -256.22272 336.246441 
L -258.264184 336.402279 
L -260.305647 336.566487 
L -262.347111 336.754115 
L -264.388574 336.908431 
L -266.430037 337.044441 
L -268.471501 337.195775 
L -270.512964 337.355189 
L -272.554428 337.503752 
L -274.595891 337.665715 
L -276.637354 337.827893 
L -278.678818 337.975281 
L -280.720281 338.133912 
L -282.761745 338.296452 
L -284.803208 338.426127 
L -286.844672 338.569902 
L -288.886135 338.738848 
L -290.927598 338.893263 
L -292.969062 339.013186 
L -295.010525 339.178525 
L -297.051989 339.318345 
L -299.093452 339.438635 
L -301.134915 339.568374 
L -303.176379 339.685781 
L -305.217842 339.83717 
L -307.259306 339.939117 
L -309.300769 340.066088 
L -311.342232 340.184698 
L -313.383696 340.291582 
L -315.425159 340.38387 
L -317.466623 340.462469 
L -319.508086 340.546969 
L -321.54955 340.636628 
L -323.591013 340.696712 
L -325.632476 340.783401 
L -327.67394 340.846029 
L -329.715403 340.891255 
L -331.756867 340.965972 
L -333.79833 341.023687 
L -335.839793 341.060515 
L -337.881257 341.110454 
L -339.92272 341.159861 
L -341.964184 341.197016 
L -344.005647 341.237285 
L -346.047111 341.260024 
L -348.088574 341.305068 
L -350.130037 341.329104 
L -352.171501 341.359407 
L -354.212964 341.396022 
L -356.254428 341.415846 
L -358.295891 341.441655 
L -360.337354 341.494765 
L -362.378818 341.516085 
L -364.420281 341.556053 
L -366.461745 341.576696 
L -368.503208 341.623127 
L -370.544672 341.648907 
L -372.586135 341.680602 
L -374.627598 341.702272 
L -376.669062 341.718097 
L -378.710525 341.745493 
L -380.751989 341.783431 
L -382.793452 341.821401 
L -384.834915 341.84928 
L -386.876379 341.864656 
L -388.917842 341.913138 
L -390.959306 341.947803 
L -393.000769 341.998109 
z
" clip-path="url(#p825e1729a2)" style="fill: #008000; fill-opacity: 0.3; stroke: #008000; stroke-opacity: 0.3"/>
   </g>
   <g id="matplotlib.axis_1">
    <g id="xtick_1">
     <g id="line2d_1">
      <defs>
       <path id="m0339537422" d="M 0 0 
L 0 3.5 
" style="stroke: #000000; stroke-width: 0.8"/>
      </defs>
      <g>
       <use xlink:href="#m0339537422" x="103.074841" y="395.28" style="stroke: #000000; stroke-width: 0.8"/>
      </g>
     </g>
     <g id="text_1">
      <!-- 2022-03-01 -->
      <g transform="translate(17.945813 495.213718) rotate(-45) scale(0.2 -0.2)">
       <defs>
        <path id="DejaVuSans-32" d="M 1228 531 
L 3431 531 
L 3431 0 
L 469 0 
L 469 531 
Q 828 903 1448 1529 
Q 2069 2156 2228 2338 
Q 2531 2678 2651 2914 
Q 2772 3150 2772 3378 
Q 2772 3750 2511 3984 
Q 2250 4219 1831 4219 
Q 1534 4219 1204 4116 
Q 875 4013 500 3803 
L 500 4441 
Q 881 4594 1212 4672 
Q 1544 4750 1819 4750 
Q 2544 4750 2975 4387 
Q 3406 4025 3406 3419 
Q 3406 3131 3298 2873 
Q 3191 2616 2906 2266 
Q 2828 2175 2409 1742 
Q 1991 1309 1228 531 
z
" transform="scale(0.015625)"/>
        <path id="DejaVuSans-30" d="M 2034 4250 
Q 1547 4250 1301 3770 
Q 1056 3291 1056 2328 
Q 1056 1369 1301 889 
Q 1547 409 2034 409 
Q 2525 409 2770 889 
Q 3016 1369 3016 2328 
Q 3016 3291 2770 3770 
Q 2525 4250 2034 4250 
z
M 2034 4750 
Q 2819 4750 3233 4129 
Q 3647 3509 3647 2328 
Q 3647 1150 3233 529 
Q 2819 -91 2034 -91 
Q 1250 -91 836 529 
Q 422 1150 422 2328 
Q 422 3509 836 4129 
Q 1250 4750 2034 4750 
z
" transform="scale(0.015625)"/>
        <path id="DejaVuSans-2d" d="M 313 2009 
L 1997 2009 
L 1997 1497 
L 313 1497 
L 313 2009 
z
" transform="scale(0.015625)"/>
        <path id="DejaVuSans-33" d="M 2597 2516 
Q 3050 2419 3304 2112 
Q 3559 1806 3559 1356 
Q 3559 666 3084 287 
Q 2609 -91 1734 -91 
Q 1441 -91 1130 -33 
Q 819 25 488 141 
L 488 750 
Q 750 597 1062 519 
Q 1375 441 1716 441 
Q 2309 441 2620 675 
Q 2931 909 2931 1356 
Q 2931 1769 2642 2001 
Q 2353 2234 1838 2234 
L 1294 2234 
L 1294 2753 
L 1863 2753 
Q 2328 2753 2575 2939 
Q 2822 3125 2822 3475 
Q 2822 3834 2567 4026 
Q 2313 4219 1838 4219 
Q 1578 4219 1281 4162 
Q 984 4106 628 3988 
L 628 4550 
Q 988 4650 1302 4700 
Q 1616 4750 1894 4750 
Q 2613 4750 3031 4423 
Q 3450 4097 3450 3541 
Q 3450 3153 3228 2886 
Q 3006 2619 2597 2516 
z
" transform="scale(0.015625)"/>
        <path id="DejaVuSans-31" d="M 794 531 
L 1825 531 
L 1825 4091 
L 703 3866 
L 703 4441 
L 1819 4666 
L 2450 4666 
L 2450 531 
L 3481 531 
L 3481 0 
L 794 0 
L 794 531 
z
" transform="scale(0.015625)"/>
       </defs>
       <use xlink:href="#DejaVuSans-32"/>
       <use xlink:href="#DejaVuSans-30" x="63.623047"/>
       <use xlink:href="#DejaVuSans-32" x="127.246094"/>
       <use xlink:href="#DejaVuSans-32" x="190.869141"/>
       <use xlink:href="#DejaVuSans-2d" x="254.492188"/>
       <use xlink:href="#DejaVuSans-30" x="290.576172"/>
       <use xlink:href="#DejaVuSans-33" x="354.199219"/>
       <use xlink:href="#DejaVuSans-2d" x="417.822266"/>
       <use xlink:href="#DejaVuSans-30" x="453.90625"/>
       <use xlink:href="#DejaVuSans-31" x="517.529297"/>
      </g>
     </g>
    </g>
    <g id="xtick_2">
     <g id="line2d_2">
      <g>
       <use xlink:href="#m0339537422" x="160.235816" y="395.28" style="stroke: #000000; stroke-width: 0.8"/>
      </g>
     </g>
     <g id="text_2">
      <!-- 2022-03-29 -->
      <g transform="translate(75.106789 495.213718) rotate(-45) scale(0.2 -0.2)">
       <defs>
        <path id="DejaVuSans-39" d="M 703 97 
L 703 672 
Q 941 559 1184 500 
Q 1428 441 1663 441 
Q 2288 441 2617 861 
Q 2947 1281 2994 2138 
Q 2813 1869 2534 1725 
Q 2256 1581 1919 1581 
Q 1219 1581 811 2004 
Q 403 2428 403 3163 
Q 403 3881 828 4315 
Q 1253 4750 1959 4750 
Q 2769 4750 3195 4129 
Q 3622 3509 3622 2328 
Q 3622 1225 3098 567 
Q 2575 -91 1691 -91 
Q 1453 -91 1209 -44 
Q 966 3 703 97 
z
M 1959 2075 
Q 2384 2075 2632 2365 
Q 2881 2656 2881 3163 
Q 2881 3666 2632 3958 
Q 2384 4250 1959 4250 
Q 1534 4250 1286 3958 
Q 1038 3666 1038 3163 
Q 1038 2656 1286 2365 
Q 1534 2075 1959 2075 
z
" transform="scale(0.015625)"/>
       </defs>
       <use xlink:href="#DejaVuSans-32"/>
       <use xlink:href="#DejaVuSans-30" x="63.623047"/>
       <use xlink:href="#DejaVuSans-32" x="127.246094"/>
       <use xlink:href="#DejaVuSans-32" x="190.869141"/>
       <use xlink:href="#DejaVuSans-2d" x="254.492188"/>
       <use xlink:href="#DejaVuSans-30" x="290.576172"/>
       <use xlink:href="#DejaVuSans-33" x="354.199219"/>
       <use xlink:href="#DejaVuSans-2d" x="417.822266"/>
       <use xlink:href="#DejaVuSans-32" x="453.90625"/>
       <use xlink:href="#DejaVuSans-39" x="517.529297"/>
      </g>
     </g>
    </g>
    <g id="xtick_3">
     <g id="line2d_3">
      <g>
       <use xlink:href="#m0339537422" x="217.396792" y="395.28" style="stroke: #000000; stroke-width: 0.8"/>
      </g>
     </g>
     <g id="text_3">
      <!-- 2022-04-26 -->
      <g transform="translate(132.267765 495.213718) rotate(-45) scale(0.2 -0.2)">
       <defs>
        <path id="DejaVuSans-34" d="M 2419 4116 
L 825 1625 
L 2419 1625 
L 2419 4116 
z
M 2253 4666 
L 3047 4666 
L 3047 1625 
L 3713 1625 
L 3713 1100 
L 3047 1100 
L 3047 0 
L 2419 0 
L 2419 1100 
L 313 1100 
L 313 1709 
L 2253 4666 
z
" transform="scale(0.015625)"/>
        <path id="DejaVuSans-36" d="M 2113 2584 
Q 1688 2584 1439 2293 
Q 1191 2003 1191 1497 
Q 1191 994 1439 701 
Q 1688 409 2113 409 
Q 2538 409 2786 701 
Q 3034 994 3034 1497 
Q 3034 2003 2786 2293 
Q 2538 2584 2113 2584 
z
M 3366 4563 
L 3366 3988 
Q 3128 4100 2886 4159 
Q 2644 4219 2406 4219 
Q 1781 4219 1451 3797 
Q 1122 3375 1075 2522 
Q 1259 2794 1537 2939 
Q 1816 3084 2150 3084 
Q 2853 3084 3261 2657 
Q 3669 2231 3669 1497 
Q 3669 778 3244 343 
Q 2819 -91 2113 -91 
Q 1303 -91 875 529 
Q 447 1150 447 2328 
Q 447 3434 972 4092 
Q 1497 4750 2381 4750 
Q 2619 4750 2861 4703 
Q 3103 4656 3366 4563 
z
" transform="scale(0.015625)"/>
       </defs>
       <use xlink:href="#DejaVuSans-32"/>
       <use xlink:href="#DejaVuSans-30" x="63.623047"/>
       <use xlink:href="#DejaVuSans-32" x="127.246094"/>
       <use xlink:href="#DejaVuSans-32" x="190.869141"/>
       <use xlink:href="#DejaVuSans-2d" x="254.492188"/>
       <use xlink:href="#DejaVuSans-30" x="290.576172"/>
       <use xlink:href="#DejaVuSans-34" x="354.199219"/>
       <use xlink:href="#DejaVuSans-2d" x="417.822266"/>
       <use xlink:href="#DejaVuSans-32" x="453.90625"/>
       <use xlink:href="#DejaVuSans-36" x="517.529297"/>
      </g>
     </g>
    </g>
    <g id="xtick_4">
     <g id="line2d_4">
      <g>
       <use xlink:href="#m0339537422" x="274.557768" y="395.28" style="stroke: #000000; stroke-width: 0.8"/>
      </g>
     </g>
     <g id="text_4">
      <!-- 2022-05-24 -->
      <g transform="translate(189.42874 495.213718) rotate(-45) scale(0.2 -0.2)">
       <defs>
        <path id="DejaVuSans-35" d="M 691 4666 
L 3169 4666 
L 3169 4134 
L 1269 4134 
L 1269 2991 
Q 1406 3038 1543 3061 
Q 1681 3084 1819 3084 
Q 2600 3084 3056 2656 
Q 3513 2228 3513 1497 
Q 3513 744 3044 326 
Q 2575 -91 1722 -91 
Q 1428 -91 1123 -41 
Q 819 9 494 109 
L 494 744 
Q 775 591 1075 516 
Q 1375 441 1709 441 
Q 2250 441 2565 725 
Q 2881 1009 2881 1497 
Q 2881 1984 2565 2268 
Q 2250 2553 1709 2553 
Q 1456 2553 1204 2497 
Q 953 2441 691 2322 
L 691 4666 
z
" transform="scale(0.015625)"/>
       </defs>
       <use xlink:href="#DejaVuSans-32"/>
       <use xlink:href="#DejaVuSans-30" x="63.623047"/>
       <use xlink:href="#DejaVuSans-32" x="127.246094"/>
       <use xlink:href="#DejaVuSans-32" x="190.869141"/>
       <use xlink:href="#DejaVuSans-2d" x="254.492188"/>
       <use xlink:href="#DejaVuSans-30" x="290.576172"/>
       <use xlink:href="#DejaVuSans-35" x="354.199219"/>
       <use xlink:href="#DejaVuSans-2d" x="417.822266"/>
       <use xlink:href="#DejaVuSans-32" x="453.90625"/>
       <use xlink:href="#DejaVuSans-34" x="517.529297"/>
      </g>
     </g>
    </g>
    <g id="xtick_5">
     <g id="line2d_5">
      <g>
       <use xlink:href="#m0339537422" x="331.718743" y="395.28" style="stroke: #000000; stroke-width: 0.8"/>
      </g>
     </g>
     <g id="text_5">
      <!-- 2022-06-21 -->
      <g transform="translate(246.589716 495.213718) rotate(-45) scale(0.2 -0.2)">
       <use xlink:href="#DejaVuSans-32"/>
       <use xlink:href="#DejaVuSans-30" x="63.623047"/>
       <use xlink:href="#DejaVuSans-32" x="127.246094"/>
       <use xlink:href="#DejaVuSans-32" x="190.869141"/>
       <use xlink:href="#DejaVuSans-2d" x="254.492188"/>
       <use xlink:href="#DejaVuSans-30" x="290.576172"/>
       <use xlink:href="#DejaVuSans-36" x="354.199219"/>
       <use xlink:href="#DejaVuSans-2d" x="417.822266"/>
       <use xlink:href="#DejaVuSans-32" x="453.90625"/>
       <use xlink:href="#DejaVuSans-31" x="517.529297"/>
      </g>
     </g>
    </g>
    <g id="xtick_6">
     <g id="line2d_6">
      <g>
       <use xlink:href="#m0339537422" x="388.879719" y="395.28" style="stroke: #000000; stroke-width: 0.8"/>
      </g>
     </g>
     <g id="text_6">
      <!-- 2022-07-19 -->
      <g transform="translate(303.750691 495.213718) rotate(-45) scale(0.2 -0.2)">
       <defs>
        <path id="DejaVuSans-37" d="M 525 4666 
L 3525 4666 
L 3525 4397 
L 1831 0 
L 1172 0 
L 2766 4134 
L 525 4134 
L 525 4666 
z
" transform="scale(0.015625)"/>
       </defs>
       <use xlink:href="#DejaVuSans-32"/>
       <use xlink:href="#DejaVuSans-30" x="63.623047"/>
       <use xlink:href="#DejaVuSans-32" x="127.246094"/>
       <use xlink:href="#DejaVuSans-32" x="190.869141"/>
       <use xlink:href="#DejaVuSans-2d" x="254.492188"/>
       <use xlink:href="#DejaVuSans-30" x="290.576172"/>
       <use xlink:href="#DejaVuSans-37" x="354.199219"/>
       <use xlink:href="#DejaVuSans-2d" x="417.822266"/>
       <use xlink:href="#DejaVuSans-31" x="453.90625"/>
       <use xlink:href="#DejaVuSans-39" x="517.529297"/>
      </g>
     </g>
    </g>
    <g id="xtick_7">
     <g id="line2d_7">
      <g>
       <use xlink:href="#m0339537422" x="446.040694" y="395.28" style="stroke: #000000; stroke-width: 0.8"/>
      </g>
     </g>
     <g id="text_7">
      <!-- 2022-08-16 -->
      <g transform="translate(360.911667 495.213718) rotate(-45) scale(0.2 -0.2)">
       <defs>
        <path id="DejaVuSans-38" d="M 2034 2216 
Q 1584 2216 1326 1975 
Q 1069 1734 1069 1313 
Q 1069 891 1326 650 
Q 1584 409 2034 409 
Q 2484 409 2743 651 
Q 3003 894 3003 1313 
Q 3003 1734 2745 1975 
Q 2488 2216 2034 2216 
z
M 1403 2484 
Q 997 2584 770 2862 
Q 544 3141 544 3541 
Q 544 4100 942 4425 
Q 1341 4750 2034 4750 
Q 2731 4750 3128 4425 
Q 3525 4100 3525 3541 
Q 3525 3141 3298 2862 
Q 3072 2584 2669 2484 
Q 3125 2378 3379 2068 
Q 3634 1759 3634 1313 
Q 3634 634 3220 271 
Q 2806 -91 2034 -91 
Q 1263 -91 848 271 
Q 434 634 434 1313 
Q 434 1759 690 2068 
Q 947 2378 1403 2484 
z
M 1172 3481 
Q 1172 3119 1398 2916 
Q 1625 2713 2034 2713 
Q 2441 2713 2670 2916 
Q 2900 3119 2900 3481 
Q 2900 3844 2670 4047 
Q 2441 4250 2034 4250 
Q 1625 4250 1398 4047 
Q 1172 3844 1172 3481 
z
" transform="scale(0.015625)"/>
       </defs>
       <use xlink:href="#DejaVuSans-32"/>
       <use xlink:href="#DejaVuSans-30" x="63.623047"/>
       <use xlink:href="#DejaVuSans-32" x="127.246094"/>
       <use xlink:href="#DejaVuSans-32" x="190.869141"/>
       <use xlink:href="#DejaVuSans-2d" x="254.492188"/>
       <use xlink:href="#DejaVuSans-30" x="290.576172"/>
       <use xlink:href="#DejaVuSans-38" x="354.199219"/>
       <use xlink:href="#DejaVuSans-2d" x="417.822266"/>
       <use xlink:href="#DejaVuSans-31" x="453.90625"/>
       <use xlink:href="#DejaVuSans-36" x="517.529297"/>
      </g>
     </g>
    </g>
    <g id="xtick_8">
     <g id="line2d_8">
      <g>
       <use xlink:href="#m0339537422" x="503.20167" y="395.28" style="stroke: #000000; stroke-width: 0.8"/>
      </g>
     </g>
     <g id="text_8">
      <!-- 2022-09-13 -->
      <g transform="translate(418.072643 495.213718) rotate(-45) scale(0.2 -0.2)">
       <use xlink:href="#DejaVuSans-32"/>
       <use xlink:href="#DejaVuSans-30" x="63.623047"/>
       <use xlink:href="#DejaVuSans-32" x="127.246094"/>
       <use xlink:href="#DejaVuSans-32" x="190.869141"/>
       <use xlink:href="#DejaVuSans-2d" x="254.492188"/>
       <use xlink:href="#DejaVuSans-30" x="290.576172"/>
       <use xlink:href="#DejaVuSans-39" x="354.199219"/>
       <use xlink:href="#DejaVuSans-2d" x="417.822266"/>
       <use xlink:href="#DejaVuSans-31" x="453.90625"/>
       <use xlink:href="#DejaVuSans-33" x="517.529297"/>
      </g>
     </g>
    </g>
    <g id="xtick_9">
     <g id="line2d_9">
      <g>
       <use xlink:href="#m0339537422" x="560.362646" y="395.28" style="stroke: #000000; stroke-width: 0.8"/>
      </g>
     </g>
     <g id="text_9">
      <!-- 2022-10-11 -->
      <g transform="translate(475.233618 495.213718) rotate(-45) scale(0.2 -0.2)">
       <use xlink:href="#DejaVuSans-32"/>
       <use xlink:href="#DejaVuSans-30" x="63.623047"/>
       <use xlink:href="#DejaVuSans-32" x="127.246094"/>
       <use xlink:href="#DejaVuSans-32" x="190.869141"/>
       <use xlink:href="#DejaVuSans-2d" x="254.492188"/>
       <use xlink:href="#DejaVuSans-31" x="290.576172"/>
       <use xlink:href="#DejaVuSans-30" x="354.199219"/>
       <use xlink:href="#DejaVuSans-2d" x="417.822266"/>
       <use xlink:href="#DejaVuSans-31" x="453.90625"/>
       <use xlink:href="#DejaVuSans-31" x="517.529297"/>
      </g>
     </g>
    </g>
    <g id="xtick_10">
     <g id="line2d_10">
      <g>
       <use xlink:href="#m0339537422" x="617.523621" y="395.28" style="stroke: #000000; stroke-width: 0.8"/>
      </g>
     </g>
     <g id="text_10">
      <!-- 2022-11-08 -->
      <g transform="translate(532.394594 495.213718) rotate(-45) scale(0.2 -0.2)">
       <use xlink:href="#DejaVuSans-32"/>
       <use xlink:href="#DejaVuSans-30" x="63.623047"/>
       <use xlink:href="#DejaVuSans-32" x="127.246094"/>
       <use xlink:href="#DejaVuSans-32" x="190.869141"/>
       <use xlink:href="#DejaVuSans-2d" x="254.492188"/>
       <use xlink:href="#DejaVuSans-31" x="290.576172"/>
       <use xlink:href="#DejaVuSans-31" x="354.199219"/>
       <use xlink:href="#DejaVuSans-2d" x="417.822266"/>
       <use xlink:href="#DejaVuSans-30" x="453.90625"/>
       <use xlink:href="#DejaVuSans-38" x="517.529297"/>
      </g>
     </g>
    </g>
    <g id="xtick_11">
     <g id="line2d_11">
      <g>
       <use xlink:href="#m0339537422" x="674.684597" y="395.28" style="stroke: #000000; stroke-width: 0.8"/>
      </g>
     </g>
     <g id="text_11">
      <!-- 2022-12-06 -->
      <g transform="translate(589.555569 495.213718) rotate(-45) scale(0.2 -0.2)">
       <use xlink:href="#DejaVuSans-32"/>
       <use xlink:href="#DejaVuSans-30" x="63.623047"/>
       <use xlink:href="#DejaVuSans-32" x="127.246094"/>
       <use xlink:href="#DejaVuSans-32" x="190.869141"/>
       <use xlink:href="#DejaVuSans-2d" x="254.492188"/>
       <use xlink:href="#DejaVuSans-31" x="290.576172"/>
       <use xlink:href="#DejaVuSans-32" x="354.199219"/>
       <use xlink:href="#DejaVuSans-2d" x="417.822266"/>
       <use xlink:href="#DejaVuSans-30" x="453.90625"/>
       <use xlink:href="#DejaVuSans-36" x="517.529297"/>
      </g>
     </g>
    </g>
    <g id="xtick_12">
     <g id="line2d_12">
      <g>
       <use xlink:href="#m0339537422" x="731.845572" y="395.28" style="stroke: #000000; stroke-width: 0.8"/>
      </g>
     </g>
     <g id="text_12">
      <!-- 2023-01-03 -->
      <g transform="translate(646.716545 495.213718) rotate(-45) scale(0.2 -0.2)">
       <use xlink:href="#DejaVuSans-32"/>
       <use xlink:href="#DejaVuSans-30" x="63.623047"/>
       <use xlink:href="#DejaVuSans-32" x="127.246094"/>
       <use xlink:href="#DejaVuSans-33" x="190.869141"/>
       <use xlink:href="#DejaVuSans-2d" x="254.492188"/>
       <use xlink:href="#DejaVuSans-30" x="290.576172"/>
       <use xlink:href="#DejaVuSans-31" x="354.199219"/>
       <use xlink:href="#DejaVuSans-2d" x="417.822266"/>
       <use xlink:href="#DejaVuSans-30" x="453.90625"/>
       <use xlink:href="#DejaVuSans-33" x="517.529297"/>
      </g>
     </g>
    </g>
    <g id="xtick_13">
     <g id="line2d_13">
      <g>
       <use xlink:href="#m0339537422" x="789.006548" y="395.28" style="stroke: #000000; stroke-width: 0.8"/>
      </g>
     </g>
     <g id="text_13">
      <!-- 2023-01-31 -->
      <g transform="translate(703.877521 495.213718) rotate(-45) scale(0.2 -0.2)">
       <use xlink:href="#DejaVuSans-32"/>
       <use xlink:href="#DejaVuSans-30" x="63.623047"/>
       <use xlink:href="#DejaVuSans-32" x="127.246094"/>
       <use xlink:href="#DejaVuSans-33" x="190.869141"/>
       <use xlink:href="#DejaVuSans-2d" x="254.492188"/>
       <use xlink:href="#DejaVuSans-30" x="290.576172"/>
       <use xlink:href="#DejaVuSans-31" x="354.199219"/>
       <use xlink:href="#DejaVuSans-2d" x="417.822266"/>
       <use xlink:href="#DejaVuSans-33" x="453.90625"/>
       <use xlink:href="#DejaVuSans-31" x="517.529297"/>
      </g>
     </g>
    </g>
    <g id="xtick_14">
     <g id="line2d_14">
      <g>
       <use xlink:href="#m0339537422" x="846.167524" y="395.28" style="stroke: #000000; stroke-width: 0.8"/>
      </g>
     </g>
     <g id="text_14">
      <!-- 2023-02-28 -->
      <g transform="translate(761.038496 495.213718) rotate(-45) scale(0.2 -0.2)">
       <use xlink:href="#DejaVuSans-32"/>
       <use xlink:href="#DejaVuSans-30" x="63.623047"/>
       <use xlink:href="#DejaVuSans-32" x="127.246094"/>
       <use xlink:href="#DejaVuSans-33" x="190.869141"/>
       <use xlink:href="#DejaVuSans-2d" x="254.492188"/>
       <use xlink:href="#DejaVuSans-30" x="290.576172"/>
       <use xlink:href="#DejaVuSans-32" x="354.199219"/>
       <use xlink:href="#DejaVuSans-2d" x="417.822266"/>
       <use xlink:href="#DejaVuSans-32" x="453.90625"/>
       <use xlink:href="#DejaVuSans-38" x="517.529297"/>
      </g>
     </g>
    </g>
    <g id="xtick_15">
     <g id="line2d_15">
      <g>
       <use xlink:href="#m0339537422" x="903.328499" y="395.28" style="stroke: #000000; stroke-width: 0.8"/>
      </g>
     </g>
     <g id="text_15">
      <!-- 2023-03-28 -->
      <g transform="translate(818.199472 495.213718) rotate(-45) scale(0.2 -0.2)">
       <use xlink:href="#DejaVuSans-32"/>
       <use xlink:href="#DejaVuSans-30" x="63.623047"/>
       <use xlink:href="#DejaVuSans-32" x="127.246094"/>
       <use xlink:href="#DejaVuSans-33" x="190.869141"/>
       <use xlink:href="#DejaVuSans-2d" x="254.492188"/>
       <use xlink:href="#DejaVuSans-30" x="290.576172"/>
       <use xlink:href="#DejaVuSans-33" x="354.199219"/>
       <use xlink:href="#DejaVuSans-2d" x="417.822266"/>
       <use xlink:href="#DejaVuSans-32" x="453.90625"/>
       <use xlink:href="#DejaVuSans-38" x="517.529297"/>
      </g>
     </g>
    </g>
    <g id="xtick_16">
     <g id="line2d_16">
      <g>
       <use xlink:href="#m0339537422" x="940.074841" y="395.28" style="stroke: #000000; stroke-width: 0.8"/>
      </g>
     </g>
     <g id="text_16">
      <!-- 2023-04-15 -->
      <g transform="translate(854.945813 495.213718) rotate(-45) scale(0.2 -0.2)">
       <use xlink:href="#DejaVuSans-32"/>
       <use xlink:href="#DejaVuSans-30" x="63.623047"/>
       <use xlink:href="#DejaVuSans-32" x="127.246094"/>
       <use xlink:href="#DejaVuSans-33" x="190.869141"/>
       <use xlink:href="#DejaVuSans-2d" x="254.492188"/>
       <use xlink:href="#DejaVuSans-30" x="290.576172"/>
       <use xlink:href="#DejaVuSans-34" x="354.199219"/>
       <use xlink:href="#DejaVuSans-2d" x="417.822266"/>
       <use xlink:href="#DejaVuSans-31" x="453.90625"/>
       <use xlink:href="#DejaVuSans-35" x="517.529297"/>
      </g>
     </g>
    </g>
   </g>
   <g id="matplotlib.axis_2">
    <g id="ytick_1">
     <g id="line2d_17">
      <defs>
       <path id="m9d1cb545d4" d="M 0 0 
L -3.5 0 
" style="stroke: #000000; stroke-width: 0.8"/>
      </defs>
      <g>
       <use xlink:href="#m9d1cb545d4" x="103.074841" y="342.046691" style="stroke: #000000; stroke-width: 0.8"/>
      </g>
     </g>
     <g id="text_17">
      <!-- 0.00 -->
      <g transform="translate(51.543591 349.645129) scale(0.2 -0.2)">
       <defs>
        <path id="DejaVuSans-2e" d="M 684 794 
L 1344 794 
L 1344 0 
L 684 0 
L 684 794 
z
" transform="scale(0.015625)"/>
       </defs>
       <use xlink:href="#DejaVuSans-30"/>
       <use xlink:href="#DejaVuSans-2e" x="63.623047"/>
       <use xlink:href="#DejaVuSans-30" x="95.410156"/>
       <use xlink:href="#DejaVuSans-30" x="159.033203"/>
      </g>
     </g>
    </g>
    <g id="ytick_2">
     <g id="line2d_18">
      <g>
       <use xlink:href="#m9d1cb545d4" x="103.074841" y="283.205609" style="stroke: #000000; stroke-width: 0.8"/>
      </g>
     </g>
     <g id="text_18">
      <!-- 0.05 -->
      <g transform="translate(51.543591 290.804046) scale(0.2 -0.2)">
       <use xlink:href="#DejaVuSans-30"/>
       <use xlink:href="#DejaVuSans-2e" x="63.623047"/>
       <use xlink:href="#DejaVuSans-30" x="95.410156"/>
       <use xlink:href="#DejaVuSans-35" x="159.033203"/>
      </g>
     </g>
    </g>
    <g id="ytick_3">
     <g id="line2d_19">
      <g>
       <use xlink:href="#m9d1cb545d4" x="103.074841" y="224.364526" style="stroke: #000000; stroke-width: 0.8"/>
      </g>
     </g>
     <g id="text_19">
      <!-- 0.10 -->
      <g transform="translate(51.543591 231.962963) scale(0.2 -0.2)">
       <use xlink:href="#DejaVuSans-30"/>
       <use xlink:href="#DejaVuSans-2e" x="63.623047"/>
       <use xlink:href="#DejaVuSans-31" x="95.410156"/>
       <use xlink:href="#DejaVuSans-30" x="159.033203"/>
      </g>
     </g>
    </g>
    <g id="ytick_4">
     <g id="line2d_20">
      <g>
       <use xlink:href="#m9d1cb545d4" x="103.074841" y="165.523443" style="stroke: #000000; stroke-width: 0.8"/>
      </g>
     </g>
     <g id="text_20">
      <!-- 0.15 -->
      <g transform="translate(51.543591 173.121881) scale(0.2 -0.2)">
       <use xlink:href="#DejaVuSans-30"/>
       <use xlink:href="#DejaVuSans-2e" x="63.623047"/>
       <use xlink:href="#DejaVuSans-31" x="95.410156"/>
       <use xlink:href="#DejaVuSans-35" x="159.033203"/>
      </g>
     </g>
    </g>
    <g id="ytick_5">
     <g id="line2d_21">
      <g>
       <use xlink:href="#m9d1cb545d4" x="103.074841" y="106.682361" style="stroke: #000000; stroke-width: 0.8"/>
      </g>
     </g>
     <g id="text_21">
      <!-- 0.20 -->
      <g transform="translate(51.543591 114.280798) scale(0.2 -0.2)">
       <use xlink:href="#DejaVuSans-30"/>
       <use xlink:href="#DejaVuSans-2e" x="63.623047"/>
       <use xlink:href="#DejaVuSans-32" x="95.410156"/>
       <use xlink:href="#DejaVuSans-30" x="159.033203"/>
      </g>
     </g>
    </g>
    <g id="ytick_6">
     <g id="line2d_22">
      <g>
       <use xlink:href="#m9d1cb545d4" x="103.074841" y="47.841278" style="stroke: #000000; stroke-width: 0.8"/>
      </g>
     </g>
     <g id="text_22">
      <!-- 0.25 -->
      <g transform="translate(51.543591 55.439716) scale(0.2 -0.2)">
       <use xlink:href="#DejaVuSans-30"/>
       <use xlink:href="#DejaVuSans-2e" x="63.623047"/>
       <use xlink:href="#DejaVuSans-32" x="95.410156"/>
       <use xlink:href="#DejaVuSans-35" x="159.033203"/>
      </g>
     </g>
    </g>
   </g>
   <g id="line2d_23">
    <path d="M 0 0 
" clip-path="url(#p825e1729a2)" style="fill: none; stroke: #ffa500; stroke-width: 1.5; stroke-linecap: square"/>
   </g>
   <g id="line2d_24">
    <path d="M 103.074841 342.046691 
L 948.274841 342.046691 
" clip-path="url(#p825e1729a2)" style="fill: none; stroke-dasharray: 7.4,3.2; stroke-dashoffset: 0; stroke: #000000; stroke-width: 2"/>
   </g>
   <g id="patch_3">
    <path d="M 103.074841 395.28 
L 103.074841 7.2 
" style="fill: none; stroke: #000000; stroke-width: 0.8; stroke-linejoin: miter; stroke-linecap: square"/>
   </g>
   <g id="patch_4">
    <path d="M 940.074841 395.28 
L 940.074841 7.2 
" style="fill: none; stroke: #000000; stroke-width: 0.8; stroke-linejoin: miter; stroke-linecap: square"/>
   </g>
   <g id="patch_5">
    <path d="M 103.074841 395.28 
L 940.074841 395.28 
" style="fill: none; stroke: #000000; stroke-width: 0.8; stroke-linejoin: miter; stroke-linecap: square"/>
   </g>
   <g id="patch_6">
    <path d="M 103.074841 7.2 
L 940.074841 7.2 
" style="fill: none; stroke: #000000; stroke-width: 0.8; stroke-linejoin: miter; stroke-linecap: square"/>
   </g>
  </g>
 </g>
 <defs>
  <clipPath id="p825e1729a2">
   <rect x="103.074841" y="7.2" width="837" height="388.08"/>
  </clipPath>
 </defs>
</svg>
