<?xml version="1.0" encoding="utf-8" standalone="no"?>
<!DOCTYPE svg PUBLIC "-//W3C//DTD SVG 1.1//EN"
  "http://www.w3.org/Graphics/SVG/1.1/DTD/svg11.dtd">
<svg xmlns:xlink="http://www.w3.org/1999/xlink" width="947.274841pt" height="505.354841pt" viewBox="0 0 947.274841 505.354841" xmlns="http://www.w3.org/2000/svg" version="1.1">
 <metadata>
  <rdf:RDF xmlns:dc="http://purl.org/dc/elements/1.1/" xmlns:cc="http://creativecommons.org/ns#" xmlns:rdf="http://www.w3.org/1999/02/22-rdf-syntax-ns#">
   <cc:Work>
    <dc:type rdf:resource="http://purl.org/dc/dcmitype/StillImage"/>
    <dc:date>2023-11-12T22:44:16.470478</dc:date>
    <dc:format>image/svg+xml</dc:format>
    <dc:creator>
     <cc:Agent>
      <dc:title>Matplotlib v3.7.2, https://matplotlib.org/</dc:title>
     </cc:Agent>
    </dc:creator>
   </cc:Work>
  </rdf:RDF>
 </metadata>
 <defs>
  <style type="text/css">*{stroke-linejoin: round; stroke-linecap: butt}</style>
 </defs>
 <g id="figure_1">
  <g id="patch_1">
   <path d="M 0 505.354841 
L 947.274841 505.354841 
L 947.274841 -0 
L 0 -0 
z
" style="fill: #ffffff"/>
  </g>
  <g id="axes_1">
   <g id="patch_2">
    <path d="M 103.074841 395.28 
L 940.074841 395.28 
L 940.074841 7.2 
L 103.074841 7.2 
z
" style="fill: #ffffff"/>
   </g>
   <g id="PolyCollection_1">
    <path d="M -4315.31939 377.555717 
L -4315.31939 377.567855 
L -4307.271313 377.477939 
L -4299.223236 377.415337 
L -4291.175159 377.343543 
L -4283.127082 377.302629 
L -4275.079005 377.24928 
L -4267.030929 377.184681 
L -4258.982852 377.12156 
L -4250.934775 377.064867 
L -4242.886698 377.019469 
L -4234.838621 376.962498 
L -4226.790544 376.901829 
L -4218.742467 376.84409 
L -4210.69439 376.765924 
L -4202.646313 376.707665 
L -4194.598236 376.633313 
L -4186.550159 376.575194 
L -4178.502082 376.484644 
L -4170.454005 376.417416 
L -4162.405929 376.35485 
L -4154.357852 376.274718 
L -4146.309775 376.198516 
L -4138.261698 376.126025 
L -4130.213621 376.031251 
L -4122.165544 375.954917 
L -4114.117467 375.85972 
L -4106.06939 375.76459 
L -4098.021313 375.656288 
L -4089.973236 375.545762 
L -4081.925159 375.441206 
L -4073.877082 375.314426 
L -4065.829005 375.166468 
L -4057.780929 375.045007 
L -4049.732852 374.90189 
L -4041.684775 374.732638 
L -4033.636698 374.583899 
L -4025.588621 374.401039 
L -4017.540544 374.218451 
L -4009.492467 374.032615 
L -4001.44439 373.836505 
L -3993.396313 373.614217 
L -3985.348236 373.376613 
L -3977.300159 373.124257 
L -3969.252082 372.890593 
L -3961.204005 372.602031 
L -3953.155929 372.339314 
L -3945.107852 372.057009 
L -3937.059775 371.778894 
L -3929.011698 371.474509 
L -3920.963621 371.138428 
L -3912.915544 370.843439 
L -3904.867467 370.502373 
L -3896.81939 370.148328 
L -3888.771313 369.808953 
L -3880.723236 369.478812 
L -3872.675159 369.109995 
L -3864.627082 368.739047 
L -3856.579005 368.372686 
L -3848.530929 367.986802 
L -3840.482852 367.597234 
L -3832.434775 367.212571 
L -3824.386698 366.8114 
L -3816.338621 366.411767 
L -3808.290544 366.023866 
L -3800.242467 365.614166 
L -3792.19439 365.16392 
L -3784.146313 364.735777 
L -3776.098236 364.310424 
L -3768.050159 363.89583 
L -3760.002082 363.456023 
L -3751.954005 363.031148 
L -3743.905929 362.594778 
L -3735.857852 362.220475 
L -3727.809775 361.741416 
L -3719.761698 361.351953 
L -3711.713621 360.904207 
L -3703.665544 360.485397 
L -3695.617467 360.034172 
L -3687.56939 359.645395 
L -3679.521313 359.17086 
L -3671.473236 358.742154 
L -3663.425159 358.353335 
L -3655.377082 357.912791 
L -3647.329005 357.503535 
L -3639.280929 357.07097 
L -3631.232852 356.636295 
L -3623.184775 356.222751 
L -3615.136698 355.819839 
L -3607.088621 355.37152 
L -3599.040544 354.957195 
L -3590.992467 354.531785 
L -3582.94439 354.114492 
L -3574.896313 353.7091 
L -3566.848236 353.286703 
L -3558.800159 352.871417 
L -3550.752082 352.514314 
L -3542.704005 352.083807 
L -3534.655929 351.677084 
L -3526.607852 351.278069 
L -3518.559775 350.876436 
L -3510.511698 350.47435 
L -3502.463621 350.063111 
L -3494.415544 349.677171 
L -3486.367467 349.267618 
L -3478.31939 348.842659 
L -3470.271313 348.410207 
L -3462.223236 347.970719 
L -3454.175159 347.569441 
L -3446.127082 347.111752 
L -3438.079005 346.613467 
L -3430.030929 346.15623 
L -3421.982852 345.666401 
L -3413.934775 345.167941 
L -3405.886698 344.634126 
L -3397.838621 344.089581 
L -3389.790544 343.597572 
L -3381.742467 343.014775 
L -3373.69439 342.471865 
L -3365.646313 341.876762 
L -3357.598236 341.347298 
L -3349.550159 340.6959 
L -3341.502082 340.06347 
L -3333.454005 339.456678 
L -3325.405929 338.838867 
L -3317.357852 338.198986 
L -3309.309775 337.524488 
L -3301.261698 336.907695 
L -3293.213621 336.175395 
L -3285.165544 335.558882 
L -3277.117467 334.805619 
L -3269.06939 334.085332 
L -3261.021313 333.390322 
L -3252.973236 332.735796 
L -3244.925159 331.939436 
L -3236.877082 331.245349 
L -3228.829005 330.305939 
L -3220.780929 329.534012 
L -3212.732852 328.835415 
L -3204.684775 328.021258 
L -3196.636698 327.185553 
L -3188.588621 326.191777 
L -3180.540544 325.283177 
L -3172.492467 324.576134 
L -3164.44439 323.310158 
L -3156.396313 322.356368 
L -3148.348236 321.38557 
L -3140.300159 320.37803 
L -3132.252082 319.200704 
L -3124.204005 318.124596 
L -3116.155929 317.403576 
L -3108.107852 316.405635 
L -3100.059775 314.559478 
L -3092.011698 313.079612 
L -3083.963621 312.09905 
L -3075.915544 310.606174 
L -3067.867467 309.451243 
L -3059.81939 308.512547 
L -3051.771313 306.879727 
L -3043.723236 304.97486 
L -3035.675159 303.826731 
L -3027.627082 303.268945 
L -3019.579005 301.780742 
L -3011.530929 301.388096 
L -3003.482852 300.468894 
L -2995.434775 298.830823 
L -2987.386698 298.965016 
L -2979.338621 299.846538 
L -2971.290544 301.620345 
L -2963.242467 299.943628 
L -2955.19439 303.719524 
L -2947.146313 304.787118 
L -2939.098236 299.951728 
L -2931.050159 301.476091 
L -2923.002082 303.79717 
L -2914.954005 302.586925 
L -2906.905929 302.403834 
L -2898.857852 311.88458 
L -2890.809775 325.330068 
L -2882.761698 332.095326 
L -2874.713621 317.609614 
L -2866.665544 325.245074 
L -2858.617467 335.015973 
L -2850.56939 334.509232 
L -2842.521313 354.403505 
L -2834.473236 351.562989 
L -2826.425159 345.547288 
L -2818.377082 330.304068 
L -2810.329005 344.549665 
L -2802.280929 352.990731 
L -2794.232852 349.134136 
L -2786.184775 351.407608 
L -2778.136698 359.17246 
L -2770.088621 357.914216 
L -2762.040544 351.103 
L -2753.992467 359.46293 
L -2745.94439 361.308819 
L -2737.896313 357.944419 
L -2729.848236 363.658442 
L -2721.800159 365.77555 
L -2713.752082 365.192169 
L -2705.704005 363.208559 
L -2697.655929 365.165342 
L -2689.607852 363.009964 
L -2681.559775 363.156457 
L -2673.511698 365.093478 
L -2665.463621 363.319016 
L -2657.415544 364.270159 
L -2649.367467 364.387988 
L -2641.31939 362.813584 
L -2633.271313 363.43868 
L -2625.223236 360.940358 
L -2617.175159 361.432235 
L -2609.127082 362.112374 
L -2601.079005 362.295477 
L -2593.030929 361.199825 
L -2584.982852 360.250908 
L -2576.934775 360.057002 
L -2568.886698 359.272913 
L -2560.838621 359.227776 
L -2552.790544 359.111469 
L -2544.742467 357.635227 
L -2536.69439 358.548835 
L -2528.646313 357.588521 
L -2520.598236 357.06539 
L -2512.550159 357.468553 
L -2504.502082 356.576251 
L -2496.454005 356.40456 
L -2488.405929 356.833945 
L -2480.357852 357.483933 
L -2472.309775 355.926618 
L -2464.261698 355.182064 
L -2456.213621 355.345061 
L -2448.165544 358.124104 
L -2440.117467 358.252529 
L -2432.06939 359.321578 
L -2424.021313 356.65336 
L -2415.973236 355.101035 
L -2407.925159 355.582375 
L -2399.877082 357.378814 
L -2391.829005 357.611779 
L -2383.780929 354.51582 
L -2375.732852 357.065719 
L -2367.684775 355.8747 
L -2359.636698 355.613922 
L -2351.588621 353.924658 
L -2343.540544 354.986677 
L -2335.492467 354.292739 
L -2327.44439 355.014114 
L -2319.396313 353.78258 
L -2311.348236 352.887618 
L -2303.300159 351.373077 
L -2295.252082 350.66568 
L -2287.204005 349.993693 
L -2279.155929 348.918971 
L -2271.107852 348.756709 
L -2263.059775 347.72365 
L -2255.011698 346.643636 
L -2246.963621 344.411774 
L -2238.915544 342.491316 
L -2230.867467 341.494803 
L -2222.81939 339.447747 
L -2214.771313 339.065964 
L -2206.723236 337.440784 
L -2198.675159 334.92762 
L -2190.627082 332.868645 
L -2182.579005 331.223876 
L -2174.530929 328.580611 
L -2166.482852 327.054878 
L -2158.434775 324.732269 
L -2150.386698 322.689727 
L -2142.338621 320.246252 
L -2134.290544 317.724611 
L -2126.242467 315.447927 
L -2118.19439 312.976836 
L -2110.146313 310.764119 
L -2102.098236 307.794347 
L -2094.050159 305.061874 
L -2086.002082 302.300004 
L -2077.954005 300.204757 
L -2069.905929 297.321539 
L -2061.857852 294.751242 
L -2053.809775 291.929285 
L -2045.761698 288.098969 
L -2037.713621 286.039904 
L -2029.665544 282.763769 
L -2021.617467 280.030129 
L -2013.56939 277.015981 
L -2005.521313 273.647408 
L -1997.473236 270.4797 
L -1989.425159 267.35045 
L -1981.377082 263.492178 
L -1973.329005 260.720107 
L -1965.280929 256.940918 
L -1957.232852 254.316235 
L -1949.184775 250.402506 
L -1941.136698 246.553012 
L -1933.088621 243.179466 
L -1925.040544 240.344184 
L -1916.992467 235.99827 
L -1908.94439 232.835235 
L -1900.896313 228.946181 
L -1892.848236 225.712329 
L -1884.800159 221.628179 
L -1876.752082 217.89692 
L -1868.704005 217.127725 
L -1860.655929 210.35146 
L -1852.607852 208.905934 
L -1844.559775 204.79384 
L -1836.511698 201.669813 
L -1828.463621 198.081526 
L -1820.415544 194.389036 
L -1812.367467 190.855666 
L -1804.31939 187.61971 
L -1796.271313 184.581205 
L -1788.223236 181.395121 
L -1780.175159 182.991383 
L -1772.127082 174.567281 
L -1764.079005 172.492992 
L -1756.030929 177.733509 
L -1747.982852 168.389664 
L -1739.934775 169.230297 
L -1731.886698 167.813802 
L -1723.838621 162.465395 
L -1715.790544 162.964349 
L -1707.742467 166.623853 
L -1699.69439 162.700666 
L -1691.646313 160.843523 
L -1683.598236 163.346335 
L -1675.550159 162.013376 
L -1667.502082 163.424395 
L -1659.454005 165.903666 
L -1651.405929 169.318199 
L -1643.357852 179.730452 
L -1635.309775 176.564744 
L -1627.261698 181.753034 
L -1619.213621 185.669503 
L -1611.165544 187.82526 
L -1603.117467 193.119996 
L -1595.06939 195.980989 
L -1587.021313 188.471266 
L -1578.973236 194.379081 
L -1570.925159 203.061441 
L -1562.877082 206.838493 
L -1554.829005 207.156478 
L -1546.780929 218.050273 
L -1538.732852 218.007498 
L -1530.684775 219.683988 
L -1522.636698 218.669805 
L -1514.588621 232.282162 
L -1506.540544 227.796121 
L -1498.492467 225.193257 
L -1490.44439 237.082122 
L -1482.396313 245.490478 
L -1474.348236 244.613865 
L -1466.300159 249.550053 
L -1458.252082 251.054207 
L -1450.204005 251.208049 
L -1442.155929 251.046675 
L -1434.107852 253.6945 
L -1426.059775 255.115556 
L -1418.011698 263.68278 
L -1409.963621 259.017963 
L -1401.915544 266.439464 
L -1393.867467 264.522168 
L -1385.81939 263.284974 
L -1377.771313 266.149723 
L -1369.723236 268.673418 
L -1361.675159 264.959634 
L -1353.627082 266.429183 
L -1345.579005 266.28525 
L -1337.530929 270.154334 
L -1329.482852 267.822276 
L -1321.434775 266.568472 
L -1313.386698 267.439735 
L -1305.338621 269.096136 
L -1297.290544 267.758295 
L -1289.242467 265.400898 
L -1281.19439 266.11279 
L -1273.146313 262.685626 
L -1265.098236 262.565626 
L -1257.050159 267.049946 
L -1249.002082 266.266688 
L -1240.954005 262.950919 
L -1232.905929 261.722593 
L -1224.857852 261.486201 
L -1216.809775 257.890735 
L -1208.761698 258.025374 
L -1200.713621 257.397083 
L -1192.665544 256.127433 
L -1184.617467 254.669842 
L -1176.56939 252.153185 
L -1168.521313 252.601271 
L -1160.473236 250.682948 
L -1152.425159 249.739041 
L -1144.377082 248.402768 
L -1136.329005 247.819498 
L -1128.280929 245.730217 
L -1120.232852 242.484683 
L -1112.184775 241.732319 
L -1104.136698 238.997561 
L -1096.088621 235.343792 
L -1088.040544 236.997906 
L -1079.992467 232.266382 
L -1071.94439 233.458776 
L -1063.896313 232.134008 
L -1055.848236 231.915234 
L -1047.800159 228.742941 
L -1039.752082 228.075481 
L -1031.704005 227.230941 
L -1023.655929 223.463687 
L -1015.607852 223.878896 
L -1007.559775 223.185674 
L -999.511698 222.665281 
L -991.463621 220.712081 
L -983.415544 221.103068 
L -975.367467 219.129718 
L -967.31939 217.257976 
L -959.271313 214.49692 
L -951.223236 213.421757 
L -943.175159 212.62694 
L -935.127082 210.650913 
L -927.079005 210.655715 
L -919.030929 209.577062 
L -910.982852 207.820248 
L -902.934775 207.656726 
L -894.886698 205.714615 
L -886.838621 206.95179 
L -878.790544 205.550767 
L -870.742467 205.421123 
L -862.69439 203.086482 
L -854.646313 199.974843 
L -846.598236 202.306651 
L -838.550159 202.06444 
L -830.502082 200.953621 
L -822.454005 199.814757 
L -814.405929 197.628422 
L -806.357852 197.034113 
L -798.309775 195.783968 
L -790.261698 195.835443 
L -782.213621 195.297677 
L -774.165544 193.237772 
L -766.117467 190.364442 
L -758.06939 193.857734 
L -750.021313 192.896998 
L -741.973236 190.443953 
L -733.925159 191.836751 
L -725.877082 187.531891 
L -717.829005 187.947504 
L -709.780929 188.114893 
L -701.732852 185.160249 
L -693.684775 189.906316 
L -685.636698 184.924642 
L -677.588621 182.336024 
L -669.540544 185.391401 
L -661.492467 186.122159 
L -653.44439 184.438122 
L -645.396313 185.532988 
L -637.348236 183.151075 
L -629.300159 187.344825 
L -621.252082 184.968784 
L -613.204005 185.691204 
L -605.155929 182.54205 
L -597.107852 179.693965 
L -589.059775 182.886045 
L -581.011698 188.756895 
L -572.963621 181.627043 
L -564.915544 181.798657 
L -556.867467 178.996269 
L -548.81939 180.006116 
L -540.771313 179.448564 
L -532.723236 177.63811 
L -524.675159 176.834646 
L -516.627082 179.595591 
L -508.579005 177.865803 
L -500.530929 180.387229 
L -492.482852 180.718829 
L -484.434775 172.69232 
L -476.386698 175.794474 
L -468.338621 175.937532 
L -460.290544 176.377646 
L -452.242467 176.768644 
L -444.19439 181.724243 
L -436.146313 183.660927 
L -428.098236 183.37095 
L -420.050159 188.869078 
L -412.002082 198.014654 
L -403.954005 187.023472 
L -395.905929 186.868465 
L -387.857852 187.079913 
L -379.809775 190.706793 
L -371.761698 191.528944 
L -363.713621 191.494933 
L -355.665544 199.400077 
L -347.617467 202.306192 
L -339.56939 193.285421 
L -331.521313 201.415184 
L -323.473236 197.367814 
L -315.425159 194.834041 
L -307.377082 204.702573 
L -299.329005 202.685755 
L -291.280929 209.033541 
L -283.232852 207.026279 
L -275.184775 202.639501 
L -267.136698 206.57862 
L -259.088621 206.50855 
L -251.040544 210.374845 
L -242.992467 207.814614 
L -234.94439 214.225378 
L -226.896313 209.462986 
L -218.848236 212.800774 
L -210.800159 212.002894 
L -202.752082 215.683721 
L -194.704005 209.493966 
L -186.655929 215.923056 
L -178.607852 215.46307 
L -170.559775 219.82419 
L -162.511698 222.076539 
L -154.463621 221.99308 
L -146.415544 220.748852 
L -138.367467 223.526468 
L -130.31939 225.56926 
L -122.271313 223.559678 
L -114.223236 222.742907 
L -106.175159 225.159145 
L -98.127082 227.346474 
L -90.079005 223.280371 
L -82.030929 220.895054 
L -73.982852 229.869782 
L -65.934775 233.901608 
L -57.886698 224.52299 
L -49.838621 227.16511 
L -41.790544 228.443303 
L -33.742467 229.015025 
L -25.69439 233.58584 
L -17.646313 232.905265 
L -9.598236 230.922439 
L -1.550159 232.877726 
L 6.497918 233.357665 
L 14.545995 228.292542 
L 22.594071 230.767138 
L 30.642148 229.15318 
L 38.690225 236.034091 
L 46.738302 244.527059 
L 54.786379 243.282172 
L 62.834456 236.494429 
L 70.882533 235.748944 
L 78.93061 236.66318 
L 86.978687 236.985118 
L 95.026764 243.321619 
L 103.074841 235.275088 
L 111.122918 243.762061 
L 119.170995 250.595339 
L 127.219071 244.936506 
L 135.267148 253.724079 
L 143.315225 248.284987 
L 151.363302 253.104509 
L 159.411379 250.014998 
L 167.459456 252.435407 
L 175.507533 257.197961 
L 183.55561 256.956286 
L 191.603687 258.483388 
L 199.651764 258.95001 
L 207.699841 259.545462 
L 215.747918 248.19894 
L 223.795995 263.057363 
L 231.844071 269.24181 
L 239.892148 263.485401 
L 247.940225 268.96689 
L 255.988302 270.274059 
L 264.036379 267.342892 
L 272.084456 273.538243 
L 280.132533 277.751901 
L 288.18061 275.542737 
L 296.228687 277.302644 
L 304.276764 278.378153 
L 312.324841 280.027818 
L 320.372918 284.81847 
L 328.420995 275.668882 
L 336.469071 287.542569 
L 344.517148 288.067763 
L 352.565225 288.823244 
L 360.613302 281.850381 
L 368.661379 290.91776 
L 376.709456 297.039871 
L 384.757533 291.35307 
L 392.80561 292.300536 
L 400.853687 300.767669 
L 408.901764 286.779575 
L 416.949841 300.392634 
L 424.997918 292.3503 
L 433.045995 304.307796 
L 441.094071 299.141438 
L 449.142148 304.510144 
L 457.190225 306.422752 
L 465.238302 308.988175 
L 473.286379 310.034063 
L 481.334456 307.291461 
L 489.382533 307.742166 
L 497.43061 309.68646 
L 505.478687 315.386035 
L 513.526764 315.116364 
L 521.574841 315.356186 
L 529.622918 319.009868 
L 537.670995 319.653307 
L 545.719071 317.468667 
L 553.767148 318.271839 
L 561.815225 323.577213 
L 569.863302 324.707787 
L 577.911379 326.327877 
L 585.959456 322.783712 
L 594.007533 317.272042 
L 602.05561 324.131991 
L 610.103687 322.492141 
L 618.151764 324.588041 
L 626.199841 327.734909 
L 634.247918 324.478802 
L 642.295995 329.389206 
L 650.344071 326.386676 
L 658.392148 326.180562 
L 666.440225 326.19818 
L 674.488302 330.480869 
L 682.536379 329.65954 
L 690.584456 329.490104 
L 698.632533 326.732172 
L 706.68061 328.470128 
L 714.728687 329.294304 
L 722.776764 328.605052 
L 730.824841 331.391763 
L 738.872918 330.87798 
L 746.920995 332.474269 
L 754.969071 334.233316 
L 763.017148 334.157247 
L 771.065225 332.550391 
L 779.113302 332.999448 
L 787.161379 331.975491 
L 795.209456 333.238945 
L 803.257533 333.470494 
L 811.30561 331.526642 
L 819.353687 333.543289 
L 827.401764 324.224891 
L 835.449841 333.193817 
L 843.497918 336.427627 
L 851.545995 332.564263 
L 859.594071 332.350826 
L 867.642148 335.534215 
L 875.690225 335.403625 
L 883.738302 331.910449 
L 891.786379 331.415229 
L 899.834456 333.297794 
L 907.882533 332.256874 
L 915.93061 336.068275 
L 923.978687 334.346934 
L 932.026764 337.25519 
L 940.074841 333.321257 
L 940.074841 291.37741 
L 940.074841 291.37741 
L 932.026764 287.834706 
L 923.978687 283.397882 
L 915.93061 288.192371 
L 907.882533 279.069194 
L 899.834456 281.563016 
L 891.786379 280.233447 
L 883.738302 270.689073 
L 875.690225 282.893108 
L 867.642148 289.391405 
L 859.594071 271.256383 
L 851.545995 278.977393 
L 843.497918 286.374191 
L 835.449841 281.328041 
L 827.401764 221.98665 
L 819.353687 279.267362 
L 811.30561 268.349781 
L 803.257533 279.741523 
L 795.209456 278.760987 
L 787.161379 274.218008 
L 779.113302 274.583909 
L 771.065225 273.359708 
L 763.017148 279.978874 
L 754.969071 280.17724 
L 746.920995 271.526511 
L 738.872918 265.826352 
L 730.824841 270.752413 
L 722.776764 262.558499 
L 714.728687 265.905436 
L 706.68061 261.168394 
L 698.632533 255.116577 
L 690.584456 263.828759 
L 682.536379 264.909109 
L 674.488302 265.078394 
L 666.440225 255.281043 
L 658.392148 253.273644 
L 650.344071 252.995737 
L 642.295995 264.670339 
L 634.247918 248.857962 
L 626.199841 259.776998 
L 618.151764 250.617789 
L 610.103687 243.756406 
L 602.05561 249.694829 
L 594.007533 224.394593 
L 585.959456 247.190301 
L 577.911379 256.688482 
L 569.863302 252.170992 
L 561.815225 250.093749 
L 553.767148 229.889111 
L 545.719071 230.612318 
L 537.670995 237.998102 
L 529.622918 237.644024 
L 521.574841 226.542781 
L 513.526764 227.345126 
L 505.478687 226.559846 
L 497.43061 215.751879 
L 489.382533 206.487076 
L 481.334456 204.644753 
L 473.286379 213.269931 
L 465.238302 211.096185 
L 457.190225 206.472373 
L 449.142148 201.738857 
L 441.094071 185.669056 
L 433.045995 202.350027 
L 424.997918 160.41554 
L 416.949841 189.289304 
L 408.901764 149.384319 
L 400.853687 193.244332 
L 392.80561 169.487543 
L 384.757533 169.338143 
L 376.709456 182.042151 
L 368.661379 167.710862 
L 360.613302 141.318488 
L 352.565225 161.120644 
L 344.517148 161.007851 
L 336.469071 160.502386 
L 328.420995 129.689385 
L 320.372918 145.406342 
L 312.324841 141.987284 
L 304.276764 140.110082 
L 296.228687 136.979371 
L 288.18061 130.766165 
L 280.132533 137.430478 
L 272.084456 126.260422 
L 264.036379 112.233627 
L 255.988302 124.36469 
L 247.940225 115.249917 
L 239.892148 107.145408 
L 231.844071 121.075408 
L 223.795995 106.485004 
L 215.747918 68.596846 
L 207.699841 96.737106 
L 199.651764 95.89597 
L 191.603687 96.227438 
L 183.55561 93.093988 
L 175.507533 93.514584 
L 167.459456 83.394184 
L 159.411379 79.383034 
L 151.363302 87.678523 
L 143.315225 72.870136 
L 135.267148 88.611754 
L 127.219071 67.960158 
L 119.170995 80.31812 
L 111.122918 66.68919 
L 103.074841 49.740462 
L 95.026764 65.950324 
L 86.978687 51.160545 
L 78.93061 52.558661 
L 70.882533 52.264834 
L 62.834456 54.111066 
L 54.786379 68.792712 
L 46.738302 72.580701 
L 38.690225 55.828578 
L 30.642148 38.672944 
L 22.594071 44.025681 
L 14.545995 40.923315 
L 6.497918 52.401178 
L -1.550159 51.722765 
L -9.598236 47.764304 
L -17.646313 53.987505 
L -25.69439 54.031996 
L -33.742467 45.626088 
L -41.790544 47.230792 
L -49.838621 44.312046 
L -57.886698 40.602521 
L -65.934775 61.276949 
L -73.982852 50.501984 
L -82.030929 35.570107 
L -90.079005 43.576116 
L -98.127082 50.803039 
L -106.175159 47.013029 
L -114.223236 44.244047 
L -122.271313 47.483072 
L -130.31939 55.094614 
L -138.367467 48.121513 
L -146.415544 45.949358 
L -154.463621 49.671592 
L -162.511698 45.548097 
L -170.559775 47.704837 
L -178.607852 38.783838 
L -186.655929 42.889513 
L -194.704005 31.880519 
L -202.752082 42.549688 
L -210.800159 38.478248 
L -218.848236 41.922607 
L -226.896313 39.382921 
L -234.94439 46.140308 
L -242.992467 36.352269 
L -251.040544 43.542697 
L -259.088621 37.600475 
L -267.136698 39.501388 
L -275.184775 34.976597 
L -283.232852 38.314899 
L -291.280929 46.334053 
L -299.329005 39.78447 
L -307.377082 42.135847 
L -315.425159 28.654935 
L -323.473236 35.767924 
L -331.521313 39.672235 
L -339.56939 29.431021 
L -347.617467 42.140391 
L -355.665544 43.698479 
L -363.713621 30.606471 
L -371.761698 31.488209 
L -379.809775 31.175 
L -387.857852 26.904663 
L -395.905929 30.996363 
L -403.954005 30.467123 
L -412.002082 47.293529 
L -420.050159 36.937584 
L -428.098236 29.510452 
L -436.146313 30.522439 
L -444.19439 28.940349 
L -452.242467 24.84 
L -460.290544 27.473831 
L -468.338621 25.039375 
L -476.386698 29.702436 
L -484.434775 25.803235 
L -492.482852 35.926661 
L -500.530929 38.118839 
L -508.579005 36.979843 
L -516.627082 39.996431 
L -524.675159 37.488821 
L -532.723236 41.194651 
L -540.771313 43.76154 
L -548.81939 49.037277 
L -556.867467 46.561199 
L -564.915544 52.337456 
L -572.963621 52.334244 
L -581.011698 62.247731 
L -589.059775 57.121299 
L -597.107852 54.807343 
L -605.155929 59.533023 
L -613.204005 62.142842 
L -621.252082 63.131646 
L -629.300159 69.150588 
L -637.348236 65.476485 
L -645.396313 69.748671 
L -653.44439 68.842654 
L -661.492467 70.425397 
L -669.540544 69.66582 
L -677.588621 68.195271 
L -685.636698 73.0599 
L -693.684775 79.289226 
L -701.732852 74.328518 
L -709.780929 78.233379 
L -717.829005 77.491804 
L -725.877082 79.996957 
L -733.925159 84.921779 
L -741.973236 84.124162 
L -750.021313 88.231009 
L -758.06939 89.787969 
L -766.117467 86.530982 
L -774.165544 89.460091 
L -782.213621 92.650164 
L -790.261698 94.205731 
L -798.309775 94.732959 
L -806.357852 97.180979 
L -814.405929 97.526365 
L -822.454005 100.851228 
L -830.502082 102.232941 
L -838.550159 103.472723 
L -846.598236 104.70835 
L -854.646313 100.548631 
L -862.69439 106.470801 
L -870.742467 109.216781 
L -878.790544 109.245625 
L -886.838621 110.040135 
L -894.886698 110.695946 
L -902.934775 112.85826 
L -910.982852 112.973429 
L -919.030929 115.91032 
L -927.079005 117.339709 
L -935.127082 117.406627 
L -943.175159 118.875396 
L -951.223236 120.648548 
L -959.271313 122.468813 
L -967.31939 127.119423 
L -975.367467 128.70455 
L -983.415544 131.305741 
L -991.463621 130.977563 
L -999.511698 133.522529 
L -1007.559775 134.385867 
L -1015.607852 135.653464 
L -1023.655929 134.315462 
L -1031.704005 140.688368 
L -1039.752082 141.918218 
L -1047.800159 143.037985 
L -1055.848236 147.18931 
L -1063.896313 147.725001 
L -1071.94439 149.919002 
L -1079.992467 148.998108 
L -1088.040544 154.463632 
L -1096.088621 153.905383 
L -1104.136698 159.220197 
L -1112.184775 163.244662 
L -1120.232852 165.009444 
L -1128.280929 169.858543 
L -1136.329005 173.833442 
L -1144.377082 174.569889 
L -1152.425159 177.336807 
L -1160.473236 178.729267 
L -1168.521313 182.078532 
L -1176.56939 182.183929 
L -1184.617467 186.501604 
L -1192.665544 189.927191 
L -1200.713621 192.27558 
L -1208.761698 193.988233 
L -1216.809775 195.496199 
L -1224.857852 200.029837 
L -1232.905929 201.674388 
L -1240.954005 204.743228 
L -1249.002082 208.900119 
L -1257.050159 210.707513 
L -1265.098236 208.348257 
L -1273.146313 209.919774 
L -1281.19439 214.322739 
L -1289.242467 215.346724 
L -1297.290544 218.513324 
L -1305.338621 220.978486 
L -1313.386698 220.434877 
L -1321.434775 221.957797 
L -1329.482852 223.91542 
L -1337.530929 227.071381 
L -1345.579005 224.448634 
L -1353.627082 226.054762 
L -1361.675159 226.324426 
L -1369.723236 230.517217 
L -1377.771313 230.174764 
L -1385.81939 228.409508 
L -1393.867467 230.614904 
L -1401.915544 233.049081 
L -1409.963621 227.699779 
L -1418.011698 232.996862 
L -1426.059775 226.748828 
L -1434.107852 226.502229 
L -1442.155929 225.353568 
L -1450.204005 226.816398 
L -1458.252082 227.566362 
L -1466.300159 227.946661 
L -1474.348236 224.702044 
L -1482.396313 227.551604 
L -1490.44439 219.809071 
L -1498.492467 210.816256 
L -1506.540544 213.57461 
L -1514.588621 218.107037 
L -1522.636698 206.417002 
L -1530.684775 207.63513 
L -1538.732852 204.755454 
L -1546.780929 204.147652 
L -1554.829005 189.282984 
L -1562.877082 187.630051 
L -1570.925159 182.393886 
L -1578.973236 170.803692 
L -1587.021313 161.791536 
L -1595.06939 171.4646 
L -1603.117467 166.803283 
L -1611.165544 159.011757 
L -1619.213621 155.840924 
L -1627.261698 150.266926 
L -1635.309775 142.96421 
L -1643.357852 146.151393 
L -1651.405929 133.009114 
L -1659.454005 126.48957 
L -1667.502082 123.602993 
L -1675.550159 121.331948 
L -1683.598236 122.889602 
L -1691.646313 119.839109 
L -1699.69439 122.830897 
L -1707.742467 126.751204 
L -1715.790544 120.844909 
L -1723.838621 120.620487 
L -1731.886698 126.98721 
L -1739.934775 128.778702 
L -1747.982852 126.962734 
L -1756.030929 139.696825 
L -1764.079005 131.662632 
L -1772.127082 135.141546 
L -1780.175159 145.01911 
L -1788.223236 143.023158 
L -1796.271313 147.051943 
L -1804.31939 150.738161 
L -1812.367467 154.969478 
L -1820.415544 159.035691 
L -1828.463621 163.564728 
L -1836.511698 167.807317 
L -1844.559775 171.400128 
L -1852.607852 176.726057 
L -1860.655929 178.508674 
L -1868.704005 186.620929 
L -1876.752082 187.596576 
L -1884.800159 191.993767 
L -1892.848236 197.014938 
L -1900.896313 200.92851 
L -1908.94439 205.764702 
L -1916.992467 209.409475 
L -1925.040544 214.652623 
L -1933.088621 218.075361 
L -1941.136698 222.290183 
L -1949.184775 226.736231 
L -1957.232852 231.361451 
L -1965.280929 234.519087 
L -1973.329005 239.07078 
L -1981.377082 242.145784 
L -1989.425159 246.765636 
L -1997.473236 250.372206 
L -2005.521313 254.270707 
L -2013.56939 258.04706 
L -2021.617467 261.624545 
L -2029.665544 264.77986 
L -2037.713621 268.675911 
L -2045.761698 270.973313 
L -2053.809775 275.446834 
L -2061.857852 278.727116 
L -2069.905929 281.515872 
L -2077.954005 284.90106 
L -2086.002082 287.762078 
L -2094.050159 290.227901 
L -2102.098236 293.412714 
L -2110.146313 296.7822 
L -2118.19439 299.449077 
L -2126.242467 301.937472 
L -2134.290544 304.950255 
L -2142.338621 307.299099 
L -2150.386698 310.039193 
L -2158.434775 312.322037 
L -2166.482852 314.82969 
L -2174.530929 316.717101 
L -2182.579005 319.443716 
L -2190.627082 321.310336 
L -2198.675159 323.599565 
L -2206.723236 326.241618 
L -2214.771313 328.1926 
L -2222.81939 329.001644 
L -2230.867467 331.114165 
L -2238.915544 332.252532 
L -2246.963621 334.214343 
L -2255.011698 336.652664 
L -2263.059775 337.848914 
L -2271.107852 338.975122 
L -2279.155929 339.548726 
L -2287.204005 340.691789 
L -2295.252082 341.617654 
L -2303.300159 342.586896 
L -2311.348236 344.205058 
L -2319.396313 345.253894 
L -2327.44439 346.478222 
L -2335.492467 346.174467 
L -2343.540544 347.134669 
L -2351.588621 346.309304 
L -2359.636698 347.942971 
L -2367.684775 348.620429 
L -2375.732852 349.500673 
L -2383.780929 347.246036 
L -2391.829005 350.422592 
L -2399.877082 350.366995 
L -2407.925159 348.88798 
L -2415.973236 348.595122 
L -2424.021313 350.275116 
L -2432.06939 352.896286 
L -2440.117467 352.095853 
L -2448.165544 352.197436 
L -2456.213621 349.787428 
L -2464.261698 350.389234 
L -2472.309775 350.754272 
L -2480.357852 352.340312 
L -2488.405929 351.952482 
L -2496.454005 351.745762 
L -2504.502082 352.060219 
L -2512.550159 353.05022 
L -2520.598236 353.112489 
L -2528.646313 353.596764 
L -2536.69439 354.604147 
L -2544.742467 354.033528 
L -2552.790544 355.512088 
L -2560.838621 355.775395 
L -2568.886698 356.009592 
L -2576.934775 357.022041 
L -2584.982852 357.331499 
L -2593.030929 358.263668 
L -2601.079005 359.343449 
L -2609.127082 359.421721 
L -2617.175159 358.977634 
L -2625.223236 358.953677 
L -2633.271313 361.063401 
L -2641.31939 360.673568 
L -2649.367467 362.179949 
L -2657.415544 362.258039 
L -2665.463621 361.494592 
L -2673.511698 363.33402 
L -2681.559775 361.63878 
L -2689.607852 361.586886 
L -2697.655929 363.66781 
L -2705.704005 361.828342 
L -2713.752082 363.769855 
L -2721.800159 364.474345 
L -2729.848236 362.326843 
L -2737.896313 356.029606 
L -2745.94439 359.707869 
L -2753.992467 357.769153 
L -2762.040544 347.87823 
L -2770.088621 355.898301 
L -2778.136698 357.217101 
L -2786.184775 348.142059 
L -2794.232852 345.68733 
L -2802.280929 349.859751 
L -2810.329005 340.260433 
L -2818.377082 324.230925 
L -2826.425159 341.429347 
L -2834.473236 348.328871 
L -2842.521313 351.421087 
L -2850.56939 329.10678 
L -2858.617467 329.752491 
L -2866.665544 318.827953 
L -2874.713621 310.443023 
L -2882.761698 326.622861 
L -2890.809775 319.178914 
L -2898.857852 304.252034 
L -2906.905929 293.740371 
L -2914.954005 293.953772 
L -2923.002082 295.285254 
L -2931.050159 292.724195 
L -2939.098236 291.003732 
L -2947.146313 296.273511 
L -2955.19439 295.142032 
L -2963.242467 290.889841 
L -2971.290544 292.688284 
L -2979.338621 290.633157 
L -2987.386698 289.526655 
L -2995.434775 289.135918 
L -3003.482852 290.913952 
L -3011.530929 291.741808 
L -3019.579005 292.022558 
L -3027.627082 293.474018 
L -3035.675159 293.885225 
L -3043.723236 294.972363 
L -3051.771313 297.016028 
L -3059.81939 298.475242 
L -3067.867467 299.377745 
L -3075.915544 300.423847 
L -3083.963621 301.989142 
L -3092.011698 302.80981 
L -3100.059775 304.316997 
L -3108.107852 306.23932 
L -3116.155929 307.284646 
L -3124.204005 307.851316 
L -3132.252082 308.931059 
L -3140.300159 310.039284 
L -3148.348236 311.072061 
L -3156.396313 312.057715 
L -3164.44439 313.001759 
L -3172.492467 314.429352 
L -3180.540544 315.028316 
L -3188.588621 316.03216 
L -3196.636698 317.090281 
L -3204.684775 317.974419 
L -3212.732852 318.834369 
L -3220.780929 319.503471 
L -3228.829005 320.247148 
L -3236.877082 321.357541 
L -3244.925159 322.056154 
L -3252.973236 322.924097 
L -3261.021313 323.588198 
L -3269.06939 324.377996 
L -3277.117467 325.192023 
L -3285.165544 326.018134 
L -3293.213621 326.697091 
L -3301.261698 327.52893 
L -3309.309775 328.25193 
L -3317.357852 329.036734 
L -3325.405929 329.757111 
L -3333.454005 330.518807 
L -3341.502082 331.214581 
L -3349.550159 331.971424 
L -3357.598236 332.797263 
L -3365.646313 333.404963 
L -3373.69439 334.191683 
L -3381.742467 334.859037 
L -3389.790544 335.649104 
L -3397.838621 336.205047 
L -3405.886698 336.937333 
L -3413.934775 337.632554 
L -3421.982852 338.291697 
L -3430.030929 338.964919 
L -3438.079005 339.582345 
L -3446.127082 340.316 
L -3454.175159 340.968135 
L -3462.223236 341.490895 
L -3470.271313 342.125885 
L -3478.31939 342.758419 
L -3486.367467 343.385597 
L -3494.415544 343.985542 
L -3502.463621 344.536443 
L -3510.511698 345.148929 
L -3518.559775 345.744408 
L -3526.607852 346.34 
L -3534.655929 346.929641 
L -3542.704005 347.53438 
L -3550.752082 348.163513 
L -3558.800159 348.686799 
L -3566.848236 349.298789 
L -3574.896313 349.893536 
L -3582.94439 350.456498 
L -3590.992467 351.038184 
L -3599.040544 351.631478 
L -3607.088621 352.20054 
L -3615.136698 352.801687 
L -3623.184775 353.335512 
L -3631.232852 353.88037 
L -3639.280929 354.461805 
L -3647.329005 355.01603 
L -3655.377082 355.531886 
L -3663.425159 356.083976 
L -3671.473236 356.572049 
L -3679.521313 357.101677 
L -3687.56939 357.673251 
L -3695.617467 358.13796 
L -3703.665544 358.674648 
L -3711.713621 359.170739 
L -3719.761698 359.696352 
L -3727.809775 360.152794 
L -3735.857852 360.713839 
L -3743.905929 361.145204 
L -3751.954005 361.649803 
L -3760.002082 362.13804 
L -3768.050159 362.642446 
L -3776.098236 363.11198 
L -3784.146313 363.590689 
L -3792.19439 364.032309 
L -3800.242467 364.501639 
L -3808.290544 364.925753 
L -3816.338621 365.323848 
L -3824.386698 365.737929 
L -3832.434775 366.159102 
L -3840.482852 366.562983 
L -3848.530929 366.980453 
L -3856.579005 367.394481 
L -3864.627082 367.785763 
L -3872.675159 368.187682 
L -3880.723236 368.590779 
L -3888.771313 368.947265 
L -3896.81939 369.317077 
L -3904.867467 369.714284 
L -3912.915544 370.087621 
L -3920.963621 370.411523 
L -3929.011698 370.787903 
L -3937.059775 371.125718 
L -3945.107852 371.432439 
L -3953.155929 371.744908 
L -3961.204005 372.035012 
L -3969.252082 372.361921 
L -3977.300159 372.619041 
L -3985.348236 372.901518 
L -3993.396313 373.166851 
L -4001.44439 373.410936 
L -4009.492467 373.63037 
L -4017.540544 373.826826 
L -4025.588621 374.025606 
L -4033.636698 374.225861 
L -4041.684775 374.383456 
L -4049.732852 374.570627 
L -4057.780929 374.722741 
L -4065.829005 374.848582 
L -4073.877082 375.008588 
L -4081.925159 375.144341 
L -4089.973236 375.250109 
L -4098.021313 375.369289 
L -4106.06939 375.485659 
L -4114.117467 375.584115 
L -4122.165544 375.6846 
L -4130.213621 375.761695 
L -4138.261698 375.864647 
L -4146.309775 375.939422 
L -4154.357852 376.021041 
L -4162.405929 376.109482 
L -4170.454005 376.175607 
L -4178.502082 376.248668 
L -4186.550159 376.355995 
L -4194.598236 376.422236 
L -4202.646313 376.511841 
L -4210.69439 376.57647 
L -4218.742467 376.674204 
L -4226.790544 376.745604 
L -4234.838621 376.823719 
L -4242.886698 376.88917 
L -4250.934775 376.947218 
L -4258.982852 377.019283 
L -4267.030929 377.104386 
L -4275.079005 377.189108 
L -4283.127082 377.260199 
L -4291.175159 377.31211 
L -4299.223236 377.401227 
L -4307.271313 377.468914 
L -4315.31939 377.555717 
z
" clip-path="url(#p64532ac929)" style="fill: #008000; fill-opacity: 0.3; stroke: #008000; stroke-opacity: 0.3"/>
   </g>
   <g id="matplotlib.axis_1">
    <g id="xtick_1">
     <g id="line2d_1">
      <defs>
       <path id="mf17ef7eee9" d="M 0 0 
L 0 3.5 
" style="stroke: #000000; stroke-width: 0.8"/>
      </defs>
      <g>
       <use xlink:href="#mf17ef7eee9" x="103.074841" y="395.28" style="stroke: #000000; stroke-width: 0.8"/>
      </g>
     </g>
     <g id="text_1">
      <!-- 2023-01-01 -->
      <g transform="translate(17.945813 495.213718) rotate(-45) scale(0.2 -0.2)">
       <defs>
        <path id="DejaVuSans-32" d="M 1228 531 
L 3431 531 
L 3431 0 
L 469 0 
L 469 531 
Q 828 903 1448 1529 
Q 2069 2156 2228 2338 
Q 2531 2678 2651 2914 
Q 2772 3150 2772 3378 
Q 2772 3750 2511 3984 
Q 2250 4219 1831 4219 
Q 1534 4219 1204 4116 
Q 875 4013 500 3803 
L 500 4441 
Q 881 4594 1212 4672 
Q 1544 4750 1819 4750 
Q 2544 4750 2975 4387 
Q 3406 4025 3406 3419 
Q 3406 3131 3298 2873 
Q 3191 2616 2906 2266 
Q 2828 2175 2409 1742 
Q 1991 1309 1228 531 
z
" transform="scale(0.015625)"/>
        <path id="DejaVuSans-30" d="M 2034 4250 
Q 1547 4250 1301 3770 
Q 1056 3291 1056 2328 
Q 1056 1369 1301 889 
Q 1547 409 2034 409 
Q 2525 409 2770 889 
Q 3016 1369 3016 2328 
Q 3016 3291 2770 3770 
Q 2525 4250 2034 4250 
z
M 2034 4750 
Q 2819 4750 3233 4129 
Q 3647 3509 3647 2328 
Q 3647 1150 3233 529 
Q 2819 -91 2034 -91 
Q 1250 -91 836 529 
Q 422 1150 422 2328 
Q 422 3509 836 4129 
Q 1250 4750 2034 4750 
z
" transform="scale(0.015625)"/>
        <path id="DejaVuSans-33" d="M 2597 2516 
Q 3050 2419 3304 2112 
Q 3559 1806 3559 1356 
Q 3559 666 3084 287 
Q 2609 -91 1734 -91 
Q 1441 -91 1130 -33 
Q 819 25 488 141 
L 488 750 
Q 750 597 1062 519 
Q 1375 441 1716 441 
Q 2309 441 2620 675 
Q 2931 909 2931 1356 
Q 2931 1769 2642 2001 
Q 2353 2234 1838 2234 
L 1294 2234 
L 1294 2753 
L 1863 2753 
Q 2328 2753 2575 2939 
Q 2822 3125 2822 3475 
Q 2822 3834 2567 4026 
Q 2313 4219 1838 4219 
Q 1578 4219 1281 4162 
Q 984 4106 628 3988 
L 628 4550 
Q 988 4650 1302 4700 
Q 1616 4750 1894 4750 
Q 2613 4750 3031 4423 
Q 3450 4097 3450 3541 
Q 3450 3153 3228 2886 
Q 3006 2619 2597 2516 
z
" transform="scale(0.015625)"/>
        <path id="DejaVuSans-2d" d="M 313 2009 
L 1997 2009 
L 1997 1497 
L 313 1497 
L 313 2009 
z
" transform="scale(0.015625)"/>
        <path id="DejaVuSans-31" d="M 794 531 
L 1825 531 
L 1825 4091 
L 703 3866 
L 703 4441 
L 1819 4666 
L 2450 4666 
L 2450 531 
L 3481 531 
L 3481 0 
L 794 0 
L 794 531 
z
" transform="scale(0.015625)"/>
       </defs>
       <use xlink:href="#DejaVuSans-32"/>
       <use xlink:href="#DejaVuSans-30" x="63.623047"/>
       <use xlink:href="#DejaVuSans-32" x="127.246094"/>
       <use xlink:href="#DejaVuSans-33" x="190.869141"/>
       <use xlink:href="#DejaVuSans-2d" x="254.492188"/>
       <use xlink:href="#DejaVuSans-30" x="290.576172"/>
       <use xlink:href="#DejaVuSans-31" x="354.199219"/>
       <use xlink:href="#DejaVuSans-2d" x="417.822266"/>
       <use xlink:href="#DejaVuSans-30" x="453.90625"/>
       <use xlink:href="#DejaVuSans-31" x="517.529297"/>
      </g>
     </g>
    </g>
    <g id="xtick_2">
     <g id="line2d_2">
      <g>
       <use xlink:href="#mf17ef7eee9" x="215.747918" y="395.28" style="stroke: #000000; stroke-width: 0.8"/>
      </g>
     </g>
     <g id="text_2">
      <!-- 2023-01-15 -->
      <g transform="translate(130.61889 495.213718) rotate(-45) scale(0.2 -0.2)">
       <defs>
        <path id="DejaVuSans-35" d="M 691 4666 
L 3169 4666 
L 3169 4134 
L 1269 4134 
L 1269 2991 
Q 1406 3038 1543 3061 
Q 1681 3084 1819 3084 
Q 2600 3084 3056 2656 
Q 3513 2228 3513 1497 
Q 3513 744 3044 326 
Q 2575 -91 1722 -91 
Q 1428 -91 1123 -41 
Q 819 9 494 109 
L 494 744 
Q 775 591 1075 516 
Q 1375 441 1709 441 
Q 2250 441 2565 725 
Q 2881 1009 2881 1497 
Q 2881 1984 2565 2268 
Q 2250 2553 1709 2553 
Q 1456 2553 1204 2497 
Q 953 2441 691 2322 
L 691 4666 
z
" transform="scale(0.015625)"/>
       </defs>
       <use xlink:href="#DejaVuSans-32"/>
       <use xlink:href="#DejaVuSans-30" x="63.623047"/>
       <use xlink:href="#DejaVuSans-32" x="127.246094"/>
       <use xlink:href="#DejaVuSans-33" x="190.869141"/>
       <use xlink:href="#DejaVuSans-2d" x="254.492188"/>
       <use xlink:href="#DejaVuSans-30" x="290.576172"/>
       <use xlink:href="#DejaVuSans-31" x="354.199219"/>
       <use xlink:href="#DejaVuSans-2d" x="417.822266"/>
       <use xlink:href="#DejaVuSans-31" x="453.90625"/>
       <use xlink:href="#DejaVuSans-35" x="517.529297"/>
      </g>
     </g>
    </g>
    <g id="xtick_3">
     <g id="line2d_3">
      <g>
       <use xlink:href="#mf17ef7eee9" x="328.420995" y="395.28" style="stroke: #000000; stroke-width: 0.8"/>
      </g>
     </g>
     <g id="text_3">
      <!-- 2023-01-29 -->
      <g transform="translate(243.291967 495.213718) rotate(-45) scale(0.2 -0.2)">
       <defs>
        <path id="DejaVuSans-39" d="M 703 97 
L 703 672 
Q 941 559 1184 500 
Q 1428 441 1663 441 
Q 2288 441 2617 861 
Q 2947 1281 2994 2138 
Q 2813 1869 2534 1725 
Q 2256 1581 1919 1581 
Q 1219 1581 811 2004 
Q 403 2428 403 3163 
Q 403 3881 828 4315 
Q 1253 4750 1959 4750 
Q 2769 4750 3195 4129 
Q 3622 3509 3622 2328 
Q 3622 1225 3098 567 
Q 2575 -91 1691 -91 
Q 1453 -91 1209 -44 
Q 966 3 703 97 
z
M 1959 2075 
Q 2384 2075 2632 2365 
Q 2881 2656 2881 3163 
Q 2881 3666 2632 3958 
Q 2384 4250 1959 4250 
Q 1534 4250 1286 3958 
Q 1038 3666 1038 3163 
Q 1038 2656 1286 2365 
Q 1534 2075 1959 2075 
z
" transform="scale(0.015625)"/>
       </defs>
       <use xlink:href="#DejaVuSans-32"/>
       <use xlink:href="#DejaVuSans-30" x="63.623047"/>
       <use xlink:href="#DejaVuSans-32" x="127.246094"/>
       <use xlink:href="#DejaVuSans-33" x="190.869141"/>
       <use xlink:href="#DejaVuSans-2d" x="254.492188"/>
       <use xlink:href="#DejaVuSans-30" x="290.576172"/>
       <use xlink:href="#DejaVuSans-31" x="354.199219"/>
       <use xlink:href="#DejaVuSans-2d" x="417.822266"/>
       <use xlink:href="#DejaVuSans-32" x="453.90625"/>
       <use xlink:href="#DejaVuSans-39" x="517.529297"/>
      </g>
     </g>
    </g>
    <g id="xtick_4">
     <g id="line2d_4">
      <g>
       <use xlink:href="#mf17ef7eee9" x="441.094071" y="395.28" style="stroke: #000000; stroke-width: 0.8"/>
      </g>
     </g>
     <g id="text_4">
      <!-- 2023-02-12 -->
      <g transform="translate(355.965044 495.213718) rotate(-45) scale(0.2 -0.2)">
       <use xlink:href="#DejaVuSans-32"/>
       <use xlink:href="#DejaVuSans-30" x="63.623047"/>
       <use xlink:href="#DejaVuSans-32" x="127.246094"/>
       <use xlink:href="#DejaVuSans-33" x="190.869141"/>
       <use xlink:href="#DejaVuSans-2d" x="254.492188"/>
       <use xlink:href="#DejaVuSans-30" x="290.576172"/>
       <use xlink:href="#DejaVuSans-32" x="354.199219"/>
       <use xlink:href="#DejaVuSans-2d" x="417.822266"/>
       <use xlink:href="#DejaVuSans-31" x="453.90625"/>
       <use xlink:href="#DejaVuSans-32" x="517.529297"/>
      </g>
     </g>
    </g>
    <g id="xtick_5">
     <g id="line2d_5">
      <g>
       <use xlink:href="#mf17ef7eee9" x="553.767148" y="395.28" style="stroke: #000000; stroke-width: 0.8"/>
      </g>
     </g>
     <g id="text_5">
      <!-- 2023-02-26 -->
      <g transform="translate(468.638121 495.213718) rotate(-45) scale(0.2 -0.2)">
       <defs>
        <path id="DejaVuSans-36" d="M 2113 2584 
Q 1688 2584 1439 2293 
Q 1191 2003 1191 1497 
Q 1191 994 1439 701 
Q 1688 409 2113 409 
Q 2538 409 2786 701 
Q 3034 994 3034 1497 
Q 3034 2003 2786 2293 
Q 2538 2584 2113 2584 
z
M 3366 4563 
L 3366 3988 
Q 3128 4100 2886 4159 
Q 2644 4219 2406 4219 
Q 1781 4219 1451 3797 
Q 1122 3375 1075 2522 
Q 1259 2794 1537 2939 
Q 1816 3084 2150 3084 
Q 2853 3084 3261 2657 
Q 3669 2231 3669 1497 
Q 3669 778 3244 343 
Q 2819 -91 2113 -91 
Q 1303 -91 875 529 
Q 447 1150 447 2328 
Q 447 3434 972 4092 
Q 1497 4750 2381 4750 
Q 2619 4750 2861 4703 
Q 3103 4656 3366 4563 
z
" transform="scale(0.015625)"/>
       </defs>
       <use xlink:href="#DejaVuSans-32"/>
       <use xlink:href="#DejaVuSans-30" x="63.623047"/>
       <use xlink:href="#DejaVuSans-32" x="127.246094"/>
       <use xlink:href="#DejaVuSans-33" x="190.869141"/>
       <use xlink:href="#DejaVuSans-2d" x="254.492188"/>
       <use xlink:href="#DejaVuSans-30" x="290.576172"/>
       <use xlink:href="#DejaVuSans-32" x="354.199219"/>
       <use xlink:href="#DejaVuSans-2d" x="417.822266"/>
       <use xlink:href="#DejaVuSans-32" x="453.90625"/>
       <use xlink:href="#DejaVuSans-36" x="517.529297"/>
      </g>
     </g>
    </g>
    <g id="xtick_6">
     <g id="line2d_6">
      <g>
       <use xlink:href="#mf17ef7eee9" x="666.440225" y="395.28" style="stroke: #000000; stroke-width: 0.8"/>
      </g>
     </g>
     <g id="text_6">
      <!-- 2023-03-12 -->
      <g transform="translate(581.311198 495.213718) rotate(-45) scale(0.2 -0.2)">
       <use xlink:href="#DejaVuSans-32"/>
       <use xlink:href="#DejaVuSans-30" x="63.623047"/>
       <use xlink:href="#DejaVuSans-32" x="127.246094"/>
       <use xlink:href="#DejaVuSans-33" x="190.869141"/>
       <use xlink:href="#DejaVuSans-2d" x="254.492188"/>
       <use xlink:href="#DejaVuSans-30" x="290.576172"/>
       <use xlink:href="#DejaVuSans-33" x="354.199219"/>
       <use xlink:href="#DejaVuSans-2d" x="417.822266"/>
       <use xlink:href="#DejaVuSans-31" x="453.90625"/>
       <use xlink:href="#DejaVuSans-32" x="517.529297"/>
      </g>
     </g>
    </g>
    <g id="xtick_7">
     <g id="line2d_7">
      <g>
       <use xlink:href="#mf17ef7eee9" x="779.113302" y="395.28" style="stroke: #000000; stroke-width: 0.8"/>
      </g>
     </g>
     <g id="text_7">
      <!-- 2023-03-26 -->
      <g transform="translate(693.984275 495.213718) rotate(-45) scale(0.2 -0.2)">
       <use xlink:href="#DejaVuSans-32"/>
       <use xlink:href="#DejaVuSans-30" x="63.623047"/>
       <use xlink:href="#DejaVuSans-32" x="127.246094"/>
       <use xlink:href="#DejaVuSans-33" x="190.869141"/>
       <use xlink:href="#DejaVuSans-2d" x="254.492188"/>
       <use xlink:href="#DejaVuSans-30" x="290.576172"/>
       <use xlink:href="#DejaVuSans-33" x="354.199219"/>
       <use xlink:href="#DejaVuSans-2d" x="417.822266"/>
       <use xlink:href="#DejaVuSans-32" x="453.90625"/>
       <use xlink:href="#DejaVuSans-36" x="517.529297"/>
      </g>
     </g>
    </g>
    <g id="xtick_8">
     <g id="line2d_8">
      <g>
       <use xlink:href="#mf17ef7eee9" x="891.786379" y="395.28" style="stroke: #000000; stroke-width: 0.8"/>
      </g>
     </g>
     <g id="text_8">
      <!-- 2023-04-09 -->
      <g transform="translate(806.657352 495.213718) rotate(-45) scale(0.2 -0.2)">
       <defs>
        <path id="DejaVuSans-34" d="M 2419 4116 
L 825 1625 
L 2419 1625 
L 2419 4116 
z
M 2253 4666 
L 3047 4666 
L 3047 1625 
L 3713 1625 
L 3713 1100 
L 3047 1100 
L 3047 0 
L 2419 0 
L 2419 1100 
L 313 1100 
L 313 1709 
L 2253 4666 
z
" transform="scale(0.015625)"/>
       </defs>
       <use xlink:href="#DejaVuSans-32"/>
       <use xlink:href="#DejaVuSans-30" x="63.623047"/>
       <use xlink:href="#DejaVuSans-32" x="127.246094"/>
       <use xlink:href="#DejaVuSans-33" x="190.869141"/>
       <use xlink:href="#DejaVuSans-2d" x="254.492188"/>
       <use xlink:href="#DejaVuSans-30" x="290.576172"/>
       <use xlink:href="#DejaVuSans-34" x="354.199219"/>
       <use xlink:href="#DejaVuSans-2d" x="417.822266"/>
       <use xlink:href="#DejaVuSans-30" x="453.90625"/>
       <use xlink:href="#DejaVuSans-39" x="517.529297"/>
      </g>
     </g>
    </g>
    <g id="xtick_9">
     <g id="line2d_9">
      <g>
       <use xlink:href="#mf17ef7eee9" x="940.074841" y="395.28" style="stroke: #000000; stroke-width: 0.8"/>
      </g>
     </g>
     <g id="text_9">
      <!-- 2023-04-15 -->
      <g transform="translate(854.945813 495.213718) rotate(-45) scale(0.2 -0.2)">
       <use xlink:href="#DejaVuSans-32"/>
       <use xlink:href="#DejaVuSans-30" x="63.623047"/>
       <use xlink:href="#DejaVuSans-32" x="127.246094"/>
       <use xlink:href="#DejaVuSans-33" x="190.869141"/>
       <use xlink:href="#DejaVuSans-2d" x="254.492188"/>
       <use xlink:href="#DejaVuSans-30" x="290.576172"/>
       <use xlink:href="#DejaVuSans-34" x="354.199219"/>
       <use xlink:href="#DejaVuSans-2d" x="417.822266"/>
       <use xlink:href="#DejaVuSans-31" x="453.90625"/>
       <use xlink:href="#DejaVuSans-35" x="517.529297"/>
      </g>
     </g>
    </g>
   </g>
   <g id="matplotlib.axis_2">
    <g id="ytick_1">
     <g id="line2d_10">
      <defs>
       <path id="m8fb6d2a3e2" d="M 0 0 
L -3.5 0 
" style="stroke: #000000; stroke-width: 0.8"/>
      </defs>
      <g>
       <use xlink:href="#m8fb6d2a3e2" x="103.074841" y="377.64" style="stroke: #000000; stroke-width: 0.8"/>
      </g>
     </g>
     <g id="text_10">
      <!-- 0.00 -->
      <g transform="translate(51.543591 385.238437) scale(0.2 -0.2)">
       <defs>
        <path id="DejaVuSans-2e" d="M 684 794 
L 1344 794 
L 1344 0 
L 684 0 
L 684 794 
z
" transform="scale(0.015625)"/>
       </defs>
       <use xlink:href="#DejaVuSans-30"/>
       <use xlink:href="#DejaVuSans-2e" x="63.623047"/>
       <use xlink:href="#DejaVuSans-30" x="95.410156"/>
       <use xlink:href="#DejaVuSans-30" x="159.033203"/>
      </g>
     </g>
    </g>
    <g id="ytick_2">
     <g id="line2d_11">
      <g>
       <use xlink:href="#m8fb6d2a3e2" x="103.074841" y="302.512045" style="stroke: #000000; stroke-width: 0.8"/>
      </g>
     </g>
     <g id="text_11">
      <!-- 0.05 -->
      <g transform="translate(51.543591 310.110482) scale(0.2 -0.2)">
       <use xlink:href="#DejaVuSans-30"/>
       <use xlink:href="#DejaVuSans-2e" x="63.623047"/>
       <use xlink:href="#DejaVuSans-30" x="95.410156"/>
       <use xlink:href="#DejaVuSans-35" x="159.033203"/>
      </g>
     </g>
    </g>
    <g id="ytick_3">
     <g id="line2d_12">
      <g>
       <use xlink:href="#m8fb6d2a3e2" x="103.074841" y="227.38409" style="stroke: #000000; stroke-width: 0.8"/>
      </g>
     </g>
     <g id="text_12">
      <!-- 0.10 -->
      <g transform="translate(51.543591 234.982527) scale(0.2 -0.2)">
       <use xlink:href="#DejaVuSans-30"/>
       <use xlink:href="#DejaVuSans-2e" x="63.623047"/>
       <use xlink:href="#DejaVuSans-31" x="95.410156"/>
       <use xlink:href="#DejaVuSans-30" x="159.033203"/>
      </g>
     </g>
    </g>
    <g id="ytick_4">
     <g id="line2d_13">
      <g>
       <use xlink:href="#m8fb6d2a3e2" x="103.074841" y="152.256135" style="stroke: #000000; stroke-width: 0.8"/>
      </g>
     </g>
     <g id="text_13">
      <!-- 0.15 -->
      <g transform="translate(51.543591 159.854572) scale(0.2 -0.2)">
       <use xlink:href="#DejaVuSans-30"/>
       <use xlink:href="#DejaVuSans-2e" x="63.623047"/>
       <use xlink:href="#DejaVuSans-31" x="95.410156"/>
       <use xlink:href="#DejaVuSans-35" x="159.033203"/>
      </g>
     </g>
    </g>
    <g id="ytick_5">
     <g id="line2d_14">
      <g>
       <use xlink:href="#m8fb6d2a3e2" x="103.074841" y="77.12818" style="stroke: #000000; stroke-width: 0.8"/>
      </g>
     </g>
     <g id="text_14">
      <!-- 0.20 -->
      <g transform="translate(51.543591 84.726617) scale(0.2 -0.2)">
       <use xlink:href="#DejaVuSans-30"/>
       <use xlink:href="#DejaVuSans-2e" x="63.623047"/>
       <use xlink:href="#DejaVuSans-32" x="95.410156"/>
       <use xlink:href="#DejaVuSans-30" x="159.033203"/>
      </g>
     </g>
    </g>
   </g>
   <g id="line2d_15">
    <path d="M 545.719071 377.64 
L 650.344071 377.64 
M 940.074841 377.64 
" clip-path="url(#p64532ac929)" style="fill: none; stroke: #ffa500; stroke-width: 1.5; stroke-linecap: square"/>
   </g>
   <g id="line2d_16">
    <path d="M 103.074841 377.64 
L 948.274841 377.64 
" clip-path="url(#p64532ac929)" style="fill: none; stroke-dasharray: 7.4,3.2; stroke-dashoffset: 0; stroke: #000000; stroke-width: 2"/>
   </g>
   <g id="patch_3">
    <path d="M 103.074841 395.28 
L 103.074841 7.2 
" style="fill: none; stroke: #000000; stroke-width: 0.8; stroke-linejoin: miter; stroke-linecap: square"/>
   </g>
   <g id="patch_4">
    <path d="M 940.074841 395.28 
L 940.074841 7.2 
" style="fill: none; stroke: #000000; stroke-width: 0.8; stroke-linejoin: miter; stroke-linecap: square"/>
   </g>
   <g id="patch_5">
    <path d="M 103.074841 395.28 
L 940.074841 395.28 
" style="fill: none; stroke: #000000; stroke-width: 0.8; stroke-linejoin: miter; stroke-linecap: square"/>
   </g>
   <g id="patch_6">
    <path d="M 103.074841 7.2 
L 940.074841 7.2 
" style="fill: none; stroke: #000000; stroke-width: 0.8; stroke-linejoin: miter; stroke-linecap: square"/>
   </g>
  </g>
 </g>
 <defs>
  <clipPath id="p64532ac929">
   <rect x="103.074841" y="7.2" width="837" height="388.08"/>
  </clipPath>
 </defs>
</svg>
