<?xml version="1.0" encoding="utf-8" standalone="no"?>
<!DOCTYPE svg PUBLIC "-//W3C//DTD SVG 1.1//EN"
  "http://www.w3.org/Graphics/SVG/1.1/DTD/svg11.dtd">
<svg xmlns:xlink="http://www.w3.org/1999/xlink" width="1040.965466pt" height="505.354841pt" viewBox="0 0 1040.965466 505.354841" xmlns="http://www.w3.org/2000/svg" version="1.1">
 <metadata>
  <rdf:RDF xmlns:dc="http://purl.org/dc/elements/1.1/" xmlns:cc="http://creativecommons.org/ns#" xmlns:rdf="http://www.w3.org/1999/02/22-rdf-syntax-ns#">
   <cc:Work>
    <dc:type rdf:resource="http://purl.org/dc/dcmitype/StillImage"/>
    <dc:date>2023-11-24T15:31:00.928452</dc:date>
    <dc:format>image/svg+xml</dc:format>
    <dc:creator>
     <cc:Agent>
      <dc:title>Matplotlib v3.7.2, https://matplotlib.org/</dc:title>
     </cc:Agent>
    </dc:creator>
   </cc:Work>
  </rdf:RDF>
 </metadata>
 <defs>
  <style type="text/css">*{stroke-linejoin: round; stroke-linecap: butt}</style>
 </defs>
 <g id="figure_1">
  <g id="patch_1">
   <path d="M 0 505.354841 
L 1040.965466 505.354841 
L 1040.965466 -0 
L 0 -0 
z
" style="fill: #ffffff"/>
  </g>
  <g id="axes_1">
   <g id="patch_2">
    <path d="M 103.074841 395.28 
L 940.074841 395.28 
L 940.074841 7.2 
L 103.074841 7.2 
z
" style="fill: #ffffff"/>
   </g>
   <g id="PolyCollection_1">
    <defs>
     <path id="mfa6baf830a" d="M 103.074841 -301.369833 
L 103.074841 -301.350543 
L 104.356617 -301.448718 
L 105.638394 -301.532523 
L 106.92017 -301.639894 
L 108.201946 -301.717496 
L 109.483723 -301.799119 
L 110.765499 -301.894952 
L 112.047276 -301.987571 
L 113.329052 -302.072583 
L 114.610828 -302.14603 
L 115.892605 -302.233556 
L 117.174381 -302.32881 
L 118.456158 -302.422859 
L 119.737934 -302.52873 
L 121.019711 -302.618778 
L 122.301487 -302.722484 
L 123.583263 -302.825204 
L 124.86504 -302.93757 
L 126.146816 -303.038278 
L 127.428593 -303.135686 
L 128.710369 -303.251942 
L 129.992145 -303.365435 
L 131.273922 -303.475387 
L 132.555698 -303.606877 
L 133.837475 -303.720727 
L 135.119251 -303.860059 
L 136.401028 -303.992679 
L 137.682804 -304.146947 
L 138.96458 -304.306661 
L 140.246357 -304.45879 
L 141.528133 -304.629374 
L 142.80991 -304.828059 
L 144.091686 -305.004242 
L 145.373462 -305.205135 
L 146.655239 -305.43604 
L 147.937015 -305.656577 
L 149.218792 -305.899664 
L 150.500568 -306.1554 
L 151.782345 -306.416083 
L 153.064121 -306.703707 
L 154.345897 -307.013748 
L 155.627674 -307.334156 
L 156.90945 -307.674548 
L 158.191227 -308.023805 
L 159.473003 -308.400578 
L 160.754779 -308.772216 
L 162.036556 -309.176348 
L 163.318332 -309.566611 
L 164.600109 -310.000121 
L 165.881885 -310.461912 
L 167.163662 -310.899527 
L 168.445438 -311.367017 
L 169.727214 -311.861467 
L 171.008991 -312.345417 
L 172.290767 -312.837053 
L 173.572544 -313.351705 
L 174.85432 -313.871251 
L 176.136096 -314.395443 
L 177.417873 -314.941224 
L 178.699649 -315.494011 
L 179.981426 -316.044586 
L 181.263202 -316.61432 
L 182.544979 -317.187422 
L 183.826755 -317.755375 
L 185.108531 -318.354231 
L 186.390308 -318.960996 
L 187.672084 -319.567665 
L 188.953861 -320.172811 
L 190.235637 -320.772654 
L 191.517413 -321.389428 
L 192.79919 -321.995299 
L 194.080966 -322.61204 
L 195.362743 -323.176745 
L 196.644519 -323.825048 
L 197.926296 -324.420772 
L 199.208072 -325.033156 
L 200.489848 -325.610935 
L 201.771625 -326.230641 
L 203.053401 -326.817829 
L 204.335178 -327.413833 
L 205.616954 -328.00752 
L 206.89873 -328.589328 
L 208.180507 -329.169869 
L 209.462283 -329.730497 
L 210.74406 -330.32296 
L 212.025836 -330.926808 
L 213.307613 -331.498463 
L 214.589389 -332.05872 
L 215.871165 -332.662391 
L 217.152942 -333.243126 
L 218.434718 -333.831013 
L 219.716495 -334.406054 
L 220.998271 -334.967683 
L 222.280047 -335.544929 
L 223.561824 -336.128158 
L 224.8436 -336.65259 
L 226.125377 -337.248235 
L 227.407153 -337.818659 
L 228.68893 -338.379839 
L 229.970706 -338.941929 
L 231.252482 -339.502638 
L 232.534259 -340.070784 
L 233.816035 -340.612817 
L 235.097812 -341.176665 
L 236.379588 -341.75495 
L 237.661364 -342.339741 
L 238.943141 -342.930752 
L 240.224917 -343.484036 
L 241.506694 -344.093923 
L 242.78847 -344.742961 
L 244.070247 -345.358732 
L 245.352023 -345.996396 
L 246.633799 -346.648944 
L 247.915576 -347.338162 
L 249.197352 -348.03975 
L 250.479129 -348.692005 
L 251.760905 -349.434642 
L 253.042681 -350.140734 
L 254.324458 -350.90138 
L 255.606234 -351.600134 
L 256.888011 -352.420448 
L 258.169787 -353.225303 
L 259.451564 -354.006993 
L 260.73334 -354.802149 
L 262.015116 -355.621359 
L 263.296893 -356.477826 
L 264.578669 -357.280476 
L 265.860446 -358.200263 
L 267.142222 -359.008566 
L 268.423998 -359.95479 
L 269.705775 -360.870652 
L 270.987551 -361.765533 
L 272.269328 -362.707536 
L 273.551104 -363.663817 
L 274.832881 -364.534353 
L 276.114657 -365.684183 
L 277.396433 -366.673233 
L 278.67821 -367.5949 
L 279.959986 -368.635768 
L 281.241763 -369.739052 
L 282.523539 -370.946949 
L 283.805315 -372.0867 
L 285.087092 -373.04442 
L 286.368868 -374.568118 
L 287.650645 -375.78978 
L 288.932421 -377.038858 
L 290.214198 -378.332215 
L 291.495974 -379.807872 
L 292.77775 -381.226447 
L 294.059527 -382.262197 
L 295.341303 -383.580252 
L 296.62308 -385.806888 
L 297.904856 -387.648838 
L 299.186632 -389.039987 
L 300.468409 -390.844704 
L 301.750185 -392.560715 
L 303.031962 -393.869965 
L 304.313738 -395.983053 
L 305.595515 -398.311796 
L 306.877291 -399.854959 
L 308.159067 -400.945549 
L 309.440844 -402.626942 
L 310.72262 -403.423057 
L 312.004397 -404.203564 
L 313.286173 -406.33971 
L 314.567949 -406.082437 
L 315.849726 -405.110942 
L 317.131502 -403.538459 
L 318.413279 -405.518245 
L 319.695055 -401.936653 
L 320.976832 -400.765741 
L 322.258608 -405.638507 
L 323.540384 -405.163853 
L 324.822161 -402.478922 
L 326.103937 -403.972075 
L 327.385714 -403.592558 
L 328.66749 -393.902783 
L 329.949266 -380.451694 
L 331.231043 -373.191364 
L 332.512819 -388.76027 
L 333.794596 -381.230196 
L 335.076372 -371.133536 
L 336.358149 -371.268034 
L 337.639925 -351.038848 
L 338.921701 -354.175451 
L 340.203478 -359.63011 
L 341.485254 -376.121776 
L 342.767031 -361.458691 
L 344.048807 -352.848063 
L 345.330583 -356.515859 
L 346.61236 -354.081278 
L 347.894136 -345.685335 
L 349.175913 -346.934668 
L 350.457689 -354.598282 
L 351.739466 -345.544299 
L 353.021242 -343.951827 
L 354.303018 -347.446914 
L 355.584795 -341.649999 
L 356.866571 -339.487337 
L 358.148348 -340.375697 
L 359.430124 -342.191895 
L 360.7119 -340.328417 
L 361.993677 -342.336566 
L 363.275453 -342.243696 
L 364.55723 -340.610776 
L 365.839006 -342.400861 
L 367.120783 -341.630752 
L 368.402559 -341.649028 
L 369.684335 -343.106606 
L 370.966112 -342.653104 
L 372.247888 -344.835409 
L 373.529665 -344.711006 
L 374.811441 -344.219118 
L 376.093217 -344.262495 
L 377.374994 -345.305521 
L 378.65677 -346.226529 
L 379.938547 -346.51877 
L 381.220323 -347.451725 
L 382.502099 -347.64908 
L 383.783876 -347.955871 
L 385.065652 -349.296623 
L 386.347429 -348.658225 
L 387.629205 -349.664003 
L 388.910982 -350.082085 
L 390.192758 -350.056732 
L 391.474534 -350.941933 
L 392.756311 -351.077736 
L 394.038087 -350.703481 
L 395.319864 -350.271788 
L 396.60164 -351.671363 
L 397.883416 -351.888855 
L 399.165193 -352.234112 
L 400.446969 -349.688998 
L 401.728746 -349.516318 
L 403.010522 -348.394041 
L 404.292299 -350.526757 
L 405.574075 -351.841059 
L 406.855851 -351.178848 
L 408.137628 -349.36646 
L 409.419404 -348.853228 
L 410.701181 -351.575134 
L 411.982957 -348.795241 
L 413.264733 -349.298614 
L 414.54651 -349.20852 
L 415.828286 -350.253618 
L 417.110063 -348.897384 
L 418.391839 -349.229708 
L 419.673616 -348.163984 
L 420.955392 -348.530075 
L 422.237168 -349.089078 
L 423.518945 -349.80932 
L 424.800721 -349.883024 
L 426.082498 -350.130791 
L 427.364274 -350.379523 
L 428.64605 -349.919969 
L 429.927827 -350.222586 
L 431.209603 -350.440037 
L 432.49138 -351.688342 
L 433.773156 -352.755823 
L 435.054933 -352.911471 
L 436.336709 -353.990093 
L 437.618485 -353.791213 
L 438.900262 -354.629852 
L 440.182038 -355.987603 
L 441.463815 -357.154888 
L 442.745591 -357.82601 
L 444.027367 -359.344272 
L 445.309144 -359.983142 
L 446.59092 -361.338398 
L 447.872697 -362.66048 
L 449.154473 -363.762964 
L 450.43625 -365.002431 
L 451.718026 -366.51703 
L 452.999802 -367.984695 
L 454.281579 -369.409461 
L 455.563355 -371.288325 
L 456.845132 -372.864714 
L 458.126908 -374.224833 
L 459.408684 -375.816974 
L 460.690461 -377.608909 
L 461.972237 -379.270408 
L 463.254014 -380.982546 
L 464.53579 -383.450662 
L 465.817567 -384.820999 
L 467.099343 -386.59221 
L 468.381119 -387.94014 
L 469.662896 -390.334376 
L 470.944672 -392.452703 
L 472.226449 -393.796606 
L 473.508225 -396.049974 
L 474.790001 -398.468507 
L 476.071778 -400.064713 
L 477.353554 -402.516713 
L 478.635331 -404.094817 
L 479.917107 -406.342207 
L 481.198884 -409.317458 
L 482.48066 -411.427333 
L 483.762436 -412.673321 
L 485.044213 -415.33862 
L 486.325989 -417.319145 
L 487.607766 -419.828162 
L 488.889542 -421.317821 
L 490.171318 -424.373723 
L 491.453095 -426.859393 
L 492.734871 -425.651839 
L 494.016648 -431.002753 
L 495.298424 -431.270636 
L 496.580201 -434.00295 
L 497.861977 -434.853639 
L 499.143753 -437.727672 
L 500.42553 -439.43697 
L 501.707306 -441.447231 
L 502.989083 -442.911986 
L 504.270859 -444.407594 
L 505.552635 -446.368083 
L 506.834412 -443.850187 
L 508.116188 -450.681453 
L 509.397965 -451.033376 
L 510.679741 -446.944013 
L 511.961518 -453.42776 
L 513.243294 -451.424342 
L 514.52507 -451.673313 
L 515.806847 -455.580817 
L 517.088623 -454.678186 
L 518.3704 -448.709958 
L 519.652176 -453.193514 
L 520.933952 -453.277143 
L 522.215729 -451.035613 
L 523.497505 -450.681961 
L 524.779282 -448.201287 
L 526.061058 -444.936049 
L 527.342835 -440.757016 
L 528.624611 -427.5459 
L 529.906387 -432.105795 
L 531.188164 -424.985422 
L 532.46994 -420.622878 
L 533.751717 -417.344172 
L 535.033493 -412.487801 
L 536.315269 -407.529496 
L 537.597046 -413.904253 
L 538.878822 -407.991918 
L 540.160599 -398.571401 
L 541.442375 -394.317509 
L 542.724152 -393.096569 
L 544.005928 -381.03909 
L 545.287704 -380.440488 
L 546.569481 -378.265668 
L 547.851257 -378.727842 
L 549.133034 -369.247439 
L 550.41481 -372.181881 
L 551.696586 -374.796026 
L 552.978363 -365.844176 
L 554.260139 -358.674352 
L 555.541916 -359.983858 
L 556.823692 -354.871695 
L 558.105469 -353.67808 
L 559.387245 -353.310245 
L 560.669021 -353.426335 
L 561.950798 -352.024812 
L 563.232574 -350.113021 
L 564.514351 -342.250525 
L 565.796127 -347.663944 
L 567.077903 -340.90538 
L 568.35968 -342.096326 
L 569.641456 -343.467139 
L 570.923233 -340.870739 
L 572.205009 -338.609289 
L 573.486786 -342.576985 
L 574.768562 -339.583843 
L 576.050338 -339.833239 
L 577.332115 -336.570419 
L 578.613891 -337.931191 
L 579.895668 -339.524712 
L 581.177444 -337.767908 
L 582.45922 -337.58672 
L 583.740997 -338.125295 
L 585.022773 -339.191027 
L 586.30455 -338.321199 
L 587.586326 -340.591907 
L 588.868103 -340.012848 
L 590.149879 -336.869724 
L 591.431655 -337.215412 
L 592.713432 -339.540815 
L 593.995208 -339.316327 
L 595.276985 -339.548143 
L 596.558761 -342.569867 
L 597.840537 -341.149073 
L 599.122314 -338.946104 
L 600.40409 -341.847322 
L 601.685867 -342.025493 
L 602.967643 -343.35066 
L 604.24942 -342.347654 
L 605.531196 -342.529508 
L 606.812972 -343.36707 
L 608.094749 -343.573907 
L 609.376525 -343.850907 
L 610.658302 -344.618546 
L 611.940078 -346.558553 
L 613.221854 -347.047804 
L 614.503631 -348.198264 
L 615.785407 -351.347976 
L 617.067184 -348.558722 
L 618.34896 -352.24803 
L 619.630737 -351.040336 
L 620.912513 -351.115245 
L 622.194289 -350.713671 
L 623.476066 -352.544 
L 624.757842 -351.971459 
L 626.039619 -351.932191 
L 627.321395 -355.860407 
L 628.603171 -354.325399 
L 629.884948 -354.745166 
L 631.166724 -353.766352 
L 632.448501 -355.926194 
L 633.730277 -354.878893 
L 635.012054 -355.132939 
L 636.29383 -358.23413 
L 637.575606 -358.542324 
L 638.857383 -359.347197 
L 640.139159 -359.550798 
L 641.420936 -360.483822 
L 642.702712 -360.294861 
L 643.984488 -360.520472 
L 645.266265 -361.031441 
L 646.548041 -361.870917 
L 647.829818 -363.339406 
L 649.111594 -362.064668 
L 650.393371 -361.98123 
L 651.675147 -362.891491 
L 652.956923 -363.506773 
L 654.2387 -366.524579 
L 655.520476 -363.480307 
L 656.802253 -363.872973 
L 658.084029 -363.707834 
L 659.365805 -364.642805 
L 660.647582 -365.725309 
L 661.929358 -366.532087 
L 663.211135 -366.559815 
L 664.492911 -366.84875 
L 665.774688 -366.839953 
L 667.056464 -368.626239 
L 668.33824 -369.966575 
L 669.620017 -368.213542 
L 670.901793 -370.426952 
L 672.18357 -370.389299 
L 673.465346 -369.793321 
L 674.747122 -373.281731 
L 676.028899 -373.819568 
L 677.310675 -372.669345 
L 678.592452 -374.319419 
L 679.874228 -372.580547 
L 681.156005 -374.612794 
L 682.437781 -377.102239 
L 683.719557 -375.31439 
L 685.001334 -375.092832 
L 686.28311 -376.365981 
L 687.564887 -375.555925 
L 688.846663 -376.69254 
L 690.128439 -373.214827 
L 691.410216 -374.617914 
L 692.691992 -374.441024 
L 693.973769 -376.935974 
L 695.255545 -379.186163 
L 696.537322 -376.360052 
L 697.819098 -373.644111 
L 699.100874 -377.238642 
L 700.382651 -377.376605 
L 701.664427 -380.352481 
L 702.946204 -379.386825 
L 704.22798 -378.356775 
L 705.509756 -380.187864 
L 706.791533 -382.734618 
L 708.073309 -378.784302 
L 709.355086 -381.340658 
L 710.636862 -378.296689 
L 711.918639 -377.730805 
L 713.200415 -382.677087 
L 714.482191 -382.217266 
L 715.763968 -384.134933 
L 717.045744 -382.732104 
L 718.327521 -380.393958 
L 719.609297 -374.716729 
L 720.891073 -372.440151 
L 722.17285 -374.785036 
L 723.454626 -368.97226 
L 724.736403 -359.815902 
L 726.018179 -370.607631 
L 727.299956 -374.259565 
L 728.581732 -370.496377 
L 729.863508 -367.201062 
L 731.145285 -366.609277 
L 732.427061 -368.600268 
L 733.708838 -361.804839 
L 734.990614 -357.704133 
L 736.27239 -365.254671 
L 737.554167 -358.331737 
L 738.835943 -361.551182 
L 740.11772 -361.463626 
L 741.399496 -355.09707 
L 742.681273 -356.824504 
L 743.963049 -351.682928 
L 745.244825 -351.117158 
L 746.526602 -358.019534 
L 747.808378 -352.229371 
L 749.090155 -352.420109 
L 750.371931 -347.765607 
L 751.653707 -349.381731 
L 752.935484 -343.805476 
L 754.21726 -347.318992 
L 755.499037 -343.99205 
L 756.780813 -343.488625 
L 758.06259 -341.494283 
L 759.344366 -346.533335 
L 760.626142 -340.341479 
L 761.907919 -338.4097 
L 763.189695 -335.816028 
L 764.471472 -331.473945 
L 765.753248 -332.690425 
L 767.035024 -333.594077 
L 768.316801 -329.753221 
L 769.598577 -323.977163 
L 770.880354 -329.389615 
L 772.16213 -330.814808 
L 773.443907 -327.136454 
L 774.725683 -324.096504 
L 776.007459 -328.991674 
L 777.289236 -329.855178 
L 778.571012 -321.355246 
L 779.852789 -313.423807 
L 781.134565 -326.431921 
L 782.416341 -323.854983 
L 783.698118 -321.440588 
L 784.979894 -320.266307 
L 786.261671 -311.499687 
L 787.543447 -313.843365 
L 788.825224 -319.82494 
L 790.107 -312.571502 
L 791.388776 -309.390005 
L 792.670553 -319.180005 
L 793.952329 -318.733769 
L 795.234106 -319.030894 
L 796.515882 -301.215043 
L 797.797658 -291.430296 
L 799.079435 -291.108091 
L 800.361211 -303.53202 
L 801.642988 -308.650341 
L 802.924764 -305.076836 
L 804.206541 -305.455096 
L 805.488317 -289.434106 
L 806.770093 -305.235105 
L 808.05187 -291.687966 
L 809.333646 -282.672534 
L 810.615423 -290.838619 
L 811.897199 -273.823356 
L 813.178975 -286.110951 
L 814.460752 -279.960402 
L 815.742528 -277.601669 
L 817.024305 -274.27235 
L 818.306081 -266.446384 
L 819.587858 -272.015288 
L 820.869634 -266.280006 
L 822.15141 -264.384001 
L 823.433187 -263.018619 
L 824.714963 -283.273228 
L 825.99674 -252.369094 
L 827.278516 -241.826154 
L 828.560292 -252.925515 
L 829.842069 -247.539745 
L 831.123845 -239.666754 
L 832.405622 -248.796313 
L 833.687398 -238.762723 
L 834.969175 -224.854069 
L 836.250951 -229.682979 
L 837.532727 -224.90717 
L 838.814504 -220.078277 
L 840.09628 -219.045202 
L 841.378057 -219.612464 
L 842.659833 -229.413055 
L 843.941609 -202.762858 
L 845.223386 -203.060082 
L 846.505162 -206.775591 
L 847.786939 -219.3538 
L 849.068715 -198.051703 
L 850.350492 -183.120811 
L 851.632268 -196.913284 
L 852.914044 -195.344828 
L 854.195821 -177.327686 
L 855.477597 -215.139404 
L 856.759374 -182.102337 
L 858.04115 -205.011821 
L 859.322926 -167.372995 
L 860.604703 -185.23143 
L 861.886479 -169.725153 
L 863.168256 -168.108222 
L 864.450032 -161.230559 
L 865.731809 -161.731825 
L 867.013585 -166.743754 
L 868.295361 -166.970598 
L 869.577138 -158.88263 
L 870.858914 -149.811916 
L 872.140691 -150.031777 
L 873.422467 -152.983874 
L 874.704243 -141.67783 
L 875.98602 -143.289386 
L 877.267796 -147.20819 
L 878.549573 -152.035192 
L 879.831349 -134.098408 
L 881.113126 -134.016305 
L 882.394902 -130.444582 
L 883.676678 -138.588284 
L 884.958455 -156.950417 
L 886.240231 -134.316487 
L 887.522008 -142.73526 
L 888.803784 -137.426819 
L 890.08556 -131.729387 
L 891.367337 -141.645676 
L 892.649113 -128.578213 
L 893.93089 -139.629445 
L 895.212666 -140.321603 
L 896.494443 -135.776775 
L 897.776219 -131.216275 
L 899.057995 -134.146673 
L 900.339772 -135.140469 
L 901.621548 -141.398167 
L 902.903325 -139.495936 
L 904.185101 -136.174779 
L 905.466877 -139.105491 
L 906.748654 -132.63463 
L 908.03043 -137.80779 
L 909.312207 -132.158488 
L 910.593983 -127.714841 
L 911.87576 -128.171047 
L 913.157536 -134.478119 
L 914.439312 -135.151989 
L 915.721089 -135.655244 
L 917.002865 -133.7906 
L 918.284642 -134.485556 
L 919.566418 -144.030909 
L 920.848194 -136.569973 
L 922.129971 -184.085233 
L 923.411747 -137.324573 
L 924.693524 -134.507099 
L 925.9753 -141.359391 
L 927.257077 -147.644322 
L 928.538853 -136.650971 
L 929.820629 -142.502394 
L 931.102406 -152.103317 
L 932.384182 -145.409918 
L 933.665959 -145.188919 
L 934.947735 -148.827288 
L 936.229511 -141.965633 
L 937.511288 -147.388998 
L 938.793064 -144.526291 
L 940.074841 -142.702701 
L 940.074841 -287.235283 
L 940.074841 -287.235283 
L 938.793064 -282.346896 
L 937.511288 -284.927941 
L 936.229511 -281.170899 
L 934.947735 -283.980839 
L 933.665959 -281.76226 
L 932.384182 -282.349435 
L 931.102406 -280.704526 
L 929.820629 -277.125765 
L 928.538853 -276.351298 
L 927.257077 -277.146155 
L 925.9753 -276.144193 
L 924.693524 -271.917599 
L 923.411747 -273.304396 
L 922.129971 -280.712681 
L 920.848194 -270.902964 
L 919.566418 -271.935754 
L 918.284642 -269.234452 
L 917.002865 -267.901436 
L 915.721089 -268.033975 
L 914.439312 -266.130718 
L 913.157536 -264.7606 
L 911.87576 -262.310238 
L 910.593983 -261.567851 
L 909.312207 -261.483065 
L 908.03043 -262.656109 
L 906.748654 -260.694185 
L 905.466877 -262.474359 
L 904.185101 -260.874895 
L 902.903325 -260.822599 
L 901.621548 -260.55996 
L 900.339772 -257.99392 
L 899.057995 -256.749779 
L 897.776219 -254.482719 
L 896.494443 -256.372954 
L 895.212666 -256.546919 
L 893.93089 -255.504388 
L 892.649113 -251.395645 
L 891.367337 -255.100934 
L 890.08556 -251.217699 
L 888.803784 -252.794352 
L 887.522008 -254.395378 
L 886.240231 -250.541387 
L 884.958455 -256.95119 
L 883.676678 -251.144169 
L 882.394902 -247.248192 
L 881.113126 -247.886651 
L 879.831349 -247.745427 
L 878.549573 -252.64095 
L 877.267796 -251.075034 
L 875.98602 -249.323386 
L 874.704243 -248.467818 
L 873.422467 -252.323854 
L 872.140691 -251.059093 
L 870.858914 -250.03279 
L 869.577138 -254.845552 
L 868.295361 -256.833824 
L 867.013585 -255.961683 
L 865.731809 -253.466053 
L 864.450032 -252.851763 
L 863.168256 -256.255977 
L 861.886479 -256.730099 
L 860.604703 -262.295266 
L 859.322926 -255.289682 
L 858.04115 -267.418933 
L 856.759374 -259.861424 
L 855.477597 -272.305788 
L 854.195821 -257.979914 
L 852.914044 -265.18802 
L 851.632268 -266.676418 
L 850.350492 -259.002942 
L 849.068715 -265.581185 
L 847.786939 -274.322356 
L 846.505162 -268.488504 
L 845.223386 -267.378127 
L 843.941609 -267.138042 
L 842.659833 -278.189899 
L 841.378057 -270.407389 
L 840.09628 -274.044324 
L 838.814504 -274.396124 
L 837.532727 -276.321591 
L 836.250951 -277.725188 
L 834.969175 -276.047793 
L 833.687398 -281.602859 
L 832.405622 -285.909043 
L 831.123845 -283.429506 
L 829.842069 -284.846744 
L 828.560292 -288.690281 
L 827.278516 -283.512574 
L 825.99674 -288.256863 
L 824.714963 -302.064954 
L 823.433187 -292.595901 
L 822.15141 -292.632957 
L 820.869634 -293.858064 
L 819.587858 -296.326135 
L 818.306081 -293.742964 
L 817.024305 -297.750545 
L 815.742528 -299.507398 
L 814.460752 -300.300595 
L 813.178975 -302.154882 
L 811.897199 -297.147509 
L 810.615423 -305.680372 
L 809.333646 -300.76526 
L 808.05187 -305.79177 
L 806.770093 -314.110052 
L 805.488317 -304.18982 
L 804.206541 -313.805961 
L 802.924764 -313.525436 
L 801.642988 -316.953656 
L 800.361211 -313.225997 
L 799.079435 -304.947327 
L 797.797658 -305.689979 
L 796.515882 -311.597142 
L 795.234106 -323.466075 
L 793.952329 -323.496794 
L 792.670553 -324.482096 
L 791.388776 -316.642405 
L 790.107 -319.385633 
L 788.825224 -324.373162 
L 787.543447 -320.853881 
L 786.261671 -317.63585 
L 784.979894 -324.649591 
L 783.698118 -326.560871 
L 782.416341 -329.36909 
L 781.134565 -333.311001 
L 779.852789 -320.655375 
L 778.571012 -325.743964 
L 777.289236 -338.174474 
L 776.007459 -336.031832 
L 774.725683 -329.2865 
L 773.443907 -333.179113 
L 772.16213 -338.06279 
L 770.880354 -335.381553 
L 769.598577 -330.038714 
L 768.316801 -336.019724 
L 767.035024 -341.148136 
L 765.753248 -338.9969 
L 764.471472 -339.929154 
L 763.189695 -343.730048 
L 761.907919 -347.372004 
L 760.626142 -350.233626 
L 759.344366 -360.216237 
L 758.06259 -352.298275 
L 756.780813 -354.848491 
L 755.499037 -354.577486 
L 754.21726 -358.11923 
L 752.935484 -354.211725 
L 751.653707 -361.986013 
L 750.371931 -358.773404 
L 749.090155 -365.6395 
L 747.808378 -364.725174 
L 746.526602 -372.896729 
L 745.244825 -365.092969 
L 743.963049 -363.102221 
L 742.681273 -368.43821 
L 741.399496 -367.910745 
L 740.11772 -375.401594 
L 738.835943 -374.178431 
L 737.554167 -371.786167 
L 736.27239 -380.123006 
L 734.990614 -371.273117 
L 733.708838 -374.781191 
L 732.427061 -384.024968 
L 731.145285 -380.64055 
L 729.863508 -381.612844 
L 728.581732 -384.324695 
L 727.299956 -388.581122 
L 726.018179 -384.493579 
L 724.736403 -369.58065 
L 723.454626 -380.516612 
L 722.17285 -388.306659 
L 720.891073 -385.57475 
L 719.609297 -388.036368 
L 718.327521 -394.049876 
L 717.045744 -396.873916 
L 715.763968 -399.292696 
L 714.482191 -396.635317 
L 713.200415 -397.032066 
L 711.918639 -391.484125 
L 710.636862 -392.059635 
L 709.355086 -395.698575 
L 708.073309 -392.435314 
L 706.791533 -398.033479 
L 705.509756 -394.348923 
L 704.22798 -392.561496 
L 702.946204 -393.395137 
L 701.664427 -395.177119 
L 700.382651 -391.348759 
L 699.100874 -391.52319 
L 697.819098 -387.820435 
L 696.537322 -390.889581 
L 695.255545 -394.316139 
L 693.973769 -391.824163 
L 692.691992 -389.63795 
L 691.410216 -389.903993 
L 690.128439 -387.682138 
L 688.846663 -392.570029 
L 687.564887 -391.164729 
L 686.28311 -392.456399 
L 685.001334 -391.475897 
L 683.719557 -392.380958 
L 682.437781 -394.50554 
L 681.156005 -391.084492 
L 679.874228 -389.256069 
L 678.592452 -391.686873 
L 677.310675 -389.733923 
L 676.028899 -391.749827 
L 674.747122 -390.664023 
L 673.465346 -386.492794 
L 672.18357 -387.505172 
L 670.901793 -387.391914 
L 669.620017 -384.984812 
L 668.33824 -387.42164 
L 667.056464 -385.816911 
L 665.774688 -383.661116 
L 664.492911 -383.897876 
L 663.211135 -383.352999 
L 661.929358 -383.485154 
L 660.647582 -382.67611 
L 659.365805 -381.260267 
L 658.084029 -380.210553 
L 656.802253 -380.729857 
L 655.520476 -379.972897 
L 654.2387 -384.401799 
L 652.956923 -380.161274 
L 651.675147 -379.58636 
L 650.393371 -378.781501 
L 649.111594 -379.141604 
L 647.829818 -380.323262 
L 646.548041 -378.834533 
L 645.266265 -378.148327 
L 643.984488 -377.576627 
L 642.702712 -377.649298 
L 641.420936 -378.173623 
L 640.139159 -377.648215 
L 638.857383 -377.413105 
L 637.575606 -376.729426 
L 636.29383 -376.487158 
L 635.012054 -373.050145 
L 633.730277 -372.950702 
L 632.448501 -374.501804 
L 631.166724 -372.271762 
L 629.884948 -373.890997 
L 628.603171 -373.553403 
L 627.321395 -376.315341 
L 626.039619 -371.337676 
L 624.757842 -371.649695 
L 623.476066 -372.601714 
L 622.194289 -370.911422 
L 620.912513 -371.758808 
L 619.630737 -371.977467 
L 618.34896 -373.974159 
L 617.067184 -370.306647 
L 615.785407 -373.284948 
L 614.503631 -369.805347 
L 613.221854 -368.418196 
L 611.940078 -368.028954 
L 610.658302 -365.853126 
L 609.376525 -364.62059 
L 608.094749 -365.044511 
L 606.812972 -364.446498 
L 605.531196 -364.020194 
L 604.24942 -363.763682 
L 602.967643 -365.13624 
L 601.685867 -363.232554 
L 600.40409 -362.508166 
L 599.122314 -359.824567 
L 597.840537 -361.888467 
L 596.558761 -362.959531 
L 595.276985 -359.918566 
L 593.995208 -359.464736 
L 592.713432 -358.878229 
L 591.431655 -356.826729 
L 590.149879 -356.532177 
L 588.868103 -358.870654 
L 587.586326 -358.915064 
L 586.30455 -356.709518 
L 585.022773 -356.81672 
L 583.740997 -356.010578 
L 582.45922 -355.452909 
L 581.177444 -355.128225 
L 579.895668 -355.442664 
L 578.613891 -354.253627 
L 577.332115 -352.971121 
L 576.050338 -355.949642 
L 574.768562 -355.002934 
L 573.486786 -356.837518 
L 572.205009 -353.534582 
L 570.923233 -354.328222 
L 569.641456 -356.702637 
L 568.35968 -355.131537 
L 567.077903 -354.295983 
L 565.796127 -359.417252 
L 564.514351 -354.522387 
L 563.232574 -360.623119 
L 561.950798 -361.568511 
L 560.669021 -362.653602 
L 559.387245 -361.874984 
L 558.105469 -362.11371 
L 556.823692 -363.357026 
L 555.541916 -367.583383 
L 554.260139 -366.217019 
L 552.978363 -372.787356 
L 551.696586 -381.320619 
L 550.41481 -378.641121 
L 549.133034 -375.782746 
L 547.851257 -386.193225 
L 546.569481 -385.521824 
L 545.287704 -388.287927 
L 544.005928 -389.044184 
L 542.724152 -403.996686 
L 541.442375 -405.825614 
L 540.160599 -411.01323 
L 538.878822 -422.417025 
L 537.597046 -430.604292 
L 536.315269 -422.776799 
L 535.033493 -428.883633 
L 533.751717 -435.274591 
L 532.46994 -439.262954 
L 531.188164 -444.368219 
L 529.906387 -453.862431 
L 528.624611 -447.795828 
L 527.342835 -464.609477 
L 526.061058 -470.667384 
L 524.779282 -474.032062 
L 523.497505 -476.947704 
L 522.215729 -476.950834 
L 520.933952 -479.075777 
L 519.652176 -478.176384 
L 518.3704 -473.08966 
L 517.088623 -480.035398 
L 515.806847 -480.514841 
L 514.52507 -475.27222 
L 513.243294 -474.559431 
L 511.961518 -476.697783 
L 510.679741 -468.05326 
L 509.397965 -472.880754 
L 508.116188 -471.745021 
L 506.834412 -463.090394 
L 505.552635 -465.73507 
L 504.270859 -462.687023 
L 502.989083 -460.403629 
L 501.707306 -458.016928 
L 500.42553 -455.271948 
L 499.143753 -452.612792 
L 497.861977 -448.696411 
L 496.580201 -447.22724 
L 495.298424 -443.349185 
L 494.016648 -442.535232 
L 492.734871 -435.820485 
L 491.453095 -436.77354 
L 490.171318 -434.164111 
L 488.889542 -431.52356 
L 487.607766 -430.245124 
L 486.325989 -428.08215 
L 485.044213 -426.343337 
L 483.762436 -423.944307 
L 482.48066 -422.835208 
L 481.198884 -421.028982 
L 479.917107 -418.42778 
L 478.635331 -416.428362 
L 477.353554 -415.16858 
L 476.071778 -413.153044 
L 474.790001 -411.717046 
L 473.508225 -409.597764 
L 472.226449 -407.591132 
L 470.944672 -406.495741 
L 469.662896 -404.611346 
L 468.381119 -402.627256 
L 467.099343 -401.616844 
L 465.817567 -400.14647 
L 464.53579 -399.082965 
L 463.254014 -396.853875 
L 461.972237 -395.461847 
L 460.690461 -393.950204 
L 459.408684 -392.467345 
L 458.126908 -391.316582 
L 456.845132 -390.135997 
L 455.563355 -388.890609 
L 454.281579 -387.275862 
L 452.999802 -386.147768 
L 451.718026 -384.82732 
L 450.43625 -383.70828 
L 449.154473 -382.377708 
L 447.872697 -381.283136 
L 446.59092 -380.116537 
L 445.309144 -378.89308 
L 444.027367 -378.161444 
L 442.745591 -376.789631 
L 441.463815 -375.996507 
L 440.182038 -374.930294 
L 438.900262 -373.547666 
L 437.618485 -372.701059 
L 436.336709 -372.855747 
L 435.054933 -371.709848 
L 433.773156 -371.370294 
L 432.49138 -370.176314 
L 431.209603 -368.928019 
L 429.927827 -368.449818 
L 428.64605 -367.929893 
L 427.364274 -368.39796 
L 426.082498 -367.941638 
L 424.800721 -367.712457 
L 423.518945 -367.61078 
L 422.237168 -366.723905 
L 420.955392 -366.091775 
L 419.673616 -365.455665 
L 418.391839 -366.565289 
L 417.110063 -366.273821 
L 415.828286 -367.608716 
L 414.54651 -366.291383 
L 413.264733 -366.527524 
L 411.982957 -365.4395 
L 410.701181 -368.374154 
L 409.419404 -365.495103 
L 408.137628 -365.997603 
L 406.855851 -367.909182 
L 405.574075 -368.556748 
L 404.292299 -367.093896 
L 403.010522 -364.674802 
L 401.728746 -365.874225 
L 400.446969 -366.041799 
L 399.165193 -368.894716 
L 397.883416 -369.054395 
L 396.60164 -368.293665 
L 395.319864 -366.668192 
L 394.038087 -367.196873 
L 392.756311 -367.629 
L 391.474534 -367.469146 
L 390.192758 -366.449772 
L 388.910982 -366.711422 
L 387.629205 -366.04815 
L 386.347429 -364.863126 
L 385.065652 -365.657259 
L 383.783876 -364.153869 
L 382.502099 -363.799051 
L 381.220323 -363.592826 
L 379.938547 -362.598494 
L 378.65677 -362.302026 
L 377.374994 -361.108818 
L 376.093217 -359.851734 
L 374.811441 -359.792166 
L 373.529665 -360.262443 
L 372.247888 -360.66636 
L 370.966112 -357.905517 
L 369.684335 -358.33863 
L 368.402559 -356.573501 
L 367.120783 -356.516676 
L 365.839006 -357.102835 
L 364.55723 -355.323179 
L 363.275453 -356.813069 
L 361.993677 -356.695916 
L 360.7119 -354.48952 
L 359.430124 -356.076313 
L 358.148348 -354.014508 
L 356.866571 -353.042938 
L 355.584795 -354.902678 
L 354.303018 -360.495431 
L 353.021242 -356.783831 
L 351.739466 -358.297445 
L 350.457689 -366.540026 
L 349.175913 -359.106233 
L 347.894136 -357.656653 
L 346.61236 -365.281712 
L 345.330583 -367.51883 
L 344.048807 -363.557963 
L 342.767031 -371.581283 
L 341.485254 -386.34453 
L 340.203478 -369.344544 
L 338.921701 -363.969037 
L 337.639925 -360.626126 
L 336.358149 -380.31379 
L 335.076372 -379.957491 
L 333.794596 -390.027262 
L 332.512819 -397.707595 
L 331.231043 -381.315765 
L 329.949266 -388.544117 
L 328.66749 -402.240586 
L 327.385714 -412.071228 
L 326.103937 -412.174256 
L 324.822161 -410.316281 
L 323.540384 -412.825481 
L 322.258608 -413.074084 
L 320.976832 -407.712379 
L 319.695055 -408.725183 
L 318.413279 -412.187485 
L 317.131502 -409.887572 
L 315.849726 -411.247537 
L 314.567949 -412.012267 
L 313.286173 -411.992433 
L 312.004397 -409.589395 
L 310.72262 -408.547422 
L 309.440844 -407.533325 
L 308.159067 -405.59206 
L 306.877291 -404.621212 
L 305.595515 -403.143403 
L 304.313738 -400.774558 
L 303.031962 -398.7518 
L 301.750185 -397.519492 
L 300.468409 -395.877292 
L 299.186632 -394.07988 
L 297.904856 -392.821029 
L 296.62308 -390.962899 
L 295.341303 -388.673866 
L 294.059527 -387.365886 
L 292.77775 -386.456201 
L 291.495974 -385.042784 
L 290.214198 -383.631112 
L 288.932421 -382.339363 
L 287.650645 -381.101513 
L 286.368868 -379.908515 
L 285.087092 -378.268185 
L 283.805315 -377.423126 
L 282.523539 -376.245499 
L 281.241763 -375.029095 
L 279.959986 -373.901388 
L 278.67821 -372.855305 
L 277.396433 -371.981508 
L 276.114657 -371.030469 
L 274.832881 -369.765649 
L 273.551104 -368.947013 
L 272.269328 -367.965039 
L 270.987551 -367.005594 
L 269.705775 -366.068592 
L 268.423998 -365.110614 
L 267.142222 -364.155457 
L 265.860446 -363.354327 
L 264.578669 -362.403956 
L 263.296893 -361.570574 
L 262.015116 -360.677513 
L 260.73334 -359.847646 
L 259.451564 -358.990187 
L 258.169787 -358.190777 
L 256.888011 -357.337301 
L 255.606234 -356.430506 
L 254.324458 -355.750268 
L 253.042681 -354.896156 
L 251.760905 -354.163347 
L 250.479129 -353.313051 
L 249.197352 -352.69127 
L 247.915576 -351.898517 
L 246.633799 -351.143815 
L 245.352023 -350.426244 
L 244.070247 -349.706542 
L 242.78847 -349.018744 
L 241.506694 -348.230086 
L 240.224917 -347.51816 
L 238.943141 -346.935494 
L 237.661364 -346.241462 
L 236.379588 -345.547934 
L 235.097812 -344.857748 
L 233.816035 -344.1929 
L 232.534259 -343.573417 
L 231.252482 -342.890999 
L 229.970706 -342.222346 
L 228.68893 -341.550055 
L 227.407153 -340.880371 
L 226.125377 -340.192435 
L 224.8436 -339.476884 
L 223.561824 -338.86291 
L 222.280047 -338.158098 
L 220.998271 -337.467037 
L 219.716495 -336.803786 
L 218.434718 -336.119531 
L 217.152942 -335.421057 
L 215.871165 -334.743797 
L 214.589389 -334.033446 
L 213.307613 -333.385822 
L 212.025836 -332.724777 
L 210.74406 -332.025251 
L 209.462283 -331.350589 
L 208.180507 -330.718415 
L 206.89873 -330.059302 
L 205.616954 -329.413208 
L 204.335178 -328.752178 
L 203.053401 -328.088701 
L 201.771625 -327.441553 
L 200.489848 -326.764791 
L 199.208072 -326.144082 
L 197.926296 -325.482739 
L 196.644519 -324.844176 
L 195.362743 -324.144466 
L 194.080966 -323.544654 
L 192.79919 -322.884518 
L 191.517413 -322.239193 
L 190.235637 -321.582105 
L 188.953861 -320.948011 
L 187.672084 -320.307588 
L 186.390308 -319.66435 
L 185.108531 -319.021891 
L 183.826755 -318.389394 
L 182.544979 -317.810688 
L 181.263202 -317.229694 
L 179.981426 -316.648264 
L 178.699649 -316.087328 
L 177.417873 -315.515608 
L 176.136096 -314.951202 
L 174.85432 -314.412366 
L 173.572544 -313.874028 
L 172.290767 -313.338468 
L 171.008991 -312.828307 
L 169.727214 -312.32634 
L 168.445438 -311.801719 
L 167.163662 -311.31705 
L 165.881885 -310.863401 
L 164.600109 -310.374924 
L 163.318332 -309.92075 
L 162.036556 -309.517451 
L 160.754779 -309.094895 
L 159.473003 -308.709005 
L 158.191227 -308.309714 
L 156.90945 -307.946252 
L 155.627674 -307.588458 
L 154.345897 -307.25391 
L 153.064121 -306.930631 
L 151.782345 -306.628368 
L 150.500568 -306.367014 
L 149.218792 -306.102495 
L 147.937015 -305.851693 
L 146.655239 -305.628443 
L 145.373462 -305.385813 
L 144.091686 -305.182132 
L 142.80991 -305.007126 
L 141.528133 -304.801005 
L 140.246357 -304.627578 
L 138.96458 -304.477265 
L 137.682804 -304.312281 
L 136.401028 -304.152183 
L 135.119251 -304.020944 
L 133.837475 -303.877308 
L 132.555698 -303.766295 
L 131.273922 -303.628635 
L 129.992145 -303.518393 
L 128.710369 -303.40127 
L 127.428593 -303.277842 
L 126.146816 -303.178474 
L 124.86504 -303.073842 
L 123.583263 -302.950511 
L 122.301487 -302.837979 
L 121.019711 -302.722381 
L 119.737934 -302.628739 
L 118.456158 -302.508021 
L 117.174381 -302.402159 
L 115.892605 -302.292074 
L 114.610828 -302.20025 
L 113.329052 -302.119975 
L 112.047276 -302.02643 
L 110.765499 -301.919464 
L 109.483723 -301.812978 
L 108.201946 -301.728473 
L 106.92017 -301.652687 
L 105.638394 -301.551423 
L 104.356617 -301.469433 
L 103.074841 -301.369833 
z
" style="stroke: #008000; stroke-opacity: 0.3"/>
    </defs>
    <g clip-path="url(#pfa212a163f)">
     <use xlink:href="#mfa6baf830a" x="0" y="505.354841" style="fill: #008000; fill-opacity: 0.3; stroke: #008000; stroke-opacity: 0.3"/>
    </g>
   </g>
   <g id="matplotlib.axis_1">
    <g id="xtick_1">
     <g id="line2d_1">
      <defs>
       <path id="m6f9c8d40ac" d="M 0 0 
L 0 3.5 
" style="stroke: #000000; stroke-width: 0.8"/>
      </defs>
      <g>
       <use xlink:href="#m6f9c8d40ac" x="103.074841" y="395.28" style="stroke: #000000; stroke-width: 0.8"/>
      </g>
     </g>
     <g id="text_1">
      <!-- 2021-07-01 -->
      <g transform="translate(17.945813 495.213718) rotate(-45) scale(0.2 -0.2)">
       <defs>
        <path id="DejaVuSans-32" d="M 1228 531 
L 3431 531 
L 3431 0 
L 469 0 
L 469 531 
Q 828 903 1448 1529 
Q 2069 2156 2228 2338 
Q 2531 2678 2651 2914 
Q 2772 3150 2772 3378 
Q 2772 3750 2511 3984 
Q 2250 4219 1831 4219 
Q 1534 4219 1204 4116 
Q 875 4013 500 3803 
L 500 4441 
Q 881 4594 1212 4672 
Q 1544 4750 1819 4750 
Q 2544 4750 2975 4387 
Q 3406 4025 3406 3419 
Q 3406 3131 3298 2873 
Q 3191 2616 2906 2266 
Q 2828 2175 2409 1742 
Q 1991 1309 1228 531 
z
" transform="scale(0.015625)"/>
        <path id="DejaVuSans-30" d="M 2034 4250 
Q 1547 4250 1301 3770 
Q 1056 3291 1056 2328 
Q 1056 1369 1301 889 
Q 1547 409 2034 409 
Q 2525 409 2770 889 
Q 3016 1369 3016 2328 
Q 3016 3291 2770 3770 
Q 2525 4250 2034 4250 
z
M 2034 4750 
Q 2819 4750 3233 4129 
Q 3647 3509 3647 2328 
Q 3647 1150 3233 529 
Q 2819 -91 2034 -91 
Q 1250 -91 836 529 
Q 422 1150 422 2328 
Q 422 3509 836 4129 
Q 1250 4750 2034 4750 
z
" transform="scale(0.015625)"/>
        <path id="DejaVuSans-31" d="M 794 531 
L 1825 531 
L 1825 4091 
L 703 3866 
L 703 4441 
L 1819 4666 
L 2450 4666 
L 2450 531 
L 3481 531 
L 3481 0 
L 794 0 
L 794 531 
z
" transform="scale(0.015625)"/>
        <path id="DejaVuSans-2d" d="M 313 2009 
L 1997 2009 
L 1997 1497 
L 313 1497 
L 313 2009 
z
" transform="scale(0.015625)"/>
        <path id="DejaVuSans-37" d="M 525 4666 
L 3525 4666 
L 3525 4397 
L 1831 0 
L 1172 0 
L 2766 4134 
L 525 4134 
L 525 4666 
z
" transform="scale(0.015625)"/>
       </defs>
       <use xlink:href="#DejaVuSans-32"/>
       <use xlink:href="#DejaVuSans-30" x="63.623047"/>
       <use xlink:href="#DejaVuSans-32" x="127.246094"/>
       <use xlink:href="#DejaVuSans-31" x="190.869141"/>
       <use xlink:href="#DejaVuSans-2d" x="254.492188"/>
       <use xlink:href="#DejaVuSans-30" x="290.576172"/>
       <use xlink:href="#DejaVuSans-37" x="354.199219"/>
       <use xlink:href="#DejaVuSans-2d" x="417.822266"/>
       <use xlink:href="#DejaVuSans-30" x="453.90625"/>
       <use xlink:href="#DejaVuSans-31" x="517.529297"/>
      </g>
     </g>
    </g>
    <g id="xtick_2">
     <g id="line2d_2">
      <g>
       <use xlink:href="#m6f9c8d40ac" x="138.96458" y="395.28" style="stroke: #000000; stroke-width: 0.8"/>
      </g>
     </g>
     <g id="text_2">
      <!-- 2021-07-29 -->
      <g transform="translate(53.835553 495.213718) rotate(-45) scale(0.2 -0.2)">
       <defs>
        <path id="DejaVuSans-39" d="M 703 97 
L 703 672 
Q 941 559 1184 500 
Q 1428 441 1663 441 
Q 2288 441 2617 861 
Q 2947 1281 2994 2138 
Q 2813 1869 2534 1725 
Q 2256 1581 1919 1581 
Q 1219 1581 811 2004 
Q 403 2428 403 3163 
Q 403 3881 828 4315 
Q 1253 4750 1959 4750 
Q 2769 4750 3195 4129 
Q 3622 3509 3622 2328 
Q 3622 1225 3098 567 
Q 2575 -91 1691 -91 
Q 1453 -91 1209 -44 
Q 966 3 703 97 
z
M 1959 2075 
Q 2384 2075 2632 2365 
Q 2881 2656 2881 3163 
Q 2881 3666 2632 3958 
Q 2384 4250 1959 4250 
Q 1534 4250 1286 3958 
Q 1038 3666 1038 3163 
Q 1038 2656 1286 2365 
Q 1534 2075 1959 2075 
z
" transform="scale(0.015625)"/>
       </defs>
       <use xlink:href="#DejaVuSans-32"/>
       <use xlink:href="#DejaVuSans-30" x="63.623047"/>
       <use xlink:href="#DejaVuSans-32" x="127.246094"/>
       <use xlink:href="#DejaVuSans-31" x="190.869141"/>
       <use xlink:href="#DejaVuSans-2d" x="254.492188"/>
       <use xlink:href="#DejaVuSans-30" x="290.576172"/>
       <use xlink:href="#DejaVuSans-37" x="354.199219"/>
       <use xlink:href="#DejaVuSans-2d" x="417.822266"/>
       <use xlink:href="#DejaVuSans-32" x="453.90625"/>
       <use xlink:href="#DejaVuSans-39" x="517.529297"/>
      </g>
     </g>
    </g>
    <g id="xtick_3">
     <g id="line2d_3">
      <g>
       <use xlink:href="#m6f9c8d40ac" x="174.85432" y="395.28" style="stroke: #000000; stroke-width: 0.8"/>
      </g>
     </g>
     <g id="text_3">
      <!-- 2021-08-26 -->
      <g transform="translate(89.725293 495.213718) rotate(-45) scale(0.2 -0.2)">
       <defs>
        <path id="DejaVuSans-38" d="M 2034 2216 
Q 1584 2216 1326 1975 
Q 1069 1734 1069 1313 
Q 1069 891 1326 650 
Q 1584 409 2034 409 
Q 2484 409 2743 651 
Q 3003 894 3003 1313 
Q 3003 1734 2745 1975 
Q 2488 2216 2034 2216 
z
M 1403 2484 
Q 997 2584 770 2862 
Q 544 3141 544 3541 
Q 544 4100 942 4425 
Q 1341 4750 2034 4750 
Q 2731 4750 3128 4425 
Q 3525 4100 3525 3541 
Q 3525 3141 3298 2862 
Q 3072 2584 2669 2484 
Q 3125 2378 3379 2068 
Q 3634 1759 3634 1313 
Q 3634 634 3220 271 
Q 2806 -91 2034 -91 
Q 1263 -91 848 271 
Q 434 634 434 1313 
Q 434 1759 690 2068 
Q 947 2378 1403 2484 
z
M 1172 3481 
Q 1172 3119 1398 2916 
Q 1625 2713 2034 2713 
Q 2441 2713 2670 2916 
Q 2900 3119 2900 3481 
Q 2900 3844 2670 4047 
Q 2441 4250 2034 4250 
Q 1625 4250 1398 4047 
Q 1172 3844 1172 3481 
z
" transform="scale(0.015625)"/>
        <path id="DejaVuSans-36" d="M 2113 2584 
Q 1688 2584 1439 2293 
Q 1191 2003 1191 1497 
Q 1191 994 1439 701 
Q 1688 409 2113 409 
Q 2538 409 2786 701 
Q 3034 994 3034 1497 
Q 3034 2003 2786 2293 
Q 2538 2584 2113 2584 
z
M 3366 4563 
L 3366 3988 
Q 3128 4100 2886 4159 
Q 2644 4219 2406 4219 
Q 1781 4219 1451 3797 
Q 1122 3375 1075 2522 
Q 1259 2794 1537 2939 
Q 1816 3084 2150 3084 
Q 2853 3084 3261 2657 
Q 3669 2231 3669 1497 
Q 3669 778 3244 343 
Q 2819 -91 2113 -91 
Q 1303 -91 875 529 
Q 447 1150 447 2328 
Q 447 3434 972 4092 
Q 1497 4750 2381 4750 
Q 2619 4750 2861 4703 
Q 3103 4656 3366 4563 
z
" transform="scale(0.015625)"/>
       </defs>
       <use xlink:href="#DejaVuSans-32"/>
       <use xlink:href="#DejaVuSans-30" x="63.623047"/>
       <use xlink:href="#DejaVuSans-32" x="127.246094"/>
       <use xlink:href="#DejaVuSans-31" x="190.869141"/>
       <use xlink:href="#DejaVuSans-2d" x="254.492188"/>
       <use xlink:href="#DejaVuSans-30" x="290.576172"/>
       <use xlink:href="#DejaVuSans-38" x="354.199219"/>
       <use xlink:href="#DejaVuSans-2d" x="417.822266"/>
       <use xlink:href="#DejaVuSans-32" x="453.90625"/>
       <use xlink:href="#DejaVuSans-36" x="517.529297"/>
      </g>
     </g>
    </g>
    <g id="xtick_4">
     <g id="line2d_4">
      <g>
       <use xlink:href="#m6f9c8d40ac" x="210.74406" y="395.28" style="stroke: #000000; stroke-width: 0.8"/>
      </g>
     </g>
     <g id="text_4">
      <!-- 2021-09-23 -->
      <g transform="translate(125.615032 495.213718) rotate(-45) scale(0.2 -0.2)">
       <defs>
        <path id="DejaVuSans-33" d="M 2597 2516 
Q 3050 2419 3304 2112 
Q 3559 1806 3559 1356 
Q 3559 666 3084 287 
Q 2609 -91 1734 -91 
Q 1441 -91 1130 -33 
Q 819 25 488 141 
L 488 750 
Q 750 597 1062 519 
Q 1375 441 1716 441 
Q 2309 441 2620 675 
Q 2931 909 2931 1356 
Q 2931 1769 2642 2001 
Q 2353 2234 1838 2234 
L 1294 2234 
L 1294 2753 
L 1863 2753 
Q 2328 2753 2575 2939 
Q 2822 3125 2822 3475 
Q 2822 3834 2567 4026 
Q 2313 4219 1838 4219 
Q 1578 4219 1281 4162 
Q 984 4106 628 3988 
L 628 4550 
Q 988 4650 1302 4700 
Q 1616 4750 1894 4750 
Q 2613 4750 3031 4423 
Q 3450 4097 3450 3541 
Q 3450 3153 3228 2886 
Q 3006 2619 2597 2516 
z
" transform="scale(0.015625)"/>
       </defs>
       <use xlink:href="#DejaVuSans-32"/>
       <use xlink:href="#DejaVuSans-30" x="63.623047"/>
       <use xlink:href="#DejaVuSans-32" x="127.246094"/>
       <use xlink:href="#DejaVuSans-31" x="190.869141"/>
       <use xlink:href="#DejaVuSans-2d" x="254.492188"/>
       <use xlink:href="#DejaVuSans-30" x="290.576172"/>
       <use xlink:href="#DejaVuSans-39" x="354.199219"/>
       <use xlink:href="#DejaVuSans-2d" x="417.822266"/>
       <use xlink:href="#DejaVuSans-32" x="453.90625"/>
       <use xlink:href="#DejaVuSans-33" x="517.529297"/>
      </g>
     </g>
    </g>
    <g id="xtick_5">
     <g id="line2d_5">
      <g>
       <use xlink:href="#m6f9c8d40ac" x="246.633799" y="395.28" style="stroke: #000000; stroke-width: 0.8"/>
      </g>
     </g>
     <g id="text_5">
      <!-- 2021-10-21 -->
      <g transform="translate(161.504772 495.213718) rotate(-45) scale(0.2 -0.2)">
       <use xlink:href="#DejaVuSans-32"/>
       <use xlink:href="#DejaVuSans-30" x="63.623047"/>
       <use xlink:href="#DejaVuSans-32" x="127.246094"/>
       <use xlink:href="#DejaVuSans-31" x="190.869141"/>
       <use xlink:href="#DejaVuSans-2d" x="254.492188"/>
       <use xlink:href="#DejaVuSans-31" x="290.576172"/>
       <use xlink:href="#DejaVuSans-30" x="354.199219"/>
       <use xlink:href="#DejaVuSans-2d" x="417.822266"/>
       <use xlink:href="#DejaVuSans-32" x="453.90625"/>
       <use xlink:href="#DejaVuSans-31" x="517.529297"/>
      </g>
     </g>
    </g>
    <g id="xtick_6">
     <g id="line2d_6">
      <g>
       <use xlink:href="#m6f9c8d40ac" x="282.523539" y="395.28" style="stroke: #000000; stroke-width: 0.8"/>
      </g>
     </g>
     <g id="text_6">
      <!-- 2021-11-18 -->
      <g transform="translate(197.394512 495.213718) rotate(-45) scale(0.2 -0.2)">
       <use xlink:href="#DejaVuSans-32"/>
       <use xlink:href="#DejaVuSans-30" x="63.623047"/>
       <use xlink:href="#DejaVuSans-32" x="127.246094"/>
       <use xlink:href="#DejaVuSans-31" x="190.869141"/>
       <use xlink:href="#DejaVuSans-2d" x="254.492188"/>
       <use xlink:href="#DejaVuSans-31" x="290.576172"/>
       <use xlink:href="#DejaVuSans-31" x="354.199219"/>
       <use xlink:href="#DejaVuSans-2d" x="417.822266"/>
       <use xlink:href="#DejaVuSans-31" x="453.90625"/>
       <use xlink:href="#DejaVuSans-38" x="517.529297"/>
      </g>
     </g>
    </g>
    <g id="xtick_7">
     <g id="line2d_7">
      <g>
       <use xlink:href="#m6f9c8d40ac" x="318.413279" y="395.28" style="stroke: #000000; stroke-width: 0.8"/>
      </g>
     </g>
     <g id="text_7">
      <!-- 2021-12-16 -->
      <g transform="translate(233.284251 495.213718) rotate(-45) scale(0.2 -0.2)">
       <use xlink:href="#DejaVuSans-32"/>
       <use xlink:href="#DejaVuSans-30" x="63.623047"/>
       <use xlink:href="#DejaVuSans-32" x="127.246094"/>
       <use xlink:href="#DejaVuSans-31" x="190.869141"/>
       <use xlink:href="#DejaVuSans-2d" x="254.492188"/>
       <use xlink:href="#DejaVuSans-31" x="290.576172"/>
       <use xlink:href="#DejaVuSans-32" x="354.199219"/>
       <use xlink:href="#DejaVuSans-2d" x="417.822266"/>
       <use xlink:href="#DejaVuSans-31" x="453.90625"/>
       <use xlink:href="#DejaVuSans-36" x="517.529297"/>
      </g>
     </g>
    </g>
    <g id="xtick_8">
     <g id="line2d_8">
      <g>
       <use xlink:href="#m6f9c8d40ac" x="354.303018" y="395.28" style="stroke: #000000; stroke-width: 0.8"/>
      </g>
     </g>
     <g id="text_8">
      <!-- 2022-01-13 -->
      <g transform="translate(269.173991 495.213718) rotate(-45) scale(0.2 -0.2)">
       <use xlink:href="#DejaVuSans-32"/>
       <use xlink:href="#DejaVuSans-30" x="63.623047"/>
       <use xlink:href="#DejaVuSans-32" x="127.246094"/>
       <use xlink:href="#DejaVuSans-32" x="190.869141"/>
       <use xlink:href="#DejaVuSans-2d" x="254.492188"/>
       <use xlink:href="#DejaVuSans-30" x="290.576172"/>
       <use xlink:href="#DejaVuSans-31" x="354.199219"/>
       <use xlink:href="#DejaVuSans-2d" x="417.822266"/>
       <use xlink:href="#DejaVuSans-31" x="453.90625"/>
       <use xlink:href="#DejaVuSans-33" x="517.529297"/>
      </g>
     </g>
    </g>
    <g id="xtick_9">
     <g id="line2d_9">
      <g>
       <use xlink:href="#m6f9c8d40ac" x="390.192758" y="395.28" style="stroke: #000000; stroke-width: 0.8"/>
      </g>
     </g>
     <g id="text_9">
      <!-- 2022-02-10 -->
      <g transform="translate(305.063731 495.213718) rotate(-45) scale(0.2 -0.2)">
       <use xlink:href="#DejaVuSans-32"/>
       <use xlink:href="#DejaVuSans-30" x="63.623047"/>
       <use xlink:href="#DejaVuSans-32" x="127.246094"/>
       <use xlink:href="#DejaVuSans-32" x="190.869141"/>
       <use xlink:href="#DejaVuSans-2d" x="254.492188"/>
       <use xlink:href="#DejaVuSans-30" x="290.576172"/>
       <use xlink:href="#DejaVuSans-32" x="354.199219"/>
       <use xlink:href="#DejaVuSans-2d" x="417.822266"/>
       <use xlink:href="#DejaVuSans-31" x="453.90625"/>
       <use xlink:href="#DejaVuSans-30" x="517.529297"/>
      </g>
     </g>
    </g>
    <g id="xtick_10">
     <g id="line2d_10">
      <g>
       <use xlink:href="#m6f9c8d40ac" x="426.082498" y="395.28" style="stroke: #000000; stroke-width: 0.8"/>
      </g>
     </g>
     <g id="text_10">
      <!-- 2022-03-10 -->
      <g transform="translate(340.95347 495.213718) rotate(-45) scale(0.2 -0.2)">
       <use xlink:href="#DejaVuSans-32"/>
       <use xlink:href="#DejaVuSans-30" x="63.623047"/>
       <use xlink:href="#DejaVuSans-32" x="127.246094"/>
       <use xlink:href="#DejaVuSans-32" x="190.869141"/>
       <use xlink:href="#DejaVuSans-2d" x="254.492188"/>
       <use xlink:href="#DejaVuSans-30" x="290.576172"/>
       <use xlink:href="#DejaVuSans-33" x="354.199219"/>
       <use xlink:href="#DejaVuSans-2d" x="417.822266"/>
       <use xlink:href="#DejaVuSans-31" x="453.90625"/>
       <use xlink:href="#DejaVuSans-30" x="517.529297"/>
      </g>
     </g>
    </g>
    <g id="xtick_11">
     <g id="line2d_11">
      <g>
       <use xlink:href="#m6f9c8d40ac" x="461.972237" y="395.28" style="stroke: #000000; stroke-width: 0.8"/>
      </g>
     </g>
     <g id="text_11">
      <!-- 2022-04-07 -->
      <g transform="translate(376.84321 495.213718) rotate(-45) scale(0.2 -0.2)">
       <defs>
        <path id="DejaVuSans-34" d="M 2419 4116 
L 825 1625 
L 2419 1625 
L 2419 4116 
z
M 2253 4666 
L 3047 4666 
L 3047 1625 
L 3713 1625 
L 3713 1100 
L 3047 1100 
L 3047 0 
L 2419 0 
L 2419 1100 
L 313 1100 
L 313 1709 
L 2253 4666 
z
" transform="scale(0.015625)"/>
       </defs>
       <use xlink:href="#DejaVuSans-32"/>
       <use xlink:href="#DejaVuSans-30" x="63.623047"/>
       <use xlink:href="#DejaVuSans-32" x="127.246094"/>
       <use xlink:href="#DejaVuSans-32" x="190.869141"/>
       <use xlink:href="#DejaVuSans-2d" x="254.492188"/>
       <use xlink:href="#DejaVuSans-30" x="290.576172"/>
       <use xlink:href="#DejaVuSans-34" x="354.199219"/>
       <use xlink:href="#DejaVuSans-2d" x="417.822266"/>
       <use xlink:href="#DejaVuSans-30" x="453.90625"/>
       <use xlink:href="#DejaVuSans-37" x="517.529297"/>
      </g>
     </g>
    </g>
    <g id="xtick_12">
     <g id="line2d_12">
      <g>
       <use xlink:href="#m6f9c8d40ac" x="497.861977" y="395.28" style="stroke: #000000; stroke-width: 0.8"/>
      </g>
     </g>
     <g id="text_12">
      <!-- 2022-05-05 -->
      <g transform="translate(412.73295 495.213718) rotate(-45) scale(0.2 -0.2)">
       <defs>
        <path id="DejaVuSans-35" d="M 691 4666 
L 3169 4666 
L 3169 4134 
L 1269 4134 
L 1269 2991 
Q 1406 3038 1543 3061 
Q 1681 3084 1819 3084 
Q 2600 3084 3056 2656 
Q 3513 2228 3513 1497 
Q 3513 744 3044 326 
Q 2575 -91 1722 -91 
Q 1428 -91 1123 -41 
Q 819 9 494 109 
L 494 744 
Q 775 591 1075 516 
Q 1375 441 1709 441 
Q 2250 441 2565 725 
Q 2881 1009 2881 1497 
Q 2881 1984 2565 2268 
Q 2250 2553 1709 2553 
Q 1456 2553 1204 2497 
Q 953 2441 691 2322 
L 691 4666 
z
" transform="scale(0.015625)"/>
       </defs>
       <use xlink:href="#DejaVuSans-32"/>
       <use xlink:href="#DejaVuSans-30" x="63.623047"/>
       <use xlink:href="#DejaVuSans-32" x="127.246094"/>
       <use xlink:href="#DejaVuSans-32" x="190.869141"/>
       <use xlink:href="#DejaVuSans-2d" x="254.492188"/>
       <use xlink:href="#DejaVuSans-30" x="290.576172"/>
       <use xlink:href="#DejaVuSans-35" x="354.199219"/>
       <use xlink:href="#DejaVuSans-2d" x="417.822266"/>
       <use xlink:href="#DejaVuSans-30" x="453.90625"/>
       <use xlink:href="#DejaVuSans-35" x="517.529297"/>
      </g>
     </g>
    </g>
    <g id="xtick_13">
     <g id="line2d_13">
      <g>
       <use xlink:href="#m6f9c8d40ac" x="533.751717" y="395.28" style="stroke: #000000; stroke-width: 0.8"/>
      </g>
     </g>
     <g id="text_13">
      <!-- 2022-06-02 -->
      <g transform="translate(448.622689 495.213718) rotate(-45) scale(0.2 -0.2)">
       <use xlink:href="#DejaVuSans-32"/>
       <use xlink:href="#DejaVuSans-30" x="63.623047"/>
       <use xlink:href="#DejaVuSans-32" x="127.246094"/>
       <use xlink:href="#DejaVuSans-32" x="190.869141"/>
       <use xlink:href="#DejaVuSans-2d" x="254.492188"/>
       <use xlink:href="#DejaVuSans-30" x="290.576172"/>
       <use xlink:href="#DejaVuSans-36" x="354.199219"/>
       <use xlink:href="#DejaVuSans-2d" x="417.822266"/>
       <use xlink:href="#DejaVuSans-30" x="453.90625"/>
       <use xlink:href="#DejaVuSans-32" x="517.529297"/>
      </g>
     </g>
    </g>
    <g id="xtick_14">
     <g id="line2d_14">
      <g>
       <use xlink:href="#m6f9c8d40ac" x="569.641456" y="395.28" style="stroke: #000000; stroke-width: 0.8"/>
      </g>
     </g>
     <g id="text_14">
      <!-- 2022-06-30 -->
      <g transform="translate(484.512429 495.213718) rotate(-45) scale(0.2 -0.2)">
       <use xlink:href="#DejaVuSans-32"/>
       <use xlink:href="#DejaVuSans-30" x="63.623047"/>
       <use xlink:href="#DejaVuSans-32" x="127.246094"/>
       <use xlink:href="#DejaVuSans-32" x="190.869141"/>
       <use xlink:href="#DejaVuSans-2d" x="254.492188"/>
       <use xlink:href="#DejaVuSans-30" x="290.576172"/>
       <use xlink:href="#DejaVuSans-36" x="354.199219"/>
       <use xlink:href="#DejaVuSans-2d" x="417.822266"/>
       <use xlink:href="#DejaVuSans-33" x="453.90625"/>
       <use xlink:href="#DejaVuSans-30" x="517.529297"/>
      </g>
     </g>
    </g>
    <g id="xtick_15">
     <g id="line2d_15">
      <g>
       <use xlink:href="#m6f9c8d40ac" x="605.531196" y="395.28" style="stroke: #000000; stroke-width: 0.8"/>
      </g>
     </g>
     <g id="text_15">
      <!-- 2022-07-28 -->
      <g transform="translate(520.402169 495.213718) rotate(-45) scale(0.2 -0.2)">
       <use xlink:href="#DejaVuSans-32"/>
       <use xlink:href="#DejaVuSans-30" x="63.623047"/>
       <use xlink:href="#DejaVuSans-32" x="127.246094"/>
       <use xlink:href="#DejaVuSans-32" x="190.869141"/>
       <use xlink:href="#DejaVuSans-2d" x="254.492188"/>
       <use xlink:href="#DejaVuSans-30" x="290.576172"/>
       <use xlink:href="#DejaVuSans-37" x="354.199219"/>
       <use xlink:href="#DejaVuSans-2d" x="417.822266"/>
       <use xlink:href="#DejaVuSans-32" x="453.90625"/>
       <use xlink:href="#DejaVuSans-38" x="517.529297"/>
      </g>
     </g>
    </g>
    <g id="xtick_16">
     <g id="line2d_16">
      <g>
       <use xlink:href="#m6f9c8d40ac" x="641.420936" y="395.28" style="stroke: #000000; stroke-width: 0.8"/>
      </g>
     </g>
     <g id="text_16">
      <!-- 2022-08-25 -->
      <g transform="translate(556.291908 495.213718) rotate(-45) scale(0.2 -0.2)">
       <use xlink:href="#DejaVuSans-32"/>
       <use xlink:href="#DejaVuSans-30" x="63.623047"/>
       <use xlink:href="#DejaVuSans-32" x="127.246094"/>
       <use xlink:href="#DejaVuSans-32" x="190.869141"/>
       <use xlink:href="#DejaVuSans-2d" x="254.492188"/>
       <use xlink:href="#DejaVuSans-30" x="290.576172"/>
       <use xlink:href="#DejaVuSans-38" x="354.199219"/>
       <use xlink:href="#DejaVuSans-2d" x="417.822266"/>
       <use xlink:href="#DejaVuSans-32" x="453.90625"/>
       <use xlink:href="#DejaVuSans-35" x="517.529297"/>
      </g>
     </g>
    </g>
    <g id="xtick_17">
     <g id="line2d_17">
      <g>
       <use xlink:href="#m6f9c8d40ac" x="677.310675" y="395.28" style="stroke: #000000; stroke-width: 0.8"/>
      </g>
     </g>
     <g id="text_17">
      <!-- 2022-09-22 -->
      <g transform="translate(592.181648 495.213718) rotate(-45) scale(0.2 -0.2)">
       <use xlink:href="#DejaVuSans-32"/>
       <use xlink:href="#DejaVuSans-30" x="63.623047"/>
       <use xlink:href="#DejaVuSans-32" x="127.246094"/>
       <use xlink:href="#DejaVuSans-32" x="190.869141"/>
       <use xlink:href="#DejaVuSans-2d" x="254.492188"/>
       <use xlink:href="#DejaVuSans-30" x="290.576172"/>
       <use xlink:href="#DejaVuSans-39" x="354.199219"/>
       <use xlink:href="#DejaVuSans-2d" x="417.822266"/>
       <use xlink:href="#DejaVuSans-32" x="453.90625"/>
       <use xlink:href="#DejaVuSans-32" x="517.529297"/>
      </g>
     </g>
    </g>
    <g id="xtick_18">
     <g id="line2d_18">
      <g>
       <use xlink:href="#m6f9c8d40ac" x="713.200415" y="395.28" style="stroke: #000000; stroke-width: 0.8"/>
      </g>
     </g>
     <g id="text_18">
      <!-- 2022-10-20 -->
      <g transform="translate(628.071388 495.213718) rotate(-45) scale(0.2 -0.2)">
       <use xlink:href="#DejaVuSans-32"/>
       <use xlink:href="#DejaVuSans-30" x="63.623047"/>
       <use xlink:href="#DejaVuSans-32" x="127.246094"/>
       <use xlink:href="#DejaVuSans-32" x="190.869141"/>
       <use xlink:href="#DejaVuSans-2d" x="254.492188"/>
       <use xlink:href="#DejaVuSans-31" x="290.576172"/>
       <use xlink:href="#DejaVuSans-30" x="354.199219"/>
       <use xlink:href="#DejaVuSans-2d" x="417.822266"/>
       <use xlink:href="#DejaVuSans-32" x="453.90625"/>
       <use xlink:href="#DejaVuSans-30" x="517.529297"/>
      </g>
     </g>
    </g>
    <g id="xtick_19">
     <g id="line2d_19">
      <g>
       <use xlink:href="#m6f9c8d40ac" x="749.090155" y="395.28" style="stroke: #000000; stroke-width: 0.8"/>
      </g>
     </g>
     <g id="text_19">
      <!-- 2022-11-17 -->
      <g transform="translate(663.961127 495.213718) rotate(-45) scale(0.2 -0.2)">
       <use xlink:href="#DejaVuSans-32"/>
       <use xlink:href="#DejaVuSans-30" x="63.623047"/>
       <use xlink:href="#DejaVuSans-32" x="127.246094"/>
       <use xlink:href="#DejaVuSans-32" x="190.869141"/>
       <use xlink:href="#DejaVuSans-2d" x="254.492188"/>
       <use xlink:href="#DejaVuSans-31" x="290.576172"/>
       <use xlink:href="#DejaVuSans-31" x="354.199219"/>
       <use xlink:href="#DejaVuSans-2d" x="417.822266"/>
       <use xlink:href="#DejaVuSans-31" x="453.90625"/>
       <use xlink:href="#DejaVuSans-37" x="517.529297"/>
      </g>
     </g>
    </g>
    <g id="xtick_20">
     <g id="line2d_20">
      <g>
       <use xlink:href="#m6f9c8d40ac" x="784.979894" y="395.28" style="stroke: #000000; stroke-width: 0.8"/>
      </g>
     </g>
     <g id="text_20">
      <!-- 2022-12-15 -->
      <g transform="translate(699.850867 495.213718) rotate(-45) scale(0.2 -0.2)">
       <use xlink:href="#DejaVuSans-32"/>
       <use xlink:href="#DejaVuSans-30" x="63.623047"/>
       <use xlink:href="#DejaVuSans-32" x="127.246094"/>
       <use xlink:href="#DejaVuSans-32" x="190.869141"/>
       <use xlink:href="#DejaVuSans-2d" x="254.492188"/>
       <use xlink:href="#DejaVuSans-31" x="290.576172"/>
       <use xlink:href="#DejaVuSans-32" x="354.199219"/>
       <use xlink:href="#DejaVuSans-2d" x="417.822266"/>
       <use xlink:href="#DejaVuSans-31" x="453.90625"/>
       <use xlink:href="#DejaVuSans-35" x="517.529297"/>
      </g>
     </g>
    </g>
    <g id="xtick_21">
     <g id="line2d_21">
      <g>
       <use xlink:href="#m6f9c8d40ac" x="820.869634" y="395.28" style="stroke: #000000; stroke-width: 0.8"/>
      </g>
     </g>
     <g id="text_21">
      <!-- 2023-01-12 -->
      <g transform="translate(735.740607 495.213718) rotate(-45) scale(0.2 -0.2)">
       <use xlink:href="#DejaVuSans-32"/>
       <use xlink:href="#DejaVuSans-30" x="63.623047"/>
       <use xlink:href="#DejaVuSans-32" x="127.246094"/>
       <use xlink:href="#DejaVuSans-33" x="190.869141"/>
       <use xlink:href="#DejaVuSans-2d" x="254.492188"/>
       <use xlink:href="#DejaVuSans-30" x="290.576172"/>
       <use xlink:href="#DejaVuSans-31" x="354.199219"/>
       <use xlink:href="#DejaVuSans-2d" x="417.822266"/>
       <use xlink:href="#DejaVuSans-31" x="453.90625"/>
       <use xlink:href="#DejaVuSans-32" x="517.529297"/>
      </g>
     </g>
    </g>
    <g id="xtick_22">
     <g id="line2d_22">
      <g>
       <use xlink:href="#m6f9c8d40ac" x="856.759374" y="395.28" style="stroke: #000000; stroke-width: 0.8"/>
      </g>
     </g>
     <g id="text_22">
      <!-- 2023-02-09 -->
      <g transform="translate(771.630346 495.213718) rotate(-45) scale(0.2 -0.2)">
       <use xlink:href="#DejaVuSans-32"/>
       <use xlink:href="#DejaVuSans-30" x="63.623047"/>
       <use xlink:href="#DejaVuSans-32" x="127.246094"/>
       <use xlink:href="#DejaVuSans-33" x="190.869141"/>
       <use xlink:href="#DejaVuSans-2d" x="254.492188"/>
       <use xlink:href="#DejaVuSans-30" x="290.576172"/>
       <use xlink:href="#DejaVuSans-32" x="354.199219"/>
       <use xlink:href="#DejaVuSans-2d" x="417.822266"/>
       <use xlink:href="#DejaVuSans-30" x="453.90625"/>
       <use xlink:href="#DejaVuSans-39" x="517.529297"/>
      </g>
     </g>
    </g>
    <g id="xtick_23">
     <g id="line2d_23">
      <g>
       <use xlink:href="#m6f9c8d40ac" x="892.649113" y="395.28" style="stroke: #000000; stroke-width: 0.8"/>
      </g>
     </g>
     <g id="text_23">
      <!-- 2023-03-09 -->
      <g transform="translate(807.520086 495.213718) rotate(-45) scale(0.2 -0.2)">
       <use xlink:href="#DejaVuSans-32"/>
       <use xlink:href="#DejaVuSans-30" x="63.623047"/>
       <use xlink:href="#DejaVuSans-32" x="127.246094"/>
       <use xlink:href="#DejaVuSans-33" x="190.869141"/>
       <use xlink:href="#DejaVuSans-2d" x="254.492188"/>
       <use xlink:href="#DejaVuSans-30" x="290.576172"/>
       <use xlink:href="#DejaVuSans-33" x="354.199219"/>
       <use xlink:href="#DejaVuSans-2d" x="417.822266"/>
       <use xlink:href="#DejaVuSans-30" x="453.90625"/>
       <use xlink:href="#DejaVuSans-39" x="517.529297"/>
      </g>
     </g>
    </g>
    <g id="xtick_24">
     <g id="line2d_24">
      <g>
       <use xlink:href="#m6f9c8d40ac" x="928.538853" y="395.28" style="stroke: #000000; stroke-width: 0.8"/>
      </g>
     </g>
     <g id="text_24">
      <!-- 2023-04-06 -->
      <g transform="translate(843.409826 495.213718) rotate(-45) scale(0.2 -0.2)">
       <use xlink:href="#DejaVuSans-32"/>
       <use xlink:href="#DejaVuSans-30" x="63.623047"/>
       <use xlink:href="#DejaVuSans-32" x="127.246094"/>
       <use xlink:href="#DejaVuSans-33" x="190.869141"/>
       <use xlink:href="#DejaVuSans-2d" x="254.492188"/>
       <use xlink:href="#DejaVuSans-30" x="290.576172"/>
       <use xlink:href="#DejaVuSans-34" x="354.199219"/>
       <use xlink:href="#DejaVuSans-2d" x="417.822266"/>
       <use xlink:href="#DejaVuSans-30" x="453.90625"/>
       <use xlink:href="#DejaVuSans-36" x="517.529297"/>
      </g>
     </g>
    </g>
    <g id="xtick_25">
     <g id="line2d_25">
      <g>
       <use xlink:href="#m6f9c8d40ac" x="940.074841" y="395.28" style="stroke: #000000; stroke-width: 0.8"/>
      </g>
     </g>
     <g id="text_25">
      <!-- 2023-04-15 -->
      <g transform="translate(854.945813 495.213718) rotate(-45) scale(0.2 -0.2)">
       <use xlink:href="#DejaVuSans-32"/>
       <use xlink:href="#DejaVuSans-30" x="63.623047"/>
       <use xlink:href="#DejaVuSans-32" x="127.246094"/>
       <use xlink:href="#DejaVuSans-33" x="190.869141"/>
       <use xlink:href="#DejaVuSans-2d" x="254.492188"/>
       <use xlink:href="#DejaVuSans-30" x="290.576172"/>
       <use xlink:href="#DejaVuSans-34" x="354.199219"/>
       <use xlink:href="#DejaVuSans-2d" x="417.822266"/>
       <use xlink:href="#DejaVuSans-31" x="453.90625"/>
       <use xlink:href="#DejaVuSans-35" x="517.529297"/>
      </g>
     </g>
    </g>
   </g>
   <g id="matplotlib.axis_2">
    <g id="ytick_1">
     <g id="line2d_26">
      <defs>
       <path id="m9ddf26e303" d="M 0 0 
L -3.5 0 
" style="stroke: #000000; stroke-width: 0.8"/>
      </defs>
      <g>
       <use xlink:href="#m9ddf26e303" x="103.074841" y="349.007483" style="stroke: #000000; stroke-width: 0.8"/>
      </g>
     </g>
     <g id="text_26">
      <!-- 0.10 -->
      <g transform="translate(34.784216 356.60592) scale(0.2 -0.2)">
       <defs>
        <path id="DejaVuSans-2212" d="M 678 2272 
L 4684 2272 
L 4684 1741 
L 678 1741 
L 678 2272 
z
" transform="scale(0.015625)"/>
        <path id="DejaVuSans-2e" d="M 684 794 
L 1344 794 
L 1344 0 
L 684 0 
L 684 794 
z
" transform="scale(0.015625)"/>
       </defs>
       <use xlink:href="#DejaVuSans-2212"/>
       <use xlink:href="#DejaVuSans-30" x="83.789062"/>
       <use xlink:href="#DejaVuSans-2e" x="147.412109"/>
       <use xlink:href="#DejaVuSans-31" x="179.199219"/>
       <use xlink:href="#DejaVuSans-30" x="242.822266"/>
      </g>
     </g>
    </g>
    <g id="ytick_2">
     <g id="line2d_27">
      <g>
       <use xlink:href="#m9ddf26e303" x="103.074841" y="276.544538" style="stroke: #000000; stroke-width: 0.8"/>
      </g>
     </g>
     <g id="text_27">
      <!-- 0.05 -->
      <g transform="translate(34.784216 284.142975) scale(0.2 -0.2)">
       <use xlink:href="#DejaVuSans-2212"/>
       <use xlink:href="#DejaVuSans-30" x="83.789062"/>
       <use xlink:href="#DejaVuSans-2e" x="147.412109"/>
       <use xlink:href="#DejaVuSans-30" x="179.199219"/>
       <use xlink:href="#DejaVuSans-35" x="242.822266"/>
      </g>
     </g>
    </g>
    <g id="ytick_3">
     <g id="line2d_28">
      <g>
       <use xlink:href="#m9ddf26e303" x="103.074841" y="204.081593" style="stroke: #000000; stroke-width: 0.8"/>
      </g>
     </g>
     <g id="text_28">
      <!-- 0.00 -->
      <g transform="translate(51.543591 211.680031) scale(0.2 -0.2)">
       <use xlink:href="#DejaVuSans-30"/>
       <use xlink:href="#DejaVuSans-2e" x="63.623047"/>
       <use xlink:href="#DejaVuSans-30" x="95.410156"/>
       <use xlink:href="#DejaVuSans-30" x="159.033203"/>
      </g>
     </g>
    </g>
    <g id="ytick_4">
     <g id="line2d_29">
      <g>
       <use xlink:href="#m9ddf26e303" x="103.074841" y="131.618649" style="stroke: #000000; stroke-width: 0.8"/>
      </g>
     </g>
     <g id="text_29">
      <!-- 0.05 -->
      <g transform="translate(51.543591 139.217086) scale(0.2 -0.2)">
       <use xlink:href="#DejaVuSans-30"/>
       <use xlink:href="#DejaVuSans-2e" x="63.623047"/>
       <use xlink:href="#DejaVuSans-30" x="95.410156"/>
       <use xlink:href="#DejaVuSans-35" x="159.033203"/>
      </g>
     </g>
    </g>
    <g id="ytick_5">
     <g id="line2d_30">
      <g>
       <use xlink:href="#m9ddf26e303" x="103.074841" y="59.155704" style="stroke: #000000; stroke-width: 0.8"/>
      </g>
     </g>
     <g id="text_30">
      <!-- 0.10 -->
      <g transform="translate(51.543591 66.754141) scale(0.2 -0.2)">
       <use xlink:href="#DejaVuSans-30"/>
       <use xlink:href="#DejaVuSans-2e" x="63.623047"/>
       <use xlink:href="#DejaVuSans-31" x="95.410156"/>
       <use xlink:href="#DejaVuSans-30" x="159.033203"/>
      </g>
     </g>
    </g>
    <g id="text_31">
     <!-- Relative fitness $\gamma_y$ -->
     <g transform="translate(24.584216 291.84) rotate(-90) scale(0.2 -0.2)">
      <defs>
       <path id="DejaVuSans-52" d="M 2841 2188 
Q 3044 2119 3236 1894 
Q 3428 1669 3622 1275 
L 4263 0 
L 3584 0 
L 2988 1197 
Q 2756 1666 2539 1819 
Q 2322 1972 1947 1972 
L 1259 1972 
L 1259 0 
L 628 0 
L 628 4666 
L 2053 4666 
Q 2853 4666 3247 4331 
Q 3641 3997 3641 3322 
Q 3641 2881 3436 2590 
Q 3231 2300 2841 2188 
z
M 1259 4147 
L 1259 2491 
L 2053 2491 
Q 2509 2491 2742 2702 
Q 2975 2913 2975 3322 
Q 2975 3731 2742 3939 
Q 2509 4147 2053 4147 
L 1259 4147 
z
" transform="scale(0.015625)"/>
       <path id="DejaVuSans-65" d="M 3597 1894 
L 3597 1613 
L 953 1613 
Q 991 1019 1311 708 
Q 1631 397 2203 397 
Q 2534 397 2845 478 
Q 3156 559 3463 722 
L 3463 178 
Q 3153 47 2828 -22 
Q 2503 -91 2169 -91 
Q 1331 -91 842 396 
Q 353 884 353 1716 
Q 353 2575 817 3079 
Q 1281 3584 2069 3584 
Q 2775 3584 3186 3129 
Q 3597 2675 3597 1894 
z
M 3022 2063 
Q 3016 2534 2758 2815 
Q 2500 3097 2075 3097 
Q 1594 3097 1305 2825 
Q 1016 2553 972 2059 
L 3022 2063 
z
" transform="scale(0.015625)"/>
       <path id="DejaVuSans-6c" d="M 603 4863 
L 1178 4863 
L 1178 0 
L 603 0 
L 603 4863 
z
" transform="scale(0.015625)"/>
       <path id="DejaVuSans-61" d="M 2194 1759 
Q 1497 1759 1228 1600 
Q 959 1441 959 1056 
Q 959 750 1161 570 
Q 1363 391 1709 391 
Q 2188 391 2477 730 
Q 2766 1069 2766 1631 
L 2766 1759 
L 2194 1759 
z
M 3341 1997 
L 3341 0 
L 2766 0 
L 2766 531 
Q 2569 213 2275 61 
Q 1981 -91 1556 -91 
Q 1019 -91 701 211 
Q 384 513 384 1019 
Q 384 1609 779 1909 
Q 1175 2209 1959 2209 
L 2766 2209 
L 2766 2266 
Q 2766 2663 2505 2880 
Q 2244 3097 1772 3097 
Q 1472 3097 1187 3025 
Q 903 2953 641 2809 
L 641 3341 
Q 956 3463 1253 3523 
Q 1550 3584 1831 3584 
Q 2591 3584 2966 3190 
Q 3341 2797 3341 1997 
z
" transform="scale(0.015625)"/>
       <path id="DejaVuSans-74" d="M 1172 4494 
L 1172 3500 
L 2356 3500 
L 2356 3053 
L 1172 3053 
L 1172 1153 
Q 1172 725 1289 603 
Q 1406 481 1766 481 
L 2356 481 
L 2356 0 
L 1766 0 
Q 1100 0 847 248 
Q 594 497 594 1153 
L 594 3053 
L 172 3053 
L 172 3500 
L 594 3500 
L 594 4494 
L 1172 4494 
z
" transform="scale(0.015625)"/>
       <path id="DejaVuSans-69" d="M 603 3500 
L 1178 3500 
L 1178 0 
L 603 0 
L 603 3500 
z
M 603 4863 
L 1178 4863 
L 1178 4134 
L 603 4134 
L 603 4863 
z
" transform="scale(0.015625)"/>
       <path id="DejaVuSans-76" d="M 191 3500 
L 800 3500 
L 1894 563 
L 2988 3500 
L 3597 3500 
L 2284 0 
L 1503 0 
L 191 3500 
z
" transform="scale(0.015625)"/>
       <path id="DejaVuSans-20" transform="scale(0.015625)"/>
       <path id="DejaVuSans-66" d="M 2375 4863 
L 2375 4384 
L 1825 4384 
Q 1516 4384 1395 4259 
Q 1275 4134 1275 3809 
L 1275 3500 
L 2222 3500 
L 2222 3053 
L 1275 3053 
L 1275 0 
L 697 0 
L 697 3053 
L 147 3053 
L 147 3500 
L 697 3500 
L 697 3744 
Q 697 4328 969 4595 
Q 1241 4863 1831 4863 
L 2375 4863 
z
" transform="scale(0.015625)"/>
       <path id="DejaVuSans-6e" d="M 3513 2113 
L 3513 0 
L 2938 0 
L 2938 2094 
Q 2938 2591 2744 2837 
Q 2550 3084 2163 3084 
Q 1697 3084 1428 2787 
Q 1159 2491 1159 1978 
L 1159 0 
L 581 0 
L 581 3500 
L 1159 3500 
L 1159 2956 
Q 1366 3272 1645 3428 
Q 1925 3584 2291 3584 
Q 2894 3584 3203 3211 
Q 3513 2838 3513 2113 
z
" transform="scale(0.015625)"/>
       <path id="DejaVuSans-73" d="M 2834 3397 
L 2834 2853 
Q 2591 2978 2328 3040 
Q 2066 3103 1784 3103 
Q 1356 3103 1142 2972 
Q 928 2841 928 2578 
Q 928 2378 1081 2264 
Q 1234 2150 1697 2047 
L 1894 2003 
Q 2506 1872 2764 1633 
Q 3022 1394 3022 966 
Q 3022 478 2636 193 
Q 2250 -91 1575 -91 
Q 1294 -91 989 -36 
Q 684 19 347 128 
L 347 722 
Q 666 556 975 473 
Q 1284 391 1588 391 
Q 1994 391 2212 530 
Q 2431 669 2431 922 
Q 2431 1156 2273 1281 
Q 2116 1406 1581 1522 
L 1381 1569 
Q 847 1681 609 1914 
Q 372 2147 372 2553 
Q 372 3047 722 3315 
Q 1072 3584 1716 3584 
Q 2034 3584 2315 3537 
Q 2597 3491 2834 3397 
z
" transform="scale(0.015625)"/>
       <path id="DejaVuSans-Oblique-3b3" d="M 1491 2950 
L 1838 788 
L 3456 3500 
L 4066 3500 
L 1972 0 
L 1713 -1331 
L 1138 -1331 
L 1397 0 
L 988 2613 
Q 925 3006 628 3006 
L 475 3006 
L 569 3500 
L 788 3500 
Q 1403 3500 1491 2950 
z
" transform="scale(0.015625)"/>
       <path id="DejaVuSans-Oblique-79" d="M 1588 -325 
Q 1188 -997 936 -1164 
Q 684 -1331 294 -1331 
L -159 -1331 
L -63 -850 
L 269 -850 
Q 509 -850 678 -719 
Q 847 -588 1056 -206 
L 1234 128 
L 459 3500 
L 1069 3500 
L 1650 819 
L 3256 3500 
L 3859 3500 
L 1588 -325 
z
" transform="scale(0.015625)"/>
      </defs>
      <use xlink:href="#DejaVuSans-52" transform="translate(0 0.015625)"/>
      <use xlink:href="#DejaVuSans-65" transform="translate(69.482422 0.015625)"/>
      <use xlink:href="#DejaVuSans-6c" transform="translate(131.005859 0.015625)"/>
      <use xlink:href="#DejaVuSans-61" transform="translate(158.789062 0.015625)"/>
      <use xlink:href="#DejaVuSans-74" transform="translate(220.068359 0.015625)"/>
      <use xlink:href="#DejaVuSans-69" transform="translate(259.277344 0.015625)"/>
      <use xlink:href="#DejaVuSans-76" transform="translate(287.060547 0.015625)"/>
      <use xlink:href="#DejaVuSans-65" transform="translate(346.240234 0.015625)"/>
      <use xlink:href="#DejaVuSans-20" transform="translate(407.763672 0.015625)"/>
      <use xlink:href="#DejaVuSans-66" transform="translate(439.550781 0.015625)"/>
      <use xlink:href="#DejaVuSans-69" transform="translate(474.755859 0.015625)"/>
      <use xlink:href="#DejaVuSans-74" transform="translate(502.539062 0.015625)"/>
      <use xlink:href="#DejaVuSans-6e" transform="translate(541.748047 0.015625)"/>
      <use xlink:href="#DejaVuSans-65" transform="translate(605.126953 0.015625)"/>
      <use xlink:href="#DejaVuSans-73" transform="translate(666.650391 0.015625)"/>
      <use xlink:href="#DejaVuSans-73" transform="translate(718.75 0.015625)"/>
      <use xlink:href="#DejaVuSans-20" transform="translate(770.849609 0.015625)"/>
      <use xlink:href="#DejaVuSans-Oblique-3b3" transform="translate(802.636719 0.015625)"/>
      <use xlink:href="#DejaVuSans-Oblique-79" transform="translate(861.816406 -16.390625) scale(0.7)"/>
     </g>
    </g>
   </g>
   <g id="line2d_31">
    <path d="M 103.074841 204.081593 
L 1041.965466 204.081593 
" clip-path="url(#pfa212a163f)" style="fill: none; stroke-dasharray: 7.4,3.2; stroke-dashoffset: 0; stroke: #000000; stroke-width: 2"/>
   </g>
   <g id="patch_3">
    <path d="M 103.074841 395.28 
L 103.074841 7.2 
" style="fill: none; stroke: #000000; stroke-width: 0.8; stroke-linejoin: miter; stroke-linecap: square"/>
   </g>
   <g id="patch_4">
    <path d="M 940.074841 395.28 
L 940.074841 7.2 
" style="fill: none; stroke: #000000; stroke-width: 0.8; stroke-linejoin: miter; stroke-linecap: square"/>
   </g>
   <g id="patch_5">
    <path d="M 103.074841 395.28 
L 940.074841 395.28 
" style="fill: none; stroke: #000000; stroke-width: 0.8; stroke-linejoin: miter; stroke-linecap: square"/>
   </g>
   <g id="patch_6">
    <path d="M 103.074841 7.2 
L 940.074841 7.2 
" style="fill: none; stroke: #000000; stroke-width: 0.8; stroke-linejoin: miter; stroke-linecap: square"/>
   </g>
  </g>
  <g id="axes_2">
   <g id="matplotlib.axis_3">
    <g id="ytick_6">
     <g id="line2d_32">
      <defs>
       <path id="mb89d5d4cec" d="M 0 0 
L 3.5 0 
" style="stroke: #000000; stroke-width: 0.8"/>
      </defs>
      <g>
       <use xlink:href="#mb89d5d4cec" x="940.074841" y="349.007483" style="stroke: #000000; stroke-width: 0.8"/>
      </g>
     </g>
     <g id="text_32">
      <!-- 0.10 -->
      <g transform="translate(947.074841 356.60592) scale(0.2 -0.2)">
       <use xlink:href="#DejaVuSans-2212"/>
       <use xlink:href="#DejaVuSans-30" x="83.789062"/>
       <use xlink:href="#DejaVuSans-2e" x="147.412109"/>
       <use xlink:href="#DejaVuSans-31" x="179.199219"/>
       <use xlink:href="#DejaVuSans-30" x="242.822266"/>
      </g>
     </g>
    </g>
    <g id="ytick_7">
     <g id="line2d_33">
      <g>
       <use xlink:href="#mb89d5d4cec" x="940.074841" y="276.544538" style="stroke: #000000; stroke-width: 0.8"/>
      </g>
     </g>
     <g id="text_33">
      <!-- 0.05 -->
      <g transform="translate(947.074841 284.142975) scale(0.2 -0.2)">
       <use xlink:href="#DejaVuSans-2212"/>
       <use xlink:href="#DejaVuSans-30" x="83.789062"/>
       <use xlink:href="#DejaVuSans-2e" x="147.412109"/>
       <use xlink:href="#DejaVuSans-30" x="179.199219"/>
       <use xlink:href="#DejaVuSans-35" x="242.822266"/>
      </g>
     </g>
    </g>
    <g id="ytick_8">
     <g id="line2d_34">
      <g>
       <use xlink:href="#mb89d5d4cec" x="940.074841" y="204.081593" style="stroke: #000000; stroke-width: 0.8"/>
      </g>
     </g>
     <g id="text_34">
      <!-- 0.00 -->
      <g transform="translate(947.074841 211.680031) scale(0.2 -0.2)">
       <use xlink:href="#DejaVuSans-30"/>
       <use xlink:href="#DejaVuSans-2e" x="63.623047"/>
       <use xlink:href="#DejaVuSans-30" x="95.410156"/>
       <use xlink:href="#DejaVuSans-30" x="159.033203"/>
      </g>
     </g>
    </g>
    <g id="ytick_9">
     <g id="line2d_35">
      <g>
       <use xlink:href="#mb89d5d4cec" x="940.074841" y="131.618649" style="stroke: #000000; stroke-width: 0.8"/>
      </g>
     </g>
     <g id="text_35">
      <!-- 0.05 -->
      <g transform="translate(947.074841 139.217086) scale(0.2 -0.2)">
       <use xlink:href="#DejaVuSans-30"/>
       <use xlink:href="#DejaVuSans-2e" x="63.623047"/>
       <use xlink:href="#DejaVuSans-30" x="95.410156"/>
       <use xlink:href="#DejaVuSans-35" x="159.033203"/>
      </g>
     </g>
    </g>
    <g id="ytick_10">
     <g id="line2d_36">
      <g>
       <use xlink:href="#mb89d5d4cec" x="940.074841" y="59.155704" style="stroke: #000000; stroke-width: 0.8"/>
      </g>
     </g>
     <g id="text_36">
      <!-- 0.10 -->
      <g transform="translate(947.074841 66.754141) scale(0.2 -0.2)">
       <use xlink:href="#DejaVuSans-30"/>
       <use xlink:href="#DejaVuSans-2e" x="63.623047"/>
       <use xlink:href="#DejaVuSans-31" x="95.410156"/>
       <use xlink:href="#DejaVuSans-30" x="159.033203"/>
      </g>
     </g>
    </g>
    <g id="text_37">
     <!-- Change in proportion $\gamma_{prop}$ -->
     <g transform="translate(1027.565466 332.74) rotate(-90) scale(0.2 -0.2)">
      <defs>
       <path id="DejaVuSans-43" d="M 4122 4306 
L 4122 3641 
Q 3803 3938 3442 4084 
Q 3081 4231 2675 4231 
Q 1875 4231 1450 3742 
Q 1025 3253 1025 2328 
Q 1025 1406 1450 917 
Q 1875 428 2675 428 
Q 3081 428 3442 575 
Q 3803 722 4122 1019 
L 4122 359 
Q 3791 134 3420 21 
Q 3050 -91 2638 -91 
Q 1578 -91 968 557 
Q 359 1206 359 2328 
Q 359 3453 968 4101 
Q 1578 4750 2638 4750 
Q 3056 4750 3426 4639 
Q 3797 4528 4122 4306 
z
" transform="scale(0.015625)"/>
       <path id="DejaVuSans-68" d="M 3513 2113 
L 3513 0 
L 2938 0 
L 2938 2094 
Q 2938 2591 2744 2837 
Q 2550 3084 2163 3084 
Q 1697 3084 1428 2787 
Q 1159 2491 1159 1978 
L 1159 0 
L 581 0 
L 581 4863 
L 1159 4863 
L 1159 2956 
Q 1366 3272 1645 3428 
Q 1925 3584 2291 3584 
Q 2894 3584 3203 3211 
Q 3513 2838 3513 2113 
z
" transform="scale(0.015625)"/>
       <path id="DejaVuSans-67" d="M 2906 1791 
Q 2906 2416 2648 2759 
Q 2391 3103 1925 3103 
Q 1463 3103 1205 2759 
Q 947 2416 947 1791 
Q 947 1169 1205 825 
Q 1463 481 1925 481 
Q 2391 481 2648 825 
Q 2906 1169 2906 1791 
z
M 3481 434 
Q 3481 -459 3084 -895 
Q 2688 -1331 1869 -1331 
Q 1566 -1331 1297 -1286 
Q 1028 -1241 775 -1147 
L 775 -588 
Q 1028 -725 1275 -790 
Q 1522 -856 1778 -856 
Q 2344 -856 2625 -561 
Q 2906 -266 2906 331 
L 2906 616 
Q 2728 306 2450 153 
Q 2172 0 1784 0 
Q 1141 0 747 490 
Q 353 981 353 1791 
Q 353 2603 747 3093 
Q 1141 3584 1784 3584 
Q 2172 3584 2450 3431 
Q 2728 3278 2906 2969 
L 2906 3500 
L 3481 3500 
L 3481 434 
z
" transform="scale(0.015625)"/>
       <path id="DejaVuSans-70" d="M 1159 525 
L 1159 -1331 
L 581 -1331 
L 581 3500 
L 1159 3500 
L 1159 2969 
Q 1341 3281 1617 3432 
Q 1894 3584 2278 3584 
Q 2916 3584 3314 3078 
Q 3713 2572 3713 1747 
Q 3713 922 3314 415 
Q 2916 -91 2278 -91 
Q 1894 -91 1617 61 
Q 1341 213 1159 525 
z
M 3116 1747 
Q 3116 2381 2855 2742 
Q 2594 3103 2138 3103 
Q 1681 3103 1420 2742 
Q 1159 2381 1159 1747 
Q 1159 1113 1420 752 
Q 1681 391 2138 391 
Q 2594 391 2855 752 
Q 3116 1113 3116 1747 
z
" transform="scale(0.015625)"/>
       <path id="DejaVuSans-72" d="M 2631 2963 
Q 2534 3019 2420 3045 
Q 2306 3072 2169 3072 
Q 1681 3072 1420 2755 
Q 1159 2438 1159 1844 
L 1159 0 
L 581 0 
L 581 3500 
L 1159 3500 
L 1159 2956 
Q 1341 3275 1631 3429 
Q 1922 3584 2338 3584 
Q 2397 3584 2469 3576 
Q 2541 3569 2628 3553 
L 2631 2963 
z
" transform="scale(0.015625)"/>
       <path id="DejaVuSans-6f" d="M 1959 3097 
Q 1497 3097 1228 2736 
Q 959 2375 959 1747 
Q 959 1119 1226 758 
Q 1494 397 1959 397 
Q 2419 397 2687 759 
Q 2956 1122 2956 1747 
Q 2956 2369 2687 2733 
Q 2419 3097 1959 3097 
z
M 1959 3584 
Q 2709 3584 3137 3096 
Q 3566 2609 3566 1747 
Q 3566 888 3137 398 
Q 2709 -91 1959 -91 
Q 1206 -91 779 398 
Q 353 888 353 1747 
Q 353 2609 779 3096 
Q 1206 3584 1959 3584 
z
" transform="scale(0.015625)"/>
       <path id="DejaVuSans-Oblique-70" d="M 3175 2156 
Q 3175 2616 2975 2859 
Q 2775 3103 2400 3103 
Q 2144 3103 1911 2972 
Q 1678 2841 1497 2591 
Q 1319 2344 1212 1994 
Q 1106 1644 1106 1300 
Q 1106 863 1306 627 
Q 1506 391 1875 391 
Q 2147 391 2380 519 
Q 2613 647 2778 891 
Q 2956 1147 3065 1494 
Q 3175 1841 3175 2156 
z
M 1394 2969 
Q 1625 3272 1939 3428 
Q 2253 3584 2638 3584 
Q 3175 3584 3472 3232 
Q 3769 2881 3769 2247 
Q 3769 1728 3584 1258 
Q 3400 788 3053 416 
Q 2822 169 2531 39 
Q 2241 -91 1919 -91 
Q 1547 -91 1294 64 
Q 1041 219 916 525 
L 556 -1331 
L -19 -1331 
L 922 3500 
L 1497 3500 
L 1394 2969 
z
" transform="scale(0.015625)"/>
       <path id="DejaVuSans-Oblique-72" d="M 2853 2969 
Q 2766 3016 2653 3041 
Q 2541 3066 2413 3066 
Q 1953 3066 1609 2717 
Q 1266 2369 1153 1784 
L 800 0 
L 225 0 
L 909 3500 
L 1484 3500 
L 1375 2956 
Q 1603 3259 1920 3421 
Q 2238 3584 2597 3584 
Q 2691 3584 2781 3573 
Q 2872 3563 2963 3538 
L 2853 2969 
z
" transform="scale(0.015625)"/>
       <path id="DejaVuSans-Oblique-6f" d="M 1625 -91 
Q 1009 -91 651 289 
Q 294 669 294 1325 
Q 294 1706 417 2101 
Q 541 2497 738 2766 
Q 1047 3184 1428 3384 
Q 1809 3584 2291 3584 
Q 2888 3584 3255 3212 
Q 3622 2841 3622 2241 
Q 3622 1825 3500 1412 
Q 3378 1000 3181 728 
Q 2875 309 2494 109 
Q 2113 -91 1625 -91 
z
M 891 1344 
Q 891 869 1089 633 
Q 1288 397 1691 397 
Q 2269 397 2648 901 
Q 3028 1406 3028 2181 
Q 3028 2634 2825 2865 
Q 2622 3097 2228 3097 
Q 1903 3097 1650 2945 
Q 1397 2794 1197 2484 
Q 1050 2253 970 1956 
Q 891 1659 891 1344 
z
" transform="scale(0.015625)"/>
      </defs>
      <use xlink:href="#DejaVuSans-43" transform="translate(0 0.015625)"/>
      <use xlink:href="#DejaVuSans-68" transform="translate(69.824219 0.015625)"/>
      <use xlink:href="#DejaVuSans-61" transform="translate(133.203125 0.015625)"/>
      <use xlink:href="#DejaVuSans-6e" transform="translate(194.482422 0.015625)"/>
      <use xlink:href="#DejaVuSans-67" transform="translate(257.861328 0.015625)"/>
      <use xlink:href="#DejaVuSans-65" transform="translate(321.337891 0.015625)"/>
      <use xlink:href="#DejaVuSans-20" transform="translate(382.861328 0.015625)"/>
      <use xlink:href="#DejaVuSans-69" transform="translate(414.648438 0.015625)"/>
      <use xlink:href="#DejaVuSans-6e" transform="translate(442.431641 0.015625)"/>
      <use xlink:href="#DejaVuSans-20" transform="translate(505.810547 0.015625)"/>
      <use xlink:href="#DejaVuSans-70" transform="translate(537.597656 0.015625)"/>
      <use xlink:href="#DejaVuSans-72" transform="translate(601.074219 0.015625)"/>
      <use xlink:href="#DejaVuSans-6f" transform="translate(642.1875 0.015625)"/>
      <use xlink:href="#DejaVuSans-70" transform="translate(703.369141 0.015625)"/>
      <use xlink:href="#DejaVuSans-6f" transform="translate(766.845703 0.015625)"/>
      <use xlink:href="#DejaVuSans-72" transform="translate(828.027344 0.015625)"/>
      <use xlink:href="#DejaVuSans-74" transform="translate(869.140625 0.015625)"/>
      <use xlink:href="#DejaVuSans-69" transform="translate(908.349609 0.015625)"/>
      <use xlink:href="#DejaVuSans-6f" transform="translate(936.132812 0.015625)"/>
      <use xlink:href="#DejaVuSans-6e" transform="translate(997.314453 0.015625)"/>
      <use xlink:href="#DejaVuSans-20" transform="translate(1060.693359 0.015625)"/>
      <use xlink:href="#DejaVuSans-Oblique-3b3" transform="translate(1092.480469 0.015625)"/>
      <use xlink:href="#DejaVuSans-Oblique-70" transform="translate(1151.660156 -16.390625) scale(0.7)"/>
      <use xlink:href="#DejaVuSans-Oblique-72" transform="translate(1196.09375 -16.390625) scale(0.7)"/>
      <use xlink:href="#DejaVuSans-Oblique-6f" transform="translate(1224.873047 -16.390625) scale(0.7)"/>
      <use xlink:href="#DejaVuSans-Oblique-70" transform="translate(1267.700195 -16.390625) scale(0.7)"/>
     </g>
    </g>
   </g>
   <g id="line2d_37">
    <path d="M 940.074841 204.081593 
" clip-path="url(#pfa212a163f)" style="fill: none; stroke: #ffa500; stroke-width: 1.5; stroke-linecap: square"/>
   </g>
   <g id="patch_7">
    <path d="M 103.074841 395.28 
L 103.074841 7.2 
" style="fill: none; stroke: #000000; stroke-width: 0.8; stroke-linejoin: miter; stroke-linecap: square"/>
   </g>
   <g id="patch_8">
    <path d="M 940.074841 395.28 
L 940.074841 7.2 
" style="fill: none; stroke: #000000; stroke-width: 0.8; stroke-linejoin: miter; stroke-linecap: square"/>
   </g>
   <g id="patch_9">
    <path d="M 103.074841 395.28 
L 940.074841 395.28 
" style="fill: none; stroke: #000000; stroke-width: 0.8; stroke-linejoin: miter; stroke-linecap: square"/>
   </g>
   <g id="patch_10">
    <path d="M 103.074841 7.2 
L 940.074841 7.2 
" style="fill: none; stroke: #000000; stroke-width: 0.8; stroke-linejoin: miter; stroke-linecap: square"/>
   </g>
  </g>
 </g>
 <defs>
  <clipPath id="pfa212a163f">
   <rect x="103.074841" y="7.2" width="837" height="388.08"/>
  </clipPath>
 </defs>
</svg>
