<?xml version="1.0" encoding="utf-8" standalone="no"?>
<!DOCTYPE svg PUBLIC "-//W3C//DTD SVG 1.1//EN"
  "http://www.w3.org/Graphics/SVG/1.1/DTD/svg11.dtd">
<svg xmlns:xlink="http://www.w3.org/1999/xlink" width="1040.965466pt" height="505.354841pt" viewBox="0 0 1040.965466 505.354841" xmlns="http://www.w3.org/2000/svg" version="1.1">
 <metadata>
  <rdf:RDF xmlns:dc="http://purl.org/dc/elements/1.1/" xmlns:cc="http://creativecommons.org/ns#" xmlns:rdf="http://www.w3.org/1999/02/22-rdf-syntax-ns#">
   <cc:Work>
    <dc:type rdf:resource="http://purl.org/dc/dcmitype/StillImage"/>
    <dc:date>2023-11-25T10:10:37.102085</dc:date>
    <dc:format>image/svg+xml</dc:format>
    <dc:creator>
     <cc:Agent>
      <dc:title>Matplotlib v3.7.2, https://matplotlib.org/</dc:title>
     </cc:Agent>
    </dc:creator>
   </cc:Work>
  </rdf:RDF>
 </metadata>
 <defs>
  <style type="text/css">*{stroke-linejoin: round; stroke-linecap: butt}</style>
 </defs>
 <g id="figure_1">
  <g id="patch_1">
   <path d="M 0 505.354841 
L 1040.965466 505.354841 
L 1040.965466 -0 
L 0 -0 
z
" style="fill: #ffffff"/>
  </g>
  <g id="axes_1">
   <g id="patch_2">
    <path d="M 103.074841 395.28 
L 940.074841 395.28 
L 940.074841 7.2 
L 103.074841 7.2 
z
" style="fill: #ffffff"/>
   </g>
   <g id="PolyCollection_1">
    <defs>
     <path id="m41f22b6d13" d="M 103.074841 -193.921767 
L 103.074841 -193.900055 
L 104.356617 -194.005677 
L 105.638394 -194.09661 
L 106.92017 -194.213004 
L 108.201946 -194.298704 
L 109.483723 -194.395782 
L 110.765499 -194.508248 
L 112.047276 -194.613114 
L 113.329052 -194.712221 
L 114.610828 -194.797204 
L 115.892605 -194.897167 
L 117.174381 -195.005639 
L 118.456158 -195.112928 
L 119.737934 -195.232644 
L 121.019711 -195.336144 
L 122.301487 -195.453946 
L 123.583263 -195.563478 
L 124.86504 -195.698021 
L 126.146816 -195.813705 
L 127.428593 -195.92621 
L 128.710369 -196.057828 
L 129.992145 -196.18729 
L 131.273922 -196.313461 
L 132.555698 -196.461166 
L 133.837475 -196.593844 
L 135.119251 -196.752038 
L 136.401028 -196.903794 
L 137.682804 -197.078484 
L 138.96458 -197.259324 
L 140.246357 -197.433003 
L 141.528133 -197.62695 
L 142.80991 -197.851413 
L 144.091686 -198.052982 
L 145.373462 -198.280917 
L 146.655239 -198.539944 
L 147.937015 -198.791567 
L 149.218792 -199.066753 
L 150.500568 -199.356377 
L 151.782345 -199.652336 
L 153.064121 -199.971977 
L 154.345897 -200.32769 
L 155.627674 -200.690128 
L 156.90945 -201.075175 
L 158.191227 -201.460937 
L 159.473003 -201.896583 
L 160.754779 -202.319404 
L 162.036556 -202.777421 
L 163.318332 -203.222651 
L 164.600109 -203.714176 
L 165.881885 -204.236962 
L 167.163662 -204.736218 
L 168.445438 -205.26718 
L 169.727214 -205.828259 
L 171.008991 -206.379624 
L 172.290767 -206.939814 
L 173.572544 -207.525462 
L 174.85432 -208.11695 
L 176.136096 -208.714175 
L 177.417873 -209.335508 
L 178.699649 -209.964813 
L 179.981426 -210.592646 
L 181.263202 -211.241162 
L 182.544979 -211.89155 
L 183.826755 -212.541846 
L 185.108531 -213.218615 
L 186.390308 -213.912193 
L 187.672084 -214.60233 
L 188.953861 -215.291304 
L 190.235637 -215.974851 
L 191.517413 -216.676111 
L 192.79919 -217.366075 
L 194.080966 -218.067271 
L 195.362743 -218.713709 
L 196.644519 -219.447574 
L 197.926296 -220.095847 
L 199.208072 -220.819242 
L 200.489848 -221.475174 
L 201.771625 -222.171085 
L 203.053401 -222.799766 
L 204.335178 -223.51506 
L 205.616954 -224.187548 
L 206.89873 -224.81576 
L 208.180507 -225.501495 
L 209.462283 -226.141413 
L 210.74406 -226.810423 
L 212.025836 -227.48694 
L 213.307613 -228.138765 
L 214.589389 -228.778413 
L 215.871165 -229.463018 
L 217.152942 -230.114192 
L 218.434718 -230.779565 
L 219.716495 -231.434588 
L 220.998271 -232.075097 
L 222.280047 -232.731614 
L 223.561824 -233.39387 
L 224.8436 -233.9944 
L 226.125377 -234.668349 
L 227.407153 -235.315504 
L 228.68893 -235.952427 
L 229.970706 -236.58977 
L 231.252482 -237.225319 
L 232.534259 -237.868122 
L 233.816035 -238.48309 
L 235.097812 -239.120456 
L 236.379588 -239.772341 
L 237.661364 -240.430722 
L 238.943141 -241.095582 
L 240.224917 -241.720967 
L 241.506694 -242.404247 
L 242.78847 -243.129648 
L 244.070247 -243.81997 
L 245.352023 -244.533594 
L 246.633799 -245.263229 
L 247.915576 -246.031584 
L 249.197352 -246.813168 
L 250.479129 -247.543552 
L 251.760905 -248.369783 
L 253.042681 -249.15835 
L 254.324458 -250.003678 
L 255.606234 -250.785194 
L 256.888011 -251.695237 
L 258.169787 -252.589104 
L 259.451564 -253.46004 
L 260.73334 -254.345937 
L 262.015116 -255.258027 
L 263.296893 -256.209737 
L 264.578669 -257.105839 
L 265.860446 -258.124678 
L 267.142222 -259.028218 
L 268.423998 -260.077215 
L 269.705775 -261.095989 
L 270.987551 -262.093131 
L 272.269328 -263.128733 
L 273.551104 -264.203218 
L 274.832881 -265.178178 
L 276.114657 -266.446164 
L 277.396433 -267.54738 
L 278.67821 -268.579108 
L 279.959986 -269.737623 
L 281.241763 -270.950685 
L 282.523539 -272.298798 
L 283.805315 -273.565769 
L 285.087092 -274.64908 
L 286.368868 -276.319045 
L 287.650645 -277.678918 
L 288.932421 -279.069423 
L 290.214198 -280.511493 
L 291.495974 -282.145491 
L 292.77775 -283.717464 
L 294.059527 -284.908722 
L 295.341303 -286.38554 
L 296.62308 -288.796935 
L 297.904856 -290.862829 
L 299.186632 -292.436472 
L 300.468409 -294.250369 
L 301.750185 -295.839495 
L 303.031962 -297.04877 
L 304.313738 -298.993615 
L 305.595515 -301.305187 
L 306.877291 -302.749991 
L 308.159067 -303.580545 
L 309.440844 -305.441515 
L 310.72262 -306.188149 
L 312.004397 -307.377729 
L 313.286173 -309.356599 
L 314.567949 -309.502655 
L 315.849726 -308.586236 
L 317.131502 -306.824794 
L 318.413279 -308.917745 
L 319.695055 -305.117833 
L 320.976832 -304.217907 
L 322.258608 -309.599493 
L 323.540384 -308.460063 
L 324.822161 -305.887461 
L 326.103937 -307.338183 
L 327.385714 -307.654074 
L 328.66749 -297.539457 
L 329.949266 -282.91844 
L 331.231043 -275.771858 
L 332.512819 -291.621017 
L 333.794596 -283.54773 
L 335.076372 -272.847685 
L 336.358149 -273.438358 
L 337.639925 -251.771716 
L 338.921701 -254.9202 
L 340.203478 -261.46926 
L 341.485254 -277.888569 
L 342.767031 -262.322577 
L 344.048807 -253.174135 
L 345.330583 -256.813221 
L 346.61236 -254.610193 
L 347.894136 -245.794334 
L 349.175913 -246.892462 
L 350.457689 -254.411439 
L 351.739466 -244.925188 
L 353.021242 -243.010007 
L 354.303018 -246.336606 
L 355.584795 -240.23049 
L 356.866571 -237.831435 
L 358.148348 -238.588993 
L 359.430124 -240.368468 
L 360.7119 -238.335529 
L 361.993677 -240.306677 
L 363.275453 -240.074253 
L 364.55723 -238.077909 
L 365.839006 -239.869088 
L 367.120783 -238.914267 
L 368.402559 -238.801048 
L 369.684335 -240.183355 
L 370.966112 -239.611482 
L 372.247888 -241.624274 
L 373.529665 -241.439395 
L 374.811441 -240.80937 
L 376.093217 -240.737398 
L 377.374994 -241.697067 
L 378.65677 -242.510332 
L 379.938547 -242.674998 
L 381.220323 -243.580656 
L 382.502099 -243.685008 
L 383.783876 -243.836069 
L 385.065652 -245.20427 
L 386.347429 -244.489376 
L 387.629205 -245.42782 
L 388.910982 -245.822407 
L 390.192758 -245.763293 
L 391.474534 -246.653477 
L 392.756311 -246.839944 
L 394.038087 -246.504699 
L 395.319864 -245.998126 
L 396.60164 -247.502093 
L 397.883416 -247.729049 
L 399.165193 -248.225172 
L 400.446969 -245.626906 
L 401.728746 -245.527647 
L 403.010522 -244.486362 
L 404.292299 -247.029681 
L 405.574075 -248.58665 
L 406.855851 -248.126403 
L 408.137628 -246.420877 
L 409.419404 -246.162813 
L 410.701181 -249.24469 
L 411.982957 -246.662845 
L 413.264733 -247.39683 
L 414.54651 -247.796182 
L 415.828286 -249.313191 
L 417.110063 -248.22924 
L 418.391839 -248.975552 
L 419.673616 -248.406192 
L 420.955392 -249.388491 
L 422.237168 -250.208898 
L 423.518945 -251.599111 
L 424.800721 -252.326962 
L 426.082498 -253.000184 
L 427.364274 -253.913298 
L 428.64605 -254.159165 
L 429.927827 -255.009669 
L 431.209603 -255.90795 
L 432.49138 -258.11959 
L 433.773156 -259.784949 
L 435.054933 -260.627334 
L 436.336709 -262.45986 
L 437.618485 -262.941437 
L 438.900262 -264.593323 
L 440.182038 -266.96206 
L 441.463815 -268.953485 
L 442.745591 -270.480837 
L 444.027367 -272.928545 
L 445.309144 -274.578584 
L 446.59092 -276.727766 
L 447.872697 -278.769789 
L 449.154473 -281.101632 
L 450.43625 -283.27575 
L 451.718026 -285.848067 
L 452.999802 -288.032175 
L 454.281579 -290.441857 
L 455.563355 -293.441222 
L 456.845132 -296.297036 
L 458.126908 -298.452451 
L 459.408684 -300.944341 
L 460.690461 -303.845426 
L 461.972237 -306.245866 
L 463.254014 -309.226323 
L 464.53579 -313.176834 
L 465.817567 -315.366521 
L 467.099343 -318.307694 
L 468.381119 -321.012739 
L 469.662896 -323.969901 
L 470.944672 -327.498172 
L 472.226449 -330.415568 
L 473.508225 -333.664507 
L 474.790001 -337.597469 
L 476.071778 -340.037873 
L 477.353554 -343.812219 
L 478.635331 -346.529131 
L 479.917107 -350.303628 
L 481.198884 -354.507565 
L 482.48066 -357.714953 
L 483.762436 -360.470491 
L 485.044213 -364.637931 
L 486.325989 -367.861665 
L 487.607766 -371.709011 
L 488.889542 -374.852061 
L 490.171318 -379.038951 
L 491.453095 -382.860317 
L 492.734871 -383.445755 
L 494.016648 -390.067467 
L 495.298424 -391.360336 
L 496.580201 -395.591275 
L 497.861977 -398.196773 
L 499.143753 -401.924964 
L 500.42553 -405.32014 
L 501.707306 -408.529327 
L 502.989083 -412.13216 
L 504.270859 -414.693713 
L 505.552635 -417.728264 
L 506.834412 -416.241818 
L 508.116188 -424.550221 
L 509.397965 -426.652891 
L 510.679741 -421.018576 
L 511.961518 -430.256865 
L 513.243294 -429.046033 
L 514.52507 -430.180267 
L 515.806847 -435.79778 
L 517.088623 -435.549106 
L 518.3704 -430.927477 
L 519.652176 -434.748766 
L 520.933952 -436.484833 
L 522.215729 -434.379875 
L 523.497505 -434.779588 
L 524.779282 -433.869993 
L 526.061058 -430.413356 
L 527.342835 -425.536515 
L 528.624611 -414.416094 
L 529.906387 -417.359164 
L 531.188164 -410.975844 
L 532.46994 -406.422663 
L 533.751717 -402.875732 
L 535.033493 -397.55778 
L 536.315269 -393.437265 
L 537.597046 -400.955472 
L 538.878822 -393.120048 
L 540.160599 -379.729429 
L 541.442375 -372.66543 
L 542.724152 -369.909363 
L 544.005928 -353.652727 
L 545.287704 -351.029407 
L 546.569481 -346.737364 
L 547.851257 -348.21819 
L 549.133034 -333.768778 
L 550.41481 -337.991864 
L 551.696586 -341.293721 
L 552.978363 -328.197422 
L 554.260139 -320.637259 
L 555.541916 -320.9711 
L 556.823692 -315.123902 
L 558.105469 -313.211372 
L 559.387245 -313.161594 
L 560.669021 -313.303224 
L 561.950798 -310.646855 
L 563.232574 -307.925921 
L 564.514351 -299.276863 
L 565.796127 -304.721459 
L 567.077903 -296.902892 
L 568.35968 -298.401978 
L 569.641456 -298.763667 
L 570.923233 -296.019873 
L 572.205009 -293.87026 
L 573.486786 -297.383418 
L 574.768562 -294.595131 
L 576.050338 -294.176062 
L 577.332115 -290.211924 
L 578.613891 -292.030267 
L 579.895668 -293.666992 
L 581.177444 -291.434887 
L 582.45922 -291.084321 
L 583.740997 -291.855879 
L 585.022773 -293.462899 
L 586.30455 -292.208509 
L 587.586326 -295.162074 
L 588.868103 -295.208696 
L 590.149879 -290.537907 
L 591.431655 -291.071943 
L 592.713432 -293.638116 
L 593.995208 -294.130537 
L 595.276985 -294.242524 
L 596.558761 -297.574093 
L 597.840537 -296.345836 
L 599.122314 -296.572581 
L 600.40409 -297.296455 
L 601.685867 -298.050473 
L 602.967643 -300.049905 
L 604.24942 -298.755255 
L 605.531196 -299.917316 
L 606.812972 -300.812853 
L 608.094749 -301.465278 
L 609.376525 -302.065213 
L 610.658302 -302.994657 
L 611.940078 -305.765209 
L 613.221854 -306.580689 
L 614.503631 -308.263089 
L 615.785407 -311.550392 
L 617.067184 -309.034889 
L 618.34896 -313.404917 
L 619.630737 -312.236545 
L 620.912513 -312.48304 
L 622.194289 -312.490682 
L 623.476066 -315.039062 
L 624.757842 -315.387279 
L 626.039619 -315.222014 
L 627.321395 -319.283705 
L 628.603171 -318.100401 
L 629.884948 -318.903883 
L 631.166724 -318.44653 
L 632.448501 -321.069522 
L 633.730277 -320.25068 
L 635.012054 -321.089281 
L 636.29383 -324.26291 
L 637.575606 -325.332033 
L 638.857383 -326.464819 
L 640.139159 -326.838456 
L 641.420936 -328.461445 
L 642.702712 -328.737506 
L 643.984488 -329.576714 
L 645.266265 -330.418174 
L 646.548041 -331.211977 
L 647.829818 -333.519987 
L 649.111594 -331.839646 
L 650.393371 -331.775308 
L 651.675147 -333.669789 
L 652.956923 -334.834199 
L 654.2387 -337.336338 
L 655.520476 -335.416981 
L 656.802253 -335.574818 
L 658.084029 -336.420471 
L 659.365805 -337.673738 
L 660.647582 -339.257783 
L 661.929358 -340.854529 
L 663.211135 -340.643067 
L 664.492911 -341.455581 
L 665.774688 -341.459034 
L 667.056464 -343.595413 
L 668.33824 -345.802328 
L 669.620017 -343.371035 
L 670.901793 -345.733651 
L 672.18357 -345.88047 
L 673.465346 -344.422489 
L 674.747122 -349.654096 
L 676.028899 -348.948942 
L 677.310675 -347.992913 
L 678.592452 -350.467597 
L 679.874228 -347.516261 
L 681.156005 -350.745912 
L 682.437781 -353.247755 
L 683.719557 -350.681934 
L 685.001334 -350.151374 
L 686.28311 -352.125846 
L 687.564887 -352.290071 
L 688.846663 -352.953356 
L 690.128439 -348.012562 
L 691.410216 -349.122668 
L 692.691992 -348.766908 
L 693.973769 -352.118481 
L 695.255545 -355.060889 
L 696.537322 -351.539534 
L 697.819098 -347.036361 
L 699.100874 -350.962649 
L 700.382651 -351.992031 
L 701.664427 -354.630771 
L 702.946204 -353.850618 
L 704.22798 -352.690082 
L 705.509756 -355.637515 
L 706.791533 -356.094247 
L 708.073309 -352.718955 
L 709.355086 -355.053656 
L 710.636862 -351.707614 
L 711.918639 -351.044493 
L 713.200415 -357.311237 
L 714.482191 -356.46117 
L 715.763968 -356.719723 
L 717.045744 -355.568749 
L 718.327521 -353.188236 
L 719.609297 -347.503095 
L 720.891073 -345.754804 
L 722.17285 -346.514139 
L 723.454626 -341.522703 
L 724.736403 -331.611478 
L 726.018179 -342.997931 
L 727.299956 -345.867401 
L 728.581732 -342.32476 
L 729.863508 -339.07977 
L 731.145285 -338.583341 
L 732.427061 -340.116037 
L 733.708838 -333.579995 
L 734.990614 -329.618608 
L 736.27239 -336.707287 
L 737.554167 -329.643685 
L 738.835943 -333.533831 
L 740.11772 -333.833837 
L 741.399496 -326.974815 
L 742.681273 -326.972203 
L 743.963049 -322.871101 
L 745.244825 -322.561558 
L 746.526602 -328.898331 
L 747.808378 -323.937525 
L 749.090155 -323.960059 
L 750.371931 -319.18595 
L 751.653707 -320.738951 
L 752.935484 -315.545928 
L 754.21726 -319.681888 
L 755.499037 -316.833217 
L 756.780813 -316.688657 
L 758.06259 -313.270283 
L 759.344366 -319.319591 
L 760.626142 -312.81252 
L 761.907919 -311.85 
L 763.189695 -308.805992 
L 764.471472 -305.246377 
L 765.753248 -306.030883 
L 767.035024 -307.375614 
L 768.316801 -303.717263 
L 769.598577 -299.734915 
L 770.880354 -302.540944 
L 772.16213 -304.7893 
L 773.443907 -301.284371 
L 774.725683 -298.927397 
L 776.007459 -303.944961 
L 777.289236 -304.974143 
L 778.571012 -295.977977 
L 779.852789 -293.398413 
L 781.134565 -302.354289 
L 782.416341 -298.972389 
L 783.698118 -297.737543 
L 784.979894 -296.689827 
L 786.261671 -291.809699 
L 787.543447 -293.475551 
L 788.825224 -296.182366 
L 790.107 -293.258504 
L 791.388776 -292.38219 
L 792.670553 -297.300556 
L 793.952329 -295.793849 
L 795.234106 -296.323509 
L 796.515882 -287.627641 
L 797.797658 -281.259294 
L 799.079435 -281.031724 
L 800.361211 -287.639685 
L 801.642988 -291.00267 
L 802.924764 -289.480297 
L 804.206541 -289.143954 
L 805.488317 -280.972765 
L 806.770093 -290.412226 
L 808.05187 -282.371969 
L 809.333646 -276.95361 
L 810.615423 -281.620587 
L 811.897199 -272.63756 
L 813.178975 -279.056046 
L 814.460752 -275.161465 
L 815.742528 -277.647501 
L 817.024305 -274.22376 
L 818.306081 -269.868776 
L 819.587858 -271.700054 
L 820.869634 -268.96903 
L 822.15141 -269.279825 
L 823.433187 -267.787597 
L 824.714963 -278.353075 
L 825.99674 -263.601852 
L 827.278516 -257.388408 
L 828.560292 -264.123877 
L 829.842069 -259.101119 
L 831.123845 -257.256225 
L 832.405622 -259.994954 
L 833.687398 -254.528981 
L 834.969175 -249.683752 
L 836.250951 -250.787328 
L 837.532727 -249.328803 
L 838.814504 -248.545051 
L 840.09628 -246.6552 
L 841.378057 -242.808321 
L 842.659833 -250.713701 
L 843.941609 -239.119709 
L 845.223386 -238.40232 
L 846.505162 -239.286354 
L 847.786939 -245.651528 
L 849.068715 -236.452233 
L 850.350492 -229.063556 
L 851.632268 -236.349531 
L 852.914044 -235.11283 
L 854.195821 -225.79982 
L 855.477597 -241.717212 
L 856.759374 -226.809842 
L 858.04115 -234.643026 
L 859.322926 -221.584528 
L 860.604703 -228.336088 
L 861.886479 -221.625222 
L 863.168256 -220.707952 
L 864.450032 -216.977127 
L 865.731809 -216.215904 
L 867.013585 -219.179208 
L 868.295361 -219.726315 
L 869.577138 -216.078093 
L 870.858914 -210.524081 
L 872.140691 -210.837791 
L 873.422467 -210.283974 
L 874.704243 -206.365627 
L 875.98602 -205.94879 
L 877.267796 -207.985402 
L 878.549573 -208.008533 
L 879.831349 -201.2018 
L 881.113126 -199.862795 
L 882.394902 -196.013936 
L 883.676678 -202.584129 
L 884.958455 -208.449127 
L 886.240231 -199.8938 
L 887.522008 -203.078269 
L 888.803784 -199.725174 
L 890.08556 -191.002239 
L 891.367337 -200.807479 
L 892.649113 -187.416644 
L 893.93089 -198.695463 
L 895.212666 -197.647665 
L 896.494443 -196.742086 
L 897.776219 -185.781078 
L 899.057995 -187.277026 
L 900.339772 -188.19778 
L 901.621548 -194.872132 
L 902.903325 -191.539845 
L 904.185101 -186.755663 
L 905.466877 -188.246802 
L 906.748654 -179.739245 
L 908.03043 -185.819044 
L 909.312207 -177.88289 
L 910.593983 -172.364139 
L 911.87576 -171.335031 
L 913.157536 -176.729472 
L 914.439312 -177.07958 
L 915.721089 -176.583976 
L 917.002865 -172.692275 
L 918.284642 -172.198338 
L 919.566418 -184.835252 
L 920.848194 -173.32892 
L 922.129971 -204.58809 
L 923.411747 -172.117245 
L 924.693524 -166.459666 
L 925.9753 -174.952026 
L 927.257077 -183.498988 
L 928.538853 -167.212787 
L 929.820629 -172.679923 
L 931.102406 -185.710911 
L 932.384182 -175.654494 
L 933.665959 -175.654908 
L 934.947735 -178.014421 
L 936.229511 -167.593924 
L 937.511288 -172.889313 
L 938.793064 -169.946962 
L 940.074841 -168.457694 
L 940.074841 -197.958851 
L 940.074841 -197.958851 
L 938.793064 -193.17927 
L 937.511288 -196.307338 
L 936.229511 -193.15974 
L 934.947735 -197.287906 
L 933.665959 -196.627884 
L 932.384182 -197.453028 
L 931.102406 -197.916027 
L 929.820629 -193.047621 
L 928.538853 -193.228934 
L 927.257077 -196.134712 
L 925.9753 -195.627846 
L 924.693524 -191.1372 
L 923.411747 -194.170176 
L 922.129971 -232.354506 
L 920.848194 -193.45791 
L 919.566418 -195.921109 
L 918.284642 -193.351511 
L 917.002865 -193.180013 
L 915.721089 -194.415542 
L 914.439312 -193.796147 
L 913.157536 -192.689757 
L 911.87576 -191.992658 
L 910.593983 -192.196388 
L 909.312207 -193.183248 
L 908.03043 -195.47121 
L 906.748654 -194.274208 
L 905.466877 -197.011523 
L 904.185101 -196.777735 
L 902.903325 -197.739072 
L 901.621548 -198.831473 
L 900.339772 -196.739717 
L 899.057995 -196.146641 
L 897.776219 -194.973689 
L 896.494443 -199.747572 
L 895.212666 -199.400044 
L 893.93089 -200.01096 
L 892.649113 -196.322876 
L 891.367337 -203.452978 
L 890.08556 -197.304252 
L 888.803784 -201.02388 
L 887.522008 -208.227633 
L 886.240231 -200.980035 
L 884.958455 -226.888211 
L 883.676678 -205.523785 
L 882.394902 -199.166744 
L 881.113126 -201.604293 
L 879.831349 -203.158262 
L 878.549573 -224.867564 
L 877.267796 -221.981663 
L 875.98602 -215.489982 
L 874.704243 -216.165911 
L 873.422467 -227.098132 
L 872.140691 -227.052127 
L 870.858914 -227.834602 
L 869.577138 -238.315291 
L 868.295361 -251.384412 
L 867.013585 -250.323533 
L 865.731809 -242.433642 
L 864.450032 -244.067306 
L 863.168256 -251.682965 
L 861.886479 -253.904973 
L 860.604703 -272.764659 
L 859.322926 -253.264346 
L 858.04115 -296.149571 
L 856.759374 -269.740319 
L 855.477597 -310.875632 
L 854.195821 -265.015675 
L 852.914044 -289.986967 
L 851.632268 -291.221597 
L 850.350492 -275.388138 
L 849.068715 -292.806665 
L 847.786939 -317.427265 
L 846.505162 -301.394828 
L 845.223386 -297.740676 
L 843.941609 -299.365921 
L 842.659833 -328.408006 
L 841.378057 -317.332446 
L 840.09628 -317.757456 
L 838.814504 -320.991948 
L 837.532727 -323.610412 
L 836.250951 -328.894039 
L 834.969175 -325.698333 
L 833.687398 -338.098157 
L 832.405622 -351.426442 
L 831.123845 -340.037658 
L 829.842069 -350.570691 
L 828.560292 -358.13238 
L 827.278516 -342.517681 
L 825.99674 -357.147567 
L 824.714963 -393.454677 
L 823.433187 -367.843057 
L 822.15141 -372.494864 
L 820.869634 -371.015682 
L 819.587858 -377.683495 
L 818.306081 -373.134735 
L 817.024305 -382.851249 
L 815.742528 -389.672688 
L 814.460752 -384.225931 
L 813.178975 -395.73301 
L 811.897199 -378.940752 
L 810.615423 -399.941974 
L 809.333646 -390.729472 
L 808.05187 -401.216545 
L 806.770093 -416.171654 
L 805.488317 -398.121051 
L 804.206541 -417.258174 
L 802.924764 -416.060978 
L 801.642988 -418.702403 
L 800.361211 -411.715859 
L 799.079435 -398.792382 
L 797.797658 -398.064675 
L 796.515882 -410.139223 
L 795.234106 -430.29357 
L 793.952329 -428.839835 
L 792.670553 -429.509322 
L 791.388776 -419.438479 
L 790.107 -421.2029 
L 788.825224 -427.449728 
L 787.543447 -420.717957 
L 786.261671 -418.673083 
L 784.979894 -427.665489 
L 783.698118 -427.503175 
L 782.416341 -430.560536 
L 781.134565 -436.152526 
L 779.852789 -416.931749 
L 778.571012 -424.86348 
L 777.289236 -439.368335 
L 776.007459 -435.4232 
L 774.725683 -426.834545 
L 773.443907 -431.03932 
L 772.16213 -436.22282 
L 770.880354 -430.137802 
L 769.598577 -422.320406 
L 768.316801 -432.790883 
L 767.035024 -437.357226 
L 765.753248 -433.534166 
L 764.471472 -436.700413 
L 763.189695 -437.888004 
L 761.907919 -443.626096 
L 760.626142 -443.397422 
L 759.344366 -454.200151 
L 758.06259 -444.496194 
L 756.780813 -448.558786 
L 755.499037 -447.148137 
L 754.21726 -449.056422 
L 752.935484 -444.371412 
L 751.653707 -452.125256 
L 750.371931 -447.339256 
L 749.090155 -454.751821 
L 747.808378 -453.712866 
L 746.526602 -460.353853 
L 745.244825 -453.833683 
L 743.963049 -450.753382 
L 742.681273 -453.186226 
L 741.399496 -454.803598 
L 740.11772 -463.140753 
L 738.835943 -460.771302 
L 737.554167 -457.712859 
L 736.27239 -466.0307 
L 734.990614 -458.144707 
L 733.708838 -460.457924 
L 732.427061 -469.828848 
L 731.145285 -465.98023 
L 729.863508 -466.750126 
L 728.581732 -470.289619 
L 727.299956 -472.976737 
L 726.018179 -469.274504 
L 724.736403 -452.077538 
L 723.454626 -464.090538 
L 722.17285 -470.951607 
L 720.891073 -469.65505 
L 719.609297 -471.643096 
L 718.327521 -477.002562 
L 717.045744 -479.078522 
L 715.763968 -482.359832 
L 714.482191 -478.415545 
L 713.200415 -478.163882 
L 711.918639 -471.01317 
L 710.636862 -470.568924 
L 709.355086 -473.35127 
L 708.073309 -469.264878 
L 706.791533 -473.130034 
L 705.509756 -470.425259 
L 704.22798 -467.027038 
L 702.946204 -465.817872 
L 701.664427 -467.281446 
L 700.382651 -462.4893 
L 699.100874 -460.839517 
L 697.819098 -456.37984 
L 696.537322 -459.530134 
L 695.255545 -462.569579 
L 693.973769 -458.689395 
L 692.691992 -455.929596 
L 691.410216 -455.191928 
L 690.128439 -451.856574 
L 688.846663 -457.061097 
L 687.564887 -455.217166 
L 686.28311 -454.848034 
L 685.001334 -453.327343 
L 683.719557 -454.172302 
L 682.437781 -455.615789 
L 681.156005 -451.143746 
L 679.874228 -448.216646 
L 678.592452 -451.479384 
L 677.310675 -448.125228 
L 676.028899 -450.28394 
L 674.747122 -448.677266 
L 673.465346 -443.253842 
L 672.18357 -444.438102 
L 670.901793 -443.627472 
L 669.620017 -441.148825 
L 668.33824 -443.530167 
L 667.056464 -441.622197 
L 665.774688 -438.529539 
L 664.492911 -438.724391 
L 663.211135 -437.432237 
L 661.929358 -437.525432 
L 660.647582 -435.864219 
L 659.365805 -434.200653 
L 658.084029 -432.996783 
L 656.802253 -432.574217 
L 655.520476 -431.913044 
L 654.2387 -436.307115 
L 652.956923 -431.545364 
L 651.675147 -430.525687 
L 650.393371 -428.852839 
L 649.111594 -429.860778 
L 647.829818 -430.580921 
L 646.548041 -428.244764 
L 645.266265 -427.492738 
L 643.984488 -426.276088 
L 642.702712 -425.919304 
L 641.420936 -425.620674 
L 640.139159 -424.757698 
L 638.857383 -424.076954 
L 637.575606 -422.707738 
L 636.29383 -421.159854 
L 635.012054 -417.610691 
L 633.730277 -416.850855 
L 632.448501 -417.977422 
L 631.166724 -415.012797 
L 629.884948 -415.986942 
L 628.603171 -414.833467 
L 627.321395 -417.335054 
L 626.039619 -411.248644 
L 624.757842 -411.556831 
L 623.476066 -411.010949 
L 622.194289 -407.972628 
L 620.912513 -407.986001 
L 619.630737 -407.452952 
L 618.34896 -408.947559 
L 617.067184 -403.67572 
L 615.785407 -405.873653 
L 614.503631 -401.50197 
L 613.221854 -398.876294 
L 611.940078 -397.347391 
L 610.658302 -393.395963 
L 609.376525 -391.273654 
L 608.094749 -390.687984 
L 606.812972 -388.824111 
L 605.531196 -387.634577 
L 604.24942 -385.519977 
L 602.967643 -386.575082 
L 601.685867 -383.131515 
L 600.40409 -380.962984 
L 599.122314 -379.549669 
L 597.840537 -378.639012 
L 596.558761 -378.736524 
L 595.276985 -374.443406 
L 593.995208 -373.29503 
L 592.713432 -371.189821 
L 591.431655 -368.07889 
L 590.149879 -366.801798 
L 588.868103 -369.810795 
L 587.586326 -368.692062 
L 586.30455 -364.914402 
L 585.022773 -364.612378 
L 583.740997 -362.412388 
L 582.45922 -360.898636 
L 581.177444 -359.953531 
L 579.895668 -359.889554 
L 578.613891 -357.914784 
L 577.332115 -355.489737 
L 576.050338 -358.394333 
L 574.768562 -357.183441 
L 573.486786 -358.194984 
L 572.205009 -354.494306 
L 570.923233 -354.37218 
L 569.641456 -356.215153 
L 568.35968 -354.805558 
L 567.077903 -352.945703 
L 565.796127 -358.380105 
L 564.514351 -352.505889 
L 563.232574 -358.841961 
L 561.950798 -359.732811 
L 560.669021 -360.843834 
L 559.387245 -359.141588 
L 558.105469 -358.40546 
L 556.823692 -359.327233 
L 555.541916 -363.072866 
L 554.260139 -360.886863 
L 552.978363 -366.89766 
L 551.696586 -374.623991 
L 550.41481 -371.757191 
L 549.133034 -368.259475 
L 547.851257 -378.437101 
L 546.569481 -377.124094 
L 545.287704 -379.891817 
L 544.005928 -381.680525 
L 542.724152 -394.346282 
L 541.442375 -395.397378 
L 540.160599 -401.116554 
L 538.878822 -412.089464 
L 537.597046 -418.539192 
L 536.315269 -410.473377 
L 535.033493 -414.547902 
L 533.751717 -420.071459 
L 532.46994 -424.071907 
L 531.188164 -428.481523 
L 529.906387 -435.094007 
L 528.624611 -431.811704 
L 527.342835 -443.412943 
L 526.061058 -448.319954 
L 524.779282 -452.227808 
L 523.497505 -453.33342 
L 522.215729 -452.819652 
L 520.933952 -455.071314 
L 519.652176 -452.597582 
L 518.3704 -448.638821 
L 517.088623 -454.131706 
L 515.806847 -454.250116 
L 514.52507 -447.48147 
L 513.243294 -446.199904 
L 511.961518 -447.793921 
L 510.679741 -436.635941 
L 509.397965 -443.522009 
L 508.116188 -440.716852 
L 506.834412 -431.069335 
L 505.552635 -432.870749 
L 504.270859 -429.16934 
L 502.989083 -426.426163 
L 501.707306 -422.846216 
L 500.42553 -419.641812 
L 499.143753 -416.459117 
L 497.861977 -412.859933 
L 496.580201 -410.32474 
L 495.298424 -406.340608 
L 494.016648 -405.139972 
L 492.734871 -398.390433 
L 491.453095 -398.338199 
L 490.171318 -394.699373 
L 488.889542 -390.795486 
L 487.607766 -387.850359 
L 486.325989 -384.299588 
L 485.044213 -381.231641 
L 483.762436 -377.277331 
L 482.48066 -374.647396 
L 481.198884 -371.668058 
L 479.917107 -367.741438 
L 478.635331 -364.188106 
L 477.353554 -361.796131 
L 476.071778 -358.352031 
L 474.790001 -355.987814 
L 473.508225 -352.351193 
L 472.226449 -349.283925 
L 470.944672 -346.646883 
L 469.662896 -343.32256 
L 468.381119 -340.582431 
L 467.099343 -338.216864 
L 465.817567 -335.534089 
L 464.53579 -333.626969 
L 463.254014 -329.950668 
L 461.972237 -327.311606 
L 460.690461 -325.00489 
L 459.408684 -322.293621 
L 458.126908 -320.575264 
L 456.845132 -318.136664 
L 455.563355 -315.66027 
L 454.281579 -312.961035 
L 452.999802 -310.845392 
L 451.718026 -308.762008 
L 450.43625 -306.621608 
L 449.154473 -304.349073 
L 447.872697 -302.10245 
L 446.59092 -300.196645 
L 445.309144 -298.175981 
L 444.027367 -296.468299 
L 442.745591 -294.204857 
L 441.463815 -292.572239 
L 440.182038 -290.706667 
L 438.900262 -288.377734 
L 437.618485 -286.755533 
L 436.336709 -286.260352 
L 435.054933 -284.380181 
L 433.773156 -283.370349 
L 432.49138 -281.574467 
L 431.209603 -279.449015 
L 429.927827 -278.326384 
L 428.64605 -277.269436 
L 427.364274 -277.101753 
L 426.082498 -276.035065 
L 424.800721 -275.386475 
L 423.518945 -274.68471 
L 422.237168 -273.198025 
L 420.955392 -272.299337 
L 419.673616 -271.08789 
L 418.391839 -271.786082 
L 417.110063 -271.109373 
L 415.828286 -272.211604 
L 414.54651 -270.450737 
L 413.264733 -270.278058 
L 411.982957 -268.988737 
L 410.701181 -271.710384 
L 409.419404 -268.5028 
L 408.137628 -268.762754 
L 406.855851 -270.632172 
L 405.574075 -271.104297 
L 404.292299 -269.464442 
L 403.010522 -266.59001 
L 401.728746 -267.762526 
L 400.446969 -267.884212 
L 399.165193 -270.799564 
L 397.883416 -270.86284 
L 396.60164 -270.087505 
L 395.319864 -268.359106 
L 394.038087 -268.954949 
L 392.756311 -269.355386 
L 391.474534 -269.150997 
L 390.192758 -268.129633 
L 388.910982 -268.438334 
L 387.629205 -267.784746 
L 386.347429 -266.649726 
L 385.065652 -267.535073 
L 383.783876 -265.96434 
L 382.502099 -265.753587 
L 381.220323 -265.613357 
L 379.938547 -264.621216 
L 378.65677 -264.425345 
L 377.374994 -263.318573 
L 376.093217 -262.103255 
L 374.811441 -262.130601 
L 373.529665 -262.712253 
L 372.247888 -263.135216 
L 370.966112 -260.496832 
L 369.684335 -261.010803 
L 368.402559 -259.252782 
L 367.120783 -259.292402 
L 365.839006 -260.016741 
L 364.55723 -258.170711 
L 363.275453 -259.984088 
L 361.993677 -259.95201 
L 360.7119 -257.718112 
L 359.430124 -259.406409 
L 358.148348 -257.300526 
L 356.866571 -256.409359 
L 355.584795 -258.423683 
L 354.303018 -264.286383 
L 353.021242 -260.641172 
L 351.739466 -262.429139 
L 350.457689 -271.010905 
L 349.175913 -263.703988 
L 347.894136 -262.249045 
L 346.61236 -270.216604 
L 345.330583 -272.191199 
L 344.048807 -268.140418 
L 342.767031 -276.614276 
L 341.485254 -291.407483 
L 340.203478 -275.153647 
L 338.921701 -268.640859 
L 337.639925 -265.183358 
L 336.358149 -285.694274 
L 335.076372 -284.823745 
L 333.794596 -295.177956 
L 332.512819 -303.151297 
L 331.231043 -286.761214 
L 329.949266 -293.654487 
L 328.66749 -308.166056 
L 327.385714 -318.256334 
L 326.103937 -317.560122 
L 324.822161 -315.697085 
L 323.540384 -318.020462 
L 322.258608 -318.872665 
L 320.976832 -312.961366 
L 319.695055 -313.632904 
L 318.413279 -317.245174 
L 317.131502 -314.788881 
L 315.849726 -316.277371 
L 314.567949 -316.928943 
L 313.286173 -316.42757 
L 312.004397 -314.14805 
L 310.72262 -312.638318 
L 309.440844 -311.629114 
L 308.159067 -309.437973 
L 306.877291 -308.346117 
L 305.595515 -306.643367 
L 304.313738 -304.0823 
L 303.031962 -301.815825 
L 301.750185 -300.390505 
L 300.468409 -298.540235 
L 299.186632 -296.5361 
L 297.904856 -295.084221 
L 296.62308 -292.99711 
L 295.341303 -290.531416 
L 294.059527 -289.081561 
L 292.77775 -288.02181 
L 291.495974 -286.457345 
L 290.214198 -284.877348 
L 288.932421 -283.435976 
L 287.650645 -282.056143 
L 286.368868 -280.722804 
L 285.087092 -278.941604 
L 283.805315 -277.975013 
L 282.523539 -276.688264 
L 281.241763 -275.339434 
L 279.959986 -274.11359 
L 278.67821 -272.948578 
L 277.396433 -271.961737 
L 276.114657 -270.891666 
L 274.832881 -269.516285 
L 273.551104 -268.588683 
L 272.269328 -267.49203 
L 270.987551 -266.470777 
L 269.705775 -265.451049 
L 268.423998 -264.406638 
L 267.142222 -263.343967 
L 265.860446 -262.446709 
L 264.578669 -261.396334 
L 263.296893 -260.474039 
L 262.015116 -259.48724 
L 260.73334 -258.57004 
L 259.451564 -257.641593 
L 258.169787 -256.774702 
L 256.888011 -255.853744 
L 255.606234 -254.871872 
L 254.324458 -254.105085 
L 253.042681 -253.17561 
L 251.760905 -252.360631 
L 250.479129 -251.435556 
L 249.197352 -250.730341 
L 247.915576 -249.874803 
L 246.633799 -249.063591 
L 245.352023 -248.291632 
L 244.070247 -247.51801 
L 242.78847 -246.778401 
L 241.506694 -245.932425 
L 240.224917 -245.169712 
L 238.943141 -244.538796 
L 237.661364 -243.791713 
L 236.379588 -243.045352 
L 235.097812 -242.301971 
L 233.816035 -241.584101 
L 232.534259 -240.913061 
L 231.252482 -240.175413 
L 229.970706 -239.451275 
L 228.68893 -238.72283 
L 227.407153 -237.996242 
L 226.125377 -237.249675 
L 224.8436 -236.473463 
L 223.561824 -235.80172 
L 222.280047 -235.034523 
L 220.998271 -234.280733 
L 219.716495 -233.555359 
L 218.434718 -232.807082 
L 217.152942 -232.043167 
L 215.871165 -231.300509 
L 214.589389 -230.521919 
L 213.307613 -229.808729 
L 212.025836 -229.080803 
L 210.74406 -228.31219 
L 209.462283 -227.56854 
L 208.180507 -226.868533 
L 206.89873 -226.110963 
L 205.616954 -225.424127 
L 204.335178 -224.69093 
L 203.053401 -223.910881 
L 201.771625 -223.236459 
L 200.489848 -222.48446 
L 199.208072 -221.790005 
L 197.926296 -221.01999 
L 196.644519 -220.339264 
L 195.362743 -219.559549 
L 194.080966 -218.884203 
L 192.79919 -218.145084 
L 191.517413 -217.420967 
L 190.235637 -216.684404 
L 188.953861 -215.971596 
L 187.672084 -215.252028 
L 186.390308 -214.529719 
L 185.108531 -213.803326 
L 183.826755 -213.098352 
L 182.544979 -212.423339 
L 181.263202 -211.749009 
L 179.981426 -211.088021 
L 178.699649 -210.452022 
L 177.417873 -209.805913 
L 176.136096 -209.168408 
L 174.85432 -208.55903 
L 173.572544 -207.951399 
L 172.290767 -207.347326 
L 171.008991 -206.771531 
L 169.727214 -206.205244 
L 168.445438 -205.616716 
L 167.163662 -205.071985 
L 165.881885 -204.559979 
L 164.600109 -204.013562 
L 163.318332 -203.504539 
L 162.036556 -203.049742 
L 160.754779 -202.576553 
L 159.473003 -202.142913 
L 158.191227 -201.686266 
L 156.90945 -201.290756 
L 155.627674 -200.89092 
L 154.345897 -200.516947 
L 153.064121 -200.149435 
L 151.782345 -199.817948 
L 150.500568 -199.523932 
L 149.218792 -199.227477 
L 147.937015 -198.946354 
L 146.655239 -198.693117 
L 145.373462 -198.424375 
L 144.091686 -198.195065 
L 142.80991 -197.996079 
L 141.528133 -197.76556 
L 140.246357 -197.569833 
L 138.96458 -197.399082 
L 137.682804 -197.213701 
L 136.401028 -197.033708 
L 135.119251 -196.883966 
L 133.837475 -196.721951 
L 132.555698 -196.591547 
L 131.273922 -196.439154 
L 129.992145 -196.313388 
L 128.710369 -196.180971 
L 127.428593 -196.043089 
L 126.146816 -195.929247 
L 124.86504 -195.810382 
L 123.583263 -195.66352 
L 122.301487 -195.546553 
L 121.019711 -195.417287 
L 119.737934 -195.310944 
L 118.456158 -195.176884 
L 117.174381 -195.058486 
L 115.892605 -194.936881 
L 114.610828 -194.834129 
L 113.329052 -194.744437 
L 112.047276 -194.63765 
L 110.765499 -194.521544 
L 109.483723 -194.409375 
L 108.201946 -194.316525 
L 106.92017 -194.232094 
L 105.638394 -194.122005 
L 104.356617 -194.031275 
L 103.074841 -193.921767 
z
" style="stroke: #008000; stroke-opacity: 0.3"/>
    </defs>
    <g clip-path="url(#p07400e4c04)">
     <use xlink:href="#m41f22b6d13" x="0" y="505.354841" style="fill: #008000; fill-opacity: 0.3; stroke: #008000; stroke-opacity: 0.3"/>
    </g>
   </g>
   <g id="matplotlib.axis_1">
    <g id="xtick_1">
     <g id="line2d_1">
      <defs>
       <path id="m28062e5bb9" d="M 0 0 
L 0 3.5 
" style="stroke: #000000; stroke-width: 0.8"/>
      </defs>
      <g>
       <use xlink:href="#m28062e5bb9" x="103.074841" y="395.28" style="stroke: #000000; stroke-width: 0.8"/>
      </g>
     </g>
     <g id="text_1">
      <!-- 2021-07-01 -->
      <g transform="translate(17.945813 495.213718) rotate(-45) scale(0.2 -0.2)">
       <defs>
        <path id="DejaVuSans-32" d="M 1228 531 
L 3431 531 
L 3431 0 
L 469 0 
L 469 531 
Q 828 903 1448 1529 
Q 2069 2156 2228 2338 
Q 2531 2678 2651 2914 
Q 2772 3150 2772 3378 
Q 2772 3750 2511 3984 
Q 2250 4219 1831 4219 
Q 1534 4219 1204 4116 
Q 875 4013 500 3803 
L 500 4441 
Q 881 4594 1212 4672 
Q 1544 4750 1819 4750 
Q 2544 4750 2975 4387 
Q 3406 4025 3406 3419 
Q 3406 3131 3298 2873 
Q 3191 2616 2906 2266 
Q 2828 2175 2409 1742 
Q 1991 1309 1228 531 
z
" transform="scale(0.015625)"/>
        <path id="DejaVuSans-30" d="M 2034 4250 
Q 1547 4250 1301 3770 
Q 1056 3291 1056 2328 
Q 1056 1369 1301 889 
Q 1547 409 2034 409 
Q 2525 409 2770 889 
Q 3016 1369 3016 2328 
Q 3016 3291 2770 3770 
Q 2525 4250 2034 4250 
z
M 2034 4750 
Q 2819 4750 3233 4129 
Q 3647 3509 3647 2328 
Q 3647 1150 3233 529 
Q 2819 -91 2034 -91 
Q 1250 -91 836 529 
Q 422 1150 422 2328 
Q 422 3509 836 4129 
Q 1250 4750 2034 4750 
z
" transform="scale(0.015625)"/>
        <path id="DejaVuSans-31" d="M 794 531 
L 1825 531 
L 1825 4091 
L 703 3866 
L 703 4441 
L 1819 4666 
L 2450 4666 
L 2450 531 
L 3481 531 
L 3481 0 
L 794 0 
L 794 531 
z
" transform="scale(0.015625)"/>
        <path id="DejaVuSans-2d" d="M 313 2009 
L 1997 2009 
L 1997 1497 
L 313 1497 
L 313 2009 
z
" transform="scale(0.015625)"/>
        <path id="DejaVuSans-37" d="M 525 4666 
L 3525 4666 
L 3525 4397 
L 1831 0 
L 1172 0 
L 2766 4134 
L 525 4134 
L 525 4666 
z
" transform="scale(0.015625)"/>
       </defs>
       <use xlink:href="#DejaVuSans-32"/>
       <use xlink:href="#DejaVuSans-30" x="63.623047"/>
       <use xlink:href="#DejaVuSans-32" x="127.246094"/>
       <use xlink:href="#DejaVuSans-31" x="190.869141"/>
       <use xlink:href="#DejaVuSans-2d" x="254.492188"/>
       <use xlink:href="#DejaVuSans-30" x="290.576172"/>
       <use xlink:href="#DejaVuSans-37" x="354.199219"/>
       <use xlink:href="#DejaVuSans-2d" x="417.822266"/>
       <use xlink:href="#DejaVuSans-30" x="453.90625"/>
       <use xlink:href="#DejaVuSans-31" x="517.529297"/>
      </g>
     </g>
    </g>
    <g id="xtick_2">
     <g id="line2d_2">
      <g>
       <use xlink:href="#m28062e5bb9" x="138.96458" y="395.28" style="stroke: #000000; stroke-width: 0.8"/>
      </g>
     </g>
     <g id="text_2">
      <!-- 2021-07-29 -->
      <g transform="translate(53.835553 495.213718) rotate(-45) scale(0.2 -0.2)">
       <defs>
        <path id="DejaVuSans-39" d="M 703 97 
L 703 672 
Q 941 559 1184 500 
Q 1428 441 1663 441 
Q 2288 441 2617 861 
Q 2947 1281 2994 2138 
Q 2813 1869 2534 1725 
Q 2256 1581 1919 1581 
Q 1219 1581 811 2004 
Q 403 2428 403 3163 
Q 403 3881 828 4315 
Q 1253 4750 1959 4750 
Q 2769 4750 3195 4129 
Q 3622 3509 3622 2328 
Q 3622 1225 3098 567 
Q 2575 -91 1691 -91 
Q 1453 -91 1209 -44 
Q 966 3 703 97 
z
M 1959 2075 
Q 2384 2075 2632 2365 
Q 2881 2656 2881 3163 
Q 2881 3666 2632 3958 
Q 2384 4250 1959 4250 
Q 1534 4250 1286 3958 
Q 1038 3666 1038 3163 
Q 1038 2656 1286 2365 
Q 1534 2075 1959 2075 
z
" transform="scale(0.015625)"/>
       </defs>
       <use xlink:href="#DejaVuSans-32"/>
       <use xlink:href="#DejaVuSans-30" x="63.623047"/>
       <use xlink:href="#DejaVuSans-32" x="127.246094"/>
       <use xlink:href="#DejaVuSans-31" x="190.869141"/>
       <use xlink:href="#DejaVuSans-2d" x="254.492188"/>
       <use xlink:href="#DejaVuSans-30" x="290.576172"/>
       <use xlink:href="#DejaVuSans-37" x="354.199219"/>
       <use xlink:href="#DejaVuSans-2d" x="417.822266"/>
       <use xlink:href="#DejaVuSans-32" x="453.90625"/>
       <use xlink:href="#DejaVuSans-39" x="517.529297"/>
      </g>
     </g>
    </g>
    <g id="xtick_3">
     <g id="line2d_3">
      <g>
       <use xlink:href="#m28062e5bb9" x="174.85432" y="395.28" style="stroke: #000000; stroke-width: 0.8"/>
      </g>
     </g>
     <g id="text_3">
      <!-- 2021-08-26 -->
      <g transform="translate(89.725293 495.213718) rotate(-45) scale(0.2 -0.2)">
       <defs>
        <path id="DejaVuSans-38" d="M 2034 2216 
Q 1584 2216 1326 1975 
Q 1069 1734 1069 1313 
Q 1069 891 1326 650 
Q 1584 409 2034 409 
Q 2484 409 2743 651 
Q 3003 894 3003 1313 
Q 3003 1734 2745 1975 
Q 2488 2216 2034 2216 
z
M 1403 2484 
Q 997 2584 770 2862 
Q 544 3141 544 3541 
Q 544 4100 942 4425 
Q 1341 4750 2034 4750 
Q 2731 4750 3128 4425 
Q 3525 4100 3525 3541 
Q 3525 3141 3298 2862 
Q 3072 2584 2669 2484 
Q 3125 2378 3379 2068 
Q 3634 1759 3634 1313 
Q 3634 634 3220 271 
Q 2806 -91 2034 -91 
Q 1263 -91 848 271 
Q 434 634 434 1313 
Q 434 1759 690 2068 
Q 947 2378 1403 2484 
z
M 1172 3481 
Q 1172 3119 1398 2916 
Q 1625 2713 2034 2713 
Q 2441 2713 2670 2916 
Q 2900 3119 2900 3481 
Q 2900 3844 2670 4047 
Q 2441 4250 2034 4250 
Q 1625 4250 1398 4047 
Q 1172 3844 1172 3481 
z
" transform="scale(0.015625)"/>
        <path id="DejaVuSans-36" d="M 2113 2584 
Q 1688 2584 1439 2293 
Q 1191 2003 1191 1497 
Q 1191 994 1439 701 
Q 1688 409 2113 409 
Q 2538 409 2786 701 
Q 3034 994 3034 1497 
Q 3034 2003 2786 2293 
Q 2538 2584 2113 2584 
z
M 3366 4563 
L 3366 3988 
Q 3128 4100 2886 4159 
Q 2644 4219 2406 4219 
Q 1781 4219 1451 3797 
Q 1122 3375 1075 2522 
Q 1259 2794 1537 2939 
Q 1816 3084 2150 3084 
Q 2853 3084 3261 2657 
Q 3669 2231 3669 1497 
Q 3669 778 3244 343 
Q 2819 -91 2113 -91 
Q 1303 -91 875 529 
Q 447 1150 447 2328 
Q 447 3434 972 4092 
Q 1497 4750 2381 4750 
Q 2619 4750 2861 4703 
Q 3103 4656 3366 4563 
z
" transform="scale(0.015625)"/>
       </defs>
       <use xlink:href="#DejaVuSans-32"/>
       <use xlink:href="#DejaVuSans-30" x="63.623047"/>
       <use xlink:href="#DejaVuSans-32" x="127.246094"/>
       <use xlink:href="#DejaVuSans-31" x="190.869141"/>
       <use xlink:href="#DejaVuSans-2d" x="254.492188"/>
       <use xlink:href="#DejaVuSans-30" x="290.576172"/>
       <use xlink:href="#DejaVuSans-38" x="354.199219"/>
       <use xlink:href="#DejaVuSans-2d" x="417.822266"/>
       <use xlink:href="#DejaVuSans-32" x="453.90625"/>
       <use xlink:href="#DejaVuSans-36" x="517.529297"/>
      </g>
     </g>
    </g>
    <g id="xtick_4">
     <g id="line2d_4">
      <g>
       <use xlink:href="#m28062e5bb9" x="210.74406" y="395.28" style="stroke: #000000; stroke-width: 0.8"/>
      </g>
     </g>
     <g id="text_4">
      <!-- 2021-09-23 -->
      <g transform="translate(125.615032 495.213718) rotate(-45) scale(0.2 -0.2)">
       <defs>
        <path id="DejaVuSans-33" d="M 2597 2516 
Q 3050 2419 3304 2112 
Q 3559 1806 3559 1356 
Q 3559 666 3084 287 
Q 2609 -91 1734 -91 
Q 1441 -91 1130 -33 
Q 819 25 488 141 
L 488 750 
Q 750 597 1062 519 
Q 1375 441 1716 441 
Q 2309 441 2620 675 
Q 2931 909 2931 1356 
Q 2931 1769 2642 2001 
Q 2353 2234 1838 2234 
L 1294 2234 
L 1294 2753 
L 1863 2753 
Q 2328 2753 2575 2939 
Q 2822 3125 2822 3475 
Q 2822 3834 2567 4026 
Q 2313 4219 1838 4219 
Q 1578 4219 1281 4162 
Q 984 4106 628 3988 
L 628 4550 
Q 988 4650 1302 4700 
Q 1616 4750 1894 4750 
Q 2613 4750 3031 4423 
Q 3450 4097 3450 3541 
Q 3450 3153 3228 2886 
Q 3006 2619 2597 2516 
z
" transform="scale(0.015625)"/>
       </defs>
       <use xlink:href="#DejaVuSans-32"/>
       <use xlink:href="#DejaVuSans-30" x="63.623047"/>
       <use xlink:href="#DejaVuSans-32" x="127.246094"/>
       <use xlink:href="#DejaVuSans-31" x="190.869141"/>
       <use xlink:href="#DejaVuSans-2d" x="254.492188"/>
       <use xlink:href="#DejaVuSans-30" x="290.576172"/>
       <use xlink:href="#DejaVuSans-39" x="354.199219"/>
       <use xlink:href="#DejaVuSans-2d" x="417.822266"/>
       <use xlink:href="#DejaVuSans-32" x="453.90625"/>
       <use xlink:href="#DejaVuSans-33" x="517.529297"/>
      </g>
     </g>
    </g>
    <g id="xtick_5">
     <g id="line2d_5">
      <g>
       <use xlink:href="#m28062e5bb9" x="246.633799" y="395.28" style="stroke: #000000; stroke-width: 0.8"/>
      </g>
     </g>
     <g id="text_5">
      <!-- 2021-10-21 -->
      <g transform="translate(161.504772 495.213718) rotate(-45) scale(0.2 -0.2)">
       <use xlink:href="#DejaVuSans-32"/>
       <use xlink:href="#DejaVuSans-30" x="63.623047"/>
       <use xlink:href="#DejaVuSans-32" x="127.246094"/>
       <use xlink:href="#DejaVuSans-31" x="190.869141"/>
       <use xlink:href="#DejaVuSans-2d" x="254.492188"/>
       <use xlink:href="#DejaVuSans-31" x="290.576172"/>
       <use xlink:href="#DejaVuSans-30" x="354.199219"/>
       <use xlink:href="#DejaVuSans-2d" x="417.822266"/>
       <use xlink:href="#DejaVuSans-32" x="453.90625"/>
       <use xlink:href="#DejaVuSans-31" x="517.529297"/>
      </g>
     </g>
    </g>
    <g id="xtick_6">
     <g id="line2d_6">
      <g>
       <use xlink:href="#m28062e5bb9" x="282.523539" y="395.28" style="stroke: #000000; stroke-width: 0.8"/>
      </g>
     </g>
     <g id="text_6">
      <!-- 2021-11-18 -->
      <g transform="translate(197.394512 495.213718) rotate(-45) scale(0.2 -0.2)">
       <use xlink:href="#DejaVuSans-32"/>
       <use xlink:href="#DejaVuSans-30" x="63.623047"/>
       <use xlink:href="#DejaVuSans-32" x="127.246094"/>
       <use xlink:href="#DejaVuSans-31" x="190.869141"/>
       <use xlink:href="#DejaVuSans-2d" x="254.492188"/>
       <use xlink:href="#DejaVuSans-31" x="290.576172"/>
       <use xlink:href="#DejaVuSans-31" x="354.199219"/>
       <use xlink:href="#DejaVuSans-2d" x="417.822266"/>
       <use xlink:href="#DejaVuSans-31" x="453.90625"/>
       <use xlink:href="#DejaVuSans-38" x="517.529297"/>
      </g>
     </g>
    </g>
    <g id="xtick_7">
     <g id="line2d_7">
      <g>
       <use xlink:href="#m28062e5bb9" x="318.413279" y="395.28" style="stroke: #000000; stroke-width: 0.8"/>
      </g>
     </g>
     <g id="text_7">
      <!-- 2021-12-16 -->
      <g transform="translate(233.284251 495.213718) rotate(-45) scale(0.2 -0.2)">
       <use xlink:href="#DejaVuSans-32"/>
       <use xlink:href="#DejaVuSans-30" x="63.623047"/>
       <use xlink:href="#DejaVuSans-32" x="127.246094"/>
       <use xlink:href="#DejaVuSans-31" x="190.869141"/>
       <use xlink:href="#DejaVuSans-2d" x="254.492188"/>
       <use xlink:href="#DejaVuSans-31" x="290.576172"/>
       <use xlink:href="#DejaVuSans-32" x="354.199219"/>
       <use xlink:href="#DejaVuSans-2d" x="417.822266"/>
       <use xlink:href="#DejaVuSans-31" x="453.90625"/>
       <use xlink:href="#DejaVuSans-36" x="517.529297"/>
      </g>
     </g>
    </g>
    <g id="xtick_8">
     <g id="line2d_8">
      <g>
       <use xlink:href="#m28062e5bb9" x="354.303018" y="395.28" style="stroke: #000000; stroke-width: 0.8"/>
      </g>
     </g>
     <g id="text_8">
      <!-- 2022-01-13 -->
      <g transform="translate(269.173991 495.213718) rotate(-45) scale(0.2 -0.2)">
       <use xlink:href="#DejaVuSans-32"/>
       <use xlink:href="#DejaVuSans-30" x="63.623047"/>
       <use xlink:href="#DejaVuSans-32" x="127.246094"/>
       <use xlink:href="#DejaVuSans-32" x="190.869141"/>
       <use xlink:href="#DejaVuSans-2d" x="254.492188"/>
       <use xlink:href="#DejaVuSans-30" x="290.576172"/>
       <use xlink:href="#DejaVuSans-31" x="354.199219"/>
       <use xlink:href="#DejaVuSans-2d" x="417.822266"/>
       <use xlink:href="#DejaVuSans-31" x="453.90625"/>
       <use xlink:href="#DejaVuSans-33" x="517.529297"/>
      </g>
     </g>
    </g>
    <g id="xtick_9">
     <g id="line2d_9">
      <g>
       <use xlink:href="#m28062e5bb9" x="390.192758" y="395.28" style="stroke: #000000; stroke-width: 0.8"/>
      </g>
     </g>
     <g id="text_9">
      <!-- 2022-02-10 -->
      <g transform="translate(305.063731 495.213718) rotate(-45) scale(0.2 -0.2)">
       <use xlink:href="#DejaVuSans-32"/>
       <use xlink:href="#DejaVuSans-30" x="63.623047"/>
       <use xlink:href="#DejaVuSans-32" x="127.246094"/>
       <use xlink:href="#DejaVuSans-32" x="190.869141"/>
       <use xlink:href="#DejaVuSans-2d" x="254.492188"/>
       <use xlink:href="#DejaVuSans-30" x="290.576172"/>
       <use xlink:href="#DejaVuSans-32" x="354.199219"/>
       <use xlink:href="#DejaVuSans-2d" x="417.822266"/>
       <use xlink:href="#DejaVuSans-31" x="453.90625"/>
       <use xlink:href="#DejaVuSans-30" x="517.529297"/>
      </g>
     </g>
    </g>
    <g id="xtick_10">
     <g id="line2d_10">
      <g>
       <use xlink:href="#m28062e5bb9" x="426.082498" y="395.28" style="stroke: #000000; stroke-width: 0.8"/>
      </g>
     </g>
     <g id="text_10">
      <!-- 2022-03-10 -->
      <g transform="translate(340.95347 495.213718) rotate(-45) scale(0.2 -0.2)">
       <use xlink:href="#DejaVuSans-32"/>
       <use xlink:href="#DejaVuSans-30" x="63.623047"/>
       <use xlink:href="#DejaVuSans-32" x="127.246094"/>
       <use xlink:href="#DejaVuSans-32" x="190.869141"/>
       <use xlink:href="#DejaVuSans-2d" x="254.492188"/>
       <use xlink:href="#DejaVuSans-30" x="290.576172"/>
       <use xlink:href="#DejaVuSans-33" x="354.199219"/>
       <use xlink:href="#DejaVuSans-2d" x="417.822266"/>
       <use xlink:href="#DejaVuSans-31" x="453.90625"/>
       <use xlink:href="#DejaVuSans-30" x="517.529297"/>
      </g>
     </g>
    </g>
    <g id="xtick_11">
     <g id="line2d_11">
      <g>
       <use xlink:href="#m28062e5bb9" x="461.972237" y="395.28" style="stroke: #000000; stroke-width: 0.8"/>
      </g>
     </g>
     <g id="text_11">
      <!-- 2022-04-07 -->
      <g transform="translate(376.84321 495.213718) rotate(-45) scale(0.2 -0.2)">
       <defs>
        <path id="DejaVuSans-34" d="M 2419 4116 
L 825 1625 
L 2419 1625 
L 2419 4116 
z
M 2253 4666 
L 3047 4666 
L 3047 1625 
L 3713 1625 
L 3713 1100 
L 3047 1100 
L 3047 0 
L 2419 0 
L 2419 1100 
L 313 1100 
L 313 1709 
L 2253 4666 
z
" transform="scale(0.015625)"/>
       </defs>
       <use xlink:href="#DejaVuSans-32"/>
       <use xlink:href="#DejaVuSans-30" x="63.623047"/>
       <use xlink:href="#DejaVuSans-32" x="127.246094"/>
       <use xlink:href="#DejaVuSans-32" x="190.869141"/>
       <use xlink:href="#DejaVuSans-2d" x="254.492188"/>
       <use xlink:href="#DejaVuSans-30" x="290.576172"/>
       <use xlink:href="#DejaVuSans-34" x="354.199219"/>
       <use xlink:href="#DejaVuSans-2d" x="417.822266"/>
       <use xlink:href="#DejaVuSans-30" x="453.90625"/>
       <use xlink:href="#DejaVuSans-37" x="517.529297"/>
      </g>
     </g>
    </g>
    <g id="xtick_12">
     <g id="line2d_12">
      <g>
       <use xlink:href="#m28062e5bb9" x="497.861977" y="395.28" style="stroke: #000000; stroke-width: 0.8"/>
      </g>
     </g>
     <g id="text_12">
      <!-- 2022-05-05 -->
      <g transform="translate(412.73295 495.213718) rotate(-45) scale(0.2 -0.2)">
       <defs>
        <path id="DejaVuSans-35" d="M 691 4666 
L 3169 4666 
L 3169 4134 
L 1269 4134 
L 1269 2991 
Q 1406 3038 1543 3061 
Q 1681 3084 1819 3084 
Q 2600 3084 3056 2656 
Q 3513 2228 3513 1497 
Q 3513 744 3044 326 
Q 2575 -91 1722 -91 
Q 1428 -91 1123 -41 
Q 819 9 494 109 
L 494 744 
Q 775 591 1075 516 
Q 1375 441 1709 441 
Q 2250 441 2565 725 
Q 2881 1009 2881 1497 
Q 2881 1984 2565 2268 
Q 2250 2553 1709 2553 
Q 1456 2553 1204 2497 
Q 953 2441 691 2322 
L 691 4666 
z
" transform="scale(0.015625)"/>
       </defs>
       <use xlink:href="#DejaVuSans-32"/>
       <use xlink:href="#DejaVuSans-30" x="63.623047"/>
       <use xlink:href="#DejaVuSans-32" x="127.246094"/>
       <use xlink:href="#DejaVuSans-32" x="190.869141"/>
       <use xlink:href="#DejaVuSans-2d" x="254.492188"/>
       <use xlink:href="#DejaVuSans-30" x="290.576172"/>
       <use xlink:href="#DejaVuSans-35" x="354.199219"/>
       <use xlink:href="#DejaVuSans-2d" x="417.822266"/>
       <use xlink:href="#DejaVuSans-30" x="453.90625"/>
       <use xlink:href="#DejaVuSans-35" x="517.529297"/>
      </g>
     </g>
    </g>
    <g id="xtick_13">
     <g id="line2d_13">
      <g>
       <use xlink:href="#m28062e5bb9" x="533.751717" y="395.28" style="stroke: #000000; stroke-width: 0.8"/>
      </g>
     </g>
     <g id="text_13">
      <!-- 2022-06-02 -->
      <g transform="translate(448.622689 495.213718) rotate(-45) scale(0.2 -0.2)">
       <use xlink:href="#DejaVuSans-32"/>
       <use xlink:href="#DejaVuSans-30" x="63.623047"/>
       <use xlink:href="#DejaVuSans-32" x="127.246094"/>
       <use xlink:href="#DejaVuSans-32" x="190.869141"/>
       <use xlink:href="#DejaVuSans-2d" x="254.492188"/>
       <use xlink:href="#DejaVuSans-30" x="290.576172"/>
       <use xlink:href="#DejaVuSans-36" x="354.199219"/>
       <use xlink:href="#DejaVuSans-2d" x="417.822266"/>
       <use xlink:href="#DejaVuSans-30" x="453.90625"/>
       <use xlink:href="#DejaVuSans-32" x="517.529297"/>
      </g>
     </g>
    </g>
    <g id="xtick_14">
     <g id="line2d_14">
      <g>
       <use xlink:href="#m28062e5bb9" x="569.641456" y="395.28" style="stroke: #000000; stroke-width: 0.8"/>
      </g>
     </g>
     <g id="text_14">
      <!-- 2022-06-30 -->
      <g transform="translate(484.512429 495.213718) rotate(-45) scale(0.2 -0.2)">
       <use xlink:href="#DejaVuSans-32"/>
       <use xlink:href="#DejaVuSans-30" x="63.623047"/>
       <use xlink:href="#DejaVuSans-32" x="127.246094"/>
       <use xlink:href="#DejaVuSans-32" x="190.869141"/>
       <use xlink:href="#DejaVuSans-2d" x="254.492188"/>
       <use xlink:href="#DejaVuSans-30" x="290.576172"/>
       <use xlink:href="#DejaVuSans-36" x="354.199219"/>
       <use xlink:href="#DejaVuSans-2d" x="417.822266"/>
       <use xlink:href="#DejaVuSans-33" x="453.90625"/>
       <use xlink:href="#DejaVuSans-30" x="517.529297"/>
      </g>
     </g>
    </g>
    <g id="xtick_15">
     <g id="line2d_15">
      <g>
       <use xlink:href="#m28062e5bb9" x="605.531196" y="395.28" style="stroke: #000000; stroke-width: 0.8"/>
      </g>
     </g>
     <g id="text_15">
      <!-- 2022-07-28 -->
      <g transform="translate(520.402169 495.213718) rotate(-45) scale(0.2 -0.2)">
       <use xlink:href="#DejaVuSans-32"/>
       <use xlink:href="#DejaVuSans-30" x="63.623047"/>
       <use xlink:href="#DejaVuSans-32" x="127.246094"/>
       <use xlink:href="#DejaVuSans-32" x="190.869141"/>
       <use xlink:href="#DejaVuSans-2d" x="254.492188"/>
       <use xlink:href="#DejaVuSans-30" x="290.576172"/>
       <use xlink:href="#DejaVuSans-37" x="354.199219"/>
       <use xlink:href="#DejaVuSans-2d" x="417.822266"/>
       <use xlink:href="#DejaVuSans-32" x="453.90625"/>
       <use xlink:href="#DejaVuSans-38" x="517.529297"/>
      </g>
     </g>
    </g>
    <g id="xtick_16">
     <g id="line2d_16">
      <g>
       <use xlink:href="#m28062e5bb9" x="641.420936" y="395.28" style="stroke: #000000; stroke-width: 0.8"/>
      </g>
     </g>
     <g id="text_16">
      <!-- 2022-08-25 -->
      <g transform="translate(556.291908 495.213718) rotate(-45) scale(0.2 -0.2)">
       <use xlink:href="#DejaVuSans-32"/>
       <use xlink:href="#DejaVuSans-30" x="63.623047"/>
       <use xlink:href="#DejaVuSans-32" x="127.246094"/>
       <use xlink:href="#DejaVuSans-32" x="190.869141"/>
       <use xlink:href="#DejaVuSans-2d" x="254.492188"/>
       <use xlink:href="#DejaVuSans-30" x="290.576172"/>
       <use xlink:href="#DejaVuSans-38" x="354.199219"/>
       <use xlink:href="#DejaVuSans-2d" x="417.822266"/>
       <use xlink:href="#DejaVuSans-32" x="453.90625"/>
       <use xlink:href="#DejaVuSans-35" x="517.529297"/>
      </g>
     </g>
    </g>
    <g id="xtick_17">
     <g id="line2d_17">
      <g>
       <use xlink:href="#m28062e5bb9" x="677.310675" y="395.28" style="stroke: #000000; stroke-width: 0.8"/>
      </g>
     </g>
     <g id="text_17">
      <!-- 2022-09-22 -->
      <g transform="translate(592.181648 495.213718) rotate(-45) scale(0.2 -0.2)">
       <use xlink:href="#DejaVuSans-32"/>
       <use xlink:href="#DejaVuSans-30" x="63.623047"/>
       <use xlink:href="#DejaVuSans-32" x="127.246094"/>
       <use xlink:href="#DejaVuSans-32" x="190.869141"/>
       <use xlink:href="#DejaVuSans-2d" x="254.492188"/>
       <use xlink:href="#DejaVuSans-30" x="290.576172"/>
       <use xlink:href="#DejaVuSans-39" x="354.199219"/>
       <use xlink:href="#DejaVuSans-2d" x="417.822266"/>
       <use xlink:href="#DejaVuSans-32" x="453.90625"/>
       <use xlink:href="#DejaVuSans-32" x="517.529297"/>
      </g>
     </g>
    </g>
    <g id="xtick_18">
     <g id="line2d_18">
      <g>
       <use xlink:href="#m28062e5bb9" x="713.200415" y="395.28" style="stroke: #000000; stroke-width: 0.8"/>
      </g>
     </g>
     <g id="text_18">
      <!-- 2022-10-20 -->
      <g transform="translate(628.071388 495.213718) rotate(-45) scale(0.2 -0.2)">
       <use xlink:href="#DejaVuSans-32"/>
       <use xlink:href="#DejaVuSans-30" x="63.623047"/>
       <use xlink:href="#DejaVuSans-32" x="127.246094"/>
       <use xlink:href="#DejaVuSans-32" x="190.869141"/>
       <use xlink:href="#DejaVuSans-2d" x="254.492188"/>
       <use xlink:href="#DejaVuSans-31" x="290.576172"/>
       <use xlink:href="#DejaVuSans-30" x="354.199219"/>
       <use xlink:href="#DejaVuSans-2d" x="417.822266"/>
       <use xlink:href="#DejaVuSans-32" x="453.90625"/>
       <use xlink:href="#DejaVuSans-30" x="517.529297"/>
      </g>
     </g>
    </g>
    <g id="xtick_19">
     <g id="line2d_19">
      <g>
       <use xlink:href="#m28062e5bb9" x="749.090155" y="395.28" style="stroke: #000000; stroke-width: 0.8"/>
      </g>
     </g>
     <g id="text_19">
      <!-- 2022-11-17 -->
      <g transform="translate(663.961127 495.213718) rotate(-45) scale(0.2 -0.2)">
       <use xlink:href="#DejaVuSans-32"/>
       <use xlink:href="#DejaVuSans-30" x="63.623047"/>
       <use xlink:href="#DejaVuSans-32" x="127.246094"/>
       <use xlink:href="#DejaVuSans-32" x="190.869141"/>
       <use xlink:href="#DejaVuSans-2d" x="254.492188"/>
       <use xlink:href="#DejaVuSans-31" x="290.576172"/>
       <use xlink:href="#DejaVuSans-31" x="354.199219"/>
       <use xlink:href="#DejaVuSans-2d" x="417.822266"/>
       <use xlink:href="#DejaVuSans-31" x="453.90625"/>
       <use xlink:href="#DejaVuSans-37" x="517.529297"/>
      </g>
     </g>
    </g>
    <g id="xtick_20">
     <g id="line2d_20">
      <g>
       <use xlink:href="#m28062e5bb9" x="784.979894" y="395.28" style="stroke: #000000; stroke-width: 0.8"/>
      </g>
     </g>
     <g id="text_20">
      <!-- 2022-12-15 -->
      <g transform="translate(699.850867 495.213718) rotate(-45) scale(0.2 -0.2)">
       <use xlink:href="#DejaVuSans-32"/>
       <use xlink:href="#DejaVuSans-30" x="63.623047"/>
       <use xlink:href="#DejaVuSans-32" x="127.246094"/>
       <use xlink:href="#DejaVuSans-32" x="190.869141"/>
       <use xlink:href="#DejaVuSans-2d" x="254.492188"/>
       <use xlink:href="#DejaVuSans-31" x="290.576172"/>
       <use xlink:href="#DejaVuSans-32" x="354.199219"/>
       <use xlink:href="#DejaVuSans-2d" x="417.822266"/>
       <use xlink:href="#DejaVuSans-31" x="453.90625"/>
       <use xlink:href="#DejaVuSans-35" x="517.529297"/>
      </g>
     </g>
    </g>
    <g id="xtick_21">
     <g id="line2d_21">
      <g>
       <use xlink:href="#m28062e5bb9" x="820.869634" y="395.28" style="stroke: #000000; stroke-width: 0.8"/>
      </g>
     </g>
     <g id="text_21">
      <!-- 2023-01-12 -->
      <g transform="translate(735.740607 495.213718) rotate(-45) scale(0.2 -0.2)">
       <use xlink:href="#DejaVuSans-32"/>
       <use xlink:href="#DejaVuSans-30" x="63.623047"/>
       <use xlink:href="#DejaVuSans-32" x="127.246094"/>
       <use xlink:href="#DejaVuSans-33" x="190.869141"/>
       <use xlink:href="#DejaVuSans-2d" x="254.492188"/>
       <use xlink:href="#DejaVuSans-30" x="290.576172"/>
       <use xlink:href="#DejaVuSans-31" x="354.199219"/>
       <use xlink:href="#DejaVuSans-2d" x="417.822266"/>
       <use xlink:href="#DejaVuSans-31" x="453.90625"/>
       <use xlink:href="#DejaVuSans-32" x="517.529297"/>
      </g>
     </g>
    </g>
    <g id="xtick_22">
     <g id="line2d_22">
      <g>
       <use xlink:href="#m28062e5bb9" x="856.759374" y="395.28" style="stroke: #000000; stroke-width: 0.8"/>
      </g>
     </g>
     <g id="text_22">
      <!-- 2023-02-09 -->
      <g transform="translate(771.630346 495.213718) rotate(-45) scale(0.2 -0.2)">
       <use xlink:href="#DejaVuSans-32"/>
       <use xlink:href="#DejaVuSans-30" x="63.623047"/>
       <use xlink:href="#DejaVuSans-32" x="127.246094"/>
       <use xlink:href="#DejaVuSans-33" x="190.869141"/>
       <use xlink:href="#DejaVuSans-2d" x="254.492188"/>
       <use xlink:href="#DejaVuSans-30" x="290.576172"/>
       <use xlink:href="#DejaVuSans-32" x="354.199219"/>
       <use xlink:href="#DejaVuSans-2d" x="417.822266"/>
       <use xlink:href="#DejaVuSans-30" x="453.90625"/>
       <use xlink:href="#DejaVuSans-39" x="517.529297"/>
      </g>
     </g>
    </g>
    <g id="xtick_23">
     <g id="line2d_23">
      <g>
       <use xlink:href="#m28062e5bb9" x="892.649113" y="395.28" style="stroke: #000000; stroke-width: 0.8"/>
      </g>
     </g>
     <g id="text_23">
      <!-- 2023-03-09 -->
      <g transform="translate(807.520086 495.213718) rotate(-45) scale(0.2 -0.2)">
       <use xlink:href="#DejaVuSans-32"/>
       <use xlink:href="#DejaVuSans-30" x="63.623047"/>
       <use xlink:href="#DejaVuSans-32" x="127.246094"/>
       <use xlink:href="#DejaVuSans-33" x="190.869141"/>
       <use xlink:href="#DejaVuSans-2d" x="254.492188"/>
       <use xlink:href="#DejaVuSans-30" x="290.576172"/>
       <use xlink:href="#DejaVuSans-33" x="354.199219"/>
       <use xlink:href="#DejaVuSans-2d" x="417.822266"/>
       <use xlink:href="#DejaVuSans-30" x="453.90625"/>
       <use xlink:href="#DejaVuSans-39" x="517.529297"/>
      </g>
     </g>
    </g>
    <g id="xtick_24">
     <g id="line2d_24">
      <g>
       <use xlink:href="#m28062e5bb9" x="928.538853" y="395.28" style="stroke: #000000; stroke-width: 0.8"/>
      </g>
     </g>
     <g id="text_24">
      <!-- 2023-04-06 -->
      <g transform="translate(843.409826 495.213718) rotate(-45) scale(0.2 -0.2)">
       <use xlink:href="#DejaVuSans-32"/>
       <use xlink:href="#DejaVuSans-30" x="63.623047"/>
       <use xlink:href="#DejaVuSans-32" x="127.246094"/>
       <use xlink:href="#DejaVuSans-33" x="190.869141"/>
       <use xlink:href="#DejaVuSans-2d" x="254.492188"/>
       <use xlink:href="#DejaVuSans-30" x="290.576172"/>
       <use xlink:href="#DejaVuSans-34" x="354.199219"/>
       <use xlink:href="#DejaVuSans-2d" x="417.822266"/>
       <use xlink:href="#DejaVuSans-30" x="453.90625"/>
       <use xlink:href="#DejaVuSans-36" x="517.529297"/>
      </g>
     </g>
    </g>
    <g id="xtick_25">
     <g id="line2d_25">
      <g>
       <use xlink:href="#m28062e5bb9" x="940.074841" y="395.28" style="stroke: #000000; stroke-width: 0.8"/>
      </g>
     </g>
     <g id="text_25">
      <!-- 2023-04-15 -->
      <g transform="translate(854.945813 495.213718) rotate(-45) scale(0.2 -0.2)">
       <use xlink:href="#DejaVuSans-32"/>
       <use xlink:href="#DejaVuSans-30" x="63.623047"/>
       <use xlink:href="#DejaVuSans-32" x="127.246094"/>
       <use xlink:href="#DejaVuSans-33" x="190.869141"/>
       <use xlink:href="#DejaVuSans-2d" x="254.492188"/>
       <use xlink:href="#DejaVuSans-30" x="290.576172"/>
       <use xlink:href="#DejaVuSans-34" x="354.199219"/>
       <use xlink:href="#DejaVuSans-2d" x="417.822266"/>
       <use xlink:href="#DejaVuSans-31" x="453.90625"/>
       <use xlink:href="#DejaVuSans-35" x="517.529297"/>
      </g>
     </g>
    </g>
   </g>
   <g id="matplotlib.axis_2">
    <g id="ytick_1">
     <g id="line2d_26">
      <defs>
       <path id="m4d55506490" d="M 0 0 
L -3.5 0 
" style="stroke: #000000; stroke-width: 0.8"/>
      </defs>
      <g>
       <use xlink:href="#m4d55506490" x="103.074841" y="387.666936" style="stroke: #000000; stroke-width: 0.8"/>
      </g>
     </g>
     <g id="text_26">
      <!-- 0.05 -->
      <g transform="translate(34.784216 395.265373) scale(0.2 -0.2)">
       <defs>
        <path id="DejaVuSans-2212" d="M 678 2272 
L 4684 2272 
L 4684 1741 
L 678 1741 
L 678 2272 
z
" transform="scale(0.015625)"/>
        <path id="DejaVuSans-2e" d="M 684 794 
L 1344 794 
L 1344 0 
L 684 0 
L 684 794 
z
" transform="scale(0.015625)"/>
       </defs>
       <use xlink:href="#DejaVuSans-2212"/>
       <use xlink:href="#DejaVuSans-30" x="83.789062"/>
       <use xlink:href="#DejaVuSans-2e" x="147.412109"/>
       <use xlink:href="#DejaVuSans-30" x="179.199219"/>
       <use xlink:href="#DejaVuSans-35" x="242.822266"/>
      </g>
     </g>
    </g>
    <g id="ytick_2">
     <g id="line2d_27">
      <g>
       <use xlink:href="#m4d55506490" x="103.074841" y="311.536293" style="stroke: #000000; stroke-width: 0.8"/>
      </g>
     </g>
     <g id="text_27">
      <!-- 0.00 -->
      <g transform="translate(51.543591 319.13473) scale(0.2 -0.2)">
       <use xlink:href="#DejaVuSans-30"/>
       <use xlink:href="#DejaVuSans-2e" x="63.623047"/>
       <use xlink:href="#DejaVuSans-30" x="95.410156"/>
       <use xlink:href="#DejaVuSans-30" x="159.033203"/>
      </g>
     </g>
    </g>
    <g id="ytick_3">
     <g id="line2d_28">
      <g>
       <use xlink:href="#m4d55506490" x="103.074841" y="235.405649" style="stroke: #000000; stroke-width: 0.8"/>
      </g>
     </g>
     <g id="text_28">
      <!-- 0.05 -->
      <g transform="translate(51.543591 243.004087) scale(0.2 -0.2)">
       <use xlink:href="#DejaVuSans-30"/>
       <use xlink:href="#DejaVuSans-2e" x="63.623047"/>
       <use xlink:href="#DejaVuSans-30" x="95.410156"/>
       <use xlink:href="#DejaVuSans-35" x="159.033203"/>
      </g>
     </g>
    </g>
    <g id="ytick_4">
     <g id="line2d_29">
      <g>
       <use xlink:href="#m4d55506490" x="103.074841" y="159.275006" style="stroke: #000000; stroke-width: 0.8"/>
      </g>
     </g>
     <g id="text_29">
      <!-- 0.10 -->
      <g transform="translate(51.543591 166.873444) scale(0.2 -0.2)">
       <use xlink:href="#DejaVuSans-30"/>
       <use xlink:href="#DejaVuSans-2e" x="63.623047"/>
       <use xlink:href="#DejaVuSans-31" x="95.410156"/>
       <use xlink:href="#DejaVuSans-30" x="159.033203"/>
      </g>
     </g>
    </g>
    <g id="ytick_5">
     <g id="line2d_30">
      <g>
       <use xlink:href="#m4d55506490" x="103.074841" y="83.144363" style="stroke: #000000; stroke-width: 0.8"/>
      </g>
     </g>
     <g id="text_30">
      <!-- 0.15 -->
      <g transform="translate(51.543591 90.7428) scale(0.2 -0.2)">
       <use xlink:href="#DejaVuSans-30"/>
       <use xlink:href="#DejaVuSans-2e" x="63.623047"/>
       <use xlink:href="#DejaVuSans-31" x="95.410156"/>
       <use xlink:href="#DejaVuSans-35" x="159.033203"/>
      </g>
     </g>
    </g>
    <g id="text_31">
     <!-- Relative fitness $\gamma_y$ -->
     <g transform="translate(24.584216 291.84) rotate(-90) scale(0.2 -0.2)">
      <defs>
       <path id="DejaVuSans-52" d="M 2841 2188 
Q 3044 2119 3236 1894 
Q 3428 1669 3622 1275 
L 4263 0 
L 3584 0 
L 2988 1197 
Q 2756 1666 2539 1819 
Q 2322 1972 1947 1972 
L 1259 1972 
L 1259 0 
L 628 0 
L 628 4666 
L 2053 4666 
Q 2853 4666 3247 4331 
Q 3641 3997 3641 3322 
Q 3641 2881 3436 2590 
Q 3231 2300 2841 2188 
z
M 1259 4147 
L 1259 2491 
L 2053 2491 
Q 2509 2491 2742 2702 
Q 2975 2913 2975 3322 
Q 2975 3731 2742 3939 
Q 2509 4147 2053 4147 
L 1259 4147 
z
" transform="scale(0.015625)"/>
       <path id="DejaVuSans-65" d="M 3597 1894 
L 3597 1613 
L 953 1613 
Q 991 1019 1311 708 
Q 1631 397 2203 397 
Q 2534 397 2845 478 
Q 3156 559 3463 722 
L 3463 178 
Q 3153 47 2828 -22 
Q 2503 -91 2169 -91 
Q 1331 -91 842 396 
Q 353 884 353 1716 
Q 353 2575 817 3079 
Q 1281 3584 2069 3584 
Q 2775 3584 3186 3129 
Q 3597 2675 3597 1894 
z
M 3022 2063 
Q 3016 2534 2758 2815 
Q 2500 3097 2075 3097 
Q 1594 3097 1305 2825 
Q 1016 2553 972 2059 
L 3022 2063 
z
" transform="scale(0.015625)"/>
       <path id="DejaVuSans-6c" d="M 603 4863 
L 1178 4863 
L 1178 0 
L 603 0 
L 603 4863 
z
" transform="scale(0.015625)"/>
       <path id="DejaVuSans-61" d="M 2194 1759 
Q 1497 1759 1228 1600 
Q 959 1441 959 1056 
Q 959 750 1161 570 
Q 1363 391 1709 391 
Q 2188 391 2477 730 
Q 2766 1069 2766 1631 
L 2766 1759 
L 2194 1759 
z
M 3341 1997 
L 3341 0 
L 2766 0 
L 2766 531 
Q 2569 213 2275 61 
Q 1981 -91 1556 -91 
Q 1019 -91 701 211 
Q 384 513 384 1019 
Q 384 1609 779 1909 
Q 1175 2209 1959 2209 
L 2766 2209 
L 2766 2266 
Q 2766 2663 2505 2880 
Q 2244 3097 1772 3097 
Q 1472 3097 1187 3025 
Q 903 2953 641 2809 
L 641 3341 
Q 956 3463 1253 3523 
Q 1550 3584 1831 3584 
Q 2591 3584 2966 3190 
Q 3341 2797 3341 1997 
z
" transform="scale(0.015625)"/>
       <path id="DejaVuSans-74" d="M 1172 4494 
L 1172 3500 
L 2356 3500 
L 2356 3053 
L 1172 3053 
L 1172 1153 
Q 1172 725 1289 603 
Q 1406 481 1766 481 
L 2356 481 
L 2356 0 
L 1766 0 
Q 1100 0 847 248 
Q 594 497 594 1153 
L 594 3053 
L 172 3053 
L 172 3500 
L 594 3500 
L 594 4494 
L 1172 4494 
z
" transform="scale(0.015625)"/>
       <path id="DejaVuSans-69" d="M 603 3500 
L 1178 3500 
L 1178 0 
L 603 0 
L 603 3500 
z
M 603 4863 
L 1178 4863 
L 1178 4134 
L 603 4134 
L 603 4863 
z
" transform="scale(0.015625)"/>
       <path id="DejaVuSans-76" d="M 191 3500 
L 800 3500 
L 1894 563 
L 2988 3500 
L 3597 3500 
L 2284 0 
L 1503 0 
L 191 3500 
z
" transform="scale(0.015625)"/>
       <path id="DejaVuSans-20" transform="scale(0.015625)"/>
       <path id="DejaVuSans-66" d="M 2375 4863 
L 2375 4384 
L 1825 4384 
Q 1516 4384 1395 4259 
Q 1275 4134 1275 3809 
L 1275 3500 
L 2222 3500 
L 2222 3053 
L 1275 3053 
L 1275 0 
L 697 0 
L 697 3053 
L 147 3053 
L 147 3500 
L 697 3500 
L 697 3744 
Q 697 4328 969 4595 
Q 1241 4863 1831 4863 
L 2375 4863 
z
" transform="scale(0.015625)"/>
       <path id="DejaVuSans-6e" d="M 3513 2113 
L 3513 0 
L 2938 0 
L 2938 2094 
Q 2938 2591 2744 2837 
Q 2550 3084 2163 3084 
Q 1697 3084 1428 2787 
Q 1159 2491 1159 1978 
L 1159 0 
L 581 0 
L 581 3500 
L 1159 3500 
L 1159 2956 
Q 1366 3272 1645 3428 
Q 1925 3584 2291 3584 
Q 2894 3584 3203 3211 
Q 3513 2838 3513 2113 
z
" transform="scale(0.015625)"/>
       <path id="DejaVuSans-73" d="M 2834 3397 
L 2834 2853 
Q 2591 2978 2328 3040 
Q 2066 3103 1784 3103 
Q 1356 3103 1142 2972 
Q 928 2841 928 2578 
Q 928 2378 1081 2264 
Q 1234 2150 1697 2047 
L 1894 2003 
Q 2506 1872 2764 1633 
Q 3022 1394 3022 966 
Q 3022 478 2636 193 
Q 2250 -91 1575 -91 
Q 1294 -91 989 -36 
Q 684 19 347 128 
L 347 722 
Q 666 556 975 473 
Q 1284 391 1588 391 
Q 1994 391 2212 530 
Q 2431 669 2431 922 
Q 2431 1156 2273 1281 
Q 2116 1406 1581 1522 
L 1381 1569 
Q 847 1681 609 1914 
Q 372 2147 372 2553 
Q 372 3047 722 3315 
Q 1072 3584 1716 3584 
Q 2034 3584 2315 3537 
Q 2597 3491 2834 3397 
z
" transform="scale(0.015625)"/>
       <path id="DejaVuSans-Oblique-3b3" d="M 1491 2950 
L 1838 788 
L 3456 3500 
L 4066 3500 
L 1972 0 
L 1713 -1331 
L 1138 -1331 
L 1397 0 
L 988 2613 
Q 925 3006 628 3006 
L 475 3006 
L 569 3500 
L 788 3500 
Q 1403 3500 1491 2950 
z
" transform="scale(0.015625)"/>
       <path id="DejaVuSans-Oblique-79" d="M 1588 -325 
Q 1188 -997 936 -1164 
Q 684 -1331 294 -1331 
L -159 -1331 
L -63 -850 
L 269 -850 
Q 509 -850 678 -719 
Q 847 -588 1056 -206 
L 1234 128 
L 459 3500 
L 1069 3500 
L 1650 819 
L 3256 3500 
L 3859 3500 
L 1588 -325 
z
" transform="scale(0.015625)"/>
      </defs>
      <use xlink:href="#DejaVuSans-52" transform="translate(0 0.015625)"/>
      <use xlink:href="#DejaVuSans-65" transform="translate(69.482422 0.015625)"/>
      <use xlink:href="#DejaVuSans-6c" transform="translate(131.005859 0.015625)"/>
      <use xlink:href="#DejaVuSans-61" transform="translate(158.789062 0.015625)"/>
      <use xlink:href="#DejaVuSans-74" transform="translate(220.068359 0.015625)"/>
      <use xlink:href="#DejaVuSans-69" transform="translate(259.277344 0.015625)"/>
      <use xlink:href="#DejaVuSans-76" transform="translate(287.060547 0.015625)"/>
      <use xlink:href="#DejaVuSans-65" transform="translate(346.240234 0.015625)"/>
      <use xlink:href="#DejaVuSans-20" transform="translate(407.763672 0.015625)"/>
      <use xlink:href="#DejaVuSans-66" transform="translate(439.550781 0.015625)"/>
      <use xlink:href="#DejaVuSans-69" transform="translate(474.755859 0.015625)"/>
      <use xlink:href="#DejaVuSans-74" transform="translate(502.539062 0.015625)"/>
      <use xlink:href="#DejaVuSans-6e" transform="translate(541.748047 0.015625)"/>
      <use xlink:href="#DejaVuSans-65" transform="translate(605.126953 0.015625)"/>
      <use xlink:href="#DejaVuSans-73" transform="translate(666.650391 0.015625)"/>
      <use xlink:href="#DejaVuSans-73" transform="translate(718.75 0.015625)"/>
      <use xlink:href="#DejaVuSans-20" transform="translate(770.849609 0.015625)"/>
      <use xlink:href="#DejaVuSans-Oblique-3b3" transform="translate(802.636719 0.015625)"/>
      <use xlink:href="#DejaVuSans-Oblique-79" transform="translate(861.816406 -16.390625) scale(0.7)"/>
     </g>
    </g>
   </g>
   <g id="line2d_31">
    <path d="M 103.074841 311.536293 
L 1041.965466 311.536293 
" clip-path="url(#p07400e4c04)" style="fill: none; stroke-dasharray: 7.4,3.2; stroke-dashoffset: 0; stroke: #000000; stroke-width: 2"/>
   </g>
   <g id="patch_3">
    <path d="M 103.074841 395.28 
L 103.074841 7.2 
" style="fill: none; stroke: #000000; stroke-width: 0.8; stroke-linejoin: miter; stroke-linecap: square"/>
   </g>
   <g id="patch_4">
    <path d="M 940.074841 395.28 
L 940.074841 7.2 
" style="fill: none; stroke: #000000; stroke-width: 0.8; stroke-linejoin: miter; stroke-linecap: square"/>
   </g>
   <g id="patch_5">
    <path d="M 103.074841 395.28 
L 940.074841 395.28 
" style="fill: none; stroke: #000000; stroke-width: 0.8; stroke-linejoin: miter; stroke-linecap: square"/>
   </g>
   <g id="patch_6">
    <path d="M 103.074841 7.2 
L 940.074841 7.2 
" style="fill: none; stroke: #000000; stroke-width: 0.8; stroke-linejoin: miter; stroke-linecap: square"/>
   </g>
  </g>
  <g id="axes_2">
   <g id="matplotlib.axis_3">
    <g id="ytick_6">
     <g id="line2d_32">
      <defs>
       <path id="m72ba0eb1b1" d="M 0 0 
L 3.5 0 
" style="stroke: #000000; stroke-width: 0.8"/>
      </defs>
      <g>
       <use xlink:href="#m72ba0eb1b1" x="940.074841" y="387.666936" style="stroke: #000000; stroke-width: 0.8"/>
      </g>
     </g>
     <g id="text_32">
      <!-- 0.05 -->
      <g transform="translate(947.074841 395.265373) scale(0.2 -0.2)">
       <use xlink:href="#DejaVuSans-2212"/>
       <use xlink:href="#DejaVuSans-30" x="83.789062"/>
       <use xlink:href="#DejaVuSans-2e" x="147.412109"/>
       <use xlink:href="#DejaVuSans-30" x="179.199219"/>
       <use xlink:href="#DejaVuSans-35" x="242.822266"/>
      </g>
     </g>
    </g>
    <g id="ytick_7">
     <g id="line2d_33">
      <g>
       <use xlink:href="#m72ba0eb1b1" x="940.074841" y="311.536293" style="stroke: #000000; stroke-width: 0.8"/>
      </g>
     </g>
     <g id="text_33">
      <!-- 0.00 -->
      <g transform="translate(947.074841 319.13473) scale(0.2 -0.2)">
       <use xlink:href="#DejaVuSans-30"/>
       <use xlink:href="#DejaVuSans-2e" x="63.623047"/>
       <use xlink:href="#DejaVuSans-30" x="95.410156"/>
       <use xlink:href="#DejaVuSans-30" x="159.033203"/>
      </g>
     </g>
    </g>
    <g id="ytick_8">
     <g id="line2d_34">
      <g>
       <use xlink:href="#m72ba0eb1b1" x="940.074841" y="235.405649" style="stroke: #000000; stroke-width: 0.8"/>
      </g>
     </g>
     <g id="text_34">
      <!-- 0.05 -->
      <g transform="translate(947.074841 243.004087) scale(0.2 -0.2)">
       <use xlink:href="#DejaVuSans-30"/>
       <use xlink:href="#DejaVuSans-2e" x="63.623047"/>
       <use xlink:href="#DejaVuSans-30" x="95.410156"/>
       <use xlink:href="#DejaVuSans-35" x="159.033203"/>
      </g>
     </g>
    </g>
    <g id="ytick_9">
     <g id="line2d_35">
      <g>
       <use xlink:href="#m72ba0eb1b1" x="940.074841" y="159.275006" style="stroke: #000000; stroke-width: 0.8"/>
      </g>
     </g>
     <g id="text_35">
      <!-- 0.10 -->
      <g transform="translate(947.074841 166.873444) scale(0.2 -0.2)">
       <use xlink:href="#DejaVuSans-30"/>
       <use xlink:href="#DejaVuSans-2e" x="63.623047"/>
       <use xlink:href="#DejaVuSans-31" x="95.410156"/>
       <use xlink:href="#DejaVuSans-30" x="159.033203"/>
      </g>
     </g>
    </g>
    <g id="ytick_10">
     <g id="line2d_36">
      <g>
       <use xlink:href="#m72ba0eb1b1" x="940.074841" y="83.144363" style="stroke: #000000; stroke-width: 0.8"/>
      </g>
     </g>
     <g id="text_36">
      <!-- 0.15 -->
      <g transform="translate(947.074841 90.7428) scale(0.2 -0.2)">
       <use xlink:href="#DejaVuSans-30"/>
       <use xlink:href="#DejaVuSans-2e" x="63.623047"/>
       <use xlink:href="#DejaVuSans-31" x="95.410156"/>
       <use xlink:href="#DejaVuSans-35" x="159.033203"/>
      </g>
     </g>
    </g>
    <g id="text_37">
     <!-- Change in proportion $\gamma_{prop}$ -->
     <g transform="translate(1027.565466 332.74) rotate(-90) scale(0.2 -0.2)">
      <defs>
       <path id="DejaVuSans-43" d="M 4122 4306 
L 4122 3641 
Q 3803 3938 3442 4084 
Q 3081 4231 2675 4231 
Q 1875 4231 1450 3742 
Q 1025 3253 1025 2328 
Q 1025 1406 1450 917 
Q 1875 428 2675 428 
Q 3081 428 3442 575 
Q 3803 722 4122 1019 
L 4122 359 
Q 3791 134 3420 21 
Q 3050 -91 2638 -91 
Q 1578 -91 968 557 
Q 359 1206 359 2328 
Q 359 3453 968 4101 
Q 1578 4750 2638 4750 
Q 3056 4750 3426 4639 
Q 3797 4528 4122 4306 
z
" transform="scale(0.015625)"/>
       <path id="DejaVuSans-68" d="M 3513 2113 
L 3513 0 
L 2938 0 
L 2938 2094 
Q 2938 2591 2744 2837 
Q 2550 3084 2163 3084 
Q 1697 3084 1428 2787 
Q 1159 2491 1159 1978 
L 1159 0 
L 581 0 
L 581 4863 
L 1159 4863 
L 1159 2956 
Q 1366 3272 1645 3428 
Q 1925 3584 2291 3584 
Q 2894 3584 3203 3211 
Q 3513 2838 3513 2113 
z
" transform="scale(0.015625)"/>
       <path id="DejaVuSans-67" d="M 2906 1791 
Q 2906 2416 2648 2759 
Q 2391 3103 1925 3103 
Q 1463 3103 1205 2759 
Q 947 2416 947 1791 
Q 947 1169 1205 825 
Q 1463 481 1925 481 
Q 2391 481 2648 825 
Q 2906 1169 2906 1791 
z
M 3481 434 
Q 3481 -459 3084 -895 
Q 2688 -1331 1869 -1331 
Q 1566 -1331 1297 -1286 
Q 1028 -1241 775 -1147 
L 775 -588 
Q 1028 -725 1275 -790 
Q 1522 -856 1778 -856 
Q 2344 -856 2625 -561 
Q 2906 -266 2906 331 
L 2906 616 
Q 2728 306 2450 153 
Q 2172 0 1784 0 
Q 1141 0 747 490 
Q 353 981 353 1791 
Q 353 2603 747 3093 
Q 1141 3584 1784 3584 
Q 2172 3584 2450 3431 
Q 2728 3278 2906 2969 
L 2906 3500 
L 3481 3500 
L 3481 434 
z
" transform="scale(0.015625)"/>
       <path id="DejaVuSans-70" d="M 1159 525 
L 1159 -1331 
L 581 -1331 
L 581 3500 
L 1159 3500 
L 1159 2969 
Q 1341 3281 1617 3432 
Q 1894 3584 2278 3584 
Q 2916 3584 3314 3078 
Q 3713 2572 3713 1747 
Q 3713 922 3314 415 
Q 2916 -91 2278 -91 
Q 1894 -91 1617 61 
Q 1341 213 1159 525 
z
M 3116 1747 
Q 3116 2381 2855 2742 
Q 2594 3103 2138 3103 
Q 1681 3103 1420 2742 
Q 1159 2381 1159 1747 
Q 1159 1113 1420 752 
Q 1681 391 2138 391 
Q 2594 391 2855 752 
Q 3116 1113 3116 1747 
z
" transform="scale(0.015625)"/>
       <path id="DejaVuSans-72" d="M 2631 2963 
Q 2534 3019 2420 3045 
Q 2306 3072 2169 3072 
Q 1681 3072 1420 2755 
Q 1159 2438 1159 1844 
L 1159 0 
L 581 0 
L 581 3500 
L 1159 3500 
L 1159 2956 
Q 1341 3275 1631 3429 
Q 1922 3584 2338 3584 
Q 2397 3584 2469 3576 
Q 2541 3569 2628 3553 
L 2631 2963 
z
" transform="scale(0.015625)"/>
       <path id="DejaVuSans-6f" d="M 1959 3097 
Q 1497 3097 1228 2736 
Q 959 2375 959 1747 
Q 959 1119 1226 758 
Q 1494 397 1959 397 
Q 2419 397 2687 759 
Q 2956 1122 2956 1747 
Q 2956 2369 2687 2733 
Q 2419 3097 1959 3097 
z
M 1959 3584 
Q 2709 3584 3137 3096 
Q 3566 2609 3566 1747 
Q 3566 888 3137 398 
Q 2709 -91 1959 -91 
Q 1206 -91 779 398 
Q 353 888 353 1747 
Q 353 2609 779 3096 
Q 1206 3584 1959 3584 
z
" transform="scale(0.015625)"/>
       <path id="DejaVuSans-Oblique-70" d="M 3175 2156 
Q 3175 2616 2975 2859 
Q 2775 3103 2400 3103 
Q 2144 3103 1911 2972 
Q 1678 2841 1497 2591 
Q 1319 2344 1212 1994 
Q 1106 1644 1106 1300 
Q 1106 863 1306 627 
Q 1506 391 1875 391 
Q 2147 391 2380 519 
Q 2613 647 2778 891 
Q 2956 1147 3065 1494 
Q 3175 1841 3175 2156 
z
M 1394 2969 
Q 1625 3272 1939 3428 
Q 2253 3584 2638 3584 
Q 3175 3584 3472 3232 
Q 3769 2881 3769 2247 
Q 3769 1728 3584 1258 
Q 3400 788 3053 416 
Q 2822 169 2531 39 
Q 2241 -91 1919 -91 
Q 1547 -91 1294 64 
Q 1041 219 916 525 
L 556 -1331 
L -19 -1331 
L 922 3500 
L 1497 3500 
L 1394 2969 
z
" transform="scale(0.015625)"/>
       <path id="DejaVuSans-Oblique-72" d="M 2853 2969 
Q 2766 3016 2653 3041 
Q 2541 3066 2413 3066 
Q 1953 3066 1609 2717 
Q 1266 2369 1153 1784 
L 800 0 
L 225 0 
L 909 3500 
L 1484 3500 
L 1375 2956 
Q 1603 3259 1920 3421 
Q 2238 3584 2597 3584 
Q 2691 3584 2781 3573 
Q 2872 3563 2963 3538 
L 2853 2969 
z
" transform="scale(0.015625)"/>
       <path id="DejaVuSans-Oblique-6f" d="M 1625 -91 
Q 1009 -91 651 289 
Q 294 669 294 1325 
Q 294 1706 417 2101 
Q 541 2497 738 2766 
Q 1047 3184 1428 3384 
Q 1809 3584 2291 3584 
Q 2888 3584 3255 3212 
Q 3622 2841 3622 2241 
Q 3622 1825 3500 1412 
Q 3378 1000 3181 728 
Q 2875 309 2494 109 
Q 2113 -91 1625 -91 
z
M 891 1344 
Q 891 869 1089 633 
Q 1288 397 1691 397 
Q 2269 397 2648 901 
Q 3028 1406 3028 2181 
Q 3028 2634 2825 2865 
Q 2622 3097 2228 3097 
Q 1903 3097 1650 2945 
Q 1397 2794 1197 2484 
Q 1050 2253 970 1956 
Q 891 1659 891 1344 
z
" transform="scale(0.015625)"/>
      </defs>
      <use xlink:href="#DejaVuSans-43" transform="translate(0 0.015625)"/>
      <use xlink:href="#DejaVuSans-68" transform="translate(69.824219 0.015625)"/>
      <use xlink:href="#DejaVuSans-61" transform="translate(133.203125 0.015625)"/>
      <use xlink:href="#DejaVuSans-6e" transform="translate(194.482422 0.015625)"/>
      <use xlink:href="#DejaVuSans-67" transform="translate(257.861328 0.015625)"/>
      <use xlink:href="#DejaVuSans-65" transform="translate(321.337891 0.015625)"/>
      <use xlink:href="#DejaVuSans-20" transform="translate(382.861328 0.015625)"/>
      <use xlink:href="#DejaVuSans-69" transform="translate(414.648438 0.015625)"/>
      <use xlink:href="#DejaVuSans-6e" transform="translate(442.431641 0.015625)"/>
      <use xlink:href="#DejaVuSans-20" transform="translate(505.810547 0.015625)"/>
      <use xlink:href="#DejaVuSans-70" transform="translate(537.597656 0.015625)"/>
      <use xlink:href="#DejaVuSans-72" transform="translate(601.074219 0.015625)"/>
      <use xlink:href="#DejaVuSans-6f" transform="translate(642.1875 0.015625)"/>
      <use xlink:href="#DejaVuSans-70" transform="translate(703.369141 0.015625)"/>
      <use xlink:href="#DejaVuSans-6f" transform="translate(766.845703 0.015625)"/>
      <use xlink:href="#DejaVuSans-72" transform="translate(828.027344 0.015625)"/>
      <use xlink:href="#DejaVuSans-74" transform="translate(869.140625 0.015625)"/>
      <use xlink:href="#DejaVuSans-69" transform="translate(908.349609 0.015625)"/>
      <use xlink:href="#DejaVuSans-6f" transform="translate(936.132812 0.015625)"/>
      <use xlink:href="#DejaVuSans-6e" transform="translate(997.314453 0.015625)"/>
      <use xlink:href="#DejaVuSans-20" transform="translate(1060.693359 0.015625)"/>
      <use xlink:href="#DejaVuSans-Oblique-3b3" transform="translate(1092.480469 0.015625)"/>
      <use xlink:href="#DejaVuSans-Oblique-70" transform="translate(1151.660156 -16.390625) scale(0.7)"/>
      <use xlink:href="#DejaVuSans-Oblique-72" transform="translate(1196.09375 -16.390625) scale(0.7)"/>
      <use xlink:href="#DejaVuSans-Oblique-6f" transform="translate(1224.873047 -16.390625) scale(0.7)"/>
      <use xlink:href="#DejaVuSans-Oblique-70" transform="translate(1267.700195 -16.390625) scale(0.7)"/>
     </g>
    </g>
   </g>
   <g id="line2d_37">
    <path d="M 940.074841 311.536293 
" clip-path="url(#p07400e4c04)" style="fill: none; stroke: #ffa500; stroke-width: 1.5; stroke-linecap: square"/>
   </g>
   <g id="patch_7">
    <path d="M 103.074841 395.28 
L 103.074841 7.2 
" style="fill: none; stroke: #000000; stroke-width: 0.8; stroke-linejoin: miter; stroke-linecap: square"/>
   </g>
   <g id="patch_8">
    <path d="M 940.074841 395.28 
L 940.074841 7.2 
" style="fill: none; stroke: #000000; stroke-width: 0.8; stroke-linejoin: miter; stroke-linecap: square"/>
   </g>
   <g id="patch_9">
    <path d="M 103.074841 395.28 
L 940.074841 395.28 
" style="fill: none; stroke: #000000; stroke-width: 0.8; stroke-linejoin: miter; stroke-linecap: square"/>
   </g>
   <g id="patch_10">
    <path d="M 103.074841 7.2 
L 940.074841 7.2 
" style="fill: none; stroke: #000000; stroke-width: 0.8; stroke-linejoin: miter; stroke-linecap: square"/>
   </g>
  </g>
 </g>
 <defs>
  <clipPath id="p07400e4c04">
   <rect x="103.074841" y="7.2" width="837" height="388.08"/>
  </clipPath>
 </defs>
</svg>
