<?xml version="1.0" encoding="utf-8" standalone="no"?>
<!DOCTYPE svg PUBLIC "-//W3C//DTD SVG 1.1//EN"
  "http://www.w3.org/Graphics/SVG/1.1/DTD/svg11.dtd">
<svg xmlns:xlink="http://www.w3.org/1999/xlink" width="1040.965466pt" height="505.354841pt" viewBox="0 0 1040.965466 505.354841" xmlns="http://www.w3.org/2000/svg" version="1.1">
 <metadata>
  <rdf:RDF xmlns:dc="http://purl.org/dc/elements/1.1/" xmlns:cc="http://creativecommons.org/ns#" xmlns:rdf="http://www.w3.org/1999/02/22-rdf-syntax-ns#">
   <cc:Work>
    <dc:type rdf:resource="http://purl.org/dc/dcmitype/StillImage"/>
    <dc:date>2023-11-29T15:47:42.476359</dc:date>
    <dc:format>image/svg+xml</dc:format>
    <dc:creator>
     <cc:Agent>
      <dc:title>Matplotlib v3.7.2, https://matplotlib.org/</dc:title>
     </cc:Agent>
    </dc:creator>
   </cc:Work>
  </rdf:RDF>
 </metadata>
 <defs>
  <style type="text/css">*{stroke-linejoin: round; stroke-linecap: butt}</style>
 </defs>
 <g id="figure_1">
  <g id="patch_1">
   <path d="M 0 505.354841 
L 1040.965466 505.354841 
L 1040.965466 -0 
L 0 -0 
z
" style="fill: #ffffff"/>
  </g>
  <g id="axes_1">
   <g id="patch_2">
    <path d="M 103.074841 395.28 
L 940.074841 395.28 
L 940.074841 7.2 
L 103.074841 7.2 
z
" style="fill: #ffffff"/>
   </g>
   <g id="PolyCollection_1">
    <path d="M -393.000769 222.656974 
L -393.000769 222.674864 
L -390.959306 222.583686 
L -388.917842 222.506025 
L -386.876379 222.406536 
L -384.834915 222.33446 
L -382.793452 222.257422 
L -380.751989 222.170206 
L -378.710525 222.083946 
L -376.669062 222.002916 
L -374.627598 221.934414 
L -372.586135 221.852833 
L -370.544672 221.763916 
L -368.503208 221.676162 
L -366.461745 221.577632 
L -364.420281 221.493453 
L -362.378818 221.39683 
L -360.337354 221.307585 
L -358.295891 221.196509 
L -356.254428 221.102129 
L -354.212964 221.010677 
L -352.171501 220.902584 
L -350.130037 220.79655 
L -348.088574 220.693583 
L -346.047111 220.571912 
L -344.005647 220.463662 
L -341.964184 220.333277 
L -339.92272 220.208845 
L -337.881257 220.064623 
L -335.839793 219.915403 
L -333.79833 219.772893 
L -331.756867 219.613052 
L -329.715403 219.426958 
L -327.67394 219.261534 
L -325.632476 219.073565 
L -323.591013 218.858971 
L -321.54955 218.6516 
L -319.508086 218.424299 
L -317.466623 218.185132 
L -315.425159 217.941264 
L -313.383696 217.677519 
L -311.342232 217.383054 
L -309.300769 217.083687 
L -307.259306 216.765504 
L -305.217842 216.44775 
L -303.176379 216.08728 
L -301.134915 215.739152 
L -299.093452 215.361205 
L -297.051989 214.995529 
L -295.010525 214.590238 
L -292.969062 214.158518 
L -290.927598 213.74841 
L -288.886135 213.311371 
L -286.844672 212.848765 
L -284.803208 212.395504 
L -282.761745 211.935256 
L -280.720281 211.453381 
L -278.678818 210.967058 
L -276.637354 210.476342 
L -274.595891 209.965081 
L -272.554428 209.447412 
L -270.512964 208.931592 
L -268.471501 208.39815 
L -266.430037 207.863563 
L -264.388574 207.329513 
L -262.347111 206.772633 
L -260.305647 206.201371 
L -258.264184 205.633432 
L -256.22272 205.066741 
L -254.181257 204.50495 
L -252.139793 203.927672 
L -250.09833 203.360274 
L -248.056867 202.782902 
L -246.015403 202.253422 
L -243.97394 201.646945 
L -241.932476 201.11525 
L -239.891013 200.517272 
L -237.84955 199.975873 
L -235.808086 199.397835 
L -233.766623 198.882899 
L -231.725159 198.2916 
L -229.683696 197.735522 
L -227.642232 197.215071 
L -225.600769 196.649805 
L -223.559306 196.12442 
L -221.517842 195.569874 
L -219.476379 195.007153 
L -217.434915 194.471591 
L -215.393452 193.946427 
L -213.351989 193.381142 
L -211.310525 192.837246 
L -209.269062 192.289152 
L -207.227598 191.750531 
L -205.186135 191.224346 
L -203.144672 190.683807 
L -201.103208 190.1379 
L -199.061745 189.645765 
L -197.020281 189.088862 
L -194.978818 188.555064 
L -192.937354 188.029837 
L -190.895891 187.503839 
L -188.854428 186.979017 
L -186.812964 186.447449 
L -184.771501 185.939921 
L -182.730037 185.412413 
L -180.688574 184.871873 
L -178.647111 184.325383 
L -176.605647 183.773005 
L -174.564184 183.255078 
L -172.52272 182.686285 
L -170.481257 182.080535 
L -168.439793 181.505575 
L -166.39833 180.910286 
L -164.356867 180.301116 
L -162.315403 179.65821 
L -160.27394 179.003965 
L -158.232476 178.394891 
L -156.191013 177.702136 
L -154.14955 177.04277 
L -152.108086 176.334055 
L -150.066623 175.681703 
L -148.025159 174.917136 
L -145.983696 174.167197 
L -143.942232 173.437819 
L -141.900769 172.695827 
L -139.859306 171.931383 
L -137.817842 171.132731 
L -135.776379 170.383363 
L -133.734915 169.52698 
L -131.693452 168.772219 
L -129.651989 167.890562 
L -127.610525 167.035991 
L -125.569062 166.201009 
L -123.527598 165.332967 
L -121.486135 164.431537 
L -119.444672 163.618028 
L -117.403208 162.548528 
L -115.361745 161.625961 
L -113.320281 160.765156 
L -111.278818 159.794241 
L -109.237354 158.776566 
L -107.195891 157.641727 
L -105.154428 156.579255 
L -103.112964 155.6791 
L -101.071501 154.266575 
L -99.030037 153.127354 
L -96.988574 151.963119 
L -94.947111 150.755658 
L -92.905647 149.382247 
L -90.864184 148.065426 
L -88.82272 147.084239 
L -86.781257 145.855296 
L -84.739793 143.810681 
L -82.69833 142.071472 
L -80.656867 140.766137 
L -78.615403 139.082608 
L -76.57394 137.481707 
L -74.532476 136.248349 
L -72.491013 134.280518 
L -70.44955 132.151039 
L -68.408086 130.679326 
L -66.366623 130.012816 
L -64.325159 128.453666 
L -62.283696 127.870712 
L -60.242232 126.89919 
L -58.200769 125.235898 
L -56.159306 125.176847 
L -54.117842 126.045721 
L -52.076379 127.650608 
L -50.034915 125.876362 
L -47.993452 129.257888 
L -45.951989 130.093736 
L -43.910525 125.426189 
L -41.869062 126.465924 
L -39.827598 128.755539 
L -37.786135 127.517835 
L -35.744672 127.269713 
L -33.703208 136.147491 
L -31.661745 148.958426 
L -29.620281 155.213298 
L -27.578818 141.328646 
L -25.537354 148.385076 
L -23.495891 157.732751 
L -21.454428 157.186968 
L -19.412964 176.119399 
L -17.371501 173.313662 
L -15.330037 167.527644 
L -13.288574 153.099051 
L -11.247111 166.680288 
L -9.205647 174.635256 
L -7.164184 171.387461 
L -5.12272 173.254295 
L -3.081257 180.908372 
L -1.039793 179.87362 
L 1.00167 173.215178 
L 3.043133 181.45031 
L 5.084597 183.048597 
L 7.12606 180.052813 
L 9.167524 185.319301 
L 11.208987 187.334251 
L 13.25045 186.583072 
L 15.291914 184.934768 
L 17.333377 186.625917 
L 19.374841 184.807357 
L 21.416304 184.918737 
L 23.457768 186.576248 
L 25.499231 184.916111 
L 27.540694 185.664154 
L 29.582158 185.675501 
L 31.623621 184.374062 
L 33.665085 184.787268 
L 35.706548 182.93438 
L 37.748011 183.010466 
L 39.789475 183.480578 
L 41.830938 183.462976 
L 43.872402 182.54232 
L 45.913865 181.751071 
L 47.955328 181.534463 
L 49.996792 180.668452 
L 52.038255 180.508336 
L 54.079719 180.312301 
L 56.121182 179.049927 
L 58.162646 179.623017 
L 60.204109 178.75013 
L 62.245572 178.360824 
L 64.287036 178.37578 
L 66.328499 177.561609 
L 68.369963 177.371829 
L 70.411426 177.650203 
L 72.452889 178.090725 
L 74.494353 176.770424 
L 76.535816 176.578954 
L 78.57728 176.155116 
L 80.618743 178.466149 
L 82.660207 178.599053 
L 84.70167 179.575992 
L 86.743133 177.408555 
L 88.784597 176.105622 
L 90.82606 176.578898 
L 92.867524 178.161531 
L 94.908987 178.489416 
L 96.95045 175.884988 
L 98.991914 178.267388 
L 101.033377 177.751942 
L 103.074841 177.539975 
L 105.116304 176.351966 
L 107.157768 177.460131 
L 109.199231 176.9726 
L 111.240694 177.655694 
L 113.282158 176.989423 
L 115.323621 176.473472 
L 117.365085 175.464237 
L 119.406548 175.043474 
L 121.448011 174.678195 
L 123.489475 174.112104 
L 125.530938 174.145992 
L 127.572402 173.663577 
L 129.613865 173.152945 
L 131.655328 171.49766 
L 133.696792 170.323086 
L 135.738255 169.875754 
L 137.779719 168.565093 
L 139.821182 168.451755 
L 141.862646 167.328739 
L 143.904109 165.583785 
L 145.945572 164.170704 
L 147.987036 163.17143 
L 150.028499 161.366003 
L 152.069963 160.269904 
L 154.111426 158.742306 
L 156.152889 157.312105 
L 158.194353 155.634615 
L 160.235816 154.093901 
L 162.27728 152.214721 
L 164.318743 150.674822 
L 166.360207 148.945791 
L 168.40167 146.707711 
L 170.443133 144.600174 
L 172.484597 143.100564 
L 174.52606 141.362426 
L 176.567524 139.227245 
L 178.608987 137.530379 
L 180.65045 135.333523 
L 182.691914 132.301444 
L 184.733377 130.802366 
L 186.774841 128.65253 
L 188.816304 126.722863 
L 190.857768 124.656055 
L 192.899231 122.018231 
L 194.940694 119.914849 
L 196.982158 117.529341 
L 199.023621 114.556937 
L 201.065085 112.882054 
L 203.106548 110.054563 
L 205.148011 108.149062 
L 207.189475 105.446657 
L 209.230938 102.336217 
L 211.272402 100.035096 
L 213.313865 98.128818 
L 215.355328 95.004705 
L 217.396792 92.699493 
L 219.438255 89.85778 
L 221.479719 87.625965 
L 223.521182 84.492951 
L 225.562646 81.792921 
L 227.604109 81.924329 
L 229.645572 76.74935 
L 231.687036 76.131873 
L 233.728499 72.978885 
L 235.769963 71.22833 
L 237.811426 68.505499 
L 239.852889 66.067567 
L 241.894353 63.785613 
L 243.935816 61.158941 
L 245.97728 59.424118 
L 248.018743 57.277134 
L 250.060207 59.012435 
L 252.10167 52.312268 
L 254.143133 50.942672 
L 256.184597 56.212128 
L 258.22606 48.683356 
L 260.267524 50.120764 
L 262.308987 49.531679 
L 264.35045 45.078527 
L 266.391914 45.647114 
L 268.433377 49.945411 
L 270.474841 46.976541 
L 272.516304 45.778178 
L 274.557768 47.856643 
L 276.599231 47.768911 
L 278.640694 48.792066 
L 280.682158 51.976075 
L 282.723621 56.365295 
L 284.765085 66.085817 
L 286.806548 63.735804 
L 288.848011 69.364398 
L 290.889475 73.409585 
L 292.930938 76.582192 
L 294.972402 81.263214 
L 297.013865 84.902466 
L 299.055328 78.565852 
L 301.096792 84.021604 
L 303.138255 93.084542 
L 305.179719 97.74195 
L 307.221182 98.91368 
L 309.262646 110.93454 
L 311.304109 113.097203 
L 313.345572 116.698579 
L 315.387036 115.321189 
L 317.428499 127.668333 
L 319.469963 123.92585 
L 321.511426 120.98807 
L 323.552889 132.183134 
L 325.594353 138.6063 
L 327.635816 138.228442 
L 329.67728 143.180268 
L 331.718743 144.751975 
L 333.760207 144.72581 
L 335.80167 144.534916 
L 337.843133 146.763767 
L 339.884597 149.047387 
L 341.92606 156.467893 
L 343.967524 151.741208 
L 346.008987 158.459452 
L 348.05045 157.151626 
L 350.091914 156.83988 
L 352.133377 159.226915 
L 354.174841 161.083476 
L 356.216304 158.066779 
L 358.257768 160.517699 
L 360.299231 160.938066 
L 362.340694 164.439344 
L 364.382158 162.968298 
L 366.423621 161.652133 
L 368.465085 163.71874 
L 370.506548 164.146306 
L 372.548011 163.640666 
L 374.589475 162.404126 
L 376.630938 163.673387 
L 378.672402 161.330797 
L 380.713865 161.489846 
L 382.755328 165.758645 
L 384.796792 165.588114 
L 386.838255 163.683356 
L 388.879719 163.541211 
L 390.921182 163.757693 
L 392.962646 161.240182 
L 395.004109 162.630073 
L 397.045572 162.806272 
L 399.087036 162.553083 
L 401.128499 162.295511 
L 403.169963 160.93929 
L 405.211426 162.451142 
L 407.252889 161.867684 
L 409.294353 161.54078 
L 411.335816 161.436597 
L 413.37728 161.29369 
L 415.418743 160.931685 
L 417.460207 158.985218 
L 419.50167 158.719624 
L 421.543133 157.683128 
L 423.584597 155.274742 
L 425.62606 157.82066 
L 427.667524 154.404722 
L 429.708987 155.816982 
L 431.75045 155.991043 
L 433.791914 156.317054 
L 435.833377 154.501309 
L 437.874841 154.558519 
L 439.916304 155.034879 
L 441.957768 151.863436 
L 443.999231 153.177883 
L 446.040694 152.807824 
L 448.082158 153.513966 
L 450.123621 151.533537 
L 452.165085 152.524304 
L 454.206548 152.106009 
L 456.248011 149.607107 
L 458.289475 148.939833 
L 460.330938 148.213392 
L 462.372402 148.146452 
L 464.413865 146.979121 
L 466.455328 146.992539 
L 468.496792 146.546617 
L 470.538255 146.079917 
L 472.579719 145.700519 
L 474.621182 144.08277 
L 476.662646 145.606045 
L 478.704109 146.072013 
L 480.745572 144.839353 
L 482.787036 144.165459 
L 484.828499 142.074531 
L 486.869963 144.234912 
L 488.911426 144.340939 
L 490.952889 143.896721 
L 492.994353 143.110527 
L 495.035816 142.057226 
L 497.07728 140.99257 
L 499.118743 141.285234 
L 501.160207 140.840394 
L 503.20167 141.100711 
L 505.243133 139.461606 
L 507.284597 138.014146 
L 509.32606 140.065458 
L 511.367524 138.374513 
L 513.408987 138.273189 
L 515.45045 139.560645 
L 517.491914 135.630408 
L 519.533377 135.976085 
L 521.574841 137.156516 
L 523.616304 135.207171 
L 525.657768 137.821831 
L 527.699231 135.527226 
L 529.740694 133.433759 
L 531.782158 135.822176 
L 533.823621 136.616044 
L 535.865085 135.258764 
L 537.906548 135.494225 
L 539.948011 135.319542 
L 541.989475 139.970447 
L 544.030938 139.474578 
L 546.072402 140.202024 
L 548.113865 137.812238 
L 550.155328 135.761333 
L 552.196792 139.23119 
L 554.238255 143.599505 
L 556.279719 140.795324 
L 558.321182 140.43575 
L 560.362646 138.642323 
L 562.404109 139.818374 
L 564.445572 141.344553 
L 566.487036 139.324467 
L 568.528499 139.302195 
L 570.569963 142.682795 
L 572.611426 141.191831 
L 574.652889 144.465576 
L 576.694353 145.512783 
L 578.735816 140.579901 
L 580.77728 141.646109 
L 582.818743 141.812366 
L 584.860207 143.181377 
L 586.90167 145.516646 
L 588.943133 150.698687 
L 590.984597 152.502106 
L 593.02606 152.190494 
L 595.067524 156.70775 
L 597.108987 165.363589 
L 599.15045 156.095484 
L 601.191914 153.950847 
L 603.233377 157.177155 
L 605.274841 160.163081 
L 607.316304 160.91184 
L 609.357768 159.917332 
L 611.399231 165.750192 
L 613.440694 169.573318 
L 615.482158 163.912838 
L 617.523621 170.155409 
L 619.565085 167.201991 
L 621.606548 167.302279 
L 623.648011 173.454687 
L 625.689475 173.835822 
L 627.730938 177.884569 
L 629.772402 178.582502 
L 631.813865 173.661998 
L 633.855328 178.241199 
L 635.896792 178.754545 
L 637.938255 183.25181 
L 639.979719 182.527066 
L 642.021182 187.402714 
L 644.062646 184.447998 
L 646.104109 187.390983 
L 648.145572 188.042741 
L 650.187036 191.43009 
L 652.228499 186.915533 
L 654.269963 192.845482 
L 656.311426 194.199088 
L 658.352889 197.2936 
L 660.394353 200.820858 
L 662.435816 200.699295 
L 664.47728 200.073571 
L 666.518743 203.682883 
L 668.560207 207.4091 
L 670.60167 205.524785 
L 672.643133 204.16766 
L 674.684597 207.516189 
L 676.72606 209.97997 
L 678.767524 206.314574 
L 680.808987 205.950584 
L 682.85045 213.838546 
L 684.891914 216.48816 
L 686.933377 209.578729 
L 688.974841 212.89921 
L 691.016304 214.399164 
L 693.057768 215.770893 
L 695.099231 220.254561 
L 697.140694 219.242343 
L 699.182158 217.465043 
L 701.223621 220.317302 
L 703.265085 221.429662 
L 705.306548 217.843534 
L 707.348011 219.52601 
L 709.389475 219.53654 
L 711.430938 227.04865 
L 713.472402 232.532955 
L 715.513865 233.027609 
L 717.555328 227.913048 
L 719.596792 225.528509 
L 721.638255 227.198061 
L 723.679719 227.782966 
L 725.721182 234.792622 
L 727.762646 227.505977 
L 729.804109 234.38972 
L 731.845572 239.072638 
L 733.887036 235.48951 
L 735.928499 243.063982 
L 737.969963 238.045573 
L 740.011426 241.519354 
L 742.052889 239.715945 
L 744.094353 242.757233 
L 746.135816 246.489071 
L 748.17728 245.203863 
L 750.218743 247.64599 
L 752.260207 247.640608 
L 754.30167 248.97735 
L 756.343133 240.544594 
L 758.384597 253.097395 
L 760.42606 259.266271 
L 762.467524 253.206139 
L 764.508987 257.250324 
L 766.55045 260.160201 
L 768.591914 257.439312 
L 770.633377 263.6505 
L 772.674841 269.495761 
L 774.716304 267.991235 
L 776.757768 271.01053 
L 778.799231 272.710572 
L 780.840694 274.863984 
L 782.882158 277.017091 
L 784.923621 268.691234 
L 786.965085 288.643693 
L 789.006548 290.111364 
L 791.048011 287.55473 
L 793.089475 275.988792 
L 795.130938 294.193956 
L 797.172402 307.323351 
L 799.213865 295.654443 
L 801.255328 296.231967 
L 803.296792 315.60443 
L 805.338255 281.130009 
L 807.379719 312.147556 
L 809.421182 292.115487 
L 811.462646 325.077203 
L 813.504109 309.865338 
L 815.545572 324.547988 
L 817.587036 326.233665 
L 819.628499 332.097422 
L 821.669963 333.270771 
L 823.711426 327.029099 
L 825.752889 326.075522 
L 827.794353 336.199375 
L 829.835816 344.239267 
L 831.87728 344.638174 
L 833.918743 344.370973 
L 835.960207 352.651451 
L 838.00167 352.922418 
L 840.043133 347.615859 
L 842.084597 345.215298 
L 844.12606 362.35169 
L 846.167524 363.48373 
L 848.208987 366.834487 
L 850.25045 359.237916 
L 852.291914 342.035927 
L 854.333377 362.656884 
L 856.374841 355.980605 
L 858.416304 362.094251 
L 860.457768 368.803094 
L 862.499231 359.222858 
L 864.540694 370.912018 
L 866.582158 361.633565 
L 868.623621 362.120985 
L 870.665085 362.513505 
L 872.706548 370.73363 
L 874.748011 369.164427 
L 876.789475 368.039601 
L 878.830938 362.399821 
L 880.872402 364.622654 
L 882.913865 367.963263 
L 884.955328 366.36859 
L 886.996792 372.635513 
L 889.038255 367.467566 
L 891.079719 373.315083 
L 893.121182 377.248912 
L 895.162646 377.64 
L 897.204109 372.966976 
L 899.245572 372.300565 
L 901.287036 372.282064 
L 903.328499 374.931553 
L 905.369963 374.877731 
L 907.411426 364.487267 
L 909.452889 373.182554 
L 911.494353 326.277821 
L 913.535816 373.507624 
L 915.57728 377.574496 
L 917.618743 370.445106 
L 919.660207 363.313422 
L 921.70167 375.802848 
L 923.743133 371.103576 
L 925.784597 360.408861 
L 927.82606 367.946343 
L 929.867524 367.519336 
L 931.908987 365.246651 
L 933.95045 373.125643 
L 935.991914 368.524029 
L 938.033377 370.47023 
L 940.074841 371.246591 
L 940.074841 248.887309 
L 940.074841 248.887309 
L 938.033377 253.892201 
L 935.991914 252.095472 
L 933.95045 255.708895 
L 931.908987 253.075908 
L 929.867524 254.571193 
L 927.82606 254.837655 
L 925.784597 255.445803 
L 923.743133 260.546411 
L 921.70167 261.330441 
L 919.660207 259.846461 
L 917.618743 261.232273 
L 915.57728 266.079188 
L 913.535816 264.526652 
L 911.494353 256.70179 
L 909.452889 267.005405 
L 907.411426 265.92878 
L 905.369963 269.13599 
L 903.328499 270.359451 
L 901.287036 270.375469 
L 899.245572 271.953038 
L 897.204109 273.91204 
L 895.162646 275.55838 
L 893.121182 276.449316 
L 891.079719 276.674901 
L 889.038255 275.787846 
L 886.996792 277.802205 
L 884.955328 276.559117 
L 882.913865 277.80767 
L 880.872402 278.052533 
L 878.830938 278.218662 
L 876.789475 280.923389 
L 874.748011 282.443088 
L 872.706548 284.432754 
L 870.665085 281.528385 
L 868.623621 282.775847 
L 866.582158 283.622239 
L 864.540694 287.141443 
L 862.499231 284.151145 
L 860.457768 288.172646 
L 858.416304 286.450768 
L 856.374841 285.168363 
L 854.333377 288.093206 
L 852.291914 282.456744 
L 850.25045 288.069275 
L 848.208987 291.87086 
L 846.167524 291.371765 
L 844.12606 291.4008 
L 842.084597 287.014497 
L 840.043133 287.651121 
L 838.00167 290.044899 
L 835.960207 290.427233 
L 833.918743 287.924769 
L 831.87728 288.171389 
L 829.835816 289.102264 
L 827.794353 285.1233 
L 825.752889 282.649472 
L 823.711426 283.655794 
L 821.669963 286.597739 
L 819.628499 286.491829 
L 817.587036 283.914419 
L 815.545572 283.615244 
L 813.504109 278.53114 
L 811.462646 284.472457 
L 809.421182 274.129298 
L 807.379719 280.869392 
L 805.338255 268.94544 
L 803.296792 282.193535 
L 801.255328 274.877599 
L 799.213865 274.117967 
L 797.172402 280.329512 
L 795.130938 274.559863 
L 793.089475 267.179147 
L 791.048011 272.503172 
L 789.006548 273.356989 
L 786.965085 272.966192 
L 784.923621 263.608825 
L 782.882158 270.108491 
L 780.840694 267.083062 
L 778.799231 265.55297 
L 776.757768 264.91191 
L 774.716304 263.657738 
L 772.674841 264.662153 
L 770.633377 256.114571 
L 768.591914 245.422324 
L 766.55045 253.958945 
L 764.508987 245.416123 
L 762.467524 239.254804 
L 760.42606 251.087496 
L 758.384597 239.33718 
L 756.343133 210.528536 
L 754.30167 230.145607 
L 752.260207 226.187948 
L 750.218743 226.897986 
L 748.17728 221.29198 
L 746.135816 224.4772 
L 744.094353 216.536712 
L 742.052889 210.790155 
L 740.011426 214.661331 
L 737.969963 205.192828 
L 735.928499 217.99194 
L 733.887036 201.160944 
L 731.845572 208.00499 
L 729.804109 199.377151 
L 727.762646 187.155415 
L 725.721182 200.692158 
L 723.679719 185.198998 
L 721.638255 185.674 
L 719.596792 183.008282 
L 717.555328 187.985953 
L 715.513865 197.724103 
L 713.472402 197.882153 
L 711.430938 187.997403 
L 709.389475 171.583143 
L 707.348011 172.095173 
L 705.306548 170.942559 
L 703.265085 178.25249 
L 701.223621 176.300466 
L 699.182158 170.744258 
L 697.140694 175.440485 
L 695.099231 176.518246 
L 693.057768 168.742809 
L 691.016304 168.156024 
L 688.974841 165.042447 
L 686.933377 159.871083 
L 684.891914 174.412126 
L 682.85045 167.406837 
L 680.808987 155.259391 
L 678.767524 157.69875 
L 676.72606 163.820922 
L 674.684597 159.762968 
L 672.643133 154.992785 
L 670.60167 159.116009 
L 668.560207 164.688632 
L 666.518743 155.68302 
L 664.47728 151.207661 
L 662.435816 153.504225 
L 660.394353 150.165831 
L 658.352889 148.366182 
L 656.311426 142.93696 
L 654.269963 142.294175 
L 652.228499 132.869415 
L 650.187036 139.836118 
L 648.145572 135.76395 
L 646.104109 136.08191 
L 644.062646 133.706926 
L 642.021182 136.696028 
L 639.979719 129.650918 
L 637.938255 132.652197 
L 635.896792 125.929953 
L 633.855328 125.995573 
L 631.813865 120.006583 
L 629.772402 124.648786 
L 627.730938 126.429342 
L 625.689475 123.605836 
L 623.648011 121.723777 
L 621.606548 114.39659 
L 619.565085 115.777734 
L 617.523621 117.756006 
L 615.482158 110.516609 
L 613.440694 116.373611 
L 611.399231 113.760709 
L 609.357768 105.632868 
L 607.316304 108.253875 
L 605.274841 107.097834 
L 603.233377 103.777692 
L 601.191914 101.14468 
L 599.15045 103.6511 
L 597.108987 117.03948 
L 595.067524 106.708463 
L 593.02606 100.550497 
L 590.984597 100.992985 
L 588.943133 98.745654 
L 586.90167 93.687028 
L 584.860207 91.35705 
L 582.818743 87.964166 
L 580.77728 90.463992 
L 578.735816 89.988034 
L 576.694353 95.099612 
L 574.652889 94.58227 
L 572.611426 91.471001 
L 570.569963 93.928177 
L 568.528499 89.85611 
L 566.487036 91.316982 
L 564.445572 93.204533 
L 562.404109 93.220089 
L 560.362646 91.094595 
L 558.321182 94.169673 
L 556.279719 94.581601 
L 554.238255 97.288387 
L 552.196792 93.724279 
L 550.155328 90.34671 
L 548.113865 92.706409 
L 546.072402 94.139973 
L 544.030938 93.936247 
L 541.989475 95.851021 
L 539.948011 90.738629 
L 537.906548 91.52489 
L 535.865085 91.126611 
L 533.823621 91.743739 
L 531.782158 90.393155 
L 529.740694 88.607662 
L 527.699231 91.761306 
L 525.657768 93.596754 
L 523.616304 90.343231 
L 521.574841 92.621203 
L 519.533377 90.304636 
L 517.491914 91.137549 
L 515.45045 95.142932 
L 513.408987 93.674702 
L 511.367524 93.931867 
L 509.32606 95.54285 
L 507.284597 93.090035 
L 505.243133 94.23082 
L 503.20167 96.33887 
L 501.160207 95.70492 
L 499.118743 96.334092 
L 497.07728 95.842652 
L 495.035816 96.78725 
L 492.994353 97.736721 
L 490.952889 98.289111 
L 488.911426 98.178421 
L 486.869963 98.27098 
L 484.828499 94.153468 
L 482.787036 97.692686 
L 480.745572 98.098834 
L 478.704109 99.055772 
L 476.662646 97.772176 
L 474.621182 96.708092 
L 472.579719 98.271828 
L 470.538255 98.492524 
L 468.496792 99.120301 
L 466.455328 99.025893 
L 464.413865 98.859508 
L 462.372402 99.194759 
L 460.330938 99.340525 
L 458.289475 100.074461 
L 456.248011 100.951975 
L 454.206548 103.521847 
L 452.165085 103.665458 
L 450.123621 102.244662 
L 448.082158 104.263826 
L 446.040694 102.928485 
L 443.999231 103.369749 
L 441.957768 100.769 
L 439.916304 105.340713 
L 437.874841 104.522223 
L 435.833377 104.391749 
L 433.791914 106.339498 
L 431.75045 105.757821 
L 429.708987 105.569038 
L 427.667524 103.659447 
L 425.62606 107.503123 
L 423.584597 105.001055 
L 421.543133 107.988803 
L 419.50167 109.507716 
L 417.460207 110.075442 
L 415.418743 112.685289 
L 413.37728 113.758329 
L 411.335816 113.596286 
L 409.294353 114.413622 
L 407.252889 114.687559 
L 405.211426 115.773214 
L 403.169963 114.206024 
L 401.128499 116.465485 
L 399.087036 117.619066 
L 397.045572 118.157078 
L 395.004109 118.273045 
L 392.962646 117.573632 
L 390.921182 120.570122 
L 388.879719 120.951673 
L 386.838255 122.170734 
L 384.796792 124.21784 
L 382.755328 124.737033 
L 380.713865 121.679915 
L 378.672402 122.163268 
L 376.630938 124.894876 
L 374.589475 124.699153 
L 372.548011 126.149887 
L 370.506548 127.006316 
L 368.465085 127.412652 
L 366.423621 127.055065 
L 364.382158 128.368149 
L 362.340694 130.061474 
L 360.299231 127.246039 
L 358.257768 127.951675 
L 356.216304 126.78463 
L 354.174841 129.654762 
L 352.133377 129.48836 
L 350.091914 127.632411 
L 348.05045 128.5644 
L 346.008987 129.89544 
L 343.967524 125.029994 
L 341.92606 129.792344 
L 339.884597 124.173285 
L 337.843133 123.210437 
L 335.80167 122.057733 
L 333.760207 123.306453 
L 331.718743 123.729186 
L 329.67728 122.565902 
L 327.635816 118.642015 
L 325.594353 120.110503 
L 323.552889 114.322507 
L 321.511426 106.329341 
L 319.469963 108.861781 
L 317.428499 112.06502 
L 315.387036 102.664694 
L 313.345572 103.661194 
L 311.304109 101.168635 
L 309.262646 99.51316 
L 307.221182 88.569483 
L 305.179719 87.544088 
L 303.138255 82.533432 
L 301.096792 72.367485 
L 299.055328 65.683261 
L 297.013865 73.137942 
L 294.972402 68.888399 
L 292.930938 63.045923 
L 290.889475 59.27075 
L 288.848011 54.547238 
L 286.806548 47.394698 
L 284.765085 50.299526 
L 282.723621 38.414381 
L 280.682158 32.375713 
L 278.640694 28.791331 
L 276.599231 27.467889 
L 274.557768 27.728428 
L 272.516304 25.583459 
L 270.474841 27.590485 
L 268.433377 30.402319 
L 266.391914 25.199309 
L 264.35045 24.84 
L 262.308987 30.453765 
L 260.267524 31.232201 
L 258.22606 29.462048 
L 256.184597 39.087569 
L 254.143133 32.49869 
L 252.10167 34.646905 
L 250.060207 42.746249 
L 248.018743 40.833149 
L 245.97728 43.77137 
L 243.935816 45.994958 
L 241.894353 49.51823 
L 239.852889 52.367688 
L 237.811426 55.53162 
L 235.769963 59.0381 
L 233.728499 61.261393 
L 231.687036 65.341155 
L 229.645572 66.37274 
L 227.604109 72.599426 
L 225.562646 72.215239 
L 223.521182 74.814383 
L 221.479719 77.644628 
L 219.438255 79.652092 
L 217.396792 82.18543 
L 215.355328 84.307699 
L 213.313865 87.199819 
L 211.272402 88.955121 
L 209.230938 91.018097 
L 207.189475 93.908734 
L 205.148011 96.48526 
L 203.106548 98.063091 
L 201.065085 100.558915 
L 199.023621 102.127579 
L 196.982158 104.80302 
L 194.940694 106.99467 
L 192.899231 108.821686 
L 190.857768 111.250363 
L 188.816304 113.180552 
L 186.774841 114.792189 
L 184.733377 116.681904 
L 182.691914 117.904367 
L 180.65045 120.666807 
L 178.608987 122.539053 
L 176.567524 124.129368 
L 174.52606 126.075817 
L 172.484597 127.165475 
L 170.443133 128.882899 
L 168.40167 130.636349 
L 166.360207 132.591418 
L 164.318743 134.04638 
L 162.27728 135.481756 
L 160.235816 136.97118 
L 158.194353 138.584631 
L 156.152889 140.178915 
L 154.111426 141.483826 
L 152.069963 142.895121 
L 150.028499 144.040639 
L 147.987036 145.681633 
L 145.945572 146.77537 
L 143.904109 148.0812 
L 141.862646 149.796759 
L 139.821182 150.903895 
L 137.779719 151.040854 
L 135.738255 152.399433 
L 133.696792 153.003705 
L 131.655328 154.302152 
L 129.613865 155.894249 
L 127.572402 156.6188 
L 125.530938 157.299369 
L 123.489475 157.215819 
L 121.448011 157.931091 
L 119.406548 158.290201 
L 117.365085 158.703912 
L 115.323621 159.812233 
L 113.282158 160.414255 
L 111.240694 161.299285 
L 109.199231 160.525696 
L 107.157768 160.968751 
L 105.116304 159.865168 
L 103.074841 161.278257 
L 101.033377 161.307958 
L 98.991914 162.324205 
L 96.95045 159.841257 
L 94.908987 162.559767 
L 92.867524 162.246175 
L 90.82606 160.536621 
L 88.784597 160.06204 
L 86.743133 161.441198 
L 84.70167 163.902894 
L 82.660207 162.827453 
L 80.618743 162.686171 
L 78.57728 160.112049 
L 76.535816 160.047801 
L 74.494353 160.72171 
L 72.452889 162.23645 
L 70.411426 161.721201 
L 68.369963 161.386004 
L 66.328499 161.587712 
L 64.287036 162.509545 
L 62.245572 162.270641 
L 60.204109 162.878598 
L 58.162646 163.912417 
L 56.121182 163.181565 
L 54.079719 164.604889 
L 52.038255 164.839125 
L 49.996792 165.01462 
L 47.955328 165.937064 
L 45.913865 166.163064 
L 43.872402 167.189089 
L 41.830938 168.31018 
L 39.789475 168.34469 
L 37.748011 167.894847 
L 35.706548 167.585273 
L 33.665085 169.95379 
L 31.623621 169.563987 
L 29.582158 171.161097 
L 27.540694 171.183982 
L 25.499231 170.607764 
L 23.457768 172.279068 
L 21.416304 170.750212 
L 19.374841 170.833681 
L 17.333377 172.840167 
L 15.291914 171.415009 
L 13.25045 173.30492 
L 11.208987 174.130115 
L 9.167524 172.412983 
L 7.12606 167.327176 
L 5.084597 170.551036 
L 3.043133 169.021793 
L 1.00167 161.548584 
L -1.039793 167.962381 
L -3.081257 169.258785 
L -5.12272 162.312866 
L -7.164184 160.601234 
L -9.205647 164.15393 
L -11.247111 156.75373 
L -13.288574 143.253886 
L -15.330037 158.032121 
L -17.371501 163.723868 
L -19.412964 166.740807 
L -21.454428 148.442669 
L -23.495891 149.203909 
L -25.537354 139.94285 
L -27.578818 132.786024 
L -29.620281 147.367086 
L -31.661745 141.192016 
L -33.703208 128.183582 
L -35.744672 119.194489 
L -37.786135 119.734292 
L -39.827598 121.304482 
L -41.869062 119.185049 
L -43.910525 118.357565 
L -45.951989 123.482725 
L -47.993452 122.807663 
L -50.034915 119.536014 
L -52.076379 121.606228 
L -54.117842 120.194982 
L -56.159306 119.538584 
L -58.200769 119.869036 
L -60.242232 121.771919 
L -62.283696 122.991462 
L -64.325159 123.775108 
L -66.366623 125.594827 
L -68.408086 126.458413 
L -70.44955 127.870869 
L -72.491013 130.036856 
L -74.532476 131.936463 
L -76.57394 133.096183 
L -78.615403 134.62646 
L -80.656867 136.300565 
L -82.69833 137.482641 
L -84.739793 139.238414 
L -86.781257 141.334737 
L -88.82272 142.550613 
L -90.864184 143.427063 
L -92.905647 144.747175 
L -94.947111 146.058488 
L -96.988574 147.261555 
L -99.030037 148.412132 
L -101.071501 149.521243 
L -103.112964 151.036338 
L -105.154428 151.832648 
L -107.195891 152.926101 
L -109.237354 154.075384 
L -111.278818 155.118094 
L -113.320281 156.096776 
L -115.361745 156.909813 
L -117.403208 157.794422 
L -119.444672 158.96562 
L -121.486135 159.728426 
L -123.527598 160.660164 
L -125.569062 161.531029 
L -127.610525 162.40116 
L -129.651989 163.293544 
L -131.693452 164.197866 
L -133.734915 164.942774 
L -135.776379 165.823213 
L -137.817842 166.596774 
L -139.859306 167.425964 
L -141.900769 168.19724 
L -143.942232 168.993406 
L -145.983696 169.736104 
L -148.025159 170.526686 
L -150.066623 171.371148 
L -152.108086 172.016881 
L -154.14955 172.80671 
L -156.191013 173.487458 
L -158.232476 174.276096 
L -160.27394 174.853188 
L -162.315403 175.587103 
L -164.356867 176.28666 
L -166.39833 176.952053 
L -168.439793 177.619118 
L -170.481257 178.256497 
L -172.52272 178.987238 
L -174.564184 179.644929 
L -176.605647 180.186888 
L -178.647111 180.830534 
L -180.688574 181.473271 
L -182.730037 182.113043 
L -184.771501 182.730014 
L -186.812964 183.305412 
L -188.854428 183.938687 
L -190.895891 184.559522 
L -192.937354 185.183511 
L -194.978818 185.80522 
L -197.020281 186.443788 
L -199.061745 187.107688 
L -201.103208 187.679272 
L -203.144672 188.333924 
L -205.186135 188.976176 
L -207.227598 189.592875 
L -209.269062 190.22906 
L -211.310525 190.878387 
L -213.351989 191.508501 
L -215.393452 192.169582 
L -217.434915 192.772742 
L -219.476379 193.38823 
L -221.517842 194.038847 
L -223.559306 194.666983 
L -225.600769 195.256225 
L -227.642232 195.895343 
L -229.683696 196.471757 
L -231.725159 197.08819 
L -233.766623 197.745067 
L -235.808086 198.308584 
L -237.84955 198.939491 
L -239.891013 199.519242 
L -241.932476 200.16465 
L -243.97394 200.731099 
L -246.015403 201.383866 
L -248.056867 201.944546 
L -250.09833 202.560815 
L -252.139793 203.163594 
L -254.181257 203.777063 
L -256.22272 204.369542 
L -258.264184 204.967899 
L -260.305647 205.568698 
L -262.347111 206.173198 
L -264.388574 206.759083 
L -266.430037 207.310826 
L -268.471501 207.851363 
L -270.512964 208.395274 
L -272.554428 208.920241 
L -274.595891 209.454789 
L -276.637354 209.98252 
L -278.678818 210.486322 
L -280.720281 210.989379 
L -282.761745 211.490132 
L -284.803208 211.966908 
L -286.844672 212.436215 
L -288.886135 212.925963 
L -290.927598 213.378197 
L -292.969062 213.802654 
L -295.010525 214.258304 
L -297.051989 214.682118 
L -299.093452 215.059311 
L -301.134915 215.453643 
L -303.176379 215.814237 
L -305.217842 216.196003 
L -307.259306 216.525031 
L -309.300769 216.858772 
L -311.342232 217.170681 
L -313.383696 217.477756 
L -315.425159 217.75399 
L -317.466623 217.99807 
L -319.508086 218.244998 
L -321.54955 218.479123 
L -323.591013 218.689373 
L -325.632476 218.91382 
L -327.67394 219.104173 
L -329.715403 219.268383 
L -331.756867 219.460742 
L -333.79833 219.62297 
L -335.839793 219.763641 
L -337.881257 219.917508 
L -339.92272 220.066967 
L -341.964184 220.190146 
L -344.005647 220.324368 
L -346.047111 220.431067 
L -348.088574 220.557297 
L -350.130037 220.660349 
L -352.171501 220.769437 
L -354.212964 220.883513 
L -356.254428 220.976657 
L -358.295891 221.074393 
L -360.337354 221.196902 
L -362.378818 221.293339 
L -364.420281 221.400764 
L -366.461745 221.488244 
L -368.503208 221.600266 
L -370.544672 221.698783 
L -372.586135 221.801375 
L -374.627598 221.886889 
L -376.669062 221.961327 
L -378.710525 222.050614 
L -380.751989 222.150071 
L -382.793452 222.245907 
L -384.834915 222.323704 
L -386.876379 222.394208 
L -388.917842 222.488022 
L -390.959306 222.564074 
L -393.000769 222.656974 
z
" clip-path="url(#p75bbac4bda)" style="fill: #008000; fill-opacity: 0.3; stroke: #008000; stroke-opacity: 0.3"/>
   </g>
   <g id="matplotlib.axis_1">
    <g id="xtick_1">
     <g id="line2d_1">
      <defs>
       <path id="m4ae0294e27" d="M 0 0 
L 0 3.5 
" style="stroke: #000000; stroke-width: 0.8"/>
      </defs>
      <g>
       <use xlink:href="#m4ae0294e27" x="103.074841" y="395.28" style="stroke: #000000; stroke-width: 0.8"/>
      </g>
     </g>
     <g id="text_1">
      <!-- 2022-03-01 -->
      <g transform="translate(17.945813 495.213718) rotate(-45) scale(0.2 -0.2)">
       <defs>
        <path id="DejaVuSans-32" d="M 1228 531 
L 3431 531 
L 3431 0 
L 469 0 
L 469 531 
Q 828 903 1448 1529 
Q 2069 2156 2228 2338 
Q 2531 2678 2651 2914 
Q 2772 3150 2772 3378 
Q 2772 3750 2511 3984 
Q 2250 4219 1831 4219 
Q 1534 4219 1204 4116 
Q 875 4013 500 3803 
L 500 4441 
Q 881 4594 1212 4672 
Q 1544 4750 1819 4750 
Q 2544 4750 2975 4387 
Q 3406 4025 3406 3419 
Q 3406 3131 3298 2873 
Q 3191 2616 2906 2266 
Q 2828 2175 2409 1742 
Q 1991 1309 1228 531 
z
" transform="scale(0.015625)"/>
        <path id="DejaVuSans-30" d="M 2034 4250 
Q 1547 4250 1301 3770 
Q 1056 3291 1056 2328 
Q 1056 1369 1301 889 
Q 1547 409 2034 409 
Q 2525 409 2770 889 
Q 3016 1369 3016 2328 
Q 3016 3291 2770 3770 
Q 2525 4250 2034 4250 
z
M 2034 4750 
Q 2819 4750 3233 4129 
Q 3647 3509 3647 2328 
Q 3647 1150 3233 529 
Q 2819 -91 2034 -91 
Q 1250 -91 836 529 
Q 422 1150 422 2328 
Q 422 3509 836 4129 
Q 1250 4750 2034 4750 
z
" transform="scale(0.015625)"/>
        <path id="DejaVuSans-2d" d="M 313 2009 
L 1997 2009 
L 1997 1497 
L 313 1497 
L 313 2009 
z
" transform="scale(0.015625)"/>
        <path id="DejaVuSans-33" d="M 2597 2516 
Q 3050 2419 3304 2112 
Q 3559 1806 3559 1356 
Q 3559 666 3084 287 
Q 2609 -91 1734 -91 
Q 1441 -91 1130 -33 
Q 819 25 488 141 
L 488 750 
Q 750 597 1062 519 
Q 1375 441 1716 441 
Q 2309 441 2620 675 
Q 2931 909 2931 1356 
Q 2931 1769 2642 2001 
Q 2353 2234 1838 2234 
L 1294 2234 
L 1294 2753 
L 1863 2753 
Q 2328 2753 2575 2939 
Q 2822 3125 2822 3475 
Q 2822 3834 2567 4026 
Q 2313 4219 1838 4219 
Q 1578 4219 1281 4162 
Q 984 4106 628 3988 
L 628 4550 
Q 988 4650 1302 4700 
Q 1616 4750 1894 4750 
Q 2613 4750 3031 4423 
Q 3450 4097 3450 3541 
Q 3450 3153 3228 2886 
Q 3006 2619 2597 2516 
z
" transform="scale(0.015625)"/>
        <path id="DejaVuSans-31" d="M 794 531 
L 1825 531 
L 1825 4091 
L 703 3866 
L 703 4441 
L 1819 4666 
L 2450 4666 
L 2450 531 
L 3481 531 
L 3481 0 
L 794 0 
L 794 531 
z
" transform="scale(0.015625)"/>
       </defs>
       <use xlink:href="#DejaVuSans-32"/>
       <use xlink:href="#DejaVuSans-30" x="63.623047"/>
       <use xlink:href="#DejaVuSans-32" x="127.246094"/>
       <use xlink:href="#DejaVuSans-32" x="190.869141"/>
       <use xlink:href="#DejaVuSans-2d" x="254.492188"/>
       <use xlink:href="#DejaVuSans-30" x="290.576172"/>
       <use xlink:href="#DejaVuSans-33" x="354.199219"/>
       <use xlink:href="#DejaVuSans-2d" x="417.822266"/>
       <use xlink:href="#DejaVuSans-30" x="453.90625"/>
       <use xlink:href="#DejaVuSans-31" x="517.529297"/>
      </g>
     </g>
    </g>
    <g id="xtick_2">
     <g id="line2d_2">
      <g>
       <use xlink:href="#m4ae0294e27" x="160.235816" y="395.28" style="stroke: #000000; stroke-width: 0.8"/>
      </g>
     </g>
     <g id="text_2">
      <!-- 2022-03-29 -->
      <g transform="translate(75.106789 495.213718) rotate(-45) scale(0.2 -0.2)">
       <defs>
        <path id="DejaVuSans-39" d="M 703 97 
L 703 672 
Q 941 559 1184 500 
Q 1428 441 1663 441 
Q 2288 441 2617 861 
Q 2947 1281 2994 2138 
Q 2813 1869 2534 1725 
Q 2256 1581 1919 1581 
Q 1219 1581 811 2004 
Q 403 2428 403 3163 
Q 403 3881 828 4315 
Q 1253 4750 1959 4750 
Q 2769 4750 3195 4129 
Q 3622 3509 3622 2328 
Q 3622 1225 3098 567 
Q 2575 -91 1691 -91 
Q 1453 -91 1209 -44 
Q 966 3 703 97 
z
M 1959 2075 
Q 2384 2075 2632 2365 
Q 2881 2656 2881 3163 
Q 2881 3666 2632 3958 
Q 2384 4250 1959 4250 
Q 1534 4250 1286 3958 
Q 1038 3666 1038 3163 
Q 1038 2656 1286 2365 
Q 1534 2075 1959 2075 
z
" transform="scale(0.015625)"/>
       </defs>
       <use xlink:href="#DejaVuSans-32"/>
       <use xlink:href="#DejaVuSans-30" x="63.623047"/>
       <use xlink:href="#DejaVuSans-32" x="127.246094"/>
       <use xlink:href="#DejaVuSans-32" x="190.869141"/>
       <use xlink:href="#DejaVuSans-2d" x="254.492188"/>
       <use xlink:href="#DejaVuSans-30" x="290.576172"/>
       <use xlink:href="#DejaVuSans-33" x="354.199219"/>
       <use xlink:href="#DejaVuSans-2d" x="417.822266"/>
       <use xlink:href="#DejaVuSans-32" x="453.90625"/>
       <use xlink:href="#DejaVuSans-39" x="517.529297"/>
      </g>
     </g>
    </g>
    <g id="xtick_3">
     <g id="line2d_3">
      <g>
       <use xlink:href="#m4ae0294e27" x="217.396792" y="395.28" style="stroke: #000000; stroke-width: 0.8"/>
      </g>
     </g>
     <g id="text_3">
      <!-- 2022-04-26 -->
      <g transform="translate(132.267765 495.213718) rotate(-45) scale(0.2 -0.2)">
       <defs>
        <path id="DejaVuSans-34" d="M 2419 4116 
L 825 1625 
L 2419 1625 
L 2419 4116 
z
M 2253 4666 
L 3047 4666 
L 3047 1625 
L 3713 1625 
L 3713 1100 
L 3047 1100 
L 3047 0 
L 2419 0 
L 2419 1100 
L 313 1100 
L 313 1709 
L 2253 4666 
z
" transform="scale(0.015625)"/>
        <path id="DejaVuSans-36" d="M 2113 2584 
Q 1688 2584 1439 2293 
Q 1191 2003 1191 1497 
Q 1191 994 1439 701 
Q 1688 409 2113 409 
Q 2538 409 2786 701 
Q 3034 994 3034 1497 
Q 3034 2003 2786 2293 
Q 2538 2584 2113 2584 
z
M 3366 4563 
L 3366 3988 
Q 3128 4100 2886 4159 
Q 2644 4219 2406 4219 
Q 1781 4219 1451 3797 
Q 1122 3375 1075 2522 
Q 1259 2794 1537 2939 
Q 1816 3084 2150 3084 
Q 2853 3084 3261 2657 
Q 3669 2231 3669 1497 
Q 3669 778 3244 343 
Q 2819 -91 2113 -91 
Q 1303 -91 875 529 
Q 447 1150 447 2328 
Q 447 3434 972 4092 
Q 1497 4750 2381 4750 
Q 2619 4750 2861 4703 
Q 3103 4656 3366 4563 
z
" transform="scale(0.015625)"/>
       </defs>
       <use xlink:href="#DejaVuSans-32"/>
       <use xlink:href="#DejaVuSans-30" x="63.623047"/>
       <use xlink:href="#DejaVuSans-32" x="127.246094"/>
       <use xlink:href="#DejaVuSans-32" x="190.869141"/>
       <use xlink:href="#DejaVuSans-2d" x="254.492188"/>
       <use xlink:href="#DejaVuSans-30" x="290.576172"/>
       <use xlink:href="#DejaVuSans-34" x="354.199219"/>
       <use xlink:href="#DejaVuSans-2d" x="417.822266"/>
       <use xlink:href="#DejaVuSans-32" x="453.90625"/>
       <use xlink:href="#DejaVuSans-36" x="517.529297"/>
      </g>
     </g>
    </g>
    <g id="xtick_4">
     <g id="line2d_4">
      <g>
       <use xlink:href="#m4ae0294e27" x="274.557768" y="395.28" style="stroke: #000000; stroke-width: 0.8"/>
      </g>
     </g>
     <g id="text_4">
      <!-- 2022-05-24 -->
      <g transform="translate(189.42874 495.213718) rotate(-45) scale(0.2 -0.2)">
       <defs>
        <path id="DejaVuSans-35" d="M 691 4666 
L 3169 4666 
L 3169 4134 
L 1269 4134 
L 1269 2991 
Q 1406 3038 1543 3061 
Q 1681 3084 1819 3084 
Q 2600 3084 3056 2656 
Q 3513 2228 3513 1497 
Q 3513 744 3044 326 
Q 2575 -91 1722 -91 
Q 1428 -91 1123 -41 
Q 819 9 494 109 
L 494 744 
Q 775 591 1075 516 
Q 1375 441 1709 441 
Q 2250 441 2565 725 
Q 2881 1009 2881 1497 
Q 2881 1984 2565 2268 
Q 2250 2553 1709 2553 
Q 1456 2553 1204 2497 
Q 953 2441 691 2322 
L 691 4666 
z
" transform="scale(0.015625)"/>
       </defs>
       <use xlink:href="#DejaVuSans-32"/>
       <use xlink:href="#DejaVuSans-30" x="63.623047"/>
       <use xlink:href="#DejaVuSans-32" x="127.246094"/>
       <use xlink:href="#DejaVuSans-32" x="190.869141"/>
       <use xlink:href="#DejaVuSans-2d" x="254.492188"/>
       <use xlink:href="#DejaVuSans-30" x="290.576172"/>
       <use xlink:href="#DejaVuSans-35" x="354.199219"/>
       <use xlink:href="#DejaVuSans-2d" x="417.822266"/>
       <use xlink:href="#DejaVuSans-32" x="453.90625"/>
       <use xlink:href="#DejaVuSans-34" x="517.529297"/>
      </g>
     </g>
    </g>
    <g id="xtick_5">
     <g id="line2d_5">
      <g>
       <use xlink:href="#m4ae0294e27" x="331.718743" y="395.28" style="stroke: #000000; stroke-width: 0.8"/>
      </g>
     </g>
     <g id="text_5">
      <!-- 2022-06-21 -->
      <g transform="translate(246.589716 495.213718) rotate(-45) scale(0.2 -0.2)">
       <use xlink:href="#DejaVuSans-32"/>
       <use xlink:href="#DejaVuSans-30" x="63.623047"/>
       <use xlink:href="#DejaVuSans-32" x="127.246094"/>
       <use xlink:href="#DejaVuSans-32" x="190.869141"/>
       <use xlink:href="#DejaVuSans-2d" x="254.492188"/>
       <use xlink:href="#DejaVuSans-30" x="290.576172"/>
       <use xlink:href="#DejaVuSans-36" x="354.199219"/>
       <use xlink:href="#DejaVuSans-2d" x="417.822266"/>
       <use xlink:href="#DejaVuSans-32" x="453.90625"/>
       <use xlink:href="#DejaVuSans-31" x="517.529297"/>
      </g>
     </g>
    </g>
    <g id="xtick_6">
     <g id="line2d_6">
      <g>
       <use xlink:href="#m4ae0294e27" x="388.879719" y="395.28" style="stroke: #000000; stroke-width: 0.8"/>
      </g>
     </g>
     <g id="text_6">
      <!-- 2022-07-19 -->
      <g transform="translate(303.750691 495.213718) rotate(-45) scale(0.2 -0.2)">
       <defs>
        <path id="DejaVuSans-37" d="M 525 4666 
L 3525 4666 
L 3525 4397 
L 1831 0 
L 1172 0 
L 2766 4134 
L 525 4134 
L 525 4666 
z
" transform="scale(0.015625)"/>
       </defs>
       <use xlink:href="#DejaVuSans-32"/>
       <use xlink:href="#DejaVuSans-30" x="63.623047"/>
       <use xlink:href="#DejaVuSans-32" x="127.246094"/>
       <use xlink:href="#DejaVuSans-32" x="190.869141"/>
       <use xlink:href="#DejaVuSans-2d" x="254.492188"/>
       <use xlink:href="#DejaVuSans-30" x="290.576172"/>
       <use xlink:href="#DejaVuSans-37" x="354.199219"/>
       <use xlink:href="#DejaVuSans-2d" x="417.822266"/>
       <use xlink:href="#DejaVuSans-31" x="453.90625"/>
       <use xlink:href="#DejaVuSans-39" x="517.529297"/>
      </g>
     </g>
    </g>
    <g id="xtick_7">
     <g id="line2d_7">
      <g>
       <use xlink:href="#m4ae0294e27" x="446.040694" y="395.28" style="stroke: #000000; stroke-width: 0.8"/>
      </g>
     </g>
     <g id="text_7">
      <!-- 2022-08-16 -->
      <g transform="translate(360.911667 495.213718) rotate(-45) scale(0.2 -0.2)">
       <defs>
        <path id="DejaVuSans-38" d="M 2034 2216 
Q 1584 2216 1326 1975 
Q 1069 1734 1069 1313 
Q 1069 891 1326 650 
Q 1584 409 2034 409 
Q 2484 409 2743 651 
Q 3003 894 3003 1313 
Q 3003 1734 2745 1975 
Q 2488 2216 2034 2216 
z
M 1403 2484 
Q 997 2584 770 2862 
Q 544 3141 544 3541 
Q 544 4100 942 4425 
Q 1341 4750 2034 4750 
Q 2731 4750 3128 4425 
Q 3525 4100 3525 3541 
Q 3525 3141 3298 2862 
Q 3072 2584 2669 2484 
Q 3125 2378 3379 2068 
Q 3634 1759 3634 1313 
Q 3634 634 3220 271 
Q 2806 -91 2034 -91 
Q 1263 -91 848 271 
Q 434 634 434 1313 
Q 434 1759 690 2068 
Q 947 2378 1403 2484 
z
M 1172 3481 
Q 1172 3119 1398 2916 
Q 1625 2713 2034 2713 
Q 2441 2713 2670 2916 
Q 2900 3119 2900 3481 
Q 2900 3844 2670 4047 
Q 2441 4250 2034 4250 
Q 1625 4250 1398 4047 
Q 1172 3844 1172 3481 
z
" transform="scale(0.015625)"/>
       </defs>
       <use xlink:href="#DejaVuSans-32"/>
       <use xlink:href="#DejaVuSans-30" x="63.623047"/>
       <use xlink:href="#DejaVuSans-32" x="127.246094"/>
       <use xlink:href="#DejaVuSans-32" x="190.869141"/>
       <use xlink:href="#DejaVuSans-2d" x="254.492188"/>
       <use xlink:href="#DejaVuSans-30" x="290.576172"/>
       <use xlink:href="#DejaVuSans-38" x="354.199219"/>
       <use xlink:href="#DejaVuSans-2d" x="417.822266"/>
       <use xlink:href="#DejaVuSans-31" x="453.90625"/>
       <use xlink:href="#DejaVuSans-36" x="517.529297"/>
      </g>
     </g>
    </g>
    <g id="xtick_8">
     <g id="line2d_8">
      <g>
       <use xlink:href="#m4ae0294e27" x="503.20167" y="395.28" style="stroke: #000000; stroke-width: 0.8"/>
      </g>
     </g>
     <g id="text_8">
      <!-- 2022-09-13 -->
      <g transform="translate(418.072643 495.213718) rotate(-45) scale(0.2 -0.2)">
       <use xlink:href="#DejaVuSans-32"/>
       <use xlink:href="#DejaVuSans-30" x="63.623047"/>
       <use xlink:href="#DejaVuSans-32" x="127.246094"/>
       <use xlink:href="#DejaVuSans-32" x="190.869141"/>
       <use xlink:href="#DejaVuSans-2d" x="254.492188"/>
       <use xlink:href="#DejaVuSans-30" x="290.576172"/>
       <use xlink:href="#DejaVuSans-39" x="354.199219"/>
       <use xlink:href="#DejaVuSans-2d" x="417.822266"/>
       <use xlink:href="#DejaVuSans-31" x="453.90625"/>
       <use xlink:href="#DejaVuSans-33" x="517.529297"/>
      </g>
     </g>
    </g>
    <g id="xtick_9">
     <g id="line2d_9">
      <g>
       <use xlink:href="#m4ae0294e27" x="560.362646" y="395.28" style="stroke: #000000; stroke-width: 0.8"/>
      </g>
     </g>
     <g id="text_9">
      <!-- 2022-10-11 -->
      <g transform="translate(475.233618 495.213718) rotate(-45) scale(0.2 -0.2)">
       <use xlink:href="#DejaVuSans-32"/>
       <use xlink:href="#DejaVuSans-30" x="63.623047"/>
       <use xlink:href="#DejaVuSans-32" x="127.246094"/>
       <use xlink:href="#DejaVuSans-32" x="190.869141"/>
       <use xlink:href="#DejaVuSans-2d" x="254.492188"/>
       <use xlink:href="#DejaVuSans-31" x="290.576172"/>
       <use xlink:href="#DejaVuSans-30" x="354.199219"/>
       <use xlink:href="#DejaVuSans-2d" x="417.822266"/>
       <use xlink:href="#DejaVuSans-31" x="453.90625"/>
       <use xlink:href="#DejaVuSans-31" x="517.529297"/>
      </g>
     </g>
    </g>
    <g id="xtick_10">
     <g id="line2d_10">
      <g>
       <use xlink:href="#m4ae0294e27" x="617.523621" y="395.28" style="stroke: #000000; stroke-width: 0.8"/>
      </g>
     </g>
     <g id="text_10">
      <!-- 2022-11-08 -->
      <g transform="translate(532.394594 495.213718) rotate(-45) scale(0.2 -0.2)">
       <use xlink:href="#DejaVuSans-32"/>
       <use xlink:href="#DejaVuSans-30" x="63.623047"/>
       <use xlink:href="#DejaVuSans-32" x="127.246094"/>
       <use xlink:href="#DejaVuSans-32" x="190.869141"/>
       <use xlink:href="#DejaVuSans-2d" x="254.492188"/>
       <use xlink:href="#DejaVuSans-31" x="290.576172"/>
       <use xlink:href="#DejaVuSans-31" x="354.199219"/>
       <use xlink:href="#DejaVuSans-2d" x="417.822266"/>
       <use xlink:href="#DejaVuSans-30" x="453.90625"/>
       <use xlink:href="#DejaVuSans-38" x="517.529297"/>
      </g>
     </g>
    </g>
    <g id="xtick_11">
     <g id="line2d_11">
      <g>
       <use xlink:href="#m4ae0294e27" x="674.684597" y="395.28" style="stroke: #000000; stroke-width: 0.8"/>
      </g>
     </g>
     <g id="text_11">
      <!-- 2022-12-06 -->
      <g transform="translate(589.555569 495.213718) rotate(-45) scale(0.2 -0.2)">
       <use xlink:href="#DejaVuSans-32"/>
       <use xlink:href="#DejaVuSans-30" x="63.623047"/>
       <use xlink:href="#DejaVuSans-32" x="127.246094"/>
       <use xlink:href="#DejaVuSans-32" x="190.869141"/>
       <use xlink:href="#DejaVuSans-2d" x="254.492188"/>
       <use xlink:href="#DejaVuSans-31" x="290.576172"/>
       <use xlink:href="#DejaVuSans-32" x="354.199219"/>
       <use xlink:href="#DejaVuSans-2d" x="417.822266"/>
       <use xlink:href="#DejaVuSans-30" x="453.90625"/>
       <use xlink:href="#DejaVuSans-36" x="517.529297"/>
      </g>
     </g>
    </g>
    <g id="xtick_12">
     <g id="line2d_12">
      <g>
       <use xlink:href="#m4ae0294e27" x="731.845572" y="395.28" style="stroke: #000000; stroke-width: 0.8"/>
      </g>
     </g>
     <g id="text_12">
      <!-- 2023-01-03 -->
      <g transform="translate(646.716545 495.213718) rotate(-45) scale(0.2 -0.2)">
       <use xlink:href="#DejaVuSans-32"/>
       <use xlink:href="#DejaVuSans-30" x="63.623047"/>
       <use xlink:href="#DejaVuSans-32" x="127.246094"/>
       <use xlink:href="#DejaVuSans-33" x="190.869141"/>
       <use xlink:href="#DejaVuSans-2d" x="254.492188"/>
       <use xlink:href="#DejaVuSans-30" x="290.576172"/>
       <use xlink:href="#DejaVuSans-31" x="354.199219"/>
       <use xlink:href="#DejaVuSans-2d" x="417.822266"/>
       <use xlink:href="#DejaVuSans-30" x="453.90625"/>
       <use xlink:href="#DejaVuSans-33" x="517.529297"/>
      </g>
     </g>
    </g>
    <g id="xtick_13">
     <g id="line2d_13">
      <g>
       <use xlink:href="#m4ae0294e27" x="789.006548" y="395.28" style="stroke: #000000; stroke-width: 0.8"/>
      </g>
     </g>
     <g id="text_13">
      <!-- 2023-01-31 -->
      <g transform="translate(703.877521 495.213718) rotate(-45) scale(0.2 -0.2)">
       <use xlink:href="#DejaVuSans-32"/>
       <use xlink:href="#DejaVuSans-30" x="63.623047"/>
       <use xlink:href="#DejaVuSans-32" x="127.246094"/>
       <use xlink:href="#DejaVuSans-33" x="190.869141"/>
       <use xlink:href="#DejaVuSans-2d" x="254.492188"/>
       <use xlink:href="#DejaVuSans-30" x="290.576172"/>
       <use xlink:href="#DejaVuSans-31" x="354.199219"/>
       <use xlink:href="#DejaVuSans-2d" x="417.822266"/>
       <use xlink:href="#DejaVuSans-33" x="453.90625"/>
       <use xlink:href="#DejaVuSans-31" x="517.529297"/>
      </g>
     </g>
    </g>
    <g id="xtick_14">
     <g id="line2d_14">
      <g>
       <use xlink:href="#m4ae0294e27" x="846.167524" y="395.28" style="stroke: #000000; stroke-width: 0.8"/>
      </g>
     </g>
     <g id="text_14">
      <!-- 2023-02-28 -->
      <g transform="translate(761.038496 495.213718) rotate(-45) scale(0.2 -0.2)">
       <use xlink:href="#DejaVuSans-32"/>
       <use xlink:href="#DejaVuSans-30" x="63.623047"/>
       <use xlink:href="#DejaVuSans-32" x="127.246094"/>
       <use xlink:href="#DejaVuSans-33" x="190.869141"/>
       <use xlink:href="#DejaVuSans-2d" x="254.492188"/>
       <use xlink:href="#DejaVuSans-30" x="290.576172"/>
       <use xlink:href="#DejaVuSans-32" x="354.199219"/>
       <use xlink:href="#DejaVuSans-2d" x="417.822266"/>
       <use xlink:href="#DejaVuSans-32" x="453.90625"/>
       <use xlink:href="#DejaVuSans-38" x="517.529297"/>
      </g>
     </g>
    </g>
    <g id="xtick_15">
     <g id="line2d_15">
      <g>
       <use xlink:href="#m4ae0294e27" x="903.328499" y="395.28" style="stroke: #000000; stroke-width: 0.8"/>
      </g>
     </g>
     <g id="text_15">
      <!-- 2023-03-28 -->
      <g transform="translate(818.199472 495.213718) rotate(-45) scale(0.2 -0.2)">
       <use xlink:href="#DejaVuSans-32"/>
       <use xlink:href="#DejaVuSans-30" x="63.623047"/>
       <use xlink:href="#DejaVuSans-32" x="127.246094"/>
       <use xlink:href="#DejaVuSans-33" x="190.869141"/>
       <use xlink:href="#DejaVuSans-2d" x="254.492188"/>
       <use xlink:href="#DejaVuSans-30" x="290.576172"/>
       <use xlink:href="#DejaVuSans-33" x="354.199219"/>
       <use xlink:href="#DejaVuSans-2d" x="417.822266"/>
       <use xlink:href="#DejaVuSans-32" x="453.90625"/>
       <use xlink:href="#DejaVuSans-38" x="517.529297"/>
      </g>
     </g>
    </g>
    <g id="xtick_16">
     <g id="line2d_16">
      <g>
       <use xlink:href="#m4ae0294e27" x="940.074841" y="395.28" style="stroke: #000000; stroke-width: 0.8"/>
      </g>
     </g>
     <g id="text_16">
      <!-- 2023-04-15 -->
      <g transform="translate(854.945813 495.213718) rotate(-45) scale(0.2 -0.2)">
       <use xlink:href="#DejaVuSans-32"/>
       <use xlink:href="#DejaVuSans-30" x="63.623047"/>
       <use xlink:href="#DejaVuSans-32" x="127.246094"/>
       <use xlink:href="#DejaVuSans-33" x="190.869141"/>
       <use xlink:href="#DejaVuSans-2d" x="254.492188"/>
       <use xlink:href="#DejaVuSans-30" x="290.576172"/>
       <use xlink:href="#DejaVuSans-34" x="354.199219"/>
       <use xlink:href="#DejaVuSans-2d" x="417.822266"/>
       <use xlink:href="#DejaVuSans-31" x="453.90625"/>
       <use xlink:href="#DejaVuSans-35" x="517.529297"/>
      </g>
     </g>
    </g>
   </g>
   <g id="matplotlib.axis_2">
    <g id="ytick_1">
     <g id="line2d_17">
      <defs>
       <path id="mfbbb05c048" d="M 0 0 
L -3.5 0 
" style="stroke: #000000; stroke-width: 0.8"/>
      </defs>
      <g>
       <use xlink:href="#mfbbb05c048" x="103.074841" y="356.495433" style="stroke: #000000; stroke-width: 0.8"/>
      </g>
     </g>
     <g id="text_17">
      <!-- 0.10 -->
      <g transform="translate(34.784216 364.093871) scale(0.2 -0.2)">
       <defs>
        <path id="DejaVuSans-2212" d="M 678 2272 
L 4684 2272 
L 4684 1741 
L 678 1741 
L 678 2272 
z
" transform="scale(0.015625)"/>
        <path id="DejaVuSans-2e" d="M 684 794 
L 1344 794 
L 1344 0 
L 684 0 
L 684 794 
z
" transform="scale(0.015625)"/>
       </defs>
       <use xlink:href="#DejaVuSans-2212"/>
       <use xlink:href="#DejaVuSans-30" x="83.789062"/>
       <use xlink:href="#DejaVuSans-2e" x="147.412109"/>
       <use xlink:href="#DejaVuSans-31" x="179.199219"/>
       <use xlink:href="#DejaVuSans-30" x="242.822266"/>
      </g>
     </g>
    </g>
    <g id="ytick_2">
     <g id="line2d_18">
      <g>
       <use xlink:href="#mfbbb05c048" x="103.074841" y="289.620515" style="stroke: #000000; stroke-width: 0.8"/>
      </g>
     </g>
     <g id="text_18">
      <!-- 0.05 -->
      <g transform="translate(34.784216 297.218952) scale(0.2 -0.2)">
       <use xlink:href="#DejaVuSans-2212"/>
       <use xlink:href="#DejaVuSans-30" x="83.789062"/>
       <use xlink:href="#DejaVuSans-2e" x="147.412109"/>
       <use xlink:href="#DejaVuSans-30" x="179.199219"/>
       <use xlink:href="#DejaVuSans-35" x="242.822266"/>
      </g>
     </g>
    </g>
    <g id="ytick_3">
     <g id="line2d_19">
      <g>
       <use xlink:href="#mfbbb05c048" x="103.074841" y="222.745596" style="stroke: #000000; stroke-width: 0.8"/>
      </g>
     </g>
     <g id="text_19">
      <!-- 0.00 -->
      <g transform="translate(51.543591 230.344034) scale(0.2 -0.2)">
       <use xlink:href="#DejaVuSans-30"/>
       <use xlink:href="#DejaVuSans-2e" x="63.623047"/>
       <use xlink:href="#DejaVuSans-30" x="95.410156"/>
       <use xlink:href="#DejaVuSans-30" x="159.033203"/>
      </g>
     </g>
    </g>
    <g id="ytick_4">
     <g id="line2d_20">
      <g>
       <use xlink:href="#mfbbb05c048" x="103.074841" y="155.870678" style="stroke: #000000; stroke-width: 0.8"/>
      </g>
     </g>
     <g id="text_20">
      <!-- 0.05 -->
      <g transform="translate(51.543591 163.469115) scale(0.2 -0.2)">
       <use xlink:href="#DejaVuSans-30"/>
       <use xlink:href="#DejaVuSans-2e" x="63.623047"/>
       <use xlink:href="#DejaVuSans-30" x="95.410156"/>
       <use xlink:href="#DejaVuSans-35" x="159.033203"/>
      </g>
     </g>
    </g>
    <g id="ytick_5">
     <g id="line2d_21">
      <g>
       <use xlink:href="#mfbbb05c048" x="103.074841" y="88.99576" style="stroke: #000000; stroke-width: 0.8"/>
      </g>
     </g>
     <g id="text_21">
      <!-- 0.10 -->
      <g transform="translate(51.543591 96.594197) scale(0.2 -0.2)">
       <use xlink:href="#DejaVuSans-30"/>
       <use xlink:href="#DejaVuSans-2e" x="63.623047"/>
       <use xlink:href="#DejaVuSans-31" x="95.410156"/>
       <use xlink:href="#DejaVuSans-30" x="159.033203"/>
      </g>
     </g>
    </g>
    <g id="ytick_6">
     <g id="line2d_22">
      <g>
       <use xlink:href="#mfbbb05c048" x="103.074841" y="22.120841" style="stroke: #000000; stroke-width: 0.8"/>
      </g>
     </g>
     <g id="text_22">
      <!-- 0.15 -->
      <g transform="translate(51.543591 29.719279) scale(0.2 -0.2)">
       <use xlink:href="#DejaVuSans-30"/>
       <use xlink:href="#DejaVuSans-2e" x="63.623047"/>
       <use xlink:href="#DejaVuSans-31" x="95.410156"/>
       <use xlink:href="#DejaVuSans-35" x="159.033203"/>
      </g>
     </g>
    </g>
    <g id="text_23">
     <!-- Relative fitness $\gamma_y$ -->
     <g transform="translate(24.584216 291.84) rotate(-90) scale(0.2 -0.2)">
      <defs>
       <path id="DejaVuSans-52" d="M 2841 2188 
Q 3044 2119 3236 1894 
Q 3428 1669 3622 1275 
L 4263 0 
L 3584 0 
L 2988 1197 
Q 2756 1666 2539 1819 
Q 2322 1972 1947 1972 
L 1259 1972 
L 1259 0 
L 628 0 
L 628 4666 
L 2053 4666 
Q 2853 4666 3247 4331 
Q 3641 3997 3641 3322 
Q 3641 2881 3436 2590 
Q 3231 2300 2841 2188 
z
M 1259 4147 
L 1259 2491 
L 2053 2491 
Q 2509 2491 2742 2702 
Q 2975 2913 2975 3322 
Q 2975 3731 2742 3939 
Q 2509 4147 2053 4147 
L 1259 4147 
z
" transform="scale(0.015625)"/>
       <path id="DejaVuSans-65" d="M 3597 1894 
L 3597 1613 
L 953 1613 
Q 991 1019 1311 708 
Q 1631 397 2203 397 
Q 2534 397 2845 478 
Q 3156 559 3463 722 
L 3463 178 
Q 3153 47 2828 -22 
Q 2503 -91 2169 -91 
Q 1331 -91 842 396 
Q 353 884 353 1716 
Q 353 2575 817 3079 
Q 1281 3584 2069 3584 
Q 2775 3584 3186 3129 
Q 3597 2675 3597 1894 
z
M 3022 2063 
Q 3016 2534 2758 2815 
Q 2500 3097 2075 3097 
Q 1594 3097 1305 2825 
Q 1016 2553 972 2059 
L 3022 2063 
z
" transform="scale(0.015625)"/>
       <path id="DejaVuSans-6c" d="M 603 4863 
L 1178 4863 
L 1178 0 
L 603 0 
L 603 4863 
z
" transform="scale(0.015625)"/>
       <path id="DejaVuSans-61" d="M 2194 1759 
Q 1497 1759 1228 1600 
Q 959 1441 959 1056 
Q 959 750 1161 570 
Q 1363 391 1709 391 
Q 2188 391 2477 730 
Q 2766 1069 2766 1631 
L 2766 1759 
L 2194 1759 
z
M 3341 1997 
L 3341 0 
L 2766 0 
L 2766 531 
Q 2569 213 2275 61 
Q 1981 -91 1556 -91 
Q 1019 -91 701 211 
Q 384 513 384 1019 
Q 384 1609 779 1909 
Q 1175 2209 1959 2209 
L 2766 2209 
L 2766 2266 
Q 2766 2663 2505 2880 
Q 2244 3097 1772 3097 
Q 1472 3097 1187 3025 
Q 903 2953 641 2809 
L 641 3341 
Q 956 3463 1253 3523 
Q 1550 3584 1831 3584 
Q 2591 3584 2966 3190 
Q 3341 2797 3341 1997 
z
" transform="scale(0.015625)"/>
       <path id="DejaVuSans-74" d="M 1172 4494 
L 1172 3500 
L 2356 3500 
L 2356 3053 
L 1172 3053 
L 1172 1153 
Q 1172 725 1289 603 
Q 1406 481 1766 481 
L 2356 481 
L 2356 0 
L 1766 0 
Q 1100 0 847 248 
Q 594 497 594 1153 
L 594 3053 
L 172 3053 
L 172 3500 
L 594 3500 
L 594 4494 
L 1172 4494 
z
" transform="scale(0.015625)"/>
       <path id="DejaVuSans-69" d="M 603 3500 
L 1178 3500 
L 1178 0 
L 603 0 
L 603 3500 
z
M 603 4863 
L 1178 4863 
L 1178 4134 
L 603 4134 
L 603 4863 
z
" transform="scale(0.015625)"/>
       <path id="DejaVuSans-76" d="M 191 3500 
L 800 3500 
L 1894 563 
L 2988 3500 
L 3597 3500 
L 2284 0 
L 1503 0 
L 191 3500 
z
" transform="scale(0.015625)"/>
       <path id="DejaVuSans-20" transform="scale(0.015625)"/>
       <path id="DejaVuSans-66" d="M 2375 4863 
L 2375 4384 
L 1825 4384 
Q 1516 4384 1395 4259 
Q 1275 4134 1275 3809 
L 1275 3500 
L 2222 3500 
L 2222 3053 
L 1275 3053 
L 1275 0 
L 697 0 
L 697 3053 
L 147 3053 
L 147 3500 
L 697 3500 
L 697 3744 
Q 697 4328 969 4595 
Q 1241 4863 1831 4863 
L 2375 4863 
z
" transform="scale(0.015625)"/>
       <path id="DejaVuSans-6e" d="M 3513 2113 
L 3513 0 
L 2938 0 
L 2938 2094 
Q 2938 2591 2744 2837 
Q 2550 3084 2163 3084 
Q 1697 3084 1428 2787 
Q 1159 2491 1159 1978 
L 1159 0 
L 581 0 
L 581 3500 
L 1159 3500 
L 1159 2956 
Q 1366 3272 1645 3428 
Q 1925 3584 2291 3584 
Q 2894 3584 3203 3211 
Q 3513 2838 3513 2113 
z
" transform="scale(0.015625)"/>
       <path id="DejaVuSans-73" d="M 2834 3397 
L 2834 2853 
Q 2591 2978 2328 3040 
Q 2066 3103 1784 3103 
Q 1356 3103 1142 2972 
Q 928 2841 928 2578 
Q 928 2378 1081 2264 
Q 1234 2150 1697 2047 
L 1894 2003 
Q 2506 1872 2764 1633 
Q 3022 1394 3022 966 
Q 3022 478 2636 193 
Q 2250 -91 1575 -91 
Q 1294 -91 989 -36 
Q 684 19 347 128 
L 347 722 
Q 666 556 975 473 
Q 1284 391 1588 391 
Q 1994 391 2212 530 
Q 2431 669 2431 922 
Q 2431 1156 2273 1281 
Q 2116 1406 1581 1522 
L 1381 1569 
Q 847 1681 609 1914 
Q 372 2147 372 2553 
Q 372 3047 722 3315 
Q 1072 3584 1716 3584 
Q 2034 3584 2315 3537 
Q 2597 3491 2834 3397 
z
" transform="scale(0.015625)"/>
       <path id="DejaVuSans-Oblique-3b3" d="M 1491 2950 
L 1838 788 
L 3456 3500 
L 4066 3500 
L 1972 0 
L 1713 -1331 
L 1138 -1331 
L 1397 0 
L 988 2613 
Q 925 3006 628 3006 
L 475 3006 
L 569 3500 
L 788 3500 
Q 1403 3500 1491 2950 
z
" transform="scale(0.015625)"/>
       <path id="DejaVuSans-Oblique-79" d="M 1588 -325 
Q 1188 -997 936 -1164 
Q 684 -1331 294 -1331 
L -159 -1331 
L -63 -850 
L 269 -850 
Q 509 -850 678 -719 
Q 847 -588 1056 -206 
L 1234 128 
L 459 3500 
L 1069 3500 
L 1650 819 
L 3256 3500 
L 3859 3500 
L 1588 -325 
z
" transform="scale(0.015625)"/>
      </defs>
      <use xlink:href="#DejaVuSans-52" transform="translate(0 0.015625)"/>
      <use xlink:href="#DejaVuSans-65" transform="translate(69.482422 0.015625)"/>
      <use xlink:href="#DejaVuSans-6c" transform="translate(131.005859 0.015625)"/>
      <use xlink:href="#DejaVuSans-61" transform="translate(158.789062 0.015625)"/>
      <use xlink:href="#DejaVuSans-74" transform="translate(220.068359 0.015625)"/>
      <use xlink:href="#DejaVuSans-69" transform="translate(259.277344 0.015625)"/>
      <use xlink:href="#DejaVuSans-76" transform="translate(287.060547 0.015625)"/>
      <use xlink:href="#DejaVuSans-65" transform="translate(346.240234 0.015625)"/>
      <use xlink:href="#DejaVuSans-20" transform="translate(407.763672 0.015625)"/>
      <use xlink:href="#DejaVuSans-66" transform="translate(439.550781 0.015625)"/>
      <use xlink:href="#DejaVuSans-69" transform="translate(474.755859 0.015625)"/>
      <use xlink:href="#DejaVuSans-74" transform="translate(502.539062 0.015625)"/>
      <use xlink:href="#DejaVuSans-6e" transform="translate(541.748047 0.015625)"/>
      <use xlink:href="#DejaVuSans-65" transform="translate(605.126953 0.015625)"/>
      <use xlink:href="#DejaVuSans-73" transform="translate(666.650391 0.015625)"/>
      <use xlink:href="#DejaVuSans-73" transform="translate(718.75 0.015625)"/>
      <use xlink:href="#DejaVuSans-20" transform="translate(770.849609 0.015625)"/>
      <use xlink:href="#DejaVuSans-Oblique-3b3" transform="translate(802.636719 0.015625)"/>
      <use xlink:href="#DejaVuSans-Oblique-79" transform="translate(861.816406 -16.390625) scale(0.7)"/>
     </g>
    </g>
   </g>
   <g id="line2d_23">
    <path d="M 103.074841 222.745596 
L 1041.965466 222.745596 
" clip-path="url(#p75bbac4bda)" style="fill: none; stroke-dasharray: 7.4,3.2; stroke-dashoffset: 0; stroke: #000000; stroke-width: 2"/>
   </g>
   <g id="patch_3">
    <path d="M 103.074841 395.28 
L 103.074841 7.2 
" style="fill: none; stroke: #000000; stroke-width: 0.8; stroke-linejoin: miter; stroke-linecap: square"/>
   </g>
   <g id="patch_4">
    <path d="M 940.074841 395.28 
L 940.074841 7.2 
" style="fill: none; stroke: #000000; stroke-width: 0.8; stroke-linejoin: miter; stroke-linecap: square"/>
   </g>
   <g id="patch_5">
    <path d="M 103.074841 395.28 
L 940.074841 395.28 
" style="fill: none; stroke: #000000; stroke-width: 0.8; stroke-linejoin: miter; stroke-linecap: square"/>
   </g>
   <g id="patch_6">
    <path d="M 103.074841 7.2 
L 940.074841 7.2 
" style="fill: none; stroke: #000000; stroke-width: 0.8; stroke-linejoin: miter; stroke-linecap: square"/>
   </g>
  </g>
  <g id="axes_2">
   <g id="matplotlib.axis_3">
    <g id="ytick_7">
     <g id="line2d_24">
      <defs>
       <path id="m79240b1226" d="M 0 0 
L 3.5 0 
" style="stroke: #000000; stroke-width: 0.8"/>
      </defs>
      <g>
       <use xlink:href="#m79240b1226" x="940.074841" y="356.495433" style="stroke: #000000; stroke-width: 0.8"/>
      </g>
     </g>
     <g id="text_24">
      <!-- 0.10 -->
      <g transform="translate(947.074841 364.093871) scale(0.2 -0.2)">
       <use xlink:href="#DejaVuSans-2212"/>
       <use xlink:href="#DejaVuSans-30" x="83.789062"/>
       <use xlink:href="#DejaVuSans-2e" x="147.412109"/>
       <use xlink:href="#DejaVuSans-31" x="179.199219"/>
       <use xlink:href="#DejaVuSans-30" x="242.822266"/>
      </g>
     </g>
    </g>
    <g id="ytick_8">
     <g id="line2d_25">
      <g>
       <use xlink:href="#m79240b1226" x="940.074841" y="289.620515" style="stroke: #000000; stroke-width: 0.8"/>
      </g>
     </g>
     <g id="text_25">
      <!-- 0.05 -->
      <g transform="translate(947.074841 297.218952) scale(0.2 -0.2)">
       <use xlink:href="#DejaVuSans-2212"/>
       <use xlink:href="#DejaVuSans-30" x="83.789062"/>
       <use xlink:href="#DejaVuSans-2e" x="147.412109"/>
       <use xlink:href="#DejaVuSans-30" x="179.199219"/>
       <use xlink:href="#DejaVuSans-35" x="242.822266"/>
      </g>
     </g>
    </g>
    <g id="ytick_9">
     <g id="line2d_26">
      <g>
       <use xlink:href="#m79240b1226" x="940.074841" y="222.745596" style="stroke: #000000; stroke-width: 0.8"/>
      </g>
     </g>
     <g id="text_26">
      <!-- 0.00 -->
      <g transform="translate(947.074841 230.344034) scale(0.2 -0.2)">
       <use xlink:href="#DejaVuSans-30"/>
       <use xlink:href="#DejaVuSans-2e" x="63.623047"/>
       <use xlink:href="#DejaVuSans-30" x="95.410156"/>
       <use xlink:href="#DejaVuSans-30" x="159.033203"/>
      </g>
     </g>
    </g>
    <g id="ytick_10">
     <g id="line2d_27">
      <g>
       <use xlink:href="#m79240b1226" x="940.074841" y="155.870678" style="stroke: #000000; stroke-width: 0.8"/>
      </g>
     </g>
     <g id="text_27">
      <!-- 0.05 -->
      <g transform="translate(947.074841 163.469115) scale(0.2 -0.2)">
       <use xlink:href="#DejaVuSans-30"/>
       <use xlink:href="#DejaVuSans-2e" x="63.623047"/>
       <use xlink:href="#DejaVuSans-30" x="95.410156"/>
       <use xlink:href="#DejaVuSans-35" x="159.033203"/>
      </g>
     </g>
    </g>
    <g id="ytick_11">
     <g id="line2d_28">
      <g>
       <use xlink:href="#m79240b1226" x="940.074841" y="88.99576" style="stroke: #000000; stroke-width: 0.8"/>
      </g>
     </g>
     <g id="text_28">
      <!-- 0.10 -->
      <g transform="translate(947.074841 96.594197) scale(0.2 -0.2)">
       <use xlink:href="#DejaVuSans-30"/>
       <use xlink:href="#DejaVuSans-2e" x="63.623047"/>
       <use xlink:href="#DejaVuSans-31" x="95.410156"/>
       <use xlink:href="#DejaVuSans-30" x="159.033203"/>
      </g>
     </g>
    </g>
    <g id="ytick_12">
     <g id="line2d_29">
      <g>
       <use xlink:href="#m79240b1226" x="940.074841" y="22.120841" style="stroke: #000000; stroke-width: 0.8"/>
      </g>
     </g>
     <g id="text_29">
      <!-- 0.15 -->
      <g transform="translate(947.074841 29.719279) scale(0.2 -0.2)">
       <use xlink:href="#DejaVuSans-30"/>
       <use xlink:href="#DejaVuSans-2e" x="63.623047"/>
       <use xlink:href="#DejaVuSans-31" x="95.410156"/>
       <use xlink:href="#DejaVuSans-35" x="159.033203"/>
      </g>
     </g>
    </g>
    <g id="text_30">
     <!-- Change in proportion $\gamma_{prop}$ -->
     <g transform="translate(1027.565466 332.74) rotate(-90) scale(0.2 -0.2)">
      <defs>
       <path id="DejaVuSans-43" d="M 4122 4306 
L 4122 3641 
Q 3803 3938 3442 4084 
Q 3081 4231 2675 4231 
Q 1875 4231 1450 3742 
Q 1025 3253 1025 2328 
Q 1025 1406 1450 917 
Q 1875 428 2675 428 
Q 3081 428 3442 575 
Q 3803 722 4122 1019 
L 4122 359 
Q 3791 134 3420 21 
Q 3050 -91 2638 -91 
Q 1578 -91 968 557 
Q 359 1206 359 2328 
Q 359 3453 968 4101 
Q 1578 4750 2638 4750 
Q 3056 4750 3426 4639 
Q 3797 4528 4122 4306 
z
" transform="scale(0.015625)"/>
       <path id="DejaVuSans-68" d="M 3513 2113 
L 3513 0 
L 2938 0 
L 2938 2094 
Q 2938 2591 2744 2837 
Q 2550 3084 2163 3084 
Q 1697 3084 1428 2787 
Q 1159 2491 1159 1978 
L 1159 0 
L 581 0 
L 581 4863 
L 1159 4863 
L 1159 2956 
Q 1366 3272 1645 3428 
Q 1925 3584 2291 3584 
Q 2894 3584 3203 3211 
Q 3513 2838 3513 2113 
z
" transform="scale(0.015625)"/>
       <path id="DejaVuSans-67" d="M 2906 1791 
Q 2906 2416 2648 2759 
Q 2391 3103 1925 3103 
Q 1463 3103 1205 2759 
Q 947 2416 947 1791 
Q 947 1169 1205 825 
Q 1463 481 1925 481 
Q 2391 481 2648 825 
Q 2906 1169 2906 1791 
z
M 3481 434 
Q 3481 -459 3084 -895 
Q 2688 -1331 1869 -1331 
Q 1566 -1331 1297 -1286 
Q 1028 -1241 775 -1147 
L 775 -588 
Q 1028 -725 1275 -790 
Q 1522 -856 1778 -856 
Q 2344 -856 2625 -561 
Q 2906 -266 2906 331 
L 2906 616 
Q 2728 306 2450 153 
Q 2172 0 1784 0 
Q 1141 0 747 490 
Q 353 981 353 1791 
Q 353 2603 747 3093 
Q 1141 3584 1784 3584 
Q 2172 3584 2450 3431 
Q 2728 3278 2906 2969 
L 2906 3500 
L 3481 3500 
L 3481 434 
z
" transform="scale(0.015625)"/>
       <path id="DejaVuSans-70" d="M 1159 525 
L 1159 -1331 
L 581 -1331 
L 581 3500 
L 1159 3500 
L 1159 2969 
Q 1341 3281 1617 3432 
Q 1894 3584 2278 3584 
Q 2916 3584 3314 3078 
Q 3713 2572 3713 1747 
Q 3713 922 3314 415 
Q 2916 -91 2278 -91 
Q 1894 -91 1617 61 
Q 1341 213 1159 525 
z
M 3116 1747 
Q 3116 2381 2855 2742 
Q 2594 3103 2138 3103 
Q 1681 3103 1420 2742 
Q 1159 2381 1159 1747 
Q 1159 1113 1420 752 
Q 1681 391 2138 391 
Q 2594 391 2855 752 
Q 3116 1113 3116 1747 
z
" transform="scale(0.015625)"/>
       <path id="DejaVuSans-72" d="M 2631 2963 
Q 2534 3019 2420 3045 
Q 2306 3072 2169 3072 
Q 1681 3072 1420 2755 
Q 1159 2438 1159 1844 
L 1159 0 
L 581 0 
L 581 3500 
L 1159 3500 
L 1159 2956 
Q 1341 3275 1631 3429 
Q 1922 3584 2338 3584 
Q 2397 3584 2469 3576 
Q 2541 3569 2628 3553 
L 2631 2963 
z
" transform="scale(0.015625)"/>
       <path id="DejaVuSans-6f" d="M 1959 3097 
Q 1497 3097 1228 2736 
Q 959 2375 959 1747 
Q 959 1119 1226 758 
Q 1494 397 1959 397 
Q 2419 397 2687 759 
Q 2956 1122 2956 1747 
Q 2956 2369 2687 2733 
Q 2419 3097 1959 3097 
z
M 1959 3584 
Q 2709 3584 3137 3096 
Q 3566 2609 3566 1747 
Q 3566 888 3137 398 
Q 2709 -91 1959 -91 
Q 1206 -91 779 398 
Q 353 888 353 1747 
Q 353 2609 779 3096 
Q 1206 3584 1959 3584 
z
" transform="scale(0.015625)"/>
       <path id="DejaVuSans-Oblique-70" d="M 3175 2156 
Q 3175 2616 2975 2859 
Q 2775 3103 2400 3103 
Q 2144 3103 1911 2972 
Q 1678 2841 1497 2591 
Q 1319 2344 1212 1994 
Q 1106 1644 1106 1300 
Q 1106 863 1306 627 
Q 1506 391 1875 391 
Q 2147 391 2380 519 
Q 2613 647 2778 891 
Q 2956 1147 3065 1494 
Q 3175 1841 3175 2156 
z
M 1394 2969 
Q 1625 3272 1939 3428 
Q 2253 3584 2638 3584 
Q 3175 3584 3472 3232 
Q 3769 2881 3769 2247 
Q 3769 1728 3584 1258 
Q 3400 788 3053 416 
Q 2822 169 2531 39 
Q 2241 -91 1919 -91 
Q 1547 -91 1294 64 
Q 1041 219 916 525 
L 556 -1331 
L -19 -1331 
L 922 3500 
L 1497 3500 
L 1394 2969 
z
" transform="scale(0.015625)"/>
       <path id="DejaVuSans-Oblique-72" d="M 2853 2969 
Q 2766 3016 2653 3041 
Q 2541 3066 2413 3066 
Q 1953 3066 1609 2717 
Q 1266 2369 1153 1784 
L 800 0 
L 225 0 
L 909 3500 
L 1484 3500 
L 1375 2956 
Q 1603 3259 1920 3421 
Q 2238 3584 2597 3584 
Q 2691 3584 2781 3573 
Q 2872 3563 2963 3538 
L 2853 2969 
z
" transform="scale(0.015625)"/>
       <path id="DejaVuSans-Oblique-6f" d="M 1625 -91 
Q 1009 -91 651 289 
Q 294 669 294 1325 
Q 294 1706 417 2101 
Q 541 2497 738 2766 
Q 1047 3184 1428 3384 
Q 1809 3584 2291 3584 
Q 2888 3584 3255 3212 
Q 3622 2841 3622 2241 
Q 3622 1825 3500 1412 
Q 3378 1000 3181 728 
Q 2875 309 2494 109 
Q 2113 -91 1625 -91 
z
M 891 1344 
Q 891 869 1089 633 
Q 1288 397 1691 397 
Q 2269 397 2648 901 
Q 3028 1406 3028 2181 
Q 3028 2634 2825 2865 
Q 2622 3097 2228 3097 
Q 1903 3097 1650 2945 
Q 1397 2794 1197 2484 
Q 1050 2253 970 1956 
Q 891 1659 891 1344 
z
" transform="scale(0.015625)"/>
      </defs>
      <use xlink:href="#DejaVuSans-43" transform="translate(0 0.015625)"/>
      <use xlink:href="#DejaVuSans-68" transform="translate(69.824219 0.015625)"/>
      <use xlink:href="#DejaVuSans-61" transform="translate(133.203125 0.015625)"/>
      <use xlink:href="#DejaVuSans-6e" transform="translate(194.482422 0.015625)"/>
      <use xlink:href="#DejaVuSans-67" transform="translate(257.861328 0.015625)"/>
      <use xlink:href="#DejaVuSans-65" transform="translate(321.337891 0.015625)"/>
      <use xlink:href="#DejaVuSans-20" transform="translate(382.861328 0.015625)"/>
      <use xlink:href="#DejaVuSans-69" transform="translate(414.648438 0.015625)"/>
      <use xlink:href="#DejaVuSans-6e" transform="translate(442.431641 0.015625)"/>
      <use xlink:href="#DejaVuSans-20" transform="translate(505.810547 0.015625)"/>
      <use xlink:href="#DejaVuSans-70" transform="translate(537.597656 0.015625)"/>
      <use xlink:href="#DejaVuSans-72" transform="translate(601.074219 0.015625)"/>
      <use xlink:href="#DejaVuSans-6f" transform="translate(642.1875 0.015625)"/>
      <use xlink:href="#DejaVuSans-70" transform="translate(703.369141 0.015625)"/>
      <use xlink:href="#DejaVuSans-6f" transform="translate(766.845703 0.015625)"/>
      <use xlink:href="#DejaVuSans-72" transform="translate(828.027344 0.015625)"/>
      <use xlink:href="#DejaVuSans-74" transform="translate(869.140625 0.015625)"/>
      <use xlink:href="#DejaVuSans-69" transform="translate(908.349609 0.015625)"/>
      <use xlink:href="#DejaVuSans-6f" transform="translate(936.132812 0.015625)"/>
      <use xlink:href="#DejaVuSans-6e" transform="translate(997.314453 0.015625)"/>
      <use xlink:href="#DejaVuSans-20" transform="translate(1060.693359 0.015625)"/>
      <use xlink:href="#DejaVuSans-Oblique-3b3" transform="translate(1092.480469 0.015625)"/>
      <use xlink:href="#DejaVuSans-Oblique-70" transform="translate(1151.660156 -16.390625) scale(0.7)"/>
      <use xlink:href="#DejaVuSans-Oblique-72" transform="translate(1196.09375 -16.390625) scale(0.7)"/>
      <use xlink:href="#DejaVuSans-Oblique-6f" transform="translate(1224.873047 -16.390625) scale(0.7)"/>
      <use xlink:href="#DejaVuSans-Oblique-70" transform="translate(1267.700195 -16.390625) scale(0.7)"/>
     </g>
    </g>
   </g>
   <g id="line2d_30">
    <path d="M 940.074841 222.745596 
" clip-path="url(#p75bbac4bda)" style="fill: none; stroke: #ffa500; stroke-width: 1.5; stroke-linecap: square"/>
   </g>
   <g id="patch_7">
    <path d="M 103.074841 395.28 
L 103.074841 7.2 
" style="fill: none; stroke: #000000; stroke-width: 0.8; stroke-linejoin: miter; stroke-linecap: square"/>
   </g>
   <g id="patch_8">
    <path d="M 940.074841 395.28 
L 940.074841 7.2 
" style="fill: none; stroke: #000000; stroke-width: 0.8; stroke-linejoin: miter; stroke-linecap: square"/>
   </g>
   <g id="patch_9">
    <path d="M 103.074841 395.28 
L 940.074841 395.28 
" style="fill: none; stroke: #000000; stroke-width: 0.8; stroke-linejoin: miter; stroke-linecap: square"/>
   </g>
   <g id="patch_10">
    <path d="M 103.074841 7.2 
L 940.074841 7.2 
" style="fill: none; stroke: #000000; stroke-width: 0.8; stroke-linejoin: miter; stroke-linecap: square"/>
   </g>
  </g>
 </g>
 <defs>
  <clipPath id="p75bbac4bda">
   <rect x="103.074841" y="7.2" width="837" height="388.08"/>
  </clipPath>
 </defs>
</svg>
