<?xml version="1.0" encoding="utf-8" standalone="no"?>
<!DOCTYPE svg PUBLIC "-//W3C//DTD SVG 1.1//EN"
  "http://www.w3.org/Graphics/SVG/1.1/DTD/svg11.dtd">
<svg xmlns:xlink="http://www.w3.org/1999/xlink" width="947.274841pt" height="505.354841pt" viewBox="0 0 947.274841 505.354841" xmlns="http://www.w3.org/2000/svg" version="1.1">
 <metadata>
  <rdf:RDF xmlns:dc="http://purl.org/dc/elements/1.1/" xmlns:cc="http://creativecommons.org/ns#" xmlns:rdf="http://www.w3.org/1999/02/22-rdf-syntax-ns#">
   <cc:Work>
    <dc:type rdf:resource="http://purl.org/dc/dcmitype/StillImage"/>
    <dc:date>2023-11-12T22:44:13.139450</dc:date>
    <dc:format>image/svg+xml</dc:format>
    <dc:creator>
     <cc:Agent>
      <dc:title>Matplotlib v3.7.2, https://matplotlib.org/</dc:title>
     </cc:Agent>
    </dc:creator>
   </cc:Work>
  </rdf:RDF>
 </metadata>
 <defs>
  <style type="text/css">*{stroke-linejoin: round; stroke-linecap: butt}</style>
 </defs>
 <g id="figure_1">
  <g id="patch_1">
   <path d="M 0 505.354841 
L 947.274841 505.354841 
L 947.274841 -0 
L 0 -0 
z
" style="fill: #ffffff"/>
  </g>
  <g id="axes_1">
   <g id="patch_2">
    <path d="M 103.074841 395.28 
L 940.074841 395.28 
L 940.074841 7.2 
L 103.074841 7.2 
z
" style="fill: #ffffff"/>
   </g>
   <g id="PolyCollection_1">
    <path d="M -4315.31939 335.070525 
L -4315.31939 335.071614 
L -4307.271313 335.065863 
L -4299.223236 335.060925 
L -4291.175159 335.054649 
L -4283.127082 335.050589 
L -4275.079005 335.045947 
L -4267.030929 335.040625 
L -4258.982852 335.035359 
L -4250.934775 335.030428 
L -4242.886698 335.026125 
L -4234.838621 335.021125 
L -4226.790544 335.015877 
L -4218.742467 335.010782 
L -4210.69439 335.004477 
L -4202.646313 334.999287 
L -4194.598236 334.993141 
L -4186.550159 334.987899 
L -4178.502082 334.980754 
L -4170.454005 334.974909 
L -4162.405929 334.969289 
L -4154.357852 334.962616 
L -4146.309775 334.956118 
L -4138.261698 334.949778 
L -4130.213621 334.942091 
L -4122.165544 334.935396 
L -4114.117467 334.927533 
L -4106.06939 334.919581 
L -4098.021313 334.910769 
L -4089.973236 334.901714 
L -4081.925159 334.892876 
L -4073.877082 334.88262 
L -4065.829005 334.870991 
L -4057.780929 334.860718 
L -4049.732852 334.84902 
L -4041.684775 334.835627 
L -4033.636698 334.823209 
L -4025.588621 334.808606 
L -4017.540544 334.793788 
L -4009.492467 334.778538 
L -4001.44439 334.762437 
L -3993.396313 334.744565 
L -3985.348236 334.72553 
L -3977.300159 334.705355 
L -3969.252082 334.685961 
L -3961.204005 334.663105 
L -3953.155929 334.641435 
L -3945.107852 334.618342 
L -3937.059775 334.595196 
L -3929.011698 334.570258 
L -3920.963621 334.54322 
L -3912.915544 334.518282 
L -3904.867467 334.490447 
L -3896.81939 334.46163 
L -3888.771313 334.433437 
L -3880.723236 334.405571 
L -3872.675159 334.375279 
L -3864.627082 334.344674 
L -3856.579005 334.314153 
L -3848.530929 334.282333 
L -3840.482852 334.250131 
L -3832.434775 334.218051 
L -3824.386698 334.184865 
L -3816.338621 334.151622 
L -3808.290544 334.118923 
L -3800.242467 334.084845 
L -3792.19439 334.048317 
L -3784.146313 334.01297 
L -3776.098236 333.977715 
L -3768.050159 333.943036 
L -3760.002082 333.90688 
L -3751.954005 333.871587 
L -3743.905929 333.835654 
L -3735.857852 333.803319 
L -3727.809775 333.765019 
L -3719.761698 333.731971 
L -3711.713621 333.695641 
L -3703.665544 333.661079 
L -3695.617467 333.624792 
L -3687.56939 333.592832 
L -3679.521313 333.555957 
L -3671.473236 333.521334 
L -3663.425159 333.488716 
L -3655.377082 333.453854 
L -3647.329005 333.4209 
L -3639.280929 333.38636 
L -3631.232852 333.351121 
L -3623.184775 333.317693 
L -3615.136698 333.285064 
L -3607.088621 333.24984 
L -3599.040544 333.215996 
L -3590.992467 333.181546 
L -3582.94439 333.148049 
L -3574.896313 333.115351 
L -3566.848236 333.081717 
L -3558.800159 333.047726 
L -3550.752082 333.017179 
L -3542.704005 332.982472 
L -3534.655929 332.949233 
L -3526.607852 332.916532 
L -3518.559775 332.883771 
L -3510.511698 332.851074 
L -3502.463621 332.81793 
L -3494.415544 332.786328 
L -3486.367467 332.753424 
L -3478.31939 332.719682 
L -3470.271313 332.685546 
L -3462.223236 332.651027 
L -3454.175159 332.618731 
L -3446.127082 332.583154 
L -3438.079005 332.545195 
L -3430.030929 332.509566 
L -3421.982852 332.471979 
L -3413.934775 332.433808 
L -3405.886698 332.393495 
L -3397.838621 332.352452 
L -3389.790544 332.314339 
L -3381.742467 332.270834 
L -3373.69439 332.229508 
L -3365.646313 332.185014 
L -3357.598236 332.144178 
L -3349.550159 332.096124 
L -3341.502082 332.049028 
L -3333.454005 332.003273 
L -3325.405929 331.956722 
L -3317.357852 331.908734 
L -3309.309775 331.85858 
L -3301.261698 331.811604 
L -3293.213621 331.757759 
L -3285.165544 331.71046 
L -3277.117467 331.655049 
L -3269.06939 331.60138 
L -3261.021313 331.548991 
L -3252.973236 331.498767 
L -3244.925159 331.440099 
L -3236.877082 331.387155 
L -3228.829005 331.319735 
L -3220.780929 331.261819 
L -3212.732852 331.20789 
L -3204.684775 331.146939 
L -3196.636698 331.084426 
L -3188.588621 331.012377 
L -3180.540544 330.944892 
L -3172.492467 330.888677 
L -3164.44439 330.799489 
L -3156.396313 330.727966 
L -3148.348236 330.654896 
L -3140.300159 330.579102 
L -3132.252082 330.492764 
L -3124.204005 330.411639 
L -3116.155929 330.350533 
L -3108.107852 330.272589 
L -3100.059775 330.14439 
L -3092.011698 330.03671 
L -3083.963621 329.957296 
L -3075.915544 329.847191 
L -3067.867467 329.755987 
L -3059.81939 329.676692 
L -3051.771313 329.55613 
L -3043.723236 329.418925 
L -3035.675159 329.325288 
L -3027.627082 329.265661 
L -3019.579005 329.151221 
L -3011.530929 329.108191 
L -3003.482852 329.049233 
L -2995.434775 328.934188 
L -2987.386698 328.945584 
L -2979.338621 328.995782 
L -2971.290544 329.099684 
L -2963.242467 328.988674 
L -2955.19439 329.217189 
L -2947.146313 329.270568 
L -2939.098236 328.970066 
L -2931.050159 329.059076 
L -2923.002082 329.196674 
L -2914.954005 329.12053 
L -2906.905929 329.107341 
L -2898.857852 329.687403 
L -2890.809775 330.511281 
L -2882.761698 330.923706 
L -2874.713621 330.038251 
L -2866.665544 330.499913 
L -2858.617467 331.103586 
L -2850.56939 331.073561 
L -2842.521313 332.297636 
L -2834.473236 332.136969 
L -2826.425159 331.769601 
L -2818.377082 330.850878 
L -2810.329005 331.723794 
L -2802.280929 332.250846 
L -2794.232852 332.037805 
L -2786.184775 332.178984 
L -2778.136698 332.677043 
L -2770.088621 332.61724 
L -2762.040544 332.198204 
L -2753.992467 332.737537 
L -2745.94439 332.84952 
L -2737.896313 332.665367 
L -2729.848236 333.010481 
L -2721.800159 333.141027 
L -2713.752082 333.114327 
L -2705.704005 333.018522 
L -2697.655929 333.136819 
L -2689.607852 333.030504 
L -2681.559775 333.047822 
L -2673.511698 333.161235 
L -2665.463621 333.068719 
L -2657.415544 333.127627 
L -2649.367467 333.137419 
L -2641.31939 333.064099 
L -2633.271313 333.100895 
L -2625.223236 332.992037 
L -2617.175159 333.007016 
L -2609.127082 333.046106 
L -2601.079005 333.054549 
L -2593.030929 333.004449 
L -2584.982852 332.962624 
L -2576.934775 332.956298 
L -2568.886698 332.908844 
L -2560.838621 332.90623 
L -2552.790544 332.901408 
L -2544.742467 332.825685 
L -2536.69439 332.868036 
L -2528.646313 332.818144 
L -2520.598236 332.797752 
L -2512.550159 332.801134 
L -2504.502082 332.750094 
L -2496.454005 332.737588 
L -2488.405929 332.754269 
L -2480.357852 332.780311 
L -2472.309775 332.69123 
L -2464.261698 332.671954 
L -2456.213621 332.638463 
L -2448.165544 332.7782 
L -2440.117467 332.77094 
L -2432.06939 332.814498 
L -2424.021313 332.65906 
L -2415.973236 332.55803 
L -2407.925159 332.570783 
L -2399.877082 332.651035 
L -2391.829005 332.647378 
L -2383.780929 332.455985 
L -2375.732852 332.578497 
L -2367.684775 332.517828 
L -2359.636698 332.46798 
L -2351.588621 332.361982 
L -2343.540544 332.397494 
L -2335.492467 332.328371 
L -2327.44439 332.331338 
L -2319.396313 332.244464 
L -2311.348236 332.166809 
L -2303.300159 332.055375 
L -2295.252082 331.980881 
L -2287.204005 331.908107 
L -2279.155929 331.821857 
L -2271.107852 331.767537 
L -2263.059775 331.679953 
L -2255.011698 331.587124 
L -2246.963621 331.421439 
L -2238.915544 331.283119 
L -2230.867467 331.192027 
L -2222.81939 331.043836 
L -2214.771313 330.970476 
L -2206.723236 330.829516 
L -2198.675159 330.647818 
L -2190.627082 330.486457 
L -2182.579005 330.349128 
L -2174.530929 330.161666 
L -2166.482852 330.022399 
L -2158.434775 329.850446 
L -2150.386698 329.691719 
L -2142.338621 329.504997 
L -2134.290544 329.34067 
L -2126.242467 329.139578 
L -2118.19439 328.9675 
L -2110.146313 328.786261 
L -2102.098236 328.563009 
L -2094.050159 328.350923 
L -2086.002082 328.177263 
L -2077.954005 327.994793 
L -2069.905929 327.777317 
L -2061.857852 327.591388 
L -2053.809775 327.378876 
L -2045.761698 327.099381 
L -2037.713621 326.942602 
L -2029.665544 326.695587 
L -2021.617467 326.487254 
L -2013.56939 326.261594 
L -2005.521313 326.023378 
L -1997.473236 325.783597 
L -1989.425159 325.55628 
L -1981.377082 325.273366 
L -1973.329005 325.070672 
L -1965.280929 324.792212 
L -1957.232852 324.587165 
L -1949.184775 324.302766 
L -1941.136698 324.023794 
L -1933.088621 323.762121 
L -1925.040544 323.541203 
L -1916.992467 323.228111 
L -1908.94439 322.990959 
L -1900.896313 322.704413 
L -1892.848236 322.455968 
L -1884.800159 322.157409 
L -1876.752082 321.885363 
L -1868.704005 321.78036 
L -1860.655929 321.324358 
L -1852.607852 321.185187 
L -1844.559775 320.876711 
L -1836.511698 320.63916 
L -1828.463621 320.373851 
L -1820.415544 320.096497 
L -1812.367467 319.838632 
L -1804.31939 319.587573 
L -1796.271313 319.347302 
L -1788.223236 319.107123 
L -1780.175159 319.151431 
L -1772.127082 318.600593 
L -1764.079005 318.406181 
L -1756.030929 318.71927 
L -1747.982852 318.074454 
L -1739.934775 318.098374 
L -1731.886698 317.966097 
L -1723.838621 317.601192 
L -1715.790544 317.587538 
L -1707.742467 317.815676 
L -1699.69439 317.543724 
L -1691.646313 317.389922 
L -1683.598236 317.518077 
L -1675.550159 317.400407 
L -1667.502082 317.477841 
L -1659.454005 317.602446 
L -1651.405929 317.882896 
L -1643.357852 318.693337 
L -1635.309775 318.535905 
L -1627.261698 319.02785 
L -1619.213621 319.406256 
L -1611.165544 319.640383 
L -1603.117467 320.168062 
L -1595.06939 320.519244 
L -1587.021313 319.97717 
L -1578.973236 320.597306 
L -1570.925159 321.360783 
L -1562.877082 321.739647 
L -1554.829005 321.924537 
L -1546.780929 322.930568 
L -1538.732852 323.031273 
L -1530.684775 323.32122 
L -1522.636698 323.270775 
L -1514.588621 324.122855 
L -1506.540544 323.886772 
L -1498.492467 323.761857 
L -1490.44439 324.491832 
L -1482.396313 325.016025 
L -1474.348236 324.992187 
L -1466.300159 325.310742 
L -1458.252082 325.426665 
L -1450.204005 325.462692 
L -1442.155929 325.479703 
L -1434.107852 325.66166 
L -1426.059775 325.770788 
L -1418.011698 326.300025 
L -1409.963621 326.04996 
L -1401.915544 326.510401 
L -1393.867467 326.420836 
L -1385.81939 326.370636 
L -1377.771313 326.560957 
L -1369.723236 326.73045 
L -1361.675159 326.532644 
L -1353.627082 326.638579 
L -1345.579005 326.648853 
L -1337.530929 326.894004 
L -1329.482852 326.774177 
L -1321.434775 326.71685 
L -1313.386698 326.783276 
L -1305.338621 326.894827 
L -1297.290544 326.829792 
L -1289.242467 326.703958 
L -1281.19439 326.757275 
L -1273.146313 326.566783 
L -1265.098236 326.569217 
L -1257.050159 326.840753 
L -1249.002082 326.802532 
L -1240.954005 326.614926 
L -1232.905929 326.548722 
L -1224.857852 326.539815 
L -1216.809775 326.333099 
L -1208.761698 326.344259 
L -1200.713621 326.310147 
L -1192.665544 326.237777 
L -1184.617467 326.153851 
L -1176.56939 326.007229 
L -1168.521313 326.033918 
L -1160.473236 325.92162 
L -1152.425159 325.866293 
L -1144.377082 325.787748 
L -1136.329005 325.753429 
L -1128.280929 325.630682 
L -1120.232852 325.440131 
L -1112.184775 325.395694 
L -1104.136698 325.23513 
L -1096.088621 325.020841 
L -1088.040544 325.117977 
L -1079.992467 324.841163 
L -1071.94439 324.911981 
L -1063.896313 324.835872 
L -1055.848236 324.825225 
L -1047.800159 324.642005 
L -1039.752082 324.606179 
L -1031.704005 324.560659 
L -1023.655929 324.344289 
L -1015.607852 324.373596 
L -1007.559775 324.33846 
L -999.511698 324.314017 
L -991.463621 324.205968 
L -983.415544 324.235774 
L -975.367467 324.127531 
L -967.31939 324.025342 
L -959.271313 323.871442 
L -951.223236 323.816613 
L -943.175159 323.778415 
L -935.127082 323.671185 
L -927.079005 323.680125 
L -919.030929 323.625828 
L -910.982852 323.532003 
L -902.934775 323.531544 
L -894.886698 323.426973 
L -886.838621 323.508548 
L -878.790544 323.435809 
L -870.742467 323.43752 
L -862.69439 323.310259 
L -854.646313 323.137534 
L -846.598236 323.283281 
L -838.550159 323.278465 
L -830.502082 323.222904 
L -822.454005 323.165724 
L -814.405929 323.047231 
L -806.357852 323.021805 
L -798.309775 322.958049 
L -790.261698 322.970295 
L -782.213621 322.948012 
L -774.165544 322.836676 
L -766.117467 322.677656 
L -758.06939 322.890621 
L -750.021313 322.843261 
L -741.973236 322.708629 
L -733.925159 322.798543 
L -725.877082 322.555246 
L -717.829005 322.587333 
L -709.780929 322.604609 
L -701.732852 322.439204 
L -693.684775 322.723218 
L -685.636698 322.438789 
L -677.588621 322.293595 
L -669.540544 322.477435 
L -661.492467 322.525238 
L -653.44439 322.431519 
L -645.396313 322.499353 
L -637.348236 322.363679 
L -629.300159 322.611452 
L -621.252082 322.475157 
L -613.204005 322.519243 
L -605.155929 322.336707 
L -597.107852 322.171212 
L -589.059775 322.357827 
L -581.011698 322.700463 
L -572.963621 322.283819 
L -564.915544 322.293093 
L -556.867467 322.128546 
L -548.81939 322.18613 
L -540.771313 322.152267 
L -532.723236 322.045306 
L -524.675159 321.997305 
L -516.627082 322.157529 
L -508.579005 322.055706 
L -500.530929 322.202571 
L -492.482852 322.222022 
L -484.434775 321.754005 
L -476.386698 321.936013 
L -468.338621 321.945742 
L -460.290544 321.973166 
L -452.242467 321.99835 
L -444.19439 322.290645 
L -436.146313 322.407427 
L -428.098236 322.394692 
L -420.050159 322.720481 
L -412.002082 323.259906 
L -403.954005 322.624662 
L -395.905929 322.622076 
L -387.857852 322.641108 
L -379.809775 322.859709 
L -371.761698 322.914767 
L -363.713621 322.919926 
L -355.665544 323.38859 
L -347.617467 323.56553 
L -339.56939 323.046696 
L -331.521313 323.527877 
L -323.473236 323.298734 
L -315.425159 323.157638 
L -307.377082 323.739642 
L -299.329005 323.628299 
L -291.280929 324.004411 
L -283.232852 323.892975 
L -275.184775 323.642569 
L -267.136698 323.877324 
L -259.088621 323.878075 
L -251.040544 324.108023 
L -242.992467 323.962905 
L -234.94439 324.340469 
L -226.896313 324.066945 
L -218.848236 324.265421 
L -210.800159 324.222861 
L -202.752082 324.441156 
L -194.704005 324.083938 
L -186.655929 324.462141 
L -178.607852 324.438982 
L -170.559775 324.696742 
L -162.511698 324.831645 
L -154.463621 324.830496 
L -146.415544 324.761974 
L -138.367467 324.927693 
L -130.31939 325.051065 
L -122.271313 324.938373 
L -114.223236 324.895198 
L -106.175159 325.040527 
L -98.127082 325.172514 
L -90.079005 324.940282 
L -82.030929 324.806018 
L -73.982852 325.333392 
L -65.934775 325.572716 
L -57.886698 325.031601 
L -49.838621 325.190441 
L -41.790544 325.270159 
L -33.742467 325.308866 
L -25.69439 325.580597 
L -17.646313 325.546634 
L -9.598236 325.437047 
L -1.550159 325.556777 
L 6.497918 325.590993 
L 14.545995 325.302286 
L 22.594071 325.452689 
L 30.642148 325.364826 
L 38.690225 325.771944 
L 46.738302 326.273572 
L 54.786379 326.208866 
L 62.834456 325.821745 
L 70.882533 325.786054 
L 78.93061 325.847072 
L 86.978687 325.873426 
L 95.026764 326.249296 
L 103.074841 325.78952 
L 111.122918 326.291005 
L 119.170995 326.697029 
L 127.219071 326.376635 
L 135.267148 326.896728 
L 143.315225 326.589856 
L 151.363302 326.880334 
L 159.411379 326.711176 
L 167.459456 326.860695 
L 175.507533 327.147047 
L 183.55561 327.142741 
L 191.603687 327.24081 
L 199.651764 327.277521 
L 207.699841 327.322222 
L 215.747918 326.673559 
L 223.795995 327.546674 
L 231.844071 327.916105 
L 239.892148 327.592317 
L 247.940225 327.921292 
L 255.988302 328.009032 
L 264.036379 327.85017 
L 272.084456 328.220649 
L 280.132533 328.477817 
L 288.18061 328.361576 
L 296.228687 328.475537 
L 304.276764 328.550134 
L 312.324841 328.657993 
L 320.372918 328.948758 
L 328.420995 328.431361 
L 336.469071 329.133359 
L 344.517148 329.178643 
L 352.565225 329.236193 
L 360.613302 328.845226 
L 368.661379 329.384392 
L 376.709456 329.754125 
L 384.757533 329.44006 
L 392.80561 329.510721 
L 400.853687 330.01828 
L 408.901764 329.223626 
L 416.949841 330.028165 
L 424.997918 329.578082 
L 433.045995 330.288095 
L 441.094071 330.008336 
L 449.142148 330.337125 
L 457.190225 330.466488 
L 465.238302 330.633386 
L 473.286379 330.712997 
L 481.334456 330.573708 
L 489.382533 330.618993 
L 497.43061 330.752641 
L 505.478687 331.102674 
L 513.526764 331.108444 
L 521.574841 331.145636 
L 529.622918 331.379383 
L 537.670995 331.437933 
L 545.719071 331.333382 
L 553.767148 331.398086 
L 561.815225 331.726992 
L 569.863302 331.81501 
L 577.911379 331.931536 
L 585.959456 331.751874 
L 594.007533 331.455737 
L 602.05561 331.87288 
L 610.103687 331.800876 
L 618.151764 331.944458 
L 626.199841 332.148115 
L 634.247918 331.9825 
L 642.295995 332.287171 
L 650.344071 332.136379 
L 658.392148 332.145642 
L 666.440225 332.167848 
L 674.488302 332.435824 
L 682.536379 332.41174 
L 690.584456 332.425132 
L 698.632533 332.289423 
L 706.68061 332.410973 
L 714.728687 332.481093 
L 722.776764 332.464303 
L 730.824841 332.646156 
L 738.872918 332.636495 
L 746.920995 332.747702 
L 754.969071 332.867969 
L 763.017148 332.882613 
L 771.065225 332.810943 
L 779.113302 332.854959 
L 787.161379 332.814729 
L 795.209456 332.905139 
L 803.257533 332.936499 
L 811.30561 332.841755 
L 819.353687 332.973033 
L 827.401764 332.452281 
L 835.449841 332.981273 
L 843.497918 333.181323 
L 851.545995 332.975031 
L 859.594071 332.975388 
L 867.642148 333.170797 
L 875.690225 333.175583 
L 883.738302 332.988327 
L 891.786379 332.973019 
L 899.834456 333.091185 
L 907.882533 333.04219 
L 915.93061 333.269328 
L 923.978687 333.180329 
L 932.026764 333.355337 
L 940.074841 333.140223 
L 940.074841 328.878772 
L 940.074841 328.878772 
L 932.026764 328.647868 
L 923.978687 328.365163 
L 915.93061 328.620417 
L 907.882533 328.064084 
L 899.834456 328.184385 
L 891.786379 328.081451 
L 883.738302 327.497543 
L 875.690225 328.183565 
L 867.642148 328.5368 
L 859.594071 327.450624 
L 851.545995 327.875179 
L 843.497918 328.279568 
L 835.449841 327.956426 
L 827.401764 324.457766 
L 819.353687 327.781572 
L 811.30561 327.113861 
L 803.257533 327.750985 
L 795.209456 327.662942 
L 787.161379 327.366296 
L 779.113302 327.356872 
L 771.065225 327.254212 
L 763.017148 327.609985 
L 754.969071 327.590467 
L 746.920995 327.051318 
L 738.872918 326.684673 
L 730.824841 326.941277 
L 722.776764 326.425771 
L 714.728687 326.587611 
L 706.68061 326.274639 
L 698.632533 325.885007 
L 690.584456 326.362887 
L 682.536379 326.392 
L 674.488302 326.367916 
L 666.440225 325.758105 
L 658.392148 325.607353 
L 650.344071 325.55839 
L 642.295995 326.213084 
L 634.247918 325.24736 
L 626.199841 325.857988 
L 618.151764 325.283669 
L 610.103687 324.844447 
L 602.05561 325.161212 
L 594.007533 323.633297 
L 585.959456 324.946367 
L 577.911379 325.47221 
L 569.863302 325.170983 
L 561.815225 325.014437 
L 553.767148 323.785625 
L 545.719071 323.797885 
L 537.670995 324.202103 
L 529.622918 324.147894 
L 521.574841 323.455888 
L 513.526764 323.468992 
L 505.478687 323.38993 
L 497.43061 322.716912 
L 489.382533 322.135159 
L 481.334456 321.995304 
L 473.286379 322.476875 
L 465.238302 322.317617 
L 457.190225 322.01321 
L 449.142148 321.702023 
L 441.094071 320.717339 
L 433.045995 321.678956 
L 424.997918 319.156491 
L 416.949841 320.847049 
L 408.901764 318.445115 
L 400.853687 321.028654 
L 392.80561 319.586612 
L 384.757533 319.551184 
L 376.709456 320.281964 
L 368.661379 319.40269 
L 360.613302 317.805372 
L 352.565225 318.961468 
L 344.517148 318.930158 
L 336.469071 318.874863 
L 328.420995 317.012701 
L 320.372918 317.926769 
L 312.324841 317.699478 
L 304.276764 317.564892 
L 296.228687 317.355512 
L 288.18061 316.962315 
L 280.132533 317.338147 
L 272.084456 316.648315 
L 264.036379 315.788957 
L 255.988302 316.492444 
L 247.940225 315.925996 
L 239.892148 315.420695 
L 231.844071 316.233376 
L 223.795995 315.340557 
L 215.747918 313.053792 
L 207.699841 314.71727 
L 199.651764 314.647219 
L 191.603687 314.647827 
L 183.55561 314.441213 
L 175.507533 314.447112 
L 167.459456 313.821883 
L 159.411379 313.562851 
L 151.363302 314.039809 
L 143.315225 313.132885 
L 135.267148 314.057827 
L 127.219071 312.801834 
L 119.170995 313.525107 
L 111.122918 312.690482 
L 103.074841 311.657237 
L 95.026764 312.612601 
L 86.978687 311.709312 
L 78.93061 311.776844 
L 70.882533 311.742836 
L 62.834456 311.837559 
L 54.786379 312.702874 
L 46.738302 312.914697 
L 38.690225 311.893739 
L 30.642148 310.849058 
L 22.594071 311.156492 
L 14.545995 310.956035 
L 6.497918 311.631754 
L -1.550159 311.577285 
L -9.598236 311.32611 
L -17.646313 311.686916 
L -25.69439 311.676745 
L -33.742467 311.158776 
L -41.790544 311.242771 
L -49.838621 311.055071 
L -57.886698 310.820136 
L -65.934775 312.051593 
L -73.982852 311.392338 
L -82.030929 310.482805 
L -90.079005 310.95302 
L -98.127082 311.376593 
L -106.175159 311.137477 
L -114.223236 310.959845 
L -122.271313 311.143973 
L -130.31939 311.591397 
L -138.367467 311.161179 
L -146.415544 311.020248 
L -154.463621 311.234113 
L -162.511698 310.975883 
L -170.559775 311.095737 
L -178.607852 310.548576 
L -186.655929 310.785789 
L -194.704005 310.112744 
L -202.752082 310.745304 
L -210.800159 310.489712 
L -218.848236 310.68669 
L -226.896313 310.523085 
L -234.94439 310.919516 
L -242.992467 310.318915 
L -251.040544 310.741128 
L -259.088621 310.371379 
L -267.136698 310.473997 
L -275.184775 310.1889 
L -283.232852 310.377567 
L -291.280929 310.848186 
L -299.329005 310.439905 
L -307.377082 310.568164 
L -315.425159 309.741139 
L -323.473236 310.156259 
L -331.521313 310.377713 
L -339.56939 309.745533 
L -347.617467 310.498211 
L -355.665544 310.57801 
L -363.713621 309.773579 
L -371.761698 309.813115 
L -379.809775 309.780779 
L -387.857852 309.509824 
L -395.905929 309.744373 
L -403.954005 309.70038 
L -412.002082 310.705396 
L -420.050159 310.069153 
L -428.098236 309.610736 
L -436.146313 309.663058 
L -444.19439 309.559329 
L -452.242467 309.304271 
L -460.290544 309.456981 
L -468.338621 309.304118 
L -476.386698 309.580744 
L -484.434775 309.340427 
L -492.482852 309.948218 
L -500.530929 310.07712 
L -508.579005 310.005109 
L -516.627082 310.18477 
L -524.675159 310.030601 
L -532.723236 310.252177 
L -540.771313 310.405006 
L -548.81939 310.72155 
L -556.867467 310.569329 
L -564.915544 310.91559 
L -572.963621 310.912093 
L -581.011698 311.507804 
L -589.059775 311.193625 
L -597.107852 311.049011 
L -605.155929 311.329508 
L -613.204005 311.481444 
L -621.252082 311.534669 
L -629.300159 311.891565 
L -637.348236 311.661588 
L -645.396313 311.91176 
L -653.44439 311.848121 
L -661.492467 311.934397 
L -669.540544 311.878444 
L -677.588621 311.779116 
L -685.636698 312.062698 
L -693.684775 312.428489 
L -701.732852 312.116684 
L -709.780929 312.341262 
L -717.829005 312.284303 
L -725.877082 312.423702 
L -733.925159 312.709426 
L -741.973236 312.648426 
L -750.021313 312.884467 
L -758.06939 312.966113 
L -766.117467 312.756177 
L -774.165544 312.921078 
L -782.213621 313.101819 
L -790.261698 313.183586 
L -798.309775 313.203104 
L -806.357852 313.33914 
L -814.405929 313.347876 
L -822.454005 313.537398 
L -830.502082 313.609233 
L -838.550159 313.672651 
L -846.598236 313.736034 
L -854.646313 313.472322 
L -862.69439 313.820397 
L -870.742467 313.975995 
L -878.790544 313.966971 
L -886.838621 314.004653 
L -894.886698 314.034196 
L -902.934775 314.155462 
L -910.982852 314.152725 
L -919.030929 314.321629 
L -927.079005 314.399441 
L -935.127082 314.394981 
L -943.175159 314.47609 
L -951.223236 314.576129 
L -959.271313 314.679557 
L -967.31939 314.955508 
L -975.367467 315.045947 
L -983.415544 315.198599 
L -991.463621 315.174096 
L -999.511698 315.324935 
L -1007.559775 315.374339 
L -1015.607852 315.449174 
L -1023.655929 315.366557 
L -1031.704005 315.753252 
L -1039.752082 315.828279 
L -1047.800159 315.897556 
L -1055.848236 316.151843 
L -1063.896313 316.187274 
L -1071.94439 316.324272 
L -1079.992467 316.272825 
L -1088.040544 316.60988 
L -1096.088621 316.581541 
L -1104.136698 316.910335 
L -1112.184775 317.161018 
L -1120.232852 317.274651 
L -1128.280929 317.575675 
L -1136.329005 317.823666 
L -1144.377082 317.874993 
L -1152.425159 318.049693 
L -1160.473236 318.140792 
L -1168.521313 318.350537 
L -1176.56939 318.363094 
L -1184.617467 318.630901 
L -1192.665544 318.843998 
L -1200.713621 318.991202 
L -1208.761698 319.099214 
L -1216.809775 319.194254 
L -1224.857852 319.472176 
L -1232.905929 319.573966 
L -1240.954005 319.76141 
L -1249.002082 320.014022 
L -1257.050159 320.123275 
L -1265.098236 319.978938 
L -1273.146313 320.075386 
L -1281.19439 320.340981 
L -1289.242467 320.404164 
L -1297.290544 320.595488 
L -1305.338621 320.741982 
L -1313.386698 320.713258 
L -1321.434775 320.813267 
L -1329.482852 320.929404 
L -1337.530929 321.113382 
L -1345.579005 320.967766 
L -1353.627082 321.069115 
L -1361.675159 321.094942 
L -1369.723236 321.340153 
L -1377.771313 321.336321 
L -1385.81939 321.236541 
L -1393.867467 321.375903 
L -1401.915544 321.518046 
L -1409.963621 321.221016 
L -1418.011698 321.53319 
L -1426.059775 321.179728 
L -1434.107852 321.183327 
L -1442.155929 321.128527 
L -1450.204005 321.237048 
L -1458.252082 321.282949 
L -1466.300159 321.25755 
L -1474.348236 321.099382 
L -1482.396313 321.257342 
L -1490.44439 320.861037 
L -1498.492467 320.471466 
L -1506.540544 320.598294 
L -1514.588621 320.841646 
L -1522.636698 320.313478 
L -1530.684775 320.356922 
L -1538.732852 320.255939 
L -1546.780929 320.251043 
L -1554.829005 319.581235 
L -1562.877082 319.556203 
L -1570.925159 319.296922 
L -1578.973236 318.691009 
L -1587.021313 318.26496 
L -1595.06939 318.770435 
L -1603.117467 318.565528 
L -1611.165544 318.198093 
L -1619.213621 318.050385 
L -1627.261698 317.791263 
L -1635.309775 317.449094 
L -1643.357852 317.66492 
L -1651.405929 316.996212 
L -1659.454005 316.774354 
L -1667.502082 316.63749 
L -1675.550159 316.569848 
L -1683.598236 316.688084 
L -1691.646313 316.558306 
L -1699.69439 316.718827 
L -1707.742467 317.011026 
L -1715.790544 316.806109 
L -1723.838621 316.820408 
L -1731.886698 317.206352 
L -1739.934775 317.345872 
L -1747.982852 317.34043 
L -1756.030929 317.987493 
L -1764.079005 317.689944 
L -1772.127082 317.893483 
L -1780.175159 318.473571 
L -1788.223236 318.433127 
L -1796.271313 318.687761 
L -1804.31939 318.936842 
L -1812.367467 319.196014 
L -1820.415544 319.47395 
L -1828.463621 319.763401 
L -1836.511698 320.044607 
L -1844.559775 320.298596 
L -1852.607852 320.611636 
L -1860.655929 320.759314 
L -1868.704005 321.218389 
L -1876.752082 321.315432 
L -1884.800159 321.591112 
L -1892.848236 321.887803 
L -1900.896313 322.133075 
L -1908.94439 322.417498 
L -1916.992467 322.657893 
L -1925.040544 322.96892 
L -1933.088621 323.188715 
L -1941.136698 323.438147 
L -1949.184775 323.715351 
L -1957.232852 323.995249 
L -1965.280929 324.196382 
L -1973.329005 324.467508 
L -1981.377082 324.676438 
L -1989.425159 324.951059 
L -1997.473236 325.179934 
L -2005.521313 325.406788 
L -2013.56939 325.64904 
L -2021.617467 325.871087 
L -2029.665544 326.069887 
L -2037.713621 326.305677 
L -2045.761698 326.459919 
L -2053.809775 326.732409 
L -2061.857852 326.937649 
L -2069.905929 327.125752 
L -2077.954005 327.339658 
L -2086.002082 327.495637 
L -2094.050159 327.691626 
L -2102.098236 327.890457 
L -2110.146313 328.101617 
L -2118.19439 328.276984 
L -2126.242467 328.449147 
L -2134.290544 328.630572 
L -2142.338621 328.805966 
L -2150.386698 328.98966 
L -2158.434775 329.146814 
L -2166.482852 329.311614 
L -2174.530929 329.45535 
L -2182.579005 329.631725 
L -2190.627082 329.773266 
L -2198.675159 329.925157 
L -2206.723236 330.100788 
L -2214.771313 330.236334 
L -2222.81939 330.308161 
L -2230.867467 330.45575 
L -2238.915544 330.551957 
L -2246.963621 330.693448 
L -2255.011698 330.850159 
L -2263.059775 330.949208 
L -2271.107852 331.04228 
L -2279.155929 331.088557 
L -2287.204005 331.180101 
L -2295.252082 331.246416 
L -2303.300159 331.314069 
L -2311.348236 331.425247 
L -2319.396313 331.50048 
L -2327.44439 331.595065 
L -2335.492467 331.57912 
L -2343.540544 331.638421 
L -2351.588621 331.596418 
L -2359.636698 331.710054 
L -2367.684775 331.741212 
L -2375.732852 331.826454 
L -2383.780929 331.69052 
L -2391.829005 331.882794 
L -2399.877082 331.879342 
L -2407.925159 331.784833 
L -2415.973236 331.765809 
L -2424.021313 331.865278 
L -2432.06939 332.032147 
L -2440.117467 331.974241 
L -2448.165544 331.973302 
L -2456.213621 331.811401 
L -2464.261698 331.807829 
L -2472.309775 331.852126 
L -2480.357852 331.947766 
L -2488.405929 331.91104 
L -2496.454005 331.884711 
L -2504.502082 331.893431 
L -2512.550159 331.94655 
L -2520.598236 331.92418 
L -2528.646313 331.953796 
L -2536.69439 332.008326 
L -2544.742467 331.953041 
L -2552.790544 332.03531 
L -2560.838621 332.038805 
L -2568.886698 332.038893 
L -2576.934775 332.086528 
L -2584.982852 332.090104 
L -2593.030929 332.143817 
L -2601.079005 332.203606 
L -2609.127082 332.1931 
L -2617.175159 332.15255 
L -2625.223236 332.120003 
L -2633.271313 332.259236 
L -2641.31939 332.221359 
L -2649.367467 332.311184 
L -2657.415544 332.301564 
L -2665.463621 332.251071 
L -2673.511698 332.340063 
L -2681.559775 332.234983 
L -2689.607852 332.228288 
L -2697.655929 332.344745 
L -2705.704005 332.241889 
L -2713.752082 332.351751 
L -2721.800159 332.379894 
L -2729.848236 332.267653 
L -2737.896313 331.933692 
L -2745.94439 332.130825 
L -2753.992467 332.021969 
L -2762.040544 331.5308 
L -2770.088621 331.932246 
L -2778.136698 332.007362 
L -2786.184775 331.552795 
L -2794.232852 331.422079 
L -2802.280929 331.652366 
L -2810.329005 331.160458 
L -2818.377082 330.288277 
L -2826.425159 331.230636 
L -2834.473236 331.590317 
L -2842.521313 331.76429 
L -2850.56939 330.578572 
L -2858.617467 330.62079 
L -2866.665544 330.012348 
L -2874.713621 329.53944 
L -2882.761698 330.474393 
L -2890.809775 330.062801 
L -2898.857852 329.219874 
L -2906.905929 328.628156 
L -2914.954005 328.659582 
L -2923.002082 328.756553 
L -2931.050159 328.627317 
L -2939.098236 328.549484 
L -2947.146313 328.87924 
L -2955.19439 328.835042 
L -2963.242467 328.613193 
L -2971.290544 328.743005 
L -2979.338621 328.648787 
L -2987.386698 328.610515 
L -2995.434775 328.615781 
L -3003.482852 328.744304 
L -3011.530929 328.819614 
L -3019.579005 328.862396 
L -3027.627082 328.974131 
L -3035.675159 329.025194 
L -3043.723236 329.114545 
L -3051.771313 329.257597 
L -3059.81939 329.369614 
L -3067.867467 329.445502 
L -3075.915544 329.530467 
L -3083.963621 329.643135 
L -3092.011698 329.713934 
L -3100.059775 329.822064 
L -3108.107852 329.953447 
L -3116.155929 330.031212 
L -3124.204005 330.083258 
L -3132.252082 330.16369 
L -3140.300159 330.246488 
L -3148.348236 330.322479 
L -3156.396313 330.395161 
L -3164.44439 330.465228 
L -3172.492467 330.56152 
L -3180.540544 330.611523 
L -3188.588621 330.681597 
L -3196.636698 330.754348 
L -3204.684775 330.816531 
L -3212.732852 330.878102 
L -3220.780929 330.929534 
L -3228.829005 330.985563 
L -3236.877082 331.06011 
L -3244.925159 331.112224 
L -3252.973236 331.173172 
L -3261.021313 331.222575 
L -3269.06939 331.276763 
L -3277.117467 331.332241 
L -3285.165544 331.388534 
L -3293.213621 331.435829 
L -3301.261698 331.49184 
L -3309.309775 331.540989 
L -3317.357852 331.593703 
L -3325.405929 331.642747 
L -3333.454005 331.693385 
L -3341.502082 331.740595 
L -3349.550159 331.789679 
L -3357.598236 331.842537 
L -3365.646313 331.882662 
L -3373.69439 331.93303 
L -3381.742467 331.976378 
L -3389.790544 332.026724 
L -3397.838621 332.063423 
L -3405.886698 332.110236 
L -3413.934775 332.154826 
L -3421.982852 332.197265 
L -3430.030929 332.240463 
L -3438.079005 332.280392 
L -3446.127082 332.327026 
L -3454.175159 332.368949 
L -3462.223236 332.403413 
L -3470.271313 332.444423 
L -3478.31939 332.485364 
L -3486.367467 332.52609 
L -3494.415544 332.565356 
L -3502.463621 332.601917 
L -3510.511698 332.642189 
L -3518.559775 332.681637 
L -3526.607852 332.721265 
L -3534.655929 332.760728 
L -3542.704005 332.801248 
L -3550.752082 332.843364 
L -3558.800159 332.879545 
L -3566.848236 332.921039 
L -3574.896313 332.961709 
L -3582.94439 333.000709 
L -3590.992467 333.040953 
L -3599.040544 333.082018 
L -3607.088621 333.121824 
L -3615.136698 333.163624 
L -3623.184775 333.201667 
L -3631.232852 333.24048 
L -3639.280929 333.281539 
L -3647.329005 333.321158 
L -3655.377082 333.358699 
L -3663.425159 333.398473 
L -3671.473236 333.434696 
L -3679.521313 333.473473 
L -3687.56939 333.514825 
L -3695.617467 333.550163 
L -3703.665544 333.589819 
L -3711.713621 333.627291 
L -3719.761698 333.666626 
L -3727.809775 333.702113 
L -3735.857852 333.743773 
L -3743.905929 333.778081 
L -3751.954005 333.816685 
L -3760.002082 333.85442 
L -3768.050159 333.893136 
L -3776.098236 333.929865 
L -3784.146313 333.967305 
L -3792.19439 334.004905 
L -3800.242467 334.043819 
L -3808.290544 334.079887 
L -3816.338621 334.112937 
L -3824.386698 334.146624 
L -3832.434775 334.180549 
L -3840.482852 334.213298 
L -3848.530929 334.246642 
L -3856.579005 334.279594 
L -3864.627082 334.311034 
L -3872.675159 334.342878 
L -3880.723236 334.374571 
L -3888.771313 334.403355 
L -3896.81939 334.432672 
L -3904.867467 334.463321 
L -3912.915544 334.492341 
L -3920.963621 334.518251 
L -3929.011698 334.546908 
L -3937.059775 334.573067 
L -3945.107852 334.597156 
L -3953.155929 334.62129 
L -3961.204005 334.643855 
L -3969.252082 334.668255 
L -3977.300159 334.688364 
L -3985.348236 334.709664 
L -3993.396313 334.729719 
L -4001.44439 334.748303 
L -4009.492467 334.765233 
L -4017.540544 334.780616 
L -4025.588621 334.795921 
L -4033.636698 334.811111 
L -4041.684775 334.823659 
L -4049.732852 334.837733 
L -4057.780929 334.84963 
L -4065.829005 334.859864 
L -4073.877082 334.871923 
L -4081.925159 334.88246 
L -4089.973236 334.891156 
L -4098.021313 334.900519 
L -4106.06939 334.909625 
L -4114.117467 334.917614 
L -4122.165544 334.925642 
L -4130.213621 334.932254 
L -4138.261698 334.940291 
L -4146.309775 334.94665 
L -4154.357852 334.95335 
L -4162.405929 334.960394 
L -4170.454005 334.96611 
L -4178.502082 334.97218 
L -4186.550159 334.980178 
L -4194.598236 334.985773 
L -4202.646313 334.992672 
L -4210.69439 334.998096 
L -4218.742467 335.005381 
L -4226.790544 335.011109 
L -4234.838621 335.017181 
L -4242.886698 335.022474 
L -4250.934775 335.027287 
L -4258.982852 335.032827 
L -4267.030929 335.03896 
L -4275.079005 335.044937 
L -4283.127082 335.05 
L -4291.175159 335.054002 
L -4299.223236 335.059921 
L -4307.271313 335.064716 
L -4315.31939 335.070525 
z
" clip-path="url(#p7adcace941)" style="fill: #008000; fill-opacity: 0.3; stroke: #008000; stroke-opacity: 0.3"/>
   </g>
   <g id="matplotlib.axis_1">
    <g id="xtick_1">
     <g id="line2d_1">
      <defs>
       <path id="m61f984eb28" d="M 0 0 
L 0 3.5 
" style="stroke: #000000; stroke-width: 0.8"/>
      </defs>
      <g>
       <use xlink:href="#m61f984eb28" x="103.074841" y="395.28" style="stroke: #000000; stroke-width: 0.8"/>
      </g>
     </g>
     <g id="text_1">
      <!-- 2023-01-01 -->
      <g transform="translate(17.945813 495.213718) rotate(-45) scale(0.2 -0.2)">
       <defs>
        <path id="DejaVuSans-32" d="M 1228 531 
L 3431 531 
L 3431 0 
L 469 0 
L 469 531 
Q 828 903 1448 1529 
Q 2069 2156 2228 2338 
Q 2531 2678 2651 2914 
Q 2772 3150 2772 3378 
Q 2772 3750 2511 3984 
Q 2250 4219 1831 4219 
Q 1534 4219 1204 4116 
Q 875 4013 500 3803 
L 500 4441 
Q 881 4594 1212 4672 
Q 1544 4750 1819 4750 
Q 2544 4750 2975 4387 
Q 3406 4025 3406 3419 
Q 3406 3131 3298 2873 
Q 3191 2616 2906 2266 
Q 2828 2175 2409 1742 
Q 1991 1309 1228 531 
z
" transform="scale(0.015625)"/>
        <path id="DejaVuSans-30" d="M 2034 4250 
Q 1547 4250 1301 3770 
Q 1056 3291 1056 2328 
Q 1056 1369 1301 889 
Q 1547 409 2034 409 
Q 2525 409 2770 889 
Q 3016 1369 3016 2328 
Q 3016 3291 2770 3770 
Q 2525 4250 2034 4250 
z
M 2034 4750 
Q 2819 4750 3233 4129 
Q 3647 3509 3647 2328 
Q 3647 1150 3233 529 
Q 2819 -91 2034 -91 
Q 1250 -91 836 529 
Q 422 1150 422 2328 
Q 422 3509 836 4129 
Q 1250 4750 2034 4750 
z
" transform="scale(0.015625)"/>
        <path id="DejaVuSans-33" d="M 2597 2516 
Q 3050 2419 3304 2112 
Q 3559 1806 3559 1356 
Q 3559 666 3084 287 
Q 2609 -91 1734 -91 
Q 1441 -91 1130 -33 
Q 819 25 488 141 
L 488 750 
Q 750 597 1062 519 
Q 1375 441 1716 441 
Q 2309 441 2620 675 
Q 2931 909 2931 1356 
Q 2931 1769 2642 2001 
Q 2353 2234 1838 2234 
L 1294 2234 
L 1294 2753 
L 1863 2753 
Q 2328 2753 2575 2939 
Q 2822 3125 2822 3475 
Q 2822 3834 2567 4026 
Q 2313 4219 1838 4219 
Q 1578 4219 1281 4162 
Q 984 4106 628 3988 
L 628 4550 
Q 988 4650 1302 4700 
Q 1616 4750 1894 4750 
Q 2613 4750 3031 4423 
Q 3450 4097 3450 3541 
Q 3450 3153 3228 2886 
Q 3006 2619 2597 2516 
z
" transform="scale(0.015625)"/>
        <path id="DejaVuSans-2d" d="M 313 2009 
L 1997 2009 
L 1997 1497 
L 313 1497 
L 313 2009 
z
" transform="scale(0.015625)"/>
        <path id="DejaVuSans-31" d="M 794 531 
L 1825 531 
L 1825 4091 
L 703 3866 
L 703 4441 
L 1819 4666 
L 2450 4666 
L 2450 531 
L 3481 531 
L 3481 0 
L 794 0 
L 794 531 
z
" transform="scale(0.015625)"/>
       </defs>
       <use xlink:href="#DejaVuSans-32"/>
       <use xlink:href="#DejaVuSans-30" x="63.623047"/>
       <use xlink:href="#DejaVuSans-32" x="127.246094"/>
       <use xlink:href="#DejaVuSans-33" x="190.869141"/>
       <use xlink:href="#DejaVuSans-2d" x="254.492188"/>
       <use xlink:href="#DejaVuSans-30" x="290.576172"/>
       <use xlink:href="#DejaVuSans-31" x="354.199219"/>
       <use xlink:href="#DejaVuSans-2d" x="417.822266"/>
       <use xlink:href="#DejaVuSans-30" x="453.90625"/>
       <use xlink:href="#DejaVuSans-31" x="517.529297"/>
      </g>
     </g>
    </g>
    <g id="xtick_2">
     <g id="line2d_2">
      <g>
       <use xlink:href="#m61f984eb28" x="215.747918" y="395.28" style="stroke: #000000; stroke-width: 0.8"/>
      </g>
     </g>
     <g id="text_2">
      <!-- 2023-01-15 -->
      <g transform="translate(130.61889 495.213718) rotate(-45) scale(0.2 -0.2)">
       <defs>
        <path id="DejaVuSans-35" d="M 691 4666 
L 3169 4666 
L 3169 4134 
L 1269 4134 
L 1269 2991 
Q 1406 3038 1543 3061 
Q 1681 3084 1819 3084 
Q 2600 3084 3056 2656 
Q 3513 2228 3513 1497 
Q 3513 744 3044 326 
Q 2575 -91 1722 -91 
Q 1428 -91 1123 -41 
Q 819 9 494 109 
L 494 744 
Q 775 591 1075 516 
Q 1375 441 1709 441 
Q 2250 441 2565 725 
Q 2881 1009 2881 1497 
Q 2881 1984 2565 2268 
Q 2250 2553 1709 2553 
Q 1456 2553 1204 2497 
Q 953 2441 691 2322 
L 691 4666 
z
" transform="scale(0.015625)"/>
       </defs>
       <use xlink:href="#DejaVuSans-32"/>
       <use xlink:href="#DejaVuSans-30" x="63.623047"/>
       <use xlink:href="#DejaVuSans-32" x="127.246094"/>
       <use xlink:href="#DejaVuSans-33" x="190.869141"/>
       <use xlink:href="#DejaVuSans-2d" x="254.492188"/>
       <use xlink:href="#DejaVuSans-30" x="290.576172"/>
       <use xlink:href="#DejaVuSans-31" x="354.199219"/>
       <use xlink:href="#DejaVuSans-2d" x="417.822266"/>
       <use xlink:href="#DejaVuSans-31" x="453.90625"/>
       <use xlink:href="#DejaVuSans-35" x="517.529297"/>
      </g>
     </g>
    </g>
    <g id="xtick_3">
     <g id="line2d_3">
      <g>
       <use xlink:href="#m61f984eb28" x="328.420995" y="395.28" style="stroke: #000000; stroke-width: 0.8"/>
      </g>
     </g>
     <g id="text_3">
      <!-- 2023-01-29 -->
      <g transform="translate(243.291967 495.213718) rotate(-45) scale(0.2 -0.2)">
       <defs>
        <path id="DejaVuSans-39" d="M 703 97 
L 703 672 
Q 941 559 1184 500 
Q 1428 441 1663 441 
Q 2288 441 2617 861 
Q 2947 1281 2994 2138 
Q 2813 1869 2534 1725 
Q 2256 1581 1919 1581 
Q 1219 1581 811 2004 
Q 403 2428 403 3163 
Q 403 3881 828 4315 
Q 1253 4750 1959 4750 
Q 2769 4750 3195 4129 
Q 3622 3509 3622 2328 
Q 3622 1225 3098 567 
Q 2575 -91 1691 -91 
Q 1453 -91 1209 -44 
Q 966 3 703 97 
z
M 1959 2075 
Q 2384 2075 2632 2365 
Q 2881 2656 2881 3163 
Q 2881 3666 2632 3958 
Q 2384 4250 1959 4250 
Q 1534 4250 1286 3958 
Q 1038 3666 1038 3163 
Q 1038 2656 1286 2365 
Q 1534 2075 1959 2075 
z
" transform="scale(0.015625)"/>
       </defs>
       <use xlink:href="#DejaVuSans-32"/>
       <use xlink:href="#DejaVuSans-30" x="63.623047"/>
       <use xlink:href="#DejaVuSans-32" x="127.246094"/>
       <use xlink:href="#DejaVuSans-33" x="190.869141"/>
       <use xlink:href="#DejaVuSans-2d" x="254.492188"/>
       <use xlink:href="#DejaVuSans-30" x="290.576172"/>
       <use xlink:href="#DejaVuSans-31" x="354.199219"/>
       <use xlink:href="#DejaVuSans-2d" x="417.822266"/>
       <use xlink:href="#DejaVuSans-32" x="453.90625"/>
       <use xlink:href="#DejaVuSans-39" x="517.529297"/>
      </g>
     </g>
    </g>
    <g id="xtick_4">
     <g id="line2d_4">
      <g>
       <use xlink:href="#m61f984eb28" x="441.094071" y="395.28" style="stroke: #000000; stroke-width: 0.8"/>
      </g>
     </g>
     <g id="text_4">
      <!-- 2023-02-12 -->
      <g transform="translate(355.965044 495.213718) rotate(-45) scale(0.2 -0.2)">
       <use xlink:href="#DejaVuSans-32"/>
       <use xlink:href="#DejaVuSans-30" x="63.623047"/>
       <use xlink:href="#DejaVuSans-32" x="127.246094"/>
       <use xlink:href="#DejaVuSans-33" x="190.869141"/>
       <use xlink:href="#DejaVuSans-2d" x="254.492188"/>
       <use xlink:href="#DejaVuSans-30" x="290.576172"/>
       <use xlink:href="#DejaVuSans-32" x="354.199219"/>
       <use xlink:href="#DejaVuSans-2d" x="417.822266"/>
       <use xlink:href="#DejaVuSans-31" x="453.90625"/>
       <use xlink:href="#DejaVuSans-32" x="517.529297"/>
      </g>
     </g>
    </g>
    <g id="xtick_5">
     <g id="line2d_5">
      <g>
       <use xlink:href="#m61f984eb28" x="553.767148" y="395.28" style="stroke: #000000; stroke-width: 0.8"/>
      </g>
     </g>
     <g id="text_5">
      <!-- 2023-02-26 -->
      <g transform="translate(468.638121 495.213718) rotate(-45) scale(0.2 -0.2)">
       <defs>
        <path id="DejaVuSans-36" d="M 2113 2584 
Q 1688 2584 1439 2293 
Q 1191 2003 1191 1497 
Q 1191 994 1439 701 
Q 1688 409 2113 409 
Q 2538 409 2786 701 
Q 3034 994 3034 1497 
Q 3034 2003 2786 2293 
Q 2538 2584 2113 2584 
z
M 3366 4563 
L 3366 3988 
Q 3128 4100 2886 4159 
Q 2644 4219 2406 4219 
Q 1781 4219 1451 3797 
Q 1122 3375 1075 2522 
Q 1259 2794 1537 2939 
Q 1816 3084 2150 3084 
Q 2853 3084 3261 2657 
Q 3669 2231 3669 1497 
Q 3669 778 3244 343 
Q 2819 -91 2113 -91 
Q 1303 -91 875 529 
Q 447 1150 447 2328 
Q 447 3434 972 4092 
Q 1497 4750 2381 4750 
Q 2619 4750 2861 4703 
Q 3103 4656 3366 4563 
z
" transform="scale(0.015625)"/>
       </defs>
       <use xlink:href="#DejaVuSans-32"/>
       <use xlink:href="#DejaVuSans-30" x="63.623047"/>
       <use xlink:href="#DejaVuSans-32" x="127.246094"/>
       <use xlink:href="#DejaVuSans-33" x="190.869141"/>
       <use xlink:href="#DejaVuSans-2d" x="254.492188"/>
       <use xlink:href="#DejaVuSans-30" x="290.576172"/>
       <use xlink:href="#DejaVuSans-32" x="354.199219"/>
       <use xlink:href="#DejaVuSans-2d" x="417.822266"/>
       <use xlink:href="#DejaVuSans-32" x="453.90625"/>
       <use xlink:href="#DejaVuSans-36" x="517.529297"/>
      </g>
     </g>
    </g>
    <g id="xtick_6">
     <g id="line2d_6">
      <g>
       <use xlink:href="#m61f984eb28" x="666.440225" y="395.28" style="stroke: #000000; stroke-width: 0.8"/>
      </g>
     </g>
     <g id="text_6">
      <!-- 2023-03-12 -->
      <g transform="translate(581.311198 495.213718) rotate(-45) scale(0.2 -0.2)">
       <use xlink:href="#DejaVuSans-32"/>
       <use xlink:href="#DejaVuSans-30" x="63.623047"/>
       <use xlink:href="#DejaVuSans-32" x="127.246094"/>
       <use xlink:href="#DejaVuSans-33" x="190.869141"/>
       <use xlink:href="#DejaVuSans-2d" x="254.492188"/>
       <use xlink:href="#DejaVuSans-30" x="290.576172"/>
       <use xlink:href="#DejaVuSans-33" x="354.199219"/>
       <use xlink:href="#DejaVuSans-2d" x="417.822266"/>
       <use xlink:href="#DejaVuSans-31" x="453.90625"/>
       <use xlink:href="#DejaVuSans-32" x="517.529297"/>
      </g>
     </g>
    </g>
    <g id="xtick_7">
     <g id="line2d_7">
      <g>
       <use xlink:href="#m61f984eb28" x="779.113302" y="395.28" style="stroke: #000000; stroke-width: 0.8"/>
      </g>
     </g>
     <g id="text_7">
      <!-- 2023-03-26 -->
      <g transform="translate(693.984275 495.213718) rotate(-45) scale(0.2 -0.2)">
       <use xlink:href="#DejaVuSans-32"/>
       <use xlink:href="#DejaVuSans-30" x="63.623047"/>
       <use xlink:href="#DejaVuSans-32" x="127.246094"/>
       <use xlink:href="#DejaVuSans-33" x="190.869141"/>
       <use xlink:href="#DejaVuSans-2d" x="254.492188"/>
       <use xlink:href="#DejaVuSans-30" x="290.576172"/>
       <use xlink:href="#DejaVuSans-33" x="354.199219"/>
       <use xlink:href="#DejaVuSans-2d" x="417.822266"/>
       <use xlink:href="#DejaVuSans-32" x="453.90625"/>
       <use xlink:href="#DejaVuSans-36" x="517.529297"/>
      </g>
     </g>
    </g>
    <g id="xtick_8">
     <g id="line2d_8">
      <g>
       <use xlink:href="#m61f984eb28" x="891.786379" y="395.28" style="stroke: #000000; stroke-width: 0.8"/>
      </g>
     </g>
     <g id="text_8">
      <!-- 2023-04-09 -->
      <g transform="translate(806.657352 495.213718) rotate(-45) scale(0.2 -0.2)">
       <defs>
        <path id="DejaVuSans-34" d="M 2419 4116 
L 825 1625 
L 2419 1625 
L 2419 4116 
z
M 2253 4666 
L 3047 4666 
L 3047 1625 
L 3713 1625 
L 3713 1100 
L 3047 1100 
L 3047 0 
L 2419 0 
L 2419 1100 
L 313 1100 
L 313 1709 
L 2253 4666 
z
" transform="scale(0.015625)"/>
       </defs>
       <use xlink:href="#DejaVuSans-32"/>
       <use xlink:href="#DejaVuSans-30" x="63.623047"/>
       <use xlink:href="#DejaVuSans-32" x="127.246094"/>
       <use xlink:href="#DejaVuSans-33" x="190.869141"/>
       <use xlink:href="#DejaVuSans-2d" x="254.492188"/>
       <use xlink:href="#DejaVuSans-30" x="290.576172"/>
       <use xlink:href="#DejaVuSans-34" x="354.199219"/>
       <use xlink:href="#DejaVuSans-2d" x="417.822266"/>
       <use xlink:href="#DejaVuSans-30" x="453.90625"/>
       <use xlink:href="#DejaVuSans-39" x="517.529297"/>
      </g>
     </g>
    </g>
    <g id="xtick_9">
     <g id="line2d_9">
      <g>
       <use xlink:href="#m61f984eb28" x="940.074841" y="395.28" style="stroke: #000000; stroke-width: 0.8"/>
      </g>
     </g>
     <g id="text_9">
      <!-- 2023-04-15 -->
      <g transform="translate(854.945813 495.213718) rotate(-45) scale(0.2 -0.2)">
       <use xlink:href="#DejaVuSans-32"/>
       <use xlink:href="#DejaVuSans-30" x="63.623047"/>
       <use xlink:href="#DejaVuSans-32" x="127.246094"/>
       <use xlink:href="#DejaVuSans-33" x="190.869141"/>
       <use xlink:href="#DejaVuSans-2d" x="254.492188"/>
       <use xlink:href="#DejaVuSans-30" x="290.576172"/>
       <use xlink:href="#DejaVuSans-34" x="354.199219"/>
       <use xlink:href="#DejaVuSans-2d" x="417.822266"/>
       <use xlink:href="#DejaVuSans-31" x="453.90625"/>
       <use xlink:href="#DejaVuSans-35" x="517.529297"/>
      </g>
     </g>
    </g>
   </g>
   <g id="matplotlib.axis_2">
    <g id="ytick_1">
     <g id="line2d_10">
      <defs>
       <path id="m43d94a578b" d="M 0 0 
L -3.5 0 
" style="stroke: #000000; stroke-width: 0.8"/>
      </defs>
      <g>
       <use xlink:href="#m43d94a578b" x="103.074841" y="378.251802" style="stroke: #000000; stroke-width: 0.8"/>
      </g>
     </g>
     <g id="text_10">
      <!-- −0.5 -->
      <g transform="translate(47.509216 385.850239) scale(0.2 -0.2)">
       <defs>
        <path id="DejaVuSans-2212" d="M 678 2272 
L 4684 2272 
L 4684 1741 
L 678 1741 
L 678 2272 
z
" transform="scale(0.015625)"/>
        <path id="DejaVuSans-2e" d="M 684 794 
L 1344 794 
L 1344 0 
L 684 0 
L 684 794 
z
" transform="scale(0.015625)"/>
       </defs>
       <use xlink:href="#DejaVuSans-2212"/>
       <use xlink:href="#DejaVuSans-30" x="83.789062"/>
       <use xlink:href="#DejaVuSans-2e" x="147.412109"/>
       <use xlink:href="#DejaVuSans-35" x="179.199219"/>
      </g>
     </g>
    </g>
    <g id="ytick_2">
     <g id="line2d_11">
      <g>
       <use xlink:href="#m43d94a578b" x="103.074841" y="335.076088" style="stroke: #000000; stroke-width: 0.8"/>
      </g>
     </g>
     <g id="text_11">
      <!-- 0.0 -->
      <g transform="translate(64.268591 342.674525) scale(0.2 -0.2)">
       <use xlink:href="#DejaVuSans-30"/>
       <use xlink:href="#DejaVuSans-2e" x="63.623047"/>
       <use xlink:href="#DejaVuSans-30" x="95.410156"/>
      </g>
     </g>
    </g>
    <g id="ytick_3">
     <g id="line2d_12">
      <g>
       <use xlink:href="#m43d94a578b" x="103.074841" y="291.900374" style="stroke: #000000; stroke-width: 0.8"/>
      </g>
     </g>
     <g id="text_12">
      <!-- 0.5 -->
      <g transform="translate(64.268591 299.498812) scale(0.2 -0.2)">
       <use xlink:href="#DejaVuSans-30"/>
       <use xlink:href="#DejaVuSans-2e" x="63.623047"/>
       <use xlink:href="#DejaVuSans-35" x="95.410156"/>
      </g>
     </g>
    </g>
    <g id="ytick_4">
     <g id="line2d_13">
      <g>
       <use xlink:href="#m43d94a578b" x="103.074841" y="248.724661" style="stroke: #000000; stroke-width: 0.8"/>
      </g>
     </g>
     <g id="text_13">
      <!-- 1.0 -->
      <g transform="translate(64.268591 256.323098) scale(0.2 -0.2)">
       <use xlink:href="#DejaVuSans-31"/>
       <use xlink:href="#DejaVuSans-2e" x="63.623047"/>
       <use xlink:href="#DejaVuSans-30" x="95.410156"/>
      </g>
     </g>
    </g>
    <g id="ytick_5">
     <g id="line2d_14">
      <g>
       <use xlink:href="#m43d94a578b" x="103.074841" y="205.548947" style="stroke: #000000; stroke-width: 0.8"/>
      </g>
     </g>
     <g id="text_14">
      <!-- 1.5 -->
      <g transform="translate(64.268591 213.147385) scale(0.2 -0.2)">
       <use xlink:href="#DejaVuSans-31"/>
       <use xlink:href="#DejaVuSans-2e" x="63.623047"/>
       <use xlink:href="#DejaVuSans-35" x="95.410156"/>
      </g>
     </g>
    </g>
    <g id="ytick_6">
     <g id="line2d_15">
      <g>
       <use xlink:href="#m43d94a578b" x="103.074841" y="162.373234" style="stroke: #000000; stroke-width: 0.8"/>
      </g>
     </g>
     <g id="text_15">
      <!-- 2.0 -->
      <g transform="translate(64.268591 169.971671) scale(0.2 -0.2)">
       <use xlink:href="#DejaVuSans-32"/>
       <use xlink:href="#DejaVuSans-2e" x="63.623047"/>
       <use xlink:href="#DejaVuSans-30" x="95.410156"/>
      </g>
     </g>
    </g>
    <g id="ytick_7">
     <g id="line2d_16">
      <g>
       <use xlink:href="#m43d94a578b" x="103.074841" y="119.19752" style="stroke: #000000; stroke-width: 0.8"/>
      </g>
     </g>
     <g id="text_16">
      <!-- 2.5 -->
      <g transform="translate(64.268591 126.795957) scale(0.2 -0.2)">
       <use xlink:href="#DejaVuSans-32"/>
       <use xlink:href="#DejaVuSans-2e" x="63.623047"/>
       <use xlink:href="#DejaVuSans-35" x="95.410156"/>
      </g>
     </g>
    </g>
    <g id="ytick_8">
     <g id="line2d_17">
      <g>
       <use xlink:href="#m43d94a578b" x="103.074841" y="76.021806" style="stroke: #000000; stroke-width: 0.8"/>
      </g>
     </g>
     <g id="text_17">
      <!-- 3.0 -->
      <g transform="translate(64.268591 83.620244) scale(0.2 -0.2)">
       <use xlink:href="#DejaVuSans-33"/>
       <use xlink:href="#DejaVuSans-2e" x="63.623047"/>
       <use xlink:href="#DejaVuSans-30" x="95.410156"/>
      </g>
     </g>
    </g>
    <g id="ytick_9">
     <g id="line2d_18">
      <g>
       <use xlink:href="#m43d94a578b" x="103.074841" y="32.846093" style="stroke: #000000; stroke-width: 0.8"/>
      </g>
     </g>
     <g id="text_18">
      <!-- 3.5 -->
      <g transform="translate(64.268591 40.44453) scale(0.2 -0.2)">
       <use xlink:href="#DejaVuSans-33"/>
       <use xlink:href="#DejaVuSans-2e" x="63.623047"/>
       <use xlink:href="#DejaVuSans-35" x="95.410156"/>
      </g>
     </g>
    </g>
   </g>
   <g id="line2d_19">
    <path d="M 280.132533 335.076088 
L 320.372918 335.076088 
L 328.420995 24.84 
L 336.469071 335.076088 
L 384.757533 335.076088 
L 392.80561 353.877913 
L 400.853687 335.076088 
L 441.094071 335.076088 
M 521.574841 335.076088 
L 545.719071 335.076088 
L 553.767148 274.478595 
L 561.815225 297.882566 
L 569.863302 296.360325 
L 577.911379 314.45509 
L 585.959456 317.39314 
L 594.007533 335.076088 
L 626.199841 335.076088 
L 634.247918 351.483256 
L 642.295995 312.434787 
L 650.344071 335.076088 
L 666.440225 335.076088 
L 674.488302 346.337898 
L 682.536379 348.603271 
L 690.584456 333.800762 
L 698.632533 353.235652 
L 706.68061 359.504188 
L 714.728687 335.076088 
L 754.969071 335.076088 
L 763.017148 377.64 
L 771.065225 335.076088 
L 803.257533 335.076088 
M 867.642148 335.076088 
L 915.93061 335.076088 
L 923.978687 232.402135 
L 932.026764 335.076088 
L 940.074841 335.076088 
L 940.074841 335.076088 
" clip-path="url(#p7adcace941)" style="fill: none; stroke: #ffa500; stroke-width: 1.5; stroke-linecap: square"/>
   </g>
   <g id="line2d_20">
    <path d="M 103.074841 335.076088 
L 948.274841 335.076088 
" clip-path="url(#p7adcace941)" style="fill: none; stroke-dasharray: 7.4,3.2; stroke-dashoffset: 0; stroke: #000000; stroke-width: 2"/>
   </g>
   <g id="patch_3">
    <path d="M 103.074841 395.28 
L 103.074841 7.2 
" style="fill: none; stroke: #000000; stroke-width: 0.8; stroke-linejoin: miter; stroke-linecap: square"/>
   </g>
   <g id="patch_4">
    <path d="M 940.074841 395.28 
L 940.074841 7.2 
" style="fill: none; stroke: #000000; stroke-width: 0.8; stroke-linejoin: miter; stroke-linecap: square"/>
   </g>
   <g id="patch_5">
    <path d="M 103.074841 395.28 
L 940.074841 395.28 
" style="fill: none; stroke: #000000; stroke-width: 0.8; stroke-linejoin: miter; stroke-linecap: square"/>
   </g>
   <g id="patch_6">
    <path d="M 103.074841 7.2 
L 940.074841 7.2 
" style="fill: none; stroke: #000000; stroke-width: 0.8; stroke-linejoin: miter; stroke-linecap: square"/>
   </g>
  </g>
 </g>
 <defs>
  <clipPath id="p7adcace941">
   <rect x="103.074841" y="7.2" width="837" height="388.08"/>
  </clipPath>
 </defs>
</svg>
