<?xml version="1.0" encoding="utf-8" standalone="no"?>
<!DOCTYPE svg PUBLIC "-//W3C//DTD SVG 1.1//EN"
  "http://www.w3.org/Graphics/SVG/1.1/DTD/svg11.dtd">
<svg xmlns:xlink="http://www.w3.org/1999/xlink" width="947.274841pt" height="505.354841pt" viewBox="0 0 947.274841 505.354841" xmlns="http://www.w3.org/2000/svg" version="1.1">
 <metadata>
  <rdf:RDF xmlns:dc="http://purl.org/dc/elements/1.1/" xmlns:cc="http://creativecommons.org/ns#" xmlns:rdf="http://www.w3.org/1999/02/22-rdf-syntax-ns#">
   <cc:Work>
    <dc:type rdf:resource="http://purl.org/dc/dcmitype/StillImage"/>
    <dc:date>2023-11-21T19:32:34.420708</dc:date>
    <dc:format>image/svg+xml</dc:format>
    <dc:creator>
     <cc:Agent>
      <dc:title>Matplotlib v3.7.2, https://matplotlib.org/</dc:title>
     </cc:Agent>
    </dc:creator>
   </cc:Work>
  </rdf:RDF>
 </metadata>
 <defs>
  <style type="text/css">*{stroke-linejoin: round; stroke-linecap: butt}</style>
 </defs>
 <g id="figure_1">
  <g id="patch_1">
   <path d="M 0 505.354841 
L 947.274841 505.354841 
L 947.274841 -0 
L 0 -0 
z
" style="fill: #ffffff"/>
  </g>
  <g id="axes_1">
   <g id="patch_2">
    <path d="M 103.074841 395.28 
L 940.074841 395.28 
L 940.074841 7.2 
L 103.074841 7.2 
z
" style="fill: #ffffff"/>
   </g>
   <g id="PolyCollection_1">
    <path d="M -393.000769 205.485762 
L -393.000769 205.505769 
L -390.959306 205.405659 
L -388.917842 205.319861 
L -386.876379 205.209981 
L -384.834915 205.130082 
L -382.793452 205.042105 
L -380.751989 204.94288 
L -378.710525 204.846879 
L -376.669062 204.758539 
L -374.627598 204.681873 
L -372.586135 204.590886 
L -370.544672 204.49204 
L -368.503208 204.3944 
L -366.461745 204.284781 
L -364.420281 204.191166 
L -362.378818 204.083695 
L -360.337354 203.97721 
L -358.295891 203.860936 
L -356.254428 203.756444 
L -354.212964 203.655259 
L -352.171501 203.534933 
L -350.130037 203.417354 
L -348.088574 203.303299 
L -346.047111 203.167355 
L -344.005647 203.0492 
L -341.964184 202.905135 
L -339.92272 202.767769 
L -337.881257 202.608355 
L -335.839793 202.443307 
L -333.79833 202.285793 
L -331.756867 202.109414 
L -329.715403 201.904406 
L -327.67394 201.722007 
L -325.632476 201.514363 
L -323.591013 201.27609 
L -321.54955 201.048082 
L -319.508086 200.796974 
L -317.466623 200.532781 
L -315.425159 200.263292 
L -313.383696 199.9662 
L -311.342232 199.646075 
L -309.300769 199.315114 
L -307.259306 198.963565 
L -305.217842 198.602692 
L -303.176379 198.213583 
L -301.134915 197.829314 
L -299.093452 197.411767 
L -297.051989 197.007902 
L -295.010525 196.559878 
L -292.969062 196.082875 
L -290.927598 195.630051 
L -288.886135 195.146667 
L -286.844672 194.635686 
L -284.803208 194.135088 
L -282.761745 193.626444 
L -280.720281 193.094239 
L -278.678818 192.556856 
L -276.637354 192.014552 
L -274.595891 191.450172 
L -272.554428 190.878502 
L -270.512964 190.308887 
L -268.471501 189.719679 
L -266.430037 189.12689 
L -264.388574 188.539159 
L -262.347111 187.919963 
L -260.305647 187.292634 
L -258.264184 186.665302 
L -256.22272 186.039439 
L -254.181257 185.418901 
L -252.139793 184.781182 
L -250.09833 184.15452 
L -248.056867 183.51688 
L -246.015403 182.932059 
L -243.97394 182.26258 
L -241.932476 181.646494 
L -239.891013 181.01363 
L -237.84955 180.415957 
L -235.808086 179.777884 
L -233.766623 179.170596 
L -231.725159 178.554483 
L -229.683696 177.940829 
L -227.642232 177.341661 
L -225.600769 176.741209 
L -223.559306 176.161034 
L -221.517842 175.548681 
L -219.476379 174.927556 
L -217.434915 174.336138 
L -215.393452 173.756329 
L -213.351989 173.132592 
L -211.310525 172.532182 
L -209.269062 171.927348 
L -207.227598 171.33257 
L -205.186135 170.751473 
L -203.144672 170.154645 
L -201.103208 169.551852 
L -199.061745 169.008773 
L -197.020281 168.39362 
L -194.978818 167.804156 
L -192.937354 167.22419 
L -190.895891 166.643425 
L -188.854428 166.064182 
L -186.812964 165.477515 
L -184.771501 164.91744 
L -182.730037 164.335353 
L -180.688574 163.738717 
L -178.647111 163.135555 
L -176.605647 162.526139 
L -174.564184 161.955022 
L -172.52272 161.326546 
L -170.481257 160.658365 
L -168.439793 160.023888 
L -166.39833 159.367163 
L -164.356867 158.695283 
L -162.315403 157.986141 
L -160.27394 157.264355 
L -158.232476 156.592498 
L -156.191013 155.828875 
L -154.14955 155.102173 
L -152.108086 154.32001 
L -150.066623 153.600457 
L -148.025159 152.757492 
L -145.983696 151.930047 
L -143.942232 151.125938 
L -141.900769 150.308001 
L -139.859306 149.465505 
L -137.817842 148.585057 
L -135.776379 147.758998 
L -133.734915 146.813975 
L -131.693452 145.98181 
L -129.651989 145.009603 
L -127.610525 144.06798 
L -125.569062 143.147417 
L -123.527598 142.17885 
L -121.486135 141.195574 
L -119.444672 140.299009 
L -117.403208 139.118958 
L -115.361745 138.101672 
L -113.320281 137.152435 
L -111.278818 136.082 
L -109.237354 134.94792 
L -107.195891 133.707367 
L -105.154428 132.535488 
L -103.112964 131.547755 
L -101.071501 129.985512 
L -99.030037 128.729013 
L -96.988574 127.4441 
L -94.947111 126.113619 
L -92.905647 124.597537 
L -90.864184 123.138579 
L -88.82272 122.067143 
L -86.781257 120.70861 
L -84.739793 118.427633 
L -82.69833 116.535868 
L -80.656867 115.100413 
L -78.615403 113.244543 
L -76.57394 111.477719 
L -74.532476 110.122641 
L -72.491013 107.951318 
L -70.44955 105.560355 
L -68.408086 104.109474 
L -66.366623 103.327193 
L -64.325159 101.61825 
L -62.283696 100.787194 
L -60.242232 99.972148 
L -58.200769 97.782341 
L -56.159306 98.020318 
L -54.117842 98.983524 
L -52.076379 100.55757 
L -50.034915 98.529929 
L -47.993452 102.144389 
L -45.951989 103.315836 
L -43.910525 98.358384 
L -41.869062 98.825553 
L -39.827598 101.536078 
L -37.786135 100.010196 
L -35.744672 100.385063 
L -33.703208 110.205763 
L -31.661745 123.845552 
L -29.620281 131.210188 
L -27.578818 115.42039 
L -25.537354 123.061293 
L -23.495891 133.308223 
L -21.454428 133.180138 
L -19.412964 153.710359 
L -17.371501 150.543929 
L -15.330037 145.027398 
L -13.288574 128.315998 
L -11.247111 143.203892 
L -9.205647 151.955238 
L -7.164184 148.254536 
L -5.12272 150.743943 
L -3.081257 159.280923 
L -1.039793 158.037247 
L 1.00167 150.288548 
L 3.043133 159.494989 
L 5.084597 161.135939 
L 7.12606 157.618107 
L 9.167524 163.524486 
L 11.208987 165.746753 
L 13.25045 164.876021 
L 15.291914 163.065053 
L 17.333377 164.986169 
L 19.374841 162.981774 
L 21.416304 163.108352 
L 23.457768 164.797122 
L 25.499231 163.015474 
L 27.540694 163.830046 
L 29.582158 163.845838 
L 31.623621 162.402892 
L 33.665085 162.89804 
L 35.706548 160.720981 
L 37.748011 160.882717 
L 39.789475 161.417293 
L 41.830938 161.40981 
L 43.872402 160.389369 
L 45.913865 159.492839 
L 47.955328 159.233666 
L 49.996792 158.325503 
L 52.038255 158.163209 
L 54.079719 157.890031 
L 56.121182 156.568726 
L 58.162646 157.253601 
L 60.204109 156.271985 
L 62.245572 155.885769 
L 64.287036 155.949102 
L 66.328499 155.089721 
L 68.369963 154.989474 
L 70.411426 155.405542 
L 72.452889 155.87918 
L 74.494353 154.496876 
L 76.535816 154.311193 
L 78.57728 153.996008 
L 80.618743 156.608421 
L 82.660207 156.816116 
L 84.70167 157.984529 
L 86.743133 155.854578 
L 88.784597 154.553722 
L 90.82606 155.254821 
L 92.867524 157.120164 
L 94.908987 157.66798 
L 96.95045 154.938129 
L 98.991914 157.780717 
L 101.033377 157.295762 
L 103.074841 157.411218 
L 105.116304 156.376005 
L 107.157768 157.772187 
L 109.199231 157.457104 
L 111.240694 158.557316 
L 113.282158 158.206333 
L 115.323621 157.659175 
L 117.365085 156.948102 
L 119.406548 156.891281 
L 121.448011 156.657675 
L 123.489475 156.42237 
L 125.530938 156.903637 
L 127.572402 156.612026 
L 129.613865 156.405475 
L 131.655328 155.154124 
L 133.696792 154.08549 
L 135.738255 153.939627 
L 137.779719 152.858471 
L 139.821182 153.070198 
L 141.862646 152.230337 
L 143.904109 150.864043 
L 145.945572 149.690382 
L 147.987036 149.018548 
L 150.028499 147.488453 
L 152.069963 146.848286 
L 154.111426 145.482141 
L 156.152889 144.149246 
L 158.194353 143.038064 
L 160.235816 141.787791 
L 162.27728 140.258324 
L 164.318743 138.776107 
L 166.360207 137.336905 
L 168.40167 135.437451 
L 170.443133 133.844172 
L 172.484597 132.469798 
L 174.52606 130.860365 
L 176.567524 129.085628 
L 178.608987 127.407192 
L 180.65045 125.677299 
L 182.691914 123.181093 
L 184.733377 121.796301 
L 186.774841 120.00518 
L 188.816304 118.642669 
L 190.857768 116.220378 
L 192.899231 114.115787 
L 194.940694 112.759001 
L 196.982158 110.480788 
L 199.023621 108.035102 
L 201.065085 106.421804 
L 203.106548 103.941663 
L 205.148011 102.346444 
L 207.189475 100.073154 
L 209.230938 97.096765 
L 211.272402 94.965299 
L 213.313865 93.708411 
L 215.355328 91.014054 
L 217.396792 89.012884 
L 219.438255 86.47633 
L 221.479719 84.971876 
L 223.521182 81.88119 
L 225.562646 79.367562 
L 227.604109 80.620249 
L 229.645572 75.208824 
L 231.687036 74.944053 
L 233.728499 72.183619 
L 235.769963 71.328386 
L 237.811426 68.423943 
L 239.852889 66.698915 
L 241.894353 64.669254 
L 243.935816 63.191113 
L 245.97728 61.681607 
L 248.018743 59.700963 
L 250.060207 62.25539 
L 252.10167 55.342515 
L 254.143133 54.990373 
L 256.184597 59.135527 
L 258.22606 52.574261 
L 260.267524 54.606475 
L 262.308987 54.358611 
L 264.35045 50.406106 
L 266.391914 51.32434 
L 268.433377 57.370744 
L 270.474841 52.833213 
L 272.516304 52.750814 
L 274.557768 55.005426 
L 276.599231 55.353906 
L 278.640694 57.868475 
L 280.682158 61.158916 
L 282.723621 65.418333 
L 284.765085 78.814839 
L 286.806548 74.1851 
L 288.848011 81.40977 
L 290.889475 85.843205 
L 292.930938 89.162761 
L 294.972402 94.08924 
L 297.013865 99.114838 
L 299.055328 92.661901 
L 301.096792 98.655954 
L 303.138255 108.199383 
L 305.179719 112.512528 
L 307.221182 113.755219 
L 309.262646 125.97073 
L 311.304109 126.584919 
L 313.345572 128.793954 
L 315.387036 128.333495 
L 317.428499 137.941458 
L 319.469963 134.980071 
L 321.511426 132.34408 
L 323.552889 141.41896 
L 325.594353 148.690276 
L 327.635816 147.038461 
L 329.67728 152.228686 
L 331.718743 153.451041 
L 333.760207 153.839641 
L 335.80167 153.73789 
L 337.843133 155.172666 
L 339.884597 157.124404 
L 341.92606 165.105385 
L 343.967524 159.644183 
L 346.008987 166.508505 
L 348.05045 165.323747 
L 350.091914 163.960011 
L 352.133377 166.617164 
L 354.174841 168.930999 
L 356.216304 164.936927 
L 358.257768 167.995926 
L 360.299231 167.773192 
L 362.340694 171.111772 
L 364.382158 169.768839 
L 366.423621 168.190464 
L 368.465085 170.008233 
L 370.506548 170.232483 
L 372.548011 169.728932 
L 374.589475 168.691824 
L 376.630938 169.619035 
L 378.672402 167.367928 
L 380.713865 168.002917 
L 382.755328 171.23736 
L 384.796792 170.944389 
L 386.838255 168.651975 
L 388.879719 168.938491 
L 390.921182 168.764274 
L 392.962646 165.769922 
L 395.004109 167.271452 
L 397.045572 169.571122 
L 399.087036 166.703383 
L 401.128499 166.596209 
L 403.169963 165.322929 
L 405.211426 166.409034 
L 407.252889 166.301655 
L 409.294353 165.535803 
L 411.335816 165.405961 
L 413.37728 165.205575 
L 415.418743 164.507424 
L 417.460207 162.623166 
L 419.50167 162.204631 
L 421.543133 161.114685 
L 423.584597 158.003677 
L 425.62606 160.897765 
L 427.667524 157.232124 
L 429.708987 158.528952 
L 431.75045 158.532411 
L 433.791914 159.052161 
L 435.833377 157.275692 
L 437.874841 157.930137 
L 439.916304 158.046017 
L 441.957768 154.147059 
L 443.999231 155.76894 
L 446.040694 155.41516 
L 448.082158 156.525466 
L 450.123621 154.410057 
L 452.165085 155.536648 
L 454.206548 155.348699 
L 456.248011 152.277413 
L 458.289475 152.029072 
L 460.330938 151.280455 
L 462.372402 151.1391 
L 464.413865 150.322867 
L 466.455328 150.576275 
L 468.496792 150.411571 
L 470.538255 149.959393 
L 472.579719 149.178206 
L 474.621182 147.762364 
L 476.662646 149.122338 
L 478.704109 149.280676 
L 480.745572 148.43652 
L 482.787036 147.891335 
L 484.828499 144.920566 
L 486.869963 148.146548 
L 488.911426 147.827404 
L 490.952889 148.072106 
L 492.994353 147.207434 
L 495.035816 146.191685 
L 497.07728 145.456845 
L 499.118743 145.505969 
L 501.160207 145.29334 
L 503.20167 145.383971 
L 505.243133 143.661457 
L 507.284597 142.387201 
L 509.32606 144.238175 
L 511.367524 142.081118 
L 513.408987 142.19196 
L 515.45045 142.874504 
L 517.491914 139.438096 
L 519.533377 138.983274 
L 521.574841 140.233042 
L 523.616304 138.656591 
L 525.657768 140.503778 
L 527.699231 138.554218 
L 529.740694 136.142772 
L 531.782158 138.043239 
L 533.823621 138.36838 
L 535.865085 137.178277 
L 537.906548 138.09221 
L 539.948011 137.048819 
L 541.989475 140.652566 
L 544.030938 139.333762 
L 546.072402 139.604064 
L 548.113865 137.191492 
L 550.155328 135.039033 
L 552.196792 137.99096 
L 554.238255 140.824168 
L 556.279719 137.30242 
L 558.321182 137.265157 
L 560.362646 134.364672 
L 562.404109 135.440658 
L 564.445572 136.584095 
L 566.487036 134.841631 
L 568.528499 132.365532 
L 570.569963 136.434964 
L 572.611426 133.954664 
L 574.652889 137.100369 
L 576.694353 137.751482 
L 578.735816 132.84628 
L 580.77728 133.370668 
L 582.818743 131.511304 
L 584.860207 132.990836 
L 586.90167 135.411408 
L 588.943133 141.059095 
L 590.984597 143.261766 
L 593.02606 140.614603 
L 595.067524 146.858537 
L 597.108987 156.317811 
L 599.15045 144.217354 
L 601.191914 140.589827 
L 603.233377 144.561279 
L 605.274841 147.440789 
L 607.316304 148.049758 
L 609.357768 146.047639 
L 611.399231 152.879624 
L 613.440694 157.039006 
L 615.482158 149.421182 
L 617.523621 156.369459 
L 619.565085 153.091123 
L 621.606548 153.149055 
L 623.648011 159.547366 
L 625.689475 157.758999 
L 627.730938 162.945726 
L 629.772402 163.448335 
L 631.813865 156.430505 
L 633.855328 162.210844 
L 635.896792 161.992208 
L 637.938255 166.615147 
L 639.979719 164.949908 
L 642.021182 170.437764 
L 644.062646 166.842277 
L 646.104109 170.13366 
L 648.145572 170.545414 
L 650.187036 172.485404 
L 652.228499 167.34729 
L 654.269963 173.488973 
L 656.311426 175.386964 
L 658.352889 178.290218 
L 660.394353 182.323414 
L 662.435816 183.623267 
L 664.47728 180.991194 
L 666.518743 185.751671 
L 668.560207 194.60406 
L 670.60167 187.481829 
L 672.643133 183.861181 
L 674.684597 189.156174 
L 676.72606 194.116711 
L 678.767524 186.416697 
L 680.808987 183.244245 
L 682.85045 196.24223 
L 684.891914 204.484756 
L 686.933377 188.303919 
L 688.974841 192.654407 
L 691.016304 196.184105 
L 693.057768 197.28826 
L 695.099231 205.986361 
L 697.140694 203.514179 
L 699.182158 197.386791 
L 701.223621 204.597196 
L 703.265085 207.672625 
L 705.306548 197.737309 
L 707.348011 198.104324 
L 709.389475 197.275539 
L 711.430938 215.55295 
L 713.472402 225.288369 
L 715.513865 225.492256 
L 717.555328 212.87557 
L 719.596792 207.648811 
L 721.638255 211.172018 
L 723.679719 210.713294 
L 725.721182 226.749289 
L 727.762646 210.762537 
L 729.804109 224.302832 
L 731.845572 233.301652 
L 733.887036 224.987366 
L 735.928499 242.019507 
L 737.969963 229.520042 
L 740.011426 235.596957 
L 742.052889 237.838749 
L 744.094353 241.053497 
L 746.135816 248.783706 
L 748.17728 242.994594 
L 750.218743 248.598308 
L 752.260207 250.374042 
L 754.30167 251.58852 
L 756.343133 230.988736 
L 758.384597 261.984105 
L 760.42606 272.466223 
L 762.467524 261.113473 
L 764.508987 266.377945 
L 766.55045 274.160369 
L 768.591914 264.832687 
L 770.633377 274.762456 
L 772.674841 288.592038 
L 774.716304 283.476301 
L 776.757768 288.073586 
L 778.799231 292.735167 
L 780.840694 293.587681 
L 782.882158 292.808498 
L 784.923621 282.708481 
L 786.965085 309.456067 
L 789.006548 308.953492 
L 791.048011 305.007804 
L 793.089475 292.096858 
L 795.130938 313.433191 
L 797.172402 328.326339 
L 799.213865 314.129958 
L 801.255328 315.489205 
L 803.296792 333.507426 
L 805.338255 295.064511 
L 807.379719 328.297248 
L 809.421182 304.900098 
L 811.462646 342.78503 
L 813.504109 324.492789 
L 815.545572 339.967407 
L 817.587036 341.384779 
L 819.628499 348.143246 
L 821.669963 347.432859 
L 823.711426 342.159547 
L 825.752889 341.672826 
L 827.794353 349.6724 
L 829.835816 358.69005 
L 831.87728 358.260867 
L 833.918743 355.102101 
L 835.960207 366.422169 
L 838.00167 364.646062 
L 840.043133 360.514735 
L 842.084597 355.47389 
L 844.12606 373.534279 
L 846.167524 373.479634 
L 848.208987 376.972786 
L 850.25045 368.562474 
L 852.291914 349.755426 
L 854.333377 372.575268 
L 856.374841 363.867108 
L 858.416304 369.106829 
L 860.457768 374.748783 
L 862.499231 364.514427 
L 864.540694 377.64 
L 866.582158 366.269434 
L 868.623621 365.413115 
L 870.665085 369.854358 
L 872.706548 374.339672 
L 874.748011 371.214575 
L 876.789475 370.059841 
L 878.830938 363.540513 
L 880.872402 365.31375 
L 882.913865 368.525128 
L 884.955328 365.396999 
L 886.996792 371.83389 
L 889.038255 366.421653 
L 891.079719 372.022556 
L 893.121182 376.401993 
L 895.162646 375.801665 
L 897.204109 369.239307 
L 899.245572 368.395217 
L 901.287036 367.731007 
L 903.328499 369.476681 
L 905.369963 368.622996 
L 907.411426 358.747465 
L 909.452889 366.195068 
L 911.494353 317.6156 
L 913.535816 365.079477 
L 915.57728 367.799834 
L 917.618743 360.674379 
L 919.660207 354.106271 
L 921.70167 365.152784 
L 923.743133 359.028308 
L 925.784597 349.091778 
L 927.82606 355.761462 
L 929.867524 355.829038 
L 931.908987 351.963371 
L 933.95045 358.80204 
L 935.991914 353.11723 
L 938.033377 355.880115 
L 940.074841 357.588329 
L 940.074841 203.858116 
L 940.074841 203.858116 
L 938.033377 208.747787 
L 935.991914 205.994824 
L 933.95045 209.737287 
L 931.908987 206.758015 
L 929.867524 208.934534 
L 927.82606 208.242153 
L 925.784597 209.835083 
L 923.743133 213.419218 
L 921.70167 214.144971 
L 919.660207 213.254963 
L 917.618743 214.229166 
L 915.57728 218.491165 
L 913.535816 217.005686 
L 911.494353 209.349836 
L 909.452889 219.411582 
L 907.411426 218.30829 
L 905.369963 221.052761 
L 903.328499 222.386967 
L 901.287036 222.231327 
L 899.245572 224.170505 
L 897.204109 225.581256 
L 895.162646 228.092334 
L 893.121182 228.847569 
L 891.079719 228.938151 
L 889.038255 227.749724 
L 886.996792 229.790409 
L 884.955328 227.9889 
L 882.913865 229.661329 
L 880.872402 229.773583 
L 878.830938 230.104063 
L 876.789475 232.804098 
L 874.748011 234.140419 
L 872.706548 236.534416 
L 870.665085 234.669014 
L 868.623621 234.605631 
L 866.582158 235.773094 
L 864.540694 240.082614 
L 862.499231 236.384156 
L 860.457768 240.495743 
L 858.416304 238.991661 
L 856.374841 237.473025 
L 854.333377 241.568146 
L 852.291914 235.139077 
L 850.25045 241.257683 
L 848.208987 245.404781 
L 846.167524 244.895606 
L 844.12606 245.198672 
L 842.084597 240.342037 
L 840.043133 242.116694 
L 838.00167 244.099783 
L 835.960207 245.15317 
L 833.918743 241.381946 
L 831.87728 242.866629 
L 829.835816 244.162981 
L 827.794353 239.45396 
L 825.752889 237.647934 
L 823.711426 238.847289 
L 821.669963 241.647849 
L 819.628499 242.53303 
L 817.587036 239.315235 
L 815.545572 239.109597 
L 813.504109 233.713949 
L 811.462646 241.155389 
L 809.421182 229.050446 
L 807.379719 237.062594 
L 805.338255 224.635039 
L 803.296792 239.525764 
L 801.255328 232.453309 
L 799.213865 231.239322 
L 797.172402 239.408957 
L 795.130938 233.001475 
L 793.089475 224.38877 
L 791.048011 230.637066 
L 789.006548 232.06281 
L 786.965085 232.622474 
L 784.923621 221.649803 
L 782.882158 229.881683 
L 780.840694 226.498927 
L 778.799231 226.438054 
L 776.757768 224.801019 
L 774.716304 223.7035 
L 772.674841 225.772318 
L 770.633377 220.458759 
L 768.591914 216.420906 
L 766.55045 219.19418 
L 764.508987 218.048673 
L 762.467524 214.452187 
L 760.42606 220.011644 
L 758.384597 215.47787 
L 756.343133 201.751713 
L 754.30167 211.676403 
L 752.260207 211.941227 
L 750.218743 210.963841 
L 748.17728 208.768229 
L 746.135816 211.704883 
L 744.094353 207.940765 
L 742.052889 206.445344 
L 740.011426 205.922997 
L 737.969963 204.310767 
L 735.928499 209.6631 
L 733.887036 201.713661 
L 731.845572 206.506627 
L 729.804109 201.903817 
L 727.762646 194.343985 
L 725.721182 203.850293 
L 723.679719 196.353916 
L 721.638255 196.092696 
L 719.596792 194.008927 
L 717.555328 197.227108 
L 715.513865 204.268124 
L 713.472402 203.828262 
L 711.430938 198.809506 
L 709.389475 189.81274 
L 707.348011 190.065721 
L 705.306548 189.017176 
L 703.265085 195.603735 
L 701.223621 193.542106 
L 699.182158 189.52119 
L 697.140694 192.718677 
L 695.099231 195.523679 
L 693.057768 189.794937 
L 691.016304 188.104245 
L 688.974841 185.895167 
L 686.933377 182.516318 
L 684.891914 193.33942 
L 682.85045 189.601743 
L 680.808987 178.549392 
L 678.767524 180.165809 
L 676.72606 186.322995 
L 674.684597 183.06226 
L 672.643133 178.736273 
L 670.60167 181.021939 
L 668.560207 185.658574 
L 666.518743 180.98155 
L 664.47728 176.083565 
L 662.435816 177.911296 
L 660.394353 178.441516 
L 658.352889 173.81595 
L 656.311426 170.653395 
L 654.269963 167.942241 
L 652.228499 158.962858 
L 650.187036 166.509501 
L 648.145572 164.145834 
L 646.104109 164.387155 
L 644.062646 160.342986 
L 642.021182 164.784482 
L 639.979719 157.245293 
L 637.938255 160.031764 
L 635.896792 153.536277 
L 633.855328 154.404214 
L 631.813865 146.180187 
L 629.772402 154.015561 
L 627.730938 156.02532 
L 625.689475 150.515421 
L 623.648011 151.094927 
L 621.606548 143.51552 
L 619.565085 144.708354 
L 617.523621 147.083268 
L 615.482158 138.671606 
L 613.440694 147.512115 
L 611.399231 143.884795 
L 609.357768 134.547512 
L 607.316304 137.879166 
L 605.274841 136.819991 
L 603.233377 134.051169 
L 601.191914 129.687417 
L 599.15045 133.710021 
L 597.108987 148.667852 
L 595.067524 137.619685 
L 593.02606 129.719871 
L 590.984597 132.385605 
L 588.943133 129.828704 
L 586.90167 123.690422 
L 584.860207 120.745206 
L 582.818743 118.207026 
L 580.77728 120.761418 
L 578.735816 120.271523 
L 576.694353 125.743116 
L 574.652889 125.047437 
L 572.611426 121.281183 
L 570.569963 124.431305 
L 568.528499 118.673658 
L 566.487036 122.270798 
L 564.445572 123.941054 
L 562.404109 122.964752 
L 560.362646 121.037419 
L 558.321182 124.767636 
L 556.279719 124.461529 
L 554.238255 128.060195 
L 552.196792 124.854314 
L 550.155328 121.282419 
L 548.113865 123.644977 
L 546.072402 125.715335 
L 544.030938 125.335078 
L 541.989475 127.456854 
L 539.948011 122.418357 
L 537.906548 123.709247 
L 535.865085 122.290611 
L 533.823621 123.173726 
L 531.782158 122.141591 
L 529.740694 119.889024 
L 527.699231 123.221614 
L 525.657768 124.943627 
L 523.616304 122.38113 
L 521.574841 124.246423 
L 519.533377 122.107413 
L 517.491914 123.095003 
L 515.45045 127.199668 
L 513.408987 126.075169 
L 511.367524 126.102756 
L 509.32606 128.440492 
L 507.284597 125.883587 
L 505.243133 127.410409 
L 503.20167 129.490417 
L 501.160207 129.153131 
L 499.118743 129.607874 
L 497.07728 129.383894 
L 495.035816 130.103881 
L 492.994353 131.441876 
L 490.952889 132.405574 
L 488.911426 131.787392 
L 486.869963 132.456749 
L 484.828499 127.892852 
L 482.787036 132.080439 
L 480.745572 132.568657 
L 478.704109 133.289519 
L 476.662646 132.834443 
L 474.621182 131.551932 
L 472.579719 132.978952 
L 470.538255 133.596407 
L 468.496792 134.101271 
L 466.455328 133.956239 
L 464.413865 133.355652 
L 462.372402 133.818285 
L 460.330938 133.985824 
L 458.289475 134.605644 
L 456.248011 134.780798 
L 454.206548 138.182022 
L 452.165085 138.205558 
L 450.123621 136.562267 
L 448.082158 138.738154 
L 446.040694 137.023639 
L 443.999231 137.286843 
L 441.957768 134.418253 
L 439.916304 139.365309 
L 437.874841 138.964165 
L 435.833377 137.916503 
L 433.791914 139.539393 
L 431.75045 138.59604 
L 429.708987 138.28836 
L 427.667524 136.18719 
L 425.62606 139.815936 
L 423.584597 136.719507 
L 421.543133 140.14765 
L 419.50167 141.459753 
L 417.460207 141.759505 
L 415.418743 143.862921 
L 413.37728 145.011747 
L 411.335816 144.484465 
L 409.294353 144.990371 
L 407.252889 145.322246 
L 405.211426 145.487352 
L 403.169963 144.009463 
L 401.128499 145.846772 
L 399.087036 146.487441 
L 397.045572 149.11399 
L 395.004109 146.937824 
L 392.962646 145.771569 
L 390.921182 148.76545 
L 388.879719 149.145228 
L 386.838255 149.660334 
L 384.796792 151.657488 
L 382.755328 151.881959 
L 380.713865 149.446617 
L 378.672402 149.33634 
L 376.630938 151.504427 
L 374.589475 151.333757 
L 372.548011 152.091626 
L 370.506548 152.598485 
L 368.465085 152.870979 
L 366.423621 152.498833 
L 364.382158 153.652288 
L 362.340694 154.90105 
L 360.299231 151.837909 
L 358.257768 152.752832 
L 356.216304 150.85418 
L 354.174841 154.159859 
L 352.133377 153.31754 
L 350.091914 150.872576 
L 348.05045 152.425647 
L 346.008987 153.236816 
L 343.967524 148.017893 
L 341.92606 152.940035 
L 339.884597 146.731385 
L 337.843133 145.730446 
L 335.80167 144.606271 
L 333.760207 145.36869 
L 331.718743 145.100357 
L 329.67728 143.817677 
L 327.635816 139.514559 
L 325.594353 140.877349 
L 323.552889 134.202729 
L 321.511426 125.624419 
L 319.469963 128.233271 
L 317.428499 131.108089 
L 315.387036 120.627097 
L 313.345572 121.31888 
L 311.304109 118.488454 
L 309.262646 117.712191 
L 307.221182 102.491983 
L 305.179719 100.632829 
L 303.138255 95.372636 
L 301.096792 83.818932 
L 299.055328 75.47495 
L 297.013865 83.397867 
L 294.972402 77.208525 
L 292.930938 70.731207 
L 290.889475 66.687736 
L 288.848011 61.455716 
L 286.806548 51.837858 
L 284.765085 57.979526 
L 282.723621 40.948929 
L 280.682158 34.813379 
L 278.640694 31.405114 
L 276.599231 28.451952 
L 274.557768 28.448571 
L 272.516304 26.296544 
L 270.474841 27.207837 
L 268.433377 32.360652 
L 266.391914 25.326731 
L 264.35045 24.84 
L 262.308987 30.148768 
L 260.267524 30.869582 
L 258.22606 28.704214 
L 256.184597 37.459115 
L 254.143133 32.569599 
L 252.10167 33.720024 
L 250.060207 42.485518 
L 248.018743 39.806771 
L 245.97728 42.894353 
L 243.935816 45.207189 
L 241.894353 47.625033 
L 239.852889 50.404515 
L 237.811426 53.097495 
L 235.769963 57.064105 
L 233.728499 58.551998 
L 231.687036 62.479595 
L 229.645572 63.304208 
L 227.604109 70.104525 
L 225.562646 69.02262 
L 223.521182 71.219992 
L 221.479719 73.880036 
L 219.438255 75.160089 
L 217.396792 77.336347 
L 215.355328 79.082859 
L 213.313865 81.498227 
L 211.272402 82.60669 
L 209.230938 84.421425 
L 207.189475 87.041718 
L 205.148011 89.052325 
L 203.106548 90.313411 
L 201.065085 92.340323 
L 199.023621 93.78001 
L 196.982158 95.911838 
L 194.940694 97.929499 
L 192.899231 99.023637 
L 190.857768 100.917265 
L 188.816304 102.911685 
L 186.774841 103.919471 
L 184.733377 105.393359 
L 182.691914 106.45477 
L 180.65045 108.697099 
L 178.608987 110.090793 
L 176.567524 111.605685 
L 174.52606 113.091212 
L 172.484597 114.240034 
L 170.443133 115.419069 
L 168.40167 116.663742 
L 166.360207 118.282635 
L 164.318743 119.408149 
L 162.27728 120.728347 
L 160.235816 121.84426 
L 158.194353 123.174217 
L 156.152889 124.264792 
L 154.111426 125.42796 
L 152.069963 126.648559 
L 150.028499 127.370463 
L 147.987036 128.740772 
L 145.945572 129.524422 
L 143.904109 130.584454 
L 141.862646 131.965027 
L 139.821182 132.801919 
L 137.779719 132.623467 
L 135.738255 133.762662 
L 133.696792 134.084298 
L 131.655328 135.271541 
L 129.613865 136.513601 
L 127.572402 136.974656 
L 125.530938 137.47731 
L 123.489475 136.977987 
L 121.448011 137.415252 
L 119.406548 137.621914 
L 117.365085 137.699104 
L 115.323621 138.571951 
L 113.282158 139.186259 
L 111.240694 139.804197 
L 109.199231 138.651892 
L 107.157768 138.919508 
L 105.116304 137.537851 
L 103.074841 138.84448 
L 101.033377 138.575765 
L 98.991914 139.649164 
L 96.95045 136.643217 
L 94.908987 139.531236 
L 92.867524 138.990612 
L 90.82606 137.020563 
L 88.784597 136.331738 
L 86.743133 137.782748 
L 84.70167 140.203545 
L 82.660207 138.954892 
L 80.618743 138.751894 
L 78.57728 135.825375 
L 76.535816 135.629647 
L 74.494353 136.367546 
L 72.452889 137.982042 
L 70.411426 137.412015 
L 68.369963 136.939856 
L 66.328499 137.068131 
L 64.287036 138.068413 
L 62.245572 137.769863 
L 60.204109 138.409944 
L 58.162646 139.579557 
L 56.121182 138.742038 
L 54.079719 140.235596 
L 52.038255 140.564463 
L 49.996792 140.743109 
L 47.955328 141.721874 
L 45.913865 141.993458 
L 43.872402 143.175245 
L 41.830938 144.42249 
L 39.789475 144.455618 
L 37.748011 143.952028 
L 35.706548 143.516416 
L 33.665085 146.292258 
L 31.623621 145.828176 
L 29.582158 147.595256 
L 27.540694 147.629928 
L 25.499231 147.013061 
L 23.457768 148.797385 
L 21.416304 147.264993 
L 19.374841 147.364132 
L 17.333377 149.584064 
L 15.291914 147.955885 
L 13.25045 150.031007 
L 11.208987 151.000855 
L 9.167524 149.098904 
L 7.12606 143.410363 
L 5.084597 147.164574 
L 3.043133 145.617476 
L 1.00167 137.243614 
L -1.039793 144.778612 
L -3.081257 146.241692 
L -5.12272 138.497598 
L -7.164184 136.222619 
L -9.205647 140.238386 
L -11.247111 132.094087 
L -13.288574 117.287218 
L -15.330037 134.363897 
L -17.371501 139.81963 
L -19.412964 143.214139 
L -21.454428 123.380738 
L -23.495891 123.741917 
L -25.537354 113.61434 
L -27.578818 105.874409 
L -29.620281 122.413488 
L -31.661745 115.150621 
L -33.703208 101.338643 
L -35.744672 91.41555 
L -37.786135 91.325726 
L -39.827598 93.226622 
L -41.869062 90.698226 
L -43.910525 90.488529 
L -45.951989 95.94378 
L -47.993452 94.954361 
L -50.034915 91.463906 
L -52.076379 93.82038 
L -54.117842 92.465286 
L -56.159306 91.735887 
L -58.200769 91.800614 
L -60.242232 94.26463 
L -62.283696 95.348127 
L -64.325159 96.403518 
L -66.366623 98.399274 
L -68.408086 99.41051 
L -70.44955 100.935614 
L -72.491013 103.372219 
L -74.532476 105.47738 
L -76.57394 106.750792 
L -78.615403 108.439165 
L -80.656867 110.284052 
L -82.69833 111.581867 
L -84.739793 113.486468 
L -86.781257 115.827006 
L -88.82272 117.171685 
L -90.864184 118.119852 
L -92.905647 119.586988 
L -94.947111 121.043786 
L -96.988574 122.368268 
L -99.030037 123.637379 
L -101.071501 124.860342 
L -103.112964 126.536263 
L -105.154428 127.405225 
L -107.195891 128.610905 
L -109.237354 129.855429 
L -111.278818 131.025344 
L -113.320281 132.11362 
L -115.361745 133.009113 
L -117.403208 133.982649 
L -119.444672 135.274047 
L -121.486135 136.112809 
L -123.527598 137.116947 
L -125.569062 138.098029 
L -127.610525 139.056145 
L -129.651989 140.036883 
L -131.693452 141.037764 
L -133.734915 141.861845 
L -135.776379 142.832194 
L -137.817842 143.683761 
L -139.859306 144.595663 
L -141.900769 145.443339 
L -143.942232 146.318834 
L -145.983696 147.135307 
L -148.025159 148.006457 
L -150.066623 148.935233 
L -152.108086 149.655105 
L -154.14955 150.525828 
L -156.191013 151.273425 
L -158.232476 152.139991 
L -160.27394 152.774764 
L -162.315403 153.582782 
L -164.356867 154.352119 
L -166.39833 155.083732 
L -168.439793 155.81744 
L -170.481257 156.518755 
L -172.52272 157.322295 
L -174.564184 158.048042 
L -176.605647 158.642807 
L -178.647111 159.35055 
L -180.688574 160.057869 
L -182.730037 160.761911 
L -184.771501 161.440401 
L -186.812964 162.073073 
L -188.854428 162.769733 
L -190.895891 163.452631 
L -192.937354 164.139422 
L -194.978818 164.823784 
L -197.020281 165.526868 
L -199.061745 166.258168 
L -201.103208 166.886725 
L -203.144672 167.607573 
L -205.186135 168.31469 
L -207.227598 168.993824 
L -209.269062 169.694442 
L -211.310525 170.409661 
L -213.351989 171.103566 
L -215.393452 171.831189 
L -217.434915 172.495416 
L -219.476379 173.173396 
L -221.517842 173.89056 
L -223.559306 174.582697 
L -225.600769 175.231958 
L -227.642232 175.908721 
L -229.683696 176.572482 
L -231.725159 177.251585 
L -233.766623 177.933376 
L -235.808086 178.598824 
L -237.84955 179.294502 
L -239.891013 179.93357 
L -241.932476 180.61402 
L -243.97394 181.271565 
L -246.015403 181.991257 
L -248.056867 182.609844 
L -250.09833 183.289713 
L -252.139793 183.954675 
L -254.181257 184.631627 
L -256.22272 185.285313 
L -258.264184 185.945426 
L -260.305647 186.608374 
L -262.347111 187.270491 
L -264.388574 187.922448 
L -266.430037 188.527408 
L -268.471501 189.12767 
L -270.512964 189.728167 
L -272.554428 190.307678 
L -274.595891 190.897893 
L -276.637354 191.480461 
L -278.678818 192.036875 
L -280.720281 192.592531 
L -282.761745 193.145111 
L -284.803208 193.671676 
L -286.844672 194.189652 
L -288.886135 194.730294 
L -290.927598 195.230147 
L -292.969062 195.698256 
L -295.010525 196.201336 
L -297.051989 196.669329 
L -299.093452 197.08544 
L -301.134915 197.520726 
L -303.176379 197.918531 
L -305.217842 198.329592 
L -307.259306 198.704033 
L -309.300769 199.072429 
L -311.342232 199.416977 
L -313.383696 199.749826 
L -315.425159 200.061113 
L -317.466623 200.330694 
L -319.508086 200.603248 
L -321.54955 200.861682 
L -323.591013 201.091993 
L -325.632476 201.341749 
L -327.67394 201.551861 
L -329.715403 201.732753 
L -331.756867 201.945022 
L -333.79833 202.124031 
L -335.839793 202.279489 
L -337.881257 202.449696 
L -339.92272 202.614853 
L -341.964184 202.750674 
L -344.005647 202.898971 
L -346.047111 203.014135 
L -348.088574 203.156228 
L -350.130037 203.270477 
L -352.171501 203.391638 
L -354.212964 203.519136 
L -356.254428 203.622204 
L -358.295891 203.73056 
L -360.337354 203.857819 
L -362.378818 203.974094 
L -364.420281 204.093434 
L -366.461745 204.190478 
L -368.503208 204.314903 
L -370.544672 204.424227 
L -372.586135 204.537756 
L -374.627598 204.632621 
L -376.669062 204.715479 
L -378.710525 204.811733 
L -380.751989 204.921321 
L -382.793452 205.030504 
L -384.834915 205.117374 
L -386.876379 205.195616 
L -388.917842 205.299275 
L -390.959306 205.383634 
L -393.000769 205.485762 
z
" clip-path="url(#p2bdffcdf45)" style="fill: #008000; fill-opacity: 0.3; stroke: #008000; stroke-opacity: 0.3"/>
   </g>
   <g id="matplotlib.axis_1">
    <g id="xtick_1">
     <g id="line2d_1">
      <defs>
       <path id="m0935001ff1" d="M 0 0 
L 0 3.5 
" style="stroke: #000000; stroke-width: 0.8"/>
      </defs>
      <g>
       <use xlink:href="#m0935001ff1" x="103.074841" y="395.28" style="stroke: #000000; stroke-width: 0.8"/>
      </g>
     </g>
     <g id="text_1">
      <!-- 2022-03-01 -->
      <g transform="translate(17.945813 495.213718) rotate(-45) scale(0.2 -0.2)">
       <defs>
        <path id="DejaVuSans-32" d="M 1228 531 
L 3431 531 
L 3431 0 
L 469 0 
L 469 531 
Q 828 903 1448 1529 
Q 2069 2156 2228 2338 
Q 2531 2678 2651 2914 
Q 2772 3150 2772 3378 
Q 2772 3750 2511 3984 
Q 2250 4219 1831 4219 
Q 1534 4219 1204 4116 
Q 875 4013 500 3803 
L 500 4441 
Q 881 4594 1212 4672 
Q 1544 4750 1819 4750 
Q 2544 4750 2975 4387 
Q 3406 4025 3406 3419 
Q 3406 3131 3298 2873 
Q 3191 2616 2906 2266 
Q 2828 2175 2409 1742 
Q 1991 1309 1228 531 
z
" transform="scale(0.015625)"/>
        <path id="DejaVuSans-30" d="M 2034 4250 
Q 1547 4250 1301 3770 
Q 1056 3291 1056 2328 
Q 1056 1369 1301 889 
Q 1547 409 2034 409 
Q 2525 409 2770 889 
Q 3016 1369 3016 2328 
Q 3016 3291 2770 3770 
Q 2525 4250 2034 4250 
z
M 2034 4750 
Q 2819 4750 3233 4129 
Q 3647 3509 3647 2328 
Q 3647 1150 3233 529 
Q 2819 -91 2034 -91 
Q 1250 -91 836 529 
Q 422 1150 422 2328 
Q 422 3509 836 4129 
Q 1250 4750 2034 4750 
z
" transform="scale(0.015625)"/>
        <path id="DejaVuSans-2d" d="M 313 2009 
L 1997 2009 
L 1997 1497 
L 313 1497 
L 313 2009 
z
" transform="scale(0.015625)"/>
        <path id="DejaVuSans-33" d="M 2597 2516 
Q 3050 2419 3304 2112 
Q 3559 1806 3559 1356 
Q 3559 666 3084 287 
Q 2609 -91 1734 -91 
Q 1441 -91 1130 -33 
Q 819 25 488 141 
L 488 750 
Q 750 597 1062 519 
Q 1375 441 1716 441 
Q 2309 441 2620 675 
Q 2931 909 2931 1356 
Q 2931 1769 2642 2001 
Q 2353 2234 1838 2234 
L 1294 2234 
L 1294 2753 
L 1863 2753 
Q 2328 2753 2575 2939 
Q 2822 3125 2822 3475 
Q 2822 3834 2567 4026 
Q 2313 4219 1838 4219 
Q 1578 4219 1281 4162 
Q 984 4106 628 3988 
L 628 4550 
Q 988 4650 1302 4700 
Q 1616 4750 1894 4750 
Q 2613 4750 3031 4423 
Q 3450 4097 3450 3541 
Q 3450 3153 3228 2886 
Q 3006 2619 2597 2516 
z
" transform="scale(0.015625)"/>
        <path id="DejaVuSans-31" d="M 794 531 
L 1825 531 
L 1825 4091 
L 703 3866 
L 703 4441 
L 1819 4666 
L 2450 4666 
L 2450 531 
L 3481 531 
L 3481 0 
L 794 0 
L 794 531 
z
" transform="scale(0.015625)"/>
       </defs>
       <use xlink:href="#DejaVuSans-32"/>
       <use xlink:href="#DejaVuSans-30" x="63.623047"/>
       <use xlink:href="#DejaVuSans-32" x="127.246094"/>
       <use xlink:href="#DejaVuSans-32" x="190.869141"/>
       <use xlink:href="#DejaVuSans-2d" x="254.492188"/>
       <use xlink:href="#DejaVuSans-30" x="290.576172"/>
       <use xlink:href="#DejaVuSans-33" x="354.199219"/>
       <use xlink:href="#DejaVuSans-2d" x="417.822266"/>
       <use xlink:href="#DejaVuSans-30" x="453.90625"/>
       <use xlink:href="#DejaVuSans-31" x="517.529297"/>
      </g>
     </g>
    </g>
    <g id="xtick_2">
     <g id="line2d_2">
      <g>
       <use xlink:href="#m0935001ff1" x="160.235816" y="395.28" style="stroke: #000000; stroke-width: 0.8"/>
      </g>
     </g>
     <g id="text_2">
      <!-- 2022-03-29 -->
      <g transform="translate(75.106789 495.213718) rotate(-45) scale(0.2 -0.2)">
       <defs>
        <path id="DejaVuSans-39" d="M 703 97 
L 703 672 
Q 941 559 1184 500 
Q 1428 441 1663 441 
Q 2288 441 2617 861 
Q 2947 1281 2994 2138 
Q 2813 1869 2534 1725 
Q 2256 1581 1919 1581 
Q 1219 1581 811 2004 
Q 403 2428 403 3163 
Q 403 3881 828 4315 
Q 1253 4750 1959 4750 
Q 2769 4750 3195 4129 
Q 3622 3509 3622 2328 
Q 3622 1225 3098 567 
Q 2575 -91 1691 -91 
Q 1453 -91 1209 -44 
Q 966 3 703 97 
z
M 1959 2075 
Q 2384 2075 2632 2365 
Q 2881 2656 2881 3163 
Q 2881 3666 2632 3958 
Q 2384 4250 1959 4250 
Q 1534 4250 1286 3958 
Q 1038 3666 1038 3163 
Q 1038 2656 1286 2365 
Q 1534 2075 1959 2075 
z
" transform="scale(0.015625)"/>
       </defs>
       <use xlink:href="#DejaVuSans-32"/>
       <use xlink:href="#DejaVuSans-30" x="63.623047"/>
       <use xlink:href="#DejaVuSans-32" x="127.246094"/>
       <use xlink:href="#DejaVuSans-32" x="190.869141"/>
       <use xlink:href="#DejaVuSans-2d" x="254.492188"/>
       <use xlink:href="#DejaVuSans-30" x="290.576172"/>
       <use xlink:href="#DejaVuSans-33" x="354.199219"/>
       <use xlink:href="#DejaVuSans-2d" x="417.822266"/>
       <use xlink:href="#DejaVuSans-32" x="453.90625"/>
       <use xlink:href="#DejaVuSans-39" x="517.529297"/>
      </g>
     </g>
    </g>
    <g id="xtick_3">
     <g id="line2d_3">
      <g>
       <use xlink:href="#m0935001ff1" x="217.396792" y="395.28" style="stroke: #000000; stroke-width: 0.8"/>
      </g>
     </g>
     <g id="text_3">
      <!-- 2022-04-26 -->
      <g transform="translate(132.267765 495.213718) rotate(-45) scale(0.2 -0.2)">
       <defs>
        <path id="DejaVuSans-34" d="M 2419 4116 
L 825 1625 
L 2419 1625 
L 2419 4116 
z
M 2253 4666 
L 3047 4666 
L 3047 1625 
L 3713 1625 
L 3713 1100 
L 3047 1100 
L 3047 0 
L 2419 0 
L 2419 1100 
L 313 1100 
L 313 1709 
L 2253 4666 
z
" transform="scale(0.015625)"/>
        <path id="DejaVuSans-36" d="M 2113 2584 
Q 1688 2584 1439 2293 
Q 1191 2003 1191 1497 
Q 1191 994 1439 701 
Q 1688 409 2113 409 
Q 2538 409 2786 701 
Q 3034 994 3034 1497 
Q 3034 2003 2786 2293 
Q 2538 2584 2113 2584 
z
M 3366 4563 
L 3366 3988 
Q 3128 4100 2886 4159 
Q 2644 4219 2406 4219 
Q 1781 4219 1451 3797 
Q 1122 3375 1075 2522 
Q 1259 2794 1537 2939 
Q 1816 3084 2150 3084 
Q 2853 3084 3261 2657 
Q 3669 2231 3669 1497 
Q 3669 778 3244 343 
Q 2819 -91 2113 -91 
Q 1303 -91 875 529 
Q 447 1150 447 2328 
Q 447 3434 972 4092 
Q 1497 4750 2381 4750 
Q 2619 4750 2861 4703 
Q 3103 4656 3366 4563 
z
" transform="scale(0.015625)"/>
       </defs>
       <use xlink:href="#DejaVuSans-32"/>
       <use xlink:href="#DejaVuSans-30" x="63.623047"/>
       <use xlink:href="#DejaVuSans-32" x="127.246094"/>
       <use xlink:href="#DejaVuSans-32" x="190.869141"/>
       <use xlink:href="#DejaVuSans-2d" x="254.492188"/>
       <use xlink:href="#DejaVuSans-30" x="290.576172"/>
       <use xlink:href="#DejaVuSans-34" x="354.199219"/>
       <use xlink:href="#DejaVuSans-2d" x="417.822266"/>
       <use xlink:href="#DejaVuSans-32" x="453.90625"/>
       <use xlink:href="#DejaVuSans-36" x="517.529297"/>
      </g>
     </g>
    </g>
    <g id="xtick_4">
     <g id="line2d_4">
      <g>
       <use xlink:href="#m0935001ff1" x="274.557768" y="395.28" style="stroke: #000000; stroke-width: 0.8"/>
      </g>
     </g>
     <g id="text_4">
      <!-- 2022-05-24 -->
      <g transform="translate(189.42874 495.213718) rotate(-45) scale(0.2 -0.2)">
       <defs>
        <path id="DejaVuSans-35" d="M 691 4666 
L 3169 4666 
L 3169 4134 
L 1269 4134 
L 1269 2991 
Q 1406 3038 1543 3061 
Q 1681 3084 1819 3084 
Q 2600 3084 3056 2656 
Q 3513 2228 3513 1497 
Q 3513 744 3044 326 
Q 2575 -91 1722 -91 
Q 1428 -91 1123 -41 
Q 819 9 494 109 
L 494 744 
Q 775 591 1075 516 
Q 1375 441 1709 441 
Q 2250 441 2565 725 
Q 2881 1009 2881 1497 
Q 2881 1984 2565 2268 
Q 2250 2553 1709 2553 
Q 1456 2553 1204 2497 
Q 953 2441 691 2322 
L 691 4666 
z
" transform="scale(0.015625)"/>
       </defs>
       <use xlink:href="#DejaVuSans-32"/>
       <use xlink:href="#DejaVuSans-30" x="63.623047"/>
       <use xlink:href="#DejaVuSans-32" x="127.246094"/>
       <use xlink:href="#DejaVuSans-32" x="190.869141"/>
       <use xlink:href="#DejaVuSans-2d" x="254.492188"/>
       <use xlink:href="#DejaVuSans-30" x="290.576172"/>
       <use xlink:href="#DejaVuSans-35" x="354.199219"/>
       <use xlink:href="#DejaVuSans-2d" x="417.822266"/>
       <use xlink:href="#DejaVuSans-32" x="453.90625"/>
       <use xlink:href="#DejaVuSans-34" x="517.529297"/>
      </g>
     </g>
    </g>
    <g id="xtick_5">
     <g id="line2d_5">
      <g>
       <use xlink:href="#m0935001ff1" x="331.718743" y="395.28" style="stroke: #000000; stroke-width: 0.8"/>
      </g>
     </g>
     <g id="text_5">
      <!-- 2022-06-21 -->
      <g transform="translate(246.589716 495.213718) rotate(-45) scale(0.2 -0.2)">
       <use xlink:href="#DejaVuSans-32"/>
       <use xlink:href="#DejaVuSans-30" x="63.623047"/>
       <use xlink:href="#DejaVuSans-32" x="127.246094"/>
       <use xlink:href="#DejaVuSans-32" x="190.869141"/>
       <use xlink:href="#DejaVuSans-2d" x="254.492188"/>
       <use xlink:href="#DejaVuSans-30" x="290.576172"/>
       <use xlink:href="#DejaVuSans-36" x="354.199219"/>
       <use xlink:href="#DejaVuSans-2d" x="417.822266"/>
       <use xlink:href="#DejaVuSans-32" x="453.90625"/>
       <use xlink:href="#DejaVuSans-31" x="517.529297"/>
      </g>
     </g>
    </g>
    <g id="xtick_6">
     <g id="line2d_6">
      <g>
       <use xlink:href="#m0935001ff1" x="388.879719" y="395.28" style="stroke: #000000; stroke-width: 0.8"/>
      </g>
     </g>
     <g id="text_6">
      <!-- 2022-07-19 -->
      <g transform="translate(303.750691 495.213718) rotate(-45) scale(0.2 -0.2)">
       <defs>
        <path id="DejaVuSans-37" d="M 525 4666 
L 3525 4666 
L 3525 4397 
L 1831 0 
L 1172 0 
L 2766 4134 
L 525 4134 
L 525 4666 
z
" transform="scale(0.015625)"/>
       </defs>
       <use xlink:href="#DejaVuSans-32"/>
       <use xlink:href="#DejaVuSans-30" x="63.623047"/>
       <use xlink:href="#DejaVuSans-32" x="127.246094"/>
       <use xlink:href="#DejaVuSans-32" x="190.869141"/>
       <use xlink:href="#DejaVuSans-2d" x="254.492188"/>
       <use xlink:href="#DejaVuSans-30" x="290.576172"/>
       <use xlink:href="#DejaVuSans-37" x="354.199219"/>
       <use xlink:href="#DejaVuSans-2d" x="417.822266"/>
       <use xlink:href="#DejaVuSans-31" x="453.90625"/>
       <use xlink:href="#DejaVuSans-39" x="517.529297"/>
      </g>
     </g>
    </g>
    <g id="xtick_7">
     <g id="line2d_7">
      <g>
       <use xlink:href="#m0935001ff1" x="446.040694" y="395.28" style="stroke: #000000; stroke-width: 0.8"/>
      </g>
     </g>
     <g id="text_7">
      <!-- 2022-08-16 -->
      <g transform="translate(360.911667 495.213718) rotate(-45) scale(0.2 -0.2)">
       <defs>
        <path id="DejaVuSans-38" d="M 2034 2216 
Q 1584 2216 1326 1975 
Q 1069 1734 1069 1313 
Q 1069 891 1326 650 
Q 1584 409 2034 409 
Q 2484 409 2743 651 
Q 3003 894 3003 1313 
Q 3003 1734 2745 1975 
Q 2488 2216 2034 2216 
z
M 1403 2484 
Q 997 2584 770 2862 
Q 544 3141 544 3541 
Q 544 4100 942 4425 
Q 1341 4750 2034 4750 
Q 2731 4750 3128 4425 
Q 3525 4100 3525 3541 
Q 3525 3141 3298 2862 
Q 3072 2584 2669 2484 
Q 3125 2378 3379 2068 
Q 3634 1759 3634 1313 
Q 3634 634 3220 271 
Q 2806 -91 2034 -91 
Q 1263 -91 848 271 
Q 434 634 434 1313 
Q 434 1759 690 2068 
Q 947 2378 1403 2484 
z
M 1172 3481 
Q 1172 3119 1398 2916 
Q 1625 2713 2034 2713 
Q 2441 2713 2670 2916 
Q 2900 3119 2900 3481 
Q 2900 3844 2670 4047 
Q 2441 4250 2034 4250 
Q 1625 4250 1398 4047 
Q 1172 3844 1172 3481 
z
" transform="scale(0.015625)"/>
       </defs>
       <use xlink:href="#DejaVuSans-32"/>
       <use xlink:href="#DejaVuSans-30" x="63.623047"/>
       <use xlink:href="#DejaVuSans-32" x="127.246094"/>
       <use xlink:href="#DejaVuSans-32" x="190.869141"/>
       <use xlink:href="#DejaVuSans-2d" x="254.492188"/>
       <use xlink:href="#DejaVuSans-30" x="290.576172"/>
       <use xlink:href="#DejaVuSans-38" x="354.199219"/>
       <use xlink:href="#DejaVuSans-2d" x="417.822266"/>
       <use xlink:href="#DejaVuSans-31" x="453.90625"/>
       <use xlink:href="#DejaVuSans-36" x="517.529297"/>
      </g>
     </g>
    </g>
    <g id="xtick_8">
     <g id="line2d_8">
      <g>
       <use xlink:href="#m0935001ff1" x="503.20167" y="395.28" style="stroke: #000000; stroke-width: 0.8"/>
      </g>
     </g>
     <g id="text_8">
      <!-- 2022-09-13 -->
      <g transform="translate(418.072643 495.213718) rotate(-45) scale(0.2 -0.2)">
       <use xlink:href="#DejaVuSans-32"/>
       <use xlink:href="#DejaVuSans-30" x="63.623047"/>
       <use xlink:href="#DejaVuSans-32" x="127.246094"/>
       <use xlink:href="#DejaVuSans-32" x="190.869141"/>
       <use xlink:href="#DejaVuSans-2d" x="254.492188"/>
       <use xlink:href="#DejaVuSans-30" x="290.576172"/>
       <use xlink:href="#DejaVuSans-39" x="354.199219"/>
       <use xlink:href="#DejaVuSans-2d" x="417.822266"/>
       <use xlink:href="#DejaVuSans-31" x="453.90625"/>
       <use xlink:href="#DejaVuSans-33" x="517.529297"/>
      </g>
     </g>
    </g>
    <g id="xtick_9">
     <g id="line2d_9">
      <g>
       <use xlink:href="#m0935001ff1" x="560.362646" y="395.28" style="stroke: #000000; stroke-width: 0.8"/>
      </g>
     </g>
     <g id="text_9">
      <!-- 2022-10-11 -->
      <g transform="translate(475.233618 495.213718) rotate(-45) scale(0.2 -0.2)">
       <use xlink:href="#DejaVuSans-32"/>
       <use xlink:href="#DejaVuSans-30" x="63.623047"/>
       <use xlink:href="#DejaVuSans-32" x="127.246094"/>
       <use xlink:href="#DejaVuSans-32" x="190.869141"/>
       <use xlink:href="#DejaVuSans-2d" x="254.492188"/>
       <use xlink:href="#DejaVuSans-31" x="290.576172"/>
       <use xlink:href="#DejaVuSans-30" x="354.199219"/>
       <use xlink:href="#DejaVuSans-2d" x="417.822266"/>
       <use xlink:href="#DejaVuSans-31" x="453.90625"/>
       <use xlink:href="#DejaVuSans-31" x="517.529297"/>
      </g>
     </g>
    </g>
    <g id="xtick_10">
     <g id="line2d_10">
      <g>
       <use xlink:href="#m0935001ff1" x="617.523621" y="395.28" style="stroke: #000000; stroke-width: 0.8"/>
      </g>
     </g>
     <g id="text_10">
      <!-- 2022-11-08 -->
      <g transform="translate(532.394594 495.213718) rotate(-45) scale(0.2 -0.2)">
       <use xlink:href="#DejaVuSans-32"/>
       <use xlink:href="#DejaVuSans-30" x="63.623047"/>
       <use xlink:href="#DejaVuSans-32" x="127.246094"/>
       <use xlink:href="#DejaVuSans-32" x="190.869141"/>
       <use xlink:href="#DejaVuSans-2d" x="254.492188"/>
       <use xlink:href="#DejaVuSans-31" x="290.576172"/>
       <use xlink:href="#DejaVuSans-31" x="354.199219"/>
       <use xlink:href="#DejaVuSans-2d" x="417.822266"/>
       <use xlink:href="#DejaVuSans-30" x="453.90625"/>
       <use xlink:href="#DejaVuSans-38" x="517.529297"/>
      </g>
     </g>
    </g>
    <g id="xtick_11">
     <g id="line2d_11">
      <g>
       <use xlink:href="#m0935001ff1" x="674.684597" y="395.28" style="stroke: #000000; stroke-width: 0.8"/>
      </g>
     </g>
     <g id="text_11">
      <!-- 2022-12-06 -->
      <g transform="translate(589.555569 495.213718) rotate(-45) scale(0.2 -0.2)">
       <use xlink:href="#DejaVuSans-32"/>
       <use xlink:href="#DejaVuSans-30" x="63.623047"/>
       <use xlink:href="#DejaVuSans-32" x="127.246094"/>
       <use xlink:href="#DejaVuSans-32" x="190.869141"/>
       <use xlink:href="#DejaVuSans-2d" x="254.492188"/>
       <use xlink:href="#DejaVuSans-31" x="290.576172"/>
       <use xlink:href="#DejaVuSans-32" x="354.199219"/>
       <use xlink:href="#DejaVuSans-2d" x="417.822266"/>
       <use xlink:href="#DejaVuSans-30" x="453.90625"/>
       <use xlink:href="#DejaVuSans-36" x="517.529297"/>
      </g>
     </g>
    </g>
    <g id="xtick_12">
     <g id="line2d_12">
      <g>
       <use xlink:href="#m0935001ff1" x="731.845572" y="395.28" style="stroke: #000000; stroke-width: 0.8"/>
      </g>
     </g>
     <g id="text_12">
      <!-- 2023-01-03 -->
      <g transform="translate(646.716545 495.213718) rotate(-45) scale(0.2 -0.2)">
       <use xlink:href="#DejaVuSans-32"/>
       <use xlink:href="#DejaVuSans-30" x="63.623047"/>
       <use xlink:href="#DejaVuSans-32" x="127.246094"/>
       <use xlink:href="#DejaVuSans-33" x="190.869141"/>
       <use xlink:href="#DejaVuSans-2d" x="254.492188"/>
       <use xlink:href="#DejaVuSans-30" x="290.576172"/>
       <use xlink:href="#DejaVuSans-31" x="354.199219"/>
       <use xlink:href="#DejaVuSans-2d" x="417.822266"/>
       <use xlink:href="#DejaVuSans-30" x="453.90625"/>
       <use xlink:href="#DejaVuSans-33" x="517.529297"/>
      </g>
     </g>
    </g>
    <g id="xtick_13">
     <g id="line2d_13">
      <g>
       <use xlink:href="#m0935001ff1" x="789.006548" y="395.28" style="stroke: #000000; stroke-width: 0.8"/>
      </g>
     </g>
     <g id="text_13">
      <!-- 2023-01-31 -->
      <g transform="translate(703.877521 495.213718) rotate(-45) scale(0.2 -0.2)">
       <use xlink:href="#DejaVuSans-32"/>
       <use xlink:href="#DejaVuSans-30" x="63.623047"/>
       <use xlink:href="#DejaVuSans-32" x="127.246094"/>
       <use xlink:href="#DejaVuSans-33" x="190.869141"/>
       <use xlink:href="#DejaVuSans-2d" x="254.492188"/>
       <use xlink:href="#DejaVuSans-30" x="290.576172"/>
       <use xlink:href="#DejaVuSans-31" x="354.199219"/>
       <use xlink:href="#DejaVuSans-2d" x="417.822266"/>
       <use xlink:href="#DejaVuSans-33" x="453.90625"/>
       <use xlink:href="#DejaVuSans-31" x="517.529297"/>
      </g>
     </g>
    </g>
    <g id="xtick_14">
     <g id="line2d_14">
      <g>
       <use xlink:href="#m0935001ff1" x="846.167524" y="395.28" style="stroke: #000000; stroke-width: 0.8"/>
      </g>
     </g>
     <g id="text_14">
      <!-- 2023-02-28 -->
      <g transform="translate(761.038496 495.213718) rotate(-45) scale(0.2 -0.2)">
       <use xlink:href="#DejaVuSans-32"/>
       <use xlink:href="#DejaVuSans-30" x="63.623047"/>
       <use xlink:href="#DejaVuSans-32" x="127.246094"/>
       <use xlink:href="#DejaVuSans-33" x="190.869141"/>
       <use xlink:href="#DejaVuSans-2d" x="254.492188"/>
       <use xlink:href="#DejaVuSans-30" x="290.576172"/>
       <use xlink:href="#DejaVuSans-32" x="354.199219"/>
       <use xlink:href="#DejaVuSans-2d" x="417.822266"/>
       <use xlink:href="#DejaVuSans-32" x="453.90625"/>
       <use xlink:href="#DejaVuSans-38" x="517.529297"/>
      </g>
     </g>
    </g>
    <g id="xtick_15">
     <g id="line2d_15">
      <g>
       <use xlink:href="#m0935001ff1" x="903.328499" y="395.28" style="stroke: #000000; stroke-width: 0.8"/>
      </g>
     </g>
     <g id="text_15">
      <!-- 2023-03-28 -->
      <g transform="translate(818.199472 495.213718) rotate(-45) scale(0.2 -0.2)">
       <use xlink:href="#DejaVuSans-32"/>
       <use xlink:href="#DejaVuSans-30" x="63.623047"/>
       <use xlink:href="#DejaVuSans-32" x="127.246094"/>
       <use xlink:href="#DejaVuSans-33" x="190.869141"/>
       <use xlink:href="#DejaVuSans-2d" x="254.492188"/>
       <use xlink:href="#DejaVuSans-30" x="290.576172"/>
       <use xlink:href="#DejaVuSans-33" x="354.199219"/>
       <use xlink:href="#DejaVuSans-2d" x="417.822266"/>
       <use xlink:href="#DejaVuSans-32" x="453.90625"/>
       <use xlink:href="#DejaVuSans-38" x="517.529297"/>
      </g>
     </g>
    </g>
    <g id="xtick_16">
     <g id="line2d_16">
      <g>
       <use xlink:href="#m0935001ff1" x="940.074841" y="395.28" style="stroke: #000000; stroke-width: 0.8"/>
      </g>
     </g>
     <g id="text_16">
      <!-- 2023-04-15 -->
      <g transform="translate(854.945813 495.213718) rotate(-45) scale(0.2 -0.2)">
       <use xlink:href="#DejaVuSans-32"/>
       <use xlink:href="#DejaVuSans-30" x="63.623047"/>
       <use xlink:href="#DejaVuSans-32" x="127.246094"/>
       <use xlink:href="#DejaVuSans-33" x="190.869141"/>
       <use xlink:href="#DejaVuSans-2d" x="254.492188"/>
       <use xlink:href="#DejaVuSans-30" x="290.576172"/>
       <use xlink:href="#DejaVuSans-34" x="354.199219"/>
       <use xlink:href="#DejaVuSans-2d" x="417.822266"/>
       <use xlink:href="#DejaVuSans-31" x="453.90625"/>
       <use xlink:href="#DejaVuSans-35" x="517.529297"/>
      </g>
     </g>
    </g>
   </g>
   <g id="matplotlib.axis_2">
    <g id="ytick_1">
     <g id="line2d_17">
      <defs>
       <path id="m450712efd1" d="M 0 0 
L -3.5 0 
" style="stroke: #000000; stroke-width: 0.8"/>
      </defs>
      <g>
       <use xlink:href="#m450712efd1" x="103.074841" y="352.436347" style="stroke: #000000; stroke-width: 0.8"/>
      </g>
     </g>
     <g id="text_17">
      <!-- 0.10 -->
      <g transform="translate(34.784216 360.034784) scale(0.2 -0.2)">
       <defs>
        <path id="DejaVuSans-2212" d="M 678 2272 
L 4684 2272 
L 4684 1741 
L 678 1741 
L 678 2272 
z
" transform="scale(0.015625)"/>
        <path id="DejaVuSans-2e" d="M 684 794 
L 1344 794 
L 1344 0 
L 684 0 
L 684 794 
z
" transform="scale(0.015625)"/>
       </defs>
       <use xlink:href="#DejaVuSans-2212"/>
       <use xlink:href="#DejaVuSans-30" x="83.789062"/>
       <use xlink:href="#DejaVuSans-2e" x="147.412109"/>
       <use xlink:href="#DejaVuSans-31" x="179.199219"/>
       <use xlink:href="#DejaVuSans-30" x="242.822266"/>
      </g>
     </g>
    </g>
    <g id="ytick_2">
     <g id="line2d_18">
      <g>
       <use xlink:href="#m450712efd1" x="103.074841" y="279.010393" style="stroke: #000000; stroke-width: 0.8"/>
      </g>
     </g>
     <g id="text_18">
      <!-- 0.05 -->
      <g transform="translate(34.784216 286.60883) scale(0.2 -0.2)">
       <use xlink:href="#DejaVuSans-2212"/>
       <use xlink:href="#DejaVuSans-30" x="83.789062"/>
       <use xlink:href="#DejaVuSans-2e" x="147.412109"/>
       <use xlink:href="#DejaVuSans-30" x="179.199219"/>
       <use xlink:href="#DejaVuSans-35" x="242.822266"/>
      </g>
     </g>
    </g>
    <g id="ytick_3">
     <g id="line2d_19">
      <g>
       <use xlink:href="#m450712efd1" x="103.074841" y="205.584439" style="stroke: #000000; stroke-width: 0.8"/>
      </g>
     </g>
     <g id="text_19">
      <!-- 0.00 -->
      <g transform="translate(51.543591 213.182876) scale(0.2 -0.2)">
       <use xlink:href="#DejaVuSans-30"/>
       <use xlink:href="#DejaVuSans-2e" x="63.623047"/>
       <use xlink:href="#DejaVuSans-30" x="95.410156"/>
       <use xlink:href="#DejaVuSans-30" x="159.033203"/>
      </g>
     </g>
    </g>
    <g id="ytick_4">
     <g id="line2d_20">
      <g>
       <use xlink:href="#m450712efd1" x="103.074841" y="132.158485" style="stroke: #000000; stroke-width: 0.8"/>
      </g>
     </g>
     <g id="text_20">
      <!-- 0.05 -->
      <g transform="translate(51.543591 139.756922) scale(0.2 -0.2)">
       <use xlink:href="#DejaVuSans-30"/>
       <use xlink:href="#DejaVuSans-2e" x="63.623047"/>
       <use xlink:href="#DejaVuSans-30" x="95.410156"/>
       <use xlink:href="#DejaVuSans-35" x="159.033203"/>
      </g>
     </g>
    </g>
    <g id="ytick_5">
     <g id="line2d_21">
      <g>
       <use xlink:href="#m450712efd1" x="103.074841" y="58.732531" style="stroke: #000000; stroke-width: 0.8"/>
      </g>
     </g>
     <g id="text_21">
      <!-- 0.10 -->
      <g transform="translate(51.543591 66.330968) scale(0.2 -0.2)">
       <use xlink:href="#DejaVuSans-30"/>
       <use xlink:href="#DejaVuSans-2e" x="63.623047"/>
       <use xlink:href="#DejaVuSans-31" x="95.410156"/>
       <use xlink:href="#DejaVuSans-30" x="159.033203"/>
      </g>
     </g>
    </g>
   </g>
   <g id="line2d_22">
    <path d="M 940.074841 205.584439 
" clip-path="url(#p2bdffcdf45)" style="fill: none; stroke: #ffa500; stroke-width: 1.5; stroke-linecap: square"/>
   </g>
   <g id="line2d_23">
    <path d="M 103.074841 205.584439 
L 948.274841 205.584439 
" clip-path="url(#p2bdffcdf45)" style="fill: none; stroke-dasharray: 7.4,3.2; stroke-dashoffset: 0; stroke: #000000; stroke-width: 2"/>
   </g>
   <g id="patch_3">
    <path d="M 103.074841 395.28 
L 103.074841 7.2 
" style="fill: none; stroke: #000000; stroke-width: 0.8; stroke-linejoin: miter; stroke-linecap: square"/>
   </g>
   <g id="patch_4">
    <path d="M 940.074841 395.28 
L 940.074841 7.2 
" style="fill: none; stroke: #000000; stroke-width: 0.8; stroke-linejoin: miter; stroke-linecap: square"/>
   </g>
   <g id="patch_5">
    <path d="M 103.074841 395.28 
L 940.074841 395.28 
" style="fill: none; stroke: #000000; stroke-width: 0.8; stroke-linejoin: miter; stroke-linecap: square"/>
   </g>
   <g id="patch_6">
    <path d="M 103.074841 7.2 
L 940.074841 7.2 
" style="fill: none; stroke: #000000; stroke-width: 0.8; stroke-linejoin: miter; stroke-linecap: square"/>
   </g>
  </g>
 </g>
 <defs>
  <clipPath id="p2bdffcdf45">
   <rect x="103.074841" y="7.2" width="837" height="388.08"/>
  </clipPath>
 </defs>
</svg>
