<?xml version="1.0" encoding="utf-8" standalone="no"?>
<!DOCTYPE svg PUBLIC "-//W3C//DTD SVG 1.1//EN"
  "http://www.w3.org/Graphics/SVG/1.1/DTD/svg11.dtd">
<svg xmlns:xlink="http://www.w3.org/1999/xlink" width="947.274841pt" height="505.354841pt" viewBox="0 0 947.274841 505.354841" xmlns="http://www.w3.org/2000/svg" version="1.1">
 <metadata>
  <rdf:RDF xmlns:dc="http://purl.org/dc/elements/1.1/" xmlns:cc="http://creativecommons.org/ns#" xmlns:rdf="http://www.w3.org/1999/02/22-rdf-syntax-ns#">
   <cc:Work>
    <dc:type rdf:resource="http://purl.org/dc/dcmitype/StillImage"/>
    <dc:date>2023-11-12T23:20:15.338473</dc:date>
    <dc:format>image/svg+xml</dc:format>
    <dc:creator>
     <cc:Agent>
      <dc:title>Matplotlib v3.7.2, https://matplotlib.org/</dc:title>
     </cc:Agent>
    </dc:creator>
   </cc:Work>
  </rdf:RDF>
 </metadata>
 <defs>
  <style type="text/css">*{stroke-linejoin: round; stroke-linecap: butt}</style>
 </defs>
 <g id="figure_1">
  <g id="patch_1">
   <path d="M 0 505.354841 
L 947.274841 505.354841 
L 947.274841 -0 
L 0 -0 
z
" style="fill: #ffffff"/>
  </g>
  <g id="axes_1">
   <g id="patch_2">
    <path d="M 103.074841 395.28 
L 940.074841 395.28 
L 940.074841 7.2 
L 103.074841 7.2 
z
" style="fill: #ffffff"/>
   </g>
   <g id="PolyCollection_1">
    <path d="M -393.000769 274.821053 
L -393.000769 274.842561 
L -390.959306 274.737687 
L -388.917842 274.646031 
L -386.876379 274.529727 
L -384.834915 274.450743 
L -382.793452 274.350513 
L -380.751989 274.240903 
L -378.710525 274.137668 
L -376.669062 274.040175 
L -374.627598 273.953579 
L -372.586135 273.85449 
L -370.544672 273.750888 
L -368.503208 273.649884 
L -366.461745 273.527507 
L -364.420281 273.424741 
L -362.378818 273.305002 
L -360.337354 273.201222 
L -358.295891 273.063693 
L -356.254428 272.94906 
L -354.212964 272.838218 
L -352.171501 272.708517 
L -350.130037 272.581695 
L -348.088574 272.457321 
L -346.047111 272.308833 
L -344.005647 272.177549 
L -341.964184 272.025141 
L -339.92272 271.870662 
L -337.881257 271.700459 
L -335.839793 271.525445 
L -333.79833 271.35355 
L -331.756867 271.155812 
L -329.715403 270.933061 
L -327.67394 270.733375 
L -325.632476 270.507512 
L -323.591013 270.250688 
L -321.54955 270.010042 
L -319.508086 269.729534 
L -317.466623 269.444034 
L -315.425159 269.149541 
L -313.383696 268.838581 
L -311.342232 268.494863 
L -309.300769 268.129076 
L -307.259306 267.741556 
L -305.217842 267.366274 
L -303.176379 266.928107 
L -301.134915 266.509276 
L -299.093452 266.063666 
L -297.051989 265.615388 
L -295.010525 265.133811 
L -292.969062 264.613653 
L -290.927598 264.129229 
L -288.886135 263.59213 
L -286.844672 263.036438 
L -284.803208 262.490616 
L -282.761745 261.949423 
L -280.720281 261.364201 
L -278.678818 260.772423 
L -276.637354 260.181155 
L -274.595891 259.565995 
L -272.554428 258.943202 
L -270.512964 258.321706 
L -268.471501 257.679827 
L -266.430037 257.036183 
L -264.388574 256.401427 
L -262.347111 255.741586 
L -260.305647 255.037795 
L -258.264184 254.354512 
L -256.22272 253.672509 
L -254.181257 253.000464 
L -252.139793 252.302166 
L -250.09833 251.619186 
L -248.056867 250.925041 
L -246.015403 250.294944 
L -243.97394 249.559463 
L -241.932476 248.917503 
L -239.891013 248.217901 
L -237.84955 247.550682 
L -235.808086 246.861475 
L -233.766623 246.239477 
L -231.725159 245.530881 
L -229.683696 244.862733 
L -227.642232 244.241146 
L -225.600769 243.568362 
L -223.559306 242.929628 
L -221.517842 242.264224 
L -219.476379 241.594533 
L -217.434915 240.949584 
L -215.393452 240.316629 
L -213.351989 239.637988 
L -211.310525 238.991112 
L -209.269062 238.332541 
L -207.227598 237.684243 
L -205.186135 237.050512 
L -203.144672 236.400611 
L -201.103208 235.744844 
L -199.061745 235.150681 
L -197.020281 234.483234 
L -194.978818 233.842383 
L -192.937354 233.211662 
L -190.895891 232.580453 
L -188.854428 231.950925 
L -186.812964 231.314002 
L -184.771501 230.70493 
L -182.730037 230.073207 
L -180.688574 229.427001 
L -178.647111 228.774127 
L -176.605647 228.114695 
L -174.564184 227.494866 
L -172.52272 226.816874 
L -170.481257 226.096575 
L -168.439793 225.417497 
L -166.39833 224.703447 
L -164.356867 223.978729 
L -162.315403 223.215582 
L -160.27394 222.439035 
L -158.232476 221.713948 
L -156.191013 220.892577 
L -154.14955 220.109278 
L -152.108086 219.269065 
L -150.066623 218.49313 
L -148.025159 217.588334 
L -145.983696 216.699819 
L -143.942232 215.834366 
L -141.900769 214.954023 
L -139.859306 214.047372 
L -137.817842 213.101437 
L -135.776379 212.211117 
L -133.734915 211.197953 
L -131.693452 210.300163 
L -129.651989 209.257406 
L -127.610525 208.244658 
L -125.569062 207.253691 
L -123.527598 206.300207 
L -121.486135 205.195686 
L -119.444672 204.191747 
L -117.403208 202.929489 
L -115.361745 201.834837 
L -113.320281 200.8097 
L -111.278818 199.658345 
L -109.237354 198.477553 
L -107.195891 197.125527 
L -105.154428 195.852679 
L -103.112964 194.777976 
L -101.071501 193.114879 
L -99.030037 191.763167 
L -96.988574 190.381122 
L -94.947111 188.9475 
L -92.905647 187.323154 
L -90.864184 185.787891 
L -88.82272 184.604438 
L -86.781257 183.117212 
L -84.739793 180.732323 
L -82.69833 178.70807 
L -80.656867 177.182051 
L -78.615403 175.105627 
L -76.57394 173.547459 
L -74.532476 172.274957 
L -72.491013 170.483345 
L -70.44955 168.023794 
L -68.408086 166.543316 
L -66.366623 165.739154 
L -64.325159 163.926576 
L -62.283696 163.278942 
L -60.242232 162.109209 
L -58.200769 159.941952 
L -56.159306 160.020787 
L -54.117842 160.787392 
L -52.076379 162.506164 
L -50.034915 160.404488 
L -47.993452 164.33674 
L -45.951989 165.153734 
L -43.910525 159.683108 
L -41.869062 161.142528 
L -39.827598 163.467841 
L -37.786135 161.995564 
L -35.744672 161.647535 
L -33.703208 171.852676 
L -31.661745 186.386605 
L -29.620281 193.598299 
L -27.578818 177.726072 
L -25.537354 185.825834 
L -23.495891 196.450482 
L -21.454428 195.799226 
L -19.412964 217.460126 
L -17.371501 214.47279 
L -15.330037 207.81409 
L -13.288574 191.353407 
L -11.247111 206.792496 
L -9.205647 216.070168 
L -7.164184 212.170823 
L -5.12272 214.580649 
L -3.081257 223.339262 
L -1.039793 222.157509 
L 1.00167 214.584035 
L 3.043133 224.07318 
L 5.084597 225.944397 
L 7.12606 222.538228 
L 9.167524 228.555847 
L 11.208987 230.745635 
L 13.25045 230.13561 
L 15.291914 228.290643 
L 17.333377 230.256657 
L 19.374841 228.216836 
L 21.416304 228.37563 
L 23.457768 230.246217 
L 25.499231 228.451378 
L 27.540694 229.356998 
L 29.582158 229.389631 
L 31.623621 227.934086 
L 33.665085 228.44351 
L 35.706548 226.352672 
L 37.748011 226.471065 
L 39.789475 227.025182 
L 41.830938 227.036067 
L 43.872402 226.003545 
L 45.913865 225.116575 
L 47.955328 224.874103 
L 49.996792 223.89495 
L 52.038255 223.718239 
L 54.079719 223.510361 
L 56.121182 222.035209 
L 58.162646 222.6877 
L 60.204109 221.702761 
L 62.245572 221.260042 
L 64.287036 221.257592 
L 66.328499 220.292826 
L 68.369963 220.031774 
L 70.411426 220.321368 
L 72.452889 220.812154 
L 74.494353 219.257425 
L 76.535816 218.971763 
L 78.57728 218.444078 
L 80.618743 221.065209 
L 82.660207 221.106243 
L 84.70167 222.108195 
L 86.743133 219.563862 
L 88.784597 217.988842 
L 90.82606 218.463988 
L 92.867524 220.192502 
L 94.908987 220.469863 
L 96.95045 217.394404 
L 98.991914 219.965393 
L 101.033377 219.304398 
L 103.074841 218.865155 
L 105.116304 217.438282 
L 107.157768 218.574374 
L 109.199231 217.874425 
L 111.240694 218.506993 
L 113.282158 217.573936 
L 115.323621 216.831618 
L 117.365085 215.506505 
L 119.406548 214.861707 
L 121.448011 214.270751 
L 123.489475 213.466343 
L 125.530938 213.273781 
L 127.572402 212.529113 
L 129.613865 211.730618 
L 131.655328 209.655545 
L 133.696792 208.072641 
L 135.738255 207.347586 
L 137.779719 205.618734 
L 139.821182 205.256753 
L 141.862646 203.740152 
L 143.904109 201.517875 
L 145.945572 199.660416 
L 147.987036 198.249532 
L 150.028499 195.947469 
L 152.069963 194.527339 
L 154.111426 192.474014 
L 156.152889 190.656327 
L 158.194353 188.376828 
L 160.235816 186.493753 
L 162.27728 183.942269 
L 164.318743 181.927772 
L 166.360207 179.740516 
L 168.40167 176.839953 
L 170.443133 174.136552 
L 172.484597 172.164231 
L 174.52606 169.78024 
L 176.567524 166.865 
L 178.608987 164.690807 
L 180.65045 162.045493 
L 182.691914 158.239097 
L 184.733377 156.58415 
L 186.774841 153.348265 
L 188.816304 150.810514 
L 190.857768 147.921762 
L 192.899231 144.793493 
L 194.940694 141.732058 
L 196.982158 138.950649 
L 199.023621 135.194622 
L 201.065085 132.867595 
L 203.106548 129.197595 
L 205.148011 126.82789 
L 207.189475 123.068471 
L 209.230938 119.441342 
L 211.272402 116.114818 
L 213.313865 113.60163 
L 215.355328 109.458748 
L 217.396792 106.659178 
L 219.438255 102.96971 
L 221.479719 99.964789 
L 223.521182 96.07428 
L 225.562646 92.662112 
L 227.604109 92.169601 
L 229.645572 85.529881 
L 231.687036 84.458283 
L 233.728499 80.577128 
L 235.769963 77.906924 
L 237.811426 74.754065 
L 239.852889 71.388168 
L 241.894353 68.342559 
L 243.935816 65.398172 
L 245.97728 62.623573 
L 248.018743 59.831295 
L 250.060207 61.868254 
L 252.10167 53.741801 
L 254.143133 51.661799 
L 256.184597 58.181936 
L 258.22606 48.385946 
L 260.267524 49.91642 
L 262.308987 48.75661 
L 264.35045 43.609318 
L 266.391914 44.375302 
L 268.433377 49.187509 
L 270.474841 45.479279 
L 272.516304 43.721682 
L 274.557768 46.683894 
L 276.599231 45.439902 
L 278.640694 47.444147 
L 280.682158 50.19705 
L 282.723621 54.972069 
L 284.765085 66.174712 
L 286.806548 63.498867 
L 288.848011 69.535043 
L 290.889475 74.520665 
L 292.930938 77.165002 
L 294.972402 83.540983 
L 297.013865 87.558201 
L 299.055328 79.743686 
L 301.096792 87.148539 
L 303.138255 99.665274 
L 305.179719 105.860647 
L 307.221182 108.740564 
L 309.262646 125.61216 
L 311.304109 127.057117 
L 313.345572 131.723938 
L 315.387036 130.586686 
L 317.428499 144.843872 
L 319.469963 140.549159 
L 321.511426 138.151212 
L 323.552889 150.341436 
L 325.594353 159.026119 
L 327.635816 158.367908 
L 329.67728 163.564497 
L 331.718743 165.325712 
L 333.760207 165.743443 
L 335.80167 165.849183 
L 337.843133 168.786882 
L 339.884597 170.496133 
L 341.92606 179.408296 
L 343.967524 175.032311 
L 346.008987 182.81836 
L 348.05045 181.234568 
L 350.091914 180.346569 
L 352.133377 183.596425 
L 354.174841 186.512924 
L 356.216304 183.179787 
L 358.257768 185.069614 
L 360.299231 185.357838 
L 362.340694 189.693686 
L 364.382158 187.828806 
L 366.423621 187.062257 
L 368.465085 188.452347 
L 370.506548 190.64613 
L 372.548011 189.871052 
L 374.589475 188.094601 
L 376.630938 189.421845 
L 378.672402 186.62694 
L 380.713865 187.161377 
L 382.755328 192.3336 
L 384.796792 192.268321 
L 386.838255 189.708164 
L 388.879719 189.248335 
L 390.921182 189.802926 
L 392.962646 187.027011 
L 395.004109 187.989108 
L 397.045572 188.219398 
L 399.087036 187.822579 
L 401.128499 187.257528 
L 403.169963 185.64623 
L 405.211426 186.99311 
L 407.252889 185.999324 
L 409.294353 185.985298 
L 411.335816 185.584169 
L 413.37728 185.917485 
L 415.418743 184.753418 
L 417.460207 182.44043 
L 419.50167 182.583613 
L 421.543133 180.742929 
L 423.584597 177.97357 
L 425.62606 180.431771 
L 427.667524 176.559844 
L 429.708987 178.518527 
L 431.75045 177.972869 
L 433.791914 178.491069 
L 435.833377 176.074548 
L 437.874841 176.102587 
L 439.916304 175.937246 
L 441.957768 172.8536 
L 443.999231 173.867511 
L 446.040694 173.764979 
L 448.082158 173.815914 
L 450.123621 172.425417 
L 452.165085 173.32508 
L 454.206548 171.886799 
L 456.248011 170.504335 
L 458.289475 168.234949 
L 460.330938 167.607477 
L 462.372402 167.238967 
L 464.413865 165.691823 
L 466.455328 166.08002 
L 468.496792 165.392262 
L 470.538255 164.026975 
L 472.579719 164.217943 
L 474.621182 162.645283 
L 476.662646 164.188718 
L 478.704109 163.136946 
L 480.745572 163.322602 
L 482.787036 161.341631 
L 484.828499 158.581721 
L 486.869963 161.153111 
L 488.911426 161.19387 
L 490.952889 160.378597 
L 492.994353 159.524923 
L 495.035816 157.632112 
L 497.07728 157.288141 
L 499.118743 156.291671 
L 501.160207 156.560914 
L 503.20167 156.249152 
L 505.243133 154.439354 
L 507.284597 151.829268 
L 509.32606 155.447038 
L 511.367524 154.714214 
L 513.408987 152.512219 
L 515.45045 154.075994 
L 517.491914 150.069776 
L 519.533377 150.676047 
L 521.574841 151.050212 
L 523.616304 148.379352 
L 525.657768 153.242188 
L 527.699231 148.620319 
L 529.740694 146.3392 
L 531.782158 149.584939 
L 533.823621 150.591396 
L 535.865085 149.257421 
L 537.906548 150.658464 
L 539.948011 148.683831 
L 541.989475 153.165148 
L 544.030938 151.263864 
L 546.072402 152.407809 
L 548.113865 149.793665 
L 550.155328 147.480817 
L 552.196792 151.088181 
L 554.238255 157.330066 
L 556.279719 150.928232 
L 558.321182 151.641521 
L 560.362646 149.456795 
L 562.404109 150.971137 
L 564.445572 150.966576 
L 566.487036 149.731014 
L 568.528499 149.457014 
L 570.569963 152.639902 
L 572.611426 151.435492 
L 574.652889 154.354593 
L 576.694353 155.127298 
L 578.735816 147.755074 
L 580.77728 151.149053 
L 582.818743 151.637967 
L 584.860207 152.384012 
L 586.90167 153.049509 
L 588.943133 158.126744 
L 590.984597 160.257079 
L 593.02606 160.201151 
L 595.067524 165.734602 
L 597.108987 174.803062 
L 599.15045 164.349704 
L 601.191914 164.345239 
L 603.233377 164.670665 
L 605.274841 168.308042 
L 607.316304 169.216348 
L 609.357768 169.289655 
L 611.399231 177.063986 
L 613.440694 180.007159 
L 615.482158 171.413968 
L 617.523621 179.434234 
L 619.565085 175.685947 
L 621.606548 173.421405 
L 623.648011 183.171791 
L 625.689475 181.449785 
L 627.730938 187.846909 
L 629.772402 186.208131 
L 631.813865 182.279285 
L 633.855328 186.416244 
L 635.896792 186.684366 
L 637.938255 190.788398 
L 639.979719 188.707952 
L 642.021182 195.357025 
L 644.062646 191.172623 
L 646.104109 194.825033 
L 648.145572 194.513297 
L 650.187036 198.494249 
L 652.228499 192.933259 
L 654.269963 199.565718 
L 656.311426 199.549693 
L 658.352889 204.194477 
L 660.394353 206.825345 
L 662.435816 207.192448 
L 664.47728 206.428759 
L 666.518743 209.53809 
L 668.560207 211.966293 
L 670.60167 210.458999 
L 672.643133 210.107269 
L 674.684597 212.888136 
L 676.72606 215.429764 
L 678.767524 211.944346 
L 680.808987 210.061839 
L 682.85045 219.11647 
L 684.891914 223.391015 
L 686.933377 214.787914 
L 688.974841 217.721758 
L 691.016304 219.337196 
L 693.057768 220.279638 
L 695.099231 225.050775 
L 697.140694 224.74127 
L 699.182158 223.179886 
L 701.223621 225.369183 
L 703.265085 226.142932 
L 705.306548 221.576895 
L 707.348011 224.215634 
L 709.389475 222.954637 
L 711.430938 229.813416 
L 713.472402 238.16291 
L 715.513865 237.15794 
L 717.555328 230.85315 
L 719.596792 230.315833 
L 721.638255 231.374386 
L 723.679719 231.817471 
L 725.721182 238.006241 
L 727.762646 230.457803 
L 729.804109 238.701644 
L 731.845572 245.338207 
L 733.887036 240.016129 
L 735.928499 248.491836 
L 737.969963 243.375728 
L 740.011426 248.051399 
L 742.052889 245.138635 
L 744.094353 247.513731 
L 746.135816 252.098808 
L 748.17728 251.910203 
L 750.218743 253.410727 
L 752.260207 253.881799 
L 754.30167 254.453838 
L 756.343133 243.632151 
L 758.384597 257.851093 
L 760.42606 263.765926 
L 762.467524 258.2783 
L 764.508987 263.520558 
L 766.55045 264.731044 
L 768.591914 261.878319 
L 770.633377 267.907645 
L 772.674841 272.230765 
L 774.716304 269.860263 
L 776.757768 272.0519 
L 778.799231 273.463941 
L 780.840694 274.994083 
L 782.882158 279.937461 
L 784.923621 270.003695 
L 786.965085 283.813891 
L 789.006548 284.617027 
L 791.048011 285.672899 
L 793.089475 276.247503 
L 795.130938 288.254975 
L 797.172402 296.4831 
L 799.213865 289.066968 
L 801.255328 289.108875 
L 803.296792 306.488493 
L 805.338255 281.039814 
L 807.379719 303.72155 
L 809.421182 287.374412 
L 811.462646 316.012064 
L 813.504109 301.556297 
L 815.545572 316.182218 
L 817.587036 320.706828 
L 819.628499 325.089903 
L 821.669963 327.253547 
L 823.711426 319.856501 
L 825.752889 321.751509 
L 827.794353 330.184449 
L 829.835816 339.929549 
L 831.87728 340.765888 
L 833.918743 340.131391 
L 835.960207 349.984302 
L 838.00167 350.244368 
L 840.043133 343.660238 
L 842.084597 342.986495 
L 844.12606 360.758319 
L 846.167524 362.408627 
L 848.208987 366.164724 
L 850.25045 357.514293 
L 852.291914 337.097891 
L 854.333377 359.270615 
L 856.374841 353.744707 
L 858.416304 359.528976 
L 860.457768 367.294434 
L 862.499231 357.278402 
L 864.540694 370.912082 
L 866.582158 360.137173 
L 868.623621 359.967689 
L 870.665085 361.328457 
L 872.706548 369.571951 
L 874.748011 368.956203 
L 876.789475 367.510519 
L 878.830938 359.278606 
L 880.872402 364.146986 
L 882.913865 367.842878 
L 884.955328 364.321568 
L 886.996792 371.03739 
L 889.038255 366.084116 
L 891.079719 370.571614 
L 893.121182 377.64 
L 895.162646 376.785728 
L 897.204109 370.227209 
L 899.245572 370.652977 
L 901.287036 369.657359 
L 903.328499 373.005895 
L 905.369963 373.151599 
L 907.411426 362.248463 
L 909.452889 371.274335 
L 911.494353 319.340754 
L 913.535816 371.763057 
L 915.57728 375.538517 
L 917.618743 368.137302 
L 919.660207 360.447456 
L 921.70167 375.933157 
L 923.743133 369.33402 
L 925.784597 357.582258 
L 927.82606 365.369358 
L 929.867524 365.739294 
L 931.908987 362.672302 
L 933.95045 370.053366 
L 935.991914 364.882872 
L 938.033377 368.037982 
L 940.074841 370.366797 
L 940.074841 277.820012 
L 940.074841 277.820012 
L 938.033377 282.579917 
L 935.991914 280.57615 
L 933.95045 283.15913 
L 931.908987 280.285088 
L 929.867524 282.185309 
L 927.82606 281.23577 
L 925.784597 282.598566 
L 923.743133 286.907812 
L 921.70167 287.902407 
L 919.660207 285.691383 
L 917.618743 286.791227 
L 915.57728 291.498119 
L 913.535816 289.240986 
L 911.494353 281.336827 
L 909.452889 291.24294 
L 907.411426 290.192895 
L 905.369963 292.99094 
L 903.328499 293.704098 
L 901.287036 293.400748 
L 899.245572 295.287991 
L 897.204109 295.744333 
L 895.162646 298.201373 
L 893.121182 299.218329 
L 891.079719 298.425047 
L 889.038255 297.738414 
L 886.996792 299.081288 
L 884.955328 297.250139 
L 882.913865 298.763203 
L 880.872402 298.779782 
L 878.830938 297.917582 
L 876.789475 301.398663 
L 874.748011 302.37809 
L 872.706548 303.97316 
L 870.665085 300.633261 
L 868.623621 301.374952 
L 866.582158 302.333488 
L 864.540694 306.015097 
L 862.499231 302.049725 
L 860.457768 305.902451 
L 858.416304 303.61864 
L 856.374841 302.291925 
L 854.333377 304.531955 
L 852.291914 298.567795 
L 850.25045 304.501104 
L 848.208987 308.575761 
L 846.167524 307.71789 
L 844.12606 307.292901 
L 842.084597 302.785239 
L 840.043133 302.507912 
L 838.00167 305.136097 
L 835.960207 305.084187 
L 833.918743 302.079977 
L 831.87728 302.310565 
L 829.835816 302.965004 
L 827.794353 297.868369 
L 825.752889 296.318254 
L 823.711426 296.156613 
L 821.669963 299.089006 
L 819.628499 298.414192 
L 817.587036 296.238872 
L 815.545572 294.638458 
L 813.504109 289.66522 
L 811.462646 294.829267 
L 809.421182 278.099794 
L 807.379719 291.480434 
L 805.338255 267.950011 
L 803.296792 292.20298 
L 801.255328 284.197968 
L 799.213865 283.556813 
L 797.172402 289.147828 
L 795.130938 281.99983 
L 793.089475 258.345878 
L 791.048011 275.491624 
L 789.006548 274.968419 
L 786.965085 274.080222 
L 784.923621 246.200243 
L 782.882158 259.69527 
L 780.840694 256.139215 
L 778.799231 253.936014 
L 776.757768 250.587312 
L 774.716304 244.499769 
L 772.674841 249.886296 
L 770.633377 239.389411 
L 768.591914 226.318286 
L 766.55045 236.613585 
L 764.508987 227.929466 
L 762.467524 220.110368 
L 760.42606 231.965853 
L 758.384597 218.346744 
L 756.343133 183.873549 
L 754.30167 208.437834 
L 752.260207 207.096725 
L 750.218743 206.786605 
L 748.17728 203.358232 
L 746.135816 203.110739 
L 744.094353 193.423355 
L 742.052889 189.182303 
L 740.011426 195.988757 
L 737.969963 182.044101 
L 735.928499 195.497672 
L 733.887036 176.28059 
L 731.845572 186.684744 
L 729.804109 173.718853 
L 727.762646 157.732583 
L 725.721182 171.545884 
L 723.679719 157.476317 
L 721.638255 157.953358 
L 719.596792 156.860248 
L 717.555328 157.692033 
L 715.513865 170.07741 
L 713.472402 172.632158 
L 711.430938 156.602993 
L 709.389475 140.143008 
L 707.348011 143.995921 
L 705.306548 140.207748 
L 703.265085 149.584633 
L 701.223621 147.931261 
L 699.182158 143.293074 
L 697.140694 147.852642 
L 695.099231 146.795518 
L 693.057768 138.022362 
L 691.016304 138.32656 
L 688.974841 134.516275 
L 686.933377 129.967916 
L 684.891914 147.609073 
L 682.85045 136.606133 
L 680.808987 121.7726 
L 678.767524 127.86605 
L 676.72606 133.238146 
L 674.684597 128.531187 
L 672.643133 124.738639 
L 670.60167 126.45885 
L 668.560207 132.186624 
L 666.518743 124.524981 
L 664.47728 121.278496 
L 662.435816 123.438356 
L 660.394353 118.381893 
L 658.352889 119.087218 
L 656.311426 109.621813 
L 654.269963 112.151705 
L 652.228499 100.753792 
L 650.187036 109.351538 
L 648.145572 104.341511 
L 646.104109 106.252492 
L 644.062646 102.667583 
L 642.021182 107.695955 
L 639.979719 97.40273 
L 637.938255 102.892478 
L 635.896792 96.251808 
L 633.855328 96.914827 
L 631.813865 91.632448 
L 629.772402 93.671448 
L 627.730938 100.087696 
L 625.689475 93.01881 
L 623.648011 94.25538 
L 621.606548 80.788705 
L 619.565085 86.504393 
L 617.523621 89.256719 
L 615.482158 78.843048 
L 613.440694 89.836476 
L 611.399231 90.441568 
L 609.357768 77.376158 
L 607.316304 77.355607 
L 605.274841 76.204408 
L 603.233377 71.331727 
L 601.191914 74.265003 
L 599.15045 72.839616 
L 597.108987 87.616344 
L 595.067524 76.918526 
L 593.02606 68.94505 
L 590.984597 68.850569 
L 588.943133 66.284401 
L 586.90167 61.31929 
L 584.860207 62.650845 
L 582.818743 59.174491 
L 580.77728 62.333018 
L 578.735816 57.390414 
L 576.694353 65.621808 
L 574.652889 66.345699 
L 572.611426 63.904531 
L 570.569963 65.377163 
L 568.528499 61.605145 
L 566.487036 63.700218 
L 564.445572 64.705339 
L 562.404109 68.27133 
L 560.362646 64.496641 
L 558.321182 68.549236 
L 556.279719 67.121836 
L 554.238255 75.140591 
L 552.196792 68.882946 
L 550.155328 65.332326 
L 548.113865 68.52671 
L 546.072402 69.724477 
L 544.030938 69.40297 
L 541.989475 73.920797 
L 539.948011 69.214992 
L 537.906548 72.149998 
L 535.865085 70.15739 
L 533.823621 70.576114 
L 531.782158 68.775494 
L 529.740694 66.323917 
L 527.699231 69.968671 
L 525.657768 74.938611 
L 523.616304 69.184025 
L 521.574841 71.960366 
L 519.533377 70.281039 
L 517.491914 71.737071 
L 515.45045 75.528692 
L 513.408987 73.81547 
L 511.367524 76.836506 
L 509.32606 77.398976 
L 507.284597 73.32567 
L 505.243133 75.226283 
L 503.20167 77.380122 
L 501.160207 77.953172 
L 499.118743 77.532452 
L 497.07728 78.966894 
L 495.035816 78.362536 
L 492.994353 80.639785 
L 490.952889 81.030109 
L 488.911426 81.28015 
L 486.869963 81.527433 
L 484.828499 76.536452 
L 482.787036 81.335992 
L 480.745572 83.045458 
L 478.704109 82.114951 
L 476.662646 81.926895 
L 474.621182 81.601513 
L 472.579719 82.745862 
L 470.538255 81.884904 
L 468.496792 83.771778 
L 466.455328 84.182058 
L 464.413865 83.254137 
L 462.372402 83.687346 
L 460.330938 84.402852 
L 458.289475 85.151427 
L 456.248011 88.656102 
L 454.206548 89.14723 
L 452.165085 90.598205 
L 450.123621 89.165459 
L 448.082158 90.532941 
L 446.040694 90.222598 
L 443.999231 90.290963 
L 441.957768 87.77316 
L 439.916304 92.813589 
L 437.874841 92.762556 
L 435.833377 92.583093 
L 433.791914 95.367552 
L 431.75045 94.566026 
L 429.708987 95.375567 
L 427.667524 93.089197 
L 425.62606 97.095798 
L 423.584597 95.125859 
L 421.543133 98.952841 
L 419.50167 101.488015 
L 417.460207 101.767978 
L 415.418743 105.10394 
L 413.37728 107.574973 
L 411.335816 106.827071 
L 409.294353 108.096139 
L 407.252889 108.006498 
L 405.211426 109.885024 
L 403.169963 108.543374 
L 401.128499 111.424984 
L 399.087036 113.433185 
L 397.045572 114.389901 
L 395.004109 114.731192 
L 392.962646 114.899592 
L 390.921182 118.12911 
L 388.879719 118.487472 
L 386.838255 120.30717 
L 384.796792 123.248155 
L 382.755328 123.865807 
L 380.713865 120.320767 
L 378.672402 120.820237 
L 376.630938 124.171028 
L 374.589475 124.197998 
L 372.548011 126.401743 
L 370.506548 127.897771 
L 368.465085 126.5188 
L 366.423621 127.317273 
L 364.382158 128.424701 
L 362.340694 130.694183 
L 360.299231 127.495926 
L 358.257768 128.450899 
L 356.216304 128.17388 
L 354.174841 131.591326 
L 352.133377 130.869043 
L 350.091914 128.561896 
L 348.05045 130.278365 
L 346.008987 132.062714 
L 343.967524 126.516639 
L 341.92606 131.189921 
L 339.884597 124.732787 
L 337.843133 124.274937 
L 335.80167 122.848572 
L 333.760207 124.170703 
L 331.718743 124.452919 
L 329.67728 123.553199 
L 327.635816 120.438598 
L 325.594353 122.633664 
L 323.552889 115.525427 
L 321.511426 107.963679 
L 319.469963 109.974384 
L 317.428499 113.823191 
L 315.387036 103.068912 
L 313.345572 103.502879 
L 311.304109 100.860376 
L 309.262646 100.107946 
L 307.221182 86.630762 
L 305.179719 85.453573 
L 303.138255 80.474857 
L 301.096792 69.89518 
L 299.055328 62.339105 
L 297.013865 70.491209 
L 294.972402 66.621763 
L 292.930938 59.979476 
L 290.889475 57.027149 
L 288.848011 52.165688 
L 286.806548 45.865033 
L 284.765085 48.969723 
L 282.723621 37.072537 
L 280.682158 31.923122 
L 278.640694 28.87634 
L 276.599231 26.528014 
L 274.557768 28.032436 
L 272.516304 24.84 
L 270.474841 27.504465 
L 268.433377 31.569832 
L 266.391914 25.667714 
L 264.35045 25.148307 
L 262.308987 31.27521 
L 260.267524 32.789209 
L 258.22606 30.779252 
L 256.184597 42.582797 
L 254.143133 34.771324 
L 252.10167 37.85118 
L 250.060207 47.265523 
L 248.018743 44.915269 
L 245.97728 48.381604 
L 243.935816 51.332915 
L 241.894353 54.042556 
L 239.852889 57.060028 
L 237.811426 60.243533 
L 235.769963 63.324736 
L 233.728499 65.928868 
L 231.687036 69.563763 
L 229.645572 70.437811 
L 227.604109 76.847155 
L 225.562646 77.019337 
L 223.521182 80.279773 
L 221.479719 83.910796 
L 219.438255 86.663679 
L 217.396792 90.103537 
L 215.355328 92.793997 
L 213.313865 96.721477 
L 211.272402 99.084521 
L 209.230938 101.97688 
L 207.189475 105.373901 
L 205.148011 108.838453 
L 203.106548 110.946702 
L 201.065085 114.292213 
L 199.023621 116.570908 
L 196.982158 120.010584 
L 194.940694 122.674825 
L 192.899231 125.324698 
L 190.857768 128.259592 
L 188.816304 130.861136 
L 186.774841 133.071572 
L 184.733377 135.938737 
L 182.691914 137.391138 
L 180.65045 140.932766 
L 178.608987 143.320997 
L 176.567524 145.42453 
L 174.52606 147.996682 
L 172.484597 149.565653 
L 170.443133 151.844694 
L 168.40167 154.183202 
L 166.360207 156.760175 
L 164.318743 158.727324 
L 162.27728 160.663206 
L 160.235816 162.776451 
L 158.194353 164.809031 
L 156.152889 166.999303 
L 154.111426 168.743148 
L 152.069963 170.643176 
L 150.028499 172.19024 
L 147.987036 174.348557 
L 145.945572 175.897662 
L 143.904109 177.658161 
L 141.862646 179.859222 
L 139.821182 181.372664 
L 137.779719 181.79218 
L 135.738255 183.599496 
L 133.696792 184.50856 
L 131.655328 186.250998 
L 129.613865 188.284204 
L 127.572402 189.31467 
L 125.530938 190.278947 
L 123.489475 190.446393 
L 121.448011 191.463089 
L 119.406548 192.05735 
L 117.365085 192.702256 
L 115.323621 194.152767 
L 113.282158 194.985319 
L 111.240694 196.195343 
L 109.199231 195.462374 
L 107.157768 196.119504 
L 105.116304 194.991907 
L 103.074841 196.688921 
L 101.033377 196.928467 
L 98.991914 198.167489 
L 96.95045 195.475684 
L 94.908987 198.706255 
L 92.867524 198.43795 
L 90.82606 196.576736 
L 88.784597 196.107489 
L 86.743133 197.782851 
L 84.70167 200.676234 
L 82.660207 199.55606 
L 80.618743 199.503127 
L 78.57728 196.601352 
L 76.535816 196.580293 
L 74.494353 197.431824 
L 72.452889 199.224358 
L 70.411426 198.656827 
L 68.369963 198.302753 
L 66.328499 198.599363 
L 64.287036 199.704957 
L 62.245572 199.466434 
L 60.204109 200.172492 
L 58.162646 201.336712 
L 56.121182 200.540628 
L 54.079719 202.221814 
L 52.038255 202.491113 
L 49.996792 202.70454 
L 47.955328 203.770835 
L 45.913865 204.046896 
L 43.872402 205.227205 
L 41.830938 206.514761 
L 39.789475 206.544513 
L 37.748011 206.038611 
L 35.706548 205.678827 
L 33.665085 208.392384 
L 31.623621 207.934565 
L 29.582158 209.761086 
L 27.540694 209.804583 
L 25.499231 209.118395 
L 23.457768 210.926463 
L 21.416304 209.266616 
L 19.374841 209.363457 
L 17.333377 211.657019 
L 15.291914 210.027534 
L 13.25045 212.195343 
L 11.208987 212.899329 
L 9.167524 211.094602 
L 7.12606 205.324719 
L 5.084597 209.036987 
L 3.043133 207.281356 
L 1.00167 198.694389 
L -1.039793 206.041473 
L -3.081257 207.564403 
L -5.12272 199.627499 
L -7.164184 197.468059 
L -9.205647 201.752805 
L -11.247111 193.149588 
L -13.288574 178.276124 
L -15.330037 194.750768 
L -17.371501 201.351645 
L -19.412964 204.642126 
L -21.454428 184.094744 
L -23.495891 185.003087 
L -25.537354 174.611706 
L -27.578818 166.575605 
L -29.620281 182.974473 
L -31.661745 176.062194 
L -33.703208 161.557761 
L -35.744672 151.330226 
L -37.786135 152.048264 
L -39.827598 153.930945 
L -41.869062 151.849847 
L -43.910525 150.651716 
L -45.951989 156.662952 
L -47.993452 156.050793 
L -50.034915 152.305751 
L -52.076379 154.773557 
L -54.117842 153.296357 
L -56.159306 152.793882 
L -58.200769 153.069752 
L -60.242232 155.500822 
L -62.283696 157.005059 
L -64.325159 157.925396 
L -66.366623 160.053999 
L -68.408086 161.107901 
L -70.44955 162.843795 
L -72.491013 165.514327 
L -74.532476 167.661772 
L -76.57394 169.14201 
L -78.615403 170.788051 
L -80.656867 172.90553 
L -82.69833 174.293664 
L -84.739793 176.309666 
L -86.781257 178.734627 
L -88.82272 180.217342 
L -90.864184 181.258883 
L -92.905647 182.783175 
L -94.947111 184.355856 
L -96.988574 185.79164 
L -99.030037 187.165898 
L -101.071501 188.493784 
L -103.112964 190.263711 
L -105.154428 191.207346 
L -107.195891 192.51269 
L -109.237354 193.880536 
L -111.278818 195.057756 
L -113.320281 196.218729 
L -115.361745 197.202513 
L -117.403208 198.269253 
L -119.444672 199.642814 
L -121.486135 200.61789 
L -123.527598 201.739116 
L -125.569062 202.654486 
L -127.610525 203.671967 
L -129.651989 204.714406 
L -131.693452 205.774511 
L -133.734915 206.670158 
L -135.776379 207.718916 
L -137.817842 208.639479 
L -139.859306 209.618991 
L -141.900769 210.51876 
L -143.942232 211.446104 
L -145.983696 212.311899 
L -148.025159 213.23205 
L -150.066623 214.213047 
L -152.108086 214.978511 
L -154.14955 215.907396 
L -156.191013 216.721514 
L -158.232476 217.646666 
L -160.27394 218.336212 
L -162.315403 219.187024 
L -164.356867 219.997903 
L -166.39833 220.770222 
L -168.439793 221.555706 
L -170.481257 222.282981 
L -172.52272 223.129138 
L -174.564184 223.89175 
L -176.605647 224.52218 
L -178.647111 225.269025 
L -180.688574 226.015058 
L -182.730037 226.7578 
L -184.771501 227.475258 
L -186.812964 228.145453 
L -188.854428 228.882273 
L -190.895891 229.605372 
L -192.937354 230.332581 
L -194.978818 231.057845 
L -197.020281 231.802874 
L -199.061745 232.577232 
L -201.103208 233.247339 
L -203.144672 234.012608 
L -205.186135 234.764251 
L -207.227598 235.487197 
L -209.269062 236.233069 
L -211.310525 236.994381 
L -213.351989 237.734212 
L -215.393452 238.510187 
L -217.434915 239.220357 
L -219.476379 239.944923 
L -221.517842 240.710108 
L -223.559306 241.45059 
L -225.600769 242.155063 
L -227.642232 242.899982 
L -229.683696 243.582842 
L -231.725159 244.311867 
L -233.766623 245.087521 
L -235.808086 245.757531 
L -237.84955 246.505003 
L -239.891013 247.214705 
L -241.932476 247.958314 
L -243.97394 248.634572 
L -246.015403 249.42101 
L -248.056867 250.077807 
L -250.09833 250.811337 
L -252.139793 251.529904 
L -254.181257 252.266186 
L -256.22272 252.967443 
L -258.264184 253.681311 
L -260.305647 254.39797 
L -262.347111 255.137728 
L -264.388574 255.826764 
L -266.430037 256.485214 
L -268.471501 257.145576 
L -270.512964 257.798003 
L -272.554428 258.428611 
L -274.595891 259.068753 
L -276.637354 259.700874 
L -278.678818 260.305125 
L -280.720281 260.915377 
L -282.761745 261.521781 
L -284.803208 262.075392 
L -286.844672 262.637156 
L -288.886135 263.221195 
L -290.927598 263.775015 
L -292.969062 264.27233 
L -295.010525 264.816829 
L -297.051989 265.315622 
L -299.093452 265.776226 
L -301.134915 266.23608 
L -303.176379 266.666656 
L -305.217842 267.128279 
L -307.259306 267.512465 
L -309.300769 267.916369 
L -311.342232 268.296881 
L -313.383696 268.65008 
L -315.425159 268.972803 
L -317.466623 269.266955 
L -319.508086 269.558626 
L -321.54955 269.847278 
L -323.591013 270.088185 
L -325.632476 270.35525 
L -327.67394 270.582942 
L -329.715403 270.780443 
L -331.756867 271.009544 
L -333.79833 271.211083 
L -335.839793 271.379446 
L -337.881257 271.559057 
L -339.92272 271.733673 
L -341.964184 271.888098 
L -344.005647 272.042802 
L -346.047111 272.172079 
L -348.088574 272.326276 
L -350.130037 272.450484 
L -352.171501 272.580444 
L -354.212964 272.716256 
L -356.254428 272.828331 
L -358.295891 272.946472 
L -360.337354 273.098563 
L -362.378818 273.207942 
L -364.420281 273.340259 
L -366.461745 273.446258 
L -368.503208 273.584993 
L -370.544672 273.695931 
L -372.586135 273.811833 
L -374.627598 273.914114 
L -376.669062 274.006793 
L -378.710525 274.112314 
L -380.751989 274.226393 
L -382.793452 274.337535 
L -384.834915 274.433264 
L -386.876379 274.511429 
L -388.917842 274.621332 
L -390.959306 274.712381 
L -393.000769 274.821053 
z
" clip-path="url(#p7b6682b562)" style="fill: #008000; fill-opacity: 0.3; stroke: #008000; stroke-opacity: 0.3"/>
   </g>
   <g id="matplotlib.axis_1">
    <g id="xtick_1">
     <g id="line2d_1">
      <defs>
       <path id="m1a353fd163" d="M 0 0 
L 0 3.5 
" style="stroke: #000000; stroke-width: 0.8"/>
      </defs>
      <g>
       <use xlink:href="#m1a353fd163" x="103.074841" y="395.28" style="stroke: #000000; stroke-width: 0.8"/>
      </g>
     </g>
     <g id="text_1">
      <!-- 2022-03-01 -->
      <g transform="translate(17.945813 495.213718) rotate(-45) scale(0.2 -0.2)">
       <defs>
        <path id="DejaVuSans-32" d="M 1228 531 
L 3431 531 
L 3431 0 
L 469 0 
L 469 531 
Q 828 903 1448 1529 
Q 2069 2156 2228 2338 
Q 2531 2678 2651 2914 
Q 2772 3150 2772 3378 
Q 2772 3750 2511 3984 
Q 2250 4219 1831 4219 
Q 1534 4219 1204 4116 
Q 875 4013 500 3803 
L 500 4441 
Q 881 4594 1212 4672 
Q 1544 4750 1819 4750 
Q 2544 4750 2975 4387 
Q 3406 4025 3406 3419 
Q 3406 3131 3298 2873 
Q 3191 2616 2906 2266 
Q 2828 2175 2409 1742 
Q 1991 1309 1228 531 
z
" transform="scale(0.015625)"/>
        <path id="DejaVuSans-30" d="M 2034 4250 
Q 1547 4250 1301 3770 
Q 1056 3291 1056 2328 
Q 1056 1369 1301 889 
Q 1547 409 2034 409 
Q 2525 409 2770 889 
Q 3016 1369 3016 2328 
Q 3016 3291 2770 3770 
Q 2525 4250 2034 4250 
z
M 2034 4750 
Q 2819 4750 3233 4129 
Q 3647 3509 3647 2328 
Q 3647 1150 3233 529 
Q 2819 -91 2034 -91 
Q 1250 -91 836 529 
Q 422 1150 422 2328 
Q 422 3509 836 4129 
Q 1250 4750 2034 4750 
z
" transform="scale(0.015625)"/>
        <path id="DejaVuSans-2d" d="M 313 2009 
L 1997 2009 
L 1997 1497 
L 313 1497 
L 313 2009 
z
" transform="scale(0.015625)"/>
        <path id="DejaVuSans-33" d="M 2597 2516 
Q 3050 2419 3304 2112 
Q 3559 1806 3559 1356 
Q 3559 666 3084 287 
Q 2609 -91 1734 -91 
Q 1441 -91 1130 -33 
Q 819 25 488 141 
L 488 750 
Q 750 597 1062 519 
Q 1375 441 1716 441 
Q 2309 441 2620 675 
Q 2931 909 2931 1356 
Q 2931 1769 2642 2001 
Q 2353 2234 1838 2234 
L 1294 2234 
L 1294 2753 
L 1863 2753 
Q 2328 2753 2575 2939 
Q 2822 3125 2822 3475 
Q 2822 3834 2567 4026 
Q 2313 4219 1838 4219 
Q 1578 4219 1281 4162 
Q 984 4106 628 3988 
L 628 4550 
Q 988 4650 1302 4700 
Q 1616 4750 1894 4750 
Q 2613 4750 3031 4423 
Q 3450 4097 3450 3541 
Q 3450 3153 3228 2886 
Q 3006 2619 2597 2516 
z
" transform="scale(0.015625)"/>
        <path id="DejaVuSans-31" d="M 794 531 
L 1825 531 
L 1825 4091 
L 703 3866 
L 703 4441 
L 1819 4666 
L 2450 4666 
L 2450 531 
L 3481 531 
L 3481 0 
L 794 0 
L 794 531 
z
" transform="scale(0.015625)"/>
       </defs>
       <use xlink:href="#DejaVuSans-32"/>
       <use xlink:href="#DejaVuSans-30" x="63.623047"/>
       <use xlink:href="#DejaVuSans-32" x="127.246094"/>
       <use xlink:href="#DejaVuSans-32" x="190.869141"/>
       <use xlink:href="#DejaVuSans-2d" x="254.492188"/>
       <use xlink:href="#DejaVuSans-30" x="290.576172"/>
       <use xlink:href="#DejaVuSans-33" x="354.199219"/>
       <use xlink:href="#DejaVuSans-2d" x="417.822266"/>
       <use xlink:href="#DejaVuSans-30" x="453.90625"/>
       <use xlink:href="#DejaVuSans-31" x="517.529297"/>
      </g>
     </g>
    </g>
    <g id="xtick_2">
     <g id="line2d_2">
      <g>
       <use xlink:href="#m1a353fd163" x="160.235816" y="395.28" style="stroke: #000000; stroke-width: 0.8"/>
      </g>
     </g>
     <g id="text_2">
      <!-- 2022-03-29 -->
      <g transform="translate(75.106789 495.213718) rotate(-45) scale(0.2 -0.2)">
       <defs>
        <path id="DejaVuSans-39" d="M 703 97 
L 703 672 
Q 941 559 1184 500 
Q 1428 441 1663 441 
Q 2288 441 2617 861 
Q 2947 1281 2994 2138 
Q 2813 1869 2534 1725 
Q 2256 1581 1919 1581 
Q 1219 1581 811 2004 
Q 403 2428 403 3163 
Q 403 3881 828 4315 
Q 1253 4750 1959 4750 
Q 2769 4750 3195 4129 
Q 3622 3509 3622 2328 
Q 3622 1225 3098 567 
Q 2575 -91 1691 -91 
Q 1453 -91 1209 -44 
Q 966 3 703 97 
z
M 1959 2075 
Q 2384 2075 2632 2365 
Q 2881 2656 2881 3163 
Q 2881 3666 2632 3958 
Q 2384 4250 1959 4250 
Q 1534 4250 1286 3958 
Q 1038 3666 1038 3163 
Q 1038 2656 1286 2365 
Q 1534 2075 1959 2075 
z
" transform="scale(0.015625)"/>
       </defs>
       <use xlink:href="#DejaVuSans-32"/>
       <use xlink:href="#DejaVuSans-30" x="63.623047"/>
       <use xlink:href="#DejaVuSans-32" x="127.246094"/>
       <use xlink:href="#DejaVuSans-32" x="190.869141"/>
       <use xlink:href="#DejaVuSans-2d" x="254.492188"/>
       <use xlink:href="#DejaVuSans-30" x="290.576172"/>
       <use xlink:href="#DejaVuSans-33" x="354.199219"/>
       <use xlink:href="#DejaVuSans-2d" x="417.822266"/>
       <use xlink:href="#DejaVuSans-32" x="453.90625"/>
       <use xlink:href="#DejaVuSans-39" x="517.529297"/>
      </g>
     </g>
    </g>
    <g id="xtick_3">
     <g id="line2d_3">
      <g>
       <use xlink:href="#m1a353fd163" x="217.396792" y="395.28" style="stroke: #000000; stroke-width: 0.8"/>
      </g>
     </g>
     <g id="text_3">
      <!-- 2022-04-26 -->
      <g transform="translate(132.267765 495.213718) rotate(-45) scale(0.2 -0.2)">
       <defs>
        <path id="DejaVuSans-34" d="M 2419 4116 
L 825 1625 
L 2419 1625 
L 2419 4116 
z
M 2253 4666 
L 3047 4666 
L 3047 1625 
L 3713 1625 
L 3713 1100 
L 3047 1100 
L 3047 0 
L 2419 0 
L 2419 1100 
L 313 1100 
L 313 1709 
L 2253 4666 
z
" transform="scale(0.015625)"/>
        <path id="DejaVuSans-36" d="M 2113 2584 
Q 1688 2584 1439 2293 
Q 1191 2003 1191 1497 
Q 1191 994 1439 701 
Q 1688 409 2113 409 
Q 2538 409 2786 701 
Q 3034 994 3034 1497 
Q 3034 2003 2786 2293 
Q 2538 2584 2113 2584 
z
M 3366 4563 
L 3366 3988 
Q 3128 4100 2886 4159 
Q 2644 4219 2406 4219 
Q 1781 4219 1451 3797 
Q 1122 3375 1075 2522 
Q 1259 2794 1537 2939 
Q 1816 3084 2150 3084 
Q 2853 3084 3261 2657 
Q 3669 2231 3669 1497 
Q 3669 778 3244 343 
Q 2819 -91 2113 -91 
Q 1303 -91 875 529 
Q 447 1150 447 2328 
Q 447 3434 972 4092 
Q 1497 4750 2381 4750 
Q 2619 4750 2861 4703 
Q 3103 4656 3366 4563 
z
" transform="scale(0.015625)"/>
       </defs>
       <use xlink:href="#DejaVuSans-32"/>
       <use xlink:href="#DejaVuSans-30" x="63.623047"/>
       <use xlink:href="#DejaVuSans-32" x="127.246094"/>
       <use xlink:href="#DejaVuSans-32" x="190.869141"/>
       <use xlink:href="#DejaVuSans-2d" x="254.492188"/>
       <use xlink:href="#DejaVuSans-30" x="290.576172"/>
       <use xlink:href="#DejaVuSans-34" x="354.199219"/>
       <use xlink:href="#DejaVuSans-2d" x="417.822266"/>
       <use xlink:href="#DejaVuSans-32" x="453.90625"/>
       <use xlink:href="#DejaVuSans-36" x="517.529297"/>
      </g>
     </g>
    </g>
    <g id="xtick_4">
     <g id="line2d_4">
      <g>
       <use xlink:href="#m1a353fd163" x="274.557768" y="395.28" style="stroke: #000000; stroke-width: 0.8"/>
      </g>
     </g>
     <g id="text_4">
      <!-- 2022-05-24 -->
      <g transform="translate(189.42874 495.213718) rotate(-45) scale(0.2 -0.2)">
       <defs>
        <path id="DejaVuSans-35" d="M 691 4666 
L 3169 4666 
L 3169 4134 
L 1269 4134 
L 1269 2991 
Q 1406 3038 1543 3061 
Q 1681 3084 1819 3084 
Q 2600 3084 3056 2656 
Q 3513 2228 3513 1497 
Q 3513 744 3044 326 
Q 2575 -91 1722 -91 
Q 1428 -91 1123 -41 
Q 819 9 494 109 
L 494 744 
Q 775 591 1075 516 
Q 1375 441 1709 441 
Q 2250 441 2565 725 
Q 2881 1009 2881 1497 
Q 2881 1984 2565 2268 
Q 2250 2553 1709 2553 
Q 1456 2553 1204 2497 
Q 953 2441 691 2322 
L 691 4666 
z
" transform="scale(0.015625)"/>
       </defs>
       <use xlink:href="#DejaVuSans-32"/>
       <use xlink:href="#DejaVuSans-30" x="63.623047"/>
       <use xlink:href="#DejaVuSans-32" x="127.246094"/>
       <use xlink:href="#DejaVuSans-32" x="190.869141"/>
       <use xlink:href="#DejaVuSans-2d" x="254.492188"/>
       <use xlink:href="#DejaVuSans-30" x="290.576172"/>
       <use xlink:href="#DejaVuSans-35" x="354.199219"/>
       <use xlink:href="#DejaVuSans-2d" x="417.822266"/>
       <use xlink:href="#DejaVuSans-32" x="453.90625"/>
       <use xlink:href="#DejaVuSans-34" x="517.529297"/>
      </g>
     </g>
    </g>
    <g id="xtick_5">
     <g id="line2d_5">
      <g>
       <use xlink:href="#m1a353fd163" x="331.718743" y="395.28" style="stroke: #000000; stroke-width: 0.8"/>
      </g>
     </g>
     <g id="text_5">
      <!-- 2022-06-21 -->
      <g transform="translate(246.589716 495.213718) rotate(-45) scale(0.2 -0.2)">
       <use xlink:href="#DejaVuSans-32"/>
       <use xlink:href="#DejaVuSans-30" x="63.623047"/>
       <use xlink:href="#DejaVuSans-32" x="127.246094"/>
       <use xlink:href="#DejaVuSans-32" x="190.869141"/>
       <use xlink:href="#DejaVuSans-2d" x="254.492188"/>
       <use xlink:href="#DejaVuSans-30" x="290.576172"/>
       <use xlink:href="#DejaVuSans-36" x="354.199219"/>
       <use xlink:href="#DejaVuSans-2d" x="417.822266"/>
       <use xlink:href="#DejaVuSans-32" x="453.90625"/>
       <use xlink:href="#DejaVuSans-31" x="517.529297"/>
      </g>
     </g>
    </g>
    <g id="xtick_6">
     <g id="line2d_6">
      <g>
       <use xlink:href="#m1a353fd163" x="388.879719" y="395.28" style="stroke: #000000; stroke-width: 0.8"/>
      </g>
     </g>
     <g id="text_6">
      <!-- 2022-07-19 -->
      <g transform="translate(303.750691 495.213718) rotate(-45) scale(0.2 -0.2)">
       <defs>
        <path id="DejaVuSans-37" d="M 525 4666 
L 3525 4666 
L 3525 4397 
L 1831 0 
L 1172 0 
L 2766 4134 
L 525 4134 
L 525 4666 
z
" transform="scale(0.015625)"/>
       </defs>
       <use xlink:href="#DejaVuSans-32"/>
       <use xlink:href="#DejaVuSans-30" x="63.623047"/>
       <use xlink:href="#DejaVuSans-32" x="127.246094"/>
       <use xlink:href="#DejaVuSans-32" x="190.869141"/>
       <use xlink:href="#DejaVuSans-2d" x="254.492188"/>
       <use xlink:href="#DejaVuSans-30" x="290.576172"/>
       <use xlink:href="#DejaVuSans-37" x="354.199219"/>
       <use xlink:href="#DejaVuSans-2d" x="417.822266"/>
       <use xlink:href="#DejaVuSans-31" x="453.90625"/>
       <use xlink:href="#DejaVuSans-39" x="517.529297"/>
      </g>
     </g>
    </g>
    <g id="xtick_7">
     <g id="line2d_7">
      <g>
       <use xlink:href="#m1a353fd163" x="446.040694" y="395.28" style="stroke: #000000; stroke-width: 0.8"/>
      </g>
     </g>
     <g id="text_7">
      <!-- 2022-08-16 -->
      <g transform="translate(360.911667 495.213718) rotate(-45) scale(0.2 -0.2)">
       <defs>
        <path id="DejaVuSans-38" d="M 2034 2216 
Q 1584 2216 1326 1975 
Q 1069 1734 1069 1313 
Q 1069 891 1326 650 
Q 1584 409 2034 409 
Q 2484 409 2743 651 
Q 3003 894 3003 1313 
Q 3003 1734 2745 1975 
Q 2488 2216 2034 2216 
z
M 1403 2484 
Q 997 2584 770 2862 
Q 544 3141 544 3541 
Q 544 4100 942 4425 
Q 1341 4750 2034 4750 
Q 2731 4750 3128 4425 
Q 3525 4100 3525 3541 
Q 3525 3141 3298 2862 
Q 3072 2584 2669 2484 
Q 3125 2378 3379 2068 
Q 3634 1759 3634 1313 
Q 3634 634 3220 271 
Q 2806 -91 2034 -91 
Q 1263 -91 848 271 
Q 434 634 434 1313 
Q 434 1759 690 2068 
Q 947 2378 1403 2484 
z
M 1172 3481 
Q 1172 3119 1398 2916 
Q 1625 2713 2034 2713 
Q 2441 2713 2670 2916 
Q 2900 3119 2900 3481 
Q 2900 3844 2670 4047 
Q 2441 4250 2034 4250 
Q 1625 4250 1398 4047 
Q 1172 3844 1172 3481 
z
" transform="scale(0.015625)"/>
       </defs>
       <use xlink:href="#DejaVuSans-32"/>
       <use xlink:href="#DejaVuSans-30" x="63.623047"/>
       <use xlink:href="#DejaVuSans-32" x="127.246094"/>
       <use xlink:href="#DejaVuSans-32" x="190.869141"/>
       <use xlink:href="#DejaVuSans-2d" x="254.492188"/>
       <use xlink:href="#DejaVuSans-30" x="290.576172"/>
       <use xlink:href="#DejaVuSans-38" x="354.199219"/>
       <use xlink:href="#DejaVuSans-2d" x="417.822266"/>
       <use xlink:href="#DejaVuSans-31" x="453.90625"/>
       <use xlink:href="#DejaVuSans-36" x="517.529297"/>
      </g>
     </g>
    </g>
    <g id="xtick_8">
     <g id="line2d_8">
      <g>
       <use xlink:href="#m1a353fd163" x="503.20167" y="395.28" style="stroke: #000000; stroke-width: 0.8"/>
      </g>
     </g>
     <g id="text_8">
      <!-- 2022-09-13 -->
      <g transform="translate(418.072643 495.213718) rotate(-45) scale(0.2 -0.2)">
       <use xlink:href="#DejaVuSans-32"/>
       <use xlink:href="#DejaVuSans-30" x="63.623047"/>
       <use xlink:href="#DejaVuSans-32" x="127.246094"/>
       <use xlink:href="#DejaVuSans-32" x="190.869141"/>
       <use xlink:href="#DejaVuSans-2d" x="254.492188"/>
       <use xlink:href="#DejaVuSans-30" x="290.576172"/>
       <use xlink:href="#DejaVuSans-39" x="354.199219"/>
       <use xlink:href="#DejaVuSans-2d" x="417.822266"/>
       <use xlink:href="#DejaVuSans-31" x="453.90625"/>
       <use xlink:href="#DejaVuSans-33" x="517.529297"/>
      </g>
     </g>
    </g>
    <g id="xtick_9">
     <g id="line2d_9">
      <g>
       <use xlink:href="#m1a353fd163" x="560.362646" y="395.28" style="stroke: #000000; stroke-width: 0.8"/>
      </g>
     </g>
     <g id="text_9">
      <!-- 2022-10-11 -->
      <g transform="translate(475.233618 495.213718) rotate(-45) scale(0.2 -0.2)">
       <use xlink:href="#DejaVuSans-32"/>
       <use xlink:href="#DejaVuSans-30" x="63.623047"/>
       <use xlink:href="#DejaVuSans-32" x="127.246094"/>
       <use xlink:href="#DejaVuSans-32" x="190.869141"/>
       <use xlink:href="#DejaVuSans-2d" x="254.492188"/>
       <use xlink:href="#DejaVuSans-31" x="290.576172"/>
       <use xlink:href="#DejaVuSans-30" x="354.199219"/>
       <use xlink:href="#DejaVuSans-2d" x="417.822266"/>
       <use xlink:href="#DejaVuSans-31" x="453.90625"/>
       <use xlink:href="#DejaVuSans-31" x="517.529297"/>
      </g>
     </g>
    </g>
    <g id="xtick_10">
     <g id="line2d_10">
      <g>
       <use xlink:href="#m1a353fd163" x="617.523621" y="395.28" style="stroke: #000000; stroke-width: 0.8"/>
      </g>
     </g>
     <g id="text_10">
      <!-- 2022-11-08 -->
      <g transform="translate(532.394594 495.213718) rotate(-45) scale(0.2 -0.2)">
       <use xlink:href="#DejaVuSans-32"/>
       <use xlink:href="#DejaVuSans-30" x="63.623047"/>
       <use xlink:href="#DejaVuSans-32" x="127.246094"/>
       <use xlink:href="#DejaVuSans-32" x="190.869141"/>
       <use xlink:href="#DejaVuSans-2d" x="254.492188"/>
       <use xlink:href="#DejaVuSans-31" x="290.576172"/>
       <use xlink:href="#DejaVuSans-31" x="354.199219"/>
       <use xlink:href="#DejaVuSans-2d" x="417.822266"/>
       <use xlink:href="#DejaVuSans-30" x="453.90625"/>
       <use xlink:href="#DejaVuSans-38" x="517.529297"/>
      </g>
     </g>
    </g>
    <g id="xtick_11">
     <g id="line2d_11">
      <g>
       <use xlink:href="#m1a353fd163" x="674.684597" y="395.28" style="stroke: #000000; stroke-width: 0.8"/>
      </g>
     </g>
     <g id="text_11">
      <!-- 2022-12-06 -->
      <g transform="translate(589.555569 495.213718) rotate(-45) scale(0.2 -0.2)">
       <use xlink:href="#DejaVuSans-32"/>
       <use xlink:href="#DejaVuSans-30" x="63.623047"/>
       <use xlink:href="#DejaVuSans-32" x="127.246094"/>
       <use xlink:href="#DejaVuSans-32" x="190.869141"/>
       <use xlink:href="#DejaVuSans-2d" x="254.492188"/>
       <use xlink:href="#DejaVuSans-31" x="290.576172"/>
       <use xlink:href="#DejaVuSans-32" x="354.199219"/>
       <use xlink:href="#DejaVuSans-2d" x="417.822266"/>
       <use xlink:href="#DejaVuSans-30" x="453.90625"/>
       <use xlink:href="#DejaVuSans-36" x="517.529297"/>
      </g>
     </g>
    </g>
    <g id="xtick_12">
     <g id="line2d_12">
      <g>
       <use xlink:href="#m1a353fd163" x="731.845572" y="395.28" style="stroke: #000000; stroke-width: 0.8"/>
      </g>
     </g>
     <g id="text_12">
      <!-- 2023-01-03 -->
      <g transform="translate(646.716545 495.213718) rotate(-45) scale(0.2 -0.2)">
       <use xlink:href="#DejaVuSans-32"/>
       <use xlink:href="#DejaVuSans-30" x="63.623047"/>
       <use xlink:href="#DejaVuSans-32" x="127.246094"/>
       <use xlink:href="#DejaVuSans-33" x="190.869141"/>
       <use xlink:href="#DejaVuSans-2d" x="254.492188"/>
       <use xlink:href="#DejaVuSans-30" x="290.576172"/>
       <use xlink:href="#DejaVuSans-31" x="354.199219"/>
       <use xlink:href="#DejaVuSans-2d" x="417.822266"/>
       <use xlink:href="#DejaVuSans-30" x="453.90625"/>
       <use xlink:href="#DejaVuSans-33" x="517.529297"/>
      </g>
     </g>
    </g>
    <g id="xtick_13">
     <g id="line2d_13">
      <g>
       <use xlink:href="#m1a353fd163" x="789.006548" y="395.28" style="stroke: #000000; stroke-width: 0.8"/>
      </g>
     </g>
     <g id="text_13">
      <!-- 2023-01-31 -->
      <g transform="translate(703.877521 495.213718) rotate(-45) scale(0.2 -0.2)">
       <use xlink:href="#DejaVuSans-32"/>
       <use xlink:href="#DejaVuSans-30" x="63.623047"/>
       <use xlink:href="#DejaVuSans-32" x="127.246094"/>
       <use xlink:href="#DejaVuSans-33" x="190.869141"/>
       <use xlink:href="#DejaVuSans-2d" x="254.492188"/>
       <use xlink:href="#DejaVuSans-30" x="290.576172"/>
       <use xlink:href="#DejaVuSans-31" x="354.199219"/>
       <use xlink:href="#DejaVuSans-2d" x="417.822266"/>
       <use xlink:href="#DejaVuSans-33" x="453.90625"/>
       <use xlink:href="#DejaVuSans-31" x="517.529297"/>
      </g>
     </g>
    </g>
    <g id="xtick_14">
     <g id="line2d_14">
      <g>
       <use xlink:href="#m1a353fd163" x="846.167524" y="395.28" style="stroke: #000000; stroke-width: 0.8"/>
      </g>
     </g>
     <g id="text_14">
      <!-- 2023-02-28 -->
      <g transform="translate(761.038496 495.213718) rotate(-45) scale(0.2 -0.2)">
       <use xlink:href="#DejaVuSans-32"/>
       <use xlink:href="#DejaVuSans-30" x="63.623047"/>
       <use xlink:href="#DejaVuSans-32" x="127.246094"/>
       <use xlink:href="#DejaVuSans-33" x="190.869141"/>
       <use xlink:href="#DejaVuSans-2d" x="254.492188"/>
       <use xlink:href="#DejaVuSans-30" x="290.576172"/>
       <use xlink:href="#DejaVuSans-32" x="354.199219"/>
       <use xlink:href="#DejaVuSans-2d" x="417.822266"/>
       <use xlink:href="#DejaVuSans-32" x="453.90625"/>
       <use xlink:href="#DejaVuSans-38" x="517.529297"/>
      </g>
     </g>
    </g>
    <g id="xtick_15">
     <g id="line2d_15">
      <g>
       <use xlink:href="#m1a353fd163" x="903.328499" y="395.28" style="stroke: #000000; stroke-width: 0.8"/>
      </g>
     </g>
     <g id="text_15">
      <!-- 2023-03-28 -->
      <g transform="translate(818.199472 495.213718) rotate(-45) scale(0.2 -0.2)">
       <use xlink:href="#DejaVuSans-32"/>
       <use xlink:href="#DejaVuSans-30" x="63.623047"/>
       <use xlink:href="#DejaVuSans-32" x="127.246094"/>
       <use xlink:href="#DejaVuSans-33" x="190.869141"/>
       <use xlink:href="#DejaVuSans-2d" x="254.492188"/>
       <use xlink:href="#DejaVuSans-30" x="290.576172"/>
       <use xlink:href="#DejaVuSans-33" x="354.199219"/>
       <use xlink:href="#DejaVuSans-2d" x="417.822266"/>
       <use xlink:href="#DejaVuSans-32" x="453.90625"/>
       <use xlink:href="#DejaVuSans-38" x="517.529297"/>
      </g>
     </g>
    </g>
    <g id="xtick_16">
     <g id="line2d_16">
      <g>
       <use xlink:href="#m1a353fd163" x="940.074841" y="395.28" style="stroke: #000000; stroke-width: 0.8"/>
      </g>
     </g>
     <g id="text_16">
      <!-- 2023-04-15 -->
      <g transform="translate(854.945813 495.213718) rotate(-45) scale(0.2 -0.2)">
       <use xlink:href="#DejaVuSans-32"/>
       <use xlink:href="#DejaVuSans-30" x="63.623047"/>
       <use xlink:href="#DejaVuSans-32" x="127.246094"/>
       <use xlink:href="#DejaVuSans-33" x="190.869141"/>
       <use xlink:href="#DejaVuSans-2d" x="254.492188"/>
       <use xlink:href="#DejaVuSans-30" x="290.576172"/>
       <use xlink:href="#DejaVuSans-34" x="354.199219"/>
       <use xlink:href="#DejaVuSans-2d" x="417.822266"/>
       <use xlink:href="#DejaVuSans-31" x="453.90625"/>
       <use xlink:href="#DejaVuSans-35" x="517.529297"/>
      </g>
     </g>
    </g>
   </g>
   <g id="matplotlib.axis_2">
    <g id="ytick_1">
     <g id="line2d_17">
      <defs>
       <path id="m93281c05af" d="M 0 0 
L -3.5 0 
" style="stroke: #000000; stroke-width: 0.8"/>
      </defs>
      <g>
       <use xlink:href="#m93281c05af" x="103.074841" y="351.374501" style="stroke: #000000; stroke-width: 0.8"/>
      </g>
     </g>
     <g id="text_17">
      <!-- 0.05 -->
      <g transform="translate(34.784216 358.972938) scale(0.2 -0.2)">
       <defs>
        <path id="DejaVuSans-2212" d="M 678 2272 
L 4684 2272 
L 4684 1741 
L 678 1741 
L 678 2272 
z
" transform="scale(0.015625)"/>
        <path id="DejaVuSans-2e" d="M 684 794 
L 1344 794 
L 1344 0 
L 684 0 
L 684 794 
z
" transform="scale(0.015625)"/>
       </defs>
       <use xlink:href="#DejaVuSans-2212"/>
       <use xlink:href="#DejaVuSans-30" x="83.789062"/>
       <use xlink:href="#DejaVuSans-2e" x="147.412109"/>
       <use xlink:href="#DejaVuSans-30" x="179.199219"/>
       <use xlink:href="#DejaVuSans-35" x="242.822266"/>
      </g>
     </g>
    </g>
    <g id="ytick_2">
     <g id="line2d_18">
      <g>
       <use xlink:href="#m93281c05af" x="103.074841" y="274.923474" style="stroke: #000000; stroke-width: 0.8"/>
      </g>
     </g>
     <g id="text_18">
      <!-- 0.00 -->
      <g transform="translate(51.543591 282.521911) scale(0.2 -0.2)">
       <use xlink:href="#DejaVuSans-30"/>
       <use xlink:href="#DejaVuSans-2e" x="63.623047"/>
       <use xlink:href="#DejaVuSans-30" x="95.410156"/>
       <use xlink:href="#DejaVuSans-30" x="159.033203"/>
      </g>
     </g>
    </g>
    <g id="ytick_3">
     <g id="line2d_19">
      <g>
       <use xlink:href="#m93281c05af" x="103.074841" y="198.472447" style="stroke: #000000; stroke-width: 0.8"/>
      </g>
     </g>
     <g id="text_19">
      <!-- 0.05 -->
      <g transform="translate(51.543591 206.070885) scale(0.2 -0.2)">
       <use xlink:href="#DejaVuSans-30"/>
       <use xlink:href="#DejaVuSans-2e" x="63.623047"/>
       <use xlink:href="#DejaVuSans-30" x="95.410156"/>
       <use xlink:href="#DejaVuSans-35" x="159.033203"/>
      </g>
     </g>
    </g>
    <g id="ytick_4">
     <g id="line2d_20">
      <g>
       <use xlink:href="#m93281c05af" x="103.074841" y="122.021421" style="stroke: #000000; stroke-width: 0.8"/>
      </g>
     </g>
     <g id="text_20">
      <!-- 0.10 -->
      <g transform="translate(51.543591 129.619858) scale(0.2 -0.2)">
       <use xlink:href="#DejaVuSans-30"/>
       <use xlink:href="#DejaVuSans-2e" x="63.623047"/>
       <use xlink:href="#DejaVuSans-31" x="95.410156"/>
       <use xlink:href="#DejaVuSans-30" x="159.033203"/>
      </g>
     </g>
    </g>
    <g id="ytick_5">
     <g id="line2d_21">
      <g>
       <use xlink:href="#m93281c05af" x="103.074841" y="45.570394" style="stroke: #000000; stroke-width: 0.8"/>
      </g>
     </g>
     <g id="text_21">
      <!-- 0.15 -->
      <g transform="translate(51.543591 53.168831) scale(0.2 -0.2)">
       <use xlink:href="#DejaVuSans-30"/>
       <use xlink:href="#DejaVuSans-2e" x="63.623047"/>
       <use xlink:href="#DejaVuSans-31" x="95.410156"/>
       <use xlink:href="#DejaVuSans-35" x="159.033203"/>
      </g>
     </g>
    </g>
   </g>
   <g id="line2d_22">
    <path d="M 0 0 
" clip-path="url(#p7b6682b562)" style="fill: none; stroke: #ffa500; stroke-width: 1.5; stroke-linecap: square"/>
   </g>
   <g id="line2d_23">
    <path d="M 103.074841 274.923474 
L 948.274841 274.923474 
" clip-path="url(#p7b6682b562)" style="fill: none; stroke-dasharray: 7.4,3.2; stroke-dashoffset: 0; stroke: #000000; stroke-width: 2"/>
   </g>
   <g id="patch_3">
    <path d="M 103.074841 395.28 
L 103.074841 7.2 
" style="fill: none; stroke: #000000; stroke-width: 0.8; stroke-linejoin: miter; stroke-linecap: square"/>
   </g>
   <g id="patch_4">
    <path d="M 940.074841 395.28 
L 940.074841 7.2 
" style="fill: none; stroke: #000000; stroke-width: 0.8; stroke-linejoin: miter; stroke-linecap: square"/>
   </g>
   <g id="patch_5">
    <path d="M 103.074841 395.28 
L 940.074841 395.28 
" style="fill: none; stroke: #000000; stroke-width: 0.8; stroke-linejoin: miter; stroke-linecap: square"/>
   </g>
   <g id="patch_6">
    <path d="M 103.074841 7.2 
L 940.074841 7.2 
" style="fill: none; stroke: #000000; stroke-width: 0.8; stroke-linejoin: miter; stroke-linecap: square"/>
   </g>
  </g>
 </g>
 <defs>
  <clipPath id="p7b6682b562">
   <rect x="103.074841" y="7.2" width="837" height="388.08"/>
  </clipPath>
 </defs>
</svg>
