<?xml version="1.0" encoding="utf-8" standalone="no"?>
<!DOCTYPE svg PUBLIC "-//W3C//DTD SVG 1.1//EN"
  "http://www.w3.org/Graphics/SVG/1.1/DTD/svg11.dtd">
<svg xmlns:xlink="http://www.w3.org/1999/xlink" width="947.274841pt" height="505.354841pt" viewBox="0 0 947.274841 505.354841" xmlns="http://www.w3.org/2000/svg" version="1.1">
 <metadata>
  <rdf:RDF xmlns:dc="http://purl.org/dc/elements/1.1/" xmlns:cc="http://creativecommons.org/ns#" xmlns:rdf="http://www.w3.org/1999/02/22-rdf-syntax-ns#">
   <cc:Work>
    <dc:type rdf:resource="http://purl.org/dc/dcmitype/StillImage"/>
    <dc:date>2023-11-12T23:20:42.634280</dc:date>
    <dc:format>image/svg+xml</dc:format>
    <dc:creator>
     <cc:Agent>
      <dc:title>Matplotlib v3.7.2, https://matplotlib.org/</dc:title>
     </cc:Agent>
    </dc:creator>
   </cc:Work>
  </rdf:RDF>
 </metadata>
 <defs>
  <style type="text/css">*{stroke-linejoin: round; stroke-linecap: butt}</style>
 </defs>
 <g id="figure_1">
  <g id="patch_1">
   <path d="M 0 505.354841 
L 947.274841 505.354841 
L 947.274841 -0 
L 0 -0 
z
" style="fill: #ffffff"/>
  </g>
  <g id="axes_1">
   <g id="patch_2">
    <path d="M 103.074841 395.28 
L 940.074841 395.28 
L 940.074841 7.2 
L 103.074841 7.2 
z
" style="fill: #ffffff"/>
   </g>
   <g id="PolyCollection_1">
    <path d="M -393.000769 291.875903 
L -393.000769 291.891694 
L -390.959306 291.816994 
L -388.917842 291.751263 
L -386.876379 291.667882 
L -384.834915 291.610523 
L -382.793452 291.537983 
L -380.751989 291.453987 
L -378.710525 291.375807 
L -376.669062 291.303797 
L -374.627598 291.23938 
L -372.586135 291.166108 
L -370.544672 291.08959 
L -368.503208 291.01483 
L -366.461745 290.924931 
L -364.420281 290.848774 
L -362.378818 290.76059 
L -360.337354 290.683561 
L -358.295891 290.582683 
L -356.254428 290.497839 
L -354.212964 290.415581 
L -352.171501 290.31996 
L -350.130037 290.226267 
L -348.088574 290.1342 
L -346.047111 290.025029 
L -344.005647 289.927834 
L -341.964184 289.815615 
L -339.92272 289.701763 
L -337.881257 289.576635 
L -335.839793 289.447883 
L -333.79833 289.321088 
L -331.756867 289.17583 
L -329.715403 289.012649 
L -327.67394 288.865379 
L -325.632476 288.699323 
L -323.591013 288.51107 
L -321.54955 288.333791 
L -319.508086 288.128004 
L -317.466623 287.918225 
L -315.425159 287.701617 
L -313.383696 287.472892 
L -311.342232 287.220553 
L -309.300769 286.952094 
L -307.259306 286.667728 
L -305.217842 286.391364 
L -303.176379 286.07009 
L -301.134915 285.76181 
L -299.093452 285.434046 
L -297.051989 285.103808 
L -295.010525 284.749523 
L -292.969062 284.367474 
L -290.927598 284.010037 
L -288.886135 283.614976 
L -286.844672 283.206302 
L -284.803208 282.804098 
L -282.761745 282.404715 
L -280.720281 281.973916 
L -278.678818 281.538098 
L -276.637354 281.102262 
L -274.595891 280.649243 
L -272.554428 280.190507 
L -270.512964 279.732358 
L -268.471501 279.259547 
L -266.430037 278.7852 
L -264.388574 278.316858 
L -262.347111 277.830613 
L -260.305647 277.313195 
L -258.264184 276.810037 
L -256.22272 276.307651 
L -254.181257 275.812203 
L -252.139793 275.298229 
L -250.09833 274.795067 
L -248.056867 274.284109 
L -246.015403 273.81837 
L -243.97394 273.27856 
L -241.932476 272.804813 
L -239.891013 272.290675 
L -237.84955 271.803477 
L -235.808086 271.296467 
L -233.766623 270.837021 
L -231.725159 270.316789 
L -229.683696 269.829752 
L -227.642232 269.370705 
L -225.600769 268.875639 
L -223.559306 268.404747 
L -221.517842 267.920556 
L -219.476379 267.427536 
L -217.434915 266.952097 
L -215.393452 266.485275 
L -213.351989 265.990583 
L -211.310525 265.515469 
L -209.269062 265.030419 
L -207.227598 264.552764 
L -205.186135 264.085547 
L -203.144672 263.60712 
L -201.103208 263.124758 
L -199.061745 262.686021 
L -197.020281 262.195867 
L -194.978818 261.724683 
L -192.937354 261.260874 
L -190.895891 260.796958 
L -188.854428 260.334461 
L -186.812964 259.866981 
L -184.771501 259.419342 
L -182.730037 258.955942 
L -180.688574 258.482513 
L -178.647111 258.004539 
L -176.605647 257.522067 
L -174.564184 257.067601 
L -172.52272 256.572206 
L -170.481257 256.047016 
L -168.439793 255.550865 
L -166.39833 255.030013 
L -164.356867 254.501558 
L -162.315403 253.9459 
L -160.27394 253.380651 
L -158.232476 252.851508 
L -156.191013 252.254303 
L -154.14955 251.68372 
L -152.108086 251.072791 
L -150.066623 250.506931 
L -148.025159 249.849982 
L -145.983696 249.20425 
L -143.942232 248.574504 
L -141.900769 247.933976 
L -139.859306 247.274608 
L -137.817842 246.587245 
L -135.776379 245.938776 
L -133.734915 245.203384 
L -131.693452 244.548999 
L -129.651989 243.792071 
L -127.610525 243.05595 
L -125.569062 242.334822 
L -123.527598 241.639756 
L -121.486135 240.837805 
L -119.444672 240.106363 
L -117.403208 239.192337 
L -115.361745 238.396018 
L -113.320281 237.648208 
L -111.278818 236.810841 
L -109.237354 235.952122 
L -107.195891 234.971981 
L -105.154428 234.046937 
L -103.112964 233.260811 
L -101.071501 232.058835 
L -99.030037 231.075491 
L -96.988574 230.069704 
L -94.947111 229.026432 
L -92.905647 227.847398 
L -90.864184 226.729892 
L -88.82272 225.859289 
L -86.781257 224.773111 
L -84.739793 223.185277 
L -82.69833 221.877808 
L -80.656867 221.065276 
L -78.615403 219.682272 
L -76.57394 218.675353 
L -74.532476 217.741566 
L -72.491013 216.440447 
L -70.44955 214.667042 
L -68.408086 213.582991 
L -66.366623 212.975411 
L -64.325159 211.656382 
L -62.283696 211.158966 
L -60.242232 210.293685 
L -58.200769 208.725226 
L -56.159306 208.741635 
L -54.117842 209.244877 
L -52.076379 210.422306 
L -50.034915 208.907122 
L -47.993452 211.651236 
L -45.951989 212.201651 
L -43.910525 208.318348 
L -41.869062 209.32537 
L -39.827598 210.946396 
L -37.786135 209.891061 
L -35.744672 209.631169 
L -33.703208 216.820477 
L -31.661745 227.071646 
L -29.620281 232.164706 
L -27.578818 220.975882 
L -25.537354 226.700885 
L -23.495891 234.212442 
L -21.454428 233.773979 
L -19.412964 249.081621 
L -17.371501 247.008191 
L -15.330037 242.346758 
L -13.288574 230.770187 
L -11.247111 241.694159 
L -9.205647 248.276084 
L -7.164184 245.566738 
L -5.12272 247.308278 
L -3.081257 253.53039 
L -1.039793 252.745419 
L 1.00167 247.452723 
L 3.043133 254.193634 
L 5.084597 255.565425 
L 7.12606 253.217237 
L 9.167524 257.514943 
L 11.208987 259.11596 
L 13.25045 258.743673 
L 15.291914 257.501668 
L 17.333377 258.947084 
L 19.374841 257.569378 
L 21.416304 257.741967 
L 23.457768 259.121246 
L 25.499231 257.91623 
L 27.540694 258.614013 
L 29.582158 258.69596 
L 31.623621 257.729962 
L 33.665085 258.147844 
L 35.706548 256.733363 
L 37.748011 256.87458 
L 39.789475 257.32129 
L 41.830938 257.384319 
L 43.872402 256.711562 
L 45.913865 256.140907 
L 47.955328 256.021482 
L 49.996792 255.382961 
L 52.038255 255.308527 
L 54.079719 255.210095 
L 56.121182 254.218766 
L 58.162646 254.721609 
L 60.204109 254.069239 
L 62.245572 253.795319 
L 64.287036 253.828227 
L 66.328499 253.181527 
L 68.369963 253.027255 
L 70.411426 253.255419 
L 72.452889 253.619373 
L 74.494353 252.541319 
L 76.535816 252.352402 
L 78.57728 251.990949 
L 80.618743 253.837018 
L 82.660207 253.859711 
L 84.70167 254.55023 
L 86.743133 252.743419 
L 88.784597 251.619172 
L 90.82606 251.934778 
L 92.867524 253.12453 
L 94.908987 253.285227 
L 96.95045 251.08612 
L 98.991914 252.854431 
L 101.033377 252.341349 
L 103.074841 251.979689 
L 105.116304 250.920162 
L 107.157768 251.658336 
L 109.199231 251.098948 
L 111.240694 251.469948 
L 113.282158 250.732714 
L 115.323621 250.125514 
L 117.365085 249.104726 
L 119.406548 248.559105 
L 121.448011 248.047574 
L 123.489475 247.38127 
L 125.530938 247.138582 
L 127.572402 246.500647 
L 129.613865 245.818454 
L 131.655328 244.233938 
L 133.696792 242.994986 
L 135.738255 242.357033 
L 137.779719 241.010047 
L 139.821182 240.619665 
L 141.862646 239.408414 
L 143.904109 237.697126 
L 145.945572 236.241998 
L 147.987036 235.098076 
L 150.028499 233.326271 
L 152.069963 232.17121 
L 154.111426 230.567279 
L 156.152889 229.127418 
L 158.194353 227.358434 
L 160.235816 225.869542 
L 162.27728 223.904615 
L 164.318743 222.318556 
L 166.360207 220.606746 
L 168.40167 218.388639 
L 170.443133 216.307855 
L 172.484597 214.744085 
L 174.52606 212.891013 
L 176.567524 210.6606 
L 178.608987 208.947787 
L 180.65045 206.899657 
L 182.691914 204.026456 
L 184.733377 202.674235 
L 186.774841 200.202369 
L 188.816304 198.224473 
L 190.857768 195.996664 
L 192.899231 193.597015 
L 194.940694 191.216929 
L 196.982158 189.052551 
L 199.023621 186.194902 
L 201.065085 184.348059 
L 203.106548 181.548021 
L 205.148011 179.666925 
L 207.189475 176.800097 
L 209.230938 174.024588 
L 211.272402 171.442549 
L 213.313865 169.406159 
L 215.355328 166.25141 
L 217.396792 164.047912 
L 219.438255 161.212037 
L 221.479719 158.86104 
L 223.521182 155.88095 
L 225.562646 153.240451 
L 227.604109 152.67066 
L 229.645572 147.737574 
L 231.687036 146.726335 
L 233.728499 143.659781 
L 235.769963 141.538164 
L 237.811426 139.074188 
L 239.852889 136.459029 
L 241.894353 134.073272 
L 243.935816 131.761944 
L 245.97728 129.572874 
L 248.018743 127.374101 
L 250.060207 128.612101 
L 252.10167 122.623779 
L 254.143133 120.94102 
L 256.184597 125.382334 
L 258.22606 118.214904 
L 260.267524 119.116463 
L 262.308987 118.107629 
L 264.35045 114.26597 
L 266.391914 114.642487 
L 268.433377 117.909323 
L 270.474841 115.113532 
L 272.516304 113.716078 
L 274.557768 115.690155 
L 276.599231 114.673514 
L 278.640694 115.979521 
L 280.682158 117.825907 
L 282.723621 121.120426 
L 284.765085 129.00235 
L 286.806548 126.995104 
L 288.848011 131.205395 
L 290.889475 134.672525 
L 292.930938 136.474576 
L 294.972402 141.806716 
L 297.013865 145.930691 
L 299.055328 139.220929 
L 301.096792 146.577625 
L 303.138255 155.664308 
L 305.179719 160.085527 
L 307.221182 162.149737 
L 309.262646 174.164683 
L 311.304109 175.204252 
L 313.345572 178.535246 
L 315.387036 177.737828 
L 317.428499 187.888162 
L 319.469963 184.841176 
L 321.511426 183.142606 
L 323.552889 191.81906 
L 325.594353 198.00011 
L 327.635816 197.53388 
L 329.67728 201.228109 
L 331.718743 202.471836 
L 333.760207 202.754281 
L 335.80167 202.81264 
L 337.843133 204.881839 
L 339.884597 206.074373 
L 341.92606 212.381987 
L 343.967524 209.231495 
L 346.008987 214.725615 
L 348.05045 213.548018 
L 350.091914 212.859686 
L 352.133377 215.107661 
L 354.174841 217.113591 
L 356.216304 214.667052 
L 358.257768 215.927818 
L 360.299231 216.040561 
L 362.340694 219.024126 
L 364.382158 217.586651 
L 366.423621 216.923624 
L 368.465085 217.783315 
L 370.506548 219.207812 
L 372.548011 218.505272 
L 374.589475 217.081965 
L 376.630938 217.856304 
L 378.672402 215.686335 
L 380.713865 215.879385 
L 382.755328 219.362308 
L 384.796792 219.100529 
L 386.838255 217.046288 
L 388.879719 216.482643 
L 390.921182 216.63197 
L 392.962646 214.396809 
L 395.004109 214.820423 
L 397.045572 214.709827 
L 399.087036 214.147686 
L 401.128499 213.457985 
L 403.169963 212.018114 
L 405.211426 212.685951 
L 407.252889 211.676652 
L 409.294353 211.362436 
L 411.335816 210.770145 
L 413.37728 210.70936 
L 415.418743 209.577099 
L 417.460207 207.622426 
L 419.50167 207.429671 
L 421.543133 205.824654 
L 423.584597 203.559769 
L 425.62606 205.04589 
L 427.667524 202.004851 
L 429.708987 203.1467 
L 431.75045 202.500084 
L 433.791914 202.627346 
L 435.833377 200.656802 
L 437.874841 200.447315 
L 439.916304 200.105817 
L 441.957768 197.685729 
L 443.999231 198.211848 
L 446.040694 197.944369 
L 448.082158 197.792139 
L 450.123621 196.616052 
L 452.165085 197.0879 
L 454.206548 195.884565 
L 456.248011 194.738199 
L 458.289475 192.958451 
L 460.330938 192.362334 
L 462.372402 191.956773 
L 464.413865 190.710809 
L 466.455328 190.856825 
L 468.496792 190.233713 
L 470.538255 189.128198 
L 472.579719 189.14256 
L 474.621182 187.896012 
L 476.662646 188.887996 
L 478.704109 188.016581 
L 480.745572 188.038044 
L 482.787036 186.503297 
L 484.828499 184.416132 
L 486.869963 186.162139 
L 488.911426 186.091002 
L 490.952889 185.40543 
L 492.994353 184.696541 
L 495.035816 183.245038 
L 497.07728 182.911614 
L 499.118743 182.113154 
L 501.160207 182.228211 
L 503.20167 181.926099 
L 505.243133 180.549233 
L 507.284597 178.597262 
L 509.32606 181.126938 
L 511.367524 180.52255 
L 513.408987 178.867002 
L 515.45045 179.918788 
L 517.491914 176.959822 
L 519.533377 177.322507 
L 521.574841 177.513066 
L 523.616304 175.508808 
L 525.657768 178.926065 
L 527.699231 175.505252 
L 529.740694 173.770101 
L 531.782158 176.007857 
L 533.823621 176.619265 
L 535.865085 175.537513 
L 537.906548 176.416498 
L 539.948011 174.858044 
L 541.989475 177.931977 
L 544.030938 176.393884 
L 546.072402 177.042502 
L 548.113865 174.977163 
L 550.155328 173.130809 
L 552.196792 175.535143 
L 554.238255 179.827718 
L 556.279719 174.992178 
L 558.321182 175.290065 
L 560.362646 173.499569 
L 562.404109 174.382698 
L 564.445572 174.16628 
L 566.487036 173.068405 
L 568.528499 172.673679 
L 570.569963 174.775285 
L 572.611426 173.7176 
L 574.652889 175.639709 
L 576.694353 176.019932 
L 578.735816 170.528417 
L 580.77728 172.82973 
L 582.818743 173.045921 
L 584.860207 173.456643 
L 586.90167 173.822466 
L 588.943133 177.380727 
L 590.984597 178.817012 
L 593.02606 178.680537 
L 595.067524 182.593156 
L 597.108987 189.058987 
L 599.15045 181.400917 
L 601.191914 181.330284 
L 603.233377 181.509308 
L 605.274841 184.078352 
L 607.316304 184.677589 
L 609.357768 184.673137 
L 611.399231 190.238319 
L 613.440694 192.299684 
L 615.482158 186.00044 
L 617.523621 191.719581 
L 619.565085 188.913616 
L 621.606548 187.171871 
L 623.648011 194.128719 
L 625.689475 192.75792 
L 627.730938 197.26148 
L 629.772402 195.914636 
L 631.813865 192.907182 
L 633.855328 195.74424 
L 635.896792 195.776668 
L 637.938255 198.567641 
L 639.979719 196.863694 
L 642.021182 201.451676 
L 644.062646 198.218708 
L 646.104109 200.661738 
L 648.145572 200.213252 
L 650.187036 202.897706 
L 652.228499 198.667818 
L 654.269963 203.270619 
L 656.311426 203.051073 
L 658.352889 206.209414 
L 660.394353 207.893616 
L 662.435816 207.940061 
L 664.47728 207.179145 
L 666.518743 209.222113 
L 668.560207 210.74915 
L 670.60167 209.441758 
L 672.643133 208.973234 
L 674.684597 210.767653 
L 676.72606 212.398984 
L 678.767524 209.652982 
L 680.808987 208.074805 
L 682.85045 214.439358 
L 684.891914 217.333336 
L 686.933377 210.865498 
L 688.974841 212.797557 
L 691.016304 213.772619 
L 693.057768 214.25291 
L 695.099231 217.523364 
L 697.140694 217.109918 
L 699.182158 215.788321 
L 701.223621 217.207883 
L 703.265085 217.594582 
L 705.306548 214.100367 
L 707.348011 215.870762 
L 709.389475 214.777648 
L 711.430938 219.616757 
L 713.472402 225.574197 
L 715.513865 224.716347 
L 717.555328 219.988743 
L 719.596792 219.476879 
L 721.638255 220.12749 
L 723.679719 220.351872 
L 725.721182 224.762958 
L 727.762646 219.154897 
L 729.804109 225.078886 
L 731.845572 229.849321 
L 733.887036 225.883771 
L 735.928499 232.013091 
L 737.969963 228.196234 
L 740.011426 231.531123 
L 742.052889 229.344441 
L 744.094353 230.996236 
L 746.135816 234.30213 
L 748.17728 234.101172 
L 750.218743 235.125204 
L 752.260207 235.415947 
L 754.30167 235.810717 
L 756.343133 227.87519 
L 758.384597 238.238232 
L 760.42606 242.536556 
L 762.467524 238.483609 
L 764.508987 242.29349 
L 766.55045 243.216096 
L 768.591914 241.164338 
L 770.633377 245.476653 
L 772.674841 248.45191 
L 774.716304 246.886214 
L 776.757768 248.109527 
L 778.799231 248.854227 
L 780.840694 249.995393 
L 782.882158 253.34144 
L 784.923621 246.958994 
L 786.965085 255.271153 
L 789.006548 255.68982 
L 791.048011 256.224655 
L 793.089475 251.354168 
L 795.130938 257.704265 
L 797.172402 262.02358 
L 799.213865 258.106549 
L 801.255328 258.818512 
L 803.296792 264.811375 
L 805.338255 255.056259 
L 807.379719 264.637953 
L 809.421182 259.066992 
L 811.462646 267.541058 
L 813.504109 264.065649 
L 815.545572 267.930465 
L 817.587036 269.355743 
L 819.628499 271.226071 
L 821.669963 272.030747 
L 823.711426 270.191375 
L 825.752889 270.635403 
L 827.794353 272.137088 
L 829.835816 276.209039 
L 831.87728 276.119315 
L 833.918743 276.430468 
L 835.960207 279.108534 
L 838.00167 279.635931 
L 840.043133 278.15089 
L 842.084597 278.714692 
L 844.12606 282.550944 
L 846.167524 283.415642 
L 848.208987 284.620998 
L 850.25045 282.269227 
L 852.291914 278.435762 
L 854.333377 283.31674 
L 856.374841 282.257552 
L 858.416304 283.816208 
L 860.457768 286.061989 
L 862.499231 283.837469 
L 864.540694 287.323182 
L 866.582158 285.269899 
L 868.623621 285.183996 
L 870.665085 285.241561 
L 872.706548 288.266978 
L 874.748011 287.771971 
L 876.789475 287.739031 
L 878.830938 285.893831 
L 880.872402 287.177797 
L 882.913865 287.838572 
L 884.955328 287.457376 
L 886.996792 289.474291 
L 889.038255 289.149105 
L 891.079719 290.296279 
L 893.121182 292.719186 
L 895.162646 292.571801 
L 897.204109 290.4602 
L 899.245572 290.768767 
L 901.287036 290.103893 
L 903.328499 291.700137 
L 905.369963 292.263905 
L 907.411426 289.851992 
L 909.452889 291.792234 
L 911.494353 284.675402 
L 913.535816 292.918909 
L 915.57728 296.199219 
L 917.618743 291.120184 
L 919.660207 290.338209 
L 921.70167 297.853684 
L 923.743133 293.314491 
L 925.784597 289.959495 
L 927.82606 291.271167 
L 929.867524 292.028478 
L 931.908987 290.196893 
L 933.95045 296.162136 
L 935.991914 292.75241 
L 938.033377 295.539043 
L 940.074841 297.770499 
L 940.074841 290.719036 
L 940.074841 290.719036 
L 938.033377 293.372701 
L 935.991914 291.483627 
L 933.95045 292.769615 
L 931.908987 289.536077 
L 929.867524 290.828978 
L 927.82606 289.632019 
L 925.784597 284.961996 
L 923.743133 292.108655 
L 921.70167 292.541935 
L 919.660207 285.738727 
L 917.618743 290.216147 
L 915.57728 293.205579 
L 913.535816 290.960537 
L 911.494353 253.101524 
L 909.452889 290.740545 
L 907.411426 284.540104 
L 905.369963 291.176597 
L 903.328499 290.834333 
L 901.287036 288.383691 
L 899.245572 288.588415 
L 897.204109 287.793041 
L 895.162646 291.42161 
L 893.121182 291.501555 
L 891.079719 286.802427 
L 889.038255 283.001145 
L 886.996792 286.211642 
L 884.955328 280.681015 
L 882.913865 282.823916 
L 880.872402 279.540252 
L 878.830938 275.375283 
L 876.789475 281.130317 
L 874.748011 281.743614 
L 872.706548 281.75017 
L 870.665085 275.077724 
L 868.623621 273.630062 
L 866.582158 273.327742 
L 864.540694 281.070909 
L 862.499231 270.289793 
L 860.457768 277.506114 
L 858.416304 271.184795 
L 856.374841 266.364013 
L 854.333377 270.170292 
L 852.291914 252.926389 
L 850.25045 268.12912 
L 848.208987 274.272263 
L 846.167524 271.003312 
L 844.12606 269.371317 
L 842.084597 255.480181 
L 840.043133 255.79975 
L 838.00167 260.558535 
L 835.960207 260.041477 
L 833.918743 252.224225 
L 831.87728 252.429601 
L 829.835816 251.601673 
L 827.794353 243.998334 
L 825.752889 237.393831 
L 823.711426 235.822448 
L 821.669963 241.367778 
L 819.628499 239.6092 
L 817.587036 236.184166 
L 815.545572 232.670291 
L 813.504109 221.457989 
L 811.462646 232.398933 
L 809.421182 203.68075 
L 807.379719 222.970271 
L 805.338255 195.657805 
L 803.296792 225.131611 
L 801.255328 208.73716 
L 799.213865 208.36476 
L 797.172402 216.704956 
L 795.130938 206.734019 
L 793.089475 188.603647 
L 791.048011 201.814092 
L 789.006548 201.50341 
L 786.965085 200.890521 
L 784.923621 179.741434 
L 782.882158 190.185393 
L 780.840694 187.649709 
L 778.799231 186.167437 
L 776.757768 183.827936 
L 774.716304 179.39048 
L 772.674841 183.710609 
L 770.633377 175.866696 
L 768.591914 166.121591 
L 766.55045 174.144953 
L 764.508987 167.713311 
L 762.467524 161.998006 
L 760.42606 171.279381 
L 758.384597 161.146565 
L 756.343133 135.148966 
L 754.30167 154.081165 
L 752.260207 153.302503 
L 750.218743 153.336289 
L 748.17728 151.013668 
L 746.135816 151.098221 
L 744.094353 143.992295 
L 742.052889 141.060746 
L 740.011426 146.502375 
L 737.969963 136.197788 
L 735.928499 146.701244 
L 733.887036 132.383466 
L 731.845572 140.574766 
L 729.804109 131.031346 
L 727.762646 119.218713 
L 725.721182 130.016019 
L 723.679719 119.679067 
L 721.638255 120.372698 
L 719.596792 119.899002 
L 717.555328 120.886834 
L 715.513865 130.636312 
L 713.472402 132.942721 
L 711.430938 121.198366 
L 709.389475 109.164931 
L 707.348011 112.512476 
L 705.306548 110.068766 
L 703.265085 117.593609 
L 701.223621 116.793607 
L 699.182158 113.743527 
L 697.140694 117.651643 
L 695.099231 117.32776 
L 693.057768 111.200562 
L 691.016304 111.92588 
L 688.974841 109.547864 
L 686.933377 106.621886 
L 684.891914 120.417862 
L 682.85045 112.649403 
L 680.808987 102.009091 
L 678.767524 107.109509 
L 676.72606 111.669635 
L 674.684597 108.658578 
L 672.643133 106.344958 
L 670.60167 108.161845 
L 668.560207 112.989509 
L 666.518743 107.785616 
L 664.47728 105.878746 
L 662.435816 108.020376 
L 660.394353 104.764206 
L 658.352889 105.829525 
L 656.311426 99.264084 
L 654.269963 101.676409 
L 652.228499 93.667965 
L 650.187036 100.606218 
L 648.145572 97.375706 
L 646.104109 99.331099 
L 644.062646 97.161851 
L 642.021182 101.417823 
L 639.979719 94.252038 
L 637.938255 98.825005 
L 635.896792 94.328887 
L 633.855328 95.257133 
L 631.813865 91.747467 
L 629.772402 93.68868 
L 627.730938 98.877799 
L 625.689475 93.989258 
L 623.648011 95.273763 
L 621.606548 85.594017 
L 619.565085 90.184889 
L 617.523621 92.557066 
L 615.482158 85.129852 
L 613.440694 93.610955 
L 611.399231 94.358619 
L 609.357768 84.941379 
L 607.316304 85.21784 
L 605.274841 84.65875 
L 603.233377 81.344754 
L 601.191914 83.829076 
L 599.15045 83.094405 
L 597.108987 94.409305 
L 595.067524 86.82415 
L 593.02606 81.263478 
L 590.984597 81.557728 
L 588.943133 80.033482 
L 586.90167 76.746233 
L 584.860207 78.134035 
L 582.818743 75.97921 
L 580.77728 78.752967 
L 578.735816 75.548951 
L 576.694353 82.107139 
L 574.652889 83.127956 
L 572.611426 81.81876 
L 570.569963 83.405326 
L 568.528499 81.127625 
L 566.487036 83.184873 
L 564.445572 84.444647 
L 562.404109 87.59861 
L 560.362646 85.333556 
L 558.321182 88.841123 
L 556.279719 88.307488 
L 554.238255 94.725461 
L 552.196792 90.616661 
L 550.155328 88.48458 
L 548.113865 91.29558 
L 546.072402 92.632823 
L 544.030938 92.842152 
L 541.989475 96.592724 
L 539.948011 93.546571 
L 537.906548 96.090788 
L 535.865085 95.005392 
L 533.823621 95.676201 
L 531.782158 94.70623 
L 529.740694 93.24359 
L 527.699231 96.24223 
L 525.657768 100.206742 
L 523.616304 96.298659 
L 521.574841 98.637334 
L 519.533377 97.705285 
L 517.491914 99.063883 
L 515.45045 102.129942 
L 513.408987 101.161263 
L 511.367524 103.653732 
L 509.32606 104.347966 
L 507.284597 101.644923 
L 505.243133 103.309611 
L 503.20167 105.157938 
L 501.160207 105.850192 
L 499.118743 105.814479 
L 497.07728 107.135272 
L 495.035816 106.967364 
L 492.994353 108.90594 
L 490.952889 109.467167 
L 488.911426 109.926416 
L 486.869963 110.381923 
L 484.828499 107.012703 
L 482.787036 110.787385 
L 480.745572 112.309486 
L 478.704109 111.904184 
L 476.662646 112.040394 
L 474.621182 112.075996 
L 472.579719 113.179985 
L 470.538255 112.82585 
L 468.496792 114.474269 
L 466.455328 115.049093 
L 464.413865 114.651592 
L 462.372402 115.246829 
L 460.330938 116.05311 
L 458.289475 116.887542 
L 456.248011 119.73263 
L 454.206548 120.38993 
L 452.165085 121.760064 
L 450.123621 121.037081 
L 448.082158 122.356121 
L 446.040694 122.466248 
L 443.999231 122.858592 
L 441.957768 121.381484 
L 439.916304 125.403714 
L 437.874841 125.742532 
L 435.833377 125.9967 
L 433.791914 128.41128 
L 431.75045 128.232458 
L 429.708987 129.233906 
L 427.667524 127.998665 
L 425.62606 131.33177 
L 423.584597 130.342848 
L 421.543133 133.560431 
L 419.50167 135.84792 
L 417.460207 136.509876 
L 415.418743 139.385722 
L 413.37728 141.634943 
L 411.335816 141.55672 
L 409.294353 142.939955 
L 407.252889 143.338224 
L 405.211426 145.151423 
L 403.169963 144.634036 
L 401.128499 147.157528 
L 399.087036 149.044788 
L 397.045572 150.164294 
L 395.004109 150.83278 
L 392.962646 151.363606 
L 390.921182 154.088768 
L 388.879719 154.734935 
L 386.838255 156.420564 
L 384.796792 158.90213 
L 382.755328 159.696278 
L 380.713865 157.483081 
L 378.672402 158.163019 
L 376.630938 160.881663 
L 374.589475 161.201327 
L 372.548011 163.071282 
L 370.506548 164.422991 
L 368.465085 163.696994 
L 366.423621 164.525205 
L 364.382158 165.562488 
L 362.340694 167.425115 
L 360.299231 165.355759 
L 358.257768 166.255853 
L 356.216304 166.263526 
L 354.174841 168.911464 
L 352.133377 168.585045 
L 350.091914 167.116735 
L 348.05045 168.524741 
L 346.008987 169.974745 
L 343.967524 166.165601 
L 341.92606 169.67136 
L 339.884597 165.197482 
L 337.843133 165.013882 
L 335.80167 164.133472 
L 333.760207 165.217508 
L 331.718743 165.55349 
L 329.67728 165.037604 
L 327.635816 162.930431 
L 325.594353 164.62076 
L 323.552889 159.650674 
L 321.511426 154.756738 
L 319.469963 156.066903 
L 317.428499 158.775895 
L 315.387036 152.205248 
L 313.345572 152.504404 
L 311.304109 150.962347 
L 309.262646 150.513132 
L 307.221182 140.969752 
L 305.179719 140.212014 
L 303.138255 136.739546 
L 301.096792 129.265916 
L 299.055328 123.952092 
L 297.013865 129.862263 
L 294.972402 127.190832 
L 292.930938 122.542631 
L 290.889475 120.531325 
L 288.848011 117.159219 
L 286.806548 112.764722 
L 284.765085 115.088938 
L 282.723621 106.7098 
L 280.682158 103.707029 
L 278.640694 101.706296 
L 276.599231 100.519238 
L 274.557768 101.554132 
L 272.516304 99.566076 
L 270.474841 101.064698 
L 268.433377 104.131729 
L 266.391914 101.152871 
L 264.35045 100.800173 
L 262.308987 104.926763 
L 260.267524 106.043601 
L 258.22606 105.380622 
L 256.184597 112.614512 
L 254.143133 108.541036 
L 252.10167 110.178574 
L 250.060207 116.558267 
L 248.018743 115.379755 
L 245.97728 117.778732 
L 243.935816 119.805034 
L 241.894353 121.969621 
L 239.852889 124.355175 
L 237.811426 126.859939 
L 235.769963 129.291176 
L 233.728499 131.3827 
L 231.687036 134.206784 
L 229.645572 135.065778 
L 227.604109 139.862414 
L 225.562646 140.223725 
L 223.521182 142.777467 
L 221.479719 145.593519 
L 219.438255 147.783631 
L 217.396792 150.45996 
L 215.355328 152.601681 
L 213.313865 155.619522 
L 211.272402 157.52306 
L 209.230938 159.799545 
L 207.189475 162.430265 
L 205.148011 165.105117 
L 203.106548 166.815038 
L 201.065085 169.399315 
L 199.023621 171.223651 
L 196.982158 173.868934 
L 194.940694 175.960152 
L 192.899231 178.037428 
L 190.857768 180.31393 
L 188.816304 182.350667 
L 186.774841 184.107495 
L 184.733377 186.328105 
L 182.691914 187.54387 
L 180.65045 190.237351 
L 178.608987 192.10943 
L 176.567524 193.777125 
L 174.52606 195.774254 
L 172.484597 197.058599 
L 170.443133 198.844916 
L 168.40167 200.671505 
L 166.360207 202.663555 
L 164.318743 204.220674 
L 162.27728 205.751615 
L 160.235816 207.405924 
L 158.194353 208.999045 
L 156.152889 210.70195 
L 154.111426 212.085498 
L 152.069963 213.576289 
L 150.028499 214.814505 
L 147.987036 216.479739 
L 145.945572 217.713258 
L 143.904109 219.091987 
L 141.862646 220.779249 
L 139.821182 221.977039 
L 137.779719 222.395998 
L 135.738255 223.789111 
L 133.696792 224.545446 
L 131.655328 225.886276 
L 129.613865 227.429616 
L 127.572402 228.261164 
L 125.530938 229.039834 
L 123.489475 229.250138 
L 121.448011 230.053522 
L 119.406548 230.554477 
L 117.365085 231.087214 
L 115.323621 232.184296 
L 113.282158 232.841611 
L 111.240694 233.760613 
L 109.199231 233.303292 
L 107.157768 233.820066 
L 105.116304 233.073309 
L 103.074841 234.313478 
L 101.033377 234.52252 
L 98.991914 235.432095 
L 96.95045 233.563878 
L 94.908987 235.867086 
L 92.867524 235.70127 
L 90.82606 234.405934 
L 88.784597 234.086432 
L 86.743133 235.276701 
L 84.70167 237.324981 
L 82.660207 236.540134 
L 80.618743 236.501047 
L 78.57728 234.446907 
L 76.535816 234.418178 
L 74.494353 235.002819 
L 72.452889 236.247888 
L 70.411426 235.826206 
L 68.369963 235.550782 
L 66.328499 235.73072 
L 64.287036 236.479184 
L 62.245572 236.277911 
L 60.204109 236.740783 
L 58.162646 237.524739 
L 56.121182 236.924316 
L 54.079719 238.069365 
L 52.038255 238.218216 
L 49.996792 238.326687 
L 47.955328 239.03663 
L 45.913865 239.189068 
L 43.872402 239.978344 
L 41.830938 240.843491 
L 39.789475 240.820949 
L 37.748011 240.420203 
L 35.706548 240.122238 
L 33.665085 241.993559 
L 31.623621 241.626995 
L 29.582158 242.873148 
L 27.540694 242.861815 
L 25.499231 242.335683 
L 23.457768 243.57088 
L 21.416304 242.358147 
L 19.374841 242.386703 
L 17.333377 243.967536 
L 15.291914 242.77995 
L 13.25045 244.275105 
L 11.208987 244.738297 
L 9.167524 243.43159 
L 7.12606 239.32744 
L 5.084597 241.921012 
L 3.043133 240.655274 
L 1.00167 234.568135 
L -1.039793 239.735458 
L -3.081257 240.790777 
L -5.12272 235.168619 
L -7.164184 233.629663 
L -9.205647 236.643588 
L -11.247111 230.558282 
L -13.288574 220.191451 
L -15.330037 231.67851 
L -17.371501 236.336069 
L -19.412964 238.658281 
L -21.454428 224.176494 
L -23.495891 224.824134 
L -25.537354 217.720153 
L -27.578818 212.110912 
L -29.620281 223.599121 
L -31.661745 218.762341 
L -33.703208 208.706002 
L -35.744672 201.599562 
L -37.786135 202.143539 
L -39.827598 203.506381 
L -41.869062 202.091336 
L -43.910525 201.294657 
L -45.951989 205.56085 
L -47.993452 205.177298 
L -50.034915 202.608764 
L -52.076379 204.390558 
L -54.117842 203.400888 
L -56.159306 203.114444 
L -58.200769 203.381964 
L -60.242232 205.144864 
L -62.283696 206.252692 
L -64.325159 206.94886 
L -66.366623 208.505344 
L -68.408086 209.311935 
L -70.44955 210.59469 
L -72.491013 212.523736 
L -74.532476 214.103556 
L -76.57394 215.191188 
L -78.615403 216.392622 
L -80.656867 217.924978 
L -82.69833 218.94239 
L -84.739793 220.411088 
L -86.781257 222.164953 
L -88.82272 223.250093 
L -90.864184 224.035777 
L -92.905647 225.146554 
L -94.947111 226.282775 
L -96.988574 227.321082 
L -99.030037 228.314796 
L -101.071501 229.274644 
L -103.112964 230.550373 
L -105.154428 231.259368 
L -107.195891 232.207949 
L -109.237354 233.203992 
L -111.278818 234.059177 
L -113.320281 234.895302 
L -115.361745 235.605954 
L -117.403208 236.374555 
L -119.444672 237.358932 
L -121.486135 238.072059 
L -123.527598 238.889987 
L -125.569062 239.565855 
L -127.610525 240.306326 
L -129.651989 241.05885 
L -131.693452 241.81913 
L -133.734915 242.46319 
L -135.776379 243.214826 
L -137.817842 243.875812 
L -139.859306 244.581776 
L -141.900769 245.24331 
L -143.942232 245.916747 
L -145.983696 246.552286 
L -148.025159 247.215447 
L -150.066623 247.916268 
L -152.108086 248.464941 
L -154.14955 249.128497 
L -156.191013 249.710921 
L -158.232476 250.37133 
L -160.27394 250.875913 
L -162.315403 251.491836 
L -164.356867 252.083101 
L -166.39833 252.645773 
L -168.439793 253.206276 
L -170.481257 253.725193 
L -172.52272 254.327836 
L -174.564184 254.87163 
L -176.605647 255.322365 
L -178.647111 255.855236 
L -180.688574 256.387698 
L -182.730037 256.918047 
L -184.771501 257.430831 
L -186.812964 257.910601 
L -188.854428 258.43763 
L -190.895891 258.955334 
L -192.937354 259.476299 
L -194.978818 259.996274 
L -197.020281 260.53056 
L -199.061745 261.0859 
L -201.103208 261.568183 
L -203.144672 262.117902 
L -205.186135 262.658396 
L -207.227598 263.179036 
L -209.269062 263.716179 
L -211.310525 264.264537 
L -213.351989 264.798091 
L -215.393452 265.357433 
L -217.434915 265.870737 
L -219.476379 266.394531 
L -221.517842 266.94727 
L -223.559306 267.482947 
L -225.600769 267.993609 
L -227.642232 268.533131 
L -229.683696 269.029318 
L -231.725159 269.558413 
L -233.766623 270.120743 
L -235.808086 270.609055 
L -237.84955 271.152329 
L -239.891013 271.669386 
L -241.932476 272.210705 
L -243.97394 272.704937 
L -246.015403 273.277093 
L -248.056867 273.758228 
L -250.09833 274.293639 
L -252.139793 274.818699 
L -254.181257 275.356377 
L -256.22272 275.86947 
L -258.264184 276.391481 
L -260.305647 276.915438 
L -262.347111 277.455592 
L -264.388574 277.959914 
L -266.430037 278.442566 
L -268.471501 278.932213 
L -270.512964 279.421209 
L -272.554428 279.88668 
L -274.595891 280.356378 
L -276.637354 280.819996 
L -278.678818 281.263545 
L -280.720281 281.710856 
L -282.761745 282.154976 
L -284.803208 282.561431 
L -286.844672 282.973115 
L -288.886135 283.399947 
L -290.927598 283.804948 
L -292.969062 284.169609 
L -295.010525 284.566921 
L -297.051989 284.931474 
L -299.093452 285.268562 
L -301.134915 285.604555 
L -303.176379 285.919361 
L -305.217842 286.255463 
L -307.259306 286.5365 
L -309.300769 286.830887 
L -311.342232 287.108295 
L -313.383696 287.365989 
L -315.425159 287.601769 
L -317.466623 287.817003 
L -319.508086 288.030082 
L -321.54955 288.240649 
L -323.591013 288.417248 
L -325.632476 288.611926 
L -327.67394 288.778573 
L -329.715403 288.923682 
L -331.756867 289.090772 
L -333.79833 289.238214 
L -335.839793 289.362085 
L -337.881257 289.493672 
L -339.92272 289.621553 
L -341.964184 289.735051 
L -344.005647 289.84859 
L -346.047111 289.944091 
L -348.088574 290.057001 
L -350.130037 290.148677 
L -352.171501 290.244289 
L -354.212964 290.343905 
L -356.254428 290.426704 
L -358.295891 290.513662 
L -360.337354 290.624405 
L -362.378818 290.704968 
L -364.420281 290.801563 
L -366.461745 290.879517 
L -368.503208 290.980248 
L -370.544672 291.06084 
L -372.586135 291.144665 
L -374.627598 291.219572 
L -376.669062 291.287479 
L -378.710525 291.363425 
L -380.751989 291.445351 
L -382.793452 291.52558 
L -384.834915 291.594744 
L -386.876379 291.652315 
L -388.917842 291.731225 
L -390.959306 291.797553 
L -393.000769 291.875903 
z
" clip-path="url(#pe21ebc0dce)" style="fill: #008000; fill-opacity: 0.3; stroke: #008000; stroke-opacity: 0.3"/>
   </g>
   <g id="matplotlib.axis_1">
    <g id="xtick_1">
     <g id="line2d_1">
      <defs>
       <path id="m8784105ce9" d="M 0 0 
L 0 3.5 
" style="stroke: #000000; stroke-width: 0.8"/>
      </defs>
      <g>
       <use xlink:href="#m8784105ce9" x="103.074841" y="395.28" style="stroke: #000000; stroke-width: 0.8"/>
      </g>
     </g>
     <g id="text_1">
      <!-- 2022-03-01 -->
      <g transform="translate(17.945813 495.213718) rotate(-45) scale(0.2 -0.2)">
       <defs>
        <path id="DejaVuSans-32" d="M 1228 531 
L 3431 531 
L 3431 0 
L 469 0 
L 469 531 
Q 828 903 1448 1529 
Q 2069 2156 2228 2338 
Q 2531 2678 2651 2914 
Q 2772 3150 2772 3378 
Q 2772 3750 2511 3984 
Q 2250 4219 1831 4219 
Q 1534 4219 1204 4116 
Q 875 4013 500 3803 
L 500 4441 
Q 881 4594 1212 4672 
Q 1544 4750 1819 4750 
Q 2544 4750 2975 4387 
Q 3406 4025 3406 3419 
Q 3406 3131 3298 2873 
Q 3191 2616 2906 2266 
Q 2828 2175 2409 1742 
Q 1991 1309 1228 531 
z
" transform="scale(0.015625)"/>
        <path id="DejaVuSans-30" d="M 2034 4250 
Q 1547 4250 1301 3770 
Q 1056 3291 1056 2328 
Q 1056 1369 1301 889 
Q 1547 409 2034 409 
Q 2525 409 2770 889 
Q 3016 1369 3016 2328 
Q 3016 3291 2770 3770 
Q 2525 4250 2034 4250 
z
M 2034 4750 
Q 2819 4750 3233 4129 
Q 3647 3509 3647 2328 
Q 3647 1150 3233 529 
Q 2819 -91 2034 -91 
Q 1250 -91 836 529 
Q 422 1150 422 2328 
Q 422 3509 836 4129 
Q 1250 4750 2034 4750 
z
" transform="scale(0.015625)"/>
        <path id="DejaVuSans-2d" d="M 313 2009 
L 1997 2009 
L 1997 1497 
L 313 1497 
L 313 2009 
z
" transform="scale(0.015625)"/>
        <path id="DejaVuSans-33" d="M 2597 2516 
Q 3050 2419 3304 2112 
Q 3559 1806 3559 1356 
Q 3559 666 3084 287 
Q 2609 -91 1734 -91 
Q 1441 -91 1130 -33 
Q 819 25 488 141 
L 488 750 
Q 750 597 1062 519 
Q 1375 441 1716 441 
Q 2309 441 2620 675 
Q 2931 909 2931 1356 
Q 2931 1769 2642 2001 
Q 2353 2234 1838 2234 
L 1294 2234 
L 1294 2753 
L 1863 2753 
Q 2328 2753 2575 2939 
Q 2822 3125 2822 3475 
Q 2822 3834 2567 4026 
Q 2313 4219 1838 4219 
Q 1578 4219 1281 4162 
Q 984 4106 628 3988 
L 628 4550 
Q 988 4650 1302 4700 
Q 1616 4750 1894 4750 
Q 2613 4750 3031 4423 
Q 3450 4097 3450 3541 
Q 3450 3153 3228 2886 
Q 3006 2619 2597 2516 
z
" transform="scale(0.015625)"/>
        <path id="DejaVuSans-31" d="M 794 531 
L 1825 531 
L 1825 4091 
L 703 3866 
L 703 4441 
L 1819 4666 
L 2450 4666 
L 2450 531 
L 3481 531 
L 3481 0 
L 794 0 
L 794 531 
z
" transform="scale(0.015625)"/>
       </defs>
       <use xlink:href="#DejaVuSans-32"/>
       <use xlink:href="#DejaVuSans-30" x="63.623047"/>
       <use xlink:href="#DejaVuSans-32" x="127.246094"/>
       <use xlink:href="#DejaVuSans-32" x="190.869141"/>
       <use xlink:href="#DejaVuSans-2d" x="254.492188"/>
       <use xlink:href="#DejaVuSans-30" x="290.576172"/>
       <use xlink:href="#DejaVuSans-33" x="354.199219"/>
       <use xlink:href="#DejaVuSans-2d" x="417.822266"/>
       <use xlink:href="#DejaVuSans-30" x="453.90625"/>
       <use xlink:href="#DejaVuSans-31" x="517.529297"/>
      </g>
     </g>
    </g>
    <g id="xtick_2">
     <g id="line2d_2">
      <g>
       <use xlink:href="#m8784105ce9" x="160.235816" y="395.28" style="stroke: #000000; stroke-width: 0.8"/>
      </g>
     </g>
     <g id="text_2">
      <!-- 2022-03-29 -->
      <g transform="translate(75.106789 495.213718) rotate(-45) scale(0.2 -0.2)">
       <defs>
        <path id="DejaVuSans-39" d="M 703 97 
L 703 672 
Q 941 559 1184 500 
Q 1428 441 1663 441 
Q 2288 441 2617 861 
Q 2947 1281 2994 2138 
Q 2813 1869 2534 1725 
Q 2256 1581 1919 1581 
Q 1219 1581 811 2004 
Q 403 2428 403 3163 
Q 403 3881 828 4315 
Q 1253 4750 1959 4750 
Q 2769 4750 3195 4129 
Q 3622 3509 3622 2328 
Q 3622 1225 3098 567 
Q 2575 -91 1691 -91 
Q 1453 -91 1209 -44 
Q 966 3 703 97 
z
M 1959 2075 
Q 2384 2075 2632 2365 
Q 2881 2656 2881 3163 
Q 2881 3666 2632 3958 
Q 2384 4250 1959 4250 
Q 1534 4250 1286 3958 
Q 1038 3666 1038 3163 
Q 1038 2656 1286 2365 
Q 1534 2075 1959 2075 
z
" transform="scale(0.015625)"/>
       </defs>
       <use xlink:href="#DejaVuSans-32"/>
       <use xlink:href="#DejaVuSans-30" x="63.623047"/>
       <use xlink:href="#DejaVuSans-32" x="127.246094"/>
       <use xlink:href="#DejaVuSans-32" x="190.869141"/>
       <use xlink:href="#DejaVuSans-2d" x="254.492188"/>
       <use xlink:href="#DejaVuSans-30" x="290.576172"/>
       <use xlink:href="#DejaVuSans-33" x="354.199219"/>
       <use xlink:href="#DejaVuSans-2d" x="417.822266"/>
       <use xlink:href="#DejaVuSans-32" x="453.90625"/>
       <use xlink:href="#DejaVuSans-39" x="517.529297"/>
      </g>
     </g>
    </g>
    <g id="xtick_3">
     <g id="line2d_3">
      <g>
       <use xlink:href="#m8784105ce9" x="217.396792" y="395.28" style="stroke: #000000; stroke-width: 0.8"/>
      </g>
     </g>
     <g id="text_3">
      <!-- 2022-04-26 -->
      <g transform="translate(132.267765 495.213718) rotate(-45) scale(0.2 -0.2)">
       <defs>
        <path id="DejaVuSans-34" d="M 2419 4116 
L 825 1625 
L 2419 1625 
L 2419 4116 
z
M 2253 4666 
L 3047 4666 
L 3047 1625 
L 3713 1625 
L 3713 1100 
L 3047 1100 
L 3047 0 
L 2419 0 
L 2419 1100 
L 313 1100 
L 313 1709 
L 2253 4666 
z
" transform="scale(0.015625)"/>
        <path id="DejaVuSans-36" d="M 2113 2584 
Q 1688 2584 1439 2293 
Q 1191 2003 1191 1497 
Q 1191 994 1439 701 
Q 1688 409 2113 409 
Q 2538 409 2786 701 
Q 3034 994 3034 1497 
Q 3034 2003 2786 2293 
Q 2538 2584 2113 2584 
z
M 3366 4563 
L 3366 3988 
Q 3128 4100 2886 4159 
Q 2644 4219 2406 4219 
Q 1781 4219 1451 3797 
Q 1122 3375 1075 2522 
Q 1259 2794 1537 2939 
Q 1816 3084 2150 3084 
Q 2853 3084 3261 2657 
Q 3669 2231 3669 1497 
Q 3669 778 3244 343 
Q 2819 -91 2113 -91 
Q 1303 -91 875 529 
Q 447 1150 447 2328 
Q 447 3434 972 4092 
Q 1497 4750 2381 4750 
Q 2619 4750 2861 4703 
Q 3103 4656 3366 4563 
z
" transform="scale(0.015625)"/>
       </defs>
       <use xlink:href="#DejaVuSans-32"/>
       <use xlink:href="#DejaVuSans-30" x="63.623047"/>
       <use xlink:href="#DejaVuSans-32" x="127.246094"/>
       <use xlink:href="#DejaVuSans-32" x="190.869141"/>
       <use xlink:href="#DejaVuSans-2d" x="254.492188"/>
       <use xlink:href="#DejaVuSans-30" x="290.576172"/>
       <use xlink:href="#DejaVuSans-34" x="354.199219"/>
       <use xlink:href="#DejaVuSans-2d" x="417.822266"/>
       <use xlink:href="#DejaVuSans-32" x="453.90625"/>
       <use xlink:href="#DejaVuSans-36" x="517.529297"/>
      </g>
     </g>
    </g>
    <g id="xtick_4">
     <g id="line2d_4">
      <g>
       <use xlink:href="#m8784105ce9" x="274.557768" y="395.28" style="stroke: #000000; stroke-width: 0.8"/>
      </g>
     </g>
     <g id="text_4">
      <!-- 2022-05-24 -->
      <g transform="translate(189.42874 495.213718) rotate(-45) scale(0.2 -0.2)">
       <defs>
        <path id="DejaVuSans-35" d="M 691 4666 
L 3169 4666 
L 3169 4134 
L 1269 4134 
L 1269 2991 
Q 1406 3038 1543 3061 
Q 1681 3084 1819 3084 
Q 2600 3084 3056 2656 
Q 3513 2228 3513 1497 
Q 3513 744 3044 326 
Q 2575 -91 1722 -91 
Q 1428 -91 1123 -41 
Q 819 9 494 109 
L 494 744 
Q 775 591 1075 516 
Q 1375 441 1709 441 
Q 2250 441 2565 725 
Q 2881 1009 2881 1497 
Q 2881 1984 2565 2268 
Q 2250 2553 1709 2553 
Q 1456 2553 1204 2497 
Q 953 2441 691 2322 
L 691 4666 
z
" transform="scale(0.015625)"/>
       </defs>
       <use xlink:href="#DejaVuSans-32"/>
       <use xlink:href="#DejaVuSans-30" x="63.623047"/>
       <use xlink:href="#DejaVuSans-32" x="127.246094"/>
       <use xlink:href="#DejaVuSans-32" x="190.869141"/>
       <use xlink:href="#DejaVuSans-2d" x="254.492188"/>
       <use xlink:href="#DejaVuSans-30" x="290.576172"/>
       <use xlink:href="#DejaVuSans-35" x="354.199219"/>
       <use xlink:href="#DejaVuSans-2d" x="417.822266"/>
       <use xlink:href="#DejaVuSans-32" x="453.90625"/>
       <use xlink:href="#DejaVuSans-34" x="517.529297"/>
      </g>
     </g>
    </g>
    <g id="xtick_5">
     <g id="line2d_5">
      <g>
       <use xlink:href="#m8784105ce9" x="331.718743" y="395.28" style="stroke: #000000; stroke-width: 0.8"/>
      </g>
     </g>
     <g id="text_5">
      <!-- 2022-06-21 -->
      <g transform="translate(246.589716 495.213718) rotate(-45) scale(0.2 -0.2)">
       <use xlink:href="#DejaVuSans-32"/>
       <use xlink:href="#DejaVuSans-30" x="63.623047"/>
       <use xlink:href="#DejaVuSans-32" x="127.246094"/>
       <use xlink:href="#DejaVuSans-32" x="190.869141"/>
       <use xlink:href="#DejaVuSans-2d" x="254.492188"/>
       <use xlink:href="#DejaVuSans-30" x="290.576172"/>
       <use xlink:href="#DejaVuSans-36" x="354.199219"/>
       <use xlink:href="#DejaVuSans-2d" x="417.822266"/>
       <use xlink:href="#DejaVuSans-32" x="453.90625"/>
       <use xlink:href="#DejaVuSans-31" x="517.529297"/>
      </g>
     </g>
    </g>
    <g id="xtick_6">
     <g id="line2d_6">
      <g>
       <use xlink:href="#m8784105ce9" x="388.879719" y="395.28" style="stroke: #000000; stroke-width: 0.8"/>
      </g>
     </g>
     <g id="text_6">
      <!-- 2022-07-19 -->
      <g transform="translate(303.750691 495.213718) rotate(-45) scale(0.2 -0.2)">
       <defs>
        <path id="DejaVuSans-37" d="M 525 4666 
L 3525 4666 
L 3525 4397 
L 1831 0 
L 1172 0 
L 2766 4134 
L 525 4134 
L 525 4666 
z
" transform="scale(0.015625)"/>
       </defs>
       <use xlink:href="#DejaVuSans-32"/>
       <use xlink:href="#DejaVuSans-30" x="63.623047"/>
       <use xlink:href="#DejaVuSans-32" x="127.246094"/>
       <use xlink:href="#DejaVuSans-32" x="190.869141"/>
       <use xlink:href="#DejaVuSans-2d" x="254.492188"/>
       <use xlink:href="#DejaVuSans-30" x="290.576172"/>
       <use xlink:href="#DejaVuSans-37" x="354.199219"/>
       <use xlink:href="#DejaVuSans-2d" x="417.822266"/>
       <use xlink:href="#DejaVuSans-31" x="453.90625"/>
       <use xlink:href="#DejaVuSans-39" x="517.529297"/>
      </g>
     </g>
    </g>
    <g id="xtick_7">
     <g id="line2d_7">
      <g>
       <use xlink:href="#m8784105ce9" x="446.040694" y="395.28" style="stroke: #000000; stroke-width: 0.8"/>
      </g>
     </g>
     <g id="text_7">
      <!-- 2022-08-16 -->
      <g transform="translate(360.911667 495.213718) rotate(-45) scale(0.2 -0.2)">
       <defs>
        <path id="DejaVuSans-38" d="M 2034 2216 
Q 1584 2216 1326 1975 
Q 1069 1734 1069 1313 
Q 1069 891 1326 650 
Q 1584 409 2034 409 
Q 2484 409 2743 651 
Q 3003 894 3003 1313 
Q 3003 1734 2745 1975 
Q 2488 2216 2034 2216 
z
M 1403 2484 
Q 997 2584 770 2862 
Q 544 3141 544 3541 
Q 544 4100 942 4425 
Q 1341 4750 2034 4750 
Q 2731 4750 3128 4425 
Q 3525 4100 3525 3541 
Q 3525 3141 3298 2862 
Q 3072 2584 2669 2484 
Q 3125 2378 3379 2068 
Q 3634 1759 3634 1313 
Q 3634 634 3220 271 
Q 2806 -91 2034 -91 
Q 1263 -91 848 271 
Q 434 634 434 1313 
Q 434 1759 690 2068 
Q 947 2378 1403 2484 
z
M 1172 3481 
Q 1172 3119 1398 2916 
Q 1625 2713 2034 2713 
Q 2441 2713 2670 2916 
Q 2900 3119 2900 3481 
Q 2900 3844 2670 4047 
Q 2441 4250 2034 4250 
Q 1625 4250 1398 4047 
Q 1172 3844 1172 3481 
z
" transform="scale(0.015625)"/>
       </defs>
       <use xlink:href="#DejaVuSans-32"/>
       <use xlink:href="#DejaVuSans-30" x="63.623047"/>
       <use xlink:href="#DejaVuSans-32" x="127.246094"/>
       <use xlink:href="#DejaVuSans-32" x="190.869141"/>
       <use xlink:href="#DejaVuSans-2d" x="254.492188"/>
       <use xlink:href="#DejaVuSans-30" x="290.576172"/>
       <use xlink:href="#DejaVuSans-38" x="354.199219"/>
       <use xlink:href="#DejaVuSans-2d" x="417.822266"/>
       <use xlink:href="#DejaVuSans-31" x="453.90625"/>
       <use xlink:href="#DejaVuSans-36" x="517.529297"/>
      </g>
     </g>
    </g>
    <g id="xtick_8">
     <g id="line2d_8">
      <g>
       <use xlink:href="#m8784105ce9" x="503.20167" y="395.28" style="stroke: #000000; stroke-width: 0.8"/>
      </g>
     </g>
     <g id="text_8">
      <!-- 2022-09-13 -->
      <g transform="translate(418.072643 495.213718) rotate(-45) scale(0.2 -0.2)">
       <use xlink:href="#DejaVuSans-32"/>
       <use xlink:href="#DejaVuSans-30" x="63.623047"/>
       <use xlink:href="#DejaVuSans-32" x="127.246094"/>
       <use xlink:href="#DejaVuSans-32" x="190.869141"/>
       <use xlink:href="#DejaVuSans-2d" x="254.492188"/>
       <use xlink:href="#DejaVuSans-30" x="290.576172"/>
       <use xlink:href="#DejaVuSans-39" x="354.199219"/>
       <use xlink:href="#DejaVuSans-2d" x="417.822266"/>
       <use xlink:href="#DejaVuSans-31" x="453.90625"/>
       <use xlink:href="#DejaVuSans-33" x="517.529297"/>
      </g>
     </g>
    </g>
    <g id="xtick_9">
     <g id="line2d_9">
      <g>
       <use xlink:href="#m8784105ce9" x="560.362646" y="395.28" style="stroke: #000000; stroke-width: 0.8"/>
      </g>
     </g>
     <g id="text_9">
      <!-- 2022-10-11 -->
      <g transform="translate(475.233618 495.213718) rotate(-45) scale(0.2 -0.2)">
       <use xlink:href="#DejaVuSans-32"/>
       <use xlink:href="#DejaVuSans-30" x="63.623047"/>
       <use xlink:href="#DejaVuSans-32" x="127.246094"/>
       <use xlink:href="#DejaVuSans-32" x="190.869141"/>
       <use xlink:href="#DejaVuSans-2d" x="254.492188"/>
       <use xlink:href="#DejaVuSans-31" x="290.576172"/>
       <use xlink:href="#DejaVuSans-30" x="354.199219"/>
       <use xlink:href="#DejaVuSans-2d" x="417.822266"/>
       <use xlink:href="#DejaVuSans-31" x="453.90625"/>
       <use xlink:href="#DejaVuSans-31" x="517.529297"/>
      </g>
     </g>
    </g>
    <g id="xtick_10">
     <g id="line2d_10">
      <g>
       <use xlink:href="#m8784105ce9" x="617.523621" y="395.28" style="stroke: #000000; stroke-width: 0.8"/>
      </g>
     </g>
     <g id="text_10">
      <!-- 2022-11-08 -->
      <g transform="translate(532.394594 495.213718) rotate(-45) scale(0.2 -0.2)">
       <use xlink:href="#DejaVuSans-32"/>
       <use xlink:href="#DejaVuSans-30" x="63.623047"/>
       <use xlink:href="#DejaVuSans-32" x="127.246094"/>
       <use xlink:href="#DejaVuSans-32" x="190.869141"/>
       <use xlink:href="#DejaVuSans-2d" x="254.492188"/>
       <use xlink:href="#DejaVuSans-31" x="290.576172"/>
       <use xlink:href="#DejaVuSans-31" x="354.199219"/>
       <use xlink:href="#DejaVuSans-2d" x="417.822266"/>
       <use xlink:href="#DejaVuSans-30" x="453.90625"/>
       <use xlink:href="#DejaVuSans-38" x="517.529297"/>
      </g>
     </g>
    </g>
    <g id="xtick_11">
     <g id="line2d_11">
      <g>
       <use xlink:href="#m8784105ce9" x="674.684597" y="395.28" style="stroke: #000000; stroke-width: 0.8"/>
      </g>
     </g>
     <g id="text_11">
      <!-- 2022-12-06 -->
      <g transform="translate(589.555569 495.213718) rotate(-45) scale(0.2 -0.2)">
       <use xlink:href="#DejaVuSans-32"/>
       <use xlink:href="#DejaVuSans-30" x="63.623047"/>
       <use xlink:href="#DejaVuSans-32" x="127.246094"/>
       <use xlink:href="#DejaVuSans-32" x="190.869141"/>
       <use xlink:href="#DejaVuSans-2d" x="254.492188"/>
       <use xlink:href="#DejaVuSans-31" x="290.576172"/>
       <use xlink:href="#DejaVuSans-32" x="354.199219"/>
       <use xlink:href="#DejaVuSans-2d" x="417.822266"/>
       <use xlink:href="#DejaVuSans-30" x="453.90625"/>
       <use xlink:href="#DejaVuSans-36" x="517.529297"/>
      </g>
     </g>
    </g>
    <g id="xtick_12">
     <g id="line2d_12">
      <g>
       <use xlink:href="#m8784105ce9" x="731.845572" y="395.28" style="stroke: #000000; stroke-width: 0.8"/>
      </g>
     </g>
     <g id="text_12">
      <!-- 2023-01-03 -->
      <g transform="translate(646.716545 495.213718) rotate(-45) scale(0.2 -0.2)">
       <use xlink:href="#DejaVuSans-32"/>
       <use xlink:href="#DejaVuSans-30" x="63.623047"/>
       <use xlink:href="#DejaVuSans-32" x="127.246094"/>
       <use xlink:href="#DejaVuSans-33" x="190.869141"/>
       <use xlink:href="#DejaVuSans-2d" x="254.492188"/>
       <use xlink:href="#DejaVuSans-30" x="290.576172"/>
       <use xlink:href="#DejaVuSans-31" x="354.199219"/>
       <use xlink:href="#DejaVuSans-2d" x="417.822266"/>
       <use xlink:href="#DejaVuSans-30" x="453.90625"/>
       <use xlink:href="#DejaVuSans-33" x="517.529297"/>
      </g>
     </g>
    </g>
    <g id="xtick_13">
     <g id="line2d_13">
      <g>
       <use xlink:href="#m8784105ce9" x="789.006548" y="395.28" style="stroke: #000000; stroke-width: 0.8"/>
      </g>
     </g>
     <g id="text_13">
      <!-- 2023-01-31 -->
      <g transform="translate(703.877521 495.213718) rotate(-45) scale(0.2 -0.2)">
       <use xlink:href="#DejaVuSans-32"/>
       <use xlink:href="#DejaVuSans-30" x="63.623047"/>
       <use xlink:href="#DejaVuSans-32" x="127.246094"/>
       <use xlink:href="#DejaVuSans-33" x="190.869141"/>
       <use xlink:href="#DejaVuSans-2d" x="254.492188"/>
       <use xlink:href="#DejaVuSans-30" x="290.576172"/>
       <use xlink:href="#DejaVuSans-31" x="354.199219"/>
       <use xlink:href="#DejaVuSans-2d" x="417.822266"/>
       <use xlink:href="#DejaVuSans-33" x="453.90625"/>
       <use xlink:href="#DejaVuSans-31" x="517.529297"/>
      </g>
     </g>
    </g>
    <g id="xtick_14">
     <g id="line2d_14">
      <g>
       <use xlink:href="#m8784105ce9" x="846.167524" y="395.28" style="stroke: #000000; stroke-width: 0.8"/>
      </g>
     </g>
     <g id="text_14">
      <!-- 2023-02-28 -->
      <g transform="translate(761.038496 495.213718) rotate(-45) scale(0.2 -0.2)">
       <use xlink:href="#DejaVuSans-32"/>
       <use xlink:href="#DejaVuSans-30" x="63.623047"/>
       <use xlink:href="#DejaVuSans-32" x="127.246094"/>
       <use xlink:href="#DejaVuSans-33" x="190.869141"/>
       <use xlink:href="#DejaVuSans-2d" x="254.492188"/>
       <use xlink:href="#DejaVuSans-30" x="290.576172"/>
       <use xlink:href="#DejaVuSans-32" x="354.199219"/>
       <use xlink:href="#DejaVuSans-2d" x="417.822266"/>
       <use xlink:href="#DejaVuSans-32" x="453.90625"/>
       <use xlink:href="#DejaVuSans-38" x="517.529297"/>
      </g>
     </g>
    </g>
    <g id="xtick_15">
     <g id="line2d_15">
      <g>
       <use xlink:href="#m8784105ce9" x="903.328499" y="395.28" style="stroke: #000000; stroke-width: 0.8"/>
      </g>
     </g>
     <g id="text_15">
      <!-- 2023-03-28 -->
      <g transform="translate(818.199472 495.213718) rotate(-45) scale(0.2 -0.2)">
       <use xlink:href="#DejaVuSans-32"/>
       <use xlink:href="#DejaVuSans-30" x="63.623047"/>
       <use xlink:href="#DejaVuSans-32" x="127.246094"/>
       <use xlink:href="#DejaVuSans-33" x="190.869141"/>
       <use xlink:href="#DejaVuSans-2d" x="254.492188"/>
       <use xlink:href="#DejaVuSans-30" x="290.576172"/>
       <use xlink:href="#DejaVuSans-33" x="354.199219"/>
       <use xlink:href="#DejaVuSans-2d" x="417.822266"/>
       <use xlink:href="#DejaVuSans-32" x="453.90625"/>
       <use xlink:href="#DejaVuSans-38" x="517.529297"/>
      </g>
     </g>
    </g>
    <g id="xtick_16">
     <g id="line2d_16">
      <g>
       <use xlink:href="#m8784105ce9" x="940.074841" y="395.28" style="stroke: #000000; stroke-width: 0.8"/>
      </g>
     </g>
     <g id="text_16">
      <!-- 2023-04-15 -->
      <g transform="translate(854.945813 495.213718) rotate(-45) scale(0.2 -0.2)">
       <use xlink:href="#DejaVuSans-32"/>
       <use xlink:href="#DejaVuSans-30" x="63.623047"/>
       <use xlink:href="#DejaVuSans-32" x="127.246094"/>
       <use xlink:href="#DejaVuSans-33" x="190.869141"/>
       <use xlink:href="#DejaVuSans-2d" x="254.492188"/>
       <use xlink:href="#DejaVuSans-30" x="290.576172"/>
       <use xlink:href="#DejaVuSans-34" x="354.199219"/>
       <use xlink:href="#DejaVuSans-2d" x="417.822266"/>
       <use xlink:href="#DejaVuSans-31" x="453.90625"/>
       <use xlink:href="#DejaVuSans-35" x="517.529297"/>
      </g>
     </g>
    </g>
   </g>
   <g id="matplotlib.axis_2">
    <g id="ytick_1">
     <g id="line2d_17">
      <defs>
       <path id="m65fe9ec7f7" d="M 0 0 
L -3.5 0 
" style="stroke: #000000; stroke-width: 0.8"/>
      </defs>
      <g>
       <use xlink:href="#m65fe9ec7f7" x="103.074841" y="345.757226" style="stroke: #000000; stroke-width: 0.8"/>
      </g>
     </g>
     <g id="text_17">
      <!-- 0.05 -->
      <g transform="translate(34.784216 353.355664) scale(0.2 -0.2)">
       <defs>
        <path id="DejaVuSans-2212" d="M 678 2272 
L 4684 2272 
L 4684 1741 
L 678 1741 
L 678 2272 
z
" transform="scale(0.015625)"/>
        <path id="DejaVuSans-2e" d="M 684 794 
L 1344 794 
L 1344 0 
L 684 0 
L 684 794 
z
" transform="scale(0.015625)"/>
       </defs>
       <use xlink:href="#DejaVuSans-2212"/>
       <use xlink:href="#DejaVuSans-30" x="83.789062"/>
       <use xlink:href="#DejaVuSans-2e" x="147.412109"/>
       <use xlink:href="#DejaVuSans-30" x="179.199219"/>
       <use xlink:href="#DejaVuSans-35" x="242.822266"/>
      </g>
     </g>
    </g>
    <g id="ytick_2">
     <g id="line2d_18">
      <g>
       <use xlink:href="#m65fe9ec7f7" x="103.074841" y="291.949118" style="stroke: #000000; stroke-width: 0.8"/>
      </g>
     </g>
     <g id="text_18">
      <!-- 0.00 -->
      <g transform="translate(51.543591 299.547556) scale(0.2 -0.2)">
       <use xlink:href="#DejaVuSans-30"/>
       <use xlink:href="#DejaVuSans-2e" x="63.623047"/>
       <use xlink:href="#DejaVuSans-30" x="95.410156"/>
       <use xlink:href="#DejaVuSans-30" x="159.033203"/>
      </g>
     </g>
    </g>
    <g id="ytick_3">
     <g id="line2d_19">
      <g>
       <use xlink:href="#m65fe9ec7f7" x="103.074841" y="238.14101" style="stroke: #000000; stroke-width: 0.8"/>
      </g>
     </g>
     <g id="text_19">
      <!-- 0.05 -->
      <g transform="translate(51.543591 245.739448) scale(0.2 -0.2)">
       <use xlink:href="#DejaVuSans-30"/>
       <use xlink:href="#DejaVuSans-2e" x="63.623047"/>
       <use xlink:href="#DejaVuSans-30" x="95.410156"/>
       <use xlink:href="#DejaVuSans-35" x="159.033203"/>
      </g>
     </g>
    </g>
    <g id="ytick_4">
     <g id="line2d_20">
      <g>
       <use xlink:href="#m65fe9ec7f7" x="103.074841" y="184.332903" style="stroke: #000000; stroke-width: 0.8"/>
      </g>
     </g>
     <g id="text_20">
      <!-- 0.10 -->
      <g transform="translate(51.543591 191.93134) scale(0.2 -0.2)">
       <use xlink:href="#DejaVuSans-30"/>
       <use xlink:href="#DejaVuSans-2e" x="63.623047"/>
       <use xlink:href="#DejaVuSans-31" x="95.410156"/>
       <use xlink:href="#DejaVuSans-30" x="159.033203"/>
      </g>
     </g>
    </g>
    <g id="ytick_5">
     <g id="line2d_21">
      <g>
       <use xlink:href="#m65fe9ec7f7" x="103.074841" y="130.524795" style="stroke: #000000; stroke-width: 0.8"/>
      </g>
     </g>
     <g id="text_21">
      <!-- 0.15 -->
      <g transform="translate(51.543591 138.123232) scale(0.2 -0.2)">
       <use xlink:href="#DejaVuSans-30"/>
       <use xlink:href="#DejaVuSans-2e" x="63.623047"/>
       <use xlink:href="#DejaVuSans-31" x="95.410156"/>
       <use xlink:href="#DejaVuSans-35" x="159.033203"/>
      </g>
     </g>
    </g>
    <g id="ytick_6">
     <g id="line2d_22">
      <g>
       <use xlink:href="#m65fe9ec7f7" x="103.074841" y="76.716687" style="stroke: #000000; stroke-width: 0.8"/>
      </g>
     </g>
     <g id="text_22">
      <!-- 0.20 -->
      <g transform="translate(51.543591 84.315124) scale(0.2 -0.2)">
       <use xlink:href="#DejaVuSans-30"/>
       <use xlink:href="#DejaVuSans-2e" x="63.623047"/>
       <use xlink:href="#DejaVuSans-32" x="95.410156"/>
       <use xlink:href="#DejaVuSans-30" x="159.033203"/>
      </g>
     </g>
    </g>
    <g id="ytick_7">
     <g id="line2d_23">
      <g>
       <use xlink:href="#m65fe9ec7f7" x="103.074841" y="22.908579" style="stroke: #000000; stroke-width: 0.8"/>
      </g>
     </g>
     <g id="text_23">
      <!-- 0.25 -->
      <g transform="translate(51.543591 30.507016) scale(0.2 -0.2)">
       <use xlink:href="#DejaVuSans-30"/>
       <use xlink:href="#DejaVuSans-2e" x="63.623047"/>
       <use xlink:href="#DejaVuSans-32" x="95.410156"/>
       <use xlink:href="#DejaVuSans-35" x="159.033203"/>
      </g>
     </g>
    </g>
   </g>
   <g id="line2d_24">
    <path d="M 780.840694 273.295384 
L 784.923621 273.295384 
L 786.965085 204.170323 
L 789.006548 163.626279 
L 791.048011 102.22925 
L 793.089475 69.949121 
L 799.213865 69.949121 
L 801.255328 59.118389 
L 803.296792 59.118389 
L 805.338255 51.337933 
L 807.379719 24.84 
L 809.421182 88.05611 
L 811.462646 48.4602 
L 813.504109 48.4602 
L 815.545572 42.250461 
L 817.587036 110.937419 
L 819.628499 156.89745 
L 821.669963 216.551949 
L 823.711426 262.057995 
L 825.752889 262.057995 
L 827.794353 250.441169 
L 829.835816 250.441169 
L 831.87728 268.061053 
L 833.918743 268.061053 
L 835.960207 274.100159 
L 838.00167 313.774815 
L 840.043133 261.615756 
L 842.084597 261.615756 
L 844.12606 253.2321 
L 846.167524 258.367927 
L 848.208987 262.830516 
L 850.25045 252.633242 
L 852.291914 265.61507 
L 854.333377 252.389154 
L 856.374841 240.17129 
L 858.416304 247.73284 
L 860.457768 247.73284 
L 862.499231 240.943688 
L 864.540694 240.943688 
L 866.582158 247.499065 
L 868.623621 216.921528 
L 870.665085 284.74997 
L 872.706548 259.825368 
L 874.748011 274.540528 
L 876.789475 275.338369 
L 878.830938 263.541608 
L 880.872402 272.131644 
L 882.913865 260.892345 
L 884.955328 252.010687 
L 886.996792 266.432826 
L 889.038255 266.212123 
L 891.079719 260.218787 
L 893.121182 260.218787 
L 895.162646 240.671396 
L 897.204109 235.85737 
L 899.245572 257.344637 
L 901.287036 236.708788 
L 903.328499 274.465839 
L 905.369963 268.134334 
L 907.411426 257.581728 
L 909.452889 270.57564 
L 911.494353 266.766891 
L 913.535816 266.766891 
L 915.57728 282.402382 
L 917.618743 276.40164 
L 919.660207 281.953328 
L 921.70167 293.561507 
L 923.743133 293.561507 
L 925.784597 334.636432 
L 927.82606 334.636432 
L 929.867524 348.549375 
L 931.908987 348.549375 
L 933.95045 335.716925 
L 935.991914 335.716925 
L 938.033377 377.64 
L 940.074841 372.418364 
L 940.074841 372.418364 
" clip-path="url(#pe21ebc0dce)" style="fill: none; stroke: #ffa500; stroke-width: 1.5; stroke-linecap: square"/>
   </g>
   <g id="line2d_25">
    <path d="M 103.074841 291.949118 
L 948.274841 291.949118 
" clip-path="url(#pe21ebc0dce)" style="fill: none; stroke-dasharray: 7.4,3.2; stroke-dashoffset: 0; stroke: #000000; stroke-width: 2"/>
   </g>
   <g id="patch_3">
    <path d="M 103.074841 395.28 
L 103.074841 7.2 
" style="fill: none; stroke: #000000; stroke-width: 0.8; stroke-linejoin: miter; stroke-linecap: square"/>
   </g>
   <g id="patch_4">
    <path d="M 940.074841 395.28 
L 940.074841 7.2 
" style="fill: none; stroke: #000000; stroke-width: 0.8; stroke-linejoin: miter; stroke-linecap: square"/>
   </g>
   <g id="patch_5">
    <path d="M 103.074841 395.28 
L 940.074841 395.28 
" style="fill: none; stroke: #000000; stroke-width: 0.8; stroke-linejoin: miter; stroke-linecap: square"/>
   </g>
   <g id="patch_6">
    <path d="M 103.074841 7.2 
L 940.074841 7.2 
" style="fill: none; stroke: #000000; stroke-width: 0.8; stroke-linejoin: miter; stroke-linecap: square"/>
   </g>
  </g>
 </g>
 <defs>
  <clipPath id="pe21ebc0dce">
   <rect x="103.074841" y="7.2" width="837" height="388.08"/>
  </clipPath>
 </defs>
</svg>
