<?xml version="1.0" encoding="utf-8" standalone="no"?>
<!DOCTYPE svg PUBLIC "-//W3C//DTD SVG 1.1//EN"
  "http://www.w3.org/Graphics/SVG/1.1/DTD/svg11.dtd">
<svg xmlns:xlink="http://www.w3.org/1999/xlink" width="1040.965466pt" height="505.354841pt" viewBox="0 0 1040.965466 505.354841" xmlns="http://www.w3.org/2000/svg" version="1.1">
 <metadata>
  <rdf:RDF xmlns:dc="http://purl.org/dc/elements/1.1/" xmlns:cc="http://creativecommons.org/ns#" xmlns:rdf="http://www.w3.org/1999/02/22-rdf-syntax-ns#">
   <cc:Work>
    <dc:type rdf:resource="http://purl.org/dc/dcmitype/StillImage"/>
    <dc:date>2023-11-29T15:47:36.150420</dc:date>
    <dc:format>image/svg+xml</dc:format>
    <dc:creator>
     <cc:Agent>
      <dc:title>Matplotlib v3.7.2, https://matplotlib.org/</dc:title>
     </cc:Agent>
    </dc:creator>
   </cc:Work>
  </rdf:RDF>
 </metadata>
 <defs>
  <style type="text/css">*{stroke-linejoin: round; stroke-linecap: butt}</style>
 </defs>
 <g id="figure_1">
  <g id="patch_1">
   <path d="M 0 505.354841 
L 1040.965466 505.354841 
L 1040.965466 -0 
L 0 -0 
z
" style="fill: #ffffff"/>
  </g>
  <g id="axes_1">
   <g id="patch_2">
    <path d="M 103.074841 395.28 
L 940.074841 395.28 
L 940.074841 7.2 
L 103.074841 7.2 
z
" style="fill: #ffffff"/>
   </g>
   <g id="PolyCollection_1">
    <path d="M -393.000769 228.577311 
L -393.000769 228.597494 
L -390.959306 228.484418 
L -388.917842 228.390045 
L -386.876379 228.273624 
L -384.834915 228.197213 
L -382.793452 228.114981 
L -380.751989 228.015161 
L -378.710525 227.916711 
L -376.669062 227.825233 
L -374.627598 227.750121 
L -372.586135 227.658328 
L -370.544672 227.557414 
L -368.503208 227.458234 
L -366.461745 227.345301 
L -364.420281 227.25089 
L -362.378818 227.140703 
L -360.337354 227.040303 
L -358.295891 226.912149 
L -356.254428 226.805581 
L -354.212964 226.703003 
L -352.171501 226.579368 
L -350.130037 226.4587 
L -348.088574 226.342367 
L -346.047111 226.202511 
L -344.005647 226.080309 
L -341.964184 225.930371 
L -339.92272 225.788688 
L -337.881257 225.622356 
L -335.839793 225.450389 
L -333.79833 225.287944 
L -331.756867 225.104435 
L -329.715403 224.888848 
L -327.67394 224.700395 
L -325.632476 224.484149 
L -323.591013 224.235048 
L -321.54955 223.996585 
L -319.508086 223.734135 
L -317.466623 223.458127 
L -315.425159 223.177857 
L -313.383696 222.873764 
L -311.342232 222.532082 
L -309.300769 222.186127 
L -307.259306 221.81816 
L -305.217842 221.453034 
L -303.176379 221.035141 
L -301.134915 220.635431 
L -299.093452 220.199436 
L -297.051989 219.781365 
L -295.010525 219.314438 
L -292.969062 218.815783 
L -290.927598 218.346682 
L -288.886135 217.844708 
L -286.844672 217.311917 
L -284.803208 216.792685 
L -282.761745 216.265839 
L -280.720281 215.712772 
L -278.678818 215.155412 
L -276.637354 214.593534 
L -274.595891 214.007209 
L -272.554428 213.413588 
L -270.512964 212.823394 
L -268.471501 212.211567 
L -266.430037 211.599202 
L -264.388574 210.988618 
L -262.347111 210.349606 
L -260.305647 209.692855 
L -258.264184 209.040904 
L -256.22272 208.391103 
L -254.181257 207.747826 
L -252.139793 207.084858 
L -250.09833 206.434574 
L -248.056867 205.771496 
L -246.015403 205.169533 
L -243.97394 204.468266 
L -241.932476 203.862043 
L -239.891013 203.170392 
L -237.84955 202.55045 
L -235.808086 201.876797 
L -233.766623 201.284053 
L -231.725159 200.600079 
L -229.683696 199.96075 
L -227.642232 199.360859 
L -225.600769 198.700305 
L -223.559306 198.099964 
L -221.517842 197.461876 
L -219.476379 196.809292 
L -217.434915 196.182733 
L -215.393452 195.583363 
L -213.351989 194.931993 
L -211.310525 194.307556 
L -209.269062 193.666571 
L -207.227598 193.042402 
L -205.186135 192.440754 
L -203.144672 191.820079 
L -201.103208 191.192041 
L -199.061745 190.632142 
L -197.020281 189.988621 
L -194.978818 189.373903 
L -192.937354 188.769373 
L -190.895891 188.163201 
L -188.854428 187.557963 
L -186.812964 186.94342 
L -184.771501 186.358956 
L -182.730037 185.748221 
L -180.688574 185.120267 
L -178.647111 184.484337 
L -176.605647 183.840595 
L -174.564184 183.240515 
L -172.52272 182.57528 
L -170.481257 181.862928 
L -168.439793 181.190086 
L -166.39833 180.491514 
L -164.356867 179.775807 
L -162.315403 179.017527 
L -160.27394 178.245532 
L -158.232476 177.531964 
L -156.191013 176.712089 
L -154.14955 175.935599 
L -152.108086 175.097034 
L -150.066623 174.331659 
L -148.025159 173.423902 
L -145.983696 172.536263 
L -143.942232 171.675636 
L -141.900769 170.799793 
L -139.859306 169.896207 
L -137.817842 168.950005 
L -135.776379 168.067994 
L -133.734915 167.050686 
L -131.693452 166.164259 
L -129.651989 165.116868 
L -127.610525 164.105137 
L -125.569062 163.119705 
L -123.527598 162.093214 
L -121.486135 161.025608 
L -119.444672 160.071728 
L -117.403208 158.792645 
L -115.361745 157.702347 
L -113.320281 156.692761 
L -111.278818 155.544736 
L -109.237354 154.339169 
L -107.195891 152.986371 
L -105.154428 151.728899 
L -103.112964 150.681272 
L -101.071501 148.982204 
L -99.030037 147.635496 
L -96.988574 146.260514 
L -94.947111 144.834941 
L -92.905647 143.202136 
L -90.864184 141.646163 
L -88.82272 140.524094 
L -86.781257 139.091291 
L -84.739793 136.623369 
L -82.69833 134.550461 
L -80.656867 133.036891 
L -78.615403 131.047173 
L -76.57394 129.168522 
L -74.532476 127.764917 
L -72.491013 125.429921 
L -70.44955 122.894354 
L -68.408086 121.202347 
L -66.366623 120.139767 
L -64.325159 117.957319 
L -62.283696 117.017037 
L -60.242232 115.549981 
L -58.200769 113.344323 
L -56.159306 112.864486 
L -54.117842 113.640484 
L -52.076379 115.504798 
L -50.034915 113.395358 
L -47.993452 117.862496 
L -45.951989 119.08038 
L -43.910525 113.272864 
L -41.869062 114.74055 
L -39.827598 117.797136 
L -37.786135 116.34819 
L -35.744672 116.15638 
L -33.703208 127.598755 
L -31.661745 144.05393 
L -29.620281 152.147413 
L -27.578818 134.553983 
L -25.537354 143.651553 
L -23.495891 155.666054 
L -21.454428 155.064881 
L -19.412964 179.292567 
L -17.371501 175.807753 
L -15.330037 168.518192 
L -13.288574 150.204568 
L -11.247111 167.585838 
L -9.205647 177.797789 
L -7.164184 173.73145 
L -5.12272 176.182942 
L -3.081257 186.010364 
L -1.039793 184.767665 
L 1.00167 176.359359 
L 3.043133 186.929678 
L 5.084597 189.049035 
L 7.12606 185.318016 
L 9.167524 192.117502 
L 11.208987 194.780926 
L 13.25045 193.925506 
L 15.291914 191.930703 
L 17.333377 194.193739 
L 19.374841 191.990588 
L 21.416304 192.250177 
L 23.457768 194.484764 
L 25.499231 192.500309 
L 27.540694 193.587413 
L 29.582158 193.743327 
L 31.623621 192.233071 
L 33.665085 192.912717 
L 35.706548 190.713263 
L 37.748011 190.976474 
L 39.789475 191.749316 
L 41.830938 191.911479 
L 43.872402 190.932397 
L 45.913865 190.125806 
L 47.955328 190.059776 
L 49.996792 189.176033 
L 52.038255 189.198998 
L 54.079719 189.185474 
L 56.121182 187.824457 
L 58.162646 188.808504 
L 60.204109 187.961706 
L 62.245572 187.73718 
L 64.287036 188.034319 
L 66.328499 187.283719 
L 68.369963 187.330912 
L 70.411426 187.979158 
L 72.452889 188.838365 
L 74.494353 187.46259 
L 76.535816 187.521266 
L 78.57728 187.286977 
L 80.618743 190.528288 
L 82.660207 191.005835 
L 84.70167 192.555544 
L 86.743133 190.111358 
L 88.784597 188.75967 
L 90.82606 189.661284 
L 92.867524 191.97142 
L 94.908987 192.691101 
L 96.95045 189.690073 
L 98.991914 193.008996 
L 101.033377 192.657707 
L 103.074841 192.690544 
L 105.116304 191.48619 
L 107.157768 193.191374 
L 109.199231 192.878576 
L 111.240694 194.049788 
L 113.282158 193.513695 
L 115.323621 193.169548 
L 117.365085 192.200901 
L 119.406548 191.978224 
L 121.448011 191.828974 
L 123.489475 191.427093 
L 125.530938 191.786671 
L 127.572402 191.493877 
L 129.613865 191.165883 
L 131.655328 189.388967 
L 133.696792 188.217629 
L 135.738255 187.967298 
L 137.779719 186.625178 
L 139.821182 186.799155 
L 141.862646 185.700092 
L 143.904109 183.813196 
L 145.945572 182.343057 
L 147.987036 181.40259 
L 150.028499 179.497758 
L 152.069963 178.493364 
L 154.111426 177.013502 
L 156.152889 175.660794 
L 158.194353 173.981477 
L 160.235816 172.475445 
L 162.27728 170.686258 
L 164.318743 169.14119 
L 166.360207 167.710993 
L 168.40167 165.545641 
L 170.443133 163.647886 
L 172.484597 161.943921 
L 174.52606 160.578901 
L 176.567524 158.587219 
L 178.608987 156.931289 
L 180.65045 154.929898 
L 182.691914 152.042743 
L 184.733377 150.714803 
L 186.774841 148.745528 
L 188.816304 146.954949 
L 190.857768 144.97001 
L 192.899231 142.343771 
L 194.940694 140.321245 
L 196.982158 137.992654 
L 199.023621 135.018654 
L 201.065085 133.362621 
L 203.106548 130.618664 
L 205.148011 128.959169 
L 207.189475 126.117136 
L 209.230938 122.978356 
L 211.272402 120.834746 
L 213.313865 119.034691 
L 215.355328 115.886946 
L 217.396792 113.639217 
L 219.438255 110.916271 
L 221.479719 108.884271 
L 223.521182 105.864057 
L 225.562646 103.11663 
L 227.604109 104.074515 
L 229.645572 98.059326 
L 231.687036 97.890835 
L 233.728499 94.831673 
L 235.769963 93.290499 
L 237.811426 90.621873 
L 239.852889 88.378126 
L 241.894353 86.149678 
L 243.935816 83.857061 
L 245.97728 82.629678 
L 248.018743 80.736265 
L 250.060207 83.797097 
L 252.10167 76.234267 
L 254.143133 75.659529 
L 256.184597 82.582004 
L 258.22606 74.351155 
L 260.267524 76.725236 
L 262.308987 76.848529 
L 264.35045 72.250169 
L 266.391914 73.837689 
L 268.433377 79.240505 
L 270.474841 76.175632 
L 272.516304 75.541564 
L 274.557768 78.795571 
L 276.599231 79.481015 
L 278.640694 81.048379 
L 280.682158 85.743798 
L 282.723621 90.78063 
L 284.765085 102.710482 
L 286.806548 100.255664 
L 288.848011 107.14493 
L 290.889475 111.901411 
L 292.930938 116.25689 
L 294.972402 121.833887 
L 297.013865 126.091253 
L 299.055328 118.826457 
L 301.096792 124.998716 
L 303.138255 135.507032 
L 305.179719 141.091534 
L 307.221182 142.147363 
L 309.262646 153.836212 
L 311.304109 155.595183 
L 313.345572 158.235924 
L 315.387036 157.1982 
L 317.428499 167.026167 
L 319.469963 163.547828 
L 321.511426 160.87013 
L 323.552889 168.995892 
L 325.594353 175.463808 
L 327.635816 173.3575 
L 329.67728 177.459034 
L 331.718743 178.612489 
L 333.760207 178.036954 
L 335.80167 176.457377 
L 337.843133 177.82731 
L 339.884597 178.974655 
L 341.92606 185.823949 
L 343.967524 179.916715 
L 346.008987 185.842004 
L 348.05045 184.156077 
L 350.091914 182.952232 
L 352.133377 185.160358 
L 354.174841 185.330463 
L 356.216304 181.77988 
L 358.257768 183.167039 
L 360.299231 182.251404 
L 362.340694 186.072367 
L 364.382158 183.835403 
L 366.423621 181.852773 
L 368.465085 184.021772 
L 370.506548 184.205258 
L 372.548011 183.196133 
L 374.589475 181.303944 
L 376.630938 182.545422 
L 378.672402 179.243898 
L 380.713865 179.124734 
L 382.755328 184.158748 
L 384.796792 183.568326 
L 386.838255 180.792158 
L 388.879719 180.291072 
L 390.921182 180.227432 
L 392.962646 176.690256 
L 395.004109 178.125413 
L 397.045572 177.997051 
L 399.087036 177.350556 
L 401.128499 176.683749 
L 403.169963 174.677359 
L 405.211426 176.259553 
L 407.252889 175.18336 
L 409.294353 174.401063 
L 411.335816 173.894124 
L 413.37728 173.437217 
L 415.418743 172.627545 
L 417.460207 169.818135 
L 419.50167 169.128612 
L 421.543133 167.496298 
L 423.584597 164.109595 
L 425.62606 167.008216 
L 427.667524 162.426953 
L 429.708987 163.839755 
L 431.75045 163.698888 
L 433.791914 163.961861 
L 435.833377 161.392424 
L 437.874841 161.194739 
L 439.916304 161.697696 
L 441.957768 157.157185 
L 443.999231 158.907003 
L 446.040694 158.180205 
L 448.082158 159.0241 
L 450.123621 156.523771 
L 452.165085 157.56315 
L 454.206548 157.056777 
L 456.248011 154.083267 
L 458.289475 152.926747 
L 460.330938 151.7787 
L 462.372402 151.481616 
L 464.413865 150.532914 
L 466.455328 150.257866 
L 468.496792 149.875593 
L 470.538255 149.059849 
L 472.579719 148.405416 
L 474.621182 146.368727 
L 476.662646 147.504692 
L 478.704109 148.19688 
L 480.745572 146.65309 
L 482.787036 145.655644 
L 484.828499 142.14208 
L 486.869963 145.551763 
L 488.911426 145.408439 
L 490.952889 144.802513 
L 492.994353 143.768358 
L 495.035816 142.521324 
L 497.07728 141.005623 
L 499.118743 141.072025 
L 501.160207 140.221954 
L 503.20167 140.292889 
L 505.243133 137.806235 
L 507.284597 136.010386 
L 509.32606 138.087207 
L 511.367524 135.800018 
L 513.408987 135.281627 
L 515.45045 136.432339 
L 517.491914 131.475055 
L 519.533377 130.889718 
L 521.574841 132.379709 
L 523.616304 129.530974 
L 525.657768 132.328101 
L 527.699231 129.427859 
L 529.740694 126.106201 
L 531.782158 127.779792 
L 533.823621 128.311067 
L 535.865085 126.583934 
L 537.906548 126.383398 
L 539.948011 125.242871 
L 541.989475 129.716889 
L 544.030938 127.802489 
L 546.072402 127.638997 
L 548.113865 124.748516 
L 550.155328 121.557167 
L 552.196792 124.849186 
L 554.238255 128.561815 
L 556.279719 124.57296 
L 558.321182 123.266137 
L 560.362646 119.874366 
L 562.404109 120.973021 
L 564.445572 121.145756 
L 566.487036 118.049244 
L 568.528499 116.827599 
L 570.569963 120.215787 
L 572.611426 117.621867 
L 574.652889 121.342034 
L 576.694353 122.132274 
L 578.735816 115.385409 
L 580.77728 116.336763 
L 582.818743 116.071588 
L 584.860207 117.324785 
L 586.90167 119.88758 
L 588.943133 126.015562 
L 590.984597 127.848148 
L 593.02606 126.946744 
L 595.067524 132.259416 
L 597.108987 142.877085 
L 599.15045 130.408868 
L 601.191914 127.167959 
L 603.233377 130.872966 
L 605.274841 134.249367 
L 607.316304 134.648176 
L 609.357768 132.849222 
L 611.399231 139.804479 
L 613.440694 143.989919 
L 615.482158 136.183351 
L 617.523621 143.733859 
L 619.565085 139.401125 
L 621.606548 138.978182 
L 623.648011 146.332347 
L 625.689475 146.25606 
L 627.730938 150.657912 
L 629.772402 150.954116 
L 631.813865 144.044237 
L 633.855328 149.39441 
L 635.896792 149.349894 
L 637.938255 154.515367 
L 639.979719 152.819477 
L 642.021182 158.458001 
L 644.062646 153.961988 
L 646.104109 157.060538 
L 648.145572 157.222112 
L 650.187036 160.940737 
L 652.228499 154.386108 
L 654.269963 161.44959 
L 656.311426 162.491334 
L 658.352889 165.792619 
L 660.394353 169.650527 
L 662.435816 168.779272 
L 664.47728 167.285868 
L 666.518743 171.236438 
L 668.560207 175.498181 
L 670.60167 172.400814 
L 672.643133 169.913887 
L 674.684597 173.664384 
L 676.72606 176.170541 
L 678.767524 170.669182 
L 680.808987 169.508497 
L 682.85045 179.221662 
L 684.891914 181.965581 
L 686.933377 172.183912 
L 688.974841 175.798314 
L 691.016304 177.061426 
L 693.057768 178.119343 
L 695.099231 183.323218 
L 697.140694 181.400863 
L 699.182158 178.342776 
L 701.223621 181.406091 
L 703.265085 182.238151 
L 705.306548 176.784133 
L 707.348011 178.302175 
L 709.389475 177.600879 
L 711.430938 186.904865 
L 713.472402 196.071652 
L 715.513865 195.275944 
L 717.555328 186.364041 
L 719.596792 182.529963 
L 721.638255 184.003569 
L 723.679719 184.197885 
L 725.721182 195.488755 
L 727.762646 182.426747 
L 729.804109 192.097845 
L 731.845572 202.554681 
L 733.887036 193.055736 
L 735.928499 214.123983 
L 737.969963 196.922849 
L 740.011426 208.380239 
L 742.052889 202.651654 
L 744.094353 209.363153 
L 746.135816 218.980511 
L 748.17728 214.155074 
L 750.218743 220.694746 
L 752.260207 218.978507 
L 754.30167 223.447956 
L 756.343133 197.248679 
L 758.384597 233.804066 
L 760.42606 248.361528 
L 762.467524 232.261034 
L 764.508987 239.6529 
L 766.55045 250.028457 
L 768.591914 238.161333 
L 770.633377 251.394447 
L 772.674841 263.642884 
L 774.716304 260.071093 
L 776.757768 265.097761 
L 778.799231 267.407405 
L 780.840694 270.337825 
L 782.882158 270.382022 
L 784.923621 258.734378 
L 786.965085 287.832947 
L 789.006548 289.017504 
L 791.048011 284.83685 
L 793.089475 268.093779 
L 795.130938 292.710127 
L 797.172402 309.952144 
L 799.213865 293.323095 
L 801.255328 294.06834 
L 803.296792 318.948529 
L 805.338255 271.707407 
L 807.379719 313.107282 
L 809.421182 285.68081 
L 811.462646 328.853954 
L 813.504109 308.364305 
L 815.545572 327.023335 
L 817.587036 328.657463 
L 819.628499 335.802044 
L 821.669963 336.832459 
L 823.711426 328.133928 
L 825.752889 326.392264 
L 827.794353 339.083811 
L 829.835816 349.118289 
L 831.87728 349.187229 
L 833.918743 348.352442 
L 835.960207 358.731606 
L 838.00167 358.601043 
L 840.043133 351.112302 
L 842.084597 347.395145 
L 844.12606 369.42927 
L 846.167524 370.441385 
L 848.208987 374.38501 
L 850.25045 363.925109 
L 852.291914 340.77046 
L 854.333377 367.405406 
L 856.374841 358.136759 
L 858.416304 365.689442 
L 860.457768 374.037559 
L 862.499231 360.928548 
L 864.540694 375.86326 
L 866.582158 363.149384 
L 868.623621 363.314843 
L 870.665085 363.337244 
L 872.706548 373.715555 
L 874.748011 371.168632 
L 876.789475 369.202749 
L 878.830938 361.261977 
L 880.872402 363.718766 
L 882.913865 367.660218 
L 884.955328 365.065938 
L 886.996792 372.883119 
L 889.038255 365.560861 
L 891.079719 372.828939 
L 893.121182 377.576546 
L 895.162646 377.64 
L 897.204109 371.013638 
L 899.245572 369.676112 
L 901.287036 369.201298 
L 903.328499 372.261256 
L 905.369963 371.762706 
L 907.411426 357.537634 
L 909.452889 368.619758 
L 911.494353 305.855353 
L 913.535816 368.092442 
L 915.57728 373.07829 
L 917.618743 363.187199 
L 919.660207 353.277379 
L 921.70167 369.458264 
L 923.743133 362.798513 
L 925.784597 348.161667 
L 927.82606 357.768344 
L 929.867524 356.780816 
L 931.908987 353.325365 
L 933.95045 363.393264 
L 935.991914 356.862687 
L 938.033377 359.0528 
L 940.074841 359.69254 
L 940.074841 221.174529 
L 940.074841 221.174529 
L 938.033377 227.152449 
L 935.991914 224.194753 
L 933.95045 228.34695 
L 931.908987 224.294536 
L 929.867524 225.682903 
L 927.82606 225.443313 
L 925.784597 225.644565 
L 923.743133 231.764426 
L 921.70167 232.196781 
L 919.660207 229.633292 
L 917.618743 230.871132 
L 915.57728 236.661622 
L 913.535816 234.001617 
L 911.494353 223.077925 
L 909.452889 236.16661 
L 907.411426 234.171959 
L 905.369963 237.83555 
L 903.328499 238.861647 
L 901.287036 238.318288 
L 899.245572 239.842829 
L 897.204109 241.882069 
L 895.162646 243.497289 
L 893.121182 244.131042 
L 891.079719 243.891794 
L 889.038255 242.19156 
L 886.996792 244.360797 
L 884.955328 242.20395 
L 882.913865 243.372109 
L 880.872402 243.20386 
L 878.830938 242.945669 
L 876.789475 246.077252 
L 874.748011 247.638182 
L 872.706548 249.831796 
L 870.665085 245.525419 
L 868.623621 246.770665 
L 866.582158 247.480223 
L 864.540694 251.756239 
L 862.499231 247.380766 
L 860.457768 252.355737 
L 858.416304 249.706468 
L 856.374841 247.665945 
L 854.333377 251.218928 
L 852.291914 243.408885 
L 850.25045 250.608783 
L 848.208987 255.371653 
L 846.167524 254.410607 
L 844.12606 254.180022 
L 842.084597 248.077764 
L 840.043133 248.766638 
L 838.00167 251.769876 
L 835.960207 252.080859 
L 833.918743 248.56592 
L 831.87728 248.728464 
L 829.835816 249.785325 
L 827.794353 244.347547 
L 825.752889 241.000073 
L 823.711426 242.235291 
L 821.669963 246.089999 
L 819.628499 245.872888 
L 817.587036 242.39439 
L 815.545572 242.009817 
L 813.504109 235.231913 
L 811.462646 243.210532 
L 809.421182 229.486156 
L 807.379719 238.523277 
L 805.338255 222.718597 
L 803.296792 240.600186 
L 801.255328 230.964104 
L 799.213865 230.104417 
L 797.172402 238.572172 
L 795.130938 230.981882 
L 793.089475 221.346547 
L 791.048011 228.70944 
L 789.006548 230.124359 
L 786.965085 229.813859 
L 784.923621 217.57862 
L 782.882158 226.603087 
L 780.840694 222.79723 
L 778.799231 221.095249 
L 776.757768 220.598682 
L 774.716304 219.355149 
L 772.674841 220.893044 
L 770.633377 215.968876 
L 768.591914 210.308382 
L 766.55045 213.619227 
L 764.508987 211.857049 
L 762.467524 206.770226 
L 760.42606 214.391849 
L 758.384597 207.852161 
L 756.343133 186.769273 
L 754.30167 202.718173 
L 752.260207 201.679588 
L 750.218743 202.076249 
L 748.17728 198.938068 
L 746.135816 201.109328 
L 744.094353 194.98203 
L 742.052889 189.797057 
L 740.011426 194.445933 
L 737.969963 187.856091 
L 735.928499 198.348724 
L 733.887036 183.98468 
L 731.845572 191.899196 
L 729.804109 183.774095 
L 727.762646 172.641776 
L 725.721182 186.698732 
L 723.679719 171.662534 
L 721.638255 172.912708 
L 719.596792 169.910057 
L 717.555328 176.143582 
L 715.513865 187.223574 
L 713.472402 187.349973 
L 711.430938 177.704878 
L 709.389475 161.034881 
L 707.348011 161.829451 
L 705.306548 160.773261 
L 703.265085 170.227276 
L 701.223621 168.456484 
L 699.182158 163.361555 
L 697.140694 168.333655 
L 695.099231 171.346243 
L 693.057768 162.970575 
L 691.016304 162.267074 
L 688.974841 159.414193 
L 686.933377 153.656022 
L 684.891914 171.246801 
L 682.85045 164.786898 
L 680.808987 149.919591 
L 678.767524 153.085583 
L 676.72606 161.538762 
L 674.684597 157.493819 
L 672.643133 152.278433 
L 670.60167 157.41613 
L 668.560207 163.919839 
L 666.518743 155.261287 
L 664.47728 149.908003 
L 662.435816 153.308111 
L 660.394353 151.260516 
L 658.352889 148.64383 
L 656.311426 142.761378 
L 654.269963 142.499178 
L 652.228499 131.414339 
L 650.187036 141.191837 
L 648.145572 136.770918 
L 646.104109 137.826953 
L 644.062646 134.581731 
L 642.021182 140.171697 
L 639.979719 132.037952 
L 637.938255 135.725824 
L 635.896792 128.318362 
L 633.855328 128.948986 
L 631.813865 121.921731 
L 629.772402 129.301214 
L 627.730938 132.161795 
L 625.689475 128.153542 
L 623.648011 126.983002 
L 621.606548 118.156119 
L 619.565085 120.212396 
L 617.523621 123.990002 
L 615.482158 115.341795 
L 613.440694 124.554465 
L 611.399231 121.130362 
L 609.357768 111.540176 
L 607.316304 115.478085 
L 605.274841 114.642143 
L 603.233377 110.945802 
L 601.191914 108.131394 
L 599.15045 112.242676 
L 597.108987 129.572074 
L 595.067524 116.861474 
L 593.02606 109.959393 
L 590.984597 111.058531 
L 588.943133 109.179618 
L 586.90167 102.890615 
L 584.860207 100.557531 
L 582.818743 96.92078 
L 580.77728 100.265381 
L 578.735816 100.145225 
L 576.694353 107.544988 
L 574.652889 107.572783 
L 572.611426 104.085086 
L 570.569963 107.580936 
L 568.528499 102.717168 
L 566.487036 104.913134 
L 564.445572 108.238136 
L 562.404109 108.279855 
L 560.362646 106.457257 
L 558.321182 110.795908 
L 556.279719 112.031953 
L 554.238255 116.159178 
L 552.196792 112.001977 
L 550.155328 108.109003 
L 548.113865 111.572146 
L 546.072402 114.377791 
L 544.030938 114.477796 
L 541.989475 117.212731 
L 539.948011 111.340226 
L 537.906548 112.770323 
L 535.865085 112.592988 
L 533.823621 114.270624 
L 531.782158 113.018028 
L 529.740694 111.123803 
L 527.699231 115.524449 
L 525.657768 118.376363 
L 523.616304 114.841169 
L 521.574841 118.248781 
L 519.533377 115.900744 
L 517.491914 117.027585 
L 515.45045 123.072293 
L 513.408987 121.397772 
L 511.367524 122.293887 
L 509.32606 124.826147 
L 507.284597 122.097403 
L 505.243133 124.163704 
L 503.20167 127.309758 
L 501.160207 127.127258 
L 499.118743 128.422956 
L 497.07728 128.272085 
L 495.035816 129.922579 
L 492.994353 131.636176 
L 490.952889 132.916615 
L 488.911426 133.398099 
L 486.869963 133.946127 
L 484.828499 129.162464 
L 482.787036 134.15854 
L 480.745572 135.305678 
L 478.704109 136.886988 
L 476.662646 135.863824 
L 474.621182 135.092166 
L 472.579719 137.587504 
L 470.538255 138.389337 
L 468.496792 139.635635 
L 466.455328 140.006842 
L 464.413865 140.349849 
L 462.372402 141.206189 
L 460.330938 141.912767 
L 458.289475 143.365529 
L 456.248011 145.110891 
L 454.206548 148.640207 
L 452.165085 149.304002 
L 450.123621 147.836274 
L 448.082158 150.485427 
L 446.040694 149.032302 
L 443.999231 149.770667 
L 441.957768 146.631452 
L 439.916304 152.522932 
L 437.874841 151.561513 
L 435.833377 151.572682 
L 433.791914 154.193671 
L 431.75045 153.384545 
L 429.708987 153.241655 
L 427.667524 151.163469 
L 425.62606 155.870047 
L 423.584597 152.368177 
L 421.543133 156.45902 
L 419.50167 158.191757 
L 417.460207 158.891235 
L 415.418743 162.241177 
L 413.37728 163.310797 
L 411.335816 163.235358 
L 409.294353 164.016955 
L 407.252889 164.495431 
L 405.211426 165.775159 
L 403.169963 163.685577 
L 401.128499 166.196315 
L 399.087036 167.43588 
L 397.045572 167.903394 
L 395.004109 168.036944 
L 392.962646 166.696025 
L 390.921182 170.628299 
L 388.879719 170.890608 
L 386.838255 171.954327 
L 384.796792 174.755648 
L 382.755328 175.403255 
L 380.713865 170.748315 
L 378.672402 171.091002 
L 376.630938 174.58066 
L 374.589475 173.842144 
L 372.548011 175.733954 
L 370.506548 176.86223 
L 368.465085 177.025903 
L 366.423621 175.705892 
L 364.382158 177.662149 
L 362.340694 180.171259 
L 360.299231 176.0919 
L 358.257768 176.555694 
L 356.216304 174.532559 
L 354.174841 178.488185 
L 352.133377 177.591434 
L 350.091914 175.293044 
L 348.05045 176.219217 
L 346.008987 178.142881 
L 343.967524 170.811784 
L 341.92606 177.331626 
L 339.884597 168.591588 
L 337.843133 166.276217 
L 335.80167 164.027897 
L 333.760207 164.999898 
L 331.718743 165.538358 
L 329.67728 164.14281 
L 327.635816 158.343293 
L 325.594353 159.653489 
L 323.552889 151.712063 
L 321.511426 138.321909 
L 319.469963 142.431077 
L 317.428499 147.504315 
L 315.387036 132.556387 
L 313.345572 134.622797 
L 311.304109 130.614188 
L 309.262646 128.300169 
L 307.221182 111.439022 
L 305.179719 108.969755 
L 303.138255 101.786246 
L 301.096792 87.772482 
L 299.055328 78.403025 
L 297.013865 87.923024 
L 294.972402 82.135455 
L 292.930938 74.207398 
L 290.889475 69.460833 
L 288.848011 63.231937 
L 286.806548 53.854206 
L 284.765085 57.489044 
L 282.723621 42.255752 
L 280.682158 34.430527 
L 278.640694 29.952563 
L 276.599231 28.176373 
L 274.557768 28.455367 
L 272.516304 25.794854 
L 270.474841 28.331259 
L 268.433377 31.848994 
L 266.391914 25.326771 
L 264.35045 24.84 
L 262.308987 31.791827 
L 260.267524 32.676959 
L 258.22606 30.344811 
L 256.184597 42.232456 
L 254.143133 33.837888 
L 252.10167 36.342407 
L 250.060207 46.268122 
L 248.018743 43.661126 
L 245.97728 47.102114 
L 243.935816 49.636953 
L 241.894353 53.783718 
L 239.852889 57.079432 
L 237.811426 60.757134 
L 235.769963 64.854423 
L 233.728499 67.339485 
L 231.687036 72.13639 
L 229.645572 73.10955 
L 227.604109 80.581189 
L 225.562646 80.459291 
L 223.521182 84.314563 
L 221.479719 88.708313 
L 219.438255 91.647781 
L 217.396792 95.657116 
L 215.355328 98.698368 
L 213.313865 102.981475 
L 211.272402 105.489586 
L 209.230938 108.695402 
L 207.189475 112.936063 
L 205.148011 116.547822 
L 203.106548 118.968788 
L 201.065085 122.650576 
L 199.023621 124.716855 
L 196.982158 128.546598 
L 194.940694 131.635217 
L 192.899231 134.328806 
L 190.857768 137.746342 
L 188.816304 140.461955 
L 186.774841 142.735472 
L 184.733377 145.307191 
L 182.691914 146.574006 
L 180.65045 149.489058 
L 178.608987 151.300754 
L 176.567524 152.763726 
L 174.52606 154.675478 
L 172.484597 155.522984 
L 170.443133 157.155302 
L 168.40167 158.833075 
L 166.360207 160.763723 
L 164.318743 162.073384 
L 162.27728 163.364388 
L 160.235816 164.725357 
L 158.194353 166.24583 
L 156.152889 167.743687 
L 154.111426 168.883865 
L 152.069963 170.160782 
L 150.028499 171.107204 
L 147.987036 172.677309 
L 145.945572 173.56228 
L 143.904109 174.715621 
L 141.862646 176.382557 
L 139.821182 177.288015 
L 137.779719 176.981404 
L 135.738255 178.210987 
L 133.696792 178.495194 
L 131.655328 179.653152 
L 129.613865 181.180148 
L 127.572402 181.61921 
L 125.530938 182.006449 
L 123.489475 181.437481 
L 121.448011 181.876555 
L 119.406548 181.871476 
L 117.365085 181.939173 
L 115.323621 182.883026 
L 113.282158 183.192319 
L 111.240694 183.861185 
L 109.199231 182.446519 
L 107.157768 182.566548 
L 105.116304 180.743103 
L 103.074841 182.090676 
L 101.033377 181.697055 
L 98.991914 182.547574 
L 96.95045 178.991825 
L 94.908987 181.992281 
L 92.867524 181.169699 
L 90.82606 178.589064 
L 88.784597 177.568246 
L 86.743133 178.886811 
L 84.70167 181.569941 
L 82.660207 179.788607 
L 80.618743 179.190611 
L 78.57728 175.524302 
L 76.535816 175.033309 
L 74.494353 175.478414 
L 72.452889 176.990106 
L 70.411426 175.940877 
L 68.369963 175.126573 
L 66.328499 174.999081 
L 64.287036 175.789236 
L 62.245572 175.119274 
L 60.204109 175.530067 
L 58.162646 176.489186 
L 56.121182 175.224186 
L 54.079719 176.69753 
L 52.038255 176.674698 
L 49.996792 176.587131 
L 47.955328 177.454899 
L 45.913865 177.449436 
L 43.872402 178.467144 
L 41.830938 179.613751 
L 39.789475 179.391752 
L 37.748011 178.565127 
L 35.706548 177.924071 
L 33.665085 180.685612 
L 31.623621 179.955487 
L 29.582158 181.751975 
L 27.540694 181.55739 
L 25.499231 180.609213 
L 23.457768 182.517893 
L 21.416304 180.371632 
L 19.374841 180.276674 
L 17.333377 182.626896 
L 15.291914 180.625468 
L 13.25045 182.836448 
L 11.208987 183.699765 
L 9.167524 181.33984 
L 7.12606 174.707024 
L 5.084597 178.630306 
L 3.043133 176.519636 
L 1.00167 166.862057 
L -1.039793 174.845988 
L -3.081257 176.329712 
L -5.12272 167.342215 
L -7.164184 165.005406 
L -9.205647 169.357835 
L -11.247111 159.476235 
L -13.288574 141.251175 
L -15.330037 160.822227 
L -17.371501 168.145287 
L -19.412964 171.803958 
L -21.454428 147.332719 
L -23.495891 148.151782 
L -25.537354 135.763939 
L -27.578818 126.294082 
L -29.620281 145.094897 
L -31.661745 136.815864 
L -33.703208 119.777542 
L -35.744672 108.005978 
L -37.786135 108.513845 
L -39.827598 110.337195 
L -41.869062 107.414353 
L -43.910525 106.123295 
L -45.951989 112.482645 
L -47.993452 111.412525 
L -50.034915 107.012953 
L -52.076379 109.45798 
L -54.117842 107.435509 
L -56.159306 106.382167 
L -58.200769 106.581389 
L -60.242232 108.81138 
L -62.283696 110.158663 
L -64.325159 110.957441 
L -66.366623 113.079793 
L -68.408086 113.986192 
L -70.44955 115.600785 
L -72.491013 118.191024 
L -74.532476 120.442303 
L -76.57394 121.76805 
L -78.615403 123.545222 
L -80.656867 125.519182 
L -82.69833 126.857994 
L -84.739793 128.953265 
L -86.781257 131.488485 
L -88.82272 132.907944 
L -90.864184 133.883207 
L -92.905647 135.449656 
L -94.947111 137.029548 
L -96.988574 138.468424 
L -99.030037 139.82515 
L -101.071501 141.129135 
L -103.112964 142.969851 
L -105.154428 143.870914 
L -107.195891 145.177526 
L -109.237354 146.550156 
L -111.278818 147.794891 
L -113.320281 148.976309 
L -115.361745 149.956825 
L -117.403208 151.014419 
L -119.444672 152.43762 
L -121.486135 153.319232 
L -123.527598 154.432264 
L -125.569062 155.464528 
L -127.610525 156.506973 
L -129.651989 157.577162 
L -131.693452 158.664921 
L -133.734915 159.573215 
L -135.776379 160.655599 
L -137.817842 161.601798 
L -139.859306 162.591144 
L -141.900769 163.503753 
L -143.942232 164.462452 
L -145.983696 165.343306 
L -148.025159 166.292092 
L -150.066623 167.31985 
L -152.108086 168.095447 
L -154.14955 169.075168 
L -156.191013 169.916439 
L -158.232476 170.896306 
L -160.27394 171.606107 
L -162.315403 172.517109 
L -164.356867 173.38501 
L -166.39833 174.209724 
L -168.439793 175.037302 
L -170.481257 175.827091 
L -172.52272 176.736363 
L -174.564184 177.552302 
L -176.605647 178.219931 
L -178.647111 179.016933 
L -180.688574 179.812269 
L -182.730037 180.603218 
L -184.771501 181.364093 
L -186.812964 182.070566 
L -188.854428 182.84995 
L -190.895891 183.612235 
L -192.937354 184.377565 
L -194.978818 185.138839 
L -197.020281 185.920312 
L -199.061745 186.732828 
L -201.103208 187.425735 
L -203.144672 188.22365 
L -205.186135 189.00466 
L -207.227598 189.75159 
L -209.269062 190.522286 
L -211.310525 191.308678 
L -213.351989 192.069137 
L -215.393452 192.868175 
L -217.434915 193.591594 
L -219.476379 194.330641 
L -221.517842 195.113624 
L -223.559306 195.866768 
L -225.600769 196.569133 
L -227.642232 197.334199 
L -229.683696 198.017319 
L -231.725159 198.750448 
L -233.766623 199.534347 
L -235.808086 200.197688 
L -237.84955 200.945942 
L -239.891013 201.627434 
L -241.932476 202.391797 
L -243.97394 203.054022 
L -246.015403 203.825651 
L -248.056867 204.478281 
L -250.09833 205.201479 
L -252.139793 205.906972 
L -254.181257 206.625798 
L -256.22272 207.317519 
L -258.264184 208.016669 
L -260.305647 208.71913 
L -262.347111 209.426537 
L -264.388574 210.079293 
L -266.430037 210.699548 
L -268.471501 211.322565 
L -270.512964 211.951107 
L -272.554428 212.556633 
L -274.595891 213.175779 
L -276.637354 213.787557 
L -278.678818 214.370434 
L -280.720281 214.953817 
L -282.761745 215.535867 
L -284.803208 216.088867 
L -286.844672 216.633948 
L -288.886135 217.207006 
L -290.927598 217.733928 
L -292.969062 218.227086 
L -295.010525 218.762159 
L -297.051989 219.258476 
L -299.093452 219.696989 
L -301.134915 220.159496 
L -303.176379 220.580677 
L -305.217842 221.031033 
L -307.259306 221.415651 
L -309.300769 221.808234 
L -311.342232 222.17462 
L -313.383696 222.536497 
L -315.425159 222.860391 
L -317.466623 223.14453 
L -319.508086 223.433766 
L -321.54955 223.707936 
L -323.591013 223.952757 
L -325.632476 224.216906 
L -327.67394 224.438398 
L -329.715403 224.62732 
L -331.756867 224.853121 
L -333.79833 225.041447 
L -335.839793 225.203019 
L -337.881257 225.382241 
L -339.92272 225.556459 
L -341.964184 225.697585 
L -344.005647 225.853402 
L -346.047111 225.974454 
L -348.088574 226.120965 
L -350.130037 226.238173 
L -352.171501 226.363497 
L -354.212964 226.495553 
L -356.254428 226.60109 
L -358.295891 226.712814 
L -360.337354 226.856584 
L -362.378818 226.967244 
L -364.420281 227.092341 
L -366.461745 227.192164 
L -368.503208 227.323743 
L -370.544672 227.438307 
L -372.586135 227.55849 
L -374.627598 227.657231 
L -376.669062 227.742564 
L -378.710525 227.848175 
L -380.751989 227.968562 
L -382.793452 228.084582 
L -384.834915 228.177623 
L -386.876379 228.25997 
L -388.917842 228.374268 
L -390.959306 228.464883 
L -393.000769 228.577311 
z
" clip-path="url(#pbd0274528a)" style="fill: #008000; fill-opacity: 0.3; stroke: #008000; stroke-opacity: 0.3"/>
   </g>
   <g id="matplotlib.axis_1">
    <g id="xtick_1">
     <g id="line2d_1">
      <defs>
       <path id="m4ba74d2e73" d="M 0 0 
L 0 3.5 
" style="stroke: #000000; stroke-width: 0.8"/>
      </defs>
      <g>
       <use xlink:href="#m4ba74d2e73" x="103.074841" y="395.28" style="stroke: #000000; stroke-width: 0.8"/>
      </g>
     </g>
     <g id="text_1">
      <!-- 2022-03-01 -->
      <g transform="translate(17.945813 495.213718) rotate(-45) scale(0.2 -0.2)">
       <defs>
        <path id="DejaVuSans-32" d="M 1228 531 
L 3431 531 
L 3431 0 
L 469 0 
L 469 531 
Q 828 903 1448 1529 
Q 2069 2156 2228 2338 
Q 2531 2678 2651 2914 
Q 2772 3150 2772 3378 
Q 2772 3750 2511 3984 
Q 2250 4219 1831 4219 
Q 1534 4219 1204 4116 
Q 875 4013 500 3803 
L 500 4441 
Q 881 4594 1212 4672 
Q 1544 4750 1819 4750 
Q 2544 4750 2975 4387 
Q 3406 4025 3406 3419 
Q 3406 3131 3298 2873 
Q 3191 2616 2906 2266 
Q 2828 2175 2409 1742 
Q 1991 1309 1228 531 
z
" transform="scale(0.015625)"/>
        <path id="DejaVuSans-30" d="M 2034 4250 
Q 1547 4250 1301 3770 
Q 1056 3291 1056 2328 
Q 1056 1369 1301 889 
Q 1547 409 2034 409 
Q 2525 409 2770 889 
Q 3016 1369 3016 2328 
Q 3016 3291 2770 3770 
Q 2525 4250 2034 4250 
z
M 2034 4750 
Q 2819 4750 3233 4129 
Q 3647 3509 3647 2328 
Q 3647 1150 3233 529 
Q 2819 -91 2034 -91 
Q 1250 -91 836 529 
Q 422 1150 422 2328 
Q 422 3509 836 4129 
Q 1250 4750 2034 4750 
z
" transform="scale(0.015625)"/>
        <path id="DejaVuSans-2d" d="M 313 2009 
L 1997 2009 
L 1997 1497 
L 313 1497 
L 313 2009 
z
" transform="scale(0.015625)"/>
        <path id="DejaVuSans-33" d="M 2597 2516 
Q 3050 2419 3304 2112 
Q 3559 1806 3559 1356 
Q 3559 666 3084 287 
Q 2609 -91 1734 -91 
Q 1441 -91 1130 -33 
Q 819 25 488 141 
L 488 750 
Q 750 597 1062 519 
Q 1375 441 1716 441 
Q 2309 441 2620 675 
Q 2931 909 2931 1356 
Q 2931 1769 2642 2001 
Q 2353 2234 1838 2234 
L 1294 2234 
L 1294 2753 
L 1863 2753 
Q 2328 2753 2575 2939 
Q 2822 3125 2822 3475 
Q 2822 3834 2567 4026 
Q 2313 4219 1838 4219 
Q 1578 4219 1281 4162 
Q 984 4106 628 3988 
L 628 4550 
Q 988 4650 1302 4700 
Q 1616 4750 1894 4750 
Q 2613 4750 3031 4423 
Q 3450 4097 3450 3541 
Q 3450 3153 3228 2886 
Q 3006 2619 2597 2516 
z
" transform="scale(0.015625)"/>
        <path id="DejaVuSans-31" d="M 794 531 
L 1825 531 
L 1825 4091 
L 703 3866 
L 703 4441 
L 1819 4666 
L 2450 4666 
L 2450 531 
L 3481 531 
L 3481 0 
L 794 0 
L 794 531 
z
" transform="scale(0.015625)"/>
       </defs>
       <use xlink:href="#DejaVuSans-32"/>
       <use xlink:href="#DejaVuSans-30" x="63.623047"/>
       <use xlink:href="#DejaVuSans-32" x="127.246094"/>
       <use xlink:href="#DejaVuSans-32" x="190.869141"/>
       <use xlink:href="#DejaVuSans-2d" x="254.492188"/>
       <use xlink:href="#DejaVuSans-30" x="290.576172"/>
       <use xlink:href="#DejaVuSans-33" x="354.199219"/>
       <use xlink:href="#DejaVuSans-2d" x="417.822266"/>
       <use xlink:href="#DejaVuSans-30" x="453.90625"/>
       <use xlink:href="#DejaVuSans-31" x="517.529297"/>
      </g>
     </g>
    </g>
    <g id="xtick_2">
     <g id="line2d_2">
      <g>
       <use xlink:href="#m4ba74d2e73" x="160.235816" y="395.28" style="stroke: #000000; stroke-width: 0.8"/>
      </g>
     </g>
     <g id="text_2">
      <!-- 2022-03-29 -->
      <g transform="translate(75.106789 495.213718) rotate(-45) scale(0.2 -0.2)">
       <defs>
        <path id="DejaVuSans-39" d="M 703 97 
L 703 672 
Q 941 559 1184 500 
Q 1428 441 1663 441 
Q 2288 441 2617 861 
Q 2947 1281 2994 2138 
Q 2813 1869 2534 1725 
Q 2256 1581 1919 1581 
Q 1219 1581 811 2004 
Q 403 2428 403 3163 
Q 403 3881 828 4315 
Q 1253 4750 1959 4750 
Q 2769 4750 3195 4129 
Q 3622 3509 3622 2328 
Q 3622 1225 3098 567 
Q 2575 -91 1691 -91 
Q 1453 -91 1209 -44 
Q 966 3 703 97 
z
M 1959 2075 
Q 2384 2075 2632 2365 
Q 2881 2656 2881 3163 
Q 2881 3666 2632 3958 
Q 2384 4250 1959 4250 
Q 1534 4250 1286 3958 
Q 1038 3666 1038 3163 
Q 1038 2656 1286 2365 
Q 1534 2075 1959 2075 
z
" transform="scale(0.015625)"/>
       </defs>
       <use xlink:href="#DejaVuSans-32"/>
       <use xlink:href="#DejaVuSans-30" x="63.623047"/>
       <use xlink:href="#DejaVuSans-32" x="127.246094"/>
       <use xlink:href="#DejaVuSans-32" x="190.869141"/>
       <use xlink:href="#DejaVuSans-2d" x="254.492188"/>
       <use xlink:href="#DejaVuSans-30" x="290.576172"/>
       <use xlink:href="#DejaVuSans-33" x="354.199219"/>
       <use xlink:href="#DejaVuSans-2d" x="417.822266"/>
       <use xlink:href="#DejaVuSans-32" x="453.90625"/>
       <use xlink:href="#DejaVuSans-39" x="517.529297"/>
      </g>
     </g>
    </g>
    <g id="xtick_3">
     <g id="line2d_3">
      <g>
       <use xlink:href="#m4ba74d2e73" x="217.396792" y="395.28" style="stroke: #000000; stroke-width: 0.8"/>
      </g>
     </g>
     <g id="text_3">
      <!-- 2022-04-26 -->
      <g transform="translate(132.267765 495.213718) rotate(-45) scale(0.2 -0.2)">
       <defs>
        <path id="DejaVuSans-34" d="M 2419 4116 
L 825 1625 
L 2419 1625 
L 2419 4116 
z
M 2253 4666 
L 3047 4666 
L 3047 1625 
L 3713 1625 
L 3713 1100 
L 3047 1100 
L 3047 0 
L 2419 0 
L 2419 1100 
L 313 1100 
L 313 1709 
L 2253 4666 
z
" transform="scale(0.015625)"/>
        <path id="DejaVuSans-36" d="M 2113 2584 
Q 1688 2584 1439 2293 
Q 1191 2003 1191 1497 
Q 1191 994 1439 701 
Q 1688 409 2113 409 
Q 2538 409 2786 701 
Q 3034 994 3034 1497 
Q 3034 2003 2786 2293 
Q 2538 2584 2113 2584 
z
M 3366 4563 
L 3366 3988 
Q 3128 4100 2886 4159 
Q 2644 4219 2406 4219 
Q 1781 4219 1451 3797 
Q 1122 3375 1075 2522 
Q 1259 2794 1537 2939 
Q 1816 3084 2150 3084 
Q 2853 3084 3261 2657 
Q 3669 2231 3669 1497 
Q 3669 778 3244 343 
Q 2819 -91 2113 -91 
Q 1303 -91 875 529 
Q 447 1150 447 2328 
Q 447 3434 972 4092 
Q 1497 4750 2381 4750 
Q 2619 4750 2861 4703 
Q 3103 4656 3366 4563 
z
" transform="scale(0.015625)"/>
       </defs>
       <use xlink:href="#DejaVuSans-32"/>
       <use xlink:href="#DejaVuSans-30" x="63.623047"/>
       <use xlink:href="#DejaVuSans-32" x="127.246094"/>
       <use xlink:href="#DejaVuSans-32" x="190.869141"/>
       <use xlink:href="#DejaVuSans-2d" x="254.492188"/>
       <use xlink:href="#DejaVuSans-30" x="290.576172"/>
       <use xlink:href="#DejaVuSans-34" x="354.199219"/>
       <use xlink:href="#DejaVuSans-2d" x="417.822266"/>
       <use xlink:href="#DejaVuSans-32" x="453.90625"/>
       <use xlink:href="#DejaVuSans-36" x="517.529297"/>
      </g>
     </g>
    </g>
    <g id="xtick_4">
     <g id="line2d_4">
      <g>
       <use xlink:href="#m4ba74d2e73" x="274.557768" y="395.28" style="stroke: #000000; stroke-width: 0.8"/>
      </g>
     </g>
     <g id="text_4">
      <!-- 2022-05-24 -->
      <g transform="translate(189.42874 495.213718) rotate(-45) scale(0.2 -0.2)">
       <defs>
        <path id="DejaVuSans-35" d="M 691 4666 
L 3169 4666 
L 3169 4134 
L 1269 4134 
L 1269 2991 
Q 1406 3038 1543 3061 
Q 1681 3084 1819 3084 
Q 2600 3084 3056 2656 
Q 3513 2228 3513 1497 
Q 3513 744 3044 326 
Q 2575 -91 1722 -91 
Q 1428 -91 1123 -41 
Q 819 9 494 109 
L 494 744 
Q 775 591 1075 516 
Q 1375 441 1709 441 
Q 2250 441 2565 725 
Q 2881 1009 2881 1497 
Q 2881 1984 2565 2268 
Q 2250 2553 1709 2553 
Q 1456 2553 1204 2497 
Q 953 2441 691 2322 
L 691 4666 
z
" transform="scale(0.015625)"/>
       </defs>
       <use xlink:href="#DejaVuSans-32"/>
       <use xlink:href="#DejaVuSans-30" x="63.623047"/>
       <use xlink:href="#DejaVuSans-32" x="127.246094"/>
       <use xlink:href="#DejaVuSans-32" x="190.869141"/>
       <use xlink:href="#DejaVuSans-2d" x="254.492188"/>
       <use xlink:href="#DejaVuSans-30" x="290.576172"/>
       <use xlink:href="#DejaVuSans-35" x="354.199219"/>
       <use xlink:href="#DejaVuSans-2d" x="417.822266"/>
       <use xlink:href="#DejaVuSans-32" x="453.90625"/>
       <use xlink:href="#DejaVuSans-34" x="517.529297"/>
      </g>
     </g>
    </g>
    <g id="xtick_5">
     <g id="line2d_5">
      <g>
       <use xlink:href="#m4ba74d2e73" x="331.718743" y="395.28" style="stroke: #000000; stroke-width: 0.8"/>
      </g>
     </g>
     <g id="text_5">
      <!-- 2022-06-21 -->
      <g transform="translate(246.589716 495.213718) rotate(-45) scale(0.2 -0.2)">
       <use xlink:href="#DejaVuSans-32"/>
       <use xlink:href="#DejaVuSans-30" x="63.623047"/>
       <use xlink:href="#DejaVuSans-32" x="127.246094"/>
       <use xlink:href="#DejaVuSans-32" x="190.869141"/>
       <use xlink:href="#DejaVuSans-2d" x="254.492188"/>
       <use xlink:href="#DejaVuSans-30" x="290.576172"/>
       <use xlink:href="#DejaVuSans-36" x="354.199219"/>
       <use xlink:href="#DejaVuSans-2d" x="417.822266"/>
       <use xlink:href="#DejaVuSans-32" x="453.90625"/>
       <use xlink:href="#DejaVuSans-31" x="517.529297"/>
      </g>
     </g>
    </g>
    <g id="xtick_6">
     <g id="line2d_6">
      <g>
       <use xlink:href="#m4ba74d2e73" x="388.879719" y="395.28" style="stroke: #000000; stroke-width: 0.8"/>
      </g>
     </g>
     <g id="text_6">
      <!-- 2022-07-19 -->
      <g transform="translate(303.750691 495.213718) rotate(-45) scale(0.2 -0.2)">
       <defs>
        <path id="DejaVuSans-37" d="M 525 4666 
L 3525 4666 
L 3525 4397 
L 1831 0 
L 1172 0 
L 2766 4134 
L 525 4134 
L 525 4666 
z
" transform="scale(0.015625)"/>
       </defs>
       <use xlink:href="#DejaVuSans-32"/>
       <use xlink:href="#DejaVuSans-30" x="63.623047"/>
       <use xlink:href="#DejaVuSans-32" x="127.246094"/>
       <use xlink:href="#DejaVuSans-32" x="190.869141"/>
       <use xlink:href="#DejaVuSans-2d" x="254.492188"/>
       <use xlink:href="#DejaVuSans-30" x="290.576172"/>
       <use xlink:href="#DejaVuSans-37" x="354.199219"/>
       <use xlink:href="#DejaVuSans-2d" x="417.822266"/>
       <use xlink:href="#DejaVuSans-31" x="453.90625"/>
       <use xlink:href="#DejaVuSans-39" x="517.529297"/>
      </g>
     </g>
    </g>
    <g id="xtick_7">
     <g id="line2d_7">
      <g>
       <use xlink:href="#m4ba74d2e73" x="446.040694" y="395.28" style="stroke: #000000; stroke-width: 0.8"/>
      </g>
     </g>
     <g id="text_7">
      <!-- 2022-08-16 -->
      <g transform="translate(360.911667 495.213718) rotate(-45) scale(0.2 -0.2)">
       <defs>
        <path id="DejaVuSans-38" d="M 2034 2216 
Q 1584 2216 1326 1975 
Q 1069 1734 1069 1313 
Q 1069 891 1326 650 
Q 1584 409 2034 409 
Q 2484 409 2743 651 
Q 3003 894 3003 1313 
Q 3003 1734 2745 1975 
Q 2488 2216 2034 2216 
z
M 1403 2484 
Q 997 2584 770 2862 
Q 544 3141 544 3541 
Q 544 4100 942 4425 
Q 1341 4750 2034 4750 
Q 2731 4750 3128 4425 
Q 3525 4100 3525 3541 
Q 3525 3141 3298 2862 
Q 3072 2584 2669 2484 
Q 3125 2378 3379 2068 
Q 3634 1759 3634 1313 
Q 3634 634 3220 271 
Q 2806 -91 2034 -91 
Q 1263 -91 848 271 
Q 434 634 434 1313 
Q 434 1759 690 2068 
Q 947 2378 1403 2484 
z
M 1172 3481 
Q 1172 3119 1398 2916 
Q 1625 2713 2034 2713 
Q 2441 2713 2670 2916 
Q 2900 3119 2900 3481 
Q 2900 3844 2670 4047 
Q 2441 4250 2034 4250 
Q 1625 4250 1398 4047 
Q 1172 3844 1172 3481 
z
" transform="scale(0.015625)"/>
       </defs>
       <use xlink:href="#DejaVuSans-32"/>
       <use xlink:href="#DejaVuSans-30" x="63.623047"/>
       <use xlink:href="#DejaVuSans-32" x="127.246094"/>
       <use xlink:href="#DejaVuSans-32" x="190.869141"/>
       <use xlink:href="#DejaVuSans-2d" x="254.492188"/>
       <use xlink:href="#DejaVuSans-30" x="290.576172"/>
       <use xlink:href="#DejaVuSans-38" x="354.199219"/>
       <use xlink:href="#DejaVuSans-2d" x="417.822266"/>
       <use xlink:href="#DejaVuSans-31" x="453.90625"/>
       <use xlink:href="#DejaVuSans-36" x="517.529297"/>
      </g>
     </g>
    </g>
    <g id="xtick_8">
     <g id="line2d_8">
      <g>
       <use xlink:href="#m4ba74d2e73" x="503.20167" y="395.28" style="stroke: #000000; stroke-width: 0.8"/>
      </g>
     </g>
     <g id="text_8">
      <!-- 2022-09-13 -->
      <g transform="translate(418.072643 495.213718) rotate(-45) scale(0.2 -0.2)">
       <use xlink:href="#DejaVuSans-32"/>
       <use xlink:href="#DejaVuSans-30" x="63.623047"/>
       <use xlink:href="#DejaVuSans-32" x="127.246094"/>
       <use xlink:href="#DejaVuSans-32" x="190.869141"/>
       <use xlink:href="#DejaVuSans-2d" x="254.492188"/>
       <use xlink:href="#DejaVuSans-30" x="290.576172"/>
       <use xlink:href="#DejaVuSans-39" x="354.199219"/>
       <use xlink:href="#DejaVuSans-2d" x="417.822266"/>
       <use xlink:href="#DejaVuSans-31" x="453.90625"/>
       <use xlink:href="#DejaVuSans-33" x="517.529297"/>
      </g>
     </g>
    </g>
    <g id="xtick_9">
     <g id="line2d_9">
      <g>
       <use xlink:href="#m4ba74d2e73" x="560.362646" y="395.28" style="stroke: #000000; stroke-width: 0.8"/>
      </g>
     </g>
     <g id="text_9">
      <!-- 2022-10-11 -->
      <g transform="translate(475.233618 495.213718) rotate(-45) scale(0.2 -0.2)">
       <use xlink:href="#DejaVuSans-32"/>
       <use xlink:href="#DejaVuSans-30" x="63.623047"/>
       <use xlink:href="#DejaVuSans-32" x="127.246094"/>
       <use xlink:href="#DejaVuSans-32" x="190.869141"/>
       <use xlink:href="#DejaVuSans-2d" x="254.492188"/>
       <use xlink:href="#DejaVuSans-31" x="290.576172"/>
       <use xlink:href="#DejaVuSans-30" x="354.199219"/>
       <use xlink:href="#DejaVuSans-2d" x="417.822266"/>
       <use xlink:href="#DejaVuSans-31" x="453.90625"/>
       <use xlink:href="#DejaVuSans-31" x="517.529297"/>
      </g>
     </g>
    </g>
    <g id="xtick_10">
     <g id="line2d_10">
      <g>
       <use xlink:href="#m4ba74d2e73" x="617.523621" y="395.28" style="stroke: #000000; stroke-width: 0.8"/>
      </g>
     </g>
     <g id="text_10">
      <!-- 2022-11-08 -->
      <g transform="translate(532.394594 495.213718) rotate(-45) scale(0.2 -0.2)">
       <use xlink:href="#DejaVuSans-32"/>
       <use xlink:href="#DejaVuSans-30" x="63.623047"/>
       <use xlink:href="#DejaVuSans-32" x="127.246094"/>
       <use xlink:href="#DejaVuSans-32" x="190.869141"/>
       <use xlink:href="#DejaVuSans-2d" x="254.492188"/>
       <use xlink:href="#DejaVuSans-31" x="290.576172"/>
       <use xlink:href="#DejaVuSans-31" x="354.199219"/>
       <use xlink:href="#DejaVuSans-2d" x="417.822266"/>
       <use xlink:href="#DejaVuSans-30" x="453.90625"/>
       <use xlink:href="#DejaVuSans-38" x="517.529297"/>
      </g>
     </g>
    </g>
    <g id="xtick_11">
     <g id="line2d_11">
      <g>
       <use xlink:href="#m4ba74d2e73" x="674.684597" y="395.28" style="stroke: #000000; stroke-width: 0.8"/>
      </g>
     </g>
     <g id="text_11">
      <!-- 2022-12-06 -->
      <g transform="translate(589.555569 495.213718) rotate(-45) scale(0.2 -0.2)">
       <use xlink:href="#DejaVuSans-32"/>
       <use xlink:href="#DejaVuSans-30" x="63.623047"/>
       <use xlink:href="#DejaVuSans-32" x="127.246094"/>
       <use xlink:href="#DejaVuSans-32" x="190.869141"/>
       <use xlink:href="#DejaVuSans-2d" x="254.492188"/>
       <use xlink:href="#DejaVuSans-31" x="290.576172"/>
       <use xlink:href="#DejaVuSans-32" x="354.199219"/>
       <use xlink:href="#DejaVuSans-2d" x="417.822266"/>
       <use xlink:href="#DejaVuSans-30" x="453.90625"/>
       <use xlink:href="#DejaVuSans-36" x="517.529297"/>
      </g>
     </g>
    </g>
    <g id="xtick_12">
     <g id="line2d_12">
      <g>
       <use xlink:href="#m4ba74d2e73" x="731.845572" y="395.28" style="stroke: #000000; stroke-width: 0.8"/>
      </g>
     </g>
     <g id="text_12">
      <!-- 2023-01-03 -->
      <g transform="translate(646.716545 495.213718) rotate(-45) scale(0.2 -0.2)">
       <use xlink:href="#DejaVuSans-32"/>
       <use xlink:href="#DejaVuSans-30" x="63.623047"/>
       <use xlink:href="#DejaVuSans-32" x="127.246094"/>
       <use xlink:href="#DejaVuSans-33" x="190.869141"/>
       <use xlink:href="#DejaVuSans-2d" x="254.492188"/>
       <use xlink:href="#DejaVuSans-30" x="290.576172"/>
       <use xlink:href="#DejaVuSans-31" x="354.199219"/>
       <use xlink:href="#DejaVuSans-2d" x="417.822266"/>
       <use xlink:href="#DejaVuSans-30" x="453.90625"/>
       <use xlink:href="#DejaVuSans-33" x="517.529297"/>
      </g>
     </g>
    </g>
    <g id="xtick_13">
     <g id="line2d_13">
      <g>
       <use xlink:href="#m4ba74d2e73" x="789.006548" y="395.28" style="stroke: #000000; stroke-width: 0.8"/>
      </g>
     </g>
     <g id="text_13">
      <!-- 2023-01-31 -->
      <g transform="translate(703.877521 495.213718) rotate(-45) scale(0.2 -0.2)">
       <use xlink:href="#DejaVuSans-32"/>
       <use xlink:href="#DejaVuSans-30" x="63.623047"/>
       <use xlink:href="#DejaVuSans-32" x="127.246094"/>
       <use xlink:href="#DejaVuSans-33" x="190.869141"/>
       <use xlink:href="#DejaVuSans-2d" x="254.492188"/>
       <use xlink:href="#DejaVuSans-30" x="290.576172"/>
       <use xlink:href="#DejaVuSans-31" x="354.199219"/>
       <use xlink:href="#DejaVuSans-2d" x="417.822266"/>
       <use xlink:href="#DejaVuSans-33" x="453.90625"/>
       <use xlink:href="#DejaVuSans-31" x="517.529297"/>
      </g>
     </g>
    </g>
    <g id="xtick_14">
     <g id="line2d_14">
      <g>
       <use xlink:href="#m4ba74d2e73" x="846.167524" y="395.28" style="stroke: #000000; stroke-width: 0.8"/>
      </g>
     </g>
     <g id="text_14">
      <!-- 2023-02-28 -->
      <g transform="translate(761.038496 495.213718) rotate(-45) scale(0.2 -0.2)">
       <use xlink:href="#DejaVuSans-32"/>
       <use xlink:href="#DejaVuSans-30" x="63.623047"/>
       <use xlink:href="#DejaVuSans-32" x="127.246094"/>
       <use xlink:href="#DejaVuSans-33" x="190.869141"/>
       <use xlink:href="#DejaVuSans-2d" x="254.492188"/>
       <use xlink:href="#DejaVuSans-30" x="290.576172"/>
       <use xlink:href="#DejaVuSans-32" x="354.199219"/>
       <use xlink:href="#DejaVuSans-2d" x="417.822266"/>
       <use xlink:href="#DejaVuSans-32" x="453.90625"/>
       <use xlink:href="#DejaVuSans-38" x="517.529297"/>
      </g>
     </g>
    </g>
    <g id="xtick_15">
     <g id="line2d_15">
      <g>
       <use xlink:href="#m4ba74d2e73" x="903.328499" y="395.28" style="stroke: #000000; stroke-width: 0.8"/>
      </g>
     </g>
     <g id="text_15">
      <!-- 2023-03-28 -->
      <g transform="translate(818.199472 495.213718) rotate(-45) scale(0.2 -0.2)">
       <use xlink:href="#DejaVuSans-32"/>
       <use xlink:href="#DejaVuSans-30" x="63.623047"/>
       <use xlink:href="#DejaVuSans-32" x="127.246094"/>
       <use xlink:href="#DejaVuSans-33" x="190.869141"/>
       <use xlink:href="#DejaVuSans-2d" x="254.492188"/>
       <use xlink:href="#DejaVuSans-30" x="290.576172"/>
       <use xlink:href="#DejaVuSans-33" x="354.199219"/>
       <use xlink:href="#DejaVuSans-2d" x="417.822266"/>
       <use xlink:href="#DejaVuSans-32" x="453.90625"/>
       <use xlink:href="#DejaVuSans-38" x="517.529297"/>
      </g>
     </g>
    </g>
    <g id="xtick_16">
     <g id="line2d_16">
      <g>
       <use xlink:href="#m4ba74d2e73" x="940.074841" y="395.28" style="stroke: #000000; stroke-width: 0.8"/>
      </g>
     </g>
     <g id="text_16">
      <!-- 2023-04-15 -->
      <g transform="translate(854.945813 495.213718) rotate(-45) scale(0.2 -0.2)">
       <use xlink:href="#DejaVuSans-32"/>
       <use xlink:href="#DejaVuSans-30" x="63.623047"/>
       <use xlink:href="#DejaVuSans-32" x="127.246094"/>
       <use xlink:href="#DejaVuSans-33" x="190.869141"/>
       <use xlink:href="#DejaVuSans-2d" x="254.492188"/>
       <use xlink:href="#DejaVuSans-30" x="290.576172"/>
       <use xlink:href="#DejaVuSans-34" x="354.199219"/>
       <use xlink:href="#DejaVuSans-2d" x="417.822266"/>
       <use xlink:href="#DejaVuSans-31" x="453.90625"/>
       <use xlink:href="#DejaVuSans-35" x="517.529297"/>
      </g>
     </g>
    </g>
   </g>
   <g id="matplotlib.axis_2">
    <g id="ytick_1">
     <g id="line2d_17">
      <defs>
       <path id="m1518551574" d="M 0 0 
L -3.5 0 
" style="stroke: #000000; stroke-width: 0.8"/>
      </defs>
      <g>
       <use xlink:href="#m1518551574" x="103.074841" y="314.425968" style="stroke: #000000; stroke-width: 0.8"/>
      </g>
     </g>
     <g id="text_17">
      <!-- 0.05 -->
      <g transform="translate(34.784216 322.024405) scale(0.2 -0.2)">
       <defs>
        <path id="DejaVuSans-2212" d="M 678 2272 
L 4684 2272 
L 4684 1741 
L 678 1741 
L 678 2272 
z
" transform="scale(0.015625)"/>
        <path id="DejaVuSans-2e" d="M 684 794 
L 1344 794 
L 1344 0 
L 684 0 
L 684 794 
z
" transform="scale(0.015625)"/>
       </defs>
       <use xlink:href="#DejaVuSans-2212"/>
       <use xlink:href="#DejaVuSans-30" x="83.789062"/>
       <use xlink:href="#DejaVuSans-2e" x="147.412109"/>
       <use xlink:href="#DejaVuSans-30" x="179.199219"/>
       <use xlink:href="#DejaVuSans-35" x="242.822266"/>
      </g>
     </g>
    </g>
    <g id="ytick_2">
     <g id="line2d_18">
      <g>
       <use xlink:href="#m1518551574" x="103.074841" y="228.686067" style="stroke: #000000; stroke-width: 0.8"/>
      </g>
     </g>
     <g id="text_18">
      <!-- 0.00 -->
      <g transform="translate(51.543591 236.284504) scale(0.2 -0.2)">
       <use xlink:href="#DejaVuSans-30"/>
       <use xlink:href="#DejaVuSans-2e" x="63.623047"/>
       <use xlink:href="#DejaVuSans-30" x="95.410156"/>
       <use xlink:href="#DejaVuSans-30" x="159.033203"/>
      </g>
     </g>
    </g>
    <g id="ytick_3">
     <g id="line2d_19">
      <g>
       <use xlink:href="#m1518551574" x="103.074841" y="142.946166" style="stroke: #000000; stroke-width: 0.8"/>
      </g>
     </g>
     <g id="text_19">
      <!-- 0.05 -->
      <g transform="translate(51.543591 150.544603) scale(0.2 -0.2)">
       <use xlink:href="#DejaVuSans-30"/>
       <use xlink:href="#DejaVuSans-2e" x="63.623047"/>
       <use xlink:href="#DejaVuSans-30" x="95.410156"/>
       <use xlink:href="#DejaVuSans-35" x="159.033203"/>
      </g>
     </g>
    </g>
    <g id="ytick_4">
     <g id="line2d_20">
      <g>
       <use xlink:href="#m1518551574" x="103.074841" y="57.206265" style="stroke: #000000; stroke-width: 0.8"/>
      </g>
     </g>
     <g id="text_20">
      <!-- 0.10 -->
      <g transform="translate(51.543591 64.804702) scale(0.2 -0.2)">
       <use xlink:href="#DejaVuSans-30"/>
       <use xlink:href="#DejaVuSans-2e" x="63.623047"/>
       <use xlink:href="#DejaVuSans-31" x="95.410156"/>
       <use xlink:href="#DejaVuSans-30" x="159.033203"/>
      </g>
     </g>
    </g>
    <g id="text_21">
     <!-- Relative fitness $\gamma_y$ -->
     <g transform="translate(24.584216 291.84) rotate(-90) scale(0.2 -0.2)">
      <defs>
       <path id="DejaVuSans-52" d="M 2841 2188 
Q 3044 2119 3236 1894 
Q 3428 1669 3622 1275 
L 4263 0 
L 3584 0 
L 2988 1197 
Q 2756 1666 2539 1819 
Q 2322 1972 1947 1972 
L 1259 1972 
L 1259 0 
L 628 0 
L 628 4666 
L 2053 4666 
Q 2853 4666 3247 4331 
Q 3641 3997 3641 3322 
Q 3641 2881 3436 2590 
Q 3231 2300 2841 2188 
z
M 1259 4147 
L 1259 2491 
L 2053 2491 
Q 2509 2491 2742 2702 
Q 2975 2913 2975 3322 
Q 2975 3731 2742 3939 
Q 2509 4147 2053 4147 
L 1259 4147 
z
" transform="scale(0.015625)"/>
       <path id="DejaVuSans-65" d="M 3597 1894 
L 3597 1613 
L 953 1613 
Q 991 1019 1311 708 
Q 1631 397 2203 397 
Q 2534 397 2845 478 
Q 3156 559 3463 722 
L 3463 178 
Q 3153 47 2828 -22 
Q 2503 -91 2169 -91 
Q 1331 -91 842 396 
Q 353 884 353 1716 
Q 353 2575 817 3079 
Q 1281 3584 2069 3584 
Q 2775 3584 3186 3129 
Q 3597 2675 3597 1894 
z
M 3022 2063 
Q 3016 2534 2758 2815 
Q 2500 3097 2075 3097 
Q 1594 3097 1305 2825 
Q 1016 2553 972 2059 
L 3022 2063 
z
" transform="scale(0.015625)"/>
       <path id="DejaVuSans-6c" d="M 603 4863 
L 1178 4863 
L 1178 0 
L 603 0 
L 603 4863 
z
" transform="scale(0.015625)"/>
       <path id="DejaVuSans-61" d="M 2194 1759 
Q 1497 1759 1228 1600 
Q 959 1441 959 1056 
Q 959 750 1161 570 
Q 1363 391 1709 391 
Q 2188 391 2477 730 
Q 2766 1069 2766 1631 
L 2766 1759 
L 2194 1759 
z
M 3341 1997 
L 3341 0 
L 2766 0 
L 2766 531 
Q 2569 213 2275 61 
Q 1981 -91 1556 -91 
Q 1019 -91 701 211 
Q 384 513 384 1019 
Q 384 1609 779 1909 
Q 1175 2209 1959 2209 
L 2766 2209 
L 2766 2266 
Q 2766 2663 2505 2880 
Q 2244 3097 1772 3097 
Q 1472 3097 1187 3025 
Q 903 2953 641 2809 
L 641 3341 
Q 956 3463 1253 3523 
Q 1550 3584 1831 3584 
Q 2591 3584 2966 3190 
Q 3341 2797 3341 1997 
z
" transform="scale(0.015625)"/>
       <path id="DejaVuSans-74" d="M 1172 4494 
L 1172 3500 
L 2356 3500 
L 2356 3053 
L 1172 3053 
L 1172 1153 
Q 1172 725 1289 603 
Q 1406 481 1766 481 
L 2356 481 
L 2356 0 
L 1766 0 
Q 1100 0 847 248 
Q 594 497 594 1153 
L 594 3053 
L 172 3053 
L 172 3500 
L 594 3500 
L 594 4494 
L 1172 4494 
z
" transform="scale(0.015625)"/>
       <path id="DejaVuSans-69" d="M 603 3500 
L 1178 3500 
L 1178 0 
L 603 0 
L 603 3500 
z
M 603 4863 
L 1178 4863 
L 1178 4134 
L 603 4134 
L 603 4863 
z
" transform="scale(0.015625)"/>
       <path id="DejaVuSans-76" d="M 191 3500 
L 800 3500 
L 1894 563 
L 2988 3500 
L 3597 3500 
L 2284 0 
L 1503 0 
L 191 3500 
z
" transform="scale(0.015625)"/>
       <path id="DejaVuSans-20" transform="scale(0.015625)"/>
       <path id="DejaVuSans-66" d="M 2375 4863 
L 2375 4384 
L 1825 4384 
Q 1516 4384 1395 4259 
Q 1275 4134 1275 3809 
L 1275 3500 
L 2222 3500 
L 2222 3053 
L 1275 3053 
L 1275 0 
L 697 0 
L 697 3053 
L 147 3053 
L 147 3500 
L 697 3500 
L 697 3744 
Q 697 4328 969 4595 
Q 1241 4863 1831 4863 
L 2375 4863 
z
" transform="scale(0.015625)"/>
       <path id="DejaVuSans-6e" d="M 3513 2113 
L 3513 0 
L 2938 0 
L 2938 2094 
Q 2938 2591 2744 2837 
Q 2550 3084 2163 3084 
Q 1697 3084 1428 2787 
Q 1159 2491 1159 1978 
L 1159 0 
L 581 0 
L 581 3500 
L 1159 3500 
L 1159 2956 
Q 1366 3272 1645 3428 
Q 1925 3584 2291 3584 
Q 2894 3584 3203 3211 
Q 3513 2838 3513 2113 
z
" transform="scale(0.015625)"/>
       <path id="DejaVuSans-73" d="M 2834 3397 
L 2834 2853 
Q 2591 2978 2328 3040 
Q 2066 3103 1784 3103 
Q 1356 3103 1142 2972 
Q 928 2841 928 2578 
Q 928 2378 1081 2264 
Q 1234 2150 1697 2047 
L 1894 2003 
Q 2506 1872 2764 1633 
Q 3022 1394 3022 966 
Q 3022 478 2636 193 
Q 2250 -91 1575 -91 
Q 1294 -91 989 -36 
Q 684 19 347 128 
L 347 722 
Q 666 556 975 473 
Q 1284 391 1588 391 
Q 1994 391 2212 530 
Q 2431 669 2431 922 
Q 2431 1156 2273 1281 
Q 2116 1406 1581 1522 
L 1381 1569 
Q 847 1681 609 1914 
Q 372 2147 372 2553 
Q 372 3047 722 3315 
Q 1072 3584 1716 3584 
Q 2034 3584 2315 3537 
Q 2597 3491 2834 3397 
z
" transform="scale(0.015625)"/>
       <path id="DejaVuSans-Oblique-3b3" d="M 1491 2950 
L 1838 788 
L 3456 3500 
L 4066 3500 
L 1972 0 
L 1713 -1331 
L 1138 -1331 
L 1397 0 
L 988 2613 
Q 925 3006 628 3006 
L 475 3006 
L 569 3500 
L 788 3500 
Q 1403 3500 1491 2950 
z
" transform="scale(0.015625)"/>
       <path id="DejaVuSans-Oblique-79" d="M 1588 -325 
Q 1188 -997 936 -1164 
Q 684 -1331 294 -1331 
L -159 -1331 
L -63 -850 
L 269 -850 
Q 509 -850 678 -719 
Q 847 -588 1056 -206 
L 1234 128 
L 459 3500 
L 1069 3500 
L 1650 819 
L 3256 3500 
L 3859 3500 
L 1588 -325 
z
" transform="scale(0.015625)"/>
      </defs>
      <use xlink:href="#DejaVuSans-52" transform="translate(0 0.015625)"/>
      <use xlink:href="#DejaVuSans-65" transform="translate(69.482422 0.015625)"/>
      <use xlink:href="#DejaVuSans-6c" transform="translate(131.005859 0.015625)"/>
      <use xlink:href="#DejaVuSans-61" transform="translate(158.789062 0.015625)"/>
      <use xlink:href="#DejaVuSans-74" transform="translate(220.068359 0.015625)"/>
      <use xlink:href="#DejaVuSans-69" transform="translate(259.277344 0.015625)"/>
      <use xlink:href="#DejaVuSans-76" transform="translate(287.060547 0.015625)"/>
      <use xlink:href="#DejaVuSans-65" transform="translate(346.240234 0.015625)"/>
      <use xlink:href="#DejaVuSans-20" transform="translate(407.763672 0.015625)"/>
      <use xlink:href="#DejaVuSans-66" transform="translate(439.550781 0.015625)"/>
      <use xlink:href="#DejaVuSans-69" transform="translate(474.755859 0.015625)"/>
      <use xlink:href="#DejaVuSans-74" transform="translate(502.539062 0.015625)"/>
      <use xlink:href="#DejaVuSans-6e" transform="translate(541.748047 0.015625)"/>
      <use xlink:href="#DejaVuSans-65" transform="translate(605.126953 0.015625)"/>
      <use xlink:href="#DejaVuSans-73" transform="translate(666.650391 0.015625)"/>
      <use xlink:href="#DejaVuSans-73" transform="translate(718.75 0.015625)"/>
      <use xlink:href="#DejaVuSans-20" transform="translate(770.849609 0.015625)"/>
      <use xlink:href="#DejaVuSans-Oblique-3b3" transform="translate(802.636719 0.015625)"/>
      <use xlink:href="#DejaVuSans-Oblique-79" transform="translate(861.816406 -16.390625) scale(0.7)"/>
     </g>
    </g>
   </g>
   <g id="line2d_21">
    <path d="M 103.074841 228.686067 
L 1041.965466 228.686067 
" clip-path="url(#pbd0274528a)" style="fill: none; stroke-dasharray: 7.4,3.2; stroke-dashoffset: 0; stroke: #000000; stroke-width: 2"/>
   </g>
   <g id="patch_3">
    <path d="M 103.074841 395.28 
L 103.074841 7.2 
" style="fill: none; stroke: #000000; stroke-width: 0.8; stroke-linejoin: miter; stroke-linecap: square"/>
   </g>
   <g id="patch_4">
    <path d="M 940.074841 395.28 
L 940.074841 7.2 
" style="fill: none; stroke: #000000; stroke-width: 0.8; stroke-linejoin: miter; stroke-linecap: square"/>
   </g>
   <g id="patch_5">
    <path d="M 103.074841 395.28 
L 940.074841 395.28 
" style="fill: none; stroke: #000000; stroke-width: 0.8; stroke-linejoin: miter; stroke-linecap: square"/>
   </g>
   <g id="patch_6">
    <path d="M 103.074841 7.2 
L 940.074841 7.2 
" style="fill: none; stroke: #000000; stroke-width: 0.8; stroke-linejoin: miter; stroke-linecap: square"/>
   </g>
  </g>
  <g id="axes_2">
   <g id="matplotlib.axis_3">
    <g id="ytick_5">
     <g id="line2d_22">
      <defs>
       <path id="m5a0e5200a5" d="M 0 0 
L 3.5 0 
" style="stroke: #000000; stroke-width: 0.8"/>
      </defs>
      <g>
       <use xlink:href="#m5a0e5200a5" x="940.074841" y="314.425968" style="stroke: #000000; stroke-width: 0.8"/>
      </g>
     </g>
     <g id="text_22">
      <!-- 0.05 -->
      <g transform="translate(947.074841 322.024405) scale(0.2 -0.2)">
       <use xlink:href="#DejaVuSans-2212"/>
       <use xlink:href="#DejaVuSans-30" x="83.789062"/>
       <use xlink:href="#DejaVuSans-2e" x="147.412109"/>
       <use xlink:href="#DejaVuSans-30" x="179.199219"/>
       <use xlink:href="#DejaVuSans-35" x="242.822266"/>
      </g>
     </g>
    </g>
    <g id="ytick_6">
     <g id="line2d_23">
      <g>
       <use xlink:href="#m5a0e5200a5" x="940.074841" y="228.686067" style="stroke: #000000; stroke-width: 0.8"/>
      </g>
     </g>
     <g id="text_23">
      <!-- 0.00 -->
      <g transform="translate(947.074841 236.284504) scale(0.2 -0.2)">
       <use xlink:href="#DejaVuSans-30"/>
       <use xlink:href="#DejaVuSans-2e" x="63.623047"/>
       <use xlink:href="#DejaVuSans-30" x="95.410156"/>
       <use xlink:href="#DejaVuSans-30" x="159.033203"/>
      </g>
     </g>
    </g>
    <g id="ytick_7">
     <g id="line2d_24">
      <g>
       <use xlink:href="#m5a0e5200a5" x="940.074841" y="142.946166" style="stroke: #000000; stroke-width: 0.8"/>
      </g>
     </g>
     <g id="text_24">
      <!-- 0.05 -->
      <g transform="translate(947.074841 150.544603) scale(0.2 -0.2)">
       <use xlink:href="#DejaVuSans-30"/>
       <use xlink:href="#DejaVuSans-2e" x="63.623047"/>
       <use xlink:href="#DejaVuSans-30" x="95.410156"/>
       <use xlink:href="#DejaVuSans-35" x="159.033203"/>
      </g>
     </g>
    </g>
    <g id="ytick_8">
     <g id="line2d_25">
      <g>
       <use xlink:href="#m5a0e5200a5" x="940.074841" y="57.206265" style="stroke: #000000; stroke-width: 0.8"/>
      </g>
     </g>
     <g id="text_25">
      <!-- 0.10 -->
      <g transform="translate(947.074841 64.804702) scale(0.2 -0.2)">
       <use xlink:href="#DejaVuSans-30"/>
       <use xlink:href="#DejaVuSans-2e" x="63.623047"/>
       <use xlink:href="#DejaVuSans-31" x="95.410156"/>
       <use xlink:href="#DejaVuSans-30" x="159.033203"/>
      </g>
     </g>
    </g>
    <g id="text_26">
     <!-- Change in proportion $\gamma_{prop}$ -->
     <g transform="translate(1027.565466 332.74) rotate(-90) scale(0.2 -0.2)">
      <defs>
       <path id="DejaVuSans-43" d="M 4122 4306 
L 4122 3641 
Q 3803 3938 3442 4084 
Q 3081 4231 2675 4231 
Q 1875 4231 1450 3742 
Q 1025 3253 1025 2328 
Q 1025 1406 1450 917 
Q 1875 428 2675 428 
Q 3081 428 3442 575 
Q 3803 722 4122 1019 
L 4122 359 
Q 3791 134 3420 21 
Q 3050 -91 2638 -91 
Q 1578 -91 968 557 
Q 359 1206 359 2328 
Q 359 3453 968 4101 
Q 1578 4750 2638 4750 
Q 3056 4750 3426 4639 
Q 3797 4528 4122 4306 
z
" transform="scale(0.015625)"/>
       <path id="DejaVuSans-68" d="M 3513 2113 
L 3513 0 
L 2938 0 
L 2938 2094 
Q 2938 2591 2744 2837 
Q 2550 3084 2163 3084 
Q 1697 3084 1428 2787 
Q 1159 2491 1159 1978 
L 1159 0 
L 581 0 
L 581 4863 
L 1159 4863 
L 1159 2956 
Q 1366 3272 1645 3428 
Q 1925 3584 2291 3584 
Q 2894 3584 3203 3211 
Q 3513 2838 3513 2113 
z
" transform="scale(0.015625)"/>
       <path id="DejaVuSans-67" d="M 2906 1791 
Q 2906 2416 2648 2759 
Q 2391 3103 1925 3103 
Q 1463 3103 1205 2759 
Q 947 2416 947 1791 
Q 947 1169 1205 825 
Q 1463 481 1925 481 
Q 2391 481 2648 825 
Q 2906 1169 2906 1791 
z
M 3481 434 
Q 3481 -459 3084 -895 
Q 2688 -1331 1869 -1331 
Q 1566 -1331 1297 -1286 
Q 1028 -1241 775 -1147 
L 775 -588 
Q 1028 -725 1275 -790 
Q 1522 -856 1778 -856 
Q 2344 -856 2625 -561 
Q 2906 -266 2906 331 
L 2906 616 
Q 2728 306 2450 153 
Q 2172 0 1784 0 
Q 1141 0 747 490 
Q 353 981 353 1791 
Q 353 2603 747 3093 
Q 1141 3584 1784 3584 
Q 2172 3584 2450 3431 
Q 2728 3278 2906 2969 
L 2906 3500 
L 3481 3500 
L 3481 434 
z
" transform="scale(0.015625)"/>
       <path id="DejaVuSans-70" d="M 1159 525 
L 1159 -1331 
L 581 -1331 
L 581 3500 
L 1159 3500 
L 1159 2969 
Q 1341 3281 1617 3432 
Q 1894 3584 2278 3584 
Q 2916 3584 3314 3078 
Q 3713 2572 3713 1747 
Q 3713 922 3314 415 
Q 2916 -91 2278 -91 
Q 1894 -91 1617 61 
Q 1341 213 1159 525 
z
M 3116 1747 
Q 3116 2381 2855 2742 
Q 2594 3103 2138 3103 
Q 1681 3103 1420 2742 
Q 1159 2381 1159 1747 
Q 1159 1113 1420 752 
Q 1681 391 2138 391 
Q 2594 391 2855 752 
Q 3116 1113 3116 1747 
z
" transform="scale(0.015625)"/>
       <path id="DejaVuSans-72" d="M 2631 2963 
Q 2534 3019 2420 3045 
Q 2306 3072 2169 3072 
Q 1681 3072 1420 2755 
Q 1159 2438 1159 1844 
L 1159 0 
L 581 0 
L 581 3500 
L 1159 3500 
L 1159 2956 
Q 1341 3275 1631 3429 
Q 1922 3584 2338 3584 
Q 2397 3584 2469 3576 
Q 2541 3569 2628 3553 
L 2631 2963 
z
" transform="scale(0.015625)"/>
       <path id="DejaVuSans-6f" d="M 1959 3097 
Q 1497 3097 1228 2736 
Q 959 2375 959 1747 
Q 959 1119 1226 758 
Q 1494 397 1959 397 
Q 2419 397 2687 759 
Q 2956 1122 2956 1747 
Q 2956 2369 2687 2733 
Q 2419 3097 1959 3097 
z
M 1959 3584 
Q 2709 3584 3137 3096 
Q 3566 2609 3566 1747 
Q 3566 888 3137 398 
Q 2709 -91 1959 -91 
Q 1206 -91 779 398 
Q 353 888 353 1747 
Q 353 2609 779 3096 
Q 1206 3584 1959 3584 
z
" transform="scale(0.015625)"/>
       <path id="DejaVuSans-Oblique-70" d="M 3175 2156 
Q 3175 2616 2975 2859 
Q 2775 3103 2400 3103 
Q 2144 3103 1911 2972 
Q 1678 2841 1497 2591 
Q 1319 2344 1212 1994 
Q 1106 1644 1106 1300 
Q 1106 863 1306 627 
Q 1506 391 1875 391 
Q 2147 391 2380 519 
Q 2613 647 2778 891 
Q 2956 1147 3065 1494 
Q 3175 1841 3175 2156 
z
M 1394 2969 
Q 1625 3272 1939 3428 
Q 2253 3584 2638 3584 
Q 3175 3584 3472 3232 
Q 3769 2881 3769 2247 
Q 3769 1728 3584 1258 
Q 3400 788 3053 416 
Q 2822 169 2531 39 
Q 2241 -91 1919 -91 
Q 1547 -91 1294 64 
Q 1041 219 916 525 
L 556 -1331 
L -19 -1331 
L 922 3500 
L 1497 3500 
L 1394 2969 
z
" transform="scale(0.015625)"/>
       <path id="DejaVuSans-Oblique-72" d="M 2853 2969 
Q 2766 3016 2653 3041 
Q 2541 3066 2413 3066 
Q 1953 3066 1609 2717 
Q 1266 2369 1153 1784 
L 800 0 
L 225 0 
L 909 3500 
L 1484 3500 
L 1375 2956 
Q 1603 3259 1920 3421 
Q 2238 3584 2597 3584 
Q 2691 3584 2781 3573 
Q 2872 3563 2963 3538 
L 2853 2969 
z
" transform="scale(0.015625)"/>
       <path id="DejaVuSans-Oblique-6f" d="M 1625 -91 
Q 1009 -91 651 289 
Q 294 669 294 1325 
Q 294 1706 417 2101 
Q 541 2497 738 2766 
Q 1047 3184 1428 3384 
Q 1809 3584 2291 3584 
Q 2888 3584 3255 3212 
Q 3622 2841 3622 2241 
Q 3622 1825 3500 1412 
Q 3378 1000 3181 728 
Q 2875 309 2494 109 
Q 2113 -91 1625 -91 
z
M 891 1344 
Q 891 869 1089 633 
Q 1288 397 1691 397 
Q 2269 397 2648 901 
Q 3028 1406 3028 2181 
Q 3028 2634 2825 2865 
Q 2622 3097 2228 3097 
Q 1903 3097 1650 2945 
Q 1397 2794 1197 2484 
Q 1050 2253 970 1956 
Q 891 1659 891 1344 
z
" transform="scale(0.015625)"/>
      </defs>
      <use xlink:href="#DejaVuSans-43" transform="translate(0 0.015625)"/>
      <use xlink:href="#DejaVuSans-68" transform="translate(69.824219 0.015625)"/>
      <use xlink:href="#DejaVuSans-61" transform="translate(133.203125 0.015625)"/>
      <use xlink:href="#DejaVuSans-6e" transform="translate(194.482422 0.015625)"/>
      <use xlink:href="#DejaVuSans-67" transform="translate(257.861328 0.015625)"/>
      <use xlink:href="#DejaVuSans-65" transform="translate(321.337891 0.015625)"/>
      <use xlink:href="#DejaVuSans-20" transform="translate(382.861328 0.015625)"/>
      <use xlink:href="#DejaVuSans-69" transform="translate(414.648438 0.015625)"/>
      <use xlink:href="#DejaVuSans-6e" transform="translate(442.431641 0.015625)"/>
      <use xlink:href="#DejaVuSans-20" transform="translate(505.810547 0.015625)"/>
      <use xlink:href="#DejaVuSans-70" transform="translate(537.597656 0.015625)"/>
      <use xlink:href="#DejaVuSans-72" transform="translate(601.074219 0.015625)"/>
      <use xlink:href="#DejaVuSans-6f" transform="translate(642.1875 0.015625)"/>
      <use xlink:href="#DejaVuSans-70" transform="translate(703.369141 0.015625)"/>
      <use xlink:href="#DejaVuSans-6f" transform="translate(766.845703 0.015625)"/>
      <use xlink:href="#DejaVuSans-72" transform="translate(828.027344 0.015625)"/>
      <use xlink:href="#DejaVuSans-74" transform="translate(869.140625 0.015625)"/>
      <use xlink:href="#DejaVuSans-69" transform="translate(908.349609 0.015625)"/>
      <use xlink:href="#DejaVuSans-6f" transform="translate(936.132812 0.015625)"/>
      <use xlink:href="#DejaVuSans-6e" transform="translate(997.314453 0.015625)"/>
      <use xlink:href="#DejaVuSans-20" transform="translate(1060.693359 0.015625)"/>
      <use xlink:href="#DejaVuSans-Oblique-3b3" transform="translate(1092.480469 0.015625)"/>
      <use xlink:href="#DejaVuSans-Oblique-70" transform="translate(1151.660156 -16.390625) scale(0.7)"/>
      <use xlink:href="#DejaVuSans-Oblique-72" transform="translate(1196.09375 -16.390625) scale(0.7)"/>
      <use xlink:href="#DejaVuSans-Oblique-6f" transform="translate(1224.873047 -16.390625) scale(0.7)"/>
      <use xlink:href="#DejaVuSans-Oblique-70" transform="translate(1267.700195 -16.390625) scale(0.7)"/>
     </g>
    </g>
   </g>
   <g id="line2d_26">
    <path d="M 940.074841 228.686067 
" clip-path="url(#pbd0274528a)" style="fill: none; stroke: #ffa500; stroke-width: 1.5; stroke-linecap: square"/>
   </g>
   <g id="patch_7">
    <path d="M 103.074841 395.28 
L 103.074841 7.2 
" style="fill: none; stroke: #000000; stroke-width: 0.8; stroke-linejoin: miter; stroke-linecap: square"/>
   </g>
   <g id="patch_8">
    <path d="M 940.074841 395.28 
L 940.074841 7.2 
" style="fill: none; stroke: #000000; stroke-width: 0.8; stroke-linejoin: miter; stroke-linecap: square"/>
   </g>
   <g id="patch_9">
    <path d="M 103.074841 395.28 
L 940.074841 395.28 
" style="fill: none; stroke: #000000; stroke-width: 0.8; stroke-linejoin: miter; stroke-linecap: square"/>
   </g>
   <g id="patch_10">
    <path d="M 103.074841 7.2 
L 940.074841 7.2 
" style="fill: none; stroke: #000000; stroke-width: 0.8; stroke-linejoin: miter; stroke-linecap: square"/>
   </g>
  </g>
 </g>
 <defs>
  <clipPath id="pbd0274528a">
   <rect x="103.074841" y="7.2" width="837" height="388.08"/>
  </clipPath>
 </defs>
</svg>
