<?xml version="1.0" encoding="utf-8" standalone="no"?>
<!DOCTYPE svg PUBLIC "-//W3C//DTD SVG 1.1//EN"
  "http://www.w3.org/Graphics/SVG/1.1/DTD/svg11.dtd">
<svg xmlns:xlink="http://www.w3.org/1999/xlink" width="947.274841pt" height="505.354841pt" viewBox="0 0 947.274841 505.354841" xmlns="http://www.w3.org/2000/svg" version="1.1">
 <metadata>
  <rdf:RDF xmlns:dc="http://purl.org/dc/elements/1.1/" xmlns:cc="http://creativecommons.org/ns#" xmlns:rdf="http://www.w3.org/1999/02/22-rdf-syntax-ns#">
   <cc:Work>
    <dc:type rdf:resource="http://purl.org/dc/dcmitype/StillImage"/>
    <dc:date>2023-11-21T19:32:19.681236</dc:date>
    <dc:format>image/svg+xml</dc:format>
    <dc:creator>
     <cc:Agent>
      <dc:title>Matplotlib v3.7.2, https://matplotlib.org/</dc:title>
     </cc:Agent>
    </dc:creator>
   </cc:Work>
  </rdf:RDF>
 </metadata>
 <defs>
  <style type="text/css">*{stroke-linejoin: round; stroke-linecap: butt}</style>
 </defs>
 <g id="figure_1">
  <g id="patch_1">
   <path d="M 0 505.354841 
L 947.274841 505.354841 
L 947.274841 -0 
L 0 -0 
z
" style="fill: #ffffff"/>
  </g>
  <g id="axes_1">
   <g id="patch_2">
    <path d="M 103.074841 395.28 
L 940.074841 395.28 
L 940.074841 7.2 
L 103.074841 7.2 
z
" style="fill: #ffffff"/>
   </g>
   <g id="PolyCollection_1">
    <path d="M -393.000769 193.986767 
L -393.000769 193.987115 
L -390.959306 193.989224 
L -388.917842 193.997363 
L -386.876379 193.995371 
L -384.834915 194.005286 
L -382.793452 194.009349 
L -380.751989 194.003852 
L -378.710525 194.000412 
L -376.669062 194.003425 
L -374.627598 194.012041 
L -372.586135 194.013882 
L -370.544672 194.008278 
L -368.503208 194.005926 
L -366.461745 193.997875 
L -364.420281 194.00252 
L -362.378818 193.997485 
L -360.337354 193.99504 
L -358.295891 193.988484 
L -356.254428 193.991417 
L -354.212964 193.997175 
L -352.171501 193.992639 
L -350.130037 193.992692 
L -348.088574 193.997323 
L -346.047111 193.991019 
L -344.005647 193.99948 
L -341.964184 193.994872 
L -339.92272 193.99905 
L -337.881257 193.99336 
L -335.839793 193.989799 
L -333.79833 193.996988 
L -331.756867 193.997246 
L -329.715403 193.987088 
L -327.67394 193.99724 
L -325.632476 193.998758 
L -323.591013 193.988859 
L -321.54955 193.994554 
L -319.508086 193.993733 
L -317.466623 193.993639 
L -315.425159 194.001052 
L -313.383696 193.997817 
L -311.342232 193.993245 
L -309.300769 193.99195 
L -307.259306 193.988421 
L -305.217842 193.990255 
L -303.176379 193.984138 
L -301.134915 193.991954 
L -299.093452 193.989542 
L -297.051989 194.003299 
L -295.010525 193.999506 
L -292.969062 193.987391 
L -290.927598 193.997935 
L -288.886135 193.998268 
L -286.844672 193.986575 
L -284.803208 193.990404 
L -282.761745 193.994511 
L -280.720281 193.990864 
L -278.678818 193.99026 
L -276.637354 193.993149 
L -274.595891 193.988038 
L -272.554428 193.984265 
L -270.512964 193.988932 
L -268.471501 193.987274 
L -266.430037 193.989165 
L -264.388574 193.997821 
L -262.347111 193.992731 
L -260.305647 193.987087 
L -258.264184 193.984543 
L -256.22272 193.986101 
L -254.181257 193.992209 
L -252.139793 193.988318 
L -250.09833 193.99083 
L -248.056867 193.986691 
L -246.015403 194.010362 
L -243.97394 193.987036 
L -241.932476 193.992445 
L -239.891013 193.987362 
L -237.84955 194.001075 
L -235.808086 193.988517 
L -233.766623 193.990686 
L -231.725159 193.986228 
L -229.683696 193.983912 
L -227.642232 193.989366 
L -225.600769 193.990305 
L -223.559306 194.005262 
L -221.517842 194.001587 
L -219.476379 193.989053 
L -217.434915 193.995825 
L -215.393452 194.00965 
L -213.351989 193.995264 
L -211.310525 193.997735 
L -209.269062 193.99091 
L -207.227598 193.990877 
L -205.186135 194.000075 
L -203.144672 193.995754 
L -201.103208 193.984563 
L -199.061745 194.014771 
L -197.020281 193.995575 
L -194.978818 193.989267 
L -192.937354 193.990729 
L -190.895891 193.990294 
L -188.854428 193.99114 
L -186.812964 193.985711 
L -184.771501 194.009997 
L -182.730037 194.013857 
L -180.688574 194.007604 
L -178.647111 194.001929 
L -176.605647 193.99849 
L -174.564184 194.049697 
L -172.52272 194.043497 
L -170.481257 194.005841 
L -168.439793 194.019988 
L -166.39833 194.023177 
L -164.356867 194.031459 
L -162.315403 194.026528 
L -160.27394 194.008629 
L -158.232476 194.074698 
L -156.191013 194.037681 
L -154.14955 194.060277 
L -152.108086 194.029707 
L -150.066623 194.083982 
L -148.025159 194.040762 
L -145.983696 194.031406 
L -143.942232 194.05348 
L -141.900769 194.047868 
L -139.859306 194.063629 
L -137.817842 194.051801 
L -135.776379 194.070816 
L -133.734915 194.041375 
L -131.693452 194.085903 
L -129.651989 194.063718 
L -127.610525 194.052068 
L -125.569062 194.05336 
L -123.527598 194.055537 
L -121.486135 194.050864 
L -119.444672 194.137199 
L -117.403208 194.004844 
L -115.361745 194.047055 
L -113.320281 194.127684 
L -111.278818 194.133189 
L -109.237354 194.113504 
L -107.195891 194.083229 
L -105.154428 194.070039 
L -103.112964 194.25187 
L -101.071501 194.055537 
L -99.030037 194.098546 
L -96.988574 194.13319 
L -94.947111 194.160222 
L -92.905647 194.171281 
L -90.864184 194.184598 
L -88.82272 194.477879 
L -86.781257 194.583853 
L -84.739793 194.278203 
L -82.69833 194.193165 
L -80.656867 194.422325 
L -78.615403 194.406731 
L -76.57394 194.489382 
L -74.532476 194.76081 
L -72.491013 194.70799 
L -70.44955 194.493813 
L -68.408086 194.710113 
L -66.366623 195.160799 
L -64.325159 195.17507 
L -62.283696 195.602731 
L -60.242232 196.019465 
L -58.200769 195.805166 
L -56.159306 196.685698 
L -54.117842 197.894184 
L -52.076379 199.352604 
L -50.034915 199.117283 
L -47.993452 201.489114 
L -45.951989 202.689862 
L -43.910525 201.006383 
L -41.869062 201.86973 
L -39.827598 203.747136 
L -37.786135 203.609589 
L -35.744672 204.352904 
L -33.703208 209.486711 
L -31.661745 216.336389 
L -29.620281 220.162964 
L -27.578818 213.069586 
L -25.537354 217.12018 
L -23.495891 222.322377 
L -21.454428 222.585331 
L -19.412964 232.609681 
L -17.371501 231.330283 
L -15.330037 228.977513 
L -13.288574 221.281821 
L -11.247111 228.794378 
L -9.205647 233.273359 
L -7.164184 231.734574 
L -5.12272 233.216464 
L -3.081257 237.564827 
L -1.039793 237.198005 
L 1.00167 233.714426 
L 3.043133 238.429056 
L 5.084597 239.485189 
L 7.12606 237.996972 
L 9.167524 241.155385 
L 11.208987 242.459535 
L 13.25045 242.254134 
L 15.291914 241.588122 
L 17.333377 242.765072 
L 19.374841 241.997859 
L 21.416304 242.301599 
L 23.457768 243.373129 
L 25.499231 242.702692 
L 27.540694 243.333542 
L 29.582158 243.561258 
L 31.623621 243.051493 
L 33.665085 243.511914 
L 35.706548 242.561844 
L 37.748011 242.952701 
L 39.789475 243.438838 
L 41.830938 243.668764 
L 43.872402 243.340746 
L 45.913865 243.075261 
L 47.955328 243.105353 
L 49.996792 242.907501 
L 52.038255 243.025089 
L 54.079719 243.06147 
L 56.121182 242.597718 
L 58.162646 243.114397 
L 60.204109 242.792508 
L 62.245572 242.692193 
L 64.287036 242.956253 
L 66.328499 242.673323 
L 68.369963 242.736209 
L 70.411426 243.014824 
L 72.452889 243.361631 
L 74.494353 242.788305 
L 76.535816 242.586906 
L 78.57728 242.728815 
L 80.618743 243.997259 
L 82.660207 244.11211 
L 84.70167 244.631135 
L 86.743133 243.609621 
L 88.784597 242.987752 
L 90.82606 243.281414 
L 92.867524 244.117802 
L 94.908987 244.296397 
L 96.95045 242.971494 
L 98.991914 244.210248 
L 101.033377 243.694216 
L 103.074841 243.72589 
L 105.116304 243.054175 
L 107.157768 243.574943 
L 109.199231 243.326452 
L 111.240694 243.710977 
L 113.282158 243.285127 
L 115.323621 242.832141 
L 117.365085 242.261359 
L 119.406548 242.043743 
L 121.448011 241.747316 
L 123.489475 241.344664 
L 125.530938 241.374593 
L 127.572402 240.910066 
L 129.613865 240.472536 
L 131.655328 239.602117 
L 133.696792 238.760319 
L 135.738255 238.35339 
L 137.779719 237.492774 
L 139.821182 237.346309 
L 141.862646 236.650488 
L 143.904109 235.615706 
L 145.945572 234.7387 
L 147.987036 234.062839 
L 150.028499 232.939924 
L 152.069963 232.328591 
L 154.111426 231.289039 
L 156.152889 230.318113 
L 158.194353 229.382906 
L 160.235816 228.235947 
L 162.27728 227.313867 
L 164.318743 226.142563 
L 166.360207 225.172291 
L 168.40167 223.890174 
L 170.443133 222.760066 
L 172.484597 221.59661 
L 174.52606 220.451789 
L 176.567524 219.225541 
L 178.608987 217.921387 
L 180.65045 216.660822 
L 182.691914 215.073103 
L 184.733377 213.859682 
L 186.774841 212.5198 
L 188.816304 211.342298 
L 190.857768 209.803931 
L 192.899231 208.278686 
L 194.940694 207.05308 
L 196.982158 205.445991 
L 199.023621 203.755684 
L 201.065085 202.3639 
L 203.106548 200.732077 
L 205.148011 199.418815 
L 207.189475 197.764316 
L 209.230938 195.829351 
L 211.272402 194.229279 
L 213.313865 192.9433 
L 215.355328 191.092806 
L 217.396792 189.527449 
L 219.438255 187.760221 
L 221.479719 186.385224 
L 223.521182 184.381356 
L 225.562646 182.57713 
L 227.604109 182.543755 
L 229.645572 179.304229 
L 231.687036 178.485717 
L 233.728499 176.585761 
L 235.769963 175.464028 
L 237.811426 173.480331 
L 239.852889 172.041539 
L 241.894353 170.40072 
L 243.935816 169.022202 
L 245.97728 167.725519 
L 248.018743 166.159595 
L 250.060207 166.708205 
L 252.10167 162.851344 
L 254.143133 162.159335 
L 256.184597 163.381548 
L 258.22606 159.829529 
L 260.267524 160.115577 
L 262.308987 159.473346 
L 264.35045 157.103359 
L 266.391914 157.07431 
L 268.433377 159.070383 
L 270.474841 156.53756 
L 272.516304 156.040838 
L 274.557768 156.692059 
L 276.599231 156.381957 
L 278.640694 157.011631 
L 280.682158 158.157631 
L 282.723621 159.488728 
L 284.765085 165.070338 
L 286.806548 162.559687 
L 288.848011 165.371497 
L 290.889475 166.889666 
L 292.930938 168.036351 
L 294.972402 169.836617 
L 297.013865 171.610431 
L 299.055328 168.304853 
L 301.096792 170.378977 
L 303.138255 174.223595 
L 305.179719 175.750205 
L 307.221182 175.767591 
L 309.262646 180.553606 
L 311.304109 180.339899 
L 313.345572 180.843242 
L 315.387036 180.307325 
L 317.428499 183.771659 
L 319.469963 182.071964 
L 321.511426 180.570775 
L 323.552889 183.39187 
L 325.594353 185.779705 
L 327.635816 184.502088 
L 329.67728 185.733485 
L 331.718743 185.651823 
L 333.760207 185.15506 
L 335.80167 184.154209 
L 337.843133 183.979911 
L 339.884597 183.815286 
L 341.92606 186.153019 
L 343.967524 183.155289 
L 346.008987 184.995488 
L 348.05045 183.93345 
L 350.091914 182.498797 
L 352.133377 182.965108 
L 354.174841 182.650344 
L 356.216304 180.326975 
L 358.257768 180.486947 
L 360.299231 179.272069 
L 362.340694 179.95219 
L 364.382158 178.531086 
L 366.423621 177.135987 
L 368.465085 176.452749 
L 370.506548 175.434124 
L 372.548011 174.276572 
L 374.589475 172.972608 
L 376.630938 172.091421 
L 378.672402 170.04485 
L 380.713865 169.082455 
L 382.755328 169.225095 
L 384.796792 168.039232 
L 386.838255 165.952104 
L 388.879719 164.566394 
L 390.921182 163.221853 
L 392.962646 160.563035 
L 395.004109 159.931417 
L 397.045572 159.773136 
L 399.087036 157.222245 
L 401.128499 155.631428 
L 403.169963 153.433916 
L 405.211426 152.86815 
L 407.252889 151.471536 
L 409.294353 149.978452 
L 411.335816 148.39073 
L 413.37728 147.321041 
L 415.418743 145.413308 
L 417.460207 143.024596 
L 419.50167 141.546898 
L 421.543133 139.569925 
L 423.584597 136.53612 
L 425.62606 136.818895 
L 427.667524 133.742111 
L 429.708987 133.530008 
L 431.75045 132.463529 
L 433.791914 131.78323 
L 435.833377 129.730611 
L 437.874841 129.101623 
L 439.916304 128.177419 
L 441.957768 124.455174 
L 443.999231 124.857275 
L 446.040694 123.626677 
L 448.082158 123.453351 
L 450.123621 121.282988 
L 452.165085 121.082236 
L 454.206548 120.05037 
L 456.248011 117.305402 
L 458.289475 116.226535 
L 460.330938 114.93734 
L 462.372402 113.89177 
L 464.413865 112.70708 
L 466.455328 112.077301 
L 468.496792 111.216901 
L 470.538255 110.023988 
L 472.579719 108.77139 
L 474.621182 107.098439 
L 476.662646 106.861773 
L 478.704109 106.271756 
L 480.745572 105.011644 
L 482.787036 103.936073 
L 484.828499 100.950483 
L 486.869963 102.394641 
L 488.911426 101.173697 
L 490.952889 100.638537 
L 492.994353 99.305264 
L 495.035816 97.770678 
L 497.07728 96.513359 
L 499.118743 95.770143 
L 501.160207 94.673926 
L 503.20167 94.056801 
L 505.243133 92.956977 
L 507.284597 91.934091 
L 509.32606 92.998419 
L 511.367524 91.496095 
L 513.408987 91.580067 
L 515.45045 91.91565 
L 517.491914 89.652195 
L 519.533377 89.874014 
L 521.574841 90.108487 
L 523.616304 89.226074 
L 525.657768 90.074918 
L 527.699231 88.55084 
L 529.740694 87.390896 
L 531.782158 88.720132 
L 533.823621 88.596543 
L 535.865085 87.53349 
L 537.906548 87.824731 
L 539.948011 87.144185 
L 541.989475 89.138091 
L 544.030938 88.461477 
L 546.072402 88.519044 
L 548.113865 86.480517 
L 550.155328 85.01905 
L 552.196792 86.492946 
L 554.238255 88.153357 
L 556.279719 85.805466 
L 558.321182 85.425057 
L 560.362646 83.677727 
L 562.404109 83.756799 
L 564.445572 84.513421 
L 566.487036 83.142222 
L 568.528499 81.809627 
L 570.569963 83.69291 
L 572.611426 82.133414 
L 574.652889 83.772471 
L 576.694353 84.007848 
L 578.735816 80.925874 
L 580.77728 81.235995 
L 582.818743 80.219109 
L 584.860207 80.96292 
L 586.90167 82.013696 
L 588.943133 85.136648 
L 590.984597 86.263912 
L 593.02606 84.898469 
L 595.067524 87.992457 
L 597.108987 92.764103 
L 599.15045 86.984201 
L 601.191914 84.978823 
L 603.233377 87.030299 
L 605.274841 88.822029 
L 607.316304 89.155899 
L 609.357768 88.0781 
L 611.399231 91.770407 
L 613.440694 93.995907 
L 615.482158 89.867402 
L 617.523621 93.603801 
L 619.565085 91.807831 
L 621.606548 91.796275 
L 623.648011 95.192455 
L 625.689475 94.150032 
L 627.730938 96.839495 
L 629.772402 96.984322 
L 631.813865 93.05725 
L 633.855328 96.037102 
L 635.896792 95.756132 
L 637.938255 98.082599 
L 639.979719 96.989517 
L 642.021182 99.750678 
L 644.062646 97.607105 
L 646.104109 99.175616 
L 648.145572 99.183502 
L 650.187036 100.022646 
L 652.228499 97.024203 
L 654.269963 100.147527 
L 656.311426 100.961994 
L 658.352889 102.120426 
L 660.394353 104.218133 
L 662.435816 103.294248 
L 664.47728 102.557229 
L 666.518743 104.395487 
L 668.560207 105.999119 
L 670.60167 104.093006 
L 672.643133 103.069785 
L 674.684597 104.809252 
L 676.72606 105.937319 
L 678.767524 103.302034 
L 680.808987 102.597321 
L 682.85045 107.009469 
L 684.891914 108.42881 
L 686.933377 103.753502 
L 688.974841 104.952302 
L 691.016304 105.712177 
L 693.057768 106.261898 
L 695.099231 108.93236 
L 697.140694 107.611988 
L 699.182158 105.874925 
L 701.223621 107.746244 
L 703.265085 108.716131 
L 705.306548 105.616998 
L 707.348011 106.102042 
L 709.389475 105.846384 
L 711.430938 110.4024 
L 713.472402 113.187774 
L 715.513865 113.487914 
L 717.555328 109.719057 
L 719.596792 108.10683 
L 721.638255 109.228261 
L 723.679719 109.448221 
L 725.721182 113.632564 
L 727.762646 108.538303 
L 729.804109 112.762293 
L 731.845572 115.401974 
L 733.887036 112.937567 
L 735.928499 117.426033 
L 737.969963 114.666135 
L 740.011426 115.701196 
L 742.052889 116.150605 
L 744.094353 117.133563 
L 746.135816 119.363458 
L 748.17728 117.938175 
L 750.218743 119.306761 
L 752.260207 120.017647 
L 754.30167 120.061166 
L 756.343133 114.827518 
L 758.384597 122.452345 
L 760.42606 125.111018 
L 762.467524 122.275903 
L 764.508987 124.421069 
L 766.55045 125.23115 
L 768.591914 123.906691 
L 770.633377 126.283754 
L 772.674841 129.362988 
L 774.716304 128.448605 
L 776.757768 129.248255 
L 778.799231 130.339976 
L 780.840694 130.586467 
L 782.882158 132.644727 
L 784.923621 128.396971 
L 786.965085 134.557069 
L 789.006548 134.481663 
L 791.048011 133.93007 
L 793.089475 130.750919 
L 795.130938 135.610309 
L 797.172402 139.303858 
L 799.213865 135.093952 
L 801.255328 135.938182 
L 803.296792 139.957275 
L 805.338255 132.084945 
L 807.379719 138.962093 
L 809.421182 134.801599 
L 811.462646 141.498285 
L 813.504109 137.635034 
L 815.545572 140.692749 
L 817.587036 140.957769 
L 819.628499 142.861492 
L 821.669963 142.557744 
L 823.711426 141.216538 
L 825.752889 140.72589 
L 827.794353 141.856754 
L 829.835816 144.574473 
L 831.87728 144.078555 
L 833.918743 143.482886 
L 835.960207 145.736475 
L 838.00167 145.411854 
L 840.043133 144.592953 
L 842.084597 143.893176 
L 844.12606 146.776959 
L 846.167524 146.912821 
L 848.208987 147.505568 
L 850.25045 145.593643 
L 852.291914 142.624696 
L 854.333377 146.401777 
L 856.374841 144.542064 
L 858.416304 145.704443 
L 860.457768 146.879968 
L 862.499231 145.055631 
L 864.540694 147.427785 
L 866.582158 145.521242 
L 868.623621 145.293389 
L 870.665085 145.736918 
L 872.706548 147.15727 
L 874.748011 146.309809 
L 876.789475 146.029486 
L 878.830938 145.024346 
L 880.872402 145.285668 
L 882.913865 145.671439 
L 884.955328 145.229531 
L 886.996792 146.651937 
L 889.038255 146.043325 
L 891.079719 147.165486 
L 893.121182 147.628337 
L 895.162646 147.749928 
L 897.204109 146.946996 
L 899.245572 146.738726 
L 901.287036 146.256341 
L 903.328499 146.89293 
L 905.369963 146.752894 
L 907.411426 145.873146 
L 909.452889 147.038752 
L 911.494353 142.30281 
L 913.535816 146.93005 
L 915.57728 148.32596 
L 917.618743 146.708235 
L 919.660207 146.82622 
L 921.70167 147.934218 
L 923.743133 148.198415 
L 925.784597 146.958867 
L 927.82606 146.775142 
L 929.867524 147.79279 
L 931.908987 147.312418 
L 933.95045 149.533635 
L 935.991914 148.248339 
L 938.033377 150.354977 
L 940.074841 148.481358 
L 940.074841 110.969214 
L 940.074841 110.969214 
L 938.033377 109.148283 
L 935.991914 106.694211 
L 933.95045 109.419968 
L 931.908987 104.501234 
L 929.867524 106.15284 
L 927.82606 105.411207 
L 925.784597 100.637869 
L 923.743133 106.080725 
L 921.70167 109.195287 
L 919.660207 101.774037 
L 917.618743 105.209447 
L 915.57728 109.01484 
L 913.535816 106.780812 
L 911.494353 76.981011 
L 909.452889 106.45726 
L 907.411426 101.364476 
L 905.369963 106.995798 
L 903.328499 107.072786 
L 901.287036 105.564967 
L 899.245572 105.569835 
L 897.204109 105.703794 
L 895.162646 109.330267 
L 893.121182 109.346147 
L 891.079719 106.39062 
L 889.038255 102.623774 
L 886.996792 105.713343 
L 884.955328 101.471154 
L 882.913865 103.189778 
L 880.872402 100.984882 
L 878.830938 99.688677 
L 876.789475 103.556116 
L 874.748011 104.101389 
L 872.706548 105.810321 
L 870.665085 102.955695 
L 868.623621 100.076726 
L 866.582158 100.511996 
L 864.540694 107.295302 
L 862.499231 99.262051 
L 860.457768 105.431064 
L 858.416304 101.984728 
L 856.374841 98.791382 
L 854.333377 104.066918 
L 852.291914 90.082559 
L 850.25045 101.741359 
L 848.208987 106.840034 
L 846.167524 104.845391 
L 844.12606 104.951946 
L 842.084597 94.138455 
L 840.043133 97.451109 
L 838.00167 100.103095 
L 835.960207 101.34652 
L 833.918743 94.73808 
L 831.87728 96.935927 
L 829.835816 97.485716 
L 827.794353 92.223579 
L 825.752889 87.595847 
L 823.711426 88.23761 
L 821.669963 91.839473 
L 819.628499 92.610386 
L 817.587036 88.766442 
L 815.545572 88.248192 
L 813.504109 79.042102 
L 811.462646 90.716025 
L 809.421182 67.655996 
L 807.379719 82.473627 
L 805.338255 62.303897 
L 803.296792 86.393344 
L 801.255328 75.594814 
L 799.213865 75.092117 
L 797.172402 84.166527 
L 795.130938 75.28784 
L 793.089475 62.478641 
L 791.048011 70.774969 
L 789.006548 73.527253 
L 786.965085 74.156319 
L 784.923621 58.037318 
L 782.882158 64.604069 
L 780.840694 65.421565 
L 778.799231 65.256694 
L 776.757768 62.766261 
L 774.716304 60.320309 
L 772.674841 63.839188 
L 770.633377 55.751193 
L 768.591914 50.077073 
L 766.55045 56.217601 
L 764.508987 51.869984 
L 762.467524 49.06674 
L 760.42606 56.445659 
L 758.384597 50.459351 
L 756.343133 31.971701 
L 754.30167 45.03051 
L 752.260207 44.732867 
L 750.218743 44.105012 
L 748.17728 41.151064 
L 746.135816 45.150638 
L 744.094353 40.904511 
L 742.052889 39.432411 
L 740.011426 38.563351 
L 737.969963 35.376351 
L 735.928499 43.494785 
L 733.887036 33.666237 
L 731.845572 39.264007 
L 729.804109 34.37346 
L 727.762646 26.770104 
L 725.721182 37.093269 
L 723.679719 28.01126 
L 721.638255 28.949807 
L 719.596792 27.498015 
L 717.555328 31.336362 
L 715.513865 39.63824 
L 713.472402 40.214567 
L 711.430938 35.070227 
L 709.389475 24.84 
L 707.348011 26.156854 
L 705.306548 26.767477 
L 703.265085 33.58018 
L 701.223621 32.595 
L 699.182158 29.156914 
L 697.140694 33.731133 
L 695.099231 36.11923 
L 693.057768 31.865995 
L 691.016304 32.180168 
L 688.974841 31.057441 
L 686.933377 29.464884 
L 684.891914 39.975151 
L 682.85045 36.155825 
L 680.808987 29.502521 
L 678.767524 32.314615 
L 676.72606 37.810812 
L 674.684597 35.931734 
L 672.643133 33.869267 
L 670.60167 36.909076 
L 668.560207 41.933436 
L 666.518743 37.945663 
L 664.47728 36.158846 
L 662.435816 38.650153 
L 660.394353 38.449189 
L 658.352889 37.667433 
L 656.311426 36.594958 
L 654.269963 35.953861 
L 652.228499 31.346528 
L 650.187036 36.702908 
L 648.145572 36.207705 
L 646.104109 37.379089 
L 644.062646 36.572237 
L 642.021182 39.423797 
L 639.979719 36.228619 
L 637.938255 38.910191 
L 635.896792 36.047352 
L 633.855328 37.34645 
L 631.813865 33.719127 
L 629.772402 38.624028 
L 627.730938 40.564488 
L 625.689475 38.487884 
L 623.648011 39.422279 
L 621.606548 36.077595 
L 619.565085 37.325202 
L 617.523621 39.179242 
L 615.482158 35.323074 
L 613.440694 40.498717 
L 611.399231 39.218989 
L 609.357768 34.940032 
L 607.316304 37.280894 
L 605.274841 37.334692 
L 603.233377 36.527812 
L 601.191914 34.777096 
L 599.15045 37.458781 
L 597.108987 45.969609 
L 595.067524 40.820356 
L 593.02606 37.345466 
L 590.984597 39.497153 
L 588.943133 38.916385 
L 586.90167 36.538088 
L 584.860207 35.844272 
L 582.818743 35.40384 
L 580.77728 37.608445 
L 578.735816 38.244854 
L 576.694353 41.964264 
L 574.652889 42.645093 
L 572.611426 41.717856 
L 570.569963 44.307399 
L 568.528499 42.485307 
L 566.487036 45.390866 
L 564.445572 47.29532 
L 562.404109 47.899245 
L 560.362646 47.950392 
L 558.321182 50.863334 
L 556.279719 51.763497 
L 554.238255 54.627655 
L 552.196792 54.072388 
L 550.155328 53.256615 
L 548.113865 55.3802 
L 546.072402 57.37805 
L 544.030938 58.082846 
L 541.989475 59.897579 
L 539.948011 58.364106 
L 537.906548 59.751389 
L 535.865085 59.783517 
L 533.823621 60.972637 
L 531.782158 61.210162 
L 529.740694 60.871716 
L 527.699231 63.125529 
L 525.657768 64.623234 
L 523.616304 64.051573 
L 521.574841 65.600235 
L 519.533377 65.170467 
L 517.491914 66.18558 
L 515.45045 68.697982 
L 513.408987 68.714332 
L 511.367524 69.216779 
L 509.32606 70.884402 
L 507.284597 70.241209 
L 505.243133 71.447073 
L 503.20167 72.954162 
L 501.160207 73.348734 
L 499.118743 74.031462 
L 497.07728 74.476509 
L 495.035816 75.322169 
L 492.994353 76.349148 
L 490.952889 77.275094 
L 488.911426 77.530673 
L 486.869963 78.215747 
L 484.828499 76.402968 
L 482.787036 78.89414 
L 480.745572 79.60454 
L 478.704109 80.39677 
L 476.662646 80.589214 
L 474.621182 80.465381 
L 472.579719 81.688275 
L 470.538255 82.496726 
L 468.496792 83.168157 
L 466.455328 83.569542 
L 464.413865 83.856818 
L 462.372402 84.43891 
L 460.330938 84.956442 
L 458.289475 85.817575 
L 456.248011 86.501776 
L 454.206548 88.588126 
L 452.165085 89.050571 
L 450.123621 88.789473 
L 448.082158 90.387685 
L 446.040694 90.035042 
L 443.999231 90.67271 
L 441.957768 89.772395 
L 439.916304 92.896301 
L 437.874841 93.255235 
L 435.833377 93.351528 
L 433.791914 94.890746 
L 431.75045 94.907444 
L 429.708987 95.381958 
L 427.667524 95.204541 
L 425.62606 97.757478 
L 423.584597 96.438966 
L 421.543133 99.140799 
L 419.50167 100.389009 
L 417.460207 101.272149 
L 415.418743 103.162987 
L 413.37728 104.270631 
L 411.335816 105.022986 
L 409.294353 105.860857 
L 407.252889 106.97516 
L 405.211426 107.807764 
L 403.169963 107.833575 
L 401.128499 109.388335 
L 399.087036 110.355998 
L 397.045572 112.632524 
L 395.004109 112.102785 
L 392.962646 112.026112 
L 390.921182 114.465738 
L 388.879719 115.321138 
L 386.838255 116.041869 
L 384.796792 117.949996 
L 382.755328 118.768511 
L 380.713865 117.834977 
L 378.672402 118.254943 
L 376.630938 120.085316 
L 374.589475 120.396024 
L 372.548011 121.484514 
L 370.506548 122.371669 
L 368.465085 122.958885 
L 366.423621 122.945233 
L 364.382158 124.274746 
L 362.340694 125.519795 
L 360.299231 124.355289 
L 358.257768 125.233615 
L 356.216304 124.484119 
L 354.174841 126.94284 
L 352.133377 126.723355 
L 350.091914 125.920714 
L 348.05045 127.218551 
L 346.008987 128.276669 
L 343.967524 125.422845 
L 341.92606 128.566947 
L 339.884597 125.188131 
L 337.843133 124.735079 
L 335.80167 124.536093 
L 333.760207 125.128085 
L 331.718743 125.415788 
L 329.67728 125.591418 
L 327.635816 123.599025 
L 325.594353 124.683034 
L 323.552889 121.143622 
L 321.511426 115.964724 
L 319.469963 117.803578 
L 317.428499 119.845017 
L 315.387036 114.345593 
L 313.345572 115.035845 
L 311.304109 113.77508 
L 309.262646 113.557236 
L 307.221182 106.03325 
L 305.179719 105.253262 
L 303.138255 102.619685 
L 301.096792 96.743288 
L 299.055328 92.486155 
L 297.013865 96.714506 
L 294.972402 93.690121 
L 292.930938 90.517295 
L 290.889475 88.661645 
L 288.848011 86.254739 
L 286.806548 81.649646 
L 284.765085 85.154782 
L 282.723621 76.817642 
L 280.682158 74.093591 
L 278.640694 72.803618 
L 276.599231 71.781333 
L 274.557768 72.30862 
L 272.516304 71.77501 
L 270.474841 72.842467 
L 268.433377 76.113923 
L 266.391914 73.211835 
L 264.35045 73.696599 
L 262.308987 77.167361 
L 260.267524 78.341956 
L 258.22606 78.085767 
L 256.184597 83.408936 
L 254.143133 81.845638 
L 252.10167 83.372432 
L 250.060207 88.774393 
L 248.018743 88.421953 
L 245.97728 91.003616 
L 243.935816 93.217989 
L 241.894353 95.50372 
L 239.852889 97.99475 
L 237.811426 100.461693 
L 235.769963 103.579038 
L 233.728499 105.46944 
L 231.687036 108.59577 
L 229.645572 110.182028 
L 227.604109 114.764193 
L 225.562646 115.491913 
L 223.521182 118.316747 
L 221.479719 121.49922 
L 219.438255 123.714388 
L 217.396792 126.587203 
L 215.355328 129.103563 
L 213.313865 132.029819 
L 211.272402 134.140249 
L 209.230938 136.789369 
L 207.189475 139.80777 
L 205.148011 142.378417 
L 203.106548 144.598578 
L 201.065085 147.304073 
L 199.023621 149.499457 
L 196.982158 152.154092 
L 194.940694 154.720624 
L 192.899231 156.799607 
L 190.857768 159.256123 
L 188.816304 161.786293 
L 186.774841 163.754299 
L 184.733377 165.950633 
L 182.691914 167.934919 
L 180.65045 170.483297 
L 178.608987 172.626953 
L 176.567524 174.727156 
L 174.52606 176.83492 
L 172.484597 178.81465 
L 170.443133 180.684571 
L 168.40167 182.659623 
L 166.360207 184.770942 
L 164.318743 186.651855 
L 162.27728 188.533964 
L 160.235816 190.43466 
L 158.194353 192.182341 
L 156.152889 193.867616 
L 154.111426 195.643405 
L 152.069963 197.420416 
L 150.028499 198.84706 
L 147.987036 200.664811 
L 145.945572 202.080814 
L 143.904109 203.71219 
L 141.862646 205.423938 
L 139.821182 206.878478 
L 137.779719 207.815097 
L 135.738255 209.318248 
L 133.696792 210.380611 
L 131.655328 211.852394 
L 129.613865 213.398905 
L 127.572402 214.449758 
L 125.530938 215.514585 
L 123.489475 216.198273 
L 121.448011 217.176658 
L 119.406548 218.133841 
L 117.365085 218.987136 
L 115.323621 220.118463 
L 113.282158 221.159019 
L 111.240694 222.089001 
L 109.199231 222.333117 
L 107.157768 223.184365 
L 105.116304 223.229541 
L 103.074841 224.352726 
L 101.033377 224.940025 
L 98.991914 225.775057 
L 96.95045 225.084465 
L 94.908987 226.883101 
L 92.867524 227.190413 
L 90.82606 226.870111 
L 88.784597 227.041591 
L 86.743133 228.098376 
L 84.70167 229.522185 
L 82.660207 229.447254 
L 80.618743 229.770428 
L 78.57728 228.977855 
L 76.535816 229.461758 
L 74.494353 229.862202 
L 72.452889 230.793239 
L 70.411426 230.874662 
L 68.369963 230.952999 
L 66.328499 231.242575 
L 64.287036 231.853807 
L 62.245572 232.035573 
L 60.204109 232.39435 
L 58.162646 233.00766 
L 56.121182 232.859951 
L 54.079719 233.590837 
L 52.038255 233.846746 
L 49.996792 234.037609 
L 47.955328 234.546389 
L 45.913865 234.751882 
L 43.872402 235.234037 
L 41.830938 235.766113 
L 39.789475 235.838682 
L 37.748011 235.649629 
L 35.706548 235.556604 
L 33.665085 236.511178 
L 31.623621 236.045093 
L 29.582158 236.563605 
L 27.540694 236.32181 
L 25.499231 235.789101 
L 23.457768 236.314585 
L 21.416304 235.382282 
L 19.374841 235.161238 
L 17.333377 235.886693 
L 15.291914 234.919053 
L 13.25045 235.588384 
L 11.208987 235.784874 
L 9.167524 234.711914 
L 7.12606 231.934942 
L 5.084597 233.331339 
L 3.043133 232.395295 
L 1.00167 228.405916 
L -1.039793 231.462269 
L -3.081257 231.874765 
L -5.12272 228.188818 
L -7.164184 226.894448 
L -9.205647 228.406177 
L -11.247111 224.506434 
L -13.288574 217.862293 
L -15.330037 224.818815 
L -17.371501 226.992246 
L -19.412964 228.291078 
L -21.454428 219.369994 
L -23.495891 219.19384 
L -25.537354 214.584523 
L -27.578818 210.944102 
L -29.620281 217.44837 
L -31.661745 214.008389 
L -33.703208 207.846337 
L -35.744672 203.223926 
L -37.786135 202.575957 
L -39.827598 202.733823 
L -41.869062 201.045248 
L -43.910525 200.264321 
L -45.951989 201.830601 
L -47.993452 200.71565 
L -50.034915 198.563872 
L -52.076379 198.772071 
L -54.117842 197.454088 
L -56.159306 196.360628 
L -58.200769 195.603885 
L -60.242232 195.779539 
L -62.283696 195.410312 
L -64.325159 195.006276 
L -66.366623 195.004165 
L -68.408086 194.589586 
L -70.44955 194.384022 
L -72.491013 194.552559 
L -74.532476 194.642433 
L -76.57394 194.373408 
L -78.615403 194.30954 
L -80.656867 194.307876 
L -82.69833 194.137393 
L -84.739793 194.198105 
L -86.781257 194.469462 
L -88.82272 194.34718 
L -90.864184 194.117512 
L -92.905647 194.087201 
L -94.947111 194.110166 
L -96.988574 194.070105 
L -99.030037 194.032194 
L -101.071501 194.003195 
L -103.112964 194.137685 
L -105.154428 194.028173 
L -107.195891 194.0182 
L -109.237354 194.058336 
L -111.278818 194.063966 
L -113.320281 194.054308 
L -115.361745 194.000525 
L -117.403208 193.988777 
L -119.444672 194.062307 
L -121.486135 194.015531 
L -123.527598 194.015821 
L -125.569062 194.017314 
L -127.610525 194.003426 
L -129.651989 194.007467 
L -131.693452 194.033705 
L -133.734915 194.000682 
L -135.776379 194.027071 
L -137.817842 194.004048 
L -139.859306 194.013669 
L -141.900769 194.012296 
L -143.942232 194.004968 
L -145.983696 193.998453 
L -148.025159 194.008466 
L -150.066623 194.032166 
L -152.108086 194.004921 
L -154.14955 194.011823 
L -156.191013 194.000594 
L -158.232476 194.013369 
L -160.27394 193.991544 
L -162.315403 193.99753 
L -164.356867 194.005719 
L -166.39833 194.002802 
L -168.439793 193.998949 
L -170.481257 193.990873 
L -172.52272 194.004372 
L -174.564184 194.006667 
L -176.605647 193.988501 
L -178.647111 193.989874 
L -180.688574 193.991993 
L -182.730037 193.994508 
L -184.771501 193.993323 
L -186.812964 193.983947 
L -188.854428 193.986231 
L -190.895891 193.985874 
L -192.937354 193.985978 
L -194.978818 193.985454 
L -197.020281 193.988082 
L -199.061745 194.003495 
L -201.103208 193.983682 
L -203.144672 193.988424 
L -205.186135 193.990963 
L -207.227598 193.986475 
L -209.269062 193.986514 
L -211.310525 193.990369 
L -213.351989 193.988639 
L -215.393452 193.998473 
L -217.434915 193.989104 
L -219.476379 193.985906 
L -221.517842 193.99213 
L -223.559306 193.99637 
L -225.600769 193.986589 
L -227.642232 193.986257 
L -229.683696 193.983548 
L -231.725159 193.984755 
L -233.766623 193.987119 
L -235.808086 193.986023 
L -237.84955 193.996644 
L -239.891013 193.985412 
L -241.932476 193.989598 
L -243.97394 193.985166 
L -246.015403 194.005241 
L -248.056867 193.985026 
L -250.09833 193.988147 
L -252.139793 193.985807 
L -254.181257 193.988759 
L -256.22272 193.984627 
L -258.264184 193.983791 
L -260.305647 193.985102 
L -262.347111 193.989203 
L -264.388574 193.993088 
L -266.430037 193.986107 
L -268.471501 193.985149 
L -270.512964 193.986721 
L -272.554428 193.983664 
L -274.595891 193.985543 
L -276.637354 193.989225 
L -278.678818 193.987341 
L -280.720281 193.987652 
L -282.761745 193.990388 
L -284.803208 193.987097 
L -286.844672 193.984804 
L -288.886135 193.991919 
L -290.927598 193.993017 
L -292.969062 193.985158 
L -295.010525 193.994068 
L -297.051989 193.99705 
L -299.093452 193.986576 
L -301.134915 193.98908 
L -303.176379 193.983619 
L -305.217842 193.987251 
L -307.259306 193.986344 
L -309.300769 193.988602 
L -311.342232 193.989402 
L -313.383696 193.993075 
L -315.425159 193.99375 
L -317.466623 193.990068 
L -319.508086 193.989948 
L -321.54955 193.990568 
L -323.591013 193.986782 
L -325.632476 193.993369 
L -327.67394 193.992516 
L -329.715403 193.985018 
L -331.756867 193.992938 
L -333.79833 193.992713 
L -335.839793 193.987926 
L -337.881257 193.98997 
L -339.92272 193.993534 
L -341.964184 193.990787 
L -344.005647 193.994069 
L -346.047111 193.988172 
L -348.088574 193.992592 
L -350.130037 193.989387 
L -352.171501 193.989365 
L -354.212964 193.9924 
L -356.254428 193.988275 
L -358.295891 193.986499 
L -360.337354 193.990976 
L -362.378818 193.992128 
L -364.420281 193.99486 
L -366.461745 193.99259 
L -368.503208 193.997532 
L -370.544672 193.998313 
L -372.586135 194.000767 
L -374.627598 194.001584 
L -376.669062 193.995475 
L -378.710525 193.99425 
L -380.751989 193.99571 
L -382.793452 193.999942 
L -384.834915 193.996969 
L -386.876379 193.991203 
L -388.917842 193.993198 
L -390.959306 193.988088 
L -393.000769 193.986767 
z
" clip-path="url(#pa2aae12796)" style="fill: #008000; fill-opacity: 0.3; stroke: #008000; stroke-opacity: 0.3"/>
   </g>
   <g id="matplotlib.axis_1">
    <g id="xtick_1">
     <g id="line2d_1">
      <defs>
       <path id="m2244e9e38a" d="M 0 0 
L 0 3.5 
" style="stroke: #000000; stroke-width: 0.8"/>
      </defs>
      <g>
       <use xlink:href="#m2244e9e38a" x="103.074841" y="395.28" style="stroke: #000000; stroke-width: 0.8"/>
      </g>
     </g>
     <g id="text_1">
      <!-- 2022-03-01 -->
      <g transform="translate(17.945813 495.213718) rotate(-45) scale(0.2 -0.2)">
       <defs>
        <path id="DejaVuSans-32" d="M 1228 531 
L 3431 531 
L 3431 0 
L 469 0 
L 469 531 
Q 828 903 1448 1529 
Q 2069 2156 2228 2338 
Q 2531 2678 2651 2914 
Q 2772 3150 2772 3378 
Q 2772 3750 2511 3984 
Q 2250 4219 1831 4219 
Q 1534 4219 1204 4116 
Q 875 4013 500 3803 
L 500 4441 
Q 881 4594 1212 4672 
Q 1544 4750 1819 4750 
Q 2544 4750 2975 4387 
Q 3406 4025 3406 3419 
Q 3406 3131 3298 2873 
Q 3191 2616 2906 2266 
Q 2828 2175 2409 1742 
Q 1991 1309 1228 531 
z
" transform="scale(0.015625)"/>
        <path id="DejaVuSans-30" d="M 2034 4250 
Q 1547 4250 1301 3770 
Q 1056 3291 1056 2328 
Q 1056 1369 1301 889 
Q 1547 409 2034 409 
Q 2525 409 2770 889 
Q 3016 1369 3016 2328 
Q 3016 3291 2770 3770 
Q 2525 4250 2034 4250 
z
M 2034 4750 
Q 2819 4750 3233 4129 
Q 3647 3509 3647 2328 
Q 3647 1150 3233 529 
Q 2819 -91 2034 -91 
Q 1250 -91 836 529 
Q 422 1150 422 2328 
Q 422 3509 836 4129 
Q 1250 4750 2034 4750 
z
" transform="scale(0.015625)"/>
        <path id="DejaVuSans-2d" d="M 313 2009 
L 1997 2009 
L 1997 1497 
L 313 1497 
L 313 2009 
z
" transform="scale(0.015625)"/>
        <path id="DejaVuSans-33" d="M 2597 2516 
Q 3050 2419 3304 2112 
Q 3559 1806 3559 1356 
Q 3559 666 3084 287 
Q 2609 -91 1734 -91 
Q 1441 -91 1130 -33 
Q 819 25 488 141 
L 488 750 
Q 750 597 1062 519 
Q 1375 441 1716 441 
Q 2309 441 2620 675 
Q 2931 909 2931 1356 
Q 2931 1769 2642 2001 
Q 2353 2234 1838 2234 
L 1294 2234 
L 1294 2753 
L 1863 2753 
Q 2328 2753 2575 2939 
Q 2822 3125 2822 3475 
Q 2822 3834 2567 4026 
Q 2313 4219 1838 4219 
Q 1578 4219 1281 4162 
Q 984 4106 628 3988 
L 628 4550 
Q 988 4650 1302 4700 
Q 1616 4750 1894 4750 
Q 2613 4750 3031 4423 
Q 3450 4097 3450 3541 
Q 3450 3153 3228 2886 
Q 3006 2619 2597 2516 
z
" transform="scale(0.015625)"/>
        <path id="DejaVuSans-31" d="M 794 531 
L 1825 531 
L 1825 4091 
L 703 3866 
L 703 4441 
L 1819 4666 
L 2450 4666 
L 2450 531 
L 3481 531 
L 3481 0 
L 794 0 
L 794 531 
z
" transform="scale(0.015625)"/>
       </defs>
       <use xlink:href="#DejaVuSans-32"/>
       <use xlink:href="#DejaVuSans-30" x="63.623047"/>
       <use xlink:href="#DejaVuSans-32" x="127.246094"/>
       <use xlink:href="#DejaVuSans-32" x="190.869141"/>
       <use xlink:href="#DejaVuSans-2d" x="254.492188"/>
       <use xlink:href="#DejaVuSans-30" x="290.576172"/>
       <use xlink:href="#DejaVuSans-33" x="354.199219"/>
       <use xlink:href="#DejaVuSans-2d" x="417.822266"/>
       <use xlink:href="#DejaVuSans-30" x="453.90625"/>
       <use xlink:href="#DejaVuSans-31" x="517.529297"/>
      </g>
     </g>
    </g>
    <g id="xtick_2">
     <g id="line2d_2">
      <g>
       <use xlink:href="#m2244e9e38a" x="160.235816" y="395.28" style="stroke: #000000; stroke-width: 0.8"/>
      </g>
     </g>
     <g id="text_2">
      <!-- 2022-03-29 -->
      <g transform="translate(75.106789 495.213718) rotate(-45) scale(0.2 -0.2)">
       <defs>
        <path id="DejaVuSans-39" d="M 703 97 
L 703 672 
Q 941 559 1184 500 
Q 1428 441 1663 441 
Q 2288 441 2617 861 
Q 2947 1281 2994 2138 
Q 2813 1869 2534 1725 
Q 2256 1581 1919 1581 
Q 1219 1581 811 2004 
Q 403 2428 403 3163 
Q 403 3881 828 4315 
Q 1253 4750 1959 4750 
Q 2769 4750 3195 4129 
Q 3622 3509 3622 2328 
Q 3622 1225 3098 567 
Q 2575 -91 1691 -91 
Q 1453 -91 1209 -44 
Q 966 3 703 97 
z
M 1959 2075 
Q 2384 2075 2632 2365 
Q 2881 2656 2881 3163 
Q 2881 3666 2632 3958 
Q 2384 4250 1959 4250 
Q 1534 4250 1286 3958 
Q 1038 3666 1038 3163 
Q 1038 2656 1286 2365 
Q 1534 2075 1959 2075 
z
" transform="scale(0.015625)"/>
       </defs>
       <use xlink:href="#DejaVuSans-32"/>
       <use xlink:href="#DejaVuSans-30" x="63.623047"/>
       <use xlink:href="#DejaVuSans-32" x="127.246094"/>
       <use xlink:href="#DejaVuSans-32" x="190.869141"/>
       <use xlink:href="#DejaVuSans-2d" x="254.492188"/>
       <use xlink:href="#DejaVuSans-30" x="290.576172"/>
       <use xlink:href="#DejaVuSans-33" x="354.199219"/>
       <use xlink:href="#DejaVuSans-2d" x="417.822266"/>
       <use xlink:href="#DejaVuSans-32" x="453.90625"/>
       <use xlink:href="#DejaVuSans-39" x="517.529297"/>
      </g>
     </g>
    </g>
    <g id="xtick_3">
     <g id="line2d_3">
      <g>
       <use xlink:href="#m2244e9e38a" x="217.396792" y="395.28" style="stroke: #000000; stroke-width: 0.8"/>
      </g>
     </g>
     <g id="text_3">
      <!-- 2022-04-26 -->
      <g transform="translate(132.267765 495.213718) rotate(-45) scale(0.2 -0.2)">
       <defs>
        <path id="DejaVuSans-34" d="M 2419 4116 
L 825 1625 
L 2419 1625 
L 2419 4116 
z
M 2253 4666 
L 3047 4666 
L 3047 1625 
L 3713 1625 
L 3713 1100 
L 3047 1100 
L 3047 0 
L 2419 0 
L 2419 1100 
L 313 1100 
L 313 1709 
L 2253 4666 
z
" transform="scale(0.015625)"/>
        <path id="DejaVuSans-36" d="M 2113 2584 
Q 1688 2584 1439 2293 
Q 1191 2003 1191 1497 
Q 1191 994 1439 701 
Q 1688 409 2113 409 
Q 2538 409 2786 701 
Q 3034 994 3034 1497 
Q 3034 2003 2786 2293 
Q 2538 2584 2113 2584 
z
M 3366 4563 
L 3366 3988 
Q 3128 4100 2886 4159 
Q 2644 4219 2406 4219 
Q 1781 4219 1451 3797 
Q 1122 3375 1075 2522 
Q 1259 2794 1537 2939 
Q 1816 3084 2150 3084 
Q 2853 3084 3261 2657 
Q 3669 2231 3669 1497 
Q 3669 778 3244 343 
Q 2819 -91 2113 -91 
Q 1303 -91 875 529 
Q 447 1150 447 2328 
Q 447 3434 972 4092 
Q 1497 4750 2381 4750 
Q 2619 4750 2861 4703 
Q 3103 4656 3366 4563 
z
" transform="scale(0.015625)"/>
       </defs>
       <use xlink:href="#DejaVuSans-32"/>
       <use xlink:href="#DejaVuSans-30" x="63.623047"/>
       <use xlink:href="#DejaVuSans-32" x="127.246094"/>
       <use xlink:href="#DejaVuSans-32" x="190.869141"/>
       <use xlink:href="#DejaVuSans-2d" x="254.492188"/>
       <use xlink:href="#DejaVuSans-30" x="290.576172"/>
       <use xlink:href="#DejaVuSans-34" x="354.199219"/>
       <use xlink:href="#DejaVuSans-2d" x="417.822266"/>
       <use xlink:href="#DejaVuSans-32" x="453.90625"/>
       <use xlink:href="#DejaVuSans-36" x="517.529297"/>
      </g>
     </g>
    </g>
    <g id="xtick_4">
     <g id="line2d_4">
      <g>
       <use xlink:href="#m2244e9e38a" x="274.557768" y="395.28" style="stroke: #000000; stroke-width: 0.8"/>
      </g>
     </g>
     <g id="text_4">
      <!-- 2022-05-24 -->
      <g transform="translate(189.42874 495.213718) rotate(-45) scale(0.2 -0.2)">
       <defs>
        <path id="DejaVuSans-35" d="M 691 4666 
L 3169 4666 
L 3169 4134 
L 1269 4134 
L 1269 2991 
Q 1406 3038 1543 3061 
Q 1681 3084 1819 3084 
Q 2600 3084 3056 2656 
Q 3513 2228 3513 1497 
Q 3513 744 3044 326 
Q 2575 -91 1722 -91 
Q 1428 -91 1123 -41 
Q 819 9 494 109 
L 494 744 
Q 775 591 1075 516 
Q 1375 441 1709 441 
Q 2250 441 2565 725 
Q 2881 1009 2881 1497 
Q 2881 1984 2565 2268 
Q 2250 2553 1709 2553 
Q 1456 2553 1204 2497 
Q 953 2441 691 2322 
L 691 4666 
z
" transform="scale(0.015625)"/>
       </defs>
       <use xlink:href="#DejaVuSans-32"/>
       <use xlink:href="#DejaVuSans-30" x="63.623047"/>
       <use xlink:href="#DejaVuSans-32" x="127.246094"/>
       <use xlink:href="#DejaVuSans-32" x="190.869141"/>
       <use xlink:href="#DejaVuSans-2d" x="254.492188"/>
       <use xlink:href="#DejaVuSans-30" x="290.576172"/>
       <use xlink:href="#DejaVuSans-35" x="354.199219"/>
       <use xlink:href="#DejaVuSans-2d" x="417.822266"/>
       <use xlink:href="#DejaVuSans-32" x="453.90625"/>
       <use xlink:href="#DejaVuSans-34" x="517.529297"/>
      </g>
     </g>
    </g>
    <g id="xtick_5">
     <g id="line2d_5">
      <g>
       <use xlink:href="#m2244e9e38a" x="331.718743" y="395.28" style="stroke: #000000; stroke-width: 0.8"/>
      </g>
     </g>
     <g id="text_5">
      <!-- 2022-06-21 -->
      <g transform="translate(246.589716 495.213718) rotate(-45) scale(0.2 -0.2)">
       <use xlink:href="#DejaVuSans-32"/>
       <use xlink:href="#DejaVuSans-30" x="63.623047"/>
       <use xlink:href="#DejaVuSans-32" x="127.246094"/>
       <use xlink:href="#DejaVuSans-32" x="190.869141"/>
       <use xlink:href="#DejaVuSans-2d" x="254.492188"/>
       <use xlink:href="#DejaVuSans-30" x="290.576172"/>
       <use xlink:href="#DejaVuSans-36" x="354.199219"/>
       <use xlink:href="#DejaVuSans-2d" x="417.822266"/>
       <use xlink:href="#DejaVuSans-32" x="453.90625"/>
       <use xlink:href="#DejaVuSans-31" x="517.529297"/>
      </g>
     </g>
    </g>
    <g id="xtick_6">
     <g id="line2d_6">
      <g>
       <use xlink:href="#m2244e9e38a" x="388.879719" y="395.28" style="stroke: #000000; stroke-width: 0.8"/>
      </g>
     </g>
     <g id="text_6">
      <!-- 2022-07-19 -->
      <g transform="translate(303.750691 495.213718) rotate(-45) scale(0.2 -0.2)">
       <defs>
        <path id="DejaVuSans-37" d="M 525 4666 
L 3525 4666 
L 3525 4397 
L 1831 0 
L 1172 0 
L 2766 4134 
L 525 4134 
L 525 4666 
z
" transform="scale(0.015625)"/>
       </defs>
       <use xlink:href="#DejaVuSans-32"/>
       <use xlink:href="#DejaVuSans-30" x="63.623047"/>
       <use xlink:href="#DejaVuSans-32" x="127.246094"/>
       <use xlink:href="#DejaVuSans-32" x="190.869141"/>
       <use xlink:href="#DejaVuSans-2d" x="254.492188"/>
       <use xlink:href="#DejaVuSans-30" x="290.576172"/>
       <use xlink:href="#DejaVuSans-37" x="354.199219"/>
       <use xlink:href="#DejaVuSans-2d" x="417.822266"/>
       <use xlink:href="#DejaVuSans-31" x="453.90625"/>
       <use xlink:href="#DejaVuSans-39" x="517.529297"/>
      </g>
     </g>
    </g>
    <g id="xtick_7">
     <g id="line2d_7">
      <g>
       <use xlink:href="#m2244e9e38a" x="446.040694" y="395.28" style="stroke: #000000; stroke-width: 0.8"/>
      </g>
     </g>
     <g id="text_7">
      <!-- 2022-08-16 -->
      <g transform="translate(360.911667 495.213718) rotate(-45) scale(0.2 -0.2)">
       <defs>
        <path id="DejaVuSans-38" d="M 2034 2216 
Q 1584 2216 1326 1975 
Q 1069 1734 1069 1313 
Q 1069 891 1326 650 
Q 1584 409 2034 409 
Q 2484 409 2743 651 
Q 3003 894 3003 1313 
Q 3003 1734 2745 1975 
Q 2488 2216 2034 2216 
z
M 1403 2484 
Q 997 2584 770 2862 
Q 544 3141 544 3541 
Q 544 4100 942 4425 
Q 1341 4750 2034 4750 
Q 2731 4750 3128 4425 
Q 3525 4100 3525 3541 
Q 3525 3141 3298 2862 
Q 3072 2584 2669 2484 
Q 3125 2378 3379 2068 
Q 3634 1759 3634 1313 
Q 3634 634 3220 271 
Q 2806 -91 2034 -91 
Q 1263 -91 848 271 
Q 434 634 434 1313 
Q 434 1759 690 2068 
Q 947 2378 1403 2484 
z
M 1172 3481 
Q 1172 3119 1398 2916 
Q 1625 2713 2034 2713 
Q 2441 2713 2670 2916 
Q 2900 3119 2900 3481 
Q 2900 3844 2670 4047 
Q 2441 4250 2034 4250 
Q 1625 4250 1398 4047 
Q 1172 3844 1172 3481 
z
" transform="scale(0.015625)"/>
       </defs>
       <use xlink:href="#DejaVuSans-32"/>
       <use xlink:href="#DejaVuSans-30" x="63.623047"/>
       <use xlink:href="#DejaVuSans-32" x="127.246094"/>
       <use xlink:href="#DejaVuSans-32" x="190.869141"/>
       <use xlink:href="#DejaVuSans-2d" x="254.492188"/>
       <use xlink:href="#DejaVuSans-30" x="290.576172"/>
       <use xlink:href="#DejaVuSans-38" x="354.199219"/>
       <use xlink:href="#DejaVuSans-2d" x="417.822266"/>
       <use xlink:href="#DejaVuSans-31" x="453.90625"/>
       <use xlink:href="#DejaVuSans-36" x="517.529297"/>
      </g>
     </g>
    </g>
    <g id="xtick_8">
     <g id="line2d_8">
      <g>
       <use xlink:href="#m2244e9e38a" x="503.20167" y="395.28" style="stroke: #000000; stroke-width: 0.8"/>
      </g>
     </g>
     <g id="text_8">
      <!-- 2022-09-13 -->
      <g transform="translate(418.072643 495.213718) rotate(-45) scale(0.2 -0.2)">
       <use xlink:href="#DejaVuSans-32"/>
       <use xlink:href="#DejaVuSans-30" x="63.623047"/>
       <use xlink:href="#DejaVuSans-32" x="127.246094"/>
       <use xlink:href="#DejaVuSans-32" x="190.869141"/>
       <use xlink:href="#DejaVuSans-2d" x="254.492188"/>
       <use xlink:href="#DejaVuSans-30" x="290.576172"/>
       <use xlink:href="#DejaVuSans-39" x="354.199219"/>
       <use xlink:href="#DejaVuSans-2d" x="417.822266"/>
       <use xlink:href="#DejaVuSans-31" x="453.90625"/>
       <use xlink:href="#DejaVuSans-33" x="517.529297"/>
      </g>
     </g>
    </g>
    <g id="xtick_9">
     <g id="line2d_9">
      <g>
       <use xlink:href="#m2244e9e38a" x="560.362646" y="395.28" style="stroke: #000000; stroke-width: 0.8"/>
      </g>
     </g>
     <g id="text_9">
      <!-- 2022-10-11 -->
      <g transform="translate(475.233618 495.213718) rotate(-45) scale(0.2 -0.2)">
       <use xlink:href="#DejaVuSans-32"/>
       <use xlink:href="#DejaVuSans-30" x="63.623047"/>
       <use xlink:href="#DejaVuSans-32" x="127.246094"/>
       <use xlink:href="#DejaVuSans-32" x="190.869141"/>
       <use xlink:href="#DejaVuSans-2d" x="254.492188"/>
       <use xlink:href="#DejaVuSans-31" x="290.576172"/>
       <use xlink:href="#DejaVuSans-30" x="354.199219"/>
       <use xlink:href="#DejaVuSans-2d" x="417.822266"/>
       <use xlink:href="#DejaVuSans-31" x="453.90625"/>
       <use xlink:href="#DejaVuSans-31" x="517.529297"/>
      </g>
     </g>
    </g>
    <g id="xtick_10">
     <g id="line2d_10">
      <g>
       <use xlink:href="#m2244e9e38a" x="617.523621" y="395.28" style="stroke: #000000; stroke-width: 0.8"/>
      </g>
     </g>
     <g id="text_10">
      <!-- 2022-11-08 -->
      <g transform="translate(532.394594 495.213718) rotate(-45) scale(0.2 -0.2)">
       <use xlink:href="#DejaVuSans-32"/>
       <use xlink:href="#DejaVuSans-30" x="63.623047"/>
       <use xlink:href="#DejaVuSans-32" x="127.246094"/>
       <use xlink:href="#DejaVuSans-32" x="190.869141"/>
       <use xlink:href="#DejaVuSans-2d" x="254.492188"/>
       <use xlink:href="#DejaVuSans-31" x="290.576172"/>
       <use xlink:href="#DejaVuSans-31" x="354.199219"/>
       <use xlink:href="#DejaVuSans-2d" x="417.822266"/>
       <use xlink:href="#DejaVuSans-30" x="453.90625"/>
       <use xlink:href="#DejaVuSans-38" x="517.529297"/>
      </g>
     </g>
    </g>
    <g id="xtick_11">
     <g id="line2d_11">
      <g>
       <use xlink:href="#m2244e9e38a" x="674.684597" y="395.28" style="stroke: #000000; stroke-width: 0.8"/>
      </g>
     </g>
     <g id="text_11">
      <!-- 2022-12-06 -->
      <g transform="translate(589.555569 495.213718) rotate(-45) scale(0.2 -0.2)">
       <use xlink:href="#DejaVuSans-32"/>
       <use xlink:href="#DejaVuSans-30" x="63.623047"/>
       <use xlink:href="#DejaVuSans-32" x="127.246094"/>
       <use xlink:href="#DejaVuSans-32" x="190.869141"/>
       <use xlink:href="#DejaVuSans-2d" x="254.492188"/>
       <use xlink:href="#DejaVuSans-31" x="290.576172"/>
       <use xlink:href="#DejaVuSans-32" x="354.199219"/>
       <use xlink:href="#DejaVuSans-2d" x="417.822266"/>
       <use xlink:href="#DejaVuSans-30" x="453.90625"/>
       <use xlink:href="#DejaVuSans-36" x="517.529297"/>
      </g>
     </g>
    </g>
    <g id="xtick_12">
     <g id="line2d_12">
      <g>
       <use xlink:href="#m2244e9e38a" x="731.845572" y="395.28" style="stroke: #000000; stroke-width: 0.8"/>
      </g>
     </g>
     <g id="text_12">
      <!-- 2023-01-03 -->
      <g transform="translate(646.716545 495.213718) rotate(-45) scale(0.2 -0.2)">
       <use xlink:href="#DejaVuSans-32"/>
       <use xlink:href="#DejaVuSans-30" x="63.623047"/>
       <use xlink:href="#DejaVuSans-32" x="127.246094"/>
       <use xlink:href="#DejaVuSans-33" x="190.869141"/>
       <use xlink:href="#DejaVuSans-2d" x="254.492188"/>
       <use xlink:href="#DejaVuSans-30" x="290.576172"/>
       <use xlink:href="#DejaVuSans-31" x="354.199219"/>
       <use xlink:href="#DejaVuSans-2d" x="417.822266"/>
       <use xlink:href="#DejaVuSans-30" x="453.90625"/>
       <use xlink:href="#DejaVuSans-33" x="517.529297"/>
      </g>
     </g>
    </g>
    <g id="xtick_13">
     <g id="line2d_13">
      <g>
       <use xlink:href="#m2244e9e38a" x="789.006548" y="395.28" style="stroke: #000000; stroke-width: 0.8"/>
      </g>
     </g>
     <g id="text_13">
      <!-- 2023-01-31 -->
      <g transform="translate(703.877521 495.213718) rotate(-45) scale(0.2 -0.2)">
       <use xlink:href="#DejaVuSans-32"/>
       <use xlink:href="#DejaVuSans-30" x="63.623047"/>
       <use xlink:href="#DejaVuSans-32" x="127.246094"/>
       <use xlink:href="#DejaVuSans-33" x="190.869141"/>
       <use xlink:href="#DejaVuSans-2d" x="254.492188"/>
       <use xlink:href="#DejaVuSans-30" x="290.576172"/>
       <use xlink:href="#DejaVuSans-31" x="354.199219"/>
       <use xlink:href="#DejaVuSans-2d" x="417.822266"/>
       <use xlink:href="#DejaVuSans-33" x="453.90625"/>
       <use xlink:href="#DejaVuSans-31" x="517.529297"/>
      </g>
     </g>
    </g>
    <g id="xtick_14">
     <g id="line2d_14">
      <g>
       <use xlink:href="#m2244e9e38a" x="846.167524" y="395.28" style="stroke: #000000; stroke-width: 0.8"/>
      </g>
     </g>
     <g id="text_14">
      <!-- 2023-02-28 -->
      <g transform="translate(761.038496 495.213718) rotate(-45) scale(0.2 -0.2)">
       <use xlink:href="#DejaVuSans-32"/>
       <use xlink:href="#DejaVuSans-30" x="63.623047"/>
       <use xlink:href="#DejaVuSans-32" x="127.246094"/>
       <use xlink:href="#DejaVuSans-33" x="190.869141"/>
       <use xlink:href="#DejaVuSans-2d" x="254.492188"/>
       <use xlink:href="#DejaVuSans-30" x="290.576172"/>
       <use xlink:href="#DejaVuSans-32" x="354.199219"/>
       <use xlink:href="#DejaVuSans-2d" x="417.822266"/>
       <use xlink:href="#DejaVuSans-32" x="453.90625"/>
       <use xlink:href="#DejaVuSans-38" x="517.529297"/>
      </g>
     </g>
    </g>
    <g id="xtick_15">
     <g id="line2d_15">
      <g>
       <use xlink:href="#m2244e9e38a" x="903.328499" y="395.28" style="stroke: #000000; stroke-width: 0.8"/>
      </g>
     </g>
     <g id="text_15">
      <!-- 2023-03-28 -->
      <g transform="translate(818.199472 495.213718) rotate(-45) scale(0.2 -0.2)">
       <use xlink:href="#DejaVuSans-32"/>
       <use xlink:href="#DejaVuSans-30" x="63.623047"/>
       <use xlink:href="#DejaVuSans-32" x="127.246094"/>
       <use xlink:href="#DejaVuSans-33" x="190.869141"/>
       <use xlink:href="#DejaVuSans-2d" x="254.492188"/>
       <use xlink:href="#DejaVuSans-30" x="290.576172"/>
       <use xlink:href="#DejaVuSans-33" x="354.199219"/>
       <use xlink:href="#DejaVuSans-2d" x="417.822266"/>
       <use xlink:href="#DejaVuSans-32" x="453.90625"/>
       <use xlink:href="#DejaVuSans-38" x="517.529297"/>
      </g>
     </g>
    </g>
    <g id="xtick_16">
     <g id="line2d_16">
      <g>
       <use xlink:href="#m2244e9e38a" x="940.074841" y="395.28" style="stroke: #000000; stroke-width: 0.8"/>
      </g>
     </g>
     <g id="text_16">
      <!-- 2023-04-15 -->
      <g transform="translate(854.945813 495.213718) rotate(-45) scale(0.2 -0.2)">
       <use xlink:href="#DejaVuSans-32"/>
       <use xlink:href="#DejaVuSans-30" x="63.623047"/>
       <use xlink:href="#DejaVuSans-32" x="127.246094"/>
       <use xlink:href="#DejaVuSans-33" x="190.869141"/>
       <use xlink:href="#DejaVuSans-2d" x="254.492188"/>
       <use xlink:href="#DejaVuSans-30" x="290.576172"/>
       <use xlink:href="#DejaVuSans-34" x="354.199219"/>
       <use xlink:href="#DejaVuSans-2d" x="417.822266"/>
       <use xlink:href="#DejaVuSans-31" x="453.90625"/>
       <use xlink:href="#DejaVuSans-35" x="517.529297"/>
      </g>
     </g>
    </g>
   </g>
   <g id="matplotlib.axis_2">
    <g id="ytick_1">
     <g id="line2d_17">
      <defs>
       <path id="m7647a0ecd8" d="M 0 0 
L -3.5 0 
" style="stroke: #000000; stroke-width: 0.8"/>
      </defs>
      <g>
       <use xlink:href="#m7647a0ecd8" x="103.074841" y="337.910176" style="stroke: #000000; stroke-width: 0.8"/>
      </g>
     </g>
     <g id="text_17">
      <!-- 0.2 -->
      <g transform="translate(47.509216 345.508614) scale(0.2 -0.2)">
       <defs>
        <path id="DejaVuSans-2212" d="M 678 2272 
L 4684 2272 
L 4684 1741 
L 678 1741 
L 678 2272 
z
" transform="scale(0.015625)"/>
        <path id="DejaVuSans-2e" d="M 684 794 
L 1344 794 
L 1344 0 
L 684 0 
L 684 794 
z
" transform="scale(0.015625)"/>
       </defs>
       <use xlink:href="#DejaVuSans-2212"/>
       <use xlink:href="#DejaVuSans-30" x="83.789062"/>
       <use xlink:href="#DejaVuSans-2e" x="147.412109"/>
       <use xlink:href="#DejaVuSans-32" x="179.199219"/>
      </g>
     </g>
    </g>
    <g id="ytick_2">
     <g id="line2d_18">
      <g>
       <use xlink:href="#m7647a0ecd8" x="103.074841" y="265.946722" style="stroke: #000000; stroke-width: 0.8"/>
      </g>
     </g>
     <g id="text_18">
      <!-- 0.1 -->
      <g transform="translate(47.509216 273.545159) scale(0.2 -0.2)">
       <use xlink:href="#DejaVuSans-2212"/>
       <use xlink:href="#DejaVuSans-30" x="83.789062"/>
       <use xlink:href="#DejaVuSans-2e" x="147.412109"/>
       <use xlink:href="#DejaVuSans-31" x="179.199219"/>
      </g>
     </g>
    </g>
    <g id="ytick_3">
     <g id="line2d_19">
      <g>
       <use xlink:href="#m7647a0ecd8" x="103.074841" y="193.983267" style="stroke: #000000; stroke-width: 0.8"/>
      </g>
     </g>
     <g id="text_19">
      <!-- 0.0 -->
      <g transform="translate(64.268591 201.581705) scale(0.2 -0.2)">
       <use xlink:href="#DejaVuSans-30"/>
       <use xlink:href="#DejaVuSans-2e" x="63.623047"/>
       <use xlink:href="#DejaVuSans-30" x="95.410156"/>
      </g>
     </g>
    </g>
    <g id="ytick_4">
     <g id="line2d_20">
      <g>
       <use xlink:href="#m7647a0ecd8" x="103.074841" y="122.019813" style="stroke: #000000; stroke-width: 0.8"/>
      </g>
     </g>
     <g id="text_20">
      <!-- 0.1 -->
      <g transform="translate(64.268591 129.61825) scale(0.2 -0.2)">
       <use xlink:href="#DejaVuSans-30"/>
       <use xlink:href="#DejaVuSans-2e" x="63.623047"/>
       <use xlink:href="#DejaVuSans-31" x="95.410156"/>
      </g>
     </g>
    </g>
    <g id="ytick_5">
     <g id="line2d_21">
      <g>
       <use xlink:href="#m7647a0ecd8" x="103.074841" y="50.056359" style="stroke: #000000; stroke-width: 0.8"/>
      </g>
     </g>
     <g id="text_21">
      <!-- 0.2 -->
      <g transform="translate(64.268591 57.654796) scale(0.2 -0.2)">
       <use xlink:href="#DejaVuSans-30"/>
       <use xlink:href="#DejaVuSans-2e" x="63.623047"/>
       <use xlink:href="#DejaVuSans-32" x="95.410156"/>
      </g>
     </g>
    </g>
   </g>
   <g id="line2d_22">
    <path d="M 940.074841 193.983267 
" clip-path="url(#pa2aae12796)" style="fill: none; stroke: #ffa500; stroke-width: 1.5; stroke-linecap: square"/>
   </g>
   <g id="line2d_23">
    <path d="M 103.074841 193.983267 
L 948.274841 193.983267 
" clip-path="url(#pa2aae12796)" style="fill: none; stroke-dasharray: 7.4,3.2; stroke-dashoffset: 0; stroke: #000000; stroke-width: 2"/>
   </g>
   <g id="patch_3">
    <path d="M 103.074841 395.28 
L 103.074841 7.2 
" style="fill: none; stroke: #000000; stroke-width: 0.8; stroke-linejoin: miter; stroke-linecap: square"/>
   </g>
   <g id="patch_4">
    <path d="M 940.074841 395.28 
L 940.074841 7.2 
" style="fill: none; stroke: #000000; stroke-width: 0.8; stroke-linejoin: miter; stroke-linecap: square"/>
   </g>
   <g id="patch_5">
    <path d="M 103.074841 395.28 
L 940.074841 395.28 
" style="fill: none; stroke: #000000; stroke-width: 0.8; stroke-linejoin: miter; stroke-linecap: square"/>
   </g>
   <g id="patch_6">
    <path d="M 103.074841 7.2 
L 940.074841 7.2 
" style="fill: none; stroke: #000000; stroke-width: 0.8; stroke-linejoin: miter; stroke-linecap: square"/>
   </g>
  </g>
 </g>
 <defs>
  <clipPath id="pa2aae12796">
   <rect x="103.074841" y="7.2" width="837" height="388.08"/>
  </clipPath>
 </defs>
</svg>
