<?xml version="1.0" encoding="utf-8" standalone="no"?>
<!DOCTYPE svg PUBLIC "-//W3C//DTD SVG 1.1//EN"
  "http://www.w3.org/Graphics/SVG/1.1/DTD/svg11.dtd">
<svg xmlns:xlink="http://www.w3.org/1999/xlink" width="947.274841pt" height="505.354841pt" viewBox="0 0 947.274841 505.354841" xmlns="http://www.w3.org/2000/svg" version="1.1">
 <metadata>
  <rdf:RDF xmlns:dc="http://purl.org/dc/elements/1.1/" xmlns:cc="http://creativecommons.org/ns#" xmlns:rdf="http://www.w3.org/1999/02/22-rdf-syntax-ns#">
   <cc:Work>
    <dc:type rdf:resource="http://purl.org/dc/dcmitype/StillImage"/>
    <dc:date>2023-11-15T19:57:36.134781</dc:date>
    <dc:format>image/svg+xml</dc:format>
    <dc:creator>
     <cc:Agent>
      <dc:title>Matplotlib v3.7.2, https://matplotlib.org/</dc:title>
     </cc:Agent>
    </dc:creator>
   </cc:Work>
  </rdf:RDF>
 </metadata>
 <defs>
  <style type="text/css">*{stroke-linejoin: round; stroke-linecap: butt}</style>
 </defs>
 <g id="figure_1">
  <g id="patch_1">
   <path d="M 0 505.354841 
L 947.274841 505.354841 
L 947.274841 -0 
L 0 -0 
z
" style="fill: #ffffff"/>
  </g>
  <g id="axes_1">
   <g id="patch_2">
    <path d="M 103.074841 395.28 
L 940.074841 395.28 
L 940.074841 7.2 
L 103.074841 7.2 
z
" style="fill: #ffffff"/>
   </g>
   <g id="PolyCollection_1">
    <path d="M -393.000769 286.323981 
L -393.000769 286.327794 
L -390.959306 286.28727 
L -388.917842 286.26443 
L -386.876379 286.233333 
L -384.834915 286.224414 
L -382.793452 286.207496 
L -380.751989 286.181289 
L -378.710525 286.156338 
L -376.669062 286.135376 
L -374.627598 286.123891 
L -372.586135 286.102225 
L -370.544672 286.079105 
L -368.503208 286.059532 
L -366.461745 286.024815 
L -364.420281 286.003443 
L -362.378818 285.971886 
L -360.337354 285.951596 
L -358.295891 285.909515 
L -356.254428 285.883571 
L -354.212964 285.861318 
L -352.171501 285.828026 
L -350.130037 285.798284 
L -348.088574 285.771606 
L -346.047111 285.730704 
L -344.005647 285.703618 
L -341.964184 285.664475 
L -339.92272 285.626429 
L -337.881257 285.580749 
L -335.839793 285.534752 
L -333.79833 285.494674 
L -331.756867 285.44109 
L -329.715403 285.374303 
L -327.67394 285.327209 
L -325.632476 285.267715 
L -323.591013 285.192712 
L -321.54955 285.133893 
L -319.508086 285.054401 
L -317.466623 284.977307 
L -315.425159 284.90044 
L -313.383696 284.819621 
L -311.342232 284.724298 
L -309.300769 284.621641 
L -307.259306 284.511861 
L -305.217842 284.417621 
L -303.176379 284.289797 
L -301.134915 284.182189 
L -299.093452 284.064469 
L -297.051989 283.952589 
L -295.010525 283.825798 
L -292.969062 283.68023 
L -290.927598 283.564659 
L -288.886135 283.42059 
L -286.844672 283.270026 
L -284.803208 283.131281 
L -282.761745 283.001069 
L -280.720281 282.846948 
L -278.678818 282.693136 
L -276.637354 282.544112 
L -274.595891 282.383731 
L -272.554428 282.222809 
L -270.512964 282.066848 
L -268.471501 281.901474 
L -266.430037 281.738585 
L -264.388574 281.585501 
L -262.347111 281.419321 
L -260.305647 281.226896 
L -258.264184 281.050225 
L -256.22272 280.876152 
L -254.181257 280.709731 
L -252.139793 280.526844 
L -250.09833 280.354042 
L -248.056867 280.173521 
L -246.015403 280.033401 
L -243.97394 279.823762 
L -241.932476 279.672947 
L -239.891013 279.482938 
L -237.84955 279.311737 
L -235.808086 279.118521 
L -233.766623 278.96621 
L -231.725159 278.756792 
L -229.683696 278.571671 
L -227.642232 278.407366 
L -225.600769 278.208634 
L -223.559306 278.039598 
L -221.517842 277.853294 
L -219.476379 277.659471 
L -217.434915 277.478546 
L -215.393452 277.308008 
L -213.351989 277.114751 
L -211.310525 276.936311 
L -209.269062 276.748087 
L -207.227598 276.564657 
L -205.186135 276.393868 
L -203.144672 276.216478 
L -201.103208 276.033938 
L -199.061745 275.888657 
L -197.020281 275.693845 
L -194.978818 275.521906 
L -192.937354 275.357305 
L -190.895891 275.190452 
L -188.854428 275.022801 
L -186.812964 274.848777 
L -184.771501 274.691139 
L -182.730037 274.517776 
L -180.688574 274.334252 
L -178.647111 274.146003 
L -176.605647 273.953546 
L -174.564184 273.786779 
L -172.52272 273.583665 
L -170.481257 273.354814 
L -168.439793 273.154271 
L -166.39833 272.933569 
L -164.356867 272.708635 
L -162.315403 272.462065 
L -160.27394 272.210206 
L -158.232476 271.994794 
L -156.191013 271.72133 
L -154.14955 271.475907 
L -152.108086 271.197934 
L -150.066623 270.964868 
L -148.025159 270.653298 
L -145.983696 270.356214 
L -143.942232 270.077927 
L -141.900769 269.79408 
L -139.859306 269.4975 
L -137.817842 269.18007 
L -135.776379 268.902423 
L -133.734915 268.550678 
L -131.693452 268.276972 
L -129.651989 267.91533 
L -127.610525 267.577404 
L -125.569062 267.25808 
L -123.527598 266.968081 
L -121.486135 266.586638 
L -119.444672 266.274443 
L -117.403208 265.803512 
L -115.361745 265.445358 
L -113.320281 265.138197 
L -111.278818 264.758088 
L -109.237354 264.36753 
L -107.195891 263.877303 
L -105.154428 263.447423 
L -103.112964 263.154072 
L -101.071501 262.499357 
L -99.030037 262.055633 
L -96.988574 261.606963 
L -94.947111 261.140838 
L -92.905647 260.570321 
L -90.864184 260.07414 
L -88.82272 259.818406 
L -86.781257 259.388829 
L -84.739793 258.411773 
L -82.69833 257.684307 
L -80.656867 257.292278 
L -78.615403 256.573062 
L -76.57394 256.083334 
L -74.532476 255.742663 
L -72.491013 254.955506 
L -70.44955 253.996557 
L -68.408086 253.538643 
L -66.366623 253.470946 
L -64.325159 252.798266 
L -62.283696 252.844029 
L -60.242232 252.546515 
L -58.200769 251.780035 
L -56.159306 252.169541 
L -54.117842 253.04315 
L -52.076379 254.49248 
L -50.034915 253.684478 
L -47.993452 256.426359 
L -45.951989 257.390692 
L -43.910525 254.500601 
L -41.869062 255.75162 
L -39.827598 257.513168 
L -37.786135 256.964823 
L -35.744672 257.078325 
L -33.703208 263.472387 
L -31.661745 272.425719 
L -29.620281 277.006303 
L -27.578818 267.746286 
L -25.537354 272.878534 
L -23.495891 279.384987 
L -21.454428 279.190831 
L -19.412964 292.25018 
L -17.371501 290.505646 
L -15.330037 286.693522 
L -13.288574 276.885223 
L -11.247111 286.252421 
L -9.205647 291.83329 
L -7.164184 289.414784 
L -5.12272 290.97895 
L -3.081257 296.106696 
L -1.039793 295.363906 
L 1.00167 291.01403 
L 3.043133 296.522033 
L 5.084597 297.789757 
L 7.12606 295.671115 
L 9.167524 299.412365 
L 11.208987 300.691373 
L 13.25045 300.412221 
L 15.291914 299.226189 
L 17.333377 300.38493 
L 19.374841 299.118869 
L 21.416304 299.2106 
L 23.457768 300.38523 
L 25.499231 299.415152 
L 27.540694 299.984332 
L 29.582158 300.099485 
L 31.623621 299.113968 
L 33.665085 299.537387 
L 35.706548 298.005796 
L 37.748011 298.373733 
L 39.789475 298.831242 
L 41.830938 298.956128 
L 43.872402 298.305895 
L 45.913865 297.725349 
L 47.955328 297.703954 
L 49.996792 297.197101 
L 52.038255 297.218856 
L 54.079719 297.208205 
L 56.121182 296.333377 
L 58.162646 296.983151 
L 60.204109 296.425982 
L 62.245572 296.151013 
L 64.287036 296.454539 
L 66.328499 295.928311 
L 68.369963 295.899982 
L 70.411426 296.267516 
L 72.452889 296.75975 
L 74.494353 295.795612 
L 76.535816 295.410773 
L 78.57728 295.55766 
L 80.618743 297.46535 
L 82.660207 297.606642 
L 84.70167 298.391988 
L 86.743133 296.702136 
L 88.784597 295.758563 
L 90.82606 296.127435 
L 92.867524 297.339999 
L 94.908987 297.561287 
L 96.95045 295.627069 
L 98.991914 297.325554 
L 101.033377 296.599265 
L 103.074841 296.47851 
L 105.116304 295.457248 
L 107.157768 296.164585 
L 109.199231 295.765767 
L 111.240694 296.208898 
L 113.282158 295.446734 
L 115.323621 294.909126 
L 117.365085 293.986034 
L 119.406548 293.551974 
L 121.448011 293.141201 
L 123.489475 292.463857 
L 125.530938 292.297428 
L 127.572402 291.630203 
L 129.613865 290.913066 
L 131.655328 289.574085 
L 133.696792 288.410042 
L 135.738255 287.752494 
L 137.779719 286.538603 
L 139.821182 286.168193 
L 141.862646 285.112578 
L 143.904109 283.627794 
L 145.945572 282.409353 
L 147.987036 281.313762 
L 150.028499 279.841733 
L 152.069963 278.737732 
L 154.111426 277.410873 
L 156.152889 276.17459 
L 158.194353 274.657376 
L 160.235816 273.23664 
L 162.27728 271.759041 
L 164.318743 270.388197 
L 166.360207 268.990775 
L 168.40167 267.211111 
L 170.443133 265.57193 
L 172.484597 263.969309 
L 174.52606 262.802813 
L 176.567524 261.01168 
L 178.608987 259.506021 
L 180.65045 257.819866 
L 182.691914 255.413982 
L 184.733377 254.294923 
L 186.774841 252.297448 
L 188.816304 250.703674 
L 190.857768 248.864046 
L 192.899231 246.814219 
L 194.940694 244.936351 
L 196.982158 243.044505 
L 199.023621 240.667608 
L 201.065085 239.008228 
L 203.106548 236.686091 
L 205.148011 235.125965 
L 207.189475 232.724287 
L 209.230938 230.361271 
L 211.272402 228.305085 
L 213.313865 226.573001 
L 215.355328 223.866693 
L 217.396792 221.924045 
L 219.438255 219.51281 
L 221.479719 217.523686 
L 223.521182 214.98524 
L 225.562646 212.673701 
L 227.604109 212.268825 
L 229.645572 207.988754 
L 231.687036 207.144803 
L 233.728499 204.57868 
L 235.769963 202.646762 
L 237.811426 200.412739 
L 239.852889 198.108363 
L 241.894353 195.904296 
L 243.935816 193.888522 
L 245.97728 191.99595 
L 248.018743 190.003872 
L 250.060207 191.086373 
L 252.10167 185.706561 
L 254.143133 184.413653 
L 256.184597 187.82482 
L 258.22606 181.830252 
L 260.267524 182.391089 
L 262.308987 181.488241 
L 264.35045 178.044488 
L 266.391914 178.360048 
L 268.433377 180.701075 
L 270.474841 178.146886 
L 272.516304 176.915048 
L 274.557768 178.482442 
L 276.599231 177.567437 
L 278.640694 178.411264 
L 280.682158 179.932784 
L 282.723621 182.046343 
L 284.765085 188.658713 
L 286.806548 186.506859 
L 288.848011 189.731039 
L 290.889475 192.125882 
L 292.930938 193.375955 
L 294.972402 196.641693 
L 297.013865 198.330215 
L 299.055328 193.321671 
L 301.096792 196.965607 
L 303.138255 202.394061 
L 305.179719 204.649944 
L 307.221182 204.667269 
L 309.262646 211.50698 
L 311.304109 211.277573 
L 313.345572 212.055341 
L 315.387036 211.288174 
L 317.428499 216.578918 
L 319.469963 213.665816 
L 321.511426 211.982274 
L 323.552889 215.780916 
L 325.594353 219.648705 
L 327.635816 217.616671 
L 329.67728 218.942522 
L 331.718743 218.847504 
L 333.760207 217.986183 
L 335.80167 216.452838 
L 337.843133 216.65546 
L 339.884597 216.233037 
L 341.92606 219.613024 
L 343.967524 215.891777 
L 346.008987 218.666112 
L 348.05045 216.751295 
L 350.091914 214.955016 
L 352.133377 216.61454 
L 354.174841 218.048264 
L 356.216304 215.352041 
L 358.257768 216.084289 
L 360.299231 215.745385 
L 362.340694 218.061794 
L 364.382158 216.264569 
L 366.423621 215.180437 
L 368.465085 215.499711 
L 370.506548 216.33677 
L 372.548011 215.183713 
L 374.589475 213.350832 
L 376.630938 213.549876 
L 378.672402 210.998202 
L 380.713865 210.638417 
L 382.755328 213.329702 
L 384.796792 212.517611 
L 386.838255 210.016169 
L 388.879719 208.899148 
L 390.921182 208.438096 
L 392.962646 205.740133 
L 395.004109 205.52089 
L 397.045572 204.790792 
L 399.087036 203.630168 
L 401.128499 202.341561 
L 403.169963 200.34617 
L 405.211426 200.324418 
L 407.252889 198.725993 
L 409.294353 197.777244 
L 411.335816 196.566008 
L 413.37728 195.863267 
L 415.418743 194.15789 
L 417.460207 191.68345 
L 419.50167 190.876903 
L 421.543133 188.751426 
L 423.584597 186.02026 
L 425.62606 186.841177 
L 427.667524 183.402129 
L 429.708987 183.929782 
L 431.75045 182.782955 
L 433.791914 182.382739 
L 435.833377 180.014716 
L 437.874841 179.330709 
L 439.916304 178.535098 
L 441.957768 175.794075 
L 443.999231 175.861484 
L 446.040694 175.19536 
L 448.082158 174.651853 
L 450.123621 173.157408 
L 452.165085 173.240811 
L 454.206548 171.746349 
L 456.248011 170.327662 
L 458.289475 168.320839 
L 460.330938 167.451828 
L 462.372402 166.777038 
L 464.413865 165.316265 
L 466.455328 165.189098 
L 468.496792 164.340696 
L 470.538255 163.043141 
L 472.579719 162.81816 
L 474.621182 161.405321 
L 476.662646 162.128359 
L 478.704109 161.085131 
L 480.745572 160.897672 
L 482.787036 159.232763 
L 484.828499 157.05003 
L 486.869963 158.523027 
L 488.911426 158.271117 
L 490.952889 157.438262 
L 492.994353 156.590572 
L 495.035816 155.041496 
L 497.07728 154.563723 
L 499.118743 153.648885 
L 501.160207 153.610207 
L 503.20167 153.177649 
L 505.243133 151.724741 
L 507.284597 149.727086 
L 509.32606 152.007341 
L 511.367524 151.295686 
L 513.408987 149.582747 
L 515.45045 150.453903 
L 517.491914 147.496503 
L 519.533377 147.711394 
L 521.574841 147.758285 
L 523.616304 145.706262 
L 525.657768 148.827592 
L 527.699231 145.406286 
L 529.740694 143.592557 
L 531.782158 145.569842 
L 533.823621 145.97933 
L 535.865085 144.76133 
L 537.906548 145.404546 
L 539.948011 143.705383 
L 541.989475 146.420896 
L 544.030938 144.710121 
L 546.072402 145.07915 
L 548.113865 142.837428 
L 550.155328 140.794258 
L 552.196792 142.8097 
L 554.238255 146.624088 
L 556.279719 141.684274 
L 558.321182 141.655722 
L 560.362646 139.625176 
L 562.404109 140.158051 
L 564.445572 139.633795 
L 566.487036 138.267764 
L 568.528499 137.586886 
L 570.569963 139.307838 
L 572.611426 138.006773 
L 574.652889 139.574614 
L 576.694353 139.673106 
L 578.735816 134.146284 
L 580.77728 136.12777 
L 582.818743 136.121829 
L 584.860207 136.322173 
L 586.90167 136.497742 
L 588.943133 139.758557 
L 590.984597 140.992276 
L 593.02606 140.732214 
L 595.067524 144.3822 
L 597.108987 150.498343 
L 599.15045 143.036789 
L 601.191914 142.89098 
L 603.233377 143.000381 
L 605.274841 145.418448 
L 607.316304 145.946143 
L 609.357768 145.89795 
L 611.399231 151.205304 
L 613.440694 153.137347 
L 615.482158 147.023837 
L 617.523621 152.478098 
L 619.565085 149.716758 
L 621.606548 147.974611 
L 623.648011 154.596525 
L 625.689475 153.1925 
L 627.730938 157.428082 
L 629.772402 156.020579 
L 631.813865 153.003072 
L 633.855328 155.599693 
L 635.896792 155.485848 
L 637.938255 158.020501 
L 639.979719 156.216055 
L 642.021182 160.459129 
L 644.062646 157.159589 
L 646.104109 159.325505 
L 648.145572 158.696755 
L 650.187036 161.090346 
L 652.228499 156.819008 
L 654.269963 161.065338 
L 656.311426 160.659327 
L 658.352889 163.50808 
L 660.394353 164.930988 
L 662.435816 164.773646 
L 664.47728 163.835557 
L 666.518743 165.608649 
L 668.560207 166.88949 
L 670.60167 165.434935 
L 672.643133 164.788669 
L 674.684597 166.32709 
L 676.72606 167.710108 
L 678.767524 164.869632 
L 680.808987 163.17149 
L 682.85045 169.154155 
L 684.891914 171.790147 
L 686.933377 165.363416 
L 688.974841 167.069452 
L 691.016304 167.857279 
L 693.057768 168.168756 
L 695.099231 171.18586 
L 697.140694 170.658064 
L 699.182158 169.257371 
L 701.223621 170.523343 
L 703.265085 170.788876 
L 705.306548 167.308749 
L 707.348011 168.935011 
L 709.389475 167.801091 
L 711.430938 172.419683 
L 713.472402 178.129586 
L 715.513865 177.251428 
L 717.555328 172.631729 
L 719.596792 172.107128 
L 721.638255 172.708409 
L 723.679719 172.909058 
L 725.721182 177.182716 
L 727.762646 171.719309 
L 729.804109 177.448809 
L 731.845572 182.063507 
L 733.887036 178.228977 
L 735.928499 184.171585 
L 737.969963 180.487777 
L 740.011426 183.746645 
L 742.052889 181.646626 
L 744.094353 183.279399 
L 746.135816 186.494184 
L 748.17728 186.32132 
L 750.218743 187.343959 
L 752.260207 187.648765 
L 754.30167 188.029965 
L 756.343133 180.328459 
L 758.384597 190.359173 
L 760.42606 194.516854 
L 762.467524 190.58708 
L 764.508987 194.266326 
L 766.55045 195.104062 
L 768.591914 193.074995 
L 770.633377 197.226726 
L 772.674841 200.02547 
L 774.716304 198.473227 
L 776.757768 199.607501 
L 778.799231 200.2763 
L 780.840694 201.328454 
L 782.882158 204.507709 
L 784.923621 198.241684 
L 786.965085 206.203266 
L 789.006548 206.459469 
L 791.048011 206.870687 
L 793.089475 202.049268 
L 795.130938 208.083958 
L 797.172402 212.10678 
L 799.213865 208.113539 
L 801.255328 208.604646 
L 803.296792 214.178663 
L 805.338255 204.538678 
L 807.379719 213.591777 
L 809.421182 207.962576 
L 811.462646 215.86462 
L 813.504109 212.140571 
L 815.545572 215.556084 
L 817.587036 216.612952 
L 819.628499 218.094416 
L 821.669963 218.53462 
L 823.711426 216.407241 
L 825.752889 216.453212 
L 827.794353 217.503487 
L 829.835816 221.099886 
L 831.87728 220.632748 
L 833.918743 220.503976 
L 835.960207 222.693624 
L 838.00167 222.836045 
L 840.043133 221.065448 
L 842.084597 221.363874 
L 844.12606 224.705886 
L 846.167524 225.197576 
L 848.208987 226.024189 
L 850.25045 223.342119 
L 852.291914 219.352006 
L 854.333377 223.798381 
L 856.374841 222.454689 
L 858.416304 223.661205 
L 860.457768 225.582744 
L 862.499231 223.153941 
L 864.540694 226.293947 
L 866.582158 224.044132 
L 868.623621 223.711706 
L 870.665085 223.539727 
L 872.706548 226.281585 
L 874.748011 225.548329 
L 876.789475 225.264139 
L 878.830938 223.216243 
L 880.872402 224.24682 
L 882.913865 224.665161 
L 884.955328 224.047981 
L 886.996792 225.813599 
L 889.038255 225.340196 
L 891.079719 226.32341 
L 893.121182 227.420549 
L 895.162646 227.269897 
L 897.204109 226.099508 
L 899.245572 226.350574 
L 901.287036 225.607645 
L 903.328499 226.4382 
L 905.369963 226.574039 
L 907.411426 225.247712 
L 909.452889 226.641812 
L 911.494353 220.337001 
L 913.535816 226.542097 
L 915.57728 228.827817 
L 917.618743 226.262921 
L 919.660207 226.216419 
L 921.70167 228.504605 
L 923.743133 228.545523 
L 925.784597 226.303035 
L 927.82606 226.114511 
L 929.867524 227.554595 
L 931.908987 227.013869 
L 933.95045 229.800343 
L 935.991914 228.814516 
L 938.033377 230.77938 
L 940.074841 227.890956 
L 940.074841 168.020894 
L 940.074841 168.020894 
L 938.033377 165.861187 
L 935.991914 162.871341 
L 933.95045 166.183429 
L 931.908987 159.725718 
L 929.867524 161.445708 
L 927.82606 160.495798 
L 925.784597 153.779082 
L 923.743133 162.357983 
L 921.70167 166.94534 
L 919.660207 154.24016 
L 917.618743 159.72165 
L 915.57728 164.99479 
L 913.535816 161.532678 
L 911.494353 119.933331 
L 909.452889 160.285168 
L 907.411426 152.770285 
L 905.369963 160.940715 
L 903.328499 160.444875 
L 901.287036 157.461186 
L 899.245572 157.936065 
L 897.204109 157.3108 
L 895.162646 162.205896 
L 893.121182 162.618073 
L 891.079719 156.831734 
L 889.038255 153.122202 
L 886.996792 156.876237 
L 884.955328 151.448807 
L 882.913865 154.115394 
L 880.872402 151.121555 
L 878.830938 147.220461 
L 876.789475 153.662262 
L 874.748011 154.766731 
L 872.706548 155.239362 
L 870.665085 148.753125 
L 868.623621 147.719641 
L 866.582158 147.904713 
L 864.540694 156.449355 
L 862.499231 145.803655 
L 860.457768 153.825604 
L 858.416304 147.846257 
L 856.374841 143.474734 
L 854.333377 148.037704 
L 852.291914 130.831371 
L 850.25045 147.158317 
L 848.208987 154.238792 
L 846.167524 151.564319 
L 844.12606 150.589903 
L 842.084597 137.000375 
L 840.043133 137.962723 
L 838.00167 143.584347 
L 835.960207 143.830011 
L 833.918743 136.609182 
L 831.87728 137.651476 
L 829.835816 137.582626 
L 827.794353 130.554856 
L 825.752889 124.594601 
L 823.711426 123.774578 
L 821.669963 130.208298 
L 819.628499 129.157595 
L 817.587036 126.397502 
L 815.545572 123.543468 
L 813.504109 112.83428 
L 811.462646 124.768324 
L 809.421182 96.161567 
L 807.379719 116.47761 
L 805.338255 89.263378 
L 803.296792 119.899708 
L 801.255328 103.834964 
L 799.213865 104.059205 
L 797.172402 113.140749 
L 795.130938 103.552422 
L 793.089475 85.634642 
L 791.048011 99.570759 
L 789.006548 99.771586 
L 786.965085 99.69756 
L 784.923621 78.722158 
L 782.882158 89.804019 
L 780.840694 87.697005 
L 778.799231 86.651856 
L 776.757768 84.739692 
L 774.716304 80.704684 
L 772.674841 85.533281 
L 770.633377 78.084863 
L 768.591914 68.66562 
L 766.55045 77.244568 
L 764.508987 71.209214 
L 762.467524 65.85884 
L 760.42606 75.659741 
L 758.384597 65.849945 
L 756.343133 40.030845 
L 754.30167 59.585732 
L 752.260207 59.224242 
L 750.218743 59.660682 
L 748.17728 57.71825 
L 746.135816 58.216509 
L 744.094353 51.478525 
L 742.052889 48.935027 
L 740.011426 54.841632 
L 737.969963 44.89009 
L 735.928499 55.902568 
L 733.887036 41.951975 
L 731.845572 50.646671 
L 729.804109 41.525952 
L 727.762646 30.137889 
L 725.721182 41.486 
L 723.679719 31.586188 
L 721.638255 32.785367 
L 719.596792 32.827925 
L 717.555328 34.341597 
L 715.513865 44.651694 
L 713.472402 47.509022 
L 711.430938 36.308963 
L 709.389475 24.84 
L 707.348011 28.781612 
L 705.306548 26.945646 
L 703.265085 35.087433 
L 701.223621 34.920788 
L 699.182158 32.512713 
L 697.140694 37.068302 
L 695.099231 37.408956 
L 693.057768 31.984437 
L 691.016304 33.400411 
L 688.974841 31.730789 
L 686.933377 29.527409 
L 684.891914 43.967368 
L 682.85045 36.952384 
L 680.808987 27.103463 
L 678.767524 32.899752 
L 676.72606 38.16811 
L 674.684597 35.93057 
L 672.643133 34.390016 
L 670.60167 36.942705 
L 668.560207 42.473735 
L 666.518743 38.077877 
L 664.47728 36.953893 
L 662.435816 39.835588 
L 660.394353 37.382688 
L 658.352889 39.198735 
L 656.311426 33.483224 
L 654.269963 36.620905 
L 652.228499 29.489001 
L 650.187036 37.079464 
L 648.145572 34.657646 
L 646.104109 37.336383 
L 644.062646 35.950607 
L 642.021182 40.869651 
L 639.979719 34.563507 
L 637.938255 39.765341 
L 635.896792 36.060009 
L 633.855328 37.664144 
L 631.813865 34.909448 
L 629.772402 37.478006 
L 627.730938 43.211134 
L 625.689475 39.073863 
L 623.648011 40.959658 
L 621.606548 32.125955 
L 619.565085 37.226703 
L 617.523621 40.154375 
L 615.482158 33.515716 
L 613.440694 42.395629 
L 611.399231 43.735875 
L 609.357768 35.175407 
L 607.316304 36.061843 
L 605.274841 36.144684 
L 603.233377 33.559696 
L 601.191914 36.628348 
L 599.15045 36.585895 
L 597.108987 48.262831 
L 595.067524 41.60278 
L 593.02606 36.929221 
L 590.984597 37.956233 
L 588.943133 37.243229 
L 586.90167 34.84303 
L 584.860207 36.988943 
L 582.818743 35.729169 
L 580.77728 39.255285 
L 578.735816 37.024368 
L 576.694353 44.236857 
L 574.652889 46.117967 
L 572.611426 45.763812 
L 570.569963 48.206948 
L 568.528499 46.939747 
L 566.487036 49.847677 
L 564.445572 51.9938 
L 562.404109 55.9573 
L 560.362646 54.714458 
L 558.321182 59.004231 
L 556.279719 59.414705 
L 554.238255 66.468328 
L 552.196792 63.434869 
L 550.155328 62.282454 
L 548.113865 65.839048 
L 546.072402 67.972529 
L 544.030938 69.013731 
L 541.989475 73.414516 
L 539.948011 71.322621 
L 537.906548 74.538071 
L 535.865085 74.286069 
L 533.823621 75.691096 
L 531.782158 75.52707 
L 529.740694 74.884202 
L 527.699231 78.468786 
L 525.657768 82.961344 
L 523.616304 79.981524 
L 521.574841 82.9157 
L 519.533377 82.749167 
L 517.491914 84.746813 
L 515.45045 88.356528 
L 513.408987 88.151393 
L 511.367524 91.213953 
L 509.32606 92.577879 
L 507.284597 90.736382 
L 505.243133 93.01439 
L 503.20167 95.466447 
L 501.160207 96.831561 
L 499.118743 97.513534 
L 497.07728 99.473857 
L 495.035816 100.037866 
L 492.994353 102.583025 
L 490.952889 103.837268 
L 488.911426 104.999538 
L 486.869963 106.159859 
L 484.828499 103.740168 
L 482.787036 108.012939 
L 480.745572 110.178805 
L 478.704109 110.543127 
L 476.662646 111.416642 
L 474.621182 112.20065 
L 472.579719 113.984335 
L 470.538255 114.414953 
L 468.496792 116.716695 
L 466.455328 118.023395 
L 464.413865 118.431667 
L 462.372402 119.771076 
L 460.330938 121.315696 
L 458.289475 122.895342 
L 456.248011 126.350479 
L 454.206548 127.783898 
L 452.165085 129.893083 
L 450.123621 130.071389 
L 448.082158 132.151234 
L 446.040694 133.09934 
L 443.999231 134.308984 
L 441.957768 133.793309 
L 439.916304 138.395493 
L 437.874841 139.525888 
L 435.833377 140.628295 
L 433.791914 143.747551 
L 431.75045 144.392065 
L 429.708987 146.158174 
L 427.667524 145.910429 
L 425.62606 149.875894 
L 423.584597 149.605083 
L 421.543133 153.545952 
L 419.50167 156.425185 
L 417.460207 157.830485 
L 415.418743 161.32875 
L 413.37728 164.062422 
L 411.335816 164.876569 
L 409.294353 166.809822 
L 407.252889 167.981327 
L 405.211426 170.370819 
L 403.169963 170.597219 
L 401.128499 173.493212 
L 399.087036 175.80611 
L 397.045572 177.414233 
L 395.004109 178.670985 
L 392.962646 179.511146 
L 390.921182 182.783774 
L 388.879719 183.859976 
L 386.838255 185.78943 
L 384.796792 188.730482 
L 382.755328 189.958019 
L 380.713865 188.006768 
L 378.672402 188.9244 
L 376.630938 191.933869 
L 374.589475 192.486744 
L 372.548011 194.663265 
L 370.506548 196.365069 
L 368.465085 195.872967 
L 366.423621 196.576739 
L 364.382158 197.988226 
L 362.340694 200.248651 
L 360.299231 198.24789 
L 358.257768 199.22496 
L 356.216304 199.240702 
L 354.174841 202.145554 
L 352.133377 201.632815 
L 350.091914 200.45354 
L 348.05045 201.868232 
L 346.008987 203.542972 
L 343.967524 199.80644 
L 341.92606 203.345585 
L 339.884597 199.069351 
L 337.843133 198.869534 
L 335.80167 198.084937 
L 333.760207 199.036538 
L 331.718743 199.613446 
L 329.67728 200.089 
L 327.635816 197.913712 
L 325.594353 199.882345 
L 323.552889 194.817509 
L 321.511426 188.646533 
L 319.469963 190.51991 
L 317.428499 193.558442 
L 315.387036 186.05299 
L 313.345572 187.13892 
L 311.304109 184.90187 
L 309.262646 184.48674 
L 307.221182 174.175099 
L 305.179719 172.984538 
L 303.138255 169.503096 
L 301.096792 161.628985 
L 299.055328 155.414594 
L 297.013865 161.974843 
L 294.972402 158.71495 
L 292.930938 153.489228 
L 290.889475 151.437534 
L 288.848011 147.677329 
L 286.806548 142.568741 
L 284.765085 144.643558 
L 282.723621 135.949802 
L 280.682158 131.449887 
L 278.640694 129.527007 
L 276.599231 127.979961 
L 274.557768 129.095234 
L 272.516304 127.171535 
L 270.474841 129.21296 
L 268.433377 131.858194 
L 266.391914 128.035496 
L 264.35045 127.938812 
L 262.308987 132.168748 
L 260.267524 133.385691 
L 258.22606 132.222729 
L 256.184597 140.619756 
L 254.143133 135.357143 
L 252.10167 137.653389 
L 250.060207 144.151681 
L 248.018743 142.841881 
L 245.97728 145.484483 
L 243.935816 147.89811 
L 241.894353 150.666532 
L 239.852889 153.323429 
L 237.811426 156.283488 
L 235.769963 159.052547 
L 233.728499 161.39234 
L 231.687036 164.869045 
L 229.645572 166.013916 
L 227.604109 171.319125 
L 225.562646 171.932549 
L 223.521182 174.790766 
L 221.479719 178.058974 
L 219.438255 180.598371 
L 217.396792 183.743964 
L 215.355328 186.10615 
L 213.313865 189.520093 
L 211.272402 191.738185 
L 209.230938 194.477138 
L 207.189475 197.368752 
L 205.148011 200.381141 
L 203.106548 202.429419 
L 201.065085 205.395532 
L 199.023621 207.392535 
L 196.982158 210.40821 
L 194.940694 212.760427 
L 192.899231 215.306674 
L 190.857768 217.773642 
L 188.816304 220.112764 
L 186.774841 222.175576 
L 184.733377 224.726631 
L 182.691914 226.227417 
L 180.65045 229.160086 
L 178.608987 231.311667 
L 176.567524 233.142126 
L 174.52606 235.366527 
L 172.484597 237.246928 
L 170.443133 238.865705 
L 168.40167 240.961064 
L 166.360207 243.1796 
L 164.318743 244.937964 
L 162.27728 246.580092 
L 160.235816 248.568983 
L 158.194353 250.123779 
L 156.152889 251.938322 
L 154.111426 253.454774 
L 152.069963 255.119958 
L 150.028499 256.378497 
L 147.987036 258.193396 
L 145.945572 259.44378 
L 143.904109 260.974954 
L 141.862646 262.739059 
L 139.821182 264.051772 
L 137.779719 264.616028 
L 135.738255 266.041726 
L 133.696792 266.82783 
L 131.655328 268.157494 
L 129.613865 269.801822 
L 127.572402 270.632563 
L 125.530938 271.422913 
L 123.489475 271.852811 
L 121.448011 272.660977 
L 119.406548 273.329519 
L 117.365085 274.026574 
L 115.323621 275.153064 
L 113.282158 275.907832 
L 111.240694 276.780319 
L 109.199231 276.649503 
L 107.157768 277.352463 
L 105.116304 276.882091 
L 103.074841 278.032844 
L 101.033377 278.556957 
L 98.991914 279.214199 
L 96.95045 277.81599 
L 94.908987 279.992459 
L 92.867524 280.043945 
L 90.82606 279.164904 
L 88.784597 279.067528 
L 86.743133 280.264975 
L 84.70167 282.078387 
L 82.660207 281.643381 
L 80.618743 281.805254 
L 78.57728 280.318536 
L 76.535816 280.811813 
L 74.494353 281.145827 
L 72.452889 282.28676 
L 70.411426 282.131398 
L 68.369963 282.095858 
L 66.328499 282.402813 
L 64.287036 283.155995 
L 62.245572 283.299308 
L 60.204109 283.715893 
L 58.162646 284.474802 
L 56.121182 284.200287 
L 54.079719 285.265002 
L 52.038255 285.537218 
L 49.996792 285.791967 
L 47.955328 286.557009 
L 45.913865 286.858609 
L 43.872402 287.568067 
L 41.830938 288.37423 
L 39.789475 288.522859 
L 37.748011 288.324742 
L 35.706548 288.399948 
L 33.665085 289.871586 
L 31.623621 289.706465 
L 29.582158 290.778166 
L 27.540694 290.911647 
L 25.499231 290.489102 
L 23.457768 291.767091 
L 21.416304 290.729395 
L 19.374841 290.76662 
L 17.333377 292.189169 
L 15.291914 291.086656 
L 13.25045 292.382569 
L 11.208987 292.8984 
L 9.167524 291.64118 
L 7.12606 287.960013 
L 5.084597 290.208408 
L 3.043133 289.129146 
L 1.00167 283.235079 
L -1.039793 288.083231 
L -3.081257 288.905027 
L -5.12272 283.452781 
L -7.164184 281.982968 
L -9.205647 284.47585 
L -11.247111 278.658211 
L -13.288574 268.707142 
L -15.330037 279.284684 
L -17.371501 283.471057 
L -19.412964 285.334326 
L -21.454428 271.533536 
L -23.495891 271.864385 
L -25.537354 264.850906 
L -27.578818 259.384689 
L -29.620281 269.560737 
L -31.661745 264.70121 
L -33.703208 254.976623 
L -35.744672 247.995612 
L -37.786135 247.929153 
L -39.827598 248.579807 
L -41.869062 246.709408 
L -43.910525 245.38442 
L -45.951989 248.594787 
L -47.993452 247.650188 
L -50.034915 244.653956 
L -52.076379 245.586589 
L -54.117842 243.99853 
L -56.159306 243.009667 
L -58.200769 242.461216 
L -60.242232 243.344037 
L -62.283696 243.590562 
L -64.325159 243.493453 
L -66.366623 244.155521 
L -68.408086 244.167608 
L -70.44955 244.623007 
L -72.491013 245.714491 
L -74.532476 246.408372 
L -76.57394 246.765235 
L -78.615403 247.214001 
L -80.656867 248.018277 
L -82.69833 248.331881 
L -84.739793 249.080147 
L -86.781257 250.100626 
L -88.82272 250.578287 
L -90.864184 250.745814 
L -92.905647 251.277223 
L -94.947111 251.825882 
L -96.988574 252.342776 
L -99.030037 252.835282 
L -101.071501 253.304116 
L -103.112964 254.10134 
L -105.154428 254.350902 
L -107.195891 254.883884 
L -109.237354 255.450292 
L -111.278818 255.908667 
L -113.320281 256.372785 
L -115.361745 256.723995 
L -117.403208 257.126568 
L -119.444672 257.772861 
L -121.486135 258.150009 
L -123.527598 258.639948 
L -125.569062 258.996422 
L -127.610525 259.437901 
L -129.651989 259.896481 
L -131.693452 260.364201 
L -133.734915 260.736232 
L -135.776379 261.20992 
L -137.817842 261.612932 
L -139.859306 262.057464 
L -141.900769 262.460543 
L -143.942232 262.89167 
L -145.983696 263.279857 
L -148.025159 263.709158 
L -150.066623 264.184965 
L -152.108086 264.517659 
L -154.14955 264.968876 
L -156.191013 265.342078 
L -158.232476 265.796811 
L -160.27394 266.097699 
L -162.315403 266.515652 
L -164.356867 266.909875 
L -166.39833 267.280953 
L -168.439793 267.661726 
L -170.481257 268.005966 
L -172.52272 268.427172 
L -174.564184 268.794643 
L -176.605647 269.076673 
L -178.647111 269.432234 
L -180.688574 269.785653 
L -182.730037 270.134791 
L -184.771501 270.464953 
L -186.812964 270.761586 
L -188.854428 271.097511 
L -190.895891 271.420868 
L -192.937354 271.742719 
L -194.978818 272.059039 
L -197.020281 272.383688 
L -199.061745 272.722839 
L -201.103208 272.989873 
L -203.144672 273.314292 
L -205.186135 273.625874 
L -207.227598 273.915042 
L -209.269062 274.215218 
L -211.310525 274.521854 
L -213.351989 274.811497 
L -215.393452 275.121391 
L -217.434915 275.385712 
L -219.476379 275.656822 
L -221.517842 275.951343 
L -223.559306 276.227284 
L -225.600769 276.476894 
L -227.642232 276.749779 
L -229.683696 276.979492 
L -231.725159 277.235777 
L -233.766623 277.519015 
L -235.808086 277.73063 
L -237.84955 277.988945 
L -239.891013 278.219357 
L -241.932476 278.468482 
L -243.97394 278.670778 
L -246.015403 278.941445 
L -248.056867 279.125652 
L -250.09833 279.357364 
L -252.139793 279.577818 
L -254.181257 279.804886 
L -256.22272 279.972883 
L -258.264184 280.153522 
L -260.305647 280.340892 
L -262.347111 280.547685 
L -264.388574 280.725434 
L -266.430037 280.887355 
L -268.471501 281.061784 
L -270.512964 281.242408 
L -272.554428 281.413145 
L -274.595891 281.594594 
L -276.637354 281.775548 
L -278.678818 281.943105 
L -280.720281 282.119543 
L -282.761745 282.298656 
L -284.803208 282.448877 
L -286.844672 282.610292 
L -288.886135 282.792111 
L -290.927598 282.9604 
L -292.969062 283.098296 
L -295.010525 283.273763 
L -297.051989 283.426219 
L -299.093452 283.560865 
L -301.134915 283.70241 
L -303.176379 283.832102 
L -305.217842 283.98926 
L -307.259306 284.102996 
L -309.300769 284.236529 
L -311.342232 284.361352 
L -313.383696 284.474843 
L -315.425159 284.574718 
L -317.466623 284.66199 
L -319.508086 284.75309 
L -321.54955 284.847308 
L -323.591013 284.915198 
L -325.632476 285.005 
L -327.67394 285.073301 
L -329.715403 285.125923 
L -331.756867 285.202874 
L -333.79833 285.264747 
L -335.839793 285.307882 
L -337.881257 285.361555 
L -339.92272 285.414456 
L -341.964184 285.456442 
L -344.005647 285.500674 
L -346.047111 285.530044 
L -348.088574 285.577724 
L -350.130037 285.607229 
L -352.171501 285.641771 
L -354.212964 285.681612 
L -356.254428 285.707088 
L -358.295891 285.737553 
L -360.337354 285.791036 
L -362.378818 285.816858 
L -364.420281 285.858516 
L -366.461745 285.883828 
L -368.503208 285.93067 
L -370.544672 285.959003 
L -372.586135 285.993278 
L -374.627598 286.019473 
L -376.669062 286.038796 
L -378.710525 286.06929 
L -380.751989 286.108228 
L -382.793452 286.147402 
L -384.834915 286.176535 
L -386.876379 286.195404 
L -388.917842 286.243109 
L -390.959306 286.277316 
L -393.000769 286.323981 
z
" clip-path="url(#p7a201790be)" style="fill: #008000; fill-opacity: 0.3; stroke: #008000; stroke-opacity: 0.3"/>
   </g>
   <g id="matplotlib.axis_1">
    <g id="xtick_1">
     <g id="line2d_1">
      <defs>
       <path id="mc67af4e76c" d="M 0 0 
L 0 3.5 
" style="stroke: #000000; stroke-width: 0.8"/>
      </defs>
      <g>
       <use xlink:href="#mc67af4e76c" x="103.074841" y="395.28" style="stroke: #000000; stroke-width: 0.8"/>
      </g>
     </g>
     <g id="text_1">
      <!-- 2022-03-01 -->
      <g transform="translate(17.945813 495.213718) rotate(-45) scale(0.2 -0.2)">
       <defs>
        <path id="DejaVuSans-32" d="M 1228 531 
L 3431 531 
L 3431 0 
L 469 0 
L 469 531 
Q 828 903 1448 1529 
Q 2069 2156 2228 2338 
Q 2531 2678 2651 2914 
Q 2772 3150 2772 3378 
Q 2772 3750 2511 3984 
Q 2250 4219 1831 4219 
Q 1534 4219 1204 4116 
Q 875 4013 500 3803 
L 500 4441 
Q 881 4594 1212 4672 
Q 1544 4750 1819 4750 
Q 2544 4750 2975 4387 
Q 3406 4025 3406 3419 
Q 3406 3131 3298 2873 
Q 3191 2616 2906 2266 
Q 2828 2175 2409 1742 
Q 1991 1309 1228 531 
z
" transform="scale(0.015625)"/>
        <path id="DejaVuSans-30" d="M 2034 4250 
Q 1547 4250 1301 3770 
Q 1056 3291 1056 2328 
Q 1056 1369 1301 889 
Q 1547 409 2034 409 
Q 2525 409 2770 889 
Q 3016 1369 3016 2328 
Q 3016 3291 2770 3770 
Q 2525 4250 2034 4250 
z
M 2034 4750 
Q 2819 4750 3233 4129 
Q 3647 3509 3647 2328 
Q 3647 1150 3233 529 
Q 2819 -91 2034 -91 
Q 1250 -91 836 529 
Q 422 1150 422 2328 
Q 422 3509 836 4129 
Q 1250 4750 2034 4750 
z
" transform="scale(0.015625)"/>
        <path id="DejaVuSans-2d" d="M 313 2009 
L 1997 2009 
L 1997 1497 
L 313 1497 
L 313 2009 
z
" transform="scale(0.015625)"/>
        <path id="DejaVuSans-33" d="M 2597 2516 
Q 3050 2419 3304 2112 
Q 3559 1806 3559 1356 
Q 3559 666 3084 287 
Q 2609 -91 1734 -91 
Q 1441 -91 1130 -33 
Q 819 25 488 141 
L 488 750 
Q 750 597 1062 519 
Q 1375 441 1716 441 
Q 2309 441 2620 675 
Q 2931 909 2931 1356 
Q 2931 1769 2642 2001 
Q 2353 2234 1838 2234 
L 1294 2234 
L 1294 2753 
L 1863 2753 
Q 2328 2753 2575 2939 
Q 2822 3125 2822 3475 
Q 2822 3834 2567 4026 
Q 2313 4219 1838 4219 
Q 1578 4219 1281 4162 
Q 984 4106 628 3988 
L 628 4550 
Q 988 4650 1302 4700 
Q 1616 4750 1894 4750 
Q 2613 4750 3031 4423 
Q 3450 4097 3450 3541 
Q 3450 3153 3228 2886 
Q 3006 2619 2597 2516 
z
" transform="scale(0.015625)"/>
        <path id="DejaVuSans-31" d="M 794 531 
L 1825 531 
L 1825 4091 
L 703 3866 
L 703 4441 
L 1819 4666 
L 2450 4666 
L 2450 531 
L 3481 531 
L 3481 0 
L 794 0 
L 794 531 
z
" transform="scale(0.015625)"/>
       </defs>
       <use xlink:href="#DejaVuSans-32"/>
       <use xlink:href="#DejaVuSans-30" x="63.623047"/>
       <use xlink:href="#DejaVuSans-32" x="127.246094"/>
       <use xlink:href="#DejaVuSans-32" x="190.869141"/>
       <use xlink:href="#DejaVuSans-2d" x="254.492188"/>
       <use xlink:href="#DejaVuSans-30" x="290.576172"/>
       <use xlink:href="#DejaVuSans-33" x="354.199219"/>
       <use xlink:href="#DejaVuSans-2d" x="417.822266"/>
       <use xlink:href="#DejaVuSans-30" x="453.90625"/>
       <use xlink:href="#DejaVuSans-31" x="517.529297"/>
      </g>
     </g>
    </g>
    <g id="xtick_2">
     <g id="line2d_2">
      <g>
       <use xlink:href="#mc67af4e76c" x="160.235816" y="395.28" style="stroke: #000000; stroke-width: 0.8"/>
      </g>
     </g>
     <g id="text_2">
      <!-- 2022-03-29 -->
      <g transform="translate(75.106789 495.213718) rotate(-45) scale(0.2 -0.2)">
       <defs>
        <path id="DejaVuSans-39" d="M 703 97 
L 703 672 
Q 941 559 1184 500 
Q 1428 441 1663 441 
Q 2288 441 2617 861 
Q 2947 1281 2994 2138 
Q 2813 1869 2534 1725 
Q 2256 1581 1919 1581 
Q 1219 1581 811 2004 
Q 403 2428 403 3163 
Q 403 3881 828 4315 
Q 1253 4750 1959 4750 
Q 2769 4750 3195 4129 
Q 3622 3509 3622 2328 
Q 3622 1225 3098 567 
Q 2575 -91 1691 -91 
Q 1453 -91 1209 -44 
Q 966 3 703 97 
z
M 1959 2075 
Q 2384 2075 2632 2365 
Q 2881 2656 2881 3163 
Q 2881 3666 2632 3958 
Q 2384 4250 1959 4250 
Q 1534 4250 1286 3958 
Q 1038 3666 1038 3163 
Q 1038 2656 1286 2365 
Q 1534 2075 1959 2075 
z
" transform="scale(0.015625)"/>
       </defs>
       <use xlink:href="#DejaVuSans-32"/>
       <use xlink:href="#DejaVuSans-30" x="63.623047"/>
       <use xlink:href="#DejaVuSans-32" x="127.246094"/>
       <use xlink:href="#DejaVuSans-32" x="190.869141"/>
       <use xlink:href="#DejaVuSans-2d" x="254.492188"/>
       <use xlink:href="#DejaVuSans-30" x="290.576172"/>
       <use xlink:href="#DejaVuSans-33" x="354.199219"/>
       <use xlink:href="#DejaVuSans-2d" x="417.822266"/>
       <use xlink:href="#DejaVuSans-32" x="453.90625"/>
       <use xlink:href="#DejaVuSans-39" x="517.529297"/>
      </g>
     </g>
    </g>
    <g id="xtick_3">
     <g id="line2d_3">
      <g>
       <use xlink:href="#mc67af4e76c" x="217.396792" y="395.28" style="stroke: #000000; stroke-width: 0.8"/>
      </g>
     </g>
     <g id="text_3">
      <!-- 2022-04-26 -->
      <g transform="translate(132.267765 495.213718) rotate(-45) scale(0.2 -0.2)">
       <defs>
        <path id="DejaVuSans-34" d="M 2419 4116 
L 825 1625 
L 2419 1625 
L 2419 4116 
z
M 2253 4666 
L 3047 4666 
L 3047 1625 
L 3713 1625 
L 3713 1100 
L 3047 1100 
L 3047 0 
L 2419 0 
L 2419 1100 
L 313 1100 
L 313 1709 
L 2253 4666 
z
" transform="scale(0.015625)"/>
        <path id="DejaVuSans-36" d="M 2113 2584 
Q 1688 2584 1439 2293 
Q 1191 2003 1191 1497 
Q 1191 994 1439 701 
Q 1688 409 2113 409 
Q 2538 409 2786 701 
Q 3034 994 3034 1497 
Q 3034 2003 2786 2293 
Q 2538 2584 2113 2584 
z
M 3366 4563 
L 3366 3988 
Q 3128 4100 2886 4159 
Q 2644 4219 2406 4219 
Q 1781 4219 1451 3797 
Q 1122 3375 1075 2522 
Q 1259 2794 1537 2939 
Q 1816 3084 2150 3084 
Q 2853 3084 3261 2657 
Q 3669 2231 3669 1497 
Q 3669 778 3244 343 
Q 2819 -91 2113 -91 
Q 1303 -91 875 529 
Q 447 1150 447 2328 
Q 447 3434 972 4092 
Q 1497 4750 2381 4750 
Q 2619 4750 2861 4703 
Q 3103 4656 3366 4563 
z
" transform="scale(0.015625)"/>
       </defs>
       <use xlink:href="#DejaVuSans-32"/>
       <use xlink:href="#DejaVuSans-30" x="63.623047"/>
       <use xlink:href="#DejaVuSans-32" x="127.246094"/>
       <use xlink:href="#DejaVuSans-32" x="190.869141"/>
       <use xlink:href="#DejaVuSans-2d" x="254.492188"/>
       <use xlink:href="#DejaVuSans-30" x="290.576172"/>
       <use xlink:href="#DejaVuSans-34" x="354.199219"/>
       <use xlink:href="#DejaVuSans-2d" x="417.822266"/>
       <use xlink:href="#DejaVuSans-32" x="453.90625"/>
       <use xlink:href="#DejaVuSans-36" x="517.529297"/>
      </g>
     </g>
    </g>
    <g id="xtick_4">
     <g id="line2d_4">
      <g>
       <use xlink:href="#mc67af4e76c" x="274.557768" y="395.28" style="stroke: #000000; stroke-width: 0.8"/>
      </g>
     </g>
     <g id="text_4">
      <!-- 2022-05-24 -->
      <g transform="translate(189.42874 495.213718) rotate(-45) scale(0.2 -0.2)">
       <defs>
        <path id="DejaVuSans-35" d="M 691 4666 
L 3169 4666 
L 3169 4134 
L 1269 4134 
L 1269 2991 
Q 1406 3038 1543 3061 
Q 1681 3084 1819 3084 
Q 2600 3084 3056 2656 
Q 3513 2228 3513 1497 
Q 3513 744 3044 326 
Q 2575 -91 1722 -91 
Q 1428 -91 1123 -41 
Q 819 9 494 109 
L 494 744 
Q 775 591 1075 516 
Q 1375 441 1709 441 
Q 2250 441 2565 725 
Q 2881 1009 2881 1497 
Q 2881 1984 2565 2268 
Q 2250 2553 1709 2553 
Q 1456 2553 1204 2497 
Q 953 2441 691 2322 
L 691 4666 
z
" transform="scale(0.015625)"/>
       </defs>
       <use xlink:href="#DejaVuSans-32"/>
       <use xlink:href="#DejaVuSans-30" x="63.623047"/>
       <use xlink:href="#DejaVuSans-32" x="127.246094"/>
       <use xlink:href="#DejaVuSans-32" x="190.869141"/>
       <use xlink:href="#DejaVuSans-2d" x="254.492188"/>
       <use xlink:href="#DejaVuSans-30" x="290.576172"/>
       <use xlink:href="#DejaVuSans-35" x="354.199219"/>
       <use xlink:href="#DejaVuSans-2d" x="417.822266"/>
       <use xlink:href="#DejaVuSans-32" x="453.90625"/>
       <use xlink:href="#DejaVuSans-34" x="517.529297"/>
      </g>
     </g>
    </g>
    <g id="xtick_5">
     <g id="line2d_5">
      <g>
       <use xlink:href="#mc67af4e76c" x="331.718743" y="395.28" style="stroke: #000000; stroke-width: 0.8"/>
      </g>
     </g>
     <g id="text_5">
      <!-- 2022-06-21 -->
      <g transform="translate(246.589716 495.213718) rotate(-45) scale(0.2 -0.2)">
       <use xlink:href="#DejaVuSans-32"/>
       <use xlink:href="#DejaVuSans-30" x="63.623047"/>
       <use xlink:href="#DejaVuSans-32" x="127.246094"/>
       <use xlink:href="#DejaVuSans-32" x="190.869141"/>
       <use xlink:href="#DejaVuSans-2d" x="254.492188"/>
       <use xlink:href="#DejaVuSans-30" x="290.576172"/>
       <use xlink:href="#DejaVuSans-36" x="354.199219"/>
       <use xlink:href="#DejaVuSans-2d" x="417.822266"/>
       <use xlink:href="#DejaVuSans-32" x="453.90625"/>
       <use xlink:href="#DejaVuSans-31" x="517.529297"/>
      </g>
     </g>
    </g>
    <g id="xtick_6">
     <g id="line2d_6">
      <g>
       <use xlink:href="#mc67af4e76c" x="388.879719" y="395.28" style="stroke: #000000; stroke-width: 0.8"/>
      </g>
     </g>
     <g id="text_6">
      <!-- 2022-07-19 -->
      <g transform="translate(303.750691 495.213718) rotate(-45) scale(0.2 -0.2)">
       <defs>
        <path id="DejaVuSans-37" d="M 525 4666 
L 3525 4666 
L 3525 4397 
L 1831 0 
L 1172 0 
L 2766 4134 
L 525 4134 
L 525 4666 
z
" transform="scale(0.015625)"/>
       </defs>
       <use xlink:href="#DejaVuSans-32"/>
       <use xlink:href="#DejaVuSans-30" x="63.623047"/>
       <use xlink:href="#DejaVuSans-32" x="127.246094"/>
       <use xlink:href="#DejaVuSans-32" x="190.869141"/>
       <use xlink:href="#DejaVuSans-2d" x="254.492188"/>
       <use xlink:href="#DejaVuSans-30" x="290.576172"/>
       <use xlink:href="#DejaVuSans-37" x="354.199219"/>
       <use xlink:href="#DejaVuSans-2d" x="417.822266"/>
       <use xlink:href="#DejaVuSans-31" x="453.90625"/>
       <use xlink:href="#DejaVuSans-39" x="517.529297"/>
      </g>
     </g>
    </g>
    <g id="xtick_7">
     <g id="line2d_7">
      <g>
       <use xlink:href="#mc67af4e76c" x="446.040694" y="395.28" style="stroke: #000000; stroke-width: 0.8"/>
      </g>
     </g>
     <g id="text_7">
      <!-- 2022-08-16 -->
      <g transform="translate(360.911667 495.213718) rotate(-45) scale(0.2 -0.2)">
       <defs>
        <path id="DejaVuSans-38" d="M 2034 2216 
Q 1584 2216 1326 1975 
Q 1069 1734 1069 1313 
Q 1069 891 1326 650 
Q 1584 409 2034 409 
Q 2484 409 2743 651 
Q 3003 894 3003 1313 
Q 3003 1734 2745 1975 
Q 2488 2216 2034 2216 
z
M 1403 2484 
Q 997 2584 770 2862 
Q 544 3141 544 3541 
Q 544 4100 942 4425 
Q 1341 4750 2034 4750 
Q 2731 4750 3128 4425 
Q 3525 4100 3525 3541 
Q 3525 3141 3298 2862 
Q 3072 2584 2669 2484 
Q 3125 2378 3379 2068 
Q 3634 1759 3634 1313 
Q 3634 634 3220 271 
Q 2806 -91 2034 -91 
Q 1263 -91 848 271 
Q 434 634 434 1313 
Q 434 1759 690 2068 
Q 947 2378 1403 2484 
z
M 1172 3481 
Q 1172 3119 1398 2916 
Q 1625 2713 2034 2713 
Q 2441 2713 2670 2916 
Q 2900 3119 2900 3481 
Q 2900 3844 2670 4047 
Q 2441 4250 2034 4250 
Q 1625 4250 1398 4047 
Q 1172 3844 1172 3481 
z
" transform="scale(0.015625)"/>
       </defs>
       <use xlink:href="#DejaVuSans-32"/>
       <use xlink:href="#DejaVuSans-30" x="63.623047"/>
       <use xlink:href="#DejaVuSans-32" x="127.246094"/>
       <use xlink:href="#DejaVuSans-32" x="190.869141"/>
       <use xlink:href="#DejaVuSans-2d" x="254.492188"/>
       <use xlink:href="#DejaVuSans-30" x="290.576172"/>
       <use xlink:href="#DejaVuSans-38" x="354.199219"/>
       <use xlink:href="#DejaVuSans-2d" x="417.822266"/>
       <use xlink:href="#DejaVuSans-31" x="453.90625"/>
       <use xlink:href="#DejaVuSans-36" x="517.529297"/>
      </g>
     </g>
    </g>
    <g id="xtick_8">
     <g id="line2d_8">
      <g>
       <use xlink:href="#mc67af4e76c" x="503.20167" y="395.28" style="stroke: #000000; stroke-width: 0.8"/>
      </g>
     </g>
     <g id="text_8">
      <!-- 2022-09-13 -->
      <g transform="translate(418.072643 495.213718) rotate(-45) scale(0.2 -0.2)">
       <use xlink:href="#DejaVuSans-32"/>
       <use xlink:href="#DejaVuSans-30" x="63.623047"/>
       <use xlink:href="#DejaVuSans-32" x="127.246094"/>
       <use xlink:href="#DejaVuSans-32" x="190.869141"/>
       <use xlink:href="#DejaVuSans-2d" x="254.492188"/>
       <use xlink:href="#DejaVuSans-30" x="290.576172"/>
       <use xlink:href="#DejaVuSans-39" x="354.199219"/>
       <use xlink:href="#DejaVuSans-2d" x="417.822266"/>
       <use xlink:href="#DejaVuSans-31" x="453.90625"/>
       <use xlink:href="#DejaVuSans-33" x="517.529297"/>
      </g>
     </g>
    </g>
    <g id="xtick_9">
     <g id="line2d_9">
      <g>
       <use xlink:href="#mc67af4e76c" x="560.362646" y="395.28" style="stroke: #000000; stroke-width: 0.8"/>
      </g>
     </g>
     <g id="text_9">
      <!-- 2022-10-11 -->
      <g transform="translate(475.233618 495.213718) rotate(-45) scale(0.2 -0.2)">
       <use xlink:href="#DejaVuSans-32"/>
       <use xlink:href="#DejaVuSans-30" x="63.623047"/>
       <use xlink:href="#DejaVuSans-32" x="127.246094"/>
       <use xlink:href="#DejaVuSans-32" x="190.869141"/>
       <use xlink:href="#DejaVuSans-2d" x="254.492188"/>
       <use xlink:href="#DejaVuSans-31" x="290.576172"/>
       <use xlink:href="#DejaVuSans-30" x="354.199219"/>
       <use xlink:href="#DejaVuSans-2d" x="417.822266"/>
       <use xlink:href="#DejaVuSans-31" x="453.90625"/>
       <use xlink:href="#DejaVuSans-31" x="517.529297"/>
      </g>
     </g>
    </g>
    <g id="xtick_10">
     <g id="line2d_10">
      <g>
       <use xlink:href="#mc67af4e76c" x="617.523621" y="395.28" style="stroke: #000000; stroke-width: 0.8"/>
      </g>
     </g>
     <g id="text_10">
      <!-- 2022-11-08 -->
      <g transform="translate(532.394594 495.213718) rotate(-45) scale(0.2 -0.2)">
       <use xlink:href="#DejaVuSans-32"/>
       <use xlink:href="#DejaVuSans-30" x="63.623047"/>
       <use xlink:href="#DejaVuSans-32" x="127.246094"/>
       <use xlink:href="#DejaVuSans-32" x="190.869141"/>
       <use xlink:href="#DejaVuSans-2d" x="254.492188"/>
       <use xlink:href="#DejaVuSans-31" x="290.576172"/>
       <use xlink:href="#DejaVuSans-31" x="354.199219"/>
       <use xlink:href="#DejaVuSans-2d" x="417.822266"/>
       <use xlink:href="#DejaVuSans-30" x="453.90625"/>
       <use xlink:href="#DejaVuSans-38" x="517.529297"/>
      </g>
     </g>
    </g>
    <g id="xtick_11">
     <g id="line2d_11">
      <g>
       <use xlink:href="#mc67af4e76c" x="674.684597" y="395.28" style="stroke: #000000; stroke-width: 0.8"/>
      </g>
     </g>
     <g id="text_11">
      <!-- 2022-12-06 -->
      <g transform="translate(589.555569 495.213718) rotate(-45) scale(0.2 -0.2)">
       <use xlink:href="#DejaVuSans-32"/>
       <use xlink:href="#DejaVuSans-30" x="63.623047"/>
       <use xlink:href="#DejaVuSans-32" x="127.246094"/>
       <use xlink:href="#DejaVuSans-32" x="190.869141"/>
       <use xlink:href="#DejaVuSans-2d" x="254.492188"/>
       <use xlink:href="#DejaVuSans-31" x="290.576172"/>
       <use xlink:href="#DejaVuSans-32" x="354.199219"/>
       <use xlink:href="#DejaVuSans-2d" x="417.822266"/>
       <use xlink:href="#DejaVuSans-30" x="453.90625"/>
       <use xlink:href="#DejaVuSans-36" x="517.529297"/>
      </g>
     </g>
    </g>
    <g id="xtick_12">
     <g id="line2d_12">
      <g>
       <use xlink:href="#mc67af4e76c" x="731.845572" y="395.28" style="stroke: #000000; stroke-width: 0.8"/>
      </g>
     </g>
     <g id="text_12">
      <!-- 2023-01-03 -->
      <g transform="translate(646.716545 495.213718) rotate(-45) scale(0.2 -0.2)">
       <use xlink:href="#DejaVuSans-32"/>
       <use xlink:href="#DejaVuSans-30" x="63.623047"/>
       <use xlink:href="#DejaVuSans-32" x="127.246094"/>
       <use xlink:href="#DejaVuSans-33" x="190.869141"/>
       <use xlink:href="#DejaVuSans-2d" x="254.492188"/>
       <use xlink:href="#DejaVuSans-30" x="290.576172"/>
       <use xlink:href="#DejaVuSans-31" x="354.199219"/>
       <use xlink:href="#DejaVuSans-2d" x="417.822266"/>
       <use xlink:href="#DejaVuSans-30" x="453.90625"/>
       <use xlink:href="#DejaVuSans-33" x="517.529297"/>
      </g>
     </g>
    </g>
    <g id="xtick_13">
     <g id="line2d_13">
      <g>
       <use xlink:href="#mc67af4e76c" x="789.006548" y="395.28" style="stroke: #000000; stroke-width: 0.8"/>
      </g>
     </g>
     <g id="text_13">
      <!-- 2023-01-31 -->
      <g transform="translate(703.877521 495.213718) rotate(-45) scale(0.2 -0.2)">
       <use xlink:href="#DejaVuSans-32"/>
       <use xlink:href="#DejaVuSans-30" x="63.623047"/>
       <use xlink:href="#DejaVuSans-32" x="127.246094"/>
       <use xlink:href="#DejaVuSans-33" x="190.869141"/>
       <use xlink:href="#DejaVuSans-2d" x="254.492188"/>
       <use xlink:href="#DejaVuSans-30" x="290.576172"/>
       <use xlink:href="#DejaVuSans-31" x="354.199219"/>
       <use xlink:href="#DejaVuSans-2d" x="417.822266"/>
       <use xlink:href="#DejaVuSans-33" x="453.90625"/>
       <use xlink:href="#DejaVuSans-31" x="517.529297"/>
      </g>
     </g>
    </g>
    <g id="xtick_14">
     <g id="line2d_14">
      <g>
       <use xlink:href="#mc67af4e76c" x="846.167524" y="395.28" style="stroke: #000000; stroke-width: 0.8"/>
      </g>
     </g>
     <g id="text_14">
      <!-- 2023-02-28 -->
      <g transform="translate(761.038496 495.213718) rotate(-45) scale(0.2 -0.2)">
       <use xlink:href="#DejaVuSans-32"/>
       <use xlink:href="#DejaVuSans-30" x="63.623047"/>
       <use xlink:href="#DejaVuSans-32" x="127.246094"/>
       <use xlink:href="#DejaVuSans-33" x="190.869141"/>
       <use xlink:href="#DejaVuSans-2d" x="254.492188"/>
       <use xlink:href="#DejaVuSans-30" x="290.576172"/>
       <use xlink:href="#DejaVuSans-32" x="354.199219"/>
       <use xlink:href="#DejaVuSans-2d" x="417.822266"/>
       <use xlink:href="#DejaVuSans-32" x="453.90625"/>
       <use xlink:href="#DejaVuSans-38" x="517.529297"/>
      </g>
     </g>
    </g>
    <g id="xtick_15">
     <g id="line2d_15">
      <g>
       <use xlink:href="#mc67af4e76c" x="903.328499" y="395.28" style="stroke: #000000; stroke-width: 0.8"/>
      </g>
     </g>
     <g id="text_15">
      <!-- 2023-03-28 -->
      <g transform="translate(818.199472 495.213718) rotate(-45) scale(0.2 -0.2)">
       <use xlink:href="#DejaVuSans-32"/>
       <use xlink:href="#DejaVuSans-30" x="63.623047"/>
       <use xlink:href="#DejaVuSans-32" x="127.246094"/>
       <use xlink:href="#DejaVuSans-33" x="190.869141"/>
       <use xlink:href="#DejaVuSans-2d" x="254.492188"/>
       <use xlink:href="#DejaVuSans-30" x="290.576172"/>
       <use xlink:href="#DejaVuSans-33" x="354.199219"/>
       <use xlink:href="#DejaVuSans-2d" x="417.822266"/>
       <use xlink:href="#DejaVuSans-32" x="453.90625"/>
       <use xlink:href="#DejaVuSans-38" x="517.529297"/>
      </g>
     </g>
    </g>
    <g id="xtick_16">
     <g id="line2d_16">
      <g>
       <use xlink:href="#mc67af4e76c" x="940.074841" y="395.28" style="stroke: #000000; stroke-width: 0.8"/>
      </g>
     </g>
     <g id="text_16">
      <!-- 2023-04-15 -->
      <g transform="translate(854.945813 495.213718) rotate(-45) scale(0.2 -0.2)">
       <use xlink:href="#DejaVuSans-32"/>
       <use xlink:href="#DejaVuSans-30" x="63.623047"/>
       <use xlink:href="#DejaVuSans-32" x="127.246094"/>
       <use xlink:href="#DejaVuSans-33" x="190.869141"/>
       <use xlink:href="#DejaVuSans-2d" x="254.492188"/>
       <use xlink:href="#DejaVuSans-30" x="290.576172"/>
       <use xlink:href="#DejaVuSans-34" x="354.199219"/>
       <use xlink:href="#DejaVuSans-2d" x="417.822266"/>
       <use xlink:href="#DejaVuSans-31" x="453.90625"/>
       <use xlink:href="#DejaVuSans-35" x="517.529297"/>
      </g>
     </g>
    </g>
   </g>
   <g id="matplotlib.axis_2">
    <g id="ytick_1">
     <g id="line2d_17">
      <defs>
       <path id="mc2c5b27762" d="M 0 0 
L -3.5 0 
" style="stroke: #000000; stroke-width: 0.8"/>
      </defs>
      <g>
       <use xlink:href="#mc2c5b27762" x="103.074841" y="386.234397" style="stroke: #000000; stroke-width: 0.8"/>
      </g>
     </g>
     <g id="text_17">
      <!-- 0.10 -->
      <g transform="translate(34.784216 393.832834) scale(0.2 -0.2)">
       <defs>
        <path id="DejaVuSans-2212" d="M 678 2272 
L 4684 2272 
L 4684 1741 
L 678 1741 
L 678 2272 
z
" transform="scale(0.015625)"/>
        <path id="DejaVuSans-2e" d="M 684 794 
L 1344 794 
L 1344 0 
L 684 0 
L 684 794 
z
" transform="scale(0.015625)"/>
       </defs>
       <use xlink:href="#DejaVuSans-2212"/>
       <use xlink:href="#DejaVuSans-30" x="83.789062"/>
       <use xlink:href="#DejaVuSans-2e" x="147.412109"/>
       <use xlink:href="#DejaVuSans-31" x="179.199219"/>
       <use xlink:href="#DejaVuSans-30" x="242.822266"/>
      </g>
     </g>
    </g>
    <g id="ytick_2">
     <g id="line2d_18">
      <g>
       <use xlink:href="#mc2c5b27762" x="103.074841" y="336.301291" style="stroke: #000000; stroke-width: 0.8"/>
      </g>
     </g>
     <g id="text_18">
      <!-- 0.05 -->
      <g transform="translate(34.784216 343.899728) scale(0.2 -0.2)">
       <use xlink:href="#DejaVuSans-2212"/>
       <use xlink:href="#DejaVuSans-30" x="83.789062"/>
       <use xlink:href="#DejaVuSans-2e" x="147.412109"/>
       <use xlink:href="#DejaVuSans-30" x="179.199219"/>
       <use xlink:href="#DejaVuSans-35" x="242.822266"/>
      </g>
     </g>
    </g>
    <g id="ytick_3">
     <g id="line2d_19">
      <g>
       <use xlink:href="#mc2c5b27762" x="103.074841" y="286.368185" style="stroke: #000000; stroke-width: 0.8"/>
      </g>
     </g>
     <g id="text_19">
      <!-- 0.00 -->
      <g transform="translate(51.543591 293.966622) scale(0.2 -0.2)">
       <use xlink:href="#DejaVuSans-30"/>
       <use xlink:href="#DejaVuSans-2e" x="63.623047"/>
       <use xlink:href="#DejaVuSans-30" x="95.410156"/>
       <use xlink:href="#DejaVuSans-30" x="159.033203"/>
      </g>
     </g>
    </g>
    <g id="ytick_4">
     <g id="line2d_20">
      <g>
       <use xlink:href="#mc2c5b27762" x="103.074841" y="236.435079" style="stroke: #000000; stroke-width: 0.8"/>
      </g>
     </g>
     <g id="text_20">
      <!-- 0.05 -->
      <g transform="translate(51.543591 244.033516) scale(0.2 -0.2)">
       <use xlink:href="#DejaVuSans-30"/>
       <use xlink:href="#DejaVuSans-2e" x="63.623047"/>
       <use xlink:href="#DejaVuSans-30" x="95.410156"/>
       <use xlink:href="#DejaVuSans-35" x="159.033203"/>
      </g>
     </g>
    </g>
    <g id="ytick_5">
     <g id="line2d_21">
      <g>
       <use xlink:href="#mc2c5b27762" x="103.074841" y="186.501973" style="stroke: #000000; stroke-width: 0.8"/>
      </g>
     </g>
     <g id="text_21">
      <!-- 0.10 -->
      <g transform="translate(51.543591 194.10041) scale(0.2 -0.2)">
       <use xlink:href="#DejaVuSans-30"/>
       <use xlink:href="#DejaVuSans-2e" x="63.623047"/>
       <use xlink:href="#DejaVuSans-31" x="95.410156"/>
       <use xlink:href="#DejaVuSans-30" x="159.033203"/>
      </g>
     </g>
    </g>
    <g id="ytick_6">
     <g id="line2d_22">
      <g>
       <use xlink:href="#mc2c5b27762" x="103.074841" y="136.568867" style="stroke: #000000; stroke-width: 0.8"/>
      </g>
     </g>
     <g id="text_22">
      <!-- 0.15 -->
      <g transform="translate(51.543591 144.167304) scale(0.2 -0.2)">
       <use xlink:href="#DejaVuSans-30"/>
       <use xlink:href="#DejaVuSans-2e" x="63.623047"/>
       <use xlink:href="#DejaVuSans-31" x="95.410156"/>
       <use xlink:href="#DejaVuSans-35" x="159.033203"/>
      </g>
     </g>
    </g>
    <g id="ytick_7">
     <g id="line2d_23">
      <g>
       <use xlink:href="#mc2c5b27762" x="103.074841" y="86.63576" style="stroke: #000000; stroke-width: 0.8"/>
      </g>
     </g>
     <g id="text_23">
      <!-- 0.20 -->
      <g transform="translate(51.543591 94.234198) scale(0.2 -0.2)">
       <use xlink:href="#DejaVuSans-30"/>
       <use xlink:href="#DejaVuSans-2e" x="63.623047"/>
       <use xlink:href="#DejaVuSans-32" x="95.410156"/>
       <use xlink:href="#DejaVuSans-30" x="159.033203"/>
      </g>
     </g>
    </g>
    <g id="ytick_8">
     <g id="line2d_24">
      <g>
       <use xlink:href="#mc2c5b27762" x="103.074841" y="36.702654" style="stroke: #000000; stroke-width: 0.8"/>
      </g>
     </g>
     <g id="text_24">
      <!-- 0.25 -->
      <g transform="translate(51.543591 44.301092) scale(0.2 -0.2)">
       <use xlink:href="#DejaVuSans-30"/>
       <use xlink:href="#DejaVuSans-2e" x="63.623047"/>
       <use xlink:href="#DejaVuSans-32" x="95.410156"/>
       <use xlink:href="#DejaVuSans-35" x="159.033203"/>
      </g>
     </g>
    </g>
   </g>
   <g id="line2d_25">
    <path d="M 0 0 
" clip-path="url(#p7a201790be)" style="fill: none; stroke: #ffa500; stroke-width: 1.5; stroke-linecap: square"/>
   </g>
   <g id="line2d_26">
    <path d="M 103.074841 286.368185 
L 948.274841 286.368185 
" clip-path="url(#p7a201790be)" style="fill: none; stroke-dasharray: 7.4,3.2; stroke-dashoffset: 0; stroke: #000000; stroke-width: 2"/>
   </g>
   <g id="patch_3">
    <path d="M 103.074841 395.28 
L 103.074841 7.2 
" style="fill: none; stroke: #000000; stroke-width: 0.8; stroke-linejoin: miter; stroke-linecap: square"/>
   </g>
   <g id="patch_4">
    <path d="M 940.074841 395.28 
L 940.074841 7.2 
" style="fill: none; stroke: #000000; stroke-width: 0.8; stroke-linejoin: miter; stroke-linecap: square"/>
   </g>
   <g id="patch_5">
    <path d="M 103.074841 395.28 
L 940.074841 395.28 
" style="fill: none; stroke: #000000; stroke-width: 0.8; stroke-linejoin: miter; stroke-linecap: square"/>
   </g>
   <g id="patch_6">
    <path d="M 103.074841 7.2 
L 940.074841 7.2 
" style="fill: none; stroke: #000000; stroke-width: 0.8; stroke-linejoin: miter; stroke-linecap: square"/>
   </g>
  </g>
 </g>
 <defs>
  <clipPath id="p7a201790be">
   <rect x="103.074841" y="7.2" width="837" height="388.08"/>
  </clipPath>
 </defs>
</svg>
