<?xml version="1.0" encoding="utf-8" standalone="no"?>
<!DOCTYPE svg PUBLIC "-//W3C//DTD SVG 1.1//EN"
  "http://www.w3.org/Graphics/SVG/1.1/DTD/svg11.dtd">
<svg xmlns:xlink="http://www.w3.org/1999/xlink" width="1040.965466pt" height="505.354841pt" viewBox="0 0 1040.965466 505.354841" xmlns="http://www.w3.org/2000/svg" version="1.1">
 <metadata>
  <rdf:RDF xmlns:dc="http://purl.org/dc/elements/1.1/" xmlns:cc="http://creativecommons.org/ns#" xmlns:rdf="http://www.w3.org/1999/02/22-rdf-syntax-ns#">
   <cc:Work>
    <dc:type rdf:resource="http://purl.org/dc/dcmitype/StillImage"/>
    <dc:date>2023-11-24T15:26:24.564849</dc:date>
    <dc:format>image/svg+xml</dc:format>
    <dc:creator>
     <cc:Agent>
      <dc:title>Matplotlib v3.7.2, https://matplotlib.org/</dc:title>
     </cc:Agent>
    </dc:creator>
   </cc:Work>
  </rdf:RDF>
 </metadata>
 <defs>
  <style type="text/css">*{stroke-linejoin: round; stroke-linecap: butt}</style>
 </defs>
 <g id="figure_1">
  <g id="patch_1">
   <path d="M 0 505.354841 
L 1040.965466 505.354841 
L 1040.965466 -0 
L 0 -0 
z
" style="fill: #ffffff"/>
  </g>
  <g id="axes_1">
   <g id="patch_2">
    <path d="M 103.074841 395.28 
L 940.074841 395.28 
L 940.074841 7.2 
L 103.074841 7.2 
z
" style="fill: #ffffff"/>
   </g>
   <g id="PolyCollection_1">
    <defs>
     <path id="mca70747154" d="M 103.074841 -299.869079 
L 103.074841 -299.849072 
L 104.356617 -299.949182 
L 105.638394 -300.034979 
L 106.92017 -300.144859 
L 108.201946 -300.224759 
L 109.483723 -300.312736 
L 110.765499 -300.411961 
L 112.047276 -300.507962 
L 113.329052 -300.596302 
L 114.610828 -300.672967 
L 115.892605 -300.763955 
L 117.174381 -300.862801 
L 118.456158 -300.960441 
L 119.737934 -301.07006 
L 121.019711 -301.163675 
L 122.301487 -301.271145 
L 123.583263 -301.37763 
L 124.86504 -301.493905 
L 126.146816 -301.598397 
L 127.428593 -301.699581 
L 128.710369 -301.819908 
L 129.992145 -301.937487 
L 131.273922 -302.051542 
L 132.555698 -302.187486 
L 133.837475 -302.305641 
L 135.119251 -302.449706 
L 136.401028 -302.587072 
L 137.682804 -302.746485 
L 138.96458 -302.911534 
L 140.246357 -303.069048 
L 141.528133 -303.245427 
L 142.80991 -303.450434 
L 144.091686 -303.632834 
L 145.373462 -303.840478 
L 146.655239 -304.078751 
L 147.937015 -304.306758 
L 149.218792 -304.557867 
L 150.500568 -304.82206 
L 151.782345 -305.091548 
L 153.064121 -305.388641 
L 154.345897 -305.708766 
L 155.627674 -306.039727 
L 156.90945 -306.391276 
L 158.191227 -306.752149 
L 159.473003 -307.141258 
L 160.754779 -307.525527 
L 162.036556 -307.943074 
L 163.318332 -308.346939 
L 164.600109 -308.794963 
L 165.881885 -309.271965 
L 167.163662 -309.72479 
L 168.445438 -310.208173 
L 169.727214 -310.719154 
L 171.008991 -311.219753 
L 172.290767 -311.728397 
L 173.572544 -312.260602 
L 174.85432 -312.797985 
L 176.136096 -313.340289 
L 177.417873 -313.904669 
L 178.699649 -314.476339 
L 179.981426 -315.045954 
L 181.263202 -315.635162 
L 182.544979 -316.22795 
L 183.826755 -316.815682 
L 185.108531 -317.434877 
L 186.390308 -318.062206 
L 187.672084 -318.689538 
L 188.953861 -319.315402 
L 190.235637 -319.93594 
L 191.517413 -320.573658 
L 192.79919 -321.200321 
L 194.080966 -321.837961 
L 195.362743 -322.422782 
L 196.644519 -323.09226 
L 197.926296 -323.708346 
L 199.208072 -324.341211 
L 200.489848 -324.938884 
L 201.771625 -325.576956 
L 203.053401 -326.184244 
L 204.335178 -326.800358 
L 205.616954 -327.414012 
L 206.89873 -328.01318 
L 208.180507 -328.613632 
L 209.462283 -329.193806 
L 210.74406 -329.80616 
L 212.025836 -330.427285 
L 213.307613 -331.018703 
L 214.589389 -331.598512 
L 215.871165 -332.222248 
L 217.152942 -332.822659 
L 218.434718 -333.427492 
L 219.716495 -334.022271 
L 220.998271 -334.603367 
L 222.280047 -335.200196 
L 223.561824 -335.802988 
L 224.8436 -336.346068 
L 226.125377 -336.961221 
L 227.407153 -337.550685 
L 228.68893 -338.130651 
L 229.970706 -338.711416 
L 231.252482 -339.290658 
L 232.534259 -339.877325 
L 233.816035 -340.437401 
L 235.097812 -341.019487 
L 236.379588 -341.616124 
L 237.661364 -342.219286 
L 238.943141 -342.828702 
L 240.224917 -343.399819 
L 241.506694 -344.028295 
L 242.78847 -344.696475 
L 244.070247 -345.330953 
L 245.352023 -345.987677 
L 246.633799 -346.659558 
L 247.915576 -347.3687 
L 249.197352 -348.090485 
L 250.479129 -348.762343 
L 251.760905 -349.525966 
L 253.042681 -350.252668 
L 254.324458 -351.034831 
L 255.606234 -351.754384 
L 256.888011 -352.597349 
L 258.169787 -353.424793 
L 259.451564 -354.228903 
L 260.73334 -355.04684 
L 262.015116 -355.889336 
L 263.296893 -356.769784 
L 264.578669 -357.595842 
L 265.860446 -358.540865 
L 267.142222 -359.373031 
L 268.423998 -360.345238 
L 269.705775 -361.286861 
L 270.987551 -362.207423 
L 272.269328 -363.175991 
L 273.551104 -364.159266 
L 274.832881 -365.055832 
L 276.114657 -366.235883 
L 277.396433 -367.253169 
L 278.67821 -368.202405 
L 279.959986 -369.272841 
L 281.241763 -370.40692 
L 282.523539 -371.647474 
L 283.805315 -372.819353 
L 285.087092 -373.807086 
L 286.368868 -375.369329 
L 287.650645 -376.625827 
L 288.932421 -377.910741 
L 290.214198 -379.241222 
L 291.495974 -380.757304 
L 292.77775 -382.216262 
L 294.059527 -383.287698 
L 295.341303 -384.646231 
L 296.62308 -386.927208 
L 297.904856 -388.818972 
L 299.186632 -390.254428 
L 300.468409 -392.110297 
L 301.750185 -393.877122 
L 303.031962 -395.232199 
L 304.313738 -397.403523 
L 305.595515 -399.794486 
L 306.877291 -401.245367 
L 308.159067 -402.027648 
L 309.440844 -403.736591 
L 310.72262 -404.567646 
L 312.004397 -405.382693 
L 313.286173 -407.572499 
L 314.567949 -407.334523 
L 315.849726 -406.371317 
L 317.131502 -404.797271 
L 318.413279 -406.824911 
L 319.695055 -403.210452 
L 320.976832 -402.039005 
L 322.258608 -406.996457 
L 323.540384 -406.529287 
L 324.822161 -403.818763 
L 326.103937 -405.344644 
L 327.385714 -404.969777 
L 328.66749 -395.149078 
L 329.949266 -381.509289 
L 331.231043 -374.144653 
L 332.512819 -389.934451 
L 333.794596 -382.293548 
L 335.076372 -372.046618 
L 336.358149 -372.174703 
L 337.639925 -351.644482 
L 338.921701 -354.810911 
L 340.203478 -360.327443 
L 341.485254 -377.038843 
L 342.767031 -362.150949 
L 344.048807 -353.399603 
L 345.330583 -357.100305 
L 346.61236 -354.610898 
L 347.894136 -346.073918 
L 349.175913 -347.317594 
L 350.457689 -355.066292 
L 351.739466 -345.859852 
L 353.021242 -344.218901 
L 354.303018 -347.736734 
L 355.584795 -341.830355 
L 356.866571 -339.608088 
L 358.148348 -340.47882 
L 359.430124 -342.289788 
L 360.7119 -340.368671 
L 361.993677 -342.373066 
L 363.275453 -342.246488 
L 364.55723 -340.557718 
L 365.839006 -342.339367 
L 367.120783 -341.524794 
L 368.402559 -341.509002 
L 369.684335 -342.951949 
L 370.966112 -342.456801 
L 372.247888 -344.633859 
L 373.529665 -344.472124 
L 374.811441 -343.937548 
L 376.093217 -343.945031 
L 377.374994 -344.965472 
L 378.65677 -345.862002 
L 379.938547 -346.121175 
L 381.220323 -347.029337 
L 382.502099 -347.191631 
L 383.783876 -347.46481 
L 385.065652 -348.786114 
L 386.347429 -348.101239 
L 387.629205 -349.082856 
L 388.910982 -349.469072 
L 390.192758 -349.405739 
L 391.474534 -350.26512 
L 392.756311 -350.365367 
L 394.038087 -349.949299 
L 395.319864 -349.475661 
L 396.60164 -350.857965 
L 397.883416 -351.043648 
L 399.165193 -351.358833 
L 400.446969 -348.74642 
L 401.728746 -348.538725 
L 403.010522 -347.370312 
L 404.292299 -349.500263 
L 405.574075 -350.801119 
L 406.855851 -350.10002 
L 408.137628 -348.234676 
L 409.419404 -347.686861 
L 410.701181 -350.416711 
L 411.982957 -347.574124 
L 413.264733 -348.059078 
L 414.54651 -347.943623 
L 415.828286 -348.978836 
L 417.110063 -347.582654 
L 418.391839 -347.897737 
L 419.673616 -346.797525 
L 420.955392 -347.148508 
L 422.237168 -347.695666 
L 423.518945 -348.406739 
L 424.800721 -348.463559 
L 426.082498 -348.697166 
L 427.364274 -348.932471 
L 428.64605 -348.451204 
L 429.927827 -348.742815 
L 431.209603 -348.949365 
L 432.49138 -350.200716 
L 433.773156 -351.269351 
L 435.054933 -351.415214 
L 436.336709 -352.49637 
L 437.618485 -352.284643 
L 438.900262 -353.124504 
L 440.182038 -354.490798 
L 441.463815 -355.664459 
L 442.745591 -356.336293 
L 444.027367 -357.866388 
L 445.309144 -358.506555 
L 446.59092 -359.872699 
L 447.872697 -361.205594 
L 449.154473 -362.316777 
L 450.43625 -363.56705 
L 451.718026 -365.096516 
L 452.999802 -366.578733 
L 454.281579 -368.017935 
L 455.563355 -369.91739 
L 456.845132 -371.510669 
L 458.126908 -372.885042 
L 459.408684 -374.494476 
L 460.690461 -376.269213 
L 461.972237 -377.947648 
L 463.254014 -379.677542 
L 464.53579 -382.173748 
L 465.817567 -383.558539 
L 467.099343 -385.349661 
L 468.381119 -386.712171 
L 469.662896 -389.134463 
L 470.944672 -391.239053 
L 472.226449 -392.595839 
L 473.508225 -394.874052 
L 474.790001 -397.319739 
L 476.071778 -398.933037 
L 477.353554 -401.413177 
L 478.635331 -403.008397 
L 479.917107 -405.281687 
L 481.198884 -408.258076 
L 482.48066 -410.389542 
L 483.762436 -411.646429 
L 485.044213 -414.340787 
L 486.325989 -416.341957 
L 487.607766 -418.878511 
L 488.889542 -420.382964 
L 490.171318 -423.473651 
L 491.453095 -425.987278 
L 492.734871 -424.734592 
L 494.016648 -430.146017 
L 495.298424 -430.410787 
L 496.580201 -433.171221 
L 497.861977 -434.026454 
L 499.143753 -436.930897 
L 500.42553 -438.655926 
L 501.707306 -440.685587 
L 502.989083 -442.163728 
L 504.270859 -443.673234 
L 505.552635 -445.653878 
L 506.834412 -443.099451 
L 508.116188 -450.012326 
L 509.397965 -450.364467 
L 510.679741 -446.219313 
L 511.961518 -452.780579 
L 513.243294 -450.748366 
L 514.52507 -450.99623 
L 515.806847 -454.948734 
L 517.088623 -454.030501 
L 518.3704 -447.984096 
L 519.652176 -452.521627 
L 520.933952 -452.604026 
L 522.215729 -450.349415 
L 523.497505 -450.000934 
L 524.779282 -447.486365 
L 526.061058 -444.195924 
L 527.342835 -439.936508 
L 528.624611 -426.540002 
L 529.906387 -431.169741 
L 531.188164 -423.945071 
L 532.46994 -419.511635 
L 533.751717 -416.192079 
L 535.033493 -411.265601 
L 536.315269 -406.240002 
L 537.597046 -412.69294 
L 538.878822 -406.698886 
L 540.160599 -397.155457 
L 541.442375 -392.842313 
L 542.724152 -391.599622 
L 544.005928 -379.38411 
L 545.287704 -378.769922 
L 546.569481 -376.560887 
L 547.851257 -377.021346 
L 549.133034 -367.413383 
L 550.41481 -370.37477 
L 551.696586 -373.010761 
L 552.978363 -363.935881 
L 554.260139 -356.664564 
L 555.541916 -358.31638 
L 556.823692 -353.126155 
L 558.105469 -351.903799 
L 559.387245 -351.5152 
L 560.669021 -351.61695 
L 561.950798 -350.182175 
L 563.232574 -348.230437 
L 564.514351 -340.249456 
L 565.796127 -345.710658 
L 567.077903 -338.846336 
L 568.35968 -340.031094 
L 569.641456 -341.394829 
L 570.923233 -338.737677 
L 572.205009 -336.423842 
L 573.486786 -340.417914 
L 574.768562 -337.358915 
L 576.050338 -337.581649 
L 577.332115 -334.243069 
L 578.613891 -335.586002 
L 579.895668 -337.164377 
L 581.177444 -335.346608 
L 582.45922 -335.122358 
L 583.740997 -335.625909 
L 585.022773 -336.663017 
L 586.30455 -335.735806 
L 587.586326 -337.986913 
L 588.868103 -337.351924 
L 590.149879 -334.11748 
L 591.431655 -334.410452 
L 592.713432 -336.702866 
L 593.995208 -336.41635 
L 595.276985 -336.590566 
L 596.558761 -339.584918 
L 597.840537 -338.083388 
L 599.122314 -335.783719 
L 600.40409 -338.651458 
L 601.685867 -338.758631 
L 602.967643 -340.031912 
L 604.24942 -338.945807 
L 605.531196 -339.053185 
L 606.812972 -339.819038 
L 608.094749 -339.948879 
L 609.376525 -340.149266 
L 610.658302 -340.847416 
L 611.940078 -342.731675 
L 613.221854 -343.150209 
L 614.503631 -344.240155 
L 615.785407 -347.351164 
L 617.067184 -344.457076 
L 618.34896 -348.122717 
L 619.630737 -346.825889 
L 620.912513 -346.82243 
L 622.194289 -346.302679 
L 623.476066 -348.079149 
L 624.757842 -347.424704 
L 626.039619 -347.308823 
L 627.321395 -351.207782 
L 628.603171 -349.585901 
L 629.884948 -349.93968 
L 631.166724 -348.829374 
L 632.448501 -350.944784 
L 633.730277 -349.818193 
L 635.012054 -350.006142 
L 636.29383 -353.077427 
L 637.575606 -353.325768 
L 638.857383 -354.074386 
L 640.139159 -354.215741 
L 641.420936 -355.031974 
L 642.702712 -354.778566 
L 643.984488 -354.94327 
L 645.266265 -355.395448 
L 646.548041 -356.176635 
L 647.829818 -357.592477 
L 649.111594 -356.232503 
L 650.393371 -356.074165 
L 651.675147 -356.918321 
L 652.956923 -357.463506 
L 654.2387 -360.434275 
L 655.520476 -357.208293 
L 656.802253 -357.527437 
L 658.084029 -357.282734 
L 659.365805 -358.147406 
L 660.647582 -359.163156 
L 661.929358 -359.897996 
L 663.211135 -359.848872 
L 664.492911 -360.061501 
L 665.774688 -359.97087 
L 667.056464 -361.693384 
L 668.33824 -362.96764 
L 669.620017 -361.116666 
L 670.901793 -363.273723 
L 672.18357 -363.162881 
L 673.465346 -362.480336 
L 674.747122 -365.916745 
L 676.028899 -366.371567 
L 677.310675 -365.121799 
L 678.592452 -366.698249 
L 679.874228 -364.851062 
L 681.156005 -366.800623 
L 682.437781 -369.212069 
L 683.719557 -367.311602 
L 685.001334 -366.986461 
L 686.28311 -368.176564 
L 687.564887 -367.26263 
L 688.846663 -368.306021 
L 690.128439 -364.702275 
L 691.410216 -366.021079 
L 692.691992 -365.750776 
L 693.973769 -368.163349 
L 695.255545 -370.315808 
L 696.537322 -367.363881 
L 697.819098 -364.530673 
L 699.100874 -368.05242 
L 700.382651 -368.089683 
L 701.664427 -370.990169 
L 702.946204 -369.914182 
L 704.22798 -368.770746 
L 705.509756 -370.51321 
L 706.791533 -372.989309 
L 708.073309 -368.919877 
L 709.355086 -371.400177 
L 710.636862 -368.254472 
L 711.918639 -367.603359 
L 713.200415 -372.508561 
L 714.482191 -371.984173 
L 715.763968 -373.843537 
L 717.045744 -372.364005 
L 718.327521 -369.943433 
L 719.609297 -364.295746 
L 720.891073 -362.093074 
L 722.17285 -364.740238 
L 723.454626 -358.496303 
L 724.736403 -349.03703 
L 726.018179 -361.137487 
L 727.299956 -364.765014 
L 728.581732 -360.793561 
L 729.863508 -357.914052 
L 731.145285 -357.305083 
L 732.427061 -359.307202 
L 733.708838 -352.475216 
L 734.990614 -348.315835 
L 736.27239 -355.933659 
L 737.554167 -348.985381 
L 738.835943 -352.263718 
L 740.11772 -352.205786 
L 741.399496 -345.807475 
L 742.681273 -347.595842 
L 743.963049 -342.409115 
L 745.244825 -341.906505 
L 746.526602 -348.924336 
L 747.808378 -343.143997 
L 749.090155 -343.362633 
L 750.371931 -338.739693 
L 751.653707 -340.404932 
L 752.935484 -334.917077 
L 754.21726 -338.512564 
L 755.499037 -335.221181 
L 756.780813 -334.809427 
L 758.06259 -332.869437 
L 759.344366 -338.00755 
L 760.626142 -331.865867 
L 761.907919 -329.967876 
L 763.189695 -327.064623 
L 764.471472 -323.031427 
L 765.753248 -321.731574 
L 767.035024 -324.363647 
L 768.316801 -319.60317 
L 769.598577 -310.75078 
L 770.880354 -317.873012 
L 772.16213 -321.49366 
L 773.443907 -316.198667 
L 774.725683 -311.23813 
L 776.007459 -318.938144 
L 777.289236 -322.110596 
L 778.571012 -309.11261 
L 779.852789 -300.870084 
L 781.134565 -317.050922 
L 782.416341 -312.700434 
L 783.698118 -309.170735 
L 784.979894 -308.066581 
L 786.261671 -299.36848 
L 787.543447 -301.840662 
L 788.825224 -307.968049 
L 790.107 -300.757645 
L 791.388776 -297.682216 
L 792.670553 -307.617532 
L 793.952329 -307.250517 
L 795.234106 -308.079302 
L 796.515882 -289.80189 
L 797.797658 -280.066472 
L 799.079435 -279.862584 
L 800.361211 -292.47927 
L 801.642988 -297.706029 
L 802.924764 -294.182823 
L 804.206541 -294.641547 
L 805.488317 -278.605551 
L 806.770093 -294.592304 
L 808.05187 -281.052009 
L 809.333646 -272.053189 
L 810.615423 -280.367475 
L 811.897199 -263.335334 
L 813.178975 -275.834799 
L 814.460752 -269.757884 
L 815.742528 -267.516092 
L 817.024305 -264.301344 
L 818.306081 -256.571134 
L 819.587858 -262.360247 
L 820.869634 -256.756533 
L 822.15141 -254.980799 
L 823.433187 -253.766321 
L 824.714963 -274.366105 
L 825.99674 -243.370736 
L 827.278516 -232.888618 
L 828.560292 -244.241368 
L 829.842069 -238.976896 
L 831.123845 -231.194472 
L 832.405622 -240.522154 
L 833.687398 -230.592385 
L 834.969175 -216.762803 
L 836.250951 -221.878539 
L 837.532727 -217.281254 
L 838.814504 -212.619674 
L 840.09628 -211.76716 
L 841.378057 -212.546343 
L 842.659833 -222.64636 
L 843.941609 -195.898774 
L 845.223386 -196.401348 
L 846.505162 -200.347037 
L 847.786939 -213.257983 
L 849.068715 -191.92165 
L 850.350492 -177.028501 
L 851.632268 -191.224883 
L 852.914044 -189.865636 
L 854.195821 -171.847415 
L 855.477597 -210.29033 
L 856.759374 -177.057593 
L 858.04115 -200.454743 
L 859.322926 -162.569811 
L 860.604703 -180.862051 
L 861.886479 -165.387434 
L 863.168256 -163.970062 
L 864.450032 -157.211595 
L 865.731809 -157.921982 
L 867.013585 -163.195294 
L 868.295361 -163.682014 
L 869.577138 -155.682441 
L 870.858914 -146.664791 
L 872.140691 -147.093974 
L 873.422467 -150.252739 
L 874.704243 -138.932672 
L 875.98602 -140.708779 
L 877.267796 -144.840105 
L 878.549573 -149.880951 
L 879.831349 -131.820562 
L 881.113126 -131.875207 
L 882.394902 -128.382055 
L 883.676678 -136.792367 
L 884.958455 -155.599415 
L 886.240231 -132.779573 
L 887.522008 -141.487733 
L 888.803784 -136.248011 
L 890.08556 -130.606058 
L 891.367337 -140.840414 
L 892.649113 -127.714841 
L 893.93089 -139.085407 
L 895.212666 -139.941725 
L 896.494443 -135.500483 
L 897.776219 -131.015168 
L 899.057995 -134.140265 
L 900.339772 -135.295 
L 901.621548 -141.814327 
L 902.903325 -140.041091 
L 904.185101 -136.829712 
L 905.466877 -139.957842 
L 906.748654 -133.520951 
L 908.03043 -138.933187 
L 909.312207 -133.332285 
L 910.593983 -128.952848 
L 911.87576 -129.553175 
L 913.157536 -136.115534 
L 914.439312 -136.959624 
L 915.721089 -137.623834 
L 917.002865 -135.87816 
L 918.284642 -136.731845 
L 919.566418 -146.607376 
L 920.848194 -139.159773 
L 922.129971 -187.739241 
L 923.411747 -140.275364 
L 924.693524 -137.555007 
L 925.9753 -144.680462 
L 927.257077 -151.248569 
L 928.538853 -140.202057 
L 929.820629 -146.326533 
L 931.102406 -156.263063 
L 932.384182 -149.593379 
L 933.665959 -149.525803 
L 934.947735 -153.391469 
L 936.229511 -146.552801 
L 937.511288 -152.237611 
L 938.793064 -149.474726 
L 940.074841 -147.766512 
L 940.074841 -301.496724 
L 940.074841 -301.496724 
L 938.793064 -296.607054 
L 937.511288 -299.360017 
L 936.229511 -295.617554 
L 934.947735 -298.596826 
L 933.665959 -296.420307 
L 932.384182 -297.112687 
L 931.102406 -295.519757 
L 929.820629 -291.935622 
L 928.538853 -291.209869 
L 927.257077 -292.099878 
L 925.9753 -291.125674 
L 924.693524 -286.863676 
L 923.411747 -288.349154 
L 922.129971 -296.005005 
L 920.848194 -285.943258 
L 919.566418 -287.046551 
L 918.284642 -284.302079 
L 917.002865 -282.967873 
L 915.721089 -283.123514 
L 914.439312 -281.184335 
L 913.157536 -279.773584 
L 911.87576 -277.262507 
L 910.593983 -276.507272 
L 909.312207 -276.416689 
L 908.03043 -277.605117 
L 906.748654 -275.564432 
L 905.466877 -277.36594 
L 904.185101 -275.693512 
L 902.903325 -275.581258 
L 901.621548 -275.250778 
L 900.339772 -272.550743 
L 899.057995 -271.214421 
L 897.776219 -268.820425 
L 896.494443 -270.685826 
L 895.212666 -270.74921 
L 893.93089 -269.581747 
L 892.649113 -265.272227 
L 891.367337 -268.970685 
L 890.08556 -264.859097 
L 888.803784 -266.36318 
L 887.522008 -267.881816 
L 886.240231 -263.786695 
L 884.958455 -270.215764 
L 883.676678 -264.097157 
L 882.394902 -259.95006 
L 881.113126 -260.459234 
L 879.831349 -260.156169 
L 878.549573 -265.012804 
L 877.267796 -263.238147 
L 875.98602 -261.255058 
L 874.704243 -260.201671 
L 873.422467 -263.972894 
L 872.140691 -262.488211 
L 870.858914 -261.191859 
L 869.577138 -265.900881 
L 868.295361 -267.706907 
L 867.013585 -266.507552 
L 865.731809 -263.706991 
L 864.450032 -262.82181 
L 863.168256 -266.039605 
L 861.886479 -266.245244 
L 860.604703 -271.640892 
L 859.322926 -264.199452 
L 858.04115 -276.304395 
L 856.759374 -268.292247 
L 855.477597 -280.719801 
L 854.195821 -265.829077 
L 852.914044 -272.901532 
L 851.632268 -274.115519 
L 850.350492 -265.945884 
L 849.068715 -272.353366 
L 847.786939 -280.966071 
L 846.505162 -274.717775 
L 845.223386 -273.29203 
L 843.941609 -272.732367 
L 842.659833 -283.705038 
L 841.378057 -275.473157 
L 840.09628 -278.855913 
L 838.814504 -278.916786 
L 837.532727 -280.553822 
L 836.250951 -281.651341 
L 834.969175 -279.582523 
L 833.687398 -284.896081 
L 832.405622 -288.933935 
L 831.123845 -286.160661 
L 829.842069 -287.306168 
L 828.560292 -290.902654 
L 827.278516 -285.343197 
L 825.99674 -289.876971 
L 824.714963 -303.603128 
L 823.433187 -293.678437 
L 822.15141 -293.413614 
L 820.869634 -294.391 
L 819.587858 -296.586612 
L 818.306081 -293.649958 
L 817.024305 -297.414076 
L 815.742528 -298.909496 
L 814.460752 -299.431844 
L 813.178975 -301.044074 
L 811.897199 -295.691741 
L 810.615423 -303.641179 
L 809.333646 -298.848214 
L 808.05187 -303.451023 
L 806.770093 -311.010856 
L 805.488317 -301.504548 
L 804.206541 -309.000924 
L 802.924764 -309.262144 
L 801.642988 -311.345914 
L 800.361211 -308.127733 
L 799.079435 -301.086717 
L 797.797658 -301.526579 
L 796.515882 -306.545335 
L 795.234106 -315.542101 
L 793.952329 -315.289119 
L 792.670553 -316.337664 
L 791.388776 -309.751106 
L 790.107 -311.812734 
L 788.825224 -315.83365 
L 787.543447 -312.636164 
L 786.261671 -309.831161 
L 784.979894 -315.559903 
L 783.698118 -317.250595 
L 782.416341 -319.459674 
L 781.134565 -322.838523 
L 779.852789 -312.01542 
L 778.571012 -315.753098 
L 777.289236 -326.805448 
L 776.007459 -325.189031 
L 774.725683 -319.031845 
L 773.443907 -322.29258 
L 772.16213 -326.618568 
L 770.880354 -324.332902 
L 769.598577 -319.696267 
L 768.316801 -324.37329 
L 767.035024 -329.271275 
L 765.753248 -327.443545 
L 764.471472 -326.913324 
L 763.189695 -331.53889 
L 761.907919 -334.701446 
L 760.626142 -337.4126 
L 759.344366 -346.391982 
L 758.06259 -338.845339 
L 756.780813 -341.209006 
L 755.499037 -340.967686 
L 754.21726 -345.011855 
L 752.935484 -340.570359 
L 751.653707 -348.109548 
L 750.371931 -345.323077 
L 749.090155 -351.818564 
L 747.808378 -350.950627 
L 746.526602 -359.174654 
L 745.244825 -351.33928 
L 743.963049 -349.329521 
L 742.681273 -354.839419 
L 741.399496 -354.259913 
L 740.11772 -361.839321 
L 738.835943 -360.646486 
L 737.554167 -358.271572 
L 736.27239 -366.683234 
L 734.990614 -357.842726 
L 733.708838 -361.470045 
L 732.427061 -370.807328 
L 731.145285 -367.475675 
L 729.863508 -368.53485 
L 728.581732 -371.303672 
L 727.299956 -375.667424 
L 726.018179 -371.644819 
L 724.736403 -356.686989 
L 723.454626 -367.735156 
L 722.17285 -375.63497 
L 720.891073 -372.969236 
L 719.609297 -375.526137 
L 718.327521 -381.664418 
L 717.045744 -384.609634 
L 715.763968 -387.147815 
L 714.482191 -384.593422 
L 713.200415 -385.083318 
L 711.918639 -379.611725 
L 710.636862 -380.307404 
L 709.355086 -384.073657 
L 708.073309 -380.923536 
L 706.791533 -386.681182 
L 705.509756 -383.084043 
L 704.22798 -381.413787 
L 702.946204 -382.390088 
L 701.664427 -384.317422 
L 700.382651 -380.587205 
L 699.100874 -380.893311 
L 697.819098 -377.294645 
L 696.537322 -380.500527 
L 695.255545 -384.072422 
L 693.973769 -381.709864 
L 692.691992 -379.639506 
L 691.410216 -380.019763 
L 690.128439 -377.897986 
L 688.846663 -382.936484 
L 687.564887 -381.645593 
L 686.28311 -383.06423 
L 685.001334 -382.181114 
L 683.719557 -383.21325 
L 682.437781 -385.465817 
L 681.156005 -382.133227 
L 679.874228 -380.411214 
L 678.592452 -382.97371 
L 677.310675 -381.108418 
L 676.028899 -383.247428 
L 674.747122 -382.259837 
L 673.465346 -378.155173 
L 672.18357 -379.279671 
L 670.901793 -379.252085 
L 669.620017 -376.914349 
L 668.33824 -379.471253 
L 667.056464 -377.944431 
L 665.774688 -375.864424 
L 664.492911 -376.20171 
L 663.211135 -375.746967 
L 661.929358 -375.970947 
L 660.647582 -375.250959 
L 659.365805 -373.912965 
L 658.084029 -372.949266 
L 656.802253 -373.567449 
L 655.520476 -372.898091 
L 654.2387 -377.461989 
L 652.956923 -373.274401 
L 651.675147 -372.786184 
L 650.393371 -372.065322 
L 649.111594 -372.520398 
L 647.829818 -373.802908 
L 646.548041 -372.375889 
L 645.266265 -371.758434 
L 643.984488 -371.25357 
L 642.702712 -371.398601 
L 641.420936 -371.999189 
L 640.139159 -371.536556 
L 638.857383 -371.369017 
L 637.575606 -370.749197 
L 636.29383 -370.574043 
L 635.012054 -367.172819 
L 633.730277 -367.149283 
L 632.448501 -368.792573 
L 631.166724 -366.616687 
L 629.884948 -368.331202 
L 628.603171 -368.067998 
L 627.321395 -370.936587 
L 626.039619 -365.989532 
L 624.757842 -366.390676 
L 623.476066 -367.438338 
L 622.194289 -365.815447 
L 620.912513 -366.7588 
L 619.630737 -367.066481 
L 618.34896 -369.16765 
L 617.067184 -365.538905 
L 615.785407 -368.635334 
L 614.503631 -365.207191 
L 613.221854 -363.895088 
L 611.940078 -363.595336 
L 610.658302 -361.49192 
L 609.376525 -360.343094 
L 608.094749 -360.870376 
L 606.812972 -360.36447 
L 605.531196 -360.032595 
L 604.24942 -359.867489 
L 602.967643 -361.345377 
L 601.685867 -359.508069 
L 600.40409 -358.8674 
L 599.122314 -356.24085 
L 597.840537 -358.417017 
L 596.558761 -359.583271 
L 595.276985 -356.58939 
L 593.995208 -356.209612 
L 592.713432 -355.694506 
L 591.431655 -353.697352 
L 590.149879 -353.472881 
L 588.868103 -355.908223 
L 587.586326 -356.018501 
L 586.30455 -353.850414 
L 585.022773 -354.021083 
L 583.740997 -353.263214 
L 582.45922 -352.756356 
L 581.177444 -352.483861 
L 579.895668 -352.856007 
L 578.613891 -351.702553 
L 577.332115 -350.453791 
L 576.050338 -353.516931 
L 574.768562 -352.602009 
L 573.486786 -354.50066 
L 572.205009 -351.194981 
L 570.923233 -352.037301 
L 569.641456 -354.482265 
L 568.35968 -352.929193 
L 567.077903 -352.118024 
L 565.796127 -357.336948 
L 564.514351 -352.414805 
L 563.232574 -358.623455 
L 561.950798 -359.624395 
L 560.669021 -360.748569 
L 559.387245 -359.986151 
L 558.105469 -360.254483 
L 556.823692 -361.537164 
L 555.541916 -365.840281 
L 554.260139 -364.477492 
L 552.978363 -371.152111 
L 551.696586 -379.730421 
L 550.41481 -377.12157 
L 549.133034 -374.246752 
L 547.851257 -384.727744 
L 546.569481 -384.035961 
L 545.287704 -386.866387 
L 544.005928 -387.64265 
L 542.724152 -402.862858 
L 541.442375 -404.722011 
L 540.160599 -409.982205 
L 538.878822 -421.535909 
L 537.597046 -429.879891 
L 536.315269 -421.956974 
L 535.033493 -428.146316 
L 533.751717 -434.623633 
L 532.46994 -438.667105 
L 531.188164 -443.899125 
L 529.906387 -453.516982 
L 528.624611 -447.375315 
L 527.342835 -464.405911 
L 526.061058 -470.541461 
L 524.779282 -473.949727 
L 523.497505 -476.902888 
L 522.215729 -476.90627 
L 520.933952 -479.058296 
L 519.652176 -478.147004 
L 518.3704 -472.994188 
L 517.088623 -480.028109 
L 515.806847 -480.514841 
L 514.52507 -475.206073 
L 513.243294 -474.485258 
L 511.961518 -476.650627 
L 510.679741 -467.895726 
L 509.397965 -472.785242 
L 508.116188 -471.634817 
L 506.834412 -462.869323 
L 505.552635 -465.54807 
L 504.270859 -462.460488 
L 502.989083 -460.147651 
L 501.707306 -457.729808 
L 500.42553 -454.950326 
L 499.143753 -452.257346 
L 497.861977 -448.290736 
L 496.580201 -446.802842 
L 495.298424 -442.875246 
L 494.016648 -442.050633 
L 492.734871 -435.250316 
L 491.453095 -436.33222 
L 490.171318 -434.134848 
L 488.889542 -431.474805 
L 487.607766 -430.194751 
L 486.325989 -428.018494 
L 485.044213 -426.271981 
L 483.762436 -423.856614 
L 482.48066 -422.748151 
L 481.198884 -420.933416 
L 479.917107 -418.313122 
L 478.635331 -416.302516 
L 477.353554 -415.04143 
L 476.071778 -413.014518 
L 474.790001 -411.574831 
L 473.508225 -409.443003 
L 472.226449 -407.425341 
L 470.944672 -406.331203 
L 469.662896 -404.437575 
L 468.381119 -402.443155 
L 467.099343 -401.43537 
L 465.817567 -399.961481 
L 464.53579 -398.900071 
L 463.254014 -396.657742 
L 461.972237 -395.264047 
L 460.690461 -393.749156 
L 459.408684 -392.263629 
L 458.126908 -391.114807 
L 456.845132 -389.935771 
L 455.563355 -388.691099 
L 454.281579 -387.072206 
L 452.999802 -385.946692 
L 451.718026 -384.626494 
L 450.43625 -383.510581 
L 449.154473 -382.180624 
L 447.872697 -381.090048 
L 446.59092 -379.926881 
L 445.309144 -378.706282 
L 444.027367 -377.984378 
L 442.745591 -376.614069 
L 441.463815 -375.830419 
L 440.182038 -374.770387 
L 438.900262 -373.389813 
L 437.618485 -372.552922 
L 436.336709 -372.731374 
L 435.054933 -371.592179 
L 433.773156 -371.270543 
L 432.49138 -370.083299 
L 431.209603 -368.84124 
L 429.927827 -368.380185 
L 428.64605 -367.877531 
L 427.364274 -368.376854 
L 426.082498 -367.939589 
L 424.800721 -367.732927 
L 423.518945 -367.655737 
L 422.237168 -366.782889 
L 420.955392 -366.168582 
L 419.673616 -365.550644 
L 418.391839 -366.702949 
L 417.110063 -366.435333 
L 415.828286 -367.816989 
L 414.54651 -366.51036 
L 413.264733 -366.779076 
L 411.982957 -365.705676 
L 410.701181 -368.711624 
L 409.419404 -365.823605 
L 408.137628 -366.364229 
L 406.855851 -368.334278 
L 405.574075 -369.023102 
L 404.292299 -367.572092 
L 403.010522 -365.151295 
L 401.728746 -366.399949 
L 400.446969 -366.602947 
L 399.165193 -369.529466 
L 397.883416 -369.725193 
L 396.60164 -368.987295 
L 395.319864 -367.372798 
L 394.038087 -367.942826 
L 392.756311 -368.414985 
L 391.474534 -368.286709 
L 390.192758 -367.286428 
L 388.910982 -367.584978 
L 387.629205 -366.944896 
L 386.347429 -365.775284 
L 385.065652 -366.612803 
L 383.783876 -365.119244 
L 382.502099 -364.790378 
L 381.220323 -364.611731 
L 379.938547 -363.632967 
L 378.65677 -363.361383 
L 377.374994 -362.179596 
L 376.093217 -360.93235 
L 374.811441 -360.899223 
L 373.529665 -361.402812 
L 372.247888 -361.838425 
L 370.966112 -359.062583 
L 369.684335 -359.526665 
L 368.402559 -357.759585 
L 367.120783 -357.724913 
L 365.839006 -358.34178 
L 364.55723 -356.557456 
L 363.275453 -358.089848 
L 361.993677 -357.990709 
L 360.7119 -355.770777 
L 359.430124 -357.398956 
L 358.148348 -355.323833 
L 356.866571 -354.353986 
L 355.584795 -356.255937 
L 354.303018 -361.944477 
L 353.021242 -358.190267 
L 351.739466 -359.737365 
L 350.457689 -368.111227 
L 349.175913 -360.576229 
L 347.894136 -359.113148 
L 346.61236 -366.857243 
L 345.330583 -369.132222 
L 344.048807 -365.116455 
L 342.767031 -373.260754 
L 341.485254 -388.067623 
L 340.203478 -370.990943 
L 338.921701 -365.535211 
L 337.639925 -362.140701 
L 336.358149 -381.974102 
L 335.076372 -381.612924 
L 333.794596 -391.7405 
L 332.512819 -399.480432 
L 331.231043 -382.941353 
L 329.949266 -390.204219 
L 328.66749 -404.016198 
L 327.385714 -413.939291 
L 326.103937 -414.029115 
L 324.822161 -412.128218 
L 323.540384 -414.656615 
L 322.258608 -414.866312 
L 320.976832 -409.41106 
L 319.695055 -410.40048 
L 318.413279 -413.890934 
L 317.131502 -411.534461 
L 315.849726 -412.889555 
L 314.567949 -413.618953 
L 313.286173 -413.554227 
L 312.004397 -411.090211 
L 310.72262 -410.006714 
L 309.440844 -408.951323 
L 308.159067 -406.955566 
L 306.877291 -405.94433 
L 305.595515 -404.419226 
L 304.313738 -401.982622 
L 303.031962 -399.877461 
L 301.750185 -398.604049 
L 300.468409 -396.915676 
L 299.186632 -395.070789 
L 297.904856 -393.772974 
L 296.62308 -391.868372 
L 295.341303 -389.527835 
L 294.059527 -388.183155 
L 292.77775 -387.234989 
L 291.495974 -385.767853 
L 290.214198 -384.311055 
L 288.932421 -382.986573 
L 287.650645 -381.717462 
L 286.368868 -380.494499 
L 285.087092 -378.818577 
L 283.805315 -377.949616 
L 282.523539 -376.743936 
L 281.241763 -375.499412 
L 279.959986 -374.329497 
L 278.67821 -373.241221 
L 277.396433 -372.345728 
L 276.114657 -371.372191 
L 274.832881 -370.080793 
L 273.551104 -369.242032 
L 272.269328 -368.237894 
L 270.987551 -367.256812 
L 269.705775 -366.298696 
L 268.423998 -365.317958 
L 267.142222 -364.317077 
L 265.860446 -363.492996 
L 264.578669 -362.522647 
L 263.296893 -361.67108 
L 262.015116 -360.759178 
L 260.73334 -359.911502 
L 259.451564 -359.036007 
L 258.169787 -358.219533 
L 256.888011 -357.348383 
L 255.606234 -356.419608 
L 254.324458 -355.699736 
L 253.042681 -354.829013 
L 251.760905 -354.081416 
L 250.479129 -353.21485 
L 249.197352 -352.580077 
L 247.915576 -351.772058 
L 246.633799 -351.002722 
L 245.352023 -350.271108 
L 244.070247 -349.537401 
L 242.78847 -348.836086 
L 241.506694 -348.032546 
L 240.224917 -347.306799 
L 238.943141 -346.712034 
L 237.661364 -346.004291 
L 236.379588 -345.296971 
L 235.097812 -344.592929 
L 233.816035 -343.914439 
L 232.534259 -343.281767 
L 231.252482 -342.585108 
L 229.970706 -341.90221 
L 228.68893 -341.215419 
L 227.407153 -340.531057 
L 226.125377 -339.827972 
L 224.8436 -339.096672 
L 223.561824 -338.468116 
L 222.280047 -337.747268 
L 220.998271 -337.040151 
L 219.716495 -336.361017 
L 218.434718 -335.660399 
L 217.152942 -334.94518 
L 215.871165 -334.251275 
L 214.589389 -333.523652 
L 213.307613 -332.859425 
L 212.025836 -332.181445 
L 210.74406 -331.464281 
L 209.462283 -330.772144 
L 208.180507 -330.122882 
L 206.89873 -329.44612 
L 205.616954 -328.782359 
L 204.335178 -328.103256 
L 203.053401 -327.421465 
L 201.771625 -326.756017 
L 200.489848 -326.060339 
L 199.208072 -325.421271 
L 197.926296 -324.740821 
L 196.644519 -324.083276 
L 195.362743 -323.363584 
L 194.080966 -322.744997 
L 192.79919 -322.065127 
L 191.517413 -321.400166 
L 190.235637 -320.723214 
L 188.953861 -320.069527 
L 187.672084 -319.409415 
L 186.390308 -318.746466 
L 185.108531 -318.08435 
L 183.826755 -317.432393 
L 182.544979 -316.827433 
L 181.263202 -316.227171 
L 179.981426 -315.626674 
L 178.699649 -315.047163 
L 177.417873 -314.456948 
L 176.136096 -313.874379 
L 174.85432 -313.317965 
L 173.572544 -312.762309 
L 172.290767 -312.20973 
L 171.008991 -311.683165 
L 169.727214 -311.165189 
L 168.445438 -310.624547 
L 167.163662 -310.124694 
L 165.881885 -309.656585 
L 164.600109 -309.153505 
L 163.318332 -308.685511 
L 162.036556 -308.269401 
L 160.754779 -307.834115 
L 159.473003 -307.43631 
L 158.191227 -307.025248 
L 156.90945 -306.650808 
L 155.627674 -306.282412 
L 154.345897 -305.937864 
L 153.064121 -305.605014 
L 151.782345 -305.293728 
L 150.500568 -305.024146 
L 149.218792 -304.751592 
L 147.937015 -304.493158 
L 146.655239 -304.262848 
L 145.373462 -304.013092 
L 144.091686 -303.80298 
L 142.80991 -303.622087 
L 141.528133 -303.409818 
L 140.246357 -303.23081 
L 138.96458 -303.075352 
L 137.682804 -302.905145 
L 136.401028 -302.739988 
L 135.119251 -302.604167 
L 133.837475 -302.45587 
L 132.555698 -302.340705 
L 131.273922 -302.198612 
L 129.992145 -302.084364 
L 128.710369 -301.963202 
L 127.428593 -301.835704 
L 126.146816 -301.732636 
L 124.86504 -301.62428 
L 123.583263 -301.497022 
L 122.301487 -301.380746 
L 121.019711 -301.261407 
L 119.737934 -301.164363 
L 118.456158 -301.039937 
L 117.174381 -300.930614 
L 115.892605 -300.817085 
L 114.610828 -300.72222 
L 113.329052 -300.639362 
L 112.047276 -300.543107 
L 110.765499 -300.43352 
L 109.483723 -300.324337 
L 108.201946 -300.237466 
L 106.92017 -300.159225 
L 105.638394 -300.055566 
L 104.356617 -299.971207 
L 103.074841 -299.869079 
z
" style="stroke: #008000; stroke-opacity: 0.3"/>
    </defs>
    <g clip-path="url(#pad8b87d012)">
     <use xlink:href="#mca70747154" x="0" y="505.354841" style="fill: #008000; fill-opacity: 0.3; stroke: #008000; stroke-opacity: 0.3"/>
    </g>
   </g>
   <g id="matplotlib.axis_1">
    <g id="xtick_1">
     <g id="line2d_1">
      <defs>
       <path id="mc9bf62adff" d="M 0 0 
L 0 3.5 
" style="stroke: #000000; stroke-width: 0.8"/>
      </defs>
      <g>
       <use xlink:href="#mc9bf62adff" x="103.074841" y="395.28" style="stroke: #000000; stroke-width: 0.8"/>
      </g>
     </g>
     <g id="text_1">
      <!-- 2021-07-01 -->
      <g transform="translate(17.945813 495.213718) rotate(-45) scale(0.2 -0.2)">
       <defs>
        <path id="DejaVuSans-32" d="M 1228 531 
L 3431 531 
L 3431 0 
L 469 0 
L 469 531 
Q 828 903 1448 1529 
Q 2069 2156 2228 2338 
Q 2531 2678 2651 2914 
Q 2772 3150 2772 3378 
Q 2772 3750 2511 3984 
Q 2250 4219 1831 4219 
Q 1534 4219 1204 4116 
Q 875 4013 500 3803 
L 500 4441 
Q 881 4594 1212 4672 
Q 1544 4750 1819 4750 
Q 2544 4750 2975 4387 
Q 3406 4025 3406 3419 
Q 3406 3131 3298 2873 
Q 3191 2616 2906 2266 
Q 2828 2175 2409 1742 
Q 1991 1309 1228 531 
z
" transform="scale(0.015625)"/>
        <path id="DejaVuSans-30" d="M 2034 4250 
Q 1547 4250 1301 3770 
Q 1056 3291 1056 2328 
Q 1056 1369 1301 889 
Q 1547 409 2034 409 
Q 2525 409 2770 889 
Q 3016 1369 3016 2328 
Q 3016 3291 2770 3770 
Q 2525 4250 2034 4250 
z
M 2034 4750 
Q 2819 4750 3233 4129 
Q 3647 3509 3647 2328 
Q 3647 1150 3233 529 
Q 2819 -91 2034 -91 
Q 1250 -91 836 529 
Q 422 1150 422 2328 
Q 422 3509 836 4129 
Q 1250 4750 2034 4750 
z
" transform="scale(0.015625)"/>
        <path id="DejaVuSans-31" d="M 794 531 
L 1825 531 
L 1825 4091 
L 703 3866 
L 703 4441 
L 1819 4666 
L 2450 4666 
L 2450 531 
L 3481 531 
L 3481 0 
L 794 0 
L 794 531 
z
" transform="scale(0.015625)"/>
        <path id="DejaVuSans-2d" d="M 313 2009 
L 1997 2009 
L 1997 1497 
L 313 1497 
L 313 2009 
z
" transform="scale(0.015625)"/>
        <path id="DejaVuSans-37" d="M 525 4666 
L 3525 4666 
L 3525 4397 
L 1831 0 
L 1172 0 
L 2766 4134 
L 525 4134 
L 525 4666 
z
" transform="scale(0.015625)"/>
       </defs>
       <use xlink:href="#DejaVuSans-32"/>
       <use xlink:href="#DejaVuSans-30" x="63.623047"/>
       <use xlink:href="#DejaVuSans-32" x="127.246094"/>
       <use xlink:href="#DejaVuSans-31" x="190.869141"/>
       <use xlink:href="#DejaVuSans-2d" x="254.492188"/>
       <use xlink:href="#DejaVuSans-30" x="290.576172"/>
       <use xlink:href="#DejaVuSans-37" x="354.199219"/>
       <use xlink:href="#DejaVuSans-2d" x="417.822266"/>
       <use xlink:href="#DejaVuSans-30" x="453.90625"/>
       <use xlink:href="#DejaVuSans-31" x="517.529297"/>
      </g>
     </g>
    </g>
    <g id="xtick_2">
     <g id="line2d_2">
      <g>
       <use xlink:href="#mc9bf62adff" x="138.96458" y="395.28" style="stroke: #000000; stroke-width: 0.8"/>
      </g>
     </g>
     <g id="text_2">
      <!-- 2021-07-29 -->
      <g transform="translate(53.835553 495.213718) rotate(-45) scale(0.2 -0.2)">
       <defs>
        <path id="DejaVuSans-39" d="M 703 97 
L 703 672 
Q 941 559 1184 500 
Q 1428 441 1663 441 
Q 2288 441 2617 861 
Q 2947 1281 2994 2138 
Q 2813 1869 2534 1725 
Q 2256 1581 1919 1581 
Q 1219 1581 811 2004 
Q 403 2428 403 3163 
Q 403 3881 828 4315 
Q 1253 4750 1959 4750 
Q 2769 4750 3195 4129 
Q 3622 3509 3622 2328 
Q 3622 1225 3098 567 
Q 2575 -91 1691 -91 
Q 1453 -91 1209 -44 
Q 966 3 703 97 
z
M 1959 2075 
Q 2384 2075 2632 2365 
Q 2881 2656 2881 3163 
Q 2881 3666 2632 3958 
Q 2384 4250 1959 4250 
Q 1534 4250 1286 3958 
Q 1038 3666 1038 3163 
Q 1038 2656 1286 2365 
Q 1534 2075 1959 2075 
z
" transform="scale(0.015625)"/>
       </defs>
       <use xlink:href="#DejaVuSans-32"/>
       <use xlink:href="#DejaVuSans-30" x="63.623047"/>
       <use xlink:href="#DejaVuSans-32" x="127.246094"/>
       <use xlink:href="#DejaVuSans-31" x="190.869141"/>
       <use xlink:href="#DejaVuSans-2d" x="254.492188"/>
       <use xlink:href="#DejaVuSans-30" x="290.576172"/>
       <use xlink:href="#DejaVuSans-37" x="354.199219"/>
       <use xlink:href="#DejaVuSans-2d" x="417.822266"/>
       <use xlink:href="#DejaVuSans-32" x="453.90625"/>
       <use xlink:href="#DejaVuSans-39" x="517.529297"/>
      </g>
     </g>
    </g>
    <g id="xtick_3">
     <g id="line2d_3">
      <g>
       <use xlink:href="#mc9bf62adff" x="174.85432" y="395.28" style="stroke: #000000; stroke-width: 0.8"/>
      </g>
     </g>
     <g id="text_3">
      <!-- 2021-08-26 -->
      <g transform="translate(89.725293 495.213718) rotate(-45) scale(0.2 -0.2)">
       <defs>
        <path id="DejaVuSans-38" d="M 2034 2216 
Q 1584 2216 1326 1975 
Q 1069 1734 1069 1313 
Q 1069 891 1326 650 
Q 1584 409 2034 409 
Q 2484 409 2743 651 
Q 3003 894 3003 1313 
Q 3003 1734 2745 1975 
Q 2488 2216 2034 2216 
z
M 1403 2484 
Q 997 2584 770 2862 
Q 544 3141 544 3541 
Q 544 4100 942 4425 
Q 1341 4750 2034 4750 
Q 2731 4750 3128 4425 
Q 3525 4100 3525 3541 
Q 3525 3141 3298 2862 
Q 3072 2584 2669 2484 
Q 3125 2378 3379 2068 
Q 3634 1759 3634 1313 
Q 3634 634 3220 271 
Q 2806 -91 2034 -91 
Q 1263 -91 848 271 
Q 434 634 434 1313 
Q 434 1759 690 2068 
Q 947 2378 1403 2484 
z
M 1172 3481 
Q 1172 3119 1398 2916 
Q 1625 2713 2034 2713 
Q 2441 2713 2670 2916 
Q 2900 3119 2900 3481 
Q 2900 3844 2670 4047 
Q 2441 4250 2034 4250 
Q 1625 4250 1398 4047 
Q 1172 3844 1172 3481 
z
" transform="scale(0.015625)"/>
        <path id="DejaVuSans-36" d="M 2113 2584 
Q 1688 2584 1439 2293 
Q 1191 2003 1191 1497 
Q 1191 994 1439 701 
Q 1688 409 2113 409 
Q 2538 409 2786 701 
Q 3034 994 3034 1497 
Q 3034 2003 2786 2293 
Q 2538 2584 2113 2584 
z
M 3366 4563 
L 3366 3988 
Q 3128 4100 2886 4159 
Q 2644 4219 2406 4219 
Q 1781 4219 1451 3797 
Q 1122 3375 1075 2522 
Q 1259 2794 1537 2939 
Q 1816 3084 2150 3084 
Q 2853 3084 3261 2657 
Q 3669 2231 3669 1497 
Q 3669 778 3244 343 
Q 2819 -91 2113 -91 
Q 1303 -91 875 529 
Q 447 1150 447 2328 
Q 447 3434 972 4092 
Q 1497 4750 2381 4750 
Q 2619 4750 2861 4703 
Q 3103 4656 3366 4563 
z
" transform="scale(0.015625)"/>
       </defs>
       <use xlink:href="#DejaVuSans-32"/>
       <use xlink:href="#DejaVuSans-30" x="63.623047"/>
       <use xlink:href="#DejaVuSans-32" x="127.246094"/>
       <use xlink:href="#DejaVuSans-31" x="190.869141"/>
       <use xlink:href="#DejaVuSans-2d" x="254.492188"/>
       <use xlink:href="#DejaVuSans-30" x="290.576172"/>
       <use xlink:href="#DejaVuSans-38" x="354.199219"/>
       <use xlink:href="#DejaVuSans-2d" x="417.822266"/>
       <use xlink:href="#DejaVuSans-32" x="453.90625"/>
       <use xlink:href="#DejaVuSans-36" x="517.529297"/>
      </g>
     </g>
    </g>
    <g id="xtick_4">
     <g id="line2d_4">
      <g>
       <use xlink:href="#mc9bf62adff" x="210.74406" y="395.28" style="stroke: #000000; stroke-width: 0.8"/>
      </g>
     </g>
     <g id="text_4">
      <!-- 2021-09-23 -->
      <g transform="translate(125.615032 495.213718) rotate(-45) scale(0.2 -0.2)">
       <defs>
        <path id="DejaVuSans-33" d="M 2597 2516 
Q 3050 2419 3304 2112 
Q 3559 1806 3559 1356 
Q 3559 666 3084 287 
Q 2609 -91 1734 -91 
Q 1441 -91 1130 -33 
Q 819 25 488 141 
L 488 750 
Q 750 597 1062 519 
Q 1375 441 1716 441 
Q 2309 441 2620 675 
Q 2931 909 2931 1356 
Q 2931 1769 2642 2001 
Q 2353 2234 1838 2234 
L 1294 2234 
L 1294 2753 
L 1863 2753 
Q 2328 2753 2575 2939 
Q 2822 3125 2822 3475 
Q 2822 3834 2567 4026 
Q 2313 4219 1838 4219 
Q 1578 4219 1281 4162 
Q 984 4106 628 3988 
L 628 4550 
Q 988 4650 1302 4700 
Q 1616 4750 1894 4750 
Q 2613 4750 3031 4423 
Q 3450 4097 3450 3541 
Q 3450 3153 3228 2886 
Q 3006 2619 2597 2516 
z
" transform="scale(0.015625)"/>
       </defs>
       <use xlink:href="#DejaVuSans-32"/>
       <use xlink:href="#DejaVuSans-30" x="63.623047"/>
       <use xlink:href="#DejaVuSans-32" x="127.246094"/>
       <use xlink:href="#DejaVuSans-31" x="190.869141"/>
       <use xlink:href="#DejaVuSans-2d" x="254.492188"/>
       <use xlink:href="#DejaVuSans-30" x="290.576172"/>
       <use xlink:href="#DejaVuSans-39" x="354.199219"/>
       <use xlink:href="#DejaVuSans-2d" x="417.822266"/>
       <use xlink:href="#DejaVuSans-32" x="453.90625"/>
       <use xlink:href="#DejaVuSans-33" x="517.529297"/>
      </g>
     </g>
    </g>
    <g id="xtick_5">
     <g id="line2d_5">
      <g>
       <use xlink:href="#mc9bf62adff" x="246.633799" y="395.28" style="stroke: #000000; stroke-width: 0.8"/>
      </g>
     </g>
     <g id="text_5">
      <!-- 2021-10-21 -->
      <g transform="translate(161.504772 495.213718) rotate(-45) scale(0.2 -0.2)">
       <use xlink:href="#DejaVuSans-32"/>
       <use xlink:href="#DejaVuSans-30" x="63.623047"/>
       <use xlink:href="#DejaVuSans-32" x="127.246094"/>
       <use xlink:href="#DejaVuSans-31" x="190.869141"/>
       <use xlink:href="#DejaVuSans-2d" x="254.492188"/>
       <use xlink:href="#DejaVuSans-31" x="290.576172"/>
       <use xlink:href="#DejaVuSans-30" x="354.199219"/>
       <use xlink:href="#DejaVuSans-2d" x="417.822266"/>
       <use xlink:href="#DejaVuSans-32" x="453.90625"/>
       <use xlink:href="#DejaVuSans-31" x="517.529297"/>
      </g>
     </g>
    </g>
    <g id="xtick_6">
     <g id="line2d_6">
      <g>
       <use xlink:href="#mc9bf62adff" x="282.523539" y="395.28" style="stroke: #000000; stroke-width: 0.8"/>
      </g>
     </g>
     <g id="text_6">
      <!-- 2021-11-18 -->
      <g transform="translate(197.394512 495.213718) rotate(-45) scale(0.2 -0.2)">
       <use xlink:href="#DejaVuSans-32"/>
       <use xlink:href="#DejaVuSans-30" x="63.623047"/>
       <use xlink:href="#DejaVuSans-32" x="127.246094"/>
       <use xlink:href="#DejaVuSans-31" x="190.869141"/>
       <use xlink:href="#DejaVuSans-2d" x="254.492188"/>
       <use xlink:href="#DejaVuSans-31" x="290.576172"/>
       <use xlink:href="#DejaVuSans-31" x="354.199219"/>
       <use xlink:href="#DejaVuSans-2d" x="417.822266"/>
       <use xlink:href="#DejaVuSans-31" x="453.90625"/>
       <use xlink:href="#DejaVuSans-38" x="517.529297"/>
      </g>
     </g>
    </g>
    <g id="xtick_7">
     <g id="line2d_7">
      <g>
       <use xlink:href="#mc9bf62adff" x="318.413279" y="395.28" style="stroke: #000000; stroke-width: 0.8"/>
      </g>
     </g>
     <g id="text_7">
      <!-- 2021-12-16 -->
      <g transform="translate(233.284251 495.213718) rotate(-45) scale(0.2 -0.2)">
       <use xlink:href="#DejaVuSans-32"/>
       <use xlink:href="#DejaVuSans-30" x="63.623047"/>
       <use xlink:href="#DejaVuSans-32" x="127.246094"/>
       <use xlink:href="#DejaVuSans-31" x="190.869141"/>
       <use xlink:href="#DejaVuSans-2d" x="254.492188"/>
       <use xlink:href="#DejaVuSans-31" x="290.576172"/>
       <use xlink:href="#DejaVuSans-32" x="354.199219"/>
       <use xlink:href="#DejaVuSans-2d" x="417.822266"/>
       <use xlink:href="#DejaVuSans-31" x="453.90625"/>
       <use xlink:href="#DejaVuSans-36" x="517.529297"/>
      </g>
     </g>
    </g>
    <g id="xtick_8">
     <g id="line2d_8">
      <g>
       <use xlink:href="#mc9bf62adff" x="354.303018" y="395.28" style="stroke: #000000; stroke-width: 0.8"/>
      </g>
     </g>
     <g id="text_8">
      <!-- 2022-01-13 -->
      <g transform="translate(269.173991 495.213718) rotate(-45) scale(0.2 -0.2)">
       <use xlink:href="#DejaVuSans-32"/>
       <use xlink:href="#DejaVuSans-30" x="63.623047"/>
       <use xlink:href="#DejaVuSans-32" x="127.246094"/>
       <use xlink:href="#DejaVuSans-32" x="190.869141"/>
       <use xlink:href="#DejaVuSans-2d" x="254.492188"/>
       <use xlink:href="#DejaVuSans-30" x="290.576172"/>
       <use xlink:href="#DejaVuSans-31" x="354.199219"/>
       <use xlink:href="#DejaVuSans-2d" x="417.822266"/>
       <use xlink:href="#DejaVuSans-31" x="453.90625"/>
       <use xlink:href="#DejaVuSans-33" x="517.529297"/>
      </g>
     </g>
    </g>
    <g id="xtick_9">
     <g id="line2d_9">
      <g>
       <use xlink:href="#mc9bf62adff" x="390.192758" y="395.28" style="stroke: #000000; stroke-width: 0.8"/>
      </g>
     </g>
     <g id="text_9">
      <!-- 2022-02-10 -->
      <g transform="translate(305.063731 495.213718) rotate(-45) scale(0.2 -0.2)">
       <use xlink:href="#DejaVuSans-32"/>
       <use xlink:href="#DejaVuSans-30" x="63.623047"/>
       <use xlink:href="#DejaVuSans-32" x="127.246094"/>
       <use xlink:href="#DejaVuSans-32" x="190.869141"/>
       <use xlink:href="#DejaVuSans-2d" x="254.492188"/>
       <use xlink:href="#DejaVuSans-30" x="290.576172"/>
       <use xlink:href="#DejaVuSans-32" x="354.199219"/>
       <use xlink:href="#DejaVuSans-2d" x="417.822266"/>
       <use xlink:href="#DejaVuSans-31" x="453.90625"/>
       <use xlink:href="#DejaVuSans-30" x="517.529297"/>
      </g>
     </g>
    </g>
    <g id="xtick_10">
     <g id="line2d_10">
      <g>
       <use xlink:href="#mc9bf62adff" x="426.082498" y="395.28" style="stroke: #000000; stroke-width: 0.8"/>
      </g>
     </g>
     <g id="text_10">
      <!-- 2022-03-10 -->
      <g transform="translate(340.95347 495.213718) rotate(-45) scale(0.2 -0.2)">
       <use xlink:href="#DejaVuSans-32"/>
       <use xlink:href="#DejaVuSans-30" x="63.623047"/>
       <use xlink:href="#DejaVuSans-32" x="127.246094"/>
       <use xlink:href="#DejaVuSans-32" x="190.869141"/>
       <use xlink:href="#DejaVuSans-2d" x="254.492188"/>
       <use xlink:href="#DejaVuSans-30" x="290.576172"/>
       <use xlink:href="#DejaVuSans-33" x="354.199219"/>
       <use xlink:href="#DejaVuSans-2d" x="417.822266"/>
       <use xlink:href="#DejaVuSans-31" x="453.90625"/>
       <use xlink:href="#DejaVuSans-30" x="517.529297"/>
      </g>
     </g>
    </g>
    <g id="xtick_11">
     <g id="line2d_11">
      <g>
       <use xlink:href="#mc9bf62adff" x="461.972237" y="395.28" style="stroke: #000000; stroke-width: 0.8"/>
      </g>
     </g>
     <g id="text_11">
      <!-- 2022-04-07 -->
      <g transform="translate(376.84321 495.213718) rotate(-45) scale(0.2 -0.2)">
       <defs>
        <path id="DejaVuSans-34" d="M 2419 4116 
L 825 1625 
L 2419 1625 
L 2419 4116 
z
M 2253 4666 
L 3047 4666 
L 3047 1625 
L 3713 1625 
L 3713 1100 
L 3047 1100 
L 3047 0 
L 2419 0 
L 2419 1100 
L 313 1100 
L 313 1709 
L 2253 4666 
z
" transform="scale(0.015625)"/>
       </defs>
       <use xlink:href="#DejaVuSans-32"/>
       <use xlink:href="#DejaVuSans-30" x="63.623047"/>
       <use xlink:href="#DejaVuSans-32" x="127.246094"/>
       <use xlink:href="#DejaVuSans-32" x="190.869141"/>
       <use xlink:href="#DejaVuSans-2d" x="254.492188"/>
       <use xlink:href="#DejaVuSans-30" x="290.576172"/>
       <use xlink:href="#DejaVuSans-34" x="354.199219"/>
       <use xlink:href="#DejaVuSans-2d" x="417.822266"/>
       <use xlink:href="#DejaVuSans-30" x="453.90625"/>
       <use xlink:href="#DejaVuSans-37" x="517.529297"/>
      </g>
     </g>
    </g>
    <g id="xtick_12">
     <g id="line2d_12">
      <g>
       <use xlink:href="#mc9bf62adff" x="497.861977" y="395.28" style="stroke: #000000; stroke-width: 0.8"/>
      </g>
     </g>
     <g id="text_12">
      <!-- 2022-05-05 -->
      <g transform="translate(412.73295 495.213718) rotate(-45) scale(0.2 -0.2)">
       <defs>
        <path id="DejaVuSans-35" d="M 691 4666 
L 3169 4666 
L 3169 4134 
L 1269 4134 
L 1269 2991 
Q 1406 3038 1543 3061 
Q 1681 3084 1819 3084 
Q 2600 3084 3056 2656 
Q 3513 2228 3513 1497 
Q 3513 744 3044 326 
Q 2575 -91 1722 -91 
Q 1428 -91 1123 -41 
Q 819 9 494 109 
L 494 744 
Q 775 591 1075 516 
Q 1375 441 1709 441 
Q 2250 441 2565 725 
Q 2881 1009 2881 1497 
Q 2881 1984 2565 2268 
Q 2250 2553 1709 2553 
Q 1456 2553 1204 2497 
Q 953 2441 691 2322 
L 691 4666 
z
" transform="scale(0.015625)"/>
       </defs>
       <use xlink:href="#DejaVuSans-32"/>
       <use xlink:href="#DejaVuSans-30" x="63.623047"/>
       <use xlink:href="#DejaVuSans-32" x="127.246094"/>
       <use xlink:href="#DejaVuSans-32" x="190.869141"/>
       <use xlink:href="#DejaVuSans-2d" x="254.492188"/>
       <use xlink:href="#DejaVuSans-30" x="290.576172"/>
       <use xlink:href="#DejaVuSans-35" x="354.199219"/>
       <use xlink:href="#DejaVuSans-2d" x="417.822266"/>
       <use xlink:href="#DejaVuSans-30" x="453.90625"/>
       <use xlink:href="#DejaVuSans-35" x="517.529297"/>
      </g>
     </g>
    </g>
    <g id="xtick_13">
     <g id="line2d_13">
      <g>
       <use xlink:href="#mc9bf62adff" x="533.751717" y="395.28" style="stroke: #000000; stroke-width: 0.8"/>
      </g>
     </g>
     <g id="text_13">
      <!-- 2022-06-02 -->
      <g transform="translate(448.622689 495.213718) rotate(-45) scale(0.2 -0.2)">
       <use xlink:href="#DejaVuSans-32"/>
       <use xlink:href="#DejaVuSans-30" x="63.623047"/>
       <use xlink:href="#DejaVuSans-32" x="127.246094"/>
       <use xlink:href="#DejaVuSans-32" x="190.869141"/>
       <use xlink:href="#DejaVuSans-2d" x="254.492188"/>
       <use xlink:href="#DejaVuSans-30" x="290.576172"/>
       <use xlink:href="#DejaVuSans-36" x="354.199219"/>
       <use xlink:href="#DejaVuSans-2d" x="417.822266"/>
       <use xlink:href="#DejaVuSans-30" x="453.90625"/>
       <use xlink:href="#DejaVuSans-32" x="517.529297"/>
      </g>
     </g>
    </g>
    <g id="xtick_14">
     <g id="line2d_14">
      <g>
       <use xlink:href="#mc9bf62adff" x="569.641456" y="395.28" style="stroke: #000000; stroke-width: 0.8"/>
      </g>
     </g>
     <g id="text_14">
      <!-- 2022-06-30 -->
      <g transform="translate(484.512429 495.213718) rotate(-45) scale(0.2 -0.2)">
       <use xlink:href="#DejaVuSans-32"/>
       <use xlink:href="#DejaVuSans-30" x="63.623047"/>
       <use xlink:href="#DejaVuSans-32" x="127.246094"/>
       <use xlink:href="#DejaVuSans-32" x="190.869141"/>
       <use xlink:href="#DejaVuSans-2d" x="254.492188"/>
       <use xlink:href="#DejaVuSans-30" x="290.576172"/>
       <use xlink:href="#DejaVuSans-36" x="354.199219"/>
       <use xlink:href="#DejaVuSans-2d" x="417.822266"/>
       <use xlink:href="#DejaVuSans-33" x="453.90625"/>
       <use xlink:href="#DejaVuSans-30" x="517.529297"/>
      </g>
     </g>
    </g>
    <g id="xtick_15">
     <g id="line2d_15">
      <g>
       <use xlink:href="#mc9bf62adff" x="605.531196" y="395.28" style="stroke: #000000; stroke-width: 0.8"/>
      </g>
     </g>
     <g id="text_15">
      <!-- 2022-07-28 -->
      <g transform="translate(520.402169 495.213718) rotate(-45) scale(0.2 -0.2)">
       <use xlink:href="#DejaVuSans-32"/>
       <use xlink:href="#DejaVuSans-30" x="63.623047"/>
       <use xlink:href="#DejaVuSans-32" x="127.246094"/>
       <use xlink:href="#DejaVuSans-32" x="190.869141"/>
       <use xlink:href="#DejaVuSans-2d" x="254.492188"/>
       <use xlink:href="#DejaVuSans-30" x="290.576172"/>
       <use xlink:href="#DejaVuSans-37" x="354.199219"/>
       <use xlink:href="#DejaVuSans-2d" x="417.822266"/>
       <use xlink:href="#DejaVuSans-32" x="453.90625"/>
       <use xlink:href="#DejaVuSans-38" x="517.529297"/>
      </g>
     </g>
    </g>
    <g id="xtick_16">
     <g id="line2d_16">
      <g>
       <use xlink:href="#mc9bf62adff" x="641.420936" y="395.28" style="stroke: #000000; stroke-width: 0.8"/>
      </g>
     </g>
     <g id="text_16">
      <!-- 2022-08-25 -->
      <g transform="translate(556.291908 495.213718) rotate(-45) scale(0.2 -0.2)">
       <use xlink:href="#DejaVuSans-32"/>
       <use xlink:href="#DejaVuSans-30" x="63.623047"/>
       <use xlink:href="#DejaVuSans-32" x="127.246094"/>
       <use xlink:href="#DejaVuSans-32" x="190.869141"/>
       <use xlink:href="#DejaVuSans-2d" x="254.492188"/>
       <use xlink:href="#DejaVuSans-30" x="290.576172"/>
       <use xlink:href="#DejaVuSans-38" x="354.199219"/>
       <use xlink:href="#DejaVuSans-2d" x="417.822266"/>
       <use xlink:href="#DejaVuSans-32" x="453.90625"/>
       <use xlink:href="#DejaVuSans-35" x="517.529297"/>
      </g>
     </g>
    </g>
    <g id="xtick_17">
     <g id="line2d_17">
      <g>
       <use xlink:href="#mc9bf62adff" x="677.310675" y="395.28" style="stroke: #000000; stroke-width: 0.8"/>
      </g>
     </g>
     <g id="text_17">
      <!-- 2022-09-22 -->
      <g transform="translate(592.181648 495.213718) rotate(-45) scale(0.2 -0.2)">
       <use xlink:href="#DejaVuSans-32"/>
       <use xlink:href="#DejaVuSans-30" x="63.623047"/>
       <use xlink:href="#DejaVuSans-32" x="127.246094"/>
       <use xlink:href="#DejaVuSans-32" x="190.869141"/>
       <use xlink:href="#DejaVuSans-2d" x="254.492188"/>
       <use xlink:href="#DejaVuSans-30" x="290.576172"/>
       <use xlink:href="#DejaVuSans-39" x="354.199219"/>
       <use xlink:href="#DejaVuSans-2d" x="417.822266"/>
       <use xlink:href="#DejaVuSans-32" x="453.90625"/>
       <use xlink:href="#DejaVuSans-32" x="517.529297"/>
      </g>
     </g>
    </g>
    <g id="xtick_18">
     <g id="line2d_18">
      <g>
       <use xlink:href="#mc9bf62adff" x="713.200415" y="395.28" style="stroke: #000000; stroke-width: 0.8"/>
      </g>
     </g>
     <g id="text_18">
      <!-- 2022-10-20 -->
      <g transform="translate(628.071388 495.213718) rotate(-45) scale(0.2 -0.2)">
       <use xlink:href="#DejaVuSans-32"/>
       <use xlink:href="#DejaVuSans-30" x="63.623047"/>
       <use xlink:href="#DejaVuSans-32" x="127.246094"/>
       <use xlink:href="#DejaVuSans-32" x="190.869141"/>
       <use xlink:href="#DejaVuSans-2d" x="254.492188"/>
       <use xlink:href="#DejaVuSans-31" x="290.576172"/>
       <use xlink:href="#DejaVuSans-30" x="354.199219"/>
       <use xlink:href="#DejaVuSans-2d" x="417.822266"/>
       <use xlink:href="#DejaVuSans-32" x="453.90625"/>
       <use xlink:href="#DejaVuSans-30" x="517.529297"/>
      </g>
     </g>
    </g>
    <g id="xtick_19">
     <g id="line2d_19">
      <g>
       <use xlink:href="#mc9bf62adff" x="749.090155" y="395.28" style="stroke: #000000; stroke-width: 0.8"/>
      </g>
     </g>
     <g id="text_19">
      <!-- 2022-11-17 -->
      <g transform="translate(663.961127 495.213718) rotate(-45) scale(0.2 -0.2)">
       <use xlink:href="#DejaVuSans-32"/>
       <use xlink:href="#DejaVuSans-30" x="63.623047"/>
       <use xlink:href="#DejaVuSans-32" x="127.246094"/>
       <use xlink:href="#DejaVuSans-32" x="190.869141"/>
       <use xlink:href="#DejaVuSans-2d" x="254.492188"/>
       <use xlink:href="#DejaVuSans-31" x="290.576172"/>
       <use xlink:href="#DejaVuSans-31" x="354.199219"/>
       <use xlink:href="#DejaVuSans-2d" x="417.822266"/>
       <use xlink:href="#DejaVuSans-31" x="453.90625"/>
       <use xlink:href="#DejaVuSans-37" x="517.529297"/>
      </g>
     </g>
    </g>
    <g id="xtick_20">
     <g id="line2d_20">
      <g>
       <use xlink:href="#mc9bf62adff" x="784.979894" y="395.28" style="stroke: #000000; stroke-width: 0.8"/>
      </g>
     </g>
     <g id="text_20">
      <!-- 2022-12-15 -->
      <g transform="translate(699.850867 495.213718) rotate(-45) scale(0.2 -0.2)">
       <use xlink:href="#DejaVuSans-32"/>
       <use xlink:href="#DejaVuSans-30" x="63.623047"/>
       <use xlink:href="#DejaVuSans-32" x="127.246094"/>
       <use xlink:href="#DejaVuSans-32" x="190.869141"/>
       <use xlink:href="#DejaVuSans-2d" x="254.492188"/>
       <use xlink:href="#DejaVuSans-31" x="290.576172"/>
       <use xlink:href="#DejaVuSans-32" x="354.199219"/>
       <use xlink:href="#DejaVuSans-2d" x="417.822266"/>
       <use xlink:href="#DejaVuSans-31" x="453.90625"/>
       <use xlink:href="#DejaVuSans-35" x="517.529297"/>
      </g>
     </g>
    </g>
    <g id="xtick_21">
     <g id="line2d_21">
      <g>
       <use xlink:href="#mc9bf62adff" x="820.869634" y="395.28" style="stroke: #000000; stroke-width: 0.8"/>
      </g>
     </g>
     <g id="text_21">
      <!-- 2023-01-12 -->
      <g transform="translate(735.740607 495.213718) rotate(-45) scale(0.2 -0.2)">
       <use xlink:href="#DejaVuSans-32"/>
       <use xlink:href="#DejaVuSans-30" x="63.623047"/>
       <use xlink:href="#DejaVuSans-32" x="127.246094"/>
       <use xlink:href="#DejaVuSans-33" x="190.869141"/>
       <use xlink:href="#DejaVuSans-2d" x="254.492188"/>
       <use xlink:href="#DejaVuSans-30" x="290.576172"/>
       <use xlink:href="#DejaVuSans-31" x="354.199219"/>
       <use xlink:href="#DejaVuSans-2d" x="417.822266"/>
       <use xlink:href="#DejaVuSans-31" x="453.90625"/>
       <use xlink:href="#DejaVuSans-32" x="517.529297"/>
      </g>
     </g>
    </g>
    <g id="xtick_22">
     <g id="line2d_22">
      <g>
       <use xlink:href="#mc9bf62adff" x="856.759374" y="395.28" style="stroke: #000000; stroke-width: 0.8"/>
      </g>
     </g>
     <g id="text_22">
      <!-- 2023-02-09 -->
      <g transform="translate(771.630346 495.213718) rotate(-45) scale(0.2 -0.2)">
       <use xlink:href="#DejaVuSans-32"/>
       <use xlink:href="#DejaVuSans-30" x="63.623047"/>
       <use xlink:href="#DejaVuSans-32" x="127.246094"/>
       <use xlink:href="#DejaVuSans-33" x="190.869141"/>
       <use xlink:href="#DejaVuSans-2d" x="254.492188"/>
       <use xlink:href="#DejaVuSans-30" x="290.576172"/>
       <use xlink:href="#DejaVuSans-32" x="354.199219"/>
       <use xlink:href="#DejaVuSans-2d" x="417.822266"/>
       <use xlink:href="#DejaVuSans-30" x="453.90625"/>
       <use xlink:href="#DejaVuSans-39" x="517.529297"/>
      </g>
     </g>
    </g>
    <g id="xtick_23">
     <g id="line2d_23">
      <g>
       <use xlink:href="#mc9bf62adff" x="892.649113" y="395.28" style="stroke: #000000; stroke-width: 0.8"/>
      </g>
     </g>
     <g id="text_23">
      <!-- 2023-03-09 -->
      <g transform="translate(807.520086 495.213718) rotate(-45) scale(0.2 -0.2)">
       <use xlink:href="#DejaVuSans-32"/>
       <use xlink:href="#DejaVuSans-30" x="63.623047"/>
       <use xlink:href="#DejaVuSans-32" x="127.246094"/>
       <use xlink:href="#DejaVuSans-33" x="190.869141"/>
       <use xlink:href="#DejaVuSans-2d" x="254.492188"/>
       <use xlink:href="#DejaVuSans-30" x="290.576172"/>
       <use xlink:href="#DejaVuSans-33" x="354.199219"/>
       <use xlink:href="#DejaVuSans-2d" x="417.822266"/>
       <use xlink:href="#DejaVuSans-30" x="453.90625"/>
       <use xlink:href="#DejaVuSans-39" x="517.529297"/>
      </g>
     </g>
    </g>
    <g id="xtick_24">
     <g id="line2d_24">
      <g>
       <use xlink:href="#mc9bf62adff" x="928.538853" y="395.28" style="stroke: #000000; stroke-width: 0.8"/>
      </g>
     </g>
     <g id="text_24">
      <!-- 2023-04-06 -->
      <g transform="translate(843.409826 495.213718) rotate(-45) scale(0.2 -0.2)">
       <use xlink:href="#DejaVuSans-32"/>
       <use xlink:href="#DejaVuSans-30" x="63.623047"/>
       <use xlink:href="#DejaVuSans-32" x="127.246094"/>
       <use xlink:href="#DejaVuSans-33" x="190.869141"/>
       <use xlink:href="#DejaVuSans-2d" x="254.492188"/>
       <use xlink:href="#DejaVuSans-30" x="290.576172"/>
       <use xlink:href="#DejaVuSans-34" x="354.199219"/>
       <use xlink:href="#DejaVuSans-2d" x="417.822266"/>
       <use xlink:href="#DejaVuSans-30" x="453.90625"/>
       <use xlink:href="#DejaVuSans-36" x="517.529297"/>
      </g>
     </g>
    </g>
    <g id="xtick_25">
     <g id="line2d_25">
      <g>
       <use xlink:href="#mc9bf62adff" x="940.074841" y="395.28" style="stroke: #000000; stroke-width: 0.8"/>
      </g>
     </g>
     <g id="text_25">
      <!-- 2023-04-15 -->
      <g transform="translate(854.945813 495.213718) rotate(-45) scale(0.2 -0.2)">
       <use xlink:href="#DejaVuSans-32"/>
       <use xlink:href="#DejaVuSans-30" x="63.623047"/>
       <use xlink:href="#DejaVuSans-32" x="127.246094"/>
       <use xlink:href="#DejaVuSans-33" x="190.869141"/>
       <use xlink:href="#DejaVuSans-2d" x="254.492188"/>
       <use xlink:href="#DejaVuSans-30" x="290.576172"/>
       <use xlink:href="#DejaVuSans-34" x="354.199219"/>
       <use xlink:href="#DejaVuSans-2d" x="417.822266"/>
       <use xlink:href="#DejaVuSans-31" x="453.90625"/>
       <use xlink:href="#DejaVuSans-35" x="517.529297"/>
      </g>
     </g>
    </g>
   </g>
   <g id="matplotlib.axis_2">
    <g id="ytick_1">
     <g id="line2d_26">
      <defs>
       <path id="m428e389d23" d="M 0 0 
L -3.5 0 
" style="stroke: #000000; stroke-width: 0.8"/>
      </defs>
      <g>
       <use xlink:href="#m428e389d23" x="103.074841" y="352.436347" style="stroke: #000000; stroke-width: 0.8"/>
      </g>
     </g>
     <g id="text_26">
      <!-- 0.10 -->
      <g transform="translate(34.784216 360.034784) scale(0.2 -0.2)">
       <defs>
        <path id="DejaVuSans-2212" d="M 678 2272 
L 4684 2272 
L 4684 1741 
L 678 1741 
L 678 2272 
z
" transform="scale(0.015625)"/>
        <path id="DejaVuSans-2e" d="M 684 794 
L 1344 794 
L 1344 0 
L 684 0 
L 684 794 
z
" transform="scale(0.015625)"/>
       </defs>
       <use xlink:href="#DejaVuSans-2212"/>
       <use xlink:href="#DejaVuSans-30" x="83.789062"/>
       <use xlink:href="#DejaVuSans-2e" x="147.412109"/>
       <use xlink:href="#DejaVuSans-31" x="179.199219"/>
       <use xlink:href="#DejaVuSans-30" x="242.822266"/>
      </g>
     </g>
    </g>
    <g id="ytick_2">
     <g id="line2d_27">
      <g>
       <use xlink:href="#m428e389d23" x="103.074841" y="279.010393" style="stroke: #000000; stroke-width: 0.8"/>
      </g>
     </g>
     <g id="text_27">
      <!-- 0.05 -->
      <g transform="translate(34.784216 286.60883) scale(0.2 -0.2)">
       <use xlink:href="#DejaVuSans-2212"/>
       <use xlink:href="#DejaVuSans-30" x="83.789062"/>
       <use xlink:href="#DejaVuSans-2e" x="147.412109"/>
       <use xlink:href="#DejaVuSans-30" x="179.199219"/>
       <use xlink:href="#DejaVuSans-35" x="242.822266"/>
      </g>
     </g>
    </g>
    <g id="ytick_3">
     <g id="line2d_28">
      <g>
       <use xlink:href="#m428e389d23" x="103.074841" y="205.584439" style="stroke: #000000; stroke-width: 0.8"/>
      </g>
     </g>
     <g id="text_28">
      <!-- 0.00 -->
      <g transform="translate(51.543591 213.182876) scale(0.2 -0.2)">
       <use xlink:href="#DejaVuSans-30"/>
       <use xlink:href="#DejaVuSans-2e" x="63.623047"/>
       <use xlink:href="#DejaVuSans-30" x="95.410156"/>
       <use xlink:href="#DejaVuSans-30" x="159.033203"/>
      </g>
     </g>
    </g>
    <g id="ytick_4">
     <g id="line2d_29">
      <g>
       <use xlink:href="#m428e389d23" x="103.074841" y="132.158485" style="stroke: #000000; stroke-width: 0.8"/>
      </g>
     </g>
     <g id="text_29">
      <!-- 0.05 -->
      <g transform="translate(51.543591 139.756922) scale(0.2 -0.2)">
       <use xlink:href="#DejaVuSans-30"/>
       <use xlink:href="#DejaVuSans-2e" x="63.623047"/>
       <use xlink:href="#DejaVuSans-30" x="95.410156"/>
       <use xlink:href="#DejaVuSans-35" x="159.033203"/>
      </g>
     </g>
    </g>
    <g id="ytick_5">
     <g id="line2d_30">
      <g>
       <use xlink:href="#m428e389d23" x="103.074841" y="58.732531" style="stroke: #000000; stroke-width: 0.8"/>
      </g>
     </g>
     <g id="text_30">
      <!-- 0.10 -->
      <g transform="translate(51.543591 66.330968) scale(0.2 -0.2)">
       <use xlink:href="#DejaVuSans-30"/>
       <use xlink:href="#DejaVuSans-2e" x="63.623047"/>
       <use xlink:href="#DejaVuSans-31" x="95.410156"/>
       <use xlink:href="#DejaVuSans-30" x="159.033203"/>
      </g>
     </g>
    </g>
    <g id="text_31">
     <!-- Relative fitness $\gamma_y$ -->
     <g transform="translate(24.584216 291.84) rotate(-90) scale(0.2 -0.2)">
      <defs>
       <path id="DejaVuSans-52" d="M 2841 2188 
Q 3044 2119 3236 1894 
Q 3428 1669 3622 1275 
L 4263 0 
L 3584 0 
L 2988 1197 
Q 2756 1666 2539 1819 
Q 2322 1972 1947 1972 
L 1259 1972 
L 1259 0 
L 628 0 
L 628 4666 
L 2053 4666 
Q 2853 4666 3247 4331 
Q 3641 3997 3641 3322 
Q 3641 2881 3436 2590 
Q 3231 2300 2841 2188 
z
M 1259 4147 
L 1259 2491 
L 2053 2491 
Q 2509 2491 2742 2702 
Q 2975 2913 2975 3322 
Q 2975 3731 2742 3939 
Q 2509 4147 2053 4147 
L 1259 4147 
z
" transform="scale(0.015625)"/>
       <path id="DejaVuSans-65" d="M 3597 1894 
L 3597 1613 
L 953 1613 
Q 991 1019 1311 708 
Q 1631 397 2203 397 
Q 2534 397 2845 478 
Q 3156 559 3463 722 
L 3463 178 
Q 3153 47 2828 -22 
Q 2503 -91 2169 -91 
Q 1331 -91 842 396 
Q 353 884 353 1716 
Q 353 2575 817 3079 
Q 1281 3584 2069 3584 
Q 2775 3584 3186 3129 
Q 3597 2675 3597 1894 
z
M 3022 2063 
Q 3016 2534 2758 2815 
Q 2500 3097 2075 3097 
Q 1594 3097 1305 2825 
Q 1016 2553 972 2059 
L 3022 2063 
z
" transform="scale(0.015625)"/>
       <path id="DejaVuSans-6c" d="M 603 4863 
L 1178 4863 
L 1178 0 
L 603 0 
L 603 4863 
z
" transform="scale(0.015625)"/>
       <path id="DejaVuSans-61" d="M 2194 1759 
Q 1497 1759 1228 1600 
Q 959 1441 959 1056 
Q 959 750 1161 570 
Q 1363 391 1709 391 
Q 2188 391 2477 730 
Q 2766 1069 2766 1631 
L 2766 1759 
L 2194 1759 
z
M 3341 1997 
L 3341 0 
L 2766 0 
L 2766 531 
Q 2569 213 2275 61 
Q 1981 -91 1556 -91 
Q 1019 -91 701 211 
Q 384 513 384 1019 
Q 384 1609 779 1909 
Q 1175 2209 1959 2209 
L 2766 2209 
L 2766 2266 
Q 2766 2663 2505 2880 
Q 2244 3097 1772 3097 
Q 1472 3097 1187 3025 
Q 903 2953 641 2809 
L 641 3341 
Q 956 3463 1253 3523 
Q 1550 3584 1831 3584 
Q 2591 3584 2966 3190 
Q 3341 2797 3341 1997 
z
" transform="scale(0.015625)"/>
       <path id="DejaVuSans-74" d="M 1172 4494 
L 1172 3500 
L 2356 3500 
L 2356 3053 
L 1172 3053 
L 1172 1153 
Q 1172 725 1289 603 
Q 1406 481 1766 481 
L 2356 481 
L 2356 0 
L 1766 0 
Q 1100 0 847 248 
Q 594 497 594 1153 
L 594 3053 
L 172 3053 
L 172 3500 
L 594 3500 
L 594 4494 
L 1172 4494 
z
" transform="scale(0.015625)"/>
       <path id="DejaVuSans-69" d="M 603 3500 
L 1178 3500 
L 1178 0 
L 603 0 
L 603 3500 
z
M 603 4863 
L 1178 4863 
L 1178 4134 
L 603 4134 
L 603 4863 
z
" transform="scale(0.015625)"/>
       <path id="DejaVuSans-76" d="M 191 3500 
L 800 3500 
L 1894 563 
L 2988 3500 
L 3597 3500 
L 2284 0 
L 1503 0 
L 191 3500 
z
" transform="scale(0.015625)"/>
       <path id="DejaVuSans-20" transform="scale(0.015625)"/>
       <path id="DejaVuSans-66" d="M 2375 4863 
L 2375 4384 
L 1825 4384 
Q 1516 4384 1395 4259 
Q 1275 4134 1275 3809 
L 1275 3500 
L 2222 3500 
L 2222 3053 
L 1275 3053 
L 1275 0 
L 697 0 
L 697 3053 
L 147 3053 
L 147 3500 
L 697 3500 
L 697 3744 
Q 697 4328 969 4595 
Q 1241 4863 1831 4863 
L 2375 4863 
z
" transform="scale(0.015625)"/>
       <path id="DejaVuSans-6e" d="M 3513 2113 
L 3513 0 
L 2938 0 
L 2938 2094 
Q 2938 2591 2744 2837 
Q 2550 3084 2163 3084 
Q 1697 3084 1428 2787 
Q 1159 2491 1159 1978 
L 1159 0 
L 581 0 
L 581 3500 
L 1159 3500 
L 1159 2956 
Q 1366 3272 1645 3428 
Q 1925 3584 2291 3584 
Q 2894 3584 3203 3211 
Q 3513 2838 3513 2113 
z
" transform="scale(0.015625)"/>
       <path id="DejaVuSans-73" d="M 2834 3397 
L 2834 2853 
Q 2591 2978 2328 3040 
Q 2066 3103 1784 3103 
Q 1356 3103 1142 2972 
Q 928 2841 928 2578 
Q 928 2378 1081 2264 
Q 1234 2150 1697 2047 
L 1894 2003 
Q 2506 1872 2764 1633 
Q 3022 1394 3022 966 
Q 3022 478 2636 193 
Q 2250 -91 1575 -91 
Q 1294 -91 989 -36 
Q 684 19 347 128 
L 347 722 
Q 666 556 975 473 
Q 1284 391 1588 391 
Q 1994 391 2212 530 
Q 2431 669 2431 922 
Q 2431 1156 2273 1281 
Q 2116 1406 1581 1522 
L 1381 1569 
Q 847 1681 609 1914 
Q 372 2147 372 2553 
Q 372 3047 722 3315 
Q 1072 3584 1716 3584 
Q 2034 3584 2315 3537 
Q 2597 3491 2834 3397 
z
" transform="scale(0.015625)"/>
       <path id="DejaVuSans-Oblique-3b3" d="M 1491 2950 
L 1838 788 
L 3456 3500 
L 4066 3500 
L 1972 0 
L 1713 -1331 
L 1138 -1331 
L 1397 0 
L 988 2613 
Q 925 3006 628 3006 
L 475 3006 
L 569 3500 
L 788 3500 
Q 1403 3500 1491 2950 
z
" transform="scale(0.015625)"/>
       <path id="DejaVuSans-Oblique-79" d="M 1588 -325 
Q 1188 -997 936 -1164 
Q 684 -1331 294 -1331 
L -159 -1331 
L -63 -850 
L 269 -850 
Q 509 -850 678 -719 
Q 847 -588 1056 -206 
L 1234 128 
L 459 3500 
L 1069 3500 
L 1650 819 
L 3256 3500 
L 3859 3500 
L 1588 -325 
z
" transform="scale(0.015625)"/>
      </defs>
      <use xlink:href="#DejaVuSans-52" transform="translate(0 0.015625)"/>
      <use xlink:href="#DejaVuSans-65" transform="translate(69.482422 0.015625)"/>
      <use xlink:href="#DejaVuSans-6c" transform="translate(131.005859 0.015625)"/>
      <use xlink:href="#DejaVuSans-61" transform="translate(158.789062 0.015625)"/>
      <use xlink:href="#DejaVuSans-74" transform="translate(220.068359 0.015625)"/>
      <use xlink:href="#DejaVuSans-69" transform="translate(259.277344 0.015625)"/>
      <use xlink:href="#DejaVuSans-76" transform="translate(287.060547 0.015625)"/>
      <use xlink:href="#DejaVuSans-65" transform="translate(346.240234 0.015625)"/>
      <use xlink:href="#DejaVuSans-20" transform="translate(407.763672 0.015625)"/>
      <use xlink:href="#DejaVuSans-66" transform="translate(439.550781 0.015625)"/>
      <use xlink:href="#DejaVuSans-69" transform="translate(474.755859 0.015625)"/>
      <use xlink:href="#DejaVuSans-74" transform="translate(502.539062 0.015625)"/>
      <use xlink:href="#DejaVuSans-6e" transform="translate(541.748047 0.015625)"/>
      <use xlink:href="#DejaVuSans-65" transform="translate(605.126953 0.015625)"/>
      <use xlink:href="#DejaVuSans-73" transform="translate(666.650391 0.015625)"/>
      <use xlink:href="#DejaVuSans-73" transform="translate(718.75 0.015625)"/>
      <use xlink:href="#DejaVuSans-20" transform="translate(770.849609 0.015625)"/>
      <use xlink:href="#DejaVuSans-Oblique-3b3" transform="translate(802.636719 0.015625)"/>
      <use xlink:href="#DejaVuSans-Oblique-79" transform="translate(861.816406 -16.390625) scale(0.7)"/>
     </g>
    </g>
   </g>
   <g id="line2d_31">
    <path d="M 103.074841 205.584439 
L 1041.965466 205.584439 
" clip-path="url(#pad8b87d012)" style="fill: none; stroke-dasharray: 7.4,3.2; stroke-dashoffset: 0; stroke: #000000; stroke-width: 2"/>
   </g>
   <g id="patch_3">
    <path d="M 103.074841 395.28 
L 103.074841 7.2 
" style="fill: none; stroke: #000000; stroke-width: 0.8; stroke-linejoin: miter; stroke-linecap: square"/>
   </g>
   <g id="patch_4">
    <path d="M 940.074841 395.28 
L 940.074841 7.2 
" style="fill: none; stroke: #000000; stroke-width: 0.8; stroke-linejoin: miter; stroke-linecap: square"/>
   </g>
   <g id="patch_5">
    <path d="M 103.074841 395.28 
L 940.074841 395.28 
" style="fill: none; stroke: #000000; stroke-width: 0.8; stroke-linejoin: miter; stroke-linecap: square"/>
   </g>
   <g id="patch_6">
    <path d="M 103.074841 7.2 
L 940.074841 7.2 
" style="fill: none; stroke: #000000; stroke-width: 0.8; stroke-linejoin: miter; stroke-linecap: square"/>
   </g>
  </g>
  <g id="axes_2">
   <g id="matplotlib.axis_3">
    <g id="ytick_6">
     <g id="line2d_32">
      <defs>
       <path id="md5a1390f67" d="M 0 0 
L 3.5 0 
" style="stroke: #000000; stroke-width: 0.8"/>
      </defs>
      <g>
       <use xlink:href="#md5a1390f67" x="940.074841" y="352.436347" style="stroke: #000000; stroke-width: 0.8"/>
      </g>
     </g>
     <g id="text_32">
      <!-- 0.10 -->
      <g transform="translate(947.074841 360.034784) scale(0.2 -0.2)">
       <use xlink:href="#DejaVuSans-2212"/>
       <use xlink:href="#DejaVuSans-30" x="83.789062"/>
       <use xlink:href="#DejaVuSans-2e" x="147.412109"/>
       <use xlink:href="#DejaVuSans-31" x="179.199219"/>
       <use xlink:href="#DejaVuSans-30" x="242.822266"/>
      </g>
     </g>
    </g>
    <g id="ytick_7">
     <g id="line2d_33">
      <g>
       <use xlink:href="#md5a1390f67" x="940.074841" y="279.010393" style="stroke: #000000; stroke-width: 0.8"/>
      </g>
     </g>
     <g id="text_33">
      <!-- 0.05 -->
      <g transform="translate(947.074841 286.60883) scale(0.2 -0.2)">
       <use xlink:href="#DejaVuSans-2212"/>
       <use xlink:href="#DejaVuSans-30" x="83.789062"/>
       <use xlink:href="#DejaVuSans-2e" x="147.412109"/>
       <use xlink:href="#DejaVuSans-30" x="179.199219"/>
       <use xlink:href="#DejaVuSans-35" x="242.822266"/>
      </g>
     </g>
    </g>
    <g id="ytick_8">
     <g id="line2d_34">
      <g>
       <use xlink:href="#md5a1390f67" x="940.074841" y="205.584439" style="stroke: #000000; stroke-width: 0.8"/>
      </g>
     </g>
     <g id="text_34">
      <!-- 0.00 -->
      <g transform="translate(947.074841 213.182876) scale(0.2 -0.2)">
       <use xlink:href="#DejaVuSans-30"/>
       <use xlink:href="#DejaVuSans-2e" x="63.623047"/>
       <use xlink:href="#DejaVuSans-30" x="95.410156"/>
       <use xlink:href="#DejaVuSans-30" x="159.033203"/>
      </g>
     </g>
    </g>
    <g id="ytick_9">
     <g id="line2d_35">
      <g>
       <use xlink:href="#md5a1390f67" x="940.074841" y="132.158485" style="stroke: #000000; stroke-width: 0.8"/>
      </g>
     </g>
     <g id="text_35">
      <!-- 0.05 -->
      <g transform="translate(947.074841 139.756922) scale(0.2 -0.2)">
       <use xlink:href="#DejaVuSans-30"/>
       <use xlink:href="#DejaVuSans-2e" x="63.623047"/>
       <use xlink:href="#DejaVuSans-30" x="95.410156"/>
       <use xlink:href="#DejaVuSans-35" x="159.033203"/>
      </g>
     </g>
    </g>
    <g id="ytick_10">
     <g id="line2d_36">
      <g>
       <use xlink:href="#md5a1390f67" x="940.074841" y="58.732531" style="stroke: #000000; stroke-width: 0.8"/>
      </g>
     </g>
     <g id="text_36">
      <!-- 0.10 -->
      <g transform="translate(947.074841 66.330968) scale(0.2 -0.2)">
       <use xlink:href="#DejaVuSans-30"/>
       <use xlink:href="#DejaVuSans-2e" x="63.623047"/>
       <use xlink:href="#DejaVuSans-31" x="95.410156"/>
       <use xlink:href="#DejaVuSans-30" x="159.033203"/>
      </g>
     </g>
    </g>
    <g id="text_37">
     <!-- Change in proportion $\gamma_{prop}$ -->
     <g transform="translate(1027.565466 332.74) rotate(-90) scale(0.2 -0.2)">
      <defs>
       <path id="DejaVuSans-43" d="M 4122 4306 
L 4122 3641 
Q 3803 3938 3442 4084 
Q 3081 4231 2675 4231 
Q 1875 4231 1450 3742 
Q 1025 3253 1025 2328 
Q 1025 1406 1450 917 
Q 1875 428 2675 428 
Q 3081 428 3442 575 
Q 3803 722 4122 1019 
L 4122 359 
Q 3791 134 3420 21 
Q 3050 -91 2638 -91 
Q 1578 -91 968 557 
Q 359 1206 359 2328 
Q 359 3453 968 4101 
Q 1578 4750 2638 4750 
Q 3056 4750 3426 4639 
Q 3797 4528 4122 4306 
z
" transform="scale(0.015625)"/>
       <path id="DejaVuSans-68" d="M 3513 2113 
L 3513 0 
L 2938 0 
L 2938 2094 
Q 2938 2591 2744 2837 
Q 2550 3084 2163 3084 
Q 1697 3084 1428 2787 
Q 1159 2491 1159 1978 
L 1159 0 
L 581 0 
L 581 4863 
L 1159 4863 
L 1159 2956 
Q 1366 3272 1645 3428 
Q 1925 3584 2291 3584 
Q 2894 3584 3203 3211 
Q 3513 2838 3513 2113 
z
" transform="scale(0.015625)"/>
       <path id="DejaVuSans-67" d="M 2906 1791 
Q 2906 2416 2648 2759 
Q 2391 3103 1925 3103 
Q 1463 3103 1205 2759 
Q 947 2416 947 1791 
Q 947 1169 1205 825 
Q 1463 481 1925 481 
Q 2391 481 2648 825 
Q 2906 1169 2906 1791 
z
M 3481 434 
Q 3481 -459 3084 -895 
Q 2688 -1331 1869 -1331 
Q 1566 -1331 1297 -1286 
Q 1028 -1241 775 -1147 
L 775 -588 
Q 1028 -725 1275 -790 
Q 1522 -856 1778 -856 
Q 2344 -856 2625 -561 
Q 2906 -266 2906 331 
L 2906 616 
Q 2728 306 2450 153 
Q 2172 0 1784 0 
Q 1141 0 747 490 
Q 353 981 353 1791 
Q 353 2603 747 3093 
Q 1141 3584 1784 3584 
Q 2172 3584 2450 3431 
Q 2728 3278 2906 2969 
L 2906 3500 
L 3481 3500 
L 3481 434 
z
" transform="scale(0.015625)"/>
       <path id="DejaVuSans-70" d="M 1159 525 
L 1159 -1331 
L 581 -1331 
L 581 3500 
L 1159 3500 
L 1159 2969 
Q 1341 3281 1617 3432 
Q 1894 3584 2278 3584 
Q 2916 3584 3314 3078 
Q 3713 2572 3713 1747 
Q 3713 922 3314 415 
Q 2916 -91 2278 -91 
Q 1894 -91 1617 61 
Q 1341 213 1159 525 
z
M 3116 1747 
Q 3116 2381 2855 2742 
Q 2594 3103 2138 3103 
Q 1681 3103 1420 2742 
Q 1159 2381 1159 1747 
Q 1159 1113 1420 752 
Q 1681 391 2138 391 
Q 2594 391 2855 752 
Q 3116 1113 3116 1747 
z
" transform="scale(0.015625)"/>
       <path id="DejaVuSans-72" d="M 2631 2963 
Q 2534 3019 2420 3045 
Q 2306 3072 2169 3072 
Q 1681 3072 1420 2755 
Q 1159 2438 1159 1844 
L 1159 0 
L 581 0 
L 581 3500 
L 1159 3500 
L 1159 2956 
Q 1341 3275 1631 3429 
Q 1922 3584 2338 3584 
Q 2397 3584 2469 3576 
Q 2541 3569 2628 3553 
L 2631 2963 
z
" transform="scale(0.015625)"/>
       <path id="DejaVuSans-6f" d="M 1959 3097 
Q 1497 3097 1228 2736 
Q 959 2375 959 1747 
Q 959 1119 1226 758 
Q 1494 397 1959 397 
Q 2419 397 2687 759 
Q 2956 1122 2956 1747 
Q 2956 2369 2687 2733 
Q 2419 3097 1959 3097 
z
M 1959 3584 
Q 2709 3584 3137 3096 
Q 3566 2609 3566 1747 
Q 3566 888 3137 398 
Q 2709 -91 1959 -91 
Q 1206 -91 779 398 
Q 353 888 353 1747 
Q 353 2609 779 3096 
Q 1206 3584 1959 3584 
z
" transform="scale(0.015625)"/>
       <path id="DejaVuSans-Oblique-70" d="M 3175 2156 
Q 3175 2616 2975 2859 
Q 2775 3103 2400 3103 
Q 2144 3103 1911 2972 
Q 1678 2841 1497 2591 
Q 1319 2344 1212 1994 
Q 1106 1644 1106 1300 
Q 1106 863 1306 627 
Q 1506 391 1875 391 
Q 2147 391 2380 519 
Q 2613 647 2778 891 
Q 2956 1147 3065 1494 
Q 3175 1841 3175 2156 
z
M 1394 2969 
Q 1625 3272 1939 3428 
Q 2253 3584 2638 3584 
Q 3175 3584 3472 3232 
Q 3769 2881 3769 2247 
Q 3769 1728 3584 1258 
Q 3400 788 3053 416 
Q 2822 169 2531 39 
Q 2241 -91 1919 -91 
Q 1547 -91 1294 64 
Q 1041 219 916 525 
L 556 -1331 
L -19 -1331 
L 922 3500 
L 1497 3500 
L 1394 2969 
z
" transform="scale(0.015625)"/>
       <path id="DejaVuSans-Oblique-72" d="M 2853 2969 
Q 2766 3016 2653 3041 
Q 2541 3066 2413 3066 
Q 1953 3066 1609 2717 
Q 1266 2369 1153 1784 
L 800 0 
L 225 0 
L 909 3500 
L 1484 3500 
L 1375 2956 
Q 1603 3259 1920 3421 
Q 2238 3584 2597 3584 
Q 2691 3584 2781 3573 
Q 2872 3563 2963 3538 
L 2853 2969 
z
" transform="scale(0.015625)"/>
       <path id="DejaVuSans-Oblique-6f" d="M 1625 -91 
Q 1009 -91 651 289 
Q 294 669 294 1325 
Q 294 1706 417 2101 
Q 541 2497 738 2766 
Q 1047 3184 1428 3384 
Q 1809 3584 2291 3584 
Q 2888 3584 3255 3212 
Q 3622 2841 3622 2241 
Q 3622 1825 3500 1412 
Q 3378 1000 3181 728 
Q 2875 309 2494 109 
Q 2113 -91 1625 -91 
z
M 891 1344 
Q 891 869 1089 633 
Q 1288 397 1691 397 
Q 2269 397 2648 901 
Q 3028 1406 3028 2181 
Q 3028 2634 2825 2865 
Q 2622 3097 2228 3097 
Q 1903 3097 1650 2945 
Q 1397 2794 1197 2484 
Q 1050 2253 970 1956 
Q 891 1659 891 1344 
z
" transform="scale(0.015625)"/>
      </defs>
      <use xlink:href="#DejaVuSans-43" transform="translate(0 0.015625)"/>
      <use xlink:href="#DejaVuSans-68" transform="translate(69.824219 0.015625)"/>
      <use xlink:href="#DejaVuSans-61" transform="translate(133.203125 0.015625)"/>
      <use xlink:href="#DejaVuSans-6e" transform="translate(194.482422 0.015625)"/>
      <use xlink:href="#DejaVuSans-67" transform="translate(257.861328 0.015625)"/>
      <use xlink:href="#DejaVuSans-65" transform="translate(321.337891 0.015625)"/>
      <use xlink:href="#DejaVuSans-20" transform="translate(382.861328 0.015625)"/>
      <use xlink:href="#DejaVuSans-69" transform="translate(414.648438 0.015625)"/>
      <use xlink:href="#DejaVuSans-6e" transform="translate(442.431641 0.015625)"/>
      <use xlink:href="#DejaVuSans-20" transform="translate(505.810547 0.015625)"/>
      <use xlink:href="#DejaVuSans-70" transform="translate(537.597656 0.015625)"/>
      <use xlink:href="#DejaVuSans-72" transform="translate(601.074219 0.015625)"/>
      <use xlink:href="#DejaVuSans-6f" transform="translate(642.1875 0.015625)"/>
      <use xlink:href="#DejaVuSans-70" transform="translate(703.369141 0.015625)"/>
      <use xlink:href="#DejaVuSans-6f" transform="translate(766.845703 0.015625)"/>
      <use xlink:href="#DejaVuSans-72" transform="translate(828.027344 0.015625)"/>
      <use xlink:href="#DejaVuSans-74" transform="translate(869.140625 0.015625)"/>
      <use xlink:href="#DejaVuSans-69" transform="translate(908.349609 0.015625)"/>
      <use xlink:href="#DejaVuSans-6f" transform="translate(936.132812 0.015625)"/>
      <use xlink:href="#DejaVuSans-6e" transform="translate(997.314453 0.015625)"/>
      <use xlink:href="#DejaVuSans-20" transform="translate(1060.693359 0.015625)"/>
      <use xlink:href="#DejaVuSans-Oblique-3b3" transform="translate(1092.480469 0.015625)"/>
      <use xlink:href="#DejaVuSans-Oblique-70" transform="translate(1151.660156 -16.390625) scale(0.7)"/>
      <use xlink:href="#DejaVuSans-Oblique-72" transform="translate(1196.09375 -16.390625) scale(0.7)"/>
      <use xlink:href="#DejaVuSans-Oblique-6f" transform="translate(1224.873047 -16.390625) scale(0.7)"/>
      <use xlink:href="#DejaVuSans-Oblique-70" transform="translate(1267.700195 -16.390625) scale(0.7)"/>
     </g>
    </g>
   </g>
   <g id="line2d_37">
    <path d="M 940.074841 205.584439 
" clip-path="url(#pad8b87d012)" style="fill: none; stroke: #ffa500; stroke-width: 1.5; stroke-linecap: square"/>
   </g>
   <g id="patch_7">
    <path d="M 103.074841 395.28 
L 103.074841 7.2 
" style="fill: none; stroke: #000000; stroke-width: 0.8; stroke-linejoin: miter; stroke-linecap: square"/>
   </g>
   <g id="patch_8">
    <path d="M 940.074841 395.28 
L 940.074841 7.2 
" style="fill: none; stroke: #000000; stroke-width: 0.8; stroke-linejoin: miter; stroke-linecap: square"/>
   </g>
   <g id="patch_9">
    <path d="M 103.074841 395.28 
L 940.074841 395.28 
" style="fill: none; stroke: #000000; stroke-width: 0.8; stroke-linejoin: miter; stroke-linecap: square"/>
   </g>
   <g id="patch_10">
    <path d="M 103.074841 7.2 
L 940.074841 7.2 
" style="fill: none; stroke: #000000; stroke-width: 0.8; stroke-linejoin: miter; stroke-linecap: square"/>
   </g>
  </g>
 </g>
 <defs>
  <clipPath id="pad8b87d012">
   <rect x="103.074841" y="7.2" width="837" height="388.08"/>
  </clipPath>
 </defs>
</svg>
