<?xml version="1.0" encoding="utf-8" standalone="no"?>
<!DOCTYPE svg PUBLIC "-//W3C//DTD SVG 1.1//EN"
  "http://www.w3.org/Graphics/SVG/1.1/DTD/svg11.dtd">
<svg xmlns:xlink="http://www.w3.org/1999/xlink" width="947.274841pt" height="505.354841pt" viewBox="0 0 947.274841 505.354841" xmlns="http://www.w3.org/2000/svg" version="1.1">
 <metadata>
  <rdf:RDF xmlns:dc="http://purl.org/dc/elements/1.1/" xmlns:cc="http://creativecommons.org/ns#" xmlns:rdf="http://www.w3.org/1999/02/22-rdf-syntax-ns#">
   <cc:Work>
    <dc:type rdf:resource="http://purl.org/dc/dcmitype/StillImage"/>
    <dc:date>2023-11-12T23:19:34.833536</dc:date>
    <dc:format>image/svg+xml</dc:format>
    <dc:creator>
     <cc:Agent>
      <dc:title>Matplotlib v3.7.2, https://matplotlib.org/</dc:title>
     </cc:Agent>
    </dc:creator>
   </cc:Work>
  </rdf:RDF>
 </metadata>
 <defs>
  <style type="text/css">*{stroke-linejoin: round; stroke-linecap: butt}</style>
 </defs>
 <g id="figure_1">
  <g id="patch_1">
   <path d="M 0 505.354841 
L 947.274841 505.354841 
L 947.274841 -0 
L 0 -0 
z
" style="fill: #ffffff"/>
  </g>
  <g id="axes_1">
   <g id="patch_2">
    <path d="M 103.074841 395.28 
L 940.074841 395.28 
L 940.074841 7.2 
L 103.074841 7.2 
z
" style="fill: #ffffff"/>
   </g>
   <g id="PolyCollection_1">
    <path d="M -393.000769 175.600016 
L -393.000769 175.613568 
L -390.959306 175.542594 
L -388.917842 175.481512 
L -386.876379 175.403922 
L -384.834915 175.353054 
L -382.793452 175.295464 
L -380.751989 175.229546 
L -378.710525 175.164464 
L -376.669062 175.10355 
L -374.627598 175.050386 
L -372.586135 174.9886 
L -370.544672 174.923817 
L -368.503208 174.860998 
L -366.461745 174.783441 
L -364.420281 174.719628 
L -362.378818 174.644151 
L -360.337354 174.579882 
L -358.295891 174.492316 
L -356.254428 174.420805 
L -354.212964 174.352069 
L -352.171501 174.270393 
L -350.130037 174.190911 
L -348.088574 174.113329 
L -346.047111 174.019237 
L -344.005647 173.937373 
L -341.964184 173.841142 
L -339.92272 173.74382 
L -337.881257 173.635978 
L -335.839793 173.525243 
L -333.79833 173.417159 
L -331.756867 173.291676 
L -329.715403 173.149479 
L -327.67394 173.023918 
L -325.632476 172.880862 
L -323.591013 172.717055 
L -321.54955 172.565306 
L -319.508086 172.386721 
L -317.466623 172.205606 
L -315.425159 172.01921 
L -313.383696 171.822369 
L -311.342232 171.603866 
L -309.300769 171.371161 
L -307.259306 171.124525 
L -305.217842 170.887573 
L -303.176379 170.608157 
L -301.134915 170.343408 
L -299.093452 170.061263 
L -297.051989 169.77846 
L -295.010525 169.47367 
L -292.969062 169.143234 
L -290.927598 168.838688 
L -288.886135 168.498578 
L -286.844672 168.146554 
L -284.803208 167.802302 
L -282.761745 167.462146 
L -280.720281 167.092207 
L -278.678818 166.718483 
L -276.637354 166.345824 
L -274.595891 165.957322 
L -272.554428 165.564239 
L -270.512964 165.172653 
L -268.471501 164.767494 
L -266.430037 164.361658 
L -264.388574 163.962518 
L -262.347111 163.546433 
L -260.305647 163.100246 
L -258.264184 162.668629 
L -256.22272 162.238164 
L -254.181257 161.814764 
L -252.139793 161.373211 
L -250.09833 160.942261 
L -248.056867 160.503451 
L -246.015403 160.108795 
L -243.97394 159.640779 
L -241.932476 159.237264 
L -239.891013 158.793362 
L -237.84955 158.371142 
L -235.808086 157.927301 
L -233.766623 157.537151 
L -231.725159 157.086541 
L -229.683696 156.663622 
L -227.642232 156.265295 
L -225.600769 155.838912 
L -223.559306 155.436513 
L -221.517842 155.014579 
L -219.476379 154.584021 
L -217.434915 154.175126 
L -215.393452 153.776776 
L -213.351989 153.346462 
L -211.310525 152.933094 
L -209.269062 152.511461 
L -207.227598 152.102473 
L -205.186135 151.70327 
L -203.144672 151.292507 
L -201.103208 150.877317 
L -199.061745 150.504449 
L -197.020281 150.080345 
L -194.978818 149.674248 
L -192.937354 149.274733 
L -190.895891 148.874442 
L -188.854428 148.47489 
L -186.812964 148.069794 
L -184.771501 147.683609 
L -182.730037 147.281351 
L -180.688574 146.86873 
L -178.647111 146.45122 
L -176.605647 146.028952 
L -174.564184 145.633971 
L -172.52272 145.19859 
L -170.481257 144.733883 
L -168.439793 144.297794 
L -166.39833 143.837585 
L -164.356867 143.370185 
L -162.315403 142.876419 
L -160.27394 142.373696 
L -158.232476 141.907 
L -156.191013 141.37398 
L -154.14955 140.867766 
L -152.108086 140.322582 
L -150.066623 139.822419 
L -148.025159 139.233494 
L -145.983696 138.656419 
L -143.942232 138.095859 
L -141.900769 137.525528 
L -139.859306 136.937541 
L -137.817842 136.322947 
L -135.776379 135.74748 
L -133.734915 135.087586 
L -131.693452 134.508229 
L -129.651989 133.829137 
L -127.610525 133.17152 
L -125.569062 132.529688 
L -123.527598 131.914531 
L -121.486135 131.195547 
L -119.444672 130.546986 
L -117.403208 129.720437 
L -115.361745 129.010849 
L -113.320281 128.350362 
L -111.278818 127.603558 
L -109.237354 126.837544 
L -107.195891 125.954333 
L -105.154428 125.127403 
L -103.112964 124.439127 
L -101.071501 123.345313 
L -99.030037 122.468971 
L -96.988574 121.57369 
L -94.947111 120.644987 
L -92.905647 119.586724 
L -90.864184 118.592699 
L -88.82272 117.844867 
L -86.781257 116.88969 
L -84.739793 115.316522 
L -82.69833 113.996083 
L -80.656867 113.023496 
L -78.615403 111.673491 
L -76.57394 110.555977 
L -74.532476 109.58471 
L -72.491013 108.105892 
L -70.44955 106.422494 
L -68.408086 105.275081 
L -66.366623 104.545525 
L -64.325159 103.141324 
L -62.283696 102.520456 
L -60.242232 101.739205 
L -58.200769 100.322134 
L -56.159306 100.45866 
L -54.117842 101.069304 
L -52.076379 102.33584 
L -50.034915 100.955737 
L -47.993452 103.747144 
L -45.951989 104.377791 
L -43.910525 100.655136 
L -41.869062 101.723628 
L -39.827598 103.386748 
L -37.786135 102.418142 
L -35.744672 102.222879 
L -33.703208 109.321408 
L -31.661745 119.404971 
L -29.620281 124.414123 
L -27.578818 113.451385 
L -25.537354 119.064016 
L -23.495891 126.415638 
L -21.454428 125.961326 
L -19.412964 140.93037 
L -17.371501 138.844611 
L -15.330037 134.216877 
L -13.288574 122.806936 
L -11.247111 133.459893 
L -9.205647 139.84557 
L -7.164184 137.114169 
L -5.12272 138.744498 
L -3.081257 144.763496 
L -1.039793 143.901862 
L 1.00167 138.617904 
L 3.043133 145.136335 
L 5.084597 146.380032 
L 7.12606 143.970838 
L 9.167524 148.080682 
L 11.208987 149.539373 
L 13.25045 149.059863 
L 15.291914 147.723888 
L 17.333377 149.023705 
L 19.374841 147.551138 
L 21.416304 147.598538 
L 23.457768 148.830685 
L 25.499231 147.526696 
L 27.540694 148.092194 
L 29.582158 148.053 
L 31.623621 146.981869 
L 33.665085 147.27069 
L 35.706548 145.758801 
L 37.748011 145.77806 
L 39.789475 146.101383 
L 41.830938 146.048989 
L 43.872402 145.274779 
L 45.913865 144.602191 
L 47.955328 144.379223 
L 49.996792 143.645897 
L 52.038255 143.470907 
L 54.079719 143.278546 
L 56.121182 142.211536 
L 58.162646 142.621974 
L 60.204109 141.901347 
L 62.245572 141.55963 
L 64.287036 141.525704 
L 66.328499 140.82674 
L 68.369963 140.620507 
L 70.411426 140.802048 
L 72.452889 141.130609 
L 74.494353 140.043565 
L 76.535816 139.841867 
L 78.57728 139.474191 
L 80.618743 141.301579 
L 82.660207 141.349753 
L 84.70167 142.076422 
L 86.743133 140.345442 
L 88.784597 139.284578 
L 90.82606 139.647556 
L 92.867524 140.890065 
L 94.908987 141.136637 
L 96.95045 139.058392 
L 98.991914 140.905521 
L 101.033377 140.521114 
L 103.074841 140.295771 
L 105.116304 139.389215 
L 107.157768 140.268552 
L 109.199231 139.88202 
L 111.240694 140.429383 
L 113.282158 139.899321 
L 115.323621 139.506754 
L 117.365085 138.714883 
L 119.406548 138.399664 
L 121.448011 138.126396 
L 123.489475 137.711693 
L 125.530938 137.730556 
L 127.572402 137.375762 
L 129.613865 136.993414 
L 131.655328 135.731643 
L 133.696792 134.812168 
L 135.738255 134.491274 
L 137.779719 133.478043 
L 139.821182 133.420435 
L 141.862646 132.573855 
L 143.904109 131.243304 
L 145.945572 130.167279 
L 147.987036 129.403921 
L 150.028499 128.024246 
L 152.069963 127.262131 
L 154.111426 126.065675 
L 156.152889 125.034799 
L 158.194353 123.689841 
L 160.235816 122.619292 
L 162.27728 121.092846 
L 164.318743 119.937831 
L 166.360207 118.670303 
L 168.40167 116.912662 
L 170.443133 115.293857 
L 172.484597 114.180299 
L 174.52606 112.865909 
L 176.567524 111.227077 
L 178.608987 109.983457 
L 180.65045 108.420108 
L 182.691914 106.060991 
L 184.733377 105.183926 
L 186.774841 103.221402 
L 188.816304 101.770552 
L 190.857768 100.179886 
L 192.899231 98.408635 
L 194.940694 96.593171 
L 196.982158 94.966635 
L 199.023621 92.67512 
L 201.065085 91.366274 
L 203.106548 89.139426 
L 205.148011 87.813106 
L 207.189475 85.660975 
L 209.230938 83.587437 
L 211.272402 81.735501 
L 213.313865 80.332342 
L 215.355328 77.816494 
L 217.396792 76.222197 
L 219.438255 74.019022 
L 221.479719 72.287398 
L 223.521182 69.985581 
L 225.562646 68.099615 
L 227.604109 68.19859 
L 229.645572 64.160258 
L 231.687036 63.829904 
L 233.728499 61.518744 
L 235.769963 60.034536 
L 237.811426 58.218805 
L 239.852889 56.265509 
L 241.894353 54.530383 
L 243.935816 52.849969 
L 245.97728 51.28659 
L 248.018743 49.705474 
L 250.060207 51.42952 
L 252.10167 46.207701 
L 254.143133 45.102148 
L 256.184597 49.857746 
L 258.22606 43.495943 
L 260.267524 44.835956 
L 262.308987 44.344381 
L 264.35045 41.119718 
L 266.391914 41.913316 
L 268.433377 45.44572 
L 270.474841 43.160172 
L 272.516304 42.200123 
L 274.557768 44.437514 
L 276.599231 43.815762 
L 278.640694 45.380146 
L 280.682158 47.456075 
L 282.723621 50.881903 
L 284.765085 58.703697 
L 286.806548 57.086995 
L 288.848011 61.371039 
L 290.889475 64.93889 
L 292.930938 66.916267 
L 294.972402 71.415987 
L 297.013865 74.314254 
L 299.055328 69.146466 
L 301.096792 74.280371 
L 303.138255 81.231322 
L 305.179719 84.55843 
L 307.221182 85.686661 
L 309.262646 94.589275 
L 311.304109 95.36139 
L 313.345572 98.547804 
L 315.387036 97.804677 
L 317.428499 107.593825 
L 319.469963 104.721495 
L 321.511426 103.13347 
L 323.552889 111.488957 
L 325.594353 117.478414 
L 327.635816 117.084872 
L 329.67728 120.724492 
L 331.718743 122.016646 
L 333.760207 122.425761 
L 335.80167 122.607763 
L 337.843133 124.717329 
L 339.884597 126.013577 
L 341.92606 132.24515 
L 343.967524 129.425353 
L 346.008987 134.900155 
L 348.05045 134.001364 
L 350.091914 133.610975 
L 352.133377 136.066827 
L 354.174841 138.271191 
L 356.216304 136.237876 
L 358.257768 137.799992 
L 360.299231 138.270307 
L 362.340694 141.546623 
L 364.382158 140.584823 
L 366.423621 140.406355 
L 368.465085 141.707259 
L 370.506548 143.615991 
L 372.548011 143.497209 
L 374.589475 142.741909 
L 376.630938 144.130618 
L 378.672402 142.712964 
L 380.713865 143.60525 
L 382.755328 147.680099 
L 384.796792 148.200083 
L 386.838255 147.079907 
L 388.879719 147.385945 
L 390.921182 148.38759 
L 392.962646 147.122284 
L 395.004109 148.460065 
L 397.045572 149.330772 
L 399.087036 149.749746 
L 401.128499 150.119333 
L 403.169963 149.748174 
L 405.211426 151.411032 
L 407.252889 151.520606 
L 409.294353 152.311724 
L 411.335816 152.755979 
L 413.37728 153.851823 
L 415.418743 153.783121 
L 417.460207 152.959213 
L 419.50167 153.755331 
L 421.543133 153.219268 
L 423.584597 152.091115 
L 425.62606 154.432093 
L 427.667524 152.545558 
L 429.708987 154.572067 
L 431.75045 154.946529 
L 433.791914 156.049749 
L 435.833377 155.126477 
L 437.874841 155.839003 
L 439.916304 156.478624 
L 441.957768 155.117478 
L 443.999231 156.481574 
L 446.040694 157.060109 
L 448.082158 157.778633 
L 450.123621 157.556948 
L 452.165085 158.837556 
L 454.206548 158.553318 
L 456.248011 158.362271 
L 458.289475 157.559116 
L 460.330938 157.86666 
L 462.372402 158.306295 
L 464.413865 157.98733 
L 466.455328 158.957612 
L 468.496792 159.248653 
L 470.538255 159.100327 
L 472.579719 159.982431 
L 474.621182 159.703317 
L 476.662646 161.427851 
L 478.704109 161.49849 
L 480.745572 162.371025 
L 482.787036 161.819379 
L 484.828499 160.777217 
L 486.869963 163.192141 
L 488.911426 163.961743 
L 490.952889 164.16252 
L 492.994353 164.345518 
L 495.035816 163.841166 
L 497.07728 164.371182 
L 499.118743 164.491385 
L 501.160207 165.367435 
L 503.20167 165.874741 
L 505.243133 165.410222 
L 507.284597 164.416072 
L 509.32606 167.486946 
L 511.367524 167.769061 
L 513.408987 167.048941 
L 515.45045 168.805038 
L 517.491914 166.898647 
L 519.533377 168.012831 
L 521.574841 168.979243 
L 523.616304 168.002684 
L 525.657768 171.874341 
L 527.699231 169.63351 
L 529.740694 168.943164 
L 531.782158 171.760377 
L 533.823621 173.14365 
L 535.865085 172.988281 
L 537.906548 174.608407 
L 539.948011 174.067119 
L 541.989475 177.639961 
L 544.030938 177.155897 
L 546.072402 178.597502 
L 548.113865 177.652534 
L 550.155328 176.962251 
L 552.196792 180.00727 
L 554.238255 184.612578 
L 556.279719 181.21407 
L 558.321182 182.350607 
L 560.362646 181.704525 
L 562.404109 183.258816 
L 564.445572 183.915173 
L 566.487036 183.721869 
L 568.528499 184.184348 
L 570.569963 186.768157 
L 572.611426 186.570675 
L 574.652889 188.883701 
L 576.694353 189.806768 
L 578.735816 185.66284 
L 580.77728 188.245495 
L 582.818743 188.948904 
L 584.860207 189.734318 
L 586.90167 190.52821 
L 588.943133 194.04316 
L 590.984597 195.635376 
L 593.02606 195.832432 
L 595.067524 199.50687 
L 597.108987 205.38866 
L 599.15045 198.925576 
L 601.191914 199.116515 
L 603.233377 199.524638 
L 605.274841 201.940581 
L 607.316304 202.641398 
L 609.357768 202.810379 
L 611.399231 208.228918 
L 613.440694 210.26045 
L 615.482158 204.640571 
L 617.523621 210.111106 
L 619.565085 207.874289 
L 621.606548 206.528931 
L 623.648011 213.384715 
L 625.689475 212.480317 
L 627.730938 217.316335 
L 629.772402 215.923423 
L 631.813865 213.481226 
L 633.855328 216.671446 
L 635.896792 217.054054 
L 637.938255 220.295511 
L 639.979719 219.099882 
L 642.021182 224.14218 
L 644.062646 221.156904 
L 646.104109 224.15877 
L 648.145572 223.809483 
L 650.187036 226.855713 
L 652.228499 222.663717 
L 654.269963 228.276626 
L 656.311426 228.286914 
L 658.352889 232.293087 
L 660.394353 234.004133 
L 662.435816 235.137145 
L 664.47728 234.397895 
L 666.518743 237.016588 
L 668.560207 239.840942 
L 670.60167 238.02229 
L 672.643133 237.724729 
L 674.684597 239.882477 
L 676.72606 242.301431 
L 678.767524 239.412949 
L 680.808987 237.599268 
L 682.85045 245.534638 
L 684.891914 250.210499 
L 686.933377 241.934759 
L 688.974841 244.603903 
L 691.016304 246.477911 
L 693.057768 247.25503 
L 695.099231 251.585423 
L 697.140694 251.316251 
L 699.182158 250.111861 
L 701.223621 252.101852 
L 703.265085 253.185553 
L 705.306548 248.569767 
L 707.348011 250.845304 
L 709.389475 249.68982 
L 711.430938 256.919771 
L 713.472402 265.084752 
L 715.513865 263.942492 
L 717.555328 257.761602 
L 719.596792 257.302306 
L 721.638255 258.517278 
L 723.679719 258.262449 
L 725.721182 265.429508 
L 727.762646 258.75379 
L 729.804109 266.543492 
L 731.845572 273.453826 
L 733.887036 267.84478 
L 735.928499 278.24495 
L 737.969963 271.403783 
L 740.011426 278.565088 
L 742.052889 274.774764 
L 744.094353 277.425478 
L 746.135816 283.013967 
L 748.17728 283.353438 
L 750.218743 285.117935 
L 752.260207 285.416276 
L 754.30167 285.990495 
L 756.343133 272.457835 
L 758.384597 291.669596 
L 760.42606 299.216101 
L 762.467524 292.684696 
L 764.508987 296.956595 
L 766.55045 301.66572 
L 768.591914 296.216101 
L 770.633377 303.701622 
L 772.674841 309.499408 
L 774.716304 306.379915 
L 776.757768 309.823964 
L 778.799231 311.705123 
L 780.840694 312.959407 
L 782.882158 315.110924 
L 784.923621 307.082605 
L 786.965085 323.691822 
L 789.006548 324.233288 
L 791.048011 324.550741 
L 793.089475 314.325347 
L 795.130938 328.58855 
L 797.172402 336.409569 
L 799.213865 329.835909 
L 801.255328 330.120474 
L 803.296792 342.88272 
L 805.338255 319.859906 
L 807.379719 341.198053 
L 809.421182 326.11074 
L 811.462646 348.464772 
L 813.504109 339.745626 
L 815.545572 348.35591 
L 817.587036 350.93384 
L 819.628499 353.431729 
L 821.669963 354.596366 
L 823.711426 350.081707 
L 825.752889 351.064438 
L 827.794353 355.959127 
L 829.835816 361.635822 
L 831.87728 361.972954 
L 833.918743 361.458118 
L 835.960207 367.21965 
L 838.00167 367.254254 
L 840.043133 363.156452 
L 842.084597 362.60564 
L 844.12606 373.099472 
L 846.167524 373.934013 
L 848.208987 376.031499 
L 850.25045 370.664682 
L 852.291914 358.279757 
L 854.333377 371.391153 
L 856.374841 367.879734 
L 858.416304 371.159504 
L 860.457768 375.621992 
L 862.499231 369.383183 
L 864.540694 377.342969 
L 866.582158 370.659291 
L 868.623621 370.319926 
L 870.665085 370.891933 
L 872.706548 375.601268 
L 874.748011 374.972085 
L 876.789475 373.841135 
L 878.830938 368.621335 
L 880.872402 371.275401 
L 882.913865 373.213035 
L 884.955328 370.80297 
L 886.996792 374.56668 
L 889.038255 371.274652 
L 891.079719 373.676648 
L 893.121182 377.64 
L 895.162646 376.826893 
L 897.204109 372.560153 
L 899.245572 372.486184 
L 901.287036 371.539766 
L 903.328499 373.224828 
L 905.369963 372.97055 
L 907.411426 366.0199 
L 909.452889 371.131061 
L 911.494353 339.319046 
L 913.535816 370.693333 
L 915.57728 372.606971 
L 917.618743 367.743102 
L 919.660207 362.687346 
L 921.70167 371.683084 
L 923.743133 367.257514 
L 925.784597 359.704875 
L 927.82606 364.009026 
L 929.867524 363.814473 
L 931.908987 361.521195 
L 933.95045 365.579693 
L 935.991914 361.999845 
L 938.033377 363.477385 
L 940.074841 364.454923 
L 940.074841 180.874988 
L 940.074841 180.874988 
L 938.033377 184.455902 
L 935.991914 183.370886 
L 933.95045 185.463585 
L 931.908987 183.798031 
L 929.867524 185.448986 
L 927.82606 185.133306 
L 925.784597 186.441833 
L 923.743133 189.793436 
L 921.70167 190.884455 
L 919.660207 189.754279 
L 917.618743 190.925832 
L 915.57728 194.588919 
L 913.535816 193.460768 
L 911.494353 188.456433 
L 909.452889 195.755772 
L 907.411426 195.498195 
L 905.369963 197.916029 
L 903.328499 198.901117 
L 901.287036 199.201582 
L 899.245572 201.040487 
L 897.204109 201.904744 
L 895.162646 204.139008 
L 893.121182 205.384637 
L 891.079719 205.408663 
L 889.038255 205.528482 
L 886.996792 207.066426 
L 884.955328 206.418584 
L 882.913865 208.085254 
L 880.872402 208.751006 
L 878.830938 208.820185 
L 876.789475 211.861308 
L 874.748011 213.204048 
L 872.706548 214.982942 
L 870.665085 213.399402 
L 868.623621 214.620488 
L 866.582158 215.998826 
L 864.540694 219.21241 
L 862.499231 217.257187 
L 860.457768 220.635279 
L 858.416304 219.834959 
L 856.374841 219.694592 
L 854.333377 221.995091 
L 852.291914 218.752631 
L 850.25045 223.527669 
L 848.208987 227.09298 
L 846.167524 227.307116 
L 844.12606 227.826931 
L 842.084597 225.614307 
L 840.043133 226.2605 
L 838.00167 228.881052 
L 835.960207 229.669312 
L 833.918743 228.49891 
L 831.87728 229.50696 
L 829.835816 230.846246 
L 827.794353 228.332203 
L 825.752889 228.208624 
L 823.711426 229.031935 
L 821.669963 231.863468 
L 819.628499 232.322937 
L 817.587036 231.787497 
L 815.545572 231.652609 
L 813.504109 229.301733 
L 811.462646 233.642972 
L 809.421182 227.109892 
L 807.379719 233.192585 
L 805.338255 225.579148 
L 803.296792 235.404276 
L 801.255328 231.084006 
L 799.213865 231.486479 
L 797.172402 236.128899 
L 795.130938 233.272338 
L 793.089475 228.539939 
L 791.048011 233.88308 
L 789.006548 234.39239 
L 786.965085 235.044797 
L 784.923621 228.509314 
L 782.882158 235.164625 
L 780.840694 233.103654 
L 778.799231 232.996941 
L 776.757768 233.24908 
L 774.716304 233.05783 
L 772.674841 235.34402 
L 770.633377 233.604198 
L 768.591914 230.630126 
L 766.55045 233.331236 
L 764.508987 233.375374 
L 762.467524 230.79855 
L 760.42606 235.240008 
L 758.384597 232.232164 
L 756.343133 223.811876 
L 754.30167 231.634586 
L 752.260207 232.043934 
L 750.218743 232.554878 
L 748.17728 232.402003 
L 746.135816 233.341307 
L 744.094353 231.150433 
L 742.052889 230.388496 
L 740.011426 233.002983 
L 737.969963 230.749427 
L 735.928499 234.800719 
L 733.887036 230.056547 
L 731.845572 234.180542 
L 729.804109 230.625083 
L 727.762646 226.020469 
L 725.721182 231.578234 
L 723.679719 228.270965 
L 721.638255 228.601758 
L 719.596792 228.576297 
L 717.555328 229.527854 
L 715.513865 234.17025 
L 713.472402 235.46763 
L 711.430938 230.753116 
L 709.389475 226.955222 
L 707.348011 228.345653 
L 705.306548 227.194263 
L 703.265085 230.634698 
L 701.223621 230.68774 
L 699.182158 229.81289 
L 697.140694 231.305424 
L 695.099231 231.974359 
L 693.057768 229.46708 
L 691.016304 229.341116 
L 688.974841 228.740112 
L 686.933377 226.121718 
L 684.891914 233.151343 
L 682.85045 229.285651 
L 680.808987 219.888731 
L 678.767524 223.027247 
L 676.72606 225.791585 
L 674.684597 222.509725 
L 672.643133 219.746435 
L 670.60167 220.280403 
L 668.560207 223.234806 
L 666.518743 218.054424 
L 664.47728 215.605041 
L 662.435816 216.38049 
L 660.394353 212.797639 
L 658.352889 212.776185 
L 656.311426 206.499344 
L 654.269963 207.427498 
L 652.228499 199.892225 
L 650.187036 204.514104 
L 648.145572 200.900651 
L 646.104109 201.500265 
L 644.062646 198.699178 
L 642.021182 201.132979 
L 639.979719 194.278305 
L 637.938255 196.960157 
L 635.896792 192.266838 
L 633.855328 192.009269 
L 631.813865 188.091914 
L 629.772402 188.67693 
L 627.730938 192.029926 
L 625.689475 187.099484 
L 623.648011 187.230834 
L 621.606548 178.344753 
L 619.565085 181.194016 
L 617.523621 182.278943 
L 615.482158 175.333226 
L 613.440694 181.532761 
L 611.399231 181.448017 
L 609.357768 172.851527 
L 607.316304 172.311569 
L 605.274841 171.083734 
L 603.233377 167.572848 
L 601.191914 168.796028 
L 599.15045 167.355149 
L 597.108987 175.983363 
L 595.067524 168.878294 
L 593.02606 163.428435 
L 590.984597 162.785396 
L 588.943133 160.595492 
L 586.90167 156.854035 
L 584.860207 156.953355 
L 582.818743 154.136979 
L 580.77728 155.337239 
L 578.735816 151.457074 
L 576.694353 155.667796 
L 574.652889 155.337919 
L 572.611426 152.994701 
L 570.569963 152.971027 
L 568.528499 149.690239 
L 566.487036 150.007459 
L 564.445572 149.701124 
L 562.404109 150.935542 
L 560.362646 147.653527 
L 558.321182 149.108642 
L 556.279719 147.225372 
L 554.238255 151.280678 
L 552.196792 146.445711 
L 550.155328 143.179405 
L 548.113865 144.13593 
L 546.072402 143.923239 
L 544.030938 142.788339 
L 541.989475 144.696051 
L 539.948011 140.839155 
L 537.906548 141.79751 
L 535.865085 139.659618 
L 533.823621 139.075872 
L 531.782158 137.057606 
L 529.740694 134.650026 
L 527.699231 136.072908 
L 525.657768 138.399614 
L 523.616304 133.931531 
L 521.574841 134.898137 
L 519.533377 133.071398 
L 517.491914 133.266436 
L 515.45045 134.995322 
L 513.408987 133.160913 
L 511.367524 134.402852 
L 509.32606 134.029644 
L 507.284597 130.758916 
L 505.243133 131.348003 
L 503.20167 132.094151 
L 501.160207 131.838184 
L 499.118743 130.956537 
L 497.07728 131.196363 
L 495.035816 130.162237 
L 492.994353 131.015103 
L 490.952889 130.652378 
L 488.911426 130.213192 
L 486.869963 129.769433 
L 484.828499 125.97053 
L 482.787036 128.44725 
L 480.745572 128.961325 
L 478.704109 127.772092 
L 476.662646 127.060543 
L 474.621182 126.315744 
L 472.579719 126.476556 
L 470.538255 125.342268 
L 468.496792 126.000101 
L 466.455328 125.718542 
L 464.413865 124.609334 
L 462.372402 124.398144 
L 460.330938 124.374135 
L 458.289475 124.32577 
L 456.248011 126.089503 
L 454.206548 125.870134 
L 452.165085 126.318963 
L 450.123621 124.862988 
L 448.082158 125.205229 
L 446.040694 124.46574 
L 443.999231 123.995375 
L 441.957768 121.772399 
L 439.916304 124.445678 
L 437.874841 123.727395 
L 435.833377 122.976725 
L 433.791914 124.142315 
L 431.75045 122.872676 
L 429.708987 122.6684 
L 427.667524 120.459954 
L 425.62606 122.384731 
L 423.584597 120.368245 
L 421.543133 122.101888 
L 419.50167 123.009186 
L 417.460207 122.396864 
L 415.418743 123.738102 
L 413.37728 124.486547 
L 411.335816 122.937248 
L 409.294353 122.87951 
L 407.252889 121.811992 
L 405.211426 122.067798 
L 403.169963 120.225224 
L 401.128499 121.205923 
L 399.087036 121.562027 
L 397.045572 121.289577 
L 395.004109 120.568958 
L 392.962646 119.774195 
L 390.921182 121.083869 
L 388.879719 120.463946 
L 386.838255 120.817838 
L 384.796792 121.922812 
L 382.755328 121.535457 
L 380.713865 118.375893 
L 378.672402 117.956451 
L 376.630938 119.487888 
L 374.589475 118.793582 
L 372.548011 119.598364 
L 370.506548 119.97272 
L 368.465085 118.418189 
L 366.423621 118.387547 
L 364.382158 118.57934 
L 362.340694 119.581854 
L 360.299231 116.902321 
L 358.257768 117.061751 
L 356.216304 116.395764 
L 354.174841 118.249925 
L 352.133377 117.335384 
L 350.091914 115.327819 
L 348.05045 116.057297 
L 346.008987 116.873076 
L 343.967524 112.65682 
L 341.92606 115.54152 
L 339.884597 110.392473 
L 337.843133 109.575984 
L 335.80167 108.054891 
L 333.760207 108.566414 
L 331.718743 108.387677 
L 329.67728 107.255241 
L 327.635816 104.500468 
L 325.594353 105.621692 
L 323.552889 100.120805 
L 321.511426 94.194832 
L 319.469963 95.356308 
L 317.428499 97.874366 
L 315.387036 90.265199 
L 313.345572 90.374605 
L 311.304109 88.435824 
L 309.262646 87.739535 
L 307.221182 78.113419 
L 305.179719 76.838302 
L 303.138255 72.97673 
L 301.096792 64.815125 
L 299.055328 58.460565 
L 297.013865 64.809118 
L 294.972402 61.294395 
L 292.930938 55.72569 
L 290.889475 53.240847 
L 288.848011 49.096876 
L 286.806548 43.754133 
L 284.765085 45.673149 
L 282.723621 36.305827 
L 280.682158 31.536508 
L 278.640694 29.234675 
L 276.599231 27.339793 
L 274.557768 28.119507 
L 272.516304 25.718262 
L 270.474841 27.459527 
L 268.433377 29.829103 
L 266.391914 25.388296 
L 264.35045 24.84 
L 262.308987 28.827784 
L 260.267524 29.619078 
L 258.22606 27.911973 
L 256.184597 36.233546 
L 254.143133 30.176471 
L 252.10167 32.081405 
L 250.060207 38.406537 
L 248.018743 36.47058 
L 245.97728 38.721267 
L 243.935816 40.716158 
L 241.894353 43.08936 
L 239.852889 45.322706 
L 237.811426 47.862262 
L 235.769963 50.206885 
L 233.728499 52.091725 
L 231.687036 55.17427 
L 229.645572 55.801497 
L 227.604109 60.817282 
L 225.562646 60.835699 
L 223.521182 63.260836 
L 221.479719 66.055855 
L 219.438255 67.568905 
L 217.396792 69.555014 
L 215.355328 71.032033 
L 213.313865 73.355993 
L 211.272402 74.617707 
L 209.230938 76.247174 
L 207.189475 78.229147 
L 205.148011 80.263609 
L 203.106548 81.373895 
L 201.065085 83.337068 
L 199.023621 84.576459 
L 196.982158 86.613113 
L 194.940694 88.125272 
L 192.899231 89.634175 
L 190.857768 91.342589 
L 188.816304 92.827364 
L 186.774841 94.049683 
L 184.733377 95.72486 
L 182.691914 96.434633 
L 180.65045 98.579446 
L 178.608987 99.938085 
L 176.567524 101.108264 
L 174.52606 102.603336 
L 172.484597 103.413791 
L 170.443133 104.711027 
L 168.40167 106.053425 
L 166.360207 107.564012 
L 164.318743 108.659424 
L 162.27728 109.740464 
L 160.235816 110.946423 
L 158.194353 112.102267 
L 156.152889 113.369897 
L 154.111426 114.336086 
L 152.069963 115.413907 
L 150.028499 116.253407 
L 147.987036 117.520607 
L 145.945572 118.370498 
L 143.904109 119.370584 
L 141.862646 120.678455 
L 139.821182 121.518571 
L 137.779719 121.614242 
L 135.738255 122.674021 
L 133.696792 123.118525 
L 131.655328 124.142481 
L 129.613865 125.370513 
L 127.572402 125.913184 
L 125.530938 126.419281 
L 123.489475 126.384299 
L 121.448011 126.943149 
L 119.406548 127.216751 
L 117.365085 127.530206 
L 115.323621 128.404638 
L 113.282158 128.857887 
L 111.240694 129.577365 
L 109.199231 128.963886 
L 107.157768 129.318207 
L 105.116304 128.447239 
L 103.074841 129.532885 
L 101.033377 129.616758 
L 98.991914 130.395636 
L 96.95045 128.469121 
L 94.908987 130.638261 
L 92.867524 130.393738 
L 90.82606 129.057244 
L 88.784597 128.689241 
L 86.743133 129.803845 
L 84.70167 131.759442 
L 82.660207 130.947345 
L 80.618743 130.881756 
L 78.57728 128.857097 
L 76.535816 128.829483 
L 74.494353 129.406104 
L 72.452889 130.636588 
L 70.411426 130.24036 
L 68.369963 129.997006 
L 66.328499 130.207105 
L 64.287036 130.978936 
L 62.245572 130.824441 
L 60.204109 131.323974 
L 58.162646 132.14202 
L 56.121182 131.609414 
L 54.079719 132.788774 
L 52.038255 132.995657 
L 49.996792 133.166283 
L 47.955328 133.926553 
L 45.913865 134.141106 
L 43.872402 134.981125 
L 41.830938 135.895043 
L 39.789475 135.940891 
L 37.748011 135.616836 
L 35.706548 135.39421 
L 33.665085 137.292097 
L 31.623621 137.00048 
L 29.582158 138.283667 
L 27.540694 138.334682 
L 25.499231 137.881166 
L 23.457768 139.147693 
L 21.416304 138.021168 
L 19.374841 138.105254 
L 17.333377 139.702602 
L 15.291914 138.592103 
L 13.25045 140.099009 
L 11.208987 140.593663 
L 9.167524 139.355746 
L 7.12606 135.379311 
L 5.084597 137.94202 
L 3.043133 136.730079 
L 1.00167 130.801188 
L -1.039793 135.862228 
L -3.081257 136.903573 
L -5.12272 131.414468 
L -7.164184 129.907621 
L -9.205647 132.843741 
L -11.247111 126.884865 
L -13.288574 115.987051 
L -15.330037 127.930449 
L -17.371501 132.451093 
L -19.412964 134.684253 
L -21.454428 119.978203 
L -23.495891 120.583678 
L -25.537354 113.154373 
L -27.578818 107.393643 
L -29.620281 118.984894 
L -31.661745 113.976066 
L -33.703208 103.642403 
L -35.744672 96.40102 
L -37.786135 96.820252 
L -39.827598 98.035209 
L -41.869062 96.474866 
L -43.910525 95.543619 
L -45.951989 99.625698 
L -47.993452 99.108316 
L -50.034915 96.399168 
L -52.076379 98.006295 
L -54.117842 96.853336 
L -56.159306 96.389199 
L -58.200769 96.457284 
L -60.242232 98.039624 
L -62.283696 98.967053 
L -64.325159 99.492743 
L -66.366623 100.8629 
L -68.408086 101.481291 
L -70.44955 102.576921 
L -72.491013 104.333161 
L -74.532476 105.707807 
L -76.57394 106.638192 
L -78.615403 107.679727 
L -80.656867 109.061919 
L -82.69833 109.92915 
L -84.739793 111.25574 
L -86.781257 112.860933 
L -88.82272 113.814314 
L -90.864184 114.45165 
L -92.905647 115.43801 
L -94.947111 116.453586 
L -96.988574 117.385635 
L -99.030037 118.277077 
L -101.071501 119.136443 
L -103.112964 120.318671 
L -105.154428 120.930135 
L -107.195891 121.783242 
L -109.237354 122.676207 
L -111.278818 123.439346 
L -113.320281 124.194946 
L -115.361745 124.825869 
L -117.403208 125.513387 
L -119.444672 126.428804 
L -121.486135 127.068347 
L -123.527598 127.81656 
L -125.569062 128.41605 
L -127.610525 129.080437 
L -129.651989 129.761594 
L -131.693452 130.45284 
L -133.734915 131.033462 
L -135.776379 131.721333 
L -137.817842 132.324874 
L -139.859306 132.972333 
L -141.900769 133.574702 
L -143.942232 134.196732 
L -145.983696 134.771034 
L -148.025159 135.372672 
L -150.066623 136.022301 
L -152.108086 136.515341 
L -154.14955 137.13447 
L -156.191013 137.667277 
L -158.232476 138.286216 
L -160.27394 138.737268 
L -162.315403 139.312816 
L -164.356867 139.861056 
L -166.39833 140.382869 
L -168.439793 140.914057 
L -170.481257 141.40501 
L -172.52272 141.978452 
L -174.564184 142.493945 
L -176.605647 142.917637 
L -178.647111 143.421824 
L -180.688574 143.925139 
L -182.730037 144.425781 
L -184.771501 144.908404 
L -186.812964 145.357679 
L -188.854428 145.85255 
L -190.895891 146.337238 
L -192.937354 146.824088 
L -194.978818 147.308864 
L -197.020281 147.806591 
L -199.061745 148.323899 
L -201.103208 148.768123 
L -203.144672 149.277609 
L -205.186135 149.776934 
L -207.227598 150.255642 
L -209.269062 150.749573 
L -211.310525 151.253568 
L -213.351989 151.74202 
L -215.393452 152.25493 
L -217.434915 152.721568 
L -219.476379 153.197601 
L -221.517842 153.701197 
L -223.559306 154.187019 
L -225.600769 154.647214 
L -227.642232 155.134796 
L -229.683696 155.578584 
L -231.725159 156.053672 
L -233.766623 156.560409 
L -235.808086 156.993121 
L -237.84955 157.478815 
L -239.891013 157.937582 
L -241.932476 158.41918 
L -243.97394 158.85338 
L -246.015403 159.363406 
L -248.056867 159.782969 
L -250.09833 160.255273 
L -252.139793 160.716849 
L -254.181257 161.190469 
L -256.22272 161.639628 
L -258.264184 162.097482 
L -260.305647 162.557325 
L -262.347111 163.033335 
L -264.388574 163.46962 
L -266.430037 163.871723 
L -268.471501 164.283231 
L -270.512964 164.697724 
L -272.554428 165.097819 
L -274.595891 165.505317 
L -276.637354 165.908093 
L -278.678818 166.292388 
L -280.720281 166.681727 
L -282.761745 167.069313 
L -284.803208 167.421181 
L -286.844672 167.779708 
L -288.886135 168.154732 
L -290.927598 168.50983 
L -292.969062 168.82676 
L -295.010525 169.177564 
L -297.051989 169.497749 
L -299.093452 169.792522 
L -301.134915 170.0879 
L -303.176379 170.364054 
L -305.217842 170.66288 
L -307.259306 170.908984 
L -309.300769 171.169818 
L -311.342232 171.415401 
L -313.383696 171.642962 
L -315.425159 171.85026 
L -317.466623 172.038549 
L -319.508086 172.225918 
L -321.54955 172.411953 
L -323.591013 172.565519 
L -325.632476 172.737922 
L -327.67394 172.883581 
L -329.715403 173.008824 
L -331.756867 173.156536 
L -333.79833 173.285607 
L -335.839793 173.392069 
L -337.881257 173.506743 
L -339.92272 173.618314 
L -341.964184 173.71619 
L -344.005647 173.814558 
L -346.047111 173.895533 
L -348.088574 173.994077 
L -350.130037 174.072017 
L -352.171501 174.154168 
L -354.212964 174.240594 
L -356.254428 174.310724 
L -358.295891 174.385259 
L -360.337354 174.483583 
L -362.378818 174.552428 
L -364.420281 174.637407 
L -366.461745 174.704301 
L -368.503208 174.794153 
L -370.544672 174.864913 
L -372.586135 174.939977 
L -374.627598 175.005474 
L -376.669062 175.065061 
L -378.710525 175.13355 
L -380.751989 175.209376 
L -382.793452 175.28329 
L -384.834915 175.345984 
L -386.876379 175.395697 
L -388.917842 175.468863 
L -390.959306 175.52827 
L -393.000769 175.600016 
z
" clip-path="url(#pe23aa1e4ad)" style="fill: #008000; fill-opacity: 0.3; stroke: #008000; stroke-opacity: 0.3"/>
   </g>
   <g id="matplotlib.axis_1">
    <g id="xtick_1">
     <g id="line2d_1">
      <defs>
       <path id="mc0c6a033cc" d="M 0 0 
L 0 3.5 
" style="stroke: #000000; stroke-width: 0.8"/>
      </defs>
      <g>
       <use xlink:href="#mc0c6a033cc" x="103.074841" y="395.28" style="stroke: #000000; stroke-width: 0.8"/>
      </g>
     </g>
     <g id="text_1">
      <!-- 2022-03-01 -->
      <g transform="translate(17.945813 495.213718) rotate(-45) scale(0.2 -0.2)">
       <defs>
        <path id="DejaVuSans-32" d="M 1228 531 
L 3431 531 
L 3431 0 
L 469 0 
L 469 531 
Q 828 903 1448 1529 
Q 2069 2156 2228 2338 
Q 2531 2678 2651 2914 
Q 2772 3150 2772 3378 
Q 2772 3750 2511 3984 
Q 2250 4219 1831 4219 
Q 1534 4219 1204 4116 
Q 875 4013 500 3803 
L 500 4441 
Q 881 4594 1212 4672 
Q 1544 4750 1819 4750 
Q 2544 4750 2975 4387 
Q 3406 4025 3406 3419 
Q 3406 3131 3298 2873 
Q 3191 2616 2906 2266 
Q 2828 2175 2409 1742 
Q 1991 1309 1228 531 
z
" transform="scale(0.015625)"/>
        <path id="DejaVuSans-30" d="M 2034 4250 
Q 1547 4250 1301 3770 
Q 1056 3291 1056 2328 
Q 1056 1369 1301 889 
Q 1547 409 2034 409 
Q 2525 409 2770 889 
Q 3016 1369 3016 2328 
Q 3016 3291 2770 3770 
Q 2525 4250 2034 4250 
z
M 2034 4750 
Q 2819 4750 3233 4129 
Q 3647 3509 3647 2328 
Q 3647 1150 3233 529 
Q 2819 -91 2034 -91 
Q 1250 -91 836 529 
Q 422 1150 422 2328 
Q 422 3509 836 4129 
Q 1250 4750 2034 4750 
z
" transform="scale(0.015625)"/>
        <path id="DejaVuSans-2d" d="M 313 2009 
L 1997 2009 
L 1997 1497 
L 313 1497 
L 313 2009 
z
" transform="scale(0.015625)"/>
        <path id="DejaVuSans-33" d="M 2597 2516 
Q 3050 2419 3304 2112 
Q 3559 1806 3559 1356 
Q 3559 666 3084 287 
Q 2609 -91 1734 -91 
Q 1441 -91 1130 -33 
Q 819 25 488 141 
L 488 750 
Q 750 597 1062 519 
Q 1375 441 1716 441 
Q 2309 441 2620 675 
Q 2931 909 2931 1356 
Q 2931 1769 2642 2001 
Q 2353 2234 1838 2234 
L 1294 2234 
L 1294 2753 
L 1863 2753 
Q 2328 2753 2575 2939 
Q 2822 3125 2822 3475 
Q 2822 3834 2567 4026 
Q 2313 4219 1838 4219 
Q 1578 4219 1281 4162 
Q 984 4106 628 3988 
L 628 4550 
Q 988 4650 1302 4700 
Q 1616 4750 1894 4750 
Q 2613 4750 3031 4423 
Q 3450 4097 3450 3541 
Q 3450 3153 3228 2886 
Q 3006 2619 2597 2516 
z
" transform="scale(0.015625)"/>
        <path id="DejaVuSans-31" d="M 794 531 
L 1825 531 
L 1825 4091 
L 703 3866 
L 703 4441 
L 1819 4666 
L 2450 4666 
L 2450 531 
L 3481 531 
L 3481 0 
L 794 0 
L 794 531 
z
" transform="scale(0.015625)"/>
       </defs>
       <use xlink:href="#DejaVuSans-32"/>
       <use xlink:href="#DejaVuSans-30" x="63.623047"/>
       <use xlink:href="#DejaVuSans-32" x="127.246094"/>
       <use xlink:href="#DejaVuSans-32" x="190.869141"/>
       <use xlink:href="#DejaVuSans-2d" x="254.492188"/>
       <use xlink:href="#DejaVuSans-30" x="290.576172"/>
       <use xlink:href="#DejaVuSans-33" x="354.199219"/>
       <use xlink:href="#DejaVuSans-2d" x="417.822266"/>
       <use xlink:href="#DejaVuSans-30" x="453.90625"/>
       <use xlink:href="#DejaVuSans-31" x="517.529297"/>
      </g>
     </g>
    </g>
    <g id="xtick_2">
     <g id="line2d_2">
      <g>
       <use xlink:href="#mc0c6a033cc" x="160.235816" y="395.28" style="stroke: #000000; stroke-width: 0.8"/>
      </g>
     </g>
     <g id="text_2">
      <!-- 2022-03-29 -->
      <g transform="translate(75.106789 495.213718) rotate(-45) scale(0.2 -0.2)">
       <defs>
        <path id="DejaVuSans-39" d="M 703 97 
L 703 672 
Q 941 559 1184 500 
Q 1428 441 1663 441 
Q 2288 441 2617 861 
Q 2947 1281 2994 2138 
Q 2813 1869 2534 1725 
Q 2256 1581 1919 1581 
Q 1219 1581 811 2004 
Q 403 2428 403 3163 
Q 403 3881 828 4315 
Q 1253 4750 1959 4750 
Q 2769 4750 3195 4129 
Q 3622 3509 3622 2328 
Q 3622 1225 3098 567 
Q 2575 -91 1691 -91 
Q 1453 -91 1209 -44 
Q 966 3 703 97 
z
M 1959 2075 
Q 2384 2075 2632 2365 
Q 2881 2656 2881 3163 
Q 2881 3666 2632 3958 
Q 2384 4250 1959 4250 
Q 1534 4250 1286 3958 
Q 1038 3666 1038 3163 
Q 1038 2656 1286 2365 
Q 1534 2075 1959 2075 
z
" transform="scale(0.015625)"/>
       </defs>
       <use xlink:href="#DejaVuSans-32"/>
       <use xlink:href="#DejaVuSans-30" x="63.623047"/>
       <use xlink:href="#DejaVuSans-32" x="127.246094"/>
       <use xlink:href="#DejaVuSans-32" x="190.869141"/>
       <use xlink:href="#DejaVuSans-2d" x="254.492188"/>
       <use xlink:href="#DejaVuSans-30" x="290.576172"/>
       <use xlink:href="#DejaVuSans-33" x="354.199219"/>
       <use xlink:href="#DejaVuSans-2d" x="417.822266"/>
       <use xlink:href="#DejaVuSans-32" x="453.90625"/>
       <use xlink:href="#DejaVuSans-39" x="517.529297"/>
      </g>
     </g>
    </g>
    <g id="xtick_3">
     <g id="line2d_3">
      <g>
       <use xlink:href="#mc0c6a033cc" x="217.396792" y="395.28" style="stroke: #000000; stroke-width: 0.8"/>
      </g>
     </g>
     <g id="text_3">
      <!-- 2022-04-26 -->
      <g transform="translate(132.267765 495.213718) rotate(-45) scale(0.2 -0.2)">
       <defs>
        <path id="DejaVuSans-34" d="M 2419 4116 
L 825 1625 
L 2419 1625 
L 2419 4116 
z
M 2253 4666 
L 3047 4666 
L 3047 1625 
L 3713 1625 
L 3713 1100 
L 3047 1100 
L 3047 0 
L 2419 0 
L 2419 1100 
L 313 1100 
L 313 1709 
L 2253 4666 
z
" transform="scale(0.015625)"/>
        <path id="DejaVuSans-36" d="M 2113 2584 
Q 1688 2584 1439 2293 
Q 1191 2003 1191 1497 
Q 1191 994 1439 701 
Q 1688 409 2113 409 
Q 2538 409 2786 701 
Q 3034 994 3034 1497 
Q 3034 2003 2786 2293 
Q 2538 2584 2113 2584 
z
M 3366 4563 
L 3366 3988 
Q 3128 4100 2886 4159 
Q 2644 4219 2406 4219 
Q 1781 4219 1451 3797 
Q 1122 3375 1075 2522 
Q 1259 2794 1537 2939 
Q 1816 3084 2150 3084 
Q 2853 3084 3261 2657 
Q 3669 2231 3669 1497 
Q 3669 778 3244 343 
Q 2819 -91 2113 -91 
Q 1303 -91 875 529 
Q 447 1150 447 2328 
Q 447 3434 972 4092 
Q 1497 4750 2381 4750 
Q 2619 4750 2861 4703 
Q 3103 4656 3366 4563 
z
" transform="scale(0.015625)"/>
       </defs>
       <use xlink:href="#DejaVuSans-32"/>
       <use xlink:href="#DejaVuSans-30" x="63.623047"/>
       <use xlink:href="#DejaVuSans-32" x="127.246094"/>
       <use xlink:href="#DejaVuSans-32" x="190.869141"/>
       <use xlink:href="#DejaVuSans-2d" x="254.492188"/>
       <use xlink:href="#DejaVuSans-30" x="290.576172"/>
       <use xlink:href="#DejaVuSans-34" x="354.199219"/>
       <use xlink:href="#DejaVuSans-2d" x="417.822266"/>
       <use xlink:href="#DejaVuSans-32" x="453.90625"/>
       <use xlink:href="#DejaVuSans-36" x="517.529297"/>
      </g>
     </g>
    </g>
    <g id="xtick_4">
     <g id="line2d_4">
      <g>
       <use xlink:href="#mc0c6a033cc" x="274.557768" y="395.28" style="stroke: #000000; stroke-width: 0.8"/>
      </g>
     </g>
     <g id="text_4">
      <!-- 2022-05-24 -->
      <g transform="translate(189.42874 495.213718) rotate(-45) scale(0.2 -0.2)">
       <defs>
        <path id="DejaVuSans-35" d="M 691 4666 
L 3169 4666 
L 3169 4134 
L 1269 4134 
L 1269 2991 
Q 1406 3038 1543 3061 
Q 1681 3084 1819 3084 
Q 2600 3084 3056 2656 
Q 3513 2228 3513 1497 
Q 3513 744 3044 326 
Q 2575 -91 1722 -91 
Q 1428 -91 1123 -41 
Q 819 9 494 109 
L 494 744 
Q 775 591 1075 516 
Q 1375 441 1709 441 
Q 2250 441 2565 725 
Q 2881 1009 2881 1497 
Q 2881 1984 2565 2268 
Q 2250 2553 1709 2553 
Q 1456 2553 1204 2497 
Q 953 2441 691 2322 
L 691 4666 
z
" transform="scale(0.015625)"/>
       </defs>
       <use xlink:href="#DejaVuSans-32"/>
       <use xlink:href="#DejaVuSans-30" x="63.623047"/>
       <use xlink:href="#DejaVuSans-32" x="127.246094"/>
       <use xlink:href="#DejaVuSans-32" x="190.869141"/>
       <use xlink:href="#DejaVuSans-2d" x="254.492188"/>
       <use xlink:href="#DejaVuSans-30" x="290.576172"/>
       <use xlink:href="#DejaVuSans-35" x="354.199219"/>
       <use xlink:href="#DejaVuSans-2d" x="417.822266"/>
       <use xlink:href="#DejaVuSans-32" x="453.90625"/>
       <use xlink:href="#DejaVuSans-34" x="517.529297"/>
      </g>
     </g>
    </g>
    <g id="xtick_5">
     <g id="line2d_5">
      <g>
       <use xlink:href="#mc0c6a033cc" x="331.718743" y="395.28" style="stroke: #000000; stroke-width: 0.8"/>
      </g>
     </g>
     <g id="text_5">
      <!-- 2022-06-21 -->
      <g transform="translate(246.589716 495.213718) rotate(-45) scale(0.2 -0.2)">
       <use xlink:href="#DejaVuSans-32"/>
       <use xlink:href="#DejaVuSans-30" x="63.623047"/>
       <use xlink:href="#DejaVuSans-32" x="127.246094"/>
       <use xlink:href="#DejaVuSans-32" x="190.869141"/>
       <use xlink:href="#DejaVuSans-2d" x="254.492188"/>
       <use xlink:href="#DejaVuSans-30" x="290.576172"/>
       <use xlink:href="#DejaVuSans-36" x="354.199219"/>
       <use xlink:href="#DejaVuSans-2d" x="417.822266"/>
       <use xlink:href="#DejaVuSans-32" x="453.90625"/>
       <use xlink:href="#DejaVuSans-31" x="517.529297"/>
      </g>
     </g>
    </g>
    <g id="xtick_6">
     <g id="line2d_6">
      <g>
       <use xlink:href="#mc0c6a033cc" x="388.879719" y="395.28" style="stroke: #000000; stroke-width: 0.8"/>
      </g>
     </g>
     <g id="text_6">
      <!-- 2022-07-19 -->
      <g transform="translate(303.750691 495.213718) rotate(-45) scale(0.2 -0.2)">
       <defs>
        <path id="DejaVuSans-37" d="M 525 4666 
L 3525 4666 
L 3525 4397 
L 1831 0 
L 1172 0 
L 2766 4134 
L 525 4134 
L 525 4666 
z
" transform="scale(0.015625)"/>
       </defs>
       <use xlink:href="#DejaVuSans-32"/>
       <use xlink:href="#DejaVuSans-30" x="63.623047"/>
       <use xlink:href="#DejaVuSans-32" x="127.246094"/>
       <use xlink:href="#DejaVuSans-32" x="190.869141"/>
       <use xlink:href="#DejaVuSans-2d" x="254.492188"/>
       <use xlink:href="#DejaVuSans-30" x="290.576172"/>
       <use xlink:href="#DejaVuSans-37" x="354.199219"/>
       <use xlink:href="#DejaVuSans-2d" x="417.822266"/>
       <use xlink:href="#DejaVuSans-31" x="453.90625"/>
       <use xlink:href="#DejaVuSans-39" x="517.529297"/>
      </g>
     </g>
    </g>
    <g id="xtick_7">
     <g id="line2d_7">
      <g>
       <use xlink:href="#mc0c6a033cc" x="446.040694" y="395.28" style="stroke: #000000; stroke-width: 0.8"/>
      </g>
     </g>
     <g id="text_7">
      <!-- 2022-08-16 -->
      <g transform="translate(360.911667 495.213718) rotate(-45) scale(0.2 -0.2)">
       <defs>
        <path id="DejaVuSans-38" d="M 2034 2216 
Q 1584 2216 1326 1975 
Q 1069 1734 1069 1313 
Q 1069 891 1326 650 
Q 1584 409 2034 409 
Q 2484 409 2743 651 
Q 3003 894 3003 1313 
Q 3003 1734 2745 1975 
Q 2488 2216 2034 2216 
z
M 1403 2484 
Q 997 2584 770 2862 
Q 544 3141 544 3541 
Q 544 4100 942 4425 
Q 1341 4750 2034 4750 
Q 2731 4750 3128 4425 
Q 3525 4100 3525 3541 
Q 3525 3141 3298 2862 
Q 3072 2584 2669 2484 
Q 3125 2378 3379 2068 
Q 3634 1759 3634 1313 
Q 3634 634 3220 271 
Q 2806 -91 2034 -91 
Q 1263 -91 848 271 
Q 434 634 434 1313 
Q 434 1759 690 2068 
Q 947 2378 1403 2484 
z
M 1172 3481 
Q 1172 3119 1398 2916 
Q 1625 2713 2034 2713 
Q 2441 2713 2670 2916 
Q 2900 3119 2900 3481 
Q 2900 3844 2670 4047 
Q 2441 4250 2034 4250 
Q 1625 4250 1398 4047 
Q 1172 3844 1172 3481 
z
" transform="scale(0.015625)"/>
       </defs>
       <use xlink:href="#DejaVuSans-32"/>
       <use xlink:href="#DejaVuSans-30" x="63.623047"/>
       <use xlink:href="#DejaVuSans-32" x="127.246094"/>
       <use xlink:href="#DejaVuSans-32" x="190.869141"/>
       <use xlink:href="#DejaVuSans-2d" x="254.492188"/>
       <use xlink:href="#DejaVuSans-30" x="290.576172"/>
       <use xlink:href="#DejaVuSans-38" x="354.199219"/>
       <use xlink:href="#DejaVuSans-2d" x="417.822266"/>
       <use xlink:href="#DejaVuSans-31" x="453.90625"/>
       <use xlink:href="#DejaVuSans-36" x="517.529297"/>
      </g>
     </g>
    </g>
    <g id="xtick_8">
     <g id="line2d_8">
      <g>
       <use xlink:href="#mc0c6a033cc" x="503.20167" y="395.28" style="stroke: #000000; stroke-width: 0.8"/>
      </g>
     </g>
     <g id="text_8">
      <!-- 2022-09-13 -->
      <g transform="translate(418.072643 495.213718) rotate(-45) scale(0.2 -0.2)">
       <use xlink:href="#DejaVuSans-32"/>
       <use xlink:href="#DejaVuSans-30" x="63.623047"/>
       <use xlink:href="#DejaVuSans-32" x="127.246094"/>
       <use xlink:href="#DejaVuSans-32" x="190.869141"/>
       <use xlink:href="#DejaVuSans-2d" x="254.492188"/>
       <use xlink:href="#DejaVuSans-30" x="290.576172"/>
       <use xlink:href="#DejaVuSans-39" x="354.199219"/>
       <use xlink:href="#DejaVuSans-2d" x="417.822266"/>
       <use xlink:href="#DejaVuSans-31" x="453.90625"/>
       <use xlink:href="#DejaVuSans-33" x="517.529297"/>
      </g>
     </g>
    </g>
    <g id="xtick_9">
     <g id="line2d_9">
      <g>
       <use xlink:href="#mc0c6a033cc" x="560.362646" y="395.28" style="stroke: #000000; stroke-width: 0.8"/>
      </g>
     </g>
     <g id="text_9">
      <!-- 2022-10-11 -->
      <g transform="translate(475.233618 495.213718) rotate(-45) scale(0.2 -0.2)">
       <use xlink:href="#DejaVuSans-32"/>
       <use xlink:href="#DejaVuSans-30" x="63.623047"/>
       <use xlink:href="#DejaVuSans-32" x="127.246094"/>
       <use xlink:href="#DejaVuSans-32" x="190.869141"/>
       <use xlink:href="#DejaVuSans-2d" x="254.492188"/>
       <use xlink:href="#DejaVuSans-31" x="290.576172"/>
       <use xlink:href="#DejaVuSans-30" x="354.199219"/>
       <use xlink:href="#DejaVuSans-2d" x="417.822266"/>
       <use xlink:href="#DejaVuSans-31" x="453.90625"/>
       <use xlink:href="#DejaVuSans-31" x="517.529297"/>
      </g>
     </g>
    </g>
    <g id="xtick_10">
     <g id="line2d_10">
      <g>
       <use xlink:href="#mc0c6a033cc" x="617.523621" y="395.28" style="stroke: #000000; stroke-width: 0.8"/>
      </g>
     </g>
     <g id="text_10">
      <!-- 2022-11-08 -->
      <g transform="translate(532.394594 495.213718) rotate(-45) scale(0.2 -0.2)">
       <use xlink:href="#DejaVuSans-32"/>
       <use xlink:href="#DejaVuSans-30" x="63.623047"/>
       <use xlink:href="#DejaVuSans-32" x="127.246094"/>
       <use xlink:href="#DejaVuSans-32" x="190.869141"/>
       <use xlink:href="#DejaVuSans-2d" x="254.492188"/>
       <use xlink:href="#DejaVuSans-31" x="290.576172"/>
       <use xlink:href="#DejaVuSans-31" x="354.199219"/>
       <use xlink:href="#DejaVuSans-2d" x="417.822266"/>
       <use xlink:href="#DejaVuSans-30" x="453.90625"/>
       <use xlink:href="#DejaVuSans-38" x="517.529297"/>
      </g>
     </g>
    </g>
    <g id="xtick_11">
     <g id="line2d_11">
      <g>
       <use xlink:href="#mc0c6a033cc" x="674.684597" y="395.28" style="stroke: #000000; stroke-width: 0.8"/>
      </g>
     </g>
     <g id="text_11">
      <!-- 2022-12-06 -->
      <g transform="translate(589.555569 495.213718) rotate(-45) scale(0.2 -0.2)">
       <use xlink:href="#DejaVuSans-32"/>
       <use xlink:href="#DejaVuSans-30" x="63.623047"/>
       <use xlink:href="#DejaVuSans-32" x="127.246094"/>
       <use xlink:href="#DejaVuSans-32" x="190.869141"/>
       <use xlink:href="#DejaVuSans-2d" x="254.492188"/>
       <use xlink:href="#DejaVuSans-31" x="290.576172"/>
       <use xlink:href="#DejaVuSans-32" x="354.199219"/>
       <use xlink:href="#DejaVuSans-2d" x="417.822266"/>
       <use xlink:href="#DejaVuSans-30" x="453.90625"/>
       <use xlink:href="#DejaVuSans-36" x="517.529297"/>
      </g>
     </g>
    </g>
    <g id="xtick_12">
     <g id="line2d_12">
      <g>
       <use xlink:href="#mc0c6a033cc" x="731.845572" y="395.28" style="stroke: #000000; stroke-width: 0.8"/>
      </g>
     </g>
     <g id="text_12">
      <!-- 2023-01-03 -->
      <g transform="translate(646.716545 495.213718) rotate(-45) scale(0.2 -0.2)">
       <use xlink:href="#DejaVuSans-32"/>
       <use xlink:href="#DejaVuSans-30" x="63.623047"/>
       <use xlink:href="#DejaVuSans-32" x="127.246094"/>
       <use xlink:href="#DejaVuSans-33" x="190.869141"/>
       <use xlink:href="#DejaVuSans-2d" x="254.492188"/>
       <use xlink:href="#DejaVuSans-30" x="290.576172"/>
       <use xlink:href="#DejaVuSans-31" x="354.199219"/>
       <use xlink:href="#DejaVuSans-2d" x="417.822266"/>
       <use xlink:href="#DejaVuSans-30" x="453.90625"/>
       <use xlink:href="#DejaVuSans-33" x="517.529297"/>
      </g>
     </g>
    </g>
    <g id="xtick_13">
     <g id="line2d_13">
      <g>
       <use xlink:href="#mc0c6a033cc" x="789.006548" y="395.28" style="stroke: #000000; stroke-width: 0.8"/>
      </g>
     </g>
     <g id="text_13">
      <!-- 2023-01-31 -->
      <g transform="translate(703.877521 495.213718) rotate(-45) scale(0.2 -0.2)">
       <use xlink:href="#DejaVuSans-32"/>
       <use xlink:href="#DejaVuSans-30" x="63.623047"/>
       <use xlink:href="#DejaVuSans-32" x="127.246094"/>
       <use xlink:href="#DejaVuSans-33" x="190.869141"/>
       <use xlink:href="#DejaVuSans-2d" x="254.492188"/>
       <use xlink:href="#DejaVuSans-30" x="290.576172"/>
       <use xlink:href="#DejaVuSans-31" x="354.199219"/>
       <use xlink:href="#DejaVuSans-2d" x="417.822266"/>
       <use xlink:href="#DejaVuSans-33" x="453.90625"/>
       <use xlink:href="#DejaVuSans-31" x="517.529297"/>
      </g>
     </g>
    </g>
    <g id="xtick_14">
     <g id="line2d_14">
      <g>
       <use xlink:href="#mc0c6a033cc" x="846.167524" y="395.28" style="stroke: #000000; stroke-width: 0.8"/>
      </g>
     </g>
     <g id="text_14">
      <!-- 2023-02-28 -->
      <g transform="translate(761.038496 495.213718) rotate(-45) scale(0.2 -0.2)">
       <use xlink:href="#DejaVuSans-32"/>
       <use xlink:href="#DejaVuSans-30" x="63.623047"/>
       <use xlink:href="#DejaVuSans-32" x="127.246094"/>
       <use xlink:href="#DejaVuSans-33" x="190.869141"/>
       <use xlink:href="#DejaVuSans-2d" x="254.492188"/>
       <use xlink:href="#DejaVuSans-30" x="290.576172"/>
       <use xlink:href="#DejaVuSans-32" x="354.199219"/>
       <use xlink:href="#DejaVuSans-2d" x="417.822266"/>
       <use xlink:href="#DejaVuSans-32" x="453.90625"/>
       <use xlink:href="#DejaVuSans-38" x="517.529297"/>
      </g>
     </g>
    </g>
    <g id="xtick_15">
     <g id="line2d_15">
      <g>
       <use xlink:href="#mc0c6a033cc" x="903.328499" y="395.28" style="stroke: #000000; stroke-width: 0.8"/>
      </g>
     </g>
     <g id="text_15">
      <!-- 2023-03-28 -->
      <g transform="translate(818.199472 495.213718) rotate(-45) scale(0.2 -0.2)">
       <use xlink:href="#DejaVuSans-32"/>
       <use xlink:href="#DejaVuSans-30" x="63.623047"/>
       <use xlink:href="#DejaVuSans-32" x="127.246094"/>
       <use xlink:href="#DejaVuSans-33" x="190.869141"/>
       <use xlink:href="#DejaVuSans-2d" x="254.492188"/>
       <use xlink:href="#DejaVuSans-30" x="290.576172"/>
       <use xlink:href="#DejaVuSans-33" x="354.199219"/>
       <use xlink:href="#DejaVuSans-2d" x="417.822266"/>
       <use xlink:href="#DejaVuSans-32" x="453.90625"/>
       <use xlink:href="#DejaVuSans-38" x="517.529297"/>
      </g>
     </g>
    </g>
    <g id="xtick_16">
     <g id="line2d_16">
      <g>
       <use xlink:href="#mc0c6a033cc" x="940.074841" y="395.28" style="stroke: #000000; stroke-width: 0.8"/>
      </g>
     </g>
     <g id="text_16">
      <!-- 2023-04-15 -->
      <g transform="translate(854.945813 495.213718) rotate(-45) scale(0.2 -0.2)">
       <use xlink:href="#DejaVuSans-32"/>
       <use xlink:href="#DejaVuSans-30" x="63.623047"/>
       <use xlink:href="#DejaVuSans-32" x="127.246094"/>
       <use xlink:href="#DejaVuSans-33" x="190.869141"/>
       <use xlink:href="#DejaVuSans-2d" x="254.492188"/>
       <use xlink:href="#DejaVuSans-30" x="290.576172"/>
       <use xlink:href="#DejaVuSans-34" x="354.199219"/>
       <use xlink:href="#DejaVuSans-2d" x="417.822266"/>
       <use xlink:href="#DejaVuSans-31" x="453.90625"/>
       <use xlink:href="#DejaVuSans-35" x="517.529297"/>
      </g>
     </g>
    </g>
   </g>
   <g id="matplotlib.axis_2">
    <g id="ytick_1">
     <g id="line2d_17">
      <defs>
       <path id="m302d146c00" d="M 0 0 
L -3.5 0 
" style="stroke: #000000; stroke-width: 0.8"/>
      </defs>
      <g>
       <use xlink:href="#m302d146c00" x="103.074841" y="388.195503" style="stroke: #000000; stroke-width: 0.8"/>
      </g>
     </g>
     <g id="text_17">
      <!-- 0.20 -->
      <g transform="translate(34.784216 395.793941) scale(0.2 -0.2)">
       <defs>
        <path id="DejaVuSans-2212" d="M 678 2272 
L 4684 2272 
L 4684 1741 
L 678 1741 
L 678 2272 
z
" transform="scale(0.015625)"/>
        <path id="DejaVuSans-2e" d="M 684 794 
L 1344 794 
L 1344 0 
L 684 0 
L 684 794 
z
" transform="scale(0.015625)"/>
       </defs>
       <use xlink:href="#DejaVuSans-2212"/>
       <use xlink:href="#DejaVuSans-30" x="83.789062"/>
       <use xlink:href="#DejaVuSans-2e" x="147.412109"/>
       <use xlink:href="#DejaVuSans-32" x="179.199219"/>
       <use xlink:href="#DejaVuSans-30" x="242.822266"/>
      </g>
     </g>
    </g>
    <g id="ytick_2">
     <g id="line2d_18">
      <g>
       <use xlink:href="#m302d146c00" x="103.074841" y="335.063818" style="stroke: #000000; stroke-width: 0.8"/>
      </g>
     </g>
     <g id="text_18">
      <!-- 0.15 -->
      <g transform="translate(34.784216 342.662255) scale(0.2 -0.2)">
       <use xlink:href="#DejaVuSans-2212"/>
       <use xlink:href="#DejaVuSans-30" x="83.789062"/>
       <use xlink:href="#DejaVuSans-2e" x="147.412109"/>
       <use xlink:href="#DejaVuSans-31" x="179.199219"/>
       <use xlink:href="#DejaVuSans-35" x="242.822266"/>
      </g>
     </g>
    </g>
    <g id="ytick_3">
     <g id="line2d_19">
      <g>
       <use xlink:href="#m302d146c00" x="103.074841" y="281.932133" style="stroke: #000000; stroke-width: 0.8"/>
      </g>
     </g>
     <g id="text_19">
      <!-- 0.10 -->
      <g transform="translate(34.784216 289.53057) scale(0.2 -0.2)">
       <use xlink:href="#DejaVuSans-2212"/>
       <use xlink:href="#DejaVuSans-30" x="83.789062"/>
       <use xlink:href="#DejaVuSans-2e" x="147.412109"/>
       <use xlink:href="#DejaVuSans-31" x="179.199219"/>
       <use xlink:href="#DejaVuSans-30" x="242.822266"/>
      </g>
     </g>
    </g>
    <g id="ytick_4">
     <g id="line2d_20">
      <g>
       <use xlink:href="#m302d146c00" x="103.074841" y="228.800447" style="stroke: #000000; stroke-width: 0.8"/>
      </g>
     </g>
     <g id="text_20">
      <!-- 0.05 -->
      <g transform="translate(34.784216 236.398885) scale(0.2 -0.2)">
       <use xlink:href="#DejaVuSans-2212"/>
       <use xlink:href="#DejaVuSans-30" x="83.789062"/>
       <use xlink:href="#DejaVuSans-2e" x="147.412109"/>
       <use xlink:href="#DejaVuSans-30" x="179.199219"/>
       <use xlink:href="#DejaVuSans-35" x="242.822266"/>
      </g>
     </g>
    </g>
    <g id="ytick_5">
     <g id="line2d_21">
      <g>
       <use xlink:href="#m302d146c00" x="103.074841" y="175.668762" style="stroke: #000000; stroke-width: 0.8"/>
      </g>
     </g>
     <g id="text_21">
      <!-- 0.00 -->
      <g transform="translate(51.543591 183.267199) scale(0.2 -0.2)">
       <use xlink:href="#DejaVuSans-30"/>
       <use xlink:href="#DejaVuSans-2e" x="63.623047"/>
       <use xlink:href="#DejaVuSans-30" x="95.410156"/>
       <use xlink:href="#DejaVuSans-30" x="159.033203"/>
      </g>
     </g>
    </g>
    <g id="ytick_6">
     <g id="line2d_22">
      <g>
       <use xlink:href="#m302d146c00" x="103.074841" y="122.537077" style="stroke: #000000; stroke-width: 0.8"/>
      </g>
     </g>
     <g id="text_22">
      <!-- 0.05 -->
      <g transform="translate(51.543591 130.135514) scale(0.2 -0.2)">
       <use xlink:href="#DejaVuSans-30"/>
       <use xlink:href="#DejaVuSans-2e" x="63.623047"/>
       <use xlink:href="#DejaVuSans-30" x="95.410156"/>
       <use xlink:href="#DejaVuSans-35" x="159.033203"/>
      </g>
     </g>
    </g>
    <g id="ytick_7">
     <g id="line2d_23">
      <g>
       <use xlink:href="#m302d146c00" x="103.074841" y="69.405391" style="stroke: #000000; stroke-width: 0.8"/>
      </g>
     </g>
     <g id="text_23">
      <!-- 0.10 -->
      <g transform="translate(51.543591 77.003829) scale(0.2 -0.2)">
       <use xlink:href="#DejaVuSans-30"/>
       <use xlink:href="#DejaVuSans-2e" x="63.623047"/>
       <use xlink:href="#DejaVuSans-31" x="95.410156"/>
       <use xlink:href="#DejaVuSans-30" x="159.033203"/>
      </g>
     </g>
    </g>
    <g id="ytick_8">
     <g id="line2d_24">
      <g>
       <use xlink:href="#m302d146c00" x="103.074841" y="16.273706" style="stroke: #000000; stroke-width: 0.8"/>
      </g>
     </g>
     <g id="text_24">
      <!-- 0.15 -->
      <g transform="translate(51.543591 23.872144) scale(0.2 -0.2)">
       <use xlink:href="#DejaVuSans-30"/>
       <use xlink:href="#DejaVuSans-2e" x="63.623047"/>
       <use xlink:href="#DejaVuSans-31" x="95.410156"/>
       <use xlink:href="#DejaVuSans-35" x="159.033203"/>
      </g>
     </g>
    </g>
   </g>
   <g id="line2d_25">
    <path d="M 0 0 
" clip-path="url(#pe23aa1e4ad)" style="fill: none; stroke: #ffa500; stroke-width: 1.5; stroke-linecap: square"/>
   </g>
   <g id="line2d_26">
    <path d="M 103.074841 175.668762 
L 948.274841 175.668762 
" clip-path="url(#pe23aa1e4ad)" style="fill: none; stroke-dasharray: 7.4,3.2; stroke-dashoffset: 0; stroke: #000000; stroke-width: 2"/>
   </g>
   <g id="patch_3">
    <path d="M 103.074841 395.28 
L 103.074841 7.2 
" style="fill: none; stroke: #000000; stroke-width: 0.8; stroke-linejoin: miter; stroke-linecap: square"/>
   </g>
   <g id="patch_4">
    <path d="M 940.074841 395.28 
L 940.074841 7.2 
" style="fill: none; stroke: #000000; stroke-width: 0.8; stroke-linejoin: miter; stroke-linecap: square"/>
   </g>
   <g id="patch_5">
    <path d="M 103.074841 395.28 
L 940.074841 395.28 
" style="fill: none; stroke: #000000; stroke-width: 0.8; stroke-linejoin: miter; stroke-linecap: square"/>
   </g>
   <g id="patch_6">
    <path d="M 103.074841 7.2 
L 940.074841 7.2 
" style="fill: none; stroke: #000000; stroke-width: 0.8; stroke-linejoin: miter; stroke-linecap: square"/>
   </g>
  </g>
 </g>
 <defs>
  <clipPath id="pe23aa1e4ad">
   <rect x="103.074841" y="7.2" width="837" height="388.08"/>
  </clipPath>
 </defs>
</svg>
