<?xml version="1.0" encoding="utf-8" standalone="no"?>
<!DOCTYPE svg PUBLIC "-//W3C//DTD SVG 1.1//EN"
  "http://www.w3.org/Graphics/SVG/1.1/DTD/svg11.dtd">
<svg xmlns:xlink="http://www.w3.org/1999/xlink" width="947.274841pt" height="505.354841pt" viewBox="0 0 947.274841 505.354841" xmlns="http://www.w3.org/2000/svg" version="1.1">
 <metadata>
  <rdf:RDF xmlns:dc="http://purl.org/dc/elements/1.1/" xmlns:cc="http://creativecommons.org/ns#" xmlns:rdf="http://www.w3.org/1999/02/22-rdf-syntax-ns#">
   <cc:Work>
    <dc:type rdf:resource="http://purl.org/dc/dcmitype/StillImage"/>
    <dc:date>2023-11-15T18:16:57.170423</dc:date>
    <dc:format>image/svg+xml</dc:format>
    <dc:creator>
     <cc:Agent>
      <dc:title>Matplotlib v3.7.2, https://matplotlib.org/</dc:title>
     </cc:Agent>
    </dc:creator>
   </cc:Work>
  </rdf:RDF>
 </metadata>
 <defs>
  <style type="text/css">*{stroke-linejoin: round; stroke-linecap: butt}</style>
 </defs>
 <g id="figure_1">
  <g id="patch_1">
   <path d="M 0 505.354841 
L 947.274841 505.354841 
L 947.274841 -0 
L 0 -0 
z
" style="fill: #ffffff"/>
  </g>
  <g id="axes_1">
   <g id="patch_2">
    <path d="M 103.074841 395.28 
L 940.074841 395.28 
L 940.074841 7.2 
L 103.074841 7.2 
z
" style="fill: #ffffff"/>
   </g>
   <g id="PolyCollection_1">
    <path d="M -4315.31939 239.974192 
L -4315.31939 239.989903 
L -4307.271313 239.91599 
L -4299.223236 239.850864 
L -4291.175159 239.768261 
L -4283.127082 239.7113 
L -4275.079005 239.639309 
L -4267.030929 239.555969 
L -4258.982852 239.476957 
L -4250.934775 239.405266 
L -4242.886698 239.341059 
L -4234.838621 239.268107 
L -4226.790544 239.191939 
L -4218.742467 239.117501 
L -4210.69439 239.028123 
L -4202.646313 238.952307 
L -4194.598236 238.864619 
L -4186.550159 238.787949 
L -4178.502082 238.687738 
L -4170.454005 238.603358 
L -4162.405929 238.521524 
L -4154.357852 238.426487 
L -4146.309775 238.333346 
L -4138.261698 238.241792 
L -4130.213621 238.133342 
L -4122.165544 238.0367 
L -4114.117467 237.925204 
L -4106.06939 237.812074 
L -4098.021313 237.687789 
L -4089.973236 237.559899 
L -4081.925159 237.433906 
L -4073.877082 237.289645 
L -4065.829005 237.127652 
L -4057.780929 236.981322 
L -4049.732852 236.8164 
L -4041.684775 236.629515 
L -4033.636698 236.453408 
L -4025.588621 236.249099 
L -4017.540544 236.040791 
L -4009.492467 235.825676 
L -4001.44439 235.598516 
L -3993.396313 235.347968 
L -3985.348236 235.081427 
L -3977.300159 234.799105 
L -3969.252082 234.524605 
L -3961.204005 234.205681 
L -3953.155929 233.899496 
L -3945.107852 233.57399 
L -3937.059775 233.245948 
L -3929.011698 232.894083 
L -3920.963621 232.514738 
L -3912.915544 232.159612 
L -3904.867467 231.767276 
L -3896.81939 231.361443 
L -3888.771313 230.961941 
L -3880.723236 230.565161 
L -3872.675159 230.1373 
L -3864.627082 229.704438 
L -3856.579005 229.271511 
L -3848.530929 228.821573 
L -3840.482852 228.365951 
L -3832.434775 227.910865 
L -3824.386698 227.441257 
L -3816.338621 226.970097 
L -3808.290544 226.504826 
L -3800.242467 226.021844 
L -3792.19439 225.50806 
L -3784.146313 225.00834 
L -3776.098236 224.509365 
L -3768.050159 224.017228 
L -3760.002082 223.506794 
L -3751.954005 223.007037 
L -3743.905929 222.499594 
L -3735.857852 222.036823 
L -3727.809775 221.500929 
L -3719.761698 221.030292 
L -3711.713621 220.519797 
L -3703.665544 220.03634 
L -3695.617467 219.532858 
L -3687.56939 219.076372 
L -3679.521313 218.559891 
L -3671.473236 218.07672 
L -3663.425159 217.620626 
L -3655.377082 217.128986 
L -3647.329005 216.661493 
L -3639.280929 216.180984 
L -3631.232852 215.691353 
L -3623.184775 215.219107 
L -3615.136698 214.755391 
L -3607.088621 214.264847 
L -3599.040544 213.792899 
L -3590.992467 213.311161 
L -3582.94439 212.836748 
L -3574.896313 212.372665 
L -3566.848236 211.897538 
L -3558.800159 211.418551 
L -3550.752082 210.982671 
L -3542.704005 210.496044 
L -3534.655929 210.028183 
L -3526.607852 209.567636 
L -3518.559775 209.107015 
L -3510.511698 208.647827 
L -3502.463621 208.183747 
L -3494.415544 207.739293 
L -3486.367467 207.279301 
L -3478.31939 206.809428 
L -3470.271313 206.335086 
L -3462.223236 205.856319 
L -3454.175159 205.405226 
L -3446.127082 204.913726 
L -3438.079005 204.392802 
L -3430.030929 203.900554 
L -3421.982852 203.383906 
L -3413.934775 202.859736 
L -3405.886698 202.308689 
L -3397.838621 201.748148 
L -3389.790544 201.223253 
L -3381.742467 200.631113 
L -3373.69439 200.065237 
L -3365.646313 199.459483 
L -3357.598236 198.898207 
L -3349.550159 198.246936 
L -3341.502082 197.606712 
L -3333.454005 196.982244 
L -3325.405929 196.347087 
L -3317.357852 195.693286 
L -3309.309775 195.0118 
L -3301.261698 194.368684 
L -3293.213621 193.639679 
L -3285.165544 192.990636 
L -3277.117467 192.240278 
L -3269.06939 191.510423 
L -3261.021313 190.795326 
L -3252.973236 190.105916 
L -3244.925159 189.310889 
L -3236.877082 188.585444 
L -3228.829005 187.67961 
L -3220.780929 186.889967 
L -3212.732852 186.148171 
L -3204.684775 185.31785 
L -3196.636698 184.466348 
L -3188.588621 183.494841 
L -3180.540544 182.577656 
L -3172.492467 181.797572 
L -3164.44439 180.60665 
L -3156.396313 179.631541 
L -3148.348236 178.63412 
L -3140.300159 177.599492 
L -3132.252082 176.430615 
L -3124.204005 175.322314 
L -3116.155929 174.457579 
L -3108.107852 173.486237 
L -3100.059775 171.914376 
L -3092.011698 170.618662 
L -3083.963621 169.81151 
L -3075.915544 168.440659 
L -3067.867467 167.440952 
L -3059.81939 166.512966 
L -3051.771313 165.221959 
L -3043.723236 163.464406 
L -3035.675159 162.387399 
L -3027.627082 161.780412 
L -3019.579005 160.470409 
L -3011.530929 159.971277 
L -3003.482852 159.108287 
L -2995.434775 157.550467 
L -2987.386698 157.557465 
L -2979.338621 158.04426 
L -2971.290544 159.19548 
L -2963.242467 157.686491 
L -2955.19439 160.382703 
L -2947.146313 160.910579 
L -2939.098236 157.059486 
L -2931.050159 158.038653 
L -2923.002082 159.623449 
L -2914.954005 158.564447 
L -2906.905929 158.291154 
L -2898.857852 165.374414 
L -2890.809775 175.4778 
L -2882.761698 180.482543 
L -2874.713621 169.403786 
L -2866.665544 175.032993 
L -2858.617467 182.424853 
L -2850.56939 181.961487 
L -2842.521313 197.050507 
L -2834.473236 194.96509 
L -2826.425159 190.323139 
L -2818.377082 178.851519 
L -2810.329005 189.612255 
L -2802.280929 196.080714 
L -2794.232852 193.367339 
L -2786.184775 195.051792 
L -2778.136698 201.161666 
L -2770.088621 200.345001 
L -2762.040544 195.074334 
L -2753.992467 201.694598 
L -2745.94439 203.006418 
L -2737.896313 200.64059 
L -2729.848236 204.841868 
L -2721.800159 206.375695 
L -2713.752082 205.958327 
L -2705.704005 204.680106 
L -2697.655929 206.057228 
L -2689.607852 204.642391 
L -2681.559775 204.759081 
L -2673.511698 206.06806 
L -2665.463621 204.822206 
L -2657.415544 205.457422 
L -2649.367467 205.483658 
L -2641.31939 204.472124 
L -2633.271313 204.828979 
L -2625.223236 203.372952 
L -2617.175159 203.455261 
L -2609.127082 203.840094 
L -2601.079005 203.845375 
L -2593.030929 203.122429 
L -2584.982852 202.499653 
L -2576.934775 202.324672 
L -2568.886698 201.635048 
L -2560.838621 201.50321 
L -2552.790544 201.348298 
L -2544.742467 200.308885 
L -2536.69439 200.75093 
L -2528.646313 200.050739 
L -2520.598236 199.727321 
L -2512.550159 199.709773 
L -2504.502082 199.020728 
L -2496.454005 198.821279 
L -2488.405929 199.004946 
L -2480.357852 199.328406 
L -2472.309775 198.225895 
L -2464.261698 198.007517 
L -2456.213621 197.620218 
L -2448.165544 199.427525 
L -2440.117467 199.436747 
L -2432.06939 200.115963 
L -2424.021313 198.323711 
L -2415.973236 197.207188 
L -2407.925159 197.519824 
L -2399.877082 198.706308 
L -2391.829005 198.881624 
L -2383.780929 196.720019 
L -2375.732852 198.494445 
L -2367.684775 198.016184 
L -2359.636698 197.692627 
L -2351.588621 196.680652 
L -2343.540544 197.455379 
L -2335.492467 196.950254 
L -2327.44439 197.374136 
L -2319.396313 196.706618 
L -2311.348236 196.172226 
L -2303.300159 195.231524 
L -2295.252082 194.765068 
L -2287.204005 194.336186 
L -2279.155929 193.758455 
L -2271.107852 193.607324 
L -2263.059775 193.071404 
L -2255.011698 192.49813 
L -2246.963621 191.034861 
L -2238.915544 189.914797 
L -2230.867467 189.392936 
L -2222.81939 188.171182 
L -2214.771313 187.902592 
L -2206.723236 186.829097 
L -2198.675159 185.263705 
L -2190.627082 183.952719 
L -2182.579005 182.953256 
L -2174.530929 181.332359 
L -2166.482852 180.326435 
L -2158.434775 178.878957 
L -2150.386698 177.595848 
L -2142.338621 175.990664 
L -2134.290544 174.661773 
L -2126.242467 172.866638 
L -2118.19439 171.445952 
L -2110.146313 169.904712 
L -2102.098236 167.866022 
L -2094.050159 165.964725 
L -2086.002082 164.572963 
L -2077.954005 162.894098 
L -2069.905929 160.844675 
L -2061.857852 159.222305 
L -2053.809775 157.252067 
L -2045.761698 154.451742 
L -2037.713621 153.279723 
L -2029.665544 151.004611 
L -2021.617467 149.216293 
L -2013.56939 147.182825 
L -2005.521313 144.982034 
L -1997.473236 142.707625 
L -1989.425159 140.63557 
L -1981.377082 137.864634 
L -1973.329005 136.203542 
L -1965.280929 133.62045 
L -1957.232852 131.944217 
L -1949.184775 129.297604 
L -1941.136698 126.74281 
L -1933.088621 124.380427 
L -1925.040544 122.493324 
L -1916.992467 119.438841 
L -1908.94439 117.362764 
L -1900.896313 114.680247 
L -1892.848236 112.554755 
L -1884.800159 109.810705 
L -1876.752082 107.401009 
L -1868.704005 107.028963 
L -1860.655929 102.364177 
L -1852.607852 101.555258 
L -1844.559775 98.654297 
L -1836.511698 96.650282 
L -1828.463621 94.294109 
L -1820.415544 91.83584 
L -1812.367467 89.679008 
L -1804.31939 87.593747 
L -1796.271313 85.627388 
L -1788.223236 83.649446 
L -1780.175159 85.046037 
L -1772.127082 79.340824 
L -1764.079005 77.862619 
L -1756.030929 82.395056 
L -1747.982852 75.524655 
L -1739.934775 76.572507 
L -1731.886698 75.740652 
L -1723.838621 72.123434 
L -1715.790544 72.641225 
L -1707.742467 75.989086 
L -1699.69439 73.382375 
L -1691.646313 72.141526 
L -1683.598236 74.201901 
L -1675.550159 73.323227 
L -1667.502082 74.716657 
L -1659.454005 76.634421 
L -1651.405929 79.9665 
L -1643.357852 87.791273 
L -1635.309775 85.914581 
L -1627.261698 90.128523 
L -1619.213621 93.608399 
L -1611.165544 95.451723 
L -1603.117467 99.903505 
L -1595.06939 103.690848 
L -1587.021313 97.238877 
L -1578.973236 104.312111 
L -1570.925159 113.216624 
L -1562.877082 117.542522 
L -1554.829005 119.553858 
L -1546.780929 131.327419 
L -1538.732852 132.333276 
L -1530.684775 135.585982 
L -1522.636698 134.787149 
L -1514.588621 144.729996 
L -1506.540544 141.724444 
L -1498.492467 140.041367 
L -1490.44439 148.537879 
L -1482.396313 154.585663 
L -1474.348236 154.11101 
L -1466.300159 157.720531 
L -1458.252082 158.928708 
L -1450.204005 159.196534 
L -1442.155929 159.245234 
L -1434.107852 161.268346 
L -1426.059775 162.432268 
L -1418.011698 168.618919 
L -1409.963621 165.527134 
L -1401.915544 170.921171 
L -1393.867467 169.770939 
L -1385.81939 169.103403 
L -1377.771313 171.319961 
L -1369.723236 173.30145 
L -1361.675159 170.916302 
L -1353.627082 172.173249 
L -1345.579005 172.307605 
L -1337.530929 175.263017 
L -1329.482852 173.88337 
L -1321.434775 173.266899 
L -1313.386698 174.150319 
L -1305.338621 175.592005 
L -1297.290544 174.952734 
L -1289.242467 173.610738 
L -1281.19439 174.430699 
L -1273.146313 172.365713 
L -1265.098236 172.623919 
L -1257.050159 176.115303 
L -1249.002082 175.938074 
L -1240.954005 174.010194 
L -1232.905929 173.54852 
L -1224.857852 173.790849 
L -1216.809775 171.699124 
L -1208.761698 172.218862 
L -1200.713621 172.220376 
L -1192.665544 171.780722 
L -1184.617467 171.219968 
L -1176.56939 169.926652 
L -1168.521313 170.700918 
L -1160.473236 169.833938 
L -1152.425159 169.650276 
L -1144.377082 169.193305 
L -1136.329005 169.255813 
L -1128.280929 168.26823 
L -1120.232852 166.475829 
L -1112.184775 166.405302 
L -1104.136698 164.949093 
L -1096.088621 162.845839 
L -1088.040544 164.411039 
L -1079.992467 161.54284 
L -1071.94439 162.764702 
L -1063.896313 162.234278 
L -1055.848236 162.457106 
L -1047.800159 160.624213 
L -1039.752082 160.510101 
L -1031.704005 160.264612 
L -1023.655929 157.979806 
L -1015.607852 158.573335 
L -1007.559775 158.386589 
L -999.511698 158.309395 
L -991.463621 157.227935 
L -983.415544 157.754985 
L -975.367467 156.641896 
L -967.31939 155.578866 
L -959.271313 153.894916 
L -951.223236 153.366247 
L -943.175159 153.020594 
L -935.127082 151.85132 
L -927.079005 152.04123 
L -919.030929 151.478187 
L -910.982852 150.44136 
L -902.934775 150.498219 
L -894.886698 149.321007 
L -886.838621 150.329883 
L -878.790544 149.517282 
L -870.742467 149.57571 
L -862.69439 148.112636 
L -854.646313 146.106509 
L -846.598236 147.84528 
L -838.550159 147.806811 
L -830.502082 147.167413 
L -822.454005 146.50402 
L -814.405929 145.112963 
L -806.357852 144.812653 
L -798.309775 144.056877 
L -790.261698 144.191517 
L -782.213621 143.917445 
L -774.165544 142.592725 
L -766.117467 140.705098 
L -758.06939 143.195049 
L -750.021313 142.623821 
L -741.973236 141.027171 
L -733.925159 142.073896 
L -725.877082 139.202362 
L -717.829005 139.575826 
L -709.780929 139.782093 
L -701.732852 137.846266 
L -693.684775 141.206695 
L -685.636698 137.892058 
L -677.588621 136.225326 
L -669.540544 138.441966 
L -661.492467 139.074244 
L -653.44439 138.05339 
L -645.396313 138.950663 
L -637.348236 137.469324 
L -629.300159 140.517446 
L -621.252082 139.067095 
L -613.204005 139.756093 
L -605.155929 137.796724 
L -597.107852 136.054839 
L -589.059775 138.464304 
L -581.011698 142.719645 
L -572.963621 138.066871 
L -564.915544 138.424869 
L -556.867467 136.745596 
L -548.81939 137.674045 
L -540.771313 137.530433 
L -532.723236 136.525684 
L -524.675159 136.202277 
L -516.627082 138.312521 
L -508.579005 137.335888 
L -500.530929 139.263235 
L -492.482852 139.682224 
L -484.434775 134.369515 
L -476.386698 136.654021 
L -468.338621 136.903672 
L -460.290544 137.332534 
L -452.242467 137.713377 
L -444.19439 141.203862 
L -436.146313 142.617608 
L -428.098236 142.494138 
L -420.050159 146.317091 
L -412.002082 152.627258 
L -403.954005 145.158467 
L -395.905929 145.087657 
L -387.857852 145.25506 
L -379.809775 147.752834 
L -371.761698 148.328193 
L -363.713621 148.315824 
L -355.665544 153.736898 
L -347.617467 155.735691 
L -339.56939 149.583534 
L -331.521313 155.159266 
L -323.473236 152.417478 
L -315.425159 150.719224 
L -307.377082 157.50838 
L -299.329005 156.178759 
L -291.280929 160.578236 
L -283.232852 159.276385 
L -275.184775 156.356351 
L -267.136698 159.141354 
L -259.088621 159.195488 
L -251.040544 161.940388 
L -242.992467 160.305427 
L -234.94439 164.805245 
L -226.896313 161.676379 
L -218.848236 164.082808 
L -210.800159 163.67108 
L -202.752082 166.312446 
L -194.704005 162.208996 
L -186.655929 166.721021 
L -178.607852 166.529542 
L -170.559775 169.628682 
L -162.511698 171.289663 
L -154.463621 171.353379 
L -146.415544 170.6273 
L -138.367467 172.638193 
L -130.31939 174.149202 
L -122.271313 172.897953 
L -114.223236 172.455078 
L -106.175159 174.219116 
L -98.127082 175.822427 
L -90.079005 173.160572 
L -82.030929 171.634792 
L -73.982852 177.852243 
L -65.934775 180.680906 
L -57.886698 174.381742 
L -49.838621 176.267249 
L -41.790544 177.222132 
L -33.742467 177.696179 
L -25.69439 180.884909 
L -17.646313 180.478496 
L -9.598236 179.187993 
L -1.550159 180.564433 
L 6.497918 180.930109 
L 14.545995 177.511448 
L 22.594071 179.222239 
L 30.642148 178.145845 
L 38.690225 182.841377 
L 46.738302 188.623335 
L 54.786379 187.754145 
L 62.834456 183.113799 
L 70.882533 182.586029 
L 78.93061 183.190524 
L 86.978687 183.373992 
L 95.026764 187.644178 
L 103.074841 182.134886 
L 111.122918 187.876299 
L 119.170995 192.476989 
L 127.219071 188.562333 
L 135.267148 194.484568 
L 143.315225 190.709875 
L 151.363302 193.915412 
L 159.411379 191.734449 
L 167.459456 193.294078 
L 175.507533 196.465103 
L 183.55561 196.211842 
L 191.603687 197.155804 
L 199.651764 197.382678 
L 207.699841 197.700689 
L 215.747918 189.891085 
L 223.795995 199.948172 
L 231.844071 204.079222 
L 239.892148 200.065914 
L 247.940225 203.720476 
L 255.988302 204.540985 
L 264.036379 202.472096 
L 272.084456 206.618753 
L 280.132533 209.432928 
L 288.18061 207.839645 
L 296.228687 208.957993 
L 304.276764 209.621817 
L 312.324841 210.661521 
L 320.372918 213.855161 
L 328.420995 207.539033 
L 336.469071 215.576893 
L 344.517148 215.886749 
L 352.565225 216.33642 
L 360.613302 211.505211 
L 368.661379 217.625036 
L 376.709456 221.748186 
L 384.757533 217.822614 
L 392.80561 218.439008 
L 400.853687 224.203023 
L 408.901764 214.602023 
L 416.949841 223.882363 
L 424.997918 218.351474 
L 433.045995 226.530405 
L 441.094071 223.025329 
L 449.142148 226.710311 
L 457.190225 228.035178 
L 465.238302 229.78261 
L 473.286379 230.479584 
L 481.334456 228.592928 
L 489.382533 228.924207 
L 497.43061 230.271174 
L 505.478687 235.081306 
L 513.526764 234.946066 
L 521.574841 234.803422 
L 529.622918 239.215018 
L 537.670995 239.728586 
L 545.719071 236.649575 
L 553.767148 236.834903 
L 561.815225 247.865807 
L 569.863302 249.370425 
L 577.911379 252.425583 
L 585.959456 246.443562 
L 594.007533 235.515769 
L 602.05561 248.290361 
L 610.103687 244.564934 
L 618.151764 249.102557 
L 626.199841 255.121505 
L 634.247918 248.114305 
L 642.295995 258.377485 
L 650.344071 250.863899 
L 658.392148 251.097054 
L 666.440225 252.415068 
L 674.488302 258.76619 
L 682.536379 258.666782 
L 690.584456 257.99214 
L 698.632533 252.374374 
L 706.68061 256.276499 
L 714.728687 259.335287 
L 722.776764 257.182151 
L 730.824841 262.469319 
L 738.872918 259.226747 
L 746.920995 262.85043 
L 754.969071 268.361556 
L 763.017148 268.147441 
L 771.065225 263.745045 
L 779.113302 264.402095 
L 787.161379 264.041186 
L 795.209456 266.849104 
L 803.257533 267.337629 
L 811.30561 259.798121 
L 819.353687 266.671796 
L 827.401764 237.641266 
L 835.449841 267.554985 
L 843.497918 270.614533 
L 851.545995 265.617124 
L 859.594071 260.351704 
L 867.642148 271.843906 
L 875.690225 267.344407 
L 883.738302 259.166611 
L 891.786379 265.107133 
L 899.834456 265.708698 
L 907.882533 263.808384 
L 915.93061 269.422318 
L 923.978687 265.997941 
L 932.026764 268.368935 
L 940.074841 269.977238 
L 940.074841 240.742249 
L 940.074841 240.742249 
L 932.026764 244.049934 
L 923.978687 242.500103 
L 915.93061 243.889187 
L 907.882533 241.486953 
L 899.834456 242.390167 
L 891.786379 241.27021 
L 883.738302 241.755544 
L 875.690225 244.317579 
L 867.642148 244.609485 
L 859.594071 242.602683 
L 851.545995 242.943219 
L 843.497918 245.729514 
L 835.449841 243.657467 
L 827.401764 229.193235 
L 819.353687 244.220446 
L 811.30561 242.990939 
L 803.257533 244.457685 
L 795.209456 244.416888 
L 787.161379 243.660886 
L 779.113302 244.464209 
L 771.065225 244.279903 
L 763.017148 245.499847 
L 754.969071 245.648185 
L 746.920995 244.543824 
L 738.872918 243.539603 
L 730.824841 243.991662 
L 722.776764 242.142787 
L 714.728687 242.646877 
L 706.68061 242.1349 
L 698.632533 241.01237 
L 690.584456 242.947836 
L 682.536379 243.106279 
L 674.488302 243.728935 
L 666.440225 240.867561 
L 658.392148 240.928339 
L 650.344071 241.108856 
L 642.295995 243.231506 
L 634.247918 239.947462 
L 626.199841 242.247515 
L 618.151764 240.136497 
L 610.103687 238.741955 
L 602.05561 239.892637 
L 594.007533 231.086268 
L 585.959456 239.062058 
L 577.911379 241.484112 
L 569.863302 240.425719 
L 561.815225 239.680357 
L 553.767148 233.877375 
L 545.719071 234.22101 
L 537.670995 237.091294 
L 529.622918 236.673684 
L 521.574841 231.331629 
L 513.526764 231.585852 
L 505.478687 230.977153 
L 497.43061 223.977389 
L 489.382533 217.720354 
L 481.334456 216.273415 
L 473.286379 221.639045 
L 465.238302 219.997443 
L 457.190225 216.74868 
L 449.142148 213.407333 
L 441.094071 202.710224 
L 433.045995 213.27576 
L 424.997918 185.79502 
L 416.949841 204.339072 
L 408.901764 178.185626 
L 400.853687 206.477587 
L 392.80561 190.80629 
L 384.757533 190.489645 
L 376.709456 198.545892 
L 368.661379 189.037925 
L 360.613302 171.691482 
L 352.565225 184.385576 
L 344.517148 184.118999 
L 336.469071 183.586721 
L 328.420995 163.345274 
L 320.372918 173.391913 
L 312.324841 170.983327 
L 304.276764 169.584446 
L 296.228687 167.352992 
L 288.18061 163.123221 
L 280.132533 167.278694 
L 272.084456 159.796036 
L 264.036379 150.463258 
L 255.988302 158.169622 
L 247.940225 152.031445 
L 239.892148 146.561782 
L 231.844071 155.460589 
L 223.795995 145.75583 
L 215.747918 120.837636 
L 207.699841 138.995866 
L 199.651764 138.257029 
L 191.603687 138.285042 
L 183.55561 136.052928 
L 175.507533 136.129409 
L 167.459456 129.309067 
L 159.411379 126.487092 
L 151.363302 131.686554 
L 143.315225 121.792352 
L 135.267148 131.848043 
L 127.219071 118.112205 
L 119.170995 125.942675 
L 111.122918 116.774013 
L 103.074841 105.414172 
L 95.026764 115.73318 
L 86.978687 105.781096 
L 78.93061 106.405688 
L 70.882533 105.905783 
L 62.834456 106.804488 
L 54.786379 116.104166 
L 46.738302 118.266694 
L 38.690225 106.947673 
L 30.642148 95.343076 
L 22.594071 98.477141 
L 14.545995 96.05929 
L 6.497918 103.19796 
L -1.550159 102.350101 
L -9.598236 99.337922 
L -17.646313 102.995725 
L -25.69439 102.592536 
L -33.742467 96.616109 
L -41.790544 97.20812 
L -49.838621 94.823032 
L -57.886698 91.911471 
L -65.934775 105.043719 
L -73.982852 97.476359 
L -82.030929 87.145819 
L -90.079005 91.924549 
L -98.127082 96.182512 
L -106.175159 93.172649 
L -114.223236 90.829519 
L -122.271313 92.450616 
L -130.31939 96.953131 
L -138.367467 91.823898 
L -146.415544 89.86376 
L -154.463621 91.795546 
L -162.511698 88.537485 
L -170.559775 89.431412 
L -178.607852 82.988796 
L -186.655929 85.173555 
L -194.704005 77.339246 
L -202.752082 83.876567 
L -210.800159 80.634916 
L -218.848236 82.379072 
L -226.896313 80.158263 
L -234.94439 84.118382 
L -242.992467 77.091656 
L -251.040544 81.359176 
L -259.088621 76.905676 
L -267.136698 77.673355 
L -275.184775 74.1764 
L -283.232852 75.931439 
L -291.280929 80.816692 
L -299.329005 76.006308 
L -307.377082 77.139966 
L -315.425159 67.720687 
L -323.473236 72.046441 
L -331.521313 74.240946 
L -339.56939 66.996286 
L -347.617467 75.077791 
L -355.665544 75.713175 
L -363.713621 66.551815 
L -371.761698 66.727727 
L -379.809775 66.098636 
L -387.857852 62.812109 
L -395.905929 65.108929 
L -403.954005 64.297223 
L -412.002082 75.093974 
L -420.050159 67.670621 
L -428.098236 62.192069 
L -436.146313 62.351526 
L -444.19439 60.751612 
L -452.242467 57.44273 
L -460.290544 58.634879 
L -468.338621 56.403204 
L -476.386698 58.912838 
L -484.434775 55.654487 
L -492.482852 61.808181 
L -500.530929 62.614855 
L -508.579005 61.167912 
L -516.627082 62.511672 
L -524.675159 60.120478 
L -532.723236 61.91176 
L -540.771313 62.929322 
L -548.81939 65.776591 
L -556.867467 63.390749 
L -564.915544 66.581372 
L -572.963621 65.869455 
L -581.011698 71.877806 
L -589.059775 67.715376 
L -597.107852 65.467295 
L -605.155929 68.001838 
L -613.204005 69.116823 
L -621.252082 69.144334 
L -629.300159 72.604089 
L -637.348236 69.495202 
L -645.396313 71.80164 
L -653.44439 70.599311 
L -661.492467 71.10091 
L -669.540544 70.016849 
L -677.588621 68.460681 
L -685.636698 71.227807 
L -693.684775 74.933637 
L -701.732852 71.020416 
L -709.780929 73.158586 
L -717.829005 72.131411 
L -725.877082 73.324642 
L -733.925159 76.173401 
L -741.973236 75.113579 
L -750.021313 77.407411 
L -758.06939 77.961337 
L -766.117467 75.223693 
L -774.165544 76.719409 
L -782.213621 78.393014 
L -790.261698 78.946177 
L -798.309775 78.793204 
L -806.357852 79.954558 
L -814.405929 79.67209 
L -822.454005 81.431845 
L -830.502082 81.855018 
L -838.550159 82.179143 
L -846.598236 82.499841 
L -854.646313 79.109098 
L -862.69439 82.649715 
L -870.742467 84.003199 
L -878.790544 83.486309 
L -886.838621 83.494435 
L -894.886698 83.404922 
L -902.934775 84.351833 
L -910.982852 83.88206 
L -919.030929 85.356128 
L -927.079005 85.786092 
L -935.127082 85.270616 
L -943.175159 85.717716 
L -951.223236 86.367483 
L -959.271313 87.041497 
L -967.31939 89.666849 
L -975.367467 90.163881 
L -983.415544 91.348276 
L -991.463621 90.495336 
L -999.511698 91.623622 
L -1007.559775 91.572657 
L -1015.607852 91.791811 
L -1023.655929 90.187812 
L -1031.704005 93.927712 
L -1039.752082 94.078763 
L -1047.800159 94.14382 
L -1055.848236 96.306175 
L -1063.896313 95.940587 
L -1071.94439 96.719085 
L -1079.992467 95.316725 
L -1088.040544 98.357986 
L -1096.088621 97.187083 
L -1104.136698 100.109526 
L -1112.184775 102.124146 
L -1120.232852 102.551817 
L -1128.280929 105.134125 
L -1136.329005 107.105991 
L -1144.377082 106.808209 
L -1152.425159 107.934473 
L -1160.473236 108.10022 
L -1168.521313 109.648592 
L -1176.56939 108.925668 
L -1184.617467 111.172595 
L -1192.665544 112.802119 
L -1200.713621 113.686632 
L -1208.761698 114.133661 
L -1216.809775 114.451952 
L -1224.857852 116.918661 
L -1232.905929 117.359461 
L -1240.954005 118.821305 
L -1249.002082 121.066497 
L -1257.050159 121.669947 
L -1265.098236 119.338763 
L -1273.146313 119.841809 
L -1281.19439 122.343527 
L -1289.242467 122.503816 
L -1297.290544 124.186228 
L -1305.338621 125.366665 
L -1313.386698 124.520398 
L -1321.434775 125.198762 
L -1329.482852 126.087096 
L -1337.530929 127.786453 
L -1345.579005 125.641251 
L -1353.627082 126.406003 
L -1361.675159 126.301037 
L -1369.723236 128.784399 
L -1377.771313 128.358509 
L -1385.81939 126.81704 
L -1393.867467 128.094479 
L -1401.915544 129.415839 
L -1409.963621 125.58951 
L -1418.011698 128.929777 
L -1426.059775 124.457074 
L -1434.107852 124.18915 
L -1442.155929 123.239728 
L -1450.204005 124.216118 
L -1458.252082 124.460988 
L -1466.300159 123.873841 
L -1474.348236 121.729765 
L -1482.396313 123.308114 
L -1490.44439 118.35912 
L -1498.492467 113.483832 
L -1506.540544 114.688981 
L -1514.588621 117.265262 
L -1522.636698 110.745239 
L -1530.684775 110.959599 
L -1538.732852 109.331807 
L -1546.780929 108.828099 
L -1554.829005 99.407527 
L -1562.877082 98.601955 
L -1570.925159 95.132326 
L -1578.973236 87.737358 
L -1587.021313 82.458955 
L -1595.06939 88.186717 
L -1603.117467 85.49453 
L -1611.165544 80.860316 
L -1619.213621 78.810356 
L -1627.261698 75.423268 
L -1635.309775 71.028588 
L -1643.357852 73.222524 
L -1651.405929 64.909356 
L -1659.454005 61.868482 
L -1667.502082 59.806517 
L -1675.550159 58.539063 
L -1683.598236 59.447428 
L -1691.646313 57.384699 
L -1699.69439 58.739621 
L -1707.742467 61.628551 
L -1715.790544 58.575748 
L -1723.838621 58.095641 
L -1731.886698 62.010305 
L -1739.934775 62.963613 
L -1747.982852 62.165041 
L -1756.030929 69.12036 
L -1764.079005 64.961567 
L -1772.127082 66.411561 
L -1780.175159 72.465737 
L -1788.223236 70.903143 
L -1796.271313 72.811608 
L -1804.31939 74.613386 
L -1812.367467 76.561489 
L -1820.415544 78.72613 
L -1828.463621 81.007533 
L -1836.511698 83.217203 
L -1844.559775 85.092892 
L -1852.607852 87.690365 
L -1860.655929 88.353543 
L -1868.704005 92.89414 
L -1876.752082 93.066665 
L -1884.800159 95.400433 
L -1892.848236 97.993844 
L -1900.896313 99.972 
L -1908.94439 102.430789 
L -1916.992467 104.364377 
L -1925.040544 107.163573 
L -1933.088621 108.866568 
L -1941.136698 110.93935 
L -1949.184775 113.364548 
L -1957.232852 115.836258 
L -1965.280929 117.357833 
L -1973.329005 119.74466 
L -1981.377082 121.383925 
L -1989.425159 123.835542 
L -1997.473236 125.743652 
L -2005.521313 127.641025 
L -2013.56939 129.737328 
L -2021.617467 131.599925 
L -2029.665544 133.188397 
L -2037.713621 135.23613 
L -2045.761698 136.293489 
L -2053.809775 138.812829 
L -2061.857852 140.524811 
L -2069.905929 142.037251 
L -2077.954005 143.8775 
L -2086.002082 145.015615 
L -2094.050159 146.650494 
L -2102.098236 148.326628 
L -2110.146313 150.169398 
L -2118.19439 151.585363 
L -2126.242467 152.979286 
L -2134.290544 154.497167 
L -2142.338621 155.95844 
L -2150.386698 157.529851 
L -2158.434775 158.788865 
L -2166.482852 160.157086 
L -2174.530929 161.278336 
L -2182.579005 162.827051 
L -2190.627082 163.949629 
L -2198.675159 165.220069 
L -2206.723236 166.798586 
L -2214.771313 167.896204 
L -2222.81939 168.228792 
L -2230.867467 169.531883 
L -2238.915544 170.206789 
L -2246.963621 171.464435 
L -2255.011698 172.925346 
L -2263.059775 173.685052 
L -2271.107852 174.398448 
L -2279.155929 174.554669 
L -2287.204005 175.304546 
L -2295.252082 175.758973 
L -2303.300159 176.248753 
L -2311.348236 177.301612 
L -2319.396313 177.922394 
L -2327.44439 178.807032 
L -2335.492467 178.333423 
L -2343.540544 178.831453 
L -2351.588621 178.082038 
L -2359.636698 179.306865 
L -2367.684775 179.513045 
L -2375.732852 180.417797 
L -2383.780929 178.57555 
L -2391.829005 180.872197 
L -2399.877082 180.723814 
L -2407.925159 179.462496 
L -2415.973236 179.17398 
L -2424.021313 180.384085 
L -2432.06939 182.44523 
L -2440.117467 181.702122 
L -2448.165544 181.704648 
L -2456.213621 179.716755 
L -2464.261698 179.741245 
L -2472.309775 180.374972 
L -2480.357852 181.665583 
L -2488.405929 181.30701 
L -2496.454005 181.096972 
L -2504.502082 181.340726 
L -2512.550159 182.148699 
L -2520.598236 182.016962 
L -2528.646313 182.544026 
L -2536.69439 183.390047 
L -2544.742467 182.865919 
L -2552.790544 184.070814 
L -2560.838621 184.28853 
L -2568.886698 184.466131 
L -2576.934775 185.238236 
L -2584.982852 185.457503 
L -2593.030929 186.307225 
L -2601.079005 187.230921 
L -2609.127082 187.275516 
L -2617.175159 186.945404 
L -2625.223236 186.716635 
L -2633.271313 188.633071 
L -2641.31939 188.33466 
L -2649.367467 189.630717 
L -2657.415544 189.681506 
L -2665.463621 189.222572 
L -2673.511698 190.504742 
L -2681.559775 189.365577 
L -2689.607852 189.452719 
L -2697.655929 191.07332 
L -2705.704005 189.955155 
L -2713.752082 191.487965 
L -2721.800159 191.999012 
L -2729.848236 190.759071 
L -2737.896313 186.751708 
L -2745.94439 189.363777 
L -2753.992467 188.159499 
L -2762.040544 182.187632 
L -2770.088621 187.338606 
L -2778.136698 188.424961 
L -2786.184775 182.909729 
L -2794.232852 181.428344 
L -2802.280929 184.445863 
L -2810.329005 178.469954 
L -2818.377082 168.261664 
L -2826.425159 179.649302 
L -2834.473236 184.289016 
L -2842.521313 186.62028 
L -2850.56939 172.345097 
L -2858.617467 173.015957 
L -2866.665544 166.008943 
L -2874.713621 160.49621 
L -2882.761698 171.883311 
L -2890.809775 167.126163 
L -2898.857852 157.236574 
L -2906.905929 150.250803 
L -2914.954005 150.807853 
L -2923.002082 152.172332 
L -2931.050159 150.792581 
L -2939.098236 150.03059 
L -2947.146313 154.261605 
L -2955.19439 153.900099 
L -2963.242467 151.378638 
L -2971.290544 153.157074 
L -2979.338621 152.195944 
L -2987.386698 151.924416 
L -2995.434775 152.19894 
L -3003.482852 153.95058 
L -3011.530929 155.061632 
L -3019.579005 155.757999 
L -3027.627082 157.303473 
L -3035.675159 158.10791 
L -3043.723236 159.382046 
L -3051.771313 161.294213 
L -3059.81939 162.861361 
L -3067.867467 163.94958 
L -3075.915544 165.14245 
L -3083.963621 166.661524 
L -3092.011698 167.671704 
L -3100.059775 169.127346 
L -3108.107852 170.864484 
L -3116.155929 171.941017 
L -3124.204005 172.721341 
L -3132.252082 173.824987 
L -3140.300159 174.955558 
L -3148.348236 175.984476 
L -3156.396313 176.969126 
L -3164.44439 177.920159 
L -3172.492467 179.183024 
L -3180.540544 179.886046 
L -3188.588621 180.825571 
L -3196.636698 181.811864 
L -3204.684775 182.664475 
L -3212.732852 183.494067 
L -3220.780929 184.198127 
L -3228.829005 184.959356 
L -3236.877082 185.933622 
L -3244.925159 186.639943 
L -3252.973236 187.449708 
L -3261.021313 188.119128 
L -3269.06939 188.852292 
L -3277.117467 189.603326 
L -3285.165544 190.356485 
L -3293.213621 190.994184 
L -3301.261698 191.73808 
L -3309.309775 192.392412 
L -3317.357852 193.091119 
L -3325.405929 193.745912 
L -3333.454005 194.412422 
L -3341.502082 195.04146 
L -3349.550159 195.703961 
L -3357.598236 196.397278 
L -3365.646313 196.9403 
L -3373.69439 197.596741 
L -3381.742467 198.173018 
L -3389.790544 198.826276 
L -3397.838621 199.32561 
L -3405.886698 199.934885 
L -3413.934775 200.519781 
L -3421.982852 201.076422 
L -3430.030929 201.636417 
L -3438.079005 202.149679 
L -3446.127082 202.745617 
L -3454.175159 203.283437 
L -3462.223236 203.729372 
L -3470.271313 204.256443 
L -3478.31939 204.783129 
L -3486.367467 205.307755 
L -3494.415544 205.815063 
L -3502.463621 206.289809 
L -3510.511698 206.81127 
L -3518.559775 207.323566 
L -3526.607852 207.839129 
L -3534.655929 208.353764 
L -3542.704005 208.882582 
L -3550.752082 209.432244 
L -3558.800159 209.909814 
L -3566.848236 210.454022 
L -3574.896313 210.989167 
L -3582.94439 211.504754 
L -3590.992467 212.036686 
L -3599.040544 212.579736 
L -3607.088621 213.108213 
L -3615.136698 213.662197 
L -3623.184775 214.170761 
L -3631.232852 214.689728 
L -3639.280929 215.237324 
L -3647.329005 215.768115 
L -3655.377082 216.274255 
L -3663.425159 216.808946 
L -3671.473236 217.300888 
L -3679.521313 217.825376 
L -3687.56939 218.382737 
L -3695.617467 218.867059 
L -3703.665544 219.405706 
L -3711.713621 219.918515 
L -3719.761698 220.45533 
L -3727.809775 220.945694 
L -3735.857852 221.513045 
L -3743.905929 221.990551 
L -3751.954005 222.521689 
L -3760.002082 223.042635 
L -3768.050159 223.576054 
L -3776.098236 224.085209 
L -3784.146313 224.603172 
L -3792.19439 225.123055 
L -3800.242467 225.658929 
L -3808.290544 226.159412 
L -3816.338621 226.638478 
L -3824.386698 227.124425 
L -3832.434775 227.609707 
L -3840.482852 228.073495 
L -3848.530929 228.539782 
L -3856.579005 229.000014 
L -3864.627082 229.440372 
L -3872.675159 229.884388 
L -3880.723236 230.325193 
L -3888.771313 230.72874 
L -3896.81939 231.137383 
L -3904.867467 231.560918 
L -3912.915544 231.962832 
L -3920.963621 232.324843 
L -3929.011698 232.719017 
L -3937.059775 233.080772 
L -3945.107852 233.415332 
L -3953.155929 233.748729 
L -3961.204005 234.061133 
L -3969.252082 234.394489 
L -3977.300159 234.673403 
L -3985.348236 234.965432 
L -3993.396313 235.240631 
L -4001.44439 235.496301 
L -4009.492467 235.730275 
L -4017.540544 235.943901 
L -4025.588621 236.155348 
L -4033.636698 236.364269 
L -4041.684775 236.539605 
L -4049.732852 236.73275 
L -4057.780929 236.898179 
L -4065.829005 237.042307 
L -4073.877082 237.208106 
L -4081.925159 237.354475 
L -4089.973236 237.477541 
L -4098.021313 237.608202 
L -4106.06939 237.735181 
L -4114.117467 237.84794 
L -4122.165544 237.960723 
L -4130.213621 238.055678 
L -4138.261698 238.167809 
L -4146.309775 238.258962 
L -4154.357852 238.353987 
L -4162.405929 238.452956 
L -4170.454005 238.535309 
L -4178.502082 238.62176 
L -4186.550159 238.731689 
L -4194.598236 238.811813 
L -4202.646313 238.907759 
L -4210.69439 238.98529 
L -4218.742467 239.085165 
L -4226.790544 239.165145 
L -4234.838621 239.248424 
L -4242.886698 239.322902 
L -4250.934775 239.390189 
L -4258.982852 239.465683 
L -4267.030929 239.546818 
L -4275.079005 239.626303 
L -4283.127082 239.69509 
L -4291.175159 239.752413 
L -4299.223236 239.830597 
L -4307.271313 239.896511 
L -4315.31939 239.974192 
z
" clip-path="url(#p81cc512ea2)" style="fill: #008000; fill-opacity: 0.3; stroke: #008000; stroke-opacity: 0.3"/>
   </g>
   <g id="matplotlib.axis_1">
    <g id="xtick_1">
     <g id="line2d_1">
      <defs>
       <path id="m306167f51f" d="M 0 0 
L 0 3.5 
" style="stroke: #000000; stroke-width: 0.8"/>
      </defs>
      <g>
       <use xlink:href="#m306167f51f" x="103.074841" y="395.28" style="stroke: #000000; stroke-width: 0.8"/>
      </g>
     </g>
     <g id="text_1">
      <!-- 2023-01-01 -->
      <g transform="translate(17.945813 495.213718) rotate(-45) scale(0.2 -0.2)">
       <defs>
        <path id="DejaVuSans-32" d="M 1228 531 
L 3431 531 
L 3431 0 
L 469 0 
L 469 531 
Q 828 903 1448 1529 
Q 2069 2156 2228 2338 
Q 2531 2678 2651 2914 
Q 2772 3150 2772 3378 
Q 2772 3750 2511 3984 
Q 2250 4219 1831 4219 
Q 1534 4219 1204 4116 
Q 875 4013 500 3803 
L 500 4441 
Q 881 4594 1212 4672 
Q 1544 4750 1819 4750 
Q 2544 4750 2975 4387 
Q 3406 4025 3406 3419 
Q 3406 3131 3298 2873 
Q 3191 2616 2906 2266 
Q 2828 2175 2409 1742 
Q 1991 1309 1228 531 
z
" transform="scale(0.015625)"/>
        <path id="DejaVuSans-30" d="M 2034 4250 
Q 1547 4250 1301 3770 
Q 1056 3291 1056 2328 
Q 1056 1369 1301 889 
Q 1547 409 2034 409 
Q 2525 409 2770 889 
Q 3016 1369 3016 2328 
Q 3016 3291 2770 3770 
Q 2525 4250 2034 4250 
z
M 2034 4750 
Q 2819 4750 3233 4129 
Q 3647 3509 3647 2328 
Q 3647 1150 3233 529 
Q 2819 -91 2034 -91 
Q 1250 -91 836 529 
Q 422 1150 422 2328 
Q 422 3509 836 4129 
Q 1250 4750 2034 4750 
z
" transform="scale(0.015625)"/>
        <path id="DejaVuSans-33" d="M 2597 2516 
Q 3050 2419 3304 2112 
Q 3559 1806 3559 1356 
Q 3559 666 3084 287 
Q 2609 -91 1734 -91 
Q 1441 -91 1130 -33 
Q 819 25 488 141 
L 488 750 
Q 750 597 1062 519 
Q 1375 441 1716 441 
Q 2309 441 2620 675 
Q 2931 909 2931 1356 
Q 2931 1769 2642 2001 
Q 2353 2234 1838 2234 
L 1294 2234 
L 1294 2753 
L 1863 2753 
Q 2328 2753 2575 2939 
Q 2822 3125 2822 3475 
Q 2822 3834 2567 4026 
Q 2313 4219 1838 4219 
Q 1578 4219 1281 4162 
Q 984 4106 628 3988 
L 628 4550 
Q 988 4650 1302 4700 
Q 1616 4750 1894 4750 
Q 2613 4750 3031 4423 
Q 3450 4097 3450 3541 
Q 3450 3153 3228 2886 
Q 3006 2619 2597 2516 
z
" transform="scale(0.015625)"/>
        <path id="DejaVuSans-2d" d="M 313 2009 
L 1997 2009 
L 1997 1497 
L 313 1497 
L 313 2009 
z
" transform="scale(0.015625)"/>
        <path id="DejaVuSans-31" d="M 794 531 
L 1825 531 
L 1825 4091 
L 703 3866 
L 703 4441 
L 1819 4666 
L 2450 4666 
L 2450 531 
L 3481 531 
L 3481 0 
L 794 0 
L 794 531 
z
" transform="scale(0.015625)"/>
       </defs>
       <use xlink:href="#DejaVuSans-32"/>
       <use xlink:href="#DejaVuSans-30" x="63.623047"/>
       <use xlink:href="#DejaVuSans-32" x="127.246094"/>
       <use xlink:href="#DejaVuSans-33" x="190.869141"/>
       <use xlink:href="#DejaVuSans-2d" x="254.492188"/>
       <use xlink:href="#DejaVuSans-30" x="290.576172"/>
       <use xlink:href="#DejaVuSans-31" x="354.199219"/>
       <use xlink:href="#DejaVuSans-2d" x="417.822266"/>
       <use xlink:href="#DejaVuSans-30" x="453.90625"/>
       <use xlink:href="#DejaVuSans-31" x="517.529297"/>
      </g>
     </g>
    </g>
    <g id="xtick_2">
     <g id="line2d_2">
      <g>
       <use xlink:href="#m306167f51f" x="215.747918" y="395.28" style="stroke: #000000; stroke-width: 0.8"/>
      </g>
     </g>
     <g id="text_2">
      <!-- 2023-01-15 -->
      <g transform="translate(130.61889 495.213718) rotate(-45) scale(0.2 -0.2)">
       <defs>
        <path id="DejaVuSans-35" d="M 691 4666 
L 3169 4666 
L 3169 4134 
L 1269 4134 
L 1269 2991 
Q 1406 3038 1543 3061 
Q 1681 3084 1819 3084 
Q 2600 3084 3056 2656 
Q 3513 2228 3513 1497 
Q 3513 744 3044 326 
Q 2575 -91 1722 -91 
Q 1428 -91 1123 -41 
Q 819 9 494 109 
L 494 744 
Q 775 591 1075 516 
Q 1375 441 1709 441 
Q 2250 441 2565 725 
Q 2881 1009 2881 1497 
Q 2881 1984 2565 2268 
Q 2250 2553 1709 2553 
Q 1456 2553 1204 2497 
Q 953 2441 691 2322 
L 691 4666 
z
" transform="scale(0.015625)"/>
       </defs>
       <use xlink:href="#DejaVuSans-32"/>
       <use xlink:href="#DejaVuSans-30" x="63.623047"/>
       <use xlink:href="#DejaVuSans-32" x="127.246094"/>
       <use xlink:href="#DejaVuSans-33" x="190.869141"/>
       <use xlink:href="#DejaVuSans-2d" x="254.492188"/>
       <use xlink:href="#DejaVuSans-30" x="290.576172"/>
       <use xlink:href="#DejaVuSans-31" x="354.199219"/>
       <use xlink:href="#DejaVuSans-2d" x="417.822266"/>
       <use xlink:href="#DejaVuSans-31" x="453.90625"/>
       <use xlink:href="#DejaVuSans-35" x="517.529297"/>
      </g>
     </g>
    </g>
    <g id="xtick_3">
     <g id="line2d_3">
      <g>
       <use xlink:href="#m306167f51f" x="328.420995" y="395.28" style="stroke: #000000; stroke-width: 0.8"/>
      </g>
     </g>
     <g id="text_3">
      <!-- 2023-01-29 -->
      <g transform="translate(243.291967 495.213718) rotate(-45) scale(0.2 -0.2)">
       <defs>
        <path id="DejaVuSans-39" d="M 703 97 
L 703 672 
Q 941 559 1184 500 
Q 1428 441 1663 441 
Q 2288 441 2617 861 
Q 2947 1281 2994 2138 
Q 2813 1869 2534 1725 
Q 2256 1581 1919 1581 
Q 1219 1581 811 2004 
Q 403 2428 403 3163 
Q 403 3881 828 4315 
Q 1253 4750 1959 4750 
Q 2769 4750 3195 4129 
Q 3622 3509 3622 2328 
Q 3622 1225 3098 567 
Q 2575 -91 1691 -91 
Q 1453 -91 1209 -44 
Q 966 3 703 97 
z
M 1959 2075 
Q 2384 2075 2632 2365 
Q 2881 2656 2881 3163 
Q 2881 3666 2632 3958 
Q 2384 4250 1959 4250 
Q 1534 4250 1286 3958 
Q 1038 3666 1038 3163 
Q 1038 2656 1286 2365 
Q 1534 2075 1959 2075 
z
" transform="scale(0.015625)"/>
       </defs>
       <use xlink:href="#DejaVuSans-32"/>
       <use xlink:href="#DejaVuSans-30" x="63.623047"/>
       <use xlink:href="#DejaVuSans-32" x="127.246094"/>
       <use xlink:href="#DejaVuSans-33" x="190.869141"/>
       <use xlink:href="#DejaVuSans-2d" x="254.492188"/>
       <use xlink:href="#DejaVuSans-30" x="290.576172"/>
       <use xlink:href="#DejaVuSans-31" x="354.199219"/>
       <use xlink:href="#DejaVuSans-2d" x="417.822266"/>
       <use xlink:href="#DejaVuSans-32" x="453.90625"/>
       <use xlink:href="#DejaVuSans-39" x="517.529297"/>
      </g>
     </g>
    </g>
    <g id="xtick_4">
     <g id="line2d_4">
      <g>
       <use xlink:href="#m306167f51f" x="441.094071" y="395.28" style="stroke: #000000; stroke-width: 0.8"/>
      </g>
     </g>
     <g id="text_4">
      <!-- 2023-02-12 -->
      <g transform="translate(355.965044 495.213718) rotate(-45) scale(0.2 -0.2)">
       <use xlink:href="#DejaVuSans-32"/>
       <use xlink:href="#DejaVuSans-30" x="63.623047"/>
       <use xlink:href="#DejaVuSans-32" x="127.246094"/>
       <use xlink:href="#DejaVuSans-33" x="190.869141"/>
       <use xlink:href="#DejaVuSans-2d" x="254.492188"/>
       <use xlink:href="#DejaVuSans-30" x="290.576172"/>
       <use xlink:href="#DejaVuSans-32" x="354.199219"/>
       <use xlink:href="#DejaVuSans-2d" x="417.822266"/>
       <use xlink:href="#DejaVuSans-31" x="453.90625"/>
       <use xlink:href="#DejaVuSans-32" x="517.529297"/>
      </g>
     </g>
    </g>
    <g id="xtick_5">
     <g id="line2d_5">
      <g>
       <use xlink:href="#m306167f51f" x="553.767148" y="395.28" style="stroke: #000000; stroke-width: 0.8"/>
      </g>
     </g>
     <g id="text_5">
      <!-- 2023-02-26 -->
      <g transform="translate(468.638121 495.213718) rotate(-45) scale(0.2 -0.2)">
       <defs>
        <path id="DejaVuSans-36" d="M 2113 2584 
Q 1688 2584 1439 2293 
Q 1191 2003 1191 1497 
Q 1191 994 1439 701 
Q 1688 409 2113 409 
Q 2538 409 2786 701 
Q 3034 994 3034 1497 
Q 3034 2003 2786 2293 
Q 2538 2584 2113 2584 
z
M 3366 4563 
L 3366 3988 
Q 3128 4100 2886 4159 
Q 2644 4219 2406 4219 
Q 1781 4219 1451 3797 
Q 1122 3375 1075 2522 
Q 1259 2794 1537 2939 
Q 1816 3084 2150 3084 
Q 2853 3084 3261 2657 
Q 3669 2231 3669 1497 
Q 3669 778 3244 343 
Q 2819 -91 2113 -91 
Q 1303 -91 875 529 
Q 447 1150 447 2328 
Q 447 3434 972 4092 
Q 1497 4750 2381 4750 
Q 2619 4750 2861 4703 
Q 3103 4656 3366 4563 
z
" transform="scale(0.015625)"/>
       </defs>
       <use xlink:href="#DejaVuSans-32"/>
       <use xlink:href="#DejaVuSans-30" x="63.623047"/>
       <use xlink:href="#DejaVuSans-32" x="127.246094"/>
       <use xlink:href="#DejaVuSans-33" x="190.869141"/>
       <use xlink:href="#DejaVuSans-2d" x="254.492188"/>
       <use xlink:href="#DejaVuSans-30" x="290.576172"/>
       <use xlink:href="#DejaVuSans-32" x="354.199219"/>
       <use xlink:href="#DejaVuSans-2d" x="417.822266"/>
       <use xlink:href="#DejaVuSans-32" x="453.90625"/>
       <use xlink:href="#DejaVuSans-36" x="517.529297"/>
      </g>
     </g>
    </g>
    <g id="xtick_6">
     <g id="line2d_6">
      <g>
       <use xlink:href="#m306167f51f" x="666.440225" y="395.28" style="stroke: #000000; stroke-width: 0.8"/>
      </g>
     </g>
     <g id="text_6">
      <!-- 2023-03-12 -->
      <g transform="translate(581.311198 495.213718) rotate(-45) scale(0.2 -0.2)">
       <use xlink:href="#DejaVuSans-32"/>
       <use xlink:href="#DejaVuSans-30" x="63.623047"/>
       <use xlink:href="#DejaVuSans-32" x="127.246094"/>
       <use xlink:href="#DejaVuSans-33" x="190.869141"/>
       <use xlink:href="#DejaVuSans-2d" x="254.492188"/>
       <use xlink:href="#DejaVuSans-30" x="290.576172"/>
       <use xlink:href="#DejaVuSans-33" x="354.199219"/>
       <use xlink:href="#DejaVuSans-2d" x="417.822266"/>
       <use xlink:href="#DejaVuSans-31" x="453.90625"/>
       <use xlink:href="#DejaVuSans-32" x="517.529297"/>
      </g>
     </g>
    </g>
    <g id="xtick_7">
     <g id="line2d_7">
      <g>
       <use xlink:href="#m306167f51f" x="779.113302" y="395.28" style="stroke: #000000; stroke-width: 0.8"/>
      </g>
     </g>
     <g id="text_7">
      <!-- 2023-03-26 -->
      <g transform="translate(693.984275 495.213718) rotate(-45) scale(0.2 -0.2)">
       <use xlink:href="#DejaVuSans-32"/>
       <use xlink:href="#DejaVuSans-30" x="63.623047"/>
       <use xlink:href="#DejaVuSans-32" x="127.246094"/>
       <use xlink:href="#DejaVuSans-33" x="190.869141"/>
       <use xlink:href="#DejaVuSans-2d" x="254.492188"/>
       <use xlink:href="#DejaVuSans-30" x="290.576172"/>
       <use xlink:href="#DejaVuSans-33" x="354.199219"/>
       <use xlink:href="#DejaVuSans-2d" x="417.822266"/>
       <use xlink:href="#DejaVuSans-32" x="453.90625"/>
       <use xlink:href="#DejaVuSans-36" x="517.529297"/>
      </g>
     </g>
    </g>
    <g id="xtick_8">
     <g id="line2d_8">
      <g>
       <use xlink:href="#m306167f51f" x="891.786379" y="395.28" style="stroke: #000000; stroke-width: 0.8"/>
      </g>
     </g>
     <g id="text_8">
      <!-- 2023-04-09 -->
      <g transform="translate(806.657352 495.213718) rotate(-45) scale(0.2 -0.2)">
       <defs>
        <path id="DejaVuSans-34" d="M 2419 4116 
L 825 1625 
L 2419 1625 
L 2419 4116 
z
M 2253 4666 
L 3047 4666 
L 3047 1625 
L 3713 1625 
L 3713 1100 
L 3047 1100 
L 3047 0 
L 2419 0 
L 2419 1100 
L 313 1100 
L 313 1709 
L 2253 4666 
z
" transform="scale(0.015625)"/>
       </defs>
       <use xlink:href="#DejaVuSans-32"/>
       <use xlink:href="#DejaVuSans-30" x="63.623047"/>
       <use xlink:href="#DejaVuSans-32" x="127.246094"/>
       <use xlink:href="#DejaVuSans-33" x="190.869141"/>
       <use xlink:href="#DejaVuSans-2d" x="254.492188"/>
       <use xlink:href="#DejaVuSans-30" x="290.576172"/>
       <use xlink:href="#DejaVuSans-34" x="354.199219"/>
       <use xlink:href="#DejaVuSans-2d" x="417.822266"/>
       <use xlink:href="#DejaVuSans-30" x="453.90625"/>
       <use xlink:href="#DejaVuSans-39" x="517.529297"/>
      </g>
     </g>
    </g>
    <g id="xtick_9">
     <g id="line2d_9">
      <g>
       <use xlink:href="#m306167f51f" x="940.074841" y="395.28" style="stroke: #000000; stroke-width: 0.8"/>
      </g>
     </g>
     <g id="text_9">
      <!-- 2023-04-15 -->
      <g transform="translate(854.945813 495.213718) rotate(-45) scale(0.2 -0.2)">
       <use xlink:href="#DejaVuSans-32"/>
       <use xlink:href="#DejaVuSans-30" x="63.623047"/>
       <use xlink:href="#DejaVuSans-32" x="127.246094"/>
       <use xlink:href="#DejaVuSans-33" x="190.869141"/>
       <use xlink:href="#DejaVuSans-2d" x="254.492188"/>
       <use xlink:href="#DejaVuSans-30" x="290.576172"/>
       <use xlink:href="#DejaVuSans-34" x="354.199219"/>
       <use xlink:href="#DejaVuSans-2d" x="417.822266"/>
       <use xlink:href="#DejaVuSans-31" x="453.90625"/>
       <use xlink:href="#DejaVuSans-35" x="517.529297"/>
      </g>
     </g>
    </g>
   </g>
   <g id="matplotlib.axis_2">
    <g id="ytick_1">
     <g id="line2d_10">
      <defs>
       <path id="m5f265d21c6" d="M 0 0 
L -3.5 0 
" style="stroke: #000000; stroke-width: 0.8"/>
      </defs>
      <g>
       <use xlink:href="#m5f265d21c6" x="103.074841" y="346.308048" style="stroke: #000000; stroke-width: 0.8"/>
      </g>
     </g>
     <g id="text_10">
      <!-- −0.10 -->
      <g transform="translate(34.784216 353.906486) scale(0.2 -0.2)">
       <defs>
        <path id="DejaVuSans-2212" d="M 678 2272 
L 4684 2272 
L 4684 1741 
L 678 1741 
L 678 2272 
z
" transform="scale(0.015625)"/>
        <path id="DejaVuSans-2e" d="M 684 794 
L 1344 794 
L 1344 0 
L 684 0 
L 684 794 
z
" transform="scale(0.015625)"/>
       </defs>
       <use xlink:href="#DejaVuSans-2212"/>
       <use xlink:href="#DejaVuSans-30" x="83.789062"/>
       <use xlink:href="#DejaVuSans-2e" x="147.412109"/>
       <use xlink:href="#DejaVuSans-31" x="179.199219"/>
       <use xlink:href="#DejaVuSans-30" x="242.822266"/>
      </g>
     </g>
    </g>
    <g id="ytick_2">
     <g id="line2d_11">
      <g>
       <use xlink:href="#m5f265d21c6" x="103.074841" y="293.177369" style="stroke: #000000; stroke-width: 0.8"/>
      </g>
     </g>
     <g id="text_11">
      <!-- −0.05 -->
      <g transform="translate(34.784216 300.775807) scale(0.2 -0.2)">
       <use xlink:href="#DejaVuSans-2212"/>
       <use xlink:href="#DejaVuSans-30" x="83.789062"/>
       <use xlink:href="#DejaVuSans-2e" x="147.412109"/>
       <use xlink:href="#DejaVuSans-30" x="179.199219"/>
       <use xlink:href="#DejaVuSans-35" x="242.822266"/>
      </g>
     </g>
    </g>
    <g id="ytick_3">
     <g id="line2d_12">
      <g>
       <use xlink:href="#m5f265d21c6" x="103.074841" y="240.04669" style="stroke: #000000; stroke-width: 0.8"/>
      </g>
     </g>
     <g id="text_12">
      <!-- 0.00 -->
      <g transform="translate(51.543591 247.645128) scale(0.2 -0.2)">
       <use xlink:href="#DejaVuSans-30"/>
       <use xlink:href="#DejaVuSans-2e" x="63.623047"/>
       <use xlink:href="#DejaVuSans-30" x="95.410156"/>
       <use xlink:href="#DejaVuSans-30" x="159.033203"/>
      </g>
     </g>
    </g>
    <g id="ytick_4">
     <g id="line2d_13">
      <g>
       <use xlink:href="#m5f265d21c6" x="103.074841" y="186.916011" style="stroke: #000000; stroke-width: 0.8"/>
      </g>
     </g>
     <g id="text_13">
      <!-- 0.05 -->
      <g transform="translate(51.543591 194.514449) scale(0.2 -0.2)">
       <use xlink:href="#DejaVuSans-30"/>
       <use xlink:href="#DejaVuSans-2e" x="63.623047"/>
       <use xlink:href="#DejaVuSans-30" x="95.410156"/>
       <use xlink:href="#DejaVuSans-35" x="159.033203"/>
      </g>
     </g>
    </g>
    <g id="ytick_5">
     <g id="line2d_14">
      <g>
       <use xlink:href="#m5f265d21c6" x="103.074841" y="133.785332" style="stroke: #000000; stroke-width: 0.8"/>
      </g>
     </g>
     <g id="text_14">
      <!-- 0.10 -->
      <g transform="translate(51.543591 141.38377) scale(0.2 -0.2)">
       <use xlink:href="#DejaVuSans-30"/>
       <use xlink:href="#DejaVuSans-2e" x="63.623047"/>
       <use xlink:href="#DejaVuSans-31" x="95.410156"/>
       <use xlink:href="#DejaVuSans-30" x="159.033203"/>
      </g>
     </g>
    </g>
    <g id="ytick_6">
     <g id="line2d_15">
      <g>
       <use xlink:href="#m5f265d21c6" x="103.074841" y="80.654653" style="stroke: #000000; stroke-width: 0.8"/>
      </g>
     </g>
     <g id="text_15">
      <!-- 0.15 -->
      <g transform="translate(51.543591 88.253091) scale(0.2 -0.2)">
       <use xlink:href="#DejaVuSans-30"/>
       <use xlink:href="#DejaVuSans-2e" x="63.623047"/>
       <use xlink:href="#DejaVuSans-31" x="95.410156"/>
       <use xlink:href="#DejaVuSans-35" x="159.033203"/>
      </g>
     </g>
    </g>
    <g id="ytick_7">
     <g id="line2d_16">
      <g>
       <use xlink:href="#m5f265d21c6" x="103.074841" y="27.523974" style="stroke: #000000; stroke-width: 0.8"/>
      </g>
     </g>
     <g id="text_16">
      <!-- 0.20 -->
      <g transform="translate(51.543591 35.122412) scale(0.2 -0.2)">
       <use xlink:href="#DejaVuSans-30"/>
       <use xlink:href="#DejaVuSans-2e" x="63.623047"/>
       <use xlink:href="#DejaVuSans-32" x="95.410156"/>
       <use xlink:href="#DejaVuSans-30" x="159.033203"/>
      </g>
     </g>
    </g>
   </g>
   <g id="line2d_17">
    <path d="M 223.795995 42.286652 
L 272.084456 42.286652 
L 280.132533 24.84 
L 296.228687 24.84 
L 304.276764 130.215127 
L 312.324841 100.608238 
L 320.372918 208.942255 
L 328.420995 208.942255 
L 336.469071 260.264132 
L 344.517148 229.259348 
L 352.565225 209.970043 
L 392.80561 209.970043 
L 400.853687 231.94226 
L 408.901764 206.517685 
L 416.949841 206.517685 
L 424.997918 194.401471 
L 433.045995 245.476562 
L 441.094071 223.393003 
L 449.142148 223.393003 
L 457.190225 200.1937 
L 465.238302 211.457103 
L 473.286379 245.755896 
L 513.526764 245.755896 
L 521.574841 211.066889 
L 529.622918 244.031144 
L 537.670995 225.279229 
L 545.719071 225.279229 
L 553.767148 187.163045 
L 561.815225 180.123049 
L 577.911379 180.123049 
L 585.959456 194.54732 
L 594.007533 162.562053 
L 602.05561 162.562053 
L 610.103687 152.236925 
L 618.151764 145.032881 
L 626.199841 138.129033 
L 634.247918 131.990453 
L 642.295995 173.684507 
L 650.344071 172.131713 
L 658.392148 199.043473 
L 666.440225 199.043473 
L 674.488302 218.146475 
L 682.536379 215.584709 
L 690.584456 192.367219 
L 706.68061 192.346982 
L 714.728687 205.750089 
L 722.776764 200.658101 
L 730.824841 195.854825 
L 738.872918 201.006012 
L 746.920995 194.588728 
L 754.969071 204.387848 
L 763.017148 192.857234 
L 771.065225 186.870349 
L 779.113302 178.710504 
L 787.161379 160.122559 
L 795.209456 160.567376 
L 803.257533 166.592836 
L 811.30561 193.549155 
L 819.353687 193.549155 
L 827.401764 189.014594 
L 835.449841 193.553492 
L 843.497918 201.487106 
L 851.545995 230.152062 
L 859.594071 238.184858 
L 867.642148 270.184695 
L 875.690225 266.524155 
L 899.834456 266.524155 
L 907.882533 314.994664 
L 915.93061 312.094828 
L 923.978687 346.62168 
L 932.026764 377.64 
L 940.074841 377.64 
L 940.074841 377.64 
" clip-path="url(#p81cc512ea2)" style="fill: none; stroke: #ffa500; stroke-width: 1.5; stroke-linecap: square"/>
   </g>
   <g id="line2d_18">
    <path d="M 103.074841 240.04669 
L 948.274841 240.04669 
" clip-path="url(#p81cc512ea2)" style="fill: none; stroke-dasharray: 7.4,3.2; stroke-dashoffset: 0; stroke: #000000; stroke-width: 2"/>
   </g>
   <g id="patch_3">
    <path d="M 103.074841 395.28 
L 103.074841 7.2 
" style="fill: none; stroke: #000000; stroke-width: 0.8; stroke-linejoin: miter; stroke-linecap: square"/>
   </g>
   <g id="patch_4">
    <path d="M 940.074841 395.28 
L 940.074841 7.2 
" style="fill: none; stroke: #000000; stroke-width: 0.8; stroke-linejoin: miter; stroke-linecap: square"/>
   </g>
   <g id="patch_5">
    <path d="M 103.074841 395.28 
L 940.074841 395.28 
" style="fill: none; stroke: #000000; stroke-width: 0.8; stroke-linejoin: miter; stroke-linecap: square"/>
   </g>
   <g id="patch_6">
    <path d="M 103.074841 7.2 
L 940.074841 7.2 
" style="fill: none; stroke: #000000; stroke-width: 0.8; stroke-linejoin: miter; stroke-linecap: square"/>
   </g>
  </g>
 </g>
 <defs>
  <clipPath id="p81cc512ea2">
   <rect x="103.074841" y="7.2" width="837" height="388.08"/>
  </clipPath>
 </defs>
</svg>
