<?xml version="1.0" encoding="utf-8" standalone="no"?>
<!DOCTYPE svg PUBLIC "-//W3C//DTD SVG 1.1//EN"
  "http://www.w3.org/Graphics/SVG/1.1/DTD/svg11.dtd">
<svg xmlns:xlink="http://www.w3.org/1999/xlink" width="947.274841pt" height="505.354841pt" viewBox="0 0 947.274841 505.354841" xmlns="http://www.w3.org/2000/svg" version="1.1">
 <metadata>
  <rdf:RDF xmlns:dc="http://purl.org/dc/elements/1.1/" xmlns:cc="http://creativecommons.org/ns#" xmlns:rdf="http://www.w3.org/1999/02/22-rdf-syntax-ns#">
   <cc:Work>
    <dc:type rdf:resource="http://purl.org/dc/dcmitype/StillImage"/>
    <dc:date>2023-11-15T19:57:00.323044</dc:date>
    <dc:format>image/svg+xml</dc:format>
    <dc:creator>
     <cc:Agent>
      <dc:title>Matplotlib v3.7.2, https://matplotlib.org/</dc:title>
     </cc:Agent>
    </dc:creator>
   </cc:Work>
  </rdf:RDF>
 </metadata>
 <defs>
  <style type="text/css">*{stroke-linejoin: round; stroke-linecap: butt}</style>
 </defs>
 <g id="figure_1">
  <g id="patch_1">
   <path d="M 0 505.354841 
L 947.274841 505.354841 
L 947.274841 -0 
L 0 -0 
z
" style="fill: #ffffff"/>
  </g>
  <g id="axes_1">
   <g id="patch_2">
    <path d="M 103.074841 395.28 
L 940.074841 395.28 
L 940.074841 7.2 
L 103.074841 7.2 
z
" style="fill: #ffffff"/>
   </g>
   <g id="PolyCollection_1">
    <path d="M -393.000769 231.709131 
L -393.000769 231.729556 
L -390.959306 231.623099 
L -388.917842 231.531333 
L -386.876379 231.414831 
L -384.834915 231.337832 
L -382.793452 231.250361 
L -380.751989 231.15095 
L -378.710525 231.052705 
L -376.669062 230.960717 
L -374.627598 230.88034 
L -372.586135 230.787001 
L -370.544672 230.689207 
L -368.503208 230.594376 
L -366.461745 230.477508 
L -364.420281 230.381133 
L -362.378818 230.267325 
L -360.337354 230.170436 
L -358.295891 230.038759 
L -356.254428 229.931103 
L -354.212964 229.827574 
L -352.171501 229.704644 
L -350.130037 229.584984 
L -348.088574 229.468175 
L -346.047111 229.326682 
L -344.005647 229.203438 
L -341.964184 229.058732 
L -339.92272 228.912343 
L -337.881257 228.750211 
L -335.839793 228.583713 
L -333.79833 228.421186 
L -331.756867 228.232757 
L -329.715403 228.019819 
L -327.67394 227.831257 
L -325.632476 227.616305 
L -323.591013 227.370201 
L -321.54955 227.141933 
L -319.508086 226.873481 
L -317.466623 226.601358 
L -315.425159 226.321223 
L -313.383696 226.025276 
L -311.342232 225.696647 
L -309.300769 225.346651 
L -307.259306 224.97581 
L -305.217842 224.619595 
L -303.176379 224.199607 
L -301.134915 223.801712 
L -299.093452 223.377516 
L -297.051989 222.952413 
L -295.010525 222.494135 
L -292.969062 221.997562 
L -290.927598 221.539614 
L -288.886135 221.02823 
L -286.844672 220.499225 
L -284.803208 219.981829 
L -282.761745 219.47064 
L -280.720281 218.914721 
L -278.678818 218.35309 
L -276.637354 217.792821 
L -274.595891 217.209402 
L -272.554428 216.61968 
L -270.512964 216.031632 
L -268.471501 215.422912 
L -266.430037 214.812981 
L -264.388574 214.213063 
L -262.347111 213.58761 
L -260.305647 212.917045 
L -258.264184 212.268242 
L -256.22272 211.621248 
L -254.181257 210.984899 
L -252.139793 210.321309 
L -250.09833 209.673637 
L -248.056867 209.014369 
L -246.015403 208.421512 
L -243.97394 207.719006 
L -241.932476 207.112755 
L -239.891013 206.446104 
L -237.84955 205.811951 
L -235.808086 205.145278 
L -233.766623 204.558837 
L -231.725159 203.881999 
L -229.683696 203.246845 
L -227.642232 202.648526 
L -225.600769 202.007808 
L -223.559306 201.402915 
L -221.517842 200.768829 
L -219.476379 200.121829 
L -217.434915 199.507504 
L -215.393452 198.909338 
L -213.351989 198.263089 
L -211.310525 197.642253 
L -209.269062 197.009045 
L -207.227598 196.394576 
L -205.186135 195.794766 
L -203.144672 195.177555 
L -201.103208 194.553831 
L -199.061745 193.993516 
L -197.020281 193.356396 
L -194.978818 192.746242 
L -192.937354 192.145933 
L -190.895891 191.544556 
L -188.854428 190.944448 
L -186.812964 190.336067 
L -184.771501 189.756011 
L -182.730037 189.15176 
L -180.688574 188.531942 
L -178.647111 187.904847 
L -176.605647 187.270649 
L -174.564184 186.677144 
L -172.52272 186.023064 
L -170.481257 185.325175 
L -168.439793 184.670093 
L -166.39833 183.978821 
L -164.356867 183.27693 
L -162.315403 182.535527 
L -160.27394 181.780813 
L -158.232476 181.080016 
L -156.191013 180.279722 
L -154.14955 179.519445 
L -152.108086 178.700887 
L -150.066623 177.950011 
L -148.025159 177.066323 
L -145.983696 176.200741 
L -143.942232 175.359604 
L -141.900769 174.503691 
L -139.859306 173.621196 
L -137.817842 172.698799 
L -135.776379 171.835121 
L -133.734915 170.845187 
L -131.693452 169.9758 
L -129.651989 168.956909 
L -127.610525 167.97004 
L -125.569062 167.006871 
L -123.527598 166.083384 
L -121.486135 165.004467 
L -119.444672 164.03103 
L -117.403208 162.791076 
L -115.361745 161.72578 
L -113.320281 160.734082 
L -111.278818 159.613351 
L -109.237354 158.46377 
L -107.195891 157.138635 
L -105.154428 155.897994 
L -103.112964 154.864862 
L -101.071501 153.223569 
L -99.030037 151.908021 
L -96.988574 150.563854 
L -94.947111 149.169878 
L -92.905647 147.581882 
L -90.864184 146.089882 
L -88.82272 144.96674 
L -86.781257 143.532675 
L -84.739793 141.1728 
L -82.69833 139.191046 
L -80.656867 137.730379 
L -78.615403 135.704387 
L -76.57394 134.026249 
L -74.532476 132.567139 
L -72.491013 130.3471 
L -70.44955 127.820808 
L -68.408086 126.097001 
L -66.366623 124.998596 
L -64.325159 122.889315 
L -62.283696 121.962974 
L -60.242232 120.870488 
L -58.200769 118.742438 
L -56.159306 118.94182 
L -54.117842 119.851069 
L -52.076379 121.743207 
L -50.034915 119.671159 
L -47.993452 123.846495 
L -45.951989 124.787079 
L -43.910525 119.208362 
L -41.869062 120.806267 
L -39.827598 123.293763 
L -37.786135 121.83918 
L -35.744672 121.544808 
L -33.703208 132.175979 
L -31.661745 147.276768 
L -29.620281 154.778697 
L -27.578818 138.357991 
L -25.537354 146.764392 
L -23.495891 157.77596 
L -21.454428 157.098418 
L -19.412964 179.524503 
L -17.371501 176.403909 
L -15.330037 169.47521 
L -13.288574 152.390445 
L -11.247111 168.353904 
L -9.205647 177.928022 
L -7.164184 173.844879 
L -5.12272 176.297255 
L -3.081257 185.322779 
L -1.039793 184.043383 
L 1.00167 176.142199 
L 3.043133 185.919527 
L 5.084597 187.800416 
L 7.12606 184.211557 
L 9.167524 190.388548 
L 11.208987 192.597643 
L 13.25045 191.906499 
L 15.291914 189.935092 
L 17.333377 191.913768 
L 19.374841 189.740826 
L 21.416304 189.847731 
L 23.457768 191.731663 
L 25.499231 189.820865 
L 27.540694 190.712189 
L 29.582158 190.703281 
L 31.623621 189.151766 
L 33.665085 189.642229 
L 35.706548 187.438915 
L 37.748011 187.531253 
L 39.789475 188.082335 
L 41.830938 188.07732 
L 43.872402 186.995251 
L 45.913865 186.067836 
L 47.955328 185.8189 
L 49.996792 184.809544 
L 52.038255 184.638155 
L 54.079719 184.443028 
L 56.121182 182.937753 
L 58.162646 183.653779 
L 60.204109 182.67953 
L 62.245572 182.277824 
L 64.287036 182.343325 
L 66.328499 181.417609 
L 68.369963 181.229822 
L 70.411426 181.627832 
L 72.452889 182.25077 
L 74.494353 180.757067 
L 76.535816 180.588339 
L 78.57728 180.174045 
L 80.618743 183.048366 
L 82.660207 183.264512 
L 84.70167 184.497659 
L 86.743133 182.054037 
L 88.784597 180.61048 
L 90.82606 181.299122 
L 92.867524 183.306113 
L 94.908987 183.827841 
L 96.95045 180.872096 
L 98.991914 183.781905 
L 101.033377 183.360306 
L 103.074841 183.17741 
L 105.116304 181.976603 
L 107.157768 183.445414 
L 109.199231 183.026688 
L 111.240694 184.005672 
L 113.282158 183.377587 
L 115.323621 182.958002 
L 117.365085 181.941925 
L 119.406548 181.638698 
L 121.448011 181.402408 
L 123.489475 180.956471 
L 125.530938 181.161062 
L 127.572402 180.80966 
L 129.613865 180.417902 
L 131.655328 178.712019 
L 133.696792 177.515252 
L 135.738255 177.214659 
L 137.779719 175.880867 
L 139.821182 175.976277 
L 141.862646 174.898836 
L 143.904109 173.097101 
L 145.945572 171.67211 
L 147.987036 170.717234 
L 150.028499 168.841808 
L 152.069963 167.889143 
L 154.111426 166.289552 
L 156.152889 164.939321 
L 158.194353 163.123774 
L 160.235816 161.713637 
L 162.27728 159.629329 
L 164.318743 158.097942 
L 166.360207 156.402325 
L 168.40167 153.980385 
L 170.443133 151.831526 
L 172.484597 150.440065 
L 174.52606 148.751565 
L 176.567524 146.511068 
L 178.608987 144.861237 
L 180.65045 142.731504 
L 182.691914 139.42629 
L 184.733377 138.324134 
L 186.774841 135.755358 
L 188.816304 133.910824 
L 190.857768 131.755496 
L 192.899231 129.33635 
L 194.940694 126.85116 
L 196.982158 124.648245 
L 199.023621 121.459226 
L 201.065085 119.735046 
L 203.106548 116.76505 
L 205.148011 115.188098 
L 207.189475 112.226704 
L 209.230938 109.384664 
L 211.272402 106.870686 
L 213.313865 105.020625 
L 215.355328 101.520474 
L 217.396792 99.388666 
L 219.438255 96.356404 
L 221.479719 94.183483 
L 223.521182 91.162306 
L 225.562646 88.608469 
L 227.604109 88.959533 
L 229.645572 83.199954 
L 231.687036 82.938348 
L 233.728499 79.729411 
L 235.769963 77.740882 
L 237.811426 75.258368 
L 239.852889 72.555775 
L 241.894353 70.169212 
L 243.935816 67.876361 
L 245.97728 65.744796 
L 248.018743 63.585341 
L 250.060207 66.280355 
L 252.10167 58.71053 
L 254.143133 57.221452 
L 256.184597 64.376364 
L 258.22606 55.072618 
L 260.267524 57.154593 
L 262.308987 56.510357 
L 264.35045 51.867202 
L 266.391914 53.21249 
L 268.433377 58.409717 
L 270.474841 55.138659 
L 272.516304 53.961045 
L 274.557768 57.419867 
L 276.599231 56.74797 
L 278.640694 59.114165 
L 280.682158 62.39195 
L 282.723621 67.031162 
L 284.765085 78.516333 
L 286.806548 76.088623 
L 288.848011 82.213014 
L 290.889475 87.140548 
L 292.930938 90.056345 
L 294.972402 96.299461 
L 297.013865 100.127219 
L 299.055328 92.93841 
L 301.096792 99.875309 
L 303.138255 109.61862 
L 305.179719 114.198999 
L 307.221182 115.478808 
L 309.262646 128.392202 
L 311.304109 129.108312 
L 313.345572 131.745286 
L 315.387036 131.057039 
L 317.428499 142.385678 
L 319.469963 137.890903 
L 321.511426 135.730726 
L 323.552889 147.027059 
L 325.594353 155.51291 
L 327.635816 154.526358 
L 329.67728 159.476342 
L 331.718743 160.942765 
L 333.760207 161.045912 
L 335.80167 160.834706 
L 337.843133 163.498555 
L 339.884597 164.920034 
L 341.92606 173.656909 
L 343.967524 168.903096 
L 346.008987 176.503831 
L 348.05045 174.5911 
L 350.091914 173.389562 
L 352.133377 176.399751 
L 354.174841 179.079705 
L 356.216304 175.415895 
L 358.257768 177.067433 
L 360.299231 177.097356 
L 362.340694 181.2505 
L 364.382158 179.107374 
L 366.423621 178.09076 
L 368.465085 179.277758 
L 370.506548 181.293138 
L 372.548011 180.297972 
L 374.589475 178.296459 
L 376.630938 179.464946 
L 378.672402 176.450074 
L 380.713865 176.838069 
L 382.755328 181.959384 
L 384.796792 181.759555 
L 386.838255 179.025614 
L 388.879719 178.443568 
L 390.921182 178.904414 
L 392.962646 175.981724 
L 395.004109 176.876784 
L 397.045572 177.033296 
L 399.087036 176.562805 
L 401.128499 175.925326 
L 403.169963 174.229488 
L 405.211426 175.55266 
L 407.252889 174.494936 
L 409.294353 174.436613 
L 411.335816 173.986353 
L 413.37728 174.289554 
L 415.418743 173.066108 
L 417.460207 170.670351 
L 419.50167 170.774127 
L 421.543133 168.860361 
L 423.584597 165.995662 
L 425.62606 168.456902 
L 427.667524 164.461085 
L 429.708987 166.402276 
L 431.75045 165.784299 
L 433.791914 166.248721 
L 435.833377 163.716133 
L 437.874841 163.672138 
L 439.916304 163.424356 
L 441.957768 160.199194 
L 443.999231 161.145632 
L 446.040694 160.951496 
L 448.082158 161.084365 
L 450.123621 159.740255 
L 452.165085 160.622196 
L 454.206548 159.25911 
L 456.248011 158.040111 
L 458.289475 155.616146 
L 460.330938 154.921346 
L 462.372402 154.488879 
L 464.413865 153.368785 
L 466.455328 153.734312 
L 468.496792 153.216635 
L 470.538255 151.809874 
L 472.579719 152.111692 
L 474.621182 150.78666 
L 476.662646 151.731747 
L 478.704109 151.068149 
L 480.745572 151.433817 
L 482.787036 149.570802 
L 484.828499 146.245499 
L 486.869963 149.435032 
L 488.911426 149.44149 
L 490.952889 148.748347 
L 492.994353 148.101477 
L 495.035816 146.359115 
L 497.07728 146.159211 
L 499.118743 144.969944 
L 501.160207 145.21808 
L 503.20167 144.803234 
L 505.243133 142.852238 
L 507.284597 140.621012 
L 509.32606 143.77733 
L 511.367524 143.0419 
L 513.408987 140.596249 
L 515.45045 141.830369 
L 517.491914 138.234404 
L 519.533377 137.81975 
L 521.574841 138.494198 
L 523.616304 135.823299 
L 525.657768 140.363769 
L 527.699231 136.0171 
L 529.740694 133.213958 
L 531.782158 135.501748 
L 533.823621 136.469276 
L 535.865085 135.537726 
L 537.906548 136.925272 
L 539.948011 134.553843 
L 541.989475 138.197472 
L 544.030938 135.428957 
L 546.072402 135.942799 
L 548.113865 133.971448 
L 550.155328 131.440108 
L 552.196792 134.49368 
L 554.238255 139.966914 
L 556.279719 133.165691 
L 558.321182 133.827995 
L 560.362646 131.188196 
L 562.404109 132.901409 
L 564.445572 132.640075 
L 566.487036 131.330377 
L 568.528499 130.995242 
L 570.569963 134.188133 
L 572.611426 132.891783 
L 574.652889 135.800336 
L 576.694353 136.501572 
L 578.735816 128.872696 
L 580.77728 132.247398 
L 582.818743 132.64728 
L 584.860207 133.311276 
L 586.90167 133.887602 
L 588.943133 138.962333 
L 590.984597 141.003443 
L 593.02606 140.803392 
L 595.067524 146.30969 
L 597.108987 155.4059 
L 599.15045 144.53614 
L 601.191914 144.366667 
L 603.233377 144.53797 
L 605.274841 148.094168 
L 607.316304 148.860048 
L 609.357768 148.774196 
L 611.399231 156.561856 
L 613.440694 159.410897 
L 615.482158 150.446618 
L 617.523621 158.500636 
L 619.565085 154.489256 
L 621.606548 152.009892 
L 623.648011 161.842753 
L 625.689475 159.918474 
L 627.730938 166.314422 
L 629.772402 164.472581 
L 631.813865 160.288755 
L 633.855328 164.370413 
L 635.896792 164.493064 
L 637.938255 168.534353 
L 639.979719 166.23173 
L 642.021182 172.857315 
L 644.062646 168.390067 
L 646.104109 171.969313 
L 648.145572 171.47401 
L 650.187036 175.395907 
L 652.228499 169.537523 
L 654.269963 176.181566 
L 656.311426 175.997125 
L 658.352889 180.576526 
L 660.394353 183.08488 
L 662.435816 183.258622 
L 664.47728 182.269725 
L 666.518743 185.268207 
L 668.560207 187.535415 
L 670.60167 185.78895 
L 672.643133 185.215226 
L 674.684597 187.850998 
L 676.72606 190.240711 
L 678.767524 186.440517 
L 680.808987 184.304799 
L 682.85045 193.401205 
L 684.891914 197.572756 
L 686.933377 188.509374 
L 688.974841 191.309244 
L 691.016304 192.752688 
L 693.057768 193.495887 
L 695.099231 198.172575 
L 697.140694 197.62099 
L 699.182158 195.781039 
L 701.223621 197.807598 
L 703.265085 198.375766 
L 705.306548 193.450189 
L 707.348011 195.944781 
L 709.389475 194.414491 
L 711.430938 201.225408 
L 713.472402 209.571705 
L 715.513865 208.295325 
L 717.555328 201.552799 
L 719.596792 200.765329 
L 721.638255 201.620013 
L 723.679719 201.86862 
L 725.721182 208.042284 
L 727.762646 200.005749 
L 729.804109 208.329052 
L 731.845572 215.841084 
L 733.887036 209.200591 
L 735.928499 222.614224 
L 737.969963 212.512746 
L 740.011426 222.428321 
L 742.052889 215.31869 
L 744.094353 219.196891 
L 746.135816 228.508135 
L 748.17728 228.426334 
L 750.218743 231.503284 
L 752.260207 231.473752 
L 754.30167 232.473122 
L 756.343133 210.919147 
L 758.384597 241.718572 
L 760.42606 254.936474 
L 762.467524 242.745847 
L 764.508987 250.179328 
L 766.55045 258.491337 
L 768.591914 247.864915 
L 770.633377 260.54703 
L 772.674841 270.661783 
L 774.716304 264.903773 
L 776.757768 270.599912 
L 778.799231 273.545543 
L 780.840694 275.352926 
L 782.882158 278.509401 
L 784.923621 264.6358 
L 786.965085 292.144445 
L 789.006548 292.642717 
L 791.048011 292.76858 
L 793.089475 275.200418 
L 795.130938 298.737045 
L 797.172402 311.492633 
L 799.213865 300.207524 
L 801.255328 300.353396 
L 803.296792 321.479769 
L 805.338255 282.455395 
L 807.379719 317.963965 
L 809.421182 292.281977 
L 811.462646 329.580537 
L 813.504109 314.705704 
L 815.545572 328.972902 
L 817.587036 333.122729 
L 819.628499 337.140588 
L 821.669963 338.958499 
L 823.711426 331.151151 
L 825.752889 332.676825 
L 827.794353 340.803201 
L 829.835816 350.239914 
L 831.87728 350.71427 
L 833.918743 349.716929 
L 835.960207 359.267568 
L 838.00167 359.188727 
L 840.043133 352.204375 
L 842.084597 351.149922 
L 844.12606 368.699763 
L 846.167524 370.02283 
L 848.208987 373.471591 
L 850.25045 364.396042 
L 852.291914 343.464212 
L 854.333377 365.480494 
L 856.374841 359.556088 
L 858.416304 365.046212 
L 860.457768 372.556341 
L 862.499231 362.090488 
L 864.540694 375.518672 
L 866.582158 364.305659 
L 868.623621 363.795135 
L 870.665085 364.834146 
L 872.706548 372.829986 
L 874.748011 371.865965 
L 876.789475 370.063709 
L 878.830938 361.391204 
L 880.872402 365.986274 
L 882.913865 369.394885 
L 884.955328 365.499639 
L 886.996792 371.972586 
L 889.038255 366.605664 
L 891.079719 370.807365 
L 893.121182 377.64 
L 895.162646 376.451736 
L 897.204109 369.457964 
L 899.245572 369.552299 
L 901.287036 368.194351 
L 903.328499 371.262868 
L 905.369963 371.085026 
L 907.411426 359.684153 
L 909.452889 368.518842 
L 911.494353 315.43366 
L 913.535816 368.34211 
L 915.57728 371.84932 
L 917.618743 364.000437 
L 919.660207 355.846329 
L 921.70167 371.254551 
L 923.743133 364.188789 
L 925.784597 351.896425 
L 927.82606 359.465998 
L 929.867524 359.505155 
L 931.908987 356.040513 
L 933.95045 363.214251 
L 935.991914 357.617684 
L 938.033377 360.230778 
L 940.074841 361.737225 
L 940.074841 230.034466 
L 940.074841 230.034466 
L 938.033377 235.635454 
L 935.991914 233.913884 
L 933.95045 236.629921 
L 931.908987 233.667338 
L 929.867524 235.691507 
L 927.82606 234.73632 
L 925.784597 236.208787 
L 923.743133 240.744149 
L 921.70167 241.848792 
L 919.660207 239.588253 
L 917.618743 240.788871 
L 915.57728 245.74477 
L 913.535816 243.441635 
L 911.494353 235.256056 
L 909.452889 245.660524 
L 907.411426 244.625845 
L 905.369963 247.613859 
L 903.328499 248.419994 
L 901.287036 248.170421 
L 899.245572 250.233069 
L 897.204109 250.796043 
L 895.162646 253.456678 
L 893.121182 254.594574 
L 891.079719 253.854775 
L 889.038255 253.244016 
L 886.996792 254.764684 
L 884.955328 252.952233 
L 882.913865 254.630122 
L 880.872402 254.757584 
L 878.830938 253.966187 
L 876.789475 257.711878 
L 874.748011 258.852876 
L 872.706548 260.641767 
L 870.665085 257.287468 
L 868.623621 258.190261 
L 866.582158 259.327367 
L 864.540694 263.283669 
L 862.499231 259.29101 
L 860.457768 263.454759 
L 858.416304 261.210137 
L 856.374841 259.984891 
L 854.333377 262.478092 
L 852.291914 256.441401 
L 850.25045 262.764988 
L 848.208987 267.179744 
L 846.167524 266.446022 
L 844.12606 266.16359 
L 842.084597 261.657944 
L 840.043133 261.57763 
L 838.00167 264.490518 
L 835.960207 264.606613 
L 833.918743 261.681541 
L 831.87728 262.113687 
L 829.835816 263.00244 
L 827.794353 257.916245 
L 825.752889 256.496013 
L 823.711426 256.550616 
L 821.669963 259.810713 
L 819.628499 259.300722 
L 817.587036 257.267275 
L 815.545572 255.847549 
L 813.504109 250.962943 
L 811.462646 256.53993 
L 809.421182 245.115419 
L 807.379719 253.491328 
L 805.338255 240.403138 
L 803.296792 254.680121 
L 801.255328 246.721531 
L 799.213865 246.188554 
L 797.172402 252.222579 
L 795.130938 246.581902 
L 793.089475 237.970471 
L 791.048011 245.239738 
L 789.006548 244.899619 
L 786.965085 244.772488 
L 784.923621 233.38023 
L 782.882158 242.763684 
L 780.840694 238.357677 
L 778.799231 237.041703 
L 776.757768 236.271019 
L 774.716304 234.821596 
L 772.674841 237.280137 
L 770.633377 233.405623 
L 768.591914 227.547418 
L 766.55045 230.725945 
L 764.508987 229.714317 
L 762.467524 224.552118 
L 760.42606 230.482199 
L 758.384597 224.641978 
L 756.343133 204.845279 
L 754.30167 221.000961 
L 752.260207 221.110874 
L 750.218743 220.696085 
L 748.17728 219.375586 
L 746.135816 219.299043 
L 744.094353 213.171007 
L 742.052889 209.724324 
L 740.011426 214.974279 
L 737.969963 206.584717 
L 735.928499 215.799602 
L 733.887036 201.508879 
L 731.845572 211.019115 
L 729.804109 200.013929 
L 727.762646 185.623676 
L 725.721182 198.665712 
L 723.679719 185.616907 
L 721.638255 186.500142 
L 719.596792 185.287312 
L 717.555328 186.514117 
L 715.513865 198.735686 
L 713.472402 201.384903 
L 711.430938 186.450742 
L 709.389475 171.497759 
L 707.348011 175.096943 
L 705.306548 171.685325 
L 703.265085 181.131429 
L 701.223621 179.620457 
L 699.182158 175.751372 
L 697.140694 179.739342 
L 695.099231 179.733865 
L 693.057768 171.434246 
L 691.016304 171.582985 
L 688.974841 168.196969 
L 686.933377 163.815685 
L 684.891914 181.142238 
L 682.85045 171.164174 
L 680.808987 156.50823 
L 678.767524 162.236805 
L 676.72606 168.067768 
L 674.684597 163.798197 
L 672.643133 160.180594 
L 670.60167 161.931522 
L 668.560207 167.440931 
L 666.518743 160.784052 
L 664.47728 157.23838 
L 662.435816 159.647313 
L 660.394353 155.313204 
L 658.352889 155.572941 
L 656.311426 146.570855 
L 654.269963 148.886184 
L 652.228499 137.765928 
L 650.187036 146.669902 
L 648.145572 141.807771 
L 646.104109 143.719553 
L 644.062646 139.625914 
L 642.021182 145.491492 
L 639.979719 135.413496 
L 637.938255 140.33728 
L 635.896792 134.061943 
L 633.855328 134.60966 
L 631.813865 129.350969 
L 629.772402 132.413036 
L 627.730938 138.677043 
L 625.689475 131.066152 
L 623.648011 132.696736 
L 621.606548 119.339649 
L 619.565085 124.894962 
L 617.523621 128.299403 
L 615.482158 118.107379 
L 613.440694 129.979952 
L 611.399231 129.574466 
L 609.357768 117.105975 
L 607.316304 117.530622 
L 605.274841 116.430214 
L 603.233377 111.807904 
L 601.191914 114.661193 
L 599.15045 113.872176 
L 597.108987 128.923518 
L 595.067524 118.001693 
L 593.02606 110.345759 
L 590.984597 110.352466 
L 588.943133 108.104656 
L 586.90167 102.804045 
L 584.860207 103.951437 
L 582.818743 100.696987 
L 580.77728 103.453033 
L 578.735816 98.846628 
L 576.694353 107.462057 
L 574.652889 108.011721 
L 572.611426 105.364396 
L 570.569963 106.874707 
L 568.528499 102.7018 
L 566.487036 104.735999 
L 564.445572 105.891587 
L 562.404109 108.695139 
L 560.362646 105.193057 
L 558.321182 109.132527 
L 556.279719 107.772724 
L 554.238255 115.661068 
L 552.196792 109.120559 
L 550.155328 105.29891 
L 548.113865 108.354129 
L 546.072402 109.784257 
L 544.030938 109.244668 
L 541.989475 113.495682 
L 539.948011 108.477848 
L 537.906548 111.434487 
L 535.865085 109.298302 
L 533.823621 109.939895 
L 531.782158 108.02911 
L 529.740694 105.382198 
L 527.699231 109.180703 
L 525.657768 114.129 
L 523.616304 108.303318 
L 521.574841 111.322903 
L 519.533377 109.673679 
L 517.491914 110.968875 
L 515.45045 115.20137 
L 513.408987 113.334748 
L 511.367524 116.573702 
L 509.32606 117.214838 
L 507.284597 113.044188 
L 505.243133 115.216932 
L 503.20167 117.555466 
L 501.160207 118.163705 
L 499.118743 117.907077 
L 497.07728 119.390791 
L 495.035816 118.959325 
L 492.994353 121.317187 
L 490.952889 121.697119 
L 488.911426 121.93416 
L 486.869963 122.165369 
L 484.828499 117.219421 
L 482.787036 121.937597 
L 480.745572 123.605901 
L 478.704109 122.662948 
L 476.662646 122.450027 
L 474.621182 122.098537 
L 472.579719 123.193257 
L 470.538255 122.30625 
L 468.496792 124.127889 
L 466.455328 124.488332 
L 464.413865 123.523564 
L 462.372402 123.895603 
L 460.330938 124.541325 
L 458.289475 125.214166 
L 456.248011 128.601716 
L 454.206548 129.004463 
L 452.165085 130.350932 
L 450.123621 128.838087 
L 448.082158 130.078506 
L 446.040694 129.650396 
L 443.999231 129.582914 
L 441.957768 126.945763 
L 439.916304 131.763073 
L 437.874841 131.533779 
L 435.833377 131.160622 
L 433.791914 133.703461 
L 431.75045 132.684502 
L 429.708987 133.244675 
L 427.667524 130.72557 
L 425.62606 134.416379 
L 423.584597 132.179315 
L 421.543133 135.667338 
L 419.50167 137.865367 
L 417.460207 137.825163 
L 415.418743 140.800258 
L 413.37728 142.911598 
L 411.335816 141.828081 
L 409.294353 142.740503 
L 407.252889 142.303521 
L 405.211426 143.814381 
L 403.169963 142.132853 
L 401.128499 144.640246 
L 399.087036 146.286133 
L 397.045572 146.892207 
L 395.004109 146.895894 
L 392.962646 146.733263 
L 390.921182 149.616947 
L 388.879719 149.658414 
L 386.838255 151.159507 
L 384.796792 153.785306 
L 382.755328 154.111313 
L 380.713865 150.312536 
L 378.672402 150.542297 
L 376.630938 153.618313 
L 374.589475 153.403249 
L 372.548011 155.362683 
L 370.506548 156.630617 
L 368.465085 155.049675 
L 366.423621 155.643087 
L 364.382158 156.552608 
L 362.340694 158.626944 
L 360.299231 155.27075 
L 358.257768 156.052515 
L 356.216304 155.61489 
L 354.174841 158.860071 
L 352.133377 157.993683 
L 350.091914 155.556331 
L 348.05045 157.130066 
L 346.008987 158.776048 
L 343.967524 153.127323 
L 341.92606 157.656056 
L 339.884597 150.893043 
L 337.843133 150.044596 
L 335.80167 148.119925 
L 333.760207 149.209454 
L 331.718743 149.304839 
L 329.67728 147.939123 
L 327.635816 144.18284 
L 325.594353 146.098024 
L 323.552889 138.235654 
L 321.511426 129.158081 
L 319.469963 131.519551 
L 317.428499 135.627349 
L 315.387036 123.524033 
L 313.345572 124.422949 
L 311.304109 121.078942 
L 309.262646 120.134486 
L 307.221182 104.368184 
L 305.179719 102.28503 
L 303.138255 96.58051 
L 301.096792 84.216366 
L 299.055328 74.54501 
L 297.013865 84.271917 
L 294.972402 79.024271 
L 292.930938 70.533475 
L 290.889475 66.94628 
L 288.848011 60.847285 
L 286.806548 52.851019 
L 284.765085 55.779436 
L 282.723621 41.910395 
L 280.682158 34.53447 
L 278.640694 31.128344 
L 276.599231 28.281722 
L 274.557768 29.531053 
L 272.516304 26.039351 
L 270.474841 28.669866 
L 268.433377 32.200179 
L 266.391914 25.642823 
L 264.35045 24.84 
L 262.308987 30.730538 
L 260.267524 31.895633 
L 258.22606 29.328464 
L 256.184597 41.609913 
L 254.143133 32.590858 
L 252.10167 35.327865 
L 250.060207 44.59585 
L 248.018743 41.65395 
L 245.97728 44.865701 
L 243.935816 47.700008 
L 241.894353 51.074884 
L 239.852889 54.255417 
L 237.811426 57.887726 
L 235.769963 61.213685 
L 233.728499 63.854678 
L 231.687036 68.267283 
L 229.645572 69.01978 
L 227.604109 76.278039 
L 225.562646 76.161749 
L 223.521182 79.565308 
L 221.479719 83.604346 
L 219.438255 86.493839 
L 217.396792 90.328059 
L 215.355328 92.4533 
L 213.313865 95.625254 
L 211.272402 97.224125 
L 209.230938 99.367449 
L 207.189475 102.033917 
L 205.148011 104.782182 
L 203.106548 106.165998 
L 201.065085 108.815219 
L 199.023621 110.393163 
L 196.982158 113.160906 
L 194.940694 115.152858 
L 192.899231 117.142555 
L 190.857768 119.429505 
L 188.816304 121.389633 
L 186.774841 122.961282 
L 184.733377 125.205261 
L 182.691914 126.016526 
L 180.65045 128.961743 
L 178.608987 130.746294 
L 176.567524 132.247727 
L 174.52606 134.235481 
L 172.484597 135.208477 
L 170.443133 136.907927 
L 168.40167 138.670514 
L 166.360207 140.683188 
L 164.318743 142.082443 
L 162.27728 143.462849 
L 160.235816 145.030403 
L 158.194353 146.527534 
L 156.152889 148.189508 
L 154.111426 149.405312 
L 152.069963 150.789809 
L 150.028499 151.820318 
L 147.987036 153.490154 
L 145.945572 154.537715 
L 143.904109 155.812527 
L 141.862646 157.544412 
L 139.821182 158.578901 
L 137.779719 158.507458 
L 135.738255 159.876873 
L 133.696792 160.329159 
L 131.655328 161.648126 
L 129.613865 163.271182 
L 127.572402 163.87196 
L 125.530938 164.420485 
L 123.489475 164.16457 
L 121.448011 164.798577 
L 119.406548 165.009317 
L 117.365085 165.283419 
L 115.323621 166.3969 
L 113.282158 166.882966 
L 111.240694 167.770169 
L 109.199231 166.669754 
L 107.157768 167.018107 
L 105.116304 165.539582 
L 103.074841 166.985983 
L 101.033377 166.936789 
L 98.991914 167.927932 
L 96.95045 164.879704 
L 94.908987 167.952783 
L 92.867524 167.41833 
L 90.82606 165.256123 
L 88.784597 164.5448 
L 86.743133 166.052896 
L 84.70167 168.818287 
L 82.660207 167.446002 
L 80.618743 167.194166 
L 78.57728 164.016594 
L 76.535816 163.831654 
L 74.494353 164.553777 
L 72.452889 166.256641 
L 70.411426 165.528974 
L 68.369963 165.035743 
L 66.328499 165.226704 
L 64.287036 166.261047 
L 62.245572 165.914081 
L 60.204109 166.552328 
L 58.162646 167.672876 
L 56.121182 166.775681 
L 54.079719 168.448776 
L 52.038255 168.667233 
L 49.996792 168.834637 
L 47.955328 169.888034 
L 45.913865 170.128587 
L 43.872402 171.310787 
L 41.830938 172.607091 
L 39.789475 172.607855 
L 37.748011 172.060427 
L 35.706548 171.668647 
L 33.665085 174.455735 
L 31.623621 173.967158 
L 29.582158 175.841809 
L 27.540694 175.874223 
L 25.499231 175.155534 
L 23.457768 177.015752 
L 21.416304 175.294991 
L 19.374841 175.390109 
L 17.333377 177.754678 
L 15.291914 176.064621 
L 13.25045 178.297453 
L 11.208987 179.01653 
L 9.167524 177.142979 
L 7.12606 171.169934 
L 5.084597 174.993704 
L 3.043133 173.164976 
L 1.00167 164.273467 
L -1.039793 171.845103 
L -3.081257 173.397039 
L -5.12272 165.167587 
L -7.164184 162.903602 
L -9.205647 167.296702 
L -11.247111 158.365146 
L -13.288574 142.071939 
L -15.330037 159.925579 
L -17.371501 166.69672 
L -19.412964 170.041131 
L -21.454428 148.037898 
L -23.495891 148.94265 
L -25.537354 137.83126 
L -27.578818 129.209828 
L -29.620281 146.561767 
L -31.661745 139.066434 
L -33.703208 123.604012 
L -35.744672 112.759133 
L -37.786135 113.389631 
L -39.827598 115.221048 
L -41.869062 112.888147 
L -43.910525 111.496328 
L -45.951989 117.614102 
L -47.993452 116.843695 
L -50.034915 112.792184 
L -52.076379 115.211064 
L -54.117842 113.490485 
L -56.159306 112.801235 
L -58.200769 112.908883 
L -60.242232 115.285165 
L -62.283696 116.678859 
L -64.325159 117.471282 
L -66.366623 119.532674 
L -68.408086 120.467822 
L -70.44955 122.1135 
L -72.491013 124.748159 
L -74.532476 126.811887 
L -76.57394 128.209084 
L -78.615403 129.772877 
L -80.656867 131.846294 
L -82.69833 133.148467 
L -84.739793 135.139004 
L -86.781257 137.552822 
L -88.82272 138.983505 
L -90.864184 139.940223 
L -92.905647 141.419991 
L -94.947111 142.943142 
L -96.988574 144.341269 
L -99.030037 145.679185 
L -101.071501 146.96875 
L -103.112964 148.74213 
L -105.154428 149.661467 
L -107.195891 150.944435 
L -109.237354 152.28322 
L -111.278818 153.427565 
L -113.320281 154.560465 
L -115.361745 155.507127 
L -117.403208 156.538796 
L -119.444672 157.910882 
L -121.486135 158.869912 
L -123.527598 159.991728 
L -125.569062 160.897014 
L -127.610525 161.892942 
L -129.651989 162.914135 
L -131.693452 163.950233 
L -133.734915 164.820448 
L -135.776379 165.851112 
L -137.817842 166.755804 
L -139.859306 167.726508 
L -141.900769 168.629659 
L -143.942232 169.562074 
L -145.983696 170.428349 
L -148.025159 171.329291 
L -150.066623 172.302644 
L -152.108086 173.041633 
L -154.14955 173.969895 
L -156.191013 174.76908 
L -158.232476 175.697082 
L -160.27394 176.373365 
L -162.315403 177.23602 
L -164.356867 178.057962 
L -166.39833 178.84028 
L -168.439793 179.636936 
L -170.481257 180.373242 
L -172.52272 181.233011 
L -174.564184 182.006218 
L -176.605647 182.641869 
L -178.647111 183.397785 
L -180.688574 184.152444 
L -182.730037 184.903201 
L -184.771501 185.626914 
L -186.812964 186.300461 
L -188.854428 187.042275 
L -190.895891 187.768856 
L -192.937354 188.498945 
L -194.978818 189.226109 
L -197.020281 189.972666 
L -199.061745 190.748565 
L -201.103208 191.414897 
L -203.144672 192.179015 
L -205.186135 192.928161 
L -207.227598 193.646304 
L -209.269062 194.387281 
L -211.310525 195.143361 
L -213.351989 195.875939 
L -215.393452 196.645188 
L -217.434915 197.344743 
L -219.476379 198.059243 
L -221.517842 198.81507 
L -223.559306 199.544298 
L -225.600769 200.235259 
L -227.642232 200.967228 
L -229.683696 201.633136 
L -231.725159 202.345938 
L -233.766623 203.106377 
L -235.808086 203.756125 
L -237.84955 204.485091 
L -239.891013 205.173595 
L -241.932476 205.896332 
L -243.97394 206.548162 
L -246.015403 207.3133 
L -248.056867 207.943187 
L -250.09833 208.652325 
L -252.139793 209.345556 
L -254.181257 210.056866 
L -256.22272 210.73151 
L -258.264184 211.41924 
L -260.305647 212.110022 
L -262.347111 212.824962 
L -264.388574 213.479222 
L -266.430037 214.083406 
L -268.471501 214.701615 
L -270.512964 215.324162 
L -272.554428 215.924982 
L -274.595891 216.536727 
L -276.637354 217.141701 
L -278.678818 217.719214 
L -280.720281 218.30416 
L -282.761745 218.886443 
L -284.803208 219.415177 
L -286.844672 219.95391 
L -288.886135 220.517317 
L -290.927598 221.050928 
L -292.969062 221.527264 
L -295.010525 222.054247 
L -297.051989 222.535381 
L -299.093452 222.978329 
L -301.134915 223.422183 
L -303.176379 223.83712 
L -305.217842 224.286027 
L -307.259306 224.655876 
L -309.300769 225.047792 
L -311.342232 225.416816 
L -313.383696 225.758752 
L -315.425159 226.070199 
L -317.466623 226.353077 
L -319.508086 226.634513 
L -321.54955 226.913966 
L -323.591013 227.144743 
L -325.632476 227.403602 
L -327.67394 227.622341 
L -329.715403 227.810403 
L -331.756867 228.031957 
L -333.79833 228.225866 
L -335.839793 228.385987 
L -337.881257 228.5584 
L -339.92272 228.72615 
L -341.964184 228.87339 
L -344.005647 229.021348 
L -346.047111 229.143276 
L -348.088574 229.291491 
L -350.130037 229.408866 
L -352.171501 229.532546 
L -354.212964 229.662623 
L -356.254428 229.768286 
L -358.295891 229.880541 
L -360.337354 230.028426 
L -362.378818 230.132211 
L -364.420281 230.260205 
L -366.461745 230.361116 
L -368.503208 230.496363 
L -370.544672 230.603021 
L -372.586135 230.716117 
L -374.627598 230.814878 
L -376.669062 230.904713 
L -378.710525 231.007771 
L -380.751989 231.121858 
L -382.793452 231.232909 
L -384.834915 231.32717 
L -386.876379 231.402181 
L -388.917842 231.512025 
L -390.959306 231.601399 
L -393.000769 231.709131 
z
" clip-path="url(#p6ef677262b)" style="fill: #008000; fill-opacity: 0.3; stroke: #008000; stroke-opacity: 0.3"/>
   </g>
   <g id="matplotlib.axis_1">
    <g id="xtick_1">
     <g id="line2d_1">
      <defs>
       <path id="m816ac47dd0" d="M 0 0 
L 0 3.5 
" style="stroke: #000000; stroke-width: 0.8"/>
      </defs>
      <g>
       <use xlink:href="#m816ac47dd0" x="103.074841" y="395.28" style="stroke: #000000; stroke-width: 0.8"/>
      </g>
     </g>
     <g id="text_1">
      <!-- 2022-03-01 -->
      <g transform="translate(17.945813 495.213718) rotate(-45) scale(0.2 -0.2)">
       <defs>
        <path id="DejaVuSans-32" d="M 1228 531 
L 3431 531 
L 3431 0 
L 469 0 
L 469 531 
Q 828 903 1448 1529 
Q 2069 2156 2228 2338 
Q 2531 2678 2651 2914 
Q 2772 3150 2772 3378 
Q 2772 3750 2511 3984 
Q 2250 4219 1831 4219 
Q 1534 4219 1204 4116 
Q 875 4013 500 3803 
L 500 4441 
Q 881 4594 1212 4672 
Q 1544 4750 1819 4750 
Q 2544 4750 2975 4387 
Q 3406 4025 3406 3419 
Q 3406 3131 3298 2873 
Q 3191 2616 2906 2266 
Q 2828 2175 2409 1742 
Q 1991 1309 1228 531 
z
" transform="scale(0.015625)"/>
        <path id="DejaVuSans-30" d="M 2034 4250 
Q 1547 4250 1301 3770 
Q 1056 3291 1056 2328 
Q 1056 1369 1301 889 
Q 1547 409 2034 409 
Q 2525 409 2770 889 
Q 3016 1369 3016 2328 
Q 3016 3291 2770 3770 
Q 2525 4250 2034 4250 
z
M 2034 4750 
Q 2819 4750 3233 4129 
Q 3647 3509 3647 2328 
Q 3647 1150 3233 529 
Q 2819 -91 2034 -91 
Q 1250 -91 836 529 
Q 422 1150 422 2328 
Q 422 3509 836 4129 
Q 1250 4750 2034 4750 
z
" transform="scale(0.015625)"/>
        <path id="DejaVuSans-2d" d="M 313 2009 
L 1997 2009 
L 1997 1497 
L 313 1497 
L 313 2009 
z
" transform="scale(0.015625)"/>
        <path id="DejaVuSans-33" d="M 2597 2516 
Q 3050 2419 3304 2112 
Q 3559 1806 3559 1356 
Q 3559 666 3084 287 
Q 2609 -91 1734 -91 
Q 1441 -91 1130 -33 
Q 819 25 488 141 
L 488 750 
Q 750 597 1062 519 
Q 1375 441 1716 441 
Q 2309 441 2620 675 
Q 2931 909 2931 1356 
Q 2931 1769 2642 2001 
Q 2353 2234 1838 2234 
L 1294 2234 
L 1294 2753 
L 1863 2753 
Q 2328 2753 2575 2939 
Q 2822 3125 2822 3475 
Q 2822 3834 2567 4026 
Q 2313 4219 1838 4219 
Q 1578 4219 1281 4162 
Q 984 4106 628 3988 
L 628 4550 
Q 988 4650 1302 4700 
Q 1616 4750 1894 4750 
Q 2613 4750 3031 4423 
Q 3450 4097 3450 3541 
Q 3450 3153 3228 2886 
Q 3006 2619 2597 2516 
z
" transform="scale(0.015625)"/>
        <path id="DejaVuSans-31" d="M 794 531 
L 1825 531 
L 1825 4091 
L 703 3866 
L 703 4441 
L 1819 4666 
L 2450 4666 
L 2450 531 
L 3481 531 
L 3481 0 
L 794 0 
L 794 531 
z
" transform="scale(0.015625)"/>
       </defs>
       <use xlink:href="#DejaVuSans-32"/>
       <use xlink:href="#DejaVuSans-30" x="63.623047"/>
       <use xlink:href="#DejaVuSans-32" x="127.246094"/>
       <use xlink:href="#DejaVuSans-32" x="190.869141"/>
       <use xlink:href="#DejaVuSans-2d" x="254.492188"/>
       <use xlink:href="#DejaVuSans-30" x="290.576172"/>
       <use xlink:href="#DejaVuSans-33" x="354.199219"/>
       <use xlink:href="#DejaVuSans-2d" x="417.822266"/>
       <use xlink:href="#DejaVuSans-30" x="453.90625"/>
       <use xlink:href="#DejaVuSans-31" x="517.529297"/>
      </g>
     </g>
    </g>
    <g id="xtick_2">
     <g id="line2d_2">
      <g>
       <use xlink:href="#m816ac47dd0" x="160.235816" y="395.28" style="stroke: #000000; stroke-width: 0.8"/>
      </g>
     </g>
     <g id="text_2">
      <!-- 2022-03-29 -->
      <g transform="translate(75.106789 495.213718) rotate(-45) scale(0.2 -0.2)">
       <defs>
        <path id="DejaVuSans-39" d="M 703 97 
L 703 672 
Q 941 559 1184 500 
Q 1428 441 1663 441 
Q 2288 441 2617 861 
Q 2947 1281 2994 2138 
Q 2813 1869 2534 1725 
Q 2256 1581 1919 1581 
Q 1219 1581 811 2004 
Q 403 2428 403 3163 
Q 403 3881 828 4315 
Q 1253 4750 1959 4750 
Q 2769 4750 3195 4129 
Q 3622 3509 3622 2328 
Q 3622 1225 3098 567 
Q 2575 -91 1691 -91 
Q 1453 -91 1209 -44 
Q 966 3 703 97 
z
M 1959 2075 
Q 2384 2075 2632 2365 
Q 2881 2656 2881 3163 
Q 2881 3666 2632 3958 
Q 2384 4250 1959 4250 
Q 1534 4250 1286 3958 
Q 1038 3666 1038 3163 
Q 1038 2656 1286 2365 
Q 1534 2075 1959 2075 
z
" transform="scale(0.015625)"/>
       </defs>
       <use xlink:href="#DejaVuSans-32"/>
       <use xlink:href="#DejaVuSans-30" x="63.623047"/>
       <use xlink:href="#DejaVuSans-32" x="127.246094"/>
       <use xlink:href="#DejaVuSans-32" x="190.869141"/>
       <use xlink:href="#DejaVuSans-2d" x="254.492188"/>
       <use xlink:href="#DejaVuSans-30" x="290.576172"/>
       <use xlink:href="#DejaVuSans-33" x="354.199219"/>
       <use xlink:href="#DejaVuSans-2d" x="417.822266"/>
       <use xlink:href="#DejaVuSans-32" x="453.90625"/>
       <use xlink:href="#DejaVuSans-39" x="517.529297"/>
      </g>
     </g>
    </g>
    <g id="xtick_3">
     <g id="line2d_3">
      <g>
       <use xlink:href="#m816ac47dd0" x="217.396792" y="395.28" style="stroke: #000000; stroke-width: 0.8"/>
      </g>
     </g>
     <g id="text_3">
      <!-- 2022-04-26 -->
      <g transform="translate(132.267765 495.213718) rotate(-45) scale(0.2 -0.2)">
       <defs>
        <path id="DejaVuSans-34" d="M 2419 4116 
L 825 1625 
L 2419 1625 
L 2419 4116 
z
M 2253 4666 
L 3047 4666 
L 3047 1625 
L 3713 1625 
L 3713 1100 
L 3047 1100 
L 3047 0 
L 2419 0 
L 2419 1100 
L 313 1100 
L 313 1709 
L 2253 4666 
z
" transform="scale(0.015625)"/>
        <path id="DejaVuSans-36" d="M 2113 2584 
Q 1688 2584 1439 2293 
Q 1191 2003 1191 1497 
Q 1191 994 1439 701 
Q 1688 409 2113 409 
Q 2538 409 2786 701 
Q 3034 994 3034 1497 
Q 3034 2003 2786 2293 
Q 2538 2584 2113 2584 
z
M 3366 4563 
L 3366 3988 
Q 3128 4100 2886 4159 
Q 2644 4219 2406 4219 
Q 1781 4219 1451 3797 
Q 1122 3375 1075 2522 
Q 1259 2794 1537 2939 
Q 1816 3084 2150 3084 
Q 2853 3084 3261 2657 
Q 3669 2231 3669 1497 
Q 3669 778 3244 343 
Q 2819 -91 2113 -91 
Q 1303 -91 875 529 
Q 447 1150 447 2328 
Q 447 3434 972 4092 
Q 1497 4750 2381 4750 
Q 2619 4750 2861 4703 
Q 3103 4656 3366 4563 
z
" transform="scale(0.015625)"/>
       </defs>
       <use xlink:href="#DejaVuSans-32"/>
       <use xlink:href="#DejaVuSans-30" x="63.623047"/>
       <use xlink:href="#DejaVuSans-32" x="127.246094"/>
       <use xlink:href="#DejaVuSans-32" x="190.869141"/>
       <use xlink:href="#DejaVuSans-2d" x="254.492188"/>
       <use xlink:href="#DejaVuSans-30" x="290.576172"/>
       <use xlink:href="#DejaVuSans-34" x="354.199219"/>
       <use xlink:href="#DejaVuSans-2d" x="417.822266"/>
       <use xlink:href="#DejaVuSans-32" x="453.90625"/>
       <use xlink:href="#DejaVuSans-36" x="517.529297"/>
      </g>
     </g>
    </g>
    <g id="xtick_4">
     <g id="line2d_4">
      <g>
       <use xlink:href="#m816ac47dd0" x="274.557768" y="395.28" style="stroke: #000000; stroke-width: 0.8"/>
      </g>
     </g>
     <g id="text_4">
      <!-- 2022-05-24 -->
      <g transform="translate(189.42874 495.213718) rotate(-45) scale(0.2 -0.2)">
       <defs>
        <path id="DejaVuSans-35" d="M 691 4666 
L 3169 4666 
L 3169 4134 
L 1269 4134 
L 1269 2991 
Q 1406 3038 1543 3061 
Q 1681 3084 1819 3084 
Q 2600 3084 3056 2656 
Q 3513 2228 3513 1497 
Q 3513 744 3044 326 
Q 2575 -91 1722 -91 
Q 1428 -91 1123 -41 
Q 819 9 494 109 
L 494 744 
Q 775 591 1075 516 
Q 1375 441 1709 441 
Q 2250 441 2565 725 
Q 2881 1009 2881 1497 
Q 2881 1984 2565 2268 
Q 2250 2553 1709 2553 
Q 1456 2553 1204 2497 
Q 953 2441 691 2322 
L 691 4666 
z
" transform="scale(0.015625)"/>
       </defs>
       <use xlink:href="#DejaVuSans-32"/>
       <use xlink:href="#DejaVuSans-30" x="63.623047"/>
       <use xlink:href="#DejaVuSans-32" x="127.246094"/>
       <use xlink:href="#DejaVuSans-32" x="190.869141"/>
       <use xlink:href="#DejaVuSans-2d" x="254.492188"/>
       <use xlink:href="#DejaVuSans-30" x="290.576172"/>
       <use xlink:href="#DejaVuSans-35" x="354.199219"/>
       <use xlink:href="#DejaVuSans-2d" x="417.822266"/>
       <use xlink:href="#DejaVuSans-32" x="453.90625"/>
       <use xlink:href="#DejaVuSans-34" x="517.529297"/>
      </g>
     </g>
    </g>
    <g id="xtick_5">
     <g id="line2d_5">
      <g>
       <use xlink:href="#m816ac47dd0" x="331.718743" y="395.28" style="stroke: #000000; stroke-width: 0.8"/>
      </g>
     </g>
     <g id="text_5">
      <!-- 2022-06-21 -->
      <g transform="translate(246.589716 495.213718) rotate(-45) scale(0.2 -0.2)">
       <use xlink:href="#DejaVuSans-32"/>
       <use xlink:href="#DejaVuSans-30" x="63.623047"/>
       <use xlink:href="#DejaVuSans-32" x="127.246094"/>
       <use xlink:href="#DejaVuSans-32" x="190.869141"/>
       <use xlink:href="#DejaVuSans-2d" x="254.492188"/>
       <use xlink:href="#DejaVuSans-30" x="290.576172"/>
       <use xlink:href="#DejaVuSans-36" x="354.199219"/>
       <use xlink:href="#DejaVuSans-2d" x="417.822266"/>
       <use xlink:href="#DejaVuSans-32" x="453.90625"/>
       <use xlink:href="#DejaVuSans-31" x="517.529297"/>
      </g>
     </g>
    </g>
    <g id="xtick_6">
     <g id="line2d_6">
      <g>
       <use xlink:href="#m816ac47dd0" x="388.879719" y="395.28" style="stroke: #000000; stroke-width: 0.8"/>
      </g>
     </g>
     <g id="text_6">
      <!-- 2022-07-19 -->
      <g transform="translate(303.750691 495.213718) rotate(-45) scale(0.2 -0.2)">
       <defs>
        <path id="DejaVuSans-37" d="M 525 4666 
L 3525 4666 
L 3525 4397 
L 1831 0 
L 1172 0 
L 2766 4134 
L 525 4134 
L 525 4666 
z
" transform="scale(0.015625)"/>
       </defs>
       <use xlink:href="#DejaVuSans-32"/>
       <use xlink:href="#DejaVuSans-30" x="63.623047"/>
       <use xlink:href="#DejaVuSans-32" x="127.246094"/>
       <use xlink:href="#DejaVuSans-32" x="190.869141"/>
       <use xlink:href="#DejaVuSans-2d" x="254.492188"/>
       <use xlink:href="#DejaVuSans-30" x="290.576172"/>
       <use xlink:href="#DejaVuSans-37" x="354.199219"/>
       <use xlink:href="#DejaVuSans-2d" x="417.822266"/>
       <use xlink:href="#DejaVuSans-31" x="453.90625"/>
       <use xlink:href="#DejaVuSans-39" x="517.529297"/>
      </g>
     </g>
    </g>
    <g id="xtick_7">
     <g id="line2d_7">
      <g>
       <use xlink:href="#m816ac47dd0" x="446.040694" y="395.28" style="stroke: #000000; stroke-width: 0.8"/>
      </g>
     </g>
     <g id="text_7">
      <!-- 2022-08-16 -->
      <g transform="translate(360.911667 495.213718) rotate(-45) scale(0.2 -0.2)">
       <defs>
        <path id="DejaVuSans-38" d="M 2034 2216 
Q 1584 2216 1326 1975 
Q 1069 1734 1069 1313 
Q 1069 891 1326 650 
Q 1584 409 2034 409 
Q 2484 409 2743 651 
Q 3003 894 3003 1313 
Q 3003 1734 2745 1975 
Q 2488 2216 2034 2216 
z
M 1403 2484 
Q 997 2584 770 2862 
Q 544 3141 544 3541 
Q 544 4100 942 4425 
Q 1341 4750 2034 4750 
Q 2731 4750 3128 4425 
Q 3525 4100 3525 3541 
Q 3525 3141 3298 2862 
Q 3072 2584 2669 2484 
Q 3125 2378 3379 2068 
Q 3634 1759 3634 1313 
Q 3634 634 3220 271 
Q 2806 -91 2034 -91 
Q 1263 -91 848 271 
Q 434 634 434 1313 
Q 434 1759 690 2068 
Q 947 2378 1403 2484 
z
M 1172 3481 
Q 1172 3119 1398 2916 
Q 1625 2713 2034 2713 
Q 2441 2713 2670 2916 
Q 2900 3119 2900 3481 
Q 2900 3844 2670 4047 
Q 2441 4250 2034 4250 
Q 1625 4250 1398 4047 
Q 1172 3844 1172 3481 
z
" transform="scale(0.015625)"/>
       </defs>
       <use xlink:href="#DejaVuSans-32"/>
       <use xlink:href="#DejaVuSans-30" x="63.623047"/>
       <use xlink:href="#DejaVuSans-32" x="127.246094"/>
       <use xlink:href="#DejaVuSans-32" x="190.869141"/>
       <use xlink:href="#DejaVuSans-2d" x="254.492188"/>
       <use xlink:href="#DejaVuSans-30" x="290.576172"/>
       <use xlink:href="#DejaVuSans-38" x="354.199219"/>
       <use xlink:href="#DejaVuSans-2d" x="417.822266"/>
       <use xlink:href="#DejaVuSans-31" x="453.90625"/>
       <use xlink:href="#DejaVuSans-36" x="517.529297"/>
      </g>
     </g>
    </g>
    <g id="xtick_8">
     <g id="line2d_8">
      <g>
       <use xlink:href="#m816ac47dd0" x="503.20167" y="395.28" style="stroke: #000000; stroke-width: 0.8"/>
      </g>
     </g>
     <g id="text_8">
      <!-- 2022-09-13 -->
      <g transform="translate(418.072643 495.213718) rotate(-45) scale(0.2 -0.2)">
       <use xlink:href="#DejaVuSans-32"/>
       <use xlink:href="#DejaVuSans-30" x="63.623047"/>
       <use xlink:href="#DejaVuSans-32" x="127.246094"/>
       <use xlink:href="#DejaVuSans-32" x="190.869141"/>
       <use xlink:href="#DejaVuSans-2d" x="254.492188"/>
       <use xlink:href="#DejaVuSans-30" x="290.576172"/>
       <use xlink:href="#DejaVuSans-39" x="354.199219"/>
       <use xlink:href="#DejaVuSans-2d" x="417.822266"/>
       <use xlink:href="#DejaVuSans-31" x="453.90625"/>
       <use xlink:href="#DejaVuSans-33" x="517.529297"/>
      </g>
     </g>
    </g>
    <g id="xtick_9">
     <g id="line2d_9">
      <g>
       <use xlink:href="#m816ac47dd0" x="560.362646" y="395.28" style="stroke: #000000; stroke-width: 0.8"/>
      </g>
     </g>
     <g id="text_9">
      <!-- 2022-10-11 -->
      <g transform="translate(475.233618 495.213718) rotate(-45) scale(0.2 -0.2)">
       <use xlink:href="#DejaVuSans-32"/>
       <use xlink:href="#DejaVuSans-30" x="63.623047"/>
       <use xlink:href="#DejaVuSans-32" x="127.246094"/>
       <use xlink:href="#DejaVuSans-32" x="190.869141"/>
       <use xlink:href="#DejaVuSans-2d" x="254.492188"/>
       <use xlink:href="#DejaVuSans-31" x="290.576172"/>
       <use xlink:href="#DejaVuSans-30" x="354.199219"/>
       <use xlink:href="#DejaVuSans-2d" x="417.822266"/>
       <use xlink:href="#DejaVuSans-31" x="453.90625"/>
       <use xlink:href="#DejaVuSans-31" x="517.529297"/>
      </g>
     </g>
    </g>
    <g id="xtick_10">
     <g id="line2d_10">
      <g>
       <use xlink:href="#m816ac47dd0" x="617.523621" y="395.28" style="stroke: #000000; stroke-width: 0.8"/>
      </g>
     </g>
     <g id="text_10">
      <!-- 2022-11-08 -->
      <g transform="translate(532.394594 495.213718) rotate(-45) scale(0.2 -0.2)">
       <use xlink:href="#DejaVuSans-32"/>
       <use xlink:href="#DejaVuSans-30" x="63.623047"/>
       <use xlink:href="#DejaVuSans-32" x="127.246094"/>
       <use xlink:href="#DejaVuSans-32" x="190.869141"/>
       <use xlink:href="#DejaVuSans-2d" x="254.492188"/>
       <use xlink:href="#DejaVuSans-31" x="290.576172"/>
       <use xlink:href="#DejaVuSans-31" x="354.199219"/>
       <use xlink:href="#DejaVuSans-2d" x="417.822266"/>
       <use xlink:href="#DejaVuSans-30" x="453.90625"/>
       <use xlink:href="#DejaVuSans-38" x="517.529297"/>
      </g>
     </g>
    </g>
    <g id="xtick_11">
     <g id="line2d_11">
      <g>
       <use xlink:href="#m816ac47dd0" x="674.684597" y="395.28" style="stroke: #000000; stroke-width: 0.8"/>
      </g>
     </g>
     <g id="text_11">
      <!-- 2022-12-06 -->
      <g transform="translate(589.555569 495.213718) rotate(-45) scale(0.2 -0.2)">
       <use xlink:href="#DejaVuSans-32"/>
       <use xlink:href="#DejaVuSans-30" x="63.623047"/>
       <use xlink:href="#DejaVuSans-32" x="127.246094"/>
       <use xlink:href="#DejaVuSans-32" x="190.869141"/>
       <use xlink:href="#DejaVuSans-2d" x="254.492188"/>
       <use xlink:href="#DejaVuSans-31" x="290.576172"/>
       <use xlink:href="#DejaVuSans-32" x="354.199219"/>
       <use xlink:href="#DejaVuSans-2d" x="417.822266"/>
       <use xlink:href="#DejaVuSans-30" x="453.90625"/>
       <use xlink:href="#DejaVuSans-36" x="517.529297"/>
      </g>
     </g>
    </g>
    <g id="xtick_12">
     <g id="line2d_12">
      <g>
       <use xlink:href="#m816ac47dd0" x="731.845572" y="395.28" style="stroke: #000000; stroke-width: 0.8"/>
      </g>
     </g>
     <g id="text_12">
      <!-- 2023-01-03 -->
      <g transform="translate(646.716545 495.213718) rotate(-45) scale(0.2 -0.2)">
       <use xlink:href="#DejaVuSans-32"/>
       <use xlink:href="#DejaVuSans-30" x="63.623047"/>
       <use xlink:href="#DejaVuSans-32" x="127.246094"/>
       <use xlink:href="#DejaVuSans-33" x="190.869141"/>
       <use xlink:href="#DejaVuSans-2d" x="254.492188"/>
       <use xlink:href="#DejaVuSans-30" x="290.576172"/>
       <use xlink:href="#DejaVuSans-31" x="354.199219"/>
       <use xlink:href="#DejaVuSans-2d" x="417.822266"/>
       <use xlink:href="#DejaVuSans-30" x="453.90625"/>
       <use xlink:href="#DejaVuSans-33" x="517.529297"/>
      </g>
     </g>
    </g>
    <g id="xtick_13">
     <g id="line2d_13">
      <g>
       <use xlink:href="#m816ac47dd0" x="789.006548" y="395.28" style="stroke: #000000; stroke-width: 0.8"/>
      </g>
     </g>
     <g id="text_13">
      <!-- 2023-01-31 -->
      <g transform="translate(703.877521 495.213718) rotate(-45) scale(0.2 -0.2)">
       <use xlink:href="#DejaVuSans-32"/>
       <use xlink:href="#DejaVuSans-30" x="63.623047"/>
       <use xlink:href="#DejaVuSans-32" x="127.246094"/>
       <use xlink:href="#DejaVuSans-33" x="190.869141"/>
       <use xlink:href="#DejaVuSans-2d" x="254.492188"/>
       <use xlink:href="#DejaVuSans-30" x="290.576172"/>
       <use xlink:href="#DejaVuSans-31" x="354.199219"/>
       <use xlink:href="#DejaVuSans-2d" x="417.822266"/>
       <use xlink:href="#DejaVuSans-33" x="453.90625"/>
       <use xlink:href="#DejaVuSans-31" x="517.529297"/>
      </g>
     </g>
    </g>
    <g id="xtick_14">
     <g id="line2d_14">
      <g>
       <use xlink:href="#m816ac47dd0" x="846.167524" y="395.28" style="stroke: #000000; stroke-width: 0.8"/>
      </g>
     </g>
     <g id="text_14">
      <!-- 2023-02-28 -->
      <g transform="translate(761.038496 495.213718) rotate(-45) scale(0.2 -0.2)">
       <use xlink:href="#DejaVuSans-32"/>
       <use xlink:href="#DejaVuSans-30" x="63.623047"/>
       <use xlink:href="#DejaVuSans-32" x="127.246094"/>
       <use xlink:href="#DejaVuSans-33" x="190.869141"/>
       <use xlink:href="#DejaVuSans-2d" x="254.492188"/>
       <use xlink:href="#DejaVuSans-30" x="290.576172"/>
       <use xlink:href="#DejaVuSans-32" x="354.199219"/>
       <use xlink:href="#DejaVuSans-2d" x="417.822266"/>
       <use xlink:href="#DejaVuSans-32" x="453.90625"/>
       <use xlink:href="#DejaVuSans-38" x="517.529297"/>
      </g>
     </g>
    </g>
    <g id="xtick_15">
     <g id="line2d_15">
      <g>
       <use xlink:href="#m816ac47dd0" x="903.328499" y="395.28" style="stroke: #000000; stroke-width: 0.8"/>
      </g>
     </g>
     <g id="text_15">
      <!-- 2023-03-28 -->
      <g transform="translate(818.199472 495.213718) rotate(-45) scale(0.2 -0.2)">
       <use xlink:href="#DejaVuSans-32"/>
       <use xlink:href="#DejaVuSans-30" x="63.623047"/>
       <use xlink:href="#DejaVuSans-32" x="127.246094"/>
       <use xlink:href="#DejaVuSans-33" x="190.869141"/>
       <use xlink:href="#DejaVuSans-2d" x="254.492188"/>
       <use xlink:href="#DejaVuSans-30" x="290.576172"/>
       <use xlink:href="#DejaVuSans-33" x="354.199219"/>
       <use xlink:href="#DejaVuSans-2d" x="417.822266"/>
       <use xlink:href="#DejaVuSans-32" x="453.90625"/>
       <use xlink:href="#DejaVuSans-38" x="517.529297"/>
      </g>
     </g>
    </g>
    <g id="xtick_16">
     <g id="line2d_16">
      <g>
       <use xlink:href="#m816ac47dd0" x="940.074841" y="395.28" style="stroke: #000000; stroke-width: 0.8"/>
      </g>
     </g>
     <g id="text_16">
      <!-- 2023-04-15 -->
      <g transform="translate(854.945813 495.213718) rotate(-45) scale(0.2 -0.2)">
       <use xlink:href="#DejaVuSans-32"/>
       <use xlink:href="#DejaVuSans-30" x="63.623047"/>
       <use xlink:href="#DejaVuSans-32" x="127.246094"/>
       <use xlink:href="#DejaVuSans-33" x="190.869141"/>
       <use xlink:href="#DejaVuSans-2d" x="254.492188"/>
       <use xlink:href="#DejaVuSans-30" x="290.576172"/>
       <use xlink:href="#DejaVuSans-34" x="354.199219"/>
       <use xlink:href="#DejaVuSans-2d" x="417.822266"/>
       <use xlink:href="#DejaVuSans-31" x="453.90625"/>
       <use xlink:href="#DejaVuSans-35" x="517.529297"/>
      </g>
     </g>
    </g>
   </g>
   <g id="matplotlib.axis_2">
    <g id="ytick_1">
     <g id="line2d_17">
      <defs>
       <path id="mf74a470107" d="M 0 0 
L -3.5 0 
" style="stroke: #000000; stroke-width: 0.8"/>
      </defs>
      <g>
       <use xlink:href="#mf74a470107" x="103.074841" y="390.952256" style="stroke: #000000; stroke-width: 0.8"/>
      </g>
     </g>
     <g id="text_17">
      <!-- 0.10 -->
      <g transform="translate(34.784216 398.550693) scale(0.2 -0.2)">
       <defs>
        <path id="DejaVuSans-2212" d="M 678 2272 
L 4684 2272 
L 4684 1741 
L 678 1741 
L 678 2272 
z
" transform="scale(0.015625)"/>
        <path id="DejaVuSans-2e" d="M 684 794 
L 1344 794 
L 1344 0 
L 684 0 
L 684 794 
z
" transform="scale(0.015625)"/>
       </defs>
       <use xlink:href="#DejaVuSans-2212"/>
       <use xlink:href="#DejaVuSans-30" x="83.789062"/>
       <use xlink:href="#DejaVuSans-2e" x="147.412109"/>
       <use xlink:href="#DejaVuSans-31" x="179.199219"/>
       <use xlink:href="#DejaVuSans-30" x="242.822266"/>
      </g>
     </g>
    </g>
    <g id="ytick_2">
     <g id="line2d_18">
      <g>
       <use xlink:href="#mf74a470107" x="103.074841" y="311.382287" style="stroke: #000000; stroke-width: 0.8"/>
      </g>
     </g>
     <g id="text_18">
      <!-- 0.05 -->
      <g transform="translate(34.784216 318.980724) scale(0.2 -0.2)">
       <use xlink:href="#DejaVuSans-2212"/>
       <use xlink:href="#DejaVuSans-30" x="83.789062"/>
       <use xlink:href="#DejaVuSans-2e" x="147.412109"/>
       <use xlink:href="#DejaVuSans-30" x="179.199219"/>
       <use xlink:href="#DejaVuSans-35" x="242.822266"/>
      </g>
     </g>
    </g>
    <g id="ytick_3">
     <g id="line2d_19">
      <g>
       <use xlink:href="#mf74a470107" x="103.074841" y="231.812318" style="stroke: #000000; stroke-width: 0.8"/>
      </g>
     </g>
     <g id="text_19">
      <!-- 0.00 -->
      <g transform="translate(51.543591 239.410755) scale(0.2 -0.2)">
       <use xlink:href="#DejaVuSans-30"/>
       <use xlink:href="#DejaVuSans-2e" x="63.623047"/>
       <use xlink:href="#DejaVuSans-30" x="95.410156"/>
       <use xlink:href="#DejaVuSans-30" x="159.033203"/>
      </g>
     </g>
    </g>
    <g id="ytick_4">
     <g id="line2d_20">
      <g>
       <use xlink:href="#mf74a470107" x="103.074841" y="152.242349" style="stroke: #000000; stroke-width: 0.8"/>
      </g>
     </g>
     <g id="text_20">
      <!-- 0.05 -->
      <g transform="translate(51.543591 159.840786) scale(0.2 -0.2)">
       <use xlink:href="#DejaVuSans-30"/>
       <use xlink:href="#DejaVuSans-2e" x="63.623047"/>
       <use xlink:href="#DejaVuSans-30" x="95.410156"/>
       <use xlink:href="#DejaVuSans-35" x="159.033203"/>
      </g>
     </g>
    </g>
    <g id="ytick_5">
     <g id="line2d_21">
      <g>
       <use xlink:href="#mf74a470107" x="103.074841" y="72.672379" style="stroke: #000000; stroke-width: 0.8"/>
      </g>
     </g>
     <g id="text_21">
      <!-- 0.10 -->
      <g transform="translate(51.543591 80.270817) scale(0.2 -0.2)">
       <use xlink:href="#DejaVuSans-30"/>
       <use xlink:href="#DejaVuSans-2e" x="63.623047"/>
       <use xlink:href="#DejaVuSans-31" x="95.410156"/>
       <use xlink:href="#DejaVuSans-30" x="159.033203"/>
      </g>
     </g>
    </g>
   </g>
   <g id="line2d_22">
    <path d="M 0 0 
" clip-path="url(#p6ef677262b)" style="fill: none; stroke: #ffa500; stroke-width: 1.5; stroke-linecap: square"/>
   </g>
   <g id="line2d_23">
    <path d="M 103.074841 231.812318 
L 948.274841 231.812318 
" clip-path="url(#p6ef677262b)" style="fill: none; stroke-dasharray: 7.4,3.2; stroke-dashoffset: 0; stroke: #000000; stroke-width: 2"/>
   </g>
   <g id="patch_3">
    <path d="M 103.074841 395.28 
L 103.074841 7.2 
" style="fill: none; stroke: #000000; stroke-width: 0.8; stroke-linejoin: miter; stroke-linecap: square"/>
   </g>
   <g id="patch_4">
    <path d="M 940.074841 395.28 
L 940.074841 7.2 
" style="fill: none; stroke: #000000; stroke-width: 0.8; stroke-linejoin: miter; stroke-linecap: square"/>
   </g>
   <g id="patch_5">
    <path d="M 103.074841 395.28 
L 940.074841 395.28 
" style="fill: none; stroke: #000000; stroke-width: 0.8; stroke-linejoin: miter; stroke-linecap: square"/>
   </g>
   <g id="patch_6">
    <path d="M 103.074841 7.2 
L 940.074841 7.2 
" style="fill: none; stroke: #000000; stroke-width: 0.8; stroke-linejoin: miter; stroke-linecap: square"/>
   </g>
  </g>
 </g>
 <defs>
  <clipPath id="p6ef677262b">
   <rect x="103.074841" y="7.2" width="837" height="388.08"/>
  </clipPath>
 </defs>
</svg>
