<?xml version="1.0" encoding="utf-8" standalone="no"?>
<!DOCTYPE svg PUBLIC "-//W3C//DTD SVG 1.1//EN"
  "http://www.w3.org/Graphics/SVG/1.1/DTD/svg11.dtd">
<svg xmlns:xlink="http://www.w3.org/1999/xlink" width="947.274841pt" height="505.354841pt" viewBox="0 0 947.274841 505.354841" xmlns="http://www.w3.org/2000/svg" version="1.1">
 <metadata>
  <rdf:RDF xmlns:dc="http://purl.org/dc/elements/1.1/" xmlns:cc="http://creativecommons.org/ns#" xmlns:rdf="http://www.w3.org/1999/02/22-rdf-syntax-ns#">
   <cc:Work>
    <dc:type rdf:resource="http://purl.org/dc/dcmitype/StillImage"/>
    <dc:date>2023-11-21T19:32:41.288495</dc:date>
    <dc:format>image/svg+xml</dc:format>
    <dc:creator>
     <cc:Agent>
      <dc:title>Matplotlib v3.7.2, https://matplotlib.org/</dc:title>
     </cc:Agent>
    </dc:creator>
   </cc:Work>
  </rdf:RDF>
 </metadata>
 <defs>
  <style type="text/css">*{stroke-linejoin: round; stroke-linecap: butt}</style>
 </defs>
 <g id="figure_1">
  <g id="patch_1">
   <path d="M 0 505.354841 
L 947.274841 505.354841 
L 947.274841 -0 
L 0 -0 
z
" style="fill: #ffffff"/>
  </g>
  <g id="axes_1">
   <g id="patch_2">
    <path d="M 103.074841 395.28 
L 940.074841 395.28 
L 940.074841 7.2 
L 103.074841 7.2 
z
" style="fill: #ffffff"/>
   </g>
   <g id="PolyCollection_1">
    <path d="M -393.000769 304.938141 
L -393.000769 304.948143 
L -390.959306 304.862032 
L -388.917842 304.808734 
L -386.876379 304.74256 
L -384.834915 304.703297 
L -382.793452 304.65883 
L -380.751989 304.59649 
L -378.710525 304.538175 
L -376.669062 304.489449 
L -374.627598 304.454908 
L -372.586135 304.403938 
L -370.544672 304.345889 
L -368.503208 304.290813 
L -366.461745 304.223055 
L -364.420281 304.173464 
L -362.378818 304.109729 
L -360.337354 304.049343 
L -358.295891 303.979621 
L -356.254428 303.923715 
L -354.212964 303.872384 
L -352.171501 303.801011 
L -350.130037 303.734405 
L -348.088574 303.673449 
L -346.047111 303.590621 
L -344.005647 303.529486 
L -341.964184 303.44266 
L -339.92272 303.365966 
L -337.881257 303.268226 
L -335.839793 303.167977 
L -333.79833 303.08027 
L -331.756867 302.974952 
L -329.715403 302.839822 
L -327.67394 302.736849 
L -325.632476 302.612471 
L -323.591013 302.460001 
L -321.54955 302.324579 
L -319.508086 302.171536 
L -317.466623 302.011743 
L -315.425159 301.85394 
L -313.383696 301.671728 
L -311.342232 301.471752 
L -309.300769 301.269118 
L -307.259306 301.053158 
L -305.217842 300.837222 
L -303.176379 300.597805 
L -301.134915 300.374631 
L -299.093452 300.121782 
L -297.051989 299.893331 
L -295.010525 299.623248 
L -292.969062 299.330119 
L -290.927598 299.071276 
L -288.886135 298.785869 
L -286.844672 298.479601 
L -284.803208 298.191368 
L -282.761745 297.898874 
L -280.720281 297.586962 
L -278.678818 297.274298 
L -276.637354 296.961234 
L -274.595891 296.631162 
L -272.554428 296.297966 
L -270.512964 295.972207 
L -268.471501 295.628766 
L -266.430037 295.285751 
L -264.388574 294.952873 
L -262.347111 294.589132 
L -260.305647 294.219649 
L -258.264184 293.852758 
L -256.22272 293.490571 
L -254.181257 293.135196 
L -252.139793 292.761687 
L -250.09833 292.40097 
L -248.056867 292.028767 
L -246.015403 291.71482 
L -243.97394 291.302559 
L -241.932476 290.946839 
L -239.891013 290.57034 
L -237.84955 290.229531 
L -235.808086 289.836403 
L -233.766623 289.468215 
L -231.725159 289.091196 
L -229.683696 288.716196 
L -227.642232 288.346193 
L -225.600769 287.981058 
L -223.559306 287.637001 
L -221.517842 287.257271 
L -219.476379 286.864432 
L -217.434915 286.504266 
L -215.393452 286.161204 
L -213.351989 285.769266 
L -211.310525 285.401167 
L -209.269062 285.017037 
L -207.227598 284.658251 
L -205.186135 284.312368 
L -203.144672 283.947376 
L -201.103208 283.575798 
L -199.061745 283.268903 
L -197.020281 282.893851 
L -194.978818 282.544709 
L -192.937354 282.203377 
L -190.895891 281.859505 
L -188.854428 281.516236 
L -186.812964 281.162439 
L -184.771501 280.835893 
L -182.730037 280.482132 
L -180.688574 280.110749 
L -178.647111 279.732048 
L -176.605647 279.346454 
L -174.564184 279.002028 
L -172.52272 278.594914 
L -170.481257 278.146281 
L -168.439793 277.736847 
L -166.39833 277.305097 
L -164.356867 276.861489 
L -162.315403 276.380329 
L -160.27394 275.890383 
L -158.232476 275.45955 
L -156.191013 274.930478 
L -154.14955 274.445884 
L -152.108086 273.906018 
L -150.066623 273.440122 
L -148.025159 272.843172 
L -145.983696 272.269978 
L -143.942232 271.726435 
L -141.900769 271.172428 
L -139.859306 270.596091 
L -137.817842 269.983061 
L -135.776379 269.435464 
L -133.734915 268.762827 
L -131.693452 268.220376 
L -129.651989 267.529434 
L -127.610525 266.876943 
L -125.569062 266.253314 
L -123.527598 265.582153 
L -121.486135 264.901682 
L -119.444672 264.32224 
L -117.403208 263.438551 
L -115.361745 262.739049 
L -113.320281 262.123253 
L -111.278818 261.384035 
L -109.237354 260.5861 
L -107.195891 259.683915 
L -105.154428 258.870421 
L -103.112964 258.270582 
L -101.071501 257.051713 
L -99.030037 256.185113 
L -96.988574 255.305248 
L -94.947111 254.39728 
L -92.905647 253.305897 
L -90.864184 252.298564 
L -88.82272 251.741633 
L -86.781257 250.890805 
L -84.739793 249.056108 
L -82.69833 247.673849 
L -80.656867 246.817644 
L -78.615403 245.527236 
L -76.57394 244.357733 
L -74.532476 243.662469 
L -72.491013 242.096942 
L -70.44955 240.315411 
L -68.408086 239.42231 
L -66.366623 239.042997 
L -64.325159 237.685901 
L -62.283696 237.308162 
L -60.242232 236.877787 
L -58.200769 235.140914 
L -56.159306 235.687631 
L -54.117842 237.107513 
L -52.076379 239.146041 
L -50.034915 237.533252 
L -47.993452 241.676708 
L -45.951989 243.400395 
L -43.910525 238.636334 
L -41.869062 239.537135 
L -39.827598 242.69834 
L -37.786135 241.429901 
L -35.744672 242.12959 
L -33.703208 252.569014 
L -31.661745 266.951542 
L -29.620281 274.897003 
L -27.578818 258.643229 
L -25.537354 266.882681 
L -23.495891 277.592488 
L -21.454428 277.600201 
L -19.412964 298.938753 
L -17.371501 295.573508 
L -15.330037 289.96164 
L -13.288574 272.528566 
L -11.247111 288.048197 
L -9.205647 297.057642 
L -7.164184 292.936925 
L -5.12272 295.581011 
L -3.081257 304.09531 
L -1.039793 302.666641 
L 1.00167 294.689944 
L 3.043133 303.84562 
L 5.084597 305.626216 
L 7.12606 301.687793 
L 9.167524 307.910021 
L 11.208987 310.033822 
L 13.25045 309.049085 
L 15.291914 306.86675 
L 17.333377 308.664202 
L 19.374841 306.311815 
L 21.416304 306.239649 
L 23.457768 307.91478 
L 25.499231 306.007314 
L 27.540694 306.677185 
L 29.582158 306.633437 
L 31.623621 304.719398 
L 33.665085 305.198369 
L 35.706548 302.184619 
L 37.748011 302.624995 
L 39.789475 303.126961 
L 41.830938 303.038536 
L 43.872402 301.633739 
L 45.913865 300.294996 
L 47.955328 299.925019 
L 49.996792 298.787116 
L 52.038255 298.503489 
L 54.079719 298.047939 
L 56.121182 296.335218 
L 58.162646 297.114727 
L 60.204109 295.719972 
L 62.245572 294.880933 
L 64.287036 295.035434 
L 66.328499 293.776399 
L 68.369963 293.442878 
L 70.411426 293.733866 
L 72.452889 294.103831 
L 74.494353 292.103781 
L 76.535816 291.034769 
L 78.57728 290.958749 
L 80.618743 293.791444 
L 82.660207 293.649559 
L 84.70167 294.600104 
L 86.743133 291.57382 
L 88.784597 289.589193 
L 90.82606 289.899577 
L 92.867524 291.560833 
L 94.908987 291.643817 
L 96.95045 288.013713 
L 98.991914 290.724883 
L 101.033377 288.997592 
L 103.074841 288.69766 
L 105.116304 286.67748 
L 107.157768 287.539395 
L 109.199231 286.589166 
L 111.240694 287.139696 
L 113.282158 285.74011 
L 115.323621 284.319791 
L 117.365085 282.600422 
L 119.406548 281.723103 
L 121.448011 280.681562 
L 123.489475 279.365746 
L 125.530938 279.031576 
L 127.572402 277.582064 
L 129.613865 276.199898 
L 131.655328 273.881934 
L 133.696792 271.624842 
L 135.738255 270.377978 
L 137.779719 268.113073 
L 139.821182 267.535449 
L 141.862646 265.683353 
L 143.904109 263.007921 
L 145.945572 260.731715 
L 147.987036 258.91095 
L 150.028499 256.093504 
L 152.069963 254.423824 
L 154.111426 251.815086 
L 156.152889 249.361796 
L 158.194353 246.999176 
L 160.235816 244.165162 
L 162.27728 241.836178 
L 164.318743 238.973539 
L 166.360207 236.562974 
L 168.40167 233.429976 
L 170.443133 230.690564 
L 172.484597 227.963279 
L 174.52606 225.280023 
L 176.567524 222.317927 
L 178.608987 219.230611 
L 180.65045 216.265134 
L 182.691914 212.429501 
L 184.733377 209.689061 
L 186.774841 206.59942 
L 188.816304 203.974633 
L 190.857768 200.299985 
L 192.899231 196.697546 
L 194.940694 193.923167 
L 196.982158 190.145054 
L 199.023621 186.199498 
L 201.065085 183.040093 
L 203.106548 179.208182 
L 205.148011 176.214456 
L 207.189475 172.36316 
L 209.230938 167.804273 
L 211.272402 164.125006 
L 213.313865 161.225673 
L 215.355328 156.840435 
L 217.396792 153.194786 
L 219.438255 149.050169 
L 221.479719 145.909793 
L 223.521182 141.200806 
L 225.562646 137.002692 
L 227.604109 137.133591 
L 229.645572 129.29944 
L 231.687036 127.483991 
L 233.728499 123.002766 
L 235.769963 120.458929 
L 237.811426 115.787869 
L 239.852889 112.484592 
L 241.894353 108.69129 
L 243.935816 105.55214 
L 245.97728 102.630646 
L 248.018743 99.047214 
L 250.060207 100.734729 
L 252.10167 91.500098 
L 254.143133 90.118113 
L 256.184597 93.509024 
L 258.22606 85.078953 
L 260.267524 86.165465 
L 262.308987 84.968558 
L 264.35045 79.49527 
L 266.391914 79.824545 
L 268.433377 85.170979 
L 270.474841 79.324973 
L 272.516304 78.5187 
L 274.557768 80.563337 
L 276.599231 80.242119 
L 278.640694 82.249314 
L 280.682158 85.552465 
L 282.723621 89.323959 
L 284.765085 103.634786 
L 286.806548 97.98418 
L 288.848011 105.492145 
L 290.889475 109.824359 
L 292.930938 113.258426 
L 294.972402 118.324503 
L 297.013865 123.343448 
L 299.055328 115.845186 
L 301.096792 121.601367 
L 303.138255 131.737564 
L 305.179719 136.197163 
L 307.221182 136.962782 
L 309.262646 149.486351 
L 311.304109 149.739326 
L 313.345572 151.773646 
L 315.387036 151.279633 
L 317.428499 160.641868 
L 319.469963 157.356828 
L 321.511426 154.577581 
L 323.552889 166.20074 
L 325.594353 175.231581 
L 327.635816 175.091229 
L 329.67728 181.801645 
L 331.718743 183.901294 
L 333.760207 185.036591 
L 335.80167 185.6107 
L 337.843133 187.974525 
L 339.884597 190.948848 
L 341.92606 200.921708 
L 343.967524 195.298349 
L 346.008987 203.975694 
L 348.05045 203.326833 
L 350.091914 202.469128 
L 352.133377 206.272951 
L 354.174841 209.690281 
L 356.216304 205.812028 
L 358.257768 210.078809 
L 360.299231 210.542512 
L 362.340694 215.121205 
L 364.382158 214.28918 
L 366.423621 213.194919 
L 368.465085 215.990505 
L 370.506548 216.964099 
L 372.548011 217.085874 
L 374.589475 216.601666 
L 376.630938 218.369224 
L 378.672402 216.47193 
L 380.713865 217.900147 
L 382.755328 222.313763 
L 384.796792 222.656425 
L 386.838255 220.679543 
L 388.879719 221.677351 
L 390.921182 222.138777 
L 392.962646 219.329918 
L 395.004109 221.698592 
L 397.045572 224.972353 
L 399.087036 222.323994 
L 401.128499 222.827482 
L 403.169963 221.995365 
L 405.211426 223.86141 
L 407.252889 224.359125 
L 409.294353 224.089402 
L 411.335816 224.526314 
L 413.37728 224.943407 
L 415.418743 224.75003 
L 417.460207 223.170217 
L 419.50167 223.251187 
L 421.543133 222.567874 
L 423.584597 219.559127 
L 425.62606 223.404496 
L 427.667524 219.778846 
L 429.708987 221.784563 
L 431.75045 222.303142 
L 433.791914 223.267712 
L 435.833377 221.67672 
L 437.874841 222.773716 
L 439.916304 223.22415 
L 441.957768 219.478365 
L 443.999231 221.388483 
L 446.040694 221.35849 
L 448.082158 222.747098 
L 450.123621 220.497619 
L 452.165085 222.07408 
L 454.206548 221.893595 
L 456.248011 218.325639 
L 458.289475 218.560986 
L 460.330938 218.0568 
L 462.372402 218.211072 
L 464.413865 216.801506 
L 466.455328 217.496173 
L 468.496792 217.080293 
L 470.538255 216.858636 
L 472.579719 216.047091 
L 474.621182 214.35339 
L 476.662646 216.861437 
L 478.704109 216.665403 
L 480.745572 215.397705 
L 482.787036 214.763393 
L 484.828499 212.463402 
L 486.869963 214.960497 
L 488.911426 214.728242 
L 490.952889 214.889094 
L 492.994353 213.68549 
L 495.035816 212.427508 
L 497.07728 211.622868 
L 499.118743 211.87084 
L 501.160207 211.793773 
L 503.20167 211.886982 
L 505.243133 210.009654 
L 507.284597 208.348558 
L 509.32606 210.867258 
L 511.367524 208.20691 
L 513.408987 208.67874 
L 515.45045 209.706575 
L 517.491914 205.429933 
L 519.533377 205.995351 
L 521.574841 206.955054 
L 523.616304 205.413776 
L 525.657768 207.586283 
L 527.699231 204.852594 
L 529.740694 202.690424 
L 531.782158 205.690059 
L 533.823621 205.877403 
L 535.865085 204.128968 
L 537.906548 205.188049 
L 539.948011 204.183643 
L 541.989475 208.864092 
L 544.030938 207.971566 
L 546.072402 208.652042 
L 548.113865 204.944223 
L 550.155328 202.508477 
L 552.196792 206.275168 
L 554.238255 210.404347 
L 556.279719 206.10989 
L 558.321182 205.978766 
L 560.362646 203.000251 
L 562.404109 203.827037 
L 564.445572 206.066975 
L 566.487036 203.80064 
L 568.528499 201.613672 
L 570.569963 206.130921 
L 572.611426 203.383079 
L 574.652889 207.288472 
L 576.694353 208.184774 
L 578.735816 202.103896 
L 580.77728 203.084427 
L 582.818743 201.23341 
L 584.860207 202.997654 
L 586.90167 205.356426 
L 588.943133 211.977681 
L 590.984597 214.335656 
L 593.02606 211.416527 
L 595.067524 217.789597 
L 597.108987 227.611751 
L 599.15045 215.261439 
L 601.191914 210.838211 
L 603.233377 214.911652 
L 605.274841 218.390601 
L 607.316304 218.78252 
L 609.357768 216.200328 
L 611.399231 223.628688 
L 613.440694 227.9414 
L 615.482158 218.935073 
L 617.523621 226.457305 
L 619.565085 222.373896 
L 621.606548 222.070496 
L 623.648011 228.933661 
L 625.689475 226.482041 
L 627.730938 231.879833 
L 629.772402 231.937091 
L 631.813865 223.482793 
L 633.855328 229.584865 
L 635.896792 228.830597 
L 637.938255 233.558534 
L 639.979719 231.102621 
L 642.021182 236.739686 
L 644.062646 232.078146 
L 646.104109 235.231924 
L 648.145572 235.087604 
L 650.187036 236.690151 
L 652.228499 230.229748 
L 654.269963 236.655717 
L 656.311426 238.20375 
L 658.352889 240.440746 
L 660.394353 244.619498 
L 662.435816 242.433654 
L 664.47728 240.646589 
L 666.518743 244.264699 
L 668.560207 247.372965 
L 670.60167 243.09085 
L 672.643133 240.66901 
L 674.684597 244.057801 
L 676.72606 246.130038 
L 678.767524 240.266178 
L 680.808987 238.485773 
L 682.85045 247.469028 
L 684.891914 250.091936 
L 686.933377 239.858332 
L 688.974841 242.027182 
L 691.016304 243.258021 
L 693.057768 244.013774 
L 695.099231 249.215492 
L 697.140694 245.980821 
L 699.182158 241.848011 
L 701.223621 245.331985 
L 703.265085 246.884893 
L 705.306548 239.818961 
L 707.348011 240.332111 
L 709.389475 239.249293 
L 711.430938 248.35358 
L 713.472402 254.058675 
L 715.513865 254.062105 
L 717.555328 245.043362 
L 719.596792 241.011919 
L 721.638255 242.753422 
L 723.679719 242.580116 
L 725.721182 251.602536 
L 727.762646 239.308157 
L 729.804109 247.974407 
L 731.845572 254.272983 
L 733.887036 246.783878 
L 735.928499 258.050266 
L 737.969963 249.689275 
L 740.011426 252.129324 
L 742.052889 252.594726 
L 744.094353 254.400495 
L 746.135816 259.574546 
L 748.17728 255.311178 
L 750.218743 258.233933 
L 752.260207 259.65566 
L 754.30167 258.122513 
L 756.343133 243.596397 
L 758.384597 264.203175 
L 760.42606 272.280999 
L 762.467524 262.833389 
L 764.508987 265.636552 
L 766.55045 271.49923 
L 768.591914 264.668179 
L 770.633377 272.309421 
L 772.674841 285.226184 
L 774.716304 279.212944 
L 776.757768 283.714446 
L 778.799231 288.781172 
L 780.840694 289.352864 
L 782.882158 288.05909 
L 784.923621 275.540993 
L 786.965085 307.177681 
L 789.006548 306.177154 
L 791.048011 301.003235 
L 793.089475 284.992805 
L 795.130938 310.291229 
L 797.172402 327.872322 
L 799.213865 310.311736 
L 801.255328 311.513487 
L 803.296792 332.85725 
L 805.338255 285.985744 
L 807.379719 325.688145 
L 809.421182 296.987613 
L 811.462646 342.347235 
L 813.504109 319.789356 
L 815.545572 338.045224 
L 817.587036 339.310963 
L 819.628499 347.071151 
L 821.669963 345.811523 
L 823.711426 339.032542 
L 825.752889 338.023245 
L 827.794353 347.307218 
L 829.835816 357.855433 
L 831.87728 356.988473 
L 833.918743 352.836693 
L 835.960207 366.267113 
L 838.00167 363.846041 
L 840.043133 358.568306 
L 842.084597 352.186008 
L 844.12606 373.852732 
L 846.167524 373.576106 
L 848.208987 377.64 
L 850.25045 367.24887 
L 852.291914 344.243917 
L 854.333377 371.771505 
L 856.374841 361.038374 
L 858.416304 367.252768 
L 860.457768 373.977175 
L 862.499231 361.428026 
L 864.540694 377.26741 
L 866.582158 363.373005 
L 868.623621 362.248532 
L 870.665085 367.566941 
L 872.706548 372.960406 
L 874.748011 369.12253 
L 876.789475 367.685822 
L 878.830938 359.733218 
L 880.872402 361.858716 
L 882.913865 365.741714 
L 884.955328 361.930582 
L 886.996792 369.758978 
L 889.038255 363.208661 
L 891.079719 370.058369 
L 893.121182 375.446407 
L 895.162646 374.807358 
L 897.204109 366.942468 
L 899.245572 366.03003 
L 901.287036 365.344055 
L 903.328499 367.596498 
L 905.369963 366.713122 
L 907.411426 354.885885 
L 909.452889 364.10731 
L 911.494353 305.308651 
L 913.535816 363.100388 
L 915.57728 366.626836 
L 917.618743 358.228329 
L 919.660207 350.51994 
L 921.70167 364.192196 
L 923.743133 357.060227 
L 925.784597 345.293107 
L 927.82606 353.685202 
L 929.867524 354.086498 
L 931.908987 349.730749 
L 933.95045 358.359812 
L 935.991914 351.829202 
L 938.033377 355.546059 
L 940.074841 357.994384 
L 940.074841 263.133375 
L 940.074841 263.133375 
L 938.033377 268.165565 
L 935.991914 264.41755 
L 933.95045 268.141974 
L 931.908987 264.138689 
L 929.867524 266.07446 
L 927.82606 264.709782 
L 925.784597 265.97391 
L 923.743133 269.554725 
L 921.70167 269.817564 
L 919.660207 268.225436 
L 917.618743 268.792368 
L 915.57728 273.149582 
L 913.535816 270.886824 
L 911.494353 261.306392 
L 909.452889 272.653256 
L 907.411426 270.855598 
L 905.369963 273.521074 
L 903.328499 274.555273 
L 901.287036 273.884162 
L 899.245572 275.641684 
L 897.204109 276.790403 
L 895.162646 279.212492 
L 893.121182 279.608946 
L 891.079719 279.249454 
L 889.038255 277.425433 
L 886.996792 279.36204 
L 884.955328 276.856599 
L 882.913865 278.397617 
L 880.872402 278.133112 
L 878.830938 278.131586 
L 876.789475 280.884108 
L 874.748011 282.051922 
L 872.706548 284.451979 
L 870.665085 281.918676 
L 868.623621 281.497173 
L 866.582158 282.513898 
L 864.540694 287.17622 
L 862.499231 282.549013 
L 860.457768 287.020384 
L 858.416304 284.966617 
L 856.374841 282.916079 
L 854.333377 287.409108 
L 852.291914 279.6733 
L 850.25045 286.535896 
L 848.208987 291.115136 
L 846.167524 290.25941 
L 844.12606 290.382197 
L 842.084597 284.529568 
L 840.043133 286.424916 
L 838.00167 288.561496 
L 835.960207 289.61062 
L 833.918743 285.064068 
L 831.87728 286.664073 
L 829.835816 288.069468 
L 827.794353 282.512817 
L 825.752889 280.370315 
L 823.711426 281.754218 
L 821.669963 284.969635 
L 819.628499 285.96717 
L 817.587036 282.207208 
L 815.545572 281.996621 
L 813.504109 275.762175 
L 811.462646 284.468876 
L 809.421182 270.407052 
L 807.379719 279.767357 
L 805.338255 265.35787 
L 803.296792 282.761709 
L 801.255328 274.57655 
L 799.213865 273.249298 
L 797.172402 282.854029 
L 795.130938 275.444772 
L 793.089475 265.522471 
L 791.048011 272.91196 
L 789.006548 274.681143 
L 786.965085 275.419201 
L 784.923621 262.76304 
L 782.882158 272.492456 
L 780.840694 268.693307 
L 778.799231 268.792999 
L 776.757768 267.08806 
L 774.716304 266.003403 
L 772.674841 268.602216 
L 770.633377 262.643306 
L 768.591914 255.94717 
L 766.55045 261.693826 
L 764.508987 258.225406 
L 762.467524 253.243215 
L 760.42606 263.446852 
L 758.384597 255.047446 
L 756.343133 219.918762 
L 754.30167 244.34331 
L 752.260207 244.082531 
L 750.218743 242.498755 
L 748.17728 236.290346 
L 746.135816 243.706468 
L 744.094353 234.891552 
L 742.052889 231.510817 
L 740.011426 229.294387 
L 737.969963 222.493467 
L 735.928499 237.929393 
L 733.887036 218.000367 
L 731.845572 228.426678 
L 729.804109 218.169464 
L 727.762646 202.529194 
L 725.721182 222.208652 
L 723.679719 203.584567 
L 721.638255 204.682295 
L 719.596792 201.038907 
L 717.555328 207.803594 
L 715.513865 223.391679 
L 713.472402 223.696558 
L 711.430938 212.633937 
L 709.389475 191.443214 
L 707.348011 193.061811 
L 705.306548 193.243813 
L 703.265085 205.702927 
L 701.223621 202.68006 
L 699.182158 194.743907 
L 697.140694 202.687686 
L 695.099231 206.266543 
L 693.057768 196.617423 
L 691.016304 195.999632 
L 688.974841 192.478399 
L 686.933377 187.993437 
L 684.891914 207.876608 
L 682.85045 198.780692 
L 680.808987 184.050478 
L 678.767524 188.463063 
L 676.72606 198.249373 
L 674.684597 193.049661 
L 672.643133 187.428675 
L 670.60167 192.358386 
L 668.560207 201.411217 
L 666.518743 191.597061 
L 664.47728 186.64914 
L 662.435816 190.417588 
L 660.394353 188.230834 
L 658.352889 185.454092 
L 656.311426 181.78822 
L 654.269963 179.064867 
L 652.228499 167.845359 
L 650.187036 177.528576 
L 648.145572 175.021521 
L 646.104109 176.00684 
L 644.062646 173.231162 
L 642.021182 177.354626 
L 639.979719 169.115009 
L 637.938255 173.883876 
L 635.896792 166.17495 
L 633.855328 167.707521 
L 631.813865 158.666301 
L 629.772402 167.279979 
L 627.730938 170.183517 
L 625.689475 165.234347 
L 623.648011 165.574594 
L 621.606548 157.396665 
L 619.565085 159.181342 
L 617.523621 161.609002 
L 615.482158 152.193444 
L 613.440694 161.505247 
L 611.399231 158.451565 
L 609.357768 147.839838 
L 607.316304 151.776297 
L 605.274841 150.773193 
L 603.233377 147.809759 
L 601.191914 142.774868 
L 599.15045 147.06358 
L 597.108987 164.532544 
L 595.067524 152.262046 
L 593.02606 143.11464 
L 590.984597 146.263905 
L 588.943133 143.180109 
L 586.90167 136.72942 
L 584.860207 133.278626 
L 582.818743 130.530375 
L 580.77728 133.684385 
L 578.735816 133.219279 
L 576.694353 139.261115 
L 574.652889 138.625913 
L 572.611426 134.578747 
L 570.569963 138.462687 
L 568.528499 132.333484 
L 566.487036 136.586454 
L 564.445572 138.389363 
L 562.404109 137.929899 
L 560.362646 135.755816 
L 558.321182 140.122352 
L 556.279719 139.891308 
L 554.238255 144.19101 
L 552.196792 140.937644 
L 550.155328 137.140278 
L 548.113865 139.960388 
L 546.072402 142.15147 
L 544.030938 141.928099 
L 541.989475 144.525956 
L 539.948011 138.957744 
L 537.906548 140.447102 
L 535.865085 139.008409 
L 533.823621 139.719121 
L 531.782158 138.554114 
L 529.740694 136.054786 
L 527.699231 139.701579 
L 525.657768 141.527878 
L 523.616304 138.449937 
L 521.574841 140.401058 
L 519.533377 137.790666 
L 517.491914 139.017226 
L 515.45045 143.201089 
L 513.408987 141.963149 
L 511.367524 141.697947 
L 509.32606 144.124405 
L 507.284597 141.187483 
L 505.243133 142.639376 
L 503.20167 144.778198 
L 501.160207 144.159098 
L 499.118743 144.458525 
L 497.07728 143.966182 
L 495.035816 144.618294 
L 492.994353 145.892941 
L 490.952889 146.727131 
L 488.911426 145.792868 
L 486.869963 146.380566 
L 484.828499 141.029861 
L 482.787036 145.539303 
L 480.745572 145.798678 
L 478.704109 146.473606 
L 476.662646 145.664118 
L 474.621182 144.051731 
L 472.579719 145.640157 
L 470.538255 146.290942 
L 468.496792 146.806574 
L 466.455328 146.577194 
L 464.413865 145.82365 
L 462.372402 146.309228 
L 460.330938 146.463725 
L 458.289475 147.145891 
L 456.248011 147.311325 
L 454.206548 151.256676 
L 452.165085 151.298995 
L 450.123621 149.383269 
L 448.082158 151.946343 
L 446.040694 149.972866 
L 443.999231 150.321342 
L 441.957768 146.999216 
L 439.916304 152.849007 
L 437.874841 152.446401 
L 435.833377 151.300834 
L 433.791914 153.290079 
L 431.75045 152.275518 
L 429.708987 152.038735 
L 427.667524 149.703896 
L 425.62606 154.071791 
L 423.584597 150.59118 
L 421.543133 154.759983 
L 419.50167 156.448857 
L 417.460207 156.96374 
L 415.418743 159.586043 
L 413.37728 161.015791 
L 411.335816 160.514479 
L 409.294353 161.233588 
L 407.252889 161.772544 
L 405.211426 162.061506 
L 403.169963 160.425888 
L 401.128499 162.659366 
L 399.087036 163.471455 
L 397.045572 166.685968 
L 395.004109 164.168015 
L 392.962646 162.738822 
L 390.921182 166.458711 
L 388.879719 166.935057 
L 386.838255 167.481438 
L 384.796792 169.990276 
L 382.755328 170.30197 
L 380.713865 167.233578 
L 378.672402 166.993722 
L 376.630938 169.623632 
L 374.589475 169.27442 
L 372.548011 170.234702 
L 370.506548 170.882178 
L 368.465085 171.077642 
L 366.423621 170.280651 
L 364.382158 171.804364 
L 362.340694 173.310086 
L 360.299231 169.480336 
L 358.257768 170.395956 
L 356.216304 167.801994 
L 354.174841 171.933197 
L 352.133377 170.468867 
L 350.091914 167.415635 
L 348.05045 169.191699 
L 346.008987 170.246869 
L 343.967524 163.520771 
L 341.92606 169.5686 
L 339.884597 161.729917 
L 337.843133 160.105743 
L 335.80167 158.925993 
L 333.760207 159.592872 
L 331.718743 159.392073 
L 329.67728 159.033872 
L 327.635816 153.966564 
L 325.594353 156.366386 
L 323.552889 147.78485 
L 321.511426 137.157681 
L 319.469963 140.131082 
L 317.428499 143.50172 
L 315.387036 132.025267 
L 313.345572 132.587067 
L 311.304109 129.340607 
L 309.262646 128.387716 
L 307.221182 110.826995 
L 305.179719 108.809544 
L 303.138255 102.630051 
L 301.096792 89.157379 
L 299.055328 79.913816 
L 297.013865 89.063938 
L 294.972402 81.896555 
L 292.930938 74.43642 
L 290.889475 69.751118 
L 288.848011 63.804813 
L 286.806548 53.02155 
L 284.765085 60.206423 
L 282.723621 40.667191 
L 280.682158 33.976884 
L 278.640694 30.240592 
L 276.599231 27.079581 
L 274.557768 27.25196 
L 272.516304 24.97007 
L 270.474841 26.33042 
L 268.433377 32.705323 
L 266.391914 24.907317 
L 264.35045 24.84 
L 262.308987 31.60025 
L 260.267524 33.05031 
L 258.22606 31.19309 
L 256.184597 42.14222 
L 254.143133 37.214045 
L 252.10167 39.403552 
L 250.060207 50.506811 
L 248.018743 48.301126 
L 245.97728 52.872309 
L 243.935816 56.571825 
L 241.894353 60.428175 
L 239.852889 64.733866 
L 237.811426 68.968965 
L 235.769963 74.706126 
L 233.728499 77.589331 
L 231.687036 83.321694 
L 229.645572 85.476922 
L 227.604109 94.582728 
L 225.562646 94.704055 
L 223.521182 99.723437 
L 221.479719 105.566015 
L 219.438255 109.150498 
L 217.396792 114.264198 
L 215.355328 118.542375 
L 213.313865 123.775597 
L 211.272402 127.101099 
L 209.230938 131.684771 
L 207.189475 137.145149 
L 205.148011 141.561982 
L 203.106548 145.148972 
L 201.065085 149.882389 
L 199.023621 153.41903 
L 196.982158 158.036102 
L 194.940694 162.453745 
L 192.899231 165.733397 
L 190.857768 169.906206 
L 188.816304 174.262911 
L 186.774841 177.29733 
L 184.733377 180.876127 
L 182.691914 183.958106 
L 180.65045 188.383548 
L 178.608987 191.864936 
L 176.567524 195.25691 
L 174.52606 198.677333 
L 172.484597 201.805639 
L 170.443133 204.677002 
L 168.40167 207.808048 
L 166.360207 211.278249 
L 164.318743 214.216254 
L 162.27728 217.181873 
L 160.235816 220.204208 
L 158.194353 222.889313 
L 156.152889 225.429822 
L 154.111426 228.208465 
L 152.069963 231.015367 
L 150.028499 232.998968 
L 147.987036 235.95391 
L 145.945572 237.95669 
L 143.904109 240.504236 
L 141.862646 243.269017 
L 139.821182 245.440422 
L 137.779719 246.399921 
L 135.738255 248.770078 
L 133.696792 250.093462 
L 131.655328 252.435206 
L 129.613865 254.982824 
L 127.572402 256.358754 
L 125.530938 257.8042 
L 123.489475 258.359867 
L 121.448011 259.6767 
L 119.406548 260.97432 
L 117.365085 262.05701 
L 115.323621 263.852731 
L 113.282158 265.459326 
L 111.240694 266.833162 
L 109.199231 266.571469 
L 107.157768 267.841298 
L 105.116304 267.192495 
L 103.074841 269.211087 
L 101.033377 269.951213 
L 98.991914 271.337044 
L 96.95045 269.019806 
L 94.908987 272.83288 
L 92.867524 273.032395 
L 90.82606 271.742875 
L 88.784597 271.701557 
L 86.743133 273.858601 
L 84.70167 276.940088 
L 82.660207 276.381945 
L 80.618743 276.849436 
L 78.57728 274.630184 
L 76.535816 275.592165 
L 74.494353 276.401773 
L 72.452889 278.521332 
L 70.411426 278.59194 
L 68.369963 278.698897 
L 66.328499 279.349972 
L 64.287036 280.824571 
L 62.245572 281.275241 
L 60.204109 282.201815 
L 58.162646 283.768583 
L 56.121182 283.496652 
L 54.079719 285.402698 
L 52.038255 286.161505 
L 49.996792 286.789295 
L 47.955328 288.229504 
L 45.913865 288.955009 
L 43.872402 290.366297 
L 41.830938 291.912681 
L 39.789475 292.341857 
L 37.748011 292.163598 
L 35.706548 292.380087 
L 33.665085 295.15401 
L 31.623621 295.001489 
L 29.582158 296.959056 
L 27.540694 297.318129 
L 25.499231 296.789142 
L 23.457768 299.091759 
L 21.416304 297.585023 
L 19.374841 297.774303 
L 17.333377 300.29015 
L 15.291914 298.510412 
L 13.25045 300.800632 
L 11.208987 302.057859 
L 9.167524 299.918101 
L 7.12606 293.729915 
L 5.084597 297.822027 
L 3.043133 296.2731 
L 1.00167 286.409443 
L -1.039793 295.107689 
L -3.081257 296.672305 
L -5.12272 287.496049 
L -7.164184 284.830679 
L -9.205647 289.153218 
L -11.247111 279.359164 
L -13.288574 262.237181 
L -15.330037 281.587811 
L -17.371501 287.884002 
L -19.412964 291.484615 
L -21.454428 268.190321 
L -23.495891 268.308315 
L -25.537354 256.514884 
L -27.578818 247.601088 
L -29.620281 265.593588 
L -31.661745 257.043003 
L -33.703208 241.256294 
L -35.744672 229.741618 
L -37.786135 229.034319 
L -39.827598 230.478076 
L -41.869062 227.023839 
L -43.910525 226.079566 
L -45.951989 231.288279 
L -47.993452 229.492905 
L -50.034915 224.91842 
L -52.076379 226.704383 
L -54.117842 224.394762 
L -56.159306 222.750791 
L -58.200769 221.93574 
L -60.242232 223.817101 
L -62.283696 224.156877 
L -64.325159 224.493369 
L -66.366623 225.841808 
L -68.408086 226.137454 
L -70.44955 227.007742 
L -72.491013 228.889998 
L -74.532476 230.341166 
L -76.57394 230.994944 
L -78.615403 232.098742 
L -80.656867 233.415428 
L -82.69833 234.122868 
L -84.739793 235.566776 
L -86.781257 237.510942 
L -88.82272 238.410944 
L -90.864184 238.843017 
L -92.905647 239.924397 
L -94.947111 240.995983 
L -96.988574 241.957326 
L -99.030037 242.862789 
L -101.071501 243.726279 
L -103.112964 245.138729 
L -105.154428 245.614809 
L -107.195891 246.540353 
L -109.237354 247.487166 
L -111.278818 248.394116 
L -113.320281 249.227175 
L -115.361745 249.870525 
L -117.403208 250.598575 
L -119.444672 251.728836 
L -121.486135 252.326919 
L -123.527598 253.135916 
L -125.569062 253.923402 
L -127.610525 254.707258 
L -129.651989 255.515791 
L -131.693452 256.340696 
L -133.734915 257.003092 
L -135.776379 257.836945 
L -137.817842 258.55255 
L -139.859306 259.336269 
L -141.900769 260.049006 
L -143.942232 260.808352 
L -145.983696 261.495565 
L -148.025159 262.250662 
L -150.066623 263.082968 
L -152.108086 263.678457 
L -154.14955 264.471857 
L -156.191013 265.134255 
L -158.232476 265.930222 
L -160.27394 266.470018 
L -162.315403 267.203359 
L -164.356867 267.89791 
L -166.39833 268.552255 
L -168.439793 269.213368 
L -170.481257 269.839102 
L -172.52272 270.578208 
L -174.564184 271.232587 
L -176.605647 271.741174 
L -178.647111 272.37097 
L -180.688574 272.998408 
L -182.730037 273.620639 
L -184.771501 274.210979 
L -186.812964 274.74455 
L -188.854428 275.344008 
L -190.895891 275.922643 
L -192.937354 276.502212 
L -194.978818 277.075072 
L -197.020281 277.662927 
L -199.061745 278.276492 
L -201.103208 278.769144 
L -203.144672 279.35852 
L -205.186135 279.929887 
L -207.227598 280.464999 
L -209.269062 281.018381 
L -211.310525 281.585002 
L -213.351989 282.124399 
L -215.393452 282.696861 
L -217.434915 283.19624 
L -219.476379 283.70511 
L -221.517842 284.254235 
L -223.559306 284.771982 
L -225.600769 285.239856 
L -227.642232 285.735449 
L -229.683696 286.209208 
L -231.725159 286.694161 
L -233.766623 287.179685 
L -235.808086 287.644893 
L -237.84955 288.138778 
L -239.891013 288.566241 
L -241.932476 289.034611 
L -243.97394 289.473549 
L -246.015403 289.977167 
L -248.056867 290.362991 
L -250.09833 290.815128 
L -252.139793 291.249915 
L -254.181257 291.697199 
L -256.22272 292.09871 
L -258.264184 292.4707 
L -260.305647 292.853862 
L -262.347111 293.241888 
L -264.388574 293.625198 
L -266.430037 293.973054 
L -268.471501 294.334609 
L -270.512964 294.701457 
L -272.554428 295.050059 
L -274.595891 295.416412 
L -276.637354 295.780228 
L -278.678818 296.121859 
L -280.720281 296.468587 
L -282.761745 296.818098 
L -284.803208 297.145664 
L -286.844672 297.47017 
L -288.886135 297.827728 
L -290.927598 298.14881 
L -292.969062 298.442403 
L -295.010525 298.783149 
L -297.051989 299.093578 
L -299.093452 299.354248 
L -301.134915 299.645215 
L -303.176379 299.902625 
L -305.217842 300.1845 
L -307.259306 300.433841 
L -309.300769 300.685689 
L -311.342232 300.919465 
L -313.383696 301.148286 
L -315.425159 301.360222 
L -317.466623 301.532087 
L -319.508086 301.714424 
L -321.54955 301.887847 
L -323.591013 302.036396 
L -325.632476 302.211998 
L -327.67394 302.348638 
L -329.715403 302.457914 
L -331.756867 302.607104 
L -333.79833 302.721799 
L -335.839793 302.813478 
L -337.881257 302.925177 
L -339.92272 303.034434 
L -341.964184 303.113785 
L -344.005647 303.209527 
L -346.047111 303.270691 
L -348.088574 303.363822 
L -350.130037 303.427825 
L -352.171501 303.501137 
L -354.212964 303.583051 
L -356.254428 303.638926 
L -358.295891 303.701869 
L -360.337354 303.787171 
L -362.378818 303.861832 
L -364.420281 303.941715 
L -366.461745 303.997905 
L -368.503208 304.085677 
L -370.544672 304.157797 
L -372.586135 304.236304 
L -374.627598 304.295595 
L -376.669062 304.342808 
L -378.710525 304.407337 
L -380.751989 304.490403 
L -382.793452 304.576585 
L -384.834915 304.64081 
L -386.876379 304.695255 
L -388.917842 304.785085 
L -390.959306 304.851047 
L -393.000769 304.938141 
z
" clip-path="url(#paf249631b7)" style="fill: #008000; fill-opacity: 0.3; stroke: #008000; stroke-opacity: 0.3"/>
   </g>
   <g id="matplotlib.axis_1">
    <g id="xtick_1">
     <g id="line2d_1">
      <defs>
       <path id="m5edc533e9f" d="M 0 0 
L 0 3.5 
" style="stroke: #000000; stroke-width: 0.8"/>
      </defs>
      <g>
       <use xlink:href="#m5edc533e9f" x="103.074841" y="395.28" style="stroke: #000000; stroke-width: 0.8"/>
      </g>
     </g>
     <g id="text_1">
      <!-- 2022-03-01 -->
      <g transform="translate(17.945813 495.213718) rotate(-45) scale(0.2 -0.2)">
       <defs>
        <path id="DejaVuSans-32" d="M 1228 531 
L 3431 531 
L 3431 0 
L 469 0 
L 469 531 
Q 828 903 1448 1529 
Q 2069 2156 2228 2338 
Q 2531 2678 2651 2914 
Q 2772 3150 2772 3378 
Q 2772 3750 2511 3984 
Q 2250 4219 1831 4219 
Q 1534 4219 1204 4116 
Q 875 4013 500 3803 
L 500 4441 
Q 881 4594 1212 4672 
Q 1544 4750 1819 4750 
Q 2544 4750 2975 4387 
Q 3406 4025 3406 3419 
Q 3406 3131 3298 2873 
Q 3191 2616 2906 2266 
Q 2828 2175 2409 1742 
Q 1991 1309 1228 531 
z
" transform="scale(0.015625)"/>
        <path id="DejaVuSans-30" d="M 2034 4250 
Q 1547 4250 1301 3770 
Q 1056 3291 1056 2328 
Q 1056 1369 1301 889 
Q 1547 409 2034 409 
Q 2525 409 2770 889 
Q 3016 1369 3016 2328 
Q 3016 3291 2770 3770 
Q 2525 4250 2034 4250 
z
M 2034 4750 
Q 2819 4750 3233 4129 
Q 3647 3509 3647 2328 
Q 3647 1150 3233 529 
Q 2819 -91 2034 -91 
Q 1250 -91 836 529 
Q 422 1150 422 2328 
Q 422 3509 836 4129 
Q 1250 4750 2034 4750 
z
" transform="scale(0.015625)"/>
        <path id="DejaVuSans-2d" d="M 313 2009 
L 1997 2009 
L 1997 1497 
L 313 1497 
L 313 2009 
z
" transform="scale(0.015625)"/>
        <path id="DejaVuSans-33" d="M 2597 2516 
Q 3050 2419 3304 2112 
Q 3559 1806 3559 1356 
Q 3559 666 3084 287 
Q 2609 -91 1734 -91 
Q 1441 -91 1130 -33 
Q 819 25 488 141 
L 488 750 
Q 750 597 1062 519 
Q 1375 441 1716 441 
Q 2309 441 2620 675 
Q 2931 909 2931 1356 
Q 2931 1769 2642 2001 
Q 2353 2234 1838 2234 
L 1294 2234 
L 1294 2753 
L 1863 2753 
Q 2328 2753 2575 2939 
Q 2822 3125 2822 3475 
Q 2822 3834 2567 4026 
Q 2313 4219 1838 4219 
Q 1578 4219 1281 4162 
Q 984 4106 628 3988 
L 628 4550 
Q 988 4650 1302 4700 
Q 1616 4750 1894 4750 
Q 2613 4750 3031 4423 
Q 3450 4097 3450 3541 
Q 3450 3153 3228 2886 
Q 3006 2619 2597 2516 
z
" transform="scale(0.015625)"/>
        <path id="DejaVuSans-31" d="M 794 531 
L 1825 531 
L 1825 4091 
L 703 3866 
L 703 4441 
L 1819 4666 
L 2450 4666 
L 2450 531 
L 3481 531 
L 3481 0 
L 794 0 
L 794 531 
z
" transform="scale(0.015625)"/>
       </defs>
       <use xlink:href="#DejaVuSans-32"/>
       <use xlink:href="#DejaVuSans-30" x="63.623047"/>
       <use xlink:href="#DejaVuSans-32" x="127.246094"/>
       <use xlink:href="#DejaVuSans-32" x="190.869141"/>
       <use xlink:href="#DejaVuSans-2d" x="254.492188"/>
       <use xlink:href="#DejaVuSans-30" x="290.576172"/>
       <use xlink:href="#DejaVuSans-33" x="354.199219"/>
       <use xlink:href="#DejaVuSans-2d" x="417.822266"/>
       <use xlink:href="#DejaVuSans-30" x="453.90625"/>
       <use xlink:href="#DejaVuSans-31" x="517.529297"/>
      </g>
     </g>
    </g>
    <g id="xtick_2">
     <g id="line2d_2">
      <g>
       <use xlink:href="#m5edc533e9f" x="160.235816" y="395.28" style="stroke: #000000; stroke-width: 0.8"/>
      </g>
     </g>
     <g id="text_2">
      <!-- 2022-03-29 -->
      <g transform="translate(75.106789 495.213718) rotate(-45) scale(0.2 -0.2)">
       <defs>
        <path id="DejaVuSans-39" d="M 703 97 
L 703 672 
Q 941 559 1184 500 
Q 1428 441 1663 441 
Q 2288 441 2617 861 
Q 2947 1281 2994 2138 
Q 2813 1869 2534 1725 
Q 2256 1581 1919 1581 
Q 1219 1581 811 2004 
Q 403 2428 403 3163 
Q 403 3881 828 4315 
Q 1253 4750 1959 4750 
Q 2769 4750 3195 4129 
Q 3622 3509 3622 2328 
Q 3622 1225 3098 567 
Q 2575 -91 1691 -91 
Q 1453 -91 1209 -44 
Q 966 3 703 97 
z
M 1959 2075 
Q 2384 2075 2632 2365 
Q 2881 2656 2881 3163 
Q 2881 3666 2632 3958 
Q 2384 4250 1959 4250 
Q 1534 4250 1286 3958 
Q 1038 3666 1038 3163 
Q 1038 2656 1286 2365 
Q 1534 2075 1959 2075 
z
" transform="scale(0.015625)"/>
       </defs>
       <use xlink:href="#DejaVuSans-32"/>
       <use xlink:href="#DejaVuSans-30" x="63.623047"/>
       <use xlink:href="#DejaVuSans-32" x="127.246094"/>
       <use xlink:href="#DejaVuSans-32" x="190.869141"/>
       <use xlink:href="#DejaVuSans-2d" x="254.492188"/>
       <use xlink:href="#DejaVuSans-30" x="290.576172"/>
       <use xlink:href="#DejaVuSans-33" x="354.199219"/>
       <use xlink:href="#DejaVuSans-2d" x="417.822266"/>
       <use xlink:href="#DejaVuSans-32" x="453.90625"/>
       <use xlink:href="#DejaVuSans-39" x="517.529297"/>
      </g>
     </g>
    </g>
    <g id="xtick_3">
     <g id="line2d_3">
      <g>
       <use xlink:href="#m5edc533e9f" x="217.396792" y="395.28" style="stroke: #000000; stroke-width: 0.8"/>
      </g>
     </g>
     <g id="text_3">
      <!-- 2022-04-26 -->
      <g transform="translate(132.267765 495.213718) rotate(-45) scale(0.2 -0.2)">
       <defs>
        <path id="DejaVuSans-34" d="M 2419 4116 
L 825 1625 
L 2419 1625 
L 2419 4116 
z
M 2253 4666 
L 3047 4666 
L 3047 1625 
L 3713 1625 
L 3713 1100 
L 3047 1100 
L 3047 0 
L 2419 0 
L 2419 1100 
L 313 1100 
L 313 1709 
L 2253 4666 
z
" transform="scale(0.015625)"/>
        <path id="DejaVuSans-36" d="M 2113 2584 
Q 1688 2584 1439 2293 
Q 1191 2003 1191 1497 
Q 1191 994 1439 701 
Q 1688 409 2113 409 
Q 2538 409 2786 701 
Q 3034 994 3034 1497 
Q 3034 2003 2786 2293 
Q 2538 2584 2113 2584 
z
M 3366 4563 
L 3366 3988 
Q 3128 4100 2886 4159 
Q 2644 4219 2406 4219 
Q 1781 4219 1451 3797 
Q 1122 3375 1075 2522 
Q 1259 2794 1537 2939 
Q 1816 3084 2150 3084 
Q 2853 3084 3261 2657 
Q 3669 2231 3669 1497 
Q 3669 778 3244 343 
Q 2819 -91 2113 -91 
Q 1303 -91 875 529 
Q 447 1150 447 2328 
Q 447 3434 972 4092 
Q 1497 4750 2381 4750 
Q 2619 4750 2861 4703 
Q 3103 4656 3366 4563 
z
" transform="scale(0.015625)"/>
       </defs>
       <use xlink:href="#DejaVuSans-32"/>
       <use xlink:href="#DejaVuSans-30" x="63.623047"/>
       <use xlink:href="#DejaVuSans-32" x="127.246094"/>
       <use xlink:href="#DejaVuSans-32" x="190.869141"/>
       <use xlink:href="#DejaVuSans-2d" x="254.492188"/>
       <use xlink:href="#DejaVuSans-30" x="290.576172"/>
       <use xlink:href="#DejaVuSans-34" x="354.199219"/>
       <use xlink:href="#DejaVuSans-2d" x="417.822266"/>
       <use xlink:href="#DejaVuSans-32" x="453.90625"/>
       <use xlink:href="#DejaVuSans-36" x="517.529297"/>
      </g>
     </g>
    </g>
    <g id="xtick_4">
     <g id="line2d_4">
      <g>
       <use xlink:href="#m5edc533e9f" x="274.557768" y="395.28" style="stroke: #000000; stroke-width: 0.8"/>
      </g>
     </g>
     <g id="text_4">
      <!-- 2022-05-24 -->
      <g transform="translate(189.42874 495.213718) rotate(-45) scale(0.2 -0.2)">
       <defs>
        <path id="DejaVuSans-35" d="M 691 4666 
L 3169 4666 
L 3169 4134 
L 1269 4134 
L 1269 2991 
Q 1406 3038 1543 3061 
Q 1681 3084 1819 3084 
Q 2600 3084 3056 2656 
Q 3513 2228 3513 1497 
Q 3513 744 3044 326 
Q 2575 -91 1722 -91 
Q 1428 -91 1123 -41 
Q 819 9 494 109 
L 494 744 
Q 775 591 1075 516 
Q 1375 441 1709 441 
Q 2250 441 2565 725 
Q 2881 1009 2881 1497 
Q 2881 1984 2565 2268 
Q 2250 2553 1709 2553 
Q 1456 2553 1204 2497 
Q 953 2441 691 2322 
L 691 4666 
z
" transform="scale(0.015625)"/>
       </defs>
       <use xlink:href="#DejaVuSans-32"/>
       <use xlink:href="#DejaVuSans-30" x="63.623047"/>
       <use xlink:href="#DejaVuSans-32" x="127.246094"/>
       <use xlink:href="#DejaVuSans-32" x="190.869141"/>
       <use xlink:href="#DejaVuSans-2d" x="254.492188"/>
       <use xlink:href="#DejaVuSans-30" x="290.576172"/>
       <use xlink:href="#DejaVuSans-35" x="354.199219"/>
       <use xlink:href="#DejaVuSans-2d" x="417.822266"/>
       <use xlink:href="#DejaVuSans-32" x="453.90625"/>
       <use xlink:href="#DejaVuSans-34" x="517.529297"/>
      </g>
     </g>
    </g>
    <g id="xtick_5">
     <g id="line2d_5">
      <g>
       <use xlink:href="#m5edc533e9f" x="331.718743" y="395.28" style="stroke: #000000; stroke-width: 0.8"/>
      </g>
     </g>
     <g id="text_5">
      <!-- 2022-06-21 -->
      <g transform="translate(246.589716 495.213718) rotate(-45) scale(0.2 -0.2)">
       <use xlink:href="#DejaVuSans-32"/>
       <use xlink:href="#DejaVuSans-30" x="63.623047"/>
       <use xlink:href="#DejaVuSans-32" x="127.246094"/>
       <use xlink:href="#DejaVuSans-32" x="190.869141"/>
       <use xlink:href="#DejaVuSans-2d" x="254.492188"/>
       <use xlink:href="#DejaVuSans-30" x="290.576172"/>
       <use xlink:href="#DejaVuSans-36" x="354.199219"/>
       <use xlink:href="#DejaVuSans-2d" x="417.822266"/>
       <use xlink:href="#DejaVuSans-32" x="453.90625"/>
       <use xlink:href="#DejaVuSans-31" x="517.529297"/>
      </g>
     </g>
    </g>
    <g id="xtick_6">
     <g id="line2d_6">
      <g>
       <use xlink:href="#m5edc533e9f" x="388.879719" y="395.28" style="stroke: #000000; stroke-width: 0.8"/>
      </g>
     </g>
     <g id="text_6">
      <!-- 2022-07-19 -->
      <g transform="translate(303.750691 495.213718) rotate(-45) scale(0.2 -0.2)">
       <defs>
        <path id="DejaVuSans-37" d="M 525 4666 
L 3525 4666 
L 3525 4397 
L 1831 0 
L 1172 0 
L 2766 4134 
L 525 4134 
L 525 4666 
z
" transform="scale(0.015625)"/>
       </defs>
       <use xlink:href="#DejaVuSans-32"/>
       <use xlink:href="#DejaVuSans-30" x="63.623047"/>
       <use xlink:href="#DejaVuSans-32" x="127.246094"/>
       <use xlink:href="#DejaVuSans-32" x="190.869141"/>
       <use xlink:href="#DejaVuSans-2d" x="254.492188"/>
       <use xlink:href="#DejaVuSans-30" x="290.576172"/>
       <use xlink:href="#DejaVuSans-37" x="354.199219"/>
       <use xlink:href="#DejaVuSans-2d" x="417.822266"/>
       <use xlink:href="#DejaVuSans-31" x="453.90625"/>
       <use xlink:href="#DejaVuSans-39" x="517.529297"/>
      </g>
     </g>
    </g>
    <g id="xtick_7">
     <g id="line2d_7">
      <g>
       <use xlink:href="#m5edc533e9f" x="446.040694" y="395.28" style="stroke: #000000; stroke-width: 0.8"/>
      </g>
     </g>
     <g id="text_7">
      <!-- 2022-08-16 -->
      <g transform="translate(360.911667 495.213718) rotate(-45) scale(0.2 -0.2)">
       <defs>
        <path id="DejaVuSans-38" d="M 2034 2216 
Q 1584 2216 1326 1975 
Q 1069 1734 1069 1313 
Q 1069 891 1326 650 
Q 1584 409 2034 409 
Q 2484 409 2743 651 
Q 3003 894 3003 1313 
Q 3003 1734 2745 1975 
Q 2488 2216 2034 2216 
z
M 1403 2484 
Q 997 2584 770 2862 
Q 544 3141 544 3541 
Q 544 4100 942 4425 
Q 1341 4750 2034 4750 
Q 2731 4750 3128 4425 
Q 3525 4100 3525 3541 
Q 3525 3141 3298 2862 
Q 3072 2584 2669 2484 
Q 3125 2378 3379 2068 
Q 3634 1759 3634 1313 
Q 3634 634 3220 271 
Q 2806 -91 2034 -91 
Q 1263 -91 848 271 
Q 434 634 434 1313 
Q 434 1759 690 2068 
Q 947 2378 1403 2484 
z
M 1172 3481 
Q 1172 3119 1398 2916 
Q 1625 2713 2034 2713 
Q 2441 2713 2670 2916 
Q 2900 3119 2900 3481 
Q 2900 3844 2670 4047 
Q 2441 4250 2034 4250 
Q 1625 4250 1398 4047 
Q 1172 3844 1172 3481 
z
" transform="scale(0.015625)"/>
       </defs>
       <use xlink:href="#DejaVuSans-32"/>
       <use xlink:href="#DejaVuSans-30" x="63.623047"/>
       <use xlink:href="#DejaVuSans-32" x="127.246094"/>
       <use xlink:href="#DejaVuSans-32" x="190.869141"/>
       <use xlink:href="#DejaVuSans-2d" x="254.492188"/>
       <use xlink:href="#DejaVuSans-30" x="290.576172"/>
       <use xlink:href="#DejaVuSans-38" x="354.199219"/>
       <use xlink:href="#DejaVuSans-2d" x="417.822266"/>
       <use xlink:href="#DejaVuSans-31" x="453.90625"/>
       <use xlink:href="#DejaVuSans-36" x="517.529297"/>
      </g>
     </g>
    </g>
    <g id="xtick_8">
     <g id="line2d_8">
      <g>
       <use xlink:href="#m5edc533e9f" x="503.20167" y="395.28" style="stroke: #000000; stroke-width: 0.8"/>
      </g>
     </g>
     <g id="text_8">
      <!-- 2022-09-13 -->
      <g transform="translate(418.072643 495.213718) rotate(-45) scale(0.2 -0.2)">
       <use xlink:href="#DejaVuSans-32"/>
       <use xlink:href="#DejaVuSans-30" x="63.623047"/>
       <use xlink:href="#DejaVuSans-32" x="127.246094"/>
       <use xlink:href="#DejaVuSans-32" x="190.869141"/>
       <use xlink:href="#DejaVuSans-2d" x="254.492188"/>
       <use xlink:href="#DejaVuSans-30" x="290.576172"/>
       <use xlink:href="#DejaVuSans-39" x="354.199219"/>
       <use xlink:href="#DejaVuSans-2d" x="417.822266"/>
       <use xlink:href="#DejaVuSans-31" x="453.90625"/>
       <use xlink:href="#DejaVuSans-33" x="517.529297"/>
      </g>
     </g>
    </g>
    <g id="xtick_9">
     <g id="line2d_9">
      <g>
       <use xlink:href="#m5edc533e9f" x="560.362646" y="395.28" style="stroke: #000000; stroke-width: 0.8"/>
      </g>
     </g>
     <g id="text_9">
      <!-- 2022-10-11 -->
      <g transform="translate(475.233618 495.213718) rotate(-45) scale(0.2 -0.2)">
       <use xlink:href="#DejaVuSans-32"/>
       <use xlink:href="#DejaVuSans-30" x="63.623047"/>
       <use xlink:href="#DejaVuSans-32" x="127.246094"/>
       <use xlink:href="#DejaVuSans-32" x="190.869141"/>
       <use xlink:href="#DejaVuSans-2d" x="254.492188"/>
       <use xlink:href="#DejaVuSans-31" x="290.576172"/>
       <use xlink:href="#DejaVuSans-30" x="354.199219"/>
       <use xlink:href="#DejaVuSans-2d" x="417.822266"/>
       <use xlink:href="#DejaVuSans-31" x="453.90625"/>
       <use xlink:href="#DejaVuSans-31" x="517.529297"/>
      </g>
     </g>
    </g>
    <g id="xtick_10">
     <g id="line2d_10">
      <g>
       <use xlink:href="#m5edc533e9f" x="617.523621" y="395.28" style="stroke: #000000; stroke-width: 0.8"/>
      </g>
     </g>
     <g id="text_10">
      <!-- 2022-11-08 -->
      <g transform="translate(532.394594 495.213718) rotate(-45) scale(0.2 -0.2)">
       <use xlink:href="#DejaVuSans-32"/>
       <use xlink:href="#DejaVuSans-30" x="63.623047"/>
       <use xlink:href="#DejaVuSans-32" x="127.246094"/>
       <use xlink:href="#DejaVuSans-32" x="190.869141"/>
       <use xlink:href="#DejaVuSans-2d" x="254.492188"/>
       <use xlink:href="#DejaVuSans-31" x="290.576172"/>
       <use xlink:href="#DejaVuSans-31" x="354.199219"/>
       <use xlink:href="#DejaVuSans-2d" x="417.822266"/>
       <use xlink:href="#DejaVuSans-30" x="453.90625"/>
       <use xlink:href="#DejaVuSans-38" x="517.529297"/>
      </g>
     </g>
    </g>
    <g id="xtick_11">
     <g id="line2d_11">
      <g>
       <use xlink:href="#m5edc533e9f" x="674.684597" y="395.28" style="stroke: #000000; stroke-width: 0.8"/>
      </g>
     </g>
     <g id="text_11">
      <!-- 2022-12-06 -->
      <g transform="translate(589.555569 495.213718) rotate(-45) scale(0.2 -0.2)">
       <use xlink:href="#DejaVuSans-32"/>
       <use xlink:href="#DejaVuSans-30" x="63.623047"/>
       <use xlink:href="#DejaVuSans-32" x="127.246094"/>
       <use xlink:href="#DejaVuSans-32" x="190.869141"/>
       <use xlink:href="#DejaVuSans-2d" x="254.492188"/>
       <use xlink:href="#DejaVuSans-31" x="290.576172"/>
       <use xlink:href="#DejaVuSans-32" x="354.199219"/>
       <use xlink:href="#DejaVuSans-2d" x="417.822266"/>
       <use xlink:href="#DejaVuSans-30" x="453.90625"/>
       <use xlink:href="#DejaVuSans-36" x="517.529297"/>
      </g>
     </g>
    </g>
    <g id="xtick_12">
     <g id="line2d_12">
      <g>
       <use xlink:href="#m5edc533e9f" x="731.845572" y="395.28" style="stroke: #000000; stroke-width: 0.8"/>
      </g>
     </g>
     <g id="text_12">
      <!-- 2023-01-03 -->
      <g transform="translate(646.716545 495.213718) rotate(-45) scale(0.2 -0.2)">
       <use xlink:href="#DejaVuSans-32"/>
       <use xlink:href="#DejaVuSans-30" x="63.623047"/>
       <use xlink:href="#DejaVuSans-32" x="127.246094"/>
       <use xlink:href="#DejaVuSans-33" x="190.869141"/>
       <use xlink:href="#DejaVuSans-2d" x="254.492188"/>
       <use xlink:href="#DejaVuSans-30" x="290.576172"/>
       <use xlink:href="#DejaVuSans-31" x="354.199219"/>
       <use xlink:href="#DejaVuSans-2d" x="417.822266"/>
       <use xlink:href="#DejaVuSans-30" x="453.90625"/>
       <use xlink:href="#DejaVuSans-33" x="517.529297"/>
      </g>
     </g>
    </g>
    <g id="xtick_13">
     <g id="line2d_13">
      <g>
       <use xlink:href="#m5edc533e9f" x="789.006548" y="395.28" style="stroke: #000000; stroke-width: 0.8"/>
      </g>
     </g>
     <g id="text_13">
      <!-- 2023-01-31 -->
      <g transform="translate(703.877521 495.213718) rotate(-45) scale(0.2 -0.2)">
       <use xlink:href="#DejaVuSans-32"/>
       <use xlink:href="#DejaVuSans-30" x="63.623047"/>
       <use xlink:href="#DejaVuSans-32" x="127.246094"/>
       <use xlink:href="#DejaVuSans-33" x="190.869141"/>
       <use xlink:href="#DejaVuSans-2d" x="254.492188"/>
       <use xlink:href="#DejaVuSans-30" x="290.576172"/>
       <use xlink:href="#DejaVuSans-31" x="354.199219"/>
       <use xlink:href="#DejaVuSans-2d" x="417.822266"/>
       <use xlink:href="#DejaVuSans-33" x="453.90625"/>
       <use xlink:href="#DejaVuSans-31" x="517.529297"/>
      </g>
     </g>
    </g>
    <g id="xtick_14">
     <g id="line2d_14">
      <g>
       <use xlink:href="#m5edc533e9f" x="846.167524" y="395.28" style="stroke: #000000; stroke-width: 0.8"/>
      </g>
     </g>
     <g id="text_14">
      <!-- 2023-02-28 -->
      <g transform="translate(761.038496 495.213718) rotate(-45) scale(0.2 -0.2)">
       <use xlink:href="#DejaVuSans-32"/>
       <use xlink:href="#DejaVuSans-30" x="63.623047"/>
       <use xlink:href="#DejaVuSans-32" x="127.246094"/>
       <use xlink:href="#DejaVuSans-33" x="190.869141"/>
       <use xlink:href="#DejaVuSans-2d" x="254.492188"/>
       <use xlink:href="#DejaVuSans-30" x="290.576172"/>
       <use xlink:href="#DejaVuSans-32" x="354.199219"/>
       <use xlink:href="#DejaVuSans-2d" x="417.822266"/>
       <use xlink:href="#DejaVuSans-32" x="453.90625"/>
       <use xlink:href="#DejaVuSans-38" x="517.529297"/>
      </g>
     </g>
    </g>
    <g id="xtick_15">
     <g id="line2d_15">
      <g>
       <use xlink:href="#m5edc533e9f" x="903.328499" y="395.28" style="stroke: #000000; stroke-width: 0.8"/>
      </g>
     </g>
     <g id="text_15">
      <!-- 2023-03-28 -->
      <g transform="translate(818.199472 495.213718) rotate(-45) scale(0.2 -0.2)">
       <use xlink:href="#DejaVuSans-32"/>
       <use xlink:href="#DejaVuSans-30" x="63.623047"/>
       <use xlink:href="#DejaVuSans-32" x="127.246094"/>
       <use xlink:href="#DejaVuSans-33" x="190.869141"/>
       <use xlink:href="#DejaVuSans-2d" x="254.492188"/>
       <use xlink:href="#DejaVuSans-30" x="290.576172"/>
       <use xlink:href="#DejaVuSans-33" x="354.199219"/>
       <use xlink:href="#DejaVuSans-2d" x="417.822266"/>
       <use xlink:href="#DejaVuSans-32" x="453.90625"/>
       <use xlink:href="#DejaVuSans-38" x="517.529297"/>
      </g>
     </g>
    </g>
    <g id="xtick_16">
     <g id="line2d_16">
      <g>
       <use xlink:href="#m5edc533e9f" x="940.074841" y="395.28" style="stroke: #000000; stroke-width: 0.8"/>
      </g>
     </g>
     <g id="text_16">
      <!-- 2023-04-15 -->
      <g transform="translate(854.945813 495.213718) rotate(-45) scale(0.2 -0.2)">
       <use xlink:href="#DejaVuSans-32"/>
       <use xlink:href="#DejaVuSans-30" x="63.623047"/>
       <use xlink:href="#DejaVuSans-32" x="127.246094"/>
       <use xlink:href="#DejaVuSans-33" x="190.869141"/>
       <use xlink:href="#DejaVuSans-2d" x="254.492188"/>
       <use xlink:href="#DejaVuSans-30" x="290.576172"/>
       <use xlink:href="#DejaVuSans-34" x="354.199219"/>
       <use xlink:href="#DejaVuSans-2d" x="417.822266"/>
       <use xlink:href="#DejaVuSans-31" x="453.90625"/>
       <use xlink:href="#DejaVuSans-35" x="517.529297"/>
      </g>
     </g>
    </g>
   </g>
   <g id="matplotlib.axis_2">
    <g id="ytick_1">
     <g id="line2d_17">
      <defs>
       <path id="m567c8905f1" d="M 0 0 
L -3.5 0 
" style="stroke: #000000; stroke-width: 0.8"/>
      </defs>
      <g>
       <use xlink:href="#m567c8905f1" x="103.074841" y="387.338174" style="stroke: #000000; stroke-width: 0.8"/>
      </g>
     </g>
     <g id="text_17">
      <!-- 0.05 -->
      <g transform="translate(34.784216 394.936611) scale(0.2 -0.2)">
       <defs>
        <path id="DejaVuSans-2212" d="M 678 2272 
L 4684 2272 
L 4684 1741 
L 678 1741 
L 678 2272 
z
" transform="scale(0.015625)"/>
        <path id="DejaVuSans-2e" d="M 684 794 
L 1344 794 
L 1344 0 
L 684 0 
L 684 794 
z
" transform="scale(0.015625)"/>
       </defs>
       <use xlink:href="#DejaVuSans-2212"/>
       <use xlink:href="#DejaVuSans-30" x="83.789062"/>
       <use xlink:href="#DejaVuSans-2e" x="147.412109"/>
       <use xlink:href="#DejaVuSans-30" x="179.199219"/>
       <use xlink:href="#DejaVuSans-35" x="242.822266"/>
      </g>
     </g>
    </g>
    <g id="ytick_2">
     <g id="line2d_18">
      <g>
       <use xlink:href="#m567c8905f1" x="103.074841" y="305.024572" style="stroke: #000000; stroke-width: 0.8"/>
      </g>
     </g>
     <g id="text_18">
      <!-- 0.00 -->
      <g transform="translate(51.543591 312.623009) scale(0.2 -0.2)">
       <use xlink:href="#DejaVuSans-30"/>
       <use xlink:href="#DejaVuSans-2e" x="63.623047"/>
       <use xlink:href="#DejaVuSans-30" x="95.410156"/>
       <use xlink:href="#DejaVuSans-30" x="159.033203"/>
      </g>
     </g>
    </g>
    <g id="ytick_3">
     <g id="line2d_19">
      <g>
       <use xlink:href="#m567c8905f1" x="103.074841" y="222.71097" style="stroke: #000000; stroke-width: 0.8"/>
      </g>
     </g>
     <g id="text_19">
      <!-- 0.05 -->
      <g transform="translate(51.543591 230.309407) scale(0.2 -0.2)">
       <use xlink:href="#DejaVuSans-30"/>
       <use xlink:href="#DejaVuSans-2e" x="63.623047"/>
       <use xlink:href="#DejaVuSans-30" x="95.410156"/>
       <use xlink:href="#DejaVuSans-35" x="159.033203"/>
      </g>
     </g>
    </g>
    <g id="ytick_4">
     <g id="line2d_20">
      <g>
       <use xlink:href="#m567c8905f1" x="103.074841" y="140.397368" style="stroke: #000000; stroke-width: 0.8"/>
      </g>
     </g>
     <g id="text_20">
      <!-- 0.10 -->
      <g transform="translate(51.543591 147.995805) scale(0.2 -0.2)">
       <use xlink:href="#DejaVuSans-30"/>
       <use xlink:href="#DejaVuSans-2e" x="63.623047"/>
       <use xlink:href="#DejaVuSans-31" x="95.410156"/>
       <use xlink:href="#DejaVuSans-30" x="159.033203"/>
      </g>
     </g>
    </g>
    <g id="ytick_5">
     <g id="line2d_21">
      <g>
       <use xlink:href="#m567c8905f1" x="103.074841" y="58.083766" style="stroke: #000000; stroke-width: 0.8"/>
      </g>
     </g>
     <g id="text_21">
      <!-- 0.15 -->
      <g transform="translate(51.543591 65.682203) scale(0.2 -0.2)">
       <use xlink:href="#DejaVuSans-30"/>
       <use xlink:href="#DejaVuSans-2e" x="63.623047"/>
       <use xlink:href="#DejaVuSans-31" x="95.410156"/>
       <use xlink:href="#DejaVuSans-35" x="159.033203"/>
      </g>
     </g>
    </g>
   </g>
   <g id="line2d_22">
    <path d="M 940.074841 305.024572 
" clip-path="url(#paf249631b7)" style="fill: none; stroke: #ffa500; stroke-width: 1.5; stroke-linecap: square"/>
   </g>
   <g id="line2d_23">
    <path d="M 103.074841 305.024572 
L 948.274841 305.024572 
" clip-path="url(#paf249631b7)" style="fill: none; stroke-dasharray: 7.4,3.2; stroke-dashoffset: 0; stroke: #000000; stroke-width: 2"/>
   </g>
   <g id="patch_3">
    <path d="M 103.074841 395.28 
L 103.074841 7.2 
" style="fill: none; stroke: #000000; stroke-width: 0.8; stroke-linejoin: miter; stroke-linecap: square"/>
   </g>
   <g id="patch_4">
    <path d="M 940.074841 395.28 
L 940.074841 7.2 
" style="fill: none; stroke: #000000; stroke-width: 0.8; stroke-linejoin: miter; stroke-linecap: square"/>
   </g>
   <g id="patch_5">
    <path d="M 103.074841 395.28 
L 940.074841 395.28 
" style="fill: none; stroke: #000000; stroke-width: 0.8; stroke-linejoin: miter; stroke-linecap: square"/>
   </g>
   <g id="patch_6">
    <path d="M 103.074841 7.2 
L 940.074841 7.2 
" style="fill: none; stroke: #000000; stroke-width: 0.8; stroke-linejoin: miter; stroke-linecap: square"/>
   </g>
  </g>
 </g>
 <defs>
  <clipPath id="paf249631b7">
   <rect x="103.074841" y="7.2" width="837" height="388.08"/>
  </clipPath>
 </defs>
</svg>
