<?xml version="1.0" encoding="utf-8" standalone="no"?>
<!DOCTYPE svg PUBLIC "-//W3C//DTD SVG 1.1//EN"
  "http://www.w3.org/Graphics/SVG/1.1/DTD/svg11.dtd">
<svg xmlns:xlink="http://www.w3.org/1999/xlink" width="947.274841pt" height="509.128048pt" viewBox="0 0 947.274841 509.128048" xmlns="http://www.w3.org/2000/svg" version="1.1">
 <metadata>
  <rdf:RDF xmlns:dc="http://purl.org/dc/elements/1.1/" xmlns:cc="http://creativecommons.org/ns#" xmlns:rdf="http://www.w3.org/1999/02/22-rdf-syntax-ns#">
   <cc:Work>
    <dc:type rdf:resource="http://purl.org/dc/dcmitype/StillImage"/>
    <dc:date>2023-11-15T18:15:51.005930</dc:date>
    <dc:format>image/svg+xml</dc:format>
    <dc:creator>
     <cc:Agent>
      <dc:title>Matplotlib v3.7.2, https://matplotlib.org/</dc:title>
     </cc:Agent>
    </dc:creator>
   </cc:Work>
  </rdf:RDF>
 </metadata>
 <defs>
  <style type="text/css">*{stroke-linejoin: round; stroke-linecap: butt}</style>
 </defs>
 <g id="figure_1">
  <g id="patch_1">
   <path d="M 0 509.128048 
L 947.274841 509.128048 
L 947.274841 0 
L 0 0 
z
" style="fill: #ffffff"/>
  </g>
  <g id="axes_1">
   <g id="patch_2">
    <path d="M 103.074841 399.053207 
L 940.074841 399.053207 
L 940.074841 10.973207 
L 103.074841 10.973207 
z
" style="fill: #ffffff"/>
   </g>
   <g id="PolyCollection_1">
    <path d="M -4315.31939 163.282437 
L -4315.31939 163.303966 
L -4307.271313 163.176845 
L -4299.223236 163.069949 
L -4291.175159 162.947825 
L -4283.127082 162.87299 
L -4275.079005 162.781183 
L -4267.030929 162.674302 
L -4258.982852 162.569222 
L -4250.934775 162.47219 
L -4242.886698 162.390185 
L -4234.838621 162.292127 
L -4226.790544 162.188735 
L -4218.742467 162.089465 
L -4210.69439 161.962731 
L -4202.646313 161.861684 
L -4194.598236 161.739077 
L -4186.550159 161.637779 
L -4178.502082 161.493297 
L -4170.454005 161.378973 
L -4162.405929 161.270157 
L -4154.357852 161.137564 
L -4146.309775 161.009536 
L -4138.261698 160.885579 
L -4130.213621 160.731438 
L -4122.165544 160.600857 
L -4114.117467 160.44426 
L -4106.06939 160.286403 
L -4098.021313 160.109903 
L -4089.973236 159.929025 
L -4081.925159 159.754367 
L -4073.877082 159.548786 
L -4065.829005 159.313969 
L -4057.780929 159.111044 
L -4049.732852 158.877039 
L -4041.684775 158.606078 
L -4033.636698 158.359414 
L -4025.588621 158.064731 
L -4017.540544 157.767708 
L -4009.492467 157.463086 
L -4001.44439 157.141267 
L -3993.396313 156.781511 
L -3985.348236 156.397838 
L -3977.300159 155.990876 
L -3969.252082 155.604977 
L -3961.204005 155.142505 
L -3953.155929 154.710425 
L -3945.107852 154.248598 
L -3937.059775 153.788504 
L -3929.011698 153.289929 
L -3920.963621 152.746307 
L -3912.915544 152.253364 
L -3904.867467 151.696329 
L -3896.81939 151.119577 
L -3888.771313 150.559384 
L -3880.723236 150.009056 
L -3872.675159 149.404964 
L -3864.627082 148.79551 
L -3856.579005 148.189479 
L -3848.530929 147.556274 
L -3840.482852 146.916707 
L -3832.434775 146.280731 
L -3824.386698 145.620529 
L -3816.338621 144.960261 
L -3808.290544 144.313911 
L -3800.242467 143.637129 
L -3792.19439 142.905124 
L -3784.146313 142.200921 
L -3776.098236 141.499571 
L -3768.050159 140.811873 
L -3760.002082 140.090493 
L -3751.954005 139.388849 
L -3743.905929 138.67249 
L -3735.857852 138.038021 
L -3727.809775 137.26667 
L -3719.761698 136.614134 
L -3711.713621 135.885677 
L -3703.665544 135.196681 
L -3695.617467 134.465776 
L -3687.56939 133.819408 
L -3679.521313 133.077084 
L -3671.473236 132.385672 
L -3663.425159 131.739195 
L -3655.377082 131.02443 
L -3647.329005 130.367589 
L -3639.280929 129.677161 
L -3631.232852 128.970067 
L -3623.184775 128.291436 
L -3615.136698 127.636726 
L -3607.088621 126.931242 
L -3599.040544 126.25673 
L -3590.992467 125.5628 
L -3582.94439 124.880231 
L -3574.896313 124.228701 
L -3566.848236 123.558316 
L -3558.800159 122.879028 
L -3550.752082 122.277623 
L -3542.704005 121.57994 
L -3534.655929 120.914762 
L -3526.607852 120.260819 
L -3518.559775 119.604569 
L -3510.511698 118.948937 
L -3502.463621 118.282112 
L -3494.415544 117.649601 
L -3486.367467 116.986311 
L -3478.31939 116.303066 
L -3470.271313 115.610275 
L -3462.223236 114.908289 
L -3454.175159 114.256601 
L -3446.127082 113.529702 
L -3438.079005 112.748568 
L -3430.030929 112.020824 
L -3421.982852 111.248619 
L -3413.934775 110.463849 
L -3405.886698 109.630842 
L -3397.838621 108.782218 
L -3389.790544 108.001474 
L -3381.742467 107.098415 
L -3373.69439 106.246152 
L -3365.646313 105.322798 
L -3357.598236 104.484587 
L -3349.550159 103.482951 
L -3341.502082 102.505093 
L -3333.454005 101.558904 
L -3325.405929 100.595775 
L -3317.357852 99.601124 
L -3309.309775 98.558496 
L -3301.261698 97.59012 
L -3293.213621 96.466795 
L -3285.165544 95.494427 
L -3277.117467 94.338383 
L -3269.06939 93.223732 
L -3261.021313 92.140142 
L -3252.973236 91.107657 
L -3244.925159 89.884383 
L -3236.877082 88.793715 
L -3228.829005 87.374878 
L -3220.780929 86.174748 
L -3212.732852 85.068166 
L -3204.684775 83.804293 
L -3196.636698 82.507629 
L -3188.588621 80.996778 
L -3180.540544 79.594119 
L -3172.492467 78.452207 
L -3164.44439 76.561445 
L -3156.396313 75.07888 
L -3148.348236 73.566043 
L -3140.300159 71.997361 
L -3132.252082 70.19433 
L -3124.204005 68.516751 
L -3116.155929 67.303693 
L -3108.107852 65.714101 
L -3100.059775 62.985818 
L -3092.011698 60.733096 
L -3083.963621 59.13321 
L -3075.915544 56.842154 
L -3067.867467 54.989645 
L -3059.81939 53.417459 
L -3051.771313 50.91228 
L -3043.723236 48.034679 
L -3035.675159 46.157099 
L -3027.627082 45.060999 
L -3019.579005 42.721782 
L -3011.530929 41.839969 
L -3003.482852 40.255754 
L -2995.434775 37.713697 
L -2987.386698 37.533331 
L -2979.338621 38.355359 
L -2971.290544 40.377919 
L -2963.242467 37.807907 
L -2955.19439 42.523469 
L -2947.146313 43.641991 
L -2939.098236 36.892789 
L -2931.050159 38.635672 
L -2923.002082 41.631938 
L -2914.954005 40.037119 
L -2906.905929 39.867651 
L -2898.857852 53.219455 
L -2890.809775 72.108473 
L -2882.761698 81.60686 
L -2874.713621 61.495342 
L -2866.665544 72.074227 
L -2858.617467 85.873961 
L -2850.56939 85.211358 
L -2842.521313 113.118393 
L -2834.473236 109.448524 
L -2826.425159 101.073462 
L -2818.377082 80.111727 
L -2810.329005 99.993233 
L -2802.280929 111.978381 
L -2794.232852 107.092912 
L -2786.184775 110.283336 
L -2778.136698 121.599607 
L -2770.088621 120.182195 
L -2762.040544 110.590932 
L -2753.992467 122.83309 
L -2745.94439 125.322247 
L -2737.896313 121.060389 
L -2729.848236 128.869056 
L -2721.800159 131.786849 
L -2713.752082 131.141385 
L -2705.704005 128.907362 
L -2697.655929 131.551489 
L -2689.607852 129.081086 
L -2681.559775 129.419395 
L -2673.511698 131.96766 
L -2665.463621 129.853905 
L -2657.415544 131.202742 
L -2649.367467 131.448272 
L -2641.31939 129.779345 
L -2633.271313 130.639821 
L -2625.223236 128.178193 
L -2617.175159 128.565664 
L -2609.127082 129.547276 
L -2601.079005 129.854575 
L -2593.030929 128.842124 
L -2584.982852 128.027146 
L -2576.934775 128.082073 
L -2568.886698 127.196104 
L -2560.838621 127.365984 
L -2552.790544 127.542136 
L -2544.742467 126.118011 
L -2536.69439 127.466395 
L -2528.646313 126.746753 
L -2520.598236 126.748995 
L -2512.550159 127.341681 
L -2504.502082 126.716012 
L -2496.454005 127.026789 
L -2488.405929 128.096832 
L -2480.357852 129.479672 
L -2472.309775 128.238054 
L -2464.261698 128.642764 
L -2456.213621 128.7408 
L -2448.165544 132.971195 
L -2440.117467 133.967569 
L -2432.06939 136.258363 
L -2424.021313 133.975093 
L -2415.973236 132.875095 
L -2407.925159 134.409956 
L -2399.877082 137.637267 
L -2391.829005 139.091539 
L -2383.780929 136.215091 
L -2375.732852 140.61329 
L -2367.684775 140.953588 
L -2359.636698 141.594376 
L -2351.588621 140.978596 
L -2343.540544 143.69332 
L -2335.492467 144.112901 
L -2327.44439 146.312019 
L -2319.396313 146.55684 
L -2311.348236 147.063148 
L -2303.300159 146.846853 
L -2295.252082 147.52992 
L -2287.204005 148.333519 
L -2279.155929 148.902067 
L -2271.107852 150.491861 
L -2263.059775 151.324416 
L -2255.011698 152.166126 
L -2246.963621 151.462934 
L -2238.915544 151.250161 
L -2230.867467 152.259776 
L -2222.81939 151.934538 
L -2214.771313 153.835051 
L -2206.723236 154.313156 
L -2198.675159 153.661901 
L -2190.627082 153.58808 
L -2182.579005 154.133975 
L -2174.530929 153.346159 
L -2166.482852 154.15173 
L -2158.434775 153.940581 
L -2150.386698 154.124205 
L -2142.338621 153.862772 
L -2134.290544 153.470428 
L -2126.242467 153.516899 
L -2118.19439 153.309968 
L -2110.146313 153.523426 
L -2102.098236 152.833194 
L -2094.050159 152.487402 
L -2086.002082 152.007909 
L -2077.954005 152.339566 
L -2069.905929 151.826777 
L -2061.857852 151.712039 
L -2053.809775 151.342778 
L -2045.761698 149.861441 
L -2037.713621 150.474274 
L -2029.665544 149.643604 
L -2021.617467 149.416219 
L -2013.56939 148.998427 
L -2005.521313 148.205692 
L -1997.473236 147.637617 
L -1989.425159 147.251976 
L -1981.377082 145.975359 
L -1973.329005 146.035932 
L -1965.280929 144.936641 
L -1957.232852 145.26509 
L -1949.184775 144.076714 
L -1941.136698 143.077848 
L -1933.088621 142.665696 
L -1925.040544 142.840952 
L -1916.992467 141.304287 
L -1908.94439 141.158842 
L -1900.896313 140.205939 
L -1892.848236 140.000572 
L -1884.800159 138.873895 
L -1876.752082 138.182378 
L -1868.704005 140.894672 
L -1860.655929 136.573039 
L -1852.607852 138.521002 
L -1844.559775 137.381974 
L -1836.511698 137.405025 
L -1828.463621 136.892951 
L -1820.415544 136.201624 
L -1812.367467 135.754799 
L -1804.31939 135.669537 
L -1796.271313 135.777774 
L -1788.223236 135.687138 
L -1780.175159 141.203604 
L -1772.127082 134.918214 
L -1764.079005 136.065753 
L -1756.030929 145.680664 
L -1747.982852 138.110963 
L -1739.934775 142.404318 
L -1731.886698 143.950833 
L -1723.838621 140.817469 
L -1715.790544 144.396758 
L -1707.742467 151.511047 
L -1699.69439 149.67625 
L -1691.646313 150.165004 
L -1683.598236 155.598114 
L -1675.550159 156.473116 
L -1667.502082 160.437071 
L -1659.454005 165.517867 
L -1651.405929 171.554919 
L -1643.357852 185.516857 
L -1635.309775 183.775223 
L -1627.261698 191.565862 
L -1619.213621 197.815359 
L -1611.165544 201.990938 
L -1603.117467 209.704372 
L -1595.06939 214.584083 
L -1587.021313 207.57794 
L -1578.973236 215.921213 
L -1570.925159 227.38145 
L -1562.877082 233.194079 
L -1554.829005 235.05038 
L -1546.780929 249.54575 
L -1538.732852 251.184747 
L -1530.684775 254.917376 
L -1522.636698 255.223083 
L -1514.588621 268.111382 
L -1506.540544 264.380984 
L -1498.492467 262.908895 
L -1490.44439 273.049411 
L -1482.396313 282.407082 
L -1474.348236 280.917875 
L -1466.300159 285.69476 
L -1458.252082 287.803319 
L -1450.204005 288.286243 
L -1442.155929 287.66843 
L -1434.107852 290.383723 
L -1426.059775 291.893168 
L -1418.011698 300.869485 
L -1409.963621 295.931963 
L -1401.915544 303.820312 
L -1393.867467 302.408101 
L -1385.81939 301.091414 
L -1377.771313 304.768264 
L -1369.723236 306.791539 
L -1361.675159 303.379224 
L -1353.627082 304.8013 
L -1345.579005 304.614095 
L -1337.530929 309.405159 
L -1329.482852 307.514623 
L -1321.434775 306.919722 
L -1313.386698 307.272965 
L -1305.338621 309.788054 
L -1297.290544 308.981082 
L -1289.242467 307.256026 
L -1281.19439 308.322952 
L -1273.146313 305.172686 
L -1265.098236 305.791783 
L -1257.050159 311.386914 
L -1249.002082 311.426355 
L -1240.954005 309.005239 
L -1232.905929 308.013213 
L -1224.857852 308.759463 
L -1216.809775 305.724234 
L -1208.761698 306.929732 
L -1200.713621 307.453247 
L -1192.665544 307.513047 
L -1184.617467 306.263258 
L -1176.56939 304.166277 
L -1168.521313 306.621129 
L -1160.473236 305.379592 
L -1152.425159 306.221991 
L -1144.377082 305.750567 
L -1136.329005 307.088689 
L -1128.280929 305.221935 
L -1120.232852 302.145494 
L -1112.184775 302.445169 
L -1104.136698 300.477956 
L -1096.088621 296.542603 
L -1088.040544 299.716233 
L -1079.992467 295.88504 
L -1071.94439 298.713188 
L -1063.896313 298.397723 
L -1055.848236 299.856665 
L -1047.800159 297.165371 
L -1039.752082 297.669733 
L -1031.704005 298.244935 
L -1023.655929 293.1029 
L -1015.607852 296.252481 
L -1007.559775 296.45086 
L -999.511698 297.093227 
L -991.463621 295.988379 
L -983.415544 297.854919 
L -975.367467 296.565848 
L -967.31939 296.283733 
L -959.271313 292.725404 
L -951.223236 292.108045 
L -943.175159 291.495322 
L -935.127082 291.152223 
L -927.079005 292.239285 
L -919.030929 291.854767 
L -910.982852 289.856892 
L -902.934775 290.789795 
L -894.886698 289.542352 
L -886.838621 289.850907 
L -878.790544 289.983943 
L -870.742467 290.887417 
L -862.69439 288.919545 
L -854.646313 283.616058 
L -846.598236 288.822492 
L -838.550159 288.358469 
L -830.502082 287.86352 
L -822.454005 287.194456 
L -814.405929 284.47461 
L -806.357852 284.836392 
L -798.309775 282.983116 
L -790.261698 283.108759 
L -782.213621 282.141653 
L -774.165544 279.453912 
L -766.117467 277.018734 
L -758.06939 281.00585 
L -750.021313 279.96876 
L -741.973236 276.271643 
L -733.925159 277.670569 
L -725.877082 273.113482 
L -717.829005 271.079983 
L -709.780929 272.421368 
L -701.732852 268.941336 
L -693.684775 274.673221 
L -685.636698 268.797081 
L -677.588621 264.362198 
L -669.540544 266.526696 
L -661.492467 267.973126 
L -653.44439 267.008977 
L -645.396313 268.647117 
L -637.348236 264.953731 
L -629.300159 269.520753 
L -621.252082 264.094869 
L -613.204005 263.92007 
L -605.155929 262.10118 
L -597.107852 258.136192 
L -589.059775 261.473048 
L -581.011698 267.732797 
L -572.963621 258.491137 
L -564.915544 259.498436 
L -556.867467 254.562378 
L -548.81939 258.11632 
L -540.771313 253.67617 
L -532.723236 252.005827 
L -524.675159 249.145168 
L -516.627082 252.632365 
L -508.579005 250.391409 
L -500.530929 252.362628 
L -492.482852 250.854962 
L -484.434775 241.147737 
L -476.386698 245.760271 
L -468.338621 241.512052 
L -460.290544 244.453137 
L -452.242467 242.118213 
L -444.19439 246.609193 
L -436.146313 248.436788 
L -428.098236 247.520964 
L -420.050159 255.170098 
L -412.002082 265.743423 
L -403.954005 248.384496 
L -395.905929 248.755257 
L -387.857852 244.343996 
L -379.809775 248.459047 
L -371.761698 248.474935 
L -363.713621 247.231701 
L -355.665544 260.28992 
L -347.617467 258.301924 
L -339.56939 244.867819 
L -331.521313 254.992773 
L -323.473236 250.603757 
L -315.425159 242.944398 
L -307.377082 256.45632 
L -299.329005 253.721871 
L -291.280929 260.168499 
L -283.232852 251.682698 
L -275.184775 248.035422 
L -267.136698 252.501059 
L -259.088621 250.391307 
L -251.040544 256.35998 
L -242.992467 248.863968 
L -234.94439 258.834531 
L -226.896313 251.809255 
L -218.848236 254.356204 
L -210.800159 250.760852 
L -202.752082 254.89621 
L -194.704005 243.87828 
L -186.655929 255.140565 
L -178.607852 250.856631 
L -170.559775 259.949739 
L -162.511698 257.644454 
L -154.463621 261.774844 
L -146.415544 257.824036 
L -138.367467 259.912809 
L -130.31939 266.923979 
L -122.271313 258.915119 
L -114.223236 255.399089 
L -106.175159 258.048107 
L -98.127082 261.726332 
L -90.079005 254.054378 
L -82.030929 245.581909 
L -73.982852 260.701061 
L -65.934775 271.494792 
L -57.886698 249.88589 
L -49.838621 253.371429 
L -41.790544 256.016781 
L -33.742467 253.983272 
L -25.69439 262.230674 
L -17.646313 261.728779 
L -9.598236 254.838523 
L -1.550159 258.407067 
L 6.497918 258.546421 
L 14.545995 246.114949 
L 22.594071 248.706622 
L 30.642148 242.552993 
L 38.690225 259.601024 
L 46.738302 276.177242 
L 54.786379 271.469476 
L 62.834456 255.48187 
L 70.882533 252.749285 
L 78.93061 252.216373 
L 86.978687 249.907966 
L 95.026764 264.338916 
L 103.074841 246.620168 
L 111.122918 263.247426 
L 119.170995 276.399552 
L 127.219071 262.560054 
L 135.267148 282.963006 
L 143.315225 265.539011 
L 151.363302 279.841541 
L 159.411379 270.077562 
L 167.459456 273.110625 
L 175.507533 282.489975 
L 183.55561 280.87456 
L 191.603687 282.955074 
L 199.651764 281.415121 
L 207.699841 281.073529 
L 215.747918 250.460593 
L 223.795995 288.87184 
L 231.844071 302.908062 
L 239.892148 287.079831 
L 247.940225 294.327048 
L 255.988302 302.608354 
L 264.036379 288.623248 
L 272.084456 302.09464 
L 280.132533 312.548806 
L 288.18061 304.244736 
L 296.228687 309.478781 
L 304.276764 311.463711 
L 312.324841 312.113463 
L 320.372918 314.389739 
L 328.420995 296.470223 
L 336.469071 327.637149 
L 344.517148 326.760675 
L 352.565225 325.460214 
L 360.613302 303.087046 
L 368.661379 329.612256 
L 376.709456 343.338698 
L 384.757533 328.381108 
L 392.80561 327.04612 
L 400.853687 350.773186 
L 408.901764 302.640006 
L 416.949841 343.616388 
L 424.997918 311.377438 
L 433.045995 354.561645 
L 441.094071 335.22344 
L 449.142148 350.834487 
L 457.190225 354.317239 
L 465.238302 357.644685 
L 473.286379 358.318789 
L 481.334456 347.407572 
L 489.382533 347.727697 
L 497.43061 355.980091 
L 505.478687 365.870471 
L 513.526764 364.952574 
L 521.574841 362.28475 
L 529.622918 372.402837 
L 537.670995 370.897558 
L 545.719071 361.008971 
L 553.767148 358.346413 
L 561.815225 378.284921 
L 569.863302 378.548016 
L 577.911379 381.413207 
L 585.959456 369.037528 
L 594.007533 342.213737 
L 602.05561 367.716988 
L 610.103687 359.192389 
L 618.151764 364.61053 
L 626.199841 372.517566 
L 634.247918 358.463143 
L 642.295995 373.637738 
L 650.344071 358.679949 
L 658.392148 356.822446 
L 666.440225 356.864781 
L 674.488302 365.465214 
L 682.536379 363.090593 
L 690.584456 359.696074 
L 698.632533 347.860383 
L 706.68061 352.334429 
L 714.728687 355.359876 
L 722.776764 349.411051 
L 730.824841 356.261952 
L 738.872918 348.544426 
L 746.920995 352.643481 
L 754.969071 360.021495 
L 763.017148 357.522581 
L 771.065225 347.859814 
L 779.113302 346.971165 
L 787.161379 344.302213 
L 795.209456 347.132327 
L 803.257533 345.95925 
L 811.30561 330.88748 
L 819.353687 340.9076 
L 827.401764 274.120565 
L 835.449841 338.872646 
L 843.497918 342.364717 
L 851.545995 331.762031 
L 859.594071 320.780191 
L 867.642148 339.116327 
L 875.690225 329.514222 
L 883.738302 313.419651 
L 891.786379 322.061164 
L 899.834456 321.350751 
L 907.882533 316.288034 
L 915.93061 324.504054 
L 923.978687 316.818445 
L 932.026764 319.382763 
L 940.074841 320.589353 
L 940.074841 124.367437 
L 940.074841 124.367437 
L 932.026764 131.110034 
L 923.978687 128.581851 
L 915.93061 131.685839 
L 907.882533 127.598305 
L 899.834456 129.852102 
L 891.786379 128.331406 
L 883.738302 129.910195 
L 875.690225 135.388969 
L 867.642148 136.532456 
L 859.594071 133.398431 
L 851.545995 134.684942 
L 843.497918 140.746697 
L 835.449841 137.58722 
L 827.401764 126.975594 
L 819.353687 140.027127 
L 811.30561 138.544385 
L 803.257533 142.18611 
L 795.209456 143.063053 
L 787.161379 142.607777 
L 779.113302 145.111125 
L 771.065225 145.722793 
L 763.017148 149.018228 
L 754.969071 150.386802 
L 746.920995 149.388181 
L 738.872918 148.578829 
L 730.824841 150.49464 
L 722.776764 148.193472 
L 714.728687 150.363341 
L 706.68061 150.581666 
L 698.632533 149.635681 
L 690.584456 154.462035 
L 682.536379 155.982532 
L 674.488302 158.337218 
L 666.440225 154.16317 
L 658.392148 155.429755 
L 650.344071 156.993951 
L 642.295995 162.147603 
L 634.247918 157.2106 
L 626.199841 162.657832 
L 618.151764 159.960989 
L 610.103687 158.569817 
L 602.05561 161.922463 
L 594.007533 154.460523 
L 585.959456 162.712089 
L 577.911379 168.552292 
L 569.863302 167.846538 
L 561.815225 167.727376 
L 553.767148 162.259872 
L 545.719071 162.412688 
L 537.670995 166.423199 
L 529.622918 166.862411 
L 521.574841 163.469188 
L 513.526764 164.351211 
L 505.478687 165.847826 
L 497.43061 159.771011 
L 489.382533 158.40698 
L 481.334456 158.872381 
L 473.286379 163.396354 
L 465.238302 163.154394 
L 457.190225 160.967901 
L 449.142148 159.55377 
L 441.094071 153.757691 
L 433.045995 161.204708 
L 424.997918 147.115223 
L 416.949841 158.078241 
L 408.901764 141.868837 
L 400.853687 160.285435 
L 392.80561 150.586902 
L 384.757533 150.286039 
L 376.709456 158.301288 
L 368.661379 151.50815 
L 360.613302 140.974231 
L 352.565225 150.506951 
L 344.517148 150.389688 
L 336.469071 150.567907 
L 328.420995 136.50082 
L 320.372918 148.678949 
L 312.324841 143.426198 
L 304.276764 142.107033 
L 296.228687 141.489278 
L 288.18061 140.011858 
L 280.132533 143.489327 
L 272.084456 138.942169 
L 264.036379 131.883186 
L 255.988302 136.206737 
L 247.940225 135.289992 
L 239.892148 129.123944 
L 231.844071 136.967585 
L 223.795995 129.93751 
L 215.747918 111.454891 
L 207.699841 126.812879 
L 199.651764 126.732659 
L 191.603687 126.784606 
L 183.55561 125.519504 
L 175.507533 126.451108 
L 167.459456 121.159144 
L 159.411379 118.761886 
L 151.363302 123.21813 
L 143.315225 117.82527 
L 135.267148 125.139675 
L 127.219071 114.48673 
L 119.170995 122.357827 
L 111.122918 114.277702 
L 103.074841 103.928495 
L 95.026764 114.783567 
L 86.978687 106.582868 
L 78.93061 107.016095 
L 70.882533 106.040276 
L 62.834456 107.557052 
L 54.786379 116.985118 
L 46.738302 118.984796 
L 38.690225 108.624076 
L 30.642148 99.819757 
L 22.594071 102.311584 
L 14.545995 99.379156 
L 6.497918 106.742805 
L -1.550159 106.379489 
L -9.598236 104.242149 
L -17.646313 107.000962 
L -25.69439 108.31136 
L -33.742467 102.6518 
L -41.790544 102.031185 
L -49.838621 100.523504 
L -57.886698 97.127253 
L -65.934775 109.802024 
L -73.982852 104.768681 
L -82.030929 93.092085 
L -90.079005 96.591927 
L -98.127082 102.226923 
L -106.175159 99.493039 
L -114.223236 96.724649 
L -122.271313 97.978174 
L -130.31939 100.875513 
L -138.367467 98.41703 
L -146.415544 95.051 
L -154.463621 96.954957 
L -162.511698 97.070621 
L -170.559775 94.489771 
L -178.607852 89.130999 
L -186.655929 89.842947 
L -194.704005 81.648005 
L -202.752082 89.917242 
L -210.800159 85.412889 
L -218.848236 86.753235 
L -226.896313 82.790234 
L -234.94439 88.836098 
L -242.992467 81.112058 
L -251.040544 84.460148 
L -259.088621 79.923009 
L -267.136698 80.250341 
L -275.184775 75.66079 
L -283.232852 81.369841 
L -291.280929 84.169442 
L -299.329005 76.710523 
L -307.377082 79.607509 
L -315.425159 67.878756 
L -323.473236 71.458037 
L -331.521313 76.944561 
L -339.56939 67.460703 
L -347.617467 79.114204 
L -355.665544 76.112987 
L -363.713621 66.979003 
L -371.761698 67.608497 
L -379.809775 67.186135 
L -387.857852 63.311795 
L -395.905929 63.62789 
L -403.954005 64.397331 
L -412.002082 78.460363 
L -420.050159 67.772126 
L -428.098236 61.539813 
L -436.146313 62.376687 
L -444.19439 60.44528 
L -452.242467 54.779293 
L -460.290544 54.684922 
L -468.338621 54.504942 
L -476.386698 54.638736 
L -484.434775 51.113089 
L -492.482852 61.192466 
L -500.530929 61.004795 
L -508.579005 58.114435 
L -516.627082 60.408949 
L -524.675159 57.182253 
L -532.723236 58.303361 
L -540.771313 60.664299 
L -548.81939 61.48696 
L -556.867467 60.402444 
L -564.915544 63.978976 
L -572.963621 63.943045 
L -581.011698 72.872606 
L -589.059775 65.917417 
L -597.107852 62.276573 
L -605.155929 66.065956 
L -613.204005 70.2745 
L -621.252082 69.783022 
L -629.300159 73.138892 
L -637.348236 68.515119 
L -645.396313 71.980937 
L -653.44439 71.246686 
L -661.492467 73.950889 
L -669.540544 73.738677 
L -677.588621 70.726359 
L -685.636698 74.653437 
L -693.684775 81.544519 
L -701.732852 76.59939 
L -709.780929 81.077546 
L -717.829005 81.778668 
L -725.877082 82.202546 
L -733.925159 88.411007 
L -741.973236 87.700327 
L -750.021313 91.693498 
L -758.06939 93.891731 
L -766.117467 90.695565 
L -774.165544 95.251569 
L -782.213621 98.825864 
L -790.261698 100.563131 
L -798.309775 101.595985 
L -806.357852 104.213428 
L -814.405929 106.046434 
L -822.454005 109.809371 
L -830.502082 112.310434 
L -838.550159 114.782381 
L -846.598236 116.20898 
L -854.646313 114.529859 
L -862.69439 119.422345 
L -870.742467 123.391038 
L -878.790544 124.703429 
L -886.838621 127.550903 
L -894.886698 127.220151 
L -902.934775 130.731044 
L -910.982852 132.10021 
L -919.030929 135.390386 
L -927.079005 137.871358 
L -935.127082 139.050177 
L -943.175159 142.604865 
L -951.223236 144.726263 
L -959.271313 147.176258 
L -967.31939 151.644133 
L -975.367467 155.043501 
L -983.415544 158.536948 
L -991.463621 159.182516 
L -999.511698 162.612703 
L -1007.559775 164.306533 
L -1015.607852 166.177605 
L -1023.655929 166.693458 
L -1031.704005 172.154062 
L -1039.752082 174.114367 
L -1047.800159 175.82657 
L -1055.848236 180.486712 
L -1063.896313 181.594103 
L -1071.94439 183.974437 
L -1079.992467 183.327014 
L -1088.040544 189.695593 
L -1096.088621 188.423572 
L -1104.136698 193.41948 
L -1112.184775 197.317193 
L -1120.232852 198.825287 
L -1128.280929 203.273826 
L -1136.329005 206.344992 
L -1144.377082 207.608423 
L -1152.425159 209.766151 
L -1160.473236 211.444179 
L -1168.521313 214.283105 
L -1176.56939 214.326559 
L -1184.617467 217.883959 
L -1192.665544 220.198617 
L -1200.713621 222.315493 
L -1208.761698 223.680174 
L -1216.809775 224.164151 
L -1224.857852 229.075727 
L -1232.905929 230.053602 
L -1240.954005 232.226922 
L -1249.002082 236.90012 
L -1257.050159 238.622425 
L -1265.098236 234.151881 
L -1273.146313 235.117317 
L -1281.19439 240.015895 
L -1289.242467 240.070162 
L -1297.290544 243.771757 
L -1305.338621 246.301014 
L -1313.386698 245.327719 
L -1321.434775 245.292707 
L -1329.482852 247.766811 
L -1337.530929 251.531939 
L -1345.579005 248.009352 
L -1353.627082 249.20399 
L -1361.675159 248.506969 
L -1369.723236 253.897749 
L -1377.771313 251.981312 
L -1385.81939 249.65486 
L -1393.867467 252.122001 
L -1401.915544 255.392833 
L -1409.963621 247.72361 
L -1418.011698 254.158257 
L -1426.059775 245.122972 
L -1434.107852 244.411844 
L -1442.155929 242.240265 
L -1450.204005 243.324299 
L -1458.252082 244.019293 
L -1466.300159 243.121081 
L -1474.348236 238.200679 
L -1482.396313 240.008292 
L -1490.44439 230.978807 
L -1498.492467 217.835279 
L -1506.540544 221.511295 
L -1514.588621 227.35135 
L -1522.636698 211.730279 
L -1530.684775 213.824896 
L -1538.732852 209.178306 
L -1546.780929 208.213244 
L -1554.829005 189.403001 
L -1562.877082 186.642671 
L -1570.925159 180.018952 
L -1578.973236 165.763497 
L -1587.021313 154.213799 
L -1595.06939 165.378509 
L -1603.117467 158.961592 
L -1611.165544 148.987391 
L -1619.213621 144.643282 
L -1627.261698 137.362475 
L -1635.309775 127.720172 
L -1643.357852 130.653204 
L -1651.405929 114.504793 
L -1659.454005 105.616392 
L -1667.502082 101.143942 
L -1675.550159 97.199821 
L -1683.598236 97.859827 
L -1691.646313 93.010993 
L -1699.69439 95.052625 
L -1707.742467 98.076154 
L -1715.790544 89.478732 
L -1723.838621 87.331439 
L -1731.886698 92.742644 
L -1739.934775 92.68577 
L -1747.982852 88.25976 
L -1756.030929 100.780006 
L -1764.079005 88.842553 
L -1772.127082 90.247608 
L -1780.175159 99.096987 
L -1788.223236 93.910762 
L -1796.271313 95.711127 
L -1804.31939 97.027298 
L -1812.367467 98.931283 
L -1820.415544 100.594202 
L -1828.463621 102.75655 
L -1836.511698 104.514853 
L -1844.559775 105.473136 
L -1852.607852 108.474385 
L -1860.655929 107.218938 
L -1868.704005 113.49405 
L -1876.752082 111.215686 
L -1884.800159 112.987553 
L -1892.848236 115.491518 
L -1900.896313 116.648896 
L -1908.94439 118.914554 
L -1916.992467 119.740021 
L -1925.040544 122.498406 
L -1933.088621 123.077145 
L -1941.136698 124.614147 
L -1949.184775 126.477199 
L -1957.232852 128.613124 
L -1965.280929 128.976527 
L -1973.329005 131.082605 
L -1981.377082 131.406832 
L -1989.425159 133.637728 
L -1997.473236 134.693061 
L -2005.521313 136.165761 
L -2013.56939 137.51236 
L -2021.617467 138.681105 
L -2029.665544 139.379095 
L -2037.713621 140.985812 
L -2045.761698 140.645608 
L -2053.809775 142.998953 
L -2061.857852 143.96937 
L -2069.905929 144.368529 
L -2077.954005 145.547917 
L -2086.002082 146.140105 
L -2094.050159 146.226787 
L -2102.098236 147.182023 
L -2110.146313 148.409538 
L -2118.19439 148.804869 
L -2126.242467 148.772896 
L -2134.290544 149.143787 
L -2142.338621 149.336654 
L -2150.386698 149.710685 
L -2158.434775 149.579466 
L -2166.482852 149.659806 
L -2174.530929 149.322471 
L -2182.579005 149.809268 
L -2190.627082 149.527404 
L -2198.675159 149.54407 
L -2206.723236 150.097992 
L -2214.771313 149.820467 
L -2222.81939 148.266089 
L -2230.867467 148.502561 
L -2238.915544 147.628624 
L -2246.963621 147.812167 
L -2255.011698 148.350838 
L -2263.059775 147.656327 
L -2271.107852 146.93795 
L -2279.155929 145.285886 
L -2287.204005 144.763741 
L -2295.252082 143.752129 
L -2303.300159 142.828928 
L -2311.348236 142.941601 
L -2319.396313 142.300313 
L -2327.44439 142.155944 
L -2335.492467 139.626023 
L -2343.540544 138.911392 
L -2351.588621 135.999451 
L -2359.636698 136.682286 
L -2367.684775 135.545446 
L -2375.732852 135.685021 
L -2383.780929 130.945112 
L -2391.829005 133.705322 
L -2399.877082 132.037588 
L -2407.925159 128.437179 
L -2415.973236 126.658253 
L -2424.021313 127.586475 
L -2432.06939 130.009493 
L -2440.117467 127.361459 
L -2448.165544 126.131537 
L -2456.213621 121.37607 
L -2464.261698 120.34568 
L -2472.309775 120.423311 
L -2480.357852 121.716002 
L -2488.405929 120.036899 
L -2496.454005 118.684945 
L -2504.502082 118.207619 
L -2512.550159 118.787989 
L -2520.598236 117.688981 
L -2528.646313 117.817537 
L -2536.69439 118.560019 
L -2544.742467 116.854224 
L -2552.790544 118.333236 
L -2560.838621 118.047634 
L -2568.886698 117.731484 
L -2576.934775 118.521943 
L -2584.982852 118.321647 
L -2593.030929 119.305678 
L -2601.079005 120.439325 
L -2609.127082 119.996113 
L -2617.175159 118.896216 
L -2625.223236 118.012032 
L -2633.271313 121.043785 
L -2641.31939 120.056841 
L -2649.367467 121.98062 
L -2657.415544 121.637596 
L -2665.463621 120.382334 
L -2673.511698 122.305171 
L -2681.559775 119.846858 
L -2689.607852 119.632662 
L -2697.655929 122.206536 
L -2705.704005 119.803776 
L -2713.752082 122.227066 
L -2721.800159 122.788304 
L -2729.848236 120.176634 
L -2737.896313 112.529482 
L -2745.94439 116.942753 
L -2753.992467 114.404157 
L -2762.040544 103.104997 
L -2770.088621 112.203111 
L -2778.136698 113.82909 
L -2786.184775 103.276951 
L -2794.232852 99.975047 
L -2802.280929 105.360078 
L -2810.329005 92.907271 
L -2818.377082 71.687429 
L -2826.425159 94.397592 
L -2834.473236 103.273069 
L -2842.521313 107.273058 
L -2850.56939 78.050913 
L -2858.617467 78.925497 
L -2866.665544 64.532632 
L -2874.713621 53.443904 
L -2882.761698 74.996108 
L -2890.809775 65.199168 
L -2898.857852 45.538078 
L -2906.905929 31.719448 
L -2914.954005 32.202722 
L -2923.002082 34.184063 
L -2931.050159 31.007502 
L -2939.098236 28.996848 
L -2947.146313 36.3018 
L -2955.19439 35.059905 
L -2963.242467 29.689506 
L -2971.290544 32.37323 
L -2979.338621 29.938438 
L -2987.386698 28.786218 
L -2995.434775 28.613207 
L -3003.482852 31.290735 
L -3011.530929 32.730498 
L -3019.579005 33.435163 
L -3027.627082 35.71652 
L -3035.675159 36.614311 
L -3043.723236 38.393252 
L -3051.771313 41.423115 
L -3059.81939 43.707891 
L -3067.867467 45.206897 
L -3075.915544 46.907963 
L -3083.963621 49.268758 
L -3092.011698 50.656349 
L -3100.059775 52.925626 
L -3108.107852 55.734729 
L -3116.155929 57.353865 
L -3124.204005 58.347619 
L -3132.252082 60.013232 
L -3140.300159 61.72452 
L -3148.348236 63.305517 
L -3156.396313 64.817638 
L -3164.44439 66.271024 
L -3172.492467 68.345685 
L -3180.540544 69.338835 
L -3188.588621 70.83206 
L -3196.636698 72.403467 
L -3204.684775 73.704616 
L -3212.732852 74.990373 
L -3220.780929 76.043052 
L -3228.829005 77.198229 
L -3236.877082 78.806686 
L -3244.925159 79.885242 
L -3252.973236 81.176348 
L -3261.021313 82.199818 
L -3269.06939 83.371858 
L -3277.117467 84.576727 
L -3285.165544 85.778916 
L -3293.213621 86.760633 
L -3301.261698 87.94246 
L -3309.309775 88.979313 
L -3317.357852 90.096296 
L -3325.405929 91.12661 
L -3333.454005 92.210015 
L -3341.502082 93.204255 
L -3349.550159 94.277337 
L -3357.598236 95.441464 
L -3365.646313 96.315782 
L -3373.69439 97.426098 
L -3381.742467 98.377232 
L -3389.790544 99.48936 
L -3397.838621 100.290016 
L -3405.886698 101.322981 
L -3413.934775 102.306222 
L -3421.982852 103.240986 
L -3430.030929 104.194072 
L -3438.079005 105.07255 
L -3446.127082 106.104446 
L -3454.175159 107.028803 
L -3462.223236 107.782087 
L -3470.271313 108.684241 
L -3478.31939 109.5841 
L -3486.367467 110.478192 
L -3494.415544 111.337608 
L -3502.463621 112.133449 
L -3510.511698 113.012627 
L -3518.559775 113.871286 
L -3526.607852 114.732618 
L -3534.655929 115.58856 
L -3542.704005 116.466786 
L -3550.752082 117.379618 
L -3558.800159 118.154546 
L -3566.848236 119.04921 
L -3574.896313 119.92354 
L -3582.94439 120.757708 
L -3590.992467 121.618677 
L -3599.040544 122.496892 
L -3607.088621 123.344425 
L -3615.136698 124.236094 
L -3623.184775 125.039747 
L -3631.232852 125.860606 
L -3639.280929 126.731426 
L -3647.329005 127.567768 
L -3655.377082 128.355153 
L -3663.425159 129.192043 
L -3671.473236 129.945345 
L -3679.521313 130.755312 
L -3687.56939 131.62282 
L -3695.617467 132.351134 
L -3703.665544 133.176236 
L -3711.713621 133.949447 
L -3719.761698 134.763645 
L -3727.809775 135.488234 
L -3735.857852 136.352267 
L -3743.905929 137.047004 
L -3751.954005 137.839094 
L -3760.002082 138.610599 
L -3768.050159 139.404029 
L -3776.098236 140.15157 
L -3784.146313 140.915321 
L -3792.19439 141.683004 
L -3800.242467 142.451877 
L -3808.290544 143.143714 
L -3816.338621 143.799253 
L -3824.386698 144.473907 
L -3832.434775 145.155645 
L -3840.482852 145.812108 
L -3848.530929 146.483967 
L -3856.579005 147.149262 
L -3864.627082 147.782355 
L -3872.675159 148.426732 
L -3880.723236 149.069897 
L -3888.771313 149.648659 
L -3896.81939 150.242221 
L -3904.867467 150.868857 
L -3912.915544 151.460876 
L -3920.963621 151.984186 
L -3929.011698 152.573171 
L -3937.059775 153.107759 
L -3945.107852 153.597552 
L -3953.155929 154.091195 
L -3961.204005 154.551581 
L -3969.252082 155.056883 
L -3977.300159 155.466354 
L -3985.348236 155.905813 
L -3993.396313 156.319164 
L -4001.44439 156.70114 
L -4009.492467 157.047451 
L -4017.540544 157.36031 
L -4025.588621 157.673359 
L -4033.636698 157.985799 
L -4041.684775 158.239358 
L -4049.732852 158.529542 
L -4057.780929 158.771278 
L -4065.829005 158.976231 
L -4073.877082 159.224124 
L -4081.925159 159.43872 
L -4089.973236 159.612338 
L -4098.021313 159.802266 
L -4106.06939 159.987263 
L -4114.117467 160.147523 
L -4122.165544 160.309392 
L -4130.213621 160.439498 
L -4138.261698 160.602986 
L -4146.309775 160.728597 
L -4154.357852 160.862547 
L -4162.405929 161.004918 
L -4170.454005 161.117298 
L -4178.502082 161.238276 
L -4186.550159 161.403951 
L -4194.598236 161.515035 
L -4202.646313 161.656629 
L -4210.69439 161.764853 
L -4218.742467 161.91621 
L -4226.790544 162.032341 
L -4234.838621 162.157065 
L -4242.886698 162.264461 
L -4250.934775 162.361341 
L -4258.982852 162.476234 
L -4267.030929 162.607509 
L -4275.079005 162.736053 
L -4283.127082 162.844115 
L -4291.175159 162.926463 
L -4299.223236 163.055352 
L -4307.271313 163.157014 
L -4315.31939 163.282437 
z
" clip-path="url(#p993aafc0ee)" style="fill: #008000; fill-opacity: 0.3; stroke: #008000; stroke-opacity: 0.3"/>
   </g>
   <g id="matplotlib.axis_1">
    <g id="xtick_1">
     <g id="line2d_1">
      <defs>
       <path id="m2bc7d4bef4" d="M 0 0 
L 0 3.5 
" style="stroke: #000000; stroke-width: 0.8"/>
      </defs>
      <g>
       <use xlink:href="#m2bc7d4bef4" x="103.074841" y="399.053207" style="stroke: #000000; stroke-width: 0.8"/>
      </g>
     </g>
     <g id="text_1">
      <!-- 2023-01-01 -->
      <g transform="translate(17.945813 498.986925) rotate(-45) scale(0.2 -0.2)">
       <defs>
        <path id="DejaVuSans-32" d="M 1228 531 
L 3431 531 
L 3431 0 
L 469 0 
L 469 531 
Q 828 903 1448 1529 
Q 2069 2156 2228 2338 
Q 2531 2678 2651 2914 
Q 2772 3150 2772 3378 
Q 2772 3750 2511 3984 
Q 2250 4219 1831 4219 
Q 1534 4219 1204 4116 
Q 875 4013 500 3803 
L 500 4441 
Q 881 4594 1212 4672 
Q 1544 4750 1819 4750 
Q 2544 4750 2975 4387 
Q 3406 4025 3406 3419 
Q 3406 3131 3298 2873 
Q 3191 2616 2906 2266 
Q 2828 2175 2409 1742 
Q 1991 1309 1228 531 
z
" transform="scale(0.015625)"/>
        <path id="DejaVuSans-30" d="M 2034 4250 
Q 1547 4250 1301 3770 
Q 1056 3291 1056 2328 
Q 1056 1369 1301 889 
Q 1547 409 2034 409 
Q 2525 409 2770 889 
Q 3016 1369 3016 2328 
Q 3016 3291 2770 3770 
Q 2525 4250 2034 4250 
z
M 2034 4750 
Q 2819 4750 3233 4129 
Q 3647 3509 3647 2328 
Q 3647 1150 3233 529 
Q 2819 -91 2034 -91 
Q 1250 -91 836 529 
Q 422 1150 422 2328 
Q 422 3509 836 4129 
Q 1250 4750 2034 4750 
z
" transform="scale(0.015625)"/>
        <path id="DejaVuSans-33" d="M 2597 2516 
Q 3050 2419 3304 2112 
Q 3559 1806 3559 1356 
Q 3559 666 3084 287 
Q 2609 -91 1734 -91 
Q 1441 -91 1130 -33 
Q 819 25 488 141 
L 488 750 
Q 750 597 1062 519 
Q 1375 441 1716 441 
Q 2309 441 2620 675 
Q 2931 909 2931 1356 
Q 2931 1769 2642 2001 
Q 2353 2234 1838 2234 
L 1294 2234 
L 1294 2753 
L 1863 2753 
Q 2328 2753 2575 2939 
Q 2822 3125 2822 3475 
Q 2822 3834 2567 4026 
Q 2313 4219 1838 4219 
Q 1578 4219 1281 4162 
Q 984 4106 628 3988 
L 628 4550 
Q 988 4650 1302 4700 
Q 1616 4750 1894 4750 
Q 2613 4750 3031 4423 
Q 3450 4097 3450 3541 
Q 3450 3153 3228 2886 
Q 3006 2619 2597 2516 
z
" transform="scale(0.015625)"/>
        <path id="DejaVuSans-2d" d="M 313 2009 
L 1997 2009 
L 1997 1497 
L 313 1497 
L 313 2009 
z
" transform="scale(0.015625)"/>
        <path id="DejaVuSans-31" d="M 794 531 
L 1825 531 
L 1825 4091 
L 703 3866 
L 703 4441 
L 1819 4666 
L 2450 4666 
L 2450 531 
L 3481 531 
L 3481 0 
L 794 0 
L 794 531 
z
" transform="scale(0.015625)"/>
       </defs>
       <use xlink:href="#DejaVuSans-32"/>
       <use xlink:href="#DejaVuSans-30" x="63.623047"/>
       <use xlink:href="#DejaVuSans-32" x="127.246094"/>
       <use xlink:href="#DejaVuSans-33" x="190.869141"/>
       <use xlink:href="#DejaVuSans-2d" x="254.492188"/>
       <use xlink:href="#DejaVuSans-30" x="290.576172"/>
       <use xlink:href="#DejaVuSans-31" x="354.199219"/>
       <use xlink:href="#DejaVuSans-2d" x="417.822266"/>
       <use xlink:href="#DejaVuSans-30" x="453.90625"/>
       <use xlink:href="#DejaVuSans-31" x="517.529297"/>
      </g>
     </g>
    </g>
    <g id="xtick_2">
     <g id="line2d_2">
      <g>
       <use xlink:href="#m2bc7d4bef4" x="215.747918" y="399.053207" style="stroke: #000000; stroke-width: 0.8"/>
      </g>
     </g>
     <g id="text_2">
      <!-- 2023-01-15 -->
      <g transform="translate(130.61889 498.986925) rotate(-45) scale(0.2 -0.2)">
       <defs>
        <path id="DejaVuSans-35" d="M 691 4666 
L 3169 4666 
L 3169 4134 
L 1269 4134 
L 1269 2991 
Q 1406 3038 1543 3061 
Q 1681 3084 1819 3084 
Q 2600 3084 3056 2656 
Q 3513 2228 3513 1497 
Q 3513 744 3044 326 
Q 2575 -91 1722 -91 
Q 1428 -91 1123 -41 
Q 819 9 494 109 
L 494 744 
Q 775 591 1075 516 
Q 1375 441 1709 441 
Q 2250 441 2565 725 
Q 2881 1009 2881 1497 
Q 2881 1984 2565 2268 
Q 2250 2553 1709 2553 
Q 1456 2553 1204 2497 
Q 953 2441 691 2322 
L 691 4666 
z
" transform="scale(0.015625)"/>
       </defs>
       <use xlink:href="#DejaVuSans-32"/>
       <use xlink:href="#DejaVuSans-30" x="63.623047"/>
       <use xlink:href="#DejaVuSans-32" x="127.246094"/>
       <use xlink:href="#DejaVuSans-33" x="190.869141"/>
       <use xlink:href="#DejaVuSans-2d" x="254.492188"/>
       <use xlink:href="#DejaVuSans-30" x="290.576172"/>
       <use xlink:href="#DejaVuSans-31" x="354.199219"/>
       <use xlink:href="#DejaVuSans-2d" x="417.822266"/>
       <use xlink:href="#DejaVuSans-31" x="453.90625"/>
       <use xlink:href="#DejaVuSans-35" x="517.529297"/>
      </g>
     </g>
    </g>
    <g id="xtick_3">
     <g id="line2d_3">
      <g>
       <use xlink:href="#m2bc7d4bef4" x="328.420995" y="399.053207" style="stroke: #000000; stroke-width: 0.8"/>
      </g>
     </g>
     <g id="text_3">
      <!-- 2023-01-29 -->
      <g transform="translate(243.291967 498.986925) rotate(-45) scale(0.2 -0.2)">
       <defs>
        <path id="DejaVuSans-39" d="M 703 97 
L 703 672 
Q 941 559 1184 500 
Q 1428 441 1663 441 
Q 2288 441 2617 861 
Q 2947 1281 2994 2138 
Q 2813 1869 2534 1725 
Q 2256 1581 1919 1581 
Q 1219 1581 811 2004 
Q 403 2428 403 3163 
Q 403 3881 828 4315 
Q 1253 4750 1959 4750 
Q 2769 4750 3195 4129 
Q 3622 3509 3622 2328 
Q 3622 1225 3098 567 
Q 2575 -91 1691 -91 
Q 1453 -91 1209 -44 
Q 966 3 703 97 
z
M 1959 2075 
Q 2384 2075 2632 2365 
Q 2881 2656 2881 3163 
Q 2881 3666 2632 3958 
Q 2384 4250 1959 4250 
Q 1534 4250 1286 3958 
Q 1038 3666 1038 3163 
Q 1038 2656 1286 2365 
Q 1534 2075 1959 2075 
z
" transform="scale(0.015625)"/>
       </defs>
       <use xlink:href="#DejaVuSans-32"/>
       <use xlink:href="#DejaVuSans-30" x="63.623047"/>
       <use xlink:href="#DejaVuSans-32" x="127.246094"/>
       <use xlink:href="#DejaVuSans-33" x="190.869141"/>
       <use xlink:href="#DejaVuSans-2d" x="254.492188"/>
       <use xlink:href="#DejaVuSans-30" x="290.576172"/>
       <use xlink:href="#DejaVuSans-31" x="354.199219"/>
       <use xlink:href="#DejaVuSans-2d" x="417.822266"/>
       <use xlink:href="#DejaVuSans-32" x="453.90625"/>
       <use xlink:href="#DejaVuSans-39" x="517.529297"/>
      </g>
     </g>
    </g>
    <g id="xtick_4">
     <g id="line2d_4">
      <g>
       <use xlink:href="#m2bc7d4bef4" x="441.094071" y="399.053207" style="stroke: #000000; stroke-width: 0.8"/>
      </g>
     </g>
     <g id="text_4">
      <!-- 2023-02-12 -->
      <g transform="translate(355.965044 498.986925) rotate(-45) scale(0.2 -0.2)">
       <use xlink:href="#DejaVuSans-32"/>
       <use xlink:href="#DejaVuSans-30" x="63.623047"/>
       <use xlink:href="#DejaVuSans-32" x="127.246094"/>
       <use xlink:href="#DejaVuSans-33" x="190.869141"/>
       <use xlink:href="#DejaVuSans-2d" x="254.492188"/>
       <use xlink:href="#DejaVuSans-30" x="290.576172"/>
       <use xlink:href="#DejaVuSans-32" x="354.199219"/>
       <use xlink:href="#DejaVuSans-2d" x="417.822266"/>
       <use xlink:href="#DejaVuSans-31" x="453.90625"/>
       <use xlink:href="#DejaVuSans-32" x="517.529297"/>
      </g>
     </g>
    </g>
    <g id="xtick_5">
     <g id="line2d_5">
      <g>
       <use xlink:href="#m2bc7d4bef4" x="553.767148" y="399.053207" style="stroke: #000000; stroke-width: 0.8"/>
      </g>
     </g>
     <g id="text_5">
      <!-- 2023-02-26 -->
      <g transform="translate(468.638121 498.986925) rotate(-45) scale(0.2 -0.2)">
       <defs>
        <path id="DejaVuSans-36" d="M 2113 2584 
Q 1688 2584 1439 2293 
Q 1191 2003 1191 1497 
Q 1191 994 1439 701 
Q 1688 409 2113 409 
Q 2538 409 2786 701 
Q 3034 994 3034 1497 
Q 3034 2003 2786 2293 
Q 2538 2584 2113 2584 
z
M 3366 4563 
L 3366 3988 
Q 3128 4100 2886 4159 
Q 2644 4219 2406 4219 
Q 1781 4219 1451 3797 
Q 1122 3375 1075 2522 
Q 1259 2794 1537 2939 
Q 1816 3084 2150 3084 
Q 2853 3084 3261 2657 
Q 3669 2231 3669 1497 
Q 3669 778 3244 343 
Q 2819 -91 2113 -91 
Q 1303 -91 875 529 
Q 447 1150 447 2328 
Q 447 3434 972 4092 
Q 1497 4750 2381 4750 
Q 2619 4750 2861 4703 
Q 3103 4656 3366 4563 
z
" transform="scale(0.015625)"/>
       </defs>
       <use xlink:href="#DejaVuSans-32"/>
       <use xlink:href="#DejaVuSans-30" x="63.623047"/>
       <use xlink:href="#DejaVuSans-32" x="127.246094"/>
       <use xlink:href="#DejaVuSans-33" x="190.869141"/>
       <use xlink:href="#DejaVuSans-2d" x="254.492188"/>
       <use xlink:href="#DejaVuSans-30" x="290.576172"/>
       <use xlink:href="#DejaVuSans-32" x="354.199219"/>
       <use xlink:href="#DejaVuSans-2d" x="417.822266"/>
       <use xlink:href="#DejaVuSans-32" x="453.90625"/>
       <use xlink:href="#DejaVuSans-36" x="517.529297"/>
      </g>
     </g>
    </g>
    <g id="xtick_6">
     <g id="line2d_6">
      <g>
       <use xlink:href="#m2bc7d4bef4" x="666.440225" y="399.053207" style="stroke: #000000; stroke-width: 0.8"/>
      </g>
     </g>
     <g id="text_6">
      <!-- 2023-03-12 -->
      <g transform="translate(581.311198 498.986925) rotate(-45) scale(0.2 -0.2)">
       <use xlink:href="#DejaVuSans-32"/>
       <use xlink:href="#DejaVuSans-30" x="63.623047"/>
       <use xlink:href="#DejaVuSans-32" x="127.246094"/>
       <use xlink:href="#DejaVuSans-33" x="190.869141"/>
       <use xlink:href="#DejaVuSans-2d" x="254.492188"/>
       <use xlink:href="#DejaVuSans-30" x="290.576172"/>
       <use xlink:href="#DejaVuSans-33" x="354.199219"/>
       <use xlink:href="#DejaVuSans-2d" x="417.822266"/>
       <use xlink:href="#DejaVuSans-31" x="453.90625"/>
       <use xlink:href="#DejaVuSans-32" x="517.529297"/>
      </g>
     </g>
    </g>
    <g id="xtick_7">
     <g id="line2d_7">
      <g>
       <use xlink:href="#m2bc7d4bef4" x="779.113302" y="399.053207" style="stroke: #000000; stroke-width: 0.8"/>
      </g>
     </g>
     <g id="text_7">
      <!-- 2023-03-26 -->
      <g transform="translate(693.984275 498.986925) rotate(-45) scale(0.2 -0.2)">
       <use xlink:href="#DejaVuSans-32"/>
       <use xlink:href="#DejaVuSans-30" x="63.623047"/>
       <use xlink:href="#DejaVuSans-32" x="127.246094"/>
       <use xlink:href="#DejaVuSans-33" x="190.869141"/>
       <use xlink:href="#DejaVuSans-2d" x="254.492188"/>
       <use xlink:href="#DejaVuSans-30" x="290.576172"/>
       <use xlink:href="#DejaVuSans-33" x="354.199219"/>
       <use xlink:href="#DejaVuSans-2d" x="417.822266"/>
       <use xlink:href="#DejaVuSans-32" x="453.90625"/>
       <use xlink:href="#DejaVuSans-36" x="517.529297"/>
      </g>
     </g>
    </g>
    <g id="xtick_8">
     <g id="line2d_8">
      <g>
       <use xlink:href="#m2bc7d4bef4" x="891.786379" y="399.053207" style="stroke: #000000; stroke-width: 0.8"/>
      </g>
     </g>
     <g id="text_8">
      <!-- 2023-04-09 -->
      <g transform="translate(806.657352 498.986925) rotate(-45) scale(0.2 -0.2)">
       <defs>
        <path id="DejaVuSans-34" d="M 2419 4116 
L 825 1625 
L 2419 1625 
L 2419 4116 
z
M 2253 4666 
L 3047 4666 
L 3047 1625 
L 3713 1625 
L 3713 1100 
L 3047 1100 
L 3047 0 
L 2419 0 
L 2419 1100 
L 313 1100 
L 313 1709 
L 2253 4666 
z
" transform="scale(0.015625)"/>
       </defs>
       <use xlink:href="#DejaVuSans-32"/>
       <use xlink:href="#DejaVuSans-30" x="63.623047"/>
       <use xlink:href="#DejaVuSans-32" x="127.246094"/>
       <use xlink:href="#DejaVuSans-33" x="190.869141"/>
       <use xlink:href="#DejaVuSans-2d" x="254.492188"/>
       <use xlink:href="#DejaVuSans-30" x="290.576172"/>
       <use xlink:href="#DejaVuSans-34" x="354.199219"/>
       <use xlink:href="#DejaVuSans-2d" x="417.822266"/>
       <use xlink:href="#DejaVuSans-30" x="453.90625"/>
       <use xlink:href="#DejaVuSans-39" x="517.529297"/>
      </g>
     </g>
    </g>
    <g id="xtick_9">
     <g id="line2d_9">
      <g>
       <use xlink:href="#m2bc7d4bef4" x="940.074841" y="399.053207" style="stroke: #000000; stroke-width: 0.8"/>
      </g>
     </g>
     <g id="text_9">
      <!-- 2023-04-15 -->
      <g transform="translate(854.945813 498.986925) rotate(-45) scale(0.2 -0.2)">
       <use xlink:href="#DejaVuSans-32"/>
       <use xlink:href="#DejaVuSans-30" x="63.623047"/>
       <use xlink:href="#DejaVuSans-32" x="127.246094"/>
       <use xlink:href="#DejaVuSans-33" x="190.869141"/>
       <use xlink:href="#DejaVuSans-2d" x="254.492188"/>
       <use xlink:href="#DejaVuSans-30" x="290.576172"/>
       <use xlink:href="#DejaVuSans-34" x="354.199219"/>
       <use xlink:href="#DejaVuSans-2d" x="417.822266"/>
       <use xlink:href="#DejaVuSans-31" x="453.90625"/>
       <use xlink:href="#DejaVuSans-35" x="517.529297"/>
      </g>
     </g>
    </g>
   </g>
   <g id="matplotlib.axis_2">
    <g id="ytick_1">
     <g id="line2d_10">
      <defs>
       <path id="m93e237408e" d="M 0 0 
L -3.5 0 
" style="stroke: #000000; stroke-width: 0.8"/>
      </defs>
      <g>
       <use xlink:href="#m93e237408e" x="103.074841" y="361.544725" style="stroke: #000000; stroke-width: 0.8"/>
      </g>
     </g>
     <g id="text_10">
      <!-- −0.100 -->
      <g transform="translate(22.059216 369.143162) scale(0.2 -0.2)">
       <defs>
        <path id="DejaVuSans-2212" d="M 678 2272 
L 4684 2272 
L 4684 1741 
L 678 1741 
L 678 2272 
z
" transform="scale(0.015625)"/>
        <path id="DejaVuSans-2e" d="M 684 794 
L 1344 794 
L 1344 0 
L 684 0 
L 684 794 
z
" transform="scale(0.015625)"/>
       </defs>
       <use xlink:href="#DejaVuSans-2212"/>
       <use xlink:href="#DejaVuSans-30" x="83.789062"/>
       <use xlink:href="#DejaVuSans-2e" x="147.412109"/>
       <use xlink:href="#DejaVuSans-31" x="179.199219"/>
       <use xlink:href="#DejaVuSans-30" x="242.822266"/>
       <use xlink:href="#DejaVuSans-30" x="306.445312"/>
      </g>
     </g>
    </g>
    <g id="ytick_2">
     <g id="line2d_11">
      <g>
       <use xlink:href="#m93e237408e" x="103.074841" y="312.009541" style="stroke: #000000; stroke-width: 0.8"/>
      </g>
     </g>
     <g id="text_11">
      <!-- −0.075 -->
      <g transform="translate(22.059216 319.607978) scale(0.2 -0.2)">
       <defs>
        <path id="DejaVuSans-37" d="M 525 4666 
L 3525 4666 
L 3525 4397 
L 1831 0 
L 1172 0 
L 2766 4134 
L 525 4134 
L 525 4666 
z
" transform="scale(0.015625)"/>
       </defs>
       <use xlink:href="#DejaVuSans-2212"/>
       <use xlink:href="#DejaVuSans-30" x="83.789062"/>
       <use xlink:href="#DejaVuSans-2e" x="147.412109"/>
       <use xlink:href="#DejaVuSans-30" x="179.199219"/>
       <use xlink:href="#DejaVuSans-37" x="242.822266"/>
       <use xlink:href="#DejaVuSans-35" x="306.445312"/>
      </g>
     </g>
    </g>
    <g id="ytick_3">
     <g id="line2d_12">
      <g>
       <use xlink:href="#m93e237408e" x="103.074841" y="262.474357" style="stroke: #000000; stroke-width: 0.8"/>
      </g>
     </g>
     <g id="text_12">
      <!-- −0.050 -->
      <g transform="translate(22.059216 270.072794) scale(0.2 -0.2)">
       <use xlink:href="#DejaVuSans-2212"/>
       <use xlink:href="#DejaVuSans-30" x="83.789062"/>
       <use xlink:href="#DejaVuSans-2e" x="147.412109"/>
       <use xlink:href="#DejaVuSans-30" x="179.199219"/>
       <use xlink:href="#DejaVuSans-35" x="242.822266"/>
       <use xlink:href="#DejaVuSans-30" x="306.445312"/>
      </g>
     </g>
    </g>
    <g id="ytick_4">
     <g id="line2d_13">
      <g>
       <use xlink:href="#m93e237408e" x="103.074841" y="212.939173" style="stroke: #000000; stroke-width: 0.8"/>
      </g>
     </g>
     <g id="text_13">
      <!-- −0.025 -->
      <g transform="translate(22.059216 220.53761) scale(0.2 -0.2)">
       <use xlink:href="#DejaVuSans-2212"/>
       <use xlink:href="#DejaVuSans-30" x="83.789062"/>
       <use xlink:href="#DejaVuSans-2e" x="147.412109"/>
       <use xlink:href="#DejaVuSans-30" x="179.199219"/>
       <use xlink:href="#DejaVuSans-32" x="242.822266"/>
       <use xlink:href="#DejaVuSans-35" x="306.445312"/>
      </g>
     </g>
    </g>
    <g id="ytick_5">
     <g id="line2d_14">
      <g>
       <use xlink:href="#m93e237408e" x="103.074841" y="163.403989" style="stroke: #000000; stroke-width: 0.8"/>
      </g>
     </g>
     <g id="text_14">
      <!-- 0.000 -->
      <g transform="translate(38.818591 171.002427) scale(0.2 -0.2)">
       <use xlink:href="#DejaVuSans-30"/>
       <use xlink:href="#DejaVuSans-2e" x="63.623047"/>
       <use xlink:href="#DejaVuSans-30" x="95.410156"/>
       <use xlink:href="#DejaVuSans-30" x="159.033203"/>
       <use xlink:href="#DejaVuSans-30" x="222.65625"/>
      </g>
     </g>
    </g>
    <g id="ytick_6">
     <g id="line2d_15">
      <g>
       <use xlink:href="#m93e237408e" x="103.074841" y="113.868805" style="stroke: #000000; stroke-width: 0.8"/>
      </g>
     </g>
     <g id="text_15">
      <!-- 0.025 -->
      <g transform="translate(38.818591 121.467243) scale(0.2 -0.2)">
       <use xlink:href="#DejaVuSans-30"/>
       <use xlink:href="#DejaVuSans-2e" x="63.623047"/>
       <use xlink:href="#DejaVuSans-30" x="95.410156"/>
       <use xlink:href="#DejaVuSans-32" x="159.033203"/>
       <use xlink:href="#DejaVuSans-35" x="222.65625"/>
      </g>
     </g>
    </g>
    <g id="ytick_7">
     <g id="line2d_16">
      <g>
       <use xlink:href="#m93e237408e" x="103.074841" y="64.333621" style="stroke: #000000; stroke-width: 0.8"/>
      </g>
     </g>
     <g id="text_16">
      <!-- 0.050 -->
      <g transform="translate(38.818591 71.932059) scale(0.2 -0.2)">
       <use xlink:href="#DejaVuSans-30"/>
       <use xlink:href="#DejaVuSans-2e" x="63.623047"/>
       <use xlink:href="#DejaVuSans-30" x="95.410156"/>
       <use xlink:href="#DejaVuSans-35" x="159.033203"/>
       <use xlink:href="#DejaVuSans-30" x="222.65625"/>
      </g>
     </g>
    </g>
    <g id="ytick_8">
     <g id="line2d_17">
      <g>
       <use xlink:href="#m93e237408e" x="103.074841" y="14.798437" style="stroke: #000000; stroke-width: 0.8"/>
      </g>
     </g>
     <g id="text_17">
      <!-- 0.075 -->
      <g transform="translate(38.818591 22.396875) scale(0.2 -0.2)">
       <use xlink:href="#DejaVuSans-30"/>
       <use xlink:href="#DejaVuSans-2e" x="63.623047"/>
       <use xlink:href="#DejaVuSans-30" x="95.410156"/>
       <use xlink:href="#DejaVuSans-37" x="159.033203"/>
       <use xlink:href="#DejaVuSans-35" x="222.65625"/>
      </g>
     </g>
    </g>
   </g>
   <g id="line2d_18">
    <path d="M 0 0 
" clip-path="url(#p993aafc0ee)" style="fill: none; stroke: #ffa500; stroke-width: 1.5; stroke-linecap: square"/>
   </g>
   <g id="line2d_19">
    <path d="M 103.074841 163.403989 
L 948.274841 163.403989 
" clip-path="url(#p993aafc0ee)" style="fill: none; stroke-dasharray: 7.4,3.2; stroke-dashoffset: 0; stroke: #000000; stroke-width: 2"/>
   </g>
   <g id="patch_3">
    <path d="M 103.074841 399.053207 
L 103.074841 10.973207 
" style="fill: none; stroke: #000000; stroke-width: 0.8; stroke-linejoin: miter; stroke-linecap: square"/>
   </g>
   <g id="patch_4">
    <path d="M 940.074841 399.053207 
L 940.074841 10.973207 
" style="fill: none; stroke: #000000; stroke-width: 0.8; stroke-linejoin: miter; stroke-linecap: square"/>
   </g>
   <g id="patch_5">
    <path d="M 103.074841 399.053207 
L 940.074841 399.053207 
" style="fill: none; stroke: #000000; stroke-width: 0.8; stroke-linejoin: miter; stroke-linecap: square"/>
   </g>
   <g id="patch_6">
    <path d="M 103.074841 10.973207 
L 940.074841 10.973207 
" style="fill: none; stroke: #000000; stroke-width: 0.8; stroke-linejoin: miter; stroke-linecap: square"/>
   </g>
  </g>
 </g>
 <defs>
  <clipPath id="p993aafc0ee">
   <rect x="103.074841" y="10.973207" width="837" height="388.08"/>
  </clipPath>
 </defs>
</svg>
