<?xml version="1.0" encoding="utf-8" standalone="no"?>
<!DOCTYPE svg PUBLIC "-//W3C//DTD SVG 1.1//EN"
  "http://www.w3.org/Graphics/SVG/1.1/DTD/svg11.dtd">
<svg xmlns:xlink="http://www.w3.org/1999/xlink" width="947.274841pt" height="505.354841pt" viewBox="0 0 947.274841 505.354841" xmlns="http://www.w3.org/2000/svg" version="1.1">
 <metadata>
  <rdf:RDF xmlns:dc="http://purl.org/dc/elements/1.1/" xmlns:cc="http://creativecommons.org/ns#" xmlns:rdf="http://www.w3.org/1999/02/22-rdf-syntax-ns#">
   <cc:Work>
    <dc:type rdf:resource="http://purl.org/dc/dcmitype/StillImage"/>
    <dc:date>2023-11-15T18:16:43.591349</dc:date>
    <dc:format>image/svg+xml</dc:format>
    <dc:creator>
     <cc:Agent>
      <dc:title>Matplotlib v3.7.2, https://matplotlib.org/</dc:title>
     </cc:Agent>
    </dc:creator>
   </cc:Work>
  </rdf:RDF>
 </metadata>
 <defs>
  <style type="text/css">*{stroke-linejoin: round; stroke-linecap: butt}</style>
 </defs>
 <g id="figure_1">
  <g id="patch_1">
   <path d="M 0 505.354841 
L 947.274841 505.354841 
L 947.274841 -0 
L 0 -0 
z
" style="fill: #ffffff"/>
  </g>
  <g id="axes_1">
   <g id="patch_2">
    <path d="M 103.074841 395.28 
L 940.074841 395.28 
L 940.074841 7.2 
L 103.074841 7.2 
z
" style="fill: #ffffff"/>
   </g>
   <g id="PolyCollection_1">
    <path d="M -4315.31939 377.619826 
L -4315.31939 377.64 
L -4307.271313 377.550117 
L -4299.223236 377.469885 
L -4291.175159 377.368178 
L -4283.127082 377.296344 
L -4275.079005 377.206095 
L -4267.030929 377.101865 
L -4258.982852 376.995179 
L -4250.934775 376.897503 
L -4242.886698 376.809906 
L -4234.838621 376.714494 
L -4226.790544 376.611623 
L -4218.742467 376.514501 
L -4210.69439 376.399508 
L -4202.646313 376.300528 
L -4194.598236 376.187323 
L -4186.550159 376.087107 
L -4178.502082 375.958779 
L -4170.454005 375.849147 
L -4162.405929 375.74239 
L -4154.357852 375.61976 
L -4146.309775 375.499193 
L -4138.261698 375.38029 
L -4130.213621 375.241042 
L -4122.165544 375.115552 
L -4114.117467 374.972065 
L -4106.06939 374.82626 
L -4098.021313 374.666768 
L -4089.973236 374.502515 
L -4081.925159 374.339982 
L -4073.877082 374.15513 
L -4065.829005 373.948551 
L -4057.780929 373.759887 
L -4049.732852 373.548335 
L -4041.684775 373.309831 
L -4033.636698 373.083243 
L -4025.588621 372.822153 
L -4017.540544 372.555289 
L -4009.492467 372.279249 
L -4001.44439 371.987734 
L -3993.396313 371.667196 
L -3985.348236 371.326387 
L -3977.300159 370.965518 
L -3969.252082 370.612625 
L -3961.204005 370.205532 
L -3953.155929 369.812228 
L -3945.107852 369.39458 
L -3937.059775 368.97256 
L -3929.011698 368.520883 
L -3920.963621 368.035248 
L -3912.915544 367.577211 
L -3904.867467 367.073749 
L -3896.81939 366.553144 
L -3888.771313 366.03905 
L -3880.723236 365.52723 
L -3872.675159 364.977512 
L -3864.627082 364.420991 
L -3856.579005 363.863585 
L -3848.530929 363.28517 
L -3840.482852 362.699259 
L -3832.434775 362.113292 
L -3824.386698 361.509381 
L -3816.338621 360.903005 
L -3808.290544 360.30306 
L -3800.242467 359.681508 
L -3792.19439 359.022848 
L -3784.146313 358.380574 
L -3776.098236 357.738918 
L -3768.050159 357.105235 
L -3760.002082 356.449709 
L -3751.954005 355.806945 
L -3743.905929 355.155187 
L -3735.857852 354.556877 
L -3727.809775 353.871836 
L -3719.761698 353.267303 
L -3711.713621 352.618456 
L -3703.665544 351.997261 
L -3695.617467 351.35122 
L -3687.56939 350.766877 
L -3679.521313 350.110889 
L -3671.473236 349.489796 
L -3663.425159 348.901494 
L -3655.377082 348.275841 
L -3647.329005 347.679642 
L -3639.280929 347.0611 
L -3631.232852 346.433528 
L -3623.184775 345.831231 
L -3615.136698 345.239421 
L -3607.088621 344.609714 
L -3599.040544 344.001675 
L -3590.992467 343.382316 
L -3582.94439 342.772056 
L -3574.896313 342.174499 
L -3566.848236 341.564203 
L -3558.800159 340.949757 
L -3550.752082 340.387159 
L -3542.704005 339.764583 
L -3534.655929 339.164892 
L -3526.607852 338.57445 
L -3518.559775 337.984455 
L -3510.511698 337.396695 
L -3502.463621 336.803617 
L -3494.415544 336.234423 
L -3486.367467 335.647163 
L -3478.31939 335.048533 
L -3470.271313 334.444933 
L -3462.223236 333.836356 
L -3454.175159 333.261007 
L -3446.127082 332.637643 
L -3438.079005 331.979278 
L -3430.030929 331.355104 
L -3421.982852 330.70176 
L -3413.934775 330.039296 
L -3405.886698 329.34456 
L -3397.838621 328.638216 
L -3389.790544 327.974037 
L -3381.742467 327.229275 
L -3373.69439 326.5154 
L -3365.646313 325.753494 
L -3357.598236 325.044132 
L -3349.550159 324.226908 
L -3341.502082 323.422306 
L -3333.454005 322.635921 
L -3325.405929 321.836187 
L -3317.357852 321.013593 
L -3309.309775 320.157332 
L -3301.261698 319.346176 
L -3293.213621 318.431873 
L -3285.165544 317.612255 
L -3277.117467 316.671039 
L -3269.06939 315.753534 
L -3261.021313 314.85286 
L -3252.973236 313.982023 
L -3244.925159 312.984334 
L -3236.877082 312.068784 
L -3228.829005 310.937043 
L -3220.780929 309.942947 
L -3212.732852 309.004867 
L -3204.684775 307.95996 
L -3196.636698 306.888465 
L -3188.588621 305.672323 
L -3180.540544 304.591082 
L -3172.492467 303.887061 
L -3164.44439 302.45278 
L -3156.396313 301.423442 
L -3148.348236 300.340524 
L -3140.300159 299.20158 
L -3132.252082 297.994996 
L -3124.204005 296.782327 
L -3116.155929 296.015143 
L -3108.107852 294.815375 
L -3100.059775 292.876795 
L -3092.011698 291.263982 
L -3083.963621 290.230236 
L -3075.915544 288.520473 
L -3067.867467 287.249855 
L -3059.81939 286.061221 
L -3051.771313 284.436404 
L -3043.723236 282.252189 
L -3035.675159 280.877344 
L -3027.627082 280.060915 
L -3019.579005 278.40376 
L -3011.530929 277.712603 
L -3003.482852 276.586049 
L -2995.434775 274.629715 
L -2987.386698 274.540912 
L -2979.338621 275.024726 
L -2971.290544 276.301625 
L -2963.242467 274.403669 
L -2955.19439 277.527073 
L -2947.146313 278.062639 
L -2939.098236 273.372386 
L -2931.050159 274.453266 
L -2923.002082 276.260305 
L -2914.954005 274.913427 
L -2906.905929 274.508943 
L -2898.857852 282.893863 
L -2890.809775 294.887724 
L -2882.761698 300.791498 
L -2874.713621 287.486108 
L -2866.665544 294.146144 
L -2858.617467 302.914787 
L -2850.56939 302.300803 
L -2842.521313 320.270292 
L -2834.473236 317.719151 
L -2826.425159 312.11558 
L -2818.377082 298.35544 
L -2810.329005 311.166672 
L -2802.280929 318.847904 
L -2794.232852 315.556158 
L -2786.184775 317.520521 
L -2778.136698 324.773303 
L -2770.088621 323.745844 
L -2762.040544 317.393603 
L -2753.992467 325.254119 
L -2745.94439 326.765745 
L -2737.896313 323.878729 
L -2729.848236 328.839453 
L -2721.800159 330.60696 
L -2713.752082 330.037018 
L -2705.704005 328.434698 
L -2697.655929 330.003949 
L -2689.607852 328.23115 
L -2681.559775 328.286471 
L -2673.511698 329.763089 
L -2665.463621 328.178741 
L -2657.415544 328.839488 
L -2649.367467 328.766205 
L -2641.31939 327.447355 
L -2633.271313 327.759873 
L -2625.223236 325.898648 
L -2617.175159 325.872333 
L -2609.127082 326.200857 
L -2601.079005 326.067602 
L -2593.030929 325.055816 
L -2584.982852 324.157427 
L -2576.934775 323.786594 
L -2568.886698 322.792382 
L -2560.838621 322.458387 
L -2552.790544 322.088365 
L -2544.742467 320.65224 
L -2536.69439 320.980693 
L -2528.646313 319.932803 
L -2520.598236 319.328294 
L -2512.550159 319.082095 
L -2504.502082 318.024303 
L -2496.454005 317.547043 
L -2488.405929 317.521389 
L -2480.357852 317.656102 
L -2472.309775 316.076452 
L -2464.261698 315.554143 
L -2456.213621 314.825535 
L -2448.165544 316.723522 
L -2440.117467 316.456904 
L -2432.06939 316.988893 
L -2424.021313 314.55298 
L -2415.973236 312.929799 
L -2407.925159 313.022179 
L -2399.877082 314.159191 
L -2391.829005 314.076112 
L -2383.780929 311.184704 
L -2375.732852 313.02231 
L -2367.684775 312.147269 
L -2359.636698 311.455083 
L -2351.588621 309.933169 
L -2343.540544 310.55699 
L -2335.492467 309.636409 
L -2327.44439 309.827439 
L -2319.396313 308.698974 
L -2311.348236 307.727701 
L -2303.300159 306.264175 
L -2295.252082 305.368574 
L -2287.204005 304.514879 
L -2279.155929 303.478099 
L -2271.107852 302.949052 
L -2263.059775 301.950957 
L -2255.011698 300.903533 
L -2246.963621 298.780111 
L -2238.915544 297.070906 
L -2230.867467 296.082435 
L -2222.81939 294.248694 
L -2214.771313 293.561831 
L -2206.723236 291.896875 
L -2198.675159 289.63651 
L -2190.627082 287.684168 
L -2182.579005 286.106502 
L -2174.530929 283.778915 
L -2166.482852 282.191512 
L -2158.434775 280.068971 
L -2150.386698 278.144861 
L -2142.338621 275.828594 
L -2134.290544 273.84918 
L -2126.242467 271.301122 
L -2118.19439 269.208084 
L -2110.146313 266.966555 
L -2102.098236 264.119799 
L -2094.050159 261.438212 
L -2086.002082 259.377178 
L -2077.954005 256.970579 
L -2069.905929 254.113269 
L -2061.857852 251.775751 
L -2053.809775 249.01539 
L -2045.761698 245.228361 
L -2037.713621 243.329103 
L -2029.665544 240.044546 
L -2021.617467 237.399442 
L -2013.56939 234.389233 
L -2005.521313 231.208242 
L -1997.473236 227.92011 
L -1989.425159 224.885929 
L -1981.377082 220.974349 
L -1973.329005 218.397438 
L -1965.280929 214.536399 
L -1957.232852 211.881698 
L -1949.184775 207.949221 
L -1941.136698 204.170388 
L -1933.088621 200.592492 
L -1925.040544 197.698648 
L -1916.992467 193.293807 
L -1908.94439 190.239715 
L -1900.896313 186.26523 
L -1892.848236 182.998433 
L -1884.800159 178.858522 
L -1876.752082 175.207102 
L -1868.704005 174.321789 
L -1860.655929 167.648246 
L -1852.607852 166.140795 
L -1844.559775 161.773642 
L -1836.511698 158.753411 
L -1828.463621 155.231413 
L -1820.415544 151.561078 
L -1812.367467 148.244908 
L -1804.31939 144.918405 
L -1796.271313 141.866982 
L -1788.223236 138.711319 
L -1780.175159 140.12756 
L -1772.127082 132.224816 
L -1764.079005 129.633655 
L -1756.030929 135.539873 
L -1747.982852 125.786999 
L -1739.934775 126.980181 
L -1731.886698 125.542812 
L -1723.838621 120.476554 
L -1715.790544 120.770415 
L -1707.742467 125.312164 
L -1699.69439 122.083011 
L -1691.646313 119.84769 
L -1683.598236 122.753394 
L -1675.550159 121.742461 
L -1667.502082 124.253873 
L -1659.454005 127.285106 
L -1651.405929 133.720759 
L -1643.357852 145.685779 
L -1635.309775 143.544228 
L -1627.261698 150.842594 
L -1619.213621 156.473816 
L -1611.165544 159.993095 
L -1603.117467 167.772839 
L -1595.06939 172.973075 
L -1587.021313 165.165071 
L -1578.973236 174.261216 
L -1570.925159 185.433848 
L -1562.877082 191.001417 
L -1554.829005 193.739305 
L -1546.780929 208.418036 
L -1538.732852 209.919648 
L -1530.684775 214.170345 
L -1522.636698 213.463969 
L -1514.588621 225.883389 
L -1506.540544 222.468704 
L -1498.492467 220.668539 
L -1490.44439 231.30116 
L -1482.396313 238.935292 
L -1474.348236 238.59455 
L -1466.300159 243.232797 
L -1458.252082 244.925366 
L -1450.204005 245.457458 
L -1442.155929 245.713164 
L -1434.107852 248.368939 
L -1426.059775 249.965305 
L -1418.011698 257.674541 
L -1409.963621 254.049458 
L -1401.915544 260.761924 
L -1393.867467 259.475684 
L -1385.81939 258.76403 
L -1377.771313 261.552619 
L -1369.723236 264.041551 
L -1361.675159 261.191103 
L -1353.627082 262.761995 
L -1345.579005 262.94557 
L -1337.530929 266.547178 
L -1329.482852 264.843375 
L -1321.434775 264.053383 
L -1313.386698 265.068268 
L -1305.338621 266.743941 
L -1297.290544 265.857487 
L -1289.242467 264.092162 
L -1281.19439 264.938147 
L -1273.146313 262.242791 
L -1265.098236 262.358152 
L -1257.050159 266.391922 
L -1249.002082 265.926801 
L -1240.954005 263.297132 
L -1232.905929 262.438266 
L -1224.857852 262.417929 
L -1216.809775 259.527191 
L -1208.761698 259.807834 
L -1200.713621 259.43595 
L -1192.665544 258.510279 
L -1184.617467 257.420557 
L -1176.56939 255.422827 
L -1168.521313 255.945147 
L -1160.473236 254.450465 
L -1152.425159 253.785083 
L -1144.377082 252.780672 
L -1136.329005 252.418391 
L -1128.280929 250.769465 
L -1120.232852 248.135199 
L -1112.184775 247.619278 
L -1104.136698 245.411897 
L -1096.088621 242.42249 
L -1088.040544 243.94795 
L -1079.992467 240.04394 
L -1071.94439 241.177483 
L -1063.896313 240.175168 
L -1055.848236 240.115588 
L -1047.800159 237.546959 
L -1039.752082 237.109316 
L -1031.704005 236.525342 
L -1023.655929 233.456128 
L -1015.607852 233.944256 
L -1007.559775 233.491319 
L -999.511698 233.187709 
L -991.463621 231.666937 
L -983.415544 232.14008 
L -975.367467 230.606643 
L -967.31939 229.153834 
L -959.271313 226.947514 
L -951.223236 226.174323 
L -943.175159 225.63718 
L -935.127082 224.095542 
L -927.079005 224.235615 
L -919.030929 223.455767 
L -910.982852 222.100431 
L -902.934775 222.097153 
L -894.886698 220.581737 
L -886.838621 221.762776 
L -878.790544 220.704572 
L -870.742467 220.72438 
L -862.69439 218.873592 
L -854.646313 216.360623 
L -846.598236 218.464415 
L -838.550159 218.38356 
L -830.502082 217.566376 
L -822.454005 216.724668 
L -814.405929 214.992669 
L -806.357852 214.60907 
L -798.309775 213.669369 
L -790.261698 213.830597 
L -782.213621 213.490519 
L -774.165544 211.858255 
L -766.117467 209.534742 
L -758.06939 212.605203 
L -750.021313 211.90199 
L -741.973236 209.93334 
L -733.925159 211.221141 
L -725.877082 207.678175 
L -717.829005 208.130167 
L -709.780929 208.369438 
L -701.732852 205.962364 
L -693.684775 210.073884 
L -685.636698 205.946082 
L -677.588621 203.840388 
L -669.540544 206.509832 
L -661.492467 207.210124 
L -653.44439 205.861166 
L -645.396313 206.860356 
L -637.348236 204.912301 
L -629.300159 208.528523 
L -621.252082 206.580889 
L -613.204005 207.25434 
L -605.155929 204.646964 
L -597.107852 202.291854 
L -589.059775 205.044504 
L -581.011698 210.063182 
L -572.963621 204.079282 
L -564.915544 204.27238 
L -556.867467 201.948248 
L -548.81939 202.844455 
L -540.771313 202.414073 
L -532.723236 200.923685 
L -524.675159 200.287536 
L -516.627082 202.665457 
L -508.579005 201.242809 
L -500.530929 203.421563 
L -492.482852 203.750179 
L -484.434775 197.011059 
L -476.386698 199.68638 
L -468.338621 199.859106 
L -460.290544 200.2798 
L -452.242467 200.66159 
L -444.19439 204.907669 
L -436.146313 206.60568 
L -428.098236 206.421701 
L -420.050159 211.136018 
L -412.002082 218.942515 
L -403.954005 209.719318 
L -395.905929 209.660776 
L -387.857852 209.912154 
L -379.809775 213.054031 
L -371.761698 213.822716 
L -363.713621 213.866004 
L -355.665544 220.625202 
L -347.617467 223.152643 
L -339.56939 215.597983 
L -331.521313 222.539049 
L -323.473236 219.189125 
L -315.425159 217.118597 
L -307.377082 225.528613 
L -299.329005 223.891356 
L -291.280929 229.321525 
L -283.232852 227.69019 
L -275.184775 224.047301 
L -267.136698 227.442903 
L -259.088621 227.449097 
L -251.040544 230.778059 
L -242.992467 228.679466 
L -234.94439 234.159348 
L -226.896313 230.200416 
L -218.848236 233.082448 
L -210.800159 232.473464 
L -202.752082 235.642033 
L -194.704005 230.468913 
L -186.655929 235.953186 
L -178.607852 235.618179 
L -170.559775 239.354222 
L -162.511698 241.311673 
L -154.463621 241.295372 
L -146.415544 240.302831 
L -138.367467 242.698181 
L -130.31939 244.480192 
L -122.271313 242.837056 
L -114.223236 242.205303 
L -106.175159 244.307379 
L -98.127082 246.214081 
L -90.079005 242.841407 
L -82.030929 240.883625 
L -73.982852 248.516026 
L -65.934775 251.964197 
L -57.886698 244.101167 
L -49.838621 246.382687 
L -41.790544 247.516258 
L -33.742467 248.056637 
L -25.69439 251.971066 
L -17.646313 251.448557 
L -9.598236 249.834765 
L -1.550159 251.536637 
L 6.497918 251.990837 
L 14.545995 247.766082 
L 22.594071 249.902968 
L 30.642148 248.593932 
L 38.690225 254.447603 
L 46.738302 261.65905 
L 54.786379 260.645229 
L 62.834456 254.96409 
L 70.882533 254.380316 
L 78.93061 255.198293 
L 86.978687 255.507985 
L 95.026764 260.888223 
L 103.074841 254.145816 
L 111.122918 261.344257 
L 119.170995 267.145054 
L 127.219071 262.410774 
L 135.267148 269.858546 
L 143.315225 265.306839 
L 151.363302 269.397949 
L 159.411379 266.81768 
L 167.459456 268.879301 
L 175.507533 272.92197 
L 183.55561 272.739082 
L 191.603687 274.043905 
L 199.651764 274.453828 
L 207.699841 274.971529 
L 215.747918 265.428599 
L 223.795995 277.979269 
L 231.844071 283.214088 
L 239.892148 278.3768 
L 247.940225 283.018548 
L 255.988302 284.140516 
L 264.036379 281.693209 
L 272.084456 286.93728 
L 280.132533 290.520993 
L 288.18061 288.674877 
L 296.228687 290.176914 
L 304.276764 291.106021 
L 312.324841 292.510346 
L 320.372918 296.567399 
L 328.420995 288.874441 
L 336.469071 298.904181 
L 344.517148 299.377135 
L 352.565225 300.03637 
L 360.613302 294.175431 
L 368.661379 301.832232 
L 376.709456 307.009564 
L 384.757533 302.23558 
L 392.80561 303.057802 
L 400.853687 310.223654 
L 408.901764 298.44731 
L 416.949841 309.942479 
L 424.997918 303.174786 
L 433.045995 313.281032 
L 441.094071 308.966615 
L 449.142148 313.527671 
L 457.190225 315.171433 
L 465.238302 317.350611 
L 473.286379 318.236817 
L 481.334456 315.932149 
L 489.382533 316.34588 
L 497.43061 318.012547 
L 505.478687 322.834436 
L 513.526764 322.633082 
L 521.574841 322.880562 
L 529.622918 326.006885 
L 537.670995 326.583227 
L 545.719071 324.777525 
L 553.767148 325.48293 
L 561.815225 330.009175 
L 569.863302 331.00826 
L 577.911379 332.417072 
L 585.959456 329.508467 
L 594.007533 324.917558 
L 602.05561 330.774736 
L 610.103687 329.475289 
L 618.151764 331.321148 
L 626.199841 334.046725 
L 634.247918 331.373311 
L 642.295995 335.569619 
L 650.344071 333.103332 
L 658.392148 333.012913 
L 666.440225 333.099133 
L 674.488302 336.774487 
L 682.536379 336.162439 
L 690.584456 336.105149 
L 698.632533 333.869818 
L 706.68061 335.416735 
L 714.728687 336.198248 
L 722.776764 335.71896 
L 730.824841 338.155628 
L 738.872918 337.79637 
L 746.920995 339.213558 
L 754.969071 340.761198 
L 763.017148 340.7681 
L 771.065225 339.490398 
L 779.113302 339.937922 
L 787.161379 339.153638 
L 795.209456 340.293327 
L 803.257533 340.565439 
L 811.30561 339.007025 
L 819.353687 340.763486 
L 827.401764 332.974535 
L 835.449841 340.591609 
L 843.497918 343.37871 
L 851.545995 340.195176 
L 859.594071 340.068718 
L 867.642148 342.803499 
L 875.690225 342.744663 
L 883.738302 339.868485 
L 891.786379 339.528898 
L 899.834456 341.177623 
L 907.882533 340.365728 
L 915.93061 343.618146 
L 923.978687 342.217808 
L 932.026764 344.425755 
L 940.074841 340.669629 
L 940.074841 292.296591 
L 940.074841 292.296591 
L 932.026764 289.621282 
L 923.978687 285.940724 
L 915.93061 289.850023 
L 907.882533 281.939109 
L 899.834456 283.880992 
L 891.786379 282.574605 
L 883.738302 274.285468 
L 875.690225 284.483877 
L 867.642148 289.843303 
L 859.594071 274.266745 
L 851.545995 280.662365 
L 843.497918 286.774844 
L 835.449841 282.309384 
L 827.401764 231.679429 
L 819.353687 280.216286 
L 811.30561 270.758349 
L 803.257533 280.258822 
L 795.209456 279.238643 
L 787.161379 275.18828 
L 779.113302 275.313946 
L 771.065225 274.091071 
L 763.017148 279.539461 
L 754.969071 279.525027 
L 746.920995 271.977328 
L 738.872918 266.932678 
L 730.824841 270.932716 
L 722.776764 263.745203 
L 714.728687 266.380986 
L 706.68061 262.14118 
L 698.632533 256.782937 
L 690.584456 264.003836 
L 682.536379 264.723687 
L 674.488302 264.6722 
L 666.440225 256.129854 
L 658.392148 254.22515 
L 650.344071 253.788348 
L 642.295995 263.561025 
L 634.247918 249.887842 
L 626.199841 259.009032 
L 618.151764 250.994991 
L 610.103687 244.936467 
L 602.05561 249.802209 
L 594.007533 228.008752 
L 585.959456 247.290405 
L 577.911379 255.208476 
L 569.863302 251.184191 
L 561.815225 249.240448 
L 553.767148 231.80737 
L 545.719071 232.267661 
L 537.670995 238.41656 
L 529.622918 237.951308 
L 521.574841 228.292495 
L 513.526764 228.808631 
L 505.478687 227.98165 
L 497.43061 218.589543 
L 489.382533 210.50766 
L 481.334456 208.768829 
L 473.286379 215.999277 
L 465.238302 213.992409 
L 457.190225 209.876231 
L 449.142148 205.652645 
L 441.094071 191.725775 
L 433.045995 205.817288 
L 424.997918 169.761809 
L 416.949841 194.309104 
L 408.901764 159.982286 
L 400.853687 197.35649 
L 392.80561 176.837891 
L 384.757533 176.531932 
L 376.709456 187.235443 
L 368.661379 174.787872 
L 360.613302 152.00649 
L 352.565225 168.788199 
L 344.517148 168.506107 
L 336.469071 167.881818 
L 328.420995 141.290868 
L 320.372918 154.573578 
L 312.324841 151.456314 
L 304.276764 149.661886 
L 296.228687 146.784738 
L 288.18061 141.265355 
L 280.132533 146.788355 
L 272.084456 137.004159 
L 264.036379 124.773981 
L 255.988302 134.981024 
L 247.940225 126.962206 
L 239.892148 119.807203 
L 231.844071 131.564401 
L 223.795995 118.837112 
L 215.747918 86.101552 
L 207.699841 110.052388 
L 199.651764 109.126244 
L 191.603687 109.204481 
L 183.55561 106.303852 
L 175.507533 106.451178 
L 167.459456 97.535819 
L 159.411379 93.870723 
L 151.363302 100.776749 
L 143.315225 87.820482 
L 135.267148 101.118917 
L 127.219071 83.124768 
L 119.170995 93.512702 
L 111.122918 81.550321 
L 103.074841 66.725862 
L 95.026764 80.424977 
L 86.978687 67.456452 
L 78.93061 68.413201 
L 70.882533 67.906812 
L 62.834456 69.244104 
L 54.786379 81.634785 
L 46.738302 84.65185 
L 38.690225 69.967838 
L 30.642148 54.929183 
L 22.594071 59.277623 
L 14.545995 56.34313 
L 6.497918 65.974934 
L -1.550159 65.128718 
L -9.598236 61.450994 
L -17.646313 66.547584 
L -25.69439 66.321869 
L -33.742467 58.801742 
L -41.790544 59.916286 
L -49.838621 57.130023 
L -57.886698 53.66258 
L -65.934775 71.243061 
L -73.982852 61.679534 
L -82.030929 48.512857 
L -90.079005 55.153765 
L -98.127082 61.12071 
L -106.175159 57.5704 
L -114.223236 54.899947 
L -122.271313 57.424819 
L -130.31939 63.733097 
L -138.367467 57.430473 
L -146.415544 55.281252 
L -154.463621 58.222498 
L -162.511698 54.379725 
L -170.559775 55.967195 
L -178.607852 47.96948 
L -186.655929 51.242045 
L -194.704005 41.428864 
L -202.752082 50.379465 
L -210.800159 46.562604 
L -218.848236 49.249201 
L -226.896313 46.753356 
L -234.94439 52.310107 
L -242.992467 43.528676 
L -251.040544 49.459314 
L -259.088621 44.00619 
L -267.136698 45.348008 
L -275.184775 41.11457 
L -283.232852 43.701409 
L -291.280929 50.347724 
L -299.329005 44.351309 
L -307.377082 46.076123 
L -315.425159 34.053417 
L -323.473236 39.906412 
L -331.521313 42.974112 
L -339.56939 33.755349 
L -347.617467 44.47176 
L -355.665544 45.500644 
L -363.713621 33.792357 
L -371.761698 34.231258 
L -379.809775 33.630505 
L -387.857852 29.58759 
L -395.905929 32.82052 
L -403.954005 32.035674 
L -412.002082 46.356926 
L -420.050159 37.024758 
L -428.098236 30.246666 
L -436.146313 30.818575 
L -444.19439 29.134172 
L -452.242467 25.260981 
L -460.290544 27.257193 
L -468.338621 24.84 
L -476.386698 28.606405 
L -484.434775 24.911552 
L -492.482852 33.442755 
L -500.530929 35.06342 
L -508.579005 33.781525 
L -516.627082 36.127585 
L -524.675159 33.653086 
L -532.723236 36.598235 
L -540.771313 38.550923 
L -548.81939 42.867556 
L -556.867467 40.414867 
L -564.915544 45.162145 
L -572.963621 44.860481 
L -581.011698 53.218882 
L -589.059775 48.435665 
L -597.107852 46.105403 
L -605.155929 49.922194 
L -613.204005 51.885797 
L -621.252082 52.427004 
L -629.300159 57.364386 
L -637.348236 53.818883 
L -645.396313 57.221091 
L -653.44439 56.086977 
L -661.492467 57.125464 
L -669.540544 56.107881 
L -677.588621 54.464484 
L -685.636698 58.365447 
L -693.684775 63.459083 
L -701.732852 58.74515 
L -709.780929 61.797288 
L -717.829005 60.773757 
L -725.877082 62.594341 
L -733.925159 66.534855 
L -741.973236 65.452409 
L -750.021313 68.672568 
L -758.06939 69.654763 
L -766.117467 66.410396 
L -774.165544 68.597019 
L -782.213621 71.01229 
L -790.261698 71.990806 
L -798.309775 72.06474 
L -806.357852 73.826135 
L -814.405929 73.739573 
L -822.454005 76.273246 
L -830.502082 77.097472 
L -838.550159 77.797368 
L -846.598236 78.4948 
L -854.646313 74.441607 
L -862.69439 79.266472 
L -870.742467 81.294212 
L -878.790544 80.929653 
L -886.838621 81.240461 
L -894.886698 81.42983 
L -902.934775 82.948182 
L -910.982852 82.661292 
L -919.030929 84.865531 
L -927.079005 85.742509 
L -935.127082 85.419243 
L -943.175159 86.335788 
L -951.223236 87.522854 
L -959.271313 88.753559 
L -967.31939 92.489582 
L -975.367467 93.522149 
L -983.415544 95.452897 
L -991.463621 94.799686 
L -999.511698 96.692905 
L -1007.559775 97.103712 
L -1015.607852 97.878384 
L -1023.655929 96.352473 
L -1031.704005 101.657646 
L -1039.752082 102.415154 
L -1047.800159 103.082841 
L -1055.848236 106.44131 
L -1063.896313 106.603434 
L -1071.94439 108.240695 
L -1079.992467 107.124563 
L -1088.040544 111.672026 
L -1096.088621 110.883951 
L -1104.136698 115.30602 
L -1112.184775 118.58643 
L -1120.232852 119.861407 
L -1128.280929 123.873 
L -1136.329005 127.110259 
L -1144.377082 127.471862 
L -1152.425159 129.638015 
L -1160.473236 130.58157 
L -1168.521313 133.263528 
L -1176.56939 133.062861 
L -1184.617467 136.601324 
L -1192.665544 139.34319 
L -1200.713621 141.124844 
L -1208.761698 142.335839 
L -1216.809775 143.362207 
L -1224.857852 147.074173 
L -1232.905929 148.209808 
L -1240.954005 150.607116 
L -1249.002082 153.966563 
L -1257.050159 155.229899 
L -1265.098236 152.776512 
L -1273.146313 153.861199 
L -1281.19439 157.433969 
L -1289.242467 158.039228 
L -1297.290544 160.531609 
L -1305.338621 162.370489 
L -1313.386698 161.639937 
L -1321.434775 162.804368 
L -1329.482852 164.2099 
L -1337.530929 166.616549 
L -1345.579005 164.179291 
L -1353.627082 165.374788 
L -1361.675159 165.462448 
L -1369.723236 168.780246 
L -1377.771313 168.436138 
L -1385.81939 166.681548 
L -1393.867467 168.447879 
L -1401.915544 170.256877 
L -1409.963621 165.599356 
L -1418.011698 169.915387 
L -1426.059775 164.426616 
L -1434.107852 164.198236 
L -1442.155929 163.108591 
L -1450.204005 164.426204 
L -1458.252082 164.820723 
L -1466.300159 164.164475 
L -1474.348236 161.549958 
L -1482.396313 163.596153 
L -1490.44439 157.46152 
L -1498.492467 151.419836 
L -1506.540544 152.995819 
L -1514.588621 156.290305 
L -1522.636698 148.189127 
L -1530.684775 148.524626 
L -1538.732852 146.722596 
L -1546.780929 146.336408 
L -1554.829005 136.118264 
L -1562.877082 135.423314 
L -1570.925159 131.624307 
L -1578.973236 123.418435 
L -1587.021313 117.720616 
L -1595.06939 124.121809 
L -1603.117467 121.195065 
L -1611.165544 116.091143 
L -1619.213621 113.833768 
L -1627.261698 110.00767 
L -1635.309775 105.053621 
L -1643.357852 107.655618 
L -1651.405929 98.031962 
L -1659.454005 94.74489 
L -1667.502082 92.324011 
L -1675.550159 90.891524 
L -1683.598236 91.960256 
L -1691.646313 89.592123 
L -1699.69439 91.183144 
L -1707.742467 94.662683 
L -1715.790544 91.320931 
L -1723.838621 90.853872 
L -1731.886698 95.687665 
L -1739.934775 96.992866 
L -1747.982852 96.281533 
L -1756.030929 104.78205 
L -1764.079005 100.135327 
L -1772.127082 102.107928 
L -1780.175159 109.826349 
L -1788.223236 108.514074 
L -1796.271313 111.530969 
L -1804.31939 114.424945 
L -1812.367467 117.507698 
L -1820.415544 120.867021 
L -1828.463621 124.377315 
L -1836.511698 127.801651 
L -1844.559775 130.815079 
L -1852.607852 134.726166 
L -1860.655929 136.240348 
L -1868.704005 142.563142 
L -1876.752082 143.475413 
L -1884.800159 147.061153 
L -1892.848236 150.967091 
L -1900.896313 154.108915 
L -1908.94439 157.841368 
L -1916.992467 160.920027 
L -1925.040544 165.062425 
L -1933.088621 167.844224 
L -1941.136698 171.075986 
L -1949.184775 174.734064 
L -1957.232852 178.440932 
L -1965.280929 180.96969 
L -1973.329005 184.556956 
L -1981.377082 187.216061 
L -1989.425159 190.869026 
L -1997.473236 193.845028 
L -2005.521313 196.800826 
L -2013.56939 199.994741 
L -2021.617467 202.895532 
L -2029.665544 205.454847 
L -2037.713621 208.574071 
L -2045.761698 210.4736 
L -2053.809775 214.163002 
L -2061.857852 216.855637 
L -2069.905929 219.299422 
L -2077.954005 222.141233 
L -2086.002082 224.118834 
L -2094.050159 226.702498 
L -2102.098236 229.333175 
L -2110.146313 232.16197 
L -2118.19439 234.463265 
L -2126.242467 236.731983 
L -2134.290544 239.148415 
L -2142.338621 241.489501 
L -2150.386698 243.961937 
L -2158.434775 246.047674 
L -2166.482852 248.261993 
L -2174.530929 250.170591 
L -2182.579005 252.593504 
L -2190.627082 254.49439 
L -2198.675159 256.569714 
L -2206.723236 259.015743 
L -2214.771313 260.871262 
L -2222.81939 261.788542 
L -2230.867467 263.878849 
L -2238.915544 265.201651 
L -2246.963621 267.227158 
L -2255.011698 269.494677 
L -2263.059775 270.904763 
L -2271.107852 272.250943 
L -2279.155929 272.913262 
L -2287.204005 274.287042 
L -2295.252082 275.296062 
L -2303.300159 276.341658 
L -2311.348236 278.062994 
L -2319.396313 279.254835 
L -2327.44439 280.759571 
L -2335.492467 280.612526 
L -2343.540544 281.633077 
L -2351.588621 281.138596 
L -2359.636698 283.025398 
L -2367.684775 283.675932 
L -2375.732852 285.165114 
L -2383.780929 283.329465 
L -2391.829005 286.487856 
L -2399.877082 286.69015 
L -2407.925159 285.542366 
L -2415.973236 285.562417 
L -2424.021313 287.386643 
L -2432.06939 290.234026 
L -2440.117467 289.694805 
L -2448.165544 290.046531 
L -2456.213621 287.991111 
L -2464.261698 288.352644 
L -2472.309775 289.442145 
L -2480.357852 291.316274 
L -2488.405929 291.197345 
L -2496.454005 291.248361 
L -2504.502082 291.836561 
L -2512.550159 293.095457 
L -2520.598236 293.215191 
L -2528.646313 294.118152 
L -2536.69439 295.395483 
L -2544.742467 295.016362 
L -2552.790544 296.706122 
L -2560.838621 297.201439 
L -2568.886698 297.639955 
L -2576.934775 298.784807 
L -2584.982852 299.257771 
L -2593.030929 300.479852 
L -2601.079005 301.783808 
L -2609.127082 302.024967 
L -2617.175159 301.809108 
L -2625.223236 301.708373 
L -2633.271313 304.177216 
L -2641.31939 303.982528 
L -2649.367467 305.696052 
L -2657.415544 305.910736 
L -2665.463621 305.508699 
L -2673.511698 307.190928 
L -2681.559775 305.963779 
L -2689.607852 306.203656 
L -2697.655929 308.279426 
L -2705.704005 307.067418 
L -2713.752082 309.0311 
L -2721.800159 309.766515 
L -2729.848236 308.398932 
L -2737.896313 303.710786 
L -2745.94439 306.955222 
L -2753.992467 305.6234 
L -2762.040544 298.575808 
L -2770.088621 304.857501 
L -2778.136698 306.267387 
L -2786.184775 299.766495 
L -2794.232852 298.09874 
L -2802.280929 301.820996 
L -2810.329005 294.770229 
L -2818.377082 282.650939 
L -2826.425159 296.400588 
L -2834.473236 302.07041 
L -2842.521313 304.976544 
L -2850.56939 287.998157 
L -2858.617467 288.916937 
L -2866.665544 280.865422 
L -2874.713621 274.518681 
L -2882.761698 287.931494 
L -2890.809775 282.579723 
L -2898.857852 271.003845 
L -2906.905929 263.002306 
L -2914.954005 263.81178 
L -2923.002082 265.568285 
L -2931.050159 264.102583 
L -2939.098236 263.36944 
L -2947.146313 268.49026 
L -2955.19439 268.222024 
L -2963.242467 265.414245 
L -2971.290544 267.660408 
L -2979.338621 266.684979 
L -2987.386698 266.526527 
L -2995.434775 266.99873 
L -3003.482852 269.204617 
L -3011.530929 270.670986 
L -3019.579005 271.647596 
L -3027.627082 273.625916 
L -3035.675159 274.71016 
L -3043.723236 276.347021 
L -3051.771313 278.729171 
L -3059.81939 280.719537 
L -3067.867467 282.122374 
L -3075.915544 283.670083 
L -3083.963621 285.578269 
L -3092.011698 286.89501 
L -3100.059775 288.720493 
L -3108.107852 290.876106 
L -3116.155929 292.238654 
L -3124.204005 293.258034 
L -3132.252082 294.647293 
L -3140.300159 296.084999 
L -3148.348236 297.384677 
L -3156.396313 298.625061 
L -3164.44439 299.825163 
L -3172.492467 301.383878 
L -3180.540544 302.290769 
L -3188.588621 303.462243 
L -3196.636698 304.69176 
L -3204.684775 305.760573 
L -3212.732852 306.809127 
L -3220.780929 307.704258 
L -3228.829005 308.666809 
L -3236.877082 309.866807 
L -3244.925159 310.758327 
L -3252.973236 311.767387 
L -3261.021313 312.612316 
L -3269.06939 313.52529 
L -3277.117467 314.45958 
L -3285.165544 315.404564 
L -3293.213621 316.207128 
L -3301.261698 317.134368 
L -3309.309775 317.950918 
L -3317.357852 318.820675 
L -3325.405929 319.639977 
L -3333.454005 320.465484 
L -3341.502082 321.251578 
L -3349.550159 322.069601 
L -3357.598236 322.926525 
L -3365.646313 323.612529 
L -3373.69439 324.42024 
L -3381.742467 325.139612 
L -3389.790544 325.941053 
L -3397.838621 326.574755 
L -3405.886698 327.324198 
L -3413.934775 328.047907 
L -3421.982852 328.731671 
L -3430.030929 329.417797 
L -3438.079005 330.057773 
L -3446.127082 330.786009 
L -3454.175159 331.450126 
L -3462.223236 332.015436 
L -3470.271313 332.666137 
L -3478.31939 333.31551 
L -3486.367467 333.962179 
L -3494.415544 334.590029 
L -3502.463621 335.173721 
L -3510.511698 335.811252 
L -3518.559775 336.438603 
L -3526.607852 337.070634 
L -3534.655929 337.70238 
L -3542.704005 338.351865 
L -3550.752082 339.027031 
L -3558.800159 339.617157 
L -3566.848236 340.287501 
L -3574.896313 340.947861 
L -3582.94439 341.585714 
L -3590.992467 342.243803 
L -3599.040544 342.915884 
L -3607.088621 343.571334 
L -3615.136698 344.257888 
L -3623.184775 344.891062 
L -3631.232852 345.537342 
L -3639.280929 346.218466 
L -3647.329005 346.880333 
L -3655.377082 347.51363 
L -3663.425159 348.181744 
L -3671.473236 348.799784 
L -3679.521313 349.457444 
L -3687.56939 350.155131 
L -3695.617467 350.766722 
L -3703.665544 351.443882 
L -3711.713621 352.091136 
L -3719.761698 352.767801 
L -3727.809775 353.389932 
L -3735.857852 354.104441 
L -3743.905929 354.7126 
L -3751.954005 355.385143 
L -3760.002082 356.045975 
L -3768.050159 356.721968 
L -3776.098236 357.369272 
L -3784.146313 358.027145 
L -3792.19439 358.687285 
L -3800.242467 359.366343 
L -3808.290544 360.003072 
L -3816.338621 360.614018 
L -3824.386698 361.232802 
L -3832.434775 361.850393 
L -3840.482852 362.447906 
L -3848.530929 363.04793 
L -3856.579005 363.639654 
L -3864.627082 364.207689 
L -3872.675159 364.776387 
L -3880.723236 365.338662 
L -3888.771313 365.858103 
L -3896.81939 366.38131 
L -3904.867467 366.914928 
L -3912.915544 367.427849 
L -3920.963621 367.892305 
L -3929.011698 368.389173 
L -3937.059775 368.849285 
L -3945.107852 369.277518 
L -3953.155929 369.702381 
L -3961.204005 370.101799 
L -3969.252082 370.518961 
L -3977.300159 370.877094 
L -3985.348236 371.245816 
L -3993.396313 371.593997 
L -4001.44439 371.92055 
L -4009.492467 372.21798 
L -4017.540544 372.491989 
L -4025.588621 372.760364 
L -4033.636698 373.024922 
L -4041.684775 373.248774 
L -4049.732852 373.493102 
L -4057.780929 373.703812 
L -4065.829005 373.888582 
L -4073.877082 374.098574 
L -4081.925159 374.284952 
L -4089.973236 374.443147 
L -4098.021313 374.60995 
L -4106.06939 374.771989 
L -4114.117467 374.916763 
L -4122.165544 375.061242 
L -4130.213621 375.184222 
L -4138.261698 375.327358 
L -4146.309775 375.445289 
L -4154.357852 375.567583 
L -4162.405929 375.69434 
L -4170.454005 375.801112 
L -4178.502082 375.912528 
L -4186.550159 376.051046 
L -4194.598236 376.15406 
L -4202.646313 376.274765 
L -4210.69439 376.374572 
L -4218.742467 376.499255 
L -4226.790544 376.600253 
L -4234.838621 376.703861 
L -4242.886698 376.799002 
L -4250.934775 376.884767 
L -4258.982852 376.980191 
L -4267.030929 377.0804 
L -4275.079005 377.179136 
L -4283.127082 377.266366 
L -4291.175159 377.341216 
L -4299.223236 377.439476 
L -4307.271313 377.523228 
L -4315.31939 377.619826 
z
" clip-path="url(#p44f453dcf2)" style="fill: #008000; fill-opacity: 0.3; stroke: #008000; stroke-opacity: 0.3"/>
   </g>
   <g id="matplotlib.axis_1">
    <g id="xtick_1">
     <g id="line2d_1">
      <defs>
       <path id="m479d7acaee" d="M 0 0 
L 0 3.5 
" style="stroke: #000000; stroke-width: 0.8"/>
      </defs>
      <g>
       <use xlink:href="#m479d7acaee" x="103.074841" y="395.28" style="stroke: #000000; stroke-width: 0.8"/>
      </g>
     </g>
     <g id="text_1">
      <!-- 2023-01-01 -->
      <g transform="translate(17.945813 495.213718) rotate(-45) scale(0.2 -0.2)">
       <defs>
        <path id="DejaVuSans-32" d="M 1228 531 
L 3431 531 
L 3431 0 
L 469 0 
L 469 531 
Q 828 903 1448 1529 
Q 2069 2156 2228 2338 
Q 2531 2678 2651 2914 
Q 2772 3150 2772 3378 
Q 2772 3750 2511 3984 
Q 2250 4219 1831 4219 
Q 1534 4219 1204 4116 
Q 875 4013 500 3803 
L 500 4441 
Q 881 4594 1212 4672 
Q 1544 4750 1819 4750 
Q 2544 4750 2975 4387 
Q 3406 4025 3406 3419 
Q 3406 3131 3298 2873 
Q 3191 2616 2906 2266 
Q 2828 2175 2409 1742 
Q 1991 1309 1228 531 
z
" transform="scale(0.015625)"/>
        <path id="DejaVuSans-30" d="M 2034 4250 
Q 1547 4250 1301 3770 
Q 1056 3291 1056 2328 
Q 1056 1369 1301 889 
Q 1547 409 2034 409 
Q 2525 409 2770 889 
Q 3016 1369 3016 2328 
Q 3016 3291 2770 3770 
Q 2525 4250 2034 4250 
z
M 2034 4750 
Q 2819 4750 3233 4129 
Q 3647 3509 3647 2328 
Q 3647 1150 3233 529 
Q 2819 -91 2034 -91 
Q 1250 -91 836 529 
Q 422 1150 422 2328 
Q 422 3509 836 4129 
Q 1250 4750 2034 4750 
z
" transform="scale(0.015625)"/>
        <path id="DejaVuSans-33" d="M 2597 2516 
Q 3050 2419 3304 2112 
Q 3559 1806 3559 1356 
Q 3559 666 3084 287 
Q 2609 -91 1734 -91 
Q 1441 -91 1130 -33 
Q 819 25 488 141 
L 488 750 
Q 750 597 1062 519 
Q 1375 441 1716 441 
Q 2309 441 2620 675 
Q 2931 909 2931 1356 
Q 2931 1769 2642 2001 
Q 2353 2234 1838 2234 
L 1294 2234 
L 1294 2753 
L 1863 2753 
Q 2328 2753 2575 2939 
Q 2822 3125 2822 3475 
Q 2822 3834 2567 4026 
Q 2313 4219 1838 4219 
Q 1578 4219 1281 4162 
Q 984 4106 628 3988 
L 628 4550 
Q 988 4650 1302 4700 
Q 1616 4750 1894 4750 
Q 2613 4750 3031 4423 
Q 3450 4097 3450 3541 
Q 3450 3153 3228 2886 
Q 3006 2619 2597 2516 
z
" transform="scale(0.015625)"/>
        <path id="DejaVuSans-2d" d="M 313 2009 
L 1997 2009 
L 1997 1497 
L 313 1497 
L 313 2009 
z
" transform="scale(0.015625)"/>
        <path id="DejaVuSans-31" d="M 794 531 
L 1825 531 
L 1825 4091 
L 703 3866 
L 703 4441 
L 1819 4666 
L 2450 4666 
L 2450 531 
L 3481 531 
L 3481 0 
L 794 0 
L 794 531 
z
" transform="scale(0.015625)"/>
       </defs>
       <use xlink:href="#DejaVuSans-32"/>
       <use xlink:href="#DejaVuSans-30" x="63.623047"/>
       <use xlink:href="#DejaVuSans-32" x="127.246094"/>
       <use xlink:href="#DejaVuSans-33" x="190.869141"/>
       <use xlink:href="#DejaVuSans-2d" x="254.492188"/>
       <use xlink:href="#DejaVuSans-30" x="290.576172"/>
       <use xlink:href="#DejaVuSans-31" x="354.199219"/>
       <use xlink:href="#DejaVuSans-2d" x="417.822266"/>
       <use xlink:href="#DejaVuSans-30" x="453.90625"/>
       <use xlink:href="#DejaVuSans-31" x="517.529297"/>
      </g>
     </g>
    </g>
    <g id="xtick_2">
     <g id="line2d_2">
      <g>
       <use xlink:href="#m479d7acaee" x="215.747918" y="395.28" style="stroke: #000000; stroke-width: 0.8"/>
      </g>
     </g>
     <g id="text_2">
      <!-- 2023-01-15 -->
      <g transform="translate(130.61889 495.213718) rotate(-45) scale(0.2 -0.2)">
       <defs>
        <path id="DejaVuSans-35" d="M 691 4666 
L 3169 4666 
L 3169 4134 
L 1269 4134 
L 1269 2991 
Q 1406 3038 1543 3061 
Q 1681 3084 1819 3084 
Q 2600 3084 3056 2656 
Q 3513 2228 3513 1497 
Q 3513 744 3044 326 
Q 2575 -91 1722 -91 
Q 1428 -91 1123 -41 
Q 819 9 494 109 
L 494 744 
Q 775 591 1075 516 
Q 1375 441 1709 441 
Q 2250 441 2565 725 
Q 2881 1009 2881 1497 
Q 2881 1984 2565 2268 
Q 2250 2553 1709 2553 
Q 1456 2553 1204 2497 
Q 953 2441 691 2322 
L 691 4666 
z
" transform="scale(0.015625)"/>
       </defs>
       <use xlink:href="#DejaVuSans-32"/>
       <use xlink:href="#DejaVuSans-30" x="63.623047"/>
       <use xlink:href="#DejaVuSans-32" x="127.246094"/>
       <use xlink:href="#DejaVuSans-33" x="190.869141"/>
       <use xlink:href="#DejaVuSans-2d" x="254.492188"/>
       <use xlink:href="#DejaVuSans-30" x="290.576172"/>
       <use xlink:href="#DejaVuSans-31" x="354.199219"/>
       <use xlink:href="#DejaVuSans-2d" x="417.822266"/>
       <use xlink:href="#DejaVuSans-31" x="453.90625"/>
       <use xlink:href="#DejaVuSans-35" x="517.529297"/>
      </g>
     </g>
    </g>
    <g id="xtick_3">
     <g id="line2d_3">
      <g>
       <use xlink:href="#m479d7acaee" x="328.420995" y="395.28" style="stroke: #000000; stroke-width: 0.8"/>
      </g>
     </g>
     <g id="text_3">
      <!-- 2023-01-29 -->
      <g transform="translate(243.291967 495.213718) rotate(-45) scale(0.2 -0.2)">
       <defs>
        <path id="DejaVuSans-39" d="M 703 97 
L 703 672 
Q 941 559 1184 500 
Q 1428 441 1663 441 
Q 2288 441 2617 861 
Q 2947 1281 2994 2138 
Q 2813 1869 2534 1725 
Q 2256 1581 1919 1581 
Q 1219 1581 811 2004 
Q 403 2428 403 3163 
Q 403 3881 828 4315 
Q 1253 4750 1959 4750 
Q 2769 4750 3195 4129 
Q 3622 3509 3622 2328 
Q 3622 1225 3098 567 
Q 2575 -91 1691 -91 
Q 1453 -91 1209 -44 
Q 966 3 703 97 
z
M 1959 2075 
Q 2384 2075 2632 2365 
Q 2881 2656 2881 3163 
Q 2881 3666 2632 3958 
Q 2384 4250 1959 4250 
Q 1534 4250 1286 3958 
Q 1038 3666 1038 3163 
Q 1038 2656 1286 2365 
Q 1534 2075 1959 2075 
z
" transform="scale(0.015625)"/>
       </defs>
       <use xlink:href="#DejaVuSans-32"/>
       <use xlink:href="#DejaVuSans-30" x="63.623047"/>
       <use xlink:href="#DejaVuSans-32" x="127.246094"/>
       <use xlink:href="#DejaVuSans-33" x="190.869141"/>
       <use xlink:href="#DejaVuSans-2d" x="254.492188"/>
       <use xlink:href="#DejaVuSans-30" x="290.576172"/>
       <use xlink:href="#DejaVuSans-31" x="354.199219"/>
       <use xlink:href="#DejaVuSans-2d" x="417.822266"/>
       <use xlink:href="#DejaVuSans-32" x="453.90625"/>
       <use xlink:href="#DejaVuSans-39" x="517.529297"/>
      </g>
     </g>
    </g>
    <g id="xtick_4">
     <g id="line2d_4">
      <g>
       <use xlink:href="#m479d7acaee" x="441.094071" y="395.28" style="stroke: #000000; stroke-width: 0.8"/>
      </g>
     </g>
     <g id="text_4">
      <!-- 2023-02-12 -->
      <g transform="translate(355.965044 495.213718) rotate(-45) scale(0.2 -0.2)">
       <use xlink:href="#DejaVuSans-32"/>
       <use xlink:href="#DejaVuSans-30" x="63.623047"/>
       <use xlink:href="#DejaVuSans-32" x="127.246094"/>
       <use xlink:href="#DejaVuSans-33" x="190.869141"/>
       <use xlink:href="#DejaVuSans-2d" x="254.492188"/>
       <use xlink:href="#DejaVuSans-30" x="290.576172"/>
       <use xlink:href="#DejaVuSans-32" x="354.199219"/>
       <use xlink:href="#DejaVuSans-2d" x="417.822266"/>
       <use xlink:href="#DejaVuSans-31" x="453.90625"/>
       <use xlink:href="#DejaVuSans-32" x="517.529297"/>
      </g>
     </g>
    </g>
    <g id="xtick_5">
     <g id="line2d_5">
      <g>
       <use xlink:href="#m479d7acaee" x="553.767148" y="395.28" style="stroke: #000000; stroke-width: 0.8"/>
      </g>
     </g>
     <g id="text_5">
      <!-- 2023-02-26 -->
      <g transform="translate(468.638121 495.213718) rotate(-45) scale(0.2 -0.2)">
       <defs>
        <path id="DejaVuSans-36" d="M 2113 2584 
Q 1688 2584 1439 2293 
Q 1191 2003 1191 1497 
Q 1191 994 1439 701 
Q 1688 409 2113 409 
Q 2538 409 2786 701 
Q 3034 994 3034 1497 
Q 3034 2003 2786 2293 
Q 2538 2584 2113 2584 
z
M 3366 4563 
L 3366 3988 
Q 3128 4100 2886 4159 
Q 2644 4219 2406 4219 
Q 1781 4219 1451 3797 
Q 1122 3375 1075 2522 
Q 1259 2794 1537 2939 
Q 1816 3084 2150 3084 
Q 2853 3084 3261 2657 
Q 3669 2231 3669 1497 
Q 3669 778 3244 343 
Q 2819 -91 2113 -91 
Q 1303 -91 875 529 
Q 447 1150 447 2328 
Q 447 3434 972 4092 
Q 1497 4750 2381 4750 
Q 2619 4750 2861 4703 
Q 3103 4656 3366 4563 
z
" transform="scale(0.015625)"/>
       </defs>
       <use xlink:href="#DejaVuSans-32"/>
       <use xlink:href="#DejaVuSans-30" x="63.623047"/>
       <use xlink:href="#DejaVuSans-32" x="127.246094"/>
       <use xlink:href="#DejaVuSans-33" x="190.869141"/>
       <use xlink:href="#DejaVuSans-2d" x="254.492188"/>
       <use xlink:href="#DejaVuSans-30" x="290.576172"/>
       <use xlink:href="#DejaVuSans-32" x="354.199219"/>
       <use xlink:href="#DejaVuSans-2d" x="417.822266"/>
       <use xlink:href="#DejaVuSans-32" x="453.90625"/>
       <use xlink:href="#DejaVuSans-36" x="517.529297"/>
      </g>
     </g>
    </g>
    <g id="xtick_6">
     <g id="line2d_6">
      <g>
       <use xlink:href="#m479d7acaee" x="666.440225" y="395.28" style="stroke: #000000; stroke-width: 0.8"/>
      </g>
     </g>
     <g id="text_6">
      <!-- 2023-03-12 -->
      <g transform="translate(581.311198 495.213718) rotate(-45) scale(0.2 -0.2)">
       <use xlink:href="#DejaVuSans-32"/>
       <use xlink:href="#DejaVuSans-30" x="63.623047"/>
       <use xlink:href="#DejaVuSans-32" x="127.246094"/>
       <use xlink:href="#DejaVuSans-33" x="190.869141"/>
       <use xlink:href="#DejaVuSans-2d" x="254.492188"/>
       <use xlink:href="#DejaVuSans-30" x="290.576172"/>
       <use xlink:href="#DejaVuSans-33" x="354.199219"/>
       <use xlink:href="#DejaVuSans-2d" x="417.822266"/>
       <use xlink:href="#DejaVuSans-31" x="453.90625"/>
       <use xlink:href="#DejaVuSans-32" x="517.529297"/>
      </g>
     </g>
    </g>
    <g id="xtick_7">
     <g id="line2d_7">
      <g>
       <use xlink:href="#m479d7acaee" x="779.113302" y="395.28" style="stroke: #000000; stroke-width: 0.8"/>
      </g>
     </g>
     <g id="text_7">
      <!-- 2023-03-26 -->
      <g transform="translate(693.984275 495.213718) rotate(-45) scale(0.2 -0.2)">
       <use xlink:href="#DejaVuSans-32"/>
       <use xlink:href="#DejaVuSans-30" x="63.623047"/>
       <use xlink:href="#DejaVuSans-32" x="127.246094"/>
       <use xlink:href="#DejaVuSans-33" x="190.869141"/>
       <use xlink:href="#DejaVuSans-2d" x="254.492188"/>
       <use xlink:href="#DejaVuSans-30" x="290.576172"/>
       <use xlink:href="#DejaVuSans-33" x="354.199219"/>
       <use xlink:href="#DejaVuSans-2d" x="417.822266"/>
       <use xlink:href="#DejaVuSans-32" x="453.90625"/>
       <use xlink:href="#DejaVuSans-36" x="517.529297"/>
      </g>
     </g>
    </g>
    <g id="xtick_8">
     <g id="line2d_8">
      <g>
       <use xlink:href="#m479d7acaee" x="891.786379" y="395.28" style="stroke: #000000; stroke-width: 0.8"/>
      </g>
     </g>
     <g id="text_8">
      <!-- 2023-04-09 -->
      <g transform="translate(806.657352 495.213718) rotate(-45) scale(0.2 -0.2)">
       <defs>
        <path id="DejaVuSans-34" d="M 2419 4116 
L 825 1625 
L 2419 1625 
L 2419 4116 
z
M 2253 4666 
L 3047 4666 
L 3047 1625 
L 3713 1625 
L 3713 1100 
L 3047 1100 
L 3047 0 
L 2419 0 
L 2419 1100 
L 313 1100 
L 313 1709 
L 2253 4666 
z
" transform="scale(0.015625)"/>
       </defs>
       <use xlink:href="#DejaVuSans-32"/>
       <use xlink:href="#DejaVuSans-30" x="63.623047"/>
       <use xlink:href="#DejaVuSans-32" x="127.246094"/>
       <use xlink:href="#DejaVuSans-33" x="190.869141"/>
       <use xlink:href="#DejaVuSans-2d" x="254.492188"/>
       <use xlink:href="#DejaVuSans-30" x="290.576172"/>
       <use xlink:href="#DejaVuSans-34" x="354.199219"/>
       <use xlink:href="#DejaVuSans-2d" x="417.822266"/>
       <use xlink:href="#DejaVuSans-30" x="453.90625"/>
       <use xlink:href="#DejaVuSans-39" x="517.529297"/>
      </g>
     </g>
    </g>
    <g id="xtick_9">
     <g id="line2d_9">
      <g>
       <use xlink:href="#m479d7acaee" x="940.074841" y="395.28" style="stroke: #000000; stroke-width: 0.8"/>
      </g>
     </g>
     <g id="text_9">
      <!-- 2023-04-15 -->
      <g transform="translate(854.945813 495.213718) rotate(-45) scale(0.2 -0.2)">
       <use xlink:href="#DejaVuSans-32"/>
       <use xlink:href="#DejaVuSans-30" x="63.623047"/>
       <use xlink:href="#DejaVuSans-32" x="127.246094"/>
       <use xlink:href="#DejaVuSans-33" x="190.869141"/>
       <use xlink:href="#DejaVuSans-2d" x="254.492188"/>
       <use xlink:href="#DejaVuSans-30" x="290.576172"/>
       <use xlink:href="#DejaVuSans-34" x="354.199219"/>
       <use xlink:href="#DejaVuSans-2d" x="417.822266"/>
       <use xlink:href="#DejaVuSans-31" x="453.90625"/>
       <use xlink:href="#DejaVuSans-35" x="517.529297"/>
      </g>
     </g>
    </g>
   </g>
   <g id="matplotlib.axis_2">
    <g id="ytick_1">
     <g id="line2d_10">
      <defs>
       <path id="mb55c823f28" d="M 0 0 
L -3.5 0 
" style="stroke: #000000; stroke-width: 0.8"/>
      </defs>
      <g>
       <use xlink:href="#mb55c823f28" x="103.074841" y="377.708604" style="stroke: #000000; stroke-width: 0.8"/>
      </g>
     </g>
     <g id="text_10">
      <!-- 0.00 -->
      <g transform="translate(51.543591 385.307041) scale(0.2 -0.2)">
       <defs>
        <path id="DejaVuSans-2e" d="M 684 794 
L 1344 794 
L 1344 0 
L 684 0 
L 684 794 
z
" transform="scale(0.015625)"/>
       </defs>
       <use xlink:href="#DejaVuSans-30"/>
       <use xlink:href="#DejaVuSans-2e" x="63.623047"/>
       <use xlink:href="#DejaVuSans-30" x="95.410156"/>
       <use xlink:href="#DejaVuSans-30" x="159.033203"/>
      </g>
     </g>
    </g>
    <g id="ytick_2">
     <g id="line2d_11">
      <g>
       <use xlink:href="#mb55c823f28" x="103.074841" y="314.521357" style="stroke: #000000; stroke-width: 0.8"/>
      </g>
     </g>
     <g id="text_11">
      <!-- 0.05 -->
      <g transform="translate(51.543591 322.119795) scale(0.2 -0.2)">
       <use xlink:href="#DejaVuSans-30"/>
       <use xlink:href="#DejaVuSans-2e" x="63.623047"/>
       <use xlink:href="#DejaVuSans-30" x="95.410156"/>
       <use xlink:href="#DejaVuSans-35" x="159.033203"/>
      </g>
     </g>
    </g>
    <g id="ytick_3">
     <g id="line2d_12">
      <g>
       <use xlink:href="#mb55c823f28" x="103.074841" y="251.334111" style="stroke: #000000; stroke-width: 0.8"/>
      </g>
     </g>
     <g id="text_12">
      <!-- 0.10 -->
      <g transform="translate(51.543591 258.932548) scale(0.2 -0.2)">
       <use xlink:href="#DejaVuSans-30"/>
       <use xlink:href="#DejaVuSans-2e" x="63.623047"/>
       <use xlink:href="#DejaVuSans-31" x="95.410156"/>
       <use xlink:href="#DejaVuSans-30" x="159.033203"/>
      </g>
     </g>
    </g>
    <g id="ytick_4">
     <g id="line2d_13">
      <g>
       <use xlink:href="#mb55c823f28" x="103.074841" y="188.146864" style="stroke: #000000; stroke-width: 0.8"/>
      </g>
     </g>
     <g id="text_13">
      <!-- 0.15 -->
      <g transform="translate(51.543591 195.745302) scale(0.2 -0.2)">
       <use xlink:href="#DejaVuSans-30"/>
       <use xlink:href="#DejaVuSans-2e" x="63.623047"/>
       <use xlink:href="#DejaVuSans-31" x="95.410156"/>
       <use xlink:href="#DejaVuSans-35" x="159.033203"/>
      </g>
     </g>
    </g>
    <g id="ytick_5">
     <g id="line2d_14">
      <g>
       <use xlink:href="#mb55c823f28" x="103.074841" y="124.959618" style="stroke: #000000; stroke-width: 0.8"/>
      </g>
     </g>
     <g id="text_14">
      <!-- 0.20 -->
      <g transform="translate(51.543591 132.558055) scale(0.2 -0.2)">
       <use xlink:href="#DejaVuSans-30"/>
       <use xlink:href="#DejaVuSans-2e" x="63.623047"/>
       <use xlink:href="#DejaVuSans-32" x="95.410156"/>
       <use xlink:href="#DejaVuSans-30" x="159.033203"/>
      </g>
     </g>
    </g>
    <g id="ytick_6">
     <g id="line2d_15">
      <g>
       <use xlink:href="#mb55c823f28" x="103.074841" y="61.772371" style="stroke: #000000; stroke-width: 0.8"/>
      </g>
     </g>
     <g id="text_15">
      <!-- 0.25 -->
      <g transform="translate(51.543591 69.370809) scale(0.2 -0.2)">
       <use xlink:href="#DejaVuSans-30"/>
       <use xlink:href="#DejaVuSans-2e" x="63.623047"/>
       <use xlink:href="#DejaVuSans-32" x="95.410156"/>
       <use xlink:href="#DejaVuSans-35" x="159.033203"/>
      </g>
     </g>
    </g>
   </g>
   <g id="line2d_16">
    <path d="M 0 0 
" clip-path="url(#p44f453dcf2)" style="fill: none; stroke: #ffa500; stroke-width: 1.5; stroke-linecap: square"/>
   </g>
   <g id="line2d_17">
    <path d="M 103.074841 377.708604 
L 948.274841 377.708604 
" clip-path="url(#p44f453dcf2)" style="fill: none; stroke-dasharray: 7.4,3.2; stroke-dashoffset: 0; stroke: #000000; stroke-width: 2"/>
   </g>
   <g id="patch_3">
    <path d="M 103.074841 395.28 
L 103.074841 7.2 
" style="fill: none; stroke: #000000; stroke-width: 0.8; stroke-linejoin: miter; stroke-linecap: square"/>
   </g>
   <g id="patch_4">
    <path d="M 940.074841 395.28 
L 940.074841 7.2 
" style="fill: none; stroke: #000000; stroke-width: 0.8; stroke-linejoin: miter; stroke-linecap: square"/>
   </g>
   <g id="patch_5">
    <path d="M 103.074841 395.28 
L 940.074841 395.28 
" style="fill: none; stroke: #000000; stroke-width: 0.8; stroke-linejoin: miter; stroke-linecap: square"/>
   </g>
   <g id="patch_6">
    <path d="M 103.074841 7.2 
L 940.074841 7.2 
" style="fill: none; stroke: #000000; stroke-width: 0.8; stroke-linejoin: miter; stroke-linecap: square"/>
   </g>
  </g>
 </g>
 <defs>
  <clipPath id="p44f453dcf2">
   <rect x="103.074841" y="7.2" width="837" height="388.08"/>
  </clipPath>
 </defs>
</svg>
