<?xml version="1.0" encoding="utf-8" standalone="no"?>
<!DOCTYPE svg PUBLIC "-//W3C//DTD SVG 1.1//EN"
  "http://www.w3.org/Graphics/SVG/1.1/DTD/svg11.dtd">
<svg xmlns:xlink="http://www.w3.org/1999/xlink" width="947.274841pt" height="505.354841pt" viewBox="0 0 947.274841 505.354841" xmlns="http://www.w3.org/2000/svg" version="1.1">
 <metadata>
  <rdf:RDF xmlns:dc="http://purl.org/dc/elements/1.1/" xmlns:cc="http://creativecommons.org/ns#" xmlns:rdf="http://www.w3.org/1999/02/22-rdf-syntax-ns#">
   <cc:Work>
    <dc:type rdf:resource="http://purl.org/dc/dcmitype/StillImage"/>
    <dc:date>2023-11-12T22:43:58.373180</dc:date>
    <dc:format>image/svg+xml</dc:format>
    <dc:creator>
     <cc:Agent>
      <dc:title>Matplotlib v3.7.2, https://matplotlib.org/</dc:title>
     </cc:Agent>
    </dc:creator>
   </cc:Work>
  </rdf:RDF>
 </metadata>
 <defs>
  <style type="text/css">*{stroke-linejoin: round; stroke-linecap: butt}</style>
 </defs>
 <g id="figure_1">
  <g id="patch_1">
   <path d="M 0 505.354841 
L 947.274841 505.354841 
L 947.274841 -0 
L 0 -0 
z
" style="fill: #ffffff"/>
  </g>
  <g id="axes_1">
   <g id="patch_2">
    <path d="M 103.074841 395.28 
L 940.074841 395.28 
L 940.074841 7.2 
L 103.074841 7.2 
z
" style="fill: #ffffff"/>
   </g>
   <g id="PolyCollection_1">
    <path d="M -4315.31939 323.223029 
L -4315.31939 323.224229 
L -4307.271313 323.218292 
L -4299.223236 323.213121 
L -4291.175159 323.206557 
L -4283.127082 323.202129 
L -4275.079005 323.1965 
L -4267.030929 323.190609 
L -4258.982852 323.184858 
L -4250.934775 323.179439 
L -4242.886698 323.174647 
L -4234.838621 323.169144 
L -4226.790544 323.163388 
L -4218.742467 323.157781 
L -4210.69439 323.150961 
L -4202.646313 323.145258 
L -4194.598236 323.138591 
L -4186.550159 323.132832 
L -4178.502082 323.125154 
L -4170.454005 323.118783 
L -4162.405929 323.112632 
L -4154.357852 323.105412 
L -4146.309775 323.098359 
L -4138.261698 323.09145 
L -4130.213621 323.08317 
L -4122.165544 323.075876 
L -4114.117467 323.067386 
L -4106.06939 323.058784 
L -4098.021313 323.049295 
L -4089.973236 323.039542 
L -4081.925159 323.029975 
L -4073.877082 323.018949 
L -4065.829005 323.006507 
L -4057.780929 322.99539 
L -4049.732852 322.982794 
L -4041.684775 322.968449 
L -4033.636698 322.95504 
L -4025.588621 322.939371 
L -4017.540544 322.923434 
L -4009.492467 322.907002 
L -4001.44439 322.889652 
L -3993.396313 322.87046 
L -3985.348236 322.850032 
L -3977.300159 322.828383 
L -3969.252082 322.807452 
L -3961.204005 322.782965 
L -3953.155929 322.759596 
L -3945.107852 322.734732 
L -3937.059775 322.709742 
L -3929.011698 322.682875 
L -3920.963621 322.653833 
L -3912.915544 322.626845 
L -3904.867467 322.596876 
L -3896.81939 322.565866 
L -3888.771313 322.535439 
L -3880.723236 322.505296 
L -3872.675159 322.472657 
L -3864.627082 322.439663 
L -3856.579005 322.406715 
L -3848.530929 322.372418 
L -3840.482852 322.337725 
L -3832.434775 322.303113 
L -3824.386698 322.267342 
L -3816.338621 322.231482 
L -3808.290544 322.196129 
L -3800.242467 322.159356 
L -3792.19439 322.12008 
L -3784.146313 322.08199 
L -3776.098236 322.043972 
L -3768.050159 322.006523 
L -3760.002082 321.967583 
L -3751.954005 321.929514 
L -3743.905929 321.890804 
L -3735.857852 321.85573 
L -3727.809775 321.814656 
L -3719.761698 321.778904 
L -3711.713621 321.739872 
L -3703.665544 321.702644 
L -3695.617467 321.664099 
L -3687.56939 321.629477 
L -3679.521313 321.589912 
L -3671.473236 321.552637 
L -3663.425159 321.51788 
L -3655.377082 321.480366 
L -3647.329005 321.444782 
L -3639.280929 321.407611 
L -3631.232852 321.370147 
L -3623.184775 321.334212 
L -3615.136698 321.29897 
L -3607.088621 321.261119 
L -3599.040544 321.224879 
L -3590.992467 321.188183 
L -3582.94439 321.152059 
L -3574.896313 321.116755 
L -3566.848236 321.080533 
L -3558.800159 321.043964 
L -3550.752082 321.010891 
L -3542.704005 320.973642 
L -3534.655929 320.937899 
L -3526.607852 320.902725 
L -3518.559775 320.867512 
L -3510.511698 320.832385 
L -3502.463621 320.796825 
L -3494.415544 320.762839 
L -3486.367467 320.727564 
L -3478.31939 320.691458 
L -3470.271313 320.654966 
L -3462.223236 320.618099 
L -3454.175159 320.583482 
L -3446.127082 320.545565 
L -3438.079005 320.505239 
L -3430.030929 320.467258 
L -3421.982852 320.427291 
L -3413.934775 320.386715 
L -3405.886698 320.343955 
L -3397.838621 320.300433 
L -3389.790544 320.259849 
L -3381.742467 320.213794 
L -3373.69439 320.169916 
L -3365.646313 320.122806 
L -3357.598236 320.079363 
L -3349.550159 320.028596 
L -3341.502082 319.978764 
L -3333.454005 319.930268 
L -3325.405929 319.880931 
L -3317.357852 319.830108 
L -3309.309775 319.77706 
L -3301.261698 319.727189 
L -3293.213621 319.670342 
L -3285.165544 319.620068 
L -3277.117467 319.561548 
L -3269.06939 319.504747 
L -3261.021313 319.449199 
L -3252.973236 319.395801 
L -3244.925159 319.333827 
L -3236.877082 319.277588 
L -3228.829005 319.206676 
L -3220.780929 319.145327 
L -3212.732852 319.087947 
L -3204.684775 319.02341 
L -3196.636698 318.957218 
L -3188.588621 318.881306 
L -3180.540544 318.809922 
L -3172.492467 318.749839 
L -3164.44439 318.656325 
L -3156.396313 318.580561 
L -3148.348236 318.503115 
L -3140.300159 318.422766 
L -3132.252082 318.331621 
L -3124.204005 318.245593 
L -3116.155929 318.179601 
L -3108.107852 318.096381 
L -3100.059775 317.962169 
L -3092.011698 317.84852 
L -3083.963621 317.763254 
L -3075.915544 317.646753 
L -3067.867467 317.549166 
L -3059.81939 317.463391 
L -3051.771313 317.356716 
L -3043.723236 317.218237 
L -3035.675159 317.135467 
L -3027.627082 317.091182 
L -3019.579005 316.989552 
L -3011.530929 316.954158 
L -3003.482852 316.889021 
L -2995.434775 316.767129 
L -2987.386698 316.772946 
L -2979.338621 316.817793 
L -2971.290544 316.916652 
L -2963.242467 316.798143 
L -2955.19439 317.022644 
L -2947.146313 317.069777 
L -2939.098236 316.759288 
L -2931.050159 316.842825 
L -2923.002082 316.975467 
L -2914.954005 316.892034 
L -2906.905929 316.872449 
L -2898.857852 317.452808 
L -2890.809775 318.278943 
L -2882.761698 318.688303 
L -2874.713621 317.784784 
L -2866.665544 318.244401 
L -2858.617467 318.847357 
L -2850.56939 318.808838 
L -2842.521313 320.038901 
L -2834.473236 319.866875 
L -2826.425159 319.485965 
L -2818.377082 318.547629 
L -2810.329005 319.423627 
L -2802.280929 319.948995 
L -2794.232852 319.724759 
L -2786.184775 319.859326 
L -2778.136698 320.354861 
L -2770.088621 320.284788 
L -2762.040544 319.851121 
L -2753.992467 320.388 
L -2745.94439 320.491349 
L -2737.896313 320.294391 
L -2729.848236 320.633479 
L -2721.800159 320.754656 
L -2713.752082 320.71647 
L -2705.704005 320.607945 
L -2697.655929 320.71619 
L -2689.607852 320.596441 
L -2681.559775 320.601743 
L -2673.511698 320.704421 
L -2665.463621 320.598515 
L -2657.415544 320.646282 
L -2649.367467 320.644359 
L -2641.31939 320.557666 
L -2633.271313 320.58281 
L -2625.223236 320.45992 
L -2617.175159 320.462798 
L -2609.127082 320.490517 
L -2601.079005 320.487319 
L -2593.030929 320.424717 
L -2584.982852 320.370389 
L -2576.934775 320.352847 
L -2568.886698 320.293329 
L -2560.838621 320.279521 
L -2552.790544 320.26401 
L -2544.742467 320.176337 
L -2536.69439 320.209983 
L -2528.646313 320.150458 
L -2520.598236 320.121947 
L -2512.550159 320.118636 
L -2504.502082 320.060589 
L -2496.454005 320.042769 
L -2488.405929 320.056562 
L -2480.357852 320.082118 
L -2472.309775 319.991256 
L -2464.261698 319.972928 
L -2456.213621 319.940922 
L -2448.165544 320.088794 
L -2440.117467 320.090054 
L -2432.06939 320.146541 
L -2424.021313 320.001082 
L -2415.973236 319.910861 
L -2407.925159 319.937636 
L -2399.877082 320.036243 
L -2391.829005 320.052591 
L -2383.780929 319.877919 
L -2375.732852 320.025394 
L -2367.684775 319.989073 
L -2359.636698 319.965647 
L -2351.588621 319.886105 
L -2343.540544 319.952965 
L -2335.492467 319.915492 
L -2327.44439 319.954345 
L -2319.396313 319.904301 
L -2311.348236 319.865384 
L -2303.300159 319.793447 
L -2295.252082 319.760479 
L -2287.204005 319.730796 
L -2279.155929 319.689195 
L -2271.107852 319.682817 
L -2263.059775 319.64533 
L -2255.011698 319.605137 
L -2246.963621 319.492402 
L -2238.915544 319.40778 
L -2230.867467 319.372218 
L -2222.81939 319.279593 
L -2214.771313 319.265165 
L -2206.723236 319.185356 
L -2198.675159 319.065519 
L -2190.627082 318.966514 
L -2182.579005 318.89313 
L -2174.530929 318.769006 
L -2166.482852 318.695342 
L -2158.434775 318.585758 
L -2150.386698 318.489704 
L -2142.338621 318.367534 
L -2134.290544 318.267911 
L -2126.242467 318.130465 
L -2118.19439 318.023596 
L -2110.146313 317.907094 
L -2102.098236 317.750141 
L -2094.050159 317.604474 
L -2086.002082 317.50032 
L -2077.954005 317.372698 
L -2069.905929 317.214962 
L -2061.857852 317.092097 
L -2053.809775 316.947831 
L -2045.761698 316.740032 
L -2037.713621 316.65455 
L -2029.665544 316.479291 
L -2021.617467 316.343678 
L -2013.56939 316.188197 
L -2005.521313 316.019222 
L -1997.473236 315.844318 
L -1989.425159 315.695427 
L -1981.377082 315.491324 
L -1973.329005 315.368466 
L -1965.280929 315.169421 
L -1957.232852 315.044292 
L -1949.184775 314.840307 
L -1941.136698 314.643931 
L -1933.088621 314.463354 
L -1925.040544 314.322421 
L -1916.992467 314.097283 
L -1908.94439 313.948434 
L -1900.896313 313.749134 
L -1892.848236 313.588684 
L -1884.800159 313.378011 
L -1876.752082 313.194494 
L -1868.704005 313.176501 
L -1860.655929 312.80982 
L -1852.607852 312.756154 
L -1844.559775 312.541005 
L -1836.511698 312.399703 
L -1828.463621 312.230985 
L -1820.415544 312.050137 
L -1812.367467 311.887362 
L -1804.31939 311.730236 
L -1796.271313 311.582618 
L -1788.223236 311.433875 
L -1780.175159 311.558597 
L -1772.127082 311.107264 
L -1764.079005 310.998349 
L -1756.030929 311.376372 
L -1747.982852 310.829882 
L -1739.934775 310.924711 
L -1731.886698 310.866839 
L -1723.838621 310.582833 
L -1715.790544 310.633361 
L -1707.742467 310.912639 
L -1699.69439 310.709086 
L -1691.646313 310.615615 
L -1683.598236 310.788966 
L -1675.550159 310.723811 
L -1667.502082 310.842135 
L -1659.454005 311.002433 
L -1651.405929 311.276781 
L -1643.357852 311.914526 
L -1635.309775 311.76638 
L -1627.261698 312.110941 
L -1619.213621 312.395682 
L -1611.165544 312.547575 
L -1603.117467 312.910314 
L -1595.06939 313.139257 
L -1587.021313 312.698358 
L -1578.973236 313.118456 
L -1570.925159 313.707787 
L -1562.877082 314.055942 
L -1554.829005 314.21612 
L -1546.780929 315.169003 
L -1538.732852 315.247669 
L -1530.684775 315.508815 
L -1522.636698 315.441006 
L -1514.588621 316.245562 
L -1506.540544 315.998718 
L -1498.492467 315.859315 
L -1490.44439 316.546694 
L -1482.396313 317.03539 
L -1474.348236 316.994549 
L -1466.300159 317.285573 
L -1458.252082 317.381884 
L -1450.204005 317.402047 
L -1442.155929 317.404561 
L -1434.107852 317.567654 
L -1426.059775 317.661173 
L -1418.011698 318.163099 
L -1409.963621 317.911673 
L -1401.915544 318.349873 
L -1393.867467 318.256872 
L -1385.81939 318.203371 
L -1377.771313 318.384571 
L -1369.723236 318.54699 
L -1361.675159 318.355119 
L -1353.627082 318.459521 
L -1345.579005 318.473193 
L -1337.530929 318.716496 
L -1329.482852 318.608236 
L -1321.434775 318.562394 
L -1313.386698 318.638964 
L -1305.338621 318.761262 
L -1297.290544 318.715271 
L -1289.242467 318.612664 
L -1281.19439 318.686232 
L -1273.146313 318.526128 
L -1265.098236 318.555048 
L -1257.050159 318.847194 
L -1249.002082 318.842302 
L -1240.954005 318.695973 
L -1232.905929 318.668953 
L -1224.857852 318.699593 
L -1216.809775 318.541396 
L -1208.761698 318.595375 
L -1200.713621 318.607895 
L -1192.665544 318.584972 
L -1184.617467 318.552572 
L -1176.56939 318.460925 
L -1168.521313 318.53714 
L -1160.473236 318.48058 
L -1152.425159 318.479596 
L -1144.377082 318.456658 
L -1136.329005 318.475522 
L -1128.280929 318.409392 
L -1120.232852 318.27807 
L -1112.184775 318.286041 
L -1104.136698 318.181494 
L -1096.088621 318.0242 
L -1088.040544 318.163467 
L -1079.992467 317.94349 
L -1071.94439 318.054242 
L -1063.896313 318.02281 
L -1055.848236 318.051712 
L -1047.800159 317.914037 
L -1039.752082 317.915001 
L -1031.704005 317.904901 
L -1023.655929 317.729208 
L -1015.607852 317.785863 
L -1007.559775 317.779108 
L -999.511698 317.780978 
L -991.463621 317.701074 
L -983.415544 317.750984 
L -975.367467 317.668186 
L -967.31939 317.588641 
L -959.271313 317.458746 
L -951.223236 317.421931 
L -943.175159 317.399901 
L -935.127082 317.310839 
L -927.079005 317.331495 
L -919.030929 317.291118 
L -910.982852 317.212272 
L -902.934775 317.221728 
L -894.886698 317.131145 
L -886.838621 317.217274 
L -878.790544 317.156181 
L -870.742467 317.165325 
L -862.69439 317.051389 
L -854.646313 316.89326 
L -846.598236 317.037661 
L -838.550159 317.03838 
L -830.502082 316.990588 
L -822.454005 316.940488 
L -814.405929 316.834329 
L -806.357852 316.815006 
L -798.309775 316.753642 
L -790.261698 316.766256 
L -782.213621 316.7468 
L -774.165544 316.642641 
L -766.117467 316.495585 
L -758.06939 316.696815 
L -750.021313 316.654328 
L -741.973236 316.528202 
L -733.925159 316.61532 
L -725.877082 316.386101 
L -717.829005 316.418738 
L -709.780929 316.438571 
L -701.732852 316.2858 
L -693.684775 316.560096 
L -685.636698 316.295874 
L -677.588621 316.165171 
L -669.540544 316.348424 
L -661.492467 316.404257 
L -653.44439 316.327917 
L -645.396313 316.406722 
L -637.348236 316.293488 
L -629.300159 316.547944 
L -621.252082 316.44025 
L -613.204005 316.505401 
L -605.155929 316.35568 
L -597.107852 316.222485 
L -589.059775 316.428108 
L -581.011698 316.782739 
L -572.963621 316.419362 
L -564.915544 316.459477 
L -556.867467 316.335185 
L -548.81939 316.419872 
L -540.771313 316.419021 
L -532.723236 316.348078 
L -524.675159 316.332321 
L -516.627082 316.51296 
L -508.579005 316.444198 
L -500.530929 316.610001 
L -492.482852 316.652964 
L -484.434775 316.233883 
L -476.386698 316.426688 
L -468.338621 316.453427 
L -460.290544 316.494676 
L -452.242467 316.53108 
L -444.19439 316.819219 
L -436.146313 316.939156 
L -428.098236 316.935264 
L -420.050159 317.249239 
L -412.002082 317.763954 
L -403.954005 317.172997 
L -395.905929 317.170254 
L -387.857852 317.186613 
L -379.809775 317.393512 
L -371.761698 317.44297 
L -363.713621 317.447001 
L -355.665544 317.889425 
L -347.617467 318.053993 
L -339.56939 317.566655 
L -331.521313 318.023635 
L -323.473236 317.811848 
L -315.425159 317.684187 
L -307.377082 318.23766 
L -299.329005 318.142701 
L -291.280929 318.504235 
L -283.232852 318.41644 
L -275.184775 318.196086 
L -267.136698 318.432523 
L -259.088621 318.447002 
L -251.040544 318.683294 
L -242.992467 318.565912 
L -234.94439 318.95228 
L -226.896313 318.713854 
L -218.848236 318.923057 
L -210.800159 318.909576 
L -202.752082 319.136367 
L -194.704005 318.821898 
L -186.655929 319.201576 
L -178.607852 319.201732 
L -170.559775 319.469217 
L -162.511698 319.6238 
L -154.463621 319.647126 
L -146.415544 319.604985 
L -138.367467 319.786805 
L -130.31939 319.930131 
L -122.271313 319.846106 
L -114.223236 319.829621 
L -106.175159 319.996764 
L -98.127082 320.144801 
L -90.079005 319.949961 
L -82.030929 319.846525 
L -73.982852 320.36758 
L -65.934775 320.614838 
L -57.886698 320.131105 
L -49.838621 320.302074 
L -41.790544 320.398462 
L -33.742467 320.458057 
L -25.69439 320.736335 
L -17.646313 320.724277 
L -9.598236 320.641885 
L -1.550159 320.770218 
L 6.497918 320.823787 
L 14.545995 320.569712 
L 22.594071 320.72559 
L 30.642148 320.66289 
L 38.690225 321.058249 
L 46.738302 321.536007 
L 54.786379 321.485728 
L 62.834456 321.136028 
L 70.882533 321.111385 
L 78.93061 321.179658 
L 86.978687 321.213553 
L 95.026764 321.573599 
L 103.074841 321.155668 
L 111.122918 321.632044 
L 119.170995 322.012351 
L 127.219071 321.718678 
L 135.267148 322.206377 
L 143.315225 321.928002 
L 151.363302 322.201236 
L 159.411379 322.047867 
L 167.459456 322.193253 
L 175.507533 322.464623 
L 183.55561 322.467692 
L 191.603687 322.56638 
L 199.651764 322.60258 
L 207.699841 322.647781 
L 215.747918 322.053298 
L 223.795995 322.869353 
L 231.844071 323.213663 
L 239.892148 322.915499 
L 247.940225 323.224025 
L 255.988302 323.306024 
L 264.036379 323.153772 
L 272.084456 323.504261 
L 280.132533 323.744222 
L 288.18061 323.640024 
L 296.228687 323.746673 
L 304.276764 323.817196 
L 312.324841 323.914567 
L 320.372918 324.1813 
L 328.420995 323.699125 
L 336.469071 324.343574 
L 344.517148 324.379072 
L 352.565225 324.42484 
L 360.613302 324.057233 
L 368.661379 324.568804 
L 376.709456 325.204233 
L 384.757533 324.65509 
L 392.80561 324.643034 
L 400.853687 325.835034 
L 408.901764 324.35052 
L 416.949841 325.675711 
L 424.997918 324.657395 
L 433.045995 326.370898 
L 441.094071 325.556524 
L 449.142148 326.381307 
L 457.190225 326.636165 
L 465.238302 326.881311 
L 473.286379 327.001117 
L 481.334456 326.582291 
L 489.382533 326.693577 
L 497.43061 327.165033 
L 505.478687 327.711393 
L 513.526764 327.759431 
L 521.574841 327.720622 
L 529.622918 328.270977 
L 537.670995 328.283094 
L 545.719071 327.910699 
L 553.767148 327.867909 
L 561.815225 328.86803 
L 569.863302 328.960417 
L 577.911379 329.170223 
L 585.959456 328.684239 
L 594.007533 327.536712 
L 602.05561 328.78726 
L 610.103687 328.476845 
L 618.151764 328.804792 
L 626.199841 329.2447 
L 634.247918 328.6829 
L 642.295995 329.452995 
L 650.344071 328.84837 
L 658.392148 328.842116 
L 666.440225 328.9247 
L 674.488302 329.390735 
L 682.536379 329.357893 
L 690.584456 329.278968 
L 698.632533 328.820039 
L 706.68061 329.099398 
L 714.728687 329.312813 
L 722.776764 329.117536 
L 730.824841 329.500282 
L 738.872918 329.22523 
L 746.920995 329.481415 
L 754.969071 329.884444 
L 763.017148 329.840945 
L 771.065225 329.476902 
L 779.113302 329.506181 
L 787.161379 329.454431 
L 795.209456 329.649361 
L 803.257533 329.663202 
L 811.30561 329.056012 
L 819.353687 329.57029 
L 827.401764 326.655799 
L 835.449841 329.61329 
L 843.497918 329.831767 
L 851.545995 329.420898 
L 859.594071 328.995828 
L 867.642148 329.87415 
L 875.690225 329.508584 
L 883.738302 328.854836 
L 891.786379 329.298898 
L 899.834456 329.327859 
L 907.882533 329.163224 
L 915.93061 329.58634 
L 923.978687 329.303935 
L 932.026764 329.488844 
L 940.074841 329.627785 
L 940.074841 324.740603 
L 940.074841 324.740603 
L 932.026764 325.010229 
L 923.978687 324.901123 
L 915.93061 325.047516 
L 907.882533 324.888491 
L 899.834456 324.996429 
L 891.786379 324.943642 
L 883.738302 325.022297 
L 875.690225 325.263671 
L 867.642148 325.320752 
L 859.594071 325.19742 
L 851.545995 325.257634 
L 843.497918 325.521257 
L 835.449841 325.394291 
L 827.401764 324.952062 
L 819.353687 325.501755 
L 811.30561 325.441318 
L 803.257533 325.594857 
L 795.209456 325.632127 
L 787.161379 325.611292 
L 779.113302 325.714714 
L 771.065225 325.736806 
L 763.017148 325.870283 
L 754.969071 325.923004 
L 746.920995 325.873814 
L 738.872918 325.831524 
L 730.824841 325.901988 
L 722.776764 325.793511 
L 714.728687 325.873147 
L 706.68061 325.867265 
L 698.632533 325.811669 
L 690.584456 325.998462 
L 682.536379 326.046696 
L 674.488302 326.129796 
L 666.440225 325.936894 
L 658.392148 325.968356 
L 650.344071 326.013451 
L 642.295995 326.210939 
L 634.247918 325.980503 
L 626.199841 326.18676 
L 618.151764 326.049165 
L 610.103687 325.96505 
L 602.05561 326.080919 
L 594.007533 325.737733 
L 585.959456 326.058376 
L 577.911379 326.275397 
L 569.863302 326.218253 
L 561.815225 326.183635 
L 553.767148 325.920702 
L 545.719071 325.897848 
L 537.670995 326.03438 
L 529.622918 326.020775 
L 521.574841 325.843726 
L 513.526764 325.847468 
L 505.478687 325.871035 
L 497.43061 325.574395 
L 489.382533 325.478042 
L 481.334456 325.452164 
L 473.286379 325.605328 
L 465.238302 325.555482 
L 457.190225 325.421848 
L 449.142148 325.319458 
L 441.094071 325.026763 
L 433.045995 325.303245 
L 424.997918 324.240003 
L 416.949841 325.085126 
L 408.901764 323.657597 
L 400.853687 325.100649 
L 392.80561 324.574302 
L 384.757533 324.572394 
L 376.709456 324.884233 
L 368.661379 324.436666 
L 360.613302 323.120442 
L 352.565225 324.076109 
L 344.517148 324.052474 
L 336.469071 323.991979 
L 328.420995 322.439141 
L 320.372918 323.197003 
L 312.324841 322.998296 
L 304.276764 322.876151 
L 296.228687 322.686481 
L 288.18061 322.342413 
L 280.132533 322.64204 
L 272.084456 322.047987 
L 264.036379 321.307563 
L 255.988302 321.893553 
L 247.940225 321.402993 
L 239.892148 320.962636 
L 231.844071 321.632049 
L 223.795995 320.865834 
L 215.747918 318.920551 
L 207.699841 320.29909 
L 199.651764 320.222477 
L 191.603687 320.206536 
L 183.55561 320.009698 
L 175.507533 319.992941 
L 167.459456 319.445773 
L 159.411379 319.206609 
L 151.363302 319.589971 
L 143.315225 318.806007 
L 135.267148 319.564269 
L 127.219071 318.484277 
L 119.170995 319.074881 
L 111.122918 318.349985 
L 103.074841 317.448318 
L 95.026764 318.226547 
L 86.978687 317.432563 
L 78.93061 317.459945 
L 70.882533 317.398637 
L 62.834456 317.448336 
L 54.786379 318.146993 
L 46.738302 318.292373 
L 38.690225 317.39145 
L 30.642148 316.462636 
L 22.594071 316.676545 
L 14.545995 316.462778 
L 6.497918 316.992135 
L -1.550159 316.893673 
L -9.598236 316.632992 
L -17.646313 316.887974 
L -25.69439 316.826216 
L -33.742467 316.326744 
L -41.790544 316.34125 
L -49.838621 316.125069 
L -57.886698 315.867116 
L -65.934775 316.860347 
L -73.982852 316.236805 
L -82.030929 315.394378 
L -90.079005 315.73702 
L -98.127082 316.038355 
L -106.175159 315.769045 
L -114.223236 315.545586 
L -122.271313 315.64053 
L -130.31939 315.963163 
L -138.367467 315.524691 
L -146.415544 315.336588 
L -154.463621 315.457932 
L -162.511698 315.169815 
L -170.559775 315.203754 
L -178.607852 314.665939 
L -186.655929 314.808085 
L -194.704005 314.161896 
L -202.752082 314.646403 
L -210.800159 314.362477 
L -218.848236 314.464758 
L -226.896313 314.259849 
L -234.94439 314.542433 
L -242.992467 313.94956 
L -251.040544 314.257774 
L -259.088621 313.878632 
L -267.136698 313.916316 
L -275.184775 313.614908 
L -283.232852 313.725121 
L -291.280929 314.080583 
L -299.329005 313.682752 
L -307.377082 313.748664 
L -315.425159 312.987974 
L -323.473236 313.308789 
L -331.521313 313.462053 
L -339.56939 312.87186 
L -347.617467 313.49204 
L -355.665544 313.528914 
L -363.713621 312.789787 
L -371.761698 312.788908 
L -379.809775 312.726065 
L -387.857852 312.450214 
L -395.905929 312.617908 
L -403.954005 312.538782 
L -412.002082 313.368444 
L -420.050159 312.763264 
L -428.098236 312.31239 
L -436.146313 312.30712 
L -444.19439 312.162497 
L -452.242467 311.88158 
L -460.290544 311.957661 
L -468.338621 311.761773 
L -476.386698 311.93998 
L -484.434775 311.659456 
L -492.482852 312.123562 
L -500.530929 312.164014 
L -508.579005 312.024608 
L -516.627082 312.106656 
L -524.675159 311.892298 
L -532.723236 312.009536 
L -540.771313 312.065967 
L -548.81939 312.266681 
L -556.867467 312.053385 
L -564.915544 312.280724 
L -572.963621 312.198628 
L -581.011698 312.649378 
L -589.059775 312.293744 
L -597.107852 312.09096 
L -605.155929 312.272197 
L -613.204005 312.339486 
L -621.252082 312.319189 
L -629.300159 312.572266 
L -637.348236 312.305036 
L -645.396313 312.470671 
L -653.44439 312.35757 
L -661.492467 312.380659 
L -669.540544 312.279219 
L -677.588621 312.140792 
L -685.636698 312.346987 
L -693.684775 312.628637 
L -701.732852 312.304389 
L -709.780929 312.461294 
L -717.829005 312.366915 
L -725.877082 312.449994 
L -733.925159 312.66486 
L -741.973236 312.568513 
L -750.021313 312.738853 
L -758.06939 312.770195 
L -766.117467 312.540668 
L -774.165544 312.648225 
L -782.213621 312.770166 
L -790.261698 312.803153 
L -798.309775 312.779882 
L -806.357852 312.861032 
L -814.405929 312.82719 
L -822.454005 312.9561 
L -830.502082 312.978562 
L -838.550159 312.992948 
L -846.598236 313.007233 
L -854.646313 312.725636 
L -862.69439 312.996846 
L -870.742467 313.093534 
L -878.790544 313.041029 
L -886.838621 313.030434 
L -894.886698 313.012078 
L -902.934775 313.076595 
L -910.982852 313.02787 
L -919.030929 313.134264 
L -927.079005 313.157217 
L -935.127082 313.104556 
L -943.175159 313.128608 
L -951.223236 313.168377 
L -959.271313 313.210086 
L -967.31939 313.407316 
L -975.367467 313.434299 
L -983.415544 313.515468 
L -991.463621 313.433658 
L -999.511698 313.509805 
L -1007.559775 313.491114 
L -1015.607852 313.493651 
L -1023.655929 313.349984 
L -1031.704005 313.632977 
L -1039.752082 313.628316 
L -1047.800159 313.61624 
L -1055.848236 313.771431 
L -1063.896313 313.723942 
L -1071.94439 313.767328 
L -1079.992467 313.635683 
L -1088.040544 313.859352 
L -1096.088621 313.745265 
L -1104.136698 313.958543 
L -1112.184775 314.098751 
L -1120.232852 314.111522 
L -1128.280929 314.296838 
L -1136.329005 314.433243 
L -1144.377082 314.387732 
L -1152.425159 314.456231 
L -1160.473236 314.44793 
L -1168.521313 314.550799 
L -1176.56939 314.471711 
L -1184.617467 314.63128 
L -1192.665544 314.741578 
L -1200.713621 314.792511 
L -1208.761698 314.80876 
L -1216.809775 314.815284 
L -1224.857852 314.994897 
L -1232.905929 315.01233 
L -1240.954005 315.112448 
L -1249.002082 315.276067 
L -1257.050159 315.308447 
L -1265.098236 315.105602 
L -1273.146313 315.131481 
L -1281.19439 315.31867 
L -1289.242467 315.318104 
L -1297.290544 315.440688 
L -1305.338621 315.523406 
L -1313.386698 315.44368 
L -1321.434775 315.487139 
L -1329.482852 315.548124 
L -1337.530929 315.674891 
L -1345.579005 315.492611 
L -1353.627082 315.545171 
L -1361.675159 315.52814 
L -1369.723236 315.720031 
L -1377.771313 315.67795 
L -1385.81939 315.546322 
L -1393.867467 315.642203 
L -1401.915544 315.741943 
L -1409.963621 315.427248 
L -1418.011698 315.69037 
L -1426.059775 315.324169 
L -1434.107852 315.297168 
L -1442.155929 315.215424 
L -1450.204005 315.289085 
L -1458.252082 315.303946 
L -1466.300159 315.251953 
L -1474.348236 315.074695 
L -1482.396313 315.19764 
L -1490.44439 314.79448 
L -1498.492467 314.32709 
L -1506.540544 314.44041 
L -1514.588621 314.668173 
L -1522.636698 314.04879 
L -1530.684775 314.072778 
L -1538.732852 313.922684 
L -1546.780929 313.879426 
L -1554.829005 313.116187 
L -1562.877082 313.048674 
L -1570.925159 312.765972 
L -1578.973236 312.166259 
L -1587.021313 311.737445 
L -1595.06939 312.197179 
L -1603.117467 311.976607 
L -1611.165544 311.598943 
L -1619.213621 311.429798 
L -1627.261698 311.15237 
L -1635.309775 310.793227 
L -1643.357852 310.965962 
L -1651.405929 310.273891 
L -1659.454005 309.922601 
L -1667.502082 309.744243 
L -1675.550159 309.605878 
L -1683.598236 309.688969 
L -1691.646313 309.505663 
L -1699.69439 309.653679 
L -1707.742467 309.878626 
L -1715.790544 309.533594 
L -1723.838621 309.500534 
L -1731.886698 309.843596 
L -1739.934775 309.92495 
L -1747.982852 309.803057 
L -1756.030929 310.49506 
L -1764.079005 310.014251 
L -1772.127082 310.183445 
L -1780.175159 310.719151 
L -1788.223236 310.572297 
L -1796.271313 310.770945 
L -1804.31939 310.949068 
L -1812.367467 311.108806 
L -1820.415544 311.269843 
L -1828.463621 311.440242 
L -1836.511698 311.604832 
L -1844.559775 311.742369 
L -1852.607852 311.938333 
L -1860.655929 311.977776 
L -1868.704005 312.331086 
L -1876.752082 312.330755 
L -1884.800159 312.505524 
L -1892.848236 312.70139 
L -1900.896313 312.847524 
L -1908.94439 313.032689 
L -1916.992467 313.175439 
L -1925.040544 313.388476 
L -1933.088621 313.512866 
L -1941.136698 313.667408 
L -1949.184775 313.850758 
L -1957.232852 314.038106 
L -1965.280929 314.148576 
L -1973.329005 314.329435 
L -1981.377082 314.44986 
L -1989.425159 314.636355 
L -1997.473236 314.778985 
L -2005.521313 314.920963 
L -2013.56939 315.079243 
L -2021.617467 315.218758 
L -2029.665544 315.336191 
L -2037.713621 315.491001 
L -2045.761698 315.565551 
L -2053.809775 315.758944 
L -2061.857852 315.887011 
L -2069.905929 315.999029 
L -2077.954005 316.137817 
L -2086.002082 316.219714 
L -2094.050159 316.342028 
L -2102.098236 316.467796 
L -2110.146313 316.607278 
L -2118.19439 316.712262 
L -2126.242467 316.815683 
L -2134.290544 316.929314 
L -2142.338621 317.038571 
L -2150.386698 317.156896 
L -2158.434775 317.250024 
L -2166.482852 317.352212 
L -2174.530929 317.434488 
L -2182.579005 317.551798 
L -2190.627082 317.634532 
L -2198.675159 317.72952 
L -2206.723236 317.849729 
L -2214.771313 317.931017 
L -2222.81939 317.950374 
L -2230.867467 318.049036 
L -2238.915544 318.096721 
L -2246.963621 318.192065 
L -2255.011698 318.304119 
L -2263.059775 318.359307 
L -2271.107852 318.411063 
L -2279.155929 318.417769 
L -2287.204005 318.473141 
L -2295.252082 318.504697 
L -2303.300159 318.539353 
L -2311.348236 318.620095 
L -2319.396313 318.665858 
L -2327.44439 318.733371 
L -2335.492467 318.690538 
L -2343.540544 318.727192 
L -2351.588621 318.662477 
L -2359.636698 318.75889 
L -2367.684775 318.772489 
L -2375.732852 318.843233 
L -2383.780929 318.690455 
L -2391.829005 318.875196 
L -2399.877082 318.860801 
L -2407.925159 318.756035 
L -2415.973236 318.730818 
L -2424.021313 318.827848 
L -2432.06939 318.994282 
L -2440.117467 318.932358 
L -2448.165544 318.931552 
L -2456.213621 318.768854 
L -2464.261698 318.770465 
L -2472.309775 318.821835 
L -2480.357852 318.926927 
L -2488.405929 318.897768 
L -2496.454005 318.880953 
L -2504.502082 318.901318 
L -2512.550159 318.967799 
L -2520.598236 318.957818 
L -2528.646313 319.001655 
L -2536.69439 319.071621 
L -2544.742467 319.030064 
L -2552.790544 319.129526 
L -2560.838621 319.14862 
L -2568.886698 319.164538 
L -2576.934775 319.22895 
L -2584.982852 319.248347 
L -2593.030929 319.319199 
L -2601.079005 319.396097 
L -2609.127082 319.4014 
L -2617.175159 319.376195 
L -2625.223236 319.359277 
L -2633.271313 319.517119 
L -2641.31939 319.494515 
L -2649.367467 319.601772 
L -2657.415544 319.60753 
L -2665.463621 319.571736 
L -2673.511698 319.677722 
L -2681.559775 319.58645 
L -2689.607852 319.594984 
L -2697.655929 319.728327 
L -2705.704005 319.638506 
L -2713.752082 319.764482 
L -2721.800159 319.807117 
L -2729.848236 319.70701 
L -2737.896313 319.381325 
L -2745.94439 319.594602 
L -2753.992467 319.496908 
L -2762.040544 319.010698 
L -2770.088621 319.430204 
L -2778.136698 319.518551 
L -2786.184775 319.068974 
L -2794.232852 318.947662 
L -2802.280929 319.192571 
L -2810.329005 318.704748 
L -2818.377082 317.845504 
L -2826.425159 318.797774 
L -2834.473236 319.173933 
L -2842.521313 319.361791 
L -2850.56939 318.182759 
L -2858.617467 318.235591 
L -2866.665544 317.6444 
L -2874.713621 317.183841 
L -2882.761698 318.121804 
L -2890.809775 317.726804 
L -2898.857852 316.895686 
L -2906.905929 316.311368 
L -2914.954005 316.351665 
L -2923.002082 316.458097 
L -2931.050159 316.337199 
L -2939.098236 316.267796 
L -2947.146313 316.608684 
L -2955.19439 316.57296 
L -2963.242467 316.358449 
L -2971.290544 316.496869 
L -2979.338621 316.410258 
L -2987.386698 316.380211 
L -2995.434775 316.394337 
L -3003.482852 316.53098 
L -3011.530929 316.614505 
L -3019.579005 316.663795 
L -3027.627082 316.782614 
L -3035.675159 316.840903 
L -3043.723236 316.937995 
L -3051.771313 317.088261 
L -3059.81939 317.208818 
L -3067.867467 317.291496 
L -3075.915544 317.38364 
L -3083.963621 317.502169 
L -3092.011698 317.57806 
L -3100.059775 317.691469 
L -3108.107852 317.828196 
L -3116.155929 317.911393 
L -3124.204005 317.969546 
L -3132.252082 318.055176 
L -3140.300159 318.143615 
L -3148.348236 318.224329 
L -3156.396313 318.300814 
L -3164.44439 318.374214 
L -3172.492467 318.473999 
L -3180.540544 318.526909 
L -3188.588621 318.600435 
L -3196.636698 318.677543 
L -3204.684775 318.743823 
L -3212.732852 318.809195 
L -3220.780929 318.864511 
L -3228.829005 318.923578 
L -3236.877082 319.000651 
L -3244.925159 319.055029 
L -3252.973236 319.11828 
L -3261.021313 319.169834 
L -3269.06939 319.227219 
L -3277.117467 319.28604 
L -3285.165544 319.345881 
L -3293.213621 319.396354 
L -3301.261698 319.455423 
L -3309.309775 319.506377 
L -3317.357852 319.560902 
L -3325.405929 319.611688 
L -3333.454005 319.664052 
L -3341.502082 319.712914 
L -3349.550159 319.764904 
L -3357.598236 319.820366 
L -3365.646313 319.86357 
L -3373.69439 319.916083 
L -3381.742467 319.961957 
L -3389.790544 320.013716 
L -3397.838621 320.051672 
L -3405.886698 320.099827 
L -3413.934775 320.145708 
L -3421.982852 320.189397 
L -3430.030929 320.233831 
L -3438.079005 320.274958 
L -3446.127082 320.322846 
L -3454.175159 320.365977 
L -3462.223236 320.401604 
L -3470.271313 320.443849 
L -3478.31939 320.486047 
L -3486.367467 320.528047 
L -3494.415544 320.568599 
L -3502.463621 320.606464 
L -3510.511698 320.648106 
L -3518.559775 320.688947 
L -3526.607852 320.730007 
L -3534.655929 320.770938 
L -3542.704005 320.81298 
L -3550.752082 320.856681 
L -3558.800159 320.894438 
L -3566.848236 320.937593 
L -3574.896313 320.979949 
L -3582.94439 321.020674 
L -3590.992467 321.062687 
L -3599.040544 321.105555 
L -3607.088621 321.147183 
L -3615.136698 321.190862 
L -3623.184775 321.230776 
L -3631.232852 321.271523 
L -3639.280929 321.314564 
L -3647.329005 321.356191 
L -3655.377082 321.395752 
L -3663.425159 321.4376 
L -3671.473236 321.475905 
L -3679.521313 321.516837 
L -3687.56939 321.560405 
L -3695.617467 321.59794 
L -3703.665544 321.639866 
L -3711.713621 321.679627 
L -3719.761698 321.721303 
L -3727.809775 321.759142 
L -3735.857852 321.803245 
L -3743.905929 321.839962 
L -3751.954005 321.881032 
L -3760.002082 321.921242 
L -3768.050159 321.962455 
L -3776.098236 322.001673 
L -3784.146313 322.041607 
L -3792.19439 322.081696 
L -3800.242467 322.123112 
L -3808.290544 322.161637 
L -3816.338621 322.198425 
L -3824.386698 322.234735 
L -3832.434775 322.271149 
L -3840.482852 322.306334 
L -3848.530929 322.342076 
L -3856.579005 322.377389 
L -3864.627082 322.411131 
L -3872.675159 322.445234 
L -3880.723236 322.479135 
L -3888.771313 322.510048 
L -3896.81939 322.541446 
L -3904.867467 322.574132 
L -3912.915544 322.605116 
L -3920.963621 322.632904 
L -3929.011698 322.663398 
L -3937.059775 322.691311 
L -3945.107852 322.717069 
L -3953.155929 322.742807 
L -3961.204005 322.766901 
L -3969.252082 322.79278 
L -3977.300159 322.81427 
L -3985.348236 322.836901 
L -3993.396313 322.858216 
L -4001.44439 322.877992 
L -4009.492467 322.896052 
L -4017.540544 322.9125 
L -4025.588621 322.928821 
L -4033.636698 322.944982 
L -4041.684775 322.958435 
L -4049.732852 322.973389 
L -4057.780929 322.986113 
L -4065.829005 322.997128 
L -4073.877082 323.00995 
L -4081.925159 323.021212 
L -4089.973236 323.030594 
L -4098.021313 323.040624 
L -4106.06939 323.050377 
L -4114.117467 323.058987 
L -4122.165544 323.067619 
L -4130.213621 323.074808 
L -4138.261698 323.083422 
L -4146.309775 323.090331 
L -4154.357852 323.097573 
L -4162.405929 323.105152 
L -4170.454005 323.111384 
L -4178.502082 323.117966 
L -4186.550159 323.126484 
L -4194.598236 323.132575 
L -4202.646313 323.139974 
L -4210.69439 323.145878 
L -4218.742467 323.15365 
L -4226.790544 323.159845 
L -4234.838621 323.166361 
L -4242.886698 323.172079 
L -4250.934775 323.177257 
L -4258.982852 323.18316 
L -4267.030929 323.1896 
L -4275.079005 323.195873 
L -4283.127082 323.201257 
L -4291.175159 323.205613 
L -4299.223236 323.211808 
L -4307.271313 323.216913 
L -4315.31939 323.223029 
z
" clip-path="url(#pb561bab09b)" style="fill: #008000; fill-opacity: 0.3; stroke: #008000; stroke-opacity: 0.3"/>
   </g>
   <g id="matplotlib.axis_1">
    <g id="xtick_1">
     <g id="line2d_1">
      <defs>
       <path id="m3a8852887c" d="M 0 0 
L 0 3.5 
" style="stroke: #000000; stroke-width: 0.8"/>
      </defs>
      <g>
       <use xlink:href="#m3a8852887c" x="103.074841" y="395.28" style="stroke: #000000; stroke-width: 0.8"/>
      </g>
     </g>
     <g id="text_1">
      <!-- 2023-01-01 -->
      <g transform="translate(17.945813 495.213718) rotate(-45) scale(0.2 -0.2)">
       <defs>
        <path id="DejaVuSans-32" d="M 1228 531 
L 3431 531 
L 3431 0 
L 469 0 
L 469 531 
Q 828 903 1448 1529 
Q 2069 2156 2228 2338 
Q 2531 2678 2651 2914 
Q 2772 3150 2772 3378 
Q 2772 3750 2511 3984 
Q 2250 4219 1831 4219 
Q 1534 4219 1204 4116 
Q 875 4013 500 3803 
L 500 4441 
Q 881 4594 1212 4672 
Q 1544 4750 1819 4750 
Q 2544 4750 2975 4387 
Q 3406 4025 3406 3419 
Q 3406 3131 3298 2873 
Q 3191 2616 2906 2266 
Q 2828 2175 2409 1742 
Q 1991 1309 1228 531 
z
" transform="scale(0.015625)"/>
        <path id="DejaVuSans-30" d="M 2034 4250 
Q 1547 4250 1301 3770 
Q 1056 3291 1056 2328 
Q 1056 1369 1301 889 
Q 1547 409 2034 409 
Q 2525 409 2770 889 
Q 3016 1369 3016 2328 
Q 3016 3291 2770 3770 
Q 2525 4250 2034 4250 
z
M 2034 4750 
Q 2819 4750 3233 4129 
Q 3647 3509 3647 2328 
Q 3647 1150 3233 529 
Q 2819 -91 2034 -91 
Q 1250 -91 836 529 
Q 422 1150 422 2328 
Q 422 3509 836 4129 
Q 1250 4750 2034 4750 
z
" transform="scale(0.015625)"/>
        <path id="DejaVuSans-33" d="M 2597 2516 
Q 3050 2419 3304 2112 
Q 3559 1806 3559 1356 
Q 3559 666 3084 287 
Q 2609 -91 1734 -91 
Q 1441 -91 1130 -33 
Q 819 25 488 141 
L 488 750 
Q 750 597 1062 519 
Q 1375 441 1716 441 
Q 2309 441 2620 675 
Q 2931 909 2931 1356 
Q 2931 1769 2642 2001 
Q 2353 2234 1838 2234 
L 1294 2234 
L 1294 2753 
L 1863 2753 
Q 2328 2753 2575 2939 
Q 2822 3125 2822 3475 
Q 2822 3834 2567 4026 
Q 2313 4219 1838 4219 
Q 1578 4219 1281 4162 
Q 984 4106 628 3988 
L 628 4550 
Q 988 4650 1302 4700 
Q 1616 4750 1894 4750 
Q 2613 4750 3031 4423 
Q 3450 4097 3450 3541 
Q 3450 3153 3228 2886 
Q 3006 2619 2597 2516 
z
" transform="scale(0.015625)"/>
        <path id="DejaVuSans-2d" d="M 313 2009 
L 1997 2009 
L 1997 1497 
L 313 1497 
L 313 2009 
z
" transform="scale(0.015625)"/>
        <path id="DejaVuSans-31" d="M 794 531 
L 1825 531 
L 1825 4091 
L 703 3866 
L 703 4441 
L 1819 4666 
L 2450 4666 
L 2450 531 
L 3481 531 
L 3481 0 
L 794 0 
L 794 531 
z
" transform="scale(0.015625)"/>
       </defs>
       <use xlink:href="#DejaVuSans-32"/>
       <use xlink:href="#DejaVuSans-30" x="63.623047"/>
       <use xlink:href="#DejaVuSans-32" x="127.246094"/>
       <use xlink:href="#DejaVuSans-33" x="190.869141"/>
       <use xlink:href="#DejaVuSans-2d" x="254.492188"/>
       <use xlink:href="#DejaVuSans-30" x="290.576172"/>
       <use xlink:href="#DejaVuSans-31" x="354.199219"/>
       <use xlink:href="#DejaVuSans-2d" x="417.822266"/>
       <use xlink:href="#DejaVuSans-30" x="453.90625"/>
       <use xlink:href="#DejaVuSans-31" x="517.529297"/>
      </g>
     </g>
    </g>
    <g id="xtick_2">
     <g id="line2d_2">
      <g>
       <use xlink:href="#m3a8852887c" x="215.747918" y="395.28" style="stroke: #000000; stroke-width: 0.8"/>
      </g>
     </g>
     <g id="text_2">
      <!-- 2023-01-15 -->
      <g transform="translate(130.61889 495.213718) rotate(-45) scale(0.2 -0.2)">
       <defs>
        <path id="DejaVuSans-35" d="M 691 4666 
L 3169 4666 
L 3169 4134 
L 1269 4134 
L 1269 2991 
Q 1406 3038 1543 3061 
Q 1681 3084 1819 3084 
Q 2600 3084 3056 2656 
Q 3513 2228 3513 1497 
Q 3513 744 3044 326 
Q 2575 -91 1722 -91 
Q 1428 -91 1123 -41 
Q 819 9 494 109 
L 494 744 
Q 775 591 1075 516 
Q 1375 441 1709 441 
Q 2250 441 2565 725 
Q 2881 1009 2881 1497 
Q 2881 1984 2565 2268 
Q 2250 2553 1709 2553 
Q 1456 2553 1204 2497 
Q 953 2441 691 2322 
L 691 4666 
z
" transform="scale(0.015625)"/>
       </defs>
       <use xlink:href="#DejaVuSans-32"/>
       <use xlink:href="#DejaVuSans-30" x="63.623047"/>
       <use xlink:href="#DejaVuSans-32" x="127.246094"/>
       <use xlink:href="#DejaVuSans-33" x="190.869141"/>
       <use xlink:href="#DejaVuSans-2d" x="254.492188"/>
       <use xlink:href="#DejaVuSans-30" x="290.576172"/>
       <use xlink:href="#DejaVuSans-31" x="354.199219"/>
       <use xlink:href="#DejaVuSans-2d" x="417.822266"/>
       <use xlink:href="#DejaVuSans-31" x="453.90625"/>
       <use xlink:href="#DejaVuSans-35" x="517.529297"/>
      </g>
     </g>
    </g>
    <g id="xtick_3">
     <g id="line2d_3">
      <g>
       <use xlink:href="#m3a8852887c" x="328.420995" y="395.28" style="stroke: #000000; stroke-width: 0.8"/>
      </g>
     </g>
     <g id="text_3">
      <!-- 2023-01-29 -->
      <g transform="translate(243.291967 495.213718) rotate(-45) scale(0.2 -0.2)">
       <defs>
        <path id="DejaVuSans-39" d="M 703 97 
L 703 672 
Q 941 559 1184 500 
Q 1428 441 1663 441 
Q 2288 441 2617 861 
Q 2947 1281 2994 2138 
Q 2813 1869 2534 1725 
Q 2256 1581 1919 1581 
Q 1219 1581 811 2004 
Q 403 2428 403 3163 
Q 403 3881 828 4315 
Q 1253 4750 1959 4750 
Q 2769 4750 3195 4129 
Q 3622 3509 3622 2328 
Q 3622 1225 3098 567 
Q 2575 -91 1691 -91 
Q 1453 -91 1209 -44 
Q 966 3 703 97 
z
M 1959 2075 
Q 2384 2075 2632 2365 
Q 2881 2656 2881 3163 
Q 2881 3666 2632 3958 
Q 2384 4250 1959 4250 
Q 1534 4250 1286 3958 
Q 1038 3666 1038 3163 
Q 1038 2656 1286 2365 
Q 1534 2075 1959 2075 
z
" transform="scale(0.015625)"/>
       </defs>
       <use xlink:href="#DejaVuSans-32"/>
       <use xlink:href="#DejaVuSans-30" x="63.623047"/>
       <use xlink:href="#DejaVuSans-32" x="127.246094"/>
       <use xlink:href="#DejaVuSans-33" x="190.869141"/>
       <use xlink:href="#DejaVuSans-2d" x="254.492188"/>
       <use xlink:href="#DejaVuSans-30" x="290.576172"/>
       <use xlink:href="#DejaVuSans-31" x="354.199219"/>
       <use xlink:href="#DejaVuSans-2d" x="417.822266"/>
       <use xlink:href="#DejaVuSans-32" x="453.90625"/>
       <use xlink:href="#DejaVuSans-39" x="517.529297"/>
      </g>
     </g>
    </g>
    <g id="xtick_4">
     <g id="line2d_4">
      <g>
       <use xlink:href="#m3a8852887c" x="441.094071" y="395.28" style="stroke: #000000; stroke-width: 0.8"/>
      </g>
     </g>
     <g id="text_4">
      <!-- 2023-02-12 -->
      <g transform="translate(355.965044 495.213718) rotate(-45) scale(0.2 -0.2)">
       <use xlink:href="#DejaVuSans-32"/>
       <use xlink:href="#DejaVuSans-30" x="63.623047"/>
       <use xlink:href="#DejaVuSans-32" x="127.246094"/>
       <use xlink:href="#DejaVuSans-33" x="190.869141"/>
       <use xlink:href="#DejaVuSans-2d" x="254.492188"/>
       <use xlink:href="#DejaVuSans-30" x="290.576172"/>
       <use xlink:href="#DejaVuSans-32" x="354.199219"/>
       <use xlink:href="#DejaVuSans-2d" x="417.822266"/>
       <use xlink:href="#DejaVuSans-31" x="453.90625"/>
       <use xlink:href="#DejaVuSans-32" x="517.529297"/>
      </g>
     </g>
    </g>
    <g id="xtick_5">
     <g id="line2d_5">
      <g>
       <use xlink:href="#m3a8852887c" x="553.767148" y="395.28" style="stroke: #000000; stroke-width: 0.8"/>
      </g>
     </g>
     <g id="text_5">
      <!-- 2023-02-26 -->
      <g transform="translate(468.638121 495.213718) rotate(-45) scale(0.2 -0.2)">
       <defs>
        <path id="DejaVuSans-36" d="M 2113 2584 
Q 1688 2584 1439 2293 
Q 1191 2003 1191 1497 
Q 1191 994 1439 701 
Q 1688 409 2113 409 
Q 2538 409 2786 701 
Q 3034 994 3034 1497 
Q 3034 2003 2786 2293 
Q 2538 2584 2113 2584 
z
M 3366 4563 
L 3366 3988 
Q 3128 4100 2886 4159 
Q 2644 4219 2406 4219 
Q 1781 4219 1451 3797 
Q 1122 3375 1075 2522 
Q 1259 2794 1537 2939 
Q 1816 3084 2150 3084 
Q 2853 3084 3261 2657 
Q 3669 2231 3669 1497 
Q 3669 778 3244 343 
Q 2819 -91 2113 -91 
Q 1303 -91 875 529 
Q 447 1150 447 2328 
Q 447 3434 972 4092 
Q 1497 4750 2381 4750 
Q 2619 4750 2861 4703 
Q 3103 4656 3366 4563 
z
" transform="scale(0.015625)"/>
       </defs>
       <use xlink:href="#DejaVuSans-32"/>
       <use xlink:href="#DejaVuSans-30" x="63.623047"/>
       <use xlink:href="#DejaVuSans-32" x="127.246094"/>
       <use xlink:href="#DejaVuSans-33" x="190.869141"/>
       <use xlink:href="#DejaVuSans-2d" x="254.492188"/>
       <use xlink:href="#DejaVuSans-30" x="290.576172"/>
       <use xlink:href="#DejaVuSans-32" x="354.199219"/>
       <use xlink:href="#DejaVuSans-2d" x="417.822266"/>
       <use xlink:href="#DejaVuSans-32" x="453.90625"/>
       <use xlink:href="#DejaVuSans-36" x="517.529297"/>
      </g>
     </g>
    </g>
    <g id="xtick_6">
     <g id="line2d_6">
      <g>
       <use xlink:href="#m3a8852887c" x="666.440225" y="395.28" style="stroke: #000000; stroke-width: 0.8"/>
      </g>
     </g>
     <g id="text_6">
      <!-- 2023-03-12 -->
      <g transform="translate(581.311198 495.213718) rotate(-45) scale(0.2 -0.2)">
       <use xlink:href="#DejaVuSans-32"/>
       <use xlink:href="#DejaVuSans-30" x="63.623047"/>
       <use xlink:href="#DejaVuSans-32" x="127.246094"/>
       <use xlink:href="#DejaVuSans-33" x="190.869141"/>
       <use xlink:href="#DejaVuSans-2d" x="254.492188"/>
       <use xlink:href="#DejaVuSans-30" x="290.576172"/>
       <use xlink:href="#DejaVuSans-33" x="354.199219"/>
       <use xlink:href="#DejaVuSans-2d" x="417.822266"/>
       <use xlink:href="#DejaVuSans-31" x="453.90625"/>
       <use xlink:href="#DejaVuSans-32" x="517.529297"/>
      </g>
     </g>
    </g>
    <g id="xtick_7">
     <g id="line2d_7">
      <g>
       <use xlink:href="#m3a8852887c" x="779.113302" y="395.28" style="stroke: #000000; stroke-width: 0.8"/>
      </g>
     </g>
     <g id="text_7">
      <!-- 2023-03-26 -->
      <g transform="translate(693.984275 495.213718) rotate(-45) scale(0.2 -0.2)">
       <use xlink:href="#DejaVuSans-32"/>
       <use xlink:href="#DejaVuSans-30" x="63.623047"/>
       <use xlink:href="#DejaVuSans-32" x="127.246094"/>
       <use xlink:href="#DejaVuSans-33" x="190.869141"/>
       <use xlink:href="#DejaVuSans-2d" x="254.492188"/>
       <use xlink:href="#DejaVuSans-30" x="290.576172"/>
       <use xlink:href="#DejaVuSans-33" x="354.199219"/>
       <use xlink:href="#DejaVuSans-2d" x="417.822266"/>
       <use xlink:href="#DejaVuSans-32" x="453.90625"/>
       <use xlink:href="#DejaVuSans-36" x="517.529297"/>
      </g>
     </g>
    </g>
    <g id="xtick_8">
     <g id="line2d_8">
      <g>
       <use xlink:href="#m3a8852887c" x="891.786379" y="395.28" style="stroke: #000000; stroke-width: 0.8"/>
      </g>
     </g>
     <g id="text_8">
      <!-- 2023-04-09 -->
      <g transform="translate(806.657352 495.213718) rotate(-45) scale(0.2 -0.2)">
       <defs>
        <path id="DejaVuSans-34" d="M 2419 4116 
L 825 1625 
L 2419 1625 
L 2419 4116 
z
M 2253 4666 
L 3047 4666 
L 3047 1625 
L 3713 1625 
L 3713 1100 
L 3047 1100 
L 3047 0 
L 2419 0 
L 2419 1100 
L 313 1100 
L 313 1709 
L 2253 4666 
z
" transform="scale(0.015625)"/>
       </defs>
       <use xlink:href="#DejaVuSans-32"/>
       <use xlink:href="#DejaVuSans-30" x="63.623047"/>
       <use xlink:href="#DejaVuSans-32" x="127.246094"/>
       <use xlink:href="#DejaVuSans-33" x="190.869141"/>
       <use xlink:href="#DejaVuSans-2d" x="254.492188"/>
       <use xlink:href="#DejaVuSans-30" x="290.576172"/>
       <use xlink:href="#DejaVuSans-34" x="354.199219"/>
       <use xlink:href="#DejaVuSans-2d" x="417.822266"/>
       <use xlink:href="#DejaVuSans-30" x="453.90625"/>
       <use xlink:href="#DejaVuSans-39" x="517.529297"/>
      </g>
     </g>
    </g>
    <g id="xtick_9">
     <g id="line2d_9">
      <g>
       <use xlink:href="#m3a8852887c" x="940.074841" y="395.28" style="stroke: #000000; stroke-width: 0.8"/>
      </g>
     </g>
     <g id="text_9">
      <!-- 2023-04-15 -->
      <g transform="translate(854.945813 495.213718) rotate(-45) scale(0.2 -0.2)">
       <use xlink:href="#DejaVuSans-32"/>
       <use xlink:href="#DejaVuSans-30" x="63.623047"/>
       <use xlink:href="#DejaVuSans-32" x="127.246094"/>
       <use xlink:href="#DejaVuSans-33" x="190.869141"/>
       <use xlink:href="#DejaVuSans-2d" x="254.492188"/>
       <use xlink:href="#DejaVuSans-30" x="290.576172"/>
       <use xlink:href="#DejaVuSans-34" x="354.199219"/>
       <use xlink:href="#DejaVuSans-2d" x="417.822266"/>
       <use xlink:href="#DejaVuSans-31" x="453.90625"/>
       <use xlink:href="#DejaVuSans-35" x="517.529297"/>
      </g>
     </g>
    </g>
   </g>
   <g id="matplotlib.axis_2">
    <g id="ytick_1">
     <g id="line2d_10">
      <defs>
       <path id="m30ff374e8f" d="M 0 0 
L -3.5 0 
" style="stroke: #000000; stroke-width: 0.8"/>
      </defs>
      <g>
       <use xlink:href="#m30ff374e8f" x="103.074841" y="366.749582" style="stroke: #000000; stroke-width: 0.8"/>
      </g>
     </g>
     <g id="text_10">
      <!-- −0.5 -->
      <g transform="translate(47.509216 374.348019) scale(0.2 -0.2)">
       <defs>
        <path id="DejaVuSans-2212" d="M 678 2272 
L 4684 2272 
L 4684 1741 
L 678 1741 
L 678 2272 
z
" transform="scale(0.015625)"/>
        <path id="DejaVuSans-2e" d="M 684 794 
L 1344 794 
L 1344 0 
L 684 0 
L 684 794 
z
" transform="scale(0.015625)"/>
       </defs>
       <use xlink:href="#DejaVuSans-2212"/>
       <use xlink:href="#DejaVuSans-30" x="83.789062"/>
       <use xlink:href="#DejaVuSans-2e" x="147.412109"/>
       <use xlink:href="#DejaVuSans-35" x="179.199219"/>
      </g>
     </g>
    </g>
    <g id="ytick_2">
     <g id="line2d_11">
      <g>
       <use xlink:href="#m30ff374e8f" x="103.074841" y="323.228816" style="stroke: #000000; stroke-width: 0.8"/>
      </g>
     </g>
     <g id="text_11">
      <!-- 0.0 -->
      <g transform="translate(64.268591 330.827254) scale(0.2 -0.2)">
       <use xlink:href="#DejaVuSans-30"/>
       <use xlink:href="#DejaVuSans-2e" x="63.623047"/>
       <use xlink:href="#DejaVuSans-30" x="95.410156"/>
      </g>
     </g>
    </g>
    <g id="ytick_3">
     <g id="line2d_12">
      <g>
       <use xlink:href="#m30ff374e8f" x="103.074841" y="279.708051" style="stroke: #000000; stroke-width: 0.8"/>
      </g>
     </g>
     <g id="text_12">
      <!-- 0.5 -->
      <g transform="translate(64.268591 287.306489) scale(0.2 -0.2)">
       <use xlink:href="#DejaVuSans-30"/>
       <use xlink:href="#DejaVuSans-2e" x="63.623047"/>
       <use xlink:href="#DejaVuSans-35" x="95.410156"/>
      </g>
     </g>
    </g>
    <g id="ytick_4">
     <g id="line2d_13">
      <g>
       <use xlink:href="#m30ff374e8f" x="103.074841" y="236.187286" style="stroke: #000000; stroke-width: 0.8"/>
      </g>
     </g>
     <g id="text_13">
      <!-- 1.0 -->
      <g transform="translate(64.268591 243.785724) scale(0.2 -0.2)">
       <use xlink:href="#DejaVuSans-31"/>
       <use xlink:href="#DejaVuSans-2e" x="63.623047"/>
       <use xlink:href="#DejaVuSans-30" x="95.410156"/>
      </g>
     </g>
    </g>
    <g id="ytick_5">
     <g id="line2d_14">
      <g>
       <use xlink:href="#m30ff374e8f" x="103.074841" y="192.666521" style="stroke: #000000; stroke-width: 0.8"/>
      </g>
     </g>
     <g id="text_14">
      <!-- 1.5 -->
      <g transform="translate(64.268591 200.264958) scale(0.2 -0.2)">
       <use xlink:href="#DejaVuSans-31"/>
       <use xlink:href="#DejaVuSans-2e" x="63.623047"/>
       <use xlink:href="#DejaVuSans-35" x="95.410156"/>
      </g>
     </g>
    </g>
    <g id="ytick_6">
     <g id="line2d_15">
      <g>
       <use xlink:href="#m30ff374e8f" x="103.074841" y="149.145756" style="stroke: #000000; stroke-width: 0.8"/>
      </g>
     </g>
     <g id="text_15">
      <!-- 2.0 -->
      <g transform="translate(64.268591 156.744193) scale(0.2 -0.2)">
       <use xlink:href="#DejaVuSans-32"/>
       <use xlink:href="#DejaVuSans-2e" x="63.623047"/>
       <use xlink:href="#DejaVuSans-30" x="95.410156"/>
      </g>
     </g>
    </g>
    <g id="ytick_7">
     <g id="line2d_16">
      <g>
       <use xlink:href="#m30ff374e8f" x="103.074841" y="105.624991" style="stroke: #000000; stroke-width: 0.8"/>
      </g>
     </g>
     <g id="text_16">
      <!-- 2.5 -->
      <g transform="translate(64.268591 113.223428) scale(0.2 -0.2)">
       <use xlink:href="#DejaVuSans-32"/>
       <use xlink:href="#DejaVuSans-2e" x="63.623047"/>
       <use xlink:href="#DejaVuSans-35" x="95.410156"/>
      </g>
     </g>
    </g>
    <g id="ytick_8">
     <g id="line2d_17">
      <g>
       <use xlink:href="#m30ff374e8f" x="103.074841" y="62.104226" style="stroke: #000000; stroke-width: 0.8"/>
      </g>
     </g>
     <g id="text_17">
      <!-- 3.0 -->
      <g transform="translate(64.268591 69.702663) scale(0.2 -0.2)">
       <use xlink:href="#DejaVuSans-33"/>
       <use xlink:href="#DejaVuSans-2e" x="63.623047"/>
       <use xlink:href="#DejaVuSans-30" x="95.410156"/>
      </g>
     </g>
    </g>
    <g id="ytick_9">
     <g id="line2d_18">
      <g>
       <use xlink:href="#m30ff374e8f" x="103.074841" y="18.58346" style="stroke: #000000; stroke-width: 0.8"/>
      </g>
     </g>
     <g id="text_18">
      <!-- 3.5 -->
      <g transform="translate(64.268591 26.181898) scale(0.2 -0.2)">
       <use xlink:href="#DejaVuSans-33"/>
       <use xlink:href="#DejaVuSans-2e" x="63.623047"/>
       <use xlink:href="#DejaVuSans-35" x="95.410156"/>
      </g>
     </g>
    </g>
   </g>
   <g id="line2d_19">
    <path d="M 280.132533 323.228816 
L 288.18061 24.84 
L 296.228687 323.228816 
L 304.276764 294.369075 
L 312.324841 323.228816 
L 320.372918 323.228816 
L 328.420995 305.550252 
L 336.469071 288.514684 
L 344.517148 308.938732 
L 352.565225 308.682459 
L 360.613302 298.907746 
L 368.661379 305.100587 
L 376.709456 323.228816 
L 384.757533 318.137759 
L 392.80561 305.481572 
L 400.853687 309.393476 
L 408.901764 332.922396 
L 416.949841 323.228816 
L 424.997918 317.951079 
L 433.045995 323.228816 
L 441.094071 314.211806 
L 449.142148 280.034334 
L 457.190225 325.561 
L 465.238302 323.709446 
L 473.286379 326.853076 
L 481.334456 330.608431 
L 489.382533 330.918262 
L 497.43061 323.228816 
L 505.478687 322.219698 
L 513.526764 335.989198 
L 521.574841 334.709794 
L 529.622918 323.228816 
L 537.670995 323.228816 
L 545.719071 333.02403 
L 553.767148 323.228816 
L 561.815225 313.786023 
L 569.863302 377.64 
L 577.911379 322.498334 
L 585.959456 334.78357 
L 594.007533 323.228816 
L 618.151764 323.228816 
L 626.199841 339.245291 
L 634.247918 297.189709 
L 642.295995 323.228816 
L 674.488302 323.228816 
L 682.536379 375.27785 
L 690.584456 323.228816 
L 698.632533 360.414518 
L 706.68061 323.228816 
L 746.920995 323.228816 
M 940.074841 323.228816 
" clip-path="url(#pb561bab09b)" style="fill: none; stroke: #ffa500; stroke-width: 1.5; stroke-linecap: square"/>
   </g>
   <g id="line2d_20">
    <path d="M 103.074841 323.228816 
L 948.274841 323.228816 
" clip-path="url(#pb561bab09b)" style="fill: none; stroke-dasharray: 7.4,3.2; stroke-dashoffset: 0; stroke: #000000; stroke-width: 2"/>
   </g>
   <g id="patch_3">
    <path d="M 103.074841 395.28 
L 103.074841 7.2 
" style="fill: none; stroke: #000000; stroke-width: 0.8; stroke-linejoin: miter; stroke-linecap: square"/>
   </g>
   <g id="patch_4">
    <path d="M 940.074841 395.28 
L 940.074841 7.2 
" style="fill: none; stroke: #000000; stroke-width: 0.8; stroke-linejoin: miter; stroke-linecap: square"/>
   </g>
   <g id="patch_5">
    <path d="M 103.074841 395.28 
L 940.074841 395.28 
" style="fill: none; stroke: #000000; stroke-width: 0.8; stroke-linejoin: miter; stroke-linecap: square"/>
   </g>
   <g id="patch_6">
    <path d="M 103.074841 7.2 
L 940.074841 7.2 
" style="fill: none; stroke: #000000; stroke-width: 0.8; stroke-linejoin: miter; stroke-linecap: square"/>
   </g>
  </g>
 </g>
 <defs>
  <clipPath id="pb561bab09b">
   <rect x="103.074841" y="7.2" width="837" height="388.08"/>
  </clipPath>
 </defs>
</svg>
