<?xml version="1.0" encoding="utf-8" standalone="no"?>
<!DOCTYPE svg PUBLIC "-//W3C//DTD SVG 1.1//EN"
  "http://www.w3.org/Graphics/SVG/1.1/DTD/svg11.dtd">
<svg xmlns:xlink="http://www.w3.org/1999/xlink" width="947.274841pt" height="505.354841pt" viewBox="0 0 947.274841 505.354841" xmlns="http://www.w3.org/2000/svg" version="1.1">
 <metadata>
  <rdf:RDF xmlns:dc="http://purl.org/dc/elements/1.1/" xmlns:cc="http://creativecommons.org/ns#" xmlns:rdf="http://www.w3.org/1999/02/22-rdf-syntax-ns#">
   <cc:Work>
    <dc:type rdf:resource="http://purl.org/dc/dcmitype/StillImage"/>
    <dc:date>2023-11-21T19:32:30.107536</dc:date>
    <dc:format>image/svg+xml</dc:format>
    <dc:creator>
     <cc:Agent>
      <dc:title>Matplotlib v3.7.2, https://matplotlib.org/</dc:title>
     </cc:Agent>
    </dc:creator>
   </cc:Work>
  </rdf:RDF>
 </metadata>
 <defs>
  <style type="text/css">*{stroke-linejoin: round; stroke-linecap: butt}</style>
 </defs>
 <g id="figure_1">
  <g id="patch_1">
   <path d="M 0 505.354841 
L 947.274841 505.354841 
L 947.274841 -0 
L 0 -0 
z
" style="fill: #ffffff"/>
  </g>
  <g id="axes_1">
   <g id="patch_2">
    <path d="M 103.074841 395.28 
L 940.074841 395.28 
L 940.074841 7.2 
L 103.074841 7.2 
z
" style="fill: #ffffff"/>
   </g>
   <g id="PolyCollection_1">
    <path d="M -393.000769 283.768164 
L -393.000769 283.790008 
L -390.959306 283.681205 
L -388.917842 283.587972 
L -386.876379 283.468509 
L -384.834915 283.381592 
L -382.793452 283.28475 
L -380.751989 283.176593 
L -378.710525 283.071882 
L -376.669062 282.975429 
L -374.627598 282.891588 
L -372.586135 282.792313 
L -370.544672 282.684393 
L -368.503208 282.577608 
L -366.461745 282.457696 
L -364.420281 282.355166 
L -362.378818 282.237489 
L -360.337354 282.120626 
L -358.295891 281.992936 
L -356.254428 281.877981 
L -354.212964 281.766594 
L -352.171501 281.634394 
L -350.130037 281.505112 
L -348.088574 281.379625 
L -346.047111 281.230251 
L -344.005647 281.100165 
L -341.964184 280.941825 
L -339.92272 280.7907 
L -337.881257 280.615513 
L -335.839793 280.434055 
L -333.79833 280.260655 
L -331.756867 280.066505 
L -329.715403 279.840532 
L -327.67394 279.639474 
L -325.632476 279.411021 
L -323.591013 279.14916 
L -321.54955 278.898342 
L -319.508086 278.622249 
L -317.466623 278.331702 
L -315.425159 278.035168 
L -313.383696 277.708642 
L -311.342232 277.356981 
L -309.300769 276.993263 
L -307.259306 276.606852 
L -305.217842 276.209865 
L -303.176379 275.782052 
L -301.134915 275.35904 
L -299.093452 274.899798 
L -297.051989 274.455192 
L -295.010525 273.962543 
L -292.969062 273.437924 
L -290.927598 272.939362 
L -288.886135 272.407509 
L -286.844672 271.845179 
L -284.803208 271.293862 
L -282.761745 270.733806 
L -280.720281 270.147929 
L -278.678818 269.556174 
L -276.637354 268.959078 
L -274.595891 268.337203 
L -272.554428 267.707465 
L -270.512964 267.079885 
L -268.471501 266.431028 
L -266.430037 265.778224 
L -264.388574 265.130709 
L -262.347111 264.448996 
L -260.305647 263.758396 
L -258.264184 263.067761 
L -256.22272 262.378571 
L -254.181257 261.69519 
L -252.139793 260.993139 
L -250.09833 260.303043 
L -248.056867 259.60087 
L -246.015403 258.955859 
L -243.97394 258.219321 
L -241.932476 257.540924 
L -239.891013 256.844451 
L -237.84955 256.186247 
L -235.808086 255.486327 
L -233.766623 254.817678 
L -231.725159 254.139357 
L -229.683696 253.463569 
L -227.642232 252.806159 
L -225.600769 252.145029 
L -223.559306 251.505998 
L -221.517842 250.832046 
L -219.476379 250.151347 
L -217.434915 249.499911 
L -215.393452 248.860598 
L -213.351989 248.173892 
L -211.310525 247.515425 
L -209.269062 246.84956 
L -207.227598 246.194343 
L -205.186135 245.554054 
L -203.144672 244.896869 
L -201.103208 244.233197 
L -199.061745 243.634422 
L -197.020281 242.95763 
L -194.978818 242.308838 
L -192.937354 241.67049 
L -190.895891 241.031309 
L -188.854428 240.393743 
L -186.812964 239.748213 
L -184.771501 239.131638 
L -182.730037 238.491395 
L -180.688574 237.835508 
L -178.647111 237.172573 
L -176.605647 236.502901 
L -174.564184 235.874993 
L -172.52272 235.184919 
L -170.481257 234.451729 
L -168.439793 233.75514 
L -166.39833 233.034455 
L -164.356867 232.297125 
L -162.315403 231.519297 
L -160.27394 230.727548 
L -158.232476 229.98987 
L -156.191013 229.152664 
L -154.14955 228.355532 
L -152.108086 227.498014 
L -150.066623 226.708305 
L -148.025159 225.784535 
L -145.983696 224.877283 
L -143.942232 223.995289 
L -141.900769 223.098181 
L -139.859306 222.174319 
L -137.817842 221.209139 
L -135.776379 220.30281 
L -133.734915 219.267169 
L -131.693452 218.353779 
L -129.651989 217.288216 
L -127.610525 216.255773 
L -125.569062 215.246049 
L -123.527598 214.184163 
L -121.486135 213.106101 
L -119.444672 212.12197 
L -117.403208 210.83003 
L -115.361745 209.714839 
L -113.320281 208.67327 
L -111.278818 207.499903 
L -109.237354 206.257123 
L -107.195891 204.898338 
L -105.154428 203.613646 
L -103.112964 202.528609 
L -101.071501 200.820088 
L -99.030037 199.44299 
L -96.988574 198.034625 
L -94.947111 196.57608 
L -92.905647 194.915576 
L -90.864184 193.316479 
L -88.82272 192.136864 
L -86.781257 190.645512 
L -84.739793 188.152284 
L -82.69833 186.080739 
L -80.656867 184.503633 
L -78.615403 182.469558 
L -76.57394 180.531623 
L -74.532476 179.040056 
L -72.491013 176.691494 
L -70.44955 174.279071 
L -68.408086 172.864846 
L -66.366623 171.99894 
L -64.325159 170.127465 
L -62.283696 169.209129 
L -60.242232 168.308745 
L -58.200769 165.917312 
L -56.159306 166.161827 
L -54.117842 167.195782 
L -52.076379 168.895507 
L -50.034915 166.6884 
L -47.993452 170.609216 
L -45.951989 171.881806 
L -43.910525 166.503375 
L -41.869062 167.013436 
L -39.827598 169.961433 
L -37.786135 168.313753 
L -35.744672 168.730689 
L -33.703208 179.403361 
L -31.661745 194.231507 
L -29.620281 202.255989 
L -27.578818 185.154056 
L -25.537354 193.483048 
L -23.495891 204.646176 
L -21.454428 204.55447 
L -19.412964 226.887809 
L -17.371501 223.513906 
L -15.330037 217.589194 
L -13.288574 199.514168 
L -11.247111 215.722723 
L -9.205647 225.277213 
L -7.164184 221.324774 
L -5.12272 224.08736 
L -3.081257 233.415852 
L -1.039793 232.139344 
L 1.00167 223.802641 
L 3.043133 233.861532 
L 5.084597 235.717318 
L 7.12606 231.978942 
L 9.167524 238.463239 
L 11.208987 240.953615 
L 13.25045 240.08732 
L 15.291914 238.203298 
L 17.333377 240.367418 
L 19.374841 238.275852 
L 21.416304 238.49653 
L 23.457768 240.409421 
L 25.499231 238.553363 
L 27.540694 239.509238 
L 29.582158 239.594995 
L 31.623621 238.102402 
L 33.665085 238.706428 
L 35.706548 236.414946 
L 37.748011 236.65423 
L 39.789475 237.290014 
L 41.830938 237.332193 
L 43.872402 236.27382 
L 45.913865 235.349476 
L 47.955328 235.104304 
L 49.996792 234.155285 
L 52.038255 234.009768 
L 54.079719 233.736143 
L 56.121182 232.325683 
L 58.162646 233.070072 
L 60.204109 232.001552 
L 62.245572 231.566123 
L 64.287036 231.604984 
L 66.328499 230.637412 
L 68.369963 230.480999 
L 70.411426 230.862054 
L 72.452889 231.282495 
L 74.494353 229.688273 
L 76.535816 229.378354 
L 78.57728 228.921136 
L 80.618743 231.597111 
L 82.660207 231.639565 
L 84.70167 232.690544 
L 86.743133 230.167986 
L 88.784597 228.551296 
L 90.82606 229.092249 
L 92.867524 230.861851 
L 94.908987 231.173213 
L 96.95045 227.938687 
L 98.991914 230.715466 
L 101.033377 229.861084 
L 103.074841 229.640886 
L 105.116304 228.165809 
L 107.157768 229.30213 
L 109.199231 228.561651 
L 111.240694 229.325207 
L 113.282158 228.491199 
L 115.323621 227.429 
L 117.365085 226.179956 
L 119.406548 225.627001 
L 121.448011 224.865129 
L 123.489475 224.083964 
L 125.530938 224.050191 
L 127.572402 223.150614 
L 129.613865 222.318652 
L 131.655328 220.340953 
L 133.696792 218.560445 
L 135.738255 217.770332 
L 137.779719 215.95693 
L 139.821182 215.520679 
L 141.862646 213.908318 
L 143.904109 211.71482 
L 145.945572 209.72912 
L 147.987036 208.273922 
L 150.028499 205.88611 
L 152.069963 204.445057 
L 154.111426 202.201426 
L 156.152889 199.984006 
L 158.194353 197.994763 
L 160.235816 195.8569 
L 162.27728 193.392528 
L 164.318743 190.979148 
L 166.360207 188.59231 
L 168.40167 185.689463 
L 170.443133 183.116432 
L 172.484597 180.881578 
L 174.52606 178.458523 
L 176.567524 175.773259 
L 178.608987 173.078422 
L 180.65045 170.317582 
L 182.691914 166.692269 
L 184.733377 164.28794 
L 186.774841 161.429576 
L 188.816304 159.183524 
L 190.857768 155.816299 
L 192.899231 152.582942 
L 194.940694 150.156372 
L 196.982158 146.696389 
L 199.023621 143.038313 
L 201.065085 140.293782 
L 203.106548 136.577804 
L 205.148011 133.895863 
L 207.189475 130.565894 
L 209.230938 126.327109 
L 211.272402 122.928442 
L 213.313865 120.493982 
L 215.355328 116.452884 
L 217.396792 113.177283 
L 219.438255 109.300719 
L 221.479719 106.573794 
L 223.521182 102.090561 
L 225.562646 98.42773 
L 227.604109 98.778673 
L 229.645572 91.661165 
L 231.687036 90.294494 
L 233.728499 86.141871 
L 235.769963 84.1239 
L 237.811426 79.820942 
L 239.852889 76.84109 
L 241.894353 73.529178 
L 243.935816 70.846865 
L 245.97728 68.141218 
L 248.018743 64.919154 
L 250.060207 66.804892 
L 252.10167 58.080004 
L 254.143133 56.742066 
L 256.184597 60.483404 
L 258.22606 52.211474 
L 260.267524 53.638395 
L 262.308987 52.53411 
L 264.35045 47.291096 
L 266.391914 47.568678 
L 268.433377 53.669224 
L 270.474841 47.88057 
L 272.516304 47.154071 
L 274.557768 49.068336 
L 276.599231 48.834239 
L 278.640694 51.123467 
L 280.682158 54.226479 
L 282.723621 58.715784 
L 284.765085 73.569962 
L 286.806548 67.823724 
L 288.848011 75.752832 
L 290.889475 80.484471 
L 292.930938 83.889323 
L 294.972402 89.268425 
L 297.013865 94.743846 
L 299.055328 87.09692 
L 301.096792 93.830731 
L 303.138255 104.463801 
L 305.179719 110.717516 
L 307.221182 113.355136 
L 309.262646 131.445508 
L 311.304109 132.734468 
L 313.345572 136.70418 
L 315.387036 135.879799 
L 317.428499 150.357128 
L 319.469963 146.478766 
L 321.511426 143.098801 
L 323.552889 156.492772 
L 325.594353 164.832808 
L 327.635816 164.350201 
L 329.67728 170.453297 
L 331.718743 172.102716 
L 333.760207 172.810727 
L 335.80167 172.970901 
L 337.843133 174.852138 
L 339.884597 177.309688 
L 341.92606 186.508719 
L 343.967524 180.647819 
L 346.008987 188.580633 
L 348.05045 187.494055 
L 350.091914 186.197458 
L 352.133377 189.390024 
L 354.174841 192.193101 
L 356.216304 187.929693 
L 358.257768 191.538868 
L 360.299231 191.461702 
L 362.340694 195.349777 
L 364.382158 193.99022 
L 366.423621 192.35432 
L 368.465085 194.492758 
L 370.506548 194.831798 
L 372.548011 194.337218 
L 374.589475 193.228524 
L 376.630938 194.290442 
L 378.672402 191.781917 
L 380.713865 192.479205 
L 382.755328 196.056906 
L 384.796792 195.668971 
L 386.838255 193.020904 
L 388.879719 193.240897 
L 390.921182 192.927477 
L 392.962646 189.44011 
L 395.004109 190.964596 
L 397.045572 193.359183 
L 399.087036 189.966303 
L 401.128499 189.644465 
L 403.169963 188.013956 
L 405.211426 189.010174 
L 407.252889 188.657609 
L 409.294353 187.557054 
L 411.335816 187.17035 
L 413.37728 186.702505 
L 415.418743 185.679498 
L 417.460207 183.327499 
L 419.50167 182.623755 
L 421.543133 181.176258 
L 423.584597 177.465834 
L 425.62606 180.493007 
L 427.667524 176.183331 
L 429.708987 177.431878 
L 431.75045 177.234954 
L 433.791914 177.461336 
L 435.833377 175.208011 
L 437.874841 175.617109 
L 439.916304 175.397657 
L 441.957768 171.067003 
L 443.999231 172.318013 
L 446.040694 171.686025 
L 448.082158 172.467574 
L 450.123621 169.658551 
L 452.165085 170.643934 
L 454.206548 169.923699 
L 456.248011 165.822578 
L 458.289475 165.504317 
L 460.330938 164.468914 
L 462.372402 164.107574 
L 464.413865 162.203029 
L 466.455328 162.397758 
L 468.496792 161.497582 
L 470.538255 160.786981 
L 472.579719 159.510576 
L 474.621182 157.360757 
L 476.662646 159.412307 
L 478.704109 158.80042 
L 480.745572 157.125688 
L 482.787036 156.089957 
L 484.828499 153.408457 
L 486.869963 155.511256 
L 488.911426 154.920891 
L 490.952889 154.740362 
L 492.994353 153.193752 
L 495.035816 151.482816 
L 497.07728 150.29494 
L 499.118743 150.229077 
L 501.160207 149.837499 
L 503.20167 149.598781 
L 505.243133 147.434739 
L 507.284597 145.425916 
L 509.32606 147.817089 
L 511.367524 144.803308 
L 513.408987 145.125864 
L 515.45045 145.983599 
L 517.491914 141.367123 
L 519.533377 141.991309 
L 521.574841 142.656565 
L 523.616304 140.982221 
L 525.657768 142.966485 
L 527.699231 139.967196 
L 529.740694 137.741916 
L 531.782158 140.791087 
L 533.823621 140.814884 
L 535.865085 138.899313 
L 537.906548 139.864062 
L 539.948011 138.810719 
L 541.989475 143.434846 
L 544.030938 142.482932 
L 546.072402 143.111897 
L 548.113865 139.353093 
L 550.155328 136.819892 
L 552.196792 140.497373 
L 554.238255 144.608973 
L 556.279719 140.33868 
L 558.321182 140.203953 
L 560.362646 137.19948 
L 562.404109 138.022307 
L 564.445572 140.275066 
L 566.487036 138.057069 
L 568.528499 135.901096 
L 570.569963 140.476515 
L 572.611426 137.820852 
L 574.652889 141.8492 
L 576.694353 142.906038 
L 578.735816 136.984892 
L 580.77728 138.119607 
L 582.818743 136.420962 
L 584.860207 138.381347 
L 586.90167 140.92982 
L 588.943133 147.784456 
L 590.984597 150.459336 
L 593.02606 147.877783 
L 595.067524 154.570664 
L 597.108987 164.745206 
L 599.15045 152.925726 
L 601.191914 148.905221 
L 603.233377 153.311501 
L 605.274841 157.167774 
L 607.316304 157.974223 
L 609.357768 155.826622 
L 611.399231 163.658679 
L 613.440694 168.440763 
L 615.482158 159.98027 
L 617.523621 167.928319 
L 619.565085 164.367238 
L 621.606548 164.552689 
L 623.648011 171.852234 
L 625.689475 169.95951 
L 627.730938 175.862433 
L 629.772402 176.543678 
L 631.813865 168.752182 
L 633.855328 175.366058 
L 635.896792 175.187337 
L 637.938255 180.485247 
L 639.979719 178.685915 
L 642.021182 185.0249 
L 644.062646 181.093127 
L 646.104109 184.919915 
L 648.145572 185.5246 
L 650.187036 187.855973 
L 652.228499 182.194556 
L 654.269963 189.255211 
L 656.311426 191.511774 
L 658.352889 194.531658 
L 660.394353 199.526323 
L 662.435816 198.232509 
L 664.47728 197.295887 
L 666.518743 201.73727 
L 668.560207 205.668159 
L 670.60167 202.349375 
L 672.643133 200.821925 
L 674.684597 205.079053 
L 676.72606 208.040738 
L 678.767524 203.175876 
L 680.808987 202.294597 
L 682.85045 212.029838 
L 684.891914 215.593053 
L 686.933377 206.539869 
L 688.974841 209.596498 
L 691.016304 211.706979 
L 693.057768 213.410262 
L 695.099231 219.486869 
L 697.140694 217.301963 
L 699.182158 214.234283 
L 701.223621 218.575686 
L 703.265085 221.07453 
L 705.306548 215.166214 
L 707.348011 216.590085 
L 709.389475 216.45677 
L 711.430938 226.262807 
L 713.472402 232.380298 
L 715.513865 233.376101 
L 717.555328 225.963122 
L 719.596792 222.926055 
L 721.638255 225.499676 
L 723.679719 226.269264 
L 725.721182 235.109453 
L 727.762646 224.906717 
L 729.804109 233.850225 
L 731.845572 239.491148 
L 733.887036 234.650575 
L 735.928499 244.032739 
L 737.969963 238.568976 
L 740.011426 240.882451 
L 742.052889 241.98149 
L 744.094353 244.228399 
L 746.135816 249.006085 
L 748.17728 246.332502 
L 750.218743 249.359324 
L 752.260207 250.972609 
L 754.30167 251.259985 
L 756.343133 240.762023 
L 758.384597 256.575164 
L 760.42606 262.193386 
L 762.467524 256.6467 
L 764.508987 261.232697 
L 766.55045 263.075396 
L 768.591914 260.51948 
L 770.633377 265.64499 
L 772.674841 272.205145 
L 774.716304 270.586754 
L 776.757768 272.4488 
L 778.799231 274.882781 
L 780.840694 275.566886 
L 782.882158 279.955196 
L 784.923621 271.418288 
L 786.965085 284.189526 
L 789.006548 284.299369 
L 791.048011 283.364693 
L 793.089475 276.996183 
L 795.130938 287.616085 
L 797.172402 297.167544 
L 799.213865 287.570274 
L 801.255328 289.185296 
L 803.296792 300.787518 
L 805.338255 281.28686 
L 807.379719 298.540754 
L 809.421182 287.479103 
L 811.462646 311.433254 
L 813.504109 296.404799 
L 815.545572 309.406235 
L 817.587036 311.681768 
L 819.628499 320.246148 
L 821.669963 320.117208 
L 823.711426 314.572671 
L 825.752889 314.729378 
L 827.794353 324.846916 
L 829.835816 336.046998 
L 831.87728 336.216953 
L 833.918743 333.103279 
L 835.960207 347.005429 
L 838.00167 345.587029 
L 840.043133 341.372543 
L 842.084597 336.122145 
L 844.12606 357.820995 
L 846.167524 358.409846 
L 848.208987 363.164985 
L 850.25045 353.990043 
L 852.291914 332.696088 
L 854.333377 359.957365 
L 856.374841 350.566556 
L 858.416304 357.335473 
L 860.457768 364.569518 
L 862.499231 353.34775 
L 864.540694 369.270595 
L 866.582158 356.737272 
L 868.623621 356.461496 
L 870.665085 362.326716 
L 872.706548 368.204849 
L 874.748011 365.266695 
L 876.789475 364.620011 
L 878.830938 357.747698 
L 880.872402 360.524758 
L 882.913865 364.999083 
L 884.955328 362.121302 
L 886.996792 370.269091 
L 889.038255 364.716563 
L 891.079719 371.893215 
L 893.121182 377.635107 
L 895.162646 377.64 
L 897.204109 370.747354 
L 899.245572 370.515908 
L 901.287036 370.487389 
L 903.328499 373.21293 
L 905.369963 372.958957 
L 907.411426 362.305761 
L 909.452889 371.60212 
L 911.494353 316.497274 
L 913.535816 371.797497 
L 915.57728 375.643777 
L 917.618743 368.180396 
L 919.660207 361.392196 
L 921.70167 374.800629 
L 923.743133 368.546868 
L 925.784597 357.890357 
L 927.82606 366.277017 
L 929.867524 367.09529 
L 931.908987 363.414782 
L 933.95045 371.987165 
L 935.991914 366.21654 
L 938.033377 370.124573 
L 940.074841 372.823136 
L 940.074841 292.01586 
L 940.074841 292.01586 
L 938.033377 297.079286 
L 935.991914 293.89099 
L 933.95045 297.714194 
L 931.908987 294.264615 
L 929.867524 296.367812 
L 927.82606 295.37095 
L 925.784597 296.827723 
L 923.743133 300.428811 
L 921.70167 300.89257 
L 919.660207 299.642123 
L 917.618743 300.367972 
L 915.57728 304.66171 
L 913.535816 302.738178 
L 911.494353 294.153487 
L 909.452889 304.633127 
L 907.411426 303.082007 
L 905.369963 305.684575 
L 903.328499 306.738446 
L 901.287036 306.186427 
L 899.245572 307.866099 
L 897.204109 308.945294 
L 895.162646 311.260003 
L 893.121182 311.648456 
L 891.079719 311.325022 
L 889.038255 309.592467 
L 886.996792 311.342485 
L 884.955328 308.935232 
L 882.913865 310.249703 
L 880.872402 309.838485 
L 878.830938 309.674468 
L 876.789475 312.11055 
L 874.748011 313.049034 
L 872.706548 315.128438 
L 870.665085 312.593918 
L 868.623621 311.97188 
L 866.582158 312.665498 
L 864.540694 316.795808 
L 862.499231 312.230875 
L 860.457768 316.128086 
L 858.416304 313.927471 
L 856.374841 311.71438 
L 854.333377 315.515004 
L 852.291914 307.914819 
L 850.25045 314.010858 
L 848.208987 317.947501 
L 846.167524 316.757876 
L 844.12606 316.460552 
L 842.084597 310.573675 
L 840.043133 311.893316 
L 838.00167 313.458796 
L 835.960207 313.964848 
L 833.918743 309.180775 
L 831.87728 310.222931 
L 829.835816 310.963576 
L 827.794353 305.174289 
L 825.752889 302.460112 
L 823.711426 303.033873 
L 821.669963 305.449086 
L 819.628499 305.690522 
L 817.587036 301.480962 
L 815.545572 300.593707 
L 813.504109 290.120496 
L 811.462646 301.474334 
L 809.421182 266.229063 
L 807.379719 292.547806 
L 805.338255 253.440802 
L 803.296792 297.090671 
L 801.255328 276.3177 
L 799.213865 274.082607 
L 797.172402 289.803854 
L 795.130938 272.042718 
L 793.089475 246.274431 
L 791.048011 260.984553 
L 789.006548 265.10082 
L 786.965085 265.114252 
L 784.923621 233.000774 
L 782.882158 244.467138 
L 780.840694 244.843768 
L 778.799231 243.325188 
L 776.757768 237.299508 
L 774.716304 231.315097 
L 772.674841 236.812833 
L 770.633377 219.894101 
L 768.591914 207.630607 
L 766.55045 218.303797 
L 764.508987 208.659482 
L 762.467524 201.963496 
L 760.42606 214.939619 
L 758.384597 202.092641 
L 756.343133 164.935788 
L 754.30167 188.997456 
L 752.260207 187.13386 
L 750.218743 184.655175 
L 748.17728 177.570339 
L 746.135816 184.008125 
L 744.094353 174.408867 
L 742.052889 170.196937 
L 740.011426 167.217394 
L 737.969963 159.681839 
L 735.928499 174.243367 
L 733.887036 153.68161 
L 731.845572 163.267633 
L 729.804109 152.278268 
L 727.762646 135.897924 
L 725.721182 154.738354 
L 723.679719 135.431095 
L 721.638255 135.742219 
L 719.596792 131.391686 
L 717.555328 137.433075 
L 715.513865 152.219498 
L 713.472402 151.716779 
L 711.430938 139.878016 
L 709.389475 117.908052 
L 707.348011 118.815413 
L 705.306548 118.271129 
L 703.265085 129.983666 
L 701.223621 126.192543 
L 699.182158 117.515375 
L 697.140694 124.750651 
L 695.099231 127.60282 
L 693.057768 117.171998 
L 691.016304 115.843758 
L 688.974841 111.656889 
L 686.933377 106.470649 
L 684.891914 125.758141 
L 682.85045 115.906409 
L 680.808987 100.446705 
L 678.767524 104.313693 
L 676.72606 113.571204 
L 674.684597 107.703233 
L 672.643133 101.419879 
L 670.60167 105.837596 
L 668.560207 114.379497 
L 666.518743 103.937334 
L 664.47728 98.397853 
L 662.435816 101.703537 
L 660.394353 98.982646 
L 658.352889 95.65717 
L 656.311426 91.512691 
L 654.269963 88.399472 
L 652.228499 76.70951 
L 650.187036 86.137812 
L 648.145572 83.220926 
L 646.104109 83.850954 
L 644.062646 80.715372 
L 642.021182 84.591635 
L 639.979719 75.912446 
L 637.938255 80.514469 
L 635.896792 72.516824 
L 633.855328 73.902619 
L 631.813865 64.583656 
L 629.772402 73.125314 
L 627.730938 75.859849 
L 625.689475 70.719542 
L 623.648011 70.95499 
L 621.606548 62.604952 
L 619.565085 64.340575 
L 617.523621 66.730524 
L 615.482158 57.138756 
L 613.440694 66.509694 
L 611.399231 63.352121 
L 609.357768 52.597039 
L 607.316304 56.604402 
L 605.274841 55.611922 
L 603.233377 52.656234 
L 601.191914 47.634455 
L 599.15045 52.034312 
L 597.108987 69.717505 
L 595.067524 57.371892 
L 593.02606 48.248014 
L 590.984597 51.603719 
L 588.943133 48.662131 
L 586.90167 42.393118 
L 584.860207 39.220102 
L 582.818743 36.76461 
L 580.77728 40.329459 
L 578.735816 40.223147 
L 576.694353 46.713659 
L 574.652889 46.43965 
L 572.611426 42.750201 
L 570.569963 47.126951 
L 568.528499 41.401648 
L 566.487036 46.195904 
L 564.445572 48.504587 
L 562.404109 48.543053 
L 560.362646 46.87033 
L 558.321182 51.811073 
L 556.279719 52.083475 
L 554.238255 56.910833 
L 552.196792 54.139855 
L 550.155328 50.876385 
L 548.113865 54.288586 
L 546.072402 57.024489 
L 544.030938 57.309515 
L 541.989475 60.442419 
L 539.948011 55.378133 
L 537.906548 57.434917 
L 535.865085 56.537585 
L 533.823621 57.798954 
L 531.782158 57.18495 
L 529.740694 55.234434 
L 527.699231 59.465128 
L 525.657768 61.841048 
L 523.616304 59.281393 
L 521.574841 61.761558 
L 519.533377 59.656357 
L 517.491914 61.393795 
L 515.45045 66.087409 
L 513.408987 65.349193 
L 511.367524 65.578917 
L 509.32606 68.497546 
L 507.284597 66.029988 
L 505.243133 67.95537 
L 503.20167 70.570456 
L 501.160207 70.428409 
L 499.118743 71.210545 
L 497.07728 71.212549 
L 495.035816 72.348535 
L 492.994353 74.098176 
L 490.952889 75.400622 
L 488.911426 74.933028 
L 486.869963 75.990363 
L 484.828499 71.124958 
L 482.787036 76.105212 
L 480.745572 76.838519 
L 478.704109 77.983536 
L 476.662646 77.639709 
L 474.621182 76.500481 
L 472.579719 78.570114 
L 470.538255 79.694068 
L 468.496792 80.68558 
L 466.455328 80.923332 
L 464.413865 80.634921 
L 462.372402 81.586848 
L 460.330938 82.206325 
L 458.289475 83.362287 
L 456.248011 84.008528 
L 454.206548 88.421812 
L 452.165085 88.926228 
L 450.123621 87.506243 
L 448.082158 90.546482 
L 446.040694 89.08168 
L 443.999231 89.93589 
L 441.957768 87.172803 
L 439.916304 93.517318 
L 437.874841 93.678798 
L 435.833377 93.112969 
L 433.791914 95.670883 
L 431.75045 95.278146 
L 429.708987 95.647084 
L 427.667524 93.956676 
L 425.62606 98.922134 
L 423.584597 96.127247 
L 421.543133 100.911179 
L 419.50167 103.262 
L 417.460207 104.462591 
L 415.418743 107.76544 
L 413.37728 109.974372 
L 411.335816 110.258196 
L 409.294353 111.742465 
L 407.252889 113.031276 
L 405.211426 114.121938 
L 403.169963 113.311766 
L 401.128499 116.314634 
L 399.087036 117.93671 
L 397.045572 121.829805 
L 395.004109 120.189203 
L 392.962646 119.690974 
L 390.921182 123.958433 
L 388.879719 125.201809 
L 386.838255 126.582355 
L 384.796792 129.645365 
L 382.755328 130.647879 
L 380.713865 128.577359 
L 378.672402 129.147486 
L 376.630938 132.306571 
L 374.589475 132.76677 
L 372.548011 134.264807 
L 370.506548 135.456601 
L 368.465085 136.359582 
L 366.423621 136.506511 
L 364.382158 138.374978 
L 362.340694 140.337631 
L 360.299231 137.359235 
L 358.257768 138.906956 
L 356.216304 137.225573 
L 354.174841 141.468473 
L 352.133377 140.967369 
L 350.091914 138.630921 
L 348.05045 140.842915 
L 346.008987 142.196191 
L 343.967524 136.664833 
L 341.92606 142.684802 
L 339.884597 136.009552 
L 337.843133 135.324563 
L 335.80167 134.680181 
L 333.760207 136.031564 
L 331.718743 136.20101 
L 329.67728 135.406115 
L 327.635816 131.500517 
L 325.594353 133.614546 
L 323.552889 126.590687 
L 321.511426 117.259021 
L 319.469963 120.340179 
L 317.428499 123.874668 
L 315.387036 113.008752 
L 313.345572 113.496914 
L 311.304109 111.029976 
L 309.262646 110.520012 
L 307.221182 96.267184 
L 305.179719 95.168395 
L 303.138255 90.141529 
L 301.096792 78.905586 
L 299.055328 72.192733 
L 297.013865 80.249506 
L 294.972402 74.742151 
L 292.930938 69.059993 
L 290.889475 64.995635 
L 288.848011 59.716797 
L 286.806548 50.068321 
L 284.765085 57.026747 
L 282.723621 39.043359 
L 280.682158 33.006706 
L 278.640694 29.524052 
L 276.599231 26.603396 
L 274.557768 26.929596 
L 272.516304 24.84 
L 270.474841 26.17857 
L 268.433377 32.513785 
L 266.391914 25.194486 
L 264.35045 25.037374 
L 262.308987 31.423891 
L 260.267524 32.700446 
L 258.22606 30.781196 
L 256.184597 41.152771 
L 254.143133 36.259193 
L 252.10167 38.168148 
L 250.060207 48.635084 
L 248.018743 46.309796 
L 245.97728 50.470551 
L 243.935816 53.78304 
L 241.894353 57.232271 
L 239.852889 61.107094 
L 237.811426 64.904263 
L 235.769963 70.133996 
L 233.728499 72.610205 
L 231.687036 77.824899 
L 229.645572 79.487627 
L 227.604109 86.657795 
L 225.562646 85.975294 
L 223.521182 89.554996 
L 221.479719 93.642254 
L 219.438255 96.182983 
L 217.396792 99.717569 
L 215.355328 102.763765 
L 213.313865 106.544033 
L 211.272402 108.857852 
L 209.230938 111.945024 
L 207.189475 115.907428 
L 205.148011 119.174636 
L 203.106548 121.597394 
L 201.065085 124.853642 
L 199.023621 127.44326 
L 196.982158 130.786007 
L 194.940694 133.985272 
L 192.899231 136.145228 
L 190.857768 139.177478 
L 188.816304 142.303369 
L 186.774841 144.326567 
L 184.733377 146.859709 
L 182.691914 148.927136 
L 180.65045 152.285801 
L 178.608987 154.688198 
L 176.567524 157.211624 
L 174.52606 159.691524 
L 172.484597 161.789115 
L 170.443133 163.917938 
L 168.40167 166.113407 
L 166.360207 168.707563 
L 164.318743 170.745305 
L 162.27728 172.977058 
L 160.235816 174.977332 
L 158.194353 177.193801 
L 156.152889 179.143695 
L 154.111426 181.157127 
L 152.069963 183.220535 
L 150.028499 184.726288 
L 147.987036 186.919279 
L 145.945572 188.468689 
L 143.904109 190.302783 
L 141.862646 192.478378 
L 139.821182 194.047373 
L 137.779719 194.482156 
L 135.738255 196.328081 
L 133.696792 197.275065 
L 131.655328 199.150486 
L 129.613865 201.077539 
L 127.572402 202.140059 
L 125.530938 203.222772 
L 123.489475 203.190432 
L 121.448011 204.15024 
L 119.406548 204.842064 
L 117.365085 205.376836 
L 115.323621 206.761445 
L 113.282158 207.852442 
L 111.240694 208.929747 
L 109.199231 208.061411 
L 107.157768 208.707698 
L 105.116304 207.544336 
L 103.074841 209.27754 
L 101.033377 209.290504 
L 98.991914 210.742977 
L 96.95045 207.747944 
L 94.908987 211.124107 
L 92.867524 210.779083 
L 90.82606 208.85821 
L 88.784597 208.30244 
L 86.743133 210.057394 
L 84.70167 212.86391 
L 82.660207 211.683499 
L 80.618743 211.607969 
L 78.57728 208.554677 
L 76.535816 208.433434 
L 74.494353 209.316512 
L 72.452889 211.138286 
L 70.411426 210.58406 
L 68.369963 210.116564 
L 66.328499 210.282835 
L 64.287036 211.384529 
L 62.245572 211.070823 
L 60.204109 211.763643 
L 58.162646 213.020449 
L 56.121182 212.094053 
L 54.079719 213.681817 
L 52.038255 214.004947 
L 49.996792 214.159222 
L 47.955328 215.177256 
L 45.913865 215.426828 
L 43.872402 216.655548 
L 41.830938 217.954428 
L 39.789475 217.934025 
L 37.748011 217.326862 
L 35.706548 216.788406 
L 33.665085 219.730396 
L 31.623621 219.159334 
L 29.582158 221.005838 
L 27.540694 220.975018 
L 25.499231 220.234653 
L 23.457768 222.097132 
L 21.416304 220.358349 
L 19.374841 220.389586 
L 17.333377 222.723771 
L 15.291914 220.884683 
L 13.25045 223.065207 
L 11.208987 224.048461 
L 9.167524 221.91524 
L 7.12606 215.67534 
L 5.084597 219.684147 
L 3.043133 217.942292 
L 1.00167 208.794988 
L -1.039793 216.916173 
L -3.081257 218.446835 
L -5.12272 209.98926 
L -7.164184 207.471622 
L -9.205647 211.782544 
L -11.247111 202.897362 
L -13.288574 187.037997 
L -15.330037 205.27748 
L -17.371501 211.156719 
L -19.412964 214.800052 
L -21.454428 193.434632 
L -23.495891 193.784345 
L -25.537354 182.805045 
L -27.578818 174.410079 
L -29.620281 192.248288 
L -31.661745 184.395663 
L -33.703208 169.438686 
L -35.744672 158.683401 
L -37.786135 158.603478 
L -39.827598 160.661749 
L -41.869062 157.914124 
L -43.910525 157.686758 
L -45.951989 163.609568 
L -47.993452 162.544623 
L -50.034915 158.78314 
L -52.076379 161.350135 
L -54.117842 159.89044 
L -56.159306 159.112819 
L -58.200769 159.22329 
L -60.242232 161.922138 
L -62.283696 163.116403 
L -64.325159 164.280734 
L -66.366623 166.466119 
L -68.408086 167.583002 
L -70.44955 169.258142 
L -72.491013 171.922131 
L -74.532476 174.225857 
L -76.57394 175.645626 
L -78.615403 177.504694 
L -80.656867 179.524073 
L -82.69833 180.949172 
L -84.739793 183.031822 
L -86.781257 185.5867 
L -88.82272 187.060029 
L -90.864184 188.103409 
L -92.905647 189.708402 
L -94.947111 191.321679 
L -96.988574 192.777446 
L -99.030037 194.164873 
L -101.071501 195.501695 
L -103.112964 197.329509 
L -105.154428 198.281968 
L -107.195891 199.599758 
L -109.237354 200.959183 
L -111.278818 202.237042 
L -113.320281 203.428594 
L -115.361745 204.430622 
L -117.403208 205.493839 
L -119.444672 206.902315 
L -121.486135 207.819506 
L -123.527598 208.915998 
L -125.569062 209.987214 
L -127.610525 211.033527 
L -129.651989 212.104282 
L -131.693452 213.196936 
L -133.734915 214.115869 
L -135.776379 215.180147 
L -137.817842 216.109629 
L -139.859306 217.104389 
L -141.900769 218.029332 
L -143.942232 218.984381 
L -145.983696 219.875316 
L -148.025159 220.825604 
L -150.066623 221.837941 
L -152.108086 222.626099 
L -154.14955 223.586583 
L -156.191013 224.408682 
L -158.232476 225.35244 
L -160.27394 226.044862 
L -162.315403 226.925135 
L -164.356867 227.763134 
L -166.39833 228.560125 
L -168.439793 229.359028 
L -170.481257 230.122846 
L -172.52272 230.997608 
L -174.564184 231.787868 
L -176.605647 232.436087 
L -178.647111 233.207218 
L -180.688574 233.977943 
L -182.730037 234.745122 
L -184.771501 235.484783 
L -186.812964 236.175095 
L -188.854428 236.935006 
L -190.895891 237.680157 
L -192.937354 238.429461 
L -194.978818 239.176155 
L -197.020281 239.943383 
L -199.061745 240.741424 
L -201.103208 241.428313 
L -203.144672 242.215531 
L -205.186135 242.987813 
L -207.227598 243.730047 
L -209.269062 244.495743 
L -211.310525 245.277409 
L -213.351989 246.036291 
L -215.393452 246.831988 
L -217.434915 247.559439 
L -219.476379 248.301195 
L -221.517842 249.085583 
L -223.559306 249.84298 
L -225.600769 250.553902 
L -227.642232 251.294832 
L -229.683696 252.022256 
L -231.725159 252.766647 
L -233.766623 253.513892 
L -235.808086 254.243387 
L -237.84955 255.005975 
L -239.891013 255.707341 
L -241.932476 256.453764 
L -243.97394 257.175537 
L -246.015403 257.964995 
L -248.056867 258.645089 
L -250.09833 259.391604 
L -252.139793 260.121865 
L -254.181257 260.865161 
L -256.22272 261.583248 
L -258.264184 262.308379 
L -260.305647 263.036513 
L -262.347111 263.76376 
L -264.388574 264.479973 
L -266.430037 265.155974 
L -268.471501 265.818492 
L -270.512964 266.479102 
L -272.554428 267.116803 
L -274.595891 267.765931 
L -276.637354 268.406585 
L -278.678818 269.018371 
L -280.720281 269.629175 
L -282.761745 270.236375 
L -284.803208 270.815099 
L -286.844672 271.38433 
L -288.886135 271.977867 
L -290.927598 272.526786 
L -292.969062 273.041056 
L -295.010525 273.593013 
L -297.051989 274.106544 
L -299.093452 274.563595 
L -301.134915 275.041211 
L -303.176379 275.477958 
L -305.217842 275.928754 
L -307.259306 276.339599 
L -309.300769 276.743572 
L -311.342232 277.121423 
L -313.383696 277.48637 
L -315.425159 277.827781 
L -317.466623 278.123841 
L -319.508086 278.422938 
L -321.54955 278.706539 
L -323.591013 278.959483 
L -325.632476 279.233414 
L -327.67394 279.464214 
L -329.715403 279.663253 
L -331.756867 279.89634 
L -333.79833 280.092905 
L -335.839793 280.263733 
L -337.881257 280.450448 
L -339.92272 280.631562 
L -341.964184 280.780746 
L -344.005647 280.943388 
L -346.047111 281.069985 
L -348.088574 281.225733 
L -350.130037 281.351175 
L -352.171501 281.484054 
L -354.212964 281.623728 
L -356.254428 281.736829 
L -358.295891 281.855596 
L -360.337354 281.994775 
L -362.378818 282.121892 
L -364.420281 282.252182 
L -366.461745 282.358204 
L -368.503208 282.493888 
L -370.544672 282.613095 
L -372.586135 282.736726 
L -374.627598 282.840038 
L -376.669062 282.930306 
L -378.710525 283.035094 
L -380.751989 283.154154 
L -382.793452 283.272793 
L -384.834915 283.367349 
L -386.876379 283.452429 
L -388.917842 283.565165 
L -390.959306 283.656906 
L -393.000769 283.768164 
z
" clip-path="url(#p0c46530bef)" style="fill: #008000; fill-opacity: 0.3; stroke: #008000; stroke-opacity: 0.3"/>
   </g>
   <g id="matplotlib.axis_1">
    <g id="xtick_1">
     <g id="line2d_1">
      <defs>
       <path id="mbdb05fcde6" d="M 0 0 
L 0 3.5 
" style="stroke: #000000; stroke-width: 0.8"/>
      </defs>
      <g>
       <use xlink:href="#mbdb05fcde6" x="103.074841" y="395.28" style="stroke: #000000; stroke-width: 0.8"/>
      </g>
     </g>
     <g id="text_1">
      <!-- 2022-03-01 -->
      <g transform="translate(17.945813 495.213718) rotate(-45) scale(0.2 -0.2)">
       <defs>
        <path id="DejaVuSans-32" d="M 1228 531 
L 3431 531 
L 3431 0 
L 469 0 
L 469 531 
Q 828 903 1448 1529 
Q 2069 2156 2228 2338 
Q 2531 2678 2651 2914 
Q 2772 3150 2772 3378 
Q 2772 3750 2511 3984 
Q 2250 4219 1831 4219 
Q 1534 4219 1204 4116 
Q 875 4013 500 3803 
L 500 4441 
Q 881 4594 1212 4672 
Q 1544 4750 1819 4750 
Q 2544 4750 2975 4387 
Q 3406 4025 3406 3419 
Q 3406 3131 3298 2873 
Q 3191 2616 2906 2266 
Q 2828 2175 2409 1742 
Q 1991 1309 1228 531 
z
" transform="scale(0.015625)"/>
        <path id="DejaVuSans-30" d="M 2034 4250 
Q 1547 4250 1301 3770 
Q 1056 3291 1056 2328 
Q 1056 1369 1301 889 
Q 1547 409 2034 409 
Q 2525 409 2770 889 
Q 3016 1369 3016 2328 
Q 3016 3291 2770 3770 
Q 2525 4250 2034 4250 
z
M 2034 4750 
Q 2819 4750 3233 4129 
Q 3647 3509 3647 2328 
Q 3647 1150 3233 529 
Q 2819 -91 2034 -91 
Q 1250 -91 836 529 
Q 422 1150 422 2328 
Q 422 3509 836 4129 
Q 1250 4750 2034 4750 
z
" transform="scale(0.015625)"/>
        <path id="DejaVuSans-2d" d="M 313 2009 
L 1997 2009 
L 1997 1497 
L 313 1497 
L 313 2009 
z
" transform="scale(0.015625)"/>
        <path id="DejaVuSans-33" d="M 2597 2516 
Q 3050 2419 3304 2112 
Q 3559 1806 3559 1356 
Q 3559 666 3084 287 
Q 2609 -91 1734 -91 
Q 1441 -91 1130 -33 
Q 819 25 488 141 
L 488 750 
Q 750 597 1062 519 
Q 1375 441 1716 441 
Q 2309 441 2620 675 
Q 2931 909 2931 1356 
Q 2931 1769 2642 2001 
Q 2353 2234 1838 2234 
L 1294 2234 
L 1294 2753 
L 1863 2753 
Q 2328 2753 2575 2939 
Q 2822 3125 2822 3475 
Q 2822 3834 2567 4026 
Q 2313 4219 1838 4219 
Q 1578 4219 1281 4162 
Q 984 4106 628 3988 
L 628 4550 
Q 988 4650 1302 4700 
Q 1616 4750 1894 4750 
Q 2613 4750 3031 4423 
Q 3450 4097 3450 3541 
Q 3450 3153 3228 2886 
Q 3006 2619 2597 2516 
z
" transform="scale(0.015625)"/>
        <path id="DejaVuSans-31" d="M 794 531 
L 1825 531 
L 1825 4091 
L 703 3866 
L 703 4441 
L 1819 4666 
L 2450 4666 
L 2450 531 
L 3481 531 
L 3481 0 
L 794 0 
L 794 531 
z
" transform="scale(0.015625)"/>
       </defs>
       <use xlink:href="#DejaVuSans-32"/>
       <use xlink:href="#DejaVuSans-30" x="63.623047"/>
       <use xlink:href="#DejaVuSans-32" x="127.246094"/>
       <use xlink:href="#DejaVuSans-32" x="190.869141"/>
       <use xlink:href="#DejaVuSans-2d" x="254.492188"/>
       <use xlink:href="#DejaVuSans-30" x="290.576172"/>
       <use xlink:href="#DejaVuSans-33" x="354.199219"/>
       <use xlink:href="#DejaVuSans-2d" x="417.822266"/>
       <use xlink:href="#DejaVuSans-30" x="453.90625"/>
       <use xlink:href="#DejaVuSans-31" x="517.529297"/>
      </g>
     </g>
    </g>
    <g id="xtick_2">
     <g id="line2d_2">
      <g>
       <use xlink:href="#mbdb05fcde6" x="160.235816" y="395.28" style="stroke: #000000; stroke-width: 0.8"/>
      </g>
     </g>
     <g id="text_2">
      <!-- 2022-03-29 -->
      <g transform="translate(75.106789 495.213718) rotate(-45) scale(0.2 -0.2)">
       <defs>
        <path id="DejaVuSans-39" d="M 703 97 
L 703 672 
Q 941 559 1184 500 
Q 1428 441 1663 441 
Q 2288 441 2617 861 
Q 2947 1281 2994 2138 
Q 2813 1869 2534 1725 
Q 2256 1581 1919 1581 
Q 1219 1581 811 2004 
Q 403 2428 403 3163 
Q 403 3881 828 4315 
Q 1253 4750 1959 4750 
Q 2769 4750 3195 4129 
Q 3622 3509 3622 2328 
Q 3622 1225 3098 567 
Q 2575 -91 1691 -91 
Q 1453 -91 1209 -44 
Q 966 3 703 97 
z
M 1959 2075 
Q 2384 2075 2632 2365 
Q 2881 2656 2881 3163 
Q 2881 3666 2632 3958 
Q 2384 4250 1959 4250 
Q 1534 4250 1286 3958 
Q 1038 3666 1038 3163 
Q 1038 2656 1286 2365 
Q 1534 2075 1959 2075 
z
" transform="scale(0.015625)"/>
       </defs>
       <use xlink:href="#DejaVuSans-32"/>
       <use xlink:href="#DejaVuSans-30" x="63.623047"/>
       <use xlink:href="#DejaVuSans-32" x="127.246094"/>
       <use xlink:href="#DejaVuSans-32" x="190.869141"/>
       <use xlink:href="#DejaVuSans-2d" x="254.492188"/>
       <use xlink:href="#DejaVuSans-30" x="290.576172"/>
       <use xlink:href="#DejaVuSans-33" x="354.199219"/>
       <use xlink:href="#DejaVuSans-2d" x="417.822266"/>
       <use xlink:href="#DejaVuSans-32" x="453.90625"/>
       <use xlink:href="#DejaVuSans-39" x="517.529297"/>
      </g>
     </g>
    </g>
    <g id="xtick_3">
     <g id="line2d_3">
      <g>
       <use xlink:href="#mbdb05fcde6" x="217.396792" y="395.28" style="stroke: #000000; stroke-width: 0.8"/>
      </g>
     </g>
     <g id="text_3">
      <!-- 2022-04-26 -->
      <g transform="translate(132.267765 495.213718) rotate(-45) scale(0.2 -0.2)">
       <defs>
        <path id="DejaVuSans-34" d="M 2419 4116 
L 825 1625 
L 2419 1625 
L 2419 4116 
z
M 2253 4666 
L 3047 4666 
L 3047 1625 
L 3713 1625 
L 3713 1100 
L 3047 1100 
L 3047 0 
L 2419 0 
L 2419 1100 
L 313 1100 
L 313 1709 
L 2253 4666 
z
" transform="scale(0.015625)"/>
        <path id="DejaVuSans-36" d="M 2113 2584 
Q 1688 2584 1439 2293 
Q 1191 2003 1191 1497 
Q 1191 994 1439 701 
Q 1688 409 2113 409 
Q 2538 409 2786 701 
Q 3034 994 3034 1497 
Q 3034 2003 2786 2293 
Q 2538 2584 2113 2584 
z
M 3366 4563 
L 3366 3988 
Q 3128 4100 2886 4159 
Q 2644 4219 2406 4219 
Q 1781 4219 1451 3797 
Q 1122 3375 1075 2522 
Q 1259 2794 1537 2939 
Q 1816 3084 2150 3084 
Q 2853 3084 3261 2657 
Q 3669 2231 3669 1497 
Q 3669 778 3244 343 
Q 2819 -91 2113 -91 
Q 1303 -91 875 529 
Q 447 1150 447 2328 
Q 447 3434 972 4092 
Q 1497 4750 2381 4750 
Q 2619 4750 2861 4703 
Q 3103 4656 3366 4563 
z
" transform="scale(0.015625)"/>
       </defs>
       <use xlink:href="#DejaVuSans-32"/>
       <use xlink:href="#DejaVuSans-30" x="63.623047"/>
       <use xlink:href="#DejaVuSans-32" x="127.246094"/>
       <use xlink:href="#DejaVuSans-32" x="190.869141"/>
       <use xlink:href="#DejaVuSans-2d" x="254.492188"/>
       <use xlink:href="#DejaVuSans-30" x="290.576172"/>
       <use xlink:href="#DejaVuSans-34" x="354.199219"/>
       <use xlink:href="#DejaVuSans-2d" x="417.822266"/>
       <use xlink:href="#DejaVuSans-32" x="453.90625"/>
       <use xlink:href="#DejaVuSans-36" x="517.529297"/>
      </g>
     </g>
    </g>
    <g id="xtick_4">
     <g id="line2d_4">
      <g>
       <use xlink:href="#mbdb05fcde6" x="274.557768" y="395.28" style="stroke: #000000; stroke-width: 0.8"/>
      </g>
     </g>
     <g id="text_4">
      <!-- 2022-05-24 -->
      <g transform="translate(189.42874 495.213718) rotate(-45) scale(0.2 -0.2)">
       <defs>
        <path id="DejaVuSans-35" d="M 691 4666 
L 3169 4666 
L 3169 4134 
L 1269 4134 
L 1269 2991 
Q 1406 3038 1543 3061 
Q 1681 3084 1819 3084 
Q 2600 3084 3056 2656 
Q 3513 2228 3513 1497 
Q 3513 744 3044 326 
Q 2575 -91 1722 -91 
Q 1428 -91 1123 -41 
Q 819 9 494 109 
L 494 744 
Q 775 591 1075 516 
Q 1375 441 1709 441 
Q 2250 441 2565 725 
Q 2881 1009 2881 1497 
Q 2881 1984 2565 2268 
Q 2250 2553 1709 2553 
Q 1456 2553 1204 2497 
Q 953 2441 691 2322 
L 691 4666 
z
" transform="scale(0.015625)"/>
       </defs>
       <use xlink:href="#DejaVuSans-32"/>
       <use xlink:href="#DejaVuSans-30" x="63.623047"/>
       <use xlink:href="#DejaVuSans-32" x="127.246094"/>
       <use xlink:href="#DejaVuSans-32" x="190.869141"/>
       <use xlink:href="#DejaVuSans-2d" x="254.492188"/>
       <use xlink:href="#DejaVuSans-30" x="290.576172"/>
       <use xlink:href="#DejaVuSans-35" x="354.199219"/>
       <use xlink:href="#DejaVuSans-2d" x="417.822266"/>
       <use xlink:href="#DejaVuSans-32" x="453.90625"/>
       <use xlink:href="#DejaVuSans-34" x="517.529297"/>
      </g>
     </g>
    </g>
    <g id="xtick_5">
     <g id="line2d_5">
      <g>
       <use xlink:href="#mbdb05fcde6" x="331.718743" y="395.28" style="stroke: #000000; stroke-width: 0.8"/>
      </g>
     </g>
     <g id="text_5">
      <!-- 2022-06-21 -->
      <g transform="translate(246.589716 495.213718) rotate(-45) scale(0.2 -0.2)">
       <use xlink:href="#DejaVuSans-32"/>
       <use xlink:href="#DejaVuSans-30" x="63.623047"/>
       <use xlink:href="#DejaVuSans-32" x="127.246094"/>
       <use xlink:href="#DejaVuSans-32" x="190.869141"/>
       <use xlink:href="#DejaVuSans-2d" x="254.492188"/>
       <use xlink:href="#DejaVuSans-30" x="290.576172"/>
       <use xlink:href="#DejaVuSans-36" x="354.199219"/>
       <use xlink:href="#DejaVuSans-2d" x="417.822266"/>
       <use xlink:href="#DejaVuSans-32" x="453.90625"/>
       <use xlink:href="#DejaVuSans-31" x="517.529297"/>
      </g>
     </g>
    </g>
    <g id="xtick_6">
     <g id="line2d_6">
      <g>
       <use xlink:href="#mbdb05fcde6" x="388.879719" y="395.28" style="stroke: #000000; stroke-width: 0.8"/>
      </g>
     </g>
     <g id="text_6">
      <!-- 2022-07-19 -->
      <g transform="translate(303.750691 495.213718) rotate(-45) scale(0.2 -0.2)">
       <defs>
        <path id="DejaVuSans-37" d="M 525 4666 
L 3525 4666 
L 3525 4397 
L 1831 0 
L 1172 0 
L 2766 4134 
L 525 4134 
L 525 4666 
z
" transform="scale(0.015625)"/>
       </defs>
       <use xlink:href="#DejaVuSans-32"/>
       <use xlink:href="#DejaVuSans-30" x="63.623047"/>
       <use xlink:href="#DejaVuSans-32" x="127.246094"/>
       <use xlink:href="#DejaVuSans-32" x="190.869141"/>
       <use xlink:href="#DejaVuSans-2d" x="254.492188"/>
       <use xlink:href="#DejaVuSans-30" x="290.576172"/>
       <use xlink:href="#DejaVuSans-37" x="354.199219"/>
       <use xlink:href="#DejaVuSans-2d" x="417.822266"/>
       <use xlink:href="#DejaVuSans-31" x="453.90625"/>
       <use xlink:href="#DejaVuSans-39" x="517.529297"/>
      </g>
     </g>
    </g>
    <g id="xtick_7">
     <g id="line2d_7">
      <g>
       <use xlink:href="#mbdb05fcde6" x="446.040694" y="395.28" style="stroke: #000000; stroke-width: 0.8"/>
      </g>
     </g>
     <g id="text_7">
      <!-- 2022-08-16 -->
      <g transform="translate(360.911667 495.213718) rotate(-45) scale(0.2 -0.2)">
       <defs>
        <path id="DejaVuSans-38" d="M 2034 2216 
Q 1584 2216 1326 1975 
Q 1069 1734 1069 1313 
Q 1069 891 1326 650 
Q 1584 409 2034 409 
Q 2484 409 2743 651 
Q 3003 894 3003 1313 
Q 3003 1734 2745 1975 
Q 2488 2216 2034 2216 
z
M 1403 2484 
Q 997 2584 770 2862 
Q 544 3141 544 3541 
Q 544 4100 942 4425 
Q 1341 4750 2034 4750 
Q 2731 4750 3128 4425 
Q 3525 4100 3525 3541 
Q 3525 3141 3298 2862 
Q 3072 2584 2669 2484 
Q 3125 2378 3379 2068 
Q 3634 1759 3634 1313 
Q 3634 634 3220 271 
Q 2806 -91 2034 -91 
Q 1263 -91 848 271 
Q 434 634 434 1313 
Q 434 1759 690 2068 
Q 947 2378 1403 2484 
z
M 1172 3481 
Q 1172 3119 1398 2916 
Q 1625 2713 2034 2713 
Q 2441 2713 2670 2916 
Q 2900 3119 2900 3481 
Q 2900 3844 2670 4047 
Q 2441 4250 2034 4250 
Q 1625 4250 1398 4047 
Q 1172 3844 1172 3481 
z
" transform="scale(0.015625)"/>
       </defs>
       <use xlink:href="#DejaVuSans-32"/>
       <use xlink:href="#DejaVuSans-30" x="63.623047"/>
       <use xlink:href="#DejaVuSans-32" x="127.246094"/>
       <use xlink:href="#DejaVuSans-32" x="190.869141"/>
       <use xlink:href="#DejaVuSans-2d" x="254.492188"/>
       <use xlink:href="#DejaVuSans-30" x="290.576172"/>
       <use xlink:href="#DejaVuSans-38" x="354.199219"/>
       <use xlink:href="#DejaVuSans-2d" x="417.822266"/>
       <use xlink:href="#DejaVuSans-31" x="453.90625"/>
       <use xlink:href="#DejaVuSans-36" x="517.529297"/>
      </g>
     </g>
    </g>
    <g id="xtick_8">
     <g id="line2d_8">
      <g>
       <use xlink:href="#mbdb05fcde6" x="503.20167" y="395.28" style="stroke: #000000; stroke-width: 0.8"/>
      </g>
     </g>
     <g id="text_8">
      <!-- 2022-09-13 -->
      <g transform="translate(418.072643 495.213718) rotate(-45) scale(0.2 -0.2)">
       <use xlink:href="#DejaVuSans-32"/>
       <use xlink:href="#DejaVuSans-30" x="63.623047"/>
       <use xlink:href="#DejaVuSans-32" x="127.246094"/>
       <use xlink:href="#DejaVuSans-32" x="190.869141"/>
       <use xlink:href="#DejaVuSans-2d" x="254.492188"/>
       <use xlink:href="#DejaVuSans-30" x="290.576172"/>
       <use xlink:href="#DejaVuSans-39" x="354.199219"/>
       <use xlink:href="#DejaVuSans-2d" x="417.822266"/>
       <use xlink:href="#DejaVuSans-31" x="453.90625"/>
       <use xlink:href="#DejaVuSans-33" x="517.529297"/>
      </g>
     </g>
    </g>
    <g id="xtick_9">
     <g id="line2d_9">
      <g>
       <use xlink:href="#mbdb05fcde6" x="560.362646" y="395.28" style="stroke: #000000; stroke-width: 0.8"/>
      </g>
     </g>
     <g id="text_9">
      <!-- 2022-10-11 -->
      <g transform="translate(475.233618 495.213718) rotate(-45) scale(0.2 -0.2)">
       <use xlink:href="#DejaVuSans-32"/>
       <use xlink:href="#DejaVuSans-30" x="63.623047"/>
       <use xlink:href="#DejaVuSans-32" x="127.246094"/>
       <use xlink:href="#DejaVuSans-32" x="190.869141"/>
       <use xlink:href="#DejaVuSans-2d" x="254.492188"/>
       <use xlink:href="#DejaVuSans-31" x="290.576172"/>
       <use xlink:href="#DejaVuSans-30" x="354.199219"/>
       <use xlink:href="#DejaVuSans-2d" x="417.822266"/>
       <use xlink:href="#DejaVuSans-31" x="453.90625"/>
       <use xlink:href="#DejaVuSans-31" x="517.529297"/>
      </g>
     </g>
    </g>
    <g id="xtick_10">
     <g id="line2d_10">
      <g>
       <use xlink:href="#mbdb05fcde6" x="617.523621" y="395.28" style="stroke: #000000; stroke-width: 0.8"/>
      </g>
     </g>
     <g id="text_10">
      <!-- 2022-11-08 -->
      <g transform="translate(532.394594 495.213718) rotate(-45) scale(0.2 -0.2)">
       <use xlink:href="#DejaVuSans-32"/>
       <use xlink:href="#DejaVuSans-30" x="63.623047"/>
       <use xlink:href="#DejaVuSans-32" x="127.246094"/>
       <use xlink:href="#DejaVuSans-32" x="190.869141"/>
       <use xlink:href="#DejaVuSans-2d" x="254.492188"/>
       <use xlink:href="#DejaVuSans-31" x="290.576172"/>
       <use xlink:href="#DejaVuSans-31" x="354.199219"/>
       <use xlink:href="#DejaVuSans-2d" x="417.822266"/>
       <use xlink:href="#DejaVuSans-30" x="453.90625"/>
       <use xlink:href="#DejaVuSans-38" x="517.529297"/>
      </g>
     </g>
    </g>
    <g id="xtick_11">
     <g id="line2d_11">
      <g>
       <use xlink:href="#mbdb05fcde6" x="674.684597" y="395.28" style="stroke: #000000; stroke-width: 0.8"/>
      </g>
     </g>
     <g id="text_11">
      <!-- 2022-12-06 -->
      <g transform="translate(589.555569 495.213718) rotate(-45) scale(0.2 -0.2)">
       <use xlink:href="#DejaVuSans-32"/>
       <use xlink:href="#DejaVuSans-30" x="63.623047"/>
       <use xlink:href="#DejaVuSans-32" x="127.246094"/>
       <use xlink:href="#DejaVuSans-32" x="190.869141"/>
       <use xlink:href="#DejaVuSans-2d" x="254.492188"/>
       <use xlink:href="#DejaVuSans-31" x="290.576172"/>
       <use xlink:href="#DejaVuSans-32" x="354.199219"/>
       <use xlink:href="#DejaVuSans-2d" x="417.822266"/>
       <use xlink:href="#DejaVuSans-30" x="453.90625"/>
       <use xlink:href="#DejaVuSans-36" x="517.529297"/>
      </g>
     </g>
    </g>
    <g id="xtick_12">
     <g id="line2d_12">
      <g>
       <use xlink:href="#mbdb05fcde6" x="731.845572" y="395.28" style="stroke: #000000; stroke-width: 0.8"/>
      </g>
     </g>
     <g id="text_12">
      <!-- 2023-01-03 -->
      <g transform="translate(646.716545 495.213718) rotate(-45) scale(0.2 -0.2)">
       <use xlink:href="#DejaVuSans-32"/>
       <use xlink:href="#DejaVuSans-30" x="63.623047"/>
       <use xlink:href="#DejaVuSans-32" x="127.246094"/>
       <use xlink:href="#DejaVuSans-33" x="190.869141"/>
       <use xlink:href="#DejaVuSans-2d" x="254.492188"/>
       <use xlink:href="#DejaVuSans-30" x="290.576172"/>
       <use xlink:href="#DejaVuSans-31" x="354.199219"/>
       <use xlink:href="#DejaVuSans-2d" x="417.822266"/>
       <use xlink:href="#DejaVuSans-30" x="453.90625"/>
       <use xlink:href="#DejaVuSans-33" x="517.529297"/>
      </g>
     </g>
    </g>
    <g id="xtick_13">
     <g id="line2d_13">
      <g>
       <use xlink:href="#mbdb05fcde6" x="789.006548" y="395.28" style="stroke: #000000; stroke-width: 0.8"/>
      </g>
     </g>
     <g id="text_13">
      <!-- 2023-01-31 -->
      <g transform="translate(703.877521 495.213718) rotate(-45) scale(0.2 -0.2)">
       <use xlink:href="#DejaVuSans-32"/>
       <use xlink:href="#DejaVuSans-30" x="63.623047"/>
       <use xlink:href="#DejaVuSans-32" x="127.246094"/>
       <use xlink:href="#DejaVuSans-33" x="190.869141"/>
       <use xlink:href="#DejaVuSans-2d" x="254.492188"/>
       <use xlink:href="#DejaVuSans-30" x="290.576172"/>
       <use xlink:href="#DejaVuSans-31" x="354.199219"/>
       <use xlink:href="#DejaVuSans-2d" x="417.822266"/>
       <use xlink:href="#DejaVuSans-33" x="453.90625"/>
       <use xlink:href="#DejaVuSans-31" x="517.529297"/>
      </g>
     </g>
    </g>
    <g id="xtick_14">
     <g id="line2d_14">
      <g>
       <use xlink:href="#mbdb05fcde6" x="846.167524" y="395.28" style="stroke: #000000; stroke-width: 0.8"/>
      </g>
     </g>
     <g id="text_14">
      <!-- 2023-02-28 -->
      <g transform="translate(761.038496 495.213718) rotate(-45) scale(0.2 -0.2)">
       <use xlink:href="#DejaVuSans-32"/>
       <use xlink:href="#DejaVuSans-30" x="63.623047"/>
       <use xlink:href="#DejaVuSans-32" x="127.246094"/>
       <use xlink:href="#DejaVuSans-33" x="190.869141"/>
       <use xlink:href="#DejaVuSans-2d" x="254.492188"/>
       <use xlink:href="#DejaVuSans-30" x="290.576172"/>
       <use xlink:href="#DejaVuSans-32" x="354.199219"/>
       <use xlink:href="#DejaVuSans-2d" x="417.822266"/>
       <use xlink:href="#DejaVuSans-32" x="453.90625"/>
       <use xlink:href="#DejaVuSans-38" x="517.529297"/>
      </g>
     </g>
    </g>
    <g id="xtick_15">
     <g id="line2d_15">
      <g>
       <use xlink:href="#mbdb05fcde6" x="903.328499" y="395.28" style="stroke: #000000; stroke-width: 0.8"/>
      </g>
     </g>
     <g id="text_15">
      <!-- 2023-03-28 -->
      <g transform="translate(818.199472 495.213718) rotate(-45) scale(0.2 -0.2)">
       <use xlink:href="#DejaVuSans-32"/>
       <use xlink:href="#DejaVuSans-30" x="63.623047"/>
       <use xlink:href="#DejaVuSans-32" x="127.246094"/>
       <use xlink:href="#DejaVuSans-33" x="190.869141"/>
       <use xlink:href="#DejaVuSans-2d" x="254.492188"/>
       <use xlink:href="#DejaVuSans-30" x="290.576172"/>
       <use xlink:href="#DejaVuSans-33" x="354.199219"/>
       <use xlink:href="#DejaVuSans-2d" x="417.822266"/>
       <use xlink:href="#DejaVuSans-32" x="453.90625"/>
       <use xlink:href="#DejaVuSans-38" x="517.529297"/>
      </g>
     </g>
    </g>
    <g id="xtick_16">
     <g id="line2d_16">
      <g>
       <use xlink:href="#mbdb05fcde6" x="940.074841" y="395.28" style="stroke: #000000; stroke-width: 0.8"/>
      </g>
     </g>
     <g id="text_16">
      <!-- 2023-04-15 -->
      <g transform="translate(854.945813 495.213718) rotate(-45) scale(0.2 -0.2)">
       <use xlink:href="#DejaVuSans-32"/>
       <use xlink:href="#DejaVuSans-30" x="63.623047"/>
       <use xlink:href="#DejaVuSans-32" x="127.246094"/>
       <use xlink:href="#DejaVuSans-33" x="190.869141"/>
       <use xlink:href="#DejaVuSans-2d" x="254.492188"/>
       <use xlink:href="#DejaVuSans-30" x="290.576172"/>
       <use xlink:href="#DejaVuSans-34" x="354.199219"/>
       <use xlink:href="#DejaVuSans-2d" x="417.822266"/>
       <use xlink:href="#DejaVuSans-31" x="453.90625"/>
       <use xlink:href="#DejaVuSans-35" x="517.529297"/>
      </g>
     </g>
    </g>
   </g>
   <g id="matplotlib.axis_2">
    <g id="ytick_1">
     <g id="line2d_17">
      <defs>
       <path id="mf378037f97" d="M 0 0 
L -3.5 0 
" style="stroke: #000000; stroke-width: 0.8"/>
      </defs>
      <g>
       <use xlink:href="#mf378037f97" x="103.074841" y="363.512277" style="stroke: #000000; stroke-width: 0.8"/>
      </g>
     </g>
     <g id="text_17">
      <!-- 0.05 -->
      <g transform="translate(34.784216 371.110715) scale(0.2 -0.2)">
       <defs>
        <path id="DejaVuSans-2212" d="M 678 2272 
L 4684 2272 
L 4684 1741 
L 678 1741 
L 678 2272 
z
" transform="scale(0.015625)"/>
        <path id="DejaVuSans-2e" d="M 684 794 
L 1344 794 
L 1344 0 
L 684 0 
L 684 794 
z
" transform="scale(0.015625)"/>
       </defs>
       <use xlink:href="#DejaVuSans-2212"/>
       <use xlink:href="#DejaVuSans-30" x="83.789062"/>
       <use xlink:href="#DejaVuSans-2e" x="147.412109"/>
       <use xlink:href="#DejaVuSans-30" x="179.199219"/>
       <use xlink:href="#DejaVuSans-35" x="242.822266"/>
      </g>
     </g>
    </g>
    <g id="ytick_2">
     <g id="line2d_18">
      <g>
       <use xlink:href="#mf378037f97" x="103.074841" y="283.87543" style="stroke: #000000; stroke-width: 0.8"/>
      </g>
     </g>
     <g id="text_18">
      <!-- 0.00 -->
      <g transform="translate(51.543591 291.473868) scale(0.2 -0.2)">
       <use xlink:href="#DejaVuSans-30"/>
       <use xlink:href="#DejaVuSans-2e" x="63.623047"/>
       <use xlink:href="#DejaVuSans-30" x="95.410156"/>
       <use xlink:href="#DejaVuSans-30" x="159.033203"/>
      </g>
     </g>
    </g>
    <g id="ytick_3">
     <g id="line2d_19">
      <g>
       <use xlink:href="#mf378037f97" x="103.074841" y="204.238584" style="stroke: #000000; stroke-width: 0.8"/>
      </g>
     </g>
     <g id="text_19">
      <!-- 0.05 -->
      <g transform="translate(51.543591 211.837021) scale(0.2 -0.2)">
       <use xlink:href="#DejaVuSans-30"/>
       <use xlink:href="#DejaVuSans-2e" x="63.623047"/>
       <use xlink:href="#DejaVuSans-30" x="95.410156"/>
       <use xlink:href="#DejaVuSans-35" x="159.033203"/>
      </g>
     </g>
    </g>
    <g id="ytick_4">
     <g id="line2d_20">
      <g>
       <use xlink:href="#mf378037f97" x="103.074841" y="124.601737" style="stroke: #000000; stroke-width: 0.8"/>
      </g>
     </g>
     <g id="text_20">
      <!-- 0.10 -->
      <g transform="translate(51.543591 132.200175) scale(0.2 -0.2)">
       <use xlink:href="#DejaVuSans-30"/>
       <use xlink:href="#DejaVuSans-2e" x="63.623047"/>
       <use xlink:href="#DejaVuSans-31" x="95.410156"/>
       <use xlink:href="#DejaVuSans-30" x="159.033203"/>
      </g>
     </g>
    </g>
    <g id="ytick_5">
     <g id="line2d_21">
      <g>
       <use xlink:href="#mf378037f97" x="103.074841" y="44.964891" style="stroke: #000000; stroke-width: 0.8"/>
      </g>
     </g>
     <g id="text_21">
      <!-- 0.15 -->
      <g transform="translate(51.543591 52.563328) scale(0.2 -0.2)">
       <use xlink:href="#DejaVuSans-30"/>
       <use xlink:href="#DejaVuSans-2e" x="63.623047"/>
       <use xlink:href="#DejaVuSans-31" x="95.410156"/>
       <use xlink:href="#DejaVuSans-35" x="159.033203"/>
      </g>
     </g>
    </g>
   </g>
   <g id="line2d_22">
    <path d="M 940.074841 283.87543 
" clip-path="url(#p0c46530bef)" style="fill: none; stroke: #ffa500; stroke-width: 1.5; stroke-linecap: square"/>
   </g>
   <g id="line2d_23">
    <path d="M 103.074841 283.87543 
L 948.274841 283.87543 
" clip-path="url(#p0c46530bef)" style="fill: none; stroke-dasharray: 7.4,3.2; stroke-dashoffset: 0; stroke: #000000; stroke-width: 2"/>
   </g>
   <g id="patch_3">
    <path d="M 103.074841 395.28 
L 103.074841 7.2 
" style="fill: none; stroke: #000000; stroke-width: 0.8; stroke-linejoin: miter; stroke-linecap: square"/>
   </g>
   <g id="patch_4">
    <path d="M 940.074841 395.28 
L 940.074841 7.2 
" style="fill: none; stroke: #000000; stroke-width: 0.8; stroke-linejoin: miter; stroke-linecap: square"/>
   </g>
   <g id="patch_5">
    <path d="M 103.074841 395.28 
L 940.074841 395.28 
" style="fill: none; stroke: #000000; stroke-width: 0.8; stroke-linejoin: miter; stroke-linecap: square"/>
   </g>
   <g id="patch_6">
    <path d="M 103.074841 7.2 
L 940.074841 7.2 
" style="fill: none; stroke: #000000; stroke-width: 0.8; stroke-linejoin: miter; stroke-linecap: square"/>
   </g>
  </g>
 </g>
 <defs>
  <clipPath id="p0c46530bef">
   <rect x="103.074841" y="7.2" width="837" height="388.08"/>
  </clipPath>
 </defs>
</svg>
