<?xml version="1.0" encoding="utf-8" standalone="no"?>
<!DOCTYPE svg PUBLIC "-//W3C//DTD SVG 1.1//EN"
  "http://www.w3.org/Graphics/SVG/1.1/DTD/svg11.dtd">
<svg xmlns:xlink="http://www.w3.org/1999/xlink" width="947.274841pt" height="505.354841pt" viewBox="0 0 947.274841 505.354841" xmlns="http://www.w3.org/2000/svg" version="1.1">
 <metadata>
  <rdf:RDF xmlns:dc="http://purl.org/dc/elements/1.1/" xmlns:cc="http://creativecommons.org/ns#" xmlns:rdf="http://www.w3.org/1999/02/22-rdf-syntax-ns#">
   <cc:Work>
    <dc:type rdf:resource="http://purl.org/dc/dcmitype/StillImage"/>
    <dc:date>2023-11-12T22:44:04.317854</dc:date>
    <dc:format>image/svg+xml</dc:format>
    <dc:creator>
     <cc:Agent>
      <dc:title>Matplotlib v3.7.2, https://matplotlib.org/</dc:title>
     </cc:Agent>
    </dc:creator>
   </cc:Work>
  </rdf:RDF>
 </metadata>
 <defs>
  <style type="text/css">*{stroke-linejoin: round; stroke-linecap: butt}</style>
 </defs>
 <g id="figure_1">
  <g id="patch_1">
   <path d="M 0 505.354841 
L 947.274841 505.354841 
L 947.274841 -0 
L 0 -0 
z
" style="fill: #ffffff"/>
  </g>
  <g id="axes_1">
   <g id="patch_2">
    <path d="M 103.074841 395.28 
L 940.074841 395.28 
L 940.074841 7.2 
L 103.074841 7.2 
z
" style="fill: #ffffff"/>
   </g>
   <g id="PolyCollection_1">
    <path d="M -4315.31939 242.280226 
L -4315.31939 242.281476 
L -4307.271313 242.269569 
L -4299.223236 242.26244 
L -4291.175159 242.253268 
L -4283.127082 242.249571 
L -4275.079005 242.243814 
L -4267.030929 242.235972 
L -4258.982852 242.228384 
L -4250.934775 242.221792 
L -4242.886698 242.217431 
L -4234.838621 242.210741 
L -4226.790544 242.203605 
L -4218.742467 242.19723 
L -4210.69439 242.1872 
L -4202.646313 242.180448 
L -4194.598236 242.171093 
L -4186.550159 242.164506 
L -4178.502082 242.152539 
L -4170.454005 242.144459 
L -4162.405929 242.137235 
L -4154.357852 242.127244 
L -4146.309775 242.11804 
L -4138.261698 242.109531 
L -4130.213621 242.097467 
L -4122.165544 242.088639 
L -4114.117467 242.076826 
L -4106.06939 242.065178 
L -4098.021313 242.051547 
L -4089.973236 242.037776 
L -4081.925159 242.025216 
L -4073.877082 242.009218 
L -4065.829005 241.989878 
L -4057.780929 241.975181 
L -4049.732852 241.957251 
L -4041.684775 241.935329 
L -4033.636698 241.917224 
L -4025.588621 241.893761 
L -4017.540544 241.870703 
L -4009.492467 241.84744 
L -4001.44439 241.822982 
L -3993.396313 241.79472 
L -3985.348236 241.764359 
L -3977.300159 241.731942 
L -3969.252082 241.703059 
L -3961.204005 241.665672 
L -3953.155929 241.632977 
L -3945.107852 241.597517 
L -3937.059775 241.563232 
L -3929.011698 241.525044 
L -3920.963621 241.482033 
L -3912.915544 241.446206 
L -3904.867467 241.40311 
L -3896.81939 241.358226 
L -3888.771313 241.316058 
L -3880.723236 241.27578 
L -3872.675159 241.229464 
L -3864.627082 241.18307 
L -3856.579005 241.137689 
L -3848.530929 241.089358 
L -3840.482852 241.040726 
L -3832.434775 240.993154 
L -3824.386698 240.943117 
L -3816.338621 240.893543 
L -3808.290544 240.846217 
L -3800.242467 240.795642 
L -3792.19439 240.738405 
L -3784.146313 240.684954 
L -3776.098236 240.632073 
L -3768.050159 240.581023 
L -3760.002082 240.525893 
L -3751.954005 240.473227 
L -3743.905929 240.418672 
L -3735.857852 240.374098 
L -3727.809775 240.312436 
L -3719.761698 240.265288 
L -3711.713621 240.208537 
L -3703.665544 240.156448 
L -3695.617467 240.098975 
L -3687.56939 240.051598 
L -3679.521313 239.990183 
L -3671.473236 239.934761 
L -3663.425159 239.884517 
L -3655.377082 239.828534 
L -3647.329005 239.777619 
L -3639.280929 239.721981 
L -3631.232852 239.664471 
L -3623.184775 239.61169 
L -3615.136698 239.561812 
L -3607.088621 239.504489 
L -3599.040544 239.450808 
L -3590.992467 239.394715 
L -3582.94439 239.342121 
L -3574.896313 239.291669 
L -3566.848236 239.238379 
L -3558.800159 239.183852 
L -3550.752082 239.13874 
L -3542.704005 239.083955 
L -3534.655929 239.032937 
L -3526.607852 238.983072 
L -3518.559775 238.932686 
L -3510.511698 238.882132 
L -3502.463621 238.830024 
L -3494.415544 238.781962 
L -3486.367467 238.730018 
L -3478.31939 238.675545 
L -3470.271313 238.619865 
L -3462.223236 238.563084 
L -3454.175159 238.512558 
L -3446.127082 238.452972 
L -3438.079005 238.38692 
L -3430.030929 238.327705 
L -3421.982852 238.263368 
L -3413.934775 238.197822 
L -3405.886698 238.126763 
L -3397.838621 238.054212 
L -3389.790544 237.990459 
L -3381.742467 237.912203 
L -3373.69439 237.840671 
L -3365.646313 237.760922 
L -3357.598236 237.692064 
L -3349.550159 237.603664 
L -3341.502082 237.518647 
L -3333.454005 237.438082 
L -3325.405929 237.355967 
L -3317.357852 237.270531 
L -3309.309775 237.179766 
L -3301.261698 237.09863 
L -3293.213621 236.99903 
L -3285.165544 236.918492 
L -3277.117467 236.816071 
L -3269.06939 236.719303 
L -3261.021313 236.626926 
L -3252.973236 236.541631 
L -3244.925159 236.433483 
L -3236.877082 236.342203 
L -3228.829005 236.211512 
L -3220.780929 236.108385 
L -3212.732852 236.017558 
L -3204.684775 235.908414 
L -3196.636698 235.796323 
L -3188.588621 235.659229 
L -3180.540544 235.536594 
L -3172.492467 235.447206 
L -3164.44439 235.268065 
L -3156.396313 235.140434 
L -3148.348236 235.010968 
L -3140.300159 234.876541 
L -3132.252082 234.71563 
L -3124.204005 234.572379 
L -3116.155929 234.487731 
L -3108.107852 234.359392 
L -3100.059775 234.094945 
L -3092.011698 233.89126 
L -3083.963621 233.769648 
L -3075.915544 233.566395 
L -3067.867467 233.419086 
L -3059.81939 233.307958 
L -3051.771313 233.085734 
L -3043.723236 232.820455 
L -3035.675159 232.678556 
L -3027.627082 232.632823 
L -3019.579005 232.437208 
L -3011.530929 232.419136 
L -3003.482852 232.316104 
L -2995.434775 232.097077 
L -2987.386698 232.164233 
L -2979.338621 232.351605 
L -2971.290544 232.682148 
L -2963.242467 232.454531 
L -2955.19439 233.106404 
L -2947.146313 233.319249 
L -2939.098236 232.57823 
L -2931.050159 232.863037 
L -2923.002082 233.27516 
L -2914.954005 233.116014 
L -2906.905929 233.121447 
L -2898.857852 234.683933 
L -2890.809775 236.88256 
L -2882.761698 238.000104 
L -2874.713621 235.689083 
L -2866.665544 236.944378 
L -2858.617467 238.541539 
L -2850.56939 238.479328 
L -2842.521313 241.703149 
L -2834.473236 241.259486 
L -2826.425159 240.303556 
L -2818.377082 237.860636 
L -2810.329005 240.170544 
L -2802.280929 241.542936 
L -2794.232852 240.932709 
L -2786.184775 241.309867 
L -2778.136698 242.57093 
L -2770.088621 242.376883 
L -2762.040544 241.288219 
L -2753.992467 242.643622 
L -2745.94439 242.94806 
L -2737.896313 242.412664 
L -2729.848236 243.330446 
L -2721.800159 243.637962 
L -2713.752082 243.559309 
L -2705.704005 243.255588 
L -2697.655929 243.533332 
L -2689.607852 243.209512 
L -2681.559775 243.222236 
L -2673.511698 243.503639 
L -2665.463621 243.253174 
L -2657.415544 243.384627 
L -2649.367467 243.403636 
L -2641.31939 243.149451 
L -2633.271313 243.2449 
L -2625.223236 242.855091 
L -2617.175159 242.93649 
L -2609.127082 243.040357 
L -2601.079005 243.061924 
L -2593.030929 242.89124 
L -2584.982852 242.737756 
L -2576.934775 242.723252 
L -2568.886698 242.588328 
L -2560.838621 242.584719 
L -2552.790544 242.573355 
L -2544.742467 242.347423 
L -2536.69439 242.500444 
L -2528.646313 242.354215 
L -2520.598236 242.278453 
L -2512.550159 242.346924 
L -2504.502082 242.209864 
L -2496.454005 242.196881 
L -2488.405929 242.282992 
L -2480.357852 242.401132 
L -2472.309775 242.158319 
L -2464.261698 242.059771 
L -2456.213621 242.093854 
L -2448.165544 242.566704 
L -2440.117467 242.60274 
L -2432.06939 242.800276 
L -2424.021313 242.384092 
L -2415.973236 242.153473 
L -2407.925159 242.249356 
L -2399.877082 242.556142 
L -2391.829005 242.618349 
L -2383.780929 242.145884 
L -2375.732852 242.576674 
L -2367.684775 242.406682 
L -2359.636698 242.388185 
L -2351.588621 242.146813 
L -2343.540544 242.335766 
L -2335.492467 242.251406 
L -2327.44439 242.377715 
L -2319.396313 242.206289 
L -2311.348236 242.091667 
L -2303.300159 241.882271 
L -2295.252082 241.795134 
L -2287.204005 241.714802 
L -2279.155929 241.569379 
L -2271.107852 241.552228 
L -2263.059775 241.412433 
L -2255.011698 241.261973 
L -2246.963621 240.957811 
L -2238.915544 240.698085 
L -2230.867467 240.570409 
L -2222.81939 240.298615 
L -2214.771313 240.258593 
L -2206.723236 240.04144 
L -2198.675159 239.701102 
L -2190.627082 239.431378 
L -2182.579005 239.210944 
L -2174.530929 238.864026 
L -2166.482852 238.654472 
L -2158.434775 238.353836 
L -2150.386698 238.087982 
L -2142.338621 237.756169 
L -2134.290544 237.429182 
L -2126.242467 237.118449 
L -2118.19439 236.803452 
L -2110.146313 236.50915 
L -2102.098236 236.106686 
L -2094.050159 235.742121 
L -2086.002082 235.382564 
L -2077.954005 235.131054 
L -2069.905929 234.735954 
L -2061.857852 234.404367 
L -2053.809775 234.030718 
L -2045.761698 233.487101 
L -2037.713621 233.248304 
L -2029.665544 232.803765 
L -2021.617467 232.459212 
L -2013.56939 232.054792 
L -2005.521313 231.599301 
L -1997.473236 231.186977 
L -1989.425159 230.772049 
L -1981.377082 230.238527 
L -1973.329005 229.882476 
L -1965.280929 229.3638 
L -1957.232852 229.033823 
L -1949.184775 228.497181 
L -1941.136698 227.970812 
L -1933.088621 227.52105 
L -1925.040544 227.151768 
L -1916.992467 226.543458 
L -1908.94439 226.123591 
L -1900.896313 225.589085 
L -1892.848236 225.158864 
L -1884.800159 224.594057 
L -1876.752082 224.08556 
L -1868.704005 224.045689 
L -1860.655929 223.05359 
L -1852.607852 222.906054 
L -1844.559775 222.335711 
L -1836.511698 221.921299 
L -1828.463621 221.432852 
L -1820.415544 220.927101 
L -1812.367467 220.44576 
L -1804.31939 220.010552 
L -1796.271313 219.605344 
L -1788.223236 219.175453 
L -1780.175159 219.499019 
L -1772.127082 218.237784 
L -1764.079005 217.978088 
L -1756.030929 218.870061 
L -1747.982852 217.456624 
L -1739.934775 217.648306 
L -1731.886698 217.480297 
L -1723.838621 216.688999 
L -1715.790544 216.816865 
L -1707.742467 217.438947 
L -1699.69439 216.861338 
L -1691.646313 216.605993 
L -1683.598236 217.034083 
L -1675.550159 216.85341 
L -1667.502082 217.101549 
L -1659.454005 217.513829 
L -1651.405929 218.069214 
L -1643.357852 219.722762 
L -1635.309775 219.232681 
L -1627.261698 220.055326 
L -1619.213621 220.673961 
L -1611.165544 221.011758 
L -1603.117467 221.840869 
L -1595.06939 222.283647 
L -1587.021313 221.090052 
L -1578.973236 222.009131 
L -1570.925159 223.363107 
L -1562.877082 223.941603 
L -1554.829005 223.972957 
L -1546.780929 225.669194 
L -1538.732852 225.639417 
L -1530.684775 225.855258 
L -1522.636698 225.693814 
L -1514.588621 227.010332 
L -1506.540544 226.324867 
L -1498.492467 225.939413 
L -1490.44439 226.891112 
L -1482.396313 227.859096 
L -1474.348236 227.388024 
L -1466.300159 227.735798 
L -1458.252082 227.737485 
L -1450.204005 227.552725 
L -1442.155929 227.20443 
L -1434.107852 227.279652 
L -1426.059775 227.202731 
L -1418.011698 228.052818 
L -1409.963621 227.172588 
L -1401.915544 227.875693 
L -1393.867467 227.436548 
L -1385.81939 227.004731 
L -1377.771313 227.333673 
L -1369.723236 227.676355 
L -1361.675159 227.013228 
L -1353.627082 227.186313 
L -1345.579005 227.09912 
L -1337.530929 227.659436 
L -1329.482852 227.217828 
L -1321.434775 226.951038 
L -1313.386698 227.027254 
L -1305.338621 227.230489 
L -1297.290544 226.949731 
L -1289.242467 226.504236 
L -1281.19439 226.55521 
L -1273.146313 225.936535 
L -1265.098236 225.853129 
L -1257.050159 226.514525 
L -1249.002082 226.322948 
L -1240.954005 225.720919 
L -1232.905929 225.457489 
L -1224.857852 225.354982 
L -1216.809775 224.708192 
L -1208.761698 224.666404 
L -1200.713621 224.501041 
L -1192.665544 224.231391 
L -1184.617467 223.931222 
L -1176.56939 223.459466 
L -1168.521313 223.469129 
L -1160.473236 223.09501 
L -1152.425159 222.879569 
L -1144.377082 222.599993 
L -1136.329005 222.444451 
L -1128.280929 222.044273 
L -1120.232852 221.456741 
L -1112.184775 221.274987 
L -1104.136698 220.771157 
L -1096.088621 220.11945 
L -1088.040544 220.331894 
L -1079.992467 219.506674 
L -1071.94439 219.645997 
L -1063.896313 219.376992 
L -1055.848236 219.288569 
L -1047.800159 218.720145 
L -1039.752082 218.560505 
L -1031.704005 218.372676 
L -1023.655929 217.710278 
L -1015.607852 217.730579 
L -1007.559775 217.571345 
L -999.511698 217.441012 
L -991.463621 217.078371 
L -983.415544 217.098972 
L -975.367467 216.734763 
L -967.31939 216.387794 
L -959.271313 215.897215 
L -951.223236 215.68311 
L -943.175159 215.515468 
L -935.127082 215.156038 
L -927.079005 215.120847 
L -919.030929 214.909593 
L -910.982852 214.58871 
L -902.934775 214.528727 
L -894.886698 214.179198 
L -886.838621 214.349339 
L -878.790544 214.089232 
L -870.742467 214.037263 
L -862.69439 213.625463 
L -854.646313 213.087321 
L -846.598236 213.439097 
L -838.550159 213.37073 
L -830.502082 213.160822 
L -822.454005 212.94734 
L -814.405929 212.562843 
L -806.357852 212.439058 
L -798.309775 212.208888 
L -790.261698 212.191919 
L -782.213621 212.078962 
L -774.165544 211.717431 
L -766.117467 211.223456 
L -758.06939 211.771333 
L -750.021313 211.590701 
L -741.973236 211.166192 
L -733.925159 211.371297 
L -725.877082 210.64434 
L -717.829005 210.690423 
L -709.780929 210.696046 
L -701.732852 210.190861 
L -693.684775 210.946143 
L -685.636698 210.108324 
L -677.588621 209.66273 
L -669.540544 210.141352 
L -661.492467 210.238611 
L -653.44439 209.940113 
L -645.396313 210.09587 
L -637.348236 209.681727 
L -629.300159 210.343642 
L -621.252082 209.928267 
L -613.204005 210.020444 
L -605.155929 209.477644 
L -597.107852 208.984172 
L -589.059775 209.479875 
L -581.011698 210.414377 
L -572.963621 209.217342 
L -564.915544 209.216968 
L -556.867467 208.729432 
L -548.81939 208.866502 
L -540.771313 208.745948 
L -532.723236 208.42028 
L -524.675159 208.261453 
L -516.627082 208.687125 
L -508.579005 208.376315 
L -500.530929 208.763588 
L -492.482852 208.792363 
L -484.434775 207.450589 
L -476.386698 207.936368 
L -468.338621 207.937157 
L -460.290544 207.986894 
L -452.242467 208.029649 
L -444.19439 208.822721 
L -436.146313 209.121167 
L -428.098236 209.05495 
L -420.050159 209.939705 
L -412.002082 211.423973 
L -403.954005 209.600735 
L -395.905929 209.558572 
L -387.857852 209.577982 
L -379.809775 210.159172 
L -371.761698 210.279626 
L -363.713621 210.259607 
L -355.665544 211.543749 
L -347.617467 212.005512 
L -339.56939 210.507809 
L -331.521313 211.828028 
L -323.473236 211.147459 
L -315.425159 210.715761 
L -307.377082 212.321739 
L -299.329005 211.972957 
L -291.280929 212.998456 
L -283.232852 212.649658 
L -275.184775 211.909172 
L -267.136698 212.537077 
L -259.088621 212.505164 
L -251.040544 213.118881 
L -242.992467 212.676262 
L -234.94439 213.707449 
L -226.896313 212.901132 
L -218.848236 213.426501 
L -210.800159 213.271147 
L -202.752082 213.85219 
L -194.704005 212.809601 
L -186.655929 213.842001 
L -178.607852 213.740831 
L -170.559775 214.432588 
L -162.511698 214.776878 
L -154.463621 214.735976 
L -146.415544 214.504836 
L -138.367467 214.933673 
L -130.31939 215.242114 
L -122.271313 214.883452 
L -114.223236 214.722381 
L -106.175159 215.093751 
L -98.127082 215.427211 
L -90.079005 214.731367 
L -82.030929 214.314114 
L -73.982852 215.768198 
L -65.934775 216.406031 
L -57.886698 214.83518 
L -49.838621 215.246025 
L -41.790544 215.432566 
L -33.742467 215.503034 
L -25.69439 216.232531 
L -17.646313 216.097338 
L -9.598236 215.749558 
L -1.550159 216.050786 
L 6.497918 216.107295 
L 14.545995 215.25097 
L 22.594071 215.639109 
L 30.642148 215.354646 
L 38.690225 216.471863 
L 46.738302 217.854388 
L 54.786379 217.629861 
L 62.834456 216.493088 
L 70.882533 216.354463 
L 78.93061 216.489981 
L 86.978687 216.527487 
L 95.026764 217.558003 
L 103.074841 216.213959 
L 111.122918 217.59886 
L 119.170995 218.711323 
L 127.219071 217.763308 
L 135.267148 219.199411 
L 143.315225 218.287136 
L 151.363302 219.067824 
L 159.411379 218.540861 
L 167.459456 218.924437 
L 175.507533 219.69362 
L 183.55561 219.635467 
L 191.603687 219.869091 
L 199.651764 219.927553 
L 207.699841 220.004505 
L 215.747918 218.109291 
L 223.795995 220.541737 
L 231.844071 221.540778 
L 239.892148 220.565753 
L 247.940225 221.448125 
L 255.988302 221.636275 
L 264.036379 221.125207 
L 272.084456 222.123127 
L 280.132533 222.790501 
L 288.18061 222.394818 
L 296.228687 222.655161 
L 304.276764 222.801662 
L 312.324841 223.041374 
L 320.372918 223.800525 
L 328.420995 222.252841 
L 336.469071 224.179689 
L 344.517148 224.224218 
L 352.565225 224.306524 
L 360.613302 223.110662 
L 368.661379 224.566715 
L 376.709456 225.530504 
L 384.757533 224.535395 
L 392.80561 224.636425 
L 400.853687 225.979029 
L 408.901764 223.603969 
L 416.949841 225.79746 
L 424.997918 224.402558 
L 433.045995 226.314512 
L 441.094071 225.384635 
L 449.142148 226.200156 
L 457.190225 226.438161 
L 465.238302 226.778848 
L 473.286379 226.864183 
L 481.334456 226.32167 
L 489.382533 226.311643 
L 497.43061 226.54607 
L 505.478687 227.402863 
L 513.526764 227.265128 
L 521.574841 227.209906 
L 529.622918 227.72192 
L 537.670995 227.733009 
L 545.719071 227.275685 
L 553.767148 227.325785 
L 561.815225 228.120309 
L 569.863302 228.21664 
L 577.911379 228.394718 
L 585.959456 227.714198 
L 594.007533 226.713854 
L 602.05561 227.780115 
L 610.103687 227.429077 
L 618.151764 227.702621 
L 626.199841 228.150711 
L 634.247918 227.533549 
L 642.295995 228.280473 
L 650.344071 227.706922 
L 658.392148 227.604303 
L 666.440225 227.540648 
L 674.488302 228.191222 
L 682.536379 227.990093 
L 690.584456 227.899228 
L 698.632533 227.376526 
L 706.68061 227.609046 
L 714.728687 227.691501 
L 722.776764 227.520712 
L 730.824841 227.934466 
L 738.872918 227.799804 
L 746.920995 228.022501 
L 754.969071 228.27305 
L 763.017148 228.217843 
L 771.065225 227.912982 
L 779.113302 227.957159 
L 787.161379 227.758112 
L 795.209456 227.94539 
L 803.257533 227.962471 
L 811.30561 227.621415 
L 819.353687 227.948148 
L 827.401764 226.387072 
L 835.449841 227.896322 
L 843.497918 228.443641 
L 851.545995 227.800352 
L 859.594071 227.775952 
L 867.642148 228.32494 
L 875.690225 228.322721 
L 883.738302 227.760803 
L 891.786379 227.703465 
L 899.834456 228.046651 
L 907.882533 227.903867 
L 915.93061 228.578365 
L 923.978687 228.32677 
L 932.026764 228.855699 
L 940.074841 228.237902 
L 940.074841 216.43455 
L 940.074841 216.43455 
L 932.026764 215.840717 
L 923.978687 215.09645 
L 915.93061 215.932123 
L 907.882533 214.394882 
L 899.834456 214.844218 
L 891.786379 214.645456 
L 883.738302 213.047008 
L 875.690225 215.162522 
L 867.642148 216.309254 
L 859.594071 213.2589 
L 851.545995 214.622985 
L 843.497918 215.93658 
L 835.449841 215.130496 
L 827.401764 205.072845 
L 819.353687 214.895792 
L 811.30561 213.108329 
L 803.257533 215.125027 
L 795.209456 215.0403 
L 787.161379 214.352535 
L 779.113302 214.503392 
L 771.065225 214.387904 
L 763.017148 215.610346 
L 754.969071 215.746432 
L 746.920995 214.380775 
L 738.872918 213.518342 
L 730.824841 214.463851 
L 722.776764 213.185901 
L 714.728687 213.868224 
L 706.68061 213.180203 
L 698.632533 212.272615 
L 690.584456 213.868901 
L 682.536379 214.173235 
L 674.488302 214.3245 
L 666.440225 212.791848 
L 658.392148 212.578504 
L 650.344071 212.659565 
L 642.295995 214.762901 
L 634.247918 212.224899 
L 626.199841 214.200706 
L 618.151764 212.791163 
L 610.103687 211.769952 
L 602.05561 212.908197 
L 594.007533 208.785612 
L 585.959456 212.766871 
L 577.911379 214.513289 
L 569.863302 213.902765 
L 561.815225 213.702447 
L 553.767148 210.45485 
L 545.719071 210.721247 
L 537.670995 212.112893 
L 529.622918 212.20585 
L 521.574841 210.49608 
L 513.526764 210.780605 
L 505.478687 210.796292 
L 497.43061 209.132062 
L 489.382533 207.72495 
L 481.334456 207.557097 
L 473.286379 209.139354 
L 465.238302 208.915708 
L 457.190225 208.278911 
L 449.142148 207.618417 
L 441.094071 205.063085 
L 433.045995 207.967273 
L 424.997918 201.097231 
L 416.949841 206.020884 
L 408.901764 199.487172 
L 400.853687 206.897028 
L 392.80561 203.051146 
L 384.757533 203.13037 
L 376.709456 205.343683 
L 368.661379 203.058014 
L 360.613302 198.765159 
L 352.565225 202.145747 
L 344.517148 202.217243 
L 336.469071 202.222147 
L 328.420995 197.192778 
L 320.372918 199.883322 
L 312.324841 199.397435 
L 304.276764 199.166914 
L 296.228687 198.727087 
L 288.18061 197.775827 
L 280.132533 198.958169 
L 272.084456 197.184335 
L 264.036379 194.935924 
L 255.988302 197.019489 
L 247.940225 195.585775 
L 239.892148 194.316397 
L 231.844071 196.692988 
L 223.795995 194.35017 
L 215.747918 188.155265 
L 207.699841 192.877692 
L 199.651764 192.808033 
L 191.603687 192.929901 
L 183.55561 192.479134 
L 175.507533 192.615134 
L 167.459456 191.009588 
L 159.411379 190.412385 
L 151.363302 191.847094 
L 143.315225 189.467166 
L 135.267148 192.128228 
L 127.219071 188.785424 
L 119.170995 190.887561 
L 111.122918 188.705456 
L 103.074841 185.97746 
L 95.026764 188.71554 
L 86.978687 186.344282 
L 78.93061 186.641132 
L 70.882533 186.659277 
L 62.834456 187.030445 
L 54.786379 189.515777 
L 46.738302 190.208899 
L 38.690225 187.521519 
L 30.642148 184.768637 
L 22.594071 185.719646 
L 14.545995 185.281602 
L 6.497918 187.241562 
L -1.550159 187.203992 
L -9.598236 186.626586 
L -17.646313 187.722143 
L -25.69439 187.80429 
L -33.742467 186.499776 
L -41.790544 186.839029 
L -49.838621 186.436251 
L -57.886698 185.904493 
L -65.934775 189.373145 
L -73.982852 187.683946 
L -82.030929 185.312727 
L -90.079005 186.702032 
L -98.127082 187.964462 
L -106.175159 187.422251 
L -114.223236 187.047378 
L -122.271313 187.656419 
L -130.31939 188.981711 
L -138.367467 187.919755 
L -146.415544 187.643842 
L -154.463621 188.330349 
L -162.511698 187.734104 
L -170.559775 188.164029 
L -178.607852 186.782854 
L -186.655929 187.530177 
L -194.704005 185.808049 
L -202.752082 187.625695 
L -210.800159 187.036012 
L -218.848236 187.672849 
L -226.896313 187.332435 
L -234.94439 188.508295 
L -242.992467 186.984911 
L -251.040544 188.229442 
L -259.088621 187.332521 
L -267.136698 187.71285 
L -275.184775 187.04531 
L -283.232852 187.65853 
L -291.280929 189.033342 
L -299.329005 188.03447 
L -307.377082 188.484462 
L -315.425159 186.356371 
L -323.473236 187.579859 
L -331.521313 188.280972 
L -339.56939 186.681174 
L -347.617467 188.813954 
L -355.665544 189.133032 
L -363.713621 187.069912 
L -371.761698 187.278474 
L -379.809775 187.293077 
L -387.857852 186.665105 
L -395.905929 187.396197 
L -403.954005 187.377841 
L -412.002082 190.177832 
L -420.050159 188.565013 
L -428.098236 187.428509 
L -436.146313 187.661946 
L -444.19439 187.475414 
L -452.242467 186.881501 
L -460.290544 187.380175 
L -468.338621 187.058009 
L -476.386698 187.886193 
L -484.434775 187.327617 
L -492.482852 189.041045 
L -500.530929 189.470455 
L -508.579005 189.360988 
L -516.627082 189.924311 
L -524.675159 189.593751 
L -532.723236 190.268109 
L -540.771313 190.759007 
L -548.81939 191.6876 
L -556.867467 191.362203 
L -564.915544 192.369786 
L -572.963621 192.443391 
L -581.011698 194.117982 
L -589.059775 193.363045 
L -597.107852 193.061855 
L -605.155929 193.896009 
L -613.204005 194.388149 
L -621.252082 194.617943 
L -629.300159 195.658337 
L -637.348236 195.134483 
L -645.396313 195.89054 
L -653.44439 195.811268 
L -661.492467 196.132128 
L -669.540544 196.075181 
L -677.588621 195.903127 
L -685.636698 196.750979 
L -693.684775 197.818268 
L -701.732852 197.083813 
L -709.780929 197.775766 
L -717.829005 197.720068 
L -725.877082 198.186554 
L -733.925159 199.042041 
L -741.973236 198.977397 
L -750.021313 199.700988 
L -758.06939 200.01456 
L -766.117467 199.554573 
L -774.165544 200.088268 
L -782.213621 200.663879 
L -790.261698 200.976877 
L -798.309775 201.124673 
L -806.357852 201.580599 
L -814.405929 201.699269 
L -822.454005 202.295719 
L -830.502082 202.580044 
L -838.550159 202.841985 
L -846.598236 203.10307 
L -854.646313 202.499329 
L -862.69439 203.511014 
L -870.742467 204.013535 
L -878.790544 204.080592 
L -886.838621 204.270101 
L -894.886698 204.437429 
L -902.934775 204.845641 
L -910.982852 204.926376 
L -919.030929 205.458596 
L -927.079005 205.74982 
L -935.127082 205.823169 
L -943.175159 206.120768 
L -951.223236 206.467151 
L -959.271313 206.820966 
L -967.31939 207.627318 
L -975.367467 207.944142 
L -983.415544 208.422984 
L -991.463621 208.433896 
L -999.511698 208.903488 
L -1007.559775 209.104794 
L -1015.607852 209.369692 
L -1023.655929 209.209343 
L -1031.704005 210.285949 
L -1039.752082 210.534607 
L -1047.800159 210.764928 
L -1055.848236 211.480802 
L -1063.896313 211.604045 
L -1071.94439 211.998408 
L -1079.992467 211.897774 
L -1088.040544 212.816175 
L -1096.088621 212.723195 
L -1104.136698 213.636348 
L -1112.184775 214.291951 
L -1120.232852 214.596441 
L -1128.280929 215.410259 
L -1136.329005 216.031656 
L -1144.377082 216.187448 
L -1152.425159 216.628044 
L -1160.473236 216.873796 
L -1168.521313 217.414099 
L -1176.56939 217.43017 
L -1184.617467 218.109099 
L -1192.665544 218.634625 
L -1200.713621 218.98979 
L -1208.761698 219.267883 
L -1216.809775 219.445302 
L -1224.857852 220.209027 
L -1232.905929 220.44047 
L -1240.954005 220.8917 
L -1249.002082 221.580184 
L -1257.050159 221.853636 
L -1265.098236 221.355958 
L -1273.146313 221.566471 
L -1281.19439 222.277437 
L -1289.242467 222.392473 
L -1297.290544 222.902598 
L -1305.338621 223.303692 
L -1313.386698 223.17364 
L -1321.434775 223.330505 
L -1329.482852 223.659795 
L -1337.530929 224.198501 
L -1345.579005 223.70804 
L -1353.627082 223.935397 
L -1361.675159 223.929559 
L -1369.723236 224.632408 
L -1377.771313 224.502094 
L -1385.81939 224.209304 
L -1393.867467 224.548546 
L -1401.915544 224.954339 
L -1409.963621 224.042633 
L -1418.011698 224.898677 
L -1426.059775 223.855817 
L -1434.107852 223.803295 
L -1442.155929 223.608529 
L -1450.204005 223.835503 
L -1458.252082 223.971291 
L -1466.300159 224.082391 
L -1474.348236 223.54324 
L -1482.396313 223.951418 
L -1490.44439 222.663051 
L -1498.492467 220.950316 
L -1506.540544 221.45411 
L -1514.588621 222.266706 
L -1522.636698 220.218264 
L -1530.684775 220.487848 
L -1538.732852 219.926766 
L -1546.780929 219.827551 
L -1554.829005 217.318989 
L -1562.877082 217.029974 
L -1570.925159 216.158964 
L -1578.973236 214.241101 
L -1587.021313 212.730318 
L -1595.06939 214.328565 
L -1603.117467 213.535421 
L -1611.165544 212.262562 
L -1619.213621 211.743059 
L -1627.261698 210.812399 
L -1635.309775 209.567998 
L -1643.357852 210.071006 
L -1651.405929 207.950744 
L -1659.454005 206.849775 
L -1667.502082 206.374193 
L -1675.550159 205.98806 
L -1683.598236 206.248332 
L -1691.646313 205.766545 
L -1699.69439 206.248365 
L -1707.742467 206.875239 
L -1715.790544 205.924546 
L -1723.838621 205.879072 
L -1731.886698 206.885383 
L -1739.934775 207.155813 
L -1747.982852 206.844434 
L -1756.030929 208.860547 
L -1764.079005 207.546735 
L -1772.127082 208.072827 
L -1780.175159 209.621882 
L -1788.223236 209.266491 
L -1796.271313 209.873262 
L -1804.31939 210.423069 
L -1812.367467 211.058298 
L -1820.415544 211.665449 
L -1828.463621 212.345383 
L -1836.511698 212.977761 
L -1844.559775 213.504713 
L -1852.607852 214.308412 
L -1860.655929 214.542533 
L -1868.704005 215.791634 
L -1876.752082 215.894629 
L -1884.800159 216.544643 
L -1892.848236 217.294491 
L -1900.896313 217.866025 
L -1908.94439 218.585231 
L -1916.992467 219.112903 
L -1925.040544 219.897215 
L -1933.088621 220.389229 
L -1941.136698 221.008452 
L -1949.184775 221.665476 
L -1957.232852 222.35206 
L -1965.280929 222.80268 
L -1973.329005 223.478215 
L -1981.377082 223.91663 
L -1989.425159 224.604152 
L -1997.473236 225.129699 
L -2005.521313 225.703024 
L -2013.56939 226.257054 
L -2021.617467 226.779989 
L -2029.665544 227.235567 
L -2037.713621 227.810326 
L -2045.761698 228.127848 
L -2053.809775 228.796293 
L -2061.857852 229.273898 
L -2069.905929 229.673022 
L -2077.954005 230.168866 
L -2086.002082 230.580779 
L -2094.050159 230.928402 
L -2102.098236 231.392139 
L -2110.146313 231.8868 
L -2118.19439 232.268931 
L -2126.242467 232.623234 
L -2134.290544 233.0627 
L -2142.338621 233.396455 
L -2150.386698 233.793636 
L -2158.434775 234.11791 
L -2166.482852 234.479103 
L -2174.530929 234.740741 
L -2182.579005 235.140429 
L -2190.627082 235.400823 
L -2198.675159 235.731098 
L -2206.723236 236.118812 
L -2214.771313 236.395744 
L -2222.81939 236.489862 
L -2230.867467 236.797809 
L -2238.915544 236.948508 
L -2246.963621 237.233751 
L -2255.011698 237.59651 
L -2263.059775 237.759123 
L -2271.107852 237.913048 
L -2279.155929 237.979556 
L -2287.204005 238.140942 
L -2295.252082 238.268716 
L -2303.300159 238.404354 
L -2311.348236 238.646597 
L -2319.396313 238.79762 
L -2327.44439 238.978425 
L -2335.492467 238.912754 
L -2343.540544 239.054725 
L -2351.588621 238.908191 
L -2359.636698 239.163238 
L -2367.684775 239.263786 
L -2375.732852 239.398341 
L -2383.780929 239.026238 
L -2391.829005 239.538722 
L -2399.877082 239.526209 
L -2407.925159 239.285454 
L -2415.973236 239.239551 
L -2424.021313 239.514136 
L -2432.06939 239.94073 
L -2440.117467 239.812076 
L -2448.165544 239.832583 
L -2456.213621 239.447636 
L -2464.261698 239.554173 
L -2472.309775 239.62204 
L -2480.357852 239.88973 
L -2488.405929 239.837477 
L -2496.454005 239.81619 
L -2504.502082 239.880662 
L -2512.550159 240.056048 
L -2520.598236 240.081143 
L -2528.646313 240.174712 
L -2536.69439 240.353566 
L -2544.742467 240.277355 
L -2552.790544 240.533303 
L -2560.838621 240.593233 
L -2568.886698 240.649412 
L -2576.934775 240.832141 
L -2584.982852 240.900486 
L -2593.030929 241.070289 
L -2601.079005 241.264062 
L -2609.127082 241.295499 
L -2617.175159 241.241711 
L -2625.223236 241.256172 
L -2633.271313 241.616283 
L -2641.31939 241.571471 
L -2649.367467 241.833039 
L -2657.415544 241.86255 
L -2665.463621 241.755058 
L -2673.511698 242.06864 
L -2681.559775 241.809949 
L -2689.607852 241.817643 
L -2697.655929 242.168077 
L -2705.704005 241.893981 
L -2713.752082 242.213401 
L -2721.800159 242.339857 
L -2729.848236 242.028302 
L -2737.896313 241.117781 
L -2745.94439 241.674498 
L -2753.992467 241.408066 
L -2762.040544 239.951416 
L -2770.088621 241.152154 
L -2778.136698 241.356714 
L -2786.184775 240.009067 
L -2794.232852 239.633253 
L -2802.280929 240.267914 
L -2810.329005 238.786615 
L -2818.377082 236.248255 
L -2826.425159 238.956977 
L -2834.473236 240.029671 
L -2842.521313 240.499071 
L -2850.56939 236.991812 
L -2858.617467 237.084184 
L -2866.665544 235.327929 
L -2874.713621 233.975914 
L -2882.761698 236.538043 
L -2890.809775 235.329027 
L -2898.857852 232.917911 
L -2906.905929 231.200448 
L -2914.954005 231.20489 
L -2923.002082 231.38245 
L -2931.050159 230.937146 
L -2939.098236 230.627697 
L -2947.146313 231.440348 
L -2955.19439 231.225624 
L -2963.242467 230.504603 
L -2971.290544 230.756238 
L -2979.338621 230.386351 
L -2987.386698 230.16753 
L -2995.434775 230.06128 
L -3003.482852 230.30851 
L -3011.530929 230.399708 
L -3019.579005 230.403812 
L -3027.627082 230.598062 
L -3035.675159 230.629177 
L -3043.723236 230.766906 
L -3051.771313 231.058034 
L -3059.81939 231.25055 
L -3067.867467 231.359194 
L -3075.915544 231.49002 
L -3083.963621 231.70797 
L -3092.011698 231.804098 
L -3100.059775 232.014376 
L -3108.107852 232.292953 
L -3116.155929 232.433061 
L -3124.204005 232.498443 
L -3132.252082 232.651071 
L -3140.300159 232.80638 
L -3148.348236 232.946822 
L -3156.396313 233.080649 
L -3164.44439 233.208075 
L -3172.492467 233.415977 
L -3180.540544 233.48827 
L -3188.588621 233.630071 
L -3196.636698 233.779731 
L -3204.684775 233.902391 
L -3212.732852 234.026147 
L -3220.780929 234.121799 
L -3228.829005 234.229898 
L -3236.877082 234.397902 
L -3244.925159 234.49936 
L -3252.973236 234.628508 
L -3261.021313 234.724549 
L -3269.06939 234.841472 
L -3277.117467 234.962507 
L -3285.165544 235.085696 
L -3293.213621 235.185199 
L -3301.261698 235.309687 
L -3309.309775 235.416669 
L -3317.357852 235.533819 
L -3325.405929 235.640676 
L -3333.454005 235.754385 
L -3341.502082 235.857455 
L -3349.550159 235.970606 
L -3357.598236 236.095161 
L -3365.646313 236.184384 
L -3373.69439 236.302776 
L -3381.742467 236.401883 
L -3389.790544 236.521029 
L -3397.838621 236.6022 
L -3405.886698 236.71217 
L -3413.934775 236.816231 
L -3421.982852 236.914532 
L -3430.030929 237.015179 
L -3438.079005 237.106789 
L -3446.127082 237.217341 
L -3454.175159 237.31464 
L -3462.223236 237.390893 
L -3470.271313 237.485298 
L -3478.31939 237.579219 
L -3486.367467 237.672145 
L -3494.415544 237.760475 
L -3502.463621 237.840641 
L -3510.511698 237.930602 
L -3518.559775 238.017587 
L -3526.607852 238.104335 
L -3534.655929 238.18986 
L -3542.704005 238.277579 
L -3550.752082 238.369009 
L -3558.800159 238.442866 
L -3566.848236 238.530974 
L -3574.896313 238.61605 
L -3582.94439 238.695727 
L -3590.992467 238.778226 
L -3599.040544 238.862414 
L -3607.088621 238.942498 
L -3615.136698 239.027639 
L -3623.184775 239.101623 
L -3631.232852 239.177331 
L -3639.280929 239.258852 
L -3647.329005 239.335836 
L -3655.377082 239.40639 
L -3663.425159 239.482714 
L -3671.473236 239.548459 
L -3679.521313 239.620802 
L -3687.56939 239.699836 
L -3695.617467 239.761302 
L -3703.665544 239.834331 
L -3711.713621 239.900563 
L -3719.761698 239.971471 
L -3727.809775 240.030927 
L -3735.857852 240.107278 
L -3743.905929 240.162401 
L -3751.954005 240.229275 
L -3760.002082 240.293411 
L -3768.050159 240.360156 
L -3776.098236 240.418568 
L -3784.146313 240.472935 
L -3792.19439 240.528881 
L -3800.242467 240.589498 
L -3808.290544 240.642777 
L -3816.338621 240.69216 
L -3824.386698 240.74445 
L -3832.434775 240.798126 
L -3840.482852 240.849227 
L -3848.530929 240.902813 
L -3856.579005 240.956121 
L -3864.627082 241.005982 
L -3872.675159 241.057867 
L -3880.723236 241.110245 
L -3888.771313 241.155337 
L -3896.81939 241.202973 
L -3904.867467 241.255422 
L -3912.915544 241.304325 
L -3920.963621 241.345494 
L -3929.011698 241.395698 
L -3937.059775 241.440009 
L -3945.107852 241.479677 
L -3953.155929 241.52076 
L -3961.204005 241.558642 
L -3969.252082 241.602994 
L -3977.300159 241.6364 
L -3985.348236 241.67438 
L -3993.396313 241.7099 
L -4001.44439 241.742349 
L -4009.492467 241.77121 
L -4017.540544 241.796764 
L -4025.588621 241.823021 
L -4033.636698 241.849839 
L -4041.684775 241.869918 
L -4049.732852 241.89524 
L -4057.780929 241.915101 
L -4065.829005 241.930936 
L -4073.877082 241.952591 
L -4081.925159 241.970436 
L -4089.973236 241.983561 
L -4098.021313 241.999055 
L -4106.06939 242.014316 
L -4114.117467 242.0268 
L -4122.165544 242.039752 
L -4130.213621 242.048998 
L -4138.261698 242.062622 
L -4146.309775 242.071724 
L -4154.357852 242.082023 
L -4162.405929 242.093547 
L -4170.454005 242.101492 
L -4178.502082 242.11062 
L -4186.550159 242.125361 
L -4194.598236 242.133337 
L -4202.646313 242.145183 
L -4210.69439 242.152918 
L -4218.742467 242.166026 
L -4226.790544 242.174656 
L -4234.838621 242.184589 
L -4242.886698 242.192517 
L -4250.934775 242.19901 
L -4258.982852 242.208077 
L -4267.030929 242.219257 
L -4275.079005 242.230406 
L -4283.127082 242.23929 
L -4291.175159 242.245375 
L -4299.223236 242.258317 
L -4307.271313 242.267727 
L -4315.31939 242.280226 
z
" clip-path="url(#p7dd623ff37)" style="fill: #008000; fill-opacity: 0.3; stroke: #008000; stroke-opacity: 0.3"/>
   </g>
   <g id="matplotlib.axis_1">
    <g id="xtick_1">
     <g id="line2d_1">
      <defs>
       <path id="mdf2803bfb5" d="M 0 0 
L 0 3.5 
" style="stroke: #000000; stroke-width: 0.8"/>
      </defs>
      <g>
       <use xlink:href="#mdf2803bfb5" x="103.074841" y="395.28" style="stroke: #000000; stroke-width: 0.8"/>
      </g>
     </g>
     <g id="text_1">
      <!-- 2023-01-01 -->
      <g transform="translate(17.945813 495.213718) rotate(-45) scale(0.2 -0.2)">
       <defs>
        <path id="DejaVuSans-32" d="M 1228 531 
L 3431 531 
L 3431 0 
L 469 0 
L 469 531 
Q 828 903 1448 1529 
Q 2069 2156 2228 2338 
Q 2531 2678 2651 2914 
Q 2772 3150 2772 3378 
Q 2772 3750 2511 3984 
Q 2250 4219 1831 4219 
Q 1534 4219 1204 4116 
Q 875 4013 500 3803 
L 500 4441 
Q 881 4594 1212 4672 
Q 1544 4750 1819 4750 
Q 2544 4750 2975 4387 
Q 3406 4025 3406 3419 
Q 3406 3131 3298 2873 
Q 3191 2616 2906 2266 
Q 2828 2175 2409 1742 
Q 1991 1309 1228 531 
z
" transform="scale(0.015625)"/>
        <path id="DejaVuSans-30" d="M 2034 4250 
Q 1547 4250 1301 3770 
Q 1056 3291 1056 2328 
Q 1056 1369 1301 889 
Q 1547 409 2034 409 
Q 2525 409 2770 889 
Q 3016 1369 3016 2328 
Q 3016 3291 2770 3770 
Q 2525 4250 2034 4250 
z
M 2034 4750 
Q 2819 4750 3233 4129 
Q 3647 3509 3647 2328 
Q 3647 1150 3233 529 
Q 2819 -91 2034 -91 
Q 1250 -91 836 529 
Q 422 1150 422 2328 
Q 422 3509 836 4129 
Q 1250 4750 2034 4750 
z
" transform="scale(0.015625)"/>
        <path id="DejaVuSans-33" d="M 2597 2516 
Q 3050 2419 3304 2112 
Q 3559 1806 3559 1356 
Q 3559 666 3084 287 
Q 2609 -91 1734 -91 
Q 1441 -91 1130 -33 
Q 819 25 488 141 
L 488 750 
Q 750 597 1062 519 
Q 1375 441 1716 441 
Q 2309 441 2620 675 
Q 2931 909 2931 1356 
Q 2931 1769 2642 2001 
Q 2353 2234 1838 2234 
L 1294 2234 
L 1294 2753 
L 1863 2753 
Q 2328 2753 2575 2939 
Q 2822 3125 2822 3475 
Q 2822 3834 2567 4026 
Q 2313 4219 1838 4219 
Q 1578 4219 1281 4162 
Q 984 4106 628 3988 
L 628 4550 
Q 988 4650 1302 4700 
Q 1616 4750 1894 4750 
Q 2613 4750 3031 4423 
Q 3450 4097 3450 3541 
Q 3450 3153 3228 2886 
Q 3006 2619 2597 2516 
z
" transform="scale(0.015625)"/>
        <path id="DejaVuSans-2d" d="M 313 2009 
L 1997 2009 
L 1997 1497 
L 313 1497 
L 313 2009 
z
" transform="scale(0.015625)"/>
        <path id="DejaVuSans-31" d="M 794 531 
L 1825 531 
L 1825 4091 
L 703 3866 
L 703 4441 
L 1819 4666 
L 2450 4666 
L 2450 531 
L 3481 531 
L 3481 0 
L 794 0 
L 794 531 
z
" transform="scale(0.015625)"/>
       </defs>
       <use xlink:href="#DejaVuSans-32"/>
       <use xlink:href="#DejaVuSans-30" x="63.623047"/>
       <use xlink:href="#DejaVuSans-32" x="127.246094"/>
       <use xlink:href="#DejaVuSans-33" x="190.869141"/>
       <use xlink:href="#DejaVuSans-2d" x="254.492188"/>
       <use xlink:href="#DejaVuSans-30" x="290.576172"/>
       <use xlink:href="#DejaVuSans-31" x="354.199219"/>
       <use xlink:href="#DejaVuSans-2d" x="417.822266"/>
       <use xlink:href="#DejaVuSans-30" x="453.90625"/>
       <use xlink:href="#DejaVuSans-31" x="517.529297"/>
      </g>
     </g>
    </g>
    <g id="xtick_2">
     <g id="line2d_2">
      <g>
       <use xlink:href="#mdf2803bfb5" x="215.747918" y="395.28" style="stroke: #000000; stroke-width: 0.8"/>
      </g>
     </g>
     <g id="text_2">
      <!-- 2023-01-15 -->
      <g transform="translate(130.61889 495.213718) rotate(-45) scale(0.2 -0.2)">
       <defs>
        <path id="DejaVuSans-35" d="M 691 4666 
L 3169 4666 
L 3169 4134 
L 1269 4134 
L 1269 2991 
Q 1406 3038 1543 3061 
Q 1681 3084 1819 3084 
Q 2600 3084 3056 2656 
Q 3513 2228 3513 1497 
Q 3513 744 3044 326 
Q 2575 -91 1722 -91 
Q 1428 -91 1123 -41 
Q 819 9 494 109 
L 494 744 
Q 775 591 1075 516 
Q 1375 441 1709 441 
Q 2250 441 2565 725 
Q 2881 1009 2881 1497 
Q 2881 1984 2565 2268 
Q 2250 2553 1709 2553 
Q 1456 2553 1204 2497 
Q 953 2441 691 2322 
L 691 4666 
z
" transform="scale(0.015625)"/>
       </defs>
       <use xlink:href="#DejaVuSans-32"/>
       <use xlink:href="#DejaVuSans-30" x="63.623047"/>
       <use xlink:href="#DejaVuSans-32" x="127.246094"/>
       <use xlink:href="#DejaVuSans-33" x="190.869141"/>
       <use xlink:href="#DejaVuSans-2d" x="254.492188"/>
       <use xlink:href="#DejaVuSans-30" x="290.576172"/>
       <use xlink:href="#DejaVuSans-31" x="354.199219"/>
       <use xlink:href="#DejaVuSans-2d" x="417.822266"/>
       <use xlink:href="#DejaVuSans-31" x="453.90625"/>
       <use xlink:href="#DejaVuSans-35" x="517.529297"/>
      </g>
     </g>
    </g>
    <g id="xtick_3">
     <g id="line2d_3">
      <g>
       <use xlink:href="#mdf2803bfb5" x="328.420995" y="395.28" style="stroke: #000000; stroke-width: 0.8"/>
      </g>
     </g>
     <g id="text_3">
      <!-- 2023-01-29 -->
      <g transform="translate(243.291967 495.213718) rotate(-45) scale(0.2 -0.2)">
       <defs>
        <path id="DejaVuSans-39" d="M 703 97 
L 703 672 
Q 941 559 1184 500 
Q 1428 441 1663 441 
Q 2288 441 2617 861 
Q 2947 1281 2994 2138 
Q 2813 1869 2534 1725 
Q 2256 1581 1919 1581 
Q 1219 1581 811 2004 
Q 403 2428 403 3163 
Q 403 3881 828 4315 
Q 1253 4750 1959 4750 
Q 2769 4750 3195 4129 
Q 3622 3509 3622 2328 
Q 3622 1225 3098 567 
Q 2575 -91 1691 -91 
Q 1453 -91 1209 -44 
Q 966 3 703 97 
z
M 1959 2075 
Q 2384 2075 2632 2365 
Q 2881 2656 2881 3163 
Q 2881 3666 2632 3958 
Q 2384 4250 1959 4250 
Q 1534 4250 1286 3958 
Q 1038 3666 1038 3163 
Q 1038 2656 1286 2365 
Q 1534 2075 1959 2075 
z
" transform="scale(0.015625)"/>
       </defs>
       <use xlink:href="#DejaVuSans-32"/>
       <use xlink:href="#DejaVuSans-30" x="63.623047"/>
       <use xlink:href="#DejaVuSans-32" x="127.246094"/>
       <use xlink:href="#DejaVuSans-33" x="190.869141"/>
       <use xlink:href="#DejaVuSans-2d" x="254.492188"/>
       <use xlink:href="#DejaVuSans-30" x="290.576172"/>
       <use xlink:href="#DejaVuSans-31" x="354.199219"/>
       <use xlink:href="#DejaVuSans-2d" x="417.822266"/>
       <use xlink:href="#DejaVuSans-32" x="453.90625"/>
       <use xlink:href="#DejaVuSans-39" x="517.529297"/>
      </g>
     </g>
    </g>
    <g id="xtick_4">
     <g id="line2d_4">
      <g>
       <use xlink:href="#mdf2803bfb5" x="441.094071" y="395.28" style="stroke: #000000; stroke-width: 0.8"/>
      </g>
     </g>
     <g id="text_4">
      <!-- 2023-02-12 -->
      <g transform="translate(355.965044 495.213718) rotate(-45) scale(0.2 -0.2)">
       <use xlink:href="#DejaVuSans-32"/>
       <use xlink:href="#DejaVuSans-30" x="63.623047"/>
       <use xlink:href="#DejaVuSans-32" x="127.246094"/>
       <use xlink:href="#DejaVuSans-33" x="190.869141"/>
       <use xlink:href="#DejaVuSans-2d" x="254.492188"/>
       <use xlink:href="#DejaVuSans-30" x="290.576172"/>
       <use xlink:href="#DejaVuSans-32" x="354.199219"/>
       <use xlink:href="#DejaVuSans-2d" x="417.822266"/>
       <use xlink:href="#DejaVuSans-31" x="453.90625"/>
       <use xlink:href="#DejaVuSans-32" x="517.529297"/>
      </g>
     </g>
    </g>
    <g id="xtick_5">
     <g id="line2d_5">
      <g>
       <use xlink:href="#mdf2803bfb5" x="553.767148" y="395.28" style="stroke: #000000; stroke-width: 0.8"/>
      </g>
     </g>
     <g id="text_5">
      <!-- 2023-02-26 -->
      <g transform="translate(468.638121 495.213718) rotate(-45) scale(0.2 -0.2)">
       <defs>
        <path id="DejaVuSans-36" d="M 2113 2584 
Q 1688 2584 1439 2293 
Q 1191 2003 1191 1497 
Q 1191 994 1439 701 
Q 1688 409 2113 409 
Q 2538 409 2786 701 
Q 3034 994 3034 1497 
Q 3034 2003 2786 2293 
Q 2538 2584 2113 2584 
z
M 3366 4563 
L 3366 3988 
Q 3128 4100 2886 4159 
Q 2644 4219 2406 4219 
Q 1781 4219 1451 3797 
Q 1122 3375 1075 2522 
Q 1259 2794 1537 2939 
Q 1816 3084 2150 3084 
Q 2853 3084 3261 2657 
Q 3669 2231 3669 1497 
Q 3669 778 3244 343 
Q 2819 -91 2113 -91 
Q 1303 -91 875 529 
Q 447 1150 447 2328 
Q 447 3434 972 4092 
Q 1497 4750 2381 4750 
Q 2619 4750 2861 4703 
Q 3103 4656 3366 4563 
z
" transform="scale(0.015625)"/>
       </defs>
       <use xlink:href="#DejaVuSans-32"/>
       <use xlink:href="#DejaVuSans-30" x="63.623047"/>
       <use xlink:href="#DejaVuSans-32" x="127.246094"/>
       <use xlink:href="#DejaVuSans-33" x="190.869141"/>
       <use xlink:href="#DejaVuSans-2d" x="254.492188"/>
       <use xlink:href="#DejaVuSans-30" x="290.576172"/>
       <use xlink:href="#DejaVuSans-32" x="354.199219"/>
       <use xlink:href="#DejaVuSans-2d" x="417.822266"/>
       <use xlink:href="#DejaVuSans-32" x="453.90625"/>
       <use xlink:href="#DejaVuSans-36" x="517.529297"/>
      </g>
     </g>
    </g>
    <g id="xtick_6">
     <g id="line2d_6">
      <g>
       <use xlink:href="#mdf2803bfb5" x="666.440225" y="395.28" style="stroke: #000000; stroke-width: 0.8"/>
      </g>
     </g>
     <g id="text_6">
      <!-- 2023-03-12 -->
      <g transform="translate(581.311198 495.213718) rotate(-45) scale(0.2 -0.2)">
       <use xlink:href="#DejaVuSans-32"/>
       <use xlink:href="#DejaVuSans-30" x="63.623047"/>
       <use xlink:href="#DejaVuSans-32" x="127.246094"/>
       <use xlink:href="#DejaVuSans-33" x="190.869141"/>
       <use xlink:href="#DejaVuSans-2d" x="254.492188"/>
       <use xlink:href="#DejaVuSans-30" x="290.576172"/>
       <use xlink:href="#DejaVuSans-33" x="354.199219"/>
       <use xlink:href="#DejaVuSans-2d" x="417.822266"/>
       <use xlink:href="#DejaVuSans-31" x="453.90625"/>
       <use xlink:href="#DejaVuSans-32" x="517.529297"/>
      </g>
     </g>
    </g>
    <g id="xtick_7">
     <g id="line2d_7">
      <g>
       <use xlink:href="#mdf2803bfb5" x="779.113302" y="395.28" style="stroke: #000000; stroke-width: 0.8"/>
      </g>
     </g>
     <g id="text_7">
      <!-- 2023-03-26 -->
      <g transform="translate(693.984275 495.213718) rotate(-45) scale(0.2 -0.2)">
       <use xlink:href="#DejaVuSans-32"/>
       <use xlink:href="#DejaVuSans-30" x="63.623047"/>
       <use xlink:href="#DejaVuSans-32" x="127.246094"/>
       <use xlink:href="#DejaVuSans-33" x="190.869141"/>
       <use xlink:href="#DejaVuSans-2d" x="254.492188"/>
       <use xlink:href="#DejaVuSans-30" x="290.576172"/>
       <use xlink:href="#DejaVuSans-33" x="354.199219"/>
       <use xlink:href="#DejaVuSans-2d" x="417.822266"/>
       <use xlink:href="#DejaVuSans-32" x="453.90625"/>
       <use xlink:href="#DejaVuSans-36" x="517.529297"/>
      </g>
     </g>
    </g>
    <g id="xtick_8">
     <g id="line2d_8">
      <g>
       <use xlink:href="#mdf2803bfb5" x="891.786379" y="395.28" style="stroke: #000000; stroke-width: 0.8"/>
      </g>
     </g>
     <g id="text_8">
      <!-- 2023-04-09 -->
      <g transform="translate(806.657352 495.213718) rotate(-45) scale(0.2 -0.2)">
       <defs>
        <path id="DejaVuSans-34" d="M 2419 4116 
L 825 1625 
L 2419 1625 
L 2419 4116 
z
M 2253 4666 
L 3047 4666 
L 3047 1625 
L 3713 1625 
L 3713 1100 
L 3047 1100 
L 3047 0 
L 2419 0 
L 2419 1100 
L 313 1100 
L 313 1709 
L 2253 4666 
z
" transform="scale(0.015625)"/>
       </defs>
       <use xlink:href="#DejaVuSans-32"/>
       <use xlink:href="#DejaVuSans-30" x="63.623047"/>
       <use xlink:href="#DejaVuSans-32" x="127.246094"/>
       <use xlink:href="#DejaVuSans-33" x="190.869141"/>
       <use xlink:href="#DejaVuSans-2d" x="254.492188"/>
       <use xlink:href="#DejaVuSans-30" x="290.576172"/>
       <use xlink:href="#DejaVuSans-34" x="354.199219"/>
       <use xlink:href="#DejaVuSans-2d" x="417.822266"/>
       <use xlink:href="#DejaVuSans-30" x="453.90625"/>
       <use xlink:href="#DejaVuSans-39" x="517.529297"/>
      </g>
     </g>
    </g>
    <g id="xtick_9">
     <g id="line2d_9">
      <g>
       <use xlink:href="#mdf2803bfb5" x="940.074841" y="395.28" style="stroke: #000000; stroke-width: 0.8"/>
      </g>
     </g>
     <g id="text_9">
      <!-- 2023-04-15 -->
      <g transform="translate(854.945813 495.213718) rotate(-45) scale(0.2 -0.2)">
       <use xlink:href="#DejaVuSans-32"/>
       <use xlink:href="#DejaVuSans-30" x="63.623047"/>
       <use xlink:href="#DejaVuSans-32" x="127.246094"/>
       <use xlink:href="#DejaVuSans-33" x="190.869141"/>
       <use xlink:href="#DejaVuSans-2d" x="254.492188"/>
       <use xlink:href="#DejaVuSans-30" x="290.576172"/>
       <use xlink:href="#DejaVuSans-34" x="354.199219"/>
       <use xlink:href="#DejaVuSans-2d" x="417.822266"/>
       <use xlink:href="#DejaVuSans-31" x="453.90625"/>
       <use xlink:href="#DejaVuSans-35" x="517.529297"/>
      </g>
     </g>
    </g>
   </g>
   <g id="matplotlib.axis_2">
    <g id="ytick_1">
     <g id="line2d_10">
      <defs>
       <path id="m3f1b22281a" d="M 0 0 
L -3.5 0 
" style="stroke: #000000; stroke-width: 0.8"/>
      </defs>
      <g>
       <use xlink:href="#m3f1b22281a" x="103.074841" y="389.546115" style="stroke: #000000; stroke-width: 0.8"/>
      </g>
     </g>
     <g id="text_10">
      <!-- −0.6 -->
      <g transform="translate(47.509216 397.144552) scale(0.2 -0.2)">
       <defs>
        <path id="DejaVuSans-2212" d="M 678 2272 
L 4684 2272 
L 4684 1741 
L 678 1741 
L 678 2272 
z
" transform="scale(0.015625)"/>
        <path id="DejaVuSans-2e" d="M 684 794 
L 1344 794 
L 1344 0 
L 684 0 
L 684 794 
z
" transform="scale(0.015625)"/>
       </defs>
       <use xlink:href="#DejaVuSans-2212"/>
       <use xlink:href="#DejaVuSans-30" x="83.789062"/>
       <use xlink:href="#DejaVuSans-2e" x="147.412109"/>
       <use xlink:href="#DejaVuSans-36" x="179.199219"/>
      </g>
     </g>
    </g>
    <g id="ytick_2">
     <g id="line2d_11">
      <g>
       <use xlink:href="#m3f1b22281a" x="103.074841" y="340.461472" style="stroke: #000000; stroke-width: 0.8"/>
      </g>
     </g>
     <g id="text_11">
      <!-- −0.4 -->
      <g transform="translate(47.509216 348.059909) scale(0.2 -0.2)">
       <use xlink:href="#DejaVuSans-2212"/>
       <use xlink:href="#DejaVuSans-30" x="83.789062"/>
       <use xlink:href="#DejaVuSans-2e" x="147.412109"/>
       <use xlink:href="#DejaVuSans-34" x="179.199219"/>
      </g>
     </g>
    </g>
    <g id="ytick_3">
     <g id="line2d_12">
      <g>
       <use xlink:href="#m3f1b22281a" x="103.074841" y="291.376829" style="stroke: #000000; stroke-width: 0.8"/>
      </g>
     </g>
     <g id="text_12">
      <!-- −0.2 -->
      <g transform="translate(47.509216 298.975267) scale(0.2 -0.2)">
       <use xlink:href="#DejaVuSans-2212"/>
       <use xlink:href="#DejaVuSans-30" x="83.789062"/>
       <use xlink:href="#DejaVuSans-2e" x="147.412109"/>
       <use xlink:href="#DejaVuSans-32" x="179.199219"/>
      </g>
     </g>
    </g>
    <g id="ytick_4">
     <g id="line2d_13">
      <g>
       <use xlink:href="#m3f1b22281a" x="103.074841" y="242.292186" style="stroke: #000000; stroke-width: 0.8"/>
      </g>
     </g>
     <g id="text_13">
      <!-- 0.0 -->
      <g transform="translate(64.268591 249.890624) scale(0.2 -0.2)">
       <use xlink:href="#DejaVuSans-30"/>
       <use xlink:href="#DejaVuSans-2e" x="63.623047"/>
       <use xlink:href="#DejaVuSans-30" x="95.410156"/>
      </g>
     </g>
    </g>
    <g id="ytick_5">
     <g id="line2d_14">
      <g>
       <use xlink:href="#m3f1b22281a" x="103.074841" y="193.207543" style="stroke: #000000; stroke-width: 0.8"/>
      </g>
     </g>
     <g id="text_14">
      <!-- 0.2 -->
      <g transform="translate(64.268591 200.805981) scale(0.2 -0.2)">
       <use xlink:href="#DejaVuSans-30"/>
       <use xlink:href="#DejaVuSans-2e" x="63.623047"/>
       <use xlink:href="#DejaVuSans-32" x="95.410156"/>
      </g>
     </g>
    </g>
    <g id="ytick_6">
     <g id="line2d_15">
      <g>
       <use xlink:href="#m3f1b22281a" x="103.074841" y="144.1229" style="stroke: #000000; stroke-width: 0.8"/>
      </g>
     </g>
     <g id="text_15">
      <!-- 0.4 -->
      <g transform="translate(64.268591 151.721338) scale(0.2 -0.2)">
       <use xlink:href="#DejaVuSans-30"/>
       <use xlink:href="#DejaVuSans-2e" x="63.623047"/>
       <use xlink:href="#DejaVuSans-34" x="95.410156"/>
      </g>
     </g>
    </g>
    <g id="ytick_7">
     <g id="line2d_16">
      <g>
       <use xlink:href="#m3f1b22281a" x="103.074841" y="95.038258" style="stroke: #000000; stroke-width: 0.8"/>
      </g>
     </g>
     <g id="text_16">
      <!-- 0.6 -->
      <g transform="translate(64.268591 102.636695) scale(0.2 -0.2)">
       <use xlink:href="#DejaVuSans-30"/>
       <use xlink:href="#DejaVuSans-2e" x="63.623047"/>
       <use xlink:href="#DejaVuSans-36" x="95.410156"/>
      </g>
     </g>
    </g>
    <g id="ytick_8">
     <g id="line2d_17">
      <g>
       <use xlink:href="#m3f1b22281a" x="103.074841" y="45.953615" style="stroke: #000000; stroke-width: 0.8"/>
      </g>
     </g>
     <g id="text_17">
      <!-- 0.8 -->
      <g transform="translate(64.268591 53.552052) scale(0.2 -0.2)">
       <defs>
        <path id="DejaVuSans-38" d="M 2034 2216 
Q 1584 2216 1326 1975 
Q 1069 1734 1069 1313 
Q 1069 891 1326 650 
Q 1584 409 2034 409 
Q 2484 409 2743 651 
Q 3003 894 3003 1313 
Q 3003 1734 2745 1975 
Q 2488 2216 2034 2216 
z
M 1403 2484 
Q 997 2584 770 2862 
Q 544 3141 544 3541 
Q 544 4100 942 4425 
Q 1341 4750 2034 4750 
Q 2731 4750 3128 4425 
Q 3525 4100 3525 3541 
Q 3525 3141 3298 2862 
Q 3072 2584 2669 2484 
Q 3125 2378 3379 2068 
Q 3634 1759 3634 1313 
Q 3634 634 3220 271 
Q 2806 -91 2034 -91 
Q 1263 -91 848 271 
Q 434 634 434 1313 
Q 434 1759 690 2068 
Q 947 2378 1403 2484 
z
M 1172 3481 
Q 1172 3119 1398 2916 
Q 1625 2713 2034 2713 
Q 2441 2713 2670 2916 
Q 2900 3119 2900 3481 
Q 2900 3844 2670 4047 
Q 2441 4250 2034 4250 
Q 1625 4250 1398 4047 
Q 1172 3844 1172 3481 
z
" transform="scale(0.015625)"/>
       </defs>
       <use xlink:href="#DejaVuSans-30"/>
       <use xlink:href="#DejaVuSans-2e" x="63.623047"/>
       <use xlink:href="#DejaVuSans-38" x="95.410156"/>
      </g>
     </g>
    </g>
   </g>
   <g id="line2d_18">
    <path d="M 940.074841 242.292186 
" clip-path="url(#p7dd623ff37)" style="fill: none; stroke: #ffa500; stroke-width: 1.5; stroke-linecap: square"/>
   </g>
   <g id="line2d_19">
    <path d="M 103.074841 242.292186 
L 948.274841 242.292186 
" clip-path="url(#p7dd623ff37)" style="fill: none; stroke-dasharray: 7.4,3.2; stroke-dashoffset: 0; stroke: #000000; stroke-width: 2"/>
   </g>
   <g id="patch_3">
    <path d="M 103.074841 395.28 
L 103.074841 7.2 
" style="fill: none; stroke: #000000; stroke-width: 0.8; stroke-linejoin: miter; stroke-linecap: square"/>
   </g>
   <g id="patch_4">
    <path d="M 940.074841 395.28 
L 940.074841 7.2 
" style="fill: none; stroke: #000000; stroke-width: 0.8; stroke-linejoin: miter; stroke-linecap: square"/>
   </g>
   <g id="patch_5">
    <path d="M 103.074841 395.28 
L 940.074841 395.28 
" style="fill: none; stroke: #000000; stroke-width: 0.8; stroke-linejoin: miter; stroke-linecap: square"/>
   </g>
   <g id="patch_6">
    <path d="M 103.074841 7.2 
L 940.074841 7.2 
" style="fill: none; stroke: #000000; stroke-width: 0.8; stroke-linejoin: miter; stroke-linecap: square"/>
   </g>
  </g>
 </g>
 <defs>
  <clipPath id="p7dd623ff37">
   <rect x="103.074841" y="7.2" width="837" height="388.08"/>
  </clipPath>
 </defs>
</svg>
