<?xml version="1.0" encoding="utf-8" standalone="no"?>
<!DOCTYPE svg PUBLIC "-//W3C//DTD SVG 1.1//EN"
  "http://www.w3.org/Graphics/SVG/1.1/DTD/svg11.dtd">
<svg xmlns:xlink="http://www.w3.org/1999/xlink" width="947.274841pt" height="505.354841pt" viewBox="0 0 947.274841 505.354841" xmlns="http://www.w3.org/2000/svg" version="1.1">
 <metadata>
  <rdf:RDF xmlns:dc="http://purl.org/dc/elements/1.1/" xmlns:cc="http://creativecommons.org/ns#" xmlns:rdf="http://www.w3.org/1999/02/22-rdf-syntax-ns#">
   <cc:Work>
    <dc:type rdf:resource="http://purl.org/dc/dcmitype/StillImage"/>
    <dc:date>2023-11-15T18:16:52.758172</dc:date>
    <dc:format>image/svg+xml</dc:format>
    <dc:creator>
     <cc:Agent>
      <dc:title>Matplotlib v3.7.2, https://matplotlib.org/</dc:title>
     </cc:Agent>
    </dc:creator>
   </cc:Work>
  </rdf:RDF>
 </metadata>
 <defs>
  <style type="text/css">*{stroke-linejoin: round; stroke-linecap: butt}</style>
 </defs>
 <g id="figure_1">
  <g id="patch_1">
   <path d="M 0 505.354841 
L 947.274841 505.354841 
L 947.274841 -0 
L 0 -0 
z
" style="fill: #ffffff"/>
  </g>
  <g id="axes_1">
   <g id="patch_2">
    <path d="M 103.074841 395.28 
L 940.074841 395.28 
L 940.074841 7.2 
L 103.074841 7.2 
z
" style="fill: #ffffff"/>
   </g>
   <g id="PolyCollection_1">
    <path d="M -4315.31939 372.384052 
L -4315.31939 372.40858 
L -4307.271313 372.292337 
L -4299.223236 372.190095 
L -4291.175159 372.060399 
L -4283.127082 371.971254 
L -4275.079005 371.85849 
L -4267.030929 371.727903 
L -4258.982852 371.607134 
L -4250.934775 371.495314 
L -4242.886698 371.395325 
L -4234.838621 371.281556 
L -4226.790544 371.16274 
L -4218.742467 371.046661 
L -4210.69439 370.907006 
L -4202.646313 370.788756 
L -4194.598236 370.651781 
L -4186.550159 370.532181 
L -4178.502082 370.37545 
L -4170.454005 370.243693 
L -4162.405929 370.115971 
L -4154.357852 369.967445 
L -4146.309775 369.821931 
L -4138.261698 369.678956 
L -4130.213621 369.509361 
L -4122.165544 369.358423 
L -4114.117467 369.184108 
L -4106.06939 369.007272 
L -4098.021313 368.812894 
L -4089.973236 368.612894 
L -4081.925159 368.415963 
L -4073.877082 368.190301 
L -4065.829005 367.936751 
L -4057.780929 367.708013 
L -4049.732852 367.45006 
L -4041.684775 367.157574 
L -4033.636698 366.88222 
L -4025.588621 366.562516 
L -4017.540544 366.23664 
L -4009.492467 365.900188 
L -4001.44439 365.544905 
L -3993.396313 365.1529 
L -3985.348236 364.735843 
L -3977.300159 364.294061 
L -3969.252082 363.864798 
L -3961.204005 363.365645 
L -3953.155929 362.886775 
L -3945.107852 362.377618 
L -3937.059775 361.864667 
L -3929.011698 361.314327 
L -3920.963621 360.720806 
L -3912.915544 360.165659 
L -3904.867467 359.551984 
L -3896.81939 358.91716 
L -3888.771313 358.292454 
L -3880.723236 357.672177 
L -3872.675159 357.003004 
L -3864.627082 356.326058 
L -3856.579005 355.649122 
L -3848.530929 354.945461 
L -3840.482852 354.232927 
L -3832.434775 353.521336 
L -3824.386698 352.786932 
L -3816.338621 352.050168 
L -3808.290544 351.322779 
L -3800.242467 350.567541 
L -3792.19439 349.763781 
L -3784.146313 348.982242 
L -3776.098236 348.201912 
L -3768.050159 347.432392 
L -3760.002082 346.634029 
L -3751.954005 345.852498 
L -3743.905929 345.05882 
L -3735.857852 344.335551 
L -3727.809775 343.496925 
L -3719.761698 342.761158 
L -3711.713621 341.962474 
L -3703.665544 341.205353 
L -3695.617467 340.417785 
L -3687.56939 339.704266 
L -3679.521313 338.896073 
L -3671.473236 338.139117 
L -3663.425159 337.42622 
L -3655.377082 336.657214 
L -3647.329005 335.925841 
L -3639.280929 335.173259 
L -3631.232852 334.40746 
L -3623.184775 333.669028 
L -3615.136698 332.944 
L -3607.088621 332.175003 
L -3599.040544 331.437091 
L -3590.992467 330.683693 
L -3582.94439 329.941798 
L -3574.896313 329.216141 
L -3566.848236 328.473015 
L -3558.800159 327.723741 
L -3550.752082 327.04238 
L -3542.704005 326.280934 
L -3534.655929 325.549007 
L -3526.607852 324.828542 
L -3518.559775 324.10789 
L -3510.511698 323.389427 
L -3502.463621 322.663182 
L -3494.415544 321.96782 
L -3486.367467 321.247899 
L -3478.31939 320.512347 
L -3470.271313 319.769703 
L -3462.223236 319.020045 
L -3454.175159 318.313998 
L -3446.127082 317.544219 
L -3438.079005 316.728041 
L -3430.030929 315.957081 
L -3421.982852 315.147664 
L -3413.934775 314.326413 
L -3405.886698 313.462819 
L -3397.838621 312.584303 
L -3389.790544 311.762037 
L -3381.742467 310.833805 
L -3373.69439 309.947051 
L -3365.646313 308.997487 
L -3357.598236 308.118125 
L -3349.550159 307.096945 
L -3341.502082 306.093259 
L -3333.454005 305.114496 
L -3325.405929 304.118965 
L -3317.357852 303.094126 
L -3309.309775 302.025726 
L -3301.261698 301.017916 
L -3293.213621 299.874783 
L -3285.165544 298.85782 
L -3277.117467 297.681218 
L -3269.06939 296.537049 
L -3261.021313 295.416255 
L -3252.973236 294.336074 
L -3244.925159 293.089495 
L -3236.877082 291.952743 
L -3228.829005 290.531718 
L -3220.780929 289.294024 
L -3212.732852 288.131912 
L -3204.684775 286.830396 
L -3196.636698 285.49568 
L -3188.588621 283.971963 
L -3180.540544 282.534104 
L -3172.492467 281.312632 
L -3164.44439 279.443716 
L -3156.396313 277.915328 
L -3148.348236 276.352085 
L -3140.300159 274.730558 
L -3132.252082 272.897753 
L -3124.204005 271.160864 
L -3116.155929 269.808508 
L -3108.107852 268.120535 
L -3100.059775 265.57719 
L -3092.011698 263.543966 
L -3083.963621 262.281579 
L -3075.915544 260.130999 
L -3067.867467 258.566162 
L -3059.81939 257.115186 
L -3051.771313 255.092316 
L -3043.723236 252.334186 
L -3035.675159 250.64951 
L -3027.627082 249.706614 
L -3019.579005 247.655843 
L -3011.530929 246.884176 
L -3003.482852 245.539428 
L -2995.434775 243.099609 
L -2987.386698 243.127318 
L -2979.338621 243.912446 
L -2971.290544 245.74642 
L -2963.242467 243.387167 
L -2955.19439 247.658989 
L -2947.146313 248.513835 
L -2939.098236 242.464865 
L -2931.050159 244.030362 
L -2923.002082 246.551177 
L -2914.954005 244.904174 
L -2906.905929 244.495424 
L -2898.857852 255.684558 
L -2890.809775 271.638687 
L -2882.761698 279.558469 
L -2874.713621 262.125071 
L -2866.665544 271.028348 
L -2858.617467 282.711967 
L -2850.56939 282.014967 
L -2842.521313 305.834907 
L -2834.473236 302.587582 
L -2826.425159 295.310048 
L -2818.377082 277.265211 
L -2810.329005 294.258923 
L -2802.280929 304.489544 
L -2794.232852 300.250557 
L -2786.184775 302.942317 
L -2778.136698 312.610434 
L -2770.088621 311.365117 
L -2762.040544 303.099773 
L -2753.992467 313.5742 
L -2745.94439 315.685505 
L -2737.896313 312.002675 
L -2729.848236 318.66925 
L -2721.800159 321.134599 
L -2713.752082 320.52577 
L -2705.704005 318.561638 
L -2697.655929 320.782345 
L -2689.607852 318.605349 
L -2681.559775 318.842312 
L -2673.511698 320.958085 
L -2665.463621 319.048077 
L -2657.415544 320.1014 
L -2649.367467 320.194793 
L -2641.31939 318.654943 
L -2633.271313 319.270152 
L -2625.223236 317.030417 
L -2617.175159 317.213609 
L -2609.127082 317.872195 
L -2601.079005 317.932228 
L -2593.030929 316.84527 
L -2584.982852 315.916655 
L -2576.934775 315.690767 
L -2568.886698 314.655167 
L -2560.838621 314.497797 
L -2552.790544 314.302644 
L -2544.742467 312.715657 
L -2536.69439 313.45664 
L -2528.646313 312.397286 
L -2520.598236 311.927639 
L -2512.550159 311.935921 
L -2504.502082 310.884884 
L -2496.454005 310.601429 
L -2488.405929 310.914618 
L -2480.357852 311.440365 
L -2472.309775 309.718913 
L -2464.261698 309.384288 
L -2456.213621 308.780849 
L -2448.165544 311.620065 
L -2440.117467 311.618868 
L -2432.06939 312.660631 
L -2424.021313 309.810175 
L -2415.973236 308.023642 
L -2407.925159 308.482277 
L -2399.877082 310.305396 
L -2391.829005 310.526287 
L -2383.780929 307.068529 
L -2375.732852 309.797635 
L -2367.684775 308.97183 
L -2359.636698 308.383176 
L -2351.588621 306.707176 
L -2343.540544 307.835451 
L -2335.492467 306.941838 
L -2327.44439 307.50035 
L -2319.396313 306.332169 
L -2311.348236 305.367748 
L -2303.300159 303.759188 
L -2295.252082 302.892269 
L -2287.204005 302.07925 
L -2279.155929 301.025917 
L -2271.107852 300.634557 
L -2263.059775 299.628393 
L -2255.011698 298.554879 
L -2246.963621 296.075168 
L -2238.915544 294.134685 
L -2230.867467 293.132235 
L -2222.81939 291.024806 
L -2214.771313 290.410639 
L -2206.723236 288.518072 
L -2198.675159 285.84661 
L -2190.627082 283.57492 
L -2182.579005 281.78947 
L -2174.530929 279.025044 
L -2166.482852 277.223556 
L -2158.434775 274.722786 
L -2150.386698 272.478443 
L -2142.338621 269.721635 
L -2134.290544 267.401738 
L -2126.242467 264.340475 
L -2118.19439 261.870259 
L -2110.146313 259.204808 
L -2102.098236 255.750512 
L -2094.050159 252.510817 
L -2086.002082 250.077199 
L -2077.954005 247.192495 
L -2069.905929 243.719953 
L -2061.857852 240.92117 
L -2053.809775 237.683768 
L -2045.761698 233.208335 
L -2037.713621 231.104974 
L -2029.665544 227.256166 
L -2021.617467 224.177549 
L -2013.56939 220.709659 
L -2005.521313 216.974341 
L -1997.473236 213.12121 
L -1989.425159 209.693556 
L -1981.377082 205.241997 
L -1973.329005 202.367035 
L -1965.280929 198.005771 
L -1957.232852 195.077721 
L -1949.184775 190.61258 
L -1941.136698 186.290063 
L -1933.088621 182.269475 
L -1925.040544 179.0006 
L -1916.992467 173.9535 
L -1908.94439 170.520427 
L -1900.896313 166.101368 
L -1892.848236 162.438712 
L -1884.800159 157.795246 
L -1876.752082 153.681867 
L -1868.704005 152.79749 
L -1860.655929 145.108707 
L -1852.607852 143.536754 
L -1844.559775 138.648231 
L -1836.511698 135.198156 
L -1828.463621 131.357894 
L -1820.415544 127.282166 
L -1812.367467 123.564713 
L -1804.31939 119.96389 
L -1796.271313 116.554126 
L -1788.223236 113.129781 
L -1780.175159 115.065942 
L -1772.127082 105.731539 
L -1764.079005 103.113327 
L -1756.030929 110.047181 
L -1747.982852 98.874776 
L -1739.934775 100.288589 
L -1731.886698 98.723032 
L -1723.838621 92.739719 
L -1715.790544 93.336165 
L -1707.742467 98.441072 
L -1699.69439 94.090628 
L -1691.646313 91.921771 
L -1683.598236 95.011928 
L -1675.550159 93.43775 
L -1667.502082 95.486801 
L -1659.454005 98.378617 
L -1651.405929 103.529084 
L -1643.357852 115.8338 
L -1635.309775 112.714921 
L -1627.261698 119.292946 
L -1619.213621 124.711797 
L -1611.165544 127.53361 
L -1603.117467 136.872682 
L -1595.06939 143.309242 
L -1587.021313 132.859056 
L -1578.973236 144.335064 
L -1570.925159 158.506522 
L -1562.877082 165.404446 
L -1554.829005 168.628013 
L -1546.780929 187.360919 
L -1538.732852 188.985212 
L -1530.684775 194.181243 
L -1522.636698 192.94137 
L -1514.588621 208.764423 
L -1506.540544 204.01584 
L -1498.492467 201.368688 
L -1490.44439 214.892303 
L -1482.396313 224.525919 
L -1474.348236 223.79732 
L -1466.300159 229.552727 
L -1458.252082 231.487271 
L -1450.204005 231.922192 
L -1442.155929 232.00679 
L -1434.107852 235.224918 
L -1426.059775 237.075348 
L -1418.011698 246.897385 
L -1409.963621 241.975628 
L -1401.915544 250.527367 
L -1393.867467 248.678068 
L -1385.81939 247.590116 
L -1377.771313 251.07731 
L -1369.723236 254.186695 
L -1361.675159 250.354593 
L -1353.627082 252.299618 
L -1345.579005 252.45372 
L -1337.530929 257.0807 
L -1329.482852 254.813949 
L -1321.434775 253.753625 
L -1313.386698 255.065002 
L -1305.338621 257.255217 
L -1297.290544 256.127538 
L -1289.242467 253.874333 
L -1281.19439 255.045178 
L -1273.146313 251.623551 
L -1265.098236 251.884067 
L -1257.050159 257.271543 
L -1249.002082 256.81873 
L -1240.954005 253.568689 
L -1232.905929 252.641655 
L -1224.857852 252.824809 
L -1216.809775 249.288281 
L -1208.761698 249.896176 
L -1200.713621 249.669781 
L -1192.665544 248.737361 
L -1184.617467 247.604744 
L -1176.56939 245.301217 
L -1168.521313 246.284253 
L -1160.473236 244.650901 
L -1152.425159 244.101343 
L -1144.377082 243.117185 
L -1136.329005 242.963396 
L -1128.280929 241.138113 
L -1120.232852 238.030603 
L -1112.184775 237.672366 
L -1104.136698 235.111073 
L -1096.088621 231.522497 
L -1088.040544 233.787251 
L -1079.992467 228.98971 
L -1071.94439 230.720103 
L -1063.896313 229.662032 
L -1055.848236 229.812474 
L -1047.800159 226.691365 
L -1039.752082 226.319834 
L -1031.704005 225.743495 
L -1023.655929 221.925687 
L -1015.607852 222.707192 
L -1007.559775 222.252236 
L -999.511698 221.978367 
L -991.463621 220.10873 
L -983.415544 220.812606 
L -975.367467 218.903231 
L -967.31939 217.083766 
L -959.271313 214.277025 
L -951.223236 213.318832 
L -943.175159 212.659038 
L -935.127082 210.688471 
L -927.079005 210.891553 
L -919.030929 209.895169 
L -910.982852 208.146614 
L -902.934775 208.146743 
L -894.886698 206.179722 
L -886.838621 207.70744 
L -878.790544 206.327375 
L -870.742467 206.341804 
L -862.69439 203.927588 
L -854.646313 200.651381 
L -846.598236 203.359472 
L -838.550159 203.231931 
L -830.502082 202.146272 
L -822.454005 201.024953 
L -814.405929 198.745188 
L -806.357852 198.211258 
L -798.309775 196.952268 
L -790.261698 197.11998 
L -782.213621 196.637048 
L -774.165544 194.477046 
L -766.117467 191.419572 
L -758.06939 195.358738 
L -750.021313 194.405481 
L -741.973236 191.812525 
L -733.925159 193.445428 
L -725.877082 188.816573 
L -717.829005 189.373296 
L -709.780929 189.660974 
L -701.732852 186.521921 
L -693.684775 191.847264 
L -685.636698 186.495874 
L -677.588621 183.774941 
L -669.540544 187.256741 
L -661.492467 188.198971 
L -653.44439 186.496586 
L -645.396313 187.854425 
L -637.348236 185.404938 
L -629.300159 190.187199 
L -621.252082 187.76957 
L -613.204005 188.765056 
L -605.155929 185.521621 
L -597.107852 182.6191 
L -589.059775 186.352273 
L -581.011698 193.034594 
L -572.963621 185.463026 
L -564.915544 185.90608 
L -556.867467 183.088769 
L -548.81939 184.447514 
L -540.771313 184.089555 
L -532.723236 182.356343 
L -524.675159 181.721623 
L -516.627082 184.986031 
L -508.579005 183.31785 
L -500.530929 186.304327 
L -492.482852 186.88467 
L -484.434775 178.297157 
L -476.386698 181.880821 
L -468.338621 182.2115 
L -460.290544 182.845488 
L -452.242467 183.412508 
L -444.19439 188.966542 
L -436.146313 191.208544 
L -428.098236 190.996667 
L -420.050159 197.111843 
L -412.002082 207.21718 
L -403.954005 195.266621 
L -395.905929 195.164806 
L -387.857852 195.45258 
L -379.809775 199.473482 
L -371.761698 200.41954 
L -363.713621 200.423674 
L -355.665544 209.125799 
L -347.617467 212.353703 
L -339.56939 202.528595 
L -331.521313 211.473322 
L -323.473236 207.104594 
L -315.425159 204.397063 
L -307.377082 215.271957 
L -299.329005 213.147179 
L -291.280929 220.190043 
L -283.232852 218.098208 
L -275.184775 213.412585 
L -267.136698 217.853377 
L -259.088621 217.914551 
L -251.040544 222.286356 
L -242.992467 219.63631 
L -234.94439 226.809896 
L -226.896313 221.773048 
L -218.848236 225.597229 
L -210.800159 224.906725 
L -202.752082 229.109096 
L -194.704005 222.514772 
L -186.655929 229.714839 
L -178.607852 229.385456 
L -170.559775 234.32958 
L -162.511698 236.973441 
L -154.463621 237.062966 
L -146.415544 235.890012 
L -138.367467 239.09906 
L -130.31939 241.505918 
L -122.271313 239.481218 
L -114.223236 238.767029 
L -106.175159 241.589056 
L -98.127082 244.157799 
L -90.079005 239.892494 
L -82.030929 237.448725 
L -73.982852 247.404776 
L -65.934775 251.948142 
L -57.886698 241.872225 
L -49.838621 244.908018 
L -41.790544 246.449867 
L -33.742467 247.220731 
L -25.69439 252.349227 
L -17.646313 251.72785 
L -9.598236 249.688296 
L -1.550159 251.926295 
L 6.497918 252.554806 
L 14.545995 247.123842 
L 22.594071 249.910794 
L 30.642148 248.228025 
L 38.690225 255.804031 
L 46.738302 265.134731 
L 54.786379 263.828819 
L 62.834456 256.476938 
L 70.882533 255.702246 
L 78.93061 256.741297 
L 86.978687 257.116215 
L 95.026764 264.032092 
L 103.074841 255.311213 
L 111.122918 264.581697 
L 119.170995 272.050398 
L 127.219071 265.886944 
L 135.267148 275.478567 
L 143.315225 269.547179 
L 151.363302 274.782402 
L 159.411379 271.404052 
L 167.459456 274.013643 
L 175.507533 279.208046 
L 183.55561 278.92537 
L 191.603687 280.556241 
L 199.651764 281.040908 
L 207.699841 281.69394 
L 215.747918 269.338703 
L 223.795995 285.541186 
L 231.844071 292.286433 
L 239.892148 285.996015 
L 247.940225 291.97687 
L 255.988302 293.458385 
L 264.036379 290.285047 
L 272.084456 297.047018 
L 280.132533 301.732749 
L 288.18061 299.323302 
L 296.228687 301.268749 
L 304.276764 302.468418 
L 312.324841 304.282506 
L 320.372918 309.546532 
L 328.420995 299.622842 
L 336.469071 312.633548 
L 344.517148 313.331482 
L 352.565225 314.211367 
L 360.613302 306.652314 
L 368.661379 316.599461 
L 376.709456 323.390287 
L 384.757533 317.34178 
L 392.80561 318.50473 
L 400.853687 327.897179 
L 408.901764 312.724432 
L 416.949841 327.722264 
L 424.997918 319.07546 
L 433.045995 332.354305 
L 441.094071 326.993493 
L 449.142148 333.07257 
L 457.190225 335.346233 
L 465.238302 338.333795 
L 473.286379 339.661265 
L 481.334456 336.860326 
L 489.382533 337.634735 
L 497.43061 340.025751 
L 505.478687 346.43125 
L 513.526764 346.365804 
L 521.574841 346.924145 
L 529.622918 351.182733 
L 537.670995 352.09442 
L 545.719071 349.857165 
L 553.767148 350.811255 
L 561.815225 356.89634 
L 569.863302 358.331548 
L 577.911379 360.305308 
L 585.959456 356.729947 
L 594.007533 350.825638 
L 602.05561 358.510459 
L 610.103687 356.939349 
L 618.151764 359.436335 
L 626.199841 363.010146 
L 634.247918 359.649377 
L 642.295995 365.154545 
L 650.344071 362.033175 
L 658.392148 362.003013 
L 666.440225 362.130833 
L 674.488302 366.924497 
L 682.536379 366.220998 
L 690.584456 366.258954 
L 698.632533 363.463849 
L 706.68061 365.543254 
L 714.728687 366.623624 
L 722.776764 366.107393 
L 730.824841 369.32071 
L 738.872918 368.895064 
L 746.920995 370.754893 
L 754.969071 372.837376 
L 763.017148 372.897505 
L 771.065225 371.281382 
L 779.113302 371.846178 
L 787.161379 370.888777 
L 795.209456 372.374276 
L 803.257533 372.756155 
L 811.30561 370.728586 
L 819.353687 372.962832 
L 827.401764 362.788141 
L 835.449841 372.612134 
L 843.497918 376.288734 
L 851.545995 372.049841 
L 859.594071 371.821892 
L 867.642148 377.64 
L 875.690225 375.145243 
L 883.738302 371.406409 
L 891.786379 370.934643 
L 899.834456 372.984615 
L 907.882533 371.85466 
L 915.93061 375.944775 
L 923.978687 374.049234 
L 932.026764 376.774475 
L 940.074841 377.216857 
L 940.074841 371.893397 
L 940.074841 371.893397 
L 932.026764 374.195055 
L 923.978687 370.157416 
L 915.93061 375.164007 
L 907.882533 366.034814 
L 899.834456 368.827654 
L 891.786379 367.583205 
L 883.738302 357.670721 
L 875.690225 370.627727 
L 867.642148 375.308332 
L 859.594071 358.723292 
L 851.545995 366.979804 
L 843.497918 374.588756 
L 835.449841 369.637462 
L 827.401764 307.4024 
L 819.353687 367.64133 
L 811.30561 356.340112 
L 803.257533 368.308623 
L 795.209456 367.233489 
L 787.161379 362.425761 
L 779.113302 362.737651 
L 771.065225 361.429788 
L 763.017148 368.233598 
L 754.969071 368.336775 
L 746.920995 359.14713 
L 738.872918 353.044576 
L 730.824841 358.070483 
L 722.776764 349.247899 
L 714.728687 352.507466 
L 706.68061 347.310642 
L 698.632533 340.708045 
L 690.584456 349.611782 
L 682.536379 350.473203 
L 674.488302 350.411755 
L 666.440225 339.896453 
L 658.392148 337.581699 
L 650.344071 336.988756 
L 642.295995 349.007721 
L 634.247918 332.062792 
L 626.199841 343.221735 
L 618.151764 333.255355 
L 610.103687 325.634516 
L 602.05561 331.486048 
L 594.007533 304.420565 
L 585.959456 328.111225 
L 577.911379 337.611527 
L 569.863302 332.390508 
L 561.815225 329.735511 
L 553.767148 307.882081 
L 545.719071 308.297748 
L 537.670995 315.655063 
L 529.622918 314.747293 
L 521.574841 302.424419 
L 513.526764 302.667669 
L 505.478687 301.29479 
L 497.43061 289.334656 
L 489.382533 278.931164 
L 481.334456 276.376806 
L 473.286379 284.986292 
L 465.238302 282.159444 
L 457.190225 276.727877 
L 449.142148 271.173386 
L 441.094071 253.561692 
L 433.045995 270.620148 
L 424.997918 225.596774 
L 416.949841 255.751864 
L 408.901764 212.938955 
L 400.853687 259.038344 
L 392.80561 233.320235 
L 384.757533 232.676815 
L 376.709456 245.667454 
L 368.661379 230.000844 
L 360.613302 201.571119 
L 352.565225 222.217903 
L 344.517148 221.686702 
L 336.469071 220.681583 
L 328.420995 187.519031 
L 320.372918 203.843106 
L 312.324841 199.831788 
L 304.276764 197.481119 
L 296.228687 193.783072 
L 288.18061 186.800057 
L 280.132533 193.536796 
L 272.084456 181.211108 
L 264.036379 165.919397 
L 255.988302 178.461391 
L 247.940225 168.351082 
L 239.892148 159.369294 
L 231.844071 173.879749 
L 223.795995 157.977357 
L 215.747918 117.231666 
L 207.699841 146.863839 
L 199.651764 145.615379 
L 191.603687 145.646204 
L 183.55561 141.984995 
L 175.507533 142.095828 
L 167.459456 130.939578 
L 159.411379 126.327323 
L 151.363302 134.831381 
L 143.315225 118.673323 
L 135.267148 135.116336 
L 127.219071 112.676977 
L 119.170995 125.498537 
L 111.122918 110.54001 
L 103.074841 92.024314 
L 95.026764 108.92193 
L 86.978687 92.716352 
L 78.93061 93.796372 
L 70.882533 93.048756 
L 62.834456 94.59011 
L 54.786379 109.854898 
L 46.738302 113.455728 
L 38.690225 95.048721 
L 30.642148 76.196791 
L 22.594071 81.440079 
L 14.545995 77.611587 
L 6.497918 89.400241 
L -1.550159 88.147086 
L -9.598236 83.371583 
L -17.646313 89.496154 
L -25.69439 88.991461 
L -33.742467 79.397095 
L -41.790544 80.53978 
L -49.838621 76.822217 
L -57.886698 72.245995 
L -65.934775 93.864932 
L -73.982852 81.700002 
L -82.030929 65.041093 
L -90.079005 73.040748 
L -98.127082 80.193124 
L -106.175159 75.485803 
L -114.223236 71.873044 
L -122.271313 74.733297 
L -130.31939 82.310405 
L -138.367467 74.169643 
L -146.415544 71.197357 
L -154.463621 74.57075 
L -162.511698 69.488091 
L -170.559775 71.177231 
L -178.607852 60.914975 
L -186.655929 64.715349 
L -194.704005 52.193611 
L -202.752082 63.086265 
L -210.800159 58.05026 
L -218.848236 61.137999 
L -226.896313 57.765086 
L -234.94439 64.454514 
L -242.992467 53.255289 
L -251.040544 60.440698 
L -259.088621 53.419545 
L -267.136698 54.896287 
L -275.184775 49.421556 
L -283.232852 52.484377 
L -291.280929 60.632592 
L -299.329005 52.997697 
L -307.377082 55.02707 
L -315.425159 39.888472 
L -323.473236 47.098487 
L -331.521313 50.833166 
L -339.56939 39.221248 
L -347.617467 52.524842 
L -355.665544 53.719256 
L -363.713621 38.993844 
L -371.761698 39.449906 
L -379.809775 38.598744 
L -387.857852 33.435177 
L -395.905929 37.352683 
L -403.954005 36.230244 
L -412.002082 53.977073 
L -420.050159 42.130471 
L -428.098236 33.458239 
L -436.146313 33.958183 
L -444.19439 31.613607 
L -452.242467 26.51118 
L -460.290544 28.731052 
L -468.338621 25.407685 
L -476.386698 29.801478 
L -484.434775 24.84 
L -492.482852 35.164065 
L -500.530929 36.820768 
L -508.579005 34.831745 
L -516.627082 37.377399 
L -524.675159 33.875027 
L -532.723236 37.159274 
L -540.771313 39.195758 
L -548.81939 44.197745 
L -556.867467 40.718168 
L -564.915544 46.274038 
L -572.963621 45.504894 
L -581.011698 55.61362 
L -589.059775 49.246741 
L -597.107852 45.973378 
L -605.155929 50.433529 
L -613.204005 52.58585 
L -621.252082 52.971292 
L -629.300159 58.896216 
L -637.348236 54.186186 
L -645.396313 58.221488 
L -653.44439 56.575665 
L -661.492467 57.675982 
L -669.540544 56.207716 
L -677.588621 53.967748 
L -685.636698 58.706413 
L -693.684775 64.954273 
L -701.732852 58.885236 
L -709.780929 62.587843 
L -717.829005 61.173318 
L -725.877082 63.341109 
L -733.925159 68.178981 
L -741.973236 66.704977 
L -750.021313 70.643874 
L -758.06939 71.770671 
L -766.117467 67.583672 
L -774.165544 70.227835 
L -782.213621 73.159049 
L -790.261698 74.282324 
L -798.309775 74.267163 
L -806.357852 76.373546 
L -814.405929 76.152019 
L -822.454005 79.224662 
L -830.502082 80.143552 
L -838.550159 80.903129 
L -846.598236 81.657178 
L -854.646313 76.430712 
L -862.69439 82.375144 
L -870.742467 84.796962 
L -878.790544 84.205026 
L -886.838621 84.459987 
L -894.886698 84.557897 
L -902.934775 86.326319 
L -910.982852 85.81542 
L -919.030929 88.435662 
L -927.079005 89.377783 
L -935.127082 88.800409 
L -943.175159 89.77571 
L -951.223236 91.081593 
L -959.271313 92.432234 
L -967.31939 96.926945 
L -975.367467 98.002723 
L -983.415544 100.193773 
L -991.463621 99.114248 
L -999.511698 101.228264 
L -1007.559775 101.454631 
L -1015.607852 102.123514 
L -1023.655929 99.872571 
L -1031.704005 106.218355 
L -1039.752082 106.809393 
L -1047.800159 107.269536 
L -1055.848236 111.107555 
L -1063.896313 110.894603 
L -1071.94439 112.527291 
L -1079.992467 110.66693 
L -1088.040544 115.94637 
L -1096.088621 114.473746 
L -1104.136698 119.574686 
L -1112.184775 123.224037 
L -1120.232852 124.333919 
L -1128.280929 128.90285 
L -1136.329005 132.493114 
L -1144.377082 132.447364 
L -1152.425159 134.685027 
L -1160.473236 135.383065 
L -1168.521313 138.290312 
L -1176.56939 137.556454 
L -1184.617467 141.570649 
L -1192.665544 144.589628 
L -1200.713621 146.407775 
L -1208.761698 147.519443 
L -1216.809775 148.414416 
L -1224.857852 152.733809 
L -1232.905929 153.804971 
L -1240.954005 156.497107 
L -1249.002082 160.430015 
L -1257.050159 161.725574 
L -1265.098236 158.323682 
L -1273.146313 159.435932 
L -1281.19439 163.728541 
L -1289.242467 164.273595 
L -1297.290544 167.23641 
L -1305.338621 169.388086 
L -1313.386698 168.294311 
L -1321.434775 169.624751 
L -1329.482852 171.279378 
L -1337.530929 174.220993 
L -1345.579005 171.023144 
L -1353.627082 172.458054 
L -1361.675159 172.498557 
L -1369.723236 176.658287 
L -1377.771313 176.174571 
L -1385.81939 173.907726 
L -1393.867467 176.128347 
L -1401.915544 178.413165 
L -1409.963621 172.48851 
L -1418.011698 177.979106 
L -1426.059775 171.014811 
L -1434.107852 170.745036 
L -1442.155929 169.386712 
L -1450.204005 171.093432 
L -1458.252082 171.631739 
L -1466.300159 170.839532 
L -1474.348236 167.562962 
L -1482.396313 170.212123 
L -1490.44439 162.466246 
L -1498.492467 154.83899 
L -1506.540544 156.893193 
L -1514.588621 161.130053 
L -1522.636698 150.884688 
L -1530.684775 151.359181 
L -1538.732852 149.114494 
L -1546.780929 148.652112 
L -1554.829005 133.76712 
L -1562.877082 132.588761 
L -1570.925159 127.174756 
L -1578.973236 115.51693 
L -1587.021313 107.227868 
L -1595.06939 116.451024 
L -1603.117467 112.285837 
L -1611.165544 105.037124 
L -1619.213621 101.902058 
L -1627.261698 96.64384 
L -1635.309775 89.790653 
L -1643.357852 93.419911 
L -1651.405929 80.350146 
L -1659.454005 75.667788 
L -1667.502082 72.548946 
L -1675.550159 70.699094 
L -1683.598236 72.317004 
L -1691.646313 69.218663 
L -1699.69439 71.560659 
L -1707.742467 76.350282 
L -1715.790544 71.708099 
L -1723.838621 71.16356 
L -1731.886698 77.607999 
L -1739.934775 79.357688 
L -1747.982852 78.330793 
L -1756.030929 89.625038 
L -1764.079005 83.278952 
L -1772.127082 85.842351 
L -1780.175159 95.804501 
L -1788.223236 93.976355 
L -1796.271313 97.461781 
L -1804.31939 100.621115 
L -1812.367467 104.013371 
L -1820.415544 107.750815 
L -1828.463621 111.674561 
L -1836.511698 115.483741 
L -1844.559775 118.763206 
L -1852.607852 123.185834 
L -1860.655929 124.542666 
L -1868.704005 132.043363 
L -1876.752082 132.624364 
L -1884.800159 136.625368 
L -1892.848236 141.035903 
L -1900.896313 144.469985 
L -1908.94439 148.662617 
L -1916.992467 152.021233 
L -1925.040544 156.746645 
L -1933.088621 159.733624 
L -1941.136698 163.30239 
L -1949.184775 167.423843 
L -1957.232852 171.614166 
L -1965.280929 174.299051 
L -1973.329005 178.347969 
L -1981.377082 181.211318 
L -1989.425159 185.355447 
L -1997.473236 188.635433 
L -2005.521313 191.893853 
L -2013.56939 195.463036 
L -2021.617467 198.658513 
L -2029.665544 201.417574 
L -2037.713621 204.899989 
L -2045.761698 206.815193 
L -2053.809775 211.035722 
L -2061.857852 213.975527 
L -2069.905929 216.596806 
L -2077.954005 219.732248 
L -2086.002082 221.75613 
L -2094.050159 224.562988 
L -2102.098236 227.432656 
L -2110.146313 230.560741 
L -2118.19439 233.010817 
L -2126.242467 235.420585 
L -2134.290544 238.022986 
L -2142.338621 240.530476 
L -2150.386698 243.209326 
L -2158.434775 245.390531 
L -2166.482852 247.7394 
L -2174.530929 249.694754 
L -2182.579005 252.31687 
L -2190.627082 254.265732 
L -2198.675159 256.441702 
L -2206.723236 259.099134 
L -2214.771313 260.993795 
L -2222.81939 261.674872 
L -2230.867467 263.876178 
L -2238.915544 265.084784 
L -2246.963621 267.205452 
L -2255.011698 269.642207 
L -2263.059775 270.969514 
L -2271.107852 272.215445 
L -2279.155929 272.576029 
L -2287.204005 273.86229 
L -2295.252082 274.677541 
L -2303.300159 275.542776 
L -2311.348236 277.28841 
L -2319.396313 278.348793 
L -2327.44439 279.817845 
L -2335.492467 279.141795 
L -2343.540544 279.985476 
L -2351.588621 278.859945 
L -2359.636698 280.833078 
L -2367.684775 281.199099 
L -2375.732852 282.657933 
L -2383.780929 279.787499 
L -2391.829005 283.420978 
L -2399.877082 283.20565 
L -2407.925159 281.23082 
L -2415.973236 280.778129 
L -2424.021313 282.679049 
L -2432.06939 285.917199 
L -2440.117467 284.739821 
L -2448.165544 284.726003 
L -2456.213621 281.572546 
L -2464.261698 281.576712 
L -2472.309775 282.536621 
L -2480.357852 284.526057 
L -2488.405929 283.917874 
L -2496.454005 283.53784 
L -2504.502082 283.867358 
L -2512.550159 285.0824 
L -2520.598236 284.816919 
L -2528.646313 285.585678 
L -2536.69439 286.854171 
L -2544.742467 285.965022 
L -2552.790544 287.794672 
L -2560.838621 288.071348 
L -2568.886698 288.284305 
L -2576.934775 289.433323 
L -2584.982852 289.712713 
L -2593.030929 290.983452 
L -2601.079005 292.371368 
L -2609.127082 292.37551 
L -2617.175159 291.789522 
L -2625.223236 291.362826 
L -2633.271313 294.314271 
L -2641.31939 293.779083 
L -2649.367467 295.75491 
L -2657.415544 295.771115 
L -2665.463621 294.98464 
L -2673.511698 296.94059 
L -2681.559775 295.083225 
L -2689.607852 295.158155 
L -2697.655929 297.649663 
L -2705.704005 295.828806 
L -2713.752082 298.184901 
L -2721.800159 298.932891 
L -2729.848236 296.923559 
L -2737.896313 290.556537 
L -2745.94439 294.618602 
L -2753.992467 292.669866 
L -2762.040544 283.211878 
L -2770.088621 291.278612 
L -2778.136698 292.941686 
L -2786.184775 284.205599 
L -2794.232852 281.826639 
L -2802.280929 286.536507 
L -2810.329005 277.076895 
L -2818.377082 260.949331 
L -2826.425159 278.850346 
L -2834.473236 286.117325 
L -2842.521313 289.747254 
L -2850.56939 267.210527 
L -2858.617467 268.229283 
L -2866.665544 257.137534 
L -2874.713621 248.414089 
L -2882.761698 266.33433 
L -2890.809775 258.791107 
L -2898.857852 243.1282 
L -2906.905929 232.057988 
L -2914.954005 232.908282 
L -2923.002082 235.03328 
L -2931.050159 232.827272 
L -2939.098236 231.588665 
L -2947.146313 238.232963 
L -2955.19439 237.637431 
L -2963.242467 233.633597 
L -2971.290544 236.406878 
L -2979.338621 234.86478 
L -2987.386698 234.416663 
L -2995.434775 234.826974 
L -3003.482852 237.566782 
L -3011.530929 239.288631 
L -3019.579005 240.369214 
L -3027.627082 242.789122 
L -3035.675159 244.041325 
L -3043.723236 246.0348 
L -3051.771313 249.034652 
L -3059.81939 251.488545 
L -3067.867467 253.175519 
L -3075.915544 255.042739 
L -3083.963621 257.425372 
L -3092.011698 259.006294 
L -3100.059775 261.290074 
L -3108.107852 264.018086 
L -3116.155929 265.705003 
L -3124.204005 266.925647 
L -3132.252082 268.647466 
L -3140.300159 270.414207 
L -3148.348236 272.028622 
L -3156.396313 273.573681 
L -3164.44439 275.066104 
L -3172.492467 277.050504 
L -3180.540544 278.152508 
L -3188.588621 279.627667 
L -3196.636698 281.176802 
L -3204.684775 282.501861 
L -3212.732852 283.802188 
L -3220.780929 284.90718 
L -3228.829005 286.10246 
L -3236.877082 287.633785 
L -3244.925159 288.742757 
L -3252.973236 290.014958 
L -3261.021313 291.065982 
L -3269.06939 292.21763 
L -3277.117467 293.383528 
L -3285.165544 294.566162 
L -3293.213621 295.567857 
L -3301.261698 296.737094 
L -3309.309775 297.765202 
L -3317.357852 298.86337 
L -3325.405929 299.892384 
L -3333.454005 300.939961 
L -3341.502082 301.928544 
L -3349.550159 302.955957 
L -3357.598236 304.046349 
L -3365.646313 304.899839 
L -3373.69439 305.932249 
L -3381.742467 306.838332 
L -3389.790544 307.865877 
L -3397.838621 308.650787 
L -3405.886698 309.609114 
L -3413.934775 310.529058 
L -3421.982852 311.401449 
L -3430.030929 312.272857 
L -3438.079005 313.080271 
L -3446.127082 314.018063 
L -3454.175159 314.864208 
L -3462.223236 315.565443 
L -3470.271313 316.394585 
L -3478.31939 317.223072 
L -3486.367467 318.048251 
L -3494.415544 318.846053 
L -3502.463621 319.592424 
L -3510.511698 320.412366 
L -3518.559775 321.217753 
L -3526.607852 322.028184 
L -3534.655929 322.83704 
L -3542.704005 323.668144 
L -3550.752082 324.531997 
L -3558.800159 325.28205 
L -3566.848236 326.137079 
L -3574.896313 326.977705 
L -3582.94439 327.787381 
L -3590.992467 328.622728 
L -3599.040544 329.475507 
L -3607.088621 330.305204 
L -3615.136698 331.175028 
L -3623.184775 331.973134 
L -3631.232852 332.787543 
L -3639.280929 333.647 
L -3647.329005 334.479852 
L -3655.377082 335.27373 
L -3663.425159 336.112525 
L -3671.473236 336.883798 
L -3679.521313 337.706282 
L -3687.56939 338.580486 
L -3695.617467 339.339391 
L -3703.665544 340.183851 
L -3711.713621 340.987451 
L -3719.761698 341.8288 
L -3727.809775 342.596791 
L -3735.857852 343.4861 
L -3743.905929 344.233645 
L -3751.954005 345.065691 
L -3760.002082 345.881603 
L -3768.050159 346.717148 
L -3776.098236 347.514403 
L -3784.146313 348.325541 
L -3792.19439 349.139709 
L -3800.242467 349.979104 
L -3808.290544 350.762712 
L -3816.338621 351.512594 
L -3824.386698 352.273386 
L -3832.434775 353.033185 
L -3840.482852 353.754628 
L -3848.530929 354.484344 
L -3856.579005 355.204632 
L -3864.627082 355.893707 
L -3872.675159 356.588684 
L -3880.723236 357.278737 
L -3888.771313 357.910176 
L -3896.81939 358.549802 
L -3904.867467 359.213066 
L -3912.915544 359.842387 
L -3920.963621 360.408943 
L -3929.011698 361.026396 
L -3937.059775 361.592887 
L -3945.107852 362.116661 
L -3953.155929 362.638781 
L -3961.204005 363.127958 
L -3969.252082 363.650346 
L -3977.300159 364.087027 
L -3985.348236 364.544547 
L -3993.396313 364.97567 
L -4001.44439 365.376136 
L -4009.492467 365.74252 
L -4017.540544 366.076946 
L -4025.588621 366.40806 
L -4033.636698 366.735299 
L -4041.684775 367.009675 
L -4049.732852 367.312238 
L -4057.780929 367.571176 
L -4065.829005 367.796603 
L -4073.877082 368.056287 
L -4081.925159 368.285394 
L -4089.973236 368.47781 
L -4098.021313 368.682263 
L -4106.06939 368.880961 
L -4114.117467 369.057275 
L -4122.165544 369.233671 
L -4130.213621 369.38199 
L -4138.261698 369.55743 
L -4146.309775 369.699814 
L -4154.357852 369.848336 
L -4162.405929 370.003104 
L -4170.454005 370.13169 
L -4178.502082 370.266763 
L -4186.550159 370.438883 
L -4194.598236 370.564014 
L -4202.646313 370.714117 
L -4210.69439 370.8352 
L -4218.742467 370.991822 
L -4226.790544 371.117097 
L -4234.838621 371.247369 
L -4242.886698 371.363732 
L -4250.934775 371.469353 
L -4258.982852 371.587345 
L -4267.030929 371.714791 
L -4275.079005 371.839574 
L -4283.127082 371.947022 
L -4291.175159 372.036418 
L -4299.223236 372.159152 
L -4307.271313 372.262221 
L -4315.31939 372.384052 
z
" clip-path="url(#pf7afcb1d35)" style="fill: #008000; fill-opacity: 0.3; stroke: #008000; stroke-opacity: 0.3"/>
   </g>
   <g id="matplotlib.axis_1">
    <g id="xtick_1">
     <g id="line2d_1">
      <defs>
       <path id="m07bc4c4997" d="M 0 0 
L 0 3.5 
" style="stroke: #000000; stroke-width: 0.8"/>
      </defs>
      <g>
       <use xlink:href="#m07bc4c4997" x="103.074841" y="395.28" style="stroke: #000000; stroke-width: 0.8"/>
      </g>
     </g>
     <g id="text_1">
      <!-- 2023-01-01 -->
      <g transform="translate(17.945813 495.213718) rotate(-45) scale(0.2 -0.2)">
       <defs>
        <path id="DejaVuSans-32" d="M 1228 531 
L 3431 531 
L 3431 0 
L 469 0 
L 469 531 
Q 828 903 1448 1529 
Q 2069 2156 2228 2338 
Q 2531 2678 2651 2914 
Q 2772 3150 2772 3378 
Q 2772 3750 2511 3984 
Q 2250 4219 1831 4219 
Q 1534 4219 1204 4116 
Q 875 4013 500 3803 
L 500 4441 
Q 881 4594 1212 4672 
Q 1544 4750 1819 4750 
Q 2544 4750 2975 4387 
Q 3406 4025 3406 3419 
Q 3406 3131 3298 2873 
Q 3191 2616 2906 2266 
Q 2828 2175 2409 1742 
Q 1991 1309 1228 531 
z
" transform="scale(0.015625)"/>
        <path id="DejaVuSans-30" d="M 2034 4250 
Q 1547 4250 1301 3770 
Q 1056 3291 1056 2328 
Q 1056 1369 1301 889 
Q 1547 409 2034 409 
Q 2525 409 2770 889 
Q 3016 1369 3016 2328 
Q 3016 3291 2770 3770 
Q 2525 4250 2034 4250 
z
M 2034 4750 
Q 2819 4750 3233 4129 
Q 3647 3509 3647 2328 
Q 3647 1150 3233 529 
Q 2819 -91 2034 -91 
Q 1250 -91 836 529 
Q 422 1150 422 2328 
Q 422 3509 836 4129 
Q 1250 4750 2034 4750 
z
" transform="scale(0.015625)"/>
        <path id="DejaVuSans-33" d="M 2597 2516 
Q 3050 2419 3304 2112 
Q 3559 1806 3559 1356 
Q 3559 666 3084 287 
Q 2609 -91 1734 -91 
Q 1441 -91 1130 -33 
Q 819 25 488 141 
L 488 750 
Q 750 597 1062 519 
Q 1375 441 1716 441 
Q 2309 441 2620 675 
Q 2931 909 2931 1356 
Q 2931 1769 2642 2001 
Q 2353 2234 1838 2234 
L 1294 2234 
L 1294 2753 
L 1863 2753 
Q 2328 2753 2575 2939 
Q 2822 3125 2822 3475 
Q 2822 3834 2567 4026 
Q 2313 4219 1838 4219 
Q 1578 4219 1281 4162 
Q 984 4106 628 3988 
L 628 4550 
Q 988 4650 1302 4700 
Q 1616 4750 1894 4750 
Q 2613 4750 3031 4423 
Q 3450 4097 3450 3541 
Q 3450 3153 3228 2886 
Q 3006 2619 2597 2516 
z
" transform="scale(0.015625)"/>
        <path id="DejaVuSans-2d" d="M 313 2009 
L 1997 2009 
L 1997 1497 
L 313 1497 
L 313 2009 
z
" transform="scale(0.015625)"/>
        <path id="DejaVuSans-31" d="M 794 531 
L 1825 531 
L 1825 4091 
L 703 3866 
L 703 4441 
L 1819 4666 
L 2450 4666 
L 2450 531 
L 3481 531 
L 3481 0 
L 794 0 
L 794 531 
z
" transform="scale(0.015625)"/>
       </defs>
       <use xlink:href="#DejaVuSans-32"/>
       <use xlink:href="#DejaVuSans-30" x="63.623047"/>
       <use xlink:href="#DejaVuSans-32" x="127.246094"/>
       <use xlink:href="#DejaVuSans-33" x="190.869141"/>
       <use xlink:href="#DejaVuSans-2d" x="254.492188"/>
       <use xlink:href="#DejaVuSans-30" x="290.576172"/>
       <use xlink:href="#DejaVuSans-31" x="354.199219"/>
       <use xlink:href="#DejaVuSans-2d" x="417.822266"/>
       <use xlink:href="#DejaVuSans-30" x="453.90625"/>
       <use xlink:href="#DejaVuSans-31" x="517.529297"/>
      </g>
     </g>
    </g>
    <g id="xtick_2">
     <g id="line2d_2">
      <g>
       <use xlink:href="#m07bc4c4997" x="215.747918" y="395.28" style="stroke: #000000; stroke-width: 0.8"/>
      </g>
     </g>
     <g id="text_2">
      <!-- 2023-01-15 -->
      <g transform="translate(130.61889 495.213718) rotate(-45) scale(0.2 -0.2)">
       <defs>
        <path id="DejaVuSans-35" d="M 691 4666 
L 3169 4666 
L 3169 4134 
L 1269 4134 
L 1269 2991 
Q 1406 3038 1543 3061 
Q 1681 3084 1819 3084 
Q 2600 3084 3056 2656 
Q 3513 2228 3513 1497 
Q 3513 744 3044 326 
Q 2575 -91 1722 -91 
Q 1428 -91 1123 -41 
Q 819 9 494 109 
L 494 744 
Q 775 591 1075 516 
Q 1375 441 1709 441 
Q 2250 441 2565 725 
Q 2881 1009 2881 1497 
Q 2881 1984 2565 2268 
Q 2250 2553 1709 2553 
Q 1456 2553 1204 2497 
Q 953 2441 691 2322 
L 691 4666 
z
" transform="scale(0.015625)"/>
       </defs>
       <use xlink:href="#DejaVuSans-32"/>
       <use xlink:href="#DejaVuSans-30" x="63.623047"/>
       <use xlink:href="#DejaVuSans-32" x="127.246094"/>
       <use xlink:href="#DejaVuSans-33" x="190.869141"/>
       <use xlink:href="#DejaVuSans-2d" x="254.492188"/>
       <use xlink:href="#DejaVuSans-30" x="290.576172"/>
       <use xlink:href="#DejaVuSans-31" x="354.199219"/>
       <use xlink:href="#DejaVuSans-2d" x="417.822266"/>
       <use xlink:href="#DejaVuSans-31" x="453.90625"/>
       <use xlink:href="#DejaVuSans-35" x="517.529297"/>
      </g>
     </g>
    </g>
    <g id="xtick_3">
     <g id="line2d_3">
      <g>
       <use xlink:href="#m07bc4c4997" x="328.420995" y="395.28" style="stroke: #000000; stroke-width: 0.8"/>
      </g>
     </g>
     <g id="text_3">
      <!-- 2023-01-29 -->
      <g transform="translate(243.291967 495.213718) rotate(-45) scale(0.2 -0.2)">
       <defs>
        <path id="DejaVuSans-39" d="M 703 97 
L 703 672 
Q 941 559 1184 500 
Q 1428 441 1663 441 
Q 2288 441 2617 861 
Q 2947 1281 2994 2138 
Q 2813 1869 2534 1725 
Q 2256 1581 1919 1581 
Q 1219 1581 811 2004 
Q 403 2428 403 3163 
Q 403 3881 828 4315 
Q 1253 4750 1959 4750 
Q 2769 4750 3195 4129 
Q 3622 3509 3622 2328 
Q 3622 1225 3098 567 
Q 2575 -91 1691 -91 
Q 1453 -91 1209 -44 
Q 966 3 703 97 
z
M 1959 2075 
Q 2384 2075 2632 2365 
Q 2881 2656 2881 3163 
Q 2881 3666 2632 3958 
Q 2384 4250 1959 4250 
Q 1534 4250 1286 3958 
Q 1038 3666 1038 3163 
Q 1038 2656 1286 2365 
Q 1534 2075 1959 2075 
z
" transform="scale(0.015625)"/>
       </defs>
       <use xlink:href="#DejaVuSans-32"/>
       <use xlink:href="#DejaVuSans-30" x="63.623047"/>
       <use xlink:href="#DejaVuSans-32" x="127.246094"/>
       <use xlink:href="#DejaVuSans-33" x="190.869141"/>
       <use xlink:href="#DejaVuSans-2d" x="254.492188"/>
       <use xlink:href="#DejaVuSans-30" x="290.576172"/>
       <use xlink:href="#DejaVuSans-31" x="354.199219"/>
       <use xlink:href="#DejaVuSans-2d" x="417.822266"/>
       <use xlink:href="#DejaVuSans-32" x="453.90625"/>
       <use xlink:href="#DejaVuSans-39" x="517.529297"/>
      </g>
     </g>
    </g>
    <g id="xtick_4">
     <g id="line2d_4">
      <g>
       <use xlink:href="#m07bc4c4997" x="441.094071" y="395.28" style="stroke: #000000; stroke-width: 0.8"/>
      </g>
     </g>
     <g id="text_4">
      <!-- 2023-02-12 -->
      <g transform="translate(355.965044 495.213718) rotate(-45) scale(0.2 -0.2)">
       <use xlink:href="#DejaVuSans-32"/>
       <use xlink:href="#DejaVuSans-30" x="63.623047"/>
       <use xlink:href="#DejaVuSans-32" x="127.246094"/>
       <use xlink:href="#DejaVuSans-33" x="190.869141"/>
       <use xlink:href="#DejaVuSans-2d" x="254.492188"/>
       <use xlink:href="#DejaVuSans-30" x="290.576172"/>
       <use xlink:href="#DejaVuSans-32" x="354.199219"/>
       <use xlink:href="#DejaVuSans-2d" x="417.822266"/>
       <use xlink:href="#DejaVuSans-31" x="453.90625"/>
       <use xlink:href="#DejaVuSans-32" x="517.529297"/>
      </g>
     </g>
    </g>
    <g id="xtick_5">
     <g id="line2d_5">
      <g>
       <use xlink:href="#m07bc4c4997" x="553.767148" y="395.28" style="stroke: #000000; stroke-width: 0.8"/>
      </g>
     </g>
     <g id="text_5">
      <!-- 2023-02-26 -->
      <g transform="translate(468.638121 495.213718) rotate(-45) scale(0.2 -0.2)">
       <defs>
        <path id="DejaVuSans-36" d="M 2113 2584 
Q 1688 2584 1439 2293 
Q 1191 2003 1191 1497 
Q 1191 994 1439 701 
Q 1688 409 2113 409 
Q 2538 409 2786 701 
Q 3034 994 3034 1497 
Q 3034 2003 2786 2293 
Q 2538 2584 2113 2584 
z
M 3366 4563 
L 3366 3988 
Q 3128 4100 2886 4159 
Q 2644 4219 2406 4219 
Q 1781 4219 1451 3797 
Q 1122 3375 1075 2522 
Q 1259 2794 1537 2939 
Q 1816 3084 2150 3084 
Q 2853 3084 3261 2657 
Q 3669 2231 3669 1497 
Q 3669 778 3244 343 
Q 2819 -91 2113 -91 
Q 1303 -91 875 529 
Q 447 1150 447 2328 
Q 447 3434 972 4092 
Q 1497 4750 2381 4750 
Q 2619 4750 2861 4703 
Q 3103 4656 3366 4563 
z
" transform="scale(0.015625)"/>
       </defs>
       <use xlink:href="#DejaVuSans-32"/>
       <use xlink:href="#DejaVuSans-30" x="63.623047"/>
       <use xlink:href="#DejaVuSans-32" x="127.246094"/>
       <use xlink:href="#DejaVuSans-33" x="190.869141"/>
       <use xlink:href="#DejaVuSans-2d" x="254.492188"/>
       <use xlink:href="#DejaVuSans-30" x="290.576172"/>
       <use xlink:href="#DejaVuSans-32" x="354.199219"/>
       <use xlink:href="#DejaVuSans-2d" x="417.822266"/>
       <use xlink:href="#DejaVuSans-32" x="453.90625"/>
       <use xlink:href="#DejaVuSans-36" x="517.529297"/>
      </g>
     </g>
    </g>
    <g id="xtick_6">
     <g id="line2d_6">
      <g>
       <use xlink:href="#m07bc4c4997" x="666.440225" y="395.28" style="stroke: #000000; stroke-width: 0.8"/>
      </g>
     </g>
     <g id="text_6">
      <!-- 2023-03-12 -->
      <g transform="translate(581.311198 495.213718) rotate(-45) scale(0.2 -0.2)">
       <use xlink:href="#DejaVuSans-32"/>
       <use xlink:href="#DejaVuSans-30" x="63.623047"/>
       <use xlink:href="#DejaVuSans-32" x="127.246094"/>
       <use xlink:href="#DejaVuSans-33" x="190.869141"/>
       <use xlink:href="#DejaVuSans-2d" x="254.492188"/>
       <use xlink:href="#DejaVuSans-30" x="290.576172"/>
       <use xlink:href="#DejaVuSans-33" x="354.199219"/>
       <use xlink:href="#DejaVuSans-2d" x="417.822266"/>
       <use xlink:href="#DejaVuSans-31" x="453.90625"/>
       <use xlink:href="#DejaVuSans-32" x="517.529297"/>
      </g>
     </g>
    </g>
    <g id="xtick_7">
     <g id="line2d_7">
      <g>
       <use xlink:href="#m07bc4c4997" x="779.113302" y="395.28" style="stroke: #000000; stroke-width: 0.8"/>
      </g>
     </g>
     <g id="text_7">
      <!-- 2023-03-26 -->
      <g transform="translate(693.984275 495.213718) rotate(-45) scale(0.2 -0.2)">
       <use xlink:href="#DejaVuSans-32"/>
       <use xlink:href="#DejaVuSans-30" x="63.623047"/>
       <use xlink:href="#DejaVuSans-32" x="127.246094"/>
       <use xlink:href="#DejaVuSans-33" x="190.869141"/>
       <use xlink:href="#DejaVuSans-2d" x="254.492188"/>
       <use xlink:href="#DejaVuSans-30" x="290.576172"/>
       <use xlink:href="#DejaVuSans-33" x="354.199219"/>
       <use xlink:href="#DejaVuSans-2d" x="417.822266"/>
       <use xlink:href="#DejaVuSans-32" x="453.90625"/>
       <use xlink:href="#DejaVuSans-36" x="517.529297"/>
      </g>
     </g>
    </g>
    <g id="xtick_8">
     <g id="line2d_8">
      <g>
       <use xlink:href="#m07bc4c4997" x="891.786379" y="395.28" style="stroke: #000000; stroke-width: 0.8"/>
      </g>
     </g>
     <g id="text_8">
      <!-- 2023-04-09 -->
      <g transform="translate(806.657352 495.213718) rotate(-45) scale(0.2 -0.2)">
       <defs>
        <path id="DejaVuSans-34" d="M 2419 4116 
L 825 1625 
L 2419 1625 
L 2419 4116 
z
M 2253 4666 
L 3047 4666 
L 3047 1625 
L 3713 1625 
L 3713 1100 
L 3047 1100 
L 3047 0 
L 2419 0 
L 2419 1100 
L 313 1100 
L 313 1709 
L 2253 4666 
z
" transform="scale(0.015625)"/>
       </defs>
       <use xlink:href="#DejaVuSans-32"/>
       <use xlink:href="#DejaVuSans-30" x="63.623047"/>
       <use xlink:href="#DejaVuSans-32" x="127.246094"/>
       <use xlink:href="#DejaVuSans-33" x="190.869141"/>
       <use xlink:href="#DejaVuSans-2d" x="254.492188"/>
       <use xlink:href="#DejaVuSans-30" x="290.576172"/>
       <use xlink:href="#DejaVuSans-34" x="354.199219"/>
       <use xlink:href="#DejaVuSans-2d" x="417.822266"/>
       <use xlink:href="#DejaVuSans-30" x="453.90625"/>
       <use xlink:href="#DejaVuSans-39" x="517.529297"/>
      </g>
     </g>
    </g>
    <g id="xtick_9">
     <g id="line2d_9">
      <g>
       <use xlink:href="#m07bc4c4997" x="940.074841" y="395.28" style="stroke: #000000; stroke-width: 0.8"/>
      </g>
     </g>
     <g id="text_9">
      <!-- 2023-04-15 -->
      <g transform="translate(854.945813 495.213718) rotate(-45) scale(0.2 -0.2)">
       <use xlink:href="#DejaVuSans-32"/>
       <use xlink:href="#DejaVuSans-30" x="63.623047"/>
       <use xlink:href="#DejaVuSans-32" x="127.246094"/>
       <use xlink:href="#DejaVuSans-33" x="190.869141"/>
       <use xlink:href="#DejaVuSans-2d" x="254.492188"/>
       <use xlink:href="#DejaVuSans-30" x="290.576172"/>
       <use xlink:href="#DejaVuSans-34" x="354.199219"/>
       <use xlink:href="#DejaVuSans-2d" x="417.822266"/>
       <use xlink:href="#DejaVuSans-31" x="453.90625"/>
       <use xlink:href="#DejaVuSans-35" x="517.529297"/>
      </g>
     </g>
    </g>
   </g>
   <g id="matplotlib.axis_2">
    <g id="ytick_1">
     <g id="line2d_10">
      <defs>
       <path id="md9dfffe835" d="M 0 0 
L -3.5 0 
" style="stroke: #000000; stroke-width: 0.8"/>
      </defs>
      <g>
       <use xlink:href="#md9dfffe835" x="103.074841" y="372.497959" style="stroke: #000000; stroke-width: 0.8"/>
      </g>
     </g>
     <g id="text_10">
      <!-- 0.00 -->
      <g transform="translate(51.543591 380.096396) scale(0.2 -0.2)">
       <defs>
        <path id="DejaVuSans-2e" d="M 684 794 
L 1344 794 
L 1344 0 
L 684 0 
L 684 794 
z
" transform="scale(0.015625)"/>
       </defs>
       <use xlink:href="#DejaVuSans-30"/>
       <use xlink:href="#DejaVuSans-2e" x="63.623047"/>
       <use xlink:href="#DejaVuSans-30" x="95.410156"/>
       <use xlink:href="#DejaVuSans-30" x="159.033203"/>
      </g>
     </g>
    </g>
    <g id="ytick_2">
     <g id="line2d_11">
      <g>
       <use xlink:href="#md9dfffe835" x="103.074841" y="288.702609" style="stroke: #000000; stroke-width: 0.8"/>
      </g>
     </g>
     <g id="text_11">
      <!-- 0.05 -->
      <g transform="translate(51.543591 296.301046) scale(0.2 -0.2)">
       <use xlink:href="#DejaVuSans-30"/>
       <use xlink:href="#DejaVuSans-2e" x="63.623047"/>
       <use xlink:href="#DejaVuSans-30" x="95.410156"/>
       <use xlink:href="#DejaVuSans-35" x="159.033203"/>
      </g>
     </g>
    </g>
    <g id="ytick_3">
     <g id="line2d_12">
      <g>
       <use xlink:href="#md9dfffe835" x="103.074841" y="204.907259" style="stroke: #000000; stroke-width: 0.8"/>
      </g>
     </g>
     <g id="text_12">
      <!-- 0.10 -->
      <g transform="translate(51.543591 212.505696) scale(0.2 -0.2)">
       <use xlink:href="#DejaVuSans-30"/>
       <use xlink:href="#DejaVuSans-2e" x="63.623047"/>
       <use xlink:href="#DejaVuSans-31" x="95.410156"/>
       <use xlink:href="#DejaVuSans-30" x="159.033203"/>
      </g>
     </g>
    </g>
    <g id="ytick_4">
     <g id="line2d_13">
      <g>
       <use xlink:href="#md9dfffe835" x="103.074841" y="121.111909" style="stroke: #000000; stroke-width: 0.8"/>
      </g>
     </g>
     <g id="text_13">
      <!-- 0.15 -->
      <g transform="translate(51.543591 128.710346) scale(0.2 -0.2)">
       <use xlink:href="#DejaVuSans-30"/>
       <use xlink:href="#DejaVuSans-2e" x="63.623047"/>
       <use xlink:href="#DejaVuSans-31" x="95.410156"/>
       <use xlink:href="#DejaVuSans-35" x="159.033203"/>
      </g>
     </g>
    </g>
    <g id="ytick_5">
     <g id="line2d_14">
      <g>
       <use xlink:href="#md9dfffe835" x="103.074841" y="37.316558" style="stroke: #000000; stroke-width: 0.8"/>
      </g>
     </g>
     <g id="text_14">
      <!-- 0.20 -->
      <g transform="translate(51.543591 44.914996) scale(0.2 -0.2)">
       <use xlink:href="#DejaVuSans-30"/>
       <use xlink:href="#DejaVuSans-2e" x="63.623047"/>
       <use xlink:href="#DejaVuSans-32" x="95.410156"/>
       <use xlink:href="#DejaVuSans-30" x="159.033203"/>
      </g>
     </g>
    </g>
   </g>
   <g id="line2d_15">
    <path d="M 449.142148 245.663997 
L 505.478687 245.663997 
L 505.478687 245.663997 
" clip-path="url(#pf7afcb1d35)" style="fill: none; stroke: #ffa500; stroke-width: 1.5; stroke-linecap: square"/>
   </g>
   <g id="line2d_16">
    <path d="M 103.074841 372.497959 
L 948.274841 372.497959 
" clip-path="url(#pf7afcb1d35)" style="fill: none; stroke-dasharray: 7.4,3.2; stroke-dashoffset: 0; stroke: #000000; stroke-width: 2"/>
   </g>
   <g id="patch_3">
    <path d="M 103.074841 395.28 
L 103.074841 7.2 
" style="fill: none; stroke: #000000; stroke-width: 0.8; stroke-linejoin: miter; stroke-linecap: square"/>
   </g>
   <g id="patch_4">
    <path d="M 940.074841 395.28 
L 940.074841 7.2 
" style="fill: none; stroke: #000000; stroke-width: 0.8; stroke-linejoin: miter; stroke-linecap: square"/>
   </g>
   <g id="patch_5">
    <path d="M 103.074841 395.28 
L 940.074841 395.28 
" style="fill: none; stroke: #000000; stroke-width: 0.8; stroke-linejoin: miter; stroke-linecap: square"/>
   </g>
   <g id="patch_6">
    <path d="M 103.074841 7.2 
L 940.074841 7.2 
" style="fill: none; stroke: #000000; stroke-width: 0.8; stroke-linejoin: miter; stroke-linecap: square"/>
   </g>
  </g>
 </g>
 <defs>
  <clipPath id="pf7afcb1d35">
   <rect x="103.074841" y="7.2" width="837" height="388.08"/>
  </clipPath>
 </defs>
</svg>
