<?xml version="1.0" encoding="utf-8" standalone="no"?>
<!DOCTYPE svg PUBLIC "-//W3C//DTD SVG 1.1//EN"
  "http://www.w3.org/Graphics/SVG/1.1/DTD/svg11.dtd">
<svg xmlns:xlink="http://www.w3.org/1999/xlink" width="947.274841pt" height="505.354841pt" viewBox="0 0 947.274841 505.354841" xmlns="http://www.w3.org/2000/svg" version="1.1">
 <metadata>
  <rdf:RDF xmlns:dc="http://purl.org/dc/elements/1.1/" xmlns:cc="http://creativecommons.org/ns#" xmlns:rdf="http://www.w3.org/1999/02/22-rdf-syntax-ns#">
   <cc:Work>
    <dc:type rdf:resource="http://purl.org/dc/dcmitype/StillImage"/>
    <dc:date>2023-11-12T23:20:09.869471</dc:date>
    <dc:format>image/svg+xml</dc:format>
    <dc:creator>
     <cc:Agent>
      <dc:title>Matplotlib v3.7.2, https://matplotlib.org/</dc:title>
     </cc:Agent>
    </dc:creator>
   </cc:Work>
  </rdf:RDF>
 </metadata>
 <defs>
  <style type="text/css">*{stroke-linejoin: round; stroke-linecap: butt}</style>
 </defs>
 <g id="figure_1">
  <g id="patch_1">
   <path d="M 0 505.354841 
L 947.274841 505.354841 
L 947.274841 -0 
L 0 -0 
z
" style="fill: #ffffff"/>
  </g>
  <g id="axes_1">
   <g id="patch_2">
    <path d="M 103.074841 395.28 
L 940.074841 395.28 
L 940.074841 7.2 
L 103.074841 7.2 
z
" style="fill: #ffffff"/>
   </g>
   <g id="PolyCollection_1">
    <path d="M -393.000769 244.120325 
L -393.000769 244.136484 
L -390.959306 244.052824 
L -388.917842 243.980665 
L -386.876379 243.888995 
L -384.834915 243.828291 
L -382.793452 243.75771 
L -380.751989 243.679037 
L -378.710525 243.601248 
L -376.669062 243.5283 
L -374.627598 243.464425 
L -372.586135 243.390424 
L -370.544672 243.312823 
L -368.503208 243.23745 
L -366.461745 243.144684 
L -364.420281 243.067997 
L -362.378818 242.977552 
L -360.337354 242.90017 
L -358.295891 242.795352 
L -356.254428 242.709332 
L -354.212964 242.626518 
L -352.171501 242.528463 
L -350.130037 242.432941 
L -348.088574 242.339617 
L -346.047111 242.226831 
L -344.005647 242.128346 
L -341.964184 242.012912 
L -339.92272 241.896111 
L -337.881257 241.766839 
L -335.839793 241.633996 
L -333.79833 241.50418 
L -331.756867 241.353788 
L -329.715403 241.183504 
L -327.67394 241.032642 
L -325.632476 240.861074 
L -323.591013 240.664926 
L -321.54955 240.48268 
L -319.508086 240.268723 
L -317.466623 240.051497 
L -315.425159 239.827848 
L -313.383696 239.591674 
L -311.342232 239.329729 
L -309.300769 239.050823 
L -307.259306 238.755269 
L -305.217842 238.470787 
L -303.176379 238.136123 
L -301.134915 237.818355 
L -299.093452 237.479855 
L -297.051989 237.140301 
L -295.010525 236.774638 
L -292.969062 236.378512 
L -290.927598 236.012495 
L -288.886135 235.604455 
L -286.844672 235.182121 
L -284.803208 234.768658 
L -282.761745 234.359775 
L -280.720281 233.91572 
L -278.678818 233.467006 
L -276.637354 233.019366 
L -274.595891 232.552865 
L -272.554428 232.080741 
L -270.512964 231.610252 
L -268.471501 231.123691 
L -266.430037 230.636205 
L -264.388574 230.156451 
L -262.347111 229.656655 
L -260.305647 229.121419 
L -258.264184 228.603215 
L -256.22272 228.086291 
L -254.181257 227.577643 
L -252.139793 227.047656 
L -250.09833 226.530133 
L -248.056867 226.003396 
L -246.015403 225.528592 
L -243.97394 224.967679 
L -241.932476 224.48265 
L -239.891013 223.950304 
L -237.84955 223.443542 
L -235.808086 222.913244 
L -233.766623 222.444042 
L -231.725159 221.903935 
L -229.683696 221.396437 
L -227.642232 220.919262 
L -225.600769 220.408395 
L -223.559306 219.92499 
L -221.517842 219.418721 
L -219.476379 218.902413 
L -217.434915 218.413774 
L -215.393452 217.935078 
L -213.351989 217.418926 
L -211.310525 216.92276 
L -209.269062 216.419532 
L -207.227598 215.928334 
L -205.186135 215.448721 
L -203.144672 214.955637 
L -201.103208 214.457448 
L -199.061745 214.009091 
L -197.020281 213.500678 
L -194.978818 213.013537 
L -192.937354 212.534253 
L -190.895891 212.054177 
L -188.854428 211.575081 
L -186.812964 211.089593 
L -184.771501 210.626432 
L -182.730037 210.14451 
L -180.688574 209.650515 
L -178.647111 209.15086 
L -176.605647 208.645685 
L -174.564184 208.172625 
L -172.52272 207.65215 
L -170.481257 207.097237 
L -168.439793 206.575946 
L -166.39833 206.026312 
L -164.356867 205.46818 
L -162.315403 204.87902 
L -160.27394 204.279254 
L -158.232476 203.721719 
L -156.191013 203.08619 
L -154.14955 202.482052 
L -152.108086 201.832017 
L -150.066623 201.234729 
L -148.025159 200.53303 
L -145.983696 199.845075 
L -143.942232 199.176395 
L -141.900769 198.496106 
L -139.859306 197.794935 
L -137.817842 197.062349 
L -135.776379 196.375564 
L -133.734915 195.589404 
L -131.693452 194.897699 
L -129.651989 194.088653 
L -127.610525 193.30466 
L -125.569062 192.539022 
L -123.527598 191.804543 
L -121.486135 190.947876 
L -119.444672 190.173753 
L -117.403208 189.190277 
L -115.361745 188.344004 
L -113.320281 187.555157 
L -111.278818 186.664597 
L -109.237354 185.751189 
L -107.195891 184.699719 
L -105.154428 183.713967 
L -103.112964 182.890742 
L -101.071501 181.590612 
L -99.030037 180.545484 
L -96.988574 179.477602 
L -94.947111 178.369932 
L -92.905647 177.109366 
L -90.864184 175.923657 
L -88.82272 175.026869 
L -86.781257 173.886184 
L -84.739793 172.01846 
L -82.69833 170.446787 
L -80.656867 169.283111 
L -78.615403 167.675186 
L -76.57394 166.339802 
L -74.532476 165.176037 
L -72.491013 163.415229 
L -70.44955 161.413096 
L -68.408086 160.040424 
L -66.366623 159.159073 
L -64.325159 157.607809 
L -62.283696 157.162782 
L -60.242232 156.294108 
L -58.200769 154.615285 
L -56.159306 154.763431 
L -54.117842 155.472169 
L -52.076379 156.956424 
L -50.034915 155.333729 
L -47.993452 158.618623 
L -45.951989 159.370133 
L -43.910525 155.006642 
L -41.869062 156.27424 
L -39.827598 158.244846 
L -37.786135 157.125518 
L -35.744672 156.916395 
L -33.703208 165.283775 
L -31.661745 177.173974 
L -29.620281 183.113611 
L -27.578818 170.289348 
L -25.537354 176.941196 
L -23.495891 185.644576 
L -21.454428 185.183681 
L -19.412964 202.851784 
L -17.371501 200.49785 
L -15.330037 195.158261 
L -13.288574 181.84616 
L -11.247111 194.441569 
L -9.205647 202.032715 
L -7.164184 198.923416 
L -5.12272 200.935699 
L -3.081257 208.107321 
L -1.039793 207.208262 
L 1.00167 201.115377 
L 3.043133 208.879794 
L 5.084597 210.458856 
L 7.12606 207.754065 
L 9.167524 212.702346 
L 11.208987 214.545245 
L 13.25045 214.114168 
L 15.291914 212.680764 
L 17.333377 214.341782 
L 19.374841 212.753674 
L 21.416304 212.950148 
L 23.457768 214.536662 
L 25.499231 213.146258 
L 27.540694 213.946627 
L 29.582158 214.03612 
L 31.623621 212.919533 
L 33.665085 213.394635 
L 35.706548 211.760725 
L 37.748011 211.91992 
L 39.789475 212.431369 
L 41.830938 212.500371 
L 43.872402 211.722545 
L 45.913865 211.064456 
L 47.955328 210.924997 
L 49.996792 210.188635 
L 52.038255 210.104248 
L 54.079719 209.994347 
L 56.121182 208.862274 
L 58.162646 209.445793 
L 60.204109 208.700097 
L 62.245572 208.387586 
L 64.287036 208.425229 
L 66.328499 207.679124 
L 68.369963 207.501142 
L 70.411426 207.759936 
L 72.452889 208.171542 
L 74.494353 206.921366 
L 76.535816 206.694695 
L 78.57728 206.267031 
L 80.618743 208.375664 
L 82.660207 208.377178 
L 84.70167 209.144163 
L 86.743133 207.033276 
L 88.784597 205.707643 
L 90.82606 206.036469 
L 92.867524 207.365085 
L 94.908987 207.50415 
L 96.95045 204.92533 
L 98.991914 206.912816 
L 101.033377 206.269396 
L 103.074841 205.794993 
L 105.116304 204.515911 
L 107.157768 205.304097 
L 109.199231 204.593557 
L 111.240694 204.948639 
L 113.282158 204.021882 
L 115.323621 203.242746 
L 117.365085 201.985596 
L 119.406548 201.274227 
L 121.448011 200.598634 
L 123.489475 199.742253 
L 125.530938 199.368632 
L 127.572402 198.534325 
L 129.613865 197.646096 
L 131.655328 195.716794 
L 133.696792 194.185824 
L 135.738255 193.345803 
L 137.779719 191.686875 
L 139.821182 191.126365 
L 141.862646 189.613662 
L 143.904109 187.523784 
L 145.945572 185.728936 
L 147.987036 184.290278 
L 150.028499 182.128888 
L 152.069963 180.675555 
L 154.111426 178.702492 
L 156.152889 176.917546 
L 158.194353 174.752047 
L 160.235816 172.911697 
L 162.27728 170.56594 
L 164.318743 168.692572 
L 166.360207 166.698621 
L 168.40167 164.111009 
L 170.443133 161.688098 
L 172.484597 159.798752 
L 174.52606 157.674602 
L 176.567524 155.101187 
L 178.608987 153.038108 
L 180.65045 150.642832 
L 182.691914 147.304283 
L 184.733377 145.718115 
L 186.774841 142.85022 
L 188.816304 140.533684 
L 190.857768 137.960109 
L 192.899231 135.164408 
L 194.940694 132.309185 
L 196.982158 129.765284 
L 199.023621 126.446369 
L 201.065085 124.272028 
L 203.106548 121.028231 
L 205.148011 118.832177 
L 207.189475 115.514712 
L 209.230938 112.281676 
L 211.272402 109.301391 
L 213.313865 106.849518 
L 215.355328 103.117841 
L 217.396792 100.529762 
L 219.438255 97.2474 
L 221.479719 94.50591 
L 223.521182 91.059378 
L 225.562646 87.987874 
L 227.604109 87.273603 
L 229.645572 81.610958 
L 231.687036 80.408591 
L 233.728499 76.820466 
L 235.769963 74.22717 
L 237.811426 71.239011 
L 239.852889 68.078021 
L 241.894353 65.183742 
L 243.935816 62.376532 
L 245.97728 59.71279 
L 248.018743 57.039191 
L 250.060207 58.344919 
L 252.10167 51.294259 
L 254.143133 49.223994 
L 256.184597 54.243883 
L 258.22606 45.838675 
L 260.267524 46.770727 
L 262.308987 45.497134 
L 264.35045 40.9482 
L 266.391914 41.283187 
L 268.433377 44.968912 
L 270.474841 41.644648 
L 272.516304 39.942129 
L 274.557768 42.145858 
L 276.599231 40.893456 
L 278.640694 42.333122 
L 280.682158 44.404989 
L 282.723621 48.158961 
L 284.765085 57.233759 
L 286.806548 54.866923 
L 288.848011 59.704368 
L 290.889475 63.688435 
L 292.930938 65.750259 
L 294.972402 70.904233 
L 297.013865 75.090521 
L 299.055328 67.574749 
L 301.096792 75.926262 
L 303.138255 86.508292 
L 305.179719 91.691317 
L 307.221182 94.146245 
L 309.262646 108.138234 
L 311.304109 109.415592 
L 313.345572 113.350469 
L 315.387036 112.506537 
L 317.428499 124.354211 
L 319.469963 120.915982 
L 321.511426 119.041176 
L 323.552889 129.188034 
L 325.594353 136.450622 
L 327.635816 136.017608 
L 329.67728 140.407487 
L 331.718743 141.962554 
L 333.760207 142.408383 
L 335.80167 142.599161 
L 337.843133 145.121189 
L 339.884597 146.63402 
L 341.92606 154.073343 
L 343.967524 150.568767 
L 346.008987 157.073827 
L 348.05045 155.864125 
L 350.091914 155.22547 
L 352.133377 157.991358 
L 354.174841 160.482845 
L 356.216304 157.830437 
L 358.257768 159.469832 
L 360.299231 159.78512 
L 362.340694 163.428317 
L 364.382158 161.967647 
L 366.423621 161.408162 
L 368.465085 162.610621 
L 370.506548 164.476336 
L 372.548011 163.89065 
L 374.589475 162.48358 
L 376.630938 163.62233 
L 378.672402 161.370438 
L 380.713865 161.855552 
L 382.755328 166.14651 
L 384.796792 166.123335 
L 386.838255 164.036688 
L 388.879719 163.676723 
L 390.921182 164.1445 
L 392.962646 161.865976 
L 395.004109 162.660052 
L 397.045572 162.844397 
L 399.087036 162.516374 
L 401.128499 162.044172 
L 403.169963 160.711657 
L 405.211426 161.807796 
L 407.252889 160.975114 
L 409.294353 160.942289 
L 411.335816 160.589204 
L 413.37728 160.859838 
L 415.418743 159.890429 
L 417.460207 157.966788 
L 419.50167 158.059395 
L 421.543133 156.526705 
L 423.584597 154.223575 
L 425.62606 156.221613 
L 427.667524 153.014675 
L 429.708987 154.599963 
L 431.75045 154.122063 
L 433.791914 154.531266 
L 435.833377 152.521102 
L 437.874841 152.522099 
L 439.916304 152.366576 
L 441.957768 149.818459 
L 443.999231 150.637244 
L 446.040694 150.53439 
L 448.082158 150.554412 
L 450.123621 149.394676 
L 452.165085 150.113345 
L 454.206548 148.903663 
L 456.248011 147.762007 
L 458.289475 145.885716 
L 460.330938 145.358035 
L 462.372402 145.040781 
L 464.413865 143.756281 
L 466.455328 144.057178 
L 468.496792 143.476444 
L 470.538255 142.33959 
L 472.579719 142.476821 
L 474.621182 141.168348 
L 476.662646 142.409319 
L 478.704109 141.515634 
L 480.745572 141.64028 
L 482.787036 139.978382 
L 484.828499 137.684985 
L 486.869963 139.765579 
L 488.911426 139.761576 
L 490.952889 139.051074 
L 492.994353 138.309129 
L 495.035816 136.714851 
L 497.07728 136.396045 
L 499.118743 135.545653 
L 501.160207 135.732476 
L 503.20167 135.433715 
L 505.243133 133.904493 
L 507.284597 131.713857 
L 509.32606 134.642625 
L 511.367524 133.987645 
L 513.408987 132.133445 
L 515.45045 133.372228 
L 517.491914 130.022567 
L 519.533377 130.469349 
L 521.574841 130.716538 
L 523.616304 128.459334 
L 525.657768 132.393472 
L 527.699231 128.514789 
L 529.740694 126.570445 
L 531.782158 129.166847 
L 533.823621 129.904478 
L 535.865085 128.712072 
L 537.906548 129.75768 
L 539.948011 128.021826 
L 541.989475 131.579909 
L 544.030938 129.866156 
L 546.072402 130.657538 
L 548.113865 128.347531 
L 550.155328 126.294364 
L 552.196792 129.094565 
L 554.238255 134.043122 
L 556.279719 128.566914 
L 558.321182 128.957169 
L 560.362646 126.970172 
L 562.404109 128.02646 
L 564.445572 127.824506 
L 566.487036 126.613757 
L 568.528499 126.208341 
L 570.569963 128.639206 
L 572.611426 127.455318 
L 574.652889 129.669556 
L 576.694353 130.108758 
L 578.735816 123.844836 
L 580.77728 126.473439 
L 582.818743 126.706198 
L 584.860207 127.15806 
L 586.90167 127.552771 
L 588.943133 131.578208 
L 590.984597 133.16975 
L 593.02606 132.961663 
L 595.067524 137.364381 
L 597.108987 144.66759 
L 599.15045 135.830948 
L 601.191914 135.661811 
L 603.233377 135.78191 
L 605.274841 138.630147 
L 607.316304 139.223473 
L 609.357768 139.124841 
L 611.399231 145.384279 
L 613.440694 147.629461 
L 615.482158 140.330192 
L 617.523621 146.769562 
L 619.565085 143.465317 
L 621.606548 141.38586 
L 623.648011 149.253997 
L 625.689475 147.601476 
L 627.730938 152.649432 
L 629.772402 151.017825 
L 631.813865 147.501383 
L 633.855328 150.670134 
L 635.896792 150.628802 
L 637.938255 153.742292 
L 639.979719 151.713098 
L 642.021182 156.872696 
L 644.062646 153.090859 
L 646.104109 155.808191 
L 648.145572 155.213273 
L 650.187036 158.214023 
L 652.228499 153.30881 
L 654.269963 158.511251 
L 656.311426 158.196819 
L 658.352889 161.73014 
L 660.394353 163.571238 
L 662.435816 163.532451 
L 664.47728 162.569321 
L 666.518743 164.816501 
L 668.560207 166.464669 
L 670.60167 164.895047 
L 672.643133 164.275408 
L 674.684597 166.240476 
L 676.72606 168.012609 
L 678.767524 164.772935 
L 680.808987 162.886931 
L 682.85045 170.101362 
L 684.891914 173.323824 
L 686.933377 165.816532 
L 688.974841 167.940755 
L 691.016304 168.975584 
L 693.057768 169.427641 
L 695.099231 173.072622 
L 697.140694 172.510918 
L 699.182158 170.901978 
L 701.223621 172.442288 
L 703.265085 172.793943 
L 705.306548 168.695852 
L 707.348011 170.625761 
L 709.389475 169.269032 
L 711.430938 174.720437 
L 713.472402 181.46075 
L 715.513865 180.393469 
L 717.555328 174.877704 
L 719.596792 174.197879 
L 721.638255 174.834698 
L 723.679719 174.993895 
L 725.721182 179.975273 
L 727.762646 173.417181 
L 729.804109 180.111527 
L 731.845572 185.488513 
L 733.887036 180.841306 
L 735.928499 187.777511 
L 737.969963 183.309013 
L 740.011426 187.057633 
L 742.052889 184.456034 
L 744.094353 186.276255 
L 746.135816 189.976039 
L 748.17728 189.657473 
L 750.218743 190.755586 
L 752.260207 191.003431 
L 754.30167 191.349252 
L 756.343133 182.137377 
L 758.384597 193.931405 
L 760.42606 198.761038 
L 762.467524 194.003014 
L 764.508987 198.279775 
L 766.55045 199.189508 
L 768.591914 196.701621 
L 770.633377 201.565355 
L 772.674841 204.833039 
L 774.716304 202.949042 
L 776.757768 204.246408 
L 778.799231 204.984093 
L 780.840694 206.182555 
L 782.882158 209.903938 
L 784.923621 202.423178 
L 786.965085 211.832546 
L 789.006548 212.110369 
L 791.048011 212.55776 
L 793.089475 206.813763 
L 795.130938 213.96214 
L 797.172402 218.737134 
L 799.213865 214.022361 
L 801.255328 214.6361 
L 803.296792 221.295846 
L 805.338255 209.90687 
L 807.379719 220.710891 
L 809.421182 214.109989 
L 811.462646 223.575375 
L 813.504109 219.277382 
L 815.545572 223.454656 
L 817.587036 224.834139 
L 819.628499 226.726313 
L 821.669963 227.383364 
L 823.711426 224.99542 
L 825.752889 225.19381 
L 827.794353 226.602798 
L 829.835816 230.997181 
L 831.87728 230.559126 
L 833.918743 230.523035 
L 835.960207 235.286973 
L 838.00167 235.500069 
L 840.043133 231.430389 
L 842.084597 231.813651 
L 844.12606 244.247358 
L 846.167524 245.636677 
L 848.208987 248.871091 
L 850.25045 241.373626 
L 852.291914 229.389569 
L 854.333377 242.848065 
L 856.374841 238.067533 
L 858.416304 243.075375 
L 860.457768 249.816741 
L 862.499231 241.171562 
L 864.540694 252.991466 
L 866.582158 243.73205 
L 868.623621 243.64363 
L 870.665085 244.874064 
L 872.706548 252.060713 
L 874.748011 251.593729 
L 876.789475 250.419045 
L 878.830938 243.371223 
L 880.872402 247.659741 
L 882.913865 250.938516 
L 884.955328 247.991981 
L 886.996792 253.903886 
L 889.038255 249.720675 
L 891.079719 253.70852 
L 893.121182 259.946119 
L 895.162646 259.357647 
L 897.204109 253.826029 
L 899.245572 254.32773 
L 901.287036 253.601658 
L 903.328499 256.64675 
L 905.369963 256.940884 
L 907.411426 247.690241 
L 909.452889 255.646256 
L 911.494353 223.796991 
L 913.535816 256.352972 
L 915.57728 259.78712 
L 917.618743 253.591348 
L 919.660207 247.138833 
L 921.70167 260.678681 
L 923.743133 255.167001 
L 925.784597 245.230378 
L 927.82606 252.129872 
L 929.867524 252.653068 
L 931.908987 250.214298 
L 933.95045 256.778457 
L 935.991914 252.542698 
L 938.033377 255.471812 
L 940.074841 257.70376 
L 940.074841 225.660609 
L 940.074841 225.660609 
L 938.033377 229.265565 
L 935.991914 227.270299 
L 933.95045 229.072298 
L 931.908987 226.350393 
L 929.867524 227.593904 
L 927.82606 226.461391 
L 925.784597 227.25744 
L 923.743133 230.500116 
L 921.70167 230.999107 
L 919.660207 228.811338 
L 917.618743 229.390042 
L 915.57728 232.953061 
L 913.535816 230.722603 
L 911.494353 210.968948 
L 909.452889 231.758854 
L 907.411426 230.537498 
L 905.369963 232.533312 
L 903.328499 232.770697 
L 901.287036 232.170717 
L 899.245572 233.419451 
L 897.204109 233.474589 
L 895.162646 235.198243 
L 893.121182 235.694835 
L 891.079719 234.690961 
L 889.038255 233.793692 
L 886.996792 234.612904 
L 884.955328 232.756307 
L 882.913865 233.707412 
L 880.872402 233.419158 
L 878.830938 232.395092 
L 876.789475 235.018375 
L 874.748011 235.537222 
L 872.706548 236.580991 
L 870.665085 233.494508 
L 868.623621 233.837413 
L 866.582158 234.354912 
L 864.540694 237.151601 
L 862.499231 233.552656 
L 860.457768 236.530686 
L 858.416304 234.347428 
L 856.374841 232.984296 
L 854.333377 234.623986 
L 852.291914 223.220359 
L 850.25045 234.153073 
L 848.208987 237.345413 
L 846.167524 236.381116 
L 844.12606 235.79969 
L 842.084597 228.353497 
L 840.043133 229.003024 
L 838.00167 233.239953 
L 835.960207 232.994128 
L 833.918743 226.575206 
L 831.87728 227.227877 
L 829.835816 226.805337 
L 827.794353 218.758615 
L 825.752889 211.66584 
L 823.711426 210.253851 
L 821.669963 216.853673 
L 819.628499 215.192547 
L 817.587036 211.642502 
L 815.545572 207.994566 
L 813.504109 195.66176 
L 811.462646 208.372915 
L 809.421182 176.259785 
L 807.379719 198.284954 
L 805.338255 167.711165 
L 803.296792 201.202574 
L 801.255328 182.976972 
L 799.213865 182.805339 
L 797.172402 192.459839 
L 795.130938 181.431448 
L 793.089475 161.165224 
L 791.048011 176.240974 
L 789.006548 176.087765 
L 786.965085 175.615823 
L 784.923621 151.935038 
L 782.882158 163.858526 
L 780.840694 161.130055 
L 778.799231 159.577043 
L 776.757768 157.059363 
L 774.716304 152.16973 
L 772.674841 157.132455 
L 770.633377 148.442815 
L 768.591914 137.560281 
L 766.55045 146.727777 
L 764.508987 139.620924 
L 762.467524 133.272497 
L 760.42606 143.811923 
L 758.384597 132.490507 
L 756.343133 103.303199 
L 754.30167 124.696261 
L 752.260207 123.896882 
L 750.218743 123.988198 
L 748.17728 121.417679 
L 746.135816 121.566638 
L 744.094353 113.62211 
L 742.052889 110.357645 
L 740.011426 116.531431 
L 737.969963 104.969162 
L 735.928499 116.836572 
L 733.887036 100.772649 
L 731.845572 110.039263 
L 729.804109 99.344404 
L 727.762646 86.09662 
L 725.721182 98.306461 
L 723.679719 86.690224 
L 721.638255 87.50415 
L 719.596792 87.00794 
L 717.555328 88.138892 
L 715.513865 99.125926 
L 713.472402 101.729578 
L 711.430938 88.526232 
L 709.389475 74.998556 
L 707.348011 78.778741 
L 705.306548 76.034492 
L 703.265085 84.498944 
L 701.223621 83.592488 
L 699.182158 80.147881 
L 697.140694 84.535709 
L 695.099231 84.156665 
L 693.057768 77.254029 
L 691.016304 78.053653 
L 688.974841 75.34536 
L 686.933377 72.025458 
L 684.891914 87.526324 
L 682.85045 78.751106 
L 680.808987 66.729408 
L 678.767524 72.422814 
L 676.72606 77.520179 
L 674.684597 74.094103 
L 672.643133 71.444352 
L 670.60167 73.43521 
L 668.560207 78.808095 
L 666.518743 72.907384 
L 664.47728 70.707794 
L 662.435816 73.063219 
L 660.394353 69.337987 
L 658.352889 70.470013 
L 656.311426 63.003316 
L 654.269963 65.630055 
L 652.228499 56.522955 
L 650.187036 64.249507 
L 648.145572 60.531173 
L 646.104109 62.660746 
L 644.062646 60.142372 
L 642.021182 64.865341 
L 639.979719 56.726243 
L 637.938255 61.802076 
L 635.896792 56.660365 
L 633.855328 57.631126 
L 631.813865 53.602134 
L 629.772402 55.716846 
L 627.730938 61.503513 
L 625.689475 55.941605 
L 623.648011 57.322854 
L 621.606548 46.350621 
L 619.565085 51.462527 
L 617.523621 54.081201 
L 615.482158 45.656661 
L 613.440694 55.160967 
L 611.399231 55.955565 
L 609.357768 45.281922 
L 607.316304 45.525778 
L 605.274841 44.823322 
L 603.233377 41.009307 
L 601.191914 43.726875 
L 599.15045 42.81425 
L 597.108987 55.481457 
L 595.067524 46.827698 
L 593.02606 40.43663 
L 590.984597 40.63145 
L 588.943133 38.766977 
L 586.90167 34.899821 
L 584.860207 36.289786 
L 582.818743 33.674263 
L 580.77728 36.612547 
L 578.735816 32.790181 
L 576.694353 39.977455 
L 574.652889 40.913448 
L 572.611426 39.205101 
L 570.569963 40.75987 
L 568.528499 37.943074 
L 566.487036 40.010997 
L 564.445572 41.179832 
L 562.404109 44.487942 
L 560.362646 41.67033 
L 558.321182 45.371596 
L 556.279719 44.512548 
L 554.238255 51.517476 
L 552.196792 46.621022 
L 550.155328 43.95437 
L 548.113865 46.880432 
L 546.072402 48.146928 
L 544.030938 48.139754 
L 541.989475 52.148539 
L 539.948011 48.464211 
L 537.906548 51.11277 
L 535.865085 49.656835 
L 533.823621 50.191137 
L 531.782158 48.87344 
L 529.740694 47.000333 
L 527.699231 50.186291 
L 525.657768 54.476248 
L 523.616304 49.846864 
L 521.574841 52.297278 
L 519.533377 51.044682 
L 517.491914 52.389567 
L 515.45045 55.673036 
L 513.408987 54.379877 
L 511.367524 57.014465 
L 509.32606 57.61312 
L 507.284597 54.357416 
L 505.243133 56.05665 
L 503.20167 57.963329 
L 501.160207 58.557869 
L 499.118743 58.321343 
L 497.07728 59.62243 
L 495.035816 59.235374 
L 492.994353 61.240768 
L 490.952889 61.681335 
L 488.911426 62.004322 
L 486.869963 62.321875 
L 484.828499 58.289536 
L 482.787036 62.37174 
L 480.745572 63.896609 
L 478.704109 63.227831 
L 476.662646 63.174301 
L 474.621182 63.005669 
L 472.579719 64.045632 
L 470.538255 63.426612 
L 468.496792 65.082628 
L 466.455328 65.516287 
L 464.413865 64.843492 
L 462.372402 65.295718 
L 460.330938 65.985361 
L 458.289475 66.702362 
L 456.248011 69.70524 
L 454.206548 70.210998 
L 452.165085 71.530727 
L 450.123621 70.458015 
L 448.082158 71.704568 
L 446.040694 71.567255 
L 443.999231 71.743456 
L 441.957768 69.777683 
L 439.916304 74.07518 
L 437.874841 74.16428 
L 435.833377 74.151913 
L 433.791914 76.59745 
L 431.75045 76.07328 
L 429.708987 76.894675 
L 427.667524 75.152702 
L 425.62606 78.62098 
L 423.584597 77.145466 
L 421.543133 80.471464 
L 419.50167 82.725934 
L 417.460207 83.12048 
L 415.418743 86.041975 
L 413.37728 88.243096 
L 411.335816 87.779761 
L 409.294353 89.001478 
L 407.252889 89.09859 
L 405.211426 90.819638 
L 403.169963 89.876155 
L 401.128499 92.422588 
L 399.087036 94.247526 
L 397.045572 95.199895 
L 395.004109 95.645902 
L 392.962646 95.94315 
L 390.921182 98.767937 
L 388.879719 99.214477 
L 386.838255 100.86315 
L 384.796792 103.436055 
L 382.755328 104.08062 
L 380.713865 101.282775 
L 378.672402 101.819831 
L 376.630938 104.711079 
L 374.589475 104.858124 
L 372.548011 106.797666 
L 370.506548 108.154248 
L 368.465085 107.131424 
L 366.423621 107.906776 
L 364.382158 108.928362 
L 362.340694 110.907512 
L 360.299231 108.373883 
L 358.257768 109.265407 
L 356.216304 109.136394 
L 354.174841 112.051579 
L 352.133377 111.552548 
L 350.091914 109.747413 
L 348.05045 111.260672 
L 346.008987 112.828864 
L 343.967524 108.351439 
L 341.92606 112.299409 
L 339.884597 107.067869 
L 337.843133 106.781593 
L 335.80167 105.699602 
L 333.760207 106.883611 
L 331.718743 107.211727 
L 329.67728 106.563844 
L 327.635816 104.08815 
L 325.594353 105.990056 
L 323.552889 100.227994 
L 321.511426 93.96835 
L 319.469963 95.687757 
L 317.428499 99.004133 
L 315.387036 90.13669 
L 313.345572 90.567901 
L 311.304109 88.469536 
L 309.262646 87.929712 
L 307.221182 76.909064 
L 305.179719 76.024195 
L 303.138255 72.012441 
L 301.096792 63.396841 
L 299.055328 57.279921 
L 297.013865 64.103729 
L 294.972402 61.029086 
L 292.930938 55.67965 
L 290.889475 53.330396 
L 288.848011 49.00859 
L 286.806548 43.286314 
L 284.765085 45.951149 
L 282.723621 35.356214 
L 280.682158 30.383895 
L 278.640694 27.894386 
L 276.599231 26.001949 
L 274.557768 27.350936 
L 272.516304 24.84 
L 270.474841 27.17106 
L 268.433377 30.632168 
L 266.391914 25.802841 
L 264.35045 25.537612 
L 262.308987 30.763054 
L 260.267524 32.199155 
L 258.22606 30.658277 
L 256.184597 41.047455 
L 254.143133 34.265433 
L 252.10167 37.020826 
L 250.060207 45.11345 
L 248.018743 43.299984 
L 245.97728 46.521162 
L 243.935816 49.455289 
L 241.894353 52.848164 
L 239.852889 56.101767 
L 237.811426 59.741004 
L 235.769963 63.144898 
L 233.728499 66.007604 
L 231.687036 70.317898 
L 229.645572 71.674654 
L 227.604109 78.312945 
L 225.562646 78.991092 
L 223.521182 82.535647 
L 221.479719 86.59931 
L 219.438255 89.674827 
L 217.396792 92.864176 
L 215.355328 95.438098 
L 213.313865 99.018414 
L 211.272402 101.317966 
L 209.230938 104.045414 
L 207.189475 107.178231 
L 205.148011 110.360966 
L 203.106548 112.434367 
L 201.065085 115.510911 
L 199.023621 117.714117 
L 196.982158 120.859334 
L 194.940694 123.366743 
L 192.899231 125.857185 
L 190.857768 128.574521 
L 188.816304 131.015571 
L 186.774841 133.13399 
L 184.733377 135.784397 
L 182.691914 137.280173 
L 180.65045 140.469863 
L 178.608987 142.714909 
L 176.567524 144.724356 
L 174.52606 147.110521 
L 172.484597 148.677148 
L 170.443133 150.818321 
L 168.40167 153.005947 
L 166.360207 155.37979 
L 164.318743 157.252499 
L 162.27728 159.092799 
L 160.235816 161.073692 
L 158.194353 162.981931 
L 156.152889 165.015881 
L 154.111426 166.682046 
L 152.069963 168.46897 
L 150.028499 169.963986 
L 147.987036 171.945008 
L 145.945572 173.431 
L 143.904109 175.080274 
L 141.862646 177.081288 
L 139.821182 178.519481 
L 137.779719 179.060497 
L 135.738255 180.713303 
L 133.696792 181.634651 
L 131.655328 183.223065 
L 129.613865 185.041964 
L 127.572402 186.043393 
L 125.530938 186.980614 
L 123.489475 187.26204 
L 121.448011 188.217926 
L 119.406548 188.824584 
L 117.365085 189.464178 
L 115.323621 190.747559 
L 113.282158 191.524835 
L 111.240694 192.598561 
L 109.199231 192.091325 
L 107.157768 192.694099 
L 105.116304 191.846158 
L 103.074841 193.269783 
L 101.033377 193.510563 
L 98.991914 194.548745 
L 96.95045 192.402674 
L 94.908987 195.02982 
L 92.867524 194.827989 
L 90.82606 193.328148 
L 88.784597 192.939981 
L 86.743133 194.27717 
L 84.70167 196.595065 
L 82.660207 195.665588 
L 80.618743 195.58613 
L 78.57728 193.192868 
L 76.535816 193.114689 
L 74.494353 193.73682 
L 72.452889 195.114249 
L 70.411426 194.580743 
L 68.369963 194.211686 
L 66.328499 194.361489 
L 64.287036 195.162561 
L 62.245572 194.874128 
L 60.204109 195.344132 
L 58.162646 196.180233 
L 56.121182 195.430503 
L 54.079719 196.678181 
L 52.038255 196.78813 
L 49.996792 196.852966 
L 47.955328 197.608216 
L 45.913865 197.724599 
L 43.872402 198.569934 
L 41.830938 199.503083 
L 39.789475 199.418451 
L 37.748011 198.899332 
L 35.706548 198.497658 
L 33.665085 200.583083 
L 31.623621 200.102631 
L 29.582158 201.46916 
L 27.540694 201.393437 
L 25.499231 200.725516 
L 23.457768 202.076202 
L 21.416304 200.618479 
L 19.374841 200.583693 
L 17.333377 202.328104 
L 15.291914 200.89766 
L 13.25045 202.543131 
L 11.208987 203.003613 
L 9.167524 201.432055 
L 7.12606 196.650213 
L 5.084597 199.551049 
L 3.043133 198.022977 
L 1.00167 190.959937 
L -1.039793 196.809172 
L -3.081257 197.937311 
L -5.12272 191.400132 
L -7.164184 189.546867 
L -9.205647 192.915319 
L -11.247111 185.837195 
L -13.288574 173.314524 
L -15.330037 186.923395 
L -17.371501 192.161581 
L -19.412964 194.714737 
L -21.454428 177.648959 
L -23.495891 178.292255 
L -25.537354 169.575142 
L -27.578818 162.784402 
L -29.620281 176.292775 
L -31.661745 170.402868 
L -33.703208 158.264835 
L -35.744672 149.753858 
L -37.786135 150.229896 
L -39.827598 151.654175 
L -41.869062 149.830991 
L -43.910525 148.727482 
L -45.951989 153.517224 
L -47.993452 152.90113 
L -50.034915 149.714756 
L -52.076379 151.612107 
L -54.117842 150.294492 
L -56.159306 149.760325 
L -58.200769 149.855173 
L -60.242232 151.731073 
L -62.283696 152.838356 
L -64.325159 153.474696 
L -66.366623 155.107198 
L -68.408086 155.876048 
L -70.44955 157.19451 
L -72.491013 159.278628 
L -74.532476 160.913342 
L -76.57394 162.025518 
L -78.615403 163.268436 
L -80.656867 164.911016 
L -82.69833 165.947879 
L -84.739793 167.523669 
L -86.781257 169.435013 
L -88.82272 170.582471 
L -90.864184 171.356416 
L -92.905647 172.529376 
L -94.947111 173.735993 
L -96.988574 174.843703 
L -99.030037 175.903156 
L -101.071501 176.924395 
L -103.112964 178.324298 
L -105.154428 179.05493 
L -107.195891 180.081391 
L -109.237354 181.155051 
L -111.278818 182.060443 
L -113.320281 182.956709 
L -115.361745 183.706197 
L -117.403208 184.521886 
L -119.444672 185.605085 
L -121.486135 186.363981 
L -123.527598 187.250349 
L -125.569062 187.969775 
L -127.610525 188.772944 
L -129.651989 189.584865 
L -131.693452 190.403101 
L -133.734915 191.091236 
L -135.776379 191.905194 
L -137.817842 192.619896 
L -139.859306 193.386008 
L -141.900769 194.098996 
L -143.942232 194.834936 
L -145.983696 195.521234 
L -148.025159 196.252284 
L -150.066623 197.020333 
L -152.108086 197.603615 
L -154.14955 198.334813 
L -156.191013 198.96448 
L -158.232476 199.695189 
L -160.27394 200.228619 
L -162.315403 200.908145 
L -164.356867 201.555481 
L -166.39833 202.171692 
L -168.439793 202.798828 
L -170.481257 203.378679 
L -172.52272 204.055411 
L -174.564184 204.664075 
L -176.605647 205.164962 
L -178.647111 205.760467 
L -180.688574 206.355031 
L -182.730037 206.946558 
L -184.771501 207.517059 
L -186.812964 208.048563 
L -188.854428 208.633783 
L -190.895891 209.207225 
L -192.937354 209.783376 
L -194.978818 210.357276 
L -197.020281 210.946591 
L -199.061745 211.559105 
L -201.103208 212.085999 
L -203.144672 212.689759 
L -205.186135 213.281764 
L -207.227598 213.849757 
L -209.269062 214.435816 
L -211.310525 215.033868 
L -213.351989 215.613853 
L -215.393452 216.222731 
L -217.434915 216.777447 
L -219.476379 217.343346 
L -221.517842 217.941786 
L -223.559306 218.519533 
L -225.600769 219.067353 
L -227.642232 219.647535 
L -229.683696 220.176531 
L -231.725159 220.742499 
L -233.766623 221.345817 
L -235.808086 221.862395 
L -237.84955 222.441426 
L -239.891013 222.98904 
L -241.932476 223.563663 
L -243.97394 224.082811 
L -246.015403 224.691204 
L -248.056867 225.193482 
L -250.09833 225.757838 
L -252.139793 226.309681 
L -254.181257 226.875742 
L -256.22272 227.413124 
L -258.264184 227.960752 
L -260.305647 228.510706 
L -262.347111 229.079623 
L -264.388574 229.607395 
L -266.430037 230.094014 
L -268.471501 230.587649 
L -270.512964 231.084597 
L -272.554428 231.564436 
L -274.595891 232.052759 
L -276.637354 232.535275 
L -278.678818 232.995829 
L -280.720281 233.46207 
L -282.761745 233.925996 
L -284.803208 234.347731 
L -286.844672 234.777015 
L -288.886135 235.225382 
L -290.927598 235.650052 
L -292.969062 236.029623 
L -295.010525 236.448668 
L -297.051989 236.83145 
L -299.093452 237.184111 
L -301.134915 237.537203 
L -303.176379 237.867436 
L -305.217842 238.223997 
L -307.259306 238.51838 
L -309.300769 238.829792 
L -311.342232 239.123039 
L -313.383696 239.394878 
L -315.425159 239.642666 
L -317.466623 239.867917 
L -319.508086 240.091884 
L -321.54955 240.314062 
L -323.591013 240.497942 
L -325.632476 240.703743 
L -327.67394 240.877979 
L -329.715403 241.028106 
L -331.756867 241.204488 
L -333.79833 241.35881 
L -335.839793 241.486472 
L -337.881257 241.62368 
L -339.92272 241.757122 
L -341.964184 241.874391 
L -344.005647 241.992159 
L -346.047111 242.089433 
L -348.088574 242.207266 
L -350.130037 242.300839 
L -352.171501 242.399297 
L -354.212964 242.50271 
L -356.254428 242.586923 
L -358.295891 242.676236 
L -360.337354 242.793399 
L -362.378818 242.875868 
L -364.420281 242.977185 
L -366.461745 243.057194 
L -368.503208 243.164077 
L -370.544672 243.248459 
L -372.586135 243.337811 
L -374.627598 243.415853 
L -376.669062 243.486802 
L -378.710525 243.568011 
L -380.751989 243.657903 
L -382.793452 243.7452 
L -384.834915 243.819321 
L -386.876379 243.878607 
L -388.917842 243.965063 
L -390.959306 244.035416 
L -393.000769 244.120325 
z
" clip-path="url(#p6707251645)" style="fill: #008000; fill-opacity: 0.3; stroke: #008000; stroke-opacity: 0.3"/>
   </g>
   <g id="matplotlib.axis_1">
    <g id="xtick_1">
     <g id="line2d_1">
      <defs>
       <path id="m9e0f487c42" d="M 0 0 
L 0 3.5 
" style="stroke: #000000; stroke-width: 0.8"/>
      </defs>
      <g>
       <use xlink:href="#m9e0f487c42" x="103.074841" y="395.28" style="stroke: #000000; stroke-width: 0.8"/>
      </g>
     </g>
     <g id="text_1">
      <!-- 2022-03-01 -->
      <g transform="translate(17.945813 495.213718) rotate(-45) scale(0.2 -0.2)">
       <defs>
        <path id="DejaVuSans-32" d="M 1228 531 
L 3431 531 
L 3431 0 
L 469 0 
L 469 531 
Q 828 903 1448 1529 
Q 2069 2156 2228 2338 
Q 2531 2678 2651 2914 
Q 2772 3150 2772 3378 
Q 2772 3750 2511 3984 
Q 2250 4219 1831 4219 
Q 1534 4219 1204 4116 
Q 875 4013 500 3803 
L 500 4441 
Q 881 4594 1212 4672 
Q 1544 4750 1819 4750 
Q 2544 4750 2975 4387 
Q 3406 4025 3406 3419 
Q 3406 3131 3298 2873 
Q 3191 2616 2906 2266 
Q 2828 2175 2409 1742 
Q 1991 1309 1228 531 
z
" transform="scale(0.015625)"/>
        <path id="DejaVuSans-30" d="M 2034 4250 
Q 1547 4250 1301 3770 
Q 1056 3291 1056 2328 
Q 1056 1369 1301 889 
Q 1547 409 2034 409 
Q 2525 409 2770 889 
Q 3016 1369 3016 2328 
Q 3016 3291 2770 3770 
Q 2525 4250 2034 4250 
z
M 2034 4750 
Q 2819 4750 3233 4129 
Q 3647 3509 3647 2328 
Q 3647 1150 3233 529 
Q 2819 -91 2034 -91 
Q 1250 -91 836 529 
Q 422 1150 422 2328 
Q 422 3509 836 4129 
Q 1250 4750 2034 4750 
z
" transform="scale(0.015625)"/>
        <path id="DejaVuSans-2d" d="M 313 2009 
L 1997 2009 
L 1997 1497 
L 313 1497 
L 313 2009 
z
" transform="scale(0.015625)"/>
        <path id="DejaVuSans-33" d="M 2597 2516 
Q 3050 2419 3304 2112 
Q 3559 1806 3559 1356 
Q 3559 666 3084 287 
Q 2609 -91 1734 -91 
Q 1441 -91 1130 -33 
Q 819 25 488 141 
L 488 750 
Q 750 597 1062 519 
Q 1375 441 1716 441 
Q 2309 441 2620 675 
Q 2931 909 2931 1356 
Q 2931 1769 2642 2001 
Q 2353 2234 1838 2234 
L 1294 2234 
L 1294 2753 
L 1863 2753 
Q 2328 2753 2575 2939 
Q 2822 3125 2822 3475 
Q 2822 3834 2567 4026 
Q 2313 4219 1838 4219 
Q 1578 4219 1281 4162 
Q 984 4106 628 3988 
L 628 4550 
Q 988 4650 1302 4700 
Q 1616 4750 1894 4750 
Q 2613 4750 3031 4423 
Q 3450 4097 3450 3541 
Q 3450 3153 3228 2886 
Q 3006 2619 2597 2516 
z
" transform="scale(0.015625)"/>
        <path id="DejaVuSans-31" d="M 794 531 
L 1825 531 
L 1825 4091 
L 703 3866 
L 703 4441 
L 1819 4666 
L 2450 4666 
L 2450 531 
L 3481 531 
L 3481 0 
L 794 0 
L 794 531 
z
" transform="scale(0.015625)"/>
       </defs>
       <use xlink:href="#DejaVuSans-32"/>
       <use xlink:href="#DejaVuSans-30" x="63.623047"/>
       <use xlink:href="#DejaVuSans-32" x="127.246094"/>
       <use xlink:href="#DejaVuSans-32" x="190.869141"/>
       <use xlink:href="#DejaVuSans-2d" x="254.492188"/>
       <use xlink:href="#DejaVuSans-30" x="290.576172"/>
       <use xlink:href="#DejaVuSans-33" x="354.199219"/>
       <use xlink:href="#DejaVuSans-2d" x="417.822266"/>
       <use xlink:href="#DejaVuSans-30" x="453.90625"/>
       <use xlink:href="#DejaVuSans-31" x="517.529297"/>
      </g>
     </g>
    </g>
    <g id="xtick_2">
     <g id="line2d_2">
      <g>
       <use xlink:href="#m9e0f487c42" x="160.235816" y="395.28" style="stroke: #000000; stroke-width: 0.8"/>
      </g>
     </g>
     <g id="text_2">
      <!-- 2022-03-29 -->
      <g transform="translate(75.106789 495.213718) rotate(-45) scale(0.2 -0.2)">
       <defs>
        <path id="DejaVuSans-39" d="M 703 97 
L 703 672 
Q 941 559 1184 500 
Q 1428 441 1663 441 
Q 2288 441 2617 861 
Q 2947 1281 2994 2138 
Q 2813 1869 2534 1725 
Q 2256 1581 1919 1581 
Q 1219 1581 811 2004 
Q 403 2428 403 3163 
Q 403 3881 828 4315 
Q 1253 4750 1959 4750 
Q 2769 4750 3195 4129 
Q 3622 3509 3622 2328 
Q 3622 1225 3098 567 
Q 2575 -91 1691 -91 
Q 1453 -91 1209 -44 
Q 966 3 703 97 
z
M 1959 2075 
Q 2384 2075 2632 2365 
Q 2881 2656 2881 3163 
Q 2881 3666 2632 3958 
Q 2384 4250 1959 4250 
Q 1534 4250 1286 3958 
Q 1038 3666 1038 3163 
Q 1038 2656 1286 2365 
Q 1534 2075 1959 2075 
z
" transform="scale(0.015625)"/>
       </defs>
       <use xlink:href="#DejaVuSans-32"/>
       <use xlink:href="#DejaVuSans-30" x="63.623047"/>
       <use xlink:href="#DejaVuSans-32" x="127.246094"/>
       <use xlink:href="#DejaVuSans-32" x="190.869141"/>
       <use xlink:href="#DejaVuSans-2d" x="254.492188"/>
       <use xlink:href="#DejaVuSans-30" x="290.576172"/>
       <use xlink:href="#DejaVuSans-33" x="354.199219"/>
       <use xlink:href="#DejaVuSans-2d" x="417.822266"/>
       <use xlink:href="#DejaVuSans-32" x="453.90625"/>
       <use xlink:href="#DejaVuSans-39" x="517.529297"/>
      </g>
     </g>
    </g>
    <g id="xtick_3">
     <g id="line2d_3">
      <g>
       <use xlink:href="#m9e0f487c42" x="217.396792" y="395.28" style="stroke: #000000; stroke-width: 0.8"/>
      </g>
     </g>
     <g id="text_3">
      <!-- 2022-04-26 -->
      <g transform="translate(132.267765 495.213718) rotate(-45) scale(0.2 -0.2)">
       <defs>
        <path id="DejaVuSans-34" d="M 2419 4116 
L 825 1625 
L 2419 1625 
L 2419 4116 
z
M 2253 4666 
L 3047 4666 
L 3047 1625 
L 3713 1625 
L 3713 1100 
L 3047 1100 
L 3047 0 
L 2419 0 
L 2419 1100 
L 313 1100 
L 313 1709 
L 2253 4666 
z
" transform="scale(0.015625)"/>
        <path id="DejaVuSans-36" d="M 2113 2584 
Q 1688 2584 1439 2293 
Q 1191 2003 1191 1497 
Q 1191 994 1439 701 
Q 1688 409 2113 409 
Q 2538 409 2786 701 
Q 3034 994 3034 1497 
Q 3034 2003 2786 2293 
Q 2538 2584 2113 2584 
z
M 3366 4563 
L 3366 3988 
Q 3128 4100 2886 4159 
Q 2644 4219 2406 4219 
Q 1781 4219 1451 3797 
Q 1122 3375 1075 2522 
Q 1259 2794 1537 2939 
Q 1816 3084 2150 3084 
Q 2853 3084 3261 2657 
Q 3669 2231 3669 1497 
Q 3669 778 3244 343 
Q 2819 -91 2113 -91 
Q 1303 -91 875 529 
Q 447 1150 447 2328 
Q 447 3434 972 4092 
Q 1497 4750 2381 4750 
Q 2619 4750 2861 4703 
Q 3103 4656 3366 4563 
z
" transform="scale(0.015625)"/>
       </defs>
       <use xlink:href="#DejaVuSans-32"/>
       <use xlink:href="#DejaVuSans-30" x="63.623047"/>
       <use xlink:href="#DejaVuSans-32" x="127.246094"/>
       <use xlink:href="#DejaVuSans-32" x="190.869141"/>
       <use xlink:href="#DejaVuSans-2d" x="254.492188"/>
       <use xlink:href="#DejaVuSans-30" x="290.576172"/>
       <use xlink:href="#DejaVuSans-34" x="354.199219"/>
       <use xlink:href="#DejaVuSans-2d" x="417.822266"/>
       <use xlink:href="#DejaVuSans-32" x="453.90625"/>
       <use xlink:href="#DejaVuSans-36" x="517.529297"/>
      </g>
     </g>
    </g>
    <g id="xtick_4">
     <g id="line2d_4">
      <g>
       <use xlink:href="#m9e0f487c42" x="274.557768" y="395.28" style="stroke: #000000; stroke-width: 0.8"/>
      </g>
     </g>
     <g id="text_4">
      <!-- 2022-05-24 -->
      <g transform="translate(189.42874 495.213718) rotate(-45) scale(0.2 -0.2)">
       <defs>
        <path id="DejaVuSans-35" d="M 691 4666 
L 3169 4666 
L 3169 4134 
L 1269 4134 
L 1269 2991 
Q 1406 3038 1543 3061 
Q 1681 3084 1819 3084 
Q 2600 3084 3056 2656 
Q 3513 2228 3513 1497 
Q 3513 744 3044 326 
Q 2575 -91 1722 -91 
Q 1428 -91 1123 -41 
Q 819 9 494 109 
L 494 744 
Q 775 591 1075 516 
Q 1375 441 1709 441 
Q 2250 441 2565 725 
Q 2881 1009 2881 1497 
Q 2881 1984 2565 2268 
Q 2250 2553 1709 2553 
Q 1456 2553 1204 2497 
Q 953 2441 691 2322 
L 691 4666 
z
" transform="scale(0.015625)"/>
       </defs>
       <use xlink:href="#DejaVuSans-32"/>
       <use xlink:href="#DejaVuSans-30" x="63.623047"/>
       <use xlink:href="#DejaVuSans-32" x="127.246094"/>
       <use xlink:href="#DejaVuSans-32" x="190.869141"/>
       <use xlink:href="#DejaVuSans-2d" x="254.492188"/>
       <use xlink:href="#DejaVuSans-30" x="290.576172"/>
       <use xlink:href="#DejaVuSans-35" x="354.199219"/>
       <use xlink:href="#DejaVuSans-2d" x="417.822266"/>
       <use xlink:href="#DejaVuSans-32" x="453.90625"/>
       <use xlink:href="#DejaVuSans-34" x="517.529297"/>
      </g>
     </g>
    </g>
    <g id="xtick_5">
     <g id="line2d_5">
      <g>
       <use xlink:href="#m9e0f487c42" x="331.718743" y="395.28" style="stroke: #000000; stroke-width: 0.8"/>
      </g>
     </g>
     <g id="text_5">
      <!-- 2022-06-21 -->
      <g transform="translate(246.589716 495.213718) rotate(-45) scale(0.2 -0.2)">
       <use xlink:href="#DejaVuSans-32"/>
       <use xlink:href="#DejaVuSans-30" x="63.623047"/>
       <use xlink:href="#DejaVuSans-32" x="127.246094"/>
       <use xlink:href="#DejaVuSans-32" x="190.869141"/>
       <use xlink:href="#DejaVuSans-2d" x="254.492188"/>
       <use xlink:href="#DejaVuSans-30" x="290.576172"/>
       <use xlink:href="#DejaVuSans-36" x="354.199219"/>
       <use xlink:href="#DejaVuSans-2d" x="417.822266"/>
       <use xlink:href="#DejaVuSans-32" x="453.90625"/>
       <use xlink:href="#DejaVuSans-31" x="517.529297"/>
      </g>
     </g>
    </g>
    <g id="xtick_6">
     <g id="line2d_6">
      <g>
       <use xlink:href="#m9e0f487c42" x="388.879719" y="395.28" style="stroke: #000000; stroke-width: 0.8"/>
      </g>
     </g>
     <g id="text_6">
      <!-- 2022-07-19 -->
      <g transform="translate(303.750691 495.213718) rotate(-45) scale(0.2 -0.2)">
       <defs>
        <path id="DejaVuSans-37" d="M 525 4666 
L 3525 4666 
L 3525 4397 
L 1831 0 
L 1172 0 
L 2766 4134 
L 525 4134 
L 525 4666 
z
" transform="scale(0.015625)"/>
       </defs>
       <use xlink:href="#DejaVuSans-32"/>
       <use xlink:href="#DejaVuSans-30" x="63.623047"/>
       <use xlink:href="#DejaVuSans-32" x="127.246094"/>
       <use xlink:href="#DejaVuSans-32" x="190.869141"/>
       <use xlink:href="#DejaVuSans-2d" x="254.492188"/>
       <use xlink:href="#DejaVuSans-30" x="290.576172"/>
       <use xlink:href="#DejaVuSans-37" x="354.199219"/>
       <use xlink:href="#DejaVuSans-2d" x="417.822266"/>
       <use xlink:href="#DejaVuSans-31" x="453.90625"/>
       <use xlink:href="#DejaVuSans-39" x="517.529297"/>
      </g>
     </g>
    </g>
    <g id="xtick_7">
     <g id="line2d_7">
      <g>
       <use xlink:href="#m9e0f487c42" x="446.040694" y="395.28" style="stroke: #000000; stroke-width: 0.8"/>
      </g>
     </g>
     <g id="text_7">
      <!-- 2022-08-16 -->
      <g transform="translate(360.911667 495.213718) rotate(-45) scale(0.2 -0.2)">
       <defs>
        <path id="DejaVuSans-38" d="M 2034 2216 
Q 1584 2216 1326 1975 
Q 1069 1734 1069 1313 
Q 1069 891 1326 650 
Q 1584 409 2034 409 
Q 2484 409 2743 651 
Q 3003 894 3003 1313 
Q 3003 1734 2745 1975 
Q 2488 2216 2034 2216 
z
M 1403 2484 
Q 997 2584 770 2862 
Q 544 3141 544 3541 
Q 544 4100 942 4425 
Q 1341 4750 2034 4750 
Q 2731 4750 3128 4425 
Q 3525 4100 3525 3541 
Q 3525 3141 3298 2862 
Q 3072 2584 2669 2484 
Q 3125 2378 3379 2068 
Q 3634 1759 3634 1313 
Q 3634 634 3220 271 
Q 2806 -91 2034 -91 
Q 1263 -91 848 271 
Q 434 634 434 1313 
Q 434 1759 690 2068 
Q 947 2378 1403 2484 
z
M 1172 3481 
Q 1172 3119 1398 2916 
Q 1625 2713 2034 2713 
Q 2441 2713 2670 2916 
Q 2900 3119 2900 3481 
Q 2900 3844 2670 4047 
Q 2441 4250 2034 4250 
Q 1625 4250 1398 4047 
Q 1172 3844 1172 3481 
z
" transform="scale(0.015625)"/>
       </defs>
       <use xlink:href="#DejaVuSans-32"/>
       <use xlink:href="#DejaVuSans-30" x="63.623047"/>
       <use xlink:href="#DejaVuSans-32" x="127.246094"/>
       <use xlink:href="#DejaVuSans-32" x="190.869141"/>
       <use xlink:href="#DejaVuSans-2d" x="254.492188"/>
       <use xlink:href="#DejaVuSans-30" x="290.576172"/>
       <use xlink:href="#DejaVuSans-38" x="354.199219"/>
       <use xlink:href="#DejaVuSans-2d" x="417.822266"/>
       <use xlink:href="#DejaVuSans-31" x="453.90625"/>
       <use xlink:href="#DejaVuSans-36" x="517.529297"/>
      </g>
     </g>
    </g>
    <g id="xtick_8">
     <g id="line2d_8">
      <g>
       <use xlink:href="#m9e0f487c42" x="503.20167" y="395.28" style="stroke: #000000; stroke-width: 0.8"/>
      </g>
     </g>
     <g id="text_8">
      <!-- 2022-09-13 -->
      <g transform="translate(418.072643 495.213718) rotate(-45) scale(0.2 -0.2)">
       <use xlink:href="#DejaVuSans-32"/>
       <use xlink:href="#DejaVuSans-30" x="63.623047"/>
       <use xlink:href="#DejaVuSans-32" x="127.246094"/>
       <use xlink:href="#DejaVuSans-32" x="190.869141"/>
       <use xlink:href="#DejaVuSans-2d" x="254.492188"/>
       <use xlink:href="#DejaVuSans-30" x="290.576172"/>
       <use xlink:href="#DejaVuSans-39" x="354.199219"/>
       <use xlink:href="#DejaVuSans-2d" x="417.822266"/>
       <use xlink:href="#DejaVuSans-31" x="453.90625"/>
       <use xlink:href="#DejaVuSans-33" x="517.529297"/>
      </g>
     </g>
    </g>
    <g id="xtick_9">
     <g id="line2d_9">
      <g>
       <use xlink:href="#m9e0f487c42" x="560.362646" y="395.28" style="stroke: #000000; stroke-width: 0.8"/>
      </g>
     </g>
     <g id="text_9">
      <!-- 2022-10-11 -->
      <g transform="translate(475.233618 495.213718) rotate(-45) scale(0.2 -0.2)">
       <use xlink:href="#DejaVuSans-32"/>
       <use xlink:href="#DejaVuSans-30" x="63.623047"/>
       <use xlink:href="#DejaVuSans-32" x="127.246094"/>
       <use xlink:href="#DejaVuSans-32" x="190.869141"/>
       <use xlink:href="#DejaVuSans-2d" x="254.492188"/>
       <use xlink:href="#DejaVuSans-31" x="290.576172"/>
       <use xlink:href="#DejaVuSans-30" x="354.199219"/>
       <use xlink:href="#DejaVuSans-2d" x="417.822266"/>
       <use xlink:href="#DejaVuSans-31" x="453.90625"/>
       <use xlink:href="#DejaVuSans-31" x="517.529297"/>
      </g>
     </g>
    </g>
    <g id="xtick_10">
     <g id="line2d_10">
      <g>
       <use xlink:href="#m9e0f487c42" x="617.523621" y="395.28" style="stroke: #000000; stroke-width: 0.8"/>
      </g>
     </g>
     <g id="text_10">
      <!-- 2022-11-08 -->
      <g transform="translate(532.394594 495.213718) rotate(-45) scale(0.2 -0.2)">
       <use xlink:href="#DejaVuSans-32"/>
       <use xlink:href="#DejaVuSans-30" x="63.623047"/>
       <use xlink:href="#DejaVuSans-32" x="127.246094"/>
       <use xlink:href="#DejaVuSans-32" x="190.869141"/>
       <use xlink:href="#DejaVuSans-2d" x="254.492188"/>
       <use xlink:href="#DejaVuSans-31" x="290.576172"/>
       <use xlink:href="#DejaVuSans-31" x="354.199219"/>
       <use xlink:href="#DejaVuSans-2d" x="417.822266"/>
       <use xlink:href="#DejaVuSans-30" x="453.90625"/>
       <use xlink:href="#DejaVuSans-38" x="517.529297"/>
      </g>
     </g>
    </g>
    <g id="xtick_11">
     <g id="line2d_11">
      <g>
       <use xlink:href="#m9e0f487c42" x="674.684597" y="395.28" style="stroke: #000000; stroke-width: 0.8"/>
      </g>
     </g>
     <g id="text_11">
      <!-- 2022-12-06 -->
      <g transform="translate(589.555569 495.213718) rotate(-45) scale(0.2 -0.2)">
       <use xlink:href="#DejaVuSans-32"/>
       <use xlink:href="#DejaVuSans-30" x="63.623047"/>
       <use xlink:href="#DejaVuSans-32" x="127.246094"/>
       <use xlink:href="#DejaVuSans-32" x="190.869141"/>
       <use xlink:href="#DejaVuSans-2d" x="254.492188"/>
       <use xlink:href="#DejaVuSans-31" x="290.576172"/>
       <use xlink:href="#DejaVuSans-32" x="354.199219"/>
       <use xlink:href="#DejaVuSans-2d" x="417.822266"/>
       <use xlink:href="#DejaVuSans-30" x="453.90625"/>
       <use xlink:href="#DejaVuSans-36" x="517.529297"/>
      </g>
     </g>
    </g>
    <g id="xtick_12">
     <g id="line2d_12">
      <g>
       <use xlink:href="#m9e0f487c42" x="731.845572" y="395.28" style="stroke: #000000; stroke-width: 0.8"/>
      </g>
     </g>
     <g id="text_12">
      <!-- 2023-01-03 -->
      <g transform="translate(646.716545 495.213718) rotate(-45) scale(0.2 -0.2)">
       <use xlink:href="#DejaVuSans-32"/>
       <use xlink:href="#DejaVuSans-30" x="63.623047"/>
       <use xlink:href="#DejaVuSans-32" x="127.246094"/>
       <use xlink:href="#DejaVuSans-33" x="190.869141"/>
       <use xlink:href="#DejaVuSans-2d" x="254.492188"/>
       <use xlink:href="#DejaVuSans-30" x="290.576172"/>
       <use xlink:href="#DejaVuSans-31" x="354.199219"/>
       <use xlink:href="#DejaVuSans-2d" x="417.822266"/>
       <use xlink:href="#DejaVuSans-30" x="453.90625"/>
       <use xlink:href="#DejaVuSans-33" x="517.529297"/>
      </g>
     </g>
    </g>
    <g id="xtick_13">
     <g id="line2d_13">
      <g>
       <use xlink:href="#m9e0f487c42" x="789.006548" y="395.28" style="stroke: #000000; stroke-width: 0.8"/>
      </g>
     </g>
     <g id="text_13">
      <!-- 2023-01-31 -->
      <g transform="translate(703.877521 495.213718) rotate(-45) scale(0.2 -0.2)">
       <use xlink:href="#DejaVuSans-32"/>
       <use xlink:href="#DejaVuSans-30" x="63.623047"/>
       <use xlink:href="#DejaVuSans-32" x="127.246094"/>
       <use xlink:href="#DejaVuSans-33" x="190.869141"/>
       <use xlink:href="#DejaVuSans-2d" x="254.492188"/>
       <use xlink:href="#DejaVuSans-30" x="290.576172"/>
       <use xlink:href="#DejaVuSans-31" x="354.199219"/>
       <use xlink:href="#DejaVuSans-2d" x="417.822266"/>
       <use xlink:href="#DejaVuSans-33" x="453.90625"/>
       <use xlink:href="#DejaVuSans-31" x="517.529297"/>
      </g>
     </g>
    </g>
    <g id="xtick_14">
     <g id="line2d_14">
      <g>
       <use xlink:href="#m9e0f487c42" x="846.167524" y="395.28" style="stroke: #000000; stroke-width: 0.8"/>
      </g>
     </g>
     <g id="text_14">
      <!-- 2023-02-28 -->
      <g transform="translate(761.038496 495.213718) rotate(-45) scale(0.2 -0.2)">
       <use xlink:href="#DejaVuSans-32"/>
       <use xlink:href="#DejaVuSans-30" x="63.623047"/>
       <use xlink:href="#DejaVuSans-32" x="127.246094"/>
       <use xlink:href="#DejaVuSans-33" x="190.869141"/>
       <use xlink:href="#DejaVuSans-2d" x="254.492188"/>
       <use xlink:href="#DejaVuSans-30" x="290.576172"/>
       <use xlink:href="#DejaVuSans-32" x="354.199219"/>
       <use xlink:href="#DejaVuSans-2d" x="417.822266"/>
       <use xlink:href="#DejaVuSans-32" x="453.90625"/>
       <use xlink:href="#DejaVuSans-38" x="517.529297"/>
      </g>
     </g>
    </g>
    <g id="xtick_15">
     <g id="line2d_15">
      <g>
       <use xlink:href="#m9e0f487c42" x="903.328499" y="395.28" style="stroke: #000000; stroke-width: 0.8"/>
      </g>
     </g>
     <g id="text_15">
      <!-- 2023-03-28 -->
      <g transform="translate(818.199472 495.213718) rotate(-45) scale(0.2 -0.2)">
       <use xlink:href="#DejaVuSans-32"/>
       <use xlink:href="#DejaVuSans-30" x="63.623047"/>
       <use xlink:href="#DejaVuSans-32" x="127.246094"/>
       <use xlink:href="#DejaVuSans-33" x="190.869141"/>
       <use xlink:href="#DejaVuSans-2d" x="254.492188"/>
       <use xlink:href="#DejaVuSans-30" x="290.576172"/>
       <use xlink:href="#DejaVuSans-33" x="354.199219"/>
       <use xlink:href="#DejaVuSans-2d" x="417.822266"/>
       <use xlink:href="#DejaVuSans-32" x="453.90625"/>
       <use xlink:href="#DejaVuSans-38" x="517.529297"/>
      </g>
     </g>
    </g>
    <g id="xtick_16">
     <g id="line2d_16">
      <g>
       <use xlink:href="#m9e0f487c42" x="940.074841" y="395.28" style="stroke: #000000; stroke-width: 0.8"/>
      </g>
     </g>
     <g id="text_16">
      <!-- 2023-04-15 -->
      <g transform="translate(854.945813 495.213718) rotate(-45) scale(0.2 -0.2)">
       <use xlink:href="#DejaVuSans-32"/>
       <use xlink:href="#DejaVuSans-30" x="63.623047"/>
       <use xlink:href="#DejaVuSans-32" x="127.246094"/>
       <use xlink:href="#DejaVuSans-33" x="190.869141"/>
       <use xlink:href="#DejaVuSans-2d" x="254.492188"/>
       <use xlink:href="#DejaVuSans-30" x="290.576172"/>
       <use xlink:href="#DejaVuSans-34" x="354.199219"/>
       <use xlink:href="#DejaVuSans-2d" x="417.822266"/>
       <use xlink:href="#DejaVuSans-31" x="453.90625"/>
       <use xlink:href="#DejaVuSans-35" x="517.529297"/>
      </g>
     </g>
    </g>
   </g>
   <g id="matplotlib.axis_2">
    <g id="ytick_1">
     <g id="line2d_17">
      <defs>
       <path id="m3dfe7dea7b" d="M 0 0 
L -3.5 0 
" style="stroke: #000000; stroke-width: 0.8"/>
      </defs>
      <g>
       <use xlink:href="#m3dfe7dea7b" x="103.074841" y="368.943511" style="stroke: #000000; stroke-width: 0.8"/>
      </g>
     </g>
     <g id="text_17">
      <!-- 0.10 -->
      <g transform="translate(34.784216 376.541948) scale(0.2 -0.2)">
       <defs>
        <path id="DejaVuSans-2212" d="M 678 2272 
L 4684 2272 
L 4684 1741 
L 678 1741 
L 678 2272 
z
" transform="scale(0.015625)"/>
        <path id="DejaVuSans-2e" d="M 684 794 
L 1344 794 
L 1344 0 
L 684 0 
L 684 794 
z
" transform="scale(0.015625)"/>
       </defs>
       <use xlink:href="#DejaVuSans-2212"/>
       <use xlink:href="#DejaVuSans-30" x="83.789062"/>
       <use xlink:href="#DejaVuSans-2e" x="147.412109"/>
       <use xlink:href="#DejaVuSans-31" x="179.199219"/>
       <use xlink:href="#DejaVuSans-30" x="242.822266"/>
      </g>
     </g>
    </g>
    <g id="ytick_2">
     <g id="line2d_18">
      <g>
       <use xlink:href="#m3dfe7dea7b" x="103.074841" y="306.572479" style="stroke: #000000; stroke-width: 0.8"/>
      </g>
     </g>
     <g id="text_18">
      <!-- 0.05 -->
      <g transform="translate(34.784216 314.170917) scale(0.2 -0.2)">
       <use xlink:href="#DejaVuSans-2212"/>
       <use xlink:href="#DejaVuSans-30" x="83.789062"/>
       <use xlink:href="#DejaVuSans-2e" x="147.412109"/>
       <use xlink:href="#DejaVuSans-30" x="179.199219"/>
       <use xlink:href="#DejaVuSans-35" x="242.822266"/>
      </g>
     </g>
    </g>
    <g id="ytick_3">
     <g id="line2d_19">
      <g>
       <use xlink:href="#m3dfe7dea7b" x="103.074841" y="244.201448" style="stroke: #000000; stroke-width: 0.8"/>
      </g>
     </g>
     <g id="text_19">
      <!-- 0.00 -->
      <g transform="translate(51.543591 251.799885) scale(0.2 -0.2)">
       <use xlink:href="#DejaVuSans-30"/>
       <use xlink:href="#DejaVuSans-2e" x="63.623047"/>
       <use xlink:href="#DejaVuSans-30" x="95.410156"/>
       <use xlink:href="#DejaVuSans-30" x="159.033203"/>
      </g>
     </g>
    </g>
    <g id="ytick_4">
     <g id="line2d_20">
      <g>
       <use xlink:href="#m3dfe7dea7b" x="103.074841" y="181.830417" style="stroke: #000000; stroke-width: 0.8"/>
      </g>
     </g>
     <g id="text_20">
      <!-- 0.05 -->
      <g transform="translate(51.543591 189.428854) scale(0.2 -0.2)">
       <use xlink:href="#DejaVuSans-30"/>
       <use xlink:href="#DejaVuSans-2e" x="63.623047"/>
       <use xlink:href="#DejaVuSans-30" x="95.410156"/>
       <use xlink:href="#DejaVuSans-35" x="159.033203"/>
      </g>
     </g>
    </g>
    <g id="ytick_5">
     <g id="line2d_21">
      <g>
       <use xlink:href="#m3dfe7dea7b" x="103.074841" y="119.459385" style="stroke: #000000; stroke-width: 0.8"/>
      </g>
     </g>
     <g id="text_21">
      <!-- 0.10 -->
      <g transform="translate(51.543591 127.057823) scale(0.2 -0.2)">
       <use xlink:href="#DejaVuSans-30"/>
       <use xlink:href="#DejaVuSans-2e" x="63.623047"/>
       <use xlink:href="#DejaVuSans-31" x="95.410156"/>
       <use xlink:href="#DejaVuSans-30" x="159.033203"/>
      </g>
     </g>
    </g>
    <g id="ytick_6">
     <g id="line2d_22">
      <g>
       <use xlink:href="#m3dfe7dea7b" x="103.074841" y="57.088354" style="stroke: #000000; stroke-width: 0.8"/>
      </g>
     </g>
     <g id="text_22">
      <!-- 0.15 -->
      <g transform="translate(51.543591 64.686792) scale(0.2 -0.2)">
       <use xlink:href="#DejaVuSans-30"/>
       <use xlink:href="#DejaVuSans-2e" x="63.623047"/>
       <use xlink:href="#DejaVuSans-31" x="95.410156"/>
       <use xlink:href="#DejaVuSans-35" x="159.033203"/>
      </g>
     </g>
    </g>
   </g>
   <g id="line2d_23">
    <path d="M 666.518743 152.927476 
L 668.560207 152.927476 
L 670.60167 123.087589 
L 676.72606 123.087589 
L 678.767524 83.184735 
L 680.808987 83.184735 
L 682.85045 249.10843 
L 686.933377 249.10843 
L 688.974841 171.88705 
L 691.016304 171.88705 
L 693.057768 154.349714 
L 695.099231 154.349714 
L 697.140694 68.70908 
L 699.182158 59.077415 
L 701.223621 84.7508 
L 703.265085 84.7508 
L 705.306548 73.818084 
L 707.348011 73.818084 
L 709.389475 124.353623 
L 711.430938 124.353623 
L 713.472402 82.996544 
L 715.513865 70.754594 
L 717.555328 70.754594 
L 719.596792 163.274724 
L 721.638255 163.274724 
L 723.679719 158.284455 
L 725.721182 158.284455 
L 727.762646 225.031487 
L 729.804109 243.130741 
L 731.845572 259.441153 
L 733.887036 259.441153 
L 735.928499 285.056539 
L 737.969963 285.056539 
L 740.011426 274.423854 
L 742.052889 260.35615 
L 744.094353 260.35615 
L 746.135816 289.449971 
L 748.17728 289.449971 
L 750.218743 274.15122 
L 752.260207 274.15122 
L 754.30167 346.358852 
L 756.343133 346.358852 
L 758.384597 377.64 
L 760.42606 369.172412 
L 762.467524 357.028503 
L 764.508987 357.028503 
L 766.55045 342.345832 
L 770.633377 342.345832 
L 772.674841 285.414702 
L 774.716304 285.414702 
L 776.757768 268.562832 
L 782.882158 268.562832 
L 784.923621 218.882806 
L 786.965085 218.882806 
L 789.006548 173.202614 
L 791.048011 173.202614 
L 793.089475 94.228183 
L 801.255328 94.228183 
L 803.296792 207.881471 
L 821.669963 207.881471 
L 821.669963 207.881471 
" clip-path="url(#p6707251645)" style="fill: none; stroke: #ffa500; stroke-width: 1.5; stroke-linecap: square"/>
   </g>
   <g id="line2d_24">
    <path d="M 103.074841 244.201448 
L 948.274841 244.201448 
" clip-path="url(#p6707251645)" style="fill: none; stroke-dasharray: 7.4,3.2; stroke-dashoffset: 0; stroke: #000000; stroke-width: 2"/>
   </g>
   <g id="patch_3">
    <path d="M 103.074841 395.28 
L 103.074841 7.2 
" style="fill: none; stroke: #000000; stroke-width: 0.8; stroke-linejoin: miter; stroke-linecap: square"/>
   </g>
   <g id="patch_4">
    <path d="M 940.074841 395.28 
L 940.074841 7.2 
" style="fill: none; stroke: #000000; stroke-width: 0.8; stroke-linejoin: miter; stroke-linecap: square"/>
   </g>
   <g id="patch_5">
    <path d="M 103.074841 395.28 
L 940.074841 395.28 
" style="fill: none; stroke: #000000; stroke-width: 0.8; stroke-linejoin: miter; stroke-linecap: square"/>
   </g>
   <g id="patch_6">
    <path d="M 103.074841 7.2 
L 940.074841 7.2 
" style="fill: none; stroke: #000000; stroke-width: 0.8; stroke-linejoin: miter; stroke-linecap: square"/>
   </g>
  </g>
 </g>
 <defs>
  <clipPath id="p6707251645">
   <rect x="103.074841" y="7.2" width="837" height="388.08"/>
  </clipPath>
 </defs>
</svg>
