<?xml version="1.0" encoding="utf-8" standalone="no"?>
<!DOCTYPE svg PUBLIC "-//W3C//DTD SVG 1.1//EN"
  "http://www.w3.org/Graphics/SVG/1.1/DTD/svg11.dtd">
<svg xmlns:xlink="http://www.w3.org/1999/xlink" width="947.274841pt" height="505.354841pt" viewBox="0 0 947.274841 505.354841" xmlns="http://www.w3.org/2000/svg" version="1.1">
 <metadata>
  <rdf:RDF xmlns:dc="http://purl.org/dc/elements/1.1/" xmlns:cc="http://creativecommons.org/ns#" xmlns:rdf="http://www.w3.org/1999/02/22-rdf-syntax-ns#">
   <cc:Work>
    <dc:type rdf:resource="http://purl.org/dc/dcmitype/StillImage"/>
    <dc:date>2023-11-15T19:57:13.531586</dc:date>
    <dc:format>image/svg+xml</dc:format>
    <dc:creator>
     <cc:Agent>
      <dc:title>Matplotlib v3.7.2, https://matplotlib.org/</dc:title>
     </cc:Agent>
    </dc:creator>
   </cc:Work>
  </rdf:RDF>
 </metadata>
 <defs>
  <style type="text/css">*{stroke-linejoin: round; stroke-linecap: butt}</style>
 </defs>
 <g id="figure_1">
  <g id="patch_1">
   <path d="M 0 505.354841 
L 947.274841 505.354841 
L 947.274841 -0 
L 0 -0 
z
" style="fill: #ffffff"/>
  </g>
  <g id="axes_1">
   <g id="patch_2">
    <path d="M 103.074841 395.28 
L 940.074841 395.28 
L 940.074841 7.2 
L 103.074841 7.2 
z
" style="fill: #ffffff"/>
   </g>
   <g id="PolyCollection_1">
    <path d="M -393.000769 347.677647 
L -393.000769 347.681357 
L -390.959306 347.648938 
L -388.917842 347.633436 
L -386.876379 347.609121 
L -384.834915 347.605981 
L -382.793452 347.593332 
L -380.751989 347.572895 
L -378.710525 347.554285 
L -376.669062 347.54045 
L -374.627598 347.534744 
L -372.586135 347.520801 
L -370.544672 347.50453 
L -368.503208 347.490984 
L -366.461745 347.463701 
L -364.420281 347.45133 
L -362.378818 347.428183 
L -360.337354 347.417521 
L -358.295891 347.384489 
L -356.254428 347.369196 
L -354.212964 347.357885 
L -352.171501 347.334855 
L -350.130037 347.315791 
L -348.088574 347.30045 
L -346.047111 347.270486 
L -344.005647 347.255419 
L -341.964184 347.228334 
L -339.92272 347.203203 
L -337.881257 347.170843 
L -335.839793 347.139319 
L -333.79833 347.114506 
L -331.756867 347.076445 
L -329.715403 347.026348 
L -327.67394 346.998556 
L -325.632476 346.958499 
L -323.591013 346.903461 
L -321.54955 346.867008 
L -319.508086 346.810111 
L -317.466623 346.757817 
L -315.425159 346.707293 
L -313.383696 346.65398 
L -311.342232 346.586882 
L -309.300769 346.514043 
L -307.259306 346.436158 
L -305.217842 346.376892 
L -303.176379 346.283582 
L -301.134915 346.214074 
L -299.093452 346.135388 
L -297.051989 346.064336 
L -295.010525 345.978998 
L -292.969062 345.875693 
L -290.927598 345.806153 
L -288.886135 345.707412 
L -286.844672 345.603546 
L -284.803208 345.513991 
L -282.761745 345.434311 
L -280.720281 345.330042 
L -278.678818 345.227745 
L -276.637354 345.131889 
L -274.595891 345.025111 
L -272.554428 344.919123 
L -270.512964 344.8196 
L -268.471501 344.711092 
L -266.430037 344.606424 
L -264.388574 344.512651 
L -262.347111 344.405505 
L -260.305647 344.271655 
L -258.264184 344.155978 
L -256.22272 344.043688 
L -254.181257 343.939955 
L -252.139793 343.818595 
L -250.09833 343.70826 
L -248.056867 343.589624 
L -246.015403 343.514655 
L -243.97394 343.363821 
L -241.932476 343.276813 
L -239.891013 343.147022 
L -237.84955 343.037525 
L -235.808086 342.904104 
L -233.766623 342.81507 
L -231.725159 342.663993 
L -229.683696 342.539718 
L -227.642232 342.438109 
L -225.600769 342.29924 
L -223.559306 342.18303 
L -221.517842 342.046288 
L -219.476379 341.90301 
L -217.434915 341.783029 
L -215.393452 341.671482 
L -213.351989 341.527452 
L -211.310525 341.399741 
L -209.269062 341.263975 
L -207.227598 341.141063 
L -205.186135 341.025721 
L -203.144672 340.897845 
L -201.103208 340.764446 
L -199.061745 340.674869 
L -197.020281 340.537249 
L -194.978818 340.41613 
L -192.937354 340.299344 
L -190.895891 340.179867 
L -188.854428 340.06758 
L -186.812964 339.950848 
L -184.771501 339.852212 
L -182.730037 339.736774 
L -180.688574 339.610725 
L -178.647111 339.480179 
L -176.605647 339.345883 
L -174.564184 339.240616 
L -172.52272 339.096951 
L -170.481257 338.9265 
L -168.439793 338.788366 
L -166.39833 338.629801 
L -164.356867 338.468285 
L -162.315403 338.284978 
L -160.27394 338.097721 
L -158.232476 337.952129 
L -156.191013 337.744964 
L -154.14955 337.570089 
L -152.108086 337.361417 
L -150.066623 337.2033 
L -148.025159 336.961255 
L -145.983696 336.736768 
L -143.942232 336.534454 
L -141.900769 336.327545 
L -139.859306 336.108361 
L -137.817842 335.868146 
L -135.776379 335.672814 
L -133.734915 335.398406 
L -131.693452 335.210593 
L -129.651989 334.928759 
L -127.610525 334.674436 
L -125.569062 334.442003 
L -123.527598 334.2424 
L -121.486135 333.945408 
L -119.444672 333.725757 
L -117.403208 333.335787 
L -115.361745 333.071038 
L -113.320281 332.864376 
L -111.278818 332.581057 
L -109.237354 332.289179 
L -107.195891 331.892591 
L -105.154428 331.565605 
L -103.112964 331.390983 
L -101.071501 330.828282 
L -99.030037 330.500144 
L -96.988574 330.171817 
L -94.947111 329.829809 
L -92.905647 329.380358 
L -90.864184 329.017362 
L -88.82272 328.921136 
L -86.781257 328.64145 
L -84.739793 327.774255 
L -82.69833 327.185501 
L -80.656867 326.96735 
L -78.615403 326.400514 
L -76.57394 326.087996 
L -74.532476 325.940985 
L -72.491013 325.312876 
L -70.44955 324.504018 
L -68.408086 324.242128 
L -66.366623 324.403459 
L -64.325159 323.909301 
L -62.283696 324.191454 
L -60.242232 324.09837 
L -58.200769 323.496027 
L -56.159306 324.141132 
L -54.117842 325.301674 
L -52.076379 327.073174 
L -50.034915 326.393253 
L -47.993452 329.540329 
L -45.951989 330.749014 
L -43.910525 327.784503 
L -41.869062 329.293488 
L -39.827598 331.342496 
L -37.786135 330.8852 
L -35.744672 331.137325 
L -33.703208 338.159707 
L -31.661745 347.912401 
L -29.620281 352.904157 
L -27.578818 342.933119 
L -25.537354 348.514189 
L -23.495891 355.56056 
L -21.454428 355.351953 
L -19.412964 369.44044 
L -17.371501 367.506581 
L -15.330037 363.336567 
L -13.288574 352.704723 
L -11.247111 362.803604 
L -9.205647 368.794561 
L -7.164184 366.130844 
L -5.12272 367.770607 
L -3.081257 373.250982 
L -1.039793 372.375553 
L 1.00167 367.604914 
L 3.043133 373.488993 
L 5.084597 374.778646 
L 7.12606 372.403574 
L 9.167524 376.358911 
L 11.208987 377.64 
L 13.25045 377.228932 
L 15.291914 375.834413 
L 17.333377 376.972207 
L 19.374841 375.482512 
L 21.416304 375.460366 
L 23.457768 376.60382 
L 25.499231 375.422089 
L 27.540694 375.901823 
L 29.582158 375.88501 
L 31.623621 374.672266 
L 33.665085 374.981305 
L 35.706548 373.169629 
L 37.748011 373.411171 
L 39.789475 373.742555 
L 41.830938 373.705646 
L 43.872402 372.821899 
L 45.913865 372.007055 
L 47.955328 371.79267 
L 49.996792 371.044453 
L 52.038255 370.860702 
L 54.079719 370.632215 
L 56.121182 369.456115 
L 58.162646 369.928043 
L 60.204109 369.080928 
L 62.245572 368.533736 
L 64.287036 368.606646 
L 66.328499 367.769888 
L 68.369963 367.46479 
L 70.411426 367.582283 
L 72.452889 367.827069 
L 74.494353 366.480425 
L 76.535816 365.758536 
L 78.57728 365.607871 
L 80.618743 367.365347 
L 82.660207 367.191491 
L 84.70167 367.709679 
L 86.743133 365.524904 
L 88.784597 364.147874 
L 90.82606 364.196686 
L 92.867524 365.158955 
L 94.908987 365.031706 
L 96.95045 362.545379 
L 98.991914 364.016938 
L 101.033377 362.83429 
L 103.074841 362.306386 
L 105.116304 360.78735 
L 107.157768 361.150366 
L 109.199231 360.295738 
L 111.240694 360.352026 
L 113.282158 359.080069 
L 115.323621 358.044929 
L 117.365085 356.578452 
L 119.406548 355.638189 
L 121.448011 354.715055 
L 123.489475 353.490662 
L 125.530938 352.816107 
L 127.572402 351.582339 
L 129.613865 350.283692 
L 131.655328 348.291808 
L 133.696792 346.484432 
L 135.738255 345.227032 
L 137.779719 343.351548 
L 139.821182 342.396044 
L 141.862646 340.676394 
L 143.904109 338.474977 
L 145.945572 336.560027 
L 147.987036 334.772704 
L 150.028499 332.563485 
L 152.069963 330.752059 
L 154.111426 328.687726 
L 156.152889 326.717023 
L 158.194353 324.427793 
L 160.235816 322.240214 
L 162.27728 319.981234 
L 164.318743 317.834577 
L 166.360207 315.6519 
L 168.40167 313.037492 
L 170.443133 310.571492 
L 172.484597 308.140696 
L 174.52606 306.190742 
L 176.567524 303.540675 
L 178.608987 301.203277 
L 180.65045 298.659471 
L 182.691914 295.304966 
L 184.733377 293.379783 
L 186.774841 290.469584 
L 188.816304 288.003891 
L 190.857768 285.258377 
L 192.899231 282.270712 
L 194.940694 279.46792 
L 196.982158 276.642334 
L 199.023621 273.264399 
L 201.065085 270.682174 
L 203.106548 267.348954 
L 205.148011 264.862946 
L 207.189475 261.424826 
L 209.230938 258.02054 
L 211.272402 254.95299 
L 213.313865 252.243776 
L 215.355328 248.431428 
L 217.396792 245.472586 
L 219.438255 241.981312 
L 221.479719 238.962041 
L 223.521182 235.320226 
L 225.562646 231.932713 
L 227.604109 230.700205 
L 229.645572 225.087566 
L 231.687036 223.362096 
L 233.728499 219.691174 
L 235.769963 216.74193 
L 237.811426 213.45512 
L 239.852889 210.09275 
L 241.894353 206.848964 
L 243.935816 203.826076 
L 245.97728 200.950719 
L 248.018743 197.972267 
L 250.060207 198.505669 
L 252.10167 191.698263 
L 254.143133 189.553893 
L 256.184597 192.791892 
L 258.22606 185.330331 
L 260.267524 185.361313 
L 262.308987 183.746968 
L 264.35045 179.253329 
L 266.391914 179.074834 
L 268.433377 181.241913 
L 270.474841 177.843006 
L 272.516304 175.981535 
L 274.557768 177.350758 
L 276.599231 175.909532 
L 278.640694 176.509461 
L 280.682158 177.914683 
L 282.723621 180.028109 
L 284.765085 187.326291 
L 286.806548 184.61631 
L 288.848011 188.091329 
L 290.889475 190.64348 
L 292.930938 191.90877 
L 294.972402 195.507437 
L 297.013865 197.320533 
L 299.055328 191.473911 
L 301.096792 195.562911 
L 303.138255 201.716293 
L 305.179719 204.249181 
L 307.221182 204.229666 
L 309.262646 212.047811 
L 311.304109 211.77432 
L 313.345572 212.665935 
L 315.387036 211.795173 
L 317.428499 217.880846 
L 319.469963 214.567795 
L 321.511426 212.670361 
L 323.552889 220.98179 
L 325.594353 227.434863 
L 327.635816 226.979506 
L 329.67728 230.842713 
L 331.718743 232.145043 
L 333.760207 232.436213 
L 335.80167 232.486764 
L 337.843133 234.617931 
L 339.884597 235.83154 
L 341.92606 242.345307 
L 343.967524 239.024238 
L 346.008987 244.669993 
L 348.05045 243.371871 
L 350.091914 242.571647 
L 352.133377 244.806778 
L 354.174841 246.781521 
L 356.216304 244.11832 
L 358.257768 245.291251 
L 360.299231 245.256265 
L 362.340694 248.188996 
L 364.382158 246.506862 
L 366.423621 245.614664 
L 368.465085 246.285972 
L 370.506548 247.529652 
L 372.548011 246.538685 
L 374.589475 244.778975 
L 376.630938 245.283044 
L 378.672402 242.701762 
L 380.713865 242.561521 
L 382.755328 245.824648 
L 384.796792 245.166328 
L 386.838255 242.614767 
L 388.879719 241.601088 
L 390.921182 241.312025 
L 392.962646 238.516775 
L 395.004109 238.48194 
L 397.045572 237.87137 
L 399.087036 236.7755 
L 401.128499 235.53154 
L 403.169963 233.492838 
L 405.211426 233.652538 
L 407.252889 232.050332 
L 409.294353 231.171164 
L 411.335816 229.995775 
L 413.37728 229.387029 
L 415.418743 227.65868 
L 417.460207 225.070074 
L 419.50167 224.337327 
L 421.543133 222.133215 
L 423.584597 219.251229 
L 425.62606 220.325097 
L 427.667524 216.655686 
L 429.708987 217.403266 
L 431.75045 216.290367 
L 433.791914 216.012403 
L 435.833377 213.546375 
L 437.874841 212.955817 
L 439.916304 212.244913 
L 441.957768 209.369883 
L 443.999231 209.62022 
L 446.040694 209.056491 
L 448.082158 208.631141 
L 450.123621 207.150692 
L 452.165085 207.425141 
L 454.206548 205.946778 
L 456.248011 204.553524 
L 458.289475 202.505613 
L 460.330938 201.720683 
L 462.372402 201.149488 
L 464.413865 199.704707 
L 466.455328 199.739336 
L 468.496792 198.971741 
L 470.538255 197.704015 
L 472.579719 197.625982 
L 474.621182 196.228294 
L 476.662646 197.197549 
L 478.704109 196.206758 
L 480.745572 196.163882 
L 482.787036 194.480712 
L 484.828499 192.220468 
L 486.869963 194.012315 
L 488.911426 193.890155 
L 490.952889 193.122137 
L 492.994353 192.334747 
L 495.035816 190.769026 
L 497.07728 190.389253 
L 499.118743 189.523813 
L 501.160207 189.62611 
L 503.20167 189.28921 
L 505.243133 187.819234 
L 507.284597 185.743069 
L 509.32606 188.402304 
L 511.367524 187.747337 
L 513.408987 185.980161 
L 515.45045 187.071573 
L 517.491914 183.920891 
L 519.533377 184.277566 
L 521.574841 184.44536 
L 523.616304 182.286471 
L 525.657768 185.848301 
L 527.699231 182.168604 
L 529.740694 180.264041 
L 531.782158 182.54808 
L 533.823621 183.093857 
L 535.865085 181.834203 
L 537.906548 182.629853 
L 539.948011 180.829142 
L 541.989475 183.906407 
L 544.030938 182.085357 
L 546.072402 182.559156 
L 548.113865 180.141986 
L 550.155328 177.939557 
L 552.196792 180.221 
L 554.238255 184.486778 
L 556.279719 179.073348 
L 558.321182 179.085832 
L 560.362646 176.88266 
L 562.404109 177.509962 
L 564.445572 176.968061 
L 566.487036 175.493823 
L 568.528499 174.775761 
L 570.569963 176.712898 
L 572.611426 175.31223 
L 574.652889 177.083321 
L 576.694353 177.230462 
L 578.735816 171.163094 
L 580.77728 173.393732 
L 582.818743 173.428665 
L 584.860207 173.693345 
L 586.90167 173.933752 
L 588.943133 177.586008 
L 590.984597 179.000681 
L 593.02606 178.767696 
L 595.067524 182.856428 
L 597.108987 189.672216 
L 599.15045 181.492011 
L 601.191914 181.394798 
L 603.233377 181.579807 
L 605.274841 184.315234 
L 607.316304 184.963302 
L 609.357768 184.975177 
L 611.399231 190.901383 
L 613.440694 193.100157 
L 615.482158 186.414092 
L 617.523621 192.49846 
L 619.565085 189.510939 
L 621.606548 187.646545 
L 623.648011 195.012179 
L 625.689475 193.515929 
L 627.730938 198.242423 
L 629.772402 196.737641 
L 631.813865 193.453051 
L 633.855328 196.362305 
L 635.896792 196.277004 
L 637.938255 199.112406 
L 639.979719 197.15809 
L 642.021182 201.877259 
L 644.062646 198.269624 
L 646.104109 200.690831 
L 648.145572 200.026863 
L 650.187036 202.695155 
L 652.228499 198.006986 
L 654.269963 202.717341 
L 656.311426 202.292609 
L 658.352889 205.458686 
L 660.394353 207.050331 
L 662.435816 206.899268 
L 664.47728 205.886383 
L 666.518743 207.863918 
L 668.560207 209.298447 
L 670.60167 207.714046 
L 672.643133 207.021287 
L 674.684597 208.738594 
L 676.72606 210.283874 
L 678.767524 207.169445 
L 680.808987 205.314138 
L 682.85045 211.932992 
L 684.891914 214.860575 
L 686.933377 207.790734 
L 688.974841 209.691732 
L 691.016304 210.581048 
L 693.057768 210.945123 
L 695.099231 214.294324 
L 697.140694 213.733526 
L 699.182158 212.211432 
L 701.223621 213.630819 
L 703.265085 213.947646 
L 705.306548 210.133777 
L 707.348011 211.952542 
L 709.389475 210.729136 
L 711.430938 215.849393 
L 713.472402 222.172542 
L 715.513865 221.229542 
L 717.555328 216.162254 
L 719.596792 215.612491 
L 721.638255 216.304836 
L 723.679719 216.554969 
L 725.721182 221.296571 
L 727.762646 215.30311 
L 729.804109 221.651195 
L 731.845572 226.768611 
L 733.887036 222.569906 
L 735.928499 229.151284 
L 737.969963 225.118634 
L 740.011426 228.739472 
L 742.052889 226.45165 
L 744.094353 228.279839 
L 746.135816 231.851973 
L 748.17728 231.689922 
L 750.218743 232.845633 
L 752.260207 233.209062 
L 754.30167 233.654955 
L 756.343133 225.190963 
L 758.384597 236.272115 
L 760.42606 240.878431 
L 762.467524 236.569881 
L 764.508987 240.647333 
L 766.55045 241.591001 
L 768.591914 239.375456 
L 770.633377 243.969623 
L 772.674841 247.071142 
L 774.716304 245.375834 
L 776.757768 246.641165 
L 778.799231 247.393029 
L 780.840694 248.565974 
L 782.882158 252.080326 
L 784.923621 245.184923 
L 786.965085 253.96865 
L 789.006548 254.259899 
L 791.048011 254.721144 
L 793.089475 249.413858 
L 795.130938 256.069479 
L 797.172402 260.506986 
L 799.213865 256.108457 
L 801.255328 256.652053 
L 803.296792 262.792184 
L 805.338255 252.163453 
L 807.379719 262.133179 
L 809.421182 255.920247 
L 811.462646 264.618092 
L 813.504109 260.501042 
L 815.545572 264.251788 
L 817.587036 265.402215 
L 819.628499 267.01801 
L 821.669963 267.4846 
L 823.711426 265.120427 
L 825.752889 265.150877 
L 827.794353 266.287263 
L 829.835816 270.229649 
L 831.87728 269.695022 
L 833.918743 269.533321 
L 835.960207 271.927699 
L 838.00167 272.066401 
L 840.043133 270.096959 
L 842.084597 270.412579 
L 844.12606 274.08372 
L 846.167524 274.614104 
L 848.208987 275.514939 
L 850.25045 272.549614 
L 852.291914 268.144172 
L 854.333377 273.040552 
L 856.374841 271.557011 
L 858.416304 272.885095 
L 860.457768 275.002581 
L 862.499231 272.326993 
L 864.540694 275.794279 
L 866.582158 273.318069 
L 868.623621 272.957239 
L 870.665085 272.775727 
L 872.706548 275.807066 
L 874.748011 275.008221 
L 876.789475 274.705711 
L 878.830938 272.460132 
L 880.872402 273.609589 
L 882.913865 274.087674 
L 884.955328 273.424208 
L 886.996792 275.387914 
L 889.038255 274.884528 
L 891.079719 275.988527 
L 893.121182 277.221143 
L 895.162646 277.079417 
L 897.204109 275.815058 
L 899.245572 276.120106 
L 901.287036 275.331438 
L 903.328499 276.279551 
L 905.369963 276.463365 
L 907.411426 275.038182 
L 909.452889 276.613373 
L 911.494353 269.708169 
L 913.535816 276.58913 
L 915.57728 279.152811 
L 917.618743 276.374234 
L 919.660207 276.372488 
L 921.70167 278.944733 
L 923.743133 279.043088 
L 925.784597 276.62746 
L 927.82606 276.475976 
L 929.867524 278.120863 
L 931.908987 277.585147 
L 933.95045 280.715711 
L 935.991914 279.692018 
L 938.033377 281.918274 
L 940.074841 278.800185 
L 940.074841 197.148258 
L 940.074841 197.148258 
L 938.033377 194.609238 
L 935.991914 191.144566 
L 933.95045 194.710716 
L 931.908987 187.378498 
L 929.867524 189.17189 
L 927.82606 187.988065 
L 925.784597 180.370603 
L 923.743133 189.825932 
L 921.70167 194.82936 
L 919.660207 180.531275 
L 917.618743 186.537578 
L 915.57728 192.31458 
L 913.535816 188.34072 
L 911.494353 141.778357 
L 909.452889 186.736959 
L 907.411426 178.241876 
L 905.369963 187.268742 
L 903.328499 186.61807 
L 901.287036 183.189511 
L 899.245572 183.627048 
L 897.204109 182.837139 
L 895.162646 188.217993 
L 893.121182 188.591073 
L 891.079719 182.037885 
L 889.038255 177.80736 
L 886.996792 181.919964 
L 884.955328 175.770603 
L 882.913865 178.669308 
L 880.872402 175.240648 
L 878.830938 170.799906 
L 876.789475 177.924205 
L 874.748011 179.082202 
L 872.706548 179.534779 
L 870.665085 172.205851 
L 868.623621 170.974971 
L 866.582158 171.10857 
L 864.540694 180.593267 
L 862.499231 168.611526 
L 860.457768 177.514547 
L 858.416304 170.75742 
L 856.374841 165.799156 
L 854.333377 170.836749 
L 852.291914 151.520248 
L 850.25045 169.723935 
L 848.208987 177.584131 
L 846.167524 174.530228 
L 844.12606 173.379213 
L 842.084597 158.110762 
L 840.043133 159.127324 
L 838.00167 165.361284 
L 835.960207 165.57837 
L 833.918743 157.437849 
L 831.87728 158.545823 
L 829.835816 158.409238 
L 827.794353 150.482334 
L 825.752889 143.748205 
L 823.711426 142.766423 
L 821.669963 149.904342 
L 819.628499 148.660397 
L 817.587036 145.499408 
L 815.545572 142.22953 
L 813.504109 130.160144 
L 811.462646 143.4471 
L 809.421182 111.325402 
L 807.379719 133.995975 
L 805.338255 103.42367 
L 803.296792 137.651863 
L 801.255328 119.560107 
L 799.213865 119.710912 
L 797.172402 129.786306 
L 795.130938 118.939293 
L 793.089475 98.754117 
L 791.048011 114.265078 
L 789.006548 114.380698 
L 786.965085 114.186688 
L 784.923621 90.559647 
L 782.882158 102.86826 
L 780.840694 100.389595 
L 778.799231 99.098168 
L 776.757768 96.832303 
L 774.716304 92.183937 
L 772.674841 97.475495 
L 770.633377 88.994141 
L 768.591914 78.298315 
L 766.55045 87.791418 
L 764.508987 80.887397 
L 762.467524 74.748666 
L 760.42606 85.611783 
L 758.384597 74.464559 
L 756.343133 45.34273 
L 754.30167 67.152904 
L 752.260207 66.605326 
L 750.218743 66.951883 
L 748.17728 64.626021 
L 746.135816 65.040503 
L 744.094353 57.327112 
L 742.052889 54.323711 
L 740.011426 60.81331 
L 737.969963 49.485407 
L 735.928499 61.711676 
L 733.887036 45.885672 
L 731.845572 55.508468 
L 729.804109 45.107214 
L 727.762646 32.153836 
L 725.721182 44.760272 
L 723.679719 33.478833 
L 721.638255 34.676598 
L 719.596792 34.573587 
L 717.555328 36.125842 
L 715.513865 47.574825 
L 713.472402 50.642812 
L 711.430938 37.894202 
L 709.389475 24.84 
L 707.348011 29.125828 
L 705.306548 26.911515 
L 703.265085 35.928551 
L 701.223621 35.594761 
L 699.182158 32.738097 
L 697.140694 37.721966 
L 695.099231 37.961494 
L 693.057768 31.70828 
L 691.016304 33.158875 
L 688.974841 31.134097 
L 686.933377 28.508248 
L 684.891914 44.632784 
L 682.85045 36.585143 
L 680.808987 25.34246 
L 678.767524 31.73021 
L 676.72606 37.522841 
L 674.684597 34.854869 
L 672.643133 32.971273 
L 670.60167 35.701824 
L 668.560207 41.790715 
L 666.518743 36.68479 
L 664.47728 35.267455 
L 662.435816 38.366944 
L 660.394353 35.448349 
L 658.352889 37.345268 
L 656.311426 30.742901 
L 654.269963 34.128312 
L 652.228499 25.922265 
L 650.187036 34.330465 
L 648.145572 31.435606 
L 646.104109 34.295346 
L 644.062646 32.564506 
L 642.021182 37.94998 
L 639.979719 30.656099 
L 637.938255 36.357596 
L 635.896792 31.996577 
L 633.855328 33.630234 
L 631.813865 30.335763 
L 629.772402 33.053254 
L 627.730938 39.345167 
L 625.689475 34.478918 
L 623.648011 36.41833 
L 621.606548 26.235876 
L 619.565085 31.805953 
L 617.523621 34.918215 
L 615.482158 27.209489 
L 613.440694 37.054754 
L 611.399231 38.37153 
L 609.357768 28.485598 
L 607.316304 29.29083 
L 605.274841 29.187965 
L 603.233377 26.066775 
L 601.191914 29.348679 
L 599.15045 29.110603 
L 597.108987 42.149302 
L 595.067524 34.424254 
L 593.02606 28.952303 
L 590.984597 29.941784 
L 588.943133 28.963861 
L 586.90167 26.077312 
L 584.860207 28.347032 
L 582.818743 26.76066 
L 580.77728 30.60234 
L 578.735816 27.919213 
L 576.694353 35.945637 
L 574.652889 37.929954 
L 572.611426 37.380483 
L 570.569963 40.005612 
L 568.528499 38.424164 
L 566.487036 41.579748 
L 564.445572 43.870612 
L 562.404109 48.222514 
L 560.362646 46.665819 
L 558.321182 51.385518 
L 556.279719 51.700079 
L 554.238255 59.553327 
L 552.196792 55.953466 
L 550.155328 54.484898 
L 548.113865 58.360573 
L 546.072402 60.616393 
L 544.030938 61.627999 
L 541.989475 66.452461 
L 539.948011 63.897897 
L 537.906548 67.370556 
L 535.865085 66.898868 
L 533.823621 68.308154 
L 531.782158 67.93028 
L 529.740694 67.005318 
L 527.699231 70.884247 
L 525.657768 75.79498 
L 523.616304 72.20629 
L 521.574841 75.342993 
L 519.533377 74.950674 
L 517.491914 77.020117 
L 515.45045 80.92352 
L 513.408987 80.484053 
L 511.367524 83.765004 
L 509.32606 85.112024 
L 507.284597 82.81022 
L 505.243133 85.200782 
L 503.20167 87.79022 
L 501.160207 89.142174 
L 499.118743 89.716593 
L 497.07728 91.748789 
L 495.035816 92.191817 
L 492.994353 94.895572 
L 490.952889 96.130334 
L 488.911426 97.261131 
L 486.869963 98.391839 
L 484.828499 95.441446 
L 482.787036 100.12747 
L 480.745572 102.411889 
L 478.704109 102.643389 
L 476.662646 103.458789 
L 474.621182 104.175482 
L 472.579719 106.03544 
L 470.538255 106.353823 
L 468.496792 108.812431 
L 466.455328 110.138205 
L 464.413865 110.441396 
L 462.372402 111.81191 
L 460.330938 113.421167 
L 458.289475 115.074239 
L 456.248011 118.875136 
L 454.206548 120.370716 
L 452.165085 122.645021 
L 450.123621 122.718916 
L 448.082158 124.973395 
L 446.040694 125.972579 
L 443.999231 127.289023 
L 441.957768 126.654275 
L 439.916304 131.845489 
L 437.874841 133.172599 
L 435.833377 134.429535 
L 433.791914 137.981366 
L 431.75045 138.821692 
L 429.708987 140.922176 
L 427.667524 140.690985 
L 425.62606 145.271909 
L 423.584597 145.33021 
L 421.543133 149.808784 
L 419.50167 153.321004 
L 417.460207 155.137733 
L 415.418743 159.27057 
L 413.37728 162.710583 
L 411.335816 163.714406 
L 409.294353 166.215454 
L 407.252889 167.666253 
L 405.211426 170.555118 
L 403.169963 170.991252 
L 401.128499 174.514623 
L 399.087036 177.359764 
L 397.045572 179.36414 
L 395.004109 180.89284 
L 392.962646 182.118696 
L 390.921182 185.845093 
L 388.879719 187.176269 
L 386.838255 189.53572 
L 384.796792 192.883591 
L 382.755328 194.346871 
L 380.713865 192.326487 
L 378.672402 193.504334 
L 376.630938 196.918986 
L 374.589475 197.611524 
L 372.548011 200.035396 
L 370.506548 201.950695 
L 368.465085 201.45323 
L 366.423621 202.37176 
L 364.382158 203.882025 
L 362.340694 206.339098 
L 360.299231 204.139893 
L 358.257768 205.228131 
L 356.216304 205.270578 
L 354.174841 208.455532 
L 352.133377 207.928774 
L 350.091914 206.492066 
L 348.05045 208.038652 
L 346.008987 209.83325 
L 343.967524 205.549665 
L 341.92606 209.441683 
L 339.884597 204.534028 
L 337.843133 204.179225 
L 335.80167 203.106859 
L 333.760207 204.030711 
L 331.718743 204.478784 
L 329.67728 204.733285 
L 327.635816 202.006199 
L 325.594353 203.991623 
L 323.552889 197.956689 
L 321.511426 191.288189 
L 319.469963 193.066269 
L 317.428499 196.158885 
L 315.387036 188.383582 
L 313.345572 189.10165 
L 311.304109 187.369775 
L 309.262646 187.079004 
L 307.221182 177.769913 
L 305.179719 176.994664 
L 303.138255 173.840482 
L 301.096792 166.537856 
L 299.055328 160.780334 
L 297.013865 167.179762 
L 294.972402 164.202061 
L 292.930938 158.673543 
L 290.889475 156.242206 
L 288.848011 152.030177 
L 286.806548 146.543571 
L 284.765085 149.008368 
L 282.723621 139.282181 
L 280.682158 134.383243 
L 278.640694 132.213498 
L 276.599231 130.54809 
L 274.557768 131.872266 
L 272.516304 129.754892 
L 270.474841 132.085421 
L 268.433377 135.080498 
L 266.391914 130.732611 
L 264.35045 130.647245 
L 262.308987 135.497685 
L 260.267524 136.955542 
L 258.22606 135.743492 
L 256.184597 145.399054 
L 254.143133 139.589048 
L 252.10167 142.381897 
L 250.060207 149.957305 
L 248.018743 148.700187 
L 245.97728 151.94635 
L 243.935816 154.951384 
L 241.894353 158.373551 
L 239.852889 161.685218 
L 237.811426 165.352917 
L 235.769963 168.816637 
L 233.728499 171.807998 
L 231.687036 176.098205 
L 229.645572 177.762885 
L 227.604109 184.143382 
L 225.562646 185.228211 
L 223.521182 188.860993 
L 221.479719 192.964955 
L 219.438255 196.252438 
L 217.396792 200.229958 
L 215.355328 203.328466 
L 213.313865 207.616691 
L 211.272402 210.557925 
L 209.230938 214.089621 
L 207.189475 217.794264 
L 205.148011 221.633355 
L 203.106548 224.387381 
L 201.065085 228.176024 
L 199.023621 230.874347 
L 196.982158 234.719184 
L 194.940694 237.815938 
L 192.899231 241.131738 
L 190.857768 244.359071 
L 188.816304 247.443258 
L 186.774841 250.220671 
L 184.733377 253.548366 
L 182.691914 255.701149 
L 180.65045 259.464042 
L 178.608987 262.349318 
L 176.567524 264.877685 
L 174.52606 267.851111 
L 172.484597 270.442007 
L 170.443133 272.745999 
L 168.40167 275.587174 
L 166.360207 278.56665 
L 164.318743 281.031967 
L 162.27728 283.36918 
L 160.235816 286.09651 
L 158.194353 288.337945 
L 156.152889 290.873511 
L 154.111426 293.076648 
L 152.069963 295.447437 
L 150.028499 297.367145 
L 147.987036 299.904744 
L 145.945572 301.816524 
L 143.904109 304.040476 
L 141.862646 306.524739 
L 139.821182 308.506148 
L 137.779719 309.653122 
L 135.738255 311.754027 
L 133.696792 313.147753 
L 131.655328 315.145295 
L 129.613865 317.492146 
L 127.572402 318.934459 
L 125.530938 320.32834 
L 123.489475 321.320255 
L 121.448011 322.724937 
L 119.406548 323.972498 
L 117.365085 325.249574 
L 115.323621 326.996873 
L 113.282158 328.330151 
L 111.240694 329.789694 
L 109.199231 330.138105 
L 107.157768 331.399259 
L 105.116304 331.363119 
L 103.074841 333.109828 
L 101.033377 334.163648 
L 98.991914 335.36142 
L 96.95045 334.295297 
L 94.908987 337.157604 
L 92.867524 337.680374 
L 90.82606 337.174225 
L 88.784597 337.522716 
L 86.743133 339.292307 
L 84.70167 341.736769 
L 82.660207 341.711631 
L 80.618743 342.333164 
L 78.57728 341.140664 
L 76.535816 342.110883 
L 74.494353 342.900143 
L 72.452889 344.570744 
L 70.411426 344.816262 
L 68.369963 345.185309 
L 66.328499 345.922449 
L 64.287036 347.137909 
L 62.245572 347.678526 
L 60.204109 348.508837 
L 58.162646 349.70736 
L 56.121182 349.767742 
L 54.079719 351.283916 
L 52.038255 351.924093 
L 49.996792 352.533774 
L 47.955328 353.688668 
L 45.913865 354.32877 
L 43.872402 355.406144 
L 41.830938 356.580443 
L 39.789475 357.029986 
L 37.748011 357.090968 
L 35.706548 357.438537 
L 33.665085 359.297722 
L 31.623621 359.371089 
L 29.582158 360.783083 
L 27.540694 361.168333 
L 25.499231 360.941023 
L 23.457768 362.554129 
L 21.416304 361.644255 
L 19.374841 361.891421 
L 17.333377 363.639833 
L 15.291914 362.639185 
L 13.25045 364.235716 
L 11.208987 364.982296 
L 9.167524 363.795307 
L 7.12606 359.96144 
L 5.084597 362.551325 
L 3.043133 361.526424 
L 1.00167 355.262983 
L -1.039793 360.645123 
L -3.081257 361.667317 
L -5.12272 355.873337 
L -7.164184 354.381245 
L -9.205647 357.184214 
L -11.247111 350.966083 
L -13.288574 340.485331 
L -15.330037 351.775072 
L -17.371501 356.410987 
L -19.412964 358.535655 
L -21.454428 343.776537 
L -23.495891 344.169007 
L -25.537354 336.819452 
L -27.578818 331.130377 
L -29.620281 341.792925 
L -31.661745 336.683056 
L -33.703208 326.478265 
L -35.744672 318.983654 
L -37.786135 318.807095 
L -39.827598 319.392176 
L -41.869062 317.281068 
L -43.910525 315.738336 
L -45.951989 319.036904 
L -47.993452 317.905677 
L -50.034915 314.555076 
L -52.076379 315.396551 
L -54.117842 313.536769 
L -56.159306 312.312855 
L -58.200769 311.553546 
L -60.242232 312.307389 
L -62.283696 312.373259 
L -64.325159 312.075249 
L -66.366623 312.578541 
L -68.408086 312.392597 
L -70.44955 312.67904 
L -72.491013 313.656497 
L -74.532476 314.192972 
L -76.57394 314.390789 
L -78.615403 314.680464 
L -80.656867 315.364432 
L -82.69833 315.51546 
L -84.739793 316.18069 
L -86.781257 317.152577 
L -88.82272 317.541062 
L -90.864184 317.596412 
L -92.905647 318.051863 
L -94.947111 318.530649 
L -96.988574 318.980216 
L -99.030037 319.407558 
L -101.071501 319.813387 
L -103.112964 320.580963 
L -105.154428 320.756848 
L -107.195891 321.244235 
L -109.237354 321.771235 
L -111.278818 322.183831 
L -113.320281 322.604609 
L -115.361745 322.904302 
L -117.403208 323.261645 
L -119.444672 323.886015 
L -121.486135 324.21901 
L -123.527598 324.675862 
L -125.569062 324.988909 
L -127.610525 325.394145 
L -129.651989 325.818541 
L -131.693452 326.253443 
L -133.734915 326.58479 
L -135.776379 327.027297 
L -137.817842 327.393293 
L -139.859306 327.804785 
L -141.900769 328.171578 
L -143.942232 328.569313 
L -145.983696 328.920296 
L -148.025159 329.316421 
L -150.066623 329.763703 
L -152.108086 330.055256 
L -154.14955 330.476198 
L -156.191013 330.812341 
L -158.232476 331.237676 
L -160.27394 331.495494 
L -162.315403 331.881553 
L -164.356867 332.242193 
L -166.39833 332.578131 
L -168.439793 332.925056 
L -170.481257 333.232472 
L -172.52272 333.624095 
L -174.564184 333.957213 
L -176.605647 334.197334 
L -178.647111 334.517668 
L -180.688574 334.835522 
L -182.730037 335.148424 
L -184.771501 335.440175 
L -186.812964 335.694825 
L -188.854428 335.991721 
L -190.895891 336.274194 
L -192.937354 336.554166 
L -194.978818 336.827211 
L -197.020281 337.108424 
L -199.061745 337.404642 
L -201.103208 337.621915 
L -203.144672 337.900193 
L -205.186135 338.163673 
L -207.227598 338.402053 
L -209.269062 338.651763 
L -211.310525 338.908052 
L -213.351989 339.145604 
L -215.393452 339.405049 
L -217.434915 339.614842 
L -219.476379 339.83158 
L -221.517842 340.073927 
L -223.559306 340.296164 
L -225.600769 340.489887 
L -227.642232 340.709032 
L -229.683696 340.881118 
L -231.725159 341.082013 
L -233.766623 341.312454 
L -235.808086 341.464783 
L -237.84955 341.667748 
L -239.891013 341.840203 
L -241.932476 342.032775 
L -243.97394 342.174088 
L -246.015403 342.389647 
L -248.056867 342.510706 
L -250.09833 342.68322 
L -252.139793 342.824268 
L -254.181257 342.952368 
L -256.22272 343.058577 
L -258.264184 343.17888 
L -260.305647 343.307148 
L -262.347111 343.457589 
L -264.388574 343.577578 
L -266.430037 343.680941 
L -268.471501 343.79823 
L -270.512964 343.923264 
L -272.554428 344.038552 
L -274.595891 344.166584 
L -276.637354 344.2953 
L -278.678818 344.410611 
L -280.720281 344.536818 
L -282.761745 344.667338 
L -284.803208 344.767517 
L -286.844672 344.880937 
L -288.886135 345.018272 
L -290.927598 345.142677 
L -292.969062 345.235633 
L -295.010525 345.371267 
L -297.051989 345.483999 
L -299.093452 345.579175 
L -301.134915 345.683605 
L -303.176379 345.777143 
L -305.217842 345.902902 
L -307.259306 345.983677 
L -309.300769 346.088262 
L -311.342232 346.185953 
L -313.383696 346.273465 
L -315.425159 346.348063 
L -317.466623 346.410536 
L -319.508086 346.478973 
L -321.54955 346.552811 
L -323.591013 346.599751 
L -325.632476 346.671933 
L -327.67394 346.722321 
L -329.715403 346.756892 
L -331.756867 346.819339 
L -333.79833 346.867126 
L -335.839793 346.895692 
L -337.881257 346.936273 
L -339.92272 346.976984 
L -341.964184 347.006619 
L -344.005647 347.039361 
L -346.047111 347.0565 
L -348.088574 347.09371 
L -350.130037 347.111581 
L -352.171501 347.135292 
L -354.212964 347.164819 
L -356.254428 347.178852 
L -358.295891 347.198479 
L -360.337354 347.243725 
L -362.378818 347.259849 
L -364.420281 347.293498 
L -366.461745 347.309542 
L -368.503208 347.350075 
L -370.544672 347.37206 
L -372.586135 347.399258 
L -374.627598 347.417446 
L -376.669062 347.430421 
L -378.710525 347.453822 
L -380.751989 347.48723 
L -382.793452 347.521276 
L -384.834915 347.546291 
L -386.876379 347.558857 
L -388.917842 347.601633 
L -390.959306 347.632165 
L -393.000769 347.677647 
z
" clip-path="url(#pd351a0047f)" style="fill: #008000; fill-opacity: 0.3; stroke: #008000; stroke-opacity: 0.3"/>
   </g>
   <g id="matplotlib.axis_1">
    <g id="xtick_1">
     <g id="line2d_1">
      <defs>
       <path id="m2146d563e1" d="M 0 0 
L 0 3.5 
" style="stroke: #000000; stroke-width: 0.8"/>
      </defs>
      <g>
       <use xlink:href="#m2146d563e1" x="103.074841" y="395.28" style="stroke: #000000; stroke-width: 0.8"/>
      </g>
     </g>
     <g id="text_1">
      <!-- 2022-03-01 -->
      <g transform="translate(17.945813 495.213718) rotate(-45) scale(0.2 -0.2)">
       <defs>
        <path id="DejaVuSans-32" d="M 1228 531 
L 3431 531 
L 3431 0 
L 469 0 
L 469 531 
Q 828 903 1448 1529 
Q 2069 2156 2228 2338 
Q 2531 2678 2651 2914 
Q 2772 3150 2772 3378 
Q 2772 3750 2511 3984 
Q 2250 4219 1831 4219 
Q 1534 4219 1204 4116 
Q 875 4013 500 3803 
L 500 4441 
Q 881 4594 1212 4672 
Q 1544 4750 1819 4750 
Q 2544 4750 2975 4387 
Q 3406 4025 3406 3419 
Q 3406 3131 3298 2873 
Q 3191 2616 2906 2266 
Q 2828 2175 2409 1742 
Q 1991 1309 1228 531 
z
" transform="scale(0.015625)"/>
        <path id="DejaVuSans-30" d="M 2034 4250 
Q 1547 4250 1301 3770 
Q 1056 3291 1056 2328 
Q 1056 1369 1301 889 
Q 1547 409 2034 409 
Q 2525 409 2770 889 
Q 3016 1369 3016 2328 
Q 3016 3291 2770 3770 
Q 2525 4250 2034 4250 
z
M 2034 4750 
Q 2819 4750 3233 4129 
Q 3647 3509 3647 2328 
Q 3647 1150 3233 529 
Q 2819 -91 2034 -91 
Q 1250 -91 836 529 
Q 422 1150 422 2328 
Q 422 3509 836 4129 
Q 1250 4750 2034 4750 
z
" transform="scale(0.015625)"/>
        <path id="DejaVuSans-2d" d="M 313 2009 
L 1997 2009 
L 1997 1497 
L 313 1497 
L 313 2009 
z
" transform="scale(0.015625)"/>
        <path id="DejaVuSans-33" d="M 2597 2516 
Q 3050 2419 3304 2112 
Q 3559 1806 3559 1356 
Q 3559 666 3084 287 
Q 2609 -91 1734 -91 
Q 1441 -91 1130 -33 
Q 819 25 488 141 
L 488 750 
Q 750 597 1062 519 
Q 1375 441 1716 441 
Q 2309 441 2620 675 
Q 2931 909 2931 1356 
Q 2931 1769 2642 2001 
Q 2353 2234 1838 2234 
L 1294 2234 
L 1294 2753 
L 1863 2753 
Q 2328 2753 2575 2939 
Q 2822 3125 2822 3475 
Q 2822 3834 2567 4026 
Q 2313 4219 1838 4219 
Q 1578 4219 1281 4162 
Q 984 4106 628 3988 
L 628 4550 
Q 988 4650 1302 4700 
Q 1616 4750 1894 4750 
Q 2613 4750 3031 4423 
Q 3450 4097 3450 3541 
Q 3450 3153 3228 2886 
Q 3006 2619 2597 2516 
z
" transform="scale(0.015625)"/>
        <path id="DejaVuSans-31" d="M 794 531 
L 1825 531 
L 1825 4091 
L 703 3866 
L 703 4441 
L 1819 4666 
L 2450 4666 
L 2450 531 
L 3481 531 
L 3481 0 
L 794 0 
L 794 531 
z
" transform="scale(0.015625)"/>
       </defs>
       <use xlink:href="#DejaVuSans-32"/>
       <use xlink:href="#DejaVuSans-30" x="63.623047"/>
       <use xlink:href="#DejaVuSans-32" x="127.246094"/>
       <use xlink:href="#DejaVuSans-32" x="190.869141"/>
       <use xlink:href="#DejaVuSans-2d" x="254.492188"/>
       <use xlink:href="#DejaVuSans-30" x="290.576172"/>
       <use xlink:href="#DejaVuSans-33" x="354.199219"/>
       <use xlink:href="#DejaVuSans-2d" x="417.822266"/>
       <use xlink:href="#DejaVuSans-30" x="453.90625"/>
       <use xlink:href="#DejaVuSans-31" x="517.529297"/>
      </g>
     </g>
    </g>
    <g id="xtick_2">
     <g id="line2d_2">
      <g>
       <use xlink:href="#m2146d563e1" x="160.235816" y="395.28" style="stroke: #000000; stroke-width: 0.8"/>
      </g>
     </g>
     <g id="text_2">
      <!-- 2022-03-29 -->
      <g transform="translate(75.106789 495.213718) rotate(-45) scale(0.2 -0.2)">
       <defs>
        <path id="DejaVuSans-39" d="M 703 97 
L 703 672 
Q 941 559 1184 500 
Q 1428 441 1663 441 
Q 2288 441 2617 861 
Q 2947 1281 2994 2138 
Q 2813 1869 2534 1725 
Q 2256 1581 1919 1581 
Q 1219 1581 811 2004 
Q 403 2428 403 3163 
Q 403 3881 828 4315 
Q 1253 4750 1959 4750 
Q 2769 4750 3195 4129 
Q 3622 3509 3622 2328 
Q 3622 1225 3098 567 
Q 2575 -91 1691 -91 
Q 1453 -91 1209 -44 
Q 966 3 703 97 
z
M 1959 2075 
Q 2384 2075 2632 2365 
Q 2881 2656 2881 3163 
Q 2881 3666 2632 3958 
Q 2384 4250 1959 4250 
Q 1534 4250 1286 3958 
Q 1038 3666 1038 3163 
Q 1038 2656 1286 2365 
Q 1534 2075 1959 2075 
z
" transform="scale(0.015625)"/>
       </defs>
       <use xlink:href="#DejaVuSans-32"/>
       <use xlink:href="#DejaVuSans-30" x="63.623047"/>
       <use xlink:href="#DejaVuSans-32" x="127.246094"/>
       <use xlink:href="#DejaVuSans-32" x="190.869141"/>
       <use xlink:href="#DejaVuSans-2d" x="254.492188"/>
       <use xlink:href="#DejaVuSans-30" x="290.576172"/>
       <use xlink:href="#DejaVuSans-33" x="354.199219"/>
       <use xlink:href="#DejaVuSans-2d" x="417.822266"/>
       <use xlink:href="#DejaVuSans-32" x="453.90625"/>
       <use xlink:href="#DejaVuSans-39" x="517.529297"/>
      </g>
     </g>
    </g>
    <g id="xtick_3">
     <g id="line2d_3">
      <g>
       <use xlink:href="#m2146d563e1" x="217.396792" y="395.28" style="stroke: #000000; stroke-width: 0.8"/>
      </g>
     </g>
     <g id="text_3">
      <!-- 2022-04-26 -->
      <g transform="translate(132.267765 495.213718) rotate(-45) scale(0.2 -0.2)">
       <defs>
        <path id="DejaVuSans-34" d="M 2419 4116 
L 825 1625 
L 2419 1625 
L 2419 4116 
z
M 2253 4666 
L 3047 4666 
L 3047 1625 
L 3713 1625 
L 3713 1100 
L 3047 1100 
L 3047 0 
L 2419 0 
L 2419 1100 
L 313 1100 
L 313 1709 
L 2253 4666 
z
" transform="scale(0.015625)"/>
        <path id="DejaVuSans-36" d="M 2113 2584 
Q 1688 2584 1439 2293 
Q 1191 2003 1191 1497 
Q 1191 994 1439 701 
Q 1688 409 2113 409 
Q 2538 409 2786 701 
Q 3034 994 3034 1497 
Q 3034 2003 2786 2293 
Q 2538 2584 2113 2584 
z
M 3366 4563 
L 3366 3988 
Q 3128 4100 2886 4159 
Q 2644 4219 2406 4219 
Q 1781 4219 1451 3797 
Q 1122 3375 1075 2522 
Q 1259 2794 1537 2939 
Q 1816 3084 2150 3084 
Q 2853 3084 3261 2657 
Q 3669 2231 3669 1497 
Q 3669 778 3244 343 
Q 2819 -91 2113 -91 
Q 1303 -91 875 529 
Q 447 1150 447 2328 
Q 447 3434 972 4092 
Q 1497 4750 2381 4750 
Q 2619 4750 2861 4703 
Q 3103 4656 3366 4563 
z
" transform="scale(0.015625)"/>
       </defs>
       <use xlink:href="#DejaVuSans-32"/>
       <use xlink:href="#DejaVuSans-30" x="63.623047"/>
       <use xlink:href="#DejaVuSans-32" x="127.246094"/>
       <use xlink:href="#DejaVuSans-32" x="190.869141"/>
       <use xlink:href="#DejaVuSans-2d" x="254.492188"/>
       <use xlink:href="#DejaVuSans-30" x="290.576172"/>
       <use xlink:href="#DejaVuSans-34" x="354.199219"/>
       <use xlink:href="#DejaVuSans-2d" x="417.822266"/>
       <use xlink:href="#DejaVuSans-32" x="453.90625"/>
       <use xlink:href="#DejaVuSans-36" x="517.529297"/>
      </g>
     </g>
    </g>
    <g id="xtick_4">
     <g id="line2d_4">
      <g>
       <use xlink:href="#m2146d563e1" x="274.557768" y="395.28" style="stroke: #000000; stroke-width: 0.8"/>
      </g>
     </g>
     <g id="text_4">
      <!-- 2022-05-24 -->
      <g transform="translate(189.42874 495.213718) rotate(-45) scale(0.2 -0.2)">
       <defs>
        <path id="DejaVuSans-35" d="M 691 4666 
L 3169 4666 
L 3169 4134 
L 1269 4134 
L 1269 2991 
Q 1406 3038 1543 3061 
Q 1681 3084 1819 3084 
Q 2600 3084 3056 2656 
Q 3513 2228 3513 1497 
Q 3513 744 3044 326 
Q 2575 -91 1722 -91 
Q 1428 -91 1123 -41 
Q 819 9 494 109 
L 494 744 
Q 775 591 1075 516 
Q 1375 441 1709 441 
Q 2250 441 2565 725 
Q 2881 1009 2881 1497 
Q 2881 1984 2565 2268 
Q 2250 2553 1709 2553 
Q 1456 2553 1204 2497 
Q 953 2441 691 2322 
L 691 4666 
z
" transform="scale(0.015625)"/>
       </defs>
       <use xlink:href="#DejaVuSans-32"/>
       <use xlink:href="#DejaVuSans-30" x="63.623047"/>
       <use xlink:href="#DejaVuSans-32" x="127.246094"/>
       <use xlink:href="#DejaVuSans-32" x="190.869141"/>
       <use xlink:href="#DejaVuSans-2d" x="254.492188"/>
       <use xlink:href="#DejaVuSans-30" x="290.576172"/>
       <use xlink:href="#DejaVuSans-35" x="354.199219"/>
       <use xlink:href="#DejaVuSans-2d" x="417.822266"/>
       <use xlink:href="#DejaVuSans-32" x="453.90625"/>
       <use xlink:href="#DejaVuSans-34" x="517.529297"/>
      </g>
     </g>
    </g>
    <g id="xtick_5">
     <g id="line2d_5">
      <g>
       <use xlink:href="#m2146d563e1" x="331.718743" y="395.28" style="stroke: #000000; stroke-width: 0.8"/>
      </g>
     </g>
     <g id="text_5">
      <!-- 2022-06-21 -->
      <g transform="translate(246.589716 495.213718) rotate(-45) scale(0.2 -0.2)">
       <use xlink:href="#DejaVuSans-32"/>
       <use xlink:href="#DejaVuSans-30" x="63.623047"/>
       <use xlink:href="#DejaVuSans-32" x="127.246094"/>
       <use xlink:href="#DejaVuSans-32" x="190.869141"/>
       <use xlink:href="#DejaVuSans-2d" x="254.492188"/>
       <use xlink:href="#DejaVuSans-30" x="290.576172"/>
       <use xlink:href="#DejaVuSans-36" x="354.199219"/>
       <use xlink:href="#DejaVuSans-2d" x="417.822266"/>
       <use xlink:href="#DejaVuSans-32" x="453.90625"/>
       <use xlink:href="#DejaVuSans-31" x="517.529297"/>
      </g>
     </g>
    </g>
    <g id="xtick_6">
     <g id="line2d_6">
      <g>
       <use xlink:href="#m2146d563e1" x="388.879719" y="395.28" style="stroke: #000000; stroke-width: 0.8"/>
      </g>
     </g>
     <g id="text_6">
      <!-- 2022-07-19 -->
      <g transform="translate(303.750691 495.213718) rotate(-45) scale(0.2 -0.2)">
       <defs>
        <path id="DejaVuSans-37" d="M 525 4666 
L 3525 4666 
L 3525 4397 
L 1831 0 
L 1172 0 
L 2766 4134 
L 525 4134 
L 525 4666 
z
" transform="scale(0.015625)"/>
       </defs>
       <use xlink:href="#DejaVuSans-32"/>
       <use xlink:href="#DejaVuSans-30" x="63.623047"/>
       <use xlink:href="#DejaVuSans-32" x="127.246094"/>
       <use xlink:href="#DejaVuSans-32" x="190.869141"/>
       <use xlink:href="#DejaVuSans-2d" x="254.492188"/>
       <use xlink:href="#DejaVuSans-30" x="290.576172"/>
       <use xlink:href="#DejaVuSans-37" x="354.199219"/>
       <use xlink:href="#DejaVuSans-2d" x="417.822266"/>
       <use xlink:href="#DejaVuSans-31" x="453.90625"/>
       <use xlink:href="#DejaVuSans-39" x="517.529297"/>
      </g>
     </g>
    </g>
    <g id="xtick_7">
     <g id="line2d_7">
      <g>
       <use xlink:href="#m2146d563e1" x="446.040694" y="395.28" style="stroke: #000000; stroke-width: 0.8"/>
      </g>
     </g>
     <g id="text_7">
      <!-- 2022-08-16 -->
      <g transform="translate(360.911667 495.213718) rotate(-45) scale(0.2 -0.2)">
       <defs>
        <path id="DejaVuSans-38" d="M 2034 2216 
Q 1584 2216 1326 1975 
Q 1069 1734 1069 1313 
Q 1069 891 1326 650 
Q 1584 409 2034 409 
Q 2484 409 2743 651 
Q 3003 894 3003 1313 
Q 3003 1734 2745 1975 
Q 2488 2216 2034 2216 
z
M 1403 2484 
Q 997 2584 770 2862 
Q 544 3141 544 3541 
Q 544 4100 942 4425 
Q 1341 4750 2034 4750 
Q 2731 4750 3128 4425 
Q 3525 4100 3525 3541 
Q 3525 3141 3298 2862 
Q 3072 2584 2669 2484 
Q 3125 2378 3379 2068 
Q 3634 1759 3634 1313 
Q 3634 634 3220 271 
Q 2806 -91 2034 -91 
Q 1263 -91 848 271 
Q 434 634 434 1313 
Q 434 1759 690 2068 
Q 947 2378 1403 2484 
z
M 1172 3481 
Q 1172 3119 1398 2916 
Q 1625 2713 2034 2713 
Q 2441 2713 2670 2916 
Q 2900 3119 2900 3481 
Q 2900 3844 2670 4047 
Q 2441 4250 2034 4250 
Q 1625 4250 1398 4047 
Q 1172 3844 1172 3481 
z
" transform="scale(0.015625)"/>
       </defs>
       <use xlink:href="#DejaVuSans-32"/>
       <use xlink:href="#DejaVuSans-30" x="63.623047"/>
       <use xlink:href="#DejaVuSans-32" x="127.246094"/>
       <use xlink:href="#DejaVuSans-32" x="190.869141"/>
       <use xlink:href="#DejaVuSans-2d" x="254.492188"/>
       <use xlink:href="#DejaVuSans-30" x="290.576172"/>
       <use xlink:href="#DejaVuSans-38" x="354.199219"/>
       <use xlink:href="#DejaVuSans-2d" x="417.822266"/>
       <use xlink:href="#DejaVuSans-31" x="453.90625"/>
       <use xlink:href="#DejaVuSans-36" x="517.529297"/>
      </g>
     </g>
    </g>
    <g id="xtick_8">
     <g id="line2d_8">
      <g>
       <use xlink:href="#m2146d563e1" x="503.20167" y="395.28" style="stroke: #000000; stroke-width: 0.8"/>
      </g>
     </g>
     <g id="text_8">
      <!-- 2022-09-13 -->
      <g transform="translate(418.072643 495.213718) rotate(-45) scale(0.2 -0.2)">
       <use xlink:href="#DejaVuSans-32"/>
       <use xlink:href="#DejaVuSans-30" x="63.623047"/>
       <use xlink:href="#DejaVuSans-32" x="127.246094"/>
       <use xlink:href="#DejaVuSans-32" x="190.869141"/>
       <use xlink:href="#DejaVuSans-2d" x="254.492188"/>
       <use xlink:href="#DejaVuSans-30" x="290.576172"/>
       <use xlink:href="#DejaVuSans-39" x="354.199219"/>
       <use xlink:href="#DejaVuSans-2d" x="417.822266"/>
       <use xlink:href="#DejaVuSans-31" x="453.90625"/>
       <use xlink:href="#DejaVuSans-33" x="517.529297"/>
      </g>
     </g>
    </g>
    <g id="xtick_9">
     <g id="line2d_9">
      <g>
       <use xlink:href="#m2146d563e1" x="560.362646" y="395.28" style="stroke: #000000; stroke-width: 0.8"/>
      </g>
     </g>
     <g id="text_9">
      <!-- 2022-10-11 -->
      <g transform="translate(475.233618 495.213718) rotate(-45) scale(0.2 -0.2)">
       <use xlink:href="#DejaVuSans-32"/>
       <use xlink:href="#DejaVuSans-30" x="63.623047"/>
       <use xlink:href="#DejaVuSans-32" x="127.246094"/>
       <use xlink:href="#DejaVuSans-32" x="190.869141"/>
       <use xlink:href="#DejaVuSans-2d" x="254.492188"/>
       <use xlink:href="#DejaVuSans-31" x="290.576172"/>
       <use xlink:href="#DejaVuSans-30" x="354.199219"/>
       <use xlink:href="#DejaVuSans-2d" x="417.822266"/>
       <use xlink:href="#DejaVuSans-31" x="453.90625"/>
       <use xlink:href="#DejaVuSans-31" x="517.529297"/>
      </g>
     </g>
    </g>
    <g id="xtick_10">
     <g id="line2d_10">
      <g>
       <use xlink:href="#m2146d563e1" x="617.523621" y="395.28" style="stroke: #000000; stroke-width: 0.8"/>
      </g>
     </g>
     <g id="text_10">
      <!-- 2022-11-08 -->
      <g transform="translate(532.394594 495.213718) rotate(-45) scale(0.2 -0.2)">
       <use xlink:href="#DejaVuSans-32"/>
       <use xlink:href="#DejaVuSans-30" x="63.623047"/>
       <use xlink:href="#DejaVuSans-32" x="127.246094"/>
       <use xlink:href="#DejaVuSans-32" x="190.869141"/>
       <use xlink:href="#DejaVuSans-2d" x="254.492188"/>
       <use xlink:href="#DejaVuSans-31" x="290.576172"/>
       <use xlink:href="#DejaVuSans-31" x="354.199219"/>
       <use xlink:href="#DejaVuSans-2d" x="417.822266"/>
       <use xlink:href="#DejaVuSans-30" x="453.90625"/>
       <use xlink:href="#DejaVuSans-38" x="517.529297"/>
      </g>
     </g>
    </g>
    <g id="xtick_11">
     <g id="line2d_11">
      <g>
       <use xlink:href="#m2146d563e1" x="674.684597" y="395.28" style="stroke: #000000; stroke-width: 0.8"/>
      </g>
     </g>
     <g id="text_11">
      <!-- 2022-12-06 -->
      <g transform="translate(589.555569 495.213718) rotate(-45) scale(0.2 -0.2)">
       <use xlink:href="#DejaVuSans-32"/>
       <use xlink:href="#DejaVuSans-30" x="63.623047"/>
       <use xlink:href="#DejaVuSans-32" x="127.246094"/>
       <use xlink:href="#DejaVuSans-32" x="190.869141"/>
       <use xlink:href="#DejaVuSans-2d" x="254.492188"/>
       <use xlink:href="#DejaVuSans-31" x="290.576172"/>
       <use xlink:href="#DejaVuSans-32" x="354.199219"/>
       <use xlink:href="#DejaVuSans-2d" x="417.822266"/>
       <use xlink:href="#DejaVuSans-30" x="453.90625"/>
       <use xlink:href="#DejaVuSans-36" x="517.529297"/>
      </g>
     </g>
    </g>
    <g id="xtick_12">
     <g id="line2d_12">
      <g>
       <use xlink:href="#m2146d563e1" x="731.845572" y="395.28" style="stroke: #000000; stroke-width: 0.8"/>
      </g>
     </g>
     <g id="text_12">
      <!-- 2023-01-03 -->
      <g transform="translate(646.716545 495.213718) rotate(-45) scale(0.2 -0.2)">
       <use xlink:href="#DejaVuSans-32"/>
       <use xlink:href="#DejaVuSans-30" x="63.623047"/>
       <use xlink:href="#DejaVuSans-32" x="127.246094"/>
       <use xlink:href="#DejaVuSans-33" x="190.869141"/>
       <use xlink:href="#DejaVuSans-2d" x="254.492188"/>
       <use xlink:href="#DejaVuSans-30" x="290.576172"/>
       <use xlink:href="#DejaVuSans-31" x="354.199219"/>
       <use xlink:href="#DejaVuSans-2d" x="417.822266"/>
       <use xlink:href="#DejaVuSans-30" x="453.90625"/>
       <use xlink:href="#DejaVuSans-33" x="517.529297"/>
      </g>
     </g>
    </g>
    <g id="xtick_13">
     <g id="line2d_13">
      <g>
       <use xlink:href="#m2146d563e1" x="789.006548" y="395.28" style="stroke: #000000; stroke-width: 0.8"/>
      </g>
     </g>
     <g id="text_13">
      <!-- 2023-01-31 -->
      <g transform="translate(703.877521 495.213718) rotate(-45) scale(0.2 -0.2)">
       <use xlink:href="#DejaVuSans-32"/>
       <use xlink:href="#DejaVuSans-30" x="63.623047"/>
       <use xlink:href="#DejaVuSans-32" x="127.246094"/>
       <use xlink:href="#DejaVuSans-33" x="190.869141"/>
       <use xlink:href="#DejaVuSans-2d" x="254.492188"/>
       <use xlink:href="#DejaVuSans-30" x="290.576172"/>
       <use xlink:href="#DejaVuSans-31" x="354.199219"/>
       <use xlink:href="#DejaVuSans-2d" x="417.822266"/>
       <use xlink:href="#DejaVuSans-33" x="453.90625"/>
       <use xlink:href="#DejaVuSans-31" x="517.529297"/>
      </g>
     </g>
    </g>
    <g id="xtick_14">
     <g id="line2d_14">
      <g>
       <use xlink:href="#m2146d563e1" x="846.167524" y="395.28" style="stroke: #000000; stroke-width: 0.8"/>
      </g>
     </g>
     <g id="text_14">
      <!-- 2023-02-28 -->
      <g transform="translate(761.038496 495.213718) rotate(-45) scale(0.2 -0.2)">
       <use xlink:href="#DejaVuSans-32"/>
       <use xlink:href="#DejaVuSans-30" x="63.623047"/>
       <use xlink:href="#DejaVuSans-32" x="127.246094"/>
       <use xlink:href="#DejaVuSans-33" x="190.869141"/>
       <use xlink:href="#DejaVuSans-2d" x="254.492188"/>
       <use xlink:href="#DejaVuSans-30" x="290.576172"/>
       <use xlink:href="#DejaVuSans-32" x="354.199219"/>
       <use xlink:href="#DejaVuSans-2d" x="417.822266"/>
       <use xlink:href="#DejaVuSans-32" x="453.90625"/>
       <use xlink:href="#DejaVuSans-38" x="517.529297"/>
      </g>
     </g>
    </g>
    <g id="xtick_15">
     <g id="line2d_15">
      <g>
       <use xlink:href="#m2146d563e1" x="903.328499" y="395.28" style="stroke: #000000; stroke-width: 0.8"/>
      </g>
     </g>
     <g id="text_15">
      <!-- 2023-03-28 -->
      <g transform="translate(818.199472 495.213718) rotate(-45) scale(0.2 -0.2)">
       <use xlink:href="#DejaVuSans-32"/>
       <use xlink:href="#DejaVuSans-30" x="63.623047"/>
       <use xlink:href="#DejaVuSans-32" x="127.246094"/>
       <use xlink:href="#DejaVuSans-33" x="190.869141"/>
       <use xlink:href="#DejaVuSans-2d" x="254.492188"/>
       <use xlink:href="#DejaVuSans-30" x="290.576172"/>
       <use xlink:href="#DejaVuSans-33" x="354.199219"/>
       <use xlink:href="#DejaVuSans-2d" x="417.822266"/>
       <use xlink:href="#DejaVuSans-32" x="453.90625"/>
       <use xlink:href="#DejaVuSans-38" x="517.529297"/>
      </g>
     </g>
    </g>
    <g id="xtick_16">
     <g id="line2d_16">
      <g>
       <use xlink:href="#m2146d563e1" x="940.074841" y="395.28" style="stroke: #000000; stroke-width: 0.8"/>
      </g>
     </g>
     <g id="text_16">
      <!-- 2023-04-15 -->
      <g transform="translate(854.945813 495.213718) rotate(-45) scale(0.2 -0.2)">
       <use xlink:href="#DejaVuSans-32"/>
       <use xlink:href="#DejaVuSans-30" x="63.623047"/>
       <use xlink:href="#DejaVuSans-32" x="127.246094"/>
       <use xlink:href="#DejaVuSans-33" x="190.869141"/>
       <use xlink:href="#DejaVuSans-2d" x="254.492188"/>
       <use xlink:href="#DejaVuSans-30" x="290.576172"/>
       <use xlink:href="#DejaVuSans-34" x="354.199219"/>
       <use xlink:href="#DejaVuSans-2d" x="417.822266"/>
       <use xlink:href="#DejaVuSans-31" x="453.90625"/>
       <use xlink:href="#DejaVuSans-35" x="517.529297"/>
      </g>
     </g>
    </g>
   </g>
   <g id="matplotlib.axis_2">
    <g id="ytick_1">
     <g id="line2d_17">
      <defs>
       <path id="mb0fc4e07b5" d="M 0 0 
L -3.5 0 
" style="stroke: #000000; stroke-width: 0.8"/>
      </defs>
      <g>
       <use xlink:href="#mb0fc4e07b5" x="103.074841" y="347.721795" style="stroke: #000000; stroke-width: 0.8"/>
      </g>
     </g>
     <g id="text_17">
      <!-- 0.00 -->
      <g transform="translate(51.543591 355.320232) scale(0.2 -0.2)">
       <defs>
        <path id="DejaVuSans-2e" d="M 684 794 
L 1344 794 
L 1344 0 
L 684 0 
L 684 794 
z
" transform="scale(0.015625)"/>
       </defs>
       <use xlink:href="#DejaVuSans-30"/>
       <use xlink:href="#DejaVuSans-2e" x="63.623047"/>
       <use xlink:href="#DejaVuSans-30" x="95.410156"/>
       <use xlink:href="#DejaVuSans-30" x="159.033203"/>
      </g>
     </g>
    </g>
    <g id="ytick_2">
     <g id="line2d_18">
      <g>
       <use xlink:href="#mb0fc4e07b5" x="103.074841" y="292.962728" style="stroke: #000000; stroke-width: 0.8"/>
      </g>
     </g>
     <g id="text_18">
      <!-- 0.05 -->
      <g transform="translate(51.543591 300.561166) scale(0.2 -0.2)">
       <use xlink:href="#DejaVuSans-30"/>
       <use xlink:href="#DejaVuSans-2e" x="63.623047"/>
       <use xlink:href="#DejaVuSans-30" x="95.410156"/>
       <use xlink:href="#DejaVuSans-35" x="159.033203"/>
      </g>
     </g>
    </g>
    <g id="ytick_3">
     <g id="line2d_19">
      <g>
       <use xlink:href="#mb0fc4e07b5" x="103.074841" y="238.203662" style="stroke: #000000; stroke-width: 0.8"/>
      </g>
     </g>
     <g id="text_19">
      <!-- 0.10 -->
      <g transform="translate(51.543591 245.8021) scale(0.2 -0.2)">
       <use xlink:href="#DejaVuSans-30"/>
       <use xlink:href="#DejaVuSans-2e" x="63.623047"/>
       <use xlink:href="#DejaVuSans-31" x="95.410156"/>
       <use xlink:href="#DejaVuSans-30" x="159.033203"/>
      </g>
     </g>
    </g>
    <g id="ytick_4">
     <g id="line2d_20">
      <g>
       <use xlink:href="#mb0fc4e07b5" x="103.074841" y="183.444596" style="stroke: #000000; stroke-width: 0.8"/>
      </g>
     </g>
     <g id="text_20">
      <!-- 0.15 -->
      <g transform="translate(51.543591 191.043033) scale(0.2 -0.2)">
       <use xlink:href="#DejaVuSans-30"/>
       <use xlink:href="#DejaVuSans-2e" x="63.623047"/>
       <use xlink:href="#DejaVuSans-31" x="95.410156"/>
       <use xlink:href="#DejaVuSans-35" x="159.033203"/>
      </g>
     </g>
    </g>
    <g id="ytick_5">
     <g id="line2d_21">
      <g>
       <use xlink:href="#mb0fc4e07b5" x="103.074841" y="128.685529" style="stroke: #000000; stroke-width: 0.8"/>
      </g>
     </g>
     <g id="text_21">
      <!-- 0.20 -->
      <g transform="translate(51.543591 136.283967) scale(0.2 -0.2)">
       <use xlink:href="#DejaVuSans-30"/>
       <use xlink:href="#DejaVuSans-2e" x="63.623047"/>
       <use xlink:href="#DejaVuSans-32" x="95.410156"/>
       <use xlink:href="#DejaVuSans-30" x="159.033203"/>
      </g>
     </g>
    </g>
    <g id="ytick_6">
     <g id="line2d_22">
      <g>
       <use xlink:href="#mb0fc4e07b5" x="103.074841" y="73.926463" style="stroke: #000000; stroke-width: 0.8"/>
      </g>
     </g>
     <g id="text_22">
      <!-- 0.25 -->
      <g transform="translate(51.543591 81.5249) scale(0.2 -0.2)">
       <use xlink:href="#DejaVuSans-30"/>
       <use xlink:href="#DejaVuSans-2e" x="63.623047"/>
       <use xlink:href="#DejaVuSans-32" x="95.410156"/>
       <use xlink:href="#DejaVuSans-35" x="159.033203"/>
      </g>
     </g>
    </g>
    <g id="ytick_7">
     <g id="line2d_23">
      <g>
       <use xlink:href="#mb0fc4e07b5" x="103.074841" y="19.167396" style="stroke: #000000; stroke-width: 0.8"/>
      </g>
     </g>
     <g id="text_23">
      <!-- 0.30 -->
      <g transform="translate(51.543591 26.765834) scale(0.2 -0.2)">
       <use xlink:href="#DejaVuSans-30"/>
       <use xlink:href="#DejaVuSans-2e" x="63.623047"/>
       <use xlink:href="#DejaVuSans-33" x="95.410156"/>
       <use xlink:href="#DejaVuSans-30" x="159.033203"/>
      </g>
     </g>
    </g>
   </g>
   <g id="line2d_24">
    <path d="M 0 0 
" clip-path="url(#pd351a0047f)" style="fill: none; stroke: #ffa500; stroke-width: 1.5; stroke-linecap: square"/>
   </g>
   <g id="line2d_25">
    <path d="M 103.074841 347.721795 
L 948.274841 347.721795 
" clip-path="url(#pd351a0047f)" style="fill: none; stroke-dasharray: 7.4,3.2; stroke-dashoffset: 0; stroke: #000000; stroke-width: 2"/>
   </g>
   <g id="patch_3">
    <path d="M 103.074841 395.28 
L 103.074841 7.2 
" style="fill: none; stroke: #000000; stroke-width: 0.8; stroke-linejoin: miter; stroke-linecap: square"/>
   </g>
   <g id="patch_4">
    <path d="M 940.074841 395.28 
L 940.074841 7.2 
" style="fill: none; stroke: #000000; stroke-width: 0.8; stroke-linejoin: miter; stroke-linecap: square"/>
   </g>
   <g id="patch_5">
    <path d="M 103.074841 395.28 
L 940.074841 395.28 
" style="fill: none; stroke: #000000; stroke-width: 0.8; stroke-linejoin: miter; stroke-linecap: square"/>
   </g>
   <g id="patch_6">
    <path d="M 103.074841 7.2 
L 940.074841 7.2 
" style="fill: none; stroke: #000000; stroke-width: 0.8; stroke-linejoin: miter; stroke-linecap: square"/>
   </g>
  </g>
 </g>
 <defs>
  <clipPath id="pd351a0047f">
   <rect x="103.074841" y="7.2" width="837" height="388.08"/>
  </clipPath>
 </defs>
</svg>
