<?xml version="1.0" encoding="utf-8" standalone="no"?>
<!DOCTYPE svg PUBLIC "-//W3C//DTD SVG 1.1//EN"
  "http://www.w3.org/Graphics/SVG/1.1/DTD/svg11.dtd">
<svg xmlns:xlink="http://www.w3.org/1999/xlink" width="947.274841pt" height="505.354841pt" viewBox="0 0 947.274841 505.354841" xmlns="http://www.w3.org/2000/svg" version="1.1">
 <metadata>
  <rdf:RDF xmlns:dc="http://purl.org/dc/elements/1.1/" xmlns:cc="http://creativecommons.org/ns#" xmlns:rdf="http://www.w3.org/1999/02/22-rdf-syntax-ns#">
   <cc:Work>
    <dc:type rdf:resource="http://purl.org/dc/dcmitype/StillImage"/>
    <dc:date>2023-11-12T23:19:51.497768</dc:date>
    <dc:format>image/svg+xml</dc:format>
    <dc:creator>
     <cc:Agent>
      <dc:title>Matplotlib v3.7.2, https://matplotlib.org/</dc:title>
     </cc:Agent>
    </dc:creator>
   </cc:Work>
  </rdf:RDF>
 </metadata>
 <defs>
  <style type="text/css">*{stroke-linejoin: round; stroke-linecap: butt}</style>
 </defs>
 <g id="figure_1">
  <g id="patch_1">
   <path d="M 0 505.354841 
L 947.274841 505.354841 
L 947.274841 -0 
L 0 -0 
z
" style="fill: #ffffff"/>
  </g>
  <g id="axes_1">
   <g id="patch_2">
    <path d="M 103.074841 395.28 
L 940.074841 395.28 
L 940.074841 7.2 
L 103.074841 7.2 
z
" style="fill: #ffffff"/>
   </g>
   <g id="PolyCollection_1">
    <path d="M -393.000769 231.447366 
L -393.000769 231.464872 
L -390.959306 231.374791 
L -388.917842 231.296932 
L -386.876379 231.198109 
L -384.834915 231.132475 
L -382.793452 231.055442 
L -380.751989 230.97038 
L -378.710525 230.886226 
L -376.669062 230.807292 
L -374.627598 230.738101 
L -372.586135 230.657971 
L -370.544672 230.57409 
L -368.503208 230.492683 
L -366.461745 230.392661 
L -364.420281 230.309895 
L -362.378818 230.212403 
L -360.337354 230.129144 
L -358.295891 230.016538 
L -356.254428 229.924127 
L -354.212964 229.835162 
L -352.171501 229.729819 
L -350.130037 229.62718 
L -348.088574 229.526893 
L -346.047111 229.40576 
L -344.005647 229.29993 
L -341.964184 229.175958 
L -339.92272 229.050495 
L -337.881257 228.911682 
L -335.839793 228.769117 
L -333.79833 228.629781 
L -331.756867 228.468503 
L -329.715403 228.286451 
L -327.67394 228.124796 
L -325.632476 227.940755 
L -323.591013 227.730305 
L -321.54955 227.534758 
L -319.508086 227.305152 
L -317.466623 227.072276 
L -315.425159 226.832423 
L -313.383696 226.579031 
L -311.342232 226.29793 
L -309.300769 225.998574 
L -307.259306 225.681375 
L -305.217842 225.376208 
L -303.176379 225.017051 
L -301.134915 224.676238 
L -299.093452 224.313002 
L -297.051989 223.948753 
L -295.010525 223.556296 
L -292.969062 223.131335 
L -290.927598 222.738709 
L -288.886135 222.300836 
L -286.844672 221.847902 
L -284.803208 221.404546 
L -282.761745 220.966232 
L -280.720281 220.490052 
L -278.678818 220.0089 
L -276.637354 219.52874 
L -274.595891 219.02893 
L -272.554428 218.52367 
L -270.512964 218.019687 
L -268.471501 217.498156 
L -266.430037 216.97548 
L -264.388574 216.461142 
L -262.347111 215.925234 
L -260.305647 215.351202 
L -258.264184 214.795413 
L -256.22272 214.241083 
L -254.181257 213.695682 
L -252.139793 213.127313 
L -250.09833 212.572359 
L -248.056867 212.00766 
L -246.015403 211.498947 
L -243.97394 210.897922 
L -241.932476 210.378058 
L -239.891013 209.807397 
L -237.84955 209.264202 
L -235.808086 208.695257 
L -233.766623 208.192189 
L -231.725159 207.613049 
L -229.683696 207.069116 
L -227.642232 206.55731 
L -225.600769 206.009411 
L -223.559306 205.490948 
L -221.517842 204.947953 
L -219.476379 204.394139 
L -217.434915 203.869775 
L -215.393452 203.356979 
L -213.351989 202.80373 
L -211.310525 202.271952 
L -209.269062 201.731952 
L -207.227598 201.205423 
L -205.186135 200.691312 
L -203.144672 200.162611 
L -201.103208 199.628501 
L -199.061745 199.147903 
L -197.020281 198.602677 
L -194.978818 198.080265 
L -192.937354 197.56624 
L -190.895891 197.05141 
L -188.854428 196.537742 
L -186.812964 196.017191 
L -184.771501 195.520592 
L -182.730037 195.00368 
L -180.688574 194.473717 
L -178.647111 193.937678 
L -176.605647 193.395696 
L -174.564184 192.888034 
L -172.52272 192.32934 
L -170.481257 191.733727 
L -168.439793 191.174171 
L -166.39833 190.584086 
L -164.356867 189.985006 
L -162.315403 189.352571 
L -160.27394 188.708849 
L -158.232476 188.110479 
L -156.191013 187.428173 
L -154.14955 186.779493 
L -152.108086 186.081596 
L -150.066623 185.440627 
L -148.025159 184.687625 
L -145.983696 183.949767 
L -143.942232 183.232391 
L -141.900769 182.502443 
L -139.859306 181.749967 
L -137.817842 180.963734 
L -135.776379 180.22685 
L -133.734915 179.383428 
L -131.693452 178.641458 
L -129.651989 177.773344 
L -127.610525 176.932071 
L -125.569062 176.11062 
L -123.527598 175.322478 
L -121.486135 174.403164 
L -119.444672 173.572572 
L -117.403208 172.517171 
L -115.361745 171.608776 
L -113.320281 170.762189 
L -111.278818 169.806607 
L -109.237354 168.826456 
L -107.195891 167.698051 
L -105.154428 166.640547 
L -103.112964 165.75759 
L -101.071501 164.361656 
L -99.030037 163.239863 
L -96.988574 162.093502 
L -94.947111 160.904697 
L -92.905647 159.551818 
L -90.864184 158.27932 
L -88.82272 157.317251 
L -86.781257 156.092614 
L -84.739793 154.086898 
L -82.69833 152.399193 
L -80.656867 151.15005 
L -78.615403 149.423699 
L -76.57394 147.989916 
L -74.532476 146.740271 
L -72.491013 144.848533 
L -70.44955 142.697941 
L -68.408086 141.223361 
L -66.366623 140.275751 
L -64.325159 138.549127 
L -62.283696 138.067945 
L -60.242232 137.130952 
L -58.200769 135.321448 
L -56.159306 135.474144 
L -54.117842 136.226314 
L -52.076379 137.808586 
L -50.034915 136.050497 
L -47.993452 139.560427 
L -45.951989 140.345687 
L -43.910525 135.636167 
L -41.869062 136.976902 
L -39.827598 139.069288 
L -37.786135 137.839888 
L -35.744672 137.589448 
L -33.703208 146.55145 
L -31.661745 159.285896 
L -29.620281 165.619544 
L -27.578818 151.788604 
L -25.537354 158.886322 
L -23.495891 168.182899 
L -21.454428 167.628567 
L -19.412964 186.552382 
L -17.371501 183.946408 
L -15.330037 178.13191 
L -13.288574 163.755415 
L -11.247111 177.233991 
L -9.205647 185.329486 
L -7.164184 181.915908 
L -5.12272 184.011397 
L -3.081257 191.648588 
L -1.039793 190.602536 
L 1.00167 183.976221 
L 3.043133 192.248949 
L 5.084597 193.868641 
L 7.12606 190.8797 
L 9.167524 196.121599 
L 11.208987 198.021372 
L 13.25045 197.479111 
L 15.291914 195.85846 
L 17.333377 197.56676 
L 19.374841 195.777929 
L 21.416304 195.910053 
L 23.457768 197.540271 
L 25.499231 195.974511 
L 27.540694 196.770393 
L 29.582158 196.80829 
L 31.623621 195.546766 
L 33.665085 196.005842 
L 35.706548 194.19588 
L 37.748011 194.320199 
L 39.789475 194.832187 
L 41.830938 194.876234 
L 43.872402 194.013955 
L 45.913865 193.282456 
L 47.955328 193.123367 
L 49.996792 192.324491 
L 52.038255 192.232558 
L 54.079719 192.122187 
L 56.121182 190.909571 
L 58.162646 191.567934 
L 60.204109 190.804053 
L 62.245572 190.522729 
L 64.287036 190.635258 
L 66.328499 189.913607 
L 68.369963 189.814194 
L 70.411426 190.208681 
L 72.452889 190.793269 
L 74.494353 189.596135 
L 76.535816 189.513937 
L 78.57728 189.224866 
L 80.618743 191.705365 
L 82.660207 191.95051 
L 84.70167 193.051872 
L 86.743133 191.058548 
L 88.784597 189.905649 
L 90.82606 190.546329 
L 92.867524 192.297485 
L 94.908987 192.800114 
L 96.95045 190.375969 
L 98.991914 192.888891 
L 101.033377 192.598819 
L 103.074841 192.510557 
L 105.116304 191.565245 
L 107.157768 192.866828 
L 109.199231 192.581085 
L 111.240694 193.472904 
L 113.282158 193.013376 
L 115.323621 192.729048 
L 117.365085 191.943353 
L 119.406548 191.757459 
L 121.448011 191.628011 
L 123.489475 191.323107 
L 125.530938 191.566834 
L 127.572402 191.344444 
L 129.613865 191.08931 
L 131.655328 189.729337 
L 133.696792 188.796893 
L 135.738255 188.61761 
L 137.779719 187.570233 
L 139.821182 187.725936 
L 141.862646 186.897223 
L 143.904109 185.460076 
L 145.945572 184.339232 
L 147.987036 183.614243 
L 150.028499 182.115053 
L 152.069963 181.393095 
L 154.111426 180.128048 
L 156.152889 179.072014 
L 158.194353 177.625022 
L 160.235816 176.517854 
L 162.27728 174.846126 
L 164.318743 173.638742 
L 166.360207 172.29369 
L 168.40167 170.374934 
L 170.443133 168.731951 
L 172.484597 167.647844 
L 174.52606 166.314686 
L 176.567524 164.518671 
L 178.608987 163.218211 
L 180.65045 161.515775 
L 182.691914 158.827397 
L 184.733377 158.088726 
L 186.774841 156.052167 
L 188.816304 154.595412 
L 190.857768 152.87868 
L 192.899231 150.940898 
L 194.940694 148.948859 
L 196.982158 147.194323 
L 199.023621 144.613963 
L 201.065085 143.340023 
L 203.106548 141.014879 
L 205.148011 139.794692 
L 207.189475 137.414463 
L 209.230938 135.134869 
L 211.272402 133.131682 
L 213.313865 131.685543 
L 215.355328 128.856807 
L 217.396792 127.17481 
L 219.438255 124.878886 
L 221.479719 123.185998 
L 223.521182 120.766297 
L 225.562646 118.737901 
L 227.604109 119.141392 
L 229.645572 114.425034 
L 231.687036 114.313675 
L 233.728499 111.733113 
L 235.769963 110.173731 
L 237.811426 108.199463 
L 239.852889 106.03897 
L 241.894353 104.141353 
L 243.935816 102.320716 
L 245.97728 100.633015 
L 248.018743 98.919784 
L 250.060207 101.267305 
L 252.10167 95.020503 
L 254.143133 93.864786 
L 256.184597 99.931434 
L 258.22606 92.296965 
L 260.267524 94.128543 
L 262.308987 93.746575 
L 264.35045 90.004626 
L 266.391914 91.270596 
L 268.433377 95.652131 
L 270.474841 93.038221 
L 272.516304 92.187219 
L 274.557768 95.172594 
L 276.599231 94.728177 
L 278.640694 96.78489 
L 280.682158 99.626211 
L 282.723621 103.511282 
L 284.765085 113.18142 
L 286.806548 111.215939 
L 288.848011 116.384957 
L 290.889475 120.521705 
L 292.930938 123.030627 
L 294.972402 128.271184 
L 297.013865 131.460678 
L 299.055328 125.59019 
L 301.096792 131.358371 
L 303.138255 139.468686 
L 305.179719 143.320242 
L 307.221182 144.266542 
L 309.262646 154.372592 
L 311.304109 154.956922 
L 313.345572 156.908841 
L 315.387036 156.657782 
L 317.428499 165.186778 
L 319.469963 161.877399 
L 321.511426 160.341425 
L 323.552889 167.715146 
L 325.594353 174.742424 
L 327.635816 173.131737 
L 329.67728 177.218311 
L 331.718743 178.384968 
L 333.760207 178.408265 
L 335.80167 178.167749 
L 337.843133 180.337669 
L 339.884597 181.465878 
L 341.92606 188.727804 
L 343.967524 184.67789 
L 346.008987 190.987921 
L 348.05045 189.320701 
L 350.091914 188.24977 
L 352.133377 190.711038 
L 354.174841 192.895776 
L 356.216304 189.760806 
L 358.257768 191.0848 
L 360.299231 191.049674 
L 362.340694 194.472854 
L 364.382158 192.615086 
L 366.423621 191.703771 
L 368.465085 192.641774 
L 370.506548 194.27464 
L 372.548011 193.382593 
L 374.589475 191.647077 
L 376.630938 192.572835 
L 378.672402 189.989633 
L 380.713865 190.261986 
L 382.755328 194.507889 
L 384.796792 194.288958 
L 386.838255 191.944668 
L 388.879719 191.406652 
L 390.921182 191.745223 
L 392.962646 189.245508 
L 395.004109 189.950178 
L 397.045572 190.035431 
L 399.087036 189.59525 
L 401.128499 189.016351 
L 403.169963 187.548918 
L 405.211426 188.616715 
L 407.252889 187.686035 
L 409.294353 187.594873 
L 411.335816 187.175549 
L 413.37728 187.388381 
L 415.418743 186.319864 
L 417.460207 184.268052 
L 419.50167 184.317876 
L 421.543133 182.671391 
L 423.584597 180.225565 
L 425.62606 182.253617 
L 427.667524 178.857584 
L 429.708987 180.44831 
L 431.75045 179.889888 
L 433.791914 180.238612 
L 435.833377 178.070856 
L 437.874841 177.992569 
L 439.916304 177.927197 
L 441.957768 175.012319 
L 443.999231 176.114306 
L 446.040694 176.004586 
L 448.082158 176.093017 
L 450.123621 174.918809 
L 452.165085 175.615315 
L 454.206548 174.489899 
L 456.248011 173.659538 
L 458.289475 171.554725 
L 460.330938 170.973355 
L 462.372402 170.615733 
L 464.413865 169.823656 
L 466.455328 170.082134 
L 468.496792 169.598665 
L 470.538255 168.36975 
L 472.579719 168.577995 
L 474.621182 167.551768 
L 476.662646 168.167558 
L 478.704109 167.782939 
L 480.745572 168.208393 
L 482.787036 166.728514 
L 484.828499 163.704523 
L 486.869963 166.685285 
L 488.911426 166.643606 
L 490.952889 166.015186 
L 492.994353 165.425718 
L 495.035816 163.917056 
L 497.07728 163.825908 
L 499.118743 162.811446 
L 501.160207 163.055597 
L 503.20167 162.70921 
L 505.243133 161.070738 
L 507.284597 159.362701 
L 509.32606 161.982576 
L 511.367524 161.41442 
L 513.408987 159.339771 
L 515.45045 160.365901 
L 517.491914 157.403913 
L 519.533377 156.874348 
L 521.574841 157.535846 
L 523.616304 155.254798 
L 525.657768 159.031184 
L 527.699231 155.341352 
L 529.740694 152.947462 
L 531.782158 154.830452 
L 533.823621 155.605754 
L 535.865085 154.795025 
L 537.906548 155.931417 
L 539.948011 153.91223 
L 541.989475 156.948179 
L 544.030938 154.604407 
L 546.072402 155.022411 
L 548.113865 153.349092 
L 550.155328 151.204553 
L 552.196792 153.757141 
L 554.238255 158.344619 
L 556.279719 152.630635 
L 558.321182 153.180835 
L 560.362646 150.782975 
L 562.404109 152.390581 
L 564.445572 151.111945 
L 566.487036 149.96386 
L 568.528499 149.172216 
L 570.569963 151.802847 
L 572.611426 150.718685 
L 574.652889 153.180772 
L 576.694353 153.779916 
L 578.735816 147.376088 
L 580.77728 150.225088 
L 582.818743 150.562719 
L 584.860207 151.125826 
L 586.90167 151.611144 
L 588.943133 155.885793 
L 590.984597 157.62782 
L 593.02606 157.46924 
L 595.067524 162.113305 
L 597.108987 169.776776 
L 599.15045 160.669146 
L 601.191914 160.536228 
L 603.233377 160.69476 
L 605.274841 163.702429 
L 607.316304 164.365131 
L 609.357768 164.308898 
L 611.399231 170.885127 
L 613.440694 173.303601 
L 615.482158 165.794886 
L 617.523621 172.595458 
L 619.565085 169.26092 
L 621.606548 167.219266 
L 623.648011 175.517433 
L 625.689475 173.950112 
L 627.730938 179.365299 
L 629.772402 177.882412 
L 631.813865 174.42316 
L 633.855328 177.913588 
L 635.896792 178.060391 
L 637.938255 181.513053 
L 639.979719 179.63453 
L 642.021182 185.301356 
L 644.062646 181.609295 
L 646.104109 184.691045 
L 648.145572 184.351486 
L 650.187036 187.724068 
L 652.228499 182.866084 
L 654.269963 188.509739 
L 656.311426 188.419686 
L 658.352889 192.357328 
L 660.394353 194.563758 
L 662.435816 194.79596 
L 664.47728 194.040127 
L 666.518743 196.65162 
L 668.560207 198.643827 
L 670.60167 197.270992 
L 672.643133 196.868834 
L 674.684597 199.201401 
L 676.72606 201.310218 
L 678.767524 198.199411 
L 680.808987 196.494239 
L 682.85045 204.245431 
L 684.891914 207.868646 
L 686.933377 200.361552 
L 688.974841 202.811798 
L 691.016304 204.107103 
L 693.057768 204.847189 
L 695.099231 208.892367 
L 697.140694 208.536144 
L 699.182158 207.088663 
L 701.223621 208.890321 
L 703.265085 209.492595 
L 705.306548 205.480466 
L 707.348011 207.674287 
L 709.389475 206.488517 
L 711.430938 212.351411 
L 713.472402 221.743346 
L 715.513865 219.483234 
L 717.555328 212.987952 
L 719.596792 212.420171 
L 721.638255 213.234638 
L 723.679719 213.592995 
L 725.721182 219.869628 
L 727.762646 212.260823 
L 729.804109 221.367689 
L 731.845572 231.932681 
L 733.887036 223.134519 
L 735.928499 238.870903 
L 737.969963 227.527462 
L 740.011426 238.887495 
L 742.052889 233.034139 
L 744.094353 236.393357 
L 746.135816 244.260279 
L 748.17728 244.320486 
L 750.218743 247.018514 
L 752.260207 247.079587 
L 754.30167 248.045496 
L 756.343133 227.514565 
L 758.384597 255.947293 
L 760.42606 267.050818 
L 762.467524 257.061018 
L 764.508987 263.38373 
L 766.55045 270.40595 
L 768.591914 261.659815 
L 770.633377 272.358632 
L 772.674841 280.945737 
L 774.716304 276.317789 
L 776.757768 281.214877 
L 778.799231 283.790086 
L 780.840694 285.415587 
L 782.882158 288.164492 
L 784.923621 276.723497 
L 786.965085 299.706175 
L 789.006548 300.28308 
L 791.048011 300.52878 
L 793.089475 286.065314 
L 795.130938 305.798325 
L 797.172402 316.524713 
L 799.213865 307.340242 
L 801.255328 307.641418 
L 803.296792 325.330436 
L 805.338255 293.068327 
L 807.379719 322.688792 
L 809.421182 301.563715 
L 811.462646 332.709638 
L 813.504109 320.590713 
L 815.545572 332.60965 
L 817.587036 336.19981 
L 819.628499 339.688121 
L 821.669963 341.397903 
L 823.711426 335.089403 
L 825.752889 336.580936 
L 827.794353 343.551061 
L 829.835816 351.504222 
L 831.87728 352.041949 
L 833.918743 351.305527 
L 835.960207 359.352493 
L 838.00167 359.433055 
L 840.043133 353.756996 
L 842.084597 353.00569 
L 844.12606 367.6315 
L 846.167524 368.846583 
L 848.208987 371.824888 
L 850.25045 364.415973 
L 852.291914 347.206439 
L 854.333377 365.53622 
L 856.374841 360.822789 
L 858.416304 365.487236 
L 860.457768 371.806592 
L 862.499231 363.269097 
L 864.540694 374.471216 
L 866.582158 365.307516 
L 868.623621 365.019464 
L 870.665085 366.00054 
L 872.706548 372.691717 
L 874.748011 371.980583 
L 876.789475 370.582027 
L 878.830938 363.502682 
L 880.872402 367.412373 
L 882.913865 370.362512 
L 884.955328 367.271273 
L 886.996792 372.717716 
L 889.038255 368.379106 
L 891.079719 371.932182 
L 893.121182 377.64 
L 895.162646 376.735491 
L 897.204109 371.016038 
L 899.245572 371.184047 
L 901.287036 370.151698 
L 903.328499 372.755169 
L 905.369963 372.68957 
L 907.411426 363.344803 
L 909.452889 370.70571 
L 911.494353 326.995163 
L 913.535816 370.736584 
L 915.57728 373.687311 
L 917.618743 367.256224 
L 919.660207 360.58979 
L 921.70167 373.354735 
L 923.743133 367.593145 
L 925.784597 357.508548 
L 927.82606 363.808908 
L 929.867524 363.890246 
L 931.908987 361.083365 
L 933.95045 367.054108 
L 935.991914 362.475394 
L 938.033377 364.893572 
L 940.074841 366.627239 
L 940.074841 249.252967 
L 940.074841 249.252967 
L 938.033377 253.447163 
L 935.991914 251.788389 
L 933.95045 254.100857 
L 931.908987 251.683784 
L 929.867524 253.402908 
L 927.82606 252.648614 
L 925.784597 253.907219 
L 923.743133 257.694227 
L 921.70167 258.620037 
L 919.660207 256.773702 
L 917.618743 257.77769 
L 915.57728 261.915572 
L 913.535816 260.017703 
L 911.494353 253.241083 
L 909.452889 261.824691 
L 907.411426 260.959565 
L 905.369963 263.426647 
L 903.328499 264.068715 
L 901.287036 263.843168 
L 899.245572 265.517438 
L 897.204109 265.938062 
L 895.162646 268.123832 
L 893.121182 269.026467 
L 891.079719 268.383315 
L 889.038255 267.834093 
L 886.996792 269.03608 
L 884.955328 267.473524 
L 882.913865 268.78274 
L 880.872402 268.792167 
L 878.830938 268.044817 
L 876.789475 271.085289 
L 874.748011 271.959269 
L 872.706548 273.375758 
L 870.665085 270.529957 
L 868.623621 271.180929 
L 866.582158 272.005129 
L 864.540694 275.194941 
L 862.499231 271.791209 
L 860.457768 275.139144 
L 858.416304 273.179574 
L 856.374841 272.056814 
L 854.333377 273.954055 
L 852.291914 268.825413 
L 850.25045 273.965756 
L 848.208987 277.52593 
L 846.167524 276.789388 
L 844.12606 276.426189 
L 842.084597 272.573675 
L 840.043133 272.376385 
L 838.00167 274.688093 
L 835.960207 274.635299 
L 833.918743 272.054958 
L 831.87728 272.318812 
L 829.835816 272.916181 
L 827.794353 268.565094 
L 825.752889 267.17305 
L 823.711426 267.002645 
L 821.669963 269.566393 
L 819.628499 268.950134 
L 817.587036 267.097636 
L 815.545572 265.765675 
L 813.504109 261.515554 
L 811.462646 265.95414 
L 809.421182 256.237257 
L 807.379719 263.027098 
L 805.338255 251.951179 
L 803.296792 263.716345 
L 801.255328 256.92315 
L 799.213865 256.298199 
L 797.172402 261.132387 
L 795.130938 256.277129 
L 793.089475 248.894798 
L 791.048011 254.809566 
L 789.006548 254.364841 
L 786.965085 254.072599 
L 784.923621 244.406069 
L 782.882158 252.121006 
L 780.840694 248.290637 
L 778.799231 247.042362 
L 776.757768 246.250307 
L 774.716304 244.864399 
L 772.674841 246.740464 
L 770.633377 243.304327 
L 768.591914 238.222256 
L 766.55045 240.748274 
L 764.508987 239.760055 
L 762.467524 235.281648 
L 760.42606 240.057213 
L 758.384597 235.028059 
L 756.343133 220.507962 
L 754.30167 232.088895 
L 752.260207 231.702648 
L 750.218743 231.378061 
L 748.17728 230.120763 
L 746.135816 230.175486 
L 744.094353 225.497036 
L 742.052889 222.774527 
L 740.011426 226.463503 
L 737.969963 220.831696 
L 735.928499 226.953142 
L 733.887036 216.847205 
L 731.845572 223.515469 
L 729.804109 215.836368 
L 727.762646 206.02951 
L 725.721182 215.06995 
L 723.679719 205.791595 
L 721.638255 206.382151 
L 719.596792 205.007068 
L 717.555328 205.9721 
L 715.513865 214.518324 
L 713.472402 216.059054 
L 711.430938 205.564876 
L 709.389475 193.687549 
L 707.348011 196.404609 
L 705.306548 193.474615 
L 703.265085 201.210624 
L 701.223621 199.854674 
L 699.182158 196.567966 
L 697.140694 199.688606 
L 695.099231 199.724429 
L 693.057768 192.754208 
L 691.016304 192.700654 
L 688.974841 189.805587 
L 686.933377 186.058953 
L 684.891914 200.357758 
L 682.85045 192.076898 
L 680.808987 179.646307 
L 678.767524 184.356021 
L 676.72606 189.163341 
L 674.684597 185.503875 
L 672.643133 182.364269 
L 670.60167 183.760875 
L 668.560207 188.283453 
L 666.518743 182.643328 
L 664.47728 179.593835 
L 662.435816 181.546007 
L 660.394353 178.11259 
L 658.352889 177.971923 
L 656.311426 170.36185 
L 654.269963 172.244541 
L 652.228499 162.897965 
L 650.187036 170.292812 
L 648.145572 166.161799 
L 646.104109 167.694187 
L 644.062646 164.207907 
L 642.021182 169.067988 
L 639.979719 160.543991 
L 637.938255 164.619292 
L 635.896792 159.326516 
L 633.855328 159.758856 
L 631.813865 155.315675 
L 629.772402 157.834913 
L 627.730938 163.020092 
L 625.689475 156.632493 
L 623.648011 157.961021 
L 621.606548 146.774695 
L 619.565085 151.396568 
L 617.523621 154.223928 
L 615.482158 145.686537 
L 613.440694 155.609791 
L 611.399231 155.26739 
L 609.357768 144.825505 
L 607.316304 145.184215 
L 605.274841 144.264753 
L 603.233377 140.398556 
L 601.191914 142.790514 
L 599.15045 142.142738 
L 597.108987 154.716026 
L 595.067524 145.579563 
L 593.02606 139.176064 
L 590.984597 139.188381 
L 588.943133 137.294174 
L 586.90167 132.864809 
L 584.860207 133.837946 
L 582.818743 131.124112 
L 580.77728 133.440618 
L 578.735816 129.585794 
L 576.694353 136.791286 
L 574.652889 137.249801 
L 572.611426 135.024525 
L 570.569963 136.288753 
L 568.528499 132.795504 
L 566.487036 134.492338 
L 564.445572 135.459931 
L 562.404109 137.803563 
L 560.362646 134.87212 
L 558.321182 138.165687 
L 556.279719 137.026206 
L 554.238255 143.614818 
L 552.196792 138.138164 
L 550.155328 134.937534 
L 548.113865 137.502939 
L 546.072402 138.70805 
L 544.030938 138.255425 
L 541.989475 141.813567 
L 539.948011 137.623363 
L 537.906548 140.108321 
L 535.865085 138.333141 
L 533.823621 138.880123 
L 531.782158 137.303042 
L 529.740694 135.109648 
L 527.699231 138.31092 
L 525.657768 142.475091 
L 523.616304 137.621114 
L 521.574841 140.167677 
L 519.533377 138.810796 
L 517.491914 139.920163 
L 515.45045 143.486333 
L 513.408987 141.951477 
L 511.367524 144.684723 
L 509.32606 145.243968 
L 507.284597 141.782167 
L 505.243133 143.623699 
L 503.20167 145.605172 
L 501.160207 146.139622 
L 499.118743 145.951049 
L 497.07728 147.218397 
L 495.035816 146.884726 
L 492.994353 148.908894 
L 490.952889 149.425473 
L 488.911426 149.779773 
L 486.869963 150.080801 
L 484.828499 145.877275 
L 482.787036 150.097595 
L 480.745572 151.746245 
L 478.704109 151.025756 
L 476.662646 151.068695 
L 474.621182 150.887101 
L 472.579719 151.944927 
L 470.538255 151.218721 
L 468.496792 152.756393 
L 466.455328 153.073449 
L 464.413865 152.281935 
L 462.372402 152.60642 
L 460.330938 153.158283 
L 458.289475 153.732636 
L 456.248011 156.573452 
L 454.206548 156.92038 
L 452.165085 158.05209 
L 450.123621 156.794705 
L 448.082158 157.836328 
L 446.040694 157.481966 
L 443.999231 157.428134 
L 441.957768 155.226948 
L 439.916304 159.250311 
L 437.874841 159.057727 
L 435.833377 158.742591 
L 433.791914 160.860623 
L 431.75045 160.002508 
L 429.708987 160.460164 
L 427.667524 158.344526 
L 425.62606 161.414382 
L 423.584597 159.530654 
L 421.543133 162.428112 
L 419.50167 164.246215 
L 417.460207 164.192577 
L 415.418743 166.658812 
L 413.37728 168.403467 
L 411.335816 167.478845 
L 409.294353 168.220223 
L 407.252889 167.834379 
L 405.211426 169.075274 
L 403.169963 167.649138 
L 401.128499 169.722135 
L 399.087036 171.075109 
L 397.045572 171.560141 
L 395.004109 171.542205 
L 392.962646 171.385372 
L 390.921182 173.773224 
L 388.879719 173.787823 
L 386.838255 175.022529 
L 384.796792 177.196974 
L 382.755328 177.451109 
L 380.713865 174.259551 
L 378.672402 174.434334 
L 376.630938 176.987144 
L 374.589475 176.791431 
L 372.548011 178.413396 
L 370.506548 179.458257 
L 368.465085 178.123358 
L 366.423621 178.604936 
L 364.382158 179.35107 
L 362.340694 181.07152 
L 360.299231 178.25498 
L 358.257768 178.895508 
L 356.216304 178.517932 
L 354.174841 181.218076 
L 352.133377 180.483447 
L 350.091914 178.436111 
L 348.05045 179.740284 
L 346.008987 181.104825 
L 343.967524 176.189368 
L 341.92606 180.147671 
L 339.884597 173.959226 
L 337.843133 173.24992 
L 335.80167 171.640724 
L 333.760207 172.551102 
L 331.718743 172.630196 
L 329.67728 171.487365 
L 327.635816 168.346657 
L 325.594353 169.944796 
L 323.552889 163.142397 
L 321.511426 154.200556 
L 319.469963 156.440874 
L 317.428499 160.279395 
L 315.387036 149.293236 
L 313.345572 150.284468 
L 311.304109 147.201528 
L 309.262646 146.392558 
L 307.221182 132.834019 
L 305.179719 130.988419 
L 303.138255 126.163203 
L 301.096792 115.74462 
L 299.055328 107.448284 
L 297.013865 115.695879 
L 294.972402 111.185175 
L 292.930938 104.106415 
L 290.889475 101.100615 
L 288.848011 95.895551 
L 286.806548 89.002378 
L 284.765085 91.416032 
L 282.723621 79.820904 
L 280.682158 73.6599 
L 278.640694 70.818567 
L 276.599231 68.440868 
L 274.557768 69.489955 
L 272.516304 66.562382 
L 270.474841 68.758696 
L 268.433377 71.705399 
L 266.391914 66.196417 
L 264.35045 65.500967 
L 262.308987 70.407244 
L 260.267524 71.351261 
L 258.22606 69.163703 
L 256.184597 79.41104 
L 254.143133 71.810568 
L 252.10167 74.052573 
L 250.060207 81.763184 
L 248.018743 79.242253 
L 245.97728 81.873528 
L 243.935816 84.185877 
L 241.894353 86.948425 
L 239.852889 89.546491 
L 237.811426 92.520917 
L 235.769963 95.235657 
L 233.728499 97.374548 
L 231.687036 100.996686 
L 229.645572 101.550317 
L 227.604109 107.556806 
L 225.562646 107.380299 
L 223.521182 110.151291 
L 221.479719 113.454085 
L 219.438255 115.79265 
L 217.396792 118.922432 
L 215.355328 121.015656 
L 213.313865 123.853467 
L 211.272402 125.061672 
L 209.230938 126.727456 
L 207.189475 128.833943 
L 205.148011 131.010268 
L 203.106548 132.043942 
L 201.065085 134.140537 
L 199.023621 135.340316 
L 196.982158 137.538889 
L 194.940694 139.088703 
L 192.899231 140.638004 
L 190.857768 142.438436 
L 188.816304 143.965611 
L 186.774841 145.168174 
L 184.733377 146.93546 
L 182.691914 147.501747 
L 180.65045 149.859658 
L 178.608987 151.244597 
L 176.567524 152.393154 
L 174.52606 153.950429 
L 172.484597 154.656743 
L 170.443133 155.973821 
L 168.40167 157.343642 
L 166.360207 158.925716 
L 164.318743 159.993859 
L 162.27728 161.046959 
L 160.235816 162.257922 
L 158.194353 163.411275 
L 156.152889 164.703172 
L 154.111426 165.620729 
L 152.069963 166.680428 
L 150.028499 167.443693 
L 147.987036 168.746053 
L 145.945572 169.525576 
L 143.904109 170.497268 
L 141.862646 171.853693 
L 139.821182 172.624908 
L 137.779719 172.468048 
L 135.738255 173.524372 
L 133.696792 173.810294 
L 131.655328 174.825442 
L 129.613865 176.096753 
L 127.572402 176.509196 
L 125.530938 176.879412 
L 123.489475 176.57479 
L 121.448011 177.020476 
L 119.406548 177.111251 
L 117.365085 177.256022 
L 115.323621 178.107802 
L 113.282158 178.432556 
L 111.240694 179.095535 
L 109.199231 178.087184 
L 107.157768 178.299962 
L 105.116304 176.976273 
L 103.074841 178.115583 
L 101.033377 177.996411 
L 98.991914 178.754189 
L 96.95045 176.112573 
L 94.908987 178.625681 
L 92.867524 178.102038 
L 90.82606 176.209471 
L 88.784597 175.53958 
L 86.743133 176.738372 
L 84.70167 178.995741 
L 82.660207 177.769663 
L 80.618743 177.488306 
L 78.57728 174.745195 
L 76.535816 174.524012 
L 74.494353 175.0672 
L 72.452889 176.436984 
L 70.411426 175.760483 
L 68.369963 175.282787 
L 66.328499 175.382717 
L 64.287036 176.194499 
L 62.245572 175.843681 
L 60.204109 176.323995 
L 58.162646 177.211861 
L 56.121182 176.401235 
L 54.079719 177.75742 
L 52.038255 177.889449 
L 49.996792 177.980249 
L 47.955328 178.819151 
L 45.913865 178.974235 
L 43.872402 179.92418 
L 41.830938 180.971325 
L 39.789475 180.92786 
L 37.748011 180.423365 
L 35.706548 180.051453 
L 33.665085 182.359675 
L 31.623621 181.907698 
L 29.582158 183.448513 
L 27.540694 183.437239 
L 25.499231 182.793812 
L 23.457768 184.32556 
L 21.416304 182.839981 
L 19.374841 182.886318 
L 17.333377 184.846533 
L 15.291914 183.389813 
L 13.25045 185.241357 
L 11.208987 185.81775 
L 9.167524 184.210195 
L 7.12606 179.147929 
L 5.084597 182.346887 
L 3.043133 180.78117 
L 1.00167 173.262014 
L -1.039793 179.624796 
L -3.081257 180.912853 
L -5.12272 173.955095 
L -7.164184 172.029124 
L -9.205647 175.717533 
L -11.247111 168.172142 
L -13.288574 154.610518 
L -15.330037 169.464075 
L -17.371501 175.161688 
L -19.412964 177.971519 
L -21.454428 159.560722 
L -23.495891 160.312047 
L -25.537354 150.994211 
L -27.578818 143.745356 
L -29.620281 158.317595 
L -31.661745 152.036529 
L -33.703208 139.031763 
L -35.744672 129.912806 
L -37.786135 130.45002 
L -39.827598 132.007311 
L -41.869062 130.070472 
L -43.910525 128.906071 
L -45.951989 134.073542 
L -47.993452 133.434213 
L -50.034915 130.030717 
L -52.076379 132.084117 
L -54.117842 130.678017 
L -56.159306 130.11347 
L -58.200769 130.22187 
L -60.242232 132.243142 
L -62.283696 133.436429 
L -64.325159 134.123099 
L -66.366623 135.879659 
L -68.408086 136.70749 
L -70.44955 138.121161 
L -72.491013 140.360112 
L -74.532476 142.117184 
L -76.57394 143.311864 
L -78.615403 144.646625 
L -80.656867 146.41029 
L -82.69833 147.523295 
L -84.739793 149.215764 
L -86.781257 151.268693 
L -88.82272 152.501172 
L -90.864184 153.328617 
L -92.905647 154.587646 
L -94.947111 155.882676 
L -96.988574 157.071743 
L -99.030037 158.209582 
L -101.071501 159.306183 
L -103.112964 160.810053 
L -105.154428 161.593773 
L -107.195891 162.695114 
L -109.237354 163.845068 
L -111.278818 164.816956 
L -113.320281 165.778941 
L -115.361745 166.583734 
L -117.403208 167.459929 
L -119.444672 168.622795 
L -121.486135 169.437405 
L -123.527598 170.389018 
L -125.569062 171.161489 
L -127.610525 172.023626 
L -129.651989 172.892968 
L -131.693452 173.771355 
L -133.734915 174.509829 
L -135.776379 175.38337 
L -137.817842 176.150638 
L -139.859306 176.973403 
L -141.900769 177.739121 
L -143.942232 178.529378 
L -145.983696 179.266131 
L -148.025159 180.049035 
L -150.066623 180.872986 
L -152.108086 181.499352 
L -154.14955 182.285094 
L -156.191013 182.961969 
L -158.232476 183.747285 
L -160.27394 184.320408 
L -162.315403 185.050478 
L -164.356867 185.746169 
L -166.39833 186.408411 
L -168.439793 187.082683 
L -170.481257 187.706072 
L -172.52272 188.433474 
L -174.564184 189.087949 
L -176.605647 189.62654 
L -178.647111 190.266511 
L -180.688574 190.905491 
L -182.730037 191.541268 
L -184.771501 192.154362 
L -186.812964 192.725303 
L -188.854428 193.353896 
L -190.895891 193.9698 
L -192.937354 194.588815 
L -194.978818 195.205524 
L -197.020281 195.838735 
L -199.061745 196.496833 
L -201.103208 197.062777 
L -203.144672 197.711277 
L -205.186135 198.347319 
L -207.227598 198.95739 
L -209.269062 199.586846 
L -211.310525 200.229167 
L -213.351989 200.851822 
L -215.393452 201.505507 
L -217.434915 202.100606 
L -219.476379 202.708432 
L -221.517842 203.351209 
L -223.559306 203.971713 
L -225.600769 204.560113 
L -227.642232 205.18321 
L -229.683696 205.7508 
L -231.725159 206.358051 
L -233.766623 207.005597 
L -235.808086 207.560048 
L -237.84955 208.18139 
L -239.891013 208.768801 
L -241.932476 209.385201 
L -243.97394 209.942007 
L -246.015403 210.594395 
L -248.056867 211.132954 
L -250.09833 211.738368 
L -252.139793 212.330453 
L -254.181257 212.937821 
L -256.22272 213.514326 
L -258.264184 214.101863 
L -260.305647 214.691949 
L -262.347111 215.302343 
L -264.388574 215.867785 
L -266.430037 216.385365 
L -268.471501 216.914622 
L -270.512964 217.447376 
L -272.554428 217.961663 
L -274.595891 218.484986 
L -276.637354 219.002429 
L -278.678818 219.496554 
L -280.720281 219.996752 
L -282.761745 220.49451 
L -284.803208 220.946947 
L -286.844672 221.407593 
L -288.886135 221.888799 
L -290.927598 222.344676 
L -292.969062 222.752069 
L -295.010525 223.201898 
L -297.051989 223.61286 
L -299.093452 223.991407 
L -301.134915 224.370473 
L -303.176379 224.724933 
L -305.217842 225.107766 
L -307.259306 225.423765 
L -309.300769 225.758114 
L -311.342232 226.072952 
L -313.383696 226.364767 
L -315.425159 226.630728 
L -317.466623 226.872442 
L -319.508086 227.11276 
L -321.54955 227.351255 
L -323.591013 227.548591 
L -325.632476 227.769461 
L -327.67394 227.9564 
L -329.715403 228.117378 
L -331.756867 228.306453 
L -333.79833 228.472138 
L -335.839793 228.609264 
L -337.881257 228.756656 
L -339.92272 228.900048 
L -341.964184 229.026091 
L -344.005647 229.152674 
L -346.047111 229.257272 
L -348.088574 229.383951 
L -350.130037 229.484602 
L -352.171501 229.590513 
L -354.212964 229.701764 
L -356.254428 229.792407 
L -358.295891 229.888562 
L -360.337354 230.014682 
L -362.378818 230.103611 
L -364.420281 230.212892 
L -366.461745 230.299314 
L -368.503208 230.414621 
L -370.544672 230.505791 
L -372.586135 230.60234 
L -374.627598 230.686773 
L -376.669062 230.763491 
L -378.710525 230.851197 
L -380.751989 230.948293 
L -382.793452 231.04245 
L -384.834915 231.122478 
L -386.876379 231.18666 
L -388.917842 231.279833 
L -390.959306 231.35585 
L -393.000769 231.447366 
z
" clip-path="url(#p193a213a0a)" style="fill: #008000; fill-opacity: 0.3; stroke: #008000; stroke-opacity: 0.3"/>
   </g>
   <g id="matplotlib.axis_1">
    <g id="xtick_1">
     <g id="line2d_1">
      <defs>
       <path id="m4718998090" d="M 0 0 
L 0 3.5 
" style="stroke: #000000; stroke-width: 0.8"/>
      </defs>
      <g>
       <use xlink:href="#m4718998090" x="103.074841" y="395.28" style="stroke: #000000; stroke-width: 0.8"/>
      </g>
     </g>
     <g id="text_1">
      <!-- 2022-03-01 -->
      <g transform="translate(17.945813 495.213718) rotate(-45) scale(0.2 -0.2)">
       <defs>
        <path id="DejaVuSans-32" d="M 1228 531 
L 3431 531 
L 3431 0 
L 469 0 
L 469 531 
Q 828 903 1448 1529 
Q 2069 2156 2228 2338 
Q 2531 2678 2651 2914 
Q 2772 3150 2772 3378 
Q 2772 3750 2511 3984 
Q 2250 4219 1831 4219 
Q 1534 4219 1204 4116 
Q 875 4013 500 3803 
L 500 4441 
Q 881 4594 1212 4672 
Q 1544 4750 1819 4750 
Q 2544 4750 2975 4387 
Q 3406 4025 3406 3419 
Q 3406 3131 3298 2873 
Q 3191 2616 2906 2266 
Q 2828 2175 2409 1742 
Q 1991 1309 1228 531 
z
" transform="scale(0.015625)"/>
        <path id="DejaVuSans-30" d="M 2034 4250 
Q 1547 4250 1301 3770 
Q 1056 3291 1056 2328 
Q 1056 1369 1301 889 
Q 1547 409 2034 409 
Q 2525 409 2770 889 
Q 3016 1369 3016 2328 
Q 3016 3291 2770 3770 
Q 2525 4250 2034 4250 
z
M 2034 4750 
Q 2819 4750 3233 4129 
Q 3647 3509 3647 2328 
Q 3647 1150 3233 529 
Q 2819 -91 2034 -91 
Q 1250 -91 836 529 
Q 422 1150 422 2328 
Q 422 3509 836 4129 
Q 1250 4750 2034 4750 
z
" transform="scale(0.015625)"/>
        <path id="DejaVuSans-2d" d="M 313 2009 
L 1997 2009 
L 1997 1497 
L 313 1497 
L 313 2009 
z
" transform="scale(0.015625)"/>
        <path id="DejaVuSans-33" d="M 2597 2516 
Q 3050 2419 3304 2112 
Q 3559 1806 3559 1356 
Q 3559 666 3084 287 
Q 2609 -91 1734 -91 
Q 1441 -91 1130 -33 
Q 819 25 488 141 
L 488 750 
Q 750 597 1062 519 
Q 1375 441 1716 441 
Q 2309 441 2620 675 
Q 2931 909 2931 1356 
Q 2931 1769 2642 2001 
Q 2353 2234 1838 2234 
L 1294 2234 
L 1294 2753 
L 1863 2753 
Q 2328 2753 2575 2939 
Q 2822 3125 2822 3475 
Q 2822 3834 2567 4026 
Q 2313 4219 1838 4219 
Q 1578 4219 1281 4162 
Q 984 4106 628 3988 
L 628 4550 
Q 988 4650 1302 4700 
Q 1616 4750 1894 4750 
Q 2613 4750 3031 4423 
Q 3450 4097 3450 3541 
Q 3450 3153 3228 2886 
Q 3006 2619 2597 2516 
z
" transform="scale(0.015625)"/>
        <path id="DejaVuSans-31" d="M 794 531 
L 1825 531 
L 1825 4091 
L 703 3866 
L 703 4441 
L 1819 4666 
L 2450 4666 
L 2450 531 
L 3481 531 
L 3481 0 
L 794 0 
L 794 531 
z
" transform="scale(0.015625)"/>
       </defs>
       <use xlink:href="#DejaVuSans-32"/>
       <use xlink:href="#DejaVuSans-30" x="63.623047"/>
       <use xlink:href="#DejaVuSans-32" x="127.246094"/>
       <use xlink:href="#DejaVuSans-32" x="190.869141"/>
       <use xlink:href="#DejaVuSans-2d" x="254.492188"/>
       <use xlink:href="#DejaVuSans-30" x="290.576172"/>
       <use xlink:href="#DejaVuSans-33" x="354.199219"/>
       <use xlink:href="#DejaVuSans-2d" x="417.822266"/>
       <use xlink:href="#DejaVuSans-30" x="453.90625"/>
       <use xlink:href="#DejaVuSans-31" x="517.529297"/>
      </g>
     </g>
    </g>
    <g id="xtick_2">
     <g id="line2d_2">
      <g>
       <use xlink:href="#m4718998090" x="160.235816" y="395.28" style="stroke: #000000; stroke-width: 0.8"/>
      </g>
     </g>
     <g id="text_2">
      <!-- 2022-03-29 -->
      <g transform="translate(75.106789 495.213718) rotate(-45) scale(0.2 -0.2)">
       <defs>
        <path id="DejaVuSans-39" d="M 703 97 
L 703 672 
Q 941 559 1184 500 
Q 1428 441 1663 441 
Q 2288 441 2617 861 
Q 2947 1281 2994 2138 
Q 2813 1869 2534 1725 
Q 2256 1581 1919 1581 
Q 1219 1581 811 2004 
Q 403 2428 403 3163 
Q 403 3881 828 4315 
Q 1253 4750 1959 4750 
Q 2769 4750 3195 4129 
Q 3622 3509 3622 2328 
Q 3622 1225 3098 567 
Q 2575 -91 1691 -91 
Q 1453 -91 1209 -44 
Q 966 3 703 97 
z
M 1959 2075 
Q 2384 2075 2632 2365 
Q 2881 2656 2881 3163 
Q 2881 3666 2632 3958 
Q 2384 4250 1959 4250 
Q 1534 4250 1286 3958 
Q 1038 3666 1038 3163 
Q 1038 2656 1286 2365 
Q 1534 2075 1959 2075 
z
" transform="scale(0.015625)"/>
       </defs>
       <use xlink:href="#DejaVuSans-32"/>
       <use xlink:href="#DejaVuSans-30" x="63.623047"/>
       <use xlink:href="#DejaVuSans-32" x="127.246094"/>
       <use xlink:href="#DejaVuSans-32" x="190.869141"/>
       <use xlink:href="#DejaVuSans-2d" x="254.492188"/>
       <use xlink:href="#DejaVuSans-30" x="290.576172"/>
       <use xlink:href="#DejaVuSans-33" x="354.199219"/>
       <use xlink:href="#DejaVuSans-2d" x="417.822266"/>
       <use xlink:href="#DejaVuSans-32" x="453.90625"/>
       <use xlink:href="#DejaVuSans-39" x="517.529297"/>
      </g>
     </g>
    </g>
    <g id="xtick_3">
     <g id="line2d_3">
      <g>
       <use xlink:href="#m4718998090" x="217.396792" y="395.28" style="stroke: #000000; stroke-width: 0.8"/>
      </g>
     </g>
     <g id="text_3">
      <!-- 2022-04-26 -->
      <g transform="translate(132.267765 495.213718) rotate(-45) scale(0.2 -0.2)">
       <defs>
        <path id="DejaVuSans-34" d="M 2419 4116 
L 825 1625 
L 2419 1625 
L 2419 4116 
z
M 2253 4666 
L 3047 4666 
L 3047 1625 
L 3713 1625 
L 3713 1100 
L 3047 1100 
L 3047 0 
L 2419 0 
L 2419 1100 
L 313 1100 
L 313 1709 
L 2253 4666 
z
" transform="scale(0.015625)"/>
        <path id="DejaVuSans-36" d="M 2113 2584 
Q 1688 2584 1439 2293 
Q 1191 2003 1191 1497 
Q 1191 994 1439 701 
Q 1688 409 2113 409 
Q 2538 409 2786 701 
Q 3034 994 3034 1497 
Q 3034 2003 2786 2293 
Q 2538 2584 2113 2584 
z
M 3366 4563 
L 3366 3988 
Q 3128 4100 2886 4159 
Q 2644 4219 2406 4219 
Q 1781 4219 1451 3797 
Q 1122 3375 1075 2522 
Q 1259 2794 1537 2939 
Q 1816 3084 2150 3084 
Q 2853 3084 3261 2657 
Q 3669 2231 3669 1497 
Q 3669 778 3244 343 
Q 2819 -91 2113 -91 
Q 1303 -91 875 529 
Q 447 1150 447 2328 
Q 447 3434 972 4092 
Q 1497 4750 2381 4750 
Q 2619 4750 2861 4703 
Q 3103 4656 3366 4563 
z
" transform="scale(0.015625)"/>
       </defs>
       <use xlink:href="#DejaVuSans-32"/>
       <use xlink:href="#DejaVuSans-30" x="63.623047"/>
       <use xlink:href="#DejaVuSans-32" x="127.246094"/>
       <use xlink:href="#DejaVuSans-32" x="190.869141"/>
       <use xlink:href="#DejaVuSans-2d" x="254.492188"/>
       <use xlink:href="#DejaVuSans-30" x="290.576172"/>
       <use xlink:href="#DejaVuSans-34" x="354.199219"/>
       <use xlink:href="#DejaVuSans-2d" x="417.822266"/>
       <use xlink:href="#DejaVuSans-32" x="453.90625"/>
       <use xlink:href="#DejaVuSans-36" x="517.529297"/>
      </g>
     </g>
    </g>
    <g id="xtick_4">
     <g id="line2d_4">
      <g>
       <use xlink:href="#m4718998090" x="274.557768" y="395.28" style="stroke: #000000; stroke-width: 0.8"/>
      </g>
     </g>
     <g id="text_4">
      <!-- 2022-05-24 -->
      <g transform="translate(189.42874 495.213718) rotate(-45) scale(0.2 -0.2)">
       <defs>
        <path id="DejaVuSans-35" d="M 691 4666 
L 3169 4666 
L 3169 4134 
L 1269 4134 
L 1269 2991 
Q 1406 3038 1543 3061 
Q 1681 3084 1819 3084 
Q 2600 3084 3056 2656 
Q 3513 2228 3513 1497 
Q 3513 744 3044 326 
Q 2575 -91 1722 -91 
Q 1428 -91 1123 -41 
Q 819 9 494 109 
L 494 744 
Q 775 591 1075 516 
Q 1375 441 1709 441 
Q 2250 441 2565 725 
Q 2881 1009 2881 1497 
Q 2881 1984 2565 2268 
Q 2250 2553 1709 2553 
Q 1456 2553 1204 2497 
Q 953 2441 691 2322 
L 691 4666 
z
" transform="scale(0.015625)"/>
       </defs>
       <use xlink:href="#DejaVuSans-32"/>
       <use xlink:href="#DejaVuSans-30" x="63.623047"/>
       <use xlink:href="#DejaVuSans-32" x="127.246094"/>
       <use xlink:href="#DejaVuSans-32" x="190.869141"/>
       <use xlink:href="#DejaVuSans-2d" x="254.492188"/>
       <use xlink:href="#DejaVuSans-30" x="290.576172"/>
       <use xlink:href="#DejaVuSans-35" x="354.199219"/>
       <use xlink:href="#DejaVuSans-2d" x="417.822266"/>
       <use xlink:href="#DejaVuSans-32" x="453.90625"/>
       <use xlink:href="#DejaVuSans-34" x="517.529297"/>
      </g>
     </g>
    </g>
    <g id="xtick_5">
     <g id="line2d_5">
      <g>
       <use xlink:href="#m4718998090" x="331.718743" y="395.28" style="stroke: #000000; stroke-width: 0.8"/>
      </g>
     </g>
     <g id="text_5">
      <!-- 2022-06-21 -->
      <g transform="translate(246.589716 495.213718) rotate(-45) scale(0.2 -0.2)">
       <use xlink:href="#DejaVuSans-32"/>
       <use xlink:href="#DejaVuSans-30" x="63.623047"/>
       <use xlink:href="#DejaVuSans-32" x="127.246094"/>
       <use xlink:href="#DejaVuSans-32" x="190.869141"/>
       <use xlink:href="#DejaVuSans-2d" x="254.492188"/>
       <use xlink:href="#DejaVuSans-30" x="290.576172"/>
       <use xlink:href="#DejaVuSans-36" x="354.199219"/>
       <use xlink:href="#DejaVuSans-2d" x="417.822266"/>
       <use xlink:href="#DejaVuSans-32" x="453.90625"/>
       <use xlink:href="#DejaVuSans-31" x="517.529297"/>
      </g>
     </g>
    </g>
    <g id="xtick_6">
     <g id="line2d_6">
      <g>
       <use xlink:href="#m4718998090" x="388.879719" y="395.28" style="stroke: #000000; stroke-width: 0.8"/>
      </g>
     </g>
     <g id="text_6">
      <!-- 2022-07-19 -->
      <g transform="translate(303.750691 495.213718) rotate(-45) scale(0.2 -0.2)">
       <defs>
        <path id="DejaVuSans-37" d="M 525 4666 
L 3525 4666 
L 3525 4397 
L 1831 0 
L 1172 0 
L 2766 4134 
L 525 4134 
L 525 4666 
z
" transform="scale(0.015625)"/>
       </defs>
       <use xlink:href="#DejaVuSans-32"/>
       <use xlink:href="#DejaVuSans-30" x="63.623047"/>
       <use xlink:href="#DejaVuSans-32" x="127.246094"/>
       <use xlink:href="#DejaVuSans-32" x="190.869141"/>
       <use xlink:href="#DejaVuSans-2d" x="254.492188"/>
       <use xlink:href="#DejaVuSans-30" x="290.576172"/>
       <use xlink:href="#DejaVuSans-37" x="354.199219"/>
       <use xlink:href="#DejaVuSans-2d" x="417.822266"/>
       <use xlink:href="#DejaVuSans-31" x="453.90625"/>
       <use xlink:href="#DejaVuSans-39" x="517.529297"/>
      </g>
     </g>
    </g>
    <g id="xtick_7">
     <g id="line2d_7">
      <g>
       <use xlink:href="#m4718998090" x="446.040694" y="395.28" style="stroke: #000000; stroke-width: 0.8"/>
      </g>
     </g>
     <g id="text_7">
      <!-- 2022-08-16 -->
      <g transform="translate(360.911667 495.213718) rotate(-45) scale(0.2 -0.2)">
       <defs>
        <path id="DejaVuSans-38" d="M 2034 2216 
Q 1584 2216 1326 1975 
Q 1069 1734 1069 1313 
Q 1069 891 1326 650 
Q 1584 409 2034 409 
Q 2484 409 2743 651 
Q 3003 894 3003 1313 
Q 3003 1734 2745 1975 
Q 2488 2216 2034 2216 
z
M 1403 2484 
Q 997 2584 770 2862 
Q 544 3141 544 3541 
Q 544 4100 942 4425 
Q 1341 4750 2034 4750 
Q 2731 4750 3128 4425 
Q 3525 4100 3525 3541 
Q 3525 3141 3298 2862 
Q 3072 2584 2669 2484 
Q 3125 2378 3379 2068 
Q 3634 1759 3634 1313 
Q 3634 634 3220 271 
Q 2806 -91 2034 -91 
Q 1263 -91 848 271 
Q 434 634 434 1313 
Q 434 1759 690 2068 
Q 947 2378 1403 2484 
z
M 1172 3481 
Q 1172 3119 1398 2916 
Q 1625 2713 2034 2713 
Q 2441 2713 2670 2916 
Q 2900 3119 2900 3481 
Q 2900 3844 2670 4047 
Q 2441 4250 2034 4250 
Q 1625 4250 1398 4047 
Q 1172 3844 1172 3481 
z
" transform="scale(0.015625)"/>
       </defs>
       <use xlink:href="#DejaVuSans-32"/>
       <use xlink:href="#DejaVuSans-30" x="63.623047"/>
       <use xlink:href="#DejaVuSans-32" x="127.246094"/>
       <use xlink:href="#DejaVuSans-32" x="190.869141"/>
       <use xlink:href="#DejaVuSans-2d" x="254.492188"/>
       <use xlink:href="#DejaVuSans-30" x="290.576172"/>
       <use xlink:href="#DejaVuSans-38" x="354.199219"/>
       <use xlink:href="#DejaVuSans-2d" x="417.822266"/>
       <use xlink:href="#DejaVuSans-31" x="453.90625"/>
       <use xlink:href="#DejaVuSans-36" x="517.529297"/>
      </g>
     </g>
    </g>
    <g id="xtick_8">
     <g id="line2d_8">
      <g>
       <use xlink:href="#m4718998090" x="503.20167" y="395.28" style="stroke: #000000; stroke-width: 0.8"/>
      </g>
     </g>
     <g id="text_8">
      <!-- 2022-09-13 -->
      <g transform="translate(418.072643 495.213718) rotate(-45) scale(0.2 -0.2)">
       <use xlink:href="#DejaVuSans-32"/>
       <use xlink:href="#DejaVuSans-30" x="63.623047"/>
       <use xlink:href="#DejaVuSans-32" x="127.246094"/>
       <use xlink:href="#DejaVuSans-32" x="190.869141"/>
       <use xlink:href="#DejaVuSans-2d" x="254.492188"/>
       <use xlink:href="#DejaVuSans-30" x="290.576172"/>
       <use xlink:href="#DejaVuSans-39" x="354.199219"/>
       <use xlink:href="#DejaVuSans-2d" x="417.822266"/>
       <use xlink:href="#DejaVuSans-31" x="453.90625"/>
       <use xlink:href="#DejaVuSans-33" x="517.529297"/>
      </g>
     </g>
    </g>
    <g id="xtick_9">
     <g id="line2d_9">
      <g>
       <use xlink:href="#m4718998090" x="560.362646" y="395.28" style="stroke: #000000; stroke-width: 0.8"/>
      </g>
     </g>
     <g id="text_9">
      <!-- 2022-10-11 -->
      <g transform="translate(475.233618 495.213718) rotate(-45) scale(0.2 -0.2)">
       <use xlink:href="#DejaVuSans-32"/>
       <use xlink:href="#DejaVuSans-30" x="63.623047"/>
       <use xlink:href="#DejaVuSans-32" x="127.246094"/>
       <use xlink:href="#DejaVuSans-32" x="190.869141"/>
       <use xlink:href="#DejaVuSans-2d" x="254.492188"/>
       <use xlink:href="#DejaVuSans-31" x="290.576172"/>
       <use xlink:href="#DejaVuSans-30" x="354.199219"/>
       <use xlink:href="#DejaVuSans-2d" x="417.822266"/>
       <use xlink:href="#DejaVuSans-31" x="453.90625"/>
       <use xlink:href="#DejaVuSans-31" x="517.529297"/>
      </g>
     </g>
    </g>
    <g id="xtick_10">
     <g id="line2d_10">
      <g>
       <use xlink:href="#m4718998090" x="617.523621" y="395.28" style="stroke: #000000; stroke-width: 0.8"/>
      </g>
     </g>
     <g id="text_10">
      <!-- 2022-11-08 -->
      <g transform="translate(532.394594 495.213718) rotate(-45) scale(0.2 -0.2)">
       <use xlink:href="#DejaVuSans-32"/>
       <use xlink:href="#DejaVuSans-30" x="63.623047"/>
       <use xlink:href="#DejaVuSans-32" x="127.246094"/>
       <use xlink:href="#DejaVuSans-32" x="190.869141"/>
       <use xlink:href="#DejaVuSans-2d" x="254.492188"/>
       <use xlink:href="#DejaVuSans-31" x="290.576172"/>
       <use xlink:href="#DejaVuSans-31" x="354.199219"/>
       <use xlink:href="#DejaVuSans-2d" x="417.822266"/>
       <use xlink:href="#DejaVuSans-30" x="453.90625"/>
       <use xlink:href="#DejaVuSans-38" x="517.529297"/>
      </g>
     </g>
    </g>
    <g id="xtick_11">
     <g id="line2d_11">
      <g>
       <use xlink:href="#m4718998090" x="674.684597" y="395.28" style="stroke: #000000; stroke-width: 0.8"/>
      </g>
     </g>
     <g id="text_11">
      <!-- 2022-12-06 -->
      <g transform="translate(589.555569 495.213718) rotate(-45) scale(0.2 -0.2)">
       <use xlink:href="#DejaVuSans-32"/>
       <use xlink:href="#DejaVuSans-30" x="63.623047"/>
       <use xlink:href="#DejaVuSans-32" x="127.246094"/>
       <use xlink:href="#DejaVuSans-32" x="190.869141"/>
       <use xlink:href="#DejaVuSans-2d" x="254.492188"/>
       <use xlink:href="#DejaVuSans-31" x="290.576172"/>
       <use xlink:href="#DejaVuSans-32" x="354.199219"/>
       <use xlink:href="#DejaVuSans-2d" x="417.822266"/>
       <use xlink:href="#DejaVuSans-30" x="453.90625"/>
       <use xlink:href="#DejaVuSans-36" x="517.529297"/>
      </g>
     </g>
    </g>
    <g id="xtick_12">
     <g id="line2d_12">
      <g>
       <use xlink:href="#m4718998090" x="731.845572" y="395.28" style="stroke: #000000; stroke-width: 0.8"/>
      </g>
     </g>
     <g id="text_12">
      <!-- 2023-01-03 -->
      <g transform="translate(646.716545 495.213718) rotate(-45) scale(0.2 -0.2)">
       <use xlink:href="#DejaVuSans-32"/>
       <use xlink:href="#DejaVuSans-30" x="63.623047"/>
       <use xlink:href="#DejaVuSans-32" x="127.246094"/>
       <use xlink:href="#DejaVuSans-33" x="190.869141"/>
       <use xlink:href="#DejaVuSans-2d" x="254.492188"/>
       <use xlink:href="#DejaVuSans-30" x="290.576172"/>
       <use xlink:href="#DejaVuSans-31" x="354.199219"/>
       <use xlink:href="#DejaVuSans-2d" x="417.822266"/>
       <use xlink:href="#DejaVuSans-30" x="453.90625"/>
       <use xlink:href="#DejaVuSans-33" x="517.529297"/>
      </g>
     </g>
    </g>
    <g id="xtick_13">
     <g id="line2d_13">
      <g>
       <use xlink:href="#m4718998090" x="789.006548" y="395.28" style="stroke: #000000; stroke-width: 0.8"/>
      </g>
     </g>
     <g id="text_13">
      <!-- 2023-01-31 -->
      <g transform="translate(703.877521 495.213718) rotate(-45) scale(0.2 -0.2)">
       <use xlink:href="#DejaVuSans-32"/>
       <use xlink:href="#DejaVuSans-30" x="63.623047"/>
       <use xlink:href="#DejaVuSans-32" x="127.246094"/>
       <use xlink:href="#DejaVuSans-33" x="190.869141"/>
       <use xlink:href="#DejaVuSans-2d" x="254.492188"/>
       <use xlink:href="#DejaVuSans-30" x="290.576172"/>
       <use xlink:href="#DejaVuSans-31" x="354.199219"/>
       <use xlink:href="#DejaVuSans-2d" x="417.822266"/>
       <use xlink:href="#DejaVuSans-33" x="453.90625"/>
       <use xlink:href="#DejaVuSans-31" x="517.529297"/>
      </g>
     </g>
    </g>
    <g id="xtick_14">
     <g id="line2d_14">
      <g>
       <use xlink:href="#m4718998090" x="846.167524" y="395.28" style="stroke: #000000; stroke-width: 0.8"/>
      </g>
     </g>
     <g id="text_14">
      <!-- 2023-02-28 -->
      <g transform="translate(761.038496 495.213718) rotate(-45) scale(0.2 -0.2)">
       <use xlink:href="#DejaVuSans-32"/>
       <use xlink:href="#DejaVuSans-30" x="63.623047"/>
       <use xlink:href="#DejaVuSans-32" x="127.246094"/>
       <use xlink:href="#DejaVuSans-33" x="190.869141"/>
       <use xlink:href="#DejaVuSans-2d" x="254.492188"/>
       <use xlink:href="#DejaVuSans-30" x="290.576172"/>
       <use xlink:href="#DejaVuSans-32" x="354.199219"/>
       <use xlink:href="#DejaVuSans-2d" x="417.822266"/>
       <use xlink:href="#DejaVuSans-32" x="453.90625"/>
       <use xlink:href="#DejaVuSans-38" x="517.529297"/>
      </g>
     </g>
    </g>
    <g id="xtick_15">
     <g id="line2d_15">
      <g>
       <use xlink:href="#m4718998090" x="903.328499" y="395.28" style="stroke: #000000; stroke-width: 0.8"/>
      </g>
     </g>
     <g id="text_15">
      <!-- 2023-03-28 -->
      <g transform="translate(818.199472 495.213718) rotate(-45) scale(0.2 -0.2)">
       <use xlink:href="#DejaVuSans-32"/>
       <use xlink:href="#DejaVuSans-30" x="63.623047"/>
       <use xlink:href="#DejaVuSans-32" x="127.246094"/>
       <use xlink:href="#DejaVuSans-33" x="190.869141"/>
       <use xlink:href="#DejaVuSans-2d" x="254.492188"/>
       <use xlink:href="#DejaVuSans-30" x="290.576172"/>
       <use xlink:href="#DejaVuSans-33" x="354.199219"/>
       <use xlink:href="#DejaVuSans-2d" x="417.822266"/>
       <use xlink:href="#DejaVuSans-32" x="453.90625"/>
       <use xlink:href="#DejaVuSans-38" x="517.529297"/>
      </g>
     </g>
    </g>
    <g id="xtick_16">
     <g id="line2d_16">
      <g>
       <use xlink:href="#m4718998090" x="940.074841" y="395.28" style="stroke: #000000; stroke-width: 0.8"/>
      </g>
     </g>
     <g id="text_16">
      <!-- 2023-04-15 -->
      <g transform="translate(854.945813 495.213718) rotate(-45) scale(0.2 -0.2)">
       <use xlink:href="#DejaVuSans-32"/>
       <use xlink:href="#DejaVuSans-30" x="63.623047"/>
       <use xlink:href="#DejaVuSans-32" x="127.246094"/>
       <use xlink:href="#DejaVuSans-33" x="190.869141"/>
       <use xlink:href="#DejaVuSans-2d" x="254.492188"/>
       <use xlink:href="#DejaVuSans-30" x="290.576172"/>
       <use xlink:href="#DejaVuSans-34" x="354.199219"/>
       <use xlink:href="#DejaVuSans-2d" x="417.822266"/>
       <use xlink:href="#DejaVuSans-31" x="453.90625"/>
       <use xlink:href="#DejaVuSans-35" x="517.529297"/>
      </g>
     </g>
    </g>
   </g>
   <g id="matplotlib.axis_2">
    <g id="ytick_1">
     <g id="line2d_17">
      <defs>
       <path id="mf1e2d7381d" d="M 0 0 
L -3.5 0 
" style="stroke: #000000; stroke-width: 0.8"/>
      </defs>
      <g>
       <use xlink:href="#mf1e2d7381d" x="103.074841" y="365.576987" style="stroke: #000000; stroke-width: 0.8"/>
      </g>
     </g>
     <g id="text_17">
      <!-- 0.10 -->
      <g transform="translate(34.784216 373.175424) scale(0.2 -0.2)">
       <defs>
        <path id="DejaVuSans-2212" d="M 678 2272 
L 4684 2272 
L 4684 1741 
L 678 1741 
L 678 2272 
z
" transform="scale(0.015625)"/>
        <path id="DejaVuSans-2e" d="M 684 794 
L 1344 794 
L 1344 0 
L 684 0 
L 684 794 
z
" transform="scale(0.015625)"/>
       </defs>
       <use xlink:href="#DejaVuSans-2212"/>
       <use xlink:href="#DejaVuSans-30" x="83.789062"/>
       <use xlink:href="#DejaVuSans-2e" x="147.412109"/>
       <use xlink:href="#DejaVuSans-31" x="179.199219"/>
       <use xlink:href="#DejaVuSans-30" x="242.822266"/>
      </g>
     </g>
    </g>
    <g id="ytick_2">
     <g id="line2d_18">
      <g>
       <use xlink:href="#mf1e2d7381d" x="103.074841" y="298.555897" style="stroke: #000000; stroke-width: 0.8"/>
      </g>
     </g>
     <g id="text_18">
      <!-- 0.05 -->
      <g transform="translate(34.784216 306.154335) scale(0.2 -0.2)">
       <use xlink:href="#DejaVuSans-2212"/>
       <use xlink:href="#DejaVuSans-30" x="83.789062"/>
       <use xlink:href="#DejaVuSans-2e" x="147.412109"/>
       <use xlink:href="#DejaVuSans-30" x="179.199219"/>
       <use xlink:href="#DejaVuSans-35" x="242.822266"/>
      </g>
     </g>
    </g>
    <g id="ytick_3">
     <g id="line2d_19">
      <g>
       <use xlink:href="#mf1e2d7381d" x="103.074841" y="231.534808" style="stroke: #000000; stroke-width: 0.8"/>
      </g>
     </g>
     <g id="text_19">
      <!-- 0.00 -->
      <g transform="translate(51.543591 239.133245) scale(0.2 -0.2)">
       <use xlink:href="#DejaVuSans-30"/>
       <use xlink:href="#DejaVuSans-2e" x="63.623047"/>
       <use xlink:href="#DejaVuSans-30" x="95.410156"/>
       <use xlink:href="#DejaVuSans-30" x="159.033203"/>
      </g>
     </g>
    </g>
    <g id="ytick_4">
     <g id="line2d_20">
      <g>
       <use xlink:href="#mf1e2d7381d" x="103.074841" y="164.513718" style="stroke: #000000; stroke-width: 0.8"/>
      </g>
     </g>
     <g id="text_20">
      <!-- 0.05 -->
      <g transform="translate(51.543591 172.112156) scale(0.2 -0.2)">
       <use xlink:href="#DejaVuSans-30"/>
       <use xlink:href="#DejaVuSans-2e" x="63.623047"/>
       <use xlink:href="#DejaVuSans-30" x="95.410156"/>
       <use xlink:href="#DejaVuSans-35" x="159.033203"/>
      </g>
     </g>
    </g>
    <g id="ytick_5">
     <g id="line2d_21">
      <g>
       <use xlink:href="#mf1e2d7381d" x="103.074841" y="97.492629" style="stroke: #000000; stroke-width: 0.8"/>
      </g>
     </g>
     <g id="text_21">
      <!-- 0.10 -->
      <g transform="translate(51.543591 105.091066) scale(0.2 -0.2)">
       <use xlink:href="#DejaVuSans-30"/>
       <use xlink:href="#DejaVuSans-2e" x="63.623047"/>
       <use xlink:href="#DejaVuSans-31" x="95.410156"/>
       <use xlink:href="#DejaVuSans-30" x="159.033203"/>
      </g>
     </g>
    </g>
    <g id="ytick_6">
     <g id="line2d_22">
      <g>
       <use xlink:href="#mf1e2d7381d" x="103.074841" y="30.471539" style="stroke: #000000; stroke-width: 0.8"/>
      </g>
     </g>
     <g id="text_22">
      <!-- 0.15 -->
      <g transform="translate(51.543591 38.069977) scale(0.2 -0.2)">
       <use xlink:href="#DejaVuSans-30"/>
       <use xlink:href="#DejaVuSans-2e" x="63.623047"/>
       <use xlink:href="#DejaVuSans-31" x="95.410156"/>
       <use xlink:href="#DejaVuSans-35" x="159.033203"/>
      </g>
     </g>
    </g>
   </g>
   <g id="line2d_23">
    <path d="M 552.196792 24.84 
L 554.238255 157.731153 
L 556.279719 150.135546 
L 558.321182 140.59651 
L 560.362646 128.298948 
L 562.404109 111.828601 
L 564.445572 175.889949 
L 566.487036 147.557569 
L 570.569963 147.557569 
L 572.611426 126.529044 
L 574.652889 133.293559 
L 576.694353 116.403317 
L 578.735816 121.842902 
L 580.77728 135.691912 
L 582.818743 104.346003 
L 584.860207 106.403361 
L 586.90167 116.153612 
L 588.943133 94.530781 
L 590.984597 102.391545 
L 593.02606 120.299564 
L 595.067524 113.751573 
L 597.108987 150.92598 
L 599.15045 145.90699 
L 601.191914 132.655673 
L 603.233377 154.340264 
L 605.274841 146.283012 
L 607.316304 167.319297 
L 609.357768 175.548613 
L 611.399231 161.865227 
L 613.440694 177.385124 
L 615.482158 173.45875 
L 617.523621 163.505654 
L 619.565085 197.427406 
L 621.606548 202.505114 
L 625.689475 187.484927 
L 627.730938 166.677956 
L 629.772402 166.465259 
L 631.813865 173.622258 
L 633.855328 167.612334 
L 635.896792 181.209017 
L 637.938255 170.233048 
L 639.979719 164.107872 
L 642.021182 173.35313 
L 646.104109 165.107746 
L 648.145572 163.695787 
L 650.187036 158.511029 
L 652.228499 151.29456 
L 654.269963 153.590302 
L 656.311426 150.10815 
L 658.352889 156.09478 
L 660.394353 159.135252 
L 662.435816 164.329661 
L 664.47728 168.585671 
L 666.518743 162.937652 
L 668.560207 167.595746 
L 670.60167 173.154308 
L 672.643133 168.209086 
L 674.684597 169.462251 
L 676.72606 176.783438 
L 678.767524 188.911153 
L 680.808987 189.004606 
L 682.85045 192.158322 
L 684.891914 194.310748 
L 686.933377 200.985506 
L 688.974841 210.003748 
L 693.057768 203.049996 
L 695.099231 200.333383 
L 697.140694 203.844604 
L 699.182158 204.56628 
L 701.223621 204.344236 
L 703.265085 210.95125 
L 705.306548 214.908475 
L 707.348011 212.659577 
L 709.389475 200.543452 
L 711.430938 202.092506 
L 713.472402 203.992452 
L 715.513865 202.495095 
L 717.555328 205.733042 
L 719.596792 202.714646 
L 721.638255 206.939939 
L 723.679719 213.760641 
L 725.721182 217.687844 
L 727.762646 208.485815 
L 729.804109 205.670298 
L 731.845572 202.428475 
L 735.928499 191.90234 
L 737.969963 190.085453 
L 740.011426 203.300005 
L 742.052889 198.99685 
L 744.094353 195.078741 
L 746.135816 193.506613 
L 748.17728 184.201079 
L 750.218743 180.089776 
L 752.260207 177.448197 
L 754.30167 171.74984 
L 756.343133 170.218671 
L 758.384597 180.362172 
L 760.42606 183.70642 
L 762.467524 186.505452 
L 764.508987 192.631309 
L 766.55045 196.870074 
L 768.591914 192.612421 
L 770.633377 183.592583 
L 772.674841 188.80732 
L 774.716304 194.834763 
L 776.757768 201.55153 
L 778.799231 213.83103 
L 780.840694 217.826878 
L 782.882158 228.203006 
L 784.923621 231.816176 
L 786.965085 231.637128 
L 789.006548 230.724654 
L 791.048011 233.951162 
L 793.089475 235.02881 
L 795.130938 231.961142 
L 797.172402 231.214863 
L 799.213865 242.17783 
L 801.255328 251.147976 
L 803.296792 252.87442 
L 805.338255 255.039683 
L 807.379719 251.499198 
L 809.421182 244.404963 
L 811.462646 240.254949 
L 813.504109 230.745054 
L 815.545572 229.636357 
L 817.587036 233.140911 
L 819.628499 231.295564 
L 821.669963 226.817461 
L 823.711426 227.05367 
L 825.752889 226.266588 
L 827.794353 228.149865 
L 829.835816 225.908431 
L 831.87728 224.404338 
L 833.918743 224.135629 
L 835.960207 220.688889 
L 838.00167 223.897665 
L 840.043133 231.269342 
L 842.084597 242.179856 
L 844.12606 247.922123 
L 846.167524 252.454053 
L 848.208987 253.586691 
L 850.25045 258.18487 
L 852.291914 265.058435 
L 854.333377 260.632868 
L 856.374841 268.133708 
L 858.416304 265.610669 
L 860.457768 265.935929 
L 862.499231 261.939977 
L 864.540694 259.760492 
L 866.582158 261.58415 
L 868.623621 259.769277 
L 870.665085 250.290245 
L 872.706548 242.184852 
L 874.748011 239.19928 
L 876.789475 234.614901 
L 878.830938 231.25503 
L 882.913865 215.401776 
L 884.955328 232.768238 
L 886.996792 231.089322 
L 889.038255 238.179179 
L 891.079719 239.317399 
L 893.121182 243.613207 
L 895.162646 250.687424 
L 897.204109 251.501909 
L 899.245572 253.32541 
L 901.287036 261.916335 
L 903.328499 264.545901 
L 905.369963 269.714444 
L 907.411426 277.152517 
L 909.452889 274.437671 
L 911.494353 292.174957 
L 913.535816 303.02031 
L 915.57728 287.745909 
L 917.618743 287.636335 
L 919.660207 285.518407 
L 921.70167 279.567601 
L 923.743133 280.876692 
L 925.784597 258.717533 
L 927.82606 266.143485 
L 929.867524 272.911095 
L 931.908987 274.800187 
L 933.95045 286.551295 
L 935.991914 281.705165 
L 938.033377 274.992105 
L 940.074841 278.027102 
L 940.074841 278.027102 
" clip-path="url(#p193a213a0a)" style="fill: none; stroke: #ffa500; stroke-width: 1.5; stroke-linecap: square"/>
   </g>
   <g id="line2d_24">
    <path d="M 103.074841 231.534808 
L 948.274841 231.534808 
" clip-path="url(#p193a213a0a)" style="fill: none; stroke-dasharray: 7.4,3.2; stroke-dashoffset: 0; stroke: #000000; stroke-width: 2"/>
   </g>
   <g id="patch_3">
    <path d="M 103.074841 395.28 
L 103.074841 7.2 
" style="fill: none; stroke: #000000; stroke-width: 0.8; stroke-linejoin: miter; stroke-linecap: square"/>
   </g>
   <g id="patch_4">
    <path d="M 940.074841 395.28 
L 940.074841 7.2 
" style="fill: none; stroke: #000000; stroke-width: 0.8; stroke-linejoin: miter; stroke-linecap: square"/>
   </g>
   <g id="patch_5">
    <path d="M 103.074841 395.28 
L 940.074841 395.28 
" style="fill: none; stroke: #000000; stroke-width: 0.8; stroke-linejoin: miter; stroke-linecap: square"/>
   </g>
   <g id="patch_6">
    <path d="M 103.074841 7.2 
L 940.074841 7.2 
" style="fill: none; stroke: #000000; stroke-width: 0.8; stroke-linejoin: miter; stroke-linecap: square"/>
   </g>
  </g>
 </g>
 <defs>
  <clipPath id="p193a213a0a">
   <rect x="103.074841" y="7.2" width="837" height="388.08"/>
  </clipPath>
 </defs>
</svg>
