<?xml version="1.0" encoding="utf-8" standalone="no"?>
<!DOCTYPE svg PUBLIC "-//W3C//DTD SVG 1.1//EN"
  "http://www.w3.org/Graphics/SVG/1.1/DTD/svg11.dtd">
<svg xmlns:xlink="http://www.w3.org/1999/xlink" width="947.274841pt" height="505.354841pt" viewBox="0 0 947.274841 505.354841" xmlns="http://www.w3.org/2000/svg" version="1.1">
 <metadata>
  <rdf:RDF xmlns:dc="http://purl.org/dc/elements/1.1/" xmlns:cc="http://creativecommons.org/ns#" xmlns:rdf="http://www.w3.org/1999/02/22-rdf-syntax-ns#">
   <cc:Work>
    <dc:type rdf:resource="http://purl.org/dc/dcmitype/StillImage"/>
    <dc:date>2023-11-12T22:43:42.928029</dc:date>
    <dc:format>image/svg+xml</dc:format>
    <dc:creator>
     <cc:Agent>
      <dc:title>Matplotlib v3.7.2, https://matplotlib.org/</dc:title>
     </cc:Agent>
    </dc:creator>
   </cc:Work>
  </rdf:RDF>
 </metadata>
 <defs>
  <style type="text/css">*{stroke-linejoin: round; stroke-linecap: butt}</style>
 </defs>
 <g id="figure_1">
  <g id="patch_1">
   <path d="M 0 505.354841 
L 947.274841 505.354841 
L 947.274841 -0 
L 0 -0 
z
" style="fill: #ffffff"/>
  </g>
  <g id="axes_1">
   <g id="patch_2">
    <path d="M 103.074841 395.28 
L 940.074841 395.28 
L 940.074841 7.2 
L 103.074841 7.2 
z
" style="fill: #ffffff"/>
   </g>
   <g id="PolyCollection_1">
    <path d="M -4315.31939 314.626991 
L -4315.31939 314.628483 
L -4307.271313 314.62115 
L -4299.223236 314.614754 
L -4291.175159 314.606636 
L -4283.127082 314.601143 
L -4275.079005 314.594166 
L -4267.030929 314.586712 
L -4258.982852 314.579555 
L -4250.934775 314.572802 
L -4242.886698 314.566815 
L -4234.838621 314.559954 
L -4226.790544 314.552777 
L -4218.742467 314.545783 
L -4210.69439 314.53729 
L -4202.646313 314.530173 
L -4194.598236 314.521865 
L -4186.550159 314.514678 
L -4178.502082 314.505123 
L -4170.454005 314.497175 
L -4162.405929 314.489494 
L -4154.357852 314.480492 
L -4146.309775 314.471693 
L -4138.261698 314.463069 
L -4130.213621 314.452755 
L -4122.165544 314.443652 
L -4114.117467 314.43307 
L -4106.06939 314.422346 
L -4098.021313 314.410524 
L -4089.973236 314.398368 
L -4081.925159 314.386437 
L -4073.877082 314.372699 
L -4065.829005 314.357212 
L -4057.780929 314.34335 
L -4049.732852 314.32766 
L -4041.684775 314.309805 
L -4033.636698 314.293095 
L -4025.588621 314.273598 
L -4017.540544 314.253761 
L -4009.492467 314.233303 
L -4001.44439 314.211703 
L -3993.396313 314.187816 
L -3985.348236 314.162393 
L -3977.300159 314.135457 
L -3969.252082 314.109394 
L -3961.204005 314.078932 
L -3953.155929 314.049839 
L -3945.107852 314.018881 
L -3937.059775 313.98775 
L -3929.011698 313.954296 
L -3920.963621 313.918148 
L -3912.915544 313.884518 
L -3904.867467 313.847204 
L -3896.81939 313.808596 
L -3888.771313 313.77069 
L -3880.723236 313.733118 
L -3872.675159 313.692467 
L -3864.627082 313.651364 
L -3856.579005 313.610304 
L -3848.530929 313.567576 
L -3840.482852 313.524319 
L -3832.434775 313.481161 
L -3824.386698 313.436578 
L -3816.338621 313.391879 
L -3808.290544 313.347809 
L -3800.242467 313.301985 
L -3792.19439 313.253082 
L -3784.146313 313.205622 
L -3776.098236 313.158253 
L -3768.050159 313.111585 
L -3760.002082 313.063076 
L -3751.954005 313.015641 
L -3743.905929 312.967422 
L -3735.857852 312.923692 
L -3727.809775 312.872568 
L -3719.761698 312.828 
L -3711.713621 312.779385 
L -3703.665544 312.732999 
L -3695.617467 312.685078 
L -3687.56939 312.641905 
L -3679.521313 312.592654 
L -3671.473236 312.546235 
L -3663.425159 312.503 
L -3655.377082 312.456262 
L -3647.329005 312.411908 
L -3639.280929 312.365606 
L -3631.232852 312.319057 
L -3623.184775 312.27427 
L -3615.136698 312.230321 
L -3607.088621 312.183166 
L -3599.040544 312.138129 
L -3590.992467 312.092388 
L -3582.94439 312.047363 
L -3574.896313 312.003356 
L -3566.848236 311.958212 
L -3558.800159 311.912652 
L -3550.752082 311.871407 
L -3542.704005 311.825019 
L -3534.655929 311.780492 
L -3526.607852 311.736669 
L -3518.559775 311.692808 
L -3510.511698 311.649059 
L -3502.463621 311.604788 
L -3494.415544 311.562465 
L -3486.367467 311.51855 
L -3478.31939 311.473616 
L -3470.271313 311.428211 
L -3462.223236 311.382344 
L -3454.175159 311.339253 
L -3446.127082 311.292083 
L -3438.079005 311.241946 
L -3430.030929 311.1947 
L -3421.982852 311.145003 
L -3413.934775 311.094559 
L -3405.886698 311.041424 
L -3397.838621 310.987353 
L -3389.790544 310.936894 
L -3381.742467 310.879689 
L -3373.69439 310.825158 
L -3365.646313 310.76664 
L -3357.598236 310.712635 
L -3349.550159 310.6496 
L -3341.502082 310.587712 
L -3333.454005 310.527447 
L -3325.405929 310.466144 
L -3317.357852 310.403003 
L -3309.309775 310.337114 
L -3301.261698 310.27513 
L -3293.213621 310.204541 
L -3285.165544 310.142047 
L -3277.117467 310.069397 
L -3269.06939 309.998859 
L -3261.021313 309.929854 
L -3252.973236 309.863486 
L -3244.925159 309.786537 
L -3236.877082 309.716648 
L -3228.829005 309.628656 
L -3220.780929 309.552425 
L -3212.732852 309.481079 
L -3204.684775 309.400895 
L -3196.636698 309.31866 
L -3188.588621 309.224434 
L -3180.540544 309.135775 
L -3172.492467 309.061025 
L -3164.44439 308.94504 
L -3156.396313 308.850908 
L -3148.348236 308.754672 
L -3140.300159 308.654846 
L -3132.252082 308.541674 
L -3124.204005 308.434778 
L -3116.155929 308.352584 
L -3108.107852 308.249133 
L -3100.059775 308.082783 
L -3092.011698 307.941749 
L -3083.963621 307.835681 
L -3075.915544 307.691066 
L -3067.867467 307.56973 
L -3059.81939 307.476362 
L -3051.771313 307.351623 
L -3043.723236 307.180075 
L -3035.675159 307.077206 
L -3027.627082 307.0218 
L -3019.579005 306.895723 
L -3011.530929 306.851366 
L -3003.482852 306.770441 
L -2995.434775 306.619598 
L -2987.386698 306.626261 
L -2979.338621 306.681203 
L -2971.290544 306.802987 
L -2963.242467 306.65696 
L -2955.19439 306.934052 
L -2947.146313 306.992825 
L -2939.098236 306.610759 
L -2931.050159 306.714516 
L -2923.002082 306.879009 
L -2914.954005 306.777266 
L -2906.905929 306.754315 
L -2898.857852 307.471257 
L -2890.809775 308.491886 
L -2882.761698 308.999424 
L -2874.713621 307.888742 
L -2866.665544 308.458454 
L -2858.617467 309.205262 
L -2850.56939 309.161733 
L -2842.521313 310.682376 
L -2834.473236 310.47548 
L -2826.425159 310.011228 
L -2818.377082 308.85978 
L -2810.329005 309.944115 
L -2802.280929 310.596731 
L -2794.232852 310.325874 
L -2786.184775 310.497227 
L -2778.136698 311.113651 
L -2770.088621 311.033559 
L -2762.040544 310.505523 
L -2753.992467 311.173302 
L -2745.94439 311.307386 
L -2737.896313 311.071735 
L -2729.848236 311.496557 
L -2721.800159 311.653307 
L -2713.752082 311.613974 
L -2705.704005 311.488202 
L -2697.655929 311.629553 
L -2689.607852 311.49033 
L -2681.559775 311.505237 
L -2673.511698 311.640166 
L -2665.463621 311.518369 
L -2657.415544 311.585828 
L -2649.367467 311.59221 
L -2641.31939 311.494461 
L -2633.271313 311.534434 
L -2625.223236 311.392364 
L -2617.175159 311.405116 
L -2609.127082 311.448466 
L -2601.079005 311.453874 
L -2593.030929 311.386318 
L -2584.982852 311.329072 
L -2576.934775 311.317016 
L -2568.886698 311.25351 
L -2560.838621 311.246304 
L -2552.790544 311.237 
L -2544.742467 311.139091 
L -2536.69439 311.190161 
L -2528.646313 311.126661 
L -2520.598236 311.101137 
L -2512.550159 311.106453 
L -2504.502082 311.044451 
L -2496.454005 311.031696 
L -2488.405929 311.057399 
L -2480.357852 311.097068 
L -2472.309775 310.993575 
L -2464.261698 310.978779 
L -2456.213621 310.947016 
L -2448.165544 311.135325 
L -2440.117467 311.142906 
L -2432.06939 311.217447 
L -2424.021313 311.043831 
L -2415.973236 310.93801 
L -2407.925159 310.975491 
L -2399.877082 311.100396 
L -2391.829005 311.123549 
L -2383.780929 310.912172 
L -2375.732852 311.095489 
L -2367.684775 311.052553 
L -2359.636698 311.024982 
L -2351.588621 310.928255 
L -2343.540544 311.010563 
L -2335.492467 310.964334 
L -2327.44439 311.011075 
L -2319.396313 310.948174 
L -2311.348236 310.898479 
L -2303.300159 310.807943 
L -2295.252082 310.764871 
L -2287.204005 310.725457 
L -2279.155929 310.670997 
L -2271.107852 310.659116 
L -2263.059775 310.608448 
L -2255.011698 310.553819 
L -2246.963621 310.409841 
L -2238.915544 310.30022 
L -2230.867467 310.250455 
L -2222.81939 310.13045 
L -2214.771313 310.105802 
L -2206.723236 310.000225 
L -2198.675159 309.845216 
L -2190.627082 309.715662 
L -2182.579005 309.617204 
L -2174.530929 309.456436 
L -2166.482852 309.357172 
L -2158.434775 309.213566 
L -2150.386698 309.086357 
L -2142.338621 308.926765 
L -2134.290544 308.794878 
L -2126.242467 308.616151 
L -2118.19439 308.474941 
L -2110.146313 308.321546 
L -2102.098236 308.118204 
L -2094.050159 307.929517 
L -2086.002082 307.795804 
L -2077.954005 307.641916 
L -2069.905929 307.449808 
L -2061.857852 307.297516 
L -2053.809775 307.112126 
L -2045.761698 306.845458 
L -2037.713621 306.729137 
L -2029.665544 306.5038 
L -2021.617467 306.335659 
L -2013.56939 306.14574 
L -2005.521313 305.937061 
L -1997.473236 305.723544 
L -1989.425159 305.528668 
L -1981.377082 305.265637 
L -1973.329005 305.10245 
L -1965.280929 304.8454 
L -1957.232852 304.683679 
L -1949.184775 304.43324 
L -1941.136698 304.190275 
L -1933.088621 303.969213 
L -1925.040544 303.793378 
L -1916.992467 303.503662 
L -1908.94439 303.307766 
L -1900.896313 303.049667 
L -1892.848236 302.839363 
L -1884.800159 302.567585 
L -1876.752082 302.34082 
L -1868.704005 302.314706 
L -1860.655929 301.867178 
L -1852.607852 301.79904 
L -1844.559775 301.527772 
L -1836.511698 301.341004 
L -1828.463621 301.120454 
L -1820.415544 300.884947 
L -1812.367467 300.67173 
L -1804.31939 300.4655 
L -1796.271313 300.271043 
L -1788.223236 300.075261 
L -1780.175159 300.216674 
L -1772.127082 299.64818 
L -1764.079005 299.501854 
L -1756.030929 299.956072 
L -1747.982852 299.270642 
L -1739.934775 299.376134 
L -1731.886698 299.293609 
L -1723.838621 298.932444 
L -1715.790544 298.984144 
L -1707.742467 299.318321 
L -1699.69439 299.057231 
L -1691.646313 298.932238 
L -1683.598236 299.13678 
L -1675.550159 299.047384 
L -1667.502082 299.184741 
L -1659.454005 299.374276 
L -1651.405929 299.704954 
L -1643.357852 300.48456 
L -1635.309775 300.294548 
L -1627.261698 300.713055 
L -1619.213621 301.058091 
L -1611.165544 301.239484 
L -1603.117467 301.681529 
L -1595.06939 301.958713 
L -1587.021313 301.409138 
L -1578.973236 301.922889 
L -1570.925159 302.621623 
L -1562.877082 303.051272 
L -1554.829005 303.249641 
L -1546.780929 304.427226 
L -1538.732852 304.525278 
L -1530.684775 304.848832 
L -1522.636698 304.766223 
L -1514.588621 305.761115 
L -1506.540544 305.457621 
L -1498.492467 305.286916 
L -1490.44439 306.137355 
L -1482.396313 306.74251 
L -1474.348236 306.693771 
L -1466.300159 307.05493 
L -1458.252082 307.175696 
L -1450.204005 307.202489 
L -1442.155929 307.207501 
L -1434.107852 307.410833 
L -1426.059775 307.528246 
L -1418.011698 308.15002 
L -1409.963621 307.841592 
L -1401.915544 308.384715 
L -1393.867467 308.27194 
L -1385.81939 308.207963 
L -1377.771313 308.433804 
L -1369.723236 308.636369 
L -1361.675159 308.401442 
L -1353.627082 308.532332 
L -1345.579005 308.551186 
L -1337.530929 308.853577 
L -1329.482852 308.72191 
L -1321.434775 308.667235 
L -1313.386698 308.763709 
L -1305.338621 308.916558 
L -1297.290544 308.861652 
L -1289.242467 308.736712 
L -1281.19439 308.829229 
L -1273.146313 308.633218 
L -1265.098236 308.670451 
L -1257.050159 309.032581 
L -1249.002082 309.028097 
L -1240.954005 308.849053 
L -1232.905929 308.817153 
L -1224.857852 308.856397 
L -1216.809775 308.662515 
L -1208.761698 308.730469 
L -1200.713621 308.74726 
L -1192.665544 308.720235 
L -1184.617467 308.681517 
L -1176.56939 308.569582 
L -1168.521313 308.664849 
L -1160.473236 308.596295 
L -1152.425159 308.596395 
L -1144.377082 308.569436 
L -1136.329005 308.59379 
L -1128.280929 308.513363 
L -1120.232852 308.352504 
L -1112.184775 308.363833 
L -1104.136698 308.23597 
L -1096.088621 308.043088 
L -1088.040544 308.216179 
L -1079.992467 307.946854 
L -1071.94439 308.084695 
L -1063.896313 308.047269 
L -1055.848236 308.084499 
L -1047.800159 307.916041 
L -1039.752082 307.918725 
L -1031.704005 307.907849 
L -1023.655929 307.69261 
L -1015.607852 307.764329 
L -1007.559775 307.757724 
L -999.511698 307.761853 
L -991.463621 307.665012 
L -983.415544 307.728484 
L -975.367467 307.628254 
L -967.31939 307.531884 
L -959.271313 307.373417 
L -951.223236 307.329877 
L -943.175159 307.304438 
L -935.127082 307.196616 
L -927.079005 307.224245 
L -919.030929 307.176343 
L -910.982852 307.081054 
L -902.934775 307.094959 
L -894.886698 306.985096 
L -886.838621 307.093563 
L -878.790544 307.020283 
L -870.742467 307.03357 
L -862.69439 306.895236 
L -854.646313 306.70222 
L -846.598236 306.882623 
L -838.550159 306.885846 
L -830.502082 306.829077 
L -822.454005 306.769529 
L -814.405929 306.637204 
L -806.357852 306.613605 
L -798.309775 306.543684 
L -790.261698 306.562766 
L -782.213621 306.541197 
L -774.165544 306.414636 
L -766.117467 306.232074 
L -758.06939 306.485828 
L -750.021313 306.434824 
L -741.973236 306.280141 
L -733.925159 306.389762 
L -725.877082 306.109655 
L -717.829005 306.152177 
L -709.780929 306.17866 
L -701.732852 305.991845 
L -693.684775 306.332665 
L -685.636698 306.009529 
L -677.588621 305.850252 
L -669.540544 306.077422 
L -661.492467 306.14849 
L -653.44439 306.055485 
L -645.396313 306.153748 
L -637.348236 306.016267 
L -629.300159 306.330086 
L -621.252082 306.197026 
L -613.204005 306.277052 
L -605.155929 306.09541 
L -597.107852 305.934346 
L -589.059775 306.18772 
L -581.011698 306.625388 
L -572.963621 306.177181 
L -564.915544 306.227873 
L -556.867467 306.075293 
L -548.81939 306.182651 
L -540.771313 306.182941 
L -532.723236 306.097284 
L -524.675159 306.078555 
L -516.627082 306.30159 
L -508.579005 306.217525 
L -500.530929 306.422175 
L -492.482852 306.476349 
L -484.434775 305.959925 
L -476.386698 306.197087 
L -468.338621 306.231904 
L -460.290544 306.28429 
L -452.242467 306.330738 
L -444.19439 306.685266 
L -436.146313 306.834129 
L -428.098236 306.829697 
L -420.050159 307.216307 
L -412.002082 307.850413 
L -403.954005 307.116759 
L -395.905929 307.116178 
L -387.857852 307.138245 
L -379.809775 307.391295 
L -371.761698 307.454021 
L -363.713621 307.457827 
L -355.665544 308.00117 
L -347.617467 308.206154 
L -339.56939 307.603442 
L -331.521313 308.163417 
L -323.473236 307.899395 
L -315.425159 307.739008 
L -307.377082 308.420727 
L -299.329005 308.297589 
L -291.280929 308.744611 
L -283.232852 308.627099 
L -275.184775 308.350003 
L -267.136698 308.637402 
L -259.088621 308.654942 
L -251.040544 308.940492 
L -242.992467 308.79291 
L -234.94439 309.255583 
L -226.896313 308.959892 
L -218.848236 309.21327 
L -210.800159 309.188749 
L -202.752082 309.464342 
L -194.704005 309.072395 
L -186.655929 309.533735 
L -178.607852 309.529658 
L -170.559775 309.851972 
L -162.511698 310.032628 
L -154.463621 310.054646 
L -146.415544 309.998474 
L -138.367467 310.212001 
L -130.31939 310.377538 
L -122.271313 310.267437 
L -114.223236 310.239126 
L -106.175159 310.428671 
L -98.127082 310.602115 
L -90.079005 310.353878 
L -82.030929 310.21725 
L -73.982852 310.846368 
L -65.934775 311.140848 
L -57.886698 310.533433 
L -49.838621 310.734293 
L -41.790544 310.842996 
L -33.742467 310.903869 
L -25.69439 311.231899 
L -17.646313 311.204495 
L -9.598236 311.090111 
L -1.550159 311.238794 
L 6.497918 311.286869 
L 14.545995 310.96125 
L 22.594071 311.140584 
L 30.642148 311.04649 
L 38.690225 311.520644 
L 46.738302 312.100123 
L 54.786379 312.022962 
L 62.834456 311.574658 
L 70.882533 311.531066 
L 78.93061 311.599399 
L 86.978687 311.625689 
L 95.026764 312.053669 
L 103.074841 311.518547 
L 111.122918 312.090857 
L 119.170995 312.550164 
L 127.219071 312.171044 
L 135.267148 312.759509 
L 143.315225 312.393273 
L 151.363302 312.713488 
L 159.411379 312.501984 
L 167.459456 312.660999 
L 175.507533 312.975665 
L 183.55561 312.954269 
L 191.603687 313.05154 
L 199.651764 313.077416 
L 207.699841 313.110076 
L 215.747918 312.343241 
L 223.795995 313.334118 
L 231.844071 313.752129 
L 239.892148 313.34976 
L 247.940225 313.710415 
L 255.988302 313.816827 
L 264.036379 313.591308 
L 272.084456 314.036599 
L 280.132533 314.356938 
L 288.18061 314.169581 
L 296.228687 314.343395 
L 304.276764 314.447119 
L 312.324841 314.547195 
L 320.372918 314.894744 
L 328.420995 314.153325 
L 336.469071 315.15426 
L 344.517148 315.204093 
L 352.565225 315.272542 
L 360.613302 314.600324 
L 368.661379 315.466692 
L 376.709456 316.223068 
L 384.757533 315.561468 
L 392.80561 315.523957 
L 400.853687 316.981949 
L 408.901764 314.901644 
L 416.949841 316.778226 
L 424.997918 315.336254 
L 433.045995 317.63 
L 441.094071 316.613774 
L 449.142148 317.6331 
L 457.190225 317.946372 
L 465.238302 318.249286 
L 473.286379 318.397254 
L 481.334456 317.874952 
L 489.382533 318.0038 
L 497.43061 318.59093 
L 505.478687 319.271097 
L 513.526764 319.327762 
L 521.574841 319.282863 
L 529.622918 319.973277 
L 537.670995 319.993013 
L 545.719071 319.531735 
L 553.767148 319.485547 
L 561.815225 320.733382 
L 569.863302 320.851804 
L 577.911379 321.118218 
L 585.959456 320.515042 
L 594.007533 319.086211 
L 602.05561 320.642642 
L 610.103687 320.257964 
L 618.151764 320.665918 
L 626.199841 321.21346 
L 634.247918 320.513321 
L 642.295995 321.471235 
L 650.344071 320.718952 
L 658.392148 320.709565 
L 666.440225 320.807299 
L 674.488302 321.387049 
L 682.536379 321.346409 
L 690.584456 321.247521 
L 698.632533 320.672747 
L 706.68061 321.016363 
L 714.728687 321.278016 
L 722.776764 321.034505 
L 730.824841 321.508556 
L 738.872918 321.163914 
L 746.920995 321.480728 
L 754.969071 321.979048 
L 763.017148 321.922803 
L 771.065225 321.465591 
L 779.113302 321.497708 
L 787.161379 321.429686 
L 795.209456 321.66667 
L 803.257533 321.679149 
L 811.30561 320.917281 
L 819.353687 321.550484 
L 827.401764 317.912376 
L 835.449841 321.584005 
L 843.497918 321.848832 
L 851.545995 321.330654 
L 859.594071 320.791135 
L 867.642148 321.874966 
L 875.690225 321.410337 
L 883.738302 320.585753 
L 891.786379 321.129178 
L 899.834456 321.154166 
L 907.882533 320.938131 
L 915.93061 321.453546 
L 923.978687 321.089944 
L 932.026764 321.308467 
L 940.074841 321.469987 
L 940.074841 314.721279 
L 940.074841 314.721279 
L 932.026764 315.052309 
L 923.978687 314.909622 
L 915.93061 315.088004 
L 907.882533 314.883422 
L 899.834456 315.013804 
L 891.786379 314.943532 
L 883.738302 315.03651 
L 875.690225 315.336442 
L 867.642148 315.405027 
L 859.594071 315.246413 
L 851.545995 315.321163 
L 843.497918 315.648151 
L 835.449841 315.485732 
L 827.401764 314.926557 
L 819.353687 315.621046 
L 811.30561 315.543575 
L 803.257533 315.735972 
L 795.209456 315.781224 
L 787.161379 315.754883 
L 779.113302 315.883494 
L 771.065225 315.911218 
L 763.017148 316.079792 
L 754.969071 316.145689 
L 746.920995 316.084765 
L 738.872918 316.032193 
L 730.824841 316.122805 
L 722.776764 315.988807 
L 714.728687 316.09031 
L 706.68061 316.087384 
L 698.632533 316.022836 
L 690.584456 316.264091 
L 682.536379 316.329242 
L 674.488302 316.437571 
L 666.440225 316.199443 
L 658.392148 316.248533 
L 650.344071 316.313026 
L 642.295995 316.568856 
L 634.247918 316.286604 
L 626.199841 316.55547 
L 618.151764 316.391173 
L 610.103687 316.29501 
L 602.05561 316.450081 
L 594.007533 316.028028 
L 585.959456 316.443749 
L 577.911379 316.727296 
L 569.863302 316.663796 
L 561.815225 316.631003 
L 553.767148 316.311523 
L 545.719071 316.290682 
L 537.670995 316.475081 
L 529.622918 316.469439 
L 521.574841 316.257172 
L 513.526764 316.272615 
L 505.478687 316.319495 
L 497.43061 315.962757 
L 489.382533 315.856663 
L 481.334456 315.848374 
L 473.286379 316.057608 
L 465.238302 316.012849 
L 457.190225 315.863275 
L 449.142148 315.753557 
L 441.094071 315.40866 
L 433.045995 315.774427 
L 424.997918 314.911935 
L 416.949841 315.546854 
L 408.901764 314.219511 
L 400.853687 315.605689 
L 392.80561 315.054318 
L 384.757533 315.00864 
L 376.709456 315.407981 
L 368.661379 315.013419 
L 360.613302 313.643061 
L 352.565225 314.804101 
L 344.517148 314.787592 
L 336.469071 314.719664 
L 328.420995 312.817988 
L 320.372918 313.769255 
L 312.324841 313.528106 
L 304.276764 313.382026 
L 296.228687 313.15594 
L 288.18061 312.73806 
L 280.132533 313.123771 
L 272.084456 312.395584 
L 264.036379 311.486703 
L 255.988302 312.212373 
L 247.940225 311.611752 
L 239.892148 311.072277 
L 231.844071 311.909132 
L 223.795995 310.963559 
L 215.747918 308.559737 
L 207.699841 310.285294 
L 199.651764 310.19918 
L 191.603687 310.184903 
L 183.55561 309.953354 
L 175.507533 309.944224 
L 167.459456 309.273918 
L 159.411379 308.98471 
L 151.363302 309.467475 
L 143.315225 308.49987 
L 135.267148 309.446933 
L 127.219071 308.10903 
L 119.170995 308.841484 
L 111.122918 307.94085 
L 103.074841 306.828848 
L 95.026764 307.79941 
L 86.978687 306.821683 
L 78.93061 306.859517 
L 70.882533 306.789015 
L 62.834456 306.853176 
L 54.786379 307.724845 
L 46.738302 307.909695 
L 38.690225 306.795609 
L 30.642148 305.652191 
L 22.594071 305.927134 
L 14.545995 305.668404 
L 6.497918 306.329182 
L -1.550159 306.219692 
L -9.598236 305.900733 
L -17.646313 306.224697 
L -25.69439 306.157109 
L -33.742467 305.551125 
L -41.790544 305.577656 
L -49.838621 305.316286 
L -57.886698 305.003824 
L -65.934775 306.240738 
L -73.982852 305.478098 
L -82.030929 304.448217 
L -90.079005 304.878945 
L -98.127082 305.258765 
L -106.175159 304.935527 
L -114.223236 304.676502 
L -122.271313 304.800881 
L -130.31939 305.205913 
L -138.367467 304.67639 
L -146.415544 304.454561 
L -154.463621 304.608507 
L -162.511698 304.259927 
L -170.559775 304.313067 
L -178.607852 303.655986 
L -186.655929 303.835998 
L -194.704005 303.044524 
L -202.752082 303.647733 
L -210.800159 303.302066 
L -218.848236 303.438663 
L -226.896313 303.191593 
L -234.94439 303.545854 
L -242.992467 302.830597 
L -251.040544 303.215932 
L -259.088621 302.754772 
L -267.136698 302.803063 
L -275.184775 302.437628 
L -283.232852 302.582483 
L -291.280929 303.033345 
L -299.329005 302.541864 
L -307.377082 302.631332 
L -315.425159 301.69341 
L -323.473236 302.094603 
L -331.521313 302.288687 
L -339.56939 301.564186 
L -347.617467 302.332532 
L -355.665544 302.376408 
L -363.713621 301.466348 
L -371.761698 301.466759 
L -379.809775 301.387909 
L -387.857852 301.04997 
L -395.905929 301.255532 
L -403.954005 301.156847 
L -412.002082 302.189534 
L -420.050159 301.444144 
L -428.098236 300.888854 
L -436.146313 300.882732 
L -444.19439 300.704037 
L -452.242467 300.35859 
L -460.290544 300.451333 
L -468.338621 300.208453 
L -476.386698 300.427915 
L -484.434775 300.0836 
L -492.482852 300.657872 
L -500.530929 300.707909 
L -508.579005 300.536789 
L -516.627082 300.638857 
L -524.675159 300.375039 
L -532.723236 300.520041 
L -540.771313 300.588616 
L -548.81939 300.836022 
L -556.867467 300.570869 
L -564.915544 300.85278 
L -572.963621 300.75206 
L -581.011698 301.310967 
L -589.059775 300.873201 
L -597.107852 300.624097 
L -605.155929 300.845735 
L -613.204005 300.927717 
L -621.252082 300.905255 
L -629.300159 301.220173 
L -637.348236 300.891635 
L -645.396313 301.095518 
L -653.44439 300.956244 
L -661.492467 300.984913 
L -669.540544 300.858726 
L -677.588621 300.687829 
L -685.636698 300.941671 
L -693.684775 301.287974 
L -701.732852 300.886299 
L -709.780929 301.079942 
L -717.829005 300.962701 
L -725.877082 301.06445 
L -733.925159 301.328827 
L -741.973236 301.209536 
L -750.021313 301.421093 
L -758.06939 301.460144 
L -766.117467 301.175757 
L -774.165544 301.308489 
L -782.213621 301.458989 
L -790.261698 301.499168 
L -798.309775 301.470065 
L -806.357852 301.570728 
L -814.405929 301.528535 
L -822.454005 301.687667 
L -830.502082 301.71515 
L -838.550159 301.732748 
L -846.598236 301.750161 
L -854.646313 301.402263 
L -862.69439 301.737469 
L -870.742467 301.857032 
L -878.790544 301.792473 
L -886.838621 301.779649 
L -894.886698 301.757228 
L -902.934775 301.837514 
L -910.982852 301.777636 
L -919.030929 301.909714 
L -927.079005 301.938808 
L -935.127082 301.874321 
L -943.175159 301.904754 
L -951.223236 301.95503 
L -959.271313 302.007568 
L -967.31939 302.252286 
L -975.367467 302.286788 
L -983.415544 302.38815 
L -991.463621 302.288339 
L -999.511698 302.383771 
L -1007.559775 302.362093 
L -1015.607852 302.366761 
L -1023.655929 302.190846 
L -1031.704005 302.542141 
L -1039.752082 302.538245 
L -1047.800159 302.525324 
L -1055.848236 302.719038 
L -1063.896313 302.662347 
L -1071.94439 302.718176 
L -1079.992467 302.557935 
L -1088.040544 302.835425 
L -1096.088621 302.697033 
L -1104.136698 302.962884 
L -1112.184775 303.138551 
L -1120.232852 303.156567 
L -1128.280929 303.387993 
L -1136.329005 303.559073 
L -1144.377082 303.505642 
L -1152.425159 303.592797 
L -1160.473236 303.585218 
L -1168.521313 303.71497 
L -1176.56939 303.620165 
L -1184.617467 303.820011 
L -1192.665544 303.958977 
L -1200.713621 304.024683 
L -1208.761698 304.04755 
L -1216.809775 304.058441 
L -1224.857852 304.282963 
L -1232.905929 304.307292 
L -1240.954005 304.433673 
L -1249.002082 304.638367 
L -1257.050159 304.681133 
L -1265.098236 304.43365 
L -1273.146313 304.46845 
L -1281.19439 304.702265 
L -1289.242467 304.704324 
L -1297.290544 304.858352 
L -1305.338621 304.963094 
L -1313.386698 304.867398 
L -1321.434775 304.92369 
L -1329.482852 305.001654 
L -1337.530929 305.160758 
L -1345.579005 304.938546 
L -1353.627082 305.006154 
L -1361.675159 304.987906 
L -1369.723236 305.227454 
L -1377.771313 305.178288 
L -1385.81939 305.018615 
L -1393.867467 305.139683 
L -1401.915544 305.265541 
L -1409.963621 304.880154 
L -1418.011698 305.207624 
L -1426.059775 304.758802 
L -1434.107852 304.72848 
L -1442.155929 304.630643 
L -1450.204005 304.72453 
L -1458.252082 304.745909 
L -1466.300159 304.684886 
L -1474.348236 304.469421 
L -1482.396313 304.624283 
L -1490.44439 304.11246 
L -1498.492467 303.522011 
L -1506.540544 303.664336 
L -1514.588621 303.947886 
L -1522.636698 303.186467 
L -1530.684775 303.218801 
L -1538.732852 303.036454 
L -1546.780929 302.985974 
L -1554.829005 302.047559 
L -1562.877082 301.96745 
L -1570.925159 301.622047 
L -1578.973236 300.885819 
L -1587.021313 300.360564 
L -1595.06939 300.931281 
L -1603.117467 300.663115 
L -1611.165544 300.201389 
L -1619.213621 299.997047 
L -1627.261698 299.638661 
L -1635.309775 299.135083 
L -1643.357852 299.354359 
L -1651.405929 298.438955 
L -1659.454005 297.99163 
L -1667.502082 297.775785 
L -1675.550159 297.606857 
L -1683.598236 297.708894 
L -1691.646313 297.482451 
L -1699.69439 297.674302 
L -1707.742467 297.948699 
L -1715.790544 297.52892 
L -1723.838621 297.49463 
L -1731.886698 297.921638 
L -1739.934775 298.022438 
L -1747.982852 297.867414 
L -1756.030929 298.740695 
L -1764.079005 298.143291 
L -1772.127082 298.360236 
L -1780.175159 299.029726 
L -1788.223236 298.857115 
L -1796.271313 299.111202 
L -1804.31939 299.340164 
L -1812.367467 299.607471 
L -1820.415544 299.862266 
L -1828.463621 300.14913 
L -1836.511698 300.415431 
L -1844.559775 300.63525 
L -1852.607852 300.918614 
L -1860.655929 300.976917 
L -1868.704005 301.421252 
L -1876.752082 301.430513 
L -1884.800159 301.655178 
L -1892.848236 301.90566 
L -1900.896313 302.09487 
L -1908.94439 302.331995 
L -1916.992467 302.516838 
L -1925.040544 302.787978 
L -1933.088621 302.949984 
L -1941.136698 303.148927 
L -1949.184775 303.383079 
L -1957.232852 303.621947 
L -1965.280929 303.766217 
L -1973.329005 303.996821 
L -1981.377082 304.153006 
L -1989.425159 304.390199 
L -1997.473236 304.57327 
L -2005.521313 304.75532 
L -2013.56939 304.957259 
L -2021.617467 305.135908 
L -2029.665544 305.287247 
L -2037.713621 305.484422 
L -2045.761698 305.582843 
L -2053.809775 305.827034 
L -2061.857852 305.990658 
L -2069.905929 306.134381 
L -2077.954005 306.310778 
L -2086.002082 306.417128 
L -2094.050159 306.573046 
L -2102.098236 306.733105 
L -2110.146313 306.909766 
L -2118.19439 307.043811 
L -2126.242467 307.175605 
L -2134.290544 307.319757 
L -2142.338621 307.458211 
L -2150.386698 307.607659 
L -2158.434775 307.725879 
L -2166.482852 307.854948 
L -2174.530929 307.959323 
L -2182.579005 308.106276 
L -2190.627082 308.210686 
L -2198.675159 308.32977 
L -2206.723236 308.479573 
L -2214.771313 308.581289 
L -2222.81939 308.606484 
L -2230.867467 308.728458 
L -2238.915544 308.787665 
L -2246.963621 308.904994 
L -2255.011698 309.042589 
L -2263.059775 309.110083 
L -2271.107852 309.172823 
L -2279.155929 309.179786 
L -2287.204005 309.245947 
L -2295.252082 309.282526 
L -2303.300159 309.322579 
L -2311.348236 309.418843 
L -2319.396313 309.471877 
L -2327.44439 309.551195 
L -2335.492467 309.494653 
L -2343.540544 309.535099 
L -2351.588621 309.450744 
L -2359.636698 309.563639 
L -2367.684775 309.574628 
L -2375.732852 309.655369 
L -2383.780929 309.461255 
L -2391.829005 309.680927 
L -2399.877082 309.656029 
L -2407.925159 309.51963 
L -2415.973236 309.480386 
L -2424.021313 309.591014 
L -2432.06939 309.786802 
L -2440.117467 309.701937 
L -2448.165544 309.691534 
L -2456.213621 309.481808 
L -2464.261698 309.473401 
L -2472.309775 309.526032 
L -2480.357852 309.644456 
L -2488.405929 309.597843 
L -2496.454005 309.566136 
L -2504.502082 309.579956 
L -2512.550159 309.65043 
L -2520.598236 309.626958 
L -2528.646313 309.669653 
L -2536.69439 309.744491 
L -2544.742467 309.682268 
L -2552.790544 309.793489 
L -2560.838621 309.806055 
L -2568.886698 309.814837 
L -2576.934775 309.883453 
L -2584.982852 309.89691 
L -2593.030929 309.973768 
L -2601.079005 310.058277 
L -2609.127082 310.054866 
L -2617.175159 310.01408 
L -2625.223236 309.983632 
L -2633.271313 310.168474 
L -2641.31939 310.131383 
L -2649.367467 310.254355 
L -2657.415544 310.252601 
L -2665.463621 310.19985 
L -2673.511698 310.321877 
L -2681.559775 310.20113 
L -2689.607852 310.203525 
L -2697.655929 310.35989 
L -2705.704005 310.241593 
L -2713.752082 310.389391 
L -2721.800159 310.434771 
L -2729.848236 310.304536 
L -2737.896313 309.896677 
L -2745.94439 310.153182 
L -2753.992467 310.026733 
L -2762.040544 309.421821 
L -2770.088621 309.933317 
L -2778.136698 310.036812 
L -2786.184775 309.477634 
L -2794.232852 309.32335 
L -2802.280929 309.620636 
L -2810.329005 309.014945 
L -2818.377082 307.969083 
L -2826.425159 309.1216 
L -2834.473236 309.581297 
L -2842.521313 309.809069 
L -2850.56939 308.365522 
L -2858.617467 308.426889 
L -2866.665544 307.695653 
L -2874.713621 307.127194 
L -2882.761698 308.277395 
L -2890.809775 307.789585 
L -2898.857852 306.766649 
L -2906.905929 306.046335 
L -2914.954005 306.095004 
L -2923.002082 306.225289 
L -2931.050159 306.076923 
L -2939.098236 305.990733 
L -2947.146313 306.41047 
L -2955.19439 306.365871 
L -2963.242467 306.101746 
L -2971.290544 306.273246 
L -2979.338621 306.166874 
L -2987.386698 306.130303 
L -2995.434775 306.148362 
L -3003.482852 306.317545 
L -3011.530929 306.421771 
L -3019.579005 306.484445 
L -3027.627082 306.631845 
L -3035.675159 306.70464 
L -3043.723236 306.825295 
L -3051.771313 307.011511 
L -3059.81939 307.161076 
L -3067.867467 307.2639 
L -3075.915544 307.3784 
L -3083.963621 307.525992 
L -3092.011698 307.621202 
L -3100.059775 307.761781 
L -3108.107852 307.931065 
L -3116.155929 308.034314 
L -3124.204005 308.106678 
L -3132.252082 308.212936 
L -3140.300159 308.322621 
L -3148.348236 308.422735 
L -3156.396313 308.518564 
L -3164.44439 308.610067 
L -3172.492467 308.733591 
L -3180.540544 308.799316 
L -3188.588621 308.890422 
L -3196.636698 308.985926 
L -3204.684775 309.068079 
L -3212.732852 309.149108 
L -3220.780929 309.217724 
L -3228.829005 309.292169 
L -3236.877082 309.387653 
L -3244.925159 309.455034 
L -3252.973236 309.533344 
L -3261.021313 309.597228 
L -3269.06939 309.668279 
L -3277.117467 309.741087 
L -3285.165544 309.815141 
L -3293.213621 309.87767 
L -3301.261698 309.950942 
L -3309.309775 310.015112 
L -3317.357852 310.08259 
L -3325.405929 310.145455 
L -3333.454005 310.210259 
L -3341.502082 310.270753 
L -3349.550159 310.335065 
L -3357.598236 310.40365 
L -3365.646313 310.457127 
L -3373.69439 310.522068 
L -3381.742467 310.578967 
L -3389.790544 310.643656 
L -3397.838621 310.690867 
L -3405.886698 310.750377 
L -3413.934775 310.807091 
L -3421.982852 310.861104 
L -3430.030929 310.916043 
L -3438.079005 310.966901 
L -3446.127082 311.026096 
L -3454.175159 311.079432 
L -3462.223236 311.123498 
L -3470.271313 311.175727 
L -3478.31939 311.227895 
L -3486.367467 311.279828 
L -3494.415544 311.329982 
L -3502.463621 311.376817 
L -3510.511698 311.428318 
L -3518.559775 311.478849 
L -3526.607852 311.529661 
L -3534.655929 311.580329 
L -3542.704005 311.632374 
L -3550.752082 311.686467 
L -3558.800159 311.733242 
L -3566.848236 311.786682 
L -3574.896313 311.839159 
L -3582.94439 311.889615 
L -3590.992467 311.941673 
L -3599.040544 311.994805 
L -3607.088621 312.046424 
L -3615.136698 312.100571 
L -3623.184775 312.150096 
L -3631.232852 312.200625 
L -3639.280929 312.253996 
L -3647.329005 312.305627 
L -3655.377082 312.354726 
L -3663.425159 312.406654 
L -3671.473236 312.454222 
L -3679.521313 312.50502 
L -3687.56939 312.55908 
L -3695.617467 312.605723 
L -3703.665544 312.65779 
L -3711.713621 312.707201 
L -3719.761698 312.758982 
L -3727.809775 312.806033 
L -3735.857852 312.860804 
L -3743.905929 312.906478 
L -3751.954005 312.957528 
L -3760.002082 313.007525 
L -3768.050159 313.058762 
L -3776.098236 313.107541 
L -3784.146313 313.157203 
L -3792.19439 313.207062 
L -3800.242467 313.258541 
L -3808.290544 313.306465 
L -3816.338621 313.352248 
L -3824.386698 313.397883 
L -3832.434775 313.443227 
L -3840.482852 313.487048 
L -3848.530929 313.531547 
L -3856.579005 313.575491 
L -3864.627082 313.61749 
L -3872.675159 313.659919 
L -3880.723236 313.702088 
L -3888.771313 313.740564 
L -3896.81939 313.779623 
L -3904.867467 313.820255 
L -3912.915544 313.858778 
L -3920.963621 313.89335 
L -3929.011698 313.931243 
L -3937.059775 313.965942 
L -3945.107852 313.997975 
L -3953.155929 314.029968 
L -3961.204005 314.059919 
L -3969.252082 314.092059 
L -3977.300159 314.118779 
L -3985.348236 314.146893 
L -3993.396313 314.173377 
L -4001.44439 314.197956 
L -4009.492467 314.220406 
L -4017.540544 314.240862 
L -4025.588621 314.261152 
L -4033.636698 314.281239 
L -4041.684775 314.297984 
L -4049.732852 314.316572 
L -4057.780929 314.332403 
L -4065.829005 314.346123 
L -4073.877082 314.362066 
L -4081.925159 314.376079 
L -4089.973236 314.38777 
L -4098.021313 314.400255 
L -4106.06939 314.412392 
L -4114.117467 314.423117 
L -4122.165544 314.433864 
L -4130.213621 314.442831 
L -4138.261698 314.453549 
L -4146.309775 314.462165 
L -4154.357852 314.471186 
L -4162.405929 314.48062 
L -4170.454005 314.488391 
L -4178.502082 314.496589 
L -4186.550159 314.50717 
L -4194.598236 314.514757 
L -4202.646313 314.523953 
L -4210.69439 314.531306 
L -4218.742467 314.540957 
L -4226.790544 314.54866 
L -4234.838621 314.556739 
L -4242.886698 314.563843 
L -4250.934775 314.570277 
L -4258.982852 314.577609 
L -4267.030929 314.585574 
L -4275.079005 314.593331 
L -4283.127082 314.600002 
L -4291.175159 314.605419 
L -4299.223236 314.613086 
L -4307.271313 314.619417 
L -4315.31939 314.626991 
z
" clip-path="url(#p92f400be19)" style="fill: #008000; fill-opacity: 0.3; stroke: #008000; stroke-opacity: 0.3"/>
   </g>
   <g id="matplotlib.axis_1">
    <g id="xtick_1">
     <g id="line2d_1">
      <defs>
       <path id="maa34365722" d="M 0 0 
L 0 3.5 
" style="stroke: #000000; stroke-width: 0.8"/>
      </defs>
      <g>
       <use xlink:href="#maa34365722" x="103.074841" y="395.28" style="stroke: #000000; stroke-width: 0.8"/>
      </g>
     </g>
     <g id="text_1">
      <!-- 2023-01-01 -->
      <g transform="translate(17.945813 495.213718) rotate(-45) scale(0.2 -0.2)">
       <defs>
        <path id="DejaVuSans-32" d="M 1228 531 
L 3431 531 
L 3431 0 
L 469 0 
L 469 531 
Q 828 903 1448 1529 
Q 2069 2156 2228 2338 
Q 2531 2678 2651 2914 
Q 2772 3150 2772 3378 
Q 2772 3750 2511 3984 
Q 2250 4219 1831 4219 
Q 1534 4219 1204 4116 
Q 875 4013 500 3803 
L 500 4441 
Q 881 4594 1212 4672 
Q 1544 4750 1819 4750 
Q 2544 4750 2975 4387 
Q 3406 4025 3406 3419 
Q 3406 3131 3298 2873 
Q 3191 2616 2906 2266 
Q 2828 2175 2409 1742 
Q 1991 1309 1228 531 
z
" transform="scale(0.015625)"/>
        <path id="DejaVuSans-30" d="M 2034 4250 
Q 1547 4250 1301 3770 
Q 1056 3291 1056 2328 
Q 1056 1369 1301 889 
Q 1547 409 2034 409 
Q 2525 409 2770 889 
Q 3016 1369 3016 2328 
Q 3016 3291 2770 3770 
Q 2525 4250 2034 4250 
z
M 2034 4750 
Q 2819 4750 3233 4129 
Q 3647 3509 3647 2328 
Q 3647 1150 3233 529 
Q 2819 -91 2034 -91 
Q 1250 -91 836 529 
Q 422 1150 422 2328 
Q 422 3509 836 4129 
Q 1250 4750 2034 4750 
z
" transform="scale(0.015625)"/>
        <path id="DejaVuSans-33" d="M 2597 2516 
Q 3050 2419 3304 2112 
Q 3559 1806 3559 1356 
Q 3559 666 3084 287 
Q 2609 -91 1734 -91 
Q 1441 -91 1130 -33 
Q 819 25 488 141 
L 488 750 
Q 750 597 1062 519 
Q 1375 441 1716 441 
Q 2309 441 2620 675 
Q 2931 909 2931 1356 
Q 2931 1769 2642 2001 
Q 2353 2234 1838 2234 
L 1294 2234 
L 1294 2753 
L 1863 2753 
Q 2328 2753 2575 2939 
Q 2822 3125 2822 3475 
Q 2822 3834 2567 4026 
Q 2313 4219 1838 4219 
Q 1578 4219 1281 4162 
Q 984 4106 628 3988 
L 628 4550 
Q 988 4650 1302 4700 
Q 1616 4750 1894 4750 
Q 2613 4750 3031 4423 
Q 3450 4097 3450 3541 
Q 3450 3153 3228 2886 
Q 3006 2619 2597 2516 
z
" transform="scale(0.015625)"/>
        <path id="DejaVuSans-2d" d="M 313 2009 
L 1997 2009 
L 1997 1497 
L 313 1497 
L 313 2009 
z
" transform="scale(0.015625)"/>
        <path id="DejaVuSans-31" d="M 794 531 
L 1825 531 
L 1825 4091 
L 703 3866 
L 703 4441 
L 1819 4666 
L 2450 4666 
L 2450 531 
L 3481 531 
L 3481 0 
L 794 0 
L 794 531 
z
" transform="scale(0.015625)"/>
       </defs>
       <use xlink:href="#DejaVuSans-32"/>
       <use xlink:href="#DejaVuSans-30" x="63.623047"/>
       <use xlink:href="#DejaVuSans-32" x="127.246094"/>
       <use xlink:href="#DejaVuSans-33" x="190.869141"/>
       <use xlink:href="#DejaVuSans-2d" x="254.492188"/>
       <use xlink:href="#DejaVuSans-30" x="290.576172"/>
       <use xlink:href="#DejaVuSans-31" x="354.199219"/>
       <use xlink:href="#DejaVuSans-2d" x="417.822266"/>
       <use xlink:href="#DejaVuSans-30" x="453.90625"/>
       <use xlink:href="#DejaVuSans-31" x="517.529297"/>
      </g>
     </g>
    </g>
    <g id="xtick_2">
     <g id="line2d_2">
      <g>
       <use xlink:href="#maa34365722" x="215.747918" y="395.28" style="stroke: #000000; stroke-width: 0.8"/>
      </g>
     </g>
     <g id="text_2">
      <!-- 2023-01-15 -->
      <g transform="translate(130.61889 495.213718) rotate(-45) scale(0.2 -0.2)">
       <defs>
        <path id="DejaVuSans-35" d="M 691 4666 
L 3169 4666 
L 3169 4134 
L 1269 4134 
L 1269 2991 
Q 1406 3038 1543 3061 
Q 1681 3084 1819 3084 
Q 2600 3084 3056 2656 
Q 3513 2228 3513 1497 
Q 3513 744 3044 326 
Q 2575 -91 1722 -91 
Q 1428 -91 1123 -41 
Q 819 9 494 109 
L 494 744 
Q 775 591 1075 516 
Q 1375 441 1709 441 
Q 2250 441 2565 725 
Q 2881 1009 2881 1497 
Q 2881 1984 2565 2268 
Q 2250 2553 1709 2553 
Q 1456 2553 1204 2497 
Q 953 2441 691 2322 
L 691 4666 
z
" transform="scale(0.015625)"/>
       </defs>
       <use xlink:href="#DejaVuSans-32"/>
       <use xlink:href="#DejaVuSans-30" x="63.623047"/>
       <use xlink:href="#DejaVuSans-32" x="127.246094"/>
       <use xlink:href="#DejaVuSans-33" x="190.869141"/>
       <use xlink:href="#DejaVuSans-2d" x="254.492188"/>
       <use xlink:href="#DejaVuSans-30" x="290.576172"/>
       <use xlink:href="#DejaVuSans-31" x="354.199219"/>
       <use xlink:href="#DejaVuSans-2d" x="417.822266"/>
       <use xlink:href="#DejaVuSans-31" x="453.90625"/>
       <use xlink:href="#DejaVuSans-35" x="517.529297"/>
      </g>
     </g>
    </g>
    <g id="xtick_3">
     <g id="line2d_3">
      <g>
       <use xlink:href="#maa34365722" x="328.420995" y="395.28" style="stroke: #000000; stroke-width: 0.8"/>
      </g>
     </g>
     <g id="text_3">
      <!-- 2023-01-29 -->
      <g transform="translate(243.291967 495.213718) rotate(-45) scale(0.2 -0.2)">
       <defs>
        <path id="DejaVuSans-39" d="M 703 97 
L 703 672 
Q 941 559 1184 500 
Q 1428 441 1663 441 
Q 2288 441 2617 861 
Q 2947 1281 2994 2138 
Q 2813 1869 2534 1725 
Q 2256 1581 1919 1581 
Q 1219 1581 811 2004 
Q 403 2428 403 3163 
Q 403 3881 828 4315 
Q 1253 4750 1959 4750 
Q 2769 4750 3195 4129 
Q 3622 3509 3622 2328 
Q 3622 1225 3098 567 
Q 2575 -91 1691 -91 
Q 1453 -91 1209 -44 
Q 966 3 703 97 
z
M 1959 2075 
Q 2384 2075 2632 2365 
Q 2881 2656 2881 3163 
Q 2881 3666 2632 3958 
Q 2384 4250 1959 4250 
Q 1534 4250 1286 3958 
Q 1038 3666 1038 3163 
Q 1038 2656 1286 2365 
Q 1534 2075 1959 2075 
z
" transform="scale(0.015625)"/>
       </defs>
       <use xlink:href="#DejaVuSans-32"/>
       <use xlink:href="#DejaVuSans-30" x="63.623047"/>
       <use xlink:href="#DejaVuSans-32" x="127.246094"/>
       <use xlink:href="#DejaVuSans-33" x="190.869141"/>
       <use xlink:href="#DejaVuSans-2d" x="254.492188"/>
       <use xlink:href="#DejaVuSans-30" x="290.576172"/>
       <use xlink:href="#DejaVuSans-31" x="354.199219"/>
       <use xlink:href="#DejaVuSans-2d" x="417.822266"/>
       <use xlink:href="#DejaVuSans-32" x="453.90625"/>
       <use xlink:href="#DejaVuSans-39" x="517.529297"/>
      </g>
     </g>
    </g>
    <g id="xtick_4">
     <g id="line2d_4">
      <g>
       <use xlink:href="#maa34365722" x="441.094071" y="395.28" style="stroke: #000000; stroke-width: 0.8"/>
      </g>
     </g>
     <g id="text_4">
      <!-- 2023-02-12 -->
      <g transform="translate(355.965044 495.213718) rotate(-45) scale(0.2 -0.2)">
       <use xlink:href="#DejaVuSans-32"/>
       <use xlink:href="#DejaVuSans-30" x="63.623047"/>
       <use xlink:href="#DejaVuSans-32" x="127.246094"/>
       <use xlink:href="#DejaVuSans-33" x="190.869141"/>
       <use xlink:href="#DejaVuSans-2d" x="254.492188"/>
       <use xlink:href="#DejaVuSans-30" x="290.576172"/>
       <use xlink:href="#DejaVuSans-32" x="354.199219"/>
       <use xlink:href="#DejaVuSans-2d" x="417.822266"/>
       <use xlink:href="#DejaVuSans-31" x="453.90625"/>
       <use xlink:href="#DejaVuSans-32" x="517.529297"/>
      </g>
     </g>
    </g>
    <g id="xtick_5">
     <g id="line2d_5">
      <g>
       <use xlink:href="#maa34365722" x="553.767148" y="395.28" style="stroke: #000000; stroke-width: 0.8"/>
      </g>
     </g>
     <g id="text_5">
      <!-- 2023-02-26 -->
      <g transform="translate(468.638121 495.213718) rotate(-45) scale(0.2 -0.2)">
       <defs>
        <path id="DejaVuSans-36" d="M 2113 2584 
Q 1688 2584 1439 2293 
Q 1191 2003 1191 1497 
Q 1191 994 1439 701 
Q 1688 409 2113 409 
Q 2538 409 2786 701 
Q 3034 994 3034 1497 
Q 3034 2003 2786 2293 
Q 2538 2584 2113 2584 
z
M 3366 4563 
L 3366 3988 
Q 3128 4100 2886 4159 
Q 2644 4219 2406 4219 
Q 1781 4219 1451 3797 
Q 1122 3375 1075 2522 
Q 1259 2794 1537 2939 
Q 1816 3084 2150 3084 
Q 2853 3084 3261 2657 
Q 3669 2231 3669 1497 
Q 3669 778 3244 343 
Q 2819 -91 2113 -91 
Q 1303 -91 875 529 
Q 447 1150 447 2328 
Q 447 3434 972 4092 
Q 1497 4750 2381 4750 
Q 2619 4750 2861 4703 
Q 3103 4656 3366 4563 
z
" transform="scale(0.015625)"/>
       </defs>
       <use xlink:href="#DejaVuSans-32"/>
       <use xlink:href="#DejaVuSans-30" x="63.623047"/>
       <use xlink:href="#DejaVuSans-32" x="127.246094"/>
       <use xlink:href="#DejaVuSans-33" x="190.869141"/>
       <use xlink:href="#DejaVuSans-2d" x="254.492188"/>
       <use xlink:href="#DejaVuSans-30" x="290.576172"/>
       <use xlink:href="#DejaVuSans-32" x="354.199219"/>
       <use xlink:href="#DejaVuSans-2d" x="417.822266"/>
       <use xlink:href="#DejaVuSans-32" x="453.90625"/>
       <use xlink:href="#DejaVuSans-36" x="517.529297"/>
      </g>
     </g>
    </g>
    <g id="xtick_6">
     <g id="line2d_6">
      <g>
       <use xlink:href="#maa34365722" x="666.440225" y="395.28" style="stroke: #000000; stroke-width: 0.8"/>
      </g>
     </g>
     <g id="text_6">
      <!-- 2023-03-12 -->
      <g transform="translate(581.311198 495.213718) rotate(-45) scale(0.2 -0.2)">
       <use xlink:href="#DejaVuSans-32"/>
       <use xlink:href="#DejaVuSans-30" x="63.623047"/>
       <use xlink:href="#DejaVuSans-32" x="127.246094"/>
       <use xlink:href="#DejaVuSans-33" x="190.869141"/>
       <use xlink:href="#DejaVuSans-2d" x="254.492188"/>
       <use xlink:href="#DejaVuSans-30" x="290.576172"/>
       <use xlink:href="#DejaVuSans-33" x="354.199219"/>
       <use xlink:href="#DejaVuSans-2d" x="417.822266"/>
       <use xlink:href="#DejaVuSans-31" x="453.90625"/>
       <use xlink:href="#DejaVuSans-32" x="517.529297"/>
      </g>
     </g>
    </g>
    <g id="xtick_7">
     <g id="line2d_7">
      <g>
       <use xlink:href="#maa34365722" x="779.113302" y="395.28" style="stroke: #000000; stroke-width: 0.8"/>
      </g>
     </g>
     <g id="text_7">
      <!-- 2023-03-26 -->
      <g transform="translate(693.984275 495.213718) rotate(-45) scale(0.2 -0.2)">
       <use xlink:href="#DejaVuSans-32"/>
       <use xlink:href="#DejaVuSans-30" x="63.623047"/>
       <use xlink:href="#DejaVuSans-32" x="127.246094"/>
       <use xlink:href="#DejaVuSans-33" x="190.869141"/>
       <use xlink:href="#DejaVuSans-2d" x="254.492188"/>
       <use xlink:href="#DejaVuSans-30" x="290.576172"/>
       <use xlink:href="#DejaVuSans-33" x="354.199219"/>
       <use xlink:href="#DejaVuSans-2d" x="417.822266"/>
       <use xlink:href="#DejaVuSans-32" x="453.90625"/>
       <use xlink:href="#DejaVuSans-36" x="517.529297"/>
      </g>
     </g>
    </g>
    <g id="xtick_8">
     <g id="line2d_8">
      <g>
       <use xlink:href="#maa34365722" x="891.786379" y="395.28" style="stroke: #000000; stroke-width: 0.8"/>
      </g>
     </g>
     <g id="text_8">
      <!-- 2023-04-09 -->
      <g transform="translate(806.657352 495.213718) rotate(-45) scale(0.2 -0.2)">
       <defs>
        <path id="DejaVuSans-34" d="M 2419 4116 
L 825 1625 
L 2419 1625 
L 2419 4116 
z
M 2253 4666 
L 3047 4666 
L 3047 1625 
L 3713 1625 
L 3713 1100 
L 3047 1100 
L 3047 0 
L 2419 0 
L 2419 1100 
L 313 1100 
L 313 1709 
L 2253 4666 
z
" transform="scale(0.015625)"/>
       </defs>
       <use xlink:href="#DejaVuSans-32"/>
       <use xlink:href="#DejaVuSans-30" x="63.623047"/>
       <use xlink:href="#DejaVuSans-32" x="127.246094"/>
       <use xlink:href="#DejaVuSans-33" x="190.869141"/>
       <use xlink:href="#DejaVuSans-2d" x="254.492188"/>
       <use xlink:href="#DejaVuSans-30" x="290.576172"/>
       <use xlink:href="#DejaVuSans-34" x="354.199219"/>
       <use xlink:href="#DejaVuSans-2d" x="417.822266"/>
       <use xlink:href="#DejaVuSans-30" x="453.90625"/>
       <use xlink:href="#DejaVuSans-39" x="517.529297"/>
      </g>
     </g>
    </g>
    <g id="xtick_9">
     <g id="line2d_9">
      <g>
       <use xlink:href="#maa34365722" x="940.074841" y="395.28" style="stroke: #000000; stroke-width: 0.8"/>
      </g>
     </g>
     <g id="text_9">
      <!-- 2023-04-15 -->
      <g transform="translate(854.945813 495.213718) rotate(-45) scale(0.2 -0.2)">
       <use xlink:href="#DejaVuSans-32"/>
       <use xlink:href="#DejaVuSans-30" x="63.623047"/>
       <use xlink:href="#DejaVuSans-32" x="127.246094"/>
       <use xlink:href="#DejaVuSans-33" x="190.869141"/>
       <use xlink:href="#DejaVuSans-2d" x="254.492188"/>
       <use xlink:href="#DejaVuSans-30" x="290.576172"/>
       <use xlink:href="#DejaVuSans-34" x="354.199219"/>
       <use xlink:href="#DejaVuSans-2d" x="417.822266"/>
       <use xlink:href="#DejaVuSans-31" x="453.90625"/>
       <use xlink:href="#DejaVuSans-35" x="517.529297"/>
      </g>
     </g>
    </g>
   </g>
   <g id="matplotlib.axis_2">
    <g id="ytick_1">
     <g id="line2d_10">
      <defs>
       <path id="mb464443a4f" d="M 0 0 
L -3.5 0 
" style="stroke: #000000; stroke-width: 0.8"/>
      </defs>
      <g>
       <use xlink:href="#mb464443a4f" x="103.074841" y="368.257471" style="stroke: #000000; stroke-width: 0.8"/>
      </g>
     </g>
     <g id="text_10">
      <!-- −0.5 -->
      <g transform="translate(47.509216 375.855909) scale(0.2 -0.2)">
       <defs>
        <path id="DejaVuSans-2212" d="M 678 2272 
L 4684 2272 
L 4684 1741 
L 678 1741 
L 678 2272 
z
" transform="scale(0.015625)"/>
        <path id="DejaVuSans-2e" d="M 684 794 
L 1344 794 
L 1344 0 
L 684 0 
L 684 794 
z
" transform="scale(0.015625)"/>
       </defs>
       <use xlink:href="#DejaVuSans-2212"/>
       <use xlink:href="#DejaVuSans-30" x="83.789062"/>
       <use xlink:href="#DejaVuSans-2e" x="147.412109"/>
       <use xlink:href="#DejaVuSans-35" x="179.199219"/>
      </g>
     </g>
    </g>
    <g id="ytick_2">
     <g id="line2d_11">
      <g>
       <use xlink:href="#mb464443a4f" x="103.074841" y="314.634145" style="stroke: #000000; stroke-width: 0.8"/>
      </g>
     </g>
     <g id="text_11">
      <!-- 0.0 -->
      <g transform="translate(64.268591 322.232583) scale(0.2 -0.2)">
       <use xlink:href="#DejaVuSans-30"/>
       <use xlink:href="#DejaVuSans-2e" x="63.623047"/>
       <use xlink:href="#DejaVuSans-30" x="95.410156"/>
      </g>
     </g>
    </g>
    <g id="ytick_3">
     <g id="line2d_12">
      <g>
       <use xlink:href="#mb464443a4f" x="103.074841" y="261.010819" style="stroke: #000000; stroke-width: 0.8"/>
      </g>
     </g>
     <g id="text_12">
      <!-- 0.5 -->
      <g transform="translate(64.268591 268.609257) scale(0.2 -0.2)">
       <use xlink:href="#DejaVuSans-30"/>
       <use xlink:href="#DejaVuSans-2e" x="63.623047"/>
       <use xlink:href="#DejaVuSans-35" x="95.410156"/>
      </g>
     </g>
    </g>
    <g id="ytick_4">
     <g id="line2d_13">
      <g>
       <use xlink:href="#mb464443a4f" x="103.074841" y="207.387493" style="stroke: #000000; stroke-width: 0.8"/>
      </g>
     </g>
     <g id="text_13">
      <!-- 1.0 -->
      <g transform="translate(64.268591 214.985931) scale(0.2 -0.2)">
       <use xlink:href="#DejaVuSans-31"/>
       <use xlink:href="#DejaVuSans-2e" x="63.623047"/>
       <use xlink:href="#DejaVuSans-30" x="95.410156"/>
      </g>
     </g>
    </g>
    <g id="ytick_5">
     <g id="line2d_14">
      <g>
       <use xlink:href="#mb464443a4f" x="103.074841" y="153.764167" style="stroke: #000000; stroke-width: 0.8"/>
      </g>
     </g>
     <g id="text_14">
      <!-- 1.5 -->
      <g transform="translate(64.268591 161.362604) scale(0.2 -0.2)">
       <use xlink:href="#DejaVuSans-31"/>
       <use xlink:href="#DejaVuSans-2e" x="63.623047"/>
       <use xlink:href="#DejaVuSans-35" x="95.410156"/>
      </g>
     </g>
    </g>
    <g id="ytick_6">
     <g id="line2d_15">
      <g>
       <use xlink:href="#mb464443a4f" x="103.074841" y="100.140841" style="stroke: #000000; stroke-width: 0.8"/>
      </g>
     </g>
     <g id="text_15">
      <!-- 2.0 -->
      <g transform="translate(64.268591 107.739278) scale(0.2 -0.2)">
       <use xlink:href="#DejaVuSans-32"/>
       <use xlink:href="#DejaVuSans-2e" x="63.623047"/>
       <use xlink:href="#DejaVuSans-30" x="95.410156"/>
      </g>
     </g>
    </g>
    <g id="ytick_7">
     <g id="line2d_16">
      <g>
       <use xlink:href="#mb464443a4f" x="103.074841" y="46.517515" style="stroke: #000000; stroke-width: 0.8"/>
      </g>
     </g>
     <g id="text_16">
      <!-- 2.5 -->
      <g transform="translate(64.268591 54.115952) scale(0.2 -0.2)">
       <use xlink:href="#DejaVuSans-32"/>
       <use xlink:href="#DejaVuSans-2e" x="63.623047"/>
       <use xlink:href="#DejaVuSans-35" x="95.410156"/>
      </g>
     </g>
    </g>
   </g>
   <g id="line2d_17">
    <path d="M -1 318.649961 
L 6.497918 314.634145 
L 14.545995 328.841988 
L 22.594071 344.811616 
L 30.642148 268.140815 
L 38.690225 241.976635 
L 46.738302 314.634145 
L 62.834456 314.634145 
L 70.882533 324.411841 
L 78.93061 314.634145 
L 95.026764 314.634145 
L 103.074841 301.57388 
L 111.122918 310.133347 
L 119.170995 325.888861 
L 127.219071 314.634145 
L 143.315225 314.634145 
L 151.363302 349.255362 
L 159.411379 366.778623 
L 167.459456 314.634145 
L 215.747918 314.634145 
L 223.795995 350.513965 
L 231.844071 377.64 
L 239.892148 314.634145 
L 272.084456 314.634145 
M 408.901764 314.634145 
L 513.526764 314.634145 
M 940.074841 314.634145 
" clip-path="url(#p92f400be19)" style="fill: none; stroke: #ffa500; stroke-width: 1.5; stroke-linecap: square"/>
   </g>
   <g id="line2d_18">
    <path d="M 103.074841 314.634145 
L 948.274841 314.634145 
" clip-path="url(#p92f400be19)" style="fill: none; stroke-dasharray: 7.4,3.2; stroke-dashoffset: 0; stroke: #000000; stroke-width: 2"/>
   </g>
   <g id="patch_3">
    <path d="M 103.074841 395.28 
L 103.074841 7.2 
" style="fill: none; stroke: #000000; stroke-width: 0.8; stroke-linejoin: miter; stroke-linecap: square"/>
   </g>
   <g id="patch_4">
    <path d="M 940.074841 395.28 
L 940.074841 7.2 
" style="fill: none; stroke: #000000; stroke-width: 0.8; stroke-linejoin: miter; stroke-linecap: square"/>
   </g>
   <g id="patch_5">
    <path d="M 103.074841 395.28 
L 940.074841 395.28 
" style="fill: none; stroke: #000000; stroke-width: 0.8; stroke-linejoin: miter; stroke-linecap: square"/>
   </g>
   <g id="patch_6">
    <path d="M 103.074841 7.2 
L 940.074841 7.2 
" style="fill: none; stroke: #000000; stroke-width: 0.8; stroke-linejoin: miter; stroke-linecap: square"/>
   </g>
  </g>
 </g>
 <defs>
  <clipPath id="p92f400be19">
   <rect x="103.074841" y="7.2" width="837" height="388.08"/>
  </clipPath>
 </defs>
</svg>
