<?xml version="1.0" encoding="utf-8" standalone="no"?>
<!DOCTYPE svg PUBLIC "-//W3C//DTD SVG 1.1//EN"
  "http://www.w3.org/Graphics/SVG/1.1/DTD/svg11.dtd">
<svg xmlns:xlink="http://www.w3.org/1999/xlink" width="947.274841pt" height="505.354841pt" viewBox="0 0 947.274841 505.354841" xmlns="http://www.w3.org/2000/svg" version="1.1">
 <metadata>
  <rdf:RDF xmlns:dc="http://purl.org/dc/elements/1.1/" xmlns:cc="http://creativecommons.org/ns#" xmlns:rdf="http://www.w3.org/1999/02/22-rdf-syntax-ns#">
   <cc:Work>
    <dc:type rdf:resource="http://purl.org/dc/dcmitype/StillImage"/>
    <dc:date>2023-11-15T18:16:45.810094</dc:date>
    <dc:format>image/svg+xml</dc:format>
    <dc:creator>
     <cc:Agent>
      <dc:title>Matplotlib v3.7.2, https://matplotlib.org/</dc:title>
     </cc:Agent>
    </dc:creator>
   </cc:Work>
  </rdf:RDF>
 </metadata>
 <defs>
  <style type="text/css">*{stroke-linejoin: round; stroke-linecap: butt}</style>
 </defs>
 <g id="figure_1">
  <g id="patch_1">
   <path d="M 0 505.354841 
L 947.274841 505.354841 
L 947.274841 -0 
L 0 -0 
z
" style="fill: #ffffff"/>
  </g>
  <g id="axes_1">
   <g id="patch_2">
    <path d="M 103.074841 395.28 
L 940.074841 395.28 
L 940.074841 7.2 
L 103.074841 7.2 
z
" style="fill: #ffffff"/>
   </g>
   <g id="PolyCollection_1">
    <path d="M -4315.31939 307.214325 
L -4315.31939 307.228075 
L -4307.271313 307.152112 
L -4299.223236 307.087518 
L -4291.175159 307.007693 
L -4283.127082 306.959586 
L -4275.079005 306.901219 
L -4267.030929 306.833901 
L -4258.982852 306.767479 
L -4250.934775 306.705685 
L -4242.886698 306.652367 
L -4234.838621 306.589815 
L -4226.790544 306.524065 
L -4218.742467 306.460425 
L -4210.69439 306.380695 
L -4202.646313 306.316026 
L -4194.598236 306.238651 
L -4186.550159 306.173527 
L -4178.502082 306.08301 
L -4170.454005 306.010059 
L -4162.405929 305.94023 
L -4154.357852 305.856386 
L -4146.309775 305.775034 
L -4138.261698 305.69591 
L -4130.213621 305.598917 
L -4122.165544 305.515396 
L -4114.117467 305.41642 
L -4106.06939 305.316477 
L -4098.021313 305.205274 
L -4089.973236 305.091156 
L -4081.925159 304.980249 
L -4073.877082 304.8507 
L -4065.829005 304.70326 
L -4057.780929 304.574393 
L -4049.732852 304.42688 
L -4041.684775 304.257171 
L -4033.636698 304.101107 
L -4025.588621 303.916307 
L -4017.540544 303.729298 
L -4009.492467 303.537179 
L -4001.44439 303.334309 
L -3993.396313 303.108442 
L -3985.348236 302.867743 
L -3977.300159 302.612518 
L -3969.252082 302.368577 
L -3961.204005 302.079017 
L -3953.155929 301.806194 
L -3945.107852 301.515131 
L -3937.059775 301.224135 
L -3929.011698 300.909872 
L -3920.963621 300.568279 
L -3912.915544 300.255572 
L -3904.867467 299.904697 
L -3896.81939 299.541356 
L -3888.771313 299.18701 
L -3880.723236 298.837621 
L -3872.675159 298.456255 
L -3864.627082 298.071204 
L -3856.579005 297.687758 
L -3848.530929 297.287448 
L -3840.482852 296.882504 
L -3832.434775 296.479579 
L -3824.386698 296.062226 
L -3816.338621 295.644502 
L -3808.290544 295.234424 
L -3800.242467 294.806179 
L -3792.19439 294.345359 
L -3784.146313 293.900592 
L -3776.098236 293.457232 
L -3768.050159 293.021699 
L -3760.002082 292.566433 
L -3751.954005 292.122713 
L -3743.905929 291.670342 
L -3735.857852 291.26606 
L -3727.809775 290.781647 
L -3719.761698 290.367338 
L -3711.713621 289.908802 
L -3703.665544 289.473649 
L -3695.617467 289.014372 
L -3687.56939 288.610168 
L -3679.521313 288.143964 
L -3671.473236 287.707684 
L -3663.425159 287.298011 
L -3655.377082 286.853098 
L -3647.329005 286.439244 
L -3639.280929 286.003956 
L -3631.232852 285.559106 
L -3623.184775 285.132517 
L -3615.136698 284.723081 
L -3607.088621 284.278685 
L -3599.040544 283.852606 
L -3590.992467 283.415471 
L -3582.94439 282.99038 
L -3574.896313 282.579794 
L -3566.848236 282.156428 
L -3558.800159 281.728029 
L -3550.752082 281.345513 
L -3542.704005 280.906968 
L -3534.655929 280.487784 
L -3526.607852 280.075518 
L -3518.559775 279.662161 
L -3510.511698 279.249374 
L -3502.463621 278.83032 
L -3494.415544 278.43165 
L -3486.367467 278.015293 
L -3478.31939 277.587498 
L -3470.271313 277.154255 
L -3462.223236 276.71574 
L -3454.175159 276.30689 
L -3446.127082 275.854031 
L -3438.079005 275.36928 
L -3430.030929 274.915766 
L -3421.982852 274.43612 
L -3413.934775 273.948814 
L -3405.886698 273.432995 
L -3397.838621 272.907648 
L -3389.790544 272.421755 
L -3381.742467 271.863944 
L -3373.69439 271.335618 
L -3365.646313 270.765184 
L -3357.598236 270.244103 
L -3349.550159 269.626738 
L -3341.502082 269.022583 
L -3333.454005 268.436726 
L -3325.405929 267.840607 
L -3317.357852 267.225635 
L -3309.309775 266.582061 
L -3301.261698 265.981466 
L -3293.213621 265.289367 
L -3285.165544 264.685332 
L -3277.117467 263.973142 
L -3269.06939 263.284736 
L -3261.021313 262.613951 
L -3252.973236 261.972645 
L -3244.925159 261.218816 
L -3236.877082 260.542169 
L -3228.829005 259.672351 
L -3220.780929 258.930365 
L -3212.732852 258.242436 
L -3204.684775 257.461298 
L -3196.636698 256.660011 
L -3188.588621 255.731995 
L -3180.540544 254.866112 
L -3172.492467 254.152165 
L -3164.44439 252.998069 
L -3156.396313 252.08172 
L -3148.348236 251.146051 
L -3140.300159 250.175394 
L -3132.252082 249.065334 
L -3124.204005 248.026759 
L -3116.155929 247.257558 
L -3108.107852 246.264485 
L -3100.059775 244.601168 
L -3092.011698 243.214642 
L -3083.963621 242.208434 
L -3075.915544 240.793716 
L -3067.867467 239.634014 
L -3059.81939 238.635178 
L -3051.771313 237.086134 
L -3043.723236 235.316671 
L -3035.675159 234.13147 
L -3027.627082 233.401813 
L -3019.579005 231.939929 
L -3011.530929 231.330622 
L -3003.482852 230.306514 
L -2995.434775 228.717784 
L -2987.386698 228.514224 
L -2979.338621 228.896184 
L -2971.290544 230.290286 
L -2963.242467 228.835723 
L -2955.19439 231.916422 
L -2947.146313 232.645427 
L -2939.098236 228.63811 
L -2931.050159 229.840191 
L -2923.002082 231.686033 
L -2914.954005 230.667719 
L -2906.905929 230.488336 
L -2898.857852 238.237312 
L -2890.809775 249.22814 
L -2882.761698 254.69748 
L -2874.713621 242.797354 
L -2866.665544 248.918175 
L -2858.617467 256.927037 
L -2850.56939 256.446536 
L -2842.521313 272.733734 
L -2834.473236 270.473699 
L -2826.425159 265.446395 
L -2818.377082 253.045414 
L -2810.329005 264.632172 
L -2802.280929 271.578824 
L -2794.232852 268.61062 
L -2786.184775 270.384531 
L -2778.136698 276.9293 
L -2770.088621 275.993299 
L -2762.040544 270.248679 
L -2753.992467 277.337383 
L -2745.94439 278.692757 
L -2737.896313 276.076979 
L -2729.848236 280.549676 
L -2721.800159 282.140676 
L -2713.752082 281.624232 
L -2705.704005 280.17838 
L -2697.655929 281.599965 
L -2689.607852 280.007614 
L -2681.559775 280.070478 
L -2673.511698 281.422232 
L -2665.463621 280.016758 
L -2657.415544 280.644866 
L -2649.367467 280.617232 
L -2641.31939 279.470636 
L -2633.271313 279.804954 
L -2625.223236 278.184072 
L -2617.175159 278.228863 
L -2609.127082 278.604339 
L -2601.079005 278.573295 
L -2593.030929 277.759418 
L -2584.982852 277.058012 
L -2576.934775 276.845788 
L -2568.886698 276.081646 
L -2560.838621 275.925025 
L -2552.790544 275.74864 
L -2544.742467 274.621336 
L -2536.69439 275.100376 
L -2528.646313 274.349867 
L -2520.598236 274.011597 
L -2512.550159 274.008147 
L -2504.502082 273.282758 
L -2496.454005 273.090356 
L -2488.405929 273.3163 
L -2480.357852 273.697625 
L -2472.309775 272.54068 
L -2464.261698 272.34302 
L -2456.213621 271.964643 
L -2448.165544 273.961849 
L -2440.117467 274.019223 
L -2432.06939 274.803428 
L -2424.021313 272.918382 
L -2415.973236 271.763491 
L -2407.925159 272.154044 
L -2399.877082 273.491391 
L -2391.829005 273.739377 
L -2383.780929 271.463209 
L -2375.732852 273.442007 
L -2367.684775 272.990854 
L -2359.636698 272.708994 
L -2351.588621 271.685379 
L -2343.540544 272.594807 
L -2335.492467 272.124933 
L -2327.44439 272.661301 
L -2319.396313 272.021503 
L -2311.348236 271.528085 
L -2303.300159 270.598009 
L -2295.252082 270.182051 
L -2287.204005 269.809045 
L -2279.155929 269.277833 
L -2271.107852 269.209828 
L -2263.059775 268.729129 
L -2255.011698 268.210994 
L -2246.963621 266.733704 
L -2238.915544 265.627507 
L -2230.867467 265.168682 
L -2222.81939 263.956166 
L -2214.771313 263.77478 
L -2206.723236 262.727685 
L -2198.675159 261.150755 
L -2190.627082 259.848311 
L -2182.579005 258.883389 
L -2174.530929 257.248795 
L -2166.482852 256.279286 
L -2158.434775 254.834897 
L -2150.386698 253.568961 
L -2142.338621 251.957312 
L -2134.290544 250.643818 
L -2126.242467 248.830013 
L -2118.19439 247.437949 
L -2110.146313 246.00798 
L -2102.098236 244.037628 
L -2094.050159 242.225269 
L -2086.002082 240.901939 
L -2077.954005 239.362683 
L -2069.905929 237.415017 
L -2061.857852 235.896719 
L -2053.809775 234.093168 
L -2045.761698 231.466308 
L -2037.713621 230.451634 
L -2029.665544 228.264522 
L -2021.617467 226.583497 
L -2013.56939 224.670874 
L -2005.521313 222.559573 
L -1997.473236 220.39743 
L -1989.425159 218.51126 
L -1981.377082 215.946424 
L -1973.329005 214.434209 
L -1965.280929 211.948204 
L -1957.232852 210.425294 
L -1949.184775 207.881764 
L -1941.136698 205.420642 
L -1933.088621 203.19581 
L -1925.040544 201.461483 
L -1916.992467 198.628546 
L -1908.94439 196.782872 
L -1900.896313 194.307235 
L -1892.848236 192.325797 
L -1884.800159 189.703357 
L -1876.752082 187.424197 
L -1868.704005 187.283788 
L -1860.655929 182.638561 
L -1852.607852 182.049258 
L -1844.559775 179.285881 
L -1836.511698 177.423138 
L -1828.463621 175.197087 
L -1820.415544 172.807764 
L -1812.367467 170.654351 
L -1804.31939 168.573735 
L -1796.271313 166.614179 
L -1788.223236 164.637236 
L -1780.175159 166.251805 
L -1772.127082 160.286628 
L -1764.079005 158.925187 
L -1756.030929 163.770384 
L -1747.982852 156.75412 
L -1739.934775 157.951705 
L -1731.886698 157.266688 
L -1723.838621 153.615627 
L -1715.790544 154.423279 
L -1707.742467 157.841897 
L -1699.69439 155.223773 
L -1691.646313 154.207405 
L -1683.598236 156.552767 
L -1675.550159 155.941089 
L -1667.502082 157.452557 
L -1659.454005 159.765775 
L -1651.405929 162.775615 
L -1643.357852 171.096551 
L -1635.309775 169.063299 
L -1627.261698 173.375665 
L -1619.213621 176.704903 
L -1611.165544 178.681943 
L -1603.117467 183.034463 
L -1595.06939 185.524298 
L -1587.021313 180.122613 
L -1578.973236 184.910885 
L -1570.925159 191.797091 
L -1562.877082 194.947831 
L -1554.829005 195.556222 
L -1546.780929 206.056031 
L -1538.732852 206.879454 
L -1530.684775 210.116299 
L -1522.636698 208.991703 
L -1514.588621 219.422206 
L -1506.540544 215.91384 
L -1498.492467 213.82788 
L -1490.44439 222.703092 
L -1482.396313 228.940919 
L -1474.348236 228.152265 
L -1466.300159 231.761937 
L -1458.252082 232.777952 
L -1450.204005 232.775865 
L -1442.155929 232.536949 
L -1434.107852 234.426449 
L -1426.059775 235.3889 
L -1418.011698 241.766492 
L -1409.963621 238.128686 
L -1401.915544 243.647608 
L -1393.867467 242.097813 
L -1385.81939 241.068166 
L -1377.771313 243.151967 
L -1369.723236 244.980562 
L -1361.675159 242.088513 
L -1353.627082 243.131901 
L -1345.579005 242.960205 
L -1337.530929 245.836859 
L -1329.482852 244.02158 
L -1321.434775 243.030902 
L -1313.386698 243.661047 
L -1305.338621 244.894065 
L -1297.290544 243.867948 
L -1289.242467 242.078393 
L -1281.19439 242.62737 
L -1273.146313 240.049434 
L -1265.098236 239.987973 
L -1257.050159 243.427218 
L -1249.002082 242.883874 
L -1240.954005 240.435319 
L -1232.905929 239.577297 
L -1224.857852 239.480838 
L -1216.809775 236.84998 
L -1208.761698 237.052905 
L -1200.713621 236.687999 
L -1192.665544 235.842681 
L -1184.617467 234.864715 
L -1176.56939 233.089738 
L -1168.521313 233.564317 
L -1160.473236 232.252257 
L -1152.425159 231.683382 
L -1144.377082 230.818703 
L -1136.329005 230.523692 
L -1128.280929 229.087337 
L -1120.232852 226.776814 
L -1112.184775 226.351467 
L -1104.136698 224.419354 
L -1096.088621 221.788254 
L -1088.040544 223.16636 
L -1079.992467 219.706611 
L -1071.94439 220.72181 
L -1063.896313 219.828327 
L -1055.848236 219.762689 
L -1047.800159 217.455908 
L -1039.752082 217.034379 
L -1031.704005 216.4729 
L -1023.655929 213.693789 
L -1015.607852 214.067559 
L -1007.559775 213.594617 
L -999.511698 213.24633 
L -991.463621 211.805778 
L -983.415544 212.131925 
L -975.367467 210.665679 
L -967.31939 209.263598 
L -959.271313 207.185381 
L -951.223236 206.377756 
L -943.175159 205.777482 
L -935.127082 204.27877 
L -927.079005 204.274101 
L -919.030929 203.447668 
L -910.982852 202.10593 
L -902.934775 201.967811 
L -894.886698 200.481285 
L -886.838621 201.398045 
L -878.790544 200.319555 
L -870.742467 200.201477 
L -862.69439 198.416088 
L -854.646313 196.041214 
L -846.598236 197.780642 
L -838.550159 197.573902 
L -830.502082 196.710283 
L -822.454005 195.823621 
L -814.405929 194.142899 
L -806.357852 193.664379 
L -798.309775 192.689561 
L -790.261698 192.697871 
L -782.213621 192.261686 
L -774.165544 190.673967 
L -766.117467 188.470259 
L -758.06939 191.08158 
L -750.021313 190.329354 
L -741.973236 188.450623 
L -733.925159 189.482025 
L -725.877082 186.207332 
L -717.829005 186.504597 
L -709.780929 186.619205 
L -701.732852 184.377283 
L -693.684775 187.965068 
L -685.636698 184.204735 
L -677.588621 182.257146 
L -669.540544 184.584526 
L -661.492467 185.165127 
L -653.44439 183.9279 
L -645.396313 184.80121 
L -637.348236 183.055284 
L -629.300159 186.2911 
L -621.252082 184.573498 
L -613.204005 185.208567 
L -605.155929 182.925885 
L -597.107852 180.880751 
L -589.059775 183.408704 
L -581.011698 187.972651 
L -572.963621 182.721568 
L -564.915544 182.991548 
L -556.867467 181.019168 
L -548.81939 181.924604 
L -540.771313 181.647817 
L -532.723236 180.423768 
L -524.675159 179.95791 
L -516.627082 182.179788 
L -508.579005 181.005173 
L -500.530929 183.035926 
L -492.482852 183.408352 
L -484.434775 177.464955 
L -476.386698 179.907948 
L -468.338621 180.106695 
L -460.290544 180.514266 
L -452.242467 180.876612 
L -444.19439 184.676586 
L -436.146313 186.193883 
L -428.098236 186.020184 
L -420.050159 190.205758 
L -412.002082 197.140586 
L -403.954005 188.876046 
L -395.905929 188.77378 
L -387.857852 188.94173 
L -379.809775 191.682482 
L -371.761698 192.304364 
L -363.713621 192.27833 
L -355.665544 198.245241 
L -347.617467 200.441229 
L -339.56939 193.642494 
L -331.521313 199.784548 
L -323.473236 196.749155 
L -315.425159 194.862219 
L -307.377082 202.336735 
L -299.329005 200.855827 
L -291.280929 205.694946 
L -283.232852 204.241785 
L -275.184775 201.000617 
L -267.136698 204.046658 
L -259.088621 204.078419 
L -251.040544 207.085079 
L -242.992467 205.255091 
L -234.94439 210.198655 
L -226.896313 206.724587 
L -218.848236 209.359277 
L -210.800159 208.881571 
L -202.752082 211.777952 
L -194.704005 207.233801 
L -186.655929 212.198498 
L -178.607852 211.976501 
L -170.559775 215.38985 
L -162.511698 217.219707 
L -154.463621 217.289715 
L -146.415544 216.483297 
L -138.367467 218.697377 
L -130.31939 220.36448 
L -122.271313 218.971612 
L -114.223236 218.483088 
L -106.175159 220.431903 
L -98.127082 222.209848 
L -90.079005 219.27684 
L -82.030929 217.603668 
L -73.982852 224.476787 
L -65.934775 227.622499 
L -57.886698 220.680821 
L -49.838621 222.778494 
L -41.790544 223.844722 
L -33.742467 224.380466 
L -25.69439 227.919593 
L -17.646313 227.499644 
L -9.598236 226.096514 
L -1.550159 227.646571 
L 6.497918 228.079498 
L 14.545995 224.341478 
L 22.594071 226.261895 
L 30.642148 225.109587 
L 38.690225 230.334829 
L 46.738302 236.759151 
L 54.786379 235.851717 
L 62.834456 230.782756 
L 70.882533 230.248018 
L 78.93061 230.955866 
L 86.978687 231.207467 
L 95.026764 235.982077 
L 103.074841 229.935539 
L 111.122918 236.311804 
L 119.170995 241.437939 
L 127.219071 237.176928 
L 135.267148 243.769328 
L 143.315225 239.661636 
L 151.363302 243.250904 
L 159.411379 240.887808 
L 167.459456 242.671491 
L 175.507533 246.209867 
L 183.55561 245.981686 
L 191.603687 247.089927 
L 199.651764 247.394497 
L 207.699841 247.787061 
L 215.747918 239.203841 
L 223.795995 250.319563 
L 231.844071 254.92734 
L 239.892148 250.549666 
L 247.940225 254.622592 
L 255.988302 255.543523 
L 264.036379 253.287036 
L 272.084456 257.898723 
L 280.132533 261.011497 
L 288.18061 259.286609 
L 296.228687 260.552118 
L 304.276764 261.300905 
L 312.324841 262.476499 
L 320.372918 266.007811 
L 328.420995 259.045492 
L 336.469071 267.886789 
L 344.517148 268.185251 
L 352.565225 268.658966 
L 360.613302 263.322225 
L 368.661379 270.050388 
L 376.709456 274.564504 
L 384.757533 270.189253 
L 392.80561 270.79635 
L 400.853687 277.046844 
L 408.901764 266.407646 
L 416.949841 276.539766 
L 424.997918 270.384903 
L 433.045995 279.26619 
L 441.094071 275.252137 
L 449.142148 279.187937 
L 457.190225 280.512203 
L 465.238302 282.306187 
L 473.286379 282.943361 
L 481.334456 280.720794 
L 489.382533 280.912494 
L 497.43061 282.210725 
L 505.478687 286.330883 
L 513.526764 285.953397 
L 521.574841 285.934844 
L 529.622918 288.482857 
L 537.670995 288.757804 
L 545.719071 286.873266 
L 553.767148 287.299975 
L 561.815225 291.083539 
L 569.863302 291.703886 
L 577.911379 292.671474 
L 585.959456 289.722556 
L 594.007533 285.3162 
L 602.05561 290.233685 
L 610.103687 288.748071 
L 618.151764 290.072832 
L 626.199841 292.176869 
L 634.247918 289.439614 
L 642.295995 292.864543 
L 650.344071 290.309067 
L 658.392148 289.878318 
L 666.440225 289.607089 
L 674.488302 292.552477 
L 682.536379 291.654676 
L 690.584456 291.221499 
L 698.632533 288.819058 
L 706.68061 289.838646 
L 714.728687 290.807786 
L 722.776764 289.311052 
L 730.824841 293.693378 
L 738.872918 290.501593 
L 746.920995 293.625869 
L 754.969071 299.611582 
L 763.017148 299.136797 
L 771.065225 293.981223 
L 779.113302 294.540032 
L 787.161379 293.942543 
L 795.209456 296.924948 
L 803.257533 297.295989 
L 811.30561 288.724779 
L 819.353687 296.240821 
L 827.401764 282.032967 
L 835.449841 297.061917 
L 843.497918 300.403522 
L 851.545995 294.624527 
L 859.594071 288.604879 
L 867.642148 301.500009 
L 875.690225 296.365613 
L 883.738302 287.047467 
L 891.786379 293.642769 
L 899.834456 294.226515 
L 907.882533 292.008735 
L 915.93061 298.309069 
L 923.978687 294.407141 
L 932.026764 297.064495 
L 940.074841 298.842716 
L 940.074841 284.214161 
L 940.074841 284.214161 
L 932.026764 287.947749 
L 923.978687 286.251514 
L 915.93061 287.834457 
L 907.882533 285.046056 
L 899.834456 286.281633 
L 891.786379 285.136662 
L 883.738302 284.621124 
L 875.690225 288.766491 
L 867.642148 289.158824 
L 859.594071 285.375917 
L 851.545995 287.490977 
L 843.497918 290.738514 
L 835.449841 288.560877 
L 827.401764 254.048233 
L 819.353687 289.321443 
L 811.30561 286.520348 
L 803.257533 289.946607 
L 795.209456 290.078785 
L 787.161379 289.190433 
L 779.113302 290.16798 
L 771.065225 289.802078 
L 763.017148 291.974245 
L 754.969071 292.345385 
L 746.920995 290.475011 
L 738.872918 288.384124 
L 730.824841 290.327572 
L 722.776764 286.725028 
L 714.728687 288.608849 
L 706.68061 286.789798 
L 698.632533 283.338093 
L 690.584456 288.853829 
L 682.536379 289.696773 
L 674.488302 290.273696 
L 666.440225 284.597073 
L 658.392148 283.532315 
L 650.344071 283.564823 
L 642.295995 290.830085 
L 634.247918 281.147415 
L 626.199841 288.617679 
L 618.151764 282.839798 
L 610.103687 278.121955 
L 602.05561 282.593147 
L 594.007533 264.487317 
L 585.959456 281.217614 
L 577.911379 287.739334 
L 569.863302 285.119152 
L 561.815225 283.806354 
L 553.767148 269.352232 
L 545.719071 269.993707 
L 537.670995 275.500784 
L 529.622918 275.368644 
L 521.574841 267.439667 
L 513.526764 268.125667 
L 505.478687 267.639847 
L 497.43061 259.889844 
L 489.382533 253.245694 
L 481.334456 251.965715 
L 473.286379 258.269839 
L 465.238302 256.740605 
L 457.190225 253.422615 
L 449.142148 250.006677 
L 441.094071 238.375334 
L 433.045995 250.480394 
L 424.997918 220.120283 
L 416.949841 241.036971 
L 408.901764 212.14227 
L 400.853687 243.919943 
L 392.80561 226.722678 
L 384.757533 226.609103 
L 376.709456 235.797941 
L 368.661379 225.400988 
L 360.613302 206.26701 
L 352.565225 220.592424 
L 344.517148 220.492739 
L 336.469071 220.105853 
L 328.420995 197.755122 
L 320.372918 209.102649 
L 312.324841 206.577186 
L 304.276764 205.162624 
L 296.228687 202.835345 
L 288.18061 198.272203 
L 280.132533 203.042804 
L 272.084456 194.881696 
L 264.036379 184.643644 
L 255.988302 193.366795 
L 247.940225 186.697945 
L 239.892148 180.750267 
L 231.844071 190.7753 
L 223.795995 180.120616 
L 215.747918 152.584423 
L 207.699841 172.915249 
L 199.651764 172.233615 
L 191.603687 172.394117 
L 183.55561 170.036435 
L 175.507533 170.259422 
L 167.459456 162.831279 
L 159.411379 159.827177 
L 151.363302 165.750171 
L 143.315225 154.90435 
L 135.267148 166.207092 
L 127.219071 151.09791 
L 119.170995 159.935087 
L 111.122918 149.913116 
L 103.074841 137.471727 
L 95.026764 149.091139 
L 86.978687 138.19721 
L 78.93061 139.052473 
L 70.882533 138.667627 
L 62.834456 139.83003 
L 54.786379 150.307249 
L 46.738302 152.872325 
L 38.690225 140.501297 
L 30.642148 127.821332 
L 22.594071 131.487571 
L 14.545995 129.005695 
L 6.497918 137.112923 
L -1.550159 136.377982 
L -9.598236 133.248081 
L -17.646313 137.514821 
L -25.69439 137.281391 
L -33.742467 130.888673 
L -41.790544 131.775725 
L -49.838621 129.368616 
L -57.886698 126.378714 
L -65.934775 141.14401 
L -73.982852 133.002575 
L -82.030929 121.821095 
L -90.079005 127.350904 
L -98.127082 132.310265 
L -106.175159 129.234825 
L -114.223236 126.904574 
L -122.271313 128.959254 
L -130.31939 134.208712 
L -138.367467 128.808781 
L -146.415544 126.914928 
L -154.463621 129.318163 
L -162.511698 125.991249 
L -170.559775 127.251686 
L -178.607852 120.42393 
L -186.655929 123.118125 
L -194.704005 114.768141 
L -202.752082 122.267443 
L -210.800159 118.988903 
L -218.848236 121.209434 
L -226.896313 119.059419 
L -234.94439 123.719218 
L -242.992467 116.278276 
L -251.040544 121.277372 
L -259.088621 116.672251 
L -267.136698 117.819607 
L -275.184775 114.271291 
L -283.232852 116.493265 
L -291.280929 122.15435 
L -299.329005 117.150618 
L -307.377082 118.68177 
L -315.425159 108.615854 
L -323.473236 113.653678 
L -331.521313 116.345994 
L -339.56939 108.670352 
L -347.617467 117.828761 
L -355.665544 118.808431 
L -363.713621 109.038679 
L -371.761698 109.519637 
L -379.809775 109.11813 
L -387.857852 105.805113 
L -395.905929 108.620892 
L -403.954005 108.034581 
L -412.002082 120.176802 
L -420.050159 112.348624 
L -428.098236 106.662012 
L -436.146313 107.161678 
L -444.19439 105.741338 
L -452.242467 102.459973 
L -460.290544 104.116204 
L -468.338621 102.033961 
L -476.386698 105.152444 
L -484.434775 101.960881 
L -492.482852 109.071326 
L -500.530929 110.338598 
L -508.579005 109.147551 
L -516.627082 111.010375 
L -524.675159 108.799176 
L -532.723236 111.16072 
L -540.771313 112.682128 
L -548.81939 116.200354 
L -556.867467 114.007235 
L -564.915544 117.899671 
L -572.963621 117.536353 
L -581.011698 124.49686 
L -589.059775 120.369866 
L -597.107852 118.329983 
L -605.155929 121.497344 
L -613.204005 123.114101 
L -621.252082 123.54387 
L -629.300159 127.702163 
L -637.348236 124.710976 
L -645.396313 127.603437 
L -653.44439 126.67769 
L -661.492467 127.601318 
L -669.540544 126.800542 
L -677.588621 125.482683 
L -685.636698 128.858083 
L -693.684775 133.247792 
L -701.732852 129.362436 
L -709.780929 132.044013 
L -717.829005 131.289093 
L -725.877082 132.941083 
L -733.925159 136.387012 
L -741.973236 135.595718 
L -750.021313 138.438291 
L -758.06939 139.392699 
L -766.117467 136.781299 
L -774.165544 138.753478 
L -782.213621 140.91714 
L -790.261698 141.867419 
L -798.309775 142.054331 
L -806.357852 143.663239 
L -814.405929 143.710684 
L -822.454005 145.965504 
L -830.502082 146.775785 
L -838.550159 147.477951 
L -846.598236 148.175259 
L -854.646313 144.865489 
L -862.69439 149.037917 
L -870.742467 150.849737 
L -878.790544 150.641553 
L -886.838621 150.999537 
L -894.886698 151.251168 
L -902.934775 152.619984 
L -910.982852 152.461873 
L -919.030929 154.397723 
L -927.079005 155.207878 
L -935.127082 154.999148 
L -943.175159 155.82677 
L -951.223236 156.872662 
L -959.271313 157.946285 
L -967.31939 161.119396 
L -975.367467 162.003071 
L -983.415544 163.629456 
L -991.463621 163.06544 
L -999.511698 164.632413 
L -1007.559775 164.934637 
L -1015.607852 165.52823 
L -1023.655929 164.1672 
L -1031.704005 168.544609 
L -1039.752082 169.076057 
L -1047.800159 169.515654 
L -1055.848236 172.207072 
L -1063.896313 172.189095 
L -1071.94439 173.399092 
L -1079.992467 172.273973 
L -1088.040544 175.913831 
L -1096.088621 175.041725 
L -1104.136698 178.554803 
L -1112.184775 181.098713 
L -1120.232852 181.945628 
L -1128.280929 185.100173 
L -1136.329005 187.600891 
L -1144.377082 187.674215 
L -1152.425159 189.269104 
L -1160.473236 189.835385 
L -1168.521313 191.874351 
L -1176.56939 191.48432 
L -1184.617467 194.260716 
L -1192.665544 196.373962 
L -1200.713621 197.687492 
L -1208.761698 198.52967 
L -1216.809775 199.227484 
L -1224.857852 202.209023 
L -1232.905929 203.028429 
L -1240.954005 204.929452 
L -1249.002082 207.659326 
L -1257.050159 208.633253 
L -1265.098236 206.477628 
L -1273.146313 207.330138 
L -1281.19439 210.303789 
L -1289.242467 210.783544 
L -1297.290544 212.875035 
L -1305.338621 214.427705 
L -1313.386698 213.819263 
L -1321.434775 214.8264 
L -1329.482852 216.051166 
L -1337.530929 218.133385 
L -1345.579005 216.128789 
L -1353.627082 217.208303 
L -1361.675159 217.360807 
L -1369.723236 220.255597 
L -1377.771313 220.060184 
L -1385.81939 218.677154 
L -1393.867467 220.279166 
L -1401.915544 221.923743 
L -1409.963621 218.106182 
L -1418.011698 221.879037 
L -1426.059775 217.220395 
L -1434.107852 217.000051 
L -1442.155929 215.922003 
L -1450.204005 217.053529 
L -1458.252082 217.438192 
L -1466.300159 216.724336 
L -1474.348236 214.215352 
L -1482.396313 215.926506 
L -1490.44439 210.34859 
L -1498.492467 204.201733 
L -1506.540544 205.98953 
L -1514.588621 209.23108 
L -1522.636698 201.022121 
L -1530.684775 201.695781 
L -1538.732852 199.730044 
L -1546.780929 199.282756 
L -1554.829005 188.392932 
L -1562.877082 187.217379 
L -1570.925159 183.277666 
L -1578.973236 174.531449 
L -1587.021313 167.734171 
L -1595.06939 174.984684 
L -1603.117467 171.396184 
L -1611.165544 165.514456 
L -1619.213621 163.059613 
L -1627.261698 158.775141 
L -1635.309775 153.158443 
L -1643.357852 155.491128 
L -1651.405929 145.474336 
L -1659.454005 140.442175 
L -1667.502082 138.134176 
L -1675.550159 136.212204 
L -1683.598236 137.264247 
L -1691.646313 134.811883 
L -1699.69439 136.906156 
L -1707.742467 139.682061 
L -1715.790544 135.001418 
L -1723.838621 134.592042 
L -1731.886698 139.148179 
L -1739.934775 140.223063 
L -1747.982852 138.546728 
L -1756.030929 147.86733 
L -1764.079005 141.44455 
L -1772.127082 143.718606 
L -1780.175159 150.828386 
L -1788.223236 148.92677 
L -1796.271313 151.576095 
L -1804.31939 153.952528 
L -1812.367467 156.731781 
L -1820.415544 159.374722 
L -1828.463621 162.35806 
L -1836.511698 165.115749 
L -1844.559775 167.37231 
L -1852.607852 170.93884 
L -1860.655929 171.806781 
L -1868.704005 177.479117 
L -1876.752082 177.717442 
L -1884.800159 180.550382 
L -1892.848236 183.854084 
L -1900.896313 186.311275 
L -1908.94439 189.466974 
L -1916.992467 191.712783 
L -1925.040544 195.174493 
L -1933.088621 197.248217 
L -1941.136698 199.924423 
L -1949.184775 202.781289 
L -1957.232852 205.64867 
L -1965.280929 207.032959 
L -1973.329005 209.339446 
L -1981.377082 210.855499 
L -1989.425159 213.23855 
L -1997.473236 215.047463 
L -2005.521313 216.847858 
L -2013.56939 218.862 
L -2021.617467 220.630665 
L -2029.665544 222.110358 
L -2037.713621 224.079728 
L -2045.761698 224.997678 
L -2053.809775 227.47278 
L -2061.857852 229.091537 
L -2069.905929 230.499583 
L -2077.954005 232.258637 
L -2086.002082 233.272154 
L -2094.050159 234.816015 
L -2102.098236 236.404575 
L -2110.146313 238.172467 
L -2118.19439 239.48789 
L -2126.242467 240.782343 
L -2134.290544 242.2108 
L -2142.338621 243.581414 
L -2150.386698 245.070902 
L -2158.434775 246.22943 
L -2166.482852 247.506398 
L -2174.530929 248.521818 
L -2182.579005 249.995649 
L -2190.627082 251.016072 
L -2198.675159 252.196361 
L -2206.723236 253.706676 
L -2214.771313 254.705548 
L -2222.81939 254.89066 
L -2230.867467 256.11486 
L -2238.915544 256.670113 
L -2246.963621 257.849936 
L -2255.011698 259.24853 
L -2263.059775 259.900177 
L -2271.107852 260.505525 
L -2279.155929 260.518463 
L -2287.204005 261.168704 
L -2295.252082 261.50578 
L -2303.300159 261.883107 
L -2311.348236 262.864701 
L -2319.396313 263.386631 
L -2327.44439 264.193387 
L -2335.492467 263.550153 
L -2343.540544 263.948926 
L -2351.588621 263.015858 
L -2359.636698 264.197439 
L -2367.684775 264.290917 
L -2375.732852 265.133805 
L -2383.780929 263.039661 
L -2391.829005 265.377181 
L -2399.877082 265.09846 
L -2407.925159 263.630641 
L -2415.973236 263.205987 
L -2424.021313 264.386723 
L -2432.06939 266.479168 
L -2440.117467 265.570238 
L -2448.165544 265.462391 
L -2456.213621 263.225443 
L -2464.261698 263.146991 
L -2472.309775 263.722857 
L -2480.357852 265.00555 
L -2488.405929 264.523961 
L -2496.454005 264.205015 
L -2504.502082 264.375762 
L -2512.550159 265.154324 
L -2520.598236 264.929041 
L -2528.646313 265.413329 
L -2536.69439 266.243461 
L -2544.742467 265.608782 
L -2552.790544 266.831434 
L -2560.838621 266.999481 
L -2568.886698 267.12815 
L -2576.934775 267.897438 
L -2584.982852 268.07692 
L -2593.030929 268.935748 
L -2601.079005 269.876526 
L -2609.127082 269.87709 
L -2617.175159 269.477839 
L -2625.223236 269.189191 
L -2633.271313 271.202745 
L -2641.31939 270.84252 
L -2649.367467 272.193144 
L -2657.415544 272.208756 
L -2665.463621 271.678036 
L -2673.511698 273.014829 
L -2681.559775 271.754807 
L -2689.607852 271.809499 
L -2697.655929 273.508462 
L -2705.704005 272.268832 
L -2713.752082 273.871381 
L -2721.800159 274.376372 
L -2729.848236 273.000736 
L -2737.896313 268.652905 
L -2745.94439 271.403887 
L -2753.992467 270.057699 
L -2762.040544 263.591657 
L -2770.088621 269.056694 
L -2778.136698 270.157485 
L -2786.184775 264.168171 
L -2794.232852 262.501304 
L -2802.280929 265.65763 
L -2810.329005 258.896568 
L -2818.377082 246.795008 
L -2826.425159 260.00171 
L -2834.473236 265.093913 
L -2842.521313 267.480672 
L -2850.56939 251.040504 
L -2858.617467 251.667837 
L -2866.665544 243.425981 
L -2874.713621 237.074901 
L -2882.761698 249.752912 
L -2890.809775 244.200489 
L -2898.857852 232.837249 
L -2906.905929 224.865983 
L -2914.954005 225.261463 
L -2923.002082 226.535429 
L -2931.050159 224.793834 
L -2939.098236 223.714033 
L -2947.146313 228.097937 
L -2955.19439 227.467905 
L -2963.242467 224.433418 
L -2971.290544 226.119233 
L -2979.338621 224.810906 
L -2987.386698 224.250288 
L -2995.434775 224.255429 
L -3003.482852 225.910485 
L -3011.530929 226.837909 
L -3019.579005 227.33234 
L -3027.627082 228.74901 
L -3035.675159 229.366724 
L -3043.723236 230.504245 
L -3051.771313 232.361403 
L -3059.81939 233.805416 
L -3067.867467 234.767402 
L -3075.915544 235.839027 
L -3083.963621 237.283649 
L -3092.011698 238.154491 
L -3100.059775 239.539402 
L -3108.107852 241.238871 
L -3116.155929 242.238909 
L -3124.204005 242.896683 
L -3132.252082 243.935898 
L -3140.300159 245.008636 
L -3148.348236 245.99214 
L -3156.396313 246.920917 
L -3164.44439 247.806445 
L -3172.492467 249.054095 
L -3180.540544 249.667051 
L -3188.588621 250.57227 
L -3196.636698 251.521836 
L -3204.684775 252.330861 
L -3212.732852 253.132451 
L -3220.780929 253.799061 
L -3228.829005 254.52792 
L -3236.877082 255.493672 
L -3244.925159 256.147715 
L -3252.973236 256.925833 
L -3261.021313 257.546454 
L -3269.06939 258.253753 
L -3277.117467 258.97972 
L -3285.165544 259.717038 
L -3293.213621 260.334226 
L -3301.261698 261.068564 
L -3309.309775 261.711408 
L -3317.357852 262.391802 
L -3325.405929 263.010995 
L -3333.454005 263.66098 
L -3341.502082 264.258526 
L -3349.550159 264.902251 
L -3357.598236 265.598481 
L -3365.646313 266.124481 
L -3373.69439 266.788113 
L -3381.742467 267.358027 
L -3389.790544 268.022025 
L -3397.838621 268.50346 
L -3405.886698 269.120672 
L -3413.934775 269.708345 
L -3421.982852 270.267401 
L -3430.030929 270.836817 
L -3438.079005 271.362517 
L -3446.127082 271.978098 
L -3454.175159 272.530559 
L -3462.223236 272.982949 
L -3470.271313 273.522894 
L -3478.31939 274.061705 
L -3486.367467 274.597375 
L -3494.415544 275.113152 
L -3502.463621 275.592288 
L -3510.511698 276.120726 
L -3518.559775 276.637674 
L -3526.607852 277.156566 
L -3534.655929 277.67276 
L -3542.704005 278.202604 
L -3550.752082 278.753308 
L -3558.800159 279.223951 
L -3566.848236 279.765257 
L -3574.896313 280.295051 
L -3582.94439 280.801964 
L -3590.992467 281.325077 
L -3599.040544 281.858765 
L -3607.088621 282.375126 
L -3615.136698 282.917781 
L -3623.184775 283.40967 
L -3631.232852 283.911504 
L -3639.280929 284.443015 
L -3647.329005 284.954793 
L -3655.377082 285.438298 
L -3663.425159 285.951273 
L -3671.473236 286.416159 
L -3679.521313 286.914769 
L -3687.56939 287.447424 
L -3695.617467 287.898995 
L -3703.665544 288.407892 
L -3711.713621 288.887026 
L -3719.761698 289.390641 
L -3727.809775 289.84224 
L -3735.857852 290.376139 
L -3743.905929 290.811142 
L -3751.954005 291.303445 
L -3760.002082 291.783848 
L -3768.050159 292.277243 
L -3776.098236 292.743911 
L -3784.146313 293.220059 
L -3792.19439 293.698412 
L -3800.242467 294.194448 
L -3808.290544 294.633621 
L -3816.338621 295.047892 
L -3824.386698 295.472822 
L -3832.434775 295.901429 
L -3840.482852 296.314777 
L -3848.530929 296.736644 
L -3856.579005 297.15382 
L -3864.627082 297.551338 
L -3872.675159 297.954866 
L -3880.723236 298.357004 
L -3888.771313 298.720762 
L -3896.81939 299.092344 
L -3904.867467 299.482493 
L -3912.915544 299.851524 
L -3920.963621 300.179588 
L -3929.011698 300.545244 
L -3937.059775 300.878179 
L -3945.107852 301.1841 
L -3953.155929 301.491388 
L -3961.204005 301.778391 
L -3969.252082 302.090776 
L -3977.300159 302.346314 
L -3985.348236 302.618543 
L -3993.396313 302.874736 
L -4001.44439 303.111856 
L -4009.492467 303.327434 
L -4017.540544 303.522827 
L -4025.588621 303.717736 
L -4033.636698 303.911651 
L -4041.684775 304.070601 
L -4049.732852 304.250493 
L -4057.780929 304.40159 
L -4065.829005 304.530781 
L -4073.877082 304.684801 
L -4081.925159 304.818775 
L -4089.973236 304.928365 
L -4098.021313 305.047153 
L -4106.06939 305.162761 
L -4114.117467 305.263623 
L -4122.165544 305.365203 
L -4130.213621 305.447984 
L -4138.261698 305.550051 
L -4146.309775 305.629779 
L -4154.357852 305.714226 
L -4162.405929 305.803435 
L -4170.454005 305.874971 
L -4178.502082 305.951403 
L -4186.550159 306.053849 
L -4194.598236 306.124213 
L -4202.646313 306.212243 
L -4210.69439 306.28063 
L -4218.742467 306.37415 
L -4226.790544 306.446929 
L -4234.838621 306.524492 
L -4242.886698 306.591769 
L -4250.934775 306.652798 
L -4258.982852 306.724066 
L -4267.030929 306.804076 
L -4275.079005 306.882191 
L -4283.127082 306.947789 
L -4291.175159 306.998963 
L -4299.223236 307.076436 
L -4307.271313 307.138516 
L -4315.31939 307.214325 
z
" clip-path="url(#pb1606f78af)" style="fill: #008000; fill-opacity: 0.3; stroke: #008000; stroke-opacity: 0.3"/>
   </g>
   <g id="matplotlib.axis_1">
    <g id="xtick_1">
     <g id="line2d_1">
      <defs>
       <path id="m20429a71ee" d="M 0 0 
L 0 3.5 
" style="stroke: #000000; stroke-width: 0.8"/>
      </defs>
      <g>
       <use xlink:href="#m20429a71ee" x="103.074841" y="395.28" style="stroke: #000000; stroke-width: 0.8"/>
      </g>
     </g>
     <g id="text_1">
      <!-- 2023-01-01 -->
      <g transform="translate(17.945813 495.213718) rotate(-45) scale(0.2 -0.2)">
       <defs>
        <path id="DejaVuSans-32" d="M 1228 531 
L 3431 531 
L 3431 0 
L 469 0 
L 469 531 
Q 828 903 1448 1529 
Q 2069 2156 2228 2338 
Q 2531 2678 2651 2914 
Q 2772 3150 2772 3378 
Q 2772 3750 2511 3984 
Q 2250 4219 1831 4219 
Q 1534 4219 1204 4116 
Q 875 4013 500 3803 
L 500 4441 
Q 881 4594 1212 4672 
Q 1544 4750 1819 4750 
Q 2544 4750 2975 4387 
Q 3406 4025 3406 3419 
Q 3406 3131 3298 2873 
Q 3191 2616 2906 2266 
Q 2828 2175 2409 1742 
Q 1991 1309 1228 531 
z
" transform="scale(0.015625)"/>
        <path id="DejaVuSans-30" d="M 2034 4250 
Q 1547 4250 1301 3770 
Q 1056 3291 1056 2328 
Q 1056 1369 1301 889 
Q 1547 409 2034 409 
Q 2525 409 2770 889 
Q 3016 1369 3016 2328 
Q 3016 3291 2770 3770 
Q 2525 4250 2034 4250 
z
M 2034 4750 
Q 2819 4750 3233 4129 
Q 3647 3509 3647 2328 
Q 3647 1150 3233 529 
Q 2819 -91 2034 -91 
Q 1250 -91 836 529 
Q 422 1150 422 2328 
Q 422 3509 836 4129 
Q 1250 4750 2034 4750 
z
" transform="scale(0.015625)"/>
        <path id="DejaVuSans-33" d="M 2597 2516 
Q 3050 2419 3304 2112 
Q 3559 1806 3559 1356 
Q 3559 666 3084 287 
Q 2609 -91 1734 -91 
Q 1441 -91 1130 -33 
Q 819 25 488 141 
L 488 750 
Q 750 597 1062 519 
Q 1375 441 1716 441 
Q 2309 441 2620 675 
Q 2931 909 2931 1356 
Q 2931 1769 2642 2001 
Q 2353 2234 1838 2234 
L 1294 2234 
L 1294 2753 
L 1863 2753 
Q 2328 2753 2575 2939 
Q 2822 3125 2822 3475 
Q 2822 3834 2567 4026 
Q 2313 4219 1838 4219 
Q 1578 4219 1281 4162 
Q 984 4106 628 3988 
L 628 4550 
Q 988 4650 1302 4700 
Q 1616 4750 1894 4750 
Q 2613 4750 3031 4423 
Q 3450 4097 3450 3541 
Q 3450 3153 3228 2886 
Q 3006 2619 2597 2516 
z
" transform="scale(0.015625)"/>
        <path id="DejaVuSans-2d" d="M 313 2009 
L 1997 2009 
L 1997 1497 
L 313 1497 
L 313 2009 
z
" transform="scale(0.015625)"/>
        <path id="DejaVuSans-31" d="M 794 531 
L 1825 531 
L 1825 4091 
L 703 3866 
L 703 4441 
L 1819 4666 
L 2450 4666 
L 2450 531 
L 3481 531 
L 3481 0 
L 794 0 
L 794 531 
z
" transform="scale(0.015625)"/>
       </defs>
       <use xlink:href="#DejaVuSans-32"/>
       <use xlink:href="#DejaVuSans-30" x="63.623047"/>
       <use xlink:href="#DejaVuSans-32" x="127.246094"/>
       <use xlink:href="#DejaVuSans-33" x="190.869141"/>
       <use xlink:href="#DejaVuSans-2d" x="254.492188"/>
       <use xlink:href="#DejaVuSans-30" x="290.576172"/>
       <use xlink:href="#DejaVuSans-31" x="354.199219"/>
       <use xlink:href="#DejaVuSans-2d" x="417.822266"/>
       <use xlink:href="#DejaVuSans-30" x="453.90625"/>
       <use xlink:href="#DejaVuSans-31" x="517.529297"/>
      </g>
     </g>
    </g>
    <g id="xtick_2">
     <g id="line2d_2">
      <g>
       <use xlink:href="#m20429a71ee" x="215.747918" y="395.28" style="stroke: #000000; stroke-width: 0.8"/>
      </g>
     </g>
     <g id="text_2">
      <!-- 2023-01-15 -->
      <g transform="translate(130.61889 495.213718) rotate(-45) scale(0.2 -0.2)">
       <defs>
        <path id="DejaVuSans-35" d="M 691 4666 
L 3169 4666 
L 3169 4134 
L 1269 4134 
L 1269 2991 
Q 1406 3038 1543 3061 
Q 1681 3084 1819 3084 
Q 2600 3084 3056 2656 
Q 3513 2228 3513 1497 
Q 3513 744 3044 326 
Q 2575 -91 1722 -91 
Q 1428 -91 1123 -41 
Q 819 9 494 109 
L 494 744 
Q 775 591 1075 516 
Q 1375 441 1709 441 
Q 2250 441 2565 725 
Q 2881 1009 2881 1497 
Q 2881 1984 2565 2268 
Q 2250 2553 1709 2553 
Q 1456 2553 1204 2497 
Q 953 2441 691 2322 
L 691 4666 
z
" transform="scale(0.015625)"/>
       </defs>
       <use xlink:href="#DejaVuSans-32"/>
       <use xlink:href="#DejaVuSans-30" x="63.623047"/>
       <use xlink:href="#DejaVuSans-32" x="127.246094"/>
       <use xlink:href="#DejaVuSans-33" x="190.869141"/>
       <use xlink:href="#DejaVuSans-2d" x="254.492188"/>
       <use xlink:href="#DejaVuSans-30" x="290.576172"/>
       <use xlink:href="#DejaVuSans-31" x="354.199219"/>
       <use xlink:href="#DejaVuSans-2d" x="417.822266"/>
       <use xlink:href="#DejaVuSans-31" x="453.90625"/>
       <use xlink:href="#DejaVuSans-35" x="517.529297"/>
      </g>
     </g>
    </g>
    <g id="xtick_3">
     <g id="line2d_3">
      <g>
       <use xlink:href="#m20429a71ee" x="328.420995" y="395.28" style="stroke: #000000; stroke-width: 0.8"/>
      </g>
     </g>
     <g id="text_3">
      <!-- 2023-01-29 -->
      <g transform="translate(243.291967 495.213718) rotate(-45) scale(0.2 -0.2)">
       <defs>
        <path id="DejaVuSans-39" d="M 703 97 
L 703 672 
Q 941 559 1184 500 
Q 1428 441 1663 441 
Q 2288 441 2617 861 
Q 2947 1281 2994 2138 
Q 2813 1869 2534 1725 
Q 2256 1581 1919 1581 
Q 1219 1581 811 2004 
Q 403 2428 403 3163 
Q 403 3881 828 4315 
Q 1253 4750 1959 4750 
Q 2769 4750 3195 4129 
Q 3622 3509 3622 2328 
Q 3622 1225 3098 567 
Q 2575 -91 1691 -91 
Q 1453 -91 1209 -44 
Q 966 3 703 97 
z
M 1959 2075 
Q 2384 2075 2632 2365 
Q 2881 2656 2881 3163 
Q 2881 3666 2632 3958 
Q 2384 4250 1959 4250 
Q 1534 4250 1286 3958 
Q 1038 3666 1038 3163 
Q 1038 2656 1286 2365 
Q 1534 2075 1959 2075 
z
" transform="scale(0.015625)"/>
       </defs>
       <use xlink:href="#DejaVuSans-32"/>
       <use xlink:href="#DejaVuSans-30" x="63.623047"/>
       <use xlink:href="#DejaVuSans-32" x="127.246094"/>
       <use xlink:href="#DejaVuSans-33" x="190.869141"/>
       <use xlink:href="#DejaVuSans-2d" x="254.492188"/>
       <use xlink:href="#DejaVuSans-30" x="290.576172"/>
       <use xlink:href="#DejaVuSans-31" x="354.199219"/>
       <use xlink:href="#DejaVuSans-2d" x="417.822266"/>
       <use xlink:href="#DejaVuSans-32" x="453.90625"/>
       <use xlink:href="#DejaVuSans-39" x="517.529297"/>
      </g>
     </g>
    </g>
    <g id="xtick_4">
     <g id="line2d_4">
      <g>
       <use xlink:href="#m20429a71ee" x="441.094071" y="395.28" style="stroke: #000000; stroke-width: 0.8"/>
      </g>
     </g>
     <g id="text_4">
      <!-- 2023-02-12 -->
      <g transform="translate(355.965044 495.213718) rotate(-45) scale(0.2 -0.2)">
       <use xlink:href="#DejaVuSans-32"/>
       <use xlink:href="#DejaVuSans-30" x="63.623047"/>
       <use xlink:href="#DejaVuSans-32" x="127.246094"/>
       <use xlink:href="#DejaVuSans-33" x="190.869141"/>
       <use xlink:href="#DejaVuSans-2d" x="254.492188"/>
       <use xlink:href="#DejaVuSans-30" x="290.576172"/>
       <use xlink:href="#DejaVuSans-32" x="354.199219"/>
       <use xlink:href="#DejaVuSans-2d" x="417.822266"/>
       <use xlink:href="#DejaVuSans-31" x="453.90625"/>
       <use xlink:href="#DejaVuSans-32" x="517.529297"/>
      </g>
     </g>
    </g>
    <g id="xtick_5">
     <g id="line2d_5">
      <g>
       <use xlink:href="#m20429a71ee" x="553.767148" y="395.28" style="stroke: #000000; stroke-width: 0.8"/>
      </g>
     </g>
     <g id="text_5">
      <!-- 2023-02-26 -->
      <g transform="translate(468.638121 495.213718) rotate(-45) scale(0.2 -0.2)">
       <defs>
        <path id="DejaVuSans-36" d="M 2113 2584 
Q 1688 2584 1439 2293 
Q 1191 2003 1191 1497 
Q 1191 994 1439 701 
Q 1688 409 2113 409 
Q 2538 409 2786 701 
Q 3034 994 3034 1497 
Q 3034 2003 2786 2293 
Q 2538 2584 2113 2584 
z
M 3366 4563 
L 3366 3988 
Q 3128 4100 2886 4159 
Q 2644 4219 2406 4219 
Q 1781 4219 1451 3797 
Q 1122 3375 1075 2522 
Q 1259 2794 1537 2939 
Q 1816 3084 2150 3084 
Q 2853 3084 3261 2657 
Q 3669 2231 3669 1497 
Q 3669 778 3244 343 
Q 2819 -91 2113 -91 
Q 1303 -91 875 529 
Q 447 1150 447 2328 
Q 447 3434 972 4092 
Q 1497 4750 2381 4750 
Q 2619 4750 2861 4703 
Q 3103 4656 3366 4563 
z
" transform="scale(0.015625)"/>
       </defs>
       <use xlink:href="#DejaVuSans-32"/>
       <use xlink:href="#DejaVuSans-30" x="63.623047"/>
       <use xlink:href="#DejaVuSans-32" x="127.246094"/>
       <use xlink:href="#DejaVuSans-33" x="190.869141"/>
       <use xlink:href="#DejaVuSans-2d" x="254.492188"/>
       <use xlink:href="#DejaVuSans-30" x="290.576172"/>
       <use xlink:href="#DejaVuSans-32" x="354.199219"/>
       <use xlink:href="#DejaVuSans-2d" x="417.822266"/>
       <use xlink:href="#DejaVuSans-32" x="453.90625"/>
       <use xlink:href="#DejaVuSans-36" x="517.529297"/>
      </g>
     </g>
    </g>
    <g id="xtick_6">
     <g id="line2d_6">
      <g>
       <use xlink:href="#m20429a71ee" x="666.440225" y="395.28" style="stroke: #000000; stroke-width: 0.8"/>
      </g>
     </g>
     <g id="text_6">
      <!-- 2023-03-12 -->
      <g transform="translate(581.311198 495.213718) rotate(-45) scale(0.2 -0.2)">
       <use xlink:href="#DejaVuSans-32"/>
       <use xlink:href="#DejaVuSans-30" x="63.623047"/>
       <use xlink:href="#DejaVuSans-32" x="127.246094"/>
       <use xlink:href="#DejaVuSans-33" x="190.869141"/>
       <use xlink:href="#DejaVuSans-2d" x="254.492188"/>
       <use xlink:href="#DejaVuSans-30" x="290.576172"/>
       <use xlink:href="#DejaVuSans-33" x="354.199219"/>
       <use xlink:href="#DejaVuSans-2d" x="417.822266"/>
       <use xlink:href="#DejaVuSans-31" x="453.90625"/>
       <use xlink:href="#DejaVuSans-32" x="517.529297"/>
      </g>
     </g>
    </g>
    <g id="xtick_7">
     <g id="line2d_7">
      <g>
       <use xlink:href="#m20429a71ee" x="779.113302" y="395.28" style="stroke: #000000; stroke-width: 0.8"/>
      </g>
     </g>
     <g id="text_7">
      <!-- 2023-03-26 -->
      <g transform="translate(693.984275 495.213718) rotate(-45) scale(0.2 -0.2)">
       <use xlink:href="#DejaVuSans-32"/>
       <use xlink:href="#DejaVuSans-30" x="63.623047"/>
       <use xlink:href="#DejaVuSans-32" x="127.246094"/>
       <use xlink:href="#DejaVuSans-33" x="190.869141"/>
       <use xlink:href="#DejaVuSans-2d" x="254.492188"/>
       <use xlink:href="#DejaVuSans-30" x="290.576172"/>
       <use xlink:href="#DejaVuSans-33" x="354.199219"/>
       <use xlink:href="#DejaVuSans-2d" x="417.822266"/>
       <use xlink:href="#DejaVuSans-32" x="453.90625"/>
       <use xlink:href="#DejaVuSans-36" x="517.529297"/>
      </g>
     </g>
    </g>
    <g id="xtick_8">
     <g id="line2d_8">
      <g>
       <use xlink:href="#m20429a71ee" x="891.786379" y="395.28" style="stroke: #000000; stroke-width: 0.8"/>
      </g>
     </g>
     <g id="text_8">
      <!-- 2023-04-09 -->
      <g transform="translate(806.657352 495.213718) rotate(-45) scale(0.2 -0.2)">
       <defs>
        <path id="DejaVuSans-34" d="M 2419 4116 
L 825 1625 
L 2419 1625 
L 2419 4116 
z
M 2253 4666 
L 3047 4666 
L 3047 1625 
L 3713 1625 
L 3713 1100 
L 3047 1100 
L 3047 0 
L 2419 0 
L 2419 1100 
L 313 1100 
L 313 1709 
L 2253 4666 
z
" transform="scale(0.015625)"/>
       </defs>
       <use xlink:href="#DejaVuSans-32"/>
       <use xlink:href="#DejaVuSans-30" x="63.623047"/>
       <use xlink:href="#DejaVuSans-32" x="127.246094"/>
       <use xlink:href="#DejaVuSans-33" x="190.869141"/>
       <use xlink:href="#DejaVuSans-2d" x="254.492188"/>
       <use xlink:href="#DejaVuSans-30" x="290.576172"/>
       <use xlink:href="#DejaVuSans-34" x="354.199219"/>
       <use xlink:href="#DejaVuSans-2d" x="417.822266"/>
       <use xlink:href="#DejaVuSans-30" x="453.90625"/>
       <use xlink:href="#DejaVuSans-39" x="517.529297"/>
      </g>
     </g>
    </g>
    <g id="xtick_9">
     <g id="line2d_9">
      <g>
       <use xlink:href="#m20429a71ee" x="940.074841" y="395.28" style="stroke: #000000; stroke-width: 0.8"/>
      </g>
     </g>
     <g id="text_9">
      <!-- 2023-04-15 -->
      <g transform="translate(854.945813 495.213718) rotate(-45) scale(0.2 -0.2)">
       <use xlink:href="#DejaVuSans-32"/>
       <use xlink:href="#DejaVuSans-30" x="63.623047"/>
       <use xlink:href="#DejaVuSans-32" x="127.246094"/>
       <use xlink:href="#DejaVuSans-33" x="190.869141"/>
       <use xlink:href="#DejaVuSans-2d" x="254.492188"/>
       <use xlink:href="#DejaVuSans-30" x="290.576172"/>
       <use xlink:href="#DejaVuSans-34" x="354.199219"/>
       <use xlink:href="#DejaVuSans-2d" x="417.822266"/>
       <use xlink:href="#DejaVuSans-31" x="453.90625"/>
       <use xlink:href="#DejaVuSans-35" x="517.529297"/>
      </g>
     </g>
    </g>
   </g>
   <g id="matplotlib.axis_2">
    <g id="ytick_1">
     <g id="line2d_10">
      <defs>
       <path id="m5e6fc23f8b" d="M 0 0 
L -3.5 0 
" style="stroke: #000000; stroke-width: 0.8"/>
      </defs>
      <g>
       <use xlink:href="#m5e6fc23f8b" x="103.074841" y="365.218541" style="stroke: #000000; stroke-width: 0.8"/>
      </g>
     </g>
     <g id="text_10">
      <!-- −0.05 -->
      <g transform="translate(34.784216 372.816978) scale(0.2 -0.2)">
       <defs>
        <path id="DejaVuSans-2212" d="M 678 2272 
L 4684 2272 
L 4684 1741 
L 678 1741 
L 678 2272 
z
" transform="scale(0.015625)"/>
        <path id="DejaVuSans-2e" d="M 684 794 
L 1344 794 
L 1344 0 
L 684 0 
L 684 794 
z
" transform="scale(0.015625)"/>
       </defs>
       <use xlink:href="#DejaVuSans-2212"/>
       <use xlink:href="#DejaVuSans-30" x="83.789062"/>
       <use xlink:href="#DejaVuSans-2e" x="147.412109"/>
       <use xlink:href="#DejaVuSans-30" x="179.199219"/>
       <use xlink:href="#DejaVuSans-35" x="242.822266"/>
      </g>
     </g>
    </g>
    <g id="ytick_2">
     <g id="line2d_11">
      <g>
       <use xlink:href="#m5e6fc23f8b" x="103.074841" y="307.287459" style="stroke: #000000; stroke-width: 0.8"/>
      </g>
     </g>
     <g id="text_11">
      <!-- 0.00 -->
      <g transform="translate(51.543591 314.885896) scale(0.2 -0.2)">
       <use xlink:href="#DejaVuSans-30"/>
       <use xlink:href="#DejaVuSans-2e" x="63.623047"/>
       <use xlink:href="#DejaVuSans-30" x="95.410156"/>
       <use xlink:href="#DejaVuSans-30" x="159.033203"/>
      </g>
     </g>
    </g>
    <g id="ytick_3">
     <g id="line2d_12">
      <g>
       <use xlink:href="#m5e6fc23f8b" x="103.074841" y="249.356377" style="stroke: #000000; stroke-width: 0.8"/>
      </g>
     </g>
     <g id="text_12">
      <!-- 0.05 -->
      <g transform="translate(51.543591 256.954814) scale(0.2 -0.2)">
       <use xlink:href="#DejaVuSans-30"/>
       <use xlink:href="#DejaVuSans-2e" x="63.623047"/>
       <use xlink:href="#DejaVuSans-30" x="95.410156"/>
       <use xlink:href="#DejaVuSans-35" x="159.033203"/>
      </g>
     </g>
    </g>
    <g id="ytick_4">
     <g id="line2d_13">
      <g>
       <use xlink:href="#m5e6fc23f8b" x="103.074841" y="191.425295" style="stroke: #000000; stroke-width: 0.8"/>
      </g>
     </g>
     <g id="text_13">
      <!-- 0.10 -->
      <g transform="translate(51.543591 199.023732) scale(0.2 -0.2)">
       <use xlink:href="#DejaVuSans-30"/>
       <use xlink:href="#DejaVuSans-2e" x="63.623047"/>
       <use xlink:href="#DejaVuSans-31" x="95.410156"/>
       <use xlink:href="#DejaVuSans-30" x="159.033203"/>
      </g>
     </g>
    </g>
    <g id="ytick_5">
     <g id="line2d_14">
      <g>
       <use xlink:href="#m5e6fc23f8b" x="103.074841" y="133.494213" style="stroke: #000000; stroke-width: 0.8"/>
      </g>
     </g>
     <g id="text_14">
      <!-- 0.15 -->
      <g transform="translate(51.543591 141.09265) scale(0.2 -0.2)">
       <use xlink:href="#DejaVuSans-30"/>
       <use xlink:href="#DejaVuSans-2e" x="63.623047"/>
       <use xlink:href="#DejaVuSans-31" x="95.410156"/>
       <use xlink:href="#DejaVuSans-35" x="159.033203"/>
      </g>
     </g>
    </g>
    <g id="ytick_6">
     <g id="line2d_15">
      <g>
       <use xlink:href="#m5e6fc23f8b" x="103.074841" y="75.563131" style="stroke: #000000; stroke-width: 0.8"/>
      </g>
     </g>
     <g id="text_15">
      <!-- 0.20 -->
      <g transform="translate(51.543591 83.161568) scale(0.2 -0.2)">
       <use xlink:href="#DejaVuSans-30"/>
       <use xlink:href="#DejaVuSans-2e" x="63.623047"/>
       <use xlink:href="#DejaVuSans-32" x="95.410156"/>
       <use xlink:href="#DejaVuSans-30" x="159.033203"/>
      </g>
     </g>
    </g>
    <g id="ytick_7">
     <g id="line2d_16">
      <g>
       <use xlink:href="#m5e6fc23f8b" x="103.074841" y="17.632049" style="stroke: #000000; stroke-width: 0.8"/>
      </g>
     </g>
     <g id="text_16">
      <!-- 0.25 -->
      <g transform="translate(51.543591 25.230486) scale(0.2 -0.2)">
       <use xlink:href="#DejaVuSans-30"/>
       <use xlink:href="#DejaVuSans-2e" x="63.623047"/>
       <use xlink:href="#DejaVuSans-32" x="95.410156"/>
       <use xlink:href="#DejaVuSans-35" x="159.033203"/>
      </g>
     </g>
    </g>
   </g>
   <g id="line2d_17">
    <path d="M 392.80561 247.929865 
L 441.094071 247.929865 
L 449.142148 139.670206 
L 481.334456 139.670206 
L 489.382533 29.149283 
L 497.43061 29.149283 
L 505.478687 136.545517 
L 513.526764 101.737981 
L 553.767148 101.737981 
L 561.815225 83.138835 
L 569.863302 209.433386 
L 602.05561 209.433386 
L 610.103687 377.64 
L 618.151764 377.64 
L 626.199841 364.408896 
L 658.392148 364.408896 
L 666.440225 276.983026 
L 674.488302 276.983026 
L 682.536379 282.646737 
L 690.584456 167.237863 
L 722.776764 167.237863 
L 730.824841 109.552172 
L 738.872918 79.326205 
L 746.920995 58.61612 
L 771.065225 58.61612 
L 779.113302 24.84 
L 787.161379 118.393285 
L 795.209456 118.393285 
L 803.257533 139.308076 
L 811.30561 257.25669 
L 851.545995 257.25669 
L 859.594071 307.162568 
L 867.642148 353.047642 
L 891.786379 353.047642 
L 891.786379 353.047642 
" clip-path="url(#pb1606f78af)" style="fill: none; stroke: #ffa500; stroke-width: 1.5; stroke-linecap: square"/>
   </g>
   <g id="line2d_18">
    <path d="M 103.074841 307.287459 
L 948.274841 307.287459 
" clip-path="url(#pb1606f78af)" style="fill: none; stroke-dasharray: 7.4,3.2; stroke-dashoffset: 0; stroke: #000000; stroke-width: 2"/>
   </g>
   <g id="patch_3">
    <path d="M 103.074841 395.28 
L 103.074841 7.2 
" style="fill: none; stroke: #000000; stroke-width: 0.8; stroke-linejoin: miter; stroke-linecap: square"/>
   </g>
   <g id="patch_4">
    <path d="M 940.074841 395.28 
L 940.074841 7.2 
" style="fill: none; stroke: #000000; stroke-width: 0.8; stroke-linejoin: miter; stroke-linecap: square"/>
   </g>
   <g id="patch_5">
    <path d="M 103.074841 395.28 
L 940.074841 395.28 
" style="fill: none; stroke: #000000; stroke-width: 0.8; stroke-linejoin: miter; stroke-linecap: square"/>
   </g>
   <g id="patch_6">
    <path d="M 103.074841 7.2 
L 940.074841 7.2 
" style="fill: none; stroke: #000000; stroke-width: 0.8; stroke-linejoin: miter; stroke-linecap: square"/>
   </g>
  </g>
 </g>
 <defs>
  <clipPath id="pb1606f78af">
   <rect x="103.074841" y="7.2" width="837" height="388.08"/>
  </clipPath>
 </defs>
</svg>
