<?xml version="1.0" encoding="utf-8" standalone="no"?>
<!DOCTYPE svg PUBLIC "-//W3C//DTD SVG 1.1//EN"
  "http://www.w3.org/Graphics/SVG/1.1/DTD/svg11.dtd">
<svg xmlns:xlink="http://www.w3.org/1999/xlink" width="947.274841pt" height="505.354841pt" viewBox="0 0 947.274841 505.354841" xmlns="http://www.w3.org/2000/svg" version="1.1">
 <metadata>
  <rdf:RDF xmlns:dc="http://purl.org/dc/elements/1.1/" xmlns:cc="http://creativecommons.org/ns#" xmlns:rdf="http://www.w3.org/1999/02/22-rdf-syntax-ns#">
   <cc:Work>
    <dc:type rdf:resource="http://purl.org/dc/dcmitype/StillImage"/>
    <dc:date>2023-11-12T22:44:03.786633</dc:date>
    <dc:format>image/svg+xml</dc:format>
    <dc:creator>
     <cc:Agent>
      <dc:title>Matplotlib v3.7.2, https://matplotlib.org/</dc:title>
     </cc:Agent>
    </dc:creator>
   </cc:Work>
  </rdf:RDF>
 </metadata>
 <defs>
  <style type="text/css">*{stroke-linejoin: round; stroke-linecap: butt}</style>
 </defs>
 <g id="figure_1">
  <g id="patch_1">
   <path d="M 0 505.354841 
L 947.274841 505.354841 
L 947.274841 -0 
L 0 -0 
z
" style="fill: #ffffff"/>
  </g>
  <g id="axes_1">
   <g id="patch_2">
    <path d="M 103.074841 395.28 
L 940.074841 395.28 
L 940.074841 7.2 
L 103.074841 7.2 
z
" style="fill: #ffffff"/>
   </g>
   <g id="PolyCollection_1">
    <path d="M -4315.31939 274.821053 
L -4315.31939 274.842561 
L -4307.271313 274.737687 
L -4299.223236 274.646031 
L -4291.175159 274.529727 
L -4283.127082 274.450743 
L -4275.079005 274.350513 
L -4267.030929 274.240903 
L -4258.982852 274.137668 
L -4250.934775 274.040175 
L -4242.886698 273.953579 
L -4234.838621 273.85449 
L -4226.790544 273.750888 
L -4218.742467 273.649884 
L -4210.69439 273.527507 
L -4202.646313 273.424741 
L -4194.598236 273.305002 
L -4186.550159 273.201222 
L -4178.502082 273.063693 
L -4170.454005 272.94906 
L -4162.405929 272.838218 
L -4154.357852 272.708517 
L -4146.309775 272.581695 
L -4138.261698 272.457321 
L -4130.213621 272.308833 
L -4122.165544 272.177549 
L -4114.117467 272.025141 
L -4106.06939 271.870662 
L -4098.021313 271.700459 
L -4089.973236 271.525445 
L -4081.925159 271.35355 
L -4073.877082 271.155812 
L -4065.829005 270.933061 
L -4057.780929 270.733375 
L -4049.732852 270.507512 
L -4041.684775 270.250688 
L -4033.636698 270.010042 
L -4025.588621 269.729534 
L -4017.540544 269.444034 
L -4009.492467 269.149541 
L -4001.44439 268.838581 
L -3993.396313 268.494863 
L -3985.348236 268.129076 
L -3977.300159 267.741556 
L -3969.252082 267.366274 
L -3961.204005 266.928107 
L -3953.155929 266.509276 
L -3945.107852 266.063666 
L -3937.059775 265.615388 
L -3929.011698 265.133811 
L -3920.963621 264.613653 
L -3912.915544 264.129229 
L -3904.867467 263.59213 
L -3896.81939 263.036438 
L -3888.771313 262.490616 
L -3880.723236 261.949423 
L -3872.675159 261.364201 
L -3864.627082 260.772423 
L -3856.579005 260.181155 
L -3848.530929 259.565995 
L -3840.482852 258.943202 
L -3832.434775 258.321706 
L -3824.386698 257.679827 
L -3816.338621 257.036183 
L -3808.290544 256.401427 
L -3800.242467 255.741586 
L -3792.19439 255.037795 
L -3784.146313 254.354512 
L -3776.098236 253.672509 
L -3768.050159 253.000464 
L -3760.002082 252.302166 
L -3751.954005 251.619186 
L -3743.905929 250.925041 
L -3735.857852 250.294944 
L -3727.809775 249.559463 
L -3719.761698 248.917503 
L -3711.713621 248.217901 
L -3703.665544 247.550682 
L -3695.617467 246.861475 
L -3687.56939 246.239477 
L -3679.521313 245.530881 
L -3671.473236 244.862733 
L -3663.425159 244.241146 
L -3655.377082 243.568362 
L -3647.329005 242.929628 
L -3639.280929 242.264224 
L -3631.232852 241.594533 
L -3623.184775 240.949584 
L -3615.136698 240.316629 
L -3607.088621 239.637988 
L -3599.040544 238.991112 
L -3590.992467 238.332541 
L -3582.94439 237.684243 
L -3574.896313 237.050512 
L -3566.848236 236.400611 
L -3558.800159 235.744844 
L -3550.752082 235.150681 
L -3542.704005 234.483234 
L -3534.655929 233.842383 
L -3526.607852 233.211662 
L -3518.559775 232.580453 
L -3510.511698 231.950925 
L -3502.463621 231.314002 
L -3494.415544 230.70493 
L -3486.367467 230.073207 
L -3478.31939 229.427001 
L -3470.271313 228.774127 
L -3462.223236 228.114695 
L -3454.175159 227.494866 
L -3446.127082 226.816874 
L -3438.079005 226.096575 
L -3430.030929 225.417497 
L -3421.982852 224.703447 
L -3413.934775 223.978729 
L -3405.886698 223.215582 
L -3397.838621 222.439035 
L -3389.790544 221.713948 
L -3381.742467 220.892577 
L -3373.69439 220.109278 
L -3365.646313 219.269065 
L -3357.598236 218.49313 
L -3349.550159 217.588334 
L -3341.502082 216.699819 
L -3333.454005 215.834366 
L -3325.405929 214.954023 
L -3317.357852 214.047372 
L -3309.309775 213.101437 
L -3301.261698 212.211117 
L -3293.213621 211.197953 
L -3285.165544 210.300163 
L -3277.117467 209.257406 
L -3269.06939 208.244658 
L -3261.021313 207.253691 
L -3252.973236 206.300207 
L -3244.925159 205.195686 
L -3236.877082 204.191747 
L -3228.829005 202.929489 
L -3220.780929 201.834837 
L -3212.732852 200.8097 
L -3204.684775 199.658345 
L -3196.636698 198.477553 
L -3188.588621 197.125527 
L -3180.540544 195.852679 
L -3172.492467 194.777976 
L -3164.44439 193.114879 
L -3156.396313 191.763167 
L -3148.348236 190.381122 
L -3140.300159 188.9475 
L -3132.252082 187.323154 
L -3124.204005 185.787891 
L -3116.155929 184.604438 
L -3108.107852 183.117212 
L -3100.059775 180.732323 
L -3092.011698 178.70807 
L -3083.963621 177.182051 
L -3075.915544 175.105627 
L -3067.867467 173.547459 
L -3059.81939 172.274957 
L -3051.771313 170.483345 
L -3043.723236 168.023794 
L -3035.675159 166.543316 
L -3027.627082 165.739154 
L -3019.579005 163.926576 
L -3011.530929 163.278942 
L -3003.482852 162.109209 
L -2995.434775 159.941952 
L -2987.386698 160.020787 
L -2979.338621 160.787392 
L -2971.290544 162.506164 
L -2963.242467 160.404488 
L -2955.19439 164.33674 
L -2947.146313 165.153734 
L -2939.098236 159.683108 
L -2931.050159 161.142528 
L -2923.002082 163.467841 
L -2914.954005 161.995564 
L -2906.905929 161.647535 
L -2898.857852 171.852676 
L -2890.809775 186.386605 
L -2882.761698 193.598299 
L -2874.713621 177.726072 
L -2866.665544 185.825834 
L -2858.617467 196.450482 
L -2850.56939 195.799226 
L -2842.521313 217.460126 
L -2834.473236 214.47279 
L -2826.425159 207.81409 
L -2818.377082 191.353407 
L -2810.329005 206.792496 
L -2802.280929 216.070168 
L -2794.232852 212.170823 
L -2786.184775 214.580649 
L -2778.136698 223.339262 
L -2770.088621 222.157509 
L -2762.040544 214.584035 
L -2753.992467 224.07318 
L -2745.94439 225.944397 
L -2737.896313 222.538228 
L -2729.848236 228.555847 
L -2721.800159 230.745635 
L -2713.752082 230.13561 
L -2705.704005 228.290643 
L -2697.655929 230.256657 
L -2689.607852 228.216836 
L -2681.559775 228.37563 
L -2673.511698 230.246217 
L -2665.463621 228.451378 
L -2657.415544 229.356998 
L -2649.367467 229.389631 
L -2641.31939 227.934086 
L -2633.271313 228.44351 
L -2625.223236 226.352672 
L -2617.175159 226.471065 
L -2609.127082 227.025182 
L -2601.079005 227.036067 
L -2593.030929 226.003545 
L -2584.982852 225.116575 
L -2576.934775 224.874103 
L -2568.886698 223.89495 
L -2560.838621 223.718239 
L -2552.790544 223.510361 
L -2544.742467 222.035209 
L -2536.69439 222.6877 
L -2528.646313 221.702761 
L -2520.598236 221.260042 
L -2512.550159 221.257592 
L -2504.502082 220.292826 
L -2496.454005 220.031774 
L -2488.405929 220.321368 
L -2480.357852 220.812154 
L -2472.309775 219.257425 
L -2464.261698 218.971763 
L -2456.213621 218.444078 
L -2448.165544 221.065209 
L -2440.117467 221.106243 
L -2432.06939 222.108195 
L -2424.021313 219.563862 
L -2415.973236 217.988842 
L -2407.925159 218.463988 
L -2399.877082 220.192502 
L -2391.829005 220.469863 
L -2383.780929 217.394404 
L -2375.732852 219.965393 
L -2367.684775 219.304398 
L -2359.636698 218.865155 
L -2351.588621 217.438282 
L -2343.540544 218.574374 
L -2335.492467 217.874425 
L -2327.44439 218.506993 
L -2319.396313 217.573936 
L -2311.348236 216.831618 
L -2303.300159 215.506505 
L -2295.252082 214.861707 
L -2287.204005 214.270751 
L -2279.155929 213.466343 
L -2271.107852 213.273781 
L -2263.059775 212.529113 
L -2255.011698 211.730618 
L -2246.963621 209.655545 
L -2238.915544 208.072641 
L -2230.867467 207.347586 
L -2222.81939 205.618734 
L -2214.771313 205.256753 
L -2206.723236 203.740152 
L -2198.675159 201.517875 
L -2190.627082 199.660416 
L -2182.579005 198.249532 
L -2174.530929 195.947469 
L -2166.482852 194.527339 
L -2158.434775 192.474014 
L -2150.386698 190.656327 
L -2142.338621 188.376828 
L -2134.290544 186.493753 
L -2126.242467 183.942269 
L -2118.19439 181.927772 
L -2110.146313 179.740516 
L -2102.098236 176.839953 
L -2094.050159 174.136552 
L -2086.002082 172.164231 
L -2077.954005 169.78024 
L -2069.905929 166.865 
L -2061.857852 164.690807 
L -2053.809775 162.045493 
L -2045.761698 158.239097 
L -2037.713621 156.58415 
L -2029.665544 153.348265 
L -2021.617467 150.810514 
L -2013.56939 147.921762 
L -2005.521313 144.793493 
L -1997.473236 141.732058 
L -1989.425159 138.950649 
L -1981.377082 135.194622 
L -1973.329005 132.867595 
L -1965.280929 129.197595 
L -1957.232852 126.82789 
L -1949.184775 123.068471 
L -1941.136698 119.441342 
L -1933.088621 116.114818 
L -1925.040544 113.60163 
L -1916.992467 109.458748 
L -1908.94439 106.659178 
L -1900.896313 102.96971 
L -1892.848236 99.964789 
L -1884.800159 96.07428 
L -1876.752082 92.662112 
L -1868.704005 92.169601 
L -1860.655929 85.529881 
L -1852.607852 84.458283 
L -1844.559775 80.577128 
L -1836.511698 77.906924 
L -1828.463621 74.754065 
L -1820.415544 71.388168 
L -1812.367467 68.342559 
L -1804.31939 65.398172 
L -1796.271313 62.623573 
L -1788.223236 59.831295 
L -1780.175159 61.868254 
L -1772.127082 53.741801 
L -1764.079005 51.661799 
L -1756.030929 58.181936 
L -1747.982852 48.385946 
L -1739.934775 49.91642 
L -1731.886698 48.75661 
L -1723.838621 43.609318 
L -1715.790544 44.375302 
L -1707.742467 49.187509 
L -1699.69439 45.479279 
L -1691.646313 43.721682 
L -1683.598236 46.683894 
L -1675.550159 45.439902 
L -1667.502082 47.444147 
L -1659.454005 50.19705 
L -1651.405929 54.972069 
L -1643.357852 66.174712 
L -1635.309775 63.498867 
L -1627.261698 69.535043 
L -1619.213621 74.520665 
L -1611.165544 77.165002 
L -1603.117467 83.540983 
L -1595.06939 87.558201 
L -1587.021313 79.743686 
L -1578.973236 87.148539 
L -1570.925159 99.665274 
L -1562.877082 105.860647 
L -1554.829005 108.740564 
L -1546.780929 125.61216 
L -1538.732852 127.057117 
L -1530.684775 131.723938 
L -1522.636698 130.586686 
L -1514.588621 144.843872 
L -1506.540544 140.549159 
L -1498.492467 138.151212 
L -1490.44439 150.341436 
L -1482.396313 159.026119 
L -1474.348236 158.367908 
L -1466.300159 163.564497 
L -1458.252082 165.325712 
L -1450.204005 165.743443 
L -1442.155929 165.849183 
L -1434.107852 168.786882 
L -1426.059775 170.496133 
L -1418.011698 179.408296 
L -1409.963621 175.032311 
L -1401.915544 182.81836 
L -1393.867467 181.234568 
L -1385.81939 180.346569 
L -1377.771313 183.596425 
L -1369.723236 186.512924 
L -1361.675159 183.179787 
L -1353.627082 185.069614 
L -1345.579005 185.357838 
L -1337.530929 189.693686 
L -1329.482852 187.828806 
L -1321.434775 187.062257 
L -1313.386698 188.452347 
L -1305.338621 190.64613 
L -1297.290544 189.871052 
L -1289.242467 188.094601 
L -1281.19439 189.421845 
L -1273.146313 186.62694 
L -1265.098236 187.161377 
L -1257.050159 192.3336 
L -1249.002082 192.268321 
L -1240.954005 189.708164 
L -1232.905929 189.248335 
L -1224.857852 189.802926 
L -1216.809775 187.027011 
L -1208.761698 187.989108 
L -1200.713621 188.219398 
L -1192.665544 187.822579 
L -1184.617467 187.257528 
L -1176.56939 185.64623 
L -1168.521313 186.99311 
L -1160.473236 185.999324 
L -1152.425159 185.985298 
L -1144.377082 185.584169 
L -1136.329005 185.917485 
L -1128.280929 184.753418 
L -1120.232852 182.44043 
L -1112.184775 182.583613 
L -1104.136698 180.742929 
L -1096.088621 177.97357 
L -1088.040544 180.431771 
L -1079.992467 176.559844 
L -1071.94439 178.518527 
L -1063.896313 177.972869 
L -1055.848236 178.491069 
L -1047.800159 176.074548 
L -1039.752082 176.102587 
L -1031.704005 175.937246 
L -1023.655929 172.8536 
L -1015.607852 173.867511 
L -1007.559775 173.764979 
L -999.511698 173.815914 
L -991.463621 172.425417 
L -983.415544 173.32508 
L -975.367467 171.886799 
L -967.31939 170.504335 
L -959.271313 168.234949 
L -951.223236 167.607477 
L -943.175159 167.238967 
L -935.127082 165.691823 
L -927.079005 166.08002 
L -919.030929 165.392262 
L -910.982852 164.026975 
L -902.934775 164.217943 
L -894.886698 162.645283 
L -886.838621 164.188718 
L -878.790544 163.136946 
L -870.742467 163.322602 
L -862.69439 161.341631 
L -854.646313 158.581721 
L -846.598236 161.153111 
L -838.550159 161.19387 
L -830.502082 160.378597 
L -822.454005 159.524923 
L -814.405929 157.632112 
L -806.357852 157.288141 
L -798.309775 156.291671 
L -790.261698 156.560914 
L -782.213621 156.249152 
L -774.165544 154.439354 
L -766.117467 151.829268 
L -758.06939 155.447038 
L -750.021313 154.714214 
L -741.973236 152.512219 
L -733.925159 154.075994 
L -725.877082 150.069776 
L -717.829005 150.676047 
L -709.780929 151.050212 
L -701.732852 148.379352 
L -693.684775 153.242188 
L -685.636698 148.620319 
L -677.588621 146.3392 
L -669.540544 149.584939 
L -661.492467 150.591396 
L -653.44439 149.257421 
L -645.396313 150.658464 
L -637.348236 148.683831 
L -629.300159 153.165148 
L -621.252082 151.263864 
L -613.204005 152.407809 
L -605.155929 149.793665 
L -597.107852 147.480817 
L -589.059775 151.088181 
L -581.011698 157.330066 
L -572.963621 150.928232 
L -564.915544 151.641521 
L -556.867467 149.456795 
L -548.81939 150.971137 
L -540.771313 150.966576 
L -532.723236 149.731014 
L -524.675159 149.457014 
L -516.627082 152.639902 
L -508.579005 151.435492 
L -500.530929 154.354593 
L -492.482852 155.127298 
L -484.434775 147.755074 
L -476.386698 151.149053 
L -468.338621 151.637967 
L -460.290544 152.384012 
L -452.242467 153.049509 
L -444.19439 158.126744 
L -436.146313 160.257079 
L -428.098236 160.201151 
L -420.050159 165.734602 
L -412.002082 174.803062 
L -403.954005 164.349704 
L -395.905929 164.345239 
L -387.857852 164.670665 
L -379.809775 168.308042 
L -371.761698 169.216348 
L -363.713621 169.289655 
L -355.665544 177.063986 
L -347.617467 180.007159 
L -339.56939 171.413968 
L -331.521313 179.434234 
L -323.473236 175.685947 
L -315.425159 173.421405 
L -307.377082 183.171791 
L -299.329005 181.449785 
L -291.280929 187.846909 
L -283.232852 186.208131 
L -275.184775 182.279285 
L -267.136698 186.416244 
L -259.088621 186.684366 
L -251.040544 190.788398 
L -242.992467 188.707952 
L -234.94439 195.357025 
L -226.896313 191.172623 
L -218.848236 194.825033 
L -210.800159 194.513297 
L -202.752082 198.494249 
L -194.704005 192.933259 
L -186.655929 199.565718 
L -178.607852 199.549693 
L -170.559775 204.194477 
L -162.511698 206.825345 
L -154.463621 207.192448 
L -146.415544 206.428759 
L -138.367467 209.53809 
L -130.31939 211.966293 
L -122.271313 210.458999 
L -114.223236 210.107269 
L -106.175159 212.888136 
L -98.127082 215.429764 
L -90.079005 211.944346 
L -82.030929 210.061839 
L -73.982852 219.11647 
L -65.934775 223.391015 
L -57.886698 214.787914 
L -49.838621 217.721758 
L -41.790544 219.337196 
L -33.742467 220.279638 
L -25.69439 225.050775 
L -17.646313 224.74127 
L -9.598236 223.179886 
L -1.550159 225.369183 
L 6.497918 226.142932 
L 14.545995 221.576895 
L 22.594071 224.215634 
L 30.642148 222.954637 
L 38.690225 229.813416 
L 46.738302 238.16291 
L 54.786379 237.15794 
L 62.834456 230.85315 
L 70.882533 230.315833 
L 78.93061 231.374386 
L 86.978687 231.817471 
L 95.026764 238.006241 
L 103.074841 230.457803 
L 111.122918 238.701644 
L 119.170995 245.338207 
L 127.219071 240.016129 
L 135.267148 248.491836 
L 143.315225 243.375728 
L 151.363302 248.051399 
L 159.411379 245.138635 
L 167.459456 247.513731 
L 175.507533 252.098808 
L 183.55561 251.910203 
L 191.603687 253.410727 
L 199.651764 253.881799 
L 207.699841 254.453838 
L 215.747918 243.632151 
L 223.795995 257.851093 
L 231.844071 263.765926 
L 239.892148 258.2783 
L 247.940225 263.520558 
L 255.988302 264.731044 
L 264.036379 261.878319 
L 272.084456 267.907645 
L 280.132533 272.230765 
L 288.18061 269.860263 
L 296.228687 272.0519 
L 304.276764 273.463941 
L 312.324841 274.994083 
L 320.372918 279.937461 
L 328.420995 270.003695 
L 336.469071 283.813891 
L 344.517148 284.617027 
L 352.565225 285.672899 
L 360.613302 276.247503 
L 368.661379 288.254975 
L 376.709456 296.4831 
L 384.757533 289.066968 
L 392.80561 289.108875 
L 400.853687 306.488493 
L 408.901764 281.039814 
L 416.949841 303.72155 
L 424.997918 287.374412 
L 433.045995 316.012064 
L 441.094071 301.556297 
L 449.142148 316.182218 
L 457.190225 320.706828 
L 465.238302 325.089903 
L 473.286379 327.253547 
L 481.334456 319.856501 
L 489.382533 321.751509 
L 497.43061 330.184449 
L 505.478687 339.929549 
L 513.526764 340.765888 
L 521.574841 340.131391 
L 529.622918 349.984302 
L 537.670995 350.244368 
L 545.719071 343.660238 
L 553.767148 342.986495 
L 561.815225 360.758319 
L 569.863302 362.408627 
L 577.911379 366.164724 
L 585.959456 357.514293 
L 594.007533 337.097891 
L 602.05561 359.270615 
L 610.103687 353.744707 
L 618.151764 359.528976 
L 626.199841 367.294434 
L 634.247918 357.278402 
L 642.295995 370.912082 
L 650.344071 360.137173 
L 658.392148 359.967689 
L 666.440225 361.328457 
L 674.488302 369.571951 
L 682.536379 368.956203 
L 690.584456 367.510519 
L 698.632533 359.278606 
L 706.68061 364.146986 
L 714.728687 367.842878 
L 722.776764 364.321568 
L 730.824841 371.03739 
L 738.872918 366.084116 
L 746.920995 370.571614 
L 754.969071 377.64 
L 763.017148 376.785728 
L 771.065225 370.227209 
L 779.113302 370.652977 
L 787.161379 369.657359 
L 795.209456 373.005895 
L 803.257533 373.151599 
L 811.30561 362.248463 
L 819.353687 371.274335 
L 827.401764 319.340754 
L 835.449841 371.763057 
L 843.497918 375.538517 
L 851.545995 368.137302 
L 859.594071 360.447456 
L 867.642148 375.933157 
L 875.690225 369.33402 
L 883.738302 357.582258 
L 891.786379 365.369358 
L 899.834456 365.739294 
L 907.882533 362.672302 
L 915.93061 370.053366 
L 923.978687 364.882872 
L 932.026764 368.037982 
L 940.074841 370.366797 
L 940.074841 277.820012 
L 940.074841 277.820012 
L 932.026764 282.579917 
L 923.978687 280.57615 
L 915.93061 283.15913 
L 907.882533 280.285088 
L 899.834456 282.185309 
L 891.786379 281.23577 
L 883.738302 282.598566 
L 875.690225 286.907812 
L 867.642148 287.902407 
L 859.594071 285.691383 
L 851.545995 286.791227 
L 843.497918 291.498119 
L 835.449841 289.240986 
L 827.401764 281.336827 
L 819.353687 291.24294 
L 811.30561 290.192895 
L 803.257533 292.99094 
L 795.209456 293.704098 
L 787.161379 293.400748 
L 779.113302 295.287991 
L 771.065225 295.744333 
L 763.017148 298.201373 
L 754.969071 299.218329 
L 746.920995 298.425047 
L 738.872918 297.738414 
L 730.824841 299.081288 
L 722.776764 297.250139 
L 714.728687 298.763203 
L 706.68061 298.779782 
L 698.632533 297.917582 
L 690.584456 301.398663 
L 682.536379 302.37809 
L 674.488302 303.97316 
L 666.440225 300.633261 
L 658.392148 301.374952 
L 650.344071 302.333488 
L 642.295995 306.015097 
L 634.247918 302.049725 
L 626.199841 305.902451 
L 618.151764 303.61864 
L 610.103687 302.291925 
L 602.05561 304.531955 
L 594.007533 298.567795 
L 585.959456 304.501104 
L 577.911379 308.575761 
L 569.863302 307.71789 
L 561.815225 307.292901 
L 553.767148 302.785239 
L 545.719071 302.507912 
L 537.670995 305.136097 
L 529.622918 305.084187 
L 521.574841 302.079977 
L 513.526764 302.310565 
L 505.478687 302.965004 
L 497.43061 297.868369 
L 489.382533 296.318254 
L 481.334456 296.156613 
L 473.286379 299.089006 
L 465.238302 298.414192 
L 457.190225 296.238872 
L 449.142148 294.638458 
L 441.094071 289.66522 
L 433.045995 294.829267 
L 424.997918 278.099794 
L 416.949841 291.480434 
L 408.901764 267.950011 
L 400.853687 292.20298 
L 392.80561 284.197968 
L 384.757533 283.556813 
L 376.709456 289.147828 
L 368.661379 281.99983 
L 360.613302 258.345878 
L 352.565225 275.491624 
L 344.517148 274.968419 
L 336.469071 274.080222 
L 328.420995 246.200243 
L 320.372918 259.69527 
L 312.324841 256.139215 
L 304.276764 253.936014 
L 296.228687 250.587312 
L 288.18061 244.499769 
L 280.132533 249.886296 
L 272.084456 239.389411 
L 264.036379 226.318286 
L 255.988302 236.613585 
L 247.940225 227.929466 
L 239.892148 220.110368 
L 231.844071 231.965853 
L 223.795995 218.346744 
L 215.747918 183.873549 
L 207.699841 208.437834 
L 199.651764 207.096725 
L 191.603687 206.786605 
L 183.55561 203.358232 
L 175.507533 203.110739 
L 167.459456 193.423355 
L 159.411379 189.182303 
L 151.363302 195.988757 
L 143.315225 182.044101 
L 135.267148 195.497672 
L 127.219071 176.28059 
L 119.170995 186.684744 
L 111.122918 173.718853 
L 103.074841 157.732583 
L 95.026764 171.545884 
L 86.978687 157.476317 
L 78.93061 157.953358 
L 70.882533 156.860248 
L 62.834456 157.692033 
L 54.786379 170.07741 
L 46.738302 172.632158 
L 38.690225 156.602993 
L 30.642148 140.143008 
L 22.594071 143.995921 
L 14.545995 140.207748 
L 6.497918 149.584633 
L -1.550159 147.931261 
L -9.598236 143.293074 
L -17.646313 147.852642 
L -25.69439 146.795518 
L -33.742467 138.022362 
L -41.790544 138.32656 
L -49.838621 134.516275 
L -57.886698 129.967916 
L -65.934775 147.609073 
L -73.982852 136.606133 
L -82.030929 121.7726 
L -90.079005 127.86605 
L -98.127082 133.238146 
L -106.175159 128.531187 
L -114.223236 124.738639 
L -122.271313 126.45885 
L -130.31939 132.186624 
L -138.367467 124.524981 
L -146.415544 121.278496 
L -154.463621 123.438356 
L -162.511698 118.381893 
L -170.559775 119.087218 
L -178.607852 109.621813 
L -186.655929 112.151705 
L -194.704005 100.753792 
L -202.752082 109.351538 
L -210.800159 104.341511 
L -218.848236 106.252492 
L -226.896313 102.667583 
L -234.94439 107.695955 
L -242.992467 97.40273 
L -251.040544 102.892478 
L -259.088621 96.251808 
L -267.136698 96.914827 
L -275.184775 91.632448 
L -283.232852 93.671448 
L -291.280929 100.087696 
L -299.329005 93.01881 
L -307.377082 94.25538 
L -315.425159 80.788705 
L -323.473236 86.504393 
L -331.521313 89.256719 
L -339.56939 78.843048 
L -347.617467 89.836476 
L -355.665544 90.441568 
L -363.713621 77.376158 
L -371.761698 77.355607 
L -379.809775 76.204408 
L -387.857852 71.331727 
L -395.905929 74.265003 
L -403.954005 72.839616 
L -412.002082 87.616344 
L -420.050159 76.918526 
L -428.098236 68.94505 
L -436.146313 68.850569 
L -444.19439 66.284401 
L -452.242467 61.31929 
L -460.290544 62.650845 
L -468.338621 59.174491 
L -476.386698 62.333018 
L -484.434775 57.390414 
L -492.482852 65.621808 
L -500.530929 66.345699 
L -508.579005 63.904531 
L -516.627082 65.377163 
L -524.675159 61.605145 
L -532.723236 63.700218 
L -540.771313 64.705339 
L -548.81939 68.27133 
L -556.867467 64.496641 
L -564.915544 68.549236 
L -572.963621 67.121836 
L -581.011698 75.140591 
L -589.059775 68.882946 
L -597.107852 65.332326 
L -605.155929 68.52671 
L -613.204005 69.724477 
L -621.252082 69.40297 
L -629.300159 73.920797 
L -637.348236 69.214992 
L -645.396313 72.149998 
L -653.44439 70.15739 
L -661.492467 70.576114 
L -669.540544 68.775494 
L -677.588621 66.323917 
L -685.636698 69.968671 
L -693.684775 74.938611 
L -701.732852 69.184025 
L -709.780929 71.960366 
L -717.829005 70.281039 
L -725.877082 71.737071 
L -733.925159 75.528692 
L -741.973236 73.81547 
L -750.021313 76.836506 
L -758.06939 77.398976 
L -766.117467 73.32567 
L -774.165544 75.226283 
L -782.213621 77.380122 
L -790.261698 77.953172 
L -798.309775 77.532452 
L -806.357852 78.966894 
L -814.405929 78.362536 
L -822.454005 80.639785 
L -830.502082 81.030109 
L -838.550159 81.28015 
L -846.598236 81.527433 
L -854.646313 76.536452 
L -862.69439 81.335992 
L -870.742467 83.045458 
L -878.790544 82.114951 
L -886.838621 81.926895 
L -894.886698 81.601513 
L -902.934775 82.745862 
L -910.982852 81.884904 
L -919.030929 83.771778 
L -927.079005 84.182058 
L -935.127082 83.254137 
L -943.175159 83.687346 
L -951.223236 84.402852 
L -959.271313 85.151427 
L -967.31939 88.656102 
L -975.367467 89.14723 
L -983.415544 90.598205 
L -991.463621 89.165459 
L -999.511698 90.532941 
L -1007.559775 90.222598 
L -1015.607852 90.290963 
L -1023.655929 87.77316 
L -1031.704005 92.813589 
L -1039.752082 92.762556 
L -1047.800159 92.583093 
L -1055.848236 95.367552 
L -1063.896313 94.566026 
L -1071.94439 95.375567 
L -1079.992467 93.089197 
L -1088.040544 97.095798 
L -1096.088621 95.125859 
L -1104.136698 98.952841 
L -1112.184775 101.488015 
L -1120.232852 101.767978 
L -1128.280929 105.10394 
L -1136.329005 107.574973 
L -1144.377082 106.827071 
L -1152.425159 108.096139 
L -1160.473236 108.006498 
L -1168.521313 109.885024 
L -1176.56939 108.543374 
L -1184.617467 111.424984 
L -1192.665544 113.433185 
L -1200.713621 114.389901 
L -1208.761698 114.731192 
L -1216.809775 114.899592 
L -1224.857852 118.12911 
L -1232.905929 118.487472 
L -1240.954005 120.30717 
L -1249.002082 123.248155 
L -1257.050159 123.865807 
L -1265.098236 120.320767 
L -1273.146313 120.820237 
L -1281.19439 124.171028 
L -1289.242467 124.197998 
L -1297.290544 126.401743 
L -1305.338621 127.897771 
L -1313.386698 126.5188 
L -1321.434775 127.317273 
L -1329.482852 128.424701 
L -1337.530929 130.694183 
L -1345.579005 127.495926 
L -1353.627082 128.450899 
L -1361.675159 128.17388 
L -1369.723236 131.591326 
L -1377.771313 130.869043 
L -1385.81939 128.561896 
L -1393.867467 130.278365 
L -1401.915544 132.062714 
L -1409.963621 126.516639 
L -1418.011698 131.189921 
L -1426.059775 124.732787 
L -1434.107852 124.274937 
L -1442.155929 122.848572 
L -1450.204005 124.170703 
L -1458.252082 124.452919 
L -1466.300159 123.553199 
L -1474.348236 120.438598 
L -1482.396313 122.633664 
L -1490.44439 115.525427 
L -1498.492467 107.963679 
L -1506.540544 109.974384 
L -1514.588621 113.823191 
L -1522.636698 103.068912 
L -1530.684775 103.502879 
L -1538.732852 100.860376 
L -1546.780929 100.107946 
L -1554.829005 86.630762 
L -1562.877082 85.453573 
L -1570.925159 80.474857 
L -1578.973236 69.89518 
L -1587.021313 62.339105 
L -1595.06939 70.491209 
L -1603.117467 66.621763 
L -1611.165544 59.979476 
L -1619.213621 57.027149 
L -1627.261698 52.165688 
L -1635.309775 45.865033 
L -1643.357852 48.969723 
L -1651.405929 37.072537 
L -1659.454005 31.923122 
L -1667.502082 28.87634 
L -1675.550159 26.528014 
L -1683.598236 28.032436 
L -1691.646313 24.84 
L -1699.69439 27.504465 
L -1707.742467 31.569832 
L -1715.790544 25.667714 
L -1723.838621 25.148307 
L -1731.886698 31.27521 
L -1739.934775 32.789209 
L -1747.982852 30.779252 
L -1756.030929 42.582797 
L -1764.079005 34.771324 
L -1772.127082 37.85118 
L -1780.175159 47.265523 
L -1788.223236 44.915269 
L -1796.271313 48.381604 
L -1804.31939 51.332915 
L -1812.367467 54.042556 
L -1820.415544 57.060028 
L -1828.463621 60.243533 
L -1836.511698 63.324736 
L -1844.559775 65.928868 
L -1852.607852 69.563763 
L -1860.655929 70.437811 
L -1868.704005 76.847155 
L -1876.752082 77.019337 
L -1884.800159 80.279773 
L -1892.848236 83.910796 
L -1900.896313 86.663679 
L -1908.94439 90.103537 
L -1916.992467 92.793997 
L -1925.040544 96.721477 
L -1933.088621 99.084521 
L -1941.136698 101.97688 
L -1949.184775 105.373901 
L -1957.232852 108.838453 
L -1965.280929 110.946702 
L -1973.329005 114.292213 
L -1981.377082 116.570908 
L -1989.425159 120.010584 
L -1997.473236 122.674825 
L -2005.521313 125.324698 
L -2013.56939 128.259592 
L -2021.617467 130.861136 
L -2029.665544 133.071572 
L -2037.713621 135.938737 
L -2045.761698 137.391138 
L -2053.809775 140.932766 
L -2061.857852 143.320997 
L -2069.905929 145.42453 
L -2077.954005 147.996682 
L -2086.002082 149.565653 
L -2094.050159 151.844694 
L -2102.098236 154.183202 
L -2110.146313 156.760175 
L -2118.19439 158.727324 
L -2126.242467 160.663206 
L -2134.290544 162.776451 
L -2142.338621 164.809031 
L -2150.386698 166.999303 
L -2158.434775 168.743148 
L -2166.482852 170.643176 
L -2174.530929 172.19024 
L -2182.579005 174.348557 
L -2190.627082 175.897662 
L -2198.675159 177.658161 
L -2206.723236 179.859222 
L -2214.771313 181.372664 
L -2222.81939 181.79218 
L -2230.867467 183.599496 
L -2238.915544 184.50856 
L -2246.963621 186.250998 
L -2255.011698 188.284204 
L -2263.059775 189.31467 
L -2271.107852 190.278947 
L -2279.155929 190.446393 
L -2287.204005 191.463089 
L -2295.252082 192.05735 
L -2303.300159 192.702256 
L -2311.348236 194.152767 
L -2319.396313 194.985319 
L -2327.44439 196.195343 
L -2335.492467 195.462374 
L -2343.540544 196.119504 
L -2351.588621 194.991907 
L -2359.636698 196.688921 
L -2367.684775 196.928467 
L -2375.732852 198.167489 
L -2383.780929 195.475684 
L -2391.829005 198.706255 
L -2399.877082 198.43795 
L -2407.925159 196.576736 
L -2415.973236 196.107489 
L -2424.021313 197.782851 
L -2432.06939 200.676234 
L -2440.117467 199.55606 
L -2448.165544 199.503127 
L -2456.213621 196.601352 
L -2464.261698 196.580293 
L -2472.309775 197.431824 
L -2480.357852 199.224358 
L -2488.405929 198.656827 
L -2496.454005 198.302753 
L -2504.502082 198.599363 
L -2512.550159 199.704957 
L -2520.598236 199.466434 
L -2528.646313 200.172492 
L -2536.69439 201.336712 
L -2544.742467 200.540628 
L -2552.790544 202.221814 
L -2560.838621 202.491113 
L -2568.886698 202.70454 
L -2576.934775 203.770835 
L -2584.982852 204.046896 
L -2593.030929 205.227205 
L -2601.079005 206.514761 
L -2609.127082 206.544513 
L -2617.175159 206.038611 
L -2625.223236 205.678827 
L -2633.271313 208.392384 
L -2641.31939 207.934565 
L -2649.367467 209.761086 
L -2657.415544 209.804583 
L -2665.463621 209.118395 
L -2673.511698 210.926463 
L -2681.559775 209.266616 
L -2689.607852 209.363457 
L -2697.655929 211.657019 
L -2705.704005 210.027534 
L -2713.752082 212.195343 
L -2721.800159 212.899329 
L -2729.848236 211.094602 
L -2737.896313 205.324719 
L -2745.94439 209.036987 
L -2753.992467 207.281356 
L -2762.040544 198.694389 
L -2770.088621 206.041473 
L -2778.136698 207.564403 
L -2786.184775 199.627499 
L -2794.232852 197.468059 
L -2802.280929 201.752805 
L -2810.329005 193.149588 
L -2818.377082 178.276124 
L -2826.425159 194.750768 
L -2834.473236 201.351645 
L -2842.521313 204.642126 
L -2850.56939 184.094744 
L -2858.617467 185.003087 
L -2866.665544 174.611706 
L -2874.713621 166.575605 
L -2882.761698 182.974473 
L -2890.809775 176.062194 
L -2898.857852 161.557761 
L -2906.905929 151.330226 
L -2914.954005 152.048264 
L -2923.002082 153.930945 
L -2931.050159 151.849847 
L -2939.098236 150.651716 
L -2947.146313 156.662952 
L -2955.19439 156.050793 
L -2963.242467 152.305751 
L -2971.290544 154.773557 
L -2979.338621 153.296357 
L -2987.386698 152.793882 
L -2995.434775 153.069752 
L -3003.482852 155.500822 
L -3011.530929 157.005059 
L -3019.579005 157.925396 
L -3027.627082 160.053999 
L -3035.675159 161.107901 
L -3043.723236 162.843795 
L -3051.771313 165.514327 
L -3059.81939 167.661772 
L -3067.867467 169.14201 
L -3075.915544 170.788051 
L -3083.963621 172.90553 
L -3092.011698 174.293664 
L -3100.059775 176.309666 
L -3108.107852 178.734627 
L -3116.155929 180.217342 
L -3124.204005 181.258883 
L -3132.252082 182.783175 
L -3140.300159 184.355856 
L -3148.348236 185.79164 
L -3156.396313 187.165898 
L -3164.44439 188.493784 
L -3172.492467 190.263711 
L -3180.540544 191.207346 
L -3188.588621 192.51269 
L -3196.636698 193.880536 
L -3204.684775 195.057756 
L -3212.732852 196.218729 
L -3220.780929 197.202513 
L -3228.829005 198.269253 
L -3236.877082 199.642814 
L -3244.925159 200.61789 
L -3252.973236 201.739116 
L -3261.021313 202.654486 
L -3269.06939 203.671967 
L -3277.117467 204.714406 
L -3285.165544 205.774511 
L -3293.213621 206.670158 
L -3301.261698 207.718916 
L -3309.309775 208.639479 
L -3317.357852 209.618991 
L -3325.405929 210.51876 
L -3333.454005 211.446104 
L -3341.502082 212.311899 
L -3349.550159 213.23205 
L -3357.598236 214.213047 
L -3365.646313 214.978511 
L -3373.69439 215.907396 
L -3381.742467 216.721514 
L -3389.790544 217.646666 
L -3397.838621 218.336212 
L -3405.886698 219.187024 
L -3413.934775 219.997903 
L -3421.982852 220.770222 
L -3430.030929 221.555706 
L -3438.079005 222.282981 
L -3446.127082 223.129138 
L -3454.175159 223.89175 
L -3462.223236 224.52218 
L -3470.271313 225.269025 
L -3478.31939 226.015058 
L -3486.367467 226.7578 
L -3494.415544 227.475258 
L -3502.463621 228.145453 
L -3510.511698 228.882273 
L -3518.559775 229.605372 
L -3526.607852 230.332581 
L -3534.655929 231.057845 
L -3542.704005 231.802874 
L -3550.752082 232.577232 
L -3558.800159 233.247339 
L -3566.848236 234.012608 
L -3574.896313 234.764251 
L -3582.94439 235.487197 
L -3590.992467 236.233069 
L -3599.040544 236.994381 
L -3607.088621 237.734212 
L -3615.136698 238.510187 
L -3623.184775 239.220357 
L -3631.232852 239.944923 
L -3639.280929 240.710108 
L -3647.329005 241.45059 
L -3655.377082 242.155063 
L -3663.425159 242.899982 
L -3671.473236 243.582842 
L -3679.521313 244.311867 
L -3687.56939 245.087521 
L -3695.617467 245.757531 
L -3703.665544 246.505003 
L -3711.713621 247.214705 
L -3719.761698 247.958314 
L -3727.809775 248.634572 
L -3735.857852 249.42101 
L -3743.905929 250.077807 
L -3751.954005 250.811337 
L -3760.002082 251.529904 
L -3768.050159 252.266186 
L -3776.098236 252.967443 
L -3784.146313 253.681311 
L -3792.19439 254.39797 
L -3800.242467 255.137728 
L -3808.290544 255.826764 
L -3816.338621 256.485214 
L -3824.386698 257.145576 
L -3832.434775 257.798003 
L -3840.482852 258.428611 
L -3848.530929 259.068753 
L -3856.579005 259.700874 
L -3864.627082 260.305125 
L -3872.675159 260.915377 
L -3880.723236 261.521781 
L -3888.771313 262.075392 
L -3896.81939 262.637156 
L -3904.867467 263.221195 
L -3912.915544 263.775015 
L -3920.963621 264.27233 
L -3929.011698 264.816829 
L -3937.059775 265.315622 
L -3945.107852 265.776226 
L -3953.155929 266.23608 
L -3961.204005 266.666656 
L -3969.252082 267.128279 
L -3977.300159 267.512465 
L -3985.348236 267.916369 
L -3993.396313 268.296881 
L -4001.44439 268.65008 
L -4009.492467 268.972803 
L -4017.540544 269.266955 
L -4025.588621 269.558626 
L -4033.636698 269.847278 
L -4041.684775 270.088185 
L -4049.732852 270.35525 
L -4057.780929 270.582942 
L -4065.829005 270.780443 
L -4073.877082 271.009544 
L -4081.925159 271.211083 
L -4089.973236 271.379446 
L -4098.021313 271.559057 
L -4106.06939 271.733673 
L -4114.117467 271.888098 
L -4122.165544 272.042802 
L -4130.213621 272.172079 
L -4138.261698 272.326276 
L -4146.309775 272.450484 
L -4154.357852 272.580444 
L -4162.405929 272.716256 
L -4170.454005 272.828331 
L -4178.502082 272.946472 
L -4186.550159 273.098563 
L -4194.598236 273.207942 
L -4202.646313 273.340259 
L -4210.69439 273.446258 
L -4218.742467 273.584993 
L -4226.790544 273.695931 
L -4234.838621 273.811833 
L -4242.886698 273.914114 
L -4250.934775 274.006793 
L -4258.982852 274.112314 
L -4267.030929 274.226393 
L -4275.079005 274.337535 
L -4283.127082 274.433264 
L -4291.175159 274.511429 
L -4299.223236 274.621332 
L -4307.271313 274.712381 
L -4315.31939 274.821053 
z
" clip-path="url(#p72d853a0bf)" style="fill: #008000; fill-opacity: 0.3; stroke: #008000; stroke-opacity: 0.3"/>
   </g>
   <g id="matplotlib.axis_1">
    <g id="xtick_1">
     <g id="line2d_1">
      <defs>
       <path id="m4400d37f0c" d="M 0 0 
L 0 3.5 
" style="stroke: #000000; stroke-width: 0.8"/>
      </defs>
      <g>
       <use xlink:href="#m4400d37f0c" x="103.074841" y="395.28" style="stroke: #000000; stroke-width: 0.8"/>
      </g>
     </g>
     <g id="text_1">
      <!-- 2023-01-01 -->
      <g transform="translate(17.945813 495.213718) rotate(-45) scale(0.2 -0.2)">
       <defs>
        <path id="DejaVuSans-32" d="M 1228 531 
L 3431 531 
L 3431 0 
L 469 0 
L 469 531 
Q 828 903 1448 1529 
Q 2069 2156 2228 2338 
Q 2531 2678 2651 2914 
Q 2772 3150 2772 3378 
Q 2772 3750 2511 3984 
Q 2250 4219 1831 4219 
Q 1534 4219 1204 4116 
Q 875 4013 500 3803 
L 500 4441 
Q 881 4594 1212 4672 
Q 1544 4750 1819 4750 
Q 2544 4750 2975 4387 
Q 3406 4025 3406 3419 
Q 3406 3131 3298 2873 
Q 3191 2616 2906 2266 
Q 2828 2175 2409 1742 
Q 1991 1309 1228 531 
z
" transform="scale(0.015625)"/>
        <path id="DejaVuSans-30" d="M 2034 4250 
Q 1547 4250 1301 3770 
Q 1056 3291 1056 2328 
Q 1056 1369 1301 889 
Q 1547 409 2034 409 
Q 2525 409 2770 889 
Q 3016 1369 3016 2328 
Q 3016 3291 2770 3770 
Q 2525 4250 2034 4250 
z
M 2034 4750 
Q 2819 4750 3233 4129 
Q 3647 3509 3647 2328 
Q 3647 1150 3233 529 
Q 2819 -91 2034 -91 
Q 1250 -91 836 529 
Q 422 1150 422 2328 
Q 422 3509 836 4129 
Q 1250 4750 2034 4750 
z
" transform="scale(0.015625)"/>
        <path id="DejaVuSans-33" d="M 2597 2516 
Q 3050 2419 3304 2112 
Q 3559 1806 3559 1356 
Q 3559 666 3084 287 
Q 2609 -91 1734 -91 
Q 1441 -91 1130 -33 
Q 819 25 488 141 
L 488 750 
Q 750 597 1062 519 
Q 1375 441 1716 441 
Q 2309 441 2620 675 
Q 2931 909 2931 1356 
Q 2931 1769 2642 2001 
Q 2353 2234 1838 2234 
L 1294 2234 
L 1294 2753 
L 1863 2753 
Q 2328 2753 2575 2939 
Q 2822 3125 2822 3475 
Q 2822 3834 2567 4026 
Q 2313 4219 1838 4219 
Q 1578 4219 1281 4162 
Q 984 4106 628 3988 
L 628 4550 
Q 988 4650 1302 4700 
Q 1616 4750 1894 4750 
Q 2613 4750 3031 4423 
Q 3450 4097 3450 3541 
Q 3450 3153 3228 2886 
Q 3006 2619 2597 2516 
z
" transform="scale(0.015625)"/>
        <path id="DejaVuSans-2d" d="M 313 2009 
L 1997 2009 
L 1997 1497 
L 313 1497 
L 313 2009 
z
" transform="scale(0.015625)"/>
        <path id="DejaVuSans-31" d="M 794 531 
L 1825 531 
L 1825 4091 
L 703 3866 
L 703 4441 
L 1819 4666 
L 2450 4666 
L 2450 531 
L 3481 531 
L 3481 0 
L 794 0 
L 794 531 
z
" transform="scale(0.015625)"/>
       </defs>
       <use xlink:href="#DejaVuSans-32"/>
       <use xlink:href="#DejaVuSans-30" x="63.623047"/>
       <use xlink:href="#DejaVuSans-32" x="127.246094"/>
       <use xlink:href="#DejaVuSans-33" x="190.869141"/>
       <use xlink:href="#DejaVuSans-2d" x="254.492188"/>
       <use xlink:href="#DejaVuSans-30" x="290.576172"/>
       <use xlink:href="#DejaVuSans-31" x="354.199219"/>
       <use xlink:href="#DejaVuSans-2d" x="417.822266"/>
       <use xlink:href="#DejaVuSans-30" x="453.90625"/>
       <use xlink:href="#DejaVuSans-31" x="517.529297"/>
      </g>
     </g>
    </g>
    <g id="xtick_2">
     <g id="line2d_2">
      <g>
       <use xlink:href="#m4400d37f0c" x="215.747918" y="395.28" style="stroke: #000000; stroke-width: 0.8"/>
      </g>
     </g>
     <g id="text_2">
      <!-- 2023-01-15 -->
      <g transform="translate(130.61889 495.213718) rotate(-45) scale(0.2 -0.2)">
       <defs>
        <path id="DejaVuSans-35" d="M 691 4666 
L 3169 4666 
L 3169 4134 
L 1269 4134 
L 1269 2991 
Q 1406 3038 1543 3061 
Q 1681 3084 1819 3084 
Q 2600 3084 3056 2656 
Q 3513 2228 3513 1497 
Q 3513 744 3044 326 
Q 2575 -91 1722 -91 
Q 1428 -91 1123 -41 
Q 819 9 494 109 
L 494 744 
Q 775 591 1075 516 
Q 1375 441 1709 441 
Q 2250 441 2565 725 
Q 2881 1009 2881 1497 
Q 2881 1984 2565 2268 
Q 2250 2553 1709 2553 
Q 1456 2553 1204 2497 
Q 953 2441 691 2322 
L 691 4666 
z
" transform="scale(0.015625)"/>
       </defs>
       <use xlink:href="#DejaVuSans-32"/>
       <use xlink:href="#DejaVuSans-30" x="63.623047"/>
       <use xlink:href="#DejaVuSans-32" x="127.246094"/>
       <use xlink:href="#DejaVuSans-33" x="190.869141"/>
       <use xlink:href="#DejaVuSans-2d" x="254.492188"/>
       <use xlink:href="#DejaVuSans-30" x="290.576172"/>
       <use xlink:href="#DejaVuSans-31" x="354.199219"/>
       <use xlink:href="#DejaVuSans-2d" x="417.822266"/>
       <use xlink:href="#DejaVuSans-31" x="453.90625"/>
       <use xlink:href="#DejaVuSans-35" x="517.529297"/>
      </g>
     </g>
    </g>
    <g id="xtick_3">
     <g id="line2d_3">
      <g>
       <use xlink:href="#m4400d37f0c" x="328.420995" y="395.28" style="stroke: #000000; stroke-width: 0.8"/>
      </g>
     </g>
     <g id="text_3">
      <!-- 2023-01-29 -->
      <g transform="translate(243.291967 495.213718) rotate(-45) scale(0.2 -0.2)">
       <defs>
        <path id="DejaVuSans-39" d="M 703 97 
L 703 672 
Q 941 559 1184 500 
Q 1428 441 1663 441 
Q 2288 441 2617 861 
Q 2947 1281 2994 2138 
Q 2813 1869 2534 1725 
Q 2256 1581 1919 1581 
Q 1219 1581 811 2004 
Q 403 2428 403 3163 
Q 403 3881 828 4315 
Q 1253 4750 1959 4750 
Q 2769 4750 3195 4129 
Q 3622 3509 3622 2328 
Q 3622 1225 3098 567 
Q 2575 -91 1691 -91 
Q 1453 -91 1209 -44 
Q 966 3 703 97 
z
M 1959 2075 
Q 2384 2075 2632 2365 
Q 2881 2656 2881 3163 
Q 2881 3666 2632 3958 
Q 2384 4250 1959 4250 
Q 1534 4250 1286 3958 
Q 1038 3666 1038 3163 
Q 1038 2656 1286 2365 
Q 1534 2075 1959 2075 
z
" transform="scale(0.015625)"/>
       </defs>
       <use xlink:href="#DejaVuSans-32"/>
       <use xlink:href="#DejaVuSans-30" x="63.623047"/>
       <use xlink:href="#DejaVuSans-32" x="127.246094"/>
       <use xlink:href="#DejaVuSans-33" x="190.869141"/>
       <use xlink:href="#DejaVuSans-2d" x="254.492188"/>
       <use xlink:href="#DejaVuSans-30" x="290.576172"/>
       <use xlink:href="#DejaVuSans-31" x="354.199219"/>
       <use xlink:href="#DejaVuSans-2d" x="417.822266"/>
       <use xlink:href="#DejaVuSans-32" x="453.90625"/>
       <use xlink:href="#DejaVuSans-39" x="517.529297"/>
      </g>
     </g>
    </g>
    <g id="xtick_4">
     <g id="line2d_4">
      <g>
       <use xlink:href="#m4400d37f0c" x="441.094071" y="395.28" style="stroke: #000000; stroke-width: 0.8"/>
      </g>
     </g>
     <g id="text_4">
      <!-- 2023-02-12 -->
      <g transform="translate(355.965044 495.213718) rotate(-45) scale(0.2 -0.2)">
       <use xlink:href="#DejaVuSans-32"/>
       <use xlink:href="#DejaVuSans-30" x="63.623047"/>
       <use xlink:href="#DejaVuSans-32" x="127.246094"/>
       <use xlink:href="#DejaVuSans-33" x="190.869141"/>
       <use xlink:href="#DejaVuSans-2d" x="254.492188"/>
       <use xlink:href="#DejaVuSans-30" x="290.576172"/>
       <use xlink:href="#DejaVuSans-32" x="354.199219"/>
       <use xlink:href="#DejaVuSans-2d" x="417.822266"/>
       <use xlink:href="#DejaVuSans-31" x="453.90625"/>
       <use xlink:href="#DejaVuSans-32" x="517.529297"/>
      </g>
     </g>
    </g>
    <g id="xtick_5">
     <g id="line2d_5">
      <g>
       <use xlink:href="#m4400d37f0c" x="553.767148" y="395.28" style="stroke: #000000; stroke-width: 0.8"/>
      </g>
     </g>
     <g id="text_5">
      <!-- 2023-02-26 -->
      <g transform="translate(468.638121 495.213718) rotate(-45) scale(0.2 -0.2)">
       <defs>
        <path id="DejaVuSans-36" d="M 2113 2584 
Q 1688 2584 1439 2293 
Q 1191 2003 1191 1497 
Q 1191 994 1439 701 
Q 1688 409 2113 409 
Q 2538 409 2786 701 
Q 3034 994 3034 1497 
Q 3034 2003 2786 2293 
Q 2538 2584 2113 2584 
z
M 3366 4563 
L 3366 3988 
Q 3128 4100 2886 4159 
Q 2644 4219 2406 4219 
Q 1781 4219 1451 3797 
Q 1122 3375 1075 2522 
Q 1259 2794 1537 2939 
Q 1816 3084 2150 3084 
Q 2853 3084 3261 2657 
Q 3669 2231 3669 1497 
Q 3669 778 3244 343 
Q 2819 -91 2113 -91 
Q 1303 -91 875 529 
Q 447 1150 447 2328 
Q 447 3434 972 4092 
Q 1497 4750 2381 4750 
Q 2619 4750 2861 4703 
Q 3103 4656 3366 4563 
z
" transform="scale(0.015625)"/>
       </defs>
       <use xlink:href="#DejaVuSans-32"/>
       <use xlink:href="#DejaVuSans-30" x="63.623047"/>
       <use xlink:href="#DejaVuSans-32" x="127.246094"/>
       <use xlink:href="#DejaVuSans-33" x="190.869141"/>
       <use xlink:href="#DejaVuSans-2d" x="254.492188"/>
       <use xlink:href="#DejaVuSans-30" x="290.576172"/>
       <use xlink:href="#DejaVuSans-32" x="354.199219"/>
       <use xlink:href="#DejaVuSans-2d" x="417.822266"/>
       <use xlink:href="#DejaVuSans-32" x="453.90625"/>
       <use xlink:href="#DejaVuSans-36" x="517.529297"/>
      </g>
     </g>
    </g>
    <g id="xtick_6">
     <g id="line2d_6">
      <g>
       <use xlink:href="#m4400d37f0c" x="666.440225" y="395.28" style="stroke: #000000; stroke-width: 0.8"/>
      </g>
     </g>
     <g id="text_6">
      <!-- 2023-03-12 -->
      <g transform="translate(581.311198 495.213718) rotate(-45) scale(0.2 -0.2)">
       <use xlink:href="#DejaVuSans-32"/>
       <use xlink:href="#DejaVuSans-30" x="63.623047"/>
       <use xlink:href="#DejaVuSans-32" x="127.246094"/>
       <use xlink:href="#DejaVuSans-33" x="190.869141"/>
       <use xlink:href="#DejaVuSans-2d" x="254.492188"/>
       <use xlink:href="#DejaVuSans-30" x="290.576172"/>
       <use xlink:href="#DejaVuSans-33" x="354.199219"/>
       <use xlink:href="#DejaVuSans-2d" x="417.822266"/>
       <use xlink:href="#DejaVuSans-31" x="453.90625"/>
       <use xlink:href="#DejaVuSans-32" x="517.529297"/>
      </g>
     </g>
    </g>
    <g id="xtick_7">
     <g id="line2d_7">
      <g>
       <use xlink:href="#m4400d37f0c" x="779.113302" y="395.28" style="stroke: #000000; stroke-width: 0.8"/>
      </g>
     </g>
     <g id="text_7">
      <!-- 2023-03-26 -->
      <g transform="translate(693.984275 495.213718) rotate(-45) scale(0.2 -0.2)">
       <use xlink:href="#DejaVuSans-32"/>
       <use xlink:href="#DejaVuSans-30" x="63.623047"/>
       <use xlink:href="#DejaVuSans-32" x="127.246094"/>
       <use xlink:href="#DejaVuSans-33" x="190.869141"/>
       <use xlink:href="#DejaVuSans-2d" x="254.492188"/>
       <use xlink:href="#DejaVuSans-30" x="290.576172"/>
       <use xlink:href="#DejaVuSans-33" x="354.199219"/>
       <use xlink:href="#DejaVuSans-2d" x="417.822266"/>
       <use xlink:href="#DejaVuSans-32" x="453.90625"/>
       <use xlink:href="#DejaVuSans-36" x="517.529297"/>
      </g>
     </g>
    </g>
    <g id="xtick_8">
     <g id="line2d_8">
      <g>
       <use xlink:href="#m4400d37f0c" x="891.786379" y="395.28" style="stroke: #000000; stroke-width: 0.8"/>
      </g>
     </g>
     <g id="text_8">
      <!-- 2023-04-09 -->
      <g transform="translate(806.657352 495.213718) rotate(-45) scale(0.2 -0.2)">
       <defs>
        <path id="DejaVuSans-34" d="M 2419 4116 
L 825 1625 
L 2419 1625 
L 2419 4116 
z
M 2253 4666 
L 3047 4666 
L 3047 1625 
L 3713 1625 
L 3713 1100 
L 3047 1100 
L 3047 0 
L 2419 0 
L 2419 1100 
L 313 1100 
L 313 1709 
L 2253 4666 
z
" transform="scale(0.015625)"/>
       </defs>
       <use xlink:href="#DejaVuSans-32"/>
       <use xlink:href="#DejaVuSans-30" x="63.623047"/>
       <use xlink:href="#DejaVuSans-32" x="127.246094"/>
       <use xlink:href="#DejaVuSans-33" x="190.869141"/>
       <use xlink:href="#DejaVuSans-2d" x="254.492188"/>
       <use xlink:href="#DejaVuSans-30" x="290.576172"/>
       <use xlink:href="#DejaVuSans-34" x="354.199219"/>
       <use xlink:href="#DejaVuSans-2d" x="417.822266"/>
       <use xlink:href="#DejaVuSans-30" x="453.90625"/>
       <use xlink:href="#DejaVuSans-39" x="517.529297"/>
      </g>
     </g>
    </g>
    <g id="xtick_9">
     <g id="line2d_9">
      <g>
       <use xlink:href="#m4400d37f0c" x="940.074841" y="395.28" style="stroke: #000000; stroke-width: 0.8"/>
      </g>
     </g>
     <g id="text_9">
      <!-- 2023-04-15 -->
      <g transform="translate(854.945813 495.213718) rotate(-45) scale(0.2 -0.2)">
       <use xlink:href="#DejaVuSans-32"/>
       <use xlink:href="#DejaVuSans-30" x="63.623047"/>
       <use xlink:href="#DejaVuSans-32" x="127.246094"/>
       <use xlink:href="#DejaVuSans-33" x="190.869141"/>
       <use xlink:href="#DejaVuSans-2d" x="254.492188"/>
       <use xlink:href="#DejaVuSans-30" x="290.576172"/>
       <use xlink:href="#DejaVuSans-34" x="354.199219"/>
       <use xlink:href="#DejaVuSans-2d" x="417.822266"/>
       <use xlink:href="#DejaVuSans-31" x="453.90625"/>
       <use xlink:href="#DejaVuSans-35" x="517.529297"/>
      </g>
     </g>
    </g>
   </g>
   <g id="matplotlib.axis_2">
    <g id="ytick_1">
     <g id="line2d_10">
      <defs>
       <path id="m47fde4dac7" d="M 0 0 
L -3.5 0 
" style="stroke: #000000; stroke-width: 0.8"/>
      </defs>
      <g>
       <use xlink:href="#m47fde4dac7" x="103.074841" y="351.374501" style="stroke: #000000; stroke-width: 0.8"/>
      </g>
     </g>
     <g id="text_10">
      <!-- −0.05 -->
      <g transform="translate(34.784216 358.972938) scale(0.2 -0.2)">
       <defs>
        <path id="DejaVuSans-2212" d="M 678 2272 
L 4684 2272 
L 4684 1741 
L 678 1741 
L 678 2272 
z
" transform="scale(0.015625)"/>
        <path id="DejaVuSans-2e" d="M 684 794 
L 1344 794 
L 1344 0 
L 684 0 
L 684 794 
z
" transform="scale(0.015625)"/>
       </defs>
       <use xlink:href="#DejaVuSans-2212"/>
       <use xlink:href="#DejaVuSans-30" x="83.789062"/>
       <use xlink:href="#DejaVuSans-2e" x="147.412109"/>
       <use xlink:href="#DejaVuSans-30" x="179.199219"/>
       <use xlink:href="#DejaVuSans-35" x="242.822266"/>
      </g>
     </g>
    </g>
    <g id="ytick_2">
     <g id="line2d_11">
      <g>
       <use xlink:href="#m47fde4dac7" x="103.074841" y="274.923474" style="stroke: #000000; stroke-width: 0.8"/>
      </g>
     </g>
     <g id="text_11">
      <!-- 0.00 -->
      <g transform="translate(51.543591 282.521911) scale(0.2 -0.2)">
       <use xlink:href="#DejaVuSans-30"/>
       <use xlink:href="#DejaVuSans-2e" x="63.623047"/>
       <use xlink:href="#DejaVuSans-30" x="95.410156"/>
       <use xlink:href="#DejaVuSans-30" x="159.033203"/>
      </g>
     </g>
    </g>
    <g id="ytick_3">
     <g id="line2d_12">
      <g>
       <use xlink:href="#m47fde4dac7" x="103.074841" y="198.472447" style="stroke: #000000; stroke-width: 0.8"/>
      </g>
     </g>
     <g id="text_12">
      <!-- 0.05 -->
      <g transform="translate(51.543591 206.070885) scale(0.2 -0.2)">
       <use xlink:href="#DejaVuSans-30"/>
       <use xlink:href="#DejaVuSans-2e" x="63.623047"/>
       <use xlink:href="#DejaVuSans-30" x="95.410156"/>
       <use xlink:href="#DejaVuSans-35" x="159.033203"/>
      </g>
     </g>
    </g>
    <g id="ytick_4">
     <g id="line2d_13">
      <g>
       <use xlink:href="#m47fde4dac7" x="103.074841" y="122.021421" style="stroke: #000000; stroke-width: 0.8"/>
      </g>
     </g>
     <g id="text_13">
      <!-- 0.10 -->
      <g transform="translate(51.543591 129.619858) scale(0.2 -0.2)">
       <use xlink:href="#DejaVuSans-30"/>
       <use xlink:href="#DejaVuSans-2e" x="63.623047"/>
       <use xlink:href="#DejaVuSans-31" x="95.410156"/>
       <use xlink:href="#DejaVuSans-30" x="159.033203"/>
      </g>
     </g>
    </g>
    <g id="ytick_5">
     <g id="line2d_14">
      <g>
       <use xlink:href="#m47fde4dac7" x="103.074841" y="45.570394" style="stroke: #000000; stroke-width: 0.8"/>
      </g>
     </g>
     <g id="text_14">
      <!-- 0.15 -->
      <g transform="translate(51.543591 53.168831) scale(0.2 -0.2)">
       <use xlink:href="#DejaVuSans-30"/>
       <use xlink:href="#DejaVuSans-2e" x="63.623047"/>
       <use xlink:href="#DejaVuSans-31" x="95.410156"/>
       <use xlink:href="#DejaVuSans-35" x="159.033203"/>
      </g>
     </g>
    </g>
   </g>
   <g id="line2d_15">
    <path d="M 940.074841 274.923474 
" clip-path="url(#p72d853a0bf)" style="fill: none; stroke: #ffa500; stroke-width: 1.5; stroke-linecap: square"/>
   </g>
   <g id="line2d_16">
    <path d="M 103.074841 274.923474 
L 948.274841 274.923474 
" clip-path="url(#p72d853a0bf)" style="fill: none; stroke-dasharray: 7.4,3.2; stroke-dashoffset: 0; stroke: #000000; stroke-width: 2"/>
   </g>
   <g id="patch_3">
    <path d="M 103.074841 395.28 
L 103.074841 7.2 
" style="fill: none; stroke: #000000; stroke-width: 0.8; stroke-linejoin: miter; stroke-linecap: square"/>
   </g>
   <g id="patch_4">
    <path d="M 940.074841 395.28 
L 940.074841 7.2 
" style="fill: none; stroke: #000000; stroke-width: 0.8; stroke-linejoin: miter; stroke-linecap: square"/>
   </g>
   <g id="patch_5">
    <path d="M 103.074841 395.28 
L 940.074841 395.28 
" style="fill: none; stroke: #000000; stroke-width: 0.8; stroke-linejoin: miter; stroke-linecap: square"/>
   </g>
   <g id="patch_6">
    <path d="M 103.074841 7.2 
L 940.074841 7.2 
" style="fill: none; stroke: #000000; stroke-width: 0.8; stroke-linejoin: miter; stroke-linecap: square"/>
   </g>
  </g>
 </g>
 <defs>
  <clipPath id="p72d853a0bf">
   <rect x="103.074841" y="7.2" width="837" height="388.08"/>
  </clipPath>
 </defs>
</svg>
