<?xml version="1.0" encoding="utf-8" standalone="no"?>
<!DOCTYPE svg PUBLIC "-//W3C//DTD SVG 1.1//EN"
  "http://www.w3.org/Graphics/SVG/1.1/DTD/svg11.dtd">
<svg xmlns:xlink="http://www.w3.org/1999/xlink" width="947.274841pt" height="505.354841pt" viewBox="0 0 947.274841 505.354841" xmlns="http://www.w3.org/2000/svg" version="1.1">
 <metadata>
  <rdf:RDF xmlns:dc="http://purl.org/dc/elements/1.1/" xmlns:cc="http://creativecommons.org/ns#" xmlns:rdf="http://www.w3.org/1999/02/22-rdf-syntax-ns#">
   <cc:Work>
    <dc:type rdf:resource="http://purl.org/dc/dcmitype/StillImage"/>
    <dc:date>2023-11-12T22:43:52.107658</dc:date>
    <dc:format>image/svg+xml</dc:format>
    <dc:creator>
     <cc:Agent>
      <dc:title>Matplotlib v3.7.2, https://matplotlib.org/</dc:title>
     </cc:Agent>
    </dc:creator>
   </cc:Work>
  </rdf:RDF>
 </metadata>
 <defs>
  <style type="text/css">*{stroke-linejoin: round; stroke-linecap: butt}</style>
 </defs>
 <g id="figure_1">
  <g id="patch_1">
   <path d="M 0 505.354841 
L 947.274841 505.354841 
L 947.274841 -0 
L 0 -0 
z
" style="fill: #ffffff"/>
  </g>
  <g id="axes_1">
   <g id="patch_2">
    <path d="M 103.074841 395.28 
L 940.074841 395.28 
L 940.074841 7.2 
L 103.074841 7.2 
z
" style="fill: #ffffff"/>
   </g>
   <g id="PolyCollection_1">
    <path d="M -4315.31939 196.732965 
L -4315.31939 196.751667 
L -4307.271313 196.654245 
L -4299.223236 196.570243 
L -4291.175159 196.46361 
L -4283.127082 196.393151 
L -4275.079005 196.31305 
L -4267.030929 196.222078 
L -4258.982852 196.132167 
L -4250.934775 196.04798 
L -4242.886698 195.974435 
L -4234.838621 195.889024 
L -4226.790544 195.799557 
L -4218.742467 195.712836 
L -4210.69439 195.60592 
L -4202.646313 195.517789 
L -4194.598236 195.413708 
L -4186.550159 195.325116 
L -4178.502082 195.2047 
L -4170.454005 195.106273 
L -4162.405929 195.011618 
L -4154.357852 194.899215 
L -4146.309775 194.789811 
L -4138.261698 194.683003 
L -4130.213621 194.553619 
L -4122.165544 194.440946 
L -4114.117467 194.308635 
L -4106.06939 194.174789 
L -4098.021313 194.026546 
L -4089.973236 193.874333 
L -4081.925159 193.725753 
L -4073.877082 193.553474 
L -4065.829005 193.358784 
L -4057.780929 193.186403 
L -4049.732852 192.989881 
L -4041.684775 192.764871 
L -4033.636698 192.556257 
L -4025.588621 192.310851 
L -4017.540544 192.06213 
L -4009.492467 191.806062 
L -4001.44439 191.535503 
L -3993.396313 191.235135 
L -3985.348236 190.915228 
L -3977.300159 190.576235 
L -3969.252082 190.250591 
L -3961.204005 189.866614 
L -3953.155929 189.50287 
L -3945.107852 189.115078 
L -3937.059775 188.72646 
L -3929.011698 188.307474 
L -3920.963621 187.853478 
L -3912.915544 187.434864 
L -3904.867467 186.967357 
L -3896.81939 186.483744 
L -3888.771313 186.010769 
L -3880.723236 185.543484 
L -3872.675159 185.035268 
L -3864.627082 184.52184 
L -3856.579005 184.009672 
L -3848.530929 183.476334 
L -3840.482852 182.937241 
L -3832.434775 182.399689 
L -3824.386698 181.84323 
L -3816.338621 181.285672 
L -3808.290544 180.737302 
L -3800.242467 180.165623 
L -3792.19439 179.552639 
L -3784.146313 178.959561 
L -3776.098236 178.368135 
L -3768.050159 177.786443 
L -3760.002082 177.179823 
L -3751.954005 176.587764 
L -3743.905929 175.985093 
L -3735.857852 175.443094 
L -3727.809775 174.800787 
L -3719.761698 174.246513 
L -3711.713621 173.636985 
L -3703.665544 173.057183 
L -3695.617467 172.447556 
L -3687.56939 171.911417 
L -3679.521313 171.292578 
L -3671.473236 170.711899 
L -3663.425159 170.164905 
L -3655.377082 169.579021 
L -3647.329005 169.02604 
L -3639.280929 168.446348 
L -3631.232852 167.85484 
L -3623.184775 167.293103 
L -3615.136698 166.746292 
L -3607.088621 166.155482 
L -3599.040544 165.587926 
L -3590.992467 165.008887 
L -3582.94439 164.447168 
L -3574.896313 163.89886 
L -3566.848236 163.334625 
L -3558.800159 162.764428 
L -3550.752082 162.25225 
L -3542.704005 161.669782 
L -3534.655929 161.111987 
L -3526.607852 160.563195 
L -3518.559775 160.013422 
L -3510.511698 159.464805 
L -3502.463621 158.908612 
L -3494.415544 158.378335 
L -3486.367467 157.825911 
L -3478.31939 157.259237 
L -3470.271313 156.685902 
L -3462.223236 156.106064 
L -3454.175159 155.563463 
L -3446.127082 154.965426 
L -3438.079005 154.3273 
L -3430.030929 153.728343 
L -3421.982852 153.096261 
L -3413.934775 152.454456 
L -3405.886698 151.776504 
L -3397.838621 151.086381 
L -3389.790544 150.445602 
L -3381.742467 149.713783 
L -3373.69439 149.018584 
L -3365.646313 148.270052 
L -3357.598236 147.583437 
L -3349.550159 146.775289 
L -3341.502082 145.983729 
L -3333.454005 145.214553 
L -3325.405929 144.431857 
L -3317.357852 143.624841 
L -3309.309775 142.781329 
L -3301.261698 141.991536 
L -3293.213621 141.086229 
L -3285.165544 140.291219 
L -3277.117467 139.359419 
L -3269.06939 138.456946 
L -3261.021313 137.57616 
L -3252.973236 136.731724 
L -3244.925159 135.745048 
L -3236.877082 134.854872 
L -3228.829005 133.720837 
L -3220.780929 132.746662 
L -3212.732852 131.839814 
L -3204.684775 130.81486 
L -3196.636698 129.763494 
L -3188.588621 128.55152 
L -3180.540544 127.416887 
L -3172.492467 126.472068 
L -3164.44439 124.970794 
L -3156.396313 123.767651 
L -3148.348236 122.538334 
L -3140.300159 121.263473 
L -3132.252082 119.811072 
L -3124.204005 118.446562 
L -3116.155929 117.419644 
L -3108.107852 116.108242 
L -3100.059775 113.949666 
L -3092.011698 112.137172 
L -3083.963621 110.801502 
L -3075.915544 108.948579 
L -3067.867467 107.413956 
L -3059.81939 106.07982 
L -3051.771313 104.049404 
L -3043.723236 101.738668 
L -3035.675159 100.162366 
L -3027.627082 99.158372 
L -3019.579005 97.229359 
L -3011.530929 96.374059 
L -3003.482852 95.357709 
L -2995.434775 93.410532 
L -2987.386698 93.592475 
L -2979.338621 94.42336 
L -2971.290544 96.15245 
L -2963.242467 94.253178 
L -2955.19439 98.069741 
L -2947.146313 98.924039 
L -2939.098236 93.812419 
L -2931.050159 95.267754 
L -2923.002082 97.53681 
L -2914.954005 96.197746 
L -2906.905929 95.919763 
L -2898.857852 105.638681 
L -2890.809775 119.444539 
L -2882.761698 126.292948 
L -2874.713621 111.24796 
L -2866.665544 118.922372 
L -2858.617467 128.978483 
L -2850.56939 128.334307 
L -2842.521313 148.829844 
L -2834.473236 145.943399 
L -2826.425159 139.57329 
L -2818.377082 123.907527 
L -2810.329005 138.489116 
L -2802.280929 147.219365 
L -2794.232852 143.449469 
L -2786.184775 145.660301 
L -2778.136698 153.885728 
L -2770.088621 152.675409 
L -2762.040544 145.404129 
L -2753.992467 154.312851 
L -2745.94439 155.988546 
L -2737.896313 152.65524 
L -2729.848236 158.260156 
L -2721.800159 160.229394 
L -2713.752082 159.542918 
L -2705.704005 157.681067 
L -2697.655929 159.432836 
L -2689.607852 157.382509 
L -2681.559775 157.415916 
L -2673.511698 159.075298 
L -2665.463621 157.260179 
L -2657.415544 158.010015 
L -2649.367467 157.93324 
L -2641.31939 156.43929 
L -2633.271313 156.812967 
L -2625.223236 154.716596 
L -2617.175159 154.722232 
L -2609.127082 155.149029 
L -2601.079005 155.064117 
L -2593.030929 153.990833 
L -2584.982852 153.057193 
L -2576.934775 152.746782 
L -2568.886698 151.736146 
L -2560.838621 151.493645 
L -2552.790544 151.232213 
L -2544.742467 149.770994 
L -2536.69439 150.347261 
L -2528.646313 149.375939 
L -2520.598236 148.93102 
L -2512.550159 148.915345 
L -2504.502082 147.990753 
L -2496.454005 147.747443 
L -2488.405929 148.047794 
L -2480.357852 148.562906 
L -2472.309775 147.137908 
L -2464.261698 146.934073 
L -2456.213621 146.505888 
L -2448.165544 149.110777 
L -2440.117467 149.290433 
L -2432.06939 150.41811 
L -2424.021313 148.173222 
L -2415.973236 146.8423 
L -2407.925159 147.470561 
L -2399.877082 149.322569 
L -2391.829005 149.826923 
L -2383.780929 147.138513 
L -2375.732852 149.84775 
L -2367.684775 149.511431 
L -2359.636698 149.401612 
L -2351.588621 148.360983 
L -2343.540544 149.782552 
L -2335.492467 149.480507 
L -2327.44439 150.475319 
L -2319.396313 150.004659 
L -2311.348236 149.731616 
L -2303.300159 148.916717 
L -2295.252082 148.762187 
L -2287.204005 148.674454 
L -2279.155929 148.402814 
L -2271.107852 148.741464 
L -2263.059775 148.582283 
L -2255.011698 148.39922 
L -2246.963621 147.016427 
L -2238.915544 146.10194 
L -2230.867467 146.014769 
L -2222.81939 144.98413 
L -2214.771313 145.27769 
L -2206.723236 144.510058 
L -2198.675159 143.084484 
L -2190.627082 142.005646 
L -2182.579005 141.36504 
L -2174.530929 139.880409 
L -2166.482852 139.252983 
L -2158.434775 138.037794 
L -2150.386698 137.054154 
L -2142.338621 135.650841 
L -2134.290544 134.617754 
L -2126.242467 132.97805 
L -2118.19439 131.845076 
L -2110.146313 130.56919 
L -2102.098236 128.635043 
L -2094.050159 126.892993 
L -2086.002082 125.829777 
L -2077.954005 124.377181 
L -2069.905929 122.460699 
L -2061.857852 121.241632 
L -2053.809775 119.589992 
L -2045.761698 116.873804 
L -2037.713621 116.169457 
L -2029.665544 113.997506 
L -2021.617467 112.476029 
L -2013.56939 110.637537 
L -2005.521313 108.682337 
L -1997.473236 106.733969 
L -1989.425159 105.048569 
L -1981.377082 102.470821 
L -1973.329005 101.230317 
L -1965.280929 98.753275 
L -1957.232852 97.493805 
L -1949.184775 94.95265 
L -1941.136698 92.607432 
L -1933.088621 90.669304 
L -1925.040544 89.338759 
L -1916.992467 86.510521 
L -1908.94439 84.929616 
L -1900.896313 82.532081 
L -1892.848236 80.767688 
L -1884.800159 78.188971 
L -1876.752082 76.05244 
L -1868.704005 76.69205 
L -1860.655929 71.823068 
L -1852.607852 71.950369 
L -1844.559775 69.401238 
L -1836.511698 67.961056 
L -1828.463621 66.072156 
L -1820.415544 63.983211 
L -1812.367467 62.178776 
L -1804.31939 60.456837 
L -1796.271313 58.87935 
L -1788.223236 57.272516 
L -1780.175159 60.067173 
L -1772.127082 53.547091 
L -1764.079005 52.536445 
L -1756.030929 59.355068 
L -1747.982852 51.25107 
L -1739.934775 53.455544 
L -1731.886698 53.172754 
L -1723.838621 49.220763 
L -1715.790544 50.622316 
L -1707.742467 55.670224 
L -1699.69439 52.92014 
L -1691.646313 51.957378 
L -1683.598236 55.275502 
L -1675.550159 54.812828 
L -1667.502082 57.158421 
L -1659.454005 60.275553 
L -1651.405929 64.773133 
L -1643.357852 75.354 
L -1635.309775 73.335304 
L -1627.261698 79.066621 
L -1619.213621 83.763021 
L -1611.165544 86.531659 
L -1603.117467 92.389477 
L -1595.06939 96.085275 
L -1587.021313 89.60314 
L -1578.973236 96.129383 
L -1570.925159 105.174176 
L -1562.877082 109.489689 
L -1554.829005 110.898326 
L -1546.780929 122.682888 
L -1538.732852 123.449447 
L -1530.684775 125.94598 
L -1522.636698 125.437168 
L -1514.588621 135.259058 
L -1506.540544 131.831882 
L -1498.492467 129.989489 
L -1490.44439 138.410177 
L -1482.396313 146.129497 
L -1474.348236 144.085427 
L -1466.300159 147.941713 
L -1458.252082 149.255132 
L -1450.204005 149.338824 
L -1442.155929 149.137078 
L -1434.107852 151.536788 
L -1426.059775 152.814988 
L -1418.011698 160.718059 
L -1409.963621 156.416045 
L -1401.915544 163.296782 
L -1393.867467 161.572785 
L -1385.81939 160.495411 
L -1377.771313 163.232825 
L -1369.723236 165.677613 
L -1361.675159 162.387207 
L -1353.627082 163.911992 
L -1345.579005 163.974216 
L -1337.530929 167.774463 
L -1329.482852 165.88047 
L -1321.434775 165.013102 
L -1313.386698 166.145256 
L -1305.338621 168.038849 
L -1297.290544 167.216323 
L -1289.242467 165.498581 
L -1281.19439 166.658577 
L -1273.146313 164.039406 
L -1265.098236 164.510014 
L -1257.050159 169.273587 
L -1249.002082 169.225109 
L -1240.954005 166.897534 
L -1232.905929 166.525584 
L -1224.857852 167.103064 
L -1216.809775 164.626485 
L -1208.761698 165.611756 
L -1200.713621 165.940292 
L -1192.665544 165.703047 
L -1184.617467 165.322318 
L -1176.56939 163.993113 
L -1168.521313 165.393081 
L -1160.473236 164.642508 
L -1152.425159 164.797159 
L -1144.377082 164.591254 
L -1136.329005 165.090987 
L -1128.280929 164.195835 
L -1120.232852 162.24138 
L -1112.184775 162.536529 
L -1104.136698 161.002483 
L -1096.088621 158.606049 
L -1088.040544 161.012213 
L -1079.992467 157.682073 
L -1071.94439 159.620143 
L -1063.896313 159.340603 
L -1055.848236 160.165217 
L -1047.800159 158.122279 
L -1039.752082 158.323574 
L -1031.704005 158.504268 
L -1023.655929 155.548862 
L -1015.607852 157.09467 
L -1007.559775 157.248254 
L -999.511698 157.682397 
L -991.463621 156.72435 
L -983.415544 157.716809 
L -975.367467 156.772929 
L -967.31939 156.181126 
L -959.271313 154.023255 
L -951.223236 153.607861 
L -943.175159 153.428574 
L -935.127082 153.063899 
L -927.079005 153.566049 
L -919.030929 153.348936 
L -910.982852 152.232431 
L -902.934775 152.740148 
L -894.886698 151.847069 
L -886.838621 152.612268 
L -878.790544 152.526899 
L -870.742467 153.313392 
L -862.69439 152.011969 
L -854.646313 148.72483 
L -846.598236 152.493585 
L -838.550159 152.657494 
L -830.502082 152.278912 
L -822.454005 151.944213 
L -814.405929 150.588049 
L -806.357852 150.682634 
L -798.309775 149.773162 
L -790.261698 150.195649 
L -782.213621 149.980297 
L -774.165544 148.389268 
L -766.117467 146.726168 
L -758.06939 149.681836 
L -750.021313 149.237109 
L -741.973236 147.197258 
L -733.925159 148.464675 
L -725.877082 145.486463 
L -717.829005 145.101935 
L -709.780929 145.976923 
L -701.732852 143.721266 
L -693.684775 147.916739 
L -685.636698 144.17418 
L -677.588621 141.817916 
L -669.540544 144.031047 
L -661.492467 145.081109 
L -653.44439 144.436766 
L -645.396313 145.856265 
L -637.348236 143.919723 
L -629.300159 147.375505 
L -621.252082 145.087632 
L -613.204005 145.7486 
L -605.155929 144.196397 
L -597.107852 142.140958 
L -589.059775 145.057454 
L -581.011698 150.159129 
L -572.963621 144.286022 
L -564.915544 145.071816 
L -556.867467 142.746094 
L -548.81939 144.652088 
L -540.771313 143.489372 
L -532.723236 142.451214 
L -524.675159 141.800576 
L -516.627082 144.564788 
L -508.579005 143.433521 
L -500.530929 145.525268 
L -492.482852 145.755736 
L -484.434775 139.102699 
L -476.386698 142.254866 
L -468.338621 141.502767 
L -460.290544 142.645486 
L -452.242467 142.660147 
L -444.19439 146.828655 
L -436.146313 148.607081 
L -428.098236 148.509349 
L -420.050159 155.21628 
L -412.002082 164.517348 
L -403.954005 151.779948 
L -395.905929 152.936026 
L -387.857852 150.508009 
L -379.809775 154.645891 
L -371.761698 155.662043 
L -363.713621 155.701901 
L -355.665544 167.013206 
L -347.617467 166.468102 
L -339.56939 156.933045 
L -331.521313 165.974611 
L -323.473236 163.590239 
L -315.425159 158.663989 
L -307.377082 170.383624 
L -299.329005 169.371661 
L -291.280929 175.48809 
L -283.232852 169.96286 
L -275.184775 168.282115 
L -267.136698 172.971812 
L -259.088621 172.514505 
L -251.040544 178.326307 
L -242.992467 173.675095 
L -234.94439 182.597438 
L -226.896313 178.298707 
L -218.848236 181.48959 
L -210.800159 179.922444 
L -202.752082 184.376834 
L -194.704005 177.020359 
L -186.655929 186.989881 
L -178.607852 184.917744 
L -170.559775 193.104433 
L -162.511698 192.531082 
L -154.463621 196.916463 
L -146.415544 195.03999 
L -138.367467 197.807756 
L -130.31939 204.374585 
L -122.271313 199.39169 
L -114.223236 197.896143 
L -106.175159 201.161764 
L -98.127082 205.199871 
L -90.079005 200.456741 
L -82.030929 195.126338 
L -73.982852 208.001117 
L -65.934775 217.373596 
L -57.886698 201.95133 
L -49.838621 205.759658 
L -41.790544 208.987118 
L -33.742467 208.609972 
L -25.69439 216.076707 
L -17.646313 216.830228 
L -9.598236 212.756404 
L -1.550159 216.609459 
L 6.497918 217.843927 
L 14.545995 209.49826 
L 22.594071 212.561349 
L 30.642148 209.048889 
L 38.690225 223.029988 
L 46.738302 236.770515 
L 54.786379 234.309004 
L 62.834456 223.300054 
L 70.882533 222.382399 
L 78.93061 223.075224 
L 86.978687 222.383932 
L 95.026764 234.40245 
L 103.074841 222.141086 
L 111.122918 235.736652 
L 119.170995 246.745466 
L 127.219071 237.417425 
L 135.267148 253.844603 
L 143.315225 241.82214 
L 151.363302 253.631008 
L 159.411379 247.368476 
L 167.459456 250.682904 
L 175.507533 258.817549 
L 183.55561 258.67387 
L 191.603687 261.256454 
L 199.651764 261.173715 
L 207.699841 261.970677 
L 215.747918 240.216133 
L 223.795995 269.903668 
L 231.844071 281.380972 
L 239.892148 270.628046 
L 247.940225 277.077207 
L 255.988302 284.206889 
L 264.036379 274.896401 
L 272.084456 285.910632 
L 280.132533 294.679584 
L 288.18061 289.533346 
L 296.228687 294.432555 
L 304.276764 296.891209 
L 312.324841 298.326404 
L 320.372918 300.974725 
L 328.420995 288.718589 
L 336.469071 312.668203 
L 344.517148 312.989984 
L 352.565225 312.916687 
L 360.613302 297.388712 
L 368.661379 317.83936 
L 376.709456 328.838166 
L 384.757533 318.739914 
L 392.80561 318.705856 
L 400.853687 337.033802 
L 408.901764 302.678267 
L 416.949841 333.659742 
L 424.997918 310.992659 
L 433.045995 343.478562 
L 441.094071 330.291792 
L 449.142148 342.600387 
L 457.190225 346.027943 
L 465.238302 349.327799 
L 473.286379 350.688773 
L 481.334456 343.585897 
L 489.382533 344.711275 
L 497.43061 351.554567 
L 505.478687 359.555951 
L 513.526764 359.698657 
L 521.574841 358.623067 
L 529.622918 366.768821 
L 537.670995 366.461789 
L 545.719071 360.047927 
L 553.767148 358.833548 
L 561.815225 373.995555 
L 569.863302 374.882618 
L 577.911379 377.64 
L 585.959456 369.397799 
L 594.007533 350.726218 
L 602.05561 369.889059 
L 610.103687 364.445151 
L 618.151764 369.017695 
L 626.199841 375.343444 
L 634.247918 365.865632 
L 642.295995 377.425539 
L 650.344071 367.278317 
L 658.392148 366.572342 
L 666.440225 367.232815 
L 674.488302 374.039627 
L 682.536379 372.93821 
L 690.584456 371.075371 
L 698.632533 363.164665 
L 706.68061 366.949591 
L 714.728687 369.681101 
L 722.776764 365.982888 
L 730.824841 371.438236 
L 738.872918 366.447811 
L 746.920995 369.93147 
L 754.969071 375.708012 
L 763.017148 374.395455 
L 771.065225 367.94761 
L 779.113302 367.764953 
L 787.161379 366.313752 
L 795.209456 368.774226 
L 803.257533 368.368477 
L 811.30561 358.051002 
L 819.353687 365.619214 
L 827.401764 318.404267 
L 835.449841 365.016282 
L 843.497918 367.881182 
L 851.545995 360.697075 
L 859.594071 353.238262 
L 867.642148 366.650551 
L 875.690225 360.148052 
L 883.738302 349.033293 
L 891.786379 355.512538 
L 899.834456 355.333783 
L 907.882533 352.039462 
L 915.93061 358.178237 
L 923.978687 352.996676 
L 932.026764 355.327743 
L 940.074841 356.925503 
L 940.074841 204.406523 
L 940.074841 204.406523 
L 932.026764 209.062733 
L 923.978687 207.313914 
L 915.93061 209.907704 
L 907.882533 207.344166 
L 899.834456 209.316255 
L 891.786379 208.569032 
L 883.738302 210.047454 
L 875.690225 214.299895 
L 867.642148 215.457041 
L 859.594071 213.552508 
L 851.545995 214.793749 
L 843.497918 219.447441 
L 835.449841 217.51236 
L 827.401764 210.219004 
L 819.353687 219.810612 
L 811.30561 219.041832 
L 803.257533 221.905162 
L 795.209456 222.803193 
L 787.161379 222.747248 
L 779.113302 224.78776 
L 771.065225 225.482649 
L 763.017148 228.082591 
L 754.969071 229.299873 
L 746.920995 228.81771 
L 738.872918 228.419177 
L 730.824841 229.973405 
L 722.776764 228.512252 
L 714.728687 230.217901 
L 706.68061 230.53819 
L 698.632533 230.018508 
L 690.584456 233.601313 
L 682.536379 234.839758 
L 674.488302 236.649884 
L 666.440225 233.787351 
L 658.392148 234.792632 
L 650.344071 236.004152 
L 642.295995 239.782648 
L 634.247918 236.366466 
L 626.199841 240.323343 
L 618.151764 238.512856 
L 610.103687 237.603744 
L 602.05561 240.032231 
L 594.007533 234.717923 
L 585.959456 240.62262 
L 577.911379 244.805411 
L 569.863302 244.347553 
L 561.815225 244.299264 
L 553.767148 240.420785 
L 545.719071 240.561053 
L 537.670995 243.412254 
L 529.622918 243.698442 
L 521.574841 241.243604 
L 513.526764 241.77614 
L 505.478687 242.787881 
L 497.43061 238.409724 
L 489.382533 237.369453 
L 481.334456 237.580928 
L 473.286379 240.724373 
L 465.238302 240.460126 
L 457.190225 238.807776 
L 449.142148 237.699842 
L 441.094071 233.462646 
L 433.045995 238.610542 
L 424.997918 228.478531 
L 416.949841 236.165886 
L 408.901764 224.466247 
L 400.853687 237.465389 
L 392.80561 230.431862 
L 384.757533 230.073714 
L 376.709456 235.693122 
L 368.661379 230.744424 
L 360.613302 223.114566 
L 352.565225 229.786807 
L 344.517148 229.638624 
L 336.469071 229.626689 
L 328.420995 219.469718 
L 320.372918 228.024569 
L 312.324841 224.147277 
L 304.276764 223.095623 
L 296.228687 222.523543 
L 288.18061 221.308917 
L 280.132533 223.643223 
L 272.084456 220.24465 
L 264.036379 215.05967 
L 255.988302 217.950362 
L 247.940225 217.191824 
L 239.892148 212.612231 
L 231.844071 218.068974 
L 223.795995 212.906817 
L 215.747918 199.989693 
L 207.699841 210.337416 
L 199.651764 210.124067 
L 191.603687 209.988132 
L 183.55561 208.949198 
L 175.507533 209.454119 
L 167.459456 205.463727 
L 159.411379 203.606053 
L 151.363302 206.636699 
L 143.315225 202.620516 
L 135.267148 207.699369 
L 127.219071 200.134811 
L 119.170995 205.381656 
L 111.122918 199.510222 
L 103.074841 192.1881 
L 95.026764 199.504166 
L 86.978687 194.014712 
L 78.93061 193.914477 
L 70.882533 193.253994 
L 62.834456 194.016647 
L 54.786379 200.183068 
L 46.738302 201.436988 
L 38.690225 193.959486 
L 30.642148 187.990178 
L 22.594071 189.429007 
L 14.545995 187.30106 
L 6.497918 191.843125 
L -1.550159 191.448802 
L -9.598236 189.728382 
L -17.646313 191.442276 
L -25.69439 192.03765 
L -33.742467 187.932077 
L -41.790544 187.350441 
L -49.838621 186.100284 
L -57.886698 183.55631 
L -65.934775 191.933097 
L -73.982852 188.344878 
L -82.030929 179.72235 
L -90.079005 181.896235 
L -98.127082 185.672935 
L -106.175159 183.497042 
L -114.223236 181.056243 
L -122.271313 181.679752 
L -130.31939 183.455376 
L -138.367467 181.420689 
L -146.415544 178.557759 
L -154.463621 179.707194 
L -162.511698 179.482866 
L -170.559775 177.160719 
L -178.607852 172.54753 
L -186.655929 172.814483 
L -194.704005 165.609521 
L -202.752082 172.084866 
L -210.800159 168.216413 
L -218.848236 169.042618 
L -226.896313 165.314614 
L -234.94439 170.061227 
L -242.992467 163.439833 
L -251.040544 165.763044 
L -259.088621 161.638296 
L -267.136698 161.610197 
L -275.184775 157.360951 
L -283.232852 161.506699 
L -291.280929 164.280959 
L -299.329005 157.749198 
L -307.377082 159.655451 
L -315.425159 149.570108 
L -323.473236 152.581234 
L -331.521313 156.427659 
L -339.56939 148.504301 
L -347.617467 158.053223 
L -355.665544 155.580446 
L -363.713621 147.386219 
L -371.761698 147.804655 
L -379.809775 146.94983 
L -387.857852 143.555809 
L -395.905929 144.23702 
L -403.954005 144.3971 
L -412.002082 155.622288 
L -420.050159 146.756579 
L -428.098236 141.276849 
L -436.146313 141.458955 
L -444.19439 139.729508 
L -452.242467 134.91969 
L -460.290544 134.728163 
L -468.338621 133.356277 
L -476.386698 133.967366 
L -484.434775 130.764694 
L -492.482852 138.099081 
L -500.530929 137.791784 
L -508.579005 135.18967 
L -516.627082 136.434948 
L -524.675159 133.090759 
L -532.723236 133.820885 
L -540.771313 135.054463 
L -548.81939 135.405093 
L -556.867467 133.759777 
L -564.915544 136.076052 
L -572.963621 135.335286 
L -581.011698 141.452025 
L -589.059775 135.664028 
L -597.107852 132.268708 
L -605.155929 134.423683 
L -613.204005 136.623314 
L -621.252082 135.629391 
L -629.300159 137.624807 
L -637.348236 133.419569 
L -645.396313 135.350385 
L -653.44439 133.946923 
L -661.492467 135.116909 
L -669.540544 133.816327 
L -677.588621 131.156255 
L -685.636698 133.46638 
L -693.684775 137.694994 
L -701.732852 132.99331 
L -709.780929 135.416766 
L -717.829005 133.719112 
L -725.877082 134.622713 
L -733.925159 138.133097 
L -741.973236 136.236763 
L -750.021313 138.864544 
L -758.06939 139.200092 
L -766.117467 135.268345 
L -774.165544 136.966967 
L -782.213621 138.816751 
L -790.261698 139.136599 
L -798.309775 138.679063 
L -806.357852 139.747362 
L -814.405929 139.134208 
L -822.454005 141.019518 
L -830.502082 141.304185 
L -838.550159 141.41177 
L -846.598236 141.472079 
L -854.646313 136.7412 
L -862.69439 140.962165 
L -870.742467 142.44743 
L -878.790544 141.407495 
L -886.838621 141.179049 
L -894.886698 140.72374 
L -902.934775 141.708886 
L -910.982852 140.726067 
L -919.030929 142.104038 
L -927.079005 142.182825 
L -935.127082 141.085925 
L -943.175159 141.176462 
L -951.223236 141.509206 
L -959.271313 141.858349 
L -967.31939 144.626038 
L -975.367467 144.734112 
L -983.415544 145.67952 
L -991.463621 144.07139 
L -999.511698 144.909301 
L -1007.559775 144.257618 
L -1015.607852 143.919143 
L -1023.655929 141.275735 
L -1031.704005 145.266946 
L -1039.752082 144.743165 
L -1047.800159 144.093688 
L -1055.848236 146.031145 
L -1063.896313 144.775406 
L -1071.94439 144.925633 
L -1079.992467 142.318213 
L -1088.040544 145.237966 
L -1096.088621 142.85862 
L -1104.136698 145.58391 
L -1112.184775 147.14509 
L -1120.232852 146.691558 
L -1128.280929 148.923453 
L -1136.329005 150.377224 
L -1144.377082 148.959752 
L -1152.425159 149.344341 
L -1160.473236 148.512781 
L -1168.521313 149.424606 
L -1176.56939 147.475747 
L -1184.617467 149.280777 
L -1192.665544 150.320581 
L -1200.713621 150.434486 
L -1208.761698 150.010281 
L -1216.809775 149.447287 
L -1224.857852 151.627039 
L -1232.905929 151.261837 
L -1240.954005 152.214333 
L -1249.002082 154.187476 
L -1257.050159 154.106775 
L -1265.098236 150.323549 
L -1273.146313 150.172576 
L -1281.19439 152.59184 
L -1289.242467 152.060376 
L -1297.290544 153.496543 
L -1305.338621 154.326072 
L -1313.386698 152.601829 
L -1321.434775 152.844854 
L -1329.482852 153.379117 
L -1337.530929 154.969004 
L -1345.579005 151.674545 
L -1353.627082 152.113142 
L -1361.675159 151.459605 
L -1369.723236 154.129923 
L -1377.771313 153.102763 
L -1385.81939 150.666747 
L -1393.867467 151.849819 
L -1401.915544 153.10295 
L -1409.963621 147.785648 
L -1418.011698 151.647913 
L -1426.059775 145.337933 
L -1434.107852 144.396913 
L -1442.155929 142.489154 
L -1450.204005 143.301056 
L -1458.252082 143.215832 
L -1466.300159 141.817674 
L -1474.348236 138.269007 
L -1482.396313 139.842266 
L -1490.44439 132.592531 
L -1498.492467 123.413748 
L -1506.540544 125.717208 
L -1514.588621 129.700528 
L -1522.636698 117.81604 
L -1530.684775 118.770018 
L -1538.732852 115.375503 
L -1546.780929 114.405563 
L -1554.829005 99.68324 
L -1562.877082 97.608234 
L -1570.925159 92.311425 
L -1578.973236 80.966849 
L -1587.021313 71.938426 
L -1595.06939 80.770245 
L -1603.117467 75.815636 
L -1611.165544 68.082718 
L -1619.213621 64.735666 
L -1627.261698 59.034502 
L -1635.309775 51.503806 
L -1643.357852 54.020935 
L -1651.405929 41.397897 
L -1659.454005 34.646348 
L -1667.502082 31.473113 
L -1675.550159 28.798724 
L -1683.598236 29.817378 
L -1691.646313 26.534976 
L -1699.69439 28.783877 
L -1707.742467 31.835527 
L -1715.790544 25.739419 
L -1723.838621 24.84 
L -1731.886698 29.990353 
L -1739.934775 30.847154 
L -1747.982852 28.313079 
L -1756.030929 39.218462 
L -1764.079005 30.814414 
L -1772.127082 33.054058 
L -1780.175159 41.206798 
L -1788.223236 38.280248 
L -1796.271313 40.929246 
L -1804.31939 43.227878 
L -1812.367467 46.012174 
L -1820.415544 48.614286 
L -1828.463621 51.619177 
L -1836.511698 54.342447 
L -1844.559775 56.440745 
L -1852.607852 60.143614 
L -1860.655929 60.524112 
L -1868.704005 66.807445 
L -1876.752082 66.387091 
L -1884.800159 69.16329 
L -1892.848236 71.830289 
L -1900.896313 73.278283 
L -1908.94439 75.363818 
L -1916.992467 76.76962 
L -1925.040544 79.324653 
L -1933.088621 80.451753 
L -1941.136698 82.078968 
L -1949.184775 84.190201 
L -1957.232852 86.381901 
L -1965.280929 87.332977 
L -1973.329005 89.444153 
L -1981.377082 90.583579 
L -1989.425159 92.812225 
L -1997.473236 94.340292 
L -2005.521313 95.872718 
L -2013.56939 97.681473 
L -2021.617467 99.197899 
L -2029.665544 100.364867 
L -2037.713621 102.147924 
L -2045.761698 102.627276 
L -2053.809775 105.059641 
L -2061.857852 106.439558 
L -2069.905929 107.566431 
L -2077.954005 109.1416 
L -2086.002082 109.79362 
L -2094.050159 111.110746 
L -2102.098236 112.487094 
L -2110.146313 114.098887 
L -2118.19439 115.15554 
L -2126.242467 116.201669 
L -2134.290544 117.422395 
L -2142.338621 118.586531 
L -2150.386698 119.903456 
L -2158.434775 120.817738 
L -2166.482852 121.890968 
L -2174.530929 122.645184 
L -2182.579005 123.994768 
L -2190.627082 124.775472 
L -2198.675159 125.771552 
L -2206.723236 127.190213 
L -2214.771313 127.976402 
L -2222.81939 127.760167 
L -2230.867467 128.875852 
L -2238.915544 129.154479 
L -2246.963621 130.233363 
L -2255.011698 131.59463 
L -2263.059775 132.02463 
L -2271.107852 132.418145 
L -2279.155929 132.084364 
L -2287.204005 132.577531 
L -2295.252082 132.689438 
L -2303.300159 132.864663 
L -2311.348236 133.815835 
L -2319.396313 134.196912 
L -2327.44439 134.952598 
L -2335.492467 133.893427 
L -2343.540544 134.175079 
L -2351.588621 132.78794 
L -2359.636698 134.094154 
L -2367.684775 134.032204 
L -2375.732852 134.931592 
L -2383.780929 132.134287 
L -2391.829005 134.96434 
L -2399.877082 134.485221 
L -2407.925159 132.524039 
L -2415.973236 131.903506 
L -2424.021313 133.321228 
L -2432.06939 135.891297 
L -2440.117467 134.66882 
L -2448.165544 134.4861 
L -2456.213621 131.630124 
L -2464.261698 131.529929 
L -2472.309775 132.262503 
L -2480.357852 133.898481 
L -2488.405929 133.307106 
L -2496.454005 132.936552 
L -2504.502082 133.197376 
L -2512.550159 134.233827 
L -2520.598236 134.003566 
L -2528.646313 134.676817 
L -2536.69439 135.792816 
L -2544.742467 135.060175 
L -2552.790544 136.683664 
L -2560.838621 136.973926 
L -2568.886698 137.218245 
L -2576.934775 138.273432 
L -2584.982852 138.580895 
L -2593.030929 139.751 
L -2601.079005 141.023232 
L -2609.127082 141.106603 
L -2617.175159 140.685595 
L -2625.223236 140.406662 
L -2633.271313 143.037555 
L -2641.31939 142.665268 
L -2649.367467 144.454485 
L -2657.415544 144.552863 
L -2665.463621 143.961316 
L -2673.511698 145.729821 
L -2681.559775 144.218558 
L -2689.607852 144.368026 
L -2697.655929 146.591968 
L -2705.704005 145.101923 
L -2713.752082 147.20048 
L -2721.800159 147.910258 
L -2729.848236 146.245209 
L -2737.896313 140.824409 
L -2745.94439 144.36955 
L -2753.992467 142.738213 
L -2762.040544 134.638311 
L -2770.088621 141.605605 
L -2778.136698 143.062288 
L -2786.184775 135.563383 
L -2794.232852 133.52285 
L -2802.280929 137.57403 
L -2810.329005 129.418279 
L -2818.377082 114.478912 
L -2826.425159 130.906168 
L -2834.473236 137.133717 
L -2842.521313 140.220411 
L -2850.56939 120.059861 
L -2858.617467 120.912732 
L -2866.665544 110.763089 
L -2874.713621 102.89114 
L -2882.761698 118.790881 
L -2890.809775 111.948159 
L -2898.857852 97.80921 
L -2906.905929 87.894947 
L -2914.954005 88.480535 
L -2923.002082 90.16282 
L -2931.050159 88.035246 
L -2939.098236 86.768523 
L -2947.146313 92.373417 
L -2955.19439 91.675014 
L -2963.242467 87.971838 
L -2971.290544 90.187582 
L -2979.338621 88.614631 
L -2987.386698 87.985014 
L -2995.434775 88.083947 
L -3003.482852 90.25812 
L -3011.530929 91.533523 
L -3019.579005 92.258104 
L -3027.627082 94.143488 
L -3035.675159 94.996491 
L -3043.723236 96.501505 
L -3051.771313 98.911689 
L -3059.81939 100.799256 
L -3067.867467 102.07693 
L -3075.915544 103.50714 
L -3083.963621 105.403636 
L -3092.011698 106.594477 
L -3100.059775 108.415164 
L -3108.107852 110.62158 
L -3116.155929 111.930087 
L -3124.204005 112.80491 
L -3132.252082 114.158445 
L -3140.300159 115.551744 
L -3148.348236 116.830626 
L -3156.396313 118.054454 
L -3164.44439 119.23404 
L -3172.492467 120.856429 
L -3180.540544 121.697421 
L -3188.588621 122.869432 
L -3196.636698 124.094164 
L -3204.684775 125.141043 
L -3212.732852 126.177432 
L -3220.780929 127.043339 
L -3228.829005 127.98698 
L -3236.877082 129.242184 
L -3244.925159 130.119453 
L -3252.973236 131.145633 
L -3261.021313 131.97213 
L -3269.06939 132.883173 
L -3277.117467 133.817323 
L -3285.165544 134.765143 
L -3293.213621 135.561199 
L -3301.261698 136.504049 
L -3309.309775 137.331655 
L -3317.357852 138.219637 
L -3325.405929 139.045824 
L -3333.454005 139.898797 
L -3341.502082 140.689863 
L -3349.550159 141.51408 
L -3357.598236 142.404593 
L -3365.646313 143.080644 
L -3373.69439 143.929866 
L -3381.742467 144.660959 
L -3389.790544 145.509932 
L -3397.838621 146.128563 
L -3405.886698 146.917752 
L -3413.934775 147.669698 
L -3421.982852 148.385399 
L -3430.030929 149.114213 
L -3438.079005 149.787786 
L -3446.127082 150.574331 
L -3454.175159 151.281665 
L -3462.223236 151.863113 
L -3470.271313 152.554611 
L -3478.31939 153.244955 
L -3486.367467 153.931724 
L -3494.415544 154.593739 
L -3502.463621 155.209836 
L -3510.511698 155.888395 
L -3518.559775 156.553005 
L -3526.607852 157.220817 
L -3534.655929 157.885942 
L -3542.704005 158.568805 
L -3550.752082 159.278509 
L -3558.800159 159.887938 
L -3566.848236 160.586839 
L -3574.896313 161.272031 
L -3582.94439 161.928843 
L -3590.992467 162.606541 
L -3599.040544 163.298054 
L -3607.088621 163.968054 
L -3615.136698 164.671607 
L -3623.184775 165.311379 
L -3631.232852 165.964815 
L -3639.280929 166.656066 
L -3647.329005 167.322977 
L -3655.377082 167.954867 
L -3663.425159 168.624285 
L -3671.473236 169.233256 
L -3679.521313 169.885114 
L -3687.56939 170.580576 
L -3695.617467 171.174763 
L -3703.665544 171.841397 
L -3711.713621 172.471021 
L -3719.761698 173.131957 
L -3727.809775 173.728012 
L -3735.857852 174.427707 
L -3743.905929 175.00365 
L -3751.954005 175.652027 
L -3760.002082 176.285842 
L -3768.050159 176.936194 
L -3776.098236 177.552988 
L -3784.146313 178.18175 
L -3792.19439 178.813296 
L -3800.242467 179.466943 
L -3808.290544 180.064155 
L -3816.338621 180.616457 
L -3824.386698 181.181613 
L -3832.434775 181.75075 
L -3840.482852 182.300017 
L -3848.530929 182.859294 
L -3856.579005 183.412389 
L -3864.627082 183.940367 
L -3872.675159 184.475162 
L -3880.723236 185.007534 
L -3888.771313 185.490912 
L -3896.81939 185.983453 
L -3904.867467 186.49859 
L -3912.915544 186.986477 
L -3920.963621 187.421965 
L -3929.011698 187.903824 
L -3937.059775 188.343746 
L -3945.107852 188.748726 
L -3953.155929 189.154545 
L -3961.204005 189.533916 
L -3969.252082 189.944389 
L -3977.300159 190.282528 
L -3985.348236 190.640857 
L -3993.396313 190.978244 
L -4001.44439 191.290862 
L -4009.492467 191.575626 
L -4017.540544 191.834245 
L -4025.588621 192.091548 
L -4033.636698 192.347064 
L -4041.684775 192.55804 
L -4049.732852 192.794753 
L -4057.780929 192.994763 
L -4065.829005 193.166709 
L -4073.877082 193.36931 
L -4081.925159 193.546625 
L -4089.973236 193.693026 
L -4098.021313 193.850682 
L -4106.06939 194.004084 
L -4114.117467 194.138725 
L -4122.165544 194.274028 
L -4130.213621 194.385516 
L -4138.261698 194.521066 
L -4146.309775 194.628401 
L -4154.357852 194.741504 
L -4162.405929 194.860466 
L -4170.454005 194.957093 
L -4178.502082 195.059756 
L -4186.550159 195.195031 
L -4194.598236 195.289958 
L -4202.646313 195.407047 
L -4210.69439 195.499357 
L -4218.742467 195.623104 
L -4226.790544 195.720683 
L -4234.838621 195.82417 
L -4242.886698 195.91455 
L -4250.934775 195.99676 
L -4258.982852 196.091076 
L -4267.030929 196.195484 
L -4275.079005 196.297106 
L -4283.127082 196.383379 
L -4291.175159 196.452009 
L -4299.223236 196.552547 
L -4307.271313 196.634379 
L -4315.31939 196.732965 
z
" clip-path="url(#p141a27d487)" style="fill: #008000; fill-opacity: 0.3; stroke: #008000; stroke-opacity: 0.3"/>
   </g>
   <g id="matplotlib.axis_1">
    <g id="xtick_1">
     <g id="line2d_1">
      <defs>
       <path id="mcbf9427451" d="M 0 0 
L 0 3.5 
" style="stroke: #000000; stroke-width: 0.8"/>
      </defs>
      <g>
       <use xlink:href="#mcbf9427451" x="103.074841" y="395.28" style="stroke: #000000; stroke-width: 0.8"/>
      </g>
     </g>
     <g id="text_1">
      <!-- 2023-01-01 -->
      <g transform="translate(17.945813 495.213718) rotate(-45) scale(0.2 -0.2)">
       <defs>
        <path id="DejaVuSans-32" d="M 1228 531 
L 3431 531 
L 3431 0 
L 469 0 
L 469 531 
Q 828 903 1448 1529 
Q 2069 2156 2228 2338 
Q 2531 2678 2651 2914 
Q 2772 3150 2772 3378 
Q 2772 3750 2511 3984 
Q 2250 4219 1831 4219 
Q 1534 4219 1204 4116 
Q 875 4013 500 3803 
L 500 4441 
Q 881 4594 1212 4672 
Q 1544 4750 1819 4750 
Q 2544 4750 2975 4387 
Q 3406 4025 3406 3419 
Q 3406 3131 3298 2873 
Q 3191 2616 2906 2266 
Q 2828 2175 2409 1742 
Q 1991 1309 1228 531 
z
" transform="scale(0.015625)"/>
        <path id="DejaVuSans-30" d="M 2034 4250 
Q 1547 4250 1301 3770 
Q 1056 3291 1056 2328 
Q 1056 1369 1301 889 
Q 1547 409 2034 409 
Q 2525 409 2770 889 
Q 3016 1369 3016 2328 
Q 3016 3291 2770 3770 
Q 2525 4250 2034 4250 
z
M 2034 4750 
Q 2819 4750 3233 4129 
Q 3647 3509 3647 2328 
Q 3647 1150 3233 529 
Q 2819 -91 2034 -91 
Q 1250 -91 836 529 
Q 422 1150 422 2328 
Q 422 3509 836 4129 
Q 1250 4750 2034 4750 
z
" transform="scale(0.015625)"/>
        <path id="DejaVuSans-33" d="M 2597 2516 
Q 3050 2419 3304 2112 
Q 3559 1806 3559 1356 
Q 3559 666 3084 287 
Q 2609 -91 1734 -91 
Q 1441 -91 1130 -33 
Q 819 25 488 141 
L 488 750 
Q 750 597 1062 519 
Q 1375 441 1716 441 
Q 2309 441 2620 675 
Q 2931 909 2931 1356 
Q 2931 1769 2642 2001 
Q 2353 2234 1838 2234 
L 1294 2234 
L 1294 2753 
L 1863 2753 
Q 2328 2753 2575 2939 
Q 2822 3125 2822 3475 
Q 2822 3834 2567 4026 
Q 2313 4219 1838 4219 
Q 1578 4219 1281 4162 
Q 984 4106 628 3988 
L 628 4550 
Q 988 4650 1302 4700 
Q 1616 4750 1894 4750 
Q 2613 4750 3031 4423 
Q 3450 4097 3450 3541 
Q 3450 3153 3228 2886 
Q 3006 2619 2597 2516 
z
" transform="scale(0.015625)"/>
        <path id="DejaVuSans-2d" d="M 313 2009 
L 1997 2009 
L 1997 1497 
L 313 1497 
L 313 2009 
z
" transform="scale(0.015625)"/>
        <path id="DejaVuSans-31" d="M 794 531 
L 1825 531 
L 1825 4091 
L 703 3866 
L 703 4441 
L 1819 4666 
L 2450 4666 
L 2450 531 
L 3481 531 
L 3481 0 
L 794 0 
L 794 531 
z
" transform="scale(0.015625)"/>
       </defs>
       <use xlink:href="#DejaVuSans-32"/>
       <use xlink:href="#DejaVuSans-30" x="63.623047"/>
       <use xlink:href="#DejaVuSans-32" x="127.246094"/>
       <use xlink:href="#DejaVuSans-33" x="190.869141"/>
       <use xlink:href="#DejaVuSans-2d" x="254.492188"/>
       <use xlink:href="#DejaVuSans-30" x="290.576172"/>
       <use xlink:href="#DejaVuSans-31" x="354.199219"/>
       <use xlink:href="#DejaVuSans-2d" x="417.822266"/>
       <use xlink:href="#DejaVuSans-30" x="453.90625"/>
       <use xlink:href="#DejaVuSans-31" x="517.529297"/>
      </g>
     </g>
    </g>
    <g id="xtick_2">
     <g id="line2d_2">
      <g>
       <use xlink:href="#mcbf9427451" x="215.747918" y="395.28" style="stroke: #000000; stroke-width: 0.8"/>
      </g>
     </g>
     <g id="text_2">
      <!-- 2023-01-15 -->
      <g transform="translate(130.61889 495.213718) rotate(-45) scale(0.2 -0.2)">
       <defs>
        <path id="DejaVuSans-35" d="M 691 4666 
L 3169 4666 
L 3169 4134 
L 1269 4134 
L 1269 2991 
Q 1406 3038 1543 3061 
Q 1681 3084 1819 3084 
Q 2600 3084 3056 2656 
Q 3513 2228 3513 1497 
Q 3513 744 3044 326 
Q 2575 -91 1722 -91 
Q 1428 -91 1123 -41 
Q 819 9 494 109 
L 494 744 
Q 775 591 1075 516 
Q 1375 441 1709 441 
Q 2250 441 2565 725 
Q 2881 1009 2881 1497 
Q 2881 1984 2565 2268 
Q 2250 2553 1709 2553 
Q 1456 2553 1204 2497 
Q 953 2441 691 2322 
L 691 4666 
z
" transform="scale(0.015625)"/>
       </defs>
       <use xlink:href="#DejaVuSans-32"/>
       <use xlink:href="#DejaVuSans-30" x="63.623047"/>
       <use xlink:href="#DejaVuSans-32" x="127.246094"/>
       <use xlink:href="#DejaVuSans-33" x="190.869141"/>
       <use xlink:href="#DejaVuSans-2d" x="254.492188"/>
       <use xlink:href="#DejaVuSans-30" x="290.576172"/>
       <use xlink:href="#DejaVuSans-31" x="354.199219"/>
       <use xlink:href="#DejaVuSans-2d" x="417.822266"/>
       <use xlink:href="#DejaVuSans-31" x="453.90625"/>
       <use xlink:href="#DejaVuSans-35" x="517.529297"/>
      </g>
     </g>
    </g>
    <g id="xtick_3">
     <g id="line2d_3">
      <g>
       <use xlink:href="#mcbf9427451" x="328.420995" y="395.28" style="stroke: #000000; stroke-width: 0.8"/>
      </g>
     </g>
     <g id="text_3">
      <!-- 2023-01-29 -->
      <g transform="translate(243.291967 495.213718) rotate(-45) scale(0.2 -0.2)">
       <defs>
        <path id="DejaVuSans-39" d="M 703 97 
L 703 672 
Q 941 559 1184 500 
Q 1428 441 1663 441 
Q 2288 441 2617 861 
Q 2947 1281 2994 2138 
Q 2813 1869 2534 1725 
Q 2256 1581 1919 1581 
Q 1219 1581 811 2004 
Q 403 2428 403 3163 
Q 403 3881 828 4315 
Q 1253 4750 1959 4750 
Q 2769 4750 3195 4129 
Q 3622 3509 3622 2328 
Q 3622 1225 3098 567 
Q 2575 -91 1691 -91 
Q 1453 -91 1209 -44 
Q 966 3 703 97 
z
M 1959 2075 
Q 2384 2075 2632 2365 
Q 2881 2656 2881 3163 
Q 2881 3666 2632 3958 
Q 2384 4250 1959 4250 
Q 1534 4250 1286 3958 
Q 1038 3666 1038 3163 
Q 1038 2656 1286 2365 
Q 1534 2075 1959 2075 
z
" transform="scale(0.015625)"/>
       </defs>
       <use xlink:href="#DejaVuSans-32"/>
       <use xlink:href="#DejaVuSans-30" x="63.623047"/>
       <use xlink:href="#DejaVuSans-32" x="127.246094"/>
       <use xlink:href="#DejaVuSans-33" x="190.869141"/>
       <use xlink:href="#DejaVuSans-2d" x="254.492188"/>
       <use xlink:href="#DejaVuSans-30" x="290.576172"/>
       <use xlink:href="#DejaVuSans-31" x="354.199219"/>
       <use xlink:href="#DejaVuSans-2d" x="417.822266"/>
       <use xlink:href="#DejaVuSans-32" x="453.90625"/>
       <use xlink:href="#DejaVuSans-39" x="517.529297"/>
      </g>
     </g>
    </g>
    <g id="xtick_4">
     <g id="line2d_4">
      <g>
       <use xlink:href="#mcbf9427451" x="441.094071" y="395.28" style="stroke: #000000; stroke-width: 0.8"/>
      </g>
     </g>
     <g id="text_4">
      <!-- 2023-02-12 -->
      <g transform="translate(355.965044 495.213718) rotate(-45) scale(0.2 -0.2)">
       <use xlink:href="#DejaVuSans-32"/>
       <use xlink:href="#DejaVuSans-30" x="63.623047"/>
       <use xlink:href="#DejaVuSans-32" x="127.246094"/>
       <use xlink:href="#DejaVuSans-33" x="190.869141"/>
       <use xlink:href="#DejaVuSans-2d" x="254.492188"/>
       <use xlink:href="#DejaVuSans-30" x="290.576172"/>
       <use xlink:href="#DejaVuSans-32" x="354.199219"/>
       <use xlink:href="#DejaVuSans-2d" x="417.822266"/>
       <use xlink:href="#DejaVuSans-31" x="453.90625"/>
       <use xlink:href="#DejaVuSans-32" x="517.529297"/>
      </g>
     </g>
    </g>
    <g id="xtick_5">
     <g id="line2d_5">
      <g>
       <use xlink:href="#mcbf9427451" x="553.767148" y="395.28" style="stroke: #000000; stroke-width: 0.8"/>
      </g>
     </g>
     <g id="text_5">
      <!-- 2023-02-26 -->
      <g transform="translate(468.638121 495.213718) rotate(-45) scale(0.2 -0.2)">
       <defs>
        <path id="DejaVuSans-36" d="M 2113 2584 
Q 1688 2584 1439 2293 
Q 1191 2003 1191 1497 
Q 1191 994 1439 701 
Q 1688 409 2113 409 
Q 2538 409 2786 701 
Q 3034 994 3034 1497 
Q 3034 2003 2786 2293 
Q 2538 2584 2113 2584 
z
M 3366 4563 
L 3366 3988 
Q 3128 4100 2886 4159 
Q 2644 4219 2406 4219 
Q 1781 4219 1451 3797 
Q 1122 3375 1075 2522 
Q 1259 2794 1537 2939 
Q 1816 3084 2150 3084 
Q 2853 3084 3261 2657 
Q 3669 2231 3669 1497 
Q 3669 778 3244 343 
Q 2819 -91 2113 -91 
Q 1303 -91 875 529 
Q 447 1150 447 2328 
Q 447 3434 972 4092 
Q 1497 4750 2381 4750 
Q 2619 4750 2861 4703 
Q 3103 4656 3366 4563 
z
" transform="scale(0.015625)"/>
       </defs>
       <use xlink:href="#DejaVuSans-32"/>
       <use xlink:href="#DejaVuSans-30" x="63.623047"/>
       <use xlink:href="#DejaVuSans-32" x="127.246094"/>
       <use xlink:href="#DejaVuSans-33" x="190.869141"/>
       <use xlink:href="#DejaVuSans-2d" x="254.492188"/>
       <use xlink:href="#DejaVuSans-30" x="290.576172"/>
       <use xlink:href="#DejaVuSans-32" x="354.199219"/>
       <use xlink:href="#DejaVuSans-2d" x="417.822266"/>
       <use xlink:href="#DejaVuSans-32" x="453.90625"/>
       <use xlink:href="#DejaVuSans-36" x="517.529297"/>
      </g>
     </g>
    </g>
    <g id="xtick_6">
     <g id="line2d_6">
      <g>
       <use xlink:href="#mcbf9427451" x="666.440225" y="395.28" style="stroke: #000000; stroke-width: 0.8"/>
      </g>
     </g>
     <g id="text_6">
      <!-- 2023-03-12 -->
      <g transform="translate(581.311198 495.213718) rotate(-45) scale(0.2 -0.2)">
       <use xlink:href="#DejaVuSans-32"/>
       <use xlink:href="#DejaVuSans-30" x="63.623047"/>
       <use xlink:href="#DejaVuSans-32" x="127.246094"/>
       <use xlink:href="#DejaVuSans-33" x="190.869141"/>
       <use xlink:href="#DejaVuSans-2d" x="254.492188"/>
       <use xlink:href="#DejaVuSans-30" x="290.576172"/>
       <use xlink:href="#DejaVuSans-33" x="354.199219"/>
       <use xlink:href="#DejaVuSans-2d" x="417.822266"/>
       <use xlink:href="#DejaVuSans-31" x="453.90625"/>
       <use xlink:href="#DejaVuSans-32" x="517.529297"/>
      </g>
     </g>
    </g>
    <g id="xtick_7">
     <g id="line2d_7">
      <g>
       <use xlink:href="#mcbf9427451" x="779.113302" y="395.28" style="stroke: #000000; stroke-width: 0.8"/>
      </g>
     </g>
     <g id="text_7">
      <!-- 2023-03-26 -->
      <g transform="translate(693.984275 495.213718) rotate(-45) scale(0.2 -0.2)">
       <use xlink:href="#DejaVuSans-32"/>
       <use xlink:href="#DejaVuSans-30" x="63.623047"/>
       <use xlink:href="#DejaVuSans-32" x="127.246094"/>
       <use xlink:href="#DejaVuSans-33" x="190.869141"/>
       <use xlink:href="#DejaVuSans-2d" x="254.492188"/>
       <use xlink:href="#DejaVuSans-30" x="290.576172"/>
       <use xlink:href="#DejaVuSans-33" x="354.199219"/>
       <use xlink:href="#DejaVuSans-2d" x="417.822266"/>
       <use xlink:href="#DejaVuSans-32" x="453.90625"/>
       <use xlink:href="#DejaVuSans-36" x="517.529297"/>
      </g>
     </g>
    </g>
    <g id="xtick_8">
     <g id="line2d_8">
      <g>
       <use xlink:href="#mcbf9427451" x="891.786379" y="395.28" style="stroke: #000000; stroke-width: 0.8"/>
      </g>
     </g>
     <g id="text_8">
      <!-- 2023-04-09 -->
      <g transform="translate(806.657352 495.213718) rotate(-45) scale(0.2 -0.2)">
       <defs>
        <path id="DejaVuSans-34" d="M 2419 4116 
L 825 1625 
L 2419 1625 
L 2419 4116 
z
M 2253 4666 
L 3047 4666 
L 3047 1625 
L 3713 1625 
L 3713 1100 
L 3047 1100 
L 3047 0 
L 2419 0 
L 2419 1100 
L 313 1100 
L 313 1709 
L 2253 4666 
z
" transform="scale(0.015625)"/>
       </defs>
       <use xlink:href="#DejaVuSans-32"/>
       <use xlink:href="#DejaVuSans-30" x="63.623047"/>
       <use xlink:href="#DejaVuSans-32" x="127.246094"/>
       <use xlink:href="#DejaVuSans-33" x="190.869141"/>
       <use xlink:href="#DejaVuSans-2d" x="254.492188"/>
       <use xlink:href="#DejaVuSans-30" x="290.576172"/>
       <use xlink:href="#DejaVuSans-34" x="354.199219"/>
       <use xlink:href="#DejaVuSans-2d" x="417.822266"/>
       <use xlink:href="#DejaVuSans-30" x="453.90625"/>
       <use xlink:href="#DejaVuSans-39" x="517.529297"/>
      </g>
     </g>
    </g>
    <g id="xtick_9">
     <g id="line2d_9">
      <g>
       <use xlink:href="#mcbf9427451" x="940.074841" y="395.28" style="stroke: #000000; stroke-width: 0.8"/>
      </g>
     </g>
     <g id="text_9">
      <!-- 2023-04-15 -->
      <g transform="translate(854.945813 495.213718) rotate(-45) scale(0.2 -0.2)">
       <use xlink:href="#DejaVuSans-32"/>
       <use xlink:href="#DejaVuSans-30" x="63.623047"/>
       <use xlink:href="#DejaVuSans-32" x="127.246094"/>
       <use xlink:href="#DejaVuSans-33" x="190.869141"/>
       <use xlink:href="#DejaVuSans-2d" x="254.492188"/>
       <use xlink:href="#DejaVuSans-30" x="290.576172"/>
       <use xlink:href="#DejaVuSans-34" x="354.199219"/>
       <use xlink:href="#DejaVuSans-2d" x="417.822266"/>
       <use xlink:href="#DejaVuSans-31" x="453.90625"/>
       <use xlink:href="#DejaVuSans-35" x="517.529297"/>
      </g>
     </g>
    </g>
   </g>
   <g id="matplotlib.axis_2">
    <g id="ytick_1">
     <g id="line2d_10">
      <defs>
       <path id="m587e211186" d="M 0 0 
L -3.5 0 
" style="stroke: #000000; stroke-width: 0.8"/>
      </defs>
      <g>
       <use xlink:href="#m587e211186" x="103.074841" y="342.463143" style="stroke: #000000; stroke-width: 0.8"/>
      </g>
     </g>
     <g id="text_10">
      <!-- −0.10 -->
      <g transform="translate(34.784216 350.06158) scale(0.2 -0.2)">
       <defs>
        <path id="DejaVuSans-2212" d="M 678 2272 
L 4684 2272 
L 4684 1741 
L 678 1741 
L 678 2272 
z
" transform="scale(0.015625)"/>
        <path id="DejaVuSans-2e" d="M 684 794 
L 1344 794 
L 1344 0 
L 684 0 
L 684 794 
z
" transform="scale(0.015625)"/>
       </defs>
       <use xlink:href="#DejaVuSans-2212"/>
       <use xlink:href="#DejaVuSans-30" x="83.789062"/>
       <use xlink:href="#DejaVuSans-2e" x="147.412109"/>
       <use xlink:href="#DejaVuSans-31" x="179.199219"/>
       <use xlink:href="#DejaVuSans-30" x="242.822266"/>
      </g>
     </g>
    </g>
    <g id="ytick_2">
     <g id="line2d_11">
      <g>
       <use xlink:href="#m587e211186" x="103.074841" y="269.645278" style="stroke: #000000; stroke-width: 0.8"/>
      </g>
     </g>
     <g id="text_11">
      <!-- −0.05 -->
      <g transform="translate(34.784216 277.243715) scale(0.2 -0.2)">
       <use xlink:href="#DejaVuSans-2212"/>
       <use xlink:href="#DejaVuSans-30" x="83.789062"/>
       <use xlink:href="#DejaVuSans-2e" x="147.412109"/>
       <use xlink:href="#DejaVuSans-30" x="179.199219"/>
       <use xlink:href="#DejaVuSans-35" x="242.822266"/>
      </g>
     </g>
    </g>
    <g id="ytick_3">
     <g id="line2d_12">
      <g>
       <use xlink:href="#m587e211186" x="103.074841" y="196.827413" style="stroke: #000000; stroke-width: 0.8"/>
      </g>
     </g>
     <g id="text_12">
      <!-- 0.00 -->
      <g transform="translate(51.543591 204.42585) scale(0.2 -0.2)">
       <use xlink:href="#DejaVuSans-30"/>
       <use xlink:href="#DejaVuSans-2e" x="63.623047"/>
       <use xlink:href="#DejaVuSans-30" x="95.410156"/>
       <use xlink:href="#DejaVuSans-30" x="159.033203"/>
      </g>
     </g>
    </g>
    <g id="ytick_4">
     <g id="line2d_13">
      <g>
       <use xlink:href="#m587e211186" x="103.074841" y="124.009548" style="stroke: #000000; stroke-width: 0.8"/>
      </g>
     </g>
     <g id="text_13">
      <!-- 0.05 -->
      <g transform="translate(51.543591 131.607985) scale(0.2 -0.2)">
       <use xlink:href="#DejaVuSans-30"/>
       <use xlink:href="#DejaVuSans-2e" x="63.623047"/>
       <use xlink:href="#DejaVuSans-30" x="95.410156"/>
       <use xlink:href="#DejaVuSans-35" x="159.033203"/>
      </g>
     </g>
    </g>
    <g id="ytick_5">
     <g id="line2d_14">
      <g>
       <use xlink:href="#m587e211186" x="103.074841" y="51.191683" style="stroke: #000000; stroke-width: 0.8"/>
      </g>
     </g>
     <g id="text_14">
      <!-- 0.10 -->
      <g transform="translate(51.543591 58.79012) scale(0.2 -0.2)">
       <use xlink:href="#DejaVuSans-30"/>
       <use xlink:href="#DejaVuSans-2e" x="63.623047"/>
       <use xlink:href="#DejaVuSans-31" x="95.410156"/>
       <use xlink:href="#DejaVuSans-30" x="159.033203"/>
      </g>
     </g>
    </g>
   </g>
   <g id="line2d_15">
    <path d="M 940.074841 196.827413 
" clip-path="url(#p141a27d487)" style="fill: none; stroke: #ffa500; stroke-width: 1.5; stroke-linecap: square"/>
   </g>
   <g id="line2d_16">
    <path d="M 103.074841 196.827413 
L 948.274841 196.827413 
" clip-path="url(#p141a27d487)" style="fill: none; stroke-dasharray: 7.4,3.2; stroke-dashoffset: 0; stroke: #000000; stroke-width: 2"/>
   </g>
   <g id="patch_3">
    <path d="M 103.074841 395.28 
L 103.074841 7.2 
" style="fill: none; stroke: #000000; stroke-width: 0.8; stroke-linejoin: miter; stroke-linecap: square"/>
   </g>
   <g id="patch_4">
    <path d="M 940.074841 395.28 
L 940.074841 7.2 
" style="fill: none; stroke: #000000; stroke-width: 0.8; stroke-linejoin: miter; stroke-linecap: square"/>
   </g>
   <g id="patch_5">
    <path d="M 103.074841 395.28 
L 940.074841 395.28 
" style="fill: none; stroke: #000000; stroke-width: 0.8; stroke-linejoin: miter; stroke-linecap: square"/>
   </g>
   <g id="patch_6">
    <path d="M 103.074841 7.2 
L 940.074841 7.2 
" style="fill: none; stroke: #000000; stroke-width: 0.8; stroke-linejoin: miter; stroke-linecap: square"/>
   </g>
  </g>
 </g>
 <defs>
  <clipPath id="p141a27d487">
   <rect x="103.074841" y="7.2" width="837" height="388.08"/>
  </clipPath>
 </defs>
</svg>
