<?xml version="1.0" encoding="utf-8" standalone="no"?>
<!DOCTYPE svg PUBLIC "-//W3C//DTD SVG 1.1//EN"
  "http://www.w3.org/Graphics/SVG/1.1/DTD/svg11.dtd">
<svg xmlns:xlink="http://www.w3.org/1999/xlink" width="1040.965466pt" height="512.59342pt" viewBox="0 0 1040.965466 512.59342" xmlns="http://www.w3.org/2000/svg" version="1.1">
 <metadata>
  <rdf:RDF xmlns:dc="http://purl.org/dc/elements/1.1/" xmlns:cc="http://creativecommons.org/ns#" xmlns:rdf="http://www.w3.org/1999/02/22-rdf-syntax-ns#">
   <cc:Work>
    <dc:type rdf:resource="http://purl.org/dc/dcmitype/StillImage"/>
    <dc:date>2023-11-24T15:25:51.946222</dc:date>
    <dc:format>image/svg+xml</dc:format>
    <dc:creator>
     <cc:Agent>
      <dc:title>Matplotlib v3.7.2, https://matplotlib.org/</dc:title>
     </cc:Agent>
    </dc:creator>
   </cc:Work>
  </rdf:RDF>
 </metadata>
 <defs>
  <style type="text/css">*{stroke-linejoin: round; stroke-linecap: butt}</style>
 </defs>
 <g id="figure_1">
  <g id="patch_1">
   <path d="M 0 512.59342 
L 1040.965466 512.59342 
L 1040.965466 -0 
L 0 -0 
z
" style="fill: #ffffff"/>
  </g>
  <g id="axes_1">
   <g id="patch_2">
    <path d="M 103.074841 402.51858 
L 940.074841 402.51858 
L 940.074841 14.43858 
L 103.074841 14.43858 
z
" style="fill: #ffffff"/>
   </g>
   <g id="PolyCollection_1">
    <defs>
     <path id="m0aa94c3261" d="M 103.074841 -209.007169 
L 103.074841 -209.00661 
L 104.356617 -209.003224 
L 105.638394 -208.99016 
L 106.92017 -208.993357 
L 108.201946 -208.977441 
L 109.483723 -208.97092 
L 110.765499 -208.979743 
L 112.047276 -208.985266 
L 113.329052 -208.98043 
L 114.610828 -208.966599 
L 115.892605 -208.963644 
L 117.174381 -208.97264 
L 118.456158 -208.976415 
L 119.737934 -208.989338 
L 121.019711 -208.981882 
L 122.301487 -208.989963 
L 123.583263 -208.993889 
L 124.86504 -209.004412 
L 126.146816 -208.999704 
L 127.428593 -208.990462 
L 128.710369 -208.997743 
L 129.992145 -208.997658 
L 131.273922 -208.990224 
L 132.555698 -209.000342 
L 133.837475 -208.986762 
L 135.119251 -208.994158 
L 136.401028 -208.987451 
L 137.682804 -208.996585 
L 138.96458 -209.002301 
L 140.246357 -208.990761 
L 141.528133 -208.990348 
L 142.80991 -209.006653 
L 144.091686 -208.990358 
L 145.373462 -208.987921 
L 146.655239 -209.00381 
L 147.937015 -208.994669 
L 149.218792 -208.995986 
L 150.500568 -208.996137 
L 151.782345 -208.984239 
L 153.064121 -208.989431 
L 154.345897 -208.99677 
L 155.627674 -208.998849 
L 156.90945 -209.004514 
L 158.191227 -209.001569 
L 159.473003 -209.011388 
L 160.754779 -208.998842 
L 162.036556 -209.002715 
L 163.318332 -208.980632 
L 164.600109 -208.986721 
L 165.881885 -209.006167 
L 167.163662 -208.989242 
L 168.445438 -208.988707 
L 169.727214 -209.007476 
L 171.008991 -209.001331 
L 172.290767 -208.994738 
L 173.572544 -209.000593 
L 174.85432 -209.001562 
L 176.136096 -208.996923 
L 177.417873 -209.005127 
L 178.699649 -209.011185 
L 179.981426 -209.003693 
L 181.263202 -209.006355 
L 182.544979 -209.003318 
L 183.826755 -208.989424 
L 185.108531 -208.997596 
L 186.390308 -209.006655 
L 187.672084 -209.010738 
L 188.953861 -209.008237 
L 190.235637 -208.998433 
L 191.517413 -209.004679 
L 192.79919 -209.000647 
L 194.080966 -209.00729 
L 195.362743 -208.969295 
L 196.644519 -209.006737 
L 197.926296 -208.998055 
L 199.208072 -209.006213 
L 200.489848 -208.984202 
L 201.771625 -209.004359 
L 203.053401 -209.000878 
L 204.335178 -209.008034 
L 205.616954 -209.011751 
L 206.89873 -209.002996 
L 208.180507 -209.00149 
L 209.462283 -208.977481 
L 210.74406 -208.983379 
L 212.025836 -209.0035 
L 213.307613 -208.992628 
L 214.589389 -208.970437 
L 215.871165 -208.993529 
L 217.152942 -208.989563 
L 218.434718 -209.000517 
L 219.716495 -209.000572 
L 220.998271 -208.985807 
L 222.280047 -208.992742 
L 223.561824 -209.010706 
L 224.8436 -208.962217 
L 226.125377 -208.99303 
L 227.407153 -209.003156 
L 228.68893 -209.000809 
L 229.970706 -209.001506 
L 231.252482 -209.000149 
L 232.534259 -209.008863 
L 233.816035 -208.96988 
L 235.097812 -208.963684 
L 236.379588 -208.973721 
L 237.661364 -208.982831 
L 238.943141 -208.98835 
L 240.224917 -208.906156 
L 241.506694 -208.916107 
L 242.78847 -208.976551 
L 244.070247 -208.953843 
L 245.352023 -208.948725 
L 246.633799 -208.93543 
L 247.915576 -208.943345 
L 249.197352 -208.972077 
L 250.479129 -208.866024 
L 251.760905 -208.925443 
L 253.042681 -208.889172 
L 254.324458 -208.938242 
L 255.606234 -208.851123 
L 256.888011 -208.920497 
L 258.169787 -208.935516 
L 259.451564 -208.900084 
L 260.73334 -208.909091 
L 262.015116 -208.883792 
L 263.296893 -208.902778 
L 264.578669 -208.872256 
L 265.860446 -208.919514 
L 267.142222 -208.84804 
L 268.423998 -208.88365 
L 269.705775 -208.902349 
L 270.987551 -208.900275 
L 272.269328 -208.896781 
L 273.551104 -208.904283 
L 274.832881 -208.765701 
L 276.114657 -208.978152 
L 277.396433 -208.910396 
L 278.67821 -208.780974 
L 279.959986 -208.772137 
L 281.241763 -208.803735 
L 282.523539 -208.852332 
L 283.805315 -208.873504 
L 285.087092 -208.581635 
L 286.368868 -208.896782 
L 287.650645 -208.827745 
L 288.932421 -208.772135 
L 290.214198 -208.728745 
L 291.495974 -208.710993 
L 292.77775 -208.689617 
L 294.059527 -208.218855 
L 295.341303 -208.04875 
L 296.62308 -208.539367 
L 297.904856 -208.675867 
L 299.186632 -208.308027 
L 300.468409 -208.333058 
L 301.750185 -208.200391 
L 303.031962 -207.764705 
L 304.313738 -207.84949 
L 305.595515 -208.193279 
L 306.877291 -207.846082 
L 308.159067 -207.122659 
L 309.440844 -207.099751 
L 310.72262 -206.413287 
L 312.004397 -205.744361 
L 313.286173 -206.088347 
L 314.567949 -204.674951 
L 315.849726 -202.735138 
L 317.131502 -200.394139 
L 318.413279 -200.771867 
L 319.695055 -196.964698 
L 320.976832 -195.037306 
L 322.258608 -197.73956 
L 323.540384 -196.353748 
L 324.822161 -193.340212 
L 326.103937 -193.560996 
L 327.385714 -192.367856 
L 328.66749 -184.127273 
L 329.949266 -173.132443 
L 331.231043 -166.990176 
L 332.512819 -178.376184 
L 333.794596 -171.874333 
L 335.076372 -163.523973 
L 336.358149 -163.101889 
L 337.639925 -147.0112 
L 338.921701 -149.06484 
L 340.203478 -152.841412 
L 341.485254 -165.194231 
L 342.767031 -153.135373 
L 344.048807 -145.945891 
L 345.330583 -148.415888 
L 346.61236 -146.037217 
L 347.894136 -139.057398 
L 349.175913 -139.646205 
L 350.457689 -145.237907 
L 351.739466 -137.67017 
L 353.021242 -135.974908 
L 354.303018 -138.363735 
L 355.584795 -133.293976 
L 356.866571 -131.200607 
L 358.148348 -131.530308 
L 359.430124 -132.599363 
L 360.7119 -130.71017 
L 361.993677 -131.94167 
L 363.275453 -131.45412 
L 364.55723 -129.734142 
L 365.839006 -130.8103 
L 367.120783 -129.797685 
L 368.402559 -129.432165 
L 369.684335 -130.250418 
L 370.966112 -129.511369 
L 372.247888 -131.036384 
L 373.529665 -130.408996 
L 374.811441 -129.628667 
L 376.093217 -129.2596 
L 377.374994 -129.786121 
L 378.65677 -130.212267 
L 379.938547 -130.163964 
L 381.220323 -130.481549 
L 382.502099 -130.292801 
L 383.783876 -130.234404 
L 385.065652 -130.9788 
L 386.347429 -130.149448 
L 387.629205 -130.666131 
L 388.910982 -130.827153 
L 390.192758 -130.403294 
L 391.474534 -130.857443 
L 392.756311 -130.756501 
L 394.038087 -130.309279 
L 395.319864 -129.752598 
L 396.60164 -130.672878 
L 397.883416 -130.996156 
L 399.165193 -130.768369 
L 400.446969 -128.732313 
L 401.728746 -128.547959 
L 403.010522 -127.714841 
L 404.292299 -129.354534 
L 405.574075 -130.352733 
L 406.855851 -129.881358 
L 408.137628 -128.538821 
L 409.419404 -128.252148 
L 410.701181 -130.37883 
L 411.982957 -128.390432 
L 413.264733 -129.218746 
L 414.54651 -129.167903 
L 415.828286 -130.246114 
L 417.110063 -129.410197 
L 418.391839 -129.809066 
L 419.673616 -129.191841 
L 420.955392 -129.875398 
L 422.237168 -130.602513 
L 423.518945 -131.51871 
L 424.800721 -131.86802 
L 426.082498 -132.343831 
L 427.364274 -132.990153 
L 428.64605 -132.942112 
L 429.927827 -133.687752 
L 431.209603 -134.390058 
L 432.49138 -135.78722 
L 433.773156 -137.13844 
L 435.054933 -137.791627 
L 436.336709 -139.173053 
L 437.618485 -139.408153 
L 438.900262 -140.525058 
L 440.182038 -142.186048 
L 441.463815 -143.593784 
L 442.745591 -144.67865 
L 444.027367 -146.481108 
L 445.309144 -147.462396 
L 446.59092 -149.131042 
L 447.872697 -150.689535 
L 449.154473 -152.190692 
L 450.43625 -154.031745 
L 451.718026 -155.511831 
L 452.999802 -157.391961 
L 454.281579 -158.949404 
L 455.563355 -161.007407 
L 456.845132 -162.821411 
L 458.126908 -164.688944 
L 459.408684 -166.526565 
L 460.690461 -168.494891 
L 461.972237 -170.588267 
L 463.254014 -172.611675 
L 464.53579 -175.160218 
L 465.817567 -177.107954 
L 467.099343 -179.25868 
L 468.381119 -181.14876 
L 469.662896 -183.618084 
L 470.944672 -186.066347 
L 472.226449 -188.033642 
L 473.508225 -190.613277 
L 474.790001 -193.32649 
L 476.071778 -195.560526 
L 477.353554 -198.179865 
L 478.635331 -200.287861 
L 479.917107 -202.943596 
L 481.198884 -206.049526 
L 482.48066 -208.617898 
L 483.762436 -210.682101 
L 485.044213 -213.65244 
L 486.325989 -216.165089 
L 487.607766 -219.001773 
L 488.889542 -221.208863 
L 490.171318 -224.425393 
L 491.453095 -227.321465 
L 492.734871 -227.375037 
L 494.016648 -232.574994 
L 495.298424 -233.888838 
L 496.580201 -236.938571 
L 497.861977 -238.739134 
L 499.143753 -241.923285 
L 500.42553 -244.232777 
L 501.707306 -246.866555 
L 502.989083 -249.079296 
L 504.270859 -251.160681 
L 505.552635 -253.67424 
L 506.834412 -252.793632 
L 508.116188 -258.984513 
L 509.397965 -260.095297 
L 510.679741 -258.133451 
L 511.961518 -263.835009 
L 513.243294 -263.375857 
L 514.52507 -264.406741 
L 515.806847 -268.210951 
L 517.088623 -268.257577 
L 518.3704 -265.05356 
L 519.652176 -269.119147 
L 520.933952 -269.916466 
L 522.215729 -268.871153 
L 523.497505 -269.368915 
L 524.779282 -268.358187 
L 526.061058 -266.518674 
L 527.342835 -264.38205 
L 528.624611 -255.422671 
L 529.906387 -259.452669 
L 531.188164 -254.939263 
L 532.46994 -252.502358 
L 533.751717 -250.661745 
L 535.033493 -247.77203 
L 536.315269 -244.924774 
L 537.597046 -250.230756 
L 538.878822 -246.901454 
L 540.160599 -240.730226 
L 541.442375 -238.279774 
L 542.724152 -238.251866 
L 544.005928 -230.569545 
L 545.287704 -230.912579 
L 546.569481 -230.104632 
L 547.851257 -230.964865 
L 549.133034 -225.404053 
L 550.41481 -228.132336 
L 551.696586 -230.541987 
L 552.978363 -226.013677 
L 554.260139 -222.180818 
L 555.541916 -224.231599 
L 556.823692 -222.255008 
L 558.105469 -222.386089 
L 559.387245 -223.183473 
L 560.669021 -224.79 
L 561.950798 -225.069777 
L 563.232574 -225.334026 
L 564.514351 -221.58159 
L 565.796127 -226.393426 
L 567.077903 -223.439613 
L 568.35968 -225.144353 
L 569.641456 -227.447201 
L 570.923233 -226.698697 
L 572.205009 -227.203943 
L 573.486786 -230.933323 
L 574.768562 -230.676544 
L 576.050338 -232.626618 
L 577.332115 -231.534913 
L 578.613891 -233.816013 
L 579.895668 -236.055371 
L 581.177444 -237.152078 
L 582.45922 -238.787134 
L 583.740997 -240.645191 
L 585.022773 -242.738262 
L 586.30455 -244.152709 
L 587.586326 -247.437783 
L 588.868103 -248.982581 
L 590.149879 -248.753621 
L 591.431655 -250.657121 
L 592.713432 -254.007296 
L 593.995208 -256.231582 
L 595.276985 -258.389787 
L 596.558761 -262.657616 
L 597.840537 -263.671464 
L 599.122314 -263.925531 
L 600.40409 -268.020119 
L 601.685867 -270.573635 
L 602.967643 -274.100994 
L 604.24942 -275.00914 
L 605.531196 -277.250928 
L 606.812972 -279.647567 
L 608.094749 -282.196116 
L 609.376525 -283.913138 
L 610.658302 -286.975356 
L 611.940078 -290.809621 
L 613.221854 -293.181564 
L 614.503631 -296.354921 
L 615.785407 -301.224665 
L 617.067184 -300.770766 
L 618.34896 -305.709497 
L 619.630737 -306.049957 
L 620.912513 -307.761826 
L 622.194289 -308.853815 
L 623.476066 -312.148597 
L 624.757842 -313.158224 
L 626.039619 -314.64172 
L 627.321395 -320.61652 
L 628.603171 -319.971083 
L 629.884948 -321.94639 
L 631.166724 -322.224607 
L 632.448501 -325.708386 
L 633.730277 -326.030626 
L 635.012054 -327.686937 
L 636.29383 -332.09305 
L 637.575606 -333.824804 
L 638.857383 -335.894169 
L 640.139159 -337.572477 
L 641.420936 -339.474094 
L 642.702712 -340.48499 
L 643.984488 -341.86607 
L 645.266265 -343.780886 
L 646.548041 -345.791506 
L 647.829818 -348.476862 
L 649.111594 -348.856748 
L 650.393371 -349.803819 
L 651.675147 -351.826502 
L 652.956923 -353.552966 
L 654.2387 -358.345317 
L 655.520476 -356.027211 
L 656.802253 -357.987022 
L 658.084029 -358.84604 
L 659.365805 -360.986156 
L 660.647582 -363.449413 
L 661.929358 -365.467611 
L 663.211135 -366.660592 
L 664.492911 -368.420196 
L 665.774688 -369.410781 
L 667.056464 -371.176174 
L 668.33824 -372.81807 
L 669.620017 -371.109654 
L 670.901793 -373.521125 
L 672.18357 -373.386336 
L 673.465346 -372.847671 
L 674.747122 -376.480879 
L 676.028899 -376.124825 
L 677.310675 -375.748457 
L 678.592452 -377.164873 
L 679.874228 -375.802342 
L 681.156005 -378.248731 
L 682.437781 -380.110627 
L 683.719557 -377.97699 
L 685.001334 -378.175371 
L 686.28311 -379.881741 
L 687.564887 -379.414252 
L 688.846663 -380.506637 
L 690.128439 -377.306099 
L 691.410216 -378.392172 
L 692.691992 -378.299768 
L 693.973769 -381.57193 
L 695.255545 -383.917819 
L 696.537322 -381.551981 
L 697.819098 -378.886755 
L 699.100874 -382.655496 
L 700.382651 -383.266114 
L 701.664427 -386.070858 
L 702.946204 -385.943936 
L 704.22798 -384.729436 
L 705.509756 -386.93043 
L 706.791533 -389.069458 
L 708.073309 -386.046486 
L 709.355086 -388.549728 
L 710.636862 -385.91878 
L 711.918639 -385.540962 
L 713.200415 -390.488024 
L 714.482191 -389.990229 
L 715.763968 -391.622494 
L 717.045744 -390.428559 
L 718.327521 -388.741895 
L 719.609297 -383.729056 
L 720.891073 -381.919617 
L 722.17285 -384.111371 
L 723.454626 -379.145024 
L 724.736403 -371.485769 
L 726.018179 -380.763438 
L 727.299956 -383.982391 
L 728.581732 -380.689442 
L 729.863508 -377.813429 
L 731.145285 -377.277514 
L 732.427061 -379.007554 
L 733.708838 -373.08081 
L 734.990614 -369.508526 
L 736.27239 -376.135437 
L 737.554167 -370.137918 
L 738.835943 -373.020738 
L 740.11772 -373.039288 
L 741.399496 -367.587873 
L 742.681273 -369.261131 
L 743.963049 -364.944111 
L 745.244825 -364.711641 
L 746.526602 -371.01522 
L 747.808378 -366.23208 
L 749.090155 -366.683082 
L 750.371931 -362.94873 
L 751.653707 -364.703302 
L 752.935484 -360.271195 
L 754.21726 -363.711974 
L 755.499037 -361.194263 
L 756.780813 -361.181604 
L 758.06259 -359.834644 
L 759.344366 -364.647624 
L 760.626142 -359.63419 
L 761.907919 -358.32684 
L 763.189695 -356.46737 
L 764.471472 -353.100215 
L 765.753248 -354.583197 
L 767.035024 -355.766231 
L 768.316801 -352.815532 
L 769.598577 -350.241446 
L 770.880354 -353.301063 
L 772.16213 -354.943497 
L 773.443907 -352.151374 
L 774.725683 -350.340646 
L 776.007459 -354.570699 
L 777.289236 -355.701877 
L 778.571012 -348.619673 
L 779.852789 -346.341403 
L 781.134565 -353.846022 
L 782.416341 -351.921756 
L 783.698118 -350.702034 
L 784.979894 -349.819644 
L 786.261671 -345.533125 
L 787.543447 -347.652533 
L 788.825224 -350.440798 
L 790.107 -347.437031 
L 791.388776 -345.880207 
L 792.670553 -350.854812 
L 793.952329 -350.076239 
L 795.234106 -350.486611 
L 796.515882 -343.173474 
L 797.797658 -338.702502 
L 799.079435 -338.22073 
L 800.361211 -344.27035 
L 801.642988 -346.858233 
L 802.924764 -345.058156 
L 804.206541 -344.705084 
L 805.488317 -337.988543 
L 806.770093 -346.16565 
L 808.05187 -339.385468 
L 809.333646 -335.148356 
L 810.615423 -339.104124 
L 811.897199 -331.899418 
L 813.178975 -336.329497 
L 814.460752 -334.668058 
L 815.742528 -333.946685 
L 817.024305 -332.368879 
L 818.306081 -328.78954 
L 819.587858 -331.077347 
L 820.869634 -328.880548 
L 822.15141 -327.739461 
L 823.433187 -327.669607 
L 824.714963 -336.07045 
L 825.99674 -323.831382 
L 827.278516 -319.563785 
L 828.560292 -324.114598 
L 829.842069 -320.671263 
L 831.123845 -319.370954 
L 832.405622 -321.496922 
L 833.687398 -317.681355 
L 834.969175 -312.738691 
L 836.250951 -314.206424 
L 837.532727 -312.922856 
L 838.814504 -311.170469 
L 840.09628 -310.774812 
L 841.378057 -307.470974 
L 842.659833 -314.289303 
L 843.941609 -304.401359 
L 845.223386 -304.522397 
L 846.505162 -305.407792 
L 847.786939 -310.51084 
L 849.068715 -302.71074 
L 850.350492 -296.782003 
L 851.632268 -303.539576 
L 852.914044 -302.184451 
L 854.195821 -295.733163 
L 855.477597 -308.369514 
L 856.759374 -297.33059 
L 858.04115 -304.00885 
L 859.322926 -293.259595 
L 860.604703 -299.460732 
L 861.886479 -294.55261 
L 863.168256 -294.127209 
L 864.450032 -291.07143 
L 865.731809 -291.558993 
L 867.013585 -293.711844 
L 868.295361 -294.499412 
L 869.577138 -292.684194 
L 870.858914 -288.321819 
L 872.140691 -289.117847 
L 873.422467 -290.073992 
L 874.704243 -286.45662 
L 875.98602 -286.977689 
L 877.267796 -288.292156 
L 878.549573 -289.41541 
L 879.831349 -284.786478 
L 881.113126 -284.568397 
L 882.394902 -283.616942 
L 883.676678 -286.685889 
L 884.958455 -291.451524 
L 886.240231 -285.388704 
L 887.522008 -288.373842 
L 888.803784 -286.508036 
L 890.08556 -284.621131 
L 891.367337 -287.549484 
L 892.649113 -283.741797 
L 893.93089 -286.802104 
L 895.212666 -287.167844 
L 896.494443 -286.45591 
L 897.776219 -284.176017 
L 899.057995 -285.536328 
L 900.339772 -285.986291 
L 901.621548 -287.599702 
L 902.903325 -287.180239 
L 904.185101 -286.561014 
L 905.466877 -287.270347 
L 906.748654 -284.987158 
L 908.03043 -285.964077 
L 909.312207 -284.162829 
L 910.593983 -283.419879 
L 911.87576 -283.224706 
L 913.157536 -284.513541 
L 914.439312 -284.847846 
L 915.721089 -285.622152 
L 917.002865 -284.600325 
L 918.284642 -284.825106 
L 919.566418 -286.237241 
L 920.848194 -284.366258 
L 922.129971 -291.968204 
L 923.411747 -284.540742 
L 924.693524 -282.300081 
L 925.9753 -284.89679 
L 927.257077 -284.707405 
L 928.538853 -282.928891 
L 929.820629 -282.504812 
L 931.102406 -284.494485 
L 932.384182 -284.789394 
L 933.665959 -283.155905 
L 934.947735 -283.92698 
L 936.229511 -280.361571 
L 937.511288 -282.424677 
L 938.793064 -279.043185 
L 940.074841 -282.050644 
L 940.074841 -342.263648 
L 940.074841 -342.263648 
L 938.793064 -345.186533 
L 937.511288 -349.125712 
L 936.229511 -344.750435 
L 934.947735 -352.645791 
L 933.665959 -349.994699 
L 932.384182 -351.185139 
L 931.102406 -358.847112 
L 929.820629 -350.110456 
L 928.538853 -345.111085 
L 927.257077 -357.02338 
L 925.9753 -351.508997 
L 924.693524 -345.40073 
L 923.411747 -348.986703 
L 922.129971 -396.820161 
L 920.848194 -349.506056 
L 919.566418 -357.680791 
L 918.284642 -348.641617 
L 917.002865 -348.518039 
L 915.721089 -350.93833 
L 914.439312 -350.930516 
L 913.157536 -350.715491 
L 911.87576 -344.894419 
L 910.593983 -344.868929 
L 909.312207 -349.613025 
L 908.03043 -355.659416 
L 906.748654 -350.700162 
L 905.466877 -357.509556 
L 904.185101 -354.750889 
L 902.903325 -358.290101 
L 901.621548 -360.370717 
L 900.339772 -354.162858 
L 899.057995 -353.287607 
L 897.776219 -350.544498 
L 896.494443 -355.12663 
L 895.212666 -359.747837 
L 893.93089 -359.049158 
L 892.649113 -348.160864 
L 891.367337 -361.055521 
L 890.08556 -351.153265 
L 888.803784 -356.685187 
L 887.522008 -361.81102 
L 886.240231 -353.342938 
L 884.958455 -375.790077 
L 883.676678 -357.075834 
L 882.394902 -348.891643 
L 881.113126 -352.093365 
L 879.831349 -351.922327 
L 878.549573 -369.279713 
L 877.267796 -363.962372 
L 875.98602 -359.705509 
L 874.704243 -357.709614 
L 873.422467 -368.317219 
L 872.140691 -364.789322 
L 870.858914 -363.906823 
L 869.577138 -372.353396 
L 868.295361 -379.781647 
L 867.013585 -378.751515 
L 865.731809 -372.969948 
L 864.450032 -371.732508 
L 863.168256 -377.902654 
L 861.886479 -378.734529 
L 860.604703 -393.51178 
L 859.322926 -374.773262 
L 858.04115 -411.788304 
L 856.759374 -388.003632 
L 855.477597 -420.379281 
L 854.195821 -381.711858 
L 852.914044 -399.045228 
L 851.632268 -399.852138 
L 850.350492 -385.286256 
L 849.068715 -399.537972 
L 847.786939 -420.098789 
L 846.505162 -406.781852 
L 845.223386 -402.363997 
L 843.941609 -401.354244 
L 842.659833 -427.227825 
L 841.378057 -416.687136 
L 840.09628 -415.374925 
L 838.814504 -415.639569 
L 837.532727 -419.637113 
L 836.250951 -423.563258 
L 834.969175 -417.914894 
L 833.687398 -430.897421 
L 832.405622 -440.005293 
L 831.123845 -430.148761 
L 829.842069 -437.127383 
L 828.560292 -441.627039 
L 827.278516 -429.782692 
L 825.99674 -439.391676 
L 824.714963 -469.067317 
L 823.433187 -448.105837 
L 822.15141 -448.5836 
L 820.869634 -449.591408 
L 819.587858 -454.332968 
L 818.306081 -447.913011 
L 817.024305 -454.728726 
L 815.742528 -457.091681 
L 814.460752 -458.486663 
L 813.178975 -463.602309 
L 811.897199 -450.570921 
L 810.615423 -466.347315 
L 809.333646 -457.361997 
L 808.05187 -465.212109 
L 806.770093 -477.416714 
L 805.488317 -460.84638 
L 804.206541 -475.42446 
L 802.924764 -473.917942 
L 801.642988 -476.248301 
L 800.361211 -470.087139 
L 799.079435 -456.761294 
L 797.797658 -455.836196 
L 796.515882 -464.093686 
L 795.234106 -480.514841 
L 793.952329 -478.401078 
L 792.670553 -477.42093 
L 791.388776 -466.48545 
L 790.107 -468.066822 
L 788.825224 -473.585501 
L 787.543447 -466.243146 
L 786.261671 -462.409869 
L 784.979894 -469.236993 
L 783.698118 -468.732695 
L 782.416341 -470.534851 
L 781.134565 -473.09116 
L 779.852789 -456.220498 
L 778.571012 -462.351128 
L 777.289236 -473.030748 
L 776.007459 -468.516886 
L 774.725683 -459.694609 
L 773.443907 -462.71083 
L 772.16213 -466.02142 
L 770.880354 -461.14204 
L 769.598577 -453.077137 
L 768.316801 -459.478152 
L 767.035024 -462.346278 
L 765.753248 -458.347332 
L 764.471472 -458.669911 
L 763.189695 -459.924754 
L 761.907919 -461.646248 
L 760.626142 -462.675313 
L 759.344366 -470.07082 
L 758.06259 -461.472971 
L 756.780813 -462.267851 
L 755.499037 -460.387592 
L 754.21726 -461.68272 
L 752.935484 -457.105509 
L 751.653707 -462.234283 
L 750.371931 -457.929929 
L 749.090155 -462.525244 
L 747.808378 -460.439983 
L 746.526602 -466.262418 
L 745.244825 -458.389266 
L 743.963049 -455.274517 
L 742.681273 -458.607799 
L 741.399496 -457.107946 
L 740.11772 -462.476699 
L 738.835943 -460.47409 
L 737.554167 -457.498059 
L 736.27239 -463.687827 
L 734.990614 -455.38009 
L 733.708838 -457.434259 
L 732.427061 -464.30267 
L 731.145285 -460.545211 
L 729.863508 -460.458857 
L 728.581732 -461.754029 
L 727.299956 -464.564208 
L 726.018179 -460.259674 
L 724.736403 -446.598432 
L 723.454626 -454.863808 
L 722.17285 -460.441564 
L 720.891073 -456.987761 
L 719.609297 -457.919986 
L 718.327521 -461.737535 
L 717.045744 -462.851221 
L 715.763968 -463.558184 
L 714.482191 -460.019441 
L 713.200415 -458.997901 
L 711.918639 -453.027653 
L 710.636862 -451.934812 
L 709.355086 -453.423177 
L 708.073309 -449.266545 
L 706.791533 -452.191294 
L 705.509756 -447.527407 
L 704.22798 -444.470452 
L 702.946204 -443.501056 
L 701.664427 -443.418958 
L 700.382651 -438.743219 
L 699.100874 -437.298313 
L 697.819098 -432.70088 
L 696.537322 -433.592173 
L 695.255545 -434.901618 
L 693.973769 -431.492925 
L 692.691992 -428.286055 
L 691.410216 -427.154745 
L 690.128439 -424.241807 
L 688.846663 -426.703277 
L 687.564887 -424.476466 
L 686.28311 -424.424895 
L 685.001334 -422.516167 
L 683.719557 -422.134901 
L 682.437781 -422.678162 
L 681.156005 -419.060431 
L 679.874228 -416.656373 
L 678.592452 -417.573982 
L 677.310675 -415.08813 
L 676.028899 -415.777976 
L 674.747122 -414.148557 
L 673.465346 -410.115751 
L 672.18357 -410.089506 
L 670.901793 -409.282998 
L 669.620017 -406.606196 
L 668.33824 -407.638623 
L 667.056464 -405.703018 
L 665.774688 -403.283899 
L 664.492911 -402.650547 
L 663.211135 -401.55466 
L 661.929358 -400.840288 
L 660.647582 -399.482869 
L 659.365805 -397.834403 
L 658.084029 -396.34811 
L 656.802253 -395.937865 
L 655.520476 -394.838211 
L 654.2387 -397.748013 
L 652.956923 -393.749282 
L 651.675147 -392.608977 
L 650.393371 -391.33732 
L 649.111594 -391.028416 
L 647.829818 -391.227188 
L 646.548041 -389.264247 
L 645.266265 -387.966554 
L 643.984488 -386.888799 
L 642.702712 -386.244512 
L 641.420936 -385.783388 
L 640.139159 -384.849037 
L 638.857383 -384.018316 
L 637.575606 -382.63606 
L 636.29383 -381.537806 
L 635.012054 -378.18888 
L 633.730277 -377.446583 
L 632.448501 -377.865686 
L 631.166724 -375.3003 
L 629.884948 -375.866348 
L 628.603171 -374.842789 
L 627.321395 -376.28794 
L 626.039619 -371.273569 
L 624.757842 -370.697423 
L 623.476066 -370.542858 
L 622.194289 -368.072166 
L 620.912513 -368.045363 
L 619.630737 -367.283691 
L 618.34896 -367.568474 
L 617.067184 -363.470601 
L 615.785407 -365.587024 
L 614.503631 -361.250149 
L 613.221854 -359.246572 
L 611.940078 -357.828991 
L 610.658302 -354.793893 
L 609.376525 -353.015947 
L 608.094749 -351.808296 
L 606.812972 -350.463379 
L 605.531196 -348.674744 
L 604.24942 -347.338281 
L 602.967643 -347.29685 
L 601.685867 -344.801211 
L 600.40409 -343.247956 
L 599.122314 -339.593768 
L 597.840537 -340.444084 
L 596.558761 -340.567156 
L 595.276985 -336.651165 
L 593.995208 -335.278112 
L 592.713432 -334.121222 
L 591.431655 -331.058373 
L 590.149879 -329.744526 
L 588.868103 -331.242997 
L 587.586326 -330.568885 
L 586.30455 -327.630843 
L 585.022773 -327.132106 
L 583.740997 -325.384906 
L 582.45922 -323.960879 
L 581.177444 -323.018304 
L 579.895668 -323.040218 
L 578.613891 -320.906135 
L 577.332115 -318.907632 
L 576.050338 -320.776852 
L 574.768562 -319.366997 
L 573.486786 -320.570058 
L 572.205009 -316.623418 
L 570.923233 -316.975725 
L 569.641456 -318.264092 
L 568.35968 -316.180856 
L 567.077903 -314.482408 
L 565.796127 -319.063252 
L 564.514351 -314.016464 
L 563.232574 -319.440007 
L 561.950798 -320.167228 
L 560.669021 -320.486632 
L 559.387245 -319.53639 
L 558.105469 -319.074581 
L 556.823692 -318.792665 
L 555.541916 -321.990776 
L 554.260139 -320.250767 
L 552.978363 -325.932091 
L 551.696586 -334.245052 
L 550.41481 -331.293397 
L 549.133034 -328.016561 
L 547.851257 -336.844017 
L 546.569481 -335.736052 
L 545.287704 -337.759783 
L 544.005928 -338.109458 
L 542.724152 -350.186661 
L 541.442375 -351.438666 
L 540.160599 -355.665979 
L 538.878822 -365.098538 
L 537.597046 -371.931919 
L 536.315269 -365.144738 
L 535.033493 -369.99936 
L 533.751717 -375.092256 
L 532.46994 -378.070871 
L 531.188164 -381.934341 
L 529.906387 -389.326253 
L 528.624611 -383.699949 
L 527.342835 -397.082395 
L 526.061058 -401.454933 
L 524.779282 -403.525547 
L 523.497505 -405.166477 
L 522.215729 -404.320097 
L 520.933952 -405.176627 
L 519.652176 -403.463187 
L 518.3704 -398.211977 
L 517.088623 -402.870293 
L 515.806847 -402.092169 
L 514.52507 -396.521039 
L 513.243294 -394.635626 
L 511.961518 -395.04685 
L 510.679741 -386.50231 
L 509.397965 -389.011655 
L 508.116188 -386.560906 
L 506.834412 -377.889893 
L 505.552635 -378.455615 
L 504.270859 -374.311632 
L 502.989083 -370.757209 
L 501.707306 -367.088243 
L 500.42553 -363.089741 
L 499.143753 -359.129903 
L 497.861977 -354.126065 
L 496.580201 -351.091666 
L 495.298424 -346.073404 
L 494.016648 -343.527208 
L 492.734871 -336.172098 
L 491.453095 -335.003991 
L 490.171318 -330.469678 
L 488.889542 -325.361299 
L 487.607766 -321.805601 
L 486.325989 -317.194271 
L 485.044213 -313.15511 
L 483.762436 -308.458 
L 482.48066 -305.070422 
L 481.198884 -300.81816 
L 479.917107 -295.973142 
L 478.635331 -291.846842 
L 477.353554 -288.283127 
L 476.071778 -283.940375 
L 474.790001 -280.416431 
L 473.508225 -276.155316 
L 472.226449 -272.035621 
L 470.944672 -268.698521 
L 469.662896 -264.755418 
L 468.381119 -260.69409 
L 467.099343 -257.535125 
L 465.817567 -254.009657 
L 464.53579 -250.82456 
L 463.254014 -246.734005 
L 461.972237 -243.293093 
L 460.690461 -239.921931 
L 459.408684 -236.538632 
L 458.126908 -233.360848 
L 456.845132 -230.359325 
L 455.563355 -227.18905 
L 454.281579 -223.800044 
L 452.999802 -220.780877 
L 451.718026 -217.759792 
L 450.43625 -214.708869 
L 449.154473 -211.903561 
L 447.872697 -209.198425 
L 446.59092 -206.347999 
L 445.309144 -203.495612 
L 444.027367 -201.205619 
L 442.745591 -198.287837 
L 441.463815 -196.014926 
L 440.182038 -193.396305 
L 438.900262 -190.648675 
L 437.618485 -188.313906 
L 436.336709 -186.810482 
L 435.054933 -184.397684 
L 433.773156 -182.692421 
L 432.49138 -180.329973 
L 431.209603 -177.847576 
L 429.927827 -176.160788 
L 428.64605 -174.451569 
L 427.364274 -173.35414 
L 426.082498 -171.783676 
L 424.800721 -170.247245 
L 423.518945 -168.877569 
L 422.237168 -167.061608 
L 420.955392 -165.391348 
L 419.673616 -163.898578 
L 418.391839 -163.506733 
L 417.110063 -162.140343 
L 415.828286 -162.067829 
L 414.54651 -160.264937 
L 413.264733 -159.322227 
L 411.982957 -157.981868 
L 410.701181 -159.090378 
L 409.419404 -156.20328 
L 408.137628 -155.709995 
L 406.855851 -156.22413 
L 405.574075 -155.948878 
L 404.292299 -154.252568 
L 403.010522 -151.967126 
L 401.728746 -152.087403 
L 400.446969 -151.568656 
L 399.165193 -152.840863 
L 397.883416 -152.064122 
L 396.60164 -151.421345 
L 395.319864 -149.926881 
L 394.038087 -149.796185 
L 392.756311 -149.67044 
L 391.474534 -149.205625 
L 390.192758 -148.2245 
L 388.910982 -147.932736 
L 387.629205 -147.356842 
L 386.347429 -146.372381 
L 385.065652 -146.609477 
L 383.783876 -145.436288 
L 382.502099 -145.025513 
L 381.220323 -144.719147 
L 379.938547 -143.902474 
L 378.65677 -143.572625 
L 377.374994 -142.798688 
L 376.093217 -141.944622 
L 374.811441 -141.828136 
L 373.529665 -142.131597 
L 372.247888 -142.280917 
L 370.966112 -140.748673 
L 369.684335 -141.496814 
L 368.402559 -140.664519 
L 367.120783 -141.052639 
L 365.839006 -141.907722 
L 364.55723 -141.064235 
L 363.275453 -142.560732 
L 361.993677 -142.915542 
L 360.7119 -141.75107 
L 359.430124 -143.304289 
L 358.148348 -142.229905 
L 356.866571 -141.914507 
L 355.584795 -143.63678 
L 354.303018 -148.094265 
L 353.021242 -145.852824 
L 351.739466 -147.355325 
L 350.457689 -153.758917 
L 349.175913 -148.85298 
L 347.894136 -148.190859 
L 346.61236 -154.107394 
L 345.330583 -156.185066 
L 344.048807 -153.758498 
L 342.767031 -160.018211 
L 341.485254 -170.683122 
L 340.203478 -159.51679 
L 338.921701 -156.028085 
L 337.639925 -153.94325 
L 336.358149 -168.26302 
L 335.076372 -168.545775 
L 333.794596 -175.944468 
L 332.512819 -181.787927 
L 331.231043 -171.347535 
L 329.949266 -176.869255 
L 328.66749 -186.760337 
L 327.385714 -194.180048 
L 326.103937 -195.220142 
L 324.822161 -194.966741 
L 323.540384 -197.677176 
L 322.258608 -198.930688 
L 320.976832 -196.416558 
L 319.695055 -198.206232 
L 318.413279 -201.660181 
L 317.131502 -201.325988 
L 315.849726 -203.441562 
L 314.567949 -205.196741 
L 313.286173 -206.411435 
L 312.004397 -206.129482 
L 310.72262 -206.72215 
L 309.440844 -207.370692 
L 308.159067 -207.374081 
L 306.877291 -208.039548 
L 305.595515 -208.369511 
L 304.313738 -208.098982 
L 303.031962 -207.954718 
L 301.750185 -208.386547 
L 300.468409 -208.489066 
L 299.186632 -208.491737 
L 297.904856 -208.765389 
L 296.62308 -208.667937 
L 295.341303 -208.232366 
L 294.059527 -208.428648 
L 292.77775 -208.797302 
L 291.495974 -208.845956 
L 290.214198 -208.809093 
L 288.932421 -208.873397 
L 287.650645 -208.93425 
L 286.368868 -208.980799 
L 285.087092 -208.76492 
L 283.805315 -208.940705 
L 282.523539 -208.956713 
L 281.241763 -208.892288 
L 279.959986 -208.883252 
L 278.67821 -208.898754 
L 277.396433 -208.985084 
L 276.114657 -209.003942 
L 274.832881 -208.885914 
L 273.551104 -208.960997 
L 272.269328 -208.960531 
L 270.987551 -208.958135 
L 269.705775 -208.980427 
L 268.423998 -208.973941 
L 267.142222 -208.931825 
L 265.860446 -208.984833 
L 264.578669 -208.942474 
L 263.296893 -208.97943 
L 262.015116 -208.963986 
L 260.73334 -208.96619 
L 259.451564 -208.977952 
L 258.169787 -208.98841 
L 256.888011 -208.972338 
L 255.606234 -208.934296 
L 254.324458 -208.978029 
L 253.042681 -208.96695 
L 251.760905 -208.984974 
L 250.479129 -208.964468 
L 249.197352 -208.9995 
L 247.915576 -208.989891 
L 246.633799 -208.976747 
L 245.352023 -208.981429 
L 244.070247 -208.987614 
L 242.78847 -209.000577 
L 241.506694 -208.97891 
L 240.224917 -208.975225 
L 238.943141 -209.004385 
L 237.661364 -209.002181 
L 236.379588 -208.99878 
L 235.097812 -208.994743 
L 233.816035 -208.996645 
L 232.534259 -209.011694 
L 231.252482 -209.008029 
L 229.970706 -209.008602 
L 228.68893 -209.008434 
L 227.407153 -209.009275 
L 226.125377 -209.005057 
L 224.8436 -208.980318 
L 223.561824 -209.01212 
L 222.280047 -209.004508 
L 220.998271 -209.000432 
L 219.716495 -209.007637 
L 218.434718 -209.007574 
L 217.152942 -209.001387 
L 215.871165 -209.004163 
L 214.589389 -208.988379 
L 213.307613 -209.003417 
L 212.025836 -209.00855 
L 210.74406 -208.998559 
L 209.462283 -208.991753 
L 208.180507 -209.007453 
L 206.89873 -209.007987 
L 205.616954 -209.012335 
L 204.335178 -209.010398 
L 203.053401 -209.006603 
L 201.771625 -209.008362 
L 200.489848 -208.991314 
L 199.208072 -209.009342 
L 197.926296 -209.002624 
L 196.644519 -209.009738 
L 195.362743 -208.977515 
L 194.080966 -209.009962 
L 192.79919 -209.004953 
L 191.517413 -209.008709 
L 190.235637 -209.003971 
L 188.953861 -209.010604 
L 187.672084 -209.011945 
L 186.390308 -209.00984 
L 185.108531 -209.003258 
L 183.826755 -208.997022 
L 182.544979 -209.008228 
L 181.263202 -209.009766 
L 179.981426 -209.007243 
L 178.699649 -209.012149 
L 177.417873 -209.009133 
L 176.136096 -209.003223 
L 174.85432 -209.006247 
L 173.572544 -209.005748 
L 172.290767 -209.001356 
L 171.008991 -209.006639 
L 169.727214 -209.010319 
L 168.445438 -208.998899 
L 167.163662 -208.997135 
L 165.881885 -209.009751 
L 164.600109 -208.995448 
L 163.318332 -208.990662 
L 162.036556 -209.007474 
L 160.754779 -209.003456 
L 159.473003 -209.012221 
L 158.191227 -209.006391 
L 156.90945 -209.007847 
L 155.627674 -209.004222 
L 154.345897 -209.002939 
L 153.064121 -208.997043 
L 151.782345 -208.995959 
L 150.500568 -209.001869 
L 149.218792 -209.002063 
L 147.937015 -209.001067 
L 146.655239 -209.007144 
L 145.373462 -208.996571 
L 144.091686 -208.99794 
L 142.80991 -209.009976 
L 141.528133 -208.997262 
L 140.246357 -208.997623 
L 138.96458 -209.005308 
L 137.682804 -209.002026 
L 136.401028 -208.996305 
L 135.119251 -209.000716 
L 133.837475 -208.995447 
L 132.555698 -209.004912 
L 131.273922 -208.997819 
L 129.992145 -209.002962 
L 128.710369 -209.002997 
L 127.428593 -208.998126 
L 126.146816 -209.004748 
L 124.86504 -209.007599 
L 123.583263 -209.000412 
L 122.301487 -208.998563 
L 121.019711 -208.994178 
L 119.737934 -208.997821 
L 118.456158 -208.989888 
L 117.174381 -208.988636 
L 115.892605 -208.984696 
L 114.610828 -208.983384 
L 113.329052 -208.99319 
L 112.047276 -208.995157 
L 110.765499 -208.992812 
L 109.483723 -208.986021 
L 108.201946 -208.990792 
L 106.92017 -209.000048 
L 105.638394 -208.996846 
L 104.356617 -209.005047 
L 103.074841 -209.007169 
z
" style="stroke: #008000; stroke-opacity: 0.3"/>
    </defs>
    <g clip-path="url(#p433645de9e)">
     <use xlink:href="#m0aa94c3261" x="0" y="512.59342" style="fill: #008000; fill-opacity: 0.3; stroke: #008000; stroke-opacity: 0.3"/>
    </g>
   </g>
   <g id="matplotlib.axis_1">
    <g id="xtick_1">
     <g id="line2d_1">
      <defs>
       <path id="m1ff67fc964" d="M 0 0 
L 0 3.5 
" style="stroke: #000000; stroke-width: 0.8"/>
      </defs>
      <g>
       <use xlink:href="#m1ff67fc964" x="103.074841" y="402.51858" style="stroke: #000000; stroke-width: 0.8"/>
      </g>
     </g>
     <g id="text_1">
      <!-- 2021-07-01 -->
      <g transform="translate(17.945813 502.452298) rotate(-45) scale(0.2 -0.2)">
       <defs>
        <path id="DejaVuSans-32" d="M 1228 531 
L 3431 531 
L 3431 0 
L 469 0 
L 469 531 
Q 828 903 1448 1529 
Q 2069 2156 2228 2338 
Q 2531 2678 2651 2914 
Q 2772 3150 2772 3378 
Q 2772 3750 2511 3984 
Q 2250 4219 1831 4219 
Q 1534 4219 1204 4116 
Q 875 4013 500 3803 
L 500 4441 
Q 881 4594 1212 4672 
Q 1544 4750 1819 4750 
Q 2544 4750 2975 4387 
Q 3406 4025 3406 3419 
Q 3406 3131 3298 2873 
Q 3191 2616 2906 2266 
Q 2828 2175 2409 1742 
Q 1991 1309 1228 531 
z
" transform="scale(0.015625)"/>
        <path id="DejaVuSans-30" d="M 2034 4250 
Q 1547 4250 1301 3770 
Q 1056 3291 1056 2328 
Q 1056 1369 1301 889 
Q 1547 409 2034 409 
Q 2525 409 2770 889 
Q 3016 1369 3016 2328 
Q 3016 3291 2770 3770 
Q 2525 4250 2034 4250 
z
M 2034 4750 
Q 2819 4750 3233 4129 
Q 3647 3509 3647 2328 
Q 3647 1150 3233 529 
Q 2819 -91 2034 -91 
Q 1250 -91 836 529 
Q 422 1150 422 2328 
Q 422 3509 836 4129 
Q 1250 4750 2034 4750 
z
" transform="scale(0.015625)"/>
        <path id="DejaVuSans-31" d="M 794 531 
L 1825 531 
L 1825 4091 
L 703 3866 
L 703 4441 
L 1819 4666 
L 2450 4666 
L 2450 531 
L 3481 531 
L 3481 0 
L 794 0 
L 794 531 
z
" transform="scale(0.015625)"/>
        <path id="DejaVuSans-2d" d="M 313 2009 
L 1997 2009 
L 1997 1497 
L 313 1497 
L 313 2009 
z
" transform="scale(0.015625)"/>
        <path id="DejaVuSans-37" d="M 525 4666 
L 3525 4666 
L 3525 4397 
L 1831 0 
L 1172 0 
L 2766 4134 
L 525 4134 
L 525 4666 
z
" transform="scale(0.015625)"/>
       </defs>
       <use xlink:href="#DejaVuSans-32"/>
       <use xlink:href="#DejaVuSans-30" x="63.623047"/>
       <use xlink:href="#DejaVuSans-32" x="127.246094"/>
       <use xlink:href="#DejaVuSans-31" x="190.869141"/>
       <use xlink:href="#DejaVuSans-2d" x="254.492188"/>
       <use xlink:href="#DejaVuSans-30" x="290.576172"/>
       <use xlink:href="#DejaVuSans-37" x="354.199219"/>
       <use xlink:href="#DejaVuSans-2d" x="417.822266"/>
       <use xlink:href="#DejaVuSans-30" x="453.90625"/>
       <use xlink:href="#DejaVuSans-31" x="517.529297"/>
      </g>
     </g>
    </g>
    <g id="xtick_2">
     <g id="line2d_2">
      <g>
       <use xlink:href="#m1ff67fc964" x="138.96458" y="402.51858" style="stroke: #000000; stroke-width: 0.8"/>
      </g>
     </g>
     <g id="text_2">
      <!-- 2021-07-29 -->
      <g transform="translate(53.835553 502.452298) rotate(-45) scale(0.2 -0.2)">
       <defs>
        <path id="DejaVuSans-39" d="M 703 97 
L 703 672 
Q 941 559 1184 500 
Q 1428 441 1663 441 
Q 2288 441 2617 861 
Q 2947 1281 2994 2138 
Q 2813 1869 2534 1725 
Q 2256 1581 1919 1581 
Q 1219 1581 811 2004 
Q 403 2428 403 3163 
Q 403 3881 828 4315 
Q 1253 4750 1959 4750 
Q 2769 4750 3195 4129 
Q 3622 3509 3622 2328 
Q 3622 1225 3098 567 
Q 2575 -91 1691 -91 
Q 1453 -91 1209 -44 
Q 966 3 703 97 
z
M 1959 2075 
Q 2384 2075 2632 2365 
Q 2881 2656 2881 3163 
Q 2881 3666 2632 3958 
Q 2384 4250 1959 4250 
Q 1534 4250 1286 3958 
Q 1038 3666 1038 3163 
Q 1038 2656 1286 2365 
Q 1534 2075 1959 2075 
z
" transform="scale(0.015625)"/>
       </defs>
       <use xlink:href="#DejaVuSans-32"/>
       <use xlink:href="#DejaVuSans-30" x="63.623047"/>
       <use xlink:href="#DejaVuSans-32" x="127.246094"/>
       <use xlink:href="#DejaVuSans-31" x="190.869141"/>
       <use xlink:href="#DejaVuSans-2d" x="254.492188"/>
       <use xlink:href="#DejaVuSans-30" x="290.576172"/>
       <use xlink:href="#DejaVuSans-37" x="354.199219"/>
       <use xlink:href="#DejaVuSans-2d" x="417.822266"/>
       <use xlink:href="#DejaVuSans-32" x="453.90625"/>
       <use xlink:href="#DejaVuSans-39" x="517.529297"/>
      </g>
     </g>
    </g>
    <g id="xtick_3">
     <g id="line2d_3">
      <g>
       <use xlink:href="#m1ff67fc964" x="174.85432" y="402.51858" style="stroke: #000000; stroke-width: 0.8"/>
      </g>
     </g>
     <g id="text_3">
      <!-- 2021-08-26 -->
      <g transform="translate(89.725293 502.452298) rotate(-45) scale(0.2 -0.2)">
       <defs>
        <path id="DejaVuSans-38" d="M 2034 2216 
Q 1584 2216 1326 1975 
Q 1069 1734 1069 1313 
Q 1069 891 1326 650 
Q 1584 409 2034 409 
Q 2484 409 2743 651 
Q 3003 894 3003 1313 
Q 3003 1734 2745 1975 
Q 2488 2216 2034 2216 
z
M 1403 2484 
Q 997 2584 770 2862 
Q 544 3141 544 3541 
Q 544 4100 942 4425 
Q 1341 4750 2034 4750 
Q 2731 4750 3128 4425 
Q 3525 4100 3525 3541 
Q 3525 3141 3298 2862 
Q 3072 2584 2669 2484 
Q 3125 2378 3379 2068 
Q 3634 1759 3634 1313 
Q 3634 634 3220 271 
Q 2806 -91 2034 -91 
Q 1263 -91 848 271 
Q 434 634 434 1313 
Q 434 1759 690 2068 
Q 947 2378 1403 2484 
z
M 1172 3481 
Q 1172 3119 1398 2916 
Q 1625 2713 2034 2713 
Q 2441 2713 2670 2916 
Q 2900 3119 2900 3481 
Q 2900 3844 2670 4047 
Q 2441 4250 2034 4250 
Q 1625 4250 1398 4047 
Q 1172 3844 1172 3481 
z
" transform="scale(0.015625)"/>
        <path id="DejaVuSans-36" d="M 2113 2584 
Q 1688 2584 1439 2293 
Q 1191 2003 1191 1497 
Q 1191 994 1439 701 
Q 1688 409 2113 409 
Q 2538 409 2786 701 
Q 3034 994 3034 1497 
Q 3034 2003 2786 2293 
Q 2538 2584 2113 2584 
z
M 3366 4563 
L 3366 3988 
Q 3128 4100 2886 4159 
Q 2644 4219 2406 4219 
Q 1781 4219 1451 3797 
Q 1122 3375 1075 2522 
Q 1259 2794 1537 2939 
Q 1816 3084 2150 3084 
Q 2853 3084 3261 2657 
Q 3669 2231 3669 1497 
Q 3669 778 3244 343 
Q 2819 -91 2113 -91 
Q 1303 -91 875 529 
Q 447 1150 447 2328 
Q 447 3434 972 4092 
Q 1497 4750 2381 4750 
Q 2619 4750 2861 4703 
Q 3103 4656 3366 4563 
z
" transform="scale(0.015625)"/>
       </defs>
       <use xlink:href="#DejaVuSans-32"/>
       <use xlink:href="#DejaVuSans-30" x="63.623047"/>
       <use xlink:href="#DejaVuSans-32" x="127.246094"/>
       <use xlink:href="#DejaVuSans-31" x="190.869141"/>
       <use xlink:href="#DejaVuSans-2d" x="254.492188"/>
       <use xlink:href="#DejaVuSans-30" x="290.576172"/>
       <use xlink:href="#DejaVuSans-38" x="354.199219"/>
       <use xlink:href="#DejaVuSans-2d" x="417.822266"/>
       <use xlink:href="#DejaVuSans-32" x="453.90625"/>
       <use xlink:href="#DejaVuSans-36" x="517.529297"/>
      </g>
     </g>
    </g>
    <g id="xtick_4">
     <g id="line2d_4">
      <g>
       <use xlink:href="#m1ff67fc964" x="210.74406" y="402.51858" style="stroke: #000000; stroke-width: 0.8"/>
      </g>
     </g>
     <g id="text_4">
      <!-- 2021-09-23 -->
      <g transform="translate(125.615032 502.452298) rotate(-45) scale(0.2 -0.2)">
       <defs>
        <path id="DejaVuSans-33" d="M 2597 2516 
Q 3050 2419 3304 2112 
Q 3559 1806 3559 1356 
Q 3559 666 3084 287 
Q 2609 -91 1734 -91 
Q 1441 -91 1130 -33 
Q 819 25 488 141 
L 488 750 
Q 750 597 1062 519 
Q 1375 441 1716 441 
Q 2309 441 2620 675 
Q 2931 909 2931 1356 
Q 2931 1769 2642 2001 
Q 2353 2234 1838 2234 
L 1294 2234 
L 1294 2753 
L 1863 2753 
Q 2328 2753 2575 2939 
Q 2822 3125 2822 3475 
Q 2822 3834 2567 4026 
Q 2313 4219 1838 4219 
Q 1578 4219 1281 4162 
Q 984 4106 628 3988 
L 628 4550 
Q 988 4650 1302 4700 
Q 1616 4750 1894 4750 
Q 2613 4750 3031 4423 
Q 3450 4097 3450 3541 
Q 3450 3153 3228 2886 
Q 3006 2619 2597 2516 
z
" transform="scale(0.015625)"/>
       </defs>
       <use xlink:href="#DejaVuSans-32"/>
       <use xlink:href="#DejaVuSans-30" x="63.623047"/>
       <use xlink:href="#DejaVuSans-32" x="127.246094"/>
       <use xlink:href="#DejaVuSans-31" x="190.869141"/>
       <use xlink:href="#DejaVuSans-2d" x="254.492188"/>
       <use xlink:href="#DejaVuSans-30" x="290.576172"/>
       <use xlink:href="#DejaVuSans-39" x="354.199219"/>
       <use xlink:href="#DejaVuSans-2d" x="417.822266"/>
       <use xlink:href="#DejaVuSans-32" x="453.90625"/>
       <use xlink:href="#DejaVuSans-33" x="517.529297"/>
      </g>
     </g>
    </g>
    <g id="xtick_5">
     <g id="line2d_5">
      <g>
       <use xlink:href="#m1ff67fc964" x="246.633799" y="402.51858" style="stroke: #000000; stroke-width: 0.8"/>
      </g>
     </g>
     <g id="text_5">
      <!-- 2021-10-21 -->
      <g transform="translate(161.504772 502.452298) rotate(-45) scale(0.2 -0.2)">
       <use xlink:href="#DejaVuSans-32"/>
       <use xlink:href="#DejaVuSans-30" x="63.623047"/>
       <use xlink:href="#DejaVuSans-32" x="127.246094"/>
       <use xlink:href="#DejaVuSans-31" x="190.869141"/>
       <use xlink:href="#DejaVuSans-2d" x="254.492188"/>
       <use xlink:href="#DejaVuSans-31" x="290.576172"/>
       <use xlink:href="#DejaVuSans-30" x="354.199219"/>
       <use xlink:href="#DejaVuSans-2d" x="417.822266"/>
       <use xlink:href="#DejaVuSans-32" x="453.90625"/>
       <use xlink:href="#DejaVuSans-31" x="517.529297"/>
      </g>
     </g>
    </g>
    <g id="xtick_6">
     <g id="line2d_6">
      <g>
       <use xlink:href="#m1ff67fc964" x="282.523539" y="402.51858" style="stroke: #000000; stroke-width: 0.8"/>
      </g>
     </g>
     <g id="text_6">
      <!-- 2021-11-18 -->
      <g transform="translate(197.394512 502.452298) rotate(-45) scale(0.2 -0.2)">
       <use xlink:href="#DejaVuSans-32"/>
       <use xlink:href="#DejaVuSans-30" x="63.623047"/>
       <use xlink:href="#DejaVuSans-32" x="127.246094"/>
       <use xlink:href="#DejaVuSans-31" x="190.869141"/>
       <use xlink:href="#DejaVuSans-2d" x="254.492188"/>
       <use xlink:href="#DejaVuSans-31" x="290.576172"/>
       <use xlink:href="#DejaVuSans-31" x="354.199219"/>
       <use xlink:href="#DejaVuSans-2d" x="417.822266"/>
       <use xlink:href="#DejaVuSans-31" x="453.90625"/>
       <use xlink:href="#DejaVuSans-38" x="517.529297"/>
      </g>
     </g>
    </g>
    <g id="xtick_7">
     <g id="line2d_7">
      <g>
       <use xlink:href="#m1ff67fc964" x="318.413279" y="402.51858" style="stroke: #000000; stroke-width: 0.8"/>
      </g>
     </g>
     <g id="text_7">
      <!-- 2021-12-16 -->
      <g transform="translate(233.284251 502.452298) rotate(-45) scale(0.2 -0.2)">
       <use xlink:href="#DejaVuSans-32"/>
       <use xlink:href="#DejaVuSans-30" x="63.623047"/>
       <use xlink:href="#DejaVuSans-32" x="127.246094"/>
       <use xlink:href="#DejaVuSans-31" x="190.869141"/>
       <use xlink:href="#DejaVuSans-2d" x="254.492188"/>
       <use xlink:href="#DejaVuSans-31" x="290.576172"/>
       <use xlink:href="#DejaVuSans-32" x="354.199219"/>
       <use xlink:href="#DejaVuSans-2d" x="417.822266"/>
       <use xlink:href="#DejaVuSans-31" x="453.90625"/>
       <use xlink:href="#DejaVuSans-36" x="517.529297"/>
      </g>
     </g>
    </g>
    <g id="xtick_8">
     <g id="line2d_8">
      <g>
       <use xlink:href="#m1ff67fc964" x="354.303018" y="402.51858" style="stroke: #000000; stroke-width: 0.8"/>
      </g>
     </g>
     <g id="text_8">
      <!-- 2022-01-13 -->
      <g transform="translate(269.173991 502.452298) rotate(-45) scale(0.2 -0.2)">
       <use xlink:href="#DejaVuSans-32"/>
       <use xlink:href="#DejaVuSans-30" x="63.623047"/>
       <use xlink:href="#DejaVuSans-32" x="127.246094"/>
       <use xlink:href="#DejaVuSans-32" x="190.869141"/>
       <use xlink:href="#DejaVuSans-2d" x="254.492188"/>
       <use xlink:href="#DejaVuSans-30" x="290.576172"/>
       <use xlink:href="#DejaVuSans-31" x="354.199219"/>
       <use xlink:href="#DejaVuSans-2d" x="417.822266"/>
       <use xlink:href="#DejaVuSans-31" x="453.90625"/>
       <use xlink:href="#DejaVuSans-33" x="517.529297"/>
      </g>
     </g>
    </g>
    <g id="xtick_9">
     <g id="line2d_9">
      <g>
       <use xlink:href="#m1ff67fc964" x="390.192758" y="402.51858" style="stroke: #000000; stroke-width: 0.8"/>
      </g>
     </g>
     <g id="text_9">
      <!-- 2022-02-10 -->
      <g transform="translate(305.063731 502.452298) rotate(-45) scale(0.2 -0.2)">
       <use xlink:href="#DejaVuSans-32"/>
       <use xlink:href="#DejaVuSans-30" x="63.623047"/>
       <use xlink:href="#DejaVuSans-32" x="127.246094"/>
       <use xlink:href="#DejaVuSans-32" x="190.869141"/>
       <use xlink:href="#DejaVuSans-2d" x="254.492188"/>
       <use xlink:href="#DejaVuSans-30" x="290.576172"/>
       <use xlink:href="#DejaVuSans-32" x="354.199219"/>
       <use xlink:href="#DejaVuSans-2d" x="417.822266"/>
       <use xlink:href="#DejaVuSans-31" x="453.90625"/>
       <use xlink:href="#DejaVuSans-30" x="517.529297"/>
      </g>
     </g>
    </g>
    <g id="xtick_10">
     <g id="line2d_10">
      <g>
       <use xlink:href="#m1ff67fc964" x="426.082498" y="402.51858" style="stroke: #000000; stroke-width: 0.8"/>
      </g>
     </g>
     <g id="text_10">
      <!-- 2022-03-10 -->
      <g transform="translate(340.95347 502.452298) rotate(-45) scale(0.2 -0.2)">
       <use xlink:href="#DejaVuSans-32"/>
       <use xlink:href="#DejaVuSans-30" x="63.623047"/>
       <use xlink:href="#DejaVuSans-32" x="127.246094"/>
       <use xlink:href="#DejaVuSans-32" x="190.869141"/>
       <use xlink:href="#DejaVuSans-2d" x="254.492188"/>
       <use xlink:href="#DejaVuSans-30" x="290.576172"/>
       <use xlink:href="#DejaVuSans-33" x="354.199219"/>
       <use xlink:href="#DejaVuSans-2d" x="417.822266"/>
       <use xlink:href="#DejaVuSans-31" x="453.90625"/>
       <use xlink:href="#DejaVuSans-30" x="517.529297"/>
      </g>
     </g>
    </g>
    <g id="xtick_11">
     <g id="line2d_11">
      <g>
       <use xlink:href="#m1ff67fc964" x="461.972237" y="402.51858" style="stroke: #000000; stroke-width: 0.8"/>
      </g>
     </g>
     <g id="text_11">
      <!-- 2022-04-07 -->
      <g transform="translate(376.84321 502.452298) rotate(-45) scale(0.2 -0.2)">
       <defs>
        <path id="DejaVuSans-34" d="M 2419 4116 
L 825 1625 
L 2419 1625 
L 2419 4116 
z
M 2253 4666 
L 3047 4666 
L 3047 1625 
L 3713 1625 
L 3713 1100 
L 3047 1100 
L 3047 0 
L 2419 0 
L 2419 1100 
L 313 1100 
L 313 1709 
L 2253 4666 
z
" transform="scale(0.015625)"/>
       </defs>
       <use xlink:href="#DejaVuSans-32"/>
       <use xlink:href="#DejaVuSans-30" x="63.623047"/>
       <use xlink:href="#DejaVuSans-32" x="127.246094"/>
       <use xlink:href="#DejaVuSans-32" x="190.869141"/>
       <use xlink:href="#DejaVuSans-2d" x="254.492188"/>
       <use xlink:href="#DejaVuSans-30" x="290.576172"/>
       <use xlink:href="#DejaVuSans-34" x="354.199219"/>
       <use xlink:href="#DejaVuSans-2d" x="417.822266"/>
       <use xlink:href="#DejaVuSans-30" x="453.90625"/>
       <use xlink:href="#DejaVuSans-37" x="517.529297"/>
      </g>
     </g>
    </g>
    <g id="xtick_12">
     <g id="line2d_12">
      <g>
       <use xlink:href="#m1ff67fc964" x="497.861977" y="402.51858" style="stroke: #000000; stroke-width: 0.8"/>
      </g>
     </g>
     <g id="text_12">
      <!-- 2022-05-05 -->
      <g transform="translate(412.73295 502.452298) rotate(-45) scale(0.2 -0.2)">
       <defs>
        <path id="DejaVuSans-35" d="M 691 4666 
L 3169 4666 
L 3169 4134 
L 1269 4134 
L 1269 2991 
Q 1406 3038 1543 3061 
Q 1681 3084 1819 3084 
Q 2600 3084 3056 2656 
Q 3513 2228 3513 1497 
Q 3513 744 3044 326 
Q 2575 -91 1722 -91 
Q 1428 -91 1123 -41 
Q 819 9 494 109 
L 494 744 
Q 775 591 1075 516 
Q 1375 441 1709 441 
Q 2250 441 2565 725 
Q 2881 1009 2881 1497 
Q 2881 1984 2565 2268 
Q 2250 2553 1709 2553 
Q 1456 2553 1204 2497 
Q 953 2441 691 2322 
L 691 4666 
z
" transform="scale(0.015625)"/>
       </defs>
       <use xlink:href="#DejaVuSans-32"/>
       <use xlink:href="#DejaVuSans-30" x="63.623047"/>
       <use xlink:href="#DejaVuSans-32" x="127.246094"/>
       <use xlink:href="#DejaVuSans-32" x="190.869141"/>
       <use xlink:href="#DejaVuSans-2d" x="254.492188"/>
       <use xlink:href="#DejaVuSans-30" x="290.576172"/>
       <use xlink:href="#DejaVuSans-35" x="354.199219"/>
       <use xlink:href="#DejaVuSans-2d" x="417.822266"/>
       <use xlink:href="#DejaVuSans-30" x="453.90625"/>
       <use xlink:href="#DejaVuSans-35" x="517.529297"/>
      </g>
     </g>
    </g>
    <g id="xtick_13">
     <g id="line2d_13">
      <g>
       <use xlink:href="#m1ff67fc964" x="533.751717" y="402.51858" style="stroke: #000000; stroke-width: 0.8"/>
      </g>
     </g>
     <g id="text_13">
      <!-- 2022-06-02 -->
      <g transform="translate(448.622689 502.452298) rotate(-45) scale(0.2 -0.2)">
       <use xlink:href="#DejaVuSans-32"/>
       <use xlink:href="#DejaVuSans-30" x="63.623047"/>
       <use xlink:href="#DejaVuSans-32" x="127.246094"/>
       <use xlink:href="#DejaVuSans-32" x="190.869141"/>
       <use xlink:href="#DejaVuSans-2d" x="254.492188"/>
       <use xlink:href="#DejaVuSans-30" x="290.576172"/>
       <use xlink:href="#DejaVuSans-36" x="354.199219"/>
       <use xlink:href="#DejaVuSans-2d" x="417.822266"/>
       <use xlink:href="#DejaVuSans-30" x="453.90625"/>
       <use xlink:href="#DejaVuSans-32" x="517.529297"/>
      </g>
     </g>
    </g>
    <g id="xtick_14">
     <g id="line2d_14">
      <g>
       <use xlink:href="#m1ff67fc964" x="569.641456" y="402.51858" style="stroke: #000000; stroke-width: 0.8"/>
      </g>
     </g>
     <g id="text_14">
      <!-- 2022-06-30 -->
      <g transform="translate(484.512429 502.452298) rotate(-45) scale(0.2 -0.2)">
       <use xlink:href="#DejaVuSans-32"/>
       <use xlink:href="#DejaVuSans-30" x="63.623047"/>
       <use xlink:href="#DejaVuSans-32" x="127.246094"/>
       <use xlink:href="#DejaVuSans-32" x="190.869141"/>
       <use xlink:href="#DejaVuSans-2d" x="254.492188"/>
       <use xlink:href="#DejaVuSans-30" x="290.576172"/>
       <use xlink:href="#DejaVuSans-36" x="354.199219"/>
       <use xlink:href="#DejaVuSans-2d" x="417.822266"/>
       <use xlink:href="#DejaVuSans-33" x="453.90625"/>
       <use xlink:href="#DejaVuSans-30" x="517.529297"/>
      </g>
     </g>
    </g>
    <g id="xtick_15">
     <g id="line2d_15">
      <g>
       <use xlink:href="#m1ff67fc964" x="605.531196" y="402.51858" style="stroke: #000000; stroke-width: 0.8"/>
      </g>
     </g>
     <g id="text_15">
      <!-- 2022-07-28 -->
      <g transform="translate(520.402169 502.452298) rotate(-45) scale(0.2 -0.2)">
       <use xlink:href="#DejaVuSans-32"/>
       <use xlink:href="#DejaVuSans-30" x="63.623047"/>
       <use xlink:href="#DejaVuSans-32" x="127.246094"/>
       <use xlink:href="#DejaVuSans-32" x="190.869141"/>
       <use xlink:href="#DejaVuSans-2d" x="254.492188"/>
       <use xlink:href="#DejaVuSans-30" x="290.576172"/>
       <use xlink:href="#DejaVuSans-37" x="354.199219"/>
       <use xlink:href="#DejaVuSans-2d" x="417.822266"/>
       <use xlink:href="#DejaVuSans-32" x="453.90625"/>
       <use xlink:href="#DejaVuSans-38" x="517.529297"/>
      </g>
     </g>
    </g>
    <g id="xtick_16">
     <g id="line2d_16">
      <g>
       <use xlink:href="#m1ff67fc964" x="641.420936" y="402.51858" style="stroke: #000000; stroke-width: 0.8"/>
      </g>
     </g>
     <g id="text_16">
      <!-- 2022-08-25 -->
      <g transform="translate(556.291908 502.452298) rotate(-45) scale(0.2 -0.2)">
       <use xlink:href="#DejaVuSans-32"/>
       <use xlink:href="#DejaVuSans-30" x="63.623047"/>
       <use xlink:href="#DejaVuSans-32" x="127.246094"/>
       <use xlink:href="#DejaVuSans-32" x="190.869141"/>
       <use xlink:href="#DejaVuSans-2d" x="254.492188"/>
       <use xlink:href="#DejaVuSans-30" x="290.576172"/>
       <use xlink:href="#DejaVuSans-38" x="354.199219"/>
       <use xlink:href="#DejaVuSans-2d" x="417.822266"/>
       <use xlink:href="#DejaVuSans-32" x="453.90625"/>
       <use xlink:href="#DejaVuSans-35" x="517.529297"/>
      </g>
     </g>
    </g>
    <g id="xtick_17">
     <g id="line2d_17">
      <g>
       <use xlink:href="#m1ff67fc964" x="677.310675" y="402.51858" style="stroke: #000000; stroke-width: 0.8"/>
      </g>
     </g>
     <g id="text_17">
      <!-- 2022-09-22 -->
      <g transform="translate(592.181648 502.452298) rotate(-45) scale(0.2 -0.2)">
       <use xlink:href="#DejaVuSans-32"/>
       <use xlink:href="#DejaVuSans-30" x="63.623047"/>
       <use xlink:href="#DejaVuSans-32" x="127.246094"/>
       <use xlink:href="#DejaVuSans-32" x="190.869141"/>
       <use xlink:href="#DejaVuSans-2d" x="254.492188"/>
       <use xlink:href="#DejaVuSans-30" x="290.576172"/>
       <use xlink:href="#DejaVuSans-39" x="354.199219"/>
       <use xlink:href="#DejaVuSans-2d" x="417.822266"/>
       <use xlink:href="#DejaVuSans-32" x="453.90625"/>
       <use xlink:href="#DejaVuSans-32" x="517.529297"/>
      </g>
     </g>
    </g>
    <g id="xtick_18">
     <g id="line2d_18">
      <g>
       <use xlink:href="#m1ff67fc964" x="713.200415" y="402.51858" style="stroke: #000000; stroke-width: 0.8"/>
      </g>
     </g>
     <g id="text_18">
      <!-- 2022-10-20 -->
      <g transform="translate(628.071388 502.452298) rotate(-45) scale(0.2 -0.2)">
       <use xlink:href="#DejaVuSans-32"/>
       <use xlink:href="#DejaVuSans-30" x="63.623047"/>
       <use xlink:href="#DejaVuSans-32" x="127.246094"/>
       <use xlink:href="#DejaVuSans-32" x="190.869141"/>
       <use xlink:href="#DejaVuSans-2d" x="254.492188"/>
       <use xlink:href="#DejaVuSans-31" x="290.576172"/>
       <use xlink:href="#DejaVuSans-30" x="354.199219"/>
       <use xlink:href="#DejaVuSans-2d" x="417.822266"/>
       <use xlink:href="#DejaVuSans-32" x="453.90625"/>
       <use xlink:href="#DejaVuSans-30" x="517.529297"/>
      </g>
     </g>
    </g>
    <g id="xtick_19">
     <g id="line2d_19">
      <g>
       <use xlink:href="#m1ff67fc964" x="749.090155" y="402.51858" style="stroke: #000000; stroke-width: 0.8"/>
      </g>
     </g>
     <g id="text_19">
      <!-- 2022-11-17 -->
      <g transform="translate(663.961127 502.452298) rotate(-45) scale(0.2 -0.2)">
       <use xlink:href="#DejaVuSans-32"/>
       <use xlink:href="#DejaVuSans-30" x="63.623047"/>
       <use xlink:href="#DejaVuSans-32" x="127.246094"/>
       <use xlink:href="#DejaVuSans-32" x="190.869141"/>
       <use xlink:href="#DejaVuSans-2d" x="254.492188"/>
       <use xlink:href="#DejaVuSans-31" x="290.576172"/>
       <use xlink:href="#DejaVuSans-31" x="354.199219"/>
       <use xlink:href="#DejaVuSans-2d" x="417.822266"/>
       <use xlink:href="#DejaVuSans-31" x="453.90625"/>
       <use xlink:href="#DejaVuSans-37" x="517.529297"/>
      </g>
     </g>
    </g>
    <g id="xtick_20">
     <g id="line2d_20">
      <g>
       <use xlink:href="#m1ff67fc964" x="784.979894" y="402.51858" style="stroke: #000000; stroke-width: 0.8"/>
      </g>
     </g>
     <g id="text_20">
      <!-- 2022-12-15 -->
      <g transform="translate(699.850867 502.452298) rotate(-45) scale(0.2 -0.2)">
       <use xlink:href="#DejaVuSans-32"/>
       <use xlink:href="#DejaVuSans-30" x="63.623047"/>
       <use xlink:href="#DejaVuSans-32" x="127.246094"/>
       <use xlink:href="#DejaVuSans-32" x="190.869141"/>
       <use xlink:href="#DejaVuSans-2d" x="254.492188"/>
       <use xlink:href="#DejaVuSans-31" x="290.576172"/>
       <use xlink:href="#DejaVuSans-32" x="354.199219"/>
       <use xlink:href="#DejaVuSans-2d" x="417.822266"/>
       <use xlink:href="#DejaVuSans-31" x="453.90625"/>
       <use xlink:href="#DejaVuSans-35" x="517.529297"/>
      </g>
     </g>
    </g>
    <g id="xtick_21">
     <g id="line2d_21">
      <g>
       <use xlink:href="#m1ff67fc964" x="820.869634" y="402.51858" style="stroke: #000000; stroke-width: 0.8"/>
      </g>
     </g>
     <g id="text_21">
      <!-- 2023-01-12 -->
      <g transform="translate(735.740607 502.452298) rotate(-45) scale(0.2 -0.2)">
       <use xlink:href="#DejaVuSans-32"/>
       <use xlink:href="#DejaVuSans-30" x="63.623047"/>
       <use xlink:href="#DejaVuSans-32" x="127.246094"/>
       <use xlink:href="#DejaVuSans-33" x="190.869141"/>
       <use xlink:href="#DejaVuSans-2d" x="254.492188"/>
       <use xlink:href="#DejaVuSans-30" x="290.576172"/>
       <use xlink:href="#DejaVuSans-31" x="354.199219"/>
       <use xlink:href="#DejaVuSans-2d" x="417.822266"/>
       <use xlink:href="#DejaVuSans-31" x="453.90625"/>
       <use xlink:href="#DejaVuSans-32" x="517.529297"/>
      </g>
     </g>
    </g>
    <g id="xtick_22">
     <g id="line2d_22">
      <g>
       <use xlink:href="#m1ff67fc964" x="856.759374" y="402.51858" style="stroke: #000000; stroke-width: 0.8"/>
      </g>
     </g>
     <g id="text_22">
      <!-- 2023-02-09 -->
      <g transform="translate(771.630346 502.452298) rotate(-45) scale(0.2 -0.2)">
       <use xlink:href="#DejaVuSans-32"/>
       <use xlink:href="#DejaVuSans-30" x="63.623047"/>
       <use xlink:href="#DejaVuSans-32" x="127.246094"/>
       <use xlink:href="#DejaVuSans-33" x="190.869141"/>
       <use xlink:href="#DejaVuSans-2d" x="254.492188"/>
       <use xlink:href="#DejaVuSans-30" x="290.576172"/>
       <use xlink:href="#DejaVuSans-32" x="354.199219"/>
       <use xlink:href="#DejaVuSans-2d" x="417.822266"/>
       <use xlink:href="#DejaVuSans-30" x="453.90625"/>
       <use xlink:href="#DejaVuSans-39" x="517.529297"/>
      </g>
     </g>
    </g>
    <g id="xtick_23">
     <g id="line2d_23">
      <g>
       <use xlink:href="#m1ff67fc964" x="892.649113" y="402.51858" style="stroke: #000000; stroke-width: 0.8"/>
      </g>
     </g>
     <g id="text_23">
      <!-- 2023-03-09 -->
      <g transform="translate(807.520086 502.452298) rotate(-45) scale(0.2 -0.2)">
       <use xlink:href="#DejaVuSans-32"/>
       <use xlink:href="#DejaVuSans-30" x="63.623047"/>
       <use xlink:href="#DejaVuSans-32" x="127.246094"/>
       <use xlink:href="#DejaVuSans-33" x="190.869141"/>
       <use xlink:href="#DejaVuSans-2d" x="254.492188"/>
       <use xlink:href="#DejaVuSans-30" x="290.576172"/>
       <use xlink:href="#DejaVuSans-33" x="354.199219"/>
       <use xlink:href="#DejaVuSans-2d" x="417.822266"/>
       <use xlink:href="#DejaVuSans-30" x="453.90625"/>
       <use xlink:href="#DejaVuSans-39" x="517.529297"/>
      </g>
     </g>
    </g>
    <g id="xtick_24">
     <g id="line2d_24">
      <g>
       <use xlink:href="#m1ff67fc964" x="928.538853" y="402.51858" style="stroke: #000000; stroke-width: 0.8"/>
      </g>
     </g>
     <g id="text_24">
      <!-- 2023-04-06 -->
      <g transform="translate(843.409826 502.452298) rotate(-45) scale(0.2 -0.2)">
       <use xlink:href="#DejaVuSans-32"/>
       <use xlink:href="#DejaVuSans-30" x="63.623047"/>
       <use xlink:href="#DejaVuSans-32" x="127.246094"/>
       <use xlink:href="#DejaVuSans-33" x="190.869141"/>
       <use xlink:href="#DejaVuSans-2d" x="254.492188"/>
       <use xlink:href="#DejaVuSans-30" x="290.576172"/>
       <use xlink:href="#DejaVuSans-34" x="354.199219"/>
       <use xlink:href="#DejaVuSans-2d" x="417.822266"/>
       <use xlink:href="#DejaVuSans-30" x="453.90625"/>
       <use xlink:href="#DejaVuSans-36" x="517.529297"/>
      </g>
     </g>
    </g>
    <g id="xtick_25">
     <g id="line2d_25">
      <g>
       <use xlink:href="#m1ff67fc964" x="940.074841" y="402.51858" style="stroke: #000000; stroke-width: 0.8"/>
      </g>
     </g>
     <g id="text_25">
      <!-- 2023-04-15 -->
      <g transform="translate(854.945813 502.452298) rotate(-45) scale(0.2 -0.2)">
       <use xlink:href="#DejaVuSans-32"/>
       <use xlink:href="#DejaVuSans-30" x="63.623047"/>
       <use xlink:href="#DejaVuSans-32" x="127.246094"/>
       <use xlink:href="#DejaVuSans-33" x="190.869141"/>
       <use xlink:href="#DejaVuSans-2d" x="254.492188"/>
       <use xlink:href="#DejaVuSans-30" x="290.576172"/>
       <use xlink:href="#DejaVuSans-34" x="354.199219"/>
       <use xlink:href="#DejaVuSans-2d" x="417.822266"/>
       <use xlink:href="#DejaVuSans-31" x="453.90625"/>
       <use xlink:href="#DejaVuSans-35" x="517.529297"/>
      </g>
     </g>
    </g>
   </g>
   <g id="matplotlib.axis_2">
    <g id="ytick_1">
     <g id="line2d_26">
      <defs>
       <path id="m682f1806cd" d="M 0 0 
L -3.5 0 
" style="stroke: #000000; stroke-width: 0.8"/>
      </defs>
      <g>
       <use xlink:href="#m682f1806cd" x="103.074841" y="361.337074" style="stroke: #000000; stroke-width: 0.8"/>
      </g>
     </g>
     <g id="text_26">
      <!-- 0.05 -->
      <g transform="translate(34.784216 368.935512) scale(0.2 -0.2)">
       <defs>
        <path id="DejaVuSans-2212" d="M 678 2272 
L 4684 2272 
L 4684 1741 
L 678 1741 
L 678 2272 
z
" transform="scale(0.015625)"/>
        <path id="DejaVuSans-2e" d="M 684 794 
L 1344 794 
L 1344 0 
L 684 0 
L 684 794 
z
" transform="scale(0.015625)"/>
       </defs>
       <use xlink:href="#DejaVuSans-2212"/>
       <use xlink:href="#DejaVuSans-30" x="83.789062"/>
       <use xlink:href="#DejaVuSans-2e" x="147.412109"/>
       <use xlink:href="#DejaVuSans-30" x="179.199219"/>
       <use xlink:href="#DejaVuSans-35" x="242.822266"/>
      </g>
     </g>
    </g>
    <g id="ytick_2">
     <g id="line2d_27">
      <g>
       <use xlink:href="#m682f1806cd" x="103.074841" y="303.580635" style="stroke: #000000; stroke-width: 0.8"/>
      </g>
     </g>
     <g id="text_27">
      <!-- 0.00 -->
      <g transform="translate(51.543591 311.179072) scale(0.2 -0.2)">
       <use xlink:href="#DejaVuSans-30"/>
       <use xlink:href="#DejaVuSans-2e" x="63.623047"/>
       <use xlink:href="#DejaVuSans-30" x="95.410156"/>
       <use xlink:href="#DejaVuSans-30" x="159.033203"/>
      </g>
     </g>
    </g>
    <g id="ytick_3">
     <g id="line2d_28">
      <g>
       <use xlink:href="#m682f1806cd" x="103.074841" y="245.824195" style="stroke: #000000; stroke-width: 0.8"/>
      </g>
     </g>
     <g id="text_28">
      <!-- 0.05 -->
      <g transform="translate(51.543591 253.422633) scale(0.2 -0.2)">
       <use xlink:href="#DejaVuSans-30"/>
       <use xlink:href="#DejaVuSans-2e" x="63.623047"/>
       <use xlink:href="#DejaVuSans-30" x="95.410156"/>
       <use xlink:href="#DejaVuSans-35" x="159.033203"/>
      </g>
     </g>
    </g>
    <g id="ytick_4">
     <g id="line2d_29">
      <g>
       <use xlink:href="#m682f1806cd" x="103.074841" y="188.067756" style="stroke: #000000; stroke-width: 0.8"/>
      </g>
     </g>
     <g id="text_29">
      <!-- 0.10 -->
      <g transform="translate(51.543591 195.666193) scale(0.2 -0.2)">
       <use xlink:href="#DejaVuSans-30"/>
       <use xlink:href="#DejaVuSans-2e" x="63.623047"/>
       <use xlink:href="#DejaVuSans-31" x="95.410156"/>
       <use xlink:href="#DejaVuSans-30" x="159.033203"/>
      </g>
     </g>
    </g>
    <g id="ytick_5">
     <g id="line2d_30">
      <g>
       <use xlink:href="#m682f1806cd" x="103.074841" y="130.311316" style="stroke: #000000; stroke-width: 0.8"/>
      </g>
     </g>
     <g id="text_30">
      <!-- 0.15 -->
      <g transform="translate(51.543591 137.909754) scale(0.2 -0.2)">
       <use xlink:href="#DejaVuSans-30"/>
       <use xlink:href="#DejaVuSans-2e" x="63.623047"/>
       <use xlink:href="#DejaVuSans-31" x="95.410156"/>
       <use xlink:href="#DejaVuSans-35" x="159.033203"/>
      </g>
     </g>
    </g>
    <g id="ytick_6">
     <g id="line2d_31">
      <g>
       <use xlink:href="#m682f1806cd" x="103.074841" y="72.554877" style="stroke: #000000; stroke-width: 0.8"/>
      </g>
     </g>
     <g id="text_31">
      <!-- 0.20 -->
      <g transform="translate(51.543591 80.153314) scale(0.2 -0.2)">
       <use xlink:href="#DejaVuSans-30"/>
       <use xlink:href="#DejaVuSans-2e" x="63.623047"/>
       <use xlink:href="#DejaVuSans-32" x="95.410156"/>
       <use xlink:href="#DejaVuSans-30" x="159.033203"/>
      </g>
     </g>
    </g>
    <g id="ytick_7">
     <g id="line2d_32">
      <g>
       <use xlink:href="#m682f1806cd" x="103.074841" y="14.798437" style="stroke: #000000; stroke-width: 0.8"/>
      </g>
     </g>
     <g id="text_32">
      <!-- 0.25 -->
      <g transform="translate(51.543591 22.396875) scale(0.2 -0.2)">
       <use xlink:href="#DejaVuSans-30"/>
       <use xlink:href="#DejaVuSans-2e" x="63.623047"/>
       <use xlink:href="#DejaVuSans-32" x="95.410156"/>
       <use xlink:href="#DejaVuSans-35" x="159.033203"/>
      </g>
     </g>
    </g>
    <g id="text_33">
     <!-- Relative fitness $\gamma_y$ -->
     <g transform="translate(24.584216 299.07858) rotate(-90) scale(0.2 -0.2)">
      <defs>
       <path id="DejaVuSans-52" d="M 2841 2188 
Q 3044 2119 3236 1894 
Q 3428 1669 3622 1275 
L 4263 0 
L 3584 0 
L 2988 1197 
Q 2756 1666 2539 1819 
Q 2322 1972 1947 1972 
L 1259 1972 
L 1259 0 
L 628 0 
L 628 4666 
L 2053 4666 
Q 2853 4666 3247 4331 
Q 3641 3997 3641 3322 
Q 3641 2881 3436 2590 
Q 3231 2300 2841 2188 
z
M 1259 4147 
L 1259 2491 
L 2053 2491 
Q 2509 2491 2742 2702 
Q 2975 2913 2975 3322 
Q 2975 3731 2742 3939 
Q 2509 4147 2053 4147 
L 1259 4147 
z
" transform="scale(0.015625)"/>
       <path id="DejaVuSans-65" d="M 3597 1894 
L 3597 1613 
L 953 1613 
Q 991 1019 1311 708 
Q 1631 397 2203 397 
Q 2534 397 2845 478 
Q 3156 559 3463 722 
L 3463 178 
Q 3153 47 2828 -22 
Q 2503 -91 2169 -91 
Q 1331 -91 842 396 
Q 353 884 353 1716 
Q 353 2575 817 3079 
Q 1281 3584 2069 3584 
Q 2775 3584 3186 3129 
Q 3597 2675 3597 1894 
z
M 3022 2063 
Q 3016 2534 2758 2815 
Q 2500 3097 2075 3097 
Q 1594 3097 1305 2825 
Q 1016 2553 972 2059 
L 3022 2063 
z
" transform="scale(0.015625)"/>
       <path id="DejaVuSans-6c" d="M 603 4863 
L 1178 4863 
L 1178 0 
L 603 0 
L 603 4863 
z
" transform="scale(0.015625)"/>
       <path id="DejaVuSans-61" d="M 2194 1759 
Q 1497 1759 1228 1600 
Q 959 1441 959 1056 
Q 959 750 1161 570 
Q 1363 391 1709 391 
Q 2188 391 2477 730 
Q 2766 1069 2766 1631 
L 2766 1759 
L 2194 1759 
z
M 3341 1997 
L 3341 0 
L 2766 0 
L 2766 531 
Q 2569 213 2275 61 
Q 1981 -91 1556 -91 
Q 1019 -91 701 211 
Q 384 513 384 1019 
Q 384 1609 779 1909 
Q 1175 2209 1959 2209 
L 2766 2209 
L 2766 2266 
Q 2766 2663 2505 2880 
Q 2244 3097 1772 3097 
Q 1472 3097 1187 3025 
Q 903 2953 641 2809 
L 641 3341 
Q 956 3463 1253 3523 
Q 1550 3584 1831 3584 
Q 2591 3584 2966 3190 
Q 3341 2797 3341 1997 
z
" transform="scale(0.015625)"/>
       <path id="DejaVuSans-74" d="M 1172 4494 
L 1172 3500 
L 2356 3500 
L 2356 3053 
L 1172 3053 
L 1172 1153 
Q 1172 725 1289 603 
Q 1406 481 1766 481 
L 2356 481 
L 2356 0 
L 1766 0 
Q 1100 0 847 248 
Q 594 497 594 1153 
L 594 3053 
L 172 3053 
L 172 3500 
L 594 3500 
L 594 4494 
L 1172 4494 
z
" transform="scale(0.015625)"/>
       <path id="DejaVuSans-69" d="M 603 3500 
L 1178 3500 
L 1178 0 
L 603 0 
L 603 3500 
z
M 603 4863 
L 1178 4863 
L 1178 4134 
L 603 4134 
L 603 4863 
z
" transform="scale(0.015625)"/>
       <path id="DejaVuSans-76" d="M 191 3500 
L 800 3500 
L 1894 563 
L 2988 3500 
L 3597 3500 
L 2284 0 
L 1503 0 
L 191 3500 
z
" transform="scale(0.015625)"/>
       <path id="DejaVuSans-20" transform="scale(0.015625)"/>
       <path id="DejaVuSans-66" d="M 2375 4863 
L 2375 4384 
L 1825 4384 
Q 1516 4384 1395 4259 
Q 1275 4134 1275 3809 
L 1275 3500 
L 2222 3500 
L 2222 3053 
L 1275 3053 
L 1275 0 
L 697 0 
L 697 3053 
L 147 3053 
L 147 3500 
L 697 3500 
L 697 3744 
Q 697 4328 969 4595 
Q 1241 4863 1831 4863 
L 2375 4863 
z
" transform="scale(0.015625)"/>
       <path id="DejaVuSans-6e" d="M 3513 2113 
L 3513 0 
L 2938 0 
L 2938 2094 
Q 2938 2591 2744 2837 
Q 2550 3084 2163 3084 
Q 1697 3084 1428 2787 
Q 1159 2491 1159 1978 
L 1159 0 
L 581 0 
L 581 3500 
L 1159 3500 
L 1159 2956 
Q 1366 3272 1645 3428 
Q 1925 3584 2291 3584 
Q 2894 3584 3203 3211 
Q 3513 2838 3513 2113 
z
" transform="scale(0.015625)"/>
       <path id="DejaVuSans-73" d="M 2834 3397 
L 2834 2853 
Q 2591 2978 2328 3040 
Q 2066 3103 1784 3103 
Q 1356 3103 1142 2972 
Q 928 2841 928 2578 
Q 928 2378 1081 2264 
Q 1234 2150 1697 2047 
L 1894 2003 
Q 2506 1872 2764 1633 
Q 3022 1394 3022 966 
Q 3022 478 2636 193 
Q 2250 -91 1575 -91 
Q 1294 -91 989 -36 
Q 684 19 347 128 
L 347 722 
Q 666 556 975 473 
Q 1284 391 1588 391 
Q 1994 391 2212 530 
Q 2431 669 2431 922 
Q 2431 1156 2273 1281 
Q 2116 1406 1581 1522 
L 1381 1569 
Q 847 1681 609 1914 
Q 372 2147 372 2553 
Q 372 3047 722 3315 
Q 1072 3584 1716 3584 
Q 2034 3584 2315 3537 
Q 2597 3491 2834 3397 
z
" transform="scale(0.015625)"/>
       <path id="DejaVuSans-Oblique-3b3" d="M 1491 2950 
L 1838 788 
L 3456 3500 
L 4066 3500 
L 1972 0 
L 1713 -1331 
L 1138 -1331 
L 1397 0 
L 988 2613 
Q 925 3006 628 3006 
L 475 3006 
L 569 3500 
L 788 3500 
Q 1403 3500 1491 2950 
z
" transform="scale(0.015625)"/>
       <path id="DejaVuSans-Oblique-79" d="M 1588 -325 
Q 1188 -997 936 -1164 
Q 684 -1331 294 -1331 
L -159 -1331 
L -63 -850 
L 269 -850 
Q 509 -850 678 -719 
Q 847 -588 1056 -206 
L 1234 128 
L 459 3500 
L 1069 3500 
L 1650 819 
L 3256 3500 
L 3859 3500 
L 1588 -325 
z
" transform="scale(0.015625)"/>
      </defs>
      <use xlink:href="#DejaVuSans-52" transform="translate(0 0.015625)"/>
      <use xlink:href="#DejaVuSans-65" transform="translate(69.482422 0.015625)"/>
      <use xlink:href="#DejaVuSans-6c" transform="translate(131.005859 0.015625)"/>
      <use xlink:href="#DejaVuSans-61" transform="translate(158.789062 0.015625)"/>
      <use xlink:href="#DejaVuSans-74" transform="translate(220.068359 0.015625)"/>
      <use xlink:href="#DejaVuSans-69" transform="translate(259.277344 0.015625)"/>
      <use xlink:href="#DejaVuSans-76" transform="translate(287.060547 0.015625)"/>
      <use xlink:href="#DejaVuSans-65" transform="translate(346.240234 0.015625)"/>
      <use xlink:href="#DejaVuSans-20" transform="translate(407.763672 0.015625)"/>
      <use xlink:href="#DejaVuSans-66" transform="translate(439.550781 0.015625)"/>
      <use xlink:href="#DejaVuSans-69" transform="translate(474.755859 0.015625)"/>
      <use xlink:href="#DejaVuSans-74" transform="translate(502.539062 0.015625)"/>
      <use xlink:href="#DejaVuSans-6e" transform="translate(541.748047 0.015625)"/>
      <use xlink:href="#DejaVuSans-65" transform="translate(605.126953 0.015625)"/>
      <use xlink:href="#DejaVuSans-73" transform="translate(666.650391 0.015625)"/>
      <use xlink:href="#DejaVuSans-73" transform="translate(718.75 0.015625)"/>
      <use xlink:href="#DejaVuSans-20" transform="translate(770.849609 0.015625)"/>
      <use xlink:href="#DejaVuSans-Oblique-3b3" transform="translate(802.636719 0.015625)"/>
      <use xlink:href="#DejaVuSans-Oblique-79" transform="translate(861.816406 -16.390625) scale(0.7)"/>
     </g>
    </g>
   </g>
   <g id="line2d_33">
    <path d="M 103.074841 303.580635 
L 1041.965466 303.580635 
" clip-path="url(#p433645de9e)" style="fill: none; stroke-dasharray: 7.4,3.2; stroke-dashoffset: 0; stroke: #000000; stroke-width: 2"/>
   </g>
   <g id="patch_3">
    <path d="M 103.074841 402.51858 
L 103.074841 14.43858 
" style="fill: none; stroke: #000000; stroke-width: 0.8; stroke-linejoin: miter; stroke-linecap: square"/>
   </g>
   <g id="patch_4">
    <path d="M 940.074841 402.51858 
L 940.074841 14.43858 
" style="fill: none; stroke: #000000; stroke-width: 0.8; stroke-linejoin: miter; stroke-linecap: square"/>
   </g>
   <g id="patch_5">
    <path d="M 103.074841 402.51858 
L 940.074841 402.51858 
" style="fill: none; stroke: #000000; stroke-width: 0.8; stroke-linejoin: miter; stroke-linecap: square"/>
   </g>
   <g id="patch_6">
    <path d="M 103.074841 14.43858 
L 940.074841 14.43858 
" style="fill: none; stroke: #000000; stroke-width: 0.8; stroke-linejoin: miter; stroke-linecap: square"/>
   </g>
  </g>
  <g id="axes_2">
   <g id="matplotlib.axis_3">
    <g id="ytick_8">
     <g id="line2d_34">
      <defs>
       <path id="mb6649d4fc9" d="M 0 0 
L 3.5 0 
" style="stroke: #000000; stroke-width: 0.8"/>
      </defs>
      <g>
       <use xlink:href="#mb6649d4fc9" x="940.074841" y="361.337074" style="stroke: #000000; stroke-width: 0.8"/>
      </g>
     </g>
     <g id="text_34">
      <!-- 0.05 -->
      <g transform="translate(947.074841 368.935512) scale(0.2 -0.2)">
       <use xlink:href="#DejaVuSans-2212"/>
       <use xlink:href="#DejaVuSans-30" x="83.789062"/>
       <use xlink:href="#DejaVuSans-2e" x="147.412109"/>
       <use xlink:href="#DejaVuSans-30" x="179.199219"/>
       <use xlink:href="#DejaVuSans-35" x="242.822266"/>
      </g>
     </g>
    </g>
    <g id="ytick_9">
     <g id="line2d_35">
      <g>
       <use xlink:href="#mb6649d4fc9" x="940.074841" y="303.580635" style="stroke: #000000; stroke-width: 0.8"/>
      </g>
     </g>
     <g id="text_35">
      <!-- 0.00 -->
      <g transform="translate(947.074841 311.179072) scale(0.2 -0.2)">
       <use xlink:href="#DejaVuSans-30"/>
       <use xlink:href="#DejaVuSans-2e" x="63.623047"/>
       <use xlink:href="#DejaVuSans-30" x="95.410156"/>
       <use xlink:href="#DejaVuSans-30" x="159.033203"/>
      </g>
     </g>
    </g>
    <g id="ytick_10">
     <g id="line2d_36">
      <g>
       <use xlink:href="#mb6649d4fc9" x="940.074841" y="245.824195" style="stroke: #000000; stroke-width: 0.8"/>
      </g>
     </g>
     <g id="text_36">
      <!-- 0.05 -->
      <g transform="translate(947.074841 253.422633) scale(0.2 -0.2)">
       <use xlink:href="#DejaVuSans-30"/>
       <use xlink:href="#DejaVuSans-2e" x="63.623047"/>
       <use xlink:href="#DejaVuSans-30" x="95.410156"/>
       <use xlink:href="#DejaVuSans-35" x="159.033203"/>
      </g>
     </g>
    </g>
    <g id="ytick_11">
     <g id="line2d_37">
      <g>
       <use xlink:href="#mb6649d4fc9" x="940.074841" y="188.067756" style="stroke: #000000; stroke-width: 0.8"/>
      </g>
     </g>
     <g id="text_37">
      <!-- 0.10 -->
      <g transform="translate(947.074841 195.666193) scale(0.2 -0.2)">
       <use xlink:href="#DejaVuSans-30"/>
       <use xlink:href="#DejaVuSans-2e" x="63.623047"/>
       <use xlink:href="#DejaVuSans-31" x="95.410156"/>
       <use xlink:href="#DejaVuSans-30" x="159.033203"/>
      </g>
     </g>
    </g>
    <g id="ytick_12">
     <g id="line2d_38">
      <g>
       <use xlink:href="#mb6649d4fc9" x="940.074841" y="130.311316" style="stroke: #000000; stroke-width: 0.8"/>
      </g>
     </g>
     <g id="text_38">
      <!-- 0.15 -->
      <g transform="translate(947.074841 137.909754) scale(0.2 -0.2)">
       <use xlink:href="#DejaVuSans-30"/>
       <use xlink:href="#DejaVuSans-2e" x="63.623047"/>
       <use xlink:href="#DejaVuSans-31" x="95.410156"/>
       <use xlink:href="#DejaVuSans-35" x="159.033203"/>
      </g>
     </g>
    </g>
    <g id="ytick_13">
     <g id="line2d_39">
      <g>
       <use xlink:href="#mb6649d4fc9" x="940.074841" y="72.554877" style="stroke: #000000; stroke-width: 0.8"/>
      </g>
     </g>
     <g id="text_39">
      <!-- 0.20 -->
      <g transform="translate(947.074841 80.153314) scale(0.2 -0.2)">
       <use xlink:href="#DejaVuSans-30"/>
       <use xlink:href="#DejaVuSans-2e" x="63.623047"/>
       <use xlink:href="#DejaVuSans-32" x="95.410156"/>
       <use xlink:href="#DejaVuSans-30" x="159.033203"/>
      </g>
     </g>
    </g>
    <g id="ytick_14">
     <g id="line2d_40">
      <g>
       <use xlink:href="#mb6649d4fc9" x="940.074841" y="14.798437" style="stroke: #000000; stroke-width: 0.8"/>
      </g>
     </g>
     <g id="text_40">
      <!-- 0.25 -->
      <g transform="translate(947.074841 22.396875) scale(0.2 -0.2)">
       <use xlink:href="#DejaVuSans-30"/>
       <use xlink:href="#DejaVuSans-2e" x="63.623047"/>
       <use xlink:href="#DejaVuSans-32" x="95.410156"/>
       <use xlink:href="#DejaVuSans-35" x="159.033203"/>
      </g>
     </g>
    </g>
    <g id="text_41">
     <!-- Change in proportion $\gamma_{prop}$ -->
     <g transform="translate(1027.565466 339.97858) rotate(-90) scale(0.2 -0.2)">
      <defs>
       <path id="DejaVuSans-43" d="M 4122 4306 
L 4122 3641 
Q 3803 3938 3442 4084 
Q 3081 4231 2675 4231 
Q 1875 4231 1450 3742 
Q 1025 3253 1025 2328 
Q 1025 1406 1450 917 
Q 1875 428 2675 428 
Q 3081 428 3442 575 
Q 3803 722 4122 1019 
L 4122 359 
Q 3791 134 3420 21 
Q 3050 -91 2638 -91 
Q 1578 -91 968 557 
Q 359 1206 359 2328 
Q 359 3453 968 4101 
Q 1578 4750 2638 4750 
Q 3056 4750 3426 4639 
Q 3797 4528 4122 4306 
z
" transform="scale(0.015625)"/>
       <path id="DejaVuSans-68" d="M 3513 2113 
L 3513 0 
L 2938 0 
L 2938 2094 
Q 2938 2591 2744 2837 
Q 2550 3084 2163 3084 
Q 1697 3084 1428 2787 
Q 1159 2491 1159 1978 
L 1159 0 
L 581 0 
L 581 4863 
L 1159 4863 
L 1159 2956 
Q 1366 3272 1645 3428 
Q 1925 3584 2291 3584 
Q 2894 3584 3203 3211 
Q 3513 2838 3513 2113 
z
" transform="scale(0.015625)"/>
       <path id="DejaVuSans-67" d="M 2906 1791 
Q 2906 2416 2648 2759 
Q 2391 3103 1925 3103 
Q 1463 3103 1205 2759 
Q 947 2416 947 1791 
Q 947 1169 1205 825 
Q 1463 481 1925 481 
Q 2391 481 2648 825 
Q 2906 1169 2906 1791 
z
M 3481 434 
Q 3481 -459 3084 -895 
Q 2688 -1331 1869 -1331 
Q 1566 -1331 1297 -1286 
Q 1028 -1241 775 -1147 
L 775 -588 
Q 1028 -725 1275 -790 
Q 1522 -856 1778 -856 
Q 2344 -856 2625 -561 
Q 2906 -266 2906 331 
L 2906 616 
Q 2728 306 2450 153 
Q 2172 0 1784 0 
Q 1141 0 747 490 
Q 353 981 353 1791 
Q 353 2603 747 3093 
Q 1141 3584 1784 3584 
Q 2172 3584 2450 3431 
Q 2728 3278 2906 2969 
L 2906 3500 
L 3481 3500 
L 3481 434 
z
" transform="scale(0.015625)"/>
       <path id="DejaVuSans-70" d="M 1159 525 
L 1159 -1331 
L 581 -1331 
L 581 3500 
L 1159 3500 
L 1159 2969 
Q 1341 3281 1617 3432 
Q 1894 3584 2278 3584 
Q 2916 3584 3314 3078 
Q 3713 2572 3713 1747 
Q 3713 922 3314 415 
Q 2916 -91 2278 -91 
Q 1894 -91 1617 61 
Q 1341 213 1159 525 
z
M 3116 1747 
Q 3116 2381 2855 2742 
Q 2594 3103 2138 3103 
Q 1681 3103 1420 2742 
Q 1159 2381 1159 1747 
Q 1159 1113 1420 752 
Q 1681 391 2138 391 
Q 2594 391 2855 752 
Q 3116 1113 3116 1747 
z
" transform="scale(0.015625)"/>
       <path id="DejaVuSans-72" d="M 2631 2963 
Q 2534 3019 2420 3045 
Q 2306 3072 2169 3072 
Q 1681 3072 1420 2755 
Q 1159 2438 1159 1844 
L 1159 0 
L 581 0 
L 581 3500 
L 1159 3500 
L 1159 2956 
Q 1341 3275 1631 3429 
Q 1922 3584 2338 3584 
Q 2397 3584 2469 3576 
Q 2541 3569 2628 3553 
L 2631 2963 
z
" transform="scale(0.015625)"/>
       <path id="DejaVuSans-6f" d="M 1959 3097 
Q 1497 3097 1228 2736 
Q 959 2375 959 1747 
Q 959 1119 1226 758 
Q 1494 397 1959 397 
Q 2419 397 2687 759 
Q 2956 1122 2956 1747 
Q 2956 2369 2687 2733 
Q 2419 3097 1959 3097 
z
M 1959 3584 
Q 2709 3584 3137 3096 
Q 3566 2609 3566 1747 
Q 3566 888 3137 398 
Q 2709 -91 1959 -91 
Q 1206 -91 779 398 
Q 353 888 353 1747 
Q 353 2609 779 3096 
Q 1206 3584 1959 3584 
z
" transform="scale(0.015625)"/>
       <path id="DejaVuSans-Oblique-70" d="M 3175 2156 
Q 3175 2616 2975 2859 
Q 2775 3103 2400 3103 
Q 2144 3103 1911 2972 
Q 1678 2841 1497 2591 
Q 1319 2344 1212 1994 
Q 1106 1644 1106 1300 
Q 1106 863 1306 627 
Q 1506 391 1875 391 
Q 2147 391 2380 519 
Q 2613 647 2778 891 
Q 2956 1147 3065 1494 
Q 3175 1841 3175 2156 
z
M 1394 2969 
Q 1625 3272 1939 3428 
Q 2253 3584 2638 3584 
Q 3175 3584 3472 3232 
Q 3769 2881 3769 2247 
Q 3769 1728 3584 1258 
Q 3400 788 3053 416 
Q 2822 169 2531 39 
Q 2241 -91 1919 -91 
Q 1547 -91 1294 64 
Q 1041 219 916 525 
L 556 -1331 
L -19 -1331 
L 922 3500 
L 1497 3500 
L 1394 2969 
z
" transform="scale(0.015625)"/>
       <path id="DejaVuSans-Oblique-72" d="M 2853 2969 
Q 2766 3016 2653 3041 
Q 2541 3066 2413 3066 
Q 1953 3066 1609 2717 
Q 1266 2369 1153 1784 
L 800 0 
L 225 0 
L 909 3500 
L 1484 3500 
L 1375 2956 
Q 1603 3259 1920 3421 
Q 2238 3584 2597 3584 
Q 2691 3584 2781 3573 
Q 2872 3563 2963 3538 
L 2853 2969 
z
" transform="scale(0.015625)"/>
       <path id="DejaVuSans-Oblique-6f" d="M 1625 -91 
Q 1009 -91 651 289 
Q 294 669 294 1325 
Q 294 1706 417 2101 
Q 541 2497 738 2766 
Q 1047 3184 1428 3384 
Q 1809 3584 2291 3584 
Q 2888 3584 3255 3212 
Q 3622 2841 3622 2241 
Q 3622 1825 3500 1412 
Q 3378 1000 3181 728 
Q 2875 309 2494 109 
Q 2113 -91 1625 -91 
z
M 891 1344 
Q 891 869 1089 633 
Q 1288 397 1691 397 
Q 2269 397 2648 901 
Q 3028 1406 3028 2181 
Q 3028 2634 2825 2865 
Q 2622 3097 2228 3097 
Q 1903 3097 1650 2945 
Q 1397 2794 1197 2484 
Q 1050 2253 970 1956 
Q 891 1659 891 1344 
z
" transform="scale(0.015625)"/>
      </defs>
      <use xlink:href="#DejaVuSans-43" transform="translate(0 0.015625)"/>
      <use xlink:href="#DejaVuSans-68" transform="translate(69.824219 0.015625)"/>
      <use xlink:href="#DejaVuSans-61" transform="translate(133.203125 0.015625)"/>
      <use xlink:href="#DejaVuSans-6e" transform="translate(194.482422 0.015625)"/>
      <use xlink:href="#DejaVuSans-67" transform="translate(257.861328 0.015625)"/>
      <use xlink:href="#DejaVuSans-65" transform="translate(321.337891 0.015625)"/>
      <use xlink:href="#DejaVuSans-20" transform="translate(382.861328 0.015625)"/>
      <use xlink:href="#DejaVuSans-69" transform="translate(414.648438 0.015625)"/>
      <use xlink:href="#DejaVuSans-6e" transform="translate(442.431641 0.015625)"/>
      <use xlink:href="#DejaVuSans-20" transform="translate(505.810547 0.015625)"/>
      <use xlink:href="#DejaVuSans-70" transform="translate(537.597656 0.015625)"/>
      <use xlink:href="#DejaVuSans-72" transform="translate(601.074219 0.015625)"/>
      <use xlink:href="#DejaVuSans-6f" transform="translate(642.1875 0.015625)"/>
      <use xlink:href="#DejaVuSans-70" transform="translate(703.369141 0.015625)"/>
      <use xlink:href="#DejaVuSans-6f" transform="translate(766.845703 0.015625)"/>
      <use xlink:href="#DejaVuSans-72" transform="translate(828.027344 0.015625)"/>
      <use xlink:href="#DejaVuSans-74" transform="translate(869.140625 0.015625)"/>
      <use xlink:href="#DejaVuSans-69" transform="translate(908.349609 0.015625)"/>
      <use xlink:href="#DejaVuSans-6f" transform="translate(936.132812 0.015625)"/>
      <use xlink:href="#DejaVuSans-6e" transform="translate(997.314453 0.015625)"/>
      <use xlink:href="#DejaVuSans-20" transform="translate(1060.693359 0.015625)"/>
      <use xlink:href="#DejaVuSans-Oblique-3b3" transform="translate(1092.480469 0.015625)"/>
      <use xlink:href="#DejaVuSans-Oblique-70" transform="translate(1151.660156 -16.390625) scale(0.7)"/>
      <use xlink:href="#DejaVuSans-Oblique-72" transform="translate(1196.09375 -16.390625) scale(0.7)"/>
      <use xlink:href="#DejaVuSans-Oblique-6f" transform="translate(1224.873047 -16.390625) scale(0.7)"/>
      <use xlink:href="#DejaVuSans-Oblique-70" transform="translate(1267.700195 -16.390625) scale(0.7)"/>
     </g>
    </g>
   </g>
   <g id="line2d_41">
    <path d="M 940.074841 303.580635 
" clip-path="url(#p433645de9e)" style="fill: none; stroke: #ffa500; stroke-width: 1.5; stroke-linecap: square"/>
   </g>
   <g id="patch_7">
    <path d="M 103.074841 402.51858 
L 103.074841 14.43858 
" style="fill: none; stroke: #000000; stroke-width: 0.8; stroke-linejoin: miter; stroke-linecap: square"/>
   </g>
   <g id="patch_8">
    <path d="M 940.074841 402.51858 
L 940.074841 14.43858 
" style="fill: none; stroke: #000000; stroke-width: 0.8; stroke-linejoin: miter; stroke-linecap: square"/>
   </g>
   <g id="patch_9">
    <path d="M 103.074841 402.51858 
L 940.074841 402.51858 
" style="fill: none; stroke: #000000; stroke-width: 0.8; stroke-linejoin: miter; stroke-linecap: square"/>
   </g>
   <g id="patch_10">
    <path d="M 103.074841 14.43858 
L 940.074841 14.43858 
" style="fill: none; stroke: #000000; stroke-width: 0.8; stroke-linejoin: miter; stroke-linecap: square"/>
   </g>
  </g>
 </g>
 <defs>
  <clipPath id="p433645de9e">
   <rect x="103.074841" y="14.43858" width="837" height="388.08"/>
  </clipPath>
 </defs>
</svg>
