<?xml version="1.0" encoding="utf-8" standalone="no"?>
<!DOCTYPE svg PUBLIC "-//W3C//DTD SVG 1.1//EN"
  "http://www.w3.org/Graphics/SVG/1.1/DTD/svg11.dtd">
<svg xmlns:xlink="http://www.w3.org/1999/xlink" width="947.274841pt" height="505.354841pt" viewBox="0 0 947.274841 505.354841" xmlns="http://www.w3.org/2000/svg" version="1.1">
 <metadata>
  <rdf:RDF xmlns:dc="http://purl.org/dc/elements/1.1/" xmlns:cc="http://creativecommons.org/ns#" xmlns:rdf="http://www.w3.org/1999/02/22-rdf-syntax-ns#">
   <cc:Work>
    <dc:type rdf:resource="http://purl.org/dc/dcmitype/StillImage"/>
    <dc:date>2023-11-12T22:43:45.883750</dc:date>
    <dc:format>image/svg+xml</dc:format>
    <dc:creator>
     <cc:Agent>
      <dc:title>Matplotlib v3.7.2, https://matplotlib.org/</dc:title>
     </cc:Agent>
    </dc:creator>
   </cc:Work>
  </rdf:RDF>
 </metadata>
 <defs>
  <style type="text/css">*{stroke-linejoin: round; stroke-linecap: butt}</style>
 </defs>
 <g id="figure_1">
  <g id="patch_1">
   <path d="M 0 505.354841 
L 947.274841 505.354841 
L 947.274841 -0 
L 0 -0 
z
" style="fill: #ffffff"/>
  </g>
  <g id="axes_1">
   <g id="patch_2">
    <path d="M 103.074841 395.28 
L 940.074841 395.28 
L 940.074841 7.2 
L 103.074841 7.2 
z
" style="fill: #ffffff"/>
   </g>
   <g id="PolyCollection_1">
    <path d="M -4315.31939 320.006165 
L -4315.31939 320.008228 
L -4307.271313 319.997395 
L -4299.223236 319.988072 
L -4291.175159 319.976233 
L -4283.127082 319.968494 
L -4275.079005 319.959704 
L -4267.030929 319.949641 
L -4258.982852 319.939697 
L -4250.934775 319.93039 
L -4242.886698 319.92227 
L -4234.838621 319.912828 
L -4226.790544 319.902933 
L -4218.742467 319.893341 
L -4210.69439 319.881499 
L -4202.646313 319.871748 
L -4194.598236 319.860219 
L -4186.550159 319.850415 
L -4178.502082 319.837062 
L -4170.454005 319.826159 
L -4162.405929 319.81568 
L -4154.357852 319.803222 
L -4146.309775 319.791099 
L -4138.261698 319.77927 
L -4130.213621 319.764925 
L -4122.165544 319.752444 
L -4114.117467 319.737777 
L -4106.06939 319.722943 
L -4098.021313 319.706505 
L -4089.973236 319.689627 
L -4081.925159 319.673159 
L -4073.877082 319.654026 
L -4065.829005 319.632303 
L -4057.780929 319.613139 
L -4049.732852 319.591318 
L -4041.684775 319.566328 
L -4033.636698 319.543166 
L -4025.588621 319.515926 
L -4017.540544 319.488303 
L -4009.492467 319.459888 
L -4001.44439 319.429867 
L -3993.396313 319.396519 
L -3985.348236 319.361012 
L -3977.300159 319.323394 
L -3969.252082 319.287282 
L -3961.204005 319.244676 
L -3953.155929 319.204337 
L -3945.107852 319.161326 
L -3937.059775 319.118221 
L -3929.011698 319.071751 
L -3920.963621 319.02137 
L -3912.915544 318.97494 
L -3904.867467 318.923078 
L -3896.81939 318.869431 
L -3888.771313 318.816979 
L -3880.723236 318.765132 
L -3872.675159 318.708749 
L -3864.627082 318.651784 
L -3856.579005 318.594978 
L -3848.530929 318.535778 
L -3840.482852 318.475863 
L -3832.434775 318.416192 
L -3824.386698 318.354448 
L -3816.338621 318.2926 
L -3808.290544 318.231777 
L -3800.242467 318.168364 
L -3792.19439 318.100358 
L -3784.146313 318.034577 
L -3776.098236 317.968985 
L -3768.050159 317.904469 
L -3760.002082 317.837182 
L -3751.954005 317.771523 
L -3743.905929 317.704681 
L -3735.857852 317.644614 
L -3727.809775 317.573296 
L -3719.761698 317.51183 
L -3711.713621 317.444185 
L -3703.665544 317.379841 
L -3695.617467 317.312157 
L -3687.56939 317.252684 
L -3679.521313 317.184026 
L -3671.473236 317.119621 
L -3663.425159 317.058959 
L -3655.377082 316.993888 
L -3647.329005 316.932569 
L -3639.280929 316.868273 
L -3631.232852 316.802659 
L -3623.184775 316.740277 
L -3615.136698 316.679576 
L -3607.088621 316.613993 
L -3599.040544 316.550992 
L -3590.992467 316.486652 
L -3582.94439 316.424332 
L -3574.896313 316.363503 
L -3566.848236 316.300905 
L -3558.800159 316.237646 
L -3550.752082 316.180857 
L -3542.704005 316.116233 
L -3534.655929 316.05436 
L -3526.607852 315.993489 
L -3518.559775 315.932507 
L -3510.511698 315.871653 
L -3502.463621 315.809953 
L -3494.415544 315.751141 
L -3486.367467 315.689859 
L -3478.31939 315.626988 
L -3470.271313 315.563374 
L -3462.223236 315.499035 
L -3454.175159 315.438849 
L -3446.127082 315.372485 
L -3438.079005 315.301646 
L -3430.030929 315.235179 
L -3421.982852 315.165024 
L -3413.934775 315.093791 
L -3405.886698 315.018533 
L -3397.838621 314.941922 
L -3389.790544 314.870818 
L -3381.742467 314.789569 
L -3373.69439 314.712409 
L -3365.646313 314.629309 
L -3357.598236 314.553092 
L -3349.550159 314.463316 
L -3341.502082 314.375367 
L -3333.454005 314.289937 
L -3325.405929 314.20302 
L -3317.357852 314.113407 
L -3309.309775 314.01973 
L -3301.261698 313.932038 
L -3293.213621 313.83145 
L -3285.165544 313.743183 
L -3277.117467 313.639683 
L -3269.06939 313.539458 
L -3261.021313 313.441646 
L -3252.973236 313.347902 
L -3244.925159 313.2383 
L -3236.877082 313.139457 
L -3228.829005 313.013419 
L -3220.780929 312.905226 
L -3212.732852 312.804543 
L -3204.684775 312.690678 
L -3196.636698 312.573902 
L -3188.588621 312.439235 
L -3180.540544 312.313179 
L -3172.492467 312.208313 
L -3164.44439 312.041451 
L -3156.396313 311.907812 
L -3148.348236 311.771293 
L -3140.300159 311.62971 
L -3132.252082 311.468336 
L -3124.204005 311.316789 
L -3116.155929 311.202939 
L -3108.107852 311.057441 
L -3100.059775 310.817538 
L -3092.011698 310.616259 
L -3083.963621 310.468166 
L -3075.915544 310.262429 
L -3067.867467 310.092231 
L -3059.81939 309.944446 
L -3051.771313 309.719134 
L -3043.723236 309.462599 
L -3035.675159 309.287992 
L -3027.627082 309.177305 
L -3019.579005 308.96361 
L -3011.530929 308.869731 
L -3003.482852 308.745201 
L -2995.434775 308.529874 
L -2987.386698 308.552124 
L -2979.338621 308.647156 
L -2971.290544 308.842953 
L -2963.242467 308.634654 
L -2955.19439 309.064189 
L -2947.146313 309.164382 
L -2939.098236 308.599378 
L -2931.050159 308.76641 
L -2923.002082 309.024525 
L -2914.954005 308.88072 
L -2906.905929 308.855147 
L -2898.857852 309.944366 
L -2890.809775 311.49113 
L -2882.761698 312.264047 
L -2874.713621 310.597256 
L -2866.665544 311.46252 
L -2858.617467 312.594309 
L -2850.56939 312.534624 
L -2842.521313 314.831945 
L -2834.473236 314.525656 
L -2826.425159 313.830806 
L -2818.377082 312.099792 
L -2810.329005 313.737208 
L -2802.280929 314.724139 
L -2794.232852 314.31944 
L -2786.184775 314.58079 
L -2778.136698 315.512806 
L -2770.088621 315.395607 
L -2762.040544 314.603206 
L -2753.992467 315.612638 
L -2745.94439 315.818352 
L -2737.896313 315.467155 
L -2729.848236 316.111172 
L -2721.800159 316.351603 
L -2713.752082 316.296543 
L -2705.704005 316.111512 
L -2697.655929 316.329131 
L -2689.607852 316.124278 
L -2681.559775 316.151954 
L -2673.511698 316.360524 
L -2665.463621 316.182241 
L -2657.415544 316.289052 
L -2649.367467 316.303922 
L -2641.31939 316.162456 
L -2633.271313 316.228517 
L -2625.223236 316.020707 
L -2617.175159 316.046187 
L -2609.127082 316.117609 
L -2601.079005 316.132008 
L -2593.030929 316.036698 
L -2584.982852 315.95721 
L -2576.934775 315.945409 
L -2568.886698 315.85656 
L -2560.838621 315.852539 
L -2552.790544 315.845097 
L -2544.742467 315.704507 
L -2536.69439 315.787522 
L -2528.646313 315.697825 
L -2520.598236 315.664759 
L -2512.550159 315.677616 
L -2504.502082 315.588941 
L -2496.454005 315.573737 
L -2488.405929 315.615169 
L -2480.357852 315.676124 
L -2472.309775 315.521336 
L -2464.261698 315.499012 
L -2456.213621 315.450822 
L -2448.165544 315.73112 
L -2440.117467 315.737325 
L -2432.06939 315.841819 
L -2424.021313 315.572737 
L -2415.973236 315.405999 
L -2407.925159 315.454148 
L -2399.877082 315.631493 
L -2391.829005 315.653444 
L -2383.780929 315.322764 
L -2375.732852 315.583785 
L -2367.684775 315.502592 
L -2359.636698 315.443205 
L -2351.588621 315.279205 
L -2343.540544 315.382796 
L -2335.492467 315.291563 
L -2327.44439 315.337991 
L -2319.396313 315.21774 
L -2311.348236 315.116244 
L -2303.300159 314.952428 
L -2295.252082 314.859089 
L -2287.204005 314.770279 
L -2279.155929 314.657549 
L -2271.107852 314.606814 
L -2263.059775 314.495708 
L -2255.011698 314.376677 
L -2246.963621 314.122167 
L -2238.915544 313.919239 
L -2230.867467 313.805671 
L -2222.81939 313.585703 
L -2214.771313 313.507514 
L -2206.723236 313.305053 
L -2198.675159 313.027195 
L -2190.627082 312.787564 
L -2182.579005 312.593781 
L -2174.530929 312.306163 
L -2166.482852 312.109816 
L -2158.434775 311.847995 
L -2150.386698 311.618894 
L -2142.338621 311.338586 
L -2134.290544 311.099995 
L -2126.242467 310.794013 
L -2118.19439 310.542189 
L -2110.146313 310.274337 
L -2102.098236 309.929102 
L -2094.050159 309.605115 
L -2086.002082 309.355566 
L -2077.954005 309.089361 
L -2069.905929 308.758718 
L -2061.857852 308.486954 
L -2053.809775 308.166326 
L -2045.761698 307.722645 
L -2037.713621 307.506521 
L -2029.665544 307.123657 
L -2021.617467 306.815417 
L -2013.56939 306.484494 
L -2005.521313 306.122653 
L -1997.473236 305.758427 
L -1989.425159 305.417982 
L -1981.377082 304.975735 
L -1973.329005 304.682023 
L -1965.280929 304.249131 
L -1957.232852 303.952203 
L -1949.184775 303.509478 
L -1941.136698 303.088882 
L -1933.088621 302.706814 
L -1925.040544 302.391384 
L -1916.992467 301.902895 
L -1908.94439 301.554459 
L -1900.896313 301.115634 
L -1892.848236 300.746983 
L -1884.800159 300.286523 
L -1876.752082 299.874707 
L -1868.704005 299.76916 
L -1860.655929 299.020044 
L -1852.607852 298.850869 
L -1844.559775 298.371255 
L -1836.511698 298.020935 
L -1828.463621 297.619135 
L -1820.415544 297.194674 
L -1812.367467 296.804849 
L -1804.31939 296.426313 
L -1796.271313 296.066352 
L -1788.223236 295.705129 
L -1780.175159 295.861512 
L -1772.127082 294.930563 
L -1764.079005 294.6478 
L -1756.030929 295.287744 
L -1747.982852 294.180239 
L -1739.934775 294.288226 
L -1731.886698 294.109124 
L -1723.838621 293.503779 
L -1715.790544 293.535631 
L -1707.742467 294.001527 
L -1699.69439 293.555863 
L -1691.646313 293.321622 
L -1683.598236 293.598087 
L -1675.550159 293.430182 
L -1667.502082 293.601914 
L -1659.454005 293.865766 
L -1651.405929 294.331095 
L -1643.357852 295.501267 
L -1635.309775 295.180771 
L -1627.261698 295.799005 
L -1619.213621 296.306097 
L -1611.165544 296.562802 
L -1603.117467 297.222566 
L -1595.06939 297.683417 
L -1587.021313 296.765189 
L -1578.973236 297.779767 
L -1570.925159 299.153245 
L -1562.877082 299.822287 
L -1554.829005 300.135654 
L -1546.780929 301.953458 
L -1538.732852 302.112994 
L -1530.684775 302.619304 
L -1522.636698 302.50214 
L -1514.588621 304.0399 
L -1506.540544 303.58362 
L -1498.492467 303.331429 
L -1490.44439 304.647421 
L -1482.396313 305.586882 
L -1474.348236 305.522236 
L -1466.300159 306.086507 
L -1458.252082 306.280665 
L -1450.204005 306.329709 
L -1442.155929 306.345161 
L -1434.107852 306.664666 
L -1426.059775 306.852006 
L -1418.011698 307.812407 
L -1409.963621 307.344234 
L -1401.915544 308.182161 
L -1393.867467 308.012636 
L -1385.81939 307.917236 
L -1377.771313 308.265759 
L -1369.723236 308.577905 
L -1361.675159 308.217875 
L -1353.627082 308.417874 
L -1345.579005 308.444676 
L -1337.530929 308.9054 
L -1329.482852 308.699081 
L -1321.434775 308.609866 
L -1313.386698 308.750735 
L -1305.338621 308.9771 
L -1297.290544 308.882703 
L -1289.242467 308.679692 
L -1281.19439 308.808567 
L -1273.146313 308.493541 
L -1265.098236 308.535176 
L -1257.050159 309.073574 
L -1249.002082 309.047634 
L -1240.954005 308.751331 
L -1232.905929 308.679921 
L -1224.857852 308.716246 
L -1216.809775 308.39321 
L -1208.761698 308.471182 
L -1200.713621 308.468837 
L -1192.665544 308.398724 
L -1184.617467 308.309347 
L -1176.56939 308.106811 
L -1168.521313 308.222084 
L -1160.473236 308.084633 
L -1152.425159 308.051937 
L -1144.377082 307.977746 
L -1136.329005 307.983397 
L -1128.280929 307.827695 
L -1120.232852 307.547808 
L -1112.184775 307.533195 
L -1104.136698 307.305849 
L -1096.088621 306.978566 
L -1088.040544 307.215979 
L -1079.992467 306.77074 
L -1071.94439 306.955542 
L -1063.896313 306.870486 
L -1055.848236 306.901612 
L -1047.800159 306.616596 
L -1039.752082 306.59658 
L -1031.704005 306.556252 
L -1023.655929 306.202453 
L -1015.607852 306.291694 
L -1007.559775 306.261276 
L -999.511698 306.248022 
L -991.463621 306.080039 
L -983.415544 306.159897 
L -975.367467 305.987538 
L -967.31939 305.823342 
L -959.271313 305.563432 
L -951.223236 305.481228 
L -943.175159 305.427703 
L -935.127082 305.247343 
L -927.079005 305.276232 
L -919.030929 305.189278 
L -910.982852 305.02948 
L -902.934775 305.037921 
L -894.886698 304.8564 
L -886.838621 305.011761 
L -878.790544 304.886668 
L -870.742467 304.895834 
L -862.69439 304.670672 
L -854.646313 304.362286 
L -846.598236 304.630408 
L -838.550159 304.625073 
L -830.502082 304.527276 
L -822.454005 304.425701 
L -814.405929 304.212319 
L -806.357852 304.166939 
L -798.309775 304.051484 
L -790.261698 304.07331 
L -782.213621 304.0323 
L -774.165544 303.829664 
L -766.117467 303.540458 
L -758.06939 303.92517 
L -750.021313 303.8386 
L -741.973236 303.59376 
L -733.925159 303.756214 
L -725.877082 303.315594 
L -717.829005 303.374347 
L -709.780929 303.407352 
L -701.732852 303.11041 
L -693.684775 303.628613 
L -685.636698 303.118967 
L -677.588621 302.862744 
L -669.540544 303.204062 
L -661.492467 303.301363 
L -653.44439 303.144802 
L -645.396313 303.28334 
L -637.348236 303.055759 
L -629.300159 303.52573 
L -621.252082 303.302964 
L -613.204005 303.409299 
L -605.155929 303.107582 
L -597.107852 302.838385 
L -589.059775 303.208971 
L -581.011698 303.863812 
L -572.963621 303.14767 
L -564.915544 303.202892 
L -556.867467 302.944149 
L -548.81939 303.086993 
L -540.771313 303.065463 
L -532.723236 302.910955 
L -524.675159 302.861366 
L -516.627082 303.187166 
L -508.579005 303.037967 
L -500.530929 303.336571 
L -492.482852 303.403284 
L -484.434775 302.587606 
L -476.386698 302.941814 
L -468.338621 302.982229 
L -460.290544 303.052387 
L -452.242467 303.115473 
L -444.19439 303.657381 
L -436.146313 303.880361 
L -428.098236 303.867112 
L -420.050159 304.461395 
L -412.002082 305.438617 
L -403.954005 304.297374 
L -395.905929 304.293188 
L -387.857852 304.325875 
L -379.809775 304.717706 
L -371.761698 304.813834 
L -363.713621 304.819014 
L -355.665544 305.660134 
L -347.617467 305.977101 
L -339.56939 305.039533 
L -331.521313 305.905158 
L -323.473236 305.491184 
L -315.425159 305.237604 
L -307.377082 306.289475 
L -299.329005 306.093088 
L -291.280929 306.778656 
L -283.232852 306.587715 
L -275.184775 306.148601 
L -267.136698 306.58469 
L -259.088621 306.600445 
L -251.040544 307.032001 
L -242.992467 306.788655 
L -234.94439 307.491276 
L -226.896313 307.020701 
L -218.848236 307.401989 
L -210.800159 307.349939 
L -202.752082 307.769323 
L -194.704005 307.150656 
L -186.655929 307.856689 
L -178.607852 307.842752 
L -170.559775 308.333047 
L -162.511698 308.602523 
L -154.463621 308.62817 
L -146.415544 308.530309 
L -138.367467 308.85473 
L -130.31939 309.102515 
L -122.271313 308.928302 
L -114.223236 308.87502 
L -106.175159 309.159808 
L -98.127082 309.421805 
L -90.079005 309.028346 
L -82.030929 308.810985 
L -73.982852 309.783241 
L -65.934775 310.236203 
L -57.886698 309.286803 
L -49.838621 309.595951 
L -41.790544 309.759426 
L -33.742467 309.849636 
L -25.69439 310.357586 
L -17.646313 310.314485 
L -9.598236 310.13216 
L -1.550159 310.363947 
L 6.497918 310.441001 
L 14.545995 309.936301 
L 22.594071 310.218691 
L 30.642148 310.070652 
L 38.690225 310.815995 
L 46.738302 311.725025 
L 54.786379 311.617841 
L 62.834456 310.925195 
L 70.882533 310.863635 
L 78.93061 310.973765 
L 86.978687 311.019018 
L 95.026764 311.692149 
L 103.074841 310.867678 
L 111.122918 311.765973 
L 119.170995 312.494723 
L 127.219071 311.9168 
L 135.267148 312.846819 
L 143.315225 312.292911 
L 151.363302 312.812768 
L 159.411379 312.498285 
L 167.459456 312.762968 
L 175.507533 313.267731 
L 183.55561 313.253425 
L 191.603687 313.42339 
L 199.651764 313.484953 
L 207.699841 313.557033 
L 215.747918 312.382897 
L 223.795995 313.941971 
L 231.844071 314.597117 
L 239.892148 314.008665 
L 247.940225 314.590249 
L 255.988302 314.733534 
L 264.036379 314.42784 
L 272.084456 315.08597 
L 280.132533 315.534801 
L 288.18061 315.320772 
L 296.228687 315.514512 
L 304.276764 315.636316 
L 312.324841 315.81995 
L 320.372918 316.322787 
L 328.420995 315.375569 
L 336.469071 316.619589 
L 344.517148 316.678824 
L 352.565225 316.759946 
L 360.613302 316.045883 
L 368.661379 316.998316 
L 376.709456 317.641229 
L 384.757533 317.056978 
L 392.80561 317.161793 
L 400.853687 318.045663 
L 408.901764 316.596199 
L 416.949841 318.017902 
L 424.997918 317.189397 
L 433.045995 318.434854 
L 441.094071 317.902693 
L 449.142148 318.47178 
L 457.190225 318.67842 
L 465.238302 318.951675 
L 473.286379 319.06343 
L 481.334456 318.782089 
L 489.382533 318.830447 
L 497.43061 319.045505 
L 505.478687 319.638086 
L 513.526764 319.604336 
L 521.574841 319.618529 
L 529.622918 320.005327 
L 537.670995 320.069838 
L 545.719071 319.793052 
L 553.767148 319.864737 
L 561.815225 320.59975 
L 569.863302 320.734942 
L 577.911379 320.925869 
L 585.959456 320.397555 
L 594.007533 319.636489 
L 602.05561 320.501344 
L 610.103687 320.227377 
L 618.151764 320.529872 
L 626.199841 321.117283 
L 634.247918 320.424744 
L 642.295995 321.565535 
L 650.344071 320.613026 
L 658.392148 320.574797 
L 666.440225 320.664963 
L 674.488302 321.545381 
L 682.536379 321.50709 
L 690.584456 321.378213 
L 698.632533 320.544758 
L 706.68061 321.0666 
L 714.728687 321.517032 
L 722.776764 321.157352 
L 730.824841 321.942087 
L 738.872918 321.42258 
L 746.920995 321.960197 
L 754.969071 322.786931 
L 763.017148 322.728136 
L 771.065225 322.032243 
L 779.113302 322.117517 
L 787.161379 322.043947 
L 795.209456 322.455025 
L 803.257533 322.510385 
L 811.30561 321.331113 
L 819.353687 322.382334 
L 827.401764 319.290549 
L 835.449841 322.511307 
L 843.497918 322.973157 
L 851.545995 322.189903 
L 859.594071 321.373572 
L 867.642148 323.141698 
L 875.690225 322.452682 
L 883.738302 321.184068 
L 891.786379 322.092759 
L 899.834456 322.175467 
L 907.882533 321.876102 
L 915.93061 322.740958 
L 923.978687 322.206836 
L 932.026764 322.603043 
L 940.074841 322.90465 
L 940.074841 319.595778 
L 940.074841 319.595778 
L 932.026764 320.059784 
L 923.978687 319.798827 
L 915.93061 320.029965 
L 907.882533 319.676582 
L 899.834456 319.832978 
L 891.786379 319.68473 
L 883.738302 319.783269 
L 875.690225 320.196902 
L 867.642148 320.249481 
L 859.594071 319.96328 
L 851.545995 320.030649 
L 843.497918 320.481677 
L 835.449841 320.188336 
L 827.401764 316.618657 
L 819.353687 320.305545 
L 811.30561 320.137631 
L 803.257533 320.385456 
L 795.209456 320.408032 
L 787.161379 320.323607 
L 779.113302 320.473379 
L 771.065225 320.469454 
L 763.017148 320.679554 
L 754.969071 320.734589 
L 746.920995 320.596119 
L 738.872918 320.46949 
L 730.824841 320.560799 
L 722.776764 320.312315 
L 714.728687 320.422094 
L 706.68061 320.369261 
L 698.632533 320.221127 
L 690.584456 320.546503 
L 682.536379 320.598704 
L 674.488302 320.719477 
L 666.440225 320.307891 
L 658.392148 320.338108 
L 650.344071 320.364481 
L 642.295995 320.730289 
L 634.247918 320.006836 
L 626.199841 320.620303 
L 618.151764 320.190995 
L 610.103687 319.531761 
L 602.05561 320.125638 
L 594.007533 317.610336 
L 585.959456 319.879409 
L 577.911379 320.62853 
L 569.863302 320.340142 
L 561.815225 320.166659 
L 553.767148 318.157476 
L 545.719071 318.213289 
L 537.670995 318.933399 
L 529.622918 318.88216 
L 521.574841 317.759489 
L 513.526764 317.8149 
L 505.478687 317.705788 
L 497.43061 316.591129 
L 489.382533 315.618882 
L 481.334456 315.397211 
L 473.286379 316.214408 
L 465.238302 315.955454 
L 457.190225 315.448028 
L 449.142148 314.928638 
L 441.094071 313.276543 
L 433.045995 314.898556 
L 424.997918 310.671459 
L 416.949841 313.507319 
L 408.901764 309.47573 
L 400.853687 313.812513 
L 392.80561 311.395164 
L 384.757533 311.332386 
L 376.709456 312.554009 
L 368.661379 311.072312 
L 360.613302 308.380215 
L 352.565225 310.308394 
L 344.517148 310.252777 
L 336.469071 310.154687 
L 328.420995 307.016729 
L 320.372918 308.543059 
L 312.324841 308.152319 
L 304.276764 307.907113 
L 296.228687 307.53894 
L 288.18061 306.859488 
L 280.132533 307.467302 
L 272.084456 306.291583 
L 264.036379 304.826791 
L 255.988302 306.002346 
L 247.940225 305.03339 
L 239.892148 304.161837 
L 231.844071 305.505102 
L 223.795995 303.980118 
L 215.747918 300.111228 
L 207.699841 302.889644 
L 199.651764 302.747698 
L 191.603687 302.721024 
L 183.55561 302.348379 
L 175.507533 302.333957 
L 167.459456 301.258154 
L 159.411379 300.793815 
L 151.363302 301.57412 
L 143.315225 300.012915 
L 135.267148 301.540067 
L 127.219071 299.392083 
L 119.170995 300.579461 
L 111.122918 299.138439 
L 103.074841 297.364384 
L 95.026764 298.9406 
L 86.978687 297.384231 
L 78.93061 297.465221 
L 70.882533 297.370296 
L 62.834456 297.48957 
L 54.786379 298.908452 
L 46.738302 299.215852 
L 38.690225 297.441393 
L 30.642148 295.621279 
L 22.594071 296.090576 
L 14.545995 295.69771 
L 6.497918 296.785007 
L -1.550159 296.634902 
L -9.598236 296.150682 
L -17.646313 296.703909 
L -25.69439 296.624977 
L -33.742467 295.68397 
L -41.790544 295.7611 
L -49.838621 295.377572 
L -57.886698 294.910009 
L -65.934775 296.930042 
L -73.982852 295.743298 
L -82.030929 294.129168 
L -90.079005 294.856533 
L -98.127082 295.505148 
L -106.175159 295.027644 
L -114.223236 294.655468 
L -122.271313 294.895833 
L -130.31939 295.580264 
L -138.367467 294.774644 
L -146.415544 294.460942 
L -154.463621 294.751644 
L -162.511698 294.236504 
L -170.559775 294.366995 
L -178.607852 293.360379 
L -186.655929 293.689615 
L -194.704005 292.469555 
L -202.752082 293.477767 
L -210.800159 292.969146 
L -218.848236 293.236044 
L -226.896313 292.888249 
L -234.94439 293.499571 
L -242.992467 292.408028 
L -251.040544 293.069471 
L -259.088621 292.37753 
L -267.136698 292.497084 
L -275.184775 291.954946 
L -283.232852 292.225145 
L -291.280929 292.981462 
L -299.329005 292.234812 
L -307.377082 292.410748 
L -315.425159 290.95102 
L -323.473236 291.622217 
L -331.521313 291.962911 
L -339.56939 290.840182 
L -347.617467 292.092718 
L -355.665544 292.190848 
L -363.713621 290.772517 
L -371.761698 290.801814 
L -379.809775 290.705862 
L -387.857852 290.198296 
L -395.905929 290.55711 
L -403.954005 290.434472 
L -412.002082 292.110752 
L -420.050159 290.964522 
L -428.098236 290.120389 
L -436.146313 290.150763 
L -444.19439 289.909169 
L -452.242467 289.403667 
L -460.290544 289.596263 
L -468.338621 289.259276 
L -476.386698 289.659203 
L -484.434775 289.164878 
L -492.482852 290.129715 
L -500.530929 290.266138 
L -508.579005 290.053947 
L -516.627082 290.275001 
L -524.675159 289.9178 
L -532.723236 290.209278 
L -540.771313 290.381048 
L -548.81939 290.835852 
L -556.867467 290.480892 
L -564.915544 290.989691 
L -572.963621 290.893946 
L -581.011698 291.83886 
L -589.059775 291.209211 
L -597.107852 290.876095 
L -605.155929 291.283785 
L -613.204005 291.470858 
L -621.252082 291.489311 
L -629.300159 292.038684 
L -637.348236 291.571306 
L -645.396313 291.942209 
L -653.44439 291.770162 
L -661.492467 291.861674 
L -669.540544 291.708235 
L -677.588621 291.481559 
L -685.636698 291.923384 
L -693.684775 292.510061 
L -701.732852 291.917959 
L -709.780929 292.261668 
L -717.829005 292.115687 
L -725.877082 292.313037 
L -733.925159 292.76629 
L -741.973236 292.6153 
L -750.021313 292.983071 
L -758.06939 293.081458 
L -766.117467 292.671042 
L -774.165544 292.915111 
L -782.213621 293.186763 
L -790.261698 293.285344 
L -798.309775 293.27492 
L -806.357852 293.467797 
L -814.405929 293.437656 
L -822.454005 293.723163 
L -830.502082 293.802342 
L -838.550159 293.866201 
L -846.598236 293.929623 
L -854.646313 293.419983 
L -862.69439 293.980996 
L -870.742467 294.204529 
L -878.790544 294.139221 
L -886.838621 294.155202 
L -894.886698 294.156168 
L -902.934775 294.31749 
L -910.982852 294.260198 
L -919.030929 294.50299 
L -927.079005 294.584811 
L -935.127082 294.520921 
L -943.175159 294.605787 
L -951.223236 294.722114 
L -959.271313 294.842741 
L -967.31939 295.264528 
L -975.367467 295.358153 
L -983.415544 295.558428 
L -991.463621 295.44493 
L -999.511698 295.637454 
L -1007.559775 295.648356 
L -1015.607852 295.701496 
L -1023.655929 295.474236 
L -1031.704005 296.071156 
L -1039.752082 296.115477 
L -1047.800159 296.146869 
L -1055.848236 296.50215 
L -1063.896313 296.468408 
L -1071.94439 296.611442 
L -1079.992467 296.418765 
L -1088.040544 296.911254 
L -1096.088621 296.755063 
L -1104.136698 297.229637 
L -1112.184775 297.564491 
L -1120.232852 297.65572 
L -1128.280929 298.079074 
L -1136.329005 298.408465 
L -1144.377082 298.389014 
L -1152.425159 298.588887 
L -1160.473236 298.641532 
L -1168.521313 298.906682 
L -1176.56939 298.822467 
L -1184.617467 299.194783 
L -1192.665544 299.471856 
L -1200.713621 299.63401 
L -1208.761698 299.729007 
L -1216.809775 299.803795 
L -1224.857852 300.208171 
L -1232.905929 300.301046 
L -1240.954005 300.550326 
L -1249.002082 300.919374 
L -1257.050159 301.035574 
L -1265.098236 300.701238 
L -1273.146313 300.801668 
L -1281.19439 301.20842 
L -1289.242467 301.255702 
L -1297.290544 301.536076 
L -1305.338621 301.73905 
L -1313.386698 301.630675 
L -1321.434775 301.756003 
L -1329.482852 301.913128 
L -1337.530929 302.194517 
L -1345.579005 301.886384 
L -1353.627082 302.024465 
L -1361.675159 302.028938 
L -1369.723236 302.429985 
L -1377.771313 302.385012 
L -1385.81939 302.169052 
L -1393.867467 302.385244 
L -1401.915544 302.608062 
L -1409.963621 302.042117 
L -1418.011698 302.57416 
L -1426.059775 301.909184 
L -1434.107852 301.888365 
L -1442.155929 301.763336 
L -1450.204005 301.933327 
L -1458.252082 301.991367 
L -1466.300159 301.921807 
L -1474.348236 301.613789 
L -1482.396313 301.875733 
L -1490.44439 301.132934 
L -1498.492467 300.280738 
L -1506.540544 300.517867 
L -1514.588621 300.972231 
L -1522.636698 299.819364 
L -1530.684775 299.88729 
L -1538.732852 299.625425 
L -1546.780929 299.566681 
L -1554.829005 298.142812 
L -1562.877082 298.03866 
L -1570.925159 297.527368 
L -1578.973236 296.416033 
L -1587.021313 295.57808 
L -1595.06939 296.528123 
L -1603.117467 296.09688 
L -1611.165544 295.328422 
L -1619.213621 295.002389 
L -1627.261698 294.426625 
L -1635.309775 293.665744 
L -1643.357852 294.019512 
L -1651.405929 292.627041 
L -1659.454005 291.963355 
L -1667.502082 291.646974 
L -1675.550159 291.409013 
L -1683.598236 291.592855 
L -1691.646313 291.262859 
L -1699.69439 291.577652 
L -1707.742467 292.021609 
L -1715.790544 291.401819 
L -1723.838621 291.376733 
L -1731.886698 292.067219 
L -1739.934775 292.252032 
L -1747.982852 292.044395 
L -1756.030929 293.417052 
L -1764.079005 292.534817 
L -1772.127082 292.903942 
L -1780.175159 293.968434 
L -1788.223236 293.743152 
L -1796.271313 294.17336 
L -1804.31939 294.566416 
L -1812.367467 295.019242 
L -1820.415544 295.454079 
L -1828.463621 295.939283 
L -1836.511698 296.393759 
L -1844.559775 296.777787 
L -1852.607852 297.350357 
L -1860.655929 297.538362 
L -1868.704005 298.413982 
L -1876.752082 298.513904 
L -1884.800159 298.986743 
L -1892.848236 299.527193 
L -1900.896313 299.947295 
L -1908.94439 300.467737 
L -1916.992467 300.858652 
L -1925.040544 301.423255 
L -1933.088621 301.790077 
L -1941.136698 302.242936 
L -1949.184775 302.669973 
L -1957.232852 303.092117 
L -1965.280929 303.370251 
L -1973.329005 303.778395 
L -1981.377082 304.073017 
L -1989.425159 304.489714 
L -1997.473236 304.823358 
L -2005.521313 305.154493 
L -2013.56939 305.514983 
L -2021.617467 305.839322 
L -2029.665544 306.121601 
L -2037.713621 306.472848 
L -2045.761698 306.674105 
L -2053.809775 307.095013 
L -2061.857852 307.392916 
L -2069.905929 307.659972 
L -2077.954005 307.975703 
L -2086.002082 308.184975 
L -2094.050159 308.46885 
L -2102.098236 308.758621 
L -2110.146313 309.072391 
L -2118.19439 309.320915 
L -2126.242467 309.564919 
L -2134.290544 309.826975 
L -2142.338621 310.079229 
L -2150.386698 310.34765 
L -2158.434775 310.568039 
L -2166.482852 310.803891 
L -2174.530929 311.001678 
L -2182.579005 311.261981 
L -2190.627082 311.458009 
L -2198.675159 311.674851 
L -2206.723236 311.93711 
L -2214.771313 312.125967 
L -2222.81939 312.197971 
L -2230.867467 312.413528 
L -2238.915544 312.53411 
L -2246.963621 312.740862 
L -2255.011698 312.97728 
L -2263.059775 313.107347 
L -2271.107852 313.228383 
L -2279.155929 313.263929 
L -2287.204005 313.386425 
L -2295.252082 313.463304 
L -2303.300159 313.544301 
L -2311.348236 313.708455 
L -2319.396313 313.806726 
L -2327.44439 313.943079 
L -2335.492467 313.874138 
L -2343.540544 313.948601 
L -2351.588621 313.834661 
L -2359.636698 314.014711 
L -2367.684775 314.041174 
L -2375.732852 314.170816 
L -2383.780929 313.886943 
L -2391.829005 314.221339 
L -2399.877082 314.188869 
L -2407.925159 313.98739 
L -2415.973236 313.929704 
L -2424.021313 314.09584 
L -2432.06939 314.389347 
L -2440.117467 314.261507 
L -2448.165544 314.243138 
L -2456.213621 313.924212 
L -2464.261698 313.905079 
L -2472.309775 313.976936 
L -2480.357852 314.146525 
L -2488.405929 314.068207 
L -2496.454005 314.011052 
L -2504.502082 314.021215 
L -2512.550159 314.115811 
L -2520.598236 314.069288 
L -2528.646313 314.121567 
L -2536.69439 314.221654 
L -2544.742467 314.11596 
L -2552.790544 314.270012 
L -2560.838621 314.276219 
L -2568.886698 314.276604 
L -2576.934775 314.366827 
L -2584.982852 314.374536 
L -2593.030929 314.477189 
L -2601.079005 314.59153 
L -2609.127082 314.57404 
L -2617.175159 314.500517 
L -2625.223236 314.442445 
L -2633.271313 314.707647 
L -2641.31939 314.639909 
L -2649.367467 314.812564 
L -2657.415544 314.798265 
L -2665.463621 314.707406 
L -2673.511698 314.878995 
L -2681.559775 314.685941 
L -2689.607852 314.677916 
L -2697.655929 314.90138 
L -2705.704005 314.712446 
L -2713.752082 314.923374 
L -2721.800159 314.980617 
L -2729.848236 314.774005 
L -2737.896313 314.150456 
L -2745.94439 314.52518 
L -2753.992467 314.324588 
L -2762.040544 313.405179 
L -2770.088621 314.163456 
L -2778.136698 314.308394 
L -2786.184775 313.457442 
L -2794.232852 313.214948 
L -2802.280929 313.650962 
L -2810.329005 312.729407 
L -2818.377082 311.072139 
L -2826.425159 312.86692 
L -2834.473236 313.545901 
L -2842.521313 313.875727 
L -2850.56939 311.63266 
L -2858.617467 311.714937 
L -2866.665544 310.569157 
L -2874.713621 309.680336 
L -2882.761698 311.443969 
L -2890.809775 310.670093 
L -2898.857852 309.083577 
L -2906.905929 307.972363 
L -2914.954005 308.031748 
L -2923.002082 308.212625 
L -2931.050159 307.970074 
L -2939.098236 307.82388 
L -2947.146313 308.443637 
L -2955.19439 308.360549 
L -2963.242467 307.943429 
L -2971.290544 308.185666 
L -2979.338621 308.007094 
L -2987.386698 307.934344 
L -2995.434775 307.943269 
L -3003.482852 308.183768 
L -3011.530929 308.324172 
L -3019.579005 308.403432 
L -3027.627082 308.61135 
L -3035.675159 308.705052 
L -3043.723236 308.871779 
L -3051.771313 309.139482 
L -3059.81939 309.348916 
L -3067.867467 309.490473 
L -3075.915544 309.649112 
L -3083.963621 309.859811 
L -3092.011698 309.991843 
L -3100.059775 310.194113 
L -3108.107852 310.438439 
L -3116.155929 310.583694 
L -3124.204005 310.680685 
L -3132.252082 310.831136 
L -3140.300159 310.986065 
L -3148.348236 311.128222 
L -3156.396313 311.264249 
L -3164.44439 311.395401 
L -3172.492467 311.575881 
L -3180.540544 311.668604 
L -3188.588621 311.798735 
L -3196.636698 311.934971 
L -3204.684775 312.05139 
L -3212.732852 312.166695 
L -3220.780929 312.262964 
L -3228.829005 312.367898 
L -3236.877082 312.507607 
L -3244.925159 312.605162 
L -3252.973236 312.719317 
L -3261.021313 312.810321 
L -3269.06939 312.911672 
L -3277.117467 313.015584 
L -3285.165544 313.12102 
L -3293.213621 313.209558 
L -3301.261698 313.314506 
L -3309.309775 313.406569 
L -3317.357852 313.505352 
L -3325.405929 313.597244 
L -3333.454005 313.692138 
L -3341.502082 313.779358 
L -3349.550159 313.871142 
L -3357.598236 313.97028 
L -3365.646313 314.045495 
L -3373.69439 314.139978 
L -3381.742467 314.221295 
L -3389.790544 314.315759 
L -3397.838621 314.384546 
L -3405.886698 314.472351 
L -3413.934775 314.556007 
L -3421.982852 314.635624 
L -3430.030929 314.716707 
L -3438.079005 314.791638 
L -3446.127082 314.87917 
L -3454.175159 314.957859 
L -3462.223236 315.022515 
L -3470.271313 315.099439 
L -3478.31939 315.176232 
L -3486.367467 315.252624 
L -3494.415544 315.326253 
L -3502.463621 315.39476 
L -3510.511698 315.470226 
L -3518.559775 315.544133 
L -3526.607852 315.618391 
L -3534.655929 315.692344 
L -3542.704005 315.76827 
L -3550.752082 315.847184 
L -3558.800159 315.914915 
L -3566.848236 315.992621 
L -3574.896313 316.068799 
L -3582.94439 316.14182 
L -3590.992467 316.217158 
L -3599.040544 316.294047 
L -3607.088621 316.368562 
L -3615.136698 316.446804 
L -3623.184775 316.517978 
L -3631.232852 316.590569 
L -3639.280929 316.667372 
L -3647.329005 316.741458 
L -3655.377082 316.811639 
L -3663.425159 316.886004 
L -3671.473236 316.953632 
L -3679.521313 317.026027 
L -3687.56939 317.10328 
L -3695.617467 317.169241 
L -3703.665544 317.243292 
L -3711.713621 317.313232 
L -3719.761698 317.386648 
L -3727.809775 317.452814 
L -3735.857852 317.530561 
L -3743.905929 317.594451 
L -3751.954005 317.666425 
L -3760.002082 317.736774 
L -3768.050159 317.808971 
L -3776.098236 317.877432 
L -3784.146313 317.947218 
L -3792.19439 318.017319 
L -3800.242467 318.089889 
L -3808.290544 318.156129 
L -3816.338621 318.217411 
L -3824.386698 318.280133 
L -3832.434775 318.343313 
L -3840.482852 318.404296 
L -3848.530929 318.466418 
L -3856.579005 318.527816 
L -3864.627082 318.586403 
L -3872.675159 318.645761 
L -3880.723236 318.704853 
L -3888.771313 318.758494 
L -3896.81939 318.813149 
L -3904.867467 318.870332 
L -3912.915544 318.924487 
L -3920.963621 318.972813 
L -3929.011698 319.026315 
L -3937.059775 319.075144 
L -3945.107852 319.120091 
L -3953.155929 319.165136 
L -3961.204005 319.207243 
L -3969.252082 319.252829 
L -3977.300159 319.290361 
L -3985.348236 319.330158 
L -3993.396313 319.367634 
L -4001.44439 319.40236 
L -4009.492467 319.433984 
L -4017.540544 319.462703 
L -4025.588621 319.491289 
L -4033.636698 319.519676 
L -4041.684775 319.54311 
L -4049.732852 319.569418 
L -4057.780929 319.591642 
L -4065.829005 319.610752 
L -4073.877082 319.6333 
L -4081.925159 319.652986 
L -4089.973236 319.669215 
L -4098.021313 319.686703 
L -4106.06939 319.703719 
L -4114.117467 319.718645 
L -4122.165544 319.733648 
L -4130.213621 319.745997 
L -4138.261698 319.76103 
L -4146.309775 319.772919 
L -4154.357852 319.785453 
L -4162.405929 319.798641 
L -4170.454005 319.809339 
L -4178.502082 319.82071 
L -4186.550159 319.835718 
L -4194.598236 319.846226 
L -4202.646313 319.859205 
L -4210.69439 319.869421 
L -4218.742467 319.883142 
L -4226.790544 319.893946 
L -4234.838621 319.905409 
L -4242.886698 319.915411 
L -4250.934775 319.924508 
L -4258.982852 319.934967 
L -4267.030929 319.946547 
L -4275.079005 319.957833 
L -4283.127082 319.967405 
L -4291.175159 319.974991 
L -4299.223236 319.986154 
L -4307.271313 319.995222 
L -4315.31939 320.006165 
z
" clip-path="url(#pbd442692a1)" style="fill: #008000; fill-opacity: 0.3; stroke: #008000; stroke-opacity: 0.3"/>
   </g>
   <g id="matplotlib.axis_1">
    <g id="xtick_1">
     <g id="line2d_1">
      <defs>
       <path id="m1c19fa0470" d="M 0 0 
L 0 3.5 
" style="stroke: #000000; stroke-width: 0.8"/>
      </defs>
      <g>
       <use xlink:href="#m1c19fa0470" x="103.074841" y="395.28" style="stroke: #000000; stroke-width: 0.8"/>
      </g>
     </g>
     <g id="text_1">
      <!-- 2023-01-01 -->
      <g transform="translate(17.945813 495.213718) rotate(-45) scale(0.2 -0.2)">
       <defs>
        <path id="DejaVuSans-32" d="M 1228 531 
L 3431 531 
L 3431 0 
L 469 0 
L 469 531 
Q 828 903 1448 1529 
Q 2069 2156 2228 2338 
Q 2531 2678 2651 2914 
Q 2772 3150 2772 3378 
Q 2772 3750 2511 3984 
Q 2250 4219 1831 4219 
Q 1534 4219 1204 4116 
Q 875 4013 500 3803 
L 500 4441 
Q 881 4594 1212 4672 
Q 1544 4750 1819 4750 
Q 2544 4750 2975 4387 
Q 3406 4025 3406 3419 
Q 3406 3131 3298 2873 
Q 3191 2616 2906 2266 
Q 2828 2175 2409 1742 
Q 1991 1309 1228 531 
z
" transform="scale(0.015625)"/>
        <path id="DejaVuSans-30" d="M 2034 4250 
Q 1547 4250 1301 3770 
Q 1056 3291 1056 2328 
Q 1056 1369 1301 889 
Q 1547 409 2034 409 
Q 2525 409 2770 889 
Q 3016 1369 3016 2328 
Q 3016 3291 2770 3770 
Q 2525 4250 2034 4250 
z
M 2034 4750 
Q 2819 4750 3233 4129 
Q 3647 3509 3647 2328 
Q 3647 1150 3233 529 
Q 2819 -91 2034 -91 
Q 1250 -91 836 529 
Q 422 1150 422 2328 
Q 422 3509 836 4129 
Q 1250 4750 2034 4750 
z
" transform="scale(0.015625)"/>
        <path id="DejaVuSans-33" d="M 2597 2516 
Q 3050 2419 3304 2112 
Q 3559 1806 3559 1356 
Q 3559 666 3084 287 
Q 2609 -91 1734 -91 
Q 1441 -91 1130 -33 
Q 819 25 488 141 
L 488 750 
Q 750 597 1062 519 
Q 1375 441 1716 441 
Q 2309 441 2620 675 
Q 2931 909 2931 1356 
Q 2931 1769 2642 2001 
Q 2353 2234 1838 2234 
L 1294 2234 
L 1294 2753 
L 1863 2753 
Q 2328 2753 2575 2939 
Q 2822 3125 2822 3475 
Q 2822 3834 2567 4026 
Q 2313 4219 1838 4219 
Q 1578 4219 1281 4162 
Q 984 4106 628 3988 
L 628 4550 
Q 988 4650 1302 4700 
Q 1616 4750 1894 4750 
Q 2613 4750 3031 4423 
Q 3450 4097 3450 3541 
Q 3450 3153 3228 2886 
Q 3006 2619 2597 2516 
z
" transform="scale(0.015625)"/>
        <path id="DejaVuSans-2d" d="M 313 2009 
L 1997 2009 
L 1997 1497 
L 313 1497 
L 313 2009 
z
" transform="scale(0.015625)"/>
        <path id="DejaVuSans-31" d="M 794 531 
L 1825 531 
L 1825 4091 
L 703 3866 
L 703 4441 
L 1819 4666 
L 2450 4666 
L 2450 531 
L 3481 531 
L 3481 0 
L 794 0 
L 794 531 
z
" transform="scale(0.015625)"/>
       </defs>
       <use xlink:href="#DejaVuSans-32"/>
       <use xlink:href="#DejaVuSans-30" x="63.623047"/>
       <use xlink:href="#DejaVuSans-32" x="127.246094"/>
       <use xlink:href="#DejaVuSans-33" x="190.869141"/>
       <use xlink:href="#DejaVuSans-2d" x="254.492188"/>
       <use xlink:href="#DejaVuSans-30" x="290.576172"/>
       <use xlink:href="#DejaVuSans-31" x="354.199219"/>
       <use xlink:href="#DejaVuSans-2d" x="417.822266"/>
       <use xlink:href="#DejaVuSans-30" x="453.90625"/>
       <use xlink:href="#DejaVuSans-31" x="517.529297"/>
      </g>
     </g>
    </g>
    <g id="xtick_2">
     <g id="line2d_2">
      <g>
       <use xlink:href="#m1c19fa0470" x="215.747918" y="395.28" style="stroke: #000000; stroke-width: 0.8"/>
      </g>
     </g>
     <g id="text_2">
      <!-- 2023-01-15 -->
      <g transform="translate(130.61889 495.213718) rotate(-45) scale(0.2 -0.2)">
       <defs>
        <path id="DejaVuSans-35" d="M 691 4666 
L 3169 4666 
L 3169 4134 
L 1269 4134 
L 1269 2991 
Q 1406 3038 1543 3061 
Q 1681 3084 1819 3084 
Q 2600 3084 3056 2656 
Q 3513 2228 3513 1497 
Q 3513 744 3044 326 
Q 2575 -91 1722 -91 
Q 1428 -91 1123 -41 
Q 819 9 494 109 
L 494 744 
Q 775 591 1075 516 
Q 1375 441 1709 441 
Q 2250 441 2565 725 
Q 2881 1009 2881 1497 
Q 2881 1984 2565 2268 
Q 2250 2553 1709 2553 
Q 1456 2553 1204 2497 
Q 953 2441 691 2322 
L 691 4666 
z
" transform="scale(0.015625)"/>
       </defs>
       <use xlink:href="#DejaVuSans-32"/>
       <use xlink:href="#DejaVuSans-30" x="63.623047"/>
       <use xlink:href="#DejaVuSans-32" x="127.246094"/>
       <use xlink:href="#DejaVuSans-33" x="190.869141"/>
       <use xlink:href="#DejaVuSans-2d" x="254.492188"/>
       <use xlink:href="#DejaVuSans-30" x="290.576172"/>
       <use xlink:href="#DejaVuSans-31" x="354.199219"/>
       <use xlink:href="#DejaVuSans-2d" x="417.822266"/>
       <use xlink:href="#DejaVuSans-31" x="453.90625"/>
       <use xlink:href="#DejaVuSans-35" x="517.529297"/>
      </g>
     </g>
    </g>
    <g id="xtick_3">
     <g id="line2d_3">
      <g>
       <use xlink:href="#m1c19fa0470" x="328.420995" y="395.28" style="stroke: #000000; stroke-width: 0.8"/>
      </g>
     </g>
     <g id="text_3">
      <!-- 2023-01-29 -->
      <g transform="translate(243.291967 495.213718) rotate(-45) scale(0.2 -0.2)">
       <defs>
        <path id="DejaVuSans-39" d="M 703 97 
L 703 672 
Q 941 559 1184 500 
Q 1428 441 1663 441 
Q 2288 441 2617 861 
Q 2947 1281 2994 2138 
Q 2813 1869 2534 1725 
Q 2256 1581 1919 1581 
Q 1219 1581 811 2004 
Q 403 2428 403 3163 
Q 403 3881 828 4315 
Q 1253 4750 1959 4750 
Q 2769 4750 3195 4129 
Q 3622 3509 3622 2328 
Q 3622 1225 3098 567 
Q 2575 -91 1691 -91 
Q 1453 -91 1209 -44 
Q 966 3 703 97 
z
M 1959 2075 
Q 2384 2075 2632 2365 
Q 2881 2656 2881 3163 
Q 2881 3666 2632 3958 
Q 2384 4250 1959 4250 
Q 1534 4250 1286 3958 
Q 1038 3666 1038 3163 
Q 1038 2656 1286 2365 
Q 1534 2075 1959 2075 
z
" transform="scale(0.015625)"/>
       </defs>
       <use xlink:href="#DejaVuSans-32"/>
       <use xlink:href="#DejaVuSans-30" x="63.623047"/>
       <use xlink:href="#DejaVuSans-32" x="127.246094"/>
       <use xlink:href="#DejaVuSans-33" x="190.869141"/>
       <use xlink:href="#DejaVuSans-2d" x="254.492188"/>
       <use xlink:href="#DejaVuSans-30" x="290.576172"/>
       <use xlink:href="#DejaVuSans-31" x="354.199219"/>
       <use xlink:href="#DejaVuSans-2d" x="417.822266"/>
       <use xlink:href="#DejaVuSans-32" x="453.90625"/>
       <use xlink:href="#DejaVuSans-39" x="517.529297"/>
      </g>
     </g>
    </g>
    <g id="xtick_4">
     <g id="line2d_4">
      <g>
       <use xlink:href="#m1c19fa0470" x="441.094071" y="395.28" style="stroke: #000000; stroke-width: 0.8"/>
      </g>
     </g>
     <g id="text_4">
      <!-- 2023-02-12 -->
      <g transform="translate(355.965044 495.213718) rotate(-45) scale(0.2 -0.2)">
       <use xlink:href="#DejaVuSans-32"/>
       <use xlink:href="#DejaVuSans-30" x="63.623047"/>
       <use xlink:href="#DejaVuSans-32" x="127.246094"/>
       <use xlink:href="#DejaVuSans-33" x="190.869141"/>
       <use xlink:href="#DejaVuSans-2d" x="254.492188"/>
       <use xlink:href="#DejaVuSans-30" x="290.576172"/>
       <use xlink:href="#DejaVuSans-32" x="354.199219"/>
       <use xlink:href="#DejaVuSans-2d" x="417.822266"/>
       <use xlink:href="#DejaVuSans-31" x="453.90625"/>
       <use xlink:href="#DejaVuSans-32" x="517.529297"/>
      </g>
     </g>
    </g>
    <g id="xtick_5">
     <g id="line2d_5">
      <g>
       <use xlink:href="#m1c19fa0470" x="553.767148" y="395.28" style="stroke: #000000; stroke-width: 0.8"/>
      </g>
     </g>
     <g id="text_5">
      <!-- 2023-02-26 -->
      <g transform="translate(468.638121 495.213718) rotate(-45) scale(0.2 -0.2)">
       <defs>
        <path id="DejaVuSans-36" d="M 2113 2584 
Q 1688 2584 1439 2293 
Q 1191 2003 1191 1497 
Q 1191 994 1439 701 
Q 1688 409 2113 409 
Q 2538 409 2786 701 
Q 3034 994 3034 1497 
Q 3034 2003 2786 2293 
Q 2538 2584 2113 2584 
z
M 3366 4563 
L 3366 3988 
Q 3128 4100 2886 4159 
Q 2644 4219 2406 4219 
Q 1781 4219 1451 3797 
Q 1122 3375 1075 2522 
Q 1259 2794 1537 2939 
Q 1816 3084 2150 3084 
Q 2853 3084 3261 2657 
Q 3669 2231 3669 1497 
Q 3669 778 3244 343 
Q 2819 -91 2113 -91 
Q 1303 -91 875 529 
Q 447 1150 447 2328 
Q 447 3434 972 4092 
Q 1497 4750 2381 4750 
Q 2619 4750 2861 4703 
Q 3103 4656 3366 4563 
z
" transform="scale(0.015625)"/>
       </defs>
       <use xlink:href="#DejaVuSans-32"/>
       <use xlink:href="#DejaVuSans-30" x="63.623047"/>
       <use xlink:href="#DejaVuSans-32" x="127.246094"/>
       <use xlink:href="#DejaVuSans-33" x="190.869141"/>
       <use xlink:href="#DejaVuSans-2d" x="254.492188"/>
       <use xlink:href="#DejaVuSans-30" x="290.576172"/>
       <use xlink:href="#DejaVuSans-32" x="354.199219"/>
       <use xlink:href="#DejaVuSans-2d" x="417.822266"/>
       <use xlink:href="#DejaVuSans-32" x="453.90625"/>
       <use xlink:href="#DejaVuSans-36" x="517.529297"/>
      </g>
     </g>
    </g>
    <g id="xtick_6">
     <g id="line2d_6">
      <g>
       <use xlink:href="#m1c19fa0470" x="666.440225" y="395.28" style="stroke: #000000; stroke-width: 0.8"/>
      </g>
     </g>
     <g id="text_6">
      <!-- 2023-03-12 -->
      <g transform="translate(581.311198 495.213718) rotate(-45) scale(0.2 -0.2)">
       <use xlink:href="#DejaVuSans-32"/>
       <use xlink:href="#DejaVuSans-30" x="63.623047"/>
       <use xlink:href="#DejaVuSans-32" x="127.246094"/>
       <use xlink:href="#DejaVuSans-33" x="190.869141"/>
       <use xlink:href="#DejaVuSans-2d" x="254.492188"/>
       <use xlink:href="#DejaVuSans-30" x="290.576172"/>
       <use xlink:href="#DejaVuSans-33" x="354.199219"/>
       <use xlink:href="#DejaVuSans-2d" x="417.822266"/>
       <use xlink:href="#DejaVuSans-31" x="453.90625"/>
       <use xlink:href="#DejaVuSans-32" x="517.529297"/>
      </g>
     </g>
    </g>
    <g id="xtick_7">
     <g id="line2d_7">
      <g>
       <use xlink:href="#m1c19fa0470" x="779.113302" y="395.28" style="stroke: #000000; stroke-width: 0.8"/>
      </g>
     </g>
     <g id="text_7">
      <!-- 2023-03-26 -->
      <g transform="translate(693.984275 495.213718) rotate(-45) scale(0.2 -0.2)">
       <use xlink:href="#DejaVuSans-32"/>
       <use xlink:href="#DejaVuSans-30" x="63.623047"/>
       <use xlink:href="#DejaVuSans-32" x="127.246094"/>
       <use xlink:href="#DejaVuSans-33" x="190.869141"/>
       <use xlink:href="#DejaVuSans-2d" x="254.492188"/>
       <use xlink:href="#DejaVuSans-30" x="290.576172"/>
       <use xlink:href="#DejaVuSans-33" x="354.199219"/>
       <use xlink:href="#DejaVuSans-2d" x="417.822266"/>
       <use xlink:href="#DejaVuSans-32" x="453.90625"/>
       <use xlink:href="#DejaVuSans-36" x="517.529297"/>
      </g>
     </g>
    </g>
    <g id="xtick_8">
     <g id="line2d_8">
      <g>
       <use xlink:href="#m1c19fa0470" x="891.786379" y="395.28" style="stroke: #000000; stroke-width: 0.8"/>
      </g>
     </g>
     <g id="text_8">
      <!-- 2023-04-09 -->
      <g transform="translate(806.657352 495.213718) rotate(-45) scale(0.2 -0.2)">
       <defs>
        <path id="DejaVuSans-34" d="M 2419 4116 
L 825 1625 
L 2419 1625 
L 2419 4116 
z
M 2253 4666 
L 3047 4666 
L 3047 1625 
L 3713 1625 
L 3713 1100 
L 3047 1100 
L 3047 0 
L 2419 0 
L 2419 1100 
L 313 1100 
L 313 1709 
L 2253 4666 
z
" transform="scale(0.015625)"/>
       </defs>
       <use xlink:href="#DejaVuSans-32"/>
       <use xlink:href="#DejaVuSans-30" x="63.623047"/>
       <use xlink:href="#DejaVuSans-32" x="127.246094"/>
       <use xlink:href="#DejaVuSans-33" x="190.869141"/>
       <use xlink:href="#DejaVuSans-2d" x="254.492188"/>
       <use xlink:href="#DejaVuSans-30" x="290.576172"/>
       <use xlink:href="#DejaVuSans-34" x="354.199219"/>
       <use xlink:href="#DejaVuSans-2d" x="417.822266"/>
       <use xlink:href="#DejaVuSans-30" x="453.90625"/>
       <use xlink:href="#DejaVuSans-39" x="517.529297"/>
      </g>
     </g>
    </g>
    <g id="xtick_9">
     <g id="line2d_9">
      <g>
       <use xlink:href="#m1c19fa0470" x="940.074841" y="395.28" style="stroke: #000000; stroke-width: 0.8"/>
      </g>
     </g>
     <g id="text_9">
      <!-- 2023-04-15 -->
      <g transform="translate(854.945813 495.213718) rotate(-45) scale(0.2 -0.2)">
       <use xlink:href="#DejaVuSans-32"/>
       <use xlink:href="#DejaVuSans-30" x="63.623047"/>
       <use xlink:href="#DejaVuSans-32" x="127.246094"/>
       <use xlink:href="#DejaVuSans-33" x="190.869141"/>
       <use xlink:href="#DejaVuSans-2d" x="254.492188"/>
       <use xlink:href="#DejaVuSans-30" x="290.576172"/>
       <use xlink:href="#DejaVuSans-34" x="354.199219"/>
       <use xlink:href="#DejaVuSans-2d" x="417.822266"/>
       <use xlink:href="#DejaVuSans-31" x="453.90625"/>
       <use xlink:href="#DejaVuSans-35" x="517.529297"/>
      </g>
     </g>
    </g>
   </g>
   <g id="matplotlib.axis_2">
    <g id="ytick_1">
     <g id="line2d_10">
      <defs>
       <path id="m75b2f4145c" d="M 0 0 
L -3.5 0 
" style="stroke: #000000; stroke-width: 0.8"/>
      </defs>
      <g>
       <use xlink:href="#m75b2f4145c" x="103.074841" y="320.016656" style="stroke: #000000; stroke-width: 0.8"/>
      </g>
     </g>
     <g id="text_10">
      <!-- 0.0 -->
      <g transform="translate(64.268591 327.615093) scale(0.2 -0.2)">
       <defs>
        <path id="DejaVuSans-2e" d="M 684 794 
L 1344 794 
L 1344 0 
L 684 0 
L 684 794 
z
" transform="scale(0.015625)"/>
       </defs>
       <use xlink:href="#DejaVuSans-30"/>
       <use xlink:href="#DejaVuSans-2e" x="63.623047"/>
       <use xlink:href="#DejaVuSans-30" x="95.410156"/>
      </g>
     </g>
    </g>
    <g id="ytick_2">
     <g id="line2d_11">
      <g>
       <use xlink:href="#m75b2f4145c" x="103.074841" y="238.829125" style="stroke: #000000; stroke-width: 0.8"/>
      </g>
     </g>
     <g id="text_11">
      <!-- 0.5 -->
      <g transform="translate(64.268591 246.427563) scale(0.2 -0.2)">
       <use xlink:href="#DejaVuSans-30"/>
       <use xlink:href="#DejaVuSans-2e" x="63.623047"/>
       <use xlink:href="#DejaVuSans-35" x="95.410156"/>
      </g>
     </g>
    </g>
    <g id="ytick_3">
     <g id="line2d_12">
      <g>
       <use xlink:href="#m75b2f4145c" x="103.074841" y="157.641595" style="stroke: #000000; stroke-width: 0.8"/>
      </g>
     </g>
     <g id="text_12">
      <!-- 1.0 -->
      <g transform="translate(64.268591 165.240033) scale(0.2 -0.2)">
       <use xlink:href="#DejaVuSans-31"/>
       <use xlink:href="#DejaVuSans-2e" x="63.623047"/>
       <use xlink:href="#DejaVuSans-30" x="95.410156"/>
      </g>
     </g>
    </g>
    <g id="ytick_4">
     <g id="line2d_13">
      <g>
       <use xlink:href="#m75b2f4145c" x="103.074841" y="76.454065" style="stroke: #000000; stroke-width: 0.8"/>
      </g>
     </g>
     <g id="text_13">
      <!-- 1.5 -->
      <g transform="translate(64.268591 84.052503) scale(0.2 -0.2)">
       <use xlink:href="#DejaVuSans-31"/>
       <use xlink:href="#DejaVuSans-2e" x="63.623047"/>
       <use xlink:href="#DejaVuSans-35" x="95.410156"/>
      </g>
     </g>
    </g>
   </g>
   <g id="line2d_14">
    <path d="M -1 314.647892 
L 6.497918 314.78626 
L 14.545995 314.326437 
L 22.594071 319.17594 
L 30.642148 305.052916 
L 38.690225 311.878548 
L 46.738302 295.899299 
L 54.786379 314.785054 
L 62.834456 314.179128 
L 70.882533 316.040021 
L 78.93061 324.884853 
L 86.978687 318.632494 
L 95.026764 315.711071 
L 103.074841 316.073251 
L 111.122918 319.27391 
L 119.170995 317.603934 
L 127.219071 303.0367 
L 135.267148 309.576442 
L 143.315225 296.889847 
L 151.363302 319.710233 
L 159.411379 316.705795 
L 167.459456 324.11041 
L 175.507533 311.442557 
L 183.55561 315.074629 
L 191.603687 305.556916 
L 199.651764 307.162663 
L 207.699841 312.999189 
L 215.747918 312.447107 
L 223.795995 304.210151 
L 231.844071 309.643039 
L 239.892148 311.876612 
L 247.940225 316.50853 
L 255.988302 322.304745 
L 264.036379 321.134775 
L 272.084456 315.412444 
L 280.132533 310.244836 
L 288.18061 313.525791 
L 296.228687 317.76707 
L 304.276764 311.405609 
L 312.324841 322.660663 
L 320.372918 320.748173 
L 328.420995 315.075414 
L 336.469071 316.1233 
L 344.517148 321.418376 
L 352.565225 314.968384 
L 360.613302 316.258781 
L 368.661379 316.192419 
L 376.709456 308.655007 
L 384.757533 315.187717 
L 392.80561 317.470152 
L 400.853687 321.086701 
L 408.901764 318.480427 
L 416.949841 314.82779 
L 424.997918 323.186361 
L 433.045995 315.046213 
L 441.094071 315.218901 
L 449.142148 316.755677 
L 457.190225 317.668937 
L 465.238302 317.587242 
L 473.286379 323.133937 
L 481.334456 320.173099 
L 489.382533 315.441215 
L 497.43061 321.519222 
L 505.478687 319.471711 
L 513.526764 319.211936 
L 521.574841 321.175349 
L 529.622918 319.21706 
L 537.670995 320.0183 
L 545.719071 317.294338 
L 553.767148 320.734963 
L 561.815225 323.273571 
L 569.863302 323.758203 
L 577.911379 324.546399 
L 585.959456 321.740636 
L 594.007533 318.515406 
L 602.05561 319.682286 
L 610.103687 326.244866 
L 618.151764 323.731014 
L 626.199841 326.426024 
L 634.247918 323.725563 
L 642.295995 317.978736 
L 650.344071 322.601955 
L 658.392148 322.795641 
L 666.440225 324.593478 
L 674.488302 323.176416 
L 682.536379 317.542316 
L 690.584456 323.105684 
L 698.632533 321.556408 
L 706.68061 320.195418 
L 714.728687 323.367301 
L 722.776764 327.916539 
L 730.824841 327.182217 
L 738.872918 323.975148 
L 746.920995 322.5003 
L 754.969071 324.931821 
L 763.017148 323.453322 
L 771.065225 326.701998 
L 779.113302 326.866953 
L 787.161379 327.535238 
L 795.209456 326.494433 
L 803.257533 327.31884 
L 811.30561 317.101299 
L 819.353687 325.322562 
L 827.401764 327.289726 
L 835.449841 326.739283 
L 843.497918 319.016132 
L 851.545995 322.224888 
L 859.594071 326.931321 
L 867.642148 305.874994 
L 875.690225 315.493369 
L 883.738302 329.157641 
L 891.786379 323.233164 
L 899.834456 326.10331 
L 907.882533 318.697202 
L 915.93061 329.256005 
L 923.978687 310.993375 
L 932.026764 336.879498 
L 940.074841 320.016656 
L 940.074841 320.016656 
" clip-path="url(#pbd442692a1)" style="fill: none; stroke: #ffa500; stroke-width: 1.5; stroke-linecap: square"/>
   </g>
   <g id="line2d_15">
    <path d="M 103.074841 320.016656 
L 948.274841 320.016656 
" clip-path="url(#pbd442692a1)" style="fill: none; stroke-dasharray: 7.4,3.2; stroke-dashoffset: 0; stroke: #000000; stroke-width: 2"/>
   </g>
   <g id="patch_3">
    <path d="M 103.074841 395.28 
L 103.074841 7.2 
" style="fill: none; stroke: #000000; stroke-width: 0.8; stroke-linejoin: miter; stroke-linecap: square"/>
   </g>
   <g id="patch_4">
    <path d="M 940.074841 395.28 
L 940.074841 7.2 
" style="fill: none; stroke: #000000; stroke-width: 0.8; stroke-linejoin: miter; stroke-linecap: square"/>
   </g>
   <g id="patch_5">
    <path d="M 103.074841 395.28 
L 940.074841 395.28 
" style="fill: none; stroke: #000000; stroke-width: 0.8; stroke-linejoin: miter; stroke-linecap: square"/>
   </g>
   <g id="patch_6">
    <path d="M 103.074841 7.2 
L 940.074841 7.2 
" style="fill: none; stroke: #000000; stroke-width: 0.8; stroke-linejoin: miter; stroke-linecap: square"/>
   </g>
  </g>
 </g>
 <defs>
  <clipPath id="pbd442692a1">
   <rect x="103.074841" y="7.2" width="837" height="388.08"/>
  </clipPath>
 </defs>
</svg>
