<?xml version="1.0" encoding="utf-8" standalone="no"?>
<!DOCTYPE svg PUBLIC "-//W3C//DTD SVG 1.1//EN"
  "http://www.w3.org/Graphics/SVG/1.1/DTD/svg11.dtd">
<svg xmlns:xlink="http://www.w3.org/1999/xlink" width="947.274841pt" height="505.354841pt" viewBox="0 0 947.274841 505.354841" xmlns="http://www.w3.org/2000/svg" version="1.1">
 <metadata>
  <rdf:RDF xmlns:dc="http://purl.org/dc/elements/1.1/" xmlns:cc="http://creativecommons.org/ns#" xmlns:rdf="http://www.w3.org/1999/02/22-rdf-syntax-ns#">
   <cc:Work>
    <dc:type rdf:resource="http://purl.org/dc/dcmitype/StillImage"/>
    <dc:date>2023-11-15T19:57:20.118446</dc:date>
    <dc:format>image/svg+xml</dc:format>
    <dc:creator>
     <cc:Agent>
      <dc:title>Matplotlib v3.7.2, https://matplotlib.org/</dc:title>
     </cc:Agent>
    </dc:creator>
   </cc:Work>
  </rdf:RDF>
 </metadata>
 <defs>
  <style type="text/css">*{stroke-linejoin: round; stroke-linecap: butt}</style>
 </defs>
 <g id="figure_1">
  <g id="patch_1">
   <path d="M 0 505.354841 
L 947.274841 505.354841 
L 947.274841 -0 
L 0 -0 
z
" style="fill: #ffffff"/>
  </g>
  <g id="axes_1">
   <g id="patch_2">
    <path d="M 103.074841 395.28 
L 940.074841 395.28 
L 940.074841 7.2 
L 103.074841 7.2 
z
" style="fill: #ffffff"/>
   </g>
   <g id="PolyCollection_1">
    <path d="M -393.000769 215.194242 
L -393.000769 215.210377 
L -390.959306 215.12794 
L -388.917842 215.056575 
L -386.876379 214.966008 
L -384.834915 214.905674 
L -382.793452 214.833637 
L -380.751989 214.755302 
L -378.710525 214.677789 
L -376.669062 214.605029 
L -374.627598 214.541145 
L -372.586135 214.46727 
L -370.544672 214.389959 
L -368.503208 214.314899 
L -366.461745 214.222852 
L -364.420281 214.146548 
L -362.378818 214.056801 
L -360.337354 213.980043 
L -358.295891 213.876498 
L -356.254428 213.791379 
L -354.212964 213.709395 
L -352.171501 213.612448 
L -350.130037 213.517954 
L -348.088574 213.425584 
L -346.047111 213.314167 
L -344.005647 213.216696 
L -341.964184 213.102635 
L -339.92272 212.98718 
L -337.881257 212.859506 
L -335.839793 212.728369 
L -333.79833 212.600131 
L -331.756867 212.451817 
L -329.715403 212.284494 
L -327.67394 212.135725 
L -325.632476 211.966458 
L -323.591013 211.77302 
L -321.54955 211.593109 
L -319.508086 211.382028 
L -317.466623 211.167885 
L -315.425159 210.94728 
L -313.383696 210.714219 
L -311.342232 210.455773 
L -309.300769 210.180561 
L -307.259306 209.888956 
L -305.217842 209.608225 
L -303.176379 209.278105 
L -301.134915 208.964618 
L -299.093452 208.630553 
L -297.051989 208.295446 
L -295.010525 207.934484 
L -292.969062 207.543758 
L -290.927598 207.182447 
L -288.886135 206.779742 
L -286.844672 206.363208 
L -284.803208 205.955337 
L -282.761745 205.551989 
L -280.720281 205.114006 
L -278.678818 204.671415 
L -276.637354 204.229664 
L -274.595891 203.769915 
L -272.554428 203.305136 
L -270.512964 202.841464 
L -268.471501 202.361719 
L -266.430037 201.880876 
L -264.388574 201.407594 
L -262.347111 200.914574 
L -260.305647 200.386716 
L -258.264184 199.875481 
L -256.22272 199.365554 
L -254.181257 198.863762 
L -252.139793 198.340996 
L -250.09833 197.830478 
L -248.056867 197.311076 
L -246.015403 196.842802 
L -243.97394 196.290285 
L -241.932476 195.811885 
L -239.891013 195.287148 
L -237.84955 194.78752 
L -235.808086 194.265048 
L -233.766623 193.802027 
L -231.725159 193.269596 
L -229.683696 192.76934 
L -227.642232 192.299178 
L -225.600769 191.795265 
L -223.559306 191.318251 
L -221.517842 190.818867 
L -219.476379 190.309719 
L -217.434915 189.828052 
L -215.393452 189.356214 
L -213.351989 188.847469 
L -211.310525 188.358349 
L -209.269062 187.862602 
L -207.227598 187.378232 
L -205.186135 186.905224 
L -203.144672 186.418925 
L -201.103208 185.927719 
L -199.061745 185.485398 
L -197.020281 184.984112 
L -194.978818 184.503691 
L -192.937354 184.030965 
L -190.895891 183.557542 
L -188.854428 183.085217 
L -186.812964 182.606644 
L -184.771501 182.149972 
L -182.730037 181.674785 
L -180.688574 181.187708 
L -178.647111 180.695104 
L -176.605647 180.197091 
L -174.564184 179.730422 
L -172.52272 179.217164 
L -170.481257 178.670198 
L -168.439793 178.156141 
L -166.39833 177.614194 
L -164.356867 177.064013 
L -162.315403 176.483352 
L -160.27394 175.892353 
L -158.232476 175.342726 
L -156.191013 174.716425 
L -154.14955 174.120781 
L -152.108086 173.480157 
L -150.066623 172.891461 
L -148.025159 172.20043 
L -145.983696 171.523176 
L -143.942232 170.864574 
L -141.900769 170.19444 
L -139.859306 169.503684 
L -137.817842 168.782051 
L -135.776379 168.105418 
L -133.734915 167.331456 
L -131.693452 166.650061 
L -129.651989 165.853434 
L -127.610525 165.08125 
L -125.569062 164.327099 
L -123.527598 163.603289 
L -121.486135 162.759651 
L -119.444672 161.996944 
L -117.403208 161.028895 
L -115.361745 160.194983 
L -113.320281 159.417413 
L -111.278818 158.540225 
L -109.237354 157.640482 
L -107.195891 156.605255 
L -105.154428 155.634632 
L -103.112964 154.823235 
L -101.071501 153.543293 
L -99.030037 152.513484 
L -96.988574 151.461039 
L -94.947111 150.369602 
L -92.905647 149.128127 
L -90.864184 147.959786 
L -88.82272 147.074541 
L -86.781257 145.949132 
L -84.739793 144.110239 
L -82.69833 142.561449 
L -80.656867 141.412799 
L -78.615403 139.828046 
L -76.57394 138.51009 
L -74.532476 137.359798 
L -72.491013 135.622838 
L -70.44955 133.649241 
L -68.408086 132.292593 
L -66.366623 131.416655 
L -64.325159 129.990348 
L -62.283696 129.54128 
L -60.242232 128.675561 
L -58.200769 127.012889 
L -56.159306 127.141411 
L -54.117842 127.816408 
L -52.076379 129.248123 
L -50.034915 127.629187 
L -47.993452 130.819031 
L -45.951989 131.519659 
L -43.910525 127.203282 
L -41.869062 128.411609 
L -39.827598 130.305649 
L -37.786135 129.166348 
L -35.744672 128.921108 
L -33.703208 137.087127 
L -31.661745 148.694244 
L -29.620281 154.453511 
L -27.578818 141.79864 
L -25.537354 148.256034 
L -23.495891 156.71967 
L -21.454428 156.185801 
L -19.412964 173.4379 
L -17.371501 171.024535 
L -15.330037 165.681339 
L -13.288574 152.520498 
L -11.247111 164.802371 
L -9.205647 172.165673 
L -7.164184 169.015503 
L -5.12272 170.897415 
L -3.081257 177.83945 
L -1.039793 176.847605 
L 1.00167 170.759027 
L 3.043133 178.279646 
L 5.084597 179.720572 
L 7.12606 176.950253 
L 9.167524 181.698351 
L 11.208987 183.39126 
L 13.25045 182.852627 
L 15.291914 181.327564 
L 17.333377 182.843063 
L 19.374841 181.162071 
L 21.416304 181.235356 
L 23.457768 182.677115 
L 25.499231 181.198776 
L 27.540694 181.878365 
L 29.582158 181.865304 
L 31.623621 180.663012 
L 33.665085 181.033353 
L 35.706548 179.328928 
L 37.748011 179.392349 
L 39.789475 179.810684 
L 41.830938 179.801284 
L 43.872402 178.962882 
L 45.913865 178.243089 
L 47.955328 178.048195 
L 49.996792 177.267089 
L 52.038255 177.132023 
L 54.079719 176.980815 
L 56.121182 175.820447 
L 58.162646 176.374193 
L 60.204109 175.628019 
L 62.245572 175.325233 
L 64.287036 175.384692 
L 66.328499 174.681988 
L 68.369963 174.550286 
L 70.411426 174.874777 
L 72.452889 175.378228 
L 74.494353 174.252595 
L 76.535816 174.150177 
L 78.57728 173.85992 
L 80.618743 176.112483 
L 82.660207 176.326742 
L 84.70167 177.332384 
L 86.743133 175.506554 
L 88.784597 174.448506 
L 90.82606 175.034643 
L 92.867524 176.645233 
L 94.908987 177.120837 
L 96.95045 174.917069 
L 98.991914 177.23788 
L 101.033377 176.999959 
L 103.074841 176.950849 
L 105.116304 176.119429 
L 107.157768 177.350292 
L 109.199231 177.133368 
L 111.240694 178.001506 
L 113.282158 177.638569 
L 115.323621 177.439521 
L 117.365085 176.784342 
L 119.406548 176.681376 
L 121.448011 176.633606 
L 123.489475 176.42947 
L 125.530938 176.734547 
L 127.572402 176.619372 
L 129.613865 176.48025 
L 131.655328 175.332913 
L 133.696792 174.57725 
L 135.738255 174.513861 
L 137.779719 173.658102 
L 139.821182 173.9097 
L 141.862646 173.268566 
L 143.904109 172.073347 
L 145.945572 171.168039 
L 147.987036 170.628513 
L 150.028499 169.380506 
L 152.069963 168.848761 
L 154.111426 167.822951 
L 156.152889 166.990514 
L 158.194353 165.804493 
L 160.235816 164.928327 
L 162.27728 163.541401 
L 164.318743 162.578715 
L 166.360207 161.494733 
L 168.40167 159.85757 
L 170.443133 158.380642 
L 172.484597 157.472715 
L 174.52606 156.271934 
L 176.567524 154.781554 
L 178.608987 153.745229 
L 180.65045 152.344531 
L 182.691914 150.049117 
L 184.733377 149.440651 
L 186.774841 147.600197 
L 188.816304 146.305143 
L 190.857768 144.867709 
L 192.899231 143.263833 
L 194.940694 141.612401 
L 196.982158 140.180349 
L 199.023621 137.998826 
L 201.065085 136.938432 
L 203.106548 134.839999 
L 205.148011 133.761927 
L 207.189475 131.705848 
L 209.230938 129.806811 
L 211.272402 128.162496 
L 213.313865 127.027231 
L 215.355328 124.634854 
L 217.396792 123.288098 
L 219.438255 121.255641 
L 221.479719 119.753675 
L 223.521182 117.567945 
L 225.562646 115.896007 
L 227.604109 116.452637 
L 229.645572 112.349115 
L 231.687036 112.435574 
L 233.728499 110.275809 
L 235.769963 109.045663 
L 237.811426 107.438225 
L 239.852889 105.661963 
L 241.894353 104.123934 
L 243.935816 102.654397 
L 245.97728 101.305054 
L 248.018743 99.93095 
L 250.060207 102.246832 
L 252.10167 96.749194 
L 254.143133 95.873114 
L 256.184597 101.562814 
L 258.22606 94.732467 
L 260.267524 96.55017 
L 262.308987 96.280536 
L 264.35045 92.932901 
L 266.391914 94.09809 
L 268.433377 98.287193 
L 270.474841 95.962024 
L 272.516304 95.1843 
L 274.557768 97.953759 
L 276.599231 97.557299 
L 278.640694 99.511115 
L 280.682158 102.108365 
L 282.723621 105.842598 
L 284.765085 114.688963 
L 286.806548 112.973298 
L 288.848011 117.752386 
L 290.889475 121.646921 
L 292.930938 123.951365 
L 294.972402 128.829394 
L 297.013865 131.879265 
L 299.055328 126.445581 
L 301.096792 131.87495 
L 303.138255 139.409377 
L 305.179719 142.987929 
L 307.221182 144.002258 
L 309.262646 153.725302 
L 311.304109 154.324259 
L 313.345572 156.375907 
L 315.387036 155.90385 
L 317.428499 164.104925 
L 319.469963 161.179659 
L 321.511426 159.587193 
L 323.552889 166.613906 
L 325.594353 173.051191 
L 327.635816 171.288191 
L 329.67728 174.357388 
L 331.718743 175.025636 
L 333.760207 175.057485 
L 335.80167 174.848579 
L 337.843133 176.825318 
L 339.884597 177.857306 
L 341.92606 184.45691 
L 343.967524 180.799795 
L 346.008987 186.539572 
L 348.05045 185.045732 
L 350.091914 184.096551 
L 352.133377 186.355477 
L 354.174841 188.360891 
L 356.216304 185.542856 
L 358.257768 186.775105 
L 360.299231 186.777932 
L 362.340694 189.923781 
L 364.382158 188.282127 
L 366.423621 187.500299 
L 368.465085 188.403647 
L 370.506548 189.9399 
L 372.548011 189.193784 
L 374.589475 187.684733 
L 376.630938 188.597023 
L 378.672402 186.330151 
L 380.713865 186.656286 
L 382.755328 190.593477 
L 384.796792 190.489675 
L 386.838255 188.469195 
L 388.879719 188.085661 
L 390.921182 188.50121 
L 392.962646 186.349489 
L 395.004109 187.105044 
L 397.045572 187.309267 
L 399.087036 187.035294 
L 401.128499 186.642497 
L 403.169963 185.443339 
L 405.211426 186.544901 
L 407.252889 185.841851 
L 409.294353 185.904873 
L 411.335816 185.667638 
L 413.37728 186.00008 
L 415.418743 185.173024 
L 417.460207 183.457523 
L 419.50167 183.639117 
L 421.543133 182.281189 
L 423.584597 180.202603 
L 425.62606 182.167159 
L 427.667524 179.316671 
L 429.708987 180.893243 
L 431.75045 180.606079 
L 433.791914 181.241563 
L 435.833377 179.470141 
L 437.874841 179.593844 
L 439.916304 179.720114 
L 441.957768 177.152897 
L 443.999231 178.435453 
L 446.040694 178.523331 
L 448.082158 178.852239 
L 450.123621 178.002138 
L 452.165085 178.799713 
L 454.206548 177.970381 
L 456.248011 177.462075 
L 458.289475 175.6004 
L 460.330938 175.204764 
L 462.372402 175.01264 
L 464.413865 174.661924 
L 466.455328 175.044579 
L 468.496792 174.818818 
L 470.538255 173.835318 
L 472.579719 174.221992 
L 474.621182 173.473775 
L 476.662646 174.040387 
L 478.704109 173.979045 
L 480.745572 174.607107 
L 482.787036 173.477443 
L 484.828499 170.674242 
L 486.869963 173.824023 
L 488.911426 173.938285 
L 490.952889 173.591224 
L 492.994353 173.282435 
L 495.035816 172.108246 
L 497.07728 172.162868 
L 499.118743 171.357198 
L 501.160207 171.685431 
L 503.20167 171.484698 
L 505.243133 170.122001 
L 507.284597 168.697974 
L 509.32606 171.168529 
L 511.367524 170.774982 
L 513.408987 169.025275 
L 515.45045 170.069974 
L 517.491914 167.530375 
L 519.533377 167.180431 
L 521.574841 167.90579 
L 523.616304 165.986905 
L 525.657768 169.514471 
L 527.699231 166.346203 
L 529.740694 164.344782 
L 531.782158 166.18952 
L 533.823621 167.046294 
L 535.865085 166.474663 
L 537.906548 167.663965 
L 539.948011 166.022199 
L 541.989475 168.927303 
L 544.030938 167.0106 
L 546.072402 167.574135 
L 548.113865 166.264798 
L 550.155328 164.537214 
L 552.196792 167.028385 
L 554.238255 171.343145 
L 556.279719 166.421165 
L 558.321182 167.116494 
L 560.362646 165.165328 
L 562.404109 166.79876 
L 564.445572 165.848726 
L 566.487036 165.011078 
L 568.528499 164.472708 
L 570.569963 166.853881 
L 572.611426 165.964693 
L 574.652889 167.750387 
L 576.694353 168.005735 
L 578.735816 162.449624 
L 580.77728 165.159301 
L 582.818743 164.595695 
L 584.860207 165.528538 
L 586.90167 165.671404 
L 588.943133 169.256903 
L 590.984597 170.82318 
L 593.02606 170.592124 
L 595.067524 175.7156 
L 597.108987 183.615202 
L 599.15045 173.213728 
L 601.191914 173.995456 
L 603.233377 172.950278 
L 605.274841 175.508114 
L 607.316304 176.391606 
L 609.357768 176.458946 
L 611.399231 186.047531 
L 613.440694 185.654786 
L 615.482158 177.671305 
L 617.523621 185.339704 
L 619.565085 183.389944 
L 621.606548 179.28691 
L 623.648011 189.204333 
L 625.689475 188.386672 
L 627.730938 193.657261 
L 629.772402 189.093436 
L 631.813865 187.731904 
L 633.855328 191.718886 
L 635.896792 191.376102 
L 637.938255 196.373287 
L 639.979719 192.524063 
L 642.021182 200.207056 
L 644.062646 196.680139 
L 646.104109 199.452299 
L 648.145572 198.214311 
L 650.187036 202.022782 
L 652.228499 195.904842 
L 654.269963 204.361578 
L 656.311426 202.654363 
L 658.352889 209.698483 
L 660.394353 209.328248 
L 662.435816 213.135568 
L 664.47728 211.665282 
L 666.518743 214.144774 
L 668.560207 219.812517 
L 670.60167 215.715335 
L 672.643133 214.54653 
L 674.684597 217.406666 
L 676.72606 220.91785 
L 678.767524 217.064169 
L 680.808987 212.702145 
L 682.85045 223.568067 
L 684.891914 231.646494 
L 686.933377 218.839133 
L 688.974841 222.198335 
L 691.016304 225.013205 
L 693.057768 224.829927 
L 695.099231 231.244416 
L 697.140694 232.014623 
L 699.182158 228.692725 
L 701.223621 232.057503 
L 703.265085 233.249904 
L 705.306548 226.410055 
L 707.348011 229.149632 
L 709.389475 226.322736 
L 711.430938 238.265982 
L 713.472402 249.867248 
L 715.513865 247.898654 
L 717.555328 238.776721 
L 719.596792 238.07851 
L 721.638255 238.795231 
L 723.679719 238.371891 
L 725.721182 248.532745 
L 727.762646 238.392225 
L 729.804109 249.947872 
L 731.845572 259.255075 
L 733.887036 251.52126 
L 735.928499 265.370169 
L 737.969963 255.405546 
L 740.011426 265.432731 
L 742.052889 260.309859 
L 744.094353 263.241256 
L 746.135816 270.142653 
L 748.17728 270.162397 
L 750.218743 272.503824 
L 752.260207 272.558487 
L 754.30167 273.362598 
L 756.343133 255.292674 
L 758.384597 280.322017 
L 760.42606 290.07931 
L 762.467524 281.234858 
L 764.508987 286.744589 
L 766.55045 292.89151 
L 768.591914 285.167966 
L 770.633377 294.521795 
L 772.674841 301.989316 
L 774.716304 297.8264 
L 776.757768 302.053826 
L 778.799231 304.262776 
L 780.840694 305.631494 
L 782.882158 307.965811 
L 784.923621 297.856337 
L 786.965085 318.017739 
L 789.006548 318.410222 
L 791.048011 318.537755 
L 793.089475 305.714691 
L 795.130938 322.975225 
L 797.172402 332.316477 
L 799.213865 324.079727 
L 801.255328 324.213958 
L 803.296792 339.678901 
L 805.338255 311.143009 
L 807.379719 337.137768 
L 809.421182 318.357936 
L 811.462646 345.660748 
L 813.504109 334.793979 
L 815.545572 345.246434 
L 817.587036 348.276377 
L 819.628499 351.194975 
L 821.669963 352.489867 
L 823.711426 346.747505 
L 825.752889 347.851567 
L 827.794353 353.760981 
L 829.835816 360.625011 
L 831.87728 360.91862 
L 833.918743 360.120068 
L 835.960207 367.036872 
L 838.00167 366.90099 
L 840.043133 361.719338 
L 842.084597 360.868511 
L 844.12606 373.62725 
L 846.167524 374.499937 
L 848.208987 376.920942 
L 850.25045 370.176345 
L 852.291914 354.760303 
L 854.333377 370.791507 
L 856.374841 366.362438 
L 858.416304 370.290048 
L 860.457768 375.68555 
L 862.499231 367.913394 
L 864.540694 377.64 
L 866.582158 369.30658 
L 868.623621 368.821854 
L 870.665085 369.473312 
L 872.706548 375.20938 
L 874.748011 374.372791 
L 876.789475 372.920771 
L 878.830938 366.436648 
L 880.872402 369.679184 
L 882.913865 372.050276 
L 884.955328 369.060631 
L 886.996792 373.674999 
L 889.038255 369.601759 
L 891.079719 372.543446 
L 893.121182 377.412996 
L 895.162646 376.390655 
L 897.204109 371.104109 
L 899.245572 371.02115 
L 901.287036 369.871439 
L 903.328499 371.97168 
L 905.369963 371.681754 
L 907.411426 363.146748 
L 909.452889 369.477146 
L 911.494353 330.331834 
L 913.535816 369.068659 
L 915.57728 371.479089 
L 917.618743 365.532749 
L 919.660207 359.365694 
L 921.70167 370.52527 
L 923.743133 365.151178 
L 925.784597 355.935112 
L 927.82606 361.329499 
L 929.867524 361.184044 
L 931.908987 358.459583 
L 933.95045 363.566317 
L 935.991914 359.266903 
L 938.033377 361.009599 
L 940.074841 361.938095 
L 940.074841 224.37762 
L 940.074841 224.37762 
L 938.033377 228.837824 
L 935.991914 227.722586 
L 933.95045 229.986543 
L 931.908987 227.925143 
L 929.867524 229.661851 
L 927.82606 229.132922 
L 925.784597 230.460047 
L 923.743133 234.111938 
L 921.70167 235.163029 
L 919.660207 233.658093 
L 917.618743 234.781377 
L 915.57728 238.773307 
L 913.535816 237.243289 
L 911.494353 231.239498 
L 909.452889 239.323871 
L 907.411426 238.758708 
L 905.369963 241.245747 
L 903.328499 242.081916 
L 901.287036 242.112671 
L 899.245572 243.899727 
L 897.204109 244.55086 
L 895.162646 246.795593 
L 893.121182 247.886351 
L 891.079719 247.551717 
L 889.038255 247.313946 
L 886.996792 248.685087 
L 884.955328 247.532506 
L 882.913865 249.02492 
L 880.872402 249.342172 
L 878.830938 248.961803 
L 876.789475 252.015161 
L 874.748011 253.104001 
L 872.706548 254.686627 
L 870.665085 252.37379 
L 868.623621 253.267611 
L 866.582158 254.336907 
L 864.540694 257.547862 
L 862.499231 254.745225 
L 860.457768 258.10257 
L 858.416304 256.619885 
L 856.374841 255.894714 
L 854.333377 257.973925 
L 852.291914 253.613758 
L 850.25045 258.583286 
L 848.208987 262.122144 
L 846.167524 261.780221 
L 844.12606 261.772142 
L 842.084597 258.571042 
L 840.043133 258.700853 
L 838.00167 261.085586 
L 835.960207 261.364749 
L 833.918743 259.348616 
L 831.87728 259.865816 
L 829.835816 260.715755 
L 827.794353 257.047378 
L 825.752889 256.144166 
L 823.711426 256.320863 
L 821.669963 258.934649 
L 819.628499 258.714933 
L 817.587036 257.335473 
L 815.545572 256.404043 
L 813.504109 252.840204 
L 811.462646 257.154875 
L 809.421182 248.659355 
L 807.379719 255.081631 
L 805.338255 245.33123 
L 803.296792 256.188111 
L 801.255328 250.308199 
L 799.213865 249.998245 
L 797.172402 254.637064 
L 795.130938 250.499706 
L 793.089475 244.094678 
L 791.048011 249.64953 
L 789.006548 249.468476 
L 786.965085 249.454556 
L 784.923621 240.960182 
L 782.882158 248.089257 
L 780.840694 244.857867 
L 778.799231 243.934041 
L 776.757768 243.412849 
L 774.716304 242.375196 
L 772.674841 244.285206 
L 770.633377 241.416121 
L 768.591914 237.042422 
L 766.55045 239.482312 
L 764.508987 238.766823 
L 762.467524 234.924568 
L 760.42606 239.413937 
L 758.384597 235.052305 
L 756.343133 224.184453 
L 754.30167 232.761236 
L 752.260207 232.523629 
L 750.218743 232.366362 
L 748.17728 231.396981 
L 746.135816 231.736254 
L 744.094353 228.377387 
L 742.052889 226.733936 
L 740.011426 229.194727 
L 737.969963 225.75699 
L 735.928499 229.925973 
L 733.887036 223.561072 
L 731.845572 227.894825 
L 729.804109 222.95708 
L 727.762646 216.730017 
L 725.721182 222.730281 
L 723.679719 218.098022 
L 721.638255 217.900357 
L 719.596792 217.234423 
L 717.555328 217.818487 
L 715.513865 222.883146 
L 713.472402 223.856896 
L 711.430938 217.56891 
L 709.389475 212.414261 
L 707.348011 213.524511 
L 705.306548 211.614787 
L 703.265085 215.281441 
L 701.223621 214.817034 
L 699.182158 213.263078 
L 697.140694 214.605416 
L 695.099231 214.987766 
L 693.057768 211.416604 
L 691.016304 210.781215 
L 688.974841 209.508847 
L 686.933377 207.016166 
L 684.891914 214.266764 
L 682.85045 211.015059 
L 680.808987 203.067512 
L 678.767524 204.9685 
L 676.72606 208.279164 
L 674.684597 206.121621 
L 672.643133 203.847197 
L 670.60167 204.314211 
L 668.560207 205.991585 
L 666.518743 203.83884 
L 664.47728 201.095122 
L 662.435816 202.073514 
L 660.394353 201.509844 
L 658.352889 199.459481 
L 656.311426 195.015876 
L 654.269963 195.278734 
L 652.228499 188.717423 
L 650.187036 194.364872 
L 648.145572 190.8433 
L 646.104109 191.60143 
L 644.062646 188.162376 
L 642.021182 192.271945 
L 639.979719 186.17306 
L 637.938255 188.162025 
L 635.896792 184.372501 
L 633.855328 184.268849 
L 631.813865 180.528081 
L 629.772402 183.795224 
L 627.730938 186.492673 
L 625.689475 180.589079 
L 623.648011 182.072777 
L 621.606548 173.192354 
L 619.565085 175.897422 
L 617.523621 178.980266 
L 615.482158 172.014456 
L 613.440694 180.248181 
L 611.399231 178.164008 
L 609.357768 170.790299 
L 607.316304 171.116648 
L 605.274841 170.226626 
L 603.233377 167.220638 
L 601.191914 168.020366 
L 599.15045 168.006897 
L 597.108987 177.704131 
L 595.067524 169.903712 
L 593.02606 165.031472 
L 590.984597 165.052841 
L 588.943133 163.515768 
L 586.90167 159.331483 
L 584.860207 159.308555 
L 582.818743 157.72751 
L 580.77728 158.518882 
L 578.735816 155.643034 
L 576.694353 161.844672 
L 574.652889 161.615862 
L 572.611426 159.4078 
L 570.569963 160.381011 
L 568.528499 157.355815 
L 566.487036 158.135664 
L 564.445572 159.097 
L 562.404109 159.565049 
L 560.362646 157.973748 
L 558.321182 160.060246 
L 556.279719 159.343802 
L 554.238255 164.518887 
L 552.196792 159.611694 
L 550.155328 156.663898 
L 548.113865 158.502567 
L 546.072402 160.20278 
L 544.030938 159.370463 
L 541.989475 161.221763 
L 539.948011 157.610702 
L 537.906548 159.308055 
L 535.865085 158.002654 
L 533.823621 158.913064 
L 531.782158 157.300914 
L 529.740694 155.116772 
L 527.699231 157.662419 
L 525.657768 161.172719 
L 523.616304 156.71416 
L 521.574841 158.790821 
L 519.533377 157.375713 
L 517.491914 158.171894 
L 515.45045 161.1707 
L 513.408987 159.601938 
L 511.367524 161.864721 
L 509.32606 162.176788 
L 507.284597 158.891262 
L 505.243133 160.357817 
L 503.20167 161.949985 
L 501.160207 162.244059 
L 499.118743 161.893307 
L 497.07728 162.847062 
L 495.035816 162.365876 
L 492.994353 163.998636 
L 490.952889 164.276839 
L 488.911426 164.409287 
L 486.869963 164.494257 
L 484.828499 160.540448 
L 482.787036 164.144624 
L 480.745572 165.43881 
L 478.704109 164.60815 
L 476.662646 164.461413 
L 474.621182 164.113377 
L 472.579719 165.001177 
L 470.538255 164.34259 
L 468.496792 165.704616 
L 466.455328 165.897364 
L 464.413865 165.020373 
L 462.372402 165.146817 
L 460.330938 165.474175 
L 458.289475 165.820435 
L 456.248011 168.201082 
L 454.206548 168.341991 
L 452.165085 169.176188 
L 450.123621 167.86461 
L 448.082158 168.617292 
L 446.040694 168.109396 
L 443.999231 167.870543 
L 441.957768 165.697206 
L 439.916304 169.113128 
L 437.874841 168.730098 
L 435.833377 168.234594 
L 433.791914 169.922711 
L 431.75045 168.930247 
L 429.708987 169.115753 
L 427.667524 166.985328 
L 425.62606 169.521222 
L 423.584597 167.588208 
L 421.543133 169.952373 
L 419.50167 171.342422 
L 417.460207 171.039126 
L 415.418743 172.999363 
L 413.37728 174.308445 
L 411.335816 173.209953 
L 409.294353 173.608308 
L 407.252889 172.988235 
L 405.211426 173.839703 
L 403.169963 172.289625 
L 401.128499 173.898658 
L 399.087036 174.857124 
L 397.045572 175.038034 
L 395.004109 174.764663 
L 392.962646 174.374582 
L 390.921182 176.286393 
L 388.879719 176.059688 
L 386.838255 176.939896 
L 384.796792 178.671838 
L 382.755328 178.678692 
L 380.713865 175.578279 
L 378.672402 175.52953 
L 376.630938 177.635485 
L 374.589475 177.25983 
L 372.548011 178.536408 
L 370.506548 179.294236 
L 368.465085 177.906266 
L 366.423621 178.165701 
L 364.382158 178.672598 
L 362.340694 180.063797 
L 360.299231 177.351565 
L 358.257768 177.775761 
L 356.216304 177.282324 
L 354.174841 179.581679 
L 352.133377 178.771695 
L 350.091914 176.772333 
L 348.05045 177.814067 
L 346.008987 178.914989 
L 343.967524 174.495991 
L 341.92606 177.78465 
L 339.884597 172.370134 
L 337.843133 171.623867 
L 335.80167 170.062781 
L 333.760207 170.784958 
L 331.718743 170.752505 
L 329.67728 169.617 
L 327.635816 166.674087 
L 325.594353 168.030693 
L 323.552889 161.977958 
L 321.511426 153.856306 
L 319.469963 155.869484 
L 317.428499 159.341301 
L 315.387036 149.211791 
L 313.345572 150.109055 
L 311.304109 147.233394 
L 309.262646 146.4475 
L 307.221182 134.024896 
L 305.179719 132.288435 
L 303.138255 127.808197 
L 301.096792 118.293319 
L 299.055328 110.741339 
L 297.013865 118.187818 
L 294.972402 114.059743 
L 292.930938 107.518504 
L 290.889475 104.693071 
L 288.848011 99.938422 
L 286.806548 93.647518 
L 284.765085 95.794215 
L 282.723621 85.227478 
L 280.682158 79.587409 
L 278.640694 76.953481 
L 276.599231 74.73568 
L 274.557768 75.6212 
L 272.516304 72.894686 
L 270.474841 74.811982 
L 268.433377 77.404279 
L 266.391914 72.315681 
L 264.35045 71.588076 
L 262.308987 75.939581 
L 260.267524 76.688113 
L 258.22606 74.590044 
L 256.184597 83.774874 
L 254.143133 76.750451 
L 252.10167 78.6581 
L 250.060207 85.529307 
L 248.018743 83.102918 
L 245.97728 85.35387 
L 243.935816 87.311562 
L 241.894353 89.676363 
L 239.852889 91.888028 
L 237.811426 94.43831 
L 235.769963 96.751705 
L 233.728499 98.540138 
L 231.687036 101.675695 
L 229.645572 102.021678 
L 227.604109 107.321542 
L 225.562646 106.996443 
L 223.521182 109.352696 
L 221.479719 111.954207 
L 219.438255 113.168193 
L 217.396792 114.91672 
L 215.355328 116.094464 
L 213.313865 118.236072 
L 211.272402 119.178992 
L 209.230938 120.541238 
L 207.189475 122.308736 
L 205.148011 124.14314 
L 203.106548 124.936783 
L 201.065085 126.703006 
L 199.023621 127.653287 
L 196.982158 129.517108 
L 194.940694 130.792382 
L 192.899231 132.070389 
L 190.857768 133.579931 
L 188.816304 134.84323 
L 186.774841 135.812568 
L 184.733377 137.298594 
L 182.691914 137.689939 
L 180.65045 139.719496 
L 178.608987 140.8646 
L 176.567524 141.796239 
L 174.52606 143.103424 
L 172.484597 143.635435 
L 170.443133 144.725605 
L 168.40167 145.864893 
L 166.360207 147.20092 
L 164.318743 148.070198 
L 162.27728 148.929508 
L 160.235816 149.934548 
L 158.194353 150.89071 
L 156.152889 151.974416 
L 154.111426 152.719033 
L 152.069963 153.596253 
L 150.028499 154.204769 
L 147.987036 155.311058 
L 145.945572 155.939309 
L 143.904109 156.746934 
L 141.862646 157.908322 
L 139.821182 158.53714 
L 137.779719 158.322616 
L 135.738255 159.223858 
L 133.696792 159.421676 
L 131.655328 160.290022 
L 129.613865 161.394449 
L 127.572402 161.715622 
L 125.530938 162.003556 
L 123.489475 161.679116 
L 121.448011 162.047245 
L 119.406548 162.094025 
L 117.365085 162.193419 
L 115.323621 162.943239 
L 113.282158 163.213359 
L 111.240694 163.796823 
L 109.199231 162.855084 
L 107.157768 163.037421 
L 105.116304 161.817089 
L 103.074841 162.856632 
L 101.033377 162.746254 
L 98.991914 163.442489 
L 96.95045 161.031512 
L 94.908987 163.344858 
L 92.867524 162.878406 
L 90.82606 161.164632 
L 88.784597 160.575989 
L 86.743133 161.700169 
L 84.70167 163.793282 
L 82.660207 162.69927 
L 80.618743 162.476509 
L 78.57728 160.006015 
L 76.535816 159.849939 
L 74.494353 160.394669 
L 72.452889 161.698216 
L 70.411426 161.130199 
L 68.369963 160.747747 
L 66.328499 160.89672 
L 64.287036 161.698155 
L 62.245572 161.436372 
L 60.204109 161.93627 
L 58.162646 162.810136 
L 56.121182 162.130499 
L 54.079719 163.434516 
L 52.038255 163.617545 
L 49.996792 163.762852 
L 47.955328 164.591696 
L 45.913865 164.794023 
L 43.872402 165.723777 
L 41.830938 166.741349 
L 39.789475 166.760937 
L 37.748011 166.358637 
L 35.706548 166.07747 
L 33.665085 168.246149 
L 31.623621 167.890178 
L 29.582158 169.355549 
L 27.540694 169.400545 
L 25.499231 168.867308 
L 23.457768 170.321794 
L 21.416304 169.017994 
L 19.374841 169.11349 
L 17.333377 170.956938 
L 15.291914 169.676157 
L 13.25045 171.417546 
L 11.208987 171.992261 
L 9.167524 170.570281 
L 7.12606 165.989668 
L 5.084597 168.95679 
L 3.043133 167.5689 
L 1.00167 160.739597 
L -1.039793 166.593064 
L -3.081257 167.809699 
L -5.12272 161.490835 
L -7.164184 159.76768 
L -9.205647 163.173396 
L -11.247111 156.315235 
L -13.288574 143.953081 
L -15.330037 157.562991 
L -17.371501 162.802771 
L -19.412964 165.404068 
L -21.454428 148.612702 
L -23.495891 149.330084 
L -25.537354 140.883903 
L -27.578818 134.301536 
L -29.620281 147.611833 
L -31.661745 141.917804 
L -33.703208 130.087305 
L -35.744672 121.79144 
L -37.786135 122.300325 
L -39.827598 123.740894 
L -41.869062 121.999985 
L -43.910525 120.957165 
L -45.951989 125.69352 
L -47.993452 125.12768 
L -50.034915 122.036326 
L -52.076379 123.926478 
L -54.117842 122.659877 
L -56.159306 122.166898 
L -58.200769 122.277891 
L -60.242232 124.135114 
L -62.283696 125.235993 
L -64.325159 125.873787 
L -66.366623 127.487927 
L -68.408086 128.253681 
L -70.44955 129.564234 
L -72.491013 131.618877 
L -74.532476 133.231838 
L -76.57394 134.33101 
L -78.615403 135.55752 
L -80.656867 137.175283 
L -82.69833 138.198582 
L -84.739793 139.750638 
L -86.781257 141.631574 
L -88.82272 142.763184 
L -90.864184 143.53566 
L -92.905647 144.690383 
L -94.947111 145.877686 
L -96.988574 146.968015 
L -99.030037 148.011295 
L -101.071501 149.016696 
L -103.112964 150.393743 
L -105.154428 151.113113 
L -107.195891 152.122313 
L -109.237354 153.183099 
L -111.278818 154.076972 
L -113.320281 154.958367 
L -115.361745 155.696145 
L -117.403208 156.49902 
L -119.444672 157.563535 
L -121.486135 158.310022 
L -123.527598 159.181515 
L -125.569062 159.889402 
L -127.610525 160.679086 
L -129.651989 161.485213 
L -131.693452 162.289429 
L -133.734915 162.965853 
L -135.776379 163.765536 
L -137.817842 164.468145 
L -139.859306 165.221368 
L -141.900769 165.922459 
L -143.942232 166.645904 
L -145.983696 167.320453 
L -148.025159 168.038393 
L -150.066623 168.800215 
L -152.108086 169.373655 
L -154.14955 170.092552 
L -156.191013 170.712017 
L -158.232476 171.430439 
L -160.27394 171.955103 
L -162.315403 172.623018 
L -164.356867 173.259515 
L -166.39833 173.865448 
L -168.439793 174.482345 
L -170.481257 175.052773 
L -172.52272 175.718153 
L -174.564184 176.316955 
L -176.605647 176.809976 
L -178.647111 177.395569 
L -180.688574 177.980284 
L -182.730037 178.562111 
L -184.771501 179.123272 
L -186.812964 179.645999 
L -188.854428 180.221415 
L -190.895891 180.785307 
L -192.937354 181.352103 
L -194.978818 181.91686 
L -197.020281 182.496751 
L -199.061745 183.099431 
L -201.103208 183.618052 
L -203.144672 184.212103 
L -205.186135 184.794845 
L -207.227598 185.353941 
L -209.269062 185.930794 
L -211.310525 186.519449 
L -213.351989 187.090206 
L -215.393452 187.689345 
L -217.434915 188.235056 
L -219.476379 188.792438 
L -221.517842 189.381782 
L -223.559306 189.950847 
L -225.600769 190.490663 
L -227.642232 191.062208 
L -229.683696 191.583143 
L -231.725159 192.140344 
L -233.766623 192.734394 
L -235.808086 193.243525 
L -237.84955 193.813779 
L -239.891013 194.353124 
L -241.932476 194.91899 
L -243.97394 195.430514 
L -246.015403 196.029341 
L -248.056867 196.524305 
L -250.09833 197.080337 
L -252.139793 197.624233 
L -254.181257 198.182101 
L -256.22272 198.711808 
L -258.264184 199.251587 
L -260.305647 199.793687 
L -262.347111 200.354313 
L -264.388574 200.87451 
L -266.430037 201.351958 
L -268.471501 201.838649 
L -270.512964 202.328469 
L -272.554428 202.801367 
L -274.595891 203.282443 
L -276.637354 203.758081 
L -278.678818 204.212361 
L -280.720281 204.672105 
L -282.761745 205.129541 
L -284.803208 205.545525 
L -286.844672 205.968913 
L -288.886135 206.410979 
L -290.927598 206.829832 
L -292.969062 207.204331 
L -295.010525 207.617466 
L -297.051989 207.995023 
L -299.093452 208.342887 
L -301.134915 208.69112 
L -303.176379 209.01679 
L -305.217842 209.368259 
L -307.259306 209.658624 
L -309.300769 209.965644 
L -311.342232 210.254764 
L -313.383696 210.52278 
L -315.425159 210.767117 
L -317.466623 210.989239 
L -319.508086 211.210014 
L -321.54955 211.429056 
L -323.591013 211.610464 
L -325.632476 211.813293 
L -327.67394 211.985097 
L -329.715403 212.13315 
L -331.756867 212.306803 
L -333.79833 212.459065 
L -335.839793 212.58522 
L -337.881257 212.720707 
L -339.92272 212.852513 
L -341.964184 212.968455 
L -344.005647 213.084862 
L -346.047111 213.181177 
L -348.088574 213.297628 
L -350.130037 213.390302 
L -352.171501 213.48776 
L -354.212964 213.590075 
L -356.254428 213.673567 
L -358.295891 213.762076 
L -360.337354 213.877926 
L -362.378818 213.959818 
L -364.420281 214.060277 
L -366.461745 214.139857 
L -368.503208 214.245787 
L -370.544672 214.329673 
L -372.586135 214.418449 
L -374.627598 214.496143 
L -376.669062 214.56666 
L -378.710525 214.647178 
L -380.751989 214.736232 
L -382.793452 214.822639 
L -384.834915 214.896028 
L -386.876379 214.955157 
L -388.917842 215.040544 
L -390.959306 215.110311 
L -393.000769 215.194242 
z
" clip-path="url(#p33eb9ac078)" style="fill: #008000; fill-opacity: 0.3; stroke: #008000; stroke-opacity: 0.3"/>
   </g>
   <g id="matplotlib.axis_1">
    <g id="xtick_1">
     <g id="line2d_1">
      <defs>
       <path id="mc3152fedff" d="M 0 0 
L 0 3.5 
" style="stroke: #000000; stroke-width: 0.8"/>
      </defs>
      <g>
       <use xlink:href="#mc3152fedff" x="103.074841" y="395.28" style="stroke: #000000; stroke-width: 0.8"/>
      </g>
     </g>
     <g id="text_1">
      <!-- 2022-03-01 -->
      <g transform="translate(17.945813 495.213718) rotate(-45) scale(0.2 -0.2)">
       <defs>
        <path id="DejaVuSans-32" d="M 1228 531 
L 3431 531 
L 3431 0 
L 469 0 
L 469 531 
Q 828 903 1448 1529 
Q 2069 2156 2228 2338 
Q 2531 2678 2651 2914 
Q 2772 3150 2772 3378 
Q 2772 3750 2511 3984 
Q 2250 4219 1831 4219 
Q 1534 4219 1204 4116 
Q 875 4013 500 3803 
L 500 4441 
Q 881 4594 1212 4672 
Q 1544 4750 1819 4750 
Q 2544 4750 2975 4387 
Q 3406 4025 3406 3419 
Q 3406 3131 3298 2873 
Q 3191 2616 2906 2266 
Q 2828 2175 2409 1742 
Q 1991 1309 1228 531 
z
" transform="scale(0.015625)"/>
        <path id="DejaVuSans-30" d="M 2034 4250 
Q 1547 4250 1301 3770 
Q 1056 3291 1056 2328 
Q 1056 1369 1301 889 
Q 1547 409 2034 409 
Q 2525 409 2770 889 
Q 3016 1369 3016 2328 
Q 3016 3291 2770 3770 
Q 2525 4250 2034 4250 
z
M 2034 4750 
Q 2819 4750 3233 4129 
Q 3647 3509 3647 2328 
Q 3647 1150 3233 529 
Q 2819 -91 2034 -91 
Q 1250 -91 836 529 
Q 422 1150 422 2328 
Q 422 3509 836 4129 
Q 1250 4750 2034 4750 
z
" transform="scale(0.015625)"/>
        <path id="DejaVuSans-2d" d="M 313 2009 
L 1997 2009 
L 1997 1497 
L 313 1497 
L 313 2009 
z
" transform="scale(0.015625)"/>
        <path id="DejaVuSans-33" d="M 2597 2516 
Q 3050 2419 3304 2112 
Q 3559 1806 3559 1356 
Q 3559 666 3084 287 
Q 2609 -91 1734 -91 
Q 1441 -91 1130 -33 
Q 819 25 488 141 
L 488 750 
Q 750 597 1062 519 
Q 1375 441 1716 441 
Q 2309 441 2620 675 
Q 2931 909 2931 1356 
Q 2931 1769 2642 2001 
Q 2353 2234 1838 2234 
L 1294 2234 
L 1294 2753 
L 1863 2753 
Q 2328 2753 2575 2939 
Q 2822 3125 2822 3475 
Q 2822 3834 2567 4026 
Q 2313 4219 1838 4219 
Q 1578 4219 1281 4162 
Q 984 4106 628 3988 
L 628 4550 
Q 988 4650 1302 4700 
Q 1616 4750 1894 4750 
Q 2613 4750 3031 4423 
Q 3450 4097 3450 3541 
Q 3450 3153 3228 2886 
Q 3006 2619 2597 2516 
z
" transform="scale(0.015625)"/>
        <path id="DejaVuSans-31" d="M 794 531 
L 1825 531 
L 1825 4091 
L 703 3866 
L 703 4441 
L 1819 4666 
L 2450 4666 
L 2450 531 
L 3481 531 
L 3481 0 
L 794 0 
L 794 531 
z
" transform="scale(0.015625)"/>
       </defs>
       <use xlink:href="#DejaVuSans-32"/>
       <use xlink:href="#DejaVuSans-30" x="63.623047"/>
       <use xlink:href="#DejaVuSans-32" x="127.246094"/>
       <use xlink:href="#DejaVuSans-32" x="190.869141"/>
       <use xlink:href="#DejaVuSans-2d" x="254.492188"/>
       <use xlink:href="#DejaVuSans-30" x="290.576172"/>
       <use xlink:href="#DejaVuSans-33" x="354.199219"/>
       <use xlink:href="#DejaVuSans-2d" x="417.822266"/>
       <use xlink:href="#DejaVuSans-30" x="453.90625"/>
       <use xlink:href="#DejaVuSans-31" x="517.529297"/>
      </g>
     </g>
    </g>
    <g id="xtick_2">
     <g id="line2d_2">
      <g>
       <use xlink:href="#mc3152fedff" x="160.235816" y="395.28" style="stroke: #000000; stroke-width: 0.8"/>
      </g>
     </g>
     <g id="text_2">
      <!-- 2022-03-29 -->
      <g transform="translate(75.106789 495.213718) rotate(-45) scale(0.2 -0.2)">
       <defs>
        <path id="DejaVuSans-39" d="M 703 97 
L 703 672 
Q 941 559 1184 500 
Q 1428 441 1663 441 
Q 2288 441 2617 861 
Q 2947 1281 2994 2138 
Q 2813 1869 2534 1725 
Q 2256 1581 1919 1581 
Q 1219 1581 811 2004 
Q 403 2428 403 3163 
Q 403 3881 828 4315 
Q 1253 4750 1959 4750 
Q 2769 4750 3195 4129 
Q 3622 3509 3622 2328 
Q 3622 1225 3098 567 
Q 2575 -91 1691 -91 
Q 1453 -91 1209 -44 
Q 966 3 703 97 
z
M 1959 2075 
Q 2384 2075 2632 2365 
Q 2881 2656 2881 3163 
Q 2881 3666 2632 3958 
Q 2384 4250 1959 4250 
Q 1534 4250 1286 3958 
Q 1038 3666 1038 3163 
Q 1038 2656 1286 2365 
Q 1534 2075 1959 2075 
z
" transform="scale(0.015625)"/>
       </defs>
       <use xlink:href="#DejaVuSans-32"/>
       <use xlink:href="#DejaVuSans-30" x="63.623047"/>
       <use xlink:href="#DejaVuSans-32" x="127.246094"/>
       <use xlink:href="#DejaVuSans-32" x="190.869141"/>
       <use xlink:href="#DejaVuSans-2d" x="254.492188"/>
       <use xlink:href="#DejaVuSans-30" x="290.576172"/>
       <use xlink:href="#DejaVuSans-33" x="354.199219"/>
       <use xlink:href="#DejaVuSans-2d" x="417.822266"/>
       <use xlink:href="#DejaVuSans-32" x="453.90625"/>
       <use xlink:href="#DejaVuSans-39" x="517.529297"/>
      </g>
     </g>
    </g>
    <g id="xtick_3">
     <g id="line2d_3">
      <g>
       <use xlink:href="#mc3152fedff" x="217.396792" y="395.28" style="stroke: #000000; stroke-width: 0.8"/>
      </g>
     </g>
     <g id="text_3">
      <!-- 2022-04-26 -->
      <g transform="translate(132.267765 495.213718) rotate(-45) scale(0.2 -0.2)">
       <defs>
        <path id="DejaVuSans-34" d="M 2419 4116 
L 825 1625 
L 2419 1625 
L 2419 4116 
z
M 2253 4666 
L 3047 4666 
L 3047 1625 
L 3713 1625 
L 3713 1100 
L 3047 1100 
L 3047 0 
L 2419 0 
L 2419 1100 
L 313 1100 
L 313 1709 
L 2253 4666 
z
" transform="scale(0.015625)"/>
        <path id="DejaVuSans-36" d="M 2113 2584 
Q 1688 2584 1439 2293 
Q 1191 2003 1191 1497 
Q 1191 994 1439 701 
Q 1688 409 2113 409 
Q 2538 409 2786 701 
Q 3034 994 3034 1497 
Q 3034 2003 2786 2293 
Q 2538 2584 2113 2584 
z
M 3366 4563 
L 3366 3988 
Q 3128 4100 2886 4159 
Q 2644 4219 2406 4219 
Q 1781 4219 1451 3797 
Q 1122 3375 1075 2522 
Q 1259 2794 1537 2939 
Q 1816 3084 2150 3084 
Q 2853 3084 3261 2657 
Q 3669 2231 3669 1497 
Q 3669 778 3244 343 
Q 2819 -91 2113 -91 
Q 1303 -91 875 529 
Q 447 1150 447 2328 
Q 447 3434 972 4092 
Q 1497 4750 2381 4750 
Q 2619 4750 2861 4703 
Q 3103 4656 3366 4563 
z
" transform="scale(0.015625)"/>
       </defs>
       <use xlink:href="#DejaVuSans-32"/>
       <use xlink:href="#DejaVuSans-30" x="63.623047"/>
       <use xlink:href="#DejaVuSans-32" x="127.246094"/>
       <use xlink:href="#DejaVuSans-32" x="190.869141"/>
       <use xlink:href="#DejaVuSans-2d" x="254.492188"/>
       <use xlink:href="#DejaVuSans-30" x="290.576172"/>
       <use xlink:href="#DejaVuSans-34" x="354.199219"/>
       <use xlink:href="#DejaVuSans-2d" x="417.822266"/>
       <use xlink:href="#DejaVuSans-32" x="453.90625"/>
       <use xlink:href="#DejaVuSans-36" x="517.529297"/>
      </g>
     </g>
    </g>
    <g id="xtick_4">
     <g id="line2d_4">
      <g>
       <use xlink:href="#mc3152fedff" x="274.557768" y="395.28" style="stroke: #000000; stroke-width: 0.8"/>
      </g>
     </g>
     <g id="text_4">
      <!-- 2022-05-24 -->
      <g transform="translate(189.42874 495.213718) rotate(-45) scale(0.2 -0.2)">
       <defs>
        <path id="DejaVuSans-35" d="M 691 4666 
L 3169 4666 
L 3169 4134 
L 1269 4134 
L 1269 2991 
Q 1406 3038 1543 3061 
Q 1681 3084 1819 3084 
Q 2600 3084 3056 2656 
Q 3513 2228 3513 1497 
Q 3513 744 3044 326 
Q 2575 -91 1722 -91 
Q 1428 -91 1123 -41 
Q 819 9 494 109 
L 494 744 
Q 775 591 1075 516 
Q 1375 441 1709 441 
Q 2250 441 2565 725 
Q 2881 1009 2881 1497 
Q 2881 1984 2565 2268 
Q 2250 2553 1709 2553 
Q 1456 2553 1204 2497 
Q 953 2441 691 2322 
L 691 4666 
z
" transform="scale(0.015625)"/>
       </defs>
       <use xlink:href="#DejaVuSans-32"/>
       <use xlink:href="#DejaVuSans-30" x="63.623047"/>
       <use xlink:href="#DejaVuSans-32" x="127.246094"/>
       <use xlink:href="#DejaVuSans-32" x="190.869141"/>
       <use xlink:href="#DejaVuSans-2d" x="254.492188"/>
       <use xlink:href="#DejaVuSans-30" x="290.576172"/>
       <use xlink:href="#DejaVuSans-35" x="354.199219"/>
       <use xlink:href="#DejaVuSans-2d" x="417.822266"/>
       <use xlink:href="#DejaVuSans-32" x="453.90625"/>
       <use xlink:href="#DejaVuSans-34" x="517.529297"/>
      </g>
     </g>
    </g>
    <g id="xtick_5">
     <g id="line2d_5">
      <g>
       <use xlink:href="#mc3152fedff" x="331.718743" y="395.28" style="stroke: #000000; stroke-width: 0.8"/>
      </g>
     </g>
     <g id="text_5">
      <!-- 2022-06-21 -->
      <g transform="translate(246.589716 495.213718) rotate(-45) scale(0.2 -0.2)">
       <use xlink:href="#DejaVuSans-32"/>
       <use xlink:href="#DejaVuSans-30" x="63.623047"/>
       <use xlink:href="#DejaVuSans-32" x="127.246094"/>
       <use xlink:href="#DejaVuSans-32" x="190.869141"/>
       <use xlink:href="#DejaVuSans-2d" x="254.492188"/>
       <use xlink:href="#DejaVuSans-30" x="290.576172"/>
       <use xlink:href="#DejaVuSans-36" x="354.199219"/>
       <use xlink:href="#DejaVuSans-2d" x="417.822266"/>
       <use xlink:href="#DejaVuSans-32" x="453.90625"/>
       <use xlink:href="#DejaVuSans-31" x="517.529297"/>
      </g>
     </g>
    </g>
    <g id="xtick_6">
     <g id="line2d_6">
      <g>
       <use xlink:href="#mc3152fedff" x="388.879719" y="395.28" style="stroke: #000000; stroke-width: 0.8"/>
      </g>
     </g>
     <g id="text_6">
      <!-- 2022-07-19 -->
      <g transform="translate(303.750691 495.213718) rotate(-45) scale(0.2 -0.2)">
       <defs>
        <path id="DejaVuSans-37" d="M 525 4666 
L 3525 4666 
L 3525 4397 
L 1831 0 
L 1172 0 
L 2766 4134 
L 525 4134 
L 525 4666 
z
" transform="scale(0.015625)"/>
       </defs>
       <use xlink:href="#DejaVuSans-32"/>
       <use xlink:href="#DejaVuSans-30" x="63.623047"/>
       <use xlink:href="#DejaVuSans-32" x="127.246094"/>
       <use xlink:href="#DejaVuSans-32" x="190.869141"/>
       <use xlink:href="#DejaVuSans-2d" x="254.492188"/>
       <use xlink:href="#DejaVuSans-30" x="290.576172"/>
       <use xlink:href="#DejaVuSans-37" x="354.199219"/>
       <use xlink:href="#DejaVuSans-2d" x="417.822266"/>
       <use xlink:href="#DejaVuSans-31" x="453.90625"/>
       <use xlink:href="#DejaVuSans-39" x="517.529297"/>
      </g>
     </g>
    </g>
    <g id="xtick_7">
     <g id="line2d_7">
      <g>
       <use xlink:href="#mc3152fedff" x="446.040694" y="395.28" style="stroke: #000000; stroke-width: 0.8"/>
      </g>
     </g>
     <g id="text_7">
      <!-- 2022-08-16 -->
      <g transform="translate(360.911667 495.213718) rotate(-45) scale(0.2 -0.2)">
       <defs>
        <path id="DejaVuSans-38" d="M 2034 2216 
Q 1584 2216 1326 1975 
Q 1069 1734 1069 1313 
Q 1069 891 1326 650 
Q 1584 409 2034 409 
Q 2484 409 2743 651 
Q 3003 894 3003 1313 
Q 3003 1734 2745 1975 
Q 2488 2216 2034 2216 
z
M 1403 2484 
Q 997 2584 770 2862 
Q 544 3141 544 3541 
Q 544 4100 942 4425 
Q 1341 4750 2034 4750 
Q 2731 4750 3128 4425 
Q 3525 4100 3525 3541 
Q 3525 3141 3298 2862 
Q 3072 2584 2669 2484 
Q 3125 2378 3379 2068 
Q 3634 1759 3634 1313 
Q 3634 634 3220 271 
Q 2806 -91 2034 -91 
Q 1263 -91 848 271 
Q 434 634 434 1313 
Q 434 1759 690 2068 
Q 947 2378 1403 2484 
z
M 1172 3481 
Q 1172 3119 1398 2916 
Q 1625 2713 2034 2713 
Q 2441 2713 2670 2916 
Q 2900 3119 2900 3481 
Q 2900 3844 2670 4047 
Q 2441 4250 2034 4250 
Q 1625 4250 1398 4047 
Q 1172 3844 1172 3481 
z
" transform="scale(0.015625)"/>
       </defs>
       <use xlink:href="#DejaVuSans-32"/>
       <use xlink:href="#DejaVuSans-30" x="63.623047"/>
       <use xlink:href="#DejaVuSans-32" x="127.246094"/>
       <use xlink:href="#DejaVuSans-32" x="190.869141"/>
       <use xlink:href="#DejaVuSans-2d" x="254.492188"/>
       <use xlink:href="#DejaVuSans-30" x="290.576172"/>
       <use xlink:href="#DejaVuSans-38" x="354.199219"/>
       <use xlink:href="#DejaVuSans-2d" x="417.822266"/>
       <use xlink:href="#DejaVuSans-31" x="453.90625"/>
       <use xlink:href="#DejaVuSans-36" x="517.529297"/>
      </g>
     </g>
    </g>
    <g id="xtick_8">
     <g id="line2d_8">
      <g>
       <use xlink:href="#mc3152fedff" x="503.20167" y="395.28" style="stroke: #000000; stroke-width: 0.8"/>
      </g>
     </g>
     <g id="text_8">
      <!-- 2022-09-13 -->
      <g transform="translate(418.072643 495.213718) rotate(-45) scale(0.2 -0.2)">
       <use xlink:href="#DejaVuSans-32"/>
       <use xlink:href="#DejaVuSans-30" x="63.623047"/>
       <use xlink:href="#DejaVuSans-32" x="127.246094"/>
       <use xlink:href="#DejaVuSans-32" x="190.869141"/>
       <use xlink:href="#DejaVuSans-2d" x="254.492188"/>
       <use xlink:href="#DejaVuSans-30" x="290.576172"/>
       <use xlink:href="#DejaVuSans-39" x="354.199219"/>
       <use xlink:href="#DejaVuSans-2d" x="417.822266"/>
       <use xlink:href="#DejaVuSans-31" x="453.90625"/>
       <use xlink:href="#DejaVuSans-33" x="517.529297"/>
      </g>
     </g>
    </g>
    <g id="xtick_9">
     <g id="line2d_9">
      <g>
       <use xlink:href="#mc3152fedff" x="560.362646" y="395.28" style="stroke: #000000; stroke-width: 0.8"/>
      </g>
     </g>
     <g id="text_9">
      <!-- 2022-10-11 -->
      <g transform="translate(475.233618 495.213718) rotate(-45) scale(0.2 -0.2)">
       <use xlink:href="#DejaVuSans-32"/>
       <use xlink:href="#DejaVuSans-30" x="63.623047"/>
       <use xlink:href="#DejaVuSans-32" x="127.246094"/>
       <use xlink:href="#DejaVuSans-32" x="190.869141"/>
       <use xlink:href="#DejaVuSans-2d" x="254.492188"/>
       <use xlink:href="#DejaVuSans-31" x="290.576172"/>
       <use xlink:href="#DejaVuSans-30" x="354.199219"/>
       <use xlink:href="#DejaVuSans-2d" x="417.822266"/>
       <use xlink:href="#DejaVuSans-31" x="453.90625"/>
       <use xlink:href="#DejaVuSans-31" x="517.529297"/>
      </g>
     </g>
    </g>
    <g id="xtick_10">
     <g id="line2d_10">
      <g>
       <use xlink:href="#mc3152fedff" x="617.523621" y="395.28" style="stroke: #000000; stroke-width: 0.8"/>
      </g>
     </g>
     <g id="text_10">
      <!-- 2022-11-08 -->
      <g transform="translate(532.394594 495.213718) rotate(-45) scale(0.2 -0.2)">
       <use xlink:href="#DejaVuSans-32"/>
       <use xlink:href="#DejaVuSans-30" x="63.623047"/>
       <use xlink:href="#DejaVuSans-32" x="127.246094"/>
       <use xlink:href="#DejaVuSans-32" x="190.869141"/>
       <use xlink:href="#DejaVuSans-2d" x="254.492188"/>
       <use xlink:href="#DejaVuSans-31" x="290.576172"/>
       <use xlink:href="#DejaVuSans-31" x="354.199219"/>
       <use xlink:href="#DejaVuSans-2d" x="417.822266"/>
       <use xlink:href="#DejaVuSans-30" x="453.90625"/>
       <use xlink:href="#DejaVuSans-38" x="517.529297"/>
      </g>
     </g>
    </g>
    <g id="xtick_11">
     <g id="line2d_11">
      <g>
       <use xlink:href="#mc3152fedff" x="674.684597" y="395.28" style="stroke: #000000; stroke-width: 0.8"/>
      </g>
     </g>
     <g id="text_11">
      <!-- 2022-12-06 -->
      <g transform="translate(589.555569 495.213718) rotate(-45) scale(0.2 -0.2)">
       <use xlink:href="#DejaVuSans-32"/>
       <use xlink:href="#DejaVuSans-30" x="63.623047"/>
       <use xlink:href="#DejaVuSans-32" x="127.246094"/>
       <use xlink:href="#DejaVuSans-32" x="190.869141"/>
       <use xlink:href="#DejaVuSans-2d" x="254.492188"/>
       <use xlink:href="#DejaVuSans-31" x="290.576172"/>
       <use xlink:href="#DejaVuSans-32" x="354.199219"/>
       <use xlink:href="#DejaVuSans-2d" x="417.822266"/>
       <use xlink:href="#DejaVuSans-30" x="453.90625"/>
       <use xlink:href="#DejaVuSans-36" x="517.529297"/>
      </g>
     </g>
    </g>
    <g id="xtick_12">
     <g id="line2d_12">
      <g>
       <use xlink:href="#mc3152fedff" x="731.845572" y="395.28" style="stroke: #000000; stroke-width: 0.8"/>
      </g>
     </g>
     <g id="text_12">
      <!-- 2023-01-03 -->
      <g transform="translate(646.716545 495.213718) rotate(-45) scale(0.2 -0.2)">
       <use xlink:href="#DejaVuSans-32"/>
       <use xlink:href="#DejaVuSans-30" x="63.623047"/>
       <use xlink:href="#DejaVuSans-32" x="127.246094"/>
       <use xlink:href="#DejaVuSans-33" x="190.869141"/>
       <use xlink:href="#DejaVuSans-2d" x="254.492188"/>
       <use xlink:href="#DejaVuSans-30" x="290.576172"/>
       <use xlink:href="#DejaVuSans-31" x="354.199219"/>
       <use xlink:href="#DejaVuSans-2d" x="417.822266"/>
       <use xlink:href="#DejaVuSans-30" x="453.90625"/>
       <use xlink:href="#DejaVuSans-33" x="517.529297"/>
      </g>
     </g>
    </g>
    <g id="xtick_13">
     <g id="line2d_13">
      <g>
       <use xlink:href="#mc3152fedff" x="789.006548" y="395.28" style="stroke: #000000; stroke-width: 0.8"/>
      </g>
     </g>
     <g id="text_13">
      <!-- 2023-01-31 -->
      <g transform="translate(703.877521 495.213718) rotate(-45) scale(0.2 -0.2)">
       <use xlink:href="#DejaVuSans-32"/>
       <use xlink:href="#DejaVuSans-30" x="63.623047"/>
       <use xlink:href="#DejaVuSans-32" x="127.246094"/>
       <use xlink:href="#DejaVuSans-33" x="190.869141"/>
       <use xlink:href="#DejaVuSans-2d" x="254.492188"/>
       <use xlink:href="#DejaVuSans-30" x="290.576172"/>
       <use xlink:href="#DejaVuSans-31" x="354.199219"/>
       <use xlink:href="#DejaVuSans-2d" x="417.822266"/>
       <use xlink:href="#DejaVuSans-33" x="453.90625"/>
       <use xlink:href="#DejaVuSans-31" x="517.529297"/>
      </g>
     </g>
    </g>
    <g id="xtick_14">
     <g id="line2d_14">
      <g>
       <use xlink:href="#mc3152fedff" x="846.167524" y="395.28" style="stroke: #000000; stroke-width: 0.8"/>
      </g>
     </g>
     <g id="text_14">
      <!-- 2023-02-28 -->
      <g transform="translate(761.038496 495.213718) rotate(-45) scale(0.2 -0.2)">
       <use xlink:href="#DejaVuSans-32"/>
       <use xlink:href="#DejaVuSans-30" x="63.623047"/>
       <use xlink:href="#DejaVuSans-32" x="127.246094"/>
       <use xlink:href="#DejaVuSans-33" x="190.869141"/>
       <use xlink:href="#DejaVuSans-2d" x="254.492188"/>
       <use xlink:href="#DejaVuSans-30" x="290.576172"/>
       <use xlink:href="#DejaVuSans-32" x="354.199219"/>
       <use xlink:href="#DejaVuSans-2d" x="417.822266"/>
       <use xlink:href="#DejaVuSans-32" x="453.90625"/>
       <use xlink:href="#DejaVuSans-38" x="517.529297"/>
      </g>
     </g>
    </g>
    <g id="xtick_15">
     <g id="line2d_15">
      <g>
       <use xlink:href="#mc3152fedff" x="903.328499" y="395.28" style="stroke: #000000; stroke-width: 0.8"/>
      </g>
     </g>
     <g id="text_15">
      <!-- 2023-03-28 -->
      <g transform="translate(818.199472 495.213718) rotate(-45) scale(0.2 -0.2)">
       <use xlink:href="#DejaVuSans-32"/>
       <use xlink:href="#DejaVuSans-30" x="63.623047"/>
       <use xlink:href="#DejaVuSans-32" x="127.246094"/>
       <use xlink:href="#DejaVuSans-33" x="190.869141"/>
       <use xlink:href="#DejaVuSans-2d" x="254.492188"/>
       <use xlink:href="#DejaVuSans-30" x="290.576172"/>
       <use xlink:href="#DejaVuSans-33" x="354.199219"/>
       <use xlink:href="#DejaVuSans-2d" x="417.822266"/>
       <use xlink:href="#DejaVuSans-32" x="453.90625"/>
       <use xlink:href="#DejaVuSans-38" x="517.529297"/>
      </g>
     </g>
    </g>
    <g id="xtick_16">
     <g id="line2d_16">
      <g>
       <use xlink:href="#mc3152fedff" x="940.074841" y="395.28" style="stroke: #000000; stroke-width: 0.8"/>
      </g>
     </g>
     <g id="text_16">
      <!-- 2023-04-15 -->
      <g transform="translate(854.945813 495.213718) rotate(-45) scale(0.2 -0.2)">
       <use xlink:href="#DejaVuSans-32"/>
       <use xlink:href="#DejaVuSans-30" x="63.623047"/>
       <use xlink:href="#DejaVuSans-32" x="127.246094"/>
       <use xlink:href="#DejaVuSans-33" x="190.869141"/>
       <use xlink:href="#DejaVuSans-2d" x="254.492188"/>
       <use xlink:href="#DejaVuSans-30" x="290.576172"/>
       <use xlink:href="#DejaVuSans-34" x="354.199219"/>
       <use xlink:href="#DejaVuSans-2d" x="417.822266"/>
       <use xlink:href="#DejaVuSans-31" x="453.90625"/>
       <use xlink:href="#DejaVuSans-35" x="517.529297"/>
      </g>
     </g>
    </g>
   </g>
   <g id="matplotlib.axis_2">
    <g id="ytick_1">
     <g id="line2d_17">
      <defs>
       <path id="mb254b41102" d="M 0 0 
L -3.5 0 
" style="stroke: #000000; stroke-width: 0.8"/>
      </defs>
      <g>
       <use xlink:href="#mb254b41102" x="103.074841" y="337.624796" style="stroke: #000000; stroke-width: 0.8"/>
      </g>
     </g>
     <g id="text_17">
      <!-- 0.10 -->
      <g transform="translate(34.784216 345.223234) scale(0.2 -0.2)">
       <defs>
        <path id="DejaVuSans-2212" d="M 678 2272 
L 4684 2272 
L 4684 1741 
L 678 1741 
L 678 2272 
z
" transform="scale(0.015625)"/>
        <path id="DejaVuSans-2e" d="M 684 794 
L 1344 794 
L 1344 0 
L 684 0 
L 684 794 
z
" transform="scale(0.015625)"/>
       </defs>
       <use xlink:href="#DejaVuSans-2212"/>
       <use xlink:href="#DejaVuSans-30" x="83.789062"/>
       <use xlink:href="#DejaVuSans-2e" x="147.412109"/>
       <use xlink:href="#DejaVuSans-31" x="179.199219"/>
       <use xlink:href="#DejaVuSans-30" x="242.822266"/>
      </g>
     </g>
    </g>
    <g id="ytick_2">
     <g id="line2d_18">
      <g>
       <use xlink:href="#mb254b41102" x="103.074841" y="276.449564" style="stroke: #000000; stroke-width: 0.8"/>
      </g>
     </g>
     <g id="text_18">
      <!-- 0.05 -->
      <g transform="translate(34.784216 284.048002) scale(0.2 -0.2)">
       <use xlink:href="#DejaVuSans-2212"/>
       <use xlink:href="#DejaVuSans-30" x="83.789062"/>
       <use xlink:href="#DejaVuSans-2e" x="147.412109"/>
       <use xlink:href="#DejaVuSans-30" x="179.199219"/>
       <use xlink:href="#DejaVuSans-35" x="242.822266"/>
      </g>
     </g>
    </g>
    <g id="ytick_3">
     <g id="line2d_19">
      <g>
       <use xlink:href="#mb254b41102" x="103.074841" y="215.274332" style="stroke: #000000; stroke-width: 0.8"/>
      </g>
     </g>
     <g id="text_19">
      <!-- 0.00 -->
      <g transform="translate(51.543591 222.872769) scale(0.2 -0.2)">
       <use xlink:href="#DejaVuSans-30"/>
       <use xlink:href="#DejaVuSans-2e" x="63.623047"/>
       <use xlink:href="#DejaVuSans-30" x="95.410156"/>
       <use xlink:href="#DejaVuSans-30" x="159.033203"/>
      </g>
     </g>
    </g>
    <g id="ytick_4">
     <g id="line2d_20">
      <g>
       <use xlink:href="#mb254b41102" x="103.074841" y="154.0991" style="stroke: #000000; stroke-width: 0.8"/>
      </g>
     </g>
     <g id="text_20">
      <!-- 0.05 -->
      <g transform="translate(51.543591 161.697537) scale(0.2 -0.2)">
       <use xlink:href="#DejaVuSans-30"/>
       <use xlink:href="#DejaVuSans-2e" x="63.623047"/>
       <use xlink:href="#DejaVuSans-30" x="95.410156"/>
       <use xlink:href="#DejaVuSans-35" x="159.033203"/>
      </g>
     </g>
    </g>
    <g id="ytick_5">
     <g id="line2d_21">
      <g>
       <use xlink:href="#mb254b41102" x="103.074841" y="92.923867" style="stroke: #000000; stroke-width: 0.8"/>
      </g>
     </g>
     <g id="text_21">
      <!-- 0.10 -->
      <g transform="translate(51.543591 100.522305) scale(0.2 -0.2)">
       <use xlink:href="#DejaVuSans-30"/>
       <use xlink:href="#DejaVuSans-2e" x="63.623047"/>
       <use xlink:href="#DejaVuSans-31" x="95.410156"/>
       <use xlink:href="#DejaVuSans-30" x="159.033203"/>
      </g>
     </g>
    </g>
    <g id="ytick_6">
     <g id="line2d_22">
      <g>
       <use xlink:href="#mb254b41102" x="103.074841" y="31.748635" style="stroke: #000000; stroke-width: 0.8"/>
      </g>
     </g>
     <g id="text_22">
      <!-- 0.15 -->
      <g transform="translate(51.543591 39.347073) scale(0.2 -0.2)">
       <use xlink:href="#DejaVuSans-30"/>
       <use xlink:href="#DejaVuSans-2e" x="63.623047"/>
       <use xlink:href="#DejaVuSans-31" x="95.410156"/>
       <use xlink:href="#DejaVuSans-35" x="159.033203"/>
      </g>
     </g>
    </g>
   </g>
   <g id="line2d_23">
    <path d="M 566.487036 155.185492 
L 572.611426 155.185492 
L 574.652889 170.27903 
L 576.694353 170.27903 
L 578.735816 142.869485 
L 580.77728 146.983504 
L 590.984597 146.983504 
L 593.02606 165.486169 
L 595.067524 165.486169 
L 597.108987 133.966867 
L 603.233377 133.966867 
L 605.274841 171.96677 
L 607.316304 46.731463 
L 609.357768 81.354122 
L 611.399231 127.950072 
L 615.482158 127.950072 
L 617.523621 115.306849 
L 619.565085 104.132956 
L 621.606548 94.845611 
L 623.648011 108.118426 
L 625.689475 108.118426 
L 627.730938 100.677371 
L 629.772402 83.113878 
L 631.813865 75.926891 
L 633.855328 59.971931 
L 635.896792 24.84 
L 637.938255 167.371525 
L 639.979719 133.279669 
L 642.021182 113.136182 
L 644.062646 106.493762 
L 646.104109 99.260431 
L 650.187036 121.379997 
L 652.228499 134.096302 
L 654.269963 125.801759 
L 656.311426 120.370403 
L 658.352889 122.971883 
L 660.394353 144.696977 
L 662.435816 152.542778 
L 664.47728 176.845948 
L 666.518743 206.315977 
L 668.560207 196.915307 
L 670.60167 241.430791 
L 672.643133 216.678935 
L 674.684597 210.295576 
L 676.72606 225.177571 
L 678.767524 210.219374 
L 680.808987 214.180267 
L 682.85045 185.410571 
L 684.891914 182.079064 
L 686.933377 186.115094 
L 688.974841 190.883216 
L 691.016304 180.168742 
L 693.057768 176.513833 
L 695.099231 164.44997 
L 697.140694 146.631814 
L 699.182158 135.533802 
L 701.223621 114.424991 
L 703.265085 143.467014 
L 705.306548 161.748563 
L 707.348011 149.242968 
L 709.389475 171.640996 
L 711.430938 144.664174 
L 713.472402 181.675214 
L 715.513865 182.951744 
L 717.555328 182.890833 
L 719.596792 178.480257 
L 721.638255 187.689763 
L 723.679719 189.721055 
L 725.721182 187.820929 
L 727.762646 197.872724 
L 729.804109 201.769523 
L 731.845572 208.476565 
L 733.887036 211.368943 
L 735.928499 201.848079 
L 737.969963 189.615137 
L 740.011426 183.264105 
L 742.052889 218.047007 
L 744.094353 201.635435 
L 746.135816 204.342657 
L 748.17728 206.366938 
L 750.218743 216.903152 
L 752.260207 217.667302 
L 754.30167 223.860374 
L 756.343133 233.038907 
L 758.384597 222.78375 
L 760.42606 218.244056 
L 762.467524 212.619821 
L 764.508987 210.525324 
L 766.55045 223.033114 
L 768.591914 264.926553 
L 770.633377 268.147127 
L 772.674841 266.915246 
L 774.716304 271.733448 
L 776.757768 272.254065 
L 778.799231 273.109104 
L 780.840694 272.323219 
L 782.882158 268.902437 
L 784.923621 259.944323 
L 786.965085 264.048852 
L 789.006548 270.988972 
L 791.048011 288.18736 
L 793.089475 288.227211 
L 795.130938 285.371514 
L 797.172402 277.128819 
L 799.213865 242.891254 
L 801.255328 250.658486 
L 803.296792 240.148705 
L 807.379719 255.614459 
L 809.421182 268.682954 
L 811.462646 240.726491 
L 813.504109 226.614415 
L 815.545572 235.137923 
L 817.587036 226.913606 
L 819.628499 239.654412 
L 821.669963 218.940693 
L 823.711426 238.84852 
L 825.752889 238.84852 
L 827.794353 206.78892 
L 829.835816 219.587897 
L 831.87728 209.18353 
L 833.918743 195.946591 
L 835.960207 194.140795 
L 838.00167 155.103534 
L 840.043133 140.611957 
L 842.084597 174.691663 
L 844.12606 199.330301 
L 846.167524 194.536639 
L 848.208987 201.30902 
L 850.25045 187.546446 
L 852.291914 201.212971 
L 854.333377 183.654554 
L 856.374841 183.654554 
L 858.416304 241.180806 
L 860.457768 249.126567 
L 862.499231 249.126567 
L 864.540694 286.068991 
L 866.582158 280.271232 
M 903.328499 121.254012 
L 905.369963 234.857362 
M 940.074841 215.274332 
" clip-path="url(#p33eb9ac078)" style="fill: none; stroke: #ffa500; stroke-width: 1.5; stroke-linecap: square"/>
   </g>
   <g id="line2d_24">
    <path d="M 103.074841 215.274332 
L 948.274841 215.274332 
" clip-path="url(#p33eb9ac078)" style="fill: none; stroke-dasharray: 7.4,3.2; stroke-dashoffset: 0; stroke: #000000; stroke-width: 2"/>
   </g>
   <g id="patch_3">
    <path d="M 103.074841 395.28 
L 103.074841 7.2 
" style="fill: none; stroke: #000000; stroke-width: 0.8; stroke-linejoin: miter; stroke-linecap: square"/>
   </g>
   <g id="patch_4">
    <path d="M 940.074841 395.28 
L 940.074841 7.2 
" style="fill: none; stroke: #000000; stroke-width: 0.8; stroke-linejoin: miter; stroke-linecap: square"/>
   </g>
   <g id="patch_5">
    <path d="M 103.074841 395.28 
L 940.074841 395.28 
" style="fill: none; stroke: #000000; stroke-width: 0.8; stroke-linejoin: miter; stroke-linecap: square"/>
   </g>
   <g id="patch_6">
    <path d="M 103.074841 7.2 
L 940.074841 7.2 
" style="fill: none; stroke: #000000; stroke-width: 0.8; stroke-linejoin: miter; stroke-linecap: square"/>
   </g>
  </g>
 </g>
 <defs>
  <clipPath id="p33eb9ac078">
   <rect x="103.074841" y="7.2" width="837" height="388.08"/>
  </clipPath>
 </defs>
</svg>
