<?xml version="1.0" encoding="utf-8" standalone="no"?>
<!DOCTYPE svg PUBLIC "-//W3C//DTD SVG 1.1//EN"
  "http://www.w3.org/Graphics/SVG/1.1/DTD/svg11.dtd">
<svg xmlns:xlink="http://www.w3.org/1999/xlink" width="947.274841pt" height="505.354841pt" viewBox="0 0 947.274841 505.354841" xmlns="http://www.w3.org/2000/svg" version="1.1">
 <metadata>
  <rdf:RDF xmlns:dc="http://purl.org/dc/elements/1.1/" xmlns:cc="http://creativecommons.org/ns#" xmlns:rdf="http://www.w3.org/1999/02/22-rdf-syntax-ns#">
   <cc:Work>
    <dc:type rdf:resource="http://purl.org/dc/dcmitype/StillImage"/>
    <dc:date>2023-11-15T18:15:54.346821</dc:date>
    <dc:format>image/svg+xml</dc:format>
    <dc:creator>
     <cc:Agent>
      <dc:title>Matplotlib v3.7.2, https://matplotlib.org/</dc:title>
     </cc:Agent>
    </dc:creator>
   </cc:Work>
  </rdf:RDF>
 </metadata>
 <defs>
  <style type="text/css">*{stroke-linejoin: round; stroke-linecap: butt}</style>
 </defs>
 <g id="figure_1">
  <g id="patch_1">
   <path d="M 0 505.354841 
L 947.274841 505.354841 
L 947.274841 -0 
L 0 -0 
z
" style="fill: #ffffff"/>
  </g>
  <g id="axes_1">
   <g id="patch_2">
    <path d="M 103.074841 395.28 
L 940.074841 395.28 
L 940.074841 7.2 
L 103.074841 7.2 
z
" style="fill: #ffffff"/>
   </g>
   <g id="PolyCollection_1">
    <path d="M -4315.31939 291.947135 
L -4315.31939 291.962911 
L -4307.271313 291.847998 
L -4299.223236 291.765664 
L -4291.175159 291.672504 
L -4283.127082 291.618765 
L -4275.079005 291.549289 
L -4267.030929 291.465532 
L -4258.982852 291.38372 
L -4250.934775 291.309919 
L -4242.886698 291.251091 
L -4234.838621 291.176787 
L -4226.790544 291.097616 
L -4218.742467 291.022796 
L -4210.69439 290.921603 
L -4202.646313 290.845414 
L -4194.598236 290.748747 
L -4186.550159 290.672845 
L -4178.502082 290.55564 
L -4170.454005 290.467913 
L -4162.405929 290.385977 
L -4154.357852 290.28165 
L -4146.309775 290.182366 
L -4138.261698 290.087709 
L -4130.213621 289.964671 
L -4122.165544 289.865266 
L -4114.117467 289.741714 
L -4106.06939 289.618015 
L -4098.021313 289.477522 
L -4089.973236 289.334043 
L -4081.925159 289.198142 
L -4073.877082 289.034056 
L -4065.829005 288.843383 
L -4057.780929 288.685379 
L -4049.732852 288.499551 
L -4041.684775 288.280286 
L -4033.636698 288.086738 
L -4025.588621 287.849461 
L -4017.540544 287.612461 
L -4009.492467 287.371037 
L -4001.44439 287.115997 
L -3993.396313 286.827403 
L -3985.348236 286.519005 
L -3977.300159 286.191456 
L -3969.252082 285.887596 
L -3961.204005 285.513324 
L -3953.155929 285.171739 
L -3945.107852 284.804908 
L -3937.059775 284.443113 
L -3929.011698 284.047459 
L -3920.963621 283.611396 
L -3912.915544 283.227055 
L -3904.867467 282.783782 
L -3896.81939 282.32408 
L -3888.771313 281.882757 
L -3880.723236 281.453318 
L -3872.675159 280.974318 
L -3864.627082 280.492232 
L -3856.579005 280.015494 
L -3848.530929 279.514515 
L -3840.482852 279.009199 
L -3832.434775 278.509173 
L -3824.386698 277.987633 
L -3816.338621 277.467758 
L -3808.290544 276.962923 
L -3800.242467 276.430213 
L -3792.19439 275.845614 
L -3784.146313 275.288788 
L -3776.098236 274.735517 
L -3768.050159 274.195933 
L -3760.002082 273.624236 
L -3751.954005 273.071537 
L -3743.905929 272.504411 
L -3735.857852 272.015471 
L -3727.809775 271.394292 
L -3719.761698 270.886566 
L -3711.713621 270.304973 
L -3703.665544 269.760392 
L -3695.617467 269.174596 
L -3687.56939 268.667993 
L -3679.521313 268.052759 
L -3671.473236 267.499354 
L -3663.425159 266.993285 
L -3655.377082 266.420966 
L -3647.329005 265.888438 
L -3639.280929 265.330072 
L -3631.232852 264.765417 
L -3623.184775 264.227654 
L -3615.136698 263.704225 
L -3607.088621 263.122705 
L -3599.040544 262.58802 
L -3590.992467 262.035398 
L -3582.94439 261.493104 
L -3574.896313 260.965991 
L -3566.848236 260.420833 
L -3558.800159 259.881336 
L -3550.752082 259.415808 
L -3542.704005 258.856923 
L -3534.655929 258.328284 
L -3526.607852 257.809462 
L -3518.559775 257.287472 
L -3510.511698 256.765158 
L -3502.463621 256.231245 
L -3494.415544 255.729504 
L -3486.367467 255.197593 
L -3478.31939 254.646059 
L -3470.271313 254.08505 
L -3462.223236 253.515082 
L -3454.175159 252.993433 
L -3446.127082 252.399884 
L -3438.079005 251.754797 
L -3430.030929 251.16161 
L -3421.982852 250.526659 
L -3413.934775 249.880725 
L -3405.886698 249.189752 
L -3397.838621 248.48516 
L -3389.790544 247.847102 
L -3381.742467 247.093304 
L -3373.69439 246.389832 
L -3365.646313 245.619846 
L -3357.598236 244.933155 
L -3349.550159 244.091473 
L -3341.502082 243.274284 
L -3333.454005 242.489173 
L -3325.405929 241.689604 
L -3317.357852 240.86163 
L -3309.309775 239.989523 
L -3301.261698 239.190439 
L -3293.213621 238.244782 
L -3285.165544 237.445697 
L -3277.117467 236.472601 
L -3269.06939 235.541223 
L -3261.021313 234.641695 
L -3252.973236 233.793326 
L -3244.925159 232.764449 
L -3236.877082 231.864976 
L -3228.829005 230.653752 
L -3220.780929 229.654779 
L -3212.732852 228.748362 
L -3204.684775 227.694596 
L -3196.636698 226.61317 
L -3188.588621 225.330676 
L -3180.540544 224.156157 
L -3172.492467 223.23602 
L -3164.44439 221.604515 
L -3156.396313 220.369583 
L -3148.348236 219.112227 
L -3140.300159 217.808951 
L -3132.252082 216.288505 
L -3124.204005 214.896236 
L -3116.155929 213.958989 
L -3108.107852 212.672687 
L -3100.059775 210.304808 
L -3092.011698 208.399861 
L -3083.963621 207.128761 
L -3075.915544 205.207165 
L -3067.867467 203.714676 
L -3059.81939 202.502667 
L -3051.771313 200.407546 
L -3043.723236 197.962588 
L -3035.675159 196.482267 
L -3027.627082 195.759706 
L -3019.579005 193.857533 
L -3011.530929 193.355535 
L -3003.482852 192.188915 
L -2995.434775 190.114232 
L -2987.386698 190.298155 
L -2979.338621 191.448384 
L -2971.290544 193.754907 
L -2963.242467 191.682643 
L -2955.19439 196.572079 
L -2947.146313 198.035832 
L -2939.098236 191.9876 
L -2931.050159 194.028718 
L -2923.002082 197.100845 
L -2914.954005 195.684241 
L -2906.905929 195.573804 
L -2898.857852 207.783336 
L -2890.809775 225.102712 
L -2882.761698 233.979756 
L -2874.713621 215.831836 
L -2866.665544 225.801313 
L -2858.617467 238.515832 
L -2850.56939 238.182514 
L -2842.521313 263.815123 
L -2834.473236 260.613277 
L -2826.425159 253.381873 
L -2818.377082 234.375747 
L -2810.329005 252.79811 
L -2802.280929 263.87794 
L -2794.232852 259.377573 
L -2786.184775 262.655852 
L -2778.136698 272.931494 
L -2770.088621 271.781857 
L -2762.040544 263.583846 
L -2753.992467 274.632245 
L -2745.94439 277.437152 
L -2737.896313 273.65287 
L -2729.848236 281.5621 
L -2721.800159 284.796575 
L -2713.752082 284.622898 
L -2705.704005 282.673438 
L -2697.655929 285.72665 
L -2689.607852 283.602656 
L -2681.559775 284.381666 
L -2673.511698 287.453978 
L -2665.463621 285.847936 
L -2657.415544 287.700346 
L -2649.367467 288.506228 
L -2641.31939 287.188217 
L -2633.271313 288.649718 
L -2625.223236 286.186099 
L -2617.175159 287.524572 
L -2609.127082 289.130743 
L -2601.079005 290.128793 
L -2593.030929 289.536822 
L -2584.982852 289.15666 
L -2576.934775 289.741842 
L -2568.886698 289.606207 
L -2560.838621 290.443294 
L -2552.790544 291.233965 
L -2544.742467 290.367696 
L -2536.69439 292.478581 
L -2528.646313 292.279084 
L -2520.598236 292.629258 
L -2512.550159 294.156405 
L -2504.502082 294.082914 
L -2496.454005 294.958296 
L -2488.405929 296.597606 
L -2480.357852 298.540362 
L -2472.309775 297.73243 
L -2464.261698 297.959222 
L -2456.213621 299.319751 
L -2448.165544 303.982196 
L -2440.117467 305.360693 
L -2432.06939 307.950624 
L -2424.021313 305.868774 
L -2415.973236 305.167084 
L -2407.925159 307.021289 
L -2399.877082 310.555529 
L -2391.829005 312.164415 
L -2383.780929 309.594212 
L -2375.732852 314.164503 
L -2367.684775 314.079515 
L -2359.636698 315.142288 
L -2351.588621 314.436732 
L -2343.540544 317.228405 
L -2335.492467 317.822059 
L -2327.44439 320.2027 
L -2319.396313 320.186034 
L -2311.348236 320.613426 
L -2303.300159 320.300134 
L -2295.252082 321.008975 
L -2287.204005 321.772631 
L -2279.155929 322.069282 
L -2271.107852 323.521681 
L -2263.059775 323.928612 
L -2255.011698 324.319296 
L -2246.963621 323.315081 
L -2238.915544 322.702099 
L -2230.867467 323.233884 
L -2222.81939 322.48709 
L -2214.771313 323.811941 
L -2206.723236 323.647207 
L -2198.675159 322.427268 
L -2190.627082 321.76549 
L -2182.579005 321.628413 
L -2174.530929 320.291147 
L -2166.482852 320.340312 
L -2158.434775 319.433769 
L -2150.386698 318.879046 
L -2142.338621 317.867553 
L -2134.290544 316.767703 
L -2126.242467 315.997539 
L -2118.19439 315.006947 
L -2110.146313 314.344373 
L -2102.098236 312.794374 
L -2094.050159 311.543532 
L -2086.002082 310.208256 
L -2077.954005 309.646652 
L -2069.905929 308.221138 
L -2061.857852 307.153544 
L -2053.809775 305.815106 
L -2045.761698 303.363947 
L -2037.713621 303.001206 
L -2029.665544 301.199423 
L -2021.617467 300.020229 
L -2013.56939 298.574717 
L -2005.521313 296.726943 
L -1997.473236 295.180454 
L -1989.425159 293.731928 
L -1981.377082 291.405069 
L -1973.329005 290.373475 
L -1965.280929 288.203451 
L -1957.232852 287.395468 
L -1949.184775 285.173301 
L -1941.136698 283.073717 
L -1933.088621 281.541766 
L -1925.040544 280.60303 
L -1916.992467 277.950864 
L -1908.94439 276.672665 
L -1900.896313 274.641709 
L -1892.848236 273.400893 
L -1884.800159 271.176667 
L -1876.752082 269.368641 
L -1868.704005 270.990728 
L -1860.655929 265.647639 
L -1852.607852 266.477006 
L -1844.559775 264.210248 
L -1836.511698 263.077083 
L -1828.463621 261.397429 
L -1820.415544 259.586755 
L -1812.367467 257.944255 
L -1804.31939 256.622803 
L -1796.271313 255.5044 
L -1788.223236 254.187652 
L -1780.175159 258.300645 
L -1772.127082 250.912219 
L -1764.079005 250.745158 
L -1756.030929 258.854952 
L -1747.982852 250.275081 
L -1739.934775 253.240501 
L -1731.886698 253.560833 
L -1723.838621 249.348504 
L -1715.790544 251.700264 
L -1707.742467 257.543771 
L -1699.69439 254.703279 
L -1691.646313 254.124939 
L -1683.598236 258.393121 
L -1675.550159 258.240672 
L -1667.502082 261.103098 
L -1659.454005 265.087586 
L -1651.405929 270.044725 
L -1643.357852 282.807615 
L -1635.309775 280.179427 
L -1627.261698 286.901935 
L -1619.213621 292.121792 
L -1611.165544 295.299209 
L -1603.117467 301.957307 
L -1595.06939 305.824643 
L -1587.021313 297.987847 
L -1578.973236 305.206979 
L -1570.925159 315.50391 
L -1562.877082 320.250855 
L -1554.829005 321.083897 
L -1546.780929 333.768526 
L -1538.732852 334.144607 
L -1530.684775 336.262243 
L -1522.636698 335.69241 
L -1514.588621 345.642927 
L -1506.540544 341.348852 
L -1498.492467 339.195326 
L -1490.44439 346.551102 
L -1482.396313 354.012995 
L -1474.348236 351.248256 
L -1466.300159 354.30839 
L -1458.252082 354.919326 
L -1450.204005 354.219757 
L -1442.155929 352.374176 
L -1434.107852 353.545197 
L -1426.059775 353.649327 
L -1418.011698 360.338423 
L -1409.963621 354.777138 
L -1401.915544 360.449138 
L -1393.867467 358.044755 
L -1385.81939 355.714561 
L -1377.771313 357.810882 
L -1369.723236 358.160012 
L -1361.675159 353.951762 
L -1353.627082 353.813194 
L -1345.579005 352.315733 
L -1337.530929 355.392535 
L -1329.482852 352.439147 
L -1321.434775 350.769857 
L -1313.386698 349.43842 
L -1305.338621 350.512311 
L -1297.290544 348.407939 
L -1289.242467 345.5287 
L -1281.19439 345.052436 
L -1273.146313 340.915015 
L -1265.098236 339.936436 
L -1257.050159 343.417819 
L -1249.002082 342.293493 
L -1240.954005 338.593076 
L -1232.905929 336.138487 
L -1224.857852 335.297654 
L -1216.809775 331.284053 
L -1208.761698 330.657103 
L -1200.713621 329.829291 
L -1192.665544 328.317411 
L -1184.617467 325.635836 
L -1176.56939 321.98606 
L -1168.521313 323.007264 
L -1160.473236 320.450993 
L -1152.425159 320.062364 
L -1144.377082 318.15177 
L -1136.329005 318.47919 
L -1128.280929 315.220458 
L -1120.232852 310.989164 
L -1112.184775 310.136975 
L -1104.136698 306.771911 
L -1096.088621 301.964602 
L -1088.040544 303.583611 
L -1079.992467 298.537982 
L -1071.94439 300.469781 
L -1063.896313 298.935968 
L -1055.848236 299.177683 
L -1047.800159 295.402647 
L -1039.752082 294.905979 
L -1031.704005 294.240605 
L -1023.655929 287.896233 
L -1015.607852 289.951613 
L -1007.559775 289.101793 
L -999.511698 288.648342 
L -991.463621 286.309144 
L -983.415544 287.071941 
L -975.367467 284.589404 
L -967.31939 283.179644 
L -959.271313 278.384347 
L -951.223236 276.656566 
L -943.175159 274.952881 
L -935.127082 273.552584 
L -927.079005 273.658014 
L -919.030929 272.252853 
L -910.982852 269.18173 
L -902.934775 269.177186 
L -894.886698 266.917819 
L -886.838621 266.290827 
L -878.790544 265.498427 
L -870.742467 265.527828 
L -862.69439 262.573567 
L -854.646313 256.141643 
L -846.598236 260.712561 
L -838.550159 259.374978 
L -830.502082 258.020807 
L -822.454005 256.498498 
L -814.405929 252.842905 
L -806.357852 252.431776 
L -798.309775 249.715097 
L -790.261698 249.085746 
L -782.213621 247.32313 
L -774.165544 243.7679 
L -766.117467 240.489598 
L -758.06939 243.966875 
L -750.021313 242.180776 
L -741.973236 237.609124 
L -733.925159 238.402039 
L -725.877082 232.94008 
L -717.829005 230.132185 
L -709.780929 230.881931 
L -701.732852 226.562225 
L -693.684775 231.943818 
L -685.636698 225.108927 
L -677.588621 219.787241 
L -669.540544 221.412987 
L -661.492467 222.283492 
L -653.44439 220.613882 
L -645.396313 221.687295 
L -637.348236 217.129339 
L -629.300159 221.285718 
L -621.252082 214.88021 
L -613.204005 214.009568 
L -605.155929 211.394746 
L -597.107852 206.503355 
L -589.059775 209.33101 
L -581.011698 215.245505 
L -572.963621 204.75683 
L -564.915544 205.115682 
L -556.867467 199.18258 
L -548.81939 202.25323 
L -540.771313 196.865538 
L -532.723236 194.427348 
L -524.675159 190.739444 
L -516.627082 193.807499 
L -508.579005 190.826852 
L -500.530929 192.346111 
L -492.482852 190.19612 
L -484.434775 179.369793 
L -476.386698 183.787219 
L -468.338621 178.824142 
L -460.290544 181.546937 
L -452.242467 178.700817 
L -444.19439 183.14599 
L -436.146313 184.795054 
L -428.098236 183.5653 
L -420.050159 191.482297 
L -412.002082 202.540964 
L -403.954005 183.924686 
L -395.905929 184.193987 
L -387.857852 179.398416 
L -379.809775 183.696671 
L -371.761698 183.654411 
L -363.713621 182.29027 
L -355.665544 196.15552 
L -347.617467 194.024445 
L -339.56939 179.720073 
L -331.521313 190.481332 
L -323.473236 185.800464 
L -315.425159 177.634233 
L -307.377082 191.987826 
L -299.329005 189.055868 
L -291.280929 195.880057 
L -283.232852 186.80548 
L -275.184775 182.876345 
L -267.136698 187.569356 
L -259.088621 185.256999 
L -251.040544 191.536775 
L -242.992467 183.475097 
L -234.94439 194.002394 
L -226.896313 186.441322 
L -218.848236 189.073066 
L -210.800159 185.168072 
L -202.752082 189.493464 
L -194.704005 177.694356 
L -186.655929 189.623204 
L -178.607852 185.007428 
L -170.559775 194.642874 
L -162.511698 192.148008 
L -154.463621 196.516134 
L -146.415544 192.287749 
L -138.367467 194.502254 
L -130.31939 201.962355 
L -122.271313 193.447338 
L -114.223236 189.719796 
L -106.175159 192.565879 
L -98.127082 196.518636 
L -90.079005 188.395024 
L -82.030929 182.779136 
L -73.982852 195.589068 
L -65.934775 207.165563 
L -57.886698 186.811307 
L -49.838621 189.887479 
L -41.790544 191.29715 
L -33.742467 191.841494 
L -25.69439 197.911201 
L -17.646313 197.548436 
L -9.598236 193.631975 
L -1.550159 195.814391 
L 6.497918 196.182384 
L 14.545995 189.795277 
L 22.594071 192.577637 
L 30.642148 190.388959 
L 38.690225 198.512052 
L 46.738302 214.827927 
L 54.786379 210.1555 
L 62.834456 198.155404 
L 70.882533 196.947861 
L 78.93061 197.761905 
L 86.978687 197.849069 
L 95.026764 205.243249 
L 103.074841 195.097543 
L 111.122918 205.095447 
L 119.170995 218.379476 
L 127.219071 205.785038 
L 135.267148 226.229598 
L 143.315225 209.083505 
L 151.363302 223.858295 
L 159.411379 214.002261 
L 167.459456 217.716778 
L 175.507533 228.163168 
L 183.55561 226.972534 
L 191.603687 229.701416 
L 199.651764 228.59413 
L 207.699841 228.766987 
L 215.747918 205.106447 
L 223.795995 238.071905 
L 231.844071 253.448053 
L 239.892148 237.244688 
L 247.940225 245.441766 
L 255.988302 254.743437 
L 264.036379 240.505351 
L 272.084456 255.273566 
L 280.132533 266.860931 
L 288.18061 258.652299 
L 296.228687 264.732445 
L 304.276764 267.384787 
L 312.324841 268.633402 
L 320.372918 271.58639 
L 328.420995 253.256518 
L 336.469071 286.670051 
L 344.517148 286.328393 
L 352.565225 285.535256 
L 360.613302 262.556886 
L 368.661379 291.059577 
L 376.709456 306.101295 
L 384.757533 290.969034 
L 392.80561 290.168949 
L 400.853687 315.712967 
L 408.901764 265.721319 
L 416.949841 309.357936 
L 424.997918 276.086862 
L 433.045995 322.023759 
L 441.094071 302.328897 
L 449.142148 319.309356 
L 457.190225 323.565294 
L 465.238302 327.667425 
L 473.286379 328.999276 
L 481.334456 318.192539 
L 489.382533 319.149788 
L 497.43061 328.43144 
L 505.478687 339.42651 
L 513.526764 339.11973 
L 521.574841 336.991672 
L 529.622918 348.245488 
L 537.670995 347.356683 
L 545.719071 337.714774 
L 553.767148 335.615269 
L 561.815225 357.130251 
L 569.863302 358.116117 
L 577.911379 361.829668 
L 585.959456 349.648964 
L 594.007533 322.417492 
L 602.05561 349.725314 
L 610.103687 341.58074 
L 618.151764 347.964503 
L 626.199841 356.945396 
L 634.247918 343.079771 
L 642.295995 359.629605 
L 650.344071 344.852687 
L 658.392148 343.696002 
L 666.440225 344.51818 
L 674.488302 354.230335 
L 682.536379 352.551103 
L 690.584456 349.820044 
L 698.632533 338.338985 
L 706.68061 343.774368 
L 714.728687 347.709244 
L 722.776764 342.348569 
L 730.824841 350.241567 
L 738.872918 343.054963 
L 746.920995 348.097853 
L 754.969071 356.534128 
L 763.017148 354.765109 
L 771.065225 345.599065 
L 779.113302 345.498384 
L 787.161379 343.563731 
L 795.209456 347.306754 
L 803.257533 346.928578 
L 811.30561 332.228121 
L 819.353687 343.388036 
L 827.401764 275.457965 
L 835.449841 342.939413 
L 843.497918 347.368322 
L 851.545995 337.309374 
L 859.594071 326.871439 
L 867.642148 346.557689 
L 875.690225 337.547343 
L 883.738302 321.88246 
L 891.786379 331.600317 
L 899.834456 331.718047 
L 907.882533 327.375147 
L 915.93061 336.637948 
L 923.978687 329.613621 
L 932.026764 333.086426 
L 940.074841 335.168247 
L 940.074841 241.506054 
L 940.074841 241.506054 
L 932.026764 247.785818 
L 923.978687 245.071744 
L 915.93061 247.821794 
L 907.882533 243.593279 
L 899.834456 245.517711 
L 891.786379 243.776078 
L 883.738302 245.034121 
L 875.690225 250.072593 
L 867.642148 250.897418 
L 859.594071 247.564931 
L 851.545995 248.52508 
L 843.497918 254.12059 
L 835.449841 250.757336 
L 827.401764 235.862468 
L 819.353687 252.567278 
L 811.30561 250.824933 
L 803.257533 254.068903 
L 795.209456 254.615235 
L 787.161379 253.870912 
L 779.113302 256.006074 
L 771.065225 256.299935 
L 763.017148 259.203486 
L 754.969071 260.225339 
L 746.920995 258.94354 
L 738.872918 257.852085 
L 730.824841 259.417783 
L 722.776764 256.870138 
L 714.728687 258.676831 
L 706.68061 258.57566 
L 698.632533 257.340441 
L 690.584456 261.734658 
L 682.536379 262.901531 
L 674.488302 264.882383 
L 666.440225 260.49785 
L 658.392148 261.421405 
L 650.344071 262.638313 
L 642.295995 267.348842 
L 634.247918 262.212538 
L 626.199841 267.218123 
L 618.151764 264.27437 
L 610.103687 262.61327 
L 602.05561 265.586938 
L 594.007533 257.881225 
L 585.959456 265.760758 
L 577.911379 271.159167 
L 569.863302 270.153576 
L 561.815225 269.72751 
L 553.767148 264.088422 
L 545.719071 263.961006 
L 537.670995 267.583648 
L 529.622918 267.712814 
L 521.574841 264.101636 
L 513.526764 264.678216 
L 505.478687 265.858347 
L 497.43061 259.640568 
L 489.382533 257.983643 
L 481.334456 257.619077 
L 473.286379 262.397009 
L 465.238302 261.890898 
L 457.190225 259.393397 
L 449.142148 257.625988 
L 441.094071 250.099536 
L 433.045995 258.78552 
L 424.997918 237.572736 
L 416.949841 254.347608 
L 408.901764 229.709159 
L 400.853687 256.673447 
L 392.80561 243.5319 
L 384.757533 244.269287 
L 376.709456 252.91846 
L 368.661379 244.502271 
L 360.613302 228.01059 
L 352.565225 242.135914 
L 344.517148 241.995578 
L 336.469071 241.416379 
L 328.420995 221.231998 
L 320.372918 236.982059 
L 312.324841 231.245802 
L 304.276764 230.15945 
L 296.228687 228.637217 
L 288.18061 224.80147 
L 280.132533 229.90203 
L 272.084456 223.080604 
L 264.036379 212.661518 
L 255.988302 219.636249 
L 247.940225 214.489068 
L 239.892148 208.80952 
L 231.844071 219.270288 
L 223.795995 208.673625 
L 215.747918 178.301426 
L 207.699841 201.302043 
L 199.651764 202.599829 
L 191.603687 202.211828 
L 183.55561 200.491445 
L 175.507533 200.409563 
L 167.459456 192.272416 
L 159.411379 188.383216 
L 151.363302 196.010127 
L 143.315225 185.5595 
L 135.267148 197.6966 
L 127.219071 181.068754 
L 119.170995 192.435277 
L 111.122918 180.687053 
L 103.074841 167.281119 
L 95.026764 181.078953 
L 86.978687 168.770944 
L 78.93061 170.386444 
L 70.882533 168.945638 
L 62.834456 171.017809 
L 54.786379 183.703826 
L 46.738302 186.854924 
L 38.690225 172.693697 
L 30.642148 159.41031 
L 22.594071 163.429576 
L 14.545995 159.926621 
L 6.497918 170.278114 
L -1.550159 169.654861 
L -9.598236 166.915817 
L -17.646313 170.960112 
L -25.69439 172.477706 
L -33.742467 165.103387 
L -41.790544 165.023974 
L -49.838621 162.809943 
L -57.886698 158.821101 
L -65.934775 177.032819 
L -73.982852 168.517374 
L -82.030929 154.355335 
L -90.079005 159.817233 
L -98.127082 166.95959 
L -106.175159 163.379477 
L -114.223236 160.652184 
L -122.271313 162.978888 
L -130.31939 168.706322 
L -138.367467 163.860208 
L -146.415544 160.458413 
L -154.463621 163.572957 
L -162.511698 162.043582 
L -170.559775 160.917264 
L -178.607852 153.894643 
L -186.655929 155.759227 
L -194.704005 145.49412 
L -202.752082 156.033278 
L -210.800159 151.301782 
L -218.848236 154.081093 
L -226.896313 149.422482 
L -234.94439 157.224409 
L -242.992467 147.985608 
L -251.040544 152.609166 
L -259.088621 147.196573 
L -267.136698 148.015364 
L -275.184775 142.74254 
L -283.232852 148.992878 
L -291.280929 154.783052 
L -299.329005 145.871274 
L -307.377082 149.112737 
L -315.425159 135.312133 
L -323.473236 140.72571 
L -331.521313 146.474554 
L -339.56939 135.927438 
L -347.617467 150.271296 
L -355.665544 147.612227 
L -363.713621 136.398462 
L -371.761698 137.612622 
L -379.809775 136.918498 
L -387.857852 132.855402 
L -395.905929 134.564344 
L -403.954005 135.28313 
L -412.002082 151.888019 
L -420.050159 139.888208 
L -428.098236 132.790236 
L -436.146313 133.673452 
L -444.19439 132.002982 
L -452.242467 126.094494 
L -460.290544 126.649533 
L -468.338621 125.531113 
L -476.386698 126.97831 
L -484.434775 123.35049 
L -492.482852 134.137933 
L -500.530929 134.51872 
L -508.579005 131.87196 
L -516.627082 134.405913 
L -524.675159 130.724424 
L -532.723236 132.690223 
L -540.771313 135.195671 
L -548.81939 136.529088 
L -556.867467 135.145307 
L -564.915544 139.1983 
L -572.963621 139.082256 
L -581.011698 148.300255 
L -589.059775 141.356722 
L -597.107852 137.609054 
L -605.155929 141.414249 
L -613.204005 145.282054 
L -621.252082 144.648488 
L -629.300159 148.038001 
L -637.348236 143.108519 
L -645.396313 146.442296 
L -653.44439 145.259617 
L -661.492467 147.56676 
L -669.540544 146.857158 
L -677.588621 143.646177 
L -685.636698 147.319919 
L -693.684775 153.623903 
L -701.732852 148.170714 
L -709.780929 152.055916 
L -717.829005 152.177106 
L -725.877082 152.012091 
L -733.925159 157.578181 
L -741.973236 156.255482 
L -750.021313 159.598394 
L -758.06939 161.147124 
L -766.117467 157.318156 
L -774.165544 161.193185 
L -782.213621 164.084823 
L -790.261698 165.140649 
L -798.309775 165.485386 
L -806.357852 167.400283 
L -814.405929 168.52688 
L -822.454005 171.574902 
L -830.502082 173.35938 
L -838.550159 175.107653 
L -846.598236 175.806711 
L -854.646313 173.399227 
L -862.69439 177.555178 
L -870.742467 180.780219 
L -878.790544 181.344002 
L -886.838621 183.439069 
L -894.886698 182.353544 
L -902.934775 185.101666 
L -910.982852 185.704343 
L -919.030929 188.225493 
L -927.079005 189.93009 
L -935.127082 190.329313 
L -943.175159 193.106946 
L -951.223236 194.451995 
L -959.271313 196.12863 
L -967.31939 199.829161 
L -975.367467 202.452122 
L -983.415544 205.181942 
L -991.463621 205.055074 
L -999.511698 207.731933 
L -1007.559775 208.668488 
L -1015.607852 209.795195 
L -1023.655929 209.566907 
L -1031.704005 214.34079 
L -1039.752082 215.587296 
L -1047.800159 216.601519 
L -1055.848236 220.604552 
L -1063.896313 221.034646 
L -1071.94439 222.774469 
L -1079.992467 221.472787 
L -1088.040544 227.268994 
L -1096.088621 225.37289 
L -1104.136698 229.835273 
L -1112.184775 233.187372 
L -1120.232852 234.14924 
L -1128.280929 238.097928 
L -1136.329005 240.661669 
L -1144.377082 241.414255 
L -1152.425159 243.081698 
L -1160.473236 244.283269 
L -1168.521313 246.669012 
L -1176.56939 246.233521 
L -1184.617467 249.373379 
L -1192.665544 251.264904 
L -1200.713621 252.960837 
L -1208.761698 253.912111 
L -1216.809775 253.980066 
L -1224.857852 258.555237 
L -1232.905929 259.13841 
L -1240.954005 260.94616 
L -1249.002082 265.296097 
L -1257.050159 266.648955 
L -1265.098236 261.723319 
L -1273.146313 262.352125 
L -1281.19439 266.984764 
L -1289.242467 266.700799 
L -1297.290544 270.134473 
L -1305.338621 272.385665 
L -1313.386698 271.088733 
L -1321.434775 270.763752 
L -1329.482852 273.014932 
L -1337.530929 276.584097 
L -1345.579005 272.770794 
L -1353.627082 273.779479 
L -1361.675159 272.887294 
L -1369.723236 278.208019 
L -1377.771313 276.111094 
L -1385.81939 273.627015 
L -1393.867467 276.054415 
L -1401.915544 279.312694 
L -1409.963621 271.466976 
L -1418.011698 278.015459 
L -1426.059775 268.841178 
L -1434.107852 268.175563 
L -1442.155929 266.062825 
L -1450.204005 267.293175 
L -1458.252082 268.15831 
L -1466.300159 267.430253 
L -1474.348236 262.639888 
L -1482.396313 264.74081 
L -1490.44439 255.846329 
L -1498.492467 242.830046 
L -1506.540544 246.954399 
L -1514.588621 253.297994 
L -1522.636698 237.865691 
L -1530.684775 240.479195 
L -1538.732852 236.280245 
L -1546.780929 235.842981 
L -1554.829005 217.335108 
L -1562.877082 215.173127 
L -1570.925159 209.120432 
L -1578.973236 195.38246 
L -1587.021313 184.459931 
L -1595.06939 196.584968 
L -1603.117467 190.914778 
L -1611.165544 181.683429 
L -1619.213621 178.208853 
L -1627.261698 171.800613 
L -1635.309775 163.05798 
L -1643.357852 167.081905 
L -1651.405929 151.850346 
L -1659.454005 144.038789 
L -1667.502082 140.762087 
L -1675.550159 138.091957 
L -1683.598236 140.093209 
L -1691.646313 136.612398 
L -1699.69439 140.124241 
L -1707.742467 144.639003 
L -1715.790544 137.543323 
L -1723.838621 137.009889 
L -1731.886698 144.113849 
L -1739.934775 145.777687 
L -1747.982852 143.12112 
L -1756.030929 157.462372 
L -1764.079005 147.358002 
L -1772.127082 150.681024 
L -1780.175159 161.460177 
L -1788.223236 158.23685 
L -1796.271313 162.025964 
L -1804.31939 165.361988 
L -1812.367467 169.295506 
L -1820.415544 172.991006 
L -1828.463621 177.194177 
L -1836.511698 181.027438 
L -1844.559775 184.062448 
L -1852.607852 189.112449 
L -1860.655929 189.946609 
L -1868.704005 198.227959 
L -1876.752082 198.056868 
L -1884.800159 201.895655 
L -1892.848236 206.453319 
L -1900.896313 209.680806 
L -1908.94439 213.979458 
L -1916.992467 216.853696 
L -1925.040544 221.619521 
L -1933.088621 224.222888 
L -1941.136698 227.764107 
L -1949.184775 231.584194 
L -1957.232852 235.630127 
L -1965.280929 237.925587 
L -1973.329005 241.885618 
L -1981.377082 244.091528 
L -1989.425159 248.150255 
L -1997.473236 251.012103 
L -2005.521313 254.234828 
L -2013.56939 257.311806 
L -2021.617467 260.160612 
L -2029.665544 262.50463 
L -2037.713621 265.733773 
L -2045.761698 267.044488 
L -2053.809775 270.955637 
L -2061.857852 273.44752 
L -2069.905929 275.351782 
L -2077.954005 277.975767 
L -2086.002082 279.969896 
L -2094.050159 281.474387 
L -2102.098236 283.837856 
L -2110.146313 286.422908 
L -2118.19439 288.164196 
L -2126.242467 289.69024 
L -2134.290544 291.850965 
L -2142.338621 293.222415 
L -2150.386698 295.060948 
L -2158.434775 296.355191 
L -2166.482852 297.920799 
L -2174.530929 298.728805 
L -2182.579005 300.571804 
L -2190.627082 301.366143 
L -2198.675159 302.681787 
L -2206.723236 304.422347 
L -2214.771313 305.331666 
L -2222.81939 304.858192 
L -2230.867467 306.001792 
L -2238.915544 305.945537 
L -2246.963621 306.900622 
L -2255.011698 308.439269 
L -2263.059775 308.460416 
L -2271.107852 308.423173 
L -2279.155929 307.719093 
L -2287.204005 307.737996 
L -2295.252082 307.504941 
L -2303.300159 307.328035 
L -2311.348236 307.968547 
L -2319.396313 307.920135 
L -2327.44439 308.106732 
L -2335.492467 306.411599 
L -2343.540544 306.306028 
L -2351.588621 303.99761 
L -2359.636698 304.759681 
L -2367.684775 304.346526 
L -2375.732852 304.183327 
L -2383.780929 300.137102 
L -2391.829005 302.870605 
L -2399.877082 301.58596 
L -2407.925159 298.566369 
L -2415.973236 297.037523 
L -2424.021313 297.957976 
L -2432.06939 300.039201 
L -2440.117467 297.848127 
L -2448.165544 296.82113 
L -2456.213621 292.67115 
L -2464.261698 292.312642 
L -2472.309775 291.660735 
L -2480.357852 292.547588 
L -2488.405929 290.973966 
L -2496.454005 289.64916 
L -2504.502082 288.986591 
L -2512.550159 289.209256 
L -2520.598236 288.287883 
L -2528.646313 287.907109 
L -2536.69439 288.182975 
L -2544.742467 286.513244 
L -2552.790544 287.396725 
L -2560.838621 286.802216 
L -2568.886698 286.211062 
L -2576.934775 286.606503 
L -2584.982852 286.082588 
L -2593.030929 286.480046 
L -2601.079005 287.075033 
L -2609.127082 286.323508 
L -2617.175159 284.910053 
L -2625.223236 283.908549 
L -2633.271313 286.090229 
L -2641.31939 284.810514 
L -2649.367467 286.126488 
L -2657.415544 285.473011 
L -2665.463621 283.830353 
L -2673.511698 285.395311 
L -2681.559775 282.583571 
L -2689.607852 281.920536 
L -2697.655929 283.963514 
L -2705.704005 281.139418 
L -2713.752082 283.036771 
L -2721.800159 283.266089 
L -2729.848236 280.196969 
L -2737.896313 271.719939 
L -2745.94439 275.91325 
L -2753.992467 272.953518 
L -2762.040544 259.942532 
L -2770.088621 269.685934 
L -2778.136698 270.899416 
L -2786.184775 258.946455 
L -2794.232852 255.430831 
L -2802.280929 260.32969 
L -2810.329005 247.77942 
L -2818.377082 227.092819 
L -2826.425159 248.643916 
L -2834.473236 256.999416 
L -2842.521313 260.501375 
L -2850.56939 231.775584 
L -2858.617467 232.284504 
L -2866.665544 218.096222 
L -2874.713621 207.178611 
L -2882.761698 227.480467 
L -2890.809775 217.706319 
L -2898.857852 198.465653 
L -2906.905929 184.930353 
L -2914.954005 185.080862 
L -2923.002082 186.65091 
L -2931.050159 183.278682 
L -2939.098236 181.024149 
L -2947.146313 187.625176 
L -2955.19439 186.064052 
L -2963.242467 180.550081 
L -2971.290544 182.764432 
L -2979.338621 180.082543 
L -2987.386698 178.632768 
L -2995.434775 178.114269 
L -3003.482852 180.357159 
L -3011.530929 181.397951 
L -3019.579005 181.747588 
L -3027.627082 183.608177 
L -3035.675159 184.170704 
L -3043.723236 185.566297 
L -3051.771313 188.182785 
L -3059.81939 190.049929 
L -3067.867467 191.206776 
L -3075.915544 192.554766 
L -3083.963621 194.561806 
L -3092.011698 195.624387 
L -3100.059775 197.559324 
L -3108.107852 200.018363 
L -3116.155929 201.356314 
L -3124.204005 202.126857 
L -3132.252082 203.52562 
L -3140.300159 204.951406 
L -3148.348236 206.279269 
L -3156.396313 207.548921 
L -3164.44439 208.764804 
L -3172.492467 210.595441 
L -3180.540544 211.37223 
L -3188.588621 212.660946 
L -3196.636698 214.018382 
L -3204.684775 215.154805 
L -3212.732852 216.289588 
L -3220.780929 217.165473 
L -3228.829005 218.121348 
L -3236.877082 219.542452 
L -3244.925159 220.440652 
L -3252.973236 221.553337 
L -3261.021313 222.406844 
L -3269.06939 223.419873 
L -3277.117467 224.463458 
L -3285.165544 225.522306 
L -3293.213621 226.394128 
L -3301.261698 227.459402 
L -3309.309775 228.387012 
L -3317.357852 229.392885 
L -3325.405929 230.316956 
L -3333.454005 231.293293 
L -3341.502082 232.185348 
L -3349.550159 233.154238 
L -3357.598236 234.211607 
L -3365.646313 234.991955 
L -3373.69439 235.999884 
L -3381.742467 236.85614 
L -3389.790544 237.86803 
L -3397.838621 238.582014 
L -3405.886698 239.519903 
L -3413.934775 240.410927 
L -3421.982852 241.256157 
L -3430.030929 242.119561 
L -3438.079005 242.911748 
L -3446.127082 243.851388 
L -3454.175159 244.68775 
L -3462.223236 245.35956 
L -3470.271313 246.17375 
L -3478.31939 246.984926 
L -3486.367467 247.789533 
L -3494.415544 248.559613 
L -3502.463621 249.267191 
L -3510.511698 250.053138 
L -3518.559775 250.817562 
L -3526.607852 251.582622 
L -3534.655929 252.340495 
L -3542.704005 253.117708 
L -3550.752082 253.926061 
L -3558.800159 254.599858 
L -3566.848236 255.386698 
L -3574.896313 256.152057 
L -3582.94439 256.876986 
L -3590.992467 257.62592 
L -3599.040544 258.389785 
L -3607.088621 259.122611 
L -3615.136698 259.896358 
L -3623.184775 260.584089 
L -3631.232852 261.28692 
L -3639.280929 262.036373 
L -3647.329005 262.7513 
L -3655.377082 263.41777 
L -3663.425159 264.1304 
L -3671.473236 264.761206 
L -3679.521313 265.444903 
L -3687.56939 266.182254 
L -3695.617467 266.78416 
L -3703.665544 267.477461 
L -3711.713621 268.119231 
L -3719.761698 268.7988 
L -3727.809775 269.390687 
L -3735.857852 270.115247 
L -3743.905929 270.675801 
L -3751.954005 271.328875 
L -3760.002082 271.961354 
L -3768.050159 272.614434 
L -3776.098236 273.22317 
L -3784.146313 273.847583 
L -3792.19439 274.425377 
L -3800.242467 275.033847 
L -3808.290544 275.584601 
L -3816.338621 276.102123 
L -3824.386698 276.639869 
L -3832.434775 277.18633 
L -3840.482852 277.71044 
L -3848.530929 278.251401 
L -3856.579005 278.78814 
L -3864.627082 279.296085 
L -3872.675159 279.817187 
L -3880.723236 280.339499 
L -3888.771313 280.802321 
L -3896.81939 281.282031 
L -3904.867467 281.796295 
L -3912.915544 282.280062 
L -3920.963621 282.700644 
L -3929.011698 283.187515 
L -3937.059775 283.625126 
L -3945.107852 284.022831 
L -3953.155929 284.427525 
L -3961.204005 284.803459 
L -3969.252082 285.225868 
L -3977.300159 285.559138 
L -3985.348236 285.924394 
L -3993.396313 286.267487 
L -4001.44439 286.58324 
L -4009.492467 286.867346 
L -4017.540544 287.121841 
L -4025.588621 287.379008 
L -4033.636698 287.637848 
L -4041.684775 287.84215 
L -4049.732852 288.08373 
L -4057.780929 288.280514 
L -4065.829005 288.443631 
L -4073.877082 288.649717 
L -4081.925159 288.825141 
L -4089.973236 288.962457 
L -4098.021313 289.116753 
L -4106.06939 289.26736 
L -4114.117467 289.395125 
L -4122.165544 289.525338 
L -4130.213621 289.625752 
L -4138.261698 289.759084 
L -4146.309775 289.856554 
L -4154.357852 289.962654 
L -4162.405929 290.077407 
L -4170.454005 290.163727 
L -4178.502082 290.258754 
L -4186.550159 290.397221 
L -4194.598236 290.483425 
L -4202.646313 290.599332 
L -4210.69439 290.683433 
L -4218.742467 290.809429 
L -4226.790544 290.901812 
L -4234.838621 291.002956 
L -4242.886698 291.087859 
L -4250.934775 291.163061 
L -4258.982852 291.256335 
L -4267.030929 291.366086 
L -4275.079005 291.475349 
L -4283.127082 291.567146 
L -4291.175159 291.634355 
L -4299.223236 291.748838 
L -4307.271313 291.836065 
L -4315.31939 291.947135 
z
" clip-path="url(#paa76e2f2e0)" style="fill: #008000; fill-opacity: 0.3; stroke: #008000; stroke-opacity: 0.3"/>
   </g>
   <g id="matplotlib.axis_1">
    <g id="xtick_1">
     <g id="line2d_1">
      <defs>
       <path id="m10400e377f" d="M 0 0 
L 0 3.5 
" style="stroke: #000000; stroke-width: 0.8"/>
      </defs>
      <g>
       <use xlink:href="#m10400e377f" x="103.074841" y="395.28" style="stroke: #000000; stroke-width: 0.8"/>
      </g>
     </g>
     <g id="text_1">
      <!-- 2023-01-01 -->
      <g transform="translate(17.945813 495.213718) rotate(-45) scale(0.2 -0.2)">
       <defs>
        <path id="DejaVuSans-32" d="M 1228 531 
L 3431 531 
L 3431 0 
L 469 0 
L 469 531 
Q 828 903 1448 1529 
Q 2069 2156 2228 2338 
Q 2531 2678 2651 2914 
Q 2772 3150 2772 3378 
Q 2772 3750 2511 3984 
Q 2250 4219 1831 4219 
Q 1534 4219 1204 4116 
Q 875 4013 500 3803 
L 500 4441 
Q 881 4594 1212 4672 
Q 1544 4750 1819 4750 
Q 2544 4750 2975 4387 
Q 3406 4025 3406 3419 
Q 3406 3131 3298 2873 
Q 3191 2616 2906 2266 
Q 2828 2175 2409 1742 
Q 1991 1309 1228 531 
z
" transform="scale(0.015625)"/>
        <path id="DejaVuSans-30" d="M 2034 4250 
Q 1547 4250 1301 3770 
Q 1056 3291 1056 2328 
Q 1056 1369 1301 889 
Q 1547 409 2034 409 
Q 2525 409 2770 889 
Q 3016 1369 3016 2328 
Q 3016 3291 2770 3770 
Q 2525 4250 2034 4250 
z
M 2034 4750 
Q 2819 4750 3233 4129 
Q 3647 3509 3647 2328 
Q 3647 1150 3233 529 
Q 2819 -91 2034 -91 
Q 1250 -91 836 529 
Q 422 1150 422 2328 
Q 422 3509 836 4129 
Q 1250 4750 2034 4750 
z
" transform="scale(0.015625)"/>
        <path id="DejaVuSans-33" d="M 2597 2516 
Q 3050 2419 3304 2112 
Q 3559 1806 3559 1356 
Q 3559 666 3084 287 
Q 2609 -91 1734 -91 
Q 1441 -91 1130 -33 
Q 819 25 488 141 
L 488 750 
Q 750 597 1062 519 
Q 1375 441 1716 441 
Q 2309 441 2620 675 
Q 2931 909 2931 1356 
Q 2931 1769 2642 2001 
Q 2353 2234 1838 2234 
L 1294 2234 
L 1294 2753 
L 1863 2753 
Q 2328 2753 2575 2939 
Q 2822 3125 2822 3475 
Q 2822 3834 2567 4026 
Q 2313 4219 1838 4219 
Q 1578 4219 1281 4162 
Q 984 4106 628 3988 
L 628 4550 
Q 988 4650 1302 4700 
Q 1616 4750 1894 4750 
Q 2613 4750 3031 4423 
Q 3450 4097 3450 3541 
Q 3450 3153 3228 2886 
Q 3006 2619 2597 2516 
z
" transform="scale(0.015625)"/>
        <path id="DejaVuSans-2d" d="M 313 2009 
L 1997 2009 
L 1997 1497 
L 313 1497 
L 313 2009 
z
" transform="scale(0.015625)"/>
        <path id="DejaVuSans-31" d="M 794 531 
L 1825 531 
L 1825 4091 
L 703 3866 
L 703 4441 
L 1819 4666 
L 2450 4666 
L 2450 531 
L 3481 531 
L 3481 0 
L 794 0 
L 794 531 
z
" transform="scale(0.015625)"/>
       </defs>
       <use xlink:href="#DejaVuSans-32"/>
       <use xlink:href="#DejaVuSans-30" x="63.623047"/>
       <use xlink:href="#DejaVuSans-32" x="127.246094"/>
       <use xlink:href="#DejaVuSans-33" x="190.869141"/>
       <use xlink:href="#DejaVuSans-2d" x="254.492188"/>
       <use xlink:href="#DejaVuSans-30" x="290.576172"/>
       <use xlink:href="#DejaVuSans-31" x="354.199219"/>
       <use xlink:href="#DejaVuSans-2d" x="417.822266"/>
       <use xlink:href="#DejaVuSans-30" x="453.90625"/>
       <use xlink:href="#DejaVuSans-31" x="517.529297"/>
      </g>
     </g>
    </g>
    <g id="xtick_2">
     <g id="line2d_2">
      <g>
       <use xlink:href="#m10400e377f" x="215.747918" y="395.28" style="stroke: #000000; stroke-width: 0.8"/>
      </g>
     </g>
     <g id="text_2">
      <!-- 2023-01-15 -->
      <g transform="translate(130.61889 495.213718) rotate(-45) scale(0.2 -0.2)">
       <defs>
        <path id="DejaVuSans-35" d="M 691 4666 
L 3169 4666 
L 3169 4134 
L 1269 4134 
L 1269 2991 
Q 1406 3038 1543 3061 
Q 1681 3084 1819 3084 
Q 2600 3084 3056 2656 
Q 3513 2228 3513 1497 
Q 3513 744 3044 326 
Q 2575 -91 1722 -91 
Q 1428 -91 1123 -41 
Q 819 9 494 109 
L 494 744 
Q 775 591 1075 516 
Q 1375 441 1709 441 
Q 2250 441 2565 725 
Q 2881 1009 2881 1497 
Q 2881 1984 2565 2268 
Q 2250 2553 1709 2553 
Q 1456 2553 1204 2497 
Q 953 2441 691 2322 
L 691 4666 
z
" transform="scale(0.015625)"/>
       </defs>
       <use xlink:href="#DejaVuSans-32"/>
       <use xlink:href="#DejaVuSans-30" x="63.623047"/>
       <use xlink:href="#DejaVuSans-32" x="127.246094"/>
       <use xlink:href="#DejaVuSans-33" x="190.869141"/>
       <use xlink:href="#DejaVuSans-2d" x="254.492188"/>
       <use xlink:href="#DejaVuSans-30" x="290.576172"/>
       <use xlink:href="#DejaVuSans-31" x="354.199219"/>
       <use xlink:href="#DejaVuSans-2d" x="417.822266"/>
       <use xlink:href="#DejaVuSans-31" x="453.90625"/>
       <use xlink:href="#DejaVuSans-35" x="517.529297"/>
      </g>
     </g>
    </g>
    <g id="xtick_3">
     <g id="line2d_3">
      <g>
       <use xlink:href="#m10400e377f" x="328.420995" y="395.28" style="stroke: #000000; stroke-width: 0.8"/>
      </g>
     </g>
     <g id="text_3">
      <!-- 2023-01-29 -->
      <g transform="translate(243.291967 495.213718) rotate(-45) scale(0.2 -0.2)">
       <defs>
        <path id="DejaVuSans-39" d="M 703 97 
L 703 672 
Q 941 559 1184 500 
Q 1428 441 1663 441 
Q 2288 441 2617 861 
Q 2947 1281 2994 2138 
Q 2813 1869 2534 1725 
Q 2256 1581 1919 1581 
Q 1219 1581 811 2004 
Q 403 2428 403 3163 
Q 403 3881 828 4315 
Q 1253 4750 1959 4750 
Q 2769 4750 3195 4129 
Q 3622 3509 3622 2328 
Q 3622 1225 3098 567 
Q 2575 -91 1691 -91 
Q 1453 -91 1209 -44 
Q 966 3 703 97 
z
M 1959 2075 
Q 2384 2075 2632 2365 
Q 2881 2656 2881 3163 
Q 2881 3666 2632 3958 
Q 2384 4250 1959 4250 
Q 1534 4250 1286 3958 
Q 1038 3666 1038 3163 
Q 1038 2656 1286 2365 
Q 1534 2075 1959 2075 
z
" transform="scale(0.015625)"/>
       </defs>
       <use xlink:href="#DejaVuSans-32"/>
       <use xlink:href="#DejaVuSans-30" x="63.623047"/>
       <use xlink:href="#DejaVuSans-32" x="127.246094"/>
       <use xlink:href="#DejaVuSans-33" x="190.869141"/>
       <use xlink:href="#DejaVuSans-2d" x="254.492188"/>
       <use xlink:href="#DejaVuSans-30" x="290.576172"/>
       <use xlink:href="#DejaVuSans-31" x="354.199219"/>
       <use xlink:href="#DejaVuSans-2d" x="417.822266"/>
       <use xlink:href="#DejaVuSans-32" x="453.90625"/>
       <use xlink:href="#DejaVuSans-39" x="517.529297"/>
      </g>
     </g>
    </g>
    <g id="xtick_4">
     <g id="line2d_4">
      <g>
       <use xlink:href="#m10400e377f" x="441.094071" y="395.28" style="stroke: #000000; stroke-width: 0.8"/>
      </g>
     </g>
     <g id="text_4">
      <!-- 2023-02-12 -->
      <g transform="translate(355.965044 495.213718) rotate(-45) scale(0.2 -0.2)">
       <use xlink:href="#DejaVuSans-32"/>
       <use xlink:href="#DejaVuSans-30" x="63.623047"/>
       <use xlink:href="#DejaVuSans-32" x="127.246094"/>
       <use xlink:href="#DejaVuSans-33" x="190.869141"/>
       <use xlink:href="#DejaVuSans-2d" x="254.492188"/>
       <use xlink:href="#DejaVuSans-30" x="290.576172"/>
       <use xlink:href="#DejaVuSans-32" x="354.199219"/>
       <use xlink:href="#DejaVuSans-2d" x="417.822266"/>
       <use xlink:href="#DejaVuSans-31" x="453.90625"/>
       <use xlink:href="#DejaVuSans-32" x="517.529297"/>
      </g>
     </g>
    </g>
    <g id="xtick_5">
     <g id="line2d_5">
      <g>
       <use xlink:href="#m10400e377f" x="553.767148" y="395.28" style="stroke: #000000; stroke-width: 0.8"/>
      </g>
     </g>
     <g id="text_5">
      <!-- 2023-02-26 -->
      <g transform="translate(468.638121 495.213718) rotate(-45) scale(0.2 -0.2)">
       <defs>
        <path id="DejaVuSans-36" d="M 2113 2584 
Q 1688 2584 1439 2293 
Q 1191 2003 1191 1497 
Q 1191 994 1439 701 
Q 1688 409 2113 409 
Q 2538 409 2786 701 
Q 3034 994 3034 1497 
Q 3034 2003 2786 2293 
Q 2538 2584 2113 2584 
z
M 3366 4563 
L 3366 3988 
Q 3128 4100 2886 4159 
Q 2644 4219 2406 4219 
Q 1781 4219 1451 3797 
Q 1122 3375 1075 2522 
Q 1259 2794 1537 2939 
Q 1816 3084 2150 3084 
Q 2853 3084 3261 2657 
Q 3669 2231 3669 1497 
Q 3669 778 3244 343 
Q 2819 -91 2113 -91 
Q 1303 -91 875 529 
Q 447 1150 447 2328 
Q 447 3434 972 4092 
Q 1497 4750 2381 4750 
Q 2619 4750 2861 4703 
Q 3103 4656 3366 4563 
z
" transform="scale(0.015625)"/>
       </defs>
       <use xlink:href="#DejaVuSans-32"/>
       <use xlink:href="#DejaVuSans-30" x="63.623047"/>
       <use xlink:href="#DejaVuSans-32" x="127.246094"/>
       <use xlink:href="#DejaVuSans-33" x="190.869141"/>
       <use xlink:href="#DejaVuSans-2d" x="254.492188"/>
       <use xlink:href="#DejaVuSans-30" x="290.576172"/>
       <use xlink:href="#DejaVuSans-32" x="354.199219"/>
       <use xlink:href="#DejaVuSans-2d" x="417.822266"/>
       <use xlink:href="#DejaVuSans-32" x="453.90625"/>
       <use xlink:href="#DejaVuSans-36" x="517.529297"/>
      </g>
     </g>
    </g>
    <g id="xtick_6">
     <g id="line2d_6">
      <g>
       <use xlink:href="#m10400e377f" x="666.440225" y="395.28" style="stroke: #000000; stroke-width: 0.8"/>
      </g>
     </g>
     <g id="text_6">
      <!-- 2023-03-12 -->
      <g transform="translate(581.311198 495.213718) rotate(-45) scale(0.2 -0.2)">
       <use xlink:href="#DejaVuSans-32"/>
       <use xlink:href="#DejaVuSans-30" x="63.623047"/>
       <use xlink:href="#DejaVuSans-32" x="127.246094"/>
       <use xlink:href="#DejaVuSans-33" x="190.869141"/>
       <use xlink:href="#DejaVuSans-2d" x="254.492188"/>
       <use xlink:href="#DejaVuSans-30" x="290.576172"/>
       <use xlink:href="#DejaVuSans-33" x="354.199219"/>
       <use xlink:href="#DejaVuSans-2d" x="417.822266"/>
       <use xlink:href="#DejaVuSans-31" x="453.90625"/>
       <use xlink:href="#DejaVuSans-32" x="517.529297"/>
      </g>
     </g>
    </g>
    <g id="xtick_7">
     <g id="line2d_7">
      <g>
       <use xlink:href="#m10400e377f" x="779.113302" y="395.28" style="stroke: #000000; stroke-width: 0.8"/>
      </g>
     </g>
     <g id="text_7">
      <!-- 2023-03-26 -->
      <g transform="translate(693.984275 495.213718) rotate(-45) scale(0.2 -0.2)">
       <use xlink:href="#DejaVuSans-32"/>
       <use xlink:href="#DejaVuSans-30" x="63.623047"/>
       <use xlink:href="#DejaVuSans-32" x="127.246094"/>
       <use xlink:href="#DejaVuSans-33" x="190.869141"/>
       <use xlink:href="#DejaVuSans-2d" x="254.492188"/>
       <use xlink:href="#DejaVuSans-30" x="290.576172"/>
       <use xlink:href="#DejaVuSans-33" x="354.199219"/>
       <use xlink:href="#DejaVuSans-2d" x="417.822266"/>
       <use xlink:href="#DejaVuSans-32" x="453.90625"/>
       <use xlink:href="#DejaVuSans-36" x="517.529297"/>
      </g>
     </g>
    </g>
    <g id="xtick_8">
     <g id="line2d_8">
      <g>
       <use xlink:href="#m10400e377f" x="891.786379" y="395.28" style="stroke: #000000; stroke-width: 0.8"/>
      </g>
     </g>
     <g id="text_8">
      <!-- 2023-04-09 -->
      <g transform="translate(806.657352 495.213718) rotate(-45) scale(0.2 -0.2)">
       <defs>
        <path id="DejaVuSans-34" d="M 2419 4116 
L 825 1625 
L 2419 1625 
L 2419 4116 
z
M 2253 4666 
L 3047 4666 
L 3047 1625 
L 3713 1625 
L 3713 1100 
L 3047 1100 
L 3047 0 
L 2419 0 
L 2419 1100 
L 313 1100 
L 313 1709 
L 2253 4666 
z
" transform="scale(0.015625)"/>
       </defs>
       <use xlink:href="#DejaVuSans-32"/>
       <use xlink:href="#DejaVuSans-30" x="63.623047"/>
       <use xlink:href="#DejaVuSans-32" x="127.246094"/>
       <use xlink:href="#DejaVuSans-33" x="190.869141"/>
       <use xlink:href="#DejaVuSans-2d" x="254.492188"/>
       <use xlink:href="#DejaVuSans-30" x="290.576172"/>
       <use xlink:href="#DejaVuSans-34" x="354.199219"/>
       <use xlink:href="#DejaVuSans-2d" x="417.822266"/>
       <use xlink:href="#DejaVuSans-30" x="453.90625"/>
       <use xlink:href="#DejaVuSans-39" x="517.529297"/>
      </g>
     </g>
    </g>
    <g id="xtick_9">
     <g id="line2d_9">
      <g>
       <use xlink:href="#m10400e377f" x="940.074841" y="395.28" style="stroke: #000000; stroke-width: 0.8"/>
      </g>
     </g>
     <g id="text_9">
      <!-- 2023-04-15 -->
      <g transform="translate(854.945813 495.213718) rotate(-45) scale(0.2 -0.2)">
       <use xlink:href="#DejaVuSans-32"/>
       <use xlink:href="#DejaVuSans-30" x="63.623047"/>
       <use xlink:href="#DejaVuSans-32" x="127.246094"/>
       <use xlink:href="#DejaVuSans-33" x="190.869141"/>
       <use xlink:href="#DejaVuSans-2d" x="254.492188"/>
       <use xlink:href="#DejaVuSans-30" x="290.576172"/>
       <use xlink:href="#DejaVuSans-34" x="354.199219"/>
       <use xlink:href="#DejaVuSans-2d" x="417.822266"/>
       <use xlink:href="#DejaVuSans-31" x="453.90625"/>
       <use xlink:href="#DejaVuSans-35" x="517.529297"/>
      </g>
     </g>
    </g>
   </g>
   <g id="matplotlib.axis_2">
    <g id="ytick_1">
     <g id="line2d_10">
      <defs>
       <path id="m92a22fbf87" d="M 0 0 
L -3.5 0 
" style="stroke: #000000; stroke-width: 0.8"/>
      </defs>
      <g>
       <use xlink:href="#m92a22fbf87" x="103.074841" y="387.505326" style="stroke: #000000; stroke-width: 0.8"/>
      </g>
     </g>
     <g id="text_10">
      <!-- −0.050 -->
      <g transform="translate(22.059216 395.103764) scale(0.2 -0.2)">
       <defs>
        <path id="DejaVuSans-2212" d="M 678 2272 
L 4684 2272 
L 4684 1741 
L 678 1741 
L 678 2272 
z
" transform="scale(0.015625)"/>
        <path id="DejaVuSans-2e" d="M 684 794 
L 1344 794 
L 1344 0 
L 684 0 
L 684 794 
z
" transform="scale(0.015625)"/>
       </defs>
       <use xlink:href="#DejaVuSans-2212"/>
       <use xlink:href="#DejaVuSans-30" x="83.789062"/>
       <use xlink:href="#DejaVuSans-2e" x="147.412109"/>
       <use xlink:href="#DejaVuSans-30" x="179.199219"/>
       <use xlink:href="#DejaVuSans-35" x="242.822266"/>
       <use xlink:href="#DejaVuSans-30" x="306.445312"/>
      </g>
     </g>
    </g>
    <g id="ytick_2">
     <g id="line2d_11">
      <g>
       <use xlink:href="#m92a22fbf87" x="103.074841" y="339.780135" style="stroke: #000000; stroke-width: 0.8"/>
      </g>
     </g>
     <g id="text_11">
      <!-- −0.025 -->
      <g transform="translate(22.059216 347.378573) scale(0.2 -0.2)">
       <use xlink:href="#DejaVuSans-2212"/>
       <use xlink:href="#DejaVuSans-30" x="83.789062"/>
       <use xlink:href="#DejaVuSans-2e" x="147.412109"/>
       <use xlink:href="#DejaVuSans-30" x="179.199219"/>
       <use xlink:href="#DejaVuSans-32" x="242.822266"/>
       <use xlink:href="#DejaVuSans-35" x="306.445312"/>
      </g>
     </g>
    </g>
    <g id="ytick_3">
     <g id="line2d_12">
      <g>
       <use xlink:href="#m92a22fbf87" x="103.074841" y="292.054944" style="stroke: #000000; stroke-width: 0.8"/>
      </g>
     </g>
     <g id="text_12">
      <!-- 0.000 -->
      <g transform="translate(38.818591 299.653382) scale(0.2 -0.2)">
       <use xlink:href="#DejaVuSans-30"/>
       <use xlink:href="#DejaVuSans-2e" x="63.623047"/>
       <use xlink:href="#DejaVuSans-30" x="95.410156"/>
       <use xlink:href="#DejaVuSans-30" x="159.033203"/>
       <use xlink:href="#DejaVuSans-30" x="222.65625"/>
      </g>
     </g>
    </g>
    <g id="ytick_4">
     <g id="line2d_13">
      <g>
       <use xlink:href="#m92a22fbf87" x="103.074841" y="244.329754" style="stroke: #000000; stroke-width: 0.8"/>
      </g>
     </g>
     <g id="text_13">
      <!-- 0.025 -->
      <g transform="translate(38.818591 251.928191) scale(0.2 -0.2)">
       <use xlink:href="#DejaVuSans-30"/>
       <use xlink:href="#DejaVuSans-2e" x="63.623047"/>
       <use xlink:href="#DejaVuSans-30" x="95.410156"/>
       <use xlink:href="#DejaVuSans-32" x="159.033203"/>
       <use xlink:href="#DejaVuSans-35" x="222.65625"/>
      </g>
     </g>
    </g>
    <g id="ytick_5">
     <g id="line2d_14">
      <g>
       <use xlink:href="#m92a22fbf87" x="103.074841" y="196.604563" style="stroke: #000000; stroke-width: 0.8"/>
      </g>
     </g>
     <g id="text_14">
      <!-- 0.050 -->
      <g transform="translate(38.818591 204.203) scale(0.2 -0.2)">
       <use xlink:href="#DejaVuSans-30"/>
       <use xlink:href="#DejaVuSans-2e" x="63.623047"/>
       <use xlink:href="#DejaVuSans-30" x="95.410156"/>
       <use xlink:href="#DejaVuSans-35" x="159.033203"/>
       <use xlink:href="#DejaVuSans-30" x="222.65625"/>
      </g>
     </g>
    </g>
    <g id="ytick_6">
     <g id="line2d_15">
      <g>
       <use xlink:href="#m92a22fbf87" x="103.074841" y="148.879372" style="stroke: #000000; stroke-width: 0.8"/>
      </g>
     </g>
     <g id="text_15">
      <!-- 0.075 -->
      <g transform="translate(38.818591 156.477809) scale(0.2 -0.2)">
       <defs>
        <path id="DejaVuSans-37" d="M 525 4666 
L 3525 4666 
L 3525 4397 
L 1831 0 
L 1172 0 
L 2766 4134 
L 525 4134 
L 525 4666 
z
" transform="scale(0.015625)"/>
       </defs>
       <use xlink:href="#DejaVuSans-30"/>
       <use xlink:href="#DejaVuSans-2e" x="63.623047"/>
       <use xlink:href="#DejaVuSans-30" x="95.410156"/>
       <use xlink:href="#DejaVuSans-37" x="159.033203"/>
       <use xlink:href="#DejaVuSans-35" x="222.65625"/>
      </g>
     </g>
    </g>
    <g id="ytick_7">
     <g id="line2d_16">
      <g>
       <use xlink:href="#m92a22fbf87" x="103.074841" y="101.154181" style="stroke: #000000; stroke-width: 0.8"/>
      </g>
     </g>
     <g id="text_16">
      <!-- 0.100 -->
      <g transform="translate(38.818591 108.752618) scale(0.2 -0.2)">
       <use xlink:href="#DejaVuSans-30"/>
       <use xlink:href="#DejaVuSans-2e" x="63.623047"/>
       <use xlink:href="#DejaVuSans-31" x="95.410156"/>
       <use xlink:href="#DejaVuSans-30" x="159.033203"/>
       <use xlink:href="#DejaVuSans-30" x="222.65625"/>
      </g>
     </g>
    </g>
    <g id="ytick_8">
     <g id="line2d_17">
      <g>
       <use xlink:href="#m92a22fbf87" x="103.074841" y="53.42899" style="stroke: #000000; stroke-width: 0.8"/>
      </g>
     </g>
     <g id="text_17">
      <!-- 0.125 -->
      <g transform="translate(38.818591 61.027427) scale(0.2 -0.2)">
       <use xlink:href="#DejaVuSans-30"/>
       <use xlink:href="#DejaVuSans-2e" x="63.623047"/>
       <use xlink:href="#DejaVuSans-31" x="95.410156"/>
       <use xlink:href="#DejaVuSans-32" x="159.033203"/>
       <use xlink:href="#DejaVuSans-35" x="222.65625"/>
      </g>
     </g>
    </g>
   </g>
   <g id="line2d_18">
    <path d="M 0 0 
" clip-path="url(#paa76e2f2e0)" style="fill: none; stroke: #ffa500; stroke-width: 1.5; stroke-linecap: square"/>
   </g>
   <g id="line2d_19">
    <path d="M 103.074841 292.054944 
L 948.274841 292.054944 
" clip-path="url(#paa76e2f2e0)" style="fill: none; stroke-dasharray: 7.4,3.2; stroke-dashoffset: 0; stroke: #000000; stroke-width: 2"/>
   </g>
   <g id="patch_3">
    <path d="M 103.074841 395.28 
L 103.074841 7.2 
" style="fill: none; stroke: #000000; stroke-width: 0.8; stroke-linejoin: miter; stroke-linecap: square"/>
   </g>
   <g id="patch_4">
    <path d="M 940.074841 395.28 
L 940.074841 7.2 
" style="fill: none; stroke: #000000; stroke-width: 0.8; stroke-linejoin: miter; stroke-linecap: square"/>
   </g>
   <g id="patch_5">
    <path d="M 103.074841 395.28 
L 940.074841 395.28 
" style="fill: none; stroke: #000000; stroke-width: 0.8; stroke-linejoin: miter; stroke-linecap: square"/>
   </g>
   <g id="patch_6">
    <path d="M 103.074841 7.2 
L 940.074841 7.2 
" style="fill: none; stroke: #000000; stroke-width: 0.8; stroke-linejoin: miter; stroke-linecap: square"/>
   </g>
  </g>
 </g>
 <defs>
  <clipPath id="paa76e2f2e0">
   <rect x="103.074841" y="7.2" width="837" height="388.08"/>
  </clipPath>
 </defs>
</svg>
