<?xml version="1.0" encoding="utf-8" standalone="no"?>
<!DOCTYPE svg PUBLIC "-//W3C//DTD SVG 1.1//EN"
  "http://www.w3.org/Graphics/SVG/1.1/DTD/svg11.dtd">
<svg xmlns:xlink="http://www.w3.org/1999/xlink" width="1040.965466pt" height="505.354841pt" viewBox="0 0 1040.965466 505.354841" xmlns="http://www.w3.org/2000/svg" version="1.1">
 <metadata>
  <rdf:RDF xmlns:dc="http://purl.org/dc/elements/1.1/" xmlns:cc="http://creativecommons.org/ns#" xmlns:rdf="http://www.w3.org/1999/02/22-rdf-syntax-ns#">
   <cc:Work>
    <dc:type rdf:resource="http://purl.org/dc/dcmitype/StillImage"/>
    <dc:date>2023-11-24T15:26:27.167913</dc:date>
    <dc:format>image/svg+xml</dc:format>
    <dc:creator>
     <cc:Agent>
      <dc:title>Matplotlib v3.7.2, https://matplotlib.org/</dc:title>
     </cc:Agent>
    </dc:creator>
   </cc:Work>
  </rdf:RDF>
 </metadata>
 <defs>
  <style type="text/css">*{stroke-linejoin: round; stroke-linecap: butt}</style>
 </defs>
 <g id="figure_1">
  <g id="patch_1">
   <path d="M 0 505.354841 
L 1040.965466 505.354841 
L 1040.965466 -0 
L 0 -0 
z
" style="fill: #ffffff"/>
  </g>
  <g id="axes_1">
   <g id="patch_2">
    <path d="M 103.074841 395.28 
L 940.074841 395.28 
L 940.074841 7.2 
L 103.074841 7.2 
z
" style="fill: #ffffff"/>
   </g>
   <g id="PolyCollection_1">
    <defs>
     <path id="m637ce9f777" d="M 103.074841 -221.525653 
L 103.074841 -221.503822 
L 104.356617 -221.612594 
L 105.638394 -221.705779 
L 106.92017 -221.825192 
L 108.201946 -221.91207 
L 109.483723 -222.008815 
L 110.765499 -222.116909 
L 112.047276 -222.221571 
L 113.329052 -222.317931 
L 114.610828 -222.401708 
L 115.892605 -222.50093 
L 117.174381 -222.608783 
L 118.456158 -222.71548 
L 119.737934 -222.835266 
L 121.019711 -222.937642 
L 122.301487 -223.055152 
L 123.583263 -223.171856 
L 124.86504 -223.29939 
L 126.146816 -223.414184 
L 127.428593 -223.525415 
L 128.710369 -223.657443 
L 129.992145 -223.786564 
L 131.273922 -223.911873 
L 132.555698 -224.061075 
L 133.837475 -224.190989 
L 135.119251 -224.34919 
L 136.401028 -224.500191 
L 137.682804 -224.675268 
L 138.96458 -224.856612 
L 140.246357 -225.029915 
L 141.528133 -225.223921 
L 142.80991 -225.449658 
L 144.091686 -225.650507 
L 145.373462 -225.878778 
L 146.655239 -226.140455 
L 147.937015 -226.391106 
L 149.218792 -226.667047 
L 150.500568 -226.957446 
L 151.782345 -227.25386 
L 153.064121 -227.580185 
L 154.345897 -227.931645 
L 155.627674 -228.295156 
L 156.90945 -228.681324 
L 158.191227 -229.078085 
L 159.473003 -229.505633 
L 160.754779 -229.928297 
L 162.036556 -230.387163 
L 163.318332 -230.831412 
L 164.600109 -231.323714 
L 165.881885 -231.847989 
L 167.163662 -232.346194 
L 168.445438 -232.877733 
L 169.727214 -233.439812 
L 171.008991 -233.990901 
L 172.290767 -234.550699 
L 173.572544 -235.136231 
L 174.85432 -235.727703 
L 176.136096 -236.324544 
L 177.417873 -236.946154 
L 178.699649 -237.575673 
L 179.981426 -238.203019 
L 181.263202 -238.851555 
L 182.544979 -239.504052 
L 183.826755 -240.151275 
L 185.108531 -240.832746 
L 186.390308 -241.523137 
L 187.672084 -242.213588 
L 188.953861 -242.902566 
L 190.235637 -243.585679 
L 191.517413 -244.28749 
L 192.79919 -244.977319 
L 194.080966 -245.679237 
L 195.362743 -246.32405 
L 196.644519 -247.060396 
L 197.926296 -247.738615 
L 199.208072 -248.434891 
L 200.489848 -249.092912 
L 201.771625 -249.792471 
L 203.053401 -250.460916 
L 204.335178 -251.139053 
L 205.616954 -251.814675 
L 206.89873 -252.471772 
L 208.180507 -253.13267 
L 209.462283 -253.771484 
L 210.74406 -254.445235 
L 212.025836 -255.125599 
L 213.307613 -255.776847 
L 214.589389 -256.415988 
L 215.871165 -257.102521 
L 217.152942 -257.760689 
L 218.434718 -258.426386 
L 219.716495 -259.081445 
L 220.998271 -259.721587 
L 222.280047 -260.378624 
L 223.561824 -261.042152 
L 224.8436 -261.640802 
L 226.125377 -262.317453 
L 227.407153 -262.966115 
L 228.68893 -263.604336 
L 229.970706 -264.243394 
L 231.252482 -264.880838 
L 232.534259 -265.526246 
L 233.816035 -266.142709 
L 235.097812 -266.782825 
L 236.379588 -267.438573 
L 237.661364 -268.101372 
L 238.943141 -268.770897 
L 240.224917 -269.398674 
L 241.506694 -270.088607 
L 242.78847 -270.82164 
L 244.070247 -271.518086 
L 245.352023 -272.238627 
L 246.633799 -272.9758 
L 247.915576 -273.753466 
L 249.197352 -274.545053 
L 250.479129 -275.282586 
L 251.760905 -276.119604 
L 253.042681 -276.916563 
L 254.324458 -277.773875 
L 255.606234 -278.563403 
L 256.888011 -279.486966 
L 258.169787 -280.394021 
L 259.451564 -281.27583 
L 260.73334 -282.172751 
L 262.015116 -283.096413 
L 263.296893 -284.061389 
L 264.578669 -284.967531 
L 265.860446 -286.002956 
L 267.142222 -286.916163 
L 268.423998 -287.981507 
L 269.705775 -289.013741 
L 270.987551 -290.023264 
L 272.269328 -291.084937 
L 273.551104 -292.162784 
L 274.832881 -293.146721 
L 276.114657 -294.438396 
L 277.396433 -295.553365 
L 278.67821 -296.59473 
L 279.959986 -297.767851 
L 281.241763 -299.010372 
L 282.523539 -300.368872 
L 283.805315 -301.653297 
L 285.087092 -302.738116 
L 286.368868 -304.446272 
L 287.650645 -305.823084 
L 288.932421 -307.231156 
L 290.214198 -308.689397 
L 291.495974 -310.349548 
L 292.77775 -311.948308 
L 294.059527 -313.127687 
L 295.341303 -314.618727 
L 296.62308 -317.111403 
L 297.904856 -319.182498 
L 299.186632 -320.759273 
L 300.468409 -322.792907 
L 301.750185 -324.730424 
L 303.031962 -326.221681 
L 304.313738 -328.57506 
L 305.595515 -330.986957 
L 306.877291 -332.400891 
L 308.159067 -333.266636 
L 309.440844 -335.137711 
L 310.72262 -336.055871 
L 312.004397 -336.956084 
L 313.286173 -339.346991 
L 314.567949 -339.102574 
L 315.849726 -338.068903 
L 317.131502 -336.36962 
L 318.413279 -338.576241 
L 319.695055 -334.656393 
L 320.976832 -333.384141 
L 322.258608 -338.761332 
L 323.540384 -338.251427 
L 324.822161 -335.304162 
L 326.103937 -336.951485 
L 327.385714 -336.53468 
L 328.66749 -325.86457 
L 329.949266 -311.03997 
L 331.231043 -303.017419 
L 332.512819 -320.115328 
L 333.794596 -311.788339 
L 335.076372 -300.62787 
L 336.358149 -300.719572 
L 337.639925 -278.3915 
L 338.921701 -281.764592 
L 340.203478 -287.6879 
L 341.485254 -305.75865 
L 342.767031 -289.553928 
L 344.048807 -280.001674 
L 345.330583 -283.953164 
L 346.61236 -281.19123 
L 347.894136 -271.864953 
L 349.175913 -273.141166 
L 350.457689 -281.475903 
L 351.739466 -271.41941 
L 353.021242 -269.564078 
L 354.303018 -273.301585 
L 355.584795 -266.818841 
L 356.866571 -264.329073 
L 358.148348 -265.195179 
L 359.430124 -267.078773 
L 360.7119 -264.915183 
L 361.993677 -267.006271 
L 363.275453 -266.785664 
L 364.55723 -264.873244 
L 365.839006 -266.72888 
L 367.120783 -265.773249 
L 368.402559 -265.68753 
L 369.684335 -267.179787 
L 370.966112 -266.575921 
L 372.247888 -268.866878 
L 373.529665 -268.627667 
L 374.811441 -267.992051 
L 376.093217 -267.949898 
L 377.374994 -269.008036 
L 378.65677 -269.932177 
L 379.938547 -270.177307 
L 381.220323 -271.126117 
L 382.502099 -271.271615 
L 383.783876 -271.54519 
L 385.065652 -272.955331 
L 386.347429 -272.211133 
L 387.629205 -273.279414 
L 388.910982 -273.714754 
L 390.192758 -273.675915 
L 391.474534 -274.643272 
L 392.756311 -274.799661 
L 394.038087 -274.41871 
L 395.319864 -273.998381 
L 396.60164 -275.592238 
L 397.883416 -275.902096 
L 399.165193 -276.359218 
L 400.446969 -273.683888 
L 401.728746 -273.641456 
L 403.010522 -272.590736 
L 404.292299 -275.112872 
L 405.574075 -276.729256 
L 406.855851 -276.188468 
L 408.137628 -274.419304 
L 409.419404 -274.108028 
L 410.701181 -277.341798 
L 411.982957 -274.565682 
L 413.264733 -275.41987 
L 414.54651 -275.640023 
L 415.828286 -277.114758 
L 417.110063 -275.978714 
L 418.391839 -276.719026 
L 419.673616 -275.955659 
L 420.955392 -276.789478 
L 422.237168 -277.851435 
L 423.518945 -279.100193 
L 424.800721 -279.653132 
L 426.082498 -280.414875 
L 427.364274 -281.195882 
L 428.64605 -281.229662 
L 429.927827 -282.129036 
L 431.209603 -282.96081 
L 432.49138 -284.938048 
L 433.773156 -286.718142 
L 435.054933 -287.508075 
L 436.336709 -289.321055 
L 437.618485 -289.75721 
L 438.900262 -291.369196 
L 440.182038 -293.562183 
L 441.463815 -295.547421 
L 442.745591 -297.002282 
L 444.027367 -299.389537 
L 445.309144 -300.830256 
L 446.59092 -303.073364 
L 447.872697 -305.290267 
L 449.154473 -307.279046 
L 450.43625 -309.416409 
L 451.718026 -311.880205 
L 452.999802 -314.293021 
L 454.281579 -316.6793 
L 455.563355 -319.581466 
L 456.845132 -322.153894 
L 458.126908 -324.388399 
L 459.408684 -326.810992 
L 460.690461 -329.495682 
L 461.972237 -332.190143 
L 463.254014 -334.950463 
L 464.53579 -338.574988 
L 465.817567 -340.978784 
L 467.099343 -343.836488 
L 468.381119 -346.082412 
L 469.662896 -349.449281 
L 470.944672 -352.682471 
L 472.226449 -355.109291 
L 473.508225 -358.569284 
L 474.790001 -362.228404 
L 476.071778 -364.974794 
L 477.353554 -368.691696 
L 478.635331 -371.374662 
L 479.917107 -374.705361 
L 481.198884 -378.944574 
L 482.48066 -382.343847 
L 483.762436 -384.779237 
L 485.044213 -388.82073 
L 486.325989 -392.097013 
L 487.607766 -395.9743 
L 488.889542 -398.703345 
L 490.171318 -403.187435 
L 491.453095 -406.850892 
L 492.734871 -406.50289 
L 494.016648 -413.621667 
L 495.298424 -414.991563 
L 496.580201 -419.146482 
L 497.861977 -421.167735 
L 499.143753 -425.474458 
L 500.42553 -428.457824 
L 501.707306 -431.77325 
L 502.989083 -434.459381 
L 504.270859 -437.168979 
L 505.552635 -440.393641 
L 506.834412 -438.512041 
L 508.116188 -447.23899 
L 509.397965 -448.580228 
L 510.679741 -444.841893 
L 511.961518 -453.114148 
L 513.243294 -451.690501 
L 514.52507 -452.799137 
L 515.806847 -458.045586 
L 517.088623 -457.771708 
L 518.3704 -451.676666 
L 519.652176 -457.470605 
L 520.933952 -458.202463 
L 522.215729 -456.293747 
L 523.497505 -456.532055 
L 524.779282 -454.248318 
L 526.061058 -451.150658 
L 527.342835 -446.666836 
L 528.624611 -431.81804 
L 529.906387 -437.566384 
L 531.188164 -429.641157 
L 532.46994 -424.913002 
L 533.751717 -421.511269 
L 535.033493 -416.135914 
L 536.315269 -410.663136 
L 537.597046 -418.310377 
L 538.878822 -411.5793 
L 540.160599 -400.949372 
L 541.442375 -394.691121 
L 542.724152 -392.055582 
L 544.005928 -373.969582 
L 545.287704 -372.681824 
L 546.569481 -368.713829 
L 547.851257 -369.538954 
L 549.133034 -355.064524 
L 550.41481 -358.943588 
L 551.696586 -362.324105 
L 552.978363 -348.934025 
L 554.260139 -340.595601 
L 555.541916 -341.079929 
L 556.823692 -334.978643 
L 558.105469 -333.330147 
L 559.387245 -332.62204 
L 560.669021 -332.462242 
L 561.950798 -330.582008 
L 563.232574 -328.125486 
L 564.514351 -318.927779 
L 565.796127 -324.78844 
L 567.077903 -316.85636 
L 568.35968 -317.942398 
L 569.641456 -319.238521 
L 570.923233 -316.046501 
L 572.205009 -313.243573 
L 573.486786 -317.506445 
L 574.768562 -313.897659 
L 576.050338 -313.974275 
L 577.332115 -310.086657 
L 578.613891 -311.445545 
L 579.895668 -313.081047 
L 581.177444 -310.942069 
L 582.45922 -310.602619 
L 583.740997 -311.096146 
L 585.022773 -312.20382 
L 586.30455 -311.140881 
L 587.586326 -313.648054 
L 588.868103 -312.950599 
L 590.149879 -309.372983 
L 591.431655 -309.759837 
L 592.713432 -312.406903 
L 593.995208 -312.186112 
L 595.276985 -312.499034 
L 596.558761 -315.984813 
L 597.840537 -314.459196 
L 599.122314 -312.063488 
L 600.40409 -315.454338 
L 601.685867 -315.774567 
L 602.967643 -317.403256 
L 604.24942 -316.405603 
L 605.531196 -316.756521 
L 606.812972 -317.855307 
L 608.094749 -318.240343 
L 609.376525 -318.706497 
L 610.658302 -319.727716 
L 611.940078 -322.077706 
L 613.221854 -322.779686 
L 614.503631 -324.225287 
L 615.785407 -327.933439 
L 617.067184 -324.905057 
L 618.34896 -329.212331 
L 619.630737 -327.962267 
L 620.912513 -328.157429 
L 622.194289 -327.929343 
L 623.476066 -330.180545 
L 624.757842 -329.769755 
L 626.039619 -329.987403 
L 627.321395 -334.315552 
L 628.603171 -333.062971 
L 629.884948 -333.693066 
L 631.166724 -332.909864 
L 632.448501 -335.716615 
L 633.730277 -334.729614 
L 635.012054 -335.447937 
L 636.29383 -339.546552 
L 637.575606 -339.862975 
L 638.857383 -340.896417 
L 640.139159 -341.255922 
L 641.420936 -343.158363 
L 642.702712 -342.961918 
L 643.984488 -343.860189 
L 645.266265 -344.568931 
L 646.548041 -345.843385 
L 647.829818 -347.991102 
L 649.111594 -345.938244 
L 650.393371 -346.548345 
L 651.675147 -348.221107 
L 652.956923 -349.255003 
L 654.2387 -351.93437 
L 655.520476 -349.830366 
L 656.802253 -350.419031 
L 658.084029 -350.597958 
L 659.365805 -352.14272 
L 660.647582 -353.851794 
L 661.929358 -355.037929 
L 663.211135 -355.102288 
L 664.492911 -355.492319 
L 665.774688 -355.729542 
L 667.056464 -357.891726 
L 668.33824 -359.898742 
L 669.620017 -357.506661 
L 670.901793 -360.518473 
L 672.18357 -360.19464 
L 673.465346 -359.33576 
L 674.747122 -363.95 
L 676.028899 -363.324665 
L 677.310675 -362.658292 
L 678.592452 -364.331062 
L 679.874228 -362.346861 
L 681.156005 -365.344701 
L 682.437781 -367.568502 
L 683.719557 -364.518874 
L 685.001334 -364.493977 
L 686.28311 -366.408048 
L 687.564887 -365.442416 
L 688.846663 -366.494474 
L 690.128439 -361.870281 
L 691.410216 -362.82098 
L 692.691992 -362.191158 
L 693.973769 -365.948197 
L 695.255545 -368.479912 
L 696.537322 -364.802292 
L 697.819098 -360.69067 
L 699.100874 -364.95917 
L 700.382651 -365.093007 
L 701.664427 -368.095991 
L 702.946204 -367.272518 
L 704.22798 -365.01944 
L 705.509756 -367.236167 
L 706.791533 -369.390899 
L 708.073309 -364.815719 
L 709.355086 -367.470062 
L 710.636862 -363.441868 
L 711.918639 -362.384551 
L 713.200415 -368.303702 
L 714.482191 -367.168552 
L 715.763968 -368.866152 
L 717.045744 -366.905541 
L 718.327521 -364.356986 
L 719.609297 -357.503235 
L 720.891073 -354.828333 
L 722.17285 -357.408709 
L 723.454626 -350.716724 
L 724.736403 -340.54387 
L 726.018179 -352.360153 
L 727.299956 -356.379206 
L 728.581732 -351.973367 
L 729.863508 -348.117426 
L 731.145285 -347.310639 
L 732.427061 -349.457251 
L 733.708838 -341.626459 
L 734.990614 -336.844968 
L 736.27239 -345.303084 
L 737.554167 -337.356367 
L 738.835943 -340.915906 
L 740.11772 -340.729468 
L 741.399496 -333.431222 
L 742.681273 -335.32324 
L 743.963049 -329.421367 
L 745.244825 -328.73972 
L 746.526602 -336.528797 
L 747.808378 -329.916149 
L 749.090155 -330.094378 
L 750.371931 -324.797424 
L 751.653707 -326.596096 
L 752.935484 -320.2583 
L 754.21726 -324.188895 
L 755.499037 -320.362698 
L 756.780813 -319.757862 
L 758.06259 -317.426731 
L 759.344366 -323.086556 
L 760.626142 -316.027232 
L 761.907919 -313.7709 
L 763.189695 -310.751426 
L 764.471472 -305.757631 
L 765.753248 -307.05087 
L 767.035024 -307.987003 
L 768.316801 -303.545904 
L 769.598577 -299.615677 
L 770.880354 -302.933511 
L 772.16213 -304.460418 
L 773.443907 -300.203801 
L 774.725683 -297.242107 
L 776.007459 -302.105461 
L 777.289236 -302.986443 
L 778.571012 -293.253379 
L 779.852789 -289.690875 
L 781.134565 -298.741623 
L 782.416341 -295.685548 
L 783.698118 -293.575168 
L 784.979894 -291.871885 
L 786.261671 -285.796573 
L 787.543447 -287.980864 
L 788.825224 -291.047701 
L 790.107 -286.707167 
L 791.388776 -284.208747 
L 792.670553 -290.114607 
L 793.952329 -288.69065 
L 795.234106 -288.823607 
L 796.515882 -279.019878 
L 797.797658 -272.903825 
L 799.079435 -271.908215 
L 800.361211 -279.31908 
L 801.642988 -282.355336 
L 802.924764 -279.782241 
L 804.206541 -279.012734 
L 805.488317 -270.174506 
L 806.770093 -280.374707 
L 808.05187 -271.43295 
L 809.333646 -265.792636 
L 810.615423 -270.631635 
L 811.897199 -261.251975 
L 813.178975 -266.714468 
L 814.460752 -264.400676 
L 815.742528 -263.3012 
L 817.024305 -261.054908 
L 818.306081 -256.277283 
L 819.587858 -258.949857 
L 820.869634 -255.923908 
L 822.15141 -254.311173 
L 823.433187 -254.023715 
L 824.714963 -264.519108 
L 825.99674 -248.709966 
L 827.278516 -243.092749 
L 828.560292 -248.638175 
L 829.842069 -244.052551 
L 831.123845 -242.209138 
L 832.405622 -244.764317 
L 833.687398 -239.641752 
L 834.969175 -233.082782 
L 836.250951 -234.700086 
L 837.532727 -232.839 
L 838.814504 -230.405691 
L 840.09628 -229.720834 
L 841.378057 -225.332533 
L 842.659833 -233.867215 
L 843.941609 -221.100239 
L 845.223386 -220.990515 
L 846.505162 -221.925075 
L 847.786939 -228.290388 
L 849.068715 -217.674941 
L 850.350492 -208.12883 
L 851.632268 -217.720487 
L 852.914044 -216.105271 
L 854.195821 -204.507447 
L 855.477597 -223.998491 
L 856.759374 -206.754043 
L 858.04115 -217.808598 
L 859.322926 -193.950239 
L 860.604703 -208.890536 
L 861.886479 -195.97477 
L 863.168256 -193.69883 
L 864.450032 -185.135876 
L 865.731809 -185.264184 
L 867.013585 -190.806309 
L 868.295361 -190.649121 
L 869.577138 -180.532704 
L 870.858914 -169.333763 
L 872.140691 -169.162543 
L 873.422467 -172.273972 
L 874.704243 -158.373176 
L 875.98602 -159.790602 
L 877.267796 -164.003367 
L 878.549573 -169.253074 
L 879.831349 -147.555827 
L 881.113126 -146.965074 
L 882.394902 -142.209935 
L 883.676678 -151.381897 
L 884.958455 -172.669998 
L 886.240231 -145.414202 
L 887.522008 -154.802633 
L 888.803784 -148.034112 
L 890.08556 -140.800823 
L 891.367337 -152.018449 
L 892.649113 -136.096867 
L 893.93089 -148.626519 
L 895.212666 -148.90166 
L 896.494443 -143.034572 
L 897.776219 -137.156128 
L 899.057995 -140.092813 
L 900.339772 -140.738649 
L 901.621548 -147.608727 
L 902.903325 -144.831547 
L 904.185101 -140.357636 
L 905.466877 -143.234359 
L 906.748654 -135.087317 
L 908.03043 -140.637409 
L 909.312207 -133.461714 
L 910.593983 -127.720384 
L 911.87576 -127.714841 
L 913.157536 -134.605168 
L 914.439312 -134.83475 
L 915.721089 -134.862309 
L 917.002865 -132.136361 
L 918.284642 -132.389863 
L 919.566418 -143.040187 
L 920.848194 -133.744474 
L 922.129971 -188.837419 
L 923.411747 -133.548325 
L 924.693524 -129.702229 
L 925.9753 -137.163086 
L 927.257077 -143.948759 
L 928.538853 -130.542117 
L 929.820629 -136.792657 
L 931.102406 -147.445947 
L 932.384182 -139.060233 
L 933.665959 -138.241891 
L 934.947735 -141.92126 
L 936.229511 -133.350281 
L 937.511288 -139.118519 
L 938.793064 -135.210847 
L 940.074841 -132.51232 
L 940.074841 -213.264621 
L 940.074841 -213.264621 
L 938.793064 -208.201956 
L 937.511288 -211.388944 
L 936.229511 -207.566906 
L 934.947735 -211.01518 
L 933.665959 -208.911795 
L 932.384182 -209.907641 
L 931.102406 -208.450756 
L 929.820629 -204.850067 
L 928.538853 -204.387475 
L 927.257077 -205.63757 
L 925.9753 -204.912218 
L 924.693524 -200.619532 
L 923.411747 -202.542427 
L 922.129971 -211.124895 
L 920.848194 -200.646971 
L 919.566418 -202.198182 
L 918.284642 -199.596087 
L 917.002865 -198.541999 
L 915.721089 -199.093858 
L 914.439312 -197.414538 
L 913.157536 -196.336466 
L 911.87576 -194.022439 
L 910.593983 -193.633992 
L 909.312207 -193.95707 
L 908.03043 -195.688977 
L 906.748654 -193.939834 
L 905.466877 -196.346747 
L 904.185101 -195.032414 
L 902.903325 -195.443298 
L 901.621548 -195.607193 
L 900.339772 -193.17178 
L 899.057995 -192.233287 
L 897.776219 -190.154001 
L 896.494443 -192.687758 
L 895.212666 -193.31226 
L 893.93089 -192.618629 
L 892.649113 -188.489327 
L 891.367337 -193.054098 
L 890.08556 -189.159313 
L 888.803784 -191.359327 
L 887.522008 -193.572258 
L 886.240231 -189.772519 
L 884.958455 -197.369935 
L 883.676678 -191.275882 
L 882.394902 -187.340174 
L 881.113126 -188.529802 
L 879.831349 -188.827904 
L 878.549573 -194.714918 
L 877.267796 -193.395341 
L 875.98602 -191.830647 
L 874.704243 -191.324539 
L 873.422467 -196.108067 
L 872.140691 -195.06699 
L 870.858914 -194.326982 
L 869.577138 -200.115247 
L 868.295361 -202.829046 
L 867.013585 -202.255292 
L 865.731809 -199.841521 
L 864.450032 -199.600601 
L 863.168256 -203.808961 
L 861.886479 -204.69607 
L 860.604703 -215.238727 
L 859.322926 -203.816304 
L 858.04115 -239.145447 
L 856.759374 -212.813229 
L 855.477597 -251.932476 
L 854.195821 -208.198131 
L 852.914044 -229.060865 
L 851.632268 -231.296796 
L 850.350492 -215.560611 
L 849.068715 -233.339601 
L 847.786939 -259.10442 
L 846.505162 -244.398007 
L 845.223386 -240.282944 
L 843.941609 -240.26992 
L 842.659833 -272.378051 
L 841.378057 -260.914876 
L 840.09628 -260.540128 
L 838.814504 -262.05982 
L 837.532727 -268.084976 
L 836.250951 -274.068522 
L 834.969175 -268.572954 
L 833.687398 -285.489241 
L 832.405622 -297.749577 
L 831.123845 -287.079506 
L 829.842069 -296.724158 
L 828.560292 -303.420021 
L 827.278516 -290.446861 
L 825.99674 -303.292382 
L 824.714963 -340.443237 
L 823.433187 -316.38643 
L 822.15141 -318.250578 
L 820.869634 -320.729409 
L 819.587858 -327.813914 
L 818.306081 -321.378664 
L 817.024305 -330.978402 
L 815.742528 -335.190469 
L 814.460752 -338.170939 
L 813.178975 -345.706622 
L 811.897199 -331.148144 
L 810.615423 -351.707249 
L 809.333646 -342.124168 
L 808.05187 -353.113205 
L 806.770093 -369.49191 
L 805.488317 -350.655334 
L 804.206541 -369.960301 
L 802.924764 -369.650019 
L 801.642988 -374.000663 
L 800.361211 -367.961092 
L 799.079435 -353.178055 
L 797.797658 -353.681426 
L 796.515882 -365.519081 
L 795.234106 -387.486472 
L 793.952329 -386.580514 
L 792.670553 -387.126099 
L 791.388776 -375.417127 
L 790.107 -379.208486 
L 788.825224 -387.885131 
L 787.543447 -380.651766 
L 786.261671 -377.800845 
L 784.979894 -388.230965 
L 783.698118 -389.560131 
L 782.416341 -393.747428 
L 781.134565 -398.933734 
L 779.852789 -379.650098 
L 778.571012 -389.501125 
L 777.289236 -404.959324 
L 776.007459 -401.093816 
L 774.725683 -391.838891 
L 773.443907 -397.707413 
L 772.16213 -403.990964 
L 770.880354 -399.574749 
L 769.598577 -391.03498 
L 768.316801 -401.476643 
L 767.035024 -407.016689 
L 765.753248 -403.712366 
L 764.471472 -406.433749 
L 763.189695 -409.759626 
L 761.907919 -413.904392 
L 760.626142 -417.018045 
L 759.344366 -428.707228 
L 758.06259 -419.281115 
L 756.780813 -422.198441 
L 755.499037 -421.569339 
L 754.21726 -424.705315 
L 752.935484 -420.83041 
L 751.653707 -429.509209 
L 750.371931 -424.908651 
L 749.090155 -432.906082 
L 747.808378 -431.521543 
L 746.526602 -440.840199 
L 745.244825 -432.300962 
L 743.963049 -429.567907 
L 742.681273 -434.708407 
L 741.399496 -434.473938 
L 740.11772 -442.823999 
L 738.835943 -441.090262 
L 737.554167 -438.701897 
L 736.27239 -448.293388 
L 734.990614 -438.924654 
L 733.708838 -442.082791 
L 732.427061 -452.837453 
L 731.145285 -448.831579 
L 729.863508 -449.824893 
L 728.581732 -452.781158 
L 727.299956 -457.803243 
L 726.018179 -453.404877 
L 724.736403 -435.724831 
L 723.454626 -448.069791 
L 722.17285 -457.193418 
L 720.891073 -453.839012 
L 719.609297 -456.781097 
L 718.327521 -463.050187 
L 717.045744 -466.223652 
L 715.763968 -468.679668 
L 714.482191 -465.116068 
L 713.200415 -465.223162 
L 711.918639 -458.734219 
L 710.636862 -459.00896 
L 709.355086 -462.698715 
L 708.073309 -458.323236 
L 706.791533 -464.048584 
L 705.509756 -459.255628 
L 704.22798 -456.947938 
L 702.946204 -456.910187 
L 701.664427 -458.583418 
L 700.382651 -453.64396 
L 699.100874 -453.372287 
L 697.819098 -448.546191 
L 696.537322 -451.317538 
L 695.255545 -454.581324 
L 693.973769 -451.170218 
L 692.691992 -448.435325 
L 691.410216 -448.151022 
L 690.128439 -445.019164 
L 688.846663 -450.083549 
L 687.564887 -448.027673 
L 686.28311 -448.925555 
L 685.001334 -447.664956 
L 683.719557 -448.279474 
L 682.437781 -450.23029 
L 681.156005 -446.000493 
L 679.874228 -443.625097 
L 678.592452 -446.184457 
L 677.310675 -443.705229 
L 676.028899 -445.810846 
L 674.747122 -444.074246 
L 673.465346 -439.381787 
L 672.18357 -440.120543 
L 670.901793 -439.891456 
L 669.620017 -436.973748 
L 668.33824 -439.441623 
L 667.056464 -437.517028 
L 665.774688 -434.90279 
L 664.492911 -435.04537 
L 663.211135 -434.263853 
L 661.929358 -434.262369 
L 660.647582 -433.12701 
L 659.365805 -431.378047 
L 658.084029 -430.076214 
L 656.802253 -430.544215 
L 655.520476 -429.487435 
L 654.2387 -434.352746 
L 652.956923 -429.373433 
L 651.675147 -428.640597 
L 650.393371 -427.496076 
L 649.111594 -427.840224 
L 647.829818 -428.979673 
L 646.548041 -426.910581 
L 645.266265 -425.787049 
L 643.984488 -424.795926 
L 642.702712 -424.558464 
L 641.420936 -424.847089 
L 640.139159 -423.895485 
L 638.857383 -423.276274 
L 637.575606 -422.120612 
L 636.29383 -421.474595 
L 635.012054 -417.061905 
L 633.730277 -416.55765 
L 632.448501 -417.977572 
L 631.166724 -414.937711 
L 629.884948 -416.402397 
L 628.603171 -415.548289 
L 627.321395 -418.311077 
L 626.039619 -411.967188 
L 624.757842 -411.805666 
L 623.476066 -412.371354 
L 622.194289 -409.813604 
L 620.912513 -410.206177 
L 619.630737 -409.837134 
L 618.34896 -411.527204 
L 617.067184 -406.562088 
L 615.785407 -409.356488 
L 614.503631 -404.57285 
L 613.221854 -402.222055 
L 611.940078 -401.021359 
L 610.658302 -397.718618 
L 609.376525 -395.509672 
L 608.094749 -395.225624 
L 606.812972 -393.74125 
L 605.531196 -392.452305 
L 604.24942 -391.361479 
L 602.967643 -392.171269 
L 601.685867 -389.1684 
L 600.40409 -387.546138 
L 599.122314 -383.65304 
L 597.840537 -385.292951 
L 596.558761 -385.790458 
L 595.276985 -381.522545 
L 593.995208 -380.277987 
L 592.713432 -378.896572 
L 591.431655 -375.832772 
L 590.149879 -374.829513 
L 588.868103 -376.898563 
L 587.586326 -376.327269 
L 586.30455 -373.167874 
L 585.022773 -372.707157 
L 583.740997 -371.208491 
L 582.45922 -370.016078 
L 581.177444 -369.112089 
L 579.895668 -368.964301 
L 578.613891 -367.094729 
L 577.332115 -365.131214 
L 576.050338 -368.107944 
L 574.768562 -366.559399 
L 573.486786 -368.239294 
L 572.205009 -363.995553 
L 570.923233 -364.495489 
L 569.641456 -366.830371 
L 568.35968 -364.61766 
L 567.077903 -363.263597 
L 565.796127 -368.793232 
L 564.514351 -362.772334 
L 563.232574 -369.445447 
L 561.950798 -370.128629 
L 560.669021 -370.771256 
L 559.387245 -369.418678 
L 558.105469 -369.248168 
L 556.823692 -370.041211 
L 555.541916 -373.944367 
L 554.260139 -371.828235 
L 552.978363 -378.850349 
L 551.696586 -388.177801 
L 550.41481 -385.095311 
L 549.133034 -381.55927 
L 547.851257 -392.422303 
L 546.569481 -391.932791 
L 545.287704 -394.397671 
L 544.005928 -394.906092 
L 542.724152 -409.154606 
L 541.442375 -410.250915 
L 540.160599 -415.275442 
L 538.878822 -426.50798 
L 537.597046 -433.217722 
L 536.315269 -425.161099 
L 535.033493 -430.666548 
L 533.751717 -436.340195 
L 532.46994 -440.400604 
L 531.188164 -445.67508 
L 529.906387 -455.319025 
L 528.624611 -448.35932 
L 527.342835 -466.337361 
L 526.061058 -472.36852 
L 524.779282 -475.845982 
L 523.497505 -478.759922 
L 522.215729 -478.430499 
L 520.933952 -480.514841 
L 519.652176 -479.1711 
L 518.3704 -472.829157 
L 517.088623 -480.141588 
L 515.806847 -480.295422 
L 514.52507 -473.905289 
L 513.243294 -472.623121 
L 511.961518 -474.538529 
L 510.679741 -464.167793 
L 509.397965 -469.059236 
L 508.116188 -467.147391 
L 506.834412 -456.678906 
L 505.552635 -459.000128 
L 504.270859 -454.83802 
L 502.989083 -451.521767 
L 501.707306 -448.068948 
L 500.42553 -444.190888 
L 499.143753 -440.390593 
L 497.861977 -435.156597 
L 496.580201 -432.676953 
L 495.298424 -427.46029 
L 494.016648 -425.791832 
L 492.734871 -418.620193 
L 491.453095 -419.299393 
L 490.171318 -415.719062 
L 488.889542 -411.630387 
L 487.607766 -409.087317 
L 486.325989 -405.551816 
L 485.044213 -402.504786 
L 483.762436 -398.723975 
L 482.48066 -396.4091 
L 481.198884 -393.321167 
L 479.917107 -389.358193 
L 478.635331 -386.090165 
L 477.353554 -383.665707 
L 476.071778 -380.408338 
L 474.790001 -377.816846 
L 473.508225 -374.473017 
L 472.226449 -371.273654 
L 470.944672 -369.113379 
L 469.662896 -366.08124 
L 468.381119 -362.95564 
L 467.099343 -360.93248 
L 465.817567 -358.399882 
L 464.53579 -356.332867 
L 463.254014 -352.974888 
L 461.972237 -350.572899 
L 460.690461 -348.049824 
L 459.408684 -345.570424 
L 458.126908 -343.473203 
L 456.845132 -341.344695 
L 455.563355 -339.149723 
L 454.281579 -336.556159 
L 452.999802 -334.518876 
L 451.718026 -332.287629 
L 450.43625 -330.287805 
L 449.154473 -328.071838 
L 447.872697 -326.122383 
L 446.59092 -324.109404 
L 445.309144 -322.046462 
L 444.027367 -320.541042 
L 442.745591 -318.348548 
L 441.463815 -316.79948 
L 440.182038 -314.965798 
L 438.900262 -312.790694 
L 437.618485 -311.222047 
L 436.336709 -310.787341 
L 435.054933 -308.941829 
L 433.773156 -307.995044 
L 432.49138 -306.12004 
L 431.209603 -304.193416 
L 429.927827 -303.131115 
L 428.64605 -302.048623 
L 427.364274 -302.080911 
L 426.082498 -301.121277 
L 424.800721 -300.429547 
L 423.518945 -299.894804 
L 422.237168 -298.510499 
L 420.955392 -297.419734 
L 419.673616 -296.342659 
L 418.391839 -297.21076 
L 417.110063 -296.564598 
L 415.828286 -297.727654 
L 414.54651 -295.994833 
L 413.264733 -295.981841 
L 411.982957 -294.529682 
L 410.701181 -297.523965 
L 409.419404 -294.148568 
L 408.137628 -294.493463 
L 406.855851 -296.413821 
L 405.574075 -296.969385 
L 404.292299 -295.214753 
L 403.010522 -292.408768 
L 401.728746 -293.588864 
L 400.446969 -293.664345 
L 399.165193 -296.716875 
L 397.883416 -296.838057 
L 396.60164 -295.955157 
L 395.319864 -294.133786 
L 394.038087 -294.687846 
L 392.756311 -295.155198 
L 391.474534 -294.988932 
L 390.192758 -293.887468 
L 388.910982 -294.201066 
L 387.629205 -293.508377 
L 386.347429 -292.251837 
L 385.065652 -293.177977 
L 383.783876 -291.590557 
L 382.502099 -291.26747 
L 381.220323 -291.113196 
L 379.938547 -290.095371 
L 378.65677 -289.845822 
L 377.374994 -288.61736 
L 376.093217 -287.318756 
L 374.811441 -287.339117 
L 373.529665 -287.946098 
L 372.247888 -288.484389 
L 370.966112 -285.543067 
L 369.684335 -286.113955 
L 368.402559 -284.267856 
L 367.120783 -284.298633 
L 365.839006 -285.038783 
L 364.55723 -283.176714 
L 363.275453 -284.915043 
L 361.993677 -284.883778 
L 360.7119 -282.550116 
L 359.430124 -284.388728 
L 358.148348 -282.208691 
L 356.866571 -281.225638 
L 355.584795 -283.358313 
L 354.303018 -289.596684 
L 353.021242 -285.588805 
L 351.739466 -287.330212 
L 350.457689 -296.475293 
L 349.175913 -288.356029 
L 347.894136 -286.825709 
L 346.61236 -295.281234 
L 345.330583 -297.798252 
L 344.048807 -293.488352 
L 342.767031 -302.371397 
L 341.485254 -318.227853 
L 340.203478 -299.991805 
L 338.921701 -294.113955 
L 337.639925 -290.471478 
L 336.358149 -311.832732 
L 335.076372 -311.483072 
L 333.794596 -322.460171 
L 332.512819 -330.85359 
L 331.231043 -313.018657 
L 329.949266 -320.870049 
L 328.66749 -335.823935 
L 327.385714 -346.576895 
L 326.103937 -346.657056 
L 324.822161 -344.599231 
L 323.540384 -347.346154 
L 322.258608 -347.573419 
L 320.976832 -341.651974 
L 319.695055 -342.716618 
L 318.413279 -346.477474 
L 317.131502 -343.911042 
L 315.849726 -345.37034 
L 314.567949 -346.147726 
L 313.286173 -346.037231 
L 312.004397 -343.339312 
L 310.72262 -342.145281 
L 309.440844 -340.981176 
L 308.159067 -338.79626 
L 306.877291 -337.67959 
L 305.595515 -336.004797 
L 304.313738 -333.34139 
L 303.031962 -331.038159 
L 301.750185 -329.618674 
L 300.468409 -327.760346 
L 299.186632 -325.741392 
L 297.904856 -324.316577 
L 296.62308 -322.234366 
L 295.341303 -319.68004 
L 294.059527 -318.207004 
L 292.77775 -317.163815 
L 291.495974 -315.559145 
L 290.214198 -313.946194 
L 288.932421 -312.491082 
L 287.650645 -311.103926 
L 286.368868 -309.767362 
L 285.087092 -307.939924 
L 283.805315 -306.987632 
L 282.523539 -305.670097 
L 281.241763 -304.310939 
L 279.959986 -303.033331 
L 278.67821 -301.842014 
L 277.396433 -300.840545 
L 276.114657 -299.777513 
L 274.832881 -298.369306 
L 273.551104 -297.452265 
L 272.269328 -296.355965 
L 270.987551 -295.284935 
L 269.705775 -294.238802 
L 268.423998 -293.168234 
L 267.142222 -292.075772 
L 265.860446 -291.156992 
L 264.578669 -290.093308 
L 263.296893 -289.163984 
L 262.015116 -288.169402 
L 260.73334 -287.244627 
L 259.451564 -286.289739 
L 258.169787 -285.398953 
L 256.888011 -284.448833 
L 255.606234 -283.436687 
L 254.324458 -282.648678 
L 253.042681 -281.688404 
L 251.760905 -280.866868 
L 250.479129 -279.92329 
L 249.197352 -279.230955 
L 247.915576 -278.350816 
L 246.633799 -277.512946 
L 245.352023 -276.716082 
L 244.070247 -275.91729 
L 242.78847 -275.153578 
L 241.506694 -274.278956 
L 240.224917 -273.488807 
L 238.943141 -272.84067 
L 237.661364 -272.069663 
L 236.379588 -271.299044 
L 235.097812 -270.531979 
L 233.816035 -269.792409 
L 232.534259 -269.102161 
L 231.252482 -268.34233 
L 229.970706 -267.597255 
L 228.68893 -266.848029 
L 227.407153 -266.101411 
L 226.125377 -265.334266 
L 224.8436 -264.536316 
L 223.561824 -263.849493 
L 222.280047 -263.062366 
L 220.998271 -262.290176 
L 219.716495 -261.548029 
L 218.434718 -260.782431 
L 217.152942 -260.000875 
L 215.871165 -259.242107 
L 214.589389 -258.446528 
L 213.307613 -257.719191 
L 212.025836 -256.977569 
L 210.74406 -256.193349 
L 209.462283 -255.436108 
L 208.180507 -254.725363 
L 206.89873 -253.984632 
L 205.616954 -253.257332 
L 204.335178 -252.513064 
L 203.053401 -251.765959 
L 201.771625 -251.036624 
L 200.489848 -250.27422 
L 199.208072 -249.572997 
L 197.926296 -248.826732 
L 196.644519 -248.1051 
L 195.362743 -247.315806 
L 194.080966 -246.635875 
L 192.79919 -245.889578 
L 191.517413 -245.159542 
L 190.235637 -244.41645 
L 188.953861 -243.698588 
L 187.672084 -242.973637 
L 186.390308 -242.245665 
L 185.108531 -241.518605 
L 183.826755 -240.802612 
L 182.544979 -240.126872 
L 181.263202 -239.464239 
L 179.981426 -238.803939 
L 178.699649 -238.166511 
L 177.417873 -237.517659 
L 176.136096 -236.877303 
L 174.85432 -236.265812 
L 173.572544 -235.655317 
L 172.290767 -235.048447 
L 171.008991 -234.470016 
L 169.727214 -233.901071 
L 168.445438 -233.307843 
L 167.163662 -232.759253 
L 165.881885 -232.245321 
L 164.600109 -231.693701 
L 163.318332 -231.180499 
L 162.036556 -230.723764 
L 160.754779 -230.246464 
L 159.473003 -229.810005 
L 158.191227 -229.35946 
L 156.90945 -228.948842 
L 155.627674 -228.545098 
L 154.345897 -228.167456 
L 153.064121 -227.802711 
L 151.782345 -227.461497 
L 150.500568 -227.165595 
L 149.218792 -226.866673 
L 147.937015 -226.583249 
L 146.655239 -226.330486 
L 145.373462 -226.056746 
L 144.091686 -225.826129 
L 142.80991 -225.627274 
L 141.528133 -225.394379 
L 140.246357 -225.19796 
L 138.96458 -225.027258 
L 137.682804 -224.840681 
L 136.401028 -224.659707 
L 135.119251 -224.510666 
L 133.837475 -224.348178 
L 132.555698 -224.221741 
L 131.273922 -224.066155 
L 129.992145 -223.94087 
L 128.710369 -223.80814 
L 127.428593 -223.668617 
L 126.146816 -223.555652 
L 124.86504 -223.437021 
L 123.583263 -223.297975 
L 122.301487 -223.170986 
L 121.019711 -223.04082 
L 119.737934 -222.934906 
L 118.456158 -222.799317 
L 117.174381 -222.680183 
L 115.892605 -222.556613 
L 114.610828 -222.453352 
L 113.329052 -222.363135 
L 112.047276 -222.258413 
L 110.765499 -222.139391 
L 109.483723 -222.020798 
L 108.201946 -221.926281 
L 106.92017 -221.841234 
L 105.638394 -221.728546 
L 104.356617 -221.636876 
L 103.074841 -221.525653 
z
" style="stroke: #008000; stroke-opacity: 0.3"/>
    </defs>
    <g clip-path="url(#p3c122e6161)">
     <use xlink:href="#m637ce9f777" x="0" y="505.354841" style="fill: #008000; fill-opacity: 0.3; stroke: #008000; stroke-opacity: 0.3"/>
    </g>
   </g>
   <g id="matplotlib.axis_1">
    <g id="xtick_1">
     <g id="line2d_1">
      <defs>
       <path id="m937d8e6c91" d="M 0 0 
L 0 3.5 
" style="stroke: #000000; stroke-width: 0.8"/>
      </defs>
      <g>
       <use xlink:href="#m937d8e6c91" x="103.074841" y="395.28" style="stroke: #000000; stroke-width: 0.8"/>
      </g>
     </g>
     <g id="text_1">
      <!-- 2021-07-01 -->
      <g transform="translate(17.945813 495.213718) rotate(-45) scale(0.2 -0.2)">
       <defs>
        <path id="DejaVuSans-32" d="M 1228 531 
L 3431 531 
L 3431 0 
L 469 0 
L 469 531 
Q 828 903 1448 1529 
Q 2069 2156 2228 2338 
Q 2531 2678 2651 2914 
Q 2772 3150 2772 3378 
Q 2772 3750 2511 3984 
Q 2250 4219 1831 4219 
Q 1534 4219 1204 4116 
Q 875 4013 500 3803 
L 500 4441 
Q 881 4594 1212 4672 
Q 1544 4750 1819 4750 
Q 2544 4750 2975 4387 
Q 3406 4025 3406 3419 
Q 3406 3131 3298 2873 
Q 3191 2616 2906 2266 
Q 2828 2175 2409 1742 
Q 1991 1309 1228 531 
z
" transform="scale(0.015625)"/>
        <path id="DejaVuSans-30" d="M 2034 4250 
Q 1547 4250 1301 3770 
Q 1056 3291 1056 2328 
Q 1056 1369 1301 889 
Q 1547 409 2034 409 
Q 2525 409 2770 889 
Q 3016 1369 3016 2328 
Q 3016 3291 2770 3770 
Q 2525 4250 2034 4250 
z
M 2034 4750 
Q 2819 4750 3233 4129 
Q 3647 3509 3647 2328 
Q 3647 1150 3233 529 
Q 2819 -91 2034 -91 
Q 1250 -91 836 529 
Q 422 1150 422 2328 
Q 422 3509 836 4129 
Q 1250 4750 2034 4750 
z
" transform="scale(0.015625)"/>
        <path id="DejaVuSans-31" d="M 794 531 
L 1825 531 
L 1825 4091 
L 703 3866 
L 703 4441 
L 1819 4666 
L 2450 4666 
L 2450 531 
L 3481 531 
L 3481 0 
L 794 0 
L 794 531 
z
" transform="scale(0.015625)"/>
        <path id="DejaVuSans-2d" d="M 313 2009 
L 1997 2009 
L 1997 1497 
L 313 1497 
L 313 2009 
z
" transform="scale(0.015625)"/>
        <path id="DejaVuSans-37" d="M 525 4666 
L 3525 4666 
L 3525 4397 
L 1831 0 
L 1172 0 
L 2766 4134 
L 525 4134 
L 525 4666 
z
" transform="scale(0.015625)"/>
       </defs>
       <use xlink:href="#DejaVuSans-32"/>
       <use xlink:href="#DejaVuSans-30" x="63.623047"/>
       <use xlink:href="#DejaVuSans-32" x="127.246094"/>
       <use xlink:href="#DejaVuSans-31" x="190.869141"/>
       <use xlink:href="#DejaVuSans-2d" x="254.492188"/>
       <use xlink:href="#DejaVuSans-30" x="290.576172"/>
       <use xlink:href="#DejaVuSans-37" x="354.199219"/>
       <use xlink:href="#DejaVuSans-2d" x="417.822266"/>
       <use xlink:href="#DejaVuSans-30" x="453.90625"/>
       <use xlink:href="#DejaVuSans-31" x="517.529297"/>
      </g>
     </g>
    </g>
    <g id="xtick_2">
     <g id="line2d_2">
      <g>
       <use xlink:href="#m937d8e6c91" x="138.96458" y="395.28" style="stroke: #000000; stroke-width: 0.8"/>
      </g>
     </g>
     <g id="text_2">
      <!-- 2021-07-29 -->
      <g transform="translate(53.835553 495.213718) rotate(-45) scale(0.2 -0.2)">
       <defs>
        <path id="DejaVuSans-39" d="M 703 97 
L 703 672 
Q 941 559 1184 500 
Q 1428 441 1663 441 
Q 2288 441 2617 861 
Q 2947 1281 2994 2138 
Q 2813 1869 2534 1725 
Q 2256 1581 1919 1581 
Q 1219 1581 811 2004 
Q 403 2428 403 3163 
Q 403 3881 828 4315 
Q 1253 4750 1959 4750 
Q 2769 4750 3195 4129 
Q 3622 3509 3622 2328 
Q 3622 1225 3098 567 
Q 2575 -91 1691 -91 
Q 1453 -91 1209 -44 
Q 966 3 703 97 
z
M 1959 2075 
Q 2384 2075 2632 2365 
Q 2881 2656 2881 3163 
Q 2881 3666 2632 3958 
Q 2384 4250 1959 4250 
Q 1534 4250 1286 3958 
Q 1038 3666 1038 3163 
Q 1038 2656 1286 2365 
Q 1534 2075 1959 2075 
z
" transform="scale(0.015625)"/>
       </defs>
       <use xlink:href="#DejaVuSans-32"/>
       <use xlink:href="#DejaVuSans-30" x="63.623047"/>
       <use xlink:href="#DejaVuSans-32" x="127.246094"/>
       <use xlink:href="#DejaVuSans-31" x="190.869141"/>
       <use xlink:href="#DejaVuSans-2d" x="254.492188"/>
       <use xlink:href="#DejaVuSans-30" x="290.576172"/>
       <use xlink:href="#DejaVuSans-37" x="354.199219"/>
       <use xlink:href="#DejaVuSans-2d" x="417.822266"/>
       <use xlink:href="#DejaVuSans-32" x="453.90625"/>
       <use xlink:href="#DejaVuSans-39" x="517.529297"/>
      </g>
     </g>
    </g>
    <g id="xtick_3">
     <g id="line2d_3">
      <g>
       <use xlink:href="#m937d8e6c91" x="174.85432" y="395.28" style="stroke: #000000; stroke-width: 0.8"/>
      </g>
     </g>
     <g id="text_3">
      <!-- 2021-08-26 -->
      <g transform="translate(89.725293 495.213718) rotate(-45) scale(0.2 -0.2)">
       <defs>
        <path id="DejaVuSans-38" d="M 2034 2216 
Q 1584 2216 1326 1975 
Q 1069 1734 1069 1313 
Q 1069 891 1326 650 
Q 1584 409 2034 409 
Q 2484 409 2743 651 
Q 3003 894 3003 1313 
Q 3003 1734 2745 1975 
Q 2488 2216 2034 2216 
z
M 1403 2484 
Q 997 2584 770 2862 
Q 544 3141 544 3541 
Q 544 4100 942 4425 
Q 1341 4750 2034 4750 
Q 2731 4750 3128 4425 
Q 3525 4100 3525 3541 
Q 3525 3141 3298 2862 
Q 3072 2584 2669 2484 
Q 3125 2378 3379 2068 
Q 3634 1759 3634 1313 
Q 3634 634 3220 271 
Q 2806 -91 2034 -91 
Q 1263 -91 848 271 
Q 434 634 434 1313 
Q 434 1759 690 2068 
Q 947 2378 1403 2484 
z
M 1172 3481 
Q 1172 3119 1398 2916 
Q 1625 2713 2034 2713 
Q 2441 2713 2670 2916 
Q 2900 3119 2900 3481 
Q 2900 3844 2670 4047 
Q 2441 4250 2034 4250 
Q 1625 4250 1398 4047 
Q 1172 3844 1172 3481 
z
" transform="scale(0.015625)"/>
        <path id="DejaVuSans-36" d="M 2113 2584 
Q 1688 2584 1439 2293 
Q 1191 2003 1191 1497 
Q 1191 994 1439 701 
Q 1688 409 2113 409 
Q 2538 409 2786 701 
Q 3034 994 3034 1497 
Q 3034 2003 2786 2293 
Q 2538 2584 2113 2584 
z
M 3366 4563 
L 3366 3988 
Q 3128 4100 2886 4159 
Q 2644 4219 2406 4219 
Q 1781 4219 1451 3797 
Q 1122 3375 1075 2522 
Q 1259 2794 1537 2939 
Q 1816 3084 2150 3084 
Q 2853 3084 3261 2657 
Q 3669 2231 3669 1497 
Q 3669 778 3244 343 
Q 2819 -91 2113 -91 
Q 1303 -91 875 529 
Q 447 1150 447 2328 
Q 447 3434 972 4092 
Q 1497 4750 2381 4750 
Q 2619 4750 2861 4703 
Q 3103 4656 3366 4563 
z
" transform="scale(0.015625)"/>
       </defs>
       <use xlink:href="#DejaVuSans-32"/>
       <use xlink:href="#DejaVuSans-30" x="63.623047"/>
       <use xlink:href="#DejaVuSans-32" x="127.246094"/>
       <use xlink:href="#DejaVuSans-31" x="190.869141"/>
       <use xlink:href="#DejaVuSans-2d" x="254.492188"/>
       <use xlink:href="#DejaVuSans-30" x="290.576172"/>
       <use xlink:href="#DejaVuSans-38" x="354.199219"/>
       <use xlink:href="#DejaVuSans-2d" x="417.822266"/>
       <use xlink:href="#DejaVuSans-32" x="453.90625"/>
       <use xlink:href="#DejaVuSans-36" x="517.529297"/>
      </g>
     </g>
    </g>
    <g id="xtick_4">
     <g id="line2d_4">
      <g>
       <use xlink:href="#m937d8e6c91" x="210.74406" y="395.28" style="stroke: #000000; stroke-width: 0.8"/>
      </g>
     </g>
     <g id="text_4">
      <!-- 2021-09-23 -->
      <g transform="translate(125.615032 495.213718) rotate(-45) scale(0.2 -0.2)">
       <defs>
        <path id="DejaVuSans-33" d="M 2597 2516 
Q 3050 2419 3304 2112 
Q 3559 1806 3559 1356 
Q 3559 666 3084 287 
Q 2609 -91 1734 -91 
Q 1441 -91 1130 -33 
Q 819 25 488 141 
L 488 750 
Q 750 597 1062 519 
Q 1375 441 1716 441 
Q 2309 441 2620 675 
Q 2931 909 2931 1356 
Q 2931 1769 2642 2001 
Q 2353 2234 1838 2234 
L 1294 2234 
L 1294 2753 
L 1863 2753 
Q 2328 2753 2575 2939 
Q 2822 3125 2822 3475 
Q 2822 3834 2567 4026 
Q 2313 4219 1838 4219 
Q 1578 4219 1281 4162 
Q 984 4106 628 3988 
L 628 4550 
Q 988 4650 1302 4700 
Q 1616 4750 1894 4750 
Q 2613 4750 3031 4423 
Q 3450 4097 3450 3541 
Q 3450 3153 3228 2886 
Q 3006 2619 2597 2516 
z
" transform="scale(0.015625)"/>
       </defs>
       <use xlink:href="#DejaVuSans-32"/>
       <use xlink:href="#DejaVuSans-30" x="63.623047"/>
       <use xlink:href="#DejaVuSans-32" x="127.246094"/>
       <use xlink:href="#DejaVuSans-31" x="190.869141"/>
       <use xlink:href="#DejaVuSans-2d" x="254.492188"/>
       <use xlink:href="#DejaVuSans-30" x="290.576172"/>
       <use xlink:href="#DejaVuSans-39" x="354.199219"/>
       <use xlink:href="#DejaVuSans-2d" x="417.822266"/>
       <use xlink:href="#DejaVuSans-32" x="453.90625"/>
       <use xlink:href="#DejaVuSans-33" x="517.529297"/>
      </g>
     </g>
    </g>
    <g id="xtick_5">
     <g id="line2d_5">
      <g>
       <use xlink:href="#m937d8e6c91" x="246.633799" y="395.28" style="stroke: #000000; stroke-width: 0.8"/>
      </g>
     </g>
     <g id="text_5">
      <!-- 2021-10-21 -->
      <g transform="translate(161.504772 495.213718) rotate(-45) scale(0.2 -0.2)">
       <use xlink:href="#DejaVuSans-32"/>
       <use xlink:href="#DejaVuSans-30" x="63.623047"/>
       <use xlink:href="#DejaVuSans-32" x="127.246094"/>
       <use xlink:href="#DejaVuSans-31" x="190.869141"/>
       <use xlink:href="#DejaVuSans-2d" x="254.492188"/>
       <use xlink:href="#DejaVuSans-31" x="290.576172"/>
       <use xlink:href="#DejaVuSans-30" x="354.199219"/>
       <use xlink:href="#DejaVuSans-2d" x="417.822266"/>
       <use xlink:href="#DejaVuSans-32" x="453.90625"/>
       <use xlink:href="#DejaVuSans-31" x="517.529297"/>
      </g>
     </g>
    </g>
    <g id="xtick_6">
     <g id="line2d_6">
      <g>
       <use xlink:href="#m937d8e6c91" x="282.523539" y="395.28" style="stroke: #000000; stroke-width: 0.8"/>
      </g>
     </g>
     <g id="text_6">
      <!-- 2021-11-18 -->
      <g transform="translate(197.394512 495.213718) rotate(-45) scale(0.2 -0.2)">
       <use xlink:href="#DejaVuSans-32"/>
       <use xlink:href="#DejaVuSans-30" x="63.623047"/>
       <use xlink:href="#DejaVuSans-32" x="127.246094"/>
       <use xlink:href="#DejaVuSans-31" x="190.869141"/>
       <use xlink:href="#DejaVuSans-2d" x="254.492188"/>
       <use xlink:href="#DejaVuSans-31" x="290.576172"/>
       <use xlink:href="#DejaVuSans-31" x="354.199219"/>
       <use xlink:href="#DejaVuSans-2d" x="417.822266"/>
       <use xlink:href="#DejaVuSans-31" x="453.90625"/>
       <use xlink:href="#DejaVuSans-38" x="517.529297"/>
      </g>
     </g>
    </g>
    <g id="xtick_7">
     <g id="line2d_7">
      <g>
       <use xlink:href="#m937d8e6c91" x="318.413279" y="395.28" style="stroke: #000000; stroke-width: 0.8"/>
      </g>
     </g>
     <g id="text_7">
      <!-- 2021-12-16 -->
      <g transform="translate(233.284251 495.213718) rotate(-45) scale(0.2 -0.2)">
       <use xlink:href="#DejaVuSans-32"/>
       <use xlink:href="#DejaVuSans-30" x="63.623047"/>
       <use xlink:href="#DejaVuSans-32" x="127.246094"/>
       <use xlink:href="#DejaVuSans-31" x="190.869141"/>
       <use xlink:href="#DejaVuSans-2d" x="254.492188"/>
       <use xlink:href="#DejaVuSans-31" x="290.576172"/>
       <use xlink:href="#DejaVuSans-32" x="354.199219"/>
       <use xlink:href="#DejaVuSans-2d" x="417.822266"/>
       <use xlink:href="#DejaVuSans-31" x="453.90625"/>
       <use xlink:href="#DejaVuSans-36" x="517.529297"/>
      </g>
     </g>
    </g>
    <g id="xtick_8">
     <g id="line2d_8">
      <g>
       <use xlink:href="#m937d8e6c91" x="354.303018" y="395.28" style="stroke: #000000; stroke-width: 0.8"/>
      </g>
     </g>
     <g id="text_8">
      <!-- 2022-01-13 -->
      <g transform="translate(269.173991 495.213718) rotate(-45) scale(0.2 -0.2)">
       <use xlink:href="#DejaVuSans-32"/>
       <use xlink:href="#DejaVuSans-30" x="63.623047"/>
       <use xlink:href="#DejaVuSans-32" x="127.246094"/>
       <use xlink:href="#DejaVuSans-32" x="190.869141"/>
       <use xlink:href="#DejaVuSans-2d" x="254.492188"/>
       <use xlink:href="#DejaVuSans-30" x="290.576172"/>
       <use xlink:href="#DejaVuSans-31" x="354.199219"/>
       <use xlink:href="#DejaVuSans-2d" x="417.822266"/>
       <use xlink:href="#DejaVuSans-31" x="453.90625"/>
       <use xlink:href="#DejaVuSans-33" x="517.529297"/>
      </g>
     </g>
    </g>
    <g id="xtick_9">
     <g id="line2d_9">
      <g>
       <use xlink:href="#m937d8e6c91" x="390.192758" y="395.28" style="stroke: #000000; stroke-width: 0.8"/>
      </g>
     </g>
     <g id="text_9">
      <!-- 2022-02-10 -->
      <g transform="translate(305.063731 495.213718) rotate(-45) scale(0.2 -0.2)">
       <use xlink:href="#DejaVuSans-32"/>
       <use xlink:href="#DejaVuSans-30" x="63.623047"/>
       <use xlink:href="#DejaVuSans-32" x="127.246094"/>
       <use xlink:href="#DejaVuSans-32" x="190.869141"/>
       <use xlink:href="#DejaVuSans-2d" x="254.492188"/>
       <use xlink:href="#DejaVuSans-30" x="290.576172"/>
       <use xlink:href="#DejaVuSans-32" x="354.199219"/>
       <use xlink:href="#DejaVuSans-2d" x="417.822266"/>
       <use xlink:href="#DejaVuSans-31" x="453.90625"/>
       <use xlink:href="#DejaVuSans-30" x="517.529297"/>
      </g>
     </g>
    </g>
    <g id="xtick_10">
     <g id="line2d_10">
      <g>
       <use xlink:href="#m937d8e6c91" x="426.082498" y="395.28" style="stroke: #000000; stroke-width: 0.8"/>
      </g>
     </g>
     <g id="text_10">
      <!-- 2022-03-10 -->
      <g transform="translate(340.95347 495.213718) rotate(-45) scale(0.2 -0.2)">
       <use xlink:href="#DejaVuSans-32"/>
       <use xlink:href="#DejaVuSans-30" x="63.623047"/>
       <use xlink:href="#DejaVuSans-32" x="127.246094"/>
       <use xlink:href="#DejaVuSans-32" x="190.869141"/>
       <use xlink:href="#DejaVuSans-2d" x="254.492188"/>
       <use xlink:href="#DejaVuSans-30" x="290.576172"/>
       <use xlink:href="#DejaVuSans-33" x="354.199219"/>
       <use xlink:href="#DejaVuSans-2d" x="417.822266"/>
       <use xlink:href="#DejaVuSans-31" x="453.90625"/>
       <use xlink:href="#DejaVuSans-30" x="517.529297"/>
      </g>
     </g>
    </g>
    <g id="xtick_11">
     <g id="line2d_11">
      <g>
       <use xlink:href="#m937d8e6c91" x="461.972237" y="395.28" style="stroke: #000000; stroke-width: 0.8"/>
      </g>
     </g>
     <g id="text_11">
      <!-- 2022-04-07 -->
      <g transform="translate(376.84321 495.213718) rotate(-45) scale(0.2 -0.2)">
       <defs>
        <path id="DejaVuSans-34" d="M 2419 4116 
L 825 1625 
L 2419 1625 
L 2419 4116 
z
M 2253 4666 
L 3047 4666 
L 3047 1625 
L 3713 1625 
L 3713 1100 
L 3047 1100 
L 3047 0 
L 2419 0 
L 2419 1100 
L 313 1100 
L 313 1709 
L 2253 4666 
z
" transform="scale(0.015625)"/>
       </defs>
       <use xlink:href="#DejaVuSans-32"/>
       <use xlink:href="#DejaVuSans-30" x="63.623047"/>
       <use xlink:href="#DejaVuSans-32" x="127.246094"/>
       <use xlink:href="#DejaVuSans-32" x="190.869141"/>
       <use xlink:href="#DejaVuSans-2d" x="254.492188"/>
       <use xlink:href="#DejaVuSans-30" x="290.576172"/>
       <use xlink:href="#DejaVuSans-34" x="354.199219"/>
       <use xlink:href="#DejaVuSans-2d" x="417.822266"/>
       <use xlink:href="#DejaVuSans-30" x="453.90625"/>
       <use xlink:href="#DejaVuSans-37" x="517.529297"/>
      </g>
     </g>
    </g>
    <g id="xtick_12">
     <g id="line2d_12">
      <g>
       <use xlink:href="#m937d8e6c91" x="497.861977" y="395.28" style="stroke: #000000; stroke-width: 0.8"/>
      </g>
     </g>
     <g id="text_12">
      <!-- 2022-05-05 -->
      <g transform="translate(412.73295 495.213718) rotate(-45) scale(0.2 -0.2)">
       <defs>
        <path id="DejaVuSans-35" d="M 691 4666 
L 3169 4666 
L 3169 4134 
L 1269 4134 
L 1269 2991 
Q 1406 3038 1543 3061 
Q 1681 3084 1819 3084 
Q 2600 3084 3056 2656 
Q 3513 2228 3513 1497 
Q 3513 744 3044 326 
Q 2575 -91 1722 -91 
Q 1428 -91 1123 -41 
Q 819 9 494 109 
L 494 744 
Q 775 591 1075 516 
Q 1375 441 1709 441 
Q 2250 441 2565 725 
Q 2881 1009 2881 1497 
Q 2881 1984 2565 2268 
Q 2250 2553 1709 2553 
Q 1456 2553 1204 2497 
Q 953 2441 691 2322 
L 691 4666 
z
" transform="scale(0.015625)"/>
       </defs>
       <use xlink:href="#DejaVuSans-32"/>
       <use xlink:href="#DejaVuSans-30" x="63.623047"/>
       <use xlink:href="#DejaVuSans-32" x="127.246094"/>
       <use xlink:href="#DejaVuSans-32" x="190.869141"/>
       <use xlink:href="#DejaVuSans-2d" x="254.492188"/>
       <use xlink:href="#DejaVuSans-30" x="290.576172"/>
       <use xlink:href="#DejaVuSans-35" x="354.199219"/>
       <use xlink:href="#DejaVuSans-2d" x="417.822266"/>
       <use xlink:href="#DejaVuSans-30" x="453.90625"/>
       <use xlink:href="#DejaVuSans-35" x="517.529297"/>
      </g>
     </g>
    </g>
    <g id="xtick_13">
     <g id="line2d_13">
      <g>
       <use xlink:href="#m937d8e6c91" x="533.751717" y="395.28" style="stroke: #000000; stroke-width: 0.8"/>
      </g>
     </g>
     <g id="text_13">
      <!-- 2022-06-02 -->
      <g transform="translate(448.622689 495.213718) rotate(-45) scale(0.2 -0.2)">
       <use xlink:href="#DejaVuSans-32"/>
       <use xlink:href="#DejaVuSans-30" x="63.623047"/>
       <use xlink:href="#DejaVuSans-32" x="127.246094"/>
       <use xlink:href="#DejaVuSans-32" x="190.869141"/>
       <use xlink:href="#DejaVuSans-2d" x="254.492188"/>
       <use xlink:href="#DejaVuSans-30" x="290.576172"/>
       <use xlink:href="#DejaVuSans-36" x="354.199219"/>
       <use xlink:href="#DejaVuSans-2d" x="417.822266"/>
       <use xlink:href="#DejaVuSans-30" x="453.90625"/>
       <use xlink:href="#DejaVuSans-32" x="517.529297"/>
      </g>
     </g>
    </g>
    <g id="xtick_14">
     <g id="line2d_14">
      <g>
       <use xlink:href="#m937d8e6c91" x="569.641456" y="395.28" style="stroke: #000000; stroke-width: 0.8"/>
      </g>
     </g>
     <g id="text_14">
      <!-- 2022-06-30 -->
      <g transform="translate(484.512429 495.213718) rotate(-45) scale(0.2 -0.2)">
       <use xlink:href="#DejaVuSans-32"/>
       <use xlink:href="#DejaVuSans-30" x="63.623047"/>
       <use xlink:href="#DejaVuSans-32" x="127.246094"/>
       <use xlink:href="#DejaVuSans-32" x="190.869141"/>
       <use xlink:href="#DejaVuSans-2d" x="254.492188"/>
       <use xlink:href="#DejaVuSans-30" x="290.576172"/>
       <use xlink:href="#DejaVuSans-36" x="354.199219"/>
       <use xlink:href="#DejaVuSans-2d" x="417.822266"/>
       <use xlink:href="#DejaVuSans-33" x="453.90625"/>
       <use xlink:href="#DejaVuSans-30" x="517.529297"/>
      </g>
     </g>
    </g>
    <g id="xtick_15">
     <g id="line2d_15">
      <g>
       <use xlink:href="#m937d8e6c91" x="605.531196" y="395.28" style="stroke: #000000; stroke-width: 0.8"/>
      </g>
     </g>
     <g id="text_15">
      <!-- 2022-07-28 -->
      <g transform="translate(520.402169 495.213718) rotate(-45) scale(0.2 -0.2)">
       <use xlink:href="#DejaVuSans-32"/>
       <use xlink:href="#DejaVuSans-30" x="63.623047"/>
       <use xlink:href="#DejaVuSans-32" x="127.246094"/>
       <use xlink:href="#DejaVuSans-32" x="190.869141"/>
       <use xlink:href="#DejaVuSans-2d" x="254.492188"/>
       <use xlink:href="#DejaVuSans-30" x="290.576172"/>
       <use xlink:href="#DejaVuSans-37" x="354.199219"/>
       <use xlink:href="#DejaVuSans-2d" x="417.822266"/>
       <use xlink:href="#DejaVuSans-32" x="453.90625"/>
       <use xlink:href="#DejaVuSans-38" x="517.529297"/>
      </g>
     </g>
    </g>
    <g id="xtick_16">
     <g id="line2d_16">
      <g>
       <use xlink:href="#m937d8e6c91" x="641.420936" y="395.28" style="stroke: #000000; stroke-width: 0.8"/>
      </g>
     </g>
     <g id="text_16">
      <!-- 2022-08-25 -->
      <g transform="translate(556.291908 495.213718) rotate(-45) scale(0.2 -0.2)">
       <use xlink:href="#DejaVuSans-32"/>
       <use xlink:href="#DejaVuSans-30" x="63.623047"/>
       <use xlink:href="#DejaVuSans-32" x="127.246094"/>
       <use xlink:href="#DejaVuSans-32" x="190.869141"/>
       <use xlink:href="#DejaVuSans-2d" x="254.492188"/>
       <use xlink:href="#DejaVuSans-30" x="290.576172"/>
       <use xlink:href="#DejaVuSans-38" x="354.199219"/>
       <use xlink:href="#DejaVuSans-2d" x="417.822266"/>
       <use xlink:href="#DejaVuSans-32" x="453.90625"/>
       <use xlink:href="#DejaVuSans-35" x="517.529297"/>
      </g>
     </g>
    </g>
    <g id="xtick_17">
     <g id="line2d_17">
      <g>
       <use xlink:href="#m937d8e6c91" x="677.310675" y="395.28" style="stroke: #000000; stroke-width: 0.8"/>
      </g>
     </g>
     <g id="text_17">
      <!-- 2022-09-22 -->
      <g transform="translate(592.181648 495.213718) rotate(-45) scale(0.2 -0.2)">
       <use xlink:href="#DejaVuSans-32"/>
       <use xlink:href="#DejaVuSans-30" x="63.623047"/>
       <use xlink:href="#DejaVuSans-32" x="127.246094"/>
       <use xlink:href="#DejaVuSans-32" x="190.869141"/>
       <use xlink:href="#DejaVuSans-2d" x="254.492188"/>
       <use xlink:href="#DejaVuSans-30" x="290.576172"/>
       <use xlink:href="#DejaVuSans-39" x="354.199219"/>
       <use xlink:href="#DejaVuSans-2d" x="417.822266"/>
       <use xlink:href="#DejaVuSans-32" x="453.90625"/>
       <use xlink:href="#DejaVuSans-32" x="517.529297"/>
      </g>
     </g>
    </g>
    <g id="xtick_18">
     <g id="line2d_18">
      <g>
       <use xlink:href="#m937d8e6c91" x="713.200415" y="395.28" style="stroke: #000000; stroke-width: 0.8"/>
      </g>
     </g>
     <g id="text_18">
      <!-- 2022-10-20 -->
      <g transform="translate(628.071388 495.213718) rotate(-45) scale(0.2 -0.2)">
       <use xlink:href="#DejaVuSans-32"/>
       <use xlink:href="#DejaVuSans-30" x="63.623047"/>
       <use xlink:href="#DejaVuSans-32" x="127.246094"/>
       <use xlink:href="#DejaVuSans-32" x="190.869141"/>
       <use xlink:href="#DejaVuSans-2d" x="254.492188"/>
       <use xlink:href="#DejaVuSans-31" x="290.576172"/>
       <use xlink:href="#DejaVuSans-30" x="354.199219"/>
       <use xlink:href="#DejaVuSans-2d" x="417.822266"/>
       <use xlink:href="#DejaVuSans-32" x="453.90625"/>
       <use xlink:href="#DejaVuSans-30" x="517.529297"/>
      </g>
     </g>
    </g>
    <g id="xtick_19">
     <g id="line2d_19">
      <g>
       <use xlink:href="#m937d8e6c91" x="749.090155" y="395.28" style="stroke: #000000; stroke-width: 0.8"/>
      </g>
     </g>
     <g id="text_19">
      <!-- 2022-11-17 -->
      <g transform="translate(663.961127 495.213718) rotate(-45) scale(0.2 -0.2)">
       <use xlink:href="#DejaVuSans-32"/>
       <use xlink:href="#DejaVuSans-30" x="63.623047"/>
       <use xlink:href="#DejaVuSans-32" x="127.246094"/>
       <use xlink:href="#DejaVuSans-32" x="190.869141"/>
       <use xlink:href="#DejaVuSans-2d" x="254.492188"/>
       <use xlink:href="#DejaVuSans-31" x="290.576172"/>
       <use xlink:href="#DejaVuSans-31" x="354.199219"/>
       <use xlink:href="#DejaVuSans-2d" x="417.822266"/>
       <use xlink:href="#DejaVuSans-31" x="453.90625"/>
       <use xlink:href="#DejaVuSans-37" x="517.529297"/>
      </g>
     </g>
    </g>
    <g id="xtick_20">
     <g id="line2d_20">
      <g>
       <use xlink:href="#m937d8e6c91" x="784.979894" y="395.28" style="stroke: #000000; stroke-width: 0.8"/>
      </g>
     </g>
     <g id="text_20">
      <!-- 2022-12-15 -->
      <g transform="translate(699.850867 495.213718) rotate(-45) scale(0.2 -0.2)">
       <use xlink:href="#DejaVuSans-32"/>
       <use xlink:href="#DejaVuSans-30" x="63.623047"/>
       <use xlink:href="#DejaVuSans-32" x="127.246094"/>
       <use xlink:href="#DejaVuSans-32" x="190.869141"/>
       <use xlink:href="#DejaVuSans-2d" x="254.492188"/>
       <use xlink:href="#DejaVuSans-31" x="290.576172"/>
       <use xlink:href="#DejaVuSans-32" x="354.199219"/>
       <use xlink:href="#DejaVuSans-2d" x="417.822266"/>
       <use xlink:href="#DejaVuSans-31" x="453.90625"/>
       <use xlink:href="#DejaVuSans-35" x="517.529297"/>
      </g>
     </g>
    </g>
    <g id="xtick_21">
     <g id="line2d_21">
      <g>
       <use xlink:href="#m937d8e6c91" x="820.869634" y="395.28" style="stroke: #000000; stroke-width: 0.8"/>
      </g>
     </g>
     <g id="text_21">
      <!-- 2023-01-12 -->
      <g transform="translate(735.740607 495.213718) rotate(-45) scale(0.2 -0.2)">
       <use xlink:href="#DejaVuSans-32"/>
       <use xlink:href="#DejaVuSans-30" x="63.623047"/>
       <use xlink:href="#DejaVuSans-32" x="127.246094"/>
       <use xlink:href="#DejaVuSans-33" x="190.869141"/>
       <use xlink:href="#DejaVuSans-2d" x="254.492188"/>
       <use xlink:href="#DejaVuSans-30" x="290.576172"/>
       <use xlink:href="#DejaVuSans-31" x="354.199219"/>
       <use xlink:href="#DejaVuSans-2d" x="417.822266"/>
       <use xlink:href="#DejaVuSans-31" x="453.90625"/>
       <use xlink:href="#DejaVuSans-32" x="517.529297"/>
      </g>
     </g>
    </g>
    <g id="xtick_22">
     <g id="line2d_22">
      <g>
       <use xlink:href="#m937d8e6c91" x="856.759374" y="395.28" style="stroke: #000000; stroke-width: 0.8"/>
      </g>
     </g>
     <g id="text_22">
      <!-- 2023-02-09 -->
      <g transform="translate(771.630346 495.213718) rotate(-45) scale(0.2 -0.2)">
       <use xlink:href="#DejaVuSans-32"/>
       <use xlink:href="#DejaVuSans-30" x="63.623047"/>
       <use xlink:href="#DejaVuSans-32" x="127.246094"/>
       <use xlink:href="#DejaVuSans-33" x="190.869141"/>
       <use xlink:href="#DejaVuSans-2d" x="254.492188"/>
       <use xlink:href="#DejaVuSans-30" x="290.576172"/>
       <use xlink:href="#DejaVuSans-32" x="354.199219"/>
       <use xlink:href="#DejaVuSans-2d" x="417.822266"/>
       <use xlink:href="#DejaVuSans-30" x="453.90625"/>
       <use xlink:href="#DejaVuSans-39" x="517.529297"/>
      </g>
     </g>
    </g>
    <g id="xtick_23">
     <g id="line2d_23">
      <g>
       <use xlink:href="#m937d8e6c91" x="892.649113" y="395.28" style="stroke: #000000; stroke-width: 0.8"/>
      </g>
     </g>
     <g id="text_23">
      <!-- 2023-03-09 -->
      <g transform="translate(807.520086 495.213718) rotate(-45) scale(0.2 -0.2)">
       <use xlink:href="#DejaVuSans-32"/>
       <use xlink:href="#DejaVuSans-30" x="63.623047"/>
       <use xlink:href="#DejaVuSans-32" x="127.246094"/>
       <use xlink:href="#DejaVuSans-33" x="190.869141"/>
       <use xlink:href="#DejaVuSans-2d" x="254.492188"/>
       <use xlink:href="#DejaVuSans-30" x="290.576172"/>
       <use xlink:href="#DejaVuSans-33" x="354.199219"/>
       <use xlink:href="#DejaVuSans-2d" x="417.822266"/>
       <use xlink:href="#DejaVuSans-30" x="453.90625"/>
       <use xlink:href="#DejaVuSans-39" x="517.529297"/>
      </g>
     </g>
    </g>
    <g id="xtick_24">
     <g id="line2d_24">
      <g>
       <use xlink:href="#m937d8e6c91" x="928.538853" y="395.28" style="stroke: #000000; stroke-width: 0.8"/>
      </g>
     </g>
     <g id="text_24">
      <!-- 2023-04-06 -->
      <g transform="translate(843.409826 495.213718) rotate(-45) scale(0.2 -0.2)">
       <use xlink:href="#DejaVuSans-32"/>
       <use xlink:href="#DejaVuSans-30" x="63.623047"/>
       <use xlink:href="#DejaVuSans-32" x="127.246094"/>
       <use xlink:href="#DejaVuSans-33" x="190.869141"/>
       <use xlink:href="#DejaVuSans-2d" x="254.492188"/>
       <use xlink:href="#DejaVuSans-30" x="290.576172"/>
       <use xlink:href="#DejaVuSans-34" x="354.199219"/>
       <use xlink:href="#DejaVuSans-2d" x="417.822266"/>
       <use xlink:href="#DejaVuSans-30" x="453.90625"/>
       <use xlink:href="#DejaVuSans-36" x="517.529297"/>
      </g>
     </g>
    </g>
    <g id="xtick_25">
     <g id="line2d_25">
      <g>
       <use xlink:href="#m937d8e6c91" x="940.074841" y="395.28" style="stroke: #000000; stroke-width: 0.8"/>
      </g>
     </g>
     <g id="text_25">
      <!-- 2023-04-15 -->
      <g transform="translate(854.945813 495.213718) rotate(-45) scale(0.2 -0.2)">
       <use xlink:href="#DejaVuSans-32"/>
       <use xlink:href="#DejaVuSans-30" x="63.623047"/>
       <use xlink:href="#DejaVuSans-32" x="127.246094"/>
       <use xlink:href="#DejaVuSans-33" x="190.869141"/>
       <use xlink:href="#DejaVuSans-2d" x="254.492188"/>
       <use xlink:href="#DejaVuSans-30" x="290.576172"/>
       <use xlink:href="#DejaVuSans-34" x="354.199219"/>
       <use xlink:href="#DejaVuSans-2d" x="417.822266"/>
       <use xlink:href="#DejaVuSans-31" x="453.90625"/>
       <use xlink:href="#DejaVuSans-35" x="517.529297"/>
      </g>
     </g>
    </g>
   </g>
   <g id="matplotlib.axis_2">
    <g id="ytick_1">
     <g id="line2d_26">
      <defs>
       <path id="mc5552a40a0" d="M 0 0 
L -3.5 0 
" style="stroke: #000000; stroke-width: 0.8"/>
      </defs>
      <g>
       <use xlink:href="#mc5552a40a0" x="103.074841" y="363.554441" style="stroke: #000000; stroke-width: 0.8"/>
      </g>
     </g>
     <g id="text_26">
      <!-- 0.05 -->
      <g transform="translate(34.784216 371.152878) scale(0.2 -0.2)">
       <defs>
        <path id="DejaVuSans-2212" d="M 678 2272 
L 4684 2272 
L 4684 1741 
L 678 1741 
L 678 2272 
z
" transform="scale(0.015625)"/>
        <path id="DejaVuSans-2e" d="M 684 794 
L 1344 794 
L 1344 0 
L 684 0 
L 684 794 
z
" transform="scale(0.015625)"/>
       </defs>
       <use xlink:href="#DejaVuSans-2212"/>
       <use xlink:href="#DejaVuSans-30" x="83.789062"/>
       <use xlink:href="#DejaVuSans-2e" x="147.412109"/>
       <use xlink:href="#DejaVuSans-30" x="179.199219"/>
       <use xlink:href="#DejaVuSans-35" x="242.822266"/>
      </g>
     </g>
    </g>
    <g id="ytick_2">
     <g id="line2d_27">
      <g>
       <use xlink:href="#mc5552a40a0" x="103.074841" y="283.936415" style="stroke: #000000; stroke-width: 0.8"/>
      </g>
     </g>
     <g id="text_27">
      <!-- 0.00 -->
      <g transform="translate(51.543591 291.534853) scale(0.2 -0.2)">
       <use xlink:href="#DejaVuSans-30"/>
       <use xlink:href="#DejaVuSans-2e" x="63.623047"/>
       <use xlink:href="#DejaVuSans-30" x="95.410156"/>
       <use xlink:href="#DejaVuSans-30" x="159.033203"/>
      </g>
     </g>
    </g>
    <g id="ytick_3">
     <g id="line2d_28">
      <g>
       <use xlink:href="#mc5552a40a0" x="103.074841" y="204.31839" style="stroke: #000000; stroke-width: 0.8"/>
      </g>
     </g>
     <g id="text_28">
      <!-- 0.05 -->
      <g transform="translate(51.543591 211.916828) scale(0.2 -0.2)">
       <use xlink:href="#DejaVuSans-30"/>
       <use xlink:href="#DejaVuSans-2e" x="63.623047"/>
       <use xlink:href="#DejaVuSans-30" x="95.410156"/>
       <use xlink:href="#DejaVuSans-35" x="159.033203"/>
      </g>
     </g>
    </g>
    <g id="ytick_4">
     <g id="line2d_29">
      <g>
       <use xlink:href="#mc5552a40a0" x="103.074841" y="124.700365" style="stroke: #000000; stroke-width: 0.8"/>
      </g>
     </g>
     <g id="text_29">
      <!-- 0.10 -->
      <g transform="translate(51.543591 132.298803) scale(0.2 -0.2)">
       <use xlink:href="#DejaVuSans-30"/>
       <use xlink:href="#DejaVuSans-2e" x="63.623047"/>
       <use xlink:href="#DejaVuSans-31" x="95.410156"/>
       <use xlink:href="#DejaVuSans-30" x="159.033203"/>
      </g>
     </g>
    </g>
    <g id="ytick_5">
     <g id="line2d_30">
      <g>
       <use xlink:href="#mc5552a40a0" x="103.074841" y="45.08234" style="stroke: #000000; stroke-width: 0.8"/>
      </g>
     </g>
     <g id="text_30">
      <!-- 0.15 -->
      <g transform="translate(51.543591 52.680778) scale(0.2 -0.2)">
       <use xlink:href="#DejaVuSans-30"/>
       <use xlink:href="#DejaVuSans-2e" x="63.623047"/>
       <use xlink:href="#DejaVuSans-31" x="95.410156"/>
       <use xlink:href="#DejaVuSans-35" x="159.033203"/>
      </g>
     </g>
    </g>
    <g id="text_31">
     <!-- Relative fitness $\gamma_y$ -->
     <g transform="translate(24.584216 291.84) rotate(-90) scale(0.2 -0.2)">
      <defs>
       <path id="DejaVuSans-52" d="M 2841 2188 
Q 3044 2119 3236 1894 
Q 3428 1669 3622 1275 
L 4263 0 
L 3584 0 
L 2988 1197 
Q 2756 1666 2539 1819 
Q 2322 1972 1947 1972 
L 1259 1972 
L 1259 0 
L 628 0 
L 628 4666 
L 2053 4666 
Q 2853 4666 3247 4331 
Q 3641 3997 3641 3322 
Q 3641 2881 3436 2590 
Q 3231 2300 2841 2188 
z
M 1259 4147 
L 1259 2491 
L 2053 2491 
Q 2509 2491 2742 2702 
Q 2975 2913 2975 3322 
Q 2975 3731 2742 3939 
Q 2509 4147 2053 4147 
L 1259 4147 
z
" transform="scale(0.015625)"/>
       <path id="DejaVuSans-65" d="M 3597 1894 
L 3597 1613 
L 953 1613 
Q 991 1019 1311 708 
Q 1631 397 2203 397 
Q 2534 397 2845 478 
Q 3156 559 3463 722 
L 3463 178 
Q 3153 47 2828 -22 
Q 2503 -91 2169 -91 
Q 1331 -91 842 396 
Q 353 884 353 1716 
Q 353 2575 817 3079 
Q 1281 3584 2069 3584 
Q 2775 3584 3186 3129 
Q 3597 2675 3597 1894 
z
M 3022 2063 
Q 3016 2534 2758 2815 
Q 2500 3097 2075 3097 
Q 1594 3097 1305 2825 
Q 1016 2553 972 2059 
L 3022 2063 
z
" transform="scale(0.015625)"/>
       <path id="DejaVuSans-6c" d="M 603 4863 
L 1178 4863 
L 1178 0 
L 603 0 
L 603 4863 
z
" transform="scale(0.015625)"/>
       <path id="DejaVuSans-61" d="M 2194 1759 
Q 1497 1759 1228 1600 
Q 959 1441 959 1056 
Q 959 750 1161 570 
Q 1363 391 1709 391 
Q 2188 391 2477 730 
Q 2766 1069 2766 1631 
L 2766 1759 
L 2194 1759 
z
M 3341 1997 
L 3341 0 
L 2766 0 
L 2766 531 
Q 2569 213 2275 61 
Q 1981 -91 1556 -91 
Q 1019 -91 701 211 
Q 384 513 384 1019 
Q 384 1609 779 1909 
Q 1175 2209 1959 2209 
L 2766 2209 
L 2766 2266 
Q 2766 2663 2505 2880 
Q 2244 3097 1772 3097 
Q 1472 3097 1187 3025 
Q 903 2953 641 2809 
L 641 3341 
Q 956 3463 1253 3523 
Q 1550 3584 1831 3584 
Q 2591 3584 2966 3190 
Q 3341 2797 3341 1997 
z
" transform="scale(0.015625)"/>
       <path id="DejaVuSans-74" d="M 1172 4494 
L 1172 3500 
L 2356 3500 
L 2356 3053 
L 1172 3053 
L 1172 1153 
Q 1172 725 1289 603 
Q 1406 481 1766 481 
L 2356 481 
L 2356 0 
L 1766 0 
Q 1100 0 847 248 
Q 594 497 594 1153 
L 594 3053 
L 172 3053 
L 172 3500 
L 594 3500 
L 594 4494 
L 1172 4494 
z
" transform="scale(0.015625)"/>
       <path id="DejaVuSans-69" d="M 603 3500 
L 1178 3500 
L 1178 0 
L 603 0 
L 603 3500 
z
M 603 4863 
L 1178 4863 
L 1178 4134 
L 603 4134 
L 603 4863 
z
" transform="scale(0.015625)"/>
       <path id="DejaVuSans-76" d="M 191 3500 
L 800 3500 
L 1894 563 
L 2988 3500 
L 3597 3500 
L 2284 0 
L 1503 0 
L 191 3500 
z
" transform="scale(0.015625)"/>
       <path id="DejaVuSans-20" transform="scale(0.015625)"/>
       <path id="DejaVuSans-66" d="M 2375 4863 
L 2375 4384 
L 1825 4384 
Q 1516 4384 1395 4259 
Q 1275 4134 1275 3809 
L 1275 3500 
L 2222 3500 
L 2222 3053 
L 1275 3053 
L 1275 0 
L 697 0 
L 697 3053 
L 147 3053 
L 147 3500 
L 697 3500 
L 697 3744 
Q 697 4328 969 4595 
Q 1241 4863 1831 4863 
L 2375 4863 
z
" transform="scale(0.015625)"/>
       <path id="DejaVuSans-6e" d="M 3513 2113 
L 3513 0 
L 2938 0 
L 2938 2094 
Q 2938 2591 2744 2837 
Q 2550 3084 2163 3084 
Q 1697 3084 1428 2787 
Q 1159 2491 1159 1978 
L 1159 0 
L 581 0 
L 581 3500 
L 1159 3500 
L 1159 2956 
Q 1366 3272 1645 3428 
Q 1925 3584 2291 3584 
Q 2894 3584 3203 3211 
Q 3513 2838 3513 2113 
z
" transform="scale(0.015625)"/>
       <path id="DejaVuSans-73" d="M 2834 3397 
L 2834 2853 
Q 2591 2978 2328 3040 
Q 2066 3103 1784 3103 
Q 1356 3103 1142 2972 
Q 928 2841 928 2578 
Q 928 2378 1081 2264 
Q 1234 2150 1697 2047 
L 1894 2003 
Q 2506 1872 2764 1633 
Q 3022 1394 3022 966 
Q 3022 478 2636 193 
Q 2250 -91 1575 -91 
Q 1294 -91 989 -36 
Q 684 19 347 128 
L 347 722 
Q 666 556 975 473 
Q 1284 391 1588 391 
Q 1994 391 2212 530 
Q 2431 669 2431 922 
Q 2431 1156 2273 1281 
Q 2116 1406 1581 1522 
L 1381 1569 
Q 847 1681 609 1914 
Q 372 2147 372 2553 
Q 372 3047 722 3315 
Q 1072 3584 1716 3584 
Q 2034 3584 2315 3537 
Q 2597 3491 2834 3397 
z
" transform="scale(0.015625)"/>
       <path id="DejaVuSans-Oblique-3b3" d="M 1491 2950 
L 1838 788 
L 3456 3500 
L 4066 3500 
L 1972 0 
L 1713 -1331 
L 1138 -1331 
L 1397 0 
L 988 2613 
Q 925 3006 628 3006 
L 475 3006 
L 569 3500 
L 788 3500 
Q 1403 3500 1491 2950 
z
" transform="scale(0.015625)"/>
       <path id="DejaVuSans-Oblique-79" d="M 1588 -325 
Q 1188 -997 936 -1164 
Q 684 -1331 294 -1331 
L -159 -1331 
L -63 -850 
L 269 -850 
Q 509 -850 678 -719 
Q 847 -588 1056 -206 
L 1234 128 
L 459 3500 
L 1069 3500 
L 1650 819 
L 3256 3500 
L 3859 3500 
L 1588 -325 
z
" transform="scale(0.015625)"/>
      </defs>
      <use xlink:href="#DejaVuSans-52" transform="translate(0 0.015625)"/>
      <use xlink:href="#DejaVuSans-65" transform="translate(69.482422 0.015625)"/>
      <use xlink:href="#DejaVuSans-6c" transform="translate(131.005859 0.015625)"/>
      <use xlink:href="#DejaVuSans-61" transform="translate(158.789062 0.015625)"/>
      <use xlink:href="#DejaVuSans-74" transform="translate(220.068359 0.015625)"/>
      <use xlink:href="#DejaVuSans-69" transform="translate(259.277344 0.015625)"/>
      <use xlink:href="#DejaVuSans-76" transform="translate(287.060547 0.015625)"/>
      <use xlink:href="#DejaVuSans-65" transform="translate(346.240234 0.015625)"/>
      <use xlink:href="#DejaVuSans-20" transform="translate(407.763672 0.015625)"/>
      <use xlink:href="#DejaVuSans-66" transform="translate(439.550781 0.015625)"/>
      <use xlink:href="#DejaVuSans-69" transform="translate(474.755859 0.015625)"/>
      <use xlink:href="#DejaVuSans-74" transform="translate(502.539062 0.015625)"/>
      <use xlink:href="#DejaVuSans-6e" transform="translate(541.748047 0.015625)"/>
      <use xlink:href="#DejaVuSans-65" transform="translate(605.126953 0.015625)"/>
      <use xlink:href="#DejaVuSans-73" transform="translate(666.650391 0.015625)"/>
      <use xlink:href="#DejaVuSans-73" transform="translate(718.75 0.015625)"/>
      <use xlink:href="#DejaVuSans-20" transform="translate(770.849609 0.015625)"/>
      <use xlink:href="#DejaVuSans-Oblique-3b3" transform="translate(802.636719 0.015625)"/>
      <use xlink:href="#DejaVuSans-Oblique-79" transform="translate(861.816406 -16.390625) scale(0.7)"/>
     </g>
    </g>
   </g>
   <g id="line2d_31">
    <path d="M 103.074841 283.936415 
L 1041.965466 283.936415 
" clip-path="url(#p3c122e6161)" style="fill: none; stroke-dasharray: 7.4,3.2; stroke-dashoffset: 0; stroke: #000000; stroke-width: 2"/>
   </g>
   <g id="patch_3">
    <path d="M 103.074841 395.28 
L 103.074841 7.2 
" style="fill: none; stroke: #000000; stroke-width: 0.8; stroke-linejoin: miter; stroke-linecap: square"/>
   </g>
   <g id="patch_4">
    <path d="M 940.074841 395.28 
L 940.074841 7.2 
" style="fill: none; stroke: #000000; stroke-width: 0.8; stroke-linejoin: miter; stroke-linecap: square"/>
   </g>
   <g id="patch_5">
    <path d="M 103.074841 395.28 
L 940.074841 395.28 
" style="fill: none; stroke: #000000; stroke-width: 0.8; stroke-linejoin: miter; stroke-linecap: square"/>
   </g>
   <g id="patch_6">
    <path d="M 103.074841 7.2 
L 940.074841 7.2 
" style="fill: none; stroke: #000000; stroke-width: 0.8; stroke-linejoin: miter; stroke-linecap: square"/>
   </g>
  </g>
  <g id="axes_2">
   <g id="matplotlib.axis_3">
    <g id="ytick_6">
     <g id="line2d_32">
      <defs>
       <path id="m966646afe2" d="M 0 0 
L 3.5 0 
" style="stroke: #000000; stroke-width: 0.8"/>
      </defs>
      <g>
       <use xlink:href="#m966646afe2" x="940.074841" y="363.554441" style="stroke: #000000; stroke-width: 0.8"/>
      </g>
     </g>
     <g id="text_32">
      <!-- 0.05 -->
      <g transform="translate(947.074841 371.152878) scale(0.2 -0.2)">
       <use xlink:href="#DejaVuSans-2212"/>
       <use xlink:href="#DejaVuSans-30" x="83.789062"/>
       <use xlink:href="#DejaVuSans-2e" x="147.412109"/>
       <use xlink:href="#DejaVuSans-30" x="179.199219"/>
       <use xlink:href="#DejaVuSans-35" x="242.822266"/>
      </g>
     </g>
    </g>
    <g id="ytick_7">
     <g id="line2d_33">
      <g>
       <use xlink:href="#m966646afe2" x="940.074841" y="283.936415" style="stroke: #000000; stroke-width: 0.8"/>
      </g>
     </g>
     <g id="text_33">
      <!-- 0.00 -->
      <g transform="translate(947.074841 291.534853) scale(0.2 -0.2)">
       <use xlink:href="#DejaVuSans-30"/>
       <use xlink:href="#DejaVuSans-2e" x="63.623047"/>
       <use xlink:href="#DejaVuSans-30" x="95.410156"/>
       <use xlink:href="#DejaVuSans-30" x="159.033203"/>
      </g>
     </g>
    </g>
    <g id="ytick_8">
     <g id="line2d_34">
      <g>
       <use xlink:href="#m966646afe2" x="940.074841" y="204.31839" style="stroke: #000000; stroke-width: 0.8"/>
      </g>
     </g>
     <g id="text_34">
      <!-- 0.05 -->
      <g transform="translate(947.074841 211.916828) scale(0.2 -0.2)">
       <use xlink:href="#DejaVuSans-30"/>
       <use xlink:href="#DejaVuSans-2e" x="63.623047"/>
       <use xlink:href="#DejaVuSans-30" x="95.410156"/>
       <use xlink:href="#DejaVuSans-35" x="159.033203"/>
      </g>
     </g>
    </g>
    <g id="ytick_9">
     <g id="line2d_35">
      <g>
       <use xlink:href="#m966646afe2" x="940.074841" y="124.700365" style="stroke: #000000; stroke-width: 0.8"/>
      </g>
     </g>
     <g id="text_35">
      <!-- 0.10 -->
      <g transform="translate(947.074841 132.298803) scale(0.2 -0.2)">
       <use xlink:href="#DejaVuSans-30"/>
       <use xlink:href="#DejaVuSans-2e" x="63.623047"/>
       <use xlink:href="#DejaVuSans-31" x="95.410156"/>
       <use xlink:href="#DejaVuSans-30" x="159.033203"/>
      </g>
     </g>
    </g>
    <g id="ytick_10">
     <g id="line2d_36">
      <g>
       <use xlink:href="#m966646afe2" x="940.074841" y="45.08234" style="stroke: #000000; stroke-width: 0.8"/>
      </g>
     </g>
     <g id="text_36">
      <!-- 0.15 -->
      <g transform="translate(947.074841 52.680778) scale(0.2 -0.2)">
       <use xlink:href="#DejaVuSans-30"/>
       <use xlink:href="#DejaVuSans-2e" x="63.623047"/>
       <use xlink:href="#DejaVuSans-31" x="95.410156"/>
       <use xlink:href="#DejaVuSans-35" x="159.033203"/>
      </g>
     </g>
    </g>
    <g id="text_37">
     <!-- Change in proportion $\gamma_{prop}$ -->
     <g transform="translate(1027.565466 332.74) rotate(-90) scale(0.2 -0.2)">
      <defs>
       <path id="DejaVuSans-43" d="M 4122 4306 
L 4122 3641 
Q 3803 3938 3442 4084 
Q 3081 4231 2675 4231 
Q 1875 4231 1450 3742 
Q 1025 3253 1025 2328 
Q 1025 1406 1450 917 
Q 1875 428 2675 428 
Q 3081 428 3442 575 
Q 3803 722 4122 1019 
L 4122 359 
Q 3791 134 3420 21 
Q 3050 -91 2638 -91 
Q 1578 -91 968 557 
Q 359 1206 359 2328 
Q 359 3453 968 4101 
Q 1578 4750 2638 4750 
Q 3056 4750 3426 4639 
Q 3797 4528 4122 4306 
z
" transform="scale(0.015625)"/>
       <path id="DejaVuSans-68" d="M 3513 2113 
L 3513 0 
L 2938 0 
L 2938 2094 
Q 2938 2591 2744 2837 
Q 2550 3084 2163 3084 
Q 1697 3084 1428 2787 
Q 1159 2491 1159 1978 
L 1159 0 
L 581 0 
L 581 4863 
L 1159 4863 
L 1159 2956 
Q 1366 3272 1645 3428 
Q 1925 3584 2291 3584 
Q 2894 3584 3203 3211 
Q 3513 2838 3513 2113 
z
" transform="scale(0.015625)"/>
       <path id="DejaVuSans-67" d="M 2906 1791 
Q 2906 2416 2648 2759 
Q 2391 3103 1925 3103 
Q 1463 3103 1205 2759 
Q 947 2416 947 1791 
Q 947 1169 1205 825 
Q 1463 481 1925 481 
Q 2391 481 2648 825 
Q 2906 1169 2906 1791 
z
M 3481 434 
Q 3481 -459 3084 -895 
Q 2688 -1331 1869 -1331 
Q 1566 -1331 1297 -1286 
Q 1028 -1241 775 -1147 
L 775 -588 
Q 1028 -725 1275 -790 
Q 1522 -856 1778 -856 
Q 2344 -856 2625 -561 
Q 2906 -266 2906 331 
L 2906 616 
Q 2728 306 2450 153 
Q 2172 0 1784 0 
Q 1141 0 747 490 
Q 353 981 353 1791 
Q 353 2603 747 3093 
Q 1141 3584 1784 3584 
Q 2172 3584 2450 3431 
Q 2728 3278 2906 2969 
L 2906 3500 
L 3481 3500 
L 3481 434 
z
" transform="scale(0.015625)"/>
       <path id="DejaVuSans-70" d="M 1159 525 
L 1159 -1331 
L 581 -1331 
L 581 3500 
L 1159 3500 
L 1159 2969 
Q 1341 3281 1617 3432 
Q 1894 3584 2278 3584 
Q 2916 3584 3314 3078 
Q 3713 2572 3713 1747 
Q 3713 922 3314 415 
Q 2916 -91 2278 -91 
Q 1894 -91 1617 61 
Q 1341 213 1159 525 
z
M 3116 1747 
Q 3116 2381 2855 2742 
Q 2594 3103 2138 3103 
Q 1681 3103 1420 2742 
Q 1159 2381 1159 1747 
Q 1159 1113 1420 752 
Q 1681 391 2138 391 
Q 2594 391 2855 752 
Q 3116 1113 3116 1747 
z
" transform="scale(0.015625)"/>
       <path id="DejaVuSans-72" d="M 2631 2963 
Q 2534 3019 2420 3045 
Q 2306 3072 2169 3072 
Q 1681 3072 1420 2755 
Q 1159 2438 1159 1844 
L 1159 0 
L 581 0 
L 581 3500 
L 1159 3500 
L 1159 2956 
Q 1341 3275 1631 3429 
Q 1922 3584 2338 3584 
Q 2397 3584 2469 3576 
Q 2541 3569 2628 3553 
L 2631 2963 
z
" transform="scale(0.015625)"/>
       <path id="DejaVuSans-6f" d="M 1959 3097 
Q 1497 3097 1228 2736 
Q 959 2375 959 1747 
Q 959 1119 1226 758 
Q 1494 397 1959 397 
Q 2419 397 2687 759 
Q 2956 1122 2956 1747 
Q 2956 2369 2687 2733 
Q 2419 3097 1959 3097 
z
M 1959 3584 
Q 2709 3584 3137 3096 
Q 3566 2609 3566 1747 
Q 3566 888 3137 398 
Q 2709 -91 1959 -91 
Q 1206 -91 779 398 
Q 353 888 353 1747 
Q 353 2609 779 3096 
Q 1206 3584 1959 3584 
z
" transform="scale(0.015625)"/>
       <path id="DejaVuSans-Oblique-70" d="M 3175 2156 
Q 3175 2616 2975 2859 
Q 2775 3103 2400 3103 
Q 2144 3103 1911 2972 
Q 1678 2841 1497 2591 
Q 1319 2344 1212 1994 
Q 1106 1644 1106 1300 
Q 1106 863 1306 627 
Q 1506 391 1875 391 
Q 2147 391 2380 519 
Q 2613 647 2778 891 
Q 2956 1147 3065 1494 
Q 3175 1841 3175 2156 
z
M 1394 2969 
Q 1625 3272 1939 3428 
Q 2253 3584 2638 3584 
Q 3175 3584 3472 3232 
Q 3769 2881 3769 2247 
Q 3769 1728 3584 1258 
Q 3400 788 3053 416 
Q 2822 169 2531 39 
Q 2241 -91 1919 -91 
Q 1547 -91 1294 64 
Q 1041 219 916 525 
L 556 -1331 
L -19 -1331 
L 922 3500 
L 1497 3500 
L 1394 2969 
z
" transform="scale(0.015625)"/>
       <path id="DejaVuSans-Oblique-72" d="M 2853 2969 
Q 2766 3016 2653 3041 
Q 2541 3066 2413 3066 
Q 1953 3066 1609 2717 
Q 1266 2369 1153 1784 
L 800 0 
L 225 0 
L 909 3500 
L 1484 3500 
L 1375 2956 
Q 1603 3259 1920 3421 
Q 2238 3584 2597 3584 
Q 2691 3584 2781 3573 
Q 2872 3563 2963 3538 
L 2853 2969 
z
" transform="scale(0.015625)"/>
       <path id="DejaVuSans-Oblique-6f" d="M 1625 -91 
Q 1009 -91 651 289 
Q 294 669 294 1325 
Q 294 1706 417 2101 
Q 541 2497 738 2766 
Q 1047 3184 1428 3384 
Q 1809 3584 2291 3584 
Q 2888 3584 3255 3212 
Q 3622 2841 3622 2241 
Q 3622 1825 3500 1412 
Q 3378 1000 3181 728 
Q 2875 309 2494 109 
Q 2113 -91 1625 -91 
z
M 891 1344 
Q 891 869 1089 633 
Q 1288 397 1691 397 
Q 2269 397 2648 901 
Q 3028 1406 3028 2181 
Q 3028 2634 2825 2865 
Q 2622 3097 2228 3097 
Q 1903 3097 1650 2945 
Q 1397 2794 1197 2484 
Q 1050 2253 970 1956 
Q 891 1659 891 1344 
z
" transform="scale(0.015625)"/>
      </defs>
      <use xlink:href="#DejaVuSans-43" transform="translate(0 0.015625)"/>
      <use xlink:href="#DejaVuSans-68" transform="translate(69.824219 0.015625)"/>
      <use xlink:href="#DejaVuSans-61" transform="translate(133.203125 0.015625)"/>
      <use xlink:href="#DejaVuSans-6e" transform="translate(194.482422 0.015625)"/>
      <use xlink:href="#DejaVuSans-67" transform="translate(257.861328 0.015625)"/>
      <use xlink:href="#DejaVuSans-65" transform="translate(321.337891 0.015625)"/>
      <use xlink:href="#DejaVuSans-20" transform="translate(382.861328 0.015625)"/>
      <use xlink:href="#DejaVuSans-69" transform="translate(414.648438 0.015625)"/>
      <use xlink:href="#DejaVuSans-6e" transform="translate(442.431641 0.015625)"/>
      <use xlink:href="#DejaVuSans-20" transform="translate(505.810547 0.015625)"/>
      <use xlink:href="#DejaVuSans-70" transform="translate(537.597656 0.015625)"/>
      <use xlink:href="#DejaVuSans-72" transform="translate(601.074219 0.015625)"/>
      <use xlink:href="#DejaVuSans-6f" transform="translate(642.1875 0.015625)"/>
      <use xlink:href="#DejaVuSans-70" transform="translate(703.369141 0.015625)"/>
      <use xlink:href="#DejaVuSans-6f" transform="translate(766.845703 0.015625)"/>
      <use xlink:href="#DejaVuSans-72" transform="translate(828.027344 0.015625)"/>
      <use xlink:href="#DejaVuSans-74" transform="translate(869.140625 0.015625)"/>
      <use xlink:href="#DejaVuSans-69" transform="translate(908.349609 0.015625)"/>
      <use xlink:href="#DejaVuSans-6f" transform="translate(936.132812 0.015625)"/>
      <use xlink:href="#DejaVuSans-6e" transform="translate(997.314453 0.015625)"/>
      <use xlink:href="#DejaVuSans-20" transform="translate(1060.693359 0.015625)"/>
      <use xlink:href="#DejaVuSans-Oblique-3b3" transform="translate(1092.480469 0.015625)"/>
      <use xlink:href="#DejaVuSans-Oblique-70" transform="translate(1151.660156 -16.390625) scale(0.7)"/>
      <use xlink:href="#DejaVuSans-Oblique-72" transform="translate(1196.09375 -16.390625) scale(0.7)"/>
      <use xlink:href="#DejaVuSans-Oblique-6f" transform="translate(1224.873047 -16.390625) scale(0.7)"/>
      <use xlink:href="#DejaVuSans-Oblique-70" transform="translate(1267.700195 -16.390625) scale(0.7)"/>
     </g>
    </g>
   </g>
   <g id="line2d_37">
    <path d="M 940.074841 283.936415 
" clip-path="url(#p3c122e6161)" style="fill: none; stroke: #ffa500; stroke-width: 1.5; stroke-linecap: square"/>
   </g>
   <g id="patch_7">
    <path d="M 103.074841 395.28 
L 103.074841 7.2 
" style="fill: none; stroke: #000000; stroke-width: 0.8; stroke-linejoin: miter; stroke-linecap: square"/>
   </g>
   <g id="patch_8">
    <path d="M 940.074841 395.28 
L 940.074841 7.2 
" style="fill: none; stroke: #000000; stroke-width: 0.8; stroke-linejoin: miter; stroke-linecap: square"/>
   </g>
   <g id="patch_9">
    <path d="M 103.074841 395.28 
L 940.074841 395.28 
" style="fill: none; stroke: #000000; stroke-width: 0.8; stroke-linejoin: miter; stroke-linecap: square"/>
   </g>
   <g id="patch_10">
    <path d="M 103.074841 7.2 
L 940.074841 7.2 
" style="fill: none; stroke: #000000; stroke-width: 0.8; stroke-linejoin: miter; stroke-linecap: square"/>
   </g>
  </g>
 </g>
 <defs>
  <clipPath id="p3c122e6161">
   <rect x="103.074841" y="7.2" width="837" height="388.08"/>
  </clipPath>
 </defs>
</svg>
