<?xml version="1.0" encoding="utf-8" standalone="no"?>
<!DOCTYPE svg PUBLIC "-//W3C//DTD SVG 1.1//EN"
  "http://www.w3.org/Graphics/SVG/1.1/DTD/svg11.dtd">
<svg xmlns:xlink="http://www.w3.org/1999/xlink" width="947.274841pt" height="505.354841pt" viewBox="0 0 947.274841 505.354841" xmlns="http://www.w3.org/2000/svg" version="1.1">
 <metadata>
  <rdf:RDF xmlns:dc="http://purl.org/dc/elements/1.1/" xmlns:cc="http://creativecommons.org/ns#" xmlns:rdf="http://www.w3.org/1999/02/22-rdf-syntax-ns#">
   <cc:Work>
    <dc:type rdf:resource="http://purl.org/dc/dcmitype/StillImage"/>
    <dc:date>2023-11-15T18:16:00.865631</dc:date>
    <dc:format>image/svg+xml</dc:format>
    <dc:creator>
     <cc:Agent>
      <dc:title>Matplotlib v3.7.2, https://matplotlib.org/</dc:title>
     </cc:Agent>
    </dc:creator>
   </cc:Work>
  </rdf:RDF>
 </metadata>
 <defs>
  <style type="text/css">*{stroke-linejoin: round; stroke-linecap: butt}</style>
 </defs>
 <g id="figure_1">
  <g id="patch_1">
   <path d="M 0 505.354841 
L 947.274841 505.354841 
L 947.274841 -0 
L 0 -0 
z
" style="fill: #ffffff"/>
  </g>
  <g id="axes_1">
   <g id="patch_2">
    <path d="M 103.074841 395.28 
L 940.074841 395.28 
L 940.074841 7.2 
L 103.074841 7.2 
z
" style="fill: #ffffff"/>
   </g>
   <g id="PolyCollection_1">
    <path d="M -4315.31939 175.600016 
L -4315.31939 175.613568 
L -4307.271313 175.542594 
L -4299.223236 175.481512 
L -4291.175159 175.403922 
L -4283.127082 175.353054 
L -4275.079005 175.295464 
L -4267.030929 175.229546 
L -4258.982852 175.164464 
L -4250.934775 175.10355 
L -4242.886698 175.050386 
L -4234.838621 174.9886 
L -4226.790544 174.923817 
L -4218.742467 174.860998 
L -4210.69439 174.783441 
L -4202.646313 174.719628 
L -4194.598236 174.644151 
L -4186.550159 174.579882 
L -4178.502082 174.492316 
L -4170.454005 174.420805 
L -4162.405929 174.352069 
L -4154.357852 174.270393 
L -4146.309775 174.190911 
L -4138.261698 174.113329 
L -4130.213621 174.019237 
L -4122.165544 173.937373 
L -4114.117467 173.841142 
L -4106.06939 173.74382 
L -4098.021313 173.635978 
L -4089.973236 173.525243 
L -4081.925159 173.417159 
L -4073.877082 173.291676 
L -4065.829005 173.149479 
L -4057.780929 173.023918 
L -4049.732852 172.880862 
L -4041.684775 172.717055 
L -4033.636698 172.565306 
L -4025.588621 172.386721 
L -4017.540544 172.205606 
L -4009.492467 172.01921 
L -4001.44439 171.822369 
L -3993.396313 171.603866 
L -3985.348236 171.371161 
L -3977.300159 171.124525 
L -3969.252082 170.887573 
L -3961.204005 170.608157 
L -3953.155929 170.343408 
L -3945.107852 170.061263 
L -3937.059775 169.77846 
L -3929.011698 169.47367 
L -3920.963621 169.143234 
L -3912.915544 168.838688 
L -3904.867467 168.498578 
L -3896.81939 168.146554 
L -3888.771313 167.802302 
L -3880.723236 167.462146 
L -3872.675159 167.092207 
L -3864.627082 166.718483 
L -3856.579005 166.345824 
L -3848.530929 165.957322 
L -3840.482852 165.564239 
L -3832.434775 165.172653 
L -3824.386698 164.767494 
L -3816.338621 164.361658 
L -3808.290544 163.962518 
L -3800.242467 163.546433 
L -3792.19439 163.100246 
L -3784.146313 162.668629 
L -3776.098236 162.238164 
L -3768.050159 161.814764 
L -3760.002082 161.373211 
L -3751.954005 160.942261 
L -3743.905929 160.503451 
L -3735.857852 160.108795 
L -3727.809775 159.640779 
L -3719.761698 159.237264 
L -3711.713621 158.793362 
L -3703.665544 158.371142 
L -3695.617467 157.927301 
L -3687.56939 157.537151 
L -3679.521313 157.086541 
L -3671.473236 156.663622 
L -3663.425159 156.265295 
L -3655.377082 155.838912 
L -3647.329005 155.436513 
L -3639.280929 155.014579 
L -3631.232852 154.584021 
L -3623.184775 154.175126 
L -3615.136698 153.776776 
L -3607.088621 153.346462 
L -3599.040544 152.933094 
L -3590.992467 152.511461 
L -3582.94439 152.102473 
L -3574.896313 151.70327 
L -3566.848236 151.292507 
L -3558.800159 150.877317 
L -3550.752082 150.504449 
L -3542.704005 150.080345 
L -3534.655929 149.674248 
L -3526.607852 149.274733 
L -3518.559775 148.874442 
L -3510.511698 148.47489 
L -3502.463621 148.069794 
L -3494.415544 147.683609 
L -3486.367467 147.281351 
L -3478.31939 146.86873 
L -3470.271313 146.45122 
L -3462.223236 146.028952 
L -3454.175159 145.633971 
L -3446.127082 145.19859 
L -3438.079005 144.733883 
L -3430.030929 144.297794 
L -3421.982852 143.837585 
L -3413.934775 143.370185 
L -3405.886698 142.876419 
L -3397.838621 142.373696 
L -3389.790544 141.907 
L -3381.742467 141.37398 
L -3373.69439 140.867766 
L -3365.646313 140.322582 
L -3357.598236 139.822419 
L -3349.550159 139.233494 
L -3341.502082 138.656419 
L -3333.454005 138.095859 
L -3325.405929 137.525528 
L -3317.357852 136.937541 
L -3309.309775 136.322947 
L -3301.261698 135.74748 
L -3293.213621 135.087586 
L -3285.165544 134.508229 
L -3277.117467 133.829137 
L -3269.06939 133.17152 
L -3261.021313 132.529688 
L -3252.973236 131.914531 
L -3244.925159 131.195547 
L -3236.877082 130.546986 
L -3228.829005 129.720437 
L -3220.780929 129.010849 
L -3212.732852 128.350362 
L -3204.684775 127.603558 
L -3196.636698 126.837544 
L -3188.588621 125.954333 
L -3180.540544 125.127403 
L -3172.492467 124.439127 
L -3164.44439 123.345313 
L -3156.396313 122.468971 
L -3148.348236 121.57369 
L -3140.300159 120.644987 
L -3132.252082 119.586724 
L -3124.204005 118.592699 
L -3116.155929 117.844867 
L -3108.107852 116.88969 
L -3100.059775 115.316522 
L -3092.011698 113.996083 
L -3083.963621 113.023496 
L -3075.915544 111.673491 
L -3067.867467 110.555977 
L -3059.81939 109.58471 
L -3051.771313 108.105892 
L -3043.723236 106.422494 
L -3035.675159 105.275081 
L -3027.627082 104.545525 
L -3019.579005 103.141324 
L -3011.530929 102.520456 
L -3003.482852 101.739205 
L -2995.434775 100.322134 
L -2987.386698 100.45866 
L -2979.338621 101.069304 
L -2971.290544 102.33584 
L -2963.242467 100.955737 
L -2955.19439 103.747144 
L -2947.146313 104.377791 
L -2939.098236 100.655136 
L -2931.050159 101.723628 
L -2923.002082 103.386748 
L -2914.954005 102.418142 
L -2906.905929 102.222879 
L -2898.857852 109.321408 
L -2890.809775 119.404971 
L -2882.761698 124.414123 
L -2874.713621 113.451385 
L -2866.665544 119.064016 
L -2858.617467 126.415638 
L -2850.56939 125.961326 
L -2842.521313 140.93037 
L -2834.473236 138.844611 
L -2826.425159 134.216877 
L -2818.377082 122.806936 
L -2810.329005 133.459893 
L -2802.280929 139.84557 
L -2794.232852 137.114169 
L -2786.184775 138.744498 
L -2778.136698 144.763496 
L -2770.088621 143.901862 
L -2762.040544 138.617904 
L -2753.992467 145.136335 
L -2745.94439 146.380032 
L -2737.896313 143.970838 
L -2729.848236 148.080682 
L -2721.800159 149.539373 
L -2713.752082 149.059863 
L -2705.704005 147.723888 
L -2697.655929 149.023705 
L -2689.607852 147.551138 
L -2681.559775 147.598538 
L -2673.511698 148.830685 
L -2665.463621 147.526696 
L -2657.415544 148.092194 
L -2649.367467 148.053 
L -2641.31939 146.981869 
L -2633.271313 147.27069 
L -2625.223236 145.758801 
L -2617.175159 145.77806 
L -2609.127082 146.101383 
L -2601.079005 146.048989 
L -2593.030929 145.274779 
L -2584.982852 144.602191 
L -2576.934775 144.379223 
L -2568.886698 143.645897 
L -2560.838621 143.470907 
L -2552.790544 143.278546 
L -2544.742467 142.211536 
L -2536.69439 142.621974 
L -2528.646313 141.901347 
L -2520.598236 141.55963 
L -2512.550159 141.525704 
L -2504.502082 140.82674 
L -2496.454005 140.620507 
L -2488.405929 140.802048 
L -2480.357852 141.130609 
L -2472.309775 140.043565 
L -2464.261698 139.841867 
L -2456.213621 139.474191 
L -2448.165544 141.301579 
L -2440.117467 141.349753 
L -2432.06939 142.076422 
L -2424.021313 140.345442 
L -2415.973236 139.284578 
L -2407.925159 139.647556 
L -2399.877082 140.890065 
L -2391.829005 141.136637 
L -2383.780929 139.058392 
L -2375.732852 140.905521 
L -2367.684775 140.521114 
L -2359.636698 140.295771 
L -2351.588621 139.389215 
L -2343.540544 140.268552 
L -2335.492467 139.88202 
L -2327.44439 140.429383 
L -2319.396313 139.899321 
L -2311.348236 139.506754 
L -2303.300159 138.714883 
L -2295.252082 138.399664 
L -2287.204005 138.126396 
L -2279.155929 137.711693 
L -2271.107852 137.730556 
L -2263.059775 137.375762 
L -2255.011698 136.993414 
L -2246.963621 135.731643 
L -2238.915544 134.812168 
L -2230.867467 134.491274 
L -2222.81939 133.478043 
L -2214.771313 133.420435 
L -2206.723236 132.573855 
L -2198.675159 131.243304 
L -2190.627082 130.167279 
L -2182.579005 129.403921 
L -2174.530929 128.024246 
L -2166.482852 127.262131 
L -2158.434775 126.065675 
L -2150.386698 125.034799 
L -2142.338621 123.689841 
L -2134.290544 122.619292 
L -2126.242467 121.092846 
L -2118.19439 119.937831 
L -2110.146313 118.670303 
L -2102.098236 116.912662 
L -2094.050159 115.293857 
L -2086.002082 114.180299 
L -2077.954005 112.865909 
L -2069.905929 111.227077 
L -2061.857852 109.983457 
L -2053.809775 108.420108 
L -2045.761698 106.060991 
L -2037.713621 105.183926 
L -2029.665544 103.221402 
L -2021.617467 101.770552 
L -2013.56939 100.179886 
L -2005.521313 98.408635 
L -1997.473236 96.593171 
L -1989.425159 94.966635 
L -1981.377082 92.67512 
L -1973.329005 91.366274 
L -1965.280929 89.139426 
L -1957.232852 87.813106 
L -1949.184775 85.660975 
L -1941.136698 83.587437 
L -1933.088621 81.735501 
L -1925.040544 80.332342 
L -1916.992467 77.816494 
L -1908.94439 76.222197 
L -1900.896313 74.019022 
L -1892.848236 72.287398 
L -1884.800159 69.985581 
L -1876.752082 68.099615 
L -1868.704005 68.19859 
L -1860.655929 64.160258 
L -1852.607852 63.829904 
L -1844.559775 61.518744 
L -1836.511698 60.034536 
L -1828.463621 58.218805 
L -1820.415544 56.265509 
L -1812.367467 54.530383 
L -1804.31939 52.849969 
L -1796.271313 51.28659 
L -1788.223236 49.705474 
L -1780.175159 51.42952 
L -1772.127082 46.207701 
L -1764.079005 45.102148 
L -1756.030929 49.857746 
L -1747.982852 43.495943 
L -1739.934775 44.835956 
L -1731.886698 44.344381 
L -1723.838621 41.119718 
L -1715.790544 41.913316 
L -1707.742467 45.44572 
L -1699.69439 43.160172 
L -1691.646313 42.200123 
L -1683.598236 44.437514 
L -1675.550159 43.815762 
L -1667.502082 45.380146 
L -1659.454005 47.456075 
L -1651.405929 50.881903 
L -1643.357852 58.703697 
L -1635.309775 57.086995 
L -1627.261698 61.371039 
L -1619.213621 64.93889 
L -1611.165544 66.916267 
L -1603.117467 71.415987 
L -1595.06939 74.314254 
L -1587.021313 69.146466 
L -1578.973236 74.280371 
L -1570.925159 81.231322 
L -1562.877082 84.55843 
L -1554.829005 85.686661 
L -1546.780929 94.589275 
L -1538.732852 95.36139 
L -1530.684775 98.547804 
L -1522.636698 97.804677 
L -1514.588621 107.593825 
L -1506.540544 104.721495 
L -1498.492467 103.13347 
L -1490.44439 111.488957 
L -1482.396313 117.478414 
L -1474.348236 117.084872 
L -1466.300159 120.724492 
L -1458.252082 122.016646 
L -1450.204005 122.425761 
L -1442.155929 122.607763 
L -1434.107852 124.717329 
L -1426.059775 126.013577 
L -1418.011698 132.24515 
L -1409.963621 129.425353 
L -1401.915544 134.900155 
L -1393.867467 134.001364 
L -1385.81939 133.610975 
L -1377.771313 136.066827 
L -1369.723236 138.271191 
L -1361.675159 136.237876 
L -1353.627082 137.799992 
L -1345.579005 138.270307 
L -1337.530929 141.546623 
L -1329.482852 140.584823 
L -1321.434775 140.406355 
L -1313.386698 141.707259 
L -1305.338621 143.615991 
L -1297.290544 143.497209 
L -1289.242467 142.741909 
L -1281.19439 144.130618 
L -1273.146313 142.712964 
L -1265.098236 143.60525 
L -1257.050159 147.680099 
L -1249.002082 148.200083 
L -1240.954005 147.079907 
L -1232.905929 147.385945 
L -1224.857852 148.38759 
L -1216.809775 147.122284 
L -1208.761698 148.460065 
L -1200.713621 149.330772 
L -1192.665544 149.749746 
L -1184.617467 150.119333 
L -1176.56939 149.748174 
L -1168.521313 151.411032 
L -1160.473236 151.520606 
L -1152.425159 152.311724 
L -1144.377082 152.755979 
L -1136.329005 153.851823 
L -1128.280929 153.783121 
L -1120.232852 152.959213 
L -1112.184775 153.755331 
L -1104.136698 153.219268 
L -1096.088621 152.091115 
L -1088.040544 154.432093 
L -1079.992467 152.545558 
L -1071.94439 154.572067 
L -1063.896313 154.946529 
L -1055.848236 156.049749 
L -1047.800159 155.126477 
L -1039.752082 155.839003 
L -1031.704005 156.478624 
L -1023.655929 155.117478 
L -1015.607852 156.481574 
L -1007.559775 157.060109 
L -999.511698 157.778633 
L -991.463621 157.556948 
L -983.415544 158.837556 
L -975.367467 158.553318 
L -967.31939 158.362271 
L -959.271313 157.559116 
L -951.223236 157.86666 
L -943.175159 158.306295 
L -935.127082 157.98733 
L -927.079005 158.957612 
L -919.030929 159.248653 
L -910.982852 159.100327 
L -902.934775 159.982431 
L -894.886698 159.703317 
L -886.838621 161.427851 
L -878.790544 161.49849 
L -870.742467 162.371025 
L -862.69439 161.819379 
L -854.646313 160.777217 
L -846.598236 163.192141 
L -838.550159 163.961743 
L -830.502082 164.16252 
L -822.454005 164.345518 
L -814.405929 163.841166 
L -806.357852 164.371182 
L -798.309775 164.491385 
L -790.261698 165.367435 
L -782.213621 165.874741 
L -774.165544 165.410222 
L -766.117467 164.416072 
L -758.06939 167.486946 
L -750.021313 167.769061 
L -741.973236 167.048941 
L -733.925159 168.805038 
L -725.877082 166.898647 
L -717.829005 168.012831 
L -709.780929 168.979243 
L -701.732852 168.002684 
L -693.684775 171.874341 
L -685.636698 169.63351 
L -677.588621 168.943164 
L -669.540544 171.760377 
L -661.492467 173.14365 
L -653.44439 172.988281 
L -645.396313 174.608407 
L -637.348236 174.067119 
L -629.300159 177.639961 
L -621.252082 177.155897 
L -613.204005 178.597502 
L -605.155929 177.652534 
L -597.107852 176.962251 
L -589.059775 180.00727 
L -581.011698 184.612578 
L -572.963621 181.21407 
L -564.915544 182.350607 
L -556.867467 181.704525 
L -548.81939 183.258816 
L -540.771313 183.915173 
L -532.723236 183.721869 
L -524.675159 184.184348 
L -516.627082 186.768157 
L -508.579005 186.570675 
L -500.530929 188.883701 
L -492.482852 189.806768 
L -484.434775 185.66284 
L -476.386698 188.245495 
L -468.338621 188.948904 
L -460.290544 189.734318 
L -452.242467 190.52821 
L -444.19439 194.04316 
L -436.146313 195.635376 
L -428.098236 195.832432 
L -420.050159 199.50687 
L -412.002082 205.38866 
L -403.954005 198.925576 
L -395.905929 199.116515 
L -387.857852 199.524638 
L -379.809775 201.940581 
L -371.761698 202.641398 
L -363.713621 202.810379 
L -355.665544 208.228918 
L -347.617467 210.26045 
L -339.56939 204.640571 
L -331.521313 210.111106 
L -323.473236 207.874289 
L -315.425159 206.528931 
L -307.377082 213.384715 
L -299.329005 212.480317 
L -291.280929 217.316335 
L -283.232852 215.923423 
L -275.184775 213.481226 
L -267.136698 216.671446 
L -259.088621 217.054054 
L -251.040544 220.295511 
L -242.992467 219.099882 
L -234.94439 224.14218 
L -226.896313 221.156904 
L -218.848236 224.15877 
L -210.800159 223.809483 
L -202.752082 226.855713 
L -194.704005 222.663717 
L -186.655929 228.276626 
L -178.607852 228.286914 
L -170.559775 232.293087 
L -162.511698 234.004133 
L -154.463621 235.137145 
L -146.415544 234.397895 
L -138.367467 237.016588 
L -130.31939 239.840942 
L -122.271313 238.02229 
L -114.223236 237.724729 
L -106.175159 239.882477 
L -98.127082 242.301431 
L -90.079005 239.412949 
L -82.030929 237.599268 
L -73.982852 245.534638 
L -65.934775 250.210499 
L -57.886698 241.934759 
L -49.838621 244.603903 
L -41.790544 246.477911 
L -33.742467 247.25503 
L -25.69439 251.585423 
L -17.646313 251.316251 
L -9.598236 250.111861 
L -1.550159 252.101852 
L 6.497918 253.185553 
L 14.545995 248.569767 
L 22.594071 250.845304 
L 30.642148 249.68982 
L 38.690225 256.919771 
L 46.738302 265.084752 
L 54.786379 263.942492 
L 62.834456 257.761602 
L 70.882533 257.302306 
L 78.93061 258.517278 
L 86.978687 258.262449 
L 95.026764 265.429508 
L 103.074841 258.75379 
L 111.122918 266.543492 
L 119.170995 273.453826 
L 127.219071 267.84478 
L 135.267148 278.24495 
L 143.315225 271.403783 
L 151.363302 278.565088 
L 159.411379 274.774764 
L 167.459456 277.425478 
L 175.507533 283.013967 
L 183.55561 283.353438 
L 191.603687 285.117935 
L 199.651764 285.416276 
L 207.699841 285.990495 
L 215.747918 272.457835 
L 223.795995 291.669596 
L 231.844071 299.216101 
L 239.892148 292.684696 
L 247.940225 296.956595 
L 255.988302 301.66572 
L 264.036379 296.216101 
L 272.084456 303.701622 
L 280.132533 309.499408 
L 288.18061 306.379915 
L 296.228687 309.823964 
L 304.276764 311.705123 
L 312.324841 312.959407 
L 320.372918 315.110924 
L 328.420995 307.082605 
L 336.469071 323.691822 
L 344.517148 324.233288 
L 352.565225 324.550741 
L 360.613302 314.325347 
L 368.661379 328.58855 
L 376.709456 336.409569 
L 384.757533 329.835909 
L 392.80561 330.120474 
L 400.853687 342.88272 
L 408.901764 319.859906 
L 416.949841 341.198053 
L 424.997918 326.11074 
L 433.045995 348.464772 
L 441.094071 339.745626 
L 449.142148 348.35591 
L 457.190225 350.93384 
L 465.238302 353.431729 
L 473.286379 354.596366 
L 481.334456 350.081707 
L 489.382533 351.064438 
L 497.43061 355.959127 
L 505.478687 361.635822 
L 513.526764 361.972954 
L 521.574841 361.458118 
L 529.622918 367.21965 
L 537.670995 367.254254 
L 545.719071 363.156452 
L 553.767148 362.60564 
L 561.815225 373.099472 
L 569.863302 373.934013 
L 577.911379 376.031499 
L 585.959456 370.664682 
L 594.007533 358.279757 
L 602.05561 371.391153 
L 610.103687 367.879734 
L 618.151764 371.159504 
L 626.199841 375.621992 
L 634.247918 369.383183 
L 642.295995 377.342969 
L 650.344071 370.659291 
L 658.392148 370.319926 
L 666.440225 370.891933 
L 674.488302 375.601268 
L 682.536379 374.972085 
L 690.584456 373.841135 
L 698.632533 368.621335 
L 706.68061 371.275401 
L 714.728687 373.213035 
L 722.776764 370.80297 
L 730.824841 374.56668 
L 738.872918 371.274652 
L 746.920995 373.676648 
L 754.969071 377.64 
L 763.017148 376.826893 
L 771.065225 372.560153 
L 779.113302 372.486184 
L 787.161379 371.539766 
L 795.209456 373.224828 
L 803.257533 372.97055 
L 811.30561 366.0199 
L 819.353687 371.131061 
L 827.401764 339.319046 
L 835.449841 370.693333 
L 843.497918 372.606971 
L 851.545995 367.743102 
L 859.594071 362.687346 
L 867.642148 371.683084 
L 875.690225 367.257514 
L 883.738302 359.704875 
L 891.786379 364.009026 
L 899.834456 363.814473 
L 907.882533 361.521195 
L 915.93061 365.579693 
L 923.978687 361.999845 
L 932.026764 363.320405 
L 940.074841 363.977235 
L 940.074841 180.239137 
L 940.074841 180.239137 
L 932.026764 184.229207 
L 923.978687 183.370886 
L 915.93061 185.463585 
L 907.882533 183.798031 
L 899.834456 185.448986 
L 891.786379 185.133306 
L 883.738302 186.441833 
L 875.690225 189.793436 
L 867.642148 190.884455 
L 859.594071 189.754279 
L 851.545995 190.925832 
L 843.497918 194.588919 
L 835.449841 193.460768 
L 827.401764 188.456433 
L 819.353687 195.755772 
L 811.30561 195.498195 
L 803.257533 197.916029 
L 795.209456 198.901117 
L 787.161379 199.201582 
L 779.113302 201.040487 
L 771.065225 201.904744 
L 763.017148 204.139008 
L 754.969071 205.384637 
L 746.920995 205.408663 
L 738.872918 205.528482 
L 730.824841 207.066426 
L 722.776764 206.418584 
L 714.728687 208.085254 
L 706.68061 208.751006 
L 698.632533 208.820185 
L 690.584456 211.861308 
L 682.536379 213.204048 
L 674.488302 214.982942 
L 666.440225 213.399402 
L 658.392148 214.620488 
L 650.344071 215.998826 
L 642.295995 219.21241 
L 634.247918 217.257187 
L 626.199841 220.635279 
L 618.151764 219.834959 
L 610.103687 219.694592 
L 602.05561 221.995091 
L 594.007533 218.752631 
L 585.959456 223.527669 
L 577.911379 227.09298 
L 569.863302 227.307116 
L 561.815225 227.826931 
L 553.767148 225.614307 
L 545.719071 226.2605 
L 537.670995 228.881052 
L 529.622918 229.669312 
L 521.574841 228.49891 
L 513.526764 229.50696 
L 505.478687 230.846246 
L 497.43061 228.332203 
L 489.382533 228.208624 
L 481.334456 229.031935 
L 473.286379 231.863468 
L 465.238302 232.322937 
L 457.190225 231.787497 
L 449.142148 231.652609 
L 441.094071 229.301733 
L 433.045995 233.642972 
L 424.997918 227.109892 
L 416.949841 233.192585 
L 408.901764 225.579148 
L 400.853687 235.404276 
L 392.80561 231.084006 
L 384.757533 231.486479 
L 376.709456 236.128899 
L 368.661379 233.272338 
L 360.613302 228.539939 
L 352.565225 233.88308 
L 344.517148 234.39239 
L 336.469071 235.044797 
L 328.420995 228.509314 
L 320.372918 235.164625 
L 312.324841 233.103654 
L 304.276764 232.996941 
L 296.228687 233.24908 
L 288.18061 233.05783 
L 280.132533 235.34402 
L 272.084456 233.604198 
L 264.036379 230.630126 
L 255.988302 233.331236 
L 247.940225 233.375374 
L 239.892148 230.79855 
L 231.844071 235.240008 
L 223.795995 232.232164 
L 215.747918 223.811876 
L 207.699841 231.634586 
L 199.651764 232.043934 
L 191.603687 232.554878 
L 183.55561 232.402003 
L 175.507533 233.341307 
L 167.459456 231.150433 
L 159.411379 230.388496 
L 151.363302 233.002983 
L 143.315225 230.749427 
L 135.267148 234.800719 
L 127.219071 230.056547 
L 119.170995 234.180542 
L 111.122918 230.625083 
L 103.074841 226.020469 
L 95.026764 231.578234 
L 86.978687 228.270965 
L 78.93061 228.601758 
L 70.882533 228.576297 
L 62.834456 229.527854 
L 54.786379 234.17025 
L 46.738302 235.46763 
L 38.690225 230.753116 
L 30.642148 226.955222 
L 22.594071 228.345653 
L 14.545995 227.194263 
L 6.497918 230.634698 
L -1.550159 230.68774 
L -9.598236 229.81289 
L -17.646313 231.305424 
L -25.69439 231.974359 
L -33.742467 229.46708 
L -41.790544 229.341116 
L -49.838621 228.740112 
L -57.886698 226.121718 
L -65.934775 233.151343 
L -73.982852 229.285651 
L -82.030929 219.888731 
L -90.079005 223.027247 
L -98.127082 225.791585 
L -106.175159 222.509725 
L -114.223236 219.746435 
L -122.271313 220.280403 
L -130.31939 223.234806 
L -138.367467 218.054424 
L -146.415544 215.605041 
L -154.463621 216.38049 
L -162.511698 212.797639 
L -170.559775 212.776185 
L -178.607852 206.499344 
L -186.655929 207.427498 
L -194.704005 199.892225 
L -202.752082 204.514104 
L -210.800159 200.900651 
L -218.848236 201.500265 
L -226.896313 198.699178 
L -234.94439 201.132979 
L -242.992467 194.278305 
L -251.040544 196.960157 
L -259.088621 192.266838 
L -267.136698 192.009269 
L -275.184775 188.091914 
L -283.232852 188.67693 
L -291.280929 192.029926 
L -299.329005 187.099484 
L -307.377082 187.230834 
L -315.425159 178.344753 
L -323.473236 181.194016 
L -331.521313 182.278943 
L -339.56939 175.333226 
L -347.617467 181.532761 
L -355.665544 181.448017 
L -363.713621 172.851527 
L -371.761698 172.311569 
L -379.809775 171.083734 
L -387.857852 167.572848 
L -395.905929 168.796028 
L -403.954005 167.355149 
L -412.002082 175.983363 
L -420.050159 168.878294 
L -428.098236 163.428435 
L -436.146313 162.785396 
L -444.19439 160.595492 
L -452.242467 156.854035 
L -460.290544 156.953355 
L -468.338621 154.136979 
L -476.386698 155.337239 
L -484.434775 151.457074 
L -492.482852 155.667796 
L -500.530929 155.337919 
L -508.579005 152.994701 
L -516.627082 152.971027 
L -524.675159 149.690239 
L -532.723236 150.007459 
L -540.771313 149.701124 
L -548.81939 150.935542 
L -556.867467 147.653527 
L -564.915544 149.108642 
L -572.963621 147.225372 
L -581.011698 151.280678 
L -589.059775 146.445711 
L -597.107852 143.179405 
L -605.155929 144.13593 
L -613.204005 143.923239 
L -621.252082 142.788339 
L -629.300159 144.696051 
L -637.348236 140.839155 
L -645.396313 141.79751 
L -653.44439 139.659618 
L -661.492467 139.075872 
L -669.540544 137.057606 
L -677.588621 134.650026 
L -685.636698 136.072908 
L -693.684775 138.399614 
L -701.732852 133.931531 
L -709.780929 134.898137 
L -717.829005 133.071398 
L -725.877082 133.266436 
L -733.925159 134.995322 
L -741.973236 133.160913 
L -750.021313 134.402852 
L -758.06939 134.029644 
L -766.117467 130.758916 
L -774.165544 131.348003 
L -782.213621 132.094151 
L -790.261698 131.838184 
L -798.309775 130.956537 
L -806.357852 131.196363 
L -814.405929 130.162237 
L -822.454005 131.015103 
L -830.502082 130.652378 
L -838.550159 130.213192 
L -846.598236 129.769433 
L -854.646313 125.97053 
L -862.69439 128.44725 
L -870.742467 128.961325 
L -878.790544 127.772092 
L -886.838621 127.060543 
L -894.886698 126.315744 
L -902.934775 126.476556 
L -910.982852 125.342268 
L -919.030929 126.000101 
L -927.079005 125.718542 
L -935.127082 124.609334 
L -943.175159 124.398144 
L -951.223236 124.374135 
L -959.271313 124.32577 
L -967.31939 126.089503 
L -975.367467 125.870134 
L -983.415544 126.318963 
L -991.463621 124.862988 
L -999.511698 125.205229 
L -1007.559775 124.46574 
L -1015.607852 123.995375 
L -1023.655929 121.772399 
L -1031.704005 124.445678 
L -1039.752082 123.727395 
L -1047.800159 122.976725 
L -1055.848236 124.142315 
L -1063.896313 122.872676 
L -1071.94439 122.6684 
L -1079.992467 120.459954 
L -1088.040544 122.384731 
L -1096.088621 120.368245 
L -1104.136698 122.101888 
L -1112.184775 123.009186 
L -1120.232852 122.396864 
L -1128.280929 123.738102 
L -1136.329005 124.486547 
L -1144.377082 122.937248 
L -1152.425159 122.87951 
L -1160.473236 121.811992 
L -1168.521313 122.067798 
L -1176.56939 120.225224 
L -1184.617467 121.205923 
L -1192.665544 121.562027 
L -1200.713621 121.289577 
L -1208.761698 120.568958 
L -1216.809775 119.774195 
L -1224.857852 121.083869 
L -1232.905929 120.463946 
L -1240.954005 120.817838 
L -1249.002082 121.922812 
L -1257.050159 121.535457 
L -1265.098236 118.375893 
L -1273.146313 117.956451 
L -1281.19439 119.487888 
L -1289.242467 118.793582 
L -1297.290544 119.598364 
L -1305.338621 119.97272 
L -1313.386698 118.418189 
L -1321.434775 118.387547 
L -1329.482852 118.57934 
L -1337.530929 119.581854 
L -1345.579005 116.902321 
L -1353.627082 117.061751 
L -1361.675159 116.395764 
L -1369.723236 118.249925 
L -1377.771313 117.335384 
L -1385.81939 115.327819 
L -1393.867467 116.057297 
L -1401.915544 116.873076 
L -1409.963621 112.65682 
L -1418.011698 115.54152 
L -1426.059775 110.392473 
L -1434.107852 109.575984 
L -1442.155929 108.054891 
L -1450.204005 108.566414 
L -1458.252082 108.387677 
L -1466.300159 107.255241 
L -1474.348236 104.500468 
L -1482.396313 105.621692 
L -1490.44439 100.120805 
L -1498.492467 94.194832 
L -1506.540544 95.356308 
L -1514.588621 97.874366 
L -1522.636698 90.265199 
L -1530.684775 90.374605 
L -1538.732852 88.435824 
L -1546.780929 87.739535 
L -1554.829005 78.113419 
L -1562.877082 76.838302 
L -1570.925159 72.97673 
L -1578.973236 64.815125 
L -1587.021313 58.460565 
L -1595.06939 64.809118 
L -1603.117467 61.294395 
L -1611.165544 55.72569 
L -1619.213621 53.240847 
L -1627.261698 49.096876 
L -1635.309775 43.754133 
L -1643.357852 45.673149 
L -1651.405929 36.305827 
L -1659.454005 31.536508 
L -1667.502082 29.234675 
L -1675.550159 27.339793 
L -1683.598236 28.119507 
L -1691.646313 25.718262 
L -1699.69439 27.459527 
L -1707.742467 29.829103 
L -1715.790544 25.388296 
L -1723.838621 24.84 
L -1731.886698 28.827784 
L -1739.934775 29.619078 
L -1747.982852 27.911973 
L -1756.030929 36.233546 
L -1764.079005 30.176471 
L -1772.127082 32.081405 
L -1780.175159 38.406537 
L -1788.223236 36.47058 
L -1796.271313 38.721267 
L -1804.31939 40.716158 
L -1812.367467 43.08936 
L -1820.415544 45.322706 
L -1828.463621 47.862262 
L -1836.511698 50.206885 
L -1844.559775 52.091725 
L -1852.607852 55.17427 
L -1860.655929 55.801497 
L -1868.704005 60.817282 
L -1876.752082 60.835699 
L -1884.800159 63.260836 
L -1892.848236 66.055855 
L -1900.896313 67.568905 
L -1908.94439 69.555014 
L -1916.992467 71.032033 
L -1925.040544 73.355993 
L -1933.088621 74.617707 
L -1941.136698 76.247174 
L -1949.184775 78.229147 
L -1957.232852 80.263609 
L -1965.280929 81.373895 
L -1973.329005 83.337068 
L -1981.377082 84.576459 
L -1989.425159 86.613113 
L -1997.473236 88.125272 
L -2005.521313 89.634175 
L -2013.56939 91.342589 
L -2021.617467 92.827364 
L -2029.665544 94.049683 
L -2037.713621 95.72486 
L -2045.761698 96.434633 
L -2053.809775 98.579446 
L -2061.857852 99.938085 
L -2069.905929 101.108264 
L -2077.954005 102.603336 
L -2086.002082 103.413791 
L -2094.050159 104.711027 
L -2102.098236 106.053425 
L -2110.146313 107.564012 
L -2118.19439 108.659424 
L -2126.242467 109.740464 
L -2134.290544 110.946423 
L -2142.338621 112.102267 
L -2150.386698 113.369897 
L -2158.434775 114.336086 
L -2166.482852 115.413907 
L -2174.530929 116.253407 
L -2182.579005 117.520607 
L -2190.627082 118.370498 
L -2198.675159 119.370584 
L -2206.723236 120.678455 
L -2214.771313 121.518571 
L -2222.81939 121.614242 
L -2230.867467 122.674021 
L -2238.915544 123.118525 
L -2246.963621 124.142481 
L -2255.011698 125.370513 
L -2263.059775 125.913184 
L -2271.107852 126.419281 
L -2279.155929 126.384299 
L -2287.204005 126.943149 
L -2295.252082 127.216751 
L -2303.300159 127.530206 
L -2311.348236 128.404638 
L -2319.396313 128.857887 
L -2327.44439 129.577365 
L -2335.492467 128.963886 
L -2343.540544 129.318207 
L -2351.588621 128.447239 
L -2359.636698 129.532885 
L -2367.684775 129.616758 
L -2375.732852 130.395636 
L -2383.780929 128.469121 
L -2391.829005 130.638261 
L -2399.877082 130.393738 
L -2407.925159 129.057244 
L -2415.973236 128.689241 
L -2424.021313 129.803845 
L -2432.06939 131.759442 
L -2440.117467 130.947345 
L -2448.165544 130.881756 
L -2456.213621 128.857097 
L -2464.261698 128.829483 
L -2472.309775 129.406104 
L -2480.357852 130.636588 
L -2488.405929 130.24036 
L -2496.454005 129.997006 
L -2504.502082 130.207105 
L -2512.550159 130.978936 
L -2520.598236 130.824441 
L -2528.646313 131.323974 
L -2536.69439 132.14202 
L -2544.742467 131.609414 
L -2552.790544 132.788774 
L -2560.838621 132.995657 
L -2568.886698 133.166283 
L -2576.934775 133.926553 
L -2584.982852 134.141106 
L -2593.030929 134.981125 
L -2601.079005 135.895043 
L -2609.127082 135.940891 
L -2617.175159 135.616836 
L -2625.223236 135.39421 
L -2633.271313 137.292097 
L -2641.31939 137.00048 
L -2649.367467 138.283667 
L -2657.415544 138.334682 
L -2665.463621 137.881166 
L -2673.511698 139.147693 
L -2681.559775 138.021168 
L -2689.607852 138.105254 
L -2697.655929 139.702602 
L -2705.704005 138.592103 
L -2713.752082 140.099009 
L -2721.800159 140.593663 
L -2729.848236 139.355746 
L -2737.896313 135.379311 
L -2745.94439 137.94202 
L -2753.992467 136.730079 
L -2762.040544 130.801188 
L -2770.088621 135.862228 
L -2778.136698 136.903573 
L -2786.184775 131.414468 
L -2794.232852 129.907621 
L -2802.280929 132.843741 
L -2810.329005 126.884865 
L -2818.377082 115.987051 
L -2826.425159 127.930449 
L -2834.473236 132.451093 
L -2842.521313 134.684253 
L -2850.56939 119.978203 
L -2858.617467 120.583678 
L -2866.665544 113.154373 
L -2874.713621 107.393643 
L -2882.761698 118.984894 
L -2890.809775 113.976066 
L -2898.857852 103.642403 
L -2906.905929 96.40102 
L -2914.954005 96.820252 
L -2923.002082 98.035209 
L -2931.050159 96.474866 
L -2939.098236 95.543619 
L -2947.146313 99.625698 
L -2955.19439 99.108316 
L -2963.242467 96.399168 
L -2971.290544 98.006295 
L -2979.338621 96.853336 
L -2987.386698 96.389199 
L -2995.434775 96.457284 
L -3003.482852 98.039624 
L -3011.530929 98.967053 
L -3019.579005 99.492743 
L -3027.627082 100.8629 
L -3035.675159 101.481291 
L -3043.723236 102.576921 
L -3051.771313 104.333161 
L -3059.81939 105.707807 
L -3067.867467 106.638192 
L -3075.915544 107.679727 
L -3083.963621 109.061919 
L -3092.011698 109.92915 
L -3100.059775 111.25574 
L -3108.107852 112.860933 
L -3116.155929 113.814314 
L -3124.204005 114.45165 
L -3132.252082 115.43801 
L -3140.300159 116.453586 
L -3148.348236 117.385635 
L -3156.396313 118.277077 
L -3164.44439 119.136443 
L -3172.492467 120.318671 
L -3180.540544 120.930135 
L -3188.588621 121.783242 
L -3196.636698 122.676207 
L -3204.684775 123.439346 
L -3212.732852 124.194946 
L -3220.780929 124.825869 
L -3228.829005 125.513387 
L -3236.877082 126.428804 
L -3244.925159 127.068347 
L -3252.973236 127.81656 
L -3261.021313 128.41605 
L -3269.06939 129.080437 
L -3277.117467 129.761594 
L -3285.165544 130.45284 
L -3293.213621 131.033462 
L -3301.261698 131.721333 
L -3309.309775 132.324874 
L -3317.357852 132.972333 
L -3325.405929 133.574702 
L -3333.454005 134.196732 
L -3341.502082 134.771034 
L -3349.550159 135.372672 
L -3357.598236 136.022301 
L -3365.646313 136.515341 
L -3373.69439 137.13447 
L -3381.742467 137.667277 
L -3389.790544 138.286216 
L -3397.838621 138.737268 
L -3405.886698 139.312816 
L -3413.934775 139.861056 
L -3421.982852 140.382869 
L -3430.030929 140.914057 
L -3438.079005 141.40501 
L -3446.127082 141.978452 
L -3454.175159 142.493945 
L -3462.223236 142.917637 
L -3470.271313 143.421824 
L -3478.31939 143.925139 
L -3486.367467 144.425781 
L -3494.415544 144.908404 
L -3502.463621 145.357679 
L -3510.511698 145.85255 
L -3518.559775 146.337238 
L -3526.607852 146.824088 
L -3534.655929 147.308864 
L -3542.704005 147.806591 
L -3550.752082 148.323899 
L -3558.800159 148.768123 
L -3566.848236 149.277609 
L -3574.896313 149.776934 
L -3582.94439 150.255642 
L -3590.992467 150.749573 
L -3599.040544 151.253568 
L -3607.088621 151.74202 
L -3615.136698 152.25493 
L -3623.184775 152.721568 
L -3631.232852 153.197601 
L -3639.280929 153.701197 
L -3647.329005 154.187019 
L -3655.377082 154.647214 
L -3663.425159 155.134796 
L -3671.473236 155.578584 
L -3679.521313 156.053672 
L -3687.56939 156.560409 
L -3695.617467 156.993121 
L -3703.665544 157.478815 
L -3711.713621 157.937582 
L -3719.761698 158.41918 
L -3727.809775 158.85338 
L -3735.857852 159.363406 
L -3743.905929 159.782969 
L -3751.954005 160.255273 
L -3760.002082 160.716849 
L -3768.050159 161.190469 
L -3776.098236 161.639628 
L -3784.146313 162.097482 
L -3792.19439 162.557325 
L -3800.242467 163.033335 
L -3808.290544 163.46962 
L -3816.338621 163.871723 
L -3824.386698 164.283231 
L -3832.434775 164.697724 
L -3840.482852 165.097819 
L -3848.530929 165.505317 
L -3856.579005 165.908093 
L -3864.627082 166.292388 
L -3872.675159 166.681727 
L -3880.723236 167.069313 
L -3888.771313 167.421181 
L -3896.81939 167.779708 
L -3904.867467 168.154732 
L -3912.915544 168.50983 
L -3920.963621 168.82676 
L -3929.011698 169.177564 
L -3937.059775 169.497749 
L -3945.107852 169.792522 
L -3953.155929 170.0879 
L -3961.204005 170.364054 
L -3969.252082 170.66288 
L -3977.300159 170.908984 
L -3985.348236 171.169818 
L -3993.396313 171.415401 
L -4001.44439 171.642962 
L -4009.492467 171.85026 
L -4017.540544 172.038549 
L -4025.588621 172.225918 
L -4033.636698 172.411953 
L -4041.684775 172.565519 
L -4049.732852 172.737922 
L -4057.780929 172.883581 
L -4065.829005 173.008824 
L -4073.877082 173.156536 
L -4081.925159 173.285607 
L -4089.973236 173.392069 
L -4098.021313 173.506743 
L -4106.06939 173.618314 
L -4114.117467 173.71619 
L -4122.165544 173.814558 
L -4130.213621 173.895533 
L -4138.261698 173.994077 
L -4146.309775 174.072017 
L -4154.357852 174.154168 
L -4162.405929 174.240594 
L -4170.454005 174.310724 
L -4178.502082 174.385259 
L -4186.550159 174.483583 
L -4194.598236 174.552428 
L -4202.646313 174.637407 
L -4210.69439 174.704301 
L -4218.742467 174.794153 
L -4226.790544 174.864913 
L -4234.838621 174.939977 
L -4242.886698 175.005474 
L -4250.934775 175.065061 
L -4258.982852 175.13355 
L -4267.030929 175.209376 
L -4275.079005 175.28329 
L -4283.127082 175.345984 
L -4291.175159 175.395697 
L -4299.223236 175.468863 
L -4307.271313 175.52827 
L -4315.31939 175.600016 
z
" clip-path="url(#p11e87858d5)" style="fill: #008000; fill-opacity: 0.3; stroke: #008000; stroke-opacity: 0.3"/>
   </g>
   <g id="matplotlib.axis_1">
    <g id="xtick_1">
     <g id="line2d_1">
      <defs>
       <path id="me2d382d72a" d="M 0 0 
L 0 3.5 
" style="stroke: #000000; stroke-width: 0.8"/>
      </defs>
      <g>
       <use xlink:href="#me2d382d72a" x="103.074841" y="395.28" style="stroke: #000000; stroke-width: 0.8"/>
      </g>
     </g>
     <g id="text_1">
      <!-- 2023-01-01 -->
      <g transform="translate(17.945813 495.213718) rotate(-45) scale(0.2 -0.2)">
       <defs>
        <path id="DejaVuSans-32" d="M 1228 531 
L 3431 531 
L 3431 0 
L 469 0 
L 469 531 
Q 828 903 1448 1529 
Q 2069 2156 2228 2338 
Q 2531 2678 2651 2914 
Q 2772 3150 2772 3378 
Q 2772 3750 2511 3984 
Q 2250 4219 1831 4219 
Q 1534 4219 1204 4116 
Q 875 4013 500 3803 
L 500 4441 
Q 881 4594 1212 4672 
Q 1544 4750 1819 4750 
Q 2544 4750 2975 4387 
Q 3406 4025 3406 3419 
Q 3406 3131 3298 2873 
Q 3191 2616 2906 2266 
Q 2828 2175 2409 1742 
Q 1991 1309 1228 531 
z
" transform="scale(0.015625)"/>
        <path id="DejaVuSans-30" d="M 2034 4250 
Q 1547 4250 1301 3770 
Q 1056 3291 1056 2328 
Q 1056 1369 1301 889 
Q 1547 409 2034 409 
Q 2525 409 2770 889 
Q 3016 1369 3016 2328 
Q 3016 3291 2770 3770 
Q 2525 4250 2034 4250 
z
M 2034 4750 
Q 2819 4750 3233 4129 
Q 3647 3509 3647 2328 
Q 3647 1150 3233 529 
Q 2819 -91 2034 -91 
Q 1250 -91 836 529 
Q 422 1150 422 2328 
Q 422 3509 836 4129 
Q 1250 4750 2034 4750 
z
" transform="scale(0.015625)"/>
        <path id="DejaVuSans-33" d="M 2597 2516 
Q 3050 2419 3304 2112 
Q 3559 1806 3559 1356 
Q 3559 666 3084 287 
Q 2609 -91 1734 -91 
Q 1441 -91 1130 -33 
Q 819 25 488 141 
L 488 750 
Q 750 597 1062 519 
Q 1375 441 1716 441 
Q 2309 441 2620 675 
Q 2931 909 2931 1356 
Q 2931 1769 2642 2001 
Q 2353 2234 1838 2234 
L 1294 2234 
L 1294 2753 
L 1863 2753 
Q 2328 2753 2575 2939 
Q 2822 3125 2822 3475 
Q 2822 3834 2567 4026 
Q 2313 4219 1838 4219 
Q 1578 4219 1281 4162 
Q 984 4106 628 3988 
L 628 4550 
Q 988 4650 1302 4700 
Q 1616 4750 1894 4750 
Q 2613 4750 3031 4423 
Q 3450 4097 3450 3541 
Q 3450 3153 3228 2886 
Q 3006 2619 2597 2516 
z
" transform="scale(0.015625)"/>
        <path id="DejaVuSans-2d" d="M 313 2009 
L 1997 2009 
L 1997 1497 
L 313 1497 
L 313 2009 
z
" transform="scale(0.015625)"/>
        <path id="DejaVuSans-31" d="M 794 531 
L 1825 531 
L 1825 4091 
L 703 3866 
L 703 4441 
L 1819 4666 
L 2450 4666 
L 2450 531 
L 3481 531 
L 3481 0 
L 794 0 
L 794 531 
z
" transform="scale(0.015625)"/>
       </defs>
       <use xlink:href="#DejaVuSans-32"/>
       <use xlink:href="#DejaVuSans-30" x="63.623047"/>
       <use xlink:href="#DejaVuSans-32" x="127.246094"/>
       <use xlink:href="#DejaVuSans-33" x="190.869141"/>
       <use xlink:href="#DejaVuSans-2d" x="254.492188"/>
       <use xlink:href="#DejaVuSans-30" x="290.576172"/>
       <use xlink:href="#DejaVuSans-31" x="354.199219"/>
       <use xlink:href="#DejaVuSans-2d" x="417.822266"/>
       <use xlink:href="#DejaVuSans-30" x="453.90625"/>
       <use xlink:href="#DejaVuSans-31" x="517.529297"/>
      </g>
     </g>
    </g>
    <g id="xtick_2">
     <g id="line2d_2">
      <g>
       <use xlink:href="#me2d382d72a" x="215.747918" y="395.28" style="stroke: #000000; stroke-width: 0.8"/>
      </g>
     </g>
     <g id="text_2">
      <!-- 2023-01-15 -->
      <g transform="translate(130.61889 495.213718) rotate(-45) scale(0.2 -0.2)">
       <defs>
        <path id="DejaVuSans-35" d="M 691 4666 
L 3169 4666 
L 3169 4134 
L 1269 4134 
L 1269 2991 
Q 1406 3038 1543 3061 
Q 1681 3084 1819 3084 
Q 2600 3084 3056 2656 
Q 3513 2228 3513 1497 
Q 3513 744 3044 326 
Q 2575 -91 1722 -91 
Q 1428 -91 1123 -41 
Q 819 9 494 109 
L 494 744 
Q 775 591 1075 516 
Q 1375 441 1709 441 
Q 2250 441 2565 725 
Q 2881 1009 2881 1497 
Q 2881 1984 2565 2268 
Q 2250 2553 1709 2553 
Q 1456 2553 1204 2497 
Q 953 2441 691 2322 
L 691 4666 
z
" transform="scale(0.015625)"/>
       </defs>
       <use xlink:href="#DejaVuSans-32"/>
       <use xlink:href="#DejaVuSans-30" x="63.623047"/>
       <use xlink:href="#DejaVuSans-32" x="127.246094"/>
       <use xlink:href="#DejaVuSans-33" x="190.869141"/>
       <use xlink:href="#DejaVuSans-2d" x="254.492188"/>
       <use xlink:href="#DejaVuSans-30" x="290.576172"/>
       <use xlink:href="#DejaVuSans-31" x="354.199219"/>
       <use xlink:href="#DejaVuSans-2d" x="417.822266"/>
       <use xlink:href="#DejaVuSans-31" x="453.90625"/>
       <use xlink:href="#DejaVuSans-35" x="517.529297"/>
      </g>
     </g>
    </g>
    <g id="xtick_3">
     <g id="line2d_3">
      <g>
       <use xlink:href="#me2d382d72a" x="328.420995" y="395.28" style="stroke: #000000; stroke-width: 0.8"/>
      </g>
     </g>
     <g id="text_3">
      <!-- 2023-01-29 -->
      <g transform="translate(243.291967 495.213718) rotate(-45) scale(0.2 -0.2)">
       <defs>
        <path id="DejaVuSans-39" d="M 703 97 
L 703 672 
Q 941 559 1184 500 
Q 1428 441 1663 441 
Q 2288 441 2617 861 
Q 2947 1281 2994 2138 
Q 2813 1869 2534 1725 
Q 2256 1581 1919 1581 
Q 1219 1581 811 2004 
Q 403 2428 403 3163 
Q 403 3881 828 4315 
Q 1253 4750 1959 4750 
Q 2769 4750 3195 4129 
Q 3622 3509 3622 2328 
Q 3622 1225 3098 567 
Q 2575 -91 1691 -91 
Q 1453 -91 1209 -44 
Q 966 3 703 97 
z
M 1959 2075 
Q 2384 2075 2632 2365 
Q 2881 2656 2881 3163 
Q 2881 3666 2632 3958 
Q 2384 4250 1959 4250 
Q 1534 4250 1286 3958 
Q 1038 3666 1038 3163 
Q 1038 2656 1286 2365 
Q 1534 2075 1959 2075 
z
" transform="scale(0.015625)"/>
       </defs>
       <use xlink:href="#DejaVuSans-32"/>
       <use xlink:href="#DejaVuSans-30" x="63.623047"/>
       <use xlink:href="#DejaVuSans-32" x="127.246094"/>
       <use xlink:href="#DejaVuSans-33" x="190.869141"/>
       <use xlink:href="#DejaVuSans-2d" x="254.492188"/>
       <use xlink:href="#DejaVuSans-30" x="290.576172"/>
       <use xlink:href="#DejaVuSans-31" x="354.199219"/>
       <use xlink:href="#DejaVuSans-2d" x="417.822266"/>
       <use xlink:href="#DejaVuSans-32" x="453.90625"/>
       <use xlink:href="#DejaVuSans-39" x="517.529297"/>
      </g>
     </g>
    </g>
    <g id="xtick_4">
     <g id="line2d_4">
      <g>
       <use xlink:href="#me2d382d72a" x="441.094071" y="395.28" style="stroke: #000000; stroke-width: 0.8"/>
      </g>
     </g>
     <g id="text_4">
      <!-- 2023-02-12 -->
      <g transform="translate(355.965044 495.213718) rotate(-45) scale(0.2 -0.2)">
       <use xlink:href="#DejaVuSans-32"/>
       <use xlink:href="#DejaVuSans-30" x="63.623047"/>
       <use xlink:href="#DejaVuSans-32" x="127.246094"/>
       <use xlink:href="#DejaVuSans-33" x="190.869141"/>
       <use xlink:href="#DejaVuSans-2d" x="254.492188"/>
       <use xlink:href="#DejaVuSans-30" x="290.576172"/>
       <use xlink:href="#DejaVuSans-32" x="354.199219"/>
       <use xlink:href="#DejaVuSans-2d" x="417.822266"/>
       <use xlink:href="#DejaVuSans-31" x="453.90625"/>
       <use xlink:href="#DejaVuSans-32" x="517.529297"/>
      </g>
     </g>
    </g>
    <g id="xtick_5">
     <g id="line2d_5">
      <g>
       <use xlink:href="#me2d382d72a" x="553.767148" y="395.28" style="stroke: #000000; stroke-width: 0.8"/>
      </g>
     </g>
     <g id="text_5">
      <!-- 2023-02-26 -->
      <g transform="translate(468.638121 495.213718) rotate(-45) scale(0.2 -0.2)">
       <defs>
        <path id="DejaVuSans-36" d="M 2113 2584 
Q 1688 2584 1439 2293 
Q 1191 2003 1191 1497 
Q 1191 994 1439 701 
Q 1688 409 2113 409 
Q 2538 409 2786 701 
Q 3034 994 3034 1497 
Q 3034 2003 2786 2293 
Q 2538 2584 2113 2584 
z
M 3366 4563 
L 3366 3988 
Q 3128 4100 2886 4159 
Q 2644 4219 2406 4219 
Q 1781 4219 1451 3797 
Q 1122 3375 1075 2522 
Q 1259 2794 1537 2939 
Q 1816 3084 2150 3084 
Q 2853 3084 3261 2657 
Q 3669 2231 3669 1497 
Q 3669 778 3244 343 
Q 2819 -91 2113 -91 
Q 1303 -91 875 529 
Q 447 1150 447 2328 
Q 447 3434 972 4092 
Q 1497 4750 2381 4750 
Q 2619 4750 2861 4703 
Q 3103 4656 3366 4563 
z
" transform="scale(0.015625)"/>
       </defs>
       <use xlink:href="#DejaVuSans-32"/>
       <use xlink:href="#DejaVuSans-30" x="63.623047"/>
       <use xlink:href="#DejaVuSans-32" x="127.246094"/>
       <use xlink:href="#DejaVuSans-33" x="190.869141"/>
       <use xlink:href="#DejaVuSans-2d" x="254.492188"/>
       <use xlink:href="#DejaVuSans-30" x="290.576172"/>
       <use xlink:href="#DejaVuSans-32" x="354.199219"/>
       <use xlink:href="#DejaVuSans-2d" x="417.822266"/>
       <use xlink:href="#DejaVuSans-32" x="453.90625"/>
       <use xlink:href="#DejaVuSans-36" x="517.529297"/>
      </g>
     </g>
    </g>
    <g id="xtick_6">
     <g id="line2d_6">
      <g>
       <use xlink:href="#me2d382d72a" x="666.440225" y="395.28" style="stroke: #000000; stroke-width: 0.8"/>
      </g>
     </g>
     <g id="text_6">
      <!-- 2023-03-12 -->
      <g transform="translate(581.311198 495.213718) rotate(-45) scale(0.2 -0.2)">
       <use xlink:href="#DejaVuSans-32"/>
       <use xlink:href="#DejaVuSans-30" x="63.623047"/>
       <use xlink:href="#DejaVuSans-32" x="127.246094"/>
       <use xlink:href="#DejaVuSans-33" x="190.869141"/>
       <use xlink:href="#DejaVuSans-2d" x="254.492188"/>
       <use xlink:href="#DejaVuSans-30" x="290.576172"/>
       <use xlink:href="#DejaVuSans-33" x="354.199219"/>
       <use xlink:href="#DejaVuSans-2d" x="417.822266"/>
       <use xlink:href="#DejaVuSans-31" x="453.90625"/>
       <use xlink:href="#DejaVuSans-32" x="517.529297"/>
      </g>
     </g>
    </g>
    <g id="xtick_7">
     <g id="line2d_7">
      <g>
       <use xlink:href="#me2d382d72a" x="779.113302" y="395.28" style="stroke: #000000; stroke-width: 0.8"/>
      </g>
     </g>
     <g id="text_7">
      <!-- 2023-03-26 -->
      <g transform="translate(693.984275 495.213718) rotate(-45) scale(0.2 -0.2)">
       <use xlink:href="#DejaVuSans-32"/>
       <use xlink:href="#DejaVuSans-30" x="63.623047"/>
       <use xlink:href="#DejaVuSans-32" x="127.246094"/>
       <use xlink:href="#DejaVuSans-33" x="190.869141"/>
       <use xlink:href="#DejaVuSans-2d" x="254.492188"/>
       <use xlink:href="#DejaVuSans-30" x="290.576172"/>
       <use xlink:href="#DejaVuSans-33" x="354.199219"/>
       <use xlink:href="#DejaVuSans-2d" x="417.822266"/>
       <use xlink:href="#DejaVuSans-32" x="453.90625"/>
       <use xlink:href="#DejaVuSans-36" x="517.529297"/>
      </g>
     </g>
    </g>
    <g id="xtick_8">
     <g id="line2d_8">
      <g>
       <use xlink:href="#me2d382d72a" x="891.786379" y="395.28" style="stroke: #000000; stroke-width: 0.8"/>
      </g>
     </g>
     <g id="text_8">
      <!-- 2023-04-09 -->
      <g transform="translate(806.657352 495.213718) rotate(-45) scale(0.2 -0.2)">
       <defs>
        <path id="DejaVuSans-34" d="M 2419 4116 
L 825 1625 
L 2419 1625 
L 2419 4116 
z
M 2253 4666 
L 3047 4666 
L 3047 1625 
L 3713 1625 
L 3713 1100 
L 3047 1100 
L 3047 0 
L 2419 0 
L 2419 1100 
L 313 1100 
L 313 1709 
L 2253 4666 
z
" transform="scale(0.015625)"/>
       </defs>
       <use xlink:href="#DejaVuSans-32"/>
       <use xlink:href="#DejaVuSans-30" x="63.623047"/>
       <use xlink:href="#DejaVuSans-32" x="127.246094"/>
       <use xlink:href="#DejaVuSans-33" x="190.869141"/>
       <use xlink:href="#DejaVuSans-2d" x="254.492188"/>
       <use xlink:href="#DejaVuSans-30" x="290.576172"/>
       <use xlink:href="#DejaVuSans-34" x="354.199219"/>
       <use xlink:href="#DejaVuSans-2d" x="417.822266"/>
       <use xlink:href="#DejaVuSans-30" x="453.90625"/>
       <use xlink:href="#DejaVuSans-39" x="517.529297"/>
      </g>
     </g>
    </g>
    <g id="xtick_9">
     <g id="line2d_9">
      <g>
       <use xlink:href="#me2d382d72a" x="940.074841" y="395.28" style="stroke: #000000; stroke-width: 0.8"/>
      </g>
     </g>
     <g id="text_9">
      <!-- 2023-04-15 -->
      <g transform="translate(854.945813 495.213718) rotate(-45) scale(0.2 -0.2)">
       <use xlink:href="#DejaVuSans-32"/>
       <use xlink:href="#DejaVuSans-30" x="63.623047"/>
       <use xlink:href="#DejaVuSans-32" x="127.246094"/>
       <use xlink:href="#DejaVuSans-33" x="190.869141"/>
       <use xlink:href="#DejaVuSans-2d" x="254.492188"/>
       <use xlink:href="#DejaVuSans-30" x="290.576172"/>
       <use xlink:href="#DejaVuSans-34" x="354.199219"/>
       <use xlink:href="#DejaVuSans-2d" x="417.822266"/>
       <use xlink:href="#DejaVuSans-31" x="453.90625"/>
       <use xlink:href="#DejaVuSans-35" x="517.529297"/>
      </g>
     </g>
    </g>
   </g>
   <g id="matplotlib.axis_2">
    <g id="ytick_1">
     <g id="line2d_10">
      <defs>
       <path id="md6713e033e" d="M 0 0 
L -3.5 0 
" style="stroke: #000000; stroke-width: 0.8"/>
      </defs>
      <g>
       <use xlink:href="#md6713e033e" x="103.074841" y="388.195503" style="stroke: #000000; stroke-width: 0.8"/>
      </g>
     </g>
     <g id="text_10">
      <!-- −0.20 -->
      <g transform="translate(34.784216 395.793941) scale(0.2 -0.2)">
       <defs>
        <path id="DejaVuSans-2212" d="M 678 2272 
L 4684 2272 
L 4684 1741 
L 678 1741 
L 678 2272 
z
" transform="scale(0.015625)"/>
        <path id="DejaVuSans-2e" d="M 684 794 
L 1344 794 
L 1344 0 
L 684 0 
L 684 794 
z
" transform="scale(0.015625)"/>
       </defs>
       <use xlink:href="#DejaVuSans-2212"/>
       <use xlink:href="#DejaVuSans-30" x="83.789062"/>
       <use xlink:href="#DejaVuSans-2e" x="147.412109"/>
       <use xlink:href="#DejaVuSans-32" x="179.199219"/>
       <use xlink:href="#DejaVuSans-30" x="242.822266"/>
      </g>
     </g>
    </g>
    <g id="ytick_2">
     <g id="line2d_11">
      <g>
       <use xlink:href="#md6713e033e" x="103.074841" y="335.063818" style="stroke: #000000; stroke-width: 0.8"/>
      </g>
     </g>
     <g id="text_11">
      <!-- −0.15 -->
      <g transform="translate(34.784216 342.662255) scale(0.2 -0.2)">
       <use xlink:href="#DejaVuSans-2212"/>
       <use xlink:href="#DejaVuSans-30" x="83.789062"/>
       <use xlink:href="#DejaVuSans-2e" x="147.412109"/>
       <use xlink:href="#DejaVuSans-31" x="179.199219"/>
       <use xlink:href="#DejaVuSans-35" x="242.822266"/>
      </g>
     </g>
    </g>
    <g id="ytick_3">
     <g id="line2d_12">
      <g>
       <use xlink:href="#md6713e033e" x="103.074841" y="281.932133" style="stroke: #000000; stroke-width: 0.8"/>
      </g>
     </g>
     <g id="text_12">
      <!-- −0.10 -->
      <g transform="translate(34.784216 289.53057) scale(0.2 -0.2)">
       <use xlink:href="#DejaVuSans-2212"/>
       <use xlink:href="#DejaVuSans-30" x="83.789062"/>
       <use xlink:href="#DejaVuSans-2e" x="147.412109"/>
       <use xlink:href="#DejaVuSans-31" x="179.199219"/>
       <use xlink:href="#DejaVuSans-30" x="242.822266"/>
      </g>
     </g>
    </g>
    <g id="ytick_4">
     <g id="line2d_13">
      <g>
       <use xlink:href="#md6713e033e" x="103.074841" y="228.800447" style="stroke: #000000; stroke-width: 0.8"/>
      </g>
     </g>
     <g id="text_13">
      <!-- −0.05 -->
      <g transform="translate(34.784216 236.398885) scale(0.2 -0.2)">
       <use xlink:href="#DejaVuSans-2212"/>
       <use xlink:href="#DejaVuSans-30" x="83.789062"/>
       <use xlink:href="#DejaVuSans-2e" x="147.412109"/>
       <use xlink:href="#DejaVuSans-30" x="179.199219"/>
       <use xlink:href="#DejaVuSans-35" x="242.822266"/>
      </g>
     </g>
    </g>
    <g id="ytick_5">
     <g id="line2d_14">
      <g>
       <use xlink:href="#md6713e033e" x="103.074841" y="175.668762" style="stroke: #000000; stroke-width: 0.8"/>
      </g>
     </g>
     <g id="text_14">
      <!-- 0.00 -->
      <g transform="translate(51.543591 183.267199) scale(0.2 -0.2)">
       <use xlink:href="#DejaVuSans-30"/>
       <use xlink:href="#DejaVuSans-2e" x="63.623047"/>
       <use xlink:href="#DejaVuSans-30" x="95.410156"/>
       <use xlink:href="#DejaVuSans-30" x="159.033203"/>
      </g>
     </g>
    </g>
    <g id="ytick_6">
     <g id="line2d_15">
      <g>
       <use xlink:href="#md6713e033e" x="103.074841" y="122.537077" style="stroke: #000000; stroke-width: 0.8"/>
      </g>
     </g>
     <g id="text_15">
      <!-- 0.05 -->
      <g transform="translate(51.543591 130.135514) scale(0.2 -0.2)">
       <use xlink:href="#DejaVuSans-30"/>
       <use xlink:href="#DejaVuSans-2e" x="63.623047"/>
       <use xlink:href="#DejaVuSans-30" x="95.410156"/>
       <use xlink:href="#DejaVuSans-35" x="159.033203"/>
      </g>
     </g>
    </g>
    <g id="ytick_7">
     <g id="line2d_16">
      <g>
       <use xlink:href="#md6713e033e" x="103.074841" y="69.405391" style="stroke: #000000; stroke-width: 0.8"/>
      </g>
     </g>
     <g id="text_16">
      <!-- 0.10 -->
      <g transform="translate(51.543591 77.003829) scale(0.2 -0.2)">
       <use xlink:href="#DejaVuSans-30"/>
       <use xlink:href="#DejaVuSans-2e" x="63.623047"/>
       <use xlink:href="#DejaVuSans-31" x="95.410156"/>
       <use xlink:href="#DejaVuSans-30" x="159.033203"/>
      </g>
     </g>
    </g>
    <g id="ytick_8">
     <g id="line2d_17">
      <g>
       <use xlink:href="#md6713e033e" x="103.074841" y="16.273706" style="stroke: #000000; stroke-width: 0.8"/>
      </g>
     </g>
     <g id="text_17">
      <!-- 0.15 -->
      <g transform="translate(51.543591 23.872144) scale(0.2 -0.2)">
       <use xlink:href="#DejaVuSans-30"/>
       <use xlink:href="#DejaVuSans-2e" x="63.623047"/>
       <use xlink:href="#DejaVuSans-31" x="95.410156"/>
       <use xlink:href="#DejaVuSans-35" x="159.033203"/>
      </g>
     </g>
    </g>
   </g>
   <g id="line2d_18">
    <path d="M 0 0 
" clip-path="url(#p11e87858d5)" style="fill: none; stroke: #ffa500; stroke-width: 1.5; stroke-linecap: square"/>
   </g>
   <g id="line2d_19">
    <path d="M 103.074841 175.668762 
L 948.274841 175.668762 
" clip-path="url(#p11e87858d5)" style="fill: none; stroke-dasharray: 7.4,3.2; stroke-dashoffset: 0; stroke: #000000; stroke-width: 2"/>
   </g>
   <g id="patch_3">
    <path d="M 103.074841 395.28 
L 103.074841 7.2 
" style="fill: none; stroke: #000000; stroke-width: 0.8; stroke-linejoin: miter; stroke-linecap: square"/>
   </g>
   <g id="patch_4">
    <path d="M 940.074841 395.28 
L 940.074841 7.2 
" style="fill: none; stroke: #000000; stroke-width: 0.8; stroke-linejoin: miter; stroke-linecap: square"/>
   </g>
   <g id="patch_5">
    <path d="M 103.074841 395.28 
L 940.074841 395.28 
" style="fill: none; stroke: #000000; stroke-width: 0.8; stroke-linejoin: miter; stroke-linecap: square"/>
   </g>
   <g id="patch_6">
    <path d="M 103.074841 7.2 
L 940.074841 7.2 
" style="fill: none; stroke: #000000; stroke-width: 0.8; stroke-linejoin: miter; stroke-linecap: square"/>
   </g>
  </g>
 </g>
 <defs>
  <clipPath id="p11e87858d5">
   <rect x="103.074841" y="7.2" width="837" height="388.08"/>
  </clipPath>
 </defs>
</svg>
