<?xml version="1.0" encoding="utf-8" standalone="no"?>
<!DOCTYPE svg PUBLIC "-//W3C//DTD SVG 1.1//EN"
  "http://www.w3.org/Graphics/SVG/1.1/DTD/svg11.dtd">
<svg xmlns:xlink="http://www.w3.org/1999/xlink" width="947.274841pt" height="505.354841pt" viewBox="0 0 947.274841 505.354841" xmlns="http://www.w3.org/2000/svg" version="1.1">
 <metadata>
  <rdf:RDF xmlns:dc="http://purl.org/dc/elements/1.1/" xmlns:cc="http://creativecommons.org/ns#" xmlns:rdf="http://www.w3.org/1999/02/22-rdf-syntax-ns#">
   <cc:Work>
    <dc:type rdf:resource="http://purl.org/dc/dcmitype/StillImage"/>
    <dc:date>2023-11-21T19:32:45.604825</dc:date>
    <dc:format>image/svg+xml</dc:format>
    <dc:creator>
     <cc:Agent>
      <dc:title>Matplotlib v3.7.2, https://matplotlib.org/</dc:title>
     </cc:Agent>
    </dc:creator>
   </cc:Work>
  </rdf:RDF>
 </metadata>
 <defs>
  <style type="text/css">*{stroke-linejoin: round; stroke-linecap: butt}</style>
 </defs>
 <g id="figure_1">
  <g id="patch_1">
   <path d="M 0 505.354841 
L 947.274841 505.354841 
L 947.274841 -0 
L 0 -0 
z
" style="fill: #ffffff"/>
  </g>
  <g id="axes_1">
   <g id="patch_2">
    <path d="M 103.074841 395.28 
L 940.074841 395.28 
L 940.074841 7.2 
L 103.074841 7.2 
z
" style="fill: #ffffff"/>
   </g>
   <g id="PolyCollection_1">
    <path d="M -393.000769 377.535649 
L -393.000769 377.554388 
L -390.959306 377.446956 
L -388.917842 377.35777 
L -386.876379 377.252029 
L -384.834915 377.181921 
L -382.793452 377.105996 
L -380.751989 377.01104 
L -378.710525 376.919996 
L -376.669062 376.837926 
L -374.627598 376.769223 
L -372.586135 376.68489 
L -370.544672 376.591892 
L -368.503208 376.500253 
L -366.461745 376.395162 
L -364.420281 376.308439 
L -362.378818 376.206234 
L -360.337354 376.10508 
L -358.295891 375.992964 
L -356.254428 375.894414 
L -354.212964 375.79996 
L -352.171501 375.684336 
L -350.130037 375.572216 
L -348.088574 375.464606 
L -346.047111 375.332812 
L -344.005647 375.221708 
L -341.964184 375.082112 
L -339.92272 374.950929 
L -337.881257 374.795772 
L -335.839793 374.63521 
L -333.79833 374.484282 
L -331.756867 374.313198 
L -329.715403 374.110542 
L -327.67394 373.935492 
L -325.632476 373.733859 
L -323.591013 373.499471 
L -321.54955 373.27865 
L -319.508086 373.033823 
L -317.466623 372.776339 
L -315.425159 372.515215 
L -313.383696 372.225609 
L -311.342232 371.912667 
L -309.300769 371.590055 
L -307.259306 371.246809 
L -305.217842 370.895595 
L -303.176379 370.515444 
L -301.134915 370.143364 
L -299.093452 369.736802 
L -297.051989 369.348509 
L -295.010525 368.913345 
L -292.969062 368.447786 
L -290.927598 368.011974 
L -288.886135 367.544238 
L -286.844672 367.047252 
L -284.803208 366.563953 
L -282.761745 366.073782 
L -280.720281 365.558867 
L -278.678818 365.039757 
L -276.637354 364.516972 
L -274.595891 363.970182 
L -272.554428 363.416899 
L -270.512964 362.867485 
L -268.471501 362.297586 
L -266.430037 361.725086 
L -264.388574 361.159438 
L -262.347111 360.559602 
L -260.305647 359.951606 
L -258.264184 359.344422 
L -256.22272 358.739392 
L -254.181257 358.140847 
L -252.139793 357.52316 
L -250.09833 356.917797 
L -248.056867 356.299598 
L -246.015403 355.740064 
L -243.97394 355.0851 
L -241.932476 354.489504 
L -239.891013 353.87425 
L -237.84955 353.297586 
L -235.808086 352.66854 
L -233.766623 352.071152 
L -231.725159 351.473324 
L -229.683696 350.877152 
L -227.642232 350.291186 
L -225.600769 349.697406 
L -223.559306 349.13959 
L -221.517842 348.54496 
L -219.476379 347.936023 
L -217.434915 347.351244 
L -215.393452 346.78962 
L -213.351989 346.181812 
L -211.310525 345.599672 
L -209.269062 345.001559 
L -207.227598 344.415089 
L -205.186135 343.855098 
L -203.144672 343.276847 
L -201.103208 342.690999 
L -199.061745 342.171324 
L -197.020281 341.570014 
L -194.978818 340.996615 
L -192.937354 340.432964 
L -190.895891 339.867392 
L -188.854428 339.302455 
L -186.812964 338.728301 
L -184.771501 338.183171 
L -182.730037 337.612785 
L -180.688574 337.025542 
L -178.647111 336.430443 
L -176.605647 335.827956 
L -174.564184 335.268399 
L -172.52272 334.644534 
L -170.481257 333.976221 
L -168.439793 333.345994 
L -166.39833 332.69134 
L -164.356867 332.02011 
L -162.315403 331.307836 
L -160.27394 330.582084 
L -158.232476 329.913204 
L -156.191013 329.142692 
L -154.14955 328.414789 
L -152.108086 327.625779 
L -150.066623 326.908101 
L -148.025159 326.053364 
L -145.983696 325.21704 
L -143.942232 324.408221 
L -141.900769 323.58528 
L -139.859306 322.736239 
L -137.817842 321.846099 
L -135.776379 321.018281 
L -133.734915 320.058637 
L -131.693452 319.226808 
L -129.651989 318.239659 
L -127.610525 317.288457 
L -125.569062 316.362505 
L -123.527598 315.384624 
L -121.486135 314.392005 
L -119.444672 313.49837 
L -117.403208 312.289428 
L -115.361745 311.265198 
L -113.320281 310.319455 
L -111.278818 309.240609 
L -109.237354 308.093255 
L -107.195891 306.82968 
L -105.154428 305.646233 
L -103.112964 304.672782 
L -101.071501 303.061196 
L -99.030037 301.796182 
L -96.988574 300.504308 
L -94.947111 299.166466 
L -92.905647 297.626834 
L -90.864184 296.157183 
L -88.82272 295.126552 
L -86.781257 293.782024 
L -84.739793 291.413496 
L -82.69833 289.487499 
L -80.656867 288.078947 
L -78.615403 286.208161 
L -76.57394 284.444654 
L -74.532476 283.148388 
L -72.491013 280.947643 
L -70.44955 278.508348 
L -68.408086 276.964436 
L -66.366623 275.938314 
L -64.325159 273.901201 
L -62.283696 272.8619 
L -60.242232 271.765235 
L -58.200769 269.328376 
L -56.159306 269.237845 
L -54.117842 270.053636 
L -52.076379 271.51958 
L -50.034915 269.246352 
L -47.993452 272.914261 
L -45.951989 274.38657 
L -43.910525 269.017886 
L -41.869062 269.705998 
L -39.827598 272.894276 
L -37.786135 271.340446 
L -35.744672 271.902502 
L -33.703208 283.009172 
L -31.661745 298.375319 
L -29.620281 306.718494 
L -27.578818 289.186472 
L -25.537354 297.820387 
L -23.495891 309.357198 
L -21.454428 309.297421 
L -19.412964 332.302989 
L -17.371501 328.83596 
L -15.330037 322.733481 
L -13.288574 304.122917 
L -11.247111 320.792557 
L -9.205647 330.606143 
L -7.164184 326.511726 
L -5.12272 329.324376 
L -3.081257 338.889951 
L -1.039793 337.536103 
L 1.00167 328.913152 
L 3.043133 339.224631 
L 5.084597 341.090284 
L 7.12606 337.196882 
L 9.167524 343.825561 
L 11.208987 346.341383 
L 13.25045 345.399658 
L 15.291914 343.411014 
L 17.333377 345.590847 
L 19.374841 343.38992 
L 21.416304 343.57218 
L 23.457768 345.497595 
L 25.499231 343.542465 
L 27.540694 344.483696 
L 29.582158 344.530493 
L 31.623621 342.955534 
L 33.665085 343.541889 
L 35.706548 341.150838 
L 37.748011 341.368821 
L 39.789475 341.996488 
L 41.830938 342.015671 
L 43.872402 340.904695 
L 45.913865 339.936153 
L 47.955328 339.669503 
L 49.996792 338.682362 
L 52.038255 338.525689 
L 54.079719 338.238885 
L 56.121182 336.785179 
L 58.162646 337.552139 
L 60.204109 336.453964 
L 62.245572 336.009871 
L 64.287036 336.055006 
L 66.328499 335.06534 
L 68.369963 334.910505 
L 70.411426 335.306973 
L 72.452889 335.740241 
L 74.494353 334.098898 
L 76.535816 333.780112 
L 78.57728 333.30926 
L 80.618743 336.055698 
L 82.660207 336.081504 
L 84.70167 337.136899 
L 86.743133 334.511145 
L 88.784597 332.820297 
L 90.82606 333.350187 
L 92.867524 335.137498 
L 94.908987 335.414792 
L 96.95045 332.041956 
L 98.991914 334.850742 
L 101.033377 333.915632 
L 103.074841 333.629621 
L 105.116304 332.050504 
L 107.157768 333.154847 
L 109.199231 332.322047 
L 111.240694 333.029728 
L 113.282158 332.0863 
L 115.323621 330.904979 
L 117.365085 329.529494 
L 119.406548 328.868166 
L 121.448011 327.988874 
L 123.489475 327.085851 
L 125.530938 326.944835 
L 127.572402 325.904409 
L 129.613865 324.926554 
L 131.655328 322.765316 
L 133.696792 320.806944 
L 135.738255 319.867014 
L 137.779719 317.871177 
L 139.821182 317.28694 
L 141.862646 315.482239 
L 143.904109 313.075679 
L 145.945572 310.882322 
L 147.987036 309.23217 
L 150.028499 306.621876 
L 152.069963 304.997317 
L 154.111426 302.644183 
L 156.152889 300.31016 
L 158.194353 298.188176 
L 160.235816 295.919829 
L 162.27728 293.354936 
L 164.318743 290.822777 
L 166.360207 288.353387 
L 168.40167 285.356913 
L 170.443133 282.809622 
L 172.484597 280.466823 
L 174.52606 277.943585 
L 176.567524 275.135851 
L 178.608987 272.308965 
L 180.65045 269.435575 
L 182.691914 265.817321 
L 184.733377 263.256908 
L 186.774841 260.38748 
L 188.816304 258.013161 
L 190.857768 254.499743 
L 192.899231 251.120664 
L 194.940694 248.594011 
L 196.982158 244.989241 
L 199.023621 241.187595 
L 201.065085 238.308946 
L 203.106548 234.587639 
L 205.148011 231.876225 
L 207.189475 228.386064 
L 209.230938 223.964893 
L 211.272402 220.438382 
L 213.313865 217.874409 
L 215.355328 213.669087 
L 217.396792 210.247184 
L 219.438255 206.237097 
L 221.479719 203.368996 
L 223.521182 198.733064 
L 225.562646 194.750875 
L 227.604109 194.950516 
L 229.645572 187.419376 
L 231.687036 185.850706 
L 233.728499 181.512216 
L 235.769963 179.274428 
L 237.811426 174.796714 
L 239.852889 171.724916 
L 241.894353 168.20959 
L 243.935816 165.374255 
L 245.97728 162.701814 
L 248.018743 159.410694 
L 250.060207 161.421478 
L 252.10167 152.422321 
L 254.143133 151.343925 
L 256.184597 155.046733 
L 258.22606 146.816799 
L 260.267524 148.17396 
L 262.308987 147.208214 
L 264.35045 141.925624 
L 266.391914 142.482843 
L 268.433377 148.07567 
L 270.474841 142.363605 
L 272.516304 141.723122 
L 274.557768 143.937258 
L 276.599231 143.748057 
L 278.640694 145.89049 
L 280.682158 149.311792 
L 282.723621 153.184695 
L 284.765085 167.624434 
L 286.806548 161.920801 
L 288.848011 169.454098 
L 290.889475 173.760054 
L 292.930938 177.141445 
L 294.972402 182.14662 
L 297.013865 187.081108 
L 299.055328 179.400462 
L 301.096792 185.080528 
L 303.138255 195.153978 
L 305.179719 199.474857 
L 307.221182 200.054162 
L 309.262646 216.394604 
L 311.304109 217.503982 
L 313.345572 221.394366 
L 315.387036 220.298371 
L 317.428499 235.105613 
L 319.469963 230.822744 
L 321.511426 227.056184 
L 323.552889 240.733469 
L 325.594353 249.153905 
L 327.635816 248.388167 
L 329.67728 254.469129 
L 331.718743 255.901968 
L 333.760207 256.345299 
L 335.80167 256.213034 
L 337.843133 257.864687 
L 339.884597 260.111764 
L 341.92606 269.367179 
L 343.967524 262.925174 
L 346.008987 270.842338 
L 348.05045 269.347482 
L 350.091914 267.624744 
L 352.133377 270.570598 
L 354.174841 273.099744 
L 356.216304 268.248205 
L 358.257768 271.595659 
L 360.299231 271.083473 
L 362.340694 274.692074 
L 364.382158 272.808262 
L 366.423621 270.621857 
L 368.465085 272.361043 
L 370.506548 272.206143 
L 372.548011 271.161965 
L 374.589475 269.459417 
L 376.630938 270.00854 
L 378.672402 266.806838 
L 380.713865 266.945235 
L 382.755328 270.074664 
L 384.796792 269.029685 
L 386.838255 265.596561 
L 388.879719 265.156682 
L 390.921182 264.141196 
L 392.962646 259.782454 
L 395.004109 260.672217 
L 397.045572 262.455655 
L 399.087036 258.151907 
L 401.128499 257.065547 
L 403.169963 254.600589 
L 405.211426 254.889193 
L 407.252889 253.753482 
L 409.294353 251.825684 
L 411.335816 250.647684 
L 413.37728 249.393277 
L 415.418743 247.556593 
L 417.460207 244.32634 
L 419.50167 242.842382 
L 421.543133 240.590178 
L 423.584597 235.968762 
L 425.62606 238.477865 
L 427.667524 233.258255 
L 429.708987 233.924373 
L 431.75045 233.080531 
L 433.791914 232.707396 
L 435.833377 229.729595 
L 437.874841 229.588463 
L 439.916304 228.802905 
L 441.957768 223.693956 
L 443.999231 224.5168 
L 446.040694 223.36218 
L 448.082158 223.721399 
L 450.123621 220.295714 
L 452.165085 220.909251 
L 454.206548 219.726936 
L 456.248011 214.985328 
L 458.289475 214.271189 
L 460.330938 212.810915 
L 462.372402 212.078126 
L 464.413865 209.723197 
L 466.455328 209.605476 
L 468.496792 208.336356 
L 470.538255 207.281398 
L 472.579719 205.629879 
L 474.621182 203.063661 
L 476.662646 204.967084 
L 478.704109 204.048567 
L 480.745572 202.008395 
L 482.787036 200.656187 
L 484.828499 197.567435 
L 486.869963 199.568738 
L 488.911426 198.715186 
L 490.952889 198.303436 
L 492.994353 196.448744 
L 495.035816 194.429135 
L 497.07728 192.973641 
L 499.118743 192.719463 
L 501.160207 192.126407 
L 503.20167 191.702067 
L 505.243133 189.232689 
L 507.284597 186.933012 
L 509.32606 189.318966 
L 511.367524 185.9484 
L 513.408987 186.139215 
L 515.45045 186.898793 
L 517.491914 181.830222 
L 519.533377 182.343316 
L 521.574841 182.892964 
L 523.616304 180.94261 
L 525.657768 182.890985 
L 527.699231 179.525894 
L 529.740694 176.977765 
L 531.782158 180.036304 
L 533.823621 179.854212 
L 535.865085 177.578827 
L 537.906548 178.360636 
L 539.948011 176.981183 
L 541.989475 181.622307 
L 544.030938 180.301003 
L 546.072402 180.642067 
L 548.113865 176.303645 
L 550.155328 173.273827 
L 552.196792 176.836924 
L 554.238255 180.842101 
L 556.279719 175.879817 
L 558.321182 175.33756 
L 560.362646 171.739845 
L 562.404109 172.240938 
L 564.445572 174.263253 
L 566.487036 171.517669 
L 568.528499 168.848618 
L 570.569963 173.375075 
L 572.611426 170.186806 
L 574.652889 174.143264 
L 576.694353 174.94737 
L 578.735816 168.313882 
L 580.77728 169.245705 
L 582.818743 167.189674 
L 584.860207 169.047285 
L 586.90167 171.574101 
L 588.943133 178.71591 
L 590.984597 181.381449 
L 593.02606 178.456212 
L 595.067524 185.481805 
L 597.108987 196.248796 
L 599.15045 183.422327 
L 601.191914 179.00461 
L 603.233377 183.636438 
L 605.274841 187.676 
L 607.316304 188.455338 
L 609.357768 186.074086 
L 611.399231 194.354825 
L 613.440694 199.364615 
L 615.482158 190.181646 
L 617.523621 198.58217 
L 619.565085 194.628752 
L 621.606548 194.670601 
L 623.648011 202.343966 
L 625.689475 200.126144 
L 627.730938 206.258718 
L 629.772402 206.725312 
L 631.813865 198.109722 
L 633.855328 204.930613 
L 635.896792 204.490356 
L 637.938255 209.896537 
L 639.979719 207.672821 
L 642.021182 214.074959 
L 644.062646 209.543441 
L 646.104109 213.304045 
L 648.145572 213.586622 
L 650.187036 215.727972 
L 652.228499 209.313381 
L 654.269963 216.559944 
L 656.311426 218.666016 
L 658.352889 221.545891 
L 660.394353 226.525662 
L 662.435816 224.778377 
L 664.47728 223.438273 
L 666.518743 227.842662 
L 668.560207 231.733021 
L 670.60167 227.794491 
L 672.643133 225.816731 
L 674.684597 229.991573 
L 676.72606 232.811855 
L 678.767524 227.245359 
L 680.808987 225.956604 
L 682.85045 236.054691 
L 684.891914 239.506526 
L 686.933377 229.385089 
L 688.974841 232.318621 
L 691.016304 234.265731 
L 693.057768 235.742232 
L 695.099231 241.933204 
L 697.140694 239.245442 
L 699.182158 235.609061 
L 701.223621 239.984193 
L 703.265085 242.356764 
L 705.306548 235.667288 
L 707.348011 236.91923 
L 709.389475 236.5094 
L 711.430938 246.781735 
L 713.472402 253.126104 
L 715.513865 253.944287 
L 717.555328 245.70489 
L 719.596792 242.236484 
L 721.638255 244.826996 
L 723.679719 245.409471 
L 725.721182 254.800188 
L 727.762646 243.575474 
L 729.804109 253.03483 
L 731.845572 258.974618 
L 733.887036 253.575142 
L 735.928499 263.611023 
L 737.969963 257.547065 
L 740.011426 259.896455 
L 742.052889 260.974897 
L 744.094353 263.215216 
L 746.135816 268.230431 
L 748.17728 265.133668 
L 750.218743 268.254018 
L 752.260207 269.905512 
L 754.30167 270.111438 
L 756.343133 258.581207 
L 758.384597 275.595327 
L 760.42606 281.619589 
L 762.467524 275.460434 
L 764.508987 280.349631 
L 766.55045 282.320572 
L 768.591914 279.53927 
L 770.633377 284.967842 
L 772.674841 291.980338 
L 774.716304 290.150391 
L 776.757768 292.131354 
L 778.799231 294.770763 
L 780.840694 295.547779 
L 782.882158 300.329978 
L 784.923621 291.137083 
L 786.965085 305.052885 
L 789.006548 305.180609 
L 791.048011 304.26395 
L 793.089475 297.510746 
L 795.130938 308.597143 
L 797.172402 317.166075 
L 799.213865 308.24255 
L 801.255328 310.530908 
L 803.296792 319.865037 
L 805.338255 302.879397 
L 807.379719 318.565652 
L 809.421182 309.853239 
L 811.462646 325.204464 
L 813.504109 317.253664 
L 815.545572 324.599881 
L 817.587036 325.824686 
L 819.628499 330.740695 
L 821.669963 330.758306 
L 823.711426 328.451352 
L 825.752889 328.024686 
L 827.794353 331.151612 
L 829.835816 337.831881 
L 831.87728 337.452566 
L 833.918743 336.833432 
L 835.960207 342.513748 
L 838.00167 342.521147 
L 840.043133 341.391448 
L 842.084597 340.481413 
L 844.12606 347.429347 
L 846.167524 348.393569 
L 848.208987 350.314809 
L 850.25045 346.6914 
L 852.291914 340.706877 
L 854.333377 349.492597 
L 856.374841 345.905279 
L 858.416304 348.933944 
L 860.457768 352.005106 
L 862.499231 348.446321 
L 864.540694 354.064934 
L 866.582158 350.29248 
L 868.623621 350.151729 
L 870.665085 351.505927 
L 872.706548 354.983386 
L 874.748011 353.453036 
L 876.789475 353.177808 
L 878.830938 351.302121 
L 880.872402 352.162389 
L 882.913865 353.207982 
L 884.955328 352.471982 
L 886.996792 355.827309 
L 889.038255 354.704553 
L 891.079719 357.342376 
L 893.121182 358.510981 
L 895.162646 358.937091 
L 897.204109 357.258483 
L 899.245572 356.883054 
L 901.287036 355.840635 
L 903.328499 357.220174 
L 905.369963 356.862452 
L 907.411426 354.832864 
L 909.452889 357.239683 
L 911.494353 346.66396 
L 913.535816 356.505624 
L 915.57728 359.299809 
L 917.618743 355.477149 
L 919.660207 355.405628 
L 921.70167 357.627397 
L 923.743133 357.619233 
L 925.784597 354.469371 
L 927.82606 353.82504 
L 929.867524 355.397968 
L 931.908987 353.779059 
L 933.95045 358.306607 
L 935.991914 355.035495 
L 938.033377 358.945438 
L 940.074841 355.595454 
L 940.074841 347.928088 
L 940.074841 347.928088 
L 938.033377 344.277004 
L 935.991914 339.271265 
L 933.95045 345.095565 
L 931.908987 334.882909 
L 929.867524 338.408615 
L 927.82606 336.888445 
L 925.784597 326.89976 
L 923.743133 338.275509 
L 921.70167 344.742 
L 919.660207 329.069677 
L 917.618743 336.105724 
L 915.57728 343.877976 
L 913.535816 338.95301 
L 911.494353 276.217921 
L 909.452889 337.71284 
L 907.411426 326.637632 
L 905.369963 338.018458 
L 903.328499 337.688669 
L 901.287036 333.985801 
L 899.245572 333.425739 
L 897.204109 333.0714 
L 895.162646 340.201027 
L 893.121182 339.538147 
L 891.079719 332.431654 
L 889.038255 323.752579 
L 886.996792 329.479618 
L 884.955328 319.739195 
L 882.913865 322.564284 
L 880.872402 317.119842 
L 878.830938 313.501754 
L 876.789475 320.745348 
L 874.748011 320.967944 
L 872.706548 323.808803 
L 870.665085 316.637529 
L 868.623621 309.557513 
L 866.582158 309.493301 
L 864.540694 323.250516 
L 862.499231 304.741989 
L 860.457768 317.052929 
L 858.416304 308.415497 
L 856.374841 300.366856 
L 854.333377 310.766196 
L 852.291914 279.495227 
L 850.25045 303.283919 
L 848.208987 313.312015 
L 846.167524 307.548522 
L 844.12606 306.516776 
L 842.084597 281.566451 
L 840.043133 287.270074 
L 838.00167 291.776465 
L 835.960207 293.151558 
L 833.918743 277.182584 
L 831.87728 280.548393 
L 829.835816 280.297805 
L 827.794353 267.551206 
L 825.752889 256.252259 
L 823.711426 256.238415 
L 821.669963 262.59254 
L 819.628499 262.833657 
L 817.587036 253.124758 
L 815.545572 250.654964 
L 813.504109 229.481137 
L 811.462646 253.390485 
L 809.421182 202.294411 
L 807.379719 233.10585 
L 805.338255 188.260191 
L 803.296792 239.239996 
L 801.255328 214.681408 
L 799.213865 212.437736 
L 797.172402 230.998125 
L 795.130938 210.613231 
L 793.089475 181.72678 
L 791.048011 198.710882 
L 789.006548 203.644586 
L 786.965085 203.977217 
L 784.923621 167.876419 
L 782.882158 181.190334 
L 780.840694 181.982124 
L 778.799231 180.626357 
L 776.757768 174.206594 
L 774.716304 167.890341 
L 772.674841 174.605445 
L 770.633377 155.979557 
L 768.591914 142.631321 
L 766.55045 155.110244 
L 764.508987 144.639664 
L 762.467524 137.574824 
L 760.42606 152.809148 
L 758.384597 138.773162 
L 756.343133 97.335065 
L 754.30167 125.067677 
L 752.260207 123.489264 
L 750.218743 121.212531 
L 748.17728 113.815319 
L 746.135816 121.706246 
L 744.094353 111.469377 
L 742.052889 107.325963 
L 740.011426 104.486954 
L 737.969963 96.563455 
L 735.928499 113.524947 
L 733.887036 90.931801 
L 731.845572 102.332053 
L 729.804109 90.590751 
L 727.762646 72.843067 
L 725.721182 94.661325 
L 723.679719 73.604524 
L 721.638255 74.680508 
L 719.596792 70.458455 
L 717.555328 77.922545 
L 715.513865 95.255364 
L 713.472402 95.468407 
L 711.430938 82.993685 
L 709.389475 59.225361 
L 707.348011 61.043574 
L 705.306548 61.274552 
L 703.265085 75.261148 
L 701.223621 71.908062 
L 699.182158 63.091702 
L 697.140694 72.085817 
L 695.099231 76.199989 
L 693.057768 65.511418 
L 691.016304 64.991221 
L 688.974841 61.257671 
L 686.933377 56.458227 
L 684.891914 78.945665 
L 682.85045 68.982386 
L 680.808987 52.780338 
L 678.767524 58.04878 
L 676.72606 69.311241 
L 674.684597 63.806214 
L 672.643133 57.874759 
L 670.60167 63.769163 
L 668.560207 74.274177 
L 666.518743 63.680091 
L 664.47728 58.563281 
L 662.435816 63.225211 
L 660.394353 61.234582 
L 658.352889 58.606026 
L 656.311426 55.044088 
L 654.269963 52.583644 
L 652.228499 40.669553 
L 650.187036 52.097235 
L 648.145572 49.912069 
L 646.104109 51.634864 
L 644.062646 49.181933 
L 642.021182 54.427393 
L 639.979719 45.889296 
L 637.938255 51.878109 
L 635.896792 43.96645 
L 633.855328 46.365418 
L 631.813865 37.003728 
L 629.772402 47.260367 
L 627.730938 51.115877 
L 625.689475 46.247378 
L 623.648011 47.270756 
L 621.606548 38.831692 
L 619.565085 41.468409 
L 617.523621 44.795705 
L 615.482158 34.965101 
L 613.440694 45.92629 
L 611.399231 43.151573 
L 609.357768 32.050285 
L 607.316304 37.098076 
L 605.274841 36.687146 
L 603.233377 34.140681 
L 601.191914 29.348862 
L 599.15045 34.89146 
L 597.108987 54.998906 
L 595.067524 42.256796 
L 593.02606 33.064946 
L 590.984597 37.534907 
L 588.943133 35.175697 
L 586.90167 29.187209 
L 584.860207 26.598479 
L 582.818743 24.84 
L 580.77728 29.651781 
L 578.735816 30.514341 
L 576.694353 38.579097 
L 574.652889 39.30799 
L 572.611426 36.349555 
L 570.569963 42.155915 
L 568.528499 37.002608 
L 566.487036 43.277089 
L 564.445572 46.857805 
L 562.404109 47.980799 
L 560.362646 47.243177 
L 558.321182 53.676901 
L 556.279719 55.053288 
L 554.238255 61.352401 
L 552.196792 59.399827 
L 550.155328 56.888408 
L 548.113865 61.556711 
L 546.072402 65.484525 
L 544.030938 66.755393 
L 541.989475 71.065194 
L 539.948011 66.506815 
L 537.906548 69.590455 
L 535.865085 69.472297 
L 533.823621 71.660102 
L 531.782158 71.796034 
L 529.740694 70.473999 
L 527.699231 75.78419 
L 525.657768 79.086339 
L 523.616304 77.077684 
L 521.574841 80.479487 
L 519.533377 78.942031 
L 517.491914 81.521701 
L 515.45045 87.268656 
L 513.408987 87.183375 
L 511.367524 88.132251 
L 509.32606 91.964911 
L 507.284597 90.01767 
L 505.243133 92.774805 
L 503.20167 96.268975 
L 501.160207 96.809586 
L 499.118743 98.340272 
L 497.07728 99.038137 
L 495.035816 100.950338 
L 492.994353 103.519798 
L 490.952889 105.613639 
L 488.911426 105.818943 
L 486.869963 107.652375 
L 484.828499 103.165039 
L 482.787036 109.18376 
L 480.745572 110.674628 
L 478.704109 112.605634 
L 476.662646 112.950387 
L 474.621182 112.449579 
L 472.579719 115.366585 
L 470.538255 117.282443 
L 468.496792 119.056319 
L 466.455328 120.034658 
L 464.413865 120.459606 
L 462.372402 122.208267 
L 460.330938 123.614383 
L 458.289475 125.598469 
L 456.248011 127.052315 
L 454.206548 132.516188 
L 452.165085 133.851234 
L 450.123621 133.155899 
L 448.082158 137.20337 
L 446.040694 136.49325 
L 443.999231 138.254358 
L 441.957768 136.202231 
L 439.916304 143.807966 
L 437.874841 144.894976 
L 435.833377 145.230947 
L 433.791914 148.884567 
L 431.75045 149.436951 
L 429.708987 150.812535 
L 427.667524 150.030218 
L 425.62606 156.278323 
L 423.584597 154.36288 
L 421.543133 160.444326 
L 419.50167 163.975187 
L 417.460207 166.30415 
L 415.418743 170.845455 
L 413.37728 174.236444 
L 411.335816 175.602018 
L 409.294353 178.228323 
L 407.252889 180.640107 
L 405.211426 182.832524 
L 403.169963 183.020946 
L 401.128499 187.18958 
L 399.087036 189.900061 
L 397.045572 194.969267 
L 395.004109 194.233389 
L 392.962646 194.668409 
L 390.921182 200.063956 
L 388.879719 202.279808 
L 386.838255 204.615957 
L 384.796792 208.685619 
L 382.755328 210.580072 
L 380.713865 209.245891 
L 378.672402 210.635521 
L 376.630938 214.70011 
L 374.589475 215.934589 
L 372.548011 218.226113 
L 370.506548 220.178504 
L 368.465085 221.809147 
L 366.423621 222.635429 
L 364.382158 225.229034 
L 362.340694 227.902308 
L 360.299231 225.429368 
L 358.257768 227.632961 
L 356.216304 226.471075 
L 354.174841 231.435596 
L 352.133377 231.469088 
L 350.091914 229.587175 
L 348.05045 232.403161 
L 346.008987 234.316826 
L 343.967524 229.088234 
L 341.92606 235.801659 
L 339.884597 229.290727 
L 337.843133 228.849249 
L 335.80167 228.422047 
L 333.760207 230.098625 
L 331.718743 230.54771 
L 329.67728 229.730023 
L 327.635816 225.335408 
L 325.594353 227.586256 
L 323.552889 220.379997 
L 321.511426 210.729293 
L 319.469963 214.421132 
L 317.428499 218.537126 
L 315.387036 206.8971 
L 313.345572 207.86169 
L 311.304109 205.345664 
L 309.262646 204.97183 
L 307.221182 188.816518 
L 305.179719 187.37879 
L 303.138255 181.839903 
L 301.096792 169.041291 
L 299.055328 160.36765 
L 297.013865 169.833645 
L 294.972402 163.212038 
L 292.930938 156.37541 
L 290.889475 152.026245 
L 288.848011 146.404977 
L 286.806548 136.116171 
L 284.765085 143.595938 
L 282.723621 124.467133 
L 280.682158 118.008669 
L 278.640694 114.477375 
L 276.599231 111.575155 
L 274.557768 111.924609 
L 272.516304 109.80849 
L 270.474841 111.29939 
L 268.433377 117.777888 
L 266.391914 110.111845 
L 264.35045 110.119773 
L 262.308987 116.912885 
L 260.267524 118.414079 
L 258.22606 116.596675 
L 256.184597 127.518428 
L 254.143133 122.622701 
L 252.10167 124.768082 
L 250.060207 135.781555 
L 248.018743 133.548984 
L 245.97728 138.025685 
L 243.935816 141.627137 
L 241.894353 145.367246 
L 239.852889 149.55121 
L 237.811426 153.657045 
L 235.769963 159.245789 
L 233.728499 161.981812 
L 231.687036 167.55279 
L 229.645572 169.542812 
L 227.604109 178.453089 
L 225.562646 178.414313 
L 223.521182 183.225132 
L 221.479719 188.854973 
L 219.438255 192.227607 
L 217.396792 197.118974 
L 215.355328 201.174054 
L 213.313865 206.178291 
L 211.272402 209.273845 
L 209.230938 213.619661 
L 207.189475 218.83546 
L 205.148011 223.006228 
L 203.106548 226.350834 
L 201.065085 230.833965 
L 199.023621 234.119924 
L 196.982158 238.484406 
L 194.940694 242.648491 
L 192.899231 245.669119 
L 190.857768 249.579298 
L 188.816304 253.669975 
L 186.774841 256.261552 
L 184.733377 258.984852 
L 182.691914 261.22896 
L 180.65045 264.794009 
L 178.608987 267.375722 
L 176.567524 270.078053 
L 174.52606 272.734117 
L 172.484597 274.996619 
L 170.443133 277.290715 
L 168.40167 279.651494 
L 166.360207 282.416321 
L 164.318743 284.608309 
L 162.27728 286.994685 
L 160.235816 289.142713 
L 158.194353 291.507752 
L 156.152889 293.599457 
L 154.111426 295.752941 
L 152.069963 297.954761 
L 150.028499 299.58274 
L 147.987036 301.907709 
L 145.945572 303.573408 
L 143.904109 305.525713 
L 141.862646 307.824225 
L 139.821182 309.498115 
L 137.779719 310.004989 
L 135.738255 311.94804 
L 133.696792 312.969359 
L 131.655328 314.936494 
L 129.613865 316.953786 
L 127.572402 318.082873 
L 125.530938 319.225592 
L 123.489475 319.221468 
L 121.448011 320.224849 
L 119.406548 320.95009 
L 117.365085 321.511266 
L 115.323621 322.937494 
L 113.282158 324.060286 
L 111.240694 325.164859 
L 109.199231 324.274304 
L 107.157768 324.924572 
L 105.116304 323.720021 
L 103.074841 325.470941 
L 101.033377 325.460357 
L 98.991914 326.916638 
L 96.95045 323.820378 
L 94.908987 327.230527 
L 92.867524 326.834388 
L 90.82606 324.819457 
L 88.784597 324.193704 
L 86.743133 325.928302 
L 84.70167 328.737267 
L 82.660207 327.46544 
L 80.618743 327.315461 
L 78.57728 324.112542 
L 76.535816 323.901556 
L 74.494353 324.716667 
L 72.452889 326.490938 
L 70.411426 325.833597 
L 68.369963 325.261819 
L 66.328499 325.33661 
L 64.287036 326.367997 
L 62.245572 325.952034 
L 60.204109 326.566492 
L 58.162646 327.759435 
L 56.121182 326.719362 
L 54.079719 328.253506 
L 52.038255 328.495833 
L 49.996792 328.566623 
L 47.955328 329.523635 
L 45.913865 329.696796 
L 43.872402 330.873971 
L 41.830938 332.125721 
L 39.789475 332.028687 
L 37.748011 331.332373 
L 35.706548 330.706995 
L 33.665085 333.647051 
L 31.623621 332.992125 
L 29.582158 334.813873 
L 27.540694 334.714658 
L 25.499231 333.888912 
L 23.457768 335.728664 
L 21.416304 333.879412 
L 19.374841 333.842731 
L 17.333377 336.165576 
L 15.291914 334.213151 
L 13.25045 336.377563 
L 11.208987 337.314872 
L 9.167524 335.057099 
L 7.12606 328.589566 
L 5.084597 332.619758 
L 3.043133 330.756303 
L 1.00167 321.301678 
L -1.039793 329.538857 
L -3.081257 331.019866 
L -5.12272 322.2602 
L -7.164184 319.501344 
L -9.205647 323.896408 
L -11.247111 313.97372 
L -13.288574 296.312768 
L -15.330037 316.323528 
L -17.371501 322.697051 
L -19.412964 326.369976 
L -21.454428 302.635078 
L -23.495891 302.859593 
L -25.537354 290.878535 
L -27.578818 281.876063 
L -29.620281 300.625265 
L -31.661745 292.03092 
L -33.703208 276.057905 
L -35.744672 264.635666 
L -37.786135 264.304964 
L -39.827598 266.19755 
L -41.869062 263.095141 
L -43.910525 262.605494 
L -45.951989 268.488599 
L -47.993452 267.126847 
L -50.034915 262.963822 
L -52.076379 265.362125 
L -54.117842 263.56249 
L -56.159306 262.449565 
L -58.200769 262.231703 
L -60.242232 264.745073 
L -62.283696 265.702428 
L -64.325159 266.638001 
L -66.366623 268.624145 
L -68.408086 269.514164 
L -70.44955 270.986653 
L -72.491013 273.487167 
L -74.532476 275.570243 
L -76.57394 276.779823 
L -78.615403 278.453309 
L -80.656867 280.317331 
L -82.69833 281.563654 
L -84.739793 283.513363 
L -86.781257 285.959043 
L -88.82272 287.30058 
L -90.864184 288.189187 
L -92.905647 289.677869 
L -94.947111 291.133746 
L -96.988574 292.474376 
L -99.030037 293.757452 
L -101.071501 294.99068 
L -103.112964 296.74951 
L -105.154428 297.586183 
L -107.195891 298.827785 
L -109.237354 300.106121 
L -111.278818 301.312387 
L -113.320281 302.43258 
L -115.361745 303.324018 
L -117.403208 304.300081 
L -119.444672 305.659414 
L -121.486135 306.492564 
L -123.527598 307.525109 
L -125.569062 308.532076 
L -127.610525 309.523367 
L -129.651989 310.539372 
L -131.693452 311.575536 
L -133.734915 312.437743 
L -135.776379 313.440086 
L -137.817842 314.315725 
L -139.859306 315.25748 
L -141.900769 316.124852 
L -143.942232 317.037753 
L -145.983696 317.875781 
L -148.025159 318.782963 
L -150.066623 319.76335 
L -152.108086 320.501402 
L -154.14955 321.43806 
L -156.191013 322.23742 
L -158.232476 323.171459 
L -160.27394 323.846766 
L -162.315403 324.717288 
L -164.356867 325.544951 
L -166.39833 326.330958 
L -168.439793 327.119492 
L -170.481257 327.872131 
L -172.52272 328.739641 
L -174.564184 329.519687 
L -176.605647 330.152551 
L -178.647111 330.91204 
L -180.688574 331.670328 
L -182.730037 332.423951 
L -184.771501 333.147949 
L -186.812964 333.819577 
L -188.854428 334.561674 
L -190.895891 335.286832 
L -192.937354 336.014495 
L -194.978818 336.737593 
L -197.020281 337.480028 
L -199.061745 338.252403 
L -201.103208 338.907908 
L -203.144672 339.665345 
L -205.186135 340.40547 
L -207.227598 341.112771 
L -209.269062 341.842679 
L -211.310525 342.587492 
L -213.351989 343.307177 
L -215.393452 344.063454 
L -217.434915 344.747671 
L -219.476379 345.445132 
L -221.517842 346.18522 
L -223.559306 346.895838 
L -225.600769 347.556817 
L -227.642232 348.24727 
L -229.683696 348.922135 
L -231.725159 349.612877 
L -233.766623 350.304779 
L -235.808086 350.976501 
L -237.84955 351.680717 
L -239.891013 352.319811 
L -241.932476 353.003859 
L -243.97394 353.660795 
L -246.015403 354.386367 
L -248.056867 354.997429 
L -250.09833 355.676181 
L -252.139793 356.337228 
L -254.181257 357.011184 
L -256.22272 357.658707 
L -258.264184 358.31348 
L -260.305647 358.971522 
L -262.347111 359.62204 
L -264.388574 360.235608 
L -266.430037 360.810153 
L -268.471501 361.395035 
L -270.512964 361.981832 
L -272.554428 362.546766 
L -274.595891 363.125488 
L -276.637354 363.697434 
L -278.678818 364.241526 
L -280.720281 364.786793 
L -282.761745 365.330578 
L -284.803208 365.847201 
L -286.844672 366.356447 
L -288.886135 366.893423 
L -290.927598 367.386749 
L -292.969062 367.84688 
L -295.010525 368.348877 
L -297.051989 368.81384 
L -299.093452 369.223118 
L -301.134915 369.656626 
L -303.176379 370.050612 
L -305.217842 370.461975 
L -307.259306 370.834636 
L -309.300769 371.202822 
L -311.342232 371.546467 
L -313.383696 371.879183 
L -315.425159 372.18983 
L -317.466623 372.455669 
L -319.508086 372.726781 
L -321.54955 372.983774 
L -323.591013 373.210803 
L -325.632476 373.461324 
L -327.67394 373.668679 
L -329.715403 373.844573 
L -331.756867 374.057164 
L -333.79833 374.233066 
L -335.839793 374.383388 
L -337.881257 374.551218 
L -339.92272 374.714152 
L -341.964184 374.844797 
L -344.005647 374.990176 
L -346.047111 375.098859 
L -348.088574 375.2384 
L -350.130037 375.347067 
L -352.171501 375.463989 
L -354.212964 375.588451 
L -356.254428 375.685805 
L -358.295891 375.789482 
L -360.337354 375.914762 
L -362.378818 376.027928 
L -364.420281 376.144777 
L -366.461745 376.236875 
L -368.503208 376.360229 
L -370.544672 376.466935 
L -372.586135 376.578779 
L -374.627598 376.670242 
L -376.669062 376.749354 
L -378.710525 376.844734 
L -380.751989 376.957547 
L -382.793452 377.070868 
L -384.834915 377.159281 
L -386.876379 377.236138 
L -388.917842 377.344571 
L -390.959306 377.42953 
L -393.000769 377.535649 
z
" clip-path="url(#p5e292747fa)" style="fill: #008000; fill-opacity: 0.3; stroke: #008000; stroke-opacity: 0.3"/>
   </g>
   <g id="matplotlib.axis_1">
    <g id="xtick_1">
     <g id="line2d_1">
      <defs>
       <path id="mb7d4879849" d="M 0 0 
L 0 3.5 
" style="stroke: #000000; stroke-width: 0.8"/>
      </defs>
      <g>
       <use xlink:href="#mb7d4879849" x="103.074841" y="395.28" style="stroke: #000000; stroke-width: 0.8"/>
      </g>
     </g>
     <g id="text_1">
      <!-- 2022-03-01 -->
      <g transform="translate(17.945813 495.213718) rotate(-45) scale(0.2 -0.2)">
       <defs>
        <path id="DejaVuSans-32" d="M 1228 531 
L 3431 531 
L 3431 0 
L 469 0 
L 469 531 
Q 828 903 1448 1529 
Q 2069 2156 2228 2338 
Q 2531 2678 2651 2914 
Q 2772 3150 2772 3378 
Q 2772 3750 2511 3984 
Q 2250 4219 1831 4219 
Q 1534 4219 1204 4116 
Q 875 4013 500 3803 
L 500 4441 
Q 881 4594 1212 4672 
Q 1544 4750 1819 4750 
Q 2544 4750 2975 4387 
Q 3406 4025 3406 3419 
Q 3406 3131 3298 2873 
Q 3191 2616 2906 2266 
Q 2828 2175 2409 1742 
Q 1991 1309 1228 531 
z
" transform="scale(0.015625)"/>
        <path id="DejaVuSans-30" d="M 2034 4250 
Q 1547 4250 1301 3770 
Q 1056 3291 1056 2328 
Q 1056 1369 1301 889 
Q 1547 409 2034 409 
Q 2525 409 2770 889 
Q 3016 1369 3016 2328 
Q 3016 3291 2770 3770 
Q 2525 4250 2034 4250 
z
M 2034 4750 
Q 2819 4750 3233 4129 
Q 3647 3509 3647 2328 
Q 3647 1150 3233 529 
Q 2819 -91 2034 -91 
Q 1250 -91 836 529 
Q 422 1150 422 2328 
Q 422 3509 836 4129 
Q 1250 4750 2034 4750 
z
" transform="scale(0.015625)"/>
        <path id="DejaVuSans-2d" d="M 313 2009 
L 1997 2009 
L 1997 1497 
L 313 1497 
L 313 2009 
z
" transform="scale(0.015625)"/>
        <path id="DejaVuSans-33" d="M 2597 2516 
Q 3050 2419 3304 2112 
Q 3559 1806 3559 1356 
Q 3559 666 3084 287 
Q 2609 -91 1734 -91 
Q 1441 -91 1130 -33 
Q 819 25 488 141 
L 488 750 
Q 750 597 1062 519 
Q 1375 441 1716 441 
Q 2309 441 2620 675 
Q 2931 909 2931 1356 
Q 2931 1769 2642 2001 
Q 2353 2234 1838 2234 
L 1294 2234 
L 1294 2753 
L 1863 2753 
Q 2328 2753 2575 2939 
Q 2822 3125 2822 3475 
Q 2822 3834 2567 4026 
Q 2313 4219 1838 4219 
Q 1578 4219 1281 4162 
Q 984 4106 628 3988 
L 628 4550 
Q 988 4650 1302 4700 
Q 1616 4750 1894 4750 
Q 2613 4750 3031 4423 
Q 3450 4097 3450 3541 
Q 3450 3153 3228 2886 
Q 3006 2619 2597 2516 
z
" transform="scale(0.015625)"/>
        <path id="DejaVuSans-31" d="M 794 531 
L 1825 531 
L 1825 4091 
L 703 3866 
L 703 4441 
L 1819 4666 
L 2450 4666 
L 2450 531 
L 3481 531 
L 3481 0 
L 794 0 
L 794 531 
z
" transform="scale(0.015625)"/>
       </defs>
       <use xlink:href="#DejaVuSans-32"/>
       <use xlink:href="#DejaVuSans-30" x="63.623047"/>
       <use xlink:href="#DejaVuSans-32" x="127.246094"/>
       <use xlink:href="#DejaVuSans-32" x="190.869141"/>
       <use xlink:href="#DejaVuSans-2d" x="254.492188"/>
       <use xlink:href="#DejaVuSans-30" x="290.576172"/>
       <use xlink:href="#DejaVuSans-33" x="354.199219"/>
       <use xlink:href="#DejaVuSans-2d" x="417.822266"/>
       <use xlink:href="#DejaVuSans-30" x="453.90625"/>
       <use xlink:href="#DejaVuSans-31" x="517.529297"/>
      </g>
     </g>
    </g>
    <g id="xtick_2">
     <g id="line2d_2">
      <g>
       <use xlink:href="#mb7d4879849" x="160.235816" y="395.28" style="stroke: #000000; stroke-width: 0.8"/>
      </g>
     </g>
     <g id="text_2">
      <!-- 2022-03-29 -->
      <g transform="translate(75.106789 495.213718) rotate(-45) scale(0.2 -0.2)">
       <defs>
        <path id="DejaVuSans-39" d="M 703 97 
L 703 672 
Q 941 559 1184 500 
Q 1428 441 1663 441 
Q 2288 441 2617 861 
Q 2947 1281 2994 2138 
Q 2813 1869 2534 1725 
Q 2256 1581 1919 1581 
Q 1219 1581 811 2004 
Q 403 2428 403 3163 
Q 403 3881 828 4315 
Q 1253 4750 1959 4750 
Q 2769 4750 3195 4129 
Q 3622 3509 3622 2328 
Q 3622 1225 3098 567 
Q 2575 -91 1691 -91 
Q 1453 -91 1209 -44 
Q 966 3 703 97 
z
M 1959 2075 
Q 2384 2075 2632 2365 
Q 2881 2656 2881 3163 
Q 2881 3666 2632 3958 
Q 2384 4250 1959 4250 
Q 1534 4250 1286 3958 
Q 1038 3666 1038 3163 
Q 1038 2656 1286 2365 
Q 1534 2075 1959 2075 
z
" transform="scale(0.015625)"/>
       </defs>
       <use xlink:href="#DejaVuSans-32"/>
       <use xlink:href="#DejaVuSans-30" x="63.623047"/>
       <use xlink:href="#DejaVuSans-32" x="127.246094"/>
       <use xlink:href="#DejaVuSans-32" x="190.869141"/>
       <use xlink:href="#DejaVuSans-2d" x="254.492188"/>
       <use xlink:href="#DejaVuSans-30" x="290.576172"/>
       <use xlink:href="#DejaVuSans-33" x="354.199219"/>
       <use xlink:href="#DejaVuSans-2d" x="417.822266"/>
       <use xlink:href="#DejaVuSans-32" x="453.90625"/>
       <use xlink:href="#DejaVuSans-39" x="517.529297"/>
      </g>
     </g>
    </g>
    <g id="xtick_3">
     <g id="line2d_3">
      <g>
       <use xlink:href="#mb7d4879849" x="217.396792" y="395.28" style="stroke: #000000; stroke-width: 0.8"/>
      </g>
     </g>
     <g id="text_3">
      <!-- 2022-04-26 -->
      <g transform="translate(132.267765 495.213718) rotate(-45) scale(0.2 -0.2)">
       <defs>
        <path id="DejaVuSans-34" d="M 2419 4116 
L 825 1625 
L 2419 1625 
L 2419 4116 
z
M 2253 4666 
L 3047 4666 
L 3047 1625 
L 3713 1625 
L 3713 1100 
L 3047 1100 
L 3047 0 
L 2419 0 
L 2419 1100 
L 313 1100 
L 313 1709 
L 2253 4666 
z
" transform="scale(0.015625)"/>
        <path id="DejaVuSans-36" d="M 2113 2584 
Q 1688 2584 1439 2293 
Q 1191 2003 1191 1497 
Q 1191 994 1439 701 
Q 1688 409 2113 409 
Q 2538 409 2786 701 
Q 3034 994 3034 1497 
Q 3034 2003 2786 2293 
Q 2538 2584 2113 2584 
z
M 3366 4563 
L 3366 3988 
Q 3128 4100 2886 4159 
Q 2644 4219 2406 4219 
Q 1781 4219 1451 3797 
Q 1122 3375 1075 2522 
Q 1259 2794 1537 2939 
Q 1816 3084 2150 3084 
Q 2853 3084 3261 2657 
Q 3669 2231 3669 1497 
Q 3669 778 3244 343 
Q 2819 -91 2113 -91 
Q 1303 -91 875 529 
Q 447 1150 447 2328 
Q 447 3434 972 4092 
Q 1497 4750 2381 4750 
Q 2619 4750 2861 4703 
Q 3103 4656 3366 4563 
z
" transform="scale(0.015625)"/>
       </defs>
       <use xlink:href="#DejaVuSans-32"/>
       <use xlink:href="#DejaVuSans-30" x="63.623047"/>
       <use xlink:href="#DejaVuSans-32" x="127.246094"/>
       <use xlink:href="#DejaVuSans-32" x="190.869141"/>
       <use xlink:href="#DejaVuSans-2d" x="254.492188"/>
       <use xlink:href="#DejaVuSans-30" x="290.576172"/>
       <use xlink:href="#DejaVuSans-34" x="354.199219"/>
       <use xlink:href="#DejaVuSans-2d" x="417.822266"/>
       <use xlink:href="#DejaVuSans-32" x="453.90625"/>
       <use xlink:href="#DejaVuSans-36" x="517.529297"/>
      </g>
     </g>
    </g>
    <g id="xtick_4">
     <g id="line2d_4">
      <g>
       <use xlink:href="#mb7d4879849" x="274.557768" y="395.28" style="stroke: #000000; stroke-width: 0.8"/>
      </g>
     </g>
     <g id="text_4">
      <!-- 2022-05-24 -->
      <g transform="translate(189.42874 495.213718) rotate(-45) scale(0.2 -0.2)">
       <defs>
        <path id="DejaVuSans-35" d="M 691 4666 
L 3169 4666 
L 3169 4134 
L 1269 4134 
L 1269 2991 
Q 1406 3038 1543 3061 
Q 1681 3084 1819 3084 
Q 2600 3084 3056 2656 
Q 3513 2228 3513 1497 
Q 3513 744 3044 326 
Q 2575 -91 1722 -91 
Q 1428 -91 1123 -41 
Q 819 9 494 109 
L 494 744 
Q 775 591 1075 516 
Q 1375 441 1709 441 
Q 2250 441 2565 725 
Q 2881 1009 2881 1497 
Q 2881 1984 2565 2268 
Q 2250 2553 1709 2553 
Q 1456 2553 1204 2497 
Q 953 2441 691 2322 
L 691 4666 
z
" transform="scale(0.015625)"/>
       </defs>
       <use xlink:href="#DejaVuSans-32"/>
       <use xlink:href="#DejaVuSans-30" x="63.623047"/>
       <use xlink:href="#DejaVuSans-32" x="127.246094"/>
       <use xlink:href="#DejaVuSans-32" x="190.869141"/>
       <use xlink:href="#DejaVuSans-2d" x="254.492188"/>
       <use xlink:href="#DejaVuSans-30" x="290.576172"/>
       <use xlink:href="#DejaVuSans-35" x="354.199219"/>
       <use xlink:href="#DejaVuSans-2d" x="417.822266"/>
       <use xlink:href="#DejaVuSans-32" x="453.90625"/>
       <use xlink:href="#DejaVuSans-34" x="517.529297"/>
      </g>
     </g>
    </g>
    <g id="xtick_5">
     <g id="line2d_5">
      <g>
       <use xlink:href="#mb7d4879849" x="331.718743" y="395.28" style="stroke: #000000; stroke-width: 0.8"/>
      </g>
     </g>
     <g id="text_5">
      <!-- 2022-06-21 -->
      <g transform="translate(246.589716 495.213718) rotate(-45) scale(0.2 -0.2)">
       <use xlink:href="#DejaVuSans-32"/>
       <use xlink:href="#DejaVuSans-30" x="63.623047"/>
       <use xlink:href="#DejaVuSans-32" x="127.246094"/>
       <use xlink:href="#DejaVuSans-32" x="190.869141"/>
       <use xlink:href="#DejaVuSans-2d" x="254.492188"/>
       <use xlink:href="#DejaVuSans-30" x="290.576172"/>
       <use xlink:href="#DejaVuSans-36" x="354.199219"/>
       <use xlink:href="#DejaVuSans-2d" x="417.822266"/>
       <use xlink:href="#DejaVuSans-32" x="453.90625"/>
       <use xlink:href="#DejaVuSans-31" x="517.529297"/>
      </g>
     </g>
    </g>
    <g id="xtick_6">
     <g id="line2d_6">
      <g>
       <use xlink:href="#mb7d4879849" x="388.879719" y="395.28" style="stroke: #000000; stroke-width: 0.8"/>
      </g>
     </g>
     <g id="text_6">
      <!-- 2022-07-19 -->
      <g transform="translate(303.750691 495.213718) rotate(-45) scale(0.2 -0.2)">
       <defs>
        <path id="DejaVuSans-37" d="M 525 4666 
L 3525 4666 
L 3525 4397 
L 1831 0 
L 1172 0 
L 2766 4134 
L 525 4134 
L 525 4666 
z
" transform="scale(0.015625)"/>
       </defs>
       <use xlink:href="#DejaVuSans-32"/>
       <use xlink:href="#DejaVuSans-30" x="63.623047"/>
       <use xlink:href="#DejaVuSans-32" x="127.246094"/>
       <use xlink:href="#DejaVuSans-32" x="190.869141"/>
       <use xlink:href="#DejaVuSans-2d" x="254.492188"/>
       <use xlink:href="#DejaVuSans-30" x="290.576172"/>
       <use xlink:href="#DejaVuSans-37" x="354.199219"/>
       <use xlink:href="#DejaVuSans-2d" x="417.822266"/>
       <use xlink:href="#DejaVuSans-31" x="453.90625"/>
       <use xlink:href="#DejaVuSans-39" x="517.529297"/>
      </g>
     </g>
    </g>
    <g id="xtick_7">
     <g id="line2d_7">
      <g>
       <use xlink:href="#mb7d4879849" x="446.040694" y="395.28" style="stroke: #000000; stroke-width: 0.8"/>
      </g>
     </g>
     <g id="text_7">
      <!-- 2022-08-16 -->
      <g transform="translate(360.911667 495.213718) rotate(-45) scale(0.2 -0.2)">
       <defs>
        <path id="DejaVuSans-38" d="M 2034 2216 
Q 1584 2216 1326 1975 
Q 1069 1734 1069 1313 
Q 1069 891 1326 650 
Q 1584 409 2034 409 
Q 2484 409 2743 651 
Q 3003 894 3003 1313 
Q 3003 1734 2745 1975 
Q 2488 2216 2034 2216 
z
M 1403 2484 
Q 997 2584 770 2862 
Q 544 3141 544 3541 
Q 544 4100 942 4425 
Q 1341 4750 2034 4750 
Q 2731 4750 3128 4425 
Q 3525 4100 3525 3541 
Q 3525 3141 3298 2862 
Q 3072 2584 2669 2484 
Q 3125 2378 3379 2068 
Q 3634 1759 3634 1313 
Q 3634 634 3220 271 
Q 2806 -91 2034 -91 
Q 1263 -91 848 271 
Q 434 634 434 1313 
Q 434 1759 690 2068 
Q 947 2378 1403 2484 
z
M 1172 3481 
Q 1172 3119 1398 2916 
Q 1625 2713 2034 2713 
Q 2441 2713 2670 2916 
Q 2900 3119 2900 3481 
Q 2900 3844 2670 4047 
Q 2441 4250 2034 4250 
Q 1625 4250 1398 4047 
Q 1172 3844 1172 3481 
z
" transform="scale(0.015625)"/>
       </defs>
       <use xlink:href="#DejaVuSans-32"/>
       <use xlink:href="#DejaVuSans-30" x="63.623047"/>
       <use xlink:href="#DejaVuSans-32" x="127.246094"/>
       <use xlink:href="#DejaVuSans-32" x="190.869141"/>
       <use xlink:href="#DejaVuSans-2d" x="254.492188"/>
       <use xlink:href="#DejaVuSans-30" x="290.576172"/>
       <use xlink:href="#DejaVuSans-38" x="354.199219"/>
       <use xlink:href="#DejaVuSans-2d" x="417.822266"/>
       <use xlink:href="#DejaVuSans-31" x="453.90625"/>
       <use xlink:href="#DejaVuSans-36" x="517.529297"/>
      </g>
     </g>
    </g>
    <g id="xtick_8">
     <g id="line2d_8">
      <g>
       <use xlink:href="#mb7d4879849" x="503.20167" y="395.28" style="stroke: #000000; stroke-width: 0.8"/>
      </g>
     </g>
     <g id="text_8">
      <!-- 2022-09-13 -->
      <g transform="translate(418.072643 495.213718) rotate(-45) scale(0.2 -0.2)">
       <use xlink:href="#DejaVuSans-32"/>
       <use xlink:href="#DejaVuSans-30" x="63.623047"/>
       <use xlink:href="#DejaVuSans-32" x="127.246094"/>
       <use xlink:href="#DejaVuSans-32" x="190.869141"/>
       <use xlink:href="#DejaVuSans-2d" x="254.492188"/>
       <use xlink:href="#DejaVuSans-30" x="290.576172"/>
       <use xlink:href="#DejaVuSans-39" x="354.199219"/>
       <use xlink:href="#DejaVuSans-2d" x="417.822266"/>
       <use xlink:href="#DejaVuSans-31" x="453.90625"/>
       <use xlink:href="#DejaVuSans-33" x="517.529297"/>
      </g>
     </g>
    </g>
    <g id="xtick_9">
     <g id="line2d_9">
      <g>
       <use xlink:href="#mb7d4879849" x="560.362646" y="395.28" style="stroke: #000000; stroke-width: 0.8"/>
      </g>
     </g>
     <g id="text_9">
      <!-- 2022-10-11 -->
      <g transform="translate(475.233618 495.213718) rotate(-45) scale(0.2 -0.2)">
       <use xlink:href="#DejaVuSans-32"/>
       <use xlink:href="#DejaVuSans-30" x="63.623047"/>
       <use xlink:href="#DejaVuSans-32" x="127.246094"/>
       <use xlink:href="#DejaVuSans-32" x="190.869141"/>
       <use xlink:href="#DejaVuSans-2d" x="254.492188"/>
       <use xlink:href="#DejaVuSans-31" x="290.576172"/>
       <use xlink:href="#DejaVuSans-30" x="354.199219"/>
       <use xlink:href="#DejaVuSans-2d" x="417.822266"/>
       <use xlink:href="#DejaVuSans-31" x="453.90625"/>
       <use xlink:href="#DejaVuSans-31" x="517.529297"/>
      </g>
     </g>
    </g>
    <g id="xtick_10">
     <g id="line2d_10">
      <g>
       <use xlink:href="#mb7d4879849" x="617.523621" y="395.28" style="stroke: #000000; stroke-width: 0.8"/>
      </g>
     </g>
     <g id="text_10">
      <!-- 2022-11-08 -->
      <g transform="translate(532.394594 495.213718) rotate(-45) scale(0.2 -0.2)">
       <use xlink:href="#DejaVuSans-32"/>
       <use xlink:href="#DejaVuSans-30" x="63.623047"/>
       <use xlink:href="#DejaVuSans-32" x="127.246094"/>
       <use xlink:href="#DejaVuSans-32" x="190.869141"/>
       <use xlink:href="#DejaVuSans-2d" x="254.492188"/>
       <use xlink:href="#DejaVuSans-31" x="290.576172"/>
       <use xlink:href="#DejaVuSans-31" x="354.199219"/>
       <use xlink:href="#DejaVuSans-2d" x="417.822266"/>
       <use xlink:href="#DejaVuSans-30" x="453.90625"/>
       <use xlink:href="#DejaVuSans-38" x="517.529297"/>
      </g>
     </g>
    </g>
    <g id="xtick_11">
     <g id="line2d_11">
      <g>
       <use xlink:href="#mb7d4879849" x="674.684597" y="395.28" style="stroke: #000000; stroke-width: 0.8"/>
      </g>
     </g>
     <g id="text_11">
      <!-- 2022-12-06 -->
      <g transform="translate(589.555569 495.213718) rotate(-45) scale(0.2 -0.2)">
       <use xlink:href="#DejaVuSans-32"/>
       <use xlink:href="#DejaVuSans-30" x="63.623047"/>
       <use xlink:href="#DejaVuSans-32" x="127.246094"/>
       <use xlink:href="#DejaVuSans-32" x="190.869141"/>
       <use xlink:href="#DejaVuSans-2d" x="254.492188"/>
       <use xlink:href="#DejaVuSans-31" x="290.576172"/>
       <use xlink:href="#DejaVuSans-32" x="354.199219"/>
       <use xlink:href="#DejaVuSans-2d" x="417.822266"/>
       <use xlink:href="#DejaVuSans-30" x="453.90625"/>
       <use xlink:href="#DejaVuSans-36" x="517.529297"/>
      </g>
     </g>
    </g>
    <g id="xtick_12">
     <g id="line2d_12">
      <g>
       <use xlink:href="#mb7d4879849" x="731.845572" y="395.28" style="stroke: #000000; stroke-width: 0.8"/>
      </g>
     </g>
     <g id="text_12">
      <!-- 2023-01-03 -->
      <g transform="translate(646.716545 495.213718) rotate(-45) scale(0.2 -0.2)">
       <use xlink:href="#DejaVuSans-32"/>
       <use xlink:href="#DejaVuSans-30" x="63.623047"/>
       <use xlink:href="#DejaVuSans-32" x="127.246094"/>
       <use xlink:href="#DejaVuSans-33" x="190.869141"/>
       <use xlink:href="#DejaVuSans-2d" x="254.492188"/>
       <use xlink:href="#DejaVuSans-30" x="290.576172"/>
       <use xlink:href="#DejaVuSans-31" x="354.199219"/>
       <use xlink:href="#DejaVuSans-2d" x="417.822266"/>
       <use xlink:href="#DejaVuSans-30" x="453.90625"/>
       <use xlink:href="#DejaVuSans-33" x="517.529297"/>
      </g>
     </g>
    </g>
    <g id="xtick_13">
     <g id="line2d_13">
      <g>
       <use xlink:href="#mb7d4879849" x="789.006548" y="395.28" style="stroke: #000000; stroke-width: 0.8"/>
      </g>
     </g>
     <g id="text_13">
      <!-- 2023-01-31 -->
      <g transform="translate(703.877521 495.213718) rotate(-45) scale(0.2 -0.2)">
       <use xlink:href="#DejaVuSans-32"/>
       <use xlink:href="#DejaVuSans-30" x="63.623047"/>
       <use xlink:href="#DejaVuSans-32" x="127.246094"/>
       <use xlink:href="#DejaVuSans-33" x="190.869141"/>
       <use xlink:href="#DejaVuSans-2d" x="254.492188"/>
       <use xlink:href="#DejaVuSans-30" x="290.576172"/>
       <use xlink:href="#DejaVuSans-31" x="354.199219"/>
       <use xlink:href="#DejaVuSans-2d" x="417.822266"/>
       <use xlink:href="#DejaVuSans-33" x="453.90625"/>
       <use xlink:href="#DejaVuSans-31" x="517.529297"/>
      </g>
     </g>
    </g>
    <g id="xtick_14">
     <g id="line2d_14">
      <g>
       <use xlink:href="#mb7d4879849" x="846.167524" y="395.28" style="stroke: #000000; stroke-width: 0.8"/>
      </g>
     </g>
     <g id="text_14">
      <!-- 2023-02-28 -->
      <g transform="translate(761.038496 495.213718) rotate(-45) scale(0.2 -0.2)">
       <use xlink:href="#DejaVuSans-32"/>
       <use xlink:href="#DejaVuSans-30" x="63.623047"/>
       <use xlink:href="#DejaVuSans-32" x="127.246094"/>
       <use xlink:href="#DejaVuSans-33" x="190.869141"/>
       <use xlink:href="#DejaVuSans-2d" x="254.492188"/>
       <use xlink:href="#DejaVuSans-30" x="290.576172"/>
       <use xlink:href="#DejaVuSans-32" x="354.199219"/>
       <use xlink:href="#DejaVuSans-2d" x="417.822266"/>
       <use xlink:href="#DejaVuSans-32" x="453.90625"/>
       <use xlink:href="#DejaVuSans-38" x="517.529297"/>
      </g>
     </g>
    </g>
    <g id="xtick_15">
     <g id="line2d_15">
      <g>
       <use xlink:href="#mb7d4879849" x="903.328499" y="395.28" style="stroke: #000000; stroke-width: 0.8"/>
      </g>
     </g>
     <g id="text_15">
      <!-- 2023-03-28 -->
      <g transform="translate(818.199472 495.213718) rotate(-45) scale(0.2 -0.2)">
       <use xlink:href="#DejaVuSans-32"/>
       <use xlink:href="#DejaVuSans-30" x="63.623047"/>
       <use xlink:href="#DejaVuSans-32" x="127.246094"/>
       <use xlink:href="#DejaVuSans-33" x="190.869141"/>
       <use xlink:href="#DejaVuSans-2d" x="254.492188"/>
       <use xlink:href="#DejaVuSans-30" x="290.576172"/>
       <use xlink:href="#DejaVuSans-33" x="354.199219"/>
       <use xlink:href="#DejaVuSans-2d" x="417.822266"/>
       <use xlink:href="#DejaVuSans-32" x="453.90625"/>
       <use xlink:href="#DejaVuSans-38" x="517.529297"/>
      </g>
     </g>
    </g>
    <g id="xtick_16">
     <g id="line2d_16">
      <g>
       <use xlink:href="#mb7d4879849" x="940.074841" y="395.28" style="stroke: #000000; stroke-width: 0.8"/>
      </g>
     </g>
     <g id="text_16">
      <!-- 2023-04-15 -->
      <g transform="translate(854.945813 495.213718) rotate(-45) scale(0.2 -0.2)">
       <use xlink:href="#DejaVuSans-32"/>
       <use xlink:href="#DejaVuSans-30" x="63.623047"/>
       <use xlink:href="#DejaVuSans-32" x="127.246094"/>
       <use xlink:href="#DejaVuSans-33" x="190.869141"/>
       <use xlink:href="#DejaVuSans-2d" x="254.492188"/>
       <use xlink:href="#DejaVuSans-30" x="290.576172"/>
       <use xlink:href="#DejaVuSans-34" x="354.199219"/>
       <use xlink:href="#DejaVuSans-2d" x="417.822266"/>
       <use xlink:href="#DejaVuSans-31" x="453.90625"/>
       <use xlink:href="#DejaVuSans-35" x="517.529297"/>
      </g>
     </g>
    </g>
   </g>
   <g id="matplotlib.axis_2">
    <g id="ytick_1">
     <g id="line2d_17">
      <defs>
       <path id="md3b80425de" d="M 0 0 
L -3.5 0 
" style="stroke: #000000; stroke-width: 0.8"/>
      </defs>
      <g>
       <use xlink:href="#md3b80425de" x="103.074841" y="377.64" style="stroke: #000000; stroke-width: 0.8"/>
      </g>
     </g>
     <g id="text_17">
      <!-- 0.00 -->
      <g transform="translate(51.543591 385.238437) scale(0.2 -0.2)">
       <defs>
        <path id="DejaVuSans-2e" d="M 684 794 
L 1344 794 
L 1344 0 
L 684 0 
L 684 794 
z
" transform="scale(0.015625)"/>
       </defs>
       <use xlink:href="#DejaVuSans-30"/>
       <use xlink:href="#DejaVuSans-2e" x="63.623047"/>
       <use xlink:href="#DejaVuSans-30" x="95.410156"/>
       <use xlink:href="#DejaVuSans-30" x="159.033203"/>
      </g>
     </g>
    </g>
    <g id="ytick_2">
     <g id="line2d_18">
      <g>
       <use xlink:href="#md3b80425de" x="103.074841" y="295.006759" style="stroke: #000000; stroke-width: 0.8"/>
      </g>
     </g>
     <g id="text_18">
      <!-- 0.05 -->
      <g transform="translate(51.543591 302.605196) scale(0.2 -0.2)">
       <use xlink:href="#DejaVuSans-30"/>
       <use xlink:href="#DejaVuSans-2e" x="63.623047"/>
       <use xlink:href="#DejaVuSans-30" x="95.410156"/>
       <use xlink:href="#DejaVuSans-35" x="159.033203"/>
      </g>
     </g>
    </g>
    <g id="ytick_3">
     <g id="line2d_19">
      <g>
       <use xlink:href="#md3b80425de" x="103.074841" y="212.373517" style="stroke: #000000; stroke-width: 0.8"/>
      </g>
     </g>
     <g id="text_19">
      <!-- 0.10 -->
      <g transform="translate(51.543591 219.971955) scale(0.2 -0.2)">
       <use xlink:href="#DejaVuSans-30"/>
       <use xlink:href="#DejaVuSans-2e" x="63.623047"/>
       <use xlink:href="#DejaVuSans-31" x="95.410156"/>
       <use xlink:href="#DejaVuSans-30" x="159.033203"/>
      </g>
     </g>
    </g>
    <g id="ytick_4">
     <g id="line2d_20">
      <g>
       <use xlink:href="#md3b80425de" x="103.074841" y="129.740276" style="stroke: #000000; stroke-width: 0.8"/>
      </g>
     </g>
     <g id="text_20">
      <!-- 0.15 -->
      <g transform="translate(51.543591 137.338713) scale(0.2 -0.2)">
       <use xlink:href="#DejaVuSans-30"/>
       <use xlink:href="#DejaVuSans-2e" x="63.623047"/>
       <use xlink:href="#DejaVuSans-31" x="95.410156"/>
       <use xlink:href="#DejaVuSans-35" x="159.033203"/>
      </g>
     </g>
    </g>
    <g id="ytick_5">
     <g id="line2d_21">
      <g>
       <use xlink:href="#md3b80425de" x="103.074841" y="47.107034" style="stroke: #000000; stroke-width: 0.8"/>
      </g>
     </g>
     <g id="text_21">
      <!-- 0.20 -->
      <g transform="translate(51.543591 54.705472) scale(0.2 -0.2)">
       <use xlink:href="#DejaVuSans-30"/>
       <use xlink:href="#DejaVuSans-2e" x="63.623047"/>
       <use xlink:href="#DejaVuSans-32" x="95.410156"/>
       <use xlink:href="#DejaVuSans-30" x="159.033203"/>
      </g>
     </g>
    </g>
   </g>
   <g id="line2d_22">
    <path d="M 940.074841 377.64 
" clip-path="url(#p5e292747fa)" style="fill: none; stroke: #ffa500; stroke-width: 1.5; stroke-linecap: square"/>
   </g>
   <g id="line2d_23">
    <path d="M 103.074841 377.64 
L 948.274841 377.64 
" clip-path="url(#p5e292747fa)" style="fill: none; stroke-dasharray: 7.4,3.2; stroke-dashoffset: 0; stroke: #000000; stroke-width: 2"/>
   </g>
   <g id="patch_3">
    <path d="M 103.074841 395.28 
L 103.074841 7.2 
" style="fill: none; stroke: #000000; stroke-width: 0.8; stroke-linejoin: miter; stroke-linecap: square"/>
   </g>
   <g id="patch_4">
    <path d="M 940.074841 395.28 
L 940.074841 7.2 
" style="fill: none; stroke: #000000; stroke-width: 0.8; stroke-linejoin: miter; stroke-linecap: square"/>
   </g>
   <g id="patch_5">
    <path d="M 103.074841 395.28 
L 940.074841 395.28 
" style="fill: none; stroke: #000000; stroke-width: 0.8; stroke-linejoin: miter; stroke-linecap: square"/>
   </g>
   <g id="patch_6">
    <path d="M 103.074841 7.2 
L 940.074841 7.2 
" style="fill: none; stroke: #000000; stroke-width: 0.8; stroke-linejoin: miter; stroke-linecap: square"/>
   </g>
  </g>
 </g>
 <defs>
  <clipPath id="p5e292747fa">
   <rect x="103.074841" y="7.2" width="837" height="388.08"/>
  </clipPath>
 </defs>
</svg>
