<?xml version="1.0" encoding="utf-8" standalone="no"?>
<!DOCTYPE svg PUBLIC "-//W3C//DTD SVG 1.1//EN"
  "http://www.w3.org/Graphics/SVG/1.1/DTD/svg11.dtd">
<svg xmlns:xlink="http://www.w3.org/1999/xlink" width="947.274841pt" height="509.128048pt" viewBox="0 0 947.274841 509.128048" xmlns="http://www.w3.org/2000/svg" version="1.1">
 <metadata>
  <rdf:RDF xmlns:dc="http://purl.org/dc/elements/1.1/" xmlns:cc="http://creativecommons.org/ns#" xmlns:rdf="http://www.w3.org/1999/02/22-rdf-syntax-ns#">
   <cc:Work>
    <dc:type rdf:resource="http://purl.org/dc/dcmitype/StillImage"/>
    <dc:date>2023-11-15T19:56:32.907523</dc:date>
    <dc:format>image/svg+xml</dc:format>
    <dc:creator>
     <cc:Agent>
      <dc:title>Matplotlib v3.7.2, https://matplotlib.org/</dc:title>
     </cc:Agent>
    </dc:creator>
   </cc:Work>
  </rdf:RDF>
 </metadata>
 <defs>
  <style type="text/css">*{stroke-linejoin: round; stroke-linecap: butt}</style>
 </defs>
 <g id="figure_1">
  <g id="patch_1">
   <path d="M 0 509.128048 
L 947.274841 509.128048 
L 947.274841 0 
L 0 0 
z
" style="fill: #ffffff"/>
  </g>
  <g id="axes_1">
   <g id="patch_2">
    <path d="M 103.074841 399.053207 
L 940.074841 399.053207 
L 940.074841 10.973207 
L 103.074841 10.973207 
z
" style="fill: #ffffff"/>
   </g>
   <g id="PolyCollection_1">
    <path d="M -393.000769 163.282437 
L -393.000769 163.303966 
L -390.959306 163.176845 
L -388.917842 163.069949 
L -386.876379 162.947825 
L -384.834915 162.87299 
L -382.793452 162.781183 
L -380.751989 162.674302 
L -378.710525 162.569222 
L -376.669062 162.47219 
L -374.627598 162.390185 
L -372.586135 162.292127 
L -370.544672 162.188735 
L -368.503208 162.089465 
L -366.461745 161.962731 
L -364.420281 161.861684 
L -362.378818 161.739077 
L -360.337354 161.637779 
L -358.295891 161.493297 
L -356.254428 161.378973 
L -354.212964 161.270157 
L -352.171501 161.137564 
L -350.130037 161.009536 
L -348.088574 160.885579 
L -346.047111 160.731438 
L -344.005647 160.600857 
L -341.964184 160.44426 
L -339.92272 160.286403 
L -337.881257 160.109903 
L -335.839793 159.929025 
L -333.79833 159.754367 
L -331.756867 159.548786 
L -329.715403 159.313969 
L -327.67394 159.111044 
L -325.632476 158.877039 
L -323.591013 158.606078 
L -321.54955 158.359414 
L -319.508086 158.064731 
L -317.466623 157.767708 
L -315.425159 157.463086 
L -313.383696 157.141267 
L -311.342232 156.781511 
L -309.300769 156.397838 
L -307.259306 155.990876 
L -305.217842 155.604977 
L -303.176379 155.142505 
L -301.134915 154.710425 
L -299.093452 154.248598 
L -297.051989 153.788504 
L -295.010525 153.289929 
L -292.969062 152.746307 
L -290.927598 152.253364 
L -288.886135 151.696329 
L -286.844672 151.119577 
L -284.803208 150.559384 
L -282.761745 150.009056 
L -280.720281 149.404964 
L -278.678818 148.79551 
L -276.637354 148.189479 
L -274.595891 147.556274 
L -272.554428 146.916707 
L -270.512964 146.280731 
L -268.471501 145.620529 
L -266.430037 144.960261 
L -264.388574 144.313911 
L -262.347111 143.637129 
L -260.305647 142.905124 
L -258.264184 142.200921 
L -256.22272 141.499571 
L -254.181257 140.811873 
L -252.139793 140.090493 
L -250.09833 139.388849 
L -248.056867 138.67249 
L -246.015403 138.038021 
L -243.97394 137.26667 
L -241.932476 136.614134 
L -239.891013 135.885677 
L -237.84955 135.196681 
L -235.808086 134.465776 
L -233.766623 133.819408 
L -231.725159 133.077084 
L -229.683696 132.385672 
L -227.642232 131.739195 
L -225.600769 131.02443 
L -223.559306 130.367589 
L -221.517842 129.677161 
L -219.476379 128.970067 
L -217.434915 128.291436 
L -215.393452 127.636726 
L -213.351989 126.931242 
L -211.310525 126.25673 
L -209.269062 125.5628 
L -207.227598 124.880231 
L -205.186135 124.228701 
L -203.144672 123.558316 
L -201.103208 122.879028 
L -199.061745 122.277623 
L -197.020281 121.57994 
L -194.978818 120.914762 
L -192.937354 120.260819 
L -190.895891 119.604569 
L -188.854428 118.948937 
L -186.812964 118.282112 
L -184.771501 117.649601 
L -182.730037 116.986311 
L -180.688574 116.303066 
L -178.647111 115.610275 
L -176.605647 114.908289 
L -174.564184 114.256601 
L -172.52272 113.529702 
L -170.481257 112.748568 
L -168.439793 112.020824 
L -166.39833 111.248619 
L -164.356867 110.463849 
L -162.315403 109.630842 
L -160.27394 108.782218 
L -158.232476 108.001474 
L -156.191013 107.098415 
L -154.14955 106.246152 
L -152.108086 105.322798 
L -150.066623 104.484587 
L -148.025159 103.482951 
L -145.983696 102.505093 
L -143.942232 101.558904 
L -141.900769 100.595775 
L -139.859306 99.601124 
L -137.817842 98.558496 
L -135.776379 97.59012 
L -133.734915 96.466795 
L -131.693452 95.494427 
L -129.651989 94.338383 
L -127.610525 93.223732 
L -125.569062 92.140142 
L -123.527598 91.107657 
L -121.486135 89.884383 
L -119.444672 88.793715 
L -117.403208 87.374878 
L -115.361745 86.174748 
L -113.320281 85.068166 
L -111.278818 83.804293 
L -109.237354 82.507629 
L -107.195891 80.996778 
L -105.154428 79.594119 
L -103.112964 78.452207 
L -101.071501 76.561445 
L -99.030037 75.07888 
L -96.988574 73.566043 
L -94.947111 71.997361 
L -92.905647 70.19433 
L -90.864184 68.516751 
L -88.82272 67.303693 
L -86.781257 65.714101 
L -84.739793 62.985818 
L -82.69833 60.733096 
L -80.656867 59.13321 
L -78.615403 56.842154 
L -76.57394 54.989645 
L -74.532476 53.417459 
L -72.491013 50.91228 
L -70.44955 48.034679 
L -68.408086 46.157099 
L -66.366623 45.060999 
L -64.325159 42.721782 
L -62.283696 41.839969 
L -60.242232 40.255754 
L -58.200769 37.713697 
L -56.159306 37.533331 
L -54.117842 38.355359 
L -52.076379 40.377919 
L -50.034915 37.807907 
L -47.993452 42.523469 
L -45.951989 43.641991 
L -43.910525 36.892789 
L -41.869062 38.635672 
L -39.827598 41.631938 
L -37.786135 40.037119 
L -35.744672 39.867651 
L -33.703208 53.219455 
L -31.661745 72.108473 
L -29.620281 81.60686 
L -27.578818 61.495342 
L -25.537354 72.074227 
L -23.495891 85.873961 
L -21.454428 85.211358 
L -19.412964 113.118393 
L -17.371501 109.448524 
L -15.330037 101.073462 
L -13.288574 80.111727 
L -11.247111 99.993233 
L -9.205647 111.978381 
L -7.164184 107.092912 
L -5.12272 110.283336 
L -3.081257 121.599607 
L -1.039793 120.182195 
L 1.00167 110.590932 
L 3.043133 122.83309 
L 5.084597 125.322247 
L 7.12606 121.060389 
L 9.167524 128.869056 
L 11.208987 131.786849 
L 13.25045 131.141385 
L 15.291914 128.907362 
L 17.333377 131.551489 
L 19.374841 129.081086 
L 21.416304 129.419395 
L 23.457768 131.96766 
L 25.499231 129.853905 
L 27.540694 131.202742 
L 29.582158 131.448272 
L 31.623621 129.779345 
L 33.665085 130.639821 
L 35.706548 128.178193 
L 37.748011 128.565664 
L 39.789475 129.547276 
L 41.830938 129.854575 
L 43.872402 128.842124 
L 45.913865 128.027146 
L 47.955328 128.082073 
L 49.996792 127.196104 
L 52.038255 127.365984 
L 54.079719 127.542136 
L 56.121182 126.118011 
L 58.162646 127.466395 
L 60.204109 126.746753 
L 62.245572 126.748995 
L 64.287036 127.341681 
L 66.328499 126.716012 
L 68.369963 127.026789 
L 70.411426 128.096832 
L 72.452889 129.479672 
L 74.494353 128.238054 
L 76.535816 128.642764 
L 78.57728 128.7408 
L 80.618743 132.971195 
L 82.660207 133.967569 
L 84.70167 136.258363 
L 86.743133 133.975093 
L 88.784597 132.875095 
L 90.82606 134.409956 
L 92.867524 137.637267 
L 94.908987 139.091539 
L 96.95045 136.215091 
L 98.991914 140.61329 
L 101.033377 140.953588 
L 103.074841 141.594376 
L 105.116304 140.978596 
L 107.157768 143.69332 
L 109.199231 144.112901 
L 111.240694 146.312019 
L 113.282158 146.55684 
L 115.323621 147.063148 
L 117.365085 146.846853 
L 119.406548 147.52992 
L 121.448011 148.333519 
L 123.489475 148.902067 
L 125.530938 150.491861 
L 127.572402 151.324416 
L 129.613865 152.166126 
L 131.655328 151.462934 
L 133.696792 151.250161 
L 135.738255 152.259776 
L 137.779719 151.934538 
L 139.821182 153.835051 
L 141.862646 154.313156 
L 143.904109 153.661901 
L 145.945572 153.58808 
L 147.987036 154.133975 
L 150.028499 153.346159 
L 152.069963 154.15173 
L 154.111426 153.940581 
L 156.152889 154.124205 
L 158.194353 153.862772 
L 160.235816 153.470428 
L 162.27728 153.516899 
L 164.318743 153.309968 
L 166.360207 153.523426 
L 168.40167 152.833194 
L 170.443133 152.487402 
L 172.484597 152.007909 
L 174.52606 152.339566 
L 176.567524 151.826777 
L 178.608987 151.712039 
L 180.65045 151.342778 
L 182.691914 149.861441 
L 184.733377 150.474274 
L 186.774841 149.643604 
L 188.816304 149.416219 
L 190.857768 148.998427 
L 192.899231 148.205692 
L 194.940694 147.637617 
L 196.982158 147.251976 
L 199.023621 145.975359 
L 201.065085 146.035932 
L 203.106548 144.936641 
L 205.148011 145.26509 
L 207.189475 144.076714 
L 209.230938 143.077848 
L 211.272402 142.665696 
L 213.313865 142.840952 
L 215.355328 141.304287 
L 217.396792 141.158842 
L 219.438255 140.205939 
L 221.479719 140.000572 
L 223.521182 138.873895 
L 225.562646 138.182378 
L 227.604109 140.894672 
L 229.645572 136.573039 
L 231.687036 138.521002 
L 233.728499 137.381974 
L 235.769963 137.405025 
L 237.811426 136.892951 
L 239.852889 136.201624 
L 241.894353 135.754799 
L 243.935816 135.669537 
L 245.97728 135.777774 
L 248.018743 135.687138 
L 250.060207 141.203604 
L 252.10167 134.918214 
L 254.143133 136.065753 
L 256.184597 145.680664 
L 258.22606 138.110963 
L 260.267524 142.404318 
L 262.308987 143.950833 
L 264.35045 140.817469 
L 266.391914 144.396758 
L 268.433377 151.511047 
L 270.474841 149.67625 
L 272.516304 150.165004 
L 274.557768 155.598114 
L 276.599231 156.473116 
L 278.640694 160.437071 
L 280.682158 165.517867 
L 282.723621 171.554919 
L 284.765085 185.516857 
L 286.806548 183.775223 
L 288.848011 191.565862 
L 290.889475 197.815359 
L 292.930938 201.990938 
L 294.972402 209.704372 
L 297.013865 214.584083 
L 299.055328 207.57794 
L 301.096792 215.921213 
L 303.138255 227.38145 
L 305.179719 233.194079 
L 307.221182 235.05038 
L 309.262646 249.54575 
L 311.304109 251.184747 
L 313.345572 254.917376 
L 315.387036 255.223083 
L 317.428499 268.111382 
L 319.469963 264.380984 
L 321.511426 262.908895 
L 323.552889 273.049411 
L 325.594353 282.407082 
L 327.635816 280.917875 
L 329.67728 285.69476 
L 331.718743 287.803319 
L 333.760207 288.286243 
L 335.80167 287.66843 
L 337.843133 290.383723 
L 339.884597 291.893168 
L 341.92606 300.869485 
L 343.967524 295.931963 
L 346.008987 303.820312 
L 348.05045 302.408101 
L 350.091914 301.091414 
L 352.133377 304.768264 
L 354.174841 306.791539 
L 356.216304 303.379224 
L 358.257768 304.8013 
L 360.299231 304.614095 
L 362.340694 309.405159 
L 364.382158 307.514623 
L 366.423621 306.919722 
L 368.465085 307.272965 
L 370.506548 309.788054 
L 372.548011 308.981082 
L 374.589475 307.256026 
L 376.630938 308.322952 
L 378.672402 305.172686 
L 380.713865 305.791783 
L 382.755328 311.386914 
L 384.796792 311.426355 
L 386.838255 309.005239 
L 388.879719 308.013213 
L 390.921182 308.759463 
L 392.962646 305.724234 
L 395.004109 306.929732 
L 397.045572 307.453247 
L 399.087036 307.513047 
L 401.128499 306.263258 
L 403.169963 304.166277 
L 405.211426 306.621129 
L 407.252889 305.379592 
L 409.294353 306.221991 
L 411.335816 305.750567 
L 413.37728 307.088689 
L 415.418743 305.221935 
L 417.460207 302.145494 
L 419.50167 302.445169 
L 421.543133 300.477956 
L 423.584597 296.542603 
L 425.62606 299.716233 
L 427.667524 295.88504 
L 429.708987 298.713188 
L 431.75045 298.397723 
L 433.791914 299.856665 
L 435.833377 297.165371 
L 437.874841 297.669733 
L 439.916304 298.244935 
L 441.957768 293.1029 
L 443.999231 296.252481 
L 446.040694 296.45086 
L 448.082158 297.093227 
L 450.123621 295.988379 
L 452.165085 297.854919 
L 454.206548 296.565848 
L 456.248011 296.283733 
L 458.289475 292.725404 
L 460.330938 292.108045 
L 462.372402 291.495322 
L 464.413865 291.152223 
L 466.455328 292.239285 
L 468.496792 291.854767 
L 470.538255 289.856892 
L 472.579719 290.789795 
L 474.621182 289.542352 
L 476.662646 289.850907 
L 478.704109 289.983943 
L 480.745572 290.887417 
L 482.787036 288.919545 
L 484.828499 283.616058 
L 486.869963 288.822492 
L 488.911426 288.358469 
L 490.952889 287.86352 
L 492.994353 287.194456 
L 495.035816 284.47461 
L 497.07728 284.836392 
L 499.118743 282.983116 
L 501.160207 283.108759 
L 503.20167 282.141653 
L 505.243133 279.453912 
L 507.284597 277.018734 
L 509.32606 281.00585 
L 511.367524 279.96876 
L 513.408987 276.271643 
L 515.45045 277.670569 
L 517.491914 273.113482 
L 519.533377 271.079983 
L 521.574841 272.421368 
L 523.616304 268.941336 
L 525.657768 274.673221 
L 527.699231 268.797081 
L 529.740694 264.362198 
L 531.782158 266.526696 
L 533.823621 267.973126 
L 535.865085 267.008977 
L 537.906548 268.647117 
L 539.948011 264.953731 
L 541.989475 269.520753 
L 544.030938 264.094869 
L 546.072402 263.92007 
L 548.113865 262.10118 
L 550.155328 258.136192 
L 552.196792 261.473048 
L 554.238255 267.732797 
L 556.279719 258.491137 
L 558.321182 259.498436 
L 560.362646 254.562378 
L 562.404109 258.11632 
L 564.445572 253.67617 
L 566.487036 252.005827 
L 568.528499 249.145168 
L 570.569963 252.632365 
L 572.611426 250.391409 
L 574.652889 252.362628 
L 576.694353 250.854962 
L 578.735816 241.147737 
L 580.77728 245.760271 
L 582.818743 241.512052 
L 584.860207 244.453137 
L 586.90167 242.118213 
L 588.943133 246.609193 
L 590.984597 248.436788 
L 593.02606 247.520964 
L 595.067524 255.170098 
L 597.108987 265.743423 
L 599.15045 248.384496 
L 601.191914 248.755257 
L 603.233377 244.343996 
L 605.274841 248.459047 
L 607.316304 248.474935 
L 609.357768 247.231701 
L 611.399231 260.28992 
L 613.440694 258.301924 
L 615.482158 244.867819 
L 617.523621 254.992773 
L 619.565085 250.603757 
L 621.606548 242.944398 
L 623.648011 256.45632 
L 625.689475 253.721871 
L 627.730938 260.168499 
L 629.772402 251.682698 
L 631.813865 248.035422 
L 633.855328 252.501059 
L 635.896792 250.391307 
L 637.938255 256.35998 
L 639.979719 248.863968 
L 642.021182 258.834531 
L 644.062646 251.809255 
L 646.104109 254.356204 
L 648.145572 250.760852 
L 650.187036 254.89621 
L 652.228499 243.87828 
L 654.269963 255.140565 
L 656.311426 250.856631 
L 658.352889 259.949739 
L 660.394353 257.644454 
L 662.435816 261.774844 
L 664.47728 257.824036 
L 666.518743 259.912809 
L 668.560207 266.923979 
L 670.60167 258.915119 
L 672.643133 255.399089 
L 674.684597 258.048107 
L 676.72606 261.726332 
L 678.767524 254.054378 
L 680.808987 245.581909 
L 682.85045 260.701061 
L 684.891914 271.494792 
L 686.933377 249.88589 
L 688.974841 253.371429 
L 691.016304 256.016781 
L 693.057768 253.983272 
L 695.099231 262.230674 
L 697.140694 261.728779 
L 699.182158 254.838523 
L 701.223621 258.407067 
L 703.265085 258.546421 
L 705.306548 246.114949 
L 707.348011 248.706622 
L 709.389475 242.552993 
L 711.430938 259.601024 
L 713.472402 276.177242 
L 715.513865 271.469476 
L 717.555328 255.48187 
L 719.596792 252.749285 
L 721.638255 252.216373 
L 723.679719 249.907966 
L 725.721182 264.338916 
L 727.762646 246.620168 
L 729.804109 263.247426 
L 731.845572 276.399552 
L 733.887036 262.560054 
L 735.928499 282.963006 
L 737.969963 265.539011 
L 740.011426 279.841541 
L 742.052889 270.077562 
L 744.094353 273.110625 
L 746.135816 282.489975 
L 748.17728 280.87456 
L 750.218743 282.955074 
L 752.260207 281.415121 
L 754.30167 281.073529 
L 756.343133 250.460593 
L 758.384597 288.87184 
L 760.42606 302.908062 
L 762.467524 287.079831 
L 764.508987 294.327048 
L 766.55045 302.608354 
L 768.591914 288.623248 
L 770.633377 302.09464 
L 772.674841 312.548806 
L 774.716304 304.244736 
L 776.757768 309.478781 
L 778.799231 311.463711 
L 780.840694 312.113463 
L 782.882158 314.389739 
L 784.923621 296.470223 
L 786.965085 327.637149 
L 789.006548 326.760675 
L 791.048011 325.460214 
L 793.089475 303.087046 
L 795.130938 329.612256 
L 797.172402 343.338698 
L 799.213865 328.381108 
L 801.255328 327.04612 
L 803.296792 350.773186 
L 805.338255 302.640006 
L 807.379719 343.616388 
L 809.421182 311.377438 
L 811.462646 354.561645 
L 813.504109 335.22344 
L 815.545572 350.834487 
L 817.587036 354.317239 
L 819.628499 357.644685 
L 821.669963 358.318789 
L 823.711426 347.407572 
L 825.752889 347.727697 
L 827.794353 355.980091 
L 829.835816 365.870471 
L 831.87728 364.952574 
L 833.918743 362.28475 
L 835.960207 372.402837 
L 838.00167 370.897558 
L 840.043133 361.008971 
L 842.084597 358.346413 
L 844.12606 378.284921 
L 846.167524 378.548016 
L 848.208987 381.413207 
L 850.25045 369.037528 
L 852.291914 342.213737 
L 854.333377 367.716988 
L 856.374841 359.192389 
L 858.416304 364.61053 
L 860.457768 372.517566 
L 862.499231 358.463143 
L 864.540694 373.637738 
L 866.582158 358.679949 
L 868.623621 356.822446 
L 870.665085 356.864781 
L 872.706548 365.465214 
L 874.748011 363.090593 
L 876.789475 359.696074 
L 878.830938 347.860383 
L 880.872402 352.334429 
L 882.913865 355.359876 
L 884.955328 349.411051 
L 886.996792 356.261952 
L 889.038255 348.544426 
L 891.079719 352.643481 
L 893.121182 360.021495 
L 895.162646 357.522581 
L 897.204109 347.859814 
L 899.245572 346.971165 
L 901.287036 344.302213 
L 903.328499 347.132327 
L 905.369963 345.95925 
L 907.411426 330.88748 
L 909.452889 340.9076 
L 911.494353 274.120565 
L 913.535816 338.872646 
L 915.57728 342.364717 
L 917.618743 331.762031 
L 919.660207 320.780191 
L 921.70167 339.116327 
L 923.743133 329.514222 
L 925.784597 313.419651 
L 927.82606 322.061164 
L 929.867524 321.350751 
L 931.908987 316.288034 
L 933.95045 324.504054 
L 935.991914 316.818445 
L 938.033377 319.382763 
L 940.074841 320.589353 
L 940.074841 124.367437 
L 940.074841 124.367437 
L 938.033377 131.110034 
L 935.991914 128.581851 
L 933.95045 131.685839 
L 931.908987 127.598305 
L 929.867524 129.852102 
L 927.82606 128.331406 
L 925.784597 129.910195 
L 923.743133 135.388969 
L 921.70167 136.532456 
L 919.660207 133.398431 
L 917.618743 134.684942 
L 915.57728 140.746697 
L 913.535816 137.58722 
L 911.494353 126.975594 
L 909.452889 140.027127 
L 907.411426 138.544385 
L 905.369963 142.18611 
L 903.328499 143.063053 
L 901.287036 142.607777 
L 899.245572 145.111125 
L 897.204109 145.722793 
L 895.162646 149.018228 
L 893.121182 150.386802 
L 891.079719 149.388181 
L 889.038255 148.578829 
L 886.996792 150.49464 
L 884.955328 148.193472 
L 882.913865 150.363341 
L 880.872402 150.581666 
L 878.830938 149.635681 
L 876.789475 154.462035 
L 874.748011 155.982532 
L 872.706548 158.337218 
L 870.665085 154.16317 
L 868.623621 155.429755 
L 866.582158 156.993951 
L 864.540694 162.147603 
L 862.499231 157.2106 
L 860.457768 162.657832 
L 858.416304 159.960989 
L 856.374841 158.569817 
L 854.333377 161.922463 
L 852.291914 154.460523 
L 850.25045 162.712089 
L 848.208987 168.552292 
L 846.167524 167.846538 
L 844.12606 167.727376 
L 842.084597 162.259872 
L 840.043133 162.412688 
L 838.00167 166.423199 
L 835.960207 166.862411 
L 833.918743 163.469188 
L 831.87728 164.351211 
L 829.835816 165.847826 
L 827.794353 159.771011 
L 825.752889 158.40698 
L 823.711426 158.872381 
L 821.669963 163.396354 
L 819.628499 163.154394 
L 817.587036 160.967901 
L 815.545572 159.55377 
L 813.504109 153.757691 
L 811.462646 161.204708 
L 809.421182 147.115223 
L 807.379719 158.078241 
L 805.338255 141.868837 
L 803.296792 160.285435 
L 801.255328 150.586902 
L 799.213865 150.286039 
L 797.172402 158.301288 
L 795.130938 151.50815 
L 793.089475 140.974231 
L 791.048011 150.506951 
L 789.006548 150.389688 
L 786.965085 150.567907 
L 784.923621 136.50082 
L 782.882158 148.678949 
L 780.840694 143.426198 
L 778.799231 142.107033 
L 776.757768 141.489278 
L 774.716304 140.011858 
L 772.674841 143.489327 
L 770.633377 138.942169 
L 768.591914 131.883186 
L 766.55045 136.206737 
L 764.508987 135.289992 
L 762.467524 129.123944 
L 760.42606 136.967585 
L 758.384597 129.93751 
L 756.343133 111.454891 
L 754.30167 126.812879 
L 752.260207 126.732659 
L 750.218743 126.784606 
L 748.17728 125.519504 
L 746.135816 126.451108 
L 744.094353 121.159144 
L 742.052889 118.761886 
L 740.011426 123.21813 
L 737.969963 117.82527 
L 735.928499 125.139675 
L 733.887036 114.48673 
L 731.845572 122.357827 
L 729.804109 114.277702 
L 727.762646 103.928495 
L 725.721182 114.783567 
L 723.679719 106.582868 
L 721.638255 107.016095 
L 719.596792 106.040276 
L 717.555328 107.557052 
L 715.513865 116.985118 
L 713.472402 118.984796 
L 711.430938 108.624076 
L 709.389475 99.819757 
L 707.348011 102.311584 
L 705.306548 99.379156 
L 703.265085 106.742805 
L 701.223621 106.379489 
L 699.182158 104.242149 
L 697.140694 107.000962 
L 695.099231 108.31136 
L 693.057768 102.6518 
L 691.016304 102.031185 
L 688.974841 100.523504 
L 686.933377 97.127253 
L 684.891914 109.802024 
L 682.85045 104.768681 
L 680.808987 93.092085 
L 678.767524 96.591927 
L 676.72606 102.226923 
L 674.684597 99.493039 
L 672.643133 96.724649 
L 670.60167 97.978174 
L 668.560207 100.875513 
L 666.518743 98.41703 
L 664.47728 95.051 
L 662.435816 96.954957 
L 660.394353 97.070621 
L 658.352889 94.489771 
L 656.311426 89.130999 
L 654.269963 89.842947 
L 652.228499 81.648005 
L 650.187036 89.917242 
L 648.145572 85.412889 
L 646.104109 86.753235 
L 644.062646 82.790234 
L 642.021182 88.836098 
L 639.979719 81.112058 
L 637.938255 84.460148 
L 635.896792 79.923009 
L 633.855328 80.250341 
L 631.813865 75.66079 
L 629.772402 81.369841 
L 627.730938 84.169442 
L 625.689475 76.710523 
L 623.648011 79.607509 
L 621.606548 67.878756 
L 619.565085 71.458037 
L 617.523621 76.944561 
L 615.482158 67.460703 
L 613.440694 79.114204 
L 611.399231 76.112987 
L 609.357768 66.979003 
L 607.316304 67.608497 
L 605.274841 67.186135 
L 603.233377 63.311795 
L 601.191914 63.62789 
L 599.15045 64.397331 
L 597.108987 78.460363 
L 595.067524 67.772126 
L 593.02606 61.539813 
L 590.984597 62.376687 
L 588.943133 60.44528 
L 586.90167 54.779293 
L 584.860207 54.684922 
L 582.818743 54.504942 
L 580.77728 54.638736 
L 578.735816 51.113089 
L 576.694353 61.192466 
L 574.652889 61.004795 
L 572.611426 58.114435 
L 570.569963 60.408949 
L 568.528499 57.182253 
L 566.487036 58.303361 
L 564.445572 60.664299 
L 562.404109 61.48696 
L 560.362646 60.402444 
L 558.321182 63.978976 
L 556.279719 63.943045 
L 554.238255 72.872606 
L 552.196792 65.917417 
L 550.155328 62.276573 
L 548.113865 66.065956 
L 546.072402 70.2745 
L 544.030938 69.783022 
L 541.989475 73.138892 
L 539.948011 68.515119 
L 537.906548 71.980937 
L 535.865085 71.246686 
L 533.823621 73.950889 
L 531.782158 73.738677 
L 529.740694 70.726359 
L 527.699231 74.653437 
L 525.657768 81.544519 
L 523.616304 76.59939 
L 521.574841 81.077546 
L 519.533377 81.778668 
L 517.491914 82.202546 
L 515.45045 88.411007 
L 513.408987 87.700327 
L 511.367524 91.693498 
L 509.32606 93.891731 
L 507.284597 90.695565 
L 505.243133 95.251569 
L 503.20167 98.825864 
L 501.160207 100.563131 
L 499.118743 101.595985 
L 497.07728 104.213428 
L 495.035816 106.046434 
L 492.994353 109.809371 
L 490.952889 112.310434 
L 488.911426 114.782381 
L 486.869963 116.20898 
L 484.828499 114.529859 
L 482.787036 119.422345 
L 480.745572 123.391038 
L 478.704109 124.703429 
L 476.662646 127.550903 
L 474.621182 127.220151 
L 472.579719 130.731044 
L 470.538255 132.10021 
L 468.496792 135.390386 
L 466.455328 137.871358 
L 464.413865 139.050177 
L 462.372402 142.604865 
L 460.330938 144.726263 
L 458.289475 147.176258 
L 456.248011 151.644133 
L 454.206548 155.043501 
L 452.165085 158.536948 
L 450.123621 159.182516 
L 448.082158 162.612703 
L 446.040694 164.306533 
L 443.999231 166.177605 
L 441.957768 166.693458 
L 439.916304 172.154062 
L 437.874841 174.114367 
L 435.833377 175.82657 
L 433.791914 180.486712 
L 431.75045 181.594103 
L 429.708987 183.974437 
L 427.667524 183.327014 
L 425.62606 189.695593 
L 423.584597 188.423572 
L 421.543133 193.41948 
L 419.50167 197.317193 
L 417.460207 198.825287 
L 415.418743 203.273826 
L 413.37728 206.344992 
L 411.335816 207.608423 
L 409.294353 209.766151 
L 407.252889 211.444179 
L 405.211426 214.283105 
L 403.169963 214.326559 
L 401.128499 217.883959 
L 399.087036 220.198617 
L 397.045572 222.315493 
L 395.004109 223.680174 
L 392.962646 224.164151 
L 390.921182 229.075727 
L 388.879719 230.053602 
L 386.838255 232.226922 
L 384.796792 236.90012 
L 382.755328 238.622425 
L 380.713865 234.151881 
L 378.672402 235.117317 
L 376.630938 240.015895 
L 374.589475 240.070162 
L 372.548011 243.771757 
L 370.506548 246.301014 
L 368.465085 245.327719 
L 366.423621 245.292707 
L 364.382158 247.766811 
L 362.340694 251.531939 
L 360.299231 248.009352 
L 358.257768 249.20399 
L 356.216304 248.506969 
L 354.174841 253.897749 
L 352.133377 251.981312 
L 350.091914 249.65486 
L 348.05045 252.122001 
L 346.008987 255.392833 
L 343.967524 247.72361 
L 341.92606 254.158257 
L 339.884597 245.122972 
L 337.843133 244.411844 
L 335.80167 242.240265 
L 333.760207 243.324299 
L 331.718743 244.019293 
L 329.67728 243.121081 
L 327.635816 238.200679 
L 325.594353 240.008292 
L 323.552889 230.978807 
L 321.511426 217.835279 
L 319.469963 221.511295 
L 317.428499 227.35135 
L 315.387036 211.730279 
L 313.345572 213.824896 
L 311.304109 209.178306 
L 309.262646 208.213244 
L 307.221182 189.403001 
L 305.179719 186.642671 
L 303.138255 180.018952 
L 301.096792 165.763497 
L 299.055328 154.213799 
L 297.013865 165.378509 
L 294.972402 158.961592 
L 292.930938 148.987391 
L 290.889475 144.643282 
L 288.848011 137.362475 
L 286.806548 127.720172 
L 284.765085 130.653204 
L 282.723621 114.504793 
L 280.682158 105.616392 
L 278.640694 101.143942 
L 276.599231 97.199821 
L 274.557768 97.859827 
L 272.516304 93.010993 
L 270.474841 95.052625 
L 268.433377 98.076154 
L 266.391914 89.478732 
L 264.35045 87.331439 
L 262.308987 92.742644 
L 260.267524 92.68577 
L 258.22606 88.25976 
L 256.184597 100.780006 
L 254.143133 88.842553 
L 252.10167 90.247608 
L 250.060207 99.096987 
L 248.018743 93.910762 
L 245.97728 95.711127 
L 243.935816 97.027298 
L 241.894353 98.931283 
L 239.852889 100.594202 
L 237.811426 102.75655 
L 235.769963 104.514853 
L 233.728499 105.473136 
L 231.687036 108.474385 
L 229.645572 107.218938 
L 227.604109 113.49405 
L 225.562646 111.215686 
L 223.521182 112.987553 
L 221.479719 115.491518 
L 219.438255 116.648896 
L 217.396792 118.914554 
L 215.355328 119.740021 
L 213.313865 122.498406 
L 211.272402 123.077145 
L 209.230938 124.614147 
L 207.189475 126.477199 
L 205.148011 128.613124 
L 203.106548 128.976527 
L 201.065085 131.082605 
L 199.023621 131.406832 
L 196.982158 133.637728 
L 194.940694 134.693061 
L 192.899231 136.165761 
L 190.857768 137.51236 
L 188.816304 138.681105 
L 186.774841 139.379095 
L 184.733377 140.985812 
L 182.691914 140.645608 
L 180.65045 142.998953 
L 178.608987 143.96937 
L 176.567524 144.368529 
L 174.52606 145.547917 
L 172.484597 146.140105 
L 170.443133 146.226787 
L 168.40167 147.182023 
L 166.360207 148.409538 
L 164.318743 148.804869 
L 162.27728 148.772896 
L 160.235816 149.143787 
L 158.194353 149.336654 
L 156.152889 149.710685 
L 154.111426 149.579466 
L 152.069963 149.659806 
L 150.028499 149.322471 
L 147.987036 149.809268 
L 145.945572 149.527404 
L 143.904109 149.54407 
L 141.862646 150.097992 
L 139.821182 149.820467 
L 137.779719 148.266089 
L 135.738255 148.502561 
L 133.696792 147.628624 
L 131.655328 147.812167 
L 129.613865 148.350838 
L 127.572402 147.656327 
L 125.530938 146.93795 
L 123.489475 145.285886 
L 121.448011 144.763741 
L 119.406548 143.752129 
L 117.365085 142.828928 
L 115.323621 142.941601 
L 113.282158 142.300313 
L 111.240694 142.155944 
L 109.199231 139.626023 
L 107.157768 138.911392 
L 105.116304 135.999451 
L 103.074841 136.682286 
L 101.033377 135.545446 
L 98.991914 135.685021 
L 96.95045 130.945112 
L 94.908987 133.705322 
L 92.867524 132.037588 
L 90.82606 128.437179 
L 88.784597 126.658253 
L 86.743133 127.586475 
L 84.70167 130.009493 
L 82.660207 127.361459 
L 80.618743 126.131537 
L 78.57728 121.37607 
L 76.535816 120.34568 
L 74.494353 120.423311 
L 72.452889 121.716002 
L 70.411426 120.036899 
L 68.369963 118.684945 
L 66.328499 118.207619 
L 64.287036 118.787989 
L 62.245572 117.688981 
L 60.204109 117.817537 
L 58.162646 118.560019 
L 56.121182 116.854224 
L 54.079719 118.333236 
L 52.038255 118.047634 
L 49.996792 117.731484 
L 47.955328 118.521943 
L 45.913865 118.321647 
L 43.872402 119.305678 
L 41.830938 120.439325 
L 39.789475 119.996113 
L 37.748011 118.896216 
L 35.706548 118.012032 
L 33.665085 121.043785 
L 31.623621 120.056841 
L 29.582158 121.98062 
L 27.540694 121.637596 
L 25.499231 120.382334 
L 23.457768 122.305171 
L 21.416304 119.846858 
L 19.374841 119.632662 
L 17.333377 122.206536 
L 15.291914 119.803776 
L 13.25045 122.227066 
L 11.208987 122.788304 
L 9.167524 120.176634 
L 7.12606 112.529482 
L 5.084597 116.942753 
L 3.043133 114.404157 
L 1.00167 103.104997 
L -1.039793 112.203111 
L -3.081257 113.82909 
L -5.12272 103.276951 
L -7.164184 99.975047 
L -9.205647 105.360078 
L -11.247111 92.907271 
L -13.288574 71.687429 
L -15.330037 94.397592 
L -17.371501 103.273069 
L -19.412964 107.273058 
L -21.454428 78.050913 
L -23.495891 78.925497 
L -25.537354 64.532632 
L -27.578818 53.443904 
L -29.620281 74.996108 
L -31.661745 65.199168 
L -33.703208 45.538078 
L -35.744672 31.719448 
L -37.786135 32.202722 
L -39.827598 34.184063 
L -41.869062 31.007502 
L -43.910525 28.996848 
L -45.951989 36.3018 
L -47.993452 35.059905 
L -50.034915 29.689506 
L -52.076379 32.37323 
L -54.117842 29.938438 
L -56.159306 28.786218 
L -58.200769 28.613207 
L -60.242232 31.290735 
L -62.283696 32.730498 
L -64.325159 33.435163 
L -66.366623 35.71652 
L -68.408086 36.614311 
L -70.44955 38.393252 
L -72.491013 41.423115 
L -74.532476 43.707891 
L -76.57394 45.206897 
L -78.615403 46.907963 
L -80.656867 49.268758 
L -82.69833 50.656349 
L -84.739793 52.925626 
L -86.781257 55.734729 
L -88.82272 57.353865 
L -90.864184 58.347619 
L -92.905647 60.013232 
L -94.947111 61.72452 
L -96.988574 63.305517 
L -99.030037 64.817638 
L -101.071501 66.271024 
L -103.112964 68.345685 
L -105.154428 69.338835 
L -107.195891 70.83206 
L -109.237354 72.403467 
L -111.278818 73.704616 
L -113.320281 74.990373 
L -115.361745 76.043052 
L -117.403208 77.198229 
L -119.444672 78.806686 
L -121.486135 79.885242 
L -123.527598 81.176348 
L -125.569062 82.199818 
L -127.610525 83.371858 
L -129.651989 84.576727 
L -131.693452 85.778916 
L -133.734915 86.760633 
L -135.776379 87.94246 
L -137.817842 88.979313 
L -139.859306 90.096296 
L -141.900769 91.12661 
L -143.942232 92.210015 
L -145.983696 93.204255 
L -148.025159 94.277337 
L -150.066623 95.441464 
L -152.108086 96.315782 
L -154.14955 97.426098 
L -156.191013 98.377232 
L -158.232476 99.48936 
L -160.27394 100.290016 
L -162.315403 101.322981 
L -164.356867 102.306222 
L -166.39833 103.240986 
L -168.439793 104.194072 
L -170.481257 105.07255 
L -172.52272 106.104446 
L -174.564184 107.028803 
L -176.605647 107.782087 
L -178.647111 108.684241 
L -180.688574 109.5841 
L -182.730037 110.478192 
L -184.771501 111.337608 
L -186.812964 112.133449 
L -188.854428 113.012627 
L -190.895891 113.871286 
L -192.937354 114.732618 
L -194.978818 115.58856 
L -197.020281 116.466786 
L -199.061745 117.379618 
L -201.103208 118.154546 
L -203.144672 119.04921 
L -205.186135 119.92354 
L -207.227598 120.757708 
L -209.269062 121.618677 
L -211.310525 122.496892 
L -213.351989 123.344425 
L -215.393452 124.236094 
L -217.434915 125.039747 
L -219.476379 125.860606 
L -221.517842 126.731426 
L -223.559306 127.567768 
L -225.600769 128.355153 
L -227.642232 129.192043 
L -229.683696 129.945345 
L -231.725159 130.755312 
L -233.766623 131.62282 
L -235.808086 132.351134 
L -237.84955 133.176236 
L -239.891013 133.949447 
L -241.932476 134.763645 
L -243.97394 135.488234 
L -246.015403 136.352267 
L -248.056867 137.047004 
L -250.09833 137.839094 
L -252.139793 138.610599 
L -254.181257 139.404029 
L -256.22272 140.15157 
L -258.264184 140.915321 
L -260.305647 141.683004 
L -262.347111 142.451877 
L -264.388574 143.143714 
L -266.430037 143.799253 
L -268.471501 144.473907 
L -270.512964 145.155645 
L -272.554428 145.812108 
L -274.595891 146.483967 
L -276.637354 147.149262 
L -278.678818 147.782355 
L -280.720281 148.426732 
L -282.761745 149.069897 
L -284.803208 149.648659 
L -286.844672 150.242221 
L -288.886135 150.868857 
L -290.927598 151.460876 
L -292.969062 151.984186 
L -295.010525 152.573171 
L -297.051989 153.107759 
L -299.093452 153.597552 
L -301.134915 154.091195 
L -303.176379 154.551581 
L -305.217842 155.056883 
L -307.259306 155.466354 
L -309.300769 155.905813 
L -311.342232 156.319164 
L -313.383696 156.70114 
L -315.425159 157.047451 
L -317.466623 157.36031 
L -319.508086 157.673359 
L -321.54955 157.985799 
L -323.591013 158.239358 
L -325.632476 158.529542 
L -327.67394 158.771278 
L -329.715403 158.976231 
L -331.756867 159.224124 
L -333.79833 159.43872 
L -335.839793 159.612338 
L -337.881257 159.802266 
L -339.92272 159.987263 
L -341.964184 160.147523 
L -344.005647 160.309392 
L -346.047111 160.439498 
L -348.088574 160.602986 
L -350.130037 160.728597 
L -352.171501 160.862547 
L -354.212964 161.004918 
L -356.254428 161.117298 
L -358.295891 161.238276 
L -360.337354 161.403951 
L -362.378818 161.515035 
L -364.420281 161.656629 
L -366.461745 161.764853 
L -368.503208 161.91621 
L -370.544672 162.032341 
L -372.586135 162.157065 
L -374.627598 162.264461 
L -376.669062 162.361341 
L -378.710525 162.476234 
L -380.751989 162.607509 
L -382.793452 162.736053 
L -384.834915 162.844115 
L -386.876379 162.926463 
L -388.917842 163.055352 
L -390.959306 163.157014 
L -393.000769 163.282437 
z
" clip-path="url(#p865a7607d6)" style="fill: #008000; fill-opacity: 0.3; stroke: #008000; stroke-opacity: 0.3"/>
   </g>
   <g id="matplotlib.axis_1">
    <g id="xtick_1">
     <g id="line2d_1">
      <defs>
       <path id="m506861fd4d" d="M 0 0 
L 0 3.5 
" style="stroke: #000000; stroke-width: 0.8"/>
      </defs>
      <g>
       <use xlink:href="#m506861fd4d" x="103.074841" y="399.053207" style="stroke: #000000; stroke-width: 0.8"/>
      </g>
     </g>
     <g id="text_1">
      <!-- 2022-03-01 -->
      <g transform="translate(17.945813 498.986925) rotate(-45) scale(0.2 -0.2)">
       <defs>
        <path id="DejaVuSans-32" d="M 1228 531 
L 3431 531 
L 3431 0 
L 469 0 
L 469 531 
Q 828 903 1448 1529 
Q 2069 2156 2228 2338 
Q 2531 2678 2651 2914 
Q 2772 3150 2772 3378 
Q 2772 3750 2511 3984 
Q 2250 4219 1831 4219 
Q 1534 4219 1204 4116 
Q 875 4013 500 3803 
L 500 4441 
Q 881 4594 1212 4672 
Q 1544 4750 1819 4750 
Q 2544 4750 2975 4387 
Q 3406 4025 3406 3419 
Q 3406 3131 3298 2873 
Q 3191 2616 2906 2266 
Q 2828 2175 2409 1742 
Q 1991 1309 1228 531 
z
" transform="scale(0.015625)"/>
        <path id="DejaVuSans-30" d="M 2034 4250 
Q 1547 4250 1301 3770 
Q 1056 3291 1056 2328 
Q 1056 1369 1301 889 
Q 1547 409 2034 409 
Q 2525 409 2770 889 
Q 3016 1369 3016 2328 
Q 3016 3291 2770 3770 
Q 2525 4250 2034 4250 
z
M 2034 4750 
Q 2819 4750 3233 4129 
Q 3647 3509 3647 2328 
Q 3647 1150 3233 529 
Q 2819 -91 2034 -91 
Q 1250 -91 836 529 
Q 422 1150 422 2328 
Q 422 3509 836 4129 
Q 1250 4750 2034 4750 
z
" transform="scale(0.015625)"/>
        <path id="DejaVuSans-2d" d="M 313 2009 
L 1997 2009 
L 1997 1497 
L 313 1497 
L 313 2009 
z
" transform="scale(0.015625)"/>
        <path id="DejaVuSans-33" d="M 2597 2516 
Q 3050 2419 3304 2112 
Q 3559 1806 3559 1356 
Q 3559 666 3084 287 
Q 2609 -91 1734 -91 
Q 1441 -91 1130 -33 
Q 819 25 488 141 
L 488 750 
Q 750 597 1062 519 
Q 1375 441 1716 441 
Q 2309 441 2620 675 
Q 2931 909 2931 1356 
Q 2931 1769 2642 2001 
Q 2353 2234 1838 2234 
L 1294 2234 
L 1294 2753 
L 1863 2753 
Q 2328 2753 2575 2939 
Q 2822 3125 2822 3475 
Q 2822 3834 2567 4026 
Q 2313 4219 1838 4219 
Q 1578 4219 1281 4162 
Q 984 4106 628 3988 
L 628 4550 
Q 988 4650 1302 4700 
Q 1616 4750 1894 4750 
Q 2613 4750 3031 4423 
Q 3450 4097 3450 3541 
Q 3450 3153 3228 2886 
Q 3006 2619 2597 2516 
z
" transform="scale(0.015625)"/>
        <path id="DejaVuSans-31" d="M 794 531 
L 1825 531 
L 1825 4091 
L 703 3866 
L 703 4441 
L 1819 4666 
L 2450 4666 
L 2450 531 
L 3481 531 
L 3481 0 
L 794 0 
L 794 531 
z
" transform="scale(0.015625)"/>
       </defs>
       <use xlink:href="#DejaVuSans-32"/>
       <use xlink:href="#DejaVuSans-30" x="63.623047"/>
       <use xlink:href="#DejaVuSans-32" x="127.246094"/>
       <use xlink:href="#DejaVuSans-32" x="190.869141"/>
       <use xlink:href="#DejaVuSans-2d" x="254.492188"/>
       <use xlink:href="#DejaVuSans-30" x="290.576172"/>
       <use xlink:href="#DejaVuSans-33" x="354.199219"/>
       <use xlink:href="#DejaVuSans-2d" x="417.822266"/>
       <use xlink:href="#DejaVuSans-30" x="453.90625"/>
       <use xlink:href="#DejaVuSans-31" x="517.529297"/>
      </g>
     </g>
    </g>
    <g id="xtick_2">
     <g id="line2d_2">
      <g>
       <use xlink:href="#m506861fd4d" x="160.235816" y="399.053207" style="stroke: #000000; stroke-width: 0.8"/>
      </g>
     </g>
     <g id="text_2">
      <!-- 2022-03-29 -->
      <g transform="translate(75.106789 498.986925) rotate(-45) scale(0.2 -0.2)">
       <defs>
        <path id="DejaVuSans-39" d="M 703 97 
L 703 672 
Q 941 559 1184 500 
Q 1428 441 1663 441 
Q 2288 441 2617 861 
Q 2947 1281 2994 2138 
Q 2813 1869 2534 1725 
Q 2256 1581 1919 1581 
Q 1219 1581 811 2004 
Q 403 2428 403 3163 
Q 403 3881 828 4315 
Q 1253 4750 1959 4750 
Q 2769 4750 3195 4129 
Q 3622 3509 3622 2328 
Q 3622 1225 3098 567 
Q 2575 -91 1691 -91 
Q 1453 -91 1209 -44 
Q 966 3 703 97 
z
M 1959 2075 
Q 2384 2075 2632 2365 
Q 2881 2656 2881 3163 
Q 2881 3666 2632 3958 
Q 2384 4250 1959 4250 
Q 1534 4250 1286 3958 
Q 1038 3666 1038 3163 
Q 1038 2656 1286 2365 
Q 1534 2075 1959 2075 
z
" transform="scale(0.015625)"/>
       </defs>
       <use xlink:href="#DejaVuSans-32"/>
       <use xlink:href="#DejaVuSans-30" x="63.623047"/>
       <use xlink:href="#DejaVuSans-32" x="127.246094"/>
       <use xlink:href="#DejaVuSans-32" x="190.869141"/>
       <use xlink:href="#DejaVuSans-2d" x="254.492188"/>
       <use xlink:href="#DejaVuSans-30" x="290.576172"/>
       <use xlink:href="#DejaVuSans-33" x="354.199219"/>
       <use xlink:href="#DejaVuSans-2d" x="417.822266"/>
       <use xlink:href="#DejaVuSans-32" x="453.90625"/>
       <use xlink:href="#DejaVuSans-39" x="517.529297"/>
      </g>
     </g>
    </g>
    <g id="xtick_3">
     <g id="line2d_3">
      <g>
       <use xlink:href="#m506861fd4d" x="217.396792" y="399.053207" style="stroke: #000000; stroke-width: 0.8"/>
      </g>
     </g>
     <g id="text_3">
      <!-- 2022-04-26 -->
      <g transform="translate(132.267765 498.986925) rotate(-45) scale(0.2 -0.2)">
       <defs>
        <path id="DejaVuSans-34" d="M 2419 4116 
L 825 1625 
L 2419 1625 
L 2419 4116 
z
M 2253 4666 
L 3047 4666 
L 3047 1625 
L 3713 1625 
L 3713 1100 
L 3047 1100 
L 3047 0 
L 2419 0 
L 2419 1100 
L 313 1100 
L 313 1709 
L 2253 4666 
z
" transform="scale(0.015625)"/>
        <path id="DejaVuSans-36" d="M 2113 2584 
Q 1688 2584 1439 2293 
Q 1191 2003 1191 1497 
Q 1191 994 1439 701 
Q 1688 409 2113 409 
Q 2538 409 2786 701 
Q 3034 994 3034 1497 
Q 3034 2003 2786 2293 
Q 2538 2584 2113 2584 
z
M 3366 4563 
L 3366 3988 
Q 3128 4100 2886 4159 
Q 2644 4219 2406 4219 
Q 1781 4219 1451 3797 
Q 1122 3375 1075 2522 
Q 1259 2794 1537 2939 
Q 1816 3084 2150 3084 
Q 2853 3084 3261 2657 
Q 3669 2231 3669 1497 
Q 3669 778 3244 343 
Q 2819 -91 2113 -91 
Q 1303 -91 875 529 
Q 447 1150 447 2328 
Q 447 3434 972 4092 
Q 1497 4750 2381 4750 
Q 2619 4750 2861 4703 
Q 3103 4656 3366 4563 
z
" transform="scale(0.015625)"/>
       </defs>
       <use xlink:href="#DejaVuSans-32"/>
       <use xlink:href="#DejaVuSans-30" x="63.623047"/>
       <use xlink:href="#DejaVuSans-32" x="127.246094"/>
       <use xlink:href="#DejaVuSans-32" x="190.869141"/>
       <use xlink:href="#DejaVuSans-2d" x="254.492188"/>
       <use xlink:href="#DejaVuSans-30" x="290.576172"/>
       <use xlink:href="#DejaVuSans-34" x="354.199219"/>
       <use xlink:href="#DejaVuSans-2d" x="417.822266"/>
       <use xlink:href="#DejaVuSans-32" x="453.90625"/>
       <use xlink:href="#DejaVuSans-36" x="517.529297"/>
      </g>
     </g>
    </g>
    <g id="xtick_4">
     <g id="line2d_4">
      <g>
       <use xlink:href="#m506861fd4d" x="274.557768" y="399.053207" style="stroke: #000000; stroke-width: 0.8"/>
      </g>
     </g>
     <g id="text_4">
      <!-- 2022-05-24 -->
      <g transform="translate(189.42874 498.986925) rotate(-45) scale(0.2 -0.2)">
       <defs>
        <path id="DejaVuSans-35" d="M 691 4666 
L 3169 4666 
L 3169 4134 
L 1269 4134 
L 1269 2991 
Q 1406 3038 1543 3061 
Q 1681 3084 1819 3084 
Q 2600 3084 3056 2656 
Q 3513 2228 3513 1497 
Q 3513 744 3044 326 
Q 2575 -91 1722 -91 
Q 1428 -91 1123 -41 
Q 819 9 494 109 
L 494 744 
Q 775 591 1075 516 
Q 1375 441 1709 441 
Q 2250 441 2565 725 
Q 2881 1009 2881 1497 
Q 2881 1984 2565 2268 
Q 2250 2553 1709 2553 
Q 1456 2553 1204 2497 
Q 953 2441 691 2322 
L 691 4666 
z
" transform="scale(0.015625)"/>
       </defs>
       <use xlink:href="#DejaVuSans-32"/>
       <use xlink:href="#DejaVuSans-30" x="63.623047"/>
       <use xlink:href="#DejaVuSans-32" x="127.246094"/>
       <use xlink:href="#DejaVuSans-32" x="190.869141"/>
       <use xlink:href="#DejaVuSans-2d" x="254.492188"/>
       <use xlink:href="#DejaVuSans-30" x="290.576172"/>
       <use xlink:href="#DejaVuSans-35" x="354.199219"/>
       <use xlink:href="#DejaVuSans-2d" x="417.822266"/>
       <use xlink:href="#DejaVuSans-32" x="453.90625"/>
       <use xlink:href="#DejaVuSans-34" x="517.529297"/>
      </g>
     </g>
    </g>
    <g id="xtick_5">
     <g id="line2d_5">
      <g>
       <use xlink:href="#m506861fd4d" x="331.718743" y="399.053207" style="stroke: #000000; stroke-width: 0.8"/>
      </g>
     </g>
     <g id="text_5">
      <!-- 2022-06-21 -->
      <g transform="translate(246.589716 498.986925) rotate(-45) scale(0.2 -0.2)">
       <use xlink:href="#DejaVuSans-32"/>
       <use xlink:href="#DejaVuSans-30" x="63.623047"/>
       <use xlink:href="#DejaVuSans-32" x="127.246094"/>
       <use xlink:href="#DejaVuSans-32" x="190.869141"/>
       <use xlink:href="#DejaVuSans-2d" x="254.492188"/>
       <use xlink:href="#DejaVuSans-30" x="290.576172"/>
       <use xlink:href="#DejaVuSans-36" x="354.199219"/>
       <use xlink:href="#DejaVuSans-2d" x="417.822266"/>
       <use xlink:href="#DejaVuSans-32" x="453.90625"/>
       <use xlink:href="#DejaVuSans-31" x="517.529297"/>
      </g>
     </g>
    </g>
    <g id="xtick_6">
     <g id="line2d_6">
      <g>
       <use xlink:href="#m506861fd4d" x="388.879719" y="399.053207" style="stroke: #000000; stroke-width: 0.8"/>
      </g>
     </g>
     <g id="text_6">
      <!-- 2022-07-19 -->
      <g transform="translate(303.750691 498.986925) rotate(-45) scale(0.2 -0.2)">
       <defs>
        <path id="DejaVuSans-37" d="M 525 4666 
L 3525 4666 
L 3525 4397 
L 1831 0 
L 1172 0 
L 2766 4134 
L 525 4134 
L 525 4666 
z
" transform="scale(0.015625)"/>
       </defs>
       <use xlink:href="#DejaVuSans-32"/>
       <use xlink:href="#DejaVuSans-30" x="63.623047"/>
       <use xlink:href="#DejaVuSans-32" x="127.246094"/>
       <use xlink:href="#DejaVuSans-32" x="190.869141"/>
       <use xlink:href="#DejaVuSans-2d" x="254.492188"/>
       <use xlink:href="#DejaVuSans-30" x="290.576172"/>
       <use xlink:href="#DejaVuSans-37" x="354.199219"/>
       <use xlink:href="#DejaVuSans-2d" x="417.822266"/>
       <use xlink:href="#DejaVuSans-31" x="453.90625"/>
       <use xlink:href="#DejaVuSans-39" x="517.529297"/>
      </g>
     </g>
    </g>
    <g id="xtick_7">
     <g id="line2d_7">
      <g>
       <use xlink:href="#m506861fd4d" x="446.040694" y="399.053207" style="stroke: #000000; stroke-width: 0.8"/>
      </g>
     </g>
     <g id="text_7">
      <!-- 2022-08-16 -->
      <g transform="translate(360.911667 498.986925) rotate(-45) scale(0.2 -0.2)">
       <defs>
        <path id="DejaVuSans-38" d="M 2034 2216 
Q 1584 2216 1326 1975 
Q 1069 1734 1069 1313 
Q 1069 891 1326 650 
Q 1584 409 2034 409 
Q 2484 409 2743 651 
Q 3003 894 3003 1313 
Q 3003 1734 2745 1975 
Q 2488 2216 2034 2216 
z
M 1403 2484 
Q 997 2584 770 2862 
Q 544 3141 544 3541 
Q 544 4100 942 4425 
Q 1341 4750 2034 4750 
Q 2731 4750 3128 4425 
Q 3525 4100 3525 3541 
Q 3525 3141 3298 2862 
Q 3072 2584 2669 2484 
Q 3125 2378 3379 2068 
Q 3634 1759 3634 1313 
Q 3634 634 3220 271 
Q 2806 -91 2034 -91 
Q 1263 -91 848 271 
Q 434 634 434 1313 
Q 434 1759 690 2068 
Q 947 2378 1403 2484 
z
M 1172 3481 
Q 1172 3119 1398 2916 
Q 1625 2713 2034 2713 
Q 2441 2713 2670 2916 
Q 2900 3119 2900 3481 
Q 2900 3844 2670 4047 
Q 2441 4250 2034 4250 
Q 1625 4250 1398 4047 
Q 1172 3844 1172 3481 
z
" transform="scale(0.015625)"/>
       </defs>
       <use xlink:href="#DejaVuSans-32"/>
       <use xlink:href="#DejaVuSans-30" x="63.623047"/>
       <use xlink:href="#DejaVuSans-32" x="127.246094"/>
       <use xlink:href="#DejaVuSans-32" x="190.869141"/>
       <use xlink:href="#DejaVuSans-2d" x="254.492188"/>
       <use xlink:href="#DejaVuSans-30" x="290.576172"/>
       <use xlink:href="#DejaVuSans-38" x="354.199219"/>
       <use xlink:href="#DejaVuSans-2d" x="417.822266"/>
       <use xlink:href="#DejaVuSans-31" x="453.90625"/>
       <use xlink:href="#DejaVuSans-36" x="517.529297"/>
      </g>
     </g>
    </g>
    <g id="xtick_8">
     <g id="line2d_8">
      <g>
       <use xlink:href="#m506861fd4d" x="503.20167" y="399.053207" style="stroke: #000000; stroke-width: 0.8"/>
      </g>
     </g>
     <g id="text_8">
      <!-- 2022-09-13 -->
      <g transform="translate(418.072643 498.986925) rotate(-45) scale(0.2 -0.2)">
       <use xlink:href="#DejaVuSans-32"/>
       <use xlink:href="#DejaVuSans-30" x="63.623047"/>
       <use xlink:href="#DejaVuSans-32" x="127.246094"/>
       <use xlink:href="#DejaVuSans-32" x="190.869141"/>
       <use xlink:href="#DejaVuSans-2d" x="254.492188"/>
       <use xlink:href="#DejaVuSans-30" x="290.576172"/>
       <use xlink:href="#DejaVuSans-39" x="354.199219"/>
       <use xlink:href="#DejaVuSans-2d" x="417.822266"/>
       <use xlink:href="#DejaVuSans-31" x="453.90625"/>
       <use xlink:href="#DejaVuSans-33" x="517.529297"/>
      </g>
     </g>
    </g>
    <g id="xtick_9">
     <g id="line2d_9">
      <g>
       <use xlink:href="#m506861fd4d" x="560.362646" y="399.053207" style="stroke: #000000; stroke-width: 0.8"/>
      </g>
     </g>
     <g id="text_9">
      <!-- 2022-10-11 -->
      <g transform="translate(475.233618 498.986925) rotate(-45) scale(0.2 -0.2)">
       <use xlink:href="#DejaVuSans-32"/>
       <use xlink:href="#DejaVuSans-30" x="63.623047"/>
       <use xlink:href="#DejaVuSans-32" x="127.246094"/>
       <use xlink:href="#DejaVuSans-32" x="190.869141"/>
       <use xlink:href="#DejaVuSans-2d" x="254.492188"/>
       <use xlink:href="#DejaVuSans-31" x="290.576172"/>
       <use xlink:href="#DejaVuSans-30" x="354.199219"/>
       <use xlink:href="#DejaVuSans-2d" x="417.822266"/>
       <use xlink:href="#DejaVuSans-31" x="453.90625"/>
       <use xlink:href="#DejaVuSans-31" x="517.529297"/>
      </g>
     </g>
    </g>
    <g id="xtick_10">
     <g id="line2d_10">
      <g>
       <use xlink:href="#m506861fd4d" x="617.523621" y="399.053207" style="stroke: #000000; stroke-width: 0.8"/>
      </g>
     </g>
     <g id="text_10">
      <!-- 2022-11-08 -->
      <g transform="translate(532.394594 498.986925) rotate(-45) scale(0.2 -0.2)">
       <use xlink:href="#DejaVuSans-32"/>
       <use xlink:href="#DejaVuSans-30" x="63.623047"/>
       <use xlink:href="#DejaVuSans-32" x="127.246094"/>
       <use xlink:href="#DejaVuSans-32" x="190.869141"/>
       <use xlink:href="#DejaVuSans-2d" x="254.492188"/>
       <use xlink:href="#DejaVuSans-31" x="290.576172"/>
       <use xlink:href="#DejaVuSans-31" x="354.199219"/>
       <use xlink:href="#DejaVuSans-2d" x="417.822266"/>
       <use xlink:href="#DejaVuSans-30" x="453.90625"/>
       <use xlink:href="#DejaVuSans-38" x="517.529297"/>
      </g>
     </g>
    </g>
    <g id="xtick_11">
     <g id="line2d_11">
      <g>
       <use xlink:href="#m506861fd4d" x="674.684597" y="399.053207" style="stroke: #000000; stroke-width: 0.8"/>
      </g>
     </g>
     <g id="text_11">
      <!-- 2022-12-06 -->
      <g transform="translate(589.555569 498.986925) rotate(-45) scale(0.2 -0.2)">
       <use xlink:href="#DejaVuSans-32"/>
       <use xlink:href="#DejaVuSans-30" x="63.623047"/>
       <use xlink:href="#DejaVuSans-32" x="127.246094"/>
       <use xlink:href="#DejaVuSans-32" x="190.869141"/>
       <use xlink:href="#DejaVuSans-2d" x="254.492188"/>
       <use xlink:href="#DejaVuSans-31" x="290.576172"/>
       <use xlink:href="#DejaVuSans-32" x="354.199219"/>
       <use xlink:href="#DejaVuSans-2d" x="417.822266"/>
       <use xlink:href="#DejaVuSans-30" x="453.90625"/>
       <use xlink:href="#DejaVuSans-36" x="517.529297"/>
      </g>
     </g>
    </g>
    <g id="xtick_12">
     <g id="line2d_12">
      <g>
       <use xlink:href="#m506861fd4d" x="731.845572" y="399.053207" style="stroke: #000000; stroke-width: 0.8"/>
      </g>
     </g>
     <g id="text_12">
      <!-- 2023-01-03 -->
      <g transform="translate(646.716545 498.986925) rotate(-45) scale(0.2 -0.2)">
       <use xlink:href="#DejaVuSans-32"/>
       <use xlink:href="#DejaVuSans-30" x="63.623047"/>
       <use xlink:href="#DejaVuSans-32" x="127.246094"/>
       <use xlink:href="#DejaVuSans-33" x="190.869141"/>
       <use xlink:href="#DejaVuSans-2d" x="254.492188"/>
       <use xlink:href="#DejaVuSans-30" x="290.576172"/>
       <use xlink:href="#DejaVuSans-31" x="354.199219"/>
       <use xlink:href="#DejaVuSans-2d" x="417.822266"/>
       <use xlink:href="#DejaVuSans-30" x="453.90625"/>
       <use xlink:href="#DejaVuSans-33" x="517.529297"/>
      </g>
     </g>
    </g>
    <g id="xtick_13">
     <g id="line2d_13">
      <g>
       <use xlink:href="#m506861fd4d" x="789.006548" y="399.053207" style="stroke: #000000; stroke-width: 0.8"/>
      </g>
     </g>
     <g id="text_13">
      <!-- 2023-01-31 -->
      <g transform="translate(703.877521 498.986925) rotate(-45) scale(0.2 -0.2)">
       <use xlink:href="#DejaVuSans-32"/>
       <use xlink:href="#DejaVuSans-30" x="63.623047"/>
       <use xlink:href="#DejaVuSans-32" x="127.246094"/>
       <use xlink:href="#DejaVuSans-33" x="190.869141"/>
       <use xlink:href="#DejaVuSans-2d" x="254.492188"/>
       <use xlink:href="#DejaVuSans-30" x="290.576172"/>
       <use xlink:href="#DejaVuSans-31" x="354.199219"/>
       <use xlink:href="#DejaVuSans-2d" x="417.822266"/>
       <use xlink:href="#DejaVuSans-33" x="453.90625"/>
       <use xlink:href="#DejaVuSans-31" x="517.529297"/>
      </g>
     </g>
    </g>
    <g id="xtick_14">
     <g id="line2d_14">
      <g>
       <use xlink:href="#m506861fd4d" x="846.167524" y="399.053207" style="stroke: #000000; stroke-width: 0.8"/>
      </g>
     </g>
     <g id="text_14">
      <!-- 2023-02-28 -->
      <g transform="translate(761.038496 498.986925) rotate(-45) scale(0.2 -0.2)">
       <use xlink:href="#DejaVuSans-32"/>
       <use xlink:href="#DejaVuSans-30" x="63.623047"/>
       <use xlink:href="#DejaVuSans-32" x="127.246094"/>
       <use xlink:href="#DejaVuSans-33" x="190.869141"/>
       <use xlink:href="#DejaVuSans-2d" x="254.492188"/>
       <use xlink:href="#DejaVuSans-30" x="290.576172"/>
       <use xlink:href="#DejaVuSans-32" x="354.199219"/>
       <use xlink:href="#DejaVuSans-2d" x="417.822266"/>
       <use xlink:href="#DejaVuSans-32" x="453.90625"/>
       <use xlink:href="#DejaVuSans-38" x="517.529297"/>
      </g>
     </g>
    </g>
    <g id="xtick_15">
     <g id="line2d_15">
      <g>
       <use xlink:href="#m506861fd4d" x="903.328499" y="399.053207" style="stroke: #000000; stroke-width: 0.8"/>
      </g>
     </g>
     <g id="text_15">
      <!-- 2023-03-28 -->
      <g transform="translate(818.199472 498.986925) rotate(-45) scale(0.2 -0.2)">
       <use xlink:href="#DejaVuSans-32"/>
       <use xlink:href="#DejaVuSans-30" x="63.623047"/>
       <use xlink:href="#DejaVuSans-32" x="127.246094"/>
       <use xlink:href="#DejaVuSans-33" x="190.869141"/>
       <use xlink:href="#DejaVuSans-2d" x="254.492188"/>
       <use xlink:href="#DejaVuSans-30" x="290.576172"/>
       <use xlink:href="#DejaVuSans-33" x="354.199219"/>
       <use xlink:href="#DejaVuSans-2d" x="417.822266"/>
       <use xlink:href="#DejaVuSans-32" x="453.90625"/>
       <use xlink:href="#DejaVuSans-38" x="517.529297"/>
      </g>
     </g>
    </g>
    <g id="xtick_16">
     <g id="line2d_16">
      <g>
       <use xlink:href="#m506861fd4d" x="940.074841" y="399.053207" style="stroke: #000000; stroke-width: 0.8"/>
      </g>
     </g>
     <g id="text_16">
      <!-- 2023-04-15 -->
      <g transform="translate(854.945813 498.986925) rotate(-45) scale(0.2 -0.2)">
       <use xlink:href="#DejaVuSans-32"/>
       <use xlink:href="#DejaVuSans-30" x="63.623047"/>
       <use xlink:href="#DejaVuSans-32" x="127.246094"/>
       <use xlink:href="#DejaVuSans-33" x="190.869141"/>
       <use xlink:href="#DejaVuSans-2d" x="254.492188"/>
       <use xlink:href="#DejaVuSans-30" x="290.576172"/>
       <use xlink:href="#DejaVuSans-34" x="354.199219"/>
       <use xlink:href="#DejaVuSans-2d" x="417.822266"/>
       <use xlink:href="#DejaVuSans-31" x="453.90625"/>
       <use xlink:href="#DejaVuSans-35" x="517.529297"/>
      </g>
     </g>
    </g>
   </g>
   <g id="matplotlib.axis_2">
    <g id="ytick_1">
     <g id="line2d_17">
      <defs>
       <path id="m5014c5d95f" d="M 0 0 
L -3.5 0 
" style="stroke: #000000; stroke-width: 0.8"/>
      </defs>
      <g>
       <use xlink:href="#m5014c5d95f" x="103.074841" y="361.544725" style="stroke: #000000; stroke-width: 0.8"/>
      </g>
     </g>
     <g id="text_17">
      <!-- 0.100 -->
      <g transform="translate(22.059216 369.143162) scale(0.2 -0.2)">
       <defs>
        <path id="DejaVuSans-2212" d="M 678 2272 
L 4684 2272 
L 4684 1741 
L 678 1741 
L 678 2272 
z
" transform="scale(0.015625)"/>
        <path id="DejaVuSans-2e" d="M 684 794 
L 1344 794 
L 1344 0 
L 684 0 
L 684 794 
z
" transform="scale(0.015625)"/>
       </defs>
       <use xlink:href="#DejaVuSans-2212"/>
       <use xlink:href="#DejaVuSans-30" x="83.789062"/>
       <use xlink:href="#DejaVuSans-2e" x="147.412109"/>
       <use xlink:href="#DejaVuSans-31" x="179.199219"/>
       <use xlink:href="#DejaVuSans-30" x="242.822266"/>
       <use xlink:href="#DejaVuSans-30" x="306.445312"/>
      </g>
     </g>
    </g>
    <g id="ytick_2">
     <g id="line2d_18">
      <g>
       <use xlink:href="#m5014c5d95f" x="103.074841" y="312.009541" style="stroke: #000000; stroke-width: 0.8"/>
      </g>
     </g>
     <g id="text_18">
      <!-- 0.075 -->
      <g transform="translate(22.059216 319.607978) scale(0.2 -0.2)">
       <use xlink:href="#DejaVuSans-2212"/>
       <use xlink:href="#DejaVuSans-30" x="83.789062"/>
       <use xlink:href="#DejaVuSans-2e" x="147.412109"/>
       <use xlink:href="#DejaVuSans-30" x="179.199219"/>
       <use xlink:href="#DejaVuSans-37" x="242.822266"/>
       <use xlink:href="#DejaVuSans-35" x="306.445312"/>
      </g>
     </g>
    </g>
    <g id="ytick_3">
     <g id="line2d_19">
      <g>
       <use xlink:href="#m5014c5d95f" x="103.074841" y="262.474357" style="stroke: #000000; stroke-width: 0.8"/>
      </g>
     </g>
     <g id="text_19">
      <!-- 0.050 -->
      <g transform="translate(22.059216 270.072794) scale(0.2 -0.2)">
       <use xlink:href="#DejaVuSans-2212"/>
       <use xlink:href="#DejaVuSans-30" x="83.789062"/>
       <use xlink:href="#DejaVuSans-2e" x="147.412109"/>
       <use xlink:href="#DejaVuSans-30" x="179.199219"/>
       <use xlink:href="#DejaVuSans-35" x="242.822266"/>
       <use xlink:href="#DejaVuSans-30" x="306.445312"/>
      </g>
     </g>
    </g>
    <g id="ytick_4">
     <g id="line2d_20">
      <g>
       <use xlink:href="#m5014c5d95f" x="103.074841" y="212.939173" style="stroke: #000000; stroke-width: 0.8"/>
      </g>
     </g>
     <g id="text_20">
      <!-- 0.025 -->
      <g transform="translate(22.059216 220.53761) scale(0.2 -0.2)">
       <use xlink:href="#DejaVuSans-2212"/>
       <use xlink:href="#DejaVuSans-30" x="83.789062"/>
       <use xlink:href="#DejaVuSans-2e" x="147.412109"/>
       <use xlink:href="#DejaVuSans-30" x="179.199219"/>
       <use xlink:href="#DejaVuSans-32" x="242.822266"/>
       <use xlink:href="#DejaVuSans-35" x="306.445312"/>
      </g>
     </g>
    </g>
    <g id="ytick_5">
     <g id="line2d_21">
      <g>
       <use xlink:href="#m5014c5d95f" x="103.074841" y="163.403989" style="stroke: #000000; stroke-width: 0.8"/>
      </g>
     </g>
     <g id="text_21">
      <!-- 0.000 -->
      <g transform="translate(38.818591 171.002427) scale(0.2 -0.2)">
       <use xlink:href="#DejaVuSans-30"/>
       <use xlink:href="#DejaVuSans-2e" x="63.623047"/>
       <use xlink:href="#DejaVuSans-30" x="95.410156"/>
       <use xlink:href="#DejaVuSans-30" x="159.033203"/>
       <use xlink:href="#DejaVuSans-30" x="222.65625"/>
      </g>
     </g>
    </g>
    <g id="ytick_6">
     <g id="line2d_22">
      <g>
       <use xlink:href="#m5014c5d95f" x="103.074841" y="113.868805" style="stroke: #000000; stroke-width: 0.8"/>
      </g>
     </g>
     <g id="text_22">
      <!-- 0.025 -->
      <g transform="translate(38.818591 121.467243) scale(0.2 -0.2)">
       <use xlink:href="#DejaVuSans-30"/>
       <use xlink:href="#DejaVuSans-2e" x="63.623047"/>
       <use xlink:href="#DejaVuSans-30" x="95.410156"/>
       <use xlink:href="#DejaVuSans-32" x="159.033203"/>
       <use xlink:href="#DejaVuSans-35" x="222.65625"/>
      </g>
     </g>
    </g>
    <g id="ytick_7">
     <g id="line2d_23">
      <g>
       <use xlink:href="#m5014c5d95f" x="103.074841" y="64.333621" style="stroke: #000000; stroke-width: 0.8"/>
      </g>
     </g>
     <g id="text_23">
      <!-- 0.050 -->
      <g transform="translate(38.818591 71.932059) scale(0.2 -0.2)">
       <use xlink:href="#DejaVuSans-30"/>
       <use xlink:href="#DejaVuSans-2e" x="63.623047"/>
       <use xlink:href="#DejaVuSans-30" x="95.410156"/>
       <use xlink:href="#DejaVuSans-35" x="159.033203"/>
       <use xlink:href="#DejaVuSans-30" x="222.65625"/>
      </g>
     </g>
    </g>
    <g id="ytick_8">
     <g id="line2d_24">
      <g>
       <use xlink:href="#m5014c5d95f" x="103.074841" y="14.798437" style="stroke: #000000; stroke-width: 0.8"/>
      </g>
     </g>
     <g id="text_24">
      <!-- 0.075 -->
      <g transform="translate(38.818591 22.396875) scale(0.2 -0.2)">
       <use xlink:href="#DejaVuSans-30"/>
       <use xlink:href="#DejaVuSans-2e" x="63.623047"/>
       <use xlink:href="#DejaVuSans-30" x="95.410156"/>
       <use xlink:href="#DejaVuSans-37" x="159.033203"/>
       <use xlink:href="#DejaVuSans-35" x="222.65625"/>
      </g>
     </g>
    </g>
   </g>
   <g id="line2d_25">
    <path d="M 0 0 
" clip-path="url(#p865a7607d6)" style="fill: none; stroke: #ffa500; stroke-width: 1.5; stroke-linecap: square"/>
   </g>
   <g id="line2d_26">
    <path d="M 103.074841 163.403989 
L 948.274841 163.403989 
" clip-path="url(#p865a7607d6)" style="fill: none; stroke-dasharray: 7.4,3.2; stroke-dashoffset: 0; stroke: #000000; stroke-width: 2"/>
   </g>
   <g id="patch_3">
    <path d="M 103.074841 399.053207 
L 103.074841 10.973207 
" style="fill: none; stroke: #000000; stroke-width: 0.8; stroke-linejoin: miter; stroke-linecap: square"/>
   </g>
   <g id="patch_4">
    <path d="M 940.074841 399.053207 
L 940.074841 10.973207 
" style="fill: none; stroke: #000000; stroke-width: 0.8; stroke-linejoin: miter; stroke-linecap: square"/>
   </g>
   <g id="patch_5">
    <path d="M 103.074841 399.053207 
L 940.074841 399.053207 
" style="fill: none; stroke: #000000; stroke-width: 0.8; stroke-linejoin: miter; stroke-linecap: square"/>
   </g>
   <g id="patch_6">
    <path d="M 103.074841 10.973207 
L 940.074841 10.973207 
" style="fill: none; stroke: #000000; stroke-width: 0.8; stroke-linejoin: miter; stroke-linecap: square"/>
   </g>
  </g>
 </g>
 <defs>
  <clipPath id="p865a7607d6">
   <rect x="103.074841" y="10.973207" width="837" height="388.08"/>
  </clipPath>
 </defs>
</svg>
