<?xml version="1.0" encoding="utf-8" standalone="no"?>
<!DOCTYPE svg PUBLIC "-//W3C//DTD SVG 1.1//EN"
  "http://www.w3.org/Graphics/SVG/1.1/DTD/svg11.dtd">
<svg xmlns:xlink="http://www.w3.org/1999/xlink" width="947.274841pt" height="505.354841pt" viewBox="0 0 947.274841 505.354841" xmlns="http://www.w3.org/2000/svg" version="1.1">
 <metadata>
  <rdf:RDF xmlns:dc="http://purl.org/dc/elements/1.1/" xmlns:cc="http://creativecommons.org/ns#" xmlns:rdf="http://www.w3.org/1999/02/22-rdf-syntax-ns#">
   <cc:Work>
    <dc:type rdf:resource="http://purl.org/dc/dcmitype/StillImage"/>
    <dc:date>2023-11-12T22:44:18.309837</dc:date>
    <dc:format>image/svg+xml</dc:format>
    <dc:creator>
     <cc:Agent>
      <dc:title>Matplotlib v3.7.2, https://matplotlib.org/</dc:title>
     </cc:Agent>
    </dc:creator>
   </cc:Work>
  </rdf:RDF>
 </metadata>
 <defs>
  <style type="text/css">*{stroke-linejoin: round; stroke-linecap: butt}</style>
 </defs>
 <g id="figure_1">
  <g id="patch_1">
   <path d="M 0 505.354841 
L 947.274841 505.354841 
L 947.274841 -0 
L 0 -0 
z
" style="fill: #ffffff"/>
  </g>
  <g id="axes_1">
   <g id="patch_2">
    <path d="M 103.074841 395.28 
L 940.074841 395.28 
L 940.074841 7.2 
L 103.074841 7.2 
z
" style="fill: #ffffff"/>
   </g>
   <g id="PolyCollection_1">
    <path d="M -4315.31939 306.208553 
L -4315.31939 306.21219 
L -4307.271313 306.193329 
L -4299.223236 306.177075 
L -4291.175159 306.156427 
L -4283.127082 306.142775 
L -4275.079005 306.127022 
L -4267.030929 306.109347 
L -4258.982852 306.091862 
L -4250.934775 306.07547 
L -4242.886698 306.061108 
L -4234.838621 306.044482 
L -4226.790544 306.027053 
L -4218.742467 306.010116 
L -4210.69439 305.989256 
L -4202.646313 305.972032 
L -4194.598236 305.951703 
L -4186.550159 305.934325 
L -4178.502082 305.910757 
L -4170.454005 305.891429 
L -4162.405929 305.872829 
L -4154.357852 305.850793 
L -4146.309775 305.829325 
L -4138.261698 305.808355 
L -4130.213621 305.782997 
L -4122.165544 305.760858 
L -4114.117467 305.734901 
L -4106.06939 305.70864 
L -4098.021313 305.679564 
L -4089.973236 305.649693 
L -4081.925159 305.620502 
L -4073.877082 305.586672 
L -4065.829005 305.548371 
L -4057.780929 305.514456 
L -4049.732852 305.475876 
L -4041.684775 305.431756 
L -4033.636698 305.390788 
L -4025.588621 305.342669 
L -4017.540544 305.293828 
L -4009.492467 305.243553 
L -4001.44439 305.190465 
L -3993.396313 305.131579 
L -3985.348236 305.06887 
L -3977.300159 305.002404 
L -3969.252082 304.938443 
L -3961.204005 304.863163 
L -3953.155929 304.791706 
L -3945.107852 304.715584 
L -3937.059775 304.639235 
L -3929.011698 304.557008 
L -3920.963621 304.467919 
L -3912.915544 304.385636 
L -3904.867467 304.293882 
L -3896.81939 304.198906 
L -3888.771313 304.105937 
L -3880.723236 304.014001 
L -3872.675159 303.91414 
L -3864.627082 303.813232 
L -3856.579005 303.712573 
L -3848.530929 303.607668 
L -3840.482852 303.501494 
L -3832.434775 303.395693 
L -3824.386698 303.286273 
L -3816.338621 303.176654 
L -3808.290544 303.068785 
L -3800.242467 302.956404 
L -3792.19439 302.836026 
L -3784.146313 302.719484 
L -3776.098236 302.603231 
L -3768.050159 302.488849 
L -3760.002082 302.369655 
L -3751.954005 302.253272 
L -3743.905929 302.134807 
L -3735.857852 302.028069 
L -3727.809775 301.901899 
L -3719.761698 301.792844 
L -3711.713621 301.673113 
L -3703.665544 301.559147 
L -3695.617467 301.43983 
L -3687.56939 301.334339 
L -3679.521313 301.212846 
L -3671.473236 301.098702 
L -3663.425159 300.99135 
L -3655.377082 300.876455 
L -3647.329005 300.767751 
L -3639.280929 300.65389 
L -3631.232852 300.537759 
L -3623.184775 300.42782 
L -3615.136698 300.32018 
L -3607.088621 300.204089 
L -3599.040544 300.092503 
L -3590.992467 299.97926 
L -3582.94439 299.868796 
L -3574.896313 299.760944 
L -3566.848236 299.650048 
L -3558.800159 299.537996 
L -3550.752082 299.437179 
L -3542.704005 299.322813 
L -3534.655929 299.213239 
L -3526.607852 299.105432 
L -3518.559775 298.997443 
L -3510.511698 298.889671 
L -3502.463621 298.780453 
L -3494.415544 298.676269 
L -3486.367467 298.56785 
L -3478.31939 298.456707 
L -3470.271313 298.344286 
L -3462.223236 298.230616 
L -3454.175159 298.124193 
L -3446.127082 298.007072 
L -3438.079005 297.882183 
L -3430.030929 297.764878 
L -3421.982852 297.64118 
L -3413.934775 297.51557 
L -3405.886698 297.382963 
L -3397.838621 297.247965 
L -3389.790544 297.122493 
L -3381.742467 296.979434 
L -3373.69439 296.843462 
L -3365.646313 296.697142 
L -3357.598236 296.56273 
L -3349.550159 296.404771 
L -3341.502082 296.249914 
L -3333.454005 296.099405 
L -3325.405929 295.946285 
L -3317.357852 295.788461 
L -3309.309775 295.623553 
L -3301.261698 295.468984 
L -3293.213621 295.292004 
L -3285.165544 295.136337 
L -3277.117467 294.954205 
L -3269.06939 294.777728 
L -3261.021313 294.605399 
L -3252.973236 294.440104 
L -3244.925159 294.247255 
L -3236.877082 294.073039 
L -3228.829005 293.851606 
L -3220.780929 293.661128 
L -3212.732852 293.483614 
L -3204.684775 293.283176 
L -3196.636698 293.077593 
L -3188.588621 292.840876 
L -3180.540544 292.618996 
L -3172.492467 292.433807 
L -3164.44439 292.141058 
L -3156.396313 291.905836 
L -3148.348236 291.665493 
L -3140.300159 291.41617 
L -3132.252082 291.13239 
L -3124.204005 290.865505 
L -3116.155929 290.663718 
L -3108.107852 290.406828 
L -3100.059775 289.985992 
L -3092.011698 289.631965 
L -3083.963621 289.369981 
L -3075.915544 289.007783 
L -3067.867467 288.707073 
L -3059.81939 288.444956 
L -3051.771313 288.048131 
L -3043.723236 287.596954 
L -3035.675159 287.287686 
L -3027.627082 287.089051 
L -3019.579005 286.722916 
L -3011.530929 286.621931 
L -3003.482852 286.425179 
L -2995.434775 286.045401 
L -2987.386698 286.077533 
L -2979.338621 286.235472 
L -2971.290544 286.567533 
L -2963.242467 286.198404 
L -2955.19439 286.935142 
L -2947.146313 287.09977 
L -2939.098236 286.110774 
L -2931.050159 286.391838 
L -2923.002082 286.830737 
L -2914.954005 286.572466 
L -2906.905929 286.519445 
L -2898.857852 288.39998 
L -2890.809775 291.072573 
L -2882.761698 292.401144 
L -2874.713621 289.496951 
L -2866.665544 290.986244 
L -2858.617467 292.937143 
L -2850.56939 292.819936 
L -2842.521313 296.791426 
L -2834.473236 296.243448 
L -2826.425159 295.021551 
L -2818.377082 292.002458 
L -2810.329005 294.830431 
L -2802.280929 296.52828 
L -2794.232852 295.810088 
L -2786.184775 296.24801 
L -2778.136698 297.849335 
L -2770.088621 297.628047 
L -2762.040544 296.234769 
L -2753.992467 297.969401 
L -2745.94439 298.307226 
L -2737.896313 297.67743 
L -2729.848236 298.775219 
L -2721.800159 299.17105 
L -2713.752082 299.053304 
L -2705.704005 298.709155 
L -2697.655929 299.063762 
L -2689.607852 298.68394 
L -2681.559775 298.707397 
L -2673.511698 299.044734 
L -2665.463621 298.709903 
L -2657.415544 298.870266 
L -2649.367467 298.87055 
L -2641.31939 298.598189 
L -2633.271313 298.686245 
L -2625.223236 298.297712 
L -2617.175159 298.314497 
L -2609.127082 298.411219 
L -2601.079005 298.408398 
L -2593.030929 298.214407 
L -2584.982852 298.047384 
L -2576.934775 297.998587 
L -2568.886698 297.814966 
L -2560.838621 297.778708 
L -2552.790544 297.736796 
L -2544.742467 297.46276 
L -2536.69439 297.578784 
L -2528.646313 297.394523 
L -2520.598236 297.30967 
L -2512.550159 297.305434 
L -2504.502082 297.124685 
L -2496.454005 297.072865 
L -2488.405929 297.121633 
L -2480.357852 297.206814 
L -2472.309775 296.916755 
L -2464.261698 296.859331 
L -2456.213621 296.757364 
L -2448.165544 297.232037 
L -2440.117467 297.2326 
L -2432.06939 297.408368 
L -2424.021313 296.933639 
L -2415.973236 296.636906 
L -2407.925159 296.716034 
L -2399.877082 297.024149 
L -2391.829005 297.065185 
L -2383.780929 296.491251 
L -2375.732852 296.952542 
L -2367.684775 296.820274 
L -2359.636698 296.728244 
L -2351.588621 296.454851 
L -2343.540544 296.651114 
L -2335.492467 296.510022 
L -2327.44439 296.6125 
L -2319.396313 296.426961 
L -2311.348236 296.276098 
L -2303.300159 296.018009 
L -2295.252082 295.884396 
L -2287.204005 295.760346 
L -2279.155929 295.596686 
L -2271.107852 295.544405 
L -2263.059775 295.390042 
L -2255.011698 295.225115 
L -2246.963621 294.825515 
L -2238.915544 294.516231 
L -2230.867467 294.364168 
L -2222.81939 294.027757 
L -2214.771313 293.941576 
L -2206.723236 293.642493 
L -2198.675159 293.213511 
L -2190.627082 292.851412 
L -2182.579005 292.570956 
L -2174.530929 292.127021 
L -2166.482852 291.844446 
L -2158.434775 291.445349 
L -2150.386698 291.089405 
L -2142.338621 290.648242 
L -2134.290544 290.280095 
L -2126.242467 289.788615 
L -2118.19439 289.395968 
L -2110.146313 288.971163 
L -2102.098236 288.414963 
L -2094.050159 287.896962 
L -2086.002082 287.52191 
L -2077.954005 287.094097 
L -2069.905929 286.565781 
L -2061.857852 286.142353 
L -2053.809775 285.631746 
L -2045.761698 284.907173 
L -2037.713621 284.578313 
L -2029.665544 283.963198 
L -2021.617467 283.495881 
L -2013.56939 282.971258 
L -2005.521313 282.397228 
L -1997.473236 281.810289 
L -1989.425159 281.272199 
L -1981.377082 280.554464 
L -1973.329005 280.099821 
L -1965.280929 279.397958 
L -1957.232852 278.948991 
L -1949.184775 278.261952 
L -1941.136698 277.594419 
L -1933.088621 276.984262 
L -1925.040544 276.493007 
L -1916.992467 275.701502 
L -1908.94439 275.157016 
L -1900.896313 274.448627 
L -1892.848236 273.866017 
L -1884.800159 273.1282 
L -1876.752082 272.499682 
L -1868.704005 272.398627 
L -1860.655929 271.187148 
L -1852.607852 270.976118 
L -1844.559775 270.229263 
L -1836.511698 269.705008 
L -1828.463621 269.091658 
L -1820.415544 268.438595 
L -1812.367467 267.844542 
L -1804.31939 267.269361 
L -1796.271313 266.725061 
L -1788.223236 266.177608 
L -1780.175159 266.518815 
L -1772.127082 264.987646 
L -1764.079005 264.570764 
L -1756.030929 265.737973 
L -1747.982852 263.897391 
L -1739.934775 264.145152 
L -1731.886698 263.896338 
L -1723.838621 262.912585 
L -1715.790544 263.019419 
L -1707.742467 263.872745 
L -1699.69439 263.154207 
L -1691.646313 262.796075 
L -1683.598236 263.309012 
L -1675.550159 263.045399 
L -1667.502082 263.381227 
L -1659.454005 263.854588 
L -1651.405929 264.70073 
L -1643.357852 266.731749 
L -1635.309775 266.199774 
L -1627.261698 267.275547 
L -1619.213621 268.156748 
L -1611.165544 268.604762 
L -1603.117467 269.741102 
L -1595.06939 270.441103 
L -1587.021313 268.955096 
L -1578.973236 270.296469 
L -1570.925159 272.621849 
L -1562.877082 273.73379 
L -1554.829005 274.232534 
L -1546.780929 277.31557 
L -1538.732852 277.545529 
L -1530.684775 278.370035 
L -1522.636698 278.120593 
L -1514.588621 280.716218 
L -1506.540544 279.879799 
L -1498.492467 279.393557 
L -1490.44439 281.605327 
L -1482.396313 283.167444 
L -1474.348236 282.999723 
L -1466.300159 283.913965 
L -1458.252082 284.189215 
L -1450.204005 284.213279 
L -1442.155929 284.178492 
L -1434.107852 284.666664 
L -1426.059775 284.926031 
L -1418.011698 286.516369 
L -1409.963621 285.642266 
L -1401.915544 287.0192 
L -1393.867467 286.65654 
L -1385.81939 286.420727 
L -1377.771313 286.949227 
L -1369.723236 287.413727 
L -1361.675159 286.716168 
L -1353.627082 286.984741 
L -1345.579005 286.953067 
L -1337.530929 287.669314 
L -1329.482852 287.230483 
L -1321.434775 286.992693 
L -1313.386698 287.151503 
L -1305.338621 287.456823 
L -1297.290544 287.204825 
L -1289.242467 286.763321 
L -1281.19439 286.894627 
L -1273.146313 286.255301 
L -1265.098236 286.232751 
L -1257.050159 287.06868 
L -1249.002082 286.923398 
L -1240.954005 286.307592 
L -1232.905929 286.081087 
L -1224.857852 286.040023 
L -1216.809775 285.374056 
L -1208.761698 285.403426 
L -1200.713621 285.291543 
L -1192.665544 285.060289 
L -1184.617467 284.795078 
L -1176.56939 284.332937 
L -1168.521313 284.42334 
L -1160.473236 284.073386 
L -1152.425159 283.905667 
L -1144.377082 283.664811 
L -1136.329005 283.564247 
L -1128.280929 283.182902 
L -1120.232852 282.586517 
L -1112.184775 282.454748 
L -1104.136698 281.952877 
L -1096.088621 281.27977 
L -1088.040544 281.595034 
L -1079.992467 280.720596 
L -1071.94439 280.949226 
L -1063.896313 280.709206 
L -1055.848236 280.674874 
L -1047.800159 280.089901 
L -1039.752082 279.970853 
L -1031.704005 279.818843 
L -1023.655929 279.122268 
L -1015.607852 279.204036 
L -1007.559775 279.078733 
L -999.511698 278.98538 
L -991.463621 278.624416 
L -983.415544 278.699864 
L -975.367467 278.33476 
L -967.31939 277.986985 
L -959.271313 277.47362 
L -951.223236 277.274289 
L -943.175159 277.126872 
L -935.127082 276.758989 
L -927.079005 276.759854 
L -919.030929 276.558878 
L -910.982852 276.231514 
L -902.934775 276.201111 
L -894.886698 275.839084 
L -886.838621 276.06934 
L -878.790544 275.80834 
L -870.742467 275.784259 
L -862.69439 275.349796 
L -854.646313 274.770494 
L -846.598236 275.204912 
L -838.550159 275.160163 
L -830.502082 274.953849 
L -822.454005 274.742312 
L -814.405929 274.335438 
L -806.357852 274.225006 
L -798.309775 273.992415 
L -790.261698 274.002256 
L -782.213621 273.902662 
L -774.165544 273.519503 
L -766.117467 272.984599 
L -758.06939 273.635539 
L -750.021313 273.457997 
L -741.973236 273.002953 
L -733.925159 273.264076 
L -725.877082 272.464343 
L -717.829005 272.543748 
L -709.780929 272.577349 
L -701.732852 272.030026 
L -693.684775 272.917319 
L -685.636698 271.994144 
L -677.588621 271.516528 
L -669.540544 272.090281 
L -661.492467 272.23254 
L -653.44439 271.926033 
L -645.396313 272.137543 
L -637.348236 271.702634 
L -629.300159 272.492511 
L -621.252082 272.060386 
L -613.204005 272.20638 
L -605.155929 271.632549 
L -597.107852 271.116021 
L -589.059775 271.724218 
L -581.011698 272.832997 
L -572.963621 271.522615 
L -564.915544 271.571649 
L -556.867467 271.067799 
L -548.81939 271.272578 
L -540.771313 271.185708 
L -532.723236 270.865867 
L -524.675159 270.73426 
L -516.627082 271.265057 
L -508.579005 270.959839 
L -500.530929 271.445507 
L -492.482852 271.523808 
L -484.434775 270.046907 
L -476.386698 270.638634 
L -468.338621 270.678752 
L -460.290544 270.771992 
L -452.242467 270.855572 
L -444.19439 271.787807 
L -436.146313 272.159367 
L -428.098236 272.115449 
L -420.050159 273.147584 
L -412.002082 274.859213 
L -403.954005 272.824534 
L -395.905929 272.803917 
L -387.857852 272.851135 
L -379.809775 273.533091 
L -371.761698 273.692905 
L -363.713621 273.692973 
L -355.665544 275.170079 
L -347.617467 275.717596 
L -339.56939 274.047501 
L -331.521313 275.5658 
L -323.473236 274.82197 
L -315.425159 274.359916 
L -307.377082 276.204616 
L -299.329005 275.840134 
L -291.280929 277.032858 
L -283.232852 276.672808 
L -275.184775 275.871343 
L -267.136698 276.61888 
L -259.088621 276.622168 
L -251.040544 277.357331 
L -242.992467 276.899374 
L -234.94439 278.109607 
L -226.896313 277.24513 
L -218.848236 277.885852 
L -210.800159 277.758959 
L -202.752082 278.463208 
L -194.704005 277.333134 
L -186.655929 278.547027 
L -178.607852 278.481799 
L -170.559775 279.313132 
L -162.511698 279.753305 
L -154.463621 279.759833 
L -146.415544 279.552073 
L -138.367467 280.088324 
L -130.31939 280.48965 
L -122.271313 280.13788 
L -114.223236 280.008625 
L -106.175159 280.47968 
L -98.127082 280.908257 
L -90.079005 280.176154 
L -82.030929 279.754885 
L -73.982852 281.441346 
L -65.934775 282.208941 
L -57.886698 280.489764 
L -49.838621 281.000113 
L -41.790544 281.257262 
L -33.742467 281.383519 
L -25.69439 282.250746 
L -17.646313 282.142589 
L -9.598236 281.793523 
L -1.550159 282.173489 
L 6.497918 282.277966 
L 14.545995 281.354024 
L 22.594071 281.827373 
L 30.642148 281.542632 
L 38.690225 282.832217 
L 46.738302 284.41906 
L 54.786379 284.198118 
L 62.834456 282.951867 
L 70.882533 282.824495 
L 78.93061 283.004533 
L 86.978687 283.072425 
L 95.026764 284.254622 
L 103.074841 282.770416 
L 111.122918 284.350878 
L 119.170995 285.625086 
L 127.219071 284.584594 
L 135.267148 286.221261 
L 143.315225 285.219665 
L 151.363302 286.116576 
L 159.411379 285.545463 
L 167.459456 285.996181 
L 175.507533 286.880465 
L 183.55561 286.836691 
L 191.603687 287.12154 
L 199.651764 287.209245 
L 207.699841 287.318995 
L 215.747918 285.215967 
L 223.795995 287.969697 
L 231.844071 289.118232 
L 239.892148 288.05253 
L 247.940225 289.070769 
L 255.988302 289.31367 
L 264.036379 288.772752 
L 272.084456 289.924353 
L 280.132533 290.709306 
L 288.18061 290.301018 
L 296.228687 290.629272 
L 304.276764 290.831384 
L 312.324841 291.138613 
L 320.372918 292.027489 
L 328.420995 290.331749 
L 336.469071 292.531504 
L 344.517148 292.627576 
L 352.565225 292.76752 
L 360.613302 291.473744 
L 368.661379 293.152051 
L 376.709456 294.285691 
L 384.757533 293.229191 
L 392.80561 293.401455 
L 400.853687 294.967785 
L 408.901764 292.372479 
L 416.949841 294.890979 
L 424.997918 293.398178 
L 433.045995 295.610005 
L 441.094071 294.651693 
L 449.142148 295.646085 
L 457.190225 295.997679 
L 465.238302 296.466196 
L 473.286379 296.649821 
L 481.334456 296.131458 
L 489.382533 296.210228 
L 497.43061 296.56108 
L 505.478687 297.606151 
L 513.526764 297.546027 
L 521.574841 297.577926 
L 529.622918 298.242154 
L 537.670995 298.345585 
L 545.719071 297.923028 
L 553.767148 298.06189 
L 561.815225 299.031133 
L 569.863302 299.221537 
L 577.911379 299.500138 
L 585.959456 298.823228 
L 594.007533 297.782288 
L 602.05561 299.035876 
L 610.103687 298.71438 
L 618.151764 299.085662 
L 626.199841 299.647872 
L 634.247918 299.023731 
L 642.295995 299.909281 
L 650.344071 299.326581 
L 658.392148 299.264982 
L 666.440225 299.24278 
L 674.488302 300.009608 
L 682.536379 299.832218 
L 690.584456 299.774651 
L 698.632533 299.235584 
L 706.68061 299.531561 
L 714.728687 299.656173 
L 722.776764 299.49957 
L 730.824841 299.988642 
L 738.872918 299.864336 
L 746.920995 300.132321 
L 754.969071 300.427886 
L 763.017148 300.38248 
L 771.065225 300.053954 
L 779.113302 300.108038 
L 787.161379 299.888681 
L 795.209456 300.092212 
L 803.257533 300.10329 
L 811.30561 299.710239 
L 819.353687 300.052181 
L 827.401764 298.289396 
L 835.449841 299.926469 
L 843.497918 300.497398 
L 851.545995 299.744836 
L 859.594071 299.671337 
L 867.642148 300.22884 
L 875.690225 300.170349 
L 883.738302 299.488154 
L 891.786379 299.363307 
L 899.834456 299.679142 
L 907.882533 299.452294 
L 915.93061 300.127392 
L 923.978687 299.773207 
L 932.026764 300.282182 
L 940.074841 299.539946 
L 940.074841 296.129635 
L 940.074841 296.129635 
L 932.026764 295.513706 
L 923.978687 294.733505 
L 915.93061 295.646843 
L 907.882533 294.007778 
L 899.834456 294.497587 
L 891.786379 294.28665 
L 883.738302 292.567949 
L 875.690225 294.835309 
L 867.642148 296.057392 
L 859.594071 292.764547 
L 851.545995 294.208556 
L 843.497918 295.591668 
L 835.449841 294.691882 
L 827.401764 283.846096 
L 819.353687 294.363627 
L 811.30561 292.389281 
L 803.257533 294.499851 
L 795.209456 294.343826 
L 787.161379 293.534424 
L 779.113302 293.622018 
L 771.065225 293.418385 
L 763.017148 294.65074 
L 754.969071 294.707352 
L 746.920995 293.143583 
L 738.872918 292.11781 
L 730.824841 293.036809 
L 722.776764 291.553676 
L 714.728687 292.182405 
L 706.68061 291.330953 
L 698.632533 290.237196 
L 690.584456 291.845042 
L 682.536379 292.055122 
L 674.488302 292.097519 
L 666.440225 290.317817 
L 658.392148 289.960943 
L 650.344071 289.918583 
L 642.295995 292.063735 
L 634.247918 289.179173 
L 626.199841 291.180537 
L 618.151764 289.509064 
L 610.103687 288.254927 
L 602.05561 289.342374 
L 594.007533 284.715966 
L 585.959456 288.887712 
L 577.911379 290.627192 
L 569.863302 289.803228 
L 561.815225 289.422629 
L 553.767148 285.721954 
L 545.719071 285.847052 
L 537.670995 287.196206 
L 529.622918 287.127107 
L 521.574841 285.089144 
L 513.526764 285.227858 
L 505.478687 285.073986 
L 497.43061 283.086688 
L 489.382533 281.379756 
L 481.334456 281.027619 
L 473.286379 282.594317 
L 465.238302 282.184008 
L 457.190225 281.322125 
L 449.142148 280.436801 
L 441.094071 277.474863 
L 433.045995 280.507746 
L 424.997918 272.813813 
L 416.949841 278.080028 
L 408.901764 270.756349 
L 400.853687 278.766941 
L 392.80561 274.397523 
L 384.757533 274.350523 
L 376.709456 276.656494 
L 368.661379 274.010195 
L 360.613302 269.155258 
L 352.565225 272.760087 
L 344.517148 272.716184 
L 336.469071 272.601007 
L 328.420995 266.932642 
L 320.372918 269.788024 
L 312.324841 269.136134 
L 304.276764 268.766277 
L 296.228687 268.165794 
L 288.18061 267.000799 
L 280.132533 268.19642 
L 272.084456 266.121024 
L 264.036379 263.522427 
L 255.988302 265.720163 
L 247.940225 264.023997 
L 239.892148 262.511639 
L 231.844071 265.040776 
L 223.795995 262.339026 
L 215.747918 255.365651 
L 207.699841 260.502402 
L 199.651764 260.323523 
L 191.603687 260.358118 
L 183.55561 259.756463 
L 175.507533 259.807172 
L 167.459456 257.922845 
L 159.411379 257.15857 
L 151.363302 258.652605 
L 143.315225 255.904071 
L 135.267148 258.760444 
L 127.219071 254.935078 
L 119.170995 257.169407 
L 111.122918 254.632941 
L 103.074841 251.486506 
L 95.026764 254.429155 
L 86.978687 251.677778 
L 78.93061 251.898546 
L 70.882533 251.806502 
L 62.834456 252.10729 
L 54.786379 254.76575 
L 46.738302 255.423912 
L 38.690225 252.304625 
L 30.642148 249.109028 
L 22.594071 250.050063 
L 14.545995 249.436371 
L 6.497918 251.502909 
L -1.550159 251.333605 
L -9.598236 250.559216 
L -17.646313 251.656684 
L -25.69439 251.617822 
L -33.742467 250.022665 
L -41.790544 250.268901 
L -49.838621 249.682654 
L -57.886698 248.950496 
L -65.934775 252.707518 
L -73.982852 250.674709 
L -82.030929 247.87425 
L -90.079005 249.298199 
L -98.127082 250.578225 
L -106.175159 249.828518 
L -114.223236 249.266943 
L -122.271313 249.812978 
L -130.31939 251.166057 
L -138.367467 249.829929 
L -146.415544 249.379677 
L -154.463621 250.014597 
L -162.511698 249.203626 
L -170.559775 249.551267 
L -178.607852 247.855689 
L -186.655929 248.564666 
L -194.704005 246.484524 
L -202.752082 248.405596 
L -210.800159 247.605216 
L -218.848236 248.192179 
L -226.896313 247.67519 
L -234.94439 248.876039 
L -242.992467 247.022308 
L -251.040544 248.306254 
L -259.088621 247.165145 
L -267.136698 247.473858 
L -275.184775 246.59618 
L -283.232852 247.173342 
L -291.280929 248.616788 
L -299.329005 247.367659 
L -307.377082 247.766234 
L -315.425159 245.237457 
L -323.473236 246.518005 
L -331.521313 247.205746 
L -339.56939 245.278038 
L -347.617467 247.595593 
L -355.665544 247.849914 
L -363.713621 245.393343 
L -371.761698 245.5226 
L -379.809775 245.429921 
L -387.857852 244.603934 
L -395.905929 245.325053 
L -403.954005 245.190233 
L -412.002082 248.267678 
L -420.050159 246.310661 
L -428.098236 244.896271 
L -436.146313 245.04396 
L -444.19439 244.70978 
L -452.242467 243.909091 
L -460.290544 244.355171 
L -468.338621 243.86113 
L -476.386698 244.680149 
L -484.434775 243.911048 
L -492.482852 245.739948 
L -500.530929 246.098182 
L -508.579005 245.838628 
L -516.627082 246.349507 
L -524.675159 245.835314 
L -532.723236 246.473079 
L -540.771313 246.900303 
L -548.81939 247.830289 
L -556.867467 247.321861 
L -564.915544 248.344572 
L -572.963621 248.295253 
L -581.011698 250.087758 
L -589.059775 249.088584 
L -597.107852 248.613229 
L -605.155929 249.445911 
L -613.204005 249.886857 
L -621.252082 250.027527 
L -629.300159 251.103994 
L -637.348236 250.380201 
L -645.396313 251.13368 
L -653.44439 250.925489 
L -661.492467 251.180472 
L -669.540544 251.000655 
L -677.588621 250.689478 
L -685.636698 251.55666 
L -693.684775 252.677797 
L -701.732852 251.718204 
L -709.780929 252.408093 
L -717.829005 252.233778 
L -725.877082 252.663625 
L -733.925159 253.543798 
L -741.973236 253.35899 
L -750.021313 254.086903 
L -758.06939 254.340424 
L -766.117467 253.698164 
L -774.165544 254.207526 
L -782.213621 254.765095 
L -790.261698 255.018043 
L -798.309775 255.079456 
L -806.357852 255.49843 
L -814.405929 255.52548 
L -822.454005 256.107358 
L -830.502082 256.326825 
L -838.550159 256.519655 
L -846.598236 256.711629 
L -854.646313 255.897808 
L -862.69439 256.963083 
L -870.742467 257.436073 
L -878.790544 257.402396 
L -886.838621 257.511342 
L -894.886698 257.594114 
L -902.934775 257.957785 
L -910.982852 257.939 
L -919.030929 258.446513 
L -927.079005 258.672381 
L -935.127082 258.643553 
L -943.175159 258.875867 
L -951.223236 259.164243 
L -959.271313 259.460858 
L -967.31939 260.285612 
L -975.367467 260.537527 
L -983.415544 260.977657 
L -991.463621 260.870029 
L -999.511698 261.298576 
L -1007.559775 261.411975 
L -1015.607852 261.600306 
L -1023.655929 261.300761 
L -1031.704005 262.441793 
L -1039.752082 262.62096 
L -1047.800159 262.779136 
L -1055.848236 263.503508 
L -1063.896313 263.55094 
L -1071.94439 263.908063 
L -1079.992467 263.68215 
L -1088.040544 264.650831 
L -1096.088621 264.491603 
L -1104.136698 265.431328 
L -1112.184775 266.129323 
L -1120.232852 266.403481 
L -1128.280929 267.255366 
L -1136.329005 267.943702 
L -1144.377082 268.025046 
L -1152.425159 268.486761 
L -1160.473236 268.690831 
L -1168.521313 269.262168 
L -1176.56939 269.225619 
L -1184.617467 269.979067 
L -1192.665544 270.565604 
L -1200.713621 270.950845 
L -1208.761698 271.216908 
L -1216.809775 271.445154 
L -1224.857852 272.241608 
L -1232.905929 272.496487 
L -1240.954005 273.01922 
L -1249.002082 273.746662 
L -1257.050159 274.033796 
L -1265.098236 273.538283 
L -1273.146313 273.79085 
L -1281.19439 274.570295 
L -1289.242467 274.725914 
L -1297.290544 275.281256 
L -1305.338621 275.700399 
L -1313.386698 275.579047 
L -1321.434775 275.858672 
L -1329.482852 276.190764 
L -1337.530929 276.734882 
L -1345.579005 276.259311 
L -1353.627082 276.550718 
L -1361.675159 276.609823 
L -1369.723236 277.350662 
L -1377.771313 277.320599 
L -1385.81939 276.993733 
L -1393.867467 277.409193 
L -1401.915544 277.834268 
L -1409.963621 276.898265 
L -1418.011698 277.851524 
L -1426.059775 276.741312 
L -1434.107852 276.738283 
L -1442.155929 276.55428 
L -1450.204005 276.876773 
L -1458.252082 277.005048 
L -1466.300159 276.91204 
L -1474.348236 276.40671 
L -1482.396313 276.880972 
L -1490.44439 275.632627 
L -1498.492467 274.165546 
L -1506.540544 274.598862 
L -1514.588621 275.405241 
L -1522.636698 273.444895 
L -1530.684775 273.582644 
L -1538.732852 273.151539 
L -1546.780929 273.067934 
L -1554.829005 270.634193 
L -1562.877082 270.467859 
L -1570.925159 269.599515 
L -1578.973236 267.696134 
L -1587.021313 266.348725 
L -1595.06939 267.898709 
L -1603.117467 267.233111 
L -1611.165544 266.055776 
L -1619.213621 265.557136 
L -1627.261698 264.651251 
L -1635.309775 263.382041 
L -1643.357852 263.995809 
L -1651.405929 261.630527 
L -1659.454005 260.513636 
L -1667.502082 259.964329 
L -1675.550159 259.545419 
L -1683.598236 259.849457 
L -1691.646313 259.285938 
L -1699.69439 259.803203 
L -1707.742467 260.56145 
L -1715.790544 259.47315 
L -1723.838621 259.402439 
L -1731.886698 260.557805 
L -1739.934775 260.863404 
L -1747.982852 260.49302 
L -1756.030929 262.803179 
L -1764.079005 261.261646 
L -1772.127082 261.85291 
L -1780.175159 263.637523 
L -1788.223236 263.204055 
L -1796.271313 263.89357 
L -1804.31939 264.517498 
L -1812.367467 265.242082 
L -1820.415544 265.934513 
L -1828.463621 266.712092 
L -1836.511698 267.435174 
L -1844.559775 268.035956 
L -1852.607852 268.960069 
L -1860.655929 269.22094 
L -1868.704005 270.517388 
L -1876.752082 270.580506 
L -1884.800159 271.208632 
L -1892.848236 271.904724 
L -1900.896313 272.439321 
L -1908.94439 273.099559 
L -1916.992467 273.622021 
L -1925.040544 274.371052 
L -1933.088621 274.83258 
L -1941.136698 275.390769 
L -1949.184775 276.040975 
L -1957.232852 276.703161 
L -1965.280929 277.116528 
L -1973.329005 277.756338 
L -1981.377082 278.200244 
L -1989.425159 278.856979 
L -1997.473236 279.37105 
L -2005.521313 279.881989 
L -2013.56939 280.444792 
L -2021.617467 280.94615 
L -2029.665544 281.375552 
L -2037.713621 281.925069 
L -2045.761698 282.215063 
L -2053.809775 282.887672 
L -2061.857852 283.348411 
L -2069.905929 283.75661 
L -2077.954005 284.250464 
L -2086.002082 284.560274 
L -2094.050159 285.000182 
L -2102.098236 285.450661 
L -2110.146313 285.94437 
L -2118.19439 286.325989 
L -2126.242467 286.701411 
L -2134.290544 287.10913 
L -2142.338621 287.501571 
L -2150.386698 287.922712 
L -2158.434775 288.261668 
L -2166.482852 288.628868 
L -2174.530929 288.931093 
L -2182.579005 289.344554 
L -2190.627082 289.646413 
L -2198.675159 289.986443 
L -2206.723236 290.406716 
L -2214.771313 290.700673 
L -2222.81939 290.793676 
L -2230.867467 291.13988 
L -2238.915544 291.321495 
L -2246.963621 291.655126 
L -2255.011698 292.041614 
L -2263.059775 292.244171 
L -2271.107852 292.433871 
L -2279.155929 292.477068 
L -2287.204005 292.67477 
L -2295.252082 292.794703 
L -2303.300159 292.923454 
L -2311.348236 293.199036 
L -2319.396313 293.361161 
L -2327.44439 293.591793 
L -2335.492467 293.466372 
L -2343.540544 293.594286 
L -2351.588621 293.395319 
L -2359.636698 293.712193 
L -2367.684775 293.762206 
L -2375.732852 293.994408 
L -2383.780929 293.507257 
L -2391.829005 294.102236 
L -2399.877082 294.057289 
L -2407.925159 293.720293 
L -2415.973236 293.636984 
L -2424.021313 293.945411 
L -2432.06939 294.476371 
L -2440.117467 294.27321 
L -2448.165544 294.264203 
L -2456.213621 293.733568 
L -2464.261698 293.728828 
L -2472.309775 293.883362 
L -2480.357852 294.209665 
L -2488.405929 294.104247 
L -2496.454005 294.037379 
L -2504.502082 294.089093 
L -2512.550159 294.288518 
L -2520.598236 294.242066 
L -2528.646313 294.368141 
L -2536.69439 294.577873 
L -2544.742467 294.42911 
L -2552.790544 294.733154 
L -2560.838621 294.779155 
L -2568.886698 294.814919 
L -2576.934775 295.00669 
L -2584.982852 295.054056 
L -2593.030929 295.266719 
L -2601.079005 295.49908 
L -2609.127082 295.501457 
L -2617.175159 295.405833 
L -2625.223236 295.336852 
L -2633.271313 295.829909 
L -2641.31939 295.743062 
L -2649.367467 296.073901 
L -2657.415544 296.078694 
L -2665.463621 295.949905 
L -2673.511698 296.277136 
L -2681.559775 295.969984 
L -2689.607852 295.983969 
L -2697.655929 296.399656 
L -2705.704005 296.097748 
L -2713.752082 296.490174 
L -2721.800159 296.614723 
L -2729.848236 296.280118 
L -2737.896313 295.219988 
L -2745.94439 295.893888 
L -2753.992467 295.56744 
L -2762.040544 293.991105 
L -2770.088621 295.328986 
L -2778.136698 295.601206 
L -2786.184775 294.142558 
L -2794.232852 293.740162 
L -2802.280929 294.516058 
L -2810.329005 292.933701 
L -2818.377082 290.088038 
L -2826.425159 293.207534 
L -2834.473236 294.404785 
L -2842.521313 294.995575 
L -2850.56939 291.131698 
L -2858.617467 291.290275 
L -2866.665544 289.334755 
L -2874.713621 287.813577 
L -2882.761698 290.873543 
L -2890.809775 289.555965 
L -2898.857852 286.826305 
L -2906.905929 284.912595 
L -2914.954005 285.025799 
L -2923.002082 285.352846 
L -2931.050159 284.946243 
L -2939.098236 284.702174 
L -2947.146313 285.787277 
L -2955.19439 285.653263 
L -2963.242467 284.938835 
L -2971.290544 285.369913 
L -2979.338621 285.074419 
L -2987.386698 284.955828 
L -2995.434775 284.978461 
L -3003.482852 285.402644 
L -3011.530929 285.653164 
L -3019.579005 285.79725 
L -3027.627082 286.165758 
L -3035.675159 286.339316 
L -3043.723236 286.635452 
L -3051.771313 287.105258 
L -3059.81939 287.473871 
L -3067.867467 287.724567 
L -3075.915544 288.004549 
L -3083.963621 288.374705 
L -3092.011698 288.608203 
L -3100.059775 288.963285 
L -3108.107852 289.394123 
L -3116.155929 289.652764 
L -3124.204005 289.825988 
L -3132.252082 290.090123 
L -3140.300159 290.361857 
L -3148.348236 290.611327 
L -3156.396313 290.849893 
L -3164.44439 291.079848 
L -3172.492467 291.395223 
L -3180.540544 291.559633 
L -3188.588621 291.79082 
L -3196.636698 292.031696 
L -3204.684775 292.23561 
L -3212.732852 292.43747 
L -3220.780929 292.606244 
L -3228.829005 292.789966 
L -3236.877082 293.034036 
L -3244.925159 293.204954 
L -3252.973236 293.404645 
L -3261.021313 293.566686 
L -3269.06939 293.747622 
L -3277.117467 293.929629 
L -3285.165544 294.113992 
L -3293.213621 294.269009 
L -3301.261698 294.452415 
L -3309.309775 294.613436 
L -3317.357852 294.786063 
L -3325.405929 294.946707 
L -3333.454005 295.112535 
L -3341.502082 295.267176 
L -3349.550159 295.431209 
L -3357.598236 295.604147 
L -3365.646313 295.73557 
L -3373.69439 295.90037 
L -3381.742467 296.042274 
L -3389.790544 296.206978 
L -3397.838621 296.32719 
L -3405.886698 296.480357 
L -3413.934775 296.626265 
L -3421.982852 296.765153 
L -3430.030929 296.906511 
L -3438.079005 297.037207 
L -3446.127082 297.189755 
L -3454.175159 297.32695 
L -3462.223236 297.439829 
L -3470.271313 297.574054 
L -3478.31939 297.708065 
L -3486.367467 297.841387 
L -3494.415544 297.969965 
L -3502.463621 298.089744 
L -3510.511698 298.221637 
L -3518.559775 298.350865 
L -3526.607852 298.480701 
L -3534.655929 298.610024 
L -3542.704005 298.742816 
L -3550.752082 298.880832 
L -3558.800159 298.99953 
L -3566.848236 299.135559 
L -3574.896313 299.268928 
L -3582.94439 299.396872 
L -3590.992467 299.528888 
L -3599.040544 299.663603 
L -3607.088621 299.794231 
L -3615.136698 299.931372 
L -3623.184775 300.056292 
L -3631.232852 300.183729 
L -3639.280929 300.318501 
L -3647.329005 300.448596 
L -3655.377082 300.57194 
L -3663.425159 300.702577 
L -3671.473236 300.821664 
L -3679.521313 300.949088 
L -3687.56939 301.084925 
L -3695.617467 301.201187 
L -3703.665544 301.33153 
L -3711.713621 301.454778 
L -3719.761698 301.584111 
L -3727.809775 301.700925 
L -3735.857852 301.837867 
L -3743.905929 301.950863 
L -3751.954005 302.07787 
L -3760.002082 302.202049 
L -3768.050159 302.329433 
L -3776.098236 302.450347 
L -3784.146313 302.573574 
L -3792.19439 302.697323 
L -3800.242467 302.825344 
L -3808.290544 302.94408 
L -3816.338621 303.053366 
L -3824.386698 303.164388 
L -3832.434775 303.276165 
L -3840.482852 303.38409 
L -3848.530929 303.493933 
L -3856.579005 303.60247 
L -3864.627082 303.706062 
L -3872.675159 303.810943 
L -3880.723236 303.915308 
L -3888.771313 304.010163 
L -3896.81939 304.106726 
L -3904.867467 304.207601 
L -3912.915544 304.303137 
L -3920.963621 304.38851 
L -3929.011698 304.482798 
L -3937.059775 304.568915 
L -3945.107852 304.648248 
L -3953.155929 304.727687 
L -3961.204005 304.801978 
L -3969.252082 304.882217 
L -3977.300159 304.948434 
L -3985.348236 305.018499 
L -3993.396313 305.084471 
L -4001.44439 305.145621 
L -4009.492467 305.201357 
L -4017.540544 305.25202 
L -4025.588621 305.302403 
L -4033.636698 305.352393 
L -4041.684775 305.393748 
L -4049.732852 305.440057 
L -4057.780929 305.479251 
L -4065.829005 305.513011 
L -4073.877082 305.552698 
L -4081.925159 305.587417 
L -4089.973236 305.616124 
L -4098.021313 305.646985 
L -4106.06939 305.677002 
L -4114.117467 305.703371 
L -4122.165544 305.729855 
L -4130.213621 305.751719 
L -4138.261698 305.778218 
L -4146.309775 305.799247 
L -4154.357852 305.82138 
L -4162.405929 305.84463 
L -4170.454005 305.863552 
L -4178.502082 305.883627 
L -4186.550159 305.909987 
L -4194.598236 305.928521 
L -4202.646313 305.951311 
L -4210.69439 305.969295 
L -4218.742467 305.993346 
L -4226.790544 306.012324 
L -4234.838621 306.03242 
L -4242.886698 306.049972 
L -4250.934775 306.065939 
L -4258.982852 306.084219 
L -4267.030929 306.104452 
L -4275.079005 306.124111 
L -4283.127082 306.1408 
L -4291.175159 306.154117 
L -4299.223236 306.173586 
L -4307.271313 306.189421 
L -4315.31939 306.208553 
z
" clip-path="url(#p1710ba0ef5)" style="fill: #008000; fill-opacity: 0.3; stroke: #008000; stroke-opacity: 0.3"/>
   </g>
   <g id="matplotlib.axis_1">
    <g id="xtick_1">
     <g id="line2d_1">
      <defs>
       <path id="m6e67547f34" d="M 0 0 
L 0 3.5 
" style="stroke: #000000; stroke-width: 0.8"/>
      </defs>
      <g>
       <use xlink:href="#m6e67547f34" x="103.074841" y="395.28" style="stroke: #000000; stroke-width: 0.8"/>
      </g>
     </g>
     <g id="text_1">
      <!-- 2023-01-01 -->
      <g transform="translate(17.945813 495.213718) rotate(-45) scale(0.2 -0.2)">
       <defs>
        <path id="DejaVuSans-32" d="M 1228 531 
L 3431 531 
L 3431 0 
L 469 0 
L 469 531 
Q 828 903 1448 1529 
Q 2069 2156 2228 2338 
Q 2531 2678 2651 2914 
Q 2772 3150 2772 3378 
Q 2772 3750 2511 3984 
Q 2250 4219 1831 4219 
Q 1534 4219 1204 4116 
Q 875 4013 500 3803 
L 500 4441 
Q 881 4594 1212 4672 
Q 1544 4750 1819 4750 
Q 2544 4750 2975 4387 
Q 3406 4025 3406 3419 
Q 3406 3131 3298 2873 
Q 3191 2616 2906 2266 
Q 2828 2175 2409 1742 
Q 1991 1309 1228 531 
z
" transform="scale(0.015625)"/>
        <path id="DejaVuSans-30" d="M 2034 4250 
Q 1547 4250 1301 3770 
Q 1056 3291 1056 2328 
Q 1056 1369 1301 889 
Q 1547 409 2034 409 
Q 2525 409 2770 889 
Q 3016 1369 3016 2328 
Q 3016 3291 2770 3770 
Q 2525 4250 2034 4250 
z
M 2034 4750 
Q 2819 4750 3233 4129 
Q 3647 3509 3647 2328 
Q 3647 1150 3233 529 
Q 2819 -91 2034 -91 
Q 1250 -91 836 529 
Q 422 1150 422 2328 
Q 422 3509 836 4129 
Q 1250 4750 2034 4750 
z
" transform="scale(0.015625)"/>
        <path id="DejaVuSans-33" d="M 2597 2516 
Q 3050 2419 3304 2112 
Q 3559 1806 3559 1356 
Q 3559 666 3084 287 
Q 2609 -91 1734 -91 
Q 1441 -91 1130 -33 
Q 819 25 488 141 
L 488 750 
Q 750 597 1062 519 
Q 1375 441 1716 441 
Q 2309 441 2620 675 
Q 2931 909 2931 1356 
Q 2931 1769 2642 2001 
Q 2353 2234 1838 2234 
L 1294 2234 
L 1294 2753 
L 1863 2753 
Q 2328 2753 2575 2939 
Q 2822 3125 2822 3475 
Q 2822 3834 2567 4026 
Q 2313 4219 1838 4219 
Q 1578 4219 1281 4162 
Q 984 4106 628 3988 
L 628 4550 
Q 988 4650 1302 4700 
Q 1616 4750 1894 4750 
Q 2613 4750 3031 4423 
Q 3450 4097 3450 3541 
Q 3450 3153 3228 2886 
Q 3006 2619 2597 2516 
z
" transform="scale(0.015625)"/>
        <path id="DejaVuSans-2d" d="M 313 2009 
L 1997 2009 
L 1997 1497 
L 313 1497 
L 313 2009 
z
" transform="scale(0.015625)"/>
        <path id="DejaVuSans-31" d="M 794 531 
L 1825 531 
L 1825 4091 
L 703 3866 
L 703 4441 
L 1819 4666 
L 2450 4666 
L 2450 531 
L 3481 531 
L 3481 0 
L 794 0 
L 794 531 
z
" transform="scale(0.015625)"/>
       </defs>
       <use xlink:href="#DejaVuSans-32"/>
       <use xlink:href="#DejaVuSans-30" x="63.623047"/>
       <use xlink:href="#DejaVuSans-32" x="127.246094"/>
       <use xlink:href="#DejaVuSans-33" x="190.869141"/>
       <use xlink:href="#DejaVuSans-2d" x="254.492188"/>
       <use xlink:href="#DejaVuSans-30" x="290.576172"/>
       <use xlink:href="#DejaVuSans-31" x="354.199219"/>
       <use xlink:href="#DejaVuSans-2d" x="417.822266"/>
       <use xlink:href="#DejaVuSans-30" x="453.90625"/>
       <use xlink:href="#DejaVuSans-31" x="517.529297"/>
      </g>
     </g>
    </g>
    <g id="xtick_2">
     <g id="line2d_2">
      <g>
       <use xlink:href="#m6e67547f34" x="215.747918" y="395.28" style="stroke: #000000; stroke-width: 0.8"/>
      </g>
     </g>
     <g id="text_2">
      <!-- 2023-01-15 -->
      <g transform="translate(130.61889 495.213718) rotate(-45) scale(0.2 -0.2)">
       <defs>
        <path id="DejaVuSans-35" d="M 691 4666 
L 3169 4666 
L 3169 4134 
L 1269 4134 
L 1269 2991 
Q 1406 3038 1543 3061 
Q 1681 3084 1819 3084 
Q 2600 3084 3056 2656 
Q 3513 2228 3513 1497 
Q 3513 744 3044 326 
Q 2575 -91 1722 -91 
Q 1428 -91 1123 -41 
Q 819 9 494 109 
L 494 744 
Q 775 591 1075 516 
Q 1375 441 1709 441 
Q 2250 441 2565 725 
Q 2881 1009 2881 1497 
Q 2881 1984 2565 2268 
Q 2250 2553 1709 2553 
Q 1456 2553 1204 2497 
Q 953 2441 691 2322 
L 691 4666 
z
" transform="scale(0.015625)"/>
       </defs>
       <use xlink:href="#DejaVuSans-32"/>
       <use xlink:href="#DejaVuSans-30" x="63.623047"/>
       <use xlink:href="#DejaVuSans-32" x="127.246094"/>
       <use xlink:href="#DejaVuSans-33" x="190.869141"/>
       <use xlink:href="#DejaVuSans-2d" x="254.492188"/>
       <use xlink:href="#DejaVuSans-30" x="290.576172"/>
       <use xlink:href="#DejaVuSans-31" x="354.199219"/>
       <use xlink:href="#DejaVuSans-2d" x="417.822266"/>
       <use xlink:href="#DejaVuSans-31" x="453.90625"/>
       <use xlink:href="#DejaVuSans-35" x="517.529297"/>
      </g>
     </g>
    </g>
    <g id="xtick_3">
     <g id="line2d_3">
      <g>
       <use xlink:href="#m6e67547f34" x="328.420995" y="395.28" style="stroke: #000000; stroke-width: 0.8"/>
      </g>
     </g>
     <g id="text_3">
      <!-- 2023-01-29 -->
      <g transform="translate(243.291967 495.213718) rotate(-45) scale(0.2 -0.2)">
       <defs>
        <path id="DejaVuSans-39" d="M 703 97 
L 703 672 
Q 941 559 1184 500 
Q 1428 441 1663 441 
Q 2288 441 2617 861 
Q 2947 1281 2994 2138 
Q 2813 1869 2534 1725 
Q 2256 1581 1919 1581 
Q 1219 1581 811 2004 
Q 403 2428 403 3163 
Q 403 3881 828 4315 
Q 1253 4750 1959 4750 
Q 2769 4750 3195 4129 
Q 3622 3509 3622 2328 
Q 3622 1225 3098 567 
Q 2575 -91 1691 -91 
Q 1453 -91 1209 -44 
Q 966 3 703 97 
z
M 1959 2075 
Q 2384 2075 2632 2365 
Q 2881 2656 2881 3163 
Q 2881 3666 2632 3958 
Q 2384 4250 1959 4250 
Q 1534 4250 1286 3958 
Q 1038 3666 1038 3163 
Q 1038 2656 1286 2365 
Q 1534 2075 1959 2075 
z
" transform="scale(0.015625)"/>
       </defs>
       <use xlink:href="#DejaVuSans-32"/>
       <use xlink:href="#DejaVuSans-30" x="63.623047"/>
       <use xlink:href="#DejaVuSans-32" x="127.246094"/>
       <use xlink:href="#DejaVuSans-33" x="190.869141"/>
       <use xlink:href="#DejaVuSans-2d" x="254.492188"/>
       <use xlink:href="#DejaVuSans-30" x="290.576172"/>
       <use xlink:href="#DejaVuSans-31" x="354.199219"/>
       <use xlink:href="#DejaVuSans-2d" x="417.822266"/>
       <use xlink:href="#DejaVuSans-32" x="453.90625"/>
       <use xlink:href="#DejaVuSans-39" x="517.529297"/>
      </g>
     </g>
    </g>
    <g id="xtick_4">
     <g id="line2d_4">
      <g>
       <use xlink:href="#m6e67547f34" x="441.094071" y="395.28" style="stroke: #000000; stroke-width: 0.8"/>
      </g>
     </g>
     <g id="text_4">
      <!-- 2023-02-12 -->
      <g transform="translate(355.965044 495.213718) rotate(-45) scale(0.2 -0.2)">
       <use xlink:href="#DejaVuSans-32"/>
       <use xlink:href="#DejaVuSans-30" x="63.623047"/>
       <use xlink:href="#DejaVuSans-32" x="127.246094"/>
       <use xlink:href="#DejaVuSans-33" x="190.869141"/>
       <use xlink:href="#DejaVuSans-2d" x="254.492188"/>
       <use xlink:href="#DejaVuSans-30" x="290.576172"/>
       <use xlink:href="#DejaVuSans-32" x="354.199219"/>
       <use xlink:href="#DejaVuSans-2d" x="417.822266"/>
       <use xlink:href="#DejaVuSans-31" x="453.90625"/>
       <use xlink:href="#DejaVuSans-32" x="517.529297"/>
      </g>
     </g>
    </g>
    <g id="xtick_5">
     <g id="line2d_5">
      <g>
       <use xlink:href="#m6e67547f34" x="553.767148" y="395.28" style="stroke: #000000; stroke-width: 0.8"/>
      </g>
     </g>
     <g id="text_5">
      <!-- 2023-02-26 -->
      <g transform="translate(468.638121 495.213718) rotate(-45) scale(0.2 -0.2)">
       <defs>
        <path id="DejaVuSans-36" d="M 2113 2584 
Q 1688 2584 1439 2293 
Q 1191 2003 1191 1497 
Q 1191 994 1439 701 
Q 1688 409 2113 409 
Q 2538 409 2786 701 
Q 3034 994 3034 1497 
Q 3034 2003 2786 2293 
Q 2538 2584 2113 2584 
z
M 3366 4563 
L 3366 3988 
Q 3128 4100 2886 4159 
Q 2644 4219 2406 4219 
Q 1781 4219 1451 3797 
Q 1122 3375 1075 2522 
Q 1259 2794 1537 2939 
Q 1816 3084 2150 3084 
Q 2853 3084 3261 2657 
Q 3669 2231 3669 1497 
Q 3669 778 3244 343 
Q 2819 -91 2113 -91 
Q 1303 -91 875 529 
Q 447 1150 447 2328 
Q 447 3434 972 4092 
Q 1497 4750 2381 4750 
Q 2619 4750 2861 4703 
Q 3103 4656 3366 4563 
z
" transform="scale(0.015625)"/>
       </defs>
       <use xlink:href="#DejaVuSans-32"/>
       <use xlink:href="#DejaVuSans-30" x="63.623047"/>
       <use xlink:href="#DejaVuSans-32" x="127.246094"/>
       <use xlink:href="#DejaVuSans-33" x="190.869141"/>
       <use xlink:href="#DejaVuSans-2d" x="254.492188"/>
       <use xlink:href="#DejaVuSans-30" x="290.576172"/>
       <use xlink:href="#DejaVuSans-32" x="354.199219"/>
       <use xlink:href="#DejaVuSans-2d" x="417.822266"/>
       <use xlink:href="#DejaVuSans-32" x="453.90625"/>
       <use xlink:href="#DejaVuSans-36" x="517.529297"/>
      </g>
     </g>
    </g>
    <g id="xtick_6">
     <g id="line2d_6">
      <g>
       <use xlink:href="#m6e67547f34" x="666.440225" y="395.28" style="stroke: #000000; stroke-width: 0.8"/>
      </g>
     </g>
     <g id="text_6">
      <!-- 2023-03-12 -->
      <g transform="translate(581.311198 495.213718) rotate(-45) scale(0.2 -0.2)">
       <use xlink:href="#DejaVuSans-32"/>
       <use xlink:href="#DejaVuSans-30" x="63.623047"/>
       <use xlink:href="#DejaVuSans-32" x="127.246094"/>
       <use xlink:href="#DejaVuSans-33" x="190.869141"/>
       <use xlink:href="#DejaVuSans-2d" x="254.492188"/>
       <use xlink:href="#DejaVuSans-30" x="290.576172"/>
       <use xlink:href="#DejaVuSans-33" x="354.199219"/>
       <use xlink:href="#DejaVuSans-2d" x="417.822266"/>
       <use xlink:href="#DejaVuSans-31" x="453.90625"/>
       <use xlink:href="#DejaVuSans-32" x="517.529297"/>
      </g>
     </g>
    </g>
    <g id="xtick_7">
     <g id="line2d_7">
      <g>
       <use xlink:href="#m6e67547f34" x="779.113302" y="395.28" style="stroke: #000000; stroke-width: 0.8"/>
      </g>
     </g>
     <g id="text_7">
      <!-- 2023-03-26 -->
      <g transform="translate(693.984275 495.213718) rotate(-45) scale(0.2 -0.2)">
       <use xlink:href="#DejaVuSans-32"/>
       <use xlink:href="#DejaVuSans-30" x="63.623047"/>
       <use xlink:href="#DejaVuSans-32" x="127.246094"/>
       <use xlink:href="#DejaVuSans-33" x="190.869141"/>
       <use xlink:href="#DejaVuSans-2d" x="254.492188"/>
       <use xlink:href="#DejaVuSans-30" x="290.576172"/>
       <use xlink:href="#DejaVuSans-33" x="354.199219"/>
       <use xlink:href="#DejaVuSans-2d" x="417.822266"/>
       <use xlink:href="#DejaVuSans-32" x="453.90625"/>
       <use xlink:href="#DejaVuSans-36" x="517.529297"/>
      </g>
     </g>
    </g>
    <g id="xtick_8">
     <g id="line2d_8">
      <g>
       <use xlink:href="#m6e67547f34" x="891.786379" y="395.28" style="stroke: #000000; stroke-width: 0.8"/>
      </g>
     </g>
     <g id="text_8">
      <!-- 2023-04-09 -->
      <g transform="translate(806.657352 495.213718) rotate(-45) scale(0.2 -0.2)">
       <defs>
        <path id="DejaVuSans-34" d="M 2419 4116 
L 825 1625 
L 2419 1625 
L 2419 4116 
z
M 2253 4666 
L 3047 4666 
L 3047 1625 
L 3713 1625 
L 3713 1100 
L 3047 1100 
L 3047 0 
L 2419 0 
L 2419 1100 
L 313 1100 
L 313 1709 
L 2253 4666 
z
" transform="scale(0.015625)"/>
       </defs>
       <use xlink:href="#DejaVuSans-32"/>
       <use xlink:href="#DejaVuSans-30" x="63.623047"/>
       <use xlink:href="#DejaVuSans-32" x="127.246094"/>
       <use xlink:href="#DejaVuSans-33" x="190.869141"/>
       <use xlink:href="#DejaVuSans-2d" x="254.492188"/>
       <use xlink:href="#DejaVuSans-30" x="290.576172"/>
       <use xlink:href="#DejaVuSans-34" x="354.199219"/>
       <use xlink:href="#DejaVuSans-2d" x="417.822266"/>
       <use xlink:href="#DejaVuSans-30" x="453.90625"/>
       <use xlink:href="#DejaVuSans-39" x="517.529297"/>
      </g>
     </g>
    </g>
    <g id="xtick_9">
     <g id="line2d_9">
      <g>
       <use xlink:href="#m6e67547f34" x="940.074841" y="395.28" style="stroke: #000000; stroke-width: 0.8"/>
      </g>
     </g>
     <g id="text_9">
      <!-- 2023-04-15 -->
      <g transform="translate(854.945813 495.213718) rotate(-45) scale(0.2 -0.2)">
       <use xlink:href="#DejaVuSans-32"/>
       <use xlink:href="#DejaVuSans-30" x="63.623047"/>
       <use xlink:href="#DejaVuSans-32" x="127.246094"/>
       <use xlink:href="#DejaVuSans-33" x="190.869141"/>
       <use xlink:href="#DejaVuSans-2d" x="254.492188"/>
       <use xlink:href="#DejaVuSans-30" x="290.576172"/>
       <use xlink:href="#DejaVuSans-34" x="354.199219"/>
       <use xlink:href="#DejaVuSans-2d" x="417.822266"/>
       <use xlink:href="#DejaVuSans-31" x="453.90625"/>
       <use xlink:href="#DejaVuSans-35" x="517.529297"/>
      </g>
     </g>
    </g>
   </g>
   <g id="matplotlib.axis_2">
    <g id="ytick_1">
     <g id="line2d_10">
      <defs>
       <path id="mf7e9157b68" d="M 0 0 
L -3.5 0 
" style="stroke: #000000; stroke-width: 0.8"/>
      </defs>
      <g>
       <use xlink:href="#mf7e9157b68" x="103.074841" y="362.504207" style="stroke: #000000; stroke-width: 0.8"/>
      </g>
     </g>
     <g id="text_10">
      <!-- −0.2 -->
      <g transform="translate(47.509216 370.102644) scale(0.2 -0.2)">
       <defs>
        <path id="DejaVuSans-2212" d="M 678 2272 
L 4684 2272 
L 4684 1741 
L 678 1741 
L 678 2272 
z
" transform="scale(0.015625)"/>
        <path id="DejaVuSans-2e" d="M 684 794 
L 1344 794 
L 1344 0 
L 684 0 
L 684 794 
z
" transform="scale(0.015625)"/>
       </defs>
       <use xlink:href="#DejaVuSans-2212"/>
       <use xlink:href="#DejaVuSans-30" x="83.789062"/>
       <use xlink:href="#DejaVuSans-2e" x="147.412109"/>
       <use xlink:href="#DejaVuSans-32" x="179.199219"/>
      </g>
     </g>
    </g>
    <g id="ytick_2">
     <g id="line2d_11">
      <g>
       <use xlink:href="#mf7e9157b68" x="103.074841" y="306.226839" style="stroke: #000000; stroke-width: 0.8"/>
      </g>
     </g>
     <g id="text_11">
      <!-- 0.0 -->
      <g transform="translate(64.268591 313.825276) scale(0.2 -0.2)">
       <use xlink:href="#DejaVuSans-30"/>
       <use xlink:href="#DejaVuSans-2e" x="63.623047"/>
       <use xlink:href="#DejaVuSans-30" x="95.410156"/>
      </g>
     </g>
    </g>
    <g id="ytick_3">
     <g id="line2d_12">
      <g>
       <use xlink:href="#mf7e9157b68" x="103.074841" y="249.949471" style="stroke: #000000; stroke-width: 0.8"/>
      </g>
     </g>
     <g id="text_12">
      <!-- 0.2 -->
      <g transform="translate(64.268591 257.547909) scale(0.2 -0.2)">
       <use xlink:href="#DejaVuSans-30"/>
       <use xlink:href="#DejaVuSans-2e" x="63.623047"/>
       <use xlink:href="#DejaVuSans-32" x="95.410156"/>
      </g>
     </g>
    </g>
    <g id="ytick_4">
     <g id="line2d_13">
      <g>
       <use xlink:href="#mf7e9157b68" x="103.074841" y="193.672103" style="stroke: #000000; stroke-width: 0.8"/>
      </g>
     </g>
     <g id="text_13">
      <!-- 0.4 -->
      <g transform="translate(64.268591 201.270541) scale(0.2 -0.2)">
       <use xlink:href="#DejaVuSans-30"/>
       <use xlink:href="#DejaVuSans-2e" x="63.623047"/>
       <use xlink:href="#DejaVuSans-34" x="95.410156"/>
      </g>
     </g>
    </g>
    <g id="ytick_5">
     <g id="line2d_14">
      <g>
       <use xlink:href="#mf7e9157b68" x="103.074841" y="137.394736" style="stroke: #000000; stroke-width: 0.8"/>
      </g>
     </g>
     <g id="text_14">
      <!-- 0.6 -->
      <g transform="translate(64.268591 144.993173) scale(0.2 -0.2)">
       <use xlink:href="#DejaVuSans-30"/>
       <use xlink:href="#DejaVuSans-2e" x="63.623047"/>
       <use xlink:href="#DejaVuSans-36" x="95.410156"/>
      </g>
     </g>
    </g>
    <g id="ytick_6">
     <g id="line2d_15">
      <g>
       <use xlink:href="#mf7e9157b68" x="103.074841" y="81.117368" style="stroke: #000000; stroke-width: 0.8"/>
      </g>
     </g>
     <g id="text_15">
      <!-- 0.8 -->
      <g transform="translate(64.268591 88.715805) scale(0.2 -0.2)">
       <defs>
        <path id="DejaVuSans-38" d="M 2034 2216 
Q 1584 2216 1326 1975 
Q 1069 1734 1069 1313 
Q 1069 891 1326 650 
Q 1584 409 2034 409 
Q 2484 409 2743 651 
Q 3003 894 3003 1313 
Q 3003 1734 2745 1975 
Q 2488 2216 2034 2216 
z
M 1403 2484 
Q 997 2584 770 2862 
Q 544 3141 544 3541 
Q 544 4100 942 4425 
Q 1341 4750 2034 4750 
Q 2731 4750 3128 4425 
Q 3525 4100 3525 3541 
Q 3525 3141 3298 2862 
Q 3072 2584 2669 2484 
Q 3125 2378 3379 2068 
Q 3634 1759 3634 1313 
Q 3634 634 3220 271 
Q 2806 -91 2034 -91 
Q 1263 -91 848 271 
Q 434 634 434 1313 
Q 434 1759 690 2068 
Q 947 2378 1403 2484 
z
M 1172 3481 
Q 1172 3119 1398 2916 
Q 1625 2713 2034 2713 
Q 2441 2713 2670 2916 
Q 2900 3119 2900 3481 
Q 2900 3844 2670 4047 
Q 2441 4250 2034 4250 
Q 1625 4250 1398 4047 
Q 1172 3844 1172 3481 
z
" transform="scale(0.015625)"/>
       </defs>
       <use xlink:href="#DejaVuSans-30"/>
       <use xlink:href="#DejaVuSans-2e" x="63.623047"/>
       <use xlink:href="#DejaVuSans-38" x="95.410156"/>
      </g>
     </g>
    </g>
    <g id="ytick_7">
     <g id="line2d_16">
      <g>
       <use xlink:href="#mf7e9157b68" x="103.074841" y="24.84" style="stroke: #000000; stroke-width: 0.8"/>
      </g>
     </g>
     <g id="text_16">
      <!-- 1.0 -->
      <g transform="translate(64.268591 32.438437) scale(0.2 -0.2)">
       <use xlink:href="#DejaVuSans-31"/>
       <use xlink:href="#DejaVuSans-2e" x="63.623047"/>
       <use xlink:href="#DejaVuSans-30" x="95.410156"/>
      </g>
     </g>
    </g>
   </g>
   <g id="line2d_17">
    <path d="M 763.017148 306.226839 
L 803.257533 306.226839 
L 811.30561 24.84 
L 819.353687 306.226839 
L 827.401764 306.226839 
L 835.449841 160.163442 
L 843.497918 130.059712 
L 851.545995 306.226839 
L 867.642148 306.226839 
L 875.690225 363.184672 
L 883.738302 306.226839 
L 923.978687 306.226839 
L 932.026764 377.64 
L 940.074841 306.226839 
L 940.074841 306.226839 
" clip-path="url(#p1710ba0ef5)" style="fill: none; stroke: #ffa500; stroke-width: 1.5; stroke-linecap: square"/>
   </g>
   <g id="line2d_18">
    <path d="M 103.074841 306.226839 
L 948.274841 306.226839 
" clip-path="url(#p1710ba0ef5)" style="fill: none; stroke-dasharray: 7.4,3.2; stroke-dashoffset: 0; stroke: #000000; stroke-width: 2"/>
   </g>
   <g id="patch_3">
    <path d="M 103.074841 395.28 
L 103.074841 7.2 
" style="fill: none; stroke: #000000; stroke-width: 0.8; stroke-linejoin: miter; stroke-linecap: square"/>
   </g>
   <g id="patch_4">
    <path d="M 940.074841 395.28 
L 940.074841 7.2 
" style="fill: none; stroke: #000000; stroke-width: 0.8; stroke-linejoin: miter; stroke-linecap: square"/>
   </g>
   <g id="patch_5">
    <path d="M 103.074841 395.28 
L 940.074841 395.28 
" style="fill: none; stroke: #000000; stroke-width: 0.8; stroke-linejoin: miter; stroke-linecap: square"/>
   </g>
   <g id="patch_6">
    <path d="M 103.074841 7.2 
L 940.074841 7.2 
" style="fill: none; stroke: #000000; stroke-width: 0.8; stroke-linejoin: miter; stroke-linecap: square"/>
   </g>
  </g>
 </g>
 <defs>
  <clipPath id="p1710ba0ef5">
   <rect x="103.074841" y="7.2" width="837" height="388.08"/>
  </clipPath>
 </defs>
</svg>
