<?xml version="1.0" encoding="utf-8" standalone="no"?>
<!DOCTYPE svg PUBLIC "-//W3C//DTD SVG 1.1//EN"
  "http://www.w3.org/Graphics/SVG/1.1/DTD/svg11.dtd">
<svg xmlns:xlink="http://www.w3.org/1999/xlink" width="947.274841pt" height="505.354841pt" viewBox="0 0 947.274841 505.354841" xmlns="http://www.w3.org/2000/svg" version="1.1">
 <metadata>
  <rdf:RDF xmlns:dc="http://purl.org/dc/elements/1.1/" xmlns:cc="http://creativecommons.org/ns#" xmlns:rdf="http://www.w3.org/1999/02/22-rdf-syntax-ns#">
   <cc:Work>
    <dc:type rdf:resource="http://purl.org/dc/dcmitype/StillImage"/>
    <dc:date>2023-11-21T19:32:48.694248</dc:date>
    <dc:format>image/svg+xml</dc:format>
    <dc:creator>
     <cc:Agent>
      <dc:title>Matplotlib v3.7.2, https://matplotlib.org/</dc:title>
     </cc:Agent>
    </dc:creator>
   </cc:Work>
  </rdf:RDF>
 </metadata>
 <defs>
  <style type="text/css">*{stroke-linejoin: round; stroke-linecap: butt}</style>
 </defs>
 <g id="figure_1">
  <g id="patch_1">
   <path d="M 0 505.354841 
L 947.274841 505.354841 
L 947.274841 -0 
L 0 -0 
z
" style="fill: #ffffff"/>
  </g>
  <g id="axes_1">
   <g id="patch_2">
    <path d="M 103.074841 395.28 
L 940.074841 395.28 
L 940.074841 7.2 
L 103.074841 7.2 
z
" style="fill: #ffffff"/>
   </g>
   <g id="PolyCollection_1">
    <path d="M -393.000769 377.541323 
L -393.000769 377.559468 
L -390.959306 377.458149 
L -388.917842 377.373549 
L -386.876379 377.269967 
L -384.834915 377.201891 
L -382.793452 377.128291 
L -380.751989 377.036823 
L -378.710525 376.948988 
L -376.669062 376.869486 
L -374.627598 376.802436 
L -372.586135 376.720715 
L -370.544672 376.630849 
L -368.503208 376.542238 
L -366.461745 376.441051 
L -364.420281 376.356987 
L -362.378818 376.258424 
L -360.337354 376.160824 
L -358.295891 376.052945 
L -356.254428 375.9577 
L -354.212964 375.866225 
L -352.171501 375.754895 
L -350.130037 375.646773 
L -348.088574 375.542773 
L -346.047111 375.416078 
L -344.005647 375.308624 
L -341.964184 375.174406 
L -339.92272 375.047912 
L -337.881257 374.898858 
L -335.839793 374.744594 
L -333.79833 374.599139 
L -331.756867 374.434626 
L -329.715403 374.240378 
L -327.67394 374.071681 
L -325.632476 373.877861 
L -323.591013 373.653144 
L -321.54955 373.440794 
L -319.508086 373.20567 
L -317.466623 372.958367 
L -315.425159 372.707287 
L -313.383696 372.429188 
L -311.342232 372.128864 
L -309.300769 371.819076 
L -307.259306 371.489563 
L -305.217842 371.152153 
L -303.176379 370.787236 
L -301.134915 370.429393 
L -299.093452 370.038861 
L -297.051989 369.66493 
L -295.010525 369.246744 
L -292.969062 368.799736 
L -290.927598 368.380128 
L -288.886135 367.930301 
L -286.844672 367.452772 
L -284.803208 366.987708 
L -282.761745 366.515892 
L -280.720281 366.020637 
L -278.678818 365.521174 
L -276.637354 365.018002 
L -274.595891 364.49212 
L -272.554428 363.95992 
L -270.512964 363.431092 
L -268.471501 362.882881 
L -266.430037 362.332022 
L -264.388574 361.787358 
L -262.347111 361.210534 
L -260.305647 360.625927 
L -258.264184 360.041948 
L -256.22272 359.459883 
L -254.181257 358.883815 
L -252.139793 358.289819 
L -250.09833 357.70735 
L -248.056867 357.11292 
L -246.015403 356.573421 
L -243.97394 355.944776 
L -241.932476 355.371783 
L -239.891013 354.780544 
L -237.84955 354.225538 
L -235.808086 353.621695 
L -233.766623 353.050116 
L -231.725159 352.475383 
L -229.683696 351.902327 
L -227.642232 351.338947 
L -225.600769 350.771323 
L -223.559306 350.234122 
L -221.517842 349.662588 
L -219.476379 349.077767 
L -217.434915 348.515812 
L -215.393452 347.978244 
L -213.351989 347.394362 
L -211.310525 346.834578 
L -209.269062 346.259954 
L -207.227598 345.699789 
L -205.186135 345.160675 
L -203.144672 344.604596 
L -201.103208 344.041535 
L -199.061745 343.540508 
L -197.020281 342.96326 
L -194.978818 342.412272 
L -192.937354 341.870558 
L -190.895891 341.327198 
L -188.854428 340.784579 
L -186.812964 340.233478 
L -184.771501 339.709665 
L -182.730037 339.162344 
L -180.688574 338.599353 
L -178.647111 338.02909 
L -176.605647 337.451971 
L -174.564184 336.915057 
L -172.52272 336.317989 
L -170.481257 335.67931 
L -168.439793 335.076215 
L -166.39833 334.450186 
L -164.356867 333.808544 
L -162.315403 333.128377 
L -160.27394 332.435455 
L -158.232476 331.795594 
L -156.191013 331.060467 
L -154.14955 330.365023 
L -152.108086 329.612204 
L -150.066623 328.925926 
L -148.025159 328.111194 
L -145.983696 327.31348 
L -143.942232 326.541291 
L -141.900769 325.755661 
L -139.859306 324.945381 
L -137.817842 324.096412 
L -135.776379 323.305516 
L -133.734915 322.391018 
L -131.693452 321.595871 
L -129.651989 320.655126 
L -127.610525 319.747757 
L -125.569062 318.863738 
L -123.527598 317.930837 
L -121.486135 316.983846 
L -119.444672 316.129166 
L -117.403208 314.979081 
L -115.361745 314.001505 
L -113.320281 313.096996 
L -111.278818 312.067493 
L -109.237354 310.973431 
L -107.195891 309.770084 
L -105.154428 308.641153 
L -103.112964 307.708126 
L -101.071501 306.17717 
L -99.030037 304.96984 
L -96.988574 303.736571 
L -94.947111 302.459457 
L -92.905647 300.992512 
L -90.864184 299.590081 
L -88.82272 298.597758 
L -86.781257 297.310813 
L -84.739793 295.064121 
L -82.69833 293.230374 
L -80.656867 291.879794 
L -78.615403 290.095378 
L -76.57394 288.410245 
L -74.532476 287.161715 
L -72.491013 285.065405 
L -70.44955 282.744589 
L -68.408086 281.261208 
L -66.366623 280.262256 
L -64.325159 278.316359 
L -62.283696 277.304719 
L -60.242232 276.239716 
L -58.200769 273.91985 
L -56.159306 273.797613 
L -54.117842 274.525618 
L -52.076379 275.893387 
L -50.034915 273.93116 
L -47.993452 277.875059 
L -45.951989 279.26147 
L -43.910525 274.229327 
L -41.869062 274.867899 
L -39.827598 277.850118 
L -37.786135 276.395603 
L -35.744672 276.923814 
L -33.703208 287.32852 
L -31.661745 301.731844 
L -29.620281 309.571744 
L -27.578818 293.192453 
L -25.537354 301.307288 
L -23.495891 312.146125 
L -21.454428 312.135903 
L -19.412964 333.723721 
L -17.371501 330.542349 
L -15.330037 324.895224 
L -13.288574 307.537944 
L -11.247111 323.196376 
L -9.205647 332.444944 
L -7.164184 328.681845 
L -5.12272 331.383532 
L -3.081257 340.408797 
L -1.039793 339.222377 
L 1.00167 331.234153 
L 3.043133 340.962954 
L 5.084597 342.795724 
L 7.12606 339.243156 
L 9.167524 345.536382 
L 11.208987 347.987054 
L 13.25045 347.206072 
L 15.291914 345.448191 
L 17.333377 347.591071 
L 19.374841 345.639094 
L 21.416304 345.917748 
L 23.457768 347.828159 
L 25.499231 346.110429 
L 27.540694 347.101296 
L 29.582158 347.257105 
L 31.623621 345.899551 
L 33.665085 346.563147 
L 35.706548 344.445111 
L 37.748011 344.765863 
L 39.789475 345.469439 
L 41.830938 345.605473 
L 43.872402 344.686874 
L 45.913865 343.902847 
L 47.955328 343.772901 
L 49.996792 342.972003 
L 52.038255 342.9475 
L 54.079719 342.800936 
L 56.121182 341.565454 
L 58.162646 342.400724 
L 60.204109 341.493419 
L 62.245572 341.194105 
L 64.287036 341.349473 
L 66.328499 340.537903 
L 68.369963 340.502448 
L 70.411426 340.975305 
L 72.452889 341.475575 
L 74.494353 340.038227 
L 76.535816 339.829075 
L 78.57728 339.476355 
L 80.618743 342.11336 
L 82.660207 342.202827 
L 84.70167 343.240938 
L 86.743133 340.843469 
L 88.784597 339.318962 
L 90.82606 339.861472 
L 92.867524 341.565958 
L 94.908987 341.851408 
L 96.95045 338.733542 
L 98.991914 341.370032 
L 101.033377 340.506146 
L 103.074841 340.241439 
L 105.116304 338.767429 
L 107.157768 339.7867 
L 109.199231 338.993114 
L 111.240694 339.625991 
L 113.282158 338.711563 
L 115.323621 337.569583 
L 117.365085 336.242793 
L 119.406548 335.576982 
L 121.448011 334.702916 
L 123.489475 333.800849 
L 125.530938 333.599692 
L 127.572402 332.551144 
L 129.613865 331.551818 
L 131.655328 329.444545 
L 133.696792 327.524718 
L 135.738255 326.549863 
L 137.779719 324.587733 
L 139.821182 323.932841 
L 141.862646 322.129889 
L 143.904109 319.798622 
L 145.945572 317.726266 
L 147.987036 316.102484 
L 150.028499 313.653858 
L 152.069963 312.030144 
L 154.111426 309.701411 
L 156.152889 307.386795 
L 158.194353 305.265245 
L 160.235816 303.005934 
L 162.27728 300.521724 
L 164.318743 298.12189 
L 166.360207 295.764785 
L 168.40167 292.891899 
L 170.443133 290.360082 
L 172.484597 288.017535 
L 174.52606 285.506053 
L 176.567524 282.725705 
L 178.608987 279.943244 
L 180.65045 277.215676 
L 182.691914 273.637974 
L 184.733377 271.281124 
L 186.774841 268.460162 
L 188.816304 266.097986 
L 190.857768 262.644739 
L 192.899231 259.313016 
L 194.940694 256.775962 
L 196.982158 253.276095 
L 199.023621 249.668092 
L 201.065085 246.922332 
L 203.106548 243.312749 
L 205.148011 240.5951 
L 207.189475 237.14668 
L 209.230938 232.823711 
L 211.272402 229.334042 
L 213.313865 226.74265 
L 215.355328 222.612484 
L 217.396792 219.213323 
L 219.438255 215.261332 
L 221.479719 212.379977 
L 223.521182 207.875575 
L 225.562646 203.974113 
L 227.604109 203.992757 
L 229.645572 196.755763 
L 231.687036 195.09725 
L 233.728499 190.84436 
L 235.769963 188.560211 
L 237.811426 184.168509 
L 239.852889 181.084931 
L 241.894353 177.595047 
L 243.935816 174.742592 
L 245.97728 172.020307 
L 248.018743 168.731786 
L 250.060207 170.396456 
L 252.10167 161.774284 
L 254.143133 160.559213 
L 256.184597 163.866524 
L 258.22606 155.984163 
L 260.267524 157.098067 
L 262.308987 156.036892 
L 264.35045 150.929496 
L 266.391914 151.305875 
L 268.433377 156.412899 
L 270.474841 150.916244 
L 272.516304 150.184428 
L 274.557768 152.137153 
L 276.599231 151.83915 
L 278.640694 153.735104 
L 280.682158 156.8371 
L 282.723621 160.368526 
L 284.765085 173.826835 
L 286.806548 168.376536 
L 288.848011 175.360211 
L 290.889475 179.317954 
L 292.930938 182.411404 
L 294.972402 187.033512 
L 297.013865 191.592783 
L 299.055328 184.306394 
L 301.096792 189.571918 
L 303.138255 198.96708 
L 305.179719 202.961277 
L 307.221182 203.442723 
L 309.262646 219.701848 
L 311.304109 220.764369 
L 313.345572 224.439312 
L 315.387036 223.433696 
L 317.428499 237.359768 
L 319.469963 233.36348 
L 321.511426 229.852238 
L 323.552889 242.717956 
L 325.594353 250.648497 
L 327.635816 249.954942 
L 329.67728 255.688468 
L 331.718743 257.057707 
L 333.760207 257.497125 
L 335.80167 257.395526 
L 337.843133 258.96768 
L 339.884597 261.097883 
L 341.92606 269.805216 
L 343.967524 263.775902 
L 346.008987 271.223616 
L 348.05045 269.834595 
L 350.091914 268.229612 
L 352.133377 271.004473 
L 354.174841 273.386392 
L 356.216304 268.838339 
L 358.257768 271.983442 
L 360.299231 271.502925 
L 362.340694 274.887136 
L 364.382158 273.11298 
L 366.423621 271.051804 
L 368.465085 272.6716 
L 370.506548 272.510295 
L 372.548011 271.51053 
L 374.589475 269.889405 
L 376.630938 270.377991 
L 378.672402 267.341975 
L 380.713865 267.437706 
L 382.755328 270.337172 
L 384.796792 269.3136 
L 386.838255 266.043491 
L 388.879719 265.580081 
L 390.921182 264.572749 
L 392.962646 260.422803 
L 395.004109 261.19781 
L 397.045572 262.808839 
L 399.087036 258.701546 
L 401.128499 257.612796 
L 403.169963 255.228108 
L 405.211426 255.427539 
L 407.252889 254.287713 
L 409.294353 252.402431 
L 411.335816 251.220586 
L 413.37728 249.968138 
L 415.418743 248.168929 
L 417.460207 245.061358 
L 419.50167 243.595516 
L 421.543133 241.409746 
L 423.584597 237.000126 
L 425.62606 239.292569 
L 427.667524 234.327186 
L 429.708987 234.894411 
L 431.75045 234.046327 
L 433.791914 233.644115 
L 435.833377 230.797323 
L 437.874841 230.619384 
L 439.916304 229.839339 
L 441.957768 225.000574 
L 443.999231 225.740595 
L 446.040694 224.625273 
L 448.082158 224.935531 
L 450.123621 221.692135 
L 452.165085 222.248764 
L 454.206548 221.119622 
L 456.248011 216.649024 
L 458.289475 215.96601 
L 460.330938 214.583926 
L 462.372402 213.887579 
L 464.413865 211.669133 
L 466.455328 211.554654 
L 468.496792 210.360862 
L 470.538255 209.370916 
L 472.579719 207.819947 
L 474.621182 205.410054 
L 476.662646 207.201083 
L 478.704109 206.340688 
L 480.745572 204.426772 
L 482.787036 203.160838 
L 484.828499 200.263201 
L 486.869963 202.149492 
L 488.911426 201.35393 
L 490.952889 200.974437 
L 492.994353 199.240249 
L 495.035816 197.351832 
L 497.07728 195.992777 
L 499.118743 195.763228 
L 501.160207 195.216448 
L 503.20167 194.829179 
L 505.243133 192.518769 
L 507.284597 190.36749 
L 509.32606 192.619376 
L 511.367524 189.460763 
L 513.408987 189.652558 
L 515.45045 190.376057 
L 517.491914 185.620869 
L 519.533377 186.109202 
L 521.574841 186.630596 
L 523.616304 184.802252 
L 525.657768 186.636438 
L 527.699231 183.475617 
L 529.740694 181.079326 
L 531.782158 183.951143 
L 533.823621 183.775648 
L 535.865085 181.628665 
L 537.906548 182.351603 
L 539.948011 181.039333 
L 541.989475 185.380208 
L 544.030938 184.110836 
L 546.072402 184.405844 
L 548.113865 180.297473 
L 550.155328 177.417428 
L 552.196792 180.730552 
L 554.238255 184.461257 
L 556.279719 179.757572 
L 558.321182 179.208121 
L 560.362646 175.784326 
L 562.404109 176.210737 
L 564.445572 178.063804 
L 566.487036 175.437641 
L 568.528499 172.890926 
L 570.569963 177.102287 
L 572.611426 174.067222 
L 574.652889 177.752665 
L 576.694353 178.477539 
L 578.735816 172.216394 
L 580.77728 173.071626 
L 582.818743 171.116364 
L 584.860207 172.841861 
L 586.90167 175.202824 
L 588.943133 181.908234 
L 590.984597 184.415911 
L 593.02606 181.662938 
L 595.067524 188.276148 
L 597.108987 198.420118 
L 599.15045 186.367156 
L 601.191914 182.224561 
L 603.233377 186.598114 
L 605.274841 190.418314 
L 607.316304 191.169938 
L 609.357768 188.949315 
L 611.399231 196.750029 
L 613.440694 201.478881 
L 615.482158 192.862515 
L 617.523621 200.776873 
L 619.565085 197.08424 
L 621.606548 197.145412 
L 623.648011 204.383025 
L 625.689475 202.314378 
L 627.730938 208.101049 
L 629.772402 208.552465 
L 631.813865 200.464509 
L 633.855328 206.894249 
L 635.896792 206.494892 
L 637.938255 211.58677 
L 639.979719 209.512762 
L 642.021182 215.546466 
L 644.062646 211.306309 
L 646.104109 214.852441 
L 648.145572 215.132735 
L 650.187036 217.154994 
L 652.228499 211.130648 
L 654.269963 217.961181 
L 656.311426 219.952793 
L 658.352889 222.682838 
L 660.394353 227.382981 
L 662.435816 225.761117 
L 664.47728 224.535398 
L 666.518743 228.693825 
L 668.560207 232.39024 
L 670.60167 228.735784 
L 672.643133 226.905721 
L 674.684597 230.854263 
L 676.72606 233.536431 
L 678.767524 228.340032 
L 680.808987 227.158105 
L 682.85045 236.694432 
L 684.891914 239.969975 
L 686.933377 230.498782 
L 688.974841 233.298165 
L 691.016304 235.168045 
L 693.057768 236.597317 
L 695.099231 242.46376 
L 697.140694 239.998916 
L 699.182158 236.62377 
L 701.223621 240.788847 
L 703.265085 243.059877 
L 705.306548 236.824342 
L 707.348011 238.048465 
L 709.389475 237.722879 
L 711.430938 247.439874 
L 713.472402 253.467434 
L 715.513865 254.290596 
L 717.555328 246.635892 
L 719.596792 243.457561 
L 721.638255 245.964877 
L 723.679719 246.569843 
L 725.721182 255.45593 
L 727.762646 244.96794 
L 729.804109 253.928166 
L 731.845572 259.592079 
L 733.887036 254.615171 
L 735.928499 264.137401 
L 737.969963 258.528694 
L 740.011426 260.839536 
L 742.052889 261.914561 
L 744.094353 264.10239 
L 746.135816 268.894443 
L 748.17728 266.05415 
L 750.218743 269.058024 
L 752.260207 270.702172 
L 754.30167 270.958438 
L 756.343133 260.193558 
L 758.384597 276.221545 
L 760.42606 281.984034 
L 762.467524 276.269009 
L 764.508987 280.952932 
L 766.55045 282.868921 
L 768.591914 280.342205 
L 770.633377 285.513998 
L 772.674841 292.169337 
L 774.716304 290.532807 
L 776.757768 292.493499 
L 778.799231 295.057061 
L 780.840694 295.873349 
L 782.882158 300.443344 
L 784.923621 291.877659 
L 786.965085 305.018592 
L 789.006548 305.160236 
L 791.048011 304.36082 
L 793.089475 298.08784 
L 795.130938 308.523758 
L 797.172402 316.657159 
L 799.213865 308.341226 
L 801.255328 310.479219 
L 803.296792 319.266866 
L 805.338255 303.364646 
L 807.379719 318.073013 
L 809.421182 309.92316 
L 811.462646 324.306857 
L 813.504109 316.83424 
L 815.545572 323.763165 
L 817.587036 324.906661 
L 819.628499 329.47332 
L 821.669963 329.464171 
L 823.711426 327.288508 
L 825.752889 326.857427 
L 827.794353 329.796891 
L 829.835816 336.041698 
L 831.87728 335.657937 
L 833.918743 335.008508 
L 835.960207 340.276699 
L 838.00167 340.188169 
L 840.043133 339.083424 
L 842.084597 338.239629 
L 844.12606 344.693127 
L 846.167524 345.495985 
L 848.208987 347.220936 
L 850.25045 343.749405 
L 852.291914 338.085217 
L 854.333377 346.277203 
L 856.374841 342.849926 
L 858.416304 345.625159 
L 860.457768 348.414575 
L 862.499231 344.980182 
L 864.540694 350.162994 
L 866.582158 346.53553 
L 868.623621 346.340847 
L 870.665085 347.592649 
L 872.706548 350.731969 
L 874.748011 349.220244 
L 876.789475 348.853618 
L 878.830938 346.975709 
L 880.872402 347.668438 
L 882.913865 348.582463 
L 884.955328 347.788068 
L 886.996792 350.818468 
L 889.038255 349.671729 
L 891.079719 352.053908 
L 893.121182 353.034923 
L 895.162646 353.314444 
L 897.204109 351.650506 
L 899.245572 351.214316 
L 901.287036 350.149344 
L 903.328499 351.349396 
L 905.369963 350.915358 
L 907.411426 348.938756 
L 909.452889 351.113245 
L 911.494353 341.131916 
L 913.535816 350.334432 
L 915.57728 352.904243 
L 917.618743 349.244685 
L 919.660207 349.113148 
L 921.70167 350.992577 
L 923.743133 351.105095 
L 925.784597 348.093884 
L 927.82606 347.242074 
L 929.867524 348.811302 
L 931.908987 347.303432 
L 933.95045 351.333682 
L 935.991914 348.20726 
L 938.033377 351.893449 
L 940.074841 348.262174 
L 940.074841 330.507094 
L 940.074841 330.507094 
L 938.033377 327.010596 
L 935.991914 322.23633 
L 933.95045 327.714643 
L 931.908987 318.002698 
L 929.867524 321.299667 
L 927.82606 319.829286 
L 925.784597 310.332509 
L 923.743133 321.065788 
L 921.70167 327.138391 
L 919.660207 312.273829 
L 917.618743 318.915773 
L 915.57728 326.253766 
L 913.535816 321.558315 
L 911.494353 262.132936 
L 909.452889 320.333752 
L 907.411426 309.858784 
L 905.369963 320.633488 
L 903.328499 320.348389 
L 901.287036 316.868708 
L 899.245572 316.36065 
L 897.204109 316.046465 
L 895.162646 322.830841 
L 893.121182 322.261757 
L 891.079719 315.587564 
L 889.038255 307.40706 
L 886.996792 312.86716 
L 884.955328 303.703563 
L 882.913865 306.41914 
L 880.872402 301.294732 
L 878.830938 297.943607 
L 876.789475 304.871746 
L 874.748011 305.139673 
L 872.706548 307.861524 
L 870.665085 301.141 
L 868.623621 294.398206 
L 866.582158 294.365592 
L 864.540694 307.441329 
L 862.499231 289.987681 
L 860.457768 301.708006 
L 858.416304 293.588445 
L 856.374841 286.004798 
L 854.333377 295.886875 
L 852.291914 266.334973 
L 850.25045 288.887298 
L 848.208987 298.442125 
L 846.167524 293.060074 
L 844.12606 292.169535 
L 842.084597 268.611809 
L 840.043133 274.012126 
L 838.00167 278.326044 
L 835.960207 279.728632 
L 833.918743 264.681729 
L 831.87728 267.932058 
L 829.835816 267.721361 
L 827.794353 255.680613 
L 825.752889 244.992465 
L 823.711426 245.02594 
L 821.669963 251.064056 
L 819.628499 251.327697 
L 817.587036 242.192759 
L 815.545572 239.865295 
L 813.504109 219.808617 
L 811.462646 242.44395 
L 809.421182 194.138164 
L 807.379719 223.261416 
L 805.338255 180.85234 
L 803.296792 229.042658 
L 801.255328 205.779752 
L 799.213865 203.654766 
L 797.172402 221.1388 
L 795.130938 201.76149 
L 793.089475 174.403157 
L 791.048011 190.409604 
L 789.006548 195.019192 
L 786.965085 195.3027 
L 784.923621 161.053698 
L 782.882158 173.589538 
L 780.840694 174.246628 
L 778.799231 172.872206 
L 776.757768 166.708844 
L 774.716304 160.62416 
L 772.674841 166.899431 
L 770.633377 149.202126 
L 768.591914 136.495685 
L 766.55045 148.226131 
L 764.508987 138.250537 
L 762.467524 131.478889 
L 760.42606 145.839095 
L 758.384597 132.454301 
L 756.343133 93.182836 
L 754.30167 119.383598 
L 752.260207 117.829539 
L 750.218743 115.587748 
L 748.17728 108.522811 
L 746.135816 115.938102 
L 744.094353 106.173786 
L 742.052889 102.184208 
L 740.011426 99.440853 
L 737.969963 91.839521 
L 735.928499 107.829459 
L 733.887036 86.351974 
L 731.845572 97.073937 
L 729.804109 85.891642 
L 727.762646 69.029854 
L 725.721182 89.660748 
L 723.679719 69.675296 
L 721.638255 70.656765 
L 719.596792 66.603293 
L 717.555328 73.617993 
L 715.513865 89.983119 
L 713.472402 90.160265 
L 711.430938 78.308318 
L 709.389475 55.760685 
L 707.348011 57.456109 
L 705.306548 57.661866 
L 703.265085 70.896303 
L 701.223621 67.710619 
L 699.182158 59.340541 
L 697.140694 67.852545 
L 695.099231 71.723111 
L 693.057768 61.58623 
L 691.016304 61.089321 
L 688.974841 57.551282 
L 686.933377 53.001327 
L 684.891914 74.304135 
L 682.85045 64.874868 
L 680.808987 49.51971 
L 678.767524 54.524246 
L 676.72606 65.203 
L 674.684597 60.000855 
L 672.643133 54.400383 
L 670.60167 59.996704 
L 668.560207 69.943022 
L 666.518743 59.918751 
L 664.47728 55.098645 
L 662.435816 59.531247 
L 660.394353 57.675133 
L 658.352889 55.213777 
L 656.311426 51.867392 
L 654.269963 49.574679 
L 652.228499 38.323327 
L 650.187036 49.191114 
L 648.145572 47.161066 
L 646.104109 48.827986 
L 644.062646 46.542188 
L 642.021182 51.539846 
L 639.979719 43.484972 
L 637.938255 49.191508 
L 635.896792 41.738896 
L 633.855328 44.046245 
L 631.813865 35.214413 
L 629.772402 44.965174 
L 627.730938 48.651546 
L 625.689475 44.070387 
L 623.648011 45.072682 
L 621.606548 37.10914 
L 619.565085 39.636227 
L 617.523621 42.816904 
L 615.482158 33.545249 
L 613.440694 43.959836 
L 611.399231 41.367863 
L 609.357768 30.895799 
L 607.316304 35.711988 
L 605.274841 35.360397 
L 603.233377 32.986438 
L 601.191914 28.492207 
L 599.15045 33.78934 
L 597.108987 52.878092 
L 595.067524 40.862199 
L 593.02606 32.221063 
L 590.984597 36.522413 
L 588.943133 34.359426 
L 586.90167 28.772688 
L 584.860207 26.410412 
L 582.818743 24.84 
L 580.77728 29.489575 
L 578.735816 30.402434 
L 576.694353 38.135319 
L 574.652889 38.9328 
L 572.611426 36.245136 
L 570.569963 41.85394 
L 568.528499 37.098853 
L 566.487036 43.150661 
L 564.445572 46.659741 
L 562.404109 47.844868 
L 560.362646 47.266534 
L 558.321182 53.467217 
L 556.279719 54.882168 
L 554.238255 60.9508 
L 552.196792 59.211755 
L 550.155328 56.945259 
L 548.113865 61.463522 
L 546.072402 65.278912 
L 544.030938 66.577212 
L 541.989475 70.747954 
L 539.948011 66.528805 
L 537.906548 69.528349 
L 535.865085 69.497503 
L 533.823621 71.642967 
L 531.782158 71.84552 
L 529.740694 70.668656 
L 527.699231 75.758367 
L 525.657768 78.94771 
L 523.616304 77.117427 
L 521.574841 80.39849 
L 519.533377 79.012139 
L 517.491914 81.514871 
L 515.45045 87.008438 
L 513.408987 86.990693 
L 511.367524 87.948677 
L 509.32606 91.633858 
L 507.284597 89.858637 
L 505.243133 92.527497 
L 503.20167 95.892486 
L 501.160207 96.467177 
L 499.118743 97.978365 
L 497.07728 98.704268 
L 495.035816 100.577777 
L 492.994353 103.071913 
L 490.952889 105.11799 
L 488.911426 105.382146 
L 486.869963 107.184963 
L 484.828499 103.020485 
L 482.787036 108.777158 
L 480.745572 110.25905 
L 478.704109 112.15798 
L 476.662646 112.560194 
L 474.621182 112.165276 
L 472.579719 114.997698 
L 470.538255 116.886194 
L 468.496792 118.641474 
L 466.455328 119.648838 
L 464.413865 120.137036 
L 462.372402 121.876751 
L 460.330938 123.296128 
L 458.289475 125.263632 
L 456.248011 126.733635 
L 454.206548 131.990765 
L 452.165085 133.355731 
L 450.123621 132.808042 
L 448.082158 136.739548 
L 446.040694 136.186442 
L 443.999231 137.968353 
L 441.957768 136.157138 
L 439.916304 143.46027 
L 437.874841 144.618972 
L 435.833377 145.073197 
L 433.791914 148.659601 
L 431.75045 149.324849 
L 429.708987 150.769995 
L 427.667524 150.184227 
L 425.62606 156.228848 
L 423.584597 154.58122 
L 421.543133 160.473597 
L 419.50167 163.96325 
L 417.460207 166.321312 
L 415.418743 170.76456 
L 413.37728 174.123766 
L 411.335816 175.574331 
L 409.294353 178.212578 
L 407.252889 180.647111 
L 405.211426 182.872831 
L 403.169963 183.209048 
L 401.128499 187.29095 
L 399.087036 189.99729 
L 397.045572 194.92087 
L 395.004109 194.375922 
L 392.962646 194.929718 
L 390.921182 200.148984 
L 388.879719 202.371041 
L 386.838255 204.702151 
L 384.796792 208.660353 
L 382.755328 210.566759 
L 380.713865 209.430923 
L 378.672402 210.853659 
L 376.630938 214.788884 
L 374.589475 216.0577 
L 372.548011 218.31682 
L 370.506548 220.253316 
L 368.465085 221.883397 
L 366.423621 222.753611 
L 364.382158 225.282207 
L 362.340694 227.88256 
L 360.299231 225.640743 
L 358.257768 227.793354 
L 356.216304 226.778863 
L 354.174841 231.521885 
L 352.133377 231.62664 
L 350.091914 229.92891 
L 348.05045 232.645451 
L 346.008987 234.511634 
L 343.967524 229.662301 
L 341.92606 236.036708 
L 339.884597 230.05053 
L 337.843133 229.768992 
L 335.80167 229.47741 
L 333.760207 231.160638 
L 331.718743 231.657523 
L 329.67728 231.038039 
L 327.635816 226.954761 
L 325.594353 229.114265 
L 323.552889 222.388299 
L 321.511426 213.515338 
L 319.469963 216.997046 
L 317.428499 220.873788 
L 315.387036 210.095529 
L 313.345572 211.035812 
L 311.304109 208.739626 
L 309.262646 208.421469 
L 307.221182 193.335903 
L 305.179719 192.040251 
L 303.138255 186.864211 
L 301.096792 174.895039 
L 299.055328 166.800715 
L 297.013865 175.711927 
L 294.972402 169.519401 
L 292.930938 163.128937 
L 290.889475 159.088955 
L 288.848011 153.84045 
L 286.806548 144.214449 
L 284.765085 151.277911 
L 282.723621 133.358414 
L 280.682158 127.337695 
L 278.640694 124.07198 
L 276.599231 121.393157 
L 274.557768 121.774039 
L 272.516304 119.847077 
L 270.474841 121.313353 
L 268.433377 127.46925 
L 266.391914 120.355368 
L 264.35045 120.452516 
L 262.308987 126.925351 
L 260.267524 128.438012 
L 258.22606 126.842974 
L 256.184597 137.209131 
L 254.143133 132.737659 
L 252.10167 134.879739 
L 250.060207 145.346439 
L 248.018743 143.390152 
L 245.97728 147.732976 
L 243.935816 151.258601 
L 241.894353 154.91782 
L 239.852889 158.996697 
L 237.811426 163.005807 
L 235.769963 168.407428 
L 233.728499 171.1363 
L 231.687036 176.525359 
L 229.645572 178.558721 
L 227.604109 187.081775 
L 225.562646 187.217816 
L 223.521182 191.90212 
L 221.479719 197.354521 
L 219.438255 200.692319 
L 217.396792 205.454377 
L 215.355328 209.433103 
L 213.313865 214.301517 
L 211.272402 217.381644 
L 209.230938 221.633199 
L 207.189475 226.697437 
L 205.148011 230.781149 
L 203.106548 234.091789 
L 201.065085 238.467391 
L 199.023621 241.721694 
L 196.982158 245.984925 
L 194.940694 250.058063 
L 192.899231 253.058363 
L 190.857768 256.890834 
L 188.816304 260.888892 
L 186.774841 263.646551 
L 184.733377 266.908863 
L 182.691914 269.191225 
L 180.65045 272.653835 
L 178.608987 275.192015 
L 176.567524 277.840047 
L 174.52606 280.442079 
L 172.484597 282.673645 
L 170.443133 284.934443 
L 168.40167 287.255956 
L 166.360207 289.951834 
L 164.318743 292.108745 
L 162.27728 294.442375 
L 160.235816 296.551338 
L 158.194353 298.858295 
L 156.152889 300.908418 
L 154.111426 303.011806 
L 152.069963 305.156841 
L 150.028499 306.762578 
L 147.987036 309.013056 
L 145.945572 310.646923 
L 143.904109 312.543287 
L 141.862646 314.760016 
L 139.821182 316.389289 
L 137.779719 316.921652 
L 135.738255 318.787092 
L 133.696792 319.789591 
L 131.655328 321.670197 
L 129.613865 323.594703 
L 127.572402 324.685623 
L 125.530938 325.781502 
L 123.489475 325.799984 
L 121.448011 326.751198 
L 119.406548 327.437947 
L 117.365085 327.967238 
L 115.323621 329.299317 
L 113.282158 330.344282 
L 111.240694 331.366898 
L 109.199231 330.521031 
L 107.157768 331.105209 
L 105.116304 329.952909 
L 103.074841 331.551903 
L 101.033377 331.503347 
L 98.991914 332.818459 
L 96.95045 329.877445 
L 94.908987 333.001832 
L 92.867524 332.572465 
L 90.82606 330.624016 
L 88.784597 329.964969 
L 86.743133 331.506287 
L 84.70167 334.050185 
L 82.660207 332.7811 
L 80.618743 332.550585 
L 78.57728 329.462237 
L 76.535816 329.160044 
L 74.494353 329.814701 
L 72.452889 331.361449 
L 70.411426 330.635561 
L 68.369963 329.985146 
L 66.328499 329.93522 
L 64.287036 330.777692 
L 62.245572 330.267801 
L 60.204109 330.720074 
L 58.162646 331.712133 
L 56.121182 330.617439 
L 54.079719 331.928092 
L 52.038255 332.032893 
L 49.996792 331.97824 
L 47.955328 332.753798 
L 45.913865 332.79884 
L 43.872402 333.782959 
L 41.830938 334.839054 
L 39.789475 334.635838 
L 37.748011 333.873887 
L 35.706548 333.179457 
L 33.665085 335.821585 
L 31.623621 335.102951 
L 29.582158 336.703215 
L 27.540694 336.509173 
L 25.499231 335.637219 
L 23.457768 337.261083 
L 21.416304 335.434442 
L 19.374841 335.306617 
L 17.333377 337.389794 
L 15.291914 335.474413 
L 13.25045 337.415251 
L 11.208987 338.210578 
L 9.167524 336.018268 
L 7.12606 329.889571 
L 5.084597 333.591569 
L 3.043133 331.779018 
L 1.00167 322.864013 
L -1.039793 330.515748 
L -3.081257 331.842961 
L -5.12272 323.58632 
L -7.164184 321.027934 
L -9.205647 325.020134 
L -11.247111 316.064428 
L -13.288574 299.612044 
L -15.330037 318.156027 
L -17.371501 323.806034 
L -19.412964 327.136728 
L -21.454428 305.319005 
L -23.495891 305.4969 
L -25.537354 294.308934 
L -27.578818 285.852188 
L -29.620281 303.351107 
L -31.661745 295.308625 
L -33.703208 280.390859 
L -35.744672 269.692758 
L -37.786135 269.406901 
L -39.827598 271.20637 
L -41.869062 268.321164 
L -43.910525 267.872528 
L -45.951989 273.391503 
L -47.993452 272.127916 
L -50.034915 268.246694 
L -52.076379 270.512894 
L -54.117842 268.873769 
L -56.159306 267.89172 
L -58.200769 267.716749 
L -60.242232 270.099866 
L -62.283696 271.026657 
L -64.325159 271.934063 
L -66.366623 273.825502 
L -68.408086 274.690916 
L -70.44955 276.101773 
L -72.491013 278.480618 
L -74.532476 280.500063 
L -76.57394 281.669366 
L -78.615403 283.264434 
L -80.656867 285.036763 
L -82.69833 286.229962 
L -84.739793 288.080224 
L -86.781257 290.393204 
L -88.82272 291.67146 
L -90.864184 292.525148 
L -92.905647 293.943769 
L -94.947111 295.364743 
L -96.988574 296.645243 
L -99.030037 297.863598 
L -101.071501 299.034459 
L -103.112964 300.696328 
L -105.154428 301.494621 
L -107.195891 302.671118 
L -109.237354 303.881366 
L -111.278818 305.023636 
L -113.320281 306.08493 
L -115.361745 306.964638 
L -117.403208 307.903371 
L -119.444672 309.186452 
L -121.486135 309.976925 
L -123.527598 310.953651 
L -125.569062 311.906176 
L -127.610525 312.843774 
L -129.651989 313.804244 
L -131.693452 314.783343 
L -133.734915 315.599476 
L -135.776379 316.575068 
L -137.817842 317.417406 
L -139.859306 318.306448 
L -141.900769 319.125703 
L -143.942232 319.987354 
L -145.983696 320.778759 
L -148.025159 321.634679 
L -150.066623 322.558904 
L -152.108086 323.256239 
L -154.14955 324.139192 
L -156.191013 324.893518 
L -158.232476 325.773672 
L -160.27394 326.411627 
L -162.315403 327.232075 
L -164.356867 328.012297 
L -166.39833 328.753445 
L -168.439793 329.496867 
L -170.481257 330.206651 
L -172.52272 331.023866 
L -174.564184 331.759264 
L -176.605647 332.357032 
L -178.647111 333.073347 
L -180.688574 333.78865 
L -182.730037 334.499735 
L -184.771501 335.183283 
L -186.812964 335.818052 
L -188.854428 336.518975 
L -190.895891 337.204299 
L -192.937354 337.892227 
L -194.978818 338.576159 
L -197.020281 339.278464 
L -199.061745 340.009063 
L -201.103208 340.63063 
L -203.144672 341.347815 
L -205.186135 342.049074 
L -207.227598 342.719892 
L -209.269062 343.412105 
L -211.310525 344.118499 
L -213.351989 344.801623 
L -215.393452 345.519195 
L -217.434915 346.169591 
L -219.476379 346.83256 
L -221.517842 347.535618 
L -223.559306 348.21133 
L -225.600769 348.840844 
L -227.642232 349.498157 
L -229.683696 350.141136 
L -231.725159 350.799215 
L -233.766623 351.458631 
L -235.808086 352.099429 
L -237.84955 352.770881 
L -239.891013 353.381685 
L -241.932476 354.034774 
L -243.97394 354.662739 
L -246.015403 355.355114 
L -248.056867 355.940585 
L -250.09833 356.589511 
L -252.139793 357.222003 
L -254.181257 357.866649 
L -256.22272 358.486621 
L -258.264184 359.11338 
L -260.305647 359.743168 
L -262.347111 360.372382 
L -264.388574 360.963464 
L -266.430037 361.515852 
L -268.471501 362.077651 
L -270.512964 362.640979 
L -272.554428 363.183587 
L -274.595891 363.7388 
L -276.637354 364.28738 
L -278.678818 364.809604 
L -280.720281 365.332605 
L -282.761745 365.853886 
L -284.803208 366.34942 
L -286.844672 366.837691 
L -288.886135 367.35152 
L -290.927598 367.824146 
L -292.969062 368.265333 
L -295.010525 368.745249 
L -297.051989 369.190122 
L -299.093452 369.582499 
L -301.134915 369.997089 
L -303.176379 370.374302 
L -305.217842 370.767339 
L -307.259306 371.123782 
L -309.300769 371.475644 
L -311.342232 371.804178 
L -313.383696 372.122128 
L -315.425159 372.419094 
L -317.466623 372.673833 
L -319.508086 372.933188 
L -321.54955 373.179051 
L -323.591013 373.396623 
L -325.632476 373.635902 
L -327.67394 373.83459 
L -329.715403 374.003641 
L -331.756867 374.206796 
L -333.79833 374.375468 
L -335.839793 374.520051 
L -337.881257 374.680847 
L -339.92272 374.836933 
L -341.964184 374.962705 
L -344.005647 375.102137 
L -346.047111 375.207155 
L -348.088574 375.340934 
L -350.130037 375.445766 
L -352.171501 375.558235 
L -354.212964 375.677684 
L -356.254428 375.771725 
L -358.295891 375.871616 
L -360.337354 375.99165 
L -362.378818 376.100308 
L -364.420281 376.212362 
L -366.461745 376.301221 
L -368.503208 376.419237 
L -370.544672 376.521636 
L -372.586135 376.628772 
L -374.627598 376.716767 
L -376.669062 376.793118 
L -378.710525 376.884577 
L -380.751989 376.99194 
L -382.793452 377.099501 
L -384.834915 377.183531 
L -386.876379 377.257179 
L -388.917842 377.359776 
L -390.959306 377.44084 
L -393.000769 377.541323 
z
" clip-path="url(#pa5676e2a1e)" style="fill: #008000; fill-opacity: 0.3; stroke: #008000; stroke-opacity: 0.3"/>
   </g>
   <g id="matplotlib.axis_1">
    <g id="xtick_1">
     <g id="line2d_1">
      <defs>
       <path id="m4d2d6a5c18" d="M 0 0 
L 0 3.5 
" style="stroke: #000000; stroke-width: 0.8"/>
      </defs>
      <g>
       <use xlink:href="#m4d2d6a5c18" x="103.074841" y="395.28" style="stroke: #000000; stroke-width: 0.8"/>
      </g>
     </g>
     <g id="text_1">
      <!-- 2022-03-01 -->
      <g transform="translate(17.945813 495.213718) rotate(-45) scale(0.2 -0.2)">
       <defs>
        <path id="DejaVuSans-32" d="M 1228 531 
L 3431 531 
L 3431 0 
L 469 0 
L 469 531 
Q 828 903 1448 1529 
Q 2069 2156 2228 2338 
Q 2531 2678 2651 2914 
Q 2772 3150 2772 3378 
Q 2772 3750 2511 3984 
Q 2250 4219 1831 4219 
Q 1534 4219 1204 4116 
Q 875 4013 500 3803 
L 500 4441 
Q 881 4594 1212 4672 
Q 1544 4750 1819 4750 
Q 2544 4750 2975 4387 
Q 3406 4025 3406 3419 
Q 3406 3131 3298 2873 
Q 3191 2616 2906 2266 
Q 2828 2175 2409 1742 
Q 1991 1309 1228 531 
z
" transform="scale(0.015625)"/>
        <path id="DejaVuSans-30" d="M 2034 4250 
Q 1547 4250 1301 3770 
Q 1056 3291 1056 2328 
Q 1056 1369 1301 889 
Q 1547 409 2034 409 
Q 2525 409 2770 889 
Q 3016 1369 3016 2328 
Q 3016 3291 2770 3770 
Q 2525 4250 2034 4250 
z
M 2034 4750 
Q 2819 4750 3233 4129 
Q 3647 3509 3647 2328 
Q 3647 1150 3233 529 
Q 2819 -91 2034 -91 
Q 1250 -91 836 529 
Q 422 1150 422 2328 
Q 422 3509 836 4129 
Q 1250 4750 2034 4750 
z
" transform="scale(0.015625)"/>
        <path id="DejaVuSans-2d" d="M 313 2009 
L 1997 2009 
L 1997 1497 
L 313 1497 
L 313 2009 
z
" transform="scale(0.015625)"/>
        <path id="DejaVuSans-33" d="M 2597 2516 
Q 3050 2419 3304 2112 
Q 3559 1806 3559 1356 
Q 3559 666 3084 287 
Q 2609 -91 1734 -91 
Q 1441 -91 1130 -33 
Q 819 25 488 141 
L 488 750 
Q 750 597 1062 519 
Q 1375 441 1716 441 
Q 2309 441 2620 675 
Q 2931 909 2931 1356 
Q 2931 1769 2642 2001 
Q 2353 2234 1838 2234 
L 1294 2234 
L 1294 2753 
L 1863 2753 
Q 2328 2753 2575 2939 
Q 2822 3125 2822 3475 
Q 2822 3834 2567 4026 
Q 2313 4219 1838 4219 
Q 1578 4219 1281 4162 
Q 984 4106 628 3988 
L 628 4550 
Q 988 4650 1302 4700 
Q 1616 4750 1894 4750 
Q 2613 4750 3031 4423 
Q 3450 4097 3450 3541 
Q 3450 3153 3228 2886 
Q 3006 2619 2597 2516 
z
" transform="scale(0.015625)"/>
        <path id="DejaVuSans-31" d="M 794 531 
L 1825 531 
L 1825 4091 
L 703 3866 
L 703 4441 
L 1819 4666 
L 2450 4666 
L 2450 531 
L 3481 531 
L 3481 0 
L 794 0 
L 794 531 
z
" transform="scale(0.015625)"/>
       </defs>
       <use xlink:href="#DejaVuSans-32"/>
       <use xlink:href="#DejaVuSans-30" x="63.623047"/>
       <use xlink:href="#DejaVuSans-32" x="127.246094"/>
       <use xlink:href="#DejaVuSans-32" x="190.869141"/>
       <use xlink:href="#DejaVuSans-2d" x="254.492188"/>
       <use xlink:href="#DejaVuSans-30" x="290.576172"/>
       <use xlink:href="#DejaVuSans-33" x="354.199219"/>
       <use xlink:href="#DejaVuSans-2d" x="417.822266"/>
       <use xlink:href="#DejaVuSans-30" x="453.90625"/>
       <use xlink:href="#DejaVuSans-31" x="517.529297"/>
      </g>
     </g>
    </g>
    <g id="xtick_2">
     <g id="line2d_2">
      <g>
       <use xlink:href="#m4d2d6a5c18" x="160.235816" y="395.28" style="stroke: #000000; stroke-width: 0.8"/>
      </g>
     </g>
     <g id="text_2">
      <!-- 2022-03-29 -->
      <g transform="translate(75.106789 495.213718) rotate(-45) scale(0.2 -0.2)">
       <defs>
        <path id="DejaVuSans-39" d="M 703 97 
L 703 672 
Q 941 559 1184 500 
Q 1428 441 1663 441 
Q 2288 441 2617 861 
Q 2947 1281 2994 2138 
Q 2813 1869 2534 1725 
Q 2256 1581 1919 1581 
Q 1219 1581 811 2004 
Q 403 2428 403 3163 
Q 403 3881 828 4315 
Q 1253 4750 1959 4750 
Q 2769 4750 3195 4129 
Q 3622 3509 3622 2328 
Q 3622 1225 3098 567 
Q 2575 -91 1691 -91 
Q 1453 -91 1209 -44 
Q 966 3 703 97 
z
M 1959 2075 
Q 2384 2075 2632 2365 
Q 2881 2656 2881 3163 
Q 2881 3666 2632 3958 
Q 2384 4250 1959 4250 
Q 1534 4250 1286 3958 
Q 1038 3666 1038 3163 
Q 1038 2656 1286 2365 
Q 1534 2075 1959 2075 
z
" transform="scale(0.015625)"/>
       </defs>
       <use xlink:href="#DejaVuSans-32"/>
       <use xlink:href="#DejaVuSans-30" x="63.623047"/>
       <use xlink:href="#DejaVuSans-32" x="127.246094"/>
       <use xlink:href="#DejaVuSans-32" x="190.869141"/>
       <use xlink:href="#DejaVuSans-2d" x="254.492188"/>
       <use xlink:href="#DejaVuSans-30" x="290.576172"/>
       <use xlink:href="#DejaVuSans-33" x="354.199219"/>
       <use xlink:href="#DejaVuSans-2d" x="417.822266"/>
       <use xlink:href="#DejaVuSans-32" x="453.90625"/>
       <use xlink:href="#DejaVuSans-39" x="517.529297"/>
      </g>
     </g>
    </g>
    <g id="xtick_3">
     <g id="line2d_3">
      <g>
       <use xlink:href="#m4d2d6a5c18" x="217.396792" y="395.28" style="stroke: #000000; stroke-width: 0.8"/>
      </g>
     </g>
     <g id="text_3">
      <!-- 2022-04-26 -->
      <g transform="translate(132.267765 495.213718) rotate(-45) scale(0.2 -0.2)">
       <defs>
        <path id="DejaVuSans-34" d="M 2419 4116 
L 825 1625 
L 2419 1625 
L 2419 4116 
z
M 2253 4666 
L 3047 4666 
L 3047 1625 
L 3713 1625 
L 3713 1100 
L 3047 1100 
L 3047 0 
L 2419 0 
L 2419 1100 
L 313 1100 
L 313 1709 
L 2253 4666 
z
" transform="scale(0.015625)"/>
        <path id="DejaVuSans-36" d="M 2113 2584 
Q 1688 2584 1439 2293 
Q 1191 2003 1191 1497 
Q 1191 994 1439 701 
Q 1688 409 2113 409 
Q 2538 409 2786 701 
Q 3034 994 3034 1497 
Q 3034 2003 2786 2293 
Q 2538 2584 2113 2584 
z
M 3366 4563 
L 3366 3988 
Q 3128 4100 2886 4159 
Q 2644 4219 2406 4219 
Q 1781 4219 1451 3797 
Q 1122 3375 1075 2522 
Q 1259 2794 1537 2939 
Q 1816 3084 2150 3084 
Q 2853 3084 3261 2657 
Q 3669 2231 3669 1497 
Q 3669 778 3244 343 
Q 2819 -91 2113 -91 
Q 1303 -91 875 529 
Q 447 1150 447 2328 
Q 447 3434 972 4092 
Q 1497 4750 2381 4750 
Q 2619 4750 2861 4703 
Q 3103 4656 3366 4563 
z
" transform="scale(0.015625)"/>
       </defs>
       <use xlink:href="#DejaVuSans-32"/>
       <use xlink:href="#DejaVuSans-30" x="63.623047"/>
       <use xlink:href="#DejaVuSans-32" x="127.246094"/>
       <use xlink:href="#DejaVuSans-32" x="190.869141"/>
       <use xlink:href="#DejaVuSans-2d" x="254.492188"/>
       <use xlink:href="#DejaVuSans-30" x="290.576172"/>
       <use xlink:href="#DejaVuSans-34" x="354.199219"/>
       <use xlink:href="#DejaVuSans-2d" x="417.822266"/>
       <use xlink:href="#DejaVuSans-32" x="453.90625"/>
       <use xlink:href="#DejaVuSans-36" x="517.529297"/>
      </g>
     </g>
    </g>
    <g id="xtick_4">
     <g id="line2d_4">
      <g>
       <use xlink:href="#m4d2d6a5c18" x="274.557768" y="395.28" style="stroke: #000000; stroke-width: 0.8"/>
      </g>
     </g>
     <g id="text_4">
      <!-- 2022-05-24 -->
      <g transform="translate(189.42874 495.213718) rotate(-45) scale(0.2 -0.2)">
       <defs>
        <path id="DejaVuSans-35" d="M 691 4666 
L 3169 4666 
L 3169 4134 
L 1269 4134 
L 1269 2991 
Q 1406 3038 1543 3061 
Q 1681 3084 1819 3084 
Q 2600 3084 3056 2656 
Q 3513 2228 3513 1497 
Q 3513 744 3044 326 
Q 2575 -91 1722 -91 
Q 1428 -91 1123 -41 
Q 819 9 494 109 
L 494 744 
Q 775 591 1075 516 
Q 1375 441 1709 441 
Q 2250 441 2565 725 
Q 2881 1009 2881 1497 
Q 2881 1984 2565 2268 
Q 2250 2553 1709 2553 
Q 1456 2553 1204 2497 
Q 953 2441 691 2322 
L 691 4666 
z
" transform="scale(0.015625)"/>
       </defs>
       <use xlink:href="#DejaVuSans-32"/>
       <use xlink:href="#DejaVuSans-30" x="63.623047"/>
       <use xlink:href="#DejaVuSans-32" x="127.246094"/>
       <use xlink:href="#DejaVuSans-32" x="190.869141"/>
       <use xlink:href="#DejaVuSans-2d" x="254.492188"/>
       <use xlink:href="#DejaVuSans-30" x="290.576172"/>
       <use xlink:href="#DejaVuSans-35" x="354.199219"/>
       <use xlink:href="#DejaVuSans-2d" x="417.822266"/>
       <use xlink:href="#DejaVuSans-32" x="453.90625"/>
       <use xlink:href="#DejaVuSans-34" x="517.529297"/>
      </g>
     </g>
    </g>
    <g id="xtick_5">
     <g id="line2d_5">
      <g>
       <use xlink:href="#m4d2d6a5c18" x="331.718743" y="395.28" style="stroke: #000000; stroke-width: 0.8"/>
      </g>
     </g>
     <g id="text_5">
      <!-- 2022-06-21 -->
      <g transform="translate(246.589716 495.213718) rotate(-45) scale(0.2 -0.2)">
       <use xlink:href="#DejaVuSans-32"/>
       <use xlink:href="#DejaVuSans-30" x="63.623047"/>
       <use xlink:href="#DejaVuSans-32" x="127.246094"/>
       <use xlink:href="#DejaVuSans-32" x="190.869141"/>
       <use xlink:href="#DejaVuSans-2d" x="254.492188"/>
       <use xlink:href="#DejaVuSans-30" x="290.576172"/>
       <use xlink:href="#DejaVuSans-36" x="354.199219"/>
       <use xlink:href="#DejaVuSans-2d" x="417.822266"/>
       <use xlink:href="#DejaVuSans-32" x="453.90625"/>
       <use xlink:href="#DejaVuSans-31" x="517.529297"/>
      </g>
     </g>
    </g>
    <g id="xtick_6">
     <g id="line2d_6">
      <g>
       <use xlink:href="#m4d2d6a5c18" x="388.879719" y="395.28" style="stroke: #000000; stroke-width: 0.8"/>
      </g>
     </g>
     <g id="text_6">
      <!-- 2022-07-19 -->
      <g transform="translate(303.750691 495.213718) rotate(-45) scale(0.2 -0.2)">
       <defs>
        <path id="DejaVuSans-37" d="M 525 4666 
L 3525 4666 
L 3525 4397 
L 1831 0 
L 1172 0 
L 2766 4134 
L 525 4134 
L 525 4666 
z
" transform="scale(0.015625)"/>
       </defs>
       <use xlink:href="#DejaVuSans-32"/>
       <use xlink:href="#DejaVuSans-30" x="63.623047"/>
       <use xlink:href="#DejaVuSans-32" x="127.246094"/>
       <use xlink:href="#DejaVuSans-32" x="190.869141"/>
       <use xlink:href="#DejaVuSans-2d" x="254.492188"/>
       <use xlink:href="#DejaVuSans-30" x="290.576172"/>
       <use xlink:href="#DejaVuSans-37" x="354.199219"/>
       <use xlink:href="#DejaVuSans-2d" x="417.822266"/>
       <use xlink:href="#DejaVuSans-31" x="453.90625"/>
       <use xlink:href="#DejaVuSans-39" x="517.529297"/>
      </g>
     </g>
    </g>
    <g id="xtick_7">
     <g id="line2d_7">
      <g>
       <use xlink:href="#m4d2d6a5c18" x="446.040694" y="395.28" style="stroke: #000000; stroke-width: 0.8"/>
      </g>
     </g>
     <g id="text_7">
      <!-- 2022-08-16 -->
      <g transform="translate(360.911667 495.213718) rotate(-45) scale(0.2 -0.2)">
       <defs>
        <path id="DejaVuSans-38" d="M 2034 2216 
Q 1584 2216 1326 1975 
Q 1069 1734 1069 1313 
Q 1069 891 1326 650 
Q 1584 409 2034 409 
Q 2484 409 2743 651 
Q 3003 894 3003 1313 
Q 3003 1734 2745 1975 
Q 2488 2216 2034 2216 
z
M 1403 2484 
Q 997 2584 770 2862 
Q 544 3141 544 3541 
Q 544 4100 942 4425 
Q 1341 4750 2034 4750 
Q 2731 4750 3128 4425 
Q 3525 4100 3525 3541 
Q 3525 3141 3298 2862 
Q 3072 2584 2669 2484 
Q 3125 2378 3379 2068 
Q 3634 1759 3634 1313 
Q 3634 634 3220 271 
Q 2806 -91 2034 -91 
Q 1263 -91 848 271 
Q 434 634 434 1313 
Q 434 1759 690 2068 
Q 947 2378 1403 2484 
z
M 1172 3481 
Q 1172 3119 1398 2916 
Q 1625 2713 2034 2713 
Q 2441 2713 2670 2916 
Q 2900 3119 2900 3481 
Q 2900 3844 2670 4047 
Q 2441 4250 2034 4250 
Q 1625 4250 1398 4047 
Q 1172 3844 1172 3481 
z
" transform="scale(0.015625)"/>
       </defs>
       <use xlink:href="#DejaVuSans-32"/>
       <use xlink:href="#DejaVuSans-30" x="63.623047"/>
       <use xlink:href="#DejaVuSans-32" x="127.246094"/>
       <use xlink:href="#DejaVuSans-32" x="190.869141"/>
       <use xlink:href="#DejaVuSans-2d" x="254.492188"/>
       <use xlink:href="#DejaVuSans-30" x="290.576172"/>
       <use xlink:href="#DejaVuSans-38" x="354.199219"/>
       <use xlink:href="#DejaVuSans-2d" x="417.822266"/>
       <use xlink:href="#DejaVuSans-31" x="453.90625"/>
       <use xlink:href="#DejaVuSans-36" x="517.529297"/>
      </g>
     </g>
    </g>
    <g id="xtick_8">
     <g id="line2d_8">
      <g>
       <use xlink:href="#m4d2d6a5c18" x="503.20167" y="395.28" style="stroke: #000000; stroke-width: 0.8"/>
      </g>
     </g>
     <g id="text_8">
      <!-- 2022-09-13 -->
      <g transform="translate(418.072643 495.213718) rotate(-45) scale(0.2 -0.2)">
       <use xlink:href="#DejaVuSans-32"/>
       <use xlink:href="#DejaVuSans-30" x="63.623047"/>
       <use xlink:href="#DejaVuSans-32" x="127.246094"/>
       <use xlink:href="#DejaVuSans-32" x="190.869141"/>
       <use xlink:href="#DejaVuSans-2d" x="254.492188"/>
       <use xlink:href="#DejaVuSans-30" x="290.576172"/>
       <use xlink:href="#DejaVuSans-39" x="354.199219"/>
       <use xlink:href="#DejaVuSans-2d" x="417.822266"/>
       <use xlink:href="#DejaVuSans-31" x="453.90625"/>
       <use xlink:href="#DejaVuSans-33" x="517.529297"/>
      </g>
     </g>
    </g>
    <g id="xtick_9">
     <g id="line2d_9">
      <g>
       <use xlink:href="#m4d2d6a5c18" x="560.362646" y="395.28" style="stroke: #000000; stroke-width: 0.8"/>
      </g>
     </g>
     <g id="text_9">
      <!-- 2022-10-11 -->
      <g transform="translate(475.233618 495.213718) rotate(-45) scale(0.2 -0.2)">
       <use xlink:href="#DejaVuSans-32"/>
       <use xlink:href="#DejaVuSans-30" x="63.623047"/>
       <use xlink:href="#DejaVuSans-32" x="127.246094"/>
       <use xlink:href="#DejaVuSans-32" x="190.869141"/>
       <use xlink:href="#DejaVuSans-2d" x="254.492188"/>
       <use xlink:href="#DejaVuSans-31" x="290.576172"/>
       <use xlink:href="#DejaVuSans-30" x="354.199219"/>
       <use xlink:href="#DejaVuSans-2d" x="417.822266"/>
       <use xlink:href="#DejaVuSans-31" x="453.90625"/>
       <use xlink:href="#DejaVuSans-31" x="517.529297"/>
      </g>
     </g>
    </g>
    <g id="xtick_10">
     <g id="line2d_10">
      <g>
       <use xlink:href="#m4d2d6a5c18" x="617.523621" y="395.28" style="stroke: #000000; stroke-width: 0.8"/>
      </g>
     </g>
     <g id="text_10">
      <!-- 2022-11-08 -->
      <g transform="translate(532.394594 495.213718) rotate(-45) scale(0.2 -0.2)">
       <use xlink:href="#DejaVuSans-32"/>
       <use xlink:href="#DejaVuSans-30" x="63.623047"/>
       <use xlink:href="#DejaVuSans-32" x="127.246094"/>
       <use xlink:href="#DejaVuSans-32" x="190.869141"/>
       <use xlink:href="#DejaVuSans-2d" x="254.492188"/>
       <use xlink:href="#DejaVuSans-31" x="290.576172"/>
       <use xlink:href="#DejaVuSans-31" x="354.199219"/>
       <use xlink:href="#DejaVuSans-2d" x="417.822266"/>
       <use xlink:href="#DejaVuSans-30" x="453.90625"/>
       <use xlink:href="#DejaVuSans-38" x="517.529297"/>
      </g>
     </g>
    </g>
    <g id="xtick_11">
     <g id="line2d_11">
      <g>
       <use xlink:href="#m4d2d6a5c18" x="674.684597" y="395.28" style="stroke: #000000; stroke-width: 0.8"/>
      </g>
     </g>
     <g id="text_11">
      <!-- 2022-12-06 -->
      <g transform="translate(589.555569 495.213718) rotate(-45) scale(0.2 -0.2)">
       <use xlink:href="#DejaVuSans-32"/>
       <use xlink:href="#DejaVuSans-30" x="63.623047"/>
       <use xlink:href="#DejaVuSans-32" x="127.246094"/>
       <use xlink:href="#DejaVuSans-32" x="190.869141"/>
       <use xlink:href="#DejaVuSans-2d" x="254.492188"/>
       <use xlink:href="#DejaVuSans-31" x="290.576172"/>
       <use xlink:href="#DejaVuSans-32" x="354.199219"/>
       <use xlink:href="#DejaVuSans-2d" x="417.822266"/>
       <use xlink:href="#DejaVuSans-30" x="453.90625"/>
       <use xlink:href="#DejaVuSans-36" x="517.529297"/>
      </g>
     </g>
    </g>
    <g id="xtick_12">
     <g id="line2d_12">
      <g>
       <use xlink:href="#m4d2d6a5c18" x="731.845572" y="395.28" style="stroke: #000000; stroke-width: 0.8"/>
      </g>
     </g>
     <g id="text_12">
      <!-- 2023-01-03 -->
      <g transform="translate(646.716545 495.213718) rotate(-45) scale(0.2 -0.2)">
       <use xlink:href="#DejaVuSans-32"/>
       <use xlink:href="#DejaVuSans-30" x="63.623047"/>
       <use xlink:href="#DejaVuSans-32" x="127.246094"/>
       <use xlink:href="#DejaVuSans-33" x="190.869141"/>
       <use xlink:href="#DejaVuSans-2d" x="254.492188"/>
       <use xlink:href="#DejaVuSans-30" x="290.576172"/>
       <use xlink:href="#DejaVuSans-31" x="354.199219"/>
       <use xlink:href="#DejaVuSans-2d" x="417.822266"/>
       <use xlink:href="#DejaVuSans-30" x="453.90625"/>
       <use xlink:href="#DejaVuSans-33" x="517.529297"/>
      </g>
     </g>
    </g>
    <g id="xtick_13">
     <g id="line2d_13">
      <g>
       <use xlink:href="#m4d2d6a5c18" x="789.006548" y="395.28" style="stroke: #000000; stroke-width: 0.8"/>
      </g>
     </g>
     <g id="text_13">
      <!-- 2023-01-31 -->
      <g transform="translate(703.877521 495.213718) rotate(-45) scale(0.2 -0.2)">
       <use xlink:href="#DejaVuSans-32"/>
       <use xlink:href="#DejaVuSans-30" x="63.623047"/>
       <use xlink:href="#DejaVuSans-32" x="127.246094"/>
       <use xlink:href="#DejaVuSans-33" x="190.869141"/>
       <use xlink:href="#DejaVuSans-2d" x="254.492188"/>
       <use xlink:href="#DejaVuSans-30" x="290.576172"/>
       <use xlink:href="#DejaVuSans-31" x="354.199219"/>
       <use xlink:href="#DejaVuSans-2d" x="417.822266"/>
       <use xlink:href="#DejaVuSans-33" x="453.90625"/>
       <use xlink:href="#DejaVuSans-31" x="517.529297"/>
      </g>
     </g>
    </g>
    <g id="xtick_14">
     <g id="line2d_14">
      <g>
       <use xlink:href="#m4d2d6a5c18" x="846.167524" y="395.28" style="stroke: #000000; stroke-width: 0.8"/>
      </g>
     </g>
     <g id="text_14">
      <!-- 2023-02-28 -->
      <g transform="translate(761.038496 495.213718) rotate(-45) scale(0.2 -0.2)">
       <use xlink:href="#DejaVuSans-32"/>
       <use xlink:href="#DejaVuSans-30" x="63.623047"/>
       <use xlink:href="#DejaVuSans-32" x="127.246094"/>
       <use xlink:href="#DejaVuSans-33" x="190.869141"/>
       <use xlink:href="#DejaVuSans-2d" x="254.492188"/>
       <use xlink:href="#DejaVuSans-30" x="290.576172"/>
       <use xlink:href="#DejaVuSans-32" x="354.199219"/>
       <use xlink:href="#DejaVuSans-2d" x="417.822266"/>
       <use xlink:href="#DejaVuSans-32" x="453.90625"/>
       <use xlink:href="#DejaVuSans-38" x="517.529297"/>
      </g>
     </g>
    </g>
    <g id="xtick_15">
     <g id="line2d_15">
      <g>
       <use xlink:href="#m4d2d6a5c18" x="903.328499" y="395.28" style="stroke: #000000; stroke-width: 0.8"/>
      </g>
     </g>
     <g id="text_15">
      <!-- 2023-03-28 -->
      <g transform="translate(818.199472 495.213718) rotate(-45) scale(0.2 -0.2)">
       <use xlink:href="#DejaVuSans-32"/>
       <use xlink:href="#DejaVuSans-30" x="63.623047"/>
       <use xlink:href="#DejaVuSans-32" x="127.246094"/>
       <use xlink:href="#DejaVuSans-33" x="190.869141"/>
       <use xlink:href="#DejaVuSans-2d" x="254.492188"/>
       <use xlink:href="#DejaVuSans-30" x="290.576172"/>
       <use xlink:href="#DejaVuSans-33" x="354.199219"/>
       <use xlink:href="#DejaVuSans-2d" x="417.822266"/>
       <use xlink:href="#DejaVuSans-32" x="453.90625"/>
       <use xlink:href="#DejaVuSans-38" x="517.529297"/>
      </g>
     </g>
    </g>
    <g id="xtick_16">
     <g id="line2d_16">
      <g>
       <use xlink:href="#m4d2d6a5c18" x="940.074841" y="395.28" style="stroke: #000000; stroke-width: 0.8"/>
      </g>
     </g>
     <g id="text_16">
      <!-- 2023-04-15 -->
      <g transform="translate(854.945813 495.213718) rotate(-45) scale(0.2 -0.2)">
       <use xlink:href="#DejaVuSans-32"/>
       <use xlink:href="#DejaVuSans-30" x="63.623047"/>
       <use xlink:href="#DejaVuSans-32" x="127.246094"/>
       <use xlink:href="#DejaVuSans-33" x="190.869141"/>
       <use xlink:href="#DejaVuSans-2d" x="254.492188"/>
       <use xlink:href="#DejaVuSans-30" x="290.576172"/>
       <use xlink:href="#DejaVuSans-34" x="354.199219"/>
       <use xlink:href="#DejaVuSans-2d" x="417.822266"/>
       <use xlink:href="#DejaVuSans-31" x="453.90625"/>
       <use xlink:href="#DejaVuSans-35" x="517.529297"/>
      </g>
     </g>
    </g>
   </g>
   <g id="matplotlib.axis_2">
    <g id="ytick_1">
     <g id="line2d_17">
      <defs>
       <path id="mffdf434f88" d="M 0 0 
L -3.5 0 
" style="stroke: #000000; stroke-width: 0.8"/>
      </defs>
      <g>
       <use xlink:href="#mffdf434f88" x="103.074841" y="377.64" style="stroke: #000000; stroke-width: 0.8"/>
      </g>
     </g>
     <g id="text_17">
      <!-- 0.00 -->
      <g transform="translate(51.543591 385.238437) scale(0.2 -0.2)">
       <defs>
        <path id="DejaVuSans-2e" d="M 684 794 
L 1344 794 
L 1344 0 
L 684 0 
L 684 794 
z
" transform="scale(0.015625)"/>
       </defs>
       <use xlink:href="#DejaVuSans-30"/>
       <use xlink:href="#DejaVuSans-2e" x="63.623047"/>
       <use xlink:href="#DejaVuSans-30" x="95.410156"/>
       <use xlink:href="#DejaVuSans-30" x="159.033203"/>
      </g>
     </g>
    </g>
    <g id="ytick_2">
     <g id="line2d_18">
      <g>
       <use xlink:href="#mffdf434f88" x="103.074841" y="300.382559" style="stroke: #000000; stroke-width: 0.8"/>
      </g>
     </g>
     <g id="text_18">
      <!-- 0.05 -->
      <g transform="translate(51.543591 307.980997) scale(0.2 -0.2)">
       <use xlink:href="#DejaVuSans-30"/>
       <use xlink:href="#DejaVuSans-2e" x="63.623047"/>
       <use xlink:href="#DejaVuSans-30" x="95.410156"/>
       <use xlink:href="#DejaVuSans-35" x="159.033203"/>
      </g>
     </g>
    </g>
    <g id="ytick_3">
     <g id="line2d_19">
      <g>
       <use xlink:href="#mffdf434f88" x="103.074841" y="223.125119" style="stroke: #000000; stroke-width: 0.8"/>
      </g>
     </g>
     <g id="text_19">
      <!-- 0.10 -->
      <g transform="translate(51.543591 230.723556) scale(0.2 -0.2)">
       <use xlink:href="#DejaVuSans-30"/>
       <use xlink:href="#DejaVuSans-2e" x="63.623047"/>
       <use xlink:href="#DejaVuSans-31" x="95.410156"/>
       <use xlink:href="#DejaVuSans-30" x="159.033203"/>
      </g>
     </g>
    </g>
    <g id="ytick_4">
     <g id="line2d_20">
      <g>
       <use xlink:href="#mffdf434f88" x="103.074841" y="145.867678" style="stroke: #000000; stroke-width: 0.8"/>
      </g>
     </g>
     <g id="text_20">
      <!-- 0.15 -->
      <g transform="translate(51.543591 153.466115) scale(0.2 -0.2)">
       <use xlink:href="#DejaVuSans-30"/>
       <use xlink:href="#DejaVuSans-2e" x="63.623047"/>
       <use xlink:href="#DejaVuSans-31" x="95.410156"/>
       <use xlink:href="#DejaVuSans-35" x="159.033203"/>
      </g>
     </g>
    </g>
    <g id="ytick_5">
     <g id="line2d_21">
      <g>
       <use xlink:href="#mffdf434f88" x="103.074841" y="68.610237" style="stroke: #000000; stroke-width: 0.8"/>
      </g>
     </g>
     <g id="text_21">
      <!-- 0.20 -->
      <g transform="translate(51.543591 76.208675) scale(0.2 -0.2)">
       <use xlink:href="#DejaVuSans-30"/>
       <use xlink:href="#DejaVuSans-2e" x="63.623047"/>
       <use xlink:href="#DejaVuSans-32" x="95.410156"/>
       <use xlink:href="#DejaVuSans-30" x="159.033203"/>
      </g>
     </g>
    </g>
   </g>
   <g id="line2d_22">
    <path d="M 940.074841 377.64 
" clip-path="url(#pa5676e2a1e)" style="fill: none; stroke: #ffa500; stroke-width: 1.5; stroke-linecap: square"/>
   </g>
   <g id="line2d_23">
    <path d="M 103.074841 377.64 
L 948.274841 377.64 
" clip-path="url(#pa5676e2a1e)" style="fill: none; stroke-dasharray: 7.4,3.2; stroke-dashoffset: 0; stroke: #000000; stroke-width: 2"/>
   </g>
   <g id="patch_3">
    <path d="M 103.074841 395.28 
L 103.074841 7.2 
" style="fill: none; stroke: #000000; stroke-width: 0.8; stroke-linejoin: miter; stroke-linecap: square"/>
   </g>
   <g id="patch_4">
    <path d="M 940.074841 395.28 
L 940.074841 7.2 
" style="fill: none; stroke: #000000; stroke-width: 0.8; stroke-linejoin: miter; stroke-linecap: square"/>
   </g>
   <g id="patch_5">
    <path d="M 103.074841 395.28 
L 940.074841 395.28 
" style="fill: none; stroke: #000000; stroke-width: 0.8; stroke-linejoin: miter; stroke-linecap: square"/>
   </g>
   <g id="patch_6">
    <path d="M 103.074841 7.2 
L 940.074841 7.2 
" style="fill: none; stroke: #000000; stroke-width: 0.8; stroke-linejoin: miter; stroke-linecap: square"/>
   </g>
  </g>
 </g>
 <defs>
  <clipPath id="pa5676e2a1e">
   <rect x="103.074841" y="7.2" width="837" height="388.08"/>
  </clipPath>
 </defs>
</svg>
