<?xml version="1.0" encoding="utf-8" standalone="no"?>
<!DOCTYPE svg PUBLIC "-//W3C//DTD SVG 1.1//EN"
  "http://www.w3.org/Graphics/SVG/1.1/DTD/svg11.dtd">
<svg xmlns:xlink="http://www.w3.org/1999/xlink" width="947.274841pt" height="505.354841pt" viewBox="0 0 947.274841 505.354841" xmlns="http://www.w3.org/2000/svg" version="1.1">
 <metadata>
  <rdf:RDF xmlns:dc="http://purl.org/dc/elements/1.1/" xmlns:cc="http://creativecommons.org/ns#" xmlns:rdf="http://www.w3.org/1999/02/22-rdf-syntax-ns#">
   <cc:Work>
    <dc:type rdf:resource="http://purl.org/dc/dcmitype/StillImage"/>
    <dc:date>2023-11-15T18:15:52.905615</dc:date>
    <dc:format>image/svg+xml</dc:format>
    <dc:creator>
     <cc:Agent>
      <dc:title>Matplotlib v3.7.2, https://matplotlib.org/</dc:title>
     </cc:Agent>
    </dc:creator>
   </cc:Work>
  </rdf:RDF>
 </metadata>
 <defs>
  <style type="text/css">*{stroke-linejoin: round; stroke-linecap: butt}</style>
 </defs>
 <g id="figure_1">
  <g id="patch_1">
   <path d="M 0 505.354841 
L 947.274841 505.354841 
L 947.274841 -0 
L 0 -0 
z
" style="fill: #ffffff"/>
  </g>
  <g id="axes_1">
   <g id="patch_2">
    <path d="M 103.074841 395.28 
L 940.074841 395.28 
L 940.074841 7.2 
L 103.074841 7.2 
z
" style="fill: #ffffff"/>
   </g>
   <g id="PolyCollection_1">
    <path d="M -4315.31939 247.460464 
L -4315.31939 247.46602 
L -4307.271313 247.411375 
L -4299.223236 247.38022 
L -4291.175159 247.339397 
L -4283.127082 247.323634 
L -4275.079005 247.297202 
L -4267.030929 247.262049 
L -4258.982852 247.228416 
L -4250.934775 247.200388 
L -4242.886698 247.181621 
L -4234.838621 247.153871 
L -4226.790544 247.123191 
L -4218.742467 247.095179 
L -4210.69439 247.050826 
L -4202.646313 247.023409 
L -4194.598236 246.983338 
L -4186.550159 246.957105 
L -4178.502082 246.904966 
L -4170.454005 246.872641 
L -4162.405929 246.844492 
L -4154.357852 246.802577 
L -4146.309775 246.764663 
L -4138.261698 246.730521 
L -4130.213621 246.679077 
L -4122.165544 246.643702 
L -4114.117467 246.593979 
L -4106.06939 246.545513 
L -4098.021313 246.487656 
L -4089.973236 246.429508 
L -4081.925159 246.377933 
L -4073.877082 246.310028 
L -4065.829005 246.227283 
L -4057.780929 246.168034 
L -4049.732852 246.09311 
L -4041.684775 245.999281 
L -4033.636698 245.924771 
L -4025.588621 245.825007 
L -4017.540544 245.728571 
L -4009.492467 245.63248 
L -4001.44439 245.530712 
L -3993.396313 245.410783 
L -3985.348236 245.281866 
L -3977.300159 245.144587 
L -3969.252082 245.026269 
L -3961.204005 244.866468 
L -3953.155929 244.731734 
L -3945.107852 244.584276 
L -3937.059775 244.443675 
L -3929.011698 244.284518 
L -3920.963621 244.102861 
L -3912.915544 243.957748 
L -3904.867467 243.777576 
L -3896.81939 243.589815 
L -3888.771313 243.416715 
L -3880.723236 243.253567 
L -3872.675159 243.060854 
L -3864.627082 242.86872 
L -3856.579005 242.682439 
L -3848.530929 242.482738 
L -3840.482852 242.282436 
L -3832.434775 242.087726 
L -3824.386698 241.881277 
L -3816.338621 241.67799 
L -3808.290544 241.486052 
L -3800.242467 241.277685 
L -3792.19439 241.037548 
L -3784.146313 240.816883 
L -3776.098236 240.599574 
L -3768.050159 240.391767 
L -3760.002082 240.163594 
L -3751.954005 239.947821 
L -3743.905929 239.722566 
L -3735.857852 239.547267 
L -3727.809775 239.285935 
L -3719.761698 239.097156 
L -3711.713621 238.859991 
L -3703.665544 238.646026 
L -3695.617467 238.404855 
L -3687.56939 238.214072 
L -3679.521313 237.952687 
L -3671.473236 237.72162 
L -3663.425159 237.516287 
L -3655.377082 237.267939 
L -3647.329005 237.058388 
L -3639.280929 236.825907 
L -3631.232852 236.583955 
L -3623.184775 236.358088 
L -3615.136698 236.147226 
L -3607.088621 235.906157 
L -3599.040544 235.683531 
L -3590.992467 235.448476 
L -3582.94439 235.219418 
L -3574.896313 235.008112 
L -3566.848236 234.786581 
L -3558.800159 234.558683 
L -3550.752082 234.376518 
L -3542.704005 234.13326 
L -3534.655929 233.920478 
L -3526.607852 233.71483 
L -3518.559775 233.506443 
L -3510.511698 233.297212 
L -3502.463621 233.079987 
L -3494.415544 232.883143 
L -3486.367467 232.66663 
L -3478.31939 232.43749 
L -3470.271313 232.20251 
L -3462.223236 231.962267 
L -3454.175159 231.753924 
L -3446.127082 231.500217 
L -3438.079005 231.2146 
L -3430.030929 230.964016 
L -3421.982852 230.688253 
L -3413.934775 230.407351 
L -3405.886698 230.099551 
L -3397.838621 229.785249 
L -3389.790544 229.51613 
L -3381.742467 229.174787 
L -3373.69439 228.868271 
L -3365.646313 228.521287 
L -3357.598236 228.230257 
L -3349.550159 227.841719 
L -3341.502082 227.471364 
L -3333.454005 227.124049 
L -3325.405929 226.769771 
L -3317.357852 226.39959 
L -3309.309775 226.00346 
L -3301.261698 225.656734 
L -3293.213621 225.218153 
L -3285.165544 224.87634 
L -3277.117467 224.425119 
L -3269.06939 224.003412 
L -3261.021313 223.604831 
L -3252.973236 223.241676 
L -3244.925159 222.765269 
L -3236.877082 222.375071 
L -3228.829005 221.787843 
L -3220.780929 221.340768 
L -3212.732852 220.95696 
L -3204.684775 220.482565 
L -3196.636698 219.994845 
L -3188.588621 219.383294 
L -3180.540544 218.846998 
L -3172.492467 218.480079 
L -3164.44439 217.663566 
L -3156.396313 217.10949 
L -3148.348236 216.548912 
L -3140.300159 215.966698 
L -3132.252082 215.254691 
L -3124.204005 214.634333 
L -3116.155929 214.312592 
L -3108.107852 213.773433 
L -3100.059775 212.553494 
L -3092.011698 211.643469 
L -3083.963621 211.150364 
L -3075.915544 210.250541 
L -3067.867467 209.634954 
L -3059.81939 209.203487 
L -3051.771313 208.214716 
L -3043.723236 207.013291 
L -3035.675159 206.434466 
L -3027.627082 206.338862 
L -3019.579005 205.489714 
L -3011.530929 205.531338 
L -3003.482852 205.14336 
L -2995.434775 204.170803 
L -2987.386698 204.632682 
L -2979.338621 205.69169 
L -2971.290544 207.460161 
L -2963.242467 206.417459 
L -2955.19439 209.779686 
L -2947.146313 210.923975 
L -2939.098236 207.273897 
L -2931.050159 208.770254 
L -2923.002082 210.895838 
L -2914.954005 210.145227 
L -2906.905929 210.21633 
L -2898.857852 218.09041 
L -2890.809775 229.12663 
L -2882.761698 234.705574 
L -2874.713621 223.062875 
L -2866.665544 229.319847 
L -2858.617467 237.274201 
L -2850.56939 236.881751 
L -2842.521313 252.966106 
L -2834.473236 250.607139 
L -2826.425159 245.668941 
L -2818.377082 233.27205 
L -2810.329005 244.754913 
L -2802.280929 251.514105 
L -2794.232852 248.301277 
L -2786.184775 250.047022 
L -2778.136698 256.222196 
L -2770.088621 255.070268 
L -2762.040544 249.421526 
L -2753.992467 256.054286 
L -2745.94439 257.390695 
L -2737.896313 254.496235 
L -2729.848236 258.902471 
L -2721.800159 260.226211 
L -2713.752082 259.599909 
L -2705.704005 257.83481 
L -2697.655929 258.98913 
L -2689.607852 257.107367 
L -2681.559775 256.914812 
L -2673.511698 258.069333 
L -2665.463621 256.542624 
L -2657.415544 256.936465 
L -2649.367467 256.761469 
L -2641.31939 255.202785 
L -2633.271313 255.40484 
L -2625.223236 253.155059 
L -2617.175159 253.278961 
L -2609.127082 253.514192 
L -2601.079005 253.332008 
L -2593.030929 252.176911 
L -2584.982852 251.102866 
L -2576.934775 250.733402 
L -2568.886698 249.74979 
L -2560.838621 249.425344 
L -2552.790544 249.060665 
L -2544.742467 247.604105 
L -2536.69439 248.071729 
L -2528.646313 247.026152 
L -2520.598236 246.343434 
L -2512.550159 246.396281 
L -2504.502082 245.409835 
L -2496.454005 245.054266 
L -2488.405929 245.213747 
L -2480.357852 245.5555 
L -2472.309775 244.073423 
L -2464.261698 243.335548 
L -2456.213621 243.272706 
L -2448.165544 245.467451 
L -2440.117467 245.469443 
L -2432.06939 246.320366 
L -2424.021313 244.067411 
L -2415.973236 242.750827 
L -2407.925159 243.101327 
L -2399.877082 244.545427 
L -2391.829005 244.775086 
L -2383.780929 242.289495 
L -2375.732852 244.41862 
L -2367.684775 243.521271 
L -2359.636698 243.409214 
L -2351.588621 242.172365 
L -2343.540544 243.144569 
L -2335.492467 242.75043 
L -2327.44439 243.447538 
L -2319.396313 242.652819 
L -2311.348236 242.168528 
L -2303.300159 241.212193 
L -2295.252082 240.887753 
L -2287.204005 240.618011 
L -2279.155929 240.035194 
L -2271.107852 240.120569 
L -2263.059775 239.610972 
L -2255.011698 239.073425 
L -2246.963621 237.764848 
L -2238.915544 236.685761 
L -2230.867467 236.309588 
L -2222.81939 235.20845 
L -2214.771313 235.406628 
L -2206.723236 234.713377 
L -2198.675159 233.306836 
L -2190.627082 232.274118 
L -2182.579005 231.598792 
L -2174.530929 230.131008 
L -2166.482852 229.559431 
L -2158.434775 228.38232 
L -2150.386698 227.455441 
L -2142.338621 226.216391 
L -2134.290544 224.957643 
L -2126.242467 223.863874 
L -2118.19439 222.685124 
L -2110.146313 221.69795 
L -2102.098236 220.133892 
L -2094.050159 218.763779 
L -2086.002082 217.349723 
L -2077.954005 216.49775 
L -2069.905929 215.011303 
L -2061.857852 213.825617 
L -2053.809775 212.444768 
L -2045.761698 210.246559 
L -2037.713621 209.522667 
L -2029.665544 207.797634 
L -2021.617467 206.515459 
L -2013.56939 205.033878 
L -2005.521313 203.298007 
L -1997.473236 201.749466 
L -1989.425159 200.236522 
L -1981.377082 198.124167 
L -1973.329005 196.906016 
L -1965.280929 194.902661 
L -1957.232852 193.877918 
L -1949.184775 191.825227 
L -1941.136698 189.835819 
L -1933.088621 188.24263 
L -1925.040544 187.063921 
L -1916.992467 184.698415 
L -1908.94439 183.280344 
L -1900.896313 181.301488 
L -1892.848236 179.844931 
L -1884.800159 177.727606 
L -1876.752082 175.902979 
L -1868.704005 176.391405 
L -1860.655929 172.154963 
L -1852.607852 172.126349 
L -1844.559775 169.99475 
L -1836.511698 168.641468 
L -1828.463621 166.923814 
L -1820.415544 165.116665 
L -1812.367467 163.423793 
L -1804.31939 161.973853 
L -1796.271313 160.657918 
L -1788.223236 159.230216 
L -1780.175159 161.522828 
L -1772.127082 155.962598 
L -1764.079005 155.348417 
L -1756.030929 160.42625 
L -1747.982852 154.09884 
L -1739.934775 155.690422 
L -1731.886698 155.484432 
L -1723.838621 152.178972 
L -1715.790544 153.392145 
L -1707.742467 157.049507 
L -1699.69439 154.755842 
L -1691.646313 154.031907 
L -1683.598236 156.665217 
L -1675.550159 156.275001 
L -1667.502082 157.977041 
L -1659.454005 160.463797 
L -1651.405929 163.643607 
L -1643.357852 172.202718 
L -1635.309775 170.217659 
L -1627.261698 174.662136 
L -1619.213621 178.095846 
L -1611.165544 180.143548 
L -1603.117467 184.587173 
L -1595.06939 187.129952 
L -1587.021313 181.643999 
L -1578.973236 186.514102 
L -1570.925159 193.510386 
L -1562.877082 196.697481 
L -1554.829005 197.20094 
L -1546.780929 205.856543 
L -1538.732852 206.065221 
L -1530.684775 207.470479 
L -1522.636698 207.030847 
L -1514.588621 213.824961 
L -1506.540544 210.829143 
L -1498.492467 209.307976 
L -1490.44439 214.32489 
L -1482.396313 219.420361 
L -1474.348236 217.494064 
L -1466.300159 219.571213 
L -1458.252082 219.964352 
L -1450.204005 219.453559 
L -1442.155929 218.154508 
L -1434.107852 218.927352 
L -1426.059775 218.969841 
L -1418.011698 223.537441 
L -1409.963621 219.678491 
L -1401.915544 223.541804 
L -1393.867467 221.850542 
L -1385.81939 220.209147 
L -1377.771313 221.606673 
L -1369.723236 221.806431 
L -1361.675159 218.869734 
L -1353.627082 218.727235 
L -1345.579005 217.648231 
L -1337.530929 219.704459 
L -1329.482852 217.611271 
L -1321.434775 216.395905 
L -1313.386698 215.411358 
L -1305.338621 216.082929 
L -1297.290544 214.556412 
L -1289.242467 212.494098 
L -1281.19439 212.069951 
L -1273.146313 209.117723 
L -1265.098236 208.335514 
L -1257.050159 210.611339 
L -1249.002082 209.71173 
L -1240.954005 207.032558 
L -1232.905929 205.207468 
L -1224.857852 204.489322 
L -1216.809775 201.574626 
L -1208.761698 200.990646 
L -1200.713621 200.256198 
L -1192.665544 199.055332 
L -1184.617467 197.097081 
L -1176.56939 194.584425 
L -1168.521313 195.293382 
L -1160.473236 193.388353 
L -1152.425159 192.953671 
L -1144.377082 191.604972 
L -1136.329005 191.55001 
L -1128.280929 189.243361 
L -1120.232852 186.731446 
L -1112.184775 186.201123 
L -1104.136698 184.084676 
L -1096.088621 181.230737 
L -1088.040544 182.592004 
L -1079.992467 178.865424 
L -1071.94439 179.836918 
L -1063.896313 178.796118 
L -1055.848236 178.616937 
L -1047.800159 176.077193 
L -1039.752082 175.514095 
L -1031.704005 174.899142 
L -1023.655929 171.735814 
L -1015.607852 172.230166 
L -1007.559775 171.666591 
L -999.511698 171.289689 
L -991.463621 169.747561 
L -983.415544 169.96611 
L -975.367467 168.407317 
L -967.31939 167.137155 
L -959.271313 164.716251 
L -951.223236 163.740842 
L -943.175159 162.98248 
L -935.127082 161.821633 
L -927.079005 161.658477 
L -919.030929 160.794207 
L -910.982852 159.227575 
L -902.934775 159.023688 
L -894.886698 157.538236 
L -886.838621 157.850886 
L -878.790544 156.8854 
L -870.742467 156.788197 
L -862.69439 154.962297 
L -854.646313 151.751443 
L -846.598236 154.080776 
L -838.550159 153.620651 
L -830.502082 152.601531 
L -822.454005 151.624078 
L -814.405929 149.778841 
L -806.357852 149.168043 
L -798.309775 147.771696 
L -790.261698 147.528992 
L -782.213621 146.758263 
L -774.165544 144.76147 
L -766.117467 142.545045 
L -758.06939 144.640015 
L -750.021313 143.618499 
L -741.973236 141.231341 
L -733.925159 141.789723 
L -725.877082 138.41301 
L -717.829005 137.726786 
L -709.780929 137.771286 
L -701.732852 135.123877 
L -693.684775 138.641594 
L -685.636698 134.520532 
L -677.588621 132.324862 
L -669.540544 134.649623 
L -661.492467 135.121747 
L -653.44439 133.674202 
L -645.396313 134.457544 
L -637.348236 132.473987 
L -629.300159 135.75516 
L -621.252082 133.800641 
L -613.204005 134.337944 
L -605.155929 131.792696 
L -597.107852 129.497109 
L -589.059775 132.039373 
L -581.011698 136.729542 
L -572.963621 131.041472 
L -564.915544 131.19121 
L -556.867467 128.965416 
L -548.81939 129.791745 
L -540.771313 129.35875 
L -532.723236 127.920718 
L -524.675159 127.2927 
L -516.627082 129.502263 
L -508.579005 128.117476 
L -500.530929 130.120681 
L -492.482852 130.352633 
L -484.434775 123.894656 
L -476.386698 126.324346 
L -468.338621 126.373718 
L -460.290544 126.650061 
L -452.242467 126.880194 
L -444.19439 130.742227 
L -436.146313 132.175089 
L -428.098236 131.81867 
L -420.050159 136.071784 
L -412.002082 143.223513 
L -403.954005 134.265093 
L -395.905929 133.970275 
L -387.857852 133.964638 
L -379.809775 136.691333 
L -371.761698 137.169254 
L -363.713621 136.962502 
L -355.665544 143.098245 
L -347.617467 145.237205 
L -339.56939 137.835018 
L -331.521313 144.174713 
L -323.473236 140.765719 
L -315.425159 138.579234 
L -307.377082 146.331291 
L -299.329005 144.565879 
L -291.280929 149.508313 
L -283.232852 147.774298 
L -275.184775 144.138382 
L -267.136698 147.178674 
L -259.088621 147.013449 
L -251.040544 150.001921 
L -242.992467 147.848387 
L -234.94439 152.894362 
L -226.896313 148.9821 
L -218.848236 151.564653 
L -210.800159 150.837954 
L -202.752082 153.699433 
L -194.704005 148.658397 
L -186.655929 153.731603 
L -178.607852 153.270283 
L -170.559775 156.675339 
L -162.511698 158.38541 
L -154.463621 158.212187 
L -146.415544 157.108998 
L -138.367467 159.224442 
L -130.31939 160.744109 
L -122.271313 159.013367 
L -114.223236 158.24486 
L -106.175159 160.073085 
L -98.127082 161.710897 
L -90.079005 158.331555 
L -82.030929 156.312408 
L -73.982852 163.41727 
L -65.934775 166.53007 
L -57.886698 158.875682 
L -49.838621 160.872992 
L -41.790544 161.773777 
L -33.742467 162.103601 
L -25.69439 165.640391 
L -17.646313 164.952158 
L -9.598236 163.226723 
L -1.550159 164.654868 
L 6.497918 164.881666 
L 14.545995 160.652076 
L 22.594071 162.481998 
L 30.642148 161.037393 
L 38.690225 166.399231 
L 46.738302 173.032053 
L 54.786379 171.820686 
L 62.834456 166.165812 
L 70.882533 165.376908 
L 78.93061 165.926542 
L 86.978687 165.992281 
L 95.026764 170.886072 
L 103.074841 164.201774 
L 111.122918 170.819421 
L 119.170995 176.089762 
L 127.219071 171.299808 
L 135.267148 178.129355 
L 143.315225 173.500266 
L 151.363302 177.123759 
L 159.411379 174.35859 
L 167.459456 176.040812 
L 175.507533 179.605065 
L 183.55561 179.135259 
L 191.603687 180.090748 
L 199.651764 180.185681 
L 207.699841 180.369633 
L 215.747918 170.937458 
L 223.795995 182.643301 
L 231.844071 187.323191 
L 239.892148 182.358558 
L 247.940225 186.47554 
L 255.988302 187.195258 
L 264.036379 184.504142 
L 272.084456 189.187707 
L 280.132533 192.245649 
L 288.18061 190.106434 
L 296.228687 191.172471 
L 304.276764 191.680275 
L 312.324841 192.642353 
L 320.372918 196.142113 
L 328.420995 188.3529 
L 336.469071 197.56868 
L 344.517148 197.559264 
L 352.565225 197.733837 
L 360.613302 191.655174 
L 368.661379 198.572422 
L 376.709456 203.06888 
L 384.757533 197.970418 
L 392.80561 198.249403 
L 400.853687 204.605318 
L 408.901764 192.746187 
L 416.949841 203.297581 
L 424.997918 196.254625 
L 433.045995 205.430887 
L 441.094071 200.659901 
L 449.142148 204.452259 
L 457.190225 205.407665 
L 465.238302 206.863284 
L 473.286379 207.067536 
L 481.334456 204.182954 
L 489.382533 203.918587 
L 497.43061 204.84698 
L 505.478687 211.82549 
L 513.526764 211.504823 
L 521.574841 209.934195 
L 529.622918 217.546741 
L 537.670995 216.830158 
L 545.719071 210.112622 
L 553.767148 208.577802 
L 561.815225 223.256107 
L 569.863302 223.849809 
L 577.911379 226.323849 
L 585.959456 217.893865 
L 594.007533 202.410684 
L 602.05561 217.827458 
L 610.103687 212.187151 
L 618.151764 216.527164 
L 626.199841 222.657527 
L 634.247918 213.110031 
L 642.295995 224.454741 
L 650.344071 214.294338 
L 658.392148 213.492964 
L 666.440225 214.056571 
L 674.488302 220.731573 
L 682.536379 219.589601 
L 690.584456 217.731269 
L 698.632533 209.870856 
L 706.68061 213.633308 
L 714.728687 216.371843 
L 722.776764 212.734431 
L 730.824841 218.202765 
L 738.872918 213.32412 
L 746.920995 216.848828 
L 754.969071 222.713045 
L 763.017148 221.579389 
L 771.065225 215.378231 
L 779.113302 215.407167 
L 787.161379 214.187535 
L 795.209456 216.875704 
L 803.257533 216.744886 
L 811.30561 206.800701 
L 819.353687 214.609606 
L 827.401764 191.154735 
L 835.449841 214.647538 
L 843.497918 217.869776 
L 851.545995 211.171071 
L 859.594071 204.225064 
L 867.642148 217.938457 
L 875.690225 211.993097 
L 883.738302 201.499459 
L 891.786379 208.406168 
L 899.834456 208.747541 
L 907.882533 206.043053 
L 915.93061 212.662038 
L 923.978687 208.13849 
L 932.026764 210.805313 
L 940.074841 212.524813 
L 940.074841 191.805541 
L 940.074841 191.805541 
L 932.026764 193.860273 
L 923.978687 192.177319 
L 915.93061 194.051621 
L 907.882533 190.049169 
L 899.834456 191.864632 
L 891.786379 191.020742 
L 883.738302 189.480981 
L 875.690225 194.204934 
L 867.642148 196.362967 
L 859.594071 190.646646 
L 851.545995 193.29315 
L 843.497918 197.81621 
L 835.449841 195.120705 
L 827.401764 167.299924 
L 819.353687 195.569055 
L 811.30561 192.939025 
L 803.257533 196.917621 
L 795.209456 197.142377 
L 787.161379 195.959732 
L 779.113302 197.376258 
L 771.065225 197.525408 
L 763.017148 200.315642 
L 754.969071 201.182016 
L 746.920995 199.040595 
L 738.872918 197.781877 
L 730.824841 199.542253 
L 722.776764 196.714619 
L 714.728687 198.733719 
L 706.68061 197.979871 
L 698.632533 196.379199 
L 690.584456 200.722064 
L 682.536379 201.785983 
L 674.488302 203.043798 
L 666.440225 199.301595 
L 658.392148 199.362241 
L 650.344071 200.242531 
L 642.295995 205.254414 
L 634.247918 199.779974 
L 626.199841 205.025752 
L 618.151764 201.863618 
L 610.103687 199.748094 
L 602.05561 202.873949 
L 594.007533 191.886911 
L 585.959456 203.27246 
L 577.911379 208.176154 
L 569.863302 207.36313 
L 561.815225 206.90653 
L 553.767148 199.142892 
L 545.719071 200.040012 
L 537.670995 204.278339 
L 529.622918 204.5025 
L 521.574841 200.136011 
L 513.526764 201.491989 
L 505.478687 202.391843 
L 497.43061 196.211643 
L 489.382533 193.129944 
L 481.334456 191.868563 
L 473.286379 198.209902 
L 465.238302 197.646531 
L 457.190225 195.397723 
L 449.142148 193.422276 
L 441.094071 184.256517 
L 433.045995 194.852677 
L 424.997918 168.845969 
L 416.949841 188.774043 
L 408.901764 162.14157 
L 400.853687 192.119322 
L 392.80561 177.488465 
L 384.757533 178.49091 
L 376.709456 187.111724 
L 368.661379 178.485903 
L 360.613302 160.193587 
L 352.565225 175.218985 
L 344.517148 175.548851 
L 336.469071 175.555451 
L 328.420995 153.733414 
L 320.372918 166.266724 
L 312.324841 164.149381 
L 304.276764 163.303947 
L 296.228687 161.451773 
L 288.18061 157.237831 
L 280.132533 162.803108 
L 272.084456 154.818318 
L 264.036379 144.633208 
L 255.988302 154.32961 
L 247.940225 147.882483 
L 239.892148 142.186642 
L 231.844071 153.221006 
L 223.795995 142.596341 
L 215.747918 114.278736 
L 207.699841 136.046022 
L 199.651764 135.839218 
L 191.603687 136.506695 
L 183.55561 134.540486 
L 175.507533 135.26325 
L 167.459456 127.998543 
L 159.411379 125.353578 
L 151.363302 132.022477 
L 143.315225 121.188022 
L 135.267148 133.455316 
L 127.219071 118.186838 
L 119.170995 127.866261 
L 111.122918 117.891008 
L 103.074841 105.392488 
L 95.026764 117.942119 
L 86.978687 107.06298 
L 78.93061 108.399469 
L 70.882533 108.447431 
L 62.834456 110.110602 
L 54.786379 121.461527 
L 46.738302 124.59115 
L 38.690225 112.201756 
L 30.642148 99.484153 
L 22.594071 103.727018 
L 14.545995 101.596053 
L 6.497918 110.454323 
L -1.550159 110.138414 
L -9.598236 107.331234 
L -17.646313 112.188287 
L -25.69439 112.389695 
L -33.742467 106.212671 
L -41.790544 107.571462 
L -49.838621 105.514372 
L -57.886698 102.857055 
L -65.934775 118.563433 
L -73.982852 110.573997 
L -82.030929 99.434503 
L -90.079005 105.572808 
L -98.127082 111.129605 
L -106.175159 108.388529 
L -114.223236 106.408621 
L -122.271313 108.951385 
L -130.31939 114.785921 
L -138.367467 109.636668 
L -146.415544 108.092564 
L -154.463621 110.975159 
L -162.511698 107.94939 
L -170.559775 109.640724 
L -178.607852 102.988708 
L -186.655929 106.138423 
L -194.704005 97.904997 
L -202.752082 105.980882 
L -210.800159 102.977063 
L -218.848236 105.627073 
L -226.896313 103.7256 
L -234.94439 108.929597 
L -242.992467 101.633845 
L -251.040544 106.942381 
L -259.088621 102.600437 
L -267.136698 103.887597 
L -275.184775 100.356923 
L -283.232852 103.539778 
L -291.280929 109.525698 
L -299.329005 104.029808 
L -307.377082 106.077387 
L -315.425159 95.847221 
L -323.473236 101.067962 
L -331.521313 104.507087 
L -339.56939 96.839192 
L -347.617467 107.179222 
L -355.665544 107.496271 
L -363.713621 97.966771 
L -371.761698 98.931516 
L -379.809775 98.657102 
L -387.857852 95.519823 
L -395.905929 98.467471 
L -403.954005 98.466464 
L -412.002082 111.384937 
L -420.050159 103.184269 
L -428.098236 97.645428 
L -436.146313 98.340265 
L -444.19439 97.227249 
L -452.242467 93.660665 
L -460.290544 95.328207 
L -468.338621 93.4583 
L -476.386698 96.473461 
L -484.434775 93.546171 
L -492.482852 101.344095 
L -500.530929 102.640407 
L -508.579005 101.359734 
L -516.627082 103.436992 
L -524.675159 100.950247 
L -532.723236 103.464547 
L -540.771313 105.299833 
L -548.81939 108.384632 
L -556.867467 106.51245 
L -564.915544 110.54262 
L -572.963621 110.373403 
L -581.011698 117.534746 
L -589.059775 113.180138 
L -597.107852 110.979833 
L -605.155929 114.181904 
L -613.204005 116.216024 
L -621.252082 116.540356 
L -629.300159 120.581178 
L -637.348236 117.380912 
L -645.396313 120.429842 
L -653.44439 119.437089 
L -661.492467 120.719202 
L -669.540544 119.914006 
L -677.588621 118.478797 
L -685.636698 122.121188 
L -693.684775 126.570796 
L -701.732852 122.677463 
L -709.780929 125.73781 
L -717.829005 125.071909 
L -725.877082 126.542005 
L -733.925159 130.574165 
L -741.973236 129.657265 
L -750.021313 132.764548 
L -758.06939 133.857674 
L -766.117467 131.184241 
L -774.165544 133.520814 
L -782.213621 135.946303 
L -790.261698 136.946048 
L -798.309775 137.334826 
L -806.357852 138.999316 
L -814.405929 139.356404 
L -822.454005 141.690296 
L -830.502082 142.778153 
L -838.550159 143.738906 
L -846.598236 144.492517 
L -854.646313 141.072233 
L -862.69439 145.548644 
L -870.742467 147.696036 
L -878.790544 147.555301 
L -886.838621 148.202041 
L -894.886698 148.550113 
L -902.934775 150.215857 
L -910.982852 150.356279 
L -919.030929 152.420627 
L -927.079005 153.34183 
L -935.127082 153.494498 
L -943.175159 154.507291 
L -951.223236 155.704755 
L -959.271313 157.015086 
L -967.31939 160.342039 
L -975.367467 161.511746 
L -983.415544 162.968207 
L -991.463621 162.464945 
L -999.511698 163.918973 
L -1007.559775 163.991299 
L -1015.607852 164.471322 
L -1023.655929 162.885758 
L -1031.704005 167.276661 
L -1039.752082 167.501061 
L -1047.800159 167.827549 
L -1055.848236 170.464896 
L -1063.896313 170.027776 
L -1071.94439 170.990408 
L -1079.992467 169.750463 
L -1088.040544 173.328932 
L -1096.088621 171.554402 
L -1104.136698 175.214279 
L -1112.184775 177.299508 
L -1120.232852 177.770015 
L -1128.280929 180.749608 
L -1136.329005 182.595893 
L -1144.377082 182.589119 
L -1152.425159 183.647209 
L -1160.473236 184.027888 
L -1168.521313 185.680831 
L -1176.56939 184.876626 
L -1184.617467 187.153188 
L -1192.665544 188.73797 
L -1200.713621 189.609596 
L -1208.761698 190.127779 
L -1216.809775 190.071165 
L -1224.857852 193.089366 
L -1232.905929 193.402014 
L -1240.954005 194.749858 
L -1249.002082 197.49555 
L -1257.050159 198.177611 
L -1265.098236 194.913706 
L -1273.146313 195.269725 
L -1281.19439 198.1661 
L -1289.242467 198.086704 
L -1297.290544 200.055704 
L -1305.338621 201.464687 
L -1313.386698 200.309247 
L -1321.434775 200.43941 
L -1329.482852 201.621536 
L -1337.530929 203.838517 
L -1345.579005 201.007084 
L -1353.627082 201.69708 
L -1361.675159 201.230816 
L -1369.723236 204.320221 
L -1377.771313 203.331667 
L -1385.81939 201.598347 
L -1393.867467 202.943029 
L -1401.915544 204.663392 
L -1409.963621 199.959074 
L -1418.011698 203.897993 
L -1426.059775 198.507843 
L -1434.107852 197.895601 
L -1442.155929 196.518147 
L -1450.204005 197.269713 
L -1458.252082 197.554992 
L -1466.300159 196.839984 
L -1474.348236 193.343865 
L -1482.396313 194.668828 
L -1490.44439 188.138044 
L -1498.492467 179.204748 
L -1506.540544 181.587408 
L -1514.588621 185.473467 
L -1522.636698 174.860951 
L -1530.684775 176.156384 
L -1538.732852 173.113244 
L -1546.780929 172.460474 
L -1554.829005 159.793376 
L -1562.877082 158.077114 
L -1570.925159 153.605221 
L -1578.973236 143.972729 
L -1587.021313 136.227069 
L -1595.06939 143.949329 
L -1603.117467 139.735879 
L -1611.165544 133.139082 
L -1619.213621 130.400874 
L -1627.261698 125.697511 
L -1635.309775 119.437221 
L -1643.357852 121.754858 
L -1651.405929 111.137929 
L -1659.454005 105.517998 
L -1667.502082 102.965182 
L -1675.550159 100.824009 
L -1683.598236 101.844899 
L -1691.646313 99.172418 
L -1699.69439 101.236662 
L -1707.742467 103.993401 
L -1715.790544 98.913133 
L -1723.838621 98.302478 
L -1731.886698 102.861085 
L -1739.934775 103.754011 
L -1747.982852 101.741368 
L -1756.030929 111.205492 
L -1764.079005 104.191833 
L -1772.127082 106.263692 
L -1780.175159 113.376712 
L -1788.223236 111.049004 
L -1796.271313 113.459101 
L -1804.31939 115.592146 
L -1812.367467 118.120226 
L -1820.415544 120.517052 
L -1828.463621 123.258218 
L -1836.511698 125.751208 
L -1844.559775 127.715686 
L -1852.607852 131.049007 
L -1860.655929 131.543634 
L -1868.704005 137.077488 
L -1876.752082 136.928306 
L -1884.800159 139.463265 
L -1892.848236 142.499756 
L -1900.896313 144.6521 
L -1908.94439 147.531588 
L -1916.992467 149.461017 
L -1925.040544 152.66811 
L -1933.088621 154.415709 
L -1941.136698 156.802428 
L -1949.184775 159.385945 
L -1957.232852 162.123824 
L -1965.280929 163.679596 
L -1973.329005 166.372025 
L -1981.377082 167.874632 
L -1989.425159 170.64344 
L -1997.473236 172.596818 
L -2005.521313 174.813198 
L -2013.56939 176.923594 
L -2021.617467 178.887987 
L -2029.665544 180.536037 
L -2037.713621 182.769399 
L -2045.761698 183.713503 
L -2053.809775 186.438013 
L -2061.857852 188.210311 
L -2069.905929 189.593298 
L -2077.954005 191.4775 
L -2086.002082 192.95162 
L -2094.050159 194.112841 
L -2102.098236 195.854531 
L -2110.146313 197.752511 
L -2118.19439 199.083507 
L -2126.242467 200.301557 
L -2134.290544 201.957645 
L -2142.338621 203.095984 
L -2150.386698 204.557012 
L -2158.434775 205.661094 
L -2166.482852 206.971019 
L -2174.530929 207.791132 
L -2182.579005 209.334702 
L -2190.627082 210.169204 
L -2198.675159 211.377548 
L -2206.723236 212.882031 
L -2214.771313 213.832897 
L -2222.81939 213.881902 
L -2230.867467 215.05245 
L -2238.915544 215.432979 
L -2246.963621 216.524075 
L -2255.011698 218.015177 
L -2263.059775 218.490666 
L -2271.107852 218.95336 
L -2279.155929 219.006024 
L -2287.204005 219.565704 
L -2295.252082 219.974211 
L -2303.300159 220.448455 
L -2311.348236 221.479489 
L -2319.396313 222.053519 
L -2327.44439 222.804353 
L -2335.492467 222.32404 
L -2343.540544 222.92904 
L -2351.588621 222.090181 
L -2359.636698 223.330442 
L -2367.684775 223.789794 
L -2375.732852 224.440415 
L -2383.780929 222.539909 
L -2391.829005 225.186086 
L -2399.877082 225.15005 
L -2407.925159 223.987825 
L -2415.973236 223.853552 
L -2424.021313 225.368051 
L -2432.06939 227.645152 
L -2440.117467 227.099833 
L -2448.165544 227.351765 
L -2456.213621 225.568557 
L -2464.261698 226.333781 
L -2472.309775 226.904535 
L -2480.357852 228.510098 
L -2488.405929 228.492548 
L -2496.454005 228.660544 
L -2504.502082 229.286099 
L -2512.550159 230.480821 
L -2520.598236 230.914571 
L -2528.646313 231.704903 
L -2536.69439 232.939895 
L -2544.742467 232.883004 
L -2552.790544 234.527842 
L -2560.838621 235.170852 
L -2568.886698 235.796735 
L -2576.934775 237.06048 
L -2584.982852 237.737416 
L -2593.030929 238.935822 
L -2601.079005 240.249591 
L -2609.127082 240.739651 
L -2617.175159 240.797504 
L -2625.223236 241.200325 
L -2633.271313 243.348887 
L -2641.31939 243.445586 
L -2649.367467 245.090828 
L -2657.415544 245.555134 
L -2665.463621 245.32616 
L -2673.511698 247.220973 
L -2681.559775 246.225975 
L -2689.607852 246.57008 
L -2697.655929 248.639967 
L -2705.704005 247.550224 
L -2713.752082 249.447703 
L -2721.800159 250.366566 
L -2729.848236 249.070606 
L -2737.896313 244.739498 
L -2745.94439 247.795689 
L -2753.992467 246.695916 
L -2762.040544 239.582279 
L -2770.088621 245.851256 
L -2778.136698 247.107252 
L -2786.184775 240.532156 
L -2794.232852 238.904888 
L -2802.280929 242.213688 
L -2810.329005 235.161974 
L -2818.377082 222.922392 
L -2826.425159 236.303932 
L -2834.473236 241.719885 
L -2842.521313 244.245559 
L -2850.56939 227.232736 
L -2858.617467 227.807992 
L -2866.665544 219.236866 
L -2874.713621 212.555823 
L -2882.761698 225.370684 
L -2890.809775 219.465973 
L -2898.857852 207.471277 
L -2906.905929 198.875554 
L -2914.954005 198.866956 
L -2923.002082 199.750546 
L -2931.050159 197.496431 
L -2939.098236 195.913739 
L -2947.146313 199.968217 
L -2955.19439 198.858524 
L -2963.242467 195.189371 
L -2971.290544 196.39462 
L -2979.338621 194.46766 
L -2987.386698 193.273641 
L -2995.434775 192.616235 
L -3003.482852 193.73472 
L -3011.530929 194.060999 
L -3019.579005 193.956636 
L -3027.627082 194.792784 
L -3035.675159 194.819262 
L -3043.723236 195.393855 
L -3051.771313 196.758785 
L -3059.81939 197.631849 
L -3067.867467 198.083111 
L -3075.915544 198.647005 
L -3083.963621 199.6512 
L -3092.011698 200.045588 
L -3100.059775 200.993591 
L -3108.107852 202.266547 
L -3116.155929 202.864987 
L -3124.204005 203.075963 
L -3132.252082 203.738959 
L -3140.300159 204.422342 
L -3148.348236 205.066249 
L -3156.396313 205.680059 
L -3164.44439 206.263933 
L -3172.492467 207.256417 
L -3180.540544 207.567644 
L -3188.588621 208.230594 
L -3196.636698 208.935475 
L -3204.684775 209.506295 
L -3212.732852 210.083745 
L -3220.780929 210.521013 
L -3228.829005 211.021928 
L -3236.877082 211.825659 
L -3244.925159 212.295238 
L -3252.973236 212.905182 
L -3261.021313 213.350112 
L -3269.06939 213.899307 
L -3277.117467 214.469783 
L -3285.165544 215.051738 
L -3293.213621 215.514686 
L -3301.261698 216.103585 
L -3309.309775 216.605068 
L -3317.357852 217.158132 
L -3325.405929 217.65969 
L -3333.454005 218.196078 
L -3341.502082 218.679114 
L -3349.550159 219.212722 
L -3357.598236 219.804396 
L -3365.646313 220.218273 
L -3373.69439 220.779718 
L -3381.742467 221.244228 
L -3389.790544 221.810101 
L -3397.838621 222.184695 
L -3405.886698 222.704639 
L -3413.934775 223.195227 
L -3421.982852 223.657065 
L -3430.030929 224.131241 
L -3438.079005 224.559904 
L -3446.127082 225.084042 
L -3454.175159 225.541603 
L -3462.223236 225.892722 
L -3470.271313 226.335231 
L -3478.31939 226.775055 
L -3486.367467 227.209646 
L -3494.415544 227.620716 
L -3502.463621 227.989936 
L -3510.511698 228.408042 
L -3518.559775 228.810382 
L -3526.607852 229.211084 
L -3534.655929 229.605034 
L -3542.704005 230.009338 
L -3550.752082 230.431646 
L -3558.800159 230.764897 
L -3566.848236 231.168881 
L -3574.896313 231.557003 
L -3582.94439 231.917129 
L -3590.992467 232.291041 
L -3599.040544 232.673081 
L -3607.088621 233.033698 
L -3615.136698 233.419537 
L -3623.184775 233.748541 
L -3631.232852 234.086242 
L -3639.280929 234.453113 
L -3647.329005 234.796767 
L -3655.377082 235.108117 
L -3663.425159 235.448337 
L -3671.473236 235.734705 
L -3679.521313 236.054012 
L -3687.56939 236.406952 
L -3695.617467 236.671182 
L -3703.665544 236.993077 
L -3711.713621 237.280429 
L -3719.761698 237.59091 
L -3727.809775 237.843456 
L -3735.857852 238.180523 
L -3743.905929 238.410457 
L -3751.954005 238.699232 
L -3760.002082 238.974122 
L -3768.050159 239.262079 
L -3776.098236 239.474356 
L -3784.146313 239.700053 
L -3792.19439 239.934216 
L -3800.242467 240.19258 
L -3808.290544 240.415276 
L -3816.338621 240.618129 
L -3824.386698 240.835881 
L -3832.434775 241.061341 
L -3840.482852 241.274449 
L -3848.530929 241.500676 
L -3856.579005 241.726468 
L -3864.627082 241.935974 
L -3872.675159 242.156495 
L -3880.723236 242.38043 
L -3888.771313 242.568441 
L -3896.81939 242.770075 
L -3904.867467 242.997157 
L -3912.915544 243.20769 
L -3920.963621 243.380553 
L -3929.011698 243.599827 
L -3937.059775 243.790862 
L -3945.107852 243.95963 
L -3953.155929 244.136705 
L -3961.204005 244.298934 
L -3969.252082 244.495273 
L -3977.300159 244.637728 
L -3985.348236 244.80466 
L -3993.396313 244.961032 
L -4001.44439 245.103267 
L -4009.492467 245.228345 
L -4017.540544 245.337322 
L -4025.588621 245.451129 
L -4033.636698 245.568998 
L -4041.684775 245.654278 
L -4049.732852 245.76631 
L -4057.780929 245.851742 
L -4065.829005 245.917522 
L -4073.877082 246.01332 
L -4081.925159 246.091257 
L -4089.973236 246.146159 
L -4098.021313 246.213605 
L -4106.06939 246.280082 
L -4114.117467 246.333002 
L -4122.165544 246.388647 
L -4130.213621 246.425959 
L -4138.261698 246.485403 
L -4146.309775 246.522407 
L -4154.357852 246.565683 
L -4162.405929 246.615203 
L -4170.454005 246.646847 
L -4178.502082 246.684606 
L -4186.550159 246.751173 
L -4194.598236 246.784398 
L -4202.646313 246.837307 
L -4210.69439 246.87004 
L -4218.742467 246.930492 
L -4226.790544 246.969551 
L -4234.838621 247.014411 
L -4242.886698 247.049071 
L -4250.934775 247.07808 
L -4258.982852 247.118936 
L -4267.030929 247.171093 
L -4275.079005 247.223575 
L -4283.127082 247.265666 
L -4291.175159 247.293364 
L -4299.223236 247.354904 
L -4307.271313 247.399573 
L -4315.31939 247.460464 
z
" clip-path="url(#p69866e0d24)" style="fill: #008000; fill-opacity: 0.3; stroke: #008000; stroke-opacity: 0.3"/>
   </g>
   <g id="matplotlib.axis_1">
    <g id="xtick_1">
     <g id="line2d_1">
      <defs>
       <path id="m3157369a0a" d="M 0 0 
L 0 3.5 
" style="stroke: #000000; stroke-width: 0.8"/>
      </defs>
      <g>
       <use xlink:href="#m3157369a0a" x="103.074841" y="395.28" style="stroke: #000000; stroke-width: 0.8"/>
      </g>
     </g>
     <g id="text_1">
      <!-- 2023-01-01 -->
      <g transform="translate(17.945813 495.213718) rotate(-45) scale(0.2 -0.2)">
       <defs>
        <path id="DejaVuSans-32" d="M 1228 531 
L 3431 531 
L 3431 0 
L 469 0 
L 469 531 
Q 828 903 1448 1529 
Q 2069 2156 2228 2338 
Q 2531 2678 2651 2914 
Q 2772 3150 2772 3378 
Q 2772 3750 2511 3984 
Q 2250 4219 1831 4219 
Q 1534 4219 1204 4116 
Q 875 4013 500 3803 
L 500 4441 
Q 881 4594 1212 4672 
Q 1544 4750 1819 4750 
Q 2544 4750 2975 4387 
Q 3406 4025 3406 3419 
Q 3406 3131 3298 2873 
Q 3191 2616 2906 2266 
Q 2828 2175 2409 1742 
Q 1991 1309 1228 531 
z
" transform="scale(0.015625)"/>
        <path id="DejaVuSans-30" d="M 2034 4250 
Q 1547 4250 1301 3770 
Q 1056 3291 1056 2328 
Q 1056 1369 1301 889 
Q 1547 409 2034 409 
Q 2525 409 2770 889 
Q 3016 1369 3016 2328 
Q 3016 3291 2770 3770 
Q 2525 4250 2034 4250 
z
M 2034 4750 
Q 2819 4750 3233 4129 
Q 3647 3509 3647 2328 
Q 3647 1150 3233 529 
Q 2819 -91 2034 -91 
Q 1250 -91 836 529 
Q 422 1150 422 2328 
Q 422 3509 836 4129 
Q 1250 4750 2034 4750 
z
" transform="scale(0.015625)"/>
        <path id="DejaVuSans-33" d="M 2597 2516 
Q 3050 2419 3304 2112 
Q 3559 1806 3559 1356 
Q 3559 666 3084 287 
Q 2609 -91 1734 -91 
Q 1441 -91 1130 -33 
Q 819 25 488 141 
L 488 750 
Q 750 597 1062 519 
Q 1375 441 1716 441 
Q 2309 441 2620 675 
Q 2931 909 2931 1356 
Q 2931 1769 2642 2001 
Q 2353 2234 1838 2234 
L 1294 2234 
L 1294 2753 
L 1863 2753 
Q 2328 2753 2575 2939 
Q 2822 3125 2822 3475 
Q 2822 3834 2567 4026 
Q 2313 4219 1838 4219 
Q 1578 4219 1281 4162 
Q 984 4106 628 3988 
L 628 4550 
Q 988 4650 1302 4700 
Q 1616 4750 1894 4750 
Q 2613 4750 3031 4423 
Q 3450 4097 3450 3541 
Q 3450 3153 3228 2886 
Q 3006 2619 2597 2516 
z
" transform="scale(0.015625)"/>
        <path id="DejaVuSans-2d" d="M 313 2009 
L 1997 2009 
L 1997 1497 
L 313 1497 
L 313 2009 
z
" transform="scale(0.015625)"/>
        <path id="DejaVuSans-31" d="M 794 531 
L 1825 531 
L 1825 4091 
L 703 3866 
L 703 4441 
L 1819 4666 
L 2450 4666 
L 2450 531 
L 3481 531 
L 3481 0 
L 794 0 
L 794 531 
z
" transform="scale(0.015625)"/>
       </defs>
       <use xlink:href="#DejaVuSans-32"/>
       <use xlink:href="#DejaVuSans-30" x="63.623047"/>
       <use xlink:href="#DejaVuSans-32" x="127.246094"/>
       <use xlink:href="#DejaVuSans-33" x="190.869141"/>
       <use xlink:href="#DejaVuSans-2d" x="254.492188"/>
       <use xlink:href="#DejaVuSans-30" x="290.576172"/>
       <use xlink:href="#DejaVuSans-31" x="354.199219"/>
       <use xlink:href="#DejaVuSans-2d" x="417.822266"/>
       <use xlink:href="#DejaVuSans-30" x="453.90625"/>
       <use xlink:href="#DejaVuSans-31" x="517.529297"/>
      </g>
     </g>
    </g>
    <g id="xtick_2">
     <g id="line2d_2">
      <g>
       <use xlink:href="#m3157369a0a" x="215.747918" y="395.28" style="stroke: #000000; stroke-width: 0.8"/>
      </g>
     </g>
     <g id="text_2">
      <!-- 2023-01-15 -->
      <g transform="translate(130.61889 495.213718) rotate(-45) scale(0.2 -0.2)">
       <defs>
        <path id="DejaVuSans-35" d="M 691 4666 
L 3169 4666 
L 3169 4134 
L 1269 4134 
L 1269 2991 
Q 1406 3038 1543 3061 
Q 1681 3084 1819 3084 
Q 2600 3084 3056 2656 
Q 3513 2228 3513 1497 
Q 3513 744 3044 326 
Q 2575 -91 1722 -91 
Q 1428 -91 1123 -41 
Q 819 9 494 109 
L 494 744 
Q 775 591 1075 516 
Q 1375 441 1709 441 
Q 2250 441 2565 725 
Q 2881 1009 2881 1497 
Q 2881 1984 2565 2268 
Q 2250 2553 1709 2553 
Q 1456 2553 1204 2497 
Q 953 2441 691 2322 
L 691 4666 
z
" transform="scale(0.015625)"/>
       </defs>
       <use xlink:href="#DejaVuSans-32"/>
       <use xlink:href="#DejaVuSans-30" x="63.623047"/>
       <use xlink:href="#DejaVuSans-32" x="127.246094"/>
       <use xlink:href="#DejaVuSans-33" x="190.869141"/>
       <use xlink:href="#DejaVuSans-2d" x="254.492188"/>
       <use xlink:href="#DejaVuSans-30" x="290.576172"/>
       <use xlink:href="#DejaVuSans-31" x="354.199219"/>
       <use xlink:href="#DejaVuSans-2d" x="417.822266"/>
       <use xlink:href="#DejaVuSans-31" x="453.90625"/>
       <use xlink:href="#DejaVuSans-35" x="517.529297"/>
      </g>
     </g>
    </g>
    <g id="xtick_3">
     <g id="line2d_3">
      <g>
       <use xlink:href="#m3157369a0a" x="328.420995" y="395.28" style="stroke: #000000; stroke-width: 0.8"/>
      </g>
     </g>
     <g id="text_3">
      <!-- 2023-01-29 -->
      <g transform="translate(243.291967 495.213718) rotate(-45) scale(0.2 -0.2)">
       <defs>
        <path id="DejaVuSans-39" d="M 703 97 
L 703 672 
Q 941 559 1184 500 
Q 1428 441 1663 441 
Q 2288 441 2617 861 
Q 2947 1281 2994 2138 
Q 2813 1869 2534 1725 
Q 2256 1581 1919 1581 
Q 1219 1581 811 2004 
Q 403 2428 403 3163 
Q 403 3881 828 4315 
Q 1253 4750 1959 4750 
Q 2769 4750 3195 4129 
Q 3622 3509 3622 2328 
Q 3622 1225 3098 567 
Q 2575 -91 1691 -91 
Q 1453 -91 1209 -44 
Q 966 3 703 97 
z
M 1959 2075 
Q 2384 2075 2632 2365 
Q 2881 2656 2881 3163 
Q 2881 3666 2632 3958 
Q 2384 4250 1959 4250 
Q 1534 4250 1286 3958 
Q 1038 3666 1038 3163 
Q 1038 2656 1286 2365 
Q 1534 2075 1959 2075 
z
" transform="scale(0.015625)"/>
       </defs>
       <use xlink:href="#DejaVuSans-32"/>
       <use xlink:href="#DejaVuSans-30" x="63.623047"/>
       <use xlink:href="#DejaVuSans-32" x="127.246094"/>
       <use xlink:href="#DejaVuSans-33" x="190.869141"/>
       <use xlink:href="#DejaVuSans-2d" x="254.492188"/>
       <use xlink:href="#DejaVuSans-30" x="290.576172"/>
       <use xlink:href="#DejaVuSans-31" x="354.199219"/>
       <use xlink:href="#DejaVuSans-2d" x="417.822266"/>
       <use xlink:href="#DejaVuSans-32" x="453.90625"/>
       <use xlink:href="#DejaVuSans-39" x="517.529297"/>
      </g>
     </g>
    </g>
    <g id="xtick_4">
     <g id="line2d_4">
      <g>
       <use xlink:href="#m3157369a0a" x="441.094071" y="395.28" style="stroke: #000000; stroke-width: 0.8"/>
      </g>
     </g>
     <g id="text_4">
      <!-- 2023-02-12 -->
      <g transform="translate(355.965044 495.213718) rotate(-45) scale(0.2 -0.2)">
       <use xlink:href="#DejaVuSans-32"/>
       <use xlink:href="#DejaVuSans-30" x="63.623047"/>
       <use xlink:href="#DejaVuSans-32" x="127.246094"/>
       <use xlink:href="#DejaVuSans-33" x="190.869141"/>
       <use xlink:href="#DejaVuSans-2d" x="254.492188"/>
       <use xlink:href="#DejaVuSans-30" x="290.576172"/>
       <use xlink:href="#DejaVuSans-32" x="354.199219"/>
       <use xlink:href="#DejaVuSans-2d" x="417.822266"/>
       <use xlink:href="#DejaVuSans-31" x="453.90625"/>
       <use xlink:href="#DejaVuSans-32" x="517.529297"/>
      </g>
     </g>
    </g>
    <g id="xtick_5">
     <g id="line2d_5">
      <g>
       <use xlink:href="#m3157369a0a" x="553.767148" y="395.28" style="stroke: #000000; stroke-width: 0.8"/>
      </g>
     </g>
     <g id="text_5">
      <!-- 2023-02-26 -->
      <g transform="translate(468.638121 495.213718) rotate(-45) scale(0.2 -0.2)">
       <defs>
        <path id="DejaVuSans-36" d="M 2113 2584 
Q 1688 2584 1439 2293 
Q 1191 2003 1191 1497 
Q 1191 994 1439 701 
Q 1688 409 2113 409 
Q 2538 409 2786 701 
Q 3034 994 3034 1497 
Q 3034 2003 2786 2293 
Q 2538 2584 2113 2584 
z
M 3366 4563 
L 3366 3988 
Q 3128 4100 2886 4159 
Q 2644 4219 2406 4219 
Q 1781 4219 1451 3797 
Q 1122 3375 1075 2522 
Q 1259 2794 1537 2939 
Q 1816 3084 2150 3084 
Q 2853 3084 3261 2657 
Q 3669 2231 3669 1497 
Q 3669 778 3244 343 
Q 2819 -91 2113 -91 
Q 1303 -91 875 529 
Q 447 1150 447 2328 
Q 447 3434 972 4092 
Q 1497 4750 2381 4750 
Q 2619 4750 2861 4703 
Q 3103 4656 3366 4563 
z
" transform="scale(0.015625)"/>
       </defs>
       <use xlink:href="#DejaVuSans-32"/>
       <use xlink:href="#DejaVuSans-30" x="63.623047"/>
       <use xlink:href="#DejaVuSans-32" x="127.246094"/>
       <use xlink:href="#DejaVuSans-33" x="190.869141"/>
       <use xlink:href="#DejaVuSans-2d" x="254.492188"/>
       <use xlink:href="#DejaVuSans-30" x="290.576172"/>
       <use xlink:href="#DejaVuSans-32" x="354.199219"/>
       <use xlink:href="#DejaVuSans-2d" x="417.822266"/>
       <use xlink:href="#DejaVuSans-32" x="453.90625"/>
       <use xlink:href="#DejaVuSans-36" x="517.529297"/>
      </g>
     </g>
    </g>
    <g id="xtick_6">
     <g id="line2d_6">
      <g>
       <use xlink:href="#m3157369a0a" x="666.440225" y="395.28" style="stroke: #000000; stroke-width: 0.8"/>
      </g>
     </g>
     <g id="text_6">
      <!-- 2023-03-12 -->
      <g transform="translate(581.311198 495.213718) rotate(-45) scale(0.2 -0.2)">
       <use xlink:href="#DejaVuSans-32"/>
       <use xlink:href="#DejaVuSans-30" x="63.623047"/>
       <use xlink:href="#DejaVuSans-32" x="127.246094"/>
       <use xlink:href="#DejaVuSans-33" x="190.869141"/>
       <use xlink:href="#DejaVuSans-2d" x="254.492188"/>
       <use xlink:href="#DejaVuSans-30" x="290.576172"/>
       <use xlink:href="#DejaVuSans-33" x="354.199219"/>
       <use xlink:href="#DejaVuSans-2d" x="417.822266"/>
       <use xlink:href="#DejaVuSans-31" x="453.90625"/>
       <use xlink:href="#DejaVuSans-32" x="517.529297"/>
      </g>
     </g>
    </g>
    <g id="xtick_7">
     <g id="line2d_7">
      <g>
       <use xlink:href="#m3157369a0a" x="779.113302" y="395.28" style="stroke: #000000; stroke-width: 0.8"/>
      </g>
     </g>
     <g id="text_7">
      <!-- 2023-03-26 -->
      <g transform="translate(693.984275 495.213718) rotate(-45) scale(0.2 -0.2)">
       <use xlink:href="#DejaVuSans-32"/>
       <use xlink:href="#DejaVuSans-30" x="63.623047"/>
       <use xlink:href="#DejaVuSans-32" x="127.246094"/>
       <use xlink:href="#DejaVuSans-33" x="190.869141"/>
       <use xlink:href="#DejaVuSans-2d" x="254.492188"/>
       <use xlink:href="#DejaVuSans-30" x="290.576172"/>
       <use xlink:href="#DejaVuSans-33" x="354.199219"/>
       <use xlink:href="#DejaVuSans-2d" x="417.822266"/>
       <use xlink:href="#DejaVuSans-32" x="453.90625"/>
       <use xlink:href="#DejaVuSans-36" x="517.529297"/>
      </g>
     </g>
    </g>
    <g id="xtick_8">
     <g id="line2d_8">
      <g>
       <use xlink:href="#m3157369a0a" x="891.786379" y="395.28" style="stroke: #000000; stroke-width: 0.8"/>
      </g>
     </g>
     <g id="text_8">
      <!-- 2023-04-09 -->
      <g transform="translate(806.657352 495.213718) rotate(-45) scale(0.2 -0.2)">
       <defs>
        <path id="DejaVuSans-34" d="M 2419 4116 
L 825 1625 
L 2419 1625 
L 2419 4116 
z
M 2253 4666 
L 3047 4666 
L 3047 1625 
L 3713 1625 
L 3713 1100 
L 3047 1100 
L 3047 0 
L 2419 0 
L 2419 1100 
L 313 1100 
L 313 1709 
L 2253 4666 
z
" transform="scale(0.015625)"/>
       </defs>
       <use xlink:href="#DejaVuSans-32"/>
       <use xlink:href="#DejaVuSans-30" x="63.623047"/>
       <use xlink:href="#DejaVuSans-32" x="127.246094"/>
       <use xlink:href="#DejaVuSans-33" x="190.869141"/>
       <use xlink:href="#DejaVuSans-2d" x="254.492188"/>
       <use xlink:href="#DejaVuSans-30" x="290.576172"/>
       <use xlink:href="#DejaVuSans-34" x="354.199219"/>
       <use xlink:href="#DejaVuSans-2d" x="417.822266"/>
       <use xlink:href="#DejaVuSans-30" x="453.90625"/>
       <use xlink:href="#DejaVuSans-39" x="517.529297"/>
      </g>
     </g>
    </g>
    <g id="xtick_9">
     <g id="line2d_9">
      <g>
       <use xlink:href="#m3157369a0a" x="940.074841" y="395.28" style="stroke: #000000; stroke-width: 0.8"/>
      </g>
     </g>
     <g id="text_9">
      <!-- 2023-04-15 -->
      <g transform="translate(854.945813 495.213718) rotate(-45) scale(0.2 -0.2)">
       <use xlink:href="#DejaVuSans-32"/>
       <use xlink:href="#DejaVuSans-30" x="63.623047"/>
       <use xlink:href="#DejaVuSans-32" x="127.246094"/>
       <use xlink:href="#DejaVuSans-33" x="190.869141"/>
       <use xlink:href="#DejaVuSans-2d" x="254.492188"/>
       <use xlink:href="#DejaVuSans-30" x="290.576172"/>
       <use xlink:href="#DejaVuSans-34" x="354.199219"/>
       <use xlink:href="#DejaVuSans-2d" x="417.822266"/>
       <use xlink:href="#DejaVuSans-31" x="453.90625"/>
       <use xlink:href="#DejaVuSans-35" x="517.529297"/>
      </g>
     </g>
    </g>
   </g>
   <g id="matplotlib.axis_2">
    <g id="ytick_1">
     <g id="line2d_10">
      <defs>
       <path id="m0c8ba26408" d="M 0 0 
L -3.5 0 
" style="stroke: #000000; stroke-width: 0.8"/>
      </defs>
      <g>
       <use xlink:href="#m0c8ba26408" x="103.074841" y="371.658292" style="stroke: #000000; stroke-width: 0.8"/>
      </g>
     </g>
     <g id="text_10">
      <!-- −0.10 -->
      <g transform="translate(34.784216 379.25673) scale(0.2 -0.2)">
       <defs>
        <path id="DejaVuSans-2212" d="M 678 2272 
L 4684 2272 
L 4684 1741 
L 678 1741 
L 678 2272 
z
" transform="scale(0.015625)"/>
        <path id="DejaVuSans-2e" d="M 684 794 
L 1344 794 
L 1344 0 
L 684 0 
L 684 794 
z
" transform="scale(0.015625)"/>
       </defs>
       <use xlink:href="#DejaVuSans-2212"/>
       <use xlink:href="#DejaVuSans-30" x="83.789062"/>
       <use xlink:href="#DejaVuSans-2e" x="147.412109"/>
       <use xlink:href="#DejaVuSans-31" x="179.199219"/>
       <use xlink:href="#DejaVuSans-30" x="242.822266"/>
      </g>
     </g>
    </g>
    <g id="ytick_2">
     <g id="line2d_11">
      <g>
       <use xlink:href="#m0c8ba26408" x="103.074841" y="309.588986" style="stroke: #000000; stroke-width: 0.8"/>
      </g>
     </g>
     <g id="text_11">
      <!-- −0.05 -->
      <g transform="translate(34.784216 317.187424) scale(0.2 -0.2)">
       <use xlink:href="#DejaVuSans-2212"/>
       <use xlink:href="#DejaVuSans-30" x="83.789062"/>
       <use xlink:href="#DejaVuSans-2e" x="147.412109"/>
       <use xlink:href="#DejaVuSans-30" x="179.199219"/>
       <use xlink:href="#DejaVuSans-35" x="242.822266"/>
      </g>
     </g>
    </g>
    <g id="ytick_3">
     <g id="line2d_12">
      <g>
       <use xlink:href="#m0c8ba26408" x="103.074841" y="247.51968" style="stroke: #000000; stroke-width: 0.8"/>
      </g>
     </g>
     <g id="text_12">
      <!-- 0.00 -->
      <g transform="translate(51.543591 255.118118) scale(0.2 -0.2)">
       <use xlink:href="#DejaVuSans-30"/>
       <use xlink:href="#DejaVuSans-2e" x="63.623047"/>
       <use xlink:href="#DejaVuSans-30" x="95.410156"/>
       <use xlink:href="#DejaVuSans-30" x="159.033203"/>
      </g>
     </g>
    </g>
    <g id="ytick_4">
     <g id="line2d_13">
      <g>
       <use xlink:href="#m0c8ba26408" x="103.074841" y="185.450374" style="stroke: #000000; stroke-width: 0.8"/>
      </g>
     </g>
     <g id="text_13">
      <!-- 0.05 -->
      <g transform="translate(51.543591 193.048812) scale(0.2 -0.2)">
       <use xlink:href="#DejaVuSans-30"/>
       <use xlink:href="#DejaVuSans-2e" x="63.623047"/>
       <use xlink:href="#DejaVuSans-30" x="95.410156"/>
       <use xlink:href="#DejaVuSans-35" x="159.033203"/>
      </g>
     </g>
    </g>
    <g id="ytick_5">
     <g id="line2d_14">
      <g>
       <use xlink:href="#m0c8ba26408" x="103.074841" y="123.381068" style="stroke: #000000; stroke-width: 0.8"/>
      </g>
     </g>
     <g id="text_14">
      <!-- 0.10 -->
      <g transform="translate(51.543591 130.979506) scale(0.2 -0.2)">
       <use xlink:href="#DejaVuSans-30"/>
       <use xlink:href="#DejaVuSans-2e" x="63.623047"/>
       <use xlink:href="#DejaVuSans-31" x="95.410156"/>
       <use xlink:href="#DejaVuSans-30" x="159.033203"/>
      </g>
     </g>
    </g>
    <g id="ytick_6">
     <g id="line2d_15">
      <g>
       <use xlink:href="#m0c8ba26408" x="103.074841" y="61.311762" style="stroke: #000000; stroke-width: 0.8"/>
      </g>
     </g>
     <g id="text_15">
      <!-- 0.15 -->
      <g transform="translate(51.543591 68.9102) scale(0.2 -0.2)">
       <use xlink:href="#DejaVuSans-30"/>
       <use xlink:href="#DejaVuSans-2e" x="63.623047"/>
       <use xlink:href="#DejaVuSans-31" x="95.410156"/>
       <use xlink:href="#DejaVuSans-35" x="159.033203"/>
      </g>
     </g>
    </g>
   </g>
   <g id="line2d_16">
    <path d="M 0 0 
" clip-path="url(#p69866e0d24)" style="fill: none; stroke: #ffa500; stroke-width: 1.5; stroke-linecap: square"/>
   </g>
   <g id="line2d_17">
    <path d="M 103.074841 247.51968 
L 948.274841 247.51968 
" clip-path="url(#p69866e0d24)" style="fill: none; stroke-dasharray: 7.4,3.2; stroke-dashoffset: 0; stroke: #000000; stroke-width: 2"/>
   </g>
   <g id="patch_3">
    <path d="M 103.074841 395.28 
L 103.074841 7.2 
" style="fill: none; stroke: #000000; stroke-width: 0.8; stroke-linejoin: miter; stroke-linecap: square"/>
   </g>
   <g id="patch_4">
    <path d="M 940.074841 395.28 
L 940.074841 7.2 
" style="fill: none; stroke: #000000; stroke-width: 0.8; stroke-linejoin: miter; stroke-linecap: square"/>
   </g>
   <g id="patch_5">
    <path d="M 103.074841 395.28 
L 940.074841 395.28 
" style="fill: none; stroke: #000000; stroke-width: 0.8; stroke-linejoin: miter; stroke-linecap: square"/>
   </g>
   <g id="patch_6">
    <path d="M 103.074841 7.2 
L 940.074841 7.2 
" style="fill: none; stroke: #000000; stroke-width: 0.8; stroke-linejoin: miter; stroke-linecap: square"/>
   </g>
  </g>
 </g>
 <defs>
  <clipPath id="p69866e0d24">
   <rect x="103.074841" y="7.2" width="837" height="388.08"/>
  </clipPath>
 </defs>
</svg>
