<?xml version="1.0" encoding="utf-8" standalone="no"?>
<!DOCTYPE svg PUBLIC "-//W3C//DTD SVG 1.1//EN"
  "http://www.w3.org/Graphics/SVG/1.1/DTD/svg11.dtd">
<svg xmlns:xlink="http://www.w3.org/1999/xlink" width="947.274841pt" height="505.354841pt" viewBox="0 0 947.274841 505.354841" xmlns="http://www.w3.org/2000/svg" version="1.1">
 <metadata>
  <rdf:RDF xmlns:dc="http://purl.org/dc/elements/1.1/" xmlns:cc="http://creativecommons.org/ns#" xmlns:rdf="http://www.w3.org/1999/02/22-rdf-syntax-ns#">
   <cc:Work>
    <dc:type rdf:resource="http://purl.org/dc/dcmitype/StillImage"/>
    <dc:date>2023-11-12T22:43:55.247878</dc:date>
    <dc:format>image/svg+xml</dc:format>
    <dc:creator>
     <cc:Agent>
      <dc:title>Matplotlib v3.7.2, https://matplotlib.org/</dc:title>
     </cc:Agent>
    </dc:creator>
   </cc:Work>
  </rdf:RDF>
 </metadata>
 <defs>
  <style type="text/css">*{stroke-linejoin: round; stroke-linecap: butt}</style>
 </defs>
 <g id="figure_1">
  <g id="patch_1">
   <path d="M 0 505.354841 
L 947.274841 505.354841 
L 947.274841 -0 
L 0 -0 
z
" style="fill: #ffffff"/>
  </g>
  <g id="axes_1">
   <g id="patch_2">
    <path d="M 103.074841 395.28 
L 940.074841 395.28 
L 940.074841 7.2 
L 103.074841 7.2 
z
" style="fill: #ffffff"/>
   </g>
   <g id="PolyCollection_1">
    <path d="M -4315.31939 250.377004 
L -4315.31939 250.380589 
L -4307.271313 250.361508 
L -4299.223236 250.345135 
L -4291.175159 250.324338 
L -4283.127082 250.311282 
L -4275.079005 250.296017 
L -4267.030929 250.278509 
L -4258.982852 250.261216 
L -4250.934775 250.245059 
L -4242.886698 250.231008 
L -4234.838621 250.214621 
L -4226.790544 250.197438 
L -4218.742467 250.180795 
L -4210.69439 250.160171 
L -4202.646313 250.143254 
L -4194.598236 250.123191 
L -4186.550159 250.106186 
L -4178.502082 250.0829 
L -4170.454005 250.063957 
L -4162.405929 250.045768 
L -4154.357852 250.024084 
L -4146.309775 250.003001 
L -4138.261698 249.982448 
L -4130.213621 249.957449 
L -4122.165544 249.935762 
L -4114.117467 249.910219 
L -4106.06939 249.884394 
L -4098.021313 249.855749 
L -4089.973236 249.826341 
L -4081.925159 249.797682 
L -4073.877082 249.764377 
L -4065.829005 249.726677 
L -4057.780929 249.693421 
L -4049.732852 249.655442 
L -4041.684775 249.611882 
L -4033.636698 249.571593 
L -4025.588621 249.524101 
L -4017.540544 249.475999 
L -4009.492467 249.42651 
L -4001.44439 249.37423 
L -3993.396313 249.316113 
L -3985.348236 249.254204 
L -3977.300159 249.188598 
L -3969.252082 249.125705 
L -3961.204005 249.051366 
L -3953.155929 248.981088 
L -3945.107852 248.906132 
L -3937.059775 248.831088 
L -3929.011698 248.750124 
L -3920.963621 248.662306 
L -3912.915544 248.581529 
L -3904.867467 248.491163 
L -3896.81939 248.397668 
L -3888.771313 248.306321 
L -3880.723236 248.216146 
L -3872.675159 248.117939 
L -3864.627082 248.018747 
L -3856.579005 247.919844 
L -3848.530929 247.816801 
L -3840.482852 247.712658 
L -3832.434775 247.608854 
L -3824.386698 247.501355 
L -3816.338621 247.393671 
L -3808.290544 247.28783 
L -3800.242467 247.177411 
L -3792.19439 247.058871 
L -3784.146313 246.94428 
L -3776.098236 246.830031 
L -3768.050159 246.717715 
L -3760.002082 246.600484 
L -3751.954005 246.486127 
L -3743.905929 246.369669 
L -3735.857852 246.265189 
L -3727.809775 246.140898 
L -3719.761698 246.033966 
L -3711.713621 245.916108 
L -3703.665544 245.804094 
L -3695.617467 245.686104 
L -3687.56939 245.58236 
L -3679.521313 245.462632 
L -3671.473236 245.350406 
L -3663.425159 245.24481 
L -3655.377082 245.131095 
L -3647.329005 245.024336 
L -3639.280929 244.912293 
L -3631.232852 244.797904 
L -3623.184775 244.688882 
L -3615.136698 244.583335 
L -3607.088621 244.469096 
L -3599.040544 244.359429 
L -3590.992467 244.247019 
L -3582.94439 244.138438 
L -3574.896313 244.032575 
L -3566.848236 243.923554 
L -3558.800159 243.813337 
L -3550.752082 243.714544 
L -3542.704005 243.601867 
L -3534.655929 243.494033 
L -3526.607852 243.387952 
L -3518.559775 243.281654 
L -3510.511698 243.175562 
L -3502.463621 243.067954 
L -3494.415544 242.965438 
L -3486.367467 242.858538 
L -3478.31939 242.748812 
L -3470.271313 242.637761 
L -3462.223236 242.525419 
L -3454.175159 242.420416 
L -3446.127082 242.304483 
L -3438.079005 242.180646 
L -3430.030929 242.064543 
L -3421.982852 241.941922 
L -3413.934775 241.8174 
L -3405.886698 241.685768 
L -3397.838621 241.551756 
L -3389.790544 241.4275 
L -3381.742467 241.285317 
L -3373.69439 241.150384 
L -3365.646313 241.004965 
L -3357.598236 240.871791 
L -3349.550159 240.714683 
L -3341.502082 240.560875 
L -3333.454005 240.411512 
L -3325.405929 240.259518 
L -3317.357852 240.102763 
L -3309.309775 239.938845 
L -3301.261698 239.78556 
L -3293.213621 239.609532 
L -3285.165544 239.455295 
L -3277.117467 239.274122 
L -3269.06939 239.098769 
L -3261.021313 238.927735 
L -3252.973236 238.763906 
L -3244.925159 238.572079 
L -3236.877082 238.399333 
L -3228.829005 238.178551 
L -3220.780929 237.989337 
L -3212.732852 237.813463 
L -3204.684775 237.614376 
L -3196.636698 237.41016 
L -3188.588621 237.17435 
L -3180.540544 236.953873 
L -3172.492467 236.770932 
L -3164.44439 236.478378 
L -3156.396313 236.24471 
L -3148.348236 236.006009 
L -3140.300159 235.758466 
L -3132.252082 235.47607 
L -3124.204005 235.211155 
L -3116.155929 235.01297 
L -3108.107852 234.758899 
L -3100.059775 234.338005 
L -3092.011698 233.98551 
L -3083.963621 233.727211 
L -3075.915544 233.367145 
L -3067.867467 233.070033 
L -3059.81939 232.812654 
L -3051.771313 232.418221 
L -3043.723236 231.968728 
L -3035.675159 231.664157 
L -3027.627082 231.47258 
L -3019.579005 231.098853 
L -3011.530929 230.936968 
L -3003.482852 230.672009 
L -2995.434775 230.266591 
L -2987.386698 230.303469 
L -2979.338621 230.473333 
L -2971.290544 230.820701 
L -2963.242467 230.452974 
L -2955.19439 231.212431 
L -2947.146313 231.388519 
L -2939.098236 230.388395 
L -2931.050159 230.682689 
L -2923.002082 231.137423 
L -2914.954005 230.88095 
L -2906.905929 230.833578 
L -2898.857852 232.756959 
L -2890.809775 235.48707 
L -2882.761698 236.84698 
L -2874.713621 233.891884 
L -2866.665544 235.414421 
L -2858.617467 237.407004 
L -2850.56939 237.291515 
L -2842.521313 241.343154 
L -2834.473236 240.787925 
L -2826.425159 239.54566 
L -2818.377082 236.47134 
L -2810.329005 239.356379 
L -2802.280929 241.089571 
L -2794.232852 240.360156 
L -2786.184775 240.809217 
L -2778.136698 242.443863 
L -2770.088621 242.220803 
L -2762.040544 240.803646 
L -2753.992467 242.574246 
L -2745.94439 242.921582 
L -2737.896313 242.282971 
L -2729.848236 243.405336 
L -2721.800159 243.812759 
L -2713.752082 243.697492 
L -2705.704005 243.351709 
L -2697.655929 243.718304 
L -2689.607852 243.336766 
L -2681.559775 243.366493 
L -2673.511698 243.716736 
L -2665.463621 243.383022 
L -2657.415544 243.55452 
L -2649.367467 243.563899 
L -2641.31939 243.295684 
L -2633.271313 243.395641 
L -2625.223236 243.010435 
L -2617.175159 243.039092 
L -2609.127082 243.150476 
L -2601.079005 243.16184 
L -2593.030929 242.979397 
L -2584.982852 242.825155 
L -2576.934775 242.793061 
L -2568.886698 242.624396 
L -2560.838621 242.606914 
L -2552.790544 242.585181 
L -2544.742467 242.327773 
L -2536.69439 242.470131 
L -2528.646313 242.308047 
L -2520.598236 242.24886 
L -2512.550159 242.273606 
L -2504.502082 242.119822 
L -2496.454005 242.09865 
L -2488.405929 242.182222 
L -2480.357852 242.305403 
L -2472.309775 242.047362 
L -2464.261698 242.027248 
L -2456.213621 241.962714 
L -2448.165544 242.488538 
L -2440.117467 242.534572 
L -2432.06939 242.762075 
L -2424.021313 242.327684 
L -2415.973236 242.073494 
L -2407.925159 242.202529 
L -2399.877082 242.567315 
L -2391.829005 242.663334 
L -2383.780929 242.133684 
L -2375.732852 242.658321 
L -2367.684775 242.582234 
L -2359.636698 242.548339 
L -2351.588621 242.330883 
L -2343.540544 242.592666 
L -2335.492467 242.513934 
L -2327.44439 242.685347 
L -2319.396313 242.566538 
L -2311.348236 242.484544 
L -2303.300159 242.29472 
L -2295.252082 242.232545 
L -2287.204005 242.181772 
L -2279.155929 242.092502 
L -2271.107852 242.118967 
L -2263.059775 242.04421 
L -2255.011698 241.961002 
L -2246.963621 241.640779 
L -2238.915544 241.412029 
L -2230.867467 241.343929 
L -2222.81939 241.089582 
L -2214.771313 241.091177 
L -2206.723236 240.88024 
L -2198.675159 240.538438 
L -2190.627082 240.264298 
L -2182.579005 240.074073 
L -2174.530929 239.718196 
L -2166.482852 239.527434 
L -2158.434775 239.219758 
L -2150.386698 238.956556 
L -2142.338621 238.608878 
L -2134.290544 238.334313 
L -2126.242467 237.93984 
L -2118.19439 237.664691 
L -2110.146313 237.365145 
L -2102.098236 236.932932 
L -2094.050159 236.539591 
L -2086.002082 236.266412 
L -2077.954005 235.939843 
L -2069.905929 235.513352 
L -2061.857852 235.206764 
L -2053.809775 234.827187 
L -2045.761698 234.237489 
L -2037.713621 234.044337 
L -2029.665544 233.563232 
L -2021.617467 233.206591 
L -2013.56939 232.793559 
L -2005.521313 232.332448 
L -1997.473236 231.876063 
L -1989.425159 231.481151 
L -1981.377082 230.912899 
L -1973.329005 230.603665 
L -1965.280929 230.056058 
L -1957.232852 229.745427 
L -1949.184775 229.18496 
L -1941.136698 228.64557 
L -1933.088621 228.164873 
L -1925.040544 227.831316 
L -1916.992467 227.205603 
L -1908.94439 226.822272 
L -1900.896313 226.28492 
L -1892.848236 225.868702 
L -1884.800159 225.295719 
L -1876.752082 224.806845 
L -1868.704005 224.841526 
L -1860.655929 223.773618 
L -1852.607852 223.697799 
L -1844.559775 223.089865 
L -1836.511698 222.702001 
L -1828.463621 222.224863 
L -1820.415544 221.707748 
L -1812.367467 221.247724 
L -1804.31939 220.804692 
L -1796.271313 220.395426 
L -1788.223236 219.987771 
L -1780.175159 220.459115 
L -1772.127082 219.081014 
L -1764.079005 218.837008 
L -1756.030929 220.070969 
L -1747.982852 218.451525 
L -1739.934775 218.809995 
L -1731.886698 218.715134 
L -1723.838621 217.894182 
L -1715.790544 218.15852 
L -1707.742467 219.047399 
L -1699.69439 218.474706 
L -1691.646313 218.289681 
L -1683.598236 218.918543 
L -1675.550159 218.828449 
L -1667.502082 219.250916 
L -1659.454005 219.867505 
L -1651.405929 220.651962 
L -1643.357852 222.72866 
L -1635.309775 222.284609 
L -1627.261698 223.383527 
L -1619.213621 224.2423 
L -1611.165544 224.771416 
L -1603.117467 225.8776 
L -1595.06939 226.530806 
L -1587.021313 225.264785 
L -1578.973236 226.474413 
L -1570.925159 228.193618 
L -1562.877082 229.00526 
L -1554.829005 229.177064 
L -1546.780929 231.298198 
L -1538.732852 231.40174 
L -1530.684775 231.793653 
L -1522.636698 231.746187 
L -1514.588621 233.426955 
L -1506.540544 232.771915 
L -1498.492467 232.468948 
L -1490.44439 234.190564 
L -1482.396313 235.718128 
L -1474.348236 235.530121 
L -1466.300159 236.41698 
L -1458.252082 236.672305 
L -1450.204005 236.680205 
L -1442.155929 236.631028 
L -1434.107852 237.102474 
L -1426.059775 237.348578 
L -1418.011698 238.919115 
L -1409.963621 238.045466 
L -1401.915544 239.409383 
L -1393.867467 239.049262 
L -1385.81939 238.817535 
L -1377.771313 239.348142 
L -1369.723236 239.818768 
L -1361.675159 239.139564 
L -1353.627082 239.422553 
L -1345.579005 239.411054 
L -1337.530929 240.145672 
L -1329.482852 239.738479 
L -1321.434775 239.53515 
L -1313.386698 239.730024 
L -1305.338621 240.074286 
L -1297.290544 239.871641 
L -1289.242467 239.485598 
L -1281.19439 239.67305 
L -1273.146313 239.101133 
L -1265.098236 239.145179 
L -1257.050159 240.046213 
L -1249.002082 239.981487 
L -1240.954005 239.455653 
L -1232.905929 239.319628 
L -1224.857852 239.371918 
L -1216.809775 238.809545 
L -1208.761698 238.939042 
L -1200.713621 238.933641 
L -1192.665544 238.813781 
L -1184.617467 238.662987 
L -1176.56939 238.319499 
L -1168.521313 238.523862 
L -1160.473236 238.295606 
L -1152.425159 238.24867 
L -1144.377082 238.130371 
L -1136.329005 238.149539 
L -1128.280929 237.891324 
L -1120.232852 237.420316 
L -1112.184775 237.404093 
L -1104.136698 237.021439 
L -1096.088621 236.466939 
L -1088.040544 236.881279 
L -1079.992467 236.121883 
L -1071.94439 236.442875 
L -1063.896313 236.299299 
L -1055.848236 236.35307 
L -1047.800159 235.862482 
L -1039.752082 235.825404 
L -1031.704005 235.751538 
L -1023.655929 235.137181 
L -1015.607852 235.282523 
L -1007.559775 235.221188 
L -999.511698 235.18808 
L -991.463621 234.888302 
L -983.415544 235.0219 
L -975.367467 234.749604 
L -967.31939 234.504112 
L -959.271313 234.039397 
L -951.223236 233.889833 
L -943.175159 233.788415 
L -935.127082 233.531607 
L -927.079005 233.56534 
L -919.030929 233.420097 
L -910.982852 233.132283 
L -902.934775 233.162473 
L -894.886698 232.898556 
L -886.838621 233.048489 
L -878.790544 232.90517 
L -870.742467 232.949537 
L -862.69439 232.587596 
L -854.646313 231.959179 
L -846.598236 232.512206 
L -838.550159 232.481214 
L -830.502082 232.309154 
L -822.454005 232.143004 
L -814.405929 231.78178 
L -806.357852 231.70669 
L -798.309775 231.467418 
L -790.261698 231.490648 
L -782.213621 231.393053 
L -774.165544 231.015242 
L -766.117467 230.586417 
L -758.06939 231.141143 
L -750.021313 230.985571 
L -741.973236 230.517816 
L -733.925159 230.721806 
L -725.877082 230.02808 
L -717.829005 229.946273 
L -709.780929 230.031083 
L -701.732852 229.503486 
L -693.684775 230.309666 
L -685.636698 229.455091 
L -677.588621 228.933355 
L -669.540544 229.362794 
L -661.492467 229.494954 
L -653.44439 229.258701 
L -645.396313 229.470204 
L -637.348236 229.015382 
L -629.300159 229.788014 
L -621.252082 229.408202 
L -613.204005 229.597333 
L -605.155929 229.084445 
L -597.107852 228.628777 
L -589.059775 229.277789 
L -581.011698 230.416153 
L -572.963621 229.196607 
L -564.915544 229.305005 
L -556.867467 228.873077 
L -548.81939 229.131447 
L -540.771313 229.107268 
L -532.723236 228.853536 
L -524.675159 228.778863 
L -516.627082 229.349611 
L -508.579005 229.101647 
L -500.530929 229.622404 
L -492.482852 229.741001 
L -484.434775 228.339338 
L -476.386698 228.948738 
L -468.338621 229.015575 
L -460.290544 229.131373 
L -452.242467 229.23237 
L -444.19439 230.156766 
L -436.146313 230.528324 
L -428.098236 230.491109 
L -420.050159 231.49761 
L -412.002082 233.161162 
L -403.954005 231.179795 
L -395.905929 231.15143 
L -387.857852 231.18544 
L -379.809775 231.838312 
L -371.761698 231.98103 
L -363.713621 231.968662 
L -355.665544 233.394222 
L -347.617467 233.916723 
L -339.56939 232.282349 
L -331.521313 233.756608 
L -323.473236 233.027099 
L -315.425159 232.576588 
L -307.377082 234.37348 
L -299.329005 234.024148 
L -291.280929 235.192955 
L -283.232852 234.858753 
L -275.184775 234.095958 
L -267.136698 234.841733 
L -259.088621 234.863332 
L -251.040544 235.602005 
L -242.992467 235.181114 
L -234.94439 236.39416 
L -226.896313 235.579275 
L -218.848236 236.2333 
L -210.800159 236.144166 
L -202.752082 236.861235 
L -194.704005 235.792172 
L -186.655929 237.006725 
L -178.607852 236.974282 
L -170.559775 237.813908 
L -162.511698 238.276254 
L -154.463621 238.312472 
L -146.415544 238.135667 
L -138.367467 238.688767 
L -130.31939 239.110464 
L -122.271313 238.797352 
L -114.223236 238.698043 
L -106.175159 239.187476 
L -98.127082 239.631331 
L -90.079005 238.944849 
L -82.030929 238.562632 
L -73.982852 240.232019 
L -65.934775 241.004651 
L -57.886698 239.358835 
L -49.838621 239.878476 
L -41.790544 240.150401 
L -33.742467 240.29593 
L -25.69439 241.160834 
L -17.646313 241.072051 
L -9.598236 240.747939 
L -1.550159 241.129149 
L 6.497918 241.245917 
L 14.545995 240.359344 
L 22.594071 240.826969 
L 30.642148 240.56077 
L 38.690225 241.81853 
L 46.738302 243.355915 
L 54.786379 243.13814 
L 62.834456 241.923148 
L 70.882533 241.792989 
L 78.93061 241.963248 
L 86.978687 242.024302 
L 95.026764 243.161856 
L 103.074841 241.715279 
L 111.122918 243.23854 
L 119.170995 244.454141 
L 127.219071 243.420692 
L 135.267148 244.98227 
L 143.315225 243.98857 
L 151.363302 244.838275 
L 159.411379 244.26241 
L 167.459456 244.680564 
L 175.507533 245.516433 
L 183.55561 245.456915 
L 191.603687 245.713226 
L 199.651764 245.773483 
L 207.699841 245.85461 
L 215.747918 243.794937 
L 223.795995 246.446 
L 231.844071 247.572557 
L 239.892148 246.460871 
L 247.940225 247.416878 
L 255.988302 247.986695 
L 264.036379 247.068545 
L 272.084456 248.353011 
L 280.132533 250.220344 
L 288.18061 249.149596 
L 296.228687 250.1995 
L 304.276764 250.739847 
L 312.324841 251.068871 
L 320.372918 251.6485 
L 328.420995 249.072314 
L 336.469071 254.160937 
L 344.517148 254.246459 
L 352.565225 254.263545 
L 360.613302 251.002447 
L 368.661379 255.355253 
L 376.709456 257.710408 
L 384.757533 255.612471 
L 392.80561 255.631058 
L 400.853687 259.535829 
L 408.901764 252.294594 
L 416.949841 258.862116 
L 424.997918 254.092826 
L 433.045995 260.991819 
L 441.094071 258.221757 
L 449.142148 260.852215 
L 457.190225 261.607733 
L 465.238302 262.338818 
L 473.286379 262.662987 
L 481.334456 261.202887 
L 489.382533 261.472514 
L 497.43061 262.964619 
L 505.478687 264.700345 
L 513.526764 264.77507 
L 521.574841 264.574552 
L 529.622918 266.329825 
L 537.670995 266.300921 
L 545.719071 264.993515 
L 553.767148 264.785915 
L 561.815225 268.027483 
L 569.863302 268.261466 
L 577.911379 268.890221 
L 585.959456 267.196218 
L 594.007533 263.304649 
L 602.05561 267.377764 
L 610.103687 266.269469 
L 618.151764 267.279216 
L 626.199841 268.665058 
L 634.247918 266.717272 
L 642.295995 269.202478 
L 650.344071 267.117273 
L 658.392148 267.017317 
L 666.440225 267.205836 
L 674.488302 268.685461 
L 682.536379 268.503201 
L 690.584456 268.165447 
L 698.632533 266.554063 
L 706.68061 267.404939 
L 714.728687 268.036243 
L 722.776764 267.312411 
L 730.824841 268.513112 
L 738.872918 267.51847 
L 746.920995 268.299317 
L 754.969071 269.569796 
L 763.017148 269.353647 
L 771.065225 268.061765 
L 779.113302 268.086344 
L 787.161379 267.842101 
L 795.209456 268.420128 
L 803.257533 268.396701 
L 811.30561 266.292788 
L 819.353687 267.943614 
L 827.401764 258.112961 
L 835.449841 267.93991 
L 843.497918 268.605923 
L 851.545995 267.166707 
L 859.594071 265.673164 
L 867.642148 268.549494 
L 875.690225 267.259914 
L 883.738302 265.00308 
L 891.786379 266.427703 
L 899.834456 266.457418 
L 907.882533 265.838497 
L 915.93061 267.192645 
L 923.978687 266.181062 
L 932.026764 266.740183 
L 940.074841 267.14544 
L 940.074841 248.3058 
L 940.074841 248.3058 
L 932.026764 249.192728 
L 923.978687 248.798457 
L 915.93061 249.273497 
L 907.882533 248.716422 
L 899.834456 249.067502 
L 891.786379 248.877222 
L 883.738302 249.129516 
L 875.690225 249.937102 
L 867.642148 250.121852 
L 859.594071 249.695236 
L 851.545995 249.898419 
L 843.497918 250.78687 
L 835.449841 250.354921 
L 827.401764 248.854115 
L 819.353687 250.732893 
L 811.30561 250.533709 
L 803.257533 251.067367 
L 795.209456 251.205041 
L 787.161379 251.150788 
L 779.113302 251.517983 
L 771.065225 251.612106 
L 763.017148 252.089043 
L 754.969071 252.289657 
L 746.920995 252.149564 
L 738.872918 252.034346 
L 730.824841 252.306678 
L 722.776764 251.973574 
L 714.728687 252.27652 
L 706.68061 252.296634 
L 698.632533 252.149629 
L 690.584456 252.828754 
L 682.536379 253.034734 
L 674.488302 253.358206 
L 666.440225 252.745445 
L 658.392148 252.907457 
L 650.344071 253.112985 
L 642.295995 253.830746 
L 634.247918 253.101932 
L 626.199841 253.857647 
L 618.151764 253.447494 
L 610.103687 253.223845 
L 602.05561 253.677254 
L 594.007533 252.57905 
L 585.959456 253.728192 
L 577.911379 254.531706 
L 569.863302 254.397358 
L 561.815225 254.345083 
L 553.767148 253.525487 
L 545.719071 253.509394 
L 537.670995 254.037724 
L 529.622918 254.058851 
L 521.574841 253.527811 
L 513.526764 253.608137 
L 505.478687 253.768028 
L 497.43061 252.840334 
L 489.382533 252.580485 
L 481.334456 252.587388 
L 473.286379 253.17748 
L 465.238302 253.080736 
L 457.190225 252.707419 
L 449.142148 252.445581 
L 441.094071 251.5526 
L 433.045995 252.564585 
L 424.997918 250.479936 
L 416.949841 251.997791 
L 408.901764 249.539481 
L 400.853687 252.202438 
L 392.80561 250.745891 
L 384.757533 250.639979 
L 376.709456 251.728073 
L 368.661379 250.691187 
L 360.613302 248.99843 
L 352.565225 250.424519 
L 344.517148 250.350363 
L 336.469071 250.315549 
L 328.420995 247.816227 
L 320.372918 249.925418 
L 312.324841 249.057324 
L 304.276764 248.81789 
L 296.228687 248.598246 
L 288.18061 248.06643 
L 280.132533 248.704882 
L 272.084456 247.667385 
L 264.036379 245.672063 
L 255.988302 246.949913 
L 247.940225 245.949846 
L 239.892148 244.773211 
L 231.844071 246.634046 
L 223.795995 244.586805 
L 215.747918 238.607887 
L 207.699841 242.973766 
L 199.651764 242.88086 
L 191.603687 242.863735 
L 183.55561 242.388604 
L 175.507533 242.351042 
L 167.459456 240.709723 
L 159.411379 239.971716 
L 151.363302 241.254212 
L 143.315225 238.894675 
L 135.267148 241.328857 
L 127.219071 237.978735 
L 119.170995 239.966142 
L 111.122918 237.650144 
L 103.074841 234.773376 
L 95.026764 237.379476 
L 86.978687 234.854968 
L 78.93061 235.0044 
L 70.882533 234.870227 
L 62.834456 235.090293 
L 54.786379 237.434064 
L 46.738302 237.970074 
L 38.690225 235.093511 
L 30.642148 232.137443 
L 22.594071 232.910612 
L 14.545995 232.279574 
L 6.497918 234.065556 
L -1.550159 233.826565 
L -9.598236 233.0409 
L -17.646313 233.943271 
L -25.69439 233.814857 
L -33.742467 232.27177 
L -41.790544 232.393452 
L -49.838621 231.760576 
L -57.886698 230.992151 
L -65.934775 234.288664 
L -73.982852 232.336344 
L -82.030929 229.683516 
L -90.079005 230.862796 
L -98.127082 231.912251 
L -106.175159 231.116893 
L -114.223236 230.488245 
L -122.271313 230.868538 
L -130.31939 231.979214 
L -138.367467 230.643008 
L -146.415544 230.112073 
L -154.463621 230.571866 
L -162.511698 229.711348 
L -170.559775 229.902204 
L -178.607852 228.234699 
L -186.655929 228.757126 
L -194.704005 226.735388 
L -202.752082 228.363922 
L -210.800159 227.509912 
L -218.848236 227.92071 
L -226.896313 227.328298 
L -234.94439 228.308019 
L -242.992467 226.493538 
L -251.040544 227.5563 
L -259.088621 226.405654 
L -267.136698 226.58468 
L -275.184775 225.644729 
L -283.232852 226.111916 
L -291.280929 227.339144 
L -299.329005 226.043336 
L -307.377082 226.370059 
L -315.425159 223.937309 
L -323.473236 224.986754 
L -331.521313 225.638862 
L -339.56939 223.786599 
L -347.617467 225.878761 
L -355.665544 225.949734 
L -363.713621 223.679178 
L -371.761698 223.781028 
L -379.809775 223.605754 
L -387.857852 222.780308 
L -395.905929 223.331824 
L -403.954005 223.182873 
L -412.002082 225.921716 
L -420.050159 224.025864 
L -428.098236 222.638008 
L -436.146313 222.670928 
L -444.19439 222.253654 
L -452.242467 221.35688 
L -460.290544 221.604197 
L -468.338621 221.0438 
L -476.386698 221.589563 
L -484.434775 220.782681 
L -492.482852 222.397873 
L -500.530929 222.552366 
L -508.579005 222.110099 
L -516.627082 222.432808 
L -524.675159 221.712591 
L -532.723236 222.13404 
L -540.771313 222.395308 
L -548.81939 222.959856 
L -556.867467 222.36674 
L -564.915544 223.140006 
L -572.963621 222.940399 
L -581.011698 224.437483 
L -589.059775 223.286152 
L -597.107852 222.63391 
L -605.155929 223.243947 
L -613.204005 223.554611 
L -621.252082 223.502205 
L -629.300159 224.327465 
L -637.348236 223.453304 
L -645.396313 224.039982 
L -653.44439 223.692131 
L -661.492467 223.852447 
L -669.540544 223.544763 
L -677.588621 223.100959 
L -685.636698 223.837575 
L -693.684775 224.78406 
L -701.732852 223.755883 
L -709.780929 224.347023 
L -717.829005 224.08286 
L -725.877082 224.357434 
L -733.925159 225.169174 
L -741.973236 224.864284 
L -750.021313 225.493106 
L -758.06939 225.64637 
L -766.117467 224.919524 
L -774.165544 225.35282 
L -782.213621 225.816376 
L -790.261698 225.963543 
L -798.309775 225.95268 
L -806.357852 226.260127 
L -814.405929 226.217549 
L -822.454005 226.690678 
L -830.502082 226.812435 
L -838.550159 226.894064 
L -846.598236 226.97454 
L -854.646313 226.109257 
L -862.69439 227.009206 
L -870.742467 227.35194 
L -878.790544 227.217603 
L -886.838621 227.216455 
L -894.886698 227.189857 
L -902.934775 227.427179 
L -910.982852 227.302803 
L -919.030929 227.672671 
L -927.079005 227.775936 
L -935.127082 227.637325 
L -943.175159 227.74272 
L -951.223236 227.898156 
L -959.271313 228.058854 
L -967.31939 228.714893 
L -975.367467 228.826886 
L -983.415544 229.111621 
L -991.463621 228.875493 
L -999.511698 229.142001 
L -1007.559775 229.1053 
L -1015.607852 229.135009 
L -1023.655929 228.697594 
L -1031.704005 229.619278 
L -1039.752082 229.622888 
L -1047.800159 229.600983 
L -1055.848236 230.111179 
L -1063.896313 229.973857 
L -1071.94439 230.124931 
L -1079.992467 229.716645 
L -1088.040544 230.439627 
L -1096.088621 230.084634 
L -1104.136698 230.772203 
L -1112.184775 231.226186 
L -1120.232852 231.273629 
L -1128.280929 231.870019 
L -1136.329005 232.309669 
L -1144.377082 232.168776 
L -1152.425159 232.391196 
L -1160.473236 232.368287 
L -1168.521313 232.699052 
L -1176.56939 232.449671 
L -1184.617467 232.96062 
L -1192.665544 233.314452 
L -1200.713621 233.478737 
L -1208.761698 233.532891 
L -1216.809775 233.555902 
L -1224.857852 234.130596 
L -1232.905929 234.188756 
L -1240.954005 234.510604 
L -1249.002082 235.035454 
L -1257.050159 235.141745 
L -1265.098236 234.499294 
L -1273.146313 234.585566 
L -1281.19439 235.186404 
L -1289.242467 235.189768 
L -1297.290544 235.585728 
L -1305.338621 235.855269 
L -1313.386698 235.60755 
L -1321.434775 235.752701 
L -1329.482852 235.953849 
L -1337.530929 236.36532 
L -1345.579005 235.792703 
L -1353.627082 235.968037 
L -1361.675159 235.92186 
L -1369.723236 236.541226 
L -1377.771313 236.416028 
L -1385.81939 236.006156 
L -1393.867467 236.32117 
L -1401.915544 236.648579 
L -1409.963621 235.598464 
L -1418.011698 236.493509 
L -1426.059775 235.169744 
L -1434.107852 235.040822 
L -1442.155929 234.716763 
L -1450.204005 234.934324 
L -1458.252082 234.97614 
L -1466.300159 234.754532 
L -1474.348236 234.088259 
L -1482.396313 234.461921 
L -1490.44439 232.964876 
L -1498.492467 231.101733 
L -1506.540544 231.581398 
L -1514.588621 232.409508 
L -1522.636698 230.091967 
L -1530.684775 230.302615 
L -1538.732852 229.669314 
L -1546.780929 229.50902 
L -1554.829005 226.623768 
L -1562.877082 226.242132 
L -1570.925159 225.204207 
L -1578.973236 222.979133 
L -1587.021313 221.224554 
L -1595.06939 223.010679 
L -1603.117467 222.040449 
L -1611.165544 220.516624 
L -1619.213621 219.880505 
L -1627.261698 218.790076 
L -1635.309775 217.332845 
L -1643.357852 217.861274 
L -1651.405929 215.364294 
L -1659.454005 214.042404 
L -1667.502082 213.439482 
L -1675.550159 212.937972 
L -1683.598236 213.178568 
L -1691.646313 212.561598 
L -1699.69439 213.052913 
L -1707.742467 213.707854 
L -1715.790544 212.538598 
L -1723.838621 212.411006 
L -1731.886698 213.494827 
L -1739.934775 213.724732 
L -1747.982852 213.279957 
L -1756.030929 215.521589 
L -1764.079005 213.911538 
L -1772.127082 214.427681 
L -1780.175159 216.125011 
L -1788.223236 215.615561 
L -1796.271313 216.21864 
L -1804.31939 216.753999 
L -1812.367467 217.387245 
L -1820.415544 217.985796 
L -1828.463621 218.666517 
L -1836.511698 219.291836 
L -1844.559775 219.79358 
L -1852.607852 220.615603 
L -1860.655929 220.77614 
L -1868.704005 222.11267 
L -1876.752082 222.117306 
L -1884.800159 222.757432 
L -1892.848236 223.512523 
L -1900.896313 224.05998 
L -1908.94439 224.778173 
L -1916.992467 225.273073 
L -1925.040544 226.066054 
L -1933.088621 226.51889 
L -1941.136698 227.11972 
L -1949.184775 227.765339 
L -1957.232852 228.429097 
L -1965.280929 228.697018 
L -1973.329005 229.192317 
L -1981.377082 229.494462 
L -1989.425159 230.010483 
L -1997.473236 230.386381 
L -2005.521313 230.761372 
L -2013.56939 231.189537 
L -2021.617467 231.558385 
L -2029.665544 231.856973 
L -2037.713621 232.276377 
L -2045.761698 232.437693 
L -2053.809775 232.982599 
L -2061.857852 233.317963 
L -2069.905929 233.601991 
L -2077.954005 233.973152 
L -2086.002082 234.161417 
L -2094.050159 234.48037 
L -2102.098236 234.810492 
L -2110.146313 235.185146 
L -2118.19439 235.448984 
L -2126.242467 235.70878 
L -2134.290544 236.001993 
L -2142.338621 236.2819 
L -2150.386698 236.591289 
L -2158.434775 236.819882 
L -2166.482852 237.078345 
L -2174.530929 237.272739 
L -2182.579005 237.58125 
L -2190.627082 237.777818 
L -2198.675159 238.014585 
L -2206.723236 238.333175 
L -2214.771313 238.525858 
L -2222.81939 238.518684 
L -2230.867467 238.769481 
L -2238.915544 238.855148 
L -2246.963621 239.095997 
L -2255.011698 239.391176 
L -2263.059775 239.502076 
L -2271.107852 239.602573 
L -2279.155929 239.557534 
L -2287.204005 239.671416 
L -2295.252082 239.708597 
L -2303.300159 239.756604 
L -2311.348236 239.954896 
L -2319.396313 240.039923 
L -2327.44439 240.196358 
L -2335.492467 239.994673 
L -2343.540544 240.052292 
L -2351.588621 239.78084 
L -2359.636698 240.0342 
L -2367.684775 240.01831 
L -2375.732852 240.188731 
L -2383.780929 239.632109 
L -2391.829005 240.17488 
L -2399.877082 240.069042 
L -2407.925159 239.669459 
L -2415.973236 239.529659 
L -2424.021313 239.788485 
L -2432.06939 240.273362 
L -2440.117467 240.013938 
L -2448.165544 239.954748 
L -2456.213621 239.36844 
L -2464.261698 239.319212 
L -2472.309775 239.432941 
L -2480.357852 239.722665 
L -2488.405929 239.575074 
L -2496.454005 239.469073 
L -2504.502082 239.485737 
L -2512.550159 239.65404 
L -2520.598236 239.573877 
L -2528.646313 239.670926 
L -2536.69439 239.854733 
L -2544.742467 239.675551 
L -2552.790544 239.958864 
L -2560.838621 239.980733 
L -2568.886698 239.993587 
L -2576.934775 240.166214 
L -2584.982852 240.192919 
L -2593.030929 240.389234 
L -2601.079005 240.606451 
L -2609.127082 240.590723 
L -2617.175159 240.476528 
L -2625.223236 240.390528 
L -2633.271313 240.877178 
L -2641.31939 240.774301 
L -2649.367467 241.097248 
L -2657.415544 241.088814 
L -2665.463621 240.945298 
L -2673.511698 241.266482 
L -2681.559775 240.942826 
L -2689.607852 240.946521 
L -2697.655929 241.359356 
L -2705.704005 241.042093 
L -2713.752082 241.431856 
L -2721.800159 241.54923 
L -2729.848236 241.199756 
L -2737.896313 240.112043 
L -2745.94439 240.789771 
L -2753.992467 240.449287 
L -2762.040544 238.836512 
L -2770.088621 240.19054 
L -2778.136698 240.459853 
L -2786.184775 238.966801 
L -2794.232852 238.549035 
L -2802.280929 239.331047 
L -2810.329005 237.707693 
L -2818.377082 234.73422 
L -2826.425159 237.973334 
L -2834.473236 239.184706 
L -2842.521313 239.777645 
L -2850.56939 235.774328 
L -2858.617467 235.928928 
L -2866.665544 233.900836 
L -2874.713621 232.331055 
L -2882.761698 235.46613 
L -2890.809775 234.09795 
L -2898.857852 231.288621 
L -2906.905929 229.324239 
L -2914.954005 229.426699 
L -2923.002082 229.748166 
L -2931.050159 229.320515 
L -2939.098236 229.062576 
L -2947.146313 230.158844 
L -2955.19439 230.0126 
L -2963.242467 229.269706 
L -2971.290544 229.696082 
L -2979.338621 229.378821 
L -2987.386698 229.247958 
L -2995.434775 229.260988 
L -3003.482852 229.683319 
L -3011.530929 229.928459 
L -3019.579005 230.062813 
L -3027.627082 230.423682 
L -3035.675159 230.585976 
L -3043.723236 230.877281 
L -3051.771313 231.347154 
L -3059.81939 231.714166 
L -3067.867467 231.961099 
L -3075.915544 232.238317 
L -3083.963621 232.607684 
L -3092.011698 232.837769 
L -3100.059775 233.188418 
L -3108.107852 233.616771 
L -3116.155929 233.871075 
L -3124.204005 234.040085 
L -3132.252082 234.303682 
L -3140.300159 234.575282 
L -3148.348236 234.824482 
L -3156.396313 235.062975 
L -3164.44439 235.292885 
L -3172.492467 235.610225 
L -3180.540544 235.767139 
L -3188.588621 235.995566 
L -3196.636698 236.234923 
L -3204.684775 236.439274 
L -3212.732852 236.64164 
L -3220.780929 236.810466 
L -3228.829005 236.994694 
L -3236.877082 237.240406 
L -3244.925159 237.411626 
L -3252.973236 237.610391 
L -3261.021313 237.767144 
L -3269.06939 237.945277 
L -3277.117467 238.128006 
L -3285.165544 238.313462 
L -3293.213621 238.469017 
L -3301.261698 238.653563 
L -3309.309775 238.815407 
L -3317.357852 238.989198 
L -3325.405929 239.15083 
L -3333.454005 239.3165 
L -3341.502082 239.466641 
L -3349.550159 239.6281 
L -3357.598236 239.802656 
L -3365.646313 239.934941 
L -3373.69439 240.101414 
L -3381.742467 240.244617 
L -3389.790544 240.411095 
L -3397.838621 240.532167 
L -3405.886698 240.686901 
L -3413.934775 240.834306 
L -3421.982852 240.974577 
L -3430.030929 241.117449 
L -3438.079005 241.249437 
L -3446.127082 241.403713 
L -3454.175159 241.542364 
L -3462.223236 241.656183 
L -3470.271313 241.791696 
L -3478.31939 241.926965 
L -3486.367467 242.061507 
L -3494.415544 242.19114 
L -3502.463621 242.311687 
L -3510.511698 242.444521 
L -3518.559775 242.574566 
L -3526.607852 242.705202 
L -3534.655929 242.835267 
L -3542.704005 242.968787 
L -3550.752082 243.107559 
L -3558.800159 243.226509 
L -3566.848236 243.363067 
L -3574.896313 243.496881 
L -3582.94439 243.625058 
L -3590.992467 243.757318 
L -3599.040544 243.892267 
L -3607.088621 244.022939 
L -3615.136698 244.160194 
L -3623.184775 244.284835 
L -3631.232852 244.412139 
L -3639.280929 244.546868 
L -3647.329005 244.676762 
L -3655.377082 244.799712 
L -3663.425159 244.93003 
L -3671.473236 245.048385 
L -3679.521313 245.175166 
L -3687.56939 245.310506 
L -3695.617467 245.425822 
L -3703.665544 245.555401 
L -3711.713621 245.677634 
L -3719.761698 245.80601 
L -3727.809775 245.921548 
L -3735.857852 246.057509 
L -3743.905929 246.169024 
L -3751.954005 246.294821 
L -3760.002082 246.417727 
L -3768.050159 246.543885 
L -3776.098236 246.663415 
L -3784.146313 246.785307 
L -3792.19439 246.907754 
L -3800.242467 247.034572 
L -3808.290544 247.149086 
L -3816.338621 247.255791 
L -3824.386698 247.365069 
L -3832.434775 247.475171 
L -3840.482852 247.581393 
L -3848.530929 247.689632 
L -3856.579005 247.796695 
L -3864.627082 247.898848 
L -3872.675159 248.002393 
L -3880.723236 248.10551 
L -3888.771313 248.199012 
L -3896.81939 248.294377 
L -3904.867467 248.394254 
L -3912.915544 248.488812 
L -3920.963621 248.573091 
L -3929.011698 248.666582 
L -3937.059775 248.751859 
L -3945.107852 248.830308 
L -3953.155929 248.908991 
L -3961.204005 248.982518 
L -3969.252082 249.062245 
L -3977.300159 249.127761 
L -3985.348236 249.197325 
L -3993.396313 249.262814 
L -4001.44439 249.32347 
L -4009.492467 249.378677 
L -4017.540544 249.428777 
L -4025.588621 249.478667 
L -4033.636698 249.528244 
L -4041.684775 249.569076 
L -4049.732852 249.615019 
L -4057.780929 249.653753 
L -4065.829005 249.686983 
L -4073.877082 249.726293 
L -4081.925159 249.760638 
L -4089.973236 249.788908 
L -4098.021313 249.819422 
L -4106.06939 249.849115 
L -4114.117467 249.875123 
L -4122.165544 249.901279 
L -4130.213621 249.922751 
L -4138.261698 249.948984 
L -4146.309775 249.969659 
L -4154.357852 249.991485 
L -4162.405929 250.014476 
L -4170.454005 250.033069 
L -4178.502082 250.05286 
L -4186.550159 250.079093 
L -4194.598236 250.097369 
L -4202.646313 250.120024 
L -4210.69439 250.137797 
L -4218.742467 250.16178 
L -4226.790544 250.180609 
L -4234.838621 250.200613 
L -4242.886698 250.218043 
L -4250.934775 250.233883 
L -4258.982852 250.252195 
L -4267.030929 250.272496 
L -4275.079005 250.292326 
L -4283.127082 250.309109 
L -4291.175159 250.322313 
L -4299.223236 250.341924 
L -4307.271313 250.357801 
L -4315.31939 250.377004 
z
" clip-path="url(#p7353a1fa4d)" style="fill: #008000; fill-opacity: 0.3; stroke: #008000; stroke-opacity: 0.3"/>
   </g>
   <g id="matplotlib.axis_1">
    <g id="xtick_1">
     <g id="line2d_1">
      <defs>
       <path id="m5439749f67" d="M 0 0 
L 0 3.5 
" style="stroke: #000000; stroke-width: 0.8"/>
      </defs>
      <g>
       <use xlink:href="#m5439749f67" x="103.074841" y="395.28" style="stroke: #000000; stroke-width: 0.8"/>
      </g>
     </g>
     <g id="text_1">
      <!-- 2023-01-01 -->
      <g transform="translate(17.945813 495.213718) rotate(-45) scale(0.2 -0.2)">
       <defs>
        <path id="DejaVuSans-32" d="M 1228 531 
L 3431 531 
L 3431 0 
L 469 0 
L 469 531 
Q 828 903 1448 1529 
Q 2069 2156 2228 2338 
Q 2531 2678 2651 2914 
Q 2772 3150 2772 3378 
Q 2772 3750 2511 3984 
Q 2250 4219 1831 4219 
Q 1534 4219 1204 4116 
Q 875 4013 500 3803 
L 500 4441 
Q 881 4594 1212 4672 
Q 1544 4750 1819 4750 
Q 2544 4750 2975 4387 
Q 3406 4025 3406 3419 
Q 3406 3131 3298 2873 
Q 3191 2616 2906 2266 
Q 2828 2175 2409 1742 
Q 1991 1309 1228 531 
z
" transform="scale(0.015625)"/>
        <path id="DejaVuSans-30" d="M 2034 4250 
Q 1547 4250 1301 3770 
Q 1056 3291 1056 2328 
Q 1056 1369 1301 889 
Q 1547 409 2034 409 
Q 2525 409 2770 889 
Q 3016 1369 3016 2328 
Q 3016 3291 2770 3770 
Q 2525 4250 2034 4250 
z
M 2034 4750 
Q 2819 4750 3233 4129 
Q 3647 3509 3647 2328 
Q 3647 1150 3233 529 
Q 2819 -91 2034 -91 
Q 1250 -91 836 529 
Q 422 1150 422 2328 
Q 422 3509 836 4129 
Q 1250 4750 2034 4750 
z
" transform="scale(0.015625)"/>
        <path id="DejaVuSans-33" d="M 2597 2516 
Q 3050 2419 3304 2112 
Q 3559 1806 3559 1356 
Q 3559 666 3084 287 
Q 2609 -91 1734 -91 
Q 1441 -91 1130 -33 
Q 819 25 488 141 
L 488 750 
Q 750 597 1062 519 
Q 1375 441 1716 441 
Q 2309 441 2620 675 
Q 2931 909 2931 1356 
Q 2931 1769 2642 2001 
Q 2353 2234 1838 2234 
L 1294 2234 
L 1294 2753 
L 1863 2753 
Q 2328 2753 2575 2939 
Q 2822 3125 2822 3475 
Q 2822 3834 2567 4026 
Q 2313 4219 1838 4219 
Q 1578 4219 1281 4162 
Q 984 4106 628 3988 
L 628 4550 
Q 988 4650 1302 4700 
Q 1616 4750 1894 4750 
Q 2613 4750 3031 4423 
Q 3450 4097 3450 3541 
Q 3450 3153 3228 2886 
Q 3006 2619 2597 2516 
z
" transform="scale(0.015625)"/>
        <path id="DejaVuSans-2d" d="M 313 2009 
L 1997 2009 
L 1997 1497 
L 313 1497 
L 313 2009 
z
" transform="scale(0.015625)"/>
        <path id="DejaVuSans-31" d="M 794 531 
L 1825 531 
L 1825 4091 
L 703 3866 
L 703 4441 
L 1819 4666 
L 2450 4666 
L 2450 531 
L 3481 531 
L 3481 0 
L 794 0 
L 794 531 
z
" transform="scale(0.015625)"/>
       </defs>
       <use xlink:href="#DejaVuSans-32"/>
       <use xlink:href="#DejaVuSans-30" x="63.623047"/>
       <use xlink:href="#DejaVuSans-32" x="127.246094"/>
       <use xlink:href="#DejaVuSans-33" x="190.869141"/>
       <use xlink:href="#DejaVuSans-2d" x="254.492188"/>
       <use xlink:href="#DejaVuSans-30" x="290.576172"/>
       <use xlink:href="#DejaVuSans-31" x="354.199219"/>
       <use xlink:href="#DejaVuSans-2d" x="417.822266"/>
       <use xlink:href="#DejaVuSans-30" x="453.90625"/>
       <use xlink:href="#DejaVuSans-31" x="517.529297"/>
      </g>
     </g>
    </g>
    <g id="xtick_2">
     <g id="line2d_2">
      <g>
       <use xlink:href="#m5439749f67" x="215.747918" y="395.28" style="stroke: #000000; stroke-width: 0.8"/>
      </g>
     </g>
     <g id="text_2">
      <!-- 2023-01-15 -->
      <g transform="translate(130.61889 495.213718) rotate(-45) scale(0.2 -0.2)">
       <defs>
        <path id="DejaVuSans-35" d="M 691 4666 
L 3169 4666 
L 3169 4134 
L 1269 4134 
L 1269 2991 
Q 1406 3038 1543 3061 
Q 1681 3084 1819 3084 
Q 2600 3084 3056 2656 
Q 3513 2228 3513 1497 
Q 3513 744 3044 326 
Q 2575 -91 1722 -91 
Q 1428 -91 1123 -41 
Q 819 9 494 109 
L 494 744 
Q 775 591 1075 516 
Q 1375 441 1709 441 
Q 2250 441 2565 725 
Q 2881 1009 2881 1497 
Q 2881 1984 2565 2268 
Q 2250 2553 1709 2553 
Q 1456 2553 1204 2497 
Q 953 2441 691 2322 
L 691 4666 
z
" transform="scale(0.015625)"/>
       </defs>
       <use xlink:href="#DejaVuSans-32"/>
       <use xlink:href="#DejaVuSans-30" x="63.623047"/>
       <use xlink:href="#DejaVuSans-32" x="127.246094"/>
       <use xlink:href="#DejaVuSans-33" x="190.869141"/>
       <use xlink:href="#DejaVuSans-2d" x="254.492188"/>
       <use xlink:href="#DejaVuSans-30" x="290.576172"/>
       <use xlink:href="#DejaVuSans-31" x="354.199219"/>
       <use xlink:href="#DejaVuSans-2d" x="417.822266"/>
       <use xlink:href="#DejaVuSans-31" x="453.90625"/>
       <use xlink:href="#DejaVuSans-35" x="517.529297"/>
      </g>
     </g>
    </g>
    <g id="xtick_3">
     <g id="line2d_3">
      <g>
       <use xlink:href="#m5439749f67" x="328.420995" y="395.28" style="stroke: #000000; stroke-width: 0.8"/>
      </g>
     </g>
     <g id="text_3">
      <!-- 2023-01-29 -->
      <g transform="translate(243.291967 495.213718) rotate(-45) scale(0.2 -0.2)">
       <defs>
        <path id="DejaVuSans-39" d="M 703 97 
L 703 672 
Q 941 559 1184 500 
Q 1428 441 1663 441 
Q 2288 441 2617 861 
Q 2947 1281 2994 2138 
Q 2813 1869 2534 1725 
Q 2256 1581 1919 1581 
Q 1219 1581 811 2004 
Q 403 2428 403 3163 
Q 403 3881 828 4315 
Q 1253 4750 1959 4750 
Q 2769 4750 3195 4129 
Q 3622 3509 3622 2328 
Q 3622 1225 3098 567 
Q 2575 -91 1691 -91 
Q 1453 -91 1209 -44 
Q 966 3 703 97 
z
M 1959 2075 
Q 2384 2075 2632 2365 
Q 2881 2656 2881 3163 
Q 2881 3666 2632 3958 
Q 2384 4250 1959 4250 
Q 1534 4250 1286 3958 
Q 1038 3666 1038 3163 
Q 1038 2656 1286 2365 
Q 1534 2075 1959 2075 
z
" transform="scale(0.015625)"/>
       </defs>
       <use xlink:href="#DejaVuSans-32"/>
       <use xlink:href="#DejaVuSans-30" x="63.623047"/>
       <use xlink:href="#DejaVuSans-32" x="127.246094"/>
       <use xlink:href="#DejaVuSans-33" x="190.869141"/>
       <use xlink:href="#DejaVuSans-2d" x="254.492188"/>
       <use xlink:href="#DejaVuSans-30" x="290.576172"/>
       <use xlink:href="#DejaVuSans-31" x="354.199219"/>
       <use xlink:href="#DejaVuSans-2d" x="417.822266"/>
       <use xlink:href="#DejaVuSans-32" x="453.90625"/>
       <use xlink:href="#DejaVuSans-39" x="517.529297"/>
      </g>
     </g>
    </g>
    <g id="xtick_4">
     <g id="line2d_4">
      <g>
       <use xlink:href="#m5439749f67" x="441.094071" y="395.28" style="stroke: #000000; stroke-width: 0.8"/>
      </g>
     </g>
     <g id="text_4">
      <!-- 2023-02-12 -->
      <g transform="translate(355.965044 495.213718) rotate(-45) scale(0.2 -0.2)">
       <use xlink:href="#DejaVuSans-32"/>
       <use xlink:href="#DejaVuSans-30" x="63.623047"/>
       <use xlink:href="#DejaVuSans-32" x="127.246094"/>
       <use xlink:href="#DejaVuSans-33" x="190.869141"/>
       <use xlink:href="#DejaVuSans-2d" x="254.492188"/>
       <use xlink:href="#DejaVuSans-30" x="290.576172"/>
       <use xlink:href="#DejaVuSans-32" x="354.199219"/>
       <use xlink:href="#DejaVuSans-2d" x="417.822266"/>
       <use xlink:href="#DejaVuSans-31" x="453.90625"/>
       <use xlink:href="#DejaVuSans-32" x="517.529297"/>
      </g>
     </g>
    </g>
    <g id="xtick_5">
     <g id="line2d_5">
      <g>
       <use xlink:href="#m5439749f67" x="553.767148" y="395.28" style="stroke: #000000; stroke-width: 0.8"/>
      </g>
     </g>
     <g id="text_5">
      <!-- 2023-02-26 -->
      <g transform="translate(468.638121 495.213718) rotate(-45) scale(0.2 -0.2)">
       <defs>
        <path id="DejaVuSans-36" d="M 2113 2584 
Q 1688 2584 1439 2293 
Q 1191 2003 1191 1497 
Q 1191 994 1439 701 
Q 1688 409 2113 409 
Q 2538 409 2786 701 
Q 3034 994 3034 1497 
Q 3034 2003 2786 2293 
Q 2538 2584 2113 2584 
z
M 3366 4563 
L 3366 3988 
Q 3128 4100 2886 4159 
Q 2644 4219 2406 4219 
Q 1781 4219 1451 3797 
Q 1122 3375 1075 2522 
Q 1259 2794 1537 2939 
Q 1816 3084 2150 3084 
Q 2853 3084 3261 2657 
Q 3669 2231 3669 1497 
Q 3669 778 3244 343 
Q 2819 -91 2113 -91 
Q 1303 -91 875 529 
Q 447 1150 447 2328 
Q 447 3434 972 4092 
Q 1497 4750 2381 4750 
Q 2619 4750 2861 4703 
Q 3103 4656 3366 4563 
z
" transform="scale(0.015625)"/>
       </defs>
       <use xlink:href="#DejaVuSans-32"/>
       <use xlink:href="#DejaVuSans-30" x="63.623047"/>
       <use xlink:href="#DejaVuSans-32" x="127.246094"/>
       <use xlink:href="#DejaVuSans-33" x="190.869141"/>
       <use xlink:href="#DejaVuSans-2d" x="254.492188"/>
       <use xlink:href="#DejaVuSans-30" x="290.576172"/>
       <use xlink:href="#DejaVuSans-32" x="354.199219"/>
       <use xlink:href="#DejaVuSans-2d" x="417.822266"/>
       <use xlink:href="#DejaVuSans-32" x="453.90625"/>
       <use xlink:href="#DejaVuSans-36" x="517.529297"/>
      </g>
     </g>
    </g>
    <g id="xtick_6">
     <g id="line2d_6">
      <g>
       <use xlink:href="#m5439749f67" x="666.440225" y="395.28" style="stroke: #000000; stroke-width: 0.8"/>
      </g>
     </g>
     <g id="text_6">
      <!-- 2023-03-12 -->
      <g transform="translate(581.311198 495.213718) rotate(-45) scale(0.2 -0.2)">
       <use xlink:href="#DejaVuSans-32"/>
       <use xlink:href="#DejaVuSans-30" x="63.623047"/>
       <use xlink:href="#DejaVuSans-32" x="127.246094"/>
       <use xlink:href="#DejaVuSans-33" x="190.869141"/>
       <use xlink:href="#DejaVuSans-2d" x="254.492188"/>
       <use xlink:href="#DejaVuSans-30" x="290.576172"/>
       <use xlink:href="#DejaVuSans-33" x="354.199219"/>
       <use xlink:href="#DejaVuSans-2d" x="417.822266"/>
       <use xlink:href="#DejaVuSans-31" x="453.90625"/>
       <use xlink:href="#DejaVuSans-32" x="517.529297"/>
      </g>
     </g>
    </g>
    <g id="xtick_7">
     <g id="line2d_7">
      <g>
       <use xlink:href="#m5439749f67" x="779.113302" y="395.28" style="stroke: #000000; stroke-width: 0.8"/>
      </g>
     </g>
     <g id="text_7">
      <!-- 2023-03-26 -->
      <g transform="translate(693.984275 495.213718) rotate(-45) scale(0.2 -0.2)">
       <use xlink:href="#DejaVuSans-32"/>
       <use xlink:href="#DejaVuSans-30" x="63.623047"/>
       <use xlink:href="#DejaVuSans-32" x="127.246094"/>
       <use xlink:href="#DejaVuSans-33" x="190.869141"/>
       <use xlink:href="#DejaVuSans-2d" x="254.492188"/>
       <use xlink:href="#DejaVuSans-30" x="290.576172"/>
       <use xlink:href="#DejaVuSans-33" x="354.199219"/>
       <use xlink:href="#DejaVuSans-2d" x="417.822266"/>
       <use xlink:href="#DejaVuSans-32" x="453.90625"/>
       <use xlink:href="#DejaVuSans-36" x="517.529297"/>
      </g>
     </g>
    </g>
    <g id="xtick_8">
     <g id="line2d_8">
      <g>
       <use xlink:href="#m5439749f67" x="891.786379" y="395.28" style="stroke: #000000; stroke-width: 0.8"/>
      </g>
     </g>
     <g id="text_8">
      <!-- 2023-04-09 -->
      <g transform="translate(806.657352 495.213718) rotate(-45) scale(0.2 -0.2)">
       <defs>
        <path id="DejaVuSans-34" d="M 2419 4116 
L 825 1625 
L 2419 1625 
L 2419 4116 
z
M 2253 4666 
L 3047 4666 
L 3047 1625 
L 3713 1625 
L 3713 1100 
L 3047 1100 
L 3047 0 
L 2419 0 
L 2419 1100 
L 313 1100 
L 313 1709 
L 2253 4666 
z
" transform="scale(0.015625)"/>
       </defs>
       <use xlink:href="#DejaVuSans-32"/>
       <use xlink:href="#DejaVuSans-30" x="63.623047"/>
       <use xlink:href="#DejaVuSans-32" x="127.246094"/>
       <use xlink:href="#DejaVuSans-33" x="190.869141"/>
       <use xlink:href="#DejaVuSans-2d" x="254.492188"/>
       <use xlink:href="#DejaVuSans-30" x="290.576172"/>
       <use xlink:href="#DejaVuSans-34" x="354.199219"/>
       <use xlink:href="#DejaVuSans-2d" x="417.822266"/>
       <use xlink:href="#DejaVuSans-30" x="453.90625"/>
       <use xlink:href="#DejaVuSans-39" x="517.529297"/>
      </g>
     </g>
    </g>
    <g id="xtick_9">
     <g id="line2d_9">
      <g>
       <use xlink:href="#m5439749f67" x="940.074841" y="395.28" style="stroke: #000000; stroke-width: 0.8"/>
      </g>
     </g>
     <g id="text_9">
      <!-- 2023-04-15 -->
      <g transform="translate(854.945813 495.213718) rotate(-45) scale(0.2 -0.2)">
       <use xlink:href="#DejaVuSans-32"/>
       <use xlink:href="#DejaVuSans-30" x="63.623047"/>
       <use xlink:href="#DejaVuSans-32" x="127.246094"/>
       <use xlink:href="#DejaVuSans-33" x="190.869141"/>
       <use xlink:href="#DejaVuSans-2d" x="254.492188"/>
       <use xlink:href="#DejaVuSans-30" x="290.576172"/>
       <use xlink:href="#DejaVuSans-34" x="354.199219"/>
       <use xlink:href="#DejaVuSans-2d" x="417.822266"/>
       <use xlink:href="#DejaVuSans-31" x="453.90625"/>
       <use xlink:href="#DejaVuSans-35" x="517.529297"/>
      </g>
     </g>
    </g>
   </g>
   <g id="matplotlib.axis_2">
    <g id="ytick_1">
     <g id="line2d_10">
      <defs>
       <path id="m9b203377ef" d="M 0 0 
L -3.5 0 
" style="stroke: #000000; stroke-width: 0.8"/>
      </defs>
      <g>
       <use xlink:href="#m9b203377ef" x="103.074841" y="365.340439" style="stroke: #000000; stroke-width: 0.8"/>
      </g>
     </g>
     <g id="text_10">
      <!-- −0.4 -->
      <g transform="translate(47.509216 372.938877) scale(0.2 -0.2)">
       <defs>
        <path id="DejaVuSans-2212" d="M 678 2272 
L 4684 2272 
L 4684 1741 
L 678 1741 
L 678 2272 
z
" transform="scale(0.015625)"/>
        <path id="DejaVuSans-2e" d="M 684 794 
L 1344 794 
L 1344 0 
L 684 0 
L 684 794 
z
" transform="scale(0.015625)"/>
       </defs>
       <use xlink:href="#DejaVuSans-2212"/>
       <use xlink:href="#DejaVuSans-30" x="83.789062"/>
       <use xlink:href="#DejaVuSans-2e" x="147.412109"/>
       <use xlink:href="#DejaVuSans-34" x="179.199219"/>
      </g>
     </g>
    </g>
    <g id="ytick_2">
     <g id="line2d_11">
      <g>
       <use xlink:href="#m9b203377ef" x="103.074841" y="307.867946" style="stroke: #000000; stroke-width: 0.8"/>
      </g>
     </g>
     <g id="text_11">
      <!-- −0.2 -->
      <g transform="translate(47.509216 315.466384) scale(0.2 -0.2)">
       <use xlink:href="#DejaVuSans-2212"/>
       <use xlink:href="#DejaVuSans-30" x="83.789062"/>
       <use xlink:href="#DejaVuSans-2e" x="147.412109"/>
       <use xlink:href="#DejaVuSans-32" x="179.199219"/>
      </g>
     </g>
    </g>
    <g id="ytick_3">
     <g id="line2d_12">
      <g>
       <use xlink:href="#m9b203377ef" x="103.074841" y="250.395454" style="stroke: #000000; stroke-width: 0.8"/>
      </g>
     </g>
     <g id="text_12">
      <!-- 0.0 -->
      <g transform="translate(64.268591 257.993891) scale(0.2 -0.2)">
       <use xlink:href="#DejaVuSans-30"/>
       <use xlink:href="#DejaVuSans-2e" x="63.623047"/>
       <use xlink:href="#DejaVuSans-30" x="95.410156"/>
      </g>
     </g>
    </g>
    <g id="ytick_4">
     <g id="line2d_13">
      <g>
       <use xlink:href="#m9b203377ef" x="103.074841" y="192.922961" style="stroke: #000000; stroke-width: 0.8"/>
      </g>
     </g>
     <g id="text_13">
      <!-- 0.2 -->
      <g transform="translate(64.268591 200.521398) scale(0.2 -0.2)">
       <use xlink:href="#DejaVuSans-30"/>
       <use xlink:href="#DejaVuSans-2e" x="63.623047"/>
       <use xlink:href="#DejaVuSans-32" x="95.410156"/>
      </g>
     </g>
    </g>
    <g id="ytick_5">
     <g id="line2d_14">
      <g>
       <use xlink:href="#m9b203377ef" x="103.074841" y="135.450468" style="stroke: #000000; stroke-width: 0.8"/>
      </g>
     </g>
     <g id="text_14">
      <!-- 0.4 -->
      <g transform="translate(64.268591 143.048906) scale(0.2 -0.2)">
       <use xlink:href="#DejaVuSans-30"/>
       <use xlink:href="#DejaVuSans-2e" x="63.623047"/>
       <use xlink:href="#DejaVuSans-34" x="95.410156"/>
      </g>
     </g>
    </g>
    <g id="ytick_6">
     <g id="line2d_15">
      <g>
       <use xlink:href="#m9b203377ef" x="103.074841" y="77.977975" style="stroke: #000000; stroke-width: 0.8"/>
      </g>
     </g>
     <g id="text_15">
      <!-- 0.6 -->
      <g transform="translate(64.268591 85.576413) scale(0.2 -0.2)">
       <use xlink:href="#DejaVuSans-30"/>
       <use xlink:href="#DejaVuSans-2e" x="63.623047"/>
       <use xlink:href="#DejaVuSans-36" x="95.410156"/>
      </g>
     </g>
    </g>
    <g id="ytick_7">
     <g id="line2d_16">
      <g>
       <use xlink:href="#m9b203377ef" x="103.074841" y="20.505482" style="stroke: #000000; stroke-width: 0.8"/>
      </g>
     </g>
     <g id="text_16">
      <!-- 0.8 -->
      <g transform="translate(64.268591 28.10392) scale(0.2 -0.2)">
       <defs>
        <path id="DejaVuSans-38" d="M 2034 2216 
Q 1584 2216 1326 1975 
Q 1069 1734 1069 1313 
Q 1069 891 1326 650 
Q 1584 409 2034 409 
Q 2484 409 2743 651 
Q 3003 894 3003 1313 
Q 3003 1734 2745 1975 
Q 2488 2216 2034 2216 
z
M 1403 2484 
Q 997 2584 770 2862 
Q 544 3141 544 3541 
Q 544 4100 942 4425 
Q 1341 4750 2034 4750 
Q 2731 4750 3128 4425 
Q 3525 4100 3525 3541 
Q 3525 3141 3298 2862 
Q 3072 2584 2669 2484 
Q 3125 2378 3379 2068 
Q 3634 1759 3634 1313 
Q 3634 634 3220 271 
Q 2806 -91 2034 -91 
Q 1263 -91 848 271 
Q 434 634 434 1313 
Q 434 1759 690 2068 
Q 947 2378 1403 2484 
z
M 1172 3481 
Q 1172 3119 1398 2916 
Q 1625 2713 2034 2713 
Q 2441 2713 2670 2916 
Q 2900 3119 2900 3481 
Q 2900 3844 2670 4047 
Q 2441 4250 2034 4250 
Q 1625 4250 1398 4047 
Q 1172 3844 1172 3481 
z
" transform="scale(0.015625)"/>
       </defs>
       <use xlink:href="#DejaVuSans-30"/>
       <use xlink:href="#DejaVuSans-2e" x="63.623047"/>
       <use xlink:href="#DejaVuSans-38" x="95.410156"/>
      </g>
     </g>
    </g>
   </g>
   <g id="line2d_17">
    <path d="M 360.613302 250.395454 
L 400.853687 250.395454 
L 408.901764 24.84 
L 416.949841 91.381126 
L 424.997918 250.395454 
L 465.238302 250.395454 
L 473.286379 354.038612 
L 481.334456 250.395454 
L 521.574841 250.395454 
L 529.622918 377.64 
M 940.074841 250.395454 
" clip-path="url(#p7353a1fa4d)" style="fill: none; stroke: #ffa500; stroke-width: 1.5; stroke-linecap: square"/>
   </g>
   <g id="line2d_18">
    <path d="M 103.074841 250.395454 
L 948.274841 250.395454 
" clip-path="url(#p7353a1fa4d)" style="fill: none; stroke-dasharray: 7.4,3.2; stroke-dashoffset: 0; stroke: #000000; stroke-width: 2"/>
   </g>
   <g id="patch_3">
    <path d="M 103.074841 395.28 
L 103.074841 7.2 
" style="fill: none; stroke: #000000; stroke-width: 0.8; stroke-linejoin: miter; stroke-linecap: square"/>
   </g>
   <g id="patch_4">
    <path d="M 940.074841 395.28 
L 940.074841 7.2 
" style="fill: none; stroke: #000000; stroke-width: 0.8; stroke-linejoin: miter; stroke-linecap: square"/>
   </g>
   <g id="patch_5">
    <path d="M 103.074841 395.28 
L 940.074841 395.28 
" style="fill: none; stroke: #000000; stroke-width: 0.8; stroke-linejoin: miter; stroke-linecap: square"/>
   </g>
   <g id="patch_6">
    <path d="M 103.074841 7.2 
L 940.074841 7.2 
" style="fill: none; stroke: #000000; stroke-width: 0.8; stroke-linejoin: miter; stroke-linecap: square"/>
   </g>
  </g>
 </g>
 <defs>
  <clipPath id="p7353a1fa4d">
   <rect x="103.074841" y="7.2" width="837" height="388.08"/>
  </clipPath>
 </defs>
</svg>
