<?xml version="1.0" encoding="utf-8" standalone="no"?>
<!DOCTYPE svg PUBLIC "-//W3C//DTD SVG 1.1//EN"
  "http://www.w3.org/Graphics/SVG/1.1/DTD/svg11.dtd">
<svg xmlns:xlink="http://www.w3.org/1999/xlink" width="947.274841pt" height="505.354841pt" viewBox="0 0 947.274841 505.354841" xmlns="http://www.w3.org/2000/svg" version="1.1">
 <metadata>
  <rdf:RDF xmlns:dc="http://purl.org/dc/elements/1.1/" xmlns:cc="http://creativecommons.org/ns#" xmlns:rdf="http://www.w3.org/1999/02/22-rdf-syntax-ns#">
   <cc:Work>
    <dc:type rdf:resource="http://purl.org/dc/dcmitype/StillImage"/>
    <dc:date>2023-11-12T23:20:23.527312</dc:date>
    <dc:format>image/svg+xml</dc:format>
    <dc:creator>
     <cc:Agent>
      <dc:title>Matplotlib v3.7.2, https://matplotlib.org/</dc:title>
     </cc:Agent>
    </dc:creator>
   </cc:Work>
  </rdf:RDF>
 </metadata>
 <defs>
  <style type="text/css">*{stroke-linejoin: round; stroke-linecap: butt}</style>
 </defs>
 <g id="figure_1">
  <g id="patch_1">
   <path d="M 0 505.354841 
L 947.274841 505.354841 
L 947.274841 -0 
L 0 -0 
z
" style="fill: #ffffff"/>
  </g>
  <g id="axes_1">
   <g id="patch_2">
    <path d="M 103.074841 395.28 
L 940.074841 395.28 
L 940.074841 7.2 
L 103.074841 7.2 
z
" style="fill: #ffffff"/>
   </g>
   <g id="PolyCollection_1">
    <path d="M -393.000769 336.262154 
L -393.000769 336.288234 
L -390.959306 336.165808 
L -388.917842 336.057881 
L -386.876379 335.920992 
L -384.834915 335.826504 
L -382.793452 335.707117 
L -380.751989 335.568926 
L -378.710525 335.436932 
L -376.669062 335.317882 
L -374.627598 335.211213 
L -372.586135 335.09006 
L -370.544672 334.963576 
L -368.503208 334.83995 
L -366.461745 334.691595 
L -364.420281 334.565674 
L -362.378818 334.4201 
L -360.337354 334.292753 
L -358.295891 334.126442 
L -356.254428 333.986318 
L -354.212964 333.8504 
L -352.171501 333.692624 
L -350.130037 333.537974 
L -348.088574 333.385939 
L -346.047111 333.205928 
L -344.005647 333.045445 
L -341.964184 332.860361 
L -339.92272 332.672551 
L -337.881257 332.466256 
L -335.839793 332.253973 
L -333.79833 332.0448 
L -331.756867 331.805366 
L -329.715403 331.536552 
L -327.67394 331.293617 
L -325.632476 331.019869 
L -323.591013 330.709733 
L -321.54955 330.417385 
L -319.508086 330.07831 
L -317.466623 329.732564 
L -315.425159 329.375491 
L -313.383696 328.998429 
L -311.342232 328.582596 
L -309.300769 328.140233 
L -307.259306 327.671687 
L -305.217842 327.216014 
L -303.176379 326.686756 
L -301.134915 326.178506 
L -299.093452 325.638214 
L -297.051989 325.093654 
L -295.010525 324.509599 
L -292.969062 323.880002 
L -290.927598 323.29042 
L -288.886135 322.639193 
L -286.844672 321.965577 
L -284.803208 321.302383 
L -282.761745 320.643648 
L -280.720281 319.933428 
L -278.678818 319.214887 
L -276.637354 318.496195 
L -274.595891 317.749312 
L -272.554428 316.992982 
L -270.512964 316.237503 
L -268.471501 315.457956 
L -266.430037 314.675807 
L -264.388574 313.903374 
L -262.347111 313.101603 
L -260.305647 312.248832 
L -258.264184 311.419318 
L -256.22272 310.59102 
L -254.181257 309.774028 
L -252.139793 308.926753 
L -250.09833 308.09715 
L -248.056867 307.254833 
L -246.015403 306.486459 
L -243.97394 305.59709 
L -241.932476 304.815738 
L -239.891013 303.968449 
L -237.84955 303.166373 
L -235.808086 302.330668 
L -233.766623 301.572761 
L -231.725159 300.715592 
L -229.683696 299.914097 
L -227.642232 299.15684 
L -225.600769 298.340776 
L -223.559306 297.565361 
L -221.517842 296.767679 
L -219.476379 295.95492 
L -217.434915 295.170946 
L -215.393452 294.401108 
L -213.351989 293.587569 
L -211.310525 292.804074 
L -209.269062 292.004391 
L -207.227598 291.216849 
L -205.186135 290.446423 
L -203.144672 289.65774 
L -201.103208 288.862691 
L -199.061745 288.139008 
L -197.020281 287.331365 
L -194.978818 286.554804 
L -192.937354 285.790375 
L -190.895891 285.025851 
L -188.854428 284.263725 
L -186.812964 283.493528 
L -184.771501 282.755834 
L -182.730037 281.992444 
L -180.688574 281.212718 
L -178.647111 280.425614 
L -176.605647 279.6312 
L -174.564184 278.882591 
L -172.52272 278.067104 
L -170.481257 277.202926 
L -168.439793 276.386204 
L -166.39833 275.529094 
L -164.356867 274.659525 
L -162.315403 273.745456 
L -160.27394 272.815661 
L -158.232476 271.944824 
L -156.191013 270.962674 
L -154.14955 270.023967 
L -152.108086 269.019235 
L -150.066623 268.088089 
L -148.025159 267.007972 
L -145.983696 265.946104 
L -143.942232 264.910276 
L -141.900769 263.856729 
L -139.859306 262.77229 
L -137.817842 261.641993 
L -135.776379 260.575166 
L -133.734915 259.366152 
L -131.693452 258.28944 
L -129.651989 257.045002 
L -127.610525 255.834459 
L -125.569062 254.648303 
L -123.527598 253.504618 
L -121.486135 252.186091 
L -119.444672 250.98268 
L -117.403208 249.480668 
L -115.361745 248.170909 
L -113.320281 246.940279 
L -111.278818 245.563069 
L -109.237354 244.150737 
L -107.195891 242.539705 
L -105.154428 241.018498 
L -103.112964 239.724112 
L -101.071501 237.749651 
L -99.030037 236.132265 
L -96.988574 234.477828 
L -94.947111 232.76168 
L -92.905647 230.823193 
L -90.864184 228.984813 
L -88.82272 227.614371 
L -86.781257 226.030116 
L -84.739793 223.425206 
L -82.69833 221.277138 
L -80.656867 219.937465 
L -78.615403 217.664653 
L -76.57394 216.005911 
L -74.532476 214.465703 
L -72.491013 212.324521 
L -70.44955 209.411027 
L -68.408086 207.623746 
L -66.366623 206.614289 
L -64.325159 204.441209 
L -62.283696 203.610144 
L -60.242232 202.176866 
L -58.200769 199.593591 
L -56.159306 199.600239 
L -54.117842 200.401074 
L -52.076379 202.301716 
L -50.034915 199.799575 
L -47.993452 204.257649 
L -45.951989 205.127119 
L -43.910525 198.749078 
L -41.869062 200.365839 
L -39.827598 202.985226 
L -37.786135 201.229056 
L -35.744672 200.773559 
L -33.703208 212.494358 
L -31.661745 229.214261 
L -29.620281 237.495627 
L -27.578818 219.156969 
L -25.537354 228.472493 
L -23.495891 240.705786 
L -21.454428 239.937921 
L -19.412964 264.91171 
L -17.371501 261.459763 
L -15.330037 253.776572 
L -13.288574 234.789456 
L -11.247111 252.600042 
L -9.205647 263.306497 
L -7.164184 258.815877 
L -5.12272 261.604328 
L -3.081257 271.717565 
L -1.039793 270.366551 
L 1.00167 261.643535 
L 3.043133 272.601661 
L 5.084597 274.773647 
L 7.12606 270.858631 
L 9.167524 277.813033 
L 11.208987 280.35245 
L 13.25045 279.662273 
L 15.291914 277.547252 
L 17.333377 279.82713 
L 19.374841 277.485881 
L 21.416304 277.679462 
L 23.457768 279.846325 
L 25.499231 277.784422 
L 27.540694 278.83578 
L 29.582158 278.879049 
L 31.623621 277.204617 
L 33.665085 277.794882 
L 35.706548 275.384461 
L 37.748011 275.52 
L 39.789475 276.155989 
L 41.830938 276.163552 
L 43.872402 274.965588 
L 45.913865 273.933228 
L 47.955328 273.641672 
L 49.996792 272.498118 
L 52.038255 272.277512 
L 54.079719 272.018373 
L 56.121182 270.295043 
L 58.162646 271.02331 
L 60.204109 269.860699 
L 62.245572 269.321345 
L 64.287036 269.28792 
L 66.328499 268.142817 
L 68.369963 267.807752 
L 70.411426 268.106371 
L 72.452889 268.635919 
L 74.494353 266.805069 
L 76.535816 266.437315 
L 78.57728 265.789811 
L 80.618743 268.77416 
L 82.660207 268.781823 
L 84.70167 269.897926 
L 86.743133 266.923214 
L 88.784597 265.067041 
L 90.82606 265.57627 
L 92.867524 267.531391 
L 94.908987 267.812312 
L 96.95045 264.225145 
L 98.991914 267.152551 
L 101.033377 266.350822 
L 103.074841 265.804828 
L 105.116304 264.119188 
L 107.157768 265.390572 
L 109.199231 264.543107 
L 111.240694 265.232858 
L 113.282158 264.115623 
L 115.323621 263.218484 
L 117.365085 261.648551 
L 119.406548 260.863389 
L 121.448011 260.140169 
L 123.489475 259.170236 
L 125.530938 258.905967 
L 127.572402 258.004282 
L 129.613865 257.040326 
L 131.655328 254.602902 
L 133.696792 252.733572 
L 135.738255 251.854316 
L 137.779719 249.816324 
L 139.821182 249.355773 
L 141.862646 247.562259 
L 143.904109 244.954269 
L 145.945572 242.767408 
L 147.987036 241.096034 
L 150.028499 238.395942 
L 152.069963 236.713574 
L 154.111426 234.300046 
L 156.152889 232.158534 
L 158.194353 229.483611 
L 160.235816 227.266177 
L 162.27728 224.276506 
L 164.318743 221.906786 
L 166.360207 219.337226 
L 168.40167 215.943876 
L 170.443133 212.777821 
L 172.484597 210.455531 
L 174.52606 207.657975 
L 176.567524 204.24674 
L 178.608987 201.542574 
L 180.65045 198.262288 
L 182.691914 193.587575 
L 184.733377 191.603565 
L 186.774841 187.817014 
L 188.816304 184.836563 
L 190.857768 181.45003 
L 192.899231 177.78626 
L 194.940694 174.000433 
L 196.982158 170.549487 
L 199.023621 165.940978 
L 201.065085 163.116985 
L 203.106548 158.817944 
L 205.148011 156.020505 
L 207.189475 151.615899 
L 209.230938 147.363142 
L 211.272402 143.428786 
L 213.313865 140.281445 
L 215.355328 135.200588 
L 217.396792 131.740122 
L 219.438255 127.211217 
L 221.479719 123.667298 
L 223.521182 119.098855 
L 225.562646 115.084289 
L 227.604109 114.444743 
L 229.645572 106.695105 
L 231.687036 105.332486 
L 233.728499 100.504759 
L 235.769963 97.162935 
L 237.811426 93.238048 
L 239.852889 89.065785 
L 241.894353 85.469741 
L 243.935816 81.992625 
L 245.97728 78.712829 
L 248.018743 75.414297 
L 250.060207 77.706424 
L 252.10167 68.234129 
L 254.143133 65.764989 
L 256.184597 73.254097 
L 258.22606 61.853128 
L 260.267524 63.571085 
L 262.308987 62.175744 
L 264.35045 56.166791 
L 266.391914 57.009412 
L 268.433377 62.541848 
L 270.474841 58.210137 
L 272.516304 56.142465 
L 274.557768 59.545265 
L 276.599231 58.079702 
L 278.640694 60.379622 
L 280.682158 63.549231 
L 282.723621 69.063086 
L 284.765085 82.021329 
L 286.806548 78.906887 
L 288.848011 85.884372 
L 290.889475 91.646473 
L 292.930938 94.697802 
L 294.972402 102.226472 
L 297.013865 108.932006 
L 299.055328 98.028 
L 301.096792 109.976541 
L 303.138255 124.733449 
L 305.179719 131.906718 
L 307.221182 135.246526 
L 309.262646 154.755431 
L 311.304109 156.429596 
L 313.345572 161.825282 
L 315.387036 160.510408 
L 317.428499 176.986551 
L 319.469963 172.016437 
L 321.511426 169.236677 
L 323.552889 183.316787 
L 325.594353 193.340976 
L 327.635816 192.562085 
L 329.67728 198.547234 
L 331.718743 200.554551 
L 333.760207 201.003928 
L 335.80167 201.090138 
L 337.843133 204.446057 
L 339.884597 206.378615 
L 341.92606 216.629069 
L 343.967524 211.511952 
L 346.008987 220.448453 
L 348.05045 218.545675 
L 350.091914 217.441794 
L 352.133377 221.113814 
L 354.174841 224.396038 
L 356.216304 220.445666 
L 358.257768 222.526383 
L 360.299231 222.747031 
L 362.340694 227.638932 
L 364.382158 225.350322 
L 366.423621 224.325014 
L 368.465085 225.782664 
L 370.506548 228.164181 
L 372.548011 227.097998 
L 374.589475 224.867025 
L 376.630938 226.2155 
L 378.672402 222.784923 
L 380.713865 223.201219 
L 382.755328 228.971139 
L 384.796792 228.663857 
L 386.838255 225.455675 
L 388.879719 224.675309 
L 390.921182 225.060024 
L 392.962646 221.577755 
L 395.004109 222.420268 
L 397.045572 222.403304 
L 399.087036 221.655162 
L 401.128499 220.705694 
L 403.169963 218.542413 
L 405.211426 219.803471 
L 407.252889 218.345559 
L 409.294353 218.019149 
L 411.335816 217.23981 
L 413.37728 217.32119 
L 415.418743 215.662991 
L 417.460207 212.671448 
L 419.50167 212.532525 
L 421.543133 210.098761 
L 423.584597 206.593613 
L 425.62606 209.166055 
L 427.667524 204.395016 
L 429.708987 206.400065 
L 431.75045 205.502663 
L 433.791914 205.853993 
L 435.833377 202.80019 
L 437.874841 202.594601 
L 439.916304 202.171913 
L 441.957768 198.371676 
L 443.999231 199.34077 
L 446.040694 199.017737 
L 448.082158 198.87656 
L 450.123621 197.072388 
L 452.165085 197.933377 
L 454.206548 196.077226 
L 456.248011 194.30543 
L 458.289475 191.505177 
L 460.330938 190.619411 
L 462.372402 190.03717 
L 464.413865 188.090731 
L 466.455328 188.396466 
L 468.496792 187.454778 
L 470.538255 185.728493 
L 472.579719 185.814357 
L 474.621182 183.855956 
L 476.662646 185.519447 
L 478.704109 184.16504 
L 480.745572 184.254003 
L 482.787036 181.822157 
L 484.828499 178.491126 
L 486.869963 181.365117 
L 488.911426 181.2945 
L 490.952889 180.22818 
L 492.994353 179.122496 
L 495.035816 176.811542 
L 497.07728 176.308236 
L 499.118743 175.050516 
L 501.160207 175.268247 
L 503.20167 174.808851 
L 505.243133 172.608032 
L 507.284597 169.475465 
L 509.32606 173.596505 
L 511.367524 172.64507 
L 513.408987 169.991412 
L 515.45045 171.720933 
L 517.491914 166.958239 
L 519.533377 167.572311 
L 521.574841 167.908908 
L 523.616304 164.695666 
L 525.657768 170.25794 
L 527.699231 164.758594 
L 529.740694 161.989875 
L 531.782158 165.655093 
L 533.823621 166.69311 
L 535.865085 164.991594 
L 537.906548 166.46753 
L 539.948011 164.001622 
L 541.989475 169.039716 
L 544.030938 166.6224 
L 546.072402 167.748169 
L 548.113865 164.486445 
L 550.155328 161.582983 
L 552.196792 165.559475 
L 554.238255 172.59205 
L 556.279719 164.863308 
L 558.321182 165.438253 
L 560.362646 162.637394 
L 562.404109 164.158148 
L 564.445572 163.901801 
L 566.487036 162.217152 
L 568.528499 161.663726 
L 570.569963 165.144107 
L 572.611426 163.509238 
L 574.652889 166.687327 
L 576.694353 167.365274 
L 578.735816 158.545495 
L 580.77728 162.318427 
L 582.818743 162.716857 
L 584.860207 163.417944 
L 586.90167 164.039385 
L 588.943133 169.815152 
L 590.984597 172.148961 
L 593.02606 171.936148 
L 595.067524 178.262553 
L 597.108987 188.711886 
L 599.15045 176.323969 
L 601.191914 176.198185 
L 603.233377 176.470291 
L 605.274841 180.604721 
L 607.316304 181.55258 
L 609.357768 181.524382 
L 611.399231 190.496433 
L 613.440694 193.801941 
L 615.482158 183.597923 
L 617.523621 192.831341 
L 619.565085 188.277932 
L 621.606548 185.453124 
L 623.648011 196.692674 
L 625.689475 194.475523 
L 627.730938 201.753119 
L 629.772402 199.579995 
L 631.813865 194.723923 
L 633.855328 199.321799 
L 635.896792 199.391162 
L 637.938255 203.923236 
L 639.979719 201.195634 
L 642.021182 208.635393 
L 644.062646 203.427596 
L 646.104109 207.395448 
L 648.145572 206.691599 
L 650.187036 211.047696 
L 652.228499 204.224052 
L 654.269963 211.682046 
L 656.311426 211.344073 
L 658.352889 216.458917 
L 660.394353 219.190314 
L 662.435816 219.273117 
L 664.47728 218.045624 
L 666.518743 221.354365 
L 668.560207 223.836645 
L 670.60167 221.735623 
L 672.643133 220.980872 
L 674.684597 223.882389 
L 676.72606 226.516576 
L 678.767524 222.078685 
L 680.808987 219.527344 
L 682.85045 229.81414 
L 684.891914 234.483264 
L 686.933377 224.014182 
L 688.974841 227.119121 
L 691.016304 228.681532 
L 693.057768 229.444114 
L 695.099231 234.709871 
L 697.140694 234.016333 
L 699.182158 231.856512 
L 701.223621 234.120993 
L 703.265085 234.708333 
L 705.306548 229.021634 
L 707.348011 231.840667 
L 709.389475 230.039302 
L 711.430938 237.809229 
L 713.472402 247.377994 
L 715.513865 245.919813 
L 717.555328 238.209592 
L 719.596792 237.321027 
L 721.638255 238.308742 
L 723.679719 238.600274 
L 725.721182 245.670871 
L 727.762646 236.5188 
L 729.804109 246.025635 
L 731.845572 253.642911 
L 733.887036 247.139259 
L 735.928499 256.94905 
L 737.969963 250.677374 
L 740.011426 255.982888 
L 742.052889 252.352338 
L 744.094353 254.927946 
L 746.135816 260.170988 
L 748.17728 259.738412 
L 750.218743 261.29505 
L 752.260207 261.660134 
L 754.30167 262.172561 
L 756.343133 249.20626 
L 758.384597 265.870331 
L 760.42606 272.708809 
L 762.467524 266.039891 
L 764.508987 272.086027 
L 766.55045 273.426367 
L 768.591914 269.980105 
L 770.633377 276.843085 
L 772.674841 281.485979 
L 774.716304 278.828446 
L 776.757768 280.666966 
L 778.799231 281.748926 
L 780.840694 283.462905 
L 782.882158 288.739456 
L 784.923621 278.249948 
L 786.965085 291.564651 
L 789.006548 292.053684 
L 791.048011 292.780018 
L 793.089475 284.750372 
L 795.130938 294.884123 
L 797.172402 301.699326 
L 799.213865 295.16066 
L 801.255328 296.15078 
L 803.296792 305.681197 
L 805.338255 289.735631 
L 807.379719 305.10245 
L 809.421182 295.907505 
L 811.462646 309.434625 
L 813.504109 303.577403 
L 815.545572 309.654558 
L 817.587036 311.823846 
L 819.628499 314.694632 
L 821.669963 315.815688 
L 823.711426 312.653254 
L 825.752889 313.158751 
L 827.794353 315.357032 
L 829.835816 321.772668 
L 831.87728 321.428301 
L 833.918743 321.70351 
L 835.960207 326.85957 
L 838.00167 327.714739 
L 840.043133 324.053229 
L 842.084597 324.732383 
L 844.12606 338.601483 
L 846.167524 341.044773 
L 848.208987 346.072493 
L 850.25045 336.04847 
L 852.291914 323.188943 
L 854.333377 339.042254 
L 856.374841 332.914438 
L 858.416304 340.289782 
L 860.457768 350.257866 
L 862.499231 338.5618 
L 864.540694 355.613338 
L 866.582158 343.059907 
L 868.623621 343.415852 
L 870.665085 345.585021 
L 872.706548 356.137065 
L 874.748011 355.946065 
L 876.789475 354.774083 
L 878.830938 345.390872 
L 880.872402 351.869127 
L 882.913865 356.936041 
L 884.955328 353.335341 
L 886.996792 362.108012 
L 889.038255 356.68038 
L 891.079719 362.696755 
L 893.121182 371.848947 
L 895.162646 371.475358 
L 897.204109 364.127158 
L 899.245572 365.22027 
L 901.287036 364.603321 
L 903.328499 369.265251 
L 905.369963 370.072366 
L 907.411426 357.511883 
L 909.452889 368.960311 
L 911.494353 326.508551 
L 913.535816 370.455461 
L 915.57728 375.562199 
L 917.618743 367.23117 
L 919.660207 358.483761 
L 921.70167 377.64 
L 923.743133 370.166599 
L 925.784597 356.538928 
L 927.82606 366.449001 
L 929.867524 367.497873 
L 931.908987 364.339556 
L 933.95045 373.699099 
L 935.991914 368.005813 
L 938.033377 372.279036 
L 940.074841 375.602439 
L 940.074841 332.616415 
L 940.074841 332.616415 
L 938.033377 337.431768 
L 935.991914 334.480637 
L 933.95045 336.793087 
L 931.908987 332.811918 
L 929.867524 334.326576 
L 927.82606 332.449205 
L 925.784597 333.263216 
L 923.743133 337.540722 
L 921.70167 338.025415 
L 919.660207 334.703996 
L 917.618743 335.265103 
L 915.57728 339.912369 
L 913.535816 336.482753 
L 911.494353 306.794617 
L 909.452889 337.430002 
L 907.411426 335.403398 
L 905.369963 337.851766 
L 903.328499 337.80308 
L 901.287036 336.571736 
L 899.245572 337.931481 
L 897.204109 337.637836 
L 895.162646 339.686807 
L 893.121182 339.954552 
L 891.079719 338.153182 
L 889.038255 336.5057 
L 886.996792 337.280992 
L 884.955328 334.246595 
L 882.913865 335.105954 
L 880.872402 334.282121 
L 878.830938 332.443319 
L 876.789475 335.676862 
L 874.748011 335.98183 
L 872.706548 337.039205 
L 870.665085 332.310177 
L 868.623621 332.426872 
L 866.582158 332.75431 
L 864.540694 336.30434 
L 862.499231 330.884963 
L 860.457768 334.715385 
L 858.416304 331.242469 
L 856.374841 328.966727 
L 854.333377 330.90773 
L 852.291914 311.464691 
L 850.25045 329.567987 
L 848.208987 333.626743 
L 846.167524 331.902966 
L 844.12606 330.698305 
L 842.084597 316.367592 
L 840.043133 316.970469 
L 838.00167 324.135351 
L 835.960207 323.549459 
L 833.918743 311.95594 
L 831.87728 312.488595 
L 829.835816 311.335607 
L 827.794353 299.363349 
L 825.752889 289.018729 
L 823.711426 286.688851 
L 821.669963 295.68775 
L 819.628499 293.026263 
L 817.587036 287.6856 
L 815.545572 282.192335 
L 813.504109 264.468398 
L 811.462646 282.127748 
L 809.421182 236.475035 
L 807.379719 267.384104 
L 805.338255 223.93294 
L 803.296792 271.060243 
L 801.255328 245.056263 
L 799.213865 244.59745 
L 797.172402 258.057004 
L 795.130938 242.294997 
L 793.089475 213.489159 
L 791.048011 234.654679 
L 789.006548 234.26453 
L 786.965085 233.433852 
L 784.923621 199.812915 
L 782.882158 216.565954 
L 780.840694 212.610072 
L 778.799231 210.3244 
L 776.757768 206.664651 
L 774.716304 199.676478 
L 772.674841 206.634112 
L 770.633377 194.243139 
L 768.591914 178.767024 
L 766.55045 191.626774 
L 764.508987 181.467 
L 762.467524 172.413098 
L 760.42606 187.24895 
L 758.384597 171.151174 
L 756.343133 129.761635 
L 754.30167 159.992371 
L 752.260207 158.803758 
L 750.218743 158.886181 
L 748.17728 155.208473 
L 746.135816 155.372732 
L 744.094353 144.074006 
L 742.052889 139.416266 
L 740.011426 148.098023 
L 737.969963 131.682645 
L 735.928499 148.434052 
L 733.887036 125.634105 
L 731.845572 138.686061 
L 729.804109 123.480601 
L 727.762646 104.635874 
L 725.721182 121.826772 
L 723.679719 105.317744 
L 721.638255 106.392006 
L 719.596792 105.598825 
L 717.555328 107.129575 
L 715.513865 122.625594 
L 713.472402 126.260226 
L 711.430938 107.489262 
L 709.389475 88.242006 
L 707.348011 93.491268 
L 705.306548 89.51473 
L 703.265085 101.420642 
L 701.223621 100.054666 
L 699.182158 95.09146 
L 697.140694 101.214658 
L 695.099231 100.589223 
L 693.057768 90.704459 
L 691.016304 91.736772 
L 688.974841 87.819469 
L 686.933377 83.02837 
L 684.891914 104.898882 
L 682.85045 92.371186 
L 680.808987 75.254065 
L 678.767524 83.241283 
L 676.72606 90.366015 
L 674.684597 85.414121 
L 672.643133 81.568975 
L 670.60167 84.309101 
L 668.560207 91.844427 
L 666.518743 83.372361 
L 664.47728 80.166777 
L 662.435816 83.424365 
L 660.394353 78.059823 
L 658.352889 79.591652 
L 656.311426 68.938212 
L 654.269963 72.612545 
L 652.228499 59.646494 
L 650.187036 70.550319 
L 648.145572 65.212988 
L 646.104109 68.154818 
L 644.062646 64.511175 
L 642.021182 71.132238 
L 639.979719 59.504147 
L 637.938255 66.630872 
L 635.896792 59.274928 
L 633.855328 60.592156 
L 631.813865 54.824711 
L 629.772402 57.774798 
L 627.730938 65.921486 
L 625.689475 57.967001 
L 623.648011 59.880755 
L 621.606548 44.271936 
L 619.565085 51.48186 
L 617.523621 55.151786 
L 615.482158 43.149248 
L 613.440694 56.592463 
L 611.399231 57.673562 
L 609.357768 42.493164 
L 607.316304 42.810729 
L 605.274841 41.789651 
L 603.233377 36.356839 
L 601.191914 40.194684 
L 599.15045 38.874563 
L 597.108987 56.827194 
L 595.067524 44.53153 
L 593.02606 35.465432 
L 590.984597 35.75832 
L 588.943133 33.131874 
L 586.90167 27.669046 
L 584.860207 29.679312 
L 582.818743 26.007072 
L 580.77728 30.212358 
L 578.735816 24.84 
L 576.694353 35.092952 
L 574.652889 36.471593 
L 572.611426 34.109461 
L 570.569963 36.379966 
L 568.528499 32.451874 
L 566.487036 35.466696 
L 564.445572 37.198815 
L 562.404109 41.966297 
L 560.362646 38.047801 
L 558.321182 43.384338 
L 556.279719 42.244056 
L 554.238255 52.256336 
L 552.196792 45.389625 
L 550.155328 41.697005 
L 548.113865 45.941024 
L 546.072402 47.826819 
L 544.030938 47.908703 
L 541.989475 53.683181 
L 539.948011 48.556112 
L 537.906548 52.413167 
L 535.865085 50.447071 
L 533.823621 51.306981 
L 531.782158 49.534969 
L 529.740694 46.977681 
L 527.699231 51.592669 
L 525.657768 57.764623 
L 523.616304 51.293864 
L 521.574841 54.862866 
L 519.533377 53.179433 
L 517.491914 55.179555 
L 515.45045 59.926219 
L 513.408987 58.188547 
L 511.367524 62.017005 
L 509.32606 62.955429 
L 507.284597 58.432644 
L 505.243133 60.93324 
L 503.20167 63.729509 
L 501.160207 64.666125 
L 499.118743 64.431129 
L 497.07728 66.376499 
L 495.035816 65.926646 
L 492.994353 68.864886 
L 490.952889 69.585923 
L 488.911426 70.142708 
L 486.869963 70.693604 
L 484.828499 65.087487 
L 482.787036 70.979633 
L 480.745572 73.243792 
L 478.704109 72.405182 
L 476.662646 72.437409 
L 474.621182 72.307577 
L 472.579719 73.896666 
L 470.538255 73.136007 
L 468.496792 75.599743 
L 466.455328 76.331799 
L 464.413865 75.49571 
L 462.372402 76.256517 
L 460.330938 77.353936 
L 458.289475 78.491949 
L 456.248011 82.867122 
L 454.206548 83.712619 
L 452.165085 85.699519 
L 450.123621 84.307639 
L 448.082158 86.202353 
L 446.040694 86.142142 
L 443.999231 86.530604 
L 441.957768 83.896175 
L 439.916304 90.125794 
L 437.874841 90.404418 
L 435.833377 90.541275 
L 433.791914 94.15738 
L 431.75045 93.581886 
L 429.708987 94.904808 
L 427.667524 92.611795 
L 425.62606 97.688617 
L 423.584597 95.781376 
L 421.543133 100.66279 
L 419.50167 104.039389 
L 417.460207 104.785079 
L 415.418743 109.103898 
L 413.37728 112.410419 
L 411.335816 111.953505 
L 409.294353 113.858032 
L 407.252889 114.169687 
L 405.211426 116.773436 
L 403.169963 115.610892 
L 401.128499 119.371889 
L 399.087036 122.108668 
L 397.045572 123.609417 
L 395.004109 124.384193 
L 392.962646 124.944403 
L 390.921182 129.065524 
L 388.879719 129.826877 
L 386.838255 132.279862 
L 384.796792 136.030528 
L 382.755328 137.058154 
L 380.713865 133.219808 
L 378.672402 134.078508 
L 376.630938 138.24938 
L 374.589475 138.537885 
L 372.548011 141.348297 
L 370.506548 143.325611 
L 368.465085 141.942276 
L 366.423621 143.085374 
L 364.382158 144.575408 
L 362.340694 147.409046 
L 360.299231 143.869273 
L 358.257768 145.151985 
L 356.216304 144.992309 
L 354.174841 149.122018 
L 352.133377 148.429062 
L 350.091914 145.886565 
L 348.05045 148.015722 
L 346.008987 150.217123 
L 343.967524 143.885798 
L 341.92606 149.432282 
L 339.884597 142.028616 
L 337.843133 141.593569 
L 335.80167 140.028699 
L 333.760207 141.655438 
L 331.718743 142.06947 
L 329.67728 141.104071 
L 327.635816 137.557758 
L 325.594353 140.180802 
L 323.552889 131.985287 
L 321.511426 123.911951 
L 319.469963 125.916195 
L 317.428499 130.19291 
L 315.387036 119.393611 
L 313.345572 119.755632 
L 311.304109 117.284481 
L 309.262646 116.453909 
L 307.221182 100.846549 
L 305.179719 99.515548 
L 303.138255 93.77002 
L 301.096792 81.519716 
L 299.055328 72.777019 
L 297.013865 82.273656 
L 294.972402 77.817775 
L 292.930938 70.144332 
L 290.889475 66.753797 
L 288.848011 61.147987 
L 286.806548 53.873229 
L 284.765085 57.517263 
L 282.723621 43.750711 
L 280.682158 38.721504 
L 278.640694 35.315376 
L 276.599231 33.226637 
L 274.557768 34.74444 
L 272.516304 31.339825 
L 270.474841 33.599406 
L 268.433377 38.402014 
L 266.391914 33.360178 
L 264.35045 32.582524 
L 262.308987 39.087997 
L 260.267524 40.68764 
L 258.22606 39.385264 
L 256.184597 50.931662 
L 254.143133 44.063558 
L 252.10167 46.489386 
L 250.060207 56.432273 
L 248.018743 53.870768 
L 245.97728 57.06091 
L 243.935816 60.074628 
L 241.894353 63.331027 
L 239.852889 66.946463 
L 237.811426 70.755596 
L 235.769963 74.445962 
L 233.728499 77.583074 
L 231.687036 81.916045 
L 229.645572 83.044315 
L 227.604109 90.596555 
L 225.562646 90.912192 
L 223.521182 94.808162 
L 221.479719 99.13419 
L 219.438255 102.440787 
L 217.396792 106.543426 
L 215.355328 109.775776 
L 213.313865 114.441817 
L 211.272402 117.291606 
L 209.230938 120.753639 
L 207.189475 124.799005 
L 205.148011 128.921018 
L 203.106548 131.468865 
L 201.065085 135.449548 
L 199.023621 138.191599 
L 196.982158 142.278931 
L 194.940694 145.465607 
L 192.899231 148.634119 
L 190.857768 152.131801 
L 188.816304 155.242071 
L 186.774841 157.898029 
L 184.733377 161.314468 
L 182.691914 163.090361 
L 180.65045 167.287401 
L 178.608987 170.146932 
L 176.567524 172.67572 
L 174.52606 175.747198 
L 172.484597 177.655606 
L 170.443133 180.386599 
L 168.40167 183.185765 
L 166.360207 186.260556 
L 164.318743 188.628228 
L 162.27728 190.959063 
L 160.235816 193.494971 
L 158.194353 195.936775 
L 156.152889 198.560809 
L 154.111426 200.667227 
L 152.069963 202.954227 
L 150.028499 204.831991 
L 147.987036 207.417169 
L 145.945572 209.296596 
L 143.904109 211.420519 
L 141.862646 214.054335 
L 139.821182 215.891551 
L 137.779719 216.461544 
L 135.738255 218.637999 
L 133.696792 219.7741 
L 131.655328 221.874759 
L 129.613865 224.31173 
L 127.572402 225.587375 
L 125.530938 226.785845 
L 123.489475 227.061318 
L 121.448011 228.31918 
L 119.406548 229.087512 
L 117.365085 229.914044 
L 115.323621 231.672482 
L 113.282158 232.715241 
L 111.240694 234.194467 
L 109.199231 233.424548 
L 107.157768 234.262725 
L 105.116304 233.035314 
L 103.074841 235.07593 
L 101.033377 235.429889 
L 98.991914 236.939984 
L 96.95045 233.901985 
L 94.908987 237.715521 
L 92.867524 237.48119 
L 90.82606 235.403963 
L 88.784597 234.936767 
L 86.743133 236.950295 
L 84.70167 240.372579 
L 82.660207 239.15233 
L 80.618743 239.165924 
L 78.57728 235.884018 
L 76.535816 235.932972 
L 74.494353 236.990249 
L 72.452889 239.134623 
L 70.411426 238.548658 
L 68.369963 238.208159 
L 66.328499 238.618474 
L 64.287036 239.962475 
L 62.245572 239.750616 
L 60.204109 240.629001 
L 58.162646 242.035043 
L 56.121182 241.172677 
L 54.079719 243.172131 
L 52.038255 243.537221 
L 49.996792 243.835619 
L 47.955328 245.117899 
L 45.913865 245.484843 
L 43.872402 246.895134 
L 41.830938 248.427705 
L 39.789475 248.504877 
L 37.748011 247.961601 
L 35.706548 247.585892 
L 33.665085 250.761078 
L 31.623621 250.269852 
L 29.582158 252.417881 
L 27.540694 252.50453 
L 25.499231 251.747311 
L 23.457768 253.872078 
L 21.416304 251.988645 
L 19.374841 252.135088 
L 17.333377 254.819876 
L 15.291914 252.971115 
L 13.25045 255.510542 
L 11.208987 256.358632 
L 9.167524 254.308256 
L 7.12606 247.676987 
L 5.084597 252.002933 
L 3.043133 250.011703 
L 1.00167 240.128762 
L -1.039793 248.657535 
L -3.081257 250.458176 
L -5.12272 241.331376 
L -7.164184 238.881911 
L -9.205647 243.879535 
L -11.247111 233.990584 
L -13.288574 217.096046 
L -15.330037 235.949003 
L -17.371501 243.632354 
L -19.412964 247.494736 
L -21.454428 223.869193 
L -23.495891 224.983699 
L -25.537354 213.411937 
L -27.578818 204.290282 
L -29.620281 223.128425 
L -31.661745 215.271711 
L -33.703208 198.916671 
L -35.744672 187.369935 
L -37.786135 188.302937 
L -39.827598 190.565957 
L -41.869062 188.286968 
L -43.910525 187.037479 
L -45.951989 194.042515 
L -47.993452 193.452462 
L -50.034915 189.284428 
L -52.076379 192.233614 
L -54.117842 190.655282 
L -56.159306 190.211572 
L -58.200769 190.671735 
L -60.242232 193.576738 
L -62.283696 195.428409 
L -64.325159 196.586676 
L -66.366623 199.150276 
L -68.408086 200.487286 
L -70.44955 202.601607 
L -72.491013 205.771796 
L -74.532476 208.370783 
L -76.57394 210.176934 
L -78.615403 212.162751 
L -80.656867 214.681523 
L -82.69833 216.357835 
L -84.739793 218.771217 
L -86.781257 221.6503 
L -88.82272 223.435848 
L -90.864184 224.730973 
L -92.905647 226.561026 
L -94.947111 228.441823 
L -96.988574 230.147762 
L -99.030037 231.780295 
L -101.071501 233.357054 
L -103.112964 235.449777 
L -105.154428 236.615822 
L -107.195891 238.173186 
L -109.237354 239.807867 
L -111.278818 241.221206 
L -113.320281 242.602373 
L -115.361745 243.769617 
L -117.403208 245.031409 
L -119.444672 246.645731 
L -121.486135 247.816556 
L -123.527598 249.158542 
L -125.569062 250.268214 
L -127.610525 251.483349 
L -129.651989 252.728027 
L -131.693452 253.981831 
L -133.734915 255.038749 
L -135.776379 256.271389 
L -137.817842 257.355763 
L -139.859306 258.513548 
L -141.900769 259.598618 
L -143.942232 260.703042 
L -145.983696 261.745429 
L -148.025159 262.844206 
L -150.066623 263.997072 
L -152.108086 264.896884 
L -154.14955 265.984373 
L -156.191013 266.93917 
L -158.232476 268.021341 
L -160.27394 268.848749 
L -162.315403 269.858061 
L -164.356867 270.827006 
L -166.39833 271.749169 
L -168.439793 272.681374 
L -170.481257 273.531813 
L -172.52272 274.518868 
L -174.564184 275.409747 
L -176.605647 276.148554 
L -178.647111 277.021641 
L -180.688574 277.89411 
L -182.730037 278.763195 
L -184.771501 279.60365 
L -186.812964 280.390241 
L -188.854428 281.254175 
L -190.895891 282.102981 
L -192.937354 282.957236 
L -194.978818 283.81 
L -197.020281 284.686283 
L -199.061745 285.597105 
L -201.103208 286.38866 
L -203.144672 287.290545 
L -205.186135 288.177478 
L -207.227598 289.032082 
L -209.269062 289.913776 
L -211.310525 290.813911 
L -213.351989 291.689962 
L -215.393452 292.608267 
L -217.434915 293.451439 
L -219.476379 294.311866 
L -221.517842 295.219711 
L -223.559306 296.099784 
L -225.600769 296.939097 
L -227.642232 297.825693 
L -229.683696 298.641586 
L -231.725159 299.511383 
L -233.766623 300.435629 
L -235.808086 301.239045 
L -237.84955 302.132408 
L -239.891013 302.983055 
L -241.932476 303.873472 
L -243.97394 304.687054 
L -246.015403 305.628082 
L -248.056867 306.420456 
L -250.09833 307.301614 
L -252.139793 308.165924 
L -254.181257 309.050893 
L -256.22272 309.895718 
L -258.264184 310.755119 
L -260.305647 311.617697 
L -262.347111 312.506729 
L -264.388574 313.337182 
L -266.430037 314.132174 
L -268.471501 314.938536 
L -270.512964 315.743774 
L -272.554428 316.515546 
L -274.595891 317.289386 
L -276.637354 318.053158 
L -278.678818 318.783991 
L -280.720281 319.520823 
L -282.761745 320.252288 
L -284.803208 320.922041 
L -286.844672 321.600169 
L -288.886135 322.302881 
L -290.927598 322.96975 
L -292.969062 323.570519 
L -295.010525 324.224449 
L -297.051989 324.824665 
L -299.093452 325.379808 
L -301.134915 325.932961 
L -303.176379 326.451307 
L -305.217842 327.004263 
L -307.259306 327.467061 
L -309.300769 327.951503 
L -311.342232 328.408034 
L -313.383696 328.832193 
L -315.425159 329.220393 
L -317.466623 329.574871 
L -319.508086 329.925693 
L -321.54955 330.27229 
L -323.591013 330.563265 
L -325.632476 330.883671 
L -327.67394 331.158178 
L -329.715403 331.397399 
L -331.756867 331.67245 
L -333.79833 331.915321 
L -335.839793 332.119602 
L -337.881257 332.336428 
L -339.92272 332.547143 
L -341.964184 332.734304 
L -344.005647 332.921487 
L -346.047111 333.079151 
L -348.088574 333.265225 
L -350.130037 333.41657 
L -352.171501 333.574308 
L -354.212964 333.738563 
L -356.254428 333.875308 
L -358.295891 334.018824 
L -360.337354 334.20118 
L -362.378818 334.334202 
L -364.420281 334.493395 
L -366.461745 334.622102 
L -368.503208 334.78766 
L -370.544672 334.920308 
L -372.586135 335.058501 
L -374.627598 335.182116 
L -376.669062 335.293633 
L -378.710525 335.418918 
L -380.751989 335.553357 
L -382.793452 335.685068 
L -384.834915 335.799247 
L -386.876379 335.894435 
L -388.917842 336.024007 
L -390.959306 336.133374 
L -393.000769 336.262154 
z
" clip-path="url(#p4066d866a2)" style="fill: #008000; fill-opacity: 0.3; stroke: #008000; stroke-opacity: 0.3"/>
   </g>
   <g id="matplotlib.axis_1">
    <g id="xtick_1">
     <g id="line2d_1">
      <defs>
       <path id="m1358166826" d="M 0 0 
L 0 3.5 
" style="stroke: #000000; stroke-width: 0.8"/>
      </defs>
      <g>
       <use xlink:href="#m1358166826" x="103.074841" y="395.28" style="stroke: #000000; stroke-width: 0.8"/>
      </g>
     </g>
     <g id="text_1">
      <!-- 2022-03-01 -->
      <g transform="translate(17.945813 495.213718) rotate(-45) scale(0.2 -0.2)">
       <defs>
        <path id="DejaVuSans-32" d="M 1228 531 
L 3431 531 
L 3431 0 
L 469 0 
L 469 531 
Q 828 903 1448 1529 
Q 2069 2156 2228 2338 
Q 2531 2678 2651 2914 
Q 2772 3150 2772 3378 
Q 2772 3750 2511 3984 
Q 2250 4219 1831 4219 
Q 1534 4219 1204 4116 
Q 875 4013 500 3803 
L 500 4441 
Q 881 4594 1212 4672 
Q 1544 4750 1819 4750 
Q 2544 4750 2975 4387 
Q 3406 4025 3406 3419 
Q 3406 3131 3298 2873 
Q 3191 2616 2906 2266 
Q 2828 2175 2409 1742 
Q 1991 1309 1228 531 
z
" transform="scale(0.015625)"/>
        <path id="DejaVuSans-30" d="M 2034 4250 
Q 1547 4250 1301 3770 
Q 1056 3291 1056 2328 
Q 1056 1369 1301 889 
Q 1547 409 2034 409 
Q 2525 409 2770 889 
Q 3016 1369 3016 2328 
Q 3016 3291 2770 3770 
Q 2525 4250 2034 4250 
z
M 2034 4750 
Q 2819 4750 3233 4129 
Q 3647 3509 3647 2328 
Q 3647 1150 3233 529 
Q 2819 -91 2034 -91 
Q 1250 -91 836 529 
Q 422 1150 422 2328 
Q 422 3509 836 4129 
Q 1250 4750 2034 4750 
z
" transform="scale(0.015625)"/>
        <path id="DejaVuSans-2d" d="M 313 2009 
L 1997 2009 
L 1997 1497 
L 313 1497 
L 313 2009 
z
" transform="scale(0.015625)"/>
        <path id="DejaVuSans-33" d="M 2597 2516 
Q 3050 2419 3304 2112 
Q 3559 1806 3559 1356 
Q 3559 666 3084 287 
Q 2609 -91 1734 -91 
Q 1441 -91 1130 -33 
Q 819 25 488 141 
L 488 750 
Q 750 597 1062 519 
Q 1375 441 1716 441 
Q 2309 441 2620 675 
Q 2931 909 2931 1356 
Q 2931 1769 2642 2001 
Q 2353 2234 1838 2234 
L 1294 2234 
L 1294 2753 
L 1863 2753 
Q 2328 2753 2575 2939 
Q 2822 3125 2822 3475 
Q 2822 3834 2567 4026 
Q 2313 4219 1838 4219 
Q 1578 4219 1281 4162 
Q 984 4106 628 3988 
L 628 4550 
Q 988 4650 1302 4700 
Q 1616 4750 1894 4750 
Q 2613 4750 3031 4423 
Q 3450 4097 3450 3541 
Q 3450 3153 3228 2886 
Q 3006 2619 2597 2516 
z
" transform="scale(0.015625)"/>
        <path id="DejaVuSans-31" d="M 794 531 
L 1825 531 
L 1825 4091 
L 703 3866 
L 703 4441 
L 1819 4666 
L 2450 4666 
L 2450 531 
L 3481 531 
L 3481 0 
L 794 0 
L 794 531 
z
" transform="scale(0.015625)"/>
       </defs>
       <use xlink:href="#DejaVuSans-32"/>
       <use xlink:href="#DejaVuSans-30" x="63.623047"/>
       <use xlink:href="#DejaVuSans-32" x="127.246094"/>
       <use xlink:href="#DejaVuSans-32" x="190.869141"/>
       <use xlink:href="#DejaVuSans-2d" x="254.492188"/>
       <use xlink:href="#DejaVuSans-30" x="290.576172"/>
       <use xlink:href="#DejaVuSans-33" x="354.199219"/>
       <use xlink:href="#DejaVuSans-2d" x="417.822266"/>
       <use xlink:href="#DejaVuSans-30" x="453.90625"/>
       <use xlink:href="#DejaVuSans-31" x="517.529297"/>
      </g>
     </g>
    </g>
    <g id="xtick_2">
     <g id="line2d_2">
      <g>
       <use xlink:href="#m1358166826" x="160.235816" y="395.28" style="stroke: #000000; stroke-width: 0.8"/>
      </g>
     </g>
     <g id="text_2">
      <!-- 2022-03-29 -->
      <g transform="translate(75.106789 495.213718) rotate(-45) scale(0.2 -0.2)">
       <defs>
        <path id="DejaVuSans-39" d="M 703 97 
L 703 672 
Q 941 559 1184 500 
Q 1428 441 1663 441 
Q 2288 441 2617 861 
Q 2947 1281 2994 2138 
Q 2813 1869 2534 1725 
Q 2256 1581 1919 1581 
Q 1219 1581 811 2004 
Q 403 2428 403 3163 
Q 403 3881 828 4315 
Q 1253 4750 1959 4750 
Q 2769 4750 3195 4129 
Q 3622 3509 3622 2328 
Q 3622 1225 3098 567 
Q 2575 -91 1691 -91 
Q 1453 -91 1209 -44 
Q 966 3 703 97 
z
M 1959 2075 
Q 2384 2075 2632 2365 
Q 2881 2656 2881 3163 
Q 2881 3666 2632 3958 
Q 2384 4250 1959 4250 
Q 1534 4250 1286 3958 
Q 1038 3666 1038 3163 
Q 1038 2656 1286 2365 
Q 1534 2075 1959 2075 
z
" transform="scale(0.015625)"/>
       </defs>
       <use xlink:href="#DejaVuSans-32"/>
       <use xlink:href="#DejaVuSans-30" x="63.623047"/>
       <use xlink:href="#DejaVuSans-32" x="127.246094"/>
       <use xlink:href="#DejaVuSans-32" x="190.869141"/>
       <use xlink:href="#DejaVuSans-2d" x="254.492188"/>
       <use xlink:href="#DejaVuSans-30" x="290.576172"/>
       <use xlink:href="#DejaVuSans-33" x="354.199219"/>
       <use xlink:href="#DejaVuSans-2d" x="417.822266"/>
       <use xlink:href="#DejaVuSans-32" x="453.90625"/>
       <use xlink:href="#DejaVuSans-39" x="517.529297"/>
      </g>
     </g>
    </g>
    <g id="xtick_3">
     <g id="line2d_3">
      <g>
       <use xlink:href="#m1358166826" x="217.396792" y="395.28" style="stroke: #000000; stroke-width: 0.8"/>
      </g>
     </g>
     <g id="text_3">
      <!-- 2022-04-26 -->
      <g transform="translate(132.267765 495.213718) rotate(-45) scale(0.2 -0.2)">
       <defs>
        <path id="DejaVuSans-34" d="M 2419 4116 
L 825 1625 
L 2419 1625 
L 2419 4116 
z
M 2253 4666 
L 3047 4666 
L 3047 1625 
L 3713 1625 
L 3713 1100 
L 3047 1100 
L 3047 0 
L 2419 0 
L 2419 1100 
L 313 1100 
L 313 1709 
L 2253 4666 
z
" transform="scale(0.015625)"/>
        <path id="DejaVuSans-36" d="M 2113 2584 
Q 1688 2584 1439 2293 
Q 1191 2003 1191 1497 
Q 1191 994 1439 701 
Q 1688 409 2113 409 
Q 2538 409 2786 701 
Q 3034 994 3034 1497 
Q 3034 2003 2786 2293 
Q 2538 2584 2113 2584 
z
M 3366 4563 
L 3366 3988 
Q 3128 4100 2886 4159 
Q 2644 4219 2406 4219 
Q 1781 4219 1451 3797 
Q 1122 3375 1075 2522 
Q 1259 2794 1537 2939 
Q 1816 3084 2150 3084 
Q 2853 3084 3261 2657 
Q 3669 2231 3669 1497 
Q 3669 778 3244 343 
Q 2819 -91 2113 -91 
Q 1303 -91 875 529 
Q 447 1150 447 2328 
Q 447 3434 972 4092 
Q 1497 4750 2381 4750 
Q 2619 4750 2861 4703 
Q 3103 4656 3366 4563 
z
" transform="scale(0.015625)"/>
       </defs>
       <use xlink:href="#DejaVuSans-32"/>
       <use xlink:href="#DejaVuSans-30" x="63.623047"/>
       <use xlink:href="#DejaVuSans-32" x="127.246094"/>
       <use xlink:href="#DejaVuSans-32" x="190.869141"/>
       <use xlink:href="#DejaVuSans-2d" x="254.492188"/>
       <use xlink:href="#DejaVuSans-30" x="290.576172"/>
       <use xlink:href="#DejaVuSans-34" x="354.199219"/>
       <use xlink:href="#DejaVuSans-2d" x="417.822266"/>
       <use xlink:href="#DejaVuSans-32" x="453.90625"/>
       <use xlink:href="#DejaVuSans-36" x="517.529297"/>
      </g>
     </g>
    </g>
    <g id="xtick_4">
     <g id="line2d_4">
      <g>
       <use xlink:href="#m1358166826" x="274.557768" y="395.28" style="stroke: #000000; stroke-width: 0.8"/>
      </g>
     </g>
     <g id="text_4">
      <!-- 2022-05-24 -->
      <g transform="translate(189.42874 495.213718) rotate(-45) scale(0.2 -0.2)">
       <defs>
        <path id="DejaVuSans-35" d="M 691 4666 
L 3169 4666 
L 3169 4134 
L 1269 4134 
L 1269 2991 
Q 1406 3038 1543 3061 
Q 1681 3084 1819 3084 
Q 2600 3084 3056 2656 
Q 3513 2228 3513 1497 
Q 3513 744 3044 326 
Q 2575 -91 1722 -91 
Q 1428 -91 1123 -41 
Q 819 9 494 109 
L 494 744 
Q 775 591 1075 516 
Q 1375 441 1709 441 
Q 2250 441 2565 725 
Q 2881 1009 2881 1497 
Q 2881 1984 2565 2268 
Q 2250 2553 1709 2553 
Q 1456 2553 1204 2497 
Q 953 2441 691 2322 
L 691 4666 
z
" transform="scale(0.015625)"/>
       </defs>
       <use xlink:href="#DejaVuSans-32"/>
       <use xlink:href="#DejaVuSans-30" x="63.623047"/>
       <use xlink:href="#DejaVuSans-32" x="127.246094"/>
       <use xlink:href="#DejaVuSans-32" x="190.869141"/>
       <use xlink:href="#DejaVuSans-2d" x="254.492188"/>
       <use xlink:href="#DejaVuSans-30" x="290.576172"/>
       <use xlink:href="#DejaVuSans-35" x="354.199219"/>
       <use xlink:href="#DejaVuSans-2d" x="417.822266"/>
       <use xlink:href="#DejaVuSans-32" x="453.90625"/>
       <use xlink:href="#DejaVuSans-34" x="517.529297"/>
      </g>
     </g>
    </g>
    <g id="xtick_5">
     <g id="line2d_5">
      <g>
       <use xlink:href="#m1358166826" x="331.718743" y="395.28" style="stroke: #000000; stroke-width: 0.8"/>
      </g>
     </g>
     <g id="text_5">
      <!-- 2022-06-21 -->
      <g transform="translate(246.589716 495.213718) rotate(-45) scale(0.2 -0.2)">
       <use xlink:href="#DejaVuSans-32"/>
       <use xlink:href="#DejaVuSans-30" x="63.623047"/>
       <use xlink:href="#DejaVuSans-32" x="127.246094"/>
       <use xlink:href="#DejaVuSans-32" x="190.869141"/>
       <use xlink:href="#DejaVuSans-2d" x="254.492188"/>
       <use xlink:href="#DejaVuSans-30" x="290.576172"/>
       <use xlink:href="#DejaVuSans-36" x="354.199219"/>
       <use xlink:href="#DejaVuSans-2d" x="417.822266"/>
       <use xlink:href="#DejaVuSans-32" x="453.90625"/>
       <use xlink:href="#DejaVuSans-31" x="517.529297"/>
      </g>
     </g>
    </g>
    <g id="xtick_6">
     <g id="line2d_6">
      <g>
       <use xlink:href="#m1358166826" x="388.879719" y="395.28" style="stroke: #000000; stroke-width: 0.8"/>
      </g>
     </g>
     <g id="text_6">
      <!-- 2022-07-19 -->
      <g transform="translate(303.750691 495.213718) rotate(-45) scale(0.2 -0.2)">
       <defs>
        <path id="DejaVuSans-37" d="M 525 4666 
L 3525 4666 
L 3525 4397 
L 1831 0 
L 1172 0 
L 2766 4134 
L 525 4134 
L 525 4666 
z
" transform="scale(0.015625)"/>
       </defs>
       <use xlink:href="#DejaVuSans-32"/>
       <use xlink:href="#DejaVuSans-30" x="63.623047"/>
       <use xlink:href="#DejaVuSans-32" x="127.246094"/>
       <use xlink:href="#DejaVuSans-32" x="190.869141"/>
       <use xlink:href="#DejaVuSans-2d" x="254.492188"/>
       <use xlink:href="#DejaVuSans-30" x="290.576172"/>
       <use xlink:href="#DejaVuSans-37" x="354.199219"/>
       <use xlink:href="#DejaVuSans-2d" x="417.822266"/>
       <use xlink:href="#DejaVuSans-31" x="453.90625"/>
       <use xlink:href="#DejaVuSans-39" x="517.529297"/>
      </g>
     </g>
    </g>
    <g id="xtick_7">
     <g id="line2d_7">
      <g>
       <use xlink:href="#m1358166826" x="446.040694" y="395.28" style="stroke: #000000; stroke-width: 0.8"/>
      </g>
     </g>
     <g id="text_7">
      <!-- 2022-08-16 -->
      <g transform="translate(360.911667 495.213718) rotate(-45) scale(0.2 -0.2)">
       <defs>
        <path id="DejaVuSans-38" d="M 2034 2216 
Q 1584 2216 1326 1975 
Q 1069 1734 1069 1313 
Q 1069 891 1326 650 
Q 1584 409 2034 409 
Q 2484 409 2743 651 
Q 3003 894 3003 1313 
Q 3003 1734 2745 1975 
Q 2488 2216 2034 2216 
z
M 1403 2484 
Q 997 2584 770 2862 
Q 544 3141 544 3541 
Q 544 4100 942 4425 
Q 1341 4750 2034 4750 
Q 2731 4750 3128 4425 
Q 3525 4100 3525 3541 
Q 3525 3141 3298 2862 
Q 3072 2584 2669 2484 
Q 3125 2378 3379 2068 
Q 3634 1759 3634 1313 
Q 3634 634 3220 271 
Q 2806 -91 2034 -91 
Q 1263 -91 848 271 
Q 434 634 434 1313 
Q 434 1759 690 2068 
Q 947 2378 1403 2484 
z
M 1172 3481 
Q 1172 3119 1398 2916 
Q 1625 2713 2034 2713 
Q 2441 2713 2670 2916 
Q 2900 3119 2900 3481 
Q 2900 3844 2670 4047 
Q 2441 4250 2034 4250 
Q 1625 4250 1398 4047 
Q 1172 3844 1172 3481 
z
" transform="scale(0.015625)"/>
       </defs>
       <use xlink:href="#DejaVuSans-32"/>
       <use xlink:href="#DejaVuSans-30" x="63.623047"/>
       <use xlink:href="#DejaVuSans-32" x="127.246094"/>
       <use xlink:href="#DejaVuSans-32" x="190.869141"/>
       <use xlink:href="#DejaVuSans-2d" x="254.492188"/>
       <use xlink:href="#DejaVuSans-30" x="290.576172"/>
       <use xlink:href="#DejaVuSans-38" x="354.199219"/>
       <use xlink:href="#DejaVuSans-2d" x="417.822266"/>
       <use xlink:href="#DejaVuSans-31" x="453.90625"/>
       <use xlink:href="#DejaVuSans-36" x="517.529297"/>
      </g>
     </g>
    </g>
    <g id="xtick_8">
     <g id="line2d_8">
      <g>
       <use xlink:href="#m1358166826" x="503.20167" y="395.28" style="stroke: #000000; stroke-width: 0.8"/>
      </g>
     </g>
     <g id="text_8">
      <!-- 2022-09-13 -->
      <g transform="translate(418.072643 495.213718) rotate(-45) scale(0.2 -0.2)">
       <use xlink:href="#DejaVuSans-32"/>
       <use xlink:href="#DejaVuSans-30" x="63.623047"/>
       <use xlink:href="#DejaVuSans-32" x="127.246094"/>
       <use xlink:href="#DejaVuSans-32" x="190.869141"/>
       <use xlink:href="#DejaVuSans-2d" x="254.492188"/>
       <use xlink:href="#DejaVuSans-30" x="290.576172"/>
       <use xlink:href="#DejaVuSans-39" x="354.199219"/>
       <use xlink:href="#DejaVuSans-2d" x="417.822266"/>
       <use xlink:href="#DejaVuSans-31" x="453.90625"/>
       <use xlink:href="#DejaVuSans-33" x="517.529297"/>
      </g>
     </g>
    </g>
    <g id="xtick_9">
     <g id="line2d_9">
      <g>
       <use xlink:href="#m1358166826" x="560.362646" y="395.28" style="stroke: #000000; stroke-width: 0.8"/>
      </g>
     </g>
     <g id="text_9">
      <!-- 2022-10-11 -->
      <g transform="translate(475.233618 495.213718) rotate(-45) scale(0.2 -0.2)">
       <use xlink:href="#DejaVuSans-32"/>
       <use xlink:href="#DejaVuSans-30" x="63.623047"/>
       <use xlink:href="#DejaVuSans-32" x="127.246094"/>
       <use xlink:href="#DejaVuSans-32" x="190.869141"/>
       <use xlink:href="#DejaVuSans-2d" x="254.492188"/>
       <use xlink:href="#DejaVuSans-31" x="290.576172"/>
       <use xlink:href="#DejaVuSans-30" x="354.199219"/>
       <use xlink:href="#DejaVuSans-2d" x="417.822266"/>
       <use xlink:href="#DejaVuSans-31" x="453.90625"/>
       <use xlink:href="#DejaVuSans-31" x="517.529297"/>
      </g>
     </g>
    </g>
    <g id="xtick_10">
     <g id="line2d_10">
      <g>
       <use xlink:href="#m1358166826" x="617.523621" y="395.28" style="stroke: #000000; stroke-width: 0.8"/>
      </g>
     </g>
     <g id="text_10">
      <!-- 2022-11-08 -->
      <g transform="translate(532.394594 495.213718) rotate(-45) scale(0.2 -0.2)">
       <use xlink:href="#DejaVuSans-32"/>
       <use xlink:href="#DejaVuSans-30" x="63.623047"/>
       <use xlink:href="#DejaVuSans-32" x="127.246094"/>
       <use xlink:href="#DejaVuSans-32" x="190.869141"/>
       <use xlink:href="#DejaVuSans-2d" x="254.492188"/>
       <use xlink:href="#DejaVuSans-31" x="290.576172"/>
       <use xlink:href="#DejaVuSans-31" x="354.199219"/>
       <use xlink:href="#DejaVuSans-2d" x="417.822266"/>
       <use xlink:href="#DejaVuSans-30" x="453.90625"/>
       <use xlink:href="#DejaVuSans-38" x="517.529297"/>
      </g>
     </g>
    </g>
    <g id="xtick_11">
     <g id="line2d_11">
      <g>
       <use xlink:href="#m1358166826" x="674.684597" y="395.28" style="stroke: #000000; stroke-width: 0.8"/>
      </g>
     </g>
     <g id="text_11">
      <!-- 2022-12-06 -->
      <g transform="translate(589.555569 495.213718) rotate(-45) scale(0.2 -0.2)">
       <use xlink:href="#DejaVuSans-32"/>
       <use xlink:href="#DejaVuSans-30" x="63.623047"/>
       <use xlink:href="#DejaVuSans-32" x="127.246094"/>
       <use xlink:href="#DejaVuSans-32" x="190.869141"/>
       <use xlink:href="#DejaVuSans-2d" x="254.492188"/>
       <use xlink:href="#DejaVuSans-31" x="290.576172"/>
       <use xlink:href="#DejaVuSans-32" x="354.199219"/>
       <use xlink:href="#DejaVuSans-2d" x="417.822266"/>
       <use xlink:href="#DejaVuSans-30" x="453.90625"/>
       <use xlink:href="#DejaVuSans-36" x="517.529297"/>
      </g>
     </g>
    </g>
    <g id="xtick_12">
     <g id="line2d_12">
      <g>
       <use xlink:href="#m1358166826" x="731.845572" y="395.28" style="stroke: #000000; stroke-width: 0.8"/>
      </g>
     </g>
     <g id="text_12">
      <!-- 2023-01-03 -->
      <g transform="translate(646.716545 495.213718) rotate(-45) scale(0.2 -0.2)">
       <use xlink:href="#DejaVuSans-32"/>
       <use xlink:href="#DejaVuSans-30" x="63.623047"/>
       <use xlink:href="#DejaVuSans-32" x="127.246094"/>
       <use xlink:href="#DejaVuSans-33" x="190.869141"/>
       <use xlink:href="#DejaVuSans-2d" x="254.492188"/>
       <use xlink:href="#DejaVuSans-30" x="290.576172"/>
       <use xlink:href="#DejaVuSans-31" x="354.199219"/>
       <use xlink:href="#DejaVuSans-2d" x="417.822266"/>
       <use xlink:href="#DejaVuSans-30" x="453.90625"/>
       <use xlink:href="#DejaVuSans-33" x="517.529297"/>
      </g>
     </g>
    </g>
    <g id="xtick_13">
     <g id="line2d_13">
      <g>
       <use xlink:href="#m1358166826" x="789.006548" y="395.28" style="stroke: #000000; stroke-width: 0.8"/>
      </g>
     </g>
     <g id="text_13">
      <!-- 2023-01-31 -->
      <g transform="translate(703.877521 495.213718) rotate(-45) scale(0.2 -0.2)">
       <use xlink:href="#DejaVuSans-32"/>
       <use xlink:href="#DejaVuSans-30" x="63.623047"/>
       <use xlink:href="#DejaVuSans-32" x="127.246094"/>
       <use xlink:href="#DejaVuSans-33" x="190.869141"/>
       <use xlink:href="#DejaVuSans-2d" x="254.492188"/>
       <use xlink:href="#DejaVuSans-30" x="290.576172"/>
       <use xlink:href="#DejaVuSans-31" x="354.199219"/>
       <use xlink:href="#DejaVuSans-2d" x="417.822266"/>
       <use xlink:href="#DejaVuSans-33" x="453.90625"/>
       <use xlink:href="#DejaVuSans-31" x="517.529297"/>
      </g>
     </g>
    </g>
    <g id="xtick_14">
     <g id="line2d_14">
      <g>
       <use xlink:href="#m1358166826" x="846.167524" y="395.28" style="stroke: #000000; stroke-width: 0.8"/>
      </g>
     </g>
     <g id="text_14">
      <!-- 2023-02-28 -->
      <g transform="translate(761.038496 495.213718) rotate(-45) scale(0.2 -0.2)">
       <use xlink:href="#DejaVuSans-32"/>
       <use xlink:href="#DejaVuSans-30" x="63.623047"/>
       <use xlink:href="#DejaVuSans-32" x="127.246094"/>
       <use xlink:href="#DejaVuSans-33" x="190.869141"/>
       <use xlink:href="#DejaVuSans-2d" x="254.492188"/>
       <use xlink:href="#DejaVuSans-30" x="290.576172"/>
       <use xlink:href="#DejaVuSans-32" x="354.199219"/>
       <use xlink:href="#DejaVuSans-2d" x="417.822266"/>
       <use xlink:href="#DejaVuSans-32" x="453.90625"/>
       <use xlink:href="#DejaVuSans-38" x="517.529297"/>
      </g>
     </g>
    </g>
    <g id="xtick_15">
     <g id="line2d_15">
      <g>
       <use xlink:href="#m1358166826" x="903.328499" y="395.28" style="stroke: #000000; stroke-width: 0.8"/>
      </g>
     </g>
     <g id="text_15">
      <!-- 2023-03-28 -->
      <g transform="translate(818.199472 495.213718) rotate(-45) scale(0.2 -0.2)">
       <use xlink:href="#DejaVuSans-32"/>
       <use xlink:href="#DejaVuSans-30" x="63.623047"/>
       <use xlink:href="#DejaVuSans-32" x="127.246094"/>
       <use xlink:href="#DejaVuSans-33" x="190.869141"/>
       <use xlink:href="#DejaVuSans-2d" x="254.492188"/>
       <use xlink:href="#DejaVuSans-30" x="290.576172"/>
       <use xlink:href="#DejaVuSans-33" x="354.199219"/>
       <use xlink:href="#DejaVuSans-2d" x="417.822266"/>
       <use xlink:href="#DejaVuSans-32" x="453.90625"/>
       <use xlink:href="#DejaVuSans-38" x="517.529297"/>
      </g>
     </g>
    </g>
    <g id="xtick_16">
     <g id="line2d_16">
      <g>
       <use xlink:href="#m1358166826" x="940.074841" y="395.28" style="stroke: #000000; stroke-width: 0.8"/>
      </g>
     </g>
     <g id="text_16">
      <!-- 2023-04-15 -->
      <g transform="translate(854.945813 495.213718) rotate(-45) scale(0.2 -0.2)">
       <use xlink:href="#DejaVuSans-32"/>
       <use xlink:href="#DejaVuSans-30" x="63.623047"/>
       <use xlink:href="#DejaVuSans-32" x="127.246094"/>
       <use xlink:href="#DejaVuSans-33" x="190.869141"/>
       <use xlink:href="#DejaVuSans-2d" x="254.492188"/>
       <use xlink:href="#DejaVuSans-30" x="290.576172"/>
       <use xlink:href="#DejaVuSans-34" x="354.199219"/>
       <use xlink:href="#DejaVuSans-2d" x="417.822266"/>
       <use xlink:href="#DejaVuSans-31" x="453.90625"/>
       <use xlink:href="#DejaVuSans-35" x="517.529297"/>
      </g>
     </g>
    </g>
   </g>
   <g id="matplotlib.axis_2">
    <g id="ytick_1">
     <g id="line2d_17">
      <defs>
       <path id="m8cb14ce1d2" d="M 0 0 
L -3.5 0 
" style="stroke: #000000; stroke-width: 0.8"/>
      </defs>
      <g>
       <use xlink:href="#m8cb14ce1d2" x="103.074841" y="380.343861" style="stroke: #000000; stroke-width: 0.8"/>
      </g>
     </g>
     <g id="text_17">
      <!-- 0.025 -->
      <g transform="translate(22.059216 387.942298) scale(0.2 -0.2)">
       <defs>
        <path id="DejaVuSans-2212" d="M 678 2272 
L 4684 2272 
L 4684 1741 
L 678 1741 
L 678 2272 
z
" transform="scale(0.015625)"/>
        <path id="DejaVuSans-2e" d="M 684 794 
L 1344 794 
L 1344 0 
L 684 0 
L 684 794 
z
" transform="scale(0.015625)"/>
       </defs>
       <use xlink:href="#DejaVuSans-2212"/>
       <use xlink:href="#DejaVuSans-30" x="83.789062"/>
       <use xlink:href="#DejaVuSans-2e" x="147.412109"/>
       <use xlink:href="#DejaVuSans-30" x="179.199219"/>
       <use xlink:href="#DejaVuSans-32" x="242.822266"/>
       <use xlink:href="#DejaVuSans-35" x="306.445312"/>
      </g>
     </g>
    </g>
    <g id="ytick_2">
     <g id="line2d_18">
      <g>
       <use xlink:href="#m8cb14ce1d2" x="103.074841" y="336.382268" style="stroke: #000000; stroke-width: 0.8"/>
      </g>
     </g>
     <g id="text_18">
      <!-- 0.000 -->
      <g transform="translate(38.818591 343.980706) scale(0.2 -0.2)">
       <use xlink:href="#DejaVuSans-30"/>
       <use xlink:href="#DejaVuSans-2e" x="63.623047"/>
       <use xlink:href="#DejaVuSans-30" x="95.410156"/>
       <use xlink:href="#DejaVuSans-30" x="159.033203"/>
       <use xlink:href="#DejaVuSans-30" x="222.65625"/>
      </g>
     </g>
    </g>
    <g id="ytick_3">
     <g id="line2d_19">
      <g>
       <use xlink:href="#m8cb14ce1d2" x="103.074841" y="292.420676" style="stroke: #000000; stroke-width: 0.8"/>
      </g>
     </g>
     <g id="text_19">
      <!-- 0.025 -->
      <g transform="translate(38.818591 300.019113) scale(0.2 -0.2)">
       <use xlink:href="#DejaVuSans-30"/>
       <use xlink:href="#DejaVuSans-2e" x="63.623047"/>
       <use xlink:href="#DejaVuSans-30" x="95.410156"/>
       <use xlink:href="#DejaVuSans-32" x="159.033203"/>
       <use xlink:href="#DejaVuSans-35" x="222.65625"/>
      </g>
     </g>
    </g>
    <g id="ytick_4">
     <g id="line2d_20">
      <g>
       <use xlink:href="#m8cb14ce1d2" x="103.074841" y="248.459083" style="stroke: #000000; stroke-width: 0.8"/>
      </g>
     </g>
     <g id="text_20">
      <!-- 0.050 -->
      <g transform="translate(38.818591 256.057521) scale(0.2 -0.2)">
       <use xlink:href="#DejaVuSans-30"/>
       <use xlink:href="#DejaVuSans-2e" x="63.623047"/>
       <use xlink:href="#DejaVuSans-30" x="95.410156"/>
       <use xlink:href="#DejaVuSans-35" x="159.033203"/>
       <use xlink:href="#DejaVuSans-30" x="222.65625"/>
      </g>
     </g>
    </g>
    <g id="ytick_5">
     <g id="line2d_21">
      <g>
       <use xlink:href="#m8cb14ce1d2" x="103.074841" y="204.497491" style="stroke: #000000; stroke-width: 0.8"/>
      </g>
     </g>
     <g id="text_21">
      <!-- 0.075 -->
      <g transform="translate(38.818591 212.095928) scale(0.2 -0.2)">
       <use xlink:href="#DejaVuSans-30"/>
       <use xlink:href="#DejaVuSans-2e" x="63.623047"/>
       <use xlink:href="#DejaVuSans-30" x="95.410156"/>
       <use xlink:href="#DejaVuSans-37" x="159.033203"/>
       <use xlink:href="#DejaVuSans-35" x="222.65625"/>
      </g>
     </g>
    </g>
    <g id="ytick_6">
     <g id="line2d_22">
      <g>
       <use xlink:href="#m8cb14ce1d2" x="103.074841" y="160.535898" style="stroke: #000000; stroke-width: 0.8"/>
      </g>
     </g>
     <g id="text_22">
      <!-- 0.100 -->
      <g transform="translate(38.818591 168.134336) scale(0.2 -0.2)">
       <use xlink:href="#DejaVuSans-30"/>
       <use xlink:href="#DejaVuSans-2e" x="63.623047"/>
       <use xlink:href="#DejaVuSans-31" x="95.410156"/>
       <use xlink:href="#DejaVuSans-30" x="159.033203"/>
       <use xlink:href="#DejaVuSans-30" x="222.65625"/>
      </g>
     </g>
    </g>
    <g id="ytick_7">
     <g id="line2d_23">
      <g>
       <use xlink:href="#m8cb14ce1d2" x="103.074841" y="116.574306" style="stroke: #000000; stroke-width: 0.8"/>
      </g>
     </g>
     <g id="text_23">
      <!-- 0.125 -->
      <g transform="translate(38.818591 124.172743) scale(0.2 -0.2)">
       <use xlink:href="#DejaVuSans-30"/>
       <use xlink:href="#DejaVuSans-2e" x="63.623047"/>
       <use xlink:href="#DejaVuSans-31" x="95.410156"/>
       <use xlink:href="#DejaVuSans-32" x="159.033203"/>
       <use xlink:href="#DejaVuSans-35" x="222.65625"/>
      </g>
     </g>
    </g>
    <g id="ytick_8">
     <g id="line2d_24">
      <g>
       <use xlink:href="#m8cb14ce1d2" x="103.074841" y="72.612713" style="stroke: #000000; stroke-width: 0.8"/>
      </g>
     </g>
     <g id="text_24">
      <!-- 0.150 -->
      <g transform="translate(38.818591 80.211151) scale(0.2 -0.2)">
       <use xlink:href="#DejaVuSans-30"/>
       <use xlink:href="#DejaVuSans-2e" x="63.623047"/>
       <use xlink:href="#DejaVuSans-31" x="95.410156"/>
       <use xlink:href="#DejaVuSans-35" x="159.033203"/>
       <use xlink:href="#DejaVuSans-30" x="222.65625"/>
      </g>
     </g>
    </g>
    <g id="ytick_9">
     <g id="line2d_25">
      <g>
       <use xlink:href="#m8cb14ce1d2" x="103.074841" y="28.651121" style="stroke: #000000; stroke-width: 0.8"/>
      </g>
     </g>
     <g id="text_25">
      <!-- 0.175 -->
      <g transform="translate(38.818591 36.249558) scale(0.2 -0.2)">
       <use xlink:href="#DejaVuSans-30"/>
       <use xlink:href="#DejaVuSans-2e" x="63.623047"/>
       <use xlink:href="#DejaVuSans-31" x="95.410156"/>
       <use xlink:href="#DejaVuSans-37" x="159.033203"/>
       <use xlink:href="#DejaVuSans-35" x="222.65625"/>
      </g>
     </g>
    </g>
   </g>
   <g id="line2d_26">
    <path d="M 0 0 
" clip-path="url(#p4066d866a2)" style="fill: none; stroke: #ffa500; stroke-width: 1.5; stroke-linecap: square"/>
   </g>
   <g id="line2d_27">
    <path d="M 103.074841 336.382268 
L 948.274841 336.382268 
" clip-path="url(#p4066d866a2)" style="fill: none; stroke-dasharray: 7.4,3.2; stroke-dashoffset: 0; stroke: #000000; stroke-width: 2"/>
   </g>
   <g id="patch_3">
    <path d="M 103.074841 395.28 
L 103.074841 7.2 
" style="fill: none; stroke: #000000; stroke-width: 0.8; stroke-linejoin: miter; stroke-linecap: square"/>
   </g>
   <g id="patch_4">
    <path d="M 940.074841 395.28 
L 940.074841 7.2 
" style="fill: none; stroke: #000000; stroke-width: 0.8; stroke-linejoin: miter; stroke-linecap: square"/>
   </g>
   <g id="patch_5">
    <path d="M 103.074841 395.28 
L 940.074841 395.28 
" style="fill: none; stroke: #000000; stroke-width: 0.8; stroke-linejoin: miter; stroke-linecap: square"/>
   </g>
   <g id="patch_6">
    <path d="M 103.074841 7.2 
L 940.074841 7.2 
" style="fill: none; stroke: #000000; stroke-width: 0.8; stroke-linejoin: miter; stroke-linecap: square"/>
   </g>
  </g>
 </g>
 <defs>
  <clipPath id="p4066d866a2">
   <rect x="103.074841" y="7.2" width="837" height="388.08"/>
  </clipPath>
 </defs>
</svg>
