<?xml version="1.0" encoding="utf-8" standalone="no"?>
<!DOCTYPE svg PUBLIC "-//W3C//DTD SVG 1.1//EN"
  "http://www.w3.org/Graphics/SVG/1.1/DTD/svg11.dtd">
<svg xmlns:xlink="http://www.w3.org/1999/xlink" width="947.274841pt" height="505.354841pt" viewBox="0 0 947.274841 505.354841" xmlns="http://www.w3.org/2000/svg" version="1.1">
 <metadata>
  <rdf:RDF xmlns:dc="http://purl.org/dc/elements/1.1/" xmlns:cc="http://creativecommons.org/ns#" xmlns:rdf="http://www.w3.org/1999/02/22-rdf-syntax-ns#">
   <cc:Work>
    <dc:type rdf:resource="http://purl.org/dc/dcmitype/StillImage"/>
    <dc:date>2023-11-15T18:16:16.556368</dc:date>
    <dc:format>image/svg+xml</dc:format>
    <dc:creator>
     <cc:Agent>
      <dc:title>Matplotlib v3.7.2, https://matplotlib.org/</dc:title>
     </cc:Agent>
    </dc:creator>
   </cc:Work>
  </rdf:RDF>
 </metadata>
 <defs>
  <style type="text/css">*{stroke-linejoin: round; stroke-linecap: butt}</style>
 </defs>
 <g id="figure_1">
  <g id="patch_1">
   <path d="M 0 505.354841 
L 947.274841 505.354841 
L 947.274841 -0 
L 0 -0 
z
" style="fill: #ffffff"/>
  </g>
  <g id="axes_1">
   <g id="patch_2">
    <path d="M 103.074841 395.28 
L 940.074841 395.28 
L 940.074841 7.2 
L 103.074841 7.2 
z
" style="fill: #ffffff"/>
   </g>
   <g id="PolyCollection_1">
    <path d="M -4315.31939 293.572686 
L -4315.31939 293.589889 
L -4307.271313 293.50395 
L -4299.223236 293.42925 
L -4291.175159 293.334423 
L -4283.127082 293.270695 
L -4275.079005 293.190207 
L -4267.030929 293.106878 
L -4258.982852 293.024353 
L -4250.934775 292.946672 
L -4242.886698 292.878119 
L -4234.838621 292.79926 
L -4226.790544 292.716732 
L -4218.742467 292.63638 
L -4210.69439 292.538389 
L -4202.646313 292.456649 
L -4194.598236 292.360906 
L -4186.550159 292.278343 
L -4178.502082 292.167909 
L -4170.454005 292.076468 
L -4162.405929 291.988246 
L -4154.357852 291.884494 
L -4146.309775 291.783208 
L -4138.261698 291.684038 
L -4130.213621 291.564978 
L -4122.165544 291.460267 
L -4114.117467 291.338218 
L -4106.06939 291.2146 
L -4098.021313 291.078153 
L -4089.973236 290.937908 
L -4081.925159 290.80044 
L -4073.877082 290.641841 
L -4065.829005 290.462747 
L -4057.780929 290.302984 
L -4049.732852 290.12183 
L -4041.684775 289.915368 
L -4033.636698 289.722601 
L -4025.588621 289.497136 
L -4017.540544 289.267873 
L -4009.492467 289.03155 
L -4001.44439 288.782042 
L -3993.396313 288.505918 
L -3985.348236 288.211976 
L -3977.300159 287.900452 
L -3969.252082 287.599495 
L -3961.204005 287.247037 
L -3953.155929 286.910984 
L -3945.107852 286.553381 
L -3937.059775 286.194103 
L -3929.011698 285.807707 
L -3920.963621 285.389868 
L -3912.915544 285.001996 
L -3904.867467 284.570972 
L -3896.81939 284.124934 
L -3888.771313 283.687465 
L -3880.723236 283.254244 
L -3872.675159 282.784878 
L -3864.627082 282.310437 
L -3856.579005 281.836761 
L -3848.530929 281.343591 
L -3840.482852 280.844743 
L -3832.434775 280.347142 
L -3824.386698 279.832799 
L -3816.338621 279.317226 
L -3808.290544 278.809088 
L -3800.242467 278.280398 
L -3792.19439 277.715398 
L -3784.146313 277.16767 
L -3776.098236 276.621015 
L -3768.050159 276.082654 
L -3760.002082 275.522637 
L -3751.954005 274.975274 
L -3743.905929 274.418577 
L -3735.857852 273.914659 
L -3727.809775 273.323573 
L -3719.761698 272.809721 
L -3711.713621 272.2482 
L -3703.665544 271.712821 
L -3695.617467 271.157479 
L -3687.56939 270.659976 
L -3679.521313 270.090647 
L -3671.473236 269.55453 
L -3663.425159 269.053974 
L -3655.377082 268.514436 
L -3647.329005 268.002887 
L -3639.280929 267.468254 
L -3631.232852 266.928222 
L -3623.184775 266.411602 
L -3615.136698 265.905016 
L -3607.088621 265.360507 
L -3599.040544 264.838082 
L -3590.992467 264.310412 
L -3582.94439 263.791018 
L -3574.896313 263.283493 
L -3566.848236 262.76258 
L -3558.800159 262.236597 
L -3550.752082 261.761325 
L -3542.704005 261.225348 
L -3534.655929 260.711202 
L -3526.607852 260.205261 
L -3518.559775 259.698693 
L -3510.511698 259.193315 
L -3502.463621 258.681591 
L -3494.415544 258.192681 
L -3486.367467 257.685003 
L -3478.31939 257.16523 
L -3470.271313 256.639809 
L -3462.223236 256.108916 
L -3454.175159 255.610671 
L -3446.127082 255.064496 
L -3438.079005 254.483351 
L -3430.030929 253.936257 
L -3421.982852 253.360343 
L -3413.934775 252.775621 
L -3405.886698 252.159217 
L -3397.838621 251.53178 
L -3389.790544 250.947059 
L -3381.742467 250.282954 
L -3373.69439 249.650501 
L -3365.646313 248.971197 
L -3357.598236 248.345188 
L -3349.550159 247.612907 
L -3341.502082 246.894272 
L -3333.454005 246.195103 
L -3325.405929 245.483792 
L -3317.357852 244.750974 
L -3309.309775 243.985945 
L -3301.261698 243.267112 
L -3293.213621 242.447058 
L -3285.165544 241.722542 
L -3277.117467 240.878374 
L -3269.06939 240.059263 
L -3261.021313 239.258432 
L -3252.973236 238.488921 
L -3244.925159 237.594983 
L -3236.877082 236.784414 
L -3228.829005 235.760925 
L -3220.780929 234.876397 
L -3212.732852 234.04962 
L -3204.684775 233.11907 
L -3196.636698 232.164658 
L -3188.588621 231.069288 
L -3180.540544 230.039839 
L -3172.492467 229.174679 
L -3164.44439 227.824356 
L -3156.396313 226.732004 
L -3148.348236 225.615491 
L -3140.300159 224.457163 
L -3132.252082 223.142413 
L -3124.204005 221.902299 
L -3116.155929 220.953584 
L -3108.107852 219.755319 
L -3100.059775 217.817155 
L -3092.011698 216.177897 
L -3083.963621 214.951137 
L -3075.915544 213.271424 
L -3067.867467 211.866785 
L -3059.81939 210.634281 
L -3051.771313 208.880906 
L -3043.723236 206.881396 
L -3035.675159 205.691202 
L -3027.627082 205.060524 
L -3019.579005 203.597752 
L -3011.530929 203.097411 
L -3003.482852 202.165909 
L -2995.434775 200.410816 
L -2987.386698 200.510445 
L -2979.338621 201.177971 
L -2971.290544 202.631357 
L -2963.242467 200.929843 
L -2955.19439 204.210064 
L -2947.146313 204.917149 
L -2939.098236 200.432005 
L -2931.050159 201.666984 
L -2923.002082 203.615687 
L -2914.954005 202.427777 
L -2906.905929 202.166542 
L -2898.857852 210.616163 
L -2890.809775 222.638566 
L -2882.761698 228.61521 
L -2874.713621 215.534313 
L -2866.665544 222.239724 
L -2858.617467 231.028171 
L -2850.56939 230.507565 
L -2842.521313 248.403342 
L -2834.473236 245.953076 
L -2826.425159 240.470779 
L -2818.377082 226.895547 
L -2810.329005 239.649105 
L -2802.280929 247.316892 
L -2794.232852 244.108345 
L -2786.184775 246.106668 
L -2778.136698 253.345283 
L -2770.088621 252.379642 
L -2762.040544 246.137914 
L -2753.992467 253.979278 
L -2745.94439 255.53364 
L -2737.896313 252.732651 
L -2729.848236 257.710062 
L -2721.800159 259.529005 
L -2713.752082 259.037466 
L -2705.704005 257.527152 
L -2697.655929 259.162676 
L -2689.607852 257.492923 
L -2681.559775 257.638294 
L -2673.511698 259.19703 
L -2665.463621 257.731116 
L -2657.415544 258.494421 
L -2649.367467 258.537726 
L -2641.31939 257.353923 
L -2633.271313 257.792213 
L -2625.223236 256.085574 
L -2617.175159 256.202951 
L -2609.127082 256.680668 
L -2601.079005 256.710941 
L -2593.030929 255.881278 
L -2584.982852 255.172986 
L -2576.934775 254.997044 
L -2568.886698 254.214626 
L -2560.838621 254.095619 
L -2552.790544 253.951958 
L -2544.742467 252.76444 
L -2536.69439 253.332252 
L -2528.646313 252.549977 
L -2520.598236 252.215256 
L -2512.550159 252.243913 
L -2504.502082 251.479156 
L -2496.454005 251.295271 
L -2488.405929 251.565009 
L -2480.357852 251.999968 
L -2472.309775 250.747878 
L -2464.261698 250.542191 
L -2456.213621 250.136782 
L -2448.165544 252.326632 
L -2440.117467 252.386795 
L -2432.06939 253.237649 
L -2424.021313 251.163853 
L -2415.973236 249.889829 
L -2407.925159 250.305773 
L -2399.877082 251.753066 
L -2391.829005 252.001831 
L -2383.780929 249.486092 
L -2375.732852 251.625358 
L -2367.684775 251.097974 
L -2359.636698 250.752496 
L -2351.588621 249.592262 
L -2343.540544 250.544152 
L -2335.492467 249.981146 
L -2327.44439 250.51508 
L -2319.396313 249.756653 
L -2311.348236 249.154922 
L -2303.300159 248.072242 
L -2295.252082 247.549807 
L -2287.204005 247.071119 
L -2279.155929 246.415624 
L -2271.107852 246.262714 
L -2263.059775 245.6531 
L -2255.011698 244.997842 
L -2246.963621 243.289539 
L -2238.915544 241.986904 
L -2230.867467 241.390797 
L -2222.81939 239.966861 
L -2214.771313 239.668132 
L -2206.723236 238.415562 
L -2198.675159 236.580625 
L -2190.627082 235.04619 
L -2182.579005 233.878913 
L -2174.530929 231.977233 
L -2166.482852 230.801144 
L -2158.434775 229.102425 
L -2150.386698 227.597318 
L -2142.338621 225.710495 
L -2134.290544 224.150637 
L -2126.242467 222.038545 
L -2118.19439 220.369296 
L -2110.146313 218.556538 
L -2102.098236 216.154825 
L -2094.050159 213.914967 
L -2086.002082 212.309601 
L -2077.954005 210.490364 
L -2069.905929 208.220439 
L -2061.857852 206.420391 
L -2053.809775 204.229968 
L -2045.761698 201.081091 
L -2037.713621 199.705674 
L -2029.665544 197.02649 
L -2021.617467 195.023516 
L -2013.56939 192.779158 
L -2005.521313 190.313617 
L -1997.473236 187.79084 
L -1989.425159 185.487949 
L -1981.377082 182.380999 
L -1973.329005 180.452074 
L -1965.280929 177.416095 
L -1957.232852 175.475863 
L -1949.184775 172.516512 
L -1941.136698 169.645264 
L -1933.088621 167.032277 
L -1925.040544 164.952737 
L -1916.992467 161.529802 
L -1908.94439 159.213403 
L -1900.896313 156.163423 
L -1892.848236 153.676917 
L -1884.800159 150.460131 
L -1876.752082 147.765114 
L -1868.704005 147.448159 
L -1860.655929 142.160749 
L -1852.607852 141.349509 
L -1844.559775 138.141897 
L -1836.511698 135.930814 
L -1828.463621 133.321034 
L -1820.415544 130.53439 
L -1812.367467 128.010849 
L -1804.31939 125.570157 
L -1796.271313 123.267985 
L -1788.223236 120.950466 
L -1780.175159 122.609454 
L -1772.127082 115.894524 
L -1764.079005 114.159614 
L -1756.030929 119.508143 
L -1747.982852 111.412234 
L -1739.934775 112.647338 
L -1731.886698 111.663468 
L -1723.838621 107.39266 
L -1715.790544 107.992281 
L -1707.742467 111.924452 
L -1699.69439 108.833887 
L -1691.646313 107.349482 
L -1683.598236 109.75276 
L -1675.550159 108.687383 
L -1667.502082 110.296908 
L -1659.454005 112.520951 
L -1651.405929 116.40915 
L -1643.357852 125.592099 
L -1635.309775 123.334389 
L -1627.261698 128.255242 
L -1619.213621 132.308705 
L -1611.165544 134.429852 
L -1603.117467 139.624897 
L -1595.06939 142.873995 
L -1587.021313 136.367706 
L -1578.973236 142.407896 
L -1570.925159 150.802798 
L -1562.877082 155.857997 
L -1554.829005 158.176189 
L -1546.780929 172.045717 
L -1538.732852 173.176106 
L -1530.684775 176.967336 
L -1522.636698 175.966233 
L -1514.588621 187.677203 
L -1506.540544 184.066902 
L -1498.492467 182.023072 
L -1490.44439 192.028336 
L -1482.396313 199.139062 
L -1474.348236 198.533526 
L -1466.300159 202.762671 
L -1458.252082 204.151613 
L -1450.204005 204.428476 
L -1442.155929 204.448185 
L -1434.107852 206.807646 
L -1426.059775 208.152788 
L -1418.011698 215.447282 
L -1409.963621 211.760563 
L -1401.915544 218.122629 
L -1393.867467 216.741049 
L -1385.81939 215.933468 
L -1377.771313 218.544799 
L -1369.723236 220.881159 
L -1361.675159 218.052162 
L -1353.627082 219.538127 
L -1345.579005 219.698795 
L -1337.530929 223.20343 
L -1329.482852 221.581774 
L -1321.434775 220.868021 
L -1313.386698 221.933868 
L -1305.338621 223.663448 
L -1297.290544 222.934815 
L -1289.242467 221.377776 
L -1281.19439 222.384474 
L -1273.146313 219.982335 
L -1265.098236 220.332161 
L -1257.050159 224.515099 
L -1249.002082 224.363707 
L -1240.954005 222.143377 
L -1232.905929 221.660075 
L -1224.857852 222.014036 
L -1216.809775 219.611052 
L -1208.761698 220.299325 
L -1200.713621 220.378313 
L -1192.665544 219.939598 
L -1184.617467 219.359417 
L -1176.56939 217.912831 
L -1168.521313 218.914145 
L -1160.473236 217.976041 
L -1152.425159 217.84704 
L -1144.377082 217.399118 
L -1136.329005 217.563139 
L -1128.280929 216.486552 
L -1120.232852 214.457281 
L -1112.184775 214.465148 
L -1104.136698 212.83241 
L -1096.088621 210.429766 
L -1088.040544 212.361449 
L -1079.992467 209.045197 
L -1071.94439 210.563801 
L -1063.896313 210.00658 
L -1055.848236 210.33347 
L -1047.800159 208.228845 
L -1039.752082 208.153236 
L -1031.704005 207.916577 
L -1023.655929 205.265286 
L -1015.607852 206.011426 
L -1007.559775 205.834088 
L -999.511698 205.784853 
L -991.463621 204.542049 
L -983.415544 205.198864 
L -975.367467 203.917041 
L -967.31939 202.68734 
L -959.271313 200.721882 
L -951.223236 200.118113 
L -943.175159 199.731631 
L -935.127082 198.368344 
L -927.079005 198.609913 
L -919.030929 197.959715 
L -910.982852 196.748498 
L -902.934775 196.829695 
L -894.886698 195.448189 
L -886.838621 196.653372 
L -878.790544 195.705232 
L -870.742467 195.785908 
L -862.69439 194.067174 
L -854.646313 191.705558 
L -846.598236 193.769649 
L -838.550159 193.733324 
L -830.502082 192.986853 
L -822.454005 192.208883 
L -814.405929 190.570869 
L -806.357852 190.220584 
L -798.309775 189.331873 
L -790.261698 189.49458 
L -782.213621 189.174131 
L -774.165544 187.612681 
L -766.117467 185.388113 
L -758.06939 188.335108 
L -750.021313 187.668836 
L -741.973236 185.785379 
L -733.925159 187.028644 
L -725.877082 183.643574 
L -717.829005 184.091768 
L -709.780929 184.347731 
L -701.732852 182.076247 
L -693.684775 186.062418 
L -685.636698 182.160382 
L -677.588621 180.207028 
L -669.540544 182.846299 
L -661.492467 183.618802 
L -653.44439 182.453858 
L -645.396313 183.556917 
L -637.348236 181.853255 
L -629.300159 185.515957 
L -621.252082 183.873441 
L -613.204005 184.764415 
L -605.155929 182.520382 
L -597.107852 180.526578 
L -589.059775 183.457327 
L -581.011698 188.574307 
L -572.963621 183.184757 
L -564.915544 183.705698 
L -556.867467 181.818589 
L -548.81939 183.007881 
L -540.771313 182.936927 
L -532.723236 181.84436 
L -524.675159 181.556404 
L -516.627082 184.141625 
L -508.579005 183.078941 
L -500.530929 185.455595 
L -492.482852 186.042552 
L -484.434775 179.861666 
L -476.386698 182.641536 
L -468.338621 183.000192 
L -460.290544 183.583439 
L -452.242467 184.097094 
L -444.19439 188.285691 
L -436.146313 190.037874 
L -428.098236 189.960293 
L -420.050159 194.535908 
L -412.002082 202.043884 
L -403.954005 193.332963 
L -395.905929 193.307029 
L -387.857852 193.56083 
L -379.809775 196.568363 
L -371.761698 197.309267 
L -363.713621 197.352608 
L -355.665544 203.813547 
L -347.617467 206.247789 
L -339.56939 199.080774 
L -331.521313 205.73991 
L -323.473236 202.602268 
L -315.425159 200.704407 
L -307.377082 208.796415 
L -299.329005 207.351053 
L -291.280929 212.647924 
L -283.232852 211.271965 
L -275.184775 207.984351 
L -267.136698 211.41074 
L -259.088621 211.60237 
L -251.040544 214.986962 
L -242.992467 213.218585 
L -234.94439 218.742639 
L -226.896313 215.230599 
L -218.848236 218.256946 
L -210.800159 217.978279 
L -202.752082 221.290285 
L -194.704005 216.649231 
L -186.655929 222.151121 
L -178.607852 222.119511 
L -170.559775 225.985529 
L -162.511698 228.181429 
L -154.463621 228.478986 
L -146.415544 227.824914 
L -138.367467 230.41994 
L -130.31939 232.42865 
L -122.271313 231.190321 
L -114.223236 230.883721 
L -106.175159 233.217723 
L -98.127082 235.339652 
L -90.079005 232.423187 
L -82.030929 230.855827 
L -73.982852 238.416695 
L -65.934775 242.007916 
L -57.886698 234.860073 
L -49.838621 237.319682 
L -41.790544 238.665474 
L -33.742467 239.476505 
L -25.69439 243.482045 
L -17.646313 243.251582 
L -9.598236 241.965748 
L -1.550159 243.815786 
L 6.497918 244.511329 
L 14.545995 240.759992 
L 22.594071 242.991666 
L 30.642148 241.957918 
L 38.690225 247.737709 
L 46.738302 254.736867 
L 54.786379 253.964867 
L 62.834456 248.761817 
L 70.882533 248.342438 
L 78.93061 249.250387 
L 86.978687 249.720697 
L 95.026764 254.927335 
L 103.074841 248.701703 
L 111.122918 255.65433 
L 119.170995 261.234627 
L 127.219071 256.870068 
L 135.267148 263.983381 
L 143.315225 259.788538 
L 151.363302 263.740846 
L 159.411379 261.378885 
L 167.459456 263.456514 
L 175.507533 267.361421 
L 183.55561 267.315721 
L 191.603687 268.669821 
L 199.651764 269.124595 
L 207.699841 269.714729 
L 215.747918 260.823002 
L 223.795995 272.728232 
L 231.844071 277.715411 
L 239.892148 273.267434 
L 247.940225 277.715811 
L 255.988302 278.809444 
L 264.036379 276.516224 
L 272.084456 281.540858 
L 280.132533 284.991986 
L 288.18061 283.33739 
L 296.228687 284.821374 
L 304.276764 285.733434 
L 312.324841 287.082849 
L 320.372918 290.91394 
L 328.420995 283.648072 
L 336.469071 293.081866 
L 344.517148 293.543869 
L 352.565225 294.198604 
L 360.613302 288.571218 
L 368.661379 296.124519 
L 376.709456 301.811964 
L 384.757533 296.758679 
L 392.80561 297.207764 
L 400.853687 306.36421 
L 408.901764 292.423213 
L 416.949841 305.647727 
L 424.997918 296.841865 
L 433.045995 312.051047 
L 441.094071 304.236287 
L 449.142148 312.305896 
L 457.190225 316.104535 
L 465.238302 319.802421 
L 473.286379 321.709201 
L 481.334456 315.561279 
L 489.382533 317.243841 
L 497.43061 324.436418 
L 505.478687 332.62829 
L 513.526764 333.376426 
L 521.574841 332.850716 
L 529.622918 341.145288 
L 537.670995 341.446246 
L 545.719071 335.972133 
L 553.767148 335.443093 
L 561.815225 350.345687 
L 569.863302 351.803949 
L 577.911379 355.035588 
L 585.959456 347.858578 
L 594.007533 330.852109 
L 602.05561 349.465799 
L 610.103687 344.993359 
L 618.151764 349.922896 
L 626.199841 356.514095 
L 634.247918 348.23024 
L 642.295995 359.711049 
L 650.344071 350.811913 
L 658.392148 350.795554 
L 666.440225 352.049387 
L 674.488302 359.017727 
L 682.536379 358.588361 
L 690.584456 357.474206 
L 698.632533 350.683118 
L 706.68061 354.871596 
L 714.728687 358.10432 
L 722.776764 355.308044 
L 730.824841 361.038722 
L 738.872918 357.004174 
L 746.920995 360.847726 
L 754.969071 366.843029 
L 763.017148 366.245605 
L 771.065225 360.84986 
L 779.113302 361.324597 
L 787.161379 360.607419 
L 795.209456 363.514948 
L 803.257533 363.766722 
L 811.30561 354.780777 
L 819.353687 362.429692 
L 827.401764 319.24707 
L 835.449841 363.089493 
L 843.497918 366.352426 
L 851.545995 360.290867 
L 859.594071 353.998693 
L 867.642148 367.022075 
L 875.690225 361.638499 
L 883.738302 351.962741 
L 891.786379 358.563972 
L 899.834456 358.992467 
L 907.882533 356.556745 
L 915.93061 362.829717 
L 923.978687 358.638987 
L 932.026764 361.172841 
L 940.074841 362.804979 
L 940.074841 300.210952 
L 940.074841 300.210952 
L 932.026764 304.52407 
L 923.978687 303.057653 
L 915.93061 305.095919 
L 907.882533 302.635281 
L 899.834456 304.105358 
L 891.786379 303.222353 
L 883.738302 304.252792 
L 875.690225 307.693497 
L 867.642148 308.40538 
L 859.594071 306.479972 
L 851.545995 307.26861 
L 843.497918 311.037233 
L 835.449841 309.060749 
L 827.401764 302.44077 
L 819.353687 310.458384 
L 811.30561 309.464762 
L 803.257533 311.646752 
L 795.209456 312.086155 
L 787.161379 311.700402 
L 779.113302 313.123047 
L 771.065225 313.352412 
L 763.017148 315.26519 
L 754.969071 315.95166 
L 746.920995 315.165463 
L 738.872918 314.469554 
L 730.824841 315.44421 
L 722.776764 313.780464 
L 714.728687 314.855076 
L 706.68061 314.68875 
L 698.632533 313.804891 
L 690.584456 316.536547 
L 682.536379 317.196211 
L 674.488302 318.372788 
L 666.440225 315.482269 
L 658.392148 315.931185 
L 650.344071 316.544451 
L 642.295995 319.41857 
L 634.247918 315.989861 
L 626.199841 319.017109 
L 618.151764 316.967336 
L 610.103687 315.719916 
L 602.05561 317.361064 
L 594.007533 312.285996 
L 585.959456 317.042713 
L 577.911379 320.273481 
L 569.863302 319.392571 
L 561.815225 318.870538 
L 553.767148 315.012453 
L 545.719071 314.659714 
L 537.670995 316.710429 
L 529.622918 316.493822 
L 521.574841 313.855851 
L 513.526764 313.946384 
L 505.478687 314.352581 
L 497.43061 310.020761 
L 489.382533 308.524734 
L 481.334456 308.209843 
L 473.286379 310.513505 
L 465.238302 309.766745 
L 457.190225 307.832247 
L 449.142148 306.39635 
L 441.094071 299.567246 
L 433.045995 306.276512 
L 424.997918 280.556743 
L 416.949841 301.090746 
L 408.901764 271.661019 
L 400.853687 303.221133 
L 392.80561 285.939912 
L 384.757533 285.450408 
L 376.709456 294.477873 
L 368.661379 283.512993 
L 360.613302 263.462999 
L 352.565225 277.839825 
L 344.517148 277.39841 
L 336.469071 276.627959 
L 328.420995 253.291106 
L 320.372918 264.63668 
L 312.324841 261.680843 
L 304.276764 259.860635 
L 296.228687 257.084722 
L 288.18061 251.970756 
L 280.132533 256.464595 
L 272.084456 247.635581 
L 264.036379 236.682491 
L 255.988302 245.338425 
L 247.940225 238.085913 
L 239.892148 231.540116 
L 231.844071 241.454049 
L 223.795995 230.078698 
L 215.747918 201.228645 
L 207.699841 221.799388 
L 199.651764 220.662736 
L 191.603687 220.436228 
L 183.55561 217.55197 
L 175.507533 217.333706 
L 167.459456 209.229418 
L 159.411379 205.682608 
L 151.363302 211.437238 
L 143.315225 199.806667 
L 135.267148 211.117192 
L 127.219071 195.064031 
L 119.170995 203.810583 
L 111.122918 192.991055 
L 103.074841 179.612236 
L 95.026764 191.228756 
L 86.978687 179.496171 
L 78.93061 179.906441 
L 70.882533 179.079831 
L 62.834456 179.856611 
L 54.786379 190.28257 
L 46.738302 192.461557 
L 38.690225 179.097484 
L 30.642148 165.35815 
L 22.594071 168.680477 
L 14.545995 165.584172 
L 6.497918 173.490016 
L -1.550159 172.168908 
L -9.598236 168.374192 
L -17.646313 172.288914 
L -25.69439 171.487305 
L -33.742467 164.225376 
L -41.790544 164.566432 
L -49.838621 161.491842 
L -57.886698 157.78105 
L -65.934775 172.629974 
L -73.982852 163.506726 
L -82.030929 151.197069 
L -90.079005 156.414552 
L -98.127082 161.036207 
L -106.175159 157.205169 
L -114.223236 154.129876 
L -122.271313 155.689182 
L -130.31939 160.571627 
L -138.367467 154.291066 
L -146.415544 151.689155 
L -154.463621 153.623153 
L -162.511698 149.516089 
L -170.559775 150.210926 
L -178.607852 142.417963 
L -186.655929 144.664332 
L -194.704005 135.275371 
L -202.752082 142.577308 
L -210.800159 138.505438 
L -218.848236 140.231638 
L -226.896313 137.364034 
L -234.94439 141.700767 
L -242.992467 133.231895 
L -251.040544 137.959514 
L -259.088621 132.55637 
L -267.136698 133.242284 
L -275.184775 128.951518 
L -283.232852 130.772692 
L -291.280929 136.240523 
L -299.329005 130.469076 
L -307.377082 131.613285 
L -315.425159 120.501623 
L -323.473236 125.379605 
L -331.521313 127.791169 
L -339.56939 119.221076 
L -347.617467 128.500816 
L -355.665544 129.116668 
L -363.713621 118.331745 
L -371.761698 118.432033 
L -379.809775 117.584741 
L -387.857852 113.641793 
L -395.905929 116.202672 
L -403.954005 115.13799 
L -412.002082 127.571752 
L -420.050159 118.799671 
L -428.098236 112.290272 
L -436.146313 112.347036 
L -444.19439 110.335236 
L -452.242467 106.347386 
L -460.290544 107.607553 
L -468.338621 104.862129 
L -476.386698 107.654148 
L -484.434775 103.696203 
L -492.482852 110.711478 
L -500.530929 111.485525 
L -508.579005 109.622018 
L -516.627082 111.026422 
L -524.675159 108.067253 
L -532.723236 109.986504 
L -540.771313 111.005293 
L -548.81939 114.155443 
L -556.867467 111.201775 
L -564.915544 114.757394 
L -572.963621 113.756064 
L -581.011698 120.601532 
L -589.059775 115.584177 
L -597.107852 112.811736 
L -605.155929 115.644681 
L -613.204005 116.815776 
L -621.252082 116.714204 
L -629.300159 120.63423 
L -637.348236 116.890614 
L -645.396313 119.491908 
L -653.44439 117.997579 
L -661.492467 118.499102 
L -669.540544 117.163363 
L -677.588621 115.281129 
L -685.636698 118.457941 
L -693.684775 122.734061 
L -701.732852 118.099971 
L -709.780929 120.543496 
L -717.829005 119.291288 
L -725.877082 120.639686 
L -733.925159 123.924431 
L -741.973236 122.640019 
L -750.021313 125.280205 
L -758.06939 125.882334 
L -766.117467 122.638915 
L -774.165544 124.347003 
L -782.213621 126.265205 
L -790.261698 126.873615 
L -798.309775 126.656331 
L -806.357852 127.97612 
L -814.405929 127.607416 
L -822.454005 129.626954 
L -830.502082 130.083182 
L -838.550159 130.421841 
L -846.598236 130.757081 
L -854.646313 126.751334 
L -862.69439 130.854994 
L -870.742467 132.399845 
L -878.790544 131.756052 
L -886.838621 131.726958 
L -894.886698 131.583343 
L -902.934775 132.655222 
L -910.982852 132.065718 
L -919.030929 133.751204 
L -927.079005 134.213949 
L -935.127082 133.568597 
L -943.175159 134.048247 
L -951.223236 134.76185 
L -959.271313 135.503818 
L -967.31939 138.525642 
L -975.367467 139.053989 
L -983.415544 140.380543 
L -991.463621 139.321388 
L -999.511698 140.578598 
L -1007.559775 140.44939 
L -1015.607852 140.634125 
L -1023.655929 138.682038 
L -1031.704005 142.980419 
L -1039.752082 143.072539 
L -1047.800159 143.058318 
L -1055.848236 145.496395 
L -1063.896313 144.971498 
L -1071.94439 145.780083 
L -1079.992467 144.030413 
L -1088.040544 147.483052 
L -1096.088621 145.996265 
L -1104.136698 149.301205 
L -1112.184775 151.539185 
L -1120.232852 151.916953 
L -1128.280929 154.8204 
L -1136.329005 157.008744 
L -1144.377082 156.539084 
L -1152.425159 157.737588 
L -1160.473236 157.814697 
L -1168.521313 159.514128 
L -1176.56939 158.553863 
L -1184.617467 161.077597 
L -1192.665544 162.87938 
L -1200.713621 163.810976 
L -1208.761698 164.234487 
L -1216.809775 164.511532 
L -1224.857852 167.310842 
L -1232.905929 167.739996 
L -1240.954005 169.371468 
L -1249.002082 171.925236 
L -1257.050159 172.558212 
L -1265.098236 169.756567 
L -1273.146313 170.285835 
L -1281.19439 173.16328 
L -1289.242467 173.300014 
L -1297.290544 175.227402 
L -1305.338621 176.569975 
L -1313.386698 175.539789 
L -1321.434775 176.302056 
L -1329.482852 177.315182 
L -1337.530929 179.284684 
L -1345.579005 176.748397 
L -1353.627082 177.630831 
L -1361.675159 177.496341 
L -1369.723236 180.402394 
L -1377.771313 179.898311 
L -1385.81939 178.08823 
L -1393.867467 179.589908 
L -1401.915544 181.145543 
L -1409.963621 176.663546 
L -1418.011698 180.593824 
L -1426.059775 175.357998 
L -1434.107852 175.058867 
L -1442.155929 173.961902 
L -1450.204005 175.126386 
L -1458.252082 175.433777 
L -1466.300159 174.765365 
L -1474.348236 172.271236 
L -1482.396313 174.145196 
L -1490.44439 168.055071 
L -1498.492467 161.131112 
L -1506.540544 162.853349 
L -1514.588621 166.241593 
L -1522.636698 157.298641 
L -1530.684775 157.719081 
L -1538.732852 155.606617 
L -1546.780929 155.050295 
L -1554.829005 144.015409 
L -1562.877082 143.104461 
L -1570.925159 139.06371 
L -1578.973236 130.410909 
L -1587.021313 124.245391 
L -1595.06939 131.009084 
L -1603.117467 127.877245 
L -1611.165544 122.462171 
L -1619.213621 120.081642 
L -1627.261698 115.653625 
L -1635.309775 109.736254 
L -1643.357852 112.347207 
L -1651.405929 101.56707 
L -1659.454005 96.321864 
L -1667.502082 93.790168 
L -1675.550159 91.835135 
L -1683.598236 93.050562 
L -1691.646313 90.389656 
L -1699.69439 92.662688 
L -1707.742467 95.910258 
L -1715.790544 90.96911 
L -1723.838621 90.575501 
L -1731.886698 95.652657 
L -1739.934775 96.851616 
L -1747.982852 95.031338 
L -1756.030929 105.341233 
L -1764.079005 98.304294 
L -1772.127082 100.871068 
L -1780.175159 108.775071 
L -1788.223236 106.74798 
L -1796.271313 109.751568 
L -1804.31939 112.459282 
L -1812.367467 115.618395 
L -1820.415544 118.630604 
L -1828.463621 122.021489 
L -1836.511698 125.169138 
L -1844.559775 127.768192 
L -1852.607852 131.5886 
L -1860.655929 132.290214 
L -1868.704005 137.544368 
L -1876.752082 137.669335 
L -1884.800159 140.33167 
L -1892.848236 143.298722 
L -1900.896313 145.543309 
L -1908.94439 148.352467 
L -1916.992467 150.545307 
L -1925.040544 153.75538 
L -1933.088621 155.678608 
L -1941.136698 158.03723 
L -1949.184775 160.810785 
L -1957.232852 163.639804 
L -1965.280929 165.353698 
L -1973.329005 168.085281 
L -1981.377082 169.939561 
L -1989.425159 172.749171 
L -1997.473236 174.920554 
L -2005.521313 177.079883 
L -2013.56939 179.473526 
L -2021.617467 181.59267 
L -2029.665544 183.390016 
L -2037.713621 185.727662 
L -2045.761698 186.901347 
L -2053.809775 189.79363 
L -2061.857852 191.736342 
L -2069.905929 193.444541 
L -2077.954005 195.538163 
L -2086.002082 196.806233 
L -2094.050159 198.658948 
L -2102.098236 200.560444 
L -2110.146313 202.657771 
L -2118.19439 204.25298 
L -2126.242467 205.821959 
L -2134.290544 207.537003 
L -2142.338621 209.185178 
L -2150.386698 210.963247 
L -2158.434775 212.373526 
L -2166.482852 213.912009 
L -2174.530929 215.159822 
L -2182.579005 216.909829 
L -2190.627082 218.158906 
L -2198.675159 219.581392 
L -2206.723236 221.366302 
L -2214.771313 222.585016 
L -2222.81939 222.902385 
L -2230.867467 224.360897 
L -2238.915544 225.080217 
L -2246.963621 226.485048 
L -2255.011698 228.129178 
L -2263.059775 228.947719 
L -2271.107852 229.710941 
L -2279.155929 229.817367 
L -2287.204005 230.621707 
L -2295.252082 231.077945 
L -2303.300159 231.575551 
L -2311.348236 232.735923 
L -2319.396313 233.387368 
L -2327.44439 234.349094 
L -2335.492467 233.710337 
L -2343.540544 234.214752 
L -2351.588621 233.24924 
L -2359.636698 234.608338 
L -2367.684775 234.767213 
L -2375.732852 235.748294 
L -2383.780929 233.491872 
L -2391.829005 236.110919 
L -2399.877082 235.849104 
L -2407.925159 234.27429 
L -2415.973236 233.84421 
L -2424.021313 235.179729 
L -2432.06939 237.51853 
L -2440.117467 236.55185 
L -2448.165544 236.462746 
L -2456.213621 234.026135 
L -2464.261698 233.960994 
L -2472.309775 234.614623 
L -2480.357852 236.043266 
L -2488.405929 235.5281 
L -2496.454005 235.188423 
L -2504.502082 235.38463 
L -2512.550159 236.247796 
L -2520.598236 236.004167 
L -2528.646313 236.539155 
L -2536.69439 237.452134 
L -2544.742467 236.750784 
L -2552.790544 238.091042 
L -2560.838621 238.269377 
L -2568.886698 238.402694 
L -2576.934775 239.239974 
L -2584.982852 239.427156 
L -2593.030929 240.36017 
L -2601.079005 241.382623 
L -2609.127082 241.36931 
L -2617.175159 240.91519 
L -2625.223236 240.582123 
L -2633.271313 242.782916 
L -2641.31939 242.370365 
L -2649.367467 243.84119 
L -2657.415544 243.842976 
L -2665.463621 243.24358 
L -2673.511698 244.70073 
L -2681.559775 243.299336 
L -2689.607852 243.346553 
L -2697.655929 245.205203 
L -2705.704005 243.830103 
L -2713.752082 245.586029 
L -2721.800159 246.135413 
L -2729.848236 244.6166 
L -2737.896313 239.828881 
L -2745.94439 242.859611 
L -2753.992467 241.381992 
L -2762.040544 234.271562 
L -2770.088621 240.299899 
L -2778.136698 241.525266 
L -2786.184775 234.94981 
L -2794.232852 233.138316 
L -2802.280929 236.640389 
L -2810.329005 229.513654 
L -2818.377082 217.020509 
L -2826.425159 230.768221 
L -2834.473236 236.176887 
L -2842.521313 238.854368 
L -2850.56939 221.712534 
L -2858.617467 222.435477 
L -2866.665544 213.791764 
L -2874.713621 207.040903 
L -2882.761698 220.665199 
L -2890.809775 214.865669 
L -2898.857852 202.730225 
L -2906.905929 194.20521 
L -2914.954005 194.763387 
L -2923.002082 196.270486 
L -2931.050159 194.486196 
L -2939.098236 193.45425 
L -2947.146313 198.377852 
L -2955.19439 197.833975 
L -2963.242467 194.680074 
L -2971.290544 196.668488 
L -2979.338621 195.391041 
L -2987.386698 194.936571 
L -2995.434775 195.124675 
L -3003.482852 197.092018 
L -3011.530929 198.272199 
L -3019.579005 198.972773 
L -3027.627082 200.683567 
L -3035.675159 201.516099 
L -3043.723236 202.912769 
L -3051.771313 205.081916 
L -3059.81939 206.81996 
L -3067.867467 208.008475 
L -3075.915544 209.321321 
L -3083.963621 211.030013 
L -3092.011698 212.122061 
L -3100.059775 213.759289 
L -3108.107852 215.735398 
L -3116.155929 216.934618 
L -3124.204005 217.770932 
L -3132.252082 219.00681 
L -3140.300159 220.283869 
L -3148.348236 221.438699 
L -3156.396313 222.538622 
L -3164.44439 223.59861 
L -3172.492467 225.04195 
L -3180.540544 225.804937 
L -3188.588621 226.86748 
L -3196.636698 227.982226 
L -3204.684775 228.939924 
L -3212.732852 229.884632 
L -3220.780929 230.678952 
L -3228.829005 231.522907 
L -3236.877082 232.63813 
L -3244.925159 233.423919 
L -3252.973236 234.338661 
L -3261.021313 235.083633 
L -3269.06939 235.913377 
L -3277.117467 236.76405 
L -3285.165544 237.629621 
L -3293.213621 238.359242 
L -3301.261698 239.200577 
L -3309.309775 239.93759 
L -3317.357852 240.726529 
L -3325.405929 241.461255 
L -3333.454005 242.218966 
L -3341.502082 242.925895 
L -3349.550159 243.678308 
L -3357.598236 244.481197 
L -3365.646313 245.106163 
L -3373.69439 245.866372 
L -3381.742467 246.518297 
L -3389.790544 247.267953 
L -3397.838621 247.817234 
L -3405.886698 248.514666 
L -3413.934775 249.179119 
L -3421.982852 249.81178 
L -3430.030929 250.455288 
L -3438.079005 251.050793 
L -3446.127082 251.7445 
L -3454.175159 252.369115 
L -3462.223236 252.884732 
L -3470.271313 253.496442 
L -3478.31939 254.107422 
L -3486.367467 254.715475 
L -3494.415544 255.302445 
L -3502.463621 255.850321 
L -3510.511698 256.452969 
L -3518.559775 257.043909 
L -3526.607852 257.637933 
L -3534.655929 258.229977 
L -3542.704005 258.838073 
L -3550.752082 259.470159 
L -3558.800159 260.015832 
L -3566.848236 260.639801 
L -3574.896313 261.252083 
L -3582.94439 261.840577 
L -3590.992467 262.447696 
L -3599.040544 263.067145 
L -3607.088621 263.668514 
L -3615.136698 264.299582 
L -3623.184775 264.875907 
L -3631.232852 265.464233 
L -3639.280929 266.085813 
L -3647.329005 266.686761 
L -3655.377082 267.257624 
L -3663.425159 267.861615 
L -3671.473236 268.414067 
L -3679.521313 269.004575 
L -3687.56939 269.633269 
L -3695.617467 270.174251 
L -3703.665544 270.778925 
L -3711.713621 271.352047 
L -3719.761698 271.952909 
L -3727.809775 272.497953 
L -3735.857852 273.133886 
L -3743.905929 273.66249 
L -3751.954005 274.254273 
L -3760.002082 274.833498 
L -3768.050159 275.427267 
L -3776.098236 275.992039 
L -3784.146313 276.567207 
L -3792.19439 277.144631 
L -3800.242467 277.741347 
L -3808.290544 278.296091 
L -3816.338621 278.824067 
L -3824.386698 279.345015 
L -3832.434775 279.868961 
L -3840.482852 280.375141 
L -3848.530929 280.889523 
L -3856.579005 281.397762 
L -3864.627082 281.883301 
L -3872.675159 282.37418 
L -3880.723236 282.862258 
L -3888.771313 283.30705 
L -3896.81939 283.759008 
L -3904.867467 284.229799 
L -3912.915544 284.67601 
L -3920.963621 285.075931 
L -3929.011698 285.515291 
L -3937.059775 285.917309 
L -3945.107852 286.288181 
L -3953.155929 286.658902 
L -3961.204005 287.005889 
L -3969.252082 287.37894 
L -3977.300159 287.688386 
L -3985.348236 288.014519 
L -3993.396313 288.321669 
L -4001.44439 288.606603 
L -4009.492467 288.866707 
L -4017.540544 289.103523 
L -4025.588621 289.338587 
L -4033.636698 289.571427 
L -4041.684775 289.76503 
L -4049.732852 289.980513 
L -4057.780929 290.163676 
L -4065.829005 290.322086 
L -4073.877082 290.506826 
L -4081.925159 290.668948 
L -4089.973236 290.803823 
L -4098.021313 290.948158 
L -4106.06939 291.088509 
L -4114.117467 291.212304 
L -4122.165544 291.33645 
L -4130.213621 291.439682 
L -4138.261698 291.563622 
L -4146.309775 291.662841 
L -4154.357852 291.766907 
L -4162.405929 291.875897 
L -4170.454005 291.96534 
L -4178.502082 292.059882 
L -4186.550159 292.182569 
L -4194.598236 292.270005 
L -4202.646313 292.376458 
L -4210.69439 292.461226 
L -4218.742467 292.573144 
L -4226.790544 292.662174 
L -4234.838621 292.756046 
L -4242.886698 292.838273 
L -4250.934775 292.912772 
L -4258.982852 292.997682 
L -4267.030929 293.090773 
L -4275.079005 293.181413 
L -4283.127082 293.258876 
L -4291.175159 293.32147 
L -4299.223236 293.410942 
L -4307.271313 293.484437 
L -4315.31939 293.572686 
z
" clip-path="url(#pf8b701b27e)" style="fill: #008000; fill-opacity: 0.3; stroke: #008000; stroke-opacity: 0.3"/>
   </g>
   <g id="matplotlib.axis_1">
    <g id="xtick_1">
     <g id="line2d_1">
      <defs>
       <path id="mc3ecc17b37" d="M 0 0 
L 0 3.5 
" style="stroke: #000000; stroke-width: 0.8"/>
      </defs>
      <g>
       <use xlink:href="#mc3ecc17b37" x="103.074841" y="395.28" style="stroke: #000000; stroke-width: 0.8"/>
      </g>
     </g>
     <g id="text_1">
      <!-- 2023-01-01 -->
      <g transform="translate(17.945813 495.213718) rotate(-45) scale(0.2 -0.2)">
       <defs>
        <path id="DejaVuSans-32" d="M 1228 531 
L 3431 531 
L 3431 0 
L 469 0 
L 469 531 
Q 828 903 1448 1529 
Q 2069 2156 2228 2338 
Q 2531 2678 2651 2914 
Q 2772 3150 2772 3378 
Q 2772 3750 2511 3984 
Q 2250 4219 1831 4219 
Q 1534 4219 1204 4116 
Q 875 4013 500 3803 
L 500 4441 
Q 881 4594 1212 4672 
Q 1544 4750 1819 4750 
Q 2544 4750 2975 4387 
Q 3406 4025 3406 3419 
Q 3406 3131 3298 2873 
Q 3191 2616 2906 2266 
Q 2828 2175 2409 1742 
Q 1991 1309 1228 531 
z
" transform="scale(0.015625)"/>
        <path id="DejaVuSans-30" d="M 2034 4250 
Q 1547 4250 1301 3770 
Q 1056 3291 1056 2328 
Q 1056 1369 1301 889 
Q 1547 409 2034 409 
Q 2525 409 2770 889 
Q 3016 1369 3016 2328 
Q 3016 3291 2770 3770 
Q 2525 4250 2034 4250 
z
M 2034 4750 
Q 2819 4750 3233 4129 
Q 3647 3509 3647 2328 
Q 3647 1150 3233 529 
Q 2819 -91 2034 -91 
Q 1250 -91 836 529 
Q 422 1150 422 2328 
Q 422 3509 836 4129 
Q 1250 4750 2034 4750 
z
" transform="scale(0.015625)"/>
        <path id="DejaVuSans-33" d="M 2597 2516 
Q 3050 2419 3304 2112 
Q 3559 1806 3559 1356 
Q 3559 666 3084 287 
Q 2609 -91 1734 -91 
Q 1441 -91 1130 -33 
Q 819 25 488 141 
L 488 750 
Q 750 597 1062 519 
Q 1375 441 1716 441 
Q 2309 441 2620 675 
Q 2931 909 2931 1356 
Q 2931 1769 2642 2001 
Q 2353 2234 1838 2234 
L 1294 2234 
L 1294 2753 
L 1863 2753 
Q 2328 2753 2575 2939 
Q 2822 3125 2822 3475 
Q 2822 3834 2567 4026 
Q 2313 4219 1838 4219 
Q 1578 4219 1281 4162 
Q 984 4106 628 3988 
L 628 4550 
Q 988 4650 1302 4700 
Q 1616 4750 1894 4750 
Q 2613 4750 3031 4423 
Q 3450 4097 3450 3541 
Q 3450 3153 3228 2886 
Q 3006 2619 2597 2516 
z
" transform="scale(0.015625)"/>
        <path id="DejaVuSans-2d" d="M 313 2009 
L 1997 2009 
L 1997 1497 
L 313 1497 
L 313 2009 
z
" transform="scale(0.015625)"/>
        <path id="DejaVuSans-31" d="M 794 531 
L 1825 531 
L 1825 4091 
L 703 3866 
L 703 4441 
L 1819 4666 
L 2450 4666 
L 2450 531 
L 3481 531 
L 3481 0 
L 794 0 
L 794 531 
z
" transform="scale(0.015625)"/>
       </defs>
       <use xlink:href="#DejaVuSans-32"/>
       <use xlink:href="#DejaVuSans-30" x="63.623047"/>
       <use xlink:href="#DejaVuSans-32" x="127.246094"/>
       <use xlink:href="#DejaVuSans-33" x="190.869141"/>
       <use xlink:href="#DejaVuSans-2d" x="254.492188"/>
       <use xlink:href="#DejaVuSans-30" x="290.576172"/>
       <use xlink:href="#DejaVuSans-31" x="354.199219"/>
       <use xlink:href="#DejaVuSans-2d" x="417.822266"/>
       <use xlink:href="#DejaVuSans-30" x="453.90625"/>
       <use xlink:href="#DejaVuSans-31" x="517.529297"/>
      </g>
     </g>
    </g>
    <g id="xtick_2">
     <g id="line2d_2">
      <g>
       <use xlink:href="#mc3ecc17b37" x="215.747918" y="395.28" style="stroke: #000000; stroke-width: 0.8"/>
      </g>
     </g>
     <g id="text_2">
      <!-- 2023-01-15 -->
      <g transform="translate(130.61889 495.213718) rotate(-45) scale(0.2 -0.2)">
       <defs>
        <path id="DejaVuSans-35" d="M 691 4666 
L 3169 4666 
L 3169 4134 
L 1269 4134 
L 1269 2991 
Q 1406 3038 1543 3061 
Q 1681 3084 1819 3084 
Q 2600 3084 3056 2656 
Q 3513 2228 3513 1497 
Q 3513 744 3044 326 
Q 2575 -91 1722 -91 
Q 1428 -91 1123 -41 
Q 819 9 494 109 
L 494 744 
Q 775 591 1075 516 
Q 1375 441 1709 441 
Q 2250 441 2565 725 
Q 2881 1009 2881 1497 
Q 2881 1984 2565 2268 
Q 2250 2553 1709 2553 
Q 1456 2553 1204 2497 
Q 953 2441 691 2322 
L 691 4666 
z
" transform="scale(0.015625)"/>
       </defs>
       <use xlink:href="#DejaVuSans-32"/>
       <use xlink:href="#DejaVuSans-30" x="63.623047"/>
       <use xlink:href="#DejaVuSans-32" x="127.246094"/>
       <use xlink:href="#DejaVuSans-33" x="190.869141"/>
       <use xlink:href="#DejaVuSans-2d" x="254.492188"/>
       <use xlink:href="#DejaVuSans-30" x="290.576172"/>
       <use xlink:href="#DejaVuSans-31" x="354.199219"/>
       <use xlink:href="#DejaVuSans-2d" x="417.822266"/>
       <use xlink:href="#DejaVuSans-31" x="453.90625"/>
       <use xlink:href="#DejaVuSans-35" x="517.529297"/>
      </g>
     </g>
    </g>
    <g id="xtick_3">
     <g id="line2d_3">
      <g>
       <use xlink:href="#mc3ecc17b37" x="328.420995" y="395.28" style="stroke: #000000; stroke-width: 0.8"/>
      </g>
     </g>
     <g id="text_3">
      <!-- 2023-01-29 -->
      <g transform="translate(243.291967 495.213718) rotate(-45) scale(0.2 -0.2)">
       <defs>
        <path id="DejaVuSans-39" d="M 703 97 
L 703 672 
Q 941 559 1184 500 
Q 1428 441 1663 441 
Q 2288 441 2617 861 
Q 2947 1281 2994 2138 
Q 2813 1869 2534 1725 
Q 2256 1581 1919 1581 
Q 1219 1581 811 2004 
Q 403 2428 403 3163 
Q 403 3881 828 4315 
Q 1253 4750 1959 4750 
Q 2769 4750 3195 4129 
Q 3622 3509 3622 2328 
Q 3622 1225 3098 567 
Q 2575 -91 1691 -91 
Q 1453 -91 1209 -44 
Q 966 3 703 97 
z
M 1959 2075 
Q 2384 2075 2632 2365 
Q 2881 2656 2881 3163 
Q 2881 3666 2632 3958 
Q 2384 4250 1959 4250 
Q 1534 4250 1286 3958 
Q 1038 3666 1038 3163 
Q 1038 2656 1286 2365 
Q 1534 2075 1959 2075 
z
" transform="scale(0.015625)"/>
       </defs>
       <use xlink:href="#DejaVuSans-32"/>
       <use xlink:href="#DejaVuSans-30" x="63.623047"/>
       <use xlink:href="#DejaVuSans-32" x="127.246094"/>
       <use xlink:href="#DejaVuSans-33" x="190.869141"/>
       <use xlink:href="#DejaVuSans-2d" x="254.492188"/>
       <use xlink:href="#DejaVuSans-30" x="290.576172"/>
       <use xlink:href="#DejaVuSans-31" x="354.199219"/>
       <use xlink:href="#DejaVuSans-2d" x="417.822266"/>
       <use xlink:href="#DejaVuSans-32" x="453.90625"/>
       <use xlink:href="#DejaVuSans-39" x="517.529297"/>
      </g>
     </g>
    </g>
    <g id="xtick_4">
     <g id="line2d_4">
      <g>
       <use xlink:href="#mc3ecc17b37" x="441.094071" y="395.28" style="stroke: #000000; stroke-width: 0.8"/>
      </g>
     </g>
     <g id="text_4">
      <!-- 2023-02-12 -->
      <g transform="translate(355.965044 495.213718) rotate(-45) scale(0.2 -0.2)">
       <use xlink:href="#DejaVuSans-32"/>
       <use xlink:href="#DejaVuSans-30" x="63.623047"/>
       <use xlink:href="#DejaVuSans-32" x="127.246094"/>
       <use xlink:href="#DejaVuSans-33" x="190.869141"/>
       <use xlink:href="#DejaVuSans-2d" x="254.492188"/>
       <use xlink:href="#DejaVuSans-30" x="290.576172"/>
       <use xlink:href="#DejaVuSans-32" x="354.199219"/>
       <use xlink:href="#DejaVuSans-2d" x="417.822266"/>
       <use xlink:href="#DejaVuSans-31" x="453.90625"/>
       <use xlink:href="#DejaVuSans-32" x="517.529297"/>
      </g>
     </g>
    </g>
    <g id="xtick_5">
     <g id="line2d_5">
      <g>
       <use xlink:href="#mc3ecc17b37" x="553.767148" y="395.28" style="stroke: #000000; stroke-width: 0.8"/>
      </g>
     </g>
     <g id="text_5">
      <!-- 2023-02-26 -->
      <g transform="translate(468.638121 495.213718) rotate(-45) scale(0.2 -0.2)">
       <defs>
        <path id="DejaVuSans-36" d="M 2113 2584 
Q 1688 2584 1439 2293 
Q 1191 2003 1191 1497 
Q 1191 994 1439 701 
Q 1688 409 2113 409 
Q 2538 409 2786 701 
Q 3034 994 3034 1497 
Q 3034 2003 2786 2293 
Q 2538 2584 2113 2584 
z
M 3366 4563 
L 3366 3988 
Q 3128 4100 2886 4159 
Q 2644 4219 2406 4219 
Q 1781 4219 1451 3797 
Q 1122 3375 1075 2522 
Q 1259 2794 1537 2939 
Q 1816 3084 2150 3084 
Q 2853 3084 3261 2657 
Q 3669 2231 3669 1497 
Q 3669 778 3244 343 
Q 2819 -91 2113 -91 
Q 1303 -91 875 529 
Q 447 1150 447 2328 
Q 447 3434 972 4092 
Q 1497 4750 2381 4750 
Q 2619 4750 2861 4703 
Q 3103 4656 3366 4563 
z
" transform="scale(0.015625)"/>
       </defs>
       <use xlink:href="#DejaVuSans-32"/>
       <use xlink:href="#DejaVuSans-30" x="63.623047"/>
       <use xlink:href="#DejaVuSans-32" x="127.246094"/>
       <use xlink:href="#DejaVuSans-33" x="190.869141"/>
       <use xlink:href="#DejaVuSans-2d" x="254.492188"/>
       <use xlink:href="#DejaVuSans-30" x="290.576172"/>
       <use xlink:href="#DejaVuSans-32" x="354.199219"/>
       <use xlink:href="#DejaVuSans-2d" x="417.822266"/>
       <use xlink:href="#DejaVuSans-32" x="453.90625"/>
       <use xlink:href="#DejaVuSans-36" x="517.529297"/>
      </g>
     </g>
    </g>
    <g id="xtick_6">
     <g id="line2d_6">
      <g>
       <use xlink:href="#mc3ecc17b37" x="666.440225" y="395.28" style="stroke: #000000; stroke-width: 0.8"/>
      </g>
     </g>
     <g id="text_6">
      <!-- 2023-03-12 -->
      <g transform="translate(581.311198 495.213718) rotate(-45) scale(0.2 -0.2)">
       <use xlink:href="#DejaVuSans-32"/>
       <use xlink:href="#DejaVuSans-30" x="63.623047"/>
       <use xlink:href="#DejaVuSans-32" x="127.246094"/>
       <use xlink:href="#DejaVuSans-33" x="190.869141"/>
       <use xlink:href="#DejaVuSans-2d" x="254.492188"/>
       <use xlink:href="#DejaVuSans-30" x="290.576172"/>
       <use xlink:href="#DejaVuSans-33" x="354.199219"/>
       <use xlink:href="#DejaVuSans-2d" x="417.822266"/>
       <use xlink:href="#DejaVuSans-31" x="453.90625"/>
       <use xlink:href="#DejaVuSans-32" x="517.529297"/>
      </g>
     </g>
    </g>
    <g id="xtick_7">
     <g id="line2d_7">
      <g>
       <use xlink:href="#mc3ecc17b37" x="779.113302" y="395.28" style="stroke: #000000; stroke-width: 0.8"/>
      </g>
     </g>
     <g id="text_7">
      <!-- 2023-03-26 -->
      <g transform="translate(693.984275 495.213718) rotate(-45) scale(0.2 -0.2)">
       <use xlink:href="#DejaVuSans-32"/>
       <use xlink:href="#DejaVuSans-30" x="63.623047"/>
       <use xlink:href="#DejaVuSans-32" x="127.246094"/>
       <use xlink:href="#DejaVuSans-33" x="190.869141"/>
       <use xlink:href="#DejaVuSans-2d" x="254.492188"/>
       <use xlink:href="#DejaVuSans-30" x="290.576172"/>
       <use xlink:href="#DejaVuSans-33" x="354.199219"/>
       <use xlink:href="#DejaVuSans-2d" x="417.822266"/>
       <use xlink:href="#DejaVuSans-32" x="453.90625"/>
       <use xlink:href="#DejaVuSans-36" x="517.529297"/>
      </g>
     </g>
    </g>
    <g id="xtick_8">
     <g id="line2d_8">
      <g>
       <use xlink:href="#mc3ecc17b37" x="891.786379" y="395.28" style="stroke: #000000; stroke-width: 0.8"/>
      </g>
     </g>
     <g id="text_8">
      <!-- 2023-04-09 -->
      <g transform="translate(806.657352 495.213718) rotate(-45) scale(0.2 -0.2)">
       <defs>
        <path id="DejaVuSans-34" d="M 2419 4116 
L 825 1625 
L 2419 1625 
L 2419 4116 
z
M 2253 4666 
L 3047 4666 
L 3047 1625 
L 3713 1625 
L 3713 1100 
L 3047 1100 
L 3047 0 
L 2419 0 
L 2419 1100 
L 313 1100 
L 313 1709 
L 2253 4666 
z
" transform="scale(0.015625)"/>
       </defs>
       <use xlink:href="#DejaVuSans-32"/>
       <use xlink:href="#DejaVuSans-30" x="63.623047"/>
       <use xlink:href="#DejaVuSans-32" x="127.246094"/>
       <use xlink:href="#DejaVuSans-33" x="190.869141"/>
       <use xlink:href="#DejaVuSans-2d" x="254.492188"/>
       <use xlink:href="#DejaVuSans-30" x="290.576172"/>
       <use xlink:href="#DejaVuSans-34" x="354.199219"/>
       <use xlink:href="#DejaVuSans-2d" x="417.822266"/>
       <use xlink:href="#DejaVuSans-30" x="453.90625"/>
       <use xlink:href="#DejaVuSans-39" x="517.529297"/>
      </g>
     </g>
    </g>
    <g id="xtick_9">
     <g id="line2d_9">
      <g>
       <use xlink:href="#mc3ecc17b37" x="940.074841" y="395.28" style="stroke: #000000; stroke-width: 0.8"/>
      </g>
     </g>
     <g id="text_9">
      <!-- 2023-04-15 -->
      <g transform="translate(854.945813 495.213718) rotate(-45) scale(0.2 -0.2)">
       <use xlink:href="#DejaVuSans-32"/>
       <use xlink:href="#DejaVuSans-30" x="63.623047"/>
       <use xlink:href="#DejaVuSans-32" x="127.246094"/>
       <use xlink:href="#DejaVuSans-33" x="190.869141"/>
       <use xlink:href="#DejaVuSans-2d" x="254.492188"/>
       <use xlink:href="#DejaVuSans-30" x="290.576172"/>
       <use xlink:href="#DejaVuSans-34" x="354.199219"/>
       <use xlink:href="#DejaVuSans-2d" x="417.822266"/>
       <use xlink:href="#DejaVuSans-31" x="453.90625"/>
       <use xlink:href="#DejaVuSans-35" x="517.529297"/>
      </g>
     </g>
    </g>
   </g>
   <g id="matplotlib.axis_2">
    <g id="ytick_1">
     <g id="line2d_10">
      <defs>
       <path id="mf6a38c2b43" d="M 0 0 
L -3.5 0 
" style="stroke: #000000; stroke-width: 0.8"/>
      </defs>
      <g>
       <use xlink:href="#mf6a38c2b43" x="103.074841" y="356.868669" style="stroke: #000000; stroke-width: 0.8"/>
      </g>
     </g>
     <g id="text_10">
      <!-- −0.05 -->
      <g transform="translate(34.784216 364.467107) scale(0.2 -0.2)">
       <defs>
        <path id="DejaVuSans-2212" d="M 678 2272 
L 4684 2272 
L 4684 1741 
L 678 1741 
L 678 2272 
z
" transform="scale(0.015625)"/>
        <path id="DejaVuSans-2e" d="M 684 794 
L 1344 794 
L 1344 0 
L 684 0 
L 684 794 
z
" transform="scale(0.015625)"/>
       </defs>
       <use xlink:href="#DejaVuSans-2212"/>
       <use xlink:href="#DejaVuSans-30" x="83.789062"/>
       <use xlink:href="#DejaVuSans-2e" x="147.412109"/>
       <use xlink:href="#DejaVuSans-30" x="179.199219"/>
       <use xlink:href="#DejaVuSans-35" x="242.822266"/>
      </g>
     </g>
    </g>
    <g id="ytick_2">
     <g id="line2d_11">
      <g>
       <use xlink:href="#mf6a38c2b43" x="103.074841" y="293.656364" style="stroke: #000000; stroke-width: 0.8"/>
      </g>
     </g>
     <g id="text_11">
      <!-- 0.00 -->
      <g transform="translate(51.543591 301.254801) scale(0.2 -0.2)">
       <use xlink:href="#DejaVuSans-30"/>
       <use xlink:href="#DejaVuSans-2e" x="63.623047"/>
       <use xlink:href="#DejaVuSans-30" x="95.410156"/>
       <use xlink:href="#DejaVuSans-30" x="159.033203"/>
      </g>
     </g>
    </g>
    <g id="ytick_3">
     <g id="line2d_12">
      <g>
       <use xlink:href="#mf6a38c2b43" x="103.074841" y="230.444058" style="stroke: #000000; stroke-width: 0.8"/>
      </g>
     </g>
     <g id="text_12">
      <!-- 0.05 -->
      <g transform="translate(51.543591 238.042496) scale(0.2 -0.2)">
       <use xlink:href="#DejaVuSans-30"/>
       <use xlink:href="#DejaVuSans-2e" x="63.623047"/>
       <use xlink:href="#DejaVuSans-30" x="95.410156"/>
       <use xlink:href="#DejaVuSans-35" x="159.033203"/>
      </g>
     </g>
    </g>
    <g id="ytick_4">
     <g id="line2d_13">
      <g>
       <use xlink:href="#mf6a38c2b43" x="103.074841" y="167.231752" style="stroke: #000000; stroke-width: 0.8"/>
      </g>
     </g>
     <g id="text_13">
      <!-- 0.10 -->
      <g transform="translate(51.543591 174.83019) scale(0.2 -0.2)">
       <use xlink:href="#DejaVuSans-30"/>
       <use xlink:href="#DejaVuSans-2e" x="63.623047"/>
       <use xlink:href="#DejaVuSans-31" x="95.410156"/>
       <use xlink:href="#DejaVuSans-30" x="159.033203"/>
      </g>
     </g>
    </g>
    <g id="ytick_5">
     <g id="line2d_14">
      <g>
       <use xlink:href="#mf6a38c2b43" x="103.074841" y="104.019447" style="stroke: #000000; stroke-width: 0.8"/>
      </g>
     </g>
     <g id="text_14">
      <!-- 0.15 -->
      <g transform="translate(51.543591 111.617884) scale(0.2 -0.2)">
       <use xlink:href="#DejaVuSans-30"/>
       <use xlink:href="#DejaVuSans-2e" x="63.623047"/>
       <use xlink:href="#DejaVuSans-31" x="95.410156"/>
       <use xlink:href="#DejaVuSans-35" x="159.033203"/>
      </g>
     </g>
    </g>
    <g id="ytick_6">
     <g id="line2d_15">
      <g>
       <use xlink:href="#mf6a38c2b43" x="103.074841" y="40.807141" style="stroke: #000000; stroke-width: 0.8"/>
      </g>
     </g>
     <g id="text_15">
      <!-- 0.20 -->
      <g transform="translate(51.543591 48.405579) scale(0.2 -0.2)">
       <use xlink:href="#DejaVuSans-30"/>
       <use xlink:href="#DejaVuSans-2e" x="63.623047"/>
       <use xlink:href="#DejaVuSans-32" x="95.410156"/>
       <use xlink:href="#DejaVuSans-30" x="159.033203"/>
      </g>
     </g>
    </g>
   </g>
   <g id="line2d_16">
    <path d="M 223.795995 53.819307 
L 231.844071 53.819307 
L 239.892148 24.84 
L 247.940225 138.026107 
L 255.988302 195.906197 
L 264.036379 195.906197 
L 272.084456 189.347213 
L 304.276764 189.347213 
L 312.324841 270.622379 
L 328.420995 270.622379 
L 336.469071 247.320723 
L 344.517148 252.9461 
L 352.565225 252.9461 
L 360.613302 290.371766 
L 368.661379 336.853042 
L 376.709456 276.631327 
L 384.757533 259.014177 
L 392.80561 271.549445 
L 400.853687 271.549445 
L 408.901764 252.054644 
L 424.997918 252.054644 
L 433.045995 230.045737 
L 441.094071 222.195185 
L 449.142148 222.195185 
L 457.190225 259.017388 
L 465.238302 251.672392 
L 473.286379 251.672392 
L 481.334456 253.197636 
L 489.382533 222.197258 
L 497.43061 289.671242 
L 505.478687 300.739951 
L 513.526764 281.068998 
L 521.574841 272.019489 
L 529.622918 297.497866 
L 553.767148 297.497866 
L 561.815225 305.836688 
L 569.863302 305.836688 
L 577.911379 292.316141 
L 585.959456 304.663408 
L 594.007533 304.663408 
L 602.05561 294.691805 
L 610.103687 286.191342 
L 618.151764 263.841055 
L 626.199841 276.219101 
L 634.247918 275.459646 
L 642.295995 281.08064 
L 650.344071 284.537848 
L 674.488302 284.537848 
L 682.536379 281.272376 
L 698.632533 281.272376 
L 706.68061 284.458281 
L 714.728687 284.458281 
L 722.776764 273.069 
L 730.824841 273.239785 
L 738.872918 287.870566 
L 746.920995 294.19942 
L 754.969071 336.38222 
L 763.017148 360.266562 
L 771.065225 350.825778 
L 795.209456 350.825778 
L 803.257533 377.64 
L 811.30561 377.64 
L 819.353687 260.04878 
L 827.401764 250.857855 
L 835.449841 250.857855 
L 843.497918 276.187594 
L 851.545995 309.976138 
L 859.594071 299.844447 
L 867.642148 287.685988 
L 875.690225 259.957313 
L 883.738302 239.501486 
L 915.93061 239.501486 
L 923.978687 215.464466 
L 932.026764 215.464466 
L 940.074841 333.055687 
L 940.074841 333.055687 
" clip-path="url(#pf8b701b27e)" style="fill: none; stroke: #ffa500; stroke-width: 1.5; stroke-linecap: square"/>
   </g>
   <g id="line2d_17">
    <path d="M 103.074841 293.656364 
L 948.274841 293.656364 
" clip-path="url(#pf8b701b27e)" style="fill: none; stroke-dasharray: 7.4,3.2; stroke-dashoffset: 0; stroke: #000000; stroke-width: 2"/>
   </g>
   <g id="patch_3">
    <path d="M 103.074841 395.28 
L 103.074841 7.2 
" style="fill: none; stroke: #000000; stroke-width: 0.8; stroke-linejoin: miter; stroke-linecap: square"/>
   </g>
   <g id="patch_4">
    <path d="M 940.074841 395.28 
L 940.074841 7.2 
" style="fill: none; stroke: #000000; stroke-width: 0.8; stroke-linejoin: miter; stroke-linecap: square"/>
   </g>
   <g id="patch_5">
    <path d="M 103.074841 395.28 
L 940.074841 395.28 
" style="fill: none; stroke: #000000; stroke-width: 0.8; stroke-linejoin: miter; stroke-linecap: square"/>
   </g>
   <g id="patch_6">
    <path d="M 103.074841 7.2 
L 940.074841 7.2 
" style="fill: none; stroke: #000000; stroke-width: 0.8; stroke-linejoin: miter; stroke-linecap: square"/>
   </g>
  </g>
 </g>
 <defs>
  <clipPath id="pf8b701b27e">
   <rect x="103.074841" y="7.2" width="837" height="388.08"/>
  </clipPath>
 </defs>
</svg>
