<?xml version="1.0" encoding="utf-8" standalone="no"?>
<!DOCTYPE svg PUBLIC "-//W3C//DTD SVG 1.1//EN"
  "http://www.w3.org/Graphics/SVG/1.1/DTD/svg11.dtd">
<svg xmlns:xlink="http://www.w3.org/1999/xlink" width="947.274841pt" height="505.354841pt" viewBox="0 0 947.274841 505.354841" xmlns="http://www.w3.org/2000/svg" version="1.1">
 <metadata>
  <rdf:RDF xmlns:dc="http://purl.org/dc/elements/1.1/" xmlns:cc="http://creativecommons.org/ns#" xmlns:rdf="http://www.w3.org/1999/02/22-rdf-syntax-ns#">
   <cc:Work>
    <dc:type rdf:resource="http://purl.org/dc/dcmitype/StillImage"/>
    <dc:date>2023-11-12T23:20:26.689961</dc:date>
    <dc:format>image/svg+xml</dc:format>
    <dc:creator>
     <cc:Agent>
      <dc:title>Matplotlib v3.7.2, https://matplotlib.org/</dc:title>
     </cc:Agent>
    </dc:creator>
   </cc:Work>
  </rdf:RDF>
 </metadata>
 <defs>
  <style type="text/css">*{stroke-linejoin: round; stroke-linecap: butt}</style>
 </defs>
 <g id="figure_1">
  <g id="patch_1">
   <path d="M 0 505.354841 
L 947.274841 505.354841 
L 947.274841 -0 
L 0 -0 
z
" style="fill: #ffffff"/>
  </g>
  <g id="axes_1">
   <g id="patch_2">
    <path d="M 103.074841 395.28 
L 940.074841 395.28 
L 940.074841 7.2 
L 103.074841 7.2 
z
" style="fill: #ffffff"/>
   </g>
   <g id="PolyCollection_1">
    <path d="M -393.000769 325.563855 
L -393.000769 325.589488 
L -390.959306 325.468886 
L -388.917842 325.362624 
L -386.876379 325.227845 
L -384.834915 325.134904 
L -382.793452 325.017441 
L -380.751989 324.88146 
L -378.710525 324.752554 
L -376.669062 324.635582 
L -374.627598 324.530822 
L -372.586135 324.411793 
L -370.544672 324.287517 
L -368.503208 324.166063 
L -366.461745 324.020232 
L -364.420281 323.896529 
L -362.378818 323.753456 
L -360.337354 323.628362 
L -358.295891 323.464856 
L -356.254428 323.32718 
L -354.212964 323.193659 
L -352.171501 323.038596 
L -350.130037 322.886626 
L -348.088574 322.737246 
L -346.047111 322.560297 
L -344.005647 322.402614 
L -341.964184 322.220696 
L -339.92272 322.036111 
L -337.881257 321.833324 
L -335.839793 321.624658 
L -333.79833 321.419085 
L -331.756867 321.183706 
L -329.715403 320.919394 
L -327.67394 320.68064 
L -325.632476 320.411549 
L -323.591013 320.106623 
L -321.54955 319.819284 
L -319.508086 319.485929 
L -317.466623 319.14605 
L -315.425159 318.795063 
L -313.383696 318.424425 
L -311.342232 318.015625 
L -309.300769 317.580731 
L -307.259306 317.120088 
L -305.217842 316.672209 
L -303.176379 316.151845 
L -301.134915 315.652267 
L -299.093452 315.121165 
L -297.051989 314.585927 
L -295.010525 314.011818 
L -292.969062 313.39287 
L -290.927598 312.81344 
L -288.886135 312.173297 
L -286.844672 311.511133 
L -284.803208 310.859299 
L -282.761745 310.211907 
L -280.720281 309.5138 
L -278.678818 308.807535 
L -276.637354 308.101164 
L -274.595891 307.367039 
L -272.554428 306.623637 
L -270.512964 305.881112 
L -268.471501 305.114891 
L -266.430037 304.346138 
L -264.388574 303.586995 
L -262.347111 302.798954 
L -260.305647 301.960653 
L -258.264184 301.145301 
L -256.22272 300.331165 
L -254.181257 299.528185 
L -252.139793 298.695353 
L -250.09833 297.879941 
L -248.056867 297.051987 
L -246.015403 296.296924 
L -243.97394 295.422547 
L -241.932476 294.654649 
L -239.891013 293.821715 
L -237.84955 293.032892 
L -235.808086 292.211401 
L -233.766623 291.466592 
L -231.725159 290.623891 
L -229.683696 289.835532 
L -227.642232 289.091365 
L -225.600769 288.289195 
L -223.559306 287.526418 
L -221.517842 286.74241 
L -219.476379 285.94352 
L -217.434915 285.172995 
L -215.393452 284.416389 
L -213.351989 283.615999 
L -211.310525 282.845962 
L -209.269062 282.059948 
L -207.227598 281.285888 
L -205.186135 280.528682 
L -203.144672 279.753457 
L -201.103208 278.971933 
L -199.061745 278.260745 
L -197.020281 277.466754 
L -194.978818 276.703381 
L -192.937354 275.951943 
L -190.895891 275.200386 
L -188.854428 274.451164 
L -186.812964 273.69396 
L -184.771501 272.96878 
L -182.730037 272.218247 
L -180.688574 271.45159 
L -178.647111 270.677641 
L -176.605647 269.896471 
L -174.564184 269.160457 
L -172.52272 268.35851 
L -170.481257 267.508554 
L -168.439793 266.705388 
L -166.39833 265.862408 
L -164.356867 265.007156 
L -162.315403 264.108047 
L -160.27394 263.19345 
L -158.232476 262.337014 
L -156.191013 261.370856 
L -154.14955 260.447555 
L -152.108086 259.459183 
L -150.066623 258.543387 
L -148.025159 257.480748 
L -145.983696 256.436135 
L -143.942232 255.417231 
L -141.900769 254.380886 
L -139.859306 253.31412 
L -137.817842 252.202182 
L -135.776379 251.152852 
L -133.734915 249.963379 
L -131.693452 248.904379 
L -129.651989 247.680064 
L -127.610525 246.489207 
L -125.569062 245.322429 
L -123.527598 244.197564 
L -121.486135 242.900368 
L -119.444672 241.716706 
L -117.403208 240.238708 
L -115.361745 238.950299 
L -113.320281 237.739961 
L -111.278818 236.385178 
L -109.237354 234.995837 
L -107.195891 233.410687 
L -105.154428 231.914173 
L -103.112964 230.641366 
L -101.071501 228.698203 
L -99.030037 227.10718 
L -96.988574 225.479754 
L -94.947111 223.791617 
L -92.905647 221.884432 
L -90.864184 220.076088 
L -88.82272 218.66517 
L -86.781257 217.079064 
L -84.739793 214.514331 
L -82.69833 212.400183 
L -80.656867 211.083217 
L -78.615403 208.846474 
L -76.57394 207.215325 
L -74.532476 205.701202 
L -72.491013 203.594747 
L -70.44955 200.727038 
L -68.408086 198.969768 
L -66.366623 197.979421 
L -64.325159 195.841976 
L -62.283696 195.027616 
L -60.242232 193.619555 
L -58.200769 191.077752 
L -56.159306 191.089236 
L -54.117842 191.883594 
L -52.076379 193.762081 
L -50.034915 191.29995 
L -47.993452 195.69937 
L -45.951989 196.56075 
L -43.910525 190.277043 
L -41.869062 191.874781 
L -39.827598 194.46071 
L -37.786135 192.732799 
L -35.744672 192.286912 
L -33.703208 203.844576 
L -31.661745 220.330118 
L -29.620281 228.496293 
L -27.578818 210.419307 
L -25.537354 219.604399 
L -23.495891 231.665576 
L -21.454428 230.909519 
L -19.412964 255.530004 
L -17.371501 252.127266 
L -15.330037 244.553076 
L -13.288574 225.835037 
L -11.247111 243.393129 
L -9.205647 253.947589 
L -7.164184 249.520214 
L -5.12272 252.268695 
L -3.081257 262.238052 
L -1.039793 260.9055 
L 1.00167 252.305435 
L 3.043133 263.107585 
L 5.084597 265.248043 
L 7.12606 261.387748 
L 9.167524 268.242882 
L 11.208987 270.745586 
L 13.25045 270.064559 
L 15.291914 267.978894 
L 17.333377 270.225907 
L 19.374841 267.91733 
L 21.416304 268.107719 
L 23.457768 270.243547 
L 25.499231 268.2107 
L 27.540694 269.247164 
L 29.582158 269.289967 
L 31.623621 267.63946 
L 33.665085 268.221732 
L 35.706548 265.845959 
L 37.748011 265.980262 
L 39.789475 266.608191 
L 41.830938 266.616814 
L 43.872402 265.437205 
L 45.913865 264.421045 
L 47.955328 264.135546 
L 49.996792 263.010315 
L 52.038255 262.795218 
L 54.079719 262.542474 
L 56.121182 260.846508 
L 58.162646 261.567813 
L 60.204109 260.425357 
L 62.245572 259.897679 
L 64.287036 259.869085 
L 66.328499 258.744825 
L 68.369963 258.419432 
L 70.411426 258.719168 
L 72.452889 259.247003 
L 74.494353 257.448111 
L 76.535816 257.091842 
L 78.57728 256.459952 
L 80.618743 259.408964 
L 82.660207 259.424079 
L 84.70167 260.532413 
L 86.743133 257.608099 
L 88.784597 255.786359 
L 90.82606 256.296553 
L 92.867524 258.232592 
L 94.908987 258.518731 
L 96.95045 254.991759 
L 98.991914 257.887138 
L 101.033377 257.106853 
L 103.074841 256.578997 
L 105.116304 254.927864 
L 107.157768 256.192064 
L 109.199231 255.367954 
L 111.240694 256.059691 
L 113.282158 254.970615 
L 115.323621 254.098761 
L 117.365085 252.56394 
L 119.406548 251.802939 
L 121.448011 251.10325 
L 123.489475 250.160687 
L 125.530938 249.914205 
L 127.572402 249.039873 
L 129.613865 248.104592 
L 131.655328 245.717127 
L 133.696792 243.889664 
L 135.738255 243.038277 
L 137.779719 241.044889 
L 139.821182 240.606764 
L 141.862646 238.855295 
L 143.904109 236.301208 
L 145.945572 234.162231 
L 147.987036 232.531561 
L 150.028499 229.886908 
L 152.069963 228.2457 
L 154.111426 225.884016 
L 156.152889 223.79053 
L 158.194353 221.171525 
L 160.235816 219.003338 
L 162.27728 216.074395 
L 164.318743 213.756432 
L 166.360207 211.241765 
L 168.40167 207.915421 
L 170.443133 204.81326 
L 172.484597 202.542495 
L 174.52606 199.803269 
L 176.567524 196.459414 
L 178.608987 193.812371 
L 180.65045 190.59772 
L 182.691914 186.029132 
L 184.733377 184.116928 
L 186.774841 180.404833 
L 188.816304 177.487029 
L 190.857768 174.169221 
L 192.899231 170.578396 
L 194.940694 166.867452 
L 196.982158 163.486686 
L 199.023621 158.965575 
L 201.065085 156.255961 
L 203.106548 152.041363 
L 205.148011 149.306465 
L 207.189475 144.988226 
L 209.230938 140.819807 
L 211.272402 136.965343 
L 213.313865 133.886379 
L 215.355328 128.902635 
L 217.396792 125.51533 
L 219.438255 121.139214 
L 221.479719 117.671291 
L 223.521182 113.194087 
L 225.562646 109.262437 
L 227.604109 108.655562 
L 229.645572 101.044343 
L 231.687036 99.72463 
L 233.728499 94.99139 
L 235.769963 91.721669 
L 237.811426 87.877341 
L 239.852889 83.867269 
L 241.894353 80.34821 
L 243.935816 76.945926 
L 245.97728 73.737649 
L 248.018743 70.510469 
L 250.060207 72.789406 
L 252.10167 63.480541 
L 254.143133 61.06875 
L 256.184597 68.464334 
L 258.22606 57.25425 
L 260.267524 58.964129 
L 262.308987 57.606938 
L 264.35045 51.70495 
L 266.391914 52.549917 
L 268.433377 58.01261 
L 270.474841 53.759407 
L 272.516304 51.734829 
L 274.557768 55.096742 
L 276.599231 53.663093 
L 278.640694 55.936754 
L 280.682158 59.065944 
L 282.723621 64.502819 
L 284.765085 77.27027 
L 286.806548 74.208141 
L 288.848011 81.083898 
L 290.889475 86.761894 
L 292.930938 89.769572 
L 294.972402 97.033383 
L 297.013865 103.207629 
L 299.055328 92.685531 
L 301.096792 104.221131 
L 303.138255 118.750281 
L 305.179719 125.808626 
L 307.221182 129.090361 
L 309.262646 148.300856 
L 311.304109 149.941974 
L 313.345572 155.249219 
L 315.387036 153.945672 
L 317.428499 170.169043 
L 319.469963 165.264849 
L 321.511426 162.518502 
L 323.552889 176.381925 
L 325.594353 186.249824 
L 327.635816 185.475232 
L 329.67728 191.364683 
L 331.718743 193.335925 
L 333.760207 193.772822 
L 335.80167 193.852177 
L 337.843133 197.153132 
L 339.884597 199.052171 
L 341.92606 209.146672 
L 343.967524 204.101785 
L 346.008987 212.903004 
L 348.05045 211.026108 
L 350.091914 209.936815 
L 352.133377 213.553426 
L 354.174841 216.786489 
L 356.216304 212.894621 
L 358.257768 214.945474 
L 360.299231 215.164626 
L 362.340694 219.986826 
L 364.382158 217.735623 
L 366.423621 216.729678 
L 368.465085 218.171074 
L 370.506548 220.523381 
L 372.548011 219.480247 
L 374.589475 217.290497 
L 376.630938 218.628366 
L 378.672402 215.258938 
L 380.713865 215.680212 
L 382.755328 221.376988 
L 384.796792 221.087781 
L 386.838255 217.94208 
L 388.879719 217.188758 
L 390.921182 217.584145 
L 392.962646 214.171116 
L 395.004109 215.019151 
L 397.045572 215.021612 
L 399.087036 214.304235 
L 401.128499 213.389261 
L 403.169963 211.278989 
L 405.211426 212.542339 
L 407.252889 211.127707 
L 409.294353 210.828026 
L 411.335816 210.082396 
L 413.37728 210.184381 
L 415.418743 208.572961 
L 417.460207 205.64834 
L 419.50167 205.533258 
L 421.543133 203.157194 
L 423.584597 199.725361 
L 425.62606 202.279254 
L 427.667524 197.59928 
L 429.708987 199.592954 
L 431.75045 198.727457 
L 433.791914 199.091016 
L 435.833377 196.100304 
L 437.874841 195.914082 
L 439.916304 195.513489 
L 441.957768 191.78539 
L 443.999231 192.753799 
L 446.040694 192.449051 
L 448.082158 192.323054 
L 450.123621 190.558418 
L 452.165085 191.418347 
L 454.206548 189.602098 
L 456.248011 187.86753 
L 458.289475 185.119821 
L 460.330938 184.257156 
L 462.372402 183.693111 
L 464.413865 181.785188 
L 466.455328 182.09501 
L 468.496792 181.176256 
L 470.538255 179.484438 
L 472.579719 179.57716 
L 474.621182 177.656278 
L 476.662646 179.302383 
L 478.704109 177.976423 
L 480.745572 178.071701 
L 482.787036 175.684379 
L 484.828499 172.410969 
L 486.869963 175.248023 
L 488.911426 175.185194 
L 490.952889 174.141839 
L 492.994353 173.059335 
L 495.035816 170.789518 
L 497.07728 170.299447 
L 499.118743 169.0662 
L 501.160207 169.285827 
L 503.20167 168.838567 
L 505.243133 166.676989 
L 507.284597 163.59693 
L 509.32606 167.659665 
L 511.367524 166.72754 
L 513.408987 164.122259 
L 515.45045 165.830111 
L 517.491914 161.144632 
L 519.533377 161.753946 
L 521.574841 162.090448 
L 523.616304 158.931743 
L 525.657768 164.414823 
L 527.699231 159.006344 
L 529.740694 156.286718 
L 531.782158 159.903506 
L 533.823621 160.935125 
L 535.865085 159.269369 
L 537.906548 160.733381 
L 539.948011 158.316265 
L 541.989475 163.289773 
L 544.030938 160.923219 
L 546.072402 162.047396 
L 548.113865 158.850293 
L 550.155328 156.008055 
L 552.196792 159.939488 
L 554.238255 166.882798 
L 556.279719 159.290924 
L 558.321182 159.875023 
L 560.362646 157.134947 
L 562.404109 158.649844 
L 564.445572 158.415477 
L 566.487036 156.776011 
L 568.528499 156.248277 
L 570.569963 159.691477 
L 572.611426 158.097882 
L 574.652889 161.242651 
L 576.694353 161.926261 
L 578.735816 153.257575 
L 580.77728 156.985111 
L 582.818743 157.392415 
L 584.860207 158.092134 
L 586.90167 158.7135 
L 588.943133 164.408799 
L 590.984597 166.715527 
L 593.02606 166.514008 
L 595.067524 172.751786 
L 597.108987 183.047898 
L 599.15045 170.861162 
L 601.191914 170.745563 
L 603.233377 171.018651 
L 605.274841 175.09416 
L 607.316304 176.032902 
L 609.357768 176.012662 
L 611.399231 184.858062 
L 613.440694 188.119393 
L 615.482158 178.080983 
L 617.523621 187.17874 
L 619.565085 182.704966 
L 621.606548 179.933907 
L 623.648011 191.011588 
L 625.689475 188.842021 
L 627.730938 196.020512 
L 629.772402 193.896256 
L 631.813865 189.131646 
L 633.855328 193.675834 
L 635.896792 193.764119 
L 637.938255 198.242875 
L 639.979719 195.575094 
L 642.021182 202.917314 
L 644.062646 197.811962 
L 646.104109 201.738442 
L 648.145572 201.066593 
L 650.187036 205.376418 
L 652.228499 198.68086 
L 654.269963 206.043008 
L 656.311426 205.730536 
L 658.352889 210.787308 
L 660.394353 213.497461 
L 662.435816 213.601389 
L 664.47728 212.416621 
L 666.518743 215.697721 
L 668.560207 218.163169 
L 670.60167 216.121491 
L 672.643133 215.398824 
L 674.684597 218.277136 
L 676.72606 220.893195 
L 678.767524 216.549863 
L 680.808987 214.060242 
L 682.85045 224.205105 
L 684.891914 228.82055 
L 686.933377 218.542288 
L 688.974841 221.618801 
L 691.016304 223.176832 
L 693.057768 223.950292 
L 695.099231 229.153249 
L 697.140694 228.49008 
L 699.182158 226.384355 
L 701.223621 228.630234 
L 703.265085 229.226869 
L 705.306548 223.648669 
L 707.348011 226.440103 
L 709.389475 224.683737 
L 711.430938 232.345319 
L 713.472402 241.779604 
L 715.513865 240.361334 
L 717.555328 232.789735 
L 719.596792 231.928552 
L 721.638255 232.914865 
L 723.679719 233.214196 
L 725.721182 240.181753 
L 727.762646 231.192306 
L 729.804109 240.560437 
L 731.845572 248.067271 
L 733.887036 241.679771 
L 735.928499 251.34295 
L 737.969963 245.183823 
L 740.011426 250.415858 
L 742.052889 246.858911 
L 744.094353 249.40399 
L 746.135816 254.580023 
L 748.17728 254.165755 
L 750.218743 255.705397 
L 752.260207 256.075173 
L 754.30167 256.593776 
L 756.343133 243.850792 
L 758.384597 260.260576 
L 760.42606 267.001079 
L 762.467524 260.452586 
L 764.508987 266.41561 
L 766.55045 267.754378 
L 768.591914 264.378585 
L 770.633377 271.144588 
L 772.674841 275.737634 
L 774.716304 273.137416 
L 776.757768 274.961942 
L 778.799231 276.044967 
L 780.840694 277.741379 
L 782.882158 282.952363 
L 784.923621 272.646472 
L 786.965085 285.763184 
L 789.006548 286.26995 
L 791.048011 287.00476 
L 793.089475 279.120454 
L 795.130938 289.10533 
L 797.172402 295.832928 
L 799.213865 289.438857 
L 801.255328 290.439932 
L 803.296792 299.842373 
L 805.338255 284.175513 
L 807.379719 299.321515 
L 809.421182 290.294802 
L 811.462646 303.638982 
L 813.504109 297.919201 
L 815.545572 303.936002 
L 817.587036 306.095846 
L 819.628499 308.950585 
L 821.669963 310.085611 
L 823.711426 307.006192 
L 825.752889 307.554913 
L 827.794353 309.755087 
L 829.835816 317.614546 
L 831.87728 317.395526 
L 833.918743 317.161973 
L 835.960207 324.370145 
L 838.00167 325.206082 
L 840.043133 320.174274 
L 842.084597 320.472967 
L 844.12606 338.482126 
L 846.167524 340.936675 
L 848.208987 345.925933 
L 850.25045 336.16743 
L 852.291914 318.335862 
L 854.333377 339.198541 
L 856.374841 333.112507 
L 858.416304 340.509725 
L 860.457768 350.325949 
L 862.499231 338.905729 
L 864.540694 355.649626 
L 866.582158 343.390719 
L 868.623621 343.784459 
L 870.665085 345.927671 
L 872.706548 356.298904 
L 874.748011 356.132207 
L 876.789475 355.034579 
L 878.830938 345.876493 
L 880.872402 352.235217 
L 882.913865 357.233481 
L 884.955328 353.724633 
L 886.996792 362.351773 
L 889.038255 357.06261 
L 891.079719 362.976809 
L 893.121182 371.963118 
L 895.162646 371.618558 
L 897.204109 364.427418 
L 899.245572 365.492613 
L 901.287036 364.901718 
L 903.328499 369.482357 
L 905.369963 370.28107 
L 907.411426 357.986185 
L 909.452889 369.200083 
L 911.494353 321.822027 
L 913.535816 370.642493 
L 915.57728 375.638453 
L 917.618743 367.483993 
L 919.660207 358.890708 
L 921.70167 377.64 
L 923.743133 370.302081 
L 925.784597 356.954623 
L 927.82606 366.643279 
L 929.867524 367.632616 
L 931.908987 364.534747 
L 933.95045 373.693067 
L 935.991914 368.101475 
L 938.033377 372.26938 
L 940.074841 375.51777 
L 940.074841 327.962166 
L 940.074841 327.962166 
L 938.033377 332.680781 
L 935.991914 329.779699 
L 933.95045 332.046642 
L 931.908987 328.126292 
L 929.867524 329.596648 
L 927.82606 327.760294 
L 925.784597 328.55209 
L 923.743133 332.733871 
L 921.70167 333.205085 
L 919.660207 329.92943 
L 917.618743 330.484559 
L 915.57728 335.03021 
L 913.535816 331.645591 
L 911.494353 308.03576 
L 909.452889 332.558638 
L 907.411426 330.552718 
L 905.369963 332.939409 
L 903.328499 332.869639 
L 901.287036 331.63437 
L 899.245572 332.943513 
L 897.204109 332.645028 
L 895.162646 334.640976 
L 893.121182 334.877288 
L 891.079719 333.078841 
L 889.038255 331.438331 
L 886.996792 332.174202 
L 884.955328 329.157152 
L 882.913865 329.976775 
L 880.872402 329.133875 
L 878.830938 327.308918 
L 876.789475 330.460537 
L 874.748011 330.715487 
L 872.706548 331.735484 
L 870.665085 327.058813 
L 868.623621 327.165144 
L 866.582158 327.449383 
L 864.540694 330.912006 
L 862.499231 325.556428 
L 860.457768 329.29818 
L 858.416304 325.855184 
L 856.374841 323.583207 
L 854.333377 325.467337 
L 852.291914 311.106729 
L 850.25045 324.10122 
L 848.208987 328.052086 
L 846.167524 326.321429 
L 844.12606 325.10488 
L 842.084597 315.646319 
L 840.043133 316.210013 
L 838.00167 320.882741 
L 835.960207 320.202023 
L 833.918743 311.494958 
L 831.87728 311.910955 
L 829.835816 310.916998 
L 827.794353 299.508992 
L 825.752889 289.294303 
L 823.711426 286.922884 
L 821.669963 295.679808 
L 819.628499 293.003537 
L 817.587036 287.698256 
L 815.545572 282.248099 
L 813.504109 264.789126 
L 811.462646 282.030109 
L 809.421182 237.193137 
L 807.379719 267.452912 
L 805.338255 224.775426 
L 803.296792 270.940747 
L 801.255328 245.37417 
L 799.213865 244.860473 
L 797.172402 257.990203 
L 795.130938 242.477091 
L 793.089475 214.174827 
L 791.048011 234.888656 
L 789.006548 234.4517 
L 786.965085 233.581186 
L 784.923621 200.551974 
L 782.882158 216.944924 
L 780.840694 213.015152 
L 778.799231 210.732947 
L 776.757768 207.09235 
L 774.716304 200.19127 
L 772.674841 206.972031 
L 770.633377 194.76126 
L 768.591914 179.53346 
L 766.55045 192.107857 
L 764.508987 182.092614 
L 762.467524 173.168181 
L 760.42606 187.688291 
L 758.384597 171.853636 
L 756.343133 131.195877 
L 754.30167 160.824434 
L 752.260207 159.619396 
L 750.218743 159.665688 
L 748.17728 156.024269 
L 746.135816 156.14948 
L 744.094353 145.017747 
L 742.052889 140.412445 
L 740.011426 148.894451 
L 737.969963 132.749047 
L 735.928499 149.156675 
L 733.887036 126.744431 
L 731.845572 139.521238 
L 729.804109 124.561109 
L 727.762646 106.025707 
L 725.721182 122.862984 
L 723.679719 106.624573 
L 721.638255 107.643781 
L 719.596792 106.828184 
L 717.555328 108.294653 
L 715.513865 123.468712 
L 713.472402 126.997316 
L 711.430938 108.52852 
L 709.389475 89.593761 
L 707.348011 94.707592 
L 705.306548 90.762543 
L 703.265085 102.410553 
L 701.223621 101.027206 
L 699.182158 96.112409 
L 697.140694 102.080801 
L 695.099231 101.423006 
L 693.057768 91.671545 
L 691.016304 92.637583 
L 688.974841 88.745989 
L 686.933377 83.995364 
L 684.891914 105.422882 
L 682.85045 93.075545 
L 680.808987 76.219623 
L 678.767524 84.016984 
L 676.72606 90.964626 
L 674.684597 86.053605 
L 672.643133 82.23047 
L 670.60167 84.875628 
L 668.560207 92.222299 
L 666.518743 83.853173 
L 664.47728 80.654952 
L 662.435816 83.807048 
L 660.394353 78.491051 
L 658.352889 79.949709 
L 656.311426 69.437582 
L 654.269963 73.002447 
L 652.228499 60.219543 
L 650.187036 70.886332 
L 648.145572 65.597113 
L 646.104109 68.443064 
L 644.062646 64.81952 
L 642.021182 71.28118 
L 639.979719 59.815992 
L 637.938255 66.779231 
L 635.896792 59.512685 
L 633.855328 60.765356 
L 631.813865 55.059576 
L 629.772402 57.92329 
L 627.730938 65.894465 
L 625.689475 58.045614 
L 623.648011 59.895445 
L 621.606548 44.526425 
L 619.565085 51.584689 
L 617.523621 55.165469 
L 615.482158 43.344702 
L 613.440694 56.531092 
L 611.399231 57.567914 
L 609.357768 42.619738 
L 607.316304 42.906853 
L 605.274841 41.880474 
L 603.233377 36.518049 
L 601.191914 40.265771 
L 599.15045 38.94142 
L 597.108987 56.558165 
L 595.067524 44.445826 
L 593.02606 35.506743 
L 590.984597 35.766989 
L 588.943133 33.156531 
L 586.90167 27.75761 
L 584.860207 29.70285 
L 582.818743 26.061559 
L 580.77728 30.156485 
L 578.735816 24.84 
L 576.694353 34.880802 
L 574.652889 36.197063 
L 572.611426 33.836179 
L 570.569963 36.028778 
L 568.528499 32.127189 
L 566.487036 35.049987 
L 564.445572 36.710334 
L 562.404109 41.356145 
L 560.362646 37.463282 
L 558.321182 42.669333 
L 556.279719 41.507754 
L 554.238255 51.311387 
L 552.196792 44.519735 
L 550.155328 40.851655 
L 548.113865 44.987207 
L 546.072402 46.80652 
L 544.030938 46.851446 
L 541.989475 52.496638 
L 539.948011 47.424023 
L 537.906548 51.187391 
L 535.865085 49.225637 
L 533.823621 50.044122 
L 531.782158 48.275348 
L 529.740694 45.736256 
L 527.699231 50.251319 
L 525.657768 56.298034 
L 523.616304 49.913029 
L 521.574841 53.401852 
L 519.533377 51.725903 
L 517.491914 53.672905 
L 515.45045 58.321172 
L 513.408987 56.591956 
L 511.367524 60.33477 
L 509.32606 61.238645 
L 507.284597 56.771787 
L 505.243133 59.212339 
L 503.20167 61.94315 
L 501.160207 62.845776 
L 499.118743 62.596227 
L 497.07728 64.491215 
L 495.035816 64.030373 
L 492.994353 66.901747 
L 490.952889 67.59227 
L 488.911426 68.121178 
L 486.869963 68.644495 
L 484.828499 63.111994 
L 482.787036 68.889125 
L 480.745572 71.097593 
L 478.704109 70.254244 
L 476.662646 70.267541 
L 474.621182 70.121521 
L 472.579719 71.666592 
L 470.538255 70.900114 
L 468.496792 73.305323 
L 466.455328 74.006906 
L 464.413865 73.165848 
L 462.372402 73.895388 
L 460.330938 74.955612 
L 458.289475 76.055396 
L 456.248011 80.339099 
L 454.206548 81.150103 
L 452.165085 83.082649 
L 450.123621 81.69095 
L 448.082158 83.531936 
L 446.040694 83.448779 
L 443.999231 83.80636 
L 441.957768 81.18917 
L 439.916304 87.291407 
L 437.874841 87.537853 
L 435.833377 87.643978 
L 433.791914 91.172177 
L 431.75045 90.575624 
L 429.708987 91.845823 
L 427.667524 89.557591 
L 425.62606 94.519839 
L 423.584597 92.609261 
L 421.543133 97.377635 
L 419.50167 100.664745 
L 417.460207 101.362492 
L 415.418743 105.575875 
L 413.37728 108.793222 
L 411.335816 108.307272 
L 409.294353 110.144878 
L 407.252889 110.415243 
L 405.211426 112.941584 
L 403.169963 111.761936 
L 401.128499 115.42808 
L 399.087036 118.086834 
L 397.045572 119.529983 
L 395.004109 120.259307 
L 392.962646 120.778577 
L 390.921182 124.803341 
L 388.879719 125.522509 
L 386.838255 127.907681 
L 384.796792 131.571017 
L 382.755328 132.555585 
L 380.713865 128.751824 
L 378.672402 129.572574 
L 376.630938 133.654486 
L 374.589475 133.91598 
L 372.548011 136.661068 
L 370.506548 138.587107 
L 368.465085 137.206252 
L 366.423621 138.313083 
L 364.382158 139.762518 
L 362.340694 142.535273 
L 360.299231 139.035006 
L 358.257768 140.282805 
L 356.216304 140.11152 
L 354.174841 144.163514 
L 352.133377 143.468595 
L 350.091914 140.953432 
L 348.05045 143.037774 
L 346.008987 145.193783 
L 343.967524 138.9505 
L 341.92606 144.40069 
L 339.884597 137.102744 
L 337.843133 136.665584 
L 335.80167 135.11645 
L 333.760207 136.709592 
L 331.718743 137.109139 
L 329.67728 136.151118 
L 327.635816 132.652713 
L 325.594353 135.228049 
L 323.552889 127.152961 
L 321.511426 119.198137 
L 319.469963 121.164534 
L 317.428499 125.368155 
L 315.387036 114.729673 
L 313.345572 115.079432 
L 311.304109 112.421213 
L 309.262646 111.599346 
L 307.221182 96.228143 
L 305.179719 94.913731 
L 303.138255 89.252469 
L 301.096792 77.186365 
L 299.055328 68.573781 
L 297.013865 77.919567 
L 294.972402 73.526815 
L 292.930938 65.96532 
L 290.889475 62.620457 
L 288.848011 57.093841 
L 286.806548 49.923165 
L 284.765085 53.502898 
L 282.723621 39.938547 
L 280.682158 34.976806 
L 278.640694 31.61231 
L 276.599231 29.544178 
L 274.557768 31.026247 
L 272.516304 27.660475 
L 270.474841 29.871155 
L 268.433377 34.584813 
L 266.391914 29.603542 
L 264.35045 28.820041 
L 262.308987 35.207325 
L 260.267524 36.762658 
L 258.22606 35.459499 
L 256.184597 46.808092 
L 254.143133 40.022157 
L 252.10167 42.387883 
L 250.060207 52.267413 
L 248.018743 49.717564 
L 245.97728 52.831318 
L 243.935816 55.770992 
L 241.894353 58.949419 
L 239.852889 62.481159 
L 237.811426 66.203415 
L 235.769963 69.808625 
L 233.728499 72.868888 
L 231.687036 77.10686 
L 229.645572 78.188706 
L 227.604109 85.597211 
L 225.562646 85.878473 
L 223.521182 89.686166 
L 221.479719 93.917511 
L 219.438255 97.144965 
L 217.396792 101.156654 
L 215.355328 104.311391 
L 213.313865 108.878517 
L 211.272402 111.657005 
L 209.230938 115.038868 
L 207.189475 118.995761 
L 205.148011 123.028549 
L 203.106548 125.511033 
L 201.065085 129.405325 
L 199.023621 132.079847 
L 196.982158 136.079861 
L 194.940694 139.193055 
L 192.899231 142.288731 
L 190.857768 145.708999 
L 188.816304 148.747938 
L 186.774841 151.339598 
L 184.733377 154.680621 
L 182.691914 156.405682 
L 180.65045 160.516218 
L 178.608987 163.309413 
L 176.567524 165.777022 
L 174.52606 168.779511 
L 172.484597 170.636348 
L 170.443133 173.303742 
L 168.40167 176.038453 
L 166.360207 179.045061 
L 164.318743 181.355265 
L 162.27728 183.629507 
L 160.235816 186.106009 
L 158.194353 188.490147 
L 156.152889 191.053998 
L 154.111426 193.108119 
L 152.069963 195.340434 
L 150.028499 197.169773 
L 147.987036 199.696601 
L 145.945572 201.528111 
L 143.904109 203.600887 
L 141.862646 206.176347 
L 139.821182 207.967137 
L 137.779719 208.509652 
L 135.738255 210.635715 
L 133.696792 211.736785 
L 131.655328 213.7887 
L 129.613865 216.172281 
L 127.572402 217.411723 
L 125.530938 218.575608 
L 123.489475 218.830366 
L 121.448011 220.053782 
L 119.406548 220.795123 
L 117.365085 221.594151 
L 115.323621 223.311945 
L 113.282158 224.324731 
L 111.240694 225.768048 
L 109.199231 224.995147 
L 107.157768 225.807653 
L 105.116304 224.584733 
L 103.074841 226.583142 
L 101.033377 226.919449 
L 98.991914 228.395603 
L 96.95045 225.389544 
L 94.908987 229.136829 
L 92.867524 228.894612 
L 90.82606 226.836448 
L 88.784597 226.365587 
L 86.743133 228.339995 
L 84.70167 231.703026 
L 82.660207 230.490421 
L 80.618743 230.494455 
L 78.57728 227.250768 
L 76.535816 227.290649 
L 74.494353 228.324608 
L 72.452889 230.430394 
L 70.411426 229.845245 
L 68.369963 229.502461 
L 66.328499 229.900123 
L 64.287036 231.218412 
L 62.245572 231.003397 
L 60.204109 231.863338 
L 58.162646 233.243718 
L 56.121182 232.388457 
L 54.079719 234.354412 
L 52.038255 234.709608 
L 49.996792 234.999352 
L 47.955328 236.259138 
L 45.913865 236.616871 
L 43.872402 238.003307 
L 41.830938 239.510448 
L 39.789475 239.583181 
L 37.748011 239.044511 
L 35.706548 238.671204 
L 33.665085 241.798186 
L 31.623621 241.311247 
L 29.582158 243.42597 
L 27.540694 243.508818 
L 25.499231 242.75996 
L 23.457768 244.852027 
L 21.416304 242.993253 
L 19.374841 243.135418 
L 17.333377 245.779698 
L 15.291914 243.955188 
L 13.25045 246.456221 
L 11.208987 247.290064 
L 9.167524 245.266855 
L 7.12606 238.728099 
L 5.084597 242.990137 
L 3.043133 241.025116 
L 1.00167 231.280916 
L -1.039793 239.68563 
L -3.081257 241.458186 
L -5.12272 232.459066 
L -7.164184 230.041888 
L -9.205647 234.965481 
L -11.247111 225.214675 
L -13.288574 208.557976 
L -15.330037 227.138918 
L -17.371501 234.709405 
L -19.412964 238.513238 
L -21.454428 215.22066 
L -23.495891 216.315236 
L -25.537354 204.881661 
L -27.578818 195.886603 
L -29.620281 214.466831 
L -31.661745 206.704479 
L -33.703208 190.567636 
L -35.744672 179.168875 
L -37.786135 180.077659 
L -39.827598 182.303996 
L -41.869062 180.052621 
L -43.910525 178.80914 
L -45.951989 185.712742 
L -47.993452 185.122813 
L -50.034915 181.008521 
L -52.076379 183.910291 
L -54.117842 182.341868 
L -56.159306 181.898746 
L -58.200769 182.346607 
L -60.242232 185.20465 
L -62.283696 187.017365 
L -64.325159 188.15354 
L -66.366623 190.675188 
L -68.408086 191.987702 
L -70.44955 194.066615 
L -72.491013 197.186593 
L -74.532476 199.743613 
L -76.57394 201.519176 
L -78.615403 203.465409 
L -80.656867 205.943995 
L -82.69833 207.592232 
L -84.739793 209.967322 
L -86.781257 212.801728 
L -88.82272 214.55824 
L -90.864184 215.831433 
L -92.905647 217.632189 
L -94.947111 219.476795 
L -96.988574 221.155625 
L -99.030037 222.762224 
L -101.071501 224.313972 
L -103.112964 226.374533 
L -105.154428 227.52161 
L -107.195891 229.054585 
L -109.237354 230.663873 
L -111.278818 232.055036 
L -113.320281 233.408559 
L -115.361745 234.557336 
L -117.403208 235.799396 
L -119.444672 237.389065 
L -121.486135 238.541532 
L -123.527598 239.86279 
L -125.569062 240.955048 
L -127.610525 242.151319 
L -129.651989 243.376746 
L -131.693452 244.605567 
L -133.734915 245.64607 
L -135.776379 246.859856 
L -137.817842 247.927499 
L -139.859306 249.06755 
L -141.900769 250.135949 
L -143.942232 251.223464 
L -145.983696 252.24984 
L -148.025159 253.330745 
L -150.066623 254.462004 
L -152.108086 255.348031 
L -154.14955 256.419121 
L -156.191013 257.35941 
L -158.232476 258.425307 
L -160.27394 259.240051 
L -162.315403 260.234183 
L -164.356867 261.188536 
L -166.39833 262.096786 
L -168.439793 263.010448 
L -170.481257 263.847919 
L -172.52272 264.820292 
L -174.564184 265.697835 
L -176.605647 266.425451 
L -178.647111 267.285454 
L -180.688574 268.144829 
L -182.730037 269.000842 
L -184.771501 269.828598 
L -186.812964 270.603222 
L -188.854428 271.45407 
L -190.895891 272.289963 
L -192.937354 273.131185 
L -194.978818 273.970893 
L -197.020281 274.833745 
L -199.061745 275.730605 
L -201.103208 276.509831 
L -203.144672 277.397791 
L -205.186135 278.270963 
L -207.227598 279.112222 
L -209.269062 279.980149 
L -211.310525 280.866218 
L -213.351989 281.728506 
L -215.393452 282.632414 
L -217.434915 283.462211 
L -219.476379 284.30898 
L -221.517842 285.202464 
L -223.559306 286.068526 
L -225.600769 286.894365 
L -227.642232 287.766789 
L -229.683696 288.569461 
L -231.725159 289.425235 
L -233.766623 290.334648 
L -235.808086 291.124886 
L -237.84955 292.003762 
L -239.891013 292.840478 
L -241.932476 293.716365 
L -243.97394 294.516456 
L -246.015403 295.442166 
L -248.056867 296.221278 
L -250.09833 297.0879 
L -252.139793 297.937889 
L -254.181257 298.808232 
L -256.22272 299.638984 
L -258.264184 300.484107 
L -260.305647 301.332363 
L -262.347111 302.206711 
L -264.388574 303.023313 
L -266.430037 303.804969 
L -268.471501 304.597853 
L -270.512964 305.389651 
L -272.554428 306.146351 
L -274.595891 306.907156 
L -276.637354 307.658081 
L -278.678818 308.376579 
L -280.720281 309.101046 
L -282.761745 309.820275 
L -284.803208 310.478712 
L -286.844672 311.145464 
L -288.886135 311.836516 
L -290.927598 312.49229 
L -292.969062 313.082955 
L -295.010525 313.726102 
L -297.051989 314.316353 
L -299.093452 314.862229 
L -301.134915 315.40621 
L -303.176379 315.915936 
L -305.217842 316.459852 
L -307.259306 316.914935 
L -309.300769 317.391419 
L -311.342232 317.840443 
L -313.383696 318.257603 
L -315.425159 318.639361 
L -317.466623 318.987919 
L -319.508086 319.332923 
L -321.54955 319.673804 
L -323.591013 319.959887 
L -325.632476 320.275028 
L -327.67394 320.544947 
L -329.715403 320.78011 
L -331.756867 321.050631 
L -333.79833 321.289452 
L -335.839793 321.490249 
L -337.881257 321.703438 
L -339.92272 321.910621 
L -341.964184 322.0946 
L -344.005647 322.278619 
L -346.047111 322.433549 
L -348.088574 322.616504 
L -350.130037 322.765231 
L -352.171501 322.920275 
L -354.212964 323.081755 
L -356.254428 323.216124 
L -358.295891 323.357179 
L -360.337354 323.536543 
L -362.378818 323.667274 
L -364.420281 323.823822 
L -366.461745 323.950322 
L -368.503208 324.113283 
L -370.544672 324.243783 
L -372.586135 324.379663 
L -374.627598 324.501183 
L -376.669062 324.610971 
L -378.710525 324.734149 
L -380.751989 324.866534 
L -382.793452 324.996226 
L -384.834915 325.10846 
L -386.876379 325.20199 
L -388.917842 325.329558 
L -390.959306 325.437106 
L -393.000769 325.563855 
z
" clip-path="url(#p48b6cb4e0b)" style="fill: #008000; fill-opacity: 0.3; stroke: #008000; stroke-opacity: 0.3"/>
   </g>
   <g id="matplotlib.axis_1">
    <g id="xtick_1">
     <g id="line2d_1">
      <defs>
       <path id="mf30c07b062" d="M 0 0 
L 0 3.5 
" style="stroke: #000000; stroke-width: 0.8"/>
      </defs>
      <g>
       <use xlink:href="#mf30c07b062" x="103.074841" y="395.28" style="stroke: #000000; stroke-width: 0.8"/>
      </g>
     </g>
     <g id="text_1">
      <!-- 2022-03-01 -->
      <g transform="translate(17.945813 495.213718) rotate(-45) scale(0.2 -0.2)">
       <defs>
        <path id="DejaVuSans-32" d="M 1228 531 
L 3431 531 
L 3431 0 
L 469 0 
L 469 531 
Q 828 903 1448 1529 
Q 2069 2156 2228 2338 
Q 2531 2678 2651 2914 
Q 2772 3150 2772 3378 
Q 2772 3750 2511 3984 
Q 2250 4219 1831 4219 
Q 1534 4219 1204 4116 
Q 875 4013 500 3803 
L 500 4441 
Q 881 4594 1212 4672 
Q 1544 4750 1819 4750 
Q 2544 4750 2975 4387 
Q 3406 4025 3406 3419 
Q 3406 3131 3298 2873 
Q 3191 2616 2906 2266 
Q 2828 2175 2409 1742 
Q 1991 1309 1228 531 
z
" transform="scale(0.015625)"/>
        <path id="DejaVuSans-30" d="M 2034 4250 
Q 1547 4250 1301 3770 
Q 1056 3291 1056 2328 
Q 1056 1369 1301 889 
Q 1547 409 2034 409 
Q 2525 409 2770 889 
Q 3016 1369 3016 2328 
Q 3016 3291 2770 3770 
Q 2525 4250 2034 4250 
z
M 2034 4750 
Q 2819 4750 3233 4129 
Q 3647 3509 3647 2328 
Q 3647 1150 3233 529 
Q 2819 -91 2034 -91 
Q 1250 -91 836 529 
Q 422 1150 422 2328 
Q 422 3509 836 4129 
Q 1250 4750 2034 4750 
z
" transform="scale(0.015625)"/>
        <path id="DejaVuSans-2d" d="M 313 2009 
L 1997 2009 
L 1997 1497 
L 313 1497 
L 313 2009 
z
" transform="scale(0.015625)"/>
        <path id="DejaVuSans-33" d="M 2597 2516 
Q 3050 2419 3304 2112 
Q 3559 1806 3559 1356 
Q 3559 666 3084 287 
Q 2609 -91 1734 -91 
Q 1441 -91 1130 -33 
Q 819 25 488 141 
L 488 750 
Q 750 597 1062 519 
Q 1375 441 1716 441 
Q 2309 441 2620 675 
Q 2931 909 2931 1356 
Q 2931 1769 2642 2001 
Q 2353 2234 1838 2234 
L 1294 2234 
L 1294 2753 
L 1863 2753 
Q 2328 2753 2575 2939 
Q 2822 3125 2822 3475 
Q 2822 3834 2567 4026 
Q 2313 4219 1838 4219 
Q 1578 4219 1281 4162 
Q 984 4106 628 3988 
L 628 4550 
Q 988 4650 1302 4700 
Q 1616 4750 1894 4750 
Q 2613 4750 3031 4423 
Q 3450 4097 3450 3541 
Q 3450 3153 3228 2886 
Q 3006 2619 2597 2516 
z
" transform="scale(0.015625)"/>
        <path id="DejaVuSans-31" d="M 794 531 
L 1825 531 
L 1825 4091 
L 703 3866 
L 703 4441 
L 1819 4666 
L 2450 4666 
L 2450 531 
L 3481 531 
L 3481 0 
L 794 0 
L 794 531 
z
" transform="scale(0.015625)"/>
       </defs>
       <use xlink:href="#DejaVuSans-32"/>
       <use xlink:href="#DejaVuSans-30" x="63.623047"/>
       <use xlink:href="#DejaVuSans-32" x="127.246094"/>
       <use xlink:href="#DejaVuSans-32" x="190.869141"/>
       <use xlink:href="#DejaVuSans-2d" x="254.492188"/>
       <use xlink:href="#DejaVuSans-30" x="290.576172"/>
       <use xlink:href="#DejaVuSans-33" x="354.199219"/>
       <use xlink:href="#DejaVuSans-2d" x="417.822266"/>
       <use xlink:href="#DejaVuSans-30" x="453.90625"/>
       <use xlink:href="#DejaVuSans-31" x="517.529297"/>
      </g>
     </g>
    </g>
    <g id="xtick_2">
     <g id="line2d_2">
      <g>
       <use xlink:href="#mf30c07b062" x="160.235816" y="395.28" style="stroke: #000000; stroke-width: 0.8"/>
      </g>
     </g>
     <g id="text_2">
      <!-- 2022-03-29 -->
      <g transform="translate(75.106789 495.213718) rotate(-45) scale(0.2 -0.2)">
       <defs>
        <path id="DejaVuSans-39" d="M 703 97 
L 703 672 
Q 941 559 1184 500 
Q 1428 441 1663 441 
Q 2288 441 2617 861 
Q 2947 1281 2994 2138 
Q 2813 1869 2534 1725 
Q 2256 1581 1919 1581 
Q 1219 1581 811 2004 
Q 403 2428 403 3163 
Q 403 3881 828 4315 
Q 1253 4750 1959 4750 
Q 2769 4750 3195 4129 
Q 3622 3509 3622 2328 
Q 3622 1225 3098 567 
Q 2575 -91 1691 -91 
Q 1453 -91 1209 -44 
Q 966 3 703 97 
z
M 1959 2075 
Q 2384 2075 2632 2365 
Q 2881 2656 2881 3163 
Q 2881 3666 2632 3958 
Q 2384 4250 1959 4250 
Q 1534 4250 1286 3958 
Q 1038 3666 1038 3163 
Q 1038 2656 1286 2365 
Q 1534 2075 1959 2075 
z
" transform="scale(0.015625)"/>
       </defs>
       <use xlink:href="#DejaVuSans-32"/>
       <use xlink:href="#DejaVuSans-30" x="63.623047"/>
       <use xlink:href="#DejaVuSans-32" x="127.246094"/>
       <use xlink:href="#DejaVuSans-32" x="190.869141"/>
       <use xlink:href="#DejaVuSans-2d" x="254.492188"/>
       <use xlink:href="#DejaVuSans-30" x="290.576172"/>
       <use xlink:href="#DejaVuSans-33" x="354.199219"/>
       <use xlink:href="#DejaVuSans-2d" x="417.822266"/>
       <use xlink:href="#DejaVuSans-32" x="453.90625"/>
       <use xlink:href="#DejaVuSans-39" x="517.529297"/>
      </g>
     </g>
    </g>
    <g id="xtick_3">
     <g id="line2d_3">
      <g>
       <use xlink:href="#mf30c07b062" x="217.396792" y="395.28" style="stroke: #000000; stroke-width: 0.8"/>
      </g>
     </g>
     <g id="text_3">
      <!-- 2022-04-26 -->
      <g transform="translate(132.267765 495.213718) rotate(-45) scale(0.2 -0.2)">
       <defs>
        <path id="DejaVuSans-34" d="M 2419 4116 
L 825 1625 
L 2419 1625 
L 2419 4116 
z
M 2253 4666 
L 3047 4666 
L 3047 1625 
L 3713 1625 
L 3713 1100 
L 3047 1100 
L 3047 0 
L 2419 0 
L 2419 1100 
L 313 1100 
L 313 1709 
L 2253 4666 
z
" transform="scale(0.015625)"/>
        <path id="DejaVuSans-36" d="M 2113 2584 
Q 1688 2584 1439 2293 
Q 1191 2003 1191 1497 
Q 1191 994 1439 701 
Q 1688 409 2113 409 
Q 2538 409 2786 701 
Q 3034 994 3034 1497 
Q 3034 2003 2786 2293 
Q 2538 2584 2113 2584 
z
M 3366 4563 
L 3366 3988 
Q 3128 4100 2886 4159 
Q 2644 4219 2406 4219 
Q 1781 4219 1451 3797 
Q 1122 3375 1075 2522 
Q 1259 2794 1537 2939 
Q 1816 3084 2150 3084 
Q 2853 3084 3261 2657 
Q 3669 2231 3669 1497 
Q 3669 778 3244 343 
Q 2819 -91 2113 -91 
Q 1303 -91 875 529 
Q 447 1150 447 2328 
Q 447 3434 972 4092 
Q 1497 4750 2381 4750 
Q 2619 4750 2861 4703 
Q 3103 4656 3366 4563 
z
" transform="scale(0.015625)"/>
       </defs>
       <use xlink:href="#DejaVuSans-32"/>
       <use xlink:href="#DejaVuSans-30" x="63.623047"/>
       <use xlink:href="#DejaVuSans-32" x="127.246094"/>
       <use xlink:href="#DejaVuSans-32" x="190.869141"/>
       <use xlink:href="#DejaVuSans-2d" x="254.492188"/>
       <use xlink:href="#DejaVuSans-30" x="290.576172"/>
       <use xlink:href="#DejaVuSans-34" x="354.199219"/>
       <use xlink:href="#DejaVuSans-2d" x="417.822266"/>
       <use xlink:href="#DejaVuSans-32" x="453.90625"/>
       <use xlink:href="#DejaVuSans-36" x="517.529297"/>
      </g>
     </g>
    </g>
    <g id="xtick_4">
     <g id="line2d_4">
      <g>
       <use xlink:href="#mf30c07b062" x="274.557768" y="395.28" style="stroke: #000000; stroke-width: 0.8"/>
      </g>
     </g>
     <g id="text_4">
      <!-- 2022-05-24 -->
      <g transform="translate(189.42874 495.213718) rotate(-45) scale(0.2 -0.2)">
       <defs>
        <path id="DejaVuSans-35" d="M 691 4666 
L 3169 4666 
L 3169 4134 
L 1269 4134 
L 1269 2991 
Q 1406 3038 1543 3061 
Q 1681 3084 1819 3084 
Q 2600 3084 3056 2656 
Q 3513 2228 3513 1497 
Q 3513 744 3044 326 
Q 2575 -91 1722 -91 
Q 1428 -91 1123 -41 
Q 819 9 494 109 
L 494 744 
Q 775 591 1075 516 
Q 1375 441 1709 441 
Q 2250 441 2565 725 
Q 2881 1009 2881 1497 
Q 2881 1984 2565 2268 
Q 2250 2553 1709 2553 
Q 1456 2553 1204 2497 
Q 953 2441 691 2322 
L 691 4666 
z
" transform="scale(0.015625)"/>
       </defs>
       <use xlink:href="#DejaVuSans-32"/>
       <use xlink:href="#DejaVuSans-30" x="63.623047"/>
       <use xlink:href="#DejaVuSans-32" x="127.246094"/>
       <use xlink:href="#DejaVuSans-32" x="190.869141"/>
       <use xlink:href="#DejaVuSans-2d" x="254.492188"/>
       <use xlink:href="#DejaVuSans-30" x="290.576172"/>
       <use xlink:href="#DejaVuSans-35" x="354.199219"/>
       <use xlink:href="#DejaVuSans-2d" x="417.822266"/>
       <use xlink:href="#DejaVuSans-32" x="453.90625"/>
       <use xlink:href="#DejaVuSans-34" x="517.529297"/>
      </g>
     </g>
    </g>
    <g id="xtick_5">
     <g id="line2d_5">
      <g>
       <use xlink:href="#mf30c07b062" x="331.718743" y="395.28" style="stroke: #000000; stroke-width: 0.8"/>
      </g>
     </g>
     <g id="text_5">
      <!-- 2022-06-21 -->
      <g transform="translate(246.589716 495.213718) rotate(-45) scale(0.2 -0.2)">
       <use xlink:href="#DejaVuSans-32"/>
       <use xlink:href="#DejaVuSans-30" x="63.623047"/>
       <use xlink:href="#DejaVuSans-32" x="127.246094"/>
       <use xlink:href="#DejaVuSans-32" x="190.869141"/>
       <use xlink:href="#DejaVuSans-2d" x="254.492188"/>
       <use xlink:href="#DejaVuSans-30" x="290.576172"/>
       <use xlink:href="#DejaVuSans-36" x="354.199219"/>
       <use xlink:href="#DejaVuSans-2d" x="417.822266"/>
       <use xlink:href="#DejaVuSans-32" x="453.90625"/>
       <use xlink:href="#DejaVuSans-31" x="517.529297"/>
      </g>
     </g>
    </g>
    <g id="xtick_6">
     <g id="line2d_6">
      <g>
       <use xlink:href="#mf30c07b062" x="388.879719" y="395.28" style="stroke: #000000; stroke-width: 0.8"/>
      </g>
     </g>
     <g id="text_6">
      <!-- 2022-07-19 -->
      <g transform="translate(303.750691 495.213718) rotate(-45) scale(0.2 -0.2)">
       <defs>
        <path id="DejaVuSans-37" d="M 525 4666 
L 3525 4666 
L 3525 4397 
L 1831 0 
L 1172 0 
L 2766 4134 
L 525 4134 
L 525 4666 
z
" transform="scale(0.015625)"/>
       </defs>
       <use xlink:href="#DejaVuSans-32"/>
       <use xlink:href="#DejaVuSans-30" x="63.623047"/>
       <use xlink:href="#DejaVuSans-32" x="127.246094"/>
       <use xlink:href="#DejaVuSans-32" x="190.869141"/>
       <use xlink:href="#DejaVuSans-2d" x="254.492188"/>
       <use xlink:href="#DejaVuSans-30" x="290.576172"/>
       <use xlink:href="#DejaVuSans-37" x="354.199219"/>
       <use xlink:href="#DejaVuSans-2d" x="417.822266"/>
       <use xlink:href="#DejaVuSans-31" x="453.90625"/>
       <use xlink:href="#DejaVuSans-39" x="517.529297"/>
      </g>
     </g>
    </g>
    <g id="xtick_7">
     <g id="line2d_7">
      <g>
       <use xlink:href="#mf30c07b062" x="446.040694" y="395.28" style="stroke: #000000; stroke-width: 0.8"/>
      </g>
     </g>
     <g id="text_7">
      <!-- 2022-08-16 -->
      <g transform="translate(360.911667 495.213718) rotate(-45) scale(0.2 -0.2)">
       <defs>
        <path id="DejaVuSans-38" d="M 2034 2216 
Q 1584 2216 1326 1975 
Q 1069 1734 1069 1313 
Q 1069 891 1326 650 
Q 1584 409 2034 409 
Q 2484 409 2743 651 
Q 3003 894 3003 1313 
Q 3003 1734 2745 1975 
Q 2488 2216 2034 2216 
z
M 1403 2484 
Q 997 2584 770 2862 
Q 544 3141 544 3541 
Q 544 4100 942 4425 
Q 1341 4750 2034 4750 
Q 2731 4750 3128 4425 
Q 3525 4100 3525 3541 
Q 3525 3141 3298 2862 
Q 3072 2584 2669 2484 
Q 3125 2378 3379 2068 
Q 3634 1759 3634 1313 
Q 3634 634 3220 271 
Q 2806 -91 2034 -91 
Q 1263 -91 848 271 
Q 434 634 434 1313 
Q 434 1759 690 2068 
Q 947 2378 1403 2484 
z
M 1172 3481 
Q 1172 3119 1398 2916 
Q 1625 2713 2034 2713 
Q 2441 2713 2670 2916 
Q 2900 3119 2900 3481 
Q 2900 3844 2670 4047 
Q 2441 4250 2034 4250 
Q 1625 4250 1398 4047 
Q 1172 3844 1172 3481 
z
" transform="scale(0.015625)"/>
       </defs>
       <use xlink:href="#DejaVuSans-32"/>
       <use xlink:href="#DejaVuSans-30" x="63.623047"/>
       <use xlink:href="#DejaVuSans-32" x="127.246094"/>
       <use xlink:href="#DejaVuSans-32" x="190.869141"/>
       <use xlink:href="#DejaVuSans-2d" x="254.492188"/>
       <use xlink:href="#DejaVuSans-30" x="290.576172"/>
       <use xlink:href="#DejaVuSans-38" x="354.199219"/>
       <use xlink:href="#DejaVuSans-2d" x="417.822266"/>
       <use xlink:href="#DejaVuSans-31" x="453.90625"/>
       <use xlink:href="#DejaVuSans-36" x="517.529297"/>
      </g>
     </g>
    </g>
    <g id="xtick_8">
     <g id="line2d_8">
      <g>
       <use xlink:href="#mf30c07b062" x="503.20167" y="395.28" style="stroke: #000000; stroke-width: 0.8"/>
      </g>
     </g>
     <g id="text_8">
      <!-- 2022-09-13 -->
      <g transform="translate(418.072643 495.213718) rotate(-45) scale(0.2 -0.2)">
       <use xlink:href="#DejaVuSans-32"/>
       <use xlink:href="#DejaVuSans-30" x="63.623047"/>
       <use xlink:href="#DejaVuSans-32" x="127.246094"/>
       <use xlink:href="#DejaVuSans-32" x="190.869141"/>
       <use xlink:href="#DejaVuSans-2d" x="254.492188"/>
       <use xlink:href="#DejaVuSans-30" x="290.576172"/>
       <use xlink:href="#DejaVuSans-39" x="354.199219"/>
       <use xlink:href="#DejaVuSans-2d" x="417.822266"/>
       <use xlink:href="#DejaVuSans-31" x="453.90625"/>
       <use xlink:href="#DejaVuSans-33" x="517.529297"/>
      </g>
     </g>
    </g>
    <g id="xtick_9">
     <g id="line2d_9">
      <g>
       <use xlink:href="#mf30c07b062" x="560.362646" y="395.28" style="stroke: #000000; stroke-width: 0.8"/>
      </g>
     </g>
     <g id="text_9">
      <!-- 2022-10-11 -->
      <g transform="translate(475.233618 495.213718) rotate(-45) scale(0.2 -0.2)">
       <use xlink:href="#DejaVuSans-32"/>
       <use xlink:href="#DejaVuSans-30" x="63.623047"/>
       <use xlink:href="#DejaVuSans-32" x="127.246094"/>
       <use xlink:href="#DejaVuSans-32" x="190.869141"/>
       <use xlink:href="#DejaVuSans-2d" x="254.492188"/>
       <use xlink:href="#DejaVuSans-31" x="290.576172"/>
       <use xlink:href="#DejaVuSans-30" x="354.199219"/>
       <use xlink:href="#DejaVuSans-2d" x="417.822266"/>
       <use xlink:href="#DejaVuSans-31" x="453.90625"/>
       <use xlink:href="#DejaVuSans-31" x="517.529297"/>
      </g>
     </g>
    </g>
    <g id="xtick_10">
     <g id="line2d_10">
      <g>
       <use xlink:href="#mf30c07b062" x="617.523621" y="395.28" style="stroke: #000000; stroke-width: 0.8"/>
      </g>
     </g>
     <g id="text_10">
      <!-- 2022-11-08 -->
      <g transform="translate(532.394594 495.213718) rotate(-45) scale(0.2 -0.2)">
       <use xlink:href="#DejaVuSans-32"/>
       <use xlink:href="#DejaVuSans-30" x="63.623047"/>
       <use xlink:href="#DejaVuSans-32" x="127.246094"/>
       <use xlink:href="#DejaVuSans-32" x="190.869141"/>
       <use xlink:href="#DejaVuSans-2d" x="254.492188"/>
       <use xlink:href="#DejaVuSans-31" x="290.576172"/>
       <use xlink:href="#DejaVuSans-31" x="354.199219"/>
       <use xlink:href="#DejaVuSans-2d" x="417.822266"/>
       <use xlink:href="#DejaVuSans-30" x="453.90625"/>
       <use xlink:href="#DejaVuSans-38" x="517.529297"/>
      </g>
     </g>
    </g>
    <g id="xtick_11">
     <g id="line2d_11">
      <g>
       <use xlink:href="#mf30c07b062" x="674.684597" y="395.28" style="stroke: #000000; stroke-width: 0.8"/>
      </g>
     </g>
     <g id="text_11">
      <!-- 2022-12-06 -->
      <g transform="translate(589.555569 495.213718) rotate(-45) scale(0.2 -0.2)">
       <use xlink:href="#DejaVuSans-32"/>
       <use xlink:href="#DejaVuSans-30" x="63.623047"/>
       <use xlink:href="#DejaVuSans-32" x="127.246094"/>
       <use xlink:href="#DejaVuSans-32" x="190.869141"/>
       <use xlink:href="#DejaVuSans-2d" x="254.492188"/>
       <use xlink:href="#DejaVuSans-31" x="290.576172"/>
       <use xlink:href="#DejaVuSans-32" x="354.199219"/>
       <use xlink:href="#DejaVuSans-2d" x="417.822266"/>
       <use xlink:href="#DejaVuSans-30" x="453.90625"/>
       <use xlink:href="#DejaVuSans-36" x="517.529297"/>
      </g>
     </g>
    </g>
    <g id="xtick_12">
     <g id="line2d_12">
      <g>
       <use xlink:href="#mf30c07b062" x="731.845572" y="395.28" style="stroke: #000000; stroke-width: 0.8"/>
      </g>
     </g>
     <g id="text_12">
      <!-- 2023-01-03 -->
      <g transform="translate(646.716545 495.213718) rotate(-45) scale(0.2 -0.2)">
       <use xlink:href="#DejaVuSans-32"/>
       <use xlink:href="#DejaVuSans-30" x="63.623047"/>
       <use xlink:href="#DejaVuSans-32" x="127.246094"/>
       <use xlink:href="#DejaVuSans-33" x="190.869141"/>
       <use xlink:href="#DejaVuSans-2d" x="254.492188"/>
       <use xlink:href="#DejaVuSans-30" x="290.576172"/>
       <use xlink:href="#DejaVuSans-31" x="354.199219"/>
       <use xlink:href="#DejaVuSans-2d" x="417.822266"/>
       <use xlink:href="#DejaVuSans-30" x="453.90625"/>
       <use xlink:href="#DejaVuSans-33" x="517.529297"/>
      </g>
     </g>
    </g>
    <g id="xtick_13">
     <g id="line2d_13">
      <g>
       <use xlink:href="#mf30c07b062" x="789.006548" y="395.28" style="stroke: #000000; stroke-width: 0.8"/>
      </g>
     </g>
     <g id="text_13">
      <!-- 2023-01-31 -->
      <g transform="translate(703.877521 495.213718) rotate(-45) scale(0.2 -0.2)">
       <use xlink:href="#DejaVuSans-32"/>
       <use xlink:href="#DejaVuSans-30" x="63.623047"/>
       <use xlink:href="#DejaVuSans-32" x="127.246094"/>
       <use xlink:href="#DejaVuSans-33" x="190.869141"/>
       <use xlink:href="#DejaVuSans-2d" x="254.492188"/>
       <use xlink:href="#DejaVuSans-30" x="290.576172"/>
       <use xlink:href="#DejaVuSans-31" x="354.199219"/>
       <use xlink:href="#DejaVuSans-2d" x="417.822266"/>
       <use xlink:href="#DejaVuSans-33" x="453.90625"/>
       <use xlink:href="#DejaVuSans-31" x="517.529297"/>
      </g>
     </g>
    </g>
    <g id="xtick_14">
     <g id="line2d_14">
      <g>
       <use xlink:href="#mf30c07b062" x="846.167524" y="395.28" style="stroke: #000000; stroke-width: 0.8"/>
      </g>
     </g>
     <g id="text_14">
      <!-- 2023-02-28 -->
      <g transform="translate(761.038496 495.213718) rotate(-45) scale(0.2 -0.2)">
       <use xlink:href="#DejaVuSans-32"/>
       <use xlink:href="#DejaVuSans-30" x="63.623047"/>
       <use xlink:href="#DejaVuSans-32" x="127.246094"/>
       <use xlink:href="#DejaVuSans-33" x="190.869141"/>
       <use xlink:href="#DejaVuSans-2d" x="254.492188"/>
       <use xlink:href="#DejaVuSans-30" x="290.576172"/>
       <use xlink:href="#DejaVuSans-32" x="354.199219"/>
       <use xlink:href="#DejaVuSans-2d" x="417.822266"/>
       <use xlink:href="#DejaVuSans-32" x="453.90625"/>
       <use xlink:href="#DejaVuSans-38" x="517.529297"/>
      </g>
     </g>
    </g>
    <g id="xtick_15">
     <g id="line2d_15">
      <g>
       <use xlink:href="#mf30c07b062" x="903.328499" y="395.28" style="stroke: #000000; stroke-width: 0.8"/>
      </g>
     </g>
     <g id="text_15">
      <!-- 2023-03-28 -->
      <g transform="translate(818.199472 495.213718) rotate(-45) scale(0.2 -0.2)">
       <use xlink:href="#DejaVuSans-32"/>
       <use xlink:href="#DejaVuSans-30" x="63.623047"/>
       <use xlink:href="#DejaVuSans-32" x="127.246094"/>
       <use xlink:href="#DejaVuSans-33" x="190.869141"/>
       <use xlink:href="#DejaVuSans-2d" x="254.492188"/>
       <use xlink:href="#DejaVuSans-30" x="290.576172"/>
       <use xlink:href="#DejaVuSans-33" x="354.199219"/>
       <use xlink:href="#DejaVuSans-2d" x="417.822266"/>
       <use xlink:href="#DejaVuSans-32" x="453.90625"/>
       <use xlink:href="#DejaVuSans-38" x="517.529297"/>
      </g>
     </g>
    </g>
    <g id="xtick_16">
     <g id="line2d_16">
      <g>
       <use xlink:href="#mf30c07b062" x="940.074841" y="395.28" style="stroke: #000000; stroke-width: 0.8"/>
      </g>
     </g>
     <g id="text_16">
      <!-- 2023-04-15 -->
      <g transform="translate(854.945813 495.213718) rotate(-45) scale(0.2 -0.2)">
       <use xlink:href="#DejaVuSans-32"/>
       <use xlink:href="#DejaVuSans-30" x="63.623047"/>
       <use xlink:href="#DejaVuSans-32" x="127.246094"/>
       <use xlink:href="#DejaVuSans-33" x="190.869141"/>
       <use xlink:href="#DejaVuSans-2d" x="254.492188"/>
       <use xlink:href="#DejaVuSans-30" x="290.576172"/>
       <use xlink:href="#DejaVuSans-34" x="354.199219"/>
       <use xlink:href="#DejaVuSans-2d" x="417.822266"/>
       <use xlink:href="#DejaVuSans-31" x="453.90625"/>
       <use xlink:href="#DejaVuSans-35" x="517.529297"/>
      </g>
     </g>
    </g>
   </g>
   <g id="matplotlib.axis_2">
    <g id="ytick_1">
     <g id="line2d_17">
      <defs>
       <path id="m35e5241e29" d="M 0 0 
L -3.5 0 
" style="stroke: #000000; stroke-width: 0.8"/>
      </defs>
      <g>
       <use xlink:href="#m35e5241e29" x="103.074841" y="369.028429" style="stroke: #000000; stroke-width: 0.8"/>
      </g>
     </g>
     <g id="text_17">
      <!-- 0.025 -->
      <g transform="translate(22.059216 376.626866) scale(0.2 -0.2)">
       <defs>
        <path id="DejaVuSans-2212" d="M 678 2272 
L 4684 2272 
L 4684 1741 
L 678 1741 
L 678 2272 
z
" transform="scale(0.015625)"/>
        <path id="DejaVuSans-2e" d="M 684 794 
L 1344 794 
L 1344 0 
L 684 0 
L 684 794 
z
" transform="scale(0.015625)"/>
       </defs>
       <use xlink:href="#DejaVuSans-2212"/>
       <use xlink:href="#DejaVuSans-30" x="83.789062"/>
       <use xlink:href="#DejaVuSans-2e" x="147.412109"/>
       <use xlink:href="#DejaVuSans-30" x="179.199219"/>
       <use xlink:href="#DejaVuSans-32" x="242.822266"/>
       <use xlink:href="#DejaVuSans-35" x="306.445312"/>
      </g>
     </g>
    </g>
    <g id="ytick_2">
     <g id="line2d_18">
      <g>
       <use xlink:href="#m35e5241e29" x="103.074841" y="325.682147" style="stroke: #000000; stroke-width: 0.8"/>
      </g>
     </g>
     <g id="text_18">
      <!-- 0.000 -->
      <g transform="translate(38.818591 333.280584) scale(0.2 -0.2)">
       <use xlink:href="#DejaVuSans-30"/>
       <use xlink:href="#DejaVuSans-2e" x="63.623047"/>
       <use xlink:href="#DejaVuSans-30" x="95.410156"/>
       <use xlink:href="#DejaVuSans-30" x="159.033203"/>
       <use xlink:href="#DejaVuSans-30" x="222.65625"/>
      </g>
     </g>
    </g>
    <g id="ytick_3">
     <g id="line2d_19">
      <g>
       <use xlink:href="#m35e5241e29" x="103.074841" y="282.335865" style="stroke: #000000; stroke-width: 0.8"/>
      </g>
     </g>
     <g id="text_19">
      <!-- 0.025 -->
      <g transform="translate(38.818591 289.934302) scale(0.2 -0.2)">
       <use xlink:href="#DejaVuSans-30"/>
       <use xlink:href="#DejaVuSans-2e" x="63.623047"/>
       <use xlink:href="#DejaVuSans-30" x="95.410156"/>
       <use xlink:href="#DejaVuSans-32" x="159.033203"/>
       <use xlink:href="#DejaVuSans-35" x="222.65625"/>
      </g>
     </g>
    </g>
    <g id="ytick_4">
     <g id="line2d_20">
      <g>
       <use xlink:href="#m35e5241e29" x="103.074841" y="238.989583" style="stroke: #000000; stroke-width: 0.8"/>
      </g>
     </g>
     <g id="text_20">
      <!-- 0.050 -->
      <g transform="translate(38.818591 246.58802) scale(0.2 -0.2)">
       <use xlink:href="#DejaVuSans-30"/>
       <use xlink:href="#DejaVuSans-2e" x="63.623047"/>
       <use xlink:href="#DejaVuSans-30" x="95.410156"/>
       <use xlink:href="#DejaVuSans-35" x="159.033203"/>
       <use xlink:href="#DejaVuSans-30" x="222.65625"/>
      </g>
     </g>
    </g>
    <g id="ytick_5">
     <g id="line2d_21">
      <g>
       <use xlink:href="#m35e5241e29" x="103.074841" y="195.6433" style="stroke: #000000; stroke-width: 0.8"/>
      </g>
     </g>
     <g id="text_21">
      <!-- 0.075 -->
      <g transform="translate(38.818591 203.241738) scale(0.2 -0.2)">
       <use xlink:href="#DejaVuSans-30"/>
       <use xlink:href="#DejaVuSans-2e" x="63.623047"/>
       <use xlink:href="#DejaVuSans-30" x="95.410156"/>
       <use xlink:href="#DejaVuSans-37" x="159.033203"/>
       <use xlink:href="#DejaVuSans-35" x="222.65625"/>
      </g>
     </g>
    </g>
    <g id="ytick_6">
     <g id="line2d_22">
      <g>
       <use xlink:href="#m35e5241e29" x="103.074841" y="152.297018" style="stroke: #000000; stroke-width: 0.8"/>
      </g>
     </g>
     <g id="text_22">
      <!-- 0.100 -->
      <g transform="translate(38.818591 159.895456) scale(0.2 -0.2)">
       <use xlink:href="#DejaVuSans-30"/>
       <use xlink:href="#DejaVuSans-2e" x="63.623047"/>
       <use xlink:href="#DejaVuSans-31" x="95.410156"/>
       <use xlink:href="#DejaVuSans-30" x="159.033203"/>
       <use xlink:href="#DejaVuSans-30" x="222.65625"/>
      </g>
     </g>
    </g>
    <g id="ytick_7">
     <g id="line2d_23">
      <g>
       <use xlink:href="#m35e5241e29" x="103.074841" y="108.950736" style="stroke: #000000; stroke-width: 0.8"/>
      </g>
     </g>
     <g id="text_23">
      <!-- 0.125 -->
      <g transform="translate(38.818591 116.549174) scale(0.2 -0.2)">
       <use xlink:href="#DejaVuSans-30"/>
       <use xlink:href="#DejaVuSans-2e" x="63.623047"/>
       <use xlink:href="#DejaVuSans-31" x="95.410156"/>
       <use xlink:href="#DejaVuSans-32" x="159.033203"/>
       <use xlink:href="#DejaVuSans-35" x="222.65625"/>
      </g>
     </g>
    </g>
    <g id="ytick_8">
     <g id="line2d_24">
      <g>
       <use xlink:href="#m35e5241e29" x="103.074841" y="65.604454" style="stroke: #000000; stroke-width: 0.8"/>
      </g>
     </g>
     <g id="text_24">
      <!-- 0.150 -->
      <g transform="translate(38.818591 73.202892) scale(0.2 -0.2)">
       <use xlink:href="#DejaVuSans-30"/>
       <use xlink:href="#DejaVuSans-2e" x="63.623047"/>
       <use xlink:href="#DejaVuSans-31" x="95.410156"/>
       <use xlink:href="#DejaVuSans-35" x="159.033203"/>
       <use xlink:href="#DejaVuSans-30" x="222.65625"/>
      </g>
     </g>
    </g>
    <g id="ytick_9">
     <g id="line2d_25">
      <g>
       <use xlink:href="#m35e5241e29" x="103.074841" y="22.258172" style="stroke: #000000; stroke-width: 0.8"/>
      </g>
     </g>
     <g id="text_25">
      <!-- 0.175 -->
      <g transform="translate(38.818591 29.85661) scale(0.2 -0.2)">
       <use xlink:href="#DejaVuSans-30"/>
       <use xlink:href="#DejaVuSans-2e" x="63.623047"/>
       <use xlink:href="#DejaVuSans-31" x="95.410156"/>
       <use xlink:href="#DejaVuSans-37" x="159.033203"/>
       <use xlink:href="#DejaVuSans-35" x="222.65625"/>
      </g>
     </g>
    </g>
   </g>
   <g id="line2d_26">
    <path d="M 0 0 
" clip-path="url(#p48b6cb4e0b)" style="fill: none; stroke: #ffa500; stroke-width: 1.5; stroke-linecap: square"/>
   </g>
   <g id="line2d_27">
    <path d="M 103.074841 325.682147 
L 948.274841 325.682147 
" clip-path="url(#p48b6cb4e0b)" style="fill: none; stroke-dasharray: 7.4,3.2; stroke-dashoffset: 0; stroke: #000000; stroke-width: 2"/>
   </g>
   <g id="patch_3">
    <path d="M 103.074841 395.28 
L 103.074841 7.2 
" style="fill: none; stroke: #000000; stroke-width: 0.8; stroke-linejoin: miter; stroke-linecap: square"/>
   </g>
   <g id="patch_4">
    <path d="M 940.074841 395.28 
L 940.074841 7.2 
" style="fill: none; stroke: #000000; stroke-width: 0.8; stroke-linejoin: miter; stroke-linecap: square"/>
   </g>
   <g id="patch_5">
    <path d="M 103.074841 395.28 
L 940.074841 395.28 
" style="fill: none; stroke: #000000; stroke-width: 0.8; stroke-linejoin: miter; stroke-linecap: square"/>
   </g>
   <g id="patch_6">
    <path d="M 103.074841 7.2 
L 940.074841 7.2 
" style="fill: none; stroke: #000000; stroke-width: 0.8; stroke-linejoin: miter; stroke-linecap: square"/>
   </g>
  </g>
 </g>
 <defs>
  <clipPath id="p48b6cb4e0b">
   <rect x="103.074841" y="7.2" width="837" height="388.08"/>
  </clipPath>
 </defs>
</svg>
