<?xml version="1.0" encoding="utf-8" standalone="no"?>
<!DOCTYPE svg PUBLIC "-//W3C//DTD SVG 1.1//EN"
  "http://www.w3.org/Graphics/SVG/1.1/DTD/svg11.dtd">
<svg xmlns:xlink="http://www.w3.org/1999/xlink" width="947.274841pt" height="510.646875pt" viewBox="0 0 947.274841 510.646875" xmlns="http://www.w3.org/2000/svg" version="1.1">
 <metadata>
  <rdf:RDF xmlns:dc="http://purl.org/dc/elements/1.1/" xmlns:cc="http://creativecommons.org/ns#" xmlns:rdf="http://www.w3.org/1999/02/22-rdf-syntax-ns#">
   <cc:Work>
    <dc:type rdf:resource="http://purl.org/dc/dcmitype/StillImage"/>
    <dc:date>2023-11-12T23:19:09.406836</dc:date>
    <dc:format>image/svg+xml</dc:format>
    <dc:creator>
     <cc:Agent>
      <dc:title>Matplotlib v3.7.2, https://matplotlib.org/</dc:title>
     </cc:Agent>
    </dc:creator>
   </cc:Work>
  </rdf:RDF>
 </metadata>
 <defs>
  <style type="text/css">*{stroke-linejoin: round; stroke-linecap: butt}</style>
 </defs>
 <g id="figure_1">
  <g id="patch_1">
   <path d="M 0 510.646875 
L 947.274841 510.646875 
L 947.274841 -0 
L 0 -0 
z
" style="fill: #ffffff"/>
  </g>
  <g id="axes_1">
   <g id="patch_2">
    <path d="M 103.074841 400.572035 
L 940.074841 400.572035 
L 940.074841 12.492035 
L 103.074841 12.492035 
z
" style="fill: #ffffff"/>
   </g>
   <g id="PolyCollection_1">
    <path d="M -393.000769 322.233076 
L -393.000769 322.24058 
L -390.959306 322.182321 
L -388.917842 322.154468 
L -386.876379 322.110004 
L -384.834915 322.105637 
L -382.793452 322.085061 
L -380.751989 322.048712 
L -378.710525 322.016348 
L -376.669062 321.991824 
L -374.627598 321.983592 
L -372.586135 321.958618 
L -370.544672 321.929281 
L -368.503208 321.906438 
L -366.461745 321.857394 
L -364.420281 321.835361 
L -362.378818 321.793295 
L -360.337354 321.775048 
L -358.295891 321.714705 
L -356.254428 321.687456 
L -354.212964 321.667813 
L -352.171501 321.626242 
L -350.130037 321.592436 
L -348.088574 321.565597 
L -346.047111 321.511358 
L -344.005647 321.486247 
L -341.964184 321.437755 
L -339.92272 321.392782 
L -337.881257 321.335076 
L -335.839793 321.278335 
L -333.79833 321.234949 
L -331.756867 321.167121 
L -329.715403 321.076608 
L -327.67394 321.027126 
L -325.632476 320.954883 
L -323.591013 320.855084 
L -321.54955 320.790161 
L -319.508086 320.687059 
L -317.466623 320.592982 
L -315.425159 320.502191 
L -313.383696 320.406749 
L -311.342232 320.285687 
L -309.300769 320.154194 
L -307.259306 320.013468 
L -305.217842 319.908394 
L -303.176379 319.739375 
L -301.134915 319.615222 
L -299.093452 319.474372 
L -297.051989 319.347671 
L -295.010525 319.194511 
L -292.969062 319.008018 
L -290.927598 318.88482 
L -288.886135 318.706705 
L -286.844672 318.519692 
L -284.803208 318.35952 
L -282.761745 318.220256 
L -280.720281 318.03263 
L -278.678818 317.848749 
L -276.637354 317.676981 
L -274.595891 317.485685 
L -272.554428 317.296446 
L -270.512964 317.118705 
L -268.471501 316.924124 
L -266.430037 316.736894 
L -264.388574 316.57067 
L -262.347111 316.379492 
L -260.305647 316.138165 
L -258.264184 315.930875 
L -256.22272 315.730097 
L -254.181257 315.545332 
L -252.139793 315.327603 
L -250.09833 315.130567 
L -248.056867 314.918119 
L -246.015403 314.787931 
L -243.97394 314.51556 
L -241.932476 314.362234 
L -239.891013 314.128907 
L -237.84955 313.933563 
L -235.808086 313.69322 
L -233.766623 313.53584 
L -231.725159 313.262639 
L -229.683696 313.039794 
L -227.642232 312.859287 
L -225.600769 312.608547 
L -223.559306 312.400144 
L -221.517842 312.153489 
L -219.476379 311.894841 
L -217.434915 311.67506 
L -215.393452 311.47681 
L -213.351989 311.216904 
L -211.310525 310.987661 
L -209.269062 310.738901 
L -207.227598 310.517523 
L -205.186135 310.311022 
L -203.144672 310.080852 
L -201.103208 309.840641 
L -199.061745 309.67766 
L -197.020281 309.429167 
L -194.978818 309.211515 
L -192.937354 309.001937 
L -190.895891 308.787432 
L -188.854428 308.581624 
L -186.812964 308.37221 
L -184.771501 308.196476 
L -182.730037 307.989065 
L -180.688574 307.761881 
L -178.647111 307.526506 
L -176.605647 307.284286 
L -174.564184 307.096042 
L -172.52272 306.835834 
L -170.481257 306.526115 
L -168.439793 306.277104 
L -166.39833 305.990132 
L -164.356867 305.698079 
L -162.315403 305.365304 
L -160.27394 305.025534 
L -158.232476 304.763371 
L -156.191013 304.38619 
L -154.14955 304.06963 
L -152.108086 303.690452 
L -150.066623 303.40645 
L -148.025159 302.965771 
L -145.983696 302.558284 
L -143.942232 302.191782 
L -141.900769 301.817015 
L -139.859306 301.419301 
L -137.817842 300.982308 
L -135.776379 300.629862 
L -133.734915 300.129847 
L -131.693452 299.791964 
L -129.651989 299.277942 
L -127.610525 298.815544 
L -125.569062 298.39472 
L -123.527598 298.035767 
L -121.486135 297.495994 
L -119.444672 297.100137 
L -117.403208 296.385811 
L -115.361745 295.905403 
L -113.320281 295.534076 
L -111.278818 295.020184 
L -109.237354 294.491783 
L -107.195891 293.767363 
L -105.154428 293.173084 
L -103.112964 292.864318 
L -101.071501 291.829023 
L -99.030037 291.233394 
L -96.988574 290.638117 
L -94.947111 290.018807 
L -92.905647 289.199222 
L -90.864184 288.542337 
L -88.82272 288.385807 
L -86.781257 287.887256 
L -84.739793 286.291777 
L -82.69833 285.219456 
L -80.656867 284.840336 
L -78.615403 283.807603 
L -76.57394 283.251046 
L -74.532476 283.005992 
L -72.491013 281.874401 
L -70.44955 280.392716 
L -68.408086 279.933192 
L -66.366623 280.266617 
L -64.325159 279.374881 
L -62.283696 279.940458 
L -60.242232 279.81286 
L -58.200769 278.72269 
L -56.159306 279.966636 
L -54.117842 282.176994 
L -52.076379 285.532103 
L -50.034915 284.304707 
L -47.993452 290.238938 
L -45.951989 292.549008 
L -43.910525 287.055568 
L -41.869062 289.929419 
L -39.827598 293.814928 
L -37.786135 293.014422 
L -35.744672 293.541851 
L -33.703208 306.733721 
L -31.661745 325.037095 
L -29.620281 334.44701 
L -27.578818 315.881525 
L -25.537354 326.395505 
L -23.495891 339.652208 
L -21.454428 339.347639 
L -19.412964 365.776828 
L -17.371501 362.259936 
L -15.330037 354.568866 
L -13.288574 334.798405 
L -11.247111 353.776936 
L -9.205647 365.08102 
L -7.164184 360.214958 
L -5.12272 363.397424 
L -3.081257 373.76024 
L -1.039793 372.249623 
L 1.00167 363.466339 
L 3.043133 374.593054 
L 5.084597 377.14004 
L 7.12606 372.845764 
L 9.167524 380.382708 
L 11.208987 382.932035 
L 13.25045 382.331336 
L 15.291914 379.89998 
L 17.333377 382.202533 
L 19.374841 379.605784 
L 21.416304 379.753098 
L 23.457768 382.162079 
L 25.499231 380.088914 
L 27.540694 381.239444 
L 29.582158 381.440608 
L 31.623621 379.416167 
L 33.665085 380.246698 
L 35.706548 377.092646 
L 37.748011 377.805382 
L 39.789475 378.715585 
L 41.830938 378.956889 
L 43.872402 377.605873 
L 45.913865 376.409635 
L 47.955328 376.352387 
L 49.996792 375.320215 
L 52.038255 375.357888 
L 54.079719 375.335003 
L 56.121182 373.565093 
L 58.162646 374.892013 
L 60.204109 373.786511 
L 62.245572 373.264448 
L 64.287036 373.922316 
L 66.328499 372.909389 
L 68.369963 372.911605 
L 70.411426 373.732812 
L 72.452889 374.827627 
L 74.494353 372.986314 
L 76.535816 372.332581 
L 78.57728 372.759177 
L 80.618743 376.775787 
L 82.660207 377.249462 
L 84.70167 379.057279 
L 86.743133 375.870653 
L 88.784597 374.190544 
L 90.82606 375.172309 
L 92.867524 377.88561 
L 94.908987 378.624389 
L 96.95045 375.00899 
L 98.991914 378.755139 
L 101.033377 377.630802 
L 103.074841 377.747116 
L 105.116304 376.055963 
L 107.157768 377.878548 
L 109.199231 377.488103 
L 111.240694 378.82481 
L 113.282158 377.753781 
L 115.323621 377.154807 
L 117.365085 375.791831 
L 119.406548 375.429275 
L 121.448011 375.129617 
L 123.489475 374.310582 
L 125.530938 374.547883 
L 127.572402 373.803007 
L 129.613865 372.985208 
L 131.655328 370.928197 
L 133.696792 369.230799 
L 135.738255 368.568508 
L 137.779719 366.795942 
L 139.821182 366.745889 
L 141.862646 365.34777 
L 143.904109 363.100262 
L 145.945572 361.394314 
L 147.987036 359.951924 
L 150.028499 357.754673 
L 152.069963 356.31734 
L 154.111426 354.44512 
L 156.152889 352.766498 
L 158.194353 350.540471 
L 160.235816 348.511433 
L 162.27728 346.386646 
L 164.318743 344.482439 
L 166.360207 342.54432 
L 168.40167 339.856303 
L 170.443133 337.460306 
L 172.484597 335.140129 
L 174.52606 333.69047 
L 176.567524 331.006328 
L 178.608987 328.902126 
L 180.65045 326.448574 
L 182.691914 322.582966 
L 184.733377 321.287546 
L 186.774841 318.254732 
L 188.816304 316.027919 
L 190.857768 313.325532 
L 192.899231 310.222049 
L 194.940694 307.470621 
L 196.982158 304.708884 
L 199.023621 301.002094 
L 201.065085 298.73233 
L 203.106548 295.163058 
L 205.148011 293.118522 
L 207.189475 289.42057 
L 209.230938 285.816707 
L 211.272402 282.837511 
L 213.313865 280.510521 
L 215.355328 276.272032 
L 217.396792 273.550679 
L 219.438255 269.914099 
L 221.479719 267.113939 
L 223.521182 263.237639 
L 225.562646 259.814765 
L 227.604109 260.141395 
L 229.645572 252.841723 
L 231.687036 252.30222 
L 233.728499 248.374248 
L 235.769963 245.69193 
L 237.811426 242.412977 
L 239.852889 238.994276 
L 241.894353 235.76599 
L 243.935816 232.898796 
L 245.97728 230.263084 
L 248.018743 227.421983 
L 250.060207 230.584314 
L 252.10167 221.077866 
L 254.143133 219.553217 
L 256.184597 227.204329 
L 258.22606 216.441196 
L 260.267524 218.463426 
L 262.308987 217.592651 
L 264.35045 211.727406 
L 266.391914 213.165089 
L 268.433377 218.515769 
L 270.474841 214.278706 
L 272.516304 212.58309 
L 274.557768 216.303175 
L 276.599231 215.149684 
L 278.640694 217.384088 
L 280.682158 220.900702 
L 282.723621 225.535739 
L 284.765085 238.895452 
L 286.806548 235.169079 
L 288.848011 241.875505 
L 290.889475 246.941507 
L 292.930938 249.757338 
L 294.972402 256.470451 
L 297.013865 260.099873 
L 299.055328 250.696561 
L 301.096792 258.094223 
L 303.138255 268.94562 
L 305.179719 273.621652 
L 307.221182 273.940817 
L 309.262646 287.504528 
L 311.304109 287.335949 
L 313.345572 289.12152 
L 315.387036 287.907335 
L 317.428499 298.455801 
L 319.469963 293.081977 
L 321.511426 290.099778 
L 323.552889 297.759455 
L 325.594353 305.555543 
L 327.635816 301.910694 
L 329.67728 304.787581 
L 331.718743 304.91849 
L 333.760207 303.57504 
L 335.80167 300.941168 
L 337.843133 301.683918 
L 339.884597 301.228612 
L 341.92606 308.156016 
L 343.967524 301.339241 
L 346.008987 307.122216 
L 348.05045 303.839265 
L 350.091914 300.630419 
L 352.133377 302.381566 
L 354.174841 302.170562 
L 356.216304 296.833395 
L 358.257768 296.05672 
L 360.299231 293.743676 
L 362.340694 296.564612 
L 364.382158 292.59076 
L 366.423621 290.050625 
L 368.465085 287.876144 
L 370.506548 288.39802 
L 372.548011 285.327912 
L 374.589475 281.367972 
L 376.630938 280.097429 
L 378.672402 274.677386 
L 380.713865 272.799239 
L 382.755328 275.940403 
L 384.796792 273.871098 
L 386.838255 268.872545 
L 388.879719 265.26429 
L 390.921182 263.465112 
L 392.962646 258.059358 
L 395.004109 256.471317 
L 397.045572 254.64306 
L 399.087036 252.032131 
L 401.128499 248.082384 
L 403.169963 243.025562 
L 405.211426 243.259293 
L 407.252889 239.432657 
L 409.294353 238.063491 
L 411.335816 234.968621 
L 413.37728 234.418915 
L 415.418743 229.805459 
L 417.460207 224.09004 
L 419.50167 222.225186 
L 421.543133 217.517935 
L 423.584597 211.180555 
L 425.62606 212.176605 
L 427.667524 205.612095 
L 429.708987 207.013888 
L 431.75045 204.492922 
L 433.791914 204.018407 
L 435.833377 198.992606 
L 437.874841 197.731839 
L 439.916304 196.302873 
L 441.957768 188.413791 
L 443.999231 190.142626 
L 446.040694 188.585954 
L 448.082158 187.508248 
L 450.123621 184.304257 
L 452.165085 184.669139 
L 454.206548 181.348238 
L 456.248011 179.276953 
L 458.289475 173.353377 
L 460.330938 170.954572 
L 462.372402 168.59918 
L 464.413865 166.610802 
L 466.455328 166.361592 
L 468.496792 164.395268 
L 470.538255 160.534589 
L 472.579719 160.194908 
L 474.621182 157.285953 
L 476.662646 156.25243 
L 478.704109 155.039187 
L 480.745572 154.775081 
L 482.787036 151.100817 
L 484.828499 143.445043 
L 486.869963 148.407816 
L 488.911426 146.607046 
L 490.952889 144.794316 
L 492.994353 142.79667 
L 495.035816 138.360471 
L 497.07728 137.651898 
L 499.118743 134.306451 
L 501.160207 133.362309 
L 503.20167 132.231865 
L 505.243133 129.232898 
L 507.284597 125.155144 
L 509.32606 129.543118 
L 511.367524 128.009669 
L 513.408987 124.497096 
L 515.45045 126.106972 
L 517.491914 120.14144 
L 519.533377 120.466422 
L 521.574841 120.469315 
L 523.616304 116.324927 
L 525.657768 122.430833 
L 527.699231 115.602492 
L 529.740694 111.977198 
L 531.782158 115.876434 
L 533.823621 116.688762 
L 535.865085 114.293567 
L 537.906548 115.608923 
L 539.948011 112.310355 
L 541.989475 117.779581 
L 544.030938 114.517124 
L 546.072402 115.401195 
L 548.113865 111.138531 
L 550.155328 107.293654 
L 552.196792 111.504679 
L 554.238255 119.280498 
L 556.279719 109.756443 
L 558.321182 109.963083 
L 560.362646 106.217509 
L 562.404109 107.542953 
L 564.445572 106.781847 
L 566.487036 104.348415 
L 568.528499 103.256405 
L 570.569963 106.899181 
L 572.611426 104.554065 
L 574.652889 107.860112 
L 576.694353 108.230454 
L 578.735816 97.460918 
L 580.77728 101.502468 
L 582.818743 101.583711 
L 584.860207 102.045651 
L 586.90167 102.433043 
L 588.943133 108.887107 
L 590.984597 111.297939 
L 593.02606 110.724625 
L 595.067524 117.846361 
L 597.108987 129.802987 
L 599.15045 114.915591 
L 601.191914 114.464517 
L 603.233377 114.502539 
L 605.274841 119.093042 
L 607.316304 119.936919 
L 609.357768 119.637692 
L 611.399231 129.909222 
L 613.440694 133.517092 
L 615.482158 121.223734 
L 617.523621 131.81682 
L 619.565085 126.16454 
L 621.606548 122.549861 
L 623.648011 135.486745 
L 625.689475 132.562308 
L 627.730938 140.812789 
L 629.772402 137.927355 
L 631.813865 131.875066 
L 633.855328 136.942311 
L 635.896792 136.660223 
L 637.938255 141.628087 
L 639.979719 138.027119 
L 642.021182 146.408888 
L 644.062646 139.864591 
L 646.104109 144.148688 
L 648.145572 142.914889 
L 650.187036 147.660919 
L 652.228499 139.225928 
L 654.269963 147.647053 
L 656.311426 146.855421 
L 658.352889 152.494524 
L 660.394353 155.315751 
L 662.435816 154.99724 
L 664.47728 153.124171 
L 666.518743 156.619383 
L 668.560207 159.122843 
L 670.60167 156.208608 
L 672.643133 154.896881 
L 674.684597 157.909726 
L 676.72606 160.60747 
L 678.767524 154.943149 
L 680.808987 151.549995 
L 682.85045 163.358508 
L 684.891914 168.519828 
L 686.933377 155.736352 
L 688.974841 159.042004 
L 691.016304 160.519349 
L 693.057768 161.049904 
L 695.099231 166.925608 
L 697.140694 165.760984 
L 699.182158 162.863922 
L 701.223621 165.228835 
L 703.265085 165.60295 
L 705.306548 158.54999 
L 707.348011 161.598275 
L 709.389475 159.189542 
L 711.430938 168.134891 
L 713.472402 179.203159 
L 715.513865 177.202708 
L 717.555328 167.787133 
L 719.596792 166.483745 
L 721.638255 167.411863 
L 723.679719 167.545683 
L 725.721182 175.729684 
L 727.762646 164.614041 
L 729.804109 175.669223 
L 731.845572 184.480951 
L 733.887036 176.525156 
L 735.928499 187.9341 
L 737.969963 180.251098 
L 740.011426 186.325187 
L 742.052889 181.75547 
L 744.094353 184.596109 
L 746.135816 190.569818 
L 748.17728 189.823006 
L 750.218743 191.447142 
L 752.260207 191.638677 
L 754.30167 191.979766 
L 756.343133 176.294655 
L 758.384597 195.831851 
L 760.42606 203.656298 
L 762.467524 195.407367 
L 764.508987 202.285913 
L 766.55045 203.503411 
L 768.591914 199.033348 
L 770.633377 206.852091 
L 772.674841 211.960479 
L 774.716304 208.40981 
L 776.757768 210.195446 
L 778.799231 211.048725 
L 780.840694 212.657478 
L 782.882158 218.492855 
L 784.923621 205.516065 
L 786.965085 220.87074 
L 789.006548 220.851046 
L 791.048011 221.131693 
L 793.089475 210.992202 
L 795.130938 222.503869 
L 797.172402 229.976514 
L 799.213865 221.458364 
L 801.255328 221.898998 
L 803.296792 232.459625 
L 805.338255 212.664228 
L 807.379719 230.207518 
L 809.421182 218.43014 
L 811.462646 233.671803 
L 813.504109 225.669543 
L 815.545572 231.929463 
L 817.587036 233.456902 
L 819.628499 235.815859 
L 821.669963 236.086384 
L 823.711426 231.214697 
L 825.752889 230.704312 
L 827.794353 232.186871 
L 829.835816 238.752525 
L 831.87728 237.161131 
L 833.918743 236.236814 
L 835.960207 239.935297 
L 838.00167 239.521451 
L 840.043133 235.275844 
L 842.084597 235.178292 
L 844.12606 241.173333 
L 846.167524 241.429939 
L 848.208987 242.345387 
L 850.25045 236.207338 
L 852.291914 227.480751 
L 854.333377 235.70794 
L 856.374841 232.292407 
L 858.416304 234.005281 
L 860.457768 237.152503 
L 862.499231 231.548357 
L 864.540694 237.161178 
L 866.582158 231.91265 
L 868.623621 230.535535 
L 870.665085 229.492432 
L 872.706548 234.33074 
L 874.748011 232.150997 
L 876.789475 230.881949 
L 878.830938 226.06446 
L 880.872402 227.474375 
L 882.913865 227.652202 
L 884.955328 225.739722 
L 886.996792 228.647823 
L 889.038255 227.030843 
L 891.079719 228.364269 
L 893.121182 229.932253 
L 895.162646 228.974824 
L 897.204109 225.964712 
L 899.245572 225.848191 
L 901.287036 223.723773 
L 903.328499 224.8016 
L 905.369963 224.476853 
L 907.411426 221.204053 
L 909.452889 223.456101 
L 911.494353 210.131735 
L 913.535816 222.198813 
L 915.57728 226.306701 
L 917.618743 220.563162 
L 919.660207 219.950023 
L 921.70167 224.087989 
L 923.743133 223.662107 
L 925.784597 218.613883 
L 927.82606 217.744766 
L 929.867524 220.195861 
L 931.908987 218.624302 
L 933.95045 223.836313 
L 935.991914 221.381712 
L 938.033377 225.407429 
L 940.074841 219.924568 
L 940.074841 201.815889 
L 940.074841 201.815889 
L 938.033377 201.561847 
L 935.991914 197.55872 
L 933.95045 202.514311 
L 931.908987 193.323509 
L 929.867524 197.116258 
L 927.82606 195.867867 
L 925.784597 188.739577 
L 923.743133 201.115594 
L 921.70167 207.310887 
L 919.660207 191.263277 
L 917.618743 199.012336 
L 915.57728 208.63454 
L 913.535816 203.277149 
L 911.494353 136.146958 
L 909.452889 202.981324 
L 907.411426 194.851331 
L 905.369963 206.086096 
L 903.328499 206.378949 
L 901.287036 203.181583 
L 899.245572 205.53607 
L 897.204109 204.929392 
L 895.162646 212.209945 
L 893.121182 213.856827 
L 891.079719 207.659048 
L 889.038255 204.062122 
L 886.996792 209.008262 
L 884.955328 202.16016 
L 882.913865 206.957413 
L 880.872402 204.065263 
L 878.830938 199.488845 
L 876.789475 209.768873 
L 874.748011 212.303617 
L 872.706548 214.187508 
L 870.665085 205.701696 
L 868.623621 205.31845 
L 866.582158 206.543071 
L 864.540694 219.083949 
L 862.499231 205.347893 
L 860.457768 217.687268 
L 858.416304 209.9395 
L 856.374841 204.721171 
L 854.333377 211.937415 
L 852.291914 186.557891 
L 850.25045 212.540843 
L 848.208987 223.297252 
L 846.167524 221.073284 
L 844.12606 220.191718 
L 842.084597 201.437843 
L 840.043133 203.620611 
L 838.00167 213.048517 
L 835.960207 213.794716 
L 833.918743 203.839719 
L 831.87728 206.619714 
L 829.835816 207.784484 
L 827.794353 196.284298 
L 825.752889 188.069247 
L 823.711426 186.613869 
L 821.669963 198.776306 
L 819.628499 197.65505 
L 817.587036 193.626276 
L 815.545572 189.502112 
L 813.504109 171.428365 
L 811.462646 192.729176 
L 809.421182 142.04011 
L 807.379719 179.968452 
L 805.338255 130.4687 
L 803.296792 187.036123 
L 801.255328 159.040441 
L 799.213865 160.226379 
L 797.172402 177.173079 
L 795.130938 160.591362 
L 793.089475 127.687814 
L 791.048011 154.385644 
L 789.006548 155.385062 
L 786.965085 155.854077 
L 784.923621 117.229617 
L 782.882158 138.507716 
L 780.840694 135.135664 
L 778.799231 133.731111 
L 776.757768 130.694112 
L 774.716304 123.682836 
L 772.674841 133.204552 
L 770.633377 119.80406 
L 768.591914 102.711094 
L 766.55045 119.188223 
L 764.508987 108.406605 
L 762.467524 98.893393 
L 760.42606 117.620657 
L 758.384597 99.78319 
L 756.343133 52.080024 
L 754.30167 88.920976 
L 752.260207 88.669054 
L 750.218743 89.895507 
L 748.17728 86.67988 
L 746.135816 88.000695 
L 744.094353 75.84583 
L 742.052889 71.486925 
L 740.011426 82.846393 
L 737.969963 64.676704 
L 735.928499 85.492263 
L 733.887036 59.855953 
L 731.845572 76.312518 
L 729.804109 59.612493 
L 727.762646 38.662837 
L 725.721182 59.969072 
L 723.679719 41.758417 
L 721.638255 44.159392 
L 719.596792 44.401569 
L 717.555328 47.368877 
L 715.513865 66.6746 
L 713.472402 72.111675 
L 711.430938 51.392709 
L 709.389475 30.132035 
L 707.348011 37.475519 
L 705.306548 34.078643 
L 703.265085 49.20792 
L 701.223621 48.878741 
L 699.182158 44.365892 
L 697.140694 52.773526 
L 695.099231 53.334148 
L 693.057768 43.153857 
L 691.016304 45.671951 
L 688.974841 42.443124 
L 686.933377 38.206108 
L 684.891914 64.898324 
L 682.85045 51.690712 
L 680.808987 33.190064 
L 678.767524 43.776176 
L 676.72606 53.385387 
L 674.684597 49.028801 
L 672.643133 45.957714 
L 670.60167 50.496153 
L 668.560207 60.573036 
L 666.518743 52.172108 
L 664.47728 49.840695 
L 662.435816 54.960342 
L 660.394353 50.140714 
L 658.352889 53.255413 
L 656.311426 42.349266 
L 654.269963 47.91518 
L 652.228499 34.356276 
L 650.187036 48.212946 
L 648.145572 43.435203 
L 646.104109 48.160409 
L 644.062646 45.328911 
L 642.021182 54.256123 
L 639.979719 42.276919 
L 637.938255 51.756665 
L 635.896792 44.657842 
L 633.855328 47.428209 
L 631.813865 42.129468 
L 629.772402 46.806843 
L 627.730938 57.233359 
L 625.689475 49.269482 
L 623.648011 52.660656 
L 621.606548 36.18315 
L 619.565085 45.200337 
L 617.523621 50.803365 
L 615.482158 38.474965 
L 613.440694 54.904805 
L 611.399231 56.547147 
L 609.357768 40.878814 
L 607.316304 42.669659 
L 605.274841 42.38304 
L 603.233377 37.302582 
L 601.191914 42.420828 
L 599.15045 42.609857 
L 597.108987 63.706895 
L 595.067524 50.896055 
L 593.02606 41.831716 
L 590.984597 43.211065 
L 588.943133 41.581358 
L 586.90167 35.750318 
L 584.860207 38.644343 
L 582.818743 35.780771 
L 580.77728 40.894129 
L 578.735816 36.345609 
L 576.694353 49.602855 
L 574.652889 51.847619 
L 572.611426 49.884602 
L 570.569963 53.560633 
L 568.528499 49.586878 
L 566.487036 53.937148 
L 564.445572 57.292569 
L 562.404109 62.211095 
L 560.362646 59.575856 
L 558.321182 66.401448 
L 556.279719 66.453653 
L 554.238255 78.46218 
L 552.196792 71.479412 
L 550.155328 67.984771 
L 548.113865 73.394024 
L 546.072402 77.138868 
L 544.030938 77.754711 
L 541.989475 84.447706 
L 539.948011 79.313287 
L 537.906548 84.505513 
L 535.865085 83.008203 
L 533.823621 85.387771 
L 531.782158 84.2278 
L 529.740694 81.925667 
L 527.699231 88.030081 
L 525.657768 95.484228 
L 523.616304 89.19609 
L 521.574841 94.446827 
L 519.533377 93.541091 
L 517.491914 95.972152 
L 515.45045 102.84377 
L 513.408987 101.390242 
L 511.367524 106.58107 
L 509.32606 108.498679 
L 507.284597 104.191389 
L 505.243133 108.251658 
L 503.20167 112.369562 
L 501.160207 114.10589 
L 499.118743 114.892043 
L 497.07728 117.715368 
L 495.035816 118.525995 
L 492.994353 122.421324 
L 490.952889 124.375267 
L 488.911426 126.141286 
L 486.869963 127.425637 
L 484.828499 121.992925 
L 482.787036 129.383222 
L 480.745572 133.107166 
L 478.704109 133.038006 
L 476.662646 134.350832 
L 474.621182 134.915095 
L 472.579719 137.868311 
L 470.538255 138.318586 
L 468.496792 141.779136 
L 466.455328 143.43573 
L 464.413865 143.895388 
L 462.372402 145.581139 
L 460.330938 147.224692 
L 458.289475 149.140196 
L 456.248011 154.27709 
L 454.206548 155.820656 
L 452.165085 158.307892 
L 450.123621 157.712037 
L 448.082158 160.292523 
L 446.040694 160.497932 
L 443.999231 161.41378 
L 441.957768 159.025576 
L 439.916304 166.260928 
L 437.874841 166.737404 
L 435.833377 167.513837 
L 433.791914 172.110036 
L 431.75045 171.602465 
L 429.708987 173.344972 
L 427.667524 171.596626 
L 425.62606 177.763716 
L 423.584597 174.780607 
L 421.543133 181.026107 
L 419.50167 184.659382 
L 417.460207 185.668536 
L 415.418743 190.682245 
L 413.37728 193.703226 
L 411.335816 194.101204 
L 409.294353 195.957657 
L 407.252889 196.924468 
L 405.211426 199.847779 
L 403.169963 198.833386 
L 401.128499 202.662169 
L 399.087036 205.29653 
L 397.045572 206.970257 
L 395.004109 208.043452 
L 392.962646 208.159932 
L 390.921182 213.39283 
L 388.879719 214.125466 
L 386.838255 216.50836 
L 384.796792 221.336415 
L 382.755328 222.6998 
L 380.713865 217.511706 
L 378.672402 218.36916 
L 376.630938 223.436079 
L 374.589475 223.532751 
L 372.548011 227.0903 
L 370.506548 229.738518 
L 368.465085 228.130498 
L 366.423621 228.653573 
L 364.382158 230.92195 
L 362.340694 234.915233 
L 360.299231 230.510008 
L 358.257768 231.972924 
L 356.216304 231.51421 
L 354.174841 236.96806 
L 352.133377 235.418837 
L 350.091914 232.562635 
L 348.05045 235.007055 
L 346.008987 238.155528 
L 343.967524 230.025196 
L 341.92606 236.918272 
L 339.884597 227.634219 
L 337.843133 226.657496 
L 335.80167 224.283116 
L 333.760207 225.543526 
L 331.718743 226.236499 
L 329.67728 225.780137 
L 327.635816 220.165206 
L 325.594353 222.393514 
L 323.552889 211.877817 
L 321.511426 196.930682 
L 319.469963 200.962969 
L 317.428499 207.465354 
L 315.387036 189.759266 
L 313.345572 192.116848 
L 311.304109 186.899246 
L 309.262646 185.874353 
L 307.221182 164.744539 
L 305.179719 161.812949 
L 303.138255 154.55715 
L 301.096792 138.749949 
L 299.055328 126.088803 
L 297.013865 139.118506 
L 294.972402 132.335767 
L 292.930938 121.604284 
L 290.889475 117.303893 
L 288.848011 109.750369 
L 286.806548 99.619366 
L 284.765085 103.75218 
L 282.723621 86.43176 
L 280.682158 77.427856 
L 278.640694 73.518277 
L 276.599231 70.31873 
L 274.557768 72.37548 
L 272.516304 68.348426 
L 270.474841 72.168731 
L 268.433377 77.14912 
L 266.391914 69.210568 
L 264.35045 68.647664 
L 262.308987 76.658076 
L 260.267524 78.627325 
L 258.22606 75.815171 
L 256.184597 92.01346 
L 254.143133 80.960295 
L 252.10167 84.941528 
L 250.060207 97.274749 
L 248.018743 94.011728 
L 245.97728 98.604581 
L 243.935816 102.721884 
L 241.894353 107.528277 
L 239.852889 112.094051 
L 237.811426 117.248348 
L 235.769963 122.011703 
L 233.728499 125.905321 
L 231.687036 132.062864 
L 229.645572 133.548589 
L 227.604109 143.345869 
L 225.562646 143.75063 
L 223.521182 148.630849 
L 221.479719 154.329943 
L 219.438255 158.568457 
L 217.396792 164.014606 
L 215.355328 167.89149 
L 213.313865 173.876464 
L 211.272402 177.467925 
L 209.230938 182.107072 
L 207.189475 187.064315 
L 205.148011 192.276093 
L 203.106548 195.556102 
L 201.065085 200.690901 
L 199.023621 203.884621 
L 196.982158 209.13537 
L 194.940694 213.064142 
L 192.899231 217.399727 
L 190.857768 221.580532 
L 188.816304 225.519762 
L 186.774841 228.915725 
L 184.733377 233.292751 
L 182.691914 235.559159 
L 180.65045 240.717893 
L 178.608987 244.325097 
L 176.567524 247.293761 
L 174.52606 251.070033 
L 172.484597 254.166621 
L 170.443133 256.73164 
L 168.40167 260.25811 
L 166.360207 264.044149 
L 164.318743 266.91262 
L 162.27728 269.570911 
L 160.235816 272.936724 
L 158.194353 275.44781 
L 156.152889 278.485662 
L 154.111426 280.937552 
L 152.069963 283.705161 
L 150.028499 285.660347 
L 147.987036 288.777225 
L 145.945572 290.743636 
L 143.904109 293.302856 
L 141.862646 296.339735 
L 139.821182 298.468328 
L 137.779719 299.111582 
L 135.738255 301.546105 
L 133.696792 302.68811 
L 131.655328 304.957947 
L 129.613865 307.873108 
L 127.572402 309.140975 
L 125.530938 310.359072 
L 123.489475 310.874754 
L 121.448011 312.197525 
L 119.406548 313.258004 
L 117.365085 314.396447 
L 115.323621 316.426863 
L 113.282158 317.71196 
L 111.240694 319.256913 
L 109.199231 318.782953 
L 107.157768 320.045066 
L 105.116304 318.937542 
L 103.074841 321.167993 
L 101.033377 322.128522 
L 98.991914 323.37943 
L 96.95045 320.472032 
L 94.908987 324.88741 
L 92.867524 324.959627 
L 90.82606 323.169874 
L 88.784597 323.01216 
L 86.743133 325.506553 
L 84.70167 329.245436 
L 82.660207 328.398421 
L 80.618743 328.80506 
L 78.57728 325.883323 
L 76.535816 327.038498 
L 74.494353 327.869727 
L 72.452889 330.361972 
L 70.411426 330.215133 
L 68.369963 330.336472 
L 66.328499 331.177666 
L 64.287036 332.933973 
L 62.245572 333.450908 
L 60.204109 334.531667 
L 58.162646 336.321331 
L 56.121182 336.011748 
L 54.079719 338.444922 
L 52.038255 339.260117 
L 49.996792 340.042441 
L 47.955328 341.85851 
L 45.913865 342.724219 
L 43.872402 344.428664 
L 41.830938 346.323416 
L 39.789475 346.879926 
L 37.748011 346.727938 
L 35.706548 347.129265 
L 33.665085 350.36327 
L 31.623621 350.26998 
L 29.582158 352.685078 
L 27.540694 353.185048 
L 25.499231 352.552793 
L 23.457768 355.366011 
L 21.416304 353.481785 
L 19.374841 353.767878 
L 17.333377 356.858938 
L 15.291914 354.821568 
L 13.25045 357.638635 
L 11.208987 358.870948 
L 9.167524 356.502759 
L 7.12606 349.197651 
L 5.084597 353.90133 
L 3.043133 351.854986 
L 1.00167 340.023113 
L -1.039793 349.955813 
L -3.081257 351.745444 
L -5.12272 340.797672 
L -7.164184 337.893851 
L -9.205647 343.024248 
L -11.247111 331.296837 
L -13.288574 311.605792 
L -15.330037 332.614953 
L -17.371501 341.177163 
L -19.412964 345.04947 
L -21.454428 317.360226 
L -23.495891 318.009975 
L -25.537354 304.185037 
L -27.578818 293.469175 
L -29.620281 313.33115 
L -31.661745 303.694771 
L -33.703208 284.541917 
L -35.744672 270.538967 
L -37.786135 270.156403 
L -39.827598 271.199432 
L -41.869062 267.20026 
L -43.910525 264.266288 
L -45.951989 270.342955 
L -47.993452 268.189617 
L -50.034915 261.911851 
L -52.076379 263.408438 
L -54.117842 259.911735 
L -56.159306 257.579148 
L -58.200769 256.091222 
L -60.242232 257.474178 
L -62.283696 257.557927 
L -64.325159 256.96904 
L -66.366623 257.88514 
L -68.408086 257.512974 
L -70.44955 258.027002 
L -72.491013 259.834571 
L -74.532476 260.802108 
L -76.57394 261.149187 
L -78.615403 261.670707 
L -80.656867 262.930587 
L -82.69833 263.191966 
L -84.739793 264.414963 
L -86.781257 266.213282 
L -88.82272 266.921946 
L -90.864184 267.008492 
L -92.905647 267.844984 
L -94.947111 268.725992 
L -96.988574 269.552658 
L -99.030037 270.339619 
L -101.071501 271.087052 
L -103.112964 272.512488 
L -105.154428 272.829858 
L -107.195891 273.730521 
L -109.237354 274.705383 
L -111.278818 275.465579 
L -113.320281 276.242357 
L -115.361745 276.793618 
L -117.403208 277.453332 
L -119.444672 278.611927 
L -121.486135 279.225553 
L -123.527598 280.069695 
L -125.569062 280.645982 
L -127.610525 281.395087 
L -129.651989 282.180762 
L -131.693452 282.986223 
L -133.734915 283.597391 
L -135.776379 284.416381 
L -137.817842 285.092413 
L -139.859306 285.85422 
L -141.900769 286.532322 
L -143.942232 287.268131 
L -145.983696 287.916908 
L -148.025159 288.649088 
L -150.066623 289.477081 
L -152.108086 290.013749 
L -154.14955 290.792945 
L -156.191013 291.414133 
L -158.232476 292.202296 
L -160.27394 292.677191 
L -162.315403 293.391213 
L -164.356867 294.057989 
L -166.39833 294.678253 
L -168.439793 295.31942 
L -170.481257 295.886752 
L -172.52272 296.61167 
L -174.564184 297.227927 
L -176.605647 297.669971 
L -178.647111 298.261393 
L -180.688574 298.848229 
L -182.730037 299.426 
L -184.771501 299.964294 
L -186.812964 300.432762 
L -188.854428 300.979883 
L -190.895891 301.499815 
L -192.937354 302.015187 
L -194.978818 302.517654 
L -197.020281 303.035292 
L -199.061745 303.580909 
L -201.103208 303.978318 
L -203.144672 304.4899 
L -205.186135 304.974078 
L -207.227598 305.410962 
L -209.269062 305.869031 
L -211.310525 306.339468 
L -213.351989 306.774401 
L -215.393452 307.250374 
L -217.434915 307.632457 
L -219.476379 308.028766 
L -221.517842 308.472985 
L -223.559306 308.879754 
L -225.600769 309.233264 
L -227.642232 309.634215 
L -229.683696 309.946615 
L -231.725159 310.312853 
L -233.766623 310.734564 
L -235.808086 311.01032 
L -237.84955 311.380699 
L -239.891013 311.693752 
L -241.932476 312.044437 
L -243.97394 312.299205 
L -246.015403 312.692535 
L -248.056867 312.908872 
L -250.09833 313.221997 
L -252.139793 313.467021 
L -254.181257 313.697457 
L -256.22272 313.886927 
L -258.264184 314.102792 
L -260.305647 314.333644 
L -262.347111 314.605999 
L -264.388574 314.821324 
L -266.430037 315.005667 
L -268.471501 315.216413 
L -270.512964 315.441707 
L -272.554428 315.648715 
L -274.595891 315.879437 
L -276.637354 316.111957 
L -278.678818 316.319881 
L -280.720281 316.54815 
L -282.761745 316.784215 
L -284.803208 316.961702 
L -286.844672 317.166422 
L -288.886135 317.416063 
L -290.927598 317.64187 
L -292.969062 317.808749 
L -295.010525 318.055673 
L -297.051989 318.259999 
L -299.093452 318.431704 
L -301.134915 318.620848 
L -303.176379 318.790034 
L -305.217842 319.019829 
L -307.259306 319.165556 
L -309.300769 319.356455 
L -311.342232 319.534726 
L -313.383696 319.694253 
L -315.425159 319.829858 
L -317.466623 319.94314 
L -319.508086 320.067696 
L -321.54955 320.202647 
L -323.591013 320.287349 
L -325.632476 320.419414 
L -327.67394 320.51091 
L -329.715403 320.572775 
L -331.756867 320.686468 
L -333.79833 320.772822 
L -335.839793 320.823585 
L -337.881257 320.897216 
L -339.92272 320.970616 
L -341.964184 321.02392 
L -344.005647 321.082927 
L -346.047111 321.11249 
L -348.088574 321.1804 
L -350.130037 321.212125 
L -352.171501 321.254841 
L -354.212964 321.308625 
L -356.254428 321.333393 
L -358.295891 321.368659 
L -360.337354 321.451778 
L -362.378818 321.480273 
L -364.420281 321.541706 
L -366.461745 321.570056 
L -368.503208 321.64374 
L -370.544672 321.682623 
L -372.586135 321.731901 
L -374.627598 321.7641 
L -376.669062 321.785929 
L -378.710525 321.827647 
L -380.751989 321.88731 
L -382.793452 321.948734 
L -384.834915 321.992993 
L -386.876379 322.014927 
L -388.917842 322.093626 
L -390.959306 322.149485 
L -393.000769 322.233076 
z
" clip-path="url(#pf5714f1882)" style="fill: #008000; fill-opacity: 0.3; stroke: #008000; stroke-opacity: 0.3"/>
   </g>
   <g id="matplotlib.axis_1">
    <g id="xtick_1">
     <g id="line2d_1">
      <defs>
       <path id="ma81322b634" d="M 0 0 
L 0 3.5 
" style="stroke: #000000; stroke-width: 0.8"/>
      </defs>
      <g>
       <use xlink:href="#ma81322b634" x="103.074841" y="400.572035" style="stroke: #000000; stroke-width: 0.8"/>
      </g>
     </g>
     <g id="text_1">
      <!-- 2022-03-01 -->
      <g transform="translate(17.945813 500.505753) rotate(-45) scale(0.2 -0.2)">
       <defs>
        <path id="DejaVuSans-32" d="M 1228 531 
L 3431 531 
L 3431 0 
L 469 0 
L 469 531 
Q 828 903 1448 1529 
Q 2069 2156 2228 2338 
Q 2531 2678 2651 2914 
Q 2772 3150 2772 3378 
Q 2772 3750 2511 3984 
Q 2250 4219 1831 4219 
Q 1534 4219 1204 4116 
Q 875 4013 500 3803 
L 500 4441 
Q 881 4594 1212 4672 
Q 1544 4750 1819 4750 
Q 2544 4750 2975 4387 
Q 3406 4025 3406 3419 
Q 3406 3131 3298 2873 
Q 3191 2616 2906 2266 
Q 2828 2175 2409 1742 
Q 1991 1309 1228 531 
z
" transform="scale(0.015625)"/>
        <path id="DejaVuSans-30" d="M 2034 4250 
Q 1547 4250 1301 3770 
Q 1056 3291 1056 2328 
Q 1056 1369 1301 889 
Q 1547 409 2034 409 
Q 2525 409 2770 889 
Q 3016 1369 3016 2328 
Q 3016 3291 2770 3770 
Q 2525 4250 2034 4250 
z
M 2034 4750 
Q 2819 4750 3233 4129 
Q 3647 3509 3647 2328 
Q 3647 1150 3233 529 
Q 2819 -91 2034 -91 
Q 1250 -91 836 529 
Q 422 1150 422 2328 
Q 422 3509 836 4129 
Q 1250 4750 2034 4750 
z
" transform="scale(0.015625)"/>
        <path id="DejaVuSans-2d" d="M 313 2009 
L 1997 2009 
L 1997 1497 
L 313 1497 
L 313 2009 
z
" transform="scale(0.015625)"/>
        <path id="DejaVuSans-33" d="M 2597 2516 
Q 3050 2419 3304 2112 
Q 3559 1806 3559 1356 
Q 3559 666 3084 287 
Q 2609 -91 1734 -91 
Q 1441 -91 1130 -33 
Q 819 25 488 141 
L 488 750 
Q 750 597 1062 519 
Q 1375 441 1716 441 
Q 2309 441 2620 675 
Q 2931 909 2931 1356 
Q 2931 1769 2642 2001 
Q 2353 2234 1838 2234 
L 1294 2234 
L 1294 2753 
L 1863 2753 
Q 2328 2753 2575 2939 
Q 2822 3125 2822 3475 
Q 2822 3834 2567 4026 
Q 2313 4219 1838 4219 
Q 1578 4219 1281 4162 
Q 984 4106 628 3988 
L 628 4550 
Q 988 4650 1302 4700 
Q 1616 4750 1894 4750 
Q 2613 4750 3031 4423 
Q 3450 4097 3450 3541 
Q 3450 3153 3228 2886 
Q 3006 2619 2597 2516 
z
" transform="scale(0.015625)"/>
        <path id="DejaVuSans-31" d="M 794 531 
L 1825 531 
L 1825 4091 
L 703 3866 
L 703 4441 
L 1819 4666 
L 2450 4666 
L 2450 531 
L 3481 531 
L 3481 0 
L 794 0 
L 794 531 
z
" transform="scale(0.015625)"/>
       </defs>
       <use xlink:href="#DejaVuSans-32"/>
       <use xlink:href="#DejaVuSans-30" x="63.623047"/>
       <use xlink:href="#DejaVuSans-32" x="127.246094"/>
       <use xlink:href="#DejaVuSans-32" x="190.869141"/>
       <use xlink:href="#DejaVuSans-2d" x="254.492188"/>
       <use xlink:href="#DejaVuSans-30" x="290.576172"/>
       <use xlink:href="#DejaVuSans-33" x="354.199219"/>
       <use xlink:href="#DejaVuSans-2d" x="417.822266"/>
       <use xlink:href="#DejaVuSans-30" x="453.90625"/>
       <use xlink:href="#DejaVuSans-31" x="517.529297"/>
      </g>
     </g>
    </g>
    <g id="xtick_2">
     <g id="line2d_2">
      <g>
       <use xlink:href="#ma81322b634" x="160.235816" y="400.572035" style="stroke: #000000; stroke-width: 0.8"/>
      </g>
     </g>
     <g id="text_2">
      <!-- 2022-03-29 -->
      <g transform="translate(75.106789 500.505753) rotate(-45) scale(0.2 -0.2)">
       <defs>
        <path id="DejaVuSans-39" d="M 703 97 
L 703 672 
Q 941 559 1184 500 
Q 1428 441 1663 441 
Q 2288 441 2617 861 
Q 2947 1281 2994 2138 
Q 2813 1869 2534 1725 
Q 2256 1581 1919 1581 
Q 1219 1581 811 2004 
Q 403 2428 403 3163 
Q 403 3881 828 4315 
Q 1253 4750 1959 4750 
Q 2769 4750 3195 4129 
Q 3622 3509 3622 2328 
Q 3622 1225 3098 567 
Q 2575 -91 1691 -91 
Q 1453 -91 1209 -44 
Q 966 3 703 97 
z
M 1959 2075 
Q 2384 2075 2632 2365 
Q 2881 2656 2881 3163 
Q 2881 3666 2632 3958 
Q 2384 4250 1959 4250 
Q 1534 4250 1286 3958 
Q 1038 3666 1038 3163 
Q 1038 2656 1286 2365 
Q 1534 2075 1959 2075 
z
" transform="scale(0.015625)"/>
       </defs>
       <use xlink:href="#DejaVuSans-32"/>
       <use xlink:href="#DejaVuSans-30" x="63.623047"/>
       <use xlink:href="#DejaVuSans-32" x="127.246094"/>
       <use xlink:href="#DejaVuSans-32" x="190.869141"/>
       <use xlink:href="#DejaVuSans-2d" x="254.492188"/>
       <use xlink:href="#DejaVuSans-30" x="290.576172"/>
       <use xlink:href="#DejaVuSans-33" x="354.199219"/>
       <use xlink:href="#DejaVuSans-2d" x="417.822266"/>
       <use xlink:href="#DejaVuSans-32" x="453.90625"/>
       <use xlink:href="#DejaVuSans-39" x="517.529297"/>
      </g>
     </g>
    </g>
    <g id="xtick_3">
     <g id="line2d_3">
      <g>
       <use xlink:href="#ma81322b634" x="217.396792" y="400.572035" style="stroke: #000000; stroke-width: 0.8"/>
      </g>
     </g>
     <g id="text_3">
      <!-- 2022-04-26 -->
      <g transform="translate(132.267765 500.505753) rotate(-45) scale(0.2 -0.2)">
       <defs>
        <path id="DejaVuSans-34" d="M 2419 4116 
L 825 1625 
L 2419 1625 
L 2419 4116 
z
M 2253 4666 
L 3047 4666 
L 3047 1625 
L 3713 1625 
L 3713 1100 
L 3047 1100 
L 3047 0 
L 2419 0 
L 2419 1100 
L 313 1100 
L 313 1709 
L 2253 4666 
z
" transform="scale(0.015625)"/>
        <path id="DejaVuSans-36" d="M 2113 2584 
Q 1688 2584 1439 2293 
Q 1191 2003 1191 1497 
Q 1191 994 1439 701 
Q 1688 409 2113 409 
Q 2538 409 2786 701 
Q 3034 994 3034 1497 
Q 3034 2003 2786 2293 
Q 2538 2584 2113 2584 
z
M 3366 4563 
L 3366 3988 
Q 3128 4100 2886 4159 
Q 2644 4219 2406 4219 
Q 1781 4219 1451 3797 
Q 1122 3375 1075 2522 
Q 1259 2794 1537 2939 
Q 1816 3084 2150 3084 
Q 2853 3084 3261 2657 
Q 3669 2231 3669 1497 
Q 3669 778 3244 343 
Q 2819 -91 2113 -91 
Q 1303 -91 875 529 
Q 447 1150 447 2328 
Q 447 3434 972 4092 
Q 1497 4750 2381 4750 
Q 2619 4750 2861 4703 
Q 3103 4656 3366 4563 
z
" transform="scale(0.015625)"/>
       </defs>
       <use xlink:href="#DejaVuSans-32"/>
       <use xlink:href="#DejaVuSans-30" x="63.623047"/>
       <use xlink:href="#DejaVuSans-32" x="127.246094"/>
       <use xlink:href="#DejaVuSans-32" x="190.869141"/>
       <use xlink:href="#DejaVuSans-2d" x="254.492188"/>
       <use xlink:href="#DejaVuSans-30" x="290.576172"/>
       <use xlink:href="#DejaVuSans-34" x="354.199219"/>
       <use xlink:href="#DejaVuSans-2d" x="417.822266"/>
       <use xlink:href="#DejaVuSans-32" x="453.90625"/>
       <use xlink:href="#DejaVuSans-36" x="517.529297"/>
      </g>
     </g>
    </g>
    <g id="xtick_4">
     <g id="line2d_4">
      <g>
       <use xlink:href="#ma81322b634" x="274.557768" y="400.572035" style="stroke: #000000; stroke-width: 0.8"/>
      </g>
     </g>
     <g id="text_4">
      <!-- 2022-05-24 -->
      <g transform="translate(189.42874 500.505753) rotate(-45) scale(0.2 -0.2)">
       <defs>
        <path id="DejaVuSans-35" d="M 691 4666 
L 3169 4666 
L 3169 4134 
L 1269 4134 
L 1269 2991 
Q 1406 3038 1543 3061 
Q 1681 3084 1819 3084 
Q 2600 3084 3056 2656 
Q 3513 2228 3513 1497 
Q 3513 744 3044 326 
Q 2575 -91 1722 -91 
Q 1428 -91 1123 -41 
Q 819 9 494 109 
L 494 744 
Q 775 591 1075 516 
Q 1375 441 1709 441 
Q 2250 441 2565 725 
Q 2881 1009 2881 1497 
Q 2881 1984 2565 2268 
Q 2250 2553 1709 2553 
Q 1456 2553 1204 2497 
Q 953 2441 691 2322 
L 691 4666 
z
" transform="scale(0.015625)"/>
       </defs>
       <use xlink:href="#DejaVuSans-32"/>
       <use xlink:href="#DejaVuSans-30" x="63.623047"/>
       <use xlink:href="#DejaVuSans-32" x="127.246094"/>
       <use xlink:href="#DejaVuSans-32" x="190.869141"/>
       <use xlink:href="#DejaVuSans-2d" x="254.492188"/>
       <use xlink:href="#DejaVuSans-30" x="290.576172"/>
       <use xlink:href="#DejaVuSans-35" x="354.199219"/>
       <use xlink:href="#DejaVuSans-2d" x="417.822266"/>
       <use xlink:href="#DejaVuSans-32" x="453.90625"/>
       <use xlink:href="#DejaVuSans-34" x="517.529297"/>
      </g>
     </g>
    </g>
    <g id="xtick_5">
     <g id="line2d_5">
      <g>
       <use xlink:href="#ma81322b634" x="331.718743" y="400.572035" style="stroke: #000000; stroke-width: 0.8"/>
      </g>
     </g>
     <g id="text_5">
      <!-- 2022-06-21 -->
      <g transform="translate(246.589716 500.505753) rotate(-45) scale(0.2 -0.2)">
       <use xlink:href="#DejaVuSans-32"/>
       <use xlink:href="#DejaVuSans-30" x="63.623047"/>
       <use xlink:href="#DejaVuSans-32" x="127.246094"/>
       <use xlink:href="#DejaVuSans-32" x="190.869141"/>
       <use xlink:href="#DejaVuSans-2d" x="254.492188"/>
       <use xlink:href="#DejaVuSans-30" x="290.576172"/>
       <use xlink:href="#DejaVuSans-36" x="354.199219"/>
       <use xlink:href="#DejaVuSans-2d" x="417.822266"/>
       <use xlink:href="#DejaVuSans-32" x="453.90625"/>
       <use xlink:href="#DejaVuSans-31" x="517.529297"/>
      </g>
     </g>
    </g>
    <g id="xtick_6">
     <g id="line2d_6">
      <g>
       <use xlink:href="#ma81322b634" x="388.879719" y="400.572035" style="stroke: #000000; stroke-width: 0.8"/>
      </g>
     </g>
     <g id="text_6">
      <!-- 2022-07-19 -->
      <g transform="translate(303.750691 500.505753) rotate(-45) scale(0.2 -0.2)">
       <defs>
        <path id="DejaVuSans-37" d="M 525 4666 
L 3525 4666 
L 3525 4397 
L 1831 0 
L 1172 0 
L 2766 4134 
L 525 4134 
L 525 4666 
z
" transform="scale(0.015625)"/>
       </defs>
       <use xlink:href="#DejaVuSans-32"/>
       <use xlink:href="#DejaVuSans-30" x="63.623047"/>
       <use xlink:href="#DejaVuSans-32" x="127.246094"/>
       <use xlink:href="#DejaVuSans-32" x="190.869141"/>
       <use xlink:href="#DejaVuSans-2d" x="254.492188"/>
       <use xlink:href="#DejaVuSans-30" x="290.576172"/>
       <use xlink:href="#DejaVuSans-37" x="354.199219"/>
       <use xlink:href="#DejaVuSans-2d" x="417.822266"/>
       <use xlink:href="#DejaVuSans-31" x="453.90625"/>
       <use xlink:href="#DejaVuSans-39" x="517.529297"/>
      </g>
     </g>
    </g>
    <g id="xtick_7">
     <g id="line2d_7">
      <g>
       <use xlink:href="#ma81322b634" x="446.040694" y="400.572035" style="stroke: #000000; stroke-width: 0.8"/>
      </g>
     </g>
     <g id="text_7">
      <!-- 2022-08-16 -->
      <g transform="translate(360.911667 500.505753) rotate(-45) scale(0.2 -0.2)">
       <defs>
        <path id="DejaVuSans-38" d="M 2034 2216 
Q 1584 2216 1326 1975 
Q 1069 1734 1069 1313 
Q 1069 891 1326 650 
Q 1584 409 2034 409 
Q 2484 409 2743 651 
Q 3003 894 3003 1313 
Q 3003 1734 2745 1975 
Q 2488 2216 2034 2216 
z
M 1403 2484 
Q 997 2584 770 2862 
Q 544 3141 544 3541 
Q 544 4100 942 4425 
Q 1341 4750 2034 4750 
Q 2731 4750 3128 4425 
Q 3525 4100 3525 3541 
Q 3525 3141 3298 2862 
Q 3072 2584 2669 2484 
Q 3125 2378 3379 2068 
Q 3634 1759 3634 1313 
Q 3634 634 3220 271 
Q 2806 -91 2034 -91 
Q 1263 -91 848 271 
Q 434 634 434 1313 
Q 434 1759 690 2068 
Q 947 2378 1403 2484 
z
M 1172 3481 
Q 1172 3119 1398 2916 
Q 1625 2713 2034 2713 
Q 2441 2713 2670 2916 
Q 2900 3119 2900 3481 
Q 2900 3844 2670 4047 
Q 2441 4250 2034 4250 
Q 1625 4250 1398 4047 
Q 1172 3844 1172 3481 
z
" transform="scale(0.015625)"/>
       </defs>
       <use xlink:href="#DejaVuSans-32"/>
       <use xlink:href="#DejaVuSans-30" x="63.623047"/>
       <use xlink:href="#DejaVuSans-32" x="127.246094"/>
       <use xlink:href="#DejaVuSans-32" x="190.869141"/>
       <use xlink:href="#DejaVuSans-2d" x="254.492188"/>
       <use xlink:href="#DejaVuSans-30" x="290.576172"/>
       <use xlink:href="#DejaVuSans-38" x="354.199219"/>
       <use xlink:href="#DejaVuSans-2d" x="417.822266"/>
       <use xlink:href="#DejaVuSans-31" x="453.90625"/>
       <use xlink:href="#DejaVuSans-36" x="517.529297"/>
      </g>
     </g>
    </g>
    <g id="xtick_8">
     <g id="line2d_8">
      <g>
       <use xlink:href="#ma81322b634" x="503.20167" y="400.572035" style="stroke: #000000; stroke-width: 0.8"/>
      </g>
     </g>
     <g id="text_8">
      <!-- 2022-09-13 -->
      <g transform="translate(418.072643 500.505753) rotate(-45) scale(0.2 -0.2)">
       <use xlink:href="#DejaVuSans-32"/>
       <use xlink:href="#DejaVuSans-30" x="63.623047"/>
       <use xlink:href="#DejaVuSans-32" x="127.246094"/>
       <use xlink:href="#DejaVuSans-32" x="190.869141"/>
       <use xlink:href="#DejaVuSans-2d" x="254.492188"/>
       <use xlink:href="#DejaVuSans-30" x="290.576172"/>
       <use xlink:href="#DejaVuSans-39" x="354.199219"/>
       <use xlink:href="#DejaVuSans-2d" x="417.822266"/>
       <use xlink:href="#DejaVuSans-31" x="453.90625"/>
       <use xlink:href="#DejaVuSans-33" x="517.529297"/>
      </g>
     </g>
    </g>
    <g id="xtick_9">
     <g id="line2d_9">
      <g>
       <use xlink:href="#ma81322b634" x="560.362646" y="400.572035" style="stroke: #000000; stroke-width: 0.8"/>
      </g>
     </g>
     <g id="text_9">
      <!-- 2022-10-11 -->
      <g transform="translate(475.233618 500.505753) rotate(-45) scale(0.2 -0.2)">
       <use xlink:href="#DejaVuSans-32"/>
       <use xlink:href="#DejaVuSans-30" x="63.623047"/>
       <use xlink:href="#DejaVuSans-32" x="127.246094"/>
       <use xlink:href="#DejaVuSans-32" x="190.869141"/>
       <use xlink:href="#DejaVuSans-2d" x="254.492188"/>
       <use xlink:href="#DejaVuSans-31" x="290.576172"/>
       <use xlink:href="#DejaVuSans-30" x="354.199219"/>
       <use xlink:href="#DejaVuSans-2d" x="417.822266"/>
       <use xlink:href="#DejaVuSans-31" x="453.90625"/>
       <use xlink:href="#DejaVuSans-31" x="517.529297"/>
      </g>
     </g>
    </g>
    <g id="xtick_10">
     <g id="line2d_10">
      <g>
       <use xlink:href="#ma81322b634" x="617.523621" y="400.572035" style="stroke: #000000; stroke-width: 0.8"/>
      </g>
     </g>
     <g id="text_10">
      <!-- 2022-11-08 -->
      <g transform="translate(532.394594 500.505753) rotate(-45) scale(0.2 -0.2)">
       <use xlink:href="#DejaVuSans-32"/>
       <use xlink:href="#DejaVuSans-30" x="63.623047"/>
       <use xlink:href="#DejaVuSans-32" x="127.246094"/>
       <use xlink:href="#DejaVuSans-32" x="190.869141"/>
       <use xlink:href="#DejaVuSans-2d" x="254.492188"/>
       <use xlink:href="#DejaVuSans-31" x="290.576172"/>
       <use xlink:href="#DejaVuSans-31" x="354.199219"/>
       <use xlink:href="#DejaVuSans-2d" x="417.822266"/>
       <use xlink:href="#DejaVuSans-30" x="453.90625"/>
       <use xlink:href="#DejaVuSans-38" x="517.529297"/>
      </g>
     </g>
    </g>
    <g id="xtick_11">
     <g id="line2d_11">
      <g>
       <use xlink:href="#ma81322b634" x="674.684597" y="400.572035" style="stroke: #000000; stroke-width: 0.8"/>
      </g>
     </g>
     <g id="text_11">
      <!-- 2022-12-06 -->
      <g transform="translate(589.555569 500.505753) rotate(-45) scale(0.2 -0.2)">
       <use xlink:href="#DejaVuSans-32"/>
       <use xlink:href="#DejaVuSans-30" x="63.623047"/>
       <use xlink:href="#DejaVuSans-32" x="127.246094"/>
       <use xlink:href="#DejaVuSans-32" x="190.869141"/>
       <use xlink:href="#DejaVuSans-2d" x="254.492188"/>
       <use xlink:href="#DejaVuSans-31" x="290.576172"/>
       <use xlink:href="#DejaVuSans-32" x="354.199219"/>
       <use xlink:href="#DejaVuSans-2d" x="417.822266"/>
       <use xlink:href="#DejaVuSans-30" x="453.90625"/>
       <use xlink:href="#DejaVuSans-36" x="517.529297"/>
      </g>
     </g>
    </g>
    <g id="xtick_12">
     <g id="line2d_12">
      <g>
       <use xlink:href="#ma81322b634" x="731.845572" y="400.572035" style="stroke: #000000; stroke-width: 0.8"/>
      </g>
     </g>
     <g id="text_12">
      <!-- 2023-01-03 -->
      <g transform="translate(646.716545 500.505753) rotate(-45) scale(0.2 -0.2)">
       <use xlink:href="#DejaVuSans-32"/>
       <use xlink:href="#DejaVuSans-30" x="63.623047"/>
       <use xlink:href="#DejaVuSans-32" x="127.246094"/>
       <use xlink:href="#DejaVuSans-33" x="190.869141"/>
       <use xlink:href="#DejaVuSans-2d" x="254.492188"/>
       <use xlink:href="#DejaVuSans-30" x="290.576172"/>
       <use xlink:href="#DejaVuSans-31" x="354.199219"/>
       <use xlink:href="#DejaVuSans-2d" x="417.822266"/>
       <use xlink:href="#DejaVuSans-30" x="453.90625"/>
       <use xlink:href="#DejaVuSans-33" x="517.529297"/>
      </g>
     </g>
    </g>
    <g id="xtick_13">
     <g id="line2d_13">
      <g>
       <use xlink:href="#ma81322b634" x="789.006548" y="400.572035" style="stroke: #000000; stroke-width: 0.8"/>
      </g>
     </g>
     <g id="text_13">
      <!-- 2023-01-31 -->
      <g transform="translate(703.877521 500.505753) rotate(-45) scale(0.2 -0.2)">
       <use xlink:href="#DejaVuSans-32"/>
       <use xlink:href="#DejaVuSans-30" x="63.623047"/>
       <use xlink:href="#DejaVuSans-32" x="127.246094"/>
       <use xlink:href="#DejaVuSans-33" x="190.869141"/>
       <use xlink:href="#DejaVuSans-2d" x="254.492188"/>
       <use xlink:href="#DejaVuSans-30" x="290.576172"/>
       <use xlink:href="#DejaVuSans-31" x="354.199219"/>
       <use xlink:href="#DejaVuSans-2d" x="417.822266"/>
       <use xlink:href="#DejaVuSans-33" x="453.90625"/>
       <use xlink:href="#DejaVuSans-31" x="517.529297"/>
      </g>
     </g>
    </g>
    <g id="xtick_14">
     <g id="line2d_14">
      <g>
       <use xlink:href="#ma81322b634" x="846.167524" y="400.572035" style="stroke: #000000; stroke-width: 0.8"/>
      </g>
     </g>
     <g id="text_14">
      <!-- 2023-02-28 -->
      <g transform="translate(761.038496 500.505753) rotate(-45) scale(0.2 -0.2)">
       <use xlink:href="#DejaVuSans-32"/>
       <use xlink:href="#DejaVuSans-30" x="63.623047"/>
       <use xlink:href="#DejaVuSans-32" x="127.246094"/>
       <use xlink:href="#DejaVuSans-33" x="190.869141"/>
       <use xlink:href="#DejaVuSans-2d" x="254.492188"/>
       <use xlink:href="#DejaVuSans-30" x="290.576172"/>
       <use xlink:href="#DejaVuSans-32" x="354.199219"/>
       <use xlink:href="#DejaVuSans-2d" x="417.822266"/>
       <use xlink:href="#DejaVuSans-32" x="453.90625"/>
       <use xlink:href="#DejaVuSans-38" x="517.529297"/>
      </g>
     </g>
    </g>
    <g id="xtick_15">
     <g id="line2d_15">
      <g>
       <use xlink:href="#ma81322b634" x="903.328499" y="400.572035" style="stroke: #000000; stroke-width: 0.8"/>
      </g>
     </g>
     <g id="text_15">
      <!-- 2023-03-28 -->
      <g transform="translate(818.199472 500.505753) rotate(-45) scale(0.2 -0.2)">
       <use xlink:href="#DejaVuSans-32"/>
       <use xlink:href="#DejaVuSans-30" x="63.623047"/>
       <use xlink:href="#DejaVuSans-32" x="127.246094"/>
       <use xlink:href="#DejaVuSans-33" x="190.869141"/>
       <use xlink:href="#DejaVuSans-2d" x="254.492188"/>
       <use xlink:href="#DejaVuSans-30" x="290.576172"/>
       <use xlink:href="#DejaVuSans-33" x="354.199219"/>
       <use xlink:href="#DejaVuSans-2d" x="417.822266"/>
       <use xlink:href="#DejaVuSans-32" x="453.90625"/>
       <use xlink:href="#DejaVuSans-38" x="517.529297"/>
      </g>
     </g>
    </g>
    <g id="xtick_16">
     <g id="line2d_16">
      <g>
       <use xlink:href="#ma81322b634" x="940.074841" y="400.572035" style="stroke: #000000; stroke-width: 0.8"/>
      </g>
     </g>
     <g id="text_16">
      <!-- 2023-04-15 -->
      <g transform="translate(854.945813 500.505753) rotate(-45) scale(0.2 -0.2)">
       <use xlink:href="#DejaVuSans-32"/>
       <use xlink:href="#DejaVuSans-30" x="63.623047"/>
       <use xlink:href="#DejaVuSans-32" x="127.246094"/>
       <use xlink:href="#DejaVuSans-33" x="190.869141"/>
       <use xlink:href="#DejaVuSans-2d" x="254.492188"/>
       <use xlink:href="#DejaVuSans-30" x="290.576172"/>
       <use xlink:href="#DejaVuSans-34" x="354.199219"/>
       <use xlink:href="#DejaVuSans-2d" x="417.822266"/>
       <use xlink:href="#DejaVuSans-31" x="453.90625"/>
       <use xlink:href="#DejaVuSans-35" x="517.529297"/>
      </g>
     </g>
    </g>
   </g>
   <g id="matplotlib.axis_2">
    <g id="ytick_1">
     <g id="line2d_17">
      <defs>
       <path id="m3e830f3be9" d="M 0 0 
L -3.5 0 
" style="stroke: #000000; stroke-width: 0.8"/>
      </defs>
      <g>
       <use xlink:href="#m3e830f3be9" x="103.074841" y="373.566741" style="stroke: #000000; stroke-width: 0.8"/>
      </g>
     </g>
     <g id="text_17">
      <!-- 0.025 -->
      <g transform="translate(22.059216 381.165178) scale(0.2 -0.2)">
       <defs>
        <path id="DejaVuSans-2212" d="M 678 2272 
L 4684 2272 
L 4684 1741 
L 678 1741 
L 678 2272 
z
" transform="scale(0.015625)"/>
        <path id="DejaVuSans-2e" d="M 684 794 
L 1344 794 
L 1344 0 
L 684 0 
L 684 794 
z
" transform="scale(0.015625)"/>
       </defs>
       <use xlink:href="#DejaVuSans-2212"/>
       <use xlink:href="#DejaVuSans-30" x="83.789062"/>
       <use xlink:href="#DejaVuSans-2e" x="147.412109"/>
       <use xlink:href="#DejaVuSans-30" x="179.199219"/>
       <use xlink:href="#DejaVuSans-32" x="242.822266"/>
       <use xlink:href="#DejaVuSans-35" x="306.445312"/>
      </g>
     </g>
    </g>
    <g id="ytick_2">
     <g id="line2d_18">
      <g>
       <use xlink:href="#m3e830f3be9" x="103.074841" y="322.314126" style="stroke: #000000; stroke-width: 0.8"/>
      </g>
     </g>
     <g id="text_18">
      <!-- 0.000 -->
      <g transform="translate(38.818591 329.912563) scale(0.2 -0.2)">
       <use xlink:href="#DejaVuSans-30"/>
       <use xlink:href="#DejaVuSans-2e" x="63.623047"/>
       <use xlink:href="#DejaVuSans-30" x="95.410156"/>
       <use xlink:href="#DejaVuSans-30" x="159.033203"/>
       <use xlink:href="#DejaVuSans-30" x="222.65625"/>
      </g>
     </g>
    </g>
    <g id="ytick_3">
     <g id="line2d_19">
      <g>
       <use xlink:href="#m3e830f3be9" x="103.074841" y="271.061511" style="stroke: #000000; stroke-width: 0.8"/>
      </g>
     </g>
     <g id="text_19">
      <!-- 0.025 -->
      <g transform="translate(38.818591 278.659949) scale(0.2 -0.2)">
       <use xlink:href="#DejaVuSans-30"/>
       <use xlink:href="#DejaVuSans-2e" x="63.623047"/>
       <use xlink:href="#DejaVuSans-30" x="95.410156"/>
       <use xlink:href="#DejaVuSans-32" x="159.033203"/>
       <use xlink:href="#DejaVuSans-35" x="222.65625"/>
      </g>
     </g>
    </g>
    <g id="ytick_4">
     <g id="line2d_20">
      <g>
       <use xlink:href="#m3e830f3be9" x="103.074841" y="219.808896" style="stroke: #000000; stroke-width: 0.8"/>
      </g>
     </g>
     <g id="text_20">
      <!-- 0.050 -->
      <g transform="translate(38.818591 227.407334) scale(0.2 -0.2)">
       <use xlink:href="#DejaVuSans-30"/>
       <use xlink:href="#DejaVuSans-2e" x="63.623047"/>
       <use xlink:href="#DejaVuSans-30" x="95.410156"/>
       <use xlink:href="#DejaVuSans-35" x="159.033203"/>
       <use xlink:href="#DejaVuSans-30" x="222.65625"/>
      </g>
     </g>
    </g>
    <g id="ytick_5">
     <g id="line2d_21">
      <g>
       <use xlink:href="#m3e830f3be9" x="103.074841" y="168.556282" style="stroke: #000000; stroke-width: 0.8"/>
      </g>
     </g>
     <g id="text_21">
      <!-- 0.075 -->
      <g transform="translate(38.818591 176.154719) scale(0.2 -0.2)">
       <use xlink:href="#DejaVuSans-30"/>
       <use xlink:href="#DejaVuSans-2e" x="63.623047"/>
       <use xlink:href="#DejaVuSans-30" x="95.410156"/>
       <use xlink:href="#DejaVuSans-37" x="159.033203"/>
       <use xlink:href="#DejaVuSans-35" x="222.65625"/>
      </g>
     </g>
    </g>
    <g id="ytick_6">
     <g id="line2d_22">
      <g>
       <use xlink:href="#m3e830f3be9" x="103.074841" y="117.303667" style="stroke: #000000; stroke-width: 0.8"/>
      </g>
     </g>
     <g id="text_22">
      <!-- 0.100 -->
      <g transform="translate(38.818591 124.902104) scale(0.2 -0.2)">
       <use xlink:href="#DejaVuSans-30"/>
       <use xlink:href="#DejaVuSans-2e" x="63.623047"/>
       <use xlink:href="#DejaVuSans-31" x="95.410156"/>
       <use xlink:href="#DejaVuSans-30" x="159.033203"/>
       <use xlink:href="#DejaVuSans-30" x="222.65625"/>
      </g>
     </g>
    </g>
    <g id="ytick_7">
     <g id="line2d_23">
      <g>
       <use xlink:href="#m3e830f3be9" x="103.074841" y="66.051052" style="stroke: #000000; stroke-width: 0.8"/>
      </g>
     </g>
     <g id="text_23">
      <!-- 0.125 -->
      <g transform="translate(38.818591 73.64949) scale(0.2 -0.2)">
       <use xlink:href="#DejaVuSans-30"/>
       <use xlink:href="#DejaVuSans-2e" x="63.623047"/>
       <use xlink:href="#DejaVuSans-31" x="95.410156"/>
       <use xlink:href="#DejaVuSans-32" x="159.033203"/>
       <use xlink:href="#DejaVuSans-35" x="222.65625"/>
      </g>
     </g>
    </g>
    <g id="ytick_8">
     <g id="line2d_24">
      <g>
       <use xlink:href="#m3e830f3be9" x="103.074841" y="14.798437" style="stroke: #000000; stroke-width: 0.8"/>
      </g>
     </g>
     <g id="text_24">
      <!-- 0.150 -->
      <g transform="translate(38.818591 22.396875) scale(0.2 -0.2)">
       <use xlink:href="#DejaVuSans-30"/>
       <use xlink:href="#DejaVuSans-2e" x="63.623047"/>
       <use xlink:href="#DejaVuSans-31" x="95.410156"/>
       <use xlink:href="#DejaVuSans-35" x="159.033203"/>
       <use xlink:href="#DejaVuSans-30" x="222.65625"/>
      </g>
     </g>
    </g>
   </g>
   <g id="line2d_25">
    <path d="M 0 0 
" clip-path="url(#pf5714f1882)" style="fill: none; stroke: #ffa500; stroke-width: 1.5; stroke-linecap: square"/>
   </g>
   <g id="line2d_26">
    <path d="M 103.074841 322.314126 
L 948.274841 322.314126 
" clip-path="url(#pf5714f1882)" style="fill: none; stroke-dasharray: 7.4,3.2; stroke-dashoffset: 0; stroke: #000000; stroke-width: 2"/>
   </g>
   <g id="patch_3">
    <path d="M 103.074841 400.572035 
L 103.074841 12.492035 
" style="fill: none; stroke: #000000; stroke-width: 0.8; stroke-linejoin: miter; stroke-linecap: square"/>
   </g>
   <g id="patch_4">
    <path d="M 940.074841 400.572035 
L 940.074841 12.492035 
" style="fill: none; stroke: #000000; stroke-width: 0.8; stroke-linejoin: miter; stroke-linecap: square"/>
   </g>
   <g id="patch_5">
    <path d="M 103.074841 400.572035 
L 940.074841 400.572035 
" style="fill: none; stroke: #000000; stroke-width: 0.8; stroke-linejoin: miter; stroke-linecap: square"/>
   </g>
   <g id="patch_6">
    <path d="M 103.074841 12.492035 
L 940.074841 12.492035 
" style="fill: none; stroke: #000000; stroke-width: 0.8; stroke-linejoin: miter; stroke-linecap: square"/>
   </g>
  </g>
 </g>
 <defs>
  <clipPath id="pf5714f1882">
   <rect x="103.074841" y="12.492035" width="837" height="388.08"/>
  </clipPath>
 </defs>
</svg>
