<?xml version="1.0" encoding="utf-8" standalone="no"?>
<!DOCTYPE svg PUBLIC "-//W3C//DTD SVG 1.1//EN"
  "http://www.w3.org/Graphics/SVG/1.1/DTD/svg11.dtd">
<svg xmlns:xlink="http://www.w3.org/1999/xlink" width="947.274841pt" height="505.354841pt" viewBox="0 0 947.274841 505.354841" xmlns="http://www.w3.org/2000/svg" version="1.1">
 <metadata>
  <rdf:RDF xmlns:dc="http://purl.org/dc/elements/1.1/" xmlns:cc="http://creativecommons.org/ns#" xmlns:rdf="http://www.w3.org/1999/02/22-rdf-syntax-ns#">
   <cc:Work>
    <dc:type rdf:resource="http://purl.org/dc/dcmitype/StillImage"/>
    <dc:date>2023-11-15T19:57:31.704229</dc:date>
    <dc:format>image/svg+xml</dc:format>
    <dc:creator>
     <cc:Agent>
      <dc:title>Matplotlib v3.7.2, https://matplotlib.org/</dc:title>
     </cc:Agent>
    </dc:creator>
   </cc:Work>
  </rdf:RDF>
 </metadata>
 <defs>
  <style type="text/css">*{stroke-linejoin: round; stroke-linecap: butt}</style>
 </defs>
 <g id="figure_1">
  <g id="patch_1">
   <path d="M 0 505.354841 
L 947.274841 505.354841 
L 947.274841 -0 
L 0 -0 
z
" style="fill: #ffffff"/>
  </g>
  <g id="axes_1">
   <g id="patch_2">
    <path d="M 103.074841 395.28 
L 940.074841 395.28 
L 940.074841 7.2 
L 103.074841 7.2 
z
" style="fill: #ffffff"/>
   </g>
   <g id="PolyCollection_1">
    <path d="M -393.000769 274.849342 
L -393.000769 274.870852 
L -390.959306 274.765974 
L -388.917842 274.674315 
L -386.876379 274.558008 
L -384.834915 274.47902 
L -382.793452 274.378786 
L -380.751989 274.269165 
L -378.710525 274.165925 
L -376.669062 274.068427 
L -374.627598 273.981826 
L -372.586135 273.882731 
L -370.544672 273.779123 
L -368.503208 273.678113 
L -366.461745 273.555731 
L -364.420281 273.452959 
L -362.378818 273.333214 
L -360.337354 273.229428 
L -358.295891 273.091892 
L -356.254428 272.977253 
L -354.212964 272.866405 
L -352.171501 272.736698 
L -350.130037 272.60987 
L -348.088574 272.485489 
L -346.047111 272.336994 
L -344.005647 272.205703 
L -341.964184 272.053288 
L -339.92272 271.898801 
L -337.881257 271.72859 
L -335.839793 271.553567 
L -333.79833 271.381663 
L -331.756867 271.183916 
L -329.715403 270.961154 
L -327.67394 270.761458 
L -325.632476 270.535584 
L -323.591013 270.278749 
L -321.54955 270.038091 
L -319.508086 269.75757 
L -317.466623 269.472056 
L -315.425159 269.177549 
L -313.383696 268.866574 
L -311.342232 268.52284 
L -309.300769 268.157036 
L -307.259306 267.769498 
L -305.217842 267.394197 
L -303.176379 266.95601 
L -301.134915 266.537159 
L -299.093452 266.091527 
L -297.051989 265.643227 
L -295.010525 265.161627 
L -292.969062 264.641444 
L -290.927598 264.156996 
L -288.886135 263.619871 
L -286.844672 263.064153 
L -284.803208 262.518304 
L -282.761745 261.977084 
L -280.720281 261.391833 
L -278.678818 260.800026 
L -276.637354 260.208729 
L -274.595891 259.593539 
L -272.554428 258.970716 
L -270.512964 258.349189 
L -268.471501 257.707279 
L -266.430037 257.063603 
L -264.388574 256.428815 
L -262.347111 255.768942 
L -260.305647 255.065117 
L -258.264184 254.381801 
L -256.22272 253.699764 
L -254.181257 253.027687 
L -252.139793 252.329355 
L -250.09833 251.646341 
L -248.056867 250.952163 
L -246.015403 250.322034 
L -243.97394 249.586518 
L -241.932476 248.944526 
L -239.891013 248.244891 
L -237.84955 247.577642 
L -235.808086 246.888402 
L -233.766623 246.266372 
L -231.725159 245.557744 
L -229.683696 244.889563 
L -227.642232 244.267948 
L -225.600769 243.595131 
L -223.559306 242.956366 
L -221.517842 242.290934 
L -219.476379 241.62121 
L -217.434915 240.976229 
L -215.393452 240.343243 
L -213.351989 239.664569 
L -211.310525 239.017666 
L -209.269062 238.359063 
L -207.227598 237.710733 
L -205.186135 237.076971 
L -203.144672 236.427038 
L -201.103208 235.77124 
L -199.061745 235.177047 
L -197.020281 234.509569 
L -194.978818 233.868686 
L -192.937354 233.237936 
L -190.895891 232.606697 
L -188.854428 231.977138 
L -186.812964 231.340186 
L -184.771501 230.731085 
L -182.730037 230.099333 
L -180.688574 229.453097 
L -178.647111 228.800194 
L -176.605647 228.140732 
L -174.564184 227.520874 
L -172.52272 226.842852 
L -170.481257 226.122522 
L -168.439793 225.443414 
L -166.39833 224.729334 
L -164.356867 224.004584 
L -162.315403 223.241405 
L -160.27394 222.464825 
L -158.232476 221.739707 
L -156.191013 220.918302 
L -154.14955 220.134969 
L -152.108086 219.294721 
L -150.066623 218.518753 
L -148.025159 217.61392 
L -145.983696 216.725368 
L -143.942232 215.859879 
L -141.900769 214.979499 
L -139.859306 214.07281 
L -137.817842 213.126836 
L -135.776379 212.236478 
L -133.734915 211.223273 
L -131.693452 210.325445 
L -129.651989 209.282645 
L -127.610525 208.269855 
L -125.569062 207.278847 
L -123.527598 206.325322 
L -121.486135 205.220755 
L -119.444672 204.216774 
L -117.403208 202.954466 
L -115.361745 201.859768 
L -113.320281 200.834587 
L -111.278818 199.683184 
L -109.237354 198.502343 
L -107.195891 197.150263 
L -105.154428 195.877362 
L -103.112964 194.802611 
L -101.071501 193.139451 
L -99.030037 191.787681 
L -96.988574 190.405579 
L -94.947111 188.971896 
L -92.905647 187.347484 
L -90.864184 185.812156 
L -88.82272 184.628647 
L -86.781257 183.141355 
L -84.739793 180.756376 
L -82.69833 178.732041 
L -80.656867 177.205952 
L -78.615403 175.129442 
L -76.57394 173.571869 
L -74.532476 172.299306 
L -72.491013 170.507619 
L -70.44955 168.047977 
L -68.408086 166.567431 
L -66.366623 165.763217 
L -64.325159 163.95056 
L -62.283696 163.302877 
L -60.242232 162.13308 
L -58.200769 159.965736 
L -56.159306 160.04454 
L -54.117842 160.811129 
L -52.076379 162.529911 
L -50.034915 160.42815 
L -47.993452 164.360469 
L -45.951989 165.177452 
L -43.910525 159.70666 
L -41.869062 161.166088 
L -39.827598 163.491431 
L -37.786135 162.019091 
L -35.744672 161.67103 
L -33.703208 171.876402 
L -31.661745 186.410673 
L -29.620281 193.622526 
L -27.578818 177.749884 
L -25.537354 185.849832 
L -23.495891 196.47473 
L -21.454428 195.823444 
L -19.412964 217.484874 
L -17.371501 214.497452 
L -15.330037 207.838575 
L -13.288574 191.377471 
L -11.247111 206.816938 
L -9.205647 216.094834 
L -7.164184 212.195384 
L -5.12272 214.605263 
L -3.081257 223.364089 
L -1.039793 222.182298 
L 1.00167 214.608627 
L 3.043133 224.098002 
L 5.084597 225.969258 
L 7.12606 222.562994 
L 9.167524 228.580755 
L 11.208987 230.770587 
L 13.25045 230.160534 
L 15.291914 228.315507 
L 17.333377 230.281557 
L 19.374841 228.241669 
L 21.416304 228.400452 
L 23.457768 230.271067 
L 25.499231 228.476164 
L 27.540694 229.381785 
L 29.582158 229.414395 
L 31.623621 227.958789 
L 33.665085 228.468198 
L 35.706548 226.377278 
L 37.748011 226.495644 
L 39.789475 227.04974 
L 41.830938 227.060589 
L 43.872402 226.028001 
L 45.913865 225.140967 
L 47.955328 224.898444 
L 49.996792 223.919218 
L 52.038255 223.742452 
L 54.079719 223.534515 
L 56.121182 222.059269 
L 58.162646 222.711715 
L 60.204109 221.726687 
L 62.245572 221.283889 
L 64.287036 221.281366 
L 66.328499 220.316501 
L 68.369963 220.055364 
L 70.411426 220.344883 
L 72.452889 220.835595 
L 74.494353 219.280737 
L 76.535816 218.994977 
L 78.57728 218.467186 
L 80.618743 221.088285 
L 82.660207 221.129217 
L 84.70167 222.131086 
L 86.743133 219.586579 
L 88.784597 218.01141 
L 90.82606 218.486459 
L 92.867524 220.214904 
L 94.908987 220.492154 
L 96.95045 217.416496 
L 98.991914 219.987431 
L 101.033377 219.326293 
L 103.074841 218.886911 
L 105.116304 217.45987 
L 107.157768 218.59586 
L 109.199231 217.895755 
L 111.240694 218.528199 
L 113.282158 217.594972 
L 115.323621 216.852485 
L 117.365085 215.527187 
L 119.406548 214.882219 
L 121.448011 214.291092 
L 123.489475 213.486505 
L 125.530938 213.293775 
L 127.572402 212.54892 
L 129.613865 211.750233 
L 131.655328 209.67493 
L 133.696792 208.09181 
L 135.738255 207.366562 
L 137.779719 205.637488 
L 139.821182 205.275318 
L 141.862646 203.758492 
L 143.904109 201.53597 
L 145.945572 199.678275 
L 147.987036 198.267165 
L 150.028499 195.964851 
L 152.069963 194.544493 
L 154.111426 192.490922 
L 156.152889 190.672992 
L 158.194353 188.393236 
L 160.235816 186.509916 
L 162.27728 183.958165 
L 164.318743 181.943417 
L 166.360207 179.755903 
L 168.40167 176.855057 
L 170.443133 174.151379 
L 172.484597 172.178804 
L 174.52606 169.794548 
L 176.567524 166.879026 
L 178.608987 164.704131 
L 180.65045 162.058529 
L 182.691914 158.251807 
L 184.733377 156.5966 
L 186.774841 153.360406 
L 188.816304 150.822368 
L 190.857768 147.933316 
L 192.899231 144.80474 
L 194.940694 141.742472 
L 196.982158 138.960748 
L 199.023621 135.204373 
L 201.065085 132.877043 
L 203.106548 129.206693 
L 205.148011 126.836679 
L 207.189475 123.076905 
L 209.230938 119.449421 
L 211.272402 116.121944 
L 213.313865 113.60842 
L 215.355328 109.465145 
L 217.396792 106.665227 
L 219.438255 102.97538 
L 221.479719 99.970104 
L 223.521182 96.07921 
L 225.562646 92.666675 
L 227.604109 92.173901 
L 229.645572 85.533703 
L 231.687036 84.461088 
L 233.728499 80.579537 
L 235.769963 77.908983 
L 237.811426 74.755758 
L 239.852889 71.389492 
L 241.894353 68.34353 
L 243.935816 65.398797 
L 245.97728 62.623862 
L 248.018743 59.831253 
L 250.060207 61.868068 
L 252.10167 53.741099 
L 254.143133 51.660812 
L 256.184597 58.180996 
L 258.22606 48.384449 
L 260.267524 49.914803 
L 262.308987 48.754781 
L 264.35045 43.607137 
L 266.391914 44.373005 
L 268.433377 49.185263 
L 270.474841 45.476772 
L 272.516304 43.719001 
L 274.557768 46.681231 
L 276.599231 45.43711 
L 278.640694 47.441363 
L 280.682158 50.194315 
L 282.723621 54.969473 
L 284.765085 66.172512 
L 286.806548 63.496544 
L 288.848011 69.532941 
L 290.889475 74.518755 
L 292.930938 77.163204 
L 294.972402 83.539451 
L 297.013865 87.556851 
L 299.055328 79.742075 
L 301.096792 87.147255 
L 303.138255 99.67107 
L 305.179719 105.866793 
L 307.221182 108.746948 
L 309.262646 125.619263 
L 311.304109 127.064414 
L 313.345572 131.731538 
L 315.387036 130.594392 
L 317.428499 144.852209 
L 319.469963 140.557499 
L 321.511426 138.159622 
L 323.552889 150.350407 
L 325.594353 159.035532 
L 327.635816 158.377448 
L 329.67728 163.574361 
L 331.718743 165.335782 
L 333.760207 165.753674 
L 335.80167 165.859564 
L 337.843133 168.797503 
L 339.884597 170.506952 
L 341.92606 179.419548 
L 343.967524 175.043559 
L 346.008987 182.829996 
L 348.05045 181.246283 
L 350.091914 180.358386 
L 352.133377 183.608479 
L 354.174841 186.525195 
L 356.216304 183.192069 
L 358.257768 185.082073 
L 360.299231 185.370419 
L 362.340694 189.706518 
L 364.382158 187.841685 
L 366.423621 187.075214 
L 368.465085 188.465446 
L 370.506548 190.659394 
L 372.548011 189.88438 
L 374.589475 188.107957 
L 376.630938 189.435325 
L 378.672402 186.640408 
L 380.713865 187.174934 
L 382.755328 192.347388 
L 384.796792 192.282171 
L 386.838255 189.721995 
L 388.879719 189.262209 
L 390.921182 189.816868 
L 392.962646 187.040914 
L 395.004109 188.003086 
L 397.045572 188.233427 
L 399.087036 187.836636 
L 401.128499 187.271607 
L 403.169963 185.660294 
L 405.211426 187.007251 
L 407.252889 186.01347 
L 409.294353 185.999482 
L 411.335816 185.598376 
L 413.37728 185.931744 
L 415.418743 184.767678 
L 417.460207 182.454654 
L 419.50167 182.597876 
L 421.543133 180.757167 
L 423.584597 177.987756 
L 425.62606 180.446068 
L 427.667524 176.57405 
L 429.708987 178.532832 
L 431.75045 177.987201 
L 433.791914 178.505467 
L 435.833377 176.088921 
L 437.874841 176.117012 
L 439.916304 175.951725 
L 441.957768 172.868042 
L 443.999231 173.882044 
L 446.040694 173.779567 
L 448.082158 173.830565 
L 450.123621 172.440087 
L 452.165085 173.339841 
L 454.206548 171.90158 
L 456.248011 170.519138 
L 458.289475 168.249746 
L 460.330938 167.622318 
L 462.372402 167.25386 
L 464.413865 165.706729 
L 466.455328 166.094999 
L 468.496792 165.407283 
L 470.538255 164.042018 
L 472.579719 164.233056 
L 474.621182 162.660412 
L 476.662646 164.203959 
L 478.704109 163.152223 
L 480.745572 163.337953 
L 482.787036 161.35699 
L 484.828499 158.597065 
L 486.869963 161.1686 
L 488.911426 161.209429 
L 490.952889 160.394201 
L 492.994353 159.540572 
L 495.035816 157.647773 
L 497.07728 157.303863 
L 499.118743 156.307434 
L 501.160207 156.576755 
L 503.20167 156.265055 
L 505.243133 154.455272 
L 507.284597 151.845175 
L 509.32606 155.463121 
L 511.367524 154.730348 
L 513.408987 152.528359 
L 515.45045 154.092253 
L 517.491914 150.085984 
L 519.533377 150.692339 
L 521.574841 151.066583 
L 523.616304 148.39571 
L 525.657768 153.258753 
L 527.699231 148.636815 
L 529.740694 146.355693 
L 531.782158 149.601588 
L 533.823621 150.608138 
L 535.865085 149.274183 
L 537.906548 150.675322 
L 539.948011 148.700687 
L 541.989475 153.182189 
L 544.030938 151.280907 
L 546.072402 152.42494 
L 548.113865 149.810772 
L 550.155328 147.497908 
L 552.196792 151.105426 
L 554.238255 157.34754 
L 556.279719 150.945573 
L 558.321182 151.658932 
L 560.362646 149.474194 
L 562.404109 150.988623 
L 564.445572 150.984112 
L 566.487036 149.748562 
L 568.528499 149.474602 
L 570.569963 152.657632 
L 572.611426 151.453242 
L 574.652889 154.372479 
L 576.694353 155.145261 
L 578.735816 147.772887 
L 580.77728 151.167016 
L 582.818743 151.656 
L 584.860207 152.40212 
L 586.90167 153.067693 
L 588.943133 158.145132 
L 590.984597 160.27559 
L 593.02606 160.219723 
L 595.067524 165.753392 
L 597.108987 174.822174 
L 599.15045 164.368594 
L 601.191914 164.364195 
L 603.233377 164.689698 
L 605.274841 168.327241 
L 607.316304 169.235637 
L 609.357768 169.309009 
L 611.399231 177.083621 
L 613.440694 180.026941 
L 615.482158 171.433577 
L 617.523621 179.454123 
L 619.565085 175.705793 
L 621.606548 173.441248 
L 623.648011 183.19196 
L 625.689475 181.469964 
L 627.730938 187.867321 
L 629.772402 186.228555 
L 631.813865 182.299657 
L 633.855328 186.436785 
L 635.896792 186.704967 
L 637.938255 190.809163 
L 639.979719 188.728718 
L 642.021182 195.378025 
L 644.062646 191.193563 
L 646.104109 194.846125 
L 648.145572 194.53443 
L 650.187036 198.515541 
L 652.228499 192.954448 
L 654.269963 199.587134 
L 656.311426 199.571159 
L 658.352889 204.216116 
L 660.394353 206.847104 
L 662.435816 207.214267 
L 664.47728 206.450608 
L 666.518743 209.560072 
L 668.560207 211.988391 
L 670.60167 210.481108 
L 672.643133 210.129417 
L 674.684597 212.910407 
L 676.72606 215.452149 
L 678.767524 211.966685 
L 680.808987 210.084175 
L 682.85045 219.139091 
L 684.891914 223.413796 
L 686.933377 214.810513 
L 688.974841 217.744479 
L 691.016304 219.360006 
L 693.057768 220.30252 
L 695.099231 225.073829 
L 697.140694 224.764361 
L 699.182158 223.202981 
L 701.223621 225.39238 
L 703.265085 226.166195 
L 705.306548 221.600082 
L 707.348011 224.238933 
L 709.389475 222.977947 
L 711.430938 229.836948 
L 713.472402 238.186701 
L 715.513865 237.181745 
L 717.555328 230.876833 
L 719.596792 230.339544 
L 721.638255 231.398166 
L 723.679719 231.841302 
L 725.721182 238.030273 
L 727.762646 230.481681 
L 729.804109 238.725775 
L 731.845572 245.362547 
L 733.887036 240.040369 
L 735.928499 248.516331 
L 737.969963 243.400128 
L 740.011426 248.07541 
L 742.052889 245.161895 
L 744.094353 247.536745 
L 746.135816 252.121729 
L 748.17728 251.933037 
L 750.218743 253.433535 
L 752.260207 253.904606 
L 754.30167 254.476673 
L 756.343133 243.654721 
L 758.384597 257.874076 
L 760.42606 263.789049 
L 762.467524 258.301279 
L 764.508987 263.543692 
L 766.55045 264.754232 
L 768.591914 261.901454 
L 770.633377 267.930612 
L 772.674841 272.253408 
L 774.716304 269.882868 
L 776.757768 272.074011 
L 778.799231 273.486129 
L 780.840694 275.016352 
L 782.882158 279.959147 
L 784.923621 270.02646 
L 786.965085 283.835757 
L 789.006548 284.63893 
L 791.048011 285.694806 
L 793.089475 276.269853 
L 795.130938 288.276962 
L 797.172402 296.499594 
L 799.213865 289.087527 
L 801.255328 289.130468 
L 803.296792 306.496996 
L 805.338255 281.060997 
L 807.379719 303.729753 
L 809.421182 287.395584 
L 811.462646 316.020692 
L 813.504109 301.564407 
L 815.545572 316.190779 
L 817.587036 320.715522 
L 819.628499 325.09866 
L 821.669963 327.262276 
L 823.711426 319.864786 
L 825.752889 321.759575 
L 827.794353 330.192484 
L 829.835816 339.937601 
L 831.87728 340.773659 
L 833.918743 340.138828 
L 835.960207 349.991817 
L 838.00167 350.251636 
L 840.043133 343.66706 
L 842.084597 342.993197 
L 844.12606 360.765636 
L 846.167524 362.415893 
L 848.208987 366.171975 
L 850.25045 357.521035 
L 852.291914 337.10354 
L 854.333377 359.276771 
L 856.374841 353.750435 
L 858.416304 359.534816 
L 860.457768 367.30038 
L 862.499231 357.28362 
L 864.540694 370.91762 
L 866.582158 360.142088 
L 868.623621 359.972096 
L 870.665085 361.332641 
L 872.706548 369.575992 
L 874.748011 368.959846 
L 876.789475 367.513666 
L 878.830938 359.280754 
L 880.872402 364.148967 
L 882.913865 367.844478 
L 884.955328 364.322509 
L 886.996792 371.038198 
L 889.038255 366.08428 
L 891.079719 370.571603 
L 893.121182 377.64 
L 895.162646 376.7853 
L 897.204109 370.22628 
L 899.245572 370.651805 
L 901.287036 369.655861 
L 903.328499 373.004285 
L 905.369963 373.149768 
L 907.411426 362.245807 
L 909.452889 371.271705 
L 911.494353 319.335466 
L 913.535816 371.759898 
L 915.57728 375.535279 
L 917.618743 368.133547 
L 919.660207 360.443099 
L 921.70167 375.929363 
L 923.743133 369.329766 
L 925.784597 357.577239 
L 927.82606 365.364624 
L 929.867524 365.734457 
L 931.908987 362.667099 
L 933.95045 370.048275 
L 935.991914 364.877409 
L 938.033377 367.774959 
L 940.074841 369.57767 
L 940.074841 276.909701 
L 940.074841 276.909701 
L 938.033377 282.260424 
L 935.991914 280.583832 
L 933.95045 283.166972 
L 931.908987 280.293073 
L 929.867524 282.193591 
L 927.82606 281.24411 
L 925.784597 282.60699 
L 923.743133 286.916584 
L 921.70167 287.911309 
L 919.660207 285.700333 
L 917.618743 286.800428 
L 915.57728 291.507577 
L 913.535816 289.250565 
L 911.494353 281.346452 
L 909.452889 291.253064 
L 907.411426 290.203393 
L 905.369963 293.001862 
L 903.328499 293.715248 
L 901.287036 293.412142 
L 899.245572 295.299728 
L 897.204109 295.75633 
L 895.162646 298.213559 
L 893.121182 299.230913 
L 891.079719 298.43783 
L 889.038255 297.751469 
L 886.996792 299.094736 
L 884.955328 297.263868 
L 882.913865 298.777426 
L 880.872402 298.79453 
L 878.830938 297.932565 
L 876.789475 301.41444 
L 874.748011 302.394316 
L 872.706548 303.989758 
L 870.665085 300.650272 
L 868.623621 301.392207 
L 866.582158 302.351358 
L 864.540694 306.033223 
L 862.499231 302.067945 
L 860.457768 305.921149 
L 858.416304 303.637501 
L 856.374841 302.310819 
L 854.333377 304.551063 
L 852.291914 298.587143 
L 850.25045 304.520934 
L 848.208987 308.595885 
L 846.167524 307.738177 
L 844.12606 307.313298 
L 842.084597 302.805569 
L 840.043133 302.528267 
L 838.00167 305.156662 
L 835.960207 305.104967 
L 833.918743 302.10095 
L 831.87728 302.331828 
L 829.835816 302.98657 
L 827.794353 297.89015 
L 825.752889 296.34038 
L 823.711426 296.179085 
L 821.669963 299.11177 
L 819.628499 298.437079 
L 817.587036 296.261841 
L 815.545572 294.661437 
L 813.504109 289.688221 
L 811.462646 294.852397 
L 809.421182 278.109683 
L 807.379719 291.503514 
L 805.338255 267.956974 
L 803.296792 292.226342 
L 801.255328 284.208279 
L 799.213865 283.580065 
L 797.172402 289.171523 
L 795.130938 282.010671 
L 793.089475 258.35298 
L 791.048011 275.49933 
L 789.006548 274.976105 
L 786.965085 274.087825 
L 784.923621 246.206741 
L 782.882158 259.702181 
L 780.840694 256.145906 
L 778.799231 253.942533 
L 776.757768 250.593618 
L 774.716304 244.505761 
L 772.674841 249.89241 
L 770.633377 239.395061 
L 768.591914 226.323359 
L 766.55045 236.618964 
L 764.508987 227.934443 
L 762.467524 220.114986 
L 760.42606 231.970869 
L 758.384597 218.351216 
L 756.343133 183.876661 
L 754.30167 208.441841 
L 752.260207 207.100676 
L 750.218743 206.790581 
L 748.17728 203.362178 
L 746.135816 203.114814 
L 744.094353 193.427321 
L 742.052889 189.186439 
L 740.011426 195.993682 
L 737.969963 182.048837 
L 735.928499 195.502803 
L 733.887036 176.284908 
L 731.845572 186.689347 
L 729.804109 173.722874 
L 727.762646 157.735908 
L 725.721182 171.549619 
L 723.679719 157.479425 
L 721.638255 157.956383 
L 719.596792 156.863131 
L 717.555328 157.694846 
L 715.513865 170.080589 
L 713.472402 172.635336 
L 711.430938 156.60547 
L 709.389475 140.144766 
L 707.348011 143.997726 
L 705.306548 140.209314 
L 703.265085 149.586458 
L 701.223621 147.932926 
L 699.182158 143.294469 
L 697.140694 147.854115 
L 695.099231 146.796858 
L 693.057768 138.023275 
L 691.016304 138.327393 
L 688.974841 134.51687 
L 686.933377 129.968248 
L 684.891914 147.609993 
L 682.85045 136.606542 
L 680.808987 121.77235 
L 678.767524 127.865947 
L 676.72606 133.238164 
L 674.684597 128.530936 
L 672.643133 124.738154 
L 670.60167 126.458344 
L 668.560207 132.186252 
L 666.518743 124.524224 
L 664.47728 121.277527 
L 662.435816 123.437386 
L 660.394353 118.380642 
L 658.352889 119.085911 
L 656.311426 109.620053 
L 654.269963 112.149959 
L 652.228499 100.751517 
L 650.187036 109.349518 
L 648.145572 104.339211 
L 646.104109 106.250181 
L 644.062646 102.665044 
L 642.021182 107.693529 
L 639.979719 97.399809 
L 637.938255 102.889684 
L 635.896792 96.248663 
L 633.855328 96.911619 
L 631.813865 91.628941 
L 629.772402 93.66793 
L 627.730938 100.08434 
L 625.689475 93.015078 
L 623.648011 94.251603 
L 621.606548 80.784294 
L 619.565085 86.500113 
L 617.523621 89.252453 
L 615.482158 78.838265 
L 613.440694 89.832035 
L 611.399231 90.437049 
L 609.357768 77.371012 
L 607.316304 77.350362 
L 605.274841 76.199018 
L 603.233377 71.326043 
L 601.191914 74.25934 
L 599.15045 72.833801 
L 597.108987 87.611037 
L 595.067524 76.912694 
L 593.02606 68.93881 
L 590.984597 68.844244 
L 588.943133 66.277894 
L 586.90167 61.312508 
L 584.860207 62.64405 
L 582.818743 59.167491 
L 580.77728 62.326086 
L 578.735816 57.38322 
L 576.694353 65.614894 
L 574.652889 66.33876 
L 572.611426 63.897441 
L 570.569963 65.370085 
L 568.528499 61.597866 
L 566.487036 63.692984 
L 564.445572 64.698106 
L 562.404109 68.264205 
L 560.362646 64.489323 
L 558.321182 68.542044 
L 556.279719 67.114546 
L 554.238255 75.133592 
L 552.196792 68.875647 
L 550.155328 65.324838 
L 548.113865 68.519312 
L 546.072402 69.717085 
L 544.030938 69.395516 
L 541.989475 73.913481 
L 539.948011 69.207431 
L 537.906548 72.142509 
L 535.865085 70.149765 
L 533.823621 70.568452 
L 531.782158 68.767698 
L 529.740694 66.315959 
L 527.699231 69.960804 
L 525.657768 74.930889 
L 523.616304 69.176 
L 521.574841 71.952393 
L 519.533377 70.272931 
L 517.491914 71.72896 
L 515.45045 75.520675 
L 513.408987 73.807312 
L 511.367524 76.828408 
L 509.32606 77.390834 
L 507.284597 73.317292 
L 505.243133 75.217923 
L 503.20167 77.371789 
L 501.160207 77.944798 
L 499.118743 77.523996 
L 497.07728 78.958434 
L 495.035816 78.353988 
L 492.994353 80.631272 
L 490.952889 81.021551 
L 488.911426 81.271543 
L 486.869963 81.518778 
L 484.828499 76.527527 
L 482.787036 81.327215 
L 480.745572 83.036699 
L 478.704109 82.106099 
L 476.662646 81.917982 
L 474.621182 81.592537 
L 472.579719 82.736887 
L 470.538255 81.875846 
L 468.496792 83.762756 
L 466.455328 84.173012 
L 464.413865 83.245011 
L 462.372402 83.6782 
L 460.330938 84.393698 
L 458.289475 85.142268 
L 456.248011 88.64706 
L 454.206548 89.138176 
L 452.165085 90.589183 
L 450.123621 89.156349 
L 448.082158 90.523867 
L 446.040694 90.213492 
L 443.999231 90.281849 
L 441.957768 87.763929 
L 439.916304 92.804569 
L 437.874841 92.753535 
L 435.833377 92.574074 
L 433.791914 95.358669 
L 431.75045 94.557129 
L 429.708987 95.366736 
L 427.667524 93.080307 
L 425.62606 97.087128 
L 423.584597 95.117152 
L 421.543133 98.944348 
L 419.50167 101.479684 
L 417.460207 101.759714 
L 415.418743 105.095876 
L 413.37728 107.567071 
L 411.335816 106.819195 
L 409.294353 108.088383 
L 407.252889 107.998803 
L 405.211426 109.877479 
L 403.169963 108.535842 
L 401.128499 111.417647 
L 399.087036 113.426003 
L 397.045572 114.382829 
L 395.004109 114.724202 
L 392.962646 114.892677 
L 390.921182 118.122397 
L 388.879719 118.480837 
L 386.838255 120.300669 
L 384.796792 123.241834 
L 382.755328 123.859564 
L 380.713865 120.314424 
L 378.672402 120.813962 
L 376.630938 124.164937 
L 374.589475 124.191948 
L 372.548011 126.395822 
L 370.506548 127.891946 
L 368.465085 126.512947 
L 366.423621 127.31148 
L 364.382158 128.418978 
L 362.340694 130.688576 
L 360.299231 127.490203 
L 358.257768 128.445233 
L 356.216304 128.168217 
L 354.174841 131.58582 
L 352.133377 130.863515 
L 350.091914 128.556277 
L 348.05045 130.272825 
L 346.008987 132.057256 
L 343.967524 126.510953 
L 341.92606 131.184433 
L 339.884597 124.727031 
L 337.843133 124.269163 
L 335.80167 122.84274 
L 333.760207 124.164927 
L 331.718743 124.447154 
L 329.67728 123.547398 
L 327.635816 120.432667 
L 325.594353 122.627827 
L 323.552889 115.519295 
L 321.511426 107.959618 
L 319.469963 109.970383 
L 317.428499 113.81701 
L 315.387036 103.064595 
L 313.345572 103.498566 
L 311.304109 100.855945 
L 309.262646 100.103472 
L 307.221182 86.625734 
L 305.179719 85.448491 
L 303.138255 80.469571 
L 301.096792 69.889469 
L 299.055328 62.333097 
L 297.013865 70.485544 
L 294.972402 66.615959 
L 292.930938 59.973428 
L 290.889475 57.021014 
L 288.848011 52.159397 
L 286.806548 45.858539 
L 284.765085 48.963413 
L 282.723621 37.065817 
L 280.682158 31.922469 
L 278.640694 28.875573 
L 276.599231 26.528048 
L 274.557768 28.032532 
L 272.516304 24.84 
L 270.474841 27.504594 
L 268.433377 31.570155 
L 266.391914 25.66877 
L 264.35045 25.1494 
L 262.308987 31.27659 
L 260.267524 32.790723 
L 258.22606 30.780788 
L 256.184597 42.578273 
L 254.143133 34.774094 
L 252.10167 37.854167 
L 250.060207 47.261907 
L 248.018743 44.918744 
L 245.97728 48.378552 
L 243.935816 51.329286 
L 241.894353 54.039337 
L 239.852889 57.057234 
L 237.811426 60.241173 
L 235.769963 63.322808 
L 233.728499 65.927356 
L 231.687036 69.562706 
L 229.645572 70.437106 
L 227.604109 76.847011 
L 225.562646 77.01952 
L 223.521182 80.280399 
L 221.479719 83.911878 
L 219.438255 86.665183 
L 217.396792 90.105486 
L 215.355328 92.796362 
L 213.313865 96.7243 
L 211.272402 99.087743 
L 209.230938 101.980516 
L 207.189475 105.377966 
L 205.148011 108.842944 
L 203.106548 110.951567 
L 201.065085 114.297493 
L 199.023621 116.576561 
L 196.982158 120.016648 
L 194.940694 122.681268 
L 192.899231 125.331516 
L 190.857768 128.266792 
L 188.816304 130.868704 
L 186.774841 133.07949 
L 184.733377 135.947027 
L 182.691914 137.399749 
L 180.65045 140.941766 
L 178.608987 143.330344 
L 176.567524 145.434211 
L 174.52606 148.006712 
L 172.484597 149.575995 
L 170.443133 151.855371 
L 168.40167 154.194214 
L 166.360207 156.771527 
L 164.318743 158.738992 
L 162.27728 160.675187 
L 160.235816 162.788748 
L 158.194353 164.821639 
L 156.152889 167.012224 
L 154.111426 168.756365 
L 152.069963 170.656692 
L 150.028499 172.20404 
L 147.987036 174.362657 
L 145.945572 175.912041 
L 143.904109 177.672823 
L 141.862646 179.874178 
L 139.821182 181.38789 
L 137.779719 181.807638 
L 135.738255 183.615223 
L 133.696792 184.524527 
L 131.655328 186.267227 
L 129.613865 188.300701 
L 127.572402 189.331403 
L 125.530938 190.295908 
L 123.489475 190.463554 
L 121.448011 191.480471 
L 119.406548 192.074936 
L 117.365085 192.720043 
L 115.323621 194.170776 
L 113.282158 195.003529 
L 111.240694 196.213761 
L 109.199231 195.480939 
L 107.157768 196.138251 
L 105.116304 195.010781 
L 103.074841 196.707998 
L 101.033377 196.947703 
L 98.991914 198.18691 
L 96.95045 195.495176 
L 94.908987 198.725978 
L 92.867524 198.457806 
L 90.82606 196.596678 
L 88.784597 196.127549 
L 86.743133 197.803086 
L 84.70167 200.696678 
L 82.660207 199.576599 
L 80.618743 199.523786 
L 78.57728 196.622048 
L 76.535816 196.601099 
L 74.494353 197.452761 
L 72.452889 199.245449 
L 70.411426 198.678006 
L 68.369963 198.32402 
L 66.328499 198.620731 
L 64.287036 199.726444 
L 62.245572 199.488002 
L 60.204109 200.194161 
L 58.162646 201.358491 
L 56.121182 200.562461 
L 54.079719 202.243762 
L 52.038255 202.513138 
L 49.996792 202.726635 
L 47.955328 203.793021 
L 45.913865 204.069149 
L 43.872402 205.249546 
L 41.830938 206.53719 
L 39.789475 206.566995 
L 37.748011 206.061128 
L 35.706548 205.701381 
L 33.665085 208.415054 
L 31.623621 207.957266 
L 29.582158 209.783876 
L 27.540694 209.827415 
L 25.499231 209.141247 
L 23.457768 210.949399 
L 21.416304 209.289544 
L 19.374841 209.386421 
L 17.333377 211.680075 
L 15.291914 210.05058 
L 13.25045 212.218476 
L 11.208987 212.922511 
L 9.167524 211.117767 
L 7.12606 205.347764 
L 5.084597 209.060156 
L 3.043133 207.304508 
L 1.00167 198.717345 
L -1.039793 206.064647 
L -3.081257 207.587644 
L -5.12272 199.650563 
L -7.164184 197.491097 
L -9.205647 201.775982 
L -11.247111 193.172572 
L -13.288574 178.298951 
L -15.330037 194.773853 
L -17.371501 201.374931 
L -19.412964 204.665529 
L -21.454428 184.117763 
L -23.495891 185.026157 
L -25.537354 174.634585 
L -27.578818 166.598422 
L -29.620281 182.997623 
L -31.661745 176.085235 
L -33.703208 161.580583 
L -35.744672 151.352914 
L -37.786135 152.071002 
L -39.827598 153.953763 
L -41.869062 151.872647 
L -43.910525 150.674571 
L -45.951989 156.685994 
L -47.993452 156.073856 
L -50.034915 152.328758 
L -52.076379 154.796664 
L -54.117842 153.319516 
L -56.159306 152.817067 
L -58.200769 153.092982 
L -60.242232 155.524152 
L -62.283696 157.028466 
L -64.325159 157.948863 
L -66.366623 160.077607 
L -68.408086 161.131572 
L -70.44955 162.867544 
L -72.491013 165.538178 
L -74.532476 167.685711 
L -76.57394 169.166018 
L -78.615403 170.812132 
L -80.656867 172.929694 
L -82.69833 174.317939 
L -84.739793 176.334017 
L -86.781257 178.759064 
L -88.82272 180.241841 
L -90.864184 181.283431 
L -92.905647 182.807782 
L -94.947111 184.380524 
L -96.988574 185.816362 
L -99.030037 187.190674 
L -101.071501 188.51861 
L -103.112964 190.288643 
L -105.154428 191.232316 
L -107.195891 192.537708 
L -109.237354 193.905601 
L -111.278818 195.082865 
L -113.320281 196.24388 
L -115.361745 197.227702 
L -117.403208 198.294481 
L -119.444672 199.668088 
L -121.486135 200.643241 
L -123.527598 201.764506 
L -125.569062 202.679909 
L -127.610525 203.697426 
L -129.651989 204.7399 
L -131.693452 205.800041 
L -133.734915 206.69572 
L -135.776379 207.744513 
L -137.817842 208.665108 
L -139.859306 209.644692 
L -141.900769 210.544491 
L -143.942232 211.471865 
L -145.983696 212.337689 
L -148.025159 213.25787 
L -150.066623 214.238898 
L -152.108086 215.004388 
L -154.14955 215.933303 
L -156.191013 216.747447 
L -158.232476 217.672628 
L -160.27394 218.362232 
L -162.315403 219.21307 
L -164.356867 220.023974 
L -166.39833 220.796317 
L -168.439793 221.581825 
L -170.481257 222.309123 
L -172.52272 223.155304 
L -174.564184 223.91794 
L -176.605647 224.548391 
L -178.647111 225.295258 
L -180.688574 226.041315 
L -182.730037 226.78408 
L -184.771501 227.501561 
L -186.812964 228.171778 
L -188.854428 228.908622 
L -190.895891 229.631745 
L -192.937354 230.358977 
L -194.978818 231.084267 
L -197.020281 231.82932 
L -199.061745 232.603704 
L -201.103208 233.273835 
L -203.144672 234.039131 
L -205.186135 234.790801 
L -207.227598 235.513773 
L -209.269062 236.259672 
L -211.310525 237.021011 
L -213.351989 237.76087 
L -215.393452 238.536873 
L -217.434915 239.24707 
L -219.476379 239.971664 
L -221.517842 240.736878 
L -223.559306 241.477388 
L -225.600769 242.181889 
L -227.642232 242.926837 
L -229.683696 243.609725 
L -231.725159 244.33878 
L -233.766623 245.114466 
L -235.808086 245.784504 
L -237.84955 246.532006 
L -239.891013 247.241739 
L -241.932476 247.985379 
L -243.97394 248.661667 
L -246.015403 249.448138 
L -248.056867 250.104965 
L -250.09833 250.838528 
L -252.139793 251.557126 
L -254.181257 252.29344 
L -256.22272 252.994729 
L -258.264184 253.708629 
L -260.305647 254.425319 
L -262.347111 255.16511 
L -264.388574 255.854177 
L -266.430037 256.512658 
L -268.471501 257.173061 
L -270.512964 257.825519 
L -272.554428 258.456157 
L -274.595891 259.09633 
L -276.637354 259.72848 
L -278.678818 260.332759 
L -280.720281 260.943039 
L -282.761745 261.549471 
L -284.803208 262.103108 
L -286.844672 262.664898 
L -288.886135 263.248963 
L -290.927598 263.802807 
L -292.969062 264.300146 
L -295.010525 264.844668 
L -297.051989 265.343484 
L -299.093452 265.804108 
L -301.134915 266.263983 
L -303.176379 266.694579 
L -305.217842 267.156221 
L -307.259306 267.540424 
L -309.300769 267.944346 
L -311.342232 268.324874 
L -313.383696 268.678089 
L -315.425159 269.000826 
L -317.466623 269.294991 
L -319.508086 269.586675 
L -321.54955 269.87534 
L -323.591013 270.116258 
L -325.632476 270.383334 
L -327.67394 270.611037 
L -329.715403 270.808547 
L -331.756867 271.037658 
L -333.79833 271.239206 
L -335.839793 271.407578 
L -337.881257 271.587197 
L -339.92272 271.761821 
L -341.964184 271.916254 
L -344.005647 272.070965 
L -346.047111 272.200249 
L -348.088574 272.354453 
L -350.130037 272.478668 
L -352.171501 272.608634 
L -354.212964 272.744452 
L -356.254428 272.856533 
L -358.295891 272.97468 
L -360.337354 273.126778 
L -362.378818 273.236163 
L -364.420281 273.368486 
L -366.461745 273.47449 
L -368.503208 273.613231 
L -370.544672 273.724174 
L -372.586135 273.840081 
L -374.627598 273.942367 
L -376.669062 274.03505 
L -378.710525 274.140576 
L -380.751989 274.254659 
L -382.793452 274.365805 
L -384.834915 274.461537 
L -386.876379 274.539707 
L -388.917842 274.649614 
L -390.959306 274.740667 
L -393.000769 274.849342 
z
" clip-path="url(#pa7e6758224)" style="fill: #008000; fill-opacity: 0.3; stroke: #008000; stroke-opacity: 0.3"/>
   </g>
   <g id="matplotlib.axis_1">
    <g id="xtick_1">
     <g id="line2d_1">
      <defs>
       <path id="mfbfa45ab05" d="M 0 0 
L 0 3.5 
" style="stroke: #000000; stroke-width: 0.8"/>
      </defs>
      <g>
       <use xlink:href="#mfbfa45ab05" x="103.074841" y="395.28" style="stroke: #000000; stroke-width: 0.8"/>
      </g>
     </g>
     <g id="text_1">
      <!-- 2022-03-01 -->
      <g transform="translate(17.945813 495.213718) rotate(-45) scale(0.2 -0.2)">
       <defs>
        <path id="DejaVuSans-32" d="M 1228 531 
L 3431 531 
L 3431 0 
L 469 0 
L 469 531 
Q 828 903 1448 1529 
Q 2069 2156 2228 2338 
Q 2531 2678 2651 2914 
Q 2772 3150 2772 3378 
Q 2772 3750 2511 3984 
Q 2250 4219 1831 4219 
Q 1534 4219 1204 4116 
Q 875 4013 500 3803 
L 500 4441 
Q 881 4594 1212 4672 
Q 1544 4750 1819 4750 
Q 2544 4750 2975 4387 
Q 3406 4025 3406 3419 
Q 3406 3131 3298 2873 
Q 3191 2616 2906 2266 
Q 2828 2175 2409 1742 
Q 1991 1309 1228 531 
z
" transform="scale(0.015625)"/>
        <path id="DejaVuSans-30" d="M 2034 4250 
Q 1547 4250 1301 3770 
Q 1056 3291 1056 2328 
Q 1056 1369 1301 889 
Q 1547 409 2034 409 
Q 2525 409 2770 889 
Q 3016 1369 3016 2328 
Q 3016 3291 2770 3770 
Q 2525 4250 2034 4250 
z
M 2034 4750 
Q 2819 4750 3233 4129 
Q 3647 3509 3647 2328 
Q 3647 1150 3233 529 
Q 2819 -91 2034 -91 
Q 1250 -91 836 529 
Q 422 1150 422 2328 
Q 422 3509 836 4129 
Q 1250 4750 2034 4750 
z
" transform="scale(0.015625)"/>
        <path id="DejaVuSans-2d" d="M 313 2009 
L 1997 2009 
L 1997 1497 
L 313 1497 
L 313 2009 
z
" transform="scale(0.015625)"/>
        <path id="DejaVuSans-33" d="M 2597 2516 
Q 3050 2419 3304 2112 
Q 3559 1806 3559 1356 
Q 3559 666 3084 287 
Q 2609 -91 1734 -91 
Q 1441 -91 1130 -33 
Q 819 25 488 141 
L 488 750 
Q 750 597 1062 519 
Q 1375 441 1716 441 
Q 2309 441 2620 675 
Q 2931 909 2931 1356 
Q 2931 1769 2642 2001 
Q 2353 2234 1838 2234 
L 1294 2234 
L 1294 2753 
L 1863 2753 
Q 2328 2753 2575 2939 
Q 2822 3125 2822 3475 
Q 2822 3834 2567 4026 
Q 2313 4219 1838 4219 
Q 1578 4219 1281 4162 
Q 984 4106 628 3988 
L 628 4550 
Q 988 4650 1302 4700 
Q 1616 4750 1894 4750 
Q 2613 4750 3031 4423 
Q 3450 4097 3450 3541 
Q 3450 3153 3228 2886 
Q 3006 2619 2597 2516 
z
" transform="scale(0.015625)"/>
        <path id="DejaVuSans-31" d="M 794 531 
L 1825 531 
L 1825 4091 
L 703 3866 
L 703 4441 
L 1819 4666 
L 2450 4666 
L 2450 531 
L 3481 531 
L 3481 0 
L 794 0 
L 794 531 
z
" transform="scale(0.015625)"/>
       </defs>
       <use xlink:href="#DejaVuSans-32"/>
       <use xlink:href="#DejaVuSans-30" x="63.623047"/>
       <use xlink:href="#DejaVuSans-32" x="127.246094"/>
       <use xlink:href="#DejaVuSans-32" x="190.869141"/>
       <use xlink:href="#DejaVuSans-2d" x="254.492188"/>
       <use xlink:href="#DejaVuSans-30" x="290.576172"/>
       <use xlink:href="#DejaVuSans-33" x="354.199219"/>
       <use xlink:href="#DejaVuSans-2d" x="417.822266"/>
       <use xlink:href="#DejaVuSans-30" x="453.90625"/>
       <use xlink:href="#DejaVuSans-31" x="517.529297"/>
      </g>
     </g>
    </g>
    <g id="xtick_2">
     <g id="line2d_2">
      <g>
       <use xlink:href="#mfbfa45ab05" x="160.235816" y="395.28" style="stroke: #000000; stroke-width: 0.8"/>
      </g>
     </g>
     <g id="text_2">
      <!-- 2022-03-29 -->
      <g transform="translate(75.106789 495.213718) rotate(-45) scale(0.2 -0.2)">
       <defs>
        <path id="DejaVuSans-39" d="M 703 97 
L 703 672 
Q 941 559 1184 500 
Q 1428 441 1663 441 
Q 2288 441 2617 861 
Q 2947 1281 2994 2138 
Q 2813 1869 2534 1725 
Q 2256 1581 1919 1581 
Q 1219 1581 811 2004 
Q 403 2428 403 3163 
Q 403 3881 828 4315 
Q 1253 4750 1959 4750 
Q 2769 4750 3195 4129 
Q 3622 3509 3622 2328 
Q 3622 1225 3098 567 
Q 2575 -91 1691 -91 
Q 1453 -91 1209 -44 
Q 966 3 703 97 
z
M 1959 2075 
Q 2384 2075 2632 2365 
Q 2881 2656 2881 3163 
Q 2881 3666 2632 3958 
Q 2384 4250 1959 4250 
Q 1534 4250 1286 3958 
Q 1038 3666 1038 3163 
Q 1038 2656 1286 2365 
Q 1534 2075 1959 2075 
z
" transform="scale(0.015625)"/>
       </defs>
       <use xlink:href="#DejaVuSans-32"/>
       <use xlink:href="#DejaVuSans-30" x="63.623047"/>
       <use xlink:href="#DejaVuSans-32" x="127.246094"/>
       <use xlink:href="#DejaVuSans-32" x="190.869141"/>
       <use xlink:href="#DejaVuSans-2d" x="254.492188"/>
       <use xlink:href="#DejaVuSans-30" x="290.576172"/>
       <use xlink:href="#DejaVuSans-33" x="354.199219"/>
       <use xlink:href="#DejaVuSans-2d" x="417.822266"/>
       <use xlink:href="#DejaVuSans-32" x="453.90625"/>
       <use xlink:href="#DejaVuSans-39" x="517.529297"/>
      </g>
     </g>
    </g>
    <g id="xtick_3">
     <g id="line2d_3">
      <g>
       <use xlink:href="#mfbfa45ab05" x="217.396792" y="395.28" style="stroke: #000000; stroke-width: 0.8"/>
      </g>
     </g>
     <g id="text_3">
      <!-- 2022-04-26 -->
      <g transform="translate(132.267765 495.213718) rotate(-45) scale(0.2 -0.2)">
       <defs>
        <path id="DejaVuSans-34" d="M 2419 4116 
L 825 1625 
L 2419 1625 
L 2419 4116 
z
M 2253 4666 
L 3047 4666 
L 3047 1625 
L 3713 1625 
L 3713 1100 
L 3047 1100 
L 3047 0 
L 2419 0 
L 2419 1100 
L 313 1100 
L 313 1709 
L 2253 4666 
z
" transform="scale(0.015625)"/>
        <path id="DejaVuSans-36" d="M 2113 2584 
Q 1688 2584 1439 2293 
Q 1191 2003 1191 1497 
Q 1191 994 1439 701 
Q 1688 409 2113 409 
Q 2538 409 2786 701 
Q 3034 994 3034 1497 
Q 3034 2003 2786 2293 
Q 2538 2584 2113 2584 
z
M 3366 4563 
L 3366 3988 
Q 3128 4100 2886 4159 
Q 2644 4219 2406 4219 
Q 1781 4219 1451 3797 
Q 1122 3375 1075 2522 
Q 1259 2794 1537 2939 
Q 1816 3084 2150 3084 
Q 2853 3084 3261 2657 
Q 3669 2231 3669 1497 
Q 3669 778 3244 343 
Q 2819 -91 2113 -91 
Q 1303 -91 875 529 
Q 447 1150 447 2328 
Q 447 3434 972 4092 
Q 1497 4750 2381 4750 
Q 2619 4750 2861 4703 
Q 3103 4656 3366 4563 
z
" transform="scale(0.015625)"/>
       </defs>
       <use xlink:href="#DejaVuSans-32"/>
       <use xlink:href="#DejaVuSans-30" x="63.623047"/>
       <use xlink:href="#DejaVuSans-32" x="127.246094"/>
       <use xlink:href="#DejaVuSans-32" x="190.869141"/>
       <use xlink:href="#DejaVuSans-2d" x="254.492188"/>
       <use xlink:href="#DejaVuSans-30" x="290.576172"/>
       <use xlink:href="#DejaVuSans-34" x="354.199219"/>
       <use xlink:href="#DejaVuSans-2d" x="417.822266"/>
       <use xlink:href="#DejaVuSans-32" x="453.90625"/>
       <use xlink:href="#DejaVuSans-36" x="517.529297"/>
      </g>
     </g>
    </g>
    <g id="xtick_4">
     <g id="line2d_4">
      <g>
       <use xlink:href="#mfbfa45ab05" x="274.557768" y="395.28" style="stroke: #000000; stroke-width: 0.8"/>
      </g>
     </g>
     <g id="text_4">
      <!-- 2022-05-24 -->
      <g transform="translate(189.42874 495.213718) rotate(-45) scale(0.2 -0.2)">
       <defs>
        <path id="DejaVuSans-35" d="M 691 4666 
L 3169 4666 
L 3169 4134 
L 1269 4134 
L 1269 2991 
Q 1406 3038 1543 3061 
Q 1681 3084 1819 3084 
Q 2600 3084 3056 2656 
Q 3513 2228 3513 1497 
Q 3513 744 3044 326 
Q 2575 -91 1722 -91 
Q 1428 -91 1123 -41 
Q 819 9 494 109 
L 494 744 
Q 775 591 1075 516 
Q 1375 441 1709 441 
Q 2250 441 2565 725 
Q 2881 1009 2881 1497 
Q 2881 1984 2565 2268 
Q 2250 2553 1709 2553 
Q 1456 2553 1204 2497 
Q 953 2441 691 2322 
L 691 4666 
z
" transform="scale(0.015625)"/>
       </defs>
       <use xlink:href="#DejaVuSans-32"/>
       <use xlink:href="#DejaVuSans-30" x="63.623047"/>
       <use xlink:href="#DejaVuSans-32" x="127.246094"/>
       <use xlink:href="#DejaVuSans-32" x="190.869141"/>
       <use xlink:href="#DejaVuSans-2d" x="254.492188"/>
       <use xlink:href="#DejaVuSans-30" x="290.576172"/>
       <use xlink:href="#DejaVuSans-35" x="354.199219"/>
       <use xlink:href="#DejaVuSans-2d" x="417.822266"/>
       <use xlink:href="#DejaVuSans-32" x="453.90625"/>
       <use xlink:href="#DejaVuSans-34" x="517.529297"/>
      </g>
     </g>
    </g>
    <g id="xtick_5">
     <g id="line2d_5">
      <g>
       <use xlink:href="#mfbfa45ab05" x="331.718743" y="395.28" style="stroke: #000000; stroke-width: 0.8"/>
      </g>
     </g>
     <g id="text_5">
      <!-- 2022-06-21 -->
      <g transform="translate(246.589716 495.213718) rotate(-45) scale(0.2 -0.2)">
       <use xlink:href="#DejaVuSans-32"/>
       <use xlink:href="#DejaVuSans-30" x="63.623047"/>
       <use xlink:href="#DejaVuSans-32" x="127.246094"/>
       <use xlink:href="#DejaVuSans-32" x="190.869141"/>
       <use xlink:href="#DejaVuSans-2d" x="254.492188"/>
       <use xlink:href="#DejaVuSans-30" x="290.576172"/>
       <use xlink:href="#DejaVuSans-36" x="354.199219"/>
       <use xlink:href="#DejaVuSans-2d" x="417.822266"/>
       <use xlink:href="#DejaVuSans-32" x="453.90625"/>
       <use xlink:href="#DejaVuSans-31" x="517.529297"/>
      </g>
     </g>
    </g>
    <g id="xtick_6">
     <g id="line2d_6">
      <g>
       <use xlink:href="#mfbfa45ab05" x="388.879719" y="395.28" style="stroke: #000000; stroke-width: 0.8"/>
      </g>
     </g>
     <g id="text_6">
      <!-- 2022-07-19 -->
      <g transform="translate(303.750691 495.213718) rotate(-45) scale(0.2 -0.2)">
       <defs>
        <path id="DejaVuSans-37" d="M 525 4666 
L 3525 4666 
L 3525 4397 
L 1831 0 
L 1172 0 
L 2766 4134 
L 525 4134 
L 525 4666 
z
" transform="scale(0.015625)"/>
       </defs>
       <use xlink:href="#DejaVuSans-32"/>
       <use xlink:href="#DejaVuSans-30" x="63.623047"/>
       <use xlink:href="#DejaVuSans-32" x="127.246094"/>
       <use xlink:href="#DejaVuSans-32" x="190.869141"/>
       <use xlink:href="#DejaVuSans-2d" x="254.492188"/>
       <use xlink:href="#DejaVuSans-30" x="290.576172"/>
       <use xlink:href="#DejaVuSans-37" x="354.199219"/>
       <use xlink:href="#DejaVuSans-2d" x="417.822266"/>
       <use xlink:href="#DejaVuSans-31" x="453.90625"/>
       <use xlink:href="#DejaVuSans-39" x="517.529297"/>
      </g>
     </g>
    </g>
    <g id="xtick_7">
     <g id="line2d_7">
      <g>
       <use xlink:href="#mfbfa45ab05" x="446.040694" y="395.28" style="stroke: #000000; stroke-width: 0.8"/>
      </g>
     </g>
     <g id="text_7">
      <!-- 2022-08-16 -->
      <g transform="translate(360.911667 495.213718) rotate(-45) scale(0.2 -0.2)">
       <defs>
        <path id="DejaVuSans-38" d="M 2034 2216 
Q 1584 2216 1326 1975 
Q 1069 1734 1069 1313 
Q 1069 891 1326 650 
Q 1584 409 2034 409 
Q 2484 409 2743 651 
Q 3003 894 3003 1313 
Q 3003 1734 2745 1975 
Q 2488 2216 2034 2216 
z
M 1403 2484 
Q 997 2584 770 2862 
Q 544 3141 544 3541 
Q 544 4100 942 4425 
Q 1341 4750 2034 4750 
Q 2731 4750 3128 4425 
Q 3525 4100 3525 3541 
Q 3525 3141 3298 2862 
Q 3072 2584 2669 2484 
Q 3125 2378 3379 2068 
Q 3634 1759 3634 1313 
Q 3634 634 3220 271 
Q 2806 -91 2034 -91 
Q 1263 -91 848 271 
Q 434 634 434 1313 
Q 434 1759 690 2068 
Q 947 2378 1403 2484 
z
M 1172 3481 
Q 1172 3119 1398 2916 
Q 1625 2713 2034 2713 
Q 2441 2713 2670 2916 
Q 2900 3119 2900 3481 
Q 2900 3844 2670 4047 
Q 2441 4250 2034 4250 
Q 1625 4250 1398 4047 
Q 1172 3844 1172 3481 
z
" transform="scale(0.015625)"/>
       </defs>
       <use xlink:href="#DejaVuSans-32"/>
       <use xlink:href="#DejaVuSans-30" x="63.623047"/>
       <use xlink:href="#DejaVuSans-32" x="127.246094"/>
       <use xlink:href="#DejaVuSans-32" x="190.869141"/>
       <use xlink:href="#DejaVuSans-2d" x="254.492188"/>
       <use xlink:href="#DejaVuSans-30" x="290.576172"/>
       <use xlink:href="#DejaVuSans-38" x="354.199219"/>
       <use xlink:href="#DejaVuSans-2d" x="417.822266"/>
       <use xlink:href="#DejaVuSans-31" x="453.90625"/>
       <use xlink:href="#DejaVuSans-36" x="517.529297"/>
      </g>
     </g>
    </g>
    <g id="xtick_8">
     <g id="line2d_8">
      <g>
       <use xlink:href="#mfbfa45ab05" x="503.20167" y="395.28" style="stroke: #000000; stroke-width: 0.8"/>
      </g>
     </g>
     <g id="text_8">
      <!-- 2022-09-13 -->
      <g transform="translate(418.072643 495.213718) rotate(-45) scale(0.2 -0.2)">
       <use xlink:href="#DejaVuSans-32"/>
       <use xlink:href="#DejaVuSans-30" x="63.623047"/>
       <use xlink:href="#DejaVuSans-32" x="127.246094"/>
       <use xlink:href="#DejaVuSans-32" x="190.869141"/>
       <use xlink:href="#DejaVuSans-2d" x="254.492188"/>
       <use xlink:href="#DejaVuSans-30" x="290.576172"/>
       <use xlink:href="#DejaVuSans-39" x="354.199219"/>
       <use xlink:href="#DejaVuSans-2d" x="417.822266"/>
       <use xlink:href="#DejaVuSans-31" x="453.90625"/>
       <use xlink:href="#DejaVuSans-33" x="517.529297"/>
      </g>
     </g>
    </g>
    <g id="xtick_9">
     <g id="line2d_9">
      <g>
       <use xlink:href="#mfbfa45ab05" x="560.362646" y="395.28" style="stroke: #000000; stroke-width: 0.8"/>
      </g>
     </g>
     <g id="text_9">
      <!-- 2022-10-11 -->
      <g transform="translate(475.233618 495.213718) rotate(-45) scale(0.2 -0.2)">
       <use xlink:href="#DejaVuSans-32"/>
       <use xlink:href="#DejaVuSans-30" x="63.623047"/>
       <use xlink:href="#DejaVuSans-32" x="127.246094"/>
       <use xlink:href="#DejaVuSans-32" x="190.869141"/>
       <use xlink:href="#DejaVuSans-2d" x="254.492188"/>
       <use xlink:href="#DejaVuSans-31" x="290.576172"/>
       <use xlink:href="#DejaVuSans-30" x="354.199219"/>
       <use xlink:href="#DejaVuSans-2d" x="417.822266"/>
       <use xlink:href="#DejaVuSans-31" x="453.90625"/>
       <use xlink:href="#DejaVuSans-31" x="517.529297"/>
      </g>
     </g>
    </g>
    <g id="xtick_10">
     <g id="line2d_10">
      <g>
       <use xlink:href="#mfbfa45ab05" x="617.523621" y="395.28" style="stroke: #000000; stroke-width: 0.8"/>
      </g>
     </g>
     <g id="text_10">
      <!-- 2022-11-08 -->
      <g transform="translate(532.394594 495.213718) rotate(-45) scale(0.2 -0.2)">
       <use xlink:href="#DejaVuSans-32"/>
       <use xlink:href="#DejaVuSans-30" x="63.623047"/>
       <use xlink:href="#DejaVuSans-32" x="127.246094"/>
       <use xlink:href="#DejaVuSans-32" x="190.869141"/>
       <use xlink:href="#DejaVuSans-2d" x="254.492188"/>
       <use xlink:href="#DejaVuSans-31" x="290.576172"/>
       <use xlink:href="#DejaVuSans-31" x="354.199219"/>
       <use xlink:href="#DejaVuSans-2d" x="417.822266"/>
       <use xlink:href="#DejaVuSans-30" x="453.90625"/>
       <use xlink:href="#DejaVuSans-38" x="517.529297"/>
      </g>
     </g>
    </g>
    <g id="xtick_11">
     <g id="line2d_11">
      <g>
       <use xlink:href="#mfbfa45ab05" x="674.684597" y="395.28" style="stroke: #000000; stroke-width: 0.8"/>
      </g>
     </g>
     <g id="text_11">
      <!-- 2022-12-06 -->
      <g transform="translate(589.555569 495.213718) rotate(-45) scale(0.2 -0.2)">
       <use xlink:href="#DejaVuSans-32"/>
       <use xlink:href="#DejaVuSans-30" x="63.623047"/>
       <use xlink:href="#DejaVuSans-32" x="127.246094"/>
       <use xlink:href="#DejaVuSans-32" x="190.869141"/>
       <use xlink:href="#DejaVuSans-2d" x="254.492188"/>
       <use xlink:href="#DejaVuSans-31" x="290.576172"/>
       <use xlink:href="#DejaVuSans-32" x="354.199219"/>
       <use xlink:href="#DejaVuSans-2d" x="417.822266"/>
       <use xlink:href="#DejaVuSans-30" x="453.90625"/>
       <use xlink:href="#DejaVuSans-36" x="517.529297"/>
      </g>
     </g>
    </g>
    <g id="xtick_12">
     <g id="line2d_12">
      <g>
       <use xlink:href="#mfbfa45ab05" x="731.845572" y="395.28" style="stroke: #000000; stroke-width: 0.8"/>
      </g>
     </g>
     <g id="text_12">
      <!-- 2023-01-03 -->
      <g transform="translate(646.716545 495.213718) rotate(-45) scale(0.2 -0.2)">
       <use xlink:href="#DejaVuSans-32"/>
       <use xlink:href="#DejaVuSans-30" x="63.623047"/>
       <use xlink:href="#DejaVuSans-32" x="127.246094"/>
       <use xlink:href="#DejaVuSans-33" x="190.869141"/>
       <use xlink:href="#DejaVuSans-2d" x="254.492188"/>
       <use xlink:href="#DejaVuSans-30" x="290.576172"/>
       <use xlink:href="#DejaVuSans-31" x="354.199219"/>
       <use xlink:href="#DejaVuSans-2d" x="417.822266"/>
       <use xlink:href="#DejaVuSans-30" x="453.90625"/>
       <use xlink:href="#DejaVuSans-33" x="517.529297"/>
      </g>
     </g>
    </g>
    <g id="xtick_13">
     <g id="line2d_13">
      <g>
       <use xlink:href="#mfbfa45ab05" x="789.006548" y="395.28" style="stroke: #000000; stroke-width: 0.8"/>
      </g>
     </g>
     <g id="text_13">
      <!-- 2023-01-31 -->
      <g transform="translate(703.877521 495.213718) rotate(-45) scale(0.2 -0.2)">
       <use xlink:href="#DejaVuSans-32"/>
       <use xlink:href="#DejaVuSans-30" x="63.623047"/>
       <use xlink:href="#DejaVuSans-32" x="127.246094"/>
       <use xlink:href="#DejaVuSans-33" x="190.869141"/>
       <use xlink:href="#DejaVuSans-2d" x="254.492188"/>
       <use xlink:href="#DejaVuSans-30" x="290.576172"/>
       <use xlink:href="#DejaVuSans-31" x="354.199219"/>
       <use xlink:href="#DejaVuSans-2d" x="417.822266"/>
       <use xlink:href="#DejaVuSans-33" x="453.90625"/>
       <use xlink:href="#DejaVuSans-31" x="517.529297"/>
      </g>
     </g>
    </g>
    <g id="xtick_14">
     <g id="line2d_14">
      <g>
       <use xlink:href="#mfbfa45ab05" x="846.167524" y="395.28" style="stroke: #000000; stroke-width: 0.8"/>
      </g>
     </g>
     <g id="text_14">
      <!-- 2023-02-28 -->
      <g transform="translate(761.038496 495.213718) rotate(-45) scale(0.2 -0.2)">
       <use xlink:href="#DejaVuSans-32"/>
       <use xlink:href="#DejaVuSans-30" x="63.623047"/>
       <use xlink:href="#DejaVuSans-32" x="127.246094"/>
       <use xlink:href="#DejaVuSans-33" x="190.869141"/>
       <use xlink:href="#DejaVuSans-2d" x="254.492188"/>
       <use xlink:href="#DejaVuSans-30" x="290.576172"/>
       <use xlink:href="#DejaVuSans-32" x="354.199219"/>
       <use xlink:href="#DejaVuSans-2d" x="417.822266"/>
       <use xlink:href="#DejaVuSans-32" x="453.90625"/>
       <use xlink:href="#DejaVuSans-38" x="517.529297"/>
      </g>
     </g>
    </g>
    <g id="xtick_15">
     <g id="line2d_15">
      <g>
       <use xlink:href="#mfbfa45ab05" x="903.328499" y="395.28" style="stroke: #000000; stroke-width: 0.8"/>
      </g>
     </g>
     <g id="text_15">
      <!-- 2023-03-28 -->
      <g transform="translate(818.199472 495.213718) rotate(-45) scale(0.2 -0.2)">
       <use xlink:href="#DejaVuSans-32"/>
       <use xlink:href="#DejaVuSans-30" x="63.623047"/>
       <use xlink:href="#DejaVuSans-32" x="127.246094"/>
       <use xlink:href="#DejaVuSans-33" x="190.869141"/>
       <use xlink:href="#DejaVuSans-2d" x="254.492188"/>
       <use xlink:href="#DejaVuSans-30" x="290.576172"/>
       <use xlink:href="#DejaVuSans-33" x="354.199219"/>
       <use xlink:href="#DejaVuSans-2d" x="417.822266"/>
       <use xlink:href="#DejaVuSans-32" x="453.90625"/>
       <use xlink:href="#DejaVuSans-38" x="517.529297"/>
      </g>
     </g>
    </g>
    <g id="xtick_16">
     <g id="line2d_16">
      <g>
       <use xlink:href="#mfbfa45ab05" x="940.074841" y="395.28" style="stroke: #000000; stroke-width: 0.8"/>
      </g>
     </g>
     <g id="text_16">
      <!-- 2023-04-15 -->
      <g transform="translate(854.945813 495.213718) rotate(-45) scale(0.2 -0.2)">
       <use xlink:href="#DejaVuSans-32"/>
       <use xlink:href="#DejaVuSans-30" x="63.623047"/>
       <use xlink:href="#DejaVuSans-32" x="127.246094"/>
       <use xlink:href="#DejaVuSans-33" x="190.869141"/>
       <use xlink:href="#DejaVuSans-2d" x="254.492188"/>
       <use xlink:href="#DejaVuSans-30" x="290.576172"/>
       <use xlink:href="#DejaVuSans-34" x="354.199219"/>
       <use xlink:href="#DejaVuSans-2d" x="417.822266"/>
       <use xlink:href="#DejaVuSans-31" x="453.90625"/>
       <use xlink:href="#DejaVuSans-35" x="517.529297"/>
      </g>
     </g>
    </g>
   </g>
   <g id="matplotlib.axis_2">
    <g id="ytick_1">
     <g id="line2d_17">
      <defs>
       <path id="mfffb222417" d="M 0 0 
L -3.5 0 
" style="stroke: #000000; stroke-width: 0.8"/>
      </defs>
      <g>
       <use xlink:href="#mfffb222417" x="103.074841" y="351.404603" style="stroke: #000000; stroke-width: 0.8"/>
      </g>
     </g>
     <g id="text_17">
      <!-- 0.05 -->
      <g transform="translate(34.784216 359.00304) scale(0.2 -0.2)">
       <defs>
        <path id="DejaVuSans-2212" d="M 678 2272 
L 4684 2272 
L 4684 1741 
L 678 1741 
L 678 2272 
z
" transform="scale(0.015625)"/>
        <path id="DejaVuSans-2e" d="M 684 794 
L 1344 794 
L 1344 0 
L 684 0 
L 684 794 
z
" transform="scale(0.015625)"/>
       </defs>
       <use xlink:href="#DejaVuSans-2212"/>
       <use xlink:href="#DejaVuSans-30" x="83.789062"/>
       <use xlink:href="#DejaVuSans-2e" x="147.412109"/>
       <use xlink:href="#DejaVuSans-30" x="179.199219"/>
       <use xlink:href="#DejaVuSans-35" x="242.822266"/>
      </g>
     </g>
    </g>
    <g id="ytick_2">
     <g id="line2d_18">
      <g>
       <use xlink:href="#mfffb222417" x="103.074841" y="274.951767" style="stroke: #000000; stroke-width: 0.8"/>
      </g>
     </g>
     <g id="text_18">
      <!-- 0.00 -->
      <g transform="translate(51.543591 282.550205) scale(0.2 -0.2)">
       <use xlink:href="#DejaVuSans-30"/>
       <use xlink:href="#DejaVuSans-2e" x="63.623047"/>
       <use xlink:href="#DejaVuSans-30" x="95.410156"/>
       <use xlink:href="#DejaVuSans-30" x="159.033203"/>
      </g>
     </g>
    </g>
    <g id="ytick_3">
     <g id="line2d_19">
      <g>
       <use xlink:href="#mfffb222417" x="103.074841" y="198.498931" style="stroke: #000000; stroke-width: 0.8"/>
      </g>
     </g>
     <g id="text_19">
      <!-- 0.05 -->
      <g transform="translate(51.543591 206.097369) scale(0.2 -0.2)">
       <use xlink:href="#DejaVuSans-30"/>
       <use xlink:href="#DejaVuSans-2e" x="63.623047"/>
       <use xlink:href="#DejaVuSans-30" x="95.410156"/>
       <use xlink:href="#DejaVuSans-35" x="159.033203"/>
      </g>
     </g>
    </g>
    <g id="ytick_4">
     <g id="line2d_20">
      <g>
       <use xlink:href="#mfffb222417" x="103.074841" y="122.046096" style="stroke: #000000; stroke-width: 0.8"/>
      </g>
     </g>
     <g id="text_20">
      <!-- 0.10 -->
      <g transform="translate(51.543591 129.644533) scale(0.2 -0.2)">
       <use xlink:href="#DejaVuSans-30"/>
       <use xlink:href="#DejaVuSans-2e" x="63.623047"/>
       <use xlink:href="#DejaVuSans-31" x="95.410156"/>
       <use xlink:href="#DejaVuSans-30" x="159.033203"/>
      </g>
     </g>
    </g>
    <g id="ytick_5">
     <g id="line2d_21">
      <g>
       <use xlink:href="#mfffb222417" x="103.074841" y="45.59326" style="stroke: #000000; stroke-width: 0.8"/>
      </g>
     </g>
     <g id="text_21">
      <!-- 0.15 -->
      <g transform="translate(51.543591 53.191697) scale(0.2 -0.2)">
       <use xlink:href="#DejaVuSans-30"/>
       <use xlink:href="#DejaVuSans-2e" x="63.623047"/>
       <use xlink:href="#DejaVuSans-31" x="95.410156"/>
       <use xlink:href="#DejaVuSans-35" x="159.033203"/>
      </g>
     </g>
    </g>
   </g>
   <g id="line2d_22">
    <path d="M 0 0 
" clip-path="url(#pa7e6758224)" style="fill: none; stroke: #ffa500; stroke-width: 1.5; stroke-linecap: square"/>
   </g>
   <g id="line2d_23">
    <path d="M 103.074841 274.951767 
L 948.274841 274.951767 
" clip-path="url(#pa7e6758224)" style="fill: none; stroke-dasharray: 7.4,3.2; stroke-dashoffset: 0; stroke: #000000; stroke-width: 2"/>
   </g>
   <g id="patch_3">
    <path d="M 103.074841 395.28 
L 103.074841 7.2 
" style="fill: none; stroke: #000000; stroke-width: 0.8; stroke-linejoin: miter; stroke-linecap: square"/>
   </g>
   <g id="patch_4">
    <path d="M 940.074841 395.28 
L 940.074841 7.2 
" style="fill: none; stroke: #000000; stroke-width: 0.8; stroke-linejoin: miter; stroke-linecap: square"/>
   </g>
   <g id="patch_5">
    <path d="M 103.074841 395.28 
L 940.074841 395.28 
" style="fill: none; stroke: #000000; stroke-width: 0.8; stroke-linejoin: miter; stroke-linecap: square"/>
   </g>
   <g id="patch_6">
    <path d="M 103.074841 7.2 
L 940.074841 7.2 
" style="fill: none; stroke: #000000; stroke-width: 0.8; stroke-linejoin: miter; stroke-linecap: square"/>
   </g>
  </g>
 </g>
 <defs>
  <clipPath id="pa7e6758224">
   <rect x="103.074841" y="7.2" width="837" height="388.08"/>
  </clipPath>
 </defs>
</svg>
