<?xml version="1.0" encoding="utf-8" standalone="no"?>
<!DOCTYPE svg PUBLIC "-//W3C//DTD SVG 1.1//EN"
  "http://www.w3.org/Graphics/SVG/1.1/DTD/svg11.dtd">
<svg xmlns:xlink="http://www.w3.org/1999/xlink" width="1040.965466pt" height="505.354841pt" viewBox="0 0 1040.965466 505.354841" xmlns="http://www.w3.org/2000/svg" version="1.1">
 <metadata>
  <rdf:RDF xmlns:dc="http://purl.org/dc/elements/1.1/" xmlns:cc="http://creativecommons.org/ns#" xmlns:rdf="http://www.w3.org/1999/02/22-rdf-syntax-ns#">
   <cc:Work>
    <dc:type rdf:resource="http://purl.org/dc/dcmitype/StillImage"/>
    <dc:date>2023-11-29T15:30:46.468468</dc:date>
    <dc:format>image/svg+xml</dc:format>
    <dc:creator>
     <cc:Agent>
      <dc:title>Matplotlib v3.7.2, https://matplotlib.org/</dc:title>
     </cc:Agent>
    </dc:creator>
   </cc:Work>
  </rdf:RDF>
 </metadata>
 <defs>
  <style type="text/css">*{stroke-linejoin: round; stroke-linecap: butt}</style>
 </defs>
 <g id="figure_1">
  <g id="patch_1">
   <path d="M 0 505.354841 
L 1040.965466 505.354841 
L 1040.965466 -0 
L 0 -0 
z
" style="fill: #ffffff"/>
  </g>
  <g id="axes_1">
   <g id="patch_2">
    <path d="M 103.074841 395.28 
L 940.074841 395.28 
L 940.074841 7.2 
L 103.074841 7.2 
z
" style="fill: #ffffff"/>
   </g>
   <g id="PolyCollection_1">
    <defs>
     <path id="m88d6e8e012" d="M 103.074841 -186.709047 
L 103.074841 -186.693368 
L 104.356617 -186.784149 
L 105.638394 -186.85929 
L 106.92017 -186.948436 
L 108.201946 -187.007509 
L 109.483723 -187.071244 
L 110.765499 -187.149168 
L 112.047276 -187.225911 
L 113.329052 -187.296928 
L 114.610828 -187.354712 
L 115.892605 -187.425803 
L 117.174381 -187.504316 
L 118.456158 -187.581519 
L 119.737934 -187.669858 
L 121.019711 -187.743019 
L 122.301487 -187.828979 
L 123.583263 -187.907137 
L 124.86504 -188.00784 
L 126.146816 -188.090924 
L 127.428593 -188.17068 
L 128.710369 -188.267442 
L 129.992145 -188.361713 
L 131.273922 -188.452365 
L 132.555698 -188.562041 
L 133.837475 -188.657263 
L 135.119251 -188.774914 
L 136.401028 -188.88569 
L 137.682804 -189.016345 
L 138.96458 -189.151414 
L 140.246357 -189.278561 
L 141.528133 -189.42274 
L 142.80991 -189.593208 
L 144.091686 -189.740868 
L 145.373462 -189.910643 
L 146.655239 -190.106741 
L 147.937015 -190.293781 
L 149.218792 -190.499947 
L 150.500568 -190.71676 
L 151.782345 -190.936582 
L 153.064121 -191.175171 
L 154.345897 -191.44373 
L 155.627674 -191.715328 
L 156.90945 -192.004396 
L 158.191227 -192.290842 
L 159.473003 -192.619521 
L 160.754779 -192.933107 
L 162.036556 -193.275465 
L 163.318332 -193.602782 
L 164.600109 -193.969161 
L 165.881885 -194.361045 
L 167.163662 -194.728459 
L 168.445438 -195.122 
L 169.727214 -195.540439 
L 171.008991 -195.947519 
L 172.290767 -196.360264 
L 173.572544 -196.794031 
L 174.85432 -197.231048 
L 176.136096 -197.671274 
L 177.417873 -198.131651 
L 178.699649 -198.597488 
L 179.981426 -199.06021 
L 181.263202 -199.540109 
L 182.544979 -200.020104 
L 183.826755 -200.498531 
L 185.108531 -200.999764 
L 186.390308 -201.515189 
L 187.672084 -202.026549 
L 188.953861 -202.536138 
L 190.235637 -203.040289 
L 191.517413 -203.560386 
L 192.79919 -204.070255 
L 194.080966 -204.590729 
L 195.362743 -205.061858 
L 196.644519 -205.613425 
L 197.926296 -206.087916 
L 199.208072 -206.631929 
L 200.489848 -207.117917 
L 201.771625 -207.64758 
L 203.053401 -208.11459 
L 204.335178 -208.652654 
L 205.616954 -209.154851 
L 206.89873 -209.625164 
L 208.180507 -210.147679 
L 209.462283 -210.617794 
L 210.74406 -211.118665 
L 212.025836 -211.631388 
L 213.307613 -212.124028 
L 214.589389 -212.59687 
L 215.871165 -213.108872 
L 217.152942 -213.599127 
L 218.434718 -214.102759 
L 219.716495 -214.596676 
L 220.998271 -215.06826 
L 222.280047 -215.555301 
L 223.561824 -216.04855 
L 224.8436 -216.486675 
L 226.125377 -216.992687 
L 227.407153 -217.475477 
L 228.68893 -217.950131 
L 229.970706 -218.426346 
L 231.252482 -218.902084 
L 232.534259 -219.385523 
L 233.816035 -219.844678 
L 235.097812 -220.325117 
L 236.379588 -220.819554 
L 237.661364 -221.320562 
L 238.943141 -221.827969 
L 240.224917 -222.299805 
L 241.506694 -222.824419 
L 242.78847 -223.387258 
L 244.070247 -223.917961 
L 245.352023 -224.46938 
L 246.633799 -225.034721 
L 247.915576 -225.63444 
L 249.197352 -226.245238 
L 250.479129 -226.808466 
L 251.760905 -227.457559 
L 253.042681 -228.071144 
L 254.324458 -228.734945 
L 255.606234 -229.3394 
L 256.888011 -230.059129 
L 258.169787 -230.762732 
L 259.451564 -231.443979 
L 260.73334 -232.137199 
L 262.015116 -232.852561 
L 263.296893 -233.602226 
L 264.578669 -234.299702 
L 265.860446 -235.106842 
L 267.142222 -235.807521 
L 268.423998 -236.638364 
L 269.705775 -237.439852 
L 270.987551 -238.219739 
L 272.269328 -239.032462 
L 273.551104 -239.878342 
L 274.832881 -240.631674 
L 276.114657 -241.648426 
L 277.396433 -242.511298 
L 278.67821 -243.308391 
L 279.959986 -244.217423 
L 281.241763 -245.172588 
L 282.523539 -246.246521 
L 283.805315 -247.242856 
L 285.087092 -248.068208 
L 286.368868 -249.420328 
L 287.650645 -250.486076 
L 288.932421 -251.573769 
L 290.214198 -252.701958 
L 291.495974 -253.997208 
L 292.77775 -255.228994 
L 294.059527 -256.108539 
L 295.341303 -257.238852 
L 296.62308 -259.206757 
L 297.904856 -260.852908 
L 299.186632 -262.044483 
L 300.468409 -263.620904 
L 301.750185 -265.105827 
L 303.031962 -266.205089 
L 304.313738 -268.057484 
L 305.595515 -270.071364 
L 306.877291 -271.4007 
L 308.159067 -272.219322 
L 309.440844 -273.944692 
L 310.72262 -274.663804 
L 312.004397 -275.80985 
L 313.286173 -277.553779 
L 314.567949 -277.899797 
L 315.849726 -277.229284 
L 317.131502 -275.838254 
L 318.413279 -277.691928 
L 319.695055 -274.522895 
L 320.976832 -273.51836 
L 322.258608 -278.209342 
L 323.540384 -277.005518 
L 324.822161 -274.516167 
L 326.103937 -275.679575 
L 327.385714 -275.82705 
L 328.66749 -266.551358 
L 329.949266 -253.219623 
L 331.231043 -246.673198 
L 332.512819 -260.944858 
L 333.794596 -253.586082 
L 335.076372 -243.867813 
L 336.358149 -244.378548 
L 337.639925 -224.773222 
L 338.921701 -227.632645 
L 340.203478 -233.578565 
L 341.485254 -248.456976 
L 342.767031 -234.405394 
L 344.048807 -226.169282 
L 345.330583 -229.508701 
L 346.61236 -227.567963 
L 347.894136 -219.650589 
L 349.175913 -220.708767 
L 350.457689 -227.578528 
L 351.739466 -219.06305 
L 353.021242 -217.402625 
L 354.303018 -220.487164 
L 355.584795 -215.037223 
L 356.866571 -212.945236 
L 358.148348 -213.7122 
L 359.430124 -215.404312 
L 360.7119 -213.645525 
L 361.993677 -215.510606 
L 363.275453 -215.379504 
L 364.55723 -213.650894 
L 365.839006 -215.350387 
L 367.120783 -214.562145 
L 368.402559 -214.53479 
L 369.684335 -215.859409 
L 370.966112 -215.412272 
L 372.247888 -217.302168 
L 373.529665 -217.198358 
L 374.811441 -216.688481 
L 376.093217 -216.681476 
L 377.374994 -217.605388 
L 378.65677 -218.392333 
L 379.938547 -218.58752 
L 381.220323 -219.449774 
L 382.502099 -219.581884 
L 383.783876 -219.752161 
L 385.065652 -221.020247 
L 386.347429 -220.397798 
L 387.629205 -221.269378 
L 388.910982 -221.644276 
L 390.192758 -221.605515 
L 391.474534 -222.424084 
L 392.756311 -222.602275 
L 394.038087 -222.305906 
L 395.319864 -221.852983 
L 396.60164 -223.219905 
L 397.883416 -223.426684 
L 399.165193 -223.876529 
L 400.446969 -221.523251 
L 401.728746 -221.435274 
L 403.010522 -220.495041 
L 404.292299 -222.801874 
L 405.574075 -224.213719 
L 406.855851 -223.797335 
L 408.137628 -222.253755 
L 409.419404 -222.022443 
L 410.701181 -224.816457 
L 411.982957 -222.478476 
L 413.264733 -223.144198 
L 414.54651 -223.506352 
L 415.828286 -224.879868 
L 417.110063 -223.896076 
L 418.391839 -224.570306 
L 419.673616 -224.053174 
L 420.955392 -224.942277 
L 422.237168 -225.683989 
L 423.518945 -226.94101 
L 424.800721 -227.597307 
L 426.082498 -228.203805 
L 427.364274 -229.027298 
L 428.64605 -229.247264 
L 429.927827 -230.015545 
L 431.209603 -230.827376 
L 432.49138 -232.828885 
L 433.773156 -234.334515 
L 435.054933 -235.094124 
L 436.336709 -236.749776 
L 437.618485 -237.182214 
L 438.900262 -238.676491 
L 440.182038 -240.820375 
L 441.463815 -242.622232 
L 442.745591 -244.003824 
L 444.027367 -246.218239 
L 445.309144 -247.700711 
L 446.59092 -249.547967 
L 447.872697 -251.302189 
L 449.154473 -253.334003 
L 450.43625 -255.222024 
L 451.718026 -257.432185 
L 452.999802 -259.308622 
L 454.281579 -261.355956 
L 455.563355 -263.929901 
L 456.845132 -266.278389 
L 458.126908 -268.112691 
L 459.408684 -270.085375 
L 460.690461 -272.592559 
L 461.972237 -274.653262 
L 463.254014 -277.218769 
L 464.53579 -280.648875 
L 465.817567 -282.472832 
L 467.099343 -284.889606 
L 468.381119 -287.090348 
L 469.662896 -289.55291 
L 470.944672 -292.613055 
L 472.226449 -295.10288 
L 473.508225 -297.903359 
L 474.790001 -301.311728 
L 476.071778 -303.384988 
L 477.353554 -306.556985 
L 478.635331 -308.7208 
L 479.917107 -311.848612 
L 481.198884 -315.44133 
L 482.48066 -318.172312 
L 483.762436 -320.515413 
L 485.044213 -324.119449 
L 486.325989 -326.882299 
L 487.607766 -330.170084 
L 488.889542 -332.856964 
L 490.171318 -336.450182 
L 491.453095 -339.729752 
L 492.734871 -340.0724 
L 494.016648 -345.981499 
L 495.298424 -347.096039 
L 496.580201 -350.780713 
L 497.861977 -353.058758 
L 499.143753 -356.302601 
L 500.42553 -359.195409 
L 501.707306 -362.034167 
L 502.989083 -365.034861 
L 504.270859 -367.109425 
L 505.552635 -369.692444 
L 506.834412 -368.092726 
L 508.116188 -375.435387 
L 509.397965 -376.850389 
L 510.679741 -371.900944 
L 511.961518 -379.771825 
L 513.243294 -378.631321 
L 514.52507 -379.375356 
L 515.806847 -384.101149 
L 517.088623 -383.548497 
L 518.3704 -379.724516 
L 519.652176 -383.06799 
L 520.933952 -384.314565 
L 522.215729 -382.224185 
L 523.497505 -382.293257 
L 524.779282 -381.581573 
L 526.061058 -378.179745 
L 527.342835 -374.461151 
L 528.624611 -364.846929 
L 529.906387 -367.476246 
L 531.188164 -362.115158 
L 532.46994 -358.553619 
L 533.751717 -355.316405 
L 535.033493 -351.020862 
L 536.315269 -347.838423 
L 537.597046 -354.485502 
L 538.878822 -349.634863 
L 540.160599 -341.067174 
L 541.442375 -336.703201 
L 542.724152 -336.206982 
L 544.005928 -323.054161 
L 545.287704 -320.913232 
L 546.569481 -317.260149 
L 547.851257 -318.854129 
L 549.133034 -305.977051 
L 550.41481 -310.07224 
L 551.696586 -313.330481 
L 552.978363 -301.680991 
L 554.260139 -295.064674 
L 555.541916 -295.628631 
L 556.823692 -290.574277 
L 558.105469 -289.107664 
L 559.387245 -289.342747 
L 560.669021 -289.753967 
L 561.950798 -287.621444 
L 563.232574 -285.43193 
L 564.514351 -277.851316 
L 565.796127 -283.110292 
L 567.077903 -276.294457 
L 568.35968 -277.973888 
L 569.641456 -278.619449 
L 570.923233 -276.438868 
L 572.205009 -274.804365 
L 573.486786 -278.33778 
L 574.768562 -276.129658 
L 576.050338 -276.087898 
L 577.332115 -272.817261 
L 578.613891 -274.830459 
L 579.895668 -276.684064 
L 581.177444 -275.012095 
L 582.45922 -275.064969 
L 583.740997 -276.150981 
L 585.022773 -278.00811 
L 586.30455 -277.257689 
L 587.586326 -280.358892 
L 588.868103 -280.808747 
L 590.149879 -276.95487 
L 591.431655 -277.871373 
L 592.713432 -280.657583 
L 593.995208 -281.551585 
L 595.276985 -282.10381 
L 596.558761 -285.609839 
L 597.840537 -284.942731 
L 599.122314 -285.616203 
L 600.40409 -286.74902 
L 601.685867 -287.913608 
L 602.967643 -290.223945 
L 604.24942 -289.512469 
L 605.531196 -291.058318 
L 606.812972 -292.361482 
L 608.094749 -293.438841 
L 609.376525 -294.465676 
L 610.658302 -295.790439 
L 611.940078 -298.803963 
L 613.221854 -300.011624 
L 614.503631 -302.0084 
L 615.785407 -305.472563 
L 617.067184 -303.584055 
L 618.34896 -308.02962 
L 619.630737 -307.361341 
L 620.912513 -307.985985 
L 622.194289 -308.38148 
L 623.476066 -311.108657 
L 624.757842 -311.794574 
L 626.039619 -311.997156 
L 627.321395 -316.08437 
L 628.603171 -315.320188 
L 629.884948 -316.378413 
L 631.166724 -316.262384 
L 632.448501 -318.981843 
L 633.730277 -318.511905 
L 635.012054 -319.564184 
L 636.29383 -322.764309 
L 637.575606 -324.010249 
L 638.857383 -325.306279 
L 640.139159 -325.890188 
L 641.420936 -327.621707 
L 642.702712 -328.100888 
L 643.984488 -329.095184 
L 645.266265 -330.084085 
L 646.548041 -331.023915 
L 647.829818 -333.359248 
L 649.111594 -331.996083 
L 650.393371 -332.121909 
L 651.675147 -334.056442 
L 652.956923 -335.310717 
L 654.2387 -337.795155 
L 655.520476 -336.180954 
L 656.802253 -336.483759 
L 658.084029 -337.41939 
L 659.365805 -338.728199 
L 660.647582 -340.336625 
L 661.929358 -341.952361 
L 663.211135 -341.88807 
L 664.492911 -342.766778 
L 665.774688 -342.89022 
L 667.056464 -344.986233 
L 668.33824 -347.144611 
L 669.620017 -345.001128 
L 670.901793 -347.300669 
L 672.18357 -347.542299 
L 673.465346 -346.295429 
L 674.747122 -351.249435 
L 676.028899 -350.696913 
L 677.310675 -349.910935 
L 678.592452 -352.307927 
L 679.874228 -349.670058 
L 681.156005 -352.771123 
L 682.437781 -355.200128 
L 683.719557 -352.930328 
L 685.001334 -352.554368 
L 686.28311 -354.505631 
L 687.564887 -354.78322 
L 688.846663 -355.527419 
L 690.128439 -351.078438 
L 691.410216 -352.245589 
L 692.691992 -352.061199 
L 693.973769 -355.321971 
L 695.255545 -358.208545 
L 696.537322 -355.097968 
L 697.819098 -351.077192 
L 699.100874 -354.887117 
L 700.382651 -356.008683 
L 701.664427 -358.624698 
L 702.946204 -358.056244 
L 704.22798 -357.134792 
L 705.509756 -360.025487 
L 706.791533 -360.598196 
L 708.073309 -357.6026 
L 709.355086 -359.908159 
L 710.636862 -356.926982 
L 711.918639 -356.431243 
L 713.200415 -362.367525 
L 714.482191 -361.677982 
L 715.763968 -362.009195 
L 717.045744 -361.019623 
L 718.327521 -358.871699 
L 719.609297 -353.640166 
L 720.891073 -352.055265 
L 722.17285 -352.791053 
L 723.454626 -348.167674 
L 724.736403 -338.957918 
L 726.018179 -349.550382 
L 727.299956 -352.220572 
L 728.581732 -348.918006 
L 729.863508 -345.890071 
L 731.145285 -345.412718 
L 732.427061 -346.820833 
L 733.708838 -340.721948 
L 734.990614 -337.02041 
L 736.27239 -343.594217 
L 737.554167 -337.003293 
L 738.835943 -340.603209 
L 740.11772 -340.870711 
L 741.399496 -334.482637 
L 742.681273 -334.469943 
L 743.963049 -330.655369 
L 745.244825 -330.372122 
L 746.526602 -336.274999 
L 747.808378 -331.677948 
L 749.090155 -331.713719 
L 750.371931 -327.284407 
L 751.653707 -328.751585 
L 752.935484 -323.94549 
L 754.21726 -327.809391 
L 755.499037 -325.184257 
L 756.780813 -325.079841 
L 758.06259 -321.923756 
L 759.344366 -327.571105 
L 760.626142 -321.540883 
L 761.907919 -320.65987 
L 763.189695 -317.836651 
L 764.471472 -314.533292 
L 765.753248 -315.263237 
L 767.035024 -316.52161 
L 768.316801 -313.118739 
L 769.598577 -309.405703 
L 770.880354 -312.009153 
L 772.16213 -314.097858 
L 773.443907 -310.836161 
L 774.725683 -308.630686 
L 776.007459 -313.286101 
L 777.289236 -314.234298 
L 778.571012 -305.860149 
L 779.852789 -303.429663 
L 781.134565 -311.743231 
L 782.416341 -308.579314 
L 783.698118 -307.415645 
L 784.979894 -306.421768 
L 786.261671 -301.855691 
L 787.543447 -303.364921 
L 788.825224 -305.85688 
L 790.107 -303.094033 
L 791.388776 -302.231572 
L 792.670553 -306.751987 
L 793.952329 -305.301551 
L 795.234106 -305.746465 
L 796.515882 -297.597291 
L 797.797658 -291.59853 
L 799.079435 -291.292963 
L 800.361211 -297.351938 
L 801.642988 -300.399957 
L 802.924764 -298.912974 
L 804.206541 -298.514368 
L 805.488317 -290.805691 
L 806.770093 -299.508675 
L 808.05187 -291.94544 
L 809.333646 -286.812539 
L 810.615423 -291.044273 
L 811.897199 -282.584294 
L 813.178975 -288.445489 
L 814.460752 -284.719888 
L 815.742528 -286.91786 
L 817.024305 -283.61186 
L 818.306081 -279.449949 
L 819.587858 -281.036781 
L 820.869634 -278.367569 
L 822.15141 -278.535196 
L 823.433187 -277.034049 
L 824.714963 -286.760011 
L 825.99674 -272.961937 
L 827.278516 -267.055006 
L 828.560292 -273.177172 
L 829.842069 -268.384896 
L 831.123845 -266.564676 
L 832.405622 -268.995974 
L 833.687398 -263.795411 
L 834.969175 -259.19578 
L 836.250951 -260.089719 
L 837.532727 -258.602425 
L 838.814504 -257.746412 
L 840.09628 -255.851011 
L 841.378057 -252.160978 
L 842.659833 -259.39707 
L 843.941609 -248.535239 
L 845.223386 -247.766929 
L 846.505162 -248.465068 
L 847.786939 -254.254108 
L 849.068715 -245.597878 
L 850.350492 -238.611608 
L 851.632268 -245.266867 
L 852.914044 -244.036559 
L 854.195821 -235.338215 
L 855.477597 -249.998437 
L 856.759374 -236.106457 
L 858.04115 -243.256283 
L 859.322926 -231.084314 
L 860.604703 -237.297782 
L 861.886479 -231.016618 
L 863.168256 -230.12226 
L 864.450032 -226.556114 
L 865.731809 -225.741955 
L 867.013585 -228.393882 
L 868.295361 -228.878402 
L 869.577138 -225.484133 
L 870.858914 -220.257367 
L 872.140691 -220.470378 
L 873.422467 -219.938834 
L 874.704243 -216.248658 
L 875.98602 -215.776103 
L 877.267796 -217.591414 
L 878.549573 -217.414412 
L 879.831349 -211.547218 
L 881.113126 -210.553458 
L 882.394902 -208.95618 
L 883.676678 -212.194266 
L 884.958455 -217.498846 
L 886.240231 -210.236026 
L 887.522008 -212.44572 
L 888.803784 -209.981564 
L 890.08556 -206.979258 
L 891.367337 -210.380543 
L 892.649113 -205.948319 
L 893.93089 -208.739551 
L 895.212666 -208.568312 
L 896.494443 -208.853077 
L 897.776219 -204.474227 
L 899.057995 -205.51894 
L 900.339772 -206.035142 
L 901.621548 -207.870522 
L 902.903325 -206.89827 
L 904.185101 -206.042535 
L 905.466877 -206.264591 
L 906.748654 -203.695552 
L 908.03043 -204.725753 
L 909.312207 -202.543699 
L 910.593983 -201.55516 
L 911.87576 -201.284062 
L 913.157536 -201.854978 
L 914.439312 -202.764275 
L 915.721089 -203.285959 
L 917.002865 -202.076705 
L 918.284642 -202.180806 
L 919.566418 -204.504167 
L 920.848194 -202.154196 
L 922.129971 -212.333599 
L 923.411747 -202.700254 
L 924.693524 -199.74836 
L 925.9753 -203.932175 
L 927.257077 -204.309671 
L 928.538853 -201.353121 
L 929.820629 -201.283513 
L 931.102406 -205.725174 
L 932.384182 -205.078096 
L 933.665959 -204.445336 
L 934.947735 -205.084047 
L 936.229511 -200.888036 
L 937.511288 -203.58937 
L 938.793064 -200.833052 
L 940.074841 -204.029672 
L 940.074841 -209.750228 
L 940.074841 -209.750228 
L 938.793064 -211.237998 
L 937.511288 -214.215994 
L 936.229511 -209.397824 
L 934.947735 -219.430902 
L 933.665959 -217.340796 
L 932.384182 -217.453343 
L 931.102406 -227.059744 
L 929.820629 -214.906582 
L 928.538853 -209.934125 
L 927.257077 -225.50246 
L 925.9753 -217.589227 
L 924.693524 -209.686673 
L 923.411747 -215.184017 
L 922.129971 -272.29322 
L 920.848194 -216.617303 
L 919.566418 -227.649043 
L 918.284642 -215.807405 
L 917.002865 -216.395243 
L 915.721089 -220.205245 
L 914.439312 -220.790327 
L 913.157536 -220.614963 
L 911.87576 -215.620717 
L 910.593983 -216.705278 
L 909.312207 -222.026646 
L 908.03043 -229.620529 
L 906.748654 -223.933702 
L 905.466877 -232.014756 
L 904.185101 -230.582816 
L 902.903325 -235.081593 
L 901.621548 -238.261312 
L 900.339772 -231.955564 
L 899.057995 -231.102232 
L 897.776219 -229.705691 
L 896.494443 -240.124493 
L 895.212666 -241.036237 
L 893.93089 -242.084972 
L 892.649113 -231.332905 
L 891.367337 -245.910456 
L 890.08556 -234.747893 
L 888.803784 -243.284714 
L 887.522008 -251.064903 
L 886.240231 -243.391318 
L 884.958455 -268.684141 
L 883.676678 -248.189032 
L 882.394902 -239.373567 
L 881.113126 -243.837374 
L 879.831349 -245.592864 
L 878.549573 -266.676764 
L 877.267796 -264.026164 
L 875.98602 -257.824981 
L 874.704243 -258.422285 
L 873.422467 -268.707246 
L 872.140691 -268.55964 
L 870.858914 -269.240791 
L 869.577138 -279.099244 
L 868.295361 -291.355975 
L 867.013585 -290.248634 
L 865.731809 -282.731644 
L 864.450032 -284.237744 
L 863.168256 -291.394935 
L 861.886479 -293.385716 
L 860.604703 -311.148913 
L 859.322926 -292.581937 
L 858.04115 -333.10777 
L 856.759374 -308.055999 
L 855.477597 -346.915672 
L 854.195821 -303.435489 
L 852.914044 -326.984103 
L 851.632268 -328.085196 
L 850.350492 -313.047912 
L 849.068715 -329.51399 
L 847.786939 -352.782734 
L 846.505162 -337.558795 
L 845.223386 -334.052701 
L 843.941609 -335.529016 
L 842.659833 -362.950574 
L 841.378057 -352.402155 
L 840.09628 -352.760452 
L 838.814504 -355.790298 
L 837.532727 -358.222801 
L 836.250951 -363.176103 
L 834.969175 -360.096907 
L 833.687398 -371.751993 
L 832.405622 -384.301514 
L 831.123845 -373.451505 
L 829.842069 -383.339027 
L 828.560292 -390.434215 
L 827.278516 -375.601657 
L 825.99674 -389.375301 
L 824.714963 -423.615763 
L 823.433187 -399.284389 
L 822.15141 -403.600913 
L 820.869634 -402.122825 
L 819.587858 -408.352983 
L 818.306081 -403.958815 
L 817.024305 -413.052086 
L 815.742528 -419.4098 
L 814.460752 -414.152905 
L 813.178975 -424.915219 
L 811.897199 -408.921361 
L 810.615423 -428.653386 
L 809.333646 -419.8168 
L 808.05187 -429.58689 
L 806.770093 -443.567647 
L 805.488317 -426.347006 
L 804.206541 -444.289954 
L 802.924764 -442.992535 
L 801.642988 -445.307456 
L 800.361211 -438.532212 
L 799.079435 -426.153467 
L 797.797658 -425.293742 
L 796.515882 -436.499942 
L 795.234106 -455.312927 
L 793.952329 -453.710227 
L 792.670553 -454.109703 
L 791.388776 -444.373294 
L 790.107 -445.796046 
L 788.825224 -451.438057 
L 787.543447 -444.820477 
L 786.261671 -442.631876 
L 784.979894 -450.836288 
L 783.698118 -450.398889 
L 782.416341 -452.990894 
L 781.134565 -457.971103 
L 779.852789 -439.568012 
L 778.571012 -446.756396 
L 777.289236 -460.111163 
L 776.007459 -456.087031 
L 774.725683 -447.691803 
L 773.443907 -451.339991 
L 772.16213 -455.896379 
L 770.880354 -449.846682 
L 769.598577 -442.170121 
L 768.316801 -451.695948 
L 767.035024 -455.655411 
L 765.753248 -451.717868 
L 764.471472 -454.354854 
L 763.189695 -455.123113 
L 761.907919 -460.163258 
L 760.626142 -459.589102 
L 759.344366 -469.368578 
L 758.06259 -459.887685 
L 756.780813 -463.332266 
L 755.499037 -461.633881 
L 754.21726 -463.056398 
L 752.935484 -458.298028 
L 751.653707 -465.205528 
L 750.371931 -460.353639 
L 749.090155 -466.951018 
L 747.808378 -465.621027 
L 746.526602 -471.489942 
L 745.244825 -465.031964 
L 743.963049 -461.805406 
L 742.681273 -463.749734 
L 741.399496 -464.937942 
L 740.11772 -472.416801 
L 738.835943 -469.873221 
L 737.554167 -466.690168 
L 736.27239 -474.154661 
L 734.990614 -466.452952 
L 733.708838 -468.291473 
L 732.427061 -476.728789 
L 731.145285 -472.797783 
L 729.863508 -473.180353 
L 728.581732 -476.142727 
L 727.299956 -478.300932 
L 726.018179 -474.477741 
L 724.736403 -458.046438 
L 723.454626 -468.886725 
L 722.17285 -474.897721 
L 720.891073 -473.27708 
L 719.609297 -474.706344 
L 718.327521 -479.262647 
L 717.045744 -480.74019 
L 715.763968 -483.323342 
L 714.482191 -479.157802 
L 713.200415 -478.422807 
L 711.918639 -471.250251 
L 710.636862 -470.315292 
L 709.355086 -472.375375 
L 708.073309 -468.035038 
L 706.791533 -471.088298 
L 705.509756 -468.023135 
L 704.22798 -464.311431 
L 702.946204 -462.632555 
L 701.664427 -463.437719 
L 700.382651 -458.426583 
L 699.100874 -456.33733 
L 697.819098 -451.645231 
L 696.537322 -454.021551 
L 695.255545 -456.298385 
L 693.973769 -452.164384 
L 692.691992 -449.078488 
L 691.410216 -447.87442 
L 690.128439 -444.27469 
L 688.846663 -448.589124 
L 687.564887 -446.385111 
L 686.28311 -445.553291 
L 685.001334 -443.664056 
L 683.719557 -443.969488 
L 682.437781 -444.835498 
L 681.156005 -440.237208 
L 679.874228 -437.074082 
L 678.592452 -439.637777 
L 677.310675 -436.088598 
L 676.028899 -437.63474 
L 674.747122 -435.705488 
L 673.465346 -430.255531 
L 672.18357 -430.905575 
L 670.901793 -429.716728 
L 669.620017 -426.989682 
L 668.33824 -428.74571 
L 667.056464 -426.547625 
L 665.774688 -423.258401 
L 664.492911 -422.99769 
L 663.211135 -421.365562 
L 661.929358 -421.007478 
L 660.647582 -419.033617 
L 659.365805 -417.057376 
L 658.084029 -415.502411 
L 656.802253 -414.666008 
L 655.520476 -413.609949 
L 654.2387 -417.19867 
L 652.956923 -412.371816 
L 651.675147 -410.981505 
L 650.393371 -408.991545 
L 649.111594 -409.462986 
L 647.829818 -409.6678 
L 646.548041 -407.065497 
L 645.266265 -405.915952 
L 643.984488 -404.339456 
L 642.702712 -403.548732 
L 641.420936 -402.809301 
L 640.139159 -401.549745 
L 638.857383 -400.453215 
L 637.575606 -398.720511 
L 636.29383 -396.81969 
L 635.012054 -393.082338 
L 633.730277 -391.892223 
L 632.448501 -392.422059 
L 631.166724 -389.204027 
L 629.884948 -389.581047 
L 628.603171 -388.006362 
L 627.321395 -389.762367 
L 626.039619 -383.667168 
L 624.757842 -383.400722 
L 623.476066 -382.348063 
L 622.194289 -379.013613 
L 620.912513 -378.455666 
L 619.630737 -377.393559 
L 618.34896 -378.17186 
L 617.067184 -372.778699 
L 615.785407 -374.184012 
L 614.503631 -369.60299 
L 613.221854 -366.606416 
L 611.940078 -364.604097 
L 610.658302 -360.397285 
L 609.376525 -357.854007 
L 608.094749 -356.707334 
L 606.812972 -354.402253 
L 605.531196 -352.712818 
L 604.24942 -350.19048 
L 602.967643 -350.549741 
L 601.685867 -346.836161 
L 600.40409 -344.286777 
L 599.122314 -342.430742 
L 597.840537 -341.038443 
L 596.558761 -340.569428 
L 595.276985 -336.136533 
L 593.995208 -334.558533 
L 592.713432 -332.126366 
L 591.431655 -328.796616 
L 590.149879 -327.137807 
L 588.868103 -329.363158 
L 587.586326 -327.873807 
L 586.30455 -323.994101 
L 585.022773 -323.260655 
L 583.740997 -320.825697 
L 582.45922 -319.020598 
L 581.177444 -317.739124 
L 579.895668 -317.261721 
L 578.613891 -315.072082 
L 577.332115 -312.485683 
L 576.050338 -314.709687 
L 574.768562 -313.235267 
L 573.486786 -313.76991 
L 572.205009 -310.0706 
L 570.923233 -309.598932 
L 569.641456 -310.902663 
L 568.35968 -309.287244 
L 567.077903 -307.273082 
L 565.796127 -311.825924 
L 564.514351 -306.220916 
L 563.232574 -311.650282 
L 561.950798 -312.301472 
L 560.669021 -313.231875 
L 559.387245 -311.512478 
L 558.105469 -310.630828 
L 556.823692 -311.567685 
L 555.541916 -315.280644 
L 554.260139 -313.316047 
L 552.978363 -319.006984 
L 551.696586 -327.277406 
L 550.41481 -324.103042 
L 549.133034 -320.250753 
L 547.851257 -330.36504 
L 546.569481 -328.834095 
L 545.287704 -331.316491 
L 544.005928 -332.879374 
L 542.724152 -345.384091 
L 541.442375 -346.653001 
L 540.160599 -352.177697 
L 538.878822 -363.228205 
L 537.597046 -370.230302 
L 536.315269 -362.095595 
L 535.033493 -366.479958 
L 533.751717 -372.463792 
L 532.46994 -376.26348 
L 531.188164 -381.157454 
L 529.906387 -388.476015 
L 528.624611 -385.197469 
L 527.342835 -397.646693 
L 526.061058 -403.804277 
L 524.779282 -407.37589 
L 523.497505 -408.554784 
L 522.215729 -408.157127 
L 520.933952 -410.246464 
L 519.652176 -407.927071 
L 518.3704 -404.745196 
L 517.088623 -409.980925 
L 515.806847 -410.101402 
L 514.52507 -403.928396 
L 513.243294 -402.82572 
L 511.961518 -404.397762 
L 510.679741 -393.977955 
L 509.397965 -400.583774 
L 508.116188 -398.005609 
L 506.834412 -389.169826 
L 505.552635 -390.834714 
L 504.270859 -387.405003 
L 502.989083 -384.718434 
L 501.707306 -380.66476 
L 500.42553 -377.309066 
L 499.143753 -373.615672 
L 497.861977 -369.561912 
L 496.580201 -366.846466 
L 495.298424 -362.183631 
L 494.016648 -360.717052 
L 492.734871 -353.798312 
L 491.453095 -353.222715 
L 490.171318 -349.314186 
L 488.889542 -344.949995 
L 487.607766 -341.798113 
L 486.325989 -337.746371 
L 485.044213 -334.500767 
L 483.762436 -330.216295 
L 482.48066 -327.414329 
L 481.198884 -324.030225 
L 479.917107 -319.790607 
L 478.635331 -316.082531 
L 477.353554 -313.367435 
L 476.071778 -309.608322 
L 474.790001 -307.197855 
L 473.508225 -303.322392 
L 472.226449 -300.069095 
L 470.944672 -297.153405 
L 469.662896 -293.638309 
L 468.381119 -290.714298 
L 467.099343 -288.456037 
L 465.817567 -286.12008 
L 464.53579 -284.478527 
L 463.254014 -281.251475 
L 461.972237 -278.953991 
L 460.690461 -276.954305 
L 459.408684 -274.591512 
L 458.126908 -273.118277 
L 456.845132 -270.998638 
L 455.563355 -268.844789 
L 454.281579 -266.491149 
L 452.999802 -264.660441 
L 451.718026 -262.858735 
L 450.43625 -261.005114 
L 449.154473 -259.033078 
L 447.872697 -257.083527 
L 446.59092 -255.439543 
L 445.309144 -253.69241 
L 444.027367 -252.225793 
L 442.745591 -250.261257 
L 441.463815 -248.861838 
L 440.182038 -247.253784 
L 438.900262 -245.23026 
L 437.618485 -243.840785 
L 436.336709 -243.463079 
L 435.054933 -241.843698 
L 433.773156 -241.004413 
L 432.49138 -239.459968 
L 431.209603 -237.619515 
L 429.927827 -236.678685 
L 428.64605 -235.797197 
L 427.364274 -235.714061 
L 426.082498 -234.825103 
L 424.800721 -234.311224 
L 423.518945 -233.749638 
L 422.237168 -232.483591 
L 420.955392 -231.74491 
L 419.673616 -230.725541 
L 418.391839 -231.420643 
L 417.110063 -230.882679 
L 415.828286 -231.941681 
L 414.54651 -230.431013 
L 413.264733 -230.34578 
L 411.982957 -229.258633 
L 410.701181 -231.772686 
L 409.419404 -228.964547 
L 408.137628 -229.269865 
L 406.855851 -231.021748 
L 405.574075 -231.520655 
L 404.292299 -230.123681 
L 403.010522 -227.618066 
L 401.728746 -228.747171 
L 400.446969 -228.934234 
L 399.165193 -231.631759 
L 397.883416 -231.768585 
L 396.60164 -231.151881 
L 395.319864 -229.677492 
L 394.038087 -230.290148 
L 392.756311 -230.726651 
L 391.474534 -230.618672 
L 390.192758 -229.774908 
L 388.910982 -230.124416 
L 387.629205 -229.607448 
L 386.347429 -228.655235 
L 385.065652 -229.516081 
L 383.783876 -228.167438 
L 382.502099 -228.03792 
L 381.220323 -227.969219 
L 379.938547 -227.132255 
L 378.65677 -227.008537 
L 377.374994 -226.063682 
L 376.093217 -225.018928 
L 374.811441 -225.089543 
L 373.529665 -225.657446 
L 372.247888 -226.081647 
L 370.966112 -223.752326 
L 369.684335 -224.255722 
L 368.402559 -222.716189 
L 367.120783 -222.792603 
L 365.839006 -223.485187 
L 364.55723 -221.867108 
L 363.275453 -223.540121 
L 361.993677 -223.55494 
L 360.7119 -221.590568 
L 359.430124 -223.154428 
L 358.148348 -221.30819 
L 356.866571 -220.55629 
L 355.584795 -222.420631 
L 354.303018 -227.75034 
L 353.021242 -224.532178 
L 351.739466 -226.203927 
L 350.457689 -233.991966 
L 349.175913 -227.491842 
L 347.894136 -226.259391 
L 346.61236 -233.51093 
L 345.330583 -235.425897 
L 344.048807 -231.829235 
L 342.767031 -240.14243 
L 341.485254 -255.028014 
L 340.203478 -239.005375 
L 338.921701 -232.80251 
L 337.639925 -229.771553 
L 336.358149 -250.001436 
L 335.076372 -249.324945 
L 333.794596 -259.417909 
L 332.512819 -267.091016 
L 331.231043 -251.818839 
L 329.949266 -258.552864 
L 328.66749 -272.415918 
L 327.385714 -281.960807 
L 326.103937 -281.579624 
L 324.822161 -280.1396 
L 323.540384 -282.548454 
L 322.258608 -283.613579 
L 320.976832 -278.481306 
L 319.695055 -279.370298 
L 318.413279 -282.961184 
L 317.131502 -281.008693 
L 315.849726 -282.698256 
L 314.567949 -283.617129 
L 313.286173 -283.497424 
L 312.004397 -281.725242 
L 310.72262 -280.667849 
L 309.440844 -280.05567 
L 308.159067 -278.371833 
L 306.877291 -277.673265 
L 305.595515 -276.400414 
L 304.313738 -274.342206 
L 303.031962 -272.586216 
L 301.750185 -271.56037 
L 300.468409 -270.151291 
L 299.186632 -268.581044 
L 297.904856 -267.52492 
L 296.62308 -265.854407 
L 295.341303 -263.82534 
L 294.059527 -262.699269 
L 292.77775 -261.932101 
L 291.495974 -260.689281 
L 290.214198 -259.464749 
L 288.932421 -258.334384 
L 287.650645 -257.254333 
L 286.368868 -256.216016 
L 285.087092 -254.741895 
L 283.805315 -254.027961 
L 282.523539 -252.984036 
L 281.241763 -251.886441 
L 279.959986 -250.891943 
L 278.67821 -249.948238 
L 277.396433 -249.19717 
L 276.114657 -248.373922 
L 274.832881 -247.231736 
L 273.551104 -246.52863 
L 272.269328 -245.637507 
L 270.987551 -244.811888 
L 269.705775 -243.977513 
L 268.423998 -243.120452 
L 267.142222 -242.248642 
L 265.860446 -241.522025 
L 264.578669 -240.679773 
L 263.296893 -239.942755 
L 262.015116 -239.149152 
L 260.73334 -238.417615 
L 259.451564 -237.648352 
L 258.169787 -236.941814 
L 256.888011 -236.179505 
L 255.606234 -235.353614 
L 254.324458 -234.732079 
L 253.042681 -233.94518 
L 251.760905 -233.270605 
L 250.479129 -232.483275 
L 249.197352 -231.914567 
L 247.915576 -231.182482 
L 246.633799 -230.485424 
L 245.352023 -229.823268 
L 244.070247 -229.158985 
L 242.78847 -228.525219 
L 241.506694 -227.794488 
L 240.224917 -227.139599 
L 238.943141 -226.60501 
L 237.661364 -225.96527 
L 236.379588 -225.32704 
L 235.097812 -224.692607 
L 233.816035 -224.082676 
L 232.534259 -223.516851 
L 231.252482 -222.892072 
L 229.970706 -222.281417 
L 228.68893 -221.668788 
L 227.407153 -221.059886 
L 226.125377 -220.434871 
L 224.8436 -219.784974 
L 223.561824 -219.232262 
L 222.280047 -218.594674 
L 220.998271 -217.971308 
L 219.716495 -217.375727 
L 218.434718 -216.761123 
L 217.152942 -216.134048 
L 215.871165 -215.528043 
L 214.589389 -214.89098 
L 213.307613 -214.315085 
L 212.025836 -213.727498 
L 210.74406 -213.104513 
L 209.462283 -212.505969 
L 208.180507 -211.948916 
L 206.89873 -211.34121 
L 205.616954 -210.799753 
L 204.335178 -210.217958 
L 203.053401 -209.595464 
L 201.771625 -209.071215 
L 200.489848 -208.478248 
L 199.208072 -207.939659 
L 197.926296 -207.334096 
L 196.644519 -206.811694 
L 195.362743 -206.200673 
L 194.080966 -205.686209 
L 192.79919 -205.114806 
L 191.517413 -204.55805 
L 190.235637 -203.990609 
L 188.953861 -203.445205 
L 187.672084 -202.893717 
L 186.390308 -202.339573 
L 185.108531 -201.787582 
L 183.826755 -201.276712 
L 182.544979 -200.789837 
L 181.263202 -200.300486 
L 179.981426 -199.80632 
L 178.699649 -199.330489 
L 177.417873 -198.843289 
L 176.136096 -198.361728 
L 174.85432 -197.903551 
L 173.572544 -197.444562 
L 172.290767 -196.986338 
L 171.008991 -196.551337 
L 169.727214 -196.122313 
L 168.445438 -195.670202 
L 167.163662 -195.255213 
L 165.881885 -194.867129 
L 164.600109 -194.444573 
L 163.318332 -194.053089 
L 162.036556 -193.707992 
L 160.754779 -193.342944 
L 159.473003 -193.010904 
L 158.191227 -192.654795 
L 156.90945 -192.351555 
L 155.627674 -192.041481 
L 154.345897 -191.752259 
L 153.064121 -191.466275 
L 151.782345 -191.210663 
L 150.500568 -190.986871 
L 149.218792 -190.758562 
L 147.937015 -190.542145 
L 146.655239 -190.349224 
L 145.373462 -190.140277 
L 144.091686 -189.965649 
L 142.80991 -189.817134 
L 141.528133 -189.638321 
L 140.246357 -189.489992 
L 138.96458 -189.363275 
L 137.682804 -189.222078 
L 136.401028 -189.084809 
L 135.119251 -188.974276 
L 133.837475 -188.851692 
L 132.555698 -188.757235 
L 131.273922 -188.642015 
L 129.992145 -188.550502 
L 128.710369 -188.452318 
L 127.428593 -188.348595 
L 126.146816 -188.266324 
L 124.86504 -188.178966 
L 123.583263 -188.065538 
L 122.301487 -187.978969 
L 121.019711 -187.880703 
L 119.737934 -187.802896 
L 118.456158 -187.699212 
L 117.174381 -187.609281 
L 115.892605 -187.514765 
L 114.610828 -187.437575 
L 113.329052 -187.371096 
L 112.047276 -187.288086 
L 110.765499 -187.192505 
L 109.483723 -187.100384 
L 108.201946 -187.026507 
L 106.92017 -186.961743 
L 105.638394 -186.870451 
L 104.356617 -186.798851 
L 103.074841 -186.709047 
z
" style="stroke: #008000; stroke-opacity: 0.3"/>
    </defs>
    <g clip-path="url(#pb5d8d8a4b2)">
     <use xlink:href="#m88d6e8e012" x="0" y="505.354841" style="fill: #008000; fill-opacity: 0.3; stroke: #008000; stroke-opacity: 0.3"/>
    </g>
   </g>
   <g id="matplotlib.axis_1">
    <g id="xtick_1">
     <g id="line2d_1">
      <defs>
       <path id="mf5c700e8f8" d="M 0 0 
L 0 3.5 
" style="stroke: #000000; stroke-width: 0.8"/>
      </defs>
      <g>
       <use xlink:href="#mf5c700e8f8" x="103.074841" y="395.28" style="stroke: #000000; stroke-width: 0.8"/>
      </g>
     </g>
     <g id="text_1">
      <!-- 2021-07-01 -->
      <g transform="translate(17.945813 495.213718) rotate(-45) scale(0.2 -0.2)">
       <defs>
        <path id="DejaVuSans-32" d="M 1228 531 
L 3431 531 
L 3431 0 
L 469 0 
L 469 531 
Q 828 903 1448 1529 
Q 2069 2156 2228 2338 
Q 2531 2678 2651 2914 
Q 2772 3150 2772 3378 
Q 2772 3750 2511 3984 
Q 2250 4219 1831 4219 
Q 1534 4219 1204 4116 
Q 875 4013 500 3803 
L 500 4441 
Q 881 4594 1212 4672 
Q 1544 4750 1819 4750 
Q 2544 4750 2975 4387 
Q 3406 4025 3406 3419 
Q 3406 3131 3298 2873 
Q 3191 2616 2906 2266 
Q 2828 2175 2409 1742 
Q 1991 1309 1228 531 
z
" transform="scale(0.015625)"/>
        <path id="DejaVuSans-30" d="M 2034 4250 
Q 1547 4250 1301 3770 
Q 1056 3291 1056 2328 
Q 1056 1369 1301 889 
Q 1547 409 2034 409 
Q 2525 409 2770 889 
Q 3016 1369 3016 2328 
Q 3016 3291 2770 3770 
Q 2525 4250 2034 4250 
z
M 2034 4750 
Q 2819 4750 3233 4129 
Q 3647 3509 3647 2328 
Q 3647 1150 3233 529 
Q 2819 -91 2034 -91 
Q 1250 -91 836 529 
Q 422 1150 422 2328 
Q 422 3509 836 4129 
Q 1250 4750 2034 4750 
z
" transform="scale(0.015625)"/>
        <path id="DejaVuSans-31" d="M 794 531 
L 1825 531 
L 1825 4091 
L 703 3866 
L 703 4441 
L 1819 4666 
L 2450 4666 
L 2450 531 
L 3481 531 
L 3481 0 
L 794 0 
L 794 531 
z
" transform="scale(0.015625)"/>
        <path id="DejaVuSans-2d" d="M 313 2009 
L 1997 2009 
L 1997 1497 
L 313 1497 
L 313 2009 
z
" transform="scale(0.015625)"/>
        <path id="DejaVuSans-37" d="M 525 4666 
L 3525 4666 
L 3525 4397 
L 1831 0 
L 1172 0 
L 2766 4134 
L 525 4134 
L 525 4666 
z
" transform="scale(0.015625)"/>
       </defs>
       <use xlink:href="#DejaVuSans-32"/>
       <use xlink:href="#DejaVuSans-30" x="63.623047"/>
       <use xlink:href="#DejaVuSans-32" x="127.246094"/>
       <use xlink:href="#DejaVuSans-31" x="190.869141"/>
       <use xlink:href="#DejaVuSans-2d" x="254.492188"/>
       <use xlink:href="#DejaVuSans-30" x="290.576172"/>
       <use xlink:href="#DejaVuSans-37" x="354.199219"/>
       <use xlink:href="#DejaVuSans-2d" x="417.822266"/>
       <use xlink:href="#DejaVuSans-30" x="453.90625"/>
       <use xlink:href="#DejaVuSans-31" x="517.529297"/>
      </g>
     </g>
    </g>
    <g id="xtick_2">
     <g id="line2d_2">
      <g>
       <use xlink:href="#mf5c700e8f8" x="138.96458" y="395.28" style="stroke: #000000; stroke-width: 0.8"/>
      </g>
     </g>
     <g id="text_2">
      <!-- 2021-07-29 -->
      <g transform="translate(53.835553 495.213718) rotate(-45) scale(0.2 -0.2)">
       <defs>
        <path id="DejaVuSans-39" d="M 703 97 
L 703 672 
Q 941 559 1184 500 
Q 1428 441 1663 441 
Q 2288 441 2617 861 
Q 2947 1281 2994 2138 
Q 2813 1869 2534 1725 
Q 2256 1581 1919 1581 
Q 1219 1581 811 2004 
Q 403 2428 403 3163 
Q 403 3881 828 4315 
Q 1253 4750 1959 4750 
Q 2769 4750 3195 4129 
Q 3622 3509 3622 2328 
Q 3622 1225 3098 567 
Q 2575 -91 1691 -91 
Q 1453 -91 1209 -44 
Q 966 3 703 97 
z
M 1959 2075 
Q 2384 2075 2632 2365 
Q 2881 2656 2881 3163 
Q 2881 3666 2632 3958 
Q 2384 4250 1959 4250 
Q 1534 4250 1286 3958 
Q 1038 3666 1038 3163 
Q 1038 2656 1286 2365 
Q 1534 2075 1959 2075 
z
" transform="scale(0.015625)"/>
       </defs>
       <use xlink:href="#DejaVuSans-32"/>
       <use xlink:href="#DejaVuSans-30" x="63.623047"/>
       <use xlink:href="#DejaVuSans-32" x="127.246094"/>
       <use xlink:href="#DejaVuSans-31" x="190.869141"/>
       <use xlink:href="#DejaVuSans-2d" x="254.492188"/>
       <use xlink:href="#DejaVuSans-30" x="290.576172"/>
       <use xlink:href="#DejaVuSans-37" x="354.199219"/>
       <use xlink:href="#DejaVuSans-2d" x="417.822266"/>
       <use xlink:href="#DejaVuSans-32" x="453.90625"/>
       <use xlink:href="#DejaVuSans-39" x="517.529297"/>
      </g>
     </g>
    </g>
    <g id="xtick_3">
     <g id="line2d_3">
      <g>
       <use xlink:href="#mf5c700e8f8" x="174.85432" y="395.28" style="stroke: #000000; stroke-width: 0.8"/>
      </g>
     </g>
     <g id="text_3">
      <!-- 2021-08-26 -->
      <g transform="translate(89.725293 495.213718) rotate(-45) scale(0.2 -0.2)">
       <defs>
        <path id="DejaVuSans-38" d="M 2034 2216 
Q 1584 2216 1326 1975 
Q 1069 1734 1069 1313 
Q 1069 891 1326 650 
Q 1584 409 2034 409 
Q 2484 409 2743 651 
Q 3003 894 3003 1313 
Q 3003 1734 2745 1975 
Q 2488 2216 2034 2216 
z
M 1403 2484 
Q 997 2584 770 2862 
Q 544 3141 544 3541 
Q 544 4100 942 4425 
Q 1341 4750 2034 4750 
Q 2731 4750 3128 4425 
Q 3525 4100 3525 3541 
Q 3525 3141 3298 2862 
Q 3072 2584 2669 2484 
Q 3125 2378 3379 2068 
Q 3634 1759 3634 1313 
Q 3634 634 3220 271 
Q 2806 -91 2034 -91 
Q 1263 -91 848 271 
Q 434 634 434 1313 
Q 434 1759 690 2068 
Q 947 2378 1403 2484 
z
M 1172 3481 
Q 1172 3119 1398 2916 
Q 1625 2713 2034 2713 
Q 2441 2713 2670 2916 
Q 2900 3119 2900 3481 
Q 2900 3844 2670 4047 
Q 2441 4250 2034 4250 
Q 1625 4250 1398 4047 
Q 1172 3844 1172 3481 
z
" transform="scale(0.015625)"/>
        <path id="DejaVuSans-36" d="M 2113 2584 
Q 1688 2584 1439 2293 
Q 1191 2003 1191 1497 
Q 1191 994 1439 701 
Q 1688 409 2113 409 
Q 2538 409 2786 701 
Q 3034 994 3034 1497 
Q 3034 2003 2786 2293 
Q 2538 2584 2113 2584 
z
M 3366 4563 
L 3366 3988 
Q 3128 4100 2886 4159 
Q 2644 4219 2406 4219 
Q 1781 4219 1451 3797 
Q 1122 3375 1075 2522 
Q 1259 2794 1537 2939 
Q 1816 3084 2150 3084 
Q 2853 3084 3261 2657 
Q 3669 2231 3669 1497 
Q 3669 778 3244 343 
Q 2819 -91 2113 -91 
Q 1303 -91 875 529 
Q 447 1150 447 2328 
Q 447 3434 972 4092 
Q 1497 4750 2381 4750 
Q 2619 4750 2861 4703 
Q 3103 4656 3366 4563 
z
" transform="scale(0.015625)"/>
       </defs>
       <use xlink:href="#DejaVuSans-32"/>
       <use xlink:href="#DejaVuSans-30" x="63.623047"/>
       <use xlink:href="#DejaVuSans-32" x="127.246094"/>
       <use xlink:href="#DejaVuSans-31" x="190.869141"/>
       <use xlink:href="#DejaVuSans-2d" x="254.492188"/>
       <use xlink:href="#DejaVuSans-30" x="290.576172"/>
       <use xlink:href="#DejaVuSans-38" x="354.199219"/>
       <use xlink:href="#DejaVuSans-2d" x="417.822266"/>
       <use xlink:href="#DejaVuSans-32" x="453.90625"/>
       <use xlink:href="#DejaVuSans-36" x="517.529297"/>
      </g>
     </g>
    </g>
    <g id="xtick_4">
     <g id="line2d_4">
      <g>
       <use xlink:href="#mf5c700e8f8" x="210.74406" y="395.28" style="stroke: #000000; stroke-width: 0.8"/>
      </g>
     </g>
     <g id="text_4">
      <!-- 2021-09-23 -->
      <g transform="translate(125.615032 495.213718) rotate(-45) scale(0.2 -0.2)">
       <defs>
        <path id="DejaVuSans-33" d="M 2597 2516 
Q 3050 2419 3304 2112 
Q 3559 1806 3559 1356 
Q 3559 666 3084 287 
Q 2609 -91 1734 -91 
Q 1441 -91 1130 -33 
Q 819 25 488 141 
L 488 750 
Q 750 597 1062 519 
Q 1375 441 1716 441 
Q 2309 441 2620 675 
Q 2931 909 2931 1356 
Q 2931 1769 2642 2001 
Q 2353 2234 1838 2234 
L 1294 2234 
L 1294 2753 
L 1863 2753 
Q 2328 2753 2575 2939 
Q 2822 3125 2822 3475 
Q 2822 3834 2567 4026 
Q 2313 4219 1838 4219 
Q 1578 4219 1281 4162 
Q 984 4106 628 3988 
L 628 4550 
Q 988 4650 1302 4700 
Q 1616 4750 1894 4750 
Q 2613 4750 3031 4423 
Q 3450 4097 3450 3541 
Q 3450 3153 3228 2886 
Q 3006 2619 2597 2516 
z
" transform="scale(0.015625)"/>
       </defs>
       <use xlink:href="#DejaVuSans-32"/>
       <use xlink:href="#DejaVuSans-30" x="63.623047"/>
       <use xlink:href="#DejaVuSans-32" x="127.246094"/>
       <use xlink:href="#DejaVuSans-31" x="190.869141"/>
       <use xlink:href="#DejaVuSans-2d" x="254.492188"/>
       <use xlink:href="#DejaVuSans-30" x="290.576172"/>
       <use xlink:href="#DejaVuSans-39" x="354.199219"/>
       <use xlink:href="#DejaVuSans-2d" x="417.822266"/>
       <use xlink:href="#DejaVuSans-32" x="453.90625"/>
       <use xlink:href="#DejaVuSans-33" x="517.529297"/>
      </g>
     </g>
    </g>
    <g id="xtick_5">
     <g id="line2d_5">
      <g>
       <use xlink:href="#mf5c700e8f8" x="246.633799" y="395.28" style="stroke: #000000; stroke-width: 0.8"/>
      </g>
     </g>
     <g id="text_5">
      <!-- 2021-10-21 -->
      <g transform="translate(161.504772 495.213718) rotate(-45) scale(0.2 -0.2)">
       <use xlink:href="#DejaVuSans-32"/>
       <use xlink:href="#DejaVuSans-30" x="63.623047"/>
       <use xlink:href="#DejaVuSans-32" x="127.246094"/>
       <use xlink:href="#DejaVuSans-31" x="190.869141"/>
       <use xlink:href="#DejaVuSans-2d" x="254.492188"/>
       <use xlink:href="#DejaVuSans-31" x="290.576172"/>
       <use xlink:href="#DejaVuSans-30" x="354.199219"/>
       <use xlink:href="#DejaVuSans-2d" x="417.822266"/>
       <use xlink:href="#DejaVuSans-32" x="453.90625"/>
       <use xlink:href="#DejaVuSans-31" x="517.529297"/>
      </g>
     </g>
    </g>
    <g id="xtick_6">
     <g id="line2d_6">
      <g>
       <use xlink:href="#mf5c700e8f8" x="282.523539" y="395.28" style="stroke: #000000; stroke-width: 0.8"/>
      </g>
     </g>
     <g id="text_6">
      <!-- 2021-11-18 -->
      <g transform="translate(197.394512 495.213718) rotate(-45) scale(0.2 -0.2)">
       <use xlink:href="#DejaVuSans-32"/>
       <use xlink:href="#DejaVuSans-30" x="63.623047"/>
       <use xlink:href="#DejaVuSans-32" x="127.246094"/>
       <use xlink:href="#DejaVuSans-31" x="190.869141"/>
       <use xlink:href="#DejaVuSans-2d" x="254.492188"/>
       <use xlink:href="#DejaVuSans-31" x="290.576172"/>
       <use xlink:href="#DejaVuSans-31" x="354.199219"/>
       <use xlink:href="#DejaVuSans-2d" x="417.822266"/>
       <use xlink:href="#DejaVuSans-31" x="453.90625"/>
       <use xlink:href="#DejaVuSans-38" x="517.529297"/>
      </g>
     </g>
    </g>
    <g id="xtick_7">
     <g id="line2d_7">
      <g>
       <use xlink:href="#mf5c700e8f8" x="318.413279" y="395.28" style="stroke: #000000; stroke-width: 0.8"/>
      </g>
     </g>
     <g id="text_7">
      <!-- 2021-12-16 -->
      <g transform="translate(233.284251 495.213718) rotate(-45) scale(0.2 -0.2)">
       <use xlink:href="#DejaVuSans-32"/>
       <use xlink:href="#DejaVuSans-30" x="63.623047"/>
       <use xlink:href="#DejaVuSans-32" x="127.246094"/>
       <use xlink:href="#DejaVuSans-31" x="190.869141"/>
       <use xlink:href="#DejaVuSans-2d" x="254.492188"/>
       <use xlink:href="#DejaVuSans-31" x="290.576172"/>
       <use xlink:href="#DejaVuSans-32" x="354.199219"/>
       <use xlink:href="#DejaVuSans-2d" x="417.822266"/>
       <use xlink:href="#DejaVuSans-31" x="453.90625"/>
       <use xlink:href="#DejaVuSans-36" x="517.529297"/>
      </g>
     </g>
    </g>
    <g id="xtick_8">
     <g id="line2d_8">
      <g>
       <use xlink:href="#mf5c700e8f8" x="354.303018" y="395.28" style="stroke: #000000; stroke-width: 0.8"/>
      </g>
     </g>
     <g id="text_8">
      <!-- 2022-01-13 -->
      <g transform="translate(269.173991 495.213718) rotate(-45) scale(0.2 -0.2)">
       <use xlink:href="#DejaVuSans-32"/>
       <use xlink:href="#DejaVuSans-30" x="63.623047"/>
       <use xlink:href="#DejaVuSans-32" x="127.246094"/>
       <use xlink:href="#DejaVuSans-32" x="190.869141"/>
       <use xlink:href="#DejaVuSans-2d" x="254.492188"/>
       <use xlink:href="#DejaVuSans-30" x="290.576172"/>
       <use xlink:href="#DejaVuSans-31" x="354.199219"/>
       <use xlink:href="#DejaVuSans-2d" x="417.822266"/>
       <use xlink:href="#DejaVuSans-31" x="453.90625"/>
       <use xlink:href="#DejaVuSans-33" x="517.529297"/>
      </g>
     </g>
    </g>
    <g id="xtick_9">
     <g id="line2d_9">
      <g>
       <use xlink:href="#mf5c700e8f8" x="390.192758" y="395.28" style="stroke: #000000; stroke-width: 0.8"/>
      </g>
     </g>
     <g id="text_9">
      <!-- 2022-02-10 -->
      <g transform="translate(305.063731 495.213718) rotate(-45) scale(0.2 -0.2)">
       <use xlink:href="#DejaVuSans-32"/>
       <use xlink:href="#DejaVuSans-30" x="63.623047"/>
       <use xlink:href="#DejaVuSans-32" x="127.246094"/>
       <use xlink:href="#DejaVuSans-32" x="190.869141"/>
       <use xlink:href="#DejaVuSans-2d" x="254.492188"/>
       <use xlink:href="#DejaVuSans-30" x="290.576172"/>
       <use xlink:href="#DejaVuSans-32" x="354.199219"/>
       <use xlink:href="#DejaVuSans-2d" x="417.822266"/>
       <use xlink:href="#DejaVuSans-31" x="453.90625"/>
       <use xlink:href="#DejaVuSans-30" x="517.529297"/>
      </g>
     </g>
    </g>
    <g id="xtick_10">
     <g id="line2d_10">
      <g>
       <use xlink:href="#mf5c700e8f8" x="426.082498" y="395.28" style="stroke: #000000; stroke-width: 0.8"/>
      </g>
     </g>
     <g id="text_10">
      <!-- 2022-03-10 -->
      <g transform="translate(340.95347 495.213718) rotate(-45) scale(0.2 -0.2)">
       <use xlink:href="#DejaVuSans-32"/>
       <use xlink:href="#DejaVuSans-30" x="63.623047"/>
       <use xlink:href="#DejaVuSans-32" x="127.246094"/>
       <use xlink:href="#DejaVuSans-32" x="190.869141"/>
       <use xlink:href="#DejaVuSans-2d" x="254.492188"/>
       <use xlink:href="#DejaVuSans-30" x="290.576172"/>
       <use xlink:href="#DejaVuSans-33" x="354.199219"/>
       <use xlink:href="#DejaVuSans-2d" x="417.822266"/>
       <use xlink:href="#DejaVuSans-31" x="453.90625"/>
       <use xlink:href="#DejaVuSans-30" x="517.529297"/>
      </g>
     </g>
    </g>
    <g id="xtick_11">
     <g id="line2d_11">
      <g>
       <use xlink:href="#mf5c700e8f8" x="461.972237" y="395.28" style="stroke: #000000; stroke-width: 0.8"/>
      </g>
     </g>
     <g id="text_11">
      <!-- 2022-04-07 -->
      <g transform="translate(376.84321 495.213718) rotate(-45) scale(0.2 -0.2)">
       <defs>
        <path id="DejaVuSans-34" d="M 2419 4116 
L 825 1625 
L 2419 1625 
L 2419 4116 
z
M 2253 4666 
L 3047 4666 
L 3047 1625 
L 3713 1625 
L 3713 1100 
L 3047 1100 
L 3047 0 
L 2419 0 
L 2419 1100 
L 313 1100 
L 313 1709 
L 2253 4666 
z
" transform="scale(0.015625)"/>
       </defs>
       <use xlink:href="#DejaVuSans-32"/>
       <use xlink:href="#DejaVuSans-30" x="63.623047"/>
       <use xlink:href="#DejaVuSans-32" x="127.246094"/>
       <use xlink:href="#DejaVuSans-32" x="190.869141"/>
       <use xlink:href="#DejaVuSans-2d" x="254.492188"/>
       <use xlink:href="#DejaVuSans-30" x="290.576172"/>
       <use xlink:href="#DejaVuSans-34" x="354.199219"/>
       <use xlink:href="#DejaVuSans-2d" x="417.822266"/>
       <use xlink:href="#DejaVuSans-30" x="453.90625"/>
       <use xlink:href="#DejaVuSans-37" x="517.529297"/>
      </g>
     </g>
    </g>
    <g id="xtick_12">
     <g id="line2d_12">
      <g>
       <use xlink:href="#mf5c700e8f8" x="497.861977" y="395.28" style="stroke: #000000; stroke-width: 0.8"/>
      </g>
     </g>
     <g id="text_12">
      <!-- 2022-05-05 -->
      <g transform="translate(412.73295 495.213718) rotate(-45) scale(0.2 -0.2)">
       <defs>
        <path id="DejaVuSans-35" d="M 691 4666 
L 3169 4666 
L 3169 4134 
L 1269 4134 
L 1269 2991 
Q 1406 3038 1543 3061 
Q 1681 3084 1819 3084 
Q 2600 3084 3056 2656 
Q 3513 2228 3513 1497 
Q 3513 744 3044 326 
Q 2575 -91 1722 -91 
Q 1428 -91 1123 -41 
Q 819 9 494 109 
L 494 744 
Q 775 591 1075 516 
Q 1375 441 1709 441 
Q 2250 441 2565 725 
Q 2881 1009 2881 1497 
Q 2881 1984 2565 2268 
Q 2250 2553 1709 2553 
Q 1456 2553 1204 2497 
Q 953 2441 691 2322 
L 691 4666 
z
" transform="scale(0.015625)"/>
       </defs>
       <use xlink:href="#DejaVuSans-32"/>
       <use xlink:href="#DejaVuSans-30" x="63.623047"/>
       <use xlink:href="#DejaVuSans-32" x="127.246094"/>
       <use xlink:href="#DejaVuSans-32" x="190.869141"/>
       <use xlink:href="#DejaVuSans-2d" x="254.492188"/>
       <use xlink:href="#DejaVuSans-30" x="290.576172"/>
       <use xlink:href="#DejaVuSans-35" x="354.199219"/>
       <use xlink:href="#DejaVuSans-2d" x="417.822266"/>
       <use xlink:href="#DejaVuSans-30" x="453.90625"/>
       <use xlink:href="#DejaVuSans-35" x="517.529297"/>
      </g>
     </g>
    </g>
    <g id="xtick_13">
     <g id="line2d_13">
      <g>
       <use xlink:href="#mf5c700e8f8" x="533.751717" y="395.28" style="stroke: #000000; stroke-width: 0.8"/>
      </g>
     </g>
     <g id="text_13">
      <!-- 2022-06-02 -->
      <g transform="translate(448.622689 495.213718) rotate(-45) scale(0.2 -0.2)">
       <use xlink:href="#DejaVuSans-32"/>
       <use xlink:href="#DejaVuSans-30" x="63.623047"/>
       <use xlink:href="#DejaVuSans-32" x="127.246094"/>
       <use xlink:href="#DejaVuSans-32" x="190.869141"/>
       <use xlink:href="#DejaVuSans-2d" x="254.492188"/>
       <use xlink:href="#DejaVuSans-30" x="290.576172"/>
       <use xlink:href="#DejaVuSans-36" x="354.199219"/>
       <use xlink:href="#DejaVuSans-2d" x="417.822266"/>
       <use xlink:href="#DejaVuSans-30" x="453.90625"/>
       <use xlink:href="#DejaVuSans-32" x="517.529297"/>
      </g>
     </g>
    </g>
    <g id="xtick_14">
     <g id="line2d_14">
      <g>
       <use xlink:href="#mf5c700e8f8" x="569.641456" y="395.28" style="stroke: #000000; stroke-width: 0.8"/>
      </g>
     </g>
     <g id="text_14">
      <!-- 2022-06-30 -->
      <g transform="translate(484.512429 495.213718) rotate(-45) scale(0.2 -0.2)">
       <use xlink:href="#DejaVuSans-32"/>
       <use xlink:href="#DejaVuSans-30" x="63.623047"/>
       <use xlink:href="#DejaVuSans-32" x="127.246094"/>
       <use xlink:href="#DejaVuSans-32" x="190.869141"/>
       <use xlink:href="#DejaVuSans-2d" x="254.492188"/>
       <use xlink:href="#DejaVuSans-30" x="290.576172"/>
       <use xlink:href="#DejaVuSans-36" x="354.199219"/>
       <use xlink:href="#DejaVuSans-2d" x="417.822266"/>
       <use xlink:href="#DejaVuSans-33" x="453.90625"/>
       <use xlink:href="#DejaVuSans-30" x="517.529297"/>
      </g>
     </g>
    </g>
    <g id="xtick_15">
     <g id="line2d_15">
      <g>
       <use xlink:href="#mf5c700e8f8" x="605.531196" y="395.28" style="stroke: #000000; stroke-width: 0.8"/>
      </g>
     </g>
     <g id="text_15">
      <!-- 2022-07-28 -->
      <g transform="translate(520.402169 495.213718) rotate(-45) scale(0.2 -0.2)">
       <use xlink:href="#DejaVuSans-32"/>
       <use xlink:href="#DejaVuSans-30" x="63.623047"/>
       <use xlink:href="#DejaVuSans-32" x="127.246094"/>
       <use xlink:href="#DejaVuSans-32" x="190.869141"/>
       <use xlink:href="#DejaVuSans-2d" x="254.492188"/>
       <use xlink:href="#DejaVuSans-30" x="290.576172"/>
       <use xlink:href="#DejaVuSans-37" x="354.199219"/>
       <use xlink:href="#DejaVuSans-2d" x="417.822266"/>
       <use xlink:href="#DejaVuSans-32" x="453.90625"/>
       <use xlink:href="#DejaVuSans-38" x="517.529297"/>
      </g>
     </g>
    </g>
    <g id="xtick_16">
     <g id="line2d_16">
      <g>
       <use xlink:href="#mf5c700e8f8" x="641.420936" y="395.28" style="stroke: #000000; stroke-width: 0.8"/>
      </g>
     </g>
     <g id="text_16">
      <!-- 2022-08-25 -->
      <g transform="translate(556.291908 495.213718) rotate(-45) scale(0.2 -0.2)">
       <use xlink:href="#DejaVuSans-32"/>
       <use xlink:href="#DejaVuSans-30" x="63.623047"/>
       <use xlink:href="#DejaVuSans-32" x="127.246094"/>
       <use xlink:href="#DejaVuSans-32" x="190.869141"/>
       <use xlink:href="#DejaVuSans-2d" x="254.492188"/>
       <use xlink:href="#DejaVuSans-30" x="290.576172"/>
       <use xlink:href="#DejaVuSans-38" x="354.199219"/>
       <use xlink:href="#DejaVuSans-2d" x="417.822266"/>
       <use xlink:href="#DejaVuSans-32" x="453.90625"/>
       <use xlink:href="#DejaVuSans-35" x="517.529297"/>
      </g>
     </g>
    </g>
    <g id="xtick_17">
     <g id="line2d_17">
      <g>
       <use xlink:href="#mf5c700e8f8" x="677.310675" y="395.28" style="stroke: #000000; stroke-width: 0.8"/>
      </g>
     </g>
     <g id="text_17">
      <!-- 2022-09-22 -->
      <g transform="translate(592.181648 495.213718) rotate(-45) scale(0.2 -0.2)">
       <use xlink:href="#DejaVuSans-32"/>
       <use xlink:href="#DejaVuSans-30" x="63.623047"/>
       <use xlink:href="#DejaVuSans-32" x="127.246094"/>
       <use xlink:href="#DejaVuSans-32" x="190.869141"/>
       <use xlink:href="#DejaVuSans-2d" x="254.492188"/>
       <use xlink:href="#DejaVuSans-30" x="290.576172"/>
       <use xlink:href="#DejaVuSans-39" x="354.199219"/>
       <use xlink:href="#DejaVuSans-2d" x="417.822266"/>
       <use xlink:href="#DejaVuSans-32" x="453.90625"/>
       <use xlink:href="#DejaVuSans-32" x="517.529297"/>
      </g>
     </g>
    </g>
    <g id="xtick_18">
     <g id="line2d_18">
      <g>
       <use xlink:href="#mf5c700e8f8" x="713.200415" y="395.28" style="stroke: #000000; stroke-width: 0.8"/>
      </g>
     </g>
     <g id="text_18">
      <!-- 2022-10-20 -->
      <g transform="translate(628.071388 495.213718) rotate(-45) scale(0.2 -0.2)">
       <use xlink:href="#DejaVuSans-32"/>
       <use xlink:href="#DejaVuSans-30" x="63.623047"/>
       <use xlink:href="#DejaVuSans-32" x="127.246094"/>
       <use xlink:href="#DejaVuSans-32" x="190.869141"/>
       <use xlink:href="#DejaVuSans-2d" x="254.492188"/>
       <use xlink:href="#DejaVuSans-31" x="290.576172"/>
       <use xlink:href="#DejaVuSans-30" x="354.199219"/>
       <use xlink:href="#DejaVuSans-2d" x="417.822266"/>
       <use xlink:href="#DejaVuSans-32" x="453.90625"/>
       <use xlink:href="#DejaVuSans-30" x="517.529297"/>
      </g>
     </g>
    </g>
    <g id="xtick_19">
     <g id="line2d_19">
      <g>
       <use xlink:href="#mf5c700e8f8" x="749.090155" y="395.28" style="stroke: #000000; stroke-width: 0.8"/>
      </g>
     </g>
     <g id="text_19">
      <!-- 2022-11-17 -->
      <g transform="translate(663.961127 495.213718) rotate(-45) scale(0.2 -0.2)">
       <use xlink:href="#DejaVuSans-32"/>
       <use xlink:href="#DejaVuSans-30" x="63.623047"/>
       <use xlink:href="#DejaVuSans-32" x="127.246094"/>
       <use xlink:href="#DejaVuSans-32" x="190.869141"/>
       <use xlink:href="#DejaVuSans-2d" x="254.492188"/>
       <use xlink:href="#DejaVuSans-31" x="290.576172"/>
       <use xlink:href="#DejaVuSans-31" x="354.199219"/>
       <use xlink:href="#DejaVuSans-2d" x="417.822266"/>
       <use xlink:href="#DejaVuSans-31" x="453.90625"/>
       <use xlink:href="#DejaVuSans-37" x="517.529297"/>
      </g>
     </g>
    </g>
    <g id="xtick_20">
     <g id="line2d_20">
      <g>
       <use xlink:href="#mf5c700e8f8" x="784.979894" y="395.28" style="stroke: #000000; stroke-width: 0.8"/>
      </g>
     </g>
     <g id="text_20">
      <!-- 2022-12-15 -->
      <g transform="translate(699.850867 495.213718) rotate(-45) scale(0.2 -0.2)">
       <use xlink:href="#DejaVuSans-32"/>
       <use xlink:href="#DejaVuSans-30" x="63.623047"/>
       <use xlink:href="#DejaVuSans-32" x="127.246094"/>
       <use xlink:href="#DejaVuSans-32" x="190.869141"/>
       <use xlink:href="#DejaVuSans-2d" x="254.492188"/>
       <use xlink:href="#DejaVuSans-31" x="290.576172"/>
       <use xlink:href="#DejaVuSans-32" x="354.199219"/>
       <use xlink:href="#DejaVuSans-2d" x="417.822266"/>
       <use xlink:href="#DejaVuSans-31" x="453.90625"/>
       <use xlink:href="#DejaVuSans-35" x="517.529297"/>
      </g>
     </g>
    </g>
    <g id="xtick_21">
     <g id="line2d_21">
      <g>
       <use xlink:href="#mf5c700e8f8" x="820.869634" y="395.28" style="stroke: #000000; stroke-width: 0.8"/>
      </g>
     </g>
     <g id="text_21">
      <!-- 2023-01-12 -->
      <g transform="translate(735.740607 495.213718) rotate(-45) scale(0.2 -0.2)">
       <use xlink:href="#DejaVuSans-32"/>
       <use xlink:href="#DejaVuSans-30" x="63.623047"/>
       <use xlink:href="#DejaVuSans-32" x="127.246094"/>
       <use xlink:href="#DejaVuSans-33" x="190.869141"/>
       <use xlink:href="#DejaVuSans-2d" x="254.492188"/>
       <use xlink:href="#DejaVuSans-30" x="290.576172"/>
       <use xlink:href="#DejaVuSans-31" x="354.199219"/>
       <use xlink:href="#DejaVuSans-2d" x="417.822266"/>
       <use xlink:href="#DejaVuSans-31" x="453.90625"/>
       <use xlink:href="#DejaVuSans-32" x="517.529297"/>
      </g>
     </g>
    </g>
    <g id="xtick_22">
     <g id="line2d_22">
      <g>
       <use xlink:href="#mf5c700e8f8" x="856.759374" y="395.28" style="stroke: #000000; stroke-width: 0.8"/>
      </g>
     </g>
     <g id="text_22">
      <!-- 2023-02-09 -->
      <g transform="translate(771.630346 495.213718) rotate(-45) scale(0.2 -0.2)">
       <use xlink:href="#DejaVuSans-32"/>
       <use xlink:href="#DejaVuSans-30" x="63.623047"/>
       <use xlink:href="#DejaVuSans-32" x="127.246094"/>
       <use xlink:href="#DejaVuSans-33" x="190.869141"/>
       <use xlink:href="#DejaVuSans-2d" x="254.492188"/>
       <use xlink:href="#DejaVuSans-30" x="290.576172"/>
       <use xlink:href="#DejaVuSans-32" x="354.199219"/>
       <use xlink:href="#DejaVuSans-2d" x="417.822266"/>
       <use xlink:href="#DejaVuSans-30" x="453.90625"/>
       <use xlink:href="#DejaVuSans-39" x="517.529297"/>
      </g>
     </g>
    </g>
    <g id="xtick_23">
     <g id="line2d_23">
      <g>
       <use xlink:href="#mf5c700e8f8" x="892.649113" y="395.28" style="stroke: #000000; stroke-width: 0.8"/>
      </g>
     </g>
     <g id="text_23">
      <!-- 2023-03-09 -->
      <g transform="translate(807.520086 495.213718) rotate(-45) scale(0.2 -0.2)">
       <use xlink:href="#DejaVuSans-32"/>
       <use xlink:href="#DejaVuSans-30" x="63.623047"/>
       <use xlink:href="#DejaVuSans-32" x="127.246094"/>
       <use xlink:href="#DejaVuSans-33" x="190.869141"/>
       <use xlink:href="#DejaVuSans-2d" x="254.492188"/>
       <use xlink:href="#DejaVuSans-30" x="290.576172"/>
       <use xlink:href="#DejaVuSans-33" x="354.199219"/>
       <use xlink:href="#DejaVuSans-2d" x="417.822266"/>
       <use xlink:href="#DejaVuSans-30" x="453.90625"/>
       <use xlink:href="#DejaVuSans-39" x="517.529297"/>
      </g>
     </g>
    </g>
    <g id="xtick_24">
     <g id="line2d_24">
      <g>
       <use xlink:href="#mf5c700e8f8" x="928.538853" y="395.28" style="stroke: #000000; stroke-width: 0.8"/>
      </g>
     </g>
     <g id="text_24">
      <!-- 2023-04-06 -->
      <g transform="translate(843.409826 495.213718) rotate(-45) scale(0.2 -0.2)">
       <use xlink:href="#DejaVuSans-32"/>
       <use xlink:href="#DejaVuSans-30" x="63.623047"/>
       <use xlink:href="#DejaVuSans-32" x="127.246094"/>
       <use xlink:href="#DejaVuSans-33" x="190.869141"/>
       <use xlink:href="#DejaVuSans-2d" x="254.492188"/>
       <use xlink:href="#DejaVuSans-30" x="290.576172"/>
       <use xlink:href="#DejaVuSans-34" x="354.199219"/>
       <use xlink:href="#DejaVuSans-2d" x="417.822266"/>
       <use xlink:href="#DejaVuSans-30" x="453.90625"/>
       <use xlink:href="#DejaVuSans-36" x="517.529297"/>
      </g>
     </g>
    </g>
    <g id="xtick_25">
     <g id="line2d_25">
      <g>
       <use xlink:href="#mf5c700e8f8" x="940.074841" y="395.28" style="stroke: #000000; stroke-width: 0.8"/>
      </g>
     </g>
     <g id="text_25">
      <!-- 2023-04-15 -->
      <g transform="translate(854.945813 495.213718) rotate(-45) scale(0.2 -0.2)">
       <use xlink:href="#DejaVuSans-32"/>
       <use xlink:href="#DejaVuSans-30" x="63.623047"/>
       <use xlink:href="#DejaVuSans-32" x="127.246094"/>
       <use xlink:href="#DejaVuSans-33" x="190.869141"/>
       <use xlink:href="#DejaVuSans-2d" x="254.492188"/>
       <use xlink:href="#DejaVuSans-30" x="290.576172"/>
       <use xlink:href="#DejaVuSans-34" x="354.199219"/>
       <use xlink:href="#DejaVuSans-2d" x="417.822266"/>
       <use xlink:href="#DejaVuSans-31" x="453.90625"/>
       <use xlink:href="#DejaVuSans-35" x="517.529297"/>
      </g>
     </g>
    </g>
   </g>
   <g id="matplotlib.axis_2">
    <g id="ytick_1">
     <g id="line2d_26">
      <defs>
       <path id="m26ce2486f6" d="M 0 0 
L -3.5 0 
" style="stroke: #000000; stroke-width: 0.8"/>
      </defs>
      <g>
       <use xlink:href="#m26ce2486f6" x="103.074841" y="388.321164" style="stroke: #000000; stroke-width: 0.8"/>
      </g>
     </g>
     <g id="text_26">
      <!-- 0.05 -->
      <g transform="translate(34.784216 395.919601) scale(0.2 -0.2)">
       <defs>
        <path id="DejaVuSans-2212" d="M 678 2272 
L 4684 2272 
L 4684 1741 
L 678 1741 
L 678 2272 
z
" transform="scale(0.015625)"/>
        <path id="DejaVuSans-2e" d="M 684 794 
L 1344 794 
L 1344 0 
L 684 0 
L 684 794 
z
" transform="scale(0.015625)"/>
       </defs>
       <use xlink:href="#DejaVuSans-2212"/>
       <use xlink:href="#DejaVuSans-30" x="83.789062"/>
       <use xlink:href="#DejaVuSans-2e" x="147.412109"/>
       <use xlink:href="#DejaVuSans-30" x="179.199219"/>
       <use xlink:href="#DejaVuSans-35" x="242.822266"/>
      </g>
     </g>
    </g>
    <g id="ytick_2">
     <g id="line2d_27">
      <g>
       <use xlink:href="#m26ce2486f6" x="103.074841" y="318.732799" style="stroke: #000000; stroke-width: 0.8"/>
      </g>
     </g>
     <g id="text_27">
      <!-- 0.00 -->
      <g transform="translate(51.543591 326.331237) scale(0.2 -0.2)">
       <use xlink:href="#DejaVuSans-30"/>
       <use xlink:href="#DejaVuSans-2e" x="63.623047"/>
       <use xlink:href="#DejaVuSans-30" x="95.410156"/>
       <use xlink:href="#DejaVuSans-30" x="159.033203"/>
      </g>
     </g>
    </g>
    <g id="ytick_3">
     <g id="line2d_28">
      <g>
       <use xlink:href="#m26ce2486f6" x="103.074841" y="249.144435" style="stroke: #000000; stroke-width: 0.8"/>
      </g>
     </g>
     <g id="text_28">
      <!-- 0.05 -->
      <g transform="translate(51.543591 256.742872) scale(0.2 -0.2)">
       <use xlink:href="#DejaVuSans-30"/>
       <use xlink:href="#DejaVuSans-2e" x="63.623047"/>
       <use xlink:href="#DejaVuSans-30" x="95.410156"/>
       <use xlink:href="#DejaVuSans-35" x="159.033203"/>
      </g>
     </g>
    </g>
    <g id="ytick_4">
     <g id="line2d_29">
      <g>
       <use xlink:href="#m26ce2486f6" x="103.074841" y="179.55607" style="stroke: #000000; stroke-width: 0.8"/>
      </g>
     </g>
     <g id="text_29">
      <!-- 0.10 -->
      <g transform="translate(51.543591 187.154508) scale(0.2 -0.2)">
       <use xlink:href="#DejaVuSans-30"/>
       <use xlink:href="#DejaVuSans-2e" x="63.623047"/>
       <use xlink:href="#DejaVuSans-31" x="95.410156"/>
       <use xlink:href="#DejaVuSans-30" x="159.033203"/>
      </g>
     </g>
    </g>
    <g id="ytick_5">
     <g id="line2d_30">
      <g>
       <use xlink:href="#m26ce2486f6" x="103.074841" y="109.967706" style="stroke: #000000; stroke-width: 0.8"/>
      </g>
     </g>
     <g id="text_30">
      <!-- 0.15 -->
      <g transform="translate(51.543591 117.566143) scale(0.2 -0.2)">
       <use xlink:href="#DejaVuSans-30"/>
       <use xlink:href="#DejaVuSans-2e" x="63.623047"/>
       <use xlink:href="#DejaVuSans-31" x="95.410156"/>
       <use xlink:href="#DejaVuSans-35" x="159.033203"/>
      </g>
     </g>
    </g>
    <g id="ytick_6">
     <g id="line2d_31">
      <g>
       <use xlink:href="#m26ce2486f6" x="103.074841" y="40.379342" style="stroke: #000000; stroke-width: 0.8"/>
      </g>
     </g>
     <g id="text_31">
      <!-- 0.20 -->
      <g transform="translate(51.543591 47.977779) scale(0.2 -0.2)">
       <use xlink:href="#DejaVuSans-30"/>
       <use xlink:href="#DejaVuSans-2e" x="63.623047"/>
       <use xlink:href="#DejaVuSans-32" x="95.410156"/>
       <use xlink:href="#DejaVuSans-30" x="159.033203"/>
      </g>
     </g>
    </g>
    <g id="text_32">
     <!-- Relative fitness $\gamma_y$ -->
     <g transform="translate(24.584216 291.84) rotate(-90) scale(0.2 -0.2)">
      <defs>
       <path id="DejaVuSans-52" d="M 2841 2188 
Q 3044 2119 3236 1894 
Q 3428 1669 3622 1275 
L 4263 0 
L 3584 0 
L 2988 1197 
Q 2756 1666 2539 1819 
Q 2322 1972 1947 1972 
L 1259 1972 
L 1259 0 
L 628 0 
L 628 4666 
L 2053 4666 
Q 2853 4666 3247 4331 
Q 3641 3997 3641 3322 
Q 3641 2881 3436 2590 
Q 3231 2300 2841 2188 
z
M 1259 4147 
L 1259 2491 
L 2053 2491 
Q 2509 2491 2742 2702 
Q 2975 2913 2975 3322 
Q 2975 3731 2742 3939 
Q 2509 4147 2053 4147 
L 1259 4147 
z
" transform="scale(0.015625)"/>
       <path id="DejaVuSans-65" d="M 3597 1894 
L 3597 1613 
L 953 1613 
Q 991 1019 1311 708 
Q 1631 397 2203 397 
Q 2534 397 2845 478 
Q 3156 559 3463 722 
L 3463 178 
Q 3153 47 2828 -22 
Q 2503 -91 2169 -91 
Q 1331 -91 842 396 
Q 353 884 353 1716 
Q 353 2575 817 3079 
Q 1281 3584 2069 3584 
Q 2775 3584 3186 3129 
Q 3597 2675 3597 1894 
z
M 3022 2063 
Q 3016 2534 2758 2815 
Q 2500 3097 2075 3097 
Q 1594 3097 1305 2825 
Q 1016 2553 972 2059 
L 3022 2063 
z
" transform="scale(0.015625)"/>
       <path id="DejaVuSans-6c" d="M 603 4863 
L 1178 4863 
L 1178 0 
L 603 0 
L 603 4863 
z
" transform="scale(0.015625)"/>
       <path id="DejaVuSans-61" d="M 2194 1759 
Q 1497 1759 1228 1600 
Q 959 1441 959 1056 
Q 959 750 1161 570 
Q 1363 391 1709 391 
Q 2188 391 2477 730 
Q 2766 1069 2766 1631 
L 2766 1759 
L 2194 1759 
z
M 3341 1997 
L 3341 0 
L 2766 0 
L 2766 531 
Q 2569 213 2275 61 
Q 1981 -91 1556 -91 
Q 1019 -91 701 211 
Q 384 513 384 1019 
Q 384 1609 779 1909 
Q 1175 2209 1959 2209 
L 2766 2209 
L 2766 2266 
Q 2766 2663 2505 2880 
Q 2244 3097 1772 3097 
Q 1472 3097 1187 3025 
Q 903 2953 641 2809 
L 641 3341 
Q 956 3463 1253 3523 
Q 1550 3584 1831 3584 
Q 2591 3584 2966 3190 
Q 3341 2797 3341 1997 
z
" transform="scale(0.015625)"/>
       <path id="DejaVuSans-74" d="M 1172 4494 
L 1172 3500 
L 2356 3500 
L 2356 3053 
L 1172 3053 
L 1172 1153 
Q 1172 725 1289 603 
Q 1406 481 1766 481 
L 2356 481 
L 2356 0 
L 1766 0 
Q 1100 0 847 248 
Q 594 497 594 1153 
L 594 3053 
L 172 3053 
L 172 3500 
L 594 3500 
L 594 4494 
L 1172 4494 
z
" transform="scale(0.015625)"/>
       <path id="DejaVuSans-69" d="M 603 3500 
L 1178 3500 
L 1178 0 
L 603 0 
L 603 3500 
z
M 603 4863 
L 1178 4863 
L 1178 4134 
L 603 4134 
L 603 4863 
z
" transform="scale(0.015625)"/>
       <path id="DejaVuSans-76" d="M 191 3500 
L 800 3500 
L 1894 563 
L 2988 3500 
L 3597 3500 
L 2284 0 
L 1503 0 
L 191 3500 
z
" transform="scale(0.015625)"/>
       <path id="DejaVuSans-20" transform="scale(0.015625)"/>
       <path id="DejaVuSans-66" d="M 2375 4863 
L 2375 4384 
L 1825 4384 
Q 1516 4384 1395 4259 
Q 1275 4134 1275 3809 
L 1275 3500 
L 2222 3500 
L 2222 3053 
L 1275 3053 
L 1275 0 
L 697 0 
L 697 3053 
L 147 3053 
L 147 3500 
L 697 3500 
L 697 3744 
Q 697 4328 969 4595 
Q 1241 4863 1831 4863 
L 2375 4863 
z
" transform="scale(0.015625)"/>
       <path id="DejaVuSans-6e" d="M 3513 2113 
L 3513 0 
L 2938 0 
L 2938 2094 
Q 2938 2591 2744 2837 
Q 2550 3084 2163 3084 
Q 1697 3084 1428 2787 
Q 1159 2491 1159 1978 
L 1159 0 
L 581 0 
L 581 3500 
L 1159 3500 
L 1159 2956 
Q 1366 3272 1645 3428 
Q 1925 3584 2291 3584 
Q 2894 3584 3203 3211 
Q 3513 2838 3513 2113 
z
" transform="scale(0.015625)"/>
       <path id="DejaVuSans-73" d="M 2834 3397 
L 2834 2853 
Q 2591 2978 2328 3040 
Q 2066 3103 1784 3103 
Q 1356 3103 1142 2972 
Q 928 2841 928 2578 
Q 928 2378 1081 2264 
Q 1234 2150 1697 2047 
L 1894 2003 
Q 2506 1872 2764 1633 
Q 3022 1394 3022 966 
Q 3022 478 2636 193 
Q 2250 -91 1575 -91 
Q 1294 -91 989 -36 
Q 684 19 347 128 
L 347 722 
Q 666 556 975 473 
Q 1284 391 1588 391 
Q 1994 391 2212 530 
Q 2431 669 2431 922 
Q 2431 1156 2273 1281 
Q 2116 1406 1581 1522 
L 1381 1569 
Q 847 1681 609 1914 
Q 372 2147 372 2553 
Q 372 3047 722 3315 
Q 1072 3584 1716 3584 
Q 2034 3584 2315 3537 
Q 2597 3491 2834 3397 
z
" transform="scale(0.015625)"/>
       <path id="DejaVuSans-Oblique-3b3" d="M 1491 2950 
L 1838 788 
L 3456 3500 
L 4066 3500 
L 1972 0 
L 1713 -1331 
L 1138 -1331 
L 1397 0 
L 988 2613 
Q 925 3006 628 3006 
L 475 3006 
L 569 3500 
L 788 3500 
Q 1403 3500 1491 2950 
z
" transform="scale(0.015625)"/>
       <path id="DejaVuSans-Oblique-79" d="M 1588 -325 
Q 1188 -997 936 -1164 
Q 684 -1331 294 -1331 
L -159 -1331 
L -63 -850 
L 269 -850 
Q 509 -850 678 -719 
Q 847 -588 1056 -206 
L 1234 128 
L 459 3500 
L 1069 3500 
L 1650 819 
L 3256 3500 
L 3859 3500 
L 1588 -325 
z
" transform="scale(0.015625)"/>
      </defs>
      <use xlink:href="#DejaVuSans-52" transform="translate(0 0.015625)"/>
      <use xlink:href="#DejaVuSans-65" transform="translate(69.482422 0.015625)"/>
      <use xlink:href="#DejaVuSans-6c" transform="translate(131.005859 0.015625)"/>
      <use xlink:href="#DejaVuSans-61" transform="translate(158.789062 0.015625)"/>
      <use xlink:href="#DejaVuSans-74" transform="translate(220.068359 0.015625)"/>
      <use xlink:href="#DejaVuSans-69" transform="translate(259.277344 0.015625)"/>
      <use xlink:href="#DejaVuSans-76" transform="translate(287.060547 0.015625)"/>
      <use xlink:href="#DejaVuSans-65" transform="translate(346.240234 0.015625)"/>
      <use xlink:href="#DejaVuSans-20" transform="translate(407.763672 0.015625)"/>
      <use xlink:href="#DejaVuSans-66" transform="translate(439.550781 0.015625)"/>
      <use xlink:href="#DejaVuSans-69" transform="translate(474.755859 0.015625)"/>
      <use xlink:href="#DejaVuSans-74" transform="translate(502.539062 0.015625)"/>
      <use xlink:href="#DejaVuSans-6e" transform="translate(541.748047 0.015625)"/>
      <use xlink:href="#DejaVuSans-65" transform="translate(605.126953 0.015625)"/>
      <use xlink:href="#DejaVuSans-73" transform="translate(666.650391 0.015625)"/>
      <use xlink:href="#DejaVuSans-73" transform="translate(718.75 0.015625)"/>
      <use xlink:href="#DejaVuSans-20" transform="translate(770.849609 0.015625)"/>
      <use xlink:href="#DejaVuSans-Oblique-3b3" transform="translate(802.636719 0.015625)"/>
      <use xlink:href="#DejaVuSans-Oblique-79" transform="translate(861.816406 -16.390625) scale(0.7)"/>
     </g>
    </g>
   </g>
   <g id="line2d_32">
    <path d="M 103.074841 318.732799 
L 1041.965466 318.732799 
" clip-path="url(#pb5d8d8a4b2)" style="fill: none; stroke-dasharray: 7.4,3.2; stroke-dashoffset: 0; stroke: #000000; stroke-width: 2"/>
   </g>
   <g id="patch_3">
    <path d="M 103.074841 395.28 
L 103.074841 7.2 
" style="fill: none; stroke: #000000; stroke-width: 0.8; stroke-linejoin: miter; stroke-linecap: square"/>
   </g>
   <g id="patch_4">
    <path d="M 940.074841 395.28 
L 940.074841 7.2 
" style="fill: none; stroke: #000000; stroke-width: 0.8; stroke-linejoin: miter; stroke-linecap: square"/>
   </g>
   <g id="patch_5">
    <path d="M 103.074841 395.28 
L 940.074841 395.28 
" style="fill: none; stroke: #000000; stroke-width: 0.8; stroke-linejoin: miter; stroke-linecap: square"/>
   </g>
   <g id="patch_6">
    <path d="M 103.074841 7.2 
L 940.074841 7.2 
" style="fill: none; stroke: #000000; stroke-width: 0.8; stroke-linejoin: miter; stroke-linecap: square"/>
   </g>
  </g>
  <g id="axes_2">
   <g id="matplotlib.axis_3">
    <g id="ytick_7">
     <g id="line2d_33">
      <defs>
       <path id="m6363fa873e" d="M 0 0 
L 3.5 0 
" style="stroke: #000000; stroke-width: 0.8"/>
      </defs>
      <g>
       <use xlink:href="#m6363fa873e" x="940.074841" y="388.321164" style="stroke: #000000; stroke-width: 0.8"/>
      </g>
     </g>
     <g id="text_33">
      <!-- 0.05 -->
      <g transform="translate(947.074841 395.919601) scale(0.2 -0.2)">
       <use xlink:href="#DejaVuSans-2212"/>
       <use xlink:href="#DejaVuSans-30" x="83.789062"/>
       <use xlink:href="#DejaVuSans-2e" x="147.412109"/>
       <use xlink:href="#DejaVuSans-30" x="179.199219"/>
       <use xlink:href="#DejaVuSans-35" x="242.822266"/>
      </g>
     </g>
    </g>
    <g id="ytick_8">
     <g id="line2d_34">
      <g>
       <use xlink:href="#m6363fa873e" x="940.074841" y="318.732799" style="stroke: #000000; stroke-width: 0.8"/>
      </g>
     </g>
     <g id="text_34">
      <!-- 0.00 -->
      <g transform="translate(947.074841 326.331237) scale(0.2 -0.2)">
       <use xlink:href="#DejaVuSans-30"/>
       <use xlink:href="#DejaVuSans-2e" x="63.623047"/>
       <use xlink:href="#DejaVuSans-30" x="95.410156"/>
       <use xlink:href="#DejaVuSans-30" x="159.033203"/>
      </g>
     </g>
    </g>
    <g id="ytick_9">
     <g id="line2d_35">
      <g>
       <use xlink:href="#m6363fa873e" x="940.074841" y="249.144435" style="stroke: #000000; stroke-width: 0.8"/>
      </g>
     </g>
     <g id="text_35">
      <!-- 0.05 -->
      <g transform="translate(947.074841 256.742872) scale(0.2 -0.2)">
       <use xlink:href="#DejaVuSans-30"/>
       <use xlink:href="#DejaVuSans-2e" x="63.623047"/>
       <use xlink:href="#DejaVuSans-30" x="95.410156"/>
       <use xlink:href="#DejaVuSans-35" x="159.033203"/>
      </g>
     </g>
    </g>
    <g id="ytick_10">
     <g id="line2d_36">
      <g>
       <use xlink:href="#m6363fa873e" x="940.074841" y="179.55607" style="stroke: #000000; stroke-width: 0.8"/>
      </g>
     </g>
     <g id="text_36">
      <!-- 0.10 -->
      <g transform="translate(947.074841 187.154508) scale(0.2 -0.2)">
       <use xlink:href="#DejaVuSans-30"/>
       <use xlink:href="#DejaVuSans-2e" x="63.623047"/>
       <use xlink:href="#DejaVuSans-31" x="95.410156"/>
       <use xlink:href="#DejaVuSans-30" x="159.033203"/>
      </g>
     </g>
    </g>
    <g id="ytick_11">
     <g id="line2d_37">
      <g>
       <use xlink:href="#m6363fa873e" x="940.074841" y="109.967706" style="stroke: #000000; stroke-width: 0.8"/>
      </g>
     </g>
     <g id="text_37">
      <!-- 0.15 -->
      <g transform="translate(947.074841 117.566143) scale(0.2 -0.2)">
       <use xlink:href="#DejaVuSans-30"/>
       <use xlink:href="#DejaVuSans-2e" x="63.623047"/>
       <use xlink:href="#DejaVuSans-31" x="95.410156"/>
       <use xlink:href="#DejaVuSans-35" x="159.033203"/>
      </g>
     </g>
    </g>
    <g id="ytick_12">
     <g id="line2d_38">
      <g>
       <use xlink:href="#m6363fa873e" x="940.074841" y="40.379342" style="stroke: #000000; stroke-width: 0.8"/>
      </g>
     </g>
     <g id="text_38">
      <!-- 0.20 -->
      <g transform="translate(947.074841 47.977779) scale(0.2 -0.2)">
       <use xlink:href="#DejaVuSans-30"/>
       <use xlink:href="#DejaVuSans-2e" x="63.623047"/>
       <use xlink:href="#DejaVuSans-32" x="95.410156"/>
       <use xlink:href="#DejaVuSans-30" x="159.033203"/>
      </g>
     </g>
    </g>
    <g id="text_39">
     <!-- Change in proportion $\gamma_{prop}$ -->
     <g transform="translate(1027.565466 332.74) rotate(-90) scale(0.2 -0.2)">
      <defs>
       <path id="DejaVuSans-43" d="M 4122 4306 
L 4122 3641 
Q 3803 3938 3442 4084 
Q 3081 4231 2675 4231 
Q 1875 4231 1450 3742 
Q 1025 3253 1025 2328 
Q 1025 1406 1450 917 
Q 1875 428 2675 428 
Q 3081 428 3442 575 
Q 3803 722 4122 1019 
L 4122 359 
Q 3791 134 3420 21 
Q 3050 -91 2638 -91 
Q 1578 -91 968 557 
Q 359 1206 359 2328 
Q 359 3453 968 4101 
Q 1578 4750 2638 4750 
Q 3056 4750 3426 4639 
Q 3797 4528 4122 4306 
z
" transform="scale(0.015625)"/>
       <path id="DejaVuSans-68" d="M 3513 2113 
L 3513 0 
L 2938 0 
L 2938 2094 
Q 2938 2591 2744 2837 
Q 2550 3084 2163 3084 
Q 1697 3084 1428 2787 
Q 1159 2491 1159 1978 
L 1159 0 
L 581 0 
L 581 4863 
L 1159 4863 
L 1159 2956 
Q 1366 3272 1645 3428 
Q 1925 3584 2291 3584 
Q 2894 3584 3203 3211 
Q 3513 2838 3513 2113 
z
" transform="scale(0.015625)"/>
       <path id="DejaVuSans-67" d="M 2906 1791 
Q 2906 2416 2648 2759 
Q 2391 3103 1925 3103 
Q 1463 3103 1205 2759 
Q 947 2416 947 1791 
Q 947 1169 1205 825 
Q 1463 481 1925 481 
Q 2391 481 2648 825 
Q 2906 1169 2906 1791 
z
M 3481 434 
Q 3481 -459 3084 -895 
Q 2688 -1331 1869 -1331 
Q 1566 -1331 1297 -1286 
Q 1028 -1241 775 -1147 
L 775 -588 
Q 1028 -725 1275 -790 
Q 1522 -856 1778 -856 
Q 2344 -856 2625 -561 
Q 2906 -266 2906 331 
L 2906 616 
Q 2728 306 2450 153 
Q 2172 0 1784 0 
Q 1141 0 747 490 
Q 353 981 353 1791 
Q 353 2603 747 3093 
Q 1141 3584 1784 3584 
Q 2172 3584 2450 3431 
Q 2728 3278 2906 2969 
L 2906 3500 
L 3481 3500 
L 3481 434 
z
" transform="scale(0.015625)"/>
       <path id="DejaVuSans-70" d="M 1159 525 
L 1159 -1331 
L 581 -1331 
L 581 3500 
L 1159 3500 
L 1159 2969 
Q 1341 3281 1617 3432 
Q 1894 3584 2278 3584 
Q 2916 3584 3314 3078 
Q 3713 2572 3713 1747 
Q 3713 922 3314 415 
Q 2916 -91 2278 -91 
Q 1894 -91 1617 61 
Q 1341 213 1159 525 
z
M 3116 1747 
Q 3116 2381 2855 2742 
Q 2594 3103 2138 3103 
Q 1681 3103 1420 2742 
Q 1159 2381 1159 1747 
Q 1159 1113 1420 752 
Q 1681 391 2138 391 
Q 2594 391 2855 752 
Q 3116 1113 3116 1747 
z
" transform="scale(0.015625)"/>
       <path id="DejaVuSans-72" d="M 2631 2963 
Q 2534 3019 2420 3045 
Q 2306 3072 2169 3072 
Q 1681 3072 1420 2755 
Q 1159 2438 1159 1844 
L 1159 0 
L 581 0 
L 581 3500 
L 1159 3500 
L 1159 2956 
Q 1341 3275 1631 3429 
Q 1922 3584 2338 3584 
Q 2397 3584 2469 3576 
Q 2541 3569 2628 3553 
L 2631 2963 
z
" transform="scale(0.015625)"/>
       <path id="DejaVuSans-6f" d="M 1959 3097 
Q 1497 3097 1228 2736 
Q 959 2375 959 1747 
Q 959 1119 1226 758 
Q 1494 397 1959 397 
Q 2419 397 2687 759 
Q 2956 1122 2956 1747 
Q 2956 2369 2687 2733 
Q 2419 3097 1959 3097 
z
M 1959 3584 
Q 2709 3584 3137 3096 
Q 3566 2609 3566 1747 
Q 3566 888 3137 398 
Q 2709 -91 1959 -91 
Q 1206 -91 779 398 
Q 353 888 353 1747 
Q 353 2609 779 3096 
Q 1206 3584 1959 3584 
z
" transform="scale(0.015625)"/>
       <path id="DejaVuSans-Oblique-70" d="M 3175 2156 
Q 3175 2616 2975 2859 
Q 2775 3103 2400 3103 
Q 2144 3103 1911 2972 
Q 1678 2841 1497 2591 
Q 1319 2344 1212 1994 
Q 1106 1644 1106 1300 
Q 1106 863 1306 627 
Q 1506 391 1875 391 
Q 2147 391 2380 519 
Q 2613 647 2778 891 
Q 2956 1147 3065 1494 
Q 3175 1841 3175 2156 
z
M 1394 2969 
Q 1625 3272 1939 3428 
Q 2253 3584 2638 3584 
Q 3175 3584 3472 3232 
Q 3769 2881 3769 2247 
Q 3769 1728 3584 1258 
Q 3400 788 3053 416 
Q 2822 169 2531 39 
Q 2241 -91 1919 -91 
Q 1547 -91 1294 64 
Q 1041 219 916 525 
L 556 -1331 
L -19 -1331 
L 922 3500 
L 1497 3500 
L 1394 2969 
z
" transform="scale(0.015625)"/>
       <path id="DejaVuSans-Oblique-72" d="M 2853 2969 
Q 2766 3016 2653 3041 
Q 2541 3066 2413 3066 
Q 1953 3066 1609 2717 
Q 1266 2369 1153 1784 
L 800 0 
L 225 0 
L 909 3500 
L 1484 3500 
L 1375 2956 
Q 1603 3259 1920 3421 
Q 2238 3584 2597 3584 
Q 2691 3584 2781 3573 
Q 2872 3563 2963 3538 
L 2853 2969 
z
" transform="scale(0.015625)"/>
       <path id="DejaVuSans-Oblique-6f" d="M 1625 -91 
Q 1009 -91 651 289 
Q 294 669 294 1325 
Q 294 1706 417 2101 
Q 541 2497 738 2766 
Q 1047 3184 1428 3384 
Q 1809 3584 2291 3584 
Q 2888 3584 3255 3212 
Q 3622 2841 3622 2241 
Q 3622 1825 3500 1412 
Q 3378 1000 3181 728 
Q 2875 309 2494 109 
Q 2113 -91 1625 -91 
z
M 891 1344 
Q 891 869 1089 633 
Q 1288 397 1691 397 
Q 2269 397 2648 901 
Q 3028 1406 3028 2181 
Q 3028 2634 2825 2865 
Q 2622 3097 2228 3097 
Q 1903 3097 1650 2945 
Q 1397 2794 1197 2484 
Q 1050 2253 970 1956 
Q 891 1659 891 1344 
z
" transform="scale(0.015625)"/>
      </defs>
      <use xlink:href="#DejaVuSans-43" transform="translate(0 0.015625)"/>
      <use xlink:href="#DejaVuSans-68" transform="translate(69.824219 0.015625)"/>
      <use xlink:href="#DejaVuSans-61" transform="translate(133.203125 0.015625)"/>
      <use xlink:href="#DejaVuSans-6e" transform="translate(194.482422 0.015625)"/>
      <use xlink:href="#DejaVuSans-67" transform="translate(257.861328 0.015625)"/>
      <use xlink:href="#DejaVuSans-65" transform="translate(321.337891 0.015625)"/>
      <use xlink:href="#DejaVuSans-20" transform="translate(382.861328 0.015625)"/>
      <use xlink:href="#DejaVuSans-69" transform="translate(414.648438 0.015625)"/>
      <use xlink:href="#DejaVuSans-6e" transform="translate(442.431641 0.015625)"/>
      <use xlink:href="#DejaVuSans-20" transform="translate(505.810547 0.015625)"/>
      <use xlink:href="#DejaVuSans-70" transform="translate(537.597656 0.015625)"/>
      <use xlink:href="#DejaVuSans-72" transform="translate(601.074219 0.015625)"/>
      <use xlink:href="#DejaVuSans-6f" transform="translate(642.1875 0.015625)"/>
      <use xlink:href="#DejaVuSans-70" transform="translate(703.369141 0.015625)"/>
      <use xlink:href="#DejaVuSans-6f" transform="translate(766.845703 0.015625)"/>
      <use xlink:href="#DejaVuSans-72" transform="translate(828.027344 0.015625)"/>
      <use xlink:href="#DejaVuSans-74" transform="translate(869.140625 0.015625)"/>
      <use xlink:href="#DejaVuSans-69" transform="translate(908.349609 0.015625)"/>
      <use xlink:href="#DejaVuSans-6f" transform="translate(936.132812 0.015625)"/>
      <use xlink:href="#DejaVuSans-6e" transform="translate(997.314453 0.015625)"/>
      <use xlink:href="#DejaVuSans-20" transform="translate(1060.693359 0.015625)"/>
      <use xlink:href="#DejaVuSans-Oblique-3b3" transform="translate(1092.480469 0.015625)"/>
      <use xlink:href="#DejaVuSans-Oblique-70" transform="translate(1151.660156 -16.390625) scale(0.7)"/>
      <use xlink:href="#DejaVuSans-Oblique-72" transform="translate(1196.09375 -16.390625) scale(0.7)"/>
      <use xlink:href="#DejaVuSans-Oblique-6f" transform="translate(1224.873047 -16.390625) scale(0.7)"/>
      <use xlink:href="#DejaVuSans-Oblique-70" transform="translate(1267.700195 -16.390625) scale(0.7)"/>
     </g>
    </g>
   </g>
   <g id="line2d_39">
    <path d="M 940.074841 318.732799 
" clip-path="url(#pb5d8d8a4b2)" style="fill: none; stroke: #ffa500; stroke-width: 1.5; stroke-linecap: square"/>
   </g>
   <g id="patch_7">
    <path d="M 103.074841 395.28 
L 103.074841 7.2 
" style="fill: none; stroke: #000000; stroke-width: 0.8; stroke-linejoin: miter; stroke-linecap: square"/>
   </g>
   <g id="patch_8">
    <path d="M 940.074841 395.28 
L 940.074841 7.2 
" style="fill: none; stroke: #000000; stroke-width: 0.8; stroke-linejoin: miter; stroke-linecap: square"/>
   </g>
   <g id="patch_9">
    <path d="M 103.074841 395.28 
L 940.074841 395.28 
" style="fill: none; stroke: #000000; stroke-width: 0.8; stroke-linejoin: miter; stroke-linecap: square"/>
   </g>
   <g id="patch_10">
    <path d="M 103.074841 7.2 
L 940.074841 7.2 
" style="fill: none; stroke: #000000; stroke-width: 0.8; stroke-linejoin: miter; stroke-linecap: square"/>
   </g>
  </g>
 </g>
 <defs>
  <clipPath id="pb5d8d8a4b2">
   <rect x="103.074841" y="7.2" width="837" height="388.08"/>
  </clipPath>
 </defs>
</svg>
