<?xml version="1.0" encoding="utf-8" standalone="no"?>
<!DOCTYPE svg PUBLIC "-//W3C//DTD SVG 1.1//EN"
  "http://www.w3.org/Graphics/SVG/1.1/DTD/svg11.dtd">
<svg xmlns:xlink="http://www.w3.org/1999/xlink" width="947.274841pt" height="505.354841pt" viewBox="0 0 947.274841 505.354841" xmlns="http://www.w3.org/2000/svg" version="1.1">
 <metadata>
  <rdf:RDF xmlns:dc="http://purl.org/dc/elements/1.1/" xmlns:cc="http://creativecommons.org/ns#" xmlns:rdf="http://www.w3.org/1999/02/22-rdf-syntax-ns#">
   <cc:Work>
    <dc:type rdf:resource="http://purl.org/dc/dcmitype/StillImage"/>
    <dc:date>2023-11-12T22:44:09.326907</dc:date>
    <dc:format>image/svg+xml</dc:format>
    <dc:creator>
     <cc:Agent>
      <dc:title>Matplotlib v3.7.2, https://matplotlib.org/</dc:title>
     </cc:Agent>
    </dc:creator>
   </cc:Work>
  </rdf:RDF>
 </metadata>
 <defs>
  <style type="text/css">*{stroke-linejoin: round; stroke-linecap: butt}</style>
 </defs>
 <g id="figure_1">
  <g id="patch_1">
   <path d="M 0 505.354841 
L 947.274841 505.354841 
L 947.274841 -0 
L 0 -0 
z
" style="fill: #ffffff"/>
  </g>
  <g id="axes_1">
   <g id="patch_2">
    <path d="M 103.074841 395.28 
L 940.074841 395.28 
L 940.074841 7.2 
L 103.074841 7.2 
z
" style="fill: #ffffff"/>
   </g>
   <g id="PolyCollection_1">
    <path d="M -4315.31939 355.662388 
L -4315.31939 355.686638 
L -4307.271313 355.569734 
L -4299.223236 355.467307 
L -4291.175159 355.337342 
L -4283.127082 355.248633 
L -4275.079005 355.136219 
L -4267.030929 355.009052 
L -4258.982852 354.892477 
L -4250.934775 354.782207 
L -4242.886698 354.683997 
L -4234.838621 354.571882 
L -4226.790544 354.454686 
L -4218.742467 354.340309 
L -4210.69439 354.202139 
L -4202.646313 354.085667 
L -4194.598236 353.950301 
L -4186.550159 353.832569 
L -4178.502082 353.677313 
L -4170.454005 353.547406 
L -4162.405929 353.421646 
L -4154.357852 353.274893 
L -4146.309775 353.131276 
L -4138.261698 352.990324 
L -4130.213621 352.822521 
L -4122.165544 352.673731 
L -4114.117467 352.501402 
L -4106.06939 352.326664 
L -4098.021313 352.134337 
L -4089.973236 351.936484 
L -4081.925159 351.741955 
L -4073.877082 351.518576 
L -4065.829005 351.267217 
L -4057.780929 351.041247 
L -4049.732852 350.786002 
L -4041.684775 350.496123 
L -4033.636698 350.223879 
L -4025.588621 349.907128 
L -4017.540544 349.584498 
L -4009.492467 349.251586 
L -4001.44439 348.90005 
L -3993.396313 348.511744 
L -3985.348236 348.098567 
L -3977.300159 347.660893 
L -3969.252082 347.236432 
L -3961.204005 346.741754 
L -3953.155929 346.268134 
L -3945.107852 345.764381 
L -3937.059775 345.257296 
L -3929.011698 344.712869 
L -3920.963621 344.125216 
L -3912.915544 343.576844 
L -3904.867467 342.969673 
L -3896.81939 342.341521 
L -3888.771313 341.724007 
L -3880.723236 341.111352 
L -3872.675159 340.449551 
L -3864.627082 339.780212 
L -3856.579005 339.111192 
L -3848.530929 338.415416 
L -3840.482852 337.710948 
L -3832.434775 337.007703 
L -3824.386698 336.281623 
L -3816.338621 335.553391 
L -3808.290544 334.834854 
L -3800.242467 334.088284 
L -3792.19439 333.292802 
L -3784.146313 332.519973 
L -3776.098236 331.748485 
L -3768.050159 330.988008 
L -3760.002082 330.198366 
L -3751.954005 329.425746 
L -3743.905929 328.64078 
L -3735.857852 327.926992 
L -3727.809775 327.096326 
L -3719.761698 326.369611 
L -3711.713621 325.579041 
L -3703.665544 324.827145 
L -3695.617467 324.047981 
L -3687.56939 323.343585 
L -3679.521313 322.543193 
L -3671.473236 321.790666 
L -3663.425159 321.086916 
L -3655.377082 320.326226 
L -3647.329005 319.603467 
L -3639.280929 318.854725 
L -3631.232852 318.097383 
L -3623.184775 317.367608 
L -3615.136698 316.651274 
L -3607.088621 315.885379 
L -3599.040544 315.156268 
L -3590.992467 314.411366 
L -3582.94439 313.677972 
L -3574.896313 312.960865 
L -3566.848236 312.225929 
L -3558.800159 311.484609 
L -3550.752082 310.81183 
L -3542.704005 310.057834 
L -3534.655929 309.333516 
L -3526.607852 308.6206 
L -3518.559775 307.907299 
L -3510.511698 307.196019 
L -3502.463621 306.476678 
L -3494.415544 305.788406 
L -3486.367467 305.075122 
L -3478.31939 304.345876 
L -3470.271313 303.609328 
L -3462.223236 302.865582 
L -3454.175159 302.165879 
L -3446.127082 301.401653 
L -3438.079005 300.590467 
L -3430.030929 299.825043 
L -3421.982852 299.020757 
L -3413.934775 298.204573 
L -3405.886698 297.345648 
L -3397.838621 296.47175 
L -3389.790544 295.654903 
L -3381.742467 294.731017 
L -3373.69439 293.849267 
L -3365.646313 292.904169 
L -3357.598236 292.030291 
L -3349.550159 291.013158 
L -3341.502082 290.013943 
L -3333.454005 289.040167 
L -3325.405929 288.049663 
L -3317.357852 287.029755 
L -3309.309775 285.966032 
L -3301.261698 284.963862 
L -3293.213621 283.825072 
L -3285.165544 282.814185 
L -3277.117467 281.642101 
L -3269.06939 280.503112 
L -3261.021313 279.388067 
L -3252.973236 278.314391 
L -3244.925159 277.072735 
L -3236.877082 275.942512 
L -3228.829005 274.525123 
L -3220.780929 273.293548 
L -3212.732852 272.138848 
L -3204.684775 270.843615 
L -3196.636698 269.515314 
L -3188.588621 267.996411 
L -3180.540544 266.564954 
L -3172.492467 265.353024 
L -3164.44439 263.487025 
L -3156.396313 261.966227 
L -3148.348236 260.411058 
L -3140.300159 258.797891 
L -3132.252082 256.972087 
L -3124.204005 255.244366 
L -3116.155929 253.906653 
L -3108.107852 252.230743 
L -3100.059775 249.556741 
L -3092.011698 247.282206 
L -3083.963621 245.730152 
L -3075.915544 243.583349 
L -3067.867467 242.030381 
L -3059.81939 240.593768 
L -3051.771313 238.579845 
L -3043.723236 235.823321 
L -3035.675159 234.153454 
L -3027.627082 233.234545 
L -3019.579005 231.195602 
L -3011.530929 230.450819 
L -3003.482852 229.126731 
L -2995.434775 226.694968 
L -2987.386698 226.758698 
L -2979.338621 227.58801 
L -2971.290544 229.477472 
L -2963.242467 227.12551 
L -2955.19439 231.47846 
L -2947.146313 232.374946 
L -2939.098236 226.288578 
L -2931.050159 227.900896 
L -2923.002082 230.477538 
L -2914.954005 228.838043 
L -2906.905929 228.449086 
L -2898.857852 239.785808 
L -2890.809775 255.938578 
L -2882.761698 263.965411 
L -2874.713621 246.354466 
L -2866.665544 255.371737 
L -2858.617467 267.19851 
L -2850.56939 266.505528 
L -2842.521313 290.600774 
L -2834.473236 287.325997 
L -2826.425159 279.974114 
L -2818.377082 261.734622 
L -2810.329005 278.921722 
L -2802.280929 289.270469 
L -2794.232852 284.987884 
L -2786.184775 287.712651 
L -2778.136698 297.49083 
L -2770.088621 296.234733 
L -2762.040544 287.880524 
L -2753.992467 298.474366 
L -2745.94439 300.613494 
L -2737.896313 296.894769 
L -2729.848236 303.640669 
L -2721.800159 306.13984 
L -2713.752082 305.530838 
L -2705.704005 303.552627 
L -2697.655929 305.8067 
L -2689.607852 303.614818 
L -2681.559775 303.865208 
L -2673.511698 306.016147 
L -2665.463621 304.097354 
L -2657.415544 305.17518 
L -2649.367467 305.284087 
L -2641.31939 303.743587 
L -2633.271313 304.383565 
L -2625.223236 302.138747 
L -2617.175159 302.344775 
L -2609.127082 303.032194 
L -2601.079005 303.116685 
L -2593.030929 302.043022 
L -2584.982852 301.131054 
L -2576.934775 300.930499 
L -2568.886698 299.913345 
L -2560.838621 299.784837 
L -2552.790544 299.61842 
L -2544.742467 298.045657 
L -2536.69439 298.827947 
L -2528.646313 297.791006 
L -2520.598236 297.351069 
L -2512.550159 297.395415 
L -2504.502082 296.3701 
L -2496.454005 296.12012 
L -2488.405929 296.47275 
L -2480.357852 297.039213 
L -2472.309775 295.33458 
L -2464.261698 295.03068 
L -2456.213621 294.455689 
L -2448.165544 297.356557 
L -2440.117467 297.383514 
L -2432.06939 298.461687 
L -2424.021313 295.605786 
L -2415.973236 293.82558 
L -2407.925159 294.314014 
L -2399.877082 296.178475 
L -2391.829005 296.420537 
L -2383.780929 292.945706 
L -2375.732852 295.717551 
L -2367.684775 294.895745 
L -2359.636698 294.311201 
L -2351.588621 292.62785 
L -2343.540544 293.774976 
L -2335.492467 292.877803 
L -2327.44439 293.444532 
L -2319.396313 292.265175 
L -2311.348236 291.290558 
L -2303.300159 289.664031 
L -2295.252082 288.785829 
L -2287.204005 287.961432 
L -2279.155929 286.892469 
L -2271.107852 286.489661 
L -2263.059775 285.462678 
L -2255.011698 284.364291 
L -2246.963621 281.843916 
L -2238.915544 279.867948 
L -2230.867467 278.839001 
L -2222.81939 276.692312 
L -2214.771313 276.051168 
L -2206.723236 274.115526 
L -2198.675159 271.391111 
L -2190.627082 269.070193 
L -2182.579005 267.23886 
L -2174.530929 264.418429 
L -2166.482852 262.568313 
L -2158.434775 260.01028 
L -2150.386698 257.711364 
L -2142.338621 254.894309 
L -2134.290544 252.519136 
L -2126.242467 249.392838 
L -2118.19439 246.863447 
L -2110.146313 244.136188 
L -2102.098236 240.610494 
L -2094.050159 237.298996 
L -2086.002082 234.803773 
L -2077.954005 231.851999 
L -2069.905929 228.45189 
L -2061.857852 225.721199 
L -2053.809775 222.460027 
L -2045.761698 217.898507 
L -2037.713621 215.734247 
L -2029.665544 211.804603 
L -2021.617467 208.653931 
L -2013.56939 205.10891 
L -2005.521313 201.416683 
L -1997.473236 197.675776 
L -1989.425159 194.228801 
L -1981.377082 189.688772 
L -1973.329005 186.742374 
L -1965.280929 182.293453 
L -1957.232852 179.292679 
L -1949.184775 174.738175 
L -1941.136698 170.328116 
L -1933.088621 166.354713 
L -1925.040544 163.169471 
L -1916.992467 158.159159 
L -1908.94439 154.648735 
L -1900.896313 150.141284 
L -1892.848236 146.398399 
L -1884.800159 141.663823 
L -1876.752082 137.46456 
L -1868.704005 136.531413 
L -1860.655929 128.720456 
L -1852.607852 127.180838 
L -1844.559775 122.442656 
L -1836.511698 119.060781 
L -1828.463621 115.139537 
L -1820.415544 110.981116 
L -1812.367467 107.184954 
L -1804.31939 103.506217 
L -1796.271313 100.021093 
L -1788.223236 96.521194 
L -1780.175159 98.440599 
L -1772.127082 88.967391 
L -1764.079005 86.282517 
L -1756.030929 93.254898 
L -1747.982852 81.925687 
L -1739.934775 83.31894 
L -1731.886698 81.701694 
L -1723.838621 75.618589 
L -1715.790544 76.18743 
L -1707.742467 81.315478 
L -1699.69439 76.886615 
L -1691.646313 74.663034 
L -1683.598236 77.756325 
L -1675.550159 76.135739 
L -1667.502082 78.178595 
L -1659.454005 81.075342 
L -1651.405929 86.258093 
L -1643.357852 98.677007 
L -1635.309775 95.503821 
L -1627.261698 102.136218 
L -1619.213621 107.598306 
L -1611.165544 110.436947 
L -1603.117467 118.70769 
L -1595.06939 125.227427 
L -1587.021313 114.662773 
L -1578.973236 126.280188 
L -1570.925159 140.627162 
L -1562.877082 147.618474 
L -1554.829005 150.893583 
L -1546.780929 169.861326 
L -1538.732852 171.524151 
L -1530.684775 176.800331 
L -1522.636698 175.566945 
L -1514.588621 191.597744 
L -1506.540544 186.820408 
L -1498.492467 184.169744 
L -1490.44439 197.878331 
L -1482.396313 207.653051 
L -1474.348236 206.946795 
L -1466.300159 212.802823 
L -1458.252082 214.796562 
L -1450.204005 215.276363 
L -1442.155929 215.403563 
L -1434.107852 218.701725 
L -1426.059775 220.618421 
L -1418.011698 230.600924 
L -1409.963621 225.674 
L -1401.915544 234.376428 
L -1393.867467 232.562533 
L -1385.81939 231.521097 
L -1377.771313 235.109658 
L -1369.723236 238.317685 
L -1361.675159 234.507882 
L -1353.627082 236.54329 
L -1345.579005 236.770349 
L -1337.530929 241.524631 
L -1329.482852 239.311948 
L -1321.434775 238.320471 
L -1313.386698 239.731288 
L -1305.338621 242.034488 
L -1297.290544 240.987816 
L -1289.242467 238.807164 
L -1281.19439 240.091618 
L -1273.146313 236.737624 
L -1265.098236 237.109916 
L -1257.050159 242.668153 
L -1249.002082 242.3281 
L -1240.954005 239.166212 
L -1232.905929 238.354917 
L -1224.857852 238.66851 
L -1216.809775 235.226843 
L -1208.761698 235.975748 
L -1200.713621 235.88555 
L -1192.665544 235.084016 
L -1184.617467 234.082484 
L -1176.56939 231.901031 
L -1168.521313 233.039388 
L -1160.473236 231.537117 
L -1152.425159 231.129856 
L -1144.377082 230.283918 
L -1136.329005 230.275191 
L -1128.280929 228.578724 
L -1120.232852 225.587006 
L -1112.184775 225.364863 
L -1104.136698 222.919571 
L -1096.088621 219.435779 
L -1088.040544 221.854122 
L -1079.992467 217.145085 
L -1071.94439 219.018439 
L -1063.896313 218.075191 
L -1055.848236 218.349413 
L -1047.800159 215.32015 
L -1039.752082 215.061145 
L -1031.704005 214.593837 
L -1023.655929 210.851967 
L -1015.607852 211.743928 
L -1007.559775 211.384956 
L -999.511698 211.204622 
L -991.463621 209.413001 
L -983.415544 210.211812 
L -975.367467 208.373675 
L -967.31939 206.624716 
L -959.271313 203.877802 
L -951.223236 202.991349 
L -943.175159 202.402705 
L -935.127082 200.490854 
L -927.079005 200.767157 
L -919.030929 199.834181 
L -910.982852 198.13975 
L -902.934775 198.205316 
L -894.886698 196.287679 
L -886.838621 197.887742 
L -878.790544 196.55722 
L -870.742467 196.629854 
L -862.69439 194.2539 
L -854.646313 191.007329 
L -846.598236 193.787478 
L -838.550159 193.70806 
L -830.502082 192.662321 
L -822.454005 191.578907 
L -814.405929 189.326502 
L -806.357852 188.83161 
L -798.309775 187.604697 
L -790.261698 187.811725 
L -782.213621 187.360862 
L -774.165544 185.220133 
L -766.117467 182.173808 
L -758.06939 186.173386 
L -750.021313 185.244716 
L -741.973236 182.664205 
L -733.925159 184.340172 
L -725.877082 179.708385 
L -717.829005 180.298539 
L -709.780929 180.616509 
L -701.732852 177.485041 
L -693.684775 182.875598 
L -685.636698 177.517308 
L -677.588621 174.810681 
L -669.540544 178.35165 
L -661.492467 179.337226 
L -653.44439 177.659073 
L -645.396313 179.062511 
L -637.348236 176.632768 
L -629.300159 181.48981 
L -621.252082 179.098637 
L -613.204005 180.146276 
L -605.155929 176.926253 
L -597.107852 174.050543 
L -589.059775 177.856928 
L -581.011698 184.629849 
L -572.963621 177.05505 
L -564.915544 177.549 
L -556.867467 174.762207 
L -548.81939 176.175371 
L -540.771313 175.862454 
L -532.723236 174.162792 
L -524.675159 173.565418 
L -516.627082 176.88913 
L -508.579005 175.244523 
L -500.530929 178.280739 
L -492.482852 178.889942 
L -484.434775 170.270645 
L -476.386698 173.899067 
L -468.338621 174.253045 
L -460.290544 174.907768 
L -452.242467 175.488623 
L -444.19439 181.081961 
L -436.146313 183.332498 
L -428.098236 183.112108 
L -420.050159 189.254896 
L -412.002082 199.40735 
L -403.954005 187.364999 
L -395.905929 187.24604 
L -387.857852 187.515291 
L -379.809775 191.541071 
L -371.761698 192.469593 
L -363.713621 192.45139 
L -355.665544 201.183979 
L -347.617467 204.405031 
L -339.56939 194.49185 
L -331.521313 203.473699 
L -323.473236 199.049148 
L -315.425159 196.302388 
L -307.377082 207.230557 
L -299.329005 205.073941 
L -291.280929 212.140064 
L -283.232852 210.016925 
L -275.184775 205.286402 
L -267.136698 209.742525 
L -259.088621 209.793646 
L -251.040544 214.182704 
L -242.992467 211.504869 
L -234.94439 218.71249 
L -226.896313 213.626908 
L -218.848236 217.463025 
L -210.800159 216.75601 
L -202.752082 220.972262 
L -194.704005 214.319612 
L -186.655929 221.557694 
L -178.607852 221.214278 
L -170.559775 226.172817 
L -162.511698 228.812736 
L -154.463621 228.87814 
L -146.415544 227.671202 
L -138.367467 230.879609 
L -130.31939 233.284845 
L -122.271313 231.239642 
L -114.223236 230.498775 
L -106.175159 233.313716 
L -98.127082 235.868529 
L -90.079005 231.547313 
L -82.030929 229.0611 
L -73.982852 239.061713 
L -65.934775 243.602728 
L -57.886698 233.425936 
L -49.838621 236.450753 
L -41.790544 237.978756 
L -33.742467 238.727539 
L -25.69439 243.85944 
L -17.646313 243.203164 
L -9.598236 241.116344 
L -1.550159 243.337901 
L 6.497918 243.938872 
L 14.545995 238.432191 
L 22.594071 241.201668 
L 30.642148 239.471536 
L 38.690225 247.05493 
L 46.738302 256.401176 
L 54.786379 255.031895 
L 62.834456 247.576812 
L 70.882533 246.755086 
L 78.93061 247.757572 
L 86.978687 248.087143 
L 95.026764 255.004877 
L 103.074841 246.157254 
L 111.122918 255.451537 
L 119.170995 262.917599 
L 127.219071 256.650307 
L 135.267148 266.248216 
L 143.315225 260.218135 
L 151.363302 265.452836 
L 159.411379 262.001792 
L 167.459456 264.574582 
L 175.507533 269.748723 
L 183.55561 269.416391 
L 191.603687 271.013424 
L 199.651764 271.457218 
L 207.699841 272.049742 
L 215.747918 259.545467 
L 223.795995 275.825771 
L 231.844071 282.559894 
L 239.892148 276.172962 
L 247.940225 282.141031 
L 255.988302 283.55347 
L 264.036379 280.302733 
L 272.084456 287.064255 
L 280.132533 291.681186 
L 288.18061 289.212818 
L 296.228687 291.105258 
L 304.276764 292.265446 
L 312.324841 294.044636 
L 320.372918 299.290508 
L 328.420995 289.226032 
L 336.469071 302.278772 
L 344.517148 302.893931 
L 352.565225 303.725473 
L 360.613302 296.055578 
L 368.661379 306.025799 
L 376.709456 312.794336 
L 384.757533 306.598139 
L 392.80561 307.71567 
L 400.853687 317.134135 
L 408.901764 301.80723 
L 416.949841 316.871264 
L 424.997918 308.098107 
L 433.045995 321.392857 
L 441.094071 315.882942 
L 449.142148 321.933446 
L 457.190225 324.205749 
L 465.238302 327.171301 
L 473.286379 328.461467 
L 481.334456 325.586534 
L 489.382533 326.247821 
L 497.43061 328.582619 
L 505.478687 335.002804 
L 513.526764 334.871695 
L 521.574841 335.355741 
L 529.622918 339.555664 
L 537.670995 340.389888 
L 545.719071 338.121333 
L 553.767148 339.03625 
L 561.815225 345.032501 
L 569.863302 346.418343 
L 577.911379 348.307463 
L 585.959456 344.595224 
L 594.007533 338.598999 
L 602.05561 346.259835 
L 610.103687 344.579006 
L 618.151764 346.985501 
L 626.199841 350.554883 
L 634.247918 347.031306 
L 642.295995 352.705652 
L 650.344071 349.260163 
L 658.392148 349.125639 
L 666.440225 349.228076 
L 674.488302 354.130026 
L 682.536379 353.544669 
L 690.584456 353.214194 
L 698.632533 350.203383 
L 706.68061 352.184192 
L 714.728687 354.187085 
L 722.776764 352.562184 
L 730.824841 359.237781 
L 738.872918 355.551393 
L 746.920995 360.204883 
L 754.969071 369.354917 
L 763.017148 369.187237 
L 771.065225 362.216649 
L 779.113302 363.486337 
L 787.161379 363.070049 
L 795.209456 367.814223 
L 803.257533 368.797996 
L 811.30561 357.004202 
L 819.353687 368.087157 
L 827.401764 347.552389 
L 835.449841 369.892566 
L 843.497918 375.053682 
L 851.545995 367.121054 
L 859.594071 358.766373 
L 867.642148 377.64 
L 875.690225 370.530825 
L 883.738302 357.492104 
L 891.786379 367.268328 
L 899.834456 368.432741 
L 907.882533 365.539976 
L 915.93061 374.849154 
L 923.978687 369.485621 
L 932.026764 373.843623 
L 940.074841 377.267547 
L 940.074841 355.600488 
L 940.074841 355.600488 
L 932.026764 360.102332 
L 923.978687 357.115479 
L 915.93061 359.198897 
L 907.882533 355.218448 
L 899.834456 356.523814 
L 891.786379 354.597194 
L 883.738302 355.22634 
L 875.690225 359.195137 
L 867.642148 359.508279 
L 859.594071 355.899354 
L 851.545995 356.525235 
L 843.497918 360.825101 
L 835.449841 357.351032 
L 827.401764 307.579463 
L 819.353687 357.942031 
L 811.30561 355.691169 
L 803.257533 357.991872 
L 795.209456 357.754988 
L 787.161379 356.378158 
L 779.113302 357.50888 
L 771.065225 357.033598 
L 763.017148 358.804601 
L 754.969071 358.869193 
L 746.920995 356.923399 
L 738.872918 353.694698 
L 730.824841 355.697665 
L 722.776764 350.317514 
L 714.728687 352.983343 
L 706.68061 348.616388 
L 698.632533 342.082949 
L 690.584456 350.831132 
L 682.536379 351.644358 
L 674.488302 351.714969 
L 666.440225 341.443115 
L 658.392148 339.11789 
L 650.344071 338.599588 
L 642.295995 350.439919 
L 634.247918 333.795485 
L 626.199841 345.069434 
L 618.151764 335.106475 
L 610.103687 327.568686 
L 602.05561 333.497362 
L 594.007533 306.468292 
L 585.959456 330.203165 
L 577.911379 339.803587 
L 569.863302 334.662376 
L 561.815225 332.057746 
L 553.767148 310.305493 
L 545.719071 310.731761 
L 537.670995 318.08955 
L 529.622918 317.256446 
L 521.574841 305.008474 
L 513.526764 305.316147 
L 505.478687 303.988293 
L 497.43061 292.049524 
L 489.382533 281.71434 
L 481.334456 279.263291 
L 473.286379 287.905623 
L 465.238302 285.107642 
L 457.190225 279.70217 
L 449.142148 274.157649 
L 441.094071 256.618127 
L 433.045995 273.787572 
L 424.997918 228.829287 
L 416.949841 259.02943 
L 408.901764 216.236944 
L 400.853687 262.362152 
L 392.80561 236.678309 
L 384.757533 236.090425 
L 376.709456 249.179534 
L 368.661379 233.572786 
L 360.613302 205.177332 
L 352.565225 225.859814 
L 344.517148 225.370791 
L 336.469071 224.442086 
L 328.420995 191.322295 
L 320.372918 207.686807 
L 312.324841 203.70847 
L 304.276764 201.379711 
L 296.228687 197.70724 
L 288.18061 190.768321 
L 280.132533 197.525361 
L 272.084456 185.28044 
L 264.036379 170.009017 
L 255.988302 182.576753 
L 247.940225 172.522667 
L 239.892148 163.569547 
L 231.844071 178.094674 
L 223.795995 162.22281 
L 215.747918 121.497574 
L 207.699841 151.153084 
L 199.651764 149.934903 
L 191.603687 149.970598 
L 183.55561 146.31675 
L 175.507533 146.439462 
L 167.459456 135.306407 
L 159.411379 130.708008 
L 151.363302 139.215942 
L 143.315225 123.05746 
L 135.267148 139.511241 
L 127.219071 117.096162 
L 119.170995 129.925607 
L 111.122918 114.978905 
L 103.074841 96.464293 
L 95.026764 113.373597 
L 86.978687 97.166163 
L 78.93061 98.240157 
L 70.882533 97.483134 
L 62.834456 99.011729 
L 54.786379 114.267487 
L 46.738302 117.863143 
L 38.690225 99.447752 
L 30.642148 80.579036 
L 22.594071 85.791097 
L 14.545995 81.932904 
L 6.497918 93.688185 
L -1.550159 92.39864 
L -9.598236 87.584898 
L -17.646313 93.6707 
L -25.69439 93.124004 
L -33.742467 83.487189 
L -41.790544 84.581679 
L -49.838621 80.814208 
L -57.886698 76.192929 
L -65.934775 97.766168 
L -73.982852 85.552096 
L -82.030929 68.834821 
L -90.079005 76.779766 
L -98.127082 83.878085 
L -106.175159 79.116438 
L -114.223236 75.442779 
L -122.271313 78.23754 
L -130.31939 85.738785 
L -138.367467 77.527686 
L -146.415544 74.489688 
L -154.463621 77.80165 
L -162.511698 72.650748 
L -170.559775 74.270921 
L -178.607852 63.929421 
L -186.655929 67.652766 
L -194.704005 55.043338 
L -202.752082 65.865761 
L -210.800159 60.749545 
L -218.848236 63.760557 
L -226.896313 60.307833 
L -234.94439 66.926772 
L -242.992467 55.641213 
L -251.040544 62.753947 
L -259.088621 55.649636 
L -267.136698 57.051686 
L -275.184775 51.500467 
L -283.232852 54.495495 
L -291.280929 62.585616 
L -299.329005 54.880212 
L -307.377082 56.846124 
L -315.425159 41.625736 
L -323.473236 48.783633 
L -331.521313 52.466784 
L -339.56939 40.779471 
L -347.617467 54.041524 
L -355.665544 55.181875 
L -363.713621 40.378314 
L -371.761698 40.772028 
L -379.809775 39.856752 
L -387.857852 34.619441 
L -395.905929 38.473746 
L -403.954005 37.275907 
L -412.002082 54.973455 
L -420.050159 43.03153 
L -428.098236 34.260506 
L -436.146313 34.669842 
L -444.19439 32.225184 
L -452.242467 27.007209 
L -460.290544 29.116682 
L -468.338621 25.665194 
L -476.386698 29.939966 
L -484.434775 24.84 
L -492.482852 35.053186 
L -500.530929 36.578562 
L -508.579005 34.444571 
L -516.627082 36.850875 
L -524.675159 33.191454 
L -532.723236 36.331355 
L -540.771313 38.217876 
L -548.81939 43.076472 
L -556.867467 39.433233 
L -564.915544 44.84771 
L -572.963621 43.922002 
L -581.011698 53.907057 
L -589.059775 47.371385 
L -597.107852 43.937525 
L -605.155929 48.263589 
L -613.204005 50.27732 
L -621.252082 50.520703 
L -629.300159 56.326291 
L -637.348236 51.464598 
L -645.396313 55.383686 
L -653.44439 53.603951 
L -661.492467 54.581899 
L -669.540544 52.983527 
L -677.588621 50.613987 
L -685.636698 55.25241 
L -693.684775 61.410097 
L -701.732852 55.206928 
L -709.780929 58.813454 
L -717.829005 57.284994 
L -725.877082 59.353722 
L -733.925159 64.104674 
L -741.973236 62.518229 
L -750.021313 66.36912 
L -758.06939 67.397086 
L -766.117467 63.088935 
L -774.165544 65.641842 
L -782.213621 68.483116 
L -790.261698 69.508961 
L -798.309775 69.390365 
L -806.357852 71.401923 
L -814.405929 71.074913 
L -822.454005 74.057882 
L -830.502082 74.876781 
L -838.550159 75.535594 
L -846.598236 76.189176 
L -854.646313 70.831963 
L -862.69439 76.700366 
L -870.742467 79.028572 
L -878.790544 78.327892 
L -886.838621 78.478246 
L -894.886698 78.471168 
L -902.934775 80.141835 
L -910.982852 79.521395 
L -919.030929 82.048047 
L -927.079005 82.88609 
L -935.127082 82.19668 
L -943.175159 83.067131 
L -951.223236 84.268754 
L -959.271313 85.513567 
L -967.31939 89.918567 
L -975.367467 90.883311 
L -983.415544 92.968498 
L -991.463621 91.761714 
L -999.511698 93.76391 
L -1007.559775 93.864695 
L -1015.607852 94.406958 
L -1023.655929 92.007518 
L -1031.704005 98.254115 
L -1039.752082 98.705534 
L -1047.800159 99.023281 
L -1055.848236 102.737771 
L -1063.896313 102.371768 
L -1071.94439 103.861543 
L -1079.992467 101.831587 
L -1088.040544 106.98644 
L -1096.088621 105.341021 
L -1104.136698 110.311406 
L -1112.184775 113.818678 
L -1120.232852 114.768175 
L -1128.280929 119.198051 
L -1136.329005 122.642042 
L -1144.377082 122.423622 
L -1152.425159 124.505596 
L -1160.473236 125.037632 
L -1168.521313 127.797574 
L -1176.56939 126.890741 
L -1184.617467 130.771371 
L -1192.665544 133.652775 
L -1200.713621 135.327461 
L -1208.761698 136.293437 
L -1216.809775 137.045765 
L -1224.857852 141.255658 
L -1232.905929 142.194567 
L -1240.954005 144.772742 
L -1249.002082 148.607266 
L -1257.050159 149.787905 
L -1265.098236 146.235849 
L -1273.146313 147.242684 
L -1281.19439 151.463257 
L -1289.242467 151.908041 
L -1297.290544 154.797105 
L -1305.338621 156.872617 
L -1313.386698 155.678737 
L -1321.434775 156.935454 
L -1329.482852 158.524285 
L -1337.530929 161.414495 
L -1345.579005 158.113398 
L -1353.627082 159.492181 
L -1361.675159 159.467062 
L -1369.723236 163.602838 
L -1377.771313 163.054578 
L -1385.81939 160.709313 
L -1393.867467 162.896856 
L -1401.915544 165.152314 
L -1409.963621 159.12477 
L -1418.011698 164.622575 
L -1426.059775 157.551444 
L -1434.107852 157.241158 
L -1442.155929 155.834354 
L -1450.204005 157.523631 
L -1458.252082 158.035813 
L -1466.300159 157.207964 
L -1474.348236 153.874892 
L -1482.396313 156.52683 
L -1490.44439 148.686128 
L -1498.492467 140.966524 
L -1506.540544 143.02225 
L -1514.588621 147.282688 
L -1522.636698 136.872591 
L -1530.684775 137.392066 
L -1538.732852 134.66978 
L -1546.780929 133.953397 
L -1554.829005 118.909186 
L -1562.877082 117.710836 
L -1570.925159 112.235355 
L -1578.973236 100.456739 
L -1587.021313 92.083378 
L -1595.06939 101.396163 
L -1603.117467 97.185952 
L -1611.165544 89.862711 
L -1619.213621 86.69663 
L -1627.261698 81.388739 
L -1635.309775 74.470916 
L -1643.357852 78.141005 
L -1651.405929 64.945516 
L -1659.454005 60.224415 
L -1667.502082 57.085644 
L -1675.550159 55.231096 
L -1683.598236 56.878101 
L -1691.646313 53.76438 
L -1699.69439 56.144549 
L -1707.742467 60.994656 
L -1715.790544 56.321297 
L -1723.838621 55.788434 
L -1731.886698 62.314539 
L -1739.934775 64.098196 
L -1747.982852 63.07952 
L -1756.030929 74.50304 
L -1764.079005 68.111279 
L -1772.127082 70.720944 
L -1780.175159 80.802184 
L -1788.223236 78.974247 
L -1796.271313 82.783957 
L -1804.31939 86.470045 
L -1812.367467 89.939025 
L -1820.415544 93.731665 
L -1828.463621 97.712457 
L -1836.511698 101.578524 
L -1844.559775 104.909671 
L -1852.607852 109.394454 
L -1860.655929 110.784135 
L -1868.704005 118.373803 
L -1876.752082 118.979175 
L -1884.800159 123.038752 
L -1892.848236 127.511115 
L -1900.896313 130.997534 
L -1908.94439 135.249592 
L -1916.992467 138.659354 
L -1925.040544 143.44893 
L -1933.088621 146.48374 
L -1941.136698 150.10559 
L -1949.184775 154.284378 
L -1957.232852 158.532839 
L -1965.280929 161.261847 
L -1973.329005 165.366904 
L -1981.377082 168.275178 
L -1989.425159 172.476038 
L -1997.473236 175.80403 
L -2005.521313 179.109771 
L -2013.56939 182.728401 
L -2021.617467 185.969582 
L -2029.665544 188.769487 
L -2037.713621 192.299426 
L -2045.761698 194.246767 
L -2053.809775 198.51992 
L -2061.857852 201.499803 
L -2069.905929 204.157128 
L -2077.954005 207.332928 
L -2086.002082 209.386344 
L -2094.050159 212.229078 
L -2102.098236 215.135545 
L -2110.146313 218.300645 
L -2118.19439 220.7806 
L -2126.242467 223.219218 
L -2134.290544 225.851546 
L -2142.338621 228.38673 
L -2150.386698 231.094709 
L -2158.434775 233.300062 
L -2166.482852 235.67405 
L -2174.530929 237.649659 
L -2182.579005 240.295882 
L -2190.627082 242.262412 
L -2198.675159 244.456481 
L -2206.723236 247.13542 
L -2214.771313 249.043031 
L -2222.81939 249.72391 
L -2230.867467 251.936206 
L -2238.915544 253.145775 
L -2246.963621 255.274684 
L -2255.011698 257.721693 
L -2263.059775 259.047901 
L -2271.107852 260.289355 
L -2279.155929 260.635193 
L -2287.204005 261.913092 
L -2295.252082 262.714409 
L -2303.300159 263.56546 
L -2311.348236 265.303907 
L -2319.396313 266.349824 
L -2327.44439 267.806943 
L -2335.492467 267.097953 
L -2343.540544 267.920019 
L -2351.588621 266.753509 
L -2359.636698 268.711771 
L -2367.684775 269.047544 
L -2375.732852 270.484184 
L -2383.780929 267.549987 
L -2391.829005 271.176465 
L -2399.877082 270.918219 
L -2407.925159 268.881696 
L -2415.973236 268.379614 
L -2424.021313 270.252872 
L -2432.06939 273.475926 
L -2440.117467 272.241011 
L -2448.165544 272.17849 
L -2456.213621 268.9443 
L -2464.261698 268.895702 
L -2472.309775 269.81236 
L -2480.357852 271.768018 
L -2488.405929 271.101381 
L -2496.454005 270.664682 
L -2504.502082 270.944418 
L -2512.550159 272.11841 
L -2520.598236 271.79864 
L -2528.646313 272.524326 
L -2536.69439 273.755627 
L -2544.742467 272.808992 
L -2552.790544 274.609321 
L -2560.838621 274.842151 
L -2568.886698 275.011252 
L -2576.934775 276.126706 
L -2584.982852 276.365555 
L -2593.030929 277.606706 
L -2601.079005 278.967669 
L -2609.127082 278.932361 
L -2617.175159 278.302682 
L -2625.223236 277.834705 
L -2633.271313 280.779988 
L -2641.31939 280.204847 
L -2649.367467 282.167396 
L -2657.415544 282.151865 
L -2665.463621 281.326604 
L -2673.511698 283.272069 
L -2681.559775 281.365933 
L -2689.607852 281.412486 
L -2697.655929 283.901327 
L -2705.704005 282.034104 
L -2713.752082 284.387302 
L -2721.800159 285.116628 
L -2729.848236 283.06042 
L -2737.896313 276.602295 
L -2745.94439 280.680793 
L -2753.992467 278.686848 
L -2762.040544 269.106583 
L -2770.088621 277.232083 
L -2778.136698 278.887413 
L -2786.184775 270.035627 
L -2794.232852 267.606236 
L -2802.280929 272.338767 
L -2810.329005 262.753345 
L -2818.377082 246.429038 
L -2826.425159 264.488506 
L -2834.473236 271.801632 
L -2842.521313 275.438189 
L -2850.56939 252.632145 
L -2858.617467 253.627631 
L -2866.665544 242.222921 
L -2874.713621 233.34602 
L -2882.761698 251.492464 
L -2890.809775 243.807852 
L -2898.857852 227.811873 
L -2906.905929 216.512813 
L -2914.954005 217.337439 
L -2923.002082 219.438819 
L -2931.050159 217.13826 
L -2939.098236 215.849616 
L -2947.146313 222.528823 
L -2955.19439 221.887675 
L -2963.242467 217.749405 
L -2971.290544 220.513121 
L -2979.338621 218.913086 
L -2987.386698 218.40578 
L -2995.434775 218.740086 
L -3003.482852 221.469367 
L -3011.530929 223.169225 
L -3019.579005 224.221014 
L -3027.627082 226.627634 
L -3035.675159 227.854003 
L -3043.723236 229.813706 
L -3051.771313 232.808306 
L -3059.81939 235.221028 
L -3067.867467 236.891831 
L -3075.915544 238.746148 
L -3083.963621 241.123114 
L -3092.011698 242.690622 
L -3100.059775 244.970463 
L -3108.107852 247.701087 
L -3116.155929 249.371546 
L -3124.204005 250.547668 
L -3132.252082 252.259164 
L -3140.300159 254.02344 
L -3148.348236 255.634785 
L -3156.396313 257.177026 
L -3164.44439 258.667009 
L -3172.492467 260.655569 
L -3180.540544 261.745471 
L -3188.588621 263.207866 
L -3196.636698 264.739118 
L -3204.684775 266.058234 
L -3212.732852 267.358923 
L -3220.780929 268.46249 
L -3228.829005 269.657843 
L -3236.877082 271.193545 
L -3244.925159 272.302322 
L -3252.973236 273.575906 
L -3261.021313 274.601477 
L -3269.06939 275.740168 
L -3277.117467 276.906329 
L -3285.165544 278.091878 
L -3293.213621 279.094631 
L -3301.261698 280.267168 
L -3309.309775 281.29717 
L -3317.357852 282.398319 
L -3325.405929 283.42975 
L -3333.454005 284.467488 
L -3341.502082 285.435238 
L -3349.550159 286.463157 
L -3357.598236 287.558463 
L -3365.646313 288.414293 
L -3373.69439 289.451383 
L -3381.742467 290.360871 
L -3389.790544 291.393464 
L -3397.838621 292.180743 
L -3405.886698 293.142922 
L -3413.934775 294.047551 
L -3421.982852 294.909271 
L -3430.030929 295.785526 
L -3438.079005 296.597099 
L -3446.127082 297.540627 
L -3454.175159 298.391409 
L -3462.223236 299.095509 
L -3470.271313 299.928937 
L -3478.31939 300.761569 
L -3486.367467 301.590681 
L -3494.415544 302.391884 
L -3502.463621 303.140808 
L -3510.511698 303.963914 
L -3518.559775 304.77201 
L -3526.607852 305.584906 
L -3534.655929 306.395893 
L -3542.704005 307.229072 
L -3550.752082 308.095066 
L -3558.800159 308.845577 
L -3566.848236 309.701996 
L -3574.896313 310.543529 
L -3582.94439 311.353444 
L -3590.992467 312.189041 
L -3599.040544 313.041996 
L -3607.088621 313.871321 
L -3615.136698 314.740982 
L -3623.184775 315.537795 
L -3631.232852 316.350839 
L -3639.280929 317.209194 
L -3647.329005 318.040345 
L -3655.377082 318.831758 
L -3663.425159 319.668322 
L -3671.473236 320.436237 
L -3679.521313 321.255662 
L -3687.56939 322.127102 
L -3695.617467 322.881525 
L -3703.665544 323.722213 
L -3711.713621 324.521222 
L -3719.761698 325.35813 
L -3727.809775 326.120502 
L -3735.857852 327.0054 
L -3743.905929 327.746585 
L -3751.954005 328.573109 
L -3760.002082 329.38315 
L -3768.050159 330.21295 
L -3776.098236 331.00393 
L -3784.146313 331.808938 
L -3792.19439 332.617037 
L -3800.242467 333.450737 
L -3808.290544 334.228076 
L -3816.338621 334.971354 
L -3824.386698 335.725797 
L -3832.434775 336.466027 
L -3840.482852 337.17862 
L -3848.530929 337.901521 
L -3856.579005 338.615237 
L -3864.627082 339.297725 
L -3872.675159 339.986569 
L -3880.723236 340.670827 
L -3888.771313 341.296164 
L -3896.81939 341.930217 
L -3904.867467 342.58864 
L -3912.915544 343.213159 
L -3920.963621 343.774606 
L -3929.011698 344.388038 
L -3937.059775 344.950361 
L -3945.107852 345.469928 
L -3953.155929 345.988299 
L -3961.204005 346.473802 
L -3969.252082 346.993396 
L -3977.300159 347.426688 
L -3985.348236 347.881528 
L -3993.396313 348.310077 
L -4001.44439 348.707992 
L -4009.492467 349.071761 
L -4017.540544 349.403535 
L -4025.588621 349.732295 
L -4033.636698 350.05744 
L -4041.684775 350.329369 
L -4049.732852 350.630088 
L -4057.780929 350.886902 
L -4065.829005 351.110028 
L -4073.877082 351.368052 
L -4081.925159 351.595321 
L -4089.973236 351.785632 
L -4098.021313 351.988299 
L -4106.06939 352.185284 
L -4114.117467 352.359749 
L -4122.165544 352.534424 
L -4130.213621 352.680791 
L -4138.261698 352.854727 
L -4146.309775 352.995299 
L -4154.357852 353.14218 
L -4162.405929 353.295479 
L -4170.454005 353.422356 
L -4178.502082 353.555885 
L -4186.550159 353.727009 
L -4194.598236 353.850648 
L -4202.646313 353.999652 
L -4210.69439 354.119368 
L -4218.742467 354.275323 
L -4226.790544 354.400113 
L -4234.838621 354.529927 
L -4242.886698 354.645146 
L -4250.934775 354.749704 
L -4258.982852 354.867841 
L -4267.030929 354.995637 
L -4275.079005 355.120048 
L -4283.127082 355.227146 
L -4291.175159 355.315424 
L -4299.223236 355.438352 
L -4307.271313 355.540677 
L -4315.31939 355.662388 
z
" clip-path="url(#pd0b71cdc69)" style="fill: #008000; fill-opacity: 0.3; stroke: #008000; stroke-opacity: 0.3"/>
   </g>
   <g id="matplotlib.axis_1">
    <g id="xtick_1">
     <g id="line2d_1">
      <defs>
       <path id="m2218f1e1eb" d="M 0 0 
L 0 3.5 
" style="stroke: #000000; stroke-width: 0.8"/>
      </defs>
      <g>
       <use xlink:href="#m2218f1e1eb" x="103.074841" y="395.28" style="stroke: #000000; stroke-width: 0.8"/>
      </g>
     </g>
     <g id="text_1">
      <!-- 2023-01-01 -->
      <g transform="translate(17.945813 495.213718) rotate(-45) scale(0.2 -0.2)">
       <defs>
        <path id="DejaVuSans-32" d="M 1228 531 
L 3431 531 
L 3431 0 
L 469 0 
L 469 531 
Q 828 903 1448 1529 
Q 2069 2156 2228 2338 
Q 2531 2678 2651 2914 
Q 2772 3150 2772 3378 
Q 2772 3750 2511 3984 
Q 2250 4219 1831 4219 
Q 1534 4219 1204 4116 
Q 875 4013 500 3803 
L 500 4441 
Q 881 4594 1212 4672 
Q 1544 4750 1819 4750 
Q 2544 4750 2975 4387 
Q 3406 4025 3406 3419 
Q 3406 3131 3298 2873 
Q 3191 2616 2906 2266 
Q 2828 2175 2409 1742 
Q 1991 1309 1228 531 
z
" transform="scale(0.015625)"/>
        <path id="DejaVuSans-30" d="M 2034 4250 
Q 1547 4250 1301 3770 
Q 1056 3291 1056 2328 
Q 1056 1369 1301 889 
Q 1547 409 2034 409 
Q 2525 409 2770 889 
Q 3016 1369 3016 2328 
Q 3016 3291 2770 3770 
Q 2525 4250 2034 4250 
z
M 2034 4750 
Q 2819 4750 3233 4129 
Q 3647 3509 3647 2328 
Q 3647 1150 3233 529 
Q 2819 -91 2034 -91 
Q 1250 -91 836 529 
Q 422 1150 422 2328 
Q 422 3509 836 4129 
Q 1250 4750 2034 4750 
z
" transform="scale(0.015625)"/>
        <path id="DejaVuSans-33" d="M 2597 2516 
Q 3050 2419 3304 2112 
Q 3559 1806 3559 1356 
Q 3559 666 3084 287 
Q 2609 -91 1734 -91 
Q 1441 -91 1130 -33 
Q 819 25 488 141 
L 488 750 
Q 750 597 1062 519 
Q 1375 441 1716 441 
Q 2309 441 2620 675 
Q 2931 909 2931 1356 
Q 2931 1769 2642 2001 
Q 2353 2234 1838 2234 
L 1294 2234 
L 1294 2753 
L 1863 2753 
Q 2328 2753 2575 2939 
Q 2822 3125 2822 3475 
Q 2822 3834 2567 4026 
Q 2313 4219 1838 4219 
Q 1578 4219 1281 4162 
Q 984 4106 628 3988 
L 628 4550 
Q 988 4650 1302 4700 
Q 1616 4750 1894 4750 
Q 2613 4750 3031 4423 
Q 3450 4097 3450 3541 
Q 3450 3153 3228 2886 
Q 3006 2619 2597 2516 
z
" transform="scale(0.015625)"/>
        <path id="DejaVuSans-2d" d="M 313 2009 
L 1997 2009 
L 1997 1497 
L 313 1497 
L 313 2009 
z
" transform="scale(0.015625)"/>
        <path id="DejaVuSans-31" d="M 794 531 
L 1825 531 
L 1825 4091 
L 703 3866 
L 703 4441 
L 1819 4666 
L 2450 4666 
L 2450 531 
L 3481 531 
L 3481 0 
L 794 0 
L 794 531 
z
" transform="scale(0.015625)"/>
       </defs>
       <use xlink:href="#DejaVuSans-32"/>
       <use xlink:href="#DejaVuSans-30" x="63.623047"/>
       <use xlink:href="#DejaVuSans-32" x="127.246094"/>
       <use xlink:href="#DejaVuSans-33" x="190.869141"/>
       <use xlink:href="#DejaVuSans-2d" x="254.492188"/>
       <use xlink:href="#DejaVuSans-30" x="290.576172"/>
       <use xlink:href="#DejaVuSans-31" x="354.199219"/>
       <use xlink:href="#DejaVuSans-2d" x="417.822266"/>
       <use xlink:href="#DejaVuSans-30" x="453.90625"/>
       <use xlink:href="#DejaVuSans-31" x="517.529297"/>
      </g>
     </g>
    </g>
    <g id="xtick_2">
     <g id="line2d_2">
      <g>
       <use xlink:href="#m2218f1e1eb" x="215.747918" y="395.28" style="stroke: #000000; stroke-width: 0.8"/>
      </g>
     </g>
     <g id="text_2">
      <!-- 2023-01-15 -->
      <g transform="translate(130.61889 495.213718) rotate(-45) scale(0.2 -0.2)">
       <defs>
        <path id="DejaVuSans-35" d="M 691 4666 
L 3169 4666 
L 3169 4134 
L 1269 4134 
L 1269 2991 
Q 1406 3038 1543 3061 
Q 1681 3084 1819 3084 
Q 2600 3084 3056 2656 
Q 3513 2228 3513 1497 
Q 3513 744 3044 326 
Q 2575 -91 1722 -91 
Q 1428 -91 1123 -41 
Q 819 9 494 109 
L 494 744 
Q 775 591 1075 516 
Q 1375 441 1709 441 
Q 2250 441 2565 725 
Q 2881 1009 2881 1497 
Q 2881 1984 2565 2268 
Q 2250 2553 1709 2553 
Q 1456 2553 1204 2497 
Q 953 2441 691 2322 
L 691 4666 
z
" transform="scale(0.015625)"/>
       </defs>
       <use xlink:href="#DejaVuSans-32"/>
       <use xlink:href="#DejaVuSans-30" x="63.623047"/>
       <use xlink:href="#DejaVuSans-32" x="127.246094"/>
       <use xlink:href="#DejaVuSans-33" x="190.869141"/>
       <use xlink:href="#DejaVuSans-2d" x="254.492188"/>
       <use xlink:href="#DejaVuSans-30" x="290.576172"/>
       <use xlink:href="#DejaVuSans-31" x="354.199219"/>
       <use xlink:href="#DejaVuSans-2d" x="417.822266"/>
       <use xlink:href="#DejaVuSans-31" x="453.90625"/>
       <use xlink:href="#DejaVuSans-35" x="517.529297"/>
      </g>
     </g>
    </g>
    <g id="xtick_3">
     <g id="line2d_3">
      <g>
       <use xlink:href="#m2218f1e1eb" x="328.420995" y="395.28" style="stroke: #000000; stroke-width: 0.8"/>
      </g>
     </g>
     <g id="text_3">
      <!-- 2023-01-29 -->
      <g transform="translate(243.291967 495.213718) rotate(-45) scale(0.2 -0.2)">
       <defs>
        <path id="DejaVuSans-39" d="M 703 97 
L 703 672 
Q 941 559 1184 500 
Q 1428 441 1663 441 
Q 2288 441 2617 861 
Q 2947 1281 2994 2138 
Q 2813 1869 2534 1725 
Q 2256 1581 1919 1581 
Q 1219 1581 811 2004 
Q 403 2428 403 3163 
Q 403 3881 828 4315 
Q 1253 4750 1959 4750 
Q 2769 4750 3195 4129 
Q 3622 3509 3622 2328 
Q 3622 1225 3098 567 
Q 2575 -91 1691 -91 
Q 1453 -91 1209 -44 
Q 966 3 703 97 
z
M 1959 2075 
Q 2384 2075 2632 2365 
Q 2881 2656 2881 3163 
Q 2881 3666 2632 3958 
Q 2384 4250 1959 4250 
Q 1534 4250 1286 3958 
Q 1038 3666 1038 3163 
Q 1038 2656 1286 2365 
Q 1534 2075 1959 2075 
z
" transform="scale(0.015625)"/>
       </defs>
       <use xlink:href="#DejaVuSans-32"/>
       <use xlink:href="#DejaVuSans-30" x="63.623047"/>
       <use xlink:href="#DejaVuSans-32" x="127.246094"/>
       <use xlink:href="#DejaVuSans-33" x="190.869141"/>
       <use xlink:href="#DejaVuSans-2d" x="254.492188"/>
       <use xlink:href="#DejaVuSans-30" x="290.576172"/>
       <use xlink:href="#DejaVuSans-31" x="354.199219"/>
       <use xlink:href="#DejaVuSans-2d" x="417.822266"/>
       <use xlink:href="#DejaVuSans-32" x="453.90625"/>
       <use xlink:href="#DejaVuSans-39" x="517.529297"/>
      </g>
     </g>
    </g>
    <g id="xtick_4">
     <g id="line2d_4">
      <g>
       <use xlink:href="#m2218f1e1eb" x="441.094071" y="395.28" style="stroke: #000000; stroke-width: 0.8"/>
      </g>
     </g>
     <g id="text_4">
      <!-- 2023-02-12 -->
      <g transform="translate(355.965044 495.213718) rotate(-45) scale(0.2 -0.2)">
       <use xlink:href="#DejaVuSans-32"/>
       <use xlink:href="#DejaVuSans-30" x="63.623047"/>
       <use xlink:href="#DejaVuSans-32" x="127.246094"/>
       <use xlink:href="#DejaVuSans-33" x="190.869141"/>
       <use xlink:href="#DejaVuSans-2d" x="254.492188"/>
       <use xlink:href="#DejaVuSans-30" x="290.576172"/>
       <use xlink:href="#DejaVuSans-32" x="354.199219"/>
       <use xlink:href="#DejaVuSans-2d" x="417.822266"/>
       <use xlink:href="#DejaVuSans-31" x="453.90625"/>
       <use xlink:href="#DejaVuSans-32" x="517.529297"/>
      </g>
     </g>
    </g>
    <g id="xtick_5">
     <g id="line2d_5">
      <g>
       <use xlink:href="#m2218f1e1eb" x="553.767148" y="395.28" style="stroke: #000000; stroke-width: 0.8"/>
      </g>
     </g>
     <g id="text_5">
      <!-- 2023-02-26 -->
      <g transform="translate(468.638121 495.213718) rotate(-45) scale(0.2 -0.2)">
       <defs>
        <path id="DejaVuSans-36" d="M 2113 2584 
Q 1688 2584 1439 2293 
Q 1191 2003 1191 1497 
Q 1191 994 1439 701 
Q 1688 409 2113 409 
Q 2538 409 2786 701 
Q 3034 994 3034 1497 
Q 3034 2003 2786 2293 
Q 2538 2584 2113 2584 
z
M 3366 4563 
L 3366 3988 
Q 3128 4100 2886 4159 
Q 2644 4219 2406 4219 
Q 1781 4219 1451 3797 
Q 1122 3375 1075 2522 
Q 1259 2794 1537 2939 
Q 1816 3084 2150 3084 
Q 2853 3084 3261 2657 
Q 3669 2231 3669 1497 
Q 3669 778 3244 343 
Q 2819 -91 2113 -91 
Q 1303 -91 875 529 
Q 447 1150 447 2328 
Q 447 3434 972 4092 
Q 1497 4750 2381 4750 
Q 2619 4750 2861 4703 
Q 3103 4656 3366 4563 
z
" transform="scale(0.015625)"/>
       </defs>
       <use xlink:href="#DejaVuSans-32"/>
       <use xlink:href="#DejaVuSans-30" x="63.623047"/>
       <use xlink:href="#DejaVuSans-32" x="127.246094"/>
       <use xlink:href="#DejaVuSans-33" x="190.869141"/>
       <use xlink:href="#DejaVuSans-2d" x="254.492188"/>
       <use xlink:href="#DejaVuSans-30" x="290.576172"/>
       <use xlink:href="#DejaVuSans-32" x="354.199219"/>
       <use xlink:href="#DejaVuSans-2d" x="417.822266"/>
       <use xlink:href="#DejaVuSans-32" x="453.90625"/>
       <use xlink:href="#DejaVuSans-36" x="517.529297"/>
      </g>
     </g>
    </g>
    <g id="xtick_6">
     <g id="line2d_6">
      <g>
       <use xlink:href="#m2218f1e1eb" x="666.440225" y="395.28" style="stroke: #000000; stroke-width: 0.8"/>
      </g>
     </g>
     <g id="text_6">
      <!-- 2023-03-12 -->
      <g transform="translate(581.311198 495.213718) rotate(-45) scale(0.2 -0.2)">
       <use xlink:href="#DejaVuSans-32"/>
       <use xlink:href="#DejaVuSans-30" x="63.623047"/>
       <use xlink:href="#DejaVuSans-32" x="127.246094"/>
       <use xlink:href="#DejaVuSans-33" x="190.869141"/>
       <use xlink:href="#DejaVuSans-2d" x="254.492188"/>
       <use xlink:href="#DejaVuSans-30" x="290.576172"/>
       <use xlink:href="#DejaVuSans-33" x="354.199219"/>
       <use xlink:href="#DejaVuSans-2d" x="417.822266"/>
       <use xlink:href="#DejaVuSans-31" x="453.90625"/>
       <use xlink:href="#DejaVuSans-32" x="517.529297"/>
      </g>
     </g>
    </g>
    <g id="xtick_7">
     <g id="line2d_7">
      <g>
       <use xlink:href="#m2218f1e1eb" x="779.113302" y="395.28" style="stroke: #000000; stroke-width: 0.8"/>
      </g>
     </g>
     <g id="text_7">
      <!-- 2023-03-26 -->
      <g transform="translate(693.984275 495.213718) rotate(-45) scale(0.2 -0.2)">
       <use xlink:href="#DejaVuSans-32"/>
       <use xlink:href="#DejaVuSans-30" x="63.623047"/>
       <use xlink:href="#DejaVuSans-32" x="127.246094"/>
       <use xlink:href="#DejaVuSans-33" x="190.869141"/>
       <use xlink:href="#DejaVuSans-2d" x="254.492188"/>
       <use xlink:href="#DejaVuSans-30" x="290.576172"/>
       <use xlink:href="#DejaVuSans-33" x="354.199219"/>
       <use xlink:href="#DejaVuSans-2d" x="417.822266"/>
       <use xlink:href="#DejaVuSans-32" x="453.90625"/>
       <use xlink:href="#DejaVuSans-36" x="517.529297"/>
      </g>
     </g>
    </g>
    <g id="xtick_8">
     <g id="line2d_8">
      <g>
       <use xlink:href="#m2218f1e1eb" x="891.786379" y="395.28" style="stroke: #000000; stroke-width: 0.8"/>
      </g>
     </g>
     <g id="text_8">
      <!-- 2023-04-09 -->
      <g transform="translate(806.657352 495.213718) rotate(-45) scale(0.2 -0.2)">
       <defs>
        <path id="DejaVuSans-34" d="M 2419 4116 
L 825 1625 
L 2419 1625 
L 2419 4116 
z
M 2253 4666 
L 3047 4666 
L 3047 1625 
L 3713 1625 
L 3713 1100 
L 3047 1100 
L 3047 0 
L 2419 0 
L 2419 1100 
L 313 1100 
L 313 1709 
L 2253 4666 
z
" transform="scale(0.015625)"/>
       </defs>
       <use xlink:href="#DejaVuSans-32"/>
       <use xlink:href="#DejaVuSans-30" x="63.623047"/>
       <use xlink:href="#DejaVuSans-32" x="127.246094"/>
       <use xlink:href="#DejaVuSans-33" x="190.869141"/>
       <use xlink:href="#DejaVuSans-2d" x="254.492188"/>
       <use xlink:href="#DejaVuSans-30" x="290.576172"/>
       <use xlink:href="#DejaVuSans-34" x="354.199219"/>
       <use xlink:href="#DejaVuSans-2d" x="417.822266"/>
       <use xlink:href="#DejaVuSans-30" x="453.90625"/>
       <use xlink:href="#DejaVuSans-39" x="517.529297"/>
      </g>
     </g>
    </g>
    <g id="xtick_9">
     <g id="line2d_9">
      <g>
       <use xlink:href="#m2218f1e1eb" x="940.074841" y="395.28" style="stroke: #000000; stroke-width: 0.8"/>
      </g>
     </g>
     <g id="text_9">
      <!-- 2023-04-15 -->
      <g transform="translate(854.945813 495.213718) rotate(-45) scale(0.2 -0.2)">
       <use xlink:href="#DejaVuSans-32"/>
       <use xlink:href="#DejaVuSans-30" x="63.623047"/>
       <use xlink:href="#DejaVuSans-32" x="127.246094"/>
       <use xlink:href="#DejaVuSans-33" x="190.869141"/>
       <use xlink:href="#DejaVuSans-2d" x="254.492188"/>
       <use xlink:href="#DejaVuSans-30" x="290.576172"/>
       <use xlink:href="#DejaVuSans-34" x="354.199219"/>
       <use xlink:href="#DejaVuSans-2d" x="417.822266"/>
       <use xlink:href="#DejaVuSans-31" x="453.90625"/>
       <use xlink:href="#DejaVuSans-35" x="517.529297"/>
      </g>
     </g>
    </g>
   </g>
   <g id="matplotlib.axis_2">
    <g id="ytick_1">
     <g id="line2d_10">
      <defs>
       <path id="m6a0bd00096" d="M 0 0 
L -3.5 0 
" style="stroke: #000000; stroke-width: 0.8"/>
      </defs>
      <g>
       <use xlink:href="#m6a0bd00096" x="103.074841" y="355.776703" style="stroke: #000000; stroke-width: 0.8"/>
      </g>
     </g>
     <g id="text_10">
      <!-- 0.00 -->
      <g transform="translate(51.543591 363.37514) scale(0.2 -0.2)">
       <defs>
        <path id="DejaVuSans-2e" d="M 684 794 
L 1344 794 
L 1344 0 
L 684 0 
L 684 794 
z
" transform="scale(0.015625)"/>
       </defs>
       <use xlink:href="#DejaVuSans-30"/>
       <use xlink:href="#DejaVuSans-2e" x="63.623047"/>
       <use xlink:href="#DejaVuSans-30" x="95.410156"/>
       <use xlink:href="#DejaVuSans-30" x="159.033203"/>
      </g>
     </g>
    </g>
    <g id="ytick_2">
     <g id="line2d_11">
      <g>
       <use xlink:href="#m6a0bd00096" x="103.074841" y="270.939357" style="stroke: #000000; stroke-width: 0.8"/>
      </g>
     </g>
     <g id="text_11">
      <!-- 0.05 -->
      <g transform="translate(51.543591 278.537795) scale(0.2 -0.2)">
       <use xlink:href="#DejaVuSans-30"/>
       <use xlink:href="#DejaVuSans-2e" x="63.623047"/>
       <use xlink:href="#DejaVuSans-30" x="95.410156"/>
       <use xlink:href="#DejaVuSans-35" x="159.033203"/>
      </g>
     </g>
    </g>
    <g id="ytick_3">
     <g id="line2d_12">
      <g>
       <use xlink:href="#m6a0bd00096" x="103.074841" y="186.102012" style="stroke: #000000; stroke-width: 0.8"/>
      </g>
     </g>
     <g id="text_12">
      <!-- 0.10 -->
      <g transform="translate(51.543591 193.700449) scale(0.2 -0.2)">
       <use xlink:href="#DejaVuSans-30"/>
       <use xlink:href="#DejaVuSans-2e" x="63.623047"/>
       <use xlink:href="#DejaVuSans-31" x="95.410156"/>
       <use xlink:href="#DejaVuSans-30" x="159.033203"/>
      </g>
     </g>
    </g>
    <g id="ytick_4">
     <g id="line2d_13">
      <g>
       <use xlink:href="#m6a0bd00096" x="103.074841" y="101.264666" style="stroke: #000000; stroke-width: 0.8"/>
      </g>
     </g>
     <g id="text_13">
      <!-- 0.15 -->
      <g transform="translate(51.543591 108.863104) scale(0.2 -0.2)">
       <use xlink:href="#DejaVuSans-30"/>
       <use xlink:href="#DejaVuSans-2e" x="63.623047"/>
       <use xlink:href="#DejaVuSans-31" x="95.410156"/>
       <use xlink:href="#DejaVuSans-35" x="159.033203"/>
      </g>
     </g>
    </g>
    <g id="ytick_5">
     <g id="line2d_14">
      <g>
       <use xlink:href="#m6a0bd00096" x="103.074841" y="16.427321" style="stroke: #000000; stroke-width: 0.8"/>
      </g>
     </g>
     <g id="text_14">
      <!-- 0.20 -->
      <g transform="translate(51.543591 24.025758) scale(0.2 -0.2)">
       <use xlink:href="#DejaVuSans-30"/>
       <use xlink:href="#DejaVuSans-2e" x="63.623047"/>
       <use xlink:href="#DejaVuSans-32" x="95.410156"/>
       <use xlink:href="#DejaVuSans-30" x="159.033203"/>
      </g>
     </g>
    </g>
   </g>
   <g id="line2d_15">
    <path d="M 111.122918 355.776703 
L 215.747918 355.776703 
M 940.074841 355.776703 
" clip-path="url(#pd0b71cdc69)" style="fill: none; stroke: #ffa500; stroke-width: 1.5; stroke-linecap: square"/>
   </g>
   <g id="line2d_16">
    <path d="M 103.074841 355.776703 
L 948.274841 355.776703 
" clip-path="url(#pd0b71cdc69)" style="fill: none; stroke-dasharray: 7.4,3.2; stroke-dashoffset: 0; stroke: #000000; stroke-width: 2"/>
   </g>
   <g id="patch_3">
    <path d="M 103.074841 395.28 
L 103.074841 7.2 
" style="fill: none; stroke: #000000; stroke-width: 0.8; stroke-linejoin: miter; stroke-linecap: square"/>
   </g>
   <g id="patch_4">
    <path d="M 940.074841 395.28 
L 940.074841 7.2 
" style="fill: none; stroke: #000000; stroke-width: 0.8; stroke-linejoin: miter; stroke-linecap: square"/>
   </g>
   <g id="patch_5">
    <path d="M 103.074841 395.28 
L 940.074841 395.28 
" style="fill: none; stroke: #000000; stroke-width: 0.8; stroke-linejoin: miter; stroke-linecap: square"/>
   </g>
   <g id="patch_6">
    <path d="M 103.074841 7.2 
L 940.074841 7.2 
" style="fill: none; stroke: #000000; stroke-width: 0.8; stroke-linejoin: miter; stroke-linecap: square"/>
   </g>
  </g>
 </g>
 <defs>
  <clipPath id="pd0b71cdc69">
   <rect x="103.074841" y="7.2" width="837" height="388.08"/>
  </clipPath>
 </defs>
</svg>
