<?xml version="1.0" encoding="utf-8" standalone="no"?>
<!DOCTYPE svg PUBLIC "-//W3C//DTD SVG 1.1//EN"
  "http://www.w3.org/Graphics/SVG/1.1/DTD/svg11.dtd">
<svg xmlns:xlink="http://www.w3.org/1999/xlink" width="947.274841pt" height="505.354841pt" viewBox="0 0 947.274841 505.354841" xmlns="http://www.w3.org/2000/svg" version="1.1">
 <metadata>
  <rdf:RDF xmlns:dc="http://purl.org/dc/elements/1.1/" xmlns:cc="http://creativecommons.org/ns#" xmlns:rdf="http://www.w3.org/1999/02/22-rdf-syntax-ns#">
   <cc:Work>
    <dc:type rdf:resource="http://purl.org/dc/dcmitype/StillImage"/>
    <dc:date>2023-11-15T19:57:25.090361</dc:date>
    <dc:format>image/svg+xml</dc:format>
    <dc:creator>
     <cc:Agent>
      <dc:title>Matplotlib v3.7.2, https://matplotlib.org/</dc:title>
     </cc:Agent>
    </dc:creator>
   </cc:Work>
  </rdf:RDF>
 </metadata>
 <defs>
  <style type="text/css">*{stroke-linejoin: round; stroke-linecap: butt}</style>
 </defs>
 <g id="figure_1">
  <g id="patch_1">
   <path d="M 0 505.354841 
L 947.274841 505.354841 
L 947.274841 -0 
L 0 -0 
z
" style="fill: #ffffff"/>
  </g>
  <g id="axes_1">
   <g id="patch_2">
    <path d="M 103.074841 395.28 
L 940.074841 395.28 
L 940.074841 7.2 
L 103.074841 7.2 
z
" style="fill: #ffffff"/>
   </g>
   <g id="PolyCollection_1">
    <path d="M -393.000769 240.631795 
L -393.000769 240.651971 
L -390.959306 240.542852 
L -388.917842 240.44953 
L -386.876379 240.331215 
L -384.834915 240.259916 
L -382.793452 240.173956 
L -380.751989 240.075159 
L -378.710525 239.97766 
L -376.669062 239.886735 
L -374.627598 239.80797 
L -372.586135 239.715796 
L -370.544672 239.619076 
L -368.503208 239.525498 
L -366.461745 239.409075 
L -364.420281 239.313997 
L -362.378818 239.200868 
L -360.337354 239.105369 
L -358.295891 238.973791 
L -356.254428 238.867236 
L -354.212964 238.765066 
L -352.171501 238.64285 
L -350.130037 238.524149 
L -348.088574 238.408556 
L -346.047111 238.267475 
L -344.005647 238.145522 
L -341.964184 238.001483 
L -339.92272 237.85593 
L -337.881257 237.694278 
L -335.839793 237.528378 
L -333.79833 237.366928 
L -331.756867 237.178927 
L -329.715403 236.965832 
L -327.67394 236.77848 
L -325.632476 236.564182 
L -323.591013 236.318016 
L -321.54955 236.09091 
L -319.508086 235.822631 
L -317.466623 235.551122 
L -315.425159 235.271927 
L -313.383696 234.976992 
L -311.342232 234.648807 
L -309.300769 234.299155 
L -307.259306 233.928596 
L -305.217842 233.57399 
L -303.176379 233.153925 
L -301.134915 232.757581 
L -299.093452 232.334692 
L -297.051989 231.911645 
L -295.010525 231.454891 
L -292.969062 230.959067 
L -290.927598 230.504041 
L -288.886135 229.994166 
L -286.844672 229.466593 
L -284.803208 228.951638 
L -282.761745 228.443674 
L -280.720281 227.889763 
L -278.678818 227.330408 
L -276.637354 226.772937 
L -274.595891 226.191865 
L -272.554428 225.604656 
L -270.512964 225.01959 
L -268.471501 224.413457 
L -266.430037 223.806444 
L -264.388574 223.210187 
L -262.347111 222.587742 
L -260.305647 221.918734 
L -258.264184 221.27254 
L -256.22272 220.628394 
L -254.181257 219.99541 
L -252.139793 219.334197 
L -250.09833 218.689499 
L -248.056867 218.032686 
L -246.015403 217.444685 
L -243.97394 216.742689 
L -241.932476 216.14041 
L -239.891013 215.475197 
L -237.84955 214.843469 
L -235.808086 214.177257 
L -233.766623 213.590821 
L -231.725159 212.914696 
L -229.683696 212.2816 
L -227.642232 211.686523 
L -225.600769 211.042289 
L -223.559306 210.440649 
L -221.517842 209.80854 
L -219.476379 209.162869 
L -217.434915 208.545256 
L -215.393452 207.950576 
L -213.351989 207.30585 
L -211.310525 206.687342 
L -209.269062 206.052984 
L -207.227598 205.437769 
L -205.186135 204.841175 
L -203.144672 204.226331 
L -201.103208 203.604518 
L -199.061745 203.048275 
L -197.020281 202.412094 
L -194.978818 201.80364 
L -192.937354 201.205142 
L -190.895891 200.605278 
L -188.854428 200.006479 
L -186.812964 199.398855 
L -184.771501 198.820392 
L -182.730037 198.216626 
L -180.688574 197.596541 
L -178.647111 196.968773 
L -176.605647 196.333541 
L -174.564184 195.740466 
L -172.52272 195.084532 
L -170.481257 194.38319 
L -168.439793 193.726343 
L -166.39833 193.032085 
L -164.356867 192.326983 
L -162.315403 191.5811 
L -160.27394 190.821651 
L -158.232476 190.118387 
L -156.191013 189.312208 
L -154.14955 188.547853 
L -152.108086 187.723377 
L -150.066623 186.969447 
L -148.025159 186.078105 
L -145.983696 185.205891 
L -143.942232 184.359386 
L -141.900769 183.497937 
L -139.859306 182.609301 
L -137.817842 181.679672 
L -135.776379 180.811352 
L -133.734915 179.8125 
L -131.693452 178.939094 
L -129.651989 177.911062 
L -127.610525 176.916688 
L -125.569062 175.94736 
L -123.527598 175.019666 
L -121.486135 173.931283 
L -119.444672 172.95282 
L -117.403208 171.698539 
L -115.361745 170.62598 
L -113.320281 169.630395 
L -111.278818 168.501729 
L -109.237354 167.343955 
L -107.195891 166.005001 
L -105.154428 164.754613 
L -103.112964 163.720441 
L -101.071501 162.05685 
L -99.030037 160.732266 
L -96.988574 159.3794 
L -94.947111 157.976432 
L -92.905647 156.373913 
L -90.864184 154.87266 
L -88.82272 153.755764 
L -86.781257 152.318664 
L -84.739793 149.923835 
L -82.69833 147.923026 
L -80.656867 146.464506 
L -78.615403 144.422199 
L -76.57394 142.742653 
L -74.532476 141.292458 
L -72.491013 139.055683 
L -70.44955 136.503426 
L -68.408086 134.784743 
L -66.366623 133.716166 
L -64.325159 131.601744 
L -62.283696 130.705224 
L -60.242232 129.217179 
L -58.200769 126.922645 
L -56.159306 126.609488 
L -54.117842 127.612842 
L -52.076379 129.636499 
L -50.034915 127.550457 
L -47.993452 131.942144 
L -45.951989 132.981356 
L -43.910525 127.260467 
L -41.869062 128.977109 
L -39.827598 131.615105 
L -37.786135 130.165504 
L -35.744672 129.916428 
L -33.703208 140.991218 
L -31.661745 156.702124 
L -29.620281 164.539963 
L -27.578818 147.582641 
L -25.537354 156.352233 
L -23.495891 167.822467 
L -21.454428 167.179793 
L -19.412964 190.480444 
L -17.371501 187.311937 
L -15.330037 180.195295 
L -13.288574 162.550765 
L -11.247111 179.144214 
L -9.205647 189.120407 
L -7.164184 184.948194 
L -5.12272 187.546423 
L -3.081257 196.956723 
L -1.039793 195.695049 
L 1.00167 187.572916 
L 3.043133 197.765025 
L 5.084597 199.781704 
L 7.12606 196.134772 
L 9.167524 202.605135 
L 11.208987 204.969513 
L 13.25045 204.331774 
L 15.291914 202.370667 
L 17.333377 204.502614 
L 19.374841 202.337798 
L 21.416304 202.536298 
L 23.457768 204.576665 
L 25.499231 202.688645 
L 27.540694 203.703355 
L 29.582158 203.787545 
L 31.623621 202.278392 
L 33.665085 202.884777 
L 35.706548 200.705481 
L 37.748011 200.904126 
L 39.789475 201.578679 
L 41.830938 201.679632 
L 43.872402 200.668583 
L 45.913865 199.820721 
L 47.955328 199.674919 
L 49.996792 198.746269 
L 52.038255 198.687023 
L 54.079719 198.604084 
L 56.121182 197.16906 
L 58.162646 198.02971 
L 60.204109 197.142786 
L 62.245572 196.846873 
L 64.287036 197.03306 
L 66.328499 196.194578 
L 68.369963 196.117173 
L 70.411426 196.640114 
L 72.452889 197.388897 
L 74.494353 195.949105 
L 76.535816 195.873876 
L 78.57728 195.543432 
L 80.618743 198.598826 
L 82.660207 198.89761 
L 84.70167 200.234713 
L 86.743133 197.772136 
L 88.784597 196.344202 
L 90.82606 197.114755 
L 92.867524 199.235568 
L 94.908987 199.810894 
L 96.95045 196.795378 
L 98.991914 199.828066 
L 101.033377 199.410722 
L 103.074841 199.233955 
L 105.116304 198.003043 
L 107.157768 199.520253 
L 109.199231 199.081581 
L 111.240694 200.075955 
L 113.282158 199.403098 
L 115.323621 198.939986 
L 117.365085 197.857177 
L 119.406548 197.505834 
L 121.448011 197.218736 
L 123.489475 196.709292 
L 125.530938 196.861652 
L 127.572402 196.430897 
L 129.613865 195.949247 
L 131.655328 194.106593 
L 133.696792 192.7885 
L 135.738255 192.390978 
L 137.779719 190.923943 
L 139.821182 190.923145 
L 141.862646 189.700349 
L 143.904109 187.725466 
L 145.945572 186.138477 
L 147.987036 185.03163 
L 150.028499 182.974511 
L 152.069963 181.86305 
L 154.111426 180.079688 
L 156.152889 178.550654 
L 158.194353 176.614856 
L 160.235816 175.125242 
L 162.27728 172.979593 
L 164.318743 171.382188 
L 166.360207 169.643447 
L 168.40167 167.142402 
L 170.443133 164.863784 
L 172.484597 163.27485 
L 174.52606 161.53476 
L 176.567524 159.216937 
L 178.608987 157.497065 
L 180.65045 155.298632 
L 182.691914 151.89312 
L 184.733377 150.762478 
L 186.774841 147.978821 
L 188.816304 145.915344 
L 190.857768 143.683145 
L 192.899231 141.15827 
L 194.940694 138.619514 
L 196.982158 136.332276 
L 199.023621 133.049841 
L 201.065085 131.252972 
L 203.106548 128.088278 
L 205.148011 126.283035 
L 207.189475 123.136804 
L 209.230938 120.169437 
L 211.272402 117.587494 
L 213.313865 115.674542 
L 215.355328 112.064466 
L 217.396792 109.844522 
L 219.438255 106.740772 
L 221.479719 104.331573 
L 223.521182 101.022607 
L 225.562646 98.195461 
L 227.604109 98.372761 
L 229.645572 92.223645 
L 231.687036 91.765948 
L 233.728499 88.285466 
L 235.769963 86.082345 
L 237.811426 83.391994 
L 239.852889 80.522684 
L 241.894353 77.939694 
L 243.935816 75.584724 
L 245.97728 73.420856 
L 248.018743 71.215112 
L 250.060207 74.064429 
L 252.10167 66.263835 
L 254.143133 65.139965 
L 256.184597 72.080918 
L 258.22606 63.159343 
L 260.267524 65.259593 
L 262.308987 64.900672 
L 264.35045 60.349272 
L 266.391914 62.009364 
L 268.433377 67.002745 
L 270.474841 63.877518 
L 272.516304 62.920263 
L 274.557768 66.568887 
L 276.599231 66.104864 
L 278.640694 68.525126 
L 280.682158 72.049982 
L 282.723621 76.536268 
L 284.765085 88.428232 
L 286.806548 85.876358 
L 288.848011 92.16599 
L 290.889475 97.079816 
L 292.930938 100.104251 
L 294.972402 106.435738 
L 297.013865 110.170527 
L 299.055328 102.906438 
L 301.096792 109.827475 
L 303.138255 119.669588 
L 305.179719 124.312924 
L 307.221182 125.290272 
L 309.262646 137.438958 
L 311.304109 138.026981 
L 313.345572 140.266917 
L 315.387036 139.990329 
L 317.428499 149.619063 
L 319.469963 145.86382 
L 321.511426 144.126049 
L 323.552889 151.332001 
L 325.594353 158.646266 
L 327.635816 157.256703 
L 329.67728 162.355269 
L 331.718743 163.826511 
L 333.760207 163.877268 
L 335.80167 163.601933 
L 337.843133 166.318462 
L 339.884597 167.742815 
L 341.92606 176.777171 
L 343.967524 171.770902 
L 346.008987 179.620384 
L 348.05045 177.567988 
L 350.091914 176.254569 
L 352.133377 179.323279 
L 354.174841 182.047686 
L 356.216304 178.168331 
L 358.257768 179.818541 
L 360.299231 179.778278 
L 362.340694 184.027461 
L 364.382158 181.72075 
L 366.423621 180.585318 
L 368.465085 181.738631 
L 370.506548 183.752525 
L 372.548011 182.626561 
L 374.589475 180.450886 
L 376.630938 181.571347 
L 378.672402 178.334413 
L 380.713865 178.637515 
L 382.755328 183.864702 
L 384.796792 183.546602 
L 386.838255 180.582347 
L 388.879719 179.857574 
L 390.921182 180.215627 
L 392.962646 177.046431 
L 395.004109 177.851511 
L 397.045572 177.882235 
L 399.087036 177.25985 
L 401.128499 176.460622 
L 403.169963 174.557042 
L 405.211426 175.798466 
L 407.252889 174.556349 
L 409.294353 174.353841 
L 411.335816 173.744164 
L 413.37728 173.923611 
L 415.418743 172.510901 
L 417.460207 169.874789 
L 419.50167 169.848976 
L 421.543133 167.721852 
L 423.584597 164.602955 
L 425.62606 167.043457 
L 427.667524 162.747753 
L 429.708987 164.64911 
L 431.75045 163.881147 
L 433.791914 164.246598 
L 435.833377 161.485885 
L 437.874841 161.325204 
L 439.916304 160.952845 
L 441.957768 157.479412 
L 443.999231 158.361487 
L 446.040694 158.055484 
L 448.082158 157.910423 
L 450.123621 156.348659 
L 452.165085 157.171118 
L 454.206548 155.649371 
L 456.248011 154.283528 
L 458.289475 151.658992 
L 460.330938 150.840898 
L 462.372402 150.298604 
L 464.413865 148.865276 
L 466.455328 149.096553 
L 468.496792 148.400158 
L 470.538255 146.839863 
L 472.579719 147.064144 
L 474.621182 145.588899 
L 476.662646 146.485498 
L 478.704109 145.70008 
L 480.745572 145.990595 
L 482.787036 143.951177 
L 484.828499 140.386124 
L 486.869963 143.592236 
L 488.911426 143.449211 
L 490.952889 142.496413 
L 492.994353 141.578664 
L 495.035816 139.662332 
L 497.07728 139.359459 
L 499.118743 138.022724 
L 501.160207 138.19035 
L 503.20167 137.664385 
L 505.243133 135.532116 
L 507.284597 133.106993 
L 509.32606 136.317585 
L 511.367524 135.456273 
L 513.408987 132.807193 
L 515.45045 134.006835 
L 517.491914 130.062079 
L 519.533377 129.624255 
L 521.574841 130.140753 
L 523.616304 127.148409 
L 525.657768 131.798978 
L 527.699231 126.933819 
L 529.740694 123.976985 
L 531.782158 126.469133 
L 533.823621 127.25756 
L 535.865085 125.937347 
L 537.906548 127.182673 
L 539.948011 124.611936 
L 541.989475 128.457564 
L 544.030938 125.832327 
L 546.072402 126.929764 
L 548.113865 124.003618 
L 550.155328 121.408648 
L 552.196792 125.142028 
L 554.238255 131.67766 
L 556.279719 124.696913 
L 558.321182 125.329333 
L 560.362646 122.866889 
L 562.404109 124.361749 
L 564.445572 124.234568 
L 566.487036 122.791102 
L 568.528499 122.374211 
L 570.569963 125.651222 
L 572.611426 124.232337 
L 574.652889 127.219606 
L 576.694353 127.898182 
L 578.735816 119.863129 
L 580.77728 123.353524 
L 582.818743 123.730718 
L 584.860207 124.387141 
L 586.90167 124.958634 
L 588.943133 130.244054 
L 590.984597 132.362838 
L 593.02606 132.135376 
L 595.067524 137.887601 
L 597.108987 147.398559 
L 599.15045 136.016064 
L 601.191914 135.831151 
L 603.233377 136.00729 
L 605.274841 139.728721 
L 607.316304 140.528276 
L 609.357768 140.437946 
L 611.399231 148.592273 
L 613.440694 151.570638 
L 615.482158 142.181369 
L 617.523621 150.610042 
L 619.565085 146.408247 
L 621.606548 143.806402 
L 623.648011 154.094584 
L 625.689475 152.07582 
L 627.730938 158.758751 
L 629.772402 156.819937 
L 631.813865 152.431932 
L 633.855328 156.694836 
L 635.896792 156.804936 
L 637.938255 161.023347 
L 639.979719 158.590745 
L 642.021182 165.52121 
L 644.062646 160.835067 
L 646.104109 164.575762 
L 648.145572 164.048132 
L 650.187036 168.153947 
L 652.228499 162.015345 
L 654.269963 168.962907 
L 656.311426 168.773032 
L 658.352889 173.580818 
L 660.394353 176.219983 
L 662.435816 176.418084 
L 664.47728 175.392159 
L 666.518743 178.554442 
L 668.560207 180.942079 
L 670.60167 179.146679 
L 672.643133 178.55768 
L 674.684597 181.34292 
L 676.72606 183.871536 
L 678.767524 179.916945 
L 680.808987 177.708342 
L 682.85045 187.268602 
L 684.891914 191.685159 
L 686.933377 182.23135 
L 688.974841 185.199519 
L 691.016304 186.740184 
L 693.057768 187.555919 
L 695.099231 192.500117 
L 697.140694 191.979423 
L 699.182158 190.09951 
L 701.223621 192.272805 
L 703.265085 192.933441 
L 705.306548 187.841645 
L 707.348011 190.511364 
L 709.389475 188.95519 
L 711.430938 196.163513 
L 713.472402 204.987151 
L 715.513865 203.745405 
L 717.555328 196.766945 
L 719.596792 196.012144 
L 721.638255 196.969229 
L 723.679719 197.319052 
L 725.721182 203.837315 
L 727.762646 195.526343 
L 729.804109 204.262985 
L 731.845572 211.25318 
L 733.887036 205.337018 
L 735.928499 214.31526 
L 737.969963 208.632535 
L 740.011426 213.534416 
L 742.052889 210.246454 
L 744.094353 212.664918 
L 746.135816 217.47935 
L 748.17728 217.162888 
L 750.218743 218.653442 
L 752.260207 219.084318 
L 754.30167 219.534862 
L 756.343133 207.760974 
L 758.384597 223.570441 
L 760.42606 237.551431 
L 762.467524 224.725064 
L 764.508987 232.627324 
L 766.55045 241.465174 
L 768.591914 230.296316 
L 770.633377 243.749314 
L 772.674841 254.510418 
L 774.716304 248.524989 
L 776.757768 254.627856 
L 778.799231 257.819449 
L 780.840694 259.82 
L 782.882158 263.241159 
L 784.923621 248.672446 
L 786.965085 277.79735 
L 789.006548 278.425709 
L 791.048011 278.667878 
L 793.089475 260.235509 
L 795.130938 285.190746 
L 797.172402 298.788163 
L 799.213865 287.031066 
L 801.255328 287.322522 
L 803.296792 309.739773 
L 805.338255 268.706616 
L 807.379719 306.289867 
L 809.421182 279.3573 
L 811.462646 318.836852 
L 813.504109 303.322436 
L 815.545572 318.538374 
L 817.587036 323.092508 
L 819.628499 327.520021 
L 821.669963 329.639056 
L 823.711426 321.610211 
L 825.752889 323.419567 
L 827.794353 332.216698 
L 829.835816 342.370961 
L 831.87728 343.081385 
L 833.918743 342.228782 
L 835.960207 352.484866 
L 838.00167 352.614246 
L 840.043133 345.466232 
L 842.084597 344.565206 
L 844.12606 363.237074 
L 846.167524 364.835814 
L 848.208987 368.681213 
L 850.25045 359.342606 
L 852.291914 337.534293 
L 854.333377 360.877967 
L 856.374841 354.859182 
L 858.416304 360.837968 
L 860.457768 368.941248 
L 862.499231 358.158901 
L 864.540694 372.487067 
L 866.582158 360.920705 
L 868.623621 360.608354 
L 870.665085 361.919046 
L 872.706548 370.523946 
L 874.748011 369.718447 
L 876.789475 368.0339 
L 878.830938 359.134299 
L 880.872402 364.169614 
L 882.913865 367.9608 
L 884.955328 364.084887 
L 886.996792 371.084478 
L 889.038255 365.662683 
L 891.079719 370.271015 
L 893.121182 377.64 
L 895.162646 376.602588 
L 897.204109 369.476086 
L 899.245572 369.780912 
L 901.287036 368.56076 
L 903.328499 371.976656 
L 905.369963 371.992294 
L 907.411426 360.245974 
L 909.452889 369.69825 
L 911.494353 314.289449 
L 913.535816 369.890064 
L 915.57728 373.746503 
L 917.618743 365.710243 
L 919.660207 357.355763 
L 921.70167 373.666476 
L 923.743133 366.454511 
L 925.784597 353.770099 
L 927.82606 361.865358 
L 929.867524 362.075559 
L 931.908987 358.619144 
L 933.95045 366.293496 
L 935.991914 360.606247 
L 938.033377 363.505846 
L 940.074841 365.248966 
L 940.074841 245.203421 
L 940.074841 245.203421 
L 938.033377 250.948141 
L 935.991914 249.115096 
L 933.95045 251.870047 
L 931.908987 248.741499 
L 929.867524 250.771735 
L 927.82606 249.71558 
L 925.784597 251.164115 
L 923.743133 255.770476 
L 921.70167 256.815917 
L 919.660207 254.378825 
L 917.618743 255.518496 
L 915.57728 260.541525 
L 913.535816 258.044899 
L 911.494353 249.455482 
L 909.452889 260.101216 
L 907.411426 258.892688 
L 905.369963 261.844967 
L 903.328499 262.527771 
L 901.287036 262.116712 
L 899.245572 264.093948 
L 897.204109 264.510831 
L 895.162646 267.095246 
L 893.121182 268.093127 
L 891.079719 267.147432 
L 889.038255 266.337436 
L 886.996792 267.725256 
L 884.955328 265.655617 
L 882.913865 267.197944 
L 880.872402 267.123988 
L 878.830938 266.094352 
L 876.789475 269.778959 
L 874.748011 270.754716 
L 872.706548 272.401956 
L 870.665085 268.71187 
L 868.623621 269.424402 
L 866.582158 270.369185 
L 864.540694 274.249196 
L 862.499231 269.87019 
L 860.457768 273.957722 
L 858.416304 271.393633 
L 856.374841 269.887633 
L 854.333377 272.235996 
L 852.291914 265.742613 
L 850.25045 272.081538 
L 848.208987 276.43182 
L 846.167524 275.414326 
L 844.12606 274.876998 
L 842.084597 269.950286 
L 840.043133 269.622611 
L 838.00167 272.411099 
L 835.960207 272.274473 
L 833.918743 268.986 
L 831.87728 269.200059 
L 829.835816 269.87528 
L 827.794353 264.328751 
L 825.752889 262.563255 
L 823.711426 262.369852 
L 821.669963 265.519596 
L 819.628499 264.73069 
L 817.587036 262.362702 
L 815.545572 260.645468 
L 813.504109 255.31699 
L 811.462646 260.895508 
L 809.421182 248.766758 
L 807.379719 257.282871 
L 805.338255 243.431512 
L 803.296792 258.131423 
L 801.255328 249.631155 
L 799.213865 248.874319 
L 797.172402 254.953131 
L 795.130938 248.856735 
L 793.089475 239.67561 
L 791.048011 247.082896 
L 789.006548 246.542448 
L 786.965085 246.22649 
L 784.923621 233.920074 
L 782.882158 243.807891 
L 780.840694 239.043697 
L 778.799231 237.498835 
L 776.757768 236.53553 
L 774.716304 234.752849 
L 772.674841 237.243377 
L 770.633377 232.866586 
L 768.591914 224.389302 
L 766.55045 228.975029 
L 764.508987 225.218584 
L 762.467524 219.702699 
L 760.42606 227.773008 
L 758.384597 218.580454 
L 756.343133 186.722059 
L 754.30167 210.570143 
L 752.260207 210.372917 
L 750.218743 210.094634 
L 748.17728 207.52478 
L 746.135816 207.198941 
L 744.094353 197.847815 
L 742.052889 193.5904 
L 740.011426 200.875176 
L 737.969963 187.950195 
L 735.928499 201.204956 
L 733.887036 182.443655 
L 731.845572 193.396532 
L 729.804109 180.842876 
L 727.762646 164.909044 
L 725.721182 179.452994 
L 723.679719 165.322612 
L 721.638255 166.140332 
L 719.596792 165.356681 
L 717.555328 166.581426 
L 715.513865 179.644997 
L 713.472402 182.444165 
L 711.430938 166.481956 
L 709.389475 149.586167 
L 707.348011 153.987564 
L 705.306548 150.358904 
L 703.265085 160.518358 
L 701.223621 159.125141 
L 699.182158 154.616543 
L 697.140694 159.745236 
L 695.099231 158.984466 
L 693.057768 150.154357 
L 691.016304 150.826022 
L 688.974841 147.189946 
L 686.933377 142.773652 
L 684.891914 161.558754 
L 682.85045 150.386063 
L 680.808987 135.215342 
L 678.767524 141.919354 
L 676.72606 147.88336 
L 674.684597 143.31671 
L 672.643133 139.702593 
L 670.60167 141.84194 
L 668.560207 148.134832 
L 666.518743 140.486871 
L 664.47728 137.416163 
L 662.435816 140.00385 
L 660.394353 135.05179 
L 658.352889 136.102958 
L 656.311426 126.541272 
L 654.269963 129.481558 
L 652.228499 117.908914 
L 650.187036 127.167619 
L 648.145572 122.252697 
L 646.104109 124.568381 
L 644.062646 120.434515 
L 642.021182 126.717808 
L 639.979719 116.274949 
L 637.938255 121.615261 
L 635.896792 115.151131 
L 633.855328 115.878626 
L 631.813865 110.483582 
L 629.772402 113.842353 
L 627.730938 120.573627 
L 625.689475 112.706444 
L 623.648011 114.55267 
L 621.606548 100.631153 
L 619.565085 106.609775 
L 617.523621 110.318811 
L 615.482158 99.725594 
L 613.440694 112.34536 
L 611.399231 112.050062 
L 609.357768 99.060162 
L 607.316304 99.633821 
L 605.274841 98.606823 
L 603.233377 93.876242 
L 601.191914 97.009009 
L 599.15045 96.318521 
L 597.108987 112.27483 
L 595.067524 100.93778 
L 593.02606 93.036258 
L 590.984597 93.197814 
L 588.943133 90.989828 
L 586.90167 85.586199 
L 584.860207 86.964856 
L 582.818743 83.727765 
L 580.77728 86.80966 
L 578.735816 82.157793 
L 576.694353 91.402994 
L 574.652889 92.183561 
L 572.611426 89.608549 
L 570.569963 91.405377 
L 568.528499 87.238871 
L 566.487036 89.589757 
L 564.445572 91.025617 
L 562.404109 94.194867 
L 560.362646 90.744251 
L 558.321182 95.104247 
L 556.279719 93.906716 
L 554.238255 102.410041 
L 552.196792 95.775171 
L 550.155328 91.990418 
L 548.113865 95.416815 
L 546.072402 97.136452 
L 544.030938 96.782196 
L 541.989475 101.44876 
L 539.948011 96.399345 
L 537.906548 99.699292 
L 535.865085 97.659416 
L 533.823621 98.525345 
L 531.782158 96.720738 
L 529.740694 94.13835 
L 527.699231 98.304081 
L 525.657768 103.672637 
L 523.616304 97.750469 
L 521.574841 101.089668 
L 519.533377 99.539138 
L 517.491914 101.069522 
L 515.45045 105.673371 
L 513.408987 103.89193 
L 511.367524 107.449258 
L 509.32606 108.290424 
L 507.284597 104.096641 
L 505.243133 106.537651 
L 503.20167 109.151723 
L 501.160207 109.956565 
L 499.118743 109.855826 
L 497.07728 111.576003 
L 495.035816 111.294692 
L 492.994353 113.963154 
L 490.952889 114.748213 
L 488.911426 115.331961 
L 486.869963 115.849335 
L 484.828499 110.736671 
L 482.787036 116.150634 
L 480.745572 118.159409 
L 478.704109 117.354713 
L 476.662646 117.312149 
L 474.621182 117.123772 
L 472.579719 118.444385 
L 470.538255 117.696235 
L 468.496792 119.774863 
L 466.455328 120.328784 
L 464.413865 119.499412 
L 462.372402 120.064802 
L 460.330938 120.916806 
L 458.289475 121.798768 
L 456.248011 125.513678 
L 454.206548 126.115034 
L 452.165085 127.706305 
L 450.123621 126.316029 
L 448.082158 127.799313 
L 446.040694 127.545369 
L 443.999231 127.669834 
L 441.957768 125.118773 
L 439.916304 130.341711 
L 437.874841 130.310382 
L 435.833377 130.131512 
L 433.791914 132.995029 
L 431.75045 132.149963 
L 429.708987 132.954773 
L 427.667524 130.554288 
L 425.62606 134.625591 
L 423.584597 132.525401 
L 421.543133 136.391026 
L 419.50167 138.915045 
L 417.460207 139.112785 
L 415.418743 142.452496 
L 413.37728 144.893177 
L 411.335816 144.01029 
L 409.294353 145.207655 
L 407.252889 145.002119 
L 405.211426 146.820699 
L 403.169963 145.317676 
L 401.128499 148.168959 
L 399.087036 150.122703 
L 397.045572 150.992579 
L 395.004109 151.235355 
L 392.962646 151.300596 
L 390.921182 154.527501 
L 388.879719 154.798264 
L 386.838255 156.581161 
L 384.796792 159.528523 
L 382.755328 160.080663 
L 380.713865 156.345689 
L 378.672402 156.788335 
L 376.630938 160.181993 
L 374.589475 160.156924 
L 372.548011 162.383867 
L 370.506548 163.890086 
L 368.465085 162.434698 
L 366.423621 163.222206 
L 364.382158 164.351806 
L 362.340694 166.680344 
L 360.299231 163.326907 
L 358.257768 164.267458 
L 356.216304 163.858307 
L 354.174841 167.500204 
L 352.133377 166.527961 
L 350.091914 164.063155 
L 348.05045 165.767171 
L 346.008987 167.726257 
L 343.967524 161.157196 
L 341.92606 166.506513 
L 339.884597 158.43665 
L 337.843133 157.495166 
L 335.80167 155.381586 
L 333.760207 156.426977 
L 331.718743 156.652326 
L 329.67728 155.635944 
L 327.635816 151.243828 
L 325.594353 153.273761 
L 323.552889 144.315601 
L 321.511426 133.0752 
L 319.469963 135.910228 
L 317.428499 140.790475 
L 315.387036 127.085698 
L 313.345572 128.414743 
L 311.304109 124.581025 
L 309.262646 123.626977 
L 307.221182 106.808299 
L 305.179719 104.555334 
L 303.138255 98.607656 
L 301.096792 85.733424 
L 299.055328 75.467304 
L 297.013865 85.743504 
L 294.972402 80.187095 
L 292.930938 71.450115 
L 290.889475 67.810035 
L 288.848011 61.390464 
L 286.806548 52.884131 
L 284.765085 55.936466 
L 282.723621 41.610216 
L 280.682158 34.036718 
L 278.640694 30.593441 
L 276.599231 27.734812 
L 274.557768 29.13767 
L 272.516304 25.615143 
L 270.474841 28.459337 
L 268.433377 32.243933 
L 266.391914 25.549847 
L 264.35045 24.84 
L 262.308987 31.088209 
L 260.267524 32.43144 
L 258.22606 29.899747 
L 256.184597 42.797161 
L 254.143133 33.572213 
L 252.10167 36.560506 
L 250.060207 46.33279 
L 248.018743 43.429376 
L 245.97728 46.917432 
L 243.935816 50.016087 
L 241.894353 53.677013 
L 239.852889 57.138528 
L 237.811426 61.071896 
L 235.769963 64.687371 
L 233.728499 67.592682 
L 231.687036 72.337103 
L 229.645572 73.283037 
L 227.604109 80.982628 
L 225.562646 81.032512 
L 223.521182 84.733977 
L 221.479719 89.095164 
L 219.438255 92.263981 
L 217.396792 96.413258 
L 215.355328 99.280639 
L 213.313865 103.859868 
L 211.272402 106.485971 
L 209.230938 109.961922 
L 207.189475 113.694986 
L 205.148011 117.629368 
L 203.106548 119.982987 
L 201.065085 123.843673 
L 199.023621 126.116082 
L 196.982158 130.055376 
L 194.940694 132.266248 
L 192.899231 134.407971 
L 190.857768 136.854355 
L 188.816304 138.96032 
L 186.774841 140.663248 
L 184.733377 143.058712 
L 182.691914 143.974787 
L 180.65045 147.088541 
L 178.608987 149.00049 
L 176.567524 150.617796 
L 174.52606 152.733821 
L 172.484597 153.801224 
L 170.443133 155.61754 
L 168.40167 157.497912 
L 166.360207 159.632963 
L 164.318743 161.132239 
L 162.27728 162.607365 
L 160.235816 164.273608 
L 158.194353 165.862681 
L 156.152889 167.620487 
L 154.111426 168.914424 
L 152.069963 170.378749 
L 150.028499 171.475125 
L 147.987036 173.224171 
L 145.945572 174.331712 
L 143.904109 175.668514 
L 141.862646 177.473676 
L 139.821182 178.556235 
L 137.779719 178.491673 
L 135.738255 179.903846 
L 133.696792 180.369007 
L 131.655328 181.722553 
L 129.613865 183.386986 
L 127.572402 183.994332 
L 125.530938 184.540239 
L 123.489475 184.250307 
L 121.448011 184.869664 
L 119.406548 185.048349 
L 117.365085 185.28819 
L 115.323621 186.388636 
L 113.282158 186.838994 
L 111.240694 187.697459 
L 109.199231 186.501571 
L 107.157768 186.790348 
L 105.116304 185.191264 
L 103.074841 186.599329 
L 101.033377 186.463014 
L 98.991914 187.393577 
L 96.95045 184.153827 
L 94.908987 187.215758 
L 92.867524 186.558433 
L 90.82606 184.214654 
L 88.784597 183.35859 
L 86.743133 184.787643 
L 84.70167 187.513022 
L 82.660207 185.969334 
L 80.618743 185.571634 
L 78.57728 182.149053 
L 76.535816 181.804961 
L 74.494353 182.39546 
L 72.452889 183.994836 
L 70.411426 183.085867 
L 68.369963 182.414717 
L 66.328499 182.446961 
L 64.287036 183.34938 
L 62.245572 182.827057 
L 60.204109 183.322007 
L 58.162646 184.315389 
L 56.121182 183.226955 
L 54.079719 184.792917 
L 52.038255 184.860071 
L 49.996792 184.876527 
L 47.955328 185.811166 
L 45.913865 185.909835 
L 43.872402 186.982763 
L 41.830938 188.176949 
L 39.789475 188.035379 
L 37.748011 187.329652 
L 35.706548 186.786659 
L 33.665085 189.531487 
L 31.623621 188.893594 
L 29.582158 190.70088 
L 27.540694 190.607098 
L 25.499231 189.7387 
L 23.457768 191.538716 
L 21.416304 189.637599 
L 19.374841 189.616541 
L 17.333377 191.945247 
L 15.291914 190.083365 
L 13.25045 192.281476 
L 11.208987 192.91666 
L 9.167524 190.872207 
L 7.12606 184.590116 
L 5.084597 188.445281 
L 3.043133 186.454768 
L 1.00167 177.159701 
L -1.039793 184.900392 
L -3.081257 186.412665 
L -5.12272 177.805636 
L -7.164184 175.373554 
L -9.205647 179.831026 
L -11.247111 170.366182 
L -13.288574 153.149548 
L -15.330037 171.847499 
L -17.371501 178.856535 
L -19.412964 182.22672 
L -21.454428 159.008397 
L -23.495891 159.866888 
L -25.537354 148.121669 
L -27.578818 139.056429 
L -29.620281 157.077637 
L -31.661745 149.14791 
L -33.703208 132.940572 
L -35.744672 121.585201 
L -37.786135 122.146236 
L -39.827598 123.964547 
L -41.869062 121.478276 
L -43.910525 119.966537 
L -45.951989 126.234537 
L -47.993452 125.344877 
L -50.034915 121.021158 
L -52.076379 123.440334 
L -54.117842 121.586447 
L -56.159306 120.803871 
L -58.200769 120.848329 
L -60.242232 123.244858 
L -62.283696 124.597508 
L -64.325159 125.324658 
L -66.366623 127.369821 
L -68.408086 128.274323 
L -70.44955 129.920964 
L -72.491013 132.594524 
L -74.532476 134.677666 
L -76.57394 136.071513 
L -78.615403 137.640433 
L -80.656867 139.739712 
L -82.69833 141.000981 
L -84.739793 142.995552 
L -86.781257 145.437703 
L -88.82272 146.880423 
L -90.864184 147.833924 
L -92.905647 149.332044 
L -94.947111 150.877039 
L -96.988574 152.29406 
L -99.030037 153.650322 
L -101.071501 154.944111 
L -103.112964 156.73686 
L -105.154428 157.622163 
L -107.195891 158.923627 
L -109.237354 160.288398 
L -111.278818 161.452351 
L -113.320281 162.605274 
L -115.361745 163.565737 
L -117.403208 164.61503 
L -119.444672 166.018043 
L -121.486135 166.974942 
L -123.527598 168.092596 
L -125.569062 168.985566 
L -127.610525 170.001634 
L -129.651989 171.044336 
L -131.693452 172.102899 
L -133.734915 172.989734 
L -135.776379 174.043402 
L -137.817842 174.96673 
L -139.859306 175.958909 
L -141.900769 176.863194 
L -143.942232 177.795782 
L -145.983696 178.653157 
L -148.025159 179.575731 
L -150.066623 180.573727 
L -152.108086 181.328848 
L -154.14955 182.280655 
L -156.191013 183.098834 
L -158.232476 184.050961 
L -160.27394 184.742175 
L -162.315403 185.626992 
L -164.356867 186.469781 
L -166.39833 187.271632 
L -168.439793 188.088504 
L -170.481257 188.842859 
L -172.52272 189.725367 
L -174.564184 190.518049 
L -176.605647 191.167912 
L -178.647111 191.942427 
L -180.688574 192.715446 
L -182.730037 193.484171 
L -184.771501 194.224542 
L -186.812964 194.912507 
L -188.854428 195.67092 
L -190.895891 196.413103 
L -192.937354 197.158478 
L -194.978818 197.900349 
L -197.020281 198.661868 
L -199.061745 199.453353 
L -201.103208 200.13065 
L -203.144672 200.908963 
L -205.186135 201.671283 
L -207.227598 202.400992 
L -209.269062 203.153977 
L -211.310525 203.922238 
L -213.351989 204.665722 
L -215.393452 205.446889 
L -217.434915 206.155353 
L -219.476379 206.878955 
L -221.517842 207.645078 
L -223.559306 208.383225 
L -225.600769 209.081268 
L -227.642232 209.821481 
L -229.683696 210.492716 
L -231.725159 211.212207 
L -233.766623 211.980702 
L -235.808086 212.633861 
L -237.84955 213.368821 
L -239.891013 214.061346 
L -241.932476 214.788989 
L -243.97394 215.44263 
L -246.015403 216.213537 
L -248.056867 216.843723 
L -250.09833 217.555912 
L -252.139793 218.251376 
L -254.181257 218.965466 
L -256.22272 219.641415 
L -258.264184 220.330937 
L -260.305647 221.023674 
L -262.347111 221.741595 
L -264.388574 222.380355 
L -266.430037 222.982052 
L -268.471501 223.598742 
L -270.512964 224.220382 
L -272.554428 224.819932 
L -274.595891 225.43131 
L -276.637354 226.036158 
L -278.678818 226.613019 
L -280.720281 227.198145 
L -282.761745 227.781073 
L -284.803208 228.308985 
L -286.844672 228.847896 
L -288.886135 229.413061 
L -290.927598 229.947946 
L -292.969062 230.424039 
L -295.010525 230.953428 
L -297.051989 231.435918 
L -299.093452 231.879483 
L -301.134915 232.324723 
L -303.176379 232.740654 
L -305.217842 233.192574 
L -307.259306 233.563091 
L -309.300769 233.957202 
L -311.342232 234.32819 
L -313.383696 234.671672 
L -315.425159 234.984086 
L -317.466623 235.267403 
L -319.508086 235.549752 
L -321.54955 235.830534 
L -323.591013 236.061233 
L -325.632476 236.321531 
L -327.67394 236.540561 
L -329.715403 236.728107 
L -331.756867 236.950776 
L -333.79833 237.14504 
L -335.839793 237.3045 
L -337.881257 237.476989 
L -339.92272 237.644868 
L -341.964184 237.791659 
L -344.005647 237.939389 
L -346.047111 238.060259 
L -348.088574 238.208582 
L -350.130037 238.325017 
L -352.171501 238.448135 
L -354.212964 238.578014 
L -356.254428 238.68265 
L -358.295891 238.79424 
L -360.337354 238.942931 
L -362.378818 239.045915 
L -364.420281 239.174142 
L -366.461745 239.274344 
L -368.503208 239.410318 
L -370.544672 239.516713 
L -372.586135 239.629925 
L -374.627598 239.728397 
L -376.669062 239.817795 
L -378.710525 239.921688 
L -380.751989 240.037308 
L -382.793452 240.150404 
L -384.834915 240.245825 
L -386.876379 240.320418 
L -388.917842 240.432239 
L -390.959306 240.522412 
L -393.000769 240.631795 
z
" clip-path="url(#p9770f4ff15)" style="fill: #008000; fill-opacity: 0.3; stroke: #008000; stroke-opacity: 0.3"/>
   </g>
   <g id="matplotlib.axis_1">
    <g id="xtick_1">
     <g id="line2d_1">
      <defs>
       <path id="m4ff24ce68b" d="M 0 0 
L 0 3.5 
" style="stroke: #000000; stroke-width: 0.8"/>
      </defs>
      <g>
       <use xlink:href="#m4ff24ce68b" x="103.074841" y="395.28" style="stroke: #000000; stroke-width: 0.8"/>
      </g>
     </g>
     <g id="text_1">
      <!-- 2022-03-01 -->
      <g transform="translate(17.945813 495.213718) rotate(-45) scale(0.2 -0.2)">
       <defs>
        <path id="DejaVuSans-32" d="M 1228 531 
L 3431 531 
L 3431 0 
L 469 0 
L 469 531 
Q 828 903 1448 1529 
Q 2069 2156 2228 2338 
Q 2531 2678 2651 2914 
Q 2772 3150 2772 3378 
Q 2772 3750 2511 3984 
Q 2250 4219 1831 4219 
Q 1534 4219 1204 4116 
Q 875 4013 500 3803 
L 500 4441 
Q 881 4594 1212 4672 
Q 1544 4750 1819 4750 
Q 2544 4750 2975 4387 
Q 3406 4025 3406 3419 
Q 3406 3131 3298 2873 
Q 3191 2616 2906 2266 
Q 2828 2175 2409 1742 
Q 1991 1309 1228 531 
z
" transform="scale(0.015625)"/>
        <path id="DejaVuSans-30" d="M 2034 4250 
Q 1547 4250 1301 3770 
Q 1056 3291 1056 2328 
Q 1056 1369 1301 889 
Q 1547 409 2034 409 
Q 2525 409 2770 889 
Q 3016 1369 3016 2328 
Q 3016 3291 2770 3770 
Q 2525 4250 2034 4250 
z
M 2034 4750 
Q 2819 4750 3233 4129 
Q 3647 3509 3647 2328 
Q 3647 1150 3233 529 
Q 2819 -91 2034 -91 
Q 1250 -91 836 529 
Q 422 1150 422 2328 
Q 422 3509 836 4129 
Q 1250 4750 2034 4750 
z
" transform="scale(0.015625)"/>
        <path id="DejaVuSans-2d" d="M 313 2009 
L 1997 2009 
L 1997 1497 
L 313 1497 
L 313 2009 
z
" transform="scale(0.015625)"/>
        <path id="DejaVuSans-33" d="M 2597 2516 
Q 3050 2419 3304 2112 
Q 3559 1806 3559 1356 
Q 3559 666 3084 287 
Q 2609 -91 1734 -91 
Q 1441 -91 1130 -33 
Q 819 25 488 141 
L 488 750 
Q 750 597 1062 519 
Q 1375 441 1716 441 
Q 2309 441 2620 675 
Q 2931 909 2931 1356 
Q 2931 1769 2642 2001 
Q 2353 2234 1838 2234 
L 1294 2234 
L 1294 2753 
L 1863 2753 
Q 2328 2753 2575 2939 
Q 2822 3125 2822 3475 
Q 2822 3834 2567 4026 
Q 2313 4219 1838 4219 
Q 1578 4219 1281 4162 
Q 984 4106 628 3988 
L 628 4550 
Q 988 4650 1302 4700 
Q 1616 4750 1894 4750 
Q 2613 4750 3031 4423 
Q 3450 4097 3450 3541 
Q 3450 3153 3228 2886 
Q 3006 2619 2597 2516 
z
" transform="scale(0.015625)"/>
        <path id="DejaVuSans-31" d="M 794 531 
L 1825 531 
L 1825 4091 
L 703 3866 
L 703 4441 
L 1819 4666 
L 2450 4666 
L 2450 531 
L 3481 531 
L 3481 0 
L 794 0 
L 794 531 
z
" transform="scale(0.015625)"/>
       </defs>
       <use xlink:href="#DejaVuSans-32"/>
       <use xlink:href="#DejaVuSans-30" x="63.623047"/>
       <use xlink:href="#DejaVuSans-32" x="127.246094"/>
       <use xlink:href="#DejaVuSans-32" x="190.869141"/>
       <use xlink:href="#DejaVuSans-2d" x="254.492188"/>
       <use xlink:href="#DejaVuSans-30" x="290.576172"/>
       <use xlink:href="#DejaVuSans-33" x="354.199219"/>
       <use xlink:href="#DejaVuSans-2d" x="417.822266"/>
       <use xlink:href="#DejaVuSans-30" x="453.90625"/>
       <use xlink:href="#DejaVuSans-31" x="517.529297"/>
      </g>
     </g>
    </g>
    <g id="xtick_2">
     <g id="line2d_2">
      <g>
       <use xlink:href="#m4ff24ce68b" x="160.235816" y="395.28" style="stroke: #000000; stroke-width: 0.8"/>
      </g>
     </g>
     <g id="text_2">
      <!-- 2022-03-29 -->
      <g transform="translate(75.106789 495.213718) rotate(-45) scale(0.2 -0.2)">
       <defs>
        <path id="DejaVuSans-39" d="M 703 97 
L 703 672 
Q 941 559 1184 500 
Q 1428 441 1663 441 
Q 2288 441 2617 861 
Q 2947 1281 2994 2138 
Q 2813 1869 2534 1725 
Q 2256 1581 1919 1581 
Q 1219 1581 811 2004 
Q 403 2428 403 3163 
Q 403 3881 828 4315 
Q 1253 4750 1959 4750 
Q 2769 4750 3195 4129 
Q 3622 3509 3622 2328 
Q 3622 1225 3098 567 
Q 2575 -91 1691 -91 
Q 1453 -91 1209 -44 
Q 966 3 703 97 
z
M 1959 2075 
Q 2384 2075 2632 2365 
Q 2881 2656 2881 3163 
Q 2881 3666 2632 3958 
Q 2384 4250 1959 4250 
Q 1534 4250 1286 3958 
Q 1038 3666 1038 3163 
Q 1038 2656 1286 2365 
Q 1534 2075 1959 2075 
z
" transform="scale(0.015625)"/>
       </defs>
       <use xlink:href="#DejaVuSans-32"/>
       <use xlink:href="#DejaVuSans-30" x="63.623047"/>
       <use xlink:href="#DejaVuSans-32" x="127.246094"/>
       <use xlink:href="#DejaVuSans-32" x="190.869141"/>
       <use xlink:href="#DejaVuSans-2d" x="254.492188"/>
       <use xlink:href="#DejaVuSans-30" x="290.576172"/>
       <use xlink:href="#DejaVuSans-33" x="354.199219"/>
       <use xlink:href="#DejaVuSans-2d" x="417.822266"/>
       <use xlink:href="#DejaVuSans-32" x="453.90625"/>
       <use xlink:href="#DejaVuSans-39" x="517.529297"/>
      </g>
     </g>
    </g>
    <g id="xtick_3">
     <g id="line2d_3">
      <g>
       <use xlink:href="#m4ff24ce68b" x="217.396792" y="395.28" style="stroke: #000000; stroke-width: 0.8"/>
      </g>
     </g>
     <g id="text_3">
      <!-- 2022-04-26 -->
      <g transform="translate(132.267765 495.213718) rotate(-45) scale(0.2 -0.2)">
       <defs>
        <path id="DejaVuSans-34" d="M 2419 4116 
L 825 1625 
L 2419 1625 
L 2419 4116 
z
M 2253 4666 
L 3047 4666 
L 3047 1625 
L 3713 1625 
L 3713 1100 
L 3047 1100 
L 3047 0 
L 2419 0 
L 2419 1100 
L 313 1100 
L 313 1709 
L 2253 4666 
z
" transform="scale(0.015625)"/>
        <path id="DejaVuSans-36" d="M 2113 2584 
Q 1688 2584 1439 2293 
Q 1191 2003 1191 1497 
Q 1191 994 1439 701 
Q 1688 409 2113 409 
Q 2538 409 2786 701 
Q 3034 994 3034 1497 
Q 3034 2003 2786 2293 
Q 2538 2584 2113 2584 
z
M 3366 4563 
L 3366 3988 
Q 3128 4100 2886 4159 
Q 2644 4219 2406 4219 
Q 1781 4219 1451 3797 
Q 1122 3375 1075 2522 
Q 1259 2794 1537 2939 
Q 1816 3084 2150 3084 
Q 2853 3084 3261 2657 
Q 3669 2231 3669 1497 
Q 3669 778 3244 343 
Q 2819 -91 2113 -91 
Q 1303 -91 875 529 
Q 447 1150 447 2328 
Q 447 3434 972 4092 
Q 1497 4750 2381 4750 
Q 2619 4750 2861 4703 
Q 3103 4656 3366 4563 
z
" transform="scale(0.015625)"/>
       </defs>
       <use xlink:href="#DejaVuSans-32"/>
       <use xlink:href="#DejaVuSans-30" x="63.623047"/>
       <use xlink:href="#DejaVuSans-32" x="127.246094"/>
       <use xlink:href="#DejaVuSans-32" x="190.869141"/>
       <use xlink:href="#DejaVuSans-2d" x="254.492188"/>
       <use xlink:href="#DejaVuSans-30" x="290.576172"/>
       <use xlink:href="#DejaVuSans-34" x="354.199219"/>
       <use xlink:href="#DejaVuSans-2d" x="417.822266"/>
       <use xlink:href="#DejaVuSans-32" x="453.90625"/>
       <use xlink:href="#DejaVuSans-36" x="517.529297"/>
      </g>
     </g>
    </g>
    <g id="xtick_4">
     <g id="line2d_4">
      <g>
       <use xlink:href="#m4ff24ce68b" x="274.557768" y="395.28" style="stroke: #000000; stroke-width: 0.8"/>
      </g>
     </g>
     <g id="text_4">
      <!-- 2022-05-24 -->
      <g transform="translate(189.42874 495.213718) rotate(-45) scale(0.2 -0.2)">
       <defs>
        <path id="DejaVuSans-35" d="M 691 4666 
L 3169 4666 
L 3169 4134 
L 1269 4134 
L 1269 2991 
Q 1406 3038 1543 3061 
Q 1681 3084 1819 3084 
Q 2600 3084 3056 2656 
Q 3513 2228 3513 1497 
Q 3513 744 3044 326 
Q 2575 -91 1722 -91 
Q 1428 -91 1123 -41 
Q 819 9 494 109 
L 494 744 
Q 775 591 1075 516 
Q 1375 441 1709 441 
Q 2250 441 2565 725 
Q 2881 1009 2881 1497 
Q 2881 1984 2565 2268 
Q 2250 2553 1709 2553 
Q 1456 2553 1204 2497 
Q 953 2441 691 2322 
L 691 4666 
z
" transform="scale(0.015625)"/>
       </defs>
       <use xlink:href="#DejaVuSans-32"/>
       <use xlink:href="#DejaVuSans-30" x="63.623047"/>
       <use xlink:href="#DejaVuSans-32" x="127.246094"/>
       <use xlink:href="#DejaVuSans-32" x="190.869141"/>
       <use xlink:href="#DejaVuSans-2d" x="254.492188"/>
       <use xlink:href="#DejaVuSans-30" x="290.576172"/>
       <use xlink:href="#DejaVuSans-35" x="354.199219"/>
       <use xlink:href="#DejaVuSans-2d" x="417.822266"/>
       <use xlink:href="#DejaVuSans-32" x="453.90625"/>
       <use xlink:href="#DejaVuSans-34" x="517.529297"/>
      </g>
     </g>
    </g>
    <g id="xtick_5">
     <g id="line2d_5">
      <g>
       <use xlink:href="#m4ff24ce68b" x="331.718743" y="395.28" style="stroke: #000000; stroke-width: 0.8"/>
      </g>
     </g>
     <g id="text_5">
      <!-- 2022-06-21 -->
      <g transform="translate(246.589716 495.213718) rotate(-45) scale(0.2 -0.2)">
       <use xlink:href="#DejaVuSans-32"/>
       <use xlink:href="#DejaVuSans-30" x="63.623047"/>
       <use xlink:href="#DejaVuSans-32" x="127.246094"/>
       <use xlink:href="#DejaVuSans-32" x="190.869141"/>
       <use xlink:href="#DejaVuSans-2d" x="254.492188"/>
       <use xlink:href="#DejaVuSans-30" x="290.576172"/>
       <use xlink:href="#DejaVuSans-36" x="354.199219"/>
       <use xlink:href="#DejaVuSans-2d" x="417.822266"/>
       <use xlink:href="#DejaVuSans-32" x="453.90625"/>
       <use xlink:href="#DejaVuSans-31" x="517.529297"/>
      </g>
     </g>
    </g>
    <g id="xtick_6">
     <g id="line2d_6">
      <g>
       <use xlink:href="#m4ff24ce68b" x="388.879719" y="395.28" style="stroke: #000000; stroke-width: 0.8"/>
      </g>
     </g>
     <g id="text_6">
      <!-- 2022-07-19 -->
      <g transform="translate(303.750691 495.213718) rotate(-45) scale(0.2 -0.2)">
       <defs>
        <path id="DejaVuSans-37" d="M 525 4666 
L 3525 4666 
L 3525 4397 
L 1831 0 
L 1172 0 
L 2766 4134 
L 525 4134 
L 525 4666 
z
" transform="scale(0.015625)"/>
       </defs>
       <use xlink:href="#DejaVuSans-32"/>
       <use xlink:href="#DejaVuSans-30" x="63.623047"/>
       <use xlink:href="#DejaVuSans-32" x="127.246094"/>
       <use xlink:href="#DejaVuSans-32" x="190.869141"/>
       <use xlink:href="#DejaVuSans-2d" x="254.492188"/>
       <use xlink:href="#DejaVuSans-30" x="290.576172"/>
       <use xlink:href="#DejaVuSans-37" x="354.199219"/>
       <use xlink:href="#DejaVuSans-2d" x="417.822266"/>
       <use xlink:href="#DejaVuSans-31" x="453.90625"/>
       <use xlink:href="#DejaVuSans-39" x="517.529297"/>
      </g>
     </g>
    </g>
    <g id="xtick_7">
     <g id="line2d_7">
      <g>
       <use xlink:href="#m4ff24ce68b" x="446.040694" y="395.28" style="stroke: #000000; stroke-width: 0.8"/>
      </g>
     </g>
     <g id="text_7">
      <!-- 2022-08-16 -->
      <g transform="translate(360.911667 495.213718) rotate(-45) scale(0.2 -0.2)">
       <defs>
        <path id="DejaVuSans-38" d="M 2034 2216 
Q 1584 2216 1326 1975 
Q 1069 1734 1069 1313 
Q 1069 891 1326 650 
Q 1584 409 2034 409 
Q 2484 409 2743 651 
Q 3003 894 3003 1313 
Q 3003 1734 2745 1975 
Q 2488 2216 2034 2216 
z
M 1403 2484 
Q 997 2584 770 2862 
Q 544 3141 544 3541 
Q 544 4100 942 4425 
Q 1341 4750 2034 4750 
Q 2731 4750 3128 4425 
Q 3525 4100 3525 3541 
Q 3525 3141 3298 2862 
Q 3072 2584 2669 2484 
Q 3125 2378 3379 2068 
Q 3634 1759 3634 1313 
Q 3634 634 3220 271 
Q 2806 -91 2034 -91 
Q 1263 -91 848 271 
Q 434 634 434 1313 
Q 434 1759 690 2068 
Q 947 2378 1403 2484 
z
M 1172 3481 
Q 1172 3119 1398 2916 
Q 1625 2713 2034 2713 
Q 2441 2713 2670 2916 
Q 2900 3119 2900 3481 
Q 2900 3844 2670 4047 
Q 2441 4250 2034 4250 
Q 1625 4250 1398 4047 
Q 1172 3844 1172 3481 
z
" transform="scale(0.015625)"/>
       </defs>
       <use xlink:href="#DejaVuSans-32"/>
       <use xlink:href="#DejaVuSans-30" x="63.623047"/>
       <use xlink:href="#DejaVuSans-32" x="127.246094"/>
       <use xlink:href="#DejaVuSans-32" x="190.869141"/>
       <use xlink:href="#DejaVuSans-2d" x="254.492188"/>
       <use xlink:href="#DejaVuSans-30" x="290.576172"/>
       <use xlink:href="#DejaVuSans-38" x="354.199219"/>
       <use xlink:href="#DejaVuSans-2d" x="417.822266"/>
       <use xlink:href="#DejaVuSans-31" x="453.90625"/>
       <use xlink:href="#DejaVuSans-36" x="517.529297"/>
      </g>
     </g>
    </g>
    <g id="xtick_8">
     <g id="line2d_8">
      <g>
       <use xlink:href="#m4ff24ce68b" x="503.20167" y="395.28" style="stroke: #000000; stroke-width: 0.8"/>
      </g>
     </g>
     <g id="text_8">
      <!-- 2022-09-13 -->
      <g transform="translate(418.072643 495.213718) rotate(-45) scale(0.2 -0.2)">
       <use xlink:href="#DejaVuSans-32"/>
       <use xlink:href="#DejaVuSans-30" x="63.623047"/>
       <use xlink:href="#DejaVuSans-32" x="127.246094"/>
       <use xlink:href="#DejaVuSans-32" x="190.869141"/>
       <use xlink:href="#DejaVuSans-2d" x="254.492188"/>
       <use xlink:href="#DejaVuSans-30" x="290.576172"/>
       <use xlink:href="#DejaVuSans-39" x="354.199219"/>
       <use xlink:href="#DejaVuSans-2d" x="417.822266"/>
       <use xlink:href="#DejaVuSans-31" x="453.90625"/>
       <use xlink:href="#DejaVuSans-33" x="517.529297"/>
      </g>
     </g>
    </g>
    <g id="xtick_9">
     <g id="line2d_9">
      <g>
       <use xlink:href="#m4ff24ce68b" x="560.362646" y="395.28" style="stroke: #000000; stroke-width: 0.8"/>
      </g>
     </g>
     <g id="text_9">
      <!-- 2022-10-11 -->
      <g transform="translate(475.233618 495.213718) rotate(-45) scale(0.2 -0.2)">
       <use xlink:href="#DejaVuSans-32"/>
       <use xlink:href="#DejaVuSans-30" x="63.623047"/>
       <use xlink:href="#DejaVuSans-32" x="127.246094"/>
       <use xlink:href="#DejaVuSans-32" x="190.869141"/>
       <use xlink:href="#DejaVuSans-2d" x="254.492188"/>
       <use xlink:href="#DejaVuSans-31" x="290.576172"/>
       <use xlink:href="#DejaVuSans-30" x="354.199219"/>
       <use xlink:href="#DejaVuSans-2d" x="417.822266"/>
       <use xlink:href="#DejaVuSans-31" x="453.90625"/>
       <use xlink:href="#DejaVuSans-31" x="517.529297"/>
      </g>
     </g>
    </g>
    <g id="xtick_10">
     <g id="line2d_10">
      <g>
       <use xlink:href="#m4ff24ce68b" x="617.523621" y="395.28" style="stroke: #000000; stroke-width: 0.8"/>
      </g>
     </g>
     <g id="text_10">
      <!-- 2022-11-08 -->
      <g transform="translate(532.394594 495.213718) rotate(-45) scale(0.2 -0.2)">
       <use xlink:href="#DejaVuSans-32"/>
       <use xlink:href="#DejaVuSans-30" x="63.623047"/>
       <use xlink:href="#DejaVuSans-32" x="127.246094"/>
       <use xlink:href="#DejaVuSans-32" x="190.869141"/>
       <use xlink:href="#DejaVuSans-2d" x="254.492188"/>
       <use xlink:href="#DejaVuSans-31" x="290.576172"/>
       <use xlink:href="#DejaVuSans-31" x="354.199219"/>
       <use xlink:href="#DejaVuSans-2d" x="417.822266"/>
       <use xlink:href="#DejaVuSans-30" x="453.90625"/>
       <use xlink:href="#DejaVuSans-38" x="517.529297"/>
      </g>
     </g>
    </g>
    <g id="xtick_11">
     <g id="line2d_11">
      <g>
       <use xlink:href="#m4ff24ce68b" x="674.684597" y="395.28" style="stroke: #000000; stroke-width: 0.8"/>
      </g>
     </g>
     <g id="text_11">
      <!-- 2022-12-06 -->
      <g transform="translate(589.555569 495.213718) rotate(-45) scale(0.2 -0.2)">
       <use xlink:href="#DejaVuSans-32"/>
       <use xlink:href="#DejaVuSans-30" x="63.623047"/>
       <use xlink:href="#DejaVuSans-32" x="127.246094"/>
       <use xlink:href="#DejaVuSans-32" x="190.869141"/>
       <use xlink:href="#DejaVuSans-2d" x="254.492188"/>
       <use xlink:href="#DejaVuSans-31" x="290.576172"/>
       <use xlink:href="#DejaVuSans-32" x="354.199219"/>
       <use xlink:href="#DejaVuSans-2d" x="417.822266"/>
       <use xlink:href="#DejaVuSans-30" x="453.90625"/>
       <use xlink:href="#DejaVuSans-36" x="517.529297"/>
      </g>
     </g>
    </g>
    <g id="xtick_12">
     <g id="line2d_12">
      <g>
       <use xlink:href="#m4ff24ce68b" x="731.845572" y="395.28" style="stroke: #000000; stroke-width: 0.8"/>
      </g>
     </g>
     <g id="text_12">
      <!-- 2023-01-03 -->
      <g transform="translate(646.716545 495.213718) rotate(-45) scale(0.2 -0.2)">
       <use xlink:href="#DejaVuSans-32"/>
       <use xlink:href="#DejaVuSans-30" x="63.623047"/>
       <use xlink:href="#DejaVuSans-32" x="127.246094"/>
       <use xlink:href="#DejaVuSans-33" x="190.869141"/>
       <use xlink:href="#DejaVuSans-2d" x="254.492188"/>
       <use xlink:href="#DejaVuSans-30" x="290.576172"/>
       <use xlink:href="#DejaVuSans-31" x="354.199219"/>
       <use xlink:href="#DejaVuSans-2d" x="417.822266"/>
       <use xlink:href="#DejaVuSans-30" x="453.90625"/>
       <use xlink:href="#DejaVuSans-33" x="517.529297"/>
      </g>
     </g>
    </g>
    <g id="xtick_13">
     <g id="line2d_13">
      <g>
       <use xlink:href="#m4ff24ce68b" x="789.006548" y="395.28" style="stroke: #000000; stroke-width: 0.8"/>
      </g>
     </g>
     <g id="text_13">
      <!-- 2023-01-31 -->
      <g transform="translate(703.877521 495.213718) rotate(-45) scale(0.2 -0.2)">
       <use xlink:href="#DejaVuSans-32"/>
       <use xlink:href="#DejaVuSans-30" x="63.623047"/>
       <use xlink:href="#DejaVuSans-32" x="127.246094"/>
       <use xlink:href="#DejaVuSans-33" x="190.869141"/>
       <use xlink:href="#DejaVuSans-2d" x="254.492188"/>
       <use xlink:href="#DejaVuSans-30" x="290.576172"/>
       <use xlink:href="#DejaVuSans-31" x="354.199219"/>
       <use xlink:href="#DejaVuSans-2d" x="417.822266"/>
       <use xlink:href="#DejaVuSans-33" x="453.90625"/>
       <use xlink:href="#DejaVuSans-31" x="517.529297"/>
      </g>
     </g>
    </g>
    <g id="xtick_14">
     <g id="line2d_14">
      <g>
       <use xlink:href="#m4ff24ce68b" x="846.167524" y="395.28" style="stroke: #000000; stroke-width: 0.8"/>
      </g>
     </g>
     <g id="text_14">
      <!-- 2023-02-28 -->
      <g transform="translate(761.038496 495.213718) rotate(-45) scale(0.2 -0.2)">
       <use xlink:href="#DejaVuSans-32"/>
       <use xlink:href="#DejaVuSans-30" x="63.623047"/>
       <use xlink:href="#DejaVuSans-32" x="127.246094"/>
       <use xlink:href="#DejaVuSans-33" x="190.869141"/>
       <use xlink:href="#DejaVuSans-2d" x="254.492188"/>
       <use xlink:href="#DejaVuSans-30" x="290.576172"/>
       <use xlink:href="#DejaVuSans-32" x="354.199219"/>
       <use xlink:href="#DejaVuSans-2d" x="417.822266"/>
       <use xlink:href="#DejaVuSans-32" x="453.90625"/>
       <use xlink:href="#DejaVuSans-38" x="517.529297"/>
      </g>
     </g>
    </g>
    <g id="xtick_15">
     <g id="line2d_15">
      <g>
       <use xlink:href="#m4ff24ce68b" x="903.328499" y="395.28" style="stroke: #000000; stroke-width: 0.8"/>
      </g>
     </g>
     <g id="text_15">
      <!-- 2023-03-28 -->
      <g transform="translate(818.199472 495.213718) rotate(-45) scale(0.2 -0.2)">
       <use xlink:href="#DejaVuSans-32"/>
       <use xlink:href="#DejaVuSans-30" x="63.623047"/>
       <use xlink:href="#DejaVuSans-32" x="127.246094"/>
       <use xlink:href="#DejaVuSans-33" x="190.869141"/>
       <use xlink:href="#DejaVuSans-2d" x="254.492188"/>
       <use xlink:href="#DejaVuSans-30" x="290.576172"/>
       <use xlink:href="#DejaVuSans-33" x="354.199219"/>
       <use xlink:href="#DejaVuSans-2d" x="417.822266"/>
       <use xlink:href="#DejaVuSans-32" x="453.90625"/>
       <use xlink:href="#DejaVuSans-38" x="517.529297"/>
      </g>
     </g>
    </g>
    <g id="xtick_16">
     <g id="line2d_16">
      <g>
       <use xlink:href="#m4ff24ce68b" x="940.074841" y="395.28" style="stroke: #000000; stroke-width: 0.8"/>
      </g>
     </g>
     <g id="text_16">
      <!-- 2023-04-15 -->
      <g transform="translate(854.945813 495.213718) rotate(-45) scale(0.2 -0.2)">
       <use xlink:href="#DejaVuSans-32"/>
       <use xlink:href="#DejaVuSans-30" x="63.623047"/>
       <use xlink:href="#DejaVuSans-32" x="127.246094"/>
       <use xlink:href="#DejaVuSans-33" x="190.869141"/>
       <use xlink:href="#DejaVuSans-2d" x="254.492188"/>
       <use xlink:href="#DejaVuSans-30" x="290.576172"/>
       <use xlink:href="#DejaVuSans-34" x="354.199219"/>
       <use xlink:href="#DejaVuSans-2d" x="417.822266"/>
       <use xlink:href="#DejaVuSans-31" x="453.90625"/>
       <use xlink:href="#DejaVuSans-35" x="517.529297"/>
      </g>
     </g>
    </g>
   </g>
   <g id="matplotlib.axis_2">
    <g id="ytick_1">
     <g id="line2d_17">
      <defs>
       <path id="m2eccb83b7c" d="M 0 0 
L -3.5 0 
" style="stroke: #000000; stroke-width: 0.8"/>
      </defs>
      <g>
       <use xlink:href="#m2eccb83b7c" x="103.074841" y="323.376801" style="stroke: #000000; stroke-width: 0.8"/>
      </g>
     </g>
     <g id="text_17">
      <!-- 0.05 -->
      <g transform="translate(34.784216 330.975239) scale(0.2 -0.2)">
       <defs>
        <path id="DejaVuSans-2212" d="M 678 2272 
L 4684 2272 
L 4684 1741 
L 678 1741 
L 678 2272 
z
" transform="scale(0.015625)"/>
        <path id="DejaVuSans-2e" d="M 684 794 
L 1344 794 
L 1344 0 
L 684 0 
L 684 794 
z
" transform="scale(0.015625)"/>
       </defs>
       <use xlink:href="#DejaVuSans-2212"/>
       <use xlink:href="#DejaVuSans-30" x="83.789062"/>
       <use xlink:href="#DejaVuSans-2e" x="147.412109"/>
       <use xlink:href="#DejaVuSans-30" x="179.199219"/>
       <use xlink:href="#DejaVuSans-35" x="242.822266"/>
      </g>
     </g>
    </g>
    <g id="ytick_2">
     <g id="line2d_18">
      <g>
       <use xlink:href="#m2eccb83b7c" x="103.074841" y="240.73712" style="stroke: #000000; stroke-width: 0.8"/>
      </g>
     </g>
     <g id="text_18">
      <!-- 0.00 -->
      <g transform="translate(51.543591 248.335557) scale(0.2 -0.2)">
       <use xlink:href="#DejaVuSans-30"/>
       <use xlink:href="#DejaVuSans-2e" x="63.623047"/>
       <use xlink:href="#DejaVuSans-30" x="95.410156"/>
       <use xlink:href="#DejaVuSans-30" x="159.033203"/>
      </g>
     </g>
    </g>
    <g id="ytick_3">
     <g id="line2d_19">
      <g>
       <use xlink:href="#m2eccb83b7c" x="103.074841" y="158.097438" style="stroke: #000000; stroke-width: 0.8"/>
      </g>
     </g>
     <g id="text_19">
      <!-- 0.05 -->
      <g transform="translate(51.543591 165.695876) scale(0.2 -0.2)">
       <use xlink:href="#DejaVuSans-30"/>
       <use xlink:href="#DejaVuSans-2e" x="63.623047"/>
       <use xlink:href="#DejaVuSans-30" x="95.410156"/>
       <use xlink:href="#DejaVuSans-35" x="159.033203"/>
      </g>
     </g>
    </g>
    <g id="ytick_4">
     <g id="line2d_20">
      <g>
       <use xlink:href="#m2eccb83b7c" x="103.074841" y="75.457757" style="stroke: #000000; stroke-width: 0.8"/>
      </g>
     </g>
     <g id="text_20">
      <!-- 0.10 -->
      <g transform="translate(51.543591 83.056194) scale(0.2 -0.2)">
       <use xlink:href="#DejaVuSans-30"/>
       <use xlink:href="#DejaVuSans-2e" x="63.623047"/>
       <use xlink:href="#DejaVuSans-31" x="95.410156"/>
       <use xlink:href="#DejaVuSans-30" x="159.033203"/>
      </g>
     </g>
    </g>
   </g>
   <g id="line2d_21">
    <path d="M 0 0 
" clip-path="url(#p9770f4ff15)" style="fill: none; stroke: #ffa500; stroke-width: 1.5; stroke-linecap: square"/>
   </g>
   <g id="line2d_22">
    <path d="M 103.074841 240.73712 
L 948.274841 240.73712 
" clip-path="url(#p9770f4ff15)" style="fill: none; stroke-dasharray: 7.4,3.2; stroke-dashoffset: 0; stroke: #000000; stroke-width: 2"/>
   </g>
   <g id="patch_3">
    <path d="M 103.074841 395.28 
L 103.074841 7.2 
" style="fill: none; stroke: #000000; stroke-width: 0.8; stroke-linejoin: miter; stroke-linecap: square"/>
   </g>
   <g id="patch_4">
    <path d="M 940.074841 395.28 
L 940.074841 7.2 
" style="fill: none; stroke: #000000; stroke-width: 0.8; stroke-linejoin: miter; stroke-linecap: square"/>
   </g>
   <g id="patch_5">
    <path d="M 103.074841 395.28 
L 940.074841 395.28 
" style="fill: none; stroke: #000000; stroke-width: 0.8; stroke-linejoin: miter; stroke-linecap: square"/>
   </g>
   <g id="patch_6">
    <path d="M 103.074841 7.2 
L 940.074841 7.2 
" style="fill: none; stroke: #000000; stroke-width: 0.8; stroke-linejoin: miter; stroke-linecap: square"/>
   </g>
  </g>
 </g>
 <defs>
  <clipPath id="p9770f4ff15">
   <rect x="103.074841" y="7.2" width="837" height="388.08"/>
  </clipPath>
 </defs>
</svg>
