<?xml version="1.0" encoding="utf-8" standalone="no"?>
<!DOCTYPE svg PUBLIC "-//W3C//DTD SVG 1.1//EN"
  "http://www.w3.org/Graphics/SVG/1.1/DTD/svg11.dtd">
<svg xmlns:xlink="http://www.w3.org/1999/xlink" width="947.274841pt" height="505.354841pt" viewBox="0 0 947.274841 505.354841" xmlns="http://www.w3.org/2000/svg" version="1.1">
 <metadata>
  <rdf:RDF xmlns:dc="http://purl.org/dc/elements/1.1/" xmlns:cc="http://creativecommons.org/ns#" xmlns:rdf="http://www.w3.org/1999/02/22-rdf-syntax-ns#">
   <cc:Work>
    <dc:type rdf:resource="http://purl.org/dc/dcmitype/StillImage"/>
    <dc:date>2023-11-12T23:20:38.639237</dc:date>
    <dc:format>image/svg+xml</dc:format>
    <dc:creator>
     <cc:Agent>
      <dc:title>Matplotlib v3.7.2, https://matplotlib.org/</dc:title>
     </cc:Agent>
    </dc:creator>
   </cc:Work>
  </rdf:RDF>
 </metadata>
 <defs>
  <style type="text/css">*{stroke-linejoin: round; stroke-linecap: butt}</style>
 </defs>
 <g id="figure_1">
  <g id="patch_1">
   <path d="M 0 505.354841 
L 947.274841 505.354841 
L 947.274841 -0 
L 0 -0 
z
" style="fill: #ffffff"/>
  </g>
  <g id="axes_1">
   <g id="patch_2">
    <path d="M 103.074841 395.28 
L 940.074841 395.28 
L 940.074841 7.2 
L 103.074841 7.2 
z
" style="fill: #ffffff"/>
   </g>
   <g id="PolyCollection_1">
    <path d="M -393.000769 294.402871 
L -393.000769 294.41767 
L -390.959306 294.344539 
L -388.917842 294.280823 
L -386.876379 294.199941 
L -384.834915 294.145318 
L -382.793452 294.075891 
L -380.751989 294.002375 
L -378.710525 293.931182 
L -376.669062 293.864027 
L -374.627598 293.804549 
L -372.586135 293.736309 
L -370.544672 293.664912 
L -368.503208 293.595336 
L -366.461745 293.510746 
L -364.420281 293.43989 
L -362.378818 293.357127 
L -360.337354 293.285532 
L -358.295891 293.190269 
L -356.254428 293.111051 
L -354.212964 293.034497 
L -352.171501 292.944736 
L -350.130037 292.857015 
L -348.088574 292.771051 
L -346.047111 292.668207 
L -344.005647 292.577453 
L -341.964184 292.471945 
L -339.92272 292.365037 
L -337.881257 292.24715 
L -335.839793 292.12592 
L -333.79833 292.006961 
L -331.756867 291.869979 
L -329.715403 291.715564 
L -327.67394 291.577384 
L -325.632476 291.420943 
L -323.591013 291.242872 
L -321.54955 291.076212 
L -319.508086 290.881738 
L -317.466623 290.683869 
L -315.425159 290.479839 
L -313.383696 290.264392 
L -311.342232 290.026082 
L -309.300769 289.772443 
L -307.259306 289.503723 
L -305.217842 289.243759 
L -303.176379 288.93985 
L -301.134915 288.649669 
L -299.093452 288.340854 
L -297.051989 288.030372 
L -295.010525 287.696692 
L -292.969062 287.336099 
L -290.927598 287.000682 
L -288.886135 286.628471 
L -286.844672 286.243348 
L -284.803208 285.865248 
L -282.761745 285.490523 
L -280.720281 285.085033 
L -278.678818 284.675041 
L -276.637354 284.265483 
L -274.595891 283.839307 
L -272.554428 283.407915 
L -270.512964 282.97748 
L -268.471501 282.532805 
L -266.430037 282.086946 
L -264.388574 281.647391 
L -262.347111 281.190298 
L -260.305647 280.702455 
L -258.264184 280.229016 
L -256.22272 279.756512 
L -254.181257 279.291021 
L -252.139793 278.807135 
L -250.09833 278.333986 
L -248.056867 277.853009 
L -246.015403 277.416897 
L -243.97394 276.906932 
L -241.932476 276.462448 
L -239.891013 275.977526 
L -237.84955 275.514892 
L -235.808086 275.036701 
L -233.766623 274.606129 
L -231.725159 274.114833 
L -229.683696 273.651838 
L -227.642232 273.220473 
L -225.600769 272.754247 
L -223.559306 272.311846 
L -221.517842 271.849987 
L -219.476379 271.385475 
L -217.434915 270.93874 
L -215.393452 270.500433 
L -213.351989 270.030071 
L -211.310525 269.580698 
L -209.269062 269.124446 
L -207.227598 268.675356 
L -205.186135 268.236435 
L -203.144672 267.786137 
L -201.103208 267.331693 
L -199.061745 266.920371 
L -197.020281 266.457648 
L -194.978818 266.013502 
L -192.937354 265.576397 
L -190.895891 265.138903 
L -188.854428 264.702543 
L -186.812964 264.260956 
L -184.771501 263.838835 
L -182.730037 263.400798 
L -180.688574 262.952576 
L -178.647111 262.499656 
L -176.605647 262.042122 
L -174.564184 261.612312 
L -172.52272 261.141753 
L -170.481257 260.641569 
L -168.439793 260.170274 
L -166.39833 259.674498 
L -164.356867 259.171291 
L -162.315403 258.641205 
L -160.27394 258.101787 
L -158.232476 257.598482 
L -156.191013 257.027771 
L -154.14955 256.483784 
L -152.108086 255.899995 
L -150.066623 255.361322 
L -148.025159 254.732456 
L -145.983696 254.115102 
L -143.942232 253.513966 
L -141.900769 252.902461 
L -139.859306 252.272594 
L -137.817842 251.615288 
L -135.776379 250.997028 
L -133.734915 250.292817 
L -131.693452 249.669506 
L -129.651989 248.944729 
L -127.610525 248.241055 
L -125.569062 247.552731 
L -123.527598 246.890741 
L -121.486135 246.123057 
L -119.444672 245.425937 
L -117.403208 244.547984 
L -115.361745 243.787517 
L -113.320281 243.075879 
L -111.278818 242.275988 
L -109.237354 241.45565 
L -107.195891 240.515545 
L -105.154428 239.631103 
L -103.112964 238.885641 
L -101.071501 237.728216 
L -99.030037 236.78916 
L -96.988574 235.829123 
L -94.947111 234.833312 
L -92.905647 233.704237 
L -90.864184 232.637908 
L -88.82272 231.818518 
L -86.781257 230.786892 
L -84.739793 229.126918 
L -82.69833 227.719903 
L -80.656867 226.662304 
L -78.615403 225.219699 
L -76.57394 224.009772 
L -74.532476 223.050811 
L -72.491013 221.806552 
L -70.44955 220.094714 
L -68.408086 219.069093 
L -66.366623 218.517869 
L -64.325159 217.260705 
L -62.283696 216.820357 
L -60.242232 216.014997 
L -58.200769 214.511041 
L -56.159306 214.581033 
L -54.117842 215.133821 
L -52.076379 216.355142 
L -50.034915 214.901259 
L -47.993452 217.675416 
L -45.951989 218.269545 
L -43.910525 214.459278 
L -41.869062 215.50265 
L -39.827598 217.153065 
L -37.786135 216.143754 
L -35.744672 215.921732 
L -33.703208 223.092103 
L -31.661745 233.298978 
L -29.620281 238.381584 
L -27.578818 227.298016 
L -25.537354 233.001847 
L -23.495891 240.476315 
L -21.454428 240.056757 
L -19.412964 255.264827 
L -17.371501 253.217153 
L -15.330037 248.597477 
L -13.288574 237.112043 
L -11.247111 247.959051 
L -9.205647 254.49523 
L -7.164184 251.807401 
L -5.12272 253.536439 
L -3.081257 259.712226 
L -1.039793 258.932732 
L 1.00167 253.678011 
L 3.043133 260.368188 
L 5.084597 261.729647 
L 7.12606 259.398842 
L 9.167524 263.665112 
L 11.208987 265.255193 
L 13.25045 264.886002 
L 15.291914 263.654416 
L 17.333377 265.091213 
L 19.374841 263.726247 
L 21.416304 263.901509 
L 23.457768 265.275 
L 25.499231 264.083095 
L 27.540694 264.780075 
L 29.582158 264.86641 
L 31.623621 263.914355 
L 33.665085 264.336815 
L 35.706548 262.941746 
L 37.748011 263.09166 
L 39.789475 263.544727 
L 41.830938 263.617943 
L 43.872402 262.961765 
L 45.913865 262.408234 
L 47.955328 262.302182 
L 49.996792 261.682548 
L 52.038255 261.623292 
L 54.079719 261.539759 
L 56.121182 260.570843 
L 58.162646 261.084003 
L 60.204109 260.450311 
L 62.245572 260.191407 
L 64.287036 260.236325 
L 66.328499 259.606705 
L 68.369963 259.464074 
L 70.411426 259.697866 
L 72.452889 260.062667 
L 74.494353 258.995916 
L 76.535816 258.80897 
L 78.57728 258.450186 
L 80.618743 260.27471 
L 82.660207 260.283732 
L 84.70167 260.948586 
L 86.743133 259.134768 
L 88.784597 257.99922 
L 90.82606 258.290701 
L 92.867524 259.443173 
L 94.908987 259.56794 
L 96.95045 257.351755 
L 98.991914 259.065852 
L 101.033377 258.51135 
L 103.074841 258.103228 
L 105.116304 257.001232 
L 107.157768 257.677919 
L 109.199231 257.063331 
L 111.240694 257.36551 
L 113.282158 256.563331 
L 115.323621 255.887179 
L 117.365085 254.798145 
L 119.406548 254.178051 
L 121.448011 253.589334 
L 123.489475 252.843473 
L 125.530938 252.51213 
L 127.572402 251.782773 
L 129.613865 251.003784 
L 131.655328 249.326429 
L 133.696792 247.991584 
L 135.738255 247.251411 
L 137.779719 245.805622 
L 139.821182 245.304215 
L 141.862646 243.981271 
L 143.904109 242.159018 
L 145.945572 240.5907 
L 147.987036 239.328503 
L 150.028499 237.443074 
L 152.069963 236.165877 
L 154.111426 234.44058 
L 156.152889 232.877224 
L 158.194353 230.984452 
L 160.235816 229.371097 
L 162.27728 227.280624 
L 164.318743 225.567047 
L 166.360207 223.725845 
L 168.40167 221.378642 
L 170.443133 219.24519 
L 172.484597 217.585162 
L 174.52606 215.72333 
L 176.567524 213.473898 
L 178.608987 211.623881 
L 180.65045 209.437447 
L 182.691914 206.426118 
L 184.733377 204.929491 
L 186.774841 202.384481 
L 188.816304 200.35087 
L 190.857768 198.094781 
L 192.899231 195.645734 
L 194.940694 193.144854 
L 196.982158 190.82811 
L 199.023621 187.818092 
L 201.065085 185.81533 
L 203.106548 182.861241 
L 205.148011 180.885511 
L 207.189475 177.977911 
L 209.230938 175.141841 
L 211.272402 172.522541 
L 213.313865 170.358361 
L 215.355328 167.037954 
L 217.396792 164.665974 
L 219.438255 161.662348 
L 221.479719 159.142261 
L 223.521182 155.993901 
L 225.562646 153.266634 
L 227.604109 152.594779 
L 229.645572 147.647847 
L 231.687036 146.554374 
L 233.728499 143.398538 
L 235.769963 141.101916 
L 237.811426 138.463761 
L 239.852889 135.675292 
L 241.894353 133.11733 
L 243.935816 130.635133 
L 245.97728 128.276462 
L 248.018743 125.91017 
L 250.060207 126.980911 
L 252.10167 120.830401 
L 254.143133 118.986175 
L 256.184597 123.26909 
L 258.22606 115.946458 
L 260.267524 116.697392 
L 262.308987 115.541433 
L 264.35045 111.555617 
L 266.391914 111.794448 
L 268.433377 114.93134 
L 270.474841 112.006871 
L 272.516304 110.486906 
L 274.557768 112.346791 
L 276.599231 111.218187 
L 278.640694 112.419928 
L 280.682158 114.167805 
L 282.723621 117.371289 
L 284.765085 125.173483 
L 286.806548 123.07751 
L 288.848011 127.212512 
L 290.889475 130.608093 
L 292.930938 132.340224 
L 294.972402 138.392547 
L 297.013865 142.521265 
L 299.055328 135.807595 
L 301.096792 143.177704 
L 303.138255 152.281474 
L 305.179719 156.716374 
L 307.221182 158.793574 
L 309.262646 170.832211 
L 311.304109 171.884609 
L 313.345572 175.231386 
L 315.387036 174.446266 
L 317.428499 184.6199 
L 319.469963 181.583383 
L 321.511426 179.897209 
L 323.552889 188.596053 
L 325.594353 194.797522 
L 327.635816 194.345015 
L 329.67728 198.05642 
L 331.718743 199.31247 
L 333.760207 199.604311 
L 335.80167 199.671151 
L 337.843133 201.749445 
L 339.884597 202.949414 
L 341.92606 209.266601 
L 343.967524 206.115215 
L 346.008987 211.613595 
L 348.05045 210.432079 
L 350.091914 209.73833 
L 352.133377 211.981423 
L 354.174841 213.980077 
L 356.216304 211.520005 
L 358.257768 212.767307 
L 360.299231 212.862265 
L 362.340694 215.827846 
L 364.382158 214.365554 
L 366.423621 213.675306 
L 368.465085 214.50502 
L 370.506548 215.897046 
L 372.548011 215.15522 
L 374.589475 213.688323 
L 376.630938 214.416655 
L 378.672402 212.194218 
L 380.713865 212.333843 
L 382.755328 215.762319 
L 384.796792 215.43798 
L 386.838255 213.31303 
L 388.879719 212.677351 
L 390.921182 212.751595 
L 392.962646 210.434472 
L 395.004109 210.776876 
L 397.045572 210.580486 
L 399.087036 209.929883 
L 401.128499 209.148381 
L 403.169963 207.613316 
L 405.211426 208.18837 
L 407.252889 207.081409 
L 409.294353 206.66949 
L 411.335816 205.97883 
L 413.37728 205.82254 
L 415.418743 204.592753 
L 417.460207 202.538529 
L 419.50167 202.251449 
L 421.543133 200.551706 
L 423.584597 198.192602 
L 425.62606 199.597534 
L 427.667524 196.46382 
L 429.708987 197.529076 
L 431.75045 196.803068 
L 433.791914 196.857793 
L 435.833377 194.811059 
L 437.874841 194.535275 
L 439.916304 194.129985 
L 441.957768 191.643799 
L 443.999231 192.116525 
L 446.040694 191.796681 
L 448.082158 191.59493 
L 450.123621 190.369496 
L 452.165085 190.800332 
L 454.206548 189.552244 
L 456.248011 188.366704 
L 458.289475 186.547097 
L 460.330938 185.917208 
L 462.372402 185.481196 
L 464.413865 184.203466 
L 466.455328 184.324062 
L 468.496792 183.67473 
L 470.538255 182.54252 
L 472.579719 182.534961 
L 474.621182 181.263906 
L 476.662646 182.240293 
L 478.704109 181.347318 
L 480.745572 181.351714 
L 482.787036 179.794306 
L 484.828499 177.684592 
L 486.869963 179.423055 
L 488.911426 179.338173 
L 490.952889 178.637424 
L 492.994353 177.914103 
L 495.035816 176.446839 
L 497.07728 176.103191 
L 499.118743 175.293985 
L 501.160207 175.40242 
L 503.20167 175.092217 
L 505.243133 173.704349 
L 507.284597 171.738905 
L 509.32606 174.272949 
L 511.367524 173.659965 
L 513.408987 171.993296 
L 515.45045 173.044036 
L 517.491914 170.066697 
L 519.533377 170.423931 
L 521.574841 170.606523 
L 523.616304 168.584367 
L 525.657768 172.00372 
L 527.699231 168.554809 
L 529.740694 166.797298 
L 531.782158 169.027365 
L 533.823621 169.621518 
L 535.865085 168.512729 
L 537.906548 169.368838 
L 539.948011 167.77412 
L 541.989475 170.828487 
L 544.030938 169.248423 
L 546.072402 169.861271 
L 548.113865 167.744478 
L 550.155328 165.844664 
L 552.196792 168.211467 
L 554.238255 172.472062 
L 556.279719 167.561322 
L 558.321182 167.805657 
L 560.362646 165.952327 
L 562.404109 166.784487 
L 564.445572 166.513069 
L 566.487036 165.357052 
L 568.528499 164.909297 
L 570.569963 166.970974 
L 572.611426 165.860959 
L 574.652889 167.74711 
L 576.694353 168.085497 
L 578.735816 162.527505 
L 580.77728 164.805836 
L 582.818743 164.992038 
L 584.860207 165.379447 
L 586.90167 165.726169 
L 588.943133 169.283885 
L 590.984597 170.710977 
L 593.02606 170.561404 
L 595.067524 174.485869 
L 597.108987 180.97805 
L 599.15045 173.279941 
L 601.191914 173.209953 
L 603.233377 173.392984 
L 605.274841 175.97945 
L 607.316304 176.586773 
L 609.357768 176.588403 
L 611.399231 182.186643 
L 613.440694 184.262456 
L 615.482158 177.936479 
L 617.523621 183.68918 
L 619.565085 180.868856 
L 621.606548 179.118196 
L 623.648011 186.108308 
L 625.689475 184.728668 
L 627.730938 189.246763 
L 629.772402 187.884587 
L 631.813865 184.852072 
L 633.855328 187.687845 
L 635.896792 187.704459 
L 637.938255 190.494574 
L 639.979719 188.762126 
L 642.021182 193.35136 
L 644.062646 190.079648 
L 646.104109 192.513811 
L 648.145572 192.040732 
L 650.187036 194.717482 
L 652.228499 190.445009 
L 654.269963 195.05548 
L 656.311426 194.817697 
L 658.352889 197.973718 
L 660.394353 199.647278 
L 662.435816 199.675189 
L 664.47728 198.890302 
L 666.518743 200.930335 
L 668.560207 202.45378 
L 670.60167 201.127937 
L 672.643133 200.641325 
L 674.684597 202.430207 
L 676.72606 204.054864 
L 678.767524 201.280971 
L 680.808987 199.684689 
L 682.85045 206.075614 
L 684.891914 208.980586 
L 686.933377 202.469002 
L 688.974841 204.403606 
L 691.016304 205.380217 
L 693.057768 205.85905 
L 695.099231 209.145511 
L 697.140694 208.733499 
L 699.182158 207.405693 
L 701.223621 208.839578 
L 703.265085 209.2374 
L 705.306548 205.732506 
L 707.348011 207.522833 
L 709.389475 206.434232 
L 711.430938 211.311295 
L 713.472402 217.319291 
L 715.513865 216.477811 
L 717.555328 211.745336 
L 719.596792 211.253053 
L 721.638255 211.92771 
L 723.679719 212.178006 
L 725.721182 216.640532 
L 727.762646 211.019915 
L 729.804109 217.000178 
L 731.845572 221.823061 
L 733.887036 217.86533 
L 735.928499 224.055492 
L 737.969963 220.253834 
L 740.011426 223.654859 
L 742.052889 221.502611 
L 744.094353 223.204136 
L 746.135816 226.559966 
L 748.17728 226.405767 
L 750.218743 227.481088 
L 752.260207 227.816849 
L 754.30167 228.25004 
L 756.343133 220.309334 
L 758.384597 230.773174 
L 760.42606 235.129779 
L 762.467524 231.109413 
L 764.508987 234.97807 
L 766.55045 235.934249 
L 768.591914 233.913259 
L 770.633377 238.291567 
L 772.674841 241.299967 
L 774.716304 239.78503 
L 776.757768 241.054786 
L 778.799231 241.853892 
L 780.840694 243.050542 
L 782.882158 246.461086 
L 784.923621 240.090689 
L 786.965085 248.477848 
L 789.006548 248.920827 
L 791.048011 249.505412 
L 793.089475 244.659138 
L 795.130938 251.090213 
L 797.172402 255.459826 
L 799.213865 251.539602 
L 801.255328 252.28709 
L 803.296792 258.342033 
L 805.338255 248.612293 
L 807.379719 258.268086 
L 809.421182 252.715883 
L 811.462646 261.249588 
L 813.504109 257.767907 
L 815.545572 261.665167 
L 817.587036 263.139943 
L 819.628499 265.057869 
L 821.669963 265.929751 
L 823.711426 264.135934 
L 825.752889 264.577938 
L 827.794353 266.103269 
L 829.835816 270.238271 
L 831.87728 270.194156 
L 833.918743 270.533548 
L 835.960207 273.25227 
L 838.00167 273.815632 
L 840.043133 272.395565 
L 842.084597 273.010485 
L 844.12606 276.853015 
L 846.167524 277.75796 
L 848.208987 279.007671 
L 850.25045 276.657757 
L 852.291914 272.892316 
L 854.333377 277.787514 
L 856.374841 276.743331 
L 858.416304 278.317684 
L 860.457768 280.612356 
L 862.499231 278.414891 
L 864.540694 281.93854 
L 866.582158 279.912888 
L 868.623621 279.823086 
L 870.665085 279.903118 
L 872.706548 282.985223 
L 874.748011 282.521656 
L 876.789475 282.506152 
L 878.830938 280.668944 
L 880.872402 281.960072 
L 882.913865 282.640337 
L 884.955328 282.243142 
L 886.996792 284.273591 
L 889.038255 283.95864 
L 891.079719 285.124533 
L 893.121182 286.395717 
L 895.162646 286.375733 
L 897.204109 285.343957 
L 899.245572 285.663443 
L 901.287036 284.97629 
L 903.328499 285.890793 
L 905.369963 286.074184 
L 907.411426 284.719483 
L 909.452889 286.124792 
L 911.494353 279.569244 
L 913.535816 285.869871 
L 915.57728 288.129393 
L 917.618743 285.419845 
L 919.660207 285.218766 
L 921.70167 287.418898 
L 923.743133 287.274864 
L 925.784597 284.792059 
L 927.82606 284.427988 
L 929.867524 285.674728 
L 931.908987 284.89038 
L 933.95045 287.481693 
L 935.991914 286.210586 
L 938.033377 288.168678 
L 940.074841 285.724711 
L 940.074841 278.657541 
L 940.074841 278.657541 
L 938.033377 276.318841 
L 935.991914 273.37041 
L 933.95045 276.733949 
L 931.908987 270.574557 
L 929.867524 272.351387 
L 927.82606 271.515779 
L 925.784597 265.022987 
L 923.743133 273.429318 
L 921.70167 277.93209 
L 919.660207 265.559131 
L 917.618743 270.889182 
L 915.57728 275.958047 
L 913.535816 272.500427 
L 911.494353 231.888282 
L 909.452889 271.104172 
L 907.411426 263.627812 
L 905.369963 271.398181 
L 903.328499 270.685391 
L 901.287036 267.524065 
L 899.245572 267.722617 
L 897.204109 266.837531 
L 895.162646 271.242228 
L 893.121182 271.305125 
L 891.079719 265.300229 
L 889.038255 261.301375 
L 886.996792 264.568756 
L 884.955328 258.817979 
L 882.913865 260.963151 
L 880.872402 257.557695 
L 878.830938 253.268876 
L 876.789475 259.074623 
L 874.748011 259.64197 
L 872.706548 259.580176 
L 870.665085 252.710899 
L 868.623621 251.197485 
L 866.582158 250.86608 
L 864.540694 258.702775 
L 862.499231 247.678985 
L 860.457768 254.984689 
L 858.416304 248.503818 
L 856.374841 243.582891 
L 854.333377 247.443538 
L 852.291914 229.869341 
L 850.25045 245.288629 
L 848.208987 251.551885 
L 846.167524 248.200912 
L 844.12606 246.526571 
L 842.084597 232.391689 
L 840.043133 232.677361 
L 838.00167 237.480962 
L 835.960207 236.950301 
L 833.918743 228.986457 
L 831.87728 229.203236 
L 829.835816 228.350444 
L 827.794353 220.600138 
L 825.752889 213.897139 
L 823.711426 212.33226 
L 821.669963 217.967942 
L 819.628499 216.15654 
L 817.587036 212.672823 
L 815.545572 209.098361 
L 813.504109 197.706385 
L 811.462646 208.89302 
L 809.421182 179.64852 
L 807.379719 199.303308 
L 805.338255 171.479299 
L 803.296792 201.490771 
L 801.255328 184.803084 
L 799.213865 184.446489 
L 797.172402 192.98004 
L 795.130938 182.832332 
L 793.089475 164.350289 
L 791.048011 177.8105 
L 789.006548 177.49712 
L 786.965085 176.899088 
L 784.923621 155.358417 
L 782.882158 166.002156 
L 780.840694 163.412077 
L 778.799231 161.896168 
L 776.757768 159.507791 
L 774.716304 154.993003 
L 772.674841 159.389272 
L 770.633377 151.426357 
L 768.591914 141.498798 
L 766.55045 149.68225 
L 764.508987 143.150237 
L 762.467524 137.332001 
L 760.42606 146.781667 
L 758.384597 136.466909 
L 756.343133 109.979975 
L 754.30167 129.283879 
L 752.260207 128.503015 
L 750.218743 128.541102 
L 748.17728 126.176212 
L 746.135816 126.264594 
L 744.094353 119.04091 
L 742.052889 116.060658 
L 740.011426 121.609258 
L 737.969963 111.117493 
L 735.928499 121.836927 
L 733.887036 107.278735 
L 731.845572 115.649837 
L 729.804109 105.959182 
L 727.762646 93.960417 
L 725.721182 104.998136 
L 723.679719 94.499776 
L 721.638255 95.241347 
L 719.596792 94.798479 
L 717.555328 95.843681 
L 715.513865 105.814784 
L 713.472402 108.207719 
L 711.430938 96.296036 
L 709.389475 84.096704 
L 707.348011 87.561447 
L 705.306548 85.131425 
L 703.265085 92.853584 
L 701.223621 92.101634 
L 699.182158 89.062162 
L 697.140694 93.112381 
L 695.099231 92.854065 
L 693.057768 86.694864 
L 691.016304 87.513255 
L 688.974841 85.174587 
L 686.933377 82.28296 
L 684.891914 96.408295 
L 682.85045 88.587747 
L 680.808987 77.850574 
L 678.767524 83.13114 
L 676.72606 87.865498 
L 674.684597 84.900228 
L 672.643133 82.644771 
L 670.60167 84.590843 
L 668.560207 89.595883 
L 666.518743 84.400464 
L 664.47728 82.561318 
L 662.435816 84.843871 
L 660.394353 81.637486 
L 658.352889 82.825408 
L 656.311426 76.256035 
L 654.269963 78.811637 
L 652.228499 70.776161 
L 650.187036 77.934768 
L 648.145572 74.760034 
L 646.104109 76.854702 
L 644.062646 74.757289 
L 642.021182 79.187268 
L 639.979719 72.012542 
L 637.938255 76.759032 
L 635.896792 72.289396 
L 633.855328 73.329159 
L 631.813865 69.86022 
L 629.772402 71.920349 
L 627.730938 77.275925 
L 625.689475 72.397153 
L 623.648011 73.780566 
L 621.606548 64.032412 
L 619.565085 68.770056 
L 617.523621 71.254656 
L 615.482158 63.788532 
L 613.440694 72.469586 
L 611.399231 73.302379 
L 609.357768 63.819249 
L 607.316304 64.174292 
L 605.274841 63.683619 
L 603.233377 60.399967 
L 601.191914 63.002715 
L 599.15045 62.343296 
L 597.108987 73.911979 
L 595.067524 66.313448 
L 593.02606 60.773173 
L 590.984597 61.177829 
L 588.943133 59.743682 
L 586.90167 56.526071 
L 584.860207 58.05403 
L 582.818743 55.996174 
L 580.77728 58.941881 
L 578.735816 55.832446 
L 576.694353 62.623909 
L 574.652889 63.806987 
L 572.611426 62.631245 
L 570.569963 64.39233 
L 568.528499 62.241165 
L 566.487036 64.483116 
L 564.445572 65.918623 
L 562.404109 69.272822 
L 560.362646 67.139483 
L 558.321182 70.850253 
L 556.279719 70.468339 
L 554.238255 77.12064 
L 552.196792 73.114028 
L 550.155328 71.104907 
L 548.113865 74.0943 
L 546.072402 75.58823 
L 544.030938 75.936231 
L 541.989475 79.862361 
L 539.948011 76.909568 
L 537.906548 79.607405 
L 535.865085 78.630483 
L 533.823621 79.425308 
L 531.782158 78.557913 
L 529.740694 77.189515 
L 527.699231 80.329141 
L 525.657768 84.442838 
L 523.616304 80.596385 
L 521.574841 83.061565 
L 519.533377 82.219803 
L 517.491914 83.691071 
L 515.45045 86.886628 
L 513.408987 86.004279 
L 511.367524 88.618058 
L 509.32606 89.416009 
L 507.284597 86.781806 
L 505.243133 88.559272 
L 503.20167 90.521902 
L 501.160207 91.317753 
L 499.118743 91.378547 
L 497.07728 92.809465 
L 495.035816 92.73818 
L 492.994353 94.794367 
L 490.952889 95.460978 
L 488.911426 96.025077 
L 486.869963 96.585911 
L 484.828499 93.287142 
L 482.787036 97.198207 
L 480.745572 98.837228 
L 478.704109 98.53157 
L 476.662646 98.773052 
L 474.621182 98.913922 
L 472.579719 100.1329 
L 470.538255 99.882787 
L 468.496792 101.653167 
L 466.455328 102.342085 
L 464.413865 102.052494 
L 462.372402 102.765508 
L 460.330938 103.693453 
L 458.289475 104.652504 
L 456.248011 107.640656 
L 454.206548 108.425869 
L 452.165085 109.934569 
L 450.123621 109.336693 
L 448.082158 110.799843 
L 446.040694 111.048999 
L 443.999231 111.585853 
L 441.957768 110.243977 
L 439.916304 114.444984 
L 437.874841 114.9409 
L 435.833377 115.355393 
L 433.791914 117.949628 
L 431.75045 117.93653 
L 429.708987 119.116079 
L 427.667524 118.04774 
L 425.62606 121.580382 
L 423.584597 120.766313 
L 421.543133 124.18684 
L 419.50167 126.673818 
L 417.460207 127.52851 
L 415.418743 130.609913 
L 413.37728 133.061025 
L 411.335816 133.172731 
L 409.294353 134.754264 
L 407.252889 135.345192 
L 405.211426 137.355936 
L 403.169963 137.023354 
L 401.128499 139.743036 
L 399.087036 141.820821 
L 397.045572 143.124025 
L 395.004109 143.971617 
L 392.962646 144.676983 
L 390.921182 147.580854 
L 388.879719 148.394194 
L 386.838255 150.246084 
L 384.796792 152.892234 
L 382.755328 153.839816 
L 380.713865 151.767113 
L 378.672402 152.591447 
L 376.630938 155.456246 
L 374.589475 155.911814 
L 372.548011 157.917036 
L 370.506548 159.398871 
L 368.465085 158.793726 
L 366.423621 159.743303 
L 364.382158 160.898459 
L 362.340694 162.877611 
L 360.299231 160.914191 
L 358.257768 161.923349 
L 356.216304 162.035442 
L 354.174841 164.789498 
L 352.133377 164.562007 
L 350.091914 163.188939 
L 348.05045 164.694667 
L 346.008987 166.240397 
L 343.967524 162.517874 
L 341.92606 166.117631 
L 339.884597 161.726272 
L 337.843133 161.628592 
L 335.80167 160.832606 
L 333.760207 162.001962 
L 331.718743 162.421618 
L 329.67728 161.986998 
L 327.635816 159.958238 
L 325.594353 161.729568 
L 323.552889 156.83614 
L 321.511426 152.020024 
L 319.469963 153.411571 
L 317.428499 156.202738 
L 315.387036 149.601421 
L 313.345572 150.046288 
L 311.304109 148.354632 
L 309.262646 147.97068 
L 307.221182 138.489987 
L 305.179719 137.797852 
L 303.138255 134.391895 
L 301.096792 126.98562 
L 299.055328 121.741429 
L 297.013865 127.723582 
L 294.972402 125.126013 
L 292.930938 120.555192 
L 290.889475 118.623449 
L 288.848011 115.333889 
L 286.806548 111.02605 
L 284.765085 113.43757 
L 282.723621 105.153165 
L 280.682158 102.246112 
L 278.640694 100.345524 
L 276.599231 99.26185 
L 274.557768 100.402654 
L 272.516304 98.509283 
L 270.474841 100.138783 
L 268.433377 103.32177 
L 266.391914 99.820788 
L 264.35045 99.67035 
L 262.308987 104.246174 
L 260.267524 105.582017 
L 258.22606 104.437684 
L 256.184597 112.604691 
L 254.143133 107.814579 
L 252.10167 110.210051 
L 250.060207 116.995615 
L 248.018743 115.858454 
L 245.97728 118.528121 
L 243.935816 121.003588 
L 241.894353 123.595081 
L 239.852889 126.407998 
L 237.811426 129.184156 
L 235.769963 131.782611 
L 233.728499 134.042157 
L 231.687036 137.030867 
L 229.645572 138.061355 
L 227.604109 143.013107 
L 225.562646 143.548189 
L 223.521182 146.265156 
L 221.479719 149.242215 
L 219.438255 151.594882 
L 217.396792 154.430173 
L 215.355328 156.731918 
L 213.313865 159.903907 
L 211.272402 161.965329 
L 209.230938 164.396022 
L 207.189475 167.176096 
L 205.148011 169.997814 
L 203.106548 171.858728 
L 201.065085 174.586509 
L 199.023621 176.556965 
L 196.982158 179.341851 
L 194.940694 181.573083 
L 192.899231 183.7879 
L 190.857768 186.198461 
L 188.816304 188.368475 
L 186.774841 190.258416 
L 184.733377 192.608004 
L 182.691914 193.957723 
L 180.65045 196.772857 
L 178.608987 198.768999 
L 176.567524 200.559901 
L 174.52606 202.676084 
L 172.484597 204.082858 
L 170.443133 205.987028 
L 168.40167 207.93026 
L 166.360207 210.034354 
L 164.318743 211.704226 
L 162.27728 213.345187 
L 160.235816 215.106866 
L 158.194353 216.804444 
L 156.152889 218.609803 
L 154.111426 220.095821 
L 152.069963 221.685784 
L 150.028499 223.022712 
L 147.987036 224.77833 
L 145.945572 226.105222 
L 143.904109 227.572364 
L 141.862646 229.342934 
L 139.821182 230.625176 
L 137.779719 231.130609 
L 135.738255 232.595695 
L 133.696792 233.428013 
L 131.655328 234.836159 
L 129.613865 236.442572 
L 127.572402 237.340878 
L 125.530938 238.181342 
L 123.489475 238.453914 
L 121.448011 239.308378 
L 119.406548 239.859952 
L 117.365085 240.440054 
L 115.323621 241.575551 
L 113.282158 242.272718 
L 111.240694 243.225213 
L 109.199231 242.811026 
L 107.157768 243.355162 
L 105.116304 242.645176 
L 103.074841 243.896744 
L 101.033377 244.125522 
L 98.991914 245.043555 
L 96.95045 243.208229 
L 94.908987 245.49545 
L 92.867524 245.338277 
L 90.82606 244.057874 
L 88.784597 243.738196 
L 86.743133 244.910594 
L 84.70167 246.93139 
L 82.660207 246.146288 
L 80.618743 246.09335 
L 78.57728 244.041037 
L 76.535816 243.987999 
L 74.494353 244.540878 
L 72.452889 245.745174 
L 70.411426 245.298581 
L 68.369963 244.993777 
L 66.328499 245.137391 
L 64.287036 245.842506 
L 62.245572 245.607174 
L 60.204109 246.028648 
L 58.162646 246.767347 
L 56.121182 246.135151 
L 54.079719 247.230521 
L 52.038255 247.340042 
L 49.996792 247.409351 
L 47.955328 248.07462 
L 45.913865 248.188851 
L 43.872402 248.933533 
L 41.830938 249.754209 
L 39.789475 249.696404 
L 37.748011 249.264594 
L 35.706548 248.93452 
L 33.665085 250.75339 
L 31.623621 250.356661 
L 29.582158 251.557754 
L 27.540694 251.514341 
L 25.499231 250.961199 
L 23.457768 252.152593 
L 21.416304 250.91898 
L 19.374841 250.915131 
L 17.333377 252.44969 
L 15.291914 251.241953 
L 13.25045 252.692185 
L 11.208987 253.120403 
L 9.167524 251.794638 
L 7.12606 247.697368 
L 5.084597 250.235779 
L 3.043133 248.95033 
L 1.00167 242.887649 
L -1.039793 247.975938 
L -3.081257 248.988946 
L -5.12272 243.38461 
L -7.164184 241.825193 
L -9.205647 244.776183 
L -11.247111 238.708361 
L -13.288574 228.266143 
L -15.330037 239.739512 
L -17.371501 244.31337 
L -19.412964 246.570395 
L -21.454428 232.15006 
L -23.495891 232.744743 
L -25.537354 225.425648 
L -27.578818 219.730353 
L -29.620281 231.212136 
L -31.661745 226.323854 
L -33.703208 216.086758 
L -35.744672 208.880058 
L -37.786135 209.35851 
L -39.827598 210.652448 
L -41.869062 209.160305 
L -43.910525 208.29202 
L -45.951989 212.478099 
L -47.993452 212.025045 
L -50.034915 209.38 
L -52.076379 211.087549 
L -54.117842 210.017721 
L -56.159306 209.648112 
L -58.200769 209.824757 
L -60.242232 211.51158 
L -62.283696 212.549368 
L -64.325159 213.169911 
L -66.366623 214.639807 
L -68.408086 215.364473 
L -70.44955 216.567508 
L -72.491013 218.425596 
L -74.532476 219.917611 
L -76.57394 220.94256 
L -78.615403 222.084422 
L -80.656867 223.557025 
L -82.69833 224.504079 
L -84.739793 225.906873 
L -86.781257 227.596436 
L -88.82272 228.626283 
L -90.864184 229.347703 
L -92.905647 230.407957 
L -94.947111 231.502484 
L -96.988574 232.501459 
L -99.030037 233.457765 
L -101.071501 234.368642 
L -103.112964 235.601786 
L -105.154428 236.257427 
L -107.195891 237.166641 
L -109.237354 238.119862 
L -111.278818 238.939725 
L -113.320281 239.748396 
L -115.361745 240.433119 
L -117.403208 241.175034 
L -119.444672 242.127119 
L -121.486135 242.799555 
L -123.527598 243.581221 
L -125.569062 244.218779 
L -127.610525 244.927927 
L -129.651989 245.654644 
L -131.693452 246.3938 
L -133.734915 247.017812 
L -135.776379 247.749151 
L -137.817842 248.387592 
L -139.859306 249.061166 
L -141.900769 249.688653 
L -143.942232 250.335511 
L -145.983696 250.939288 
L -148.025159 251.581179 
L -150.066623 252.265819 
L -152.108086 252.799536 
L -154.14955 253.447838 
L -156.191013 254.015802 
L -158.232476 254.661601 
L -160.27394 255.131029 
L -162.315403 255.725121 
L -164.356867 256.291293 
L -166.39833 256.830488 
L -168.439793 257.378957 
L -170.481257 257.886651 
L -172.52272 258.477638 
L -174.564184 259.010103 
L -176.605647 259.449947 
L -178.647111 259.971313 
L -180.688574 260.492074 
L -182.730037 261.010485 
L -184.771501 261.511115 
L -186.812964 261.978549 
L -188.854428 262.492588 
L -190.895891 262.996928 
L -192.937354 263.504075 
L -194.978818 264.009776 
L -197.020281 264.529224 
L -199.061745 265.06912 
L -201.103208 265.53586 
L -203.144672 266.069197 
L -205.186135 266.592908 
L -207.227598 267.096413 
L -209.269062 267.615897 
L -211.310525 268.146115 
L -213.351989 268.661188 
L -215.393452 269.201512 
L -217.434915 269.695629 
L -219.476379 270.199839 
L -221.517842 270.732437 
L -223.559306 271.247645 
L -225.600769 271.737548 
L -227.642232 272.255719 
L -229.683696 272.730282 
L -231.725159 273.237116 
L -233.766623 273.776544 
L -235.808086 274.24186 
L -237.84955 274.761369 
L -239.891013 275.25431 
L -241.932476 275.77094 
L -243.97394 276.240297 
L -246.015403 276.786784 
L -248.056867 277.242389 
L -250.09833 277.751719 
L -252.139793 278.25053 
L -254.181257 278.761731 
L -256.22272 279.248369 
L -258.264184 279.74385 
L -260.305647 280.241298 
L -262.347111 280.754944 
L -264.388574 281.23307 
L -266.430037 281.689783 
L -268.471501 282.145441 
L -270.512964 282.597743 
L -272.554428 283.034836 
L -274.595891 283.478697 
L -276.637354 283.917059 
L -278.678818 284.336008 
L -280.720281 284.759263 
L -282.761745 285.17993 
L -284.803208 285.563714 
L -286.844672 285.953341 
L -288.886135 286.358698 
L -290.927598 286.743006 
L -292.969062 287.087847 
L -295.010525 287.46589 
L -297.051989 287.812039 
L -299.093452 288.131566 
L -301.134915 288.45073 
L -303.176379 288.749509 
L -305.217842 289.070191 
L -307.259306 289.336732 
L -309.300769 289.617231 
L -311.342232 289.88146 
L -313.383696 290.126663 
L -315.425159 290.350605 
L -317.466623 290.55463 
L -319.508086 290.757023 
L -321.54955 290.95739 
L -323.591013 291.124388 
L -325.632476 291.309786 
L -327.67394 291.467658 
L -329.715403 291.604443 
L -331.756867 291.763437 
L -333.79833 291.903187 
L -335.839793 292.019749 
L -337.881257 292.144249 
L -339.92272 292.265281 
L -341.964184 292.3722 
L -344.005647 292.479352 
L -346.047111 292.568719 
L -348.088574 292.675577 
L -350.130037 292.761438 
L -352.171501 292.851356 
L -354.212964 292.945391 
L -356.254428 293.022801 
L -358.295891 293.104471 
L -360.337354 293.209938 
L -362.378818 293.285473 
L -364.420281 293.377086 
L -366.461745 293.450261 
L -368.503208 293.546389 
L -370.544672 293.623047 
L -372.586135 293.703529 
L -374.627598 293.774226 
L -376.669062 293.838223 
L -378.710525 293.91117 
L -380.751989 293.990568 
L -382.793452 294.067877 
L -384.834915 294.134282 
L -386.876379 294.188088 
L -388.917842 294.264463 
L -390.959306 294.327434 
L -393.000769 294.402871 
z
" clip-path="url(#pc7fda3b9e4)" style="fill: #008000; fill-opacity: 0.3; stroke: #008000; stroke-opacity: 0.3"/>
   </g>
   <g id="matplotlib.axis_1">
    <g id="xtick_1">
     <g id="line2d_1">
      <defs>
       <path id="mdf32305b50" d="M 0 0 
L 0 3.5 
" style="stroke: #000000; stroke-width: 0.8"/>
      </defs>
      <g>
       <use xlink:href="#mdf32305b50" x="103.074841" y="395.28" style="stroke: #000000; stroke-width: 0.8"/>
      </g>
     </g>
     <g id="text_1">
      <!-- 2022-03-01 -->
      <g transform="translate(17.945813 495.213718) rotate(-45) scale(0.2 -0.2)">
       <defs>
        <path id="DejaVuSans-32" d="M 1228 531 
L 3431 531 
L 3431 0 
L 469 0 
L 469 531 
Q 828 903 1448 1529 
Q 2069 2156 2228 2338 
Q 2531 2678 2651 2914 
Q 2772 3150 2772 3378 
Q 2772 3750 2511 3984 
Q 2250 4219 1831 4219 
Q 1534 4219 1204 4116 
Q 875 4013 500 3803 
L 500 4441 
Q 881 4594 1212 4672 
Q 1544 4750 1819 4750 
Q 2544 4750 2975 4387 
Q 3406 4025 3406 3419 
Q 3406 3131 3298 2873 
Q 3191 2616 2906 2266 
Q 2828 2175 2409 1742 
Q 1991 1309 1228 531 
z
" transform="scale(0.015625)"/>
        <path id="DejaVuSans-30" d="M 2034 4250 
Q 1547 4250 1301 3770 
Q 1056 3291 1056 2328 
Q 1056 1369 1301 889 
Q 1547 409 2034 409 
Q 2525 409 2770 889 
Q 3016 1369 3016 2328 
Q 3016 3291 2770 3770 
Q 2525 4250 2034 4250 
z
M 2034 4750 
Q 2819 4750 3233 4129 
Q 3647 3509 3647 2328 
Q 3647 1150 3233 529 
Q 2819 -91 2034 -91 
Q 1250 -91 836 529 
Q 422 1150 422 2328 
Q 422 3509 836 4129 
Q 1250 4750 2034 4750 
z
" transform="scale(0.015625)"/>
        <path id="DejaVuSans-2d" d="M 313 2009 
L 1997 2009 
L 1997 1497 
L 313 1497 
L 313 2009 
z
" transform="scale(0.015625)"/>
        <path id="DejaVuSans-33" d="M 2597 2516 
Q 3050 2419 3304 2112 
Q 3559 1806 3559 1356 
Q 3559 666 3084 287 
Q 2609 -91 1734 -91 
Q 1441 -91 1130 -33 
Q 819 25 488 141 
L 488 750 
Q 750 597 1062 519 
Q 1375 441 1716 441 
Q 2309 441 2620 675 
Q 2931 909 2931 1356 
Q 2931 1769 2642 2001 
Q 2353 2234 1838 2234 
L 1294 2234 
L 1294 2753 
L 1863 2753 
Q 2328 2753 2575 2939 
Q 2822 3125 2822 3475 
Q 2822 3834 2567 4026 
Q 2313 4219 1838 4219 
Q 1578 4219 1281 4162 
Q 984 4106 628 3988 
L 628 4550 
Q 988 4650 1302 4700 
Q 1616 4750 1894 4750 
Q 2613 4750 3031 4423 
Q 3450 4097 3450 3541 
Q 3450 3153 3228 2886 
Q 3006 2619 2597 2516 
z
" transform="scale(0.015625)"/>
        <path id="DejaVuSans-31" d="M 794 531 
L 1825 531 
L 1825 4091 
L 703 3866 
L 703 4441 
L 1819 4666 
L 2450 4666 
L 2450 531 
L 3481 531 
L 3481 0 
L 794 0 
L 794 531 
z
" transform="scale(0.015625)"/>
       </defs>
       <use xlink:href="#DejaVuSans-32"/>
       <use xlink:href="#DejaVuSans-30" x="63.623047"/>
       <use xlink:href="#DejaVuSans-32" x="127.246094"/>
       <use xlink:href="#DejaVuSans-32" x="190.869141"/>
       <use xlink:href="#DejaVuSans-2d" x="254.492188"/>
       <use xlink:href="#DejaVuSans-30" x="290.576172"/>
       <use xlink:href="#DejaVuSans-33" x="354.199219"/>
       <use xlink:href="#DejaVuSans-2d" x="417.822266"/>
       <use xlink:href="#DejaVuSans-30" x="453.90625"/>
       <use xlink:href="#DejaVuSans-31" x="517.529297"/>
      </g>
     </g>
    </g>
    <g id="xtick_2">
     <g id="line2d_2">
      <g>
       <use xlink:href="#mdf32305b50" x="160.235816" y="395.28" style="stroke: #000000; stroke-width: 0.8"/>
      </g>
     </g>
     <g id="text_2">
      <!-- 2022-03-29 -->
      <g transform="translate(75.106789 495.213718) rotate(-45) scale(0.2 -0.2)">
       <defs>
        <path id="DejaVuSans-39" d="M 703 97 
L 703 672 
Q 941 559 1184 500 
Q 1428 441 1663 441 
Q 2288 441 2617 861 
Q 2947 1281 2994 2138 
Q 2813 1869 2534 1725 
Q 2256 1581 1919 1581 
Q 1219 1581 811 2004 
Q 403 2428 403 3163 
Q 403 3881 828 4315 
Q 1253 4750 1959 4750 
Q 2769 4750 3195 4129 
Q 3622 3509 3622 2328 
Q 3622 1225 3098 567 
Q 2575 -91 1691 -91 
Q 1453 -91 1209 -44 
Q 966 3 703 97 
z
M 1959 2075 
Q 2384 2075 2632 2365 
Q 2881 2656 2881 3163 
Q 2881 3666 2632 3958 
Q 2384 4250 1959 4250 
Q 1534 4250 1286 3958 
Q 1038 3666 1038 3163 
Q 1038 2656 1286 2365 
Q 1534 2075 1959 2075 
z
" transform="scale(0.015625)"/>
       </defs>
       <use xlink:href="#DejaVuSans-32"/>
       <use xlink:href="#DejaVuSans-30" x="63.623047"/>
       <use xlink:href="#DejaVuSans-32" x="127.246094"/>
       <use xlink:href="#DejaVuSans-32" x="190.869141"/>
       <use xlink:href="#DejaVuSans-2d" x="254.492188"/>
       <use xlink:href="#DejaVuSans-30" x="290.576172"/>
       <use xlink:href="#DejaVuSans-33" x="354.199219"/>
       <use xlink:href="#DejaVuSans-2d" x="417.822266"/>
       <use xlink:href="#DejaVuSans-32" x="453.90625"/>
       <use xlink:href="#DejaVuSans-39" x="517.529297"/>
      </g>
     </g>
    </g>
    <g id="xtick_3">
     <g id="line2d_3">
      <g>
       <use xlink:href="#mdf32305b50" x="217.396792" y="395.28" style="stroke: #000000; stroke-width: 0.8"/>
      </g>
     </g>
     <g id="text_3">
      <!-- 2022-04-26 -->
      <g transform="translate(132.267765 495.213718) rotate(-45) scale(0.2 -0.2)">
       <defs>
        <path id="DejaVuSans-34" d="M 2419 4116 
L 825 1625 
L 2419 1625 
L 2419 4116 
z
M 2253 4666 
L 3047 4666 
L 3047 1625 
L 3713 1625 
L 3713 1100 
L 3047 1100 
L 3047 0 
L 2419 0 
L 2419 1100 
L 313 1100 
L 313 1709 
L 2253 4666 
z
" transform="scale(0.015625)"/>
        <path id="DejaVuSans-36" d="M 2113 2584 
Q 1688 2584 1439 2293 
Q 1191 2003 1191 1497 
Q 1191 994 1439 701 
Q 1688 409 2113 409 
Q 2538 409 2786 701 
Q 3034 994 3034 1497 
Q 3034 2003 2786 2293 
Q 2538 2584 2113 2584 
z
M 3366 4563 
L 3366 3988 
Q 3128 4100 2886 4159 
Q 2644 4219 2406 4219 
Q 1781 4219 1451 3797 
Q 1122 3375 1075 2522 
Q 1259 2794 1537 2939 
Q 1816 3084 2150 3084 
Q 2853 3084 3261 2657 
Q 3669 2231 3669 1497 
Q 3669 778 3244 343 
Q 2819 -91 2113 -91 
Q 1303 -91 875 529 
Q 447 1150 447 2328 
Q 447 3434 972 4092 
Q 1497 4750 2381 4750 
Q 2619 4750 2861 4703 
Q 3103 4656 3366 4563 
z
" transform="scale(0.015625)"/>
       </defs>
       <use xlink:href="#DejaVuSans-32"/>
       <use xlink:href="#DejaVuSans-30" x="63.623047"/>
       <use xlink:href="#DejaVuSans-32" x="127.246094"/>
       <use xlink:href="#DejaVuSans-32" x="190.869141"/>
       <use xlink:href="#DejaVuSans-2d" x="254.492188"/>
       <use xlink:href="#DejaVuSans-30" x="290.576172"/>
       <use xlink:href="#DejaVuSans-34" x="354.199219"/>
       <use xlink:href="#DejaVuSans-2d" x="417.822266"/>
       <use xlink:href="#DejaVuSans-32" x="453.90625"/>
       <use xlink:href="#DejaVuSans-36" x="517.529297"/>
      </g>
     </g>
    </g>
    <g id="xtick_4">
     <g id="line2d_4">
      <g>
       <use xlink:href="#mdf32305b50" x="274.557768" y="395.28" style="stroke: #000000; stroke-width: 0.8"/>
      </g>
     </g>
     <g id="text_4">
      <!-- 2022-05-24 -->
      <g transform="translate(189.42874 495.213718) rotate(-45) scale(0.2 -0.2)">
       <defs>
        <path id="DejaVuSans-35" d="M 691 4666 
L 3169 4666 
L 3169 4134 
L 1269 4134 
L 1269 2991 
Q 1406 3038 1543 3061 
Q 1681 3084 1819 3084 
Q 2600 3084 3056 2656 
Q 3513 2228 3513 1497 
Q 3513 744 3044 326 
Q 2575 -91 1722 -91 
Q 1428 -91 1123 -41 
Q 819 9 494 109 
L 494 744 
Q 775 591 1075 516 
Q 1375 441 1709 441 
Q 2250 441 2565 725 
Q 2881 1009 2881 1497 
Q 2881 1984 2565 2268 
Q 2250 2553 1709 2553 
Q 1456 2553 1204 2497 
Q 953 2441 691 2322 
L 691 4666 
z
" transform="scale(0.015625)"/>
       </defs>
       <use xlink:href="#DejaVuSans-32"/>
       <use xlink:href="#DejaVuSans-30" x="63.623047"/>
       <use xlink:href="#DejaVuSans-32" x="127.246094"/>
       <use xlink:href="#DejaVuSans-32" x="190.869141"/>
       <use xlink:href="#DejaVuSans-2d" x="254.492188"/>
       <use xlink:href="#DejaVuSans-30" x="290.576172"/>
       <use xlink:href="#DejaVuSans-35" x="354.199219"/>
       <use xlink:href="#DejaVuSans-2d" x="417.822266"/>
       <use xlink:href="#DejaVuSans-32" x="453.90625"/>
       <use xlink:href="#DejaVuSans-34" x="517.529297"/>
      </g>
     </g>
    </g>
    <g id="xtick_5">
     <g id="line2d_5">
      <g>
       <use xlink:href="#mdf32305b50" x="331.718743" y="395.28" style="stroke: #000000; stroke-width: 0.8"/>
      </g>
     </g>
     <g id="text_5">
      <!-- 2022-06-21 -->
      <g transform="translate(246.589716 495.213718) rotate(-45) scale(0.2 -0.2)">
       <use xlink:href="#DejaVuSans-32"/>
       <use xlink:href="#DejaVuSans-30" x="63.623047"/>
       <use xlink:href="#DejaVuSans-32" x="127.246094"/>
       <use xlink:href="#DejaVuSans-32" x="190.869141"/>
       <use xlink:href="#DejaVuSans-2d" x="254.492188"/>
       <use xlink:href="#DejaVuSans-30" x="290.576172"/>
       <use xlink:href="#DejaVuSans-36" x="354.199219"/>
       <use xlink:href="#DejaVuSans-2d" x="417.822266"/>
       <use xlink:href="#DejaVuSans-32" x="453.90625"/>
       <use xlink:href="#DejaVuSans-31" x="517.529297"/>
      </g>
     </g>
    </g>
    <g id="xtick_6">
     <g id="line2d_6">
      <g>
       <use xlink:href="#mdf32305b50" x="388.879719" y="395.28" style="stroke: #000000; stroke-width: 0.8"/>
      </g>
     </g>
     <g id="text_6">
      <!-- 2022-07-19 -->
      <g transform="translate(303.750691 495.213718) rotate(-45) scale(0.2 -0.2)">
       <defs>
        <path id="DejaVuSans-37" d="M 525 4666 
L 3525 4666 
L 3525 4397 
L 1831 0 
L 1172 0 
L 2766 4134 
L 525 4134 
L 525 4666 
z
" transform="scale(0.015625)"/>
       </defs>
       <use xlink:href="#DejaVuSans-32"/>
       <use xlink:href="#DejaVuSans-30" x="63.623047"/>
       <use xlink:href="#DejaVuSans-32" x="127.246094"/>
       <use xlink:href="#DejaVuSans-32" x="190.869141"/>
       <use xlink:href="#DejaVuSans-2d" x="254.492188"/>
       <use xlink:href="#DejaVuSans-30" x="290.576172"/>
       <use xlink:href="#DejaVuSans-37" x="354.199219"/>
       <use xlink:href="#DejaVuSans-2d" x="417.822266"/>
       <use xlink:href="#DejaVuSans-31" x="453.90625"/>
       <use xlink:href="#DejaVuSans-39" x="517.529297"/>
      </g>
     </g>
    </g>
    <g id="xtick_7">
     <g id="line2d_7">
      <g>
       <use xlink:href="#mdf32305b50" x="446.040694" y="395.28" style="stroke: #000000; stroke-width: 0.8"/>
      </g>
     </g>
     <g id="text_7">
      <!-- 2022-08-16 -->
      <g transform="translate(360.911667 495.213718) rotate(-45) scale(0.2 -0.2)">
       <defs>
        <path id="DejaVuSans-38" d="M 2034 2216 
Q 1584 2216 1326 1975 
Q 1069 1734 1069 1313 
Q 1069 891 1326 650 
Q 1584 409 2034 409 
Q 2484 409 2743 651 
Q 3003 894 3003 1313 
Q 3003 1734 2745 1975 
Q 2488 2216 2034 2216 
z
M 1403 2484 
Q 997 2584 770 2862 
Q 544 3141 544 3541 
Q 544 4100 942 4425 
Q 1341 4750 2034 4750 
Q 2731 4750 3128 4425 
Q 3525 4100 3525 3541 
Q 3525 3141 3298 2862 
Q 3072 2584 2669 2484 
Q 3125 2378 3379 2068 
Q 3634 1759 3634 1313 
Q 3634 634 3220 271 
Q 2806 -91 2034 -91 
Q 1263 -91 848 271 
Q 434 634 434 1313 
Q 434 1759 690 2068 
Q 947 2378 1403 2484 
z
M 1172 3481 
Q 1172 3119 1398 2916 
Q 1625 2713 2034 2713 
Q 2441 2713 2670 2916 
Q 2900 3119 2900 3481 
Q 2900 3844 2670 4047 
Q 2441 4250 2034 4250 
Q 1625 4250 1398 4047 
Q 1172 3844 1172 3481 
z
" transform="scale(0.015625)"/>
       </defs>
       <use xlink:href="#DejaVuSans-32"/>
       <use xlink:href="#DejaVuSans-30" x="63.623047"/>
       <use xlink:href="#DejaVuSans-32" x="127.246094"/>
       <use xlink:href="#DejaVuSans-32" x="190.869141"/>
       <use xlink:href="#DejaVuSans-2d" x="254.492188"/>
       <use xlink:href="#DejaVuSans-30" x="290.576172"/>
       <use xlink:href="#DejaVuSans-38" x="354.199219"/>
       <use xlink:href="#DejaVuSans-2d" x="417.822266"/>
       <use xlink:href="#DejaVuSans-31" x="453.90625"/>
       <use xlink:href="#DejaVuSans-36" x="517.529297"/>
      </g>
     </g>
    </g>
    <g id="xtick_8">
     <g id="line2d_8">
      <g>
       <use xlink:href="#mdf32305b50" x="503.20167" y="395.28" style="stroke: #000000; stroke-width: 0.8"/>
      </g>
     </g>
     <g id="text_8">
      <!-- 2022-09-13 -->
      <g transform="translate(418.072643 495.213718) rotate(-45) scale(0.2 -0.2)">
       <use xlink:href="#DejaVuSans-32"/>
       <use xlink:href="#DejaVuSans-30" x="63.623047"/>
       <use xlink:href="#DejaVuSans-32" x="127.246094"/>
       <use xlink:href="#DejaVuSans-32" x="190.869141"/>
       <use xlink:href="#DejaVuSans-2d" x="254.492188"/>
       <use xlink:href="#DejaVuSans-30" x="290.576172"/>
       <use xlink:href="#DejaVuSans-39" x="354.199219"/>
       <use xlink:href="#DejaVuSans-2d" x="417.822266"/>
       <use xlink:href="#DejaVuSans-31" x="453.90625"/>
       <use xlink:href="#DejaVuSans-33" x="517.529297"/>
      </g>
     </g>
    </g>
    <g id="xtick_9">
     <g id="line2d_9">
      <g>
       <use xlink:href="#mdf32305b50" x="560.362646" y="395.28" style="stroke: #000000; stroke-width: 0.8"/>
      </g>
     </g>
     <g id="text_9">
      <!-- 2022-10-11 -->
      <g transform="translate(475.233618 495.213718) rotate(-45) scale(0.2 -0.2)">
       <use xlink:href="#DejaVuSans-32"/>
       <use xlink:href="#DejaVuSans-30" x="63.623047"/>
       <use xlink:href="#DejaVuSans-32" x="127.246094"/>
       <use xlink:href="#DejaVuSans-32" x="190.869141"/>
       <use xlink:href="#DejaVuSans-2d" x="254.492188"/>
       <use xlink:href="#DejaVuSans-31" x="290.576172"/>
       <use xlink:href="#DejaVuSans-30" x="354.199219"/>
       <use xlink:href="#DejaVuSans-2d" x="417.822266"/>
       <use xlink:href="#DejaVuSans-31" x="453.90625"/>
       <use xlink:href="#DejaVuSans-31" x="517.529297"/>
      </g>
     </g>
    </g>
    <g id="xtick_10">
     <g id="line2d_10">
      <g>
       <use xlink:href="#mdf32305b50" x="617.523621" y="395.28" style="stroke: #000000; stroke-width: 0.8"/>
      </g>
     </g>
     <g id="text_10">
      <!-- 2022-11-08 -->
      <g transform="translate(532.394594 495.213718) rotate(-45) scale(0.2 -0.2)">
       <use xlink:href="#DejaVuSans-32"/>
       <use xlink:href="#DejaVuSans-30" x="63.623047"/>
       <use xlink:href="#DejaVuSans-32" x="127.246094"/>
       <use xlink:href="#DejaVuSans-32" x="190.869141"/>
       <use xlink:href="#DejaVuSans-2d" x="254.492188"/>
       <use xlink:href="#DejaVuSans-31" x="290.576172"/>
       <use xlink:href="#DejaVuSans-31" x="354.199219"/>
       <use xlink:href="#DejaVuSans-2d" x="417.822266"/>
       <use xlink:href="#DejaVuSans-30" x="453.90625"/>
       <use xlink:href="#DejaVuSans-38" x="517.529297"/>
      </g>
     </g>
    </g>
    <g id="xtick_11">
     <g id="line2d_11">
      <g>
       <use xlink:href="#mdf32305b50" x="674.684597" y="395.28" style="stroke: #000000; stroke-width: 0.8"/>
      </g>
     </g>
     <g id="text_11">
      <!-- 2022-12-06 -->
      <g transform="translate(589.555569 495.213718) rotate(-45) scale(0.2 -0.2)">
       <use xlink:href="#DejaVuSans-32"/>
       <use xlink:href="#DejaVuSans-30" x="63.623047"/>
       <use xlink:href="#DejaVuSans-32" x="127.246094"/>
       <use xlink:href="#DejaVuSans-32" x="190.869141"/>
       <use xlink:href="#DejaVuSans-2d" x="254.492188"/>
       <use xlink:href="#DejaVuSans-31" x="290.576172"/>
       <use xlink:href="#DejaVuSans-32" x="354.199219"/>
       <use xlink:href="#DejaVuSans-2d" x="417.822266"/>
       <use xlink:href="#DejaVuSans-30" x="453.90625"/>
       <use xlink:href="#DejaVuSans-36" x="517.529297"/>
      </g>
     </g>
    </g>
    <g id="xtick_12">
     <g id="line2d_12">
      <g>
       <use xlink:href="#mdf32305b50" x="731.845572" y="395.28" style="stroke: #000000; stroke-width: 0.8"/>
      </g>
     </g>
     <g id="text_12">
      <!-- 2023-01-03 -->
      <g transform="translate(646.716545 495.213718) rotate(-45) scale(0.2 -0.2)">
       <use xlink:href="#DejaVuSans-32"/>
       <use xlink:href="#DejaVuSans-30" x="63.623047"/>
       <use xlink:href="#DejaVuSans-32" x="127.246094"/>
       <use xlink:href="#DejaVuSans-33" x="190.869141"/>
       <use xlink:href="#DejaVuSans-2d" x="254.492188"/>
       <use xlink:href="#DejaVuSans-30" x="290.576172"/>
       <use xlink:href="#DejaVuSans-31" x="354.199219"/>
       <use xlink:href="#DejaVuSans-2d" x="417.822266"/>
       <use xlink:href="#DejaVuSans-30" x="453.90625"/>
       <use xlink:href="#DejaVuSans-33" x="517.529297"/>
      </g>
     </g>
    </g>
    <g id="xtick_13">
     <g id="line2d_13">
      <g>
       <use xlink:href="#mdf32305b50" x="789.006548" y="395.28" style="stroke: #000000; stroke-width: 0.8"/>
      </g>
     </g>
     <g id="text_13">
      <!-- 2023-01-31 -->
      <g transform="translate(703.877521 495.213718) rotate(-45) scale(0.2 -0.2)">
       <use xlink:href="#DejaVuSans-32"/>
       <use xlink:href="#DejaVuSans-30" x="63.623047"/>
       <use xlink:href="#DejaVuSans-32" x="127.246094"/>
       <use xlink:href="#DejaVuSans-33" x="190.869141"/>
       <use xlink:href="#DejaVuSans-2d" x="254.492188"/>
       <use xlink:href="#DejaVuSans-30" x="290.576172"/>
       <use xlink:href="#DejaVuSans-31" x="354.199219"/>
       <use xlink:href="#DejaVuSans-2d" x="417.822266"/>
       <use xlink:href="#DejaVuSans-33" x="453.90625"/>
       <use xlink:href="#DejaVuSans-31" x="517.529297"/>
      </g>
     </g>
    </g>
    <g id="xtick_14">
     <g id="line2d_14">
      <g>
       <use xlink:href="#mdf32305b50" x="846.167524" y="395.28" style="stroke: #000000; stroke-width: 0.8"/>
      </g>
     </g>
     <g id="text_14">
      <!-- 2023-02-28 -->
      <g transform="translate(761.038496 495.213718) rotate(-45) scale(0.2 -0.2)">
       <use xlink:href="#DejaVuSans-32"/>
       <use xlink:href="#DejaVuSans-30" x="63.623047"/>
       <use xlink:href="#DejaVuSans-32" x="127.246094"/>
       <use xlink:href="#DejaVuSans-33" x="190.869141"/>
       <use xlink:href="#DejaVuSans-2d" x="254.492188"/>
       <use xlink:href="#DejaVuSans-30" x="290.576172"/>
       <use xlink:href="#DejaVuSans-32" x="354.199219"/>
       <use xlink:href="#DejaVuSans-2d" x="417.822266"/>
       <use xlink:href="#DejaVuSans-32" x="453.90625"/>
       <use xlink:href="#DejaVuSans-38" x="517.529297"/>
      </g>
     </g>
    </g>
    <g id="xtick_15">
     <g id="line2d_15">
      <g>
       <use xlink:href="#mdf32305b50" x="903.328499" y="395.28" style="stroke: #000000; stroke-width: 0.8"/>
      </g>
     </g>
     <g id="text_15">
      <!-- 2023-03-28 -->
      <g transform="translate(818.199472 495.213718) rotate(-45) scale(0.2 -0.2)">
       <use xlink:href="#DejaVuSans-32"/>
       <use xlink:href="#DejaVuSans-30" x="63.623047"/>
       <use xlink:href="#DejaVuSans-32" x="127.246094"/>
       <use xlink:href="#DejaVuSans-33" x="190.869141"/>
       <use xlink:href="#DejaVuSans-2d" x="254.492188"/>
       <use xlink:href="#DejaVuSans-30" x="290.576172"/>
       <use xlink:href="#DejaVuSans-33" x="354.199219"/>
       <use xlink:href="#DejaVuSans-2d" x="417.822266"/>
       <use xlink:href="#DejaVuSans-32" x="453.90625"/>
       <use xlink:href="#DejaVuSans-38" x="517.529297"/>
      </g>
     </g>
    </g>
    <g id="xtick_16">
     <g id="line2d_16">
      <g>
       <use xlink:href="#mdf32305b50" x="940.074841" y="395.28" style="stroke: #000000; stroke-width: 0.8"/>
      </g>
     </g>
     <g id="text_16">
      <!-- 2023-04-15 -->
      <g transform="translate(854.945813 495.213718) rotate(-45) scale(0.2 -0.2)">
       <use xlink:href="#DejaVuSans-32"/>
       <use xlink:href="#DejaVuSans-30" x="63.623047"/>
       <use xlink:href="#DejaVuSans-32" x="127.246094"/>
       <use xlink:href="#DejaVuSans-33" x="190.869141"/>
       <use xlink:href="#DejaVuSans-2d" x="254.492188"/>
       <use xlink:href="#DejaVuSans-30" x="290.576172"/>
       <use xlink:href="#DejaVuSans-34" x="354.199219"/>
       <use xlink:href="#DejaVuSans-2d" x="417.822266"/>
       <use xlink:href="#DejaVuSans-31" x="453.90625"/>
       <use xlink:href="#DejaVuSans-35" x="517.529297"/>
      </g>
     </g>
    </g>
   </g>
   <g id="matplotlib.axis_2">
    <g id="ytick_1">
     <g id="line2d_17">
      <defs>
       <path id="me98f1a7bcd" d="M 0 0 
L -3.5 0 
" style="stroke: #000000; stroke-width: 0.8"/>
      </defs>
      <g>
       <use xlink:href="#me98f1a7bcd" x="103.074841" y="348.052179" style="stroke: #000000; stroke-width: 0.8"/>
      </g>
     </g>
     <g id="text_17">
      <!-- 0.05 -->
      <g transform="translate(34.784216 355.650616) scale(0.2 -0.2)">
       <defs>
        <path id="DejaVuSans-2212" d="M 678 2272 
L 4684 2272 
L 4684 1741 
L 678 1741 
L 678 2272 
z
" transform="scale(0.015625)"/>
        <path id="DejaVuSans-2e" d="M 684 794 
L 1344 794 
L 1344 0 
L 684 0 
L 684 794 
z
" transform="scale(0.015625)"/>
       </defs>
       <use xlink:href="#DejaVuSans-2212"/>
       <use xlink:href="#DejaVuSans-30" x="83.789062"/>
       <use xlink:href="#DejaVuSans-2e" x="147.412109"/>
       <use xlink:href="#DejaVuSans-30" x="179.199219"/>
       <use xlink:href="#DejaVuSans-35" x="242.822266"/>
      </g>
     </g>
    </g>
    <g id="ytick_2">
     <g id="line2d_18">
      <g>
       <use xlink:href="#me98f1a7bcd" x="103.074841" y="294.474165" style="stroke: #000000; stroke-width: 0.8"/>
      </g>
     </g>
     <g id="text_18">
      <!-- 0.00 -->
      <g transform="translate(51.543591 302.072602) scale(0.2 -0.2)">
       <use xlink:href="#DejaVuSans-30"/>
       <use xlink:href="#DejaVuSans-2e" x="63.623047"/>
       <use xlink:href="#DejaVuSans-30" x="95.410156"/>
       <use xlink:href="#DejaVuSans-30" x="159.033203"/>
      </g>
     </g>
    </g>
    <g id="ytick_3">
     <g id="line2d_19">
      <g>
       <use xlink:href="#me98f1a7bcd" x="103.074841" y="240.896151" style="stroke: #000000; stroke-width: 0.8"/>
      </g>
     </g>
     <g id="text_19">
      <!-- 0.05 -->
      <g transform="translate(51.543591 248.494588) scale(0.2 -0.2)">
       <use xlink:href="#DejaVuSans-30"/>
       <use xlink:href="#DejaVuSans-2e" x="63.623047"/>
       <use xlink:href="#DejaVuSans-30" x="95.410156"/>
       <use xlink:href="#DejaVuSans-35" x="159.033203"/>
      </g>
     </g>
    </g>
    <g id="ytick_4">
     <g id="line2d_20">
      <g>
       <use xlink:href="#me98f1a7bcd" x="103.074841" y="187.318137" style="stroke: #000000; stroke-width: 0.8"/>
      </g>
     </g>
     <g id="text_20">
      <!-- 0.10 -->
      <g transform="translate(51.543591 194.916574) scale(0.2 -0.2)">
       <use xlink:href="#DejaVuSans-30"/>
       <use xlink:href="#DejaVuSans-2e" x="63.623047"/>
       <use xlink:href="#DejaVuSans-31" x="95.410156"/>
       <use xlink:href="#DejaVuSans-30" x="159.033203"/>
      </g>
     </g>
    </g>
    <g id="ytick_5">
     <g id="line2d_21">
      <g>
       <use xlink:href="#me98f1a7bcd" x="103.074841" y="133.740123" style="stroke: #000000; stroke-width: 0.8"/>
      </g>
     </g>
     <g id="text_21">
      <!-- 0.15 -->
      <g transform="translate(51.543591 141.33856) scale(0.2 -0.2)">
       <use xlink:href="#DejaVuSans-30"/>
       <use xlink:href="#DejaVuSans-2e" x="63.623047"/>
       <use xlink:href="#DejaVuSans-31" x="95.410156"/>
       <use xlink:href="#DejaVuSans-35" x="159.033203"/>
      </g>
     </g>
    </g>
    <g id="ytick_6">
     <g id="line2d_22">
      <g>
       <use xlink:href="#me98f1a7bcd" x="103.074841" y="80.162109" style="stroke: #000000; stroke-width: 0.8"/>
      </g>
     </g>
     <g id="text_22">
      <!-- 0.20 -->
      <g transform="translate(51.543591 87.760546) scale(0.2 -0.2)">
       <use xlink:href="#DejaVuSans-30"/>
       <use xlink:href="#DejaVuSans-2e" x="63.623047"/>
       <use xlink:href="#DejaVuSans-32" x="95.410156"/>
       <use xlink:href="#DejaVuSans-30" x="159.033203"/>
      </g>
     </g>
    </g>
    <g id="ytick_7">
     <g id="line2d_23">
      <g>
       <use xlink:href="#me98f1a7bcd" x="103.074841" y="26.584095" style="stroke: #000000; stroke-width: 0.8"/>
      </g>
     </g>
     <g id="text_23">
      <!-- 0.25 -->
      <g transform="translate(51.543591 34.182532) scale(0.2 -0.2)">
       <use xlink:href="#DejaVuSans-30"/>
       <use xlink:href="#DejaVuSans-2e" x="63.623047"/>
       <use xlink:href="#DejaVuSans-32" x="95.410156"/>
       <use xlink:href="#DejaVuSans-35" x="159.033203"/>
      </g>
     </g>
    </g>
   </g>
   <g id="line2d_24">
    <path d="M 823.711426 130.133128 
L 831.87728 130.133128 
L 833.918743 195.062338 
L 835.960207 338.297577 
L 848.208987 338.297577 
M 893.121182 24.84 
L 895.162646 24.84 
L 897.204109 271.528259 
L 901.287036 271.528259 
L 903.328499 336.020975 
L 905.369963 336.020975 
L 907.411426 377.64 
L 907.411426 377.64 
" clip-path="url(#pc7fda3b9e4)" style="fill: none; stroke: #ffa500; stroke-width: 1.5; stroke-linecap: square"/>
   </g>
   <g id="line2d_25">
    <path d="M 103.074841 294.474165 
L 948.274841 294.474165 
" clip-path="url(#pc7fda3b9e4)" style="fill: none; stroke-dasharray: 7.4,3.2; stroke-dashoffset: 0; stroke: #000000; stroke-width: 2"/>
   </g>
   <g id="patch_3">
    <path d="M 103.074841 395.28 
L 103.074841 7.2 
" style="fill: none; stroke: #000000; stroke-width: 0.8; stroke-linejoin: miter; stroke-linecap: square"/>
   </g>
   <g id="patch_4">
    <path d="M 940.074841 395.28 
L 940.074841 7.2 
" style="fill: none; stroke: #000000; stroke-width: 0.8; stroke-linejoin: miter; stroke-linecap: square"/>
   </g>
   <g id="patch_5">
    <path d="M 103.074841 395.28 
L 940.074841 395.28 
" style="fill: none; stroke: #000000; stroke-width: 0.8; stroke-linejoin: miter; stroke-linecap: square"/>
   </g>
   <g id="patch_6">
    <path d="M 103.074841 7.2 
L 940.074841 7.2 
" style="fill: none; stroke: #000000; stroke-width: 0.8; stroke-linejoin: miter; stroke-linecap: square"/>
   </g>
  </g>
 </g>
 <defs>
  <clipPath id="pc7fda3b9e4">
   <rect x="103.074841" y="7.2" width="837" height="388.08"/>
  </clipPath>
 </defs>
</svg>
