<?xml version="1.0" encoding="utf-8" standalone="no"?>
<!DOCTYPE svg PUBLIC "-//W3C//DTD SVG 1.1//EN"
  "http://www.w3.org/Graphics/SVG/1.1/DTD/svg11.dtd">
<svg xmlns:xlink="http://www.w3.org/1999/xlink" width="947.274841pt" height="505.354841pt" viewBox="0 0 947.274841 505.354841" xmlns="http://www.w3.org/2000/svg" version="1.1">
 <metadata>
  <rdf:RDF xmlns:dc="http://purl.org/dc/elements/1.1/" xmlns:cc="http://creativecommons.org/ns#" xmlns:rdf="http://www.w3.org/1999/02/22-rdf-syntax-ns#">
   <cc:Work>
    <dc:type rdf:resource="http://purl.org/dc/dcmitype/StillImage"/>
    <dc:date>2023-11-12T22:43:16.592324</dc:date>
    <dc:format>image/svg+xml</dc:format>
    <dc:creator>
     <cc:Agent>
      <dc:title>Matplotlib v3.7.2, https://matplotlib.org/</dc:title>
     </cc:Agent>
    </dc:creator>
   </cc:Work>
  </rdf:RDF>
 </metadata>
 <defs>
  <style type="text/css">*{stroke-linejoin: round; stroke-linecap: butt}</style>
 </defs>
 <g id="figure_1">
  <g id="patch_1">
   <path d="M 0 505.354841 
L 947.274841 505.354841 
L 947.274841 -0 
L 0 -0 
z
" style="fill: #ffffff"/>
  </g>
  <g id="axes_1">
   <g id="patch_2">
    <path d="M 103.074841 395.28 
L 940.074841 395.28 
L 940.074841 7.2 
L 103.074841 7.2 
z
" style="fill: #ffffff"/>
   </g>
   <g id="PolyCollection_1">
    <path d="M -4315.31939 311.139164 
L -4315.31939 311.141098 
L -4307.271313 311.130454 
L -4299.223236 311.12138 
L -4291.175159 311.110151 
L -4283.127082 311.10336 
L -4275.079005 311.095136 
L -4267.030929 311.085666 
L -4258.982852 311.076335 
L -4250.934775 311.067659 
L -4242.886698 311.060181 
L -4234.838621 311.051389 
L -4226.790544 311.04216 
L -4218.742467 311.033251 
L -4210.69439 311.022108 
L -4202.646313 311.013068 
L -4194.598236 311.002266 
L -4186.550159 310.9932 
L -4178.502082 310.980605 
L -4170.454005 310.970474 
L -4162.405929 310.960777 
L -4154.357852 310.949121 
L -4146.309775 310.93782 
L -4138.261698 310.926828 
L -4130.213621 310.913348 
L -4122.165544 310.901757 
L -4114.117467 310.888011 
L -4106.06939 310.87413 
L -4098.021313 310.858688 
L -4089.973236 310.842851 
L -4081.925159 310.827467 
L -4073.877082 310.8095 
L -4065.829005 310.789099 
L -4057.780929 310.771249 
L -4049.732852 310.750782 
L -4041.684775 310.727222 
L -4033.636698 310.705573 
L -4025.588621 310.679917 
L -4017.540544 310.653987 
L -4009.492467 310.627339 
L -4001.44439 310.599183 
L -3993.396313 310.56782 
L -3985.348236 310.534398 
L -3977.300159 310.49897 
L -3969.252082 310.46515 
L -3961.204005 310.424959 
L -3953.155929 310.387145 
L -3945.107852 310.346779 
L -3937.059775 310.30644 
L -3929.011698 310.262839 
L -3920.963621 310.215456 
L -3912.915544 310.17212 
L -3904.867467 310.123448 
L -3896.81939 310.073081 
L -3888.771313 310.023991 
L -3880.723236 309.975622 
L -3872.675159 309.922776 
L -3864.627082 309.869429 
L -3856.579005 309.816297 
L -3848.530929 309.760879 
L -3840.482852 309.704886 
L -3832.434775 309.649128 
L -3824.386698 309.591329 
L -3816.338621 309.533468 
L -3808.290544 309.476685 
L -3800.242467 309.417356 
L -3792.19439 309.353474 
L -3784.146313 309.291844 
L -3776.098236 309.230425 
L -3768.050159 309.170107 
L -3760.002082 309.107022 
L -3751.954005 309.045556 
L -3743.905929 308.982896 
L -3735.857852 308.92696 
L -3727.809775 308.859835 
L -3719.761698 308.802471 
L -3711.713621 308.738921 
L -3703.665544 308.678636 
L -3695.617467 308.614957 
L -3687.56939 308.558847 
L -3679.521313 308.494211 
L -3671.473236 308.433782 
L -3663.425159 308.377063 
L -3655.377082 308.31522 
L -3647.329005 308.257884 
L -3639.280929 308.19755 
L -3631.232852 308.135873 
L -3623.184775 308.076588 
L -3615.136698 308.019936 
L -3607.088621 307.958365 
L -3599.040544 307.899354 
L -3590.992467 307.838777 
L -3582.94439 307.779707 
L -3574.896313 307.722858 
L -3566.848236 307.664205 
L -3558.800159 307.604854 
L -3550.752082 307.551916 
L -3542.704005 307.491121 
L -3534.655929 307.433028 
L -3526.607852 307.375893 
L -3518.559775 307.318607 
L -3510.511698 307.261406 
L -3502.463621 307.203322 
L -3494.415544 307.148082 
L -3486.367467 307.090346 
L -3478.31939 307.030996 
L -3470.271313 306.970882 
L -3462.223236 306.910026 
L -3454.175159 306.8533 
L -3446.127082 306.790406 
L -3438.079005 306.723059 
L -3430.030929 306.660075 
L -3421.982852 306.593426 
L -3413.934775 306.525719 
L -3405.886698 306.454025 
L -3397.838621 306.381013 
L -3389.790544 306.31353 
L -3381.742467 306.23597 
L -3373.69439 306.16253 
L -3365.646313 306.08321 
L -3357.598236 306.010823 
L -3349.550159 305.924981 
L -3341.502082 305.841038 
L -3333.454005 305.759641 
L -3325.405929 305.676799 
L -3317.357852 305.591315 
L -3309.309775 305.501838 
L -3301.261698 305.418394 
L -3293.213621 305.322178 
L -3285.165544 305.238285 
L -3277.117467 305.139261 
L -3269.06939 305.043568 
L -3261.021313 304.950356 
L -3252.973236 304.861258 
L -3244.925159 304.756435 
L -3236.877082 304.662414 
L -3228.829005 304.541388 
L -3220.780929 304.43822 
L -3212.732852 304.342635 
L -3204.684775 304.234039 
L -3196.636698 304.122632 
L -3188.588621 303.993522 
L -3180.540544 303.873154 
L -3172.492467 303.774032 
L -3164.44439 303.613283 
L -3156.396313 303.485853 
L -3148.348236 303.355731 
L -3140.300159 303.220782 
L -3132.252082 303.066367 
L -3124.204005 302.921981 
L -3116.155929 302.81536 
L -3108.107852 302.677426 
L -3100.059775 302.445738 
L -3092.011698 302.252816 
L -3083.963621 302.113168 
L -3075.915544 301.916424 
L -3067.867467 301.755346 
L -3059.81939 301.616828 
L -3051.771313 301.401329 
L -3043.723236 301.155021 
L -3035.675159 300.99051 
L -3027.627082 300.889738 
L -3019.579005 300.686505 
L -3011.530929 300.602584 
L -3003.482852 300.460612 
L -2995.434775 300.239599 
L -2987.386698 300.212313 
L -2979.338621 300.266844 
L -2971.290544 300.43264 
L -2963.242467 300.229161 
L -2955.19439 300.660022 
L -2947.146313 300.761422 
L -2939.098236 300.20003 
L -2931.050159 300.367515 
L -2923.002082 300.62486 
L -2914.954005 300.481129 
L -2906.905929 300.454799 
L -2898.857852 301.537778 
L -2890.809775 303.073438 
L -2882.761698 303.8357 
L -2874.713621 302.166771 
L -2866.665544 303.01974 
L -2858.617467 304.136387 
L -2850.56939 304.064447 
L -2842.521313 306.338665 
L -2834.473236 306.016153 
L -2826.425159 305.306556 
L -2818.377082 303.564923 
L -2810.329005 305.181477 
L -2802.280929 306.147917 
L -2794.232852 305.726108 
L -2786.184775 305.96822 
L -2778.136698 306.877796 
L -2770.088621 306.739315 
L -2762.040544 305.927892 
L -2753.992467 306.912963 
L -2745.94439 307.094654 
L -2737.896313 306.720028 
L -2729.848236 307.337916 
L -2721.800159 307.551899 
L -2713.752082 307.47099 
L -2705.704005 307.259499 
L -2697.655929 307.449325 
L -2689.607852 307.216865 
L -2681.559775 307.215876 
L -2673.511698 307.395583 
L -2665.463621 307.189594 
L -2657.415544 307.268637 
L -2649.367467 307.256046 
L -2641.31939 307.086019 
L -2633.271313 307.123705 
L -2625.223236 306.887119 
L -2617.175159 306.884284 
L -2609.127082 306.928567 
L -2601.079005 306.916261 
L -2593.030929 306.794364 
L -2584.982852 306.688145 
L -2576.934775 306.651675 
L -2568.886698 306.537554 
L -2560.838621 306.509041 
L -2552.790544 306.4788 
L -2544.742467 306.31534 
L -2536.69439 306.378968 
L -2528.646313 306.270942 
L -2520.598236 306.221882 
L -2512.550159 306.220962 
L -2504.502082 306.1193 
L -2496.454005 306.093686 
L -2488.405929 306.129113 
L -2480.357852 306.18904 
L -2472.309775 306.033472 
L -2464.261698 306.013968 
L -2456.213621 305.969702 
L -2448.165544 306.263489 
L -2440.117467 306.28847 
L -2432.06939 306.419615 
L -2424.021313 306.175704 
L -2415.973236 306.033079 
L -2407.925159 306.108456 
L -2399.877082 306.320726 
L -2391.829005 306.38395 
L -2383.780929 306.092142 
L -2375.732852 306.400782 
L -2367.684775 306.371629 
L -2359.636698 306.368036 
L -2351.588621 306.261153 
L -2343.540544 306.428491 
L -2335.492467 306.404842 
L -2327.44439 306.52606 
L -2319.396313 306.485204 
L -2311.348236 306.466371 
L -2303.300159 306.3876 
L -2295.252082 306.382528 
L -2287.204005 306.385275 
L -2279.155929 306.368068 
L -2271.107852 306.419449 
L -2263.059775 306.416183 
L -2255.011698 306.410837 
L -2246.963621 306.272437 
L -2238.915544 306.186005 
L -2230.867467 306.191867 
L -2222.81939 306.093059 
L -2214.771313 306.142083 
L -2206.723236 306.074165 
L -2198.675159 305.933321 
L -2190.627082 305.831074 
L -2182.579005 305.777742 
L -2174.530929 305.630661 
L -2166.482852 305.5794 
L -2158.434775 305.463228 
L -2150.386698 305.373028 
L -2142.338621 305.236829 
L -2134.290544 305.141668 
L -2126.242467 304.979786 
L -2118.19439 304.873973 
L -2110.146313 304.753128 
L -2102.098236 304.559476 
L -2094.050159 304.387422 
L -2086.002082 304.291082 
L -2077.954005 304.160788 
L -2069.905929 303.986871 
L -2061.857852 303.873262 
L -2053.809775 303.712317 
L -2045.761698 303.433884 
L -2037.713621 303.37852 
L -2029.665544 303.160804 
L -2021.617467 303.021489 
L -2013.56939 302.861425 
L -2005.521313 302.675854 
L -1997.473236 302.484601 
L -1989.425159 302.323193 
L -1981.377082 302.062923 
L -1973.329005 301.950512 
L -1965.280929 301.702251 
L -1957.232852 301.598867 
L -1949.184775 301.364284 
L -1941.136698 301.143402 
L -1933.088621 300.957484 
L -1925.040544 300.838536 
L -1916.992467 300.554598 
L -1908.94439 300.409039 
L -1900.896313 300.173565 
L -1892.848236 300.012884 
L -1884.800159 299.779762 
L -1876.752082 299.592742 
L -1868.704005 299.703423 
L -1860.655929 299.196037 
L -1852.607852 299.239526 
L -1844.559775 298.98979 
L -1836.511698 298.862948 
L -1828.463621 298.686075 
L -1820.415544 298.488196 
L -1812.367467 298.318885 
L -1804.31939 298.159357 
L -1796.271313 298.01705 
L -1788.223236 297.871052 
L -1780.175159 298.219402 
L -1772.127082 297.538216 
L -1764.079005 297.486428 
L -1756.030929 298.257908 
L -1747.982852 297.450371 
L -1739.934775 297.728875 
L -1731.886698 297.761198 
L -1723.838621 297.387997 
L -1715.790544 297.613405 
L -1707.742467 298.17556 
L -1699.69439 297.94142 
L -1691.646313 297.914588 
L -1683.598236 298.333813 
L -1675.550159 298.358475 
L -1667.502082 298.654442 
L -1659.454005 299.06016 
L -1651.405929 299.559031 
L -1643.357852 300.768425 
L -1635.309775 300.590666 
L -1627.261698 301.260892 
L -1619.213621 301.795029 
L -1611.165544 302.148243 
L -1603.117467 302.818629 
L -1595.06939 303.234911 
L -1587.021313 302.597771 
L -1578.973236 303.317395 
L -1570.925159 304.315949 
L -1562.877082 304.818624 
L -1554.829005 304.969587 
L -1546.780929 306.191435 
L -1538.732852 306.312176 
L -1530.684775 306.590554 
L -1522.636698 306.625802 
L -1514.588621 307.606254 
L -1506.540544 307.312726 
L -1498.492467 307.206528 
L -1490.44439 307.955068 
L -1482.396313 308.709875 
L -1474.348236 308.557307 
L -1466.300159 308.924168 
L -1458.252082 309.083569 
L -1450.204005 309.126201 
L -1442.155929 309.067982 
L -1434.107852 309.280754 
L -1426.059775 309.399571 
L -1418.011698 310.108159 
L -1409.963621 309.728992 
L -1401.915544 310.35523 
L -1393.867467 310.269027 
L -1385.81939 310.184562 
L -1377.771313 310.491531 
L -1369.723236 310.654857 
L -1361.675159 310.417326 
L -1353.627082 310.541933 
L -1345.579005 310.550731 
L -1337.530929 310.9617 
L -1329.482852 310.848066 
L -1321.434775 310.846683 
L -1313.386698 310.885016 
L -1305.338621 311.132756 
L -1297.290544 311.111857 
L -1289.242467 311.026048 
L -1281.19439 311.153305 
L -1273.146313 310.962344 
L -1265.098236 311.054171 
L -1257.050159 311.54302 
L -1249.002082 311.625738 
L -1240.954005 311.492361 
L -1232.905929 311.471923 
L -1224.857852 311.597147 
L -1216.809775 311.444646 
L -1208.761698 311.590376 
L -1200.713621 311.712223 
L -1192.665544 311.787398 
L -1184.617467 311.753382 
L -1176.56939 311.649079 
L -1168.521313 311.939374 
L -1160.473236 311.915553 
L -1152.425159 312.07107 
L -1144.377082 312.107372 
L -1136.329005 312.307026 
L -1128.280929 312.221009 
L -1120.232852 312.051074 
L -1112.184775 312.163213 
L -1104.136698 312.068242 
L -1096.088621 311.830797 
L -1088.040544 312.141481 
L -1079.992467 311.901778 
L -1071.94439 312.224388 
L -1063.896313 312.244177 
L -1055.848236 312.41144 
L -1047.800159 312.24692 
L -1039.752082 312.351509 
L -1031.704005 312.442162 
L -1023.655929 312.066801 
L -1015.607852 312.372925 
L -1007.559775 312.446747 
L -999.511698 312.57348 
L -991.463621 312.526058 
L -983.415544 312.732193 
L -975.367467 312.680657 
L -967.31939 312.713079 
L -959.271313 312.466012 
L -951.223236 312.513356 
L -943.175159 312.592714 
L -935.127082 312.564763 
L -927.079005 312.721808 
L -919.030929 312.773739 
L -910.982852 312.761617 
L -902.934775 312.901645 
L -894.886698 312.875189 
L -886.838621 313.145322 
L -878.790544 313.163971 
L -870.742467 313.305271 
L -862.69439 313.239366 
L -854.646313 313.097824 
L -846.598236 313.47354 
L -838.550159 313.600346 
L -830.502082 313.64439 
L -822.454005 313.685806 
L -814.405929 313.629665 
L -806.357852 313.7203 
L -798.309775 313.745949 
L -790.261698 313.896859 
L -782.213621 313.988088 
L -774.165544 313.935534 
L -766.117467 313.810608 
L -758.06939 314.274427 
L -750.021313 314.316098 
L -741.973236 314.224242 
L -733.925159 314.486845 
L -725.877082 314.226345 
L -717.829005 314.401625 
L -709.780929 314.552977 
L -701.732852 314.415311 
L -693.684775 314.991586 
L -685.636698 314.665379 
L -677.588621 314.565078 
L -669.540544 314.989988 
L -661.492467 315.200241 
L -653.44439 315.202983 
L -645.396313 315.470614 
L -637.348236 315.393 
L -629.300159 315.948809 
L -621.252082 315.851203 
L -613.204005 316.070745 
L -605.155929 315.97083 
L -597.107852 315.873931 
L -589.059775 316.348977 
L -581.011698 317.061951 
L -572.963621 316.546834 
L -564.915544 316.755345 
L -556.867467 316.62087 
L -548.81939 316.942282 
L -540.771313 316.997012 
L -532.723236 316.993422 
L -524.675159 317.030561 
L -516.627082 317.488001 
L -508.579005 317.476648 
L -500.530929 317.84996 
L -492.482852 317.980254 
L -484.434775 317.335192 
L -476.386698 317.786376 
L -468.338621 317.818289 
L -460.290544 318.095227 
L -452.242467 318.18916 
L -444.19439 318.781879 
L -436.146313 319.055455 
L -428.098236 319.145402 
L -420.050159 319.85598 
L -412.002082 320.908008 
L -403.954005 319.747992 
L -395.905929 319.865284 
L -387.857852 319.812216 
L -379.809775 320.278305 
L -371.761698 320.478435 
L -363.713621 320.528817 
L -355.665544 321.679897 
L -347.617467 321.861874 
L -339.56939 320.919126 
L -331.521313 321.891217 
L -323.473236 321.69815 
L -315.425159 321.34046 
L -307.377082 322.619345 
L -299.329005 322.587056 
L -291.280929 323.367762 
L -283.232852 322.932703 
L -275.184775 322.766808 
L -267.136698 323.348837 
L -259.088621 323.416904 
L -251.040544 324.086526 
L -242.992467 323.7595 
L -234.94439 324.75844 
L -226.896313 324.357965 
L -218.848236 324.827647 
L -210.800159 324.770291 
L -202.752082 325.308666 
L -194.704005 324.642551 
L -186.655929 325.728992 
L -178.607852 325.627496 
L -170.559775 326.524299 
L -162.511698 326.624003 
L -154.463621 327.074182 
L -146.415544 326.964342 
L -138.367467 327.369806 
L -130.31939 328.043329 
L -122.271313 327.655612 
L -114.223236 327.599711 
L -106.175159 328.010335 
L -98.127082 328.475524 
L -90.079005 328.061728 
L -82.030929 327.653925 
L -73.982852 329.025935 
L -65.934775 329.967635 
L -57.886698 328.542063 
L -49.838621 329.007116 
L -41.790544 329.382181 
L -33.742467 329.4518 
L -25.69439 330.238953 
L -17.646313 330.315453 
L -9.598236 330.039662 
L -1.550159 330.447842 
L 6.497918 330.643565 
L 14.545995 329.893469 
L 22.594071 330.25567 
L 30.642148 330.028706 
L 38.690225 331.363474 
L 46.738302 332.715094 
L 54.786379 332.539647 
L 62.834456 331.535061 
L 70.882533 331.483792 
L 78.93061 331.637866 
L 86.978687 331.61194 
L 95.026764 332.804411 
L 103.074841 331.70403 
L 111.122918 333.023188 
L 119.170995 334.131467 
L 127.219071 333.276496 
L 135.267148 334.920873 
L 143.315225 333.815336 
L 151.363302 335.009774 
L 159.411379 334.45254 
L 167.459456 334.842136 
L 175.507533 335.696476 
L 183.55561 335.733725 
L 191.603687 336.044883 
L 199.651764 336.085737 
L 207.699841 336.217204 
L 215.747918 334.125725 
L 223.795995 337.101423 
L 231.844071 338.28048 
L 239.892148 337.266663 
L 247.940225 337.948373 
L 255.988302 338.697835 
L 264.036379 337.816643 
L 272.084456 338.939681 
L 280.132533 339.8392 
L 288.18061 339.371941 
L 296.228687 339.886762 
L 304.276764 340.163257 
L 312.324841 340.342711 
L 320.372918 340.637849 
L 328.420995 339.469808 
L 336.469071 341.854165 
L 344.517148 341.914817 
L 352.565225 341.942843 
L 360.613302 340.452154 
L 368.661379 342.485462 
L 376.709456 343.592149 
L 384.757533 342.630459 
L 392.80561 342.653501 
L 400.853687 344.472049 
L 408.901764 341.136073 
L 416.949841 344.189211 
L 424.997918 341.996251 
L 433.045995 345.198196 
L 441.094071 343.922706 
L 449.142148 345.143196 
L 457.190225 345.494212 
L 465.238302 345.831912 
L 473.286379 345.978837 
L 481.334456 345.302161 
L 489.382533 345.421728 
L 497.43061 346.103863 
L 505.478687 346.898556 
L 513.526764 346.92285 
L 521.574841 346.821965 
L 529.622918 347.62533 
L 537.670995 347.600015 
L 545.719071 346.980441 
L 553.767148 346.871081 
L 561.815225 348.355317 
L 569.863302 348.442602 
L 577.911379 348.711715 
L 585.959456 347.901567 
L 594.007533 346.073556 
L 602.05561 347.936089 
L 610.103687 347.392736 
L 618.151764 347.83015 
L 626.199841 348.439029 
L 634.247918 347.498301 
L 642.295995 348.614006 
L 650.344071 347.605619 
L 658.392148 347.517879 
L 666.440225 347.561578 
L 674.488302 348.204817 
L 682.536379 348.072894 
L 690.584456 347.867393 
L 698.632533 347.067282 
L 706.68061 347.41138 
L 714.728687 347.650667 
L 722.776764 347.257566 
L 730.824841 347.760729 
L 738.872918 347.237916 
L 746.920995 347.542956 
L 754.969071 348.074913 
L 763.017148 347.910332 
L 771.065225 347.24094 
L 779.113302 347.183942 
L 787.161379 346.999599 
L 795.209456 347.198582 
L 803.257533 347.114611 
L 811.30561 346.053427 
L 819.353687 346.75033 
L 827.401764 342.0565 
L 835.449841 346.590927 
L 843.497918 346.82217 
L 851.545995 346.061309 
L 859.594071 345.271415 
L 867.642148 346.537609 
L 875.690225 345.839436 
L 883.738302 344.682955 
L 891.786379 345.262422 
L 899.834456 345.182612 
L 907.882533 344.794703 
L 915.93061 345.338199 
L 923.978687 344.761593 
L 932.026764 344.926938 
L 940.074841 345.018635 
L 940.074841 311.466594 
L 940.074841 311.466594 
L 932.026764 312.00864 
L 923.978687 311.836028 
L 915.93061 312.149897 
L 907.882533 311.88882 
L 899.834456 312.135749 
L 891.786379 312.081401 
L 883.738302 312.275609 
L 875.690225 312.782386 
L 867.642148 312.943632 
L 859.594071 312.764374 
L 851.545995 312.938265 
L 843.497918 313.493926 
L 835.449841 313.314964 
L 827.401764 312.542275 
L 819.353687 313.653463 
L 811.30561 313.60953 
L 803.257533 313.973723 
L 795.209456 314.119003 
L 787.161379 314.159604 
L 779.113302 314.436001 
L 771.065225 314.563071 
L 763.017148 314.902346 
L 754.969071 315.089701 
L 746.920995 315.08929 
L 738.872918 315.103639 
L 730.824841 315.335259 
L 722.776764 315.232666 
L 714.728687 315.484146 
L 706.68061 315.582342 
L 698.632533 315.588675 
L 690.584456 316.051913 
L 682.536379 316.25518 
L 674.488302 316.525392 
L 666.440225 316.2802 
L 658.392148 316.464908 
L 650.344071 316.673521 
L 642.295995 317.165733 
L 634.247918 316.864419 
L 626.199841 317.380746 
L 618.151764 317.257829 
L 610.103687 317.237138 
L 602.05561 317.589438 
L 594.007533 317.09201 
L 585.959456 317.826155 
L 577.911379 318.374453 
L 569.863302 318.410318 
L 561.815225 318.493503 
L 553.767148 318.157828 
L 545.719071 318.259997 
L 537.670995 318.663307 
L 529.622918 318.789551 
L 521.574841 318.615567 
L 513.526764 318.774921 
L 505.478687 318.983824 
L 497.43061 318.603017 
L 489.382533 318.588953 
L 481.334456 318.718867 
L 473.286379 319.161789 
L 465.238302 319.237769 
L 457.190225 319.163731 
L 449.142148 319.150386 
L 441.094071 318.797914 
L 433.045995 319.471295 
L 424.997918 318.47771 
L 416.949841 319.419545 
L 408.901764 318.263347 
L 400.853687 319.781682 
L 392.80561 319.132238 
L 384.757533 319.206234 
L 376.709456 319.927767 
L 368.661379 319.50543 
L 360.613302 318.796051 
L 352.565225 319.631565 
L 344.517148 319.72683 
L 336.469071 319.844432 
L 328.420995 318.865622 
L 320.372918 319.904884 
L 312.324841 319.606569 
L 304.276764 319.609517 
L 296.228687 319.668066 
L 288.18061 319.661051 
L 280.132533 320.031664 
L 272.084456 319.789385 
L 264.036379 319.35562 
L 255.988302 319.793573 
L 247.940225 319.829578 
L 239.892148 319.460016 
L 231.844071 320.164825 
L 223.795995 319.734117 
L 215.747918 318.47735 
L 207.699841 319.699789 
L 199.651764 319.795355 
L 191.603687 319.904557 
L 183.55561 319.911731 
L 175.507533 320.087731 
L 167.459456 319.789368 
L 159.411379 319.708739 
L 151.363302 320.14605 
L 143.315225 319.838307 
L 135.267148 320.492393 
L 127.219071 319.811947 
L 119.170995 320.480743 
L 111.122918 319.979405 
L 103.074841 319.317955 
L 95.026764 320.205279 
L 86.978687 319.744553 
L 78.93061 319.841446 
L 70.882533 319.882628 
L 62.834456 320.074766 
L 54.786379 320.829868 
L 46.738302 321.068052 
L 38.690225 320.397542 
L 30.642148 319.871734 
L 22.594071 320.129062 
L 14.545995 320.005742 
L 6.497918 320.576817 
L -1.550159 320.635927 
L -9.598236 320.552244 
L -17.646313 320.832234 
L -25.69439 320.986962 
L -33.742467 320.655208 
L -41.790544 320.689459 
L -49.838621 320.654067 
L -57.886698 320.489122 
L -65.934775 321.429321 
L -73.982852 321.138356 
L -82.030929 320.38379 
L -90.079005 320.669414 
L -98.127082 321.106008 
L -106.175159 320.968587 
L -114.223236 320.805752 
L -122.271313 320.938132 
L -130.31939 321.180177 
L -138.367467 321.053099 
L -146.415544 320.852748 
L -154.463621 321.015662 
L -162.511698 321.073609 
L -170.559775 320.914719 
L -178.607852 320.554681 
L -186.655929 320.636873 
L -194.704005 320.081531 
L -202.752082 320.671918 
L -210.800159 320.363245 
L -218.848236 320.459678 
L -226.896313 320.180496 
L -234.94439 320.634886 
L -242.992467 320.071309 
L -251.040544 320.329383 
L -259.088621 319.995062 
L -267.136698 320.018022 
L -275.184775 319.674745 
L -283.232852 320.088593 
L -291.280929 320.293402 
L -299.329005 319.739428 
L -307.377082 319.942927 
L -315.425159 319.061429 
L -323.473236 319.309566 
L -331.521313 319.69736 
L -339.56939 318.973535 
L -347.617467 319.81548 
L -355.665544 319.57627 
L -363.713621 318.878614 
L -371.761698 318.895571 
L -379.809775 318.834187 
L -387.857852 318.509751 
L -395.905929 318.496794 
L -403.954005 318.511678 
L -412.002082 319.514762 
L -420.050159 318.684679 
L -428.098236 318.169353 
L -436.146313 318.174598 
L -444.19439 317.89752 
L -452.242467 317.349076 
L -460.290544 317.262253 
L -468.338621 316.903738 
L -476.386698 316.997225 
L -484.434775 316.487997 
L -492.482852 317.081705 
L -500.530929 316.983782 
L -508.579005 316.650768 
L -516.627082 316.640567 
L -524.675159 316.16344 
L -532.723236 316.174087 
L -540.771313 316.125277 
L -548.81939 316.139909 
L -556.867467 315.775578 
L -564.915544 315.909221 
L -572.963621 315.691976 
L -581.011698 316.173362 
L -589.059775 315.511933 
L -597.107852 315.070837 
L -605.155929 315.146931 
L -613.204005 315.16269 
L -621.252082 314.972588 
L -629.300159 315.095166 
L -637.348236 314.608027 
L -645.396313 314.678375 
L -653.44439 314.400865 
L -661.492467 314.341187 
L -669.540544 314.089114 
L -677.588621 313.750449 
L -685.636698 313.885609 
L -693.684775 314.164214 
L -701.732852 313.609997 
L -709.780929 313.73415 
L -717.829005 313.516797 
L -725.877082 313.464479 
L -733.925159 313.66983 
L -741.973236 313.440658 
L -750.021313 313.558263 
L -758.06939 313.515237 
L -766.117467 313.108528 
L -774.165544 313.184457 
L -782.213621 313.260974 
L -790.261698 313.194207 
L -798.309775 313.061128 
L -806.357852 313.077641 
L -814.405929 312.984886 
L -822.454005 313.047454 
L -830.502082 313.006756 
L -838.550159 312.974502 
L -846.598236 312.885765 
L -854.646313 312.410162 
L -862.69439 312.69266 
L -870.742467 312.764461 
L -878.790544 312.619293 
L -886.838621 312.555485 
L -894.886698 312.431151 
L -902.934775 312.44965 
L -910.982852 312.326657 
L -919.030929 312.390431 
L -927.079005 312.348274 
L -935.127082 312.232198 
L -943.175159 312.187039 
L -951.223236 312.156458 
L -959.271313 312.153641 
L -967.31939 312.350742 
L -975.367467 312.341909 
L -983.415544 312.385544 
L -991.463621 312.22731 
L -999.511698 312.272829 
L -1007.559775 312.16742 
L -1015.607852 312.09642 
L -1023.655929 311.825319 
L -1031.704005 312.154837 
L -1039.752082 312.063202 
L -1047.800159 311.983722 
L -1055.848236 312.149388 
L -1063.896313 311.987821 
L -1071.94439 311.965608 
L -1079.992467 311.699749 
L -1088.040544 311.965243 
L -1096.088621 311.579357 
L -1104.136698 311.828461 
L -1112.184775 311.899199 
L -1120.232852 311.789951 
L -1128.280929 311.937062 
L -1136.329005 311.948456 
L -1144.377082 311.835926 
L -1152.425159 311.771145 
L -1160.473236 311.680017 
L -1168.521313 311.692129 
L -1176.56939 311.449717 
L -1184.617467 311.516994 
L -1192.665544 311.496031 
L -1200.713621 311.432502 
L -1208.761698 311.323028 
L -1216.809775 311.115238 
L -1224.857852 311.349265 
L -1232.905929 311.202775 
L -1240.954005 311.184871 
L -1249.002082 311.382044 
L -1257.050159 311.330229 
L -1265.098236 310.699908 
L -1273.146313 310.578754 
L -1281.19439 310.840639 
L -1289.242467 310.659423 
L -1297.290544 310.802265 
L -1305.338621 310.844829 
L -1313.386698 310.573821 
L -1321.434775 310.418268 
L -1329.482852 310.47686 
L -1337.530929 310.654888 
L -1345.579005 310.170093 
L -1353.627082 310.13962 
L -1361.675159 309.941531 
L -1369.723236 310.283985 
L -1377.771313 309.99021 
L -1385.81939 309.648407 
L -1393.867467 309.755613 
L -1401.915544 309.917119 
L -1409.963621 309.111777 
L -1418.011698 309.588751 
L -1426.059775 308.681674 
L -1434.107852 308.522701 
L -1442.155929 308.243179 
L -1450.204005 308.262643 
L -1458.252082 308.238894 
L -1466.300159 308.08145 
L -1474.348236 307.579563 
L -1482.396313 307.685714 
L -1490.44439 306.814254 
L -1498.492467 305.618544 
L -1506.540544 305.884673 
L -1514.588621 306.339563 
L -1522.636698 304.934472 
L -1530.684775 305.060684 
L -1538.732852 304.627617 
L -1546.780929 304.50114 
L -1554.829005 302.818574 
L -1562.877082 302.548898 
L -1570.925159 301.942159 
L -1578.973236 300.674248 
L -1587.021313 299.65009 
L -1595.06939 300.616172 
L -1603.117467 300.044738 
L -1611.165544 299.161273 
L -1619.213621 298.776706 
L -1627.261698 298.139715 
L -1635.309775 297.297707 
L -1643.357852 297.563541 
L -1651.405929 296.159096 
L -1659.454005 295.401971 
L -1667.502082 295.038882 
L -1675.550159 294.734879 
L -1683.598236 294.833309 
L -1691.646313 294.458206 
L -1699.69439 294.694373 
L -1707.742467 295.014107 
L -1715.790544 294.324546 
L -1723.838621 294.209434 
L -1731.886698 294.761502 
L -1739.934775 294.836097 
L -1747.982852 294.538143 
L -1756.030929 295.720365 
L -1764.079005 294.766406 
L -1772.127082 294.991522 
L -1780.175159 295.871943 
L -1788.223236 295.52111 
L -1796.271313 295.790986 
L -1804.31939 296.019745 
L -1812.367467 296.303053 
L -1820.415544 296.567177 
L -1828.463621 296.872651 
L -1836.511698 297.147906 
L -1844.559775 297.353113 
L -1852.607852 297.735283 
L -1860.655929 297.752541 
L -1868.704005 298.422388 
L -1876.752082 298.345132 
L -1884.800159 298.626637 
L -1892.848236 298.970498 
L -1900.896313 299.198734 
L -1908.94439 299.521703 
L -1916.992467 299.720428 
L -1925.040544 300.085091 
L -1933.088621 300.260951 
L -1941.136698 300.463283 
L -1949.184775 300.666664 
L -1957.232852 300.880144 
L -1965.280929 300.956117 
L -1973.329005 301.161185 
L -1981.377082 301.260045 
L -1989.425159 301.479066 
L -1997.473236 301.620698 
L -2005.521313 301.763671 
L -2013.56939 301.937662 
L -2021.617467 302.079953 
L -2029.665544 302.183971 
L -2037.713621 302.356482 
L -2045.761698 302.385303 
L -2053.809775 302.630095 
L -2061.857852 302.759085 
L -2069.905929 302.860687 
L -2077.954005 303.012017 
L -2086.002082 303.061784 
L -2094.050159 303.184323 
L -2102.098236 303.314191 
L -2110.146313 303.470384 
L -2118.19439 303.565452 
L -2126.242467 303.660033 
L -2134.290544 303.773889 
L -2142.338621 303.881845 
L -2150.386698 304.00683 
L -2158.434775 304.087818 
L -2166.482852 304.186654 
L -2174.530929 304.250503 
L -2182.579005 304.38069 
L -2190.627082 304.447928 
L -2198.675159 304.539206 
L -2206.723236 304.677431 
L -2214.771313 304.745939 
L -2222.81939 304.704276 
L -2230.867467 304.810553 
L -2238.915544 304.82427 
L -2246.963621 304.926902 
L -2255.011698 305.060853 
L -2263.059775 305.092001 
L -2271.107852 305.119679 
L -2279.155929 305.067467 
L -2287.204005 305.107436 
L -2295.252082 305.105602 
L -2303.300159 305.111116 
L -2311.348236 305.202835 
L -2319.396313 305.23168 
L -2327.44439 305.30214 
L -2335.492467 305.172384 
L -2343.540544 305.191769 
L -2351.588621 305.02678 
L -2359.636698 305.160587 
L -2367.684775 305.14304 
L -2375.732852 305.232328 
L -2383.780929 304.912656 
L -2391.829005 305.216843 
L -2399.877082 305.154381 
L -2407.925159 304.928324 
L -2415.973236 304.85142 
L -2424.021313 305.000496 
L -2432.06939 305.277097 
L -2440.117467 305.133503 
L -2448.165544 305.105881 
L -2456.213621 304.782693 
L -2464.261698 304.765617 
L -2472.309775 304.840993 
L -2480.357852 305.016804 
L -2488.405929 304.945998 
L -2496.454005 304.900214 
L -2504.502082 304.924901 
L -2512.550159 305.035852 
L -2520.598236 305.006688 
L -2528.646313 305.078042 
L -2536.69439 305.198856 
L -2544.742467 305.115084 
L -2552.790544 305.292926 
L -2560.838621 305.323117 
L -2568.886698 305.348499 
L -2576.934775 305.46395 
L -2584.982852 305.496677 
L -2593.030929 305.625357 
L -2601.079005 305.76548 
L -2609.127082 305.774007 
L -2617.175159 305.726821 
L -2625.223236 305.695593 
L -2633.271313 305.986999 
L -2641.31939 305.945616 
L -2649.367467 306.143917 
L -2657.415544 306.154794 
L -2665.463621 306.089304 
L -2673.511698 306.285439 
L -2681.559775 306.118178 
L -2689.607852 306.13497 
L -2697.655929 306.381627 
L -2705.704005 306.216581 
L -2713.752082 306.449174 
L -2721.800159 306.52775 
L -2729.848236 306.343065 
L -2737.896313 305.741928 
L -2745.94439 306.13435 
L -2753.992467 305.952899 
L -2762.040544 305.054277 
L -2770.088621 305.825381 
L -2778.136698 305.985654 
L -2786.184775 305.152978 
L -2794.232852 304.918253 
L -2802.280929 305.371832 
L -2810.329005 304.408484 
L -2818.377082 302.712649 
L -2826.425159 304.573556 
L -2834.473236 305.304777 
L -2842.521313 305.649753 
L -2850.56939 303.329588 
L -2858.617467 303.421893 
L -2866.665544 302.270784 
L -2874.713621 301.383569 
L -2882.761698 303.16296 
L -2890.809775 302.387146 
L -2898.857852 300.797385 
L -2906.905929 299.683238 
L -2914.954005 299.739628 
L -2923.002082 299.918965 
L -2931.050159 299.674972 
L -2939.098236 299.523477 
L -2947.146313 300.137386 
L -2955.19439 300.049734 
L -2963.242467 299.625258 
L -2971.290544 299.860956 
L -2979.338621 299.677477 
L -2987.386698 299.59838 
L -2995.434775 299.596229 
L -3003.482852 299.826863 
L -3011.530929 299.955595 
L -3019.579005 300.023702 
L -3027.627082 300.220864 
L -3035.675159 300.306199 
L -3043.723236 300.464236 
L -3051.771313 300.723021 
L -3059.81939 300.924022 
L -3067.867467 301.057316 
L -3075.915544 301.204608 
L -3083.963621 301.405707 
L -3092.011698 301.526591 
L -3100.059775 301.719484 
L -3108.107852 301.95643 
L -3116.155929 302.095533 
L -3124.204005 302.186731 
L -3132.252082 302.331411 
L -3140.300159 302.480797 
L -3148.348236 302.616961 
L -3156.396313 302.745383 
L -3164.44439 302.868761 
L -3172.492467 303.042902 
L -3180.540544 303.128153 
L -3188.588621 303.254258 
L -3196.636698 303.386634 
L -3204.684775 303.499388 
L -3212.732852 303.611104 
L -3220.780929 303.70398 
L -3228.829005 303.804001 
L -3236.877082 303.938675 
L -3244.925159 304.029824 
L -3252.973236 304.138332 
L -3261.021313 304.224831 
L -3269.06939 304.323435 
L -3277.117467 304.424672 
L -3285.165544 304.527495 
L -3293.213621 304.613507 
L -3301.261698 304.715901 
L -3309.309775 304.805407 
L -3317.357852 304.89896 
L -3325.405929 304.985358 
L -3333.454005 305.07606 
L -3341.502082 305.159403 
L -3349.550159 305.249167 
L -3357.598236 305.346355 
L -3365.646313 305.419742 
L -3373.69439 305.512434 
L -3381.742467 305.592035 
L -3389.790544 305.684793 
L -3397.838621 305.751976 
L -3405.886698 305.838171 
L -3413.934775 305.92026 
L -3421.982852 305.998349 
L -3430.030929 306.077918 
L -3438.079005 306.151358 
L -3446.127082 306.237368 
L -3454.175159 306.314565 
L -3462.223236 306.377749 
L -3470.271313 306.453154 
L -3478.31939 306.528398 
L -3486.367467 306.603205 
L -3494.415544 306.675211 
L -3502.463621 306.742054 
L -3510.511698 306.815784 
L -3518.559775 306.887893 
L -3526.607852 306.960286 
L -3534.655929 307.032304 
L -3542.704005 307.106219 
L -3550.752082 307.183042 
L -3558.800159 307.248633 
L -3566.848236 307.3241 
L -3574.896313 307.397968 
L -3582.94439 307.468609 
L -3590.992467 307.541504 
L -3599.040544 307.615872 
L -3607.088621 307.687784 
L -3615.136698 307.763367 
L -3623.184775 307.831794 
L -3631.232852 307.901675 
L -3639.280929 307.975702 
L -3647.329005 308.046959 
L -3655.377082 308.114257 
L -3663.425159 308.185666 
L -3671.473236 308.250282 
L -3679.521313 308.319597 
L -3687.56939 308.393693 
L -3695.617467 308.456447 
L -3703.665544 308.527191 
L -3711.713621 308.593746 
L -3719.761698 308.663716 
L -3727.809775 308.726402 
L -3735.857852 308.80056 
L -3743.905929 308.860894 
L -3751.954005 308.92924 
L -3760.002082 308.99593 
L -3768.050159 309.064436 
L -3776.098236 309.129195 
L -3784.146313 309.195281 
L -3792.19439 309.261685 
L -3800.242467 309.329936 
L -3808.290544 309.390358 
L -3816.338621 309.447745 
L -3824.386698 309.506632 
L -3832.434775 309.566035 
L -3840.482852 309.623303 
L -3848.530929 309.681764 
L -3856.579005 309.739618 
L -3864.627082 309.794763 
L -3872.675159 309.850755 
L -3880.723236 309.90657 
L -3888.771313 309.957026 
L -3896.81939 310.008602 
L -3904.867467 310.062798 
L -3912.915544 310.114068 
L -3920.963621 310.159614 
L -3929.011698 310.210436 
L -3937.059775 310.256703 
L -3945.107852 310.299195 
L -3953.155929 310.341896 
L -3961.204005 310.381768 
L -3969.252082 310.425216 
L -3977.300159 310.460721 
L -3985.348236 310.498582 
L -3993.396313 310.534214 
L -4001.44439 310.567188 
L -4009.492467 310.597155 
L -4017.540544 310.624299 
L -4025.588621 310.651381 
L -4033.636698 310.678342 
L -4041.684775 310.700418 
L -4049.732852 310.72543 
L -4057.780929 310.746417 
L -4065.829005 310.764338 
L -4073.877082 310.785726 
L -4081.925159 310.804349 
L -4089.973236 310.819574 
L -4098.021313 310.836094 
L -4106.06939 310.852178 
L -4114.117467 310.866207 
L -4122.165544 310.880341 
L -4130.213621 310.891851 
L -4138.261698 310.906066 
L -4146.309775 310.917163 
L -4154.357852 310.928923 
L -4162.405929 310.941358 
L -4170.454005 310.951324 
L -4178.502082 310.961982 
L -4186.550159 310.976291 
L -4194.598236 310.986125 
L -4202.646313 310.998448 
L -4210.69439 311.00803 
L -4218.742467 311.021134 
L -4226.790544 311.031346 
L -4234.838621 311.04224 
L -4242.886698 311.051698 
L -4250.934775 311.060274 
L -4258.982852 311.07029 
L -4267.030929 311.081525 
L -4275.079005 311.092506 
L -4283.127082 311.10173 
L -4291.175159 311.108938 
L -4299.223236 311.11981 
L -4307.271313 311.128545 
L -4315.31939 311.139164 
z
" clip-path="url(#pf734cf2435)" style="fill: #008000; fill-opacity: 0.3; stroke: #008000; stroke-opacity: 0.3"/>
   </g>
   <g id="matplotlib.axis_1">
    <g id="xtick_1">
     <g id="line2d_1">
      <defs>
       <path id="me19806f046" d="M 0 0 
L 0 3.5 
" style="stroke: #000000; stroke-width: 0.8"/>
      </defs>
      <g>
       <use xlink:href="#me19806f046" x="103.074841" y="395.28" style="stroke: #000000; stroke-width: 0.8"/>
      </g>
     </g>
     <g id="text_1">
      <!-- 2023-01-01 -->
      <g transform="translate(17.945813 495.213718) rotate(-45) scale(0.2 -0.2)">
       <defs>
        <path id="DejaVuSans-32" d="M 1228 531 
L 3431 531 
L 3431 0 
L 469 0 
L 469 531 
Q 828 903 1448 1529 
Q 2069 2156 2228 2338 
Q 2531 2678 2651 2914 
Q 2772 3150 2772 3378 
Q 2772 3750 2511 3984 
Q 2250 4219 1831 4219 
Q 1534 4219 1204 4116 
Q 875 4013 500 3803 
L 500 4441 
Q 881 4594 1212 4672 
Q 1544 4750 1819 4750 
Q 2544 4750 2975 4387 
Q 3406 4025 3406 3419 
Q 3406 3131 3298 2873 
Q 3191 2616 2906 2266 
Q 2828 2175 2409 1742 
Q 1991 1309 1228 531 
z
" transform="scale(0.015625)"/>
        <path id="DejaVuSans-30" d="M 2034 4250 
Q 1547 4250 1301 3770 
Q 1056 3291 1056 2328 
Q 1056 1369 1301 889 
Q 1547 409 2034 409 
Q 2525 409 2770 889 
Q 3016 1369 3016 2328 
Q 3016 3291 2770 3770 
Q 2525 4250 2034 4250 
z
M 2034 4750 
Q 2819 4750 3233 4129 
Q 3647 3509 3647 2328 
Q 3647 1150 3233 529 
Q 2819 -91 2034 -91 
Q 1250 -91 836 529 
Q 422 1150 422 2328 
Q 422 3509 836 4129 
Q 1250 4750 2034 4750 
z
" transform="scale(0.015625)"/>
        <path id="DejaVuSans-33" d="M 2597 2516 
Q 3050 2419 3304 2112 
Q 3559 1806 3559 1356 
Q 3559 666 3084 287 
Q 2609 -91 1734 -91 
Q 1441 -91 1130 -33 
Q 819 25 488 141 
L 488 750 
Q 750 597 1062 519 
Q 1375 441 1716 441 
Q 2309 441 2620 675 
Q 2931 909 2931 1356 
Q 2931 1769 2642 2001 
Q 2353 2234 1838 2234 
L 1294 2234 
L 1294 2753 
L 1863 2753 
Q 2328 2753 2575 2939 
Q 2822 3125 2822 3475 
Q 2822 3834 2567 4026 
Q 2313 4219 1838 4219 
Q 1578 4219 1281 4162 
Q 984 4106 628 3988 
L 628 4550 
Q 988 4650 1302 4700 
Q 1616 4750 1894 4750 
Q 2613 4750 3031 4423 
Q 3450 4097 3450 3541 
Q 3450 3153 3228 2886 
Q 3006 2619 2597 2516 
z
" transform="scale(0.015625)"/>
        <path id="DejaVuSans-2d" d="M 313 2009 
L 1997 2009 
L 1997 1497 
L 313 1497 
L 313 2009 
z
" transform="scale(0.015625)"/>
        <path id="DejaVuSans-31" d="M 794 531 
L 1825 531 
L 1825 4091 
L 703 3866 
L 703 4441 
L 1819 4666 
L 2450 4666 
L 2450 531 
L 3481 531 
L 3481 0 
L 794 0 
L 794 531 
z
" transform="scale(0.015625)"/>
       </defs>
       <use xlink:href="#DejaVuSans-32"/>
       <use xlink:href="#DejaVuSans-30" x="63.623047"/>
       <use xlink:href="#DejaVuSans-32" x="127.246094"/>
       <use xlink:href="#DejaVuSans-33" x="190.869141"/>
       <use xlink:href="#DejaVuSans-2d" x="254.492188"/>
       <use xlink:href="#DejaVuSans-30" x="290.576172"/>
       <use xlink:href="#DejaVuSans-31" x="354.199219"/>
       <use xlink:href="#DejaVuSans-2d" x="417.822266"/>
       <use xlink:href="#DejaVuSans-30" x="453.90625"/>
       <use xlink:href="#DejaVuSans-31" x="517.529297"/>
      </g>
     </g>
    </g>
    <g id="xtick_2">
     <g id="line2d_2">
      <g>
       <use xlink:href="#me19806f046" x="215.747918" y="395.28" style="stroke: #000000; stroke-width: 0.8"/>
      </g>
     </g>
     <g id="text_2">
      <!-- 2023-01-15 -->
      <g transform="translate(130.61889 495.213718) rotate(-45) scale(0.2 -0.2)">
       <defs>
        <path id="DejaVuSans-35" d="M 691 4666 
L 3169 4666 
L 3169 4134 
L 1269 4134 
L 1269 2991 
Q 1406 3038 1543 3061 
Q 1681 3084 1819 3084 
Q 2600 3084 3056 2656 
Q 3513 2228 3513 1497 
Q 3513 744 3044 326 
Q 2575 -91 1722 -91 
Q 1428 -91 1123 -41 
Q 819 9 494 109 
L 494 744 
Q 775 591 1075 516 
Q 1375 441 1709 441 
Q 2250 441 2565 725 
Q 2881 1009 2881 1497 
Q 2881 1984 2565 2268 
Q 2250 2553 1709 2553 
Q 1456 2553 1204 2497 
Q 953 2441 691 2322 
L 691 4666 
z
" transform="scale(0.015625)"/>
       </defs>
       <use xlink:href="#DejaVuSans-32"/>
       <use xlink:href="#DejaVuSans-30" x="63.623047"/>
       <use xlink:href="#DejaVuSans-32" x="127.246094"/>
       <use xlink:href="#DejaVuSans-33" x="190.869141"/>
       <use xlink:href="#DejaVuSans-2d" x="254.492188"/>
       <use xlink:href="#DejaVuSans-30" x="290.576172"/>
       <use xlink:href="#DejaVuSans-31" x="354.199219"/>
       <use xlink:href="#DejaVuSans-2d" x="417.822266"/>
       <use xlink:href="#DejaVuSans-31" x="453.90625"/>
       <use xlink:href="#DejaVuSans-35" x="517.529297"/>
      </g>
     </g>
    </g>
    <g id="xtick_3">
     <g id="line2d_3">
      <g>
       <use xlink:href="#me19806f046" x="328.420995" y="395.28" style="stroke: #000000; stroke-width: 0.8"/>
      </g>
     </g>
     <g id="text_3">
      <!-- 2023-01-29 -->
      <g transform="translate(243.291967 495.213718) rotate(-45) scale(0.2 -0.2)">
       <defs>
        <path id="DejaVuSans-39" d="M 703 97 
L 703 672 
Q 941 559 1184 500 
Q 1428 441 1663 441 
Q 2288 441 2617 861 
Q 2947 1281 2994 2138 
Q 2813 1869 2534 1725 
Q 2256 1581 1919 1581 
Q 1219 1581 811 2004 
Q 403 2428 403 3163 
Q 403 3881 828 4315 
Q 1253 4750 1959 4750 
Q 2769 4750 3195 4129 
Q 3622 3509 3622 2328 
Q 3622 1225 3098 567 
Q 2575 -91 1691 -91 
Q 1453 -91 1209 -44 
Q 966 3 703 97 
z
M 1959 2075 
Q 2384 2075 2632 2365 
Q 2881 2656 2881 3163 
Q 2881 3666 2632 3958 
Q 2384 4250 1959 4250 
Q 1534 4250 1286 3958 
Q 1038 3666 1038 3163 
Q 1038 2656 1286 2365 
Q 1534 2075 1959 2075 
z
" transform="scale(0.015625)"/>
       </defs>
       <use xlink:href="#DejaVuSans-32"/>
       <use xlink:href="#DejaVuSans-30" x="63.623047"/>
       <use xlink:href="#DejaVuSans-32" x="127.246094"/>
       <use xlink:href="#DejaVuSans-33" x="190.869141"/>
       <use xlink:href="#DejaVuSans-2d" x="254.492188"/>
       <use xlink:href="#DejaVuSans-30" x="290.576172"/>
       <use xlink:href="#DejaVuSans-31" x="354.199219"/>
       <use xlink:href="#DejaVuSans-2d" x="417.822266"/>
       <use xlink:href="#DejaVuSans-32" x="453.90625"/>
       <use xlink:href="#DejaVuSans-39" x="517.529297"/>
      </g>
     </g>
    </g>
    <g id="xtick_4">
     <g id="line2d_4">
      <g>
       <use xlink:href="#me19806f046" x="441.094071" y="395.28" style="stroke: #000000; stroke-width: 0.8"/>
      </g>
     </g>
     <g id="text_4">
      <!-- 2023-02-12 -->
      <g transform="translate(355.965044 495.213718) rotate(-45) scale(0.2 -0.2)">
       <use xlink:href="#DejaVuSans-32"/>
       <use xlink:href="#DejaVuSans-30" x="63.623047"/>
       <use xlink:href="#DejaVuSans-32" x="127.246094"/>
       <use xlink:href="#DejaVuSans-33" x="190.869141"/>
       <use xlink:href="#DejaVuSans-2d" x="254.492188"/>
       <use xlink:href="#DejaVuSans-30" x="290.576172"/>
       <use xlink:href="#DejaVuSans-32" x="354.199219"/>
       <use xlink:href="#DejaVuSans-2d" x="417.822266"/>
       <use xlink:href="#DejaVuSans-31" x="453.90625"/>
       <use xlink:href="#DejaVuSans-32" x="517.529297"/>
      </g>
     </g>
    </g>
    <g id="xtick_5">
     <g id="line2d_5">
      <g>
       <use xlink:href="#me19806f046" x="553.767148" y="395.28" style="stroke: #000000; stroke-width: 0.8"/>
      </g>
     </g>
     <g id="text_5">
      <!-- 2023-02-26 -->
      <g transform="translate(468.638121 495.213718) rotate(-45) scale(0.2 -0.2)">
       <defs>
        <path id="DejaVuSans-36" d="M 2113 2584 
Q 1688 2584 1439 2293 
Q 1191 2003 1191 1497 
Q 1191 994 1439 701 
Q 1688 409 2113 409 
Q 2538 409 2786 701 
Q 3034 994 3034 1497 
Q 3034 2003 2786 2293 
Q 2538 2584 2113 2584 
z
M 3366 4563 
L 3366 3988 
Q 3128 4100 2886 4159 
Q 2644 4219 2406 4219 
Q 1781 4219 1451 3797 
Q 1122 3375 1075 2522 
Q 1259 2794 1537 2939 
Q 1816 3084 2150 3084 
Q 2853 3084 3261 2657 
Q 3669 2231 3669 1497 
Q 3669 778 3244 343 
Q 2819 -91 2113 -91 
Q 1303 -91 875 529 
Q 447 1150 447 2328 
Q 447 3434 972 4092 
Q 1497 4750 2381 4750 
Q 2619 4750 2861 4703 
Q 3103 4656 3366 4563 
z
" transform="scale(0.015625)"/>
       </defs>
       <use xlink:href="#DejaVuSans-32"/>
       <use xlink:href="#DejaVuSans-30" x="63.623047"/>
       <use xlink:href="#DejaVuSans-32" x="127.246094"/>
       <use xlink:href="#DejaVuSans-33" x="190.869141"/>
       <use xlink:href="#DejaVuSans-2d" x="254.492188"/>
       <use xlink:href="#DejaVuSans-30" x="290.576172"/>
       <use xlink:href="#DejaVuSans-32" x="354.199219"/>
       <use xlink:href="#DejaVuSans-2d" x="417.822266"/>
       <use xlink:href="#DejaVuSans-32" x="453.90625"/>
       <use xlink:href="#DejaVuSans-36" x="517.529297"/>
      </g>
     </g>
    </g>
    <g id="xtick_6">
     <g id="line2d_6">
      <g>
       <use xlink:href="#me19806f046" x="666.440225" y="395.28" style="stroke: #000000; stroke-width: 0.8"/>
      </g>
     </g>
     <g id="text_6">
      <!-- 2023-03-12 -->
      <g transform="translate(581.311198 495.213718) rotate(-45) scale(0.2 -0.2)">
       <use xlink:href="#DejaVuSans-32"/>
       <use xlink:href="#DejaVuSans-30" x="63.623047"/>
       <use xlink:href="#DejaVuSans-32" x="127.246094"/>
       <use xlink:href="#DejaVuSans-33" x="190.869141"/>
       <use xlink:href="#DejaVuSans-2d" x="254.492188"/>
       <use xlink:href="#DejaVuSans-30" x="290.576172"/>
       <use xlink:href="#DejaVuSans-33" x="354.199219"/>
       <use xlink:href="#DejaVuSans-2d" x="417.822266"/>
       <use xlink:href="#DejaVuSans-31" x="453.90625"/>
       <use xlink:href="#DejaVuSans-32" x="517.529297"/>
      </g>
     </g>
    </g>
    <g id="xtick_7">
     <g id="line2d_7">
      <g>
       <use xlink:href="#me19806f046" x="779.113302" y="395.28" style="stroke: #000000; stroke-width: 0.8"/>
      </g>
     </g>
     <g id="text_7">
      <!-- 2023-03-26 -->
      <g transform="translate(693.984275 495.213718) rotate(-45) scale(0.2 -0.2)">
       <use xlink:href="#DejaVuSans-32"/>
       <use xlink:href="#DejaVuSans-30" x="63.623047"/>
       <use xlink:href="#DejaVuSans-32" x="127.246094"/>
       <use xlink:href="#DejaVuSans-33" x="190.869141"/>
       <use xlink:href="#DejaVuSans-2d" x="254.492188"/>
       <use xlink:href="#DejaVuSans-30" x="290.576172"/>
       <use xlink:href="#DejaVuSans-33" x="354.199219"/>
       <use xlink:href="#DejaVuSans-2d" x="417.822266"/>
       <use xlink:href="#DejaVuSans-32" x="453.90625"/>
       <use xlink:href="#DejaVuSans-36" x="517.529297"/>
      </g>
     </g>
    </g>
    <g id="xtick_8">
     <g id="line2d_8">
      <g>
       <use xlink:href="#me19806f046" x="891.786379" y="395.28" style="stroke: #000000; stroke-width: 0.8"/>
      </g>
     </g>
     <g id="text_8">
      <!-- 2023-04-09 -->
      <g transform="translate(806.657352 495.213718) rotate(-45) scale(0.2 -0.2)">
       <defs>
        <path id="DejaVuSans-34" d="M 2419 4116 
L 825 1625 
L 2419 1625 
L 2419 4116 
z
M 2253 4666 
L 3047 4666 
L 3047 1625 
L 3713 1625 
L 3713 1100 
L 3047 1100 
L 3047 0 
L 2419 0 
L 2419 1100 
L 313 1100 
L 313 1709 
L 2253 4666 
z
" transform="scale(0.015625)"/>
       </defs>
       <use xlink:href="#DejaVuSans-32"/>
       <use xlink:href="#DejaVuSans-30" x="63.623047"/>
       <use xlink:href="#DejaVuSans-32" x="127.246094"/>
       <use xlink:href="#DejaVuSans-33" x="190.869141"/>
       <use xlink:href="#DejaVuSans-2d" x="254.492188"/>
       <use xlink:href="#DejaVuSans-30" x="290.576172"/>
       <use xlink:href="#DejaVuSans-34" x="354.199219"/>
       <use xlink:href="#DejaVuSans-2d" x="417.822266"/>
       <use xlink:href="#DejaVuSans-30" x="453.90625"/>
       <use xlink:href="#DejaVuSans-39" x="517.529297"/>
      </g>
     </g>
    </g>
    <g id="xtick_9">
     <g id="line2d_9">
      <g>
       <use xlink:href="#me19806f046" x="940.074841" y="395.28" style="stroke: #000000; stroke-width: 0.8"/>
      </g>
     </g>
     <g id="text_9">
      <!-- 2023-04-15 -->
      <g transform="translate(854.945813 495.213718) rotate(-45) scale(0.2 -0.2)">
       <use xlink:href="#DejaVuSans-32"/>
       <use xlink:href="#DejaVuSans-30" x="63.623047"/>
       <use xlink:href="#DejaVuSans-32" x="127.246094"/>
       <use xlink:href="#DejaVuSans-33" x="190.869141"/>
       <use xlink:href="#DejaVuSans-2d" x="254.492188"/>
       <use xlink:href="#DejaVuSans-30" x="290.576172"/>
       <use xlink:href="#DejaVuSans-34" x="354.199219"/>
       <use xlink:href="#DejaVuSans-2d" x="417.822266"/>
       <use xlink:href="#DejaVuSans-31" x="453.90625"/>
       <use xlink:href="#DejaVuSans-35" x="517.529297"/>
      </g>
     </g>
    </g>
   </g>
   <g id="matplotlib.axis_2">
    <g id="ytick_1">
     <g id="line2d_10">
      <defs>
       <path id="mb13a3884ec" d="M 0 0 
L -3.5 0 
" style="stroke: #000000; stroke-width: 0.8"/>
      </defs>
      <g>
       <use xlink:href="#mb13a3884ec" x="103.074841" y="392.257109" style="stroke: #000000; stroke-width: 0.8"/>
      </g>
     </g>
     <g id="text_10">
      <!-- −0.5 -->
      <g transform="translate(47.509216 399.855546) scale(0.2 -0.2)">
       <defs>
        <path id="DejaVuSans-2212" d="M 678 2272 
L 4684 2272 
L 4684 1741 
L 678 1741 
L 678 2272 
z
" transform="scale(0.015625)"/>
        <path id="DejaVuSans-2e" d="M 684 794 
L 1344 794 
L 1344 0 
L 684 0 
L 684 794 
z
" transform="scale(0.015625)"/>
       </defs>
       <use xlink:href="#DejaVuSans-2212"/>
       <use xlink:href="#DejaVuSans-30" x="83.789062"/>
       <use xlink:href="#DejaVuSans-2e" x="147.412109"/>
       <use xlink:href="#DejaVuSans-35" x="179.199219"/>
      </g>
     </g>
    </g>
    <g id="ytick_2">
     <g id="line2d_11">
      <g>
       <use xlink:href="#mb13a3884ec" x="103.074841" y="311.149421" style="stroke: #000000; stroke-width: 0.8"/>
      </g>
     </g>
     <g id="text_11">
      <!-- 0.0 -->
      <g transform="translate(64.268591 318.747859) scale(0.2 -0.2)">
       <use xlink:href="#DejaVuSans-30"/>
       <use xlink:href="#DejaVuSans-2e" x="63.623047"/>
       <use xlink:href="#DejaVuSans-30" x="95.410156"/>
      </g>
     </g>
    </g>
    <g id="ytick_3">
     <g id="line2d_12">
      <g>
       <use xlink:href="#mb13a3884ec" x="103.074841" y="230.041734" style="stroke: #000000; stroke-width: 0.8"/>
      </g>
     </g>
     <g id="text_12">
      <!-- 0.5 -->
      <g transform="translate(64.268591 237.640171) scale(0.2 -0.2)">
       <use xlink:href="#DejaVuSans-30"/>
       <use xlink:href="#DejaVuSans-2e" x="63.623047"/>
       <use xlink:href="#DejaVuSans-35" x="95.410156"/>
      </g>
     </g>
    </g>
    <g id="ytick_4">
     <g id="line2d_13">
      <g>
       <use xlink:href="#mb13a3884ec" x="103.074841" y="148.934046" style="stroke: #000000; stroke-width: 0.8"/>
      </g>
     </g>
     <g id="text_13">
      <!-- 1.0 -->
      <g transform="translate(64.268591 156.532484) scale(0.2 -0.2)">
       <use xlink:href="#DejaVuSans-31"/>
       <use xlink:href="#DejaVuSans-2e" x="63.623047"/>
       <use xlink:href="#DejaVuSans-30" x="95.410156"/>
      </g>
     </g>
    </g>
    <g id="ytick_5">
     <g id="line2d_14">
      <g>
       <use xlink:href="#mb13a3884ec" x="103.074841" y="67.826359" style="stroke: #000000; stroke-width: 0.8"/>
      </g>
     </g>
     <g id="text_14">
      <!-- 1.5 -->
      <g transform="translate(64.268591 75.424797) scale(0.2 -0.2)">
       <use xlink:href="#DejaVuSans-31"/>
       <use xlink:href="#DejaVuSans-2e" x="63.623047"/>
       <use xlink:href="#DejaVuSans-35" x="95.410156"/>
      </g>
     </g>
    </g>
   </g>
   <g id="line2d_15">
    <path d="M -1 317.941131 
L 6.497918 314.764574 
L 14.545995 319.256795 
L 22.594071 322.143415 
L 30.642148 318.573653 
L 38.690225 313.995538 
L 46.738302 307.373068 
L 54.786379 316.983532 
L 62.834456 316.646932 
L 70.882533 315.329728 
L 78.93061 312.666691 
L 86.978687 314.730624 
L 95.026764 323.273946 
L 103.074841 305.997864 
L 111.122918 314.454522 
L 119.170995 306.823751 
L 127.219071 319.780669 
L 135.267148 311.321548 
L 143.315225 310.715978 
L 151.363302 311.665036 
L 159.411379 311.959472 
L 167.459456 323.518736 
L 175.507533 321.414874 
L 183.55561 313.520359 
L 191.603687 316.543432 
L 199.651764 313.634406 
L 207.699841 311.355806 
L 215.747918 308.696475 
L 223.795995 320.041882 
L 231.844071 320.931319 
L 239.892148 308.837183 
L 247.940225 316.950436 
L 255.988302 326.335909 
L 264.036379 326.850405 
L 272.084456 323.153606 
L 280.132533 325.183001 
L 288.18061 322.199573 
L 296.228687 314.40651 
L 304.276764 321.467565 
L 312.324841 302.241265 
L 320.372918 314.945871 
L 328.420995 323.978004 
L 336.469071 316.75057 
L 344.517148 316.213635 
L 352.565225 304.45359 
L 360.613302 347.507727 
L 368.661379 309.991222 
L 376.709456 304.759465 
L 384.757533 300.985688 
L 392.80561 310.482507 
L 400.853687 294.357273 
L 408.901764 305.898473 
L 416.949841 289.241612 
L 424.997918 315.296987 
L 433.045995 321.544304 
L 441.094071 321.837817 
L 449.142148 317.157669 
L 457.190225 314.375144 
L 465.238302 316.316598 
L 481.334456 313.704036 
L 489.382533 321.050097 
L 497.43061 315.512443 
L 505.478687 325.750551 
L 513.526764 310.628756 
L 521.574841 338.509059 
L 529.622918 319.336827 
L 537.670995 338.76101 
L 545.719071 290.437032 
L 553.767148 321.977046 
L 561.815225 311.347386 
L 569.863302 309.199588 
L 577.911379 314.609695 
L 585.959456 300.124903 
L 594.007533 322.873621 
L 602.05561 311.149421 
L 610.103687 311.149421 
L 618.151764 314.448882 
L 626.199841 323.495215 
L 634.247918 326.850713 
L 642.295995 328.954638 
L 650.344071 317.670167 
L 658.392148 345.057989 
L 666.440225 368.055151 
L 674.488302 329.685623 
L 682.536379 307.247431 
L 690.584456 326.195503 
L 698.632533 298.230494 
L 706.68061 377.64 
L 714.728687 356.951089 
L 722.776764 311.149421 
L 730.824841 311.149421 
L 738.872918 254.500659 
L 746.920995 271.123998 
L 754.969071 311.149421 
L 779.113302 311.149421 
L 787.161379 328.461802 
L 795.209456 274.08984 
L 803.257533 268.150811 
L 811.30561 328.43447 
L 819.353687 221.819927 
L 827.401764 311.149421 
L 835.449841 287.959057 
L 843.497918 311.149421 
L 851.545995 311.149421 
L 859.594071 326.469049 
L 867.642148 327.276626 
L 875.690225 311.149421 
L 907.882533 311.149421 
L 915.93061 283.055373 
L 923.978687 309.573673 
L 932.026764 311.149421 
L 940.074841 311.149421 
L 940.074841 311.149421 
" clip-path="url(#pf734cf2435)" style="fill: none; stroke: #ffa500; stroke-width: 1.5; stroke-linecap: square"/>
   </g>
   <g id="line2d_16">
    <path d="M 103.074841 311.149421 
L 948.274841 311.149421 
" clip-path="url(#pf734cf2435)" style="fill: none; stroke-dasharray: 7.4,3.2; stroke-dashoffset: 0; stroke: #000000; stroke-width: 2"/>
   </g>
   <g id="patch_3">
    <path d="M 103.074841 395.28 
L 103.074841 7.2 
" style="fill: none; stroke: #000000; stroke-width: 0.8; stroke-linejoin: miter; stroke-linecap: square"/>
   </g>
   <g id="patch_4">
    <path d="M 940.074841 395.28 
L 940.074841 7.2 
" style="fill: none; stroke: #000000; stroke-width: 0.8; stroke-linejoin: miter; stroke-linecap: square"/>
   </g>
   <g id="patch_5">
    <path d="M 103.074841 395.28 
L 940.074841 395.28 
" style="fill: none; stroke: #000000; stroke-width: 0.8; stroke-linejoin: miter; stroke-linecap: square"/>
   </g>
   <g id="patch_6">
    <path d="M 103.074841 7.2 
L 940.074841 7.2 
" style="fill: none; stroke: #000000; stroke-width: 0.8; stroke-linejoin: miter; stroke-linecap: square"/>
   </g>
  </g>
 </g>
 <defs>
  <clipPath id="pf734cf2435">
   <rect x="103.074841" y="7.2" width="837" height="388.08"/>
  </clipPath>
 </defs>
</svg>
