<?xml version="1.0" encoding="utf-8" standalone="no"?>
<!DOCTYPE svg PUBLIC "-//W3C//DTD SVG 1.1//EN"
  "http://www.w3.org/Graphics/SVG/1.1/DTD/svg11.dtd">
<svg xmlns:xlink="http://www.w3.org/1999/xlink" width="947.274841pt" height="505.354841pt" viewBox="0 0 947.274841 505.354841" xmlns="http://www.w3.org/2000/svg" version="1.1">
 <metadata>
  <rdf:RDF xmlns:dc="http://purl.org/dc/elements/1.1/" xmlns:cc="http://creativecommons.org/ns#" xmlns:rdf="http://www.w3.org/1999/02/22-rdf-syntax-ns#">
   <cc:Work>
    <dc:type rdf:resource="http://purl.org/dc/dcmitype/StillImage"/>
    <dc:date>2023-11-12T22:43:25.386348</dc:date>
    <dc:format>image/svg+xml</dc:format>
    <dc:creator>
     <cc:Agent>
      <dc:title>Matplotlib v3.7.2, https://matplotlib.org/</dc:title>
     </cc:Agent>
    </dc:creator>
   </cc:Work>
  </rdf:RDF>
 </metadata>
 <defs>
  <style type="text/css">*{stroke-linejoin: round; stroke-linecap: butt}</style>
 </defs>
 <g id="figure_1">
  <g id="patch_1">
   <path d="M 0 505.354841 
L 947.274841 505.354841 
L 947.274841 -0 
L 0 -0 
z
" style="fill: #ffffff"/>
  </g>
  <g id="axes_1">
   <g id="patch_2">
    <path d="M 103.074841 395.28 
L 940.074841 395.28 
L 940.074841 7.2 
L 103.074841 7.2 
z
" style="fill: #ffffff"/>
   </g>
   <g id="PolyCollection_1">
    <path d="M -4315.31939 193.295402 
L -4315.31939 193.300141 
L -4307.271313 193.273981 
L -4299.223236 193.251704 
L -4291.175159 193.224171 
L -4283.127082 193.207499 
L -4275.079005 193.18732 
L -4267.030929 193.16406 
L -4258.982852 193.141132 
L -4250.934775 193.119807 
L -4242.886698 193.101425 
L -4234.838621 193.079815 
L -4226.790544 193.057122 
L -4218.742467 193.035199 
L -4210.69439 193.007777 
L -4202.646313 192.985519 
L -4194.598236 192.958916 
L -4186.550159 192.93658 
L -4178.502082 192.905548 
L -4170.454005 192.880571 
L -4162.405929 192.856667 
L -4154.357852 192.82794 
L -4146.309775 192.800079 
L -4138.261698 192.772987 
L -4130.213621 192.739766 
L -4122.165544 192.711186 
L -4114.117467 192.677305 
L -4106.06939 192.64309 
L -4098.021313 192.605027 
L -4089.973236 192.565981 
L -4081.925159 192.528053 
L -4073.877082 192.483765 
L -4065.829005 192.433476 
L -4057.780929 192.389461 
L -4049.732852 192.339006 
L -4041.684775 192.280929 
L -4033.636698 192.227528 
L -4025.588621 192.164272 
L -4017.540544 192.100321 
L -4009.492467 192.034606 
L -4001.44439 191.965189 
L -3993.396313 191.887843 
L -3985.348236 191.805421 
L -3977.300159 191.71806 
L -3969.252082 191.634661 
L -3961.204005 191.535573 
L -3953.155929 191.442322 
L -3945.107852 191.342776 
L -3937.059775 191.243299 
L -3929.011698 191.135794 
L -3920.963621 191.018962 
L -3912.915544 190.912077 
L -3904.867467 190.792049 
L -3896.81939 190.667837 
L -3888.771313 190.546754 
L -3880.723236 190.427437 
L -3872.675159 190.297101 
L -3864.627082 190.165523 
L -3856.579005 190.034467 
L -3848.530929 189.897778 
L -3840.482852 189.759667 
L -3832.434775 189.622131 
L -3824.386698 189.479568 
L -3816.338621 189.336845 
L -3808.290544 189.196767 
L -3800.242467 189.050411 
L -3792.19439 188.892858 
L -3784.146313 188.740845 
L -3776.098236 188.589351 
L -3768.050159 188.440566 
L -3760.002082 188.284976 
L -3751.954005 188.13337 
L -3743.905929 187.978829 
L -3735.857852 187.840881 
L -3727.809775 187.675394 
L -3719.761698 187.533941 
L -3711.713621 187.377264 
L -3703.665544 187.228628 
L -3695.617467 187.071632 
L -3687.56939 186.933275 
L -3679.521313 186.773917 
L -3671.473236 186.624907 
L -3663.425159 186.485037 
L -3655.377082 186.332583 
L -3647.329005 186.191174 
L -3639.280929 186.042388 
L -3631.232852 185.890304 
L -3623.184775 185.744159 
L -3615.136698 185.604426 
L -3607.088621 185.452596 
L -3599.040544 185.307066 
L -3590.992467 185.157688 
L -3582.94439 185.012078 
L -3574.896313 184.871856 
L -3566.848236 184.727201 
L -3558.800159 184.580833 
L -3550.752082 184.450249 
L -3542.704005 184.300342 
L -3534.655929 184.157087 
L -3526.607852 184.016195 
L -3518.559775 183.874935 
L -3510.511698 183.733893 
L -3502.463621 183.590684 
L -3494.415544 183.454478 
L -3486.367467 183.312138 
L -3478.31939 183.165834 
L -3470.271313 183.017654 
L -3462.223236 182.867655 
L -3454.175159 182.72782 
L -3446.127082 182.572817 
L -3438.079005 182.406862 
L -3430.030929 182.251649 
L -3421.982852 182.087427 
L -3413.934775 181.920612 
L -3405.886698 181.743985 
L -3397.838621 181.564117 
L -3389.790544 181.397843 
L -3381.742467 181.206782 
L -3373.69439 181.025853 
L -3365.646313 180.830466 
L -3357.598236 180.652146 
L -3349.550159 180.440726 
L -3341.502082 180.233969 
L -3333.454005 180.033466 
L -3325.405929 179.829411 
L -3317.357852 179.618852 
L -3309.309775 179.398461 
L -3301.261698 179.192918 
L -3293.213621 178.955946 
L -3285.165544 178.749296 
L -3277.117467 178.505412 
L -3269.06939 178.269708 
L -3261.021313 178.040111 
L -3252.973236 177.820622 
L -3244.925159 177.562449 
L -3236.877082 177.330864 
L -3228.829005 177.032831 
L -3220.780929 176.778711 
L -3212.732852 176.543255 
L -3204.684775 176.275806 
L -3196.636698 176.001445 
L -3188.588621 175.683511 
L -3180.540544 175.387074 
L -3172.492467 175.142941 
L -3164.44439 174.747171 
L -3156.396313 174.43334 
L -3148.348236 174.112883 
L -3140.300159 173.780542 
L -3132.252082 173.40031 
L -3124.204005 173.044735 
L -3116.155929 172.782063 
L -3108.107852 172.442384 
L -3100.059775 171.872047 
L -3092.011698 171.397033 
L -3083.963621 171.053085 
L -3075.915544 170.56865 
L -3067.867467 170.171971 
L -3059.81939 169.830808 
L -3051.771313 169.300256 
L -3043.723236 168.693919 
L -3035.675159 168.288779 
L -3027.627082 168.040495 
L -3019.579005 167.540182 
L -3011.530929 167.333514 
L -3003.482852 166.984207 
L -2995.434775 166.440478 
L -2987.386698 166.373557 
L -2979.338621 166.508229 
L -2971.290544 166.938521 
L -2963.242467 166.440192 
L -2955.19439 167.503043 
L -2947.146313 167.756435 
L -2939.098236 166.379466 
L -2931.050159 166.795677 
L -2923.002082 167.433303 
L -2914.954005 167.084697 
L -2906.905929 167.025136 
L -2898.857852 169.695081 
L -2890.809775 173.480585 
L -2882.761698 175.365588 
L -2874.713621 171.270917 
L -2866.665544 173.379597 
L -2858.617467 176.138068 
L -2850.56939 175.974364 
L -2842.521313 181.582888 
L -2834.473236 180.806381 
L -2826.425159 179.077526 
L -2818.377082 174.810292 
L -2810.329005 178.800899 
L -2802.280929 181.194307 
L -2794.232852 180.174508 
L -2786.184775 180.78755 
L -2778.136698 183.042721 
L -2770.088621 182.72253 
L -2762.040544 180.747685 
L -2753.992467 183.190298 
L -2745.94439 183.659647 
L -2737.896313 182.762238 
L -2729.848236 184.305237 
L -2721.800159 184.85682 
L -2713.752082 184.683865 
L -2705.704005 184.191099 
L -2697.655929 184.685575 
L -2689.607852 184.142839 
L -2681.559775 184.17006 
L -2673.511698 184.641704 
L -2665.463621 184.165586 
L -2657.415544 184.390044 
L -2649.367467 184.390035 
L -2641.31939 184.004835 
L -2633.271313 184.130424 
L -2625.223236 183.583359 
L -2617.175159 183.610558 
L -2609.127082 183.753121 
L -2601.079005 183.757483 
L -2593.030929 183.493344 
L -2584.982852 183.268486 
L -2576.934775 183.214127 
L -2568.886698 182.970404 
L -2560.838621 182.936821 
L -2552.790544 182.898204 
L -2544.742467 182.532948 
L -2536.69439 182.723849 
L -2528.646313 182.493208 
L -2520.598236 182.406467 
L -2512.550159 182.437254 
L -2504.502082 182.221 
L -2496.454005 182.189725 
L -2488.405929 182.305702 
L -2480.357852 182.478689 
L -2472.309775 182.12317 
L -2464.261698 182.099099 
L -2456.213621 182.013977 
L -2448.165544 182.751263 
L -2440.117467 182.825246 
L -2432.06939 183.154008 
L -2424.021313 182.564184 
L -2415.973236 182.223767 
L -2407.925159 182.416081 
L -2399.877082 182.938428 
L -2391.829005 183.09061 
L -2383.780929 182.37421 
L -2375.732852 183.122828 
L -2367.684775 183.04045 
L -2359.636698 183.017993 
L -2351.588621 182.741641 
L -2343.540544 183.132386 
L -2335.492467 183.052551 
L -2327.44439 183.322412 
L -2319.396313 183.191808 
L -2311.348236 183.11365 
L -2303.300159 182.886897 
L -2295.252082 182.838478 
L -2287.204005 182.80723 
L -2279.155929 182.724172 
L -2271.107852 182.804307 
L -2263.059775 182.746331 
L -2255.011698 182.678864 
L -2246.963621 182.283755 
L -2238.915544 182.015625 
L -2230.867467 181.971423 
L -2222.81939 181.669599 
L -2214.771313 181.725055 
L -2206.723236 181.488883 
L -2198.675159 181.07215 
L -2190.627082 180.749295 
L -2182.579005 180.544107 
L -2174.530929 180.109303 
L -2166.482852 179.905268 
L -2158.434775 179.540231 
L -2150.386698 179.23771 
L -2142.338621 178.819797 
L -2134.290544 178.502785 
L -2126.242467 178.02919 
L -2118.19439 177.713357 
L -2110.146313 177.36552 
L -2102.098236 176.835499 
L -2094.050159 176.35998 
L -2086.002082 176.050607 
L -2077.954005 175.667176 
L -2069.905929 175.147297 
L -2061.857852 174.807595 
L -2053.809775 174.353894 
L -2045.761698 173.612176 
L -2037.713621 173.418172 
L -2029.665544 172.827668 
L -2021.617467 172.409186 
L -2013.56939 171.913853 
L -2005.521313 171.355158 
L -1997.473236 170.826634 
L -1989.425159 170.36012 
L -1981.377082 169.65622 
L -1973.329005 169.310055 
L -1965.280929 168.636724 
L -1957.232852 168.290947 
L -1949.184775 167.601987 
L -1941.136698 166.943454 
L -1933.088621 166.403215 
L -1925.040544 166.035549 
L -1916.992467 165.262154 
L -1908.94439 164.822959 
L -1900.896313 164.172728 
L -1892.848236 163.689529 
L -1884.800159 162.991406 
L -1876.752082 162.409105 
L -1868.704005 162.54694 
L -1860.655929 161.170143 
L -1852.607852 161.155441 
L -1844.559775 160.425395 
L -1836.511698 159.998103 
L -1828.463621 159.455357 
L -1820.415544 158.873623 
L -1812.367467 158.356934 
L -1804.31939 157.90052 
L -1796.271313 157.491739 
L -1788.223236 157.067447 
L -1780.175159 157.857243 
L -1772.127082 156.094639 
L -1764.079005 155.947918 
L -1756.030929 157.678622 
L -1747.982852 155.673853 
L -1739.934775 156.262473 
L -1731.886698 156.267226 
L -1723.838621 155.261454 
L -1715.790544 155.734438 
L -1707.742467 156.99928 
L -1699.69439 156.326798 
L -1691.646313 156.167779 
L -1683.598236 157.103486 
L -1675.550159 157.057203 
L -1667.502082 157.695549 
L -1659.454005 158.594679 
L -1651.405929 159.721076 
L -1643.357852 162.60885 
L -1635.309775 162.05558 
L -1627.261698 163.605347 
L -1619.213621 164.825536 
L -1611.165544 165.594684 
L -1603.117467 167.149736 
L -1595.06939 168.08527 
L -1587.021313 166.403129 
L -1578.973236 168.094262 
L -1570.925159 170.479271 
L -1562.877082 171.626872 
L -1554.829005 171.902058 
L -1546.780929 174.833485 
L -1538.732852 175.016426 
L -1530.684775 175.59254 
L -1522.636698 175.570111 
L -1514.588621 177.901784 
L -1506.540544 177.052669 
L -1498.492467 176.683298 
L -1490.44439 178.439292 
L -1482.396313 180.220418 
L -1474.348236 179.721313 
L -1466.300159 180.523575 
L -1458.252082 180.784206 
L -1450.204005 180.755804 
L -1442.155929 180.47377 
L -1434.107852 180.866481 
L -1426.059775 181.02309 
L -1418.011698 182.689249 
L -1409.963621 181.553284 
L -1401.915544 183.361791 
L -1393.867467 182.871187 
L -1385.81939 182.557196 
L -1377.771313 183.289956 
L -1369.723236 183.942028 
L -1361.675159 183.019035 
L -1353.627082 183.417654 
L -1345.579005 183.414987 
L -1337.530929 184.437439 
L -1329.482852 183.89767 
L -1321.434775 183.638413 
L -1313.386698 183.929278 
L -1305.338621 184.425694 
L -1297.290544 184.177728 
L -1289.242467 183.67933 
L -1281.19439 183.970128 
L -1273.146313 183.222922 
L -1265.098236 183.321961 
L -1257.050159 184.599287 
L -1249.002082 184.557045 
L -1240.954005 183.886773 
L -1232.905929 183.751829 
L -1224.857852 183.87775 
L -1216.809775 183.164991 
L -1208.761698 183.400807 
L -1200.713621 183.454034 
L -1192.665544 183.352737 
L -1184.617467 183.210135 
L -1176.56939 182.805651 
L -1168.521313 183.151533 
L -1160.473236 182.906585 
L -1152.425159 182.90948 
L -1144.377082 182.817367 
L -1136.329005 182.90565 
L -1128.280929 182.619052 
L -1120.232852 182.042385 
L -1112.184775 182.086291 
L -1104.136698 181.630005 
L -1096.088621 180.937399 
L -1088.040544 181.565267 
L -1079.992467 180.589175 
L -1071.94439 181.087122 
L -1063.896313 180.967981 
L -1055.848236 181.158496 
L -1047.800159 180.564134 
L -1039.752082 180.589231 
L -1031.704005 180.5985 
L -1023.655929 179.756377 
L -1015.607852 180.106378 
L -1007.559775 180.120718 
L -999.511698 180.213344 
L -991.463621 179.920321 
L -983.415544 180.166069 
L -975.367467 179.879464 
L -967.31939 179.649063 
L -959.271313 179.043181 
L -951.223236 178.886656 
L -943.175159 178.797251 
L -935.127082 178.66746 
L -927.079005 178.779971 
L -919.030929 178.693051 
L -910.982852 178.356972 
L -902.934775 178.468417 
L -894.886698 178.19074 
L -886.838621 178.377907 
L -878.790544 178.290709 
L -870.742467 178.462724 
L -862.69439 178.075476 
L -854.646313 177.140217 
L -846.598236 178.154122 
L -838.550159 178.174419 
L -830.502082 178.041936 
L -822.454005 177.922462 
L -814.405929 177.51958 
L -806.357852 177.517745 
L -798.309775 177.23291 
L -790.261698 177.320371 
L -782.213621 177.234713 
L -774.165544 176.768145 
L -766.117467 176.281671 
L -758.06939 177.070138 
L -750.021313 176.91777 
L -741.973236 176.320295 
L -733.925159 176.637206 
L -725.877082 175.781156 
L -717.829005 175.642689 
L -709.780929 175.855446 
L -701.732852 175.20076 
L -693.684775 176.329887 
L -685.636698 175.264998 
L -677.588621 174.581501 
L -669.540544 175.157095 
L -661.492467 175.407299 
L -653.44439 175.188354 
L -645.396313 175.544586 
L -637.348236 174.974199 
L -629.300159 175.892384 
L -621.252082 175.226563 
L -613.204005 175.372746 
L -605.155929 174.905846 
L -597.107852 174.30097 
L -589.059775 175.07702 
L -581.011698 176.450707 
L -572.963621 174.791606 
L -564.915544 174.976609 
L -556.867467 174.291979 
L -548.81939 174.78681 
L -540.771313 174.432499 
L -532.723236 174.115707 
L -524.675159 173.89781 
L -516.627082 174.638431 
L -508.579005 174.30552 
L -500.530929 174.85169 
L -492.482852 174.895631 
L -484.434775 173.031926 
L -476.386698 173.884467 
L -468.338621 173.664491 
L -460.290544 173.940131 
L -452.242467 173.958053 
L -444.19439 175.107426 
L -436.146313 175.592209 
L -428.098236 175.487413 
L -420.050159 176.982035 
L -412.002082 179.53099 
L -403.954005 176.255068 
L -395.905929 176.277124 
L -387.857852 176.113753 
L -379.809775 176.912033 
L -371.761698 177.126599 
L -363.713621 177.061926 
L -355.665544 179.989796 
L -347.617467 179.813927 
L -339.56939 177.457833 
L -331.521313 179.608194 
L -323.473236 178.907662 
L -315.425159 177.81624 
L -307.377082 180.703329 
L -299.329005 180.37136 
L -291.280929 182.047503 
L -283.232852 180.878536 
L -275.184775 179.946269 
L -267.136698 181.185121 
L -259.088621 180.998169 
L -251.040544 182.567179 
L -242.992467 181.267417 
L -234.94439 183.655373 
L -226.896313 182.408872 
L -218.848236 183.24285 
L -210.800159 182.74824 
L -202.752082 183.925446 
L -194.704005 182.017223 
L -186.655929 184.539564 
L -178.607852 183.897337 
L -170.559775 186.143232 
L -162.511698 185.933266 
L -154.463621 187.108 
L -146.415544 186.539484 
L -138.367467 187.276399 
L -130.31939 189.060879 
L -122.271313 187.622545 
L -114.223236 187.14934 
L -106.175159 187.994887 
L -98.127082 189.062832 
L -90.079005 187.699391 
L -82.030929 186.164087 
L -73.982852 189.675745 
L -65.934775 192.261518 
L -57.886698 187.932146 
L -49.838621 188.95958 
L -41.790544 189.807026 
L -33.742467 189.65826 
L -25.69439 191.696516 
L -17.646313 191.865076 
L -9.598236 190.677405 
L -1.550159 191.71496 
L 6.497918 192.02488 
L 14.545995 189.672633 
L 22.594071 190.50736 
L 30.642148 189.488846 
L 38.690225 193.376391 
L 46.738302 197.152575 
L 54.786379 196.431695 
L 62.834456 193.325875 
L 70.882533 193.023117 
L 78.93061 193.190067 
L 86.978687 192.982409 
L 95.026764 196.29097 
L 103.074841 192.844287 
L 111.122918 196.621811 
L 119.170995 199.65974 
L 127.219071 197.021744 
L 135.267148 201.569557 
L 143.315225 198.182411 
L 151.363302 201.452722 
L 159.411379 199.684898 
L 167.459456 200.593307 
L 175.507533 202.824306 
L 183.55561 202.757194 
L 191.603687 203.461843 
L 199.651764 203.414828 
L 207.699841 203.61606 
L 215.747918 197.513539 
L 223.795995 205.791363 
L 231.844071 208.978237 
L 239.892148 205.95602 
L 247.940225 207.724426 
L 255.988302 209.708246 
L 264.036379 207.069853 
L 272.084456 210.12492 
L 280.132533 212.545815 
L 288.18061 211.078874 
L 296.228687 212.415416 
L 304.276764 213.080223 
L 312.324841 213.469396 
L 320.372918 214.183728 
L 328.420995 210.73467 
L 336.469071 217.416649 
L 344.517148 217.483127 
L 352.565225 217.460368 
L 360.613302 213.103118 
L 368.661379 218.813415 
L 376.709456 221.881038 
L 384.757533 219.05556 
L 392.80561 219.034253 
L 400.853687 224.155286 
L 408.901764 214.536562 
L 416.949841 223.189041 
L 424.997918 216.833232 
L 433.045995 225.924722 
L 441.094071 222.218465 
L 449.142148 225.658916 
L 457.190225 226.618173 
L 465.238302 227.544553 
L 473.286379 227.930889 
L 481.334456 225.955211 
L 489.382533 226.267173 
L 497.43061 228.200771 
L 505.478687 230.460297 
L 513.526764 230.516652 
L 521.574841 230.216205 
L 529.622918 232.507827 
L 537.670995 232.434402 
L 545.719071 230.662957 
L 553.767148 230.350806 
L 561.815225 234.614184 
L 569.863302 234.887119 
L 577.911379 235.683595 
L 585.959456 233.397327 
L 594.007533 228.193785 
L 602.05561 233.55753 
L 610.103687 232.045251 
L 618.151764 233.34415 
L 626.199841 235.140619 
L 634.247918 232.509533 
L 642.295995 235.763753 
L 650.344071 232.949618 
L 658.392148 232.77003 
L 666.440225 232.972145 
L 674.488302 234.890203 
L 682.536379 234.600376 
L 690.584456 234.104535 
L 698.632533 231.91469 
L 706.68061 232.994961 
L 714.728687 233.78327 
L 722.776764 232.771764 
L 730.824841 234.318159 
L 738.872918 232.943609 
L 746.920995 233.930112 
L 754.969071 235.567335 
L 763.017148 235.225663 
L 771.065225 233.449785 
L 779.113302 233.422641 
L 787.161379 233.037493 
L 795.209456 233.746283 
L 803.257533 233.653471 
L 811.30561 230.787629 
L 819.353687 232.92112 
L 827.401764 219.753218 
L 835.449841 232.778834 
L 843.497918 233.597581 
L 851.545995 231.609603 
L 859.594071 229.544254 
L 867.642148 233.305317 
L 875.690225 231.508453 
L 883.738302 228.418611 
L 891.786379 230.242048 
L 899.834456 230.203003 
L 907.882533 229.297441 
L 915.93061 231.024523 
L 923.978687 229.591703 
L 932.026764 230.255719 
L 940.074841 230.714459 
L 940.074841 192.125955 
L 940.074841 192.125955 
L 932.026764 193.38221 
L 923.978687 192.868568 
L 915.93061 193.556684 
L 907.882533 192.818498 
L 899.834456 193.334495 
L 891.786379 193.102867 
L 883.738302 193.48197 
L 875.690225 194.632825 
L 867.642148 194.92285 
L 859.594071 194.366396 
L 851.545995 194.681932 
L 843.497918 195.940112 
L 835.449841 195.375234 
L 827.401764 193.332798 
L 819.353687 195.965951 
L 811.30561 195.72341 
L 803.257533 196.493357 
L 795.209456 196.715248 
L 787.161379 196.672703 
L 779.113302 197.212937 
L 771.065225 197.378375 
L 763.017148 198.070708 
L 754.969071 198.380025 
L 746.920995 198.21889 
L 738.872918 198.092526 
L 730.824841 198.502567 
L 722.776764 198.076 
L 714.728687 198.526759 
L 706.68061 198.590813 
L 698.632533 198.425577 
L 690.584456 199.398935 
L 682.536379 199.71897 
L 674.488302 200.203027 
L 666.440225 199.396945 
L 658.392148 199.661951 
L 650.344071 199.986688 
L 642.295995 201.017322 
L 634.247918 200.055197 
L 626.199841 201.141439 
L 618.151764 200.619322 
L 610.103687 200.353126 
L 602.05561 201.022073 
L 594.007533 199.553162 
L 585.959456 201.182096 
L 577.911379 202.334123 
L 569.863302 202.194429 
L 561.815225 202.169115 
L 553.767148 201.085675 
L 545.719071 201.111498 
L 537.670995 201.889346 
L 529.622918 201.966026 
L 521.574841 201.282718 
L 513.526764 201.438911 
L 505.478687 201.716152 
L 497.43061 200.495032 
L 489.382533 200.196499 
L 481.334456 200.269027 
L 473.286379 201.139074 
L 465.238302 201.067666 
L 457.190225 200.615258 
L 449.142148 200.315848 
L 441.094071 199.152169 
L 433.045995 200.601215 
L 424.997918 197.799454 
L 416.949841 199.948657 
L 408.901764 196.730293 
L 400.853687 200.345156 
L 392.80561 198.411548 
L 384.757533 198.332012 
L 376.709456 199.897192 
L 368.661379 198.544482 
L 360.613302 196.448301 
L 352.565225 198.31531 
L 344.517148 198.281627 
L 336.469071 198.304334 
L 328.420995 195.512491 
L 320.372918 197.903713 
L 312.324841 196.861267 
L 304.276764 196.584048 
L 296.228687 196.446233 
L 288.18061 196.140512 
L 280.132533 196.813195 
L 272.084456 195.9031 
L 264.036379 194.492689 
L 255.988302 195.325431 
L 247.940225 195.1233 
L 239.892148 193.88916 
L 231.844071 195.412109 
L 223.795995 194.003937 
L 215.747918 190.446035 
L 207.699841 193.326655 
L 199.651764 193.284216 
L 191.603687 193.26448 
L 183.55561 192.988349 
L 175.507533 193.144882 
L 167.459456 192.074527 
L 159.411379 191.572281 
L 151.363302 192.418755 
L 143.315225 191.321982 
L 135.267148 192.741867 
L 127.219071 190.67537 
L 119.170995 192.144465 
L 111.122918 190.543989 
L 103.074841 188.514551 
L 95.026764 190.549307 
L 86.978687 188.899618 
L 78.93061 188.974546 
L 70.882533 188.682065 
L 62.834456 188.946818 
L 54.786379 190.801329 
L 46.738302 191.157715 
L 38.690225 189.016942 
L 30.642148 186.976751 
L 22.594071 187.46063 
L 14.545995 186.717323 
L 6.497918 188.341302 
L -1.550159 188.159416 
L -9.598236 187.626444 
L -17.646313 188.120293 
L -25.69439 188.417895 
L -33.742467 187.034044 
L -41.790544 186.808291 
L -49.838621 186.313319 
L -57.886698 185.411234 
L -65.934775 188.429219 
L -73.982852 187.063333 
L -82.030929 184.103191 
L -90.079005 184.952292 
L -98.127082 186.236275 
L -106.175159 185.471783 
L -114.223236 184.74305 
L -122.271313 185.002561 
L -130.31939 185.799088 
L -138.367467 184.942105 
L -146.415544 184.023545 
L -154.463621 184.478778 
L -162.511698 184.164896 
L -170.559775 183.638189 
L -178.607852 182.016922 
L -186.655929 182.25966 
L -194.704005 179.980479 
L -202.752082 181.991988 
L -210.800159 180.853741 
L -218.848236 181.220829 
L -226.896313 180.115361 
L -234.94439 181.570238 
L -242.992467 179.500648 
L -251.040544 180.296415 
L -259.088621 179.028556 
L -267.136698 179.059011 
L -275.184775 177.84618 
L -283.232852 178.901631 
L -291.280929 180.032058 
L -299.329005 178.090828 
L -307.377082 178.596672 
L -315.425159 175.615012 
L -323.473236 176.648733 
L -331.521313 177.655593 
L -339.56939 175.356475 
L -347.617467 178.175628 
L -355.665544 177.578812 
L -363.713621 175.071631 
L -371.761698 175.21967 
L -379.809775 174.941601 
L -387.857852 173.944368 
L -395.905929 174.351841 
L -403.954005 174.337691 
L -412.002082 177.688647 
L -420.050159 175.111232 
L -428.098236 173.473308 
L -436.146313 173.494482 
L -444.19439 173.015809 
L -452.242467 171.675137 
L -460.290544 171.760513 
L -468.338621 171.167896 
L -476.386698 171.559724 
L -484.434775 170.616287 
L -492.482852 172.703082 
L -500.530929 172.71381 
L -508.579005 172.036974 
L -516.627082 172.394731 
L -524.675159 171.401043 
L -532.723236 171.754467 
L -540.771313 172.095741 
L -548.81939 172.371756 
L -556.867467 171.819201 
L -564.915544 172.605594 
L -572.963621 172.389471 
L -581.011698 174.153104 
L -589.059775 172.586321 
L -597.107852 171.655961 
L -605.155929 172.30237 
L -613.204005 172.836728 
L -621.252082 172.622475 
L -629.300159 173.349994 
L -637.348236 172.18872 
L -645.396313 172.799913 
L -653.44439 172.373577 
L -661.492467 172.660396 
L -669.540544 172.261002 
L -677.588621 171.592828 
L -685.636698 172.401025 
L -693.684775 173.557652 
L -701.732852 172.255675 
L -709.780929 173.016539 
L -717.829005 172.647568 
L -725.877082 172.868469 
L -733.925159 173.950842 
L -741.973236 173.486568 
L -750.021313 174.243957 
L -758.06939 174.411796 
L -766.117467 173.404309 
L -774.165544 173.931383 
L -782.213621 174.492569 
L -790.261698 174.621242 
L -798.309775 174.547243 
L -806.357852 174.895592 
L -814.405929 174.778466 
L -822.454005 175.347344 
L -830.502082 175.473711 
L -838.550159 175.553989 
L -846.598236 175.616182 
L -854.646313 174.357911 
L -862.69439 175.571363 
L -870.742467 176.029853 
L -878.790544 175.794407 
L -886.838621 175.782452 
L -894.886698 175.702619 
L -902.934775 176.026385 
L -910.982852 175.845684 
L -919.030929 176.32445 
L -927.079005 176.430779 
L -935.127082 176.237576 
L -943.175159 176.366398 
L -951.223236 176.568393 
L -959.271313 176.776648 
L -967.31939 177.590495 
L -975.367467 177.670174 
L -983.415544 177.977444 
L -991.463621 177.584516 
L -999.511698 177.865348 
L -1007.559775 177.735107 
L -1015.607852 177.69241 
L -1023.655929 177.020261 
L -1031.704005 178.17181 
L -1039.752082 178.084886 
L -1047.800159 177.959359 
L -1055.848236 178.546104 
L -1063.896313 178.260596 
L -1071.94439 178.357222 
L -1079.992467 177.697356 
L -1088.040544 178.557854 
L -1096.088621 177.963603 
L -1104.136698 178.769865 
L -1112.184775 179.25928 
L -1120.232852 179.199956 
L -1128.280929 179.87928 
L -1136.329005 180.347194 
L -1144.377082 180.033323 
L -1152.425159 180.199936 
L -1160.473236 180.041417 
L -1168.521313 180.357619 
L -1176.56939 179.886047 
L -1184.617467 180.43869 
L -1192.665544 180.778739 
L -1200.713621 180.854494 
L -1208.761698 180.805833 
L -1216.809775 180.658957 
L -1224.857852 181.361704 
L -1232.905929 181.300453 
L -1240.954005 181.588204 
L -1249.002082 182.224725 
L -1257.050159 182.259298 
L -1265.098236 181.165697 
L -1273.146313 181.139438 
L -1281.19439 181.89045 
L -1289.242467 181.754402 
L -1297.290544 182.218287 
L -1305.338621 182.522995 
L -1313.386698 182.042621 
L -1321.434775 182.034175 
L -1329.482852 182.270642 
L -1337.530929 182.835302 
L -1345.579005 181.847003 
L -1353.627082 181.975804 
L -1361.675159 181.750473 
L -1369.723236 182.618471 
L -1377.771313 182.231097 
L -1385.81939 181.549486 
L -1393.867467 181.913357 
L -1401.915544 182.364912 
L -1409.963621 180.564805 
L -1418.011698 181.860256 
L -1426.059775 179.740476 
L -1434.107852 179.440698 
L -1442.155929 178.848451 
L -1450.204005 179.019573 
L -1458.252082 179.044937 
L -1466.300159 178.766799 
L -1474.348236 177.604572 
L -1482.396313 178.006245 
L -1490.44439 175.83837 
L -1498.492467 172.974189 
L -1506.540544 173.6729 
L -1514.588621 174.855771 
L -1522.636698 171.461416 
L -1530.684775 171.797966 
L -1538.732852 170.814289 
L -1546.780929 170.557308 
L -1554.829005 166.450707 
L -1562.877082 165.86371 
L -1570.925159 164.414452 
L -1578.973236 161.322027 
L -1587.021313 158.832564 
L -1595.06939 161.275575 
L -1603.117467 159.890541 
L -1611.165544 157.740295 
L -1619.213621 156.83202 
L -1627.261698 155.294415 
L -1635.309775 153.256295 
L -1643.357852 153.973442 
L -1651.405929 150.541443 
L -1659.454005 148.718111 
L -1667.502082 147.878015 
L -1675.550159 147.174557 
L -1683.598236 147.484699 
L -1691.646313 146.616875 
L -1699.69439 147.26504 
L -1707.742467 148.133214 
L -1715.790544 146.4975 
L -1723.838621 146.286483 
L -1731.886698 147.733215 
L -1739.934775 148.005286 
L -1747.982852 147.349409 
L -1756.030929 150.374563 
L -1764.079005 148.113126 
L -1772.127082 148.766713 
L -1780.175159 151.039301 
L -1788.223236 150.280252 
L -1796.271313 151.046929 
L -1804.31939 151.718531 
L -1812.367467 152.523387 
L -1820.415544 153.278901 
L -1828.463621 154.145334 
L -1836.511698 154.935203 
L -1844.559775 155.554006 
L -1852.607852 156.612018 
L -1860.655929 156.760827 
L -1868.704005 158.524168 
L -1876.752082 158.455331 
L -1884.800159 159.260612 
L -1892.848236 160.223286 
L -1900.896313 160.900169 
L -1908.94439 161.81145 
L -1916.992467 162.41542 
L -1925.040544 163.429448 
L -1933.088621 163.97574 
L -1941.136698 164.725643 
L -1949.184775 165.538055 
L -1957.232852 166.399849 
L -1965.280929 166.882471 
L -1973.329005 167.727342 
L -1981.377082 168.191645 
L -1989.425159 169.012716 
L -1997.473236 169.449645 
L -2005.521313 169.886923 
L -2013.56939 170.398476 
L -2021.617467 170.82995 
L -2029.665544 171.1658 
L -2037.713621 171.668582 
L -2045.761698 171.816831 
L -2053.809775 172.494248 
L -2061.857852 172.884965 
L -2069.905929 173.205969 
L -2077.954005 173.647989 
L -2086.002082 173.838973 
L -2094.050159 174.210124 
L -2102.098236 174.597207 
L -2110.146313 175.046702 
L -2118.19439 175.344588 
L -2126.242467 175.638521 
L -2134.290544 175.97916 
L -2142.338621 176.303006 
L -2150.386698 176.667959 
L -2158.434775 176.922801 
L -2166.482852 177.219993 
L -2174.530929 177.429686 
L -2182.579005 177.798802 
L -2190.627082 178.013464 
L -2198.675159 178.285067 
L -2206.723236 178.670374 
L -2214.771313 178.882793 
L -2222.81939 178.821321 
L -2230.867467 179.118581 
L -2238.915544 179.188154 
L -2246.963621 179.473542 
L -2255.011698 179.834727 
L -2263.059775 179.942224 
L -2271.107852 180.037457 
L -2279.155929 179.933445 
L -2287.204005 180.051529 
L -2295.252082 180.064935 
L -2303.300159 180.094619 
L -2311.348236 180.333546 
L -2319.396313 180.416853 
L -2327.44439 180.600496 
L -2335.492467 180.290446 
L -2343.540544 180.341598 
L -2351.588621 179.9388 
L -2359.636698 180.264362 
L -2367.684775 180.218083 
L -2375.732852 180.431084 
L -2383.780929 179.639444 
L -2391.829005 180.371782 
L -2399.877082 180.206157 
L -2407.925159 179.635988 
L -2415.973236 179.427629 
L -2424.021313 179.772029 
L -2432.06939 180.429366 
L -2440.117467 180.056504 
L -2448.165544 179.963486 
L -2456.213621 179.142555 
L -2464.261698 179.067811 
L -2472.309775 179.219354 
L -2480.357852 179.615755 
L -2488.405929 179.407182 
L -2496.454005 179.25787 
L -2504.502082 179.279883 
L -2512.550159 179.512707 
L -2520.598236 179.402065 
L -2528.646313 179.537738 
L -2536.69439 179.79446 
L -2544.742467 179.549182 
L -2552.790544 179.945448 
L -2560.838621 179.979894 
L -2568.886698 180.002417 
L -2576.934775 180.246465 
L -2584.982852 180.288547 
L -2593.030929 180.566157 
L -2601.079005 180.872803 
L -2609.127082 180.857093 
L -2617.175159 180.705369 
L -2625.223236 180.593031 
L -2633.271313 181.273695 
L -2641.31939 181.138092 
L -2649.367467 181.592104 
L -2657.415544 181.587063 
L -2665.463621 181.395126 
L -2673.511698 181.846524 
L -2681.559775 181.405353 
L -2689.607852 181.417214 
L -2697.655929 181.995158 
L -2705.704005 181.562121 
L -2713.752082 182.107461 
L -2721.800159 182.275369 
L -2729.848236 181.796791 
L -2737.896313 180.295773 
L -2745.94439 181.238102 
L -2753.992467 180.77058 
L -2762.040544 178.541242 
L -2770.088621 180.41805 
L -2778.136698 180.793266 
L -2786.184775 178.728185 
L -2794.232852 178.1507 
L -2802.280929 179.233524 
L -2810.329005 176.888754 
L -2818.377082 172.706218 
L -2826.425159 177.263557 
L -2834.473236 179.026278 
L -2842.521313 179.84476 
L -2850.56939 174.157869 
L -2858.617467 174.371386 
L -2866.665544 171.52881 
L -2874.713621 169.336724 
L -2882.761698 173.701981 
L -2890.809775 171.784315 
L -2898.857852 167.866544 
L -2906.905929 165.11981 
L -2914.954005 165.253306 
L -2923.002082 165.68949 
L -2931.050159 165.085859 
L -2939.098236 164.708964 
L -2947.146313 166.215123 
L -2955.19439 165.995467 
L -2963.242467 164.94826 
L -2971.290544 165.525839 
L -2979.338621 165.072632 
L -2987.386698 164.87695 
L -2995.434775 164.872241 
L -3003.482852 165.439329 
L -3011.530929 165.755709 
L -3019.579005 165.923204 
L -3027.627082 166.4084 
L -3035.675159 166.618551 
L -3043.723236 167.007654 
L -3051.771313 167.644555 
L -3059.81939 168.139332 
L -3067.867467 168.468124 
L -3075.915544 168.831321 
L -3083.963621 169.326369 
L -3092.011698 169.624051 
L -3100.059775 170.098907 
L -3108.107852 170.682059 
L -3116.155929 171.024481 
L -3124.204005 171.249097 
L -3132.252082 171.605283 
L -3140.300159 171.973025 
L -3148.348236 172.309303 
L -3156.396313 172.625449 
L -3164.44439 172.929186 
L -3172.492467 173.35776 
L -3180.540544 173.567601 
L -3188.588621 173.878011 
L -3196.636698 174.203837 
L -3204.684775 174.481351 
L -3212.732852 174.756312 
L -3220.780929 174.984951 
L -3228.829005 175.232192 
L -3236.877082 175.563639 
L -3244.925159 175.787988 
L -3252.973236 176.055066 
L -3261.021313 176.268008 
L -3269.06939 176.510708 
L -3277.117467 176.759893 
L -3285.165544 177.01296 
L -3293.213621 177.224653 
L -3301.261698 177.476654 
L -3309.309775 177.69726 
L -3317.357852 177.928102 
L -3325.405929 178.140723 
L -3333.454005 178.363923 
L -3341.502082 178.569024 
L -3349.550159 178.789905 
L -3357.598236 179.029027 
L -3365.646313 179.209592 
L -3373.69439 179.437661 
L -3381.742467 179.63353 
L -3389.790544 179.861762 
L -3397.838621 180.027079 
L -3405.886698 180.23915 
L -3413.934775 180.441112 
L -3421.982852 180.633222 
L -3430.030929 180.828979 
L -3438.079005 181.009665 
L -3446.127082 181.221279 
L -3454.175159 181.411214 
L -3462.223236 181.566681 
L -3470.271313 181.752211 
L -3478.31939 181.93735 
L -3486.367467 182.121416 
L -3494.415544 182.298597 
L -3502.463621 182.463085 
L -3510.511698 182.644517 
L -3518.559775 182.82197 
L -3526.607852 183.000128 
L -3534.655929 183.177372 
L -3542.704005 183.359288 
L -3550.752082 183.548365 
L -3558.800159 183.70982 
L -3566.848236 183.895579 
L -3574.896313 184.077412 
L -3582.94439 184.251313 
L -3590.992467 184.430768 
L -3599.040544 184.613851 
L -3607.088621 184.7909 
L -3615.136698 184.976985 
L -3623.184775 185.145472 
L -3631.232852 185.317551 
L -3639.280929 185.499836 
L -3647.329005 185.675313 
L -3655.377082 185.841056 
L -3663.425159 186.016918 
L -3671.473236 186.176071 
L -3679.521313 186.346806 
L -3687.56939 186.529299 
L -3695.617467 186.683894 
L -3703.665544 186.858164 
L -3711.713621 187.022128 
L -3719.761698 187.194503 
L -3727.809775 187.348959 
L -3735.857852 187.531662 
L -3743.905929 187.680353 
L -3751.954005 187.8488 
L -3760.002082 188.01318 
L -3768.050159 188.182033 
L -3776.098236 188.341669 
L -3784.146313 188.504577 
L -3792.19439 188.668267 
L -3800.242467 188.837151 
L -3808.290544 188.986169 
L -3816.338621 189.127709 
L -3824.386698 189.272929 
L -3832.434775 189.41941 
L -3840.482852 189.560628 
L -3848.530929 189.704772 
L -3856.579005 189.847414 
L -3864.627082 189.983379 
L -3872.675159 190.121418 
L -3880.723236 190.259011 
L -3888.771313 190.38341 
L -3896.81939 190.510554 
L -3904.867467 190.644128 
L -3912.915544 190.770491 
L -3920.963621 190.882762 
L -3929.011698 191.008 
L -3937.059775 191.122021 
L -3945.107852 191.22675 
L -3953.155929 191.331988 
L -3961.204005 191.430255 
L -3969.252082 191.53731 
L -3977.300159 191.624817 
L -3985.348236 191.718116 
L -3993.396313 191.805927 
L -4001.44439 191.887188 
L -4009.492467 191.961033 
L -4017.540544 192.027936 
L -4025.588621 192.094681 
L -4033.636698 192.161119 
L -4041.684775 192.215535 
L -4049.732852 192.277157 
L -4057.780929 192.328874 
L -4065.829005 192.373044 
L -4073.877082 192.42574 
L -4081.925159 192.471626 
L -4089.973236 192.509151 
L -4098.021313 192.549857 
L -4106.06939 192.589485 
L -4114.117467 192.624053 
L -4122.165544 192.658876 
L -4130.213621 192.687241 
L -4138.261698 192.722256 
L -4146.309775 192.749594 
L -4154.357852 192.778565 
L -4162.405929 192.809188 
L -4170.454005 192.833735 
L -4178.502082 192.859978 
L -4186.550159 192.895196 
L -4194.598236 192.919398 
L -4202.646313 192.949711 
L -4210.69439 192.973277 
L -4218.742467 193.005498 
L -4226.790544 193.030599 
L -4234.838621 193.057366 
L -4242.886698 193.080596 
L -4250.934775 193.101659 
L -4258.982852 193.126258 
L -4267.030929 193.153859 
L -4275.079005 193.180826 
L -4283.127082 193.203473 
L -4291.175159 193.221169 
L -4299.223236 193.247875 
L -4307.271313 193.269306 
L -4315.31939 193.295402 
z
" clip-path="url(#p97aa76e86e)" style="fill: #008000; fill-opacity: 0.3; stroke: #008000; stroke-opacity: 0.3"/>
   </g>
   <g id="matplotlib.axis_1">
    <g id="xtick_1">
     <g id="line2d_1">
      <defs>
       <path id="m1f1c6a84d4" d="M 0 0 
L 0 3.5 
" style="stroke: #000000; stroke-width: 0.8"/>
      </defs>
      <g>
       <use xlink:href="#m1f1c6a84d4" x="103.074841" y="395.28" style="stroke: #000000; stroke-width: 0.8"/>
      </g>
     </g>
     <g id="text_1">
      <!-- 2023-01-01 -->
      <g transform="translate(17.945813 495.213718) rotate(-45) scale(0.2 -0.2)">
       <defs>
        <path id="DejaVuSans-32" d="M 1228 531 
L 3431 531 
L 3431 0 
L 469 0 
L 469 531 
Q 828 903 1448 1529 
Q 2069 2156 2228 2338 
Q 2531 2678 2651 2914 
Q 2772 3150 2772 3378 
Q 2772 3750 2511 3984 
Q 2250 4219 1831 4219 
Q 1534 4219 1204 4116 
Q 875 4013 500 3803 
L 500 4441 
Q 881 4594 1212 4672 
Q 1544 4750 1819 4750 
Q 2544 4750 2975 4387 
Q 3406 4025 3406 3419 
Q 3406 3131 3298 2873 
Q 3191 2616 2906 2266 
Q 2828 2175 2409 1742 
Q 1991 1309 1228 531 
z
" transform="scale(0.015625)"/>
        <path id="DejaVuSans-30" d="M 2034 4250 
Q 1547 4250 1301 3770 
Q 1056 3291 1056 2328 
Q 1056 1369 1301 889 
Q 1547 409 2034 409 
Q 2525 409 2770 889 
Q 3016 1369 3016 2328 
Q 3016 3291 2770 3770 
Q 2525 4250 2034 4250 
z
M 2034 4750 
Q 2819 4750 3233 4129 
Q 3647 3509 3647 2328 
Q 3647 1150 3233 529 
Q 2819 -91 2034 -91 
Q 1250 -91 836 529 
Q 422 1150 422 2328 
Q 422 3509 836 4129 
Q 1250 4750 2034 4750 
z
" transform="scale(0.015625)"/>
        <path id="DejaVuSans-33" d="M 2597 2516 
Q 3050 2419 3304 2112 
Q 3559 1806 3559 1356 
Q 3559 666 3084 287 
Q 2609 -91 1734 -91 
Q 1441 -91 1130 -33 
Q 819 25 488 141 
L 488 750 
Q 750 597 1062 519 
Q 1375 441 1716 441 
Q 2309 441 2620 675 
Q 2931 909 2931 1356 
Q 2931 1769 2642 2001 
Q 2353 2234 1838 2234 
L 1294 2234 
L 1294 2753 
L 1863 2753 
Q 2328 2753 2575 2939 
Q 2822 3125 2822 3475 
Q 2822 3834 2567 4026 
Q 2313 4219 1838 4219 
Q 1578 4219 1281 4162 
Q 984 4106 628 3988 
L 628 4550 
Q 988 4650 1302 4700 
Q 1616 4750 1894 4750 
Q 2613 4750 3031 4423 
Q 3450 4097 3450 3541 
Q 3450 3153 3228 2886 
Q 3006 2619 2597 2516 
z
" transform="scale(0.015625)"/>
        <path id="DejaVuSans-2d" d="M 313 2009 
L 1997 2009 
L 1997 1497 
L 313 1497 
L 313 2009 
z
" transform="scale(0.015625)"/>
        <path id="DejaVuSans-31" d="M 794 531 
L 1825 531 
L 1825 4091 
L 703 3866 
L 703 4441 
L 1819 4666 
L 2450 4666 
L 2450 531 
L 3481 531 
L 3481 0 
L 794 0 
L 794 531 
z
" transform="scale(0.015625)"/>
       </defs>
       <use xlink:href="#DejaVuSans-32"/>
       <use xlink:href="#DejaVuSans-30" x="63.623047"/>
       <use xlink:href="#DejaVuSans-32" x="127.246094"/>
       <use xlink:href="#DejaVuSans-33" x="190.869141"/>
       <use xlink:href="#DejaVuSans-2d" x="254.492188"/>
       <use xlink:href="#DejaVuSans-30" x="290.576172"/>
       <use xlink:href="#DejaVuSans-31" x="354.199219"/>
       <use xlink:href="#DejaVuSans-2d" x="417.822266"/>
       <use xlink:href="#DejaVuSans-30" x="453.90625"/>
       <use xlink:href="#DejaVuSans-31" x="517.529297"/>
      </g>
     </g>
    </g>
    <g id="xtick_2">
     <g id="line2d_2">
      <g>
       <use xlink:href="#m1f1c6a84d4" x="215.747918" y="395.28" style="stroke: #000000; stroke-width: 0.8"/>
      </g>
     </g>
     <g id="text_2">
      <!-- 2023-01-15 -->
      <g transform="translate(130.61889 495.213718) rotate(-45) scale(0.2 -0.2)">
       <defs>
        <path id="DejaVuSans-35" d="M 691 4666 
L 3169 4666 
L 3169 4134 
L 1269 4134 
L 1269 2991 
Q 1406 3038 1543 3061 
Q 1681 3084 1819 3084 
Q 2600 3084 3056 2656 
Q 3513 2228 3513 1497 
Q 3513 744 3044 326 
Q 2575 -91 1722 -91 
Q 1428 -91 1123 -41 
Q 819 9 494 109 
L 494 744 
Q 775 591 1075 516 
Q 1375 441 1709 441 
Q 2250 441 2565 725 
Q 2881 1009 2881 1497 
Q 2881 1984 2565 2268 
Q 2250 2553 1709 2553 
Q 1456 2553 1204 2497 
Q 953 2441 691 2322 
L 691 4666 
z
" transform="scale(0.015625)"/>
       </defs>
       <use xlink:href="#DejaVuSans-32"/>
       <use xlink:href="#DejaVuSans-30" x="63.623047"/>
       <use xlink:href="#DejaVuSans-32" x="127.246094"/>
       <use xlink:href="#DejaVuSans-33" x="190.869141"/>
       <use xlink:href="#DejaVuSans-2d" x="254.492188"/>
       <use xlink:href="#DejaVuSans-30" x="290.576172"/>
       <use xlink:href="#DejaVuSans-31" x="354.199219"/>
       <use xlink:href="#DejaVuSans-2d" x="417.822266"/>
       <use xlink:href="#DejaVuSans-31" x="453.90625"/>
       <use xlink:href="#DejaVuSans-35" x="517.529297"/>
      </g>
     </g>
    </g>
    <g id="xtick_3">
     <g id="line2d_3">
      <g>
       <use xlink:href="#m1f1c6a84d4" x="328.420995" y="395.28" style="stroke: #000000; stroke-width: 0.8"/>
      </g>
     </g>
     <g id="text_3">
      <!-- 2023-01-29 -->
      <g transform="translate(243.291967 495.213718) rotate(-45) scale(0.2 -0.2)">
       <defs>
        <path id="DejaVuSans-39" d="M 703 97 
L 703 672 
Q 941 559 1184 500 
Q 1428 441 1663 441 
Q 2288 441 2617 861 
Q 2947 1281 2994 2138 
Q 2813 1869 2534 1725 
Q 2256 1581 1919 1581 
Q 1219 1581 811 2004 
Q 403 2428 403 3163 
Q 403 3881 828 4315 
Q 1253 4750 1959 4750 
Q 2769 4750 3195 4129 
Q 3622 3509 3622 2328 
Q 3622 1225 3098 567 
Q 2575 -91 1691 -91 
Q 1453 -91 1209 -44 
Q 966 3 703 97 
z
M 1959 2075 
Q 2384 2075 2632 2365 
Q 2881 2656 2881 3163 
Q 2881 3666 2632 3958 
Q 2384 4250 1959 4250 
Q 1534 4250 1286 3958 
Q 1038 3666 1038 3163 
Q 1038 2656 1286 2365 
Q 1534 2075 1959 2075 
z
" transform="scale(0.015625)"/>
       </defs>
       <use xlink:href="#DejaVuSans-32"/>
       <use xlink:href="#DejaVuSans-30" x="63.623047"/>
       <use xlink:href="#DejaVuSans-32" x="127.246094"/>
       <use xlink:href="#DejaVuSans-33" x="190.869141"/>
       <use xlink:href="#DejaVuSans-2d" x="254.492188"/>
       <use xlink:href="#DejaVuSans-30" x="290.576172"/>
       <use xlink:href="#DejaVuSans-31" x="354.199219"/>
       <use xlink:href="#DejaVuSans-2d" x="417.822266"/>
       <use xlink:href="#DejaVuSans-32" x="453.90625"/>
       <use xlink:href="#DejaVuSans-39" x="517.529297"/>
      </g>
     </g>
    </g>
    <g id="xtick_4">
     <g id="line2d_4">
      <g>
       <use xlink:href="#m1f1c6a84d4" x="441.094071" y="395.28" style="stroke: #000000; stroke-width: 0.8"/>
      </g>
     </g>
     <g id="text_4">
      <!-- 2023-02-12 -->
      <g transform="translate(355.965044 495.213718) rotate(-45) scale(0.2 -0.2)">
       <use xlink:href="#DejaVuSans-32"/>
       <use xlink:href="#DejaVuSans-30" x="63.623047"/>
       <use xlink:href="#DejaVuSans-32" x="127.246094"/>
       <use xlink:href="#DejaVuSans-33" x="190.869141"/>
       <use xlink:href="#DejaVuSans-2d" x="254.492188"/>
       <use xlink:href="#DejaVuSans-30" x="290.576172"/>
       <use xlink:href="#DejaVuSans-32" x="354.199219"/>
       <use xlink:href="#DejaVuSans-2d" x="417.822266"/>
       <use xlink:href="#DejaVuSans-31" x="453.90625"/>
       <use xlink:href="#DejaVuSans-32" x="517.529297"/>
      </g>
     </g>
    </g>
    <g id="xtick_5">
     <g id="line2d_5">
      <g>
       <use xlink:href="#m1f1c6a84d4" x="553.767148" y="395.28" style="stroke: #000000; stroke-width: 0.8"/>
      </g>
     </g>
     <g id="text_5">
      <!-- 2023-02-26 -->
      <g transform="translate(468.638121 495.213718) rotate(-45) scale(0.2 -0.2)">
       <defs>
        <path id="DejaVuSans-36" d="M 2113 2584 
Q 1688 2584 1439 2293 
Q 1191 2003 1191 1497 
Q 1191 994 1439 701 
Q 1688 409 2113 409 
Q 2538 409 2786 701 
Q 3034 994 3034 1497 
Q 3034 2003 2786 2293 
Q 2538 2584 2113 2584 
z
M 3366 4563 
L 3366 3988 
Q 3128 4100 2886 4159 
Q 2644 4219 2406 4219 
Q 1781 4219 1451 3797 
Q 1122 3375 1075 2522 
Q 1259 2794 1537 2939 
Q 1816 3084 2150 3084 
Q 2853 3084 3261 2657 
Q 3669 2231 3669 1497 
Q 3669 778 3244 343 
Q 2819 -91 2113 -91 
Q 1303 -91 875 529 
Q 447 1150 447 2328 
Q 447 3434 972 4092 
Q 1497 4750 2381 4750 
Q 2619 4750 2861 4703 
Q 3103 4656 3366 4563 
z
" transform="scale(0.015625)"/>
       </defs>
       <use xlink:href="#DejaVuSans-32"/>
       <use xlink:href="#DejaVuSans-30" x="63.623047"/>
       <use xlink:href="#DejaVuSans-32" x="127.246094"/>
       <use xlink:href="#DejaVuSans-33" x="190.869141"/>
       <use xlink:href="#DejaVuSans-2d" x="254.492188"/>
       <use xlink:href="#DejaVuSans-30" x="290.576172"/>
       <use xlink:href="#DejaVuSans-32" x="354.199219"/>
       <use xlink:href="#DejaVuSans-2d" x="417.822266"/>
       <use xlink:href="#DejaVuSans-32" x="453.90625"/>
       <use xlink:href="#DejaVuSans-36" x="517.529297"/>
      </g>
     </g>
    </g>
    <g id="xtick_6">
     <g id="line2d_6">
      <g>
       <use xlink:href="#m1f1c6a84d4" x="666.440225" y="395.28" style="stroke: #000000; stroke-width: 0.8"/>
      </g>
     </g>
     <g id="text_6">
      <!-- 2023-03-12 -->
      <g transform="translate(581.311198 495.213718) rotate(-45) scale(0.2 -0.2)">
       <use xlink:href="#DejaVuSans-32"/>
       <use xlink:href="#DejaVuSans-30" x="63.623047"/>
       <use xlink:href="#DejaVuSans-32" x="127.246094"/>
       <use xlink:href="#DejaVuSans-33" x="190.869141"/>
       <use xlink:href="#DejaVuSans-2d" x="254.492188"/>
       <use xlink:href="#DejaVuSans-30" x="290.576172"/>
       <use xlink:href="#DejaVuSans-33" x="354.199219"/>
       <use xlink:href="#DejaVuSans-2d" x="417.822266"/>
       <use xlink:href="#DejaVuSans-31" x="453.90625"/>
       <use xlink:href="#DejaVuSans-32" x="517.529297"/>
      </g>
     </g>
    </g>
    <g id="xtick_7">
     <g id="line2d_7">
      <g>
       <use xlink:href="#m1f1c6a84d4" x="779.113302" y="395.28" style="stroke: #000000; stroke-width: 0.8"/>
      </g>
     </g>
     <g id="text_7">
      <!-- 2023-03-26 -->
      <g transform="translate(693.984275 495.213718) rotate(-45) scale(0.2 -0.2)">
       <use xlink:href="#DejaVuSans-32"/>
       <use xlink:href="#DejaVuSans-30" x="63.623047"/>
       <use xlink:href="#DejaVuSans-32" x="127.246094"/>
       <use xlink:href="#DejaVuSans-33" x="190.869141"/>
       <use xlink:href="#DejaVuSans-2d" x="254.492188"/>
       <use xlink:href="#DejaVuSans-30" x="290.576172"/>
       <use xlink:href="#DejaVuSans-33" x="354.199219"/>
       <use xlink:href="#DejaVuSans-2d" x="417.822266"/>
       <use xlink:href="#DejaVuSans-32" x="453.90625"/>
       <use xlink:href="#DejaVuSans-36" x="517.529297"/>
      </g>
     </g>
    </g>
    <g id="xtick_8">
     <g id="line2d_8">
      <g>
       <use xlink:href="#m1f1c6a84d4" x="891.786379" y="395.28" style="stroke: #000000; stroke-width: 0.8"/>
      </g>
     </g>
     <g id="text_8">
      <!-- 2023-04-09 -->
      <g transform="translate(806.657352 495.213718) rotate(-45) scale(0.2 -0.2)">
       <defs>
        <path id="DejaVuSans-34" d="M 2419 4116 
L 825 1625 
L 2419 1625 
L 2419 4116 
z
M 2253 4666 
L 3047 4666 
L 3047 1625 
L 3713 1625 
L 3713 1100 
L 3047 1100 
L 3047 0 
L 2419 0 
L 2419 1100 
L 313 1100 
L 313 1709 
L 2253 4666 
z
" transform="scale(0.015625)"/>
       </defs>
       <use xlink:href="#DejaVuSans-32"/>
       <use xlink:href="#DejaVuSans-30" x="63.623047"/>
       <use xlink:href="#DejaVuSans-32" x="127.246094"/>
       <use xlink:href="#DejaVuSans-33" x="190.869141"/>
       <use xlink:href="#DejaVuSans-2d" x="254.492188"/>
       <use xlink:href="#DejaVuSans-30" x="290.576172"/>
       <use xlink:href="#DejaVuSans-34" x="354.199219"/>
       <use xlink:href="#DejaVuSans-2d" x="417.822266"/>
       <use xlink:href="#DejaVuSans-30" x="453.90625"/>
       <use xlink:href="#DejaVuSans-39" x="517.529297"/>
      </g>
     </g>
    </g>
    <g id="xtick_9">
     <g id="line2d_9">
      <g>
       <use xlink:href="#m1f1c6a84d4" x="940.074841" y="395.28" style="stroke: #000000; stroke-width: 0.8"/>
      </g>
     </g>
     <g id="text_9">
      <!-- 2023-04-15 -->
      <g transform="translate(854.945813 495.213718) rotate(-45) scale(0.2 -0.2)">
       <use xlink:href="#DejaVuSans-32"/>
       <use xlink:href="#DejaVuSans-30" x="63.623047"/>
       <use xlink:href="#DejaVuSans-32" x="127.246094"/>
       <use xlink:href="#DejaVuSans-33" x="190.869141"/>
       <use xlink:href="#DejaVuSans-2d" x="254.492188"/>
       <use xlink:href="#DejaVuSans-30" x="290.576172"/>
       <use xlink:href="#DejaVuSans-34" x="354.199219"/>
       <use xlink:href="#DejaVuSans-2d" x="417.822266"/>
       <use xlink:href="#DejaVuSans-31" x="453.90625"/>
       <use xlink:href="#DejaVuSans-35" x="517.529297"/>
      </g>
     </g>
    </g>
   </g>
   <g id="matplotlib.axis_2">
    <g id="ytick_1">
     <g id="line2d_10">
      <defs>
       <path id="me13b078135" d="M 0 0 
L -3.5 0 
" style="stroke: #000000; stroke-width: 0.8"/>
      </defs>
      <g>
       <use xlink:href="#me13b078135" x="103.074841" y="352.922839" style="stroke: #000000; stroke-width: 0.8"/>
      </g>
     </g>
     <g id="text_10">
      <!-- −0.4 -->
      <g transform="translate(47.509216 360.521276) scale(0.2 -0.2)">
       <defs>
        <path id="DejaVuSans-2212" d="M 678 2272 
L 4684 2272 
L 4684 1741 
L 678 1741 
L 678 2272 
z
" transform="scale(0.015625)"/>
        <path id="DejaVuSans-2e" d="M 684 794 
L 1344 794 
L 1344 0 
L 684 0 
L 684 794 
z
" transform="scale(0.015625)"/>
       </defs>
       <use xlink:href="#DejaVuSans-2212"/>
       <use xlink:href="#DejaVuSans-30" x="83.789062"/>
       <use xlink:href="#DejaVuSans-2e" x="147.412109"/>
       <use xlink:href="#DejaVuSans-34" x="179.199219"/>
      </g>
     </g>
    </g>
    <g id="ytick_2">
     <g id="line2d_11">
      <g>
       <use xlink:href="#me13b078135" x="103.074841" y="273.121717" style="stroke: #000000; stroke-width: 0.8"/>
      </g>
     </g>
     <g id="text_11">
      <!-- −0.2 -->
      <g transform="translate(47.509216 280.720155) scale(0.2 -0.2)">
       <use xlink:href="#DejaVuSans-2212"/>
       <use xlink:href="#DejaVuSans-30" x="83.789062"/>
       <use xlink:href="#DejaVuSans-2e" x="147.412109"/>
       <use xlink:href="#DejaVuSans-32" x="179.199219"/>
      </g>
     </g>
    </g>
    <g id="ytick_3">
     <g id="line2d_12">
      <g>
       <use xlink:href="#me13b078135" x="103.074841" y="193.320596" style="stroke: #000000; stroke-width: 0.8"/>
      </g>
     </g>
     <g id="text_12">
      <!-- 0.0 -->
      <g transform="translate(64.268591 200.919034) scale(0.2 -0.2)">
       <use xlink:href="#DejaVuSans-30"/>
       <use xlink:href="#DejaVuSans-2e" x="63.623047"/>
       <use xlink:href="#DejaVuSans-30" x="95.410156"/>
      </g>
     </g>
    </g>
    <g id="ytick_4">
     <g id="line2d_13">
      <g>
       <use xlink:href="#me13b078135" x="103.074841" y="113.519475" style="stroke: #000000; stroke-width: 0.8"/>
      </g>
     </g>
     <g id="text_13">
      <!-- 0.2 -->
      <g transform="translate(64.268591 121.117912) scale(0.2 -0.2)">
       <use xlink:href="#DejaVuSans-30"/>
       <use xlink:href="#DejaVuSans-2e" x="63.623047"/>
       <use xlink:href="#DejaVuSans-32" x="95.410156"/>
      </g>
     </g>
    </g>
    <g id="ytick_5">
     <g id="line2d_14">
      <g>
       <use xlink:href="#me13b078135" x="103.074841" y="33.718354" style="stroke: #000000; stroke-width: 0.8"/>
      </g>
     </g>
     <g id="text_14">
      <!-- 0.4 -->
      <g transform="translate(64.268591 41.316791) scale(0.2 -0.2)">
       <use xlink:href="#DejaVuSans-30"/>
       <use xlink:href="#DejaVuSans-2e" x="63.623047"/>
       <use xlink:href="#DejaVuSans-34" x="95.410156"/>
      </g>
     </g>
    </g>
   </g>
   <g id="line2d_15">
    <path d="M -1 193.320596 
L 38.690225 193.320596 
L 46.738302 40.812391 
L 54.786379 141.402669 
L 62.834456 193.320596 
L 70.882533 193.320596 
L 78.93061 35.353738 
L 86.978687 193.320596 
L 95.026764 193.320596 
L 103.074841 70.634749 
L 111.122918 193.320596 
L 127.219071 193.320596 
L 135.267148 126.821618 
L 143.315225 193.320596 
L 151.363302 66.583375 
L 159.411379 193.320596 
L 167.459456 300.463991 
L 175.507533 241.269238 
L 183.55561 193.320596 
L 191.603687 127.560107 
L 199.651764 268.428268 
L 207.699841 193.320596 
L 215.747918 142.182859 
L 223.795995 221.398465 
L 231.844071 193.320596 
L 247.940225 193.320596 
L 255.988302 261.102133 
L 264.036379 193.320596 
L 272.084456 374.87329 
L 280.132533 193.320596 
L 288.18061 193.320596 
L 296.228687 24.84 
L 304.276764 193.320596 
L 312.324841 296.381236 
L 320.372918 193.320596 
L 328.420995 193.320596 
L 336.469071 295.49026 
L 344.517148 377.64 
L 352.565225 193.320596 
L 408.901764 193.320596 
M 513.526764 193.320596 
L 618.151764 193.320596 
M 940.074841 193.320596 
" clip-path="url(#p97aa76e86e)" style="fill: none; stroke: #ffa500; stroke-width: 1.5; stroke-linecap: square"/>
   </g>
   <g id="line2d_16">
    <path d="M 103.074841 193.320596 
L 948.274841 193.320596 
" clip-path="url(#p97aa76e86e)" style="fill: none; stroke-dasharray: 7.4,3.2; stroke-dashoffset: 0; stroke: #000000; stroke-width: 2"/>
   </g>
   <g id="patch_3">
    <path d="M 103.074841 395.28 
L 103.074841 7.2 
" style="fill: none; stroke: #000000; stroke-width: 0.8; stroke-linejoin: miter; stroke-linecap: square"/>
   </g>
   <g id="patch_4">
    <path d="M 940.074841 395.28 
L 940.074841 7.2 
" style="fill: none; stroke: #000000; stroke-width: 0.8; stroke-linejoin: miter; stroke-linecap: square"/>
   </g>
   <g id="patch_5">
    <path d="M 103.074841 395.28 
L 940.074841 395.28 
" style="fill: none; stroke: #000000; stroke-width: 0.8; stroke-linejoin: miter; stroke-linecap: square"/>
   </g>
   <g id="patch_6">
    <path d="M 103.074841 7.2 
L 940.074841 7.2 
" style="fill: none; stroke: #000000; stroke-width: 0.8; stroke-linejoin: miter; stroke-linecap: square"/>
   </g>
  </g>
 </g>
 <defs>
  <clipPath id="p97aa76e86e">
   <rect x="103.074841" y="7.2" width="837" height="388.08"/>
  </clipPath>
 </defs>
</svg>
