<?xml version="1.0" encoding="utf-8" standalone="no"?>
<!DOCTYPE svg PUBLIC "-//W3C//DTD SVG 1.1//EN"
  "http://www.w3.org/Graphics/SVG/1.1/DTD/svg11.dtd">
<svg xmlns:xlink="http://www.w3.org/1999/xlink" width="1040.965466pt" height="505.354841pt" viewBox="0 0 1040.965466 505.354841" xmlns="http://www.w3.org/2000/svg" version="1.1">
 <metadata>
  <rdf:RDF xmlns:dc="http://purl.org/dc/elements/1.1/" xmlns:cc="http://creativecommons.org/ns#" xmlns:rdf="http://www.w3.org/1999/02/22-rdf-syntax-ns#">
   <cc:Work>
    <dc:type rdf:resource="http://purl.org/dc/dcmitype/StillImage"/>
    <dc:date>2023-11-25T10:10:28.568050</dc:date>
    <dc:format>image/svg+xml</dc:format>
    <dc:creator>
     <cc:Agent>
      <dc:title>Matplotlib v3.7.2, https://matplotlib.org/</dc:title>
     </cc:Agent>
    </dc:creator>
   </cc:Work>
  </rdf:RDF>
 </metadata>
 <defs>
  <style type="text/css">*{stroke-linejoin: round; stroke-linecap: butt}</style>
 </defs>
 <g id="figure_1">
  <g id="patch_1">
   <path d="M 0 505.354841 
L 1040.965466 505.354841 
L 1040.965466 -0 
L 0 -0 
z
" style="fill: #ffffff"/>
  </g>
  <g id="axes_1">
   <g id="patch_2">
    <path d="M 103.074841 395.28 
L 940.074841 395.28 
L 940.074841 7.2 
L 103.074841 7.2 
z
" style="fill: #ffffff"/>
   </g>
   <g id="PolyCollection_1">
    <defs>
     <path id="me7fc0a6b8f" d="M 103.074841 -224.677206 
L 103.074841 -224.65554 
L 104.356617 -224.764796 
L 105.638394 -224.858015 
L 106.92017 -224.977409 
L 108.201946 -225.064138 
L 109.483723 -225.159386 
L 110.765499 -225.264715 
L 112.047276 -225.369126 
L 113.329052 -225.467361 
L 114.610828 -225.550718 
L 115.892605 -225.649568 
L 117.174381 -225.757258 
L 118.456158 -225.863722 
L 119.737934 -225.983251 
L 121.019711 -226.085681 
L 122.301487 -226.203089 
L 123.583263 -226.311834 
L 124.86504 -226.446768 
L 126.146816 -226.56186 
L 127.428593 -226.673524 
L 128.710369 -226.805124 
L 129.992145 -226.934344 
L 131.273922 -227.059944 
L 132.555698 -227.207961 
L 133.837475 -227.340021 
L 135.119251 -227.498613 
L 136.401028 -227.650198 
L 137.682804 -227.825567 
L 138.96458 -228.00713 
L 140.246357 -228.1808 
L 141.528133 -228.37531 
L 142.80991 -228.60145 
L 144.091686 -228.803089 
L 145.373462 -229.031857 
L 146.655239 -229.292703 
L 147.937015 -229.54519 
L 149.218792 -229.821759 
L 150.500568 -230.112804 
L 151.782345 -230.409779 
L 153.064121 -230.730846 
L 154.345897 -231.088944 
L 155.627674 -231.453281 
L 156.90945 -231.840492 
L 158.191227 -232.227608 
L 159.473003 -232.666146 
L 160.754779 -233.09032 
L 162.036556 -233.550516 
L 163.318332 -233.996344 
L 164.600109 -234.489869 
L 165.881885 -235.015381 
L 167.163662 -235.515404 
L 168.445438 -236.047934 
L 169.727214 -236.611356 
L 171.008991 -237.163948 
L 172.290767 -237.725136 
L 173.572544 -238.312425 
L 174.85432 -238.905288 
L 176.136096 -239.50363 
L 177.417873 -240.126757 
L 178.699649 -240.757772 
L 179.981426 -241.386782 
L 181.263202 -242.037042 
L 182.544979 -242.688851 
L 183.826755 -243.340173 
L 185.108531 -244.018865 
L 186.390308 -244.714898 
L 187.672084 -245.407098 
L 188.953861 -246.097907 
L 190.235637 -246.782909 
L 191.517413 -247.486433 
L 192.79919 -248.178139 
L 194.080966 -248.881724 
L 195.362743 -249.528098 
L 196.644519 -250.266286 
L 197.926296 -250.91508 
L 199.208072 -251.642867 
L 200.489848 -252.30296 
L 201.771625 -253.004032 
L 203.053401 -253.632655 
L 204.335178 -254.352306 
L 205.616954 -255.029774 
L 206.89873 -255.661495 
L 208.180507 -256.350096 
L 209.462283 -256.990956 
L 210.74406 -257.666535 
L 212.025836 -258.348241 
L 213.307613 -259.001364 
L 214.589389 -259.641964 
L 215.871165 -260.330377 
L 217.152942 -260.989961 
L 218.434718 -261.657258 
L 219.716495 -262.313938 
L 220.998271 -262.955662 
L 222.280047 -263.614411 
L 223.561824 -264.279446 
L 224.8436 -264.880124 
L 226.125377 -265.558002 
L 227.407153 -266.208149 
L 228.68893 -266.847914 
L 229.970706 -267.488454 
L 231.252482 -268.127442 
L 232.534259 -268.774343 
L 233.816035 -269.392409 
L 235.097812 -270.034214 
L 236.379588 -270.69147 
L 237.661364 -271.355738 
L 238.943141 -272.026962 
L 240.224917 -272.657002 
L 241.506694 -273.347758 
L 242.78847 -274.082635 
L 244.070247 -274.780762 
L 245.352023 -275.503204 
L 246.633799 -276.242284 
L 247.915576 -277.021735 
L 249.197352 -277.814824 
L 250.479129 -278.5541 
L 251.760905 -279.393438 
L 253.042681 -280.193045 
L 254.324458 -281.051737 
L 255.606234 -281.843285 
L 256.888011 -282.769007 
L 258.169787 -283.677432 
L 259.451564 -284.561486 
L 260.73334 -285.460786 
L 262.015116 -286.387093 
L 263.296893 -287.35445 
L 264.578669 -288.263158 
L 265.860446 -289.299877 
L 267.142222 -290.215451 
L 268.423998 -291.2828 
L 269.705775 -292.318023 
L 270.987551 -293.330085 
L 272.269328 -294.381843 
L 273.551104 -295.473737 
L 274.832881 -296.460883 
L 276.114657 -297.754056 
L 277.396433 -298.872039 
L 278.67821 -299.916601 
L 279.959986 -301.093053 
L 281.241763 -302.325718 
L 282.523539 -303.698772 
L 283.805315 -304.985875 
L 285.087092 -306.079657 
L 286.368868 -307.786016 
L 287.650645 -309.166562 
L 288.932421 -310.577661 
L 290.214198 -312.041061 
L 291.495974 -313.703516 
L 292.77775 -315.299177 
L 294.059527 -316.494533 
L 295.341303 -317.986439 
L 296.62308 -320.453774 
L 297.904856 -322.557394 
L 299.186632 -324.143743 
L 300.468409 -326.182857 
L 301.750185 -328.124233 
L 303.031962 -329.627096 
L 304.313738 -331.990356 
L 305.595515 -334.352415 
L 306.877291 -335.805713 
L 308.159067 -336.614699 
L 309.440844 -338.500887 
L 310.72262 -339.220173 
L 312.004397 -340.402601 
L 313.286173 -342.410579 
L 314.567949 -342.501051 
L 315.849726 -341.480151 
L 317.131502 -339.575839 
L 318.413279 -341.705346 
L 319.695055 -337.671098 
L 320.976832 -336.672784 
L 322.258608 -342.247807 
L 323.540384 -341.003549 
L 324.822161 -338.262287 
L 326.103937 -339.732132 
L 327.385714 -340.017824 
L 328.66749 -329.396276 
L 329.949266 -314.063973 
L 331.231043 -306.552509 
L 332.512819 -323.095453 
L 333.794596 -314.622274 
L 335.076372 -303.405044 
L 336.358149 -303.999436 
L 337.639925 -281.319851 
L 338.921701 -284.594047 
L 340.203478 -291.426551 
L 341.485254 -308.584591 
L 342.767031 -292.295401 
L 344.048807 -282.719104 
L 345.330583 -286.51583 
L 346.61236 -284.204486 
L 347.894136 -274.97804 
L 349.175913 -276.119633 
L 350.457689 -283.97616 
L 351.739466 -274.049998 
L 353.021242 -272.041729 
L 354.303018 -275.514797 
L 355.584795 -269.123476 
L 356.866571 -266.608685 
L 358.148348 -267.393799 
L 359.430124 -269.247399 
L 360.7119 -267.113881 
L 361.993677 -269.16606 
L 363.275453 -268.913828 
L 364.55723 -266.816004 
L 365.839006 -268.677203 
L 367.120783 -267.665756 
L 368.402559 -267.53376 
L 369.684335 -268.965026 
L 370.966112 -268.352076 
L 372.247888 -270.440265 
L 373.529665 -270.228855 
L 374.811441 -269.549495 
L 376.093217 -269.452632 
L 377.374994 -270.432393 
L 378.65677 -271.256959 
L 379.938547 -271.400591 
L 381.220323 -272.31713 
L 382.502099 -272.3929 
L 383.783876 -272.513771 
L 385.065652 -273.904148 
L 386.347429 -273.11501 
L 387.629205 -274.051415 
L 388.910982 -274.41695 
L 390.192758 -274.306469 
L 391.474534 -275.186758 
L 392.756311 -275.32833 
L 394.038087 -274.922443 
L 395.319864 -274.334842 
L 396.60164 -275.847332 
L 397.883416 -276.022886 
L 399.165193 -276.47948 
L 400.446969 -273.698471 
L 401.728746 -273.526021 
L 403.010522 -272.366396 
L 404.292299 -274.952403 
L 405.574075 -276.50839 
L 406.855851 -275.956738 
L 408.137628 -274.101598 
L 409.419404 -273.755845 
L 410.701181 -276.900213 
L 411.982957 -274.122722 
L 413.264733 -274.8076 
L 414.54651 -275.141117 
L 415.828286 -276.641445 
L 417.110063 -275.421541 
L 418.391839 -276.111789 
L 419.673616 -275.424217 
L 420.955392 -276.35524 
L 422.237168 -277.116086 
L 423.518945 -278.470483 
L 424.800721 -279.131787 
L 426.082498 -279.735312 
L 427.364274 -280.587175 
L 428.64605 -280.739492 
L 429.927827 -281.519949 
L 431.209603 -282.347146 
L 432.49138 -284.544077 
L 433.773156 -286.170305 
L 435.054933 -286.936918 
L 436.336709 -288.735788 
L 437.618485 -289.121759 
L 438.900262 -290.726619 
L 440.182038 -293.078322 
L 441.463815 -295.036124 
L 442.745591 -296.508431 
L 444.027367 -298.941273 
L 445.309144 -300.539063 
L 446.59092 -302.656611 
L 447.872697 -304.662535 
L 449.154473 -306.970307 
L 450.43625 -309.113904 
L 451.718026 -311.67061 
L 452.999802 -313.822322 
L 454.281579 -316.180439 
L 455.563355 -319.041354 
L 456.845132 -321.734837 
L 458.126908 -323.779068 
L 459.408684 -326.109178 
L 460.690461 -328.99595 
L 461.972237 -331.36145 
L 463.254014 -334.329527 
L 464.53579 -338.253071 
L 465.817567 -340.236588 
L 467.099343 -343.001513 
L 468.381119 -345.533264 
L 469.662896 -348.367377 
L 470.944672 -351.891366 
L 472.226449 -354.77836 
L 473.508225 -358.009119 
L 474.790001 -361.949505 
L 476.071778 -364.225129 
L 477.353554 -367.810116 
L 478.635331 -370.302836 
L 479.917107 -373.893578 
L 481.198884 -378.023421 
L 482.48066 -381.187829 
L 483.762436 -383.881325 
L 485.044213 -388.040823 
L 486.325989 -391.219286 
L 487.607766 -394.954393 
L 488.889542 -397.884211 
L 490.171318 -401.85598 
L 491.453095 -405.467148 
L 492.734871 -405.732082 
L 494.016648 -412.376333 
L 495.298424 -413.538203 
L 496.580201 -417.750084 
L 497.861977 -420.276566 
L 499.143753 -423.96962 
L 500.42553 -427.319203 
L 501.707306 -430.478506 
L 502.989083 -434.049131 
L 504.270859 -436.54252 
L 505.552635 -439.530298 
L 506.834412 -437.832962 
L 508.116188 -446.297276 
L 509.397965 -448.331896 
L 510.679741 -442.34948 
L 511.961518 -451.792259 
L 513.243294 -450.409941 
L 514.52507 -451.465348 
L 515.806847 -457.175263 
L 517.088623 -456.813073 
L 518.3704 -451.928388 
L 519.652176 -455.801993 
L 520.933952 -457.523924 
L 522.215729 -455.274911 
L 523.497505 -455.630123 
L 524.779282 -454.637176 
L 526.061058 -451.013485 
L 527.342835 -445.926556 
L 528.624611 -434.377774 
L 529.906387 -437.406472 
L 531.188164 -430.779317 
L 532.46994 -426.054663 
L 533.751717 -422.37881 
L 535.033493 -416.873665 
L 536.315269 -412.614809 
L 537.597046 -420.419549 
L 538.878822 -413.944815 
L 540.160599 -403.100032 
L 541.442375 -397.03276 
L 542.724152 -394.246928 
L 544.005928 -377.425329 
L 545.287704 -374.776248 
L 546.569481 -370.389763 
L 547.851257 -372.00484 
L 549.133034 -357.055504 
L 550.41481 -361.520539 
L 551.696586 -365.026813 
L 552.978363 -351.478248 
L 554.260139 -343.683131 
L 555.541916 -344.094026 
L 556.823692 -338.074685 
L 558.105469 -336.142995 
L 559.387245 -336.14565 
L 560.669021 -336.344855 
L 561.950798 -333.629597 
L 563.232574 -330.843971 
L 564.514351 -321.885406 
L 565.796127 -327.582764 
L 567.077903 -319.477624 
L 568.35968 -321.059341 
L 569.641456 -321.452986 
L 570.923233 -318.60934 
L 572.205009 -316.378448 
L 573.486786 -320.032672 
L 574.768562 -317.124581 
L 576.050338 -316.673992 
L 577.332115 -312.527659 
L 578.613891 -314.387824 
L 579.895668 -316.051868 
L 581.177444 -313.682011 
L 582.45922 -313.26345 
L 583.740997 -314.002962 
L 585.022773 -315.604707 
L 586.30455 -314.221189 
L 587.586326 -317.204795 
L 588.868103 -317.159981 
L 590.149879 -312.198148 
L 591.431655 -312.635225 
L 592.713432 -315.176742 
L 593.995208 -315.557438 
L 595.276985 -315.534658 
L 596.558761 -318.849077 
L 597.840537 -317.419454 
L 599.122314 -317.493905 
L 600.40409 -318.07974 
L 601.685867 -318.692075 
L 602.967643 -320.597413 
L 604.24942 -319.075846 
L 605.531196 -320.102614 
L 606.812972 -320.848856 
L 608.094749 -321.33746 
L 609.376525 -321.775726 
L 610.658302 -322.554604 
L 611.940078 -325.24649 
L 613.221854 -325.907864 
L 614.503631 -327.474763 
L 615.785407 -330.712879 
L 617.067184 -327.933942 
L 618.34896 -332.311543 
L 619.630737 -330.942702 
L 620.912513 -331.048208 
L 622.194289 -330.917654 
L 623.476066 -333.426078 
L 624.757842 -333.658407 
L 626.039619 -333.365794 
L 627.321395 -337.466538 
L 628.603171 -336.134562 
L 629.884948 -336.866377 
L 631.166724 -336.294379 
L 632.448501 -338.926371 
L 633.730277 -337.992783 
L 635.012054 -338.779524 
L 636.29383 -341.999152 
L 637.575606 -343.040969 
L 638.857383 -344.153491 
L 640.139159 -344.479603 
L 641.420936 -346.107086 
L 642.702712 -346.339471 
L 643.984488 -347.159416 
L 645.266265 -347.984979 
L 646.548041 -348.760058 
L 647.829818 -351.111463 
L 649.111594 -349.324704 
L 650.393371 -349.21432 
L 651.675147 -351.135711 
L 652.956923 -352.302735 
L 654.2387 -354.860337 
L 655.520476 -352.833273 
L 656.802253 -352.960089 
L 658.084029 -353.799692 
L 659.365805 -355.06582 
L 660.647582 -356.677271 
L 661.929358 -358.303638 
L 663.211135 -358.059216 
L 664.492911 -358.876945 
L 665.774688 -358.855482 
L 667.056464 -361.043427 
L 668.33824 -363.304309 
L 669.620017 -360.758185 
L 670.901793 -363.175096 
L 672.18357 -363.30035 
L 673.465346 -361.761369 
L 674.747122 -367.153055 
L 676.028899 -366.393941 
L 677.310675 -365.367233 
L 678.592452 -367.889358 
L 679.874228 -364.786225 
L 681.156005 -368.088785 
L 682.437781 -370.634321 
L 683.719557 -367.920179 
L 685.001334 -367.304496 
L 686.28311 -369.263167 
L 687.564887 -369.341655 
L 688.846663 -369.931198 
L 690.128439 -364.691754 
L 691.410216 -365.705334 
L 692.691992 -365.189385 
L 693.973769 -368.519636 
L 695.255545 -371.430933 
L 696.537322 -367.621755 
L 697.819098 -362.779388 
L 699.100874 -366.650953 
L 700.382651 -367.529124 
L 701.664427 -370.077866 
L 702.946204 -369.090283 
L 704.22798 -367.701073 
L 705.509756 -370.57011 
L 706.791533 -370.865336 
L 708.073309 -367.194142 
L 709.355086 -369.436422 
L 710.636862 -365.793326 
L 711.918639 -364.938541 
L 713.200415 -371.260773 
L 714.482191 -370.229108 
L 715.763968 -370.367306 
L 717.045744 -369.041223 
L 718.327521 -366.466615 
L 719.609297 -360.469298 
L 720.891073 -358.523814 
L 722.17285 -359.193842 
L 723.454626 -353.921751 
L 724.736403 -343.568746 
L 726.018179 -355.18548 
L 727.299956 -358.049806 
L 728.581732 -354.299499 
L 729.863508 -350.850528 
L 731.145285 -350.240951 
L 732.427061 -351.729939 
L 733.708838 -344.853927 
L 734.990614 -340.636777 
L 736.27239 -347.828744 
L 737.554167 -340.401414 
L 738.835943 -344.273793 
L 740.11772 -344.427539 
L 741.399496 -337.197395 
L 742.681273 -337.007231 
L 743.963049 -332.589628 
L 745.244825 -332.032703 
L 746.526602 -338.340993 
L 747.808378 -332.985594 
L 749.090155 -332.793519 
L 750.371931 -327.624581 
L 751.653707 -328.977164 
L 752.935484 -323.278452 
L 754.21726 -327.272773 
L 755.499037 -324.041124 
L 756.780813 -323.582922 
L 758.06259 -319.748052 
L 759.344366 -325.69899 
L 760.626142 -318.703002 
L 761.907919 -317.430588 
L 763.189695 -313.966893 
L 764.471472 -309.949199 
L 765.753248 -310.425 
L 767.035024 -311.509732 
L 768.316801 -307.399563 
L 769.598577 -302.96238 
L 770.880354 -305.501264 
L 772.16213 -307.501177 
L 773.443907 -303.522839 
L 774.725683 -300.748373 
L 776.007459 -305.592202 
L 777.289236 -306.330794 
L 778.571012 -296.721525 
L 779.852789 -293.677672 
L 781.134565 -302.523214 
L 782.416341 -298.69828 
L 783.698118 -297.108175 
L 784.979894 -295.676744 
L 786.261671 -290.30392 
L 787.543447 -291.672311 
L 788.825224 -294.129506 
L 790.107 -290.801318 
L 791.388776 -289.547084 
L 792.670553 -294.246727 
L 793.952329 -292.388126 
L 795.234106 -292.630043 
L 796.515882 -283.355183 
L 797.797658 -276.511557 
L 799.079435 -275.937416 
L 800.361211 -282.4064 
L 801.642988 -285.595356 
L 802.924764 -283.783415 
L 804.206541 -283.118883 
L 805.488317 -274.487608 
L 806.770093 -283.871116 
L 808.05187 -275.34147 
L 809.333646 -269.551648 
L 810.615423 -274.061415 
L 811.897199 -264.643836 
L 813.178975 -270.952261 
L 814.460752 -266.717841 
L 815.742528 -269.033436 
L 817.024305 -265.225456 
L 818.306081 -260.513411 
L 819.587858 -262.078868 
L 820.869634 -258.993247 
L 822.15141 -259.091554 
L 823.433187 -257.321695 
L 824.714963 -267.869573 
L 825.99674 -252.617895 
L 827.278516 -246.081126 
L 828.560292 -252.683774 
L 829.842069 -247.344728 
L 831.123845 -245.328382 
L 832.405622 -248.006608 
L 833.687398 -242.200679 
L 834.969175 -237.060031 
L 836.250951 -237.972149 
L 837.532727 -236.298968 
L 838.814504 -235.35431 
L 840.09628 -233.302457 
L 841.378057 -229.273642 
L 842.659833 -237.274984 
L 843.941609 -225.414575 
L 845.223386 -224.570458 
L 846.505162 -225.427932 
L 847.786939 -231.924349 
L 849.068715 -222.103746 
L 850.350492 -213.074937 
L 851.632268 -221.668523 
L 852.914044 -220.736344 
L 854.195821 -207.938207 
L 855.477597 -227.920843 
L 856.759374 -209.759855 
L 858.04115 -220.708986 
L 859.322926 -198.287079 
L 860.604703 -212.045343 
L 861.886479 -198.736209 
L 863.168256 -196.540819 
L 864.450032 -188.995514 
L 865.731809 -187.34906 
L 867.013585 -195.18279 
L 868.295361 -196.17723 
L 869.577138 -183.175491 
L 870.858914 -172.88927 
L 872.140691 -172.24286 
L 873.422467 -172.572728 
L 874.704243 -161.987234 
L 875.98602 -161.575406 
L 877.267796 -168.30922 
L 878.549573 -171.360559 
L 879.831349 -149.566465 
L 881.113126 -148.061089 
L 882.394902 -143.724932 
L 883.676678 -153.313733 
L 884.958455 -175.139731 
L 886.240231 -148.908783 
L 887.522008 -157.230252 
L 888.803784 -149.426558 
L 890.08556 -140.862569 
L 891.367337 -152.950142 
L 892.649113 -138.05697 
L 893.93089 -149.773434 
L 895.212666 -149.05392 
L 896.494443 -148.476393 
L 897.776219 -137.997686 
L 899.057995 -139.933554 
L 900.339772 -141.305061 
L 901.621548 -148.422015 
L 902.903325 -145.516759 
L 904.185101 -141.159458 
L 905.466877 -143.083332 
L 906.748654 -135.062852 
L 908.03043 -141.564759 
L 909.312207 -134.084199 
L 910.593983 -129.053453 
L 911.87576 -128.493093 
L 913.157536 -134.361346 
L 914.439312 -135.111482 
L 915.721089 -135.042579 
L 917.002865 -131.611653 
L 918.284642 -131.571792 
L 919.566418 -144.660501 
L 920.848194 -133.557928 
L 922.129971 -192.941207 
L 923.411747 -132.978864 
L 924.693524 -127.714841 
L 925.9753 -136.654454 
L 927.257077 -145.577355 
L 928.538853 -129.633381 
L 929.820629 -135.438559 
L 931.102406 -148.856673 
L 932.384182 -139.176691 
L 933.665959 -139.592644 
L 934.947735 -142.347067 
L 936.229511 -132.236866 
L 937.511288 -137.939773 
L 938.793064 -135.333515 
L 940.074841 -134.205579 
L 940.074841 -215.51884 
L 940.074841 -215.51884 
L 938.793064 -210.012924 
L 937.511288 -212.747492 
L 936.229511 -208.923931 
L 934.947735 -212.678684 
L 933.665959 -211.434172 
L 932.384182 -211.684971 
L 931.102406 -211.530132 
L 929.820629 -205.938108 
L 928.538853 -205.609606 
L 927.257077 -208.008412 
L 925.9753 -206.937449 
L 924.693524 -201.644085 
L 923.411747 -204.145874 
L 922.129971 -214.258388 
L 920.848194 -202.338541 
L 919.566418 -204.251415 
L 918.284642 -200.96174 
L 917.002865 -200.111701 
L 915.721089 -200.701627 
L 914.439312 -199.410424 
L 913.157536 -197.666429 
L 911.87576 -196.272359 
L 910.593983 -195.806748 
L 909.312207 -196.128553 
L 908.03043 -197.828151 
L 906.748654 -195.975419 
L 905.466877 -198.107437 
L 904.185101 -197.216988 
L 902.903325 -197.580724 
L 901.621548 -198.018919 
L 900.339772 -195.302964 
L 899.057995 -194.046296 
L 897.776219 -192.207811 
L 896.494443 -196.350063 
L 895.212666 -195.43206 
L 893.93089 -195.025391 
L 892.649113 -191.29376 
L 891.367337 -195.544225 
L 890.08556 -191.201282 
L 888.803784 -193.876882 
L 887.522008 -195.988364 
L 886.240231 -193.036661 
L 884.958455 -200.52093 
L 883.676678 -194.128125 
L 882.394902 -189.986071 
L 881.113126 -191.15047 
L 879.831349 -191.65255 
L 878.549573 -197.560325 
L 877.267796 -197.236438 
L 875.98602 -194.737239 
L 874.704243 -194.755868 
L 873.422467 -198.329382 
L 872.140691 -198.43004 
L 870.858914 -197.802211 
L 869.577138 -203.154759 
L 868.295361 -206.701789 
L 867.013585 -206.018005 
L 865.731809 -202.81346 
L 864.450032 -203.431273 
L 863.168256 -207.052813 
L 861.886479 -207.805743 
L 860.604703 -218.164955 
L 859.322926 -207.582053 
L 858.04115 -240.931735 
L 856.759374 -215.640697 
L 855.477597 -255.822708 
L 854.195821 -211.690851 
L 852.914044 -235.313513 
L 851.632268 -236.718882 
L 850.350492 -221.540272 
L 849.068715 -238.631083 
L 847.786939 -263.340019 
L 846.505162 -247.618418 
L 845.223386 -244.178246 
L 843.941609 -246.004366 
L 842.659833 -275.068667 
L 841.378057 -264.271401 
L 840.09628 -264.970725 
L 838.814504 -268.476212 
L 837.532727 -271.390747 
L 836.250951 -277.004051 
L 834.969175 -274.195193 
L 833.687398 -286.897656 
L 832.405622 -300.528995 
L 831.123845 -289.450909 
L 829.842069 -300.228049 
L 828.560292 -308.137509 
L 827.278516 -293.003534 
L 825.99674 -307.919817 
L 824.714963 -344.443624 
L 823.433187 -319.298128 
L 822.15141 -324.335613 
L 820.869634 -323.23338 
L 819.587858 -330.336923 
L 818.306081 -326.247799 
L 817.024305 -336.351025 
L 815.742528 -343.591886 
L 814.460752 -338.495422 
L 813.178975 -350.358736 
L 811.897199 -333.95877 
L 810.615423 -355.309389 
L 809.333646 -346.503884 
L 808.05187 -357.383202 
L 806.770093 -372.784712 
L 805.488317 -355.140739 
L 804.206541 -374.692374 
L 802.924764 -373.953699 
L 801.642988 -376.988006 
L 800.361211 -370.403347 
L 799.079435 -357.92622 
L 797.797658 -357.702142 
L 796.515882 -370.291518 
L 795.234106 -391.01869 
L 793.952329 -390.026764 
L 792.670553 -391.189698 
L 791.388776 -381.613172 
L 790.107 -383.915228 
L 788.825224 -390.695818 
L 787.543447 -384.445094 
L 786.261671 -382.928981 
L 784.979894 -392.521763 
L 783.698118 -392.911768 
L 782.416341 -396.508665 
L 781.134565 -402.692375 
L 779.852789 -383.928228 
L 778.571012 -392.506185 
L 777.289236 -407.670881 
L 776.007459 -404.22242 
L 774.725683 -396.100393 
L 773.443907 -400.907055 
L 772.16213 -406.717317 
L 770.880354 -401.121484 
L 769.598577 -393.811167 
L 768.316801 -404.928072 
L 767.035024 -410.091264 
L 765.753248 -406.756099 
L 764.471472 -410.503768 
L 763.189695 -412.270021 
L 761.907919 -418.602317 
L 760.626142 -418.864953 
L 759.344366 -430.290471 
L 758.06259 -420.984428 
L 756.780813 -425.623972 
L 755.499037 -424.715352 
L 754.21726 -427.149054 
L 752.935484 -422.886068 
L 751.653707 -431.258924 
L 750.371931 -426.844745 
L 749.090155 -434.771882 
L 747.808378 -434.117755 
L 746.526602 -441.261143 
L 745.244825 -435.049559 
L 743.963049 -432.316762 
L 742.681273 -435.119031 
L 741.399496 -437.08945 
L 740.11772 -445.839691 
L 738.835943 -443.734651 
L 737.554167 -440.912243 
L 736.27239 -449.621897 
L 734.990614 -441.881167 
L 733.708838 -444.488811 
L 732.427061 -454.256195 
L 731.145285 -450.576454 
L 729.863508 -451.595903 
L 728.581732 -455.429899 
L 727.299956 -458.402924 
L 726.018179 -454.898227 
L 724.736403 -437.716758 
L 723.454626 -450.184811 
L 722.17285 -457.425874 
L 720.891073 -456.38299 
L 719.609297 -458.705626 
L 718.327521 -464.437847 
L 717.045744 -466.835121 
L 715.763968 -470.484263 
L 714.482191 -466.782969 
L 713.200415 -466.865371 
L 711.918639 -459.934604 
L 710.636862 -459.839961 
L 709.355086 -463.043805 
L 708.073309 -459.243729 
L 706.791533 -463.54926 
L 705.509756 -461.165954 
L 704.22798 -458.075283 
L 702.946204 -457.220879 
L 701.664427 -459.082708 
L 700.382651 -454.567579 
L 699.100874 -453.256147 
L 697.819098 -449.077612 
L 696.537322 -452.641567 
L 695.255545 -456.073027 
L 693.973769 -452.418516 
L 692.691992 -449.906798 
L 691.410216 -449.458686 
L 690.128439 -446.339575 
L 688.846663 -451.920196 
L 687.564887 -450.277923 
L 686.28311 -450.131945 
L 685.001334 -448.800918 
L 683.719557 -449.863403 
L 682.437781 -451.526299 
L 681.156005 -447.134424 
L 679.874228 -444.316932 
L 678.592452 -447.827202 
L 677.310675 -444.568022 
L 676.028899 -446.935587 
L 674.747122 -445.447053 
L 673.465346 -440.054985 
L 672.18357 -441.417557 
L 670.901793 -440.738239 
L 669.620017 -438.353769 
L 668.33824 -440.934346 
L 667.056464 -439.125674 
L 665.774688 -436.103563 
L 664.492911 -436.442379 
L 663.211135 -435.258645 
L 661.929358 -435.492561 
L 660.647582 -433.932779 
L 659.365805 -432.370935 
L 658.084029 -431.280387 
L 656.802253 -430.990955 
L 655.520476 -430.455773 
L 654.2387 -435.094374 
L 652.956923 -430.358193 
L 651.675147 -429.454498 
L 650.393371 -427.882397 
L 649.111594 -429.054991 
L 647.829818 -429.932834 
L 646.548041 -427.677377 
L 645.266265 -427.04961 
L 643.984488 -425.944469 
L 642.702712 -425.722906 
L 641.420936 -425.564335 
L 640.139159 -424.829548 
L 638.857383 -424.287188 
L 637.575606 -423.041322 
L 636.29383 -421.617921 
L 635.012054 -418.149126 
L 633.730277 -417.549662 
L 632.448501 -418.887362 
L 631.166724 -416.036507 
L 629.884948 -417.233529 
L 628.603171 -416.254617 
L 627.321395 -419.029917 
L 626.039619 -413.006709 
L 624.757842 -413.552168 
L 623.476066 -413.230451 
L 622.194289 -410.359177 
L 620.912513 -410.625246 
L 619.630737 -410.342355 
L 618.34896 -412.147981 
L 617.067184 -407.011245 
L 615.785407 -409.55433 
L 614.503631 -405.357314 
L 613.221854 -402.958274 
L 611.940078 -401.689942 
L 610.658302 -397.931877 
L 609.376525 -396.053591 
L 608.094749 -395.753014 
L 606.812972 -394.140218 
L 605.531196 -393.215007 
L 604.24942 -391.334097 
L 602.967643 -392.708493 
L 601.685867 -389.450739 
L 600.40409 -387.501155 
L 599.122314 -386.322077 
L 597.840537 -385.653316 
L 596.558761 -386.013367 
L 595.276985 -381.847048 
L 593.995208 -380.907584 
L 592.713432 -378.973827 
L 591.431655 -375.996818 
L 590.149879 -374.897806 
L 588.868103 -378.200631 
L 587.586326 -377.240375 
L 586.30455 -373.533572 
L 585.022773 -373.39818 
L 583.740997 -371.297556 
L 582.45922 -369.896452 
L 581.177444 -369.072296 
L 579.895668 -369.149422 
L 578.613891 -367.247327 
L 577.332115 -364.873293 
L 576.050338 -367.985731 
L 574.768562 -366.847273 
L 573.486786 -367.993689 
L 572.205009 -364.274254 
L 570.923233 -364.23981 
L 569.641456 -366.227009 
L 568.35968 -364.853618 
L 567.077903 -363.011046 
L 565.796127 -368.687323 
L 564.514351 -362.693814 
L 563.232574 -369.29191 
L 561.950798 -370.268208 
L 560.669021 -371.469233 
L 559.387245 -369.764869 
L 558.105469 -369.055135 
L 556.823692 -370.053539 
L 555.541916 -374.086198 
L 554.260139 -372.069179 
L 552.978363 -378.939199 
L 551.696586 -388.473196 
L 550.41481 -385.262792 
L 549.133034 -381.254885 
L 547.851257 -392.501712 
L 546.569481 -391.16383 
L 545.287704 -394.04291 
L 544.005928 -395.907758 
L 542.724152 -409.013323 
L 541.442375 -410.116156 
L 540.160599 -416.043568 
L 538.878822 -427.401682 
L 537.597046 -434.669614 
L 536.315269 -425.777444 
L 535.033493 -430.539448 
L 533.751717 -437.216008 
L 532.46994 -441.631666 
L 531.188164 -447.112469 
L 529.906387 -455.392555 
L 528.624611 -451.774225 
L 527.342835 -465.917073 
L 526.061058 -472.795599 
L 524.779282 -477.035848 
L 523.497505 -478.526029 
L 522.215729 -478.096929 
L 520.933952 -480.514841 
L 519.652176 -477.947264 
L 518.3704 -474.097601 
L 517.088623 -480.219013 
L 515.806847 -480.482969 
L 514.52507 -473.527809 
L 513.243294 -472.391247 
L 511.961518 -474.318959 
L 510.679741 -462.492422 
L 509.397965 -470.201606 
L 508.116188 -467.363187 
L 506.834412 -457.344625 
L 505.552635 -459.382539 
L 504.270859 -455.564466 
L 502.989083 -452.600837 
L 501.707306 -448.065469 
L 500.42553 -444.333254 
L 499.143753 -440.215248 
L 497.861977 -435.681712 
L 496.580201 -432.68487 
L 495.298424 -427.451601 
L 494.016648 -425.884423 
L 492.734871 -418.058969 
L 491.453095 -417.523638 
L 490.171318 -413.303101 
L 488.889542 -409.496945 
L 487.607766 -406.682597 
L 486.325989 -403.239692 
L 485.044213 -400.294619 
L 483.762436 -396.429401 
L 482.48066 -393.934113 
L 481.198884 -391.074147 
L 479.917107 -387.228507 
L 478.635331 -383.766739 
L 477.353554 -381.506839 
L 476.071778 -378.152212 
L 474.790001 -375.914551 
L 473.508225 -372.355284 
L 472.226449 -369.383351 
L 470.944672 -366.85533 
L 469.662896 -363.611651 
L 468.381119 -360.971866 
L 467.099343 -358.718633 
L 465.817567 -356.13497 
L 464.53579 -354.354466 
L 463.254014 -350.735903 
L 461.972237 -348.191748 
L 460.690461 -345.990252 
L 459.408684 -343.367461 
L 458.126908 -341.774346 
L 456.845132 -339.431747 
L 455.563355 -337.048832 
L 454.281579 -334.431195 
L 452.999802 -332.417877 
L 451.718026 -330.436268 
L 450.43625 -328.393767 
L 449.154473 -326.211309 
L 447.872697 -324.054601 
L 446.59092 -322.250616 
L 445.309144 -320.32576 
L 444.027367 -318.724289 
L 442.745591 -316.541503 
L 441.463815 -315.01376 
L 440.182038 -313.241346 
L 438.900262 -310.98508 
L 437.618485 -309.46177 
L 436.336709 -309.108235 
L 435.054933 -307.30999 
L 433.773156 -306.415623 
L 432.49138 -304.70117 
L 431.209603 -302.641648 
L 429.927827 -301.623663 
L 428.64605 -300.670396 
L 427.364274 -300.639649 
L 426.082498 -299.669522 
L 424.800721 -299.132266 
L 423.518945 -298.537891 
L 422.237168 -297.123678 
L 420.955392 -296.319691 
L 419.673616 -295.187674 
L 418.391839 -296.042543 
L 417.110063 -295.461244 
L 415.828286 -296.731477 
L 414.54651 -295.014848 
L 413.264733 -294.951768 
L 411.982957 -293.72256 
L 410.701181 -296.671877 
L 409.419404 -293.436807 
L 408.137628 -293.815767 
L 406.855851 -295.869967 
L 405.574075 -296.465322 
L 404.292299 -294.857957 
L 403.010522 -291.962557 
L 401.728746 -293.285702 
L 400.446969 -293.510051 
L 399.165193 -296.6449 
L 397.883416 -296.80214 
L 396.60164 -296.08356 
L 395.319864 -294.36844 
L 394.038087 -295.075799 
L 392.756311 -295.576663 
L 391.474534 -295.444219 
L 390.192758 -294.456594 
L 388.910982 -294.854708 
L 387.629205 -294.246743 
L 386.347429 -293.13398 
L 385.065652 -294.126651 
L 383.783876 -292.554362 
L 382.502099 -292.398466 
L 381.220323 -292.313097 
L 379.938547 -291.336181 
L 378.65677 -291.188528 
L 377.374994 -290.087952 
L 376.093217 -288.872321 
L 374.811441 -288.952096 
L 373.529665 -289.609472 
L 372.247888 -290.099484 
L 370.966112 -287.392759 
L 369.684335 -287.975704 
L 368.402559 -286.186339 
L 367.120783 -286.273163 
L 365.839006 -287.074368 
L 364.55723 -285.1913 
L 363.275453 -287.127821 
L 361.993677 -287.137101 
L 360.7119 -284.847473 
L 359.430124 -286.652324 
L 358.148348 -284.495473 
L 356.866571 -283.606976 
L 355.584795 -285.751976 
L 354.303018 -291.915913 
L 353.021242 -288.151565 
L 351.739466 -290.061164 
L 350.457689 -299.066449 
L 349.175913 -291.479646 
L 347.894136 -290.004818 
L 346.61236 -298.371528 
L 345.330583 -300.480183 
L 344.048807 -296.297138 
L 342.767031 -305.196563 
L 341.485254 -321.0578 
L 340.203478 -303.773982 
L 338.921701 -297.026246 
L 337.639925 -293.471449 
L 336.358149 -315.125996 
L 335.076372 -314.26664 
L 333.794596 -325.301492 
L 332.512819 -333.840625 
L 331.231043 -316.562186 
L 329.949266 -323.901523 
L 328.66749 -339.378928 
L 327.385714 -350.094055 
L 326.103937 -349.432233 
L 324.822161 -347.559891 
L 323.540384 -350.093933 
L 322.258608 -351.080228 
L 320.976832 -344.952678 
L 319.695055 -345.737593 
L 318.413279 -349.612986 
L 317.131502 -347.125687 
L 315.849726 -348.795335 
L 314.567949 -349.558724 
L 313.286173 -349.105767 
L 312.004397 -346.798998 
L 310.72262 -345.316727 
L 309.440844 -344.354213 
L 308.159067 -342.153063 
L 306.877291 -341.093923 
L 305.595515 -339.378637 
L 304.313738 -336.763648 
L 303.031962 -334.455083 
L 301.750185 -333.024487 
L 300.468409 -331.163021 
L 299.186632 -329.139206 
L 297.904856 -327.703963 
L 296.62308 -325.58459 
L 295.341303 -323.059783 
L 294.059527 -321.587837 
L 292.77775 -320.521763 
L 291.495974 -318.92523 
L 290.214198 -317.310312 
L 288.932421 -315.850447 
L 287.650645 -314.460603 
L 286.368868 -313.121014 
L 285.087092 -311.297292 
L 283.805315 -310.332579 
L 282.523539 -309.013645 
L 281.241763 -307.62857 
L 279.959986 -306.371259 
L 278.67821 -305.176705 
L 277.396433 -304.172494 
L 276.114657 -303.105722 
L 274.832881 -301.697021 
L 273.551104 -300.776269 
L 272.269328 -299.654036 
L 270.987551 -298.60475 
L 269.705775 -297.556515 
L 268.423998 -296.481923 
L 267.142222 -295.387737 
L 265.860446 -294.466311 
L 264.578669 -293.402261 
L 263.296893 -292.471026 
L 262.015116 -291.47357 
L 260.73334 -290.545457 
L 259.451564 -289.587816 
L 258.169787 -288.694193 
L 256.888011 -287.743579 
L 255.606234 -286.728806 
L 254.324458 -285.938863 
L 253.042681 -284.978174 
L 251.760905 -284.153599 
L 250.479129 -283.206855 
L 249.197352 -282.512835 
L 247.915576 -281.631728 
L 246.633799 -280.79176 
L 245.352023 -279.992683 
L 244.070247 -279.191686 
L 242.78847 -278.426183 
L 241.506694 -277.54923 
L 240.224917 -276.759476 
L 238.943141 -276.107872 
L 237.661364 -275.334795 
L 236.379588 -274.562696 
L 235.097812 -273.794 
L 233.816035 -273.052366 
L 232.534259 -272.360189 
L 231.252482 -271.598712 
L 229.970706 -270.851863 
L 228.68893 -270.101011 
L 227.407153 -269.352637 
L 226.125377 -268.583886 
L 224.8436 -267.78464 
L 223.561824 -267.095369 
L 222.280047 -266.306639 
L 220.998271 -265.532469 
L 219.716495 -264.788574 
L 218.434718 -264.021184 
L 217.152942 -263.237887 
L 215.871165 -262.47732 
L 214.589389 -261.679571 
L 213.307613 -260.950772 
L 212.025836 -260.20702 
L 210.74406 -259.421122 
L 209.462283 -258.661846 
L 208.180507 -257.948795 
L 206.89873 -257.175947 
L 205.616954 -256.477716 
L 204.335178 -255.731463 
L 203.053401 -254.936677 
L 201.771625 -254.25309 
L 200.489848 -253.488802 
L 199.208072 -252.785335 
L 197.926296 -252.003248 
L 196.644519 -251.315193 
L 195.362743 -250.52389 
L 194.080966 -249.842332 
L 192.79919 -249.094291 
L 191.517413 -248.362245 
L 190.235637 -247.617341 
L 188.953861 -246.897452 
L 187.672084 -246.170519 
L 186.390308 -245.440697 
L 185.108531 -244.706517 
L 183.826755 -243.994655 
L 182.544979 -243.313968 
L 181.263202 -242.650808 
L 179.981426 -241.988729 
L 178.699649 -241.349532 
L 177.417873 -240.699166 
L 176.136096 -240.057228 
L 174.85432 -239.444155 
L 173.572544 -238.832271 
L 172.290767 -238.223455 
L 171.008991 -237.643586 
L 169.727214 -237.072957 
L 168.445438 -236.47829 
L 167.163662 -235.928774 
L 165.881885 -235.412783 
L 164.600109 -234.859913 
L 163.318332 -234.345443 
L 162.036556 -233.886997 
L 160.754779 -233.408427 
L 159.473003 -232.970513 
L 158.191227 -232.50769 
L 156.90945 -232.108192 
L 155.627674 -231.703431 
L 154.345897 -231.325077 
L 153.064121 -230.952821 
L 151.782345 -230.617685 
L 150.500568 -230.321225 
L 149.218792 -230.021637 
L 147.937015 -229.737588 
L 146.655239 -229.482277 
L 145.373462 -229.210247 
L 144.091686 -228.979133 
L 142.80991 -228.779409 
L 141.528133 -228.546255 
L 140.246357 -228.349266 
L 138.96458 -228.178145 
L 137.682804 -227.991401 
L 136.401028 -227.81008 
L 135.119251 -227.66025 
L 133.837475 -227.497341 
L 132.555698 -227.367379 
L 131.273922 -227.21419 
L 129.992145 -227.088757 
L 128.710369 -226.956197 
L 127.428593 -226.817777 
L 126.146816 -226.704433 
L 124.86504 -226.585703 
L 123.583263 -226.437511 
L 122.301487 -226.320559 
L 121.019711 -226.190616 
L 119.737934 -226.084587 
L 118.456158 -225.949347 
L 117.174381 -225.830363 
L 115.892605 -225.706651 
L 114.610828 -225.603479 
L 113.329052 -225.513623 
L 112.047276 -225.406099 
L 110.765499 -225.286776 
L 109.483723 -225.171719 
L 108.201946 -225.077986 
L 106.92017 -224.993152 
L 105.638394 -224.880536 
L 104.356617 -224.788964 
L 103.074841 -224.677206 
z
" style="stroke: #008000; stroke-opacity: 0.3"/>
    </defs>
    <g clip-path="url(#pc89d616925)">
     <use xlink:href="#me7fc0a6b8f" x="0" y="505.354841" style="fill: #008000; fill-opacity: 0.3; stroke: #008000; stroke-opacity: 0.3"/>
    </g>
   </g>
   <g id="matplotlib.axis_1">
    <g id="xtick_1">
     <g id="line2d_1">
      <defs>
       <path id="mc22a3a8239" d="M 0 0 
L 0 3.5 
" style="stroke: #000000; stroke-width: 0.8"/>
      </defs>
      <g>
       <use xlink:href="#mc22a3a8239" x="103.074841" y="395.28" style="stroke: #000000; stroke-width: 0.8"/>
      </g>
     </g>
     <g id="text_1">
      <!-- 2021-07-01 -->
      <g transform="translate(17.945813 495.213718) rotate(-45) scale(0.2 -0.2)">
       <defs>
        <path id="DejaVuSans-32" d="M 1228 531 
L 3431 531 
L 3431 0 
L 469 0 
L 469 531 
Q 828 903 1448 1529 
Q 2069 2156 2228 2338 
Q 2531 2678 2651 2914 
Q 2772 3150 2772 3378 
Q 2772 3750 2511 3984 
Q 2250 4219 1831 4219 
Q 1534 4219 1204 4116 
Q 875 4013 500 3803 
L 500 4441 
Q 881 4594 1212 4672 
Q 1544 4750 1819 4750 
Q 2544 4750 2975 4387 
Q 3406 4025 3406 3419 
Q 3406 3131 3298 2873 
Q 3191 2616 2906 2266 
Q 2828 2175 2409 1742 
Q 1991 1309 1228 531 
z
" transform="scale(0.015625)"/>
        <path id="DejaVuSans-30" d="M 2034 4250 
Q 1547 4250 1301 3770 
Q 1056 3291 1056 2328 
Q 1056 1369 1301 889 
Q 1547 409 2034 409 
Q 2525 409 2770 889 
Q 3016 1369 3016 2328 
Q 3016 3291 2770 3770 
Q 2525 4250 2034 4250 
z
M 2034 4750 
Q 2819 4750 3233 4129 
Q 3647 3509 3647 2328 
Q 3647 1150 3233 529 
Q 2819 -91 2034 -91 
Q 1250 -91 836 529 
Q 422 1150 422 2328 
Q 422 3509 836 4129 
Q 1250 4750 2034 4750 
z
" transform="scale(0.015625)"/>
        <path id="DejaVuSans-31" d="M 794 531 
L 1825 531 
L 1825 4091 
L 703 3866 
L 703 4441 
L 1819 4666 
L 2450 4666 
L 2450 531 
L 3481 531 
L 3481 0 
L 794 0 
L 794 531 
z
" transform="scale(0.015625)"/>
        <path id="DejaVuSans-2d" d="M 313 2009 
L 1997 2009 
L 1997 1497 
L 313 1497 
L 313 2009 
z
" transform="scale(0.015625)"/>
        <path id="DejaVuSans-37" d="M 525 4666 
L 3525 4666 
L 3525 4397 
L 1831 0 
L 1172 0 
L 2766 4134 
L 525 4134 
L 525 4666 
z
" transform="scale(0.015625)"/>
       </defs>
       <use xlink:href="#DejaVuSans-32"/>
       <use xlink:href="#DejaVuSans-30" x="63.623047"/>
       <use xlink:href="#DejaVuSans-32" x="127.246094"/>
       <use xlink:href="#DejaVuSans-31" x="190.869141"/>
       <use xlink:href="#DejaVuSans-2d" x="254.492188"/>
       <use xlink:href="#DejaVuSans-30" x="290.576172"/>
       <use xlink:href="#DejaVuSans-37" x="354.199219"/>
       <use xlink:href="#DejaVuSans-2d" x="417.822266"/>
       <use xlink:href="#DejaVuSans-30" x="453.90625"/>
       <use xlink:href="#DejaVuSans-31" x="517.529297"/>
      </g>
     </g>
    </g>
    <g id="xtick_2">
     <g id="line2d_2">
      <g>
       <use xlink:href="#mc22a3a8239" x="138.96458" y="395.28" style="stroke: #000000; stroke-width: 0.8"/>
      </g>
     </g>
     <g id="text_2">
      <!-- 2021-07-29 -->
      <g transform="translate(53.835553 495.213718) rotate(-45) scale(0.2 -0.2)">
       <defs>
        <path id="DejaVuSans-39" d="M 703 97 
L 703 672 
Q 941 559 1184 500 
Q 1428 441 1663 441 
Q 2288 441 2617 861 
Q 2947 1281 2994 2138 
Q 2813 1869 2534 1725 
Q 2256 1581 1919 1581 
Q 1219 1581 811 2004 
Q 403 2428 403 3163 
Q 403 3881 828 4315 
Q 1253 4750 1959 4750 
Q 2769 4750 3195 4129 
Q 3622 3509 3622 2328 
Q 3622 1225 3098 567 
Q 2575 -91 1691 -91 
Q 1453 -91 1209 -44 
Q 966 3 703 97 
z
M 1959 2075 
Q 2384 2075 2632 2365 
Q 2881 2656 2881 3163 
Q 2881 3666 2632 3958 
Q 2384 4250 1959 4250 
Q 1534 4250 1286 3958 
Q 1038 3666 1038 3163 
Q 1038 2656 1286 2365 
Q 1534 2075 1959 2075 
z
" transform="scale(0.015625)"/>
       </defs>
       <use xlink:href="#DejaVuSans-32"/>
       <use xlink:href="#DejaVuSans-30" x="63.623047"/>
       <use xlink:href="#DejaVuSans-32" x="127.246094"/>
       <use xlink:href="#DejaVuSans-31" x="190.869141"/>
       <use xlink:href="#DejaVuSans-2d" x="254.492188"/>
       <use xlink:href="#DejaVuSans-30" x="290.576172"/>
       <use xlink:href="#DejaVuSans-37" x="354.199219"/>
       <use xlink:href="#DejaVuSans-2d" x="417.822266"/>
       <use xlink:href="#DejaVuSans-32" x="453.90625"/>
       <use xlink:href="#DejaVuSans-39" x="517.529297"/>
      </g>
     </g>
    </g>
    <g id="xtick_3">
     <g id="line2d_3">
      <g>
       <use xlink:href="#mc22a3a8239" x="174.85432" y="395.28" style="stroke: #000000; stroke-width: 0.8"/>
      </g>
     </g>
     <g id="text_3">
      <!-- 2021-08-26 -->
      <g transform="translate(89.725293 495.213718) rotate(-45) scale(0.2 -0.2)">
       <defs>
        <path id="DejaVuSans-38" d="M 2034 2216 
Q 1584 2216 1326 1975 
Q 1069 1734 1069 1313 
Q 1069 891 1326 650 
Q 1584 409 2034 409 
Q 2484 409 2743 651 
Q 3003 894 3003 1313 
Q 3003 1734 2745 1975 
Q 2488 2216 2034 2216 
z
M 1403 2484 
Q 997 2584 770 2862 
Q 544 3141 544 3541 
Q 544 4100 942 4425 
Q 1341 4750 2034 4750 
Q 2731 4750 3128 4425 
Q 3525 4100 3525 3541 
Q 3525 3141 3298 2862 
Q 3072 2584 2669 2484 
Q 3125 2378 3379 2068 
Q 3634 1759 3634 1313 
Q 3634 634 3220 271 
Q 2806 -91 2034 -91 
Q 1263 -91 848 271 
Q 434 634 434 1313 
Q 434 1759 690 2068 
Q 947 2378 1403 2484 
z
M 1172 3481 
Q 1172 3119 1398 2916 
Q 1625 2713 2034 2713 
Q 2441 2713 2670 2916 
Q 2900 3119 2900 3481 
Q 2900 3844 2670 4047 
Q 2441 4250 2034 4250 
Q 1625 4250 1398 4047 
Q 1172 3844 1172 3481 
z
" transform="scale(0.015625)"/>
        <path id="DejaVuSans-36" d="M 2113 2584 
Q 1688 2584 1439 2293 
Q 1191 2003 1191 1497 
Q 1191 994 1439 701 
Q 1688 409 2113 409 
Q 2538 409 2786 701 
Q 3034 994 3034 1497 
Q 3034 2003 2786 2293 
Q 2538 2584 2113 2584 
z
M 3366 4563 
L 3366 3988 
Q 3128 4100 2886 4159 
Q 2644 4219 2406 4219 
Q 1781 4219 1451 3797 
Q 1122 3375 1075 2522 
Q 1259 2794 1537 2939 
Q 1816 3084 2150 3084 
Q 2853 3084 3261 2657 
Q 3669 2231 3669 1497 
Q 3669 778 3244 343 
Q 2819 -91 2113 -91 
Q 1303 -91 875 529 
Q 447 1150 447 2328 
Q 447 3434 972 4092 
Q 1497 4750 2381 4750 
Q 2619 4750 2861 4703 
Q 3103 4656 3366 4563 
z
" transform="scale(0.015625)"/>
       </defs>
       <use xlink:href="#DejaVuSans-32"/>
       <use xlink:href="#DejaVuSans-30" x="63.623047"/>
       <use xlink:href="#DejaVuSans-32" x="127.246094"/>
       <use xlink:href="#DejaVuSans-31" x="190.869141"/>
       <use xlink:href="#DejaVuSans-2d" x="254.492188"/>
       <use xlink:href="#DejaVuSans-30" x="290.576172"/>
       <use xlink:href="#DejaVuSans-38" x="354.199219"/>
       <use xlink:href="#DejaVuSans-2d" x="417.822266"/>
       <use xlink:href="#DejaVuSans-32" x="453.90625"/>
       <use xlink:href="#DejaVuSans-36" x="517.529297"/>
      </g>
     </g>
    </g>
    <g id="xtick_4">
     <g id="line2d_4">
      <g>
       <use xlink:href="#mc22a3a8239" x="210.74406" y="395.28" style="stroke: #000000; stroke-width: 0.8"/>
      </g>
     </g>
     <g id="text_4">
      <!-- 2021-09-23 -->
      <g transform="translate(125.615032 495.213718) rotate(-45) scale(0.2 -0.2)">
       <defs>
        <path id="DejaVuSans-33" d="M 2597 2516 
Q 3050 2419 3304 2112 
Q 3559 1806 3559 1356 
Q 3559 666 3084 287 
Q 2609 -91 1734 -91 
Q 1441 -91 1130 -33 
Q 819 25 488 141 
L 488 750 
Q 750 597 1062 519 
Q 1375 441 1716 441 
Q 2309 441 2620 675 
Q 2931 909 2931 1356 
Q 2931 1769 2642 2001 
Q 2353 2234 1838 2234 
L 1294 2234 
L 1294 2753 
L 1863 2753 
Q 2328 2753 2575 2939 
Q 2822 3125 2822 3475 
Q 2822 3834 2567 4026 
Q 2313 4219 1838 4219 
Q 1578 4219 1281 4162 
Q 984 4106 628 3988 
L 628 4550 
Q 988 4650 1302 4700 
Q 1616 4750 1894 4750 
Q 2613 4750 3031 4423 
Q 3450 4097 3450 3541 
Q 3450 3153 3228 2886 
Q 3006 2619 2597 2516 
z
" transform="scale(0.015625)"/>
       </defs>
       <use xlink:href="#DejaVuSans-32"/>
       <use xlink:href="#DejaVuSans-30" x="63.623047"/>
       <use xlink:href="#DejaVuSans-32" x="127.246094"/>
       <use xlink:href="#DejaVuSans-31" x="190.869141"/>
       <use xlink:href="#DejaVuSans-2d" x="254.492188"/>
       <use xlink:href="#DejaVuSans-30" x="290.576172"/>
       <use xlink:href="#DejaVuSans-39" x="354.199219"/>
       <use xlink:href="#DejaVuSans-2d" x="417.822266"/>
       <use xlink:href="#DejaVuSans-32" x="453.90625"/>
       <use xlink:href="#DejaVuSans-33" x="517.529297"/>
      </g>
     </g>
    </g>
    <g id="xtick_5">
     <g id="line2d_5">
      <g>
       <use xlink:href="#mc22a3a8239" x="246.633799" y="395.28" style="stroke: #000000; stroke-width: 0.8"/>
      </g>
     </g>
     <g id="text_5">
      <!-- 2021-10-21 -->
      <g transform="translate(161.504772 495.213718) rotate(-45) scale(0.2 -0.2)">
       <use xlink:href="#DejaVuSans-32"/>
       <use xlink:href="#DejaVuSans-30" x="63.623047"/>
       <use xlink:href="#DejaVuSans-32" x="127.246094"/>
       <use xlink:href="#DejaVuSans-31" x="190.869141"/>
       <use xlink:href="#DejaVuSans-2d" x="254.492188"/>
       <use xlink:href="#DejaVuSans-31" x="290.576172"/>
       <use xlink:href="#DejaVuSans-30" x="354.199219"/>
       <use xlink:href="#DejaVuSans-2d" x="417.822266"/>
       <use xlink:href="#DejaVuSans-32" x="453.90625"/>
       <use xlink:href="#DejaVuSans-31" x="517.529297"/>
      </g>
     </g>
    </g>
    <g id="xtick_6">
     <g id="line2d_6">
      <g>
       <use xlink:href="#mc22a3a8239" x="282.523539" y="395.28" style="stroke: #000000; stroke-width: 0.8"/>
      </g>
     </g>
     <g id="text_6">
      <!-- 2021-11-18 -->
      <g transform="translate(197.394512 495.213718) rotate(-45) scale(0.2 -0.2)">
       <use xlink:href="#DejaVuSans-32"/>
       <use xlink:href="#DejaVuSans-30" x="63.623047"/>
       <use xlink:href="#DejaVuSans-32" x="127.246094"/>
       <use xlink:href="#DejaVuSans-31" x="190.869141"/>
       <use xlink:href="#DejaVuSans-2d" x="254.492188"/>
       <use xlink:href="#DejaVuSans-31" x="290.576172"/>
       <use xlink:href="#DejaVuSans-31" x="354.199219"/>
       <use xlink:href="#DejaVuSans-2d" x="417.822266"/>
       <use xlink:href="#DejaVuSans-31" x="453.90625"/>
       <use xlink:href="#DejaVuSans-38" x="517.529297"/>
      </g>
     </g>
    </g>
    <g id="xtick_7">
     <g id="line2d_7">
      <g>
       <use xlink:href="#mc22a3a8239" x="318.413279" y="395.28" style="stroke: #000000; stroke-width: 0.8"/>
      </g>
     </g>
     <g id="text_7">
      <!-- 2021-12-16 -->
      <g transform="translate(233.284251 495.213718) rotate(-45) scale(0.2 -0.2)">
       <use xlink:href="#DejaVuSans-32"/>
       <use xlink:href="#DejaVuSans-30" x="63.623047"/>
       <use xlink:href="#DejaVuSans-32" x="127.246094"/>
       <use xlink:href="#DejaVuSans-31" x="190.869141"/>
       <use xlink:href="#DejaVuSans-2d" x="254.492188"/>
       <use xlink:href="#DejaVuSans-31" x="290.576172"/>
       <use xlink:href="#DejaVuSans-32" x="354.199219"/>
       <use xlink:href="#DejaVuSans-2d" x="417.822266"/>
       <use xlink:href="#DejaVuSans-31" x="453.90625"/>
       <use xlink:href="#DejaVuSans-36" x="517.529297"/>
      </g>
     </g>
    </g>
    <g id="xtick_8">
     <g id="line2d_8">
      <g>
       <use xlink:href="#mc22a3a8239" x="354.303018" y="395.28" style="stroke: #000000; stroke-width: 0.8"/>
      </g>
     </g>
     <g id="text_8">
      <!-- 2022-01-13 -->
      <g transform="translate(269.173991 495.213718) rotate(-45) scale(0.2 -0.2)">
       <use xlink:href="#DejaVuSans-32"/>
       <use xlink:href="#DejaVuSans-30" x="63.623047"/>
       <use xlink:href="#DejaVuSans-32" x="127.246094"/>
       <use xlink:href="#DejaVuSans-32" x="190.869141"/>
       <use xlink:href="#DejaVuSans-2d" x="254.492188"/>
       <use xlink:href="#DejaVuSans-30" x="290.576172"/>
       <use xlink:href="#DejaVuSans-31" x="354.199219"/>
       <use xlink:href="#DejaVuSans-2d" x="417.822266"/>
       <use xlink:href="#DejaVuSans-31" x="453.90625"/>
       <use xlink:href="#DejaVuSans-33" x="517.529297"/>
      </g>
     </g>
    </g>
    <g id="xtick_9">
     <g id="line2d_9">
      <g>
       <use xlink:href="#mc22a3a8239" x="390.192758" y="395.28" style="stroke: #000000; stroke-width: 0.8"/>
      </g>
     </g>
     <g id="text_9">
      <!-- 2022-02-10 -->
      <g transform="translate(305.063731 495.213718) rotate(-45) scale(0.2 -0.2)">
       <use xlink:href="#DejaVuSans-32"/>
       <use xlink:href="#DejaVuSans-30" x="63.623047"/>
       <use xlink:href="#DejaVuSans-32" x="127.246094"/>
       <use xlink:href="#DejaVuSans-32" x="190.869141"/>
       <use xlink:href="#DejaVuSans-2d" x="254.492188"/>
       <use xlink:href="#DejaVuSans-30" x="290.576172"/>
       <use xlink:href="#DejaVuSans-32" x="354.199219"/>
       <use xlink:href="#DejaVuSans-2d" x="417.822266"/>
       <use xlink:href="#DejaVuSans-31" x="453.90625"/>
       <use xlink:href="#DejaVuSans-30" x="517.529297"/>
      </g>
     </g>
    </g>
    <g id="xtick_10">
     <g id="line2d_10">
      <g>
       <use xlink:href="#mc22a3a8239" x="426.082498" y="395.28" style="stroke: #000000; stroke-width: 0.8"/>
      </g>
     </g>
     <g id="text_10">
      <!-- 2022-03-10 -->
      <g transform="translate(340.95347 495.213718) rotate(-45) scale(0.2 -0.2)">
       <use xlink:href="#DejaVuSans-32"/>
       <use xlink:href="#DejaVuSans-30" x="63.623047"/>
       <use xlink:href="#DejaVuSans-32" x="127.246094"/>
       <use xlink:href="#DejaVuSans-32" x="190.869141"/>
       <use xlink:href="#DejaVuSans-2d" x="254.492188"/>
       <use xlink:href="#DejaVuSans-30" x="290.576172"/>
       <use xlink:href="#DejaVuSans-33" x="354.199219"/>
       <use xlink:href="#DejaVuSans-2d" x="417.822266"/>
       <use xlink:href="#DejaVuSans-31" x="453.90625"/>
       <use xlink:href="#DejaVuSans-30" x="517.529297"/>
      </g>
     </g>
    </g>
    <g id="xtick_11">
     <g id="line2d_11">
      <g>
       <use xlink:href="#mc22a3a8239" x="461.972237" y="395.28" style="stroke: #000000; stroke-width: 0.8"/>
      </g>
     </g>
     <g id="text_11">
      <!-- 2022-04-07 -->
      <g transform="translate(376.84321 495.213718) rotate(-45) scale(0.2 -0.2)">
       <defs>
        <path id="DejaVuSans-34" d="M 2419 4116 
L 825 1625 
L 2419 1625 
L 2419 4116 
z
M 2253 4666 
L 3047 4666 
L 3047 1625 
L 3713 1625 
L 3713 1100 
L 3047 1100 
L 3047 0 
L 2419 0 
L 2419 1100 
L 313 1100 
L 313 1709 
L 2253 4666 
z
" transform="scale(0.015625)"/>
       </defs>
       <use xlink:href="#DejaVuSans-32"/>
       <use xlink:href="#DejaVuSans-30" x="63.623047"/>
       <use xlink:href="#DejaVuSans-32" x="127.246094"/>
       <use xlink:href="#DejaVuSans-32" x="190.869141"/>
       <use xlink:href="#DejaVuSans-2d" x="254.492188"/>
       <use xlink:href="#DejaVuSans-30" x="290.576172"/>
       <use xlink:href="#DejaVuSans-34" x="354.199219"/>
       <use xlink:href="#DejaVuSans-2d" x="417.822266"/>
       <use xlink:href="#DejaVuSans-30" x="453.90625"/>
       <use xlink:href="#DejaVuSans-37" x="517.529297"/>
      </g>
     </g>
    </g>
    <g id="xtick_12">
     <g id="line2d_12">
      <g>
       <use xlink:href="#mc22a3a8239" x="497.861977" y="395.28" style="stroke: #000000; stroke-width: 0.8"/>
      </g>
     </g>
     <g id="text_12">
      <!-- 2022-05-05 -->
      <g transform="translate(412.73295 495.213718) rotate(-45) scale(0.2 -0.2)">
       <defs>
        <path id="DejaVuSans-35" d="M 691 4666 
L 3169 4666 
L 3169 4134 
L 1269 4134 
L 1269 2991 
Q 1406 3038 1543 3061 
Q 1681 3084 1819 3084 
Q 2600 3084 3056 2656 
Q 3513 2228 3513 1497 
Q 3513 744 3044 326 
Q 2575 -91 1722 -91 
Q 1428 -91 1123 -41 
Q 819 9 494 109 
L 494 744 
Q 775 591 1075 516 
Q 1375 441 1709 441 
Q 2250 441 2565 725 
Q 2881 1009 2881 1497 
Q 2881 1984 2565 2268 
Q 2250 2553 1709 2553 
Q 1456 2553 1204 2497 
Q 953 2441 691 2322 
L 691 4666 
z
" transform="scale(0.015625)"/>
       </defs>
       <use xlink:href="#DejaVuSans-32"/>
       <use xlink:href="#DejaVuSans-30" x="63.623047"/>
       <use xlink:href="#DejaVuSans-32" x="127.246094"/>
       <use xlink:href="#DejaVuSans-32" x="190.869141"/>
       <use xlink:href="#DejaVuSans-2d" x="254.492188"/>
       <use xlink:href="#DejaVuSans-30" x="290.576172"/>
       <use xlink:href="#DejaVuSans-35" x="354.199219"/>
       <use xlink:href="#DejaVuSans-2d" x="417.822266"/>
       <use xlink:href="#DejaVuSans-30" x="453.90625"/>
       <use xlink:href="#DejaVuSans-35" x="517.529297"/>
      </g>
     </g>
    </g>
    <g id="xtick_13">
     <g id="line2d_13">
      <g>
       <use xlink:href="#mc22a3a8239" x="533.751717" y="395.28" style="stroke: #000000; stroke-width: 0.8"/>
      </g>
     </g>
     <g id="text_13">
      <!-- 2022-06-02 -->
      <g transform="translate(448.622689 495.213718) rotate(-45) scale(0.2 -0.2)">
       <use xlink:href="#DejaVuSans-32"/>
       <use xlink:href="#DejaVuSans-30" x="63.623047"/>
       <use xlink:href="#DejaVuSans-32" x="127.246094"/>
       <use xlink:href="#DejaVuSans-32" x="190.869141"/>
       <use xlink:href="#DejaVuSans-2d" x="254.492188"/>
       <use xlink:href="#DejaVuSans-30" x="290.576172"/>
       <use xlink:href="#DejaVuSans-36" x="354.199219"/>
       <use xlink:href="#DejaVuSans-2d" x="417.822266"/>
       <use xlink:href="#DejaVuSans-30" x="453.90625"/>
       <use xlink:href="#DejaVuSans-32" x="517.529297"/>
      </g>
     </g>
    </g>
    <g id="xtick_14">
     <g id="line2d_14">
      <g>
       <use xlink:href="#mc22a3a8239" x="569.641456" y="395.28" style="stroke: #000000; stroke-width: 0.8"/>
      </g>
     </g>
     <g id="text_14">
      <!-- 2022-06-30 -->
      <g transform="translate(484.512429 495.213718) rotate(-45) scale(0.2 -0.2)">
       <use xlink:href="#DejaVuSans-32"/>
       <use xlink:href="#DejaVuSans-30" x="63.623047"/>
       <use xlink:href="#DejaVuSans-32" x="127.246094"/>
       <use xlink:href="#DejaVuSans-32" x="190.869141"/>
       <use xlink:href="#DejaVuSans-2d" x="254.492188"/>
       <use xlink:href="#DejaVuSans-30" x="290.576172"/>
       <use xlink:href="#DejaVuSans-36" x="354.199219"/>
       <use xlink:href="#DejaVuSans-2d" x="417.822266"/>
       <use xlink:href="#DejaVuSans-33" x="453.90625"/>
       <use xlink:href="#DejaVuSans-30" x="517.529297"/>
      </g>
     </g>
    </g>
    <g id="xtick_15">
     <g id="line2d_15">
      <g>
       <use xlink:href="#mc22a3a8239" x="605.531196" y="395.28" style="stroke: #000000; stroke-width: 0.8"/>
      </g>
     </g>
     <g id="text_15">
      <!-- 2022-07-28 -->
      <g transform="translate(520.402169 495.213718) rotate(-45) scale(0.2 -0.2)">
       <use xlink:href="#DejaVuSans-32"/>
       <use xlink:href="#DejaVuSans-30" x="63.623047"/>
       <use xlink:href="#DejaVuSans-32" x="127.246094"/>
       <use xlink:href="#DejaVuSans-32" x="190.869141"/>
       <use xlink:href="#DejaVuSans-2d" x="254.492188"/>
       <use xlink:href="#DejaVuSans-30" x="290.576172"/>
       <use xlink:href="#DejaVuSans-37" x="354.199219"/>
       <use xlink:href="#DejaVuSans-2d" x="417.822266"/>
       <use xlink:href="#DejaVuSans-32" x="453.90625"/>
       <use xlink:href="#DejaVuSans-38" x="517.529297"/>
      </g>
     </g>
    </g>
    <g id="xtick_16">
     <g id="line2d_16">
      <g>
       <use xlink:href="#mc22a3a8239" x="641.420936" y="395.28" style="stroke: #000000; stroke-width: 0.8"/>
      </g>
     </g>
     <g id="text_16">
      <!-- 2022-08-25 -->
      <g transform="translate(556.291908 495.213718) rotate(-45) scale(0.2 -0.2)">
       <use xlink:href="#DejaVuSans-32"/>
       <use xlink:href="#DejaVuSans-30" x="63.623047"/>
       <use xlink:href="#DejaVuSans-32" x="127.246094"/>
       <use xlink:href="#DejaVuSans-32" x="190.869141"/>
       <use xlink:href="#DejaVuSans-2d" x="254.492188"/>
       <use xlink:href="#DejaVuSans-30" x="290.576172"/>
       <use xlink:href="#DejaVuSans-38" x="354.199219"/>
       <use xlink:href="#DejaVuSans-2d" x="417.822266"/>
       <use xlink:href="#DejaVuSans-32" x="453.90625"/>
       <use xlink:href="#DejaVuSans-35" x="517.529297"/>
      </g>
     </g>
    </g>
    <g id="xtick_17">
     <g id="line2d_17">
      <g>
       <use xlink:href="#mc22a3a8239" x="677.310675" y="395.28" style="stroke: #000000; stroke-width: 0.8"/>
      </g>
     </g>
     <g id="text_17">
      <!-- 2022-09-22 -->
      <g transform="translate(592.181648 495.213718) rotate(-45) scale(0.2 -0.2)">
       <use xlink:href="#DejaVuSans-32"/>
       <use xlink:href="#DejaVuSans-30" x="63.623047"/>
       <use xlink:href="#DejaVuSans-32" x="127.246094"/>
       <use xlink:href="#DejaVuSans-32" x="190.869141"/>
       <use xlink:href="#DejaVuSans-2d" x="254.492188"/>
       <use xlink:href="#DejaVuSans-30" x="290.576172"/>
       <use xlink:href="#DejaVuSans-39" x="354.199219"/>
       <use xlink:href="#DejaVuSans-2d" x="417.822266"/>
       <use xlink:href="#DejaVuSans-32" x="453.90625"/>
       <use xlink:href="#DejaVuSans-32" x="517.529297"/>
      </g>
     </g>
    </g>
    <g id="xtick_18">
     <g id="line2d_18">
      <g>
       <use xlink:href="#mc22a3a8239" x="713.200415" y="395.28" style="stroke: #000000; stroke-width: 0.8"/>
      </g>
     </g>
     <g id="text_18">
      <!-- 2022-10-20 -->
      <g transform="translate(628.071388 495.213718) rotate(-45) scale(0.2 -0.2)">
       <use xlink:href="#DejaVuSans-32"/>
       <use xlink:href="#DejaVuSans-30" x="63.623047"/>
       <use xlink:href="#DejaVuSans-32" x="127.246094"/>
       <use xlink:href="#DejaVuSans-32" x="190.869141"/>
       <use xlink:href="#DejaVuSans-2d" x="254.492188"/>
       <use xlink:href="#DejaVuSans-31" x="290.576172"/>
       <use xlink:href="#DejaVuSans-30" x="354.199219"/>
       <use xlink:href="#DejaVuSans-2d" x="417.822266"/>
       <use xlink:href="#DejaVuSans-32" x="453.90625"/>
       <use xlink:href="#DejaVuSans-30" x="517.529297"/>
      </g>
     </g>
    </g>
    <g id="xtick_19">
     <g id="line2d_19">
      <g>
       <use xlink:href="#mc22a3a8239" x="749.090155" y="395.28" style="stroke: #000000; stroke-width: 0.8"/>
      </g>
     </g>
     <g id="text_19">
      <!-- 2022-11-17 -->
      <g transform="translate(663.961127 495.213718) rotate(-45) scale(0.2 -0.2)">
       <use xlink:href="#DejaVuSans-32"/>
       <use xlink:href="#DejaVuSans-30" x="63.623047"/>
       <use xlink:href="#DejaVuSans-32" x="127.246094"/>
       <use xlink:href="#DejaVuSans-32" x="190.869141"/>
       <use xlink:href="#DejaVuSans-2d" x="254.492188"/>
       <use xlink:href="#DejaVuSans-31" x="290.576172"/>
       <use xlink:href="#DejaVuSans-31" x="354.199219"/>
       <use xlink:href="#DejaVuSans-2d" x="417.822266"/>
       <use xlink:href="#DejaVuSans-31" x="453.90625"/>
       <use xlink:href="#DejaVuSans-37" x="517.529297"/>
      </g>
     </g>
    </g>
    <g id="xtick_20">
     <g id="line2d_20">
      <g>
       <use xlink:href="#mc22a3a8239" x="784.979894" y="395.28" style="stroke: #000000; stroke-width: 0.8"/>
      </g>
     </g>
     <g id="text_20">
      <!-- 2022-12-15 -->
      <g transform="translate(699.850867 495.213718) rotate(-45) scale(0.2 -0.2)">
       <use xlink:href="#DejaVuSans-32"/>
       <use xlink:href="#DejaVuSans-30" x="63.623047"/>
       <use xlink:href="#DejaVuSans-32" x="127.246094"/>
       <use xlink:href="#DejaVuSans-32" x="190.869141"/>
       <use xlink:href="#DejaVuSans-2d" x="254.492188"/>
       <use xlink:href="#DejaVuSans-31" x="290.576172"/>
       <use xlink:href="#DejaVuSans-32" x="354.199219"/>
       <use xlink:href="#DejaVuSans-2d" x="417.822266"/>
       <use xlink:href="#DejaVuSans-31" x="453.90625"/>
       <use xlink:href="#DejaVuSans-35" x="517.529297"/>
      </g>
     </g>
    </g>
    <g id="xtick_21">
     <g id="line2d_21">
      <g>
       <use xlink:href="#mc22a3a8239" x="820.869634" y="395.28" style="stroke: #000000; stroke-width: 0.8"/>
      </g>
     </g>
     <g id="text_21">
      <!-- 2023-01-12 -->
      <g transform="translate(735.740607 495.213718) rotate(-45) scale(0.2 -0.2)">
       <use xlink:href="#DejaVuSans-32"/>
       <use xlink:href="#DejaVuSans-30" x="63.623047"/>
       <use xlink:href="#DejaVuSans-32" x="127.246094"/>
       <use xlink:href="#DejaVuSans-33" x="190.869141"/>
       <use xlink:href="#DejaVuSans-2d" x="254.492188"/>
       <use xlink:href="#DejaVuSans-30" x="290.576172"/>
       <use xlink:href="#DejaVuSans-31" x="354.199219"/>
       <use xlink:href="#DejaVuSans-2d" x="417.822266"/>
       <use xlink:href="#DejaVuSans-31" x="453.90625"/>
       <use xlink:href="#DejaVuSans-32" x="517.529297"/>
      </g>
     </g>
    </g>
    <g id="xtick_22">
     <g id="line2d_22">
      <g>
       <use xlink:href="#mc22a3a8239" x="856.759374" y="395.28" style="stroke: #000000; stroke-width: 0.8"/>
      </g>
     </g>
     <g id="text_22">
      <!-- 2023-02-09 -->
      <g transform="translate(771.630346 495.213718) rotate(-45) scale(0.2 -0.2)">
       <use xlink:href="#DejaVuSans-32"/>
       <use xlink:href="#DejaVuSans-30" x="63.623047"/>
       <use xlink:href="#DejaVuSans-32" x="127.246094"/>
       <use xlink:href="#DejaVuSans-33" x="190.869141"/>
       <use xlink:href="#DejaVuSans-2d" x="254.492188"/>
       <use xlink:href="#DejaVuSans-30" x="290.576172"/>
       <use xlink:href="#DejaVuSans-32" x="354.199219"/>
       <use xlink:href="#DejaVuSans-2d" x="417.822266"/>
       <use xlink:href="#DejaVuSans-30" x="453.90625"/>
       <use xlink:href="#DejaVuSans-39" x="517.529297"/>
      </g>
     </g>
    </g>
    <g id="xtick_23">
     <g id="line2d_23">
      <g>
       <use xlink:href="#mc22a3a8239" x="892.649113" y="395.28" style="stroke: #000000; stroke-width: 0.8"/>
      </g>
     </g>
     <g id="text_23">
      <!-- 2023-03-09 -->
      <g transform="translate(807.520086 495.213718) rotate(-45) scale(0.2 -0.2)">
       <use xlink:href="#DejaVuSans-32"/>
       <use xlink:href="#DejaVuSans-30" x="63.623047"/>
       <use xlink:href="#DejaVuSans-32" x="127.246094"/>
       <use xlink:href="#DejaVuSans-33" x="190.869141"/>
       <use xlink:href="#DejaVuSans-2d" x="254.492188"/>
       <use xlink:href="#DejaVuSans-30" x="290.576172"/>
       <use xlink:href="#DejaVuSans-33" x="354.199219"/>
       <use xlink:href="#DejaVuSans-2d" x="417.822266"/>
       <use xlink:href="#DejaVuSans-30" x="453.90625"/>
       <use xlink:href="#DejaVuSans-39" x="517.529297"/>
      </g>
     </g>
    </g>
    <g id="xtick_24">
     <g id="line2d_24">
      <g>
       <use xlink:href="#mc22a3a8239" x="928.538853" y="395.28" style="stroke: #000000; stroke-width: 0.8"/>
      </g>
     </g>
     <g id="text_24">
      <!-- 2023-04-06 -->
      <g transform="translate(843.409826 495.213718) rotate(-45) scale(0.2 -0.2)">
       <use xlink:href="#DejaVuSans-32"/>
       <use xlink:href="#DejaVuSans-30" x="63.623047"/>
       <use xlink:href="#DejaVuSans-32" x="127.246094"/>
       <use xlink:href="#DejaVuSans-33" x="190.869141"/>
       <use xlink:href="#DejaVuSans-2d" x="254.492188"/>
       <use xlink:href="#DejaVuSans-30" x="290.576172"/>
       <use xlink:href="#DejaVuSans-34" x="354.199219"/>
       <use xlink:href="#DejaVuSans-2d" x="417.822266"/>
       <use xlink:href="#DejaVuSans-30" x="453.90625"/>
       <use xlink:href="#DejaVuSans-36" x="517.529297"/>
      </g>
     </g>
    </g>
    <g id="xtick_25">
     <g id="line2d_25">
      <g>
       <use xlink:href="#mc22a3a8239" x="940.074841" y="395.28" style="stroke: #000000; stroke-width: 0.8"/>
      </g>
     </g>
     <g id="text_25">
      <!-- 2023-04-15 -->
      <g transform="translate(854.945813 495.213718) rotate(-45) scale(0.2 -0.2)">
       <use xlink:href="#DejaVuSans-32"/>
       <use xlink:href="#DejaVuSans-30" x="63.623047"/>
       <use xlink:href="#DejaVuSans-32" x="127.246094"/>
       <use xlink:href="#DejaVuSans-33" x="190.869141"/>
       <use xlink:href="#DejaVuSans-2d" x="254.492188"/>
       <use xlink:href="#DejaVuSans-30" x="290.576172"/>
       <use xlink:href="#DejaVuSans-34" x="354.199219"/>
       <use xlink:href="#DejaVuSans-2d" x="417.822266"/>
       <use xlink:href="#DejaVuSans-31" x="453.90625"/>
       <use xlink:href="#DejaVuSans-35" x="517.529297"/>
      </g>
     </g>
    </g>
   </g>
   <g id="matplotlib.axis_2">
    <g id="ytick_1">
     <g id="line2d_26">
      <defs>
       <path id="m59dc138d18" d="M 0 0 
L -3.5 0 
" style="stroke: #000000; stroke-width: 0.8"/>
      </defs>
      <g>
       <use xlink:href="#m59dc138d18" x="103.074841" y="360.593406" style="stroke: #000000; stroke-width: 0.8"/>
      </g>
     </g>
     <g id="text_26">
      <!-- 0.05 -->
      <g transform="translate(34.784216 368.191844) scale(0.2 -0.2)">
       <defs>
        <path id="DejaVuSans-2212" d="M 678 2272 
L 4684 2272 
L 4684 1741 
L 678 1741 
L 678 2272 
z
" transform="scale(0.015625)"/>
        <path id="DejaVuSans-2e" d="M 684 794 
L 1344 794 
L 1344 0 
L 684 0 
L 684 794 
z
" transform="scale(0.015625)"/>
       </defs>
       <use xlink:href="#DejaVuSans-2212"/>
       <use xlink:href="#DejaVuSans-30" x="83.789062"/>
       <use xlink:href="#DejaVuSans-2e" x="147.412109"/>
       <use xlink:href="#DejaVuSans-30" x="179.199219"/>
       <use xlink:href="#DejaVuSans-35" x="242.822266"/>
      </g>
     </g>
    </g>
    <g id="ytick_2">
     <g id="line2d_27">
      <g>
       <use xlink:href="#m59dc138d18" x="103.074841" y="280.783943" style="stroke: #000000; stroke-width: 0.8"/>
      </g>
     </g>
     <g id="text_27">
      <!-- 0.00 -->
      <g transform="translate(51.543591 288.382381) scale(0.2 -0.2)">
       <use xlink:href="#DejaVuSans-30"/>
       <use xlink:href="#DejaVuSans-2e" x="63.623047"/>
       <use xlink:href="#DejaVuSans-30" x="95.410156"/>
       <use xlink:href="#DejaVuSans-30" x="159.033203"/>
      </g>
     </g>
    </g>
    <g id="ytick_3">
     <g id="line2d_28">
      <g>
       <use xlink:href="#m59dc138d18" x="103.074841" y="200.97448" style="stroke: #000000; stroke-width: 0.8"/>
      </g>
     </g>
     <g id="text_28">
      <!-- 0.05 -->
      <g transform="translate(51.543591 208.572917) scale(0.2 -0.2)">
       <use xlink:href="#DejaVuSans-30"/>
       <use xlink:href="#DejaVuSans-2e" x="63.623047"/>
       <use xlink:href="#DejaVuSans-30" x="95.410156"/>
       <use xlink:href="#DejaVuSans-35" x="159.033203"/>
      </g>
     </g>
    </g>
    <g id="ytick_4">
     <g id="line2d_29">
      <g>
       <use xlink:href="#m59dc138d18" x="103.074841" y="121.165017" style="stroke: #000000; stroke-width: 0.8"/>
      </g>
     </g>
     <g id="text_29">
      <!-- 0.10 -->
      <g transform="translate(51.543591 128.763454) scale(0.2 -0.2)">
       <use xlink:href="#DejaVuSans-30"/>
       <use xlink:href="#DejaVuSans-2e" x="63.623047"/>
       <use xlink:href="#DejaVuSans-31" x="95.410156"/>
       <use xlink:href="#DejaVuSans-30" x="159.033203"/>
      </g>
     </g>
    </g>
    <g id="ytick_5">
     <g id="line2d_30">
      <g>
       <use xlink:href="#m59dc138d18" x="103.074841" y="41.355554" style="stroke: #000000; stroke-width: 0.8"/>
      </g>
     </g>
     <g id="text_30">
      <!-- 0.15 -->
      <g transform="translate(51.543591 48.953991) scale(0.2 -0.2)">
       <use xlink:href="#DejaVuSans-30"/>
       <use xlink:href="#DejaVuSans-2e" x="63.623047"/>
       <use xlink:href="#DejaVuSans-31" x="95.410156"/>
       <use xlink:href="#DejaVuSans-35" x="159.033203"/>
      </g>
     </g>
    </g>
    <g id="text_31">
     <!-- Relative fitness $\gamma_y$ -->
     <g transform="translate(24.584216 291.84) rotate(-90) scale(0.2 -0.2)">
      <defs>
       <path id="DejaVuSans-52" d="M 2841 2188 
Q 3044 2119 3236 1894 
Q 3428 1669 3622 1275 
L 4263 0 
L 3584 0 
L 2988 1197 
Q 2756 1666 2539 1819 
Q 2322 1972 1947 1972 
L 1259 1972 
L 1259 0 
L 628 0 
L 628 4666 
L 2053 4666 
Q 2853 4666 3247 4331 
Q 3641 3997 3641 3322 
Q 3641 2881 3436 2590 
Q 3231 2300 2841 2188 
z
M 1259 4147 
L 1259 2491 
L 2053 2491 
Q 2509 2491 2742 2702 
Q 2975 2913 2975 3322 
Q 2975 3731 2742 3939 
Q 2509 4147 2053 4147 
L 1259 4147 
z
" transform="scale(0.015625)"/>
       <path id="DejaVuSans-65" d="M 3597 1894 
L 3597 1613 
L 953 1613 
Q 991 1019 1311 708 
Q 1631 397 2203 397 
Q 2534 397 2845 478 
Q 3156 559 3463 722 
L 3463 178 
Q 3153 47 2828 -22 
Q 2503 -91 2169 -91 
Q 1331 -91 842 396 
Q 353 884 353 1716 
Q 353 2575 817 3079 
Q 1281 3584 2069 3584 
Q 2775 3584 3186 3129 
Q 3597 2675 3597 1894 
z
M 3022 2063 
Q 3016 2534 2758 2815 
Q 2500 3097 2075 3097 
Q 1594 3097 1305 2825 
Q 1016 2553 972 2059 
L 3022 2063 
z
" transform="scale(0.015625)"/>
       <path id="DejaVuSans-6c" d="M 603 4863 
L 1178 4863 
L 1178 0 
L 603 0 
L 603 4863 
z
" transform="scale(0.015625)"/>
       <path id="DejaVuSans-61" d="M 2194 1759 
Q 1497 1759 1228 1600 
Q 959 1441 959 1056 
Q 959 750 1161 570 
Q 1363 391 1709 391 
Q 2188 391 2477 730 
Q 2766 1069 2766 1631 
L 2766 1759 
L 2194 1759 
z
M 3341 1997 
L 3341 0 
L 2766 0 
L 2766 531 
Q 2569 213 2275 61 
Q 1981 -91 1556 -91 
Q 1019 -91 701 211 
Q 384 513 384 1019 
Q 384 1609 779 1909 
Q 1175 2209 1959 2209 
L 2766 2209 
L 2766 2266 
Q 2766 2663 2505 2880 
Q 2244 3097 1772 3097 
Q 1472 3097 1187 3025 
Q 903 2953 641 2809 
L 641 3341 
Q 956 3463 1253 3523 
Q 1550 3584 1831 3584 
Q 2591 3584 2966 3190 
Q 3341 2797 3341 1997 
z
" transform="scale(0.015625)"/>
       <path id="DejaVuSans-74" d="M 1172 4494 
L 1172 3500 
L 2356 3500 
L 2356 3053 
L 1172 3053 
L 1172 1153 
Q 1172 725 1289 603 
Q 1406 481 1766 481 
L 2356 481 
L 2356 0 
L 1766 0 
Q 1100 0 847 248 
Q 594 497 594 1153 
L 594 3053 
L 172 3053 
L 172 3500 
L 594 3500 
L 594 4494 
L 1172 4494 
z
" transform="scale(0.015625)"/>
       <path id="DejaVuSans-69" d="M 603 3500 
L 1178 3500 
L 1178 0 
L 603 0 
L 603 3500 
z
M 603 4863 
L 1178 4863 
L 1178 4134 
L 603 4134 
L 603 4863 
z
" transform="scale(0.015625)"/>
       <path id="DejaVuSans-76" d="M 191 3500 
L 800 3500 
L 1894 563 
L 2988 3500 
L 3597 3500 
L 2284 0 
L 1503 0 
L 191 3500 
z
" transform="scale(0.015625)"/>
       <path id="DejaVuSans-20" transform="scale(0.015625)"/>
       <path id="DejaVuSans-66" d="M 2375 4863 
L 2375 4384 
L 1825 4384 
Q 1516 4384 1395 4259 
Q 1275 4134 1275 3809 
L 1275 3500 
L 2222 3500 
L 2222 3053 
L 1275 3053 
L 1275 0 
L 697 0 
L 697 3053 
L 147 3053 
L 147 3500 
L 697 3500 
L 697 3744 
Q 697 4328 969 4595 
Q 1241 4863 1831 4863 
L 2375 4863 
z
" transform="scale(0.015625)"/>
       <path id="DejaVuSans-6e" d="M 3513 2113 
L 3513 0 
L 2938 0 
L 2938 2094 
Q 2938 2591 2744 2837 
Q 2550 3084 2163 3084 
Q 1697 3084 1428 2787 
Q 1159 2491 1159 1978 
L 1159 0 
L 581 0 
L 581 3500 
L 1159 3500 
L 1159 2956 
Q 1366 3272 1645 3428 
Q 1925 3584 2291 3584 
Q 2894 3584 3203 3211 
Q 3513 2838 3513 2113 
z
" transform="scale(0.015625)"/>
       <path id="DejaVuSans-73" d="M 2834 3397 
L 2834 2853 
Q 2591 2978 2328 3040 
Q 2066 3103 1784 3103 
Q 1356 3103 1142 2972 
Q 928 2841 928 2578 
Q 928 2378 1081 2264 
Q 1234 2150 1697 2047 
L 1894 2003 
Q 2506 1872 2764 1633 
Q 3022 1394 3022 966 
Q 3022 478 2636 193 
Q 2250 -91 1575 -91 
Q 1294 -91 989 -36 
Q 684 19 347 128 
L 347 722 
Q 666 556 975 473 
Q 1284 391 1588 391 
Q 1994 391 2212 530 
Q 2431 669 2431 922 
Q 2431 1156 2273 1281 
Q 2116 1406 1581 1522 
L 1381 1569 
Q 847 1681 609 1914 
Q 372 2147 372 2553 
Q 372 3047 722 3315 
Q 1072 3584 1716 3584 
Q 2034 3584 2315 3537 
Q 2597 3491 2834 3397 
z
" transform="scale(0.015625)"/>
       <path id="DejaVuSans-Oblique-3b3" d="M 1491 2950 
L 1838 788 
L 3456 3500 
L 4066 3500 
L 1972 0 
L 1713 -1331 
L 1138 -1331 
L 1397 0 
L 988 2613 
Q 925 3006 628 3006 
L 475 3006 
L 569 3500 
L 788 3500 
Q 1403 3500 1491 2950 
z
" transform="scale(0.015625)"/>
       <path id="DejaVuSans-Oblique-79" d="M 1588 -325 
Q 1188 -997 936 -1164 
Q 684 -1331 294 -1331 
L -159 -1331 
L -63 -850 
L 269 -850 
Q 509 -850 678 -719 
Q 847 -588 1056 -206 
L 1234 128 
L 459 3500 
L 1069 3500 
L 1650 819 
L 3256 3500 
L 3859 3500 
L 1588 -325 
z
" transform="scale(0.015625)"/>
      </defs>
      <use xlink:href="#DejaVuSans-52" transform="translate(0 0.015625)"/>
      <use xlink:href="#DejaVuSans-65" transform="translate(69.482422 0.015625)"/>
      <use xlink:href="#DejaVuSans-6c" transform="translate(131.005859 0.015625)"/>
      <use xlink:href="#DejaVuSans-61" transform="translate(158.789062 0.015625)"/>
      <use xlink:href="#DejaVuSans-74" transform="translate(220.068359 0.015625)"/>
      <use xlink:href="#DejaVuSans-69" transform="translate(259.277344 0.015625)"/>
      <use xlink:href="#DejaVuSans-76" transform="translate(287.060547 0.015625)"/>
      <use xlink:href="#DejaVuSans-65" transform="translate(346.240234 0.015625)"/>
      <use xlink:href="#DejaVuSans-20" transform="translate(407.763672 0.015625)"/>
      <use xlink:href="#DejaVuSans-66" transform="translate(439.550781 0.015625)"/>
      <use xlink:href="#DejaVuSans-69" transform="translate(474.755859 0.015625)"/>
      <use xlink:href="#DejaVuSans-74" transform="translate(502.539062 0.015625)"/>
      <use xlink:href="#DejaVuSans-6e" transform="translate(541.748047 0.015625)"/>
      <use xlink:href="#DejaVuSans-65" transform="translate(605.126953 0.015625)"/>
      <use xlink:href="#DejaVuSans-73" transform="translate(666.650391 0.015625)"/>
      <use xlink:href="#DejaVuSans-73" transform="translate(718.75 0.015625)"/>
      <use xlink:href="#DejaVuSans-20" transform="translate(770.849609 0.015625)"/>
      <use xlink:href="#DejaVuSans-Oblique-3b3" transform="translate(802.636719 0.015625)"/>
      <use xlink:href="#DejaVuSans-Oblique-79" transform="translate(861.816406 -16.390625) scale(0.7)"/>
     </g>
    </g>
   </g>
   <g id="line2d_31">
    <path d="M 103.074841 280.783943 
L 1041.965466 280.783943 
" clip-path="url(#pc89d616925)" style="fill: none; stroke-dasharray: 7.4,3.2; stroke-dashoffset: 0; stroke: #000000; stroke-width: 2"/>
   </g>
   <g id="patch_3">
    <path d="M 103.074841 395.28 
L 103.074841 7.2 
" style="fill: none; stroke: #000000; stroke-width: 0.8; stroke-linejoin: miter; stroke-linecap: square"/>
   </g>
   <g id="patch_4">
    <path d="M 940.074841 395.28 
L 940.074841 7.2 
" style="fill: none; stroke: #000000; stroke-width: 0.8; stroke-linejoin: miter; stroke-linecap: square"/>
   </g>
   <g id="patch_5">
    <path d="M 103.074841 395.28 
L 940.074841 395.28 
" style="fill: none; stroke: #000000; stroke-width: 0.8; stroke-linejoin: miter; stroke-linecap: square"/>
   </g>
   <g id="patch_6">
    <path d="M 103.074841 7.2 
L 940.074841 7.2 
" style="fill: none; stroke: #000000; stroke-width: 0.8; stroke-linejoin: miter; stroke-linecap: square"/>
   </g>
  </g>
  <g id="axes_2">
   <g id="matplotlib.axis_3">
    <g id="ytick_6">
     <g id="line2d_32">
      <defs>
       <path id="m1727f0bf0e" d="M 0 0 
L 3.5 0 
" style="stroke: #000000; stroke-width: 0.8"/>
      </defs>
      <g>
       <use xlink:href="#m1727f0bf0e" x="940.074841" y="360.593406" style="stroke: #000000; stroke-width: 0.8"/>
      </g>
     </g>
     <g id="text_32">
      <!-- 0.05 -->
      <g transform="translate(947.074841 368.191844) scale(0.2 -0.2)">
       <use xlink:href="#DejaVuSans-2212"/>
       <use xlink:href="#DejaVuSans-30" x="83.789062"/>
       <use xlink:href="#DejaVuSans-2e" x="147.412109"/>
       <use xlink:href="#DejaVuSans-30" x="179.199219"/>
       <use xlink:href="#DejaVuSans-35" x="242.822266"/>
      </g>
     </g>
    </g>
    <g id="ytick_7">
     <g id="line2d_33">
      <g>
       <use xlink:href="#m1727f0bf0e" x="940.074841" y="280.783943" style="stroke: #000000; stroke-width: 0.8"/>
      </g>
     </g>
     <g id="text_33">
      <!-- 0.00 -->
      <g transform="translate(947.074841 288.382381) scale(0.2 -0.2)">
       <use xlink:href="#DejaVuSans-30"/>
       <use xlink:href="#DejaVuSans-2e" x="63.623047"/>
       <use xlink:href="#DejaVuSans-30" x="95.410156"/>
       <use xlink:href="#DejaVuSans-30" x="159.033203"/>
      </g>
     </g>
    </g>
    <g id="ytick_8">
     <g id="line2d_34">
      <g>
       <use xlink:href="#m1727f0bf0e" x="940.074841" y="200.97448" style="stroke: #000000; stroke-width: 0.8"/>
      </g>
     </g>
     <g id="text_34">
      <!-- 0.05 -->
      <g transform="translate(947.074841 208.572917) scale(0.2 -0.2)">
       <use xlink:href="#DejaVuSans-30"/>
       <use xlink:href="#DejaVuSans-2e" x="63.623047"/>
       <use xlink:href="#DejaVuSans-30" x="95.410156"/>
       <use xlink:href="#DejaVuSans-35" x="159.033203"/>
      </g>
     </g>
    </g>
    <g id="ytick_9">
     <g id="line2d_35">
      <g>
       <use xlink:href="#m1727f0bf0e" x="940.074841" y="121.165017" style="stroke: #000000; stroke-width: 0.8"/>
      </g>
     </g>
     <g id="text_35">
      <!-- 0.10 -->
      <g transform="translate(947.074841 128.763454) scale(0.2 -0.2)">
       <use xlink:href="#DejaVuSans-30"/>
       <use xlink:href="#DejaVuSans-2e" x="63.623047"/>
       <use xlink:href="#DejaVuSans-31" x="95.410156"/>
       <use xlink:href="#DejaVuSans-30" x="159.033203"/>
      </g>
     </g>
    </g>
    <g id="ytick_10">
     <g id="line2d_36">
      <g>
       <use xlink:href="#m1727f0bf0e" x="940.074841" y="41.355554" style="stroke: #000000; stroke-width: 0.8"/>
      </g>
     </g>
     <g id="text_36">
      <!-- 0.15 -->
      <g transform="translate(947.074841 48.953991) scale(0.2 -0.2)">
       <use xlink:href="#DejaVuSans-30"/>
       <use xlink:href="#DejaVuSans-2e" x="63.623047"/>
       <use xlink:href="#DejaVuSans-31" x="95.410156"/>
       <use xlink:href="#DejaVuSans-35" x="159.033203"/>
      </g>
     </g>
    </g>
    <g id="text_37">
     <!-- Change in proportion $\gamma_{prop}$ -->
     <g transform="translate(1027.565466 332.74) rotate(-90) scale(0.2 -0.2)">
      <defs>
       <path id="DejaVuSans-43" d="M 4122 4306 
L 4122 3641 
Q 3803 3938 3442 4084 
Q 3081 4231 2675 4231 
Q 1875 4231 1450 3742 
Q 1025 3253 1025 2328 
Q 1025 1406 1450 917 
Q 1875 428 2675 428 
Q 3081 428 3442 575 
Q 3803 722 4122 1019 
L 4122 359 
Q 3791 134 3420 21 
Q 3050 -91 2638 -91 
Q 1578 -91 968 557 
Q 359 1206 359 2328 
Q 359 3453 968 4101 
Q 1578 4750 2638 4750 
Q 3056 4750 3426 4639 
Q 3797 4528 4122 4306 
z
" transform="scale(0.015625)"/>
       <path id="DejaVuSans-68" d="M 3513 2113 
L 3513 0 
L 2938 0 
L 2938 2094 
Q 2938 2591 2744 2837 
Q 2550 3084 2163 3084 
Q 1697 3084 1428 2787 
Q 1159 2491 1159 1978 
L 1159 0 
L 581 0 
L 581 4863 
L 1159 4863 
L 1159 2956 
Q 1366 3272 1645 3428 
Q 1925 3584 2291 3584 
Q 2894 3584 3203 3211 
Q 3513 2838 3513 2113 
z
" transform="scale(0.015625)"/>
       <path id="DejaVuSans-67" d="M 2906 1791 
Q 2906 2416 2648 2759 
Q 2391 3103 1925 3103 
Q 1463 3103 1205 2759 
Q 947 2416 947 1791 
Q 947 1169 1205 825 
Q 1463 481 1925 481 
Q 2391 481 2648 825 
Q 2906 1169 2906 1791 
z
M 3481 434 
Q 3481 -459 3084 -895 
Q 2688 -1331 1869 -1331 
Q 1566 -1331 1297 -1286 
Q 1028 -1241 775 -1147 
L 775 -588 
Q 1028 -725 1275 -790 
Q 1522 -856 1778 -856 
Q 2344 -856 2625 -561 
Q 2906 -266 2906 331 
L 2906 616 
Q 2728 306 2450 153 
Q 2172 0 1784 0 
Q 1141 0 747 490 
Q 353 981 353 1791 
Q 353 2603 747 3093 
Q 1141 3584 1784 3584 
Q 2172 3584 2450 3431 
Q 2728 3278 2906 2969 
L 2906 3500 
L 3481 3500 
L 3481 434 
z
" transform="scale(0.015625)"/>
       <path id="DejaVuSans-70" d="M 1159 525 
L 1159 -1331 
L 581 -1331 
L 581 3500 
L 1159 3500 
L 1159 2969 
Q 1341 3281 1617 3432 
Q 1894 3584 2278 3584 
Q 2916 3584 3314 3078 
Q 3713 2572 3713 1747 
Q 3713 922 3314 415 
Q 2916 -91 2278 -91 
Q 1894 -91 1617 61 
Q 1341 213 1159 525 
z
M 3116 1747 
Q 3116 2381 2855 2742 
Q 2594 3103 2138 3103 
Q 1681 3103 1420 2742 
Q 1159 2381 1159 1747 
Q 1159 1113 1420 752 
Q 1681 391 2138 391 
Q 2594 391 2855 752 
Q 3116 1113 3116 1747 
z
" transform="scale(0.015625)"/>
       <path id="DejaVuSans-72" d="M 2631 2963 
Q 2534 3019 2420 3045 
Q 2306 3072 2169 3072 
Q 1681 3072 1420 2755 
Q 1159 2438 1159 1844 
L 1159 0 
L 581 0 
L 581 3500 
L 1159 3500 
L 1159 2956 
Q 1341 3275 1631 3429 
Q 1922 3584 2338 3584 
Q 2397 3584 2469 3576 
Q 2541 3569 2628 3553 
L 2631 2963 
z
" transform="scale(0.015625)"/>
       <path id="DejaVuSans-6f" d="M 1959 3097 
Q 1497 3097 1228 2736 
Q 959 2375 959 1747 
Q 959 1119 1226 758 
Q 1494 397 1959 397 
Q 2419 397 2687 759 
Q 2956 1122 2956 1747 
Q 2956 2369 2687 2733 
Q 2419 3097 1959 3097 
z
M 1959 3584 
Q 2709 3584 3137 3096 
Q 3566 2609 3566 1747 
Q 3566 888 3137 398 
Q 2709 -91 1959 -91 
Q 1206 -91 779 398 
Q 353 888 353 1747 
Q 353 2609 779 3096 
Q 1206 3584 1959 3584 
z
" transform="scale(0.015625)"/>
       <path id="DejaVuSans-Oblique-70" d="M 3175 2156 
Q 3175 2616 2975 2859 
Q 2775 3103 2400 3103 
Q 2144 3103 1911 2972 
Q 1678 2841 1497 2591 
Q 1319 2344 1212 1994 
Q 1106 1644 1106 1300 
Q 1106 863 1306 627 
Q 1506 391 1875 391 
Q 2147 391 2380 519 
Q 2613 647 2778 891 
Q 2956 1147 3065 1494 
Q 3175 1841 3175 2156 
z
M 1394 2969 
Q 1625 3272 1939 3428 
Q 2253 3584 2638 3584 
Q 3175 3584 3472 3232 
Q 3769 2881 3769 2247 
Q 3769 1728 3584 1258 
Q 3400 788 3053 416 
Q 2822 169 2531 39 
Q 2241 -91 1919 -91 
Q 1547 -91 1294 64 
Q 1041 219 916 525 
L 556 -1331 
L -19 -1331 
L 922 3500 
L 1497 3500 
L 1394 2969 
z
" transform="scale(0.015625)"/>
       <path id="DejaVuSans-Oblique-72" d="M 2853 2969 
Q 2766 3016 2653 3041 
Q 2541 3066 2413 3066 
Q 1953 3066 1609 2717 
Q 1266 2369 1153 1784 
L 800 0 
L 225 0 
L 909 3500 
L 1484 3500 
L 1375 2956 
Q 1603 3259 1920 3421 
Q 2238 3584 2597 3584 
Q 2691 3584 2781 3573 
Q 2872 3563 2963 3538 
L 2853 2969 
z
" transform="scale(0.015625)"/>
       <path id="DejaVuSans-Oblique-6f" d="M 1625 -91 
Q 1009 -91 651 289 
Q 294 669 294 1325 
Q 294 1706 417 2101 
Q 541 2497 738 2766 
Q 1047 3184 1428 3384 
Q 1809 3584 2291 3584 
Q 2888 3584 3255 3212 
Q 3622 2841 3622 2241 
Q 3622 1825 3500 1412 
Q 3378 1000 3181 728 
Q 2875 309 2494 109 
Q 2113 -91 1625 -91 
z
M 891 1344 
Q 891 869 1089 633 
Q 1288 397 1691 397 
Q 2269 397 2648 901 
Q 3028 1406 3028 2181 
Q 3028 2634 2825 2865 
Q 2622 3097 2228 3097 
Q 1903 3097 1650 2945 
Q 1397 2794 1197 2484 
Q 1050 2253 970 1956 
Q 891 1659 891 1344 
z
" transform="scale(0.015625)"/>
      </defs>
      <use xlink:href="#DejaVuSans-43" transform="translate(0 0.015625)"/>
      <use xlink:href="#DejaVuSans-68" transform="translate(69.824219 0.015625)"/>
      <use xlink:href="#DejaVuSans-61" transform="translate(133.203125 0.015625)"/>
      <use xlink:href="#DejaVuSans-6e" transform="translate(194.482422 0.015625)"/>
      <use xlink:href="#DejaVuSans-67" transform="translate(257.861328 0.015625)"/>
      <use xlink:href="#DejaVuSans-65" transform="translate(321.337891 0.015625)"/>
      <use xlink:href="#DejaVuSans-20" transform="translate(382.861328 0.015625)"/>
      <use xlink:href="#DejaVuSans-69" transform="translate(414.648438 0.015625)"/>
      <use xlink:href="#DejaVuSans-6e" transform="translate(442.431641 0.015625)"/>
      <use xlink:href="#DejaVuSans-20" transform="translate(505.810547 0.015625)"/>
      <use xlink:href="#DejaVuSans-70" transform="translate(537.597656 0.015625)"/>
      <use xlink:href="#DejaVuSans-72" transform="translate(601.074219 0.015625)"/>
      <use xlink:href="#DejaVuSans-6f" transform="translate(642.1875 0.015625)"/>
      <use xlink:href="#DejaVuSans-70" transform="translate(703.369141 0.015625)"/>
      <use xlink:href="#DejaVuSans-6f" transform="translate(766.845703 0.015625)"/>
      <use xlink:href="#DejaVuSans-72" transform="translate(828.027344 0.015625)"/>
      <use xlink:href="#DejaVuSans-74" transform="translate(869.140625 0.015625)"/>
      <use xlink:href="#DejaVuSans-69" transform="translate(908.349609 0.015625)"/>
      <use xlink:href="#DejaVuSans-6f" transform="translate(936.132812 0.015625)"/>
      <use xlink:href="#DejaVuSans-6e" transform="translate(997.314453 0.015625)"/>
      <use xlink:href="#DejaVuSans-20" transform="translate(1060.693359 0.015625)"/>
      <use xlink:href="#DejaVuSans-Oblique-3b3" transform="translate(1092.480469 0.015625)"/>
      <use xlink:href="#DejaVuSans-Oblique-70" transform="translate(1151.660156 -16.390625) scale(0.7)"/>
      <use xlink:href="#DejaVuSans-Oblique-72" transform="translate(1196.09375 -16.390625) scale(0.7)"/>
      <use xlink:href="#DejaVuSans-Oblique-6f" transform="translate(1224.873047 -16.390625) scale(0.7)"/>
      <use xlink:href="#DejaVuSans-Oblique-70" transform="translate(1267.700195 -16.390625) scale(0.7)"/>
     </g>
    </g>
   </g>
   <g id="line2d_37">
    <path d="M 940.074841 280.783943 
" clip-path="url(#pc89d616925)" style="fill: none; stroke: #ffa500; stroke-width: 1.5; stroke-linecap: square"/>
   </g>
   <g id="patch_7">
    <path d="M 103.074841 395.28 
L 103.074841 7.2 
" style="fill: none; stroke: #000000; stroke-width: 0.8; stroke-linejoin: miter; stroke-linecap: square"/>
   </g>
   <g id="patch_8">
    <path d="M 940.074841 395.28 
L 940.074841 7.2 
" style="fill: none; stroke: #000000; stroke-width: 0.8; stroke-linejoin: miter; stroke-linecap: square"/>
   </g>
   <g id="patch_9">
    <path d="M 103.074841 395.28 
L 940.074841 395.28 
" style="fill: none; stroke: #000000; stroke-width: 0.8; stroke-linejoin: miter; stroke-linecap: square"/>
   </g>
   <g id="patch_10">
    <path d="M 103.074841 7.2 
L 940.074841 7.2 
" style="fill: none; stroke: #000000; stroke-width: 0.8; stroke-linejoin: miter; stroke-linecap: square"/>
   </g>
  </g>
 </g>
 <defs>
  <clipPath id="pc89d616925">
   <rect x="103.074841" y="7.2" width="837" height="388.08"/>
  </clipPath>
 </defs>
</svg>
