<?xml version="1.0" encoding="utf-8" standalone="no"?>
<!DOCTYPE svg PUBLIC "-//W3C//DTD SVG 1.1//EN"
  "http://www.w3.org/Graphics/SVG/1.1/DTD/svg11.dtd">
<svg xmlns:xlink="http://www.w3.org/1999/xlink" width="947.274841pt" height="505.354841pt" viewBox="0 0 947.274841 505.354841" xmlns="http://www.w3.org/2000/svg" version="1.1">
 <metadata>
  <rdf:RDF xmlns:dc="http://purl.org/dc/elements/1.1/" xmlns:cc="http://creativecommons.org/ns#" xmlns:rdf="http://www.w3.org/1999/02/22-rdf-syntax-ns#">
   <cc:Work>
    <dc:type rdf:resource="http://purl.org/dc/dcmitype/StillImage"/>
    <dc:date>2023-11-15T19:57:49.902279</dc:date>
    <dc:format>image/svg+xml</dc:format>
    <dc:creator>
     <cc:Agent>
      <dc:title>Matplotlib v3.7.2, https://matplotlib.org/</dc:title>
     </cc:Agent>
    </dc:creator>
   </cc:Work>
  </rdf:RDF>
 </metadata>
 <defs>
  <style type="text/css">*{stroke-linejoin: round; stroke-linecap: butt}</style>
 </defs>
 <g id="figure_1">
  <g id="patch_1">
   <path d="M 0 505.354841 
L 947.274841 505.354841 
L 947.274841 -0 
L 0 -0 
z
" style="fill: #ffffff"/>
  </g>
  <g id="axes_1">
   <g id="patch_2">
    <path d="M 103.074841 395.28 
L 940.074841 395.28 
L 940.074841 7.2 
L 103.074841 7.2 
z
" style="fill: #ffffff"/>
   </g>
   <g id="PolyCollection_1">
    <path d="M -393.000769 377.629321 
L -393.000769 377.64 
L -390.959306 377.559536 
L -388.917842 377.50475 
L -386.876379 377.441141 
L -384.834915 377.40542 
L -382.793452 377.358351 
L -380.751989 377.301289 
L -378.710525 377.245513 
L -376.669062 377.195537 
L -374.627598 377.155743 
L -372.586135 377.105555 
L -370.544672 377.052021 
L -368.503208 377.001135 
L -366.461745 376.931776 
L -364.420281 376.880392 
L -362.378818 376.814523 
L -360.337354 376.763232 
L -358.295891 376.682756 
L -356.254428 376.623268 
L -354.212964 376.567978 
L -352.171501 376.49693 
L -350.130037 376.429447 
L -348.088574 376.365349 
L -346.047111 376.281229 
L -344.005647 376.213714 
L -341.964184 376.129294 
L -339.92272 376.04498 
L -337.881257 375.948846 
L -335.839793 375.850758 
L -333.79833 375.758112 
L -331.756867 375.645541 
L -329.715403 375.513996 
L -327.67394 375.406381 
L -325.632476 375.279379 
L -323.591013 375.128945 
L -321.54955 374.997074 
L -319.508086 374.834589 
L -317.466623 374.672448 
L -315.425159 374.507583 
L -313.383696 374.333555 
L -311.342232 374.136111 
L -309.300769 373.925023 
L -307.259306 373.700758 
L -305.217842 373.493455 
L -303.176379 373.236869 
L -301.134915 373.003685 
L -299.093452 372.753055 
L -297.051989 372.50637 
L -295.010525 372.236199 
L -292.969062 371.937616 
L -290.927598 371.676082 
L -288.886135 371.37325 
L -286.844672 371.058824 
L -284.803208 370.757686 
L -282.761745 370.464965 
L -280.720281 370.137553 
L -278.678818 369.808284 
L -276.637354 369.483232 
L -274.595891 369.140707 
L -272.554428 368.794891 
L -270.512964 368.453569 
L -268.471501 368.097483 
L -266.430037 367.742877 
L -264.388574 367.398916 
L -262.347111 367.035426 
L -260.305647 366.635483 
L -258.264184 366.255404 
L -256.22272 365.877864 
L -254.181257 365.510043 
L -252.139793 365.119572 
L -250.09833 364.742528 
L -248.056867 364.355111 
L -246.015403 364.023265 
L -243.97394 363.597358 
L -241.932476 363.252007 
L -239.891013 362.854201 
L -237.84955 362.482414 
L -235.808086 362.081465 
L -233.766623 361.736634 
L -231.725159 361.31464 
L -229.683696 360.93302 
L -227.642232 360.588118 
L -225.600769 360.196691 
L -223.559306 359.833367 
L -221.517842 359.448188 
L -219.476379 359.062046 
L -217.434915 358.694879 
L -215.393452 358.337232 
L -213.351989 357.938754 
L -211.310525 357.569902 
L -209.269062 357.192042 
L -207.227598 356.821452 
L -205.186135 356.461545 
L -203.144672 356.086308 
L -201.103208 355.71648 
L -199.061745 355.399969 
L -197.020281 355.017422 
L -194.978818 354.656204 
L -192.937354 354.301869 
L -190.895891 353.945136 
L -188.854428 353.587966 
L -186.812964 353.222523 
L -184.771501 352.879794 
L -182.730037 352.515806 
L -180.688574 352.137956 
L -178.647111 351.75336 
L -176.605647 351.362428 
L -174.564184 351.005859 
L -172.52272 350.598553 
L -170.481257 350.154772 
L -168.439793 349.747892 
L -166.39833 349.311719 
L -164.356867 348.867818 
L -162.315403 348.392205 
L -160.27394 347.907013 
L -158.232476 347.469084 
L -156.191013 346.949618 
L -154.14955 346.466073 
L -152.108086 345.935648 
L -150.066623 345.464241 
L -148.025159 344.883308 
L -145.983696 344.31951 
L -143.942232 343.778832 
L -141.900769 343.228316 
L -139.859306 342.658035 
L -137.817842 342.056725 
L -135.776379 341.507291 
L -133.734915 340.854151 
L -131.693452 340.305098 
L -129.651989 339.633228 
L -127.610525 338.991129 
L -125.569062 338.371799 
L -123.527598 337.788969 
L -121.486135 337.078676 
L -119.444672 336.460367 
L -117.403208 335.621718 
L -115.361745 334.933817 
L -113.320281 334.311826 
L -111.278818 333.585998 
L -109.237354 332.841014 
L -107.195891 331.95415 
L -105.154428 331.144001 
L -103.112964 330.51498 
L -101.071501 329.383935 
L -99.030037 328.533762 
L -96.988574 327.668522 
L -94.947111 326.770657 
L -92.905647 325.720393 
L -90.864184 324.761482 
L -88.82272 324.122498 
L -86.781257 323.235456 
L -84.739793 321.586271 
L -82.69833 320.266611 
L -80.656867 319.39599 
L -78.615403 318.065553 
L -76.57394 317.039371 
L -74.532476 316.208654 
L -72.491013 314.754518 
L -70.44955 313.05607 
L -68.408086 312.038442 
L -66.366623 311.552646 
L -64.325159 310.231546 
L -62.283696 309.896518 
L -60.242232 309.089687 
L -58.200769 307.637746 
L -56.159306 307.779755 
L -54.117842 308.59588 
L -52.076379 310.217493 
L -50.034915 308.74045 
L -47.993452 312.167825 
L -45.951989 313.165658 
L -43.910525 308.858735 
L -41.869062 310.267352 
L -39.827598 312.394327 
L -37.786135 311.349015 
L -35.744672 311.227138 
L -33.703208 319.792613 
L -31.661745 331.930424 
L -29.620281 338.075267 
L -27.578818 325.128528 
L -25.537354 332.056813 
L -23.495891 340.909132 
L -21.454428 340.532964 
L -19.412964 358.490784 
L -17.371501 356.035595 
L -15.330037 350.729537 
L -13.288574 337.131631 
L -11.247111 350.013609 
L -9.205647 357.687971 
L -7.164184 354.322933 
L -5.12272 356.463096 
L -3.081257 363.538395 
L -1.039793 362.518907 
L 1.00167 356.514617 
L 3.043133 364.131257 
L 5.084597 365.906966 
L 7.12606 363.010055 
L 9.167524 368.330293 
L 11.208987 370.368835 
L 13.25045 369.983683 
L 15.291914 368.345385 
L 17.333377 370.246016 
L 19.374841 368.461074 
L 21.416304 368.744181 
L 23.457768 370.635716 
L 25.499231 369.198114 
L 27.540694 370.206567 
L 29.582158 370.468937 
L 31.623621 369.219929 
L 33.665085 369.943583 
L 35.706548 367.87086 
L 37.748011 368.479376 
L 39.789475 369.256814 
L 41.830938 369.590631 
L 43.872402 368.781736 
L 45.913865 368.108178 
L 47.955328 368.107408 
L 49.996792 367.583802 
L 52.038255 367.724108 
L 54.079719 367.799933 
L 56.121182 366.663177 
L 58.162646 367.657398 
L 60.204109 366.974406 
L 62.245572 366.677855 
L 64.287036 367.206318 
L 66.328499 366.575835 
L 68.369963 366.585558 
L 70.411426 367.121002 
L 72.452889 367.840461 
L 74.494353 366.587325 
L 76.535816 366.061499 
L 78.57728 366.339983 
L 80.618743 368.932023 
L 82.660207 369.13977 
L 84.70167 370.167009 
L 86.743133 367.860089 
L 88.784597 366.561164 
L 90.82606 367.062768 
L 92.867524 368.712564 
L 94.908987 368.963728 
L 96.95045 366.261202 
L 98.991914 368.546749 
L 101.033377 367.487722 
L 103.074841 367.254188 
L 105.116304 365.753425 
L 107.157768 366.656798 
L 109.199231 366.009442 
L 111.240694 366.551306 
L 113.282158 365.385307 
L 115.323621 364.512938 
L 117.365085 363.090234 
L 119.406548 362.366563 
L 121.448011 361.669713 
L 123.489475 360.598546 
L 125.530938 360.31649 
L 127.572402 359.260842 
L 129.613865 358.147769 
L 131.655328 356.003576 
L 133.696792 354.137718 
L 135.738255 353.087879 
L 137.779719 351.097812 
L 139.821182 350.575467 
L 141.862646 348.923968 
L 143.904109 346.475814 
L 145.945572 344.433999 
L 147.987036 342.752021 
L 150.028499 340.187573 
L 152.069963 338.595203 
L 154.111426 336.291173 
L 156.152889 334.247225 
L 158.194353 331.829335 
L 160.235816 329.387254 
L 162.27728 327.090213 
L 164.318743 324.686148 
L 166.360207 322.445941 
L 168.40167 319.551685 
L 170.443133 316.860754 
L 172.484597 314.145408 
L 174.52606 312.060074 
L 176.567524 309.212726 
L 178.608987 306.674077 
L 180.65045 303.897387 
L 182.691914 300.177434 
L 184.733377 298.078316 
L 186.774841 294.860361 
L 188.816304 292.174272 
L 190.857768 289.188988 
L 192.899231 285.889136 
L 194.940694 282.794155 
L 196.982158 279.698954 
L 199.023621 275.911616 
L 201.065085 273.134984 
L 203.106548 269.444141 
L 205.148011 266.808147 
L 207.189475 262.995425 
L 209.230938 259.227389 
L 211.272402 255.879419 
L 213.313865 252.979459 
L 215.355328 248.714851 
L 217.396792 245.511448 
L 219.438255 241.650435 
L 221.479719 238.376979 
L 223.521182 234.333903 
L 225.562646 230.605362 
L 227.604109 229.546855 
L 229.645572 223.070179 
L 231.687036 221.399982 
L 233.728499 217.323128 
L 235.769963 214.136898 
L 237.811426 210.53127 
L 239.852889 206.830719 
L 241.894353 203.274876 
L 243.935816 199.988629 
L 245.97728 196.88231 
L 248.018743 193.644913 
L 250.060207 194.733718 
L 252.10167 186.768763 
L 254.143133 184.547396 
L 256.184597 188.947849 
L 258.22606 180.162968 
L 260.267524 180.597805 
L 262.308987 178.99882 
L 264.35045 173.849413 
L 266.391914 174.002187 
L 268.433377 177.026976 
L 270.474841 173.195236 
L 272.516304 171.245212 
L 274.557768 173.255729 
L 276.599231 171.801727 
L 278.640694 172.844973 
L 280.682158 174.867805 
L 282.723621 177.749432 
L 284.765085 186.986523 
L 286.806548 183.922818 
L 288.848011 188.444133 
L 290.889475 191.821632 
L 292.930938 193.610889 
L 294.972402 198.256 
L 297.013865 200.700904 
L 299.055328 193.742231 
L 301.096792 198.96413 
L 303.138255 206.710367 
L 305.179719 210.010675 
L 307.221182 210.175877 
L 309.262646 219.945228 
L 311.304109 219.790467 
L 313.345572 221.776386 
L 315.387036 220.612854 
L 317.428499 233.319265 
L 319.469963 229.305511 
L 321.511426 227.002111 
L 323.552889 237.849807 
L 325.594353 245.53998 
L 327.635816 244.804937 
L 329.67728 249.344238 
L 331.718743 250.767905 
L 333.760207 250.965425 
L 335.80167 250.875269 
L 337.843133 253.331323 
L 339.884597 254.672266 
L 341.92606 262.493423 
L 343.967524 258.309417 
L 346.008987 265.085007 
L 348.05045 263.386082 
L 350.091914 262.301344 
L 352.133377 264.934157 
L 354.174841 267.25239 
L 356.216304 263.908451 
L 358.257768 265.261472 
L 360.299231 265.146108 
L 362.340694 268.666666 
L 364.382158 266.557567 
L 366.423621 265.420584 
L 368.465085 266.205174 
L 370.506548 267.696096 
L 372.548011 266.465035 
L 374.589475 264.302651 
L 376.630938 264.91796 
L 378.672402 261.772654 
L 380.713865 261.619982 
L 382.755328 265.637335 
L 384.796792 264.870422 
L 386.838255 261.80083 
L 388.879719 260.617816 
L 390.921182 260.32859 
L 392.962646 256.986683 
L 395.004109 257.023932 
L 397.045572 256.365605 
L 399.087036 255.120696 
L 401.128499 253.702825 
L 403.169963 251.319884 
L 405.211426 251.625634 
L 407.252889 249.782796 
L 409.294353 248.825318 
L 411.335816 247.510898 
L 413.37728 246.883026 
L 415.418743 244.88836 
L 417.460207 241.845627 
L 419.50167 241.069001 
L 421.543133 238.494243 
L 423.584597 235.088574 
L 425.62606 236.507837 
L 427.667524 232.131118 
L 429.708987 233.141805 
L 431.75045 231.874455 
L 433.791914 231.61965 
L 435.833377 228.688258 
L 437.874841 228.039361 
L 439.916304 227.238035 
L 441.957768 223.788359 
L 443.999231 224.144896 
L 446.040694 223.500338 
L 448.082158 223.019442 
L 450.123621 221.241939 
L 452.165085 221.60031 
L 454.206548 219.815982 
L 456.248011 218.126606 
L 458.289475 215.63372 
L 460.330938 214.676918 
L 462.372402 213.97814 
L 464.413865 212.208617 
L 466.455328 212.241407 
L 468.496792 211.29291 
L 470.538255 209.730786 
L 472.579719 209.618708 
L 474.621182 207.892567 
L 476.662646 209.05668 
L 478.704109 207.82729 
L 480.745572 207.75437 
L 482.787036 205.680075 
L 484.828499 202.901353 
L 486.869963 205.067611 
L 488.911426 204.898072 
L 490.952889 203.941287 
L 492.994353 202.96031 
L 495.035816 201.0286 
L 497.07728 200.543366 
L 499.118743 199.463797 
L 501.160207 199.56604 
L 503.20167 199.133849 
L 505.243133 197.319656 
L 507.284597 194.766073 
L 509.32606 197.992962 
L 511.367524 197.1775 
L 513.408987 195.006391 
L 515.45045 196.326516 
L 517.491914 192.472253 
L 519.533377 192.900476 
L 521.574841 193.101721 
L 523.616304 190.466622 
L 525.657768 194.820194 
L 527.699231 190.3413 
L 529.740694 188.030244 
L 531.782158 190.837847 
L 533.823621 191.533719 
L 535.865085 190.034078 
L 537.906548 191.050977 
L 539.948011 188.908477 
L 541.989475 192.730163 
L 544.030938 190.588269 
L 546.072402 191.252831 
L 548.113865 188.399812 
L 550.155328 185.815174 
L 552.196792 188.708677 
L 554.238255 194.031087 
L 556.279719 187.553617 
L 558.321182 187.699358 
L 560.362646 185.146247 
L 562.404109 186.05072 
L 564.445572 185.533233 
L 566.487036 183.878853 
L 568.528499 183.139524 
L 570.569963 185.638608 
L 572.611426 184.063264 
L 574.652889 186.3505 
L 576.694353 186.654585 
L 578.735816 179.378054 
L 580.77728 182.203616 
L 582.818743 182.347433 
L 584.860207 182.76435 
L 586.90167 183.143795 
L 588.943133 187.671567 
L 590.984597 189.466126 
L 593.02606 189.245665 
L 595.067524 194.283039 
L 597.108987 202.635981 
L 599.15045 192.724829 
L 601.191914 192.645718 
L 603.233377 192.901159 
L 605.274841 196.256892 
L 607.316304 197.070511 
L 609.357768 197.107526 
L 611.399231 204.348935 
L 613.440694 207.055313 
L 615.482158 198.94483 
L 617.523621 206.388781 
L 619.565085 202.786553 
L 621.606548 200.555326 
L 623.648011 209.56885 
L 625.689475 207.805099 
L 627.730938 213.621536 
L 629.772402 211.862218 
L 631.813865 207.943784 
L 633.855328 211.570902 
L 635.896792 211.561369 
L 637.938255 215.120703 
L 639.979719 212.849793 
L 642.021182 218.711501 
L 644.062646 214.443647 
L 646.104109 217.517838 
L 648.145572 216.842252 
L 650.187036 220.227213 
L 652.228499 214.663624 
L 654.269963 220.538035 
L 656.311426 220.170974 
L 658.352889 224.172381 
L 660.394353 226.264629 
L 662.435816 226.24258 
L 664.47728 225.166411 
L 666.518743 227.737989 
L 668.560207 229.649144 
L 670.60167 227.885851 
L 672.643133 227.20169 
L 674.684597 229.448678 
L 676.72606 231.490168 
L 678.767524 227.864904 
L 680.808987 225.763128 
L 682.85045 233.953613 
L 684.891914 237.671877 
L 686.933377 229.237446 
L 688.974841 231.69056 
L 691.016304 232.909752 
L 693.057768 233.490809 
L 695.099231 237.696903 
L 697.140694 237.149439 
L 699.182158 235.420347 
L 701.223621 237.260116 
L 703.265085 237.768927 
L 705.306548 233.254117 
L 707.348011 235.565251 
L 709.389475 234.172704 
L 711.430938 240.476609 
L 713.472402 248.246849 
L 715.513865 247.207378 
L 717.555328 241.144411 
L 719.596792 240.548584 
L 721.638255 241.453928 
L 723.679719 241.826459 
L 725.721182 247.647593 
L 727.762646 240.443907 
L 729.804109 248.204492 
L 731.845572 254.469279 
L 733.887036 249.432463 
L 735.928499 257.468363 
L 737.969963 252.634307 
L 740.011426 257.080363 
L 742.052889 254.37419 
L 744.094353 256.653926 
L 746.135816 261.052074 
L 748.17728 260.92303 
L 750.218743 262.394961 
L 752.260207 262.905599 
L 754.30167 263.534206 
L 756.343133 253.357238 
L 758.384597 266.876254 
L 760.42606 272.554989 
L 762.467524 267.439849 
L 764.508987 272.482183 
L 766.55045 273.753492 
L 768.591914 271.189622 
L 770.633377 276.875183 
L 772.674841 280.768402 
L 774.716304 278.863065 
L 776.757768 280.542243 
L 778.799231 281.603113 
L 780.840694 283.184101 
L 782.882158 287.601179 
L 784.923621 279.415159 
L 786.965085 290.225547 
L 789.006548 290.785108 
L 791.048011 291.553993 
L 793.089475 285.339502 
L 795.130938 293.613882 
L 797.172402 299.22991 
L 799.213865 294.182301 
L 801.255328 295.122047 
L 803.296792 302.851012 
L 805.338255 290.299636 
L 807.379719 302.671776 
L 809.421182 295.491688 
L 811.462646 306.364415 
L 813.504109 301.776671 
L 815.545572 306.701097 
L 817.587036 308.511133 
L 819.628499 310.913364 
L 821.669963 311.948049 
L 823.711426 309.559035 
L 825.752889 310.040613 
L 827.794353 311.874832 
L 829.835816 317.1012 
L 831.87728 316.939424 
L 833.918743 317.231952 
L 835.960207 320.608238 
L 838.00167 321.275922 
L 840.043133 319.383437 
L 842.084597 320.193055 
L 844.12606 325.058364 
L 846.167524 326.164783 
L 848.208987 327.711836 
L 850.25045 324.590602 
L 852.291914 319.699005 
L 854.333377 325.95467 
L 856.374841 324.549199 
L 858.416304 326.510039 
L 860.457768 329.424693 
L 862.499231 326.565914 
L 864.540694 331.070771 
L 866.582158 328.443076 
L 868.623621 328.327589 
L 870.665085 328.414789 
L 872.706548 332.350474 
L 874.748011 331.682149 
L 876.789475 331.59872 
L 878.830938 329.182434 
L 880.872402 330.815486 
L 882.913865 331.622564 
L 884.955328 331.062979 
L 886.996792 333.639397 
L 889.038255 333.243519 
L 891.079719 334.747131 
L 893.121182 336.398996 
L 895.162646 336.4001 
L 897.204109 335.01884 
L 899.245572 335.484907 
L 901.287036 334.623702 
L 903.328499 335.823521 
L 905.369963 336.092191 
L 907.411426 334.399368 
L 909.452889 336.274708 
L 911.494353 327.939194 
L 913.535816 336.062425 
L 915.57728 339.028217 
L 917.618743 335.606011 
L 919.660207 335.466002 
L 921.70167 338.38509 
L 923.743133 338.319027 
L 925.784597 335.224095 
L 927.82606 334.823195 
L 929.867524 336.566404 
L 931.908987 335.675839 
L 933.95045 339.153943 
L 935.991914 337.655851 
L 938.033377 340.018762 
L 940.074841 335.982075 
L 940.074841 283.731776 
L 940.074841 283.731776 
L 938.033377 280.903449 
L 935.991914 276.988948 
L 933.95045 281.202954 
L 931.908987 272.765731 
L 929.867524 274.894147 
L 927.82606 273.544401 
L 925.784597 264.725165 
L 923.743133 275.686312 
L 921.70167 281.456794 
L 919.660207 264.8134 
L 917.618743 271.697432 
L 915.57728 278.28614 
L 913.535816 273.553371 
L 911.494353 219.400713 
L 909.452889 271.400251 
L 907.411426 261.316166 
L 905.369963 271.545891 
L 903.328499 270.509762 
L 901.287036 266.228361 
L 899.245572 266.418621 
L 897.204109 265.160065 
L 895.162646 271.043405 
L 893.121182 271.076831 
L 891.079719 263.050782 
L 889.038255 257.714556 
L 886.996792 262.06202 
L 884.955328 254.454937 
L 882.913865 257.369957 
L 880.872402 252.913424 
L 878.830938 247.255697 
L 876.789475 255.057631 
L 874.748011 255.901861 
L 872.706548 255.913757 
L 870.665085 246.833614 
L 868.623621 244.86172 
L 866.582158 244.467653 
L 864.540694 254.972292 
L 862.499231 240.401536 
L 860.457768 250.223229 
L 858.416304 241.72521 
L 856.374841 235.328645 
L 854.333377 240.612754 
L 852.291914 217.383726 
L 850.25045 238.052113 
L 848.208987 246.585965 
L 846.167524 242.316028 
L 844.12606 240.275398 
L 842.084597 221.68538 
L 840.043133 222.203955 
L 838.00167 228.815943 
L 835.960207 228.352108 
L 833.918743 218.076951 
L 831.87728 218.679177 
L 829.835816 217.827229 
L 827.794353 207.815498 
L 825.752889 199.216362 
L 823.711426 197.402106 
L 821.669963 205.146994 
L 819.628499 203.019757 
L 817.587036 198.657527 
L 815.545572 194.198365 
L 813.504109 179.377673 
L 811.462646 194.505627 
L 809.421182 156.02767 
L 807.379719 182.304285 
L 805.338255 145.673498 
L 803.296792 185.665154 
L 801.255328 163.800749 
L 799.213865 163.53181 
L 797.172402 175.021914 
L 795.130938 161.775588 
L 793.089475 137.491822 
L 791.048011 155.484997 
L 789.006548 155.251702 
L 786.965085 154.661334 
L 784.923621 126.327306 
L 782.882158 140.591564 
L 780.840694 137.329907 
L 778.799231 135.479909 
L 776.757768 132.484206 
L 774.716304 126.666132 
L 772.674841 132.641433 
L 770.633377 122.287428 
L 768.591914 109.31468 
L 766.55045 120.304592 
L 764.508987 111.829178 
L 762.467524 104.280827 
L 760.42606 116.922386 
L 758.384597 103.432227 
L 756.343133 68.591962 
L 754.30167 94.265796 
L 752.260207 93.373685 
L 750.218743 93.558691 
L 748.17728 90.567193 
L 746.135816 90.836071 
L 744.094353 81.441217 
L 742.052889 77.649077 
L 740.011426 85.145226 
L 737.969963 71.45867 
L 735.928499 85.788922 
L 733.887036 66.745428 
L 731.845572 77.979964 
L 729.804109 65.381329 
L 727.762646 49.738107 
L 725.721182 64.515011 
L 723.679719 50.848652 
L 721.638255 52.039693 
L 719.596792 51.682538 
L 717.555328 53.289385 
L 715.513865 66.673985 
L 713.472402 70.060988 
L 711.430938 54.606206 
L 709.389475 38.788277 
L 707.348011 43.632794 
L 705.306548 40.717257 
L 703.265085 51.185108 
L 701.223621 50.495661 
L 699.182158 46.801375 
L 697.140694 52.456797 
L 695.099231 52.440635 
L 693.057768 44.670772 
L 691.016304 46.09504 
L 688.974841 43.36935 
L 686.933377 39.919655 
L 684.891914 58.857341 
L 682.85045 48.918549 
L 680.808987 35.168822 
L 678.767524 42.482321 
L 676.72606 49.082493 
L 674.684597 45.567466 
L 672.643133 42.993093 
L 670.60167 45.938284 
L 668.560207 52.898684 
L 666.518743 46.466391 
L 664.47728 44.448517 
L 662.435816 47.847273 
L 660.394353 44.040883 
L 658.352889 46.004951 
L 656.311426 37.798574 
L 654.269963 41.555494 
L 652.228499 31.434477 
L 650.187036 41.223154 
L 648.145572 37.473764 
L 646.104109 40.627896 
L 644.062646 38.285812 
L 642.021182 44.4817 
L 639.979719 35.481528 
L 637.938255 42.074047 
L 635.896792 36.602511 
L 633.855328 38.334554 
L 631.813865 34.16382 
L 629.772402 37.212622 
L 627.730938 44.5593 
L 625.689475 38.525641 
L 623.648011 40.66427 
L 621.606548 28.26251 
L 619.565085 34.774997 
L 617.523621 38.340233 
L 615.482158 28.912479 
L 613.440694 40.566933 
L 611.399231 41.981191 
L 609.357768 29.941132 
L 607.316304 30.741301 
L 605.274841 30.446777 
L 603.233377 26.522323 
L 601.191914 30.283429 
L 599.15045 29.805149 
L 597.108987 45.272907 
L 595.067524 35.781426 
L 593.02606 28.989345 
L 590.984597 29.957346 
L 588.943133 28.550833 
L 586.90167 24.84 
L 584.860207 27.322362 
L 582.818743 25.158605 
L 580.77728 29.518196 
L 578.735816 26.020434 
L 576.694353 35.404 
L 574.652889 37.509727 
L 572.611426 36.561901 
L 570.569963 39.434282 
L 568.528499 37.23703 
L 566.487036 40.747463 
L 564.445572 43.213585 
L 562.404109 48.166038 
L 560.362646 46.004025 
L 558.321182 51.414356 
L 556.279719 51.52012 
L 554.238255 60.723075 
L 552.196792 56.122597 
L 550.155328 54.10085 
L 548.113865 58.534668 
L 546.072402 61.022655 
L 544.030938 62.019353 
L 541.989475 67.625697 
L 539.948011 64.338959 
L 537.906548 68.338016 
L 535.865085 67.583779 
L 533.823621 69.107954 
L 531.782158 68.480852 
L 529.740694 67.20018 
L 527.699231 71.726436 
L 525.657768 77.500944 
L 523.616304 73.012437 
L 521.574841 76.653287 
L 519.533377 76.032443 
L 517.491914 78.387794 
L 515.45045 82.96061 
L 513.408987 82.286334 
L 511.367524 86.109499 
L 509.32606 87.595562 
L 507.284597 84.670916 
L 505.243133 87.418503 
L 503.20167 90.405669 
L 501.160207 91.895847 
L 499.118743 92.44527 
L 497.07728 94.756516 
L 495.035816 95.143014 
L 492.994353 98.261946 
L 490.952889 99.601909 
L 488.911426 100.814258 
L 486.869963 102.025444 
L 484.828499 98.296208 
L 482.787036 103.806591 
L 480.745572 106.409144 
L 478.704109 106.525033 
L 476.662646 107.345394 
L 474.621182 108.042434 
L 472.579719 110.122858 
L 470.538255 110.331244 
L 468.496792 113.127737 
L 466.455328 114.547305 
L 464.413865 114.723482 
L 462.372402 116.187605 
L 460.330938 117.934382 
L 458.289475 119.729164 
L 456.248011 124.120498 
L 454.206548 125.711271 
L 452.165085 128.236694 
L 450.123621 128.088007 
L 448.082158 130.576133 
L 446.040694 131.532257 
L 443.999231 132.866213 
L 441.957768 131.8242 
L 439.916304 137.843283 
L 437.874841 139.165909 
L 435.833377 140.396844 
L 433.791914 144.40737 
L 431.75045 145.11919 
L 429.708987 147.354936 
L 427.667524 146.751585 
L 425.62606 151.990769 
L 423.584597 151.729319 
L 421.543133 156.837325 
L 419.50167 160.769074 
L 417.460207 162.638542 
L 415.418743 167.325829 
L 413.37728 171.21546 
L 411.335816 172.148962 
L 409.294353 174.9371 
L 407.252889 176.469617 
L 405.211426 179.786806 
L 403.169963 180.142879 
L 401.128499 184.337624 
L 399.087036 187.713802 
L 397.045572 190.103898 
L 395.004109 191.909157 
L 392.962646 193.523332 
L 390.921182 197.888811 
L 388.879719 199.615439 
L 386.838255 202.632926 
L 384.796792 206.634027 
L 382.755328 208.488866 
L 380.713865 206.543013 
L 378.672402 208.174741 
L 376.630938 212.368253 
L 374.589475 213.472226 
L 372.548011 216.522883 
L 370.506548 218.922079 
L 368.465085 218.567068 
L 366.423621 220.067435 
L 364.382158 221.986075 
L 362.340694 224.989993 
L 360.299231 222.680614 
L 358.257768 224.24272 
L 356.216304 224.556489 
L 354.174841 228.478297 
L 352.133377 228.194693 
L 350.091914 226.67828 
L 348.05045 228.723705 
L 346.008987 231.001823 
L 343.967524 226.158119 
L 341.92606 231.03015 
L 339.884597 225.356897 
L 337.843133 225.128772 
L 335.80167 224.099775 
L 333.760207 225.424088 
L 331.718743 226.125107 
L 329.67728 226.555266 
L 327.635816 223.553852 
L 325.594353 226.159592 
L 323.552889 219.055031 
L 321.511426 211.243247 
L 319.469963 213.550604 
L 317.428499 217.448551 
L 315.387036 208.169466 
L 313.345572 209.182972 
L 311.304109 207.223326 
L 309.262646 207.004551 
L 307.221182 193.70845 
L 305.179719 192.237191 
L 303.138255 187.517343 
L 301.096792 176.977348 
L 299.055328 168.827507 
L 297.013865 177.64632 
L 294.972402 173.459284 
L 292.930938 166.358155 
L 290.889475 163.52515 
L 288.848011 158.520297 
L 286.806548 151.880173 
L 284.765085 154.821889 
L 282.723621 142.962433 
L 280.682158 137.126769 
L 278.640694 134.601534 
L 276.599231 132.522858 
L 274.557768 134.037608 
L 272.516304 131.384729 
L 270.474841 134.229344 
L 268.433377 137.931766 
L 266.391914 132.733467 
L 264.35045 132.704409 
L 262.308987 138.668144 
L 260.267524 140.495941 
L 258.22606 139.066336 
L 256.184597 150.84146 
L 254.143133 143.79926 
L 252.10167 147.20615 
L 250.060207 156.420321 
L 248.018743 154.883857 
L 245.97728 158.816176 
L 243.935816 162.445836 
L 241.894353 166.576016 
L 239.852889 170.562946 
L 237.811426 174.975765 
L 235.769963 179.133213 
L 233.728499 182.70725 
L 231.687036 187.853654 
L 229.645572 189.797387 
L 227.604109 197.470895 
L 225.562646 198.692683 
L 223.521182 203.014014 
L 221.479719 207.900244 
L 219.438255 211.786048 
L 217.396792 216.507663 
L 215.355328 220.1535 
L 213.313865 225.243666 
L 211.272402 228.689028 
L 209.230938 232.849957 
L 207.189475 237.215595 
L 205.148011 241.738748 
L 203.106548 244.938486 
L 201.065085 249.393128 
L 199.023621 252.515566 
L 196.982158 257.029322 
L 194.940694 260.625357 
L 192.899231 264.479045 
L 190.857768 268.222588 
L 188.816304 271.780775 
L 186.774841 274.954988 
L 184.733377 278.798911 
L 182.691914 281.202669 
L 180.65045 285.563129 
L 178.608987 288.838952 
L 176.567524 291.668963 
L 174.52606 295.030841 
L 172.484597 297.915626 
L 170.443133 300.448254 
L 168.40167 303.628917 
L 166.360207 306.971586 
L 164.318743 309.677653 
L 162.27728 312.212789 
L 160.235816 315.217496 
L 158.194353 317.616149 
L 156.152889 320.366818 
L 154.111426 322.699251 
L 152.069963 325.226991 
L 150.028499 327.193834 
L 147.987036 329.898064 
L 145.945572 331.834612 
L 143.904109 334.139724 
L 141.862646 336.759176 
L 139.821182 338.75478 
L 137.779719 339.710687 
L 135.738255 341.81456 
L 133.696792 343.043534 
L 131.655328 344.999801 
L 129.613865 347.380425 
L 127.572402 348.645009 
L 125.530938 349.83096 
L 123.489475 350.507411 
L 121.448011 351.675347 
L 119.406548 352.638837 
L 117.365085 353.632147 
L 115.323621 355.197289 
L 113.282158 356.247741 
L 111.240694 357.445116 
L 109.199231 357.264245 
L 107.157768 358.194764 
L 105.116304 357.519008 
L 103.074841 359.024365 
L 101.033377 359.671126 
L 98.991914 360.489419 
L 96.95045 358.491188 
L 94.908987 361.328037 
L 92.867524 361.280494 
L 90.82606 359.942086 
L 88.784597 359.643604 
L 86.743133 361.101027 
L 84.70167 363.403173 
L 82.660207 362.646985 
L 80.618743 362.675574 
L 78.57728 360.441727 
L 76.535816 360.877624 
L 74.494353 361.099329 
L 72.452889 362.403259 
L 70.411426 361.939759 
L 68.369963 361.625122 
L 66.328499 361.765442 
L 64.287036 362.505426 
L 62.245572 362.413618 
L 60.204109 362.695296 
L 58.162646 363.440139 
L 56.121182 362.770784 
L 54.079719 363.929182 
L 52.038255 364.002616 
L 49.996792 364.048929 
L 47.955328 364.793951 
L 45.913865 364.913406 
L 43.872402 365.587669 
L 41.830938 366.397167 
L 39.789475 366.311163 
L 37.748011 365.758142 
L 35.706548 365.581671 
L 33.665085 367.319291 
L 31.623621 366.818194 
L 29.582158 368.018356 
L 27.540694 367.94226 
L 25.499231 367.112245 
L 23.457768 368.618352 
L 21.416304 366.953224 
L 19.374841 366.769339 
L 17.333377 368.492767 
L 15.291914 366.751797 
L 13.25045 368.31946 
L 11.208987 368.818202 
L 9.167524 366.838356 
L 7.12606 361.123028 
L 5.084597 364.287445 
L 3.043133 362.444034 
L 1.00167 353.472175 
L -1.039793 360.565168 
L -3.081257 361.62738 
L -5.12272 353.390589 
L -7.164184 351.091344 
L -9.205647 354.743978 
L -11.247111 346.031807 
L -13.288574 331.553269 
L -15.330037 346.91695 
L -17.371501 353.019167 
L -19.412964 355.686455 
L -21.454428 335.5603 
L -23.495891 336.061442 
L -25.537354 326.170831 
L -27.578818 318.569508 
L -29.620281 333.040059 
L -31.661745 326.279141 
L -33.703208 312.804354 
L -35.744672 303.311978 
L -37.786135 303.463935 
L -39.827598 304.612477 
L -41.869062 302.257226 
L -43.910525 300.674589 
L -45.951989 305.374053 
L -47.993452 304.317421 
L -50.034915 300.460618 
L -52.076379 302.047379 
L -54.117842 300.172357 
L -56.159306 299.154559 
L -58.200769 298.783364 
L -60.242232 300.362646 
L -62.283696 301.08852 
L -64.325159 301.32413 
L -66.366623 302.594116 
L -68.408086 302.949838 
L -70.44955 303.914772 
L -72.491013 305.740312 
L -74.532476 307.040387 
L -76.57394 307.840214 
L -78.615403 308.770585 
L -80.656867 310.168142 
L -82.69833 310.897197 
L -84.739793 312.243535 
L -86.781257 313.9632 
L -88.82272 314.892721 
L -90.864184 315.378498 
L -92.905647 316.343026 
L -94.947111 317.333586 
L -96.988574 318.256463 
L -99.030037 319.137474 
L -101.071501 319.98128 
L -103.112964 321.260026 
L -105.154428 321.794441 
L -107.195891 322.692663 
L -109.237354 323.639802 
L -111.278818 324.427724 
L -113.320281 325.183479 
L -115.361745 325.781716 
L -117.403208 326.44688 
L -119.444672 327.441942 
L -121.486135 328.067058 
L -123.527598 328.844433 
L -125.569062 329.438541 
L -127.610525 330.145764 
L -129.651989 330.87477 
L -131.693452 331.614775 
L -133.734915 332.222624 
L -135.776379 332.96785 
L -137.817842 333.615394 
L -139.859306 334.318439 
L -141.900769 334.963643 
L -143.942232 335.646054 
L -145.983696 336.269248 
L -148.025159 336.947392 
L -150.066623 337.687639 
L -152.108086 338.231878 
L -154.14955 338.937027 
L -156.191013 339.534874 
L -158.232476 340.243085 
L -160.27394 340.740894 
L -162.315403 341.397233 
L -164.356867 342.020306 
L -166.39833 342.611021 
L -168.439793 343.214419 
L -170.481257 343.76764 
L -172.52272 344.425323 
L -174.564184 345.009731 
L -176.605647 345.477757 
L -178.647111 346.046679 
L -180.688574 346.613353 
L -182.730037 347.175175 
L -184.771501 347.71248 
L -186.812964 348.205628 
L -188.854428 348.754082 
L -190.895891 349.28716 
L -192.937354 349.820277 
L -194.978818 350.347961 
L -197.020281 350.889129 
L -199.061745 351.452119 
L -201.103208 351.919852 
L -203.144672 352.467286 
L -205.186135 352.99912 
L -207.227598 353.502288 
L -209.269062 354.022236 
L -211.310525 354.552554 
L -213.351989 355.060985 
L -215.393452 355.598208 
L -217.434915 356.074863 
L -219.476379 356.561355 
L -221.517842 357.080674 
L -223.559306 357.57544 
L -225.600769 358.035669 
L -227.642232 358.52841 
L -229.683696 358.963539 
L -231.725159 359.435992 
L -233.766623 359.946062 
L -235.808086 360.359963 
L -237.84955 360.838523 
L -239.891013 361.280535 
L -241.932476 361.749062 
L -243.97394 362.155321 
L -246.015403 362.655604 
L -248.056867 363.039357 
L -250.09833 363.48872 
L -252.139793 363.923316 
L -254.181257 364.372429 
L -256.22272 364.790186 
L -258.264184 365.21468 
L -260.305647 365.606969 
L -262.347111 366.024203 
L -264.388574 366.40083 
L -266.430037 366.754143 
L -268.471501 367.12192 
L -270.512964 367.496163 
L -272.554428 367.854936 
L -274.595891 368.226007 
L -276.637354 368.594043 
L -278.678818 368.941717 
L -280.720281 369.299048 
L -282.761745 369.657524 
L -284.803208 369.97419 
L -286.844672 370.302951 
L -288.886135 370.656451 
L -290.927598 370.988591 
L -292.969062 371.276408 
L -295.010525 371.611525 
L -297.051989 371.912082 
L -299.093452 372.18482 
L -301.134915 372.462882 
L -303.176379 372.720976 
L -305.217842 373.012295 
L -307.259306 373.240962 
L -309.300769 373.492556 
L -311.342232 373.728835 
L -313.383696 373.946125 
L -315.425159 374.141359 
L -317.466623 374.316024 
L -319.508086 374.492914 
L -321.54955 374.671218 
L -323.591013 374.811237 
L -325.632476 374.977943 
L -327.67394 375.113194 
L -329.715403 375.224897 
L -331.756867 375.367398 
L -333.79833 375.488147 
L -335.839793 375.581987 
L -337.881257 375.68794 
L -339.92272 375.791405 
L -341.964184 375.878791 
L -344.005647 375.968041 
L -346.047111 376.036297 
L -348.088574 376.127826 
L -350.130037 376.194039 
L -352.171501 376.266439 
L -354.212964 376.344994 
L -356.254428 376.4035 
L -358.295891 376.468242 
L -360.337354 376.5638 
L -362.378818 376.6224 
L -364.420281 376.702003 
L -366.461745 376.759146 
L -368.503208 376.846085 
L -370.544672 376.909301 
L -372.586135 376.97857 
L -374.627598 377.036458 
L -376.669062 377.087715 
L -378.710525 377.151609 
L -380.751989 377.227262 
L -382.793452 377.302593 
L -384.834915 377.365776 
L -386.876379 377.411809 
L -388.917842 377.491404 
L -390.959306 377.551699 
L -393.000769 377.629321 
z
" clip-path="url(#pb111f00b19)" style="fill: #008000; fill-opacity: 0.3; stroke: #008000; stroke-opacity: 0.3"/>
   </g>
   <g id="matplotlib.axis_1">
    <g id="xtick_1">
     <g id="line2d_1">
      <defs>
       <path id="mcedcb273f8" d="M 0 0 
L 0 3.5 
" style="stroke: #000000; stroke-width: 0.8"/>
      </defs>
      <g>
       <use xlink:href="#mcedcb273f8" x="103.074841" y="395.28" style="stroke: #000000; stroke-width: 0.8"/>
      </g>
     </g>
     <g id="text_1">
      <!-- 2022-03-01 -->
      <g transform="translate(17.945813 495.213718) rotate(-45) scale(0.2 -0.2)">
       <defs>
        <path id="DejaVuSans-32" d="M 1228 531 
L 3431 531 
L 3431 0 
L 469 0 
L 469 531 
Q 828 903 1448 1529 
Q 2069 2156 2228 2338 
Q 2531 2678 2651 2914 
Q 2772 3150 2772 3378 
Q 2772 3750 2511 3984 
Q 2250 4219 1831 4219 
Q 1534 4219 1204 4116 
Q 875 4013 500 3803 
L 500 4441 
Q 881 4594 1212 4672 
Q 1544 4750 1819 4750 
Q 2544 4750 2975 4387 
Q 3406 4025 3406 3419 
Q 3406 3131 3298 2873 
Q 3191 2616 2906 2266 
Q 2828 2175 2409 1742 
Q 1991 1309 1228 531 
z
" transform="scale(0.015625)"/>
        <path id="DejaVuSans-30" d="M 2034 4250 
Q 1547 4250 1301 3770 
Q 1056 3291 1056 2328 
Q 1056 1369 1301 889 
Q 1547 409 2034 409 
Q 2525 409 2770 889 
Q 3016 1369 3016 2328 
Q 3016 3291 2770 3770 
Q 2525 4250 2034 4250 
z
M 2034 4750 
Q 2819 4750 3233 4129 
Q 3647 3509 3647 2328 
Q 3647 1150 3233 529 
Q 2819 -91 2034 -91 
Q 1250 -91 836 529 
Q 422 1150 422 2328 
Q 422 3509 836 4129 
Q 1250 4750 2034 4750 
z
" transform="scale(0.015625)"/>
        <path id="DejaVuSans-2d" d="M 313 2009 
L 1997 2009 
L 1997 1497 
L 313 1497 
L 313 2009 
z
" transform="scale(0.015625)"/>
        <path id="DejaVuSans-33" d="M 2597 2516 
Q 3050 2419 3304 2112 
Q 3559 1806 3559 1356 
Q 3559 666 3084 287 
Q 2609 -91 1734 -91 
Q 1441 -91 1130 -33 
Q 819 25 488 141 
L 488 750 
Q 750 597 1062 519 
Q 1375 441 1716 441 
Q 2309 441 2620 675 
Q 2931 909 2931 1356 
Q 2931 1769 2642 2001 
Q 2353 2234 1838 2234 
L 1294 2234 
L 1294 2753 
L 1863 2753 
Q 2328 2753 2575 2939 
Q 2822 3125 2822 3475 
Q 2822 3834 2567 4026 
Q 2313 4219 1838 4219 
Q 1578 4219 1281 4162 
Q 984 4106 628 3988 
L 628 4550 
Q 988 4650 1302 4700 
Q 1616 4750 1894 4750 
Q 2613 4750 3031 4423 
Q 3450 4097 3450 3541 
Q 3450 3153 3228 2886 
Q 3006 2619 2597 2516 
z
" transform="scale(0.015625)"/>
        <path id="DejaVuSans-31" d="M 794 531 
L 1825 531 
L 1825 4091 
L 703 3866 
L 703 4441 
L 1819 4666 
L 2450 4666 
L 2450 531 
L 3481 531 
L 3481 0 
L 794 0 
L 794 531 
z
" transform="scale(0.015625)"/>
       </defs>
       <use xlink:href="#DejaVuSans-32"/>
       <use xlink:href="#DejaVuSans-30" x="63.623047"/>
       <use xlink:href="#DejaVuSans-32" x="127.246094"/>
       <use xlink:href="#DejaVuSans-32" x="190.869141"/>
       <use xlink:href="#DejaVuSans-2d" x="254.492188"/>
       <use xlink:href="#DejaVuSans-30" x="290.576172"/>
       <use xlink:href="#DejaVuSans-33" x="354.199219"/>
       <use xlink:href="#DejaVuSans-2d" x="417.822266"/>
       <use xlink:href="#DejaVuSans-30" x="453.90625"/>
       <use xlink:href="#DejaVuSans-31" x="517.529297"/>
      </g>
     </g>
    </g>
    <g id="xtick_2">
     <g id="line2d_2">
      <g>
       <use xlink:href="#mcedcb273f8" x="160.235816" y="395.28" style="stroke: #000000; stroke-width: 0.8"/>
      </g>
     </g>
     <g id="text_2">
      <!-- 2022-03-29 -->
      <g transform="translate(75.106789 495.213718) rotate(-45) scale(0.2 -0.2)">
       <defs>
        <path id="DejaVuSans-39" d="M 703 97 
L 703 672 
Q 941 559 1184 500 
Q 1428 441 1663 441 
Q 2288 441 2617 861 
Q 2947 1281 2994 2138 
Q 2813 1869 2534 1725 
Q 2256 1581 1919 1581 
Q 1219 1581 811 2004 
Q 403 2428 403 3163 
Q 403 3881 828 4315 
Q 1253 4750 1959 4750 
Q 2769 4750 3195 4129 
Q 3622 3509 3622 2328 
Q 3622 1225 3098 567 
Q 2575 -91 1691 -91 
Q 1453 -91 1209 -44 
Q 966 3 703 97 
z
M 1959 2075 
Q 2384 2075 2632 2365 
Q 2881 2656 2881 3163 
Q 2881 3666 2632 3958 
Q 2384 4250 1959 4250 
Q 1534 4250 1286 3958 
Q 1038 3666 1038 3163 
Q 1038 2656 1286 2365 
Q 1534 2075 1959 2075 
z
" transform="scale(0.015625)"/>
       </defs>
       <use xlink:href="#DejaVuSans-32"/>
       <use xlink:href="#DejaVuSans-30" x="63.623047"/>
       <use xlink:href="#DejaVuSans-32" x="127.246094"/>
       <use xlink:href="#DejaVuSans-32" x="190.869141"/>
       <use xlink:href="#DejaVuSans-2d" x="254.492188"/>
       <use xlink:href="#DejaVuSans-30" x="290.576172"/>
       <use xlink:href="#DejaVuSans-33" x="354.199219"/>
       <use xlink:href="#DejaVuSans-2d" x="417.822266"/>
       <use xlink:href="#DejaVuSans-32" x="453.90625"/>
       <use xlink:href="#DejaVuSans-39" x="517.529297"/>
      </g>
     </g>
    </g>
    <g id="xtick_3">
     <g id="line2d_3">
      <g>
       <use xlink:href="#mcedcb273f8" x="217.396792" y="395.28" style="stroke: #000000; stroke-width: 0.8"/>
      </g>
     </g>
     <g id="text_3">
      <!-- 2022-04-26 -->
      <g transform="translate(132.267765 495.213718) rotate(-45) scale(0.2 -0.2)">
       <defs>
        <path id="DejaVuSans-34" d="M 2419 4116 
L 825 1625 
L 2419 1625 
L 2419 4116 
z
M 2253 4666 
L 3047 4666 
L 3047 1625 
L 3713 1625 
L 3713 1100 
L 3047 1100 
L 3047 0 
L 2419 0 
L 2419 1100 
L 313 1100 
L 313 1709 
L 2253 4666 
z
" transform="scale(0.015625)"/>
        <path id="DejaVuSans-36" d="M 2113 2584 
Q 1688 2584 1439 2293 
Q 1191 2003 1191 1497 
Q 1191 994 1439 701 
Q 1688 409 2113 409 
Q 2538 409 2786 701 
Q 3034 994 3034 1497 
Q 3034 2003 2786 2293 
Q 2538 2584 2113 2584 
z
M 3366 4563 
L 3366 3988 
Q 3128 4100 2886 4159 
Q 2644 4219 2406 4219 
Q 1781 4219 1451 3797 
Q 1122 3375 1075 2522 
Q 1259 2794 1537 2939 
Q 1816 3084 2150 3084 
Q 2853 3084 3261 2657 
Q 3669 2231 3669 1497 
Q 3669 778 3244 343 
Q 2819 -91 2113 -91 
Q 1303 -91 875 529 
Q 447 1150 447 2328 
Q 447 3434 972 4092 
Q 1497 4750 2381 4750 
Q 2619 4750 2861 4703 
Q 3103 4656 3366 4563 
z
" transform="scale(0.015625)"/>
       </defs>
       <use xlink:href="#DejaVuSans-32"/>
       <use xlink:href="#DejaVuSans-30" x="63.623047"/>
       <use xlink:href="#DejaVuSans-32" x="127.246094"/>
       <use xlink:href="#DejaVuSans-32" x="190.869141"/>
       <use xlink:href="#DejaVuSans-2d" x="254.492188"/>
       <use xlink:href="#DejaVuSans-30" x="290.576172"/>
       <use xlink:href="#DejaVuSans-34" x="354.199219"/>
       <use xlink:href="#DejaVuSans-2d" x="417.822266"/>
       <use xlink:href="#DejaVuSans-32" x="453.90625"/>
       <use xlink:href="#DejaVuSans-36" x="517.529297"/>
      </g>
     </g>
    </g>
    <g id="xtick_4">
     <g id="line2d_4">
      <g>
       <use xlink:href="#mcedcb273f8" x="274.557768" y="395.28" style="stroke: #000000; stroke-width: 0.8"/>
      </g>
     </g>
     <g id="text_4">
      <!-- 2022-05-24 -->
      <g transform="translate(189.42874 495.213718) rotate(-45) scale(0.2 -0.2)">
       <defs>
        <path id="DejaVuSans-35" d="M 691 4666 
L 3169 4666 
L 3169 4134 
L 1269 4134 
L 1269 2991 
Q 1406 3038 1543 3061 
Q 1681 3084 1819 3084 
Q 2600 3084 3056 2656 
Q 3513 2228 3513 1497 
Q 3513 744 3044 326 
Q 2575 -91 1722 -91 
Q 1428 -91 1123 -41 
Q 819 9 494 109 
L 494 744 
Q 775 591 1075 516 
Q 1375 441 1709 441 
Q 2250 441 2565 725 
Q 2881 1009 2881 1497 
Q 2881 1984 2565 2268 
Q 2250 2553 1709 2553 
Q 1456 2553 1204 2497 
Q 953 2441 691 2322 
L 691 4666 
z
" transform="scale(0.015625)"/>
       </defs>
       <use xlink:href="#DejaVuSans-32"/>
       <use xlink:href="#DejaVuSans-30" x="63.623047"/>
       <use xlink:href="#DejaVuSans-32" x="127.246094"/>
       <use xlink:href="#DejaVuSans-32" x="190.869141"/>
       <use xlink:href="#DejaVuSans-2d" x="254.492188"/>
       <use xlink:href="#DejaVuSans-30" x="290.576172"/>
       <use xlink:href="#DejaVuSans-35" x="354.199219"/>
       <use xlink:href="#DejaVuSans-2d" x="417.822266"/>
       <use xlink:href="#DejaVuSans-32" x="453.90625"/>
       <use xlink:href="#DejaVuSans-34" x="517.529297"/>
      </g>
     </g>
    </g>
    <g id="xtick_5">
     <g id="line2d_5">
      <g>
       <use xlink:href="#mcedcb273f8" x="331.718743" y="395.28" style="stroke: #000000; stroke-width: 0.8"/>
      </g>
     </g>
     <g id="text_5">
      <!-- 2022-06-21 -->
      <g transform="translate(246.589716 495.213718) rotate(-45) scale(0.2 -0.2)">
       <use xlink:href="#DejaVuSans-32"/>
       <use xlink:href="#DejaVuSans-30" x="63.623047"/>
       <use xlink:href="#DejaVuSans-32" x="127.246094"/>
       <use xlink:href="#DejaVuSans-32" x="190.869141"/>
       <use xlink:href="#DejaVuSans-2d" x="254.492188"/>
       <use xlink:href="#DejaVuSans-30" x="290.576172"/>
       <use xlink:href="#DejaVuSans-36" x="354.199219"/>
       <use xlink:href="#DejaVuSans-2d" x="417.822266"/>
       <use xlink:href="#DejaVuSans-32" x="453.90625"/>
       <use xlink:href="#DejaVuSans-31" x="517.529297"/>
      </g>
     </g>
    </g>
    <g id="xtick_6">
     <g id="line2d_6">
      <g>
       <use xlink:href="#mcedcb273f8" x="388.879719" y="395.28" style="stroke: #000000; stroke-width: 0.8"/>
      </g>
     </g>
     <g id="text_6">
      <!-- 2022-07-19 -->
      <g transform="translate(303.750691 495.213718) rotate(-45) scale(0.2 -0.2)">
       <defs>
        <path id="DejaVuSans-37" d="M 525 4666 
L 3525 4666 
L 3525 4397 
L 1831 0 
L 1172 0 
L 2766 4134 
L 525 4134 
L 525 4666 
z
" transform="scale(0.015625)"/>
       </defs>
       <use xlink:href="#DejaVuSans-32"/>
       <use xlink:href="#DejaVuSans-30" x="63.623047"/>
       <use xlink:href="#DejaVuSans-32" x="127.246094"/>
       <use xlink:href="#DejaVuSans-32" x="190.869141"/>
       <use xlink:href="#DejaVuSans-2d" x="254.492188"/>
       <use xlink:href="#DejaVuSans-30" x="290.576172"/>
       <use xlink:href="#DejaVuSans-37" x="354.199219"/>
       <use xlink:href="#DejaVuSans-2d" x="417.822266"/>
       <use xlink:href="#DejaVuSans-31" x="453.90625"/>
       <use xlink:href="#DejaVuSans-39" x="517.529297"/>
      </g>
     </g>
    </g>
    <g id="xtick_7">
     <g id="line2d_7">
      <g>
       <use xlink:href="#mcedcb273f8" x="446.040694" y="395.28" style="stroke: #000000; stroke-width: 0.8"/>
      </g>
     </g>
     <g id="text_7">
      <!-- 2022-08-16 -->
      <g transform="translate(360.911667 495.213718) rotate(-45) scale(0.2 -0.2)">
       <defs>
        <path id="DejaVuSans-38" d="M 2034 2216 
Q 1584 2216 1326 1975 
Q 1069 1734 1069 1313 
Q 1069 891 1326 650 
Q 1584 409 2034 409 
Q 2484 409 2743 651 
Q 3003 894 3003 1313 
Q 3003 1734 2745 1975 
Q 2488 2216 2034 2216 
z
M 1403 2484 
Q 997 2584 770 2862 
Q 544 3141 544 3541 
Q 544 4100 942 4425 
Q 1341 4750 2034 4750 
Q 2731 4750 3128 4425 
Q 3525 4100 3525 3541 
Q 3525 3141 3298 2862 
Q 3072 2584 2669 2484 
Q 3125 2378 3379 2068 
Q 3634 1759 3634 1313 
Q 3634 634 3220 271 
Q 2806 -91 2034 -91 
Q 1263 -91 848 271 
Q 434 634 434 1313 
Q 434 1759 690 2068 
Q 947 2378 1403 2484 
z
M 1172 3481 
Q 1172 3119 1398 2916 
Q 1625 2713 2034 2713 
Q 2441 2713 2670 2916 
Q 2900 3119 2900 3481 
Q 2900 3844 2670 4047 
Q 2441 4250 2034 4250 
Q 1625 4250 1398 4047 
Q 1172 3844 1172 3481 
z
" transform="scale(0.015625)"/>
       </defs>
       <use xlink:href="#DejaVuSans-32"/>
       <use xlink:href="#DejaVuSans-30" x="63.623047"/>
       <use xlink:href="#DejaVuSans-32" x="127.246094"/>
       <use xlink:href="#DejaVuSans-32" x="190.869141"/>
       <use xlink:href="#DejaVuSans-2d" x="254.492188"/>
       <use xlink:href="#DejaVuSans-30" x="290.576172"/>
       <use xlink:href="#DejaVuSans-38" x="354.199219"/>
       <use xlink:href="#DejaVuSans-2d" x="417.822266"/>
       <use xlink:href="#DejaVuSans-31" x="453.90625"/>
       <use xlink:href="#DejaVuSans-36" x="517.529297"/>
      </g>
     </g>
    </g>
    <g id="xtick_8">
     <g id="line2d_8">
      <g>
       <use xlink:href="#mcedcb273f8" x="503.20167" y="395.28" style="stroke: #000000; stroke-width: 0.8"/>
      </g>
     </g>
     <g id="text_8">
      <!-- 2022-09-13 -->
      <g transform="translate(418.072643 495.213718) rotate(-45) scale(0.2 -0.2)">
       <use xlink:href="#DejaVuSans-32"/>
       <use xlink:href="#DejaVuSans-30" x="63.623047"/>
       <use xlink:href="#DejaVuSans-32" x="127.246094"/>
       <use xlink:href="#DejaVuSans-32" x="190.869141"/>
       <use xlink:href="#DejaVuSans-2d" x="254.492188"/>
       <use xlink:href="#DejaVuSans-30" x="290.576172"/>
       <use xlink:href="#DejaVuSans-39" x="354.199219"/>
       <use xlink:href="#DejaVuSans-2d" x="417.822266"/>
       <use xlink:href="#DejaVuSans-31" x="453.90625"/>
       <use xlink:href="#DejaVuSans-33" x="517.529297"/>
      </g>
     </g>
    </g>
    <g id="xtick_9">
     <g id="line2d_9">
      <g>
       <use xlink:href="#mcedcb273f8" x="560.362646" y="395.28" style="stroke: #000000; stroke-width: 0.8"/>
      </g>
     </g>
     <g id="text_9">
      <!-- 2022-10-11 -->
      <g transform="translate(475.233618 495.213718) rotate(-45) scale(0.2 -0.2)">
       <use xlink:href="#DejaVuSans-32"/>
       <use xlink:href="#DejaVuSans-30" x="63.623047"/>
       <use xlink:href="#DejaVuSans-32" x="127.246094"/>
       <use xlink:href="#DejaVuSans-32" x="190.869141"/>
       <use xlink:href="#DejaVuSans-2d" x="254.492188"/>
       <use xlink:href="#DejaVuSans-31" x="290.576172"/>
       <use xlink:href="#DejaVuSans-30" x="354.199219"/>
       <use xlink:href="#DejaVuSans-2d" x="417.822266"/>
       <use xlink:href="#DejaVuSans-31" x="453.90625"/>
       <use xlink:href="#DejaVuSans-31" x="517.529297"/>
      </g>
     </g>
    </g>
    <g id="xtick_10">
     <g id="line2d_10">
      <g>
       <use xlink:href="#mcedcb273f8" x="617.523621" y="395.28" style="stroke: #000000; stroke-width: 0.8"/>
      </g>
     </g>
     <g id="text_10">
      <!-- 2022-11-08 -->
      <g transform="translate(532.394594 495.213718) rotate(-45) scale(0.2 -0.2)">
       <use xlink:href="#DejaVuSans-32"/>
       <use xlink:href="#DejaVuSans-30" x="63.623047"/>
       <use xlink:href="#DejaVuSans-32" x="127.246094"/>
       <use xlink:href="#DejaVuSans-32" x="190.869141"/>
       <use xlink:href="#DejaVuSans-2d" x="254.492188"/>
       <use xlink:href="#DejaVuSans-31" x="290.576172"/>
       <use xlink:href="#DejaVuSans-31" x="354.199219"/>
       <use xlink:href="#DejaVuSans-2d" x="417.822266"/>
       <use xlink:href="#DejaVuSans-30" x="453.90625"/>
       <use xlink:href="#DejaVuSans-38" x="517.529297"/>
      </g>
     </g>
    </g>
    <g id="xtick_11">
     <g id="line2d_11">
      <g>
       <use xlink:href="#mcedcb273f8" x="674.684597" y="395.28" style="stroke: #000000; stroke-width: 0.8"/>
      </g>
     </g>
     <g id="text_11">
      <!-- 2022-12-06 -->
      <g transform="translate(589.555569 495.213718) rotate(-45) scale(0.2 -0.2)">
       <use xlink:href="#DejaVuSans-32"/>
       <use xlink:href="#DejaVuSans-30" x="63.623047"/>
       <use xlink:href="#DejaVuSans-32" x="127.246094"/>
       <use xlink:href="#DejaVuSans-32" x="190.869141"/>
       <use xlink:href="#DejaVuSans-2d" x="254.492188"/>
       <use xlink:href="#DejaVuSans-31" x="290.576172"/>
       <use xlink:href="#DejaVuSans-32" x="354.199219"/>
       <use xlink:href="#DejaVuSans-2d" x="417.822266"/>
       <use xlink:href="#DejaVuSans-30" x="453.90625"/>
       <use xlink:href="#DejaVuSans-36" x="517.529297"/>
      </g>
     </g>
    </g>
    <g id="xtick_12">
     <g id="line2d_12">
      <g>
       <use xlink:href="#mcedcb273f8" x="731.845572" y="395.28" style="stroke: #000000; stroke-width: 0.8"/>
      </g>
     </g>
     <g id="text_12">
      <!-- 2023-01-03 -->
      <g transform="translate(646.716545 495.213718) rotate(-45) scale(0.2 -0.2)">
       <use xlink:href="#DejaVuSans-32"/>
       <use xlink:href="#DejaVuSans-30" x="63.623047"/>
       <use xlink:href="#DejaVuSans-32" x="127.246094"/>
       <use xlink:href="#DejaVuSans-33" x="190.869141"/>
       <use xlink:href="#DejaVuSans-2d" x="254.492188"/>
       <use xlink:href="#DejaVuSans-30" x="290.576172"/>
       <use xlink:href="#DejaVuSans-31" x="354.199219"/>
       <use xlink:href="#DejaVuSans-2d" x="417.822266"/>
       <use xlink:href="#DejaVuSans-30" x="453.90625"/>
       <use xlink:href="#DejaVuSans-33" x="517.529297"/>
      </g>
     </g>
    </g>
    <g id="xtick_13">
     <g id="line2d_13">
      <g>
       <use xlink:href="#mcedcb273f8" x="789.006548" y="395.28" style="stroke: #000000; stroke-width: 0.8"/>
      </g>
     </g>
     <g id="text_13">
      <!-- 2023-01-31 -->
      <g transform="translate(703.877521 495.213718) rotate(-45) scale(0.2 -0.2)">
       <use xlink:href="#DejaVuSans-32"/>
       <use xlink:href="#DejaVuSans-30" x="63.623047"/>
       <use xlink:href="#DejaVuSans-32" x="127.246094"/>
       <use xlink:href="#DejaVuSans-33" x="190.869141"/>
       <use xlink:href="#DejaVuSans-2d" x="254.492188"/>
       <use xlink:href="#DejaVuSans-30" x="290.576172"/>
       <use xlink:href="#DejaVuSans-31" x="354.199219"/>
       <use xlink:href="#DejaVuSans-2d" x="417.822266"/>
       <use xlink:href="#DejaVuSans-33" x="453.90625"/>
       <use xlink:href="#DejaVuSans-31" x="517.529297"/>
      </g>
     </g>
    </g>
    <g id="xtick_14">
     <g id="line2d_14">
      <g>
       <use xlink:href="#mcedcb273f8" x="846.167524" y="395.28" style="stroke: #000000; stroke-width: 0.8"/>
      </g>
     </g>
     <g id="text_14">
      <!-- 2023-02-28 -->
      <g transform="translate(761.038496 495.213718) rotate(-45) scale(0.2 -0.2)">
       <use xlink:href="#DejaVuSans-32"/>
       <use xlink:href="#DejaVuSans-30" x="63.623047"/>
       <use xlink:href="#DejaVuSans-32" x="127.246094"/>
       <use xlink:href="#DejaVuSans-33" x="190.869141"/>
       <use xlink:href="#DejaVuSans-2d" x="254.492188"/>
       <use xlink:href="#DejaVuSans-30" x="290.576172"/>
       <use xlink:href="#DejaVuSans-32" x="354.199219"/>
       <use xlink:href="#DejaVuSans-2d" x="417.822266"/>
       <use xlink:href="#DejaVuSans-32" x="453.90625"/>
       <use xlink:href="#DejaVuSans-38" x="517.529297"/>
      </g>
     </g>
    </g>
    <g id="xtick_15">
     <g id="line2d_15">
      <g>
       <use xlink:href="#mcedcb273f8" x="903.328499" y="395.28" style="stroke: #000000; stroke-width: 0.8"/>
      </g>
     </g>
     <g id="text_15">
      <!-- 2023-03-28 -->
      <g transform="translate(818.199472 495.213718) rotate(-45) scale(0.2 -0.2)">
       <use xlink:href="#DejaVuSans-32"/>
       <use xlink:href="#DejaVuSans-30" x="63.623047"/>
       <use xlink:href="#DejaVuSans-32" x="127.246094"/>
       <use xlink:href="#DejaVuSans-33" x="190.869141"/>
       <use xlink:href="#DejaVuSans-2d" x="254.492188"/>
       <use xlink:href="#DejaVuSans-30" x="290.576172"/>
       <use xlink:href="#DejaVuSans-33" x="354.199219"/>
       <use xlink:href="#DejaVuSans-2d" x="417.822266"/>
       <use xlink:href="#DejaVuSans-32" x="453.90625"/>
       <use xlink:href="#DejaVuSans-38" x="517.529297"/>
      </g>
     </g>
    </g>
    <g id="xtick_16">
     <g id="line2d_16">
      <g>
       <use xlink:href="#mcedcb273f8" x="940.074841" y="395.28" style="stroke: #000000; stroke-width: 0.8"/>
      </g>
     </g>
     <g id="text_16">
      <!-- 2023-04-15 -->
      <g transform="translate(854.945813 495.213718) rotate(-45) scale(0.2 -0.2)">
       <use xlink:href="#DejaVuSans-32"/>
       <use xlink:href="#DejaVuSans-30" x="63.623047"/>
       <use xlink:href="#DejaVuSans-32" x="127.246094"/>
       <use xlink:href="#DejaVuSans-33" x="190.869141"/>
       <use xlink:href="#DejaVuSans-2d" x="254.492188"/>
       <use xlink:href="#DejaVuSans-30" x="290.576172"/>
       <use xlink:href="#DejaVuSans-34" x="354.199219"/>
       <use xlink:href="#DejaVuSans-2d" x="417.822266"/>
       <use xlink:href="#DejaVuSans-31" x="453.90625"/>
       <use xlink:href="#DejaVuSans-35" x="517.529297"/>
      </g>
     </g>
    </g>
   </g>
   <g id="matplotlib.axis_2">
    <g id="ytick_1">
     <g id="line2d_17">
      <defs>
       <path id="m31e8469bd3" d="M 0 0 
L -3.5 0 
" style="stroke: #000000; stroke-width: 0.8"/>
      </defs>
      <g>
       <use xlink:href="#m31e8469bd3" x="103.074841" y="377.704641" style="stroke: #000000; stroke-width: 0.8"/>
      </g>
     </g>
     <g id="text_17">
      <!-- 0.00 -->
      <g transform="translate(51.543591 385.303079) scale(0.2 -0.2)">
       <defs>
        <path id="DejaVuSans-2e" d="M 684 794 
L 1344 794 
L 1344 0 
L 684 0 
L 684 794 
z
" transform="scale(0.015625)"/>
       </defs>
       <use xlink:href="#DejaVuSans-30"/>
       <use xlink:href="#DejaVuSans-2e" x="63.623047"/>
       <use xlink:href="#DejaVuSans-30" x="95.410156"/>
       <use xlink:href="#DejaVuSans-30" x="159.033203"/>
      </g>
     </g>
    </g>
    <g id="ytick_2">
     <g id="line2d_18">
      <g>
       <use xlink:href="#m31e8469bd3" x="103.074841" y="310.149027" style="stroke: #000000; stroke-width: 0.8"/>
      </g>
     </g>
     <g id="text_18">
      <!-- 0.05 -->
      <g transform="translate(51.543591 317.747465) scale(0.2 -0.2)">
       <use xlink:href="#DejaVuSans-30"/>
       <use xlink:href="#DejaVuSans-2e" x="63.623047"/>
       <use xlink:href="#DejaVuSans-30" x="95.410156"/>
       <use xlink:href="#DejaVuSans-35" x="159.033203"/>
      </g>
     </g>
    </g>
    <g id="ytick_3">
     <g id="line2d_19">
      <g>
       <use xlink:href="#m31e8469bd3" x="103.074841" y="242.593413" style="stroke: #000000; stroke-width: 0.8"/>
      </g>
     </g>
     <g id="text_19">
      <!-- 0.10 -->
      <g transform="translate(51.543591 250.19185) scale(0.2 -0.2)">
       <use xlink:href="#DejaVuSans-30"/>
       <use xlink:href="#DejaVuSans-2e" x="63.623047"/>
       <use xlink:href="#DejaVuSans-31" x="95.410156"/>
       <use xlink:href="#DejaVuSans-30" x="159.033203"/>
      </g>
     </g>
    </g>
    <g id="ytick_4">
     <g id="line2d_20">
      <g>
       <use xlink:href="#m31e8469bd3" x="103.074841" y="175.037798" style="stroke: #000000; stroke-width: 0.8"/>
      </g>
     </g>
     <g id="text_20">
      <!-- 0.15 -->
      <g transform="translate(51.543591 182.636236) scale(0.2 -0.2)">
       <use xlink:href="#DejaVuSans-30"/>
       <use xlink:href="#DejaVuSans-2e" x="63.623047"/>
       <use xlink:href="#DejaVuSans-31" x="95.410156"/>
       <use xlink:href="#DejaVuSans-35" x="159.033203"/>
      </g>
     </g>
    </g>
    <g id="ytick_5">
     <g id="line2d_21">
      <g>
       <use xlink:href="#m31e8469bd3" x="103.074841" y="107.482184" style="stroke: #000000; stroke-width: 0.8"/>
      </g>
     </g>
     <g id="text_21">
      <!-- 0.20 -->
      <g transform="translate(51.543591 115.080622) scale(0.2 -0.2)">
       <use xlink:href="#DejaVuSans-30"/>
       <use xlink:href="#DejaVuSans-2e" x="63.623047"/>
       <use xlink:href="#DejaVuSans-32" x="95.410156"/>
       <use xlink:href="#DejaVuSans-30" x="159.033203"/>
      </g>
     </g>
    </g>
    <g id="ytick_6">
     <g id="line2d_22">
      <g>
       <use xlink:href="#m31e8469bd3" x="103.074841" y="39.92657" style="stroke: #000000; stroke-width: 0.8"/>
      </g>
     </g>
     <g id="text_22">
      <!-- 0.25 -->
      <g transform="translate(51.543591 47.525007) scale(0.2 -0.2)">
       <use xlink:href="#DejaVuSans-30"/>
       <use xlink:href="#DejaVuSans-2e" x="63.623047"/>
       <use xlink:href="#DejaVuSans-32" x="95.410156"/>
       <use xlink:href="#DejaVuSans-35" x="159.033203"/>
      </g>
     </g>
    </g>
   </g>
   <g id="line2d_23">
    <path d="M 0 0 
" clip-path="url(#pb111f00b19)" style="fill: none; stroke: #ffa500; stroke-width: 1.5; stroke-linecap: square"/>
   </g>
   <g id="line2d_24">
    <path d="M 103.074841 377.704641 
L 948.274841 377.704641 
" clip-path="url(#pb111f00b19)" style="fill: none; stroke-dasharray: 7.4,3.2; stroke-dashoffset: 0; stroke: #000000; stroke-width: 2"/>
   </g>
   <g id="patch_3">
    <path d="M 103.074841 395.28 
L 103.074841 7.2 
" style="fill: none; stroke: #000000; stroke-width: 0.8; stroke-linejoin: miter; stroke-linecap: square"/>
   </g>
   <g id="patch_4">
    <path d="M 940.074841 395.28 
L 940.074841 7.2 
" style="fill: none; stroke: #000000; stroke-width: 0.8; stroke-linejoin: miter; stroke-linecap: square"/>
   </g>
   <g id="patch_5">
    <path d="M 103.074841 395.28 
L 940.074841 395.28 
" style="fill: none; stroke: #000000; stroke-width: 0.8; stroke-linejoin: miter; stroke-linecap: square"/>
   </g>
   <g id="patch_6">
    <path d="M 103.074841 7.2 
L 940.074841 7.2 
" style="fill: none; stroke: #000000; stroke-width: 0.8; stroke-linejoin: miter; stroke-linecap: square"/>
   </g>
  </g>
 </g>
 <defs>
  <clipPath id="pb111f00b19">
   <rect x="103.074841" y="7.2" width="837" height="388.08"/>
  </clipPath>
 </defs>
</svg>
