<?xml version="1.0" encoding="utf-8" standalone="no"?>
<!DOCTYPE svg PUBLIC "-//W3C//DTD SVG 1.1//EN"
  "http://www.w3.org/Graphics/SVG/1.1/DTD/svg11.dtd">
<svg xmlns:xlink="http://www.w3.org/1999/xlink" width="947.274841pt" height="505.354841pt" viewBox="0 0 947.274841 505.354841" xmlns="http://www.w3.org/2000/svg" version="1.1">
 <metadata>
  <rdf:RDF xmlns:dc="http://purl.org/dc/elements/1.1/" xmlns:cc="http://creativecommons.org/ns#" xmlns:rdf="http://www.w3.org/1999/02/22-rdf-syntax-ns#">
   <cc:Work>
    <dc:type rdf:resource="http://purl.org/dc/dcmitype/StillImage"/>
    <dc:date>2023-11-12T22:44:00.491549</dc:date>
    <dc:format>image/svg+xml</dc:format>
    <dc:creator>
     <cc:Agent>
      <dc:title>Matplotlib v3.7.2, https://matplotlib.org/</dc:title>
     </cc:Agent>
    </dc:creator>
   </cc:Work>
  </rdf:RDF>
 </metadata>
 <defs>
  <style type="text/css">*{stroke-linejoin: round; stroke-linecap: butt}</style>
 </defs>
 <g id="figure_1">
  <g id="patch_1">
   <path d="M 0 505.354841 
L 947.274841 505.354841 
L 947.274841 -0 
L 0 -0 
z
" style="fill: #ffffff"/>
  </g>
  <g id="axes_1">
   <g id="patch_2">
    <path d="M 103.074841 395.28 
L 940.074841 395.28 
L 940.074841 7.2 
L 103.074841 7.2 
z
" style="fill: #ffffff"/>
   </g>
   <g id="PolyCollection_1">
    <path d="M -4315.31939 377.551239 
L -4315.31939 377.57141 
L -4307.271313 377.481544 
L -4299.223236 377.401328 
L -4291.175159 377.29964 
L -4283.127082 377.227821 
L -4275.079005 377.137589 
L -4267.030929 377.033379 
L -4258.982852 376.926713 
L -4250.934775 376.829057 
L -4242.886698 376.741477 
L -4234.838621 376.646083 
L -4226.790544 376.543233 
L -4218.742467 376.446129 
L -4210.69439 376.331159 
L -4202.646313 376.232198 
L -4194.598236 376.119015 
L -4186.550159 376.018818 
L -4178.502082 375.890515 
L -4170.454005 375.780904 
L -4162.405929 375.674168 
L -4154.357852 375.551562 
L -4146.309775 375.431019 
L -4138.261698 375.312138 
L -4130.213621 375.172918 
L -4122.165544 375.047452 
L -4114.117467 374.903993 
L -4106.06939 374.758217 
L -4098.021313 374.598756 
L -4089.973236 374.434535 
L -4081.925159 374.272033 
L -4073.877082 374.087217 
L -4065.829005 373.880678 
L -4057.780929 373.692051 
L -4049.732852 373.48054 
L -4041.684775 373.242082 
L -4033.636698 373.015539 
L -4025.588621 372.7545 
L -4017.540544 372.487688 
L -4009.492467 372.211701 
L -4001.44439 371.920242 
L -3993.396313 371.599767 
L -3985.348236 371.259024 
L -3977.300159 370.898225 
L -3969.252082 370.545401 
L -3961.204005 370.138387 
L -3953.155929 369.74516 
L -3945.107852 369.327593 
L -3937.059775 368.905654 
L -3929.011698 368.454065 
L -3920.963621 367.968525 
L -3912.915544 367.510577 
L -3904.867467 367.007213 
L -3896.81939 366.486709 
L -3888.771313 365.972715 
L -3880.723236 365.460994 
L -3872.675159 364.911383 
L -3864.627082 364.354971 
L -3856.579005 363.797673 
L -3848.530929 363.21937 
L -3840.482852 362.633573 
L -3832.434775 362.04772 
L -3824.386698 361.443926 
L -3816.338621 360.837668 
L -3808.290544 360.23784 
L -3800.242467 359.616408 
L -3792.19439 358.957877 
L -3784.146313 358.315728 
L -3776.098236 357.674196 
L -3768.050159 357.040637 
L -3760.002082 356.385238 
L -3751.954005 355.742599 
L -3743.905929 355.090967 
L -3735.857852 354.492774 
L -3727.809775 353.807866 
L -3719.761698 353.203451 
L -3711.713621 352.55473 
L -3703.665544 351.933656 
L -3695.617467 351.28774 
L -3687.56939 350.703511 
L -3679.521313 350.04765 
L -3671.473236 349.426678 
L -3663.425159 348.83849 
L -3655.377082 348.212959 
L -3647.329005 347.616877 
L -3639.280929 346.998455 
L -3631.232852 346.371005 
L -3623.184775 345.768825 
L -3615.136698 345.177129 
L -3607.088621 344.547545 
L -3599.040544 343.939624 
L -3590.992467 343.320386 
L -3582.94439 342.710244 
L -3574.896313 342.112803 
L -3566.848236 341.502627 
L -3558.800159 340.8883 
L -3550.752082 340.325811 
L -3542.704005 339.703356 
L -3534.655929 339.103782 
L -3526.607852 338.513455 
L -3518.559775 337.923574 
L -3510.511698 337.335929 
L -3502.463621 336.742966 
L -3494.415544 336.173883 
L -3486.367467 335.586736 
L -3478.31939 334.988223 
L -3470.271313 334.384741 
L -3462.223236 333.776282 
L -3454.175159 333.201045 
L -3446.127082 332.577802 
L -3438.079005 331.919564 
L -3430.030929 331.295512 
L -3421.982852 330.642295 
L -3413.934775 329.97996 
L -3405.886698 329.285358 
L -3397.838621 328.579152 
L -3389.790544 327.915102 
L -3381.742467 327.170485 
L -3373.69439 326.456749 
L -3365.646313 325.694991 
L -3357.598236 324.985767 
L -3349.550159 324.168702 
L -3341.502082 323.364256 
L -3333.454005 322.578024 
L -3325.405929 321.778445 
L -3317.357852 320.956012 
L -3309.309775 320.099917 
L -3301.261698 319.288918 
L -3293.213621 318.374794 
L -3285.165544 317.555334 
L -3277.117467 316.614302 
L -3269.06939 315.696976 
L -3261.021313 314.796476 
L -3252.973236 313.925809 
L -3244.925159 312.928314 
L -3236.877082 312.012942 
L -3228.829005 310.881421 
L -3220.780929 309.887518 
L -3212.732852 308.949621 
L -3204.684775 307.904916 
L -3196.636698 306.83363 
L -3188.588621 305.617725 
L -3180.540544 304.536694 
L -3172.492467 303.832809 
L -3164.44439 302.398807 
L -3156.396313 301.369669 
L -3148.348236 300.286961 
L -3140.300159 299.148239 
L -3132.252082 297.941889 
L -3124.204005 296.729456 
L -3116.155929 295.962421 
L -3108.107852 294.762887 
L -3100.059775 292.824683 
L -3092.011698 291.212185 
L -3083.963621 290.178639 
L -3075.915544 288.469209 
L -3067.867467 287.198838 
L -3059.81939 286.010435 
L -3051.771313 284.385934 
L -3043.723236 282.202144 
L -3035.675159 280.827566 
L -3027.627082 280.011296 
L -3019.579005 278.354463 
L -3011.530929 277.66344 
L -3003.482852 276.537105 
L -2995.434775 274.581152 
L -2987.386698 274.492366 
L -2979.338621 274.976086 
L -2971.290544 276.252736 
L -2963.242467 274.35515 
L -2955.19439 277.477946 
L -2947.146313 278.013408 
L -2939.098236 273.324067 
L -2931.050159 274.404737 
L -2923.002082 276.211424 
L -2914.954005 274.864808 
L -2906.905929 274.460403 
L -2898.857852 282.843693 
L -2890.809775 294.835222 
L -2882.761698 300.737848 
L -2874.713621 287.435045 
L -2866.665544 294.093786 
L -2858.617467 302.860725 
L -2850.56939 302.246859 
L -2842.521313 320.212855 
L -2834.473236 317.66221 
L -2826.425159 312.059729 
L -2818.377082 298.302264 
L -2810.329005 311.111005 
L -2802.280929 318.790743 
L -2794.232852 315.499638 
L -2786.184775 317.463619 
L -2778.136698 324.714991 
L -2770.088621 323.687731 
L -2762.040544 317.336725 
L -2753.992467 325.195713 
L -2745.94439 326.707046 
L -2737.896313 323.820591 
L -2729.848236 328.780351 
L -2721.800159 330.547514 
L -2713.752082 329.977683 
L -2705.704005 328.375674 
L -2697.655929 329.94462 
L -2689.607852 328.172166 
L -2681.559775 328.227475 
L -2673.511698 329.703806 
L -2665.463621 328.119766 
L -2657.415544 328.780385 
L -2649.367467 328.707117 
L -2641.31939 327.388523 
L -2633.271313 327.70098 
L -2625.223236 325.840117 
L -2617.175159 325.813807 
L -2609.127082 326.142267 
L -2601.079005 326.009038 
L -2593.030929 324.997449 
L -2584.982852 324.099234 
L -2576.934775 323.728473 
L -2568.886698 322.734455 
L -2560.838621 322.400525 
L -2552.790544 322.030575 
L -2544.742467 320.594728 
L -2536.69439 320.923118 
L -2528.646313 319.875432 
L -2520.598236 319.27104 
L -2512.550159 319.024889 
L -2504.502082 317.967303 
L -2496.454005 317.490136 
L -2488.405929 317.464486 
L -2480.357852 317.599173 
L -2472.309775 316.01983 
L -2464.261698 315.497623 
L -2456.213621 314.769157 
L -2448.165544 316.666775 
L -2440.117467 316.400209 
L -2432.06939 316.932094 
L -2424.021313 314.496654 
L -2415.973236 312.87379 
L -2407.925159 312.966151 
L -2399.877082 314.102942 
L -2391.829005 314.01988 
L -2383.780929 311.129034 
L -2375.732852 312.966282 
L -2367.684775 312.091411 
L -2359.636698 311.39936 
L -2351.588621 309.877742 
L -2343.540544 310.501441 
L -2335.492467 309.58104 
L -2327.44439 309.772033 
L -2319.396313 308.643787 
L -2311.348236 307.672702 
L -2303.300159 306.209461 
L -2295.252082 305.314034 
L -2287.204005 304.460505 
L -2279.155929 303.423926 
L -2271.107852 302.894983 
L -2263.059775 301.897081 
L -2255.011698 300.849861 
L -2246.963621 298.726852 
L -2238.915544 297.01798 
L -2230.867467 296.029701 
L -2222.81939 294.196316 
L -2214.771313 293.509587 
L -2206.723236 291.844954 
L -2198.675159 289.585029 
L -2190.627082 287.633066 
L -2182.579005 286.055708 
L -2174.530929 283.728573 
L -2166.482852 282.141478 
L -2158.434775 280.01935 
L -2150.386698 278.095614 
L -2142.338621 275.779798 
L -2134.290544 273.800768 
L -2126.242467 271.253206 
L -2118.19439 269.160575 
L -2110.146313 266.919482 
L -2102.098236 264.073279 
L -2094.050159 261.392213 
L -2086.002082 259.33158 
L -2077.954005 256.925448 
L -2069.905929 254.068694 
L -2061.857852 251.73163 
L -2053.809775 248.971806 
L -2045.761698 245.185513 
L -2037.713621 243.286625 
L -2029.665544 240.002707 
L -2021.617467 237.358117 
L -2013.56939 234.348493 
L -2005.521313 231.16812 
L -1997.473236 227.880628 
L -1989.425159 224.847037 
L -1981.377082 220.936217 
L -1973.329005 218.359807 
L -1965.280929 214.499518 
L -1957.232852 211.845334 
L -1949.184775 207.913621 
L -1941.136698 204.135523 
L -1933.088621 200.558323 
L -1925.040544 197.665042 
L -1916.992467 193.261057 
L -1908.94439 190.207559 
L -1900.896313 186.233846 
L -1892.848236 182.967684 
L -1884.800159 178.828578 
L -1876.752082 175.177868 
L -1868.704005 174.292727 
L -1860.655929 167.620482 
L -1852.607852 166.113324 
L -1844.559775 161.74702 
L -1836.511698 158.727376 
L -1828.463621 155.206062 
L -1820.415544 151.536441 
L -1812.367467 148.220916 
L -1804.31939 144.895059 
L -1796.271313 141.84423 
L -1788.223236 138.68918 
L -1780.175159 140.105146 
L -1772.127082 132.203939 
L -1764.079005 129.613281 
L -1756.030929 135.518351 
L -1747.982852 125.767373 
L -1739.934775 126.960323 
L -1731.886698 125.523233 
L -1723.838621 120.457961 
L -1715.790544 120.751764 
L -1707.742467 125.29263 
L -1699.69439 122.064105 
L -1691.646313 119.829219 
L -1683.598236 122.734358 
L -1675.550159 121.723622 
L -1667.502082 124.234545 
L -1659.454005 127.265189 
L -1651.405929 133.69959 
L -1643.357852 145.662285 
L -1635.309775 143.52115 
L -1627.261698 150.818097 
L -1619.213621 156.448224 
L -1611.165544 159.966819 
L -1603.117467 167.74505 
L -1595.06939 172.944275 
L -1587.021313 165.13779 
L -1578.973236 174.232166 
L -1570.925159 185.402626 
L -1562.877082 190.969112 
L -1554.829005 193.706468 
L -1546.780929 208.382346 
L -1538.732852 209.883665 
L -1530.684775 214.133536 
L -1522.636698 213.427297 
L -1514.588621 225.844303 
L -1506.540544 222.430282 
L -1498.492467 220.630466 
L -1490.44439 231.26102 
L -1482.396313 238.893668 
L -1474.348236 238.552992 
L -1466.300159 243.190337 
L -1458.252082 244.882577 
L -1450.204005 245.414566 
L -1442.155929 245.670222 
L -1434.107852 248.325481 
L -1426.059775 249.921537 
L -1418.011698 257.629274 
L -1409.963621 254.004896 
L -1401.915544 260.716056 
L -1393.867467 259.430067 
L -1385.81939 258.718551 
L -1377.771313 261.506598 
L -1369.723236 263.995046 
L -1361.675159 261.145153 
L -1353.627082 262.715738 
L -1345.579005 262.899278 
L -1337.530929 266.500186 
L -1329.482852 264.796714 
L -1321.434775 264.006875 
L -1313.386698 265.021563 
L -1305.338621 266.696911 
L -1297.290544 265.810629 
L -1289.242467 264.045648 
L -1281.19439 264.891467 
L -1273.146313 262.196635 
L -1265.098236 262.311974 
L -1257.050159 266.34496 
L -1249.002082 265.879929 
L -1240.954005 263.250771 
L -1232.905929 262.392073 
L -1224.857852 262.37174 
L -1216.809775 259.481564 
L -1208.761698 259.762152 
L -1200.713621 259.390341 
L -1192.665544 258.46485 
L -1184.617467 257.375339 
L -1176.56939 255.377998 
L -1168.521313 255.900216 
L -1160.473236 254.405824 
L -1152.425159 253.740572 
L -1144.377082 252.736357 
L -1136.329005 252.374146 
L -1128.280929 250.725541 
L -1120.232852 248.091787 
L -1112.184775 247.575966 
L -1104.136698 245.369014 
L -1096.088621 242.380188 
L -1088.040544 243.905352 
L -1079.992467 240.002101 
L -1071.94439 241.135424 
L -1063.896313 240.133303 
L -1055.848236 240.073735 
L -1047.800159 237.505605 
L -1039.752082 237.068047 
L -1031.704005 236.484187 
L -1023.655929 233.415569 
L -1015.607852 233.903602 
L -1007.559775 233.450754 
L -999.511698 233.147203 
L -991.463621 231.626726 
L -983.415544 232.099777 
L -975.367467 230.566638 
L -967.31939 229.114112 
L -959.271313 226.90822 
L -951.223236 226.13518 
L -943.175159 225.598141 
L -935.127082 224.056803 
L -927.079005 224.196849 
L -919.030929 223.417152 
L -910.982852 222.06208 
L -902.934775 222.058803 
L -894.886698 220.543681 
L -886.838621 221.724491 
L -878.790544 220.666492 
L -870.742467 220.686296 
L -862.69439 218.835868 
L -854.646313 216.323388 
L -846.598236 218.426771 
L -838.550159 218.345932 
L -830.502082 217.528907 
L -822.454005 216.687362 
L -814.405929 214.9557 
L -806.357852 214.572176 
L -798.309775 213.632657 
L -790.261698 213.793854 
L -782.213621 213.453842 
L -774.165544 211.821896 
L -766.117467 209.498834 
L -758.06939 212.568698 
L -750.021313 211.865622 
L -741.973236 209.897354 
L -733.925159 211.184905 
L -725.877082 207.642628 
L -717.829005 208.094532 
L -709.780929 208.333757 
L -701.732852 205.927151 
L -693.684775 210.037871 
L -685.636698 205.910872 
L -677.588621 203.805587 
L -669.540544 206.474512 
L -661.492467 207.174668 
L -653.44439 205.825972 
L -645.396313 206.824968 
L -637.348236 204.877292 
L -629.300159 208.492811 
L -621.252082 206.545556 
L -613.204005 207.218876 
L -605.155929 204.612007 
L -597.107852 202.257354 
L -589.059775 205.009469 
L -581.011698 210.027171 
L -572.963621 204.044434 
L -564.915544 204.237495 
L -556.867467 201.913815 
L -548.81939 202.809848 
L -540.771313 202.37955 
L -532.723236 200.889451 
L -524.675159 200.253426 
L -516.627082 202.630885 
L -508.579005 201.208513 
L -500.530929 203.386844 
L -492.482852 203.715396 
L -484.434775 196.977585 
L -476.386698 199.652387 
L -468.338621 199.825079 
L -460.290544 200.245691 
L -452.242467 200.627407 
L -444.19439 204.872661 
L -436.146313 206.570342 
L -428.098236 206.386398 
L -420.050159 211.099798 
L -412.002082 218.904778 
L -403.954005 209.683374 
L -395.905929 209.624844 
L -387.857852 209.876173 
L -379.809775 213.017439 
L -371.761698 213.785974 
L -363.713621 213.829254 
L -355.665544 220.587138 
L -347.617467 223.114087 
L -339.56939 215.560896 
L -331.521313 222.500612 
L -323.473236 219.15134 
L -315.425159 217.081215 
L -307.377082 225.489596 
L -299.329005 223.852657 
L -291.280929 229.28177 
L -283.232852 227.650752 
L -275.184775 224.008572 
L -267.136698 227.403514 
L -259.088621 227.409707 
L -251.040544 230.738021 
L -242.992467 228.639836 
L -234.94439 234.118653 
L -226.896313 230.16049 
L -218.848236 233.041962 
L -210.800159 232.433096 
L -202.752082 235.60105 
L -194.704005 230.428935 
L -186.655929 235.912142 
L -178.607852 235.5772 
L -170.559775 239.312516 
L -162.511698 241.269587 
L -154.463621 241.253289 
L -146.415544 240.260942 
L -138.367467 242.655825 
L -130.31939 244.43749 
L -122.271313 242.794673 
L -114.223236 242.163043 
L -106.175159 244.264711 
L -98.127082 246.171042 
L -90.079005 242.799024 
L -82.030929 240.841623 
L -73.982852 248.472539 
L -65.934775 251.92004 
L -57.886698 244.058538 
L -49.838621 246.339615 
L -41.790544 247.472966 
L -33.742467 248.01324 
L -25.69439 251.926908 
L -17.646313 251.404501 
L -9.598236 249.791022 
L -1.550159 251.492563 
L 6.497918 251.946675 
L 14.545995 247.722741 
L 22.594071 249.859212 
L 30.642148 248.55043 
L 38.690225 254.402963 
L 46.738302 261.613008 
L 54.786379 260.599385 
L 62.834456 254.91935 
L 70.882533 254.335689 
L 78.93061 255.153508 
L 86.978687 255.463139 
L 95.026764 260.842331 
L 103.074841 254.101235 
L 111.122918 261.298277 
L 119.170995 267.097946 
L 127.219071 262.364586 
L 135.267148 269.81091 
L 143.315225 265.260088 
L 151.363302 269.350402 
L 159.411379 266.770636 
L 167.459456 268.831856 
L 175.507533 272.873739 
L 183.55561 272.690886 
L 191.603687 273.995455 
L 199.651764 274.405299 
L 207.699841 274.922899 
L 215.747918 265.381824 
L 223.795995 277.930054 
L 231.844071 283.163855 
L 239.892148 278.327508 
L 247.940225 282.968353 
L 255.988302 284.090104 
L 264.036379 281.643272 
L 272.084456 286.886324 
L 280.132533 290.46934 
L 288.18061 288.623583 
L 296.228687 290.125328 
L 304.276764 291.054254 
L 312.324841 292.458306 
L 320.372918 296.51457 
L 328.420995 288.823108 
L 336.469071 298.850898 
L 344.517148 299.32376 
L 352.565225 299.982867 
L 360.613302 294.123068 
L 368.661379 301.77838 
L 376.709456 306.954705 
L 384.757533 302.18165 
L 392.80561 303.003711 
L 400.853687 310.16817 
L 408.901764 298.394116 
L 416.949841 309.88705 
L 424.997918 303.120672 
L 433.045995 313.224954 
L 441.094071 308.911376 
L 449.142148 313.471545 
L 457.190225 315.114987 
L 465.238302 317.293742 
L 473.286379 318.179776 
L 481.334456 315.875556 
L 489.382533 316.289206 
L 497.43061 317.955549 
L 505.478687 322.7765 
L 513.526764 322.575186 
L 521.574841 322.822618 
L 529.622918 325.948333 
L 537.670995 326.524563 
L 545.719071 324.719212 
L 553.767148 325.42448 
L 561.815225 329.949845 
L 569.863302 330.948736 
L 577.911379 332.357274 
L 585.959456 329.449234 
L 594.007533 324.859217 
L 602.05561 330.715257 
L 610.103687 329.416062 
L 618.151764 331.261563 
L 626.199841 333.98661 
L 634.247918 331.313715 
L 642.295995 335.509208 
L 650.344071 333.043401 
L 658.392148 332.952998 
L 666.440225 333.039202 
L 674.488302 336.713842 
L 682.536379 336.101912 
L 690.584456 336.044634 
L 698.632533 333.809737 
L 706.68061 335.356353 
L 714.728687 336.137714 
L 722.776764 335.658519 
L 730.824841 338.094714 
L 738.872918 337.735525 
L 746.920995 339.152438 
L 754.969071 340.699778 
L 763.017148 340.706678 
L 771.065225 339.429225 
L 779.113302 339.876661 
L 787.161379 339.09253 
L 795.209456 340.231997 
L 803.257533 340.504056 
L 811.30561 338.945945 
L 819.353687 340.702065 
L 827.401764 332.914629 
L 835.449841 340.530222 
L 843.497918 343.31678 
L 851.545995 340.133866 
L 859.594071 340.007432 
L 867.642148 342.741681 
L 875.690225 342.682857 
L 883.738302 339.807238 
L 891.786379 339.467717 
L 899.834456 341.116121 
L 907.882533 340.304384 
L 915.93061 343.55617 
L 923.978687 342.156104 
L 932.026764 344.642514 
L 940.074841 341.38979 
L 940.074841 292.981561 
L 940.074841 292.981561 
L 932.026764 289.812288 
L 923.978687 285.889962 
L 915.93061 289.7985 
L 907.882533 281.889125 
L 899.834456 283.83063 
L 891.786379 282.524497 
L 883.738302 274.236971 
L 875.690225 284.433398 
L 867.642148 289.791782 
L 859.594071 274.218252 
L 851.545995 280.612628 
L 843.497918 286.72392 
L 835.449841 282.259328 
L 827.401764 231.639216 
L 819.353687 280.166636 
L 811.30561 270.710538 
L 803.257533 280.209164 
L 795.209456 279.189183 
L 787.161379 275.139608 
L 779.113302 275.26525 
L 771.065225 274.042612 
L 763.017148 279.489943 
L 754.969071 279.475512 
L 746.920995 271.92928 
L 738.872918 266.885611 
L 730.824841 270.884871 
L 722.776764 263.698756 
L 714.728687 266.334026 
L 706.68061 262.095045 
L 698.632533 256.737843 
L 690.584456 263.957339 
L 682.536379 264.677049 
L 674.488302 264.625573 
L 666.440225 256.084888 
L 658.392148 254.180554 
L 650.344071 253.743836 
L 642.295995 263.514614 
L 634.247918 249.844089 
L 626.199841 258.963505 
L 618.151764 250.951022 
L 610.103687 244.893676 
L 602.05561 249.758472 
L 594.007533 227.969253 
L 585.959456 247.247157 
L 577.911379 255.163689 
L 569.863302 251.140186 
L 561.815225 249.196821 
L 553.767148 231.767132 
L 545.719071 232.227334 
L 537.670995 238.375037 
L 529.622918 237.909875 
L 521.574841 228.25294 
L 513.526764 228.768976 
L 505.478687 227.942155 
L 497.43061 218.551875 
L 489.382533 210.471563 
L 481.334456 208.73307 
L 473.286379 215.962112 
L 465.238302 213.955634 
L 457.190225 209.840256 
L 449.142148 205.617492 
L 441.094071 191.69333 
L 433.045995 205.782103 
L 424.997918 169.733634 
L 416.949841 194.276156 
L 408.901764 159.956012 
L 400.853687 197.322949 
L 392.80561 176.808339 
L 384.757533 176.502441 
L 376.709456 187.203871 
L 368.661379 174.75872 
L 360.613302 151.981766 
L 352.565225 168.760213 
L 344.517148 168.478176 
L 336.469071 167.854008 
L 328.420995 141.268228 
L 320.372918 154.548356 
L 312.324841 151.431698 
L 304.276764 149.637618 
L 296.228687 146.76103 
L 288.18061 141.24272 
L 280.132533 146.764647 
L 272.084456 136.982352 
L 264.036379 124.754552 
L 255.988302 134.959611 
L 247.940225 126.942352 
L 239.892148 119.788739 
L 231.844071 131.543652 
L 223.795995 118.818837 
L 215.747918 86.089641 
L 207.699841 110.035821 
L 199.651764 109.109857 
L 191.603687 109.188079 
L 183.55561 106.288014 
L 175.507533 106.435311 
L 167.459456 97.521686 
L 159.411379 93.857302 
L 151.363302 100.761986 
L 143.315225 87.808238 
L 135.267148 101.104087 
L 127.219071 83.113437 
L 119.170995 93.499351 
L 111.122918 81.539296 
L 103.074841 66.717718 
L 95.026764 80.414171 
L 86.978687 67.448167 
L 78.93061 68.404729 
L 70.882533 67.898439 
L 62.834456 69.235471 
L 54.786379 81.623743 
L 46.738302 84.640222 
L 38.690225 69.959064 
L 30.642148 54.923333 
L 22.594071 59.270928 
L 14.545995 56.337005 
L 6.497918 65.966937 
L -1.550159 65.120885 
L -9.598236 61.443876 
L -17.646313 66.539475 
L -25.69439 66.313804 
L -33.742467 58.795139 
L -41.790544 59.909467 
L -49.838621 57.123746 
L -57.886698 53.656976 
L -65.934775 71.234039 
L -73.982852 61.672372 
L -82.030929 48.508255 
L -90.079005 55.147871 
L -98.127082 61.113656 
L -106.175159 57.564037 
L -114.223236 54.894103 
L -122.271313 57.418484 
L -130.31939 63.725535 
L -138.367467 57.424137 
L -146.415544 55.275334 
L -154.463621 58.216008 
L -162.511698 54.373982 
L -170.559775 55.961144 
L -178.607852 47.964983 
L -186.655929 51.236912 
L -194.704005 41.425639 
L -202.752082 50.374499 
L -210.800159 46.558381 
L -218.848236 49.244456 
L -226.896313 46.749096 
L -234.94439 52.304767 
L -242.992467 43.525043 
L -251.040544 49.454528 
L -259.088621 44.002464 
L -267.136698 45.344021 
L -275.184775 41.111406 
L -283.232852 43.697743 
L -291.280929 50.342764 
L -299.329005 44.347516 
L -307.377082 46.071994 
L -315.425159 34.051626 
L -323.473236 39.903483 
L -331.521313 42.970586 
L -339.56939 33.753616 
L -347.617467 44.467943 
L -355.665544 45.496627 
L -363.713621 33.790616 
L -371.761698 34.229432 
L -379.809775 33.628796 
L -387.857852 29.586667 
L -395.905929 32.818969 
L -403.954005 32.034275 
L -412.002082 46.352743 
L -420.050159 37.022389 
L -428.098236 30.245615 
L -436.146313 30.817413 
L -444.19439 29.133337 
L -452.242467 25.2609 
L -460.290544 27.256724 
L -468.338621 24.84 
L -476.386698 28.605673 
L -484.434775 24.911538 
L -492.482852 33.441082 
L -500.530929 35.061432 
L -508.579005 33.779787 
L -516.627082 36.125391 
L -524.675159 33.651373 
L -532.723236 36.595949 
L -540.771313 38.548258 
L -548.81939 42.864051 
L -556.867467 40.411839 
L -564.915544 45.158194 
L -572.963621 44.856589 
L -581.011698 53.213364 
L -589.059775 48.431078 
L -597.107852 46.101269 
L -605.155929 49.917317 
L -613.204005 51.880539 
L -621.252082 52.421641 
L -629.300159 57.358062 
L -637.348236 53.813249 
L -645.396313 57.214796 
L -653.44439 56.080902 
L -661.492467 57.119187 
L -669.540544 56.101802 
L -677.588621 54.458725 
L -685.636698 58.358929 
L -693.684775 63.451575 
L -701.732852 58.738558 
L -709.780929 61.790103 
L -717.829005 60.766771 
L -725.877082 62.587001 
L -733.925159 66.526749 
L -741.973236 65.444514 
L -750.021313 68.664046 
L -758.06939 69.64605 
L -766.117467 66.402314 
L -774.165544 68.588512 
L -782.213621 71.003314 
L -790.261698 71.981639 
L -798.309775 72.055559 
L -806.357852 73.816611 
L -814.405929 73.730066 
L -822.454005 76.263246 
L -830.502082 77.087312 
L -838.550159 77.787072 
L -846.598236 78.484368 
L -854.646313 74.431963 
L -862.69439 79.25589 
L -870.742467 81.283236 
L -878.790544 80.918748 
L -886.838621 81.229495 
L -894.886698 81.418828 
L -902.934775 82.936884 
L -910.982852 82.650051 
L -919.030929 84.853861 
L -927.079005 85.730669 
L -935.127082 85.407466 
L -943.175159 86.323833 
L -951.223236 87.510668 
L -959.271313 88.741133 
L -967.31939 92.47643 
L -975.367467 93.508796 
L -983.415544 95.439168 
L -991.463621 94.786084 
L -999.511698 96.678935 
L -1007.559775 97.089663 
L -1015.607852 97.864184 
L -1023.655929 96.33857 
L -1031.704005 101.642711 
L -1039.752082 102.400072 
L -1047.800159 103.06763 
L -1055.848236 106.425445 
L -1063.896313 106.587538 
L -1071.94439 108.22448 
L -1079.992467 107.108565 
L -1088.040544 111.655144 
L -1096.088621 110.867223 
L -1104.136698 115.288431 
L -1112.184775 118.568204 
L -1120.232852 119.842933 
L -1128.280929 123.853746 
L -1136.329005 127.090376 
L -1144.377082 127.451909 
L -1152.425159 129.617641 
L -1160.473236 130.561012 
L -1168.521313 133.242449 
L -1176.56939 133.04182 
L -1184.617467 136.579596 
L -1192.665544 139.320929 
L -1200.713621 141.102237 
L -1208.761698 142.312996 
L -1216.809775 143.339164 
L -1224.857852 147.050408 
L -1232.905929 148.185823 
L -1240.954005 150.582664 
L -1249.002082 153.941459 
L -1257.050159 155.204549 
L -1265.098236 152.751639 
L -1273.146313 153.836115 
L -1281.19439 157.40819 
L -1289.242467 158.013332 
L -1297.290544 160.505228 
L -1305.338621 162.34375 
L -1313.386698 161.613341 
L -1321.434775 162.777545 
L -1329.482852 164.182804 
L -1337.530929 166.588985 
L -1345.579005 164.152201 
L -1353.627082 165.347465 
L -1361.675159 165.435109 
L -1369.723236 168.752262 
L -1377.771313 168.40822 
L -1385.81939 166.653971 
L -1393.867467 168.419959 
L -1401.915544 170.228606 
L -1409.963621 165.57199 
L -1418.011698 169.887182 
L -1426.059775 164.399477 
L -1434.107852 164.171143 
L -1442.155929 163.08171 
L -1450.204005 164.399066 
L -1458.252082 164.793508 
L -1466.300159 164.137388 
L -1474.348236 161.523379 
L -1482.396313 163.569176 
L -1490.44439 157.435736 
L -1498.492467 151.395226 
L -1506.540544 152.970903 
L -1514.588621 156.264749 
L -1522.636698 148.165146 
L -1530.684775 148.50058 
L -1538.732852 146.6989 
L -1546.780929 146.312787 
L -1554.829005 136.09663 
L -1562.877082 135.401815 
L -1570.925159 131.603546 
L -1578.973236 123.399269 
L -1587.021313 117.702558 
L -1595.06939 124.102507 
L -1603.117467 121.176332 
L -1611.165544 116.073402 
L -1619.213621 113.816466 
L -1627.261698 109.991112 
L -1635.309775 105.038026 
L -1643.357852 107.639517 
L -1651.405929 98.017732 
L -1659.454005 94.731299 
L -1667.502082 92.310891 
L -1675.550159 90.878683 
L -1683.598236 91.947207 
L -1691.646313 89.579534 
L -1699.69439 91.170246 
L -1707.742467 94.649108 
L -1715.790544 91.308006 
L -1723.838621 90.841037 
L -1731.886698 95.673891 
L -1739.934775 96.978838 
L -1747.982852 96.267643 
L -1756.030929 104.766508 
L -1764.079005 100.120689 
L -1772.127082 102.092905 
L -1780.175159 109.809826 
L -1788.223236 108.497806 
L -1796.271313 111.514115 
L -1804.31939 114.407528 
L -1812.367467 117.489681 
L -1820.415544 120.848351 
L -1828.463621 124.357963 
L -1836.511698 127.781634 
L -1844.559775 130.794475 
L -1852.607852 134.704803 
L -1860.655929 136.21869 
L -1868.704005 142.540254 
L -1876.752082 143.452348 
L -1884.800159 147.037391 
L -1892.848236 150.94257 
L -1900.896313 154.083783 
L -1908.94439 157.815511 
L -1916.992467 160.893571 
L -1925.040544 165.035163 
L -1933.088621 167.816422 
L -1941.136698 171.047555 
L -1949.184775 174.704922 
L -1957.232852 178.411069 
L -1965.280929 180.939336 
L -1973.329005 184.525904 
L -1981.377082 187.184493 
L -1989.425159 190.836747 
L -1997.473236 193.81217 
L -2005.521313 196.767394 
L -2013.56939 199.960687 
L -2021.617467 202.860915 
L -2029.665544 205.419733 
L -2037.713621 208.53835 
L -2045.761698 210.437509 
L -2053.809775 214.126194 
L -2061.857852 216.818306 
L -2069.905929 219.261615 
L -2077.954005 222.102874 
L -2086.002082 224.080091 
L -2094.050159 226.663252 
L -2102.098236 229.293418 
L -2110.146313 232.121663 
L -2118.19439 234.422511 
L -2126.242467 236.690788 
L -2134.290544 239.10675 
L -2142.338621 241.44738 
L -2150.386698 243.919336 
L -2158.434775 246.004668 
L -2166.482852 248.218556 
L -2174.530929 250.126783 
L -2182.579005 252.549225 
L -2190.627082 254.449741 
L -2198.675159 256.524662 
L -2206.723236 258.970215 
L -2214.771313 260.825374 
L -2222.81939 261.742475 
L -2230.867467 263.832376 
L -2238.915544 265.15492 
L -2246.963621 267.180033 
L -2255.011698 269.447112 
L -2263.059775 270.856923 
L -2271.107852 272.202842 
L -2279.155929 272.865033 
L -2287.204005 274.238545 
L -2295.252082 275.247369 
L -2303.300159 276.292762 
L -2311.348236 278.013763 
L -2319.396313 279.205372 
L -2327.44439 280.709816 
L -2335.492467 280.5628 
L -2343.540544 281.583152 
L -2351.588621 281.088767 
L -2359.636698 282.975202 
L -2367.684775 283.62561 
L -2375.732852 285.114502 
L -2383.780929 283.27921 
L -2391.829005 286.436987 
L -2399.877082 286.639242 
L -2407.925159 285.491681 
L -2415.973236 285.511728 
L -2424.021313 287.335599 
L -2432.06939 290.182429 
L -2440.117467 289.643313 
L -2448.165544 289.99497 
L -2456.213621 287.93995 
L -2464.261698 288.301412 
L -2472.309775 289.390701 
L -2480.357852 291.264466 
L -2488.405929 291.14556 
L -2496.454005 291.196567 
L -2504.502082 291.784653 
L -2512.550159 293.043303 
L -2520.598236 293.163014 
L -2528.646313 294.0658 
L -2536.69439 295.342882 
L -2544.742467 294.963835 
L -2552.790544 296.653266 
L -2560.838621 297.148488 
L -2568.886698 297.586918 
L -2576.934775 298.731547 
L -2584.982852 299.20442 
L -2593.030929 300.426263 
L -2601.079005 301.729966 
L -2609.127082 301.971077 
L -2617.175159 301.75526 
L -2625.223236 301.654545 
L -2633.271313 304.122908 
L -2641.31939 303.928258 
L -2649.367467 305.641449 
L -2657.415544 305.856091 
L -2665.463621 305.454132 
L -2673.511698 307.136034 
L -2681.559775 305.909124 
L -2689.607852 306.148954 
L -2697.655929 308.22432 
L -2705.704005 307.012548 
L -2713.752082 308.975849 
L -2721.800159 309.71112 
L -2729.848236 308.343803 
L -2737.896313 303.656569 
L -2745.94439 306.900374 
L -2753.992467 305.568811 
L -2762.040544 298.522589 
L -2770.088621 304.80306 
L -2778.136698 306.212673 
L -2786.184775 299.713044 
L -2794.232852 298.045614 
L -2802.280929 301.767146 
L -2810.329005 294.717749 
L -2818.377082 282.600816 
L -2826.425159 296.347792 
L -2834.473236 302.016512 
L -2842.521313 304.92208 
L -2850.56939 287.946995 
L -2858.617467 288.865595 
L -2866.665544 280.815647 
L -2874.713621 274.470139 
L -2882.761698 287.880344 
L -2890.809775 282.529614 
L -2898.857852 270.955986 
L -2906.905929 262.956003 
L -2914.954005 263.76532 
L -2923.002082 265.521483 
L -2931.050159 264.056067 
L -2939.098236 263.323066 
L -2947.146313 268.44289 
L -2955.19439 268.174707 
L -2963.242467 265.367473 
L -2971.290544 267.6132 
L -2979.338621 266.63796 
L -2987.386698 266.479539 
L -2995.434775 266.95165 
L -3003.482852 269.157109 
L -3011.530929 270.623192 
L -3019.579005 271.599612 
L -3027.627082 273.577547 
L -3035.675159 274.661581 
L -3043.723236 276.298123 
L -3051.771313 278.679811 
L -3059.81939 280.669789 
L -3067.867467 282.072354 
L -3075.915544 283.619762 
L -3083.963621 285.527577 
L -3092.011698 286.844062 
L -3100.059775 288.66919 
L -3108.107852 290.824384 
L -3116.155929 292.186667 
L -3124.204005 293.205849 
L -3132.252082 294.594838 
L -3140.300159 296.032264 
L -3148.348236 297.33169 
L -3156.396313 298.571833 
L -3164.44439 299.771701 
L -3172.492467 301.330113 
L -3180.540544 302.236827 
L -3188.588621 303.408074 
L -3196.636698 304.637352 
L -3204.684775 305.705958 
L -3212.732852 306.754307 
L -3220.780929 307.649264 
L -3228.829005 308.611628 
L -3236.877082 309.811393 
L -3244.925159 310.702739 
L -3252.973236 311.711603 
L -3261.021313 312.556368 
L -3269.06939 313.469164 
L -3277.117467 314.403273 
L -3285.165544 315.348073 
L -3293.213621 316.150481 
L -3301.261698 317.077541 
L -3309.309775 317.893932 
L -3317.357852 318.76352 
L -3325.405929 319.582662 
L -3333.454005 320.40801 
L -3341.502082 321.193951 
L -3349.550159 322.011815 
L -3357.598236 322.868572 
L -3365.646313 323.554442 
L -3373.69439 324.361996 
L -3381.742467 325.081229 
L -3389.790544 325.882514 
L -3397.838621 326.516093 
L -3405.886698 327.26539 
L -3413.934775 327.988958 
L -3421.982852 328.672589 
L -3430.030929 329.358581 
L -3438.079005 329.998434 
L -3446.127082 330.726528 
L -3454.175159 331.390515 
L -3462.223236 331.955716 
L -3470.271313 332.60629 
L -3478.31939 333.255537 
L -3486.367467 333.902081 
L -3494.415544 334.529809 
L -3502.463621 335.113387 
L -3510.511698 335.750793 
L -3518.559775 336.378023 
L -3526.607852 337.009931 
L -3534.655929 337.641554 
L -3542.704005 338.290913 
L -3550.752082 338.965947 
L -3558.800159 339.555958 
L -3566.848236 340.226172 
L -3574.896313 340.886405 
L -3582.94439 341.524133 
L -3590.992467 342.182094 
L -3599.040544 342.854044 
L -3607.088621 343.509367 
L -3615.136698 344.195788 
L -3623.184775 344.828838 
L -3631.232852 345.474993 
L -3639.280929 346.155984 
L -3647.329005 346.817723 
L -3655.377082 347.450897 
L -3663.425159 348.118881 
L -3671.473236 348.736801 
L -3679.521313 349.394332 
L -3687.56939 350.091884 
L -3695.617467 350.703356 
L -3703.665544 351.380384 
L -3711.713621 352.027512 
L -3719.761698 352.704046 
L -3727.809775 353.326056 
L -3735.857852 354.040426 
L -3743.905929 354.648467 
L -3751.954005 355.320879 
L -3760.002082 355.981583 
L -3768.050159 356.657445 
L -3776.098236 357.304623 
L -3784.146313 357.962368 
L -3792.19439 358.622379 
L -3800.242467 359.301305 
L -3808.290544 359.93791 
L -3816.338621 360.548737 
L -3824.386698 361.167401 
L -3832.434775 361.784872 
L -3840.482852 362.38227 
L -3848.530929 362.982177 
L -3856.579005 363.573786 
L -3864.627082 364.14171 
L -3872.675159 364.710297 
L -3880.723236 365.272463 
L -3888.771313 365.791804 
L -3896.81939 366.314908 
L -3904.867467 366.848423 
L -3912.915544 367.361244 
L -3920.963621 367.82561 
L -3929.011698 368.322381 
L -3937.059775 368.782404 
L -3945.107852 369.210553 
L -3953.155929 369.635333 
L -3961.204005 370.034674 
L -3969.252082 370.451755 
L -3977.300159 370.809818 
L -3985.348236 371.178469 
L -3993.396313 371.526582 
L -4001.44439 371.853071 
L -4009.492467 372.150444 
L -4017.540544 372.4244 
L -4025.588621 372.692722 
L -4033.636698 372.957229 
L -4041.684775 373.181037 
L -4049.732852 373.425318 
L -4057.780929 373.635987 
L -4065.829005 373.820721 
L -4073.877082 374.030672 
L -4081.925159 374.217014 
L -4089.973236 374.375178 
L -4098.021313 374.541948 
L -4106.06939 374.703956 
L -4114.117467 374.848702 
L -4122.165544 374.993153 
L -4130.213621 375.116109 
L -4138.261698 375.259217 
L -4146.309775 375.377125 
L -4154.357852 375.499395 
L -4162.405929 375.626128 
L -4170.454005 375.732879 
L -4178.502082 375.844274 
L -4186.550159 375.982764 
L -4194.598236 376.085758 
L -4202.646313 376.20644 
L -4210.69439 376.306227 
L -4218.742467 376.430887 
L -4226.790544 376.531865 
L -4234.838621 376.635453 
L -4242.886698 376.730575 
L -4250.934775 376.816323 
L -4258.982852 376.911729 
L -4267.030929 377.011918 
L -4275.079005 377.110635 
L -4283.127082 377.197848 
L -4291.175159 377.272684 
L -4299.223236 377.370924 
L -4307.271313 377.45466 
L -4315.31939 377.551239 
z
" clip-path="url(#pf51ecec249)" style="fill: #008000; fill-opacity: 0.3; stroke: #008000; stroke-opacity: 0.3"/>
   </g>
   <g id="matplotlib.axis_1">
    <g id="xtick_1">
     <g id="line2d_1">
      <defs>
       <path id="mf9d5ef6182" d="M 0 0 
L 0 3.5 
" style="stroke: #000000; stroke-width: 0.8"/>
      </defs>
      <g>
       <use xlink:href="#mf9d5ef6182" x="103.074841" y="395.28" style="stroke: #000000; stroke-width: 0.8"/>
      </g>
     </g>
     <g id="text_1">
      <!-- 2023-01-01 -->
      <g transform="translate(17.945813 495.213718) rotate(-45) scale(0.2 -0.2)">
       <defs>
        <path id="DejaVuSans-32" d="M 1228 531 
L 3431 531 
L 3431 0 
L 469 0 
L 469 531 
Q 828 903 1448 1529 
Q 2069 2156 2228 2338 
Q 2531 2678 2651 2914 
Q 2772 3150 2772 3378 
Q 2772 3750 2511 3984 
Q 2250 4219 1831 4219 
Q 1534 4219 1204 4116 
Q 875 4013 500 3803 
L 500 4441 
Q 881 4594 1212 4672 
Q 1544 4750 1819 4750 
Q 2544 4750 2975 4387 
Q 3406 4025 3406 3419 
Q 3406 3131 3298 2873 
Q 3191 2616 2906 2266 
Q 2828 2175 2409 1742 
Q 1991 1309 1228 531 
z
" transform="scale(0.015625)"/>
        <path id="DejaVuSans-30" d="M 2034 4250 
Q 1547 4250 1301 3770 
Q 1056 3291 1056 2328 
Q 1056 1369 1301 889 
Q 1547 409 2034 409 
Q 2525 409 2770 889 
Q 3016 1369 3016 2328 
Q 3016 3291 2770 3770 
Q 2525 4250 2034 4250 
z
M 2034 4750 
Q 2819 4750 3233 4129 
Q 3647 3509 3647 2328 
Q 3647 1150 3233 529 
Q 2819 -91 2034 -91 
Q 1250 -91 836 529 
Q 422 1150 422 2328 
Q 422 3509 836 4129 
Q 1250 4750 2034 4750 
z
" transform="scale(0.015625)"/>
        <path id="DejaVuSans-33" d="M 2597 2516 
Q 3050 2419 3304 2112 
Q 3559 1806 3559 1356 
Q 3559 666 3084 287 
Q 2609 -91 1734 -91 
Q 1441 -91 1130 -33 
Q 819 25 488 141 
L 488 750 
Q 750 597 1062 519 
Q 1375 441 1716 441 
Q 2309 441 2620 675 
Q 2931 909 2931 1356 
Q 2931 1769 2642 2001 
Q 2353 2234 1838 2234 
L 1294 2234 
L 1294 2753 
L 1863 2753 
Q 2328 2753 2575 2939 
Q 2822 3125 2822 3475 
Q 2822 3834 2567 4026 
Q 2313 4219 1838 4219 
Q 1578 4219 1281 4162 
Q 984 4106 628 3988 
L 628 4550 
Q 988 4650 1302 4700 
Q 1616 4750 1894 4750 
Q 2613 4750 3031 4423 
Q 3450 4097 3450 3541 
Q 3450 3153 3228 2886 
Q 3006 2619 2597 2516 
z
" transform="scale(0.015625)"/>
        <path id="DejaVuSans-2d" d="M 313 2009 
L 1997 2009 
L 1997 1497 
L 313 1497 
L 313 2009 
z
" transform="scale(0.015625)"/>
        <path id="DejaVuSans-31" d="M 794 531 
L 1825 531 
L 1825 4091 
L 703 3866 
L 703 4441 
L 1819 4666 
L 2450 4666 
L 2450 531 
L 3481 531 
L 3481 0 
L 794 0 
L 794 531 
z
" transform="scale(0.015625)"/>
       </defs>
       <use xlink:href="#DejaVuSans-32"/>
       <use xlink:href="#DejaVuSans-30" x="63.623047"/>
       <use xlink:href="#DejaVuSans-32" x="127.246094"/>
       <use xlink:href="#DejaVuSans-33" x="190.869141"/>
       <use xlink:href="#DejaVuSans-2d" x="254.492188"/>
       <use xlink:href="#DejaVuSans-30" x="290.576172"/>
       <use xlink:href="#DejaVuSans-31" x="354.199219"/>
       <use xlink:href="#DejaVuSans-2d" x="417.822266"/>
       <use xlink:href="#DejaVuSans-30" x="453.90625"/>
       <use xlink:href="#DejaVuSans-31" x="517.529297"/>
      </g>
     </g>
    </g>
    <g id="xtick_2">
     <g id="line2d_2">
      <g>
       <use xlink:href="#mf9d5ef6182" x="215.747918" y="395.28" style="stroke: #000000; stroke-width: 0.8"/>
      </g>
     </g>
     <g id="text_2">
      <!-- 2023-01-15 -->
      <g transform="translate(130.61889 495.213718) rotate(-45) scale(0.2 -0.2)">
       <defs>
        <path id="DejaVuSans-35" d="M 691 4666 
L 3169 4666 
L 3169 4134 
L 1269 4134 
L 1269 2991 
Q 1406 3038 1543 3061 
Q 1681 3084 1819 3084 
Q 2600 3084 3056 2656 
Q 3513 2228 3513 1497 
Q 3513 744 3044 326 
Q 2575 -91 1722 -91 
Q 1428 -91 1123 -41 
Q 819 9 494 109 
L 494 744 
Q 775 591 1075 516 
Q 1375 441 1709 441 
Q 2250 441 2565 725 
Q 2881 1009 2881 1497 
Q 2881 1984 2565 2268 
Q 2250 2553 1709 2553 
Q 1456 2553 1204 2497 
Q 953 2441 691 2322 
L 691 4666 
z
" transform="scale(0.015625)"/>
       </defs>
       <use xlink:href="#DejaVuSans-32"/>
       <use xlink:href="#DejaVuSans-30" x="63.623047"/>
       <use xlink:href="#DejaVuSans-32" x="127.246094"/>
       <use xlink:href="#DejaVuSans-33" x="190.869141"/>
       <use xlink:href="#DejaVuSans-2d" x="254.492188"/>
       <use xlink:href="#DejaVuSans-30" x="290.576172"/>
       <use xlink:href="#DejaVuSans-31" x="354.199219"/>
       <use xlink:href="#DejaVuSans-2d" x="417.822266"/>
       <use xlink:href="#DejaVuSans-31" x="453.90625"/>
       <use xlink:href="#DejaVuSans-35" x="517.529297"/>
      </g>
     </g>
    </g>
    <g id="xtick_3">
     <g id="line2d_3">
      <g>
       <use xlink:href="#mf9d5ef6182" x="328.420995" y="395.28" style="stroke: #000000; stroke-width: 0.8"/>
      </g>
     </g>
     <g id="text_3">
      <!-- 2023-01-29 -->
      <g transform="translate(243.291967 495.213718) rotate(-45) scale(0.2 -0.2)">
       <defs>
        <path id="DejaVuSans-39" d="M 703 97 
L 703 672 
Q 941 559 1184 500 
Q 1428 441 1663 441 
Q 2288 441 2617 861 
Q 2947 1281 2994 2138 
Q 2813 1869 2534 1725 
Q 2256 1581 1919 1581 
Q 1219 1581 811 2004 
Q 403 2428 403 3163 
Q 403 3881 828 4315 
Q 1253 4750 1959 4750 
Q 2769 4750 3195 4129 
Q 3622 3509 3622 2328 
Q 3622 1225 3098 567 
Q 2575 -91 1691 -91 
Q 1453 -91 1209 -44 
Q 966 3 703 97 
z
M 1959 2075 
Q 2384 2075 2632 2365 
Q 2881 2656 2881 3163 
Q 2881 3666 2632 3958 
Q 2384 4250 1959 4250 
Q 1534 4250 1286 3958 
Q 1038 3666 1038 3163 
Q 1038 2656 1286 2365 
Q 1534 2075 1959 2075 
z
" transform="scale(0.015625)"/>
       </defs>
       <use xlink:href="#DejaVuSans-32"/>
       <use xlink:href="#DejaVuSans-30" x="63.623047"/>
       <use xlink:href="#DejaVuSans-32" x="127.246094"/>
       <use xlink:href="#DejaVuSans-33" x="190.869141"/>
       <use xlink:href="#DejaVuSans-2d" x="254.492188"/>
       <use xlink:href="#DejaVuSans-30" x="290.576172"/>
       <use xlink:href="#DejaVuSans-31" x="354.199219"/>
       <use xlink:href="#DejaVuSans-2d" x="417.822266"/>
       <use xlink:href="#DejaVuSans-32" x="453.90625"/>
       <use xlink:href="#DejaVuSans-39" x="517.529297"/>
      </g>
     </g>
    </g>
    <g id="xtick_4">
     <g id="line2d_4">
      <g>
       <use xlink:href="#mf9d5ef6182" x="441.094071" y="395.28" style="stroke: #000000; stroke-width: 0.8"/>
      </g>
     </g>
     <g id="text_4">
      <!-- 2023-02-12 -->
      <g transform="translate(355.965044 495.213718) rotate(-45) scale(0.2 -0.2)">
       <use xlink:href="#DejaVuSans-32"/>
       <use xlink:href="#DejaVuSans-30" x="63.623047"/>
       <use xlink:href="#DejaVuSans-32" x="127.246094"/>
       <use xlink:href="#DejaVuSans-33" x="190.869141"/>
       <use xlink:href="#DejaVuSans-2d" x="254.492188"/>
       <use xlink:href="#DejaVuSans-30" x="290.576172"/>
       <use xlink:href="#DejaVuSans-32" x="354.199219"/>
       <use xlink:href="#DejaVuSans-2d" x="417.822266"/>
       <use xlink:href="#DejaVuSans-31" x="453.90625"/>
       <use xlink:href="#DejaVuSans-32" x="517.529297"/>
      </g>
     </g>
    </g>
    <g id="xtick_5">
     <g id="line2d_5">
      <g>
       <use xlink:href="#mf9d5ef6182" x="553.767148" y="395.28" style="stroke: #000000; stroke-width: 0.8"/>
      </g>
     </g>
     <g id="text_5">
      <!-- 2023-02-26 -->
      <g transform="translate(468.638121 495.213718) rotate(-45) scale(0.2 -0.2)">
       <defs>
        <path id="DejaVuSans-36" d="M 2113 2584 
Q 1688 2584 1439 2293 
Q 1191 2003 1191 1497 
Q 1191 994 1439 701 
Q 1688 409 2113 409 
Q 2538 409 2786 701 
Q 3034 994 3034 1497 
Q 3034 2003 2786 2293 
Q 2538 2584 2113 2584 
z
M 3366 4563 
L 3366 3988 
Q 3128 4100 2886 4159 
Q 2644 4219 2406 4219 
Q 1781 4219 1451 3797 
Q 1122 3375 1075 2522 
Q 1259 2794 1537 2939 
Q 1816 3084 2150 3084 
Q 2853 3084 3261 2657 
Q 3669 2231 3669 1497 
Q 3669 778 3244 343 
Q 2819 -91 2113 -91 
Q 1303 -91 875 529 
Q 447 1150 447 2328 
Q 447 3434 972 4092 
Q 1497 4750 2381 4750 
Q 2619 4750 2861 4703 
Q 3103 4656 3366 4563 
z
" transform="scale(0.015625)"/>
       </defs>
       <use xlink:href="#DejaVuSans-32"/>
       <use xlink:href="#DejaVuSans-30" x="63.623047"/>
       <use xlink:href="#DejaVuSans-32" x="127.246094"/>
       <use xlink:href="#DejaVuSans-33" x="190.869141"/>
       <use xlink:href="#DejaVuSans-2d" x="254.492188"/>
       <use xlink:href="#DejaVuSans-30" x="290.576172"/>
       <use xlink:href="#DejaVuSans-32" x="354.199219"/>
       <use xlink:href="#DejaVuSans-2d" x="417.822266"/>
       <use xlink:href="#DejaVuSans-32" x="453.90625"/>
       <use xlink:href="#DejaVuSans-36" x="517.529297"/>
      </g>
     </g>
    </g>
    <g id="xtick_6">
     <g id="line2d_6">
      <g>
       <use xlink:href="#mf9d5ef6182" x="666.440225" y="395.28" style="stroke: #000000; stroke-width: 0.8"/>
      </g>
     </g>
     <g id="text_6">
      <!-- 2023-03-12 -->
      <g transform="translate(581.311198 495.213718) rotate(-45) scale(0.2 -0.2)">
       <use xlink:href="#DejaVuSans-32"/>
       <use xlink:href="#DejaVuSans-30" x="63.623047"/>
       <use xlink:href="#DejaVuSans-32" x="127.246094"/>
       <use xlink:href="#DejaVuSans-33" x="190.869141"/>
       <use xlink:href="#DejaVuSans-2d" x="254.492188"/>
       <use xlink:href="#DejaVuSans-30" x="290.576172"/>
       <use xlink:href="#DejaVuSans-33" x="354.199219"/>
       <use xlink:href="#DejaVuSans-2d" x="417.822266"/>
       <use xlink:href="#DejaVuSans-31" x="453.90625"/>
       <use xlink:href="#DejaVuSans-32" x="517.529297"/>
      </g>
     </g>
    </g>
    <g id="xtick_7">
     <g id="line2d_7">
      <g>
       <use xlink:href="#mf9d5ef6182" x="779.113302" y="395.28" style="stroke: #000000; stroke-width: 0.8"/>
      </g>
     </g>
     <g id="text_7">
      <!-- 2023-03-26 -->
      <g transform="translate(693.984275 495.213718) rotate(-45) scale(0.2 -0.2)">
       <use xlink:href="#DejaVuSans-32"/>
       <use xlink:href="#DejaVuSans-30" x="63.623047"/>
       <use xlink:href="#DejaVuSans-32" x="127.246094"/>
       <use xlink:href="#DejaVuSans-33" x="190.869141"/>
       <use xlink:href="#DejaVuSans-2d" x="254.492188"/>
       <use xlink:href="#DejaVuSans-30" x="290.576172"/>
       <use xlink:href="#DejaVuSans-33" x="354.199219"/>
       <use xlink:href="#DejaVuSans-2d" x="417.822266"/>
       <use xlink:href="#DejaVuSans-32" x="453.90625"/>
       <use xlink:href="#DejaVuSans-36" x="517.529297"/>
      </g>
     </g>
    </g>
    <g id="xtick_8">
     <g id="line2d_8">
      <g>
       <use xlink:href="#mf9d5ef6182" x="891.786379" y="395.28" style="stroke: #000000; stroke-width: 0.8"/>
      </g>
     </g>
     <g id="text_8">
      <!-- 2023-04-09 -->
      <g transform="translate(806.657352 495.213718) rotate(-45) scale(0.2 -0.2)">
       <defs>
        <path id="DejaVuSans-34" d="M 2419 4116 
L 825 1625 
L 2419 1625 
L 2419 4116 
z
M 2253 4666 
L 3047 4666 
L 3047 1625 
L 3713 1625 
L 3713 1100 
L 3047 1100 
L 3047 0 
L 2419 0 
L 2419 1100 
L 313 1100 
L 313 1709 
L 2253 4666 
z
" transform="scale(0.015625)"/>
       </defs>
       <use xlink:href="#DejaVuSans-32"/>
       <use xlink:href="#DejaVuSans-30" x="63.623047"/>
       <use xlink:href="#DejaVuSans-32" x="127.246094"/>
       <use xlink:href="#DejaVuSans-33" x="190.869141"/>
       <use xlink:href="#DejaVuSans-2d" x="254.492188"/>
       <use xlink:href="#DejaVuSans-30" x="290.576172"/>
       <use xlink:href="#DejaVuSans-34" x="354.199219"/>
       <use xlink:href="#DejaVuSans-2d" x="417.822266"/>
       <use xlink:href="#DejaVuSans-30" x="453.90625"/>
       <use xlink:href="#DejaVuSans-39" x="517.529297"/>
      </g>
     </g>
    </g>
    <g id="xtick_9">
     <g id="line2d_9">
      <g>
       <use xlink:href="#mf9d5ef6182" x="940.074841" y="395.28" style="stroke: #000000; stroke-width: 0.8"/>
      </g>
     </g>
     <g id="text_9">
      <!-- 2023-04-15 -->
      <g transform="translate(854.945813 495.213718) rotate(-45) scale(0.2 -0.2)">
       <use xlink:href="#DejaVuSans-32"/>
       <use xlink:href="#DejaVuSans-30" x="63.623047"/>
       <use xlink:href="#DejaVuSans-32" x="127.246094"/>
       <use xlink:href="#DejaVuSans-33" x="190.869141"/>
       <use xlink:href="#DejaVuSans-2d" x="254.492188"/>
       <use xlink:href="#DejaVuSans-30" x="290.576172"/>
       <use xlink:href="#DejaVuSans-34" x="354.199219"/>
       <use xlink:href="#DejaVuSans-2d" x="417.822266"/>
       <use xlink:href="#DejaVuSans-31" x="453.90625"/>
       <use xlink:href="#DejaVuSans-35" x="517.529297"/>
      </g>
     </g>
    </g>
   </g>
   <g id="matplotlib.axis_2">
    <g id="ytick_1">
     <g id="line2d_10">
      <defs>
       <path id="m55a4341032" d="M 0 0 
L -3.5 0 
" style="stroke: #000000; stroke-width: 0.8"/>
      </defs>
      <g>
       <use xlink:href="#m55a4341032" x="103.074841" y="377.64" style="stroke: #000000; stroke-width: 0.8"/>
      </g>
     </g>
     <g id="text_10">
      <!-- 0.00 -->
      <g transform="translate(51.543591 385.238437) scale(0.2 -0.2)">
       <defs>
        <path id="DejaVuSans-2e" d="M 684 794 
L 1344 794 
L 1344 0 
L 684 0 
L 684 794 
z
" transform="scale(0.015625)"/>
       </defs>
       <use xlink:href="#DejaVuSans-30"/>
       <use xlink:href="#DejaVuSans-2e" x="63.623047"/>
       <use xlink:href="#DejaVuSans-30" x="95.410156"/>
       <use xlink:href="#DejaVuSans-30" x="159.033203"/>
      </g>
     </g>
    </g>
    <g id="ytick_2">
     <g id="line2d_11">
      <g>
       <use xlink:href="#m55a4341032" x="103.074841" y="314.465038" style="stroke: #000000; stroke-width: 0.8"/>
      </g>
     </g>
     <g id="text_11">
      <!-- 0.05 -->
      <g transform="translate(51.543591 322.063476) scale(0.2 -0.2)">
       <use xlink:href="#DejaVuSans-30"/>
       <use xlink:href="#DejaVuSans-2e" x="63.623047"/>
       <use xlink:href="#DejaVuSans-30" x="95.410156"/>
       <use xlink:href="#DejaVuSans-35" x="159.033203"/>
      </g>
     </g>
    </g>
    <g id="ytick_3">
     <g id="line2d_12">
      <g>
       <use xlink:href="#m55a4341032" x="103.074841" y="251.290076" style="stroke: #000000; stroke-width: 0.8"/>
      </g>
     </g>
     <g id="text_12">
      <!-- 0.10 -->
      <g transform="translate(51.543591 258.888514) scale(0.2 -0.2)">
       <use xlink:href="#DejaVuSans-30"/>
       <use xlink:href="#DejaVuSans-2e" x="63.623047"/>
       <use xlink:href="#DejaVuSans-31" x="95.410156"/>
       <use xlink:href="#DejaVuSans-30" x="159.033203"/>
      </g>
     </g>
    </g>
    <g id="ytick_4">
     <g id="line2d_13">
      <g>
       <use xlink:href="#m55a4341032" x="103.074841" y="188.115115" style="stroke: #000000; stroke-width: 0.8"/>
      </g>
     </g>
     <g id="text_13">
      <!-- 0.15 -->
      <g transform="translate(51.543591 195.713552) scale(0.2 -0.2)">
       <use xlink:href="#DejaVuSans-30"/>
       <use xlink:href="#DejaVuSans-2e" x="63.623047"/>
       <use xlink:href="#DejaVuSans-31" x="95.410156"/>
       <use xlink:href="#DejaVuSans-35" x="159.033203"/>
      </g>
     </g>
    </g>
    <g id="ytick_5">
     <g id="line2d_14">
      <g>
       <use xlink:href="#m55a4341032" x="103.074841" y="124.940153" style="stroke: #000000; stroke-width: 0.8"/>
      </g>
     </g>
     <g id="text_14">
      <!-- 0.20 -->
      <g transform="translate(51.543591 132.53859) scale(0.2 -0.2)">
       <use xlink:href="#DejaVuSans-30"/>
       <use xlink:href="#DejaVuSans-2e" x="63.623047"/>
       <use xlink:href="#DejaVuSans-32" x="95.410156"/>
       <use xlink:href="#DejaVuSans-30" x="159.033203"/>
      </g>
     </g>
    </g>
    <g id="ytick_6">
     <g id="line2d_15">
      <g>
       <use xlink:href="#m55a4341032" x="103.074841" y="61.765191" style="stroke: #000000; stroke-width: 0.8"/>
      </g>
     </g>
     <g id="text_15">
      <!-- 0.25 -->
      <g transform="translate(51.543591 69.363629) scale(0.2 -0.2)">
       <use xlink:href="#DejaVuSans-30"/>
       <use xlink:href="#DejaVuSans-2e" x="63.623047"/>
       <use xlink:href="#DejaVuSans-32" x="95.410156"/>
       <use xlink:href="#DejaVuSans-35" x="159.033203"/>
      </g>
     </g>
    </g>
   </g>
   <g id="line2d_16">
    <path d="M 940.074841 377.64 
" clip-path="url(#pf51ecec249)" style="fill: none; stroke: #ffa500; stroke-width: 1.5; stroke-linecap: square"/>
   </g>
   <g id="line2d_17">
    <path d="M 103.074841 377.64 
L 948.274841 377.64 
" clip-path="url(#pf51ecec249)" style="fill: none; stroke-dasharray: 7.4,3.2; stroke-dashoffset: 0; stroke: #000000; stroke-width: 2"/>
   </g>
   <g id="patch_3">
    <path d="M 103.074841 395.28 
L 103.074841 7.2 
" style="fill: none; stroke: #000000; stroke-width: 0.8; stroke-linejoin: miter; stroke-linecap: square"/>
   </g>
   <g id="patch_4">
    <path d="M 940.074841 395.28 
L 940.074841 7.2 
" style="fill: none; stroke: #000000; stroke-width: 0.8; stroke-linejoin: miter; stroke-linecap: square"/>
   </g>
   <g id="patch_5">
    <path d="M 103.074841 395.28 
L 940.074841 395.28 
" style="fill: none; stroke: #000000; stroke-width: 0.8; stroke-linejoin: miter; stroke-linecap: square"/>
   </g>
   <g id="patch_6">
    <path d="M 103.074841 7.2 
L 940.074841 7.2 
" style="fill: none; stroke: #000000; stroke-width: 0.8; stroke-linejoin: miter; stroke-linecap: square"/>
   </g>
  </g>
 </g>
 <defs>
  <clipPath id="pf51ecec249">
   <rect x="103.074841" y="7.2" width="837" height="388.08"/>
  </clipPath>
 </defs>
</svg>
