<?xml version="1.0" encoding="utf-8" standalone="no"?>
<!DOCTYPE svg PUBLIC "-//W3C//DTD SVG 1.1//EN"
  "http://www.w3.org/Graphics/SVG/1.1/DTD/svg11.dtd">
<svg xmlns:xlink="http://www.w3.org/1999/xlink" width="947.274841pt" height="505.354841pt" viewBox="0 0 947.274841 505.354841" xmlns="http://www.w3.org/2000/svg" version="1.1">
 <metadata>
  <rdf:RDF xmlns:dc="http://purl.org/dc/elements/1.1/" xmlns:cc="http://creativecommons.org/ns#" xmlns:rdf="http://www.w3.org/1999/02/22-rdf-syntax-ns#">
   <cc:Work>
    <dc:type rdf:resource="http://purl.org/dc/dcmitype/StillImage"/>
    <dc:date>2023-11-15T18:16:48.947123</dc:date>
    <dc:format>image/svg+xml</dc:format>
    <dc:creator>
     <cc:Agent>
      <dc:title>Matplotlib v3.7.2, https://matplotlib.org/</dc:title>
     </cc:Agent>
    </dc:creator>
   </cc:Work>
  </rdf:RDF>
 </metadata>
 <defs>
  <style type="text/css">*{stroke-linejoin: round; stroke-linecap: butt}</style>
 </defs>
 <g id="figure_1">
  <g id="patch_1">
   <path d="M 0 505.354841 
L 947.274841 505.354841 
L 947.274841 -0 
L 0 -0 
z
" style="fill: #ffffff"/>
  </g>
  <g id="axes_1">
   <g id="patch_2">
    <path d="M 103.074841 395.28 
L 940.074841 395.28 
L 940.074841 7.2 
L 103.074841 7.2 
z
" style="fill: #ffffff"/>
   </g>
   <g id="PolyCollection_1">
    <path d="M -4315.31939 290.190678 
L -4315.31939 290.207886 
L -4307.271313 290.114306 
L -4299.223236 290.034444 
L -4291.175159 289.93355 
L -4283.127082 289.872872 
L -4275.079005 289.799573 
L -4267.030929 289.715219 
L -4258.982852 289.631961 
L -4250.934775 289.554332 
L -4242.886698 289.487137 
L -4234.838621 289.408477 
L -4226.790544 289.325826 
L -4218.742467 289.24578 
L -4210.69439 289.14598 
L -4202.646313 289.064579 
L -4194.598236 288.967586 
L -4186.550159 288.885516 
L -4178.502082 288.772298 
L -4170.454005 288.680577 
L -4162.405929 288.592619 
L -4154.357852 288.487438 
L -4146.309775 288.385282 
L -4138.261698 288.285801 
L -4130.213621 288.164342 
L -4122.165544 288.059355 
L -4114.117467 287.935326 
L -4106.06939 287.810021 
L -4098.021313 287.670815 
L -4089.973236 287.527871 
L -4081.925159 287.388754 
L -4073.877082 287.226631 
L -4065.829005 287.042302 
L -4057.780929 286.880595 
L -4049.732852 286.695867 
L -4041.684775 286.483718 
L -4033.636698 286.288018 
L -4025.588621 286.056897 
L -4017.540544 285.822734 
L -4009.492467 285.582009 
L -4001.44439 285.327811 
L -3993.396313 285.045096 
L -3985.348236 284.74393 
L -3977.300159 284.42469 
L -3969.252082 284.118947 
L -3961.204005 283.757004 
L -3953.155929 283.415217 
L -3945.107852 283.050734 
L -3937.059775 282.685986 
L -3929.011698 282.292394 
L -3920.963621 281.864956 
L -3912.915544 281.472601 
L -3904.867467 281.033195 
L -3896.81939 280.578229 
L -3888.771313 280.134031 
L -3880.723236 279.69569 
L -3872.675159 279.217928 
L -3864.627082 278.735442 
L -3856.579005 278.254729 
L -3848.530929 277.75307 
L -3840.482852 277.245517 
L -3832.434775 276.740309 
L -3824.386698 276.217271 
L -3816.338621 275.693608 
L -3808.290544 275.17915 
L -3800.242467 274.642262 
L -3792.19439 274.065373 
L -3784.146313 273.50812 
L -3776.098236 272.952521 
L -3768.050159 272.406479 
L -3760.002082 271.836211 
L -3751.954005 271.280105 
L -3743.905929 270.713429 
L -3735.857852 270.205644 
L -3727.809775 269.599729 
L -3719.761698 269.07987 
L -3711.713621 268.50592 
L -3703.665544 267.960762 
L -3695.617467 267.386175 
L -3687.56939 266.880809 
L -3679.521313 266.297642 
L -3671.473236 265.751277 
L -3663.425159 265.237622 
L -3655.377082 264.682836 
L -3647.329005 264.163946 
L -3639.280929 263.618845 
L -3631.232852 263.062125 
L -3623.184775 262.530172 
L -3615.136698 262.016613 
L -3607.088621 261.460287 
L -3599.040544 260.926488 
L -3590.992467 260.379261 
L -3582.94439 259.849259 
L -3574.896313 259.334424 
L -3566.848236 258.804035 
L -3558.800159 258.267586 
L -3550.752082 257.787508 
L -3542.704005 257.238865 
L -3534.655929 256.714095 
L -3526.607852 256.197941 
L -3518.559775 255.680571 
L -3510.511698 255.164007 
L -3502.463621 254.639883 
L -3494.415544 254.140864 
L -3486.367467 253.620276 
L -3478.31939 253.085755 
L -3470.271313 252.544623 
L -3462.223236 251.997088 
L -3454.175159 251.485973 
L -3446.127082 250.920951 
L -3438.079005 250.316817 
L -3430.030929 249.75097 
L -3421.982852 249.153043 
L -3413.934775 248.545641 
L -3405.886698 247.903209 
L -3397.838621 247.248997 
L -3389.790544 246.643088 
L -3381.742467 245.948886 
L -3373.69439 245.290705 
L -3365.646313 244.580742 
L -3357.598236 243.931096 
L -3349.550159 243.163212 
L -3341.502082 242.411367 
L -3333.454005 241.681855 
L -3325.405929 240.939581 
L -3317.357852 240.17403 
L -3309.309775 239.373256 
L -3301.261698 238.624985 
L -3293.213621 237.764304 
L -3285.165544 237.011423 
L -3277.117467 236.12576 
L -3269.06939 235.269081 
L -3261.021313 234.433787 
L -3252.973236 233.634445 
L -3244.925159 232.696891 
L -3236.877082 231.853703 
L -3228.829005 230.773378 
L -3220.780929 229.849591 
L -3212.732852 228.991788 
L -3204.684775 228.01929 
L -3196.636698 227.021776 
L -3188.588621 225.86848 
L -3180.540544 224.790928 
L -3172.492467 223.89915 
L -3164.44439 222.467154 
L -3156.396313 221.326215 
L -3148.348236 220.161056 
L -3140.300159 218.952498 
L -3132.252082 217.572195 
L -3124.204005 216.278915 
L -3116.155929 215.315983 
L -3108.107852 214.078599 
L -3100.059775 212.018105 
L -3092.011698 210.296085 
L -3083.963621 209.039729 
L -3075.915544 207.281655 
L -3067.867467 205.835501 
L -3059.81939 204.586861 
L -3051.771313 202.662956 
L -3043.723236 200.467353 
L -3035.675159 198.988373 
L -3027.627082 198.069251 
L -3019.579005 196.252372 
L -3011.530929 195.482695 
L -3003.482852 194.205514 
L -2995.434775 192.237184 
L -2987.386698 192.086264 
L -2979.338621 192.959599 
L -2971.290544 194.714109 
L -2963.242467 192.940192 
L -2955.19439 196.738679 
L -2947.146313 197.660424 
L -2939.098236 192.7722 
L -2931.050159 194.274292 
L -2923.002082 196.573002 
L -2914.954005 195.361548 
L -2906.905929 195.180385 
L -2898.857852 204.733294 
L -2890.809775 218.28712 
L -2882.761698 225.086854 
L -2874.713621 210.58557 
L -2866.665544 218.185015 
L -2858.617467 228.112324 
L -2850.56939 227.637875 
L -2842.521313 247.737579 
L -2834.473236 245.117398 
L -2826.425159 239.105469 
L -2818.377082 224.040406 
L -2810.329005 238.369152 
L -2802.280929 247.021524 
L -2794.232852 243.533598 
L -2786.184775 245.855304 
L -2778.136698 254.032804 
L -2770.088621 253.0559 
L -2762.040544 246.184669 
L -2753.992467 255.035794 
L -2745.94439 256.872542 
L -2737.896313 253.850972 
L -2729.848236 259.512865 
L -2721.800159 261.654864 
L -2713.752082 261.21809 
L -2705.704005 259.645964 
L -2697.655929 261.585506 
L -2689.607852 259.842096 
L -2681.559775 260.124417 
L -2673.511698 261.984784 
L -2665.463621 260.469101 
L -2657.415544 261.438941 
L -2649.367467 261.603254 
L -2641.31939 260.403061 
L -2633.271313 261.008562 
L -2625.223236 259.225143 
L -2617.175159 259.476553 
L -2609.127082 260.128117 
L -2601.079005 260.279154 
L -2593.030929 259.472249 
L -2584.982852 258.803918 
L -2576.934775 258.722705 
L -2568.886698 257.968175 
L -2560.838621 257.95485 
L -2552.790544 257.91332 
L -2544.742467 256.716872 
L -2536.69439 257.460631 
L -2528.646313 256.698635 
L -2520.598236 256.42528 
L -2512.550159 256.546684 
L -2504.502082 255.780035 
L -2496.454005 255.655612 
L -2488.405929 256.020053 
L -2480.357852 256.550797 
L -2472.309775 255.198641 
L -2464.261698 255.00117 
L -2456.213621 254.574415 
L -2448.165544 257.00735 
L -2440.117467 257.044583 
L -2432.06939 257.936888 
L -2424.021313 255.570293 
L -2415.973236 254.094156 
L -2407.925159 254.486723 
L -2399.877082 255.999749 
L -2391.829005 256.155813 
L -2383.780929 253.236775 
L -2375.732852 255.477354 
L -2367.684775 254.731099 
L -2359.636698 254.169991 
L -2351.588621 252.695525 
L -2343.540544 253.5525 
L -2335.492467 252.706661 
L -2327.44439 253.056647 
L -2319.396313 251.947855 
L -2311.348236 251.000898 
L -2303.300159 249.509411 
L -2295.252082 248.631208 
L -2287.204005 247.788369 
L -2279.155929 246.73532 
L -2271.107852 246.218745 
L -2263.059775 245.171781 
L -2255.011698 244.055157 
L -2246.963621 241.75619 
L -2238.915544 239.907148 
L -2230.867467 238.83559 
L -2222.81939 236.834514 
L -2214.771313 236.067767 
L -2206.723236 234.211941 
L -2198.675159 231.724879 
L -2190.627082 229.634102 
L -2182.579005 227.889737 
L -2174.530929 225.391858 
L -2166.482852 223.620322 
L -2158.434775 221.328572 
L -2150.386698 219.234693 
L -2142.338621 216.692563 
L -2134.290544 214.515301 
L -2126.242467 211.768593 
L -2118.19439 209.573123 
L -2110.146313 207.222379 
L -2102.098236 204.211614 
L -2094.050159 201.391696 
L -2086.002082 199.120975 
L -2077.954005 196.695817 
L -2069.905929 193.706304 
L -2061.857852 191.230378 
L -2053.809775 188.376776 
L -2045.761698 184.483313 
L -2037.713621 182.623312 
L -2029.665544 179.293515 
L -2021.617467 176.592009 
L -2013.56939 173.595973 
L -2005.521313 170.329023 
L -1997.473236 167.039855 
L -1989.425159 163.957723 
L -1981.377082 160.016904 
L -1973.329005 157.451834 
L -1965.280929 153.684853 
L -1957.232852 151.111152 
L -1949.184775 147.264413 
L -1941.136698 143.488528 
L -1933.088621 140.037962 
L -1925.040544 137.168948 
L -1916.992467 132.786853 
L -1908.94439 129.6283 
L -1900.896313 125.678763 
L -1892.848236 122.342164 
L -1884.800159 118.202343 
L -1876.752082 114.487227 
L -1868.704005 113.450461 
L -1860.655929 106.786838 
L -1852.607852 105.19498 
L -1844.559775 100.889112 
L -1836.511698 97.7141 
L -1828.463621 94.089693 
L -1820.415544 90.28386 
L -1812.367467 86.77267 
L -1804.31939 83.406577 
L -1796.271313 80.213137 
L -1788.223236 77.009778 
L -1780.175159 78.33758 
L -1772.127082 70.158521 
L -1764.079005 67.8261 
L -1756.030929 73.119758 
L -1747.982852 63.727008 
L -1739.934775 64.558772 
L -1731.886698 63.066992 
L -1723.838621 57.845032 
L -1715.790544 58.25624 
L -1707.742467 61.998015 
L -1699.69439 58.148679 
L -1691.646313 56.327265 
L -1683.598236 58.780137 
L -1675.550159 57.490585 
L -1667.502082 58.956722 
L -1659.454005 61.409321 
L -1651.405929 64.918566 
L -1643.357852 75.06744 
L -1635.309775 72.201112 
L -1627.261698 77.370963 
L -1619.213621 81.39073 
L -1611.165544 83.657832 
L -1603.117467 89.001139 
L -1595.06939 92.477678 
L -1587.021313 85.005629 
L -1578.973236 93.37121 
L -1570.925159 105.428603 
L -1562.877082 111.322093 
L -1554.829005 114.102788 
L -1546.780929 130.059771 
L -1538.732852 131.496774 
L -1530.684775 135.971146 
L -1522.636698 134.988665 
L -1514.588621 148.501138 
L -1506.540544 144.556203 
L -1498.492467 142.397974 
L -1490.44439 153.970467 
L -1482.396313 162.251047 
L -1474.348236 161.741682 
L -1466.300159 166.740189 
L -1458.252082 168.498397 
L -1450.204005 168.98764 
L -1442.155929 169.184977 
L -1434.107852 172.044445 
L -1426.059775 173.750416 
L -1418.011698 182.22305 
L -1409.963621 178.193314 
L -1401.915544 185.594998 
L -1393.867467 184.181516 
L -1385.81939 183.418715 
L -1377.771313 186.542551 
L -1369.723236 189.351987 
L -1361.675159 186.283459 
L -1353.627082 188.113957 
L -1345.579005 188.428437 
L -1337.530929 192.541462 
L -1329.482852 190.819706 
L -1321.434775 190.125705 
L -1313.386698 191.439385 
L -1305.338621 193.508068 
L -1297.290544 192.770612 
L -1289.242467 191.089825 
L -1281.19439 192.313411 
L -1273.146313 189.658073 
L -1265.098236 190.126834 
L -1257.050159 194.940088 
L -1249.002082 194.819254 
L -1240.954005 192.333446 
L -1232.905929 191.81877 
L -1224.857852 192.24646 
L -1216.809775 189.529254 
L -1208.761698 190.322267 
L -1200.713621 190.413818 
L -1192.665544 189.917862 
L -1184.617467 189.253815 
L -1176.56939 187.60314 
L -1168.521313 188.729602 
L -1160.473236 187.649018 
L -1152.425159 187.483002 
L -1144.377082 186.949395 
L -1136.329005 187.129272 
L -1128.280929 185.892031 
L -1120.232852 183.562601 
L -1112.184775 183.540398 
L -1104.136698 181.661611 
L -1096.088621 178.904655 
L -1088.040544 181.07396 
L -1079.992467 177.286139 
L -1071.94439 178.98897 
L -1063.896313 178.332601 
L -1055.848236 178.695723 
L -1047.800159 176.291818 
L -1039.752082 176.194977 
L -1031.704005 175.920903 
L -1023.655929 172.911389 
L -1015.607852 173.762628 
L -1007.559775 173.561631 
L -999.511698 173.504052 
L -991.463621 172.09848 
L -983.415544 172.847093 
L -975.367467 171.387344 
L -967.31939 170.011167 
L -959.271313 167.795191 
L -951.223236 167.126277 
L -943.175159 166.700319 
L -935.127082 165.167297 
L -927.079005 165.452705 
L -919.030929 164.728369 
L -910.982852 163.370521 
L -902.934775 163.473017 
L -894.886698 161.920166 
L -886.838621 163.290641 
L -878.790544 162.214163 
L -870.742467 162.306052 
L -862.69439 160.350912 
L -854.646313 157.673002 
L -846.598236 160.012355 
L -838.550159 159.962888 
L -830.502082 159.10281 
L -822.454005 158.209335 
L -814.405929 156.340694 
L -806.357852 155.936356 
L -798.309775 154.92397 
L -790.261698 155.101777 
L -782.213621 154.724572 
L -774.165544 152.936292 
L -766.117467 150.390389 
L -758.06939 153.715971 
L -750.021313 152.931707 
L -741.973236 150.771052 
L -733.925159 152.157875 
L -725.877082 148.281597 
L -717.829005 148.760218 
L -709.780929 149.009141 
L -701.732852 146.38326 
L -693.684775 150.859584 
L -685.636698 146.369313 
L -677.588621 144.09717 
L -669.540544 147.02983 
L -661.492467 147.825184 
L -653.44439 146.400375 
L -645.396313 147.538137 
L -637.348236 145.481536 
L -629.300159 149.490963 
L -621.252082 147.448427 
L -613.204005 148.272936 
L -605.155929 145.536336 
L -597.107852 143.092953 
L -589.059775 146.218248 
L -581.011698 151.80069 
L -572.963621 145.411726 
L -564.915544 145.754372 
L -556.867467 143.367592 
L -548.81939 144.475763 
L -540.771313 144.139672 
L -532.723236 142.644895 
L -524.675159 142.07864 
L -516.627082 144.774955 
L -508.579005 143.325697 
L -500.530929 145.773961 
L -492.482852 146.188072 
L -484.434775 138.910019 
L -476.386698 141.852663 
L -468.338621 142.050209 
L -460.290544 142.50141 
L -452.242467 142.892212 
L -444.19439 147.459885 
L -436.146313 149.230618 
L -428.098236 148.935135 
L -420.050159 153.941319 
L -412.002082 162.279519 
L -403.954005 152.077051 
L -395.905929 151.839443 
L -387.857852 151.937199 
L -379.809775 155.167689 
L -371.761698 155.806196 
L -363.713621 155.647535 
L -355.665544 162.793493 
L -347.617467 165.327586 
L -339.56939 156.888797 
L -331.521313 164.235705 
L -323.473236 160.377845 
L -315.425159 157.923774 
L -307.377082 166.894749 
L -299.329005 164.919138 
L -291.280929 170.644676 
L -283.232852 168.680794 
L -275.184775 164.539315 
L -267.136698 168.077606 
L -259.088621 167.924224 
L -251.040544 171.391888 
L -242.992467 168.946243 
L -234.94439 174.75846 
L -226.896313 170.286545 
L -218.848236 173.282386 
L -210.800159 172.46618 
L -202.752082 175.777748 
L -194.704005 169.996773 
L -186.655929 175.842652 
L -178.607852 175.339914 
L -170.559775 179.266704 
L -162.511698 181.239388 
L -154.463621 181.052243 
L -146.415544 179.800209 
L -138.367467 182.24575 
L -130.31939 184.010416 
L -122.271313 182.046767 
L -114.223236 181.184662 
L -106.175159 183.298096 
L -98.127082 185.191734 
L -90.079005 181.317631 
L -82.030929 179.002682 
L -73.982852 187.161336 
L -65.934775 190.737194 
L -57.886698 181.947346 
L -49.838621 184.254478 
L -41.790544 185.304587 
L -33.742467 185.687588 
L -25.69439 189.751423 
L -17.646313 188.971699 
L -9.598236 186.98265 
L -1.550159 188.629793 
L 6.497918 188.904012 
L 14.545995 184.057072 
L 22.594071 186.169346 
L 30.642148 184.498615 
L 38.690225 190.676973 
L 46.738302 198.337776 
L 54.786379 196.9938 
L 62.834456 190.528168 
L 70.882533 189.65179 
L 78.93061 190.300562 
L 86.978687 190.403474 
L 95.026764 196.057452 
L 103.074841 188.401156 
L 111.122918 196.042493 
L 119.170995 202.157914 
L 127.219071 196.714588 
L 135.267148 204.638153 
L 143.315225 199.395582 
L 151.363302 203.64534 
L 159.411379 200.569151 
L 167.459456 202.595666 
L 175.507533 206.788414 
L 183.55561 206.344957 
L 191.603687 207.535554 
L 199.651764 207.74628 
L 207.699841 208.069879 
L 215.747918 197.335657 
L 223.795995 210.880526 
L 231.844071 216.382165 
L 239.892148 210.808236 
L 247.940225 215.66474 
L 255.988302 216.634325 
L 264.036379 213.680295 
L 272.084456 219.207182 
L 280.132533 222.882734 
L 288.18061 220.603416 
L 296.228687 222.003961 
L 304.276764 222.762668 
L 312.324841 224.058937 
L 320.372918 228.266309 
L 328.420995 219.528804 
L 336.469071 230.316789 
L 344.517148 230.541824 
L 352.565225 230.98071 
L 360.613302 224.245591 
L 368.661379 232.412513 
L 376.709456 237.82899 
L 384.757533 232.253082 
L 392.80561 232.846742 
L 400.853687 240.428194 
L 408.901764 227.139942 
L 416.949841 239.517057 
L 424.997918 231.757594 
L 433.045995 242.579369 
L 441.094071 237.458413 
L 449.142148 242.14509 
L 457.190225 243.599272 
L 465.238302 245.646729 
L 473.286379 246.269157 
L 481.334456 243.371807 
L 489.382533 243.454469 
L 497.43061 244.9403 
L 505.478687 249.897947 
L 513.526764 249.262157 
L 521.574841 249.091812 
L 529.622918 252.096125 
L 537.670995 252.278874 
L 545.719071 249.838816 
L 553.767148 250.204782 
L 561.815225 254.74054 
L 569.863302 255.344557 
L 577.911379 256.401672 
L 585.959456 252.634445 
L 594.007533 247.061962 
L 602.05561 253.066493 
L 610.103687 251.108247 
L 618.151764 252.640343 
L 626.199841 255.137295 
L 634.247918 251.65228 
L 642.295995 255.802941 
L 650.344071 252.545449 
L 658.392148 251.916558 
L 666.440225 251.501589 
L 674.488302 255.081193 
L 682.536379 253.877074 
L 690.584456 253.280686 
L 698.632533 250.253555 
L 706.68061 251.455097 
L 714.728687 251.807346 
L 722.776764 250.728584 
L 730.824841 252.916219 
L 738.872918 252.012383 
L 746.920995 253.103083 
L 754.969071 254.33327 
L 763.017148 253.836878 
L 771.065225 251.922324 
L 779.113302 251.948567 
L 787.161379 250.596033 
L 795.209456 251.397074 
L 803.257533 251.232819 
L 811.30561 249.040744 
L 819.353687 250.587596 
L 827.401764 241.505489 
L 835.449841 249.670542 
L 843.497918 252.411639 
L 851.545995 248.448386 
L 859.594071 247.949463 
L 867.642148 252.749654 
L 875.690225 250.268931 
L 883.738302 246.710427 
L 891.786379 245.983424 
L 899.834456 247.497091 
L 907.882533 246.265117 
L 915.93061 249.630371 
L 923.978687 247.767633 
L 932.026764 249.987149 
L 940.074841 249.4413 
L 940.074841 243.940598 
L 940.074841 243.940598 
L 932.026764 245.461713 
L 923.978687 242.594457 
L 915.93061 246.329717 
L 907.882533 239.918166 
L 899.834456 242.608905 
L 891.786379 241.853615 
L 883.738302 234.632989 
L 875.690225 245.355846 
L 867.642148 249.01466 
L 859.594071 236.62001 
L 851.545995 243.37839 
L 843.497918 249.926197 
L 835.449841 246.387545 
L 827.401764 193.62203 
L 819.353687 245.612126 
L 811.30561 237.067273 
L 803.257533 247.468767 
L 795.209456 247.205218 
L 787.161379 244.091839 
L 779.113302 244.957176 
L 771.065225 244.386518 
L 763.017148 250.295507 
L 754.969071 251.06243 
L 746.920995 244.444023 
L 738.872918 239.803905 
L 730.824841 244.844161 
L 722.776764 237.944515 
L 714.728687 241.541705 
L 706.68061 237.77633 
L 698.632533 232.821135 
L 690.584456 241.28446 
L 682.536379 242.805799 
L 674.488302 243.492325 
L 666.440225 235.132234 
L 658.392148 233.836347 
L 650.344071 234.109727 
L 642.295995 245.221481 
L 634.247918 231.412343 
L 626.199841 241.81523 
L 618.151764 234.029789 
L 610.103687 228.309722 
L 602.05561 234.169721 
L 594.007533 211.751511 
L 585.959456 232.852375 
L 577.911379 241.935734 
L 569.863302 238.338657 
L 561.815225 236.934179 
L 553.767148 219.122511 
L 545.719071 220.191457 
L 537.670995 227.279575 
L 529.622918 227.384599 
L 521.574841 217.773297 
L 513.526764 218.88754 
L 505.478687 218.552134 
L 497.43061 209.152221 
L 489.382533 201.117665 
L 481.334456 199.785133 
L 473.286379 207.884115 
L 465.238302 206.251312 
L 457.190225 202.397232 
L 449.142148 198.427623 
L 441.094071 184.235473 
L 433.045995 199.524467 
L 424.997918 162.039462 
L 416.949841 188.262971 
L 408.901764 152.596405 
L 400.853687 192.287905 
L 392.80561 171.152504 
L 384.757533 171.244702 
L 376.709456 182.889191 
L 368.661379 170.205376 
L 360.613302 146.664409 
L 352.565225 164.646436 
L 344.517148 164.723076 
L 336.469071 164.440472 
L 328.420995 136.8994 
L 320.372918 151.169708 
L 312.324841 148.239982 
L 304.276764 146.684421 
L 296.228687 144.002979 
L 288.18061 138.542645 
L 280.132533 144.641685 
L 272.084456 134.721762 
L 264.036379 122.224506 
L 255.988302 133.226513 
L 247.940225 125.147652 
L 239.892148 117.960647 
L 231.844071 130.560275 
L 223.795995 117.542174 
L 215.747918 83.598756 
L 207.699841 108.924699 
L 199.651764 108.233328 
L 191.603687 108.584398 
L 183.55561 105.820875 
L 175.507533 106.238783 
L 167.459456 97.187692 
L 159.411379 93.612585 
L 151.363302 101.078901 
L 143.315225 87.7983 
L 135.267148 101.931877 
L 127.219071 83.393967 
L 119.170995 94.478537 
L 111.122918 82.231539 
L 103.074841 66.999193 
L 95.026764 81.527208 
L 86.978687 68.215473 
L 78.93061 69.417498 
L 70.882533 69.097376 
L 62.834456 70.685979 
L 54.786379 83.795935 
L 46.738302 87.121324 
L 38.690225 71.992649 
L 30.642148 56.486514 
L 22.594071 61.183747 
L 14.545995 58.277183 
L 6.497918 68.454795 
L -1.550159 67.708754 
L -9.598236 64.001824 
L -17.646313 69.434442 
L -25.69439 69.30557 
L -33.742467 61.579993 
L -41.790544 62.833315 
L -49.838621 60.004292 
L -57.886698 56.461764 
L -65.934775 74.837635 
L -73.982852 64.94176 
L -82.030929 51.282547 
L -90.079005 58.239112 
L -98.127082 64.499032 
L -106.175159 60.84494 
L -114.223236 58.096874 
L -122.271313 60.746059 
L -130.31939 67.329447 
L -138.367467 60.787069 
L -146.415544 58.55687 
L -154.463621 61.62104 
L -162.511698 57.61816 
L -170.559775 59.260995 
L -178.607852 50.910446 
L -186.655929 54.28252 
L -194.704005 44.030916 
L -202.752082 53.314445 
L -210.800159 49.312663 
L -218.848236 52.086829 
L -226.896313 49.463294 
L -234.94439 55.229623 
L -242.992467 46.074972 
L -251.040544 52.235216 
L -259.088621 46.547081 
L -267.136698 47.935106 
L -275.184775 43.523363 
L -283.232852 46.221346 
L -291.280929 53.16073 
L -299.329005 46.941065 
L -307.377082 48.760647 
L -315.425159 36.26768 
L -323.473236 42.392283 
L -331.521313 45.623295 
L -339.56939 36.06285 
L -347.617467 47.253684 
L -355.665544 48.358649 
L -363.713621 36.191462 
L -371.761698 36.658413 
L -379.809775 36.029308 
L -387.857852 31.800748 
L -395.905929 35.129006 
L -403.954005 34.261973 
L -412.002082 49.107138 
L -420.050159 39.299321 
L -428.098236 32.111756 
L -436.146313 32.545258 
L -444.19439 30.601716 
L -452.242467 26.346667 
L -460.290544 28.175827 
L -468.338621 25.382994 
L -476.386698 29.012655 
L -484.434775 24.84 
L -492.482852 33.392489 
L -500.530929 34.73074 
L -508.579005 33.019725 
L -516.627082 35.074445 
L -524.675159 32.088409 
L -532.723236 34.745825 
L -540.771313 36.367579 
L -548.81939 40.456357 
L -556.867467 37.476733 
L -564.915544 42.0161 
L -572.963621 41.292461 
L -581.011698 49.631752 
L -589.059775 44.241257 
L -597.107852 41.413734 
L -605.155929 45.029203 
L -613.204005 46.727425 
L -621.252082 46.952784 
L -629.300159 51.795744 
L -637.348236 47.770531 
L -645.396313 51.030794 
L -653.44439 49.558238 
L -661.492467 50.370834 
L -669.540544 49.043897 
L -677.588621 47.071866 
L -685.636698 50.91838 
L -693.684775 56.032091 
L -701.732852 50.875617 
L -709.780929 53.865412 
L -717.829005 52.591175 
L -725.877082 54.303747 
L -733.925159 58.244975 
L -741.973236 56.919859 
L -750.021313 60.110983 
L -758.06939 60.958357 
L -766.117467 57.372677 
L -774.165544 59.48385 
L -782.213621 61.832948 
L -790.261698 62.672534 
L -798.309775 62.557268 
L -806.357852 64.209034 
L -814.405929 63.920722 
L -822.454005 66.382165 
L -830.502082 67.045875 
L -838.550159 67.575166 
L -846.598236 68.096761 
L -854.646313 63.621631 
L -862.69439 68.468145 
L -870.742467 70.37643 
L -878.790544 69.765064 
L -886.838621 69.859785 
L -894.886698 69.821609 
L -902.934775 71.170763 
L -910.982852 70.616012 
L -919.030929 72.672334 
L -927.079005 73.327838 
L -935.127082 72.713704 
L -943.175159 73.39151 
L -951.223236 74.342937 
L -959.271313 75.327283 
L -967.31939 78.935529 
L -975.367467 79.681405 
L -983.415544 81.365561 
L -991.463621 80.307722 
L -999.511698 81.912249 
L -1007.559775 81.934 
L -1015.607852 82.318829 
L -1023.655929 80.252777 
L -1031.704005 85.37057 
L -1039.752082 85.670005 
L -1047.800159 85.85646 
L -1055.848236 88.863636 
L -1063.896313 88.472908 
L -1071.94439 89.627944 
L -1079.992467 87.851233 
L -1088.040544 92.04556 
L -1096.088621 90.581987 
L -1104.136698 94.618846 
L -1112.184775 97.432735 
L -1120.232852 98.121092 
L -1128.280929 101.701333 
L -1136.329005 104.45741 
L -1144.377082 104.166506 
L -1152.425159 105.80275 
L -1160.473236 106.15177 
L -1168.521313 108.357186 
L -1176.56939 107.515053 
L -1184.617467 110.661128 
L -1192.665544 112.979193 
L -1200.713621 114.296408 
L -1208.761698 115.032457 
L -1216.809775 115.594118 
L -1224.857852 119.039308 
L -1232.905929 119.762775 
L -1240.954005 121.854793 
L -1249.002082 124.998167 
L -1257.050159 125.933586 
L -1265.098236 122.935425 
L -1273.146313 123.738816 
L -1281.19439 127.224569 
L -1289.242467 127.573856 
L -1297.290544 129.96333 
L -1305.338621 131.682618 
L -1313.386698 130.682565 
L -1321.434775 131.730497 
L -1329.482852 133.054245 
L -1337.530929 135.467522 
L -1345.579005 132.730873 
L -1353.627082 133.896554 
L -1361.675159 133.895347 
L -1369.723236 137.3611 
L -1377.771313 136.932799 
L -1385.81939 135.014319 
L -1393.867467 136.875508 
L -1401.915544 138.796986 
L -1409.963621 133.826443 
L -1418.011698 138.454164 
L -1426.059775 132.62083 
L -1434.107852 132.419455 
L -1442.155929 131.310512 
L -1450.204005 132.781658 
L -1458.252082 133.276463 
L -1466.300159 132.657432 
L -1474.348236 129.954723 
L -1482.396313 132.236357 
L -1490.44439 125.514371 
L -1498.492467 117.863739 
L -1506.540544 119.928106 
L -1514.588621 123.890732 
L -1522.636698 113.802599 
L -1530.684775 114.393752 
L -1538.732852 112.103949 
L -1546.780929 111.590745 
L -1554.829005 99.142625 
L -1562.877082 98.149125 
L -1570.925159 93.501609 
L -1578.973236 83.128289 
L -1587.021313 75.209126 
L -1595.06939 83.855459 
L -1603.117467 79.724964 
L -1611.165544 72.735157 
L -1619.213621 69.761113 
L -1627.261698 64.600163 
L -1635.309775 57.757527 
L -1643.357852 60.830773 
L -1651.405929 48.574804 
L -1659.454005 42.636837 
L -1667.502082 39.884687 
L -1675.550159 37.706953 
L -1683.598236 39.240312 
L -1691.646313 36.374537 
L -1699.69439 39.158908 
L -1707.742467 43.078026 
L -1715.790544 37.682187 
L -1723.838621 37.396619 
L -1731.886698 43.386515 
L -1739.934775 45.031966 
L -1747.982852 43.258989 
L -1756.030929 55.328802 
L -1764.079005 47.655785 
L -1772.127082 50.946923 
L -1780.175159 60.328088 
L -1788.223236 58.417022 
L -1796.271313 62.250562 
L -1804.31939 65.760627 
L -1812.367467 69.796311 
L -1820.415544 73.676491 
L -1828.463621 78.000053 
L -1836.511698 82.056583 
L -1844.559775 85.498615 
L -1852.607852 90.591899 
L -1860.655929 92.320726 
L -1868.704005 100.070242 
L -1876.752082 101.032058 
L -1884.800159 105.260011 
L -1892.848236 110.080235 
L -1900.896313 113.847676 
L -1908.94439 118.493973 
L -1916.992467 122.006786 
L -1925.040544 127.040118 
L -1933.088621 130.343647 
L -1941.136698 134.400359 
L -1949.184775 138.677004 
L -1957.232852 143.123371 
L -1965.280929 146.171734 
L -1973.329005 150.544705 
L -1981.377082 153.512976 
L -1989.425159 157.946904 
L -1997.473236 161.417599 
L -2005.521313 164.648317 
L -2013.56939 167.872306 
L -2021.617467 170.780081 
L -2029.665544 173.320145 
L -2037.713621 176.461168 
L -2045.761698 178.293598 
L -2053.809775 182.039546 
L -2061.857852 184.71151 
L -2069.905929 187.114275 
L -2077.954005 189.940434 
L -2086.002082 191.837014 
L -2094.050159 194.383098 
L -2102.098236 196.980574 
L -2110.146313 199.784982 
L -2118.19439 202.019014 
L -2126.242467 204.211417 
L -2134.290544 206.560894 
L -2142.338621 208.823432 
L -2150.386698 211.226857 
L -2158.434775 213.210422 
L -2166.482852 215.326748 
L -2174.530929 217.109839 
L -2182.579005 219.435715 
L -2190.627082 221.201891 
L -2198.675159 223.147358 
L -2206.723236 225.487363 
L -2214.771313 227.187651 
L -2222.81939 227.866569 
L -2230.867467 229.793174 
L -2238.915544 230.891444 
L -2246.963621 232.738183 
L -2255.011698 234.842548 
L -2263.059775 236.019837 
L -2271.107852 237.117009 
L -2279.155929 237.466373 
L -2287.204005 238.569221 
L -2295.252082 239.272998 
L -2303.300159 240.00932 
L -2311.348236 241.467955 
L -2319.396313 242.351382 
L -2327.44439 243.564 
L -2335.492467 242.985014 
L -2343.540544 243.6506 
L -2351.588621 242.67294 
L -2359.636698 244.252592 
L -2367.684775 244.493631 
L -2375.732852 245.629124 
L -2383.780929 243.162576 
L -2391.829005 246.077678 
L -2399.877082 245.79786 
L -2407.925159 244.044084 
L -2415.973236 243.537205 
L -2424.021313 244.974967 
L -2432.06939 247.519632 
L -2440.117467 246.394129 
L -2448.165544 246.219164 
L -2456.213621 243.422824 
L -2464.261698 243.232959 
L -2472.309775 243.832385 
L -2480.357852 245.2818 
L -2488.405929 244.57076 
L -2496.454005 244.040701 
L -2504.502082 244.093286 
L -2512.550159 244.881221 
L -2520.598236 244.437686 
L -2528.646313 244.850299 
L -2536.69439 245.675854 
L -2544.742467 244.709215 
L -2552.790544 245.999459 
L -2560.838621 246.006344 
L -2568.886698 245.963577 
L -2576.934775 246.703857 
L -2584.982852 246.724156 
L -2593.030929 247.569261 
L -2601.079005 248.516188 
L -2609.127082 248.313588 
L -2617.175159 247.620598 
L -2625.223236 247.061549 
L -2633.271313 249.318314 
L -2641.31939 248.673606 
L -2649.367467 250.12008 
L -2657.415544 249.936605 
L -2665.463621 249.083526 
L -2673.511698 250.516305 
L -2681.559775 248.770596 
L -2689.607852 248.637143 
L -2697.655929 250.519559 
L -2705.704005 248.809426 
L -2713.752082 250.583529 
L -2721.800159 251.017383 
L -2729.848236 249.151202 
L -2737.896313 243.651611 
L -2745.94439 246.854019 
L -2753.992467 245.041704 
L -2762.040544 236.961856 
L -2770.088621 243.508154 
L -2778.136698 244.705942 
L -2786.184775 237.221797 
L -2794.232852 235.044672 
L -2802.280929 238.782271 
L -2810.329005 230.682763 
L -2818.377082 215.905726 
L -2826.425159 231.755374 
L -2834.473236 237.606257 
L -2842.521313 240.412202 
L -2850.56939 220.555845 
L -2858.617467 221.215162 
L -2866.665544 211.06119 
L -2874.713621 203.207111 
L -2882.761698 218.617007 
L -2890.809775 211.742019 
L -2898.857852 197.765541 
L -2906.905929 187.977664 
L -2914.954005 188.42719 
L -2923.002082 189.95553 
L -2931.050159 187.787043 
L -2939.098236 186.461285 
L -2947.146313 191.820066 
L -2955.19439 191.033226 
L -2963.242467 187.292703 
L -2971.290544 189.352902 
L -2979.338621 187.744132 
L -2987.386698 187.060527 
L -2995.434775 187.091691 
L -3003.482852 189.144818 
L -3011.530929 190.310495 
L -3019.579005 190.932665 
L -3027.627082 192.688069 
L -3035.675159 193.464428 
L -3043.723236 194.880528 
L -3051.771313 197.179749 
L -3059.81939 198.970364 
L -3067.867467 200.16957 
L -3075.915544 201.519936 
L -3083.963621 203.326667 
L -3092.011698 204.419188 
L -3100.059775 206.135089 
L -3108.107852 208.2354 
L -3116.155929 209.476413 
L -3124.204005 210.298208 
L -3132.252082 211.58812 
L -3140.300159 212.918466 
L -3148.348236 214.138437 
L -3156.396313 215.305544 
L -3164.44439 216.424953 
L -3172.492467 217.966663 
L -3180.540544 218.729799 
L -3188.588621 219.850622 
L -3196.636698 221.025295 
L -3204.684775 222.027277 
L -3212.732852 223.019864 
L -3220.780929 223.846501 
L -3228.829005 224.749127 
L -3236.877082 225.95642 
L -3244.925159 226.785608 
L -3252.973236 227.747346 
L -3261.021313 228.515764 
L -3269.06939 229.390282 
L -3277.117467 230.28745 
L -3285.165544 231.198368 
L -3293.213621 231.961895 
L -3301.261698 232.868871 
L -3309.309775 233.663471 
L -3317.357852 234.516923 
L -3325.405929 235.299751 
L -3333.454005 236.102012 
L -3341.502082 236.83979 
L -3349.550159 237.634124 
L -3357.598236 238.492678 
L -3365.646313 239.142349 
L -3373.69439 239.960515 
L -3381.742467 240.663611 
L -3389.790544 241.481901 
L -3397.838621 242.076247 
L -3405.886698 242.836992 
L -3413.934775 243.561406 
L -3421.982852 244.250665 
L -3430.030929 244.952511 
L -3438.079005 245.600713 
L -3446.127082 246.359095 
L -3454.175159 247.040071 
L -3462.223236 247.59845 
L -3470.271313 248.264236 
L -3478.31939 248.928723 
L -3486.367467 249.589459 
L -3494.415544 250.225936 
L -3502.463621 250.817674 
L -3510.511698 251.470029 
L -3518.559775 252.1085 
L -3526.607852 252.749518 
L -3534.655929 253.387427 
L -3542.704005 254.042295 
L -3550.752082 254.72297 
L -3558.800159 255.305727 
L -3566.848236 255.975328 
L -3574.896313 256.631026 
L -3582.94439 257.258905 
L -3590.992467 257.906822 
L -3599.040544 258.567897 
L -3607.088621 259.207975 
L -3615.136698 259.880454 
L -3623.184775 260.490907 
L -3631.232852 261.113619 
L -3639.280929 261.772885 
L -3647.329005 262.408167 
L -3655.377082 263.008946 
L -3663.425159 263.646057 
L -3671.473236 264.224455 
L -3679.521313 264.844385 
L -3687.56939 265.506264 
L -3695.617467 266.068965 
L -3703.665544 266.702168 
L -3711.713621 267.299112 
L -3719.761698 267.92627 
L -3727.809775 268.489864 
L -3735.857852 269.154529 
L -3743.905929 269.698125 
L -3751.954005 270.311987 
L -3760.002082 270.911361 
L -3768.050159 271.526734 
L -3776.098236 272.109376 
L -3784.146313 272.703664 
L -3792.19439 273.300645 
L -3800.242467 273.919315 
L -3808.290544 274.476071 
L -3816.338621 274.995183 
L -3824.386698 275.527157 
L -3832.434775 276.06343 
L -3840.482852 276.580797 
L -3848.530929 277.108399 
L -3856.579005 277.629998 
L -3864.627082 278.127233 
L -3872.675159 278.631591 
L -3880.723236 279.133992 
L -3888.771313 279.589088 
L -3896.81939 280.053504 
L -3904.867467 280.540387 
L -3912.915544 281.001085 
L -3920.963621 281.411276 
L -3929.011698 281.867217 
L -3937.059775 282.282728 
L -3945.107852 282.664814 
L -3953.155929 283.04826 
L -3961.204005 283.406534 
L -3969.252082 283.795609 
L -3977.300159 284.114739 
L -3985.348236 284.454037 
L -3993.396313 284.773424 
L -4001.44439 285.069178 
L -4009.492467 285.338256 
L -4017.540544 285.582343 
L -4025.588621 285.82559 
L -4033.636698 286.067374 
L -4041.684775 286.266122 
L -4049.732852 286.490328 
L -4057.780929 286.679072 
L -4065.829005 286.840818 
L -4073.877082 287.032852 
L -4081.925159 287.200137 
L -4089.973236 287.337415 
L -4098.021313 287.485865 
L -4106.06939 287.630299 
L -4114.117467 287.756575 
L -4122.165544 287.883651 
L -4130.213621 287.987609 
L -4138.261698 288.115147 
L -4146.309775 288.21524 
L -4154.357852 288.321054 
L -4162.405929 288.432654 
L -4170.454005 288.522537 
L -4178.502082 288.618353 
L -4186.550159 288.745994 
L -4194.598236 288.834263 
L -4202.646313 288.944099 
L -4210.69439 289.029809 
L -4218.742467 289.14625 
L -4226.790544 289.237211 
L -4234.838621 289.333984 
L -4242.886698 289.418063 
L -4250.934775 289.494374 
L -4258.982852 289.583164 
L -4267.030929 289.682123 
L -4275.079005 289.778906 
L -4283.127082 289.860418 
L -4291.175159 289.924077 
L -4299.223236 290.019873 
L -4307.271313 290.096923 
L -4315.31939 290.190678 
z
" clip-path="url(#p08b4740bb4)" style="fill: #008000; fill-opacity: 0.3; stroke: #008000; stroke-opacity: 0.3"/>
   </g>
   <g id="matplotlib.axis_1">
    <g id="xtick_1">
     <g id="line2d_1">
      <defs>
       <path id="mdb8aa90fdc" d="M 0 0 
L 0 3.5 
" style="stroke: #000000; stroke-width: 0.8"/>
      </defs>
      <g>
       <use xlink:href="#mdb8aa90fdc" x="103.074841" y="395.28" style="stroke: #000000; stroke-width: 0.8"/>
      </g>
     </g>
     <g id="text_1">
      <!-- 2023-01-01 -->
      <g transform="translate(17.945813 495.213718) rotate(-45) scale(0.2 -0.2)">
       <defs>
        <path id="DejaVuSans-32" d="M 1228 531 
L 3431 531 
L 3431 0 
L 469 0 
L 469 531 
Q 828 903 1448 1529 
Q 2069 2156 2228 2338 
Q 2531 2678 2651 2914 
Q 2772 3150 2772 3378 
Q 2772 3750 2511 3984 
Q 2250 4219 1831 4219 
Q 1534 4219 1204 4116 
Q 875 4013 500 3803 
L 500 4441 
Q 881 4594 1212 4672 
Q 1544 4750 1819 4750 
Q 2544 4750 2975 4387 
Q 3406 4025 3406 3419 
Q 3406 3131 3298 2873 
Q 3191 2616 2906 2266 
Q 2828 2175 2409 1742 
Q 1991 1309 1228 531 
z
" transform="scale(0.015625)"/>
        <path id="DejaVuSans-30" d="M 2034 4250 
Q 1547 4250 1301 3770 
Q 1056 3291 1056 2328 
Q 1056 1369 1301 889 
Q 1547 409 2034 409 
Q 2525 409 2770 889 
Q 3016 1369 3016 2328 
Q 3016 3291 2770 3770 
Q 2525 4250 2034 4250 
z
M 2034 4750 
Q 2819 4750 3233 4129 
Q 3647 3509 3647 2328 
Q 3647 1150 3233 529 
Q 2819 -91 2034 -91 
Q 1250 -91 836 529 
Q 422 1150 422 2328 
Q 422 3509 836 4129 
Q 1250 4750 2034 4750 
z
" transform="scale(0.015625)"/>
        <path id="DejaVuSans-33" d="M 2597 2516 
Q 3050 2419 3304 2112 
Q 3559 1806 3559 1356 
Q 3559 666 3084 287 
Q 2609 -91 1734 -91 
Q 1441 -91 1130 -33 
Q 819 25 488 141 
L 488 750 
Q 750 597 1062 519 
Q 1375 441 1716 441 
Q 2309 441 2620 675 
Q 2931 909 2931 1356 
Q 2931 1769 2642 2001 
Q 2353 2234 1838 2234 
L 1294 2234 
L 1294 2753 
L 1863 2753 
Q 2328 2753 2575 2939 
Q 2822 3125 2822 3475 
Q 2822 3834 2567 4026 
Q 2313 4219 1838 4219 
Q 1578 4219 1281 4162 
Q 984 4106 628 3988 
L 628 4550 
Q 988 4650 1302 4700 
Q 1616 4750 1894 4750 
Q 2613 4750 3031 4423 
Q 3450 4097 3450 3541 
Q 3450 3153 3228 2886 
Q 3006 2619 2597 2516 
z
" transform="scale(0.015625)"/>
        <path id="DejaVuSans-2d" d="M 313 2009 
L 1997 2009 
L 1997 1497 
L 313 1497 
L 313 2009 
z
" transform="scale(0.015625)"/>
        <path id="DejaVuSans-31" d="M 794 531 
L 1825 531 
L 1825 4091 
L 703 3866 
L 703 4441 
L 1819 4666 
L 2450 4666 
L 2450 531 
L 3481 531 
L 3481 0 
L 794 0 
L 794 531 
z
" transform="scale(0.015625)"/>
       </defs>
       <use xlink:href="#DejaVuSans-32"/>
       <use xlink:href="#DejaVuSans-30" x="63.623047"/>
       <use xlink:href="#DejaVuSans-32" x="127.246094"/>
       <use xlink:href="#DejaVuSans-33" x="190.869141"/>
       <use xlink:href="#DejaVuSans-2d" x="254.492188"/>
       <use xlink:href="#DejaVuSans-30" x="290.576172"/>
       <use xlink:href="#DejaVuSans-31" x="354.199219"/>
       <use xlink:href="#DejaVuSans-2d" x="417.822266"/>
       <use xlink:href="#DejaVuSans-30" x="453.90625"/>
       <use xlink:href="#DejaVuSans-31" x="517.529297"/>
      </g>
     </g>
    </g>
    <g id="xtick_2">
     <g id="line2d_2">
      <g>
       <use xlink:href="#mdb8aa90fdc" x="215.747918" y="395.28" style="stroke: #000000; stroke-width: 0.8"/>
      </g>
     </g>
     <g id="text_2">
      <!-- 2023-01-15 -->
      <g transform="translate(130.61889 495.213718) rotate(-45) scale(0.2 -0.2)">
       <defs>
        <path id="DejaVuSans-35" d="M 691 4666 
L 3169 4666 
L 3169 4134 
L 1269 4134 
L 1269 2991 
Q 1406 3038 1543 3061 
Q 1681 3084 1819 3084 
Q 2600 3084 3056 2656 
Q 3513 2228 3513 1497 
Q 3513 744 3044 326 
Q 2575 -91 1722 -91 
Q 1428 -91 1123 -41 
Q 819 9 494 109 
L 494 744 
Q 775 591 1075 516 
Q 1375 441 1709 441 
Q 2250 441 2565 725 
Q 2881 1009 2881 1497 
Q 2881 1984 2565 2268 
Q 2250 2553 1709 2553 
Q 1456 2553 1204 2497 
Q 953 2441 691 2322 
L 691 4666 
z
" transform="scale(0.015625)"/>
       </defs>
       <use xlink:href="#DejaVuSans-32"/>
       <use xlink:href="#DejaVuSans-30" x="63.623047"/>
       <use xlink:href="#DejaVuSans-32" x="127.246094"/>
       <use xlink:href="#DejaVuSans-33" x="190.869141"/>
       <use xlink:href="#DejaVuSans-2d" x="254.492188"/>
       <use xlink:href="#DejaVuSans-30" x="290.576172"/>
       <use xlink:href="#DejaVuSans-31" x="354.199219"/>
       <use xlink:href="#DejaVuSans-2d" x="417.822266"/>
       <use xlink:href="#DejaVuSans-31" x="453.90625"/>
       <use xlink:href="#DejaVuSans-35" x="517.529297"/>
      </g>
     </g>
    </g>
    <g id="xtick_3">
     <g id="line2d_3">
      <g>
       <use xlink:href="#mdb8aa90fdc" x="328.420995" y="395.28" style="stroke: #000000; stroke-width: 0.8"/>
      </g>
     </g>
     <g id="text_3">
      <!-- 2023-01-29 -->
      <g transform="translate(243.291967 495.213718) rotate(-45) scale(0.2 -0.2)">
       <defs>
        <path id="DejaVuSans-39" d="M 703 97 
L 703 672 
Q 941 559 1184 500 
Q 1428 441 1663 441 
Q 2288 441 2617 861 
Q 2947 1281 2994 2138 
Q 2813 1869 2534 1725 
Q 2256 1581 1919 1581 
Q 1219 1581 811 2004 
Q 403 2428 403 3163 
Q 403 3881 828 4315 
Q 1253 4750 1959 4750 
Q 2769 4750 3195 4129 
Q 3622 3509 3622 2328 
Q 3622 1225 3098 567 
Q 2575 -91 1691 -91 
Q 1453 -91 1209 -44 
Q 966 3 703 97 
z
M 1959 2075 
Q 2384 2075 2632 2365 
Q 2881 2656 2881 3163 
Q 2881 3666 2632 3958 
Q 2384 4250 1959 4250 
Q 1534 4250 1286 3958 
Q 1038 3666 1038 3163 
Q 1038 2656 1286 2365 
Q 1534 2075 1959 2075 
z
" transform="scale(0.015625)"/>
       </defs>
       <use xlink:href="#DejaVuSans-32"/>
       <use xlink:href="#DejaVuSans-30" x="63.623047"/>
       <use xlink:href="#DejaVuSans-32" x="127.246094"/>
       <use xlink:href="#DejaVuSans-33" x="190.869141"/>
       <use xlink:href="#DejaVuSans-2d" x="254.492188"/>
       <use xlink:href="#DejaVuSans-30" x="290.576172"/>
       <use xlink:href="#DejaVuSans-31" x="354.199219"/>
       <use xlink:href="#DejaVuSans-2d" x="417.822266"/>
       <use xlink:href="#DejaVuSans-32" x="453.90625"/>
       <use xlink:href="#DejaVuSans-39" x="517.529297"/>
      </g>
     </g>
    </g>
    <g id="xtick_4">
     <g id="line2d_4">
      <g>
       <use xlink:href="#mdb8aa90fdc" x="441.094071" y="395.28" style="stroke: #000000; stroke-width: 0.8"/>
      </g>
     </g>
     <g id="text_4">
      <!-- 2023-02-12 -->
      <g transform="translate(355.965044 495.213718) rotate(-45) scale(0.2 -0.2)">
       <use xlink:href="#DejaVuSans-32"/>
       <use xlink:href="#DejaVuSans-30" x="63.623047"/>
       <use xlink:href="#DejaVuSans-32" x="127.246094"/>
       <use xlink:href="#DejaVuSans-33" x="190.869141"/>
       <use xlink:href="#DejaVuSans-2d" x="254.492188"/>
       <use xlink:href="#DejaVuSans-30" x="290.576172"/>
       <use xlink:href="#DejaVuSans-32" x="354.199219"/>
       <use xlink:href="#DejaVuSans-2d" x="417.822266"/>
       <use xlink:href="#DejaVuSans-31" x="453.90625"/>
       <use xlink:href="#DejaVuSans-32" x="517.529297"/>
      </g>
     </g>
    </g>
    <g id="xtick_5">
     <g id="line2d_5">
      <g>
       <use xlink:href="#mdb8aa90fdc" x="553.767148" y="395.28" style="stroke: #000000; stroke-width: 0.8"/>
      </g>
     </g>
     <g id="text_5">
      <!-- 2023-02-26 -->
      <g transform="translate(468.638121 495.213718) rotate(-45) scale(0.2 -0.2)">
       <defs>
        <path id="DejaVuSans-36" d="M 2113 2584 
Q 1688 2584 1439 2293 
Q 1191 2003 1191 1497 
Q 1191 994 1439 701 
Q 1688 409 2113 409 
Q 2538 409 2786 701 
Q 3034 994 3034 1497 
Q 3034 2003 2786 2293 
Q 2538 2584 2113 2584 
z
M 3366 4563 
L 3366 3988 
Q 3128 4100 2886 4159 
Q 2644 4219 2406 4219 
Q 1781 4219 1451 3797 
Q 1122 3375 1075 2522 
Q 1259 2794 1537 2939 
Q 1816 3084 2150 3084 
Q 2853 3084 3261 2657 
Q 3669 2231 3669 1497 
Q 3669 778 3244 343 
Q 2819 -91 2113 -91 
Q 1303 -91 875 529 
Q 447 1150 447 2328 
Q 447 3434 972 4092 
Q 1497 4750 2381 4750 
Q 2619 4750 2861 4703 
Q 3103 4656 3366 4563 
z
" transform="scale(0.015625)"/>
       </defs>
       <use xlink:href="#DejaVuSans-32"/>
       <use xlink:href="#DejaVuSans-30" x="63.623047"/>
       <use xlink:href="#DejaVuSans-32" x="127.246094"/>
       <use xlink:href="#DejaVuSans-33" x="190.869141"/>
       <use xlink:href="#DejaVuSans-2d" x="254.492188"/>
       <use xlink:href="#DejaVuSans-30" x="290.576172"/>
       <use xlink:href="#DejaVuSans-32" x="354.199219"/>
       <use xlink:href="#DejaVuSans-2d" x="417.822266"/>
       <use xlink:href="#DejaVuSans-32" x="453.90625"/>
       <use xlink:href="#DejaVuSans-36" x="517.529297"/>
      </g>
     </g>
    </g>
    <g id="xtick_6">
     <g id="line2d_6">
      <g>
       <use xlink:href="#mdb8aa90fdc" x="666.440225" y="395.28" style="stroke: #000000; stroke-width: 0.8"/>
      </g>
     </g>
     <g id="text_6">
      <!-- 2023-03-12 -->
      <g transform="translate(581.311198 495.213718) rotate(-45) scale(0.2 -0.2)">
       <use xlink:href="#DejaVuSans-32"/>
       <use xlink:href="#DejaVuSans-30" x="63.623047"/>
       <use xlink:href="#DejaVuSans-32" x="127.246094"/>
       <use xlink:href="#DejaVuSans-33" x="190.869141"/>
       <use xlink:href="#DejaVuSans-2d" x="254.492188"/>
       <use xlink:href="#DejaVuSans-30" x="290.576172"/>
       <use xlink:href="#DejaVuSans-33" x="354.199219"/>
       <use xlink:href="#DejaVuSans-2d" x="417.822266"/>
       <use xlink:href="#DejaVuSans-31" x="453.90625"/>
       <use xlink:href="#DejaVuSans-32" x="517.529297"/>
      </g>
     </g>
    </g>
    <g id="xtick_7">
     <g id="line2d_7">
      <g>
       <use xlink:href="#mdb8aa90fdc" x="779.113302" y="395.28" style="stroke: #000000; stroke-width: 0.8"/>
      </g>
     </g>
     <g id="text_7">
      <!-- 2023-03-26 -->
      <g transform="translate(693.984275 495.213718) rotate(-45) scale(0.2 -0.2)">
       <use xlink:href="#DejaVuSans-32"/>
       <use xlink:href="#DejaVuSans-30" x="63.623047"/>
       <use xlink:href="#DejaVuSans-32" x="127.246094"/>
       <use xlink:href="#DejaVuSans-33" x="190.869141"/>
       <use xlink:href="#DejaVuSans-2d" x="254.492188"/>
       <use xlink:href="#DejaVuSans-30" x="290.576172"/>
       <use xlink:href="#DejaVuSans-33" x="354.199219"/>
       <use xlink:href="#DejaVuSans-2d" x="417.822266"/>
       <use xlink:href="#DejaVuSans-32" x="453.90625"/>
       <use xlink:href="#DejaVuSans-36" x="517.529297"/>
      </g>
     </g>
    </g>
    <g id="xtick_8">
     <g id="line2d_8">
      <g>
       <use xlink:href="#mdb8aa90fdc" x="891.786379" y="395.28" style="stroke: #000000; stroke-width: 0.8"/>
      </g>
     </g>
     <g id="text_8">
      <!-- 2023-04-09 -->
      <g transform="translate(806.657352 495.213718) rotate(-45) scale(0.2 -0.2)">
       <defs>
        <path id="DejaVuSans-34" d="M 2419 4116 
L 825 1625 
L 2419 1625 
L 2419 4116 
z
M 2253 4666 
L 3047 4666 
L 3047 1625 
L 3713 1625 
L 3713 1100 
L 3047 1100 
L 3047 0 
L 2419 0 
L 2419 1100 
L 313 1100 
L 313 1709 
L 2253 4666 
z
" transform="scale(0.015625)"/>
       </defs>
       <use xlink:href="#DejaVuSans-32"/>
       <use xlink:href="#DejaVuSans-30" x="63.623047"/>
       <use xlink:href="#DejaVuSans-32" x="127.246094"/>
       <use xlink:href="#DejaVuSans-33" x="190.869141"/>
       <use xlink:href="#DejaVuSans-2d" x="254.492188"/>
       <use xlink:href="#DejaVuSans-30" x="290.576172"/>
       <use xlink:href="#DejaVuSans-34" x="354.199219"/>
       <use xlink:href="#DejaVuSans-2d" x="417.822266"/>
       <use xlink:href="#DejaVuSans-30" x="453.90625"/>
       <use xlink:href="#DejaVuSans-39" x="517.529297"/>
      </g>
     </g>
    </g>
    <g id="xtick_9">
     <g id="line2d_9">
      <g>
       <use xlink:href="#mdb8aa90fdc" x="940.074841" y="395.28" style="stroke: #000000; stroke-width: 0.8"/>
      </g>
     </g>
     <g id="text_9">
      <!-- 2023-04-15 -->
      <g transform="translate(854.945813 495.213718) rotate(-45) scale(0.2 -0.2)">
       <use xlink:href="#DejaVuSans-32"/>
       <use xlink:href="#DejaVuSans-30" x="63.623047"/>
       <use xlink:href="#DejaVuSans-32" x="127.246094"/>
       <use xlink:href="#DejaVuSans-33" x="190.869141"/>
       <use xlink:href="#DejaVuSans-2d" x="254.492188"/>
       <use xlink:href="#DejaVuSans-30" x="290.576172"/>
       <use xlink:href="#DejaVuSans-34" x="354.199219"/>
       <use xlink:href="#DejaVuSans-2d" x="417.822266"/>
       <use xlink:href="#DejaVuSans-31" x="453.90625"/>
       <use xlink:href="#DejaVuSans-35" x="517.529297"/>
      </g>
     </g>
    </g>
   </g>
   <g id="matplotlib.axis_2">
    <g id="ytick_1">
     <g id="line2d_10">
      <defs>
       <path id="m97f89077a4" d="M 0 0 
L -3.5 0 
" style="stroke: #000000; stroke-width: 0.8"/>
      </defs>
      <g>
       <use xlink:href="#m97f89077a4" x="103.074841" y="361.271606" style="stroke: #000000; stroke-width: 0.8"/>
      </g>
     </g>
     <g id="text_10">
      <!-- −0.05 -->
      <g transform="translate(34.784216 368.870043) scale(0.2 -0.2)">
       <defs>
        <path id="DejaVuSans-2212" d="M 678 2272 
L 4684 2272 
L 4684 1741 
L 678 1741 
L 678 2272 
z
" transform="scale(0.015625)"/>
        <path id="DejaVuSans-2e" d="M 684 794 
L 1344 794 
L 1344 0 
L 684 0 
L 684 794 
z
" transform="scale(0.015625)"/>
       </defs>
       <use xlink:href="#DejaVuSans-2212"/>
       <use xlink:href="#DejaVuSans-30" x="83.789062"/>
       <use xlink:href="#DejaVuSans-2e" x="147.412109"/>
       <use xlink:href="#DejaVuSans-30" x="179.199219"/>
       <use xlink:href="#DejaVuSans-35" x="242.822266"/>
      </g>
     </g>
    </g>
    <g id="ytick_2">
     <g id="line2d_11">
      <g>
       <use xlink:href="#m97f89077a4" x="103.074841" y="290.280915" style="stroke: #000000; stroke-width: 0.8"/>
      </g>
     </g>
     <g id="text_11">
      <!-- 0.00 -->
      <g transform="translate(51.543591 297.879353) scale(0.2 -0.2)">
       <use xlink:href="#DejaVuSans-30"/>
       <use xlink:href="#DejaVuSans-2e" x="63.623047"/>
       <use xlink:href="#DejaVuSans-30" x="95.410156"/>
       <use xlink:href="#DejaVuSans-30" x="159.033203"/>
      </g>
     </g>
    </g>
    <g id="ytick_3">
     <g id="line2d_12">
      <g>
       <use xlink:href="#m97f89077a4" x="103.074841" y="219.290225" style="stroke: #000000; stroke-width: 0.8"/>
      </g>
     </g>
     <g id="text_12">
      <!-- 0.05 -->
      <g transform="translate(51.543591 226.888662) scale(0.2 -0.2)">
       <use xlink:href="#DejaVuSans-30"/>
       <use xlink:href="#DejaVuSans-2e" x="63.623047"/>
       <use xlink:href="#DejaVuSans-30" x="95.410156"/>
       <use xlink:href="#DejaVuSans-35" x="159.033203"/>
      </g>
     </g>
    </g>
    <g id="ytick_4">
     <g id="line2d_13">
      <g>
       <use xlink:href="#m97f89077a4" x="103.074841" y="148.299535" style="stroke: #000000; stroke-width: 0.8"/>
      </g>
     </g>
     <g id="text_13">
      <!-- 0.10 -->
      <g transform="translate(51.543591 155.897972) scale(0.2 -0.2)">
       <use xlink:href="#DejaVuSans-30"/>
       <use xlink:href="#DejaVuSans-2e" x="63.623047"/>
       <use xlink:href="#DejaVuSans-31" x="95.410156"/>
       <use xlink:href="#DejaVuSans-30" x="159.033203"/>
      </g>
     </g>
    </g>
    <g id="ytick_5">
     <g id="line2d_14">
      <g>
       <use xlink:href="#m97f89077a4" x="103.074841" y="77.308844" style="stroke: #000000; stroke-width: 0.8"/>
      </g>
     </g>
     <g id="text_14">
      <!-- 0.15 -->
      <g transform="translate(51.543591 84.907282) scale(0.2 -0.2)">
       <use xlink:href="#DejaVuSans-30"/>
       <use xlink:href="#DejaVuSans-2e" x="63.623047"/>
       <use xlink:href="#DejaVuSans-31" x="95.410156"/>
       <use xlink:href="#DejaVuSans-35" x="159.033203"/>
      </g>
     </g>
    </g>
   </g>
   <g id="line2d_15">
    <path d="M 199.651764 300.353341 
L 215.747918 300.353341 
M 400.853687 126.146304 
L 416.949841 126.146304 
L 424.997918 314.498454 
L 441.094071 314.498454 
L 449.142148 377.64 
L 457.190225 377.64 
M 610.103687 224.734559 
L 650.344071 224.734559 
L 650.344071 224.734559 
" clip-path="url(#p08b4740bb4)" style="fill: none; stroke: #ffa500; stroke-width: 1.5; stroke-linecap: square"/>
   </g>
   <g id="line2d_16">
    <path d="M 103.074841 290.280915 
L 948.274841 290.280915 
" clip-path="url(#p08b4740bb4)" style="fill: none; stroke-dasharray: 7.4,3.2; stroke-dashoffset: 0; stroke: #000000; stroke-width: 2"/>
   </g>
   <g id="patch_3">
    <path d="M 103.074841 395.28 
L 103.074841 7.2 
" style="fill: none; stroke: #000000; stroke-width: 0.8; stroke-linejoin: miter; stroke-linecap: square"/>
   </g>
   <g id="patch_4">
    <path d="M 940.074841 395.28 
L 940.074841 7.2 
" style="fill: none; stroke: #000000; stroke-width: 0.8; stroke-linejoin: miter; stroke-linecap: square"/>
   </g>
   <g id="patch_5">
    <path d="M 103.074841 395.28 
L 940.074841 395.28 
" style="fill: none; stroke: #000000; stroke-width: 0.8; stroke-linejoin: miter; stroke-linecap: square"/>
   </g>
   <g id="patch_6">
    <path d="M 103.074841 7.2 
L 940.074841 7.2 
" style="fill: none; stroke: #000000; stroke-width: 0.8; stroke-linejoin: miter; stroke-linecap: square"/>
   </g>
  </g>
 </g>
 <defs>
  <clipPath id="p08b4740bb4">
   <rect x="103.074841" y="7.2" width="837" height="388.08"/>
  </clipPath>
 </defs>
</svg>
