<?xml version="1.0" encoding="utf-8" standalone="no"?>
<!DOCTYPE svg PUBLIC "-//W3C//DTD SVG 1.1//EN"
  "http://www.w3.org/Graphics/SVG/1.1/DTD/svg11.dtd">
<svg xmlns:xlink="http://www.w3.org/1999/xlink" width="947.274841pt" height="505.354841pt" viewBox="0 0 947.274841 505.354841" xmlns="http://www.w3.org/2000/svg" version="1.1">
 <metadata>
  <rdf:RDF xmlns:dc="http://purl.org/dc/elements/1.1/" xmlns:cc="http://creativecommons.org/ns#" xmlns:rdf="http://www.w3.org/1999/02/22-rdf-syntax-ns#">
   <cc:Work>
    <dc:type rdf:resource="http://purl.org/dc/dcmitype/StillImage"/>
    <dc:date>2023-11-12T22:43:21.720307</dc:date>
    <dc:format>image/svg+xml</dc:format>
    <dc:creator>
     <cc:Agent>
      <dc:title>Matplotlib v3.7.2, https://matplotlib.org/</dc:title>
     </cc:Agent>
    </dc:creator>
   </cc:Work>
  </rdf:RDF>
 </metadata>
 <defs>
  <style type="text/css">*{stroke-linejoin: round; stroke-linecap: butt}</style>
 </defs>
 <g id="figure_1">
  <g id="patch_1">
   <path d="M 0 505.354841 
L 947.274841 505.354841 
L 947.274841 -0 
L 0 -0 
z
" style="fill: #ffffff"/>
  </g>
  <g id="axes_1">
   <g id="patch_2">
    <path d="M 103.074841 395.28 
L 940.074841 395.28 
L 940.074841 7.2 
L 103.074841 7.2 
z
" style="fill: #ffffff"/>
   </g>
   <g id="PolyCollection_1">
    <path d="M -4315.31939 166.542121 
L -4315.31939 166.555618 
L -4307.271313 166.476922 
L -4299.223236 166.410611 
L -4291.175159 166.333816 
L -4283.127082 166.286719 
L -4275.079005 166.229008 
L -4267.030929 166.162016 
L -4258.982852 166.09616 
L -4250.934775 166.035325 
L -4242.886698 165.983625 
L -4234.838621 165.922068 
L -4226.790544 165.857258 
L -4218.742467 165.794921 
L -4210.69439 165.715784 
L -4202.646313 165.652552 
L -4194.598236 165.576107 
L -4186.550159 165.512776 
L -4178.502082 165.422922 
L -4170.454005 165.351724 
L -4162.405929 165.283888 
L -4154.357852 165.201397 
L -4146.309775 165.121711 
L -4138.261698 165.044519 
L -4130.213621 164.948723 
L -4122.165544 164.867354 
L -4114.117467 164.769952 
L -4106.06939 164.671772 
L -4098.021313 164.562081 
L -4089.973236 164.449656 
L -4081.925159 164.341002 
L -4073.877082 164.213238 
L -4065.829005 164.067492 
L -4057.780929 163.941397 
L -4049.732852 163.796054 
L -4041.684775 163.627879 
L -4033.636698 163.474575 
L -4025.588621 163.291669 
L -4017.540544 163.107241 
L -4009.492467 162.91807 
L -4001.44439 162.718178 
L -3993.396313 162.49475 
L -3985.348236 162.25654 
L -3977.300159 162.003993 
L -3969.252082 161.76434 
L -3961.204005 161.477456 
L -3953.155929 161.20926 
L -3945.107852 160.922593 
L -3937.059775 160.636912 
L -3929.011698 160.327384 
L -3920.963621 159.990042 
L -3912.915544 159.683845 
L -3904.867467 159.338083 
L -3896.81939 158.98015 
L -3888.771313 158.632396 
L -3880.723236 158.290613 
L -3872.675159 157.915612 
L -3864.627082 157.537308 
L -3856.579005 157.161086 
L -3848.530929 156.768073 
L -3840.482852 156.371131 
L -3832.434775 155.976369 
L -3824.386698 155.566627 
L -3816.338621 155.156792 
L -3808.290544 154.755418 
L -3800.242467 154.335144 
L -3792.19439 153.880881 
L -3784.146313 153.443821 
L -3776.098236 153.008533 
L -3768.050159 152.581651 
L -3760.002082 152.133994 
L -3751.954005 151.69852 
L -3743.905929 151.253992 
L -3735.857852 150.859962 
L -3727.809775 150.381517 
L -3719.761698 149.976383 
L -3711.713621 149.524439 
L -3703.665544 149.096862 
L -3695.617467 148.643481 
L -3687.56939 148.242176 
L -3679.521313 147.781712 
L -3671.473236 147.352715 
L -3663.425159 146.951454 
L -3655.377082 146.50808 
L -3647.329005 146.100357 
L -3639.280929 145.671945 
L -3631.232852 145.233289 
L -3623.184775 144.812223 
L -3615.136698 144.405865 
L -3607.088621 143.968143 
L -3599.040544 143.549557 
L -3590.992467 143.119036 
L -3582.94439 142.695561 
L -3574.896313 142.291232 
L -3566.848236 141.875225 
L -3558.800159 141.453762 
L -3550.752082 141.080368 
L -3542.704005 140.647602 
L -3534.655929 140.234934 
L -3526.607852 139.829237 
L -3518.559775 139.422152 
L -3510.511698 139.01548 
L -3502.463621 138.601938 
L -3494.415544 138.209596 
L -3486.367467 137.798291 
L -3478.31939 137.374694 
L -3470.271313 136.945228 
L -3462.223236 136.510111 
L -3454.175159 136.106037 
L -3446.127082 135.655572 
L -3438.079005 135.171651 
L -3430.030929 134.720677 
L -3421.982852 134.242269 
L -3413.934775 133.7561 
L -3405.886698 133.24016 
L -3397.838621 132.714572 
L -3389.790544 132.230862 
L -3381.742467 131.671653 
L -3373.69439 131.143761 
L -3365.646313 130.571977 
L -3357.598236 130.052701 
L -3349.550159 129.43255 
L -3341.502082 128.827055 
L -3333.454005 128.241082 
L -3325.405929 127.644616 
L -3317.357852 127.028664 
L -3309.309775 126.383078 
L -3301.261698 125.783279 
L -3293.213621 125.087826 
L -3285.165544 124.48549 
L -3277.117467 123.769779 
L -3269.06939 123.07957 
L -3261.021313 122.408487 
L -3252.973236 121.768803 
L -3244.925159 121.011347 
L -3236.877082 120.335671 
L -3228.829005 119.457459 
L -3220.780929 118.714163 
L -3212.732852 118.028548 
L -3204.684775 117.245804 
L -3196.636698 116.442721 
L -3188.588621 115.507395 
L -3180.540544 114.638767 
L -3172.492467 113.930936 
L -3164.44439 112.760905 
L -3156.396313 111.842681 
L -3148.348236 110.905616 
L -3140.300159 109.933784 
L -3132.252082 108.817217 
L -3124.204005 107.777775 
L -3116.155929 107.024168 
L -3108.107852 106.037228 
L -3100.059775 104.347531 
L -3092.011698 102.95132 
L -3083.963621 101.957657 
L -3075.915544 100.537017 
L -3067.867467 99.386589 
L -3059.81939 98.407927 
L -3051.771313 96.852781 
L -3043.723236 95.067966 
L -3035.675159 93.899635 
L -3027.627082 93.212021 
L -3019.579005 91.756108 
L -3011.530929 91.198035 
L -3003.482852 90.205018 
L -2995.434775 88.619276 
L -2987.386698 88.489572 
L -2979.338621 88.97521 
L -2971.290544 90.197151 
L -2963.242467 88.582068 
L -2955.19439 91.458161 
L -2947.146313 92.109749 
L -2939.098236 87.904539 
L -2931.050159 88.939567 
L -2923.002082 90.849557 
L -2914.954005 89.81952 
L -2906.905929 89.66969 
L -2898.857852 97.854954 
L -2890.809775 109.442927 
L -2882.761698 115.217623 
L -2874.713621 102.72096 
L -2866.665544 109.172845 
L -2858.617467 117.605187 
L -2850.56939 117.105323 
L -2842.521313 134.233223 
L -2834.473236 131.851475 
L -2826.425159 126.559202 
L -2818.377082 113.509979 
L -2810.329005 125.687084 
L -2802.280929 132.980247 
L -2794.232852 129.845064 
L -2786.184775 131.695977 
L -2778.136698 138.562054 
L -2770.088621 137.556947 
L -2762.040544 131.495331 
L -2753.992467 138.929104 
L -2745.94439 140.329483 
L -2737.896313 137.552509 
L -2729.848236 142.230618 
L -2721.800159 143.876843 
L -2713.752082 143.307158 
L -2705.704005 141.758064 
L -2697.655929 143.223872 
L -2689.607852 141.51986 
L -2681.559775 141.555305 
L -2673.511698 142.947819 
L -2665.463621 141.442524 
L -2657.415544 142.077209 
L -2649.367467 142.023292 
L -2641.31939 140.789893 
L -2633.271313 141.115064 
L -2625.223236 139.382802 
L -2617.175159 139.405791 
L -2609.127082 139.780948 
L -2601.079005 139.731378 
L -2593.030929 138.85948 
L -2584.982852 138.107057 
L -2576.934775 137.875179 
L -2568.886698 137.062281 
L -2560.838621 136.892198 
L -2552.790544 136.707767 
L -2544.742467 135.526772 
L -2536.69439 136.044119 
L -2528.646313 135.272464 
L -2520.598236 134.939814 
L -2512.550159 134.96484 
L -2504.502082 134.232904 
L -2496.454005 134.068851 
L -2488.405929 134.356015 
L -2480.357852 134.8192 
L -2472.309775 133.664742 
L -2464.261698 133.527433 
L -2456.213621 133.20221 
L -2448.165544 135.398098 
L -2440.117467 135.56518 
L -2432.06939 136.517842 
L -2424.021313 134.657523 
L -2415.973236 133.55917 
L -2407.925159 134.091585 
L -2399.877082 135.636928 
L -2391.829005 136.052878 
L -2383.780929 133.808554 
L -2375.732852 136.055725 
L -2367.684775 135.76144 
L -2359.636698 135.651235 
L -2351.588621 134.764488 
L -2343.540544 135.924475 
L -2335.492467 135.644587 
L -2327.44439 136.438296 
L -2319.396313 136.007526 
L -2311.348236 135.738446 
L -2303.300159 135.015557 
L -2295.252082 134.840731 
L -2287.204005 134.719247 
L -2279.155929 134.441229 
L -2271.107852 134.665698 
L -2263.059775 134.469586 
L -2255.011698 134.248671 
L -2246.963621 133.025746 
L -2238.915544 132.192811 
L -2230.867467 132.048267 
L -2222.81939 131.114684 
L -2214.771313 131.279331 
L -2206.723236 130.553215 
L -2198.675159 129.276019 
L -2190.627082 128.287746 
L -2182.579005 127.660982 
L -2174.530929 126.331262 
L -2166.482852 125.711322 
L -2158.434775 124.59934 
L -2150.386698 123.720711 
L -2142.338621 122.541801 
L -2134.290544 121.517524 
L -2126.242467 120.372376 
L -2118.19439 119.328012 
L -2110.146313 118.457571 
L -2102.098236 117.018983 
L -2094.050159 115.814513 
L -2086.002082 114.549822 
L -2077.954005 113.797101 
L -2069.905929 112.469644 
L -2061.857852 111.385822 
L -2053.809775 110.120967 
L -2045.761698 108.096932 
L -2037.713621 107.434218 
L -2029.665544 105.817796 
L -2021.617467 104.59459 
L -2013.56939 103.219431 
L -2005.521313 101.571045 
L -1997.473236 100.054348 
L -1989.425159 98.632277 
L -1981.377082 96.593059 
L -1973.329005 95.414346 
L -1965.280929 93.467988 
L -1957.232852 92.432241 
L -1949.184775 90.386345 
L -1941.136698 88.437978 
L -1933.088621 86.865382 
L -1925.040544 85.714838 
L -1916.992467 83.423058 
L -1908.94439 82.040687 
L -1900.896313 80.120065 
L -1892.848236 78.6863 
L -1884.800159 76.640407 
L -1876.752082 74.898212 
L -1868.704005 75.464083 
L -1860.655929 71.35129 
L -1852.607852 71.372571 
L -1844.559775 69.339634 
L -1836.511698 68.13761 
L -1828.463621 66.574556 
L -1820.415544 64.929048 
L -1812.367467 63.393606 
L -1804.31939 62.106383 
L -1796.271313 61.042511 
L -1788.223236 59.848553 
L -1780.175159 62.422926 
L -1772.127082 57.109453 
L -1764.079005 56.755483 
L -1756.030929 62.136119 
L -1747.982852 56.097699 
L -1739.934775 57.969739 
L -1731.886698 58.067582 
L -1723.838621 55.061968 
L -1715.790544 56.575955 
L -1707.742467 60.529694 
L -1699.69439 58.574314 
L -1691.646313 58.164799 
L -1683.598236 61.109618 
L -1675.550159 61.063622 
L -1667.502082 63.099703 
L -1659.454005 65.950547 
L -1651.405929 69.511656 
L -1643.357852 78.4713 
L -1635.309775 76.919891 
L -1627.261698 81.799089 
L -1619.213621 85.667146 
L -1611.165544 88.160613 
L -1603.117467 93.062603 
L -1595.06939 96.058774 
L -1587.021313 91.057195 
L -1578.973236 96.352069 
L -1570.925159 103.772409 
L -1562.877082 107.425846 
L -1554.829005 108.415776 
L -1546.780929 117.525994 
L -1538.732852 118.268851 
L -1530.684775 120.215683 
L -1522.636698 120.328588 
L -1514.588621 127.62297 
L -1506.540544 125.231482 
L -1498.492467 124.280473 
L -1490.44439 129.815518 
L -1482.396313 135.418056 
L -1474.348236 134.096164 
L -1466.300159 136.73676 
L -1458.252082 137.764273 
L -1450.204005 137.914304 
L -1442.155929 137.299793 
L -1434.107852 138.746784 
L -1426.059775 139.481806 
L -1418.011698 144.702124 
L -1409.963621 141.642255 
L -1401.915544 146.222024 
L -1393.867467 145.373326 
L -1385.81939 144.560892 
L -1377.771313 146.735855 
L -1369.723236 147.786834 
L -1361.675159 145.785347 
L -1353.627082 146.541742 
L -1345.579005 146.409325 
L -1337.530929 149.865903 
L -1329.482852 148.605606 
L -1321.434775 148.200628 
L -1313.386698 149.492626 
L -1305.338621 151.414002 
L -1297.290544 151.106459 
L -1289.242467 150.057385 
L -1281.19439 151.410132 
L -1273.146313 149.629853 
L -1265.098236 150.446396 
L -1257.050159 154.851858 
L -1249.002082 155.241148 
L -1240.954005 153.758174 
L -1232.905929 153.922843 
L -1224.857852 154.896393 
L -1216.809775 153.321995 
L -1208.761698 154.644467 
L -1200.713621 155.390687 
L -1192.665544 155.719694 
L -1184.617467 155.896795 
L -1176.56939 155.346362 
L -1168.521313 157.029405 
L -1160.473236 156.919601 
L -1152.425159 157.533607 
L -1144.377082 157.911059 
L -1136.329005 158.759353 
L -1128.280929 158.560923 
L -1120.232852 157.485194 
L -1112.184775 158.25308 
L -1104.136698 157.56902 
L -1096.088621 156.110413 
L -1088.040544 158.630237 
L -1079.992467 156.421875 
L -1071.94439 158.513242 
L -1063.896313 158.678299 
L -1055.848236 159.648745 
L -1047.800159 158.436767 
L -1039.752082 159.04468 
L -1031.704005 159.492133 
L -1023.655929 157.743097 
L -1015.607852 159.097579 
L -1007.559775 159.610521 
L -999.511698 160.219197 
L -991.463621 159.763023 
L -983.415544 160.999095 
L -975.367467 160.496017 
L -967.31939 160.076171 
L -959.271313 158.996432 
L -951.223236 159.131244 
L -943.175159 159.466995 
L -935.127082 158.950963 
L -927.079005 159.861579 
L -919.030929 159.958178 
L -910.982852 159.54596 
L -902.934775 160.289193 
L -894.886698 159.764463 
L -886.838621 161.472262 
L -878.790544 161.262545 
L -870.742467 162.018317 
L -862.69439 161.2106 
L -854.646313 159.61504 
L -846.598236 162.292365 
L -838.550159 162.879484 
L -830.502082 162.854105 
L -822.454005 162.830195 
L -814.405929 162.046517 
L -806.357852 162.432691 
L -798.309775 162.190184 
L -790.261698 162.97174 
L -782.213621 163.287245 
L -774.165544 162.488795 
L -766.117467 161.370914 
L -758.06939 164.361594 
L -750.021313 164.374652 
L -741.973236 163.226345 
L -733.925159 164.754091 
L -725.877082 162.58628 
L -717.829005 163.191411 
L -709.780929 164.121641 
L -701.732852 162.786289 
L -693.684775 166.742877 
L -685.636698 164.119221 
L -677.588621 162.843224 
L -669.540544 165.335375 
L -661.492467 166.627966 
L -653.44439 166.496292 
L -645.396313 168.132041 
L -637.348236 167.149107 
L -629.300159 170.555531 
L -621.252082 169.360039 
L -613.204005 170.443625 
L -605.155929 169.524333 
L -597.107852 168.461458 
L -589.059775 171.403401 
L -581.011698 176.381482 
L -572.963621 171.856378 
L -564.915544 173.231451 
L -556.867467 171.681293 
L -548.81939 174.261946 
L -540.771313 173.476238 
L -532.723236 173.228091 
L -524.675159 173.026773 
L -516.627082 176.244859 
L -508.579005 175.828639 
L -500.530929 178.349034 
L -492.482852 178.712187 
L -484.434775 173.287369 
L -476.386698 177.109333 
L -468.338621 175.932411 
L -460.290544 178.801698 
L -452.242467 178.6222 
L -444.19439 182.905752 
L -436.146313 184.999396 
L -428.098236 185.530189 
L -420.050159 191.417186 
L -412.002082 199.495296 
L -403.954005 189.400245 
L -395.905929 190.455489 
L -387.857852 188.945402 
L -379.809775 192.67895 
L -371.761698 193.921862 
L -363.713621 194.106982 
L -355.665544 203.252715 
L -347.617467 203.937415 
L -339.56939 196.099697 
L -331.521313 203.679095 
L -323.473236 201.774762 
L -315.425159 198.369837 
L -307.377082 208.142583 
L -299.329005 207.454398 
L -291.280929 213.160875 
L -283.232852 209.194338 
L -275.184775 207.526618 
L -267.136698 211.635366 
L -259.088621 211.698647 
L -251.040544 216.489675 
L -242.992467 213.449884 
L -234.94439 220.824934 
L -226.896313 217.175822 
L -218.848236 220.399315 
L -210.800159 219.453783 
L -202.752082 223.206228 
L -194.704005 217.447847 
L -186.655929 225.527727 
L -178.607852 224.246919 
L -170.559775 230.827299 
L -162.511698 231.137682 
L -154.463621 234.203174 
L -146.415544 232.846863 
L -138.367467 235.553385 
L -130.31939 240.502839 
L -122.271313 236.900012 
L -114.223236 235.950006 
L -106.175159 238.710339 
L -98.127082 241.957341 
L -90.079005 238.312803 
L -82.030929 234.467861 
L -73.982852 244.841312 
L -65.934775 252.177963 
L -57.886698 240.28149 
L -49.838621 243.514202 
L -41.790544 246.169781 
L -33.742467 246.114919 
L -25.69439 252.103118 
L -17.646313 252.781643 
L -9.598236 249.761491 
L -1.550159 252.945812 
L 6.497918 254.102795 
L 14.545995 247.712304 
L 22.594071 250.339936 
L 30.642148 247.706909 
L 38.690225 258.969678 
L 46.738302 269.919392 
L 54.786379 268.119212 
L 62.834456 259.566161 
L 70.882533 258.945087 
L 78.93061 259.617537 
L 86.978687 259.224833 
L 95.026764 268.789045 
L 103.074841 259.185356 
L 111.122918 270.036223 
L 119.170995 278.791125 
L 127.219071 271.503491 
L 135.267148 284.519347 
L 143.315225 275.092854 
L 151.363302 284.468544 
L 159.411379 279.59467 
L 167.459456 282.280336 
L 175.507533 288.69906 
L 183.55561 288.597534 
L 191.603687 290.674037 
L 199.651764 290.598297 
L 207.699841 291.241947 
L 215.747918 274.073173 
L 223.795995 297.499186 
L 231.844071 306.54951 
L 239.892148 298.03165 
L 247.940225 303.079822 
L 255.988302 308.70567 
L 264.036379 301.249403 
L 272.084456 309.874679 
L 280.132533 316.715018 
L 288.18061 312.581666 
L 296.228687 316.345934 
L 304.276764 318.198379 
L 312.324841 319.271342 
L 320.372918 321.275116 
L 328.420995 311.505766 
L 336.469071 330.342826 
L 344.517148 330.485639 
L 352.565225 330.366777 
L 360.613302 318.001717 
L 368.661379 334.055729 
L 376.709456 342.650488 
L 384.757533 334.574003 
L 392.80561 334.426692 
L 400.853687 348.792641 
L 408.901764 321.520811 
L 416.949841 345.864146 
L 424.997918 327.816787 
L 433.045995 353.393433 
L 441.094071 342.786697 
L 449.142148 352.367382 
L 457.190225 354.925914 
L 465.238302 357.387813 
L 473.286379 358.315492 
L 481.334456 352.568549 
L 489.382533 353.276292 
L 497.43061 358.554053 
L 505.478687 364.754641 
L 513.526764 364.718779 
L 521.574841 363.673653 
L 529.622918 369.966697 
L 537.670995 369.554129 
L 545.719071 364.324745 
L 553.767148 363.227652 
L 561.815225 375.083419 
L 569.863302 375.620769 
L 577.911379 377.64 
L 585.959456 370.906689 
L 594.007533 355.901023 
L 602.05561 370.866202 
L 610.103687 366.30806 
L 618.151764 369.721061 
L 626.199841 374.540807 
L 634.247918 366.779067 
L 642.295995 375.732587 
L 650.344071 367.436341 
L 658.392148 366.622294 
L 666.440225 366.886146 
L 674.488302 372.030378 
L 682.536379 370.88641 
L 690.584456 369.150268 
L 698.632533 362.584313 
L 706.68061 365.325521 
L 714.728687 367.227282 
L 722.776764 363.992772 
L 730.824841 368.050668 
L 738.872918 363.772761 
L 746.920995 366.23149 
L 754.969071 370.545688 
L 763.017148 369.207031 
L 771.065225 363.768853 
L 779.113302 363.31811 
L 787.161379 361.838319 
L 795.209456 363.483022 
L 803.257533 362.835076 
L 811.30561 354.247438 
L 819.353687 359.962323 
L 827.401764 321.851669 
L 835.449841 358.767853 
L 843.497918 360.717455 
L 851.545995 354.614858 
L 859.594071 348.282244 
L 867.642148 358.665443 
L 875.690225 353.094825 
L 883.738302 343.804944 
L 891.786379 348.624556 
L 899.834456 348.093293 
L 907.882533 345.066516 
L 915.93061 349.610095 
L 923.978687 345.064277 
L 932.026764 346.550287 
L 940.074841 347.444573 
L 940.074841 160.008352 
L 940.074841 160.008352 
L 932.026764 163.904829 
L 923.978687 162.369756 
L 915.93061 164.527308 
L 907.882533 162.31304 
L 899.834456 163.955022 
L 891.786379 163.303724 
L 883.738302 164.534286 
L 875.690225 168.139383 
L 867.642148 169.10843 
L 859.594071 167.482071 
L 851.545995 168.539717 
L 843.497918 172.495174 
L 835.449841 170.858089 
L 827.401764 164.696183 
L 819.353687 172.887712 
L 811.30561 172.264282 
L 803.257533 174.749643 
L 795.209456 175.559852 
L 787.161379 175.569024 
L 779.113302 177.372982 
L 771.065225 178.0326 
L 763.017148 180.309291 
L 754.969071 181.420617 
L 746.920995 181.096261 
L 738.872918 180.884089 
L 730.824841 182.328615 
L 722.776764 181.214274 
L 714.728687 182.800812 
L 706.68061 183.208509 
L 698.632533 182.915405 
L 690.584456 186.113722 
L 682.536379 187.318092 
L 674.488302 189.03064 
L 666.440225 186.798833 
L 658.392148 187.855679 
L 650.344071 189.098235 
L 642.295995 192.506366 
L 634.247918 189.829841 
L 626.199841 193.422073 
L 618.151764 192.107114 
L 610.103687 191.580293 
L 602.05561 193.914729 
L 594.007533 189.722698 
L 585.959456 194.98931 
L 577.911379 198.818583 
L 569.863302 198.708168 
L 561.815225 198.958959 
L 553.767148 195.989514 
L 545.719071 196.400472 
L 537.670995 199.115918 
L 529.622918 199.698657 
L 521.574841 197.97021 
L 513.526764 198.8086 
L 505.478687 200.028096 
L 497.43061 196.701176 
L 489.382533 196.199861 
L 481.334456 196.817986 
L 473.286379 199.852347 
L 465.238302 200.045557 
L 457.190225 199.084329 
L 449.142148 198.597678 
L 441.094071 195.493488 
L 433.045995 200.317743 
L 424.997918 192.249339 
L 416.949841 199.168038 
L 408.901764 189.845034 
L 400.853687 201.229496 
L 392.80561 195.820791 
L 384.757533 196.024974 
L 376.709456 201.231078 
L 368.661379 197.584917 
L 360.613302 191.713111 
L 352.565225 197.824112 
L 344.517148 198.193247 
L 336.469071 198.734152 
L 328.420995 190.773976 
L 320.372918 198.478235 
L 312.324841 195.803765 
L 304.276764 195.466719 
L 296.228687 195.561895 
L 288.18061 195.148727 
L 280.132533 197.673281 
L 272.084456 195.439994 
L 264.036379 191.720651 
L 255.988302 194.777672 
L 247.940225 194.704277 
L 239.892148 191.499746 
L 231.844071 196.640699 
L 223.795995 192.946895 
L 215.747918 182.821175 
L 207.699841 192.017015 
L 199.651764 192.432458 
L 191.603687 192.950508 
L 183.55561 192.68209 
L 175.507533 193.721639 
L 167.459456 191.069553 
L 159.411379 190.128337 
L 151.363302 193.230389 
L 143.315225 190.523345 
L 135.267148 195.33146 
L 127.219071 189.719023 
L 119.170995 194.661079 
L 111.122918 190.45422 
L 103.074841 185.010274 
L 95.026764 191.666905 
L 86.978687 187.797378 
L 78.93061 188.296215 
L 70.882533 188.35645 
L 62.834456 189.610815 
L 54.786379 195.275582 
L 46.738302 196.900401 
L 38.690225 191.419361 
L 30.642148 187.077548 
L 22.594071 188.878656 
L 14.545995 187.702721 
L 6.497918 191.984094 
L -1.550159 192.245955 
L -9.598236 191.400598 
L -17.646313 193.414172 
L -25.69439 194.459823 
L -33.742467 191.693254 
L -41.790544 191.804617 
L -49.838621 191.376002 
L -57.886698 189.94431 
L -65.934775 197.201343 
L -73.982852 194.781267 
L -82.030929 188.739678 
L -90.079005 190.880928 
L -98.127082 194.223345 
L -106.175159 193.058625 
L -114.223236 191.706341 
L -122.271313 192.683756 
L -130.31939 194.521896 
L -138.367467 193.455993 
L -146.415544 191.825932 
L -154.463621 193.073708 
L -162.511698 193.493147 
L -170.559775 192.211404 
L -178.607852 189.375791 
L -186.655929 190.009295 
L -194.704005 185.650533 
L -202.752082 190.325243 
L -210.800159 187.930632 
L -218.848236 188.735426 
L -226.896313 186.582302 
L -234.94439 190.227098 
L -242.992467 185.870929 
L -251.040544 187.967459 
L -259.088621 185.429289 
L -267.136698 185.709984 
L -275.184775 183.117562 
L -283.232852 186.495059 
L -291.280929 188.217278 
L -299.329005 183.971357 
L -307.377082 185.701878 
L -315.425159 178.919785 
L -323.473236 181.020462 
L -331.521313 184.22446 
L -339.56939 178.71259 
L -347.617467 185.496243 
L -355.665544 183.780508 
L -363.713621 178.477234 
L -371.761698 178.80808 
L -379.809775 178.526504 
L -387.857852 176.207535 
L -395.905929 176.333365 
L -403.954005 176.693428 
L -412.002082 184.79938 
L -420.050159 178.527258 
L -428.098236 174.760614 
L -436.146313 175.086231 
L -444.19439 173.779949 
L -452.242467 170.275164 
L -460.290544 169.954114 
L -468.338621 169.505782 
L -476.386698 169.241949 
L -484.434775 166.793558 
L -492.482852 172.276371 
L -500.530929 171.763196 
L -508.579005 169.626113 
L -516.627082 170.489376 
L -524.675159 168.095739 
L -532.723236 168.184335 
L -540.771313 168.942293 
L -548.81939 168.810212 
L -556.867467 167.46183 
L -564.915544 168.877206 
L -572.963621 168.13105 
L -581.011698 172.632614 
L -589.059775 167.818435 
L -597.107852 164.884046 
L -605.155929 166.268266 
L -613.204005 166.577266 
L -621.252082 165.550595 
L -629.300159 167.881861 
L -637.348236 163.846841 
L -645.396313 165.099677 
L -653.44439 162.910314 
L -661.492467 162.43131 
L -669.540544 160.437591 
L -677.588621 157.969763 
L -685.636698 159.825225 
L -693.684775 162.650363 
L -701.732852 157.935648 
L -709.780929 159.238476 
L -717.829005 157.40885 
L -725.877082 157.809421 
L -733.925159 159.869046 
L -741.973236 158.092372 
L -750.021313 159.655749 
L -758.06939 159.512799 
L -766.117467 156.062847 
L -774.165544 156.81333 
L -782.213621 157.783764 
L -790.261698 157.632689 
L -798.309775 156.786681 
L -806.357852 157.27077 
L -814.405929 156.314915 
L -822.454005 157.379177 
L -830.502082 157.149796 
L -838.550159 156.832183 
L -846.598236 156.484127 
L -854.646313 152.349327 
L -862.69439 155.288298 
L -870.742467 156.00887 
L -878.790544 154.837733 
L -886.838621 154.192501 
L -894.886698 153.540216 
L -902.934775 153.821642 
L -910.982852 152.752986 
L -919.030929 153.585059 
L -927.079005 153.349122 
L -935.127082 152.244862 
L -943.175159 151.968516 
L -951.223236 151.978974 
L -959.271313 152.051151 
L -967.31939 154.071921 
L -975.367467 153.900257 
L -983.415544 154.427313 
L -991.463621 153.008609 
L -999.511698 153.483821 
L -1007.559775 152.696697 
L -1015.607852 152.218605 
L -1023.655929 149.801887 
L -1031.704005 152.969821 
L -1039.752082 152.267944 
L -1047.800159 151.566973 
L -1055.848236 153.003022 
L -1063.896313 151.650433 
L -1071.94439 151.537068 
L -1079.992467 149.19994 
L -1088.040544 151.312492 
L -1096.088621 148.645263 
L -1104.136698 150.843183 
L -1112.184775 151.62348 
L -1120.232852 150.869633 
L -1128.280929 152.44069 
L -1136.329005 153.047574 
L -1144.377082 151.771911 
L -1152.425159 151.53436 
L -1160.473236 150.59251 
L -1168.521313 150.926247 
L -1176.56939 148.852834 
L -1184.617467 149.785513 
L -1192.665544 150.10464 
L -1200.713621 149.670859 
L -1208.761698 148.951124 
L -1216.809775 147.745153 
L -1224.857852 149.412429 
L -1232.905929 148.557916 
L -1240.954005 148.757618 
L -1249.002082 150.236431 
L -1257.050159 149.818206 
L -1265.098236 145.736454 
L -1273.146313 145.095285 
L -1281.19439 146.916056 
L -1289.242467 145.951401 
L -1297.290544 146.922537 
L -1305.338621 147.418196 
L -1313.386698 145.501472 
L -1321.434775 144.911032 
L -1329.482852 145.28149 
L -1337.530929 146.653888 
L -1345.579005 143.102771 
L -1353.627082 143.025226 
L -1361.675159 141.705675 
L -1369.723236 144.280882 
L -1377.771313 142.315789 
L -1385.81939 139.692078 
L -1393.867467 140.584236 
L -1401.915544 141.765938 
L -1409.963621 135.741793 
L -1418.011698 139.437284 
L -1426.059775 132.636669 
L -1434.107852 131.477478 
L -1442.155929 129.404465 
L -1450.204005 129.644534 
L -1458.252082 129.492188 
L -1466.300159 128.403432 
L -1474.348236 124.669739 
L -1482.396313 125.60029 
L -1490.44439 118.850999 
L -1498.492467 109.906686 
L -1506.540544 111.889999 
L -1514.588621 115.332038 
L -1522.636698 104.745535 
L -1530.684775 105.67674 
L -1538.732852 102.402868 
L -1546.780929 101.459655 
L -1554.829005 88.759862 
L -1562.877082 86.839048 
L -1570.925159 82.278259 
L -1578.973236 72.678206 
L -1587.021313 64.883224 
L -1595.06939 72.250908 
L -1603.117467 67.906189 
L -1611.165544 61.20445 
L -1619.213621 58.310099 
L -1627.261698 53.49348 
L -1635.309775 47.136548 
L -1643.357852 49.220017 
L -1651.405929 38.595514 
L -1659.454005 32.912276 
L -1667.502082 30.246463 
L -1675.550159 28.02149 
L -1683.598236 28.885505 
L -1691.646313 26.15129 
L -1699.69439 28.071512 
L -1707.742467 30.641019 
L -1715.790544 25.54985 
L -1723.838621 24.84 
L -1731.886698 29.211816 
L -1739.934775 29.968138 
L -1747.982852 27.894695 
L -1756.030929 37.087873 
L -1764.079005 30.063102 
L -1772.127082 32.005993 
L -1780.175159 38.920162 
L -1788.223236 36.507476 
L -1796.271313 38.803266 
L -1804.31939 40.798698 
L -1812.367467 43.211044 
L -1820.415544 45.47671 
L -1828.463621 48.070565 
L -1836.511698 50.434895 
L -1844.559775 52.274079 
L -1852.607852 55.460525 
L -1860.655929 55.872229 
L -1868.704005 61.233298 
L -1876.752082 60.951242 
L -1884.800159 63.379416 
L -1892.848236 66.285125 
L -1900.896313 68.315011 
L -1908.94439 71.064328 
L -1916.992467 72.871951 
L -1925.040544 75.938286 
L -1933.088621 77.57247 
L -1941.136698 79.829009 
L -1949.184775 82.28194 
L -1957.232852 84.890733 
L -1965.280929 86.331389 
L -1973.329005 88.886781 
L -1981.377082 90.278997 
L -1989.425159 92.89683 
L -1997.473236 94.719181 
L -2005.521313 96.788974 
L -2013.56939 98.764713 
L -2021.617467 100.596219 
L -2029.665544 102.099488 
L -2037.713621 103.673143 
L -2045.761698 104.117952 
L -2053.809775 106.18186 
L -2061.857852 107.370145 
L -2069.905929 108.347472 
L -2077.954005 109.695457 
L -2086.002082 110.276321 
L -2094.050159 111.40534 
L -2102.098236 112.586901 
L -2110.146313 113.959039 
L -2118.19439 114.867723 
L -2126.242467 115.766442 
L -2134.290544 116.808062 
L -2142.338621 117.799188 
L -2150.386698 118.917259 
L -2158.434775 119.700702 
L -2166.482852 120.614453 
L -2174.530929 121.261668 
L -2182.579005 122.397773 
L -2190.627082 123.062123 
L -2198.675159 123.901163 
L -2206.723236 125.088862 
L -2214.771313 125.749777 
L -2222.81939 125.575626 
L -2230.867467 126.499912 
L -2238.915544 126.728563 
L -2246.963621 127.618387 
L -2255.011698 128.740598 
L -2263.059775 129.088979 
L -2271.107852 129.402663 
L -2279.155929 129.109163 
L -2287.204005 129.495809 
L -2295.252082 129.563823 
L -2303.300159 129.681955 
L -2311.348236 130.440357 
L -2319.396313 130.723965 
L -2327.44439 131.314649 
L -2335.492467 130.398752 
L -2343.540544 130.587922 
L -2351.588621 129.391302 
L -2359.636698 130.421833 
L -2367.684775 130.317081 
L -2375.732852 131.004822 
L -2383.780929 128.626096 
L -2391.829005 130.90521 
L -2399.877082 130.441132 
L -2407.925159 128.743697 
L -2415.973236 128.152273 
L -2424.021313 129.248268 
L -2432.06939 131.298645 
L -2440.117467 130.202715 
L -2448.165544 129.964841 
L -2456.213621 127.505141 
L -2464.261698 127.325785 
L -2472.309775 127.836355 
L -2480.357852 129.095636 
L -2488.405929 128.507318 
L -2496.454005 128.100339 
L -2504.502082 128.216142 
L -2512.550159 128.975715 
L -2520.598236 128.685278 
L -2528.646313 129.14478 
L -2536.69439 129.972361 
L -2544.742467 129.267377 
L -2552.790544 130.518264 
L -2560.838621 130.665839 
L -2568.886698 130.776845 
L -2576.934775 131.562979 
L -2584.982852 131.73072 
L -2593.030929 132.615749 
L -2601.079005 133.588001 
L -2609.127082 133.574839 
L -2617.175159 133.144477 
L -2625.223236 132.833015 
L -2633.271313 134.939765 
L -2641.31939 134.554263 
L -2649.367467 135.964822 
L -2657.415544 135.972638 
L -2665.463621 135.407883 
L -2673.511698 136.804086 
L -2681.559775 135.475817 
L -2689.607852 135.527885 
L -2697.655929 137.304551 
L -2705.704005 135.996141 
L -2713.752082 137.670057 
L -2721.800159 138.190388 
L -2729.848236 136.736502 
L -2737.896313 132.161181 
L -2745.94439 135.037201 
L -2753.992467 133.610746 
L -2762.040544 126.69024 
L -2770.088621 132.525963 
L -2778.136698 133.663541 
L -2786.184775 127.174608 
L -2794.232852 125.269953 
L -2802.280929 128.744509 
L -2810.329005 121.166964 
L -2818.377082 108.182233 
L -2826.425159 122.296729 
L -2834.473236 127.881765 
L -2842.521313 130.465837 
L -2850.56939 112.57913 
L -2858.617467 113.212776 
L -2866.665544 104.427268 
L -2874.713621 97.663229 
L -2882.761698 111.040738 
L -2890.809775 105.096255 
L -2898.857852 93.03423 
L -2906.905929 84.573626 
L -2914.954005 84.918368 
L -2923.002082 86.188317 
L -2931.050159 84.274262 
L -2939.098236 83.074819 
L -2947.146313 87.624232 
L -2955.19439 86.900895 
L -2963.242467 83.635611 
L -2971.290544 85.323212 
L -2979.338621 83.850244 
L -2987.386698 83.162793 
L -2995.434775 83.075163 
L -3003.482852 84.745192 
L -3011.530929 85.649743 
L -3019.579005 86.099177 
L -3027.627082 87.519683 
L -3035.675159 88.094688 
L -3043.723236 89.201678 
L -3051.771313 91.079708 
L -3059.81939 92.498743 
L -3067.867467 93.43229 
L -3075.915544 94.488754 
L -3083.963621 95.951871 
L -3092.011698 96.813898 
L -3100.059775 98.219564 
L -3108.107852 99.958608 
L -3116.155929 100.963777 
L -3124.204005 101.590433 
L -3132.252082 102.621694 
L -3140.300159 103.680751 
L -3148.348236 104.659355 
L -3156.396313 105.595036 
L -3164.44439 106.494262 
L -3172.492467 107.776752 
L -3180.540544 108.391803 
L -3188.588621 109.31529 
L -3196.636698 110.286955 
L -3204.684775 111.100006 
L -3212.732852 111.895111 
L -3220.780929 112.546315 
L -3228.829005 113.260719 
L -3236.877082 114.254771 
L -3244.925159 114.921843 
L -3252.973236 115.720024 
L -3261.021313 116.353053 
L -3269.06939 117.077552 
L -3277.117467 117.82226 
L -3285.165544 118.573065 
L -3293.213621 119.179899 
L -3301.261698 119.910168 
L -3309.309775 120.550938 
L -3317.357852 121.24111 
L -3325.405929 121.877772 
L -3333.454005 122.54715 
L -3341.502082 123.161452 
L -3349.550159 123.824377 
L -3357.598236 124.543464 
L -3365.646313 125.083688 
L -3373.69439 125.769483 
L -3381.742467 126.357023 
L -3389.790544 127.043857 
L -3397.838621 127.538458 
L -3405.886698 128.176385 
L -3413.934775 128.783609 
L -3421.982852 129.3609 
L -3430.030929 129.949476 
L -3438.079005 130.492007 
L -3446.127082 131.129193 
L -3454.175159 131.700024 
L -3462.223236 132.165316 
L -3470.271313 132.722463 
L -3478.31939 133.278215 
L -3486.367467 133.83043 
L -3494.415544 134.36127 
L -3502.463621 134.852912 
L -3510.511698 135.396008 
L -3518.559775 135.92649 
L -3526.607852 136.45866 
L -3534.655929 136.987552 
L -3542.704005 137.530246 
L -3550.752082 138.094356 
L -3558.800159 138.573434 
L -3566.848236 139.126403 
L -3574.896313 139.666885 
L -3582.94439 140.182641 
L -3590.992467 140.714962 
L -3599.040544 141.257977 
L -3607.088621 141.782136 
L -3615.136698 142.333569 
L -3623.184775 142.830776 
L -3631.232852 143.338568 
L -3639.280929 143.877234 
L -3647.329005 144.394689 
L -3655.377082 144.881977 
L -3663.425159 145.399859 
L -3671.473236 145.866206 
L -3679.521313 146.367547 
L -3687.56939 146.904467 
L -3695.617467 147.355577 
L -3703.665544 147.866439 
L -3711.713621 148.345352 
L -3719.761698 148.84959 
L -3727.809775 149.298589 
L -3735.857852 149.833647 
L -3743.905929 150.264301 
L -3751.954005 150.755018 
L -3760.002082 151.233072 
L -3768.050159 151.724678 
L -3776.098236 152.187991 
L -3784.146313 152.661309 
L -3792.19439 153.137082 
L -3800.242467 153.611935 
L -3808.290544 154.041293 
L -3816.338621 154.448163 
L -3824.386698 154.866746 
L -3832.434775 155.289654 
L -3840.482852 155.696931 
L -3848.530929 156.11367 
L -3856.579005 156.526331 
L -3864.627082 156.919087 
L -3872.675159 157.318765 
L -3880.723236 157.717663 
L -3888.771313 158.076766 
L -3896.81939 158.444917 
L -3904.867467 158.833431 
L -3912.915544 159.200549 
L -3920.963621 159.525224 
L -3929.011698 159.890333 
L -3937.059775 160.221833 
L -3945.107852 160.525616 
L -3953.155929 160.831709 
L -3961.204005 161.117207 
L -3969.252082 161.430375 
L -3977.300159 161.684396 
L -3985.348236 161.956856 
L -3993.396313 162.213194 
L -4001.44439 162.450127 
L -4009.492467 162.66497 
L -4017.540544 162.859105 
L -4025.588621 163.053317 
L -4033.636698 163.247106 
L -4041.684775 163.404556 
L -4049.732852 163.584538 
L -4057.780929 163.734604 
L -4065.829005 163.86194 
L -4073.877082 164.015757 
L -4081.925159 164.149041 
L -4089.973236 164.257017 
L -4098.021313 164.375019 
L -4106.06939 164.489958 
L -4114.117467 164.589627 
L -4122.165544 164.690283 
L -4130.213621 164.771338 
L -4138.261698 164.872943 
L -4146.309775 164.951187 
L -4154.357852 165.034571 
L -4162.405929 165.123153 
L -4170.454005 165.193245 
L -4178.502082 165.26864 
L -4186.550159 165.371652 
L -4194.598236 165.441037 
L -4202.646313 165.529243 
L -4210.69439 165.596902 
L -4218.742467 165.691196 
L -4226.790544 165.763795 
L -4234.838621 165.841646 
L -4242.886698 165.9088 
L -4250.934775 165.96945 
L -4258.982852 166.041128 
L -4267.030929 166.122859 
L -4275.079005 166.202704 
L -4283.127082 166.26993 
L -4291.175159 166.321373 
L -4299.223236 166.401216 
L -4307.271313 166.464358 
L -4315.31939 166.542121 
z
" clip-path="url(#pd1892cdab3)" style="fill: #008000; fill-opacity: 0.3; stroke: #008000; stroke-opacity: 0.3"/>
   </g>
   <g id="matplotlib.axis_1">
    <g id="xtick_1">
     <g id="line2d_1">
      <defs>
       <path id="mecc2d188c1" d="M 0 0 
L 0 3.5 
" style="stroke: #000000; stroke-width: 0.8"/>
      </defs>
      <g>
       <use xlink:href="#mecc2d188c1" x="103.074841" y="395.28" style="stroke: #000000; stroke-width: 0.8"/>
      </g>
     </g>
     <g id="text_1">
      <!-- 2023-01-01 -->
      <g transform="translate(17.945813 495.213718) rotate(-45) scale(0.2 -0.2)">
       <defs>
        <path id="DejaVuSans-32" d="M 1228 531 
L 3431 531 
L 3431 0 
L 469 0 
L 469 531 
Q 828 903 1448 1529 
Q 2069 2156 2228 2338 
Q 2531 2678 2651 2914 
Q 2772 3150 2772 3378 
Q 2772 3750 2511 3984 
Q 2250 4219 1831 4219 
Q 1534 4219 1204 4116 
Q 875 4013 500 3803 
L 500 4441 
Q 881 4594 1212 4672 
Q 1544 4750 1819 4750 
Q 2544 4750 2975 4387 
Q 3406 4025 3406 3419 
Q 3406 3131 3298 2873 
Q 3191 2616 2906 2266 
Q 2828 2175 2409 1742 
Q 1991 1309 1228 531 
z
" transform="scale(0.015625)"/>
        <path id="DejaVuSans-30" d="M 2034 4250 
Q 1547 4250 1301 3770 
Q 1056 3291 1056 2328 
Q 1056 1369 1301 889 
Q 1547 409 2034 409 
Q 2525 409 2770 889 
Q 3016 1369 3016 2328 
Q 3016 3291 2770 3770 
Q 2525 4250 2034 4250 
z
M 2034 4750 
Q 2819 4750 3233 4129 
Q 3647 3509 3647 2328 
Q 3647 1150 3233 529 
Q 2819 -91 2034 -91 
Q 1250 -91 836 529 
Q 422 1150 422 2328 
Q 422 3509 836 4129 
Q 1250 4750 2034 4750 
z
" transform="scale(0.015625)"/>
        <path id="DejaVuSans-33" d="M 2597 2516 
Q 3050 2419 3304 2112 
Q 3559 1806 3559 1356 
Q 3559 666 3084 287 
Q 2609 -91 1734 -91 
Q 1441 -91 1130 -33 
Q 819 25 488 141 
L 488 750 
Q 750 597 1062 519 
Q 1375 441 1716 441 
Q 2309 441 2620 675 
Q 2931 909 2931 1356 
Q 2931 1769 2642 2001 
Q 2353 2234 1838 2234 
L 1294 2234 
L 1294 2753 
L 1863 2753 
Q 2328 2753 2575 2939 
Q 2822 3125 2822 3475 
Q 2822 3834 2567 4026 
Q 2313 4219 1838 4219 
Q 1578 4219 1281 4162 
Q 984 4106 628 3988 
L 628 4550 
Q 988 4650 1302 4700 
Q 1616 4750 1894 4750 
Q 2613 4750 3031 4423 
Q 3450 4097 3450 3541 
Q 3450 3153 3228 2886 
Q 3006 2619 2597 2516 
z
" transform="scale(0.015625)"/>
        <path id="DejaVuSans-2d" d="M 313 2009 
L 1997 2009 
L 1997 1497 
L 313 1497 
L 313 2009 
z
" transform="scale(0.015625)"/>
        <path id="DejaVuSans-31" d="M 794 531 
L 1825 531 
L 1825 4091 
L 703 3866 
L 703 4441 
L 1819 4666 
L 2450 4666 
L 2450 531 
L 3481 531 
L 3481 0 
L 794 0 
L 794 531 
z
" transform="scale(0.015625)"/>
       </defs>
       <use xlink:href="#DejaVuSans-32"/>
       <use xlink:href="#DejaVuSans-30" x="63.623047"/>
       <use xlink:href="#DejaVuSans-32" x="127.246094"/>
       <use xlink:href="#DejaVuSans-33" x="190.869141"/>
       <use xlink:href="#DejaVuSans-2d" x="254.492188"/>
       <use xlink:href="#DejaVuSans-30" x="290.576172"/>
       <use xlink:href="#DejaVuSans-31" x="354.199219"/>
       <use xlink:href="#DejaVuSans-2d" x="417.822266"/>
       <use xlink:href="#DejaVuSans-30" x="453.90625"/>
       <use xlink:href="#DejaVuSans-31" x="517.529297"/>
      </g>
     </g>
    </g>
    <g id="xtick_2">
     <g id="line2d_2">
      <g>
       <use xlink:href="#mecc2d188c1" x="215.747918" y="395.28" style="stroke: #000000; stroke-width: 0.8"/>
      </g>
     </g>
     <g id="text_2">
      <!-- 2023-01-15 -->
      <g transform="translate(130.61889 495.213718) rotate(-45) scale(0.2 -0.2)">
       <defs>
        <path id="DejaVuSans-35" d="M 691 4666 
L 3169 4666 
L 3169 4134 
L 1269 4134 
L 1269 2991 
Q 1406 3038 1543 3061 
Q 1681 3084 1819 3084 
Q 2600 3084 3056 2656 
Q 3513 2228 3513 1497 
Q 3513 744 3044 326 
Q 2575 -91 1722 -91 
Q 1428 -91 1123 -41 
Q 819 9 494 109 
L 494 744 
Q 775 591 1075 516 
Q 1375 441 1709 441 
Q 2250 441 2565 725 
Q 2881 1009 2881 1497 
Q 2881 1984 2565 2268 
Q 2250 2553 1709 2553 
Q 1456 2553 1204 2497 
Q 953 2441 691 2322 
L 691 4666 
z
" transform="scale(0.015625)"/>
       </defs>
       <use xlink:href="#DejaVuSans-32"/>
       <use xlink:href="#DejaVuSans-30" x="63.623047"/>
       <use xlink:href="#DejaVuSans-32" x="127.246094"/>
       <use xlink:href="#DejaVuSans-33" x="190.869141"/>
       <use xlink:href="#DejaVuSans-2d" x="254.492188"/>
       <use xlink:href="#DejaVuSans-30" x="290.576172"/>
       <use xlink:href="#DejaVuSans-31" x="354.199219"/>
       <use xlink:href="#DejaVuSans-2d" x="417.822266"/>
       <use xlink:href="#DejaVuSans-31" x="453.90625"/>
       <use xlink:href="#DejaVuSans-35" x="517.529297"/>
      </g>
     </g>
    </g>
    <g id="xtick_3">
     <g id="line2d_3">
      <g>
       <use xlink:href="#mecc2d188c1" x="328.420995" y="395.28" style="stroke: #000000; stroke-width: 0.8"/>
      </g>
     </g>
     <g id="text_3">
      <!-- 2023-01-29 -->
      <g transform="translate(243.291967 495.213718) rotate(-45) scale(0.2 -0.2)">
       <defs>
        <path id="DejaVuSans-39" d="M 703 97 
L 703 672 
Q 941 559 1184 500 
Q 1428 441 1663 441 
Q 2288 441 2617 861 
Q 2947 1281 2994 2138 
Q 2813 1869 2534 1725 
Q 2256 1581 1919 1581 
Q 1219 1581 811 2004 
Q 403 2428 403 3163 
Q 403 3881 828 4315 
Q 1253 4750 1959 4750 
Q 2769 4750 3195 4129 
Q 3622 3509 3622 2328 
Q 3622 1225 3098 567 
Q 2575 -91 1691 -91 
Q 1453 -91 1209 -44 
Q 966 3 703 97 
z
M 1959 2075 
Q 2384 2075 2632 2365 
Q 2881 2656 2881 3163 
Q 2881 3666 2632 3958 
Q 2384 4250 1959 4250 
Q 1534 4250 1286 3958 
Q 1038 3666 1038 3163 
Q 1038 2656 1286 2365 
Q 1534 2075 1959 2075 
z
" transform="scale(0.015625)"/>
       </defs>
       <use xlink:href="#DejaVuSans-32"/>
       <use xlink:href="#DejaVuSans-30" x="63.623047"/>
       <use xlink:href="#DejaVuSans-32" x="127.246094"/>
       <use xlink:href="#DejaVuSans-33" x="190.869141"/>
       <use xlink:href="#DejaVuSans-2d" x="254.492188"/>
       <use xlink:href="#DejaVuSans-30" x="290.576172"/>
       <use xlink:href="#DejaVuSans-31" x="354.199219"/>
       <use xlink:href="#DejaVuSans-2d" x="417.822266"/>
       <use xlink:href="#DejaVuSans-32" x="453.90625"/>
       <use xlink:href="#DejaVuSans-39" x="517.529297"/>
      </g>
     </g>
    </g>
    <g id="xtick_4">
     <g id="line2d_4">
      <g>
       <use xlink:href="#mecc2d188c1" x="441.094071" y="395.28" style="stroke: #000000; stroke-width: 0.8"/>
      </g>
     </g>
     <g id="text_4">
      <!-- 2023-02-12 -->
      <g transform="translate(355.965044 495.213718) rotate(-45) scale(0.2 -0.2)">
       <use xlink:href="#DejaVuSans-32"/>
       <use xlink:href="#DejaVuSans-30" x="63.623047"/>
       <use xlink:href="#DejaVuSans-32" x="127.246094"/>
       <use xlink:href="#DejaVuSans-33" x="190.869141"/>
       <use xlink:href="#DejaVuSans-2d" x="254.492188"/>
       <use xlink:href="#DejaVuSans-30" x="290.576172"/>
       <use xlink:href="#DejaVuSans-32" x="354.199219"/>
       <use xlink:href="#DejaVuSans-2d" x="417.822266"/>
       <use xlink:href="#DejaVuSans-31" x="453.90625"/>
       <use xlink:href="#DejaVuSans-32" x="517.529297"/>
      </g>
     </g>
    </g>
    <g id="xtick_5">
     <g id="line2d_5">
      <g>
       <use xlink:href="#mecc2d188c1" x="553.767148" y="395.28" style="stroke: #000000; stroke-width: 0.8"/>
      </g>
     </g>
     <g id="text_5">
      <!-- 2023-02-26 -->
      <g transform="translate(468.638121 495.213718) rotate(-45) scale(0.2 -0.2)">
       <defs>
        <path id="DejaVuSans-36" d="M 2113 2584 
Q 1688 2584 1439 2293 
Q 1191 2003 1191 1497 
Q 1191 994 1439 701 
Q 1688 409 2113 409 
Q 2538 409 2786 701 
Q 3034 994 3034 1497 
Q 3034 2003 2786 2293 
Q 2538 2584 2113 2584 
z
M 3366 4563 
L 3366 3988 
Q 3128 4100 2886 4159 
Q 2644 4219 2406 4219 
Q 1781 4219 1451 3797 
Q 1122 3375 1075 2522 
Q 1259 2794 1537 2939 
Q 1816 3084 2150 3084 
Q 2853 3084 3261 2657 
Q 3669 2231 3669 1497 
Q 3669 778 3244 343 
Q 2819 -91 2113 -91 
Q 1303 -91 875 529 
Q 447 1150 447 2328 
Q 447 3434 972 4092 
Q 1497 4750 2381 4750 
Q 2619 4750 2861 4703 
Q 3103 4656 3366 4563 
z
" transform="scale(0.015625)"/>
       </defs>
       <use xlink:href="#DejaVuSans-32"/>
       <use xlink:href="#DejaVuSans-30" x="63.623047"/>
       <use xlink:href="#DejaVuSans-32" x="127.246094"/>
       <use xlink:href="#DejaVuSans-33" x="190.869141"/>
       <use xlink:href="#DejaVuSans-2d" x="254.492188"/>
       <use xlink:href="#DejaVuSans-30" x="290.576172"/>
       <use xlink:href="#DejaVuSans-32" x="354.199219"/>
       <use xlink:href="#DejaVuSans-2d" x="417.822266"/>
       <use xlink:href="#DejaVuSans-32" x="453.90625"/>
       <use xlink:href="#DejaVuSans-36" x="517.529297"/>
      </g>
     </g>
    </g>
    <g id="xtick_6">
     <g id="line2d_6">
      <g>
       <use xlink:href="#mecc2d188c1" x="666.440225" y="395.28" style="stroke: #000000; stroke-width: 0.8"/>
      </g>
     </g>
     <g id="text_6">
      <!-- 2023-03-12 -->
      <g transform="translate(581.311198 495.213718) rotate(-45) scale(0.2 -0.2)">
       <use xlink:href="#DejaVuSans-32"/>
       <use xlink:href="#DejaVuSans-30" x="63.623047"/>
       <use xlink:href="#DejaVuSans-32" x="127.246094"/>
       <use xlink:href="#DejaVuSans-33" x="190.869141"/>
       <use xlink:href="#DejaVuSans-2d" x="254.492188"/>
       <use xlink:href="#DejaVuSans-30" x="290.576172"/>
       <use xlink:href="#DejaVuSans-33" x="354.199219"/>
       <use xlink:href="#DejaVuSans-2d" x="417.822266"/>
       <use xlink:href="#DejaVuSans-31" x="453.90625"/>
       <use xlink:href="#DejaVuSans-32" x="517.529297"/>
      </g>
     </g>
    </g>
    <g id="xtick_7">
     <g id="line2d_7">
      <g>
       <use xlink:href="#mecc2d188c1" x="779.113302" y="395.28" style="stroke: #000000; stroke-width: 0.8"/>
      </g>
     </g>
     <g id="text_7">
      <!-- 2023-03-26 -->
      <g transform="translate(693.984275 495.213718) rotate(-45) scale(0.2 -0.2)">
       <use xlink:href="#DejaVuSans-32"/>
       <use xlink:href="#DejaVuSans-30" x="63.623047"/>
       <use xlink:href="#DejaVuSans-32" x="127.246094"/>
       <use xlink:href="#DejaVuSans-33" x="190.869141"/>
       <use xlink:href="#DejaVuSans-2d" x="254.492188"/>
       <use xlink:href="#DejaVuSans-30" x="290.576172"/>
       <use xlink:href="#DejaVuSans-33" x="354.199219"/>
       <use xlink:href="#DejaVuSans-2d" x="417.822266"/>
       <use xlink:href="#DejaVuSans-32" x="453.90625"/>
       <use xlink:href="#DejaVuSans-36" x="517.529297"/>
      </g>
     </g>
    </g>
    <g id="xtick_8">
     <g id="line2d_8">
      <g>
       <use xlink:href="#mecc2d188c1" x="891.786379" y="395.28" style="stroke: #000000; stroke-width: 0.8"/>
      </g>
     </g>
     <g id="text_8">
      <!-- 2023-04-09 -->
      <g transform="translate(806.657352 495.213718) rotate(-45) scale(0.2 -0.2)">
       <defs>
        <path id="DejaVuSans-34" d="M 2419 4116 
L 825 1625 
L 2419 1625 
L 2419 4116 
z
M 2253 4666 
L 3047 4666 
L 3047 1625 
L 3713 1625 
L 3713 1100 
L 3047 1100 
L 3047 0 
L 2419 0 
L 2419 1100 
L 313 1100 
L 313 1709 
L 2253 4666 
z
" transform="scale(0.015625)"/>
       </defs>
       <use xlink:href="#DejaVuSans-32"/>
       <use xlink:href="#DejaVuSans-30" x="63.623047"/>
       <use xlink:href="#DejaVuSans-32" x="127.246094"/>
       <use xlink:href="#DejaVuSans-33" x="190.869141"/>
       <use xlink:href="#DejaVuSans-2d" x="254.492188"/>
       <use xlink:href="#DejaVuSans-30" x="290.576172"/>
       <use xlink:href="#DejaVuSans-34" x="354.199219"/>
       <use xlink:href="#DejaVuSans-2d" x="417.822266"/>
       <use xlink:href="#DejaVuSans-30" x="453.90625"/>
       <use xlink:href="#DejaVuSans-39" x="517.529297"/>
      </g>
     </g>
    </g>
    <g id="xtick_9">
     <g id="line2d_9">
      <g>
       <use xlink:href="#mecc2d188c1" x="940.074841" y="395.28" style="stroke: #000000; stroke-width: 0.8"/>
      </g>
     </g>
     <g id="text_9">
      <!-- 2023-04-15 -->
      <g transform="translate(854.945813 495.213718) rotate(-45) scale(0.2 -0.2)">
       <use xlink:href="#DejaVuSans-32"/>
       <use xlink:href="#DejaVuSans-30" x="63.623047"/>
       <use xlink:href="#DejaVuSans-32" x="127.246094"/>
       <use xlink:href="#DejaVuSans-33" x="190.869141"/>
       <use xlink:href="#DejaVuSans-2d" x="254.492188"/>
       <use xlink:href="#DejaVuSans-30" x="290.576172"/>
       <use xlink:href="#DejaVuSans-34" x="354.199219"/>
       <use xlink:href="#DejaVuSans-2d" x="417.822266"/>
       <use xlink:href="#DejaVuSans-31" x="453.90625"/>
       <use xlink:href="#DejaVuSans-35" x="517.529297"/>
      </g>
     </g>
    </g>
   </g>
   <g id="matplotlib.axis_2">
    <g id="ytick_1">
     <g id="line2d_10">
      <defs>
       <path id="m181a4ada1f" d="M 0 0 
L -3.5 0 
" style="stroke: #000000; stroke-width: 0.8"/>
      </defs>
      <g>
       <use xlink:href="#m181a4ada1f" x="103.074841" y="349.990538" style="stroke: #000000; stroke-width: 0.8"/>
      </g>
     </g>
     <g id="text_10">
      <!-- −0.15 -->
      <g transform="translate(34.784216 357.588976) scale(0.2 -0.2)">
       <defs>
        <path id="DejaVuSans-2212" d="M 678 2272 
L 4684 2272 
L 4684 1741 
L 678 1741 
L 678 2272 
z
" transform="scale(0.015625)"/>
        <path id="DejaVuSans-2e" d="M 684 794 
L 1344 794 
L 1344 0 
L 684 0 
L 684 794 
z
" transform="scale(0.015625)"/>
       </defs>
       <use xlink:href="#DejaVuSans-2212"/>
       <use xlink:href="#DejaVuSans-30" x="83.789062"/>
       <use xlink:href="#DejaVuSans-2e" x="147.412109"/>
       <use xlink:href="#DejaVuSans-31" x="179.199219"/>
       <use xlink:href="#DejaVuSans-35" x="242.822266"/>
      </g>
     </g>
    </g>
    <g id="ytick_2">
     <g id="line2d_11">
      <g>
       <use xlink:href="#m181a4ada1f" x="103.074841" y="288.866189" style="stroke: #000000; stroke-width: 0.8"/>
      </g>
     </g>
     <g id="text_11">
      <!-- −0.10 -->
      <g transform="translate(34.784216 296.464627) scale(0.2 -0.2)">
       <use xlink:href="#DejaVuSans-2212"/>
       <use xlink:href="#DejaVuSans-30" x="83.789062"/>
       <use xlink:href="#DejaVuSans-2e" x="147.412109"/>
       <use xlink:href="#DejaVuSans-31" x="179.199219"/>
       <use xlink:href="#DejaVuSans-30" x="242.822266"/>
      </g>
     </g>
    </g>
    <g id="ytick_3">
     <g id="line2d_12">
      <g>
       <use xlink:href="#m181a4ada1f" x="103.074841" y="227.74184" style="stroke: #000000; stroke-width: 0.8"/>
      </g>
     </g>
     <g id="text_12">
      <!-- −0.05 -->
      <g transform="translate(34.784216 235.340277) scale(0.2 -0.2)">
       <use xlink:href="#DejaVuSans-2212"/>
       <use xlink:href="#DejaVuSans-30" x="83.789062"/>
       <use xlink:href="#DejaVuSans-2e" x="147.412109"/>
       <use xlink:href="#DejaVuSans-30" x="179.199219"/>
       <use xlink:href="#DejaVuSans-35" x="242.822266"/>
      </g>
     </g>
    </g>
    <g id="ytick_4">
     <g id="line2d_13">
      <g>
       <use xlink:href="#m181a4ada1f" x="103.074841" y="166.61749" style="stroke: #000000; stroke-width: 0.8"/>
      </g>
     </g>
     <g id="text_13">
      <!-- 0.00 -->
      <g transform="translate(51.543591 174.215928) scale(0.2 -0.2)">
       <use xlink:href="#DejaVuSans-30"/>
       <use xlink:href="#DejaVuSans-2e" x="63.623047"/>
       <use xlink:href="#DejaVuSans-30" x="95.410156"/>
       <use xlink:href="#DejaVuSans-30" x="159.033203"/>
      </g>
     </g>
    </g>
    <g id="ytick_5">
     <g id="line2d_14">
      <g>
       <use xlink:href="#m181a4ada1f" x="103.074841" y="105.493141" style="stroke: #000000; stroke-width: 0.8"/>
      </g>
     </g>
     <g id="text_14">
      <!-- 0.05 -->
      <g transform="translate(51.543591 113.091578) scale(0.2 -0.2)">
       <use xlink:href="#DejaVuSans-30"/>
       <use xlink:href="#DejaVuSans-2e" x="63.623047"/>
       <use xlink:href="#DejaVuSans-30" x="95.410156"/>
       <use xlink:href="#DejaVuSans-35" x="159.033203"/>
      </g>
     </g>
    </g>
    <g id="ytick_6">
     <g id="line2d_15">
      <g>
       <use xlink:href="#m181a4ada1f" x="103.074841" y="44.368791" style="stroke: #000000; stroke-width: 0.8"/>
      </g>
     </g>
     <g id="text_15">
      <!-- 0.10 -->
      <g transform="translate(51.543591 51.967229) scale(0.2 -0.2)">
       <use xlink:href="#DejaVuSans-30"/>
       <use xlink:href="#DejaVuSans-2e" x="63.623047"/>
       <use xlink:href="#DejaVuSans-31" x="95.410156"/>
       <use xlink:href="#DejaVuSans-30" x="159.033203"/>
      </g>
     </g>
    </g>
   </g>
   <g id="line2d_16">
    <path d="M 940.074841 166.61749 
" clip-path="url(#pd1892cdab3)" style="fill: none; stroke: #ffa500; stroke-width: 1.5; stroke-linecap: square"/>
   </g>
   <g id="line2d_17">
    <path d="M 103.074841 166.61749 
L 948.274841 166.61749 
" clip-path="url(#pd1892cdab3)" style="fill: none; stroke-dasharray: 7.4,3.2; stroke-dashoffset: 0; stroke: #000000; stroke-width: 2"/>
   </g>
   <g id="patch_3">
    <path d="M 103.074841 395.28 
L 103.074841 7.2 
" style="fill: none; stroke: #000000; stroke-width: 0.8; stroke-linejoin: miter; stroke-linecap: square"/>
   </g>
   <g id="patch_4">
    <path d="M 940.074841 395.28 
L 940.074841 7.2 
" style="fill: none; stroke: #000000; stroke-width: 0.8; stroke-linejoin: miter; stroke-linecap: square"/>
   </g>
   <g id="patch_5">
    <path d="M 103.074841 395.28 
L 940.074841 395.28 
" style="fill: none; stroke: #000000; stroke-width: 0.8; stroke-linejoin: miter; stroke-linecap: square"/>
   </g>
   <g id="patch_6">
    <path d="M 103.074841 7.2 
L 940.074841 7.2 
" style="fill: none; stroke: #000000; stroke-width: 0.8; stroke-linejoin: miter; stroke-linecap: square"/>
   </g>
  </g>
 </g>
 <defs>
  <clipPath id="pd1892cdab3">
   <rect x="103.074841" y="7.2" width="837" height="388.08"/>
  </clipPath>
 </defs>
</svg>
