<?xml version="1.0" encoding="utf-8" standalone="no"?>
<!DOCTYPE svg PUBLIC "-//W3C//DTD SVG 1.1//EN"
  "http://www.w3.org/Graphics/SVG/1.1/DTD/svg11.dtd">
<svg xmlns:xlink="http://www.w3.org/1999/xlink" width="947.274841pt" height="505.354841pt" viewBox="0 0 947.274841 505.354841" xmlns="http://www.w3.org/2000/svg" version="1.1">
 <metadata>
  <rdf:RDF xmlns:dc="http://purl.org/dc/elements/1.1/" xmlns:cc="http://creativecommons.org/ns#" xmlns:rdf="http://www.w3.org/1999/02/22-rdf-syntax-ns#">
   <cc:Work>
    <dc:type rdf:resource="http://purl.org/dc/dcmitype/StillImage"/>
    <dc:date>2023-11-12T22:43:07.473928</dc:date>
    <dc:format>image/svg+xml</dc:format>
    <dc:creator>
     <cc:Agent>
      <dc:title>Matplotlib v3.7.2, https://matplotlib.org/</dc:title>
     </cc:Agent>
    </dc:creator>
   </cc:Work>
  </rdf:RDF>
 </metadata>
 <defs>
  <style type="text/css">*{stroke-linejoin: round; stroke-linecap: butt}</style>
 </defs>
 <g id="figure_1">
  <g id="patch_1">
   <path d="M 0 505.354841 
L 947.274841 505.354841 
L 947.274841 -0 
L 0 -0 
z
" style="fill: #ffffff"/>
  </g>
  <g id="axes_1">
   <g id="patch_2">
    <path d="M 103.074841 395.28 
L 940.074841 395.28 
L 940.074841 7.2 
L 103.074841 7.2 
z
" style="fill: #ffffff"/>
   </g>
   <g id="PolyCollection_1">
    <path d="M -4315.31939 257.430057 
L -4315.31939 257.431224 
L -4307.271313 257.419659 
L -4299.223236 257.41282 
L -4291.175159 257.404112 
L -4283.127082 257.400662 
L -4275.079005 257.394892 
L -4267.030929 257.387277 
L -4258.982852 257.379919 
L -4250.934775 257.373825 
L -4242.886698 257.369815 
L -4234.838621 257.363683 
L -4226.790544 257.357074 
L -4218.742467 257.351165 
L -4210.69439 257.341692 
L -4202.646313 257.335811 
L -4194.598236 257.327258 
L -4186.550159 257.321924 
L -4178.502082 257.311031 
L -4170.454005 257.304358 
L -4162.405929 257.298561 
L -4154.357852 257.289762 
L -4146.309775 257.281834 
L -4138.261698 257.274728 
L -4130.213621 257.263954 
L -4122.165544 257.256624 
L -4114.117467 257.246285 
L -4106.06939 257.236187 
L -4098.021313 257.224134 
L -4089.973236 257.212072 
L -4081.925159 257.201453 
L -4073.877082 257.187194 
L -4065.829005 257.169367 
L -4057.780929 257.156969 
L -4049.732852 257.141378 
L -4041.684775 257.121699 
L -4033.636698 257.106142 
L -4025.588621 257.085348 
L -4017.540544 257.065368 
L -4009.492467 257.045541 
L -4001.44439 257.024276 
L -3993.396313 256.999085 
L -3985.348236 256.972115 
L -3977.300159 256.943489 
L -3969.252082 256.919199 
L -3961.204005 256.88577 
L -3953.155929 256.858089 
L -3945.107852 256.827413 
L -3937.059775 256.798289 
L -3929.011698 256.765062 
L -3920.963621 256.727135 
L -3912.915544 256.697118 
L -3904.867467 256.65954 
L -3896.81939 256.620775 
L -3888.771313 256.58517 
L -3880.723236 256.551419 
L -3872.675159 256.511468 
L -3864.627082 256.47159 
L -3856.579005 256.432956 
L -3848.530929 256.391794 
L -3840.482852 256.350246 
L -3832.434775 256.310142 
L -3824.386698 256.26746 
L -3816.338621 256.225455 
L -3808.290544 256.185978 
L -3800.242467 256.142996 
L -3792.19439 256.093132 
L -3784.146313 256.047471 
L -3776.098236 256.002697 
L -3768.050159 255.959864 
L -3760.002082 255.912671 
L -3751.954005 255.868253 
L -3743.905929 255.821983 
L -3735.857852 255.786664 
L -3727.809775 255.73213 
L -3719.761698 255.693351 
L -3711.713621 255.644059 
L -3703.665544 255.599694 
L -3695.617467 255.549644 
L -3687.56939 255.51041 
L -3679.521313 255.456232 
L -3671.473236 255.408909 
L -3663.425159 255.366745 
L -3655.377082 255.314679 
L -3647.329005 255.270494 
L -3639.280929 255.222343 
L -3631.232852 255.172143 
L -3623.184775 255.125483 
L -3615.136698 255.080915 
L -3607.088621 255.030786 
L -3599.040544 254.984581 
L -3590.992467 254.935765 
L -3582.94439 254.888436 
L -3574.896313 254.843911 
L -3566.848236 254.798027 
L -3558.800159 254.751028 
L -3550.752082 254.713961 
L -3542.704005 254.663479 
L -3534.655929 254.618621 
L -3526.607852 254.576219 
L -3518.559775 254.533348 
L -3510.511698 254.490485 
L -3502.463621 254.445849 
L -3494.415544 254.405594 
L -3486.367467 254.360865 
L -3478.31939 254.313351 
L -3470.271313 254.264669 
L -3462.223236 254.2149 
L -3454.175159 254.171845 
L -3446.127082 254.118954 
L -3438.079005 254.059279 
L -3430.030929 254.007224 
L -3421.982852 253.949695 
L -3413.934775 253.891381 
L -3405.886698 253.827267 
L -3397.838621 253.761968 
L -3389.790544 253.706496 
L -3381.742467 253.635168 
L -3373.69439 253.571316 
L -3365.646313 253.49892 
L -3357.598236 253.438685 
L -3349.550159 253.357338 
L -3341.502082 253.280193 
L -3333.454005 253.207996 
L -3325.405929 253.134333 
L -3317.357852 253.057241 
L -3309.309775 252.974551 
L -3301.261698 252.902658 
L -3293.213621 252.810882 
L -3285.165544 252.740303 
L -3277.117467 252.646066 
L -3269.06939 252.558117 
L -3261.021313 252.475187 
L -3252.973236 252.399893 
L -3244.925159 252.30012 
L -3236.877082 252.218997 
L -3228.829005 252.095166 
L -3220.780929 252.001456 
L -3212.732852 251.92167 
L -3204.684775 251.822337 
L -3196.636698 251.72041 
L -3188.588621 251.591913 
L -3180.540544 251.47992 
L -3172.492467 251.404586 
L -3164.44439 251.231269 
L -3156.396313 251.115044 
L -3148.348236 250.997675 
L -3140.300159 250.876205 
L -3132.252082 250.726568 
L -3124.204005 250.596992 
L -3116.155929 250.533029 
L -3108.107852 250.42168 
L -3100.059775 250.162824 
L -3092.011698 249.971537 
L -3083.963621 249.871044 
L -3075.915544 249.68237 
L -3067.867467 249.555311 
L -3059.81939 249.468491 
L -3051.771313 249.260811 
L -3043.723236 249.007234 
L -3035.675159 248.888994 
L -3027.627082 248.875552 
L -3019.579005 248.698702 
L -3011.530929 248.715132 
L -3003.482852 248.638603 
L -2995.434775 248.434855 
L -2987.386698 248.542202 
L -2979.338621 248.778904 
L -2971.290544 249.169435 
L -2963.242467 248.949887 
L -2955.19439 249.685026 
L -2947.146313 249.939498 
L -2939.098236 249.153718 
L -2931.050159 249.484083 
L -2923.002082 249.950316 
L -2914.954005 249.79225 
L -2906.905929 249.812039 
L -2898.857852 251.523512 
L -2890.809775 253.920344 
L -2882.761698 255.132659 
L -2874.713621 252.609512 
L -2866.665544 253.968959 
L -2858.617467 255.696276 
L -2850.56939 255.612957 
L -2842.521313 259.103038 
L -2834.473236 258.592716 
L -2826.425159 257.522866 
L -2818.377082 254.835583 
L -2810.329005 257.327474 
L -2802.280929 258.794586 
L -2794.232852 258.098768 
L -2786.184775 258.478206 
L -2778.136698 259.818046 
L -2770.088621 259.568727 
L -2762.040544 258.344131 
L -2753.992467 259.783108 
L -2745.94439 260.073329 
L -2737.896313 259.445953 
L -2729.848236 260.401987 
L -2721.800159 260.689135 
L -2713.752082 260.553041 
L -2705.704005 260.169978 
L -2697.655929 260.419876 
L -2689.607852 260.011237 
L -2681.559775 259.968927 
L -2673.511698 260.218422 
L -2665.463621 259.885889 
L -2657.415544 259.969569 
L -2649.367467 259.929336 
L -2641.31939 259.588996 
L -2633.271313 259.630089 
L -2625.223236 259.138899 
L -2617.175159 259.162224 
L -2609.127082 259.20892 
L -2601.079005 259.164382 
L -2593.030929 258.908317 
L -2584.982852 258.669337 
L -2576.934775 258.582037 
L -2568.886698 258.361129 
L -2560.838621 258.282684 
L -2552.790544 258.194641 
L -2544.742467 257.869299 
L -2536.69439 257.959499 
L -2528.646313 257.720542 
L -2520.598236 257.55882 
L -2512.550159 257.555374 
L -2504.502082 257.325395 
L -2496.454005 257.230983 
L -2488.405929 257.246471 
L -2480.357852 257.299897 
L -2472.309775 256.956502 
L -2464.261698 256.772889 
L -2456.213621 256.734712 
L -2448.165544 257.184062 
L -2440.117467 257.15517 
L -2432.06939 257.307406 
L -2424.021313 256.785718 
L -2415.973236 256.466491 
L -2407.925159 256.508433 
L -2399.877082 256.784994 
L -2391.829005 256.79552 
L -2383.780929 256.215909 
L -2375.732852 256.637692 
L -2367.684775 256.399134 
L -2359.636698 256.3293 
L -2351.588621 256.013415 
L -2343.540544 256.175819 
L -2335.492467 256.039855 
L -2327.44439 256.13749 
L -2319.396313 255.908383 
L -2311.348236 255.745711 
L -2303.300159 255.478274 
L -2295.252082 255.346534 
L -2287.204005 255.226053 
L -2279.155929 255.035044 
L -2271.107852 254.986307 
L -2263.059775 254.806553 
L -2255.011698 254.618162 
L -2246.963621 254.259311 
L -2238.915544 253.950288 
L -2230.867467 253.784838 
L -2222.81939 253.469165 
L -2214.771313 253.398218 
L -2206.723236 253.150104 
L -2198.675159 252.765519 
L -2190.627082 252.460508 
L -2182.579005 252.215227 
L -2174.530929 251.822805 
L -2166.482852 251.59347 
L -2158.434775 251.253364 
L -2150.386698 250.961093 
L -2142.338621 250.597107 
L -2134.290544 250.23541 
L -2126.242467 249.894194 
L -2118.19439 249.550473 
L -2110.146313 249.233346 
L -2102.098236 248.794447 
L -2094.050159 248.395476 
L -2086.002082 247.991979 
L -2077.954005 247.711489 
L -2069.905929 247.284006 
L -2061.857852 246.924234 
L -2053.809775 246.52127 
L -2045.761698 245.928075 
L -2037.713621 245.674583 
L -2029.665544 245.191991 
L -2021.617467 244.809159 
L -2013.56939 244.374422 
L -2005.521313 243.880772 
L -1997.473236 243.434377 
L -1989.425159 242.990497 
L -1981.377082 242.412829 
L -1973.329005 242.036469 
L -1965.280929 241.478341 
L -1957.232852 241.132244 
L -1949.184775 240.556504 
L -1941.136698 239.991985 
L -1933.088621 239.513736 
L -1925.040544 239.126299 
L -1916.992467 238.473831 
L -1908.94439 238.029933 
L -1900.896313 237.460985 
L -1892.848236 237.006847 
L -1884.800159 236.405331 
L -1876.752082 235.869458 
L -1868.704005 235.844235 
L -1860.655929 234.771295 
L -1852.607852 234.633985 
L -1844.559775 234.028508 
L -1836.511698 233.595657 
L -1828.463621 233.082365 
L -1820.415544 232.54867 
L -1812.367467 232.04008 
L -1804.31939 231.587765 
L -1796.271313 231.164994 
L -1788.223236 230.719878 
L -1780.175159 231.105939 
L -1772.127082 229.741383 
L -1764.079005 229.481427 
L -1756.030929 230.496548 
L -1747.982852 228.966275 
L -1739.934775 229.208192 
L -1731.886698 229.050755 
L -1723.838621 228.202636 
L -1715.790544 228.369238 
L -1707.742467 229.09081 
L -1699.69439 228.480095 
L -1691.646313 228.225306 
L -1683.598236 228.727617 
L -1675.550159 228.554625 
L -1667.502082 228.854842 
L -1659.454005 229.333408 
L -1651.405929 229.972581 
L -1643.357852 231.820771 
L -1635.309775 231.307509 
L -1627.261698 232.238338 
L -1619.213621 232.945943 
L -1611.165544 233.345117 
L -1603.117467 234.283351 
L -1595.06939 234.796951 
L -1587.021313 233.508901 
L -1578.973236 234.549218 
L -1570.925159 236.068658 
L -1562.877082 236.732461 
L -1554.829005 236.793843 
L -1546.780929 238.688671 
L -1538.732852 238.685961 
L -1530.684775 238.951032 
L -1522.636698 238.801268 
L -1514.588621 240.279012 
L -1506.540544 239.553544 
L -1498.492467 239.159607 
L -1490.44439 240.23689 
L -1482.396313 241.331858 
L -1474.348236 240.84612 
L -1466.300159 241.260628 
L -1458.252082 241.294867 
L -1450.204005 241.124066 
L -1442.155929 240.775152 
L -1434.107852 240.891928 
L -1426.059775 240.84346 
L -1418.011698 241.90066 
L -1409.963621 241.03261 
L -1401.915544 242.297577 
L -1393.867467 241.913863 
L -1385.81939 241.651654 
L -1377.771313 242.113181 
L -1369.723236 242.516645 
L -1361.675159 241.818627 
L -1353.627082 242.036683 
L -1345.579005 241.970773 
L -1337.530929 242.61187 
L -1329.482852 242.158575 
L -1321.434775 241.896259 
L -1313.386698 242.011855 
L -1305.338621 242.267599 
L -1297.290544 241.993461 
L -1289.242467 241.540194 
L -1281.19439 241.629618 
L -1273.146313 240.987587 
L -1265.098236 240.933255 
L -1257.050159 241.692748 
L -1249.002082 241.520581 
L -1240.954005 240.90149 
L -1232.905929 240.653907 
L -1224.857852 240.582607 
L -1216.809775 239.916165 
L -1208.761698 239.912372 
L -1200.713621 239.771445 
L -1192.665544 239.520506 
L -1184.617467 239.233695 
L -1176.56939 238.760106 
L -1168.521313 238.815441 
L -1160.473236 238.448504 
L -1152.425159 238.254906 
L -1144.377082 237.9901 
L -1136.329005 237.862475 
L -1128.280929 237.465648 
L -1120.232852 236.862733 
L -1112.184775 236.702734 
L -1104.136698 236.18988 
L -1096.088621 235.514542 
L -1088.040544 235.781509 
L -1079.992467 234.914964 
L -1071.94439 235.099305 
L -1063.896313 234.837382 
L -1055.848236 234.769769 
L -1047.800159 234.176572 
L -1039.752082 234.027549 
L -1031.704005 233.844897 
L -1023.655929 233.144229 
L -1015.607852 233.185437 
L -1007.559775 233.03064 
L -999.511698 232.904573 
L -991.463621 232.5266 
L -983.415544 232.562627 
L -975.367467 232.17799 
L -967.31939 231.8136 
L -959.271313 231.289812 
L -951.223236 231.065532 
L -943.175159 230.891075 
L -935.127082 230.507345 
L -927.079005 230.475771 
L -919.030929 230.250643 
L -910.982852 229.905421 
L -902.934775 229.844339 
L -894.886698 229.468328 
L -886.838621 229.655274 
L -878.790544 229.37369 
L -870.742467 229.31862 
L -862.69439 228.871109 
L -854.646313 228.286063 
L -846.598236 228.668076 
L -838.550159 228.592528 
L -830.502082 228.361865 
L -822.454005 228.126675 
L -814.405929 227.706561 
L -806.357852 227.569454 
L -798.309775 227.316018 
L -790.261698 227.294242 
L -782.213621 227.167488 
L -774.165544 226.769572 
L -766.117467 226.227793 
L -758.06939 226.820035 
L -750.021313 226.618437 
L -741.973236 226.15146 
L -733.925159 226.36986 
L -725.877082 225.573836 
L -717.829005 225.620555 
L -709.780929 225.623258 
L -701.732852 225.068885 
L -693.684775 225.887377 
L -685.636698 224.971841 
L -677.588621 224.484326 
L -669.540544 225.003907 
L -661.492467 225.107763 
L -653.44439 224.782033 
L -645.396313 224.952203 
L -637.348236 224.502123 
L -629.300159 225.223939 
L -621.252082 224.774409 
L -613.204005 224.878069 
L -605.155929 224.292197 
L -597.107852 223.759348 
L -589.059775 224.304779 
L -581.011698 225.329961 
L -572.963621 224.035837 
L -564.915544 224.043313 
L -556.867467 223.519845 
L -548.81939 223.678721 
L -540.771313 223.554915 
L -532.723236 223.207467 
L -524.675159 223.043381 
L -516.627082 223.514134 
L -508.579005 223.183192 
L -500.530929 223.610835 
L -492.482852 223.645792 
L -484.434775 222.187704 
L -476.386698 222.718575 
L -468.338621 222.720547 
L -460.290544 222.77523 
L -452.242467 222.822308 
L -444.19439 223.683119 
L -436.146313 224.004414 
L -428.098236 223.929502 
L -420.050159 224.886574 
L -412.002082 226.495559 
L -403.954005 224.504252 
L -395.905929 224.45174 
L -387.857852 224.464583 
L -379.809775 225.088494 
L -371.761698 225.210655 
L -363.713621 225.180258 
L -355.665544 226.56837 
L -347.617467 227.061728 
L -339.56939 225.422814 
L -331.521313 226.852744 
L -323.473236 226.10481 
L -315.425159 225.627308 
L -307.377082 227.368786 
L -299.329005 226.983281 
L -291.280929 228.094022 
L -283.232852 227.710752 
L -275.184775 226.900007 
L -267.136698 227.579549 
L -259.088621 227.542111 
L -251.040544 228.208042 
L -242.992467 227.724215 
L -234.94439 228.847124 
L -226.896313 227.969034 
L -218.848236 228.539624 
L -210.800159 228.369892 
L -202.752082 229.001932 
L -194.704005 227.868709 
L -186.655929 228.993711 
L -178.607852 228.882857 
L -170.559775 229.637515 
L -162.511698 230.012164 
L -154.463621 229.967897 
L -146.415544 229.717206 
L -138.367467 230.18412 
L -130.31939 230.519731 
L -122.271313 230.129311 
L -114.223236 229.953978 
L -106.175159 230.358886 
L -98.127082 230.721833 
L -90.079005 229.964437 
L -82.030929 229.509964 
L -73.982852 231.093584 
L -65.934775 231.787212 
L -57.886698 230.076241 
L -49.838621 230.522621 
L -41.790544 230.724968 
L -33.742467 230.800042 
L -25.69439 231.59274 
L -17.646313 231.444214 
L -9.598236 231.065144 
L -1.550159 231.390974 
L 6.497918 231.449104 
L 14.545995 230.51325 
L 22.594071 230.932006 
L 30.642148 230.618574 
L 38.690225 231.829657 
L 46.738302 233.328249 
L 54.786379 233.076288 
L 62.834456 231.83284 
L 70.882533 231.676013 
L 78.93061 231.817084 
L 86.978687 231.849973 
L 95.026764 232.963487 
L 103.074841 231.491744 
L 111.122918 232.991753 
L 119.170995 234.194137 
L 127.219071 233.152476 
L 135.267148 234.70696 
L 143.315225 233.702992 
L 151.363302 234.542473 
L 159.411379 233.956835 
L 167.459456 234.363328 
L 175.507533 235.190352 
L 183.55561 235.116239 
L 191.603687 235.360427 
L 199.651764 235.413358 
L 207.699841 235.48589 
L 215.747918 233.410604 
L 223.795995 236.050495 
L 231.844071 237.128698 
L 239.892148 236.056158 
L 247.940225 237.007878 
L 255.988302 237.20308 
L 264.036379 236.636218 
L 272.084456 237.713331 
L 280.132533 238.430287 
L 288.18061 237.988701 
L 296.228687 238.262405 
L 304.276764 238.412206 
L 312.324841 238.66376 
L 320.372918 239.481249 
L 328.420995 237.784652 
L 336.469071 239.875551 
L 344.517148 239.914515 
L 352.565225 239.995139 
L 360.613302 238.682875 
L 368.661379 240.261875 
L 376.709456 241.304473 
L 384.757533 240.2115 
L 392.80561 240.313667 
L 400.853687 241.769708 
L 408.901764 239.172741 
L 416.949841 241.557394 
L 424.997918 240.029474 
L 433.045995 242.108116 
L 441.094071 241.087579 
L 449.142148 241.970956 
L 457.190225 242.224943 
L 465.238302 242.59069 
L 473.286379 242.678215 
L 481.334456 242.079882 
L 489.382533 242.063065 
L 497.43061 242.312336 
L 505.478687 243.240223 
L 513.526764 243.083873 
L 521.574841 243.017368 
L 529.622918 243.568782 
L 537.670995 243.572536 
L 545.719071 243.064853 
L 553.767148 243.111133 
L 561.815225 243.968949 
L 569.863302 244.064126 
L 577.911379 244.247735 
L 585.959456 243.494238 
L 594.007533 242.391963 
L 602.05561 243.54415 
L 610.103687 243.149918 
L 618.151764 243.436918 
L 626.199841 243.913834 
L 634.247918 243.227562 
L 642.295995 244.029205 
L 650.344071 243.38976 
L 658.392148 243.263994 
L 666.440225 243.181483 
L 674.488302 243.877693 
L 682.536379 243.644027 
L 690.584456 243.530976 
L 698.632533 242.946183 
L 706.68061 243.186457 
L 714.728687 243.262178 
L 722.776764 243.061027 
L 730.824841 243.497729 
L 738.872918 243.334826 
L 746.920995 243.562099 
L 754.969071 243.819523 
L 763.017148 243.742378 
L 771.065225 243.392077 
L 779.113302 243.423541 
L 787.161379 243.188844 
L 795.209456 243.375988 
L 803.257533 243.376558 
L 811.30561 242.985711 
L 819.353687 243.324162 
L 827.401764 241.600613 
L 835.449841 243.231359 
L 843.497918 243.810284 
L 851.545995 243.0878 
L 859.594071 243.041238 
L 867.642148 243.62119 
L 875.690225 243.598428 
L 883.738302 242.963181 
L 891.786379 242.879831 
L 899.834456 243.234408 
L 907.882533 243.057511 
L 915.93061 243.77427 
L 923.978687 243.478131 
L 932.026764 244.035619 
L 940.074841 243.338531 
L 940.074841 234.672088 
L 940.074841 234.672088 
L 932.026764 234.06465 
L 923.978687 233.294683 
L 915.93061 234.227508 
L 907.882533 232.602303 
L 899.834456 233.117871 
L 891.786379 232.934591 
L 883.738302 231.24293 
L 875.690225 233.552473 
L 867.642148 234.817196 
L 859.594071 231.560462 
L 851.545995 233.058067 
L 843.497918 234.500284 
L 835.449841 233.659219 
L 827.401764 222.856229 
L 819.353687 233.457641 
L 811.30561 231.558951 
L 803.257533 233.75483 
L 795.209456 233.688039 
L 787.161379 232.971436 
L 779.113302 233.156948 
L 771.065225 233.055187 
L 763.017148 234.393012 
L 754.969071 234.561095 
L 746.920995 233.112718 
L 738.872918 232.205341 
L 730.824841 233.242431 
L 722.776764 231.886934 
L 714.728687 232.639357 
L 706.68061 231.917261 
L 698.632533 230.95807 
L 690.584456 232.692016 
L 682.536379 233.036055 
L 674.488302 233.215312 
L 666.440225 231.58355 
L 658.392148 231.369468 
L 650.344071 231.472052 
L 642.295995 233.74802 
L 634.247918 231.034092 
L 626.199841 233.171407 
L 618.151764 231.668872 
L 610.103687 230.583078 
L 602.05561 231.817748 
L 594.007533 227.397919 
L 585.959456 231.686965 
L 577.911379 233.573744 
L 569.863302 232.926837 
L 561.815225 232.719818 
L 553.767148 229.237212 
L 545.719071 229.529999 
L 537.670995 231.031825 
L 529.622918 231.137408 
L 521.574841 229.304787 
L 513.526764 229.614253 
L 505.478687 229.63455 
L 497.43061 227.849973 
L 489.382533 226.341306 
L 481.334456 226.163625 
L 473.286379 227.866599 
L 465.238302 227.628174 
L 457.190225 226.946176 
L 449.142148 226.238508 
L 441.094071 223.495286 
L 433.045995 226.617996 
L 424.997918 219.239298 
L 416.949841 224.531742 
L 408.901764 217.515025 
L 400.853687 225.478552 
L 392.80561 221.349953 
L 384.757533 221.438165 
L 376.709456 223.818923 
L 368.661379 221.366414 
L 360.613302 216.757683 
L 352.565225 220.39241 
L 344.517148 220.472557 
L 336.469071 220.481327 
L 328.420995 215.081843 
L 320.372918 217.975189 
L 312.324841 217.456498 
L 304.276764 217.21172 
L 296.228687 216.742016 
L 288.18061 215.722859 
L 280.132533 216.995576 
L 272.084456 215.092603 
L 264.036379 212.679611 
L 255.988302 214.919213 
L 247.940225 213.380138 
L 239.892148 212.017745 
L 231.844071 214.571716 
L 223.795995 212.056362 
L 215.747918 205.403141 
L 207.699841 210.476393 
L 199.651764 210.402643 
L 191.603687 210.533855 
L 183.55561 210.04919 
L 175.507533 210.195036 
L 167.459456 208.469796 
L 159.411379 207.827838 
L 151.363302 209.368186 
L 143.315225 206.810011 
L 135.267148 209.665727 
L 127.219071 206.071057 
L 119.170995 208.324514 
L 111.122918 205.975709 
L 103.074841 203.039307 
L 95.026764 205.974186 
L 86.978687 203.420334 
L 78.93061 203.731541 
L 70.882533 203.741699 
L 62.834456 204.13009 
L 54.786379 206.789393 
L 46.738302 207.524578 
L 38.690225 204.62643 
L 30.642148 201.656059 
L 22.594071 202.66379 
L 14.545995 202.178416 
L 6.497918 204.269364 
L -1.550159 204.213278 
L -9.598236 203.575282 
L -17.646313 204.733591 
L -25.69439 204.803726 
L -33.742467 203.383069 
L -41.790544 203.729139 
L -49.838621 203.276371 
L -57.886698 202.684858 
L -65.934775 206.393968 
L -73.982852 204.557158 
L -82.030929 201.985044 
L -90.079005 203.457274 
L -98.127082 204.79303 
L -106.175159 204.187887 
L -114.223236 203.761803 
L -122.271313 204.394501 
L -130.31939 205.797589 
L -138.367467 204.632407 
L -146.415544 204.312324 
L -154.463621 205.026768 
L -162.511698 204.361516 
L -170.559775 204.800512 
L -178.607852 203.288486 
L -186.655929 204.069145 
L -194.704005 202.189796 
L -202.752082 204.119959 
L -210.800159 203.461358 
L -218.848236 204.123192 
L -226.896313 203.733198 
L -234.94439 204.974562 
L -242.992467 203.309 
L -251.040544 204.626494 
L -259.088621 203.637674 
L -267.136698 204.024963 
L -275.184775 203.284832 
L -283.232852 203.924554 
L -291.280929 205.383755 
L -299.329005 204.287704 
L -307.377082 204.752311 
L -315.425159 202.43968 
L -323.473236 203.738857 
L -331.521313 204.474448 
L -339.56939 202.730252 
L -347.617467 205.010112 
L -355.665544 205.335519 
L -363.713621 203.092768 
L -371.761698 203.297449 
L -379.809775 203.29277 
L -387.857852 202.594428 
L -395.905929 203.360359 
L -403.954005 203.316228 
L -412.002082 206.311342 
L -420.050159 204.546364 
L -428.098236 203.293397 
L -436.146313 203.514548 
L -444.19439 203.283025 
L -452.242467 202.610066 
L -460.290544 203.112867 
L -468.338621 202.729952 
L -476.386698 203.587452 
L -484.434775 202.946806 
L -492.482852 204.758257 
L -500.530929 205.18163 
L -508.579005 205.020382 
L -516.627082 205.584404 
L -524.675159 205.182603 
L -532.723236 205.86524 
L -540.771313 206.351836 
L -548.81939 207.310652 
L -556.867467 206.912424 
L -564.915544 207.957266 
L -572.963621 207.992046 
L -581.011698 209.756683 
L -589.059775 208.896067 
L -597.107852 208.528385 
L -605.155929 209.389912 
L -613.204005 209.88101 
L -621.252082 210.090136 
L -629.300159 211.17702 
L -637.348236 210.572864 
L -645.396313 211.354176 
L -653.44439 211.231818 
L -661.492467 211.543507 
L -669.540544 211.447298 
L -677.588621 211.225863 
L -685.636698 212.109685 
L -693.684775 213.232236 
L -701.732852 212.403637 
L -709.780929 213.120377 
L -717.829005 213.026041 
L -725.877082 213.497526 
L -733.925159 214.391945 
L -741.973236 214.28938 
L -750.021313 215.041072 
L -758.06939 215.348353 
L -766.117467 214.816278 
L -774.165544 215.361322 
L -782.213621 215.952086 
L -790.261698 216.257394 
L -798.309775 216.383045 
L -806.357852 216.842435 
L -814.405929 216.935667 
L -822.454005 217.546628 
L -830.502082 217.820395 
L -838.550159 218.069153 
L -846.598236 218.315895 
L -854.646313 217.623731 
L -862.69439 218.683422 
L -870.742467 219.190847 
L -878.790544 219.224802 
L -886.838621 219.39166 
L -894.886698 219.534139 
L -902.934775 219.93591 
L -910.982852 219.982485 
L -919.030929 220.519845 
L -927.079005 220.794616 
L -935.127082 220.830906 
L -943.175159 221.110264 
L -951.223236 221.442178 
L -959.271313 221.781603 
L -967.31939 222.611761 
L -975.367467 222.907399 
L -983.415544 223.380508 
L -991.463621 223.342934 
L -999.511698 223.801685 
L -1007.559775 223.969551 
L -1015.607852 224.199962 
L -1023.655929 223.971593 
L -1031.704005 225.088712 
L -1039.752082 225.303299 
L -1047.800159 225.49556 
L -1055.848236 226.21591 
L -1063.896313 226.288019 
L -1071.94439 226.656327 
L -1079.992467 226.484969 
L -1088.040544 227.422235 
L -1096.088621 227.258905 
L -1104.136698 228.189462 
L -1112.184775 228.845861 
L -1120.232852 229.1112 
L -1128.280929 229.933051 
L -1136.329005 230.561471 
L -1144.377082 230.662266 
L -1152.425159 231.076705 
L -1160.473236 231.2842 
L -1168.521313 231.819213 
L -1176.56939 231.773889 
L -1184.617467 232.452046 
L -1192.665544 232.977923 
L -1200.713621 233.313314 
L -1208.761698 233.556474 
L -1216.809775 233.701206 
L -1224.857852 234.479222 
L -1232.905929 234.68526 
L -1240.954005 235.126258 
L -1249.002082 235.826758 
L -1257.050159 236.080184 
L -1265.098236 235.505146 
L -1273.146313 235.691493 
L -1281.19439 236.425162 
L -1289.242467 236.516196 
L -1297.290544 237.030609 
L -1305.338621 237.427782 
L -1313.386698 237.254107 
L -1321.434775 237.400423 
L -1329.482852 237.721215 
L -1337.530929 238.26958 
L -1345.579005 237.716262 
L -1353.627082 237.935495 
L -1361.675159 237.901884 
L -1369.723236 238.632945 
L -1377.771313 238.486239 
L -1385.81939 238.134664 
L -1393.867467 238.475873 
L -1401.915544 238.889484 
L -1409.963621 237.879146 
L -1418.011698 238.79533 
L -1426.059775 237.624131 
L -1434.107852 237.534411 
L -1442.155929 237.290342 
L -1450.204005 237.503638 
L -1458.252082 237.609775 
L -1466.300159 237.688301 
L -1474.348236 237.05921 
L -1482.396313 237.534677 
L -1490.44439 236.135855 
L -1498.492467 234.385511 
L -1506.540544 234.903524 
L -1514.588621 235.762281 
L -1522.636698 233.509683 
L -1530.684775 233.767639 
L -1538.732852 233.16728 
L -1546.780929 233.042541 
L -1554.829005 230.305657 
L -1562.877082 229.957245 
L -1570.925159 228.995424 
L -1578.973236 226.898682 
L -1587.021313 225.266209 
L -1595.06939 226.986045 
L -1603.117467 226.091848 
L -1611.165544 224.662679 
L -1619.213621 224.077537 
L -1627.261698 223.060579 
L -1635.309775 221.720127 
L -1643.357852 222.272566 
L -1651.405929 219.916123 
L -1659.454005 218.670688 
L -1667.502082 218.114668 
L -1675.550159 217.653645 
L -1683.598236 217.903072 
L -1691.646313 217.331651 
L -1699.69439 217.822066 
L -1707.742467 218.472725 
L -1715.790544 217.377478 
L -1723.838621 217.286667 
L -1731.886698 218.353036 
L -1739.934775 218.60659 
L -1747.982852 218.216716 
L -1756.030929 220.387571 
L -1764.079005 218.891957 
L -1772.127082 219.42481 
L -1780.175159 221.082303 
L -1788.223236 220.641477 
L -1796.271313 221.257799 
L -1804.31939 221.816287 
L -1812.367467 222.463763 
L -1820.415544 223.085684 
L -1828.463621 223.785492 
L -1836.511698 224.430963 
L -1844.559775 224.961129 
L -1852.607852 225.796409 
L -1860.655929 226.001874 
L -1868.704005 227.327801 
L -1876.752082 227.39523 
L -1884.800159 228.057633 
L -1892.848236 228.833114 
L -1900.896313 229.413118 
L -1908.94439 230.154937 
L -1916.992467 230.686846 
L -1925.040544 231.502072 
L -1933.088621 231.993267 
L -1941.136698 232.626261 
L -1949.184775 233.30264 
L -1957.232852 234.011663 
L -1965.280929 234.458057 
L -1973.329005 235.156456 
L -1981.377082 235.589883 
L -1989.425159 236.304075 
L -1997.473236 236.836012 
L -2005.521313 237.425676 
L -2013.56939 237.990641 
L -2021.617467 238.521236 
L -2029.665544 238.982629 
L -2037.713621 239.572444 
L -2045.761698 239.877968 
L -2053.809775 240.576867 
L -2061.857852 241.06292 
L -2069.905929 241.462053 
L -2077.954005 241.970903 
L -2086.002082 242.388205 
L -2094.050159 242.739072 
L -2102.098236 243.21757 
L -2110.146313 243.729327 
L -2118.19439 244.114566 
L -2126.242467 244.473149 
L -2134.290544 244.928605 
L -2142.338621 245.267681 
L -2150.386698 245.678087 
L -2158.434775 246.007932 
L -2166.482852 246.382383 
L -2174.530929 246.649952 
L -2182.579005 247.07223 
L -2190.627082 247.340188 
L -2198.675159 247.688035 
L -2206.723236 248.100958 
L -2214.771313 248.392449 
L -2222.81939 248.483111 
L -2230.867467 248.815525 
L -2238.915544 248.975094 
L -2246.963621 249.288656 
L -2255.011698 249.690065 
L -2263.059775 249.868451 
L -2271.107852 250.04142 
L -2279.155929 250.123643 
L -2287.204005 250.31285 
L -2295.252082 250.466812 
L -2303.300159 250.634431 
L -2311.348236 250.921761 
L -2319.396313 251.107975 
L -2327.44439 251.331786 
L -2335.492467 251.285704 
L -2343.540544 251.471845 
L -2351.588621 251.342484 
L -2359.636698 251.663132 
L -2367.684775 251.812934 
L -2375.732852 252.002725 
L -2383.780929 251.634656 
L -2391.829005 252.253209 
L -2399.877082 252.289508 
L -2407.925159 252.078381 
L -2415.973236 252.086961 
L -2424.021313 252.452925 
L -2432.06939 252.984677 
L -2440.117467 252.904322 
L -2448.165544 252.993697 
L -2456.213621 252.638532 
L -2464.261698 252.833554 
L -2472.309775 252.985767 
L -2480.357852 253.360868 
L -2488.405929 253.382956 
L -2496.454005 253.443387 
L -2504.502082 253.600983 
L -2512.550159 253.880835 
L -2520.598236 253.99466 
L -2528.646313 254.184636 
L -2536.69439 254.469478 
L -2544.742467 254.473055 
L -2552.790544 254.843668 
L -2560.838621 254.996505 
L -2568.886698 255.144496 
L -2576.934775 255.430385 
L -2584.982852 255.588769 
L -2593.030929 255.858835 
L -2601.079005 256.153432 
L -2609.127082 256.268764 
L -2617.175159 256.289502 
L -2625.223236 256.384061 
L -2633.271313 256.857123 
L -2641.31939 256.884307 
L -2649.367467 257.246883 
L -2657.415544 257.35332 
L -2665.463621 257.308608 
L -2673.511698 257.724377 
L -2681.559775 257.512334 
L -2689.607852 257.590268 
L -2697.655929 258.042568 
L -2705.704005 257.809162 
L -2713.752082 258.223637 
L -2721.800159 258.425782 
L -2729.848236 258.146898 
L -2737.896313 257.208865 
L -2745.94439 257.873632 
L -2753.992467 257.6366 
L -2762.040544 256.0946 
L -2770.088621 257.456069 
L -2778.136698 257.729808 
L -2786.184775 256.304459 
L -2794.232852 255.952273 
L -2802.280929 256.670756 
L -2810.329005 255.141158 
L -2818.377082 252.50408 
L -2826.425159 255.388719 
L -2834.473236 256.563969 
L -2842.521313 257.111974 
L -2850.56939 253.438224 
L -2858.617467 253.56241 
L -2866.665544 251.70197 
L -2874.713621 250.26614 
L -2882.761698 253.030744 
L -2890.809775 251.749143 
L -2898.857852 249.15975 
L -2906.905929 247.293056 
L -2914.954005 247.288346 
L -2923.002082 247.476874 
L -2931.050159 246.98432 
L -2939.098236 246.636629 
L -2947.146313 247.509357 
L -2955.19439 247.262368 
L -2963.242467 246.465832 
L -2971.290544 246.712792 
L -2979.338621 246.287862 
L -2987.386698 246.022764 
L -2995.434775 245.87489 
L -3003.482852 246.112308 
L -3011.530929 246.17713 
L -3019.579005 246.14888 
L -3027.627082 246.324696 
L -3035.675159 246.32492 
L -3043.723236 246.443882 
L -3051.771313 246.734605 
L -3059.81939 246.918877 
L -3067.867467 247.011601 
L -3075.915544 247.129176 
L -3083.963621 247.342083 
L -3092.011698 247.415402 
L -3100.059775 247.612737 
L -3108.107852 247.884796 
L -3116.155929 248.01072 
L -3124.204005 248.051904 
L -3132.252082 248.192298 
L -3140.300159 248.337249 
L -3148.348236 248.473384 
L -3156.396313 248.603783 
L -3164.44439 248.728074 
L -3172.492467 248.941355 
L -3180.540544 249.006103 
L -3188.588621 249.146891 
L -3196.636698 249.29686 
L -3204.684775 249.418055 
L -3212.732852 249.541074 
L -3220.780929 249.633794 
L -3228.829005 249.740692 
L -3236.877082 249.912825 
L -3244.925159 250.012502 
L -3252.973236 250.142499 
L -3261.021313 250.236827 
L -3269.06939 250.353686 
L -3277.117467 250.475145 
L -3285.165544 250.59882 
L -3293.213621 250.696694 
L -3301.261698 250.822133 
L -3309.309775 250.928622 
L -3317.357852 251.046364 
L -3325.405929 251.152926 
L -3333.454005 251.267022 
L -3341.502082 251.369544 
L -3349.550159 251.482825 
L -3357.598236 251.609037 
L -3365.646313 251.69667 
L -3373.69439 251.816262 
L -3381.742467 251.915183 
L -3389.790544 252.035977 
L -3397.838621 252.114882 
L -3405.886698 252.225229 
L -3413.934775 252.329451 
L -3421.982852 252.427341 
L -3430.030929 252.528371 
L -3438.079005 252.619456 
L -3446.127082 252.731219 
L -3454.175159 252.828733 
L -3462.223236 252.903185 
L -3470.271313 252.997104 
L -3478.31939 253.090476 
L -3486.367467 253.182879 
L -3494.415544 253.270147 
L -3502.463621 253.34799 
L -3510.511698 253.43633 
L -3518.559775 253.521085 
L -3526.607852 253.605715 
L -3534.655929 253.689061 
L -3542.704005 253.774595 
L -3550.752082 253.864017 
L -3558.800159 253.933852 
L -3566.848236 254.018966 
L -3574.896313 254.100984 
L -3582.94439 254.176872 
L -3590.992467 254.255574 
L -3599.040544 254.336235 
L -3607.088621 254.412342 
L -3615.136698 254.493808 
L -3623.184775 254.563123 
L -3631.232852 254.634002 
L -3639.280929 254.711254 
L -3647.329005 254.78346 
L -3655.377082 254.848883 
L -3663.425159 254.920776 
L -3671.473236 254.980448 
L -3679.521313 255.046919 
L -3687.56939 255.120958 
L -3695.617467 255.176069 
L -3703.665544 255.243601 
L -3711.713621 255.303813 
L -3719.761698 255.368941 
L -3727.809775 255.421466 
L -3735.857852 255.49231 
L -3743.905929 255.539426 
L -3751.954005 255.599429 
L -3760.002082 255.656608 
L -3768.050159 255.714719 
L -3776.098236 255.758002 
L -3784.146313 255.804668 
L -3792.19439 255.853255 
L -3800.242467 255.907097 
L -3808.290544 255.953217 
L -3816.338621 255.995072 
L -3824.386698 256.040202 
L -3832.434775 256.087018 
L -3840.482852 256.131173 
L -3848.530929 256.178288 
L -3856.579005 256.225238 
L -3864.627082 256.268843 
L -3872.675159 256.314829 
L -3880.723236 256.361554 
L -3888.771313 256.400569 
L -3896.81939 256.442442 
L -3904.867467 256.489922 
L -3912.915544 256.534061 
L -3920.963621 256.570056 
L -3929.011698 256.616147 
L -3937.059775 256.656196 
L -3945.107852 256.691385 
L -3953.155929 256.728417 
L -3961.204005 256.76218 
L -3969.252082 256.803535 
L -3977.300159 256.833194 
L -3985.348236 256.868334 
L -3993.396313 256.901297 
L -4001.44439 256.931281 
L -4009.492467 256.957543 
L -4017.540544 256.980254 
L -4025.588621 257.004109 
L -4033.636698 257.028946 
L -4041.684775 257.046842 
L -4049.732852 257.070546 
L -4057.780929 257.088528 
L -4065.829005 257.102366 
L -4073.877082 257.122826 
L -4081.925159 257.139219 
L -4089.973236 257.150579 
L -4098.021313 257.164695 
L -4106.06939 257.178648 
L -4114.117467 257.189707 
L -4122.165544 257.201362 
L -4130.213621 257.209091 
L -4138.261698 257.221621 
L -4146.309775 257.229322 
L -4154.357852 257.238387 
L -4162.405929 257.24881 
L -4170.454005 257.255348 
L -4178.502082 257.263212 
L -4186.550159 257.277335 
L -4194.598236 257.284296 
L -4202.646313 257.295653 
L -4210.69439 257.30266 
L -4218.742467 257.315661 
L -4226.790544 257.324036 
L -4234.838621 257.333744 
L -4242.886698 257.341292 
L -4250.934775 257.347533 
L -4258.982852 257.356383 
L -4267.030929 257.367696 
L -4275.079005 257.379039 
L -4283.127082 257.388136 
L -4291.175159 257.394085 
L -4299.223236 257.407318 
L -4307.271313 257.417008 
L -4315.31939 257.430057 
z
" clip-path="url(#pf5fcb0fafd)" style="fill: #008000; fill-opacity: 0.3; stroke: #008000; stroke-opacity: 0.3"/>
   </g>
   <g id="matplotlib.axis_1">
    <g id="xtick_1">
     <g id="line2d_1">
      <defs>
       <path id="m3d854e22b9" d="M 0 0 
L 0 3.5 
" style="stroke: #000000; stroke-width: 0.8"/>
      </defs>
      <g>
       <use xlink:href="#m3d854e22b9" x="103.074841" y="395.28" style="stroke: #000000; stroke-width: 0.8"/>
      </g>
     </g>
     <g id="text_1">
      <!-- 2023-01-01 -->
      <g transform="translate(17.945813 495.213718) rotate(-45) scale(0.2 -0.2)">
       <defs>
        <path id="DejaVuSans-32" d="M 1228 531 
L 3431 531 
L 3431 0 
L 469 0 
L 469 531 
Q 828 903 1448 1529 
Q 2069 2156 2228 2338 
Q 2531 2678 2651 2914 
Q 2772 3150 2772 3378 
Q 2772 3750 2511 3984 
Q 2250 4219 1831 4219 
Q 1534 4219 1204 4116 
Q 875 4013 500 3803 
L 500 4441 
Q 881 4594 1212 4672 
Q 1544 4750 1819 4750 
Q 2544 4750 2975 4387 
Q 3406 4025 3406 3419 
Q 3406 3131 3298 2873 
Q 3191 2616 2906 2266 
Q 2828 2175 2409 1742 
Q 1991 1309 1228 531 
z
" transform="scale(0.015625)"/>
        <path id="DejaVuSans-30" d="M 2034 4250 
Q 1547 4250 1301 3770 
Q 1056 3291 1056 2328 
Q 1056 1369 1301 889 
Q 1547 409 2034 409 
Q 2525 409 2770 889 
Q 3016 1369 3016 2328 
Q 3016 3291 2770 3770 
Q 2525 4250 2034 4250 
z
M 2034 4750 
Q 2819 4750 3233 4129 
Q 3647 3509 3647 2328 
Q 3647 1150 3233 529 
Q 2819 -91 2034 -91 
Q 1250 -91 836 529 
Q 422 1150 422 2328 
Q 422 3509 836 4129 
Q 1250 4750 2034 4750 
z
" transform="scale(0.015625)"/>
        <path id="DejaVuSans-33" d="M 2597 2516 
Q 3050 2419 3304 2112 
Q 3559 1806 3559 1356 
Q 3559 666 3084 287 
Q 2609 -91 1734 -91 
Q 1441 -91 1130 -33 
Q 819 25 488 141 
L 488 750 
Q 750 597 1062 519 
Q 1375 441 1716 441 
Q 2309 441 2620 675 
Q 2931 909 2931 1356 
Q 2931 1769 2642 2001 
Q 2353 2234 1838 2234 
L 1294 2234 
L 1294 2753 
L 1863 2753 
Q 2328 2753 2575 2939 
Q 2822 3125 2822 3475 
Q 2822 3834 2567 4026 
Q 2313 4219 1838 4219 
Q 1578 4219 1281 4162 
Q 984 4106 628 3988 
L 628 4550 
Q 988 4650 1302 4700 
Q 1616 4750 1894 4750 
Q 2613 4750 3031 4423 
Q 3450 4097 3450 3541 
Q 3450 3153 3228 2886 
Q 3006 2619 2597 2516 
z
" transform="scale(0.015625)"/>
        <path id="DejaVuSans-2d" d="M 313 2009 
L 1997 2009 
L 1997 1497 
L 313 1497 
L 313 2009 
z
" transform="scale(0.015625)"/>
        <path id="DejaVuSans-31" d="M 794 531 
L 1825 531 
L 1825 4091 
L 703 3866 
L 703 4441 
L 1819 4666 
L 2450 4666 
L 2450 531 
L 3481 531 
L 3481 0 
L 794 0 
L 794 531 
z
" transform="scale(0.015625)"/>
       </defs>
       <use xlink:href="#DejaVuSans-32"/>
       <use xlink:href="#DejaVuSans-30" x="63.623047"/>
       <use xlink:href="#DejaVuSans-32" x="127.246094"/>
       <use xlink:href="#DejaVuSans-33" x="190.869141"/>
       <use xlink:href="#DejaVuSans-2d" x="254.492188"/>
       <use xlink:href="#DejaVuSans-30" x="290.576172"/>
       <use xlink:href="#DejaVuSans-31" x="354.199219"/>
       <use xlink:href="#DejaVuSans-2d" x="417.822266"/>
       <use xlink:href="#DejaVuSans-30" x="453.90625"/>
       <use xlink:href="#DejaVuSans-31" x="517.529297"/>
      </g>
     </g>
    </g>
    <g id="xtick_2">
     <g id="line2d_2">
      <g>
       <use xlink:href="#m3d854e22b9" x="215.747918" y="395.28" style="stroke: #000000; stroke-width: 0.8"/>
      </g>
     </g>
     <g id="text_2">
      <!-- 2023-01-15 -->
      <g transform="translate(130.61889 495.213718) rotate(-45) scale(0.2 -0.2)">
       <defs>
        <path id="DejaVuSans-35" d="M 691 4666 
L 3169 4666 
L 3169 4134 
L 1269 4134 
L 1269 2991 
Q 1406 3038 1543 3061 
Q 1681 3084 1819 3084 
Q 2600 3084 3056 2656 
Q 3513 2228 3513 1497 
Q 3513 744 3044 326 
Q 2575 -91 1722 -91 
Q 1428 -91 1123 -41 
Q 819 9 494 109 
L 494 744 
Q 775 591 1075 516 
Q 1375 441 1709 441 
Q 2250 441 2565 725 
Q 2881 1009 2881 1497 
Q 2881 1984 2565 2268 
Q 2250 2553 1709 2553 
Q 1456 2553 1204 2497 
Q 953 2441 691 2322 
L 691 4666 
z
" transform="scale(0.015625)"/>
       </defs>
       <use xlink:href="#DejaVuSans-32"/>
       <use xlink:href="#DejaVuSans-30" x="63.623047"/>
       <use xlink:href="#DejaVuSans-32" x="127.246094"/>
       <use xlink:href="#DejaVuSans-33" x="190.869141"/>
       <use xlink:href="#DejaVuSans-2d" x="254.492188"/>
       <use xlink:href="#DejaVuSans-30" x="290.576172"/>
       <use xlink:href="#DejaVuSans-31" x="354.199219"/>
       <use xlink:href="#DejaVuSans-2d" x="417.822266"/>
       <use xlink:href="#DejaVuSans-31" x="453.90625"/>
       <use xlink:href="#DejaVuSans-35" x="517.529297"/>
      </g>
     </g>
    </g>
    <g id="xtick_3">
     <g id="line2d_3">
      <g>
       <use xlink:href="#m3d854e22b9" x="328.420995" y="395.28" style="stroke: #000000; stroke-width: 0.8"/>
      </g>
     </g>
     <g id="text_3">
      <!-- 2023-01-29 -->
      <g transform="translate(243.291967 495.213718) rotate(-45) scale(0.2 -0.2)">
       <defs>
        <path id="DejaVuSans-39" d="M 703 97 
L 703 672 
Q 941 559 1184 500 
Q 1428 441 1663 441 
Q 2288 441 2617 861 
Q 2947 1281 2994 2138 
Q 2813 1869 2534 1725 
Q 2256 1581 1919 1581 
Q 1219 1581 811 2004 
Q 403 2428 403 3163 
Q 403 3881 828 4315 
Q 1253 4750 1959 4750 
Q 2769 4750 3195 4129 
Q 3622 3509 3622 2328 
Q 3622 1225 3098 567 
Q 2575 -91 1691 -91 
Q 1453 -91 1209 -44 
Q 966 3 703 97 
z
M 1959 2075 
Q 2384 2075 2632 2365 
Q 2881 2656 2881 3163 
Q 2881 3666 2632 3958 
Q 2384 4250 1959 4250 
Q 1534 4250 1286 3958 
Q 1038 3666 1038 3163 
Q 1038 2656 1286 2365 
Q 1534 2075 1959 2075 
z
" transform="scale(0.015625)"/>
       </defs>
       <use xlink:href="#DejaVuSans-32"/>
       <use xlink:href="#DejaVuSans-30" x="63.623047"/>
       <use xlink:href="#DejaVuSans-32" x="127.246094"/>
       <use xlink:href="#DejaVuSans-33" x="190.869141"/>
       <use xlink:href="#DejaVuSans-2d" x="254.492188"/>
       <use xlink:href="#DejaVuSans-30" x="290.576172"/>
       <use xlink:href="#DejaVuSans-31" x="354.199219"/>
       <use xlink:href="#DejaVuSans-2d" x="417.822266"/>
       <use xlink:href="#DejaVuSans-32" x="453.90625"/>
       <use xlink:href="#DejaVuSans-39" x="517.529297"/>
      </g>
     </g>
    </g>
    <g id="xtick_4">
     <g id="line2d_4">
      <g>
       <use xlink:href="#m3d854e22b9" x="441.094071" y="395.28" style="stroke: #000000; stroke-width: 0.8"/>
      </g>
     </g>
     <g id="text_4">
      <!-- 2023-02-12 -->
      <g transform="translate(355.965044 495.213718) rotate(-45) scale(0.2 -0.2)">
       <use xlink:href="#DejaVuSans-32"/>
       <use xlink:href="#DejaVuSans-30" x="63.623047"/>
       <use xlink:href="#DejaVuSans-32" x="127.246094"/>
       <use xlink:href="#DejaVuSans-33" x="190.869141"/>
       <use xlink:href="#DejaVuSans-2d" x="254.492188"/>
       <use xlink:href="#DejaVuSans-30" x="290.576172"/>
       <use xlink:href="#DejaVuSans-32" x="354.199219"/>
       <use xlink:href="#DejaVuSans-2d" x="417.822266"/>
       <use xlink:href="#DejaVuSans-31" x="453.90625"/>
       <use xlink:href="#DejaVuSans-32" x="517.529297"/>
      </g>
     </g>
    </g>
    <g id="xtick_5">
     <g id="line2d_5">
      <g>
       <use xlink:href="#m3d854e22b9" x="553.767148" y="395.28" style="stroke: #000000; stroke-width: 0.8"/>
      </g>
     </g>
     <g id="text_5">
      <!-- 2023-02-26 -->
      <g transform="translate(468.638121 495.213718) rotate(-45) scale(0.2 -0.2)">
       <defs>
        <path id="DejaVuSans-36" d="M 2113 2584 
Q 1688 2584 1439 2293 
Q 1191 2003 1191 1497 
Q 1191 994 1439 701 
Q 1688 409 2113 409 
Q 2538 409 2786 701 
Q 3034 994 3034 1497 
Q 3034 2003 2786 2293 
Q 2538 2584 2113 2584 
z
M 3366 4563 
L 3366 3988 
Q 3128 4100 2886 4159 
Q 2644 4219 2406 4219 
Q 1781 4219 1451 3797 
Q 1122 3375 1075 2522 
Q 1259 2794 1537 2939 
Q 1816 3084 2150 3084 
Q 2853 3084 3261 2657 
Q 3669 2231 3669 1497 
Q 3669 778 3244 343 
Q 2819 -91 2113 -91 
Q 1303 -91 875 529 
Q 447 1150 447 2328 
Q 447 3434 972 4092 
Q 1497 4750 2381 4750 
Q 2619 4750 2861 4703 
Q 3103 4656 3366 4563 
z
" transform="scale(0.015625)"/>
       </defs>
       <use xlink:href="#DejaVuSans-32"/>
       <use xlink:href="#DejaVuSans-30" x="63.623047"/>
       <use xlink:href="#DejaVuSans-32" x="127.246094"/>
       <use xlink:href="#DejaVuSans-33" x="190.869141"/>
       <use xlink:href="#DejaVuSans-2d" x="254.492188"/>
       <use xlink:href="#DejaVuSans-30" x="290.576172"/>
       <use xlink:href="#DejaVuSans-32" x="354.199219"/>
       <use xlink:href="#DejaVuSans-2d" x="417.822266"/>
       <use xlink:href="#DejaVuSans-32" x="453.90625"/>
       <use xlink:href="#DejaVuSans-36" x="517.529297"/>
      </g>
     </g>
    </g>
    <g id="xtick_6">
     <g id="line2d_6">
      <g>
       <use xlink:href="#m3d854e22b9" x="666.440225" y="395.28" style="stroke: #000000; stroke-width: 0.8"/>
      </g>
     </g>
     <g id="text_6">
      <!-- 2023-03-12 -->
      <g transform="translate(581.311198 495.213718) rotate(-45) scale(0.2 -0.2)">
       <use xlink:href="#DejaVuSans-32"/>
       <use xlink:href="#DejaVuSans-30" x="63.623047"/>
       <use xlink:href="#DejaVuSans-32" x="127.246094"/>
       <use xlink:href="#DejaVuSans-33" x="190.869141"/>
       <use xlink:href="#DejaVuSans-2d" x="254.492188"/>
       <use xlink:href="#DejaVuSans-30" x="290.576172"/>
       <use xlink:href="#DejaVuSans-33" x="354.199219"/>
       <use xlink:href="#DejaVuSans-2d" x="417.822266"/>
       <use xlink:href="#DejaVuSans-31" x="453.90625"/>
       <use xlink:href="#DejaVuSans-32" x="517.529297"/>
      </g>
     </g>
    </g>
    <g id="xtick_7">
     <g id="line2d_7">
      <g>
       <use xlink:href="#m3d854e22b9" x="779.113302" y="395.28" style="stroke: #000000; stroke-width: 0.8"/>
      </g>
     </g>
     <g id="text_7">
      <!-- 2023-03-26 -->
      <g transform="translate(693.984275 495.213718) rotate(-45) scale(0.2 -0.2)">
       <use xlink:href="#DejaVuSans-32"/>
       <use xlink:href="#DejaVuSans-30" x="63.623047"/>
       <use xlink:href="#DejaVuSans-32" x="127.246094"/>
       <use xlink:href="#DejaVuSans-33" x="190.869141"/>
       <use xlink:href="#DejaVuSans-2d" x="254.492188"/>
       <use xlink:href="#DejaVuSans-30" x="290.576172"/>
       <use xlink:href="#DejaVuSans-33" x="354.199219"/>
       <use xlink:href="#DejaVuSans-2d" x="417.822266"/>
       <use xlink:href="#DejaVuSans-32" x="453.90625"/>
       <use xlink:href="#DejaVuSans-36" x="517.529297"/>
      </g>
     </g>
    </g>
    <g id="xtick_8">
     <g id="line2d_8">
      <g>
       <use xlink:href="#m3d854e22b9" x="891.786379" y="395.28" style="stroke: #000000; stroke-width: 0.8"/>
      </g>
     </g>
     <g id="text_8">
      <!-- 2023-04-09 -->
      <g transform="translate(806.657352 495.213718) rotate(-45) scale(0.2 -0.2)">
       <defs>
        <path id="DejaVuSans-34" d="M 2419 4116 
L 825 1625 
L 2419 1625 
L 2419 4116 
z
M 2253 4666 
L 3047 4666 
L 3047 1625 
L 3713 1625 
L 3713 1100 
L 3047 1100 
L 3047 0 
L 2419 0 
L 2419 1100 
L 313 1100 
L 313 1709 
L 2253 4666 
z
" transform="scale(0.015625)"/>
       </defs>
       <use xlink:href="#DejaVuSans-32"/>
       <use xlink:href="#DejaVuSans-30" x="63.623047"/>
       <use xlink:href="#DejaVuSans-32" x="127.246094"/>
       <use xlink:href="#DejaVuSans-33" x="190.869141"/>
       <use xlink:href="#DejaVuSans-2d" x="254.492188"/>
       <use xlink:href="#DejaVuSans-30" x="290.576172"/>
       <use xlink:href="#DejaVuSans-34" x="354.199219"/>
       <use xlink:href="#DejaVuSans-2d" x="417.822266"/>
       <use xlink:href="#DejaVuSans-30" x="453.90625"/>
       <use xlink:href="#DejaVuSans-39" x="517.529297"/>
      </g>
     </g>
    </g>
    <g id="xtick_9">
     <g id="line2d_9">
      <g>
       <use xlink:href="#m3d854e22b9" x="940.074841" y="395.28" style="stroke: #000000; stroke-width: 0.8"/>
      </g>
     </g>
     <g id="text_9">
      <!-- 2023-04-15 -->
      <g transform="translate(854.945813 495.213718) rotate(-45) scale(0.2 -0.2)">
       <use xlink:href="#DejaVuSans-32"/>
       <use xlink:href="#DejaVuSans-30" x="63.623047"/>
       <use xlink:href="#DejaVuSans-32" x="127.246094"/>
       <use xlink:href="#DejaVuSans-33" x="190.869141"/>
       <use xlink:href="#DejaVuSans-2d" x="254.492188"/>
       <use xlink:href="#DejaVuSans-30" x="290.576172"/>
       <use xlink:href="#DejaVuSans-34" x="354.199219"/>
       <use xlink:href="#DejaVuSans-2d" x="417.822266"/>
       <use xlink:href="#DejaVuSans-31" x="453.90625"/>
       <use xlink:href="#DejaVuSans-35" x="517.529297"/>
      </g>
     </g>
    </g>
   </g>
   <g id="matplotlib.axis_2">
    <g id="ytick_1">
     <g id="line2d_10">
      <defs>
       <path id="m282948eada" d="M 0 0 
L -3.5 0 
" style="stroke: #000000; stroke-width: 0.8"/>
      </defs>
      <g>
       <use xlink:href="#m282948eada" x="103.074841" y="365.336349" style="stroke: #000000; stroke-width: 0.8"/>
      </g>
     </g>
     <g id="text_10">
      <!-- −0.4 -->
      <g transform="translate(47.509216 372.934787) scale(0.2 -0.2)">
       <defs>
        <path id="DejaVuSans-2212" d="M 678 2272 
L 4684 2272 
L 4684 1741 
L 678 1741 
L 678 2272 
z
" transform="scale(0.015625)"/>
        <path id="DejaVuSans-2e" d="M 684 794 
L 1344 794 
L 1344 0 
L 684 0 
L 684 794 
z
" transform="scale(0.015625)"/>
       </defs>
       <use xlink:href="#DejaVuSans-2212"/>
       <use xlink:href="#DejaVuSans-30" x="83.789062"/>
       <use xlink:href="#DejaVuSans-2e" x="147.412109"/>
       <use xlink:href="#DejaVuSans-34" x="179.199219"/>
      </g>
     </g>
    </g>
    <g id="ytick_2">
     <g id="line2d_11">
      <g>
       <use xlink:href="#m282948eada" x="103.074841" y="311.389572" style="stroke: #000000; stroke-width: 0.8"/>
      </g>
     </g>
     <g id="text_11">
      <!-- −0.2 -->
      <g transform="translate(47.509216 318.98801) scale(0.2 -0.2)">
       <use xlink:href="#DejaVuSans-2212"/>
       <use xlink:href="#DejaVuSans-30" x="83.789062"/>
       <use xlink:href="#DejaVuSans-2e" x="147.412109"/>
       <use xlink:href="#DejaVuSans-32" x="179.199219"/>
      </g>
     </g>
    </g>
    <g id="ytick_3">
     <g id="line2d_12">
      <g>
       <use xlink:href="#m282948eada" x="103.074841" y="257.442796" style="stroke: #000000; stroke-width: 0.8"/>
      </g>
     </g>
     <g id="text_12">
      <!-- 0.0 -->
      <g transform="translate(64.268591 265.041233) scale(0.2 -0.2)">
       <use xlink:href="#DejaVuSans-30"/>
       <use xlink:href="#DejaVuSans-2e" x="63.623047"/>
       <use xlink:href="#DejaVuSans-30" x="95.410156"/>
      </g>
     </g>
    </g>
    <g id="ytick_4">
     <g id="line2d_13">
      <g>
       <use xlink:href="#m282948eada" x="103.074841" y="203.496019" style="stroke: #000000; stroke-width: 0.8"/>
      </g>
     </g>
     <g id="text_13">
      <!-- 0.2 -->
      <g transform="translate(64.268591 211.094456) scale(0.2 -0.2)">
       <use xlink:href="#DejaVuSans-30"/>
       <use xlink:href="#DejaVuSans-2e" x="63.623047"/>
       <use xlink:href="#DejaVuSans-32" x="95.410156"/>
      </g>
     </g>
    </g>
    <g id="ytick_5">
     <g id="line2d_14">
      <g>
       <use xlink:href="#m282948eada" x="103.074841" y="149.549242" style="stroke: #000000; stroke-width: 0.8"/>
      </g>
     </g>
     <g id="text_14">
      <!-- 0.4 -->
      <g transform="translate(64.268591 157.147679) scale(0.2 -0.2)">
       <use xlink:href="#DejaVuSans-30"/>
       <use xlink:href="#DejaVuSans-2e" x="63.623047"/>
       <use xlink:href="#DejaVuSans-34" x="95.410156"/>
      </g>
     </g>
    </g>
    <g id="ytick_6">
     <g id="line2d_15">
      <g>
       <use xlink:href="#m282948eada" x="103.074841" y="95.602465" style="stroke: #000000; stroke-width: 0.8"/>
      </g>
     </g>
     <g id="text_15">
      <!-- 0.6 -->
      <g transform="translate(64.268591 103.200903) scale(0.2 -0.2)">
       <use xlink:href="#DejaVuSans-30"/>
       <use xlink:href="#DejaVuSans-2e" x="63.623047"/>
       <use xlink:href="#DejaVuSans-36" x="95.410156"/>
      </g>
     </g>
    </g>
    <g id="ytick_7">
     <g id="line2d_16">
      <g>
       <use xlink:href="#m282948eada" x="103.074841" y="41.655688" style="stroke: #000000; stroke-width: 0.8"/>
      </g>
     </g>
     <g id="text_16">
      <!-- 0.8 -->
      <g transform="translate(64.268591 49.254126) scale(0.2 -0.2)">
       <defs>
        <path id="DejaVuSans-38" d="M 2034 2216 
Q 1584 2216 1326 1975 
Q 1069 1734 1069 1313 
Q 1069 891 1326 650 
Q 1584 409 2034 409 
Q 2484 409 2743 651 
Q 3003 894 3003 1313 
Q 3003 1734 2745 1975 
Q 2488 2216 2034 2216 
z
M 1403 2484 
Q 997 2584 770 2862 
Q 544 3141 544 3541 
Q 544 4100 942 4425 
Q 1341 4750 2034 4750 
Q 2731 4750 3128 4425 
Q 3525 4100 3525 3541 
Q 3525 3141 3298 2862 
Q 3072 2584 2669 2484 
Q 3125 2378 3379 2068 
Q 3634 1759 3634 1313 
Q 3634 634 3220 271 
Q 2806 -91 2034 -91 
Q 1263 -91 848 271 
Q 434 634 434 1313 
Q 434 1759 690 2068 
Q 947 2378 1403 2484 
z
M 1172 3481 
Q 1172 3119 1398 2916 
Q 1625 2713 2034 2713 
Q 2441 2713 2670 2916 
Q 2900 3119 2900 3481 
Q 2900 3844 2670 4047 
Q 2441 4250 2034 4250 
Q 1625 4250 1398 4047 
Q 1172 3844 1172 3481 
z
" transform="scale(0.015625)"/>
       </defs>
       <use xlink:href="#DejaVuSans-30"/>
       <use xlink:href="#DejaVuSans-2e" x="63.623047"/>
       <use xlink:href="#DejaVuSans-38" x="95.410156"/>
      </g>
     </g>
    </g>
   </g>
   <g id="line2d_17">
    <path d="M 135.267148 257.442796 
L 175.507533 257.442796 
L 183.55561 24.84 
L 191.603687 257.442796 
L 239.892148 257.442796 
L 247.940225 246.893727 
L 255.988302 257.442796 
L 296.228687 257.442796 
L 304.276764 377.64 
L 312.324841 257.442796 
L 360.613302 257.442796 
M 940.074841 257.442796 
" clip-path="url(#pf5fcb0fafd)" style="fill: none; stroke: #ffa500; stroke-width: 1.5; stroke-linecap: square"/>
   </g>
   <g id="line2d_18">
    <path d="M 103.074841 257.442796 
L 948.274841 257.442796 
" clip-path="url(#pf5fcb0fafd)" style="fill: none; stroke-dasharray: 7.4,3.2; stroke-dashoffset: 0; stroke: #000000; stroke-width: 2"/>
   </g>
   <g id="patch_3">
    <path d="M 103.074841 395.28 
L 103.074841 7.2 
" style="fill: none; stroke: #000000; stroke-width: 0.8; stroke-linejoin: miter; stroke-linecap: square"/>
   </g>
   <g id="patch_4">
    <path d="M 940.074841 395.28 
L 940.074841 7.2 
" style="fill: none; stroke: #000000; stroke-width: 0.8; stroke-linejoin: miter; stroke-linecap: square"/>
   </g>
   <g id="patch_5">
    <path d="M 103.074841 395.28 
L 940.074841 395.28 
" style="fill: none; stroke: #000000; stroke-width: 0.8; stroke-linejoin: miter; stroke-linecap: square"/>
   </g>
   <g id="patch_6">
    <path d="M 103.074841 7.2 
L 940.074841 7.2 
" style="fill: none; stroke: #000000; stroke-width: 0.8; stroke-linejoin: miter; stroke-linecap: square"/>
   </g>
  </g>
 </g>
 <defs>
  <clipPath id="pf5fcb0fafd">
   <rect x="103.074841" y="7.2" width="837" height="388.08"/>
  </clipPath>
 </defs>
</svg>
