<?xml version="1.0" encoding="utf-8" standalone="no"?>
<!DOCTYPE svg PUBLIC "-//W3C//DTD SVG 1.1//EN"
  "http://www.w3.org/Graphics/SVG/1.1/DTD/svg11.dtd">
<svg xmlns:xlink="http://www.w3.org/1999/xlink" width="1040.965466pt" height="505.354841pt" viewBox="0 0 1040.965466 505.354841" xmlns="http://www.w3.org/2000/svg" version="1.1">
 <metadata>
  <rdf:RDF xmlns:dc="http://purl.org/dc/elements/1.1/" xmlns:cc="http://creativecommons.org/ns#" xmlns:rdf="http://www.w3.org/1999/02/22-rdf-syntax-ns#">
   <cc:Work>
    <dc:type rdf:resource="http://purl.org/dc/dcmitype/StillImage"/>
    <dc:date>2023-11-24T15:26:56.143886</dc:date>
    <dc:format>image/svg+xml</dc:format>
    <dc:creator>
     <cc:Agent>
      <dc:title>Matplotlib v3.7.2, https://matplotlib.org/</dc:title>
     </cc:Agent>
    </dc:creator>
   </cc:Work>
  </rdf:RDF>
 </metadata>
 <defs>
  <style type="text/css">*{stroke-linejoin: round; stroke-linecap: butt}</style>
 </defs>
 <g id="figure_1">
  <g id="patch_1">
   <path d="M 0 505.354841 
L 1040.965466 505.354841 
L 1040.965466 -0 
L 0 -0 
z
" style="fill: #ffffff"/>
  </g>
  <g id="axes_1">
   <g id="patch_2">
    <path d="M 103.074841 395.28 
L 940.074841 395.28 
L 940.074841 7.2 
L 103.074841 7.2 
z
" style="fill: #ffffff"/>
   </g>
   <g id="PolyCollection_1">
    <defs>
     <path id="mb8846693e4" d="M 103.074841 -177.249747 
L 103.074841 -177.239115 
L 104.356617 -177.313626 
L 105.638394 -177.367303 
L 106.92017 -177.427897 
L 108.201946 -177.467534 
L 109.483723 -177.511101 
L 110.765499 -177.568457 
L 112.047276 -177.622742 
L 113.329052 -177.670158 
L 114.610828 -177.70755 
L 115.892605 -177.756245 
L 117.174381 -177.81109 
L 118.456158 -177.864799 
L 119.737934 -177.928244 
L 121.019711 -177.977885 
L 122.301487 -178.038752 
L 123.583263 -178.098624 
L 124.86504 -178.166318 
L 126.146816 -178.223699 
L 127.428593 -178.277723 
L 128.710369 -178.347023 
L 129.992145 -178.413341 
L 131.273922 -178.475868 
L 132.555698 -178.555755 
L 133.837475 -178.619833 
L 135.119251 -178.704268 
L 136.401028 -178.781765 
L 137.682804 -178.876151 
L 138.96458 -178.973651 
L 140.246357 -179.063028 
L 141.528133 -179.166187 
L 142.80991 -179.2915 
L 144.091686 -179.3951 
L 145.373462 -179.516918 
L 146.655239 -179.661435 
L 147.937015 -179.794317 
L 149.218792 -179.943185 
L 150.500568 -180.099601 
L 151.782345 -180.256858 
L 153.064121 -180.433107 
L 154.345897 -180.624473 
L 155.627674 -180.8208 
L 156.90945 -181.030087 
L 158.191227 -181.242962 
L 159.473003 -181.47484 
L 160.754779 -181.698424 
L 162.036556 -181.945177 
L 163.318332 -182.17615 
L 164.600109 -182.439542 
L 165.881885 -182.723278 
L 167.163662 -182.98303 
L 168.445438 -183.264445 
L 169.727214 -183.565637 
L 171.008991 -183.855041 
L 172.290767 -184.147887 
L 173.572544 -184.457466 
L 174.85432 -184.768667 
L 176.136096 -185.081185 
L 177.417873 -185.410081 
L 178.699649 -185.742419 
L 179.981426 -186.070646 
L 181.263202 -186.412783 
L 182.544979 -186.755724 
L 183.826755 -187.092556 
L 185.108531 -187.453603 
L 186.390308 -187.819804 
L 187.672084 -188.184663 
L 188.953861 -188.547394 
L 190.235637 -188.904994 
L 191.517413 -189.276537 
L 192.79919 -189.638996 
L 194.080966 -190.011078 
L 195.362743 -190.340069 
L 196.644519 -190.739939 
L 197.926296 -191.096674 
L 199.208072 -191.468557 
L 200.489848 -191.812705 
L 201.771625 -192.196122 
L 203.053401 -192.559914 
L 204.335178 -192.931953 
L 205.616954 -193.292757 
L 206.89873 -193.645373 
L 208.180507 -194.004905 
L 209.462283 -194.349222 
L 210.74406 -194.712556 
L 212.025836 -195.082344 
L 213.307613 -195.434706 
L 214.589389 -195.778584 
L 215.871165 -196.157495 
L 217.152942 -196.507574 
L 218.434718 -196.869766 
L 219.716495 -197.225218 
L 220.998271 -197.570969 
L 222.280047 -197.925564 
L 223.561824 -198.279322 
L 224.8436 -198.585026 
L 226.125377 -198.951417 
L 227.407153 -199.297949 
L 228.68893 -199.637999 
L 229.970706 -199.980141 
L 231.252482 -200.322483 
L 232.534259 -200.672206 
L 233.816035 -201.001149 
L 235.097812 -201.349131 
L 236.379588 -201.709889 
L 237.661364 -202.076691 
L 238.943141 -202.449064 
L 240.224917 -202.789918 
L 241.506694 -203.177878 
L 242.78847 -203.598227 
L 244.070247 -203.990145 
L 245.352023 -204.399432 
L 246.633799 -204.820209 
L 247.915576 -205.270373 
L 249.197352 -205.729566 
L 250.479129 -206.146012 
L 251.760905 -206.636112 
L 253.042681 -207.093853 
L 254.324458 -207.595353 
L 255.606234 -208.043295 
L 256.888011 -208.59076 
L 258.169787 -209.123558 
L 259.451564 -209.634988 
L 260.73334 -210.155582 
L 262.015116 -210.694122 
L 263.296893 -211.261602 
L 264.578669 -211.781991 
L 265.860446 -212.39789 
L 267.142222 -212.91858 
L 268.423998 -213.551942 
L 269.705775 -214.157574 
L 270.987551 -214.743218 
L 272.269328 -215.365484 
L 273.551104 -215.997 
L 274.832881 -216.554216 
L 276.114657 -217.341069 
L 277.396433 -217.990633 
L 278.67821 -218.58049 
L 279.959986 -219.265651 
L 281.241763 -219.998616 
L 282.523539 -220.814132 
L 283.805315 -221.567869 
L 285.087092 -222.164135 
L 286.368868 -223.22473 
L 287.650645 -224.027318 
L 288.932421 -224.845253 
L 290.214198 -225.692288 
L 291.495974 -226.682124 
L 292.77775 -227.615336 
L 294.059527 -228.221549 
L 295.341303 -229.052077 
L 296.62308 -230.626379 
L 297.904856 -231.87011 
L 299.186632 -232.72835 
L 300.468409 -233.918734 
L 301.750185 -235.024208 
L 303.031962 -235.78192 
L 304.313738 -237.195752 
L 305.595515 -238.778371 
L 306.877291 -239.700961 
L 308.159067 -240.240777 
L 309.440844 -241.516445 
L 310.72262 -242.059649 
L 312.004397 -242.642804 
L 313.286173 -244.204065 
L 314.567949 -244.049646 
L 315.849726 -243.234008 
L 317.131502 -241.945928 
L 318.413279 -243.391668 
L 319.695055 -240.502228 
L 320.976832 -239.419673 
L 322.258608 -243.203927 
L 323.540384 -242.727436 
L 324.822161 -240.540837 
L 326.103937 -241.671688 
L 327.385714 -241.315624 
L 328.66749 -233.620566 
L 329.949266 -222.931858 
L 331.231043 -217.050953 
L 332.512819 -229.354007 
L 333.794596 -223.23595 
L 335.076372 -215.240954 
L 336.358149 -215.277035 
L 337.639925 -199.248762 
L 338.921701 -201.775709 
L 340.203478 -205.986262 
L 341.485254 -219.092267 
L 342.767031 -207.419292 
L 344.048807 -200.626554 
L 345.330583 -203.699493 
L 346.61236 -201.680787 
L 347.894136 -195.051438 
L 349.175913 -196.075977 
L 350.457689 -202.201361 
L 351.739466 -194.911681 
L 353.021242 -193.585817 
L 354.303018 -196.476022 
L 355.584795 -191.667185 
L 356.866571 -189.845819 
L 358.148348 -190.543371 
L 359.430124 -192.117051 
L 360.7119 -190.45722 
L 361.993677 -192.202783 
L 363.275453 -192.053682 
L 364.55723 -190.496838 
L 365.839006 -191.965425 
L 367.120783 -191.201692 
L 368.402559 -191.074697 
L 369.684335 -192.355133 
L 370.966112 -191.803413 
L 372.247888 -193.966104 
L 373.529665 -193.479366 
L 374.811441 -192.900155 
L 376.093217 -192.74843 
L 377.374994 -193.645902 
L 378.65677 -194.459123 
L 379.938547 -194.634736 
L 381.220323 -195.252478 
L 382.502099 -195.27971 
L 383.783876 -195.455038 
L 385.065652 -196.589193 
L 386.347429 -195.81736 
L 387.629205 -196.689401 
L 388.910982 -197.13793 
L 390.192758 -196.815223 
L 391.474534 -197.561042 
L 392.756311 -197.653611 
L 394.038087 -197.294592 
L 395.319864 -196.855565 
L 396.60164 -198.156053 
L 397.883416 -198.827527 
L 399.165193 -198.685969 
L 400.446969 -196.467525 
L 401.728746 -196.417495 
L 403.010522 -195.609554 
L 404.292299 -197.717509 
L 405.574075 -199.073221 
L 406.855851 -198.700034 
L 408.137628 -197.300512 
L 409.419404 -197.13135 
L 410.701181 -199.77478 
L 411.982957 -197.592205 
L 413.264733 -198.761727 
L 414.54651 -198.867445 
L 415.828286 -200.31313 
L 417.110063 -199.508407 
L 418.391839 -200.127653 
L 419.673616 -199.541142 
L 420.955392 -200.489883 
L 422.237168 -201.480369 
L 423.518945 -202.712048 
L 424.800721 -203.270083 
L 426.082498 -203.961612 
L 427.364274 -204.858169 
L 428.64605 -204.921953 
L 429.927827 -205.919489 
L 431.209603 -206.886595 
L 432.49138 -208.659802 
L 433.773156 -210.376848 
L 435.054933 -211.281407 
L 436.336709 -213.027785 
L 437.618485 -213.429354 
L 438.900262 -214.850231 
L 440.182038 -216.926369 
L 441.463815 -218.703219 
L 442.745591 -220.10245 
L 444.027367 -222.327796 
L 445.309144 -223.597937 
L 446.59092 -225.660507 
L 447.872697 -227.586014 
L 449.154473 -229.442525 
L 450.43625 -231.694885 
L 451.718026 -233.518278 
L 452.999802 -235.800997 
L 454.281579 -237.702796 
L 455.563355 -240.178029 
L 456.845132 -242.364401 
L 458.126908 -244.609794 
L 459.408684 -246.79817 
L 460.690461 -249.130551 
L 461.972237 -251.584221 
L 463.254014 -253.951528 
L 464.53579 -256.947295 
L 465.817567 -259.190674 
L 467.099343 -261.689202 
L 468.381119 -263.876364 
L 469.662896 -266.774731 
L 470.944672 -269.635474 
L 472.226449 -271.909351 
L 473.508225 -274.911276 
L 474.790001 -278.053621 
L 476.071778 -280.670016 
L 477.353554 -283.737804 
L 478.635331 -286.18724 
L 479.917107 -289.272287 
L 481.198884 -292.88179 
L 482.48066 -295.850231 
L 483.762436 -298.252309 
L 485.044213 -301.753965 
L 486.325989 -304.684474 
L 487.607766 -307.978497 
L 488.889542 -310.522938 
L 490.171318 -314.246363 
L 491.453095 -317.588052 
L 492.734871 -317.699058 
L 494.016648 -323.780297 
L 495.298424 -325.35042 
L 496.580201 -328.927666 
L 497.861977 -331.05158 
L 499.143753 -334.773803 
L 500.42553 -337.475244 
L 501.707306 -340.546315 
L 502.989083 -343.124463 
L 504.270859 -345.543782 
L 505.552635 -348.458905 
L 506.834412 -347.430958 
L 508.116188 -354.597313 
L 509.397965 -355.864954 
L 510.679741 -353.563142 
L 511.961518 -360.140007 
L 513.243294 -359.566446 
L 514.52507 -360.71266 
L 515.806847 -365.066863 
L 517.088623 -365.055914 
L 518.3704 -361.272859 
L 519.652176 -365.910396 
L 520.933952 -366.751186 
L 522.215729 -365.447451 
L 523.497505 -365.924259 
L 524.779282 -364.645629 
L 526.061058 -362.397398 
L 527.342835 -359.797241 
L 528.624611 -349.284207 
L 529.906387 -353.813338 
L 531.188164 -348.435429 
L 532.46994 -345.457579 
L 533.751717 -343.160037 
L 535.033493 -339.637843 
L 536.315269 -336.157993 
L 537.597046 -342.109645 
L 538.878822 -338.056799 
L 540.160599 -330.707406 
L 541.442375 -327.656272 
L 542.724152 -327.400357 
L 544.005928 -315.924221 
L 545.287704 -314.980688 
L 546.569481 -311.950226 
L 547.851257 -312.652247 
L 549.133034 -301.442488 
L 550.41481 -304.527559 
L 551.696586 -307.224732 
L 552.978363 -296.860076 
L 554.260139 -290.428459 
L 555.541916 -290.873467 
L 556.823692 -286.193653 
L 558.105469 -284.994623 
L 559.387245 -284.538335 
L 560.669021 -284.514645 
L 561.950798 -283.157962 
L 563.232574 -281.357775 
L 564.514351 -274.317133 
L 565.796127 -279.02193 
L 567.077903 -272.989315 
L 568.35968 -273.999507 
L 569.641456 -275.184093 
L 570.923233 -272.881802 
L 572.205009 -270.893868 
L 573.486786 -274.428035 
L 574.768562 -271.838095 
L 576.050338 -272.139024 
L 577.332115 -269.365703 
L 578.613891 -270.703151 
L 579.895668 -272.271618 
L 581.177444 -270.913225 
L 582.45922 -270.976966 
L 583.740997 -271.711935 
L 585.022773 -272.945631 
L 586.30455 -272.504247 
L 587.586326 -274.873519 
L 588.868103 -274.754227 
L 590.149879 -272.407298 
L 591.431655 -273.186301 
L 592.713432 -275.758234 
L 593.995208 -276.099995 
L 595.276985 -276.878283 
L 596.558761 -280.162748 
L 597.840537 -279.530442 
L 599.122314 -278.235369 
L 600.40409 -281.49463 
L 601.685867 -282.354912 
L 602.967643 -284.249505 
L 604.24942 -284.089028 
L 605.531196 -284.995795 
L 606.812972 -286.497085 
L 608.094749 -287.439867 
L 609.376525 -288.438015 
L 610.658302 -289.871644 
L 611.940078 -292.347089 
L 613.221854 -293.5161 
L 614.503631 -295.257807 
L 615.785407 -298.768338 
L 617.067184 -296.942999 
L 618.34896 -300.892054 
L 619.630737 -300.436425 
L 620.912513 -301.10493 
L 622.194289 -301.41581 
L 623.476066 -303.669003 
L 624.757842 -303.795445 
L 626.039619 -304.398601 
L 627.321395 -308.230134 
L 628.603171 -307.619388 
L 629.884948 -308.482091 
L 631.166724 -308.207662 
L 632.448501 -310.75869 
L 633.730277 -310.284596 
L 635.012054 -311.149337 
L 636.29383 -314.671401 
L 637.575606 -315.178246 
L 638.857383 -316.240302 
L 640.139159 -316.755952 
L 641.420936 -318.481509 
L 642.702712 -318.532261 
L 643.984488 -319.441971 
L 645.266265 -320.189659 
L 646.548041 -321.382404 
L 647.829818 -323.25774 
L 649.111594 -321.791151 
L 650.393371 -322.433211 
L 651.675147 -323.913266 
L 652.956923 -324.878534 
L 654.2387 -327.141746 
L 655.520476 -325.5994 
L 656.802253 -326.190503 
L 658.084029 -326.450802 
L 659.365805 -327.789066 
L 660.647582 -329.249788 
L 661.929358 -330.288512 
L 663.211135 -330.428604 
L 664.492911 -330.822213 
L 665.774688 -331.090472 
L 667.056464 -332.886952 
L 668.33824 -334.556659 
L 669.620017 -332.726208 
L 670.901793 -335.198097 
L 672.18357 -335.01077 
L 673.465346 -334.400058 
L 674.747122 -338.145723 
L 676.028899 -337.723742 
L 677.310675 -337.277545 
L 678.592452 -338.701819 
L 679.874228 -337.218092 
L 681.156005 -339.70783 
L 682.437781 -341.590149 
L 683.719557 -339.289835 
L 685.001334 -339.416091 
L 686.28311 -341.110497 
L 687.564887 -340.527677 
L 688.846663 -341.565248 
L 690.128439 -338.111528 
L 691.410216 -339.118507 
L 692.691992 -338.889366 
L 693.973769 -342.162026 
L 695.255545 -344.462932 
L 696.537322 -341.843229 
L 697.819098 -338.89969 
L 699.100874 -342.659839 
L 700.382651 -343.121407 
L 701.664427 -345.867963 
L 702.946204 -345.553648 
L 704.22798 -344.102948 
L 705.509756 -346.21439 
L 706.791533 -348.267127 
L 708.073309 -344.939706 
L 709.355086 -347.37554 
L 710.636862 -344.467791 
L 711.918639 -343.911705 
L 713.200415 -348.910428 
L 714.482191 -348.248639 
L 715.763968 -349.814181 
L 717.045744 -348.446969 
L 718.327521 -346.574201 
L 719.609297 -341.246516 
L 720.891073 -339.260615 
L 722.17285 -341.446854 
L 723.454626 -336.190316 
L 724.736403 -328.135958 
L 726.018179 -337.710408 
L 727.299956 -340.992965 
L 728.581732 -337.508374 
L 729.863508 -334.463915 
L 731.145285 -333.854655 
L 732.427061 -335.606427 
L 733.708838 -329.389133 
L 734.990614 -325.618413 
L 736.27239 -332.456199 
L 737.554167 -326.155881 
L 738.835943 -329.091952 
L 740.11772 -329.044857 
L 741.399496 -323.300161 
L 742.681273 -324.9528 
L 743.963049 -320.370727 
L 745.244825 -320.025962 
L 746.526602 -326.472234 
L 747.808378 -321.384204 
L 749.090155 -321.730225 
L 750.371931 -317.711341 
L 751.653707 -319.396108 
L 752.935484 -314.63862 
L 754.21726 -318.064637 
L 755.499037 -315.291648 
L 756.780813 -315.118986 
L 758.06259 -313.555718 
L 759.344366 -318.387317 
L 760.626142 -313.005785 
L 761.907919 -311.472935 
L 763.189695 -309.364122 
L 764.471472 -305.685458 
L 765.753248 -307.03425 
L 767.035024 -308.076353 
L 768.316801 -304.816187 
L 769.598577 -301.956486 
L 770.880354 -304.936598 
L 772.16213 -306.45973 
L 773.443907 -303.381688 
L 774.725683 -301.316909 
L 776.007459 -305.521651 
L 777.289236 -306.521231 
L 778.571012 -299.002162 
L 779.852789 -296.447526 
L 781.134565 -304.054838 
L 782.416341 -301.896186 
L 783.698118 -300.472423 
L 784.979894 -299.399124 
L 786.261671 -294.797327 
L 787.543447 -296.830237 
L 788.825224 -299.574771 
L 790.107 -296.324415 
L 791.388776 -294.56542 
L 792.670553 -299.583266 
L 793.952329 -298.655746 
L 795.234106 -298.971186 
L 796.515882 -291.291737 
L 797.797658 -286.546024 
L 799.079435 -285.92655 
L 800.361211 -292.085159 
L 801.642988 -294.673685 
L 802.924764 -292.72865 
L 804.206541 -292.276393 
L 805.488317 -285.241856 
L 806.770093 -293.620556 
L 808.05187 -286.529285 
L 809.333646 -282.071878 
L 810.615423 -286.092082 
L 811.897199 -278.569502 
L 813.178975 -283.082446 
L 814.460752 -281.302692 
L 815.742528 -280.480786 
L 817.024305 -278.772675 
L 818.306081 -274.993669 
L 819.587858 -277.279052 
L 820.869634 -274.923381 
L 822.15141 -273.65975 
L 823.433187 -273.485896 
L 824.714963 -282.077481 
L 825.99674 -269.32163 
L 827.278516 -264.799284 
L 828.560292 -269.381993 
L 829.842069 -265.704933 
L 831.123845 -264.219354 
L 832.405622 -266.273483 
L 833.687398 -262.196179 
L 834.969175 -256.937038 
L 836.250951 -258.287328 
L 837.532727 -256.798919 
L 838.814504 -254.822536 
L 840.09628 -254.236416 
L 841.378057 -250.643194 
L 842.659833 -257.50479 
L 843.941609 -247.100861 
L 845.223386 -246.993236 
L 846.505162 -247.669425 
L 847.786939 -252.707501 
L 849.068715 -244.41712 
L 850.350492 -238.025705 
L 851.632268 -244.700084 
L 852.914044 -242.991192 
L 854.195821 -236.009864 
L 855.477597 -248.70131 
L 856.759374 -236.979732 
L 858.04115 -243.50748 
L 859.322926 -232.046325 
L 860.604703 -238.016468 
L 861.886479 -232.543831 
L 863.168256 -231.648106 
L 864.450032 -228.019589 
L 865.731809 -228.014137 
L 867.013585 -229.736604 
L 868.295361 -230.072356 
L 869.577138 -227.722541 
L 870.858914 -222.745937 
L 872.140691 -223.050369 
L 873.422467 -223.513315 
L 874.704243 -219.284147 
L 875.98602 -219.285592 
L 877.267796 -220.125404 
L 878.549573 -220.828302 
L 879.831349 -215.625837 
L 881.113126 -214.908727 
L 882.394902 -213.448555 
L 883.676678 -216.1333 
L 884.958455 -220.592915 
L 886.240231 -213.98869 
L 887.522008 -216.650759 
L 888.803784 -214.366301 
L 890.08556 -212.045098 
L 891.367337 -214.658476 
L 892.649113 -210.406318 
L 893.93089 -213.187378 
L 895.212666 -213.243567 
L 896.494443 -212.202925 
L 897.776219 -209.569999 
L 899.057995 -210.674947 
L 900.339772 -210.852681 
L 901.621548 -212.219848 
L 902.903325 -211.531355 
L 904.185101 -210.667836 
L 905.466877 -211.162687 
L 906.748654 -208.605306 
L 908.03043 -209.381109 
L 909.312207 -207.367374 
L 910.593983 -206.434707 
L 911.87576 -206.062156 
L 913.157536 -207.257608 
L 914.439312 -207.492339 
L 915.721089 -208.198596 
L 917.002865 -207.102149 
L 918.284642 -207.293456 
L 919.566418 -208.725291 
L 920.848194 -206.834553 
L 922.129971 -214.662665 
L 923.411747 -207.227038 
L 924.693524 -205.063886 
L 925.9753 -207.812011 
L 927.257077 -207.772456 
L 928.538853 -206.137712 
L 929.820629 -205.914136 
L 931.102406 -208.171769 
L 932.384182 -208.707656 
L 933.665959 -207.286429 
L 934.947735 -208.350066 
L 936.229511 -205.008381 
L 937.511288 -207.412579 
L 938.793064 -204.28975 
L 940.074841 -207.684169 
L 940.074841 -239.362806 
L 940.074841 -239.362806 
L 938.793064 -242.325817 
L 937.511288 -246.32099 
L 936.229511 -242.056423 
L 934.947735 -250.032004 
L 933.665959 -247.520922 
L 932.384182 -248.877002 
L 931.102406 -256.686001 
L 929.820629 -248.171653 
L 928.538853 -243.412495 
L 927.257077 -255.539074 
L 925.9753 -250.329967 
L 924.693524 -244.567222 
L 923.411747 -248.464868 
L 922.129971 -296.510797 
L 920.848194 -249.682256 
L 919.566418 -258.290931 
L 918.284642 -249.734487 
L 917.002865 -250.108158 
L 915.721089 -253.049056 
L 914.439312 -253.591393 
L 913.157536 -253.951687 
L 911.87576 -248.600349 
L 910.593983 -249.200609 
L 909.312207 -254.728462 
L 908.03043 -261.44296 
L 906.748654 -257.166637 
L 905.466877 -264.698865 
L 904.185101 -262.628962 
L 902.903325 -266.898253 
L 901.621548 -269.730124 
L 900.339772 -264.24413 
L 899.057995 -264.120051 
L 897.776219 -262.003411 
L 896.494443 -267.537575 
L 895.212666 -273.004763 
L 893.93089 -273.116949 
L 892.649113 -262.645749 
L 891.367337 -276.859948 
L 890.08556 -267.493484 
L 888.803784 -274.12473 
L 887.522008 -280.296766 
L 886.240231 -272.353864 
L 884.958455 -296.296127 
L 883.676678 -278.098853 
L 882.394902 -270.431685 
L 881.113126 -274.836209 
L 879.831349 -275.593118 
L 878.549573 -294.650744 
L 877.267796 -290.228747 
L 875.98602 -286.75163 
L 874.704243 -285.654938 
L 873.422467 -297.813357 
L 872.140691 -295.201558 
L 870.858914 -295.337028 
L 869.577138 -305.032165 
L 868.295361 -313.642729 
L 867.013585 -313.593202 
L 865.731809 -308.690964 
L 864.450032 -308.447733 
L 863.168256 -315.77744 
L 861.886479 -317.604512 
L 860.604703 -333.726655 
L 859.322926 -315.381104 
L 858.04115 -354.37843 
L 856.759374 -330.773555 
L 855.477597 -365.005728 
L 854.195821 -326.01149 
L 852.914044 -344.741831 
L 851.632268 -346.411134 
L 850.350492 -332.181867 
L 849.068715 -347.706598 
L 847.786939 -369.741491 
L 846.505162 -356.733502 
L 845.223386 -352.93359 
L 843.941609 -352.648885 
L 842.659833 -380.194037 
L 841.378057 -369.993259 
L 840.09628 -369.364763 
L 838.814504 -370.363914 
L 837.532727 -375.231591 
L 836.250951 -380.026695 
L 834.969175 -374.876055 
L 833.687398 -389.083905 
L 832.405622 -399.261977 
L 831.123845 -389.716062 
L 829.842069 -397.688901 
L 828.560292 -403.071197 
L 827.278516 -391.41929 
L 825.99674 -402.126031 
L 824.714963 -433.777832 
L 823.433187 -412.582901 
L 822.15141 -413.769274 
L 820.869634 -415.498931 
L 819.587858 -421.133565 
L 818.306081 -415.09664 
L 817.024305 -422.904634 
L 815.742528 -426.059975 
L 814.460752 -428.201765 
L 813.178975 -434.235629 
L 811.897199 -421.259254 
L 810.615423 -438.490548 
L 809.333646 -429.758123 
L 808.05187 -438.697031 
L 806.770093 -452.224216 
L 805.488317 -435.530162 
L 804.206541 -451.576203 
L 802.924764 -450.722615 
L 801.642988 -453.904876 
L 800.361211 -448.159399 
L 799.079435 -434.874617 
L 797.797658 -434.662953 
L 796.515882 -444.132311 
L 795.234106 -462.219646 
L 793.952329 -460.763504 
L 792.670553 -460.51656 
L 791.388776 -449.761115 
L 790.107 -452.241588 
L 788.825224 -458.885122 
L 787.543447 -451.92966 
L 786.261671 -448.702317 
L 784.979894 -456.764793 
L 783.698118 -457.062043 
L 782.416341 -459.808988 
L 781.134565 -463.365582 
L 779.852789 -446.099264 
L 778.571012 -453.606552 
L 777.289236 -465.863683 
L 776.007459 -461.73313 
L 774.725683 -453.02438 
L 773.443907 -457.104146 
L 772.16213 -461.508876 
L 770.880354 -456.895118 
L 769.598577 -448.775544 
L 768.316801 -456.731845 
L 767.035024 -460.527658 
L 765.753248 -456.858095 
L 764.471472 -458.257114 
L 763.189695 -460.140245 
L 761.907919 -462.735566 
L 760.626142 -464.494214 
L 759.344366 -473.464303 
L 758.06259 -464.642523 
L 756.780813 -466.194955 
L 755.499037 -464.769709 
L 754.21726 -466.528041 
L 752.935484 -462.423703 
L 751.653707 -468.834314 
L 750.371931 -464.183291 
L 749.090155 -470.122689 
L 747.808378 -468.214011 
L 746.526602 -475.270479 
L 745.244825 -467.387397 
L 743.963049 -464.383986 
L 742.681273 -468.028371 
L 741.399496 -467.191884 
L 740.11772 -473.566011 
L 738.835943 -471.511244 
L 737.554167 -468.933039 
L 736.27239 -476.375334 
L 734.990614 -467.989118 
L 733.708838 -470.0604 
L 732.427061 -478.470112 
L 731.145285 -474.582492 
L 729.863508 -474.846838 
L 728.581732 -476.732241 
L 727.299956 -480.320961 
L 726.018179 -476.036629 
L 724.736403 -460.657438 
L 723.454626 -470.272928 
L 722.17285 -477.180464 
L 720.891073 -473.682604 
L 719.609297 -475.372568 
L 718.327521 -479.816429 
L 717.045744 -481.664835 
L 715.763968 -482.873139 
L 714.482191 -479.073569 
L 713.200415 -478.270601 
L 711.918639 -471.982454 
L 710.636862 -471.268308 
L 709.355086 -473.352583 
L 708.073309 -468.767583 
L 706.791533 -472.512161 
L 705.509756 -467.566026 
L 704.22798 -464.666541 
L 702.946204 -463.634867 
L 701.664427 -464.018121 
L 700.382651 -458.954807 
L 699.100874 -457.737448 
L 697.819098 -452.785151 
L 696.537322 -454.10604 
L 695.255545 -455.857668 
L 693.973769 -452.16208 
L 692.691992 -449.035487 
L 691.410216 -447.932958 
L 690.128439 -444.529411 
L 688.846663 -447.865147 
L 687.564887 -445.405552 
L 686.28311 -445.382082 
L 685.001334 -443.614214 
L 683.719557 -443.407802 
L 682.437781 -444.312543 
L 681.156005 -440.188972 
L 679.874228 -437.591714 
L 678.592452 -439.026999 
L 677.310675 -436.36056 
L 676.028899 -437.442921 
L 674.747122 -435.403549 
L 673.465346 -430.962916 
L 672.18357 -430.946827 
L 670.901793 -430.146342 
L 669.620017 -427.158891 
L 668.33824 -428.554281 
L 667.056464 -426.381302 
L 665.774688 -423.648129 
L 664.492911 -423.153138 
L 663.211135 -421.90633 
L 661.929358 -421.289371 
L 660.647582 -419.74945 
L 659.365805 -417.709365 
L 658.084029 -416.027655 
L 656.802253 -415.775314 
L 655.520476 -414.286774 
L 654.2387 -417.58628 
L 652.956923 -412.9216 
L 651.675147 -411.686444 
L 650.393371 -410.115577 
L 649.111594 -409.744149 
L 647.829818 -410.010248 
L 646.548041 -407.684705 
L 645.266265 -406.1143 
L 643.984488 -404.648145 
L 642.702712 -403.780356 
L 641.420936 -403.327152 
L 640.139159 -401.867001 
L 638.857383 -400.660744 
L 637.575606 -399.011792 
L 636.29383 -397.758601 
L 635.012054 -393.464107 
L 633.730277 -392.287671 
L 632.448501 -392.640423 
L 631.166724 -389.397106 
L 629.884948 -389.74533 
L 628.603171 -388.216052 
L 627.321395 -389.562448 
L 626.039619 -383.596687 
L 624.757842 -382.553091 
L 623.476066 -382.069321 
L 622.194289 -379.070009 
L 620.912513 -378.406963 
L 619.630737 -377.114204 
L 618.34896 -377.4447 
L 617.067184 -372.459242 
L 615.785407 -373.633288 
L 614.503631 -368.763757 
L 613.221854 -365.816914 
L 611.940078 -363.77487 
L 610.658302 -360.061857 
L 609.376525 -357.216286 
L 608.094749 -355.897996 
L 606.812972 -353.627383 
L 605.531196 -351.520108 
L 604.24942 -349.580267 
L 602.967643 -349.152987 
L 601.685867 -345.729197 
L 600.40409 -343.408199 
L 599.122314 -339.315914 
L 597.840537 -339.600415 
L 596.558761 -339.007546 
L 595.276985 -334.685786 
L 593.995208 -332.764807 
L 592.713432 -330.759333 
L 591.431655 -327.45599 
L 590.149879 -325.796591 
L 588.868103 -326.571233 
L 587.586326 -325.303567 
L 586.30455 -322.031306 
L 585.022773 -320.893528 
L 583.740997 -318.967477 
L 582.45922 -317.302004 
L 581.177444 -315.883771 
L 579.895668 -315.075034 
L 578.613891 -312.944067 
L 577.332115 -310.762945 
L 576.050338 -312.485875 
L 574.768562 -310.714162 
L 573.486786 -311.528256 
L 572.205009 -307.640929 
L 570.923233 -307.608234 
L 569.641456 -309.004194 
L 568.35968 -306.825722 
L 567.077903 -305.30537 
L 565.796127 -309.367638 
L 564.514351 -304.17528 
L 563.232574 -309.194341 
L 561.950798 -309.579746 
L 560.669021 -309.769272 
L 559.387245 -308.562852 
L 558.105469 -308.095111 
L 556.823692 -307.949095 
L 555.541916 -310.998845 
L 554.260139 -308.706552 
L 552.978363 -314.394928 
L 551.696586 -321.902261 
L 550.41481 -319.01132 
L 549.133034 -315.875437 
L 547.851257 -324.8401 
L 546.569481 -324.037258 
L 545.287704 -325.990561 
L 544.005928 -326.263532 
L 542.724152 -338.485777 
L 541.442375 -339.579866 
L 540.160599 -343.710218 
L 538.878822 -353.28035 
L 537.597046 -359.681121 
L 536.315269 -352.585319 
L 535.033493 -357.522818 
L 533.751717 -362.629113 
L 532.46994 -365.747929 
L 531.188164 -369.915838 
L 529.906387 -377.601556 
L 528.624611 -371.949183 
L 527.342835 -386.037827 
L 526.061058 -390.834835 
L 524.779282 -393.421064 
L 523.497505 -395.493594 
L 522.215729 -395.00853 
L 520.933952 -396.402864 
L 519.652176 -395.187919 
L 518.3704 -390.218395 
L 517.088623 -395.831005 
L 515.806847 -395.671994 
L 514.52507 -390.413172 
L 513.243294 -389.103342 
L 511.961518 -390.262658 
L 510.679741 -381.866356 
L 509.397965 -385.301085 
L 508.116188 -383.448081 
L 506.834412 -374.946673 
L 505.552635 -376.348696 
L 504.270859 -372.717321 
L 502.989083 -369.730258 
L 501.707306 -366.630567 
L 500.42553 -363.189506 
L 499.143753 -359.799036 
L 497.861977 -355.294215 
L 496.580201 -352.915362 
L 495.298424 -348.411469 
L 494.016648 -346.577674 
L 492.734871 -339.569479 
L 491.453095 -339.238947 
L 490.171318 -335.281544 
L 488.889542 -330.710056 
L 487.607766 -327.820221 
L 486.325989 -323.793822 
L 485.044213 -320.389653 
L 483.762436 -316.276037 
L 482.48066 -313.584434 
L 481.198884 -309.959135 
L 479.917107 -305.688763 
L 478.635331 -302.1996 
L 477.353554 -299.324223 
L 476.071778 -295.602382 
L 474.790001 -292.772003 
L 473.508225 -289.139511 
L 472.226449 -285.659623 
L 470.944672 -283.032867 
L 469.662896 -279.744498 
L 468.381119 -276.326044 
L 467.099343 -273.892693 
L 465.817567 -271.056444 
L 464.53579 -268.591878 
L 463.254014 -265.13169 
L 461.972237 -262.381125 
L 460.690461 -259.703548 
L 459.408684 -257.009698 
L 458.126908 -254.537213 
L 456.845132 -252.252436 
L 455.563355 -249.778516 
L 454.281579 -247.05684 
L 452.999802 -244.735287 
L 451.718026 -242.403495 
L 450.43625 -240.031946 
L 449.154473 -237.919926 
L 447.872697 -235.916657 
L 446.59092 -233.745852 
L 445.309144 -231.559619 
L 444.027367 -229.988944 
L 442.745591 -227.712314 
L 441.463815 -226.141169 
L 440.182038 -224.175926 
L 438.900262 -222.054125 
L 437.618485 -220.379196 
L 436.336709 -219.616252 
L 435.054933 -217.825994 
L 433.773156 -216.814075 
L 432.49138 -215.057295 
L 431.209603 -213.15176 
L 429.927827 -212.120963 
L 428.64605 -211.054756 
L 427.364274 -210.660671 
L 426.082498 -209.719442 
L 424.800721 -208.802283 
L 423.518945 -208.05172 
L 422.237168 -206.781974 
L 420.955392 -205.658426 
L 419.673616 -204.716253 
L 418.391839 -204.996079 
L 417.110063 -204.158076 
L 415.828286 -204.750493 
L 414.54651 -203.382907 
L 413.264733 -202.96697 
L 411.982957 -202.081244 
L 410.701181 -203.952288 
L 409.419404 -201.299563 
L 408.137628 -201.322516 
L 406.855851 -202.466283 
L 405.574075 -202.700894 
L 404.292299 -201.310714 
L 403.010522 -199.231739 
L 401.728746 -199.853004 
L 400.446969 -199.734189 
L 399.165193 -201.622688 
L 397.883416 -201.168386 
L 396.60164 -200.828451 
L 395.319864 -199.523007 
L 394.038087 -199.739854 
L 392.756311 -199.939062 
L 391.474534 -199.742273 
L 390.192758 -198.937921 
L 388.910982 -198.893918 
L 387.629205 -198.495546 
L 386.347429 -197.620817 
L 385.065652 -198.114747 
L 383.783876 -196.986962 
L 382.502099 -196.713628 
L 381.220323 -196.537837 
L 379.938547 -195.799976 
L 378.65677 -195.622101 
L 377.374994 -194.847035 
L 376.093217 -193.979366 
L 374.811441 -194.007461 
L 373.529665 -194.502231 
L 372.247888 -194.839702 
L 370.966112 -192.851721 
L 369.684335 -193.313565 
L 368.402559 -192.051848 
L 367.120783 -192.105757 
L 365.839006 -192.795737 
L 364.55723 -191.362259 
L 363.275453 -192.821404 
L 361.993677 -192.919474 
L 360.7119 -191.212388 
L 359.430124 -192.793016 
L 358.148348 -191.225499 
L 356.866571 -190.52841 
L 355.584795 -192.352091 
L 354.303018 -197.591376 
L 353.021242 -194.399289 
L 351.739466 -195.932551 
L 350.457689 -204.151219 
L 349.175913 -197.209993 
L 347.894136 -196.104199 
L 346.61236 -203.667327 
L 345.330583 -205.875322 
L 344.048807 -202.537987 
L 342.767031 -210.275508 
L 341.485254 -223.452151 
L 340.203478 -208.63425 
L 338.921701 -203.809766 
L 337.639925 -201.053656 
L 336.358149 -219.037904 
L 335.076372 -218.953608 
L 333.794596 -227.908021 
L 332.512819 -234.628695 
L 331.231043 -220.940139 
L 329.949266 -227.394252 
L 328.66749 -239.270587 
L 327.385714 -247.82099 
L 326.103937 -248.21987 
L 324.822161 -246.991202 
L 323.540384 -249.426261 
L 322.258608 -249.953233 
L 320.976832 -245.818498 
L 319.695055 -246.99773 
L 318.413279 -250.262378 
L 317.131502 -248.71846 
L 315.849726 -250.2479 
L 314.567949 -251.266607 
L 313.286173 -251.643049 
L 312.004397 -250.004201 
L 310.72262 -249.51254 
L 309.440844 -249.029769 
L 308.159067 -247.781285 
L 306.877291 -247.330039 
L 305.595515 -246.448117 
L 304.313738 -244.818452 
L 303.031962 -243.495397 
L 301.750185 -242.791237 
L 300.468409 -241.748818 
L 299.186632 -240.5554 
L 297.904856 -239.817406 
L 296.62308 -238.545694 
L 295.341303 -236.904744 
L 294.059527 -236.06179 
L 292.77775 -235.558089 
L 291.495974 -234.592526 
L 290.214198 -233.655537 
L 288.932421 -232.796685 
L 287.650645 -231.975538 
L 286.368868 -231.188957 
L 285.087092 -230.004093 
L 283.805315 -229.507859 
L 282.523539 -228.693065 
L 281.241763 -227.856863 
L 279.959986 -227.063558 
L 278.67821 -226.330656 
L 277.396433 -225.740597 
L 276.114657 -225.118009 
L 274.832881 -224.200893 
L 273.551104 -223.683012 
L 272.269328 -223.00796 
L 270.987551 -222.351156 
L 269.705775 -221.69733 
L 268.423998 -221.026054 
L 267.142222 -220.342285 
L 265.860446 -219.78075 
L 264.578669 -219.092591 
L 263.296893 -218.494364 
L 262.015116 -217.846433 
L 260.73334 -217.25225 
L 259.451564 -216.62369 
L 258.169787 -216.04927 
L 256.888011 -215.423157 
L 255.606234 -214.742412 
L 254.324458 -214.23906 
L 253.042681 -213.588806 
L 251.760905 -213.038673 
L 250.479129 -212.388746 
L 249.197352 -211.928365 
L 247.915576 -211.323731 
L 246.633799 -210.750016 
L 245.352023 -210.206453 
L 244.070247 -209.660619 
L 242.78847 -209.14087 
L 241.506694 -208.536478 
L 240.224917 -207.996457 
L 238.943141 -207.564855 
L 237.661364 -207.040545 
L 236.379588 -206.517676 
L 235.097812 -205.998966 
L 233.816035 -205.502939 
L 232.534259 -205.046446 
L 231.252482 -204.539264 
L 229.970706 -204.045766 
L 228.68893 -203.551763 
L 227.407153 -203.0625 
L 226.125377 -202.560425 
L 224.8436 -202.03774 
L 223.561824 -201.602474 
L 222.280047 -201.093613 
L 220.998271 -200.598815 
L 219.716495 -200.129445 
L 218.434718 -199.644676 
L 217.152942 -199.150087 
L 215.871165 -198.67505 
L 214.589389 -198.174131 
L 213.307613 -197.727273 
L 212.025836 -197.271634 
L 210.74406 -196.785605 
L 209.462283 -196.32224 
L 208.180507 -195.896471 
L 206.89873 -195.45004 
L 205.616954 -195.016183 
L 204.335178 -194.571779 
L 203.053401 -194.127654 
L 201.771625 -193.699555 
L 200.489848 -193.248721 
L 199.208072 -192.847042 
L 197.926296 -192.413416 
L 196.644519 -192.000882 
L 195.362743 -191.538811 
L 194.080966 -191.162061 
L 192.79919 -190.735984 
L 191.517413 -190.323493 
L 190.235637 -189.901847 
L 188.953861 -189.499864 
L 187.672084 -189.092517 
L 186.390308 -188.706459 
L 185.108531 -188.328236 
L 183.826755 -187.954565 
L 182.544979 -187.60848 
L 181.263202 -187.253534 
L 179.981426 -186.895874 
L 178.699649 -186.55296 
L 177.417873 -186.198446 
L 176.136096 -185.847428 
L 174.85432 -185.51542 
L 173.572544 -185.180949 
L 172.290767 -184.8459 
L 171.008991 -184.529151 
L 169.727214 -184.216027 
L 168.445438 -183.880571 
L 167.163662 -183.575349 
L 165.881885 -183.292584 
L 164.600109 -182.976826 
L 163.318332 -182.686247 
L 162.036556 -182.434564 
L 160.754779 -182.162776 
L 159.473003 -181.917948 
L 158.191227 -181.658103 
L 156.90945 -181.42465 
L 155.627674 -181.192407 
L 154.345897 -180.97624 
L 153.064121 -180.766196 
L 151.782345 -180.570579 
L 150.500568 -180.406262 
L 149.218792 -180.236416 
L 147.937015 -180.075426 
L 146.655239 -179.935065 
L 145.373462 -179.77599 
L 144.091686 -179.647504 
L 142.80991 -179.541051 
L 141.528133 -179.40641 
L 140.246357 -179.29787 
L 138.96458 -179.207296 
L 137.682804 -179.102967 
L 136.401028 -179.001513 
L 135.119251 -178.923215 
L 133.837475 -178.83343 
L 132.555698 -178.770175 
L 131.273922 -178.683667 
L 129.992145 -178.61951 
L 128.710369 -178.548848 
L 127.428593 -178.472256 
L 126.146816 -178.415333 
L 124.86504 -178.353419 
L 123.583263 -178.275259 
L 122.301487 -178.205756 
L 121.019711 -178.133266 
L 119.737934 -178.078771 
L 118.456158 -178.000905 
L 117.174381 -177.935035 
L 115.892605 -177.865071 
L 114.610828 -177.809777 
L 113.329052 -177.763203 
L 112.047276 -177.704206 
L 110.765499 -177.631792 
L 109.483723 -177.557345 
L 108.201946 -177.499923 
L 106.92017 -177.451153 
L 105.638394 -177.377352 
L 104.356617 -177.321743 
L 103.074841 -177.249747 
z
" style="stroke: #008000; stroke-opacity: 0.3"/>
    </defs>
    <g clip-path="url(#pc87ae978ff)">
     <use xlink:href="#mb8846693e4" x="0" y="505.354841" style="fill: #008000; fill-opacity: 0.3; stroke: #008000; stroke-opacity: 0.3"/>
    </g>
   </g>
   <g id="matplotlib.axis_1">
    <g id="xtick_1">
     <g id="line2d_1">
      <defs>
       <path id="mffd345dbc3" d="M 0 0 
L 0 3.5 
" style="stroke: #000000; stroke-width: 0.8"/>
      </defs>
      <g>
       <use xlink:href="#mffd345dbc3" x="103.074841" y="395.28" style="stroke: #000000; stroke-width: 0.8"/>
      </g>
     </g>
     <g id="text_1">
      <!-- 2021-07-01 -->
      <g transform="translate(17.945813 495.213718) rotate(-45) scale(0.2 -0.2)">
       <defs>
        <path id="DejaVuSans-32" d="M 1228 531 
L 3431 531 
L 3431 0 
L 469 0 
L 469 531 
Q 828 903 1448 1529 
Q 2069 2156 2228 2338 
Q 2531 2678 2651 2914 
Q 2772 3150 2772 3378 
Q 2772 3750 2511 3984 
Q 2250 4219 1831 4219 
Q 1534 4219 1204 4116 
Q 875 4013 500 3803 
L 500 4441 
Q 881 4594 1212 4672 
Q 1544 4750 1819 4750 
Q 2544 4750 2975 4387 
Q 3406 4025 3406 3419 
Q 3406 3131 3298 2873 
Q 3191 2616 2906 2266 
Q 2828 2175 2409 1742 
Q 1991 1309 1228 531 
z
" transform="scale(0.015625)"/>
        <path id="DejaVuSans-30" d="M 2034 4250 
Q 1547 4250 1301 3770 
Q 1056 3291 1056 2328 
Q 1056 1369 1301 889 
Q 1547 409 2034 409 
Q 2525 409 2770 889 
Q 3016 1369 3016 2328 
Q 3016 3291 2770 3770 
Q 2525 4250 2034 4250 
z
M 2034 4750 
Q 2819 4750 3233 4129 
Q 3647 3509 3647 2328 
Q 3647 1150 3233 529 
Q 2819 -91 2034 -91 
Q 1250 -91 836 529 
Q 422 1150 422 2328 
Q 422 3509 836 4129 
Q 1250 4750 2034 4750 
z
" transform="scale(0.015625)"/>
        <path id="DejaVuSans-31" d="M 794 531 
L 1825 531 
L 1825 4091 
L 703 3866 
L 703 4441 
L 1819 4666 
L 2450 4666 
L 2450 531 
L 3481 531 
L 3481 0 
L 794 0 
L 794 531 
z
" transform="scale(0.015625)"/>
        <path id="DejaVuSans-2d" d="M 313 2009 
L 1997 2009 
L 1997 1497 
L 313 1497 
L 313 2009 
z
" transform="scale(0.015625)"/>
        <path id="DejaVuSans-37" d="M 525 4666 
L 3525 4666 
L 3525 4397 
L 1831 0 
L 1172 0 
L 2766 4134 
L 525 4134 
L 525 4666 
z
" transform="scale(0.015625)"/>
       </defs>
       <use xlink:href="#DejaVuSans-32"/>
       <use xlink:href="#DejaVuSans-30" x="63.623047"/>
       <use xlink:href="#DejaVuSans-32" x="127.246094"/>
       <use xlink:href="#DejaVuSans-31" x="190.869141"/>
       <use xlink:href="#DejaVuSans-2d" x="254.492188"/>
       <use xlink:href="#DejaVuSans-30" x="290.576172"/>
       <use xlink:href="#DejaVuSans-37" x="354.199219"/>
       <use xlink:href="#DejaVuSans-2d" x="417.822266"/>
       <use xlink:href="#DejaVuSans-30" x="453.90625"/>
       <use xlink:href="#DejaVuSans-31" x="517.529297"/>
      </g>
     </g>
    </g>
    <g id="xtick_2">
     <g id="line2d_2">
      <g>
       <use xlink:href="#mffd345dbc3" x="138.96458" y="395.28" style="stroke: #000000; stroke-width: 0.8"/>
      </g>
     </g>
     <g id="text_2">
      <!-- 2021-07-29 -->
      <g transform="translate(53.835553 495.213718) rotate(-45) scale(0.2 -0.2)">
       <defs>
        <path id="DejaVuSans-39" d="M 703 97 
L 703 672 
Q 941 559 1184 500 
Q 1428 441 1663 441 
Q 2288 441 2617 861 
Q 2947 1281 2994 2138 
Q 2813 1869 2534 1725 
Q 2256 1581 1919 1581 
Q 1219 1581 811 2004 
Q 403 2428 403 3163 
Q 403 3881 828 4315 
Q 1253 4750 1959 4750 
Q 2769 4750 3195 4129 
Q 3622 3509 3622 2328 
Q 3622 1225 3098 567 
Q 2575 -91 1691 -91 
Q 1453 -91 1209 -44 
Q 966 3 703 97 
z
M 1959 2075 
Q 2384 2075 2632 2365 
Q 2881 2656 2881 3163 
Q 2881 3666 2632 3958 
Q 2384 4250 1959 4250 
Q 1534 4250 1286 3958 
Q 1038 3666 1038 3163 
Q 1038 2656 1286 2365 
Q 1534 2075 1959 2075 
z
" transform="scale(0.015625)"/>
       </defs>
       <use xlink:href="#DejaVuSans-32"/>
       <use xlink:href="#DejaVuSans-30" x="63.623047"/>
       <use xlink:href="#DejaVuSans-32" x="127.246094"/>
       <use xlink:href="#DejaVuSans-31" x="190.869141"/>
       <use xlink:href="#DejaVuSans-2d" x="254.492188"/>
       <use xlink:href="#DejaVuSans-30" x="290.576172"/>
       <use xlink:href="#DejaVuSans-37" x="354.199219"/>
       <use xlink:href="#DejaVuSans-2d" x="417.822266"/>
       <use xlink:href="#DejaVuSans-32" x="453.90625"/>
       <use xlink:href="#DejaVuSans-39" x="517.529297"/>
      </g>
     </g>
    </g>
    <g id="xtick_3">
     <g id="line2d_3">
      <g>
       <use xlink:href="#mffd345dbc3" x="174.85432" y="395.28" style="stroke: #000000; stroke-width: 0.8"/>
      </g>
     </g>
     <g id="text_3">
      <!-- 2021-08-26 -->
      <g transform="translate(89.725293 495.213718) rotate(-45) scale(0.2 -0.2)">
       <defs>
        <path id="DejaVuSans-38" d="M 2034 2216 
Q 1584 2216 1326 1975 
Q 1069 1734 1069 1313 
Q 1069 891 1326 650 
Q 1584 409 2034 409 
Q 2484 409 2743 651 
Q 3003 894 3003 1313 
Q 3003 1734 2745 1975 
Q 2488 2216 2034 2216 
z
M 1403 2484 
Q 997 2584 770 2862 
Q 544 3141 544 3541 
Q 544 4100 942 4425 
Q 1341 4750 2034 4750 
Q 2731 4750 3128 4425 
Q 3525 4100 3525 3541 
Q 3525 3141 3298 2862 
Q 3072 2584 2669 2484 
Q 3125 2378 3379 2068 
Q 3634 1759 3634 1313 
Q 3634 634 3220 271 
Q 2806 -91 2034 -91 
Q 1263 -91 848 271 
Q 434 634 434 1313 
Q 434 1759 690 2068 
Q 947 2378 1403 2484 
z
M 1172 3481 
Q 1172 3119 1398 2916 
Q 1625 2713 2034 2713 
Q 2441 2713 2670 2916 
Q 2900 3119 2900 3481 
Q 2900 3844 2670 4047 
Q 2441 4250 2034 4250 
Q 1625 4250 1398 4047 
Q 1172 3844 1172 3481 
z
" transform="scale(0.015625)"/>
        <path id="DejaVuSans-36" d="M 2113 2584 
Q 1688 2584 1439 2293 
Q 1191 2003 1191 1497 
Q 1191 994 1439 701 
Q 1688 409 2113 409 
Q 2538 409 2786 701 
Q 3034 994 3034 1497 
Q 3034 2003 2786 2293 
Q 2538 2584 2113 2584 
z
M 3366 4563 
L 3366 3988 
Q 3128 4100 2886 4159 
Q 2644 4219 2406 4219 
Q 1781 4219 1451 3797 
Q 1122 3375 1075 2522 
Q 1259 2794 1537 2939 
Q 1816 3084 2150 3084 
Q 2853 3084 3261 2657 
Q 3669 2231 3669 1497 
Q 3669 778 3244 343 
Q 2819 -91 2113 -91 
Q 1303 -91 875 529 
Q 447 1150 447 2328 
Q 447 3434 972 4092 
Q 1497 4750 2381 4750 
Q 2619 4750 2861 4703 
Q 3103 4656 3366 4563 
z
" transform="scale(0.015625)"/>
       </defs>
       <use xlink:href="#DejaVuSans-32"/>
       <use xlink:href="#DejaVuSans-30" x="63.623047"/>
       <use xlink:href="#DejaVuSans-32" x="127.246094"/>
       <use xlink:href="#DejaVuSans-31" x="190.869141"/>
       <use xlink:href="#DejaVuSans-2d" x="254.492188"/>
       <use xlink:href="#DejaVuSans-30" x="290.576172"/>
       <use xlink:href="#DejaVuSans-38" x="354.199219"/>
       <use xlink:href="#DejaVuSans-2d" x="417.822266"/>
       <use xlink:href="#DejaVuSans-32" x="453.90625"/>
       <use xlink:href="#DejaVuSans-36" x="517.529297"/>
      </g>
     </g>
    </g>
    <g id="xtick_4">
     <g id="line2d_4">
      <g>
       <use xlink:href="#mffd345dbc3" x="210.74406" y="395.28" style="stroke: #000000; stroke-width: 0.8"/>
      </g>
     </g>
     <g id="text_4">
      <!-- 2021-09-23 -->
      <g transform="translate(125.615032 495.213718) rotate(-45) scale(0.2 -0.2)">
       <defs>
        <path id="DejaVuSans-33" d="M 2597 2516 
Q 3050 2419 3304 2112 
Q 3559 1806 3559 1356 
Q 3559 666 3084 287 
Q 2609 -91 1734 -91 
Q 1441 -91 1130 -33 
Q 819 25 488 141 
L 488 750 
Q 750 597 1062 519 
Q 1375 441 1716 441 
Q 2309 441 2620 675 
Q 2931 909 2931 1356 
Q 2931 1769 2642 2001 
Q 2353 2234 1838 2234 
L 1294 2234 
L 1294 2753 
L 1863 2753 
Q 2328 2753 2575 2939 
Q 2822 3125 2822 3475 
Q 2822 3834 2567 4026 
Q 2313 4219 1838 4219 
Q 1578 4219 1281 4162 
Q 984 4106 628 3988 
L 628 4550 
Q 988 4650 1302 4700 
Q 1616 4750 1894 4750 
Q 2613 4750 3031 4423 
Q 3450 4097 3450 3541 
Q 3450 3153 3228 2886 
Q 3006 2619 2597 2516 
z
" transform="scale(0.015625)"/>
       </defs>
       <use xlink:href="#DejaVuSans-32"/>
       <use xlink:href="#DejaVuSans-30" x="63.623047"/>
       <use xlink:href="#DejaVuSans-32" x="127.246094"/>
       <use xlink:href="#DejaVuSans-31" x="190.869141"/>
       <use xlink:href="#DejaVuSans-2d" x="254.492188"/>
       <use xlink:href="#DejaVuSans-30" x="290.576172"/>
       <use xlink:href="#DejaVuSans-39" x="354.199219"/>
       <use xlink:href="#DejaVuSans-2d" x="417.822266"/>
       <use xlink:href="#DejaVuSans-32" x="453.90625"/>
       <use xlink:href="#DejaVuSans-33" x="517.529297"/>
      </g>
     </g>
    </g>
    <g id="xtick_5">
     <g id="line2d_5">
      <g>
       <use xlink:href="#mffd345dbc3" x="246.633799" y="395.28" style="stroke: #000000; stroke-width: 0.8"/>
      </g>
     </g>
     <g id="text_5">
      <!-- 2021-10-21 -->
      <g transform="translate(161.504772 495.213718) rotate(-45) scale(0.2 -0.2)">
       <use xlink:href="#DejaVuSans-32"/>
       <use xlink:href="#DejaVuSans-30" x="63.623047"/>
       <use xlink:href="#DejaVuSans-32" x="127.246094"/>
       <use xlink:href="#DejaVuSans-31" x="190.869141"/>
       <use xlink:href="#DejaVuSans-2d" x="254.492188"/>
       <use xlink:href="#DejaVuSans-31" x="290.576172"/>
       <use xlink:href="#DejaVuSans-30" x="354.199219"/>
       <use xlink:href="#DejaVuSans-2d" x="417.822266"/>
       <use xlink:href="#DejaVuSans-32" x="453.90625"/>
       <use xlink:href="#DejaVuSans-31" x="517.529297"/>
      </g>
     </g>
    </g>
    <g id="xtick_6">
     <g id="line2d_6">
      <g>
       <use xlink:href="#mffd345dbc3" x="282.523539" y="395.28" style="stroke: #000000; stroke-width: 0.8"/>
      </g>
     </g>
     <g id="text_6">
      <!-- 2021-11-18 -->
      <g transform="translate(197.394512 495.213718) rotate(-45) scale(0.2 -0.2)">
       <use xlink:href="#DejaVuSans-32"/>
       <use xlink:href="#DejaVuSans-30" x="63.623047"/>
       <use xlink:href="#DejaVuSans-32" x="127.246094"/>
       <use xlink:href="#DejaVuSans-31" x="190.869141"/>
       <use xlink:href="#DejaVuSans-2d" x="254.492188"/>
       <use xlink:href="#DejaVuSans-31" x="290.576172"/>
       <use xlink:href="#DejaVuSans-31" x="354.199219"/>
       <use xlink:href="#DejaVuSans-2d" x="417.822266"/>
       <use xlink:href="#DejaVuSans-31" x="453.90625"/>
       <use xlink:href="#DejaVuSans-38" x="517.529297"/>
      </g>
     </g>
    </g>
    <g id="xtick_7">
     <g id="line2d_7">
      <g>
       <use xlink:href="#mffd345dbc3" x="318.413279" y="395.28" style="stroke: #000000; stroke-width: 0.8"/>
      </g>
     </g>
     <g id="text_7">
      <!-- 2021-12-16 -->
      <g transform="translate(233.284251 495.213718) rotate(-45) scale(0.2 -0.2)">
       <use xlink:href="#DejaVuSans-32"/>
       <use xlink:href="#DejaVuSans-30" x="63.623047"/>
       <use xlink:href="#DejaVuSans-32" x="127.246094"/>
       <use xlink:href="#DejaVuSans-31" x="190.869141"/>
       <use xlink:href="#DejaVuSans-2d" x="254.492188"/>
       <use xlink:href="#DejaVuSans-31" x="290.576172"/>
       <use xlink:href="#DejaVuSans-32" x="354.199219"/>
       <use xlink:href="#DejaVuSans-2d" x="417.822266"/>
       <use xlink:href="#DejaVuSans-31" x="453.90625"/>
       <use xlink:href="#DejaVuSans-36" x="517.529297"/>
      </g>
     </g>
    </g>
    <g id="xtick_8">
     <g id="line2d_8">
      <g>
       <use xlink:href="#mffd345dbc3" x="354.303018" y="395.28" style="stroke: #000000; stroke-width: 0.8"/>
      </g>
     </g>
     <g id="text_8">
      <!-- 2022-01-13 -->
      <g transform="translate(269.173991 495.213718) rotate(-45) scale(0.2 -0.2)">
       <use xlink:href="#DejaVuSans-32"/>
       <use xlink:href="#DejaVuSans-30" x="63.623047"/>
       <use xlink:href="#DejaVuSans-32" x="127.246094"/>
       <use xlink:href="#DejaVuSans-32" x="190.869141"/>
       <use xlink:href="#DejaVuSans-2d" x="254.492188"/>
       <use xlink:href="#DejaVuSans-30" x="290.576172"/>
       <use xlink:href="#DejaVuSans-31" x="354.199219"/>
       <use xlink:href="#DejaVuSans-2d" x="417.822266"/>
       <use xlink:href="#DejaVuSans-31" x="453.90625"/>
       <use xlink:href="#DejaVuSans-33" x="517.529297"/>
      </g>
     </g>
    </g>
    <g id="xtick_9">
     <g id="line2d_9">
      <g>
       <use xlink:href="#mffd345dbc3" x="390.192758" y="395.28" style="stroke: #000000; stroke-width: 0.8"/>
      </g>
     </g>
     <g id="text_9">
      <!-- 2022-02-10 -->
      <g transform="translate(305.063731 495.213718) rotate(-45) scale(0.2 -0.2)">
       <use xlink:href="#DejaVuSans-32"/>
       <use xlink:href="#DejaVuSans-30" x="63.623047"/>
       <use xlink:href="#DejaVuSans-32" x="127.246094"/>
       <use xlink:href="#DejaVuSans-32" x="190.869141"/>
       <use xlink:href="#DejaVuSans-2d" x="254.492188"/>
       <use xlink:href="#DejaVuSans-30" x="290.576172"/>
       <use xlink:href="#DejaVuSans-32" x="354.199219"/>
       <use xlink:href="#DejaVuSans-2d" x="417.822266"/>
       <use xlink:href="#DejaVuSans-31" x="453.90625"/>
       <use xlink:href="#DejaVuSans-30" x="517.529297"/>
      </g>
     </g>
    </g>
    <g id="xtick_10">
     <g id="line2d_10">
      <g>
       <use xlink:href="#mffd345dbc3" x="426.082498" y="395.28" style="stroke: #000000; stroke-width: 0.8"/>
      </g>
     </g>
     <g id="text_10">
      <!-- 2022-03-10 -->
      <g transform="translate(340.95347 495.213718) rotate(-45) scale(0.2 -0.2)">
       <use xlink:href="#DejaVuSans-32"/>
       <use xlink:href="#DejaVuSans-30" x="63.623047"/>
       <use xlink:href="#DejaVuSans-32" x="127.246094"/>
       <use xlink:href="#DejaVuSans-32" x="190.869141"/>
       <use xlink:href="#DejaVuSans-2d" x="254.492188"/>
       <use xlink:href="#DejaVuSans-30" x="290.576172"/>
       <use xlink:href="#DejaVuSans-33" x="354.199219"/>
       <use xlink:href="#DejaVuSans-2d" x="417.822266"/>
       <use xlink:href="#DejaVuSans-31" x="453.90625"/>
       <use xlink:href="#DejaVuSans-30" x="517.529297"/>
      </g>
     </g>
    </g>
    <g id="xtick_11">
     <g id="line2d_11">
      <g>
       <use xlink:href="#mffd345dbc3" x="461.972237" y="395.28" style="stroke: #000000; stroke-width: 0.8"/>
      </g>
     </g>
     <g id="text_11">
      <!-- 2022-04-07 -->
      <g transform="translate(376.84321 495.213718) rotate(-45) scale(0.2 -0.2)">
       <defs>
        <path id="DejaVuSans-34" d="M 2419 4116 
L 825 1625 
L 2419 1625 
L 2419 4116 
z
M 2253 4666 
L 3047 4666 
L 3047 1625 
L 3713 1625 
L 3713 1100 
L 3047 1100 
L 3047 0 
L 2419 0 
L 2419 1100 
L 313 1100 
L 313 1709 
L 2253 4666 
z
" transform="scale(0.015625)"/>
       </defs>
       <use xlink:href="#DejaVuSans-32"/>
       <use xlink:href="#DejaVuSans-30" x="63.623047"/>
       <use xlink:href="#DejaVuSans-32" x="127.246094"/>
       <use xlink:href="#DejaVuSans-32" x="190.869141"/>
       <use xlink:href="#DejaVuSans-2d" x="254.492188"/>
       <use xlink:href="#DejaVuSans-30" x="290.576172"/>
       <use xlink:href="#DejaVuSans-34" x="354.199219"/>
       <use xlink:href="#DejaVuSans-2d" x="417.822266"/>
       <use xlink:href="#DejaVuSans-30" x="453.90625"/>
       <use xlink:href="#DejaVuSans-37" x="517.529297"/>
      </g>
     </g>
    </g>
    <g id="xtick_12">
     <g id="line2d_12">
      <g>
       <use xlink:href="#mffd345dbc3" x="497.861977" y="395.28" style="stroke: #000000; stroke-width: 0.8"/>
      </g>
     </g>
     <g id="text_12">
      <!-- 2022-05-05 -->
      <g transform="translate(412.73295 495.213718) rotate(-45) scale(0.2 -0.2)">
       <defs>
        <path id="DejaVuSans-35" d="M 691 4666 
L 3169 4666 
L 3169 4134 
L 1269 4134 
L 1269 2991 
Q 1406 3038 1543 3061 
Q 1681 3084 1819 3084 
Q 2600 3084 3056 2656 
Q 3513 2228 3513 1497 
Q 3513 744 3044 326 
Q 2575 -91 1722 -91 
Q 1428 -91 1123 -41 
Q 819 9 494 109 
L 494 744 
Q 775 591 1075 516 
Q 1375 441 1709 441 
Q 2250 441 2565 725 
Q 2881 1009 2881 1497 
Q 2881 1984 2565 2268 
Q 2250 2553 1709 2553 
Q 1456 2553 1204 2497 
Q 953 2441 691 2322 
L 691 4666 
z
" transform="scale(0.015625)"/>
       </defs>
       <use xlink:href="#DejaVuSans-32"/>
       <use xlink:href="#DejaVuSans-30" x="63.623047"/>
       <use xlink:href="#DejaVuSans-32" x="127.246094"/>
       <use xlink:href="#DejaVuSans-32" x="190.869141"/>
       <use xlink:href="#DejaVuSans-2d" x="254.492188"/>
       <use xlink:href="#DejaVuSans-30" x="290.576172"/>
       <use xlink:href="#DejaVuSans-35" x="354.199219"/>
       <use xlink:href="#DejaVuSans-2d" x="417.822266"/>
       <use xlink:href="#DejaVuSans-30" x="453.90625"/>
       <use xlink:href="#DejaVuSans-35" x="517.529297"/>
      </g>
     </g>
    </g>
    <g id="xtick_13">
     <g id="line2d_13">
      <g>
       <use xlink:href="#mffd345dbc3" x="533.751717" y="395.28" style="stroke: #000000; stroke-width: 0.8"/>
      </g>
     </g>
     <g id="text_13">
      <!-- 2022-06-02 -->
      <g transform="translate(448.622689 495.213718) rotate(-45) scale(0.2 -0.2)">
       <use xlink:href="#DejaVuSans-32"/>
       <use xlink:href="#DejaVuSans-30" x="63.623047"/>
       <use xlink:href="#DejaVuSans-32" x="127.246094"/>
       <use xlink:href="#DejaVuSans-32" x="190.869141"/>
       <use xlink:href="#DejaVuSans-2d" x="254.492188"/>
       <use xlink:href="#DejaVuSans-30" x="290.576172"/>
       <use xlink:href="#DejaVuSans-36" x="354.199219"/>
       <use xlink:href="#DejaVuSans-2d" x="417.822266"/>
       <use xlink:href="#DejaVuSans-30" x="453.90625"/>
       <use xlink:href="#DejaVuSans-32" x="517.529297"/>
      </g>
     </g>
    </g>
    <g id="xtick_14">
     <g id="line2d_14">
      <g>
       <use xlink:href="#mffd345dbc3" x="569.641456" y="395.28" style="stroke: #000000; stroke-width: 0.8"/>
      </g>
     </g>
     <g id="text_14">
      <!-- 2022-06-30 -->
      <g transform="translate(484.512429 495.213718) rotate(-45) scale(0.2 -0.2)">
       <use xlink:href="#DejaVuSans-32"/>
       <use xlink:href="#DejaVuSans-30" x="63.623047"/>
       <use xlink:href="#DejaVuSans-32" x="127.246094"/>
       <use xlink:href="#DejaVuSans-32" x="190.869141"/>
       <use xlink:href="#DejaVuSans-2d" x="254.492188"/>
       <use xlink:href="#DejaVuSans-30" x="290.576172"/>
       <use xlink:href="#DejaVuSans-36" x="354.199219"/>
       <use xlink:href="#DejaVuSans-2d" x="417.822266"/>
       <use xlink:href="#DejaVuSans-33" x="453.90625"/>
       <use xlink:href="#DejaVuSans-30" x="517.529297"/>
      </g>
     </g>
    </g>
    <g id="xtick_15">
     <g id="line2d_15">
      <g>
       <use xlink:href="#mffd345dbc3" x="605.531196" y="395.28" style="stroke: #000000; stroke-width: 0.8"/>
      </g>
     </g>
     <g id="text_15">
      <!-- 2022-07-28 -->
      <g transform="translate(520.402169 495.213718) rotate(-45) scale(0.2 -0.2)">
       <use xlink:href="#DejaVuSans-32"/>
       <use xlink:href="#DejaVuSans-30" x="63.623047"/>
       <use xlink:href="#DejaVuSans-32" x="127.246094"/>
       <use xlink:href="#DejaVuSans-32" x="190.869141"/>
       <use xlink:href="#DejaVuSans-2d" x="254.492188"/>
       <use xlink:href="#DejaVuSans-30" x="290.576172"/>
       <use xlink:href="#DejaVuSans-37" x="354.199219"/>
       <use xlink:href="#DejaVuSans-2d" x="417.822266"/>
       <use xlink:href="#DejaVuSans-32" x="453.90625"/>
       <use xlink:href="#DejaVuSans-38" x="517.529297"/>
      </g>
     </g>
    </g>
    <g id="xtick_16">
     <g id="line2d_16">
      <g>
       <use xlink:href="#mffd345dbc3" x="641.420936" y="395.28" style="stroke: #000000; stroke-width: 0.8"/>
      </g>
     </g>
     <g id="text_16">
      <!-- 2022-08-25 -->
      <g transform="translate(556.291908 495.213718) rotate(-45) scale(0.2 -0.2)">
       <use xlink:href="#DejaVuSans-32"/>
       <use xlink:href="#DejaVuSans-30" x="63.623047"/>
       <use xlink:href="#DejaVuSans-32" x="127.246094"/>
       <use xlink:href="#DejaVuSans-32" x="190.869141"/>
       <use xlink:href="#DejaVuSans-2d" x="254.492188"/>
       <use xlink:href="#DejaVuSans-30" x="290.576172"/>
       <use xlink:href="#DejaVuSans-38" x="354.199219"/>
       <use xlink:href="#DejaVuSans-2d" x="417.822266"/>
       <use xlink:href="#DejaVuSans-32" x="453.90625"/>
       <use xlink:href="#DejaVuSans-35" x="517.529297"/>
      </g>
     </g>
    </g>
    <g id="xtick_17">
     <g id="line2d_17">
      <g>
       <use xlink:href="#mffd345dbc3" x="677.310675" y="395.28" style="stroke: #000000; stroke-width: 0.8"/>
      </g>
     </g>
     <g id="text_17">
      <!-- 2022-09-22 -->
      <g transform="translate(592.181648 495.213718) rotate(-45) scale(0.2 -0.2)">
       <use xlink:href="#DejaVuSans-32"/>
       <use xlink:href="#DejaVuSans-30" x="63.623047"/>
       <use xlink:href="#DejaVuSans-32" x="127.246094"/>
       <use xlink:href="#DejaVuSans-32" x="190.869141"/>
       <use xlink:href="#DejaVuSans-2d" x="254.492188"/>
       <use xlink:href="#DejaVuSans-30" x="290.576172"/>
       <use xlink:href="#DejaVuSans-39" x="354.199219"/>
       <use xlink:href="#DejaVuSans-2d" x="417.822266"/>
       <use xlink:href="#DejaVuSans-32" x="453.90625"/>
       <use xlink:href="#DejaVuSans-32" x="517.529297"/>
      </g>
     </g>
    </g>
    <g id="xtick_18">
     <g id="line2d_18">
      <g>
       <use xlink:href="#mffd345dbc3" x="713.200415" y="395.28" style="stroke: #000000; stroke-width: 0.8"/>
      </g>
     </g>
     <g id="text_18">
      <!-- 2022-10-20 -->
      <g transform="translate(628.071388 495.213718) rotate(-45) scale(0.2 -0.2)">
       <use xlink:href="#DejaVuSans-32"/>
       <use xlink:href="#DejaVuSans-30" x="63.623047"/>
       <use xlink:href="#DejaVuSans-32" x="127.246094"/>
       <use xlink:href="#DejaVuSans-32" x="190.869141"/>
       <use xlink:href="#DejaVuSans-2d" x="254.492188"/>
       <use xlink:href="#DejaVuSans-31" x="290.576172"/>
       <use xlink:href="#DejaVuSans-30" x="354.199219"/>
       <use xlink:href="#DejaVuSans-2d" x="417.822266"/>
       <use xlink:href="#DejaVuSans-32" x="453.90625"/>
       <use xlink:href="#DejaVuSans-30" x="517.529297"/>
      </g>
     </g>
    </g>
    <g id="xtick_19">
     <g id="line2d_19">
      <g>
       <use xlink:href="#mffd345dbc3" x="749.090155" y="395.28" style="stroke: #000000; stroke-width: 0.8"/>
      </g>
     </g>
     <g id="text_19">
      <!-- 2022-11-17 -->
      <g transform="translate(663.961127 495.213718) rotate(-45) scale(0.2 -0.2)">
       <use xlink:href="#DejaVuSans-32"/>
       <use xlink:href="#DejaVuSans-30" x="63.623047"/>
       <use xlink:href="#DejaVuSans-32" x="127.246094"/>
       <use xlink:href="#DejaVuSans-32" x="190.869141"/>
       <use xlink:href="#DejaVuSans-2d" x="254.492188"/>
       <use xlink:href="#DejaVuSans-31" x="290.576172"/>
       <use xlink:href="#DejaVuSans-31" x="354.199219"/>
       <use xlink:href="#DejaVuSans-2d" x="417.822266"/>
       <use xlink:href="#DejaVuSans-31" x="453.90625"/>
       <use xlink:href="#DejaVuSans-37" x="517.529297"/>
      </g>
     </g>
    </g>
    <g id="xtick_20">
     <g id="line2d_20">
      <g>
       <use xlink:href="#mffd345dbc3" x="784.979894" y="395.28" style="stroke: #000000; stroke-width: 0.8"/>
      </g>
     </g>
     <g id="text_20">
      <!-- 2022-12-15 -->
      <g transform="translate(699.850867 495.213718) rotate(-45) scale(0.2 -0.2)">
       <use xlink:href="#DejaVuSans-32"/>
       <use xlink:href="#DejaVuSans-30" x="63.623047"/>
       <use xlink:href="#DejaVuSans-32" x="127.246094"/>
       <use xlink:href="#DejaVuSans-32" x="190.869141"/>
       <use xlink:href="#DejaVuSans-2d" x="254.492188"/>
       <use xlink:href="#DejaVuSans-31" x="290.576172"/>
       <use xlink:href="#DejaVuSans-32" x="354.199219"/>
       <use xlink:href="#DejaVuSans-2d" x="417.822266"/>
       <use xlink:href="#DejaVuSans-31" x="453.90625"/>
       <use xlink:href="#DejaVuSans-35" x="517.529297"/>
      </g>
     </g>
    </g>
    <g id="xtick_21">
     <g id="line2d_21">
      <g>
       <use xlink:href="#mffd345dbc3" x="820.869634" y="395.28" style="stroke: #000000; stroke-width: 0.8"/>
      </g>
     </g>
     <g id="text_21">
      <!-- 2023-01-12 -->
      <g transform="translate(735.740607 495.213718) rotate(-45) scale(0.2 -0.2)">
       <use xlink:href="#DejaVuSans-32"/>
       <use xlink:href="#DejaVuSans-30" x="63.623047"/>
       <use xlink:href="#DejaVuSans-32" x="127.246094"/>
       <use xlink:href="#DejaVuSans-33" x="190.869141"/>
       <use xlink:href="#DejaVuSans-2d" x="254.492188"/>
       <use xlink:href="#DejaVuSans-30" x="290.576172"/>
       <use xlink:href="#DejaVuSans-31" x="354.199219"/>
       <use xlink:href="#DejaVuSans-2d" x="417.822266"/>
       <use xlink:href="#DejaVuSans-31" x="453.90625"/>
       <use xlink:href="#DejaVuSans-32" x="517.529297"/>
      </g>
     </g>
    </g>
    <g id="xtick_22">
     <g id="line2d_22">
      <g>
       <use xlink:href="#mffd345dbc3" x="856.759374" y="395.28" style="stroke: #000000; stroke-width: 0.8"/>
      </g>
     </g>
     <g id="text_22">
      <!-- 2023-02-09 -->
      <g transform="translate(771.630346 495.213718) rotate(-45) scale(0.2 -0.2)">
       <use xlink:href="#DejaVuSans-32"/>
       <use xlink:href="#DejaVuSans-30" x="63.623047"/>
       <use xlink:href="#DejaVuSans-32" x="127.246094"/>
       <use xlink:href="#DejaVuSans-33" x="190.869141"/>
       <use xlink:href="#DejaVuSans-2d" x="254.492188"/>
       <use xlink:href="#DejaVuSans-30" x="290.576172"/>
       <use xlink:href="#DejaVuSans-32" x="354.199219"/>
       <use xlink:href="#DejaVuSans-2d" x="417.822266"/>
       <use xlink:href="#DejaVuSans-30" x="453.90625"/>
       <use xlink:href="#DejaVuSans-39" x="517.529297"/>
      </g>
     </g>
    </g>
    <g id="xtick_23">
     <g id="line2d_23">
      <g>
       <use xlink:href="#mffd345dbc3" x="892.649113" y="395.28" style="stroke: #000000; stroke-width: 0.8"/>
      </g>
     </g>
     <g id="text_23">
      <!-- 2023-03-09 -->
      <g transform="translate(807.520086 495.213718) rotate(-45) scale(0.2 -0.2)">
       <use xlink:href="#DejaVuSans-32"/>
       <use xlink:href="#DejaVuSans-30" x="63.623047"/>
       <use xlink:href="#DejaVuSans-32" x="127.246094"/>
       <use xlink:href="#DejaVuSans-33" x="190.869141"/>
       <use xlink:href="#DejaVuSans-2d" x="254.492188"/>
       <use xlink:href="#DejaVuSans-30" x="290.576172"/>
       <use xlink:href="#DejaVuSans-33" x="354.199219"/>
       <use xlink:href="#DejaVuSans-2d" x="417.822266"/>
       <use xlink:href="#DejaVuSans-30" x="453.90625"/>
       <use xlink:href="#DejaVuSans-39" x="517.529297"/>
      </g>
     </g>
    </g>
    <g id="xtick_24">
     <g id="line2d_24">
      <g>
       <use xlink:href="#mffd345dbc3" x="928.538853" y="395.28" style="stroke: #000000; stroke-width: 0.8"/>
      </g>
     </g>
     <g id="text_24">
      <!-- 2023-04-06 -->
      <g transform="translate(843.409826 495.213718) rotate(-45) scale(0.2 -0.2)">
       <use xlink:href="#DejaVuSans-32"/>
       <use xlink:href="#DejaVuSans-30" x="63.623047"/>
       <use xlink:href="#DejaVuSans-32" x="127.246094"/>
       <use xlink:href="#DejaVuSans-33" x="190.869141"/>
       <use xlink:href="#DejaVuSans-2d" x="254.492188"/>
       <use xlink:href="#DejaVuSans-30" x="290.576172"/>
       <use xlink:href="#DejaVuSans-34" x="354.199219"/>
       <use xlink:href="#DejaVuSans-2d" x="417.822266"/>
       <use xlink:href="#DejaVuSans-30" x="453.90625"/>
       <use xlink:href="#DejaVuSans-36" x="517.529297"/>
      </g>
     </g>
    </g>
    <g id="xtick_25">
     <g id="line2d_25">
      <g>
       <use xlink:href="#mffd345dbc3" x="940.074841" y="395.28" style="stroke: #000000; stroke-width: 0.8"/>
      </g>
     </g>
     <g id="text_25">
      <!-- 2023-04-15 -->
      <g transform="translate(854.945813 495.213718) rotate(-45) scale(0.2 -0.2)">
       <use xlink:href="#DejaVuSans-32"/>
       <use xlink:href="#DejaVuSans-30" x="63.623047"/>
       <use xlink:href="#DejaVuSans-32" x="127.246094"/>
       <use xlink:href="#DejaVuSans-33" x="190.869141"/>
       <use xlink:href="#DejaVuSans-2d" x="254.492188"/>
       <use xlink:href="#DejaVuSans-30" x="290.576172"/>
       <use xlink:href="#DejaVuSans-34" x="354.199219"/>
       <use xlink:href="#DejaVuSans-2d" x="417.822266"/>
       <use xlink:href="#DejaVuSans-31" x="453.90625"/>
       <use xlink:href="#DejaVuSans-35" x="517.529297"/>
      </g>
     </g>
    </g>
   </g>
   <g id="matplotlib.axis_2">
    <g id="ytick_1">
     <g id="line2d_26">
      <defs>
       <path id="m835510e802" d="M 0 0 
L -3.5 0 
" style="stroke: #000000; stroke-width: 0.8"/>
      </defs>
      <g>
       <use xlink:href="#m835510e802" x="103.074841" y="389.179656" style="stroke: #000000; stroke-width: 0.8"/>
      </g>
     </g>
     <g id="text_26">
      <!-- 0.05 -->
      <g transform="translate(34.784216 396.778094) scale(0.2 -0.2)">
       <defs>
        <path id="DejaVuSans-2212" d="M 678 2272 
L 4684 2272 
L 4684 1741 
L 678 1741 
L 678 2272 
z
" transform="scale(0.015625)"/>
        <path id="DejaVuSans-2e" d="M 684 794 
L 1344 794 
L 1344 0 
L 684 0 
L 684 794 
z
" transform="scale(0.015625)"/>
       </defs>
       <use xlink:href="#DejaVuSans-2212"/>
       <use xlink:href="#DejaVuSans-30" x="83.789062"/>
       <use xlink:href="#DejaVuSans-2e" x="147.412109"/>
       <use xlink:href="#DejaVuSans-30" x="179.199219"/>
       <use xlink:href="#DejaVuSans-35" x="242.822266"/>
      </g>
     </g>
    </g>
    <g id="ytick_2">
     <g id="line2d_27">
      <g>
       <use xlink:href="#m835510e802" x="103.074841" y="328.176217" style="stroke: #000000; stroke-width: 0.8"/>
      </g>
     </g>
     <g id="text_27">
      <!-- 0.00 -->
      <g transform="translate(51.543591 335.774654) scale(0.2 -0.2)">
       <use xlink:href="#DejaVuSans-30"/>
       <use xlink:href="#DejaVuSans-2e" x="63.623047"/>
       <use xlink:href="#DejaVuSans-30" x="95.410156"/>
       <use xlink:href="#DejaVuSans-30" x="159.033203"/>
      </g>
     </g>
    </g>
    <g id="ytick_3">
     <g id="line2d_28">
      <g>
       <use xlink:href="#m835510e802" x="103.074841" y="267.172778" style="stroke: #000000; stroke-width: 0.8"/>
      </g>
     </g>
     <g id="text_28">
      <!-- 0.05 -->
      <g transform="translate(51.543591 274.771215) scale(0.2 -0.2)">
       <use xlink:href="#DejaVuSans-30"/>
       <use xlink:href="#DejaVuSans-2e" x="63.623047"/>
       <use xlink:href="#DejaVuSans-30" x="95.410156"/>
       <use xlink:href="#DejaVuSans-35" x="159.033203"/>
      </g>
     </g>
    </g>
    <g id="ytick_4">
     <g id="line2d_29">
      <g>
       <use xlink:href="#m835510e802" x="103.074841" y="206.169338" style="stroke: #000000; stroke-width: 0.8"/>
      </g>
     </g>
     <g id="text_29">
      <!-- 0.10 -->
      <g transform="translate(51.543591 213.767776) scale(0.2 -0.2)">
       <use xlink:href="#DejaVuSans-30"/>
       <use xlink:href="#DejaVuSans-2e" x="63.623047"/>
       <use xlink:href="#DejaVuSans-31" x="95.410156"/>
       <use xlink:href="#DejaVuSans-30" x="159.033203"/>
      </g>
     </g>
    </g>
    <g id="ytick_5">
     <g id="line2d_30">
      <g>
       <use xlink:href="#m835510e802" x="103.074841" y="145.165899" style="stroke: #000000; stroke-width: 0.8"/>
      </g>
     </g>
     <g id="text_30">
      <!-- 0.15 -->
      <g transform="translate(51.543591 152.764336) scale(0.2 -0.2)">
       <use xlink:href="#DejaVuSans-30"/>
       <use xlink:href="#DejaVuSans-2e" x="63.623047"/>
       <use xlink:href="#DejaVuSans-31" x="95.410156"/>
       <use xlink:href="#DejaVuSans-35" x="159.033203"/>
      </g>
     </g>
    </g>
    <g id="ytick_6">
     <g id="line2d_31">
      <g>
       <use xlink:href="#m835510e802" x="103.074841" y="84.16246" style="stroke: #000000; stroke-width: 0.8"/>
      </g>
     </g>
     <g id="text_31">
      <!-- 0.20 -->
      <g transform="translate(51.543591 91.760897) scale(0.2 -0.2)">
       <use xlink:href="#DejaVuSans-30"/>
       <use xlink:href="#DejaVuSans-2e" x="63.623047"/>
       <use xlink:href="#DejaVuSans-32" x="95.410156"/>
       <use xlink:href="#DejaVuSans-30" x="159.033203"/>
      </g>
     </g>
    </g>
    <g id="ytick_7">
     <g id="line2d_32">
      <g>
       <use xlink:href="#m835510e802" x="103.074841" y="23.15902" style="stroke: #000000; stroke-width: 0.8"/>
      </g>
     </g>
     <g id="text_32">
      <!-- 0.25 -->
      <g transform="translate(51.543591 30.757458) scale(0.2 -0.2)">
       <use xlink:href="#DejaVuSans-30"/>
       <use xlink:href="#DejaVuSans-2e" x="63.623047"/>
       <use xlink:href="#DejaVuSans-32" x="95.410156"/>
       <use xlink:href="#DejaVuSans-35" x="159.033203"/>
      </g>
     </g>
    </g>
    <g id="text_33">
     <!-- Relative fitness $\gamma_y$ -->
     <g transform="translate(24.584216 291.84) rotate(-90) scale(0.2 -0.2)">
      <defs>
       <path id="DejaVuSans-52" d="M 2841 2188 
Q 3044 2119 3236 1894 
Q 3428 1669 3622 1275 
L 4263 0 
L 3584 0 
L 2988 1197 
Q 2756 1666 2539 1819 
Q 2322 1972 1947 1972 
L 1259 1972 
L 1259 0 
L 628 0 
L 628 4666 
L 2053 4666 
Q 2853 4666 3247 4331 
Q 3641 3997 3641 3322 
Q 3641 2881 3436 2590 
Q 3231 2300 2841 2188 
z
M 1259 4147 
L 1259 2491 
L 2053 2491 
Q 2509 2491 2742 2702 
Q 2975 2913 2975 3322 
Q 2975 3731 2742 3939 
Q 2509 4147 2053 4147 
L 1259 4147 
z
" transform="scale(0.015625)"/>
       <path id="DejaVuSans-65" d="M 3597 1894 
L 3597 1613 
L 953 1613 
Q 991 1019 1311 708 
Q 1631 397 2203 397 
Q 2534 397 2845 478 
Q 3156 559 3463 722 
L 3463 178 
Q 3153 47 2828 -22 
Q 2503 -91 2169 -91 
Q 1331 -91 842 396 
Q 353 884 353 1716 
Q 353 2575 817 3079 
Q 1281 3584 2069 3584 
Q 2775 3584 3186 3129 
Q 3597 2675 3597 1894 
z
M 3022 2063 
Q 3016 2534 2758 2815 
Q 2500 3097 2075 3097 
Q 1594 3097 1305 2825 
Q 1016 2553 972 2059 
L 3022 2063 
z
" transform="scale(0.015625)"/>
       <path id="DejaVuSans-6c" d="M 603 4863 
L 1178 4863 
L 1178 0 
L 603 0 
L 603 4863 
z
" transform="scale(0.015625)"/>
       <path id="DejaVuSans-61" d="M 2194 1759 
Q 1497 1759 1228 1600 
Q 959 1441 959 1056 
Q 959 750 1161 570 
Q 1363 391 1709 391 
Q 2188 391 2477 730 
Q 2766 1069 2766 1631 
L 2766 1759 
L 2194 1759 
z
M 3341 1997 
L 3341 0 
L 2766 0 
L 2766 531 
Q 2569 213 2275 61 
Q 1981 -91 1556 -91 
Q 1019 -91 701 211 
Q 384 513 384 1019 
Q 384 1609 779 1909 
Q 1175 2209 1959 2209 
L 2766 2209 
L 2766 2266 
Q 2766 2663 2505 2880 
Q 2244 3097 1772 3097 
Q 1472 3097 1187 3025 
Q 903 2953 641 2809 
L 641 3341 
Q 956 3463 1253 3523 
Q 1550 3584 1831 3584 
Q 2591 3584 2966 3190 
Q 3341 2797 3341 1997 
z
" transform="scale(0.015625)"/>
       <path id="DejaVuSans-74" d="M 1172 4494 
L 1172 3500 
L 2356 3500 
L 2356 3053 
L 1172 3053 
L 1172 1153 
Q 1172 725 1289 603 
Q 1406 481 1766 481 
L 2356 481 
L 2356 0 
L 1766 0 
Q 1100 0 847 248 
Q 594 497 594 1153 
L 594 3053 
L 172 3053 
L 172 3500 
L 594 3500 
L 594 4494 
L 1172 4494 
z
" transform="scale(0.015625)"/>
       <path id="DejaVuSans-69" d="M 603 3500 
L 1178 3500 
L 1178 0 
L 603 0 
L 603 3500 
z
M 603 4863 
L 1178 4863 
L 1178 4134 
L 603 4134 
L 603 4863 
z
" transform="scale(0.015625)"/>
       <path id="DejaVuSans-76" d="M 191 3500 
L 800 3500 
L 1894 563 
L 2988 3500 
L 3597 3500 
L 2284 0 
L 1503 0 
L 191 3500 
z
" transform="scale(0.015625)"/>
       <path id="DejaVuSans-20" transform="scale(0.015625)"/>
       <path id="DejaVuSans-66" d="M 2375 4863 
L 2375 4384 
L 1825 4384 
Q 1516 4384 1395 4259 
Q 1275 4134 1275 3809 
L 1275 3500 
L 2222 3500 
L 2222 3053 
L 1275 3053 
L 1275 0 
L 697 0 
L 697 3053 
L 147 3053 
L 147 3500 
L 697 3500 
L 697 3744 
Q 697 4328 969 4595 
Q 1241 4863 1831 4863 
L 2375 4863 
z
" transform="scale(0.015625)"/>
       <path id="DejaVuSans-6e" d="M 3513 2113 
L 3513 0 
L 2938 0 
L 2938 2094 
Q 2938 2591 2744 2837 
Q 2550 3084 2163 3084 
Q 1697 3084 1428 2787 
Q 1159 2491 1159 1978 
L 1159 0 
L 581 0 
L 581 3500 
L 1159 3500 
L 1159 2956 
Q 1366 3272 1645 3428 
Q 1925 3584 2291 3584 
Q 2894 3584 3203 3211 
Q 3513 2838 3513 2113 
z
" transform="scale(0.015625)"/>
       <path id="DejaVuSans-73" d="M 2834 3397 
L 2834 2853 
Q 2591 2978 2328 3040 
Q 2066 3103 1784 3103 
Q 1356 3103 1142 2972 
Q 928 2841 928 2578 
Q 928 2378 1081 2264 
Q 1234 2150 1697 2047 
L 1894 2003 
Q 2506 1872 2764 1633 
Q 3022 1394 3022 966 
Q 3022 478 2636 193 
Q 2250 -91 1575 -91 
Q 1294 -91 989 -36 
Q 684 19 347 128 
L 347 722 
Q 666 556 975 473 
Q 1284 391 1588 391 
Q 1994 391 2212 530 
Q 2431 669 2431 922 
Q 2431 1156 2273 1281 
Q 2116 1406 1581 1522 
L 1381 1569 
Q 847 1681 609 1914 
Q 372 2147 372 2553 
Q 372 3047 722 3315 
Q 1072 3584 1716 3584 
Q 2034 3584 2315 3537 
Q 2597 3491 2834 3397 
z
" transform="scale(0.015625)"/>
       <path id="DejaVuSans-Oblique-3b3" d="M 1491 2950 
L 1838 788 
L 3456 3500 
L 4066 3500 
L 1972 0 
L 1713 -1331 
L 1138 -1331 
L 1397 0 
L 988 2613 
Q 925 3006 628 3006 
L 475 3006 
L 569 3500 
L 788 3500 
Q 1403 3500 1491 2950 
z
" transform="scale(0.015625)"/>
       <path id="DejaVuSans-Oblique-79" d="M 1588 -325 
Q 1188 -997 936 -1164 
Q 684 -1331 294 -1331 
L -159 -1331 
L -63 -850 
L 269 -850 
Q 509 -850 678 -719 
Q 847 -588 1056 -206 
L 1234 128 
L 459 3500 
L 1069 3500 
L 1650 819 
L 3256 3500 
L 3859 3500 
L 1588 -325 
z
" transform="scale(0.015625)"/>
      </defs>
      <use xlink:href="#DejaVuSans-52" transform="translate(0 0.015625)"/>
      <use xlink:href="#DejaVuSans-65" transform="translate(69.482422 0.015625)"/>
      <use xlink:href="#DejaVuSans-6c" transform="translate(131.005859 0.015625)"/>
      <use xlink:href="#DejaVuSans-61" transform="translate(158.789062 0.015625)"/>
      <use xlink:href="#DejaVuSans-74" transform="translate(220.068359 0.015625)"/>
      <use xlink:href="#DejaVuSans-69" transform="translate(259.277344 0.015625)"/>
      <use xlink:href="#DejaVuSans-76" transform="translate(287.060547 0.015625)"/>
      <use xlink:href="#DejaVuSans-65" transform="translate(346.240234 0.015625)"/>
      <use xlink:href="#DejaVuSans-20" transform="translate(407.763672 0.015625)"/>
      <use xlink:href="#DejaVuSans-66" transform="translate(439.550781 0.015625)"/>
      <use xlink:href="#DejaVuSans-69" transform="translate(474.755859 0.015625)"/>
      <use xlink:href="#DejaVuSans-74" transform="translate(502.539062 0.015625)"/>
      <use xlink:href="#DejaVuSans-6e" transform="translate(541.748047 0.015625)"/>
      <use xlink:href="#DejaVuSans-65" transform="translate(605.126953 0.015625)"/>
      <use xlink:href="#DejaVuSans-73" transform="translate(666.650391 0.015625)"/>
      <use xlink:href="#DejaVuSans-73" transform="translate(718.75 0.015625)"/>
      <use xlink:href="#DejaVuSans-20" transform="translate(770.849609 0.015625)"/>
      <use xlink:href="#DejaVuSans-Oblique-3b3" transform="translate(802.636719 0.015625)"/>
      <use xlink:href="#DejaVuSans-Oblique-79" transform="translate(861.816406 -16.390625) scale(0.7)"/>
     </g>
    </g>
   </g>
   <g id="line2d_33">
    <path d="M 103.074841 328.176217 
L 1041.965466 328.176217 
" clip-path="url(#pc87ae978ff)" style="fill: none; stroke-dasharray: 7.4,3.2; stroke-dashoffset: 0; stroke: #000000; stroke-width: 2"/>
   </g>
   <g id="patch_3">
    <path d="M 103.074841 395.28 
L 103.074841 7.2 
" style="fill: none; stroke: #000000; stroke-width: 0.8; stroke-linejoin: miter; stroke-linecap: square"/>
   </g>
   <g id="patch_4">
    <path d="M 940.074841 395.28 
L 940.074841 7.2 
" style="fill: none; stroke: #000000; stroke-width: 0.8; stroke-linejoin: miter; stroke-linecap: square"/>
   </g>
   <g id="patch_5">
    <path d="M 103.074841 395.28 
L 940.074841 395.28 
" style="fill: none; stroke: #000000; stroke-width: 0.8; stroke-linejoin: miter; stroke-linecap: square"/>
   </g>
   <g id="patch_6">
    <path d="M 103.074841 7.2 
L 940.074841 7.2 
" style="fill: none; stroke: #000000; stroke-width: 0.8; stroke-linejoin: miter; stroke-linecap: square"/>
   </g>
  </g>
  <g id="axes_2">
   <g id="matplotlib.axis_3">
    <g id="ytick_8">
     <g id="line2d_34">
      <defs>
       <path id="mc188c3d343" d="M 0 0 
L 3.5 0 
" style="stroke: #000000; stroke-width: 0.8"/>
      </defs>
      <g>
       <use xlink:href="#mc188c3d343" x="940.074841" y="389.179656" style="stroke: #000000; stroke-width: 0.8"/>
      </g>
     </g>
     <g id="text_34">
      <!-- 0.05 -->
      <g transform="translate(947.074841 396.778094) scale(0.2 -0.2)">
       <use xlink:href="#DejaVuSans-2212"/>
       <use xlink:href="#DejaVuSans-30" x="83.789062"/>
       <use xlink:href="#DejaVuSans-2e" x="147.412109"/>
       <use xlink:href="#DejaVuSans-30" x="179.199219"/>
       <use xlink:href="#DejaVuSans-35" x="242.822266"/>
      </g>
     </g>
    </g>
    <g id="ytick_9">
     <g id="line2d_35">
      <g>
       <use xlink:href="#mc188c3d343" x="940.074841" y="328.176217" style="stroke: #000000; stroke-width: 0.8"/>
      </g>
     </g>
     <g id="text_35">
      <!-- 0.00 -->
      <g transform="translate(947.074841 335.774654) scale(0.2 -0.2)">
       <use xlink:href="#DejaVuSans-30"/>
       <use xlink:href="#DejaVuSans-2e" x="63.623047"/>
       <use xlink:href="#DejaVuSans-30" x="95.410156"/>
       <use xlink:href="#DejaVuSans-30" x="159.033203"/>
      </g>
     </g>
    </g>
    <g id="ytick_10">
     <g id="line2d_36">
      <g>
       <use xlink:href="#mc188c3d343" x="940.074841" y="267.172778" style="stroke: #000000; stroke-width: 0.8"/>
      </g>
     </g>
     <g id="text_36">
      <!-- 0.05 -->
      <g transform="translate(947.074841 274.771215) scale(0.2 -0.2)">
       <use xlink:href="#DejaVuSans-30"/>
       <use xlink:href="#DejaVuSans-2e" x="63.623047"/>
       <use xlink:href="#DejaVuSans-30" x="95.410156"/>
       <use xlink:href="#DejaVuSans-35" x="159.033203"/>
      </g>
     </g>
    </g>
    <g id="ytick_11">
     <g id="line2d_37">
      <g>
       <use xlink:href="#mc188c3d343" x="940.074841" y="206.169338" style="stroke: #000000; stroke-width: 0.8"/>
      </g>
     </g>
     <g id="text_37">
      <!-- 0.10 -->
      <g transform="translate(947.074841 213.767776) scale(0.2 -0.2)">
       <use xlink:href="#DejaVuSans-30"/>
       <use xlink:href="#DejaVuSans-2e" x="63.623047"/>
       <use xlink:href="#DejaVuSans-31" x="95.410156"/>
       <use xlink:href="#DejaVuSans-30" x="159.033203"/>
      </g>
     </g>
    </g>
    <g id="ytick_12">
     <g id="line2d_38">
      <g>
       <use xlink:href="#mc188c3d343" x="940.074841" y="145.165899" style="stroke: #000000; stroke-width: 0.8"/>
      </g>
     </g>
     <g id="text_38">
      <!-- 0.15 -->
      <g transform="translate(947.074841 152.764336) scale(0.2 -0.2)">
       <use xlink:href="#DejaVuSans-30"/>
       <use xlink:href="#DejaVuSans-2e" x="63.623047"/>
       <use xlink:href="#DejaVuSans-31" x="95.410156"/>
       <use xlink:href="#DejaVuSans-35" x="159.033203"/>
      </g>
     </g>
    </g>
    <g id="ytick_13">
     <g id="line2d_39">
      <g>
       <use xlink:href="#mc188c3d343" x="940.074841" y="84.16246" style="stroke: #000000; stroke-width: 0.8"/>
      </g>
     </g>
     <g id="text_39">
      <!-- 0.20 -->
      <g transform="translate(947.074841 91.760897) scale(0.2 -0.2)">
       <use xlink:href="#DejaVuSans-30"/>
       <use xlink:href="#DejaVuSans-2e" x="63.623047"/>
       <use xlink:href="#DejaVuSans-32" x="95.410156"/>
       <use xlink:href="#DejaVuSans-30" x="159.033203"/>
      </g>
     </g>
    </g>
    <g id="ytick_14">
     <g id="line2d_40">
      <g>
       <use xlink:href="#mc188c3d343" x="940.074841" y="23.15902" style="stroke: #000000; stroke-width: 0.8"/>
      </g>
     </g>
     <g id="text_40">
      <!-- 0.25 -->
      <g transform="translate(947.074841 30.757458) scale(0.2 -0.2)">
       <use xlink:href="#DejaVuSans-30"/>
       <use xlink:href="#DejaVuSans-2e" x="63.623047"/>
       <use xlink:href="#DejaVuSans-32" x="95.410156"/>
       <use xlink:href="#DejaVuSans-35" x="159.033203"/>
      </g>
     </g>
    </g>
    <g id="text_41">
     <!-- Change in proportion $\gamma_{prop}$ -->
     <g transform="translate(1027.565466 332.74) rotate(-90) scale(0.2 -0.2)">
      <defs>
       <path id="DejaVuSans-43" d="M 4122 4306 
L 4122 3641 
Q 3803 3938 3442 4084 
Q 3081 4231 2675 4231 
Q 1875 4231 1450 3742 
Q 1025 3253 1025 2328 
Q 1025 1406 1450 917 
Q 1875 428 2675 428 
Q 3081 428 3442 575 
Q 3803 722 4122 1019 
L 4122 359 
Q 3791 134 3420 21 
Q 3050 -91 2638 -91 
Q 1578 -91 968 557 
Q 359 1206 359 2328 
Q 359 3453 968 4101 
Q 1578 4750 2638 4750 
Q 3056 4750 3426 4639 
Q 3797 4528 4122 4306 
z
" transform="scale(0.015625)"/>
       <path id="DejaVuSans-68" d="M 3513 2113 
L 3513 0 
L 2938 0 
L 2938 2094 
Q 2938 2591 2744 2837 
Q 2550 3084 2163 3084 
Q 1697 3084 1428 2787 
Q 1159 2491 1159 1978 
L 1159 0 
L 581 0 
L 581 4863 
L 1159 4863 
L 1159 2956 
Q 1366 3272 1645 3428 
Q 1925 3584 2291 3584 
Q 2894 3584 3203 3211 
Q 3513 2838 3513 2113 
z
" transform="scale(0.015625)"/>
       <path id="DejaVuSans-67" d="M 2906 1791 
Q 2906 2416 2648 2759 
Q 2391 3103 1925 3103 
Q 1463 3103 1205 2759 
Q 947 2416 947 1791 
Q 947 1169 1205 825 
Q 1463 481 1925 481 
Q 2391 481 2648 825 
Q 2906 1169 2906 1791 
z
M 3481 434 
Q 3481 -459 3084 -895 
Q 2688 -1331 1869 -1331 
Q 1566 -1331 1297 -1286 
Q 1028 -1241 775 -1147 
L 775 -588 
Q 1028 -725 1275 -790 
Q 1522 -856 1778 -856 
Q 2344 -856 2625 -561 
Q 2906 -266 2906 331 
L 2906 616 
Q 2728 306 2450 153 
Q 2172 0 1784 0 
Q 1141 0 747 490 
Q 353 981 353 1791 
Q 353 2603 747 3093 
Q 1141 3584 1784 3584 
Q 2172 3584 2450 3431 
Q 2728 3278 2906 2969 
L 2906 3500 
L 3481 3500 
L 3481 434 
z
" transform="scale(0.015625)"/>
       <path id="DejaVuSans-70" d="M 1159 525 
L 1159 -1331 
L 581 -1331 
L 581 3500 
L 1159 3500 
L 1159 2969 
Q 1341 3281 1617 3432 
Q 1894 3584 2278 3584 
Q 2916 3584 3314 3078 
Q 3713 2572 3713 1747 
Q 3713 922 3314 415 
Q 2916 -91 2278 -91 
Q 1894 -91 1617 61 
Q 1341 213 1159 525 
z
M 3116 1747 
Q 3116 2381 2855 2742 
Q 2594 3103 2138 3103 
Q 1681 3103 1420 2742 
Q 1159 2381 1159 1747 
Q 1159 1113 1420 752 
Q 1681 391 2138 391 
Q 2594 391 2855 752 
Q 3116 1113 3116 1747 
z
" transform="scale(0.015625)"/>
       <path id="DejaVuSans-72" d="M 2631 2963 
Q 2534 3019 2420 3045 
Q 2306 3072 2169 3072 
Q 1681 3072 1420 2755 
Q 1159 2438 1159 1844 
L 1159 0 
L 581 0 
L 581 3500 
L 1159 3500 
L 1159 2956 
Q 1341 3275 1631 3429 
Q 1922 3584 2338 3584 
Q 2397 3584 2469 3576 
Q 2541 3569 2628 3553 
L 2631 2963 
z
" transform="scale(0.015625)"/>
       <path id="DejaVuSans-6f" d="M 1959 3097 
Q 1497 3097 1228 2736 
Q 959 2375 959 1747 
Q 959 1119 1226 758 
Q 1494 397 1959 397 
Q 2419 397 2687 759 
Q 2956 1122 2956 1747 
Q 2956 2369 2687 2733 
Q 2419 3097 1959 3097 
z
M 1959 3584 
Q 2709 3584 3137 3096 
Q 3566 2609 3566 1747 
Q 3566 888 3137 398 
Q 2709 -91 1959 -91 
Q 1206 -91 779 398 
Q 353 888 353 1747 
Q 353 2609 779 3096 
Q 1206 3584 1959 3584 
z
" transform="scale(0.015625)"/>
       <path id="DejaVuSans-Oblique-70" d="M 3175 2156 
Q 3175 2616 2975 2859 
Q 2775 3103 2400 3103 
Q 2144 3103 1911 2972 
Q 1678 2841 1497 2591 
Q 1319 2344 1212 1994 
Q 1106 1644 1106 1300 
Q 1106 863 1306 627 
Q 1506 391 1875 391 
Q 2147 391 2380 519 
Q 2613 647 2778 891 
Q 2956 1147 3065 1494 
Q 3175 1841 3175 2156 
z
M 1394 2969 
Q 1625 3272 1939 3428 
Q 2253 3584 2638 3584 
Q 3175 3584 3472 3232 
Q 3769 2881 3769 2247 
Q 3769 1728 3584 1258 
Q 3400 788 3053 416 
Q 2822 169 2531 39 
Q 2241 -91 1919 -91 
Q 1547 -91 1294 64 
Q 1041 219 916 525 
L 556 -1331 
L -19 -1331 
L 922 3500 
L 1497 3500 
L 1394 2969 
z
" transform="scale(0.015625)"/>
       <path id="DejaVuSans-Oblique-72" d="M 2853 2969 
Q 2766 3016 2653 3041 
Q 2541 3066 2413 3066 
Q 1953 3066 1609 2717 
Q 1266 2369 1153 1784 
L 800 0 
L 225 0 
L 909 3500 
L 1484 3500 
L 1375 2956 
Q 1603 3259 1920 3421 
Q 2238 3584 2597 3584 
Q 2691 3584 2781 3573 
Q 2872 3563 2963 3538 
L 2853 2969 
z
" transform="scale(0.015625)"/>
       <path id="DejaVuSans-Oblique-6f" d="M 1625 -91 
Q 1009 -91 651 289 
Q 294 669 294 1325 
Q 294 1706 417 2101 
Q 541 2497 738 2766 
Q 1047 3184 1428 3384 
Q 1809 3584 2291 3584 
Q 2888 3584 3255 3212 
Q 3622 2841 3622 2241 
Q 3622 1825 3500 1412 
Q 3378 1000 3181 728 
Q 2875 309 2494 109 
Q 2113 -91 1625 -91 
z
M 891 1344 
Q 891 869 1089 633 
Q 1288 397 1691 397 
Q 2269 397 2648 901 
Q 3028 1406 3028 2181 
Q 3028 2634 2825 2865 
Q 2622 3097 2228 3097 
Q 1903 3097 1650 2945 
Q 1397 2794 1197 2484 
Q 1050 2253 970 1956 
Q 891 1659 891 1344 
z
" transform="scale(0.015625)"/>
      </defs>
      <use xlink:href="#DejaVuSans-43" transform="translate(0 0.015625)"/>
      <use xlink:href="#DejaVuSans-68" transform="translate(69.824219 0.015625)"/>
      <use xlink:href="#DejaVuSans-61" transform="translate(133.203125 0.015625)"/>
      <use xlink:href="#DejaVuSans-6e" transform="translate(194.482422 0.015625)"/>
      <use xlink:href="#DejaVuSans-67" transform="translate(257.861328 0.015625)"/>
      <use xlink:href="#DejaVuSans-65" transform="translate(321.337891 0.015625)"/>
      <use xlink:href="#DejaVuSans-20" transform="translate(382.861328 0.015625)"/>
      <use xlink:href="#DejaVuSans-69" transform="translate(414.648438 0.015625)"/>
      <use xlink:href="#DejaVuSans-6e" transform="translate(442.431641 0.015625)"/>
      <use xlink:href="#DejaVuSans-20" transform="translate(505.810547 0.015625)"/>
      <use xlink:href="#DejaVuSans-70" transform="translate(537.597656 0.015625)"/>
      <use xlink:href="#DejaVuSans-72" transform="translate(601.074219 0.015625)"/>
      <use xlink:href="#DejaVuSans-6f" transform="translate(642.1875 0.015625)"/>
      <use xlink:href="#DejaVuSans-70" transform="translate(703.369141 0.015625)"/>
      <use xlink:href="#DejaVuSans-6f" transform="translate(766.845703 0.015625)"/>
      <use xlink:href="#DejaVuSans-72" transform="translate(828.027344 0.015625)"/>
      <use xlink:href="#DejaVuSans-74" transform="translate(869.140625 0.015625)"/>
      <use xlink:href="#DejaVuSans-69" transform="translate(908.349609 0.015625)"/>
      <use xlink:href="#DejaVuSans-6f" transform="translate(936.132812 0.015625)"/>
      <use xlink:href="#DejaVuSans-6e" transform="translate(997.314453 0.015625)"/>
      <use xlink:href="#DejaVuSans-20" transform="translate(1060.693359 0.015625)"/>
      <use xlink:href="#DejaVuSans-Oblique-3b3" transform="translate(1092.480469 0.015625)"/>
      <use xlink:href="#DejaVuSans-Oblique-70" transform="translate(1151.660156 -16.390625) scale(0.7)"/>
      <use xlink:href="#DejaVuSans-Oblique-72" transform="translate(1196.09375 -16.390625) scale(0.7)"/>
      <use xlink:href="#DejaVuSans-Oblique-6f" transform="translate(1224.873047 -16.390625) scale(0.7)"/>
      <use xlink:href="#DejaVuSans-Oblique-70" transform="translate(1267.700195 -16.390625) scale(0.7)"/>
     </g>
    </g>
   </g>
   <g id="line2d_41">
    <path d="M 940.074841 328.176217 
" clip-path="url(#pc87ae978ff)" style="fill: none; stroke: #ffa500; stroke-width: 1.5; stroke-linecap: square"/>
   </g>
   <g id="patch_7">
    <path d="M 103.074841 395.28 
L 103.074841 7.2 
" style="fill: none; stroke: #000000; stroke-width: 0.8; stroke-linejoin: miter; stroke-linecap: square"/>
   </g>
   <g id="patch_8">
    <path d="M 940.074841 395.28 
L 940.074841 7.2 
" style="fill: none; stroke: #000000; stroke-width: 0.8; stroke-linejoin: miter; stroke-linecap: square"/>
   </g>
   <g id="patch_9">
    <path d="M 103.074841 395.28 
L 940.074841 395.28 
" style="fill: none; stroke: #000000; stroke-width: 0.8; stroke-linejoin: miter; stroke-linecap: square"/>
   </g>
   <g id="patch_10">
    <path d="M 103.074841 7.2 
L 940.074841 7.2 
" style="fill: none; stroke: #000000; stroke-width: 0.8; stroke-linejoin: miter; stroke-linecap: square"/>
   </g>
  </g>
 </g>
 <defs>
  <clipPath id="pc87ae978ff">
   <rect x="103.074841" y="7.2" width="837" height="388.08"/>
  </clipPath>
 </defs>
</svg>
