<?xml version="1.0" encoding="utf-8" standalone="no"?>
<!DOCTYPE svg PUBLIC "-//W3C//DTD SVG 1.1//EN"
  "http://www.w3.org/Graphics/SVG/1.1/DTD/svg11.dtd">
<svg xmlns:xlink="http://www.w3.org/1999/xlink" width="947.274841pt" height="505.354841pt" viewBox="0 0 947.274841 505.354841" xmlns="http://www.w3.org/2000/svg" version="1.1">
 <metadata>
  <rdf:RDF xmlns:dc="http://purl.org/dc/elements/1.1/" xmlns:cc="http://creativecommons.org/ns#" xmlns:rdf="http://www.w3.org/1999/02/22-rdf-syntax-ns#">
   <cc:Work>
    <dc:type rdf:resource="http://purl.org/dc/dcmitype/StillImage"/>
    <dc:date>2023-11-12T22:44:03.920854</dc:date>
    <dc:format>image/svg+xml</dc:format>
    <dc:creator>
     <cc:Agent>
      <dc:title>Matplotlib v3.7.2, https://matplotlib.org/</dc:title>
     </cc:Agent>
    </dc:creator>
   </cc:Work>
  </rdf:RDF>
 </metadata>
 <defs>
  <style type="text/css">*{stroke-linejoin: round; stroke-linecap: butt}</style>
 </defs>
 <g id="figure_1">
  <g id="patch_1">
   <path d="M 0 505.354841 
L 947.274841 505.354841 
L 947.274841 -0 
L 0 -0 
z
" style="fill: #ffffff"/>
  </g>
  <g id="axes_1">
   <g id="patch_2">
    <path d="M 103.074841 395.28 
L 940.074841 395.28 
L 940.074841 7.2 
L 103.074841 7.2 
z
" style="fill: #ffffff"/>
   </g>
   <g id="PolyCollection_1">
    <path d="M -4315.31939 325.563855 
L -4315.31939 325.589488 
L -4307.271313 325.468886 
L -4299.223236 325.362624 
L -4291.175159 325.227845 
L -4283.127082 325.134904 
L -4275.079005 325.017441 
L -4267.030929 324.88146 
L -4258.982852 324.752554 
L -4250.934775 324.635582 
L -4242.886698 324.530822 
L -4234.838621 324.411793 
L -4226.790544 324.287517 
L -4218.742467 324.166063 
L -4210.69439 324.020232 
L -4202.646313 323.896529 
L -4194.598236 323.753456 
L -4186.550159 323.628362 
L -4178.502082 323.464856 
L -4170.454005 323.32718 
L -4162.405929 323.193659 
L -4154.357852 323.038596 
L -4146.309775 322.886626 
L -4138.261698 322.737246 
L -4130.213621 322.560297 
L -4122.165544 322.402614 
L -4114.117467 322.220696 
L -4106.06939 322.036111 
L -4098.021313 321.833324 
L -4089.973236 321.624658 
L -4081.925159 321.419085 
L -4073.877082 321.183706 
L -4065.829005 320.919394 
L -4057.780929 320.68064 
L -4049.732852 320.411549 
L -4041.684775 320.106623 
L -4033.636698 319.819284 
L -4025.588621 319.485929 
L -4017.540544 319.14605 
L -4009.492467 318.795063 
L -4001.44439 318.424425 
L -3993.396313 318.015625 
L -3985.348236 317.580731 
L -3977.300159 317.120088 
L -3969.252082 316.672209 
L -3961.204005 316.151845 
L -3953.155929 315.652267 
L -3945.107852 315.121165 
L -3937.059775 314.585927 
L -3929.011698 314.011818 
L -3920.963621 313.39287 
L -3912.915544 312.81344 
L -3904.867467 312.173297 
L -3896.81939 311.511133 
L -3888.771313 310.859299 
L -3880.723236 310.211907 
L -3872.675159 309.5138 
L -3864.627082 308.807535 
L -3856.579005 308.101164 
L -3848.530929 307.367039 
L -3840.482852 306.623637 
L -3832.434775 305.881112 
L -3824.386698 305.114891 
L -3816.338621 304.346138 
L -3808.290544 303.586995 
L -3800.242467 302.798954 
L -3792.19439 301.960653 
L -3784.146313 301.145301 
L -3776.098236 300.331165 
L -3768.050159 299.528185 
L -3760.002082 298.695353 
L -3751.954005 297.879941 
L -3743.905929 297.051987 
L -3735.857852 296.296924 
L -3727.809775 295.422547 
L -3719.761698 294.654649 
L -3711.713621 293.821715 
L -3703.665544 293.032892 
L -3695.617467 292.211401 
L -3687.56939 291.466592 
L -3679.521313 290.623891 
L -3671.473236 289.835532 
L -3663.425159 289.091365 
L -3655.377082 288.289195 
L -3647.329005 287.526418 
L -3639.280929 286.74241 
L -3631.232852 285.94352 
L -3623.184775 285.172995 
L -3615.136698 284.416389 
L -3607.088621 283.615999 
L -3599.040544 282.845962 
L -3590.992467 282.059948 
L -3582.94439 281.285888 
L -3574.896313 280.528682 
L -3566.848236 279.753457 
L -3558.800159 278.971933 
L -3550.752082 278.260745 
L -3542.704005 277.466754 
L -3534.655929 276.703381 
L -3526.607852 275.951943 
L -3518.559775 275.200386 
L -3510.511698 274.451164 
L -3502.463621 273.69396 
L -3494.415544 272.96878 
L -3486.367467 272.218247 
L -3478.31939 271.45159 
L -3470.271313 270.677641 
L -3462.223236 269.896471 
L -3454.175159 269.160457 
L -3446.127082 268.35851 
L -3438.079005 267.508554 
L -3430.030929 266.705388 
L -3421.982852 265.862408 
L -3413.934775 265.007156 
L -3405.886698 264.108047 
L -3397.838621 263.19345 
L -3389.790544 262.337014 
L -3381.742467 261.370856 
L -3373.69439 260.447555 
L -3365.646313 259.459183 
L -3357.598236 258.543387 
L -3349.550159 257.480748 
L -3341.502082 256.436135 
L -3333.454005 255.417231 
L -3325.405929 254.380886 
L -3317.357852 253.31412 
L -3309.309775 252.202182 
L -3301.261698 251.152852 
L -3293.213621 249.963379 
L -3285.165544 248.904379 
L -3277.117467 247.680064 
L -3269.06939 246.489207 
L -3261.021313 245.322429 
L -3252.973236 244.197564 
L -3244.925159 242.900368 
L -3236.877082 241.716706 
L -3228.829005 240.238708 
L -3220.780929 238.950299 
L -3212.732852 237.739961 
L -3204.684775 236.385178 
L -3196.636698 234.995837 
L -3188.588621 233.410687 
L -3180.540544 231.914173 
L -3172.492467 230.641366 
L -3164.44439 228.698203 
L -3156.396313 227.10718 
L -3148.348236 225.479754 
L -3140.300159 223.791617 
L -3132.252082 221.884432 
L -3124.204005 220.076088 
L -3116.155929 218.66517 
L -3108.107852 217.079064 
L -3100.059775 214.514331 
L -3092.011698 212.400183 
L -3083.963621 211.083217 
L -3075.915544 208.846474 
L -3067.867467 207.215325 
L -3059.81939 205.701202 
L -3051.771313 203.594747 
L -3043.723236 200.727038 
L -3035.675159 198.969768 
L -3027.627082 197.979421 
L -3019.579005 195.841976 
L -3011.530929 195.027616 
L -3003.482852 193.619555 
L -2995.434775 191.077752 
L -2987.386698 191.089236 
L -2979.338621 191.883594 
L -2971.290544 193.762081 
L -2963.242467 191.29995 
L -2955.19439 195.69937 
L -2947.146313 196.56075 
L -2939.098236 190.277043 
L -2931.050159 191.874781 
L -2923.002082 194.46071 
L -2914.954005 192.732799 
L -2906.905929 192.286912 
L -2898.857852 203.844576 
L -2890.809775 220.330118 
L -2882.761698 228.496293 
L -2874.713621 210.419307 
L -2866.665544 219.604399 
L -2858.617467 231.665576 
L -2850.56939 230.909519 
L -2842.521313 255.530004 
L -2834.473236 252.127266 
L -2826.425159 244.553076 
L -2818.377082 225.835037 
L -2810.329005 243.393129 
L -2802.280929 253.947589 
L -2794.232852 249.520214 
L -2786.184775 252.268695 
L -2778.136698 262.238052 
L -2770.088621 260.9055 
L -2762.040544 252.305435 
L -2753.992467 263.107585 
L -2745.94439 265.248043 
L -2737.896313 261.387748 
L -2729.848236 268.242882 
L -2721.800159 270.745586 
L -2713.752082 270.064559 
L -2705.704005 267.978894 
L -2697.655929 270.225907 
L -2689.607852 267.91733 
L -2681.559775 268.107719 
L -2673.511698 270.243547 
L -2665.463621 268.2107 
L -2657.415544 269.247164 
L -2649.367467 269.289967 
L -2641.31939 267.63946 
L -2633.271313 268.221732 
L -2625.223236 265.845959 
L -2617.175159 265.980262 
L -2609.127082 266.608191 
L -2601.079005 266.616814 
L -2593.030929 265.437205 
L -2584.982852 264.421045 
L -2576.934775 264.135546 
L -2568.886698 263.010315 
L -2560.838621 262.795218 
L -2552.790544 262.542474 
L -2544.742467 260.846508 
L -2536.69439 261.567813 
L -2528.646313 260.425357 
L -2520.598236 259.897679 
L -2512.550159 259.869085 
L -2504.502082 258.744825 
L -2496.454005 258.419432 
L -2488.405929 258.719168 
L -2480.357852 259.247003 
L -2472.309775 257.448111 
L -2464.261698 257.091842 
L -2456.213621 256.459952 
L -2448.165544 259.408964 
L -2440.117467 259.424079 
L -2432.06939 260.532413 
L -2424.021313 257.608099 
L -2415.973236 255.786359 
L -2407.925159 256.296553 
L -2399.877082 258.232592 
L -2391.829005 258.518731 
L -2383.780929 254.991759 
L -2375.732852 257.887138 
L -2367.684775 257.106853 
L -2359.636698 256.578997 
L -2351.588621 254.927864 
L -2343.540544 256.192064 
L -2335.492467 255.367954 
L -2327.44439 256.059691 
L -2319.396313 254.970615 
L -2311.348236 254.098761 
L -2303.300159 252.56394 
L -2295.252082 251.802939 
L -2287.204005 251.10325 
L -2279.155929 250.160687 
L -2271.107852 249.914205 
L -2263.059775 249.039873 
L -2255.011698 248.104592 
L -2246.963621 245.717127 
L -2238.915544 243.889664 
L -2230.867467 243.038277 
L -2222.81939 241.044889 
L -2214.771313 240.606764 
L -2206.723236 238.855295 
L -2198.675159 236.301208 
L -2190.627082 234.162231 
L -2182.579005 232.531561 
L -2174.530929 229.886908 
L -2166.482852 228.2457 
L -2158.434775 225.884016 
L -2150.386698 223.79053 
L -2142.338621 221.171525 
L -2134.290544 219.003338 
L -2126.242467 216.074395 
L -2118.19439 213.756432 
L -2110.146313 211.241765 
L -2102.098236 207.915421 
L -2094.050159 204.81326 
L -2086.002082 202.542495 
L -2077.954005 199.803269 
L -2069.905929 196.459414 
L -2061.857852 193.812371 
L -2053.809775 190.59772 
L -2045.761698 186.029132 
L -2037.713621 184.116928 
L -2029.665544 180.404833 
L -2021.617467 177.487029 
L -2013.56939 174.169221 
L -2005.521313 170.578396 
L -1997.473236 166.867452 
L -1989.425159 163.486686 
L -1981.377082 158.965575 
L -1973.329005 156.255961 
L -1965.280929 152.041363 
L -1957.232852 149.306465 
L -1949.184775 144.988226 
L -1941.136698 140.819807 
L -1933.088621 136.965343 
L -1925.040544 133.886379 
L -1916.992467 128.902635 
L -1908.94439 125.51533 
L -1900.896313 121.139214 
L -1892.848236 117.671291 
L -1884.800159 113.194087 
L -1876.752082 109.262437 
L -1868.704005 108.655562 
L -1860.655929 101.044343 
L -1852.607852 99.72463 
L -1844.559775 94.99139 
L -1836.511698 91.721669 
L -1828.463621 87.877341 
L -1820.415544 83.867269 
L -1812.367467 80.34821 
L -1804.31939 76.945926 
L -1796.271313 73.737649 
L -1788.223236 70.510469 
L -1780.175159 72.789406 
L -1772.127082 63.480541 
L -1764.079005 61.06875 
L -1756.030929 68.464334 
L -1747.982852 57.25425 
L -1739.934775 58.964129 
L -1731.886698 57.606938 
L -1723.838621 51.70495 
L -1715.790544 52.549917 
L -1707.742467 58.01261 
L -1699.69439 53.759407 
L -1691.646313 51.734829 
L -1683.598236 55.096742 
L -1675.550159 53.663093 
L -1667.502082 55.936754 
L -1659.454005 59.065944 
L -1651.405929 64.502819 
L -1643.357852 77.27027 
L -1635.309775 74.208141 
L -1627.261698 81.083898 
L -1619.213621 86.761894 
L -1611.165544 89.769572 
L -1603.117467 97.033383 
L -1595.06939 103.207629 
L -1587.021313 92.685531 
L -1578.973236 104.221131 
L -1570.925159 118.750281 
L -1562.877082 125.808626 
L -1554.829005 129.090361 
L -1546.780929 148.300856 
L -1538.732852 149.941974 
L -1530.684775 155.249219 
L -1522.636698 153.945672 
L -1514.588621 170.169043 
L -1506.540544 165.264849 
L -1498.492467 162.518502 
L -1490.44439 176.381925 
L -1482.396313 186.249824 
L -1474.348236 185.475232 
L -1466.300159 191.364683 
L -1458.252082 193.335925 
L -1450.204005 193.772822 
L -1442.155929 193.852177 
L -1434.107852 197.153132 
L -1426.059775 199.052171 
L -1418.011698 209.146672 
L -1409.963621 204.101785 
L -1401.915544 212.903004 
L -1393.867467 211.026108 
L -1385.81939 209.936815 
L -1377.771313 213.553426 
L -1369.723236 216.786489 
L -1361.675159 212.894621 
L -1353.627082 214.945474 
L -1345.579005 215.164626 
L -1337.530929 219.986826 
L -1329.482852 217.735623 
L -1321.434775 216.729678 
L -1313.386698 218.171074 
L -1305.338621 220.523381 
L -1297.290544 219.480247 
L -1289.242467 217.290497 
L -1281.19439 218.628366 
L -1273.146313 215.258938 
L -1265.098236 215.680212 
L -1257.050159 221.376988 
L -1249.002082 221.087781 
L -1240.954005 217.94208 
L -1232.905929 217.188758 
L -1224.857852 217.584145 
L -1216.809775 214.171116 
L -1208.761698 215.019151 
L -1200.713621 215.021612 
L -1192.665544 214.304235 
L -1184.617467 213.389261 
L -1176.56939 211.278989 
L -1168.521313 212.542339 
L -1160.473236 211.127707 
L -1152.425159 210.828026 
L -1144.377082 210.082396 
L -1136.329005 210.184381 
L -1128.280929 208.572961 
L -1120.232852 205.64834 
L -1112.184775 205.533258 
L -1104.136698 203.157194 
L -1096.088621 199.725361 
L -1088.040544 202.279254 
L -1079.992467 197.59928 
L -1071.94439 199.592954 
L -1063.896313 198.727457 
L -1055.848236 199.091016 
L -1047.800159 196.100304 
L -1039.752082 195.914082 
L -1031.704005 195.513489 
L -1023.655929 191.78539 
L -1015.607852 192.753799 
L -1007.559775 192.449051 
L -999.511698 192.323054 
L -991.463621 190.558418 
L -983.415544 191.418347 
L -975.367467 189.602098 
L -967.31939 187.86753 
L -959.271313 185.119821 
L -951.223236 184.257156 
L -943.175159 183.693111 
L -935.127082 181.785188 
L -927.079005 182.09501 
L -919.030929 181.176256 
L -910.982852 179.484438 
L -902.934775 179.57716 
L -894.886698 177.656278 
L -886.838621 179.302383 
L -878.790544 177.976423 
L -870.742467 178.071701 
L -862.69439 175.684379 
L -854.646313 172.410969 
L -846.598236 175.248023 
L -838.550159 175.185194 
L -830.502082 174.141839 
L -822.454005 173.059335 
L -814.405929 170.789518 
L -806.357852 170.299447 
L -798.309775 169.0662 
L -790.261698 169.285827 
L -782.213621 168.838567 
L -774.165544 166.676989 
L -766.117467 163.59693 
L -758.06939 167.659665 
L -750.021313 166.72754 
L -741.973236 164.122259 
L -733.925159 165.830111 
L -725.877082 161.144632 
L -717.829005 161.753946 
L -709.780929 162.090448 
L -701.732852 158.931743 
L -693.684775 164.414823 
L -685.636698 159.006344 
L -677.588621 156.286718 
L -669.540544 159.903506 
L -661.492467 160.935125 
L -653.44439 159.269369 
L -645.396313 160.733381 
L -637.348236 158.316265 
L -629.300159 163.289773 
L -621.252082 160.923219 
L -613.204005 162.047396 
L -605.155929 158.850293 
L -597.107852 156.008055 
L -589.059775 159.939488 
L -581.011698 166.882798 
L -572.963621 159.290924 
L -564.915544 159.875023 
L -556.867467 157.134947 
L -548.81939 158.649844 
L -540.771313 158.415477 
L -532.723236 156.776011 
L -524.675159 156.248277 
L -516.627082 159.691477 
L -508.579005 158.097882 
L -500.530929 161.242651 
L -492.482852 161.926261 
L -484.434775 153.257575 
L -476.386698 156.985111 
L -468.338621 157.392415 
L -460.290544 158.092134 
L -452.242467 158.7135 
L -444.19439 164.408799 
L -436.146313 166.715527 
L -428.098236 166.514008 
L -420.050159 172.751786 
L -412.002082 183.047898 
L -403.954005 170.861162 
L -395.905929 170.745563 
L -387.857852 171.018651 
L -379.809775 175.09416 
L -371.761698 176.032902 
L -363.713621 176.012662 
L -355.665544 184.858062 
L -347.617467 188.119393 
L -339.56939 178.080983 
L -331.521313 187.17874 
L -323.473236 182.704966 
L -315.425159 179.933907 
L -307.377082 191.011588 
L -299.329005 188.842021 
L -291.280929 196.020512 
L -283.232852 193.896256 
L -275.184775 189.131646 
L -267.136698 193.675834 
L -259.088621 193.764119 
L -251.040544 198.242875 
L -242.992467 195.575094 
L -234.94439 202.917314 
L -226.896313 197.811962 
L -218.848236 201.738442 
L -210.800159 201.066593 
L -202.752082 205.376418 
L -194.704005 198.68086 
L -186.655929 206.043008 
L -178.607852 205.730536 
L -170.559775 210.787308 
L -162.511698 213.497461 
L -154.463621 213.601389 
L -146.415544 212.416621 
L -138.367467 215.697721 
L -130.31939 218.163169 
L -122.271313 216.121491 
L -114.223236 215.398824 
L -106.175159 218.277136 
L -98.127082 220.893195 
L -90.079005 216.549863 
L -82.030929 214.060242 
L -73.982852 224.205105 
L -65.934775 228.82055 
L -57.886698 218.542288 
L -49.838621 221.618801 
L -41.790544 223.176832 
L -33.742467 223.950292 
L -25.69439 229.153249 
L -17.646313 228.49008 
L -9.598236 226.384355 
L -1.550159 228.630234 
L 6.497918 229.226869 
L 14.545995 223.648669 
L 22.594071 226.440103 
L 30.642148 224.683737 
L 38.690225 232.345319 
L 46.738302 241.779604 
L 54.786379 240.361334 
L 62.834456 232.789735 
L 70.882533 231.928552 
L 78.93061 232.914865 
L 86.978687 233.214196 
L 95.026764 240.181753 
L 103.074841 231.192306 
L 111.122918 240.560437 
L 119.170995 248.067271 
L 127.219071 241.679771 
L 135.267148 251.34295 
L 143.315225 245.183823 
L 151.363302 250.415858 
L 159.411379 246.858911 
L 167.459456 249.40399 
L 175.507533 254.580023 
L 183.55561 254.165755 
L 191.603687 255.705397 
L 199.651764 256.075173 
L 207.699841 256.593776 
L 215.747918 243.850792 
L 223.795995 260.260576 
L 231.844071 267.001079 
L 239.892148 260.452586 
L 247.940225 266.41561 
L 255.988302 267.754378 
L 264.036379 264.378585 
L 272.084456 271.144588 
L 280.132533 275.737634 
L 288.18061 273.137416 
L 296.228687 274.961942 
L 304.276764 276.044967 
L 312.324841 277.741379 
L 320.372918 282.952363 
L 328.420995 272.646472 
L 336.469071 285.763184 
L 344.517148 286.26995 
L 352.565225 287.00476 
L 360.613302 279.120454 
L 368.661379 289.10533 
L 376.709456 295.832928 
L 384.757533 289.438857 
L 392.80561 290.439932 
L 400.853687 299.842373 
L 408.901764 284.175513 
L 416.949841 299.321515 
L 424.997918 290.294802 
L 433.045995 303.638982 
L 441.094071 297.919201 
L 449.142148 303.936002 
L 457.190225 306.095846 
L 465.238302 308.950585 
L 473.286379 310.085611 
L 481.334456 307.006192 
L 489.382533 307.554913 
L 497.43061 309.755087 
L 505.478687 317.614546 
L 513.526764 317.395526 
L 521.574841 317.161973 
L 529.622918 324.370145 
L 537.670995 325.206082 
L 545.719071 320.174274 
L 553.767148 320.472967 
L 561.815225 338.482126 
L 569.863302 340.936675 
L 577.911379 345.925933 
L 585.959456 336.16743 
L 594.007533 318.335862 
L 602.05561 339.198541 
L 610.103687 333.112507 
L 618.151764 340.509725 
L 626.199841 350.325949 
L 634.247918 338.905729 
L 642.295995 355.649626 
L 650.344071 343.390719 
L 658.392148 343.784459 
L 666.440225 345.927671 
L 674.488302 356.298904 
L 682.536379 356.132207 
L 690.584456 355.034579 
L 698.632533 345.876493 
L 706.68061 352.235217 
L 714.728687 357.233481 
L 722.776764 353.724633 
L 730.824841 362.351773 
L 738.872918 357.06261 
L 746.920995 362.976809 
L 754.969071 371.963118 
L 763.017148 371.618558 
L 771.065225 364.427418 
L 779.113302 365.492613 
L 787.161379 364.901718 
L 795.209456 369.482357 
L 803.257533 370.28107 
L 811.30561 357.986185 
L 819.353687 369.200083 
L 827.401764 321.822027 
L 835.449841 370.642493 
L 843.497918 375.638453 
L 851.545995 367.483993 
L 859.594071 358.890708 
L 867.642148 377.64 
L 875.690225 370.302081 
L 883.738302 356.954623 
L 891.786379 366.643279 
L 899.834456 367.632616 
L 907.882533 364.534747 
L 915.93061 373.693067 
L 923.978687 368.101475 
L 932.026764 372.26938 
L 940.074841 375.51777 
L 940.074841 327.962166 
L 940.074841 327.962166 
L 932.026764 332.680781 
L 923.978687 329.779699 
L 915.93061 332.046642 
L 907.882533 328.126292 
L 899.834456 329.596648 
L 891.786379 327.760294 
L 883.738302 328.55209 
L 875.690225 332.733871 
L 867.642148 333.205085 
L 859.594071 329.92943 
L 851.545995 330.484559 
L 843.497918 335.03021 
L 835.449841 331.645591 
L 827.401764 308.03576 
L 819.353687 332.558638 
L 811.30561 330.552718 
L 803.257533 332.939409 
L 795.209456 332.869639 
L 787.161379 331.63437 
L 779.113302 332.943513 
L 771.065225 332.645028 
L 763.017148 334.640976 
L 754.969071 334.877288 
L 746.920995 333.078841 
L 738.872918 331.438331 
L 730.824841 332.174202 
L 722.776764 329.157152 
L 714.728687 329.976775 
L 706.68061 329.133875 
L 698.632533 327.308918 
L 690.584456 330.460537 
L 682.536379 330.715487 
L 674.488302 331.735484 
L 666.440225 327.058813 
L 658.392148 327.165144 
L 650.344071 327.449383 
L 642.295995 330.912006 
L 634.247918 325.556428 
L 626.199841 329.29818 
L 618.151764 325.855184 
L 610.103687 323.583207 
L 602.05561 325.467337 
L 594.007533 311.106729 
L 585.959456 324.10122 
L 577.911379 328.052086 
L 569.863302 326.321429 
L 561.815225 325.10488 
L 553.767148 315.646319 
L 545.719071 316.210013 
L 537.670995 320.882741 
L 529.622918 320.202023 
L 521.574841 311.494958 
L 513.526764 311.910955 
L 505.478687 310.916998 
L 497.43061 299.508992 
L 489.382533 289.294303 
L 481.334456 286.922884 
L 473.286379 295.679808 
L 465.238302 293.003537 
L 457.190225 287.698256 
L 449.142148 282.248099 
L 441.094071 264.789126 
L 433.045995 282.030109 
L 424.997918 237.193137 
L 416.949841 267.452912 
L 408.901764 224.775426 
L 400.853687 270.940747 
L 392.80561 245.37417 
L 384.757533 244.860473 
L 376.709456 257.990203 
L 368.661379 242.477091 
L 360.613302 214.174827 
L 352.565225 234.888656 
L 344.517148 234.4517 
L 336.469071 233.581186 
L 328.420995 200.551974 
L 320.372918 216.944924 
L 312.324841 213.015152 
L 304.276764 210.732947 
L 296.228687 207.09235 
L 288.18061 200.19127 
L 280.132533 206.972031 
L 272.084456 194.76126 
L 264.036379 179.53346 
L 255.988302 192.107857 
L 247.940225 182.092614 
L 239.892148 173.168181 
L 231.844071 187.688291 
L 223.795995 171.853636 
L 215.747918 131.195877 
L 207.699841 160.824434 
L 199.651764 159.619396 
L 191.603687 159.665688 
L 183.55561 156.024269 
L 175.507533 156.14948 
L 167.459456 145.017747 
L 159.411379 140.412445 
L 151.363302 148.894451 
L 143.315225 132.749047 
L 135.267148 149.156675 
L 127.219071 126.744431 
L 119.170995 139.521238 
L 111.122918 124.561109 
L 103.074841 106.025707 
L 95.026764 122.862984 
L 86.978687 106.624573 
L 78.93061 107.643781 
L 70.882533 106.828184 
L 62.834456 108.294653 
L 54.786379 123.468712 
L 46.738302 126.997316 
L 38.690225 108.52852 
L 30.642148 89.593761 
L 22.594071 94.707592 
L 14.545995 90.762543 
L 6.497918 102.410553 
L -1.550159 101.027206 
L -9.598236 96.112409 
L -17.646313 102.080801 
L -25.69439 101.423006 
L -33.742467 91.671545 
L -41.790544 92.637583 
L -49.838621 88.745989 
L -57.886698 83.995364 
L -65.934775 105.422882 
L -73.982852 93.075545 
L -82.030929 76.219623 
L -90.079005 84.016984 
L -98.127082 90.964626 
L -106.175159 86.053605 
L -114.223236 82.23047 
L -122.271313 84.875628 
L -130.31939 92.222299 
L -138.367467 83.853173 
L -146.415544 80.654952 
L -154.463621 83.807048 
L -162.511698 78.491051 
L -170.559775 79.949709 
L -178.607852 69.437582 
L -186.655929 73.002447 
L -194.704005 60.219543 
L -202.752082 70.886332 
L -210.800159 65.597113 
L -218.848236 68.443064 
L -226.896313 64.81952 
L -234.94439 71.28118 
L -242.992467 59.815992 
L -251.040544 66.779231 
L -259.088621 59.512685 
L -267.136698 60.765356 
L -275.184775 55.059576 
L -283.232852 57.92329 
L -291.280929 65.894465 
L -299.329005 58.045614 
L -307.377082 59.895445 
L -315.425159 44.526425 
L -323.473236 51.584689 
L -331.521313 55.165469 
L -339.56939 43.344702 
L -347.617467 56.531092 
L -355.665544 57.567914 
L -363.713621 42.619738 
L -371.761698 42.906853 
L -379.809775 41.880474 
L -387.857852 36.518049 
L -395.905929 40.265771 
L -403.954005 38.94142 
L -412.002082 56.558165 
L -420.050159 44.445826 
L -428.098236 35.506743 
L -436.146313 35.766989 
L -444.19439 33.156531 
L -452.242467 27.75761 
L -460.290544 29.70285 
L -468.338621 26.061559 
L -476.386698 30.156485 
L -484.434775 24.84 
L -492.482852 34.880802 
L -500.530929 36.197063 
L -508.579005 33.836179 
L -516.627082 36.028778 
L -524.675159 32.127189 
L -532.723236 35.049987 
L -540.771313 36.710334 
L -548.81939 41.356145 
L -556.867467 37.463282 
L -564.915544 42.669333 
L -572.963621 41.507754 
L -581.011698 51.311387 
L -589.059775 44.519735 
L -597.107852 40.851655 
L -605.155929 44.987207 
L -613.204005 46.80652 
L -621.252082 46.851446 
L -629.300159 52.496638 
L -637.348236 47.424023 
L -645.396313 51.187391 
L -653.44439 49.225637 
L -661.492467 50.044122 
L -669.540544 48.275348 
L -677.588621 45.736256 
L -685.636698 50.251319 
L -693.684775 56.298034 
L -701.732852 49.913029 
L -709.780929 53.401852 
L -717.829005 51.725903 
L -725.877082 53.672905 
L -733.925159 58.321172 
L -741.973236 56.591956 
L -750.021313 60.33477 
L -758.06939 61.238645 
L -766.117467 56.771787 
L -774.165544 59.212339 
L -782.213621 61.94315 
L -790.261698 62.845776 
L -798.309775 62.596227 
L -806.357852 64.491215 
L -814.405929 64.030373 
L -822.454005 66.901747 
L -830.502082 67.59227 
L -838.550159 68.121178 
L -846.598236 68.644495 
L -854.646313 63.111994 
L -862.69439 68.889125 
L -870.742467 71.097593 
L -878.790544 70.254244 
L -886.838621 70.267541 
L -894.886698 70.121521 
L -902.934775 71.666592 
L -910.982852 70.900114 
L -919.030929 73.305323 
L -927.079005 74.006906 
L -935.127082 73.165848 
L -943.175159 73.895388 
L -951.223236 74.955612 
L -959.271313 76.055396 
L -967.31939 80.339099 
L -975.367467 81.150103 
L -983.415544 83.082649 
L -991.463621 81.69095 
L -999.511698 83.531936 
L -1007.559775 83.448779 
L -1015.607852 83.80636 
L -1023.655929 81.18917 
L -1031.704005 87.291407 
L -1039.752082 87.537853 
L -1047.800159 87.643978 
L -1055.848236 91.172177 
L -1063.896313 90.575624 
L -1071.94439 91.845823 
L -1079.992467 89.557591 
L -1088.040544 94.519839 
L -1096.088621 92.609261 
L -1104.136698 97.377635 
L -1112.184775 100.664745 
L -1120.232852 101.362492 
L -1128.280929 105.575875 
L -1136.329005 108.793222 
L -1144.377082 108.307272 
L -1152.425159 110.144878 
L -1160.473236 110.415243 
L -1168.521313 112.941584 
L -1176.56939 111.761936 
L -1184.617467 115.42808 
L -1192.665544 118.086834 
L -1200.713621 119.529983 
L -1208.761698 120.259307 
L -1216.809775 120.778577 
L -1224.857852 124.803341 
L -1232.905929 125.522509 
L -1240.954005 127.907681 
L -1249.002082 131.571017 
L -1257.050159 132.555585 
L -1265.098236 128.751824 
L -1273.146313 129.572574 
L -1281.19439 133.654486 
L -1289.242467 133.91598 
L -1297.290544 136.661068 
L -1305.338621 138.587107 
L -1313.386698 137.206252 
L -1321.434775 138.313083 
L -1329.482852 139.762518 
L -1337.530929 142.535273 
L -1345.579005 139.035006 
L -1353.627082 140.282805 
L -1361.675159 140.11152 
L -1369.723236 144.163514 
L -1377.771313 143.468595 
L -1385.81939 140.953432 
L -1393.867467 143.037774 
L -1401.915544 145.193783 
L -1409.963621 138.9505 
L -1418.011698 144.40069 
L -1426.059775 137.102744 
L -1434.107852 136.665584 
L -1442.155929 135.11645 
L -1450.204005 136.709592 
L -1458.252082 137.109139 
L -1466.300159 136.151118 
L -1474.348236 132.652713 
L -1482.396313 135.228049 
L -1490.44439 127.152961 
L -1498.492467 119.198137 
L -1506.540544 121.164534 
L -1514.588621 125.368155 
L -1522.636698 114.729673 
L -1530.684775 115.079432 
L -1538.732852 112.421213 
L -1546.780929 111.599346 
L -1554.829005 96.228143 
L -1562.877082 94.913731 
L -1570.925159 89.252469 
L -1578.973236 77.186365 
L -1587.021313 68.573781 
L -1595.06939 77.919567 
L -1603.117467 73.526815 
L -1611.165544 65.96532 
L -1619.213621 62.620457 
L -1627.261698 57.093841 
L -1635.309775 49.923165 
L -1643.357852 53.502898 
L -1651.405929 39.938547 
L -1659.454005 34.976806 
L -1667.502082 31.61231 
L -1675.550159 29.544178 
L -1683.598236 31.026247 
L -1691.646313 27.660475 
L -1699.69439 29.871155 
L -1707.742467 34.584813 
L -1715.790544 29.603542 
L -1723.838621 28.820041 
L -1731.886698 35.207325 
L -1739.934775 36.762658 
L -1747.982852 35.459499 
L -1756.030929 46.808092 
L -1764.079005 40.022157 
L -1772.127082 42.387883 
L -1780.175159 52.267413 
L -1788.223236 49.717564 
L -1796.271313 52.831318 
L -1804.31939 55.770992 
L -1812.367467 58.949419 
L -1820.415544 62.481159 
L -1828.463621 66.203415 
L -1836.511698 69.808625 
L -1844.559775 72.868888 
L -1852.607852 77.10686 
L -1860.655929 78.188706 
L -1868.704005 85.597211 
L -1876.752082 85.878473 
L -1884.800159 89.686166 
L -1892.848236 93.917511 
L -1900.896313 97.144965 
L -1908.94439 101.156654 
L -1916.992467 104.311391 
L -1925.040544 108.878517 
L -1933.088621 111.657005 
L -1941.136698 115.038868 
L -1949.184775 118.995761 
L -1957.232852 123.028549 
L -1965.280929 125.511033 
L -1973.329005 129.405325 
L -1981.377082 132.079847 
L -1989.425159 136.079861 
L -1997.473236 139.193055 
L -2005.521313 142.288731 
L -2013.56939 145.708999 
L -2021.617467 148.747938 
L -2029.665544 151.339598 
L -2037.713621 154.680621 
L -2045.761698 156.405682 
L -2053.809775 160.516218 
L -2061.857852 163.309413 
L -2069.905929 165.777022 
L -2077.954005 168.779511 
L -2086.002082 170.636348 
L -2094.050159 173.303742 
L -2102.098236 176.038453 
L -2110.146313 179.045061 
L -2118.19439 181.355265 
L -2126.242467 183.629507 
L -2134.290544 186.106009 
L -2142.338621 188.490147 
L -2150.386698 191.053998 
L -2158.434775 193.108119 
L -2166.482852 195.340434 
L -2174.530929 197.169773 
L -2182.579005 199.696601 
L -2190.627082 201.528111 
L -2198.675159 203.600887 
L -2206.723236 206.176347 
L -2214.771313 207.967137 
L -2222.81939 208.509652 
L -2230.867467 210.635715 
L -2238.915544 211.736785 
L -2246.963621 213.7887 
L -2255.011698 216.172281 
L -2263.059775 217.411723 
L -2271.107852 218.575608 
L -2279.155929 218.830366 
L -2287.204005 220.053782 
L -2295.252082 220.795123 
L -2303.300159 221.594151 
L -2311.348236 223.311945 
L -2319.396313 224.324731 
L -2327.44439 225.768048 
L -2335.492467 224.995147 
L -2343.540544 225.807653 
L -2351.588621 224.584733 
L -2359.636698 226.583142 
L -2367.684775 226.919449 
L -2375.732852 228.395603 
L -2383.780929 225.389544 
L -2391.829005 229.136829 
L -2399.877082 228.894612 
L -2407.925159 226.836448 
L -2415.973236 226.365587 
L -2424.021313 228.339995 
L -2432.06939 231.703026 
L -2440.117467 230.490421 
L -2448.165544 230.494455 
L -2456.213621 227.250768 
L -2464.261698 227.290649 
L -2472.309775 228.324608 
L -2480.357852 230.430394 
L -2488.405929 229.845245 
L -2496.454005 229.502461 
L -2504.502082 229.900123 
L -2512.550159 231.218412 
L -2520.598236 231.003397 
L -2528.646313 231.863338 
L -2536.69439 233.243718 
L -2544.742467 232.388457 
L -2552.790544 234.354412 
L -2560.838621 234.709608 
L -2568.886698 234.999352 
L -2576.934775 236.259138 
L -2584.982852 236.616871 
L -2593.030929 238.003307 
L -2601.079005 239.510448 
L -2609.127082 239.583181 
L -2617.175159 239.044511 
L -2625.223236 238.671204 
L -2633.271313 241.798186 
L -2641.31939 241.311247 
L -2649.367467 243.42597 
L -2657.415544 243.508818 
L -2665.463621 242.75996 
L -2673.511698 244.852027 
L -2681.559775 242.993253 
L -2689.607852 243.135418 
L -2697.655929 245.779698 
L -2705.704005 243.955188 
L -2713.752082 246.456221 
L -2721.800159 247.290064 
L -2729.848236 245.266855 
L -2737.896313 238.728099 
L -2745.94439 242.990137 
L -2753.992467 241.025116 
L -2762.040544 231.280916 
L -2770.088621 239.68563 
L -2778.136698 241.458186 
L -2786.184775 232.459066 
L -2794.232852 230.041888 
L -2802.280929 234.965481 
L -2810.329005 225.214675 
L -2818.377082 208.557976 
L -2826.425159 227.138918 
L -2834.473236 234.709405 
L -2842.521313 238.513238 
L -2850.56939 215.22066 
L -2858.617467 216.315236 
L -2866.665544 204.881661 
L -2874.713621 195.886603 
L -2882.761698 214.466831 
L -2890.809775 206.704479 
L -2898.857852 190.567636 
L -2906.905929 179.168875 
L -2914.954005 180.077659 
L -2923.002082 182.303996 
L -2931.050159 180.052621 
L -2939.098236 178.80914 
L -2947.146313 185.712742 
L -2955.19439 185.122813 
L -2963.242467 181.008521 
L -2971.290544 183.910291 
L -2979.338621 182.341868 
L -2987.386698 181.898746 
L -2995.434775 182.346607 
L -3003.482852 185.20465 
L -3011.530929 187.017365 
L -3019.579005 188.15354 
L -3027.627082 190.675188 
L -3035.675159 191.987702 
L -3043.723236 194.066615 
L -3051.771313 197.186593 
L -3059.81939 199.743613 
L -3067.867467 201.519176 
L -3075.915544 203.465409 
L -3083.963621 205.943995 
L -3092.011698 207.592232 
L -3100.059775 209.967322 
L -3108.107852 212.801728 
L -3116.155929 214.55824 
L -3124.204005 215.831433 
L -3132.252082 217.632189 
L -3140.300159 219.476795 
L -3148.348236 221.155625 
L -3156.396313 222.762224 
L -3164.44439 224.313972 
L -3172.492467 226.374533 
L -3180.540544 227.52161 
L -3188.588621 229.054585 
L -3196.636698 230.663873 
L -3204.684775 232.055036 
L -3212.732852 233.408559 
L -3220.780929 234.557336 
L -3228.829005 235.799396 
L -3236.877082 237.389065 
L -3244.925159 238.541532 
L -3252.973236 239.86279 
L -3261.021313 240.955048 
L -3269.06939 242.151319 
L -3277.117467 243.376746 
L -3285.165544 244.605567 
L -3293.213621 245.64607 
L -3301.261698 246.859856 
L -3309.309775 247.927499 
L -3317.357852 249.06755 
L -3325.405929 250.135949 
L -3333.454005 251.223464 
L -3341.502082 252.24984 
L -3349.550159 253.330745 
L -3357.598236 254.462004 
L -3365.646313 255.348031 
L -3373.69439 256.419121 
L -3381.742467 257.35941 
L -3389.790544 258.425307 
L -3397.838621 259.240051 
L -3405.886698 260.234183 
L -3413.934775 261.188536 
L -3421.982852 262.096786 
L -3430.030929 263.010448 
L -3438.079005 263.847919 
L -3446.127082 264.820292 
L -3454.175159 265.697835 
L -3462.223236 266.425451 
L -3470.271313 267.285454 
L -3478.31939 268.144829 
L -3486.367467 269.000842 
L -3494.415544 269.828598 
L -3502.463621 270.603222 
L -3510.511698 271.45407 
L -3518.559775 272.289963 
L -3526.607852 273.131185 
L -3534.655929 273.970893 
L -3542.704005 274.833745 
L -3550.752082 275.730605 
L -3558.800159 276.509831 
L -3566.848236 277.397791 
L -3574.896313 278.270963 
L -3582.94439 279.112222 
L -3590.992467 279.980149 
L -3599.040544 280.866218 
L -3607.088621 281.728506 
L -3615.136698 282.632414 
L -3623.184775 283.462211 
L -3631.232852 284.30898 
L -3639.280929 285.202464 
L -3647.329005 286.068526 
L -3655.377082 286.894365 
L -3663.425159 287.766789 
L -3671.473236 288.569461 
L -3679.521313 289.425235 
L -3687.56939 290.334648 
L -3695.617467 291.124886 
L -3703.665544 292.003762 
L -3711.713621 292.840478 
L -3719.761698 293.716365 
L -3727.809775 294.516456 
L -3735.857852 295.442166 
L -3743.905929 296.221278 
L -3751.954005 297.0879 
L -3760.002082 297.937889 
L -3768.050159 298.808232 
L -3776.098236 299.638984 
L -3784.146313 300.484107 
L -3792.19439 301.332363 
L -3800.242467 302.206711 
L -3808.290544 303.023313 
L -3816.338621 303.804969 
L -3824.386698 304.597853 
L -3832.434775 305.389651 
L -3840.482852 306.146351 
L -3848.530929 306.907156 
L -3856.579005 307.658081 
L -3864.627082 308.376579 
L -3872.675159 309.101046 
L -3880.723236 309.820275 
L -3888.771313 310.478712 
L -3896.81939 311.145464 
L -3904.867467 311.836516 
L -3912.915544 312.49229 
L -3920.963621 313.082955 
L -3929.011698 313.726102 
L -3937.059775 314.316353 
L -3945.107852 314.862229 
L -3953.155929 315.40621 
L -3961.204005 315.915936 
L -3969.252082 316.459852 
L -3977.300159 316.914935 
L -3985.348236 317.391419 
L -3993.396313 317.840443 
L -4001.44439 318.257603 
L -4009.492467 318.639361 
L -4017.540544 318.987919 
L -4025.588621 319.332923 
L -4033.636698 319.673804 
L -4041.684775 319.959887 
L -4049.732852 320.275028 
L -4057.780929 320.544947 
L -4065.829005 320.78011 
L -4073.877082 321.050631 
L -4081.925159 321.289452 
L -4089.973236 321.490249 
L -4098.021313 321.703438 
L -4106.06939 321.910621 
L -4114.117467 322.0946 
L -4122.165544 322.278619 
L -4130.213621 322.433549 
L -4138.261698 322.616504 
L -4146.309775 322.765231 
L -4154.357852 322.920275 
L -4162.405929 323.081755 
L -4170.454005 323.216124 
L -4178.502082 323.357179 
L -4186.550159 323.536543 
L -4194.598236 323.667274 
L -4202.646313 323.823822 
L -4210.69439 323.950322 
L -4218.742467 324.113283 
L -4226.790544 324.243783 
L -4234.838621 324.379663 
L -4242.886698 324.501183 
L -4250.934775 324.610971 
L -4258.982852 324.734149 
L -4267.030929 324.866534 
L -4275.079005 324.996226 
L -4283.127082 325.10846 
L -4291.175159 325.20199 
L -4299.223236 325.329558 
L -4307.271313 325.437106 
L -4315.31939 325.563855 
z
" clip-path="url(#pb6da26e3e5)" style="fill: #008000; fill-opacity: 0.3; stroke: #008000; stroke-opacity: 0.3"/>
   </g>
   <g id="matplotlib.axis_1">
    <g id="xtick_1">
     <g id="line2d_1">
      <defs>
       <path id="ma309dce7bc" d="M 0 0 
L 0 3.5 
" style="stroke: #000000; stroke-width: 0.8"/>
      </defs>
      <g>
       <use xlink:href="#ma309dce7bc" x="103.074841" y="395.28" style="stroke: #000000; stroke-width: 0.8"/>
      </g>
     </g>
     <g id="text_1">
      <!-- 2023-01-01 -->
      <g transform="translate(17.945813 495.213718) rotate(-45) scale(0.2 -0.2)">
       <defs>
        <path id="DejaVuSans-32" d="M 1228 531 
L 3431 531 
L 3431 0 
L 469 0 
L 469 531 
Q 828 903 1448 1529 
Q 2069 2156 2228 2338 
Q 2531 2678 2651 2914 
Q 2772 3150 2772 3378 
Q 2772 3750 2511 3984 
Q 2250 4219 1831 4219 
Q 1534 4219 1204 4116 
Q 875 4013 500 3803 
L 500 4441 
Q 881 4594 1212 4672 
Q 1544 4750 1819 4750 
Q 2544 4750 2975 4387 
Q 3406 4025 3406 3419 
Q 3406 3131 3298 2873 
Q 3191 2616 2906 2266 
Q 2828 2175 2409 1742 
Q 1991 1309 1228 531 
z
" transform="scale(0.015625)"/>
        <path id="DejaVuSans-30" d="M 2034 4250 
Q 1547 4250 1301 3770 
Q 1056 3291 1056 2328 
Q 1056 1369 1301 889 
Q 1547 409 2034 409 
Q 2525 409 2770 889 
Q 3016 1369 3016 2328 
Q 3016 3291 2770 3770 
Q 2525 4250 2034 4250 
z
M 2034 4750 
Q 2819 4750 3233 4129 
Q 3647 3509 3647 2328 
Q 3647 1150 3233 529 
Q 2819 -91 2034 -91 
Q 1250 -91 836 529 
Q 422 1150 422 2328 
Q 422 3509 836 4129 
Q 1250 4750 2034 4750 
z
" transform="scale(0.015625)"/>
        <path id="DejaVuSans-33" d="M 2597 2516 
Q 3050 2419 3304 2112 
Q 3559 1806 3559 1356 
Q 3559 666 3084 287 
Q 2609 -91 1734 -91 
Q 1441 -91 1130 -33 
Q 819 25 488 141 
L 488 750 
Q 750 597 1062 519 
Q 1375 441 1716 441 
Q 2309 441 2620 675 
Q 2931 909 2931 1356 
Q 2931 1769 2642 2001 
Q 2353 2234 1838 2234 
L 1294 2234 
L 1294 2753 
L 1863 2753 
Q 2328 2753 2575 2939 
Q 2822 3125 2822 3475 
Q 2822 3834 2567 4026 
Q 2313 4219 1838 4219 
Q 1578 4219 1281 4162 
Q 984 4106 628 3988 
L 628 4550 
Q 988 4650 1302 4700 
Q 1616 4750 1894 4750 
Q 2613 4750 3031 4423 
Q 3450 4097 3450 3541 
Q 3450 3153 3228 2886 
Q 3006 2619 2597 2516 
z
" transform="scale(0.015625)"/>
        <path id="DejaVuSans-2d" d="M 313 2009 
L 1997 2009 
L 1997 1497 
L 313 1497 
L 313 2009 
z
" transform="scale(0.015625)"/>
        <path id="DejaVuSans-31" d="M 794 531 
L 1825 531 
L 1825 4091 
L 703 3866 
L 703 4441 
L 1819 4666 
L 2450 4666 
L 2450 531 
L 3481 531 
L 3481 0 
L 794 0 
L 794 531 
z
" transform="scale(0.015625)"/>
       </defs>
       <use xlink:href="#DejaVuSans-32"/>
       <use xlink:href="#DejaVuSans-30" x="63.623047"/>
       <use xlink:href="#DejaVuSans-32" x="127.246094"/>
       <use xlink:href="#DejaVuSans-33" x="190.869141"/>
       <use xlink:href="#DejaVuSans-2d" x="254.492188"/>
       <use xlink:href="#DejaVuSans-30" x="290.576172"/>
       <use xlink:href="#DejaVuSans-31" x="354.199219"/>
       <use xlink:href="#DejaVuSans-2d" x="417.822266"/>
       <use xlink:href="#DejaVuSans-30" x="453.90625"/>
       <use xlink:href="#DejaVuSans-31" x="517.529297"/>
      </g>
     </g>
    </g>
    <g id="xtick_2">
     <g id="line2d_2">
      <g>
       <use xlink:href="#ma309dce7bc" x="215.747918" y="395.28" style="stroke: #000000; stroke-width: 0.8"/>
      </g>
     </g>
     <g id="text_2">
      <!-- 2023-01-15 -->
      <g transform="translate(130.61889 495.213718) rotate(-45) scale(0.2 -0.2)">
       <defs>
        <path id="DejaVuSans-35" d="M 691 4666 
L 3169 4666 
L 3169 4134 
L 1269 4134 
L 1269 2991 
Q 1406 3038 1543 3061 
Q 1681 3084 1819 3084 
Q 2600 3084 3056 2656 
Q 3513 2228 3513 1497 
Q 3513 744 3044 326 
Q 2575 -91 1722 -91 
Q 1428 -91 1123 -41 
Q 819 9 494 109 
L 494 744 
Q 775 591 1075 516 
Q 1375 441 1709 441 
Q 2250 441 2565 725 
Q 2881 1009 2881 1497 
Q 2881 1984 2565 2268 
Q 2250 2553 1709 2553 
Q 1456 2553 1204 2497 
Q 953 2441 691 2322 
L 691 4666 
z
" transform="scale(0.015625)"/>
       </defs>
       <use xlink:href="#DejaVuSans-32"/>
       <use xlink:href="#DejaVuSans-30" x="63.623047"/>
       <use xlink:href="#DejaVuSans-32" x="127.246094"/>
       <use xlink:href="#DejaVuSans-33" x="190.869141"/>
       <use xlink:href="#DejaVuSans-2d" x="254.492188"/>
       <use xlink:href="#DejaVuSans-30" x="290.576172"/>
       <use xlink:href="#DejaVuSans-31" x="354.199219"/>
       <use xlink:href="#DejaVuSans-2d" x="417.822266"/>
       <use xlink:href="#DejaVuSans-31" x="453.90625"/>
       <use xlink:href="#DejaVuSans-35" x="517.529297"/>
      </g>
     </g>
    </g>
    <g id="xtick_3">
     <g id="line2d_3">
      <g>
       <use xlink:href="#ma309dce7bc" x="328.420995" y="395.28" style="stroke: #000000; stroke-width: 0.8"/>
      </g>
     </g>
     <g id="text_3">
      <!-- 2023-01-29 -->
      <g transform="translate(243.291967 495.213718) rotate(-45) scale(0.2 -0.2)">
       <defs>
        <path id="DejaVuSans-39" d="M 703 97 
L 703 672 
Q 941 559 1184 500 
Q 1428 441 1663 441 
Q 2288 441 2617 861 
Q 2947 1281 2994 2138 
Q 2813 1869 2534 1725 
Q 2256 1581 1919 1581 
Q 1219 1581 811 2004 
Q 403 2428 403 3163 
Q 403 3881 828 4315 
Q 1253 4750 1959 4750 
Q 2769 4750 3195 4129 
Q 3622 3509 3622 2328 
Q 3622 1225 3098 567 
Q 2575 -91 1691 -91 
Q 1453 -91 1209 -44 
Q 966 3 703 97 
z
M 1959 2075 
Q 2384 2075 2632 2365 
Q 2881 2656 2881 3163 
Q 2881 3666 2632 3958 
Q 2384 4250 1959 4250 
Q 1534 4250 1286 3958 
Q 1038 3666 1038 3163 
Q 1038 2656 1286 2365 
Q 1534 2075 1959 2075 
z
" transform="scale(0.015625)"/>
       </defs>
       <use xlink:href="#DejaVuSans-32"/>
       <use xlink:href="#DejaVuSans-30" x="63.623047"/>
       <use xlink:href="#DejaVuSans-32" x="127.246094"/>
       <use xlink:href="#DejaVuSans-33" x="190.869141"/>
       <use xlink:href="#DejaVuSans-2d" x="254.492188"/>
       <use xlink:href="#DejaVuSans-30" x="290.576172"/>
       <use xlink:href="#DejaVuSans-31" x="354.199219"/>
       <use xlink:href="#DejaVuSans-2d" x="417.822266"/>
       <use xlink:href="#DejaVuSans-32" x="453.90625"/>
       <use xlink:href="#DejaVuSans-39" x="517.529297"/>
      </g>
     </g>
    </g>
    <g id="xtick_4">
     <g id="line2d_4">
      <g>
       <use xlink:href="#ma309dce7bc" x="441.094071" y="395.28" style="stroke: #000000; stroke-width: 0.8"/>
      </g>
     </g>
     <g id="text_4">
      <!-- 2023-02-12 -->
      <g transform="translate(355.965044 495.213718) rotate(-45) scale(0.2 -0.2)">
       <use xlink:href="#DejaVuSans-32"/>
       <use xlink:href="#DejaVuSans-30" x="63.623047"/>
       <use xlink:href="#DejaVuSans-32" x="127.246094"/>
       <use xlink:href="#DejaVuSans-33" x="190.869141"/>
       <use xlink:href="#DejaVuSans-2d" x="254.492188"/>
       <use xlink:href="#DejaVuSans-30" x="290.576172"/>
       <use xlink:href="#DejaVuSans-32" x="354.199219"/>
       <use xlink:href="#DejaVuSans-2d" x="417.822266"/>
       <use xlink:href="#DejaVuSans-31" x="453.90625"/>
       <use xlink:href="#DejaVuSans-32" x="517.529297"/>
      </g>
     </g>
    </g>
    <g id="xtick_5">
     <g id="line2d_5">
      <g>
       <use xlink:href="#ma309dce7bc" x="553.767148" y="395.28" style="stroke: #000000; stroke-width: 0.8"/>
      </g>
     </g>
     <g id="text_5">
      <!-- 2023-02-26 -->
      <g transform="translate(468.638121 495.213718) rotate(-45) scale(0.2 -0.2)">
       <defs>
        <path id="DejaVuSans-36" d="M 2113 2584 
Q 1688 2584 1439 2293 
Q 1191 2003 1191 1497 
Q 1191 994 1439 701 
Q 1688 409 2113 409 
Q 2538 409 2786 701 
Q 3034 994 3034 1497 
Q 3034 2003 2786 2293 
Q 2538 2584 2113 2584 
z
M 3366 4563 
L 3366 3988 
Q 3128 4100 2886 4159 
Q 2644 4219 2406 4219 
Q 1781 4219 1451 3797 
Q 1122 3375 1075 2522 
Q 1259 2794 1537 2939 
Q 1816 3084 2150 3084 
Q 2853 3084 3261 2657 
Q 3669 2231 3669 1497 
Q 3669 778 3244 343 
Q 2819 -91 2113 -91 
Q 1303 -91 875 529 
Q 447 1150 447 2328 
Q 447 3434 972 4092 
Q 1497 4750 2381 4750 
Q 2619 4750 2861 4703 
Q 3103 4656 3366 4563 
z
" transform="scale(0.015625)"/>
       </defs>
       <use xlink:href="#DejaVuSans-32"/>
       <use xlink:href="#DejaVuSans-30" x="63.623047"/>
       <use xlink:href="#DejaVuSans-32" x="127.246094"/>
       <use xlink:href="#DejaVuSans-33" x="190.869141"/>
       <use xlink:href="#DejaVuSans-2d" x="254.492188"/>
       <use xlink:href="#DejaVuSans-30" x="290.576172"/>
       <use xlink:href="#DejaVuSans-32" x="354.199219"/>
       <use xlink:href="#DejaVuSans-2d" x="417.822266"/>
       <use xlink:href="#DejaVuSans-32" x="453.90625"/>
       <use xlink:href="#DejaVuSans-36" x="517.529297"/>
      </g>
     </g>
    </g>
    <g id="xtick_6">
     <g id="line2d_6">
      <g>
       <use xlink:href="#ma309dce7bc" x="666.440225" y="395.28" style="stroke: #000000; stroke-width: 0.8"/>
      </g>
     </g>
     <g id="text_6">
      <!-- 2023-03-12 -->
      <g transform="translate(581.311198 495.213718) rotate(-45) scale(0.2 -0.2)">
       <use xlink:href="#DejaVuSans-32"/>
       <use xlink:href="#DejaVuSans-30" x="63.623047"/>
       <use xlink:href="#DejaVuSans-32" x="127.246094"/>
       <use xlink:href="#DejaVuSans-33" x="190.869141"/>
       <use xlink:href="#DejaVuSans-2d" x="254.492188"/>
       <use xlink:href="#DejaVuSans-30" x="290.576172"/>
       <use xlink:href="#DejaVuSans-33" x="354.199219"/>
       <use xlink:href="#DejaVuSans-2d" x="417.822266"/>
       <use xlink:href="#DejaVuSans-31" x="453.90625"/>
       <use xlink:href="#DejaVuSans-32" x="517.529297"/>
      </g>
     </g>
    </g>
    <g id="xtick_7">
     <g id="line2d_7">
      <g>
       <use xlink:href="#ma309dce7bc" x="779.113302" y="395.28" style="stroke: #000000; stroke-width: 0.8"/>
      </g>
     </g>
     <g id="text_7">
      <!-- 2023-03-26 -->
      <g transform="translate(693.984275 495.213718) rotate(-45) scale(0.2 -0.2)">
       <use xlink:href="#DejaVuSans-32"/>
       <use xlink:href="#DejaVuSans-30" x="63.623047"/>
       <use xlink:href="#DejaVuSans-32" x="127.246094"/>
       <use xlink:href="#DejaVuSans-33" x="190.869141"/>
       <use xlink:href="#DejaVuSans-2d" x="254.492188"/>
       <use xlink:href="#DejaVuSans-30" x="290.576172"/>
       <use xlink:href="#DejaVuSans-33" x="354.199219"/>
       <use xlink:href="#DejaVuSans-2d" x="417.822266"/>
       <use xlink:href="#DejaVuSans-32" x="453.90625"/>
       <use xlink:href="#DejaVuSans-36" x="517.529297"/>
      </g>
     </g>
    </g>
    <g id="xtick_8">
     <g id="line2d_8">
      <g>
       <use xlink:href="#ma309dce7bc" x="891.786379" y="395.28" style="stroke: #000000; stroke-width: 0.8"/>
      </g>
     </g>
     <g id="text_8">
      <!-- 2023-04-09 -->
      <g transform="translate(806.657352 495.213718) rotate(-45) scale(0.2 -0.2)">
       <defs>
        <path id="DejaVuSans-34" d="M 2419 4116 
L 825 1625 
L 2419 1625 
L 2419 4116 
z
M 2253 4666 
L 3047 4666 
L 3047 1625 
L 3713 1625 
L 3713 1100 
L 3047 1100 
L 3047 0 
L 2419 0 
L 2419 1100 
L 313 1100 
L 313 1709 
L 2253 4666 
z
" transform="scale(0.015625)"/>
       </defs>
       <use xlink:href="#DejaVuSans-32"/>
       <use xlink:href="#DejaVuSans-30" x="63.623047"/>
       <use xlink:href="#DejaVuSans-32" x="127.246094"/>
       <use xlink:href="#DejaVuSans-33" x="190.869141"/>
       <use xlink:href="#DejaVuSans-2d" x="254.492188"/>
       <use xlink:href="#DejaVuSans-30" x="290.576172"/>
       <use xlink:href="#DejaVuSans-34" x="354.199219"/>
       <use xlink:href="#DejaVuSans-2d" x="417.822266"/>
       <use xlink:href="#DejaVuSans-30" x="453.90625"/>
       <use xlink:href="#DejaVuSans-39" x="517.529297"/>
      </g>
     </g>
    </g>
    <g id="xtick_9">
     <g id="line2d_9">
      <g>
       <use xlink:href="#ma309dce7bc" x="940.074841" y="395.28" style="stroke: #000000; stroke-width: 0.8"/>
      </g>
     </g>
     <g id="text_9">
      <!-- 2023-04-15 -->
      <g transform="translate(854.945813 495.213718) rotate(-45) scale(0.2 -0.2)">
       <use xlink:href="#DejaVuSans-32"/>
       <use xlink:href="#DejaVuSans-30" x="63.623047"/>
       <use xlink:href="#DejaVuSans-32" x="127.246094"/>
       <use xlink:href="#DejaVuSans-33" x="190.869141"/>
       <use xlink:href="#DejaVuSans-2d" x="254.492188"/>
       <use xlink:href="#DejaVuSans-30" x="290.576172"/>
       <use xlink:href="#DejaVuSans-34" x="354.199219"/>
       <use xlink:href="#DejaVuSans-2d" x="417.822266"/>
       <use xlink:href="#DejaVuSans-31" x="453.90625"/>
       <use xlink:href="#DejaVuSans-35" x="517.529297"/>
      </g>
     </g>
    </g>
   </g>
   <g id="matplotlib.axis_2">
    <g id="ytick_1">
     <g id="line2d_10">
      <defs>
       <path id="m7f5e581b88" d="M 0 0 
L -3.5 0 
" style="stroke: #000000; stroke-width: 0.8"/>
      </defs>
      <g>
       <use xlink:href="#m7f5e581b88" x="103.074841" y="369.028429" style="stroke: #000000; stroke-width: 0.8"/>
      </g>
     </g>
     <g id="text_10">
      <!-- −0.025 -->
      <g transform="translate(22.059216 376.626866) scale(0.2 -0.2)">
       <defs>
        <path id="DejaVuSans-2212" d="M 678 2272 
L 4684 2272 
L 4684 1741 
L 678 1741 
L 678 2272 
z
" transform="scale(0.015625)"/>
        <path id="DejaVuSans-2e" d="M 684 794 
L 1344 794 
L 1344 0 
L 684 0 
L 684 794 
z
" transform="scale(0.015625)"/>
       </defs>
       <use xlink:href="#DejaVuSans-2212"/>
       <use xlink:href="#DejaVuSans-30" x="83.789062"/>
       <use xlink:href="#DejaVuSans-2e" x="147.412109"/>
       <use xlink:href="#DejaVuSans-30" x="179.199219"/>
       <use xlink:href="#DejaVuSans-32" x="242.822266"/>
       <use xlink:href="#DejaVuSans-35" x="306.445312"/>
      </g>
     </g>
    </g>
    <g id="ytick_2">
     <g id="line2d_11">
      <g>
       <use xlink:href="#m7f5e581b88" x="103.074841" y="325.682147" style="stroke: #000000; stroke-width: 0.8"/>
      </g>
     </g>
     <g id="text_11">
      <!-- 0.000 -->
      <g transform="translate(38.818591 333.280584) scale(0.2 -0.2)">
       <use xlink:href="#DejaVuSans-30"/>
       <use xlink:href="#DejaVuSans-2e" x="63.623047"/>
       <use xlink:href="#DejaVuSans-30" x="95.410156"/>
       <use xlink:href="#DejaVuSans-30" x="159.033203"/>
       <use xlink:href="#DejaVuSans-30" x="222.65625"/>
      </g>
     </g>
    </g>
    <g id="ytick_3">
     <g id="line2d_12">
      <g>
       <use xlink:href="#m7f5e581b88" x="103.074841" y="282.335865" style="stroke: #000000; stroke-width: 0.8"/>
      </g>
     </g>
     <g id="text_12">
      <!-- 0.025 -->
      <g transform="translate(38.818591 289.934302) scale(0.2 -0.2)">
       <use xlink:href="#DejaVuSans-30"/>
       <use xlink:href="#DejaVuSans-2e" x="63.623047"/>
       <use xlink:href="#DejaVuSans-30" x="95.410156"/>
       <use xlink:href="#DejaVuSans-32" x="159.033203"/>
       <use xlink:href="#DejaVuSans-35" x="222.65625"/>
      </g>
     </g>
    </g>
    <g id="ytick_4">
     <g id="line2d_13">
      <g>
       <use xlink:href="#m7f5e581b88" x="103.074841" y="238.989583" style="stroke: #000000; stroke-width: 0.8"/>
      </g>
     </g>
     <g id="text_13">
      <!-- 0.050 -->
      <g transform="translate(38.818591 246.58802) scale(0.2 -0.2)">
       <use xlink:href="#DejaVuSans-30"/>
       <use xlink:href="#DejaVuSans-2e" x="63.623047"/>
       <use xlink:href="#DejaVuSans-30" x="95.410156"/>
       <use xlink:href="#DejaVuSans-35" x="159.033203"/>
       <use xlink:href="#DejaVuSans-30" x="222.65625"/>
      </g>
     </g>
    </g>
    <g id="ytick_5">
     <g id="line2d_14">
      <g>
       <use xlink:href="#m7f5e581b88" x="103.074841" y="195.6433" style="stroke: #000000; stroke-width: 0.8"/>
      </g>
     </g>
     <g id="text_14">
      <!-- 0.075 -->
      <g transform="translate(38.818591 203.241738) scale(0.2 -0.2)">
       <defs>
        <path id="DejaVuSans-37" d="M 525 4666 
L 3525 4666 
L 3525 4397 
L 1831 0 
L 1172 0 
L 2766 4134 
L 525 4134 
L 525 4666 
z
" transform="scale(0.015625)"/>
       </defs>
       <use xlink:href="#DejaVuSans-30"/>
       <use xlink:href="#DejaVuSans-2e" x="63.623047"/>
       <use xlink:href="#DejaVuSans-30" x="95.410156"/>
       <use xlink:href="#DejaVuSans-37" x="159.033203"/>
       <use xlink:href="#DejaVuSans-35" x="222.65625"/>
      </g>
     </g>
    </g>
    <g id="ytick_6">
     <g id="line2d_15">
      <g>
       <use xlink:href="#m7f5e581b88" x="103.074841" y="152.297018" style="stroke: #000000; stroke-width: 0.8"/>
      </g>
     </g>
     <g id="text_15">
      <!-- 0.100 -->
      <g transform="translate(38.818591 159.895456) scale(0.2 -0.2)">
       <use xlink:href="#DejaVuSans-30"/>
       <use xlink:href="#DejaVuSans-2e" x="63.623047"/>
       <use xlink:href="#DejaVuSans-31" x="95.410156"/>
       <use xlink:href="#DejaVuSans-30" x="159.033203"/>
       <use xlink:href="#DejaVuSans-30" x="222.65625"/>
      </g>
     </g>
    </g>
    <g id="ytick_7">
     <g id="line2d_16">
      <g>
       <use xlink:href="#m7f5e581b88" x="103.074841" y="108.950736" style="stroke: #000000; stroke-width: 0.8"/>
      </g>
     </g>
     <g id="text_16">
      <!-- 0.125 -->
      <g transform="translate(38.818591 116.549174) scale(0.2 -0.2)">
       <use xlink:href="#DejaVuSans-30"/>
       <use xlink:href="#DejaVuSans-2e" x="63.623047"/>
       <use xlink:href="#DejaVuSans-31" x="95.410156"/>
       <use xlink:href="#DejaVuSans-32" x="159.033203"/>
       <use xlink:href="#DejaVuSans-35" x="222.65625"/>
      </g>
     </g>
    </g>
    <g id="ytick_8">
     <g id="line2d_17">
      <g>
       <use xlink:href="#m7f5e581b88" x="103.074841" y="65.604454" style="stroke: #000000; stroke-width: 0.8"/>
      </g>
     </g>
     <g id="text_17">
      <!-- 0.150 -->
      <g transform="translate(38.818591 73.202892) scale(0.2 -0.2)">
       <use xlink:href="#DejaVuSans-30"/>
       <use xlink:href="#DejaVuSans-2e" x="63.623047"/>
       <use xlink:href="#DejaVuSans-31" x="95.410156"/>
       <use xlink:href="#DejaVuSans-35" x="159.033203"/>
       <use xlink:href="#DejaVuSans-30" x="222.65625"/>
      </g>
     </g>
    </g>
    <g id="ytick_9">
     <g id="line2d_18">
      <g>
       <use xlink:href="#m7f5e581b88" x="103.074841" y="22.258172" style="stroke: #000000; stroke-width: 0.8"/>
      </g>
     </g>
     <g id="text_18">
      <!-- 0.175 -->
      <g transform="translate(38.818591 29.85661) scale(0.2 -0.2)">
       <use xlink:href="#DejaVuSans-30"/>
       <use xlink:href="#DejaVuSans-2e" x="63.623047"/>
       <use xlink:href="#DejaVuSans-31" x="95.410156"/>
       <use xlink:href="#DejaVuSans-37" x="159.033203"/>
       <use xlink:href="#DejaVuSans-35" x="222.65625"/>
      </g>
     </g>
    </g>
   </g>
   <g id="line2d_19">
    <path d="M 940.074841 325.682147 
" clip-path="url(#pb6da26e3e5)" style="fill: none; stroke: #ffa500; stroke-width: 1.5; stroke-linecap: square"/>
   </g>
   <g id="line2d_20">
    <path d="M 103.074841 325.682147 
L 948.274841 325.682147 
" clip-path="url(#pb6da26e3e5)" style="fill: none; stroke-dasharray: 7.4,3.2; stroke-dashoffset: 0; stroke: #000000; stroke-width: 2"/>
   </g>
   <g id="patch_3">
    <path d="M 103.074841 395.28 
L 103.074841 7.2 
" style="fill: none; stroke: #000000; stroke-width: 0.8; stroke-linejoin: miter; stroke-linecap: square"/>
   </g>
   <g id="patch_4">
    <path d="M 940.074841 395.28 
L 940.074841 7.2 
" style="fill: none; stroke: #000000; stroke-width: 0.8; stroke-linejoin: miter; stroke-linecap: square"/>
   </g>
   <g id="patch_5">
    <path d="M 103.074841 395.28 
L 940.074841 395.28 
" style="fill: none; stroke: #000000; stroke-width: 0.8; stroke-linejoin: miter; stroke-linecap: square"/>
   </g>
   <g id="patch_6">
    <path d="M 103.074841 7.2 
L 940.074841 7.2 
" style="fill: none; stroke: #000000; stroke-width: 0.8; stroke-linejoin: miter; stroke-linecap: square"/>
   </g>
  </g>
 </g>
 <defs>
  <clipPath id="pb6da26e3e5">
   <rect x="103.074841" y="7.2" width="837" height="388.08"/>
  </clipPath>
 </defs>
</svg>
