<?xml version="1.0" encoding="utf-8" standalone="no"?>
<!DOCTYPE svg PUBLIC "-//W3C//DTD SVG 1.1//EN"
  "http://www.w3.org/Graphics/SVG/1.1/DTD/svg11.dtd">
<svg xmlns:xlink="http://www.w3.org/1999/xlink" width="947.274841pt" height="505.354841pt" viewBox="0 0 947.274841 505.354841" xmlns="http://www.w3.org/2000/svg" version="1.1">
 <metadata>
  <rdf:RDF xmlns:dc="http://purl.org/dc/elements/1.1/" xmlns:cc="http://creativecommons.org/ns#" xmlns:rdf="http://www.w3.org/1999/02/22-rdf-syntax-ns#">
   <cc:Work>
    <dc:type rdf:resource="http://purl.org/dc/dcmitype/StillImage"/>
    <dc:date>2023-11-12T23:20:38.324109</dc:date>
    <dc:format>image/svg+xml</dc:format>
    <dc:creator>
     <cc:Agent>
      <dc:title>Matplotlib v3.7.2, https://matplotlib.org/</dc:title>
     </cc:Agent>
    </dc:creator>
   </cc:Work>
  </rdf:RDF>
 </metadata>
 <defs>
  <style type="text/css">*{stroke-linejoin: round; stroke-linecap: butt}</style>
 </defs>
 <g id="figure_1">
  <g id="patch_1">
   <path d="M 0 505.354841 
L 947.274841 505.354841 
L 947.274841 -0 
L 0 -0 
z
" style="fill: #ffffff"/>
  </g>
  <g id="axes_1">
   <g id="patch_2">
    <path d="M 103.074841 395.28 
L 940.074841 395.28 
L 940.074841 7.2 
L 103.074841 7.2 
z
" style="fill: #ffffff"/>
   </g>
   <g id="PolyCollection_1">
    <path d="M -393.000769 324.01117 
L -393.000769 324.019361 
L -390.959306 323.952387 
L -388.917842 323.910904 
L -386.876379 323.859852 
L -384.834915 323.832634 
L -382.793452 323.795873 
L -380.751989 323.750539 
L -378.710525 323.706796 
L -376.669062 323.668114 
L -374.627598 323.638224 
L -372.586135 323.599503 
L -370.544672 323.55793 
L -368.503208 323.518866 
L -366.461745 323.464337 
L -364.420281 323.42538 
L -362.378818 323.374194 
L -360.337354 323.336007 
L -358.295891 323.272902 
L -356.254428 323.228131 
L -354.212964 323.187147 
L -352.171501 323.132737 
L -350.130037 323.081606 
L -348.088574 323.033515 
L -346.047111 322.96846 
L -344.005647 322.918103 
L -341.964184 322.853358 
L -339.92272 322.789001 
L -337.881257 322.714931 
L -335.839793 322.639742 
L -333.79833 322.569646 
L -331.756867 322.482872 
L -329.715403 322.380434 
L -327.67394 322.299153 
L -325.632476 322.201733 
L -323.591013 322.084973 
L -321.54955 321.984992 
L -319.508086 321.859333 
L -317.466623 321.734987 
L -315.425159 321.608912 
L -313.383696 321.475876 
L -311.342232 321.323741 
L -309.300769 321.160849 
L -307.259306 320.987754 
L -305.217842 320.83035 
L -303.176379 320.631614 
L -301.134915 320.454101 
L -299.093452 320.262578 
L -297.051989 320.075203 
L -295.010525 319.868539 
L -292.969062 319.638524 
L -290.927598 319.441344 
L -288.886135 319.209301 
L -286.844672 318.96828 
L -284.803208 318.739569 
L -282.761745 318.518789 
L -280.720281 318.268756 
L -278.678818 318.017865 
L -276.637354 317.771248 
L -274.595891 317.510229 
L -272.554428 317.247131 
L -270.512964 316.988486 
L -268.471501 316.71768 
L -266.430037 316.448685 
L -264.388574 316.189323 
L -262.347111 315.913512 
L -260.305647 315.606726 
L -258.264184 315.317594 
L -256.22272 315.030943 
L -254.181257 314.752785 
L -252.139793 314.455166 
L -250.09833 314.169155 
L -248.056867 313.874187 
L -246.015403 313.627234 
L -243.97394 313.298727 
L -241.932476 313.039531 
L -239.891013 312.734788 
L -237.84955 312.452265 
L -235.808086 312.14432 
L -233.766623 311.88455 
L -231.725159 311.557985 
L -229.683696 311.260084 
L -227.642232 310.996579 
L -225.600769 310.696232 
L -223.559306 310.419983 
L -221.517842 310.12141 
L -219.476379 309.818551 
L -217.434915 309.539048 
L -215.393452 309.267793 
L -213.351989 308.961145 
L -211.310525 308.671939 
L -209.269062 308.380465 
L -207.227598 308.097862 
L -205.186135 307.824318 
L -203.144672 307.537342 
L -201.103208 307.244573 
L -199.061745 307.00734 
L -197.020281 306.713584 
L -194.978818 306.438046 
L -192.937354 306.168221 
L -190.895891 305.896091 
L -188.854428 305.62335 
L -186.812964 305.343289 
L -184.771501 305.082655 
L -182.730037 304.803522 
L -180.688574 304.512336 
L -178.647111 304.215324 
L -176.605647 303.912916 
L -174.564184 303.640246 
L -172.52272 303.323957 
L -170.481257 302.976467 
L -168.439793 302.661231 
L -166.39833 302.321133 
L -164.356867 301.974828 
L -162.315403 301.601633 
L -160.27394 301.220733 
L -158.232476 300.881191 
L -156.191013 300.471827 
L -154.14955 300.094074 
L -152.108086 299.676507 
L -150.066623 299.310527 
L -148.025159 298.850607 
L -145.983696 298.406125 
L -143.942232 297.982231 
L -141.900769 297.550477 
L -139.859306 297.102286 
L -137.817842 296.627955 
L -135.776379 296.199115 
L -133.734915 295.681398 
L -131.693452 295.254242 
L -129.651989 294.721747 
L -127.610525 294.21563 
L -125.569062 293.729929 
L -123.527598 293.276435 
L -121.486135 292.71377 
L -119.444672 292.231273 
L -117.403208 291.559553 
L -115.361745 291.018826 
L -113.320281 290.536056 
L -111.278818 289.964866 
L -109.237354 289.378274 
L -107.195891 288.670697 
L -105.154428 288.030927 
L -103.112964 287.54915 
L -101.071501 286.63618 
L -99.030037 285.967554 
L -96.988574 285.288117 
L -94.947111 284.582649 
L -92.905647 283.74834 
L -90.864184 282.995373 
L -88.82272 282.519975 
L -86.781257 281.832255 
L -84.739793 280.490679 
L -82.69833 279.436738 
L -80.656867 278.772922 
L -78.615403 277.715384 
L -76.57394 276.922539 
L -74.532476 276.299231 
L -72.491013 275.140922 
L -70.44955 273.774844 
L -68.408086 272.99688 
L -66.366623 272.676421 
L -64.325159 271.636049 
L -62.283696 271.442964 
L -60.242232 270.840801 
L -58.200769 269.681422 
L -56.159306 269.891157 
L -54.117842 270.674055 
L -52.076379 272.139477 
L -50.034915 270.929099 
L -47.993452 273.927543 
L -45.951989 274.819516 
L -43.910525 271.141219 
L -41.869062 272.378138 
L -39.827598 274.223245 
L -37.786135 273.330622 
L -35.744672 273.227454 
L -33.703208 280.585645 
L -31.661745 290.985356 
L -29.620281 296.193527 
L -27.578818 284.958599 
L -25.537354 290.825547 
L -23.495891 298.327719 
L -21.454428 297.866712 
L -19.412964 313.164222 
L -17.371501 310.85453 
L -15.330037 306.081119 
L -13.288574 294.173202 
L -11.247111 305.082866 
L -9.205647 311.488078 
L -7.164184 308.367165 
L -5.12272 309.985546 
L -3.081257 315.84338 
L -1.039793 314.703739 
L 1.00167 309.261819 
L 3.043133 315.561242 
L 5.084597 316.803476 
L 7.12606 314.00188 
L 9.167524 318.181513 
L 11.208987 319.418503 
L 13.25045 318.790751 
L 15.291914 317.073872 
L 17.333377 318.149197 
L 19.374841 316.321186 
L 21.416304 316.108295 
L 23.457768 317.182958 
L 25.499231 315.690144 
L 27.540694 316.031669 
L 29.582158 315.826729 
L 31.623621 314.298843 
L 33.665085 314.452362 
L 35.706548 312.259522 
L 37.748011 312.333341 
L 39.789475 312.508907 
L 41.830938 312.281289 
L 43.872402 311.118363 
L 45.913865 310.030329 
L 47.955328 309.607571 
L 49.996792 308.595117 
L 52.038255 308.208411 
L 54.079719 307.775105 
L 56.121182 306.29221 
L 58.162646 306.638897 
L 60.204109 305.529546 
L 62.245572 304.756794 
L 64.287036 304.67875 
L 66.328499 303.599879 
L 68.369963 303.116073 
L 70.411426 303.110614 
L 72.452889 303.25975 
L 74.494353 301.654871 
L 76.535816 300.748843 
L 78.57728 300.485742 
L 80.618743 302.357106 
L 82.660207 302.109175 
L 84.70167 302.649755 
L 86.743133 300.206935 
L 88.784597 298.666113 
L 90.82606 298.716639 
L 92.867524 299.798429 
L 94.908987 299.692731 
L 96.95045 296.98185 
L 98.991914 298.674793 
L 101.033377 297.442594 
L 103.074841 296.95204 
L 105.116304 295.37465 
L 107.157768 295.899182 
L 109.199231 295.09227 
L 111.240694 295.316268 
L 113.282158 294.088362 
L 115.323621 293.139617 
L 117.365085 291.731844 
L 119.406548 290.990915 
L 121.448011 290.295966 
L 123.489475 289.292092 
L 125.530938 289.020392 
L 127.572402 288.077489 
L 129.613865 287.112576 
L 131.655328 285.242021 
L 133.696792 283.615908 
L 135.738255 282.725768 
L 137.779719 281.011033 
L 139.821182 280.625794 
L 141.862646 279.275735 
L 143.904109 277.229125 
L 145.945572 275.539705 
L 147.987036 274.185369 
L 150.028499 272.039628 
L 152.069963 270.787558 
L 154.111426 268.912315 
L 156.152889 267.262473 
L 158.194353 265.302379 
L 160.235816 263.279519 
L 162.27728 261.458155 
L 164.318743 259.484266 
L 166.360207 257.723983 
L 168.40167 255.371086 
L 170.443133 253.208158 
L 172.484597 250.982205 
L 174.52606 249.261281 
L 176.567524 246.964563 
L 178.608987 244.895919 
L 180.65045 242.638532 
L 182.691914 239.614447 
L 184.733377 237.953968 
L 186.774841 235.348643 
L 188.816304 233.141979 
L 190.857768 230.750356 
L 192.899231 228.077315 
L 194.940694 225.540456 
L 196.982158 223.073142 
L 199.023621 220.011487 
L 201.065085 217.79625 
L 203.106548 214.800377 
L 205.148011 212.701754 
L 207.189475 209.596423 
L 209.230938 206.55 
L 211.272402 203.884212 
L 213.313865 201.61756 
L 215.355328 198.183648 
L 217.396792 195.662839 
L 219.438255 192.587233 
L 221.479719 190.011667 
L 223.521182 186.783013 
L 225.562646 183.85897 
L 227.604109 183.273771 
L 229.645572 177.957906 
L 231.687036 176.844546 
L 233.728499 173.632653 
L 235.769963 171.201219 
L 237.811426 168.406719 
L 239.852889 165.531489 
L 241.894353 162.782409 
L 243.935816 160.270561 
L 245.97728 157.915199 
L 248.018743 155.446241 
L 250.060207 156.745151 
L 252.10167 150.152359 
L 254.143133 148.563299 
L 256.184597 152.73737 
L 258.22606 145.424375 
L 260.267524 146.135524 
L 262.308987 145.06895 
L 264.35045 140.905786 
L 266.391914 141.348223 
L 268.433377 144.28261 
L 270.474841 141.245281 
L 272.516304 139.835445 
L 274.557768 141.860336 
L 276.599231 140.864227 
L 278.640694 142.030486 
L 280.682158 144.036218 
L 282.723621 146.777748 
L 284.765085 155.026873 
L 286.806548 152.585967 
L 288.848011 156.720174 
L 290.889475 159.852418 
L 292.930938 161.597917 
L 294.972402 165.812208 
L 297.013865 168.110826 
L 299.055328 162.247432 
L 301.096792 166.945716 
L 303.138255 173.826415 
L 305.179719 177.913861 
L 307.221182 180.053625 
L 309.262646 193.025955 
L 311.304109 194.037791 
L 313.345572 197.544407 
L 315.387036 196.547663 
L 317.428499 207.472759 
L 319.469963 204.010858 
L 321.511426 202.016331 
L 323.552889 211.328516 
L 325.594353 217.9218 
L 327.635816 217.265534 
L 329.67728 221.141764 
L 331.718743 222.335075 
L 333.760207 222.469746 
L 335.80167 222.35428 
L 337.843133 224.427582 
L 339.884597 225.539642 
L 341.92606 232.223859 
L 343.967524 228.577986 
L 346.008987 234.360116 
L 348.05045 232.849493 
L 350.091914 231.865981 
L 352.133377 234.077895 
L 354.174841 236.022884 
L 356.216304 233.097739 
L 358.257768 234.21254 
L 360.299231 234.064561 
L 362.340694 237.041486 
L 364.382158 235.1728 
L 366.423621 234.144127 
L 368.465085 234.769393 
L 370.506548 236.00376 
L 372.548011 234.896196 
L 374.589475 232.987631 
L 376.630938 233.469892 
L 378.672402 230.713902 
L 380.713865 230.535141 
L 382.755328 233.9466 
L 384.796792 233.24054 
L 386.838255 230.551134 
L 388.879719 229.489502 
L 390.921182 229.199007 
L 392.962646 226.279426 
L 395.004109 226.270933 
L 397.045572 225.663054 
L 399.087036 224.550642 
L 401.128499 223.287046 
L 403.169963 221.191766 
L 405.211426 221.413942 
L 407.252889 219.784458 
L 409.294353 218.917602 
L 411.335816 217.740688 
L 413.37728 217.156941 
L 415.418743 215.394206 
L 417.460207 212.72765 
L 419.50167 212.01414 
L 421.543133 209.747663 
L 423.584597 206.767085 
L 425.62606 207.942882 
L 427.667524 204.12552 
L 429.708987 204.94755 
L 431.75045 203.80646 
L 433.791914 203.533385 
L 435.833377 200.953338 
L 437.874841 200.338557 
L 439.916304 199.587909 
L 441.957768 196.553791 
L 443.999231 196.799821 
L 446.040694 196.184592 
L 448.082158 195.708726 
L 450.123621 194.118696 
L 452.165085 194.368579 
L 454.206548 192.770272 
L 456.248011 191.258028 
L 458.289475 189.049977 
L 460.330938 188.165473 
L 462.372402 187.502565 
L 464.413865 185.917551 
L 466.455328 185.887892 
L 468.496792 185.01108 
L 470.538255 183.606108 
L 472.579719 183.452047 
L 474.621182 181.907212 
L 476.662646 182.854515 
L 478.704109 181.736725 
L 480.745572 181.616573 
L 482.787036 179.770119 
L 484.828499 177.314962 
L 486.869963 179.126177 
L 488.911426 178.922279 
L 490.952889 178.038909 
L 492.994353 177.134952 
L 495.035816 175.411985 
L 497.07728 174.937316 
L 499.118743 173.950516 
L 501.160207 173.984097 
L 503.20167 173.556668 
L 505.243133 171.936702 
L 507.284597 169.680505 
L 509.32606 172.413528 
L 511.367524 171.656657 
L 513.408987 169.728551 
L 515.45045 170.813744 
L 517.491914 167.434298 
L 519.533377 167.75344 
L 521.574841 167.878096 
L 523.616304 165.554744 
L 525.657768 169.263106 
L 527.699231 165.346558 
L 529.740694 163.303692 
L 531.782158 165.683087 
L 533.823621 166.236435 
L 535.865085 164.893803 
L 537.906548 165.729647 
L 539.948011 163.83415 
L 541.989475 167.087088 
L 544.030938 165.187125 
L 546.072402 165.713811 
L 548.113865 163.203225 
L 550.155328 160.924925 
L 552.196792 163.377946 
L 554.238255 167.932466 
L 556.279719 162.295312 
L 558.321182 162.378865 
L 560.362646 160.128919 
L 562.404109 160.867449 
L 564.445572 160.374665 
L 566.487036 158.899815 
L 568.528499 158.21807 
L 570.569963 160.332658 
L 572.611426 158.93444 
L 574.652889 160.868704 
L 576.694353 161.089053 
L 578.735816 154.757214 
L 580.77728 157.158116 
L 582.818743 157.242256 
L 584.860207 157.563112 
L 586.90167 157.847355 
L 588.943133 161.717828 
L 590.984597 163.2249 
L 593.02606 162.990342 
L 595.067524 167.298828 
L 597.108987 174.473588 
L 599.15045 165.856364 
L 601.191914 165.743926 
L 603.233377 165.921066 
L 605.274841 168.779958 
L 607.316304 169.440586 
L 609.357768 169.432709 
L 611.399231 175.648338 
L 613.440694 177.944203 
L 615.482158 170.884836 
L 617.523621 177.273488 
L 619.565085 174.114313 
L 621.606548 172.14034 
L 623.648011 179.888089 
L 625.689475 178.312101 
L 627.730938 183.296432 
L 629.772402 181.726151 
L 631.813865 178.284369 
L 633.855328 181.367886 
L 635.896792 181.304707 
L 637.938255 184.322609 
L 639.979719 182.306758 
L 642.021182 187.32496 
L 644.062646 183.575498 
L 646.104109 186.174408 
L 648.145572 185.529934 
L 650.187036 188.393126 
L 652.228499 183.51471 
L 654.269963 188.528777 
L 656.311426 188.137654 
L 658.352889 191.529182 
L 660.394353 193.266543 
L 662.435816 193.170798 
L 664.47728 192.166954 
L 666.518743 194.309745 
L 668.560207 195.878276 
L 670.60167 194.267149 
L 672.643133 193.595075 
L 674.684597 195.458047 
L 676.72606 197.140054 
L 678.767524 193.919697 
L 680.808987 192.019056 
L 682.85045 199.030376 
L 684.891914 202.162853 
L 686.933377 194.775537 
L 688.974841 196.820245 
L 691.016304 197.795153 
L 693.057768 198.217114 
L 695.099231 201.775451 
L 697.140694 201.215293 
L 699.182158 199.642643 
L 701.223621 201.15613 
L 703.265085 201.504835 
L 705.306548 197.508223 
L 707.348011 199.430571 
L 709.389475 198.158726 
L 711.430938 203.545453 
L 713.472402 210.186666 
L 715.513865 209.18 
L 717.555328 203.835069 
L 719.596792 203.236525 
L 721.638255 203.942147 
L 723.679719 204.177732 
L 725.721182 209.131766 
L 727.762646 202.800645 
L 729.804109 209.442384 
L 731.845572 214.782015 
L 733.887036 210.32125 
L 735.928499 217.191724 
L 737.969963 212.89662 
L 740.011426 216.649625 
L 742.052889 214.182501 
L 744.094353 216.044348 
L 746.135816 219.737322 
L 748.17728 219.500923 
L 750.218743 220.649359 
L 752.260207 220.964492 
L 754.30167 221.365026 
L 756.343133 212.394321 
L 758.384597 223.991249 
L 760.42606 228.774456 
L 762.467524 224.179849 
L 764.508987 228.408157 
L 766.55045 229.335165 
L 768.591914 226.941376 
L 770.633377 231.7145 
L 772.674841 234.914714 
L 774.716304 233.06323 
L 776.757768 234.328823 
L 778.799231 235.054592 
L 780.840694 236.222626 
L 782.882158 239.854408 
L 784.923621 232.526692 
L 786.965085 241.70676 
L 789.006548 241.944104 
L 791.048011 242.364047 
L 793.089475 236.713421 
L 795.130938 243.661961 
L 797.172402 248.269487 
L 799.213865 243.573271 
L 801.255328 244.082456 
L 803.296792 250.490406 
L 805.338255 239.237907 
L 807.379719 249.686743 
L 809.421182 243.087547 
L 811.462646 252.202181 
L 813.504109 247.81601 
L 815.545572 251.722915 
L 817.587036 252.890189 
L 819.628499 254.544854 
L 821.669963 254.988069 
L 823.711426 252.447648 
L 825.752889 252.439434 
L 827.794353 253.588918 
L 829.835816 257.693147 
L 831.87728 257.077273 
L 833.918743 256.850571 
L 835.960207 259.3148 
L 838.00167 259.397421 
L 840.043133 257.256793 
L 842.084597 257.523933 
L 844.12606 261.32324 
L 846.167524 261.807486 
L 848.208987 262.680082 
L 850.25045 259.471935 
L 852.291914 254.741263 
L 854.333377 259.820386 
L 856.374841 258.16969 
L 858.416304 259.481982 
L 860.457768 261.62315 
L 862.499231 258.70637 
L 864.540694 262.266809 
L 866.582158 259.553835 
L 868.623621 259.07343 
L 870.665085 258.780382 
L 872.706548 261.875448 
L 874.748011 260.924912 
L 876.789475 260.496863 
L 878.830938 258.018044 
L 880.872402 259.122682 
L 882.913865 259.515636 
L 884.955328 258.708945 
L 886.996792 260.671797 
L 889.038255 260.027022 
L 891.079719 261.077179 
L 893.121182 262.259415 
L 895.162646 261.989505 
L 897.204109 260.53058 
L 899.245572 260.727813 
L 901.287036 259.768463 
L 903.328499 260.641991 
L 905.369963 260.704184 
L 907.411426 259.064483 
L 909.452889 260.594603 
L 911.494353 253.157816 
L 913.535816 260.29384 
L 915.57728 262.860979 
L 917.618743 259.776941 
L 919.660207 259.627936 
L 921.70167 262.199722 
L 923.743133 262.151849 
L 925.784597 259.441312 
L 927.82606 259.127167 
L 929.867524 260.716849 
L 931.908987 259.997009 
L 933.95045 263.157498 
L 935.991914 261.918612 
L 938.033377 264.384627 
L 940.074841 261.401706 
L 940.074841 204.061948 
L 940.074841 204.061948 
L 938.033377 201.18804 
L 935.991914 197.594841 
L 933.95045 201.510496 
L 931.908987 194.14059 
L 929.867524 196.214339 
L 927.82606 195.203436 
L 925.784597 187.535388 
L 923.743133 197.528102 
L 921.70167 202.908645 
L 919.660207 188.322676 
L 917.618743 194.730579 
L 915.57728 200.895275 
L 913.535816 196.975512 
L 911.494353 149.034796 
L 909.452889 195.67681 
L 907.411426 187.073206 
L 905.369963 196.569752 
L 903.328499 196.063755 
L 901.287036 192.683583 
L 899.245572 193.292462 
L 897.204109 192.630703 
L 895.162646 198.336417 
L 893.121182 198.866728 
L 891.079719 192.244502 
L 889.038255 188.015855 
L 886.996792 192.394077 
L 884.955328 186.176991 
L 882.913865 189.291018 
L 880.872402 185.880198 
L 878.830938 181.421724 
L 876.789475 188.891134 
L 874.748011 190.20326 
L 872.706548 190.784055 
L 870.665085 183.335341 
L 868.623621 182.171756 
L 866.582158 182.411745 
L 864.540694 192.290668 
L 862.499231 180.032966 
L 860.457768 189.301665 
L 858.416304 182.422912 
L 856.374841 177.393861 
L 854.333377 182.66359 
L 852.291914 162.829326 
L 850.25045 181.661224 
L 848.208987 189.82682 
L 846.167524 186.73954 
L 844.12606 185.609272 
L 842.084597 169.927459 
L 840.043133 171.019608 
L 838.00167 177.484389 
L 835.960207 177.747073 
L 833.918743 169.394286 
L 831.87728 170.565446 
L 829.835816 170.449791 
L 827.794353 162.306069 
L 825.752889 155.38787 
L 823.711426 154.389848 
L 821.669963 161.762145 
L 819.628499 160.498641 
L 817.587036 157.259361 
L 815.545572 153.905526 
L 813.504109 141.487352 
L 811.462646 155.190797 
L 809.421182 122.119666 
L 807.379719 145.491725 
L 805.338255 114.020449 
L 803.296792 149.297561 
L 801.255328 130.686157 
L 799.213865 130.867014 
L 797.172402 141.267777 
L 795.130938 130.119529 
L 793.089475 109.348889 
L 791.048011 125.343216 
L 789.006548 125.484 
L 786.965085 125.307081 
L 784.923621 100.994903 
L 782.882158 113.689626 
L 780.840694 111.154888 
L 778.799231 109.840211 
L 776.757768 107.519898 
L 774.716304 102.745076 
L 772.674841 108.205484 
L 770.633377 99.4791 
L 768.591914 88.469514 
L 766.55045 98.249303 
L 764.508987 91.14474 
L 762.467524 84.824693 
L 760.42606 96.01071 
L 758.384597 84.532041 
L 756.343133 54.541074 
L 754.30167 77.000021 
L 752.260207 76.435811 
L 750.218743 76.789412 
L 748.17728 74.388798 
L 746.135816 74.806808 
L 744.094353 66.851246 
L 742.052889 63.740912 
L 740.011426 70.403744 
L 737.969963 58.710457 
L 735.928499 71.271798 
L 733.887036 54.937099 
L 731.845572 64.805466 
L 729.804109 54.044853 
L 727.762646 40.64632 
L 725.721182 53.56928 
L 723.679719 41.885865 
L 721.638255 43.051035 
L 719.596792 42.869988 
L 717.555328 44.390126 
L 715.513865 56.1019 
L 713.472402 59.174755 
L 711.430938 45.940384 
L 709.389475 32.378705 
L 707.348011 36.676164 
L 705.306548 34.276534 
L 703.265085 43.448962 
L 701.223621 42.979414 
L 699.182158 39.902483 
L 697.140694 44.902399 
L 695.099231 45.007851 
L 693.057768 38.411027 
L 691.016304 39.755071 
L 688.974841 37.51226 
L 686.933377 34.643196 
L 684.891914 51.115735 
L 682.85045 42.645535 
L 680.808987 30.87903 
L 678.767524 37.304175 
L 676.72606 43.112383 
L 674.684597 40.186855 
L 672.643133 38.070046 
L 670.60167 40.716412 
L 668.560207 46.831539 
L 666.518743 41.382839 
L 664.47728 39.740931 
L 662.435816 42.765074 
L 660.394353 39.571478 
L 658.352889 41.354522 
L 656.311426 34.356901 
L 654.269963 37.683917 
L 652.228499 29.029624 
L 650.187036 37.550687 
L 648.145572 34.388737 
L 646.104109 37.177937 
L 644.062646 35.224354 
L 642.021182 40.633201 
L 639.979719 32.928283 
L 637.938255 38.674446 
L 635.896792 34.019248 
L 633.855328 35.571872 
L 631.813865 32.030653 
L 629.772402 34.714555 
L 627.730938 41.1014 
L 625.689475 35.945401 
L 623.648011 37.840279 
L 621.606548 27.191543 
L 619.565085 32.852173 
L 617.523621 35.970107 
L 615.482158 27.885247 
L 613.440694 37.977188 
L 611.399231 39.235914 
L 609.357768 28.892957 
L 607.316304 29.616893 
L 605.274841 29.398458 
L 603.233377 26.049028 
L 601.191914 29.326192 
L 599.15045 28.94754 
L 597.108987 42.319168 
L 595.067524 34.167874 
L 593.02606 28.342334 
L 590.984597 29.203773 
L 588.943133 28.01637 
L 586.90167 24.84 
L 584.860207 27.001151 
L 582.818743 25.15233 
L 580.77728 28.926448 
L 578.735816 25.926799 
L 576.694353 34.031681 
L 574.652889 35.860499 
L 572.611426 35.055355 
L 570.569963 37.538969 
L 568.528499 35.657816 
L 566.487036 38.694117 
L 564.445572 40.830815 
L 562.404109 45.109245 
L 560.362646 43.25194 
L 558.321182 47.921324 
L 556.279719 48.016017 
L 554.238255 55.950877 
L 552.196792 51.988538 
L 550.155328 50.250471 
L 548.113865 54.075341 
L 546.072402 56.222458 
L 544.030938 57.083854 
L 541.989475 61.918966 
L 539.948011 59.08534 
L 537.906548 62.528658 
L 535.865085 61.872336 
L 533.823621 63.182986 
L 531.782158 62.638212 
L 529.740694 61.527551 
L 527.699231 65.423275 
L 525.657768 70.395505 
L 523.616304 66.521128 
L 521.574841 69.65124 
L 519.533377 69.107675 
L 517.491914 71.12968 
L 515.45045 75.063239 
L 513.408987 74.474218 
L 511.367524 77.760315 
L 509.32606 79.029952 
L 507.284597 76.495886 
L 505.243133 78.850279 
L 503.20167 81.411545 
L 501.160207 82.681419 
L 499.118743 83.139344 
L 497.07728 85.115286 
L 495.035816 85.431374 
L 492.994353 88.102003 
L 490.952889 89.238762 
L 488.911426 90.26437 
L 486.869963 91.287468 
L 484.828499 88.049939 
L 482.787036 92.776916 
L 480.745572 94.995106 
L 478.704109 95.068257 
L 476.662646 95.747483 
L 474.621182 96.318721 
L 472.579719 98.081004 
L 470.538255 98.228912 
L 468.496792 100.607381 
L 466.455328 101.797933 
L 464.413865 101.914309 
L 462.372402 103.140623 
L 460.330938 104.609861 
L 458.289475 106.118087 
L 456.248011 109.863185 
L 454.206548 111.189835 
L 452.165085 113.324598 
L 450.123621 113.150678 
L 448.082158 115.248611 
L 446.040694 116.026066 
L 443.999231 117.12639 
L 441.957768 116.176191 
L 439.916304 121.314546 
L 437.874841 122.398674 
L 435.833377 123.398424 
L 433.791914 126.793092 
L 431.75045 127.339462 
L 429.708987 129.195809 
L 427.667524 128.600508 
L 425.62606 133.043457 
L 423.584597 132.73873 
L 421.543133 137.065847 
L 419.50167 140.377549 
L 417.460207 141.905332 
L 415.418743 145.864812 
L 413.37728 149.133991 
L 411.335816 149.848987 
L 409.294353 152.164966 
L 407.252889 153.393884 
L 405.211426 156.162758 
L 403.169963 156.372993 
L 401.128499 159.898355 
L 399.087036 162.715609 
L 397.045572 164.679008 
L 395.004109 166.137007 
L 392.962646 167.429074 
L 390.921182 171.098396 
L 388.879719 172.487462 
L 386.838255 174.99267 
L 384.796792 178.349828 
L 382.755328 179.851556 
L 380.713865 178.068939 
L 378.672402 179.412741 
L 376.630938 182.955186 
L 374.589475 183.877129 
L 372.548011 186.464028 
L 370.506548 188.474329 
L 368.465085 188.217108 
L 366.423621 189.633188 
L 364.382158 191.262247 
L 362.340694 193.774926 
L 360.299231 192.018485 
L 358.257768 193.437302 
L 356.216304 193.866902 
L 354.174841 197.175355 
L 352.133377 197.158894 
L 350.091914 195.932097 
L 348.05045 197.792192 
L 346.008987 199.740225 
L 343.967524 195.821533 
L 341.92606 199.987133 
L 339.884597 195.3329 
L 337.843133 195.310949 
L 335.80167 194.553517 
L 333.760207 195.867327 
L 331.718743 196.504921 
L 329.67728 196.589616 
L 327.635816 194.318452 
L 325.594353 196.543632 
L 323.552889 190.830547 
L 321.511426 184.474066 
L 319.469963 186.516702 
L 317.428499 189.924739 
L 315.387036 181.391368 
L 313.345572 182.201827 
L 311.304109 180.204788 
L 309.262646 179.806994 
L 307.221182 168.732798 
L 305.179719 167.721554 
L 303.138255 163.754113 
L 301.096792 155.00796 
L 299.055328 148.329604 
L 297.013865 155.64985 
L 294.972402 152.240596 
L 292.930938 146.417404 
L 290.889475 144.057092 
L 288.848011 139.84632 
L 286.806548 134.243517 
L 284.765085 136.81742 
L 282.723621 126.80867 
L 280.682158 121.929091 
L 278.640694 119.659296 
L 276.599231 117.939581 
L 274.557768 119.241498 
L 272.516304 116.834959 
L 270.474841 119.067768 
L 268.433377 122.224911 
L 266.391914 117.70888 
L 264.35045 117.474876 
L 262.308987 122.38872 
L 260.267524 123.743503 
L 258.22606 122.190491 
L 256.184597 131.992169 
L 254.143133 125.542087 
L 252.10167 128.097863 
L 250.060207 135.660174 
L 248.018743 133.928864 
L 245.97728 136.909738 
L 243.935816 139.622924 
L 241.894353 142.76056 
L 239.852889 145.77008 
L 237.811426 149.139873 
L 235.769963 152.283793 
L 233.728499 154.919473 
L 231.687036 158.912737 
L 229.645572 160.130419 
L 227.604109 166.309159 
L 225.562646 166.896817 
L 223.521182 170.15814 
L 221.479719 173.911442 
L 219.438255 176.797597 
L 217.396792 180.406129 
L 215.355328 183.081743 
L 213.313865 187.009978 
L 211.272402 189.511248 
L 209.230938 192.634275 
L 207.189475 195.942003 
L 205.148011 199.391899 
L 203.106548 201.688702 
L 201.065085 205.082198 
L 199.023621 207.316043 
L 196.982158 210.764912 
L 194.940694 213.42113 
L 192.899231 216.311614 
L 190.857768 219.105352 
L 188.816304 221.748375 
L 186.774841 224.065093 
L 184.733377 226.960744 
L 182.691914 228.603359 
L 180.65045 231.959617 
L 178.608987 234.386777 
L 176.567524 236.432564 
L 174.52606 238.952966 
L 172.484597 241.067378 
L 170.443133 242.871085 
L 168.40167 245.239702 
L 166.360207 247.758503 
L 164.318743 249.730036 
L 162.27728 251.571731 
L 160.235816 253.828961 
L 158.194353 255.534443 
L 156.152889 257.587351 
L 154.111426 259.257731 
L 152.069963 261.058046 
L 150.028499 262.568653 
L 147.987036 264.568137 
L 145.945572 266.029172 
L 143.904109 267.736372 
L 141.862646 269.744774 
L 139.821182 271.278289 
L 137.779719 271.962577 
L 135.738255 273.605218 
L 133.696792 274.516558 
L 131.655328 276.067526 
L 129.613865 277.997755 
L 127.572402 278.955503 
L 125.530938 279.875654 
L 123.489475 280.377007 
L 121.448011 281.343371 
L 119.406548 282.149603 
L 117.365085 282.999367 
L 115.323621 284.368492 
L 113.282158 285.29611 
L 111.240694 286.372902 
L 109.199231 286.259109 
L 107.157768 287.158086 
L 105.116304 286.6632 
L 103.074841 288.121677 
L 101.033377 288.833221 
L 98.991914 289.716124 
L 96.95045 288.150039 
L 94.908987 290.87732 
L 92.867524 291.061474 
L 90.82606 290.146427 
L 88.784597 290.183913 
L 86.743133 291.779935 
L 84.70167 294.113792 
L 82.660207 293.763834 
L 80.618743 294.143471 
L 78.57728 292.569081 
L 76.535816 293.380302 
L 74.494353 294.00682 
L 72.452889 295.60263 
L 70.411426 295.652931 
L 68.369963 295.856948 
L 66.328499 296.478162 
L 64.287036 297.631205 
L 62.245572 298.056837 
L 60.204109 298.813223 
L 58.162646 299.981587 
L 56.121182 299.914534 
L 54.079719 301.451757 
L 52.038255 302.033275 
L 49.996792 302.589673 
L 47.955328 303.748613 
L 45.913865 304.350761 
L 43.872402 305.438895 
L 41.830938 306.636272 
L 39.789475 307.047105 
L 37.748011 307.044265 
L 35.706548 307.365054 
L 33.665085 309.344359 
L 31.623621 309.371925 
L 29.582158 310.871851 
L 27.540694 311.251999 
L 25.499231 310.971775 
L 23.457768 312.712513 
L 21.416304 311.699929 
L 19.374841 311.962859 
L 17.333377 313.870649 
L 15.291914 312.772259 
L 13.25045 314.520556 
L 11.208987 315.338913 
L 9.167524 314.048966 
L 7.12606 309.876543 
L 5.084597 312.740481 
L 3.043133 311.649683 
L 1.00167 304.499954 
L -1.039793 310.736191 
L -3.081257 311.921641 
L -5.12272 305.299432 
L -7.164184 303.618835 
L -9.205647 306.938117 
L -11.247111 299.788692 
L -13.288574 287.592141 
L -15.330037 300.959661 
L -17.371501 306.380081 
L -19.412964 308.890739 
L -21.454428 291.92567 
L -23.495891 292.530722 
L -25.537354 284.191693 
L -27.578818 277.7981 
L -29.620281 290.345234 
L -31.661745 284.662824 
L -33.703208 273.167587 
L -35.744672 265.040087 
L -37.786135 265.176278 
L -39.827598 266.172522 
L -41.869062 264.164207 
L -43.910525 262.809279 
L -45.951989 266.863839 
L -47.993452 265.961011 
L -50.034915 262.62793 
L -52.076379 263.967661 
L -54.117842 262.298625 
L -56.159306 261.347175 
L -58.200769 260.930964 
L -60.242232 262.205166 
L -62.283696 262.73149 
L -64.325159 262.839043 
L -66.366623 263.853423 
L -68.408086 264.085237 
L -70.44955 264.839715 
L -72.491013 266.336946 
L -74.532476 267.383855 
L -76.57394 268.001561 
L -78.615403 268.731638 
L -80.656867 269.839464 
L -82.69833 270.361472 
L -84.739793 271.427245 
L -86.781257 272.816764 
L -88.82272 273.542065 
L -90.864184 273.906616 
L -92.905647 274.685308 
L -94.947111 275.488915 
L -96.988574 276.23678 
L -99.030037 276.950427 
L -101.071501 277.634102 
L -103.112964 278.688769 
L -105.154428 279.067336 
L -107.195891 279.777448 
L -109.237354 280.523975 
L -111.278818 281.140073 
L -113.320281 281.760025 
L -115.361745 282.245041 
L -117.403208 282.78885 
L -119.444672 283.618266 
L -121.486135 284.129001 
L -123.527598 284.771791 
L -125.569062 285.256989 
L -127.610525 285.840337 
L -129.651989 286.44307 
L -131.693452 287.05574 
L -133.734915 287.554678 
L -135.776379 288.172749 
L -137.817842 288.70681 
L -139.859306 289.289278 
L -141.900769 289.822157 
L -143.942232 290.387501 
L -145.983696 290.90203 
L -148.025159 291.464333 
L -150.066623 292.080612 
L -152.108086 292.527884 
L -154.14955 293.114451 
L -156.191013 293.608707 
L -158.232476 294.198572 
L -160.27394 294.606951 
L -162.315403 295.152491 
L -164.356867 295.669566 
L -166.39833 296.158875 
L -168.439793 296.659301 
L -170.481257 297.116535 
L -172.52272 297.664134 
L -174.564184 298.148465 
L -176.605647 298.532179 
L -178.647111 299.002777 
L -180.688574 299.471215 
L -182.730037 299.935155 
L -184.771501 300.377505 
L -186.812964 300.781222 
L -188.854428 301.232153 
L -190.895891 301.669273 
L -192.937354 302.105808 
L -194.978818 302.537026 
L -197.020281 302.97927 
L -199.061745 303.439782 
L -201.103208 303.817372 
L -203.144672 304.263059 
L -205.186135 304.694715 
L -207.227598 305.101033 
L -209.269062 305.521293 
L -211.310525 305.950026 
L -213.351989 306.359439 
L -215.393452 306.793326 
L -217.434915 307.174424 
L -219.476379 307.563757 
L -221.517842 307.981111 
L -223.559306 308.376994 
L -225.600769 308.742636 
L -227.642232 309.135924 
L -229.683696 309.479048 
L -231.725159 309.853949 
L -233.766623 310.261037 
L -235.808086 310.584647 
L -237.84955 310.963618 
L -239.891013 311.310569 
L -241.932476 311.679979 
L -243.97394 311.995158 
L -246.015403 312.391143 
L -248.056867 312.685994 
L -250.09833 313.037389 
L -252.139793 313.375875 
L -254.181257 313.726783 
L -256.22272 314.050569 
L -258.264184 314.350339 
L -260.305647 314.650906 
L -262.347111 314.973547 
L -264.388574 315.261596 
L -266.430037 315.52998 
L -268.471501 315.811398 
L -270.512964 316.099004 
L -272.554428 316.373874 
L -274.595891 316.66004 
L -276.637354 316.94433 
L -278.678818 317.211734 
L -280.720281 317.488212 
L -282.761745 317.76647 
L -284.803208 318.009363 
L -286.844672 318.263519 
L -288.886135 318.539987 
L -290.927598 318.798978 
L -292.969062 319.02055 
L -295.010525 319.283991 
L -297.051989 319.518643 
L -299.093452 319.730237 
L -301.134915 319.947363 
L -303.176379 320.148296 
L -305.217842 320.379038 
L -307.259306 320.556729 
L -309.300769 320.755292 
L -311.342232 320.941683 
L -313.383696 321.112629 
L -315.425159 321.265479 
L -317.466623 321.401391 
L -319.508086 321.539956 
L -321.54955 321.680612 
L -323.591013 321.78888 
L -325.632476 321.920939 
L -327.67394 322.026512 
L -329.715403 322.112279 
L -331.756867 322.2252 
L -333.79833 322.31989 
L -335.839793 322.391767 
L -337.881257 322.474524 
L -339.92272 322.555577 
L -341.964184 322.623098 
L -344.005647 322.692507 
L -346.047111 322.743994 
L -348.088574 322.815903 
L -350.130037 322.866166 
L -352.171501 322.921946 
L -354.212964 322.983258 
L -356.254428 323.02743 
L -358.295891 323.077199 
L -360.337354 323.153867 
L -362.378818 323.198837 
L -364.420281 323.262276 
L -366.461745 323.306511 
L -368.503208 323.376673 
L -370.544672 323.426624 
L -372.586135 323.481985 
L -374.627598 323.527597 
L -376.669062 323.567632 
L -378.710525 323.618721 
L -380.751989 323.680171 
L -382.793452 323.741697 
L -384.834915 323.792907 
L -386.876379 323.83006 
L -388.917842 323.896631 
L -390.959306 323.946428 
L -393.000769 324.01117 
z
" clip-path="url(#pae819659a8)" style="fill: #008000; fill-opacity: 0.3; stroke: #008000; stroke-opacity: 0.3"/>
   </g>
   <g id="matplotlib.axis_1">
    <g id="xtick_1">
     <g id="line2d_1">
      <defs>
       <path id="m313e412e5b" d="M 0 0 
L 0 3.5 
" style="stroke: #000000; stroke-width: 0.8"/>
      </defs>
      <g>
       <use xlink:href="#m313e412e5b" x="103.074841" y="395.28" style="stroke: #000000; stroke-width: 0.8"/>
      </g>
     </g>
     <g id="text_1">
      <!-- 2022-03-01 -->
      <g transform="translate(17.945813 495.213718) rotate(-45) scale(0.2 -0.2)">
       <defs>
        <path id="DejaVuSans-32" d="M 1228 531 
L 3431 531 
L 3431 0 
L 469 0 
L 469 531 
Q 828 903 1448 1529 
Q 2069 2156 2228 2338 
Q 2531 2678 2651 2914 
Q 2772 3150 2772 3378 
Q 2772 3750 2511 3984 
Q 2250 4219 1831 4219 
Q 1534 4219 1204 4116 
Q 875 4013 500 3803 
L 500 4441 
Q 881 4594 1212 4672 
Q 1544 4750 1819 4750 
Q 2544 4750 2975 4387 
Q 3406 4025 3406 3419 
Q 3406 3131 3298 2873 
Q 3191 2616 2906 2266 
Q 2828 2175 2409 1742 
Q 1991 1309 1228 531 
z
" transform="scale(0.015625)"/>
        <path id="DejaVuSans-30" d="M 2034 4250 
Q 1547 4250 1301 3770 
Q 1056 3291 1056 2328 
Q 1056 1369 1301 889 
Q 1547 409 2034 409 
Q 2525 409 2770 889 
Q 3016 1369 3016 2328 
Q 3016 3291 2770 3770 
Q 2525 4250 2034 4250 
z
M 2034 4750 
Q 2819 4750 3233 4129 
Q 3647 3509 3647 2328 
Q 3647 1150 3233 529 
Q 2819 -91 2034 -91 
Q 1250 -91 836 529 
Q 422 1150 422 2328 
Q 422 3509 836 4129 
Q 1250 4750 2034 4750 
z
" transform="scale(0.015625)"/>
        <path id="DejaVuSans-2d" d="M 313 2009 
L 1997 2009 
L 1997 1497 
L 313 1497 
L 313 2009 
z
" transform="scale(0.015625)"/>
        <path id="DejaVuSans-33" d="M 2597 2516 
Q 3050 2419 3304 2112 
Q 3559 1806 3559 1356 
Q 3559 666 3084 287 
Q 2609 -91 1734 -91 
Q 1441 -91 1130 -33 
Q 819 25 488 141 
L 488 750 
Q 750 597 1062 519 
Q 1375 441 1716 441 
Q 2309 441 2620 675 
Q 2931 909 2931 1356 
Q 2931 1769 2642 2001 
Q 2353 2234 1838 2234 
L 1294 2234 
L 1294 2753 
L 1863 2753 
Q 2328 2753 2575 2939 
Q 2822 3125 2822 3475 
Q 2822 3834 2567 4026 
Q 2313 4219 1838 4219 
Q 1578 4219 1281 4162 
Q 984 4106 628 3988 
L 628 4550 
Q 988 4650 1302 4700 
Q 1616 4750 1894 4750 
Q 2613 4750 3031 4423 
Q 3450 4097 3450 3541 
Q 3450 3153 3228 2886 
Q 3006 2619 2597 2516 
z
" transform="scale(0.015625)"/>
        <path id="DejaVuSans-31" d="M 794 531 
L 1825 531 
L 1825 4091 
L 703 3866 
L 703 4441 
L 1819 4666 
L 2450 4666 
L 2450 531 
L 3481 531 
L 3481 0 
L 794 0 
L 794 531 
z
" transform="scale(0.015625)"/>
       </defs>
       <use xlink:href="#DejaVuSans-32"/>
       <use xlink:href="#DejaVuSans-30" x="63.623047"/>
       <use xlink:href="#DejaVuSans-32" x="127.246094"/>
       <use xlink:href="#DejaVuSans-32" x="190.869141"/>
       <use xlink:href="#DejaVuSans-2d" x="254.492188"/>
       <use xlink:href="#DejaVuSans-30" x="290.576172"/>
       <use xlink:href="#DejaVuSans-33" x="354.199219"/>
       <use xlink:href="#DejaVuSans-2d" x="417.822266"/>
       <use xlink:href="#DejaVuSans-30" x="453.90625"/>
       <use xlink:href="#DejaVuSans-31" x="517.529297"/>
      </g>
     </g>
    </g>
    <g id="xtick_2">
     <g id="line2d_2">
      <g>
       <use xlink:href="#m313e412e5b" x="160.235816" y="395.28" style="stroke: #000000; stroke-width: 0.8"/>
      </g>
     </g>
     <g id="text_2">
      <!-- 2022-03-29 -->
      <g transform="translate(75.106789 495.213718) rotate(-45) scale(0.2 -0.2)">
       <defs>
        <path id="DejaVuSans-39" d="M 703 97 
L 703 672 
Q 941 559 1184 500 
Q 1428 441 1663 441 
Q 2288 441 2617 861 
Q 2947 1281 2994 2138 
Q 2813 1869 2534 1725 
Q 2256 1581 1919 1581 
Q 1219 1581 811 2004 
Q 403 2428 403 3163 
Q 403 3881 828 4315 
Q 1253 4750 1959 4750 
Q 2769 4750 3195 4129 
Q 3622 3509 3622 2328 
Q 3622 1225 3098 567 
Q 2575 -91 1691 -91 
Q 1453 -91 1209 -44 
Q 966 3 703 97 
z
M 1959 2075 
Q 2384 2075 2632 2365 
Q 2881 2656 2881 3163 
Q 2881 3666 2632 3958 
Q 2384 4250 1959 4250 
Q 1534 4250 1286 3958 
Q 1038 3666 1038 3163 
Q 1038 2656 1286 2365 
Q 1534 2075 1959 2075 
z
" transform="scale(0.015625)"/>
       </defs>
       <use xlink:href="#DejaVuSans-32"/>
       <use xlink:href="#DejaVuSans-30" x="63.623047"/>
       <use xlink:href="#DejaVuSans-32" x="127.246094"/>
       <use xlink:href="#DejaVuSans-32" x="190.869141"/>
       <use xlink:href="#DejaVuSans-2d" x="254.492188"/>
       <use xlink:href="#DejaVuSans-30" x="290.576172"/>
       <use xlink:href="#DejaVuSans-33" x="354.199219"/>
       <use xlink:href="#DejaVuSans-2d" x="417.822266"/>
       <use xlink:href="#DejaVuSans-32" x="453.90625"/>
       <use xlink:href="#DejaVuSans-39" x="517.529297"/>
      </g>
     </g>
    </g>
    <g id="xtick_3">
     <g id="line2d_3">
      <g>
       <use xlink:href="#m313e412e5b" x="217.396792" y="395.28" style="stroke: #000000; stroke-width: 0.8"/>
      </g>
     </g>
     <g id="text_3">
      <!-- 2022-04-26 -->
      <g transform="translate(132.267765 495.213718) rotate(-45) scale(0.2 -0.2)">
       <defs>
        <path id="DejaVuSans-34" d="M 2419 4116 
L 825 1625 
L 2419 1625 
L 2419 4116 
z
M 2253 4666 
L 3047 4666 
L 3047 1625 
L 3713 1625 
L 3713 1100 
L 3047 1100 
L 3047 0 
L 2419 0 
L 2419 1100 
L 313 1100 
L 313 1709 
L 2253 4666 
z
" transform="scale(0.015625)"/>
        <path id="DejaVuSans-36" d="M 2113 2584 
Q 1688 2584 1439 2293 
Q 1191 2003 1191 1497 
Q 1191 994 1439 701 
Q 1688 409 2113 409 
Q 2538 409 2786 701 
Q 3034 994 3034 1497 
Q 3034 2003 2786 2293 
Q 2538 2584 2113 2584 
z
M 3366 4563 
L 3366 3988 
Q 3128 4100 2886 4159 
Q 2644 4219 2406 4219 
Q 1781 4219 1451 3797 
Q 1122 3375 1075 2522 
Q 1259 2794 1537 2939 
Q 1816 3084 2150 3084 
Q 2853 3084 3261 2657 
Q 3669 2231 3669 1497 
Q 3669 778 3244 343 
Q 2819 -91 2113 -91 
Q 1303 -91 875 529 
Q 447 1150 447 2328 
Q 447 3434 972 4092 
Q 1497 4750 2381 4750 
Q 2619 4750 2861 4703 
Q 3103 4656 3366 4563 
z
" transform="scale(0.015625)"/>
       </defs>
       <use xlink:href="#DejaVuSans-32"/>
       <use xlink:href="#DejaVuSans-30" x="63.623047"/>
       <use xlink:href="#DejaVuSans-32" x="127.246094"/>
       <use xlink:href="#DejaVuSans-32" x="190.869141"/>
       <use xlink:href="#DejaVuSans-2d" x="254.492188"/>
       <use xlink:href="#DejaVuSans-30" x="290.576172"/>
       <use xlink:href="#DejaVuSans-34" x="354.199219"/>
       <use xlink:href="#DejaVuSans-2d" x="417.822266"/>
       <use xlink:href="#DejaVuSans-32" x="453.90625"/>
       <use xlink:href="#DejaVuSans-36" x="517.529297"/>
      </g>
     </g>
    </g>
    <g id="xtick_4">
     <g id="line2d_4">
      <g>
       <use xlink:href="#m313e412e5b" x="274.557768" y="395.28" style="stroke: #000000; stroke-width: 0.8"/>
      </g>
     </g>
     <g id="text_4">
      <!-- 2022-05-24 -->
      <g transform="translate(189.42874 495.213718) rotate(-45) scale(0.2 -0.2)">
       <defs>
        <path id="DejaVuSans-35" d="M 691 4666 
L 3169 4666 
L 3169 4134 
L 1269 4134 
L 1269 2991 
Q 1406 3038 1543 3061 
Q 1681 3084 1819 3084 
Q 2600 3084 3056 2656 
Q 3513 2228 3513 1497 
Q 3513 744 3044 326 
Q 2575 -91 1722 -91 
Q 1428 -91 1123 -41 
Q 819 9 494 109 
L 494 744 
Q 775 591 1075 516 
Q 1375 441 1709 441 
Q 2250 441 2565 725 
Q 2881 1009 2881 1497 
Q 2881 1984 2565 2268 
Q 2250 2553 1709 2553 
Q 1456 2553 1204 2497 
Q 953 2441 691 2322 
L 691 4666 
z
" transform="scale(0.015625)"/>
       </defs>
       <use xlink:href="#DejaVuSans-32"/>
       <use xlink:href="#DejaVuSans-30" x="63.623047"/>
       <use xlink:href="#DejaVuSans-32" x="127.246094"/>
       <use xlink:href="#DejaVuSans-32" x="190.869141"/>
       <use xlink:href="#DejaVuSans-2d" x="254.492188"/>
       <use xlink:href="#DejaVuSans-30" x="290.576172"/>
       <use xlink:href="#DejaVuSans-35" x="354.199219"/>
       <use xlink:href="#DejaVuSans-2d" x="417.822266"/>
       <use xlink:href="#DejaVuSans-32" x="453.90625"/>
       <use xlink:href="#DejaVuSans-34" x="517.529297"/>
      </g>
     </g>
    </g>
    <g id="xtick_5">
     <g id="line2d_5">
      <g>
       <use xlink:href="#m313e412e5b" x="331.718743" y="395.28" style="stroke: #000000; stroke-width: 0.8"/>
      </g>
     </g>
     <g id="text_5">
      <!-- 2022-06-21 -->
      <g transform="translate(246.589716 495.213718) rotate(-45) scale(0.2 -0.2)">
       <use xlink:href="#DejaVuSans-32"/>
       <use xlink:href="#DejaVuSans-30" x="63.623047"/>
       <use xlink:href="#DejaVuSans-32" x="127.246094"/>
       <use xlink:href="#DejaVuSans-32" x="190.869141"/>
       <use xlink:href="#DejaVuSans-2d" x="254.492188"/>
       <use xlink:href="#DejaVuSans-30" x="290.576172"/>
       <use xlink:href="#DejaVuSans-36" x="354.199219"/>
       <use xlink:href="#DejaVuSans-2d" x="417.822266"/>
       <use xlink:href="#DejaVuSans-32" x="453.90625"/>
       <use xlink:href="#DejaVuSans-31" x="517.529297"/>
      </g>
     </g>
    </g>
    <g id="xtick_6">
     <g id="line2d_6">
      <g>
       <use xlink:href="#m313e412e5b" x="388.879719" y="395.28" style="stroke: #000000; stroke-width: 0.8"/>
      </g>
     </g>
     <g id="text_6">
      <!-- 2022-07-19 -->
      <g transform="translate(303.750691 495.213718) rotate(-45) scale(0.2 -0.2)">
       <defs>
        <path id="DejaVuSans-37" d="M 525 4666 
L 3525 4666 
L 3525 4397 
L 1831 0 
L 1172 0 
L 2766 4134 
L 525 4134 
L 525 4666 
z
" transform="scale(0.015625)"/>
       </defs>
       <use xlink:href="#DejaVuSans-32"/>
       <use xlink:href="#DejaVuSans-30" x="63.623047"/>
       <use xlink:href="#DejaVuSans-32" x="127.246094"/>
       <use xlink:href="#DejaVuSans-32" x="190.869141"/>
       <use xlink:href="#DejaVuSans-2d" x="254.492188"/>
       <use xlink:href="#DejaVuSans-30" x="290.576172"/>
       <use xlink:href="#DejaVuSans-37" x="354.199219"/>
       <use xlink:href="#DejaVuSans-2d" x="417.822266"/>
       <use xlink:href="#DejaVuSans-31" x="453.90625"/>
       <use xlink:href="#DejaVuSans-39" x="517.529297"/>
      </g>
     </g>
    </g>
    <g id="xtick_7">
     <g id="line2d_7">
      <g>
       <use xlink:href="#m313e412e5b" x="446.040694" y="395.28" style="stroke: #000000; stroke-width: 0.8"/>
      </g>
     </g>
     <g id="text_7">
      <!-- 2022-08-16 -->
      <g transform="translate(360.911667 495.213718) rotate(-45) scale(0.2 -0.2)">
       <defs>
        <path id="DejaVuSans-38" d="M 2034 2216 
Q 1584 2216 1326 1975 
Q 1069 1734 1069 1313 
Q 1069 891 1326 650 
Q 1584 409 2034 409 
Q 2484 409 2743 651 
Q 3003 894 3003 1313 
Q 3003 1734 2745 1975 
Q 2488 2216 2034 2216 
z
M 1403 2484 
Q 997 2584 770 2862 
Q 544 3141 544 3541 
Q 544 4100 942 4425 
Q 1341 4750 2034 4750 
Q 2731 4750 3128 4425 
Q 3525 4100 3525 3541 
Q 3525 3141 3298 2862 
Q 3072 2584 2669 2484 
Q 3125 2378 3379 2068 
Q 3634 1759 3634 1313 
Q 3634 634 3220 271 
Q 2806 -91 2034 -91 
Q 1263 -91 848 271 
Q 434 634 434 1313 
Q 434 1759 690 2068 
Q 947 2378 1403 2484 
z
M 1172 3481 
Q 1172 3119 1398 2916 
Q 1625 2713 2034 2713 
Q 2441 2713 2670 2916 
Q 2900 3119 2900 3481 
Q 2900 3844 2670 4047 
Q 2441 4250 2034 4250 
Q 1625 4250 1398 4047 
Q 1172 3844 1172 3481 
z
" transform="scale(0.015625)"/>
       </defs>
       <use xlink:href="#DejaVuSans-32"/>
       <use xlink:href="#DejaVuSans-30" x="63.623047"/>
       <use xlink:href="#DejaVuSans-32" x="127.246094"/>
       <use xlink:href="#DejaVuSans-32" x="190.869141"/>
       <use xlink:href="#DejaVuSans-2d" x="254.492188"/>
       <use xlink:href="#DejaVuSans-30" x="290.576172"/>
       <use xlink:href="#DejaVuSans-38" x="354.199219"/>
       <use xlink:href="#DejaVuSans-2d" x="417.822266"/>
       <use xlink:href="#DejaVuSans-31" x="453.90625"/>
       <use xlink:href="#DejaVuSans-36" x="517.529297"/>
      </g>
     </g>
    </g>
    <g id="xtick_8">
     <g id="line2d_8">
      <g>
       <use xlink:href="#m313e412e5b" x="503.20167" y="395.28" style="stroke: #000000; stroke-width: 0.8"/>
      </g>
     </g>
     <g id="text_8">
      <!-- 2022-09-13 -->
      <g transform="translate(418.072643 495.213718) rotate(-45) scale(0.2 -0.2)">
       <use xlink:href="#DejaVuSans-32"/>
       <use xlink:href="#DejaVuSans-30" x="63.623047"/>
       <use xlink:href="#DejaVuSans-32" x="127.246094"/>
       <use xlink:href="#DejaVuSans-32" x="190.869141"/>
       <use xlink:href="#DejaVuSans-2d" x="254.492188"/>
       <use xlink:href="#DejaVuSans-30" x="290.576172"/>
       <use xlink:href="#DejaVuSans-39" x="354.199219"/>
       <use xlink:href="#DejaVuSans-2d" x="417.822266"/>
       <use xlink:href="#DejaVuSans-31" x="453.90625"/>
       <use xlink:href="#DejaVuSans-33" x="517.529297"/>
      </g>
     </g>
    </g>
    <g id="xtick_9">
     <g id="line2d_9">
      <g>
       <use xlink:href="#m313e412e5b" x="560.362646" y="395.28" style="stroke: #000000; stroke-width: 0.8"/>
      </g>
     </g>
     <g id="text_9">
      <!-- 2022-10-11 -->
      <g transform="translate(475.233618 495.213718) rotate(-45) scale(0.2 -0.2)">
       <use xlink:href="#DejaVuSans-32"/>
       <use xlink:href="#DejaVuSans-30" x="63.623047"/>
       <use xlink:href="#DejaVuSans-32" x="127.246094"/>
       <use xlink:href="#DejaVuSans-32" x="190.869141"/>
       <use xlink:href="#DejaVuSans-2d" x="254.492188"/>
       <use xlink:href="#DejaVuSans-31" x="290.576172"/>
       <use xlink:href="#DejaVuSans-30" x="354.199219"/>
       <use xlink:href="#DejaVuSans-2d" x="417.822266"/>
       <use xlink:href="#DejaVuSans-31" x="453.90625"/>
       <use xlink:href="#DejaVuSans-31" x="517.529297"/>
      </g>
     </g>
    </g>
    <g id="xtick_10">
     <g id="line2d_10">
      <g>
       <use xlink:href="#m313e412e5b" x="617.523621" y="395.28" style="stroke: #000000; stroke-width: 0.8"/>
      </g>
     </g>
     <g id="text_10">
      <!-- 2022-11-08 -->
      <g transform="translate(532.394594 495.213718) rotate(-45) scale(0.2 -0.2)">
       <use xlink:href="#DejaVuSans-32"/>
       <use xlink:href="#DejaVuSans-30" x="63.623047"/>
       <use xlink:href="#DejaVuSans-32" x="127.246094"/>
       <use xlink:href="#DejaVuSans-32" x="190.869141"/>
       <use xlink:href="#DejaVuSans-2d" x="254.492188"/>
       <use xlink:href="#DejaVuSans-31" x="290.576172"/>
       <use xlink:href="#DejaVuSans-31" x="354.199219"/>
       <use xlink:href="#DejaVuSans-2d" x="417.822266"/>
       <use xlink:href="#DejaVuSans-30" x="453.90625"/>
       <use xlink:href="#DejaVuSans-38" x="517.529297"/>
      </g>
     </g>
    </g>
    <g id="xtick_11">
     <g id="line2d_11">
      <g>
       <use xlink:href="#m313e412e5b" x="674.684597" y="395.28" style="stroke: #000000; stroke-width: 0.8"/>
      </g>
     </g>
     <g id="text_11">
      <!-- 2022-12-06 -->
      <g transform="translate(589.555569 495.213718) rotate(-45) scale(0.2 -0.2)">
       <use xlink:href="#DejaVuSans-32"/>
       <use xlink:href="#DejaVuSans-30" x="63.623047"/>
       <use xlink:href="#DejaVuSans-32" x="127.246094"/>
       <use xlink:href="#DejaVuSans-32" x="190.869141"/>
       <use xlink:href="#DejaVuSans-2d" x="254.492188"/>
       <use xlink:href="#DejaVuSans-31" x="290.576172"/>
       <use xlink:href="#DejaVuSans-32" x="354.199219"/>
       <use xlink:href="#DejaVuSans-2d" x="417.822266"/>
       <use xlink:href="#DejaVuSans-30" x="453.90625"/>
       <use xlink:href="#DejaVuSans-36" x="517.529297"/>
      </g>
     </g>
    </g>
    <g id="xtick_12">
     <g id="line2d_12">
      <g>
       <use xlink:href="#m313e412e5b" x="731.845572" y="395.28" style="stroke: #000000; stroke-width: 0.8"/>
      </g>
     </g>
     <g id="text_12">
      <!-- 2023-01-03 -->
      <g transform="translate(646.716545 495.213718) rotate(-45) scale(0.2 -0.2)">
       <use xlink:href="#DejaVuSans-32"/>
       <use xlink:href="#DejaVuSans-30" x="63.623047"/>
       <use xlink:href="#DejaVuSans-32" x="127.246094"/>
       <use xlink:href="#DejaVuSans-33" x="190.869141"/>
       <use xlink:href="#DejaVuSans-2d" x="254.492188"/>
       <use xlink:href="#DejaVuSans-30" x="290.576172"/>
       <use xlink:href="#DejaVuSans-31" x="354.199219"/>
       <use xlink:href="#DejaVuSans-2d" x="417.822266"/>
       <use xlink:href="#DejaVuSans-30" x="453.90625"/>
       <use xlink:href="#DejaVuSans-33" x="517.529297"/>
      </g>
     </g>
    </g>
    <g id="xtick_13">
     <g id="line2d_13">
      <g>
       <use xlink:href="#m313e412e5b" x="789.006548" y="395.28" style="stroke: #000000; stroke-width: 0.8"/>
      </g>
     </g>
     <g id="text_13">
      <!-- 2023-01-31 -->
      <g transform="translate(703.877521 495.213718) rotate(-45) scale(0.2 -0.2)">
       <use xlink:href="#DejaVuSans-32"/>
       <use xlink:href="#DejaVuSans-30" x="63.623047"/>
       <use xlink:href="#DejaVuSans-32" x="127.246094"/>
       <use xlink:href="#DejaVuSans-33" x="190.869141"/>
       <use xlink:href="#DejaVuSans-2d" x="254.492188"/>
       <use xlink:href="#DejaVuSans-30" x="290.576172"/>
       <use xlink:href="#DejaVuSans-31" x="354.199219"/>
       <use xlink:href="#DejaVuSans-2d" x="417.822266"/>
       <use xlink:href="#DejaVuSans-33" x="453.90625"/>
       <use xlink:href="#DejaVuSans-31" x="517.529297"/>
      </g>
     </g>
    </g>
    <g id="xtick_14">
     <g id="line2d_14">
      <g>
       <use xlink:href="#m313e412e5b" x="846.167524" y="395.28" style="stroke: #000000; stroke-width: 0.8"/>
      </g>
     </g>
     <g id="text_14">
      <!-- 2023-02-28 -->
      <g transform="translate(761.038496 495.213718) rotate(-45) scale(0.2 -0.2)">
       <use xlink:href="#DejaVuSans-32"/>
       <use xlink:href="#DejaVuSans-30" x="63.623047"/>
       <use xlink:href="#DejaVuSans-32" x="127.246094"/>
       <use xlink:href="#DejaVuSans-33" x="190.869141"/>
       <use xlink:href="#DejaVuSans-2d" x="254.492188"/>
       <use xlink:href="#DejaVuSans-30" x="290.576172"/>
       <use xlink:href="#DejaVuSans-32" x="354.199219"/>
       <use xlink:href="#DejaVuSans-2d" x="417.822266"/>
       <use xlink:href="#DejaVuSans-32" x="453.90625"/>
       <use xlink:href="#DejaVuSans-38" x="517.529297"/>
      </g>
     </g>
    </g>
    <g id="xtick_15">
     <g id="line2d_15">
      <g>
       <use xlink:href="#m313e412e5b" x="903.328499" y="395.28" style="stroke: #000000; stroke-width: 0.8"/>
      </g>
     </g>
     <g id="text_15">
      <!-- 2023-03-28 -->
      <g transform="translate(818.199472 495.213718) rotate(-45) scale(0.2 -0.2)">
       <use xlink:href="#DejaVuSans-32"/>
       <use xlink:href="#DejaVuSans-30" x="63.623047"/>
       <use xlink:href="#DejaVuSans-32" x="127.246094"/>
       <use xlink:href="#DejaVuSans-33" x="190.869141"/>
       <use xlink:href="#DejaVuSans-2d" x="254.492188"/>
       <use xlink:href="#DejaVuSans-30" x="290.576172"/>
       <use xlink:href="#DejaVuSans-33" x="354.199219"/>
       <use xlink:href="#DejaVuSans-2d" x="417.822266"/>
       <use xlink:href="#DejaVuSans-32" x="453.90625"/>
       <use xlink:href="#DejaVuSans-38" x="517.529297"/>
      </g>
     </g>
    </g>
    <g id="xtick_16">
     <g id="line2d_16">
      <g>
       <use xlink:href="#m313e412e5b" x="940.074841" y="395.28" style="stroke: #000000; stroke-width: 0.8"/>
      </g>
     </g>
     <g id="text_16">
      <!-- 2023-04-15 -->
      <g transform="translate(854.945813 495.213718) rotate(-45) scale(0.2 -0.2)">
       <use xlink:href="#DejaVuSans-32"/>
       <use xlink:href="#DejaVuSans-30" x="63.623047"/>
       <use xlink:href="#DejaVuSans-32" x="127.246094"/>
       <use xlink:href="#DejaVuSans-33" x="190.869141"/>
       <use xlink:href="#DejaVuSans-2d" x="254.492188"/>
       <use xlink:href="#DejaVuSans-30" x="290.576172"/>
       <use xlink:href="#DejaVuSans-34" x="354.199219"/>
       <use xlink:href="#DejaVuSans-2d" x="417.822266"/>
       <use xlink:href="#DejaVuSans-31" x="453.90625"/>
       <use xlink:href="#DejaVuSans-35" x="517.529297"/>
      </g>
     </g>
    </g>
   </g>
   <g id="matplotlib.axis_2">
    <g id="ytick_1">
     <g id="line2d_17">
      <defs>
       <path id="m5d94940f08" d="M 0 0 
L -3.5 0 
" style="stroke: #000000; stroke-width: 0.8"/>
      </defs>
      <g>
       <use xlink:href="#m5d94940f08" x="103.074841" y="382.559337" style="stroke: #000000; stroke-width: 0.8"/>
      </g>
     </g>
     <g id="text_17">
      <!-- 0.05 -->
      <g transform="translate(34.784216 390.157775) scale(0.2 -0.2)">
       <defs>
        <path id="DejaVuSans-2212" d="M 678 2272 
L 4684 2272 
L 4684 1741 
L 678 1741 
L 678 2272 
z
" transform="scale(0.015625)"/>
        <path id="DejaVuSans-2e" d="M 684 794 
L 1344 794 
L 1344 0 
L 684 0 
L 684 794 
z
" transform="scale(0.015625)"/>
       </defs>
       <use xlink:href="#DejaVuSans-2212"/>
       <use xlink:href="#DejaVuSans-30" x="83.789062"/>
       <use xlink:href="#DejaVuSans-2e" x="147.412109"/>
       <use xlink:href="#DejaVuSans-30" x="179.199219"/>
       <use xlink:href="#DejaVuSans-35" x="242.822266"/>
      </g>
     </g>
    </g>
    <g id="ytick_2">
     <g id="line2d_18">
      <g>
       <use xlink:href="#m5d94940f08" x="103.074841" y="324.074146" style="stroke: #000000; stroke-width: 0.8"/>
      </g>
     </g>
     <g id="text_18">
      <!-- 0.00 -->
      <g transform="translate(51.543591 331.672584) scale(0.2 -0.2)">
       <use xlink:href="#DejaVuSans-30"/>
       <use xlink:href="#DejaVuSans-2e" x="63.623047"/>
       <use xlink:href="#DejaVuSans-30" x="95.410156"/>
       <use xlink:href="#DejaVuSans-30" x="159.033203"/>
      </g>
     </g>
    </g>
    <g id="ytick_3">
     <g id="line2d_19">
      <g>
       <use xlink:href="#m5d94940f08" x="103.074841" y="265.588955" style="stroke: #000000; stroke-width: 0.8"/>
      </g>
     </g>
     <g id="text_19">
      <!-- 0.05 -->
      <g transform="translate(51.543591 273.187392) scale(0.2 -0.2)">
       <use xlink:href="#DejaVuSans-30"/>
       <use xlink:href="#DejaVuSans-2e" x="63.623047"/>
       <use xlink:href="#DejaVuSans-30" x="95.410156"/>
       <use xlink:href="#DejaVuSans-35" x="159.033203"/>
      </g>
     </g>
    </g>
    <g id="ytick_4">
     <g id="line2d_20">
      <g>
       <use xlink:href="#m5d94940f08" x="103.074841" y="207.103763" style="stroke: #000000; stroke-width: 0.8"/>
      </g>
     </g>
     <g id="text_20">
      <!-- 0.10 -->
      <g transform="translate(51.543591 214.702201) scale(0.2 -0.2)">
       <use xlink:href="#DejaVuSans-30"/>
       <use xlink:href="#DejaVuSans-2e" x="63.623047"/>
       <use xlink:href="#DejaVuSans-31" x="95.410156"/>
       <use xlink:href="#DejaVuSans-30" x="159.033203"/>
      </g>
     </g>
    </g>
    <g id="ytick_5">
     <g id="line2d_21">
      <g>
       <use xlink:href="#m5d94940f08" x="103.074841" y="148.618572" style="stroke: #000000; stroke-width: 0.8"/>
      </g>
     </g>
     <g id="text_21">
      <!-- 0.15 -->
      <g transform="translate(51.543591 156.217009) scale(0.2 -0.2)">
       <use xlink:href="#DejaVuSans-30"/>
       <use xlink:href="#DejaVuSans-2e" x="63.623047"/>
       <use xlink:href="#DejaVuSans-31" x="95.410156"/>
       <use xlink:href="#DejaVuSans-35" x="159.033203"/>
      </g>
     </g>
    </g>
    <g id="ytick_6">
     <g id="line2d_22">
      <g>
       <use xlink:href="#m5d94940f08" x="103.074841" y="90.133381" style="stroke: #000000; stroke-width: 0.8"/>
      </g>
     </g>
     <g id="text_22">
      <!-- 0.20 -->
      <g transform="translate(51.543591 97.731818) scale(0.2 -0.2)">
       <use xlink:href="#DejaVuSans-30"/>
       <use xlink:href="#DejaVuSans-2e" x="63.623047"/>
       <use xlink:href="#DejaVuSans-32" x="95.410156"/>
       <use xlink:href="#DejaVuSans-30" x="159.033203"/>
      </g>
     </g>
    </g>
    <g id="ytick_7">
     <g id="line2d_23">
      <g>
       <use xlink:href="#m5d94940f08" x="103.074841" y="31.648189" style="stroke: #000000; stroke-width: 0.8"/>
      </g>
     </g>
     <g id="text_23">
      <!-- 0.25 -->
      <g transform="translate(51.543591 39.246627) scale(0.2 -0.2)">
       <use xlink:href="#DejaVuSans-30"/>
       <use xlink:href="#DejaVuSans-2e" x="63.623047"/>
       <use xlink:href="#DejaVuSans-32" x="95.410156"/>
       <use xlink:href="#DejaVuSans-35" x="159.033203"/>
      </g>
     </g>
    </g>
   </g>
   <g id="line2d_24">
    <path d="M 893.121182 150.741119 
L 911.494353 150.741119 
L 913.535816 377.64 
L 913.535816 377.64 
" clip-path="url(#pae819659a8)" style="fill: none; stroke: #ffa500; stroke-width: 1.5; stroke-linecap: square"/>
   </g>
   <g id="line2d_25">
    <path d="M 103.074841 324.074146 
L 948.274841 324.074146 
" clip-path="url(#pae819659a8)" style="fill: none; stroke-dasharray: 7.4,3.2; stroke-dashoffset: 0; stroke: #000000; stroke-width: 2"/>
   </g>
   <g id="patch_3">
    <path d="M 103.074841 395.28 
L 103.074841 7.2 
" style="fill: none; stroke: #000000; stroke-width: 0.8; stroke-linejoin: miter; stroke-linecap: square"/>
   </g>
   <g id="patch_4">
    <path d="M 940.074841 395.28 
L 940.074841 7.2 
" style="fill: none; stroke: #000000; stroke-width: 0.8; stroke-linejoin: miter; stroke-linecap: square"/>
   </g>
   <g id="patch_5">
    <path d="M 103.074841 395.28 
L 940.074841 395.28 
" style="fill: none; stroke: #000000; stroke-width: 0.8; stroke-linejoin: miter; stroke-linecap: square"/>
   </g>
   <g id="patch_6">
    <path d="M 103.074841 7.2 
L 940.074841 7.2 
" style="fill: none; stroke: #000000; stroke-width: 0.8; stroke-linejoin: miter; stroke-linecap: square"/>
   </g>
  </g>
 </g>
 <defs>
  <clipPath id="pae819659a8">
   <rect x="103.074841" y="7.2" width="837" height="388.08"/>
  </clipPath>
 </defs>
</svg>
