<?xml version="1.0" encoding="utf-8" standalone="no"?>
<!DOCTYPE svg PUBLIC "-//W3C//DTD SVG 1.1//EN"
  "http://www.w3.org/Graphics/SVG/1.1/DTD/svg11.dtd">
<svg xmlns:xlink="http://www.w3.org/1999/xlink" width="947.274841pt" height="505.354841pt" viewBox="0 0 947.274841 505.354841" xmlns="http://www.w3.org/2000/svg" version="1.1">
 <metadata>
  <rdf:RDF xmlns:dc="http://purl.org/dc/elements/1.1/" xmlns:cc="http://creativecommons.org/ns#" xmlns:rdf="http://www.w3.org/1999/02/22-rdf-syntax-ns#">
   <cc:Work>
    <dc:type rdf:resource="http://purl.org/dc/dcmitype/StillImage"/>
    <dc:date>2023-11-21T19:32:42.926980</dc:date>
    <dc:format>image/svg+xml</dc:format>
    <dc:creator>
     <cc:Agent>
      <dc:title>Matplotlib v3.7.2, https://matplotlib.org/</dc:title>
     </cc:Agent>
    </dc:creator>
   </cc:Work>
  </rdf:RDF>
 </metadata>
 <defs>
  <style type="text/css">*{stroke-linejoin: round; stroke-linecap: butt}</style>
 </defs>
 <g id="figure_1">
  <g id="patch_1">
   <path d="M 0 505.354841 
L 947.274841 505.354841 
L 947.274841 -0 
L 0 -0 
z
" style="fill: #ffffff"/>
  </g>
  <g id="axes_1">
   <g id="patch_2">
    <path d="M 103.074841 395.28 
L 940.074841 395.28 
L 940.074841 7.2 
L 103.074841 7.2 
z
" style="fill: #ffffff"/>
   </g>
   <g id="PolyCollection_1">
    <path d="M -393.000769 370.224398 
L -393.000769 370.245343 
L -390.959306 370.140298 
L -388.917842 370.050348 
L -386.876379 369.935119 
L -384.834915 369.851426 
L -382.793452 369.75952 
L -380.751989 369.655528 
L -378.710525 369.554835 
L -376.669062 369.462161 
L -374.627598 369.381764 
L -372.586135 369.286344 
L -370.544672 369.182638 
L -368.503208 369.080145 
L -366.461745 368.964962 
L -364.420281 368.866567 
L -362.378818 368.753563 
L -360.337354 368.641528 
L -358.295891 368.519139 
L -356.254428 368.409089 
L -354.212964 368.302497 
L -352.171501 368.175777 
L -350.130037 368.051923 
L -348.088574 367.931775 
L -346.047111 367.788602 
L -344.005647 367.664116 
L -341.964184 367.512402 
L -339.92272 367.36772 
L -337.881257 367.199846 
L -335.839793 367.025996 
L -333.79833 366.860054 
L -331.756867 366.674014 
L -329.715403 366.456914 
L -327.67394 366.264149 
L -325.632476 366.045113 
L -323.591013 365.793874 
L -321.54955 365.553363 
L -319.508086 365.288675 
L -317.466623 365.010249 
L -315.425159 364.726252 
L -313.383696 364.41322 
L -311.342232 364.075943 
L -309.300769 363.727221 
L -307.259306 363.356798 
L -305.217842 362.976508 
L -303.176379 362.566475 
L -301.134915 362.161477 
L -299.093452 361.721444 
L -297.051989 361.295782 
L -295.010525 360.823675 
L -292.969062 360.320862 
L -290.927598 359.843379 
L -288.886135 359.333824 
L -286.844672 358.795234 
L -284.803208 358.267501 
L -282.761745 357.731294 
L -280.720281 357.170291 
L -278.678818 356.60365 
L -276.637354 356.031885 
L -274.595891 355.436486 
L -272.554428 354.833622 
L -270.512964 354.232994 
L -268.471501 353.611801 
L -266.430037 352.986841 
L -264.388574 352.367099 
L -262.347111 351.714358 
L -260.305647 351.053072 
L -258.264184 350.391774 
L -256.22272 349.73201 
L -254.181257 349.077849 
L -252.139793 348.405639 
L -250.09833 347.745057 
L -248.056867 347.072953 
L -246.015403 346.456316 
L -243.97394 345.750797 
L -241.932476 345.101379 
L -239.891013 344.434375 
L -237.84955 343.804228 
L -235.808086 343.132063 
L -233.766623 342.491862 
L -231.725159 341.842443 
L -229.683696 341.195652 
L -227.642232 340.564533 
L -225.600769 339.93155 
L -223.559306 339.319913 
L -221.517842 338.674512 
L -219.476379 338.020466 
L -217.434915 337.396981 
L -215.393452 336.785053 
L -213.351989 336.127232 
L -211.310525 335.494414 
L -209.269062 334.856829 
L -207.227598 334.22959 
L -205.186135 333.616717 
L -203.144672 332.98742 
L -201.103208 332.351939 
L -199.061745 331.779258 
L -197.020281 331.130937 
L -194.978818 330.509651 
L -192.937354 329.89839 
L -190.895891 329.286337 
L -188.854428 328.675929 
L -186.812964 328.057767 
L -184.771501 327.467577 
L -182.730037 326.85431 
L -180.688574 326.225799 
L -178.647111 325.590468 
L -176.605647 324.948602 
L -174.564184 324.346992 
L -172.52272 323.685167 
L -170.481257 322.981662 
L -168.439793 322.313572 
L -166.39833 321.622126 
L -164.356867 320.914769 
L -162.315403 320.168283 
L -160.27394 319.408519 
L -158.232476 318.701198 
L -156.191013 317.897489 
L -154.14955 317.132548 
L -152.108086 316.309339 
L -150.066623 315.55187 
L -148.025159 314.664759 
L -145.983696 313.793934 
L -143.942232 312.9476 
L -141.900769 312.086714 
L -139.859306 311.200007 
L -137.817842 310.273415 
L -135.776379 309.403915 
L -133.734915 308.409436 
L -131.693452 307.533456 
L -129.651989 306.510359 
L -127.610525 305.519353 
L -125.569062 304.550426 
L -123.527598 303.531048 
L -121.486135 302.496177 
L -119.444672 301.552243 
L -117.403208 300.310539 
L -115.361745 299.239762 
L -113.320281 298.240415 
L -111.278818 297.113714 
L -109.237354 295.920148 
L -107.195891 294.614685 
L -105.154428 293.381276 
L -103.112964 292.34118 
L -101.071501 290.697575 
L -99.030037 289.375016 
L -96.988574 288.022534 
L -94.947111 286.622176 
L -92.905647 285.02674 
L -90.864184 283.491167 
L -88.82272 282.362634 
L -86.781257 280.932954 
L -84.739793 278.534236 
L -82.69833 276.544132 
L -80.656867 275.033238 
L -78.615403 273.080778 
L -76.57394 271.221842 
L -74.532476 269.795834 
L -72.491013 267.512543 
L -70.44955 264.998338 
L -68.408086 263.581362 
L -66.366623 262.759479 
L -64.325159 260.964991 
L -62.283696 260.094053 
L -60.242232 259.241729 
L -58.200769 256.945996 
L -56.159306 257.202136 
L -54.117842 258.223687 
L -52.076379 259.891806 
L -50.034915 257.779876 
L -47.993452 261.599879 
L -45.951989 262.860281 
L -43.910525 257.683401 
L -41.869062 258.204494 
L -39.827598 261.085128 
L -37.786135 259.518051 
L -35.744672 259.948892 
L -33.703208 270.305494 
L -31.661745 284.689097 
L -29.620281 292.493659 
L -27.578818 275.984644 
L -25.537354 284.082995 
L -23.495891 294.926871 
L -21.454428 294.883481 
L -19.412964 316.542613 
L -17.371501 313.333408 
L -15.330037 307.65421 
L -13.288574 290.216833 
L -11.247111 305.943931 
L -9.205647 315.237798 
L -7.164184 311.466486 
L -5.12272 314.191084 
L -3.081257 323.269949 
L -1.039793 322.095042 
L 1.00167 314.089401 
L 3.043133 323.878706 
L 5.084597 325.738737 
L 7.12606 322.190209 
L 9.167524 328.530368 
L 11.208987 331.011586 
L 13.25045 330.247081 
L 15.291914 328.500725 
L 17.333377 330.670792 
L 19.374841 328.727236 
L 21.416304 329.022113 
L 23.457768 330.953934 
L 25.499231 329.239977 
L 27.540694 330.243808 
L 29.582158 330.406566 
L 31.623621 329.047036 
L 33.665085 329.714151 
L 35.706548 327.584158 
L 37.748011 327.899561 
L 39.789475 328.595379 
L 41.830938 328.717327 
L 43.872402 327.776006 
L 45.913865 326.965257 
L 47.955328 326.806021 
L 49.996792 325.968273 
L 52.038255 325.905441 
L 54.079719 325.714949 
L 56.121182 324.42596 
L 58.162646 325.211253 
L 60.204109 324.24146 
L 62.245572 323.877046 
L 64.287036 323.964909 
L 66.328499 323.077528 
L 68.369963 322.965846 
L 70.411426 323.360696 
L 72.452889 323.779305 
L 74.494353 322.248464 
L 76.535816 321.94785 
L 78.57728 321.50097 
L 80.618743 324.055413 
L 82.660207 324.047439 
L 84.70167 324.990635 
L 86.743133 322.479638 
L 88.784597 320.845179 
L 90.82606 321.286898 
L 92.867524 322.894531 
L 94.908987 323.07337 
L 96.95045 319.829801 
L 98.991914 322.369431 
L 101.033377 321.386682 
L 103.074841 321.004024 
L 105.116304 319.403076 
L 107.157768 320.306672 
L 109.199231 319.384372 
L 111.240694 319.894036 
L 113.282158 318.844682 
L 115.323621 317.563962 
L 117.365085 316.095131 
L 119.406548 315.28915 
L 121.448011 314.271538 
L 123.489475 313.223658 
L 125.530938 312.878871 
L 127.572402 311.678981 
L 129.613865 310.526423 
L 131.655328 308.257075 
L 133.696792 306.175457 
L 135.738255 305.043981 
L 137.779719 302.917347 
L 139.821182 302.105435 
L 141.862646 300.135798 
L 143.904109 297.596233 
L 145.945572 295.255374 
L 147.987036 293.418604 
L 150.028499 290.67944 
L 152.069963 288.843513 
L 154.111426 286.223044 
L 156.152889 283.623053 
L 158.194353 281.237189 
L 160.235816 278.708876 
L 162.27728 275.852547 
L 164.318743 273.072706 
L 166.360207 270.422148 
L 168.40167 267.24077 
L 170.443133 264.389307 
L 172.484597 261.742522 
L 174.52606 258.893011 
L 176.567524 255.783766 
L 178.608987 252.661743 
L 180.65045 249.495201 
L 182.691914 245.597136 
L 184.733377 242.880822 
L 186.774841 239.718174 
L 188.816304 237.006095 
L 190.857768 233.187172 
L 192.899231 229.491847 
L 194.940694 226.580356 
L 196.982158 222.653245 
L 199.023621 218.58532 
L 201.065085 215.471892 
L 203.106548 211.454728 
L 205.148011 208.350221 
L 207.189475 204.507313 
L 209.230938 199.76851 
L 211.272402 195.843955 
L 213.313865 192.859568 
L 215.355328 188.297541 
L 217.396792 184.482604 
L 219.438255 180.193505 
L 221.479719 177.04154 
L 223.521182 172.209062 
L 225.562646 167.98527 
L 227.604109 167.697165 
L 229.645572 160.080357 
L 231.687036 158.110816 
L 233.728499 153.406284 
L 235.769963 150.800734 
L 237.811426 145.951272 
L 239.852889 142.405719 
L 241.894353 138.538721 
L 243.935816 135.297521 
L 245.97728 132.039223 
L 248.018743 128.281492 
L 250.060207 129.562222 
L 252.10167 120.401095 
L 254.143133 118.52919 
L 256.184597 121.677971 
L 258.22606 112.996353 
L 260.267524 113.895428 
L 262.308987 112.312959 
L 264.35045 106.664479 
L 266.391914 106.484858 
L 268.433377 112.077596 
L 270.474841 105.948305 
L 272.516304 104.842875 
L 274.557768 106.369154 
L 276.599231 105.795553 
L 278.640694 107.737578 
L 280.682158 110.506612 
L 282.723621 114.66846 
L 284.765085 129.103088 
L 286.806548 123.182456 
L 288.848011 130.808795 
L 290.889475 135.29114 
L 292.930938 138.478308 
L 294.972402 144.411017 
L 297.013865 151.625969 
L 299.055328 143.18831 
L 301.096792 153.015764 
L 303.138255 166.312351 
L 305.179719 172.612283 
L 307.221182 175.324369 
L 309.262646 193.260989 
L 311.304109 194.647312 
L 313.345572 198.674831 
L 315.387036 197.982538 
L 317.428499 212.360473 
L 319.469963 208.659632 
L 321.511426 205.449942 
L 323.552889 218.75535 
L 325.594353 227.084109 
L 327.635816 226.720922 
L 329.67728 232.837146 
L 331.718743 234.55981 
L 333.760207 235.348974 
L 335.80167 235.594089 
L 337.843133 237.526094 
L 339.884597 240.020283 
L 341.92606 249.138156 
L 343.967524 243.425327 
L 346.008987 251.276997 
L 348.05045 250.24214 
L 350.091914 248.990979 
L 352.133377 252.14635 
L 354.174841 254.907824 
L 356.216304 250.704903 
L 358.257768 254.234688 
L 360.299231 254.1228 
L 362.340694 257.896999 
L 364.382158 256.493738 
L 366.423621 254.804545 
L 368.465085 256.811367 
L 370.506548 257.032845 
L 372.548011 256.415927 
L 374.589475 255.179151 
L 376.630938 256.060568 
L 378.672402 253.410486 
L 380.713865 253.901402 
L 382.755328 257.207347 
L 384.796792 256.587042 
L 386.838255 253.719911 
L 388.879719 253.664676 
L 390.921182 253.066986 
L 392.962646 249.324415 
L 395.004109 250.510988 
L 397.045572 252.537548 
L 399.087036 248.848437 
L 401.128499 248.177267 
L 403.169963 246.20931 
L 405.211426 246.824333 
L 407.252889 246.10107 
L 409.294353 244.632436 
L 411.335816 243.865178 
L 413.37728 243.024364 
L 415.418743 241.634296 
L 417.460207 238.932228 
L 419.50167 237.862778 
L 421.543133 236.069109 
L 423.584597 232.046403 
L 425.62606 234.697849 
L 427.667524 230.107574 
L 429.708987 231.02269 
L 431.75045 230.518491 
L 433.791914 230.452562 
L 435.833377 227.943259 
L 437.874841 228.083254 
L 439.916304 227.615152 
L 441.957768 223.094862 
L 443.999231 224.117228 
L 446.040694 223.285233 
L 448.082158 223.864048 
L 450.123621 220.899783 
L 452.165085 221.705625 
L 454.206548 220.828498 
L 456.248011 216.622557 
L 458.289475 216.173454 
L 460.330938 215.02157 
L 462.372402 214.543892 
L 464.413865 212.547084 
L 466.455328 212.634865 
L 468.496792 211.643533 
L 470.538255 210.848063 
L 472.579719 209.49169 
L 474.621182 207.277836 
L 476.662646 209.229809 
L 478.704109 208.543784 
L 480.745572 206.80798 
L 482.787036 205.710269 
L 484.828499 202.987694 
L 486.869963 205.010257 
L 488.911426 204.365514 
L 490.952889 204.12907 
L 492.994353 202.543747 
L 495.035816 200.800901 
L 497.07728 199.580924 
L 499.118743 199.478097 
L 501.160207 199.055468 
L 503.20167 198.785716 
L 505.243133 196.606718 
L 507.284597 194.582768 
L 509.32606 196.922794 
L 511.367524 193.895657 
L 513.408987 194.185121 
L 515.45045 195.002125 
L 517.491914 190.386018 
L 519.533377 190.967425 
L 521.574841 191.580842 
L 523.616304 189.86372 
L 525.657768 191.772644 
L 527.699231 188.733504 
L 529.740694 186.455136 
L 531.782158 189.395776 
L 533.823621 189.318615 
L 535.865085 187.29273 
L 537.906548 188.112747 
L 539.948011 186.920479 
L 541.989475 191.33424 
L 544.030938 190.19048 
L 546.072402 190.597935 
L 548.113865 186.64709 
L 550.155328 183.914385 
L 552.196792 187.319214 
L 554.238255 191.133848 
L 556.279719 186.602959 
L 558.321182 186.185635 
L 560.362646 182.92096 
L 562.404109 183.463613 
L 564.445572 185.422003 
L 566.487036 182.940625 
L 568.528499 180.532151 
L 570.569963 184.814578 
L 572.611426 181.91833 
L 574.652889 185.66804 
L 576.694353 186.482638 
L 578.735816 180.373495 
L 580.77728 181.298815 
L 582.818743 179.441245 
L 584.860207 181.222741 
L 586.90167 183.619858 
L 588.943133 190.305373 
L 590.984597 192.824046 
L 593.02606 190.138303 
L 595.067524 196.703205 
L 597.108987 206.743763 
L 599.15045 194.839482 
L 601.191914 190.756948 
L 603.233377 195.088209 
L 605.274841 198.868428 
L 607.316304 199.613931 
L 609.357768 197.418595 
L 611.399231 205.136253 
L 613.440694 209.814905 
L 615.482158 201.291703 
L 617.523621 209.112927 
L 619.565085 205.449836 
L 621.606548 205.50356 
L 623.648011 212.653744 
L 625.689475 210.600119 
L 627.730938 216.318515 
L 629.772402 216.767795 
L 631.813865 208.772663 
L 633.855328 215.135569 
L 635.896792 214.739859 
L 637.938255 219.774359 
L 639.979719 217.721042 
L 642.021182 223.68951 
L 644.062646 219.489574 
L 646.104109 223.003487 
L 648.145572 223.285878 
L 650.187036 225.294504 
L 652.228499 219.345761 
L 654.269963 226.099538 
L 656.311426 228.0663 
L 658.352889 230.753973 
L 660.394353 235.392681 
L 662.435816 233.770877 
L 664.47728 232.538816 
L 666.518743 236.639684 
L 668.560207 240.251023 
L 670.60167 236.594705 
L 672.643133 234.761778 
L 674.684597 238.654574 
L 676.72606 241.274968 
L 678.767524 236.096762 
L 680.808987 234.898228 
L 682.85045 244.296164 
L 684.891914 247.491846 
L 686.933377 238.090767 
L 688.974841 240.820176 
L 691.016304 242.640721 
L 693.057768 244.017905 
L 695.099231 249.779344 
L 697.140694 247.276077 
L 699.182158 243.906223 
L 701.223621 247.96543 
L 703.265085 250.173034 
L 705.306548 243.943098 
L 707.348011 245.108797 
L 709.389475 244.719 
L 711.430938 254.267868 
L 713.472402 260.16829 
L 715.513865 260.909827 
L 717.555328 253.243369 
L 719.596792 250.01323 
L 721.638255 252.425992 
L 723.679719 252.958586 
L 725.721182 261.646993 
L 727.762646 251.243372 
L 729.804109 260.026223 
L 731.845572 265.560714 
L 733.887036 260.524828 
L 735.928499 269.864711 
L 737.969963 264.224306 
L 740.011426 266.396748 
L 742.052889 267.384383 
L 744.094353 269.43059 
L 746.135816 274.112288 
L 748.17728 271.237939 
L 750.218743 274.10646 
L 752.260207 275.641255 
L 754.30167 275.848859 
L 756.343133 265.183334 
L 758.384597 281.042671 
L 760.42606 286.645808 
L 762.467524 280.911603 
L 764.508987 285.469378 
L 766.55045 287.365263 
L 768.591914 284.829108 
L 770.633377 289.8805 
L 772.674841 296.507985 
L 774.716304 294.809987 
L 776.757768 296.677333 
L 778.799231 299.136128 
L 780.840694 299.87679 
L 782.882158 304.386046 
L 784.923621 295.904367 
L 786.965085 308.885537 
L 789.006548 309.167576 
L 791.048011 308.350559 
L 793.089475 302.124851 
L 795.130938 312.510083 
L 797.172402 320.571442 
L 799.213865 312.41058 
L 801.255328 314.656846 
L 803.296792 323.548439 
L 805.338255 307.824594 
L 807.379719 322.562474 
L 809.421182 314.517991 
L 811.462646 329.056266 
L 813.504109 321.869691 
L 815.545572 328.88308 
L 817.587036 330.158416 
L 819.628499 334.794484 
L 821.669963 334.980157 
L 823.711426 333.013585 
L 825.752889 332.837279 
L 827.794353 336.077305 
L 829.835816 342.486947 
L 831.87728 342.344491 
L 833.918743 342.118543 
L 835.960207 347.656516 
L 838.00167 347.807683 
L 840.043133 346.87093 
L 842.084597 346.020213 
L 844.12606 352.861497 
L 846.167524 353.974171 
L 848.208987 356.024284 
L 850.25045 352.99493 
L 852.291914 347.545178 
L 854.333377 355.965437 
L 856.374841 352.949341 
L 858.416304 356.050809 
L 860.457768 359.108878 
L 862.499231 355.998049 
L 864.540694 361.515469 
L 866.582158 358.273117 
L 868.623621 358.389899 
L 870.665085 359.88915 
L 872.706548 363.373739 
L 874.748011 362.332067 
L 876.789475 362.439928 
L 878.830938 361.004565 
L 880.872402 362.109834 
L 882.913865 363.513125 
L 884.955328 363.226663 
L 886.996792 366.666774 
L 889.038255 365.914201 
L 891.079719 368.643644 
L 893.121182 370.06996 
L 895.162646 370.734039 
L 897.204109 369.541282 
L 899.245572 369.422736 
L 901.287036 368.828021 
L 903.328499 370.428123 
L 905.369963 370.482898 
L 907.411426 368.933141 
L 909.452889 371.469571 
L 911.494353 361.880737 
L 913.535816 371.416148 
L 915.57728 374.314775 
L 917.618743 371.173721 
L 919.660207 371.375765 
L 921.70167 373.638105 
L 923.743133 374.093544 
L 925.784597 371.556737 
L 927.82606 371.193322 
L 929.867524 373.136895 
L 931.908987 372.052738 
L 933.95045 376.354474 
L 935.991914 373.6239 
L 938.033377 377.64 
L 940.074841 373.726266 
L 940.074841 365.172609 
L 940.074841 365.172609 
L 938.033377 361.685552 
L 935.991914 357.04059 
L 933.95045 362.305253 
L 931.908987 352.843339 
L 929.867524 355.996665 
L 927.82606 354.503244 
L 925.784597 345.127404 
L 923.743133 355.497304 
L 921.70167 361.389953 
L 919.660207 346.85521 
L 917.618743 353.301234 
L 915.57728 360.309444 
L 913.535816 355.673665 
L 911.494353 297.701401 
L 909.452889 354.401586 
L 907.411426 344.092565 
L 905.369963 354.447676 
L 903.328499 353.948873 
L 901.287036 350.391393 
L 899.245572 349.699122 
L 897.204109 349.294486 
L 895.162646 355.665949 
L 893.121182 354.917325 
L 891.079719 348.143949 
L 889.038255 339.961038 
L 886.996792 345.043215 
L 884.955328 335.787849 
L 882.913865 338.060443 
L 880.872402 332.673047 
L 878.830938 329.092085 
L 876.789475 335.519588 
L 874.748011 335.401108 
L 872.706548 337.697899 
L 870.665085 330.855867 
L 868.623621 324.098815 
L 866.582158 323.843135 
L 864.540694 336.298488 
L 862.499231 318.895004 
L 860.457768 330.084171 
L 858.416304 321.852438 
L 856.374841 314.073309 
L 854.333377 323.340597 
L 852.291914 294.129094 
L 850.25045 315.958536 
L 848.208987 324.812809 
L 846.167524 319.119049 
L 844.12606 317.835328 
L 842.084597 294.301107 
L 840.043133 299.550064 
L 838.00167 303.508762 
L 835.960207 304.487741 
L 833.918743 289.261232 
L 831.87728 291.862985 
L 829.835816 291.253461 
L 827.794353 279.045348 
L 825.752889 268.079397 
L 823.711426 267.711486 
L 821.669963 273.277202 
L 819.628499 273.183626 
L 817.587036 263.93883 
L 815.545572 261.324683 
L 813.504109 241.29391 
L 811.462646 263.089441 
L 809.421182 215.202406 
L 807.379719 243.597987 
L 805.338255 201.602371 
L 803.296792 248.711977 
L 801.255328 225.484912 
L 799.213865 223.100288 
L 797.172402 240.049581 
L 795.130938 220.826955 
L 793.089475 193.726803 
L 791.048011 209.305578 
L 789.006548 213.673686 
L 786.965085 213.645508 
L 784.923621 179.850796 
L 782.882158 192.006018 
L 780.840694 192.521656 
L 778.799231 191.083192 
L 776.757768 184.943303 
L 774.716304 178.86798 
L 772.674841 184.933117 
L 770.633377 167.313799 
L 768.591914 154.710762 
L 766.55045 166.097986 
L 764.508987 156.103279 
L 762.467524 149.34619 
L 760.42606 163.378232 
L 758.384597 150.120143 
L 756.343133 111.289569 
L 754.30167 136.905356 
L 752.260207 135.250754 
L 750.218743 132.969601 
L 748.17728 125.940534 
L 746.135816 133.124039 
L 744.094353 123.395384 
L 742.052889 119.403971 
L 740.011426 116.594657 
L 737.969963 109.043097 
L 735.928499 124.685292 
L 733.887036 103.419697 
L 731.845572 113.88739 
L 729.804109 102.736795 
L 727.762646 86.003844 
L 725.721182 106.154942 
L 723.679719 86.363171 
L 721.638255 87.188824 
L 719.596792 83.055603 
L 717.555328 89.842419 
L 715.513865 105.845087 
L 713.472402 105.874059 
L 711.430938 94.032162 
L 709.389475 71.64728 
L 707.348011 73.163283 
L 705.306548 73.185303 
L 703.265085 86.067893 
L 701.223621 82.736078 
L 699.182158 74.3086 
L 697.140694 82.502857 
L 695.099231 86.150338 
L 693.057768 75.951791 
L 691.016304 75.259437 
L 688.974841 71.557653 
L 686.933377 66.86721 
L 684.891914 87.685428 
L 682.85045 78.177038 
L 680.808987 62.809895 
L 678.767524 67.533984 
L 676.72606 77.866272 
L 674.684597 72.506849 
L 672.643133 66.734579 
L 670.60167 72.034931 
L 668.560207 81.65293 
L 666.518743 71.528326 
L 664.47728 66.517715 
L 662.435816 70.654778 
L 660.394353 68.571641 
L 658.352889 65.884337 
L 656.311426 62.319692 
L 654.269963 59.785475 
L 652.228499 48.386419 
L 650.187036 58.856134 
L 648.145572 56.568694 
L 646.104109 57.94195 
L 644.062646 55.403316 
L 642.021182 60.083032 
L 639.979719 51.838792 
L 637.938255 57.216069 
L 635.896792 49.561677 
L 633.855328 51.570114 
L 631.813865 42.540725 
L 629.772402 51.919033 
L 627.730938 55.293561 
L 625.689475 50.481264 
L 623.648011 51.202597 
L 621.606548 43.035725 
L 619.565085 45.264876 
L 617.523621 48.143478 
L 615.482158 38.667487 
L 613.440694 48.710278 
L 611.399231 45.849825 
L 609.357768 35.167432 
L 607.316304 39.653528 
L 605.274841 39.008953 
L 603.233377 36.354338 
L 601.191914 31.58757 
L 599.15045 36.533049 
L 597.108987 55.175111 
L 595.067524 42.92732 
L 593.02606 34.010956 
L 590.984597 37.938747 
L 588.943133 35.438028 
L 586.90167 29.518085 
L 584.860207 26.79171 
L 582.818743 24.84 
L 580.77728 29.071368 
L 578.735816 29.582305 
L 576.694353 36.872774 
L 574.652889 37.252551 
L 572.611426 34.157419 
L 570.569963 39.318643 
L 568.528499 34.153216 
L 566.487036 39.753861 
L 564.445572 42.818096 
L 562.404109 43.563548 
L 560.362646 42.553948 
L 558.321182 48.301496 
L 556.279719 49.277851 
L 554.238255 54.899342 
L 552.196792 52.737568 
L 550.155328 50.047319 
L 548.113865 54.134345 
L 546.072402 57.523735 
L 544.030938 58.404415 
L 541.989475 62.158275 
L 539.948011 57.53233 
L 537.906548 60.126057 
L 535.865085 59.696275 
L 533.823621 61.446043 
L 531.782158 61.25836 
L 529.740694 59.693388 
L 527.699231 64.398355 
L 525.657768 67.20678 
L 523.616304 64.994157 
L 521.574841 67.896085 
L 519.533377 66.12537 
L 517.491914 68.250286 
L 515.45045 73.373163 
L 513.408987 72.975727 
L 511.367524 73.557389 
L 509.32606 76.87044 
L 507.284597 74.709791 
L 505.243133 77.004917 
L 503.20167 79.99869 
L 501.160207 80.194118 
L 499.118743 81.327068 
L 497.07728 81.670479 
L 495.035816 83.1658 
L 492.994353 85.28507 
L 490.952889 86.953685 
L 488.911426 86.831478 
L 486.869963 88.254056 
L 484.828499 83.678393 
L 482.787036 89.074004 
L 480.745572 90.172289 
L 478.704109 91.689113 
L 476.662646 91.700686 
L 474.621182 90.909016 
L 472.579719 93.363403 
L 470.538255 94.8679 
L 468.496792 96.238434 
L 466.455328 96.85378 
L 464.413865 96.943797 
L 462.372402 98.292691 
L 460.330938 99.316634 
L 458.289475 100.890363 
L 456.248011 101.959661 
L 454.206548 106.844272 
L 452.165085 107.802654 
L 450.123621 106.829302 
L 448.082158 110.370738 
L 446.040694 109.383546 
L 443.999231 110.749991 
L 441.957768 108.484817 
L 439.916304 115.419201 
L 437.874841 116.14229 
L 435.833377 116.150162 
L 433.791914 119.320519 
L 431.75045 119.53509 
L 429.708987 120.536662 
L 427.667524 119.480175 
L 425.62606 125.128307 
L 423.584597 122.990581 
L 421.543133 128.482004 
L 419.50167 131.53717 
L 417.460207 133.446377 
L 415.418743 137.468552 
L 413.37728 140.392992 
L 411.335816 141.385573 
L 409.294353 143.585082 
L 407.252889 145.582688 
L 405.211426 147.373215 
L 403.169963 147.251679 
L 401.128499 150.937015 
L 399.087036 153.230976 
L 397.045572 157.782349 
L 395.004109 156.787751 
L 392.962646 156.916931 
L 390.921182 161.793074 
L 388.879719 163.628846 
L 386.838255 165.582565 
L 384.796792 169.197801 
L 382.755328 170.734252 
L 380.713865 169.184036 
L 378.672402 170.246338 
L 376.630938 173.872455 
L 374.589475 174.790793 
L 372.548011 176.724456 
L 370.506548 178.336745 
L 368.465085 179.643697 
L 366.423621 180.182799 
L 364.382158 182.417885 
L 362.340694 184.732494 
L 360.299231 182.117209 
L 358.257768 183.990272 
L 356.216304 182.638453 
L 354.174841 187.165484 
L 352.133377 186.965386 
L 350.091914 184.931531 
L 348.05045 187.408948 
L 346.008987 189.023579 
L 343.967524 183.788581 
L 341.92606 190.021436 
L 339.884597 183.635285 
L 337.843133 183.191668 
L 335.80167 182.784477 
L 333.760207 184.353466 
L 331.718743 184.744716 
L 329.67728 184.173464 
L 327.635816 180.509189 
L 325.594353 182.817162 
L 323.552889 176.429314 
L 321.511426 168.995838 
L 319.469963 171.857298 
L 317.428499 175.203452 
L 315.387036 165.576876 
L 313.345572 166.211566 
L 311.304109 163.921854 
L 309.262646 163.56999 
L 307.221182 149.612232 
L 305.179719 148.680586 
L 303.138255 143.863888 
L 301.096792 132.906918 
L 299.055328 126.434157 
L 297.013865 134.587902 
L 294.972402 129.326988 
L 292.930938 123.951638 
L 290.889475 120.440057 
L 288.848011 116.048077 
L 286.806548 108.201829 
L 284.765085 114.501022 
L 282.723621 98.742221 
L 280.682158 93.388484 
L 278.640694 90.166781 
L 276.599231 87.726964 
L 274.557768 88.29852 
L 272.516304 86.489866 
L 270.474841 88.021591 
L 268.433377 94.647116 
L 266.391914 87.800594 
L 264.35045 87.98819 
L 262.308987 94.587467 
L 260.267524 96.256746 
L 258.22606 94.869786 
L 256.184597 105.285598 
L 254.143133 100.994865 
L 252.10167 103.207035 
L 250.060207 113.855708 
L 248.018743 111.936032 
L 245.97728 116.407897 
L 243.935816 120.060732 
L 241.894353 123.857957 
L 239.852889 128.085665 
L 237.811426 132.24829 
L 235.769963 137.827247 
L 233.728499 140.707791 
L 231.687036 146.284646 
L 229.645572 148.473329 
L 227.604109 156.668944 
L 225.562646 156.658074 
L 223.521182 160.822022 
L 221.479719 165.480004 
L 219.438255 168.618212 
L 217.396792 172.725163 
L 215.355328 176.347308 
L 213.313865 180.68196 
L 211.272402 183.57432 
L 209.230938 187.216417 
L 207.189475 191.703395 
L 205.148011 195.501184 
L 203.106548 198.46858 
L 201.065085 202.240681 
L 199.023621 205.354227 
L 196.982158 209.19561 
L 194.940694 212.885642 
L 192.899231 215.552515 
L 190.857768 219.062977 
L 188.816304 222.654979 
L 186.774841 225.164922 
L 184.733377 228.168026 
L 182.691914 230.710735 
L 180.65045 234.504518 
L 178.608987 237.355497 
L 176.567524 240.316389 
L 174.52606 243.228393 
L 172.484597 245.761706 
L 170.443133 248.322955 
L 168.40167 250.944414 
L 166.360207 253.943891 
L 164.318743 256.393384 
L 162.27728 259.019824 
L 160.235816 261.415806 
L 158.194353 264.01015 
L 156.152889 266.341653 
L 154.111426 268.724701 
L 152.069963 271.147621 
L 150.028499 273.021 
L 147.987036 275.545797 
L 145.945572 277.443208 
L 143.904109 279.604333 
L 141.862646 282.088284 
L 139.821182 283.974193 
L 137.779719 284.745298 
L 135.738255 286.864733 
L 133.696792 288.107138 
L 131.655328 290.236648 
L 129.613865 292.408006 
L 127.572402 293.732005 
L 125.530938 295.057689 
L 123.489475 295.28898 
L 121.448011 296.461586 
L 119.406548 297.363335 
L 117.365085 298.102675 
L 115.323621 299.651575 
L 113.282158 300.906792 
L 111.240694 302.136189 
L 109.199231 301.471792 
L 107.157768 302.251187 
L 105.116304 301.271078 
L 103.074841 303.071116 
L 101.033377 303.202294 
L 98.991914 304.710071 
L 96.95045 301.911569 
L 94.908987 305.243689 
L 92.867524 304.981506 
L 90.82606 303.18177 
L 88.784597 302.683591 
L 86.743133 304.407703 
L 84.70167 307.14348 
L 82.660207 306.024575 
L 80.618743 305.952811 
L 78.57728 302.991624 
L 76.535816 302.842383 
L 74.494353 303.657309 
L 72.452889 305.36969 
L 70.411426 304.783976 
L 68.369963 304.270933 
L 66.328499 304.360422 
L 64.287036 305.347074 
L 62.245572 304.964578 
L 60.204109 305.549149 
L 58.162646 306.67383 
L 56.121182 305.687984 
L 54.079719 307.124986 
L 52.038255 307.340835 
L 49.996792 307.391518 
L 47.955328 308.275831 
L 45.913865 308.419146 
L 43.872402 309.505719 
L 41.830938 310.661257 
L 39.789475 310.543135 
L 37.748011 309.858442 
L 35.706548 309.239044 
L 33.665085 311.982364 
L 31.623621 311.333544 
L 29.582158 313.021406 
L 27.540694 312.898078 
L 25.499231 312.08967 
L 23.457768 313.79675 
L 21.416304 312.02335 
L 19.374841 311.962208 
L 17.333377 314.12964 
L 15.291914 312.265302 
L 13.25045 314.288644 
L 11.208987 315.157155 
L 9.167524 313.014409 
L 7.12606 306.904759 
L 5.084597 310.705705 
L 3.043133 308.94911 
L 1.00167 300.035985 
L -1.039793 307.821872 
L -3.081257 309.235152 
L -5.12272 300.993348 
L -7.164184 298.497774 
L -9.205647 302.60642 
L -11.247111 293.954508 
L -13.288574 278.564064 
L -15.330037 296.143006 
L -17.371501 301.770498 
L -19.412964 305.235611 
L -21.454428 284.512372 
L -23.495891 284.798359 
L -25.537354 274.091406 
L -27.578818 265.892822 
L -29.620281 283.172767 
L -31.661745 275.482009 
L -33.703208 260.932332 
L -35.744672 250.473111 
L -37.786135 250.342461 
L -39.827598 252.303456 
L -41.869062 249.613891 
L -43.910525 249.363306 
L -45.951989 255.06315 
L -47.993452 254.000134 
L -50.034915 250.309838 
L -52.076379 252.767089 
L -54.117842 251.32869 
L -56.159306 250.552729 
L -58.200769 250.621998 
L -60.242232 253.206089 
L -62.283696 254.340612 
L -64.325159 255.447472 
L -66.366623 257.543593 
L -68.408086 258.606313 
L -70.44955 260.210013 
L -72.491013 262.771398 
L -74.532476 264.984668 
L -76.57394 266.330332 
L -78.615403 268.106132 
L -80.656867 270.046343 
L -82.69833 271.412052 
L -84.739793 273.414993 
L -86.781257 275.875445 
L -88.82272 277.289566 
L -90.864184 278.287981 
L -92.905647 279.831563 
L -94.947111 281.370597 
L -96.988574 282.763884 
L -99.030037 284.099041 
L -101.071501 285.385647 
L -103.112964 287.147885 
L -105.154428 288.062494 
L -107.195891 289.330618 
L -109.237354 290.639437 
L -111.278818 291.869805 
L -113.320281 293.017079 
L -115.361745 293.962584 
L -117.403208 294.986511 
L -119.444672 296.344267 
L -121.486135 297.226649 
L -123.527598 298.282516 
L -125.569062 299.314114 
L -127.610525 300.321561 
L -129.651989 301.352715 
L -131.693452 302.404987 
L -133.734915 303.277264 
L -135.776379 304.297307 
L -137.817842 305.192559 
L -139.859306 306.151128 
L -141.900769 307.042206 
L -143.942232 307.962461 
L -145.983696 308.820679 
L -148.025159 309.73629 
L -150.066623 310.712391 
L -152.108086 311.471612 
L -154.14955 312.389301 
L -156.191013 313.174894 
L -158.232476 314.085398 
L -160.27394 314.752425 
L -162.315403 315.601387 
L -164.356867 316.4097 
L -166.39833 317.178377 
L -168.439793 317.949236 
L -170.481257 318.686062 
L -172.52272 319.530245 
L -174.564184 320.292728 
L -176.605647 320.91766 
L -178.647111 321.661269 
L -180.688574 322.404455 
L -182.730037 323.144225 
L -184.771501 323.857191 
L -186.812964 324.522074 
L -188.854428 325.254204 
L -190.895891 325.971925 
L -192.937354 326.69378 
L -194.978818 327.413133 
L -197.020281 328.152202 
L -199.061745 328.920961 
L -201.103208 329.581873 
L -203.144672 330.339823 
L -205.186135 331.083457 
L -207.227598 331.797857 
L -209.269062 332.534786 
L -211.310525 333.287213 
L -213.351989 334.017517 
L -215.393452 334.783284 
L -217.434915 335.482939 
L -219.476379 336.196133 
L -221.517842 336.950532 
L -223.559306 337.678697 
L -225.600769 338.361883 
L -227.642232 339.074032 
L -229.683696 339.772589 
L -231.725159 340.487325 
L -233.766623 341.204954 
L -235.808086 341.905496 
L -237.84955 342.637876 
L -239.891013 343.310917 
L -241.932476 344.027354 
L -243.97394 344.719789 
L -246.015403 345.47754 
L -248.056867 346.129153 
L -250.09833 346.845144 
L -252.139793 347.545506 
L -254.181257 348.258494 
L -256.22272 348.947065 
L -258.264184 349.642411 
L -260.305647 350.340748 
L -262.347111 351.038224 
L -264.388574 351.725044 
L -266.430037 352.367175 
L -268.471501 352.999895 
L -270.512964 353.632834 
L -272.554428 354.243708 
L -274.595891 354.865812 
L -276.637354 355.479883 
L -278.678818 356.06624 
L -280.720281 356.651764 
L -282.761745 357.233929 
L -284.803208 357.788713 
L -286.844672 358.334428 
L -288.886135 358.903888 
L -290.927598 359.430451 
L -292.969062 359.923634 
L -295.010525 360.453459 
L -297.051989 360.946285 
L -299.093452 361.384567 
L -301.134915 361.842955 
L -303.176379 362.261916 
L -305.217842 362.69475 
L -307.259306 363.089063 
L -309.300769 363.476976 
L -311.342232 363.839796 
L -313.383696 364.190293 
L -315.425159 364.518116 
L -317.466623 364.802122 
L -319.508086 365.089247 
L -321.54955 365.361549 
L -323.591013 365.604341 
L -325.632476 365.867527 
L -327.67394 366.089064 
L -329.715403 366.279987 
L -331.756867 366.503978 
L -333.79833 366.692541 
L -335.839793 366.856227 
L -337.881257 367.035385 
L -339.92272 367.209201 
L -341.964184 367.352181 
L -344.005647 367.508249 
L -346.047111 367.629499 
L -348.088574 367.779013 
L -350.130037 367.899253 
L -352.171501 368.026734 
L -354.212964 368.160839 
L -356.254428 368.269253 
L -358.295891 368.383189 
L -360.337354 368.516933 
L -362.378818 368.639085 
L -364.420281 368.764406 
L -366.461745 368.866269 
L -368.503208 368.996858 
L -370.544672 369.111529 
L -372.586135 369.230589 
L -374.627598 369.330039 
L -376.669062 369.416894 
L -378.710525 369.517818 
L -380.751989 369.63277 
L -382.793452 369.747242 
L -384.834915 369.838236 
L -386.876379 369.92018 
L -388.917842 370.028884 
L -390.959306 370.117269 
L -393.000769 370.224398 
z
" clip-path="url(#p186fc7de91)" style="fill: #008000; fill-opacity: 0.3; stroke: #008000; stroke-opacity: 0.3"/>
   </g>
   <g id="matplotlib.axis_1">
    <g id="xtick_1">
     <g id="line2d_1">
      <defs>
       <path id="mf08db2f4ef" d="M 0 0 
L 0 3.5 
" style="stroke: #000000; stroke-width: 0.8"/>
      </defs>
      <g>
       <use xlink:href="#mf08db2f4ef" x="103.074841" y="395.28" style="stroke: #000000; stroke-width: 0.8"/>
      </g>
     </g>
     <g id="text_1">
      <!-- 2022-03-01 -->
      <g transform="translate(17.945813 495.213718) rotate(-45) scale(0.2 -0.2)">
       <defs>
        <path id="DejaVuSans-32" d="M 1228 531 
L 3431 531 
L 3431 0 
L 469 0 
L 469 531 
Q 828 903 1448 1529 
Q 2069 2156 2228 2338 
Q 2531 2678 2651 2914 
Q 2772 3150 2772 3378 
Q 2772 3750 2511 3984 
Q 2250 4219 1831 4219 
Q 1534 4219 1204 4116 
Q 875 4013 500 3803 
L 500 4441 
Q 881 4594 1212 4672 
Q 1544 4750 1819 4750 
Q 2544 4750 2975 4387 
Q 3406 4025 3406 3419 
Q 3406 3131 3298 2873 
Q 3191 2616 2906 2266 
Q 2828 2175 2409 1742 
Q 1991 1309 1228 531 
z
" transform="scale(0.015625)"/>
        <path id="DejaVuSans-30" d="M 2034 4250 
Q 1547 4250 1301 3770 
Q 1056 3291 1056 2328 
Q 1056 1369 1301 889 
Q 1547 409 2034 409 
Q 2525 409 2770 889 
Q 3016 1369 3016 2328 
Q 3016 3291 2770 3770 
Q 2525 4250 2034 4250 
z
M 2034 4750 
Q 2819 4750 3233 4129 
Q 3647 3509 3647 2328 
Q 3647 1150 3233 529 
Q 2819 -91 2034 -91 
Q 1250 -91 836 529 
Q 422 1150 422 2328 
Q 422 3509 836 4129 
Q 1250 4750 2034 4750 
z
" transform="scale(0.015625)"/>
        <path id="DejaVuSans-2d" d="M 313 2009 
L 1997 2009 
L 1997 1497 
L 313 1497 
L 313 2009 
z
" transform="scale(0.015625)"/>
        <path id="DejaVuSans-33" d="M 2597 2516 
Q 3050 2419 3304 2112 
Q 3559 1806 3559 1356 
Q 3559 666 3084 287 
Q 2609 -91 1734 -91 
Q 1441 -91 1130 -33 
Q 819 25 488 141 
L 488 750 
Q 750 597 1062 519 
Q 1375 441 1716 441 
Q 2309 441 2620 675 
Q 2931 909 2931 1356 
Q 2931 1769 2642 2001 
Q 2353 2234 1838 2234 
L 1294 2234 
L 1294 2753 
L 1863 2753 
Q 2328 2753 2575 2939 
Q 2822 3125 2822 3475 
Q 2822 3834 2567 4026 
Q 2313 4219 1838 4219 
Q 1578 4219 1281 4162 
Q 984 4106 628 3988 
L 628 4550 
Q 988 4650 1302 4700 
Q 1616 4750 1894 4750 
Q 2613 4750 3031 4423 
Q 3450 4097 3450 3541 
Q 3450 3153 3228 2886 
Q 3006 2619 2597 2516 
z
" transform="scale(0.015625)"/>
        <path id="DejaVuSans-31" d="M 794 531 
L 1825 531 
L 1825 4091 
L 703 3866 
L 703 4441 
L 1819 4666 
L 2450 4666 
L 2450 531 
L 3481 531 
L 3481 0 
L 794 0 
L 794 531 
z
" transform="scale(0.015625)"/>
       </defs>
       <use xlink:href="#DejaVuSans-32"/>
       <use xlink:href="#DejaVuSans-30" x="63.623047"/>
       <use xlink:href="#DejaVuSans-32" x="127.246094"/>
       <use xlink:href="#DejaVuSans-32" x="190.869141"/>
       <use xlink:href="#DejaVuSans-2d" x="254.492188"/>
       <use xlink:href="#DejaVuSans-30" x="290.576172"/>
       <use xlink:href="#DejaVuSans-33" x="354.199219"/>
       <use xlink:href="#DejaVuSans-2d" x="417.822266"/>
       <use xlink:href="#DejaVuSans-30" x="453.90625"/>
       <use xlink:href="#DejaVuSans-31" x="517.529297"/>
      </g>
     </g>
    </g>
    <g id="xtick_2">
     <g id="line2d_2">
      <g>
       <use xlink:href="#mf08db2f4ef" x="160.235816" y="395.28" style="stroke: #000000; stroke-width: 0.8"/>
      </g>
     </g>
     <g id="text_2">
      <!-- 2022-03-29 -->
      <g transform="translate(75.106789 495.213718) rotate(-45) scale(0.2 -0.2)">
       <defs>
        <path id="DejaVuSans-39" d="M 703 97 
L 703 672 
Q 941 559 1184 500 
Q 1428 441 1663 441 
Q 2288 441 2617 861 
Q 2947 1281 2994 2138 
Q 2813 1869 2534 1725 
Q 2256 1581 1919 1581 
Q 1219 1581 811 2004 
Q 403 2428 403 3163 
Q 403 3881 828 4315 
Q 1253 4750 1959 4750 
Q 2769 4750 3195 4129 
Q 3622 3509 3622 2328 
Q 3622 1225 3098 567 
Q 2575 -91 1691 -91 
Q 1453 -91 1209 -44 
Q 966 3 703 97 
z
M 1959 2075 
Q 2384 2075 2632 2365 
Q 2881 2656 2881 3163 
Q 2881 3666 2632 3958 
Q 2384 4250 1959 4250 
Q 1534 4250 1286 3958 
Q 1038 3666 1038 3163 
Q 1038 2656 1286 2365 
Q 1534 2075 1959 2075 
z
" transform="scale(0.015625)"/>
       </defs>
       <use xlink:href="#DejaVuSans-32"/>
       <use xlink:href="#DejaVuSans-30" x="63.623047"/>
       <use xlink:href="#DejaVuSans-32" x="127.246094"/>
       <use xlink:href="#DejaVuSans-32" x="190.869141"/>
       <use xlink:href="#DejaVuSans-2d" x="254.492188"/>
       <use xlink:href="#DejaVuSans-30" x="290.576172"/>
       <use xlink:href="#DejaVuSans-33" x="354.199219"/>
       <use xlink:href="#DejaVuSans-2d" x="417.822266"/>
       <use xlink:href="#DejaVuSans-32" x="453.90625"/>
       <use xlink:href="#DejaVuSans-39" x="517.529297"/>
      </g>
     </g>
    </g>
    <g id="xtick_3">
     <g id="line2d_3">
      <g>
       <use xlink:href="#mf08db2f4ef" x="217.396792" y="395.28" style="stroke: #000000; stroke-width: 0.8"/>
      </g>
     </g>
     <g id="text_3">
      <!-- 2022-04-26 -->
      <g transform="translate(132.267765 495.213718) rotate(-45) scale(0.2 -0.2)">
       <defs>
        <path id="DejaVuSans-34" d="M 2419 4116 
L 825 1625 
L 2419 1625 
L 2419 4116 
z
M 2253 4666 
L 3047 4666 
L 3047 1625 
L 3713 1625 
L 3713 1100 
L 3047 1100 
L 3047 0 
L 2419 0 
L 2419 1100 
L 313 1100 
L 313 1709 
L 2253 4666 
z
" transform="scale(0.015625)"/>
        <path id="DejaVuSans-36" d="M 2113 2584 
Q 1688 2584 1439 2293 
Q 1191 2003 1191 1497 
Q 1191 994 1439 701 
Q 1688 409 2113 409 
Q 2538 409 2786 701 
Q 3034 994 3034 1497 
Q 3034 2003 2786 2293 
Q 2538 2584 2113 2584 
z
M 3366 4563 
L 3366 3988 
Q 3128 4100 2886 4159 
Q 2644 4219 2406 4219 
Q 1781 4219 1451 3797 
Q 1122 3375 1075 2522 
Q 1259 2794 1537 2939 
Q 1816 3084 2150 3084 
Q 2853 3084 3261 2657 
Q 3669 2231 3669 1497 
Q 3669 778 3244 343 
Q 2819 -91 2113 -91 
Q 1303 -91 875 529 
Q 447 1150 447 2328 
Q 447 3434 972 4092 
Q 1497 4750 2381 4750 
Q 2619 4750 2861 4703 
Q 3103 4656 3366 4563 
z
" transform="scale(0.015625)"/>
       </defs>
       <use xlink:href="#DejaVuSans-32"/>
       <use xlink:href="#DejaVuSans-30" x="63.623047"/>
       <use xlink:href="#DejaVuSans-32" x="127.246094"/>
       <use xlink:href="#DejaVuSans-32" x="190.869141"/>
       <use xlink:href="#DejaVuSans-2d" x="254.492188"/>
       <use xlink:href="#DejaVuSans-30" x="290.576172"/>
       <use xlink:href="#DejaVuSans-34" x="354.199219"/>
       <use xlink:href="#DejaVuSans-2d" x="417.822266"/>
       <use xlink:href="#DejaVuSans-32" x="453.90625"/>
       <use xlink:href="#DejaVuSans-36" x="517.529297"/>
      </g>
     </g>
    </g>
    <g id="xtick_4">
     <g id="line2d_4">
      <g>
       <use xlink:href="#mf08db2f4ef" x="274.557768" y="395.28" style="stroke: #000000; stroke-width: 0.8"/>
      </g>
     </g>
     <g id="text_4">
      <!-- 2022-05-24 -->
      <g transform="translate(189.42874 495.213718) rotate(-45) scale(0.2 -0.2)">
       <defs>
        <path id="DejaVuSans-35" d="M 691 4666 
L 3169 4666 
L 3169 4134 
L 1269 4134 
L 1269 2991 
Q 1406 3038 1543 3061 
Q 1681 3084 1819 3084 
Q 2600 3084 3056 2656 
Q 3513 2228 3513 1497 
Q 3513 744 3044 326 
Q 2575 -91 1722 -91 
Q 1428 -91 1123 -41 
Q 819 9 494 109 
L 494 744 
Q 775 591 1075 516 
Q 1375 441 1709 441 
Q 2250 441 2565 725 
Q 2881 1009 2881 1497 
Q 2881 1984 2565 2268 
Q 2250 2553 1709 2553 
Q 1456 2553 1204 2497 
Q 953 2441 691 2322 
L 691 4666 
z
" transform="scale(0.015625)"/>
       </defs>
       <use xlink:href="#DejaVuSans-32"/>
       <use xlink:href="#DejaVuSans-30" x="63.623047"/>
       <use xlink:href="#DejaVuSans-32" x="127.246094"/>
       <use xlink:href="#DejaVuSans-32" x="190.869141"/>
       <use xlink:href="#DejaVuSans-2d" x="254.492188"/>
       <use xlink:href="#DejaVuSans-30" x="290.576172"/>
       <use xlink:href="#DejaVuSans-35" x="354.199219"/>
       <use xlink:href="#DejaVuSans-2d" x="417.822266"/>
       <use xlink:href="#DejaVuSans-32" x="453.90625"/>
       <use xlink:href="#DejaVuSans-34" x="517.529297"/>
      </g>
     </g>
    </g>
    <g id="xtick_5">
     <g id="line2d_5">
      <g>
       <use xlink:href="#mf08db2f4ef" x="331.718743" y="395.28" style="stroke: #000000; stroke-width: 0.8"/>
      </g>
     </g>
     <g id="text_5">
      <!-- 2022-06-21 -->
      <g transform="translate(246.589716 495.213718) rotate(-45) scale(0.2 -0.2)">
       <use xlink:href="#DejaVuSans-32"/>
       <use xlink:href="#DejaVuSans-30" x="63.623047"/>
       <use xlink:href="#DejaVuSans-32" x="127.246094"/>
       <use xlink:href="#DejaVuSans-32" x="190.869141"/>
       <use xlink:href="#DejaVuSans-2d" x="254.492188"/>
       <use xlink:href="#DejaVuSans-30" x="290.576172"/>
       <use xlink:href="#DejaVuSans-36" x="354.199219"/>
       <use xlink:href="#DejaVuSans-2d" x="417.822266"/>
       <use xlink:href="#DejaVuSans-32" x="453.90625"/>
       <use xlink:href="#DejaVuSans-31" x="517.529297"/>
      </g>
     </g>
    </g>
    <g id="xtick_6">
     <g id="line2d_6">
      <g>
       <use xlink:href="#mf08db2f4ef" x="388.879719" y="395.28" style="stroke: #000000; stroke-width: 0.8"/>
      </g>
     </g>
     <g id="text_6">
      <!-- 2022-07-19 -->
      <g transform="translate(303.750691 495.213718) rotate(-45) scale(0.2 -0.2)">
       <defs>
        <path id="DejaVuSans-37" d="M 525 4666 
L 3525 4666 
L 3525 4397 
L 1831 0 
L 1172 0 
L 2766 4134 
L 525 4134 
L 525 4666 
z
" transform="scale(0.015625)"/>
       </defs>
       <use xlink:href="#DejaVuSans-32"/>
       <use xlink:href="#DejaVuSans-30" x="63.623047"/>
       <use xlink:href="#DejaVuSans-32" x="127.246094"/>
       <use xlink:href="#DejaVuSans-32" x="190.869141"/>
       <use xlink:href="#DejaVuSans-2d" x="254.492188"/>
       <use xlink:href="#DejaVuSans-30" x="290.576172"/>
       <use xlink:href="#DejaVuSans-37" x="354.199219"/>
       <use xlink:href="#DejaVuSans-2d" x="417.822266"/>
       <use xlink:href="#DejaVuSans-31" x="453.90625"/>
       <use xlink:href="#DejaVuSans-39" x="517.529297"/>
      </g>
     </g>
    </g>
    <g id="xtick_7">
     <g id="line2d_7">
      <g>
       <use xlink:href="#mf08db2f4ef" x="446.040694" y="395.28" style="stroke: #000000; stroke-width: 0.8"/>
      </g>
     </g>
     <g id="text_7">
      <!-- 2022-08-16 -->
      <g transform="translate(360.911667 495.213718) rotate(-45) scale(0.2 -0.2)">
       <defs>
        <path id="DejaVuSans-38" d="M 2034 2216 
Q 1584 2216 1326 1975 
Q 1069 1734 1069 1313 
Q 1069 891 1326 650 
Q 1584 409 2034 409 
Q 2484 409 2743 651 
Q 3003 894 3003 1313 
Q 3003 1734 2745 1975 
Q 2488 2216 2034 2216 
z
M 1403 2484 
Q 997 2584 770 2862 
Q 544 3141 544 3541 
Q 544 4100 942 4425 
Q 1341 4750 2034 4750 
Q 2731 4750 3128 4425 
Q 3525 4100 3525 3541 
Q 3525 3141 3298 2862 
Q 3072 2584 2669 2484 
Q 3125 2378 3379 2068 
Q 3634 1759 3634 1313 
Q 3634 634 3220 271 
Q 2806 -91 2034 -91 
Q 1263 -91 848 271 
Q 434 634 434 1313 
Q 434 1759 690 2068 
Q 947 2378 1403 2484 
z
M 1172 3481 
Q 1172 3119 1398 2916 
Q 1625 2713 2034 2713 
Q 2441 2713 2670 2916 
Q 2900 3119 2900 3481 
Q 2900 3844 2670 4047 
Q 2441 4250 2034 4250 
Q 1625 4250 1398 4047 
Q 1172 3844 1172 3481 
z
" transform="scale(0.015625)"/>
       </defs>
       <use xlink:href="#DejaVuSans-32"/>
       <use xlink:href="#DejaVuSans-30" x="63.623047"/>
       <use xlink:href="#DejaVuSans-32" x="127.246094"/>
       <use xlink:href="#DejaVuSans-32" x="190.869141"/>
       <use xlink:href="#DejaVuSans-2d" x="254.492188"/>
       <use xlink:href="#DejaVuSans-30" x="290.576172"/>
       <use xlink:href="#DejaVuSans-38" x="354.199219"/>
       <use xlink:href="#DejaVuSans-2d" x="417.822266"/>
       <use xlink:href="#DejaVuSans-31" x="453.90625"/>
       <use xlink:href="#DejaVuSans-36" x="517.529297"/>
      </g>
     </g>
    </g>
    <g id="xtick_8">
     <g id="line2d_8">
      <g>
       <use xlink:href="#mf08db2f4ef" x="503.20167" y="395.28" style="stroke: #000000; stroke-width: 0.8"/>
      </g>
     </g>
     <g id="text_8">
      <!-- 2022-09-13 -->
      <g transform="translate(418.072643 495.213718) rotate(-45) scale(0.2 -0.2)">
       <use xlink:href="#DejaVuSans-32"/>
       <use xlink:href="#DejaVuSans-30" x="63.623047"/>
       <use xlink:href="#DejaVuSans-32" x="127.246094"/>
       <use xlink:href="#DejaVuSans-32" x="190.869141"/>
       <use xlink:href="#DejaVuSans-2d" x="254.492188"/>
       <use xlink:href="#DejaVuSans-30" x="290.576172"/>
       <use xlink:href="#DejaVuSans-39" x="354.199219"/>
       <use xlink:href="#DejaVuSans-2d" x="417.822266"/>
       <use xlink:href="#DejaVuSans-31" x="453.90625"/>
       <use xlink:href="#DejaVuSans-33" x="517.529297"/>
      </g>
     </g>
    </g>
    <g id="xtick_9">
     <g id="line2d_9">
      <g>
       <use xlink:href="#mf08db2f4ef" x="560.362646" y="395.28" style="stroke: #000000; stroke-width: 0.8"/>
      </g>
     </g>
     <g id="text_9">
      <!-- 2022-10-11 -->
      <g transform="translate(475.233618 495.213718) rotate(-45) scale(0.2 -0.2)">
       <use xlink:href="#DejaVuSans-32"/>
       <use xlink:href="#DejaVuSans-30" x="63.623047"/>
       <use xlink:href="#DejaVuSans-32" x="127.246094"/>
       <use xlink:href="#DejaVuSans-32" x="190.869141"/>
       <use xlink:href="#DejaVuSans-2d" x="254.492188"/>
       <use xlink:href="#DejaVuSans-31" x="290.576172"/>
       <use xlink:href="#DejaVuSans-30" x="354.199219"/>
       <use xlink:href="#DejaVuSans-2d" x="417.822266"/>
       <use xlink:href="#DejaVuSans-31" x="453.90625"/>
       <use xlink:href="#DejaVuSans-31" x="517.529297"/>
      </g>
     </g>
    </g>
    <g id="xtick_10">
     <g id="line2d_10">
      <g>
       <use xlink:href="#mf08db2f4ef" x="617.523621" y="395.28" style="stroke: #000000; stroke-width: 0.8"/>
      </g>
     </g>
     <g id="text_10">
      <!-- 2022-11-08 -->
      <g transform="translate(532.394594 495.213718) rotate(-45) scale(0.2 -0.2)">
       <use xlink:href="#DejaVuSans-32"/>
       <use xlink:href="#DejaVuSans-30" x="63.623047"/>
       <use xlink:href="#DejaVuSans-32" x="127.246094"/>
       <use xlink:href="#DejaVuSans-32" x="190.869141"/>
       <use xlink:href="#DejaVuSans-2d" x="254.492188"/>
       <use xlink:href="#DejaVuSans-31" x="290.576172"/>
       <use xlink:href="#DejaVuSans-31" x="354.199219"/>
       <use xlink:href="#DejaVuSans-2d" x="417.822266"/>
       <use xlink:href="#DejaVuSans-30" x="453.90625"/>
       <use xlink:href="#DejaVuSans-38" x="517.529297"/>
      </g>
     </g>
    </g>
    <g id="xtick_11">
     <g id="line2d_11">
      <g>
       <use xlink:href="#mf08db2f4ef" x="674.684597" y="395.28" style="stroke: #000000; stroke-width: 0.8"/>
      </g>
     </g>
     <g id="text_11">
      <!-- 2022-12-06 -->
      <g transform="translate(589.555569 495.213718) rotate(-45) scale(0.2 -0.2)">
       <use xlink:href="#DejaVuSans-32"/>
       <use xlink:href="#DejaVuSans-30" x="63.623047"/>
       <use xlink:href="#DejaVuSans-32" x="127.246094"/>
       <use xlink:href="#DejaVuSans-32" x="190.869141"/>
       <use xlink:href="#DejaVuSans-2d" x="254.492188"/>
       <use xlink:href="#DejaVuSans-31" x="290.576172"/>
       <use xlink:href="#DejaVuSans-32" x="354.199219"/>
       <use xlink:href="#DejaVuSans-2d" x="417.822266"/>
       <use xlink:href="#DejaVuSans-30" x="453.90625"/>
       <use xlink:href="#DejaVuSans-36" x="517.529297"/>
      </g>
     </g>
    </g>
    <g id="xtick_12">
     <g id="line2d_12">
      <g>
       <use xlink:href="#mf08db2f4ef" x="731.845572" y="395.28" style="stroke: #000000; stroke-width: 0.8"/>
      </g>
     </g>
     <g id="text_12">
      <!-- 2023-01-03 -->
      <g transform="translate(646.716545 495.213718) rotate(-45) scale(0.2 -0.2)">
       <use xlink:href="#DejaVuSans-32"/>
       <use xlink:href="#DejaVuSans-30" x="63.623047"/>
       <use xlink:href="#DejaVuSans-32" x="127.246094"/>
       <use xlink:href="#DejaVuSans-33" x="190.869141"/>
       <use xlink:href="#DejaVuSans-2d" x="254.492188"/>
       <use xlink:href="#DejaVuSans-30" x="290.576172"/>
       <use xlink:href="#DejaVuSans-31" x="354.199219"/>
       <use xlink:href="#DejaVuSans-2d" x="417.822266"/>
       <use xlink:href="#DejaVuSans-30" x="453.90625"/>
       <use xlink:href="#DejaVuSans-33" x="517.529297"/>
      </g>
     </g>
    </g>
    <g id="xtick_13">
     <g id="line2d_13">
      <g>
       <use xlink:href="#mf08db2f4ef" x="789.006548" y="395.28" style="stroke: #000000; stroke-width: 0.8"/>
      </g>
     </g>
     <g id="text_13">
      <!-- 2023-01-31 -->
      <g transform="translate(703.877521 495.213718) rotate(-45) scale(0.2 -0.2)">
       <use xlink:href="#DejaVuSans-32"/>
       <use xlink:href="#DejaVuSans-30" x="63.623047"/>
       <use xlink:href="#DejaVuSans-32" x="127.246094"/>
       <use xlink:href="#DejaVuSans-33" x="190.869141"/>
       <use xlink:href="#DejaVuSans-2d" x="254.492188"/>
       <use xlink:href="#DejaVuSans-30" x="290.576172"/>
       <use xlink:href="#DejaVuSans-31" x="354.199219"/>
       <use xlink:href="#DejaVuSans-2d" x="417.822266"/>
       <use xlink:href="#DejaVuSans-33" x="453.90625"/>
       <use xlink:href="#DejaVuSans-31" x="517.529297"/>
      </g>
     </g>
    </g>
    <g id="xtick_14">
     <g id="line2d_14">
      <g>
       <use xlink:href="#mf08db2f4ef" x="846.167524" y="395.28" style="stroke: #000000; stroke-width: 0.8"/>
      </g>
     </g>
     <g id="text_14">
      <!-- 2023-02-28 -->
      <g transform="translate(761.038496 495.213718) rotate(-45) scale(0.2 -0.2)">
       <use xlink:href="#DejaVuSans-32"/>
       <use xlink:href="#DejaVuSans-30" x="63.623047"/>
       <use xlink:href="#DejaVuSans-32" x="127.246094"/>
       <use xlink:href="#DejaVuSans-33" x="190.869141"/>
       <use xlink:href="#DejaVuSans-2d" x="254.492188"/>
       <use xlink:href="#DejaVuSans-30" x="290.576172"/>
       <use xlink:href="#DejaVuSans-32" x="354.199219"/>
       <use xlink:href="#DejaVuSans-2d" x="417.822266"/>
       <use xlink:href="#DejaVuSans-32" x="453.90625"/>
       <use xlink:href="#DejaVuSans-38" x="517.529297"/>
      </g>
     </g>
    </g>
    <g id="xtick_15">
     <g id="line2d_15">
      <g>
       <use xlink:href="#mf08db2f4ef" x="903.328499" y="395.28" style="stroke: #000000; stroke-width: 0.8"/>
      </g>
     </g>
     <g id="text_15">
      <!-- 2023-03-28 -->
      <g transform="translate(818.199472 495.213718) rotate(-45) scale(0.2 -0.2)">
       <use xlink:href="#DejaVuSans-32"/>
       <use xlink:href="#DejaVuSans-30" x="63.623047"/>
       <use xlink:href="#DejaVuSans-32" x="127.246094"/>
       <use xlink:href="#DejaVuSans-33" x="190.869141"/>
       <use xlink:href="#DejaVuSans-2d" x="254.492188"/>
       <use xlink:href="#DejaVuSans-30" x="290.576172"/>
       <use xlink:href="#DejaVuSans-33" x="354.199219"/>
       <use xlink:href="#DejaVuSans-2d" x="417.822266"/>
       <use xlink:href="#DejaVuSans-32" x="453.90625"/>
       <use xlink:href="#DejaVuSans-38" x="517.529297"/>
      </g>
     </g>
    </g>
    <g id="xtick_16">
     <g id="line2d_16">
      <g>
       <use xlink:href="#mf08db2f4ef" x="940.074841" y="395.28" style="stroke: #000000; stroke-width: 0.8"/>
      </g>
     </g>
     <g id="text_16">
      <!-- 2023-04-15 -->
      <g transform="translate(854.945813 495.213718) rotate(-45) scale(0.2 -0.2)">
       <use xlink:href="#DejaVuSans-32"/>
       <use xlink:href="#DejaVuSans-30" x="63.623047"/>
       <use xlink:href="#DejaVuSans-32" x="127.246094"/>
       <use xlink:href="#DejaVuSans-33" x="190.869141"/>
       <use xlink:href="#DejaVuSans-2d" x="254.492188"/>
       <use xlink:href="#DejaVuSans-30" x="290.576172"/>
       <use xlink:href="#DejaVuSans-34" x="354.199219"/>
       <use xlink:href="#DejaVuSans-2d" x="417.822266"/>
       <use xlink:href="#DejaVuSans-31" x="453.90625"/>
       <use xlink:href="#DejaVuSans-35" x="517.529297"/>
      </g>
     </g>
    </g>
   </g>
   <g id="matplotlib.axis_2">
    <g id="ytick_1">
     <g id="line2d_17">
      <defs>
       <path id="m42e20ac43c" d="M 0 0 
L -3.5 0 
" style="stroke: #000000; stroke-width: 0.8"/>
      </defs>
      <g>
       <use xlink:href="#m42e20ac43c" x="103.074841" y="370.327899" style="stroke: #000000; stroke-width: 0.8"/>
      </g>
     </g>
     <g id="text_17">
      <!-- 0.00 -->
      <g transform="translate(51.543591 377.926337) scale(0.2 -0.2)">
       <defs>
        <path id="DejaVuSans-2e" d="M 684 794 
L 1344 794 
L 1344 0 
L 684 0 
L 684 794 
z
" transform="scale(0.015625)"/>
       </defs>
       <use xlink:href="#DejaVuSans-30"/>
       <use xlink:href="#DejaVuSans-2e" x="63.623047"/>
       <use xlink:href="#DejaVuSans-30" x="95.410156"/>
       <use xlink:href="#DejaVuSans-30" x="159.033203"/>
      </g>
     </g>
    </g>
    <g id="ytick_2">
     <g id="line2d_18">
      <g>
       <use xlink:href="#m42e20ac43c" x="103.074841" y="293.216689" style="stroke: #000000; stroke-width: 0.8"/>
      </g>
     </g>
     <g id="text_18">
      <!-- 0.05 -->
      <g transform="translate(51.543591 300.815127) scale(0.2 -0.2)">
       <use xlink:href="#DejaVuSans-30"/>
       <use xlink:href="#DejaVuSans-2e" x="63.623047"/>
       <use xlink:href="#DejaVuSans-30" x="95.410156"/>
       <use xlink:href="#DejaVuSans-35" x="159.033203"/>
      </g>
     </g>
    </g>
    <g id="ytick_3">
     <g id="line2d_19">
      <g>
       <use xlink:href="#m42e20ac43c" x="103.074841" y="216.105479" style="stroke: #000000; stroke-width: 0.8"/>
      </g>
     </g>
     <g id="text_19">
      <!-- 0.10 -->
      <g transform="translate(51.543591 223.703916) scale(0.2 -0.2)">
       <use xlink:href="#DejaVuSans-30"/>
       <use xlink:href="#DejaVuSans-2e" x="63.623047"/>
       <use xlink:href="#DejaVuSans-31" x="95.410156"/>
       <use xlink:href="#DejaVuSans-30" x="159.033203"/>
      </g>
     </g>
    </g>
    <g id="ytick_4">
     <g id="line2d_20">
      <g>
       <use xlink:href="#m42e20ac43c" x="103.074841" y="138.994269" style="stroke: #000000; stroke-width: 0.8"/>
      </g>
     </g>
     <g id="text_20">
      <!-- 0.15 -->
      <g transform="translate(51.543591 146.592706) scale(0.2 -0.2)">
       <use xlink:href="#DejaVuSans-30"/>
       <use xlink:href="#DejaVuSans-2e" x="63.623047"/>
       <use xlink:href="#DejaVuSans-31" x="95.410156"/>
       <use xlink:href="#DejaVuSans-35" x="159.033203"/>
      </g>
     </g>
    </g>
    <g id="ytick_5">
     <g id="line2d_21">
      <g>
       <use xlink:href="#m42e20ac43c" x="103.074841" y="61.883059" style="stroke: #000000; stroke-width: 0.8"/>
      </g>
     </g>
     <g id="text_21">
      <!-- 0.20 -->
      <g transform="translate(51.543591 69.481496) scale(0.2 -0.2)">
       <use xlink:href="#DejaVuSans-30"/>
       <use xlink:href="#DejaVuSans-2e" x="63.623047"/>
       <use xlink:href="#DejaVuSans-32" x="95.410156"/>
       <use xlink:href="#DejaVuSans-30" x="159.033203"/>
      </g>
     </g>
    </g>
   </g>
   <g id="line2d_22">
    <path d="M 940.074841 370.327899 
" clip-path="url(#p186fc7de91)" style="fill: none; stroke: #ffa500; stroke-width: 1.5; stroke-linecap: square"/>
   </g>
   <g id="line2d_23">
    <path d="M 103.074841 370.327899 
L 948.274841 370.327899 
" clip-path="url(#p186fc7de91)" style="fill: none; stroke-dasharray: 7.4,3.2; stroke-dashoffset: 0; stroke: #000000; stroke-width: 2"/>
   </g>
   <g id="patch_3">
    <path d="M 103.074841 395.28 
L 103.074841 7.2 
" style="fill: none; stroke: #000000; stroke-width: 0.8; stroke-linejoin: miter; stroke-linecap: square"/>
   </g>
   <g id="patch_4">
    <path d="M 940.074841 395.28 
L 940.074841 7.2 
" style="fill: none; stroke: #000000; stroke-width: 0.8; stroke-linejoin: miter; stroke-linecap: square"/>
   </g>
   <g id="patch_5">
    <path d="M 103.074841 395.28 
L 940.074841 395.28 
" style="fill: none; stroke: #000000; stroke-width: 0.8; stroke-linejoin: miter; stroke-linecap: square"/>
   </g>
   <g id="patch_6">
    <path d="M 103.074841 7.2 
L 940.074841 7.2 
" style="fill: none; stroke: #000000; stroke-width: 0.8; stroke-linejoin: miter; stroke-linecap: square"/>
   </g>
  </g>
 </g>
 <defs>
  <clipPath id="p186fc7de91">
   <rect x="103.074841" y="7.2" width="837" height="388.08"/>
  </clipPath>
 </defs>
</svg>
