<?xml version="1.0" encoding="utf-8" standalone="no"?>
<!DOCTYPE svg PUBLIC "-//W3C//DTD SVG 1.1//EN"
  "http://www.w3.org/Graphics/SVG/1.1/DTD/svg11.dtd">
<svg xmlns:xlink="http://www.w3.org/1999/xlink" width="1040.965466pt" height="505.354841pt" viewBox="0 0 1040.965466 505.354841" xmlns="http://www.w3.org/2000/svg" version="1.1">
 <metadata>
  <rdf:RDF xmlns:dc="http://purl.org/dc/elements/1.1/" xmlns:cc="http://creativecommons.org/ns#" xmlns:rdf="http://www.w3.org/1999/02/22-rdf-syntax-ns#">
   <cc:Work>
    <dc:type rdf:resource="http://purl.org/dc/dcmitype/StillImage"/>
    <dc:date>2023-11-25T10:10:12.211969</dc:date>
    <dc:format>image/svg+xml</dc:format>
    <dc:creator>
     <cc:Agent>
      <dc:title>Matplotlib v3.7.2, https://matplotlib.org/</dc:title>
     </cc:Agent>
    </dc:creator>
   </cc:Work>
  </rdf:RDF>
 </metadata>
 <defs>
  <style type="text/css">*{stroke-linejoin: round; stroke-linecap: butt}</style>
 </defs>
 <g id="figure_1">
  <g id="patch_1">
   <path d="M 0 505.354841 
L 1040.965466 505.354841 
L 1040.965466 -0 
L 0 -0 
z
" style="fill: #ffffff"/>
  </g>
  <g id="axes_1">
   <g id="patch_2">
    <path d="M 103.074841 395.28 
L 940.074841 395.28 
L 940.074841 7.2 
L 103.074841 7.2 
z
" style="fill: #ffffff"/>
   </g>
   <g id="PolyCollection_1">
    <defs>
     <path id="m43c69f27ca" d="M 103.074841 -318.666155 
L 103.074841 -318.650802 
L 104.356617 -318.741036 
L 105.638394 -318.815645 
L 106.92017 -318.902637 
L 108.201946 -318.960764 
L 109.483723 -319.023481 
L 110.765499 -319.100315 
L 112.047276 -319.175853 
L 113.329052 -319.24561 
L 114.610828 -319.301969 
L 115.892605 -319.371868 
L 117.174381 -319.449073 
L 118.456158 -319.524721 
L 119.737934 -319.611373 
L 121.019711 -319.682918 
L 122.301487 -319.767122 
L 123.583263 -319.843314 
L 124.86504 -319.94184 
L 126.146816 -320.022727 
L 127.428593 -320.100288 
L 128.710369 -320.194787 
L 129.992145 -320.286714 
L 131.273922 -320.374999 
L 132.555698 -320.482155 
L 133.837475 -320.574787 
L 135.119251 -320.689676 
L 136.401028 -320.797623 
L 137.682804 -320.925249 
L 138.96458 -321.057118 
L 140.246357 -321.180911 
L 141.528133 -321.321392 
L 142.80991 -321.487413 
L 144.091686 -321.630992 
L 145.373462 -321.796595 
L 146.655239 -321.988258 
L 147.937015 -322.170722 
L 149.218792 -322.372014 
L 150.500568 -322.58364 
L 151.782345 -322.798034 
L 153.064121 -323.031088 
L 154.345897 -323.293803 
L 155.627674 -323.559154 
L 156.90945 -323.841502 
L 158.191227 -324.120754 
L 159.473003 -324.441886 
L 160.754779 -324.747426 
L 162.036556 -325.081514 
L 163.318332 -325.400296 
L 164.600109 -325.757903 
L 165.881885 -326.140393 
L 167.163662 -326.498194 
L 168.445438 -326.881925 
L 169.727214 -327.289938 
L 171.008991 -327.68632 
L 172.290767 -328.088295 
L 173.572544 -328.510953 
L 174.85432 -328.936551 
L 176.136096 -329.365302 
L 177.417873 -329.81337 
L 178.699649 -330.266875 
L 179.981426 -330.717153 
L 181.263202 -331.184518 
L 182.544979 -331.651908 
L 183.826755 -332.117482 
L 185.108531 -332.605772 
L 186.390308 -333.10811 
L 187.672084 -333.606291 
L 188.953861 -334.102528 
L 190.235637 -334.593359 
L 191.517413 -335.100079 
L 192.79919 -335.596538 
L 194.080966 -336.103434 
L 195.362743 -336.561093 
L 196.644519 -337.09934 
L 197.926296 -337.560865 
L 199.208072 -338.091788 
L 200.489848 -338.564898 
L 201.771625 -339.081746 
L 203.053401 -339.538724 
L 204.335178 -340.063812 
L 205.616954 -340.552933 
L 206.89873 -341.010362 
L 208.180507 -341.521254 
L 209.462283 -341.980779 
L 210.74406 -342.469016 
L 212.025836 -342.969146 
L 213.307613 -343.449266 
L 214.589389 -343.912062 
L 215.871165 -344.411068 
L 217.152942 -344.888406 
L 218.434718 -345.379303 
L 219.716495 -345.862125 
L 220.998271 -346.32267 
L 222.280047 -346.797057 
L 223.561824 -347.277628 
L 224.8436 -347.703253 
L 226.125377 -348.196868 
L 227.407153 -348.667416 
L 228.68893 -349.129981 
L 229.970706 -349.594146 
L 231.252482 -350.05782 
L 232.534259 -350.529281 
L 233.816035 -350.976612 
L 235.097812 -351.445422 
L 236.379588 -351.928346 
L 237.661364 -352.417859 
L 238.943141 -352.913787 
L 240.224917 -353.374395 
L 241.506694 -353.887756 
L 242.78847 -354.439212 
L 244.070247 -354.958568 
L 245.352023 -355.498616 
L 246.633799 -356.052345 
L 247.915576 -356.640289 
L 249.197352 -357.239045 
L 250.479129 -357.79017 
L 251.760905 -358.42703 
L 253.042681 -359.028408 
L 254.324458 -359.67969 
L 255.606234 -360.271373 
L 256.888011 -360.977949 
L 258.169787 -361.667815 
L 259.451564 -362.335388 
L 260.73334 -363.014876 
L 262.015116 -363.716396 
L 263.296893 -364.451955 
L 264.578669 -365.135135 
L 265.860446 -365.927361 
L 267.142222 -366.613207 
L 268.423998 -367.428844 
L 269.705775 -368.215096 
L 270.987551 -368.97957 
L 272.269328 -369.776762 
L 273.551104 -370.606691 
L 274.832881 -371.344054 
L 276.114657 -372.34397 
L 277.396433 -373.190381 
L 278.67821 -373.970794 
L 279.959986 -374.862521 
L 281.241763 -375.799973 
L 282.523539 -376.855559 
L 283.805315 -377.832938 
L 285.087092 -378.6395 
L 286.368868 -379.97184 
L 287.650645 -381.017599 
L 288.932421 -382.084709 
L 290.214198 -383.191045 
L 291.495974 -384.463319 
L 292.77775 -385.671522 
L 294.059527 -386.526465 
L 295.341303 -387.630481 
L 296.62308 -389.569736 
L 297.904856 -391.187127 
L 299.186632 -392.349784 
L 300.468409 -393.895133 
L 301.750185 -395.348277 
L 303.031962 -396.414602 
L 304.313738 -398.232055 
L 305.595515 -400.209808 
L 306.877291 -401.503195 
L 308.159067 -402.28553 
L 309.440844 -403.971654 
L 310.72262 -404.651976 
L 312.004397 -405.757349 
L 313.286173 -407.458497 
L 314.567949 -407.763938 
L 315.849726 -407.053735 
L 317.131502 -405.62285 
L 318.413279 -407.428753 
L 319.695055 -404.225229 
L 320.976832 -403.399958 
L 322.258608 -408.099655 
L 323.540384 -407.14728 
L 324.822161 -404.642689 
L 326.103937 -405.76822 
L 327.385714 -405.880163 
L 328.66749 -396.58463 
L 329.949266 -383.236342 
L 331.231043 -376.656082 
L 332.512819 -390.855129 
L 333.794596 -383.470208 
L 335.076372 -373.729334 
L 336.358149 -374.19585 
L 337.639925 -354.586751 
L 338.921701 -357.390045 
L 340.203478 -363.271096 
L 341.485254 -378.073203 
L 342.767031 -364.011538 
L 344.048807 -355.750929 
L 345.330583 -359.035747 
L 346.61236 -357.052692 
L 347.894136 -349.105074 
L 349.175913 -350.111487 
L 350.457689 -356.914216 
L 351.739466 -348.370546 
L 353.021242 -346.665029 
L 354.303018 -349.691054 
L 355.584795 -344.201961 
L 356.866571 -342.059061 
L 358.148348 -342.763086 
L 359.430124 -344.390854 
L 360.7119 -342.577038 
L 361.993677 -344.373866 
L 363.275453 -344.181992 
L 364.55723 -342.393584 
L 365.839006 -344.018283 
L 367.120783 -343.16002 
L 368.402559 -343.058028 
L 369.684335 -344.305585 
L 370.966112 -343.785657 
L 372.247888 -345.595512 
L 373.529665 -345.413215 
L 374.811441 -344.818783 
L 376.093217 -344.720732 
L 377.374994 -345.547059 
L 378.65677 -346.234055 
L 379.938547 -346.32352 
L 381.220323 -347.076292 
L 382.502099 -347.0945 
L 383.783876 -347.140086 
L 385.065652 -348.27128 
L 386.347429 -347.510746 
L 387.629205 -348.230601 
L 388.910982 -348.449822 
L 390.192758 -348.250101 
L 391.474534 -348.899699 
L 392.756311 -348.901214 
L 394.038087 -348.416922 
L 395.319864 -347.761574 
L 396.60164 -348.915875 
L 397.883416 -348.907703 
L 399.165193 -349.138654 
L 400.446969 -346.554213 
L 401.728746 -346.207016 
L 403.010522 -344.987498 
L 404.292299 -347.002705 
L 405.574075 -348.136163 
L 406.855851 -347.447508 
L 408.137628 -345.617945 
L 409.419404 -345.072935 
L 410.701181 -347.541259 
L 411.982957 -344.888314 
L 413.264733 -345.205095 
L 414.54651 -345.212197 
L 415.828286 -346.220798 
L 417.110063 -344.871255 
L 418.391839 -345.155822 
L 419.673616 -344.23744 
L 420.955392 -344.701853 
L 422.237168 -345.009945 
L 423.518945 -345.822918 
L 424.800721 -346.030562 
L 426.082498 -346.179787 
L 427.364274 -346.532047 
L 428.64605 -346.235018 
L 429.927827 -346.472848 
L 431.209603 -346.722372 
L 432.49138 -348.097757 
L 433.773156 -349.039197 
L 435.054933 -349.176685 
L 436.336709 -350.236135 
L 437.618485 -349.795253 
L 438.900262 -350.423673 
L 440.182038 -351.840007 
L 441.463815 -352.804307 
L 442.745591 -353.337747 
L 444.027367 -354.824043 
L 445.309144 -355.277933 
L 446.59092 -356.415815 
L 447.872697 -357.333097 
L 449.154473 -358.494475 
L 450.43625 -359.883505 
L 451.718026 -360.838249 
L 452.999802 -362.063471 
L 454.281579 -363.023713 
L 455.563355 -364.639946 
L 456.845132 -366.041102 
L 458.126908 -367.523298 
L 459.408684 -368.412871 
L 460.690461 -369.948542 
L 461.972237 -371.258215 
L 463.254014 -372.820723 
L 464.53579 -375.127207 
L 465.817567 -376.188944 
L 467.099343 -377.769052 
L 468.381119 -379.203465 
L 469.662896 -380.7944 
L 470.944672 -382.90229 
L 472.226449 -384.522311 
L 473.508225 -386.386617 
L 474.790001 -388.770862 
L 476.071778 -390.080726 
L 477.353554 -392.224728 
L 478.635331 -393.483822 
L 479.917107 -395.718495 
L 481.198884 -398.23373 
L 482.48066 -399.942561 
L 483.762436 -401.372247 
L 485.044213 -403.838484 
L 486.325989 -405.560109 
L 487.607766 -407.674109 
L 488.889542 -409.288523 
L 490.171318 -411.701038 
L 491.453095 -413.894277 
L 492.734871 -412.988698 
L 494.016648 -417.758059 
L 495.298424 -417.812609 
L 496.580201 -420.24737 
L 497.861977 -421.455013 
L 499.143753 -423.516742 
L 500.42553 -425.191371 
L 501.707306 -426.891214 
L 502.989083 -428.699592 
L 504.270859 -429.647252 
L 505.552635 -431.134521 
L 506.834412 -428.609689 
L 508.116188 -434.668386 
L 509.397965 -435.08753 
L 510.679741 -429.442145 
L 511.961518 -436.028614 
L 513.243294 -434.053682 
L 514.52507 -433.894977 
L 515.806847 -437.549682 
L 517.088623 -436.213491 
L 518.3704 -431.791571 
L 519.652176 -434.205046 
L 520.933952 -434.649803 
L 522.215729 -431.960052 
L 523.497505 -431.34153 
L 524.779282 -430.016359 
L 526.061058 -426.154604 
L 527.342835 -422.023045 
L 528.624611 -412.307126 
L 529.906387 -414.190195 
L 531.188164 -408.535987 
L 532.46994 -404.594658 
L 533.751717 -400.983113 
L 535.033493 -396.382398 
L 536.315269 -392.846962 
L 537.597046 -398.614319 
L 538.878822 -393.555449 
L 540.160599 -384.984693 
L 541.442375 -380.363672 
L 542.724152 -379.392653 
L 544.005928 -369.846914 
L 545.287704 -368.302052 
L 546.569481 -366.052261 
L 547.851257 -366.750401 
L 549.133034 -358.680336 
L 550.41481 -361.326632 
L 551.696586 -363.332613 
L 552.978363 -356.632886 
L 554.260139 -351.263912 
L 555.541916 -352.783799 
L 556.823692 -349.30572 
L 558.105469 -348.200922 
L 559.387245 -348.477649 
L 560.669021 -349.548564 
L 561.950798 -348.244986 
L 563.232574 -347.102813 
L 564.514351 -341.369297 
L 565.796127 -345.89241 
L 567.077903 -340.890737 
L 568.35968 -341.994391 
L 569.641456 -342.698777 
L 570.923233 -340.636425 
L 572.205009 -340.216598 
L 573.486786 -342.773877 
L 574.768562 -341.353249 
L 576.050338 -341.778347 
L 577.332115 -338.711806 
L 578.613891 -340.0773 
L 579.895668 -341.041346 
L 581.177444 -340.390984 
L 582.45922 -340.425619 
L 583.740997 -340.91396 
L 585.022773 -341.925764 
L 586.30455 -341.315284 
L 587.586326 -343.555469 
L 588.868103 -343.543135 
L 590.149879 -340.050509 
L 591.431655 -340.08863 
L 592.713432 -341.629929 
L 593.995208 -342.300614 
L 595.276985 -342.025683 
L 596.558761 -344.580877 
L 597.840537 -343.056344 
L 599.122314 -342.598274 
L 600.40409 -342.326373 
L 601.685867 -342.832272 
L 602.967643 -344.064426 
L 604.24942 -341.963299 
L 605.531196 -342.415606 
L 606.812972 -342.165177 
L 608.094749 -342.290264 
L 609.376525 -341.600971 
L 610.658302 -342.036567 
L 611.940078 -344.00361 
L 613.221854 -344.01842 
L 614.503631 -344.774894 
L 615.785407 -346.966921 
L 617.067184 -344.13147 
L 618.34896 -347.266125 
L 619.630737 -345.626307 
L 620.912513 -345.237844 
L 622.194289 -344.500546 
L 623.476066 -346.08595 
L 624.757842 -345.770485 
L 626.039619 -344.714403 
L 627.321395 -348.024266 
L 628.603171 -346.174174 
L 629.884948 -346.309443 
L 631.166724 -344.967635 
L 632.448501 -346.702814 
L 633.730277 -345.15972 
L 635.012054 -345.13499 
L 636.29383 -347.341694 
L 637.575606 -347.89612 
L 638.857383 -348.377351 
L 640.139159 -348.182715 
L 641.420936 -348.468282 
L 642.702712 -348.142877 
L 643.984488 -347.838493 
L 645.266265 -348.21425 
L 646.548041 -348.225393 
L 647.829818 -349.509073 
L 649.111594 -348.334784 
L 650.393371 -346.935032 
L 651.675147 -347.683378 
L 652.956923 -347.910365 
L 654.2387 -350.828546 
L 655.520476 -346.987724 
L 656.802253 -346.920612 
L 658.084029 -346.668768 
L 659.365805 -347.041766 
L 660.647582 -347.778701 
L 661.929358 -348.500667 
L 663.211135 -347.802215 
L 664.492911 -348.227038 
L 665.774688 -347.466969 
L 667.056464 -349.340188 
L 668.33824 -350.265083 
L 669.620017 -347.740496 
L 670.901793 -349.090807 
L 672.18357 -349.082798 
L 673.465346 -347.482478 
L 674.747122 -351.16717 
L 676.028899 -351.772665 
L 677.310675 -349.34836 
L 678.592452 -351.31104 
L 679.874228 -347.967439 
L 681.156005 -349.549368 
L 682.437781 -352.321003 
L 683.719557 -350.364857 
L 685.001334 -348.863085 
L 686.28311 -349.218123 
L 687.564887 -348.634158 
L 688.846663 -349.181286 
L 690.128439 -344.126253 
L 691.410216 -345.833021 
L 692.691992 -345.445393 
L 693.973769 -346.63043 
L 695.255545 -348.649452 
L 696.537322 -345.161322 
L 697.819098 -341.620081 
L 699.100874 -344.084283 
L 700.382651 -344.30213 
L 701.664427 -346.970487 
L 702.946204 -344.724638 
L 704.22798 -344.590144 
L 705.509756 -346.195949 
L 706.791533 -347.25171 
L 708.073309 -343.177722 
L 709.355086 -345.379571 
L 710.636862 -342.232789 
L 711.918639 -341.681048 
L 713.200415 -346.394617 
L 714.482191 -345.734666 
L 715.763968 -348.010828 
L 717.045744 -344.68125 
L 718.327521 -342.333464 
L 719.609297 -337.486546 
L 720.891073 -335.338492 
L 722.17285 -335.803632 
L 723.454626 -329.946068 
L 724.736403 -320.129502 
L 726.018179 -333.158733 
L 727.299956 -335.635672 
L 728.581732 -333.129133 
L 729.863508 -329.991143 
L 731.145285 -329.032143 
L 732.427061 -331.679298 
L 733.708838 -324.021127 
L 734.990614 -321.89384 
L 736.27239 -327.689214 
L 737.554167 -320.848059 
L 738.835943 -322.850166 
L 740.11772 -324.283629 
L 741.399496 -317.371423 
L 742.681273 -315.683715 
L 743.963049 -313.361552 
L 745.244825 -315.313119 
L 746.526602 -319.887038 
L 747.808378 -314.207637 
L 749.090155 -314.491186 
L 750.371931 -308.211102 
L 751.653707 -311.400277 
L 752.935484 -304.865014 
L 754.21726 -307.966314 
L 755.499037 -305.948002 
L 756.780813 -306.512506 
L 758.06259 -302.837593 
L 759.344366 -309.81427 
L 760.626142 -300.916237 
L 761.907919 -300.575125 
L 763.189695 -295.644173 
L 764.471472 -294.272291 
L 765.753248 -291.375132 
L 767.035024 -293.890489 
L 768.316801 -289.936951 
L 769.598577 -281.443321 
L 770.880354 -287.083955 
L 772.16213 -291.383861 
L 773.443907 -286.997656 
L 774.725683 -283.391411 
L 776.007459 -289.654688 
L 777.289236 -292.316492 
L 778.571012 -280.782486 
L 779.852789 -274.35628 
L 781.134565 -288.863772 
L 782.416341 -284.248334 
L 783.698118 -281.605313 
L 784.979894 -281.470306 
L 786.261671 -274.318821 
L 787.543447 -275.675348 
L 788.825224 -280.660807 
L 790.107 -275.65984 
L 791.388776 -274.134927 
L 792.670553 -281.724961 
L 793.952329 -281.059254 
L 795.234106 -282.050296 
L 796.515882 -266.440361 
L 797.797658 -257.091477 
L 799.079435 -257.620363 
L 800.361211 -267.537288 
L 801.642988 -272.882643 
L 802.924764 -270.841985 
L 804.206541 -271.750677 
L 805.488317 -257.040295 
L 806.770093 -270.986416 
L 808.05187 -259.542119 
L 809.333646 -251.557629 
L 810.615423 -258.739432 
L 811.897199 -242.691076 
L 813.178975 -255.747022 
L 814.460752 -247.029139 
L 815.742528 -251.376337 
L 817.024305 -246.274371 
L 818.306081 -238.964973 
L 819.587858 -242.650241 
L 820.869634 -237.705623 
L 822.15141 -239.053014 
L 823.433187 -235.690135 
L 824.714963 -255.648002 
L 825.99674 -227.89985 
L 827.278516 -216.885006 
L 828.560292 -229.202133 
L 829.842069 -223.642894 
L 831.123845 -215.820687 
L 832.405622 -224.92183 
L 833.687398 -214.94323 
L 834.969175 -205.716235 
L 836.250951 -208.52654 
L 837.532727 -204.801614 
L 838.814504 -203.153256 
L 840.09628 -201.036262 
L 841.378057 -201.113472 
L 842.659833 -210.089106 
L 843.941609 -188.053831 
L 845.223386 -187.270009 
L 846.505162 -190.579222 
L 847.786939 -203.457145 
L 849.068715 -184.852365 
L 850.350492 -171.864183 
L 851.632268 -184.690062 
L 852.914044 -184.275625 
L 854.195821 -165.484491 
L 855.477597 -201.618624 
L 856.759374 -170.229508 
L 858.04115 -191.270378 
L 859.322926 -158.531714 
L 860.604703 -174.321755 
L 861.886479 -160.287629 
L 863.168256 -159.235632 
L 864.450032 -153.983203 
L 865.731809 -153.402918 
L 867.013585 -160.232648 
L 868.295361 -161.771673 
L 869.577138 -152.308993 
L 870.858914 -144.875373 
L 872.140691 -145.052219 
L 873.422467 -145.920894 
L 874.704243 -138.221262 
L 875.98602 -138.549685 
L 877.267796 -144.50685 
L 878.549573 -147.587191 
L 879.831349 -130.994624 
L 881.113126 -130.474355 
L 882.394902 -127.714841 
L 883.676678 -135.978521 
L 884.958455 -153.946219 
L 886.240231 -133.835894 
L 887.522008 -141.204119 
L 888.803784 -135.71116 
L 890.08556 -129.606644 
L 891.367337 -139.935955 
L 892.649113 -128.793847 
L 893.93089 -138.833831 
L 895.212666 -139.011278 
L 896.494443 -139.304705 
L 897.776219 -131.661823 
L 899.057995 -133.931618 
L 900.339772 -135.760636 
L 901.621548 -142.177918 
L 902.903325 -140.622599 
L 904.185101 -137.934078 
L 905.466877 -140.26871 
L 906.748654 -134.6046 
L 908.03043 -140.575207 
L 909.312207 -135.332202 
L 910.593983 -132.028342 
L 911.87576 -132.325929 
L 913.157536 -137.771393 
L 914.439312 -139.156066 
L 915.721089 -139.885078 
L 917.002865 -137.892697 
L 918.284642 -138.642264 
L 919.566418 -149.971005 
L 920.848194 -141.801419 
L 922.129971 -190.565507 
L 923.411747 -142.950117 
L 924.693524 -139.483027 
L 925.9753 -147.495407 
L 927.257077 -155.528659 
L 928.538853 -143.420981 
L 929.820629 -148.953405 
L 931.102406 -160.654655 
L 932.384182 -153.625542 
L 933.665959 -154.784841 
L 934.947735 -157.8554 
L 936.229511 -150.465227 
L 937.511288 -155.917042 
L 938.793064 -154.621963 
L 940.074841 -154.526514 
L 940.074841 -323.402197 
L 940.074841 -323.402197 
L 938.793064 -318.461823 
L 937.511288 -320.756462 
L 936.229511 -317.289133 
L 934.947735 -320.462685 
L 933.665959 -319.224923 
L 932.384182 -319.302552 
L 931.102406 -319.018087 
L 929.820629 -313.938309 
L 928.538853 -313.459204 
L 927.257077 -315.40303 
L 925.9753 -314.265995 
L 924.693524 -309.439354 
L 923.411747 -311.446859 
L 922.129971 -320.140204 
L 920.848194 -309.398876 
L 919.566418 -310.85582 
L 918.284642 -307.730584 
L 917.002865 -306.733596 
L 915.721089 -307.000745 
L 914.439312 -305.587666 
L 913.157536 -303.758439 
L 911.87576 -302.273721 
L 910.593983 -301.576187 
L 909.312207 -301.576649 
L 908.03043 -302.755381 
L 906.748654 -300.798451 
L 905.466877 -302.332745 
L 904.185101 -301.17006 
L 902.903325 -301.082345 
L 901.621548 -301.067902 
L 900.339772 -298.316096 
L 899.057995 -296.826835 
L 897.776219 -294.823868 
L 896.494443 -298.061053 
L 895.212666 -296.813288 
L 893.93089 -295.996765 
L 892.649113 -292.299851 
L 891.367337 -295.572413 
L 890.08556 -291.304439 
L 888.803784 -293.177693 
L 887.522008 -294.550541 
L 886.240231 -291.416707 
L 884.958455 -297.438235 
L 883.676678 -291.375282 
L 882.394902 -287.254407 
L 881.113126 -287.743666 
L 879.831349 -287.636741 
L 878.549573 -292.252818 
L 877.267796 -291.403862 
L 875.98602 -288.686576 
L 874.704243 -288.135631 
L 873.422467 -290.657393 
L 872.140691 -290.210638 
L 870.858914 -289.034689 
L 869.577138 -293.072461 
L 868.295361 -295.420654 
L 867.013585 -294.09248 
L 865.731809 -290.675786 
L 864.450032 -290.506382 
L 863.168256 -292.956896 
L 861.886479 -292.917086 
L 860.604703 -297.998736 
L 859.322926 -291.255922 
L 858.04115 -301.912168 
L 856.759374 -294.348199 
L 855.477597 -306.668359 
L 854.195821 -292.011385 
L 852.914044 -299.370832 
L 851.632268 -299.703551 
L 850.350492 -292.547618 
L 849.068715 -298.261634 
L 847.786939 -305.603703 
L 846.505162 -299.349048 
L 845.223386 -297.84906 
L 843.941609 -297.731537 
L 842.659833 -307.146689 
L 841.378057 -299.565485 
L 840.09628 -302.230996 
L 838.814504 -303.20347 
L 837.532727 -303.208124 
L 836.250951 -303.811753 
L 834.969175 -302.195131 
L 833.687398 -305.729432 
L 832.405622 -309.843115 
L 831.123845 -306.808206 
L 829.842069 -307.74626 
L 828.560292 -311.478684 
L 827.278516 -304.990522 
L 825.99674 -309.735168 
L 824.714963 -321.896738 
L 823.433187 -312.130425 
L 822.15141 -312.799996 
L 820.869634 -311.916348 
L 819.587858 -313.673666 
L 818.306081 -311.484628 
L 817.024305 -314.643061 
L 815.742528 -317.015556 
L 814.460752 -314.264697 
L 813.178975 -317.028645 
L 811.897199 -310.890645 
L 810.615423 -318.044217 
L 809.333646 -313.440719 
L 808.05187 -317.526605 
L 806.770093 -323.880464 
L 805.488317 -315.162364 
L 804.206541 -321.647503 
L 802.924764 -321.4098 
L 801.642988 -322.173859 
L 800.361211 -318.755601 
L 799.079435 -312.538082 
L 797.797658 -312.187902 
L 796.515882 -317.119522 
L 795.234106 -324.076579 
L 793.952329 -323.129476 
L 792.670553 -323.946785 
L 791.388776 -319.258633 
L 790.107 -319.533345 
L 788.825224 -321.581179 
L 787.543447 -318.799942 
L 786.261671 -316.926141 
L 784.979894 -320.649213 
L 783.698118 -321.117461 
L 782.416341 -321.766488 
L 781.134565 -324.266093 
L 779.852789 -316.215602 
L 778.571012 -318.01792 
L 777.289236 -325.333526 
L 776.007459 -324.119631 
L 774.725683 -319.478028 
L 773.443907 -321.125317 
L 772.16213 -323.770957 
L 770.880354 -321.520569 
L 769.598577 -318.792771 
L 768.316801 -321.851829 
L 767.035024 -324.654479 
L 765.753248 -323.205293 
L 764.471472 -322.235565 
L 763.189695 -324.969108 
L 761.907919 -327.293117 
L 760.626142 -327.87492 
L 759.344366 -333.192843 
L 758.06259 -327.83416 
L 756.780813 -330.525193 
L 755.499037 -330.433904 
L 754.21726 -332.661744 
L 752.935484 -328.948269 
L 751.653707 -333.158911 
L 750.371931 -331.650791 
L 749.090155 -335.526381 
L 747.808378 -335.335791 
L 746.526602 -339.391645 
L 745.244825 -333.834932 
L 743.963049 -333.891811 
L 742.681273 -337.162812 
L 741.399496 -336.956651 
L 740.11772 -342.579934 
L 738.835943 -342.125093 
L 737.554167 -338.596205 
L 736.27239 -344.359211 
L 734.990614 -338.097829 
L 733.708838 -341.19153 
L 732.427061 -346.494552 
L 731.145285 -344.950318 
L 729.863508 -345.125132 
L 728.581732 -347.641997 
L 727.299956 -350.443764 
L 726.018179 -347.80386 
L 724.736403 -337.91741 
L 723.454626 -346.102263 
L 722.17285 -350.158102 
L 720.891073 -349.37482 
L 719.609297 -350.741311 
L 718.327521 -355.500485 
L 717.045744 -357.578646 
L 715.763968 -358.736726 
L 714.482191 -358.365453 
L 713.200415 -359.091173 
L 711.918639 -353.893796 
L 710.636862 -354.560237 
L 709.355086 -357.551962 
L 708.073309 -355.77554 
L 706.791533 -358.859144 
L 705.509756 -358.739949 
L 704.22798 -356.506267 
L 702.946204 -357.783113 
L 701.664427 -358.741094 
L 700.382651 -356.841993 
L 699.100874 -356.289661 
L 697.819098 -353.265978 
L 696.537322 -357.392673 
L 695.255545 -360.738533 
L 693.973769 -358.592535 
L 692.691992 -356.061708 
L 691.410216 -356.668774 
L 690.128439 -356.018067 
L 688.846663 -360.501258 
L 687.564887 -360.238364 
L 686.28311 -360.377573 
L 685.001334 -358.968725 
L 683.719557 -359.682876 
L 682.437781 -362.124336 
L 681.156005 -360.264064 
L 679.874228 -357.757293 
L 678.592452 -360.516071 
L 677.310675 -358.650178 
L 676.028899 -359.702604 
L 674.747122 -360.542267 
L 673.465346 -356.306834 
L 672.18357 -357.786042 
L 670.901793 -357.914416 
L 669.620017 -356.154196 
L 668.33824 -358.475814 
L 667.056464 -356.839479 
L 665.774688 -355.277093 
L 664.492911 -355.539946 
L 663.211135 -355.13147 
L 661.929358 -355.624845 
L 660.647582 -354.57772 
L 659.365805 -353.540769 
L 658.084029 -352.792556 
L 656.802253 -352.39851 
L 655.520476 -352.609809 
L 654.2387 -355.946789 
L 652.956923 -352.966611 
L 651.675147 -352.425174 
L 650.393371 -351.595615 
L 649.111594 -352.680859 
L 647.829818 -353.916524 
L 646.548041 -352.435866 
L 645.266265 -352.245898 
L 643.984488 -351.836879 
L 642.702712 -351.91623 
L 641.420936 -352.047436 
L 640.139159 -351.827133 
L 638.857383 -351.824175 
L 637.575606 -351.149189 
L 636.29383 -350.269887 
L 635.012054 -348.094525 
L 633.730277 -348.154594 
L 632.448501 -349.640857 
L 631.166724 -348.024128 
L 629.884948 -349.638531 
L 628.603171 -349.538063 
L 627.321395 -352.503384 
L 626.039619 -348.316796 
L 624.757842 -349.672204 
L 623.476066 -350.130582 
L 622.194289 -348.490217 
L 620.912513 -349.773144 
L 619.630737 -350.405742 
L 618.34896 -352.393199 
L 617.067184 -349.22352 
L 615.785407 -352.826948 
L 614.503631 -349.98816 
L 613.221854 -349.337438 
L 611.940078 -349.408593 
L 610.658302 -347.355075 
L 609.376525 -347.330934 
L 608.094749 -347.871813 
L 606.812972 -348.033386 
L 605.531196 -348.199349 
L 604.24942 -347.842027 
L 602.967643 -350.097507 
L 601.685867 -348.792673 
L 600.40409 -348.512754 
L 599.122314 -348.732629 
L 597.840537 -349.185914 
L 596.558761 -350.86765 
L 595.276985 -348.274849 
L 593.995208 -348.635133 
L 592.713432 -348.403813 
L 591.431655 -346.636528 
L 590.149879 -346.63083 
L 588.868103 -350.920684 
L 587.586326 -351.119454 
L 586.30455 -348.793968 
L 585.022773 -349.858165 
L 583.740997 -348.732329 
L 582.45922 -348.195648 
L 581.177444 -348.454082 
L 579.895668 -349.863444 
L 578.613891 -348.621823 
L 577.332115 -346.928794 
L 576.050338 -350.523871 
L 574.768562 -350.436634 
L 573.486786 -352.42652 
L 572.205009 -349.436035 
L 570.923233 -350.682649 
L 569.641456 -352.911047 
L 568.35968 -352.436294 
L 567.077903 -351.086348 
L 565.796127 -357.345235 
L 564.514351 -352.233319 
L 563.232574 -359.649846 
L 561.950798 -361.780037 
L 560.669021 -363.832148 
L 559.387245 -363.29155 
L 558.105469 -363.029747 
L 556.823692 -364.335239 
L 555.541916 -369.216237 
L 554.260139 -368.487912 
L 552.978363 -374.975798 
L 551.696586 -386.035112 
L 550.41481 -382.844717 
L 549.133034 -378.882579 
L 547.851257 -391.099766 
L 546.569481 -389.552821 
L 545.287704 -392.900094 
L 544.005928 -394.914221 
L 542.724152 -408.836209 
L 541.442375 -410.984363 
L 540.160599 -416.90239 
L 538.878822 -428.326074 
L 537.597046 -435.973622 
L 536.315269 -428.346979 
L 535.033493 -433.117322 
L 533.751717 -439.619865 
L 532.46994 -443.544327 
L 531.188164 -448.674785 
L 529.906387 -456.347244 
L 528.624611 -453.4926 
L 527.342835 -465.907841 
L 526.061058 -472.300457 
L 524.779282 -475.99238 
L 523.497505 -477.482581 
L 522.215729 -477.315259 
L 520.933952 -479.524423 
L 519.652176 -477.530945 
L 518.3704 -474.736955 
L 517.088623 -480.072056 
L 515.806847 -480.514841 
L 514.52507 -474.935919 
L 513.243294 -474.273042 
L 511.961518 -476.21329 
L 510.679741 -466.639805 
L 509.397965 -473.493419 
L 508.116188 -471.505495 
L 506.834412 -463.508463 
L 505.552635 -465.672714 
L 504.270859 -462.923423 
L 502.989083 -460.910894 
L 501.707306 -457.590722 
L 500.42553 -454.962474 
L 499.143753 -452.02468 
L 497.861977 -448.742218 
L 496.580201 -446.76476 
L 495.298424 -442.91353 
L 494.016648 -442.160194 
L 492.734871 -436.13939 
L 491.453095 -436.277626 
L 490.171318 -433.179641 
L 488.889542 -429.646708 
L 487.607766 -427.291547 
L 486.325989 -424.068396 
L 485.044213 -421.63017 
L 483.762436 -418.185174 
L 482.48066 -416.176709 
L 481.198884 -413.601606 
L 479.917107 -410.185876 
L 478.635331 -407.277335 
L 477.353554 -405.335576 
L 476.071778 -402.370159 
L 474.790001 -400.712156 
L 473.508225 -397.626251 
L 472.226449 -395.138922 
L 470.944672 -392.968685 
L 469.662896 -390.211661 
L 468.381119 -388.021831 
L 467.099343 -386.189225 
L 465.817567 -384.113614 
L 464.53579 -382.729309 
L 463.254014 -379.713768 
L 461.972237 -377.587936 
L 460.690461 -375.994613 
L 459.408684 -373.91796 
L 458.126908 -372.294562 
L 456.845132 -371.025662 
L 455.563355 -369.136219 
L 454.281579 -367.405284 
L 452.999802 -366.354763 
L 451.718026 -365.318516 
L 450.43625 -364.225267 
L 449.154473 -363.002378 
L 447.872697 -361.797068 
L 446.59092 -360.879676 
L 445.309144 -359.851814 
L 444.027367 -359.090569 
L 442.745591 -357.824304 
L 441.463815 -357.111235 
L 440.182038 -356.181139 
L 438.900262 -354.835883 
L 437.618485 -354.104218 
L 436.336709 -354.350458 
L 435.054933 -353.35457 
L 433.773156 -353.12247 
L 432.49138 -352.184276 
L 431.209603 -350.947739 
L 429.927827 -350.588791 
L 428.64605 -350.269521 
L 427.364274 -350.721967 
L 426.082498 -350.35949 
L 424.800721 -350.355082 
L 423.518945 -350.292731 
L 422.237168 -349.522264 
L 420.955392 -349.263968 
L 419.673616 -348.714985 
L 418.391839 -349.848783 
L 417.110063 -349.742542 
L 415.828286 -351.205833 
L 414.54651 -350.107165 
L 413.264733 -350.4146 
L 411.982957 -349.718125 
L 410.701181 -352.578422 
L 409.419404 -350.14199 
L 408.137628 -350.793588 
L 406.855851 -352.863334 
L 405.574075 -353.673756 
L 404.292299 -352.597004 
L 403.010522 -350.420355 
L 401.728746 -351.849482 
L 400.446969 -352.320389 
L 399.165193 -355.268999 
L 397.883416 -355.652671 
L 396.60164 -355.282055 
L 395.319864 -354.049682 
L 394.038087 -354.885866 
L 392.756311 -355.532502 
L 391.474534 -355.625295 
L 390.192758 -354.976394 
L 388.910982 -355.508064 
L 387.629205 -355.169729 
L 386.347429 -354.390738 
L 385.065652 -355.407178 
L 383.783876 -354.216005 
L 382.502099 -354.229928 
L 381.220323 -354.295167 
L 379.938547 -353.589184 
L 378.65677 -353.589941 
L 377.374994 -352.76621 
L 376.093217 -351.839224 
L 374.811441 -352.018595 
L 373.529665 -352.688149 
L 372.247888 -353.208633 
L 370.966112 -350.982928 
L 369.684335 -351.57781 
L 368.402559 -350.136118 
L 367.120783 -350.303885 
L 365.839006 -351.08261 
L 364.55723 -349.556232 
L 363.275453 -351.304714 
L 361.993677 -351.398245 
L 360.7119 -349.519921 
L 359.430124 -351.154863 
L 358.148348 -349.390627 
L 356.866571 -348.716432 
L 355.584795 -350.646001 
L 354.303018 -356.027099 
L 353.021242 -352.886082 
L 351.739466 -354.618199 
L 350.457689 -362.467212 
L 349.175913 -356.03289 
L 347.894136 -354.86865 
L 346.61236 -362.209348 
L 345.330583 -364.244228 
L 344.048807 -360.649411 
L 342.767031 -369.157749 
L 341.485254 -384.138522 
L 340.203478 -368.130917 
L 338.921701 -361.920726 
L 337.639925 -358.909695 
L 336.358149 -379.354028 
L 335.076372 -378.733225 
L 333.794596 -388.881647 
L 332.512819 -396.625061 
L 331.231043 -381.396319 
L 329.949266 -388.195879 
L 328.66749 -402.092048 
L 327.385714 -411.696681 
L 326.103937 -411.363997 
L 324.822161 -409.966598 
L 323.540384 -412.411923 
L 322.258608 -413.515649 
L 320.976832 -408.435439 
L 319.695055 -409.364921 
L 318.413279 -412.998922 
L 317.131502 -411.109749 
L 315.849726 -412.849318 
L 314.567949 -413.802692 
L 313.286173 -413.718122 
L 312.004397 -411.983895 
L 310.72262 -410.96269 
L 309.440844 -410.38528 
L 308.159067 -408.736452 
L 306.877291 -408.073636 
L 305.595515 -406.858111 
L 304.313738 -404.84458 
L 303.031962 -403.118716 
L 301.750185 -402.121891 
L 300.468409 -400.740068 
L 299.186632 -399.196757 
L 297.904856 -398.164985 
L 296.62308 -396.51878 
L 295.341303 -394.514179 
L 294.059527 -393.410578 
L 292.77775 -392.68411 
L 291.495974 -391.479254 
L 290.214198 -390.272525 
L 288.932421 -389.159003 
L 287.650645 -388.09405 
L 286.368868 -387.070172 
L 285.087092 -385.610172 
L 283.805315 -384.909348 
L 282.523539 -383.879227 
L 281.241763 -382.794546 
L 279.959986 -381.822578 
L 278.67821 -380.916756 
L 277.396433 -380.176271 
L 276.114657 -379.363101 
L 274.832881 -378.231907 
L 273.551104 -377.538617 
L 272.269328 -376.657506 
L 270.987551 -375.841323 
L 269.705775 -375.016446 
L 268.423998 -374.168703 
L 267.142222 -373.310162 
L 265.860446 -372.620085 
L 264.578669 -371.788889 
L 263.296893 -371.05978 
L 262.015116 -370.273858 
L 260.73334 -369.549682 
L 259.451564 -368.787813 
L 258.169787 -368.088679 
L 256.888011 -367.334165 
L 255.606234 -366.515324 
L 254.324458 -365.900408 
L 253.042681 -365.119917 
L 251.760905 -364.451287 
L 250.479129 -363.670109 
L 249.197352 -363.107397 
L 247.915576 -362.381439 
L 246.633799 -361.690151 
L 245.352023 -361.033626 
L 244.070247 -360.374649 
L 242.78847 -359.746207 
L 241.506694 -359.020952 
L 240.224917 -358.371318 
L 238.943141 -357.841901 
L 237.661364 -357.207829 
L 236.379588 -356.575319 
L 235.097812 -355.946634 
L 233.816035 -355.342634 
L 232.534259 -354.783083 
L 231.252482 -354.164892 
L 229.970706 -353.561018 
L 228.68893 -352.955174 
L 227.407153 -352.353128 
L 226.125377 -351.735242 
L 224.8436 -351.09273 
L 223.561824 -350.547643 
L 222.280047 -349.918022 
L 220.998271 -349.302594 
L 219.716495 -348.715248 
L 218.434718 -348.109113 
L 217.152942 -347.490686 
L 215.871165 -346.893671 
L 214.589389 -346.265799 
L 213.307613 -345.699561 
L 212.025836 -345.12113 
L 210.74406 -344.507483 
L 209.462283 -343.918398 
L 208.180507 -343.370845 
L 206.89873 -342.772896 
L 205.616954 -342.241745 
L 204.335178 -341.670562 
L 203.053401 -341.05867 
L 201.771625 -340.544885 
L 200.489848 -339.962822 
L 199.208072 -339.435276 
L 197.926296 -338.841047 
L 196.644519 -338.329954 
L 195.362743 -337.730655 
L 194.080966 -337.228089 
L 192.79919 -336.668752 
L 191.517413 -336.12398 
L 190.235637 -335.568558 
L 188.953861 -335.035175 
L 187.672084 -334.495784 
L 186.390308 -333.953638 
L 185.108531 -333.425524 
L 183.826755 -332.927241 
L 182.544979 -332.452772 
L 181.263202 -331.9756 
L 179.981426 -331.493454 
L 178.699649 -331.029443 
L 177.417873 -330.553854 
L 176.136096 -330.083674 
L 174.85432 -329.636338 
L 173.572544 -329.187989 
L 172.290767 -328.740092 
L 171.008991 -328.315088 
L 169.727214 -327.89583 
L 168.445438 -327.453176 
L 167.163662 -327.047179 
L 165.881885 -326.667797 
L 164.600109 -326.25366 
L 163.318332 -325.870132 
L 162.036556 -325.532685 
L 160.754779 -325.174999 
L 159.473003 -324.850004 
L 158.191227 -324.500556 
L 156.90945 -324.203611 
L 155.627674 -323.899468 
L 154.345897 -323.61582 
L 153.064121 -323.335117 
L 151.782345 -323.084533 
L 150.500568 -322.865588 
L 149.218792 -322.641915 
L 147.937015 -322.429896 
L 146.655239 -322.241148 
L 145.373462 -322.036237 
L 144.091686 -321.865445 
L 142.80991 -321.720642 
L 141.528133 -321.545552 
L 140.246357 -321.400474 
L 138.96458 -321.276762 
L 137.682804 -321.138441 
L 136.401028 -321.003905 
L 135.119251 -320.89595 
L 133.837475 -320.775863 
L 132.555698 -320.683765 
L 131.273922 -320.570832 
L 129.992145 -320.481485 
L 128.710369 -320.385413 
L 127.428593 -320.283722 
L 126.146816 -320.203395 
L 124.86504 -320.117923 
L 123.583263 -320.006317 
L 122.301487 -319.921402 
L 121.019711 -319.824657 
L 119.737934 -319.748261 
L 118.456158 -319.645979 
L 117.174381 -319.557333 
L 115.892605 -319.463968 
L 114.610828 -319.387849 
L 113.329052 -319.322485 
L 112.047276 -319.24048 
L 110.765499 -319.145768 
L 109.483723 -319.054275 
L 108.201946 -318.98097 
L 106.92017 -318.916958 
L 105.638394 -318.826172 
L 104.356617 -318.75518 
L 103.074841 -318.666155 
z
" style="stroke: #008000; stroke-opacity: 0.3"/>
    </defs>
    <g clip-path="url(#pfc205f9e59)">
     <use xlink:href="#m43c69f27ca" x="0" y="505.354841" style="fill: #008000; fill-opacity: 0.3; stroke: #008000; stroke-opacity: 0.3"/>
    </g>
   </g>
   <g id="matplotlib.axis_1">
    <g id="xtick_1">
     <g id="line2d_1">
      <defs>
       <path id="m468528faff" d="M 0 0 
L 0 3.5 
" style="stroke: #000000; stroke-width: 0.8"/>
      </defs>
      <g>
       <use xlink:href="#m468528faff" x="103.074841" y="395.28" style="stroke: #000000; stroke-width: 0.8"/>
      </g>
     </g>
     <g id="text_1">
      <!-- 2021-07-01 -->
      <g transform="translate(17.945813 495.213718) rotate(-45) scale(0.2 -0.2)">
       <defs>
        <path id="DejaVuSans-32" d="M 1228 531 
L 3431 531 
L 3431 0 
L 469 0 
L 469 531 
Q 828 903 1448 1529 
Q 2069 2156 2228 2338 
Q 2531 2678 2651 2914 
Q 2772 3150 2772 3378 
Q 2772 3750 2511 3984 
Q 2250 4219 1831 4219 
Q 1534 4219 1204 4116 
Q 875 4013 500 3803 
L 500 4441 
Q 881 4594 1212 4672 
Q 1544 4750 1819 4750 
Q 2544 4750 2975 4387 
Q 3406 4025 3406 3419 
Q 3406 3131 3298 2873 
Q 3191 2616 2906 2266 
Q 2828 2175 2409 1742 
Q 1991 1309 1228 531 
z
" transform="scale(0.015625)"/>
        <path id="DejaVuSans-30" d="M 2034 4250 
Q 1547 4250 1301 3770 
Q 1056 3291 1056 2328 
Q 1056 1369 1301 889 
Q 1547 409 2034 409 
Q 2525 409 2770 889 
Q 3016 1369 3016 2328 
Q 3016 3291 2770 3770 
Q 2525 4250 2034 4250 
z
M 2034 4750 
Q 2819 4750 3233 4129 
Q 3647 3509 3647 2328 
Q 3647 1150 3233 529 
Q 2819 -91 2034 -91 
Q 1250 -91 836 529 
Q 422 1150 422 2328 
Q 422 3509 836 4129 
Q 1250 4750 2034 4750 
z
" transform="scale(0.015625)"/>
        <path id="DejaVuSans-31" d="M 794 531 
L 1825 531 
L 1825 4091 
L 703 3866 
L 703 4441 
L 1819 4666 
L 2450 4666 
L 2450 531 
L 3481 531 
L 3481 0 
L 794 0 
L 794 531 
z
" transform="scale(0.015625)"/>
        <path id="DejaVuSans-2d" d="M 313 2009 
L 1997 2009 
L 1997 1497 
L 313 1497 
L 313 2009 
z
" transform="scale(0.015625)"/>
        <path id="DejaVuSans-37" d="M 525 4666 
L 3525 4666 
L 3525 4397 
L 1831 0 
L 1172 0 
L 2766 4134 
L 525 4134 
L 525 4666 
z
" transform="scale(0.015625)"/>
       </defs>
       <use xlink:href="#DejaVuSans-32"/>
       <use xlink:href="#DejaVuSans-30" x="63.623047"/>
       <use xlink:href="#DejaVuSans-32" x="127.246094"/>
       <use xlink:href="#DejaVuSans-31" x="190.869141"/>
       <use xlink:href="#DejaVuSans-2d" x="254.492188"/>
       <use xlink:href="#DejaVuSans-30" x="290.576172"/>
       <use xlink:href="#DejaVuSans-37" x="354.199219"/>
       <use xlink:href="#DejaVuSans-2d" x="417.822266"/>
       <use xlink:href="#DejaVuSans-30" x="453.90625"/>
       <use xlink:href="#DejaVuSans-31" x="517.529297"/>
      </g>
     </g>
    </g>
    <g id="xtick_2">
     <g id="line2d_2">
      <g>
       <use xlink:href="#m468528faff" x="138.96458" y="395.28" style="stroke: #000000; stroke-width: 0.8"/>
      </g>
     </g>
     <g id="text_2">
      <!-- 2021-07-29 -->
      <g transform="translate(53.835553 495.213718) rotate(-45) scale(0.2 -0.2)">
       <defs>
        <path id="DejaVuSans-39" d="M 703 97 
L 703 672 
Q 941 559 1184 500 
Q 1428 441 1663 441 
Q 2288 441 2617 861 
Q 2947 1281 2994 2138 
Q 2813 1869 2534 1725 
Q 2256 1581 1919 1581 
Q 1219 1581 811 2004 
Q 403 2428 403 3163 
Q 403 3881 828 4315 
Q 1253 4750 1959 4750 
Q 2769 4750 3195 4129 
Q 3622 3509 3622 2328 
Q 3622 1225 3098 567 
Q 2575 -91 1691 -91 
Q 1453 -91 1209 -44 
Q 966 3 703 97 
z
M 1959 2075 
Q 2384 2075 2632 2365 
Q 2881 2656 2881 3163 
Q 2881 3666 2632 3958 
Q 2384 4250 1959 4250 
Q 1534 4250 1286 3958 
Q 1038 3666 1038 3163 
Q 1038 2656 1286 2365 
Q 1534 2075 1959 2075 
z
" transform="scale(0.015625)"/>
       </defs>
       <use xlink:href="#DejaVuSans-32"/>
       <use xlink:href="#DejaVuSans-30" x="63.623047"/>
       <use xlink:href="#DejaVuSans-32" x="127.246094"/>
       <use xlink:href="#DejaVuSans-31" x="190.869141"/>
       <use xlink:href="#DejaVuSans-2d" x="254.492188"/>
       <use xlink:href="#DejaVuSans-30" x="290.576172"/>
       <use xlink:href="#DejaVuSans-37" x="354.199219"/>
       <use xlink:href="#DejaVuSans-2d" x="417.822266"/>
       <use xlink:href="#DejaVuSans-32" x="453.90625"/>
       <use xlink:href="#DejaVuSans-39" x="517.529297"/>
      </g>
     </g>
    </g>
    <g id="xtick_3">
     <g id="line2d_3">
      <g>
       <use xlink:href="#m468528faff" x="174.85432" y="395.28" style="stroke: #000000; stroke-width: 0.8"/>
      </g>
     </g>
     <g id="text_3">
      <!-- 2021-08-26 -->
      <g transform="translate(89.725293 495.213718) rotate(-45) scale(0.2 -0.2)">
       <defs>
        <path id="DejaVuSans-38" d="M 2034 2216 
Q 1584 2216 1326 1975 
Q 1069 1734 1069 1313 
Q 1069 891 1326 650 
Q 1584 409 2034 409 
Q 2484 409 2743 651 
Q 3003 894 3003 1313 
Q 3003 1734 2745 1975 
Q 2488 2216 2034 2216 
z
M 1403 2484 
Q 997 2584 770 2862 
Q 544 3141 544 3541 
Q 544 4100 942 4425 
Q 1341 4750 2034 4750 
Q 2731 4750 3128 4425 
Q 3525 4100 3525 3541 
Q 3525 3141 3298 2862 
Q 3072 2584 2669 2484 
Q 3125 2378 3379 2068 
Q 3634 1759 3634 1313 
Q 3634 634 3220 271 
Q 2806 -91 2034 -91 
Q 1263 -91 848 271 
Q 434 634 434 1313 
Q 434 1759 690 2068 
Q 947 2378 1403 2484 
z
M 1172 3481 
Q 1172 3119 1398 2916 
Q 1625 2713 2034 2713 
Q 2441 2713 2670 2916 
Q 2900 3119 2900 3481 
Q 2900 3844 2670 4047 
Q 2441 4250 2034 4250 
Q 1625 4250 1398 4047 
Q 1172 3844 1172 3481 
z
" transform="scale(0.015625)"/>
        <path id="DejaVuSans-36" d="M 2113 2584 
Q 1688 2584 1439 2293 
Q 1191 2003 1191 1497 
Q 1191 994 1439 701 
Q 1688 409 2113 409 
Q 2538 409 2786 701 
Q 3034 994 3034 1497 
Q 3034 2003 2786 2293 
Q 2538 2584 2113 2584 
z
M 3366 4563 
L 3366 3988 
Q 3128 4100 2886 4159 
Q 2644 4219 2406 4219 
Q 1781 4219 1451 3797 
Q 1122 3375 1075 2522 
Q 1259 2794 1537 2939 
Q 1816 3084 2150 3084 
Q 2853 3084 3261 2657 
Q 3669 2231 3669 1497 
Q 3669 778 3244 343 
Q 2819 -91 2113 -91 
Q 1303 -91 875 529 
Q 447 1150 447 2328 
Q 447 3434 972 4092 
Q 1497 4750 2381 4750 
Q 2619 4750 2861 4703 
Q 3103 4656 3366 4563 
z
" transform="scale(0.015625)"/>
       </defs>
       <use xlink:href="#DejaVuSans-32"/>
       <use xlink:href="#DejaVuSans-30" x="63.623047"/>
       <use xlink:href="#DejaVuSans-32" x="127.246094"/>
       <use xlink:href="#DejaVuSans-31" x="190.869141"/>
       <use xlink:href="#DejaVuSans-2d" x="254.492188"/>
       <use xlink:href="#DejaVuSans-30" x="290.576172"/>
       <use xlink:href="#DejaVuSans-38" x="354.199219"/>
       <use xlink:href="#DejaVuSans-2d" x="417.822266"/>
       <use xlink:href="#DejaVuSans-32" x="453.90625"/>
       <use xlink:href="#DejaVuSans-36" x="517.529297"/>
      </g>
     </g>
    </g>
    <g id="xtick_4">
     <g id="line2d_4">
      <g>
       <use xlink:href="#m468528faff" x="210.74406" y="395.28" style="stroke: #000000; stroke-width: 0.8"/>
      </g>
     </g>
     <g id="text_4">
      <!-- 2021-09-23 -->
      <g transform="translate(125.615032 495.213718) rotate(-45) scale(0.2 -0.2)">
       <defs>
        <path id="DejaVuSans-33" d="M 2597 2516 
Q 3050 2419 3304 2112 
Q 3559 1806 3559 1356 
Q 3559 666 3084 287 
Q 2609 -91 1734 -91 
Q 1441 -91 1130 -33 
Q 819 25 488 141 
L 488 750 
Q 750 597 1062 519 
Q 1375 441 1716 441 
Q 2309 441 2620 675 
Q 2931 909 2931 1356 
Q 2931 1769 2642 2001 
Q 2353 2234 1838 2234 
L 1294 2234 
L 1294 2753 
L 1863 2753 
Q 2328 2753 2575 2939 
Q 2822 3125 2822 3475 
Q 2822 3834 2567 4026 
Q 2313 4219 1838 4219 
Q 1578 4219 1281 4162 
Q 984 4106 628 3988 
L 628 4550 
Q 988 4650 1302 4700 
Q 1616 4750 1894 4750 
Q 2613 4750 3031 4423 
Q 3450 4097 3450 3541 
Q 3450 3153 3228 2886 
Q 3006 2619 2597 2516 
z
" transform="scale(0.015625)"/>
       </defs>
       <use xlink:href="#DejaVuSans-32"/>
       <use xlink:href="#DejaVuSans-30" x="63.623047"/>
       <use xlink:href="#DejaVuSans-32" x="127.246094"/>
       <use xlink:href="#DejaVuSans-31" x="190.869141"/>
       <use xlink:href="#DejaVuSans-2d" x="254.492188"/>
       <use xlink:href="#DejaVuSans-30" x="290.576172"/>
       <use xlink:href="#DejaVuSans-39" x="354.199219"/>
       <use xlink:href="#DejaVuSans-2d" x="417.822266"/>
       <use xlink:href="#DejaVuSans-32" x="453.90625"/>
       <use xlink:href="#DejaVuSans-33" x="517.529297"/>
      </g>
     </g>
    </g>
    <g id="xtick_5">
     <g id="line2d_5">
      <g>
       <use xlink:href="#m468528faff" x="246.633799" y="395.28" style="stroke: #000000; stroke-width: 0.8"/>
      </g>
     </g>
     <g id="text_5">
      <!-- 2021-10-21 -->
      <g transform="translate(161.504772 495.213718) rotate(-45) scale(0.2 -0.2)">
       <use xlink:href="#DejaVuSans-32"/>
       <use xlink:href="#DejaVuSans-30" x="63.623047"/>
       <use xlink:href="#DejaVuSans-32" x="127.246094"/>
       <use xlink:href="#DejaVuSans-31" x="190.869141"/>
       <use xlink:href="#DejaVuSans-2d" x="254.492188"/>
       <use xlink:href="#DejaVuSans-31" x="290.576172"/>
       <use xlink:href="#DejaVuSans-30" x="354.199219"/>
       <use xlink:href="#DejaVuSans-2d" x="417.822266"/>
       <use xlink:href="#DejaVuSans-32" x="453.90625"/>
       <use xlink:href="#DejaVuSans-31" x="517.529297"/>
      </g>
     </g>
    </g>
    <g id="xtick_6">
     <g id="line2d_6">
      <g>
       <use xlink:href="#m468528faff" x="282.523539" y="395.28" style="stroke: #000000; stroke-width: 0.8"/>
      </g>
     </g>
     <g id="text_6">
      <!-- 2021-11-18 -->
      <g transform="translate(197.394512 495.213718) rotate(-45) scale(0.2 -0.2)">
       <use xlink:href="#DejaVuSans-32"/>
       <use xlink:href="#DejaVuSans-30" x="63.623047"/>
       <use xlink:href="#DejaVuSans-32" x="127.246094"/>
       <use xlink:href="#DejaVuSans-31" x="190.869141"/>
       <use xlink:href="#DejaVuSans-2d" x="254.492188"/>
       <use xlink:href="#DejaVuSans-31" x="290.576172"/>
       <use xlink:href="#DejaVuSans-31" x="354.199219"/>
       <use xlink:href="#DejaVuSans-2d" x="417.822266"/>
       <use xlink:href="#DejaVuSans-31" x="453.90625"/>
       <use xlink:href="#DejaVuSans-38" x="517.529297"/>
      </g>
     </g>
    </g>
    <g id="xtick_7">
     <g id="line2d_7">
      <g>
       <use xlink:href="#m468528faff" x="318.413279" y="395.28" style="stroke: #000000; stroke-width: 0.8"/>
      </g>
     </g>
     <g id="text_7">
      <!-- 2021-12-16 -->
      <g transform="translate(233.284251 495.213718) rotate(-45) scale(0.2 -0.2)">
       <use xlink:href="#DejaVuSans-32"/>
       <use xlink:href="#DejaVuSans-30" x="63.623047"/>
       <use xlink:href="#DejaVuSans-32" x="127.246094"/>
       <use xlink:href="#DejaVuSans-31" x="190.869141"/>
       <use xlink:href="#DejaVuSans-2d" x="254.492188"/>
       <use xlink:href="#DejaVuSans-31" x="290.576172"/>
       <use xlink:href="#DejaVuSans-32" x="354.199219"/>
       <use xlink:href="#DejaVuSans-2d" x="417.822266"/>
       <use xlink:href="#DejaVuSans-31" x="453.90625"/>
       <use xlink:href="#DejaVuSans-36" x="517.529297"/>
      </g>
     </g>
    </g>
    <g id="xtick_8">
     <g id="line2d_8">
      <g>
       <use xlink:href="#m468528faff" x="354.303018" y="395.28" style="stroke: #000000; stroke-width: 0.8"/>
      </g>
     </g>
     <g id="text_8">
      <!-- 2022-01-13 -->
      <g transform="translate(269.173991 495.213718) rotate(-45) scale(0.2 -0.2)">
       <use xlink:href="#DejaVuSans-32"/>
       <use xlink:href="#DejaVuSans-30" x="63.623047"/>
       <use xlink:href="#DejaVuSans-32" x="127.246094"/>
       <use xlink:href="#DejaVuSans-32" x="190.869141"/>
       <use xlink:href="#DejaVuSans-2d" x="254.492188"/>
       <use xlink:href="#DejaVuSans-30" x="290.576172"/>
       <use xlink:href="#DejaVuSans-31" x="354.199219"/>
       <use xlink:href="#DejaVuSans-2d" x="417.822266"/>
       <use xlink:href="#DejaVuSans-31" x="453.90625"/>
       <use xlink:href="#DejaVuSans-33" x="517.529297"/>
      </g>
     </g>
    </g>
    <g id="xtick_9">
     <g id="line2d_9">
      <g>
       <use xlink:href="#m468528faff" x="390.192758" y="395.28" style="stroke: #000000; stroke-width: 0.8"/>
      </g>
     </g>
     <g id="text_9">
      <!-- 2022-02-10 -->
      <g transform="translate(305.063731 495.213718) rotate(-45) scale(0.2 -0.2)">
       <use xlink:href="#DejaVuSans-32"/>
       <use xlink:href="#DejaVuSans-30" x="63.623047"/>
       <use xlink:href="#DejaVuSans-32" x="127.246094"/>
       <use xlink:href="#DejaVuSans-32" x="190.869141"/>
       <use xlink:href="#DejaVuSans-2d" x="254.492188"/>
       <use xlink:href="#DejaVuSans-30" x="290.576172"/>
       <use xlink:href="#DejaVuSans-32" x="354.199219"/>
       <use xlink:href="#DejaVuSans-2d" x="417.822266"/>
       <use xlink:href="#DejaVuSans-31" x="453.90625"/>
       <use xlink:href="#DejaVuSans-30" x="517.529297"/>
      </g>
     </g>
    </g>
    <g id="xtick_10">
     <g id="line2d_10">
      <g>
       <use xlink:href="#m468528faff" x="426.082498" y="395.28" style="stroke: #000000; stroke-width: 0.8"/>
      </g>
     </g>
     <g id="text_10">
      <!-- 2022-03-10 -->
      <g transform="translate(340.95347 495.213718) rotate(-45) scale(0.2 -0.2)">
       <use xlink:href="#DejaVuSans-32"/>
       <use xlink:href="#DejaVuSans-30" x="63.623047"/>
       <use xlink:href="#DejaVuSans-32" x="127.246094"/>
       <use xlink:href="#DejaVuSans-32" x="190.869141"/>
       <use xlink:href="#DejaVuSans-2d" x="254.492188"/>
       <use xlink:href="#DejaVuSans-30" x="290.576172"/>
       <use xlink:href="#DejaVuSans-33" x="354.199219"/>
       <use xlink:href="#DejaVuSans-2d" x="417.822266"/>
       <use xlink:href="#DejaVuSans-31" x="453.90625"/>
       <use xlink:href="#DejaVuSans-30" x="517.529297"/>
      </g>
     </g>
    </g>
    <g id="xtick_11">
     <g id="line2d_11">
      <g>
       <use xlink:href="#m468528faff" x="461.972237" y="395.28" style="stroke: #000000; stroke-width: 0.8"/>
      </g>
     </g>
     <g id="text_11">
      <!-- 2022-04-07 -->
      <g transform="translate(376.84321 495.213718) rotate(-45) scale(0.2 -0.2)">
       <defs>
        <path id="DejaVuSans-34" d="M 2419 4116 
L 825 1625 
L 2419 1625 
L 2419 4116 
z
M 2253 4666 
L 3047 4666 
L 3047 1625 
L 3713 1625 
L 3713 1100 
L 3047 1100 
L 3047 0 
L 2419 0 
L 2419 1100 
L 313 1100 
L 313 1709 
L 2253 4666 
z
" transform="scale(0.015625)"/>
       </defs>
       <use xlink:href="#DejaVuSans-32"/>
       <use xlink:href="#DejaVuSans-30" x="63.623047"/>
       <use xlink:href="#DejaVuSans-32" x="127.246094"/>
       <use xlink:href="#DejaVuSans-32" x="190.869141"/>
       <use xlink:href="#DejaVuSans-2d" x="254.492188"/>
       <use xlink:href="#DejaVuSans-30" x="290.576172"/>
       <use xlink:href="#DejaVuSans-34" x="354.199219"/>
       <use xlink:href="#DejaVuSans-2d" x="417.822266"/>
       <use xlink:href="#DejaVuSans-30" x="453.90625"/>
       <use xlink:href="#DejaVuSans-37" x="517.529297"/>
      </g>
     </g>
    </g>
    <g id="xtick_12">
     <g id="line2d_12">
      <g>
       <use xlink:href="#m468528faff" x="497.861977" y="395.28" style="stroke: #000000; stroke-width: 0.8"/>
      </g>
     </g>
     <g id="text_12">
      <!-- 2022-05-05 -->
      <g transform="translate(412.73295 495.213718) rotate(-45) scale(0.2 -0.2)">
       <defs>
        <path id="DejaVuSans-35" d="M 691 4666 
L 3169 4666 
L 3169 4134 
L 1269 4134 
L 1269 2991 
Q 1406 3038 1543 3061 
Q 1681 3084 1819 3084 
Q 2600 3084 3056 2656 
Q 3513 2228 3513 1497 
Q 3513 744 3044 326 
Q 2575 -91 1722 -91 
Q 1428 -91 1123 -41 
Q 819 9 494 109 
L 494 744 
Q 775 591 1075 516 
Q 1375 441 1709 441 
Q 2250 441 2565 725 
Q 2881 1009 2881 1497 
Q 2881 1984 2565 2268 
Q 2250 2553 1709 2553 
Q 1456 2553 1204 2497 
Q 953 2441 691 2322 
L 691 4666 
z
" transform="scale(0.015625)"/>
       </defs>
       <use xlink:href="#DejaVuSans-32"/>
       <use xlink:href="#DejaVuSans-30" x="63.623047"/>
       <use xlink:href="#DejaVuSans-32" x="127.246094"/>
       <use xlink:href="#DejaVuSans-32" x="190.869141"/>
       <use xlink:href="#DejaVuSans-2d" x="254.492188"/>
       <use xlink:href="#DejaVuSans-30" x="290.576172"/>
       <use xlink:href="#DejaVuSans-35" x="354.199219"/>
       <use xlink:href="#DejaVuSans-2d" x="417.822266"/>
       <use xlink:href="#DejaVuSans-30" x="453.90625"/>
       <use xlink:href="#DejaVuSans-35" x="517.529297"/>
      </g>
     </g>
    </g>
    <g id="xtick_13">
     <g id="line2d_13">
      <g>
       <use xlink:href="#m468528faff" x="533.751717" y="395.28" style="stroke: #000000; stroke-width: 0.8"/>
      </g>
     </g>
     <g id="text_13">
      <!-- 2022-06-02 -->
      <g transform="translate(448.622689 495.213718) rotate(-45) scale(0.2 -0.2)">
       <use xlink:href="#DejaVuSans-32"/>
       <use xlink:href="#DejaVuSans-30" x="63.623047"/>
       <use xlink:href="#DejaVuSans-32" x="127.246094"/>
       <use xlink:href="#DejaVuSans-32" x="190.869141"/>
       <use xlink:href="#DejaVuSans-2d" x="254.492188"/>
       <use xlink:href="#DejaVuSans-30" x="290.576172"/>
       <use xlink:href="#DejaVuSans-36" x="354.199219"/>
       <use xlink:href="#DejaVuSans-2d" x="417.822266"/>
       <use xlink:href="#DejaVuSans-30" x="453.90625"/>
       <use xlink:href="#DejaVuSans-32" x="517.529297"/>
      </g>
     </g>
    </g>
    <g id="xtick_14">
     <g id="line2d_14">
      <g>
       <use xlink:href="#m468528faff" x="569.641456" y="395.28" style="stroke: #000000; stroke-width: 0.8"/>
      </g>
     </g>
     <g id="text_14">
      <!-- 2022-06-30 -->
      <g transform="translate(484.512429 495.213718) rotate(-45) scale(0.2 -0.2)">
       <use xlink:href="#DejaVuSans-32"/>
       <use xlink:href="#DejaVuSans-30" x="63.623047"/>
       <use xlink:href="#DejaVuSans-32" x="127.246094"/>
       <use xlink:href="#DejaVuSans-32" x="190.869141"/>
       <use xlink:href="#DejaVuSans-2d" x="254.492188"/>
       <use xlink:href="#DejaVuSans-30" x="290.576172"/>
       <use xlink:href="#DejaVuSans-36" x="354.199219"/>
       <use xlink:href="#DejaVuSans-2d" x="417.822266"/>
       <use xlink:href="#DejaVuSans-33" x="453.90625"/>
       <use xlink:href="#DejaVuSans-30" x="517.529297"/>
      </g>
     </g>
    </g>
    <g id="xtick_15">
     <g id="line2d_15">
      <g>
       <use xlink:href="#m468528faff" x="605.531196" y="395.28" style="stroke: #000000; stroke-width: 0.8"/>
      </g>
     </g>
     <g id="text_15">
      <!-- 2022-07-28 -->
      <g transform="translate(520.402169 495.213718) rotate(-45) scale(0.2 -0.2)">
       <use xlink:href="#DejaVuSans-32"/>
       <use xlink:href="#DejaVuSans-30" x="63.623047"/>
       <use xlink:href="#DejaVuSans-32" x="127.246094"/>
       <use xlink:href="#DejaVuSans-32" x="190.869141"/>
       <use xlink:href="#DejaVuSans-2d" x="254.492188"/>
       <use xlink:href="#DejaVuSans-30" x="290.576172"/>
       <use xlink:href="#DejaVuSans-37" x="354.199219"/>
       <use xlink:href="#DejaVuSans-2d" x="417.822266"/>
       <use xlink:href="#DejaVuSans-32" x="453.90625"/>
       <use xlink:href="#DejaVuSans-38" x="517.529297"/>
      </g>
     </g>
    </g>
    <g id="xtick_16">
     <g id="line2d_16">
      <g>
       <use xlink:href="#m468528faff" x="641.420936" y="395.28" style="stroke: #000000; stroke-width: 0.8"/>
      </g>
     </g>
     <g id="text_16">
      <!-- 2022-08-25 -->
      <g transform="translate(556.291908 495.213718) rotate(-45) scale(0.2 -0.2)">
       <use xlink:href="#DejaVuSans-32"/>
       <use xlink:href="#DejaVuSans-30" x="63.623047"/>
       <use xlink:href="#DejaVuSans-32" x="127.246094"/>
       <use xlink:href="#DejaVuSans-32" x="190.869141"/>
       <use xlink:href="#DejaVuSans-2d" x="254.492188"/>
       <use xlink:href="#DejaVuSans-30" x="290.576172"/>
       <use xlink:href="#DejaVuSans-38" x="354.199219"/>
       <use xlink:href="#DejaVuSans-2d" x="417.822266"/>
       <use xlink:href="#DejaVuSans-32" x="453.90625"/>
       <use xlink:href="#DejaVuSans-35" x="517.529297"/>
      </g>
     </g>
    </g>
    <g id="xtick_17">
     <g id="line2d_17">
      <g>
       <use xlink:href="#m468528faff" x="677.310675" y="395.28" style="stroke: #000000; stroke-width: 0.8"/>
      </g>
     </g>
     <g id="text_17">
      <!-- 2022-09-22 -->
      <g transform="translate(592.181648 495.213718) rotate(-45) scale(0.2 -0.2)">
       <use xlink:href="#DejaVuSans-32"/>
       <use xlink:href="#DejaVuSans-30" x="63.623047"/>
       <use xlink:href="#DejaVuSans-32" x="127.246094"/>
       <use xlink:href="#DejaVuSans-32" x="190.869141"/>
       <use xlink:href="#DejaVuSans-2d" x="254.492188"/>
       <use xlink:href="#DejaVuSans-30" x="290.576172"/>
       <use xlink:href="#DejaVuSans-39" x="354.199219"/>
       <use xlink:href="#DejaVuSans-2d" x="417.822266"/>
       <use xlink:href="#DejaVuSans-32" x="453.90625"/>
       <use xlink:href="#DejaVuSans-32" x="517.529297"/>
      </g>
     </g>
    </g>
    <g id="xtick_18">
     <g id="line2d_18">
      <g>
       <use xlink:href="#m468528faff" x="713.200415" y="395.28" style="stroke: #000000; stroke-width: 0.8"/>
      </g>
     </g>
     <g id="text_18">
      <!-- 2022-10-20 -->
      <g transform="translate(628.071388 495.213718) rotate(-45) scale(0.2 -0.2)">
       <use xlink:href="#DejaVuSans-32"/>
       <use xlink:href="#DejaVuSans-30" x="63.623047"/>
       <use xlink:href="#DejaVuSans-32" x="127.246094"/>
       <use xlink:href="#DejaVuSans-32" x="190.869141"/>
       <use xlink:href="#DejaVuSans-2d" x="254.492188"/>
       <use xlink:href="#DejaVuSans-31" x="290.576172"/>
       <use xlink:href="#DejaVuSans-30" x="354.199219"/>
       <use xlink:href="#DejaVuSans-2d" x="417.822266"/>
       <use xlink:href="#DejaVuSans-32" x="453.90625"/>
       <use xlink:href="#DejaVuSans-30" x="517.529297"/>
      </g>
     </g>
    </g>
    <g id="xtick_19">
     <g id="line2d_19">
      <g>
       <use xlink:href="#m468528faff" x="749.090155" y="395.28" style="stroke: #000000; stroke-width: 0.8"/>
      </g>
     </g>
     <g id="text_19">
      <!-- 2022-11-17 -->
      <g transform="translate(663.961127 495.213718) rotate(-45) scale(0.2 -0.2)">
       <use xlink:href="#DejaVuSans-32"/>
       <use xlink:href="#DejaVuSans-30" x="63.623047"/>
       <use xlink:href="#DejaVuSans-32" x="127.246094"/>
       <use xlink:href="#DejaVuSans-32" x="190.869141"/>
       <use xlink:href="#DejaVuSans-2d" x="254.492188"/>
       <use xlink:href="#DejaVuSans-31" x="290.576172"/>
       <use xlink:href="#DejaVuSans-31" x="354.199219"/>
       <use xlink:href="#DejaVuSans-2d" x="417.822266"/>
       <use xlink:href="#DejaVuSans-31" x="453.90625"/>
       <use xlink:href="#DejaVuSans-37" x="517.529297"/>
      </g>
     </g>
    </g>
    <g id="xtick_20">
     <g id="line2d_20">
      <g>
       <use xlink:href="#m468528faff" x="784.979894" y="395.28" style="stroke: #000000; stroke-width: 0.8"/>
      </g>
     </g>
     <g id="text_20">
      <!-- 2022-12-15 -->
      <g transform="translate(699.850867 495.213718) rotate(-45) scale(0.2 -0.2)">
       <use xlink:href="#DejaVuSans-32"/>
       <use xlink:href="#DejaVuSans-30" x="63.623047"/>
       <use xlink:href="#DejaVuSans-32" x="127.246094"/>
       <use xlink:href="#DejaVuSans-32" x="190.869141"/>
       <use xlink:href="#DejaVuSans-2d" x="254.492188"/>
       <use xlink:href="#DejaVuSans-31" x="290.576172"/>
       <use xlink:href="#DejaVuSans-32" x="354.199219"/>
       <use xlink:href="#DejaVuSans-2d" x="417.822266"/>
       <use xlink:href="#DejaVuSans-31" x="453.90625"/>
       <use xlink:href="#DejaVuSans-35" x="517.529297"/>
      </g>
     </g>
    </g>
    <g id="xtick_21">
     <g id="line2d_21">
      <g>
       <use xlink:href="#m468528faff" x="820.869634" y="395.28" style="stroke: #000000; stroke-width: 0.8"/>
      </g>
     </g>
     <g id="text_21">
      <!-- 2023-01-12 -->
      <g transform="translate(735.740607 495.213718) rotate(-45) scale(0.2 -0.2)">
       <use xlink:href="#DejaVuSans-32"/>
       <use xlink:href="#DejaVuSans-30" x="63.623047"/>
       <use xlink:href="#DejaVuSans-32" x="127.246094"/>
       <use xlink:href="#DejaVuSans-33" x="190.869141"/>
       <use xlink:href="#DejaVuSans-2d" x="254.492188"/>
       <use xlink:href="#DejaVuSans-30" x="290.576172"/>
       <use xlink:href="#DejaVuSans-31" x="354.199219"/>
       <use xlink:href="#DejaVuSans-2d" x="417.822266"/>
       <use xlink:href="#DejaVuSans-31" x="453.90625"/>
       <use xlink:href="#DejaVuSans-32" x="517.529297"/>
      </g>
     </g>
    </g>
    <g id="xtick_22">
     <g id="line2d_22">
      <g>
       <use xlink:href="#m468528faff" x="856.759374" y="395.28" style="stroke: #000000; stroke-width: 0.8"/>
      </g>
     </g>
     <g id="text_22">
      <!-- 2023-02-09 -->
      <g transform="translate(771.630346 495.213718) rotate(-45) scale(0.2 -0.2)">
       <use xlink:href="#DejaVuSans-32"/>
       <use xlink:href="#DejaVuSans-30" x="63.623047"/>
       <use xlink:href="#DejaVuSans-32" x="127.246094"/>
       <use xlink:href="#DejaVuSans-33" x="190.869141"/>
       <use xlink:href="#DejaVuSans-2d" x="254.492188"/>
       <use xlink:href="#DejaVuSans-30" x="290.576172"/>
       <use xlink:href="#DejaVuSans-32" x="354.199219"/>
       <use xlink:href="#DejaVuSans-2d" x="417.822266"/>
       <use xlink:href="#DejaVuSans-30" x="453.90625"/>
       <use xlink:href="#DejaVuSans-39" x="517.529297"/>
      </g>
     </g>
    </g>
    <g id="xtick_23">
     <g id="line2d_23">
      <g>
       <use xlink:href="#m468528faff" x="892.649113" y="395.28" style="stroke: #000000; stroke-width: 0.8"/>
      </g>
     </g>
     <g id="text_23">
      <!-- 2023-03-09 -->
      <g transform="translate(807.520086 495.213718) rotate(-45) scale(0.2 -0.2)">
       <use xlink:href="#DejaVuSans-32"/>
       <use xlink:href="#DejaVuSans-30" x="63.623047"/>
       <use xlink:href="#DejaVuSans-32" x="127.246094"/>
       <use xlink:href="#DejaVuSans-33" x="190.869141"/>
       <use xlink:href="#DejaVuSans-2d" x="254.492188"/>
       <use xlink:href="#DejaVuSans-30" x="290.576172"/>
       <use xlink:href="#DejaVuSans-33" x="354.199219"/>
       <use xlink:href="#DejaVuSans-2d" x="417.822266"/>
       <use xlink:href="#DejaVuSans-30" x="453.90625"/>
       <use xlink:href="#DejaVuSans-39" x="517.529297"/>
      </g>
     </g>
    </g>
    <g id="xtick_24">
     <g id="line2d_24">
      <g>
       <use xlink:href="#m468528faff" x="928.538853" y="395.28" style="stroke: #000000; stroke-width: 0.8"/>
      </g>
     </g>
     <g id="text_24">
      <!-- 2023-04-06 -->
      <g transform="translate(843.409826 495.213718) rotate(-45) scale(0.2 -0.2)">
       <use xlink:href="#DejaVuSans-32"/>
       <use xlink:href="#DejaVuSans-30" x="63.623047"/>
       <use xlink:href="#DejaVuSans-32" x="127.246094"/>
       <use xlink:href="#DejaVuSans-33" x="190.869141"/>
       <use xlink:href="#DejaVuSans-2d" x="254.492188"/>
       <use xlink:href="#DejaVuSans-30" x="290.576172"/>
       <use xlink:href="#DejaVuSans-34" x="354.199219"/>
       <use xlink:href="#DejaVuSans-2d" x="417.822266"/>
       <use xlink:href="#DejaVuSans-30" x="453.90625"/>
       <use xlink:href="#DejaVuSans-36" x="517.529297"/>
      </g>
     </g>
    </g>
    <g id="xtick_25">
     <g id="line2d_25">
      <g>
       <use xlink:href="#m468528faff" x="940.074841" y="395.28" style="stroke: #000000; stroke-width: 0.8"/>
      </g>
     </g>
     <g id="text_25">
      <!-- 2023-04-15 -->
      <g transform="translate(854.945813 495.213718) rotate(-45) scale(0.2 -0.2)">
       <use xlink:href="#DejaVuSans-32"/>
       <use xlink:href="#DejaVuSans-30" x="63.623047"/>
       <use xlink:href="#DejaVuSans-32" x="127.246094"/>
       <use xlink:href="#DejaVuSans-33" x="190.869141"/>
       <use xlink:href="#DejaVuSans-2d" x="254.492188"/>
       <use xlink:href="#DejaVuSans-30" x="290.576172"/>
       <use xlink:href="#DejaVuSans-34" x="354.199219"/>
       <use xlink:href="#DejaVuSans-2d" x="417.822266"/>
       <use xlink:href="#DejaVuSans-31" x="453.90625"/>
       <use xlink:href="#DejaVuSans-35" x="517.529297"/>
      </g>
     </g>
    </g>
   </g>
   <g id="matplotlib.axis_2">
    <g id="ytick_1">
     <g id="line2d_26">
      <defs>
       <path id="m92fc32b4cb" d="M 0 0 
L -3.5 0 
" style="stroke: #000000; stroke-width: 0.8"/>
      </defs>
      <g>
       <use xlink:href="#m92fc32b4cb" x="103.074841" y="325.847752" style="stroke: #000000; stroke-width: 0.8"/>
      </g>
     </g>
     <g id="text_26">
      <!-- 0.10 -->
      <g transform="translate(34.784216 333.44619) scale(0.2 -0.2)">
       <defs>
        <path id="DejaVuSans-2212" d="M 678 2272 
L 4684 2272 
L 4684 1741 
L 678 1741 
L 678 2272 
z
" transform="scale(0.015625)"/>
        <path id="DejaVuSans-2e" d="M 684 794 
L 1344 794 
L 1344 0 
L 684 0 
L 684 794 
z
" transform="scale(0.015625)"/>
       </defs>
       <use xlink:href="#DejaVuSans-2212"/>
       <use xlink:href="#DejaVuSans-30" x="83.789062"/>
       <use xlink:href="#DejaVuSans-2e" x="147.412109"/>
       <use xlink:href="#DejaVuSans-31" x="179.199219"/>
       <use xlink:href="#DejaVuSans-30" x="242.822266"/>
      </g>
     </g>
    </g>
    <g id="ytick_2">
     <g id="line2d_27">
      <g>
       <use xlink:href="#m92fc32b4cb" x="103.074841" y="256.311411" style="stroke: #000000; stroke-width: 0.8"/>
      </g>
     </g>
     <g id="text_27">
      <!-- 0.05 -->
      <g transform="translate(34.784216 263.909848) scale(0.2 -0.2)">
       <use xlink:href="#DejaVuSans-2212"/>
       <use xlink:href="#DejaVuSans-30" x="83.789062"/>
       <use xlink:href="#DejaVuSans-2e" x="147.412109"/>
       <use xlink:href="#DejaVuSans-30" x="179.199219"/>
       <use xlink:href="#DejaVuSans-35" x="242.822266"/>
      </g>
     </g>
    </g>
    <g id="ytick_3">
     <g id="line2d_28">
      <g>
       <use xlink:href="#m92fc32b4cb" x="103.074841" y="186.775069" style="stroke: #000000; stroke-width: 0.8"/>
      </g>
     </g>
     <g id="text_28">
      <!-- 0.00 -->
      <g transform="translate(51.543591 194.373507) scale(0.2 -0.2)">
       <use xlink:href="#DejaVuSans-30"/>
       <use xlink:href="#DejaVuSans-2e" x="63.623047"/>
       <use xlink:href="#DejaVuSans-30" x="95.410156"/>
       <use xlink:href="#DejaVuSans-30" x="159.033203"/>
      </g>
     </g>
    </g>
    <g id="ytick_4">
     <g id="line2d_29">
      <g>
       <use xlink:href="#m92fc32b4cb" x="103.074841" y="117.238728" style="stroke: #000000; stroke-width: 0.8"/>
      </g>
     </g>
     <g id="text_29">
      <!-- 0.05 -->
      <g transform="translate(51.543591 124.837166) scale(0.2 -0.2)">
       <use xlink:href="#DejaVuSans-30"/>
       <use xlink:href="#DejaVuSans-2e" x="63.623047"/>
       <use xlink:href="#DejaVuSans-30" x="95.410156"/>
       <use xlink:href="#DejaVuSans-35" x="159.033203"/>
      </g>
     </g>
    </g>
    <g id="ytick_5">
     <g id="line2d_30">
      <g>
       <use xlink:href="#m92fc32b4cb" x="103.074841" y="47.702387" style="stroke: #000000; stroke-width: 0.8"/>
      </g>
     </g>
     <g id="text_30">
      <!-- 0.10 -->
      <g transform="translate(51.543591 55.300824) scale(0.2 -0.2)">
       <use xlink:href="#DejaVuSans-30"/>
       <use xlink:href="#DejaVuSans-2e" x="63.623047"/>
       <use xlink:href="#DejaVuSans-31" x="95.410156"/>
       <use xlink:href="#DejaVuSans-30" x="159.033203"/>
      </g>
     </g>
    </g>
    <g id="text_31">
     <!-- Relative fitness $\gamma_y$ -->
     <g transform="translate(24.584216 291.84) rotate(-90) scale(0.2 -0.2)">
      <defs>
       <path id="DejaVuSans-52" d="M 2841 2188 
Q 3044 2119 3236 1894 
Q 3428 1669 3622 1275 
L 4263 0 
L 3584 0 
L 2988 1197 
Q 2756 1666 2539 1819 
Q 2322 1972 1947 1972 
L 1259 1972 
L 1259 0 
L 628 0 
L 628 4666 
L 2053 4666 
Q 2853 4666 3247 4331 
Q 3641 3997 3641 3322 
Q 3641 2881 3436 2590 
Q 3231 2300 2841 2188 
z
M 1259 4147 
L 1259 2491 
L 2053 2491 
Q 2509 2491 2742 2702 
Q 2975 2913 2975 3322 
Q 2975 3731 2742 3939 
Q 2509 4147 2053 4147 
L 1259 4147 
z
" transform="scale(0.015625)"/>
       <path id="DejaVuSans-65" d="M 3597 1894 
L 3597 1613 
L 953 1613 
Q 991 1019 1311 708 
Q 1631 397 2203 397 
Q 2534 397 2845 478 
Q 3156 559 3463 722 
L 3463 178 
Q 3153 47 2828 -22 
Q 2503 -91 2169 -91 
Q 1331 -91 842 396 
Q 353 884 353 1716 
Q 353 2575 817 3079 
Q 1281 3584 2069 3584 
Q 2775 3584 3186 3129 
Q 3597 2675 3597 1894 
z
M 3022 2063 
Q 3016 2534 2758 2815 
Q 2500 3097 2075 3097 
Q 1594 3097 1305 2825 
Q 1016 2553 972 2059 
L 3022 2063 
z
" transform="scale(0.015625)"/>
       <path id="DejaVuSans-6c" d="M 603 4863 
L 1178 4863 
L 1178 0 
L 603 0 
L 603 4863 
z
" transform="scale(0.015625)"/>
       <path id="DejaVuSans-61" d="M 2194 1759 
Q 1497 1759 1228 1600 
Q 959 1441 959 1056 
Q 959 750 1161 570 
Q 1363 391 1709 391 
Q 2188 391 2477 730 
Q 2766 1069 2766 1631 
L 2766 1759 
L 2194 1759 
z
M 3341 1997 
L 3341 0 
L 2766 0 
L 2766 531 
Q 2569 213 2275 61 
Q 1981 -91 1556 -91 
Q 1019 -91 701 211 
Q 384 513 384 1019 
Q 384 1609 779 1909 
Q 1175 2209 1959 2209 
L 2766 2209 
L 2766 2266 
Q 2766 2663 2505 2880 
Q 2244 3097 1772 3097 
Q 1472 3097 1187 3025 
Q 903 2953 641 2809 
L 641 3341 
Q 956 3463 1253 3523 
Q 1550 3584 1831 3584 
Q 2591 3584 2966 3190 
Q 3341 2797 3341 1997 
z
" transform="scale(0.015625)"/>
       <path id="DejaVuSans-74" d="M 1172 4494 
L 1172 3500 
L 2356 3500 
L 2356 3053 
L 1172 3053 
L 1172 1153 
Q 1172 725 1289 603 
Q 1406 481 1766 481 
L 2356 481 
L 2356 0 
L 1766 0 
Q 1100 0 847 248 
Q 594 497 594 1153 
L 594 3053 
L 172 3053 
L 172 3500 
L 594 3500 
L 594 4494 
L 1172 4494 
z
" transform="scale(0.015625)"/>
       <path id="DejaVuSans-69" d="M 603 3500 
L 1178 3500 
L 1178 0 
L 603 0 
L 603 3500 
z
M 603 4863 
L 1178 4863 
L 1178 4134 
L 603 4134 
L 603 4863 
z
" transform="scale(0.015625)"/>
       <path id="DejaVuSans-76" d="M 191 3500 
L 800 3500 
L 1894 563 
L 2988 3500 
L 3597 3500 
L 2284 0 
L 1503 0 
L 191 3500 
z
" transform="scale(0.015625)"/>
       <path id="DejaVuSans-20" transform="scale(0.015625)"/>
       <path id="DejaVuSans-66" d="M 2375 4863 
L 2375 4384 
L 1825 4384 
Q 1516 4384 1395 4259 
Q 1275 4134 1275 3809 
L 1275 3500 
L 2222 3500 
L 2222 3053 
L 1275 3053 
L 1275 0 
L 697 0 
L 697 3053 
L 147 3053 
L 147 3500 
L 697 3500 
L 697 3744 
Q 697 4328 969 4595 
Q 1241 4863 1831 4863 
L 2375 4863 
z
" transform="scale(0.015625)"/>
       <path id="DejaVuSans-6e" d="M 3513 2113 
L 3513 0 
L 2938 0 
L 2938 2094 
Q 2938 2591 2744 2837 
Q 2550 3084 2163 3084 
Q 1697 3084 1428 2787 
Q 1159 2491 1159 1978 
L 1159 0 
L 581 0 
L 581 3500 
L 1159 3500 
L 1159 2956 
Q 1366 3272 1645 3428 
Q 1925 3584 2291 3584 
Q 2894 3584 3203 3211 
Q 3513 2838 3513 2113 
z
" transform="scale(0.015625)"/>
       <path id="DejaVuSans-73" d="M 2834 3397 
L 2834 2853 
Q 2591 2978 2328 3040 
Q 2066 3103 1784 3103 
Q 1356 3103 1142 2972 
Q 928 2841 928 2578 
Q 928 2378 1081 2264 
Q 1234 2150 1697 2047 
L 1894 2003 
Q 2506 1872 2764 1633 
Q 3022 1394 3022 966 
Q 3022 478 2636 193 
Q 2250 -91 1575 -91 
Q 1294 -91 989 -36 
Q 684 19 347 128 
L 347 722 
Q 666 556 975 473 
Q 1284 391 1588 391 
Q 1994 391 2212 530 
Q 2431 669 2431 922 
Q 2431 1156 2273 1281 
Q 2116 1406 1581 1522 
L 1381 1569 
Q 847 1681 609 1914 
Q 372 2147 372 2553 
Q 372 3047 722 3315 
Q 1072 3584 1716 3584 
Q 2034 3584 2315 3537 
Q 2597 3491 2834 3397 
z
" transform="scale(0.015625)"/>
       <path id="DejaVuSans-Oblique-3b3" d="M 1491 2950 
L 1838 788 
L 3456 3500 
L 4066 3500 
L 1972 0 
L 1713 -1331 
L 1138 -1331 
L 1397 0 
L 988 2613 
Q 925 3006 628 3006 
L 475 3006 
L 569 3500 
L 788 3500 
Q 1403 3500 1491 2950 
z
" transform="scale(0.015625)"/>
       <path id="DejaVuSans-Oblique-79" d="M 1588 -325 
Q 1188 -997 936 -1164 
Q 684 -1331 294 -1331 
L -159 -1331 
L -63 -850 
L 269 -850 
Q 509 -850 678 -719 
Q 847 -588 1056 -206 
L 1234 128 
L 459 3500 
L 1069 3500 
L 1650 819 
L 3256 3500 
L 3859 3500 
L 1588 -325 
z
" transform="scale(0.015625)"/>
      </defs>
      <use xlink:href="#DejaVuSans-52" transform="translate(0 0.015625)"/>
      <use xlink:href="#DejaVuSans-65" transform="translate(69.482422 0.015625)"/>
      <use xlink:href="#DejaVuSans-6c" transform="translate(131.005859 0.015625)"/>
      <use xlink:href="#DejaVuSans-61" transform="translate(158.789062 0.015625)"/>
      <use xlink:href="#DejaVuSans-74" transform="translate(220.068359 0.015625)"/>
      <use xlink:href="#DejaVuSans-69" transform="translate(259.277344 0.015625)"/>
      <use xlink:href="#DejaVuSans-76" transform="translate(287.060547 0.015625)"/>
      <use xlink:href="#DejaVuSans-65" transform="translate(346.240234 0.015625)"/>
      <use xlink:href="#DejaVuSans-20" transform="translate(407.763672 0.015625)"/>
      <use xlink:href="#DejaVuSans-66" transform="translate(439.550781 0.015625)"/>
      <use xlink:href="#DejaVuSans-69" transform="translate(474.755859 0.015625)"/>
      <use xlink:href="#DejaVuSans-74" transform="translate(502.539062 0.015625)"/>
      <use xlink:href="#DejaVuSans-6e" transform="translate(541.748047 0.015625)"/>
      <use xlink:href="#DejaVuSans-65" transform="translate(605.126953 0.015625)"/>
      <use xlink:href="#DejaVuSans-73" transform="translate(666.650391 0.015625)"/>
      <use xlink:href="#DejaVuSans-73" transform="translate(718.75 0.015625)"/>
      <use xlink:href="#DejaVuSans-20" transform="translate(770.849609 0.015625)"/>
      <use xlink:href="#DejaVuSans-Oblique-3b3" transform="translate(802.636719 0.015625)"/>
      <use xlink:href="#DejaVuSans-Oblique-79" transform="translate(861.816406 -16.390625) scale(0.7)"/>
     </g>
    </g>
   </g>
   <g id="line2d_31">
    <path d="M 103.074841 186.775069 
L 1041.965466 186.775069 
" clip-path="url(#pfc205f9e59)" style="fill: none; stroke-dasharray: 7.4,3.2; stroke-dashoffset: 0; stroke: #000000; stroke-width: 2"/>
   </g>
   <g id="patch_3">
    <path d="M 103.074841 395.28 
L 103.074841 7.2 
" style="fill: none; stroke: #000000; stroke-width: 0.8; stroke-linejoin: miter; stroke-linecap: square"/>
   </g>
   <g id="patch_4">
    <path d="M 940.074841 395.28 
L 940.074841 7.2 
" style="fill: none; stroke: #000000; stroke-width: 0.8; stroke-linejoin: miter; stroke-linecap: square"/>
   </g>
   <g id="patch_5">
    <path d="M 103.074841 395.28 
L 940.074841 395.28 
" style="fill: none; stroke: #000000; stroke-width: 0.8; stroke-linejoin: miter; stroke-linecap: square"/>
   </g>
   <g id="patch_6">
    <path d="M 103.074841 7.2 
L 940.074841 7.2 
" style="fill: none; stroke: #000000; stroke-width: 0.8; stroke-linejoin: miter; stroke-linecap: square"/>
   </g>
  </g>
  <g id="axes_2">
   <g id="matplotlib.axis_3">
    <g id="ytick_6">
     <g id="line2d_32">
      <defs>
       <path id="m59114372ae" d="M 0 0 
L 3.5 0 
" style="stroke: #000000; stroke-width: 0.8"/>
      </defs>
      <g>
       <use xlink:href="#m59114372ae" x="940.074841" y="325.847752" style="stroke: #000000; stroke-width: 0.8"/>
      </g>
     </g>
     <g id="text_32">
      <!-- 0.10 -->
      <g transform="translate(947.074841 333.44619) scale(0.2 -0.2)">
       <use xlink:href="#DejaVuSans-2212"/>
       <use xlink:href="#DejaVuSans-30" x="83.789062"/>
       <use xlink:href="#DejaVuSans-2e" x="147.412109"/>
       <use xlink:href="#DejaVuSans-31" x="179.199219"/>
       <use xlink:href="#DejaVuSans-30" x="242.822266"/>
      </g>
     </g>
    </g>
    <g id="ytick_7">
     <g id="line2d_33">
      <g>
       <use xlink:href="#m59114372ae" x="940.074841" y="256.311411" style="stroke: #000000; stroke-width: 0.8"/>
      </g>
     </g>
     <g id="text_33">
      <!-- 0.05 -->
      <g transform="translate(947.074841 263.909848) scale(0.2 -0.2)">
       <use xlink:href="#DejaVuSans-2212"/>
       <use xlink:href="#DejaVuSans-30" x="83.789062"/>
       <use xlink:href="#DejaVuSans-2e" x="147.412109"/>
       <use xlink:href="#DejaVuSans-30" x="179.199219"/>
       <use xlink:href="#DejaVuSans-35" x="242.822266"/>
      </g>
     </g>
    </g>
    <g id="ytick_8">
     <g id="line2d_34">
      <g>
       <use xlink:href="#m59114372ae" x="940.074841" y="186.775069" style="stroke: #000000; stroke-width: 0.8"/>
      </g>
     </g>
     <g id="text_34">
      <!-- 0.00 -->
      <g transform="translate(947.074841 194.373507) scale(0.2 -0.2)">
       <use xlink:href="#DejaVuSans-30"/>
       <use xlink:href="#DejaVuSans-2e" x="63.623047"/>
       <use xlink:href="#DejaVuSans-30" x="95.410156"/>
       <use xlink:href="#DejaVuSans-30" x="159.033203"/>
      </g>
     </g>
    </g>
    <g id="ytick_9">
     <g id="line2d_35">
      <g>
       <use xlink:href="#m59114372ae" x="940.074841" y="117.238728" style="stroke: #000000; stroke-width: 0.8"/>
      </g>
     </g>
     <g id="text_35">
      <!-- 0.05 -->
      <g transform="translate(947.074841 124.837166) scale(0.2 -0.2)">
       <use xlink:href="#DejaVuSans-30"/>
       <use xlink:href="#DejaVuSans-2e" x="63.623047"/>
       <use xlink:href="#DejaVuSans-30" x="95.410156"/>
       <use xlink:href="#DejaVuSans-35" x="159.033203"/>
      </g>
     </g>
    </g>
    <g id="ytick_10">
     <g id="line2d_36">
      <g>
       <use xlink:href="#m59114372ae" x="940.074841" y="47.702387" style="stroke: #000000; stroke-width: 0.8"/>
      </g>
     </g>
     <g id="text_36">
      <!-- 0.10 -->
      <g transform="translate(947.074841 55.300824) scale(0.2 -0.2)">
       <use xlink:href="#DejaVuSans-30"/>
       <use xlink:href="#DejaVuSans-2e" x="63.623047"/>
       <use xlink:href="#DejaVuSans-31" x="95.410156"/>
       <use xlink:href="#DejaVuSans-30" x="159.033203"/>
      </g>
     </g>
    </g>
    <g id="text_37">
     <!-- Change in proportion $\gamma_{prop}$ -->
     <g transform="translate(1027.565466 332.74) rotate(-90) scale(0.2 -0.2)">
      <defs>
       <path id="DejaVuSans-43" d="M 4122 4306 
L 4122 3641 
Q 3803 3938 3442 4084 
Q 3081 4231 2675 4231 
Q 1875 4231 1450 3742 
Q 1025 3253 1025 2328 
Q 1025 1406 1450 917 
Q 1875 428 2675 428 
Q 3081 428 3442 575 
Q 3803 722 4122 1019 
L 4122 359 
Q 3791 134 3420 21 
Q 3050 -91 2638 -91 
Q 1578 -91 968 557 
Q 359 1206 359 2328 
Q 359 3453 968 4101 
Q 1578 4750 2638 4750 
Q 3056 4750 3426 4639 
Q 3797 4528 4122 4306 
z
" transform="scale(0.015625)"/>
       <path id="DejaVuSans-68" d="M 3513 2113 
L 3513 0 
L 2938 0 
L 2938 2094 
Q 2938 2591 2744 2837 
Q 2550 3084 2163 3084 
Q 1697 3084 1428 2787 
Q 1159 2491 1159 1978 
L 1159 0 
L 581 0 
L 581 4863 
L 1159 4863 
L 1159 2956 
Q 1366 3272 1645 3428 
Q 1925 3584 2291 3584 
Q 2894 3584 3203 3211 
Q 3513 2838 3513 2113 
z
" transform="scale(0.015625)"/>
       <path id="DejaVuSans-67" d="M 2906 1791 
Q 2906 2416 2648 2759 
Q 2391 3103 1925 3103 
Q 1463 3103 1205 2759 
Q 947 2416 947 1791 
Q 947 1169 1205 825 
Q 1463 481 1925 481 
Q 2391 481 2648 825 
Q 2906 1169 2906 1791 
z
M 3481 434 
Q 3481 -459 3084 -895 
Q 2688 -1331 1869 -1331 
Q 1566 -1331 1297 -1286 
Q 1028 -1241 775 -1147 
L 775 -588 
Q 1028 -725 1275 -790 
Q 1522 -856 1778 -856 
Q 2344 -856 2625 -561 
Q 2906 -266 2906 331 
L 2906 616 
Q 2728 306 2450 153 
Q 2172 0 1784 0 
Q 1141 0 747 490 
Q 353 981 353 1791 
Q 353 2603 747 3093 
Q 1141 3584 1784 3584 
Q 2172 3584 2450 3431 
Q 2728 3278 2906 2969 
L 2906 3500 
L 3481 3500 
L 3481 434 
z
" transform="scale(0.015625)"/>
       <path id="DejaVuSans-70" d="M 1159 525 
L 1159 -1331 
L 581 -1331 
L 581 3500 
L 1159 3500 
L 1159 2969 
Q 1341 3281 1617 3432 
Q 1894 3584 2278 3584 
Q 2916 3584 3314 3078 
Q 3713 2572 3713 1747 
Q 3713 922 3314 415 
Q 2916 -91 2278 -91 
Q 1894 -91 1617 61 
Q 1341 213 1159 525 
z
M 3116 1747 
Q 3116 2381 2855 2742 
Q 2594 3103 2138 3103 
Q 1681 3103 1420 2742 
Q 1159 2381 1159 1747 
Q 1159 1113 1420 752 
Q 1681 391 2138 391 
Q 2594 391 2855 752 
Q 3116 1113 3116 1747 
z
" transform="scale(0.015625)"/>
       <path id="DejaVuSans-72" d="M 2631 2963 
Q 2534 3019 2420 3045 
Q 2306 3072 2169 3072 
Q 1681 3072 1420 2755 
Q 1159 2438 1159 1844 
L 1159 0 
L 581 0 
L 581 3500 
L 1159 3500 
L 1159 2956 
Q 1341 3275 1631 3429 
Q 1922 3584 2338 3584 
Q 2397 3584 2469 3576 
Q 2541 3569 2628 3553 
L 2631 2963 
z
" transform="scale(0.015625)"/>
       <path id="DejaVuSans-6f" d="M 1959 3097 
Q 1497 3097 1228 2736 
Q 959 2375 959 1747 
Q 959 1119 1226 758 
Q 1494 397 1959 397 
Q 2419 397 2687 759 
Q 2956 1122 2956 1747 
Q 2956 2369 2687 2733 
Q 2419 3097 1959 3097 
z
M 1959 3584 
Q 2709 3584 3137 3096 
Q 3566 2609 3566 1747 
Q 3566 888 3137 398 
Q 2709 -91 1959 -91 
Q 1206 -91 779 398 
Q 353 888 353 1747 
Q 353 2609 779 3096 
Q 1206 3584 1959 3584 
z
" transform="scale(0.015625)"/>
       <path id="DejaVuSans-Oblique-70" d="M 3175 2156 
Q 3175 2616 2975 2859 
Q 2775 3103 2400 3103 
Q 2144 3103 1911 2972 
Q 1678 2841 1497 2591 
Q 1319 2344 1212 1994 
Q 1106 1644 1106 1300 
Q 1106 863 1306 627 
Q 1506 391 1875 391 
Q 2147 391 2380 519 
Q 2613 647 2778 891 
Q 2956 1147 3065 1494 
Q 3175 1841 3175 2156 
z
M 1394 2969 
Q 1625 3272 1939 3428 
Q 2253 3584 2638 3584 
Q 3175 3584 3472 3232 
Q 3769 2881 3769 2247 
Q 3769 1728 3584 1258 
Q 3400 788 3053 416 
Q 2822 169 2531 39 
Q 2241 -91 1919 -91 
Q 1547 -91 1294 64 
Q 1041 219 916 525 
L 556 -1331 
L -19 -1331 
L 922 3500 
L 1497 3500 
L 1394 2969 
z
" transform="scale(0.015625)"/>
       <path id="DejaVuSans-Oblique-72" d="M 2853 2969 
Q 2766 3016 2653 3041 
Q 2541 3066 2413 3066 
Q 1953 3066 1609 2717 
Q 1266 2369 1153 1784 
L 800 0 
L 225 0 
L 909 3500 
L 1484 3500 
L 1375 2956 
Q 1603 3259 1920 3421 
Q 2238 3584 2597 3584 
Q 2691 3584 2781 3573 
Q 2872 3563 2963 3538 
L 2853 2969 
z
" transform="scale(0.015625)"/>
       <path id="DejaVuSans-Oblique-6f" d="M 1625 -91 
Q 1009 -91 651 289 
Q 294 669 294 1325 
Q 294 1706 417 2101 
Q 541 2497 738 2766 
Q 1047 3184 1428 3384 
Q 1809 3584 2291 3584 
Q 2888 3584 3255 3212 
Q 3622 2841 3622 2241 
Q 3622 1825 3500 1412 
Q 3378 1000 3181 728 
Q 2875 309 2494 109 
Q 2113 -91 1625 -91 
z
M 891 1344 
Q 891 869 1089 633 
Q 1288 397 1691 397 
Q 2269 397 2648 901 
Q 3028 1406 3028 2181 
Q 3028 2634 2825 2865 
Q 2622 3097 2228 3097 
Q 1903 3097 1650 2945 
Q 1397 2794 1197 2484 
Q 1050 2253 970 1956 
Q 891 1659 891 1344 
z
" transform="scale(0.015625)"/>
      </defs>
      <use xlink:href="#DejaVuSans-43" transform="translate(0 0.015625)"/>
      <use xlink:href="#DejaVuSans-68" transform="translate(69.824219 0.015625)"/>
      <use xlink:href="#DejaVuSans-61" transform="translate(133.203125 0.015625)"/>
      <use xlink:href="#DejaVuSans-6e" transform="translate(194.482422 0.015625)"/>
      <use xlink:href="#DejaVuSans-67" transform="translate(257.861328 0.015625)"/>
      <use xlink:href="#DejaVuSans-65" transform="translate(321.337891 0.015625)"/>
      <use xlink:href="#DejaVuSans-20" transform="translate(382.861328 0.015625)"/>
      <use xlink:href="#DejaVuSans-69" transform="translate(414.648438 0.015625)"/>
      <use xlink:href="#DejaVuSans-6e" transform="translate(442.431641 0.015625)"/>
      <use xlink:href="#DejaVuSans-20" transform="translate(505.810547 0.015625)"/>
      <use xlink:href="#DejaVuSans-70" transform="translate(537.597656 0.015625)"/>
      <use xlink:href="#DejaVuSans-72" transform="translate(601.074219 0.015625)"/>
      <use xlink:href="#DejaVuSans-6f" transform="translate(642.1875 0.015625)"/>
      <use xlink:href="#DejaVuSans-70" transform="translate(703.369141 0.015625)"/>
      <use xlink:href="#DejaVuSans-6f" transform="translate(766.845703 0.015625)"/>
      <use xlink:href="#DejaVuSans-72" transform="translate(828.027344 0.015625)"/>
      <use xlink:href="#DejaVuSans-74" transform="translate(869.140625 0.015625)"/>
      <use xlink:href="#DejaVuSans-69" transform="translate(908.349609 0.015625)"/>
      <use xlink:href="#DejaVuSans-6f" transform="translate(936.132812 0.015625)"/>
      <use xlink:href="#DejaVuSans-6e" transform="translate(997.314453 0.015625)"/>
      <use xlink:href="#DejaVuSans-20" transform="translate(1060.693359 0.015625)"/>
      <use xlink:href="#DejaVuSans-Oblique-3b3" transform="translate(1092.480469 0.015625)"/>
      <use xlink:href="#DejaVuSans-Oblique-70" transform="translate(1151.660156 -16.390625) scale(0.7)"/>
      <use xlink:href="#DejaVuSans-Oblique-72" transform="translate(1196.09375 -16.390625) scale(0.7)"/>
      <use xlink:href="#DejaVuSans-Oblique-6f" transform="translate(1224.873047 -16.390625) scale(0.7)"/>
      <use xlink:href="#DejaVuSans-Oblique-70" transform="translate(1267.700195 -16.390625) scale(0.7)"/>
     </g>
    </g>
   </g>
   <g id="line2d_37">
    <path d="M 940.074841 186.775069 
" clip-path="url(#pfc205f9e59)" style="fill: none; stroke: #ffa500; stroke-width: 1.5; stroke-linecap: square"/>
   </g>
   <g id="patch_7">
    <path d="M 103.074841 395.28 
L 103.074841 7.2 
" style="fill: none; stroke: #000000; stroke-width: 0.8; stroke-linejoin: miter; stroke-linecap: square"/>
   </g>
   <g id="patch_8">
    <path d="M 940.074841 395.28 
L 940.074841 7.2 
" style="fill: none; stroke: #000000; stroke-width: 0.8; stroke-linejoin: miter; stroke-linecap: square"/>
   </g>
   <g id="patch_9">
    <path d="M 103.074841 395.28 
L 940.074841 395.28 
" style="fill: none; stroke: #000000; stroke-width: 0.8; stroke-linejoin: miter; stroke-linecap: square"/>
   </g>
   <g id="patch_10">
    <path d="M 103.074841 7.2 
L 940.074841 7.2 
" style="fill: none; stroke: #000000; stroke-width: 0.8; stroke-linejoin: miter; stroke-linecap: square"/>
   </g>
  </g>
 </g>
 <defs>
  <clipPath id="pfc205f9e59">
   <rect x="103.074841" y="7.2" width="837" height="388.08"/>
  </clipPath>
 </defs>
</svg>
