<?xml version="1.0" encoding="utf-8" standalone="no"?>
<!DOCTYPE svg PUBLIC "-//W3C//DTD SVG 1.1//EN"
  "http://www.w3.org/Graphics/SVG/1.1/DTD/svg11.dtd">
<svg xmlns:xlink="http://www.w3.org/1999/xlink" width="947.274841pt" height="505.354841pt" viewBox="0 0 947.274841 505.354841" xmlns="http://www.w3.org/2000/svg" version="1.1">
 <metadata>
  <rdf:RDF xmlns:dc="http://purl.org/dc/elements/1.1/" xmlns:cc="http://creativecommons.org/ns#" xmlns:rdf="http://www.w3.org/1999/02/22-rdf-syntax-ns#">
   <cc:Work>
    <dc:type rdf:resource="http://purl.org/dc/dcmitype/StillImage"/>
    <dc:date>2023-11-15T18:16:51.272556</dc:date>
    <dc:format>image/svg+xml</dc:format>
    <dc:creator>
     <cc:Agent>
      <dc:title>Matplotlib v3.7.2, https://matplotlib.org/</dc:title>
     </cc:Agent>
    </dc:creator>
   </cc:Work>
  </rdf:RDF>
 </metadata>
 <defs>
  <style type="text/css">*{stroke-linejoin: round; stroke-linecap: butt}</style>
 </defs>
 <g id="figure_1">
  <g id="patch_1">
   <path d="M 0 505.354841 
L 947.274841 505.354841 
L 947.274841 -0 
L 0 -0 
z
" style="fill: #ffffff"/>
  </g>
  <g id="axes_1">
   <g id="patch_2">
    <path d="M 103.074841 395.28 
L 940.074841 395.28 
L 940.074841 7.2 
L 103.074841 7.2 
z
" style="fill: #ffffff"/>
   </g>
   <g id="PolyCollection_1">
    <path d="M -4315.31939 370.547026 
L -4315.31939 370.56847 
L -4307.271313 370.460707 
L -4299.223236 370.367085 
L -4291.175159 370.248285 
L -4283.127082 370.168568 
L -4275.079005 370.069006 
L -4267.030929 369.964845 
L -4258.982852 369.861643 
L -4250.934775 369.764536 
L -4242.886698 369.678923 
L -4234.838621 369.580283 
L -4226.790544 369.47709 
L -4218.742467 369.376751 
L -4210.69439 369.254257 
L -4202.646313 369.152145 
L -4194.598236 369.0325 
L -4186.550159 368.929649 
L -4178.502082 368.791912 
L -4170.454005 368.678052 
L -4162.405929 368.568193 
L -4154.357852 368.438818 
L -4146.309775 368.312562 
L -4138.261698 368.188999 
L -4130.213621 368.040585 
L -4122.165544 367.910192 
L -4114.117467 367.758127 
L -4106.06939 367.604118 
L -4098.021313 367.434065 
L -4089.973236 367.259291 
L -4081.925159 367.088118 
L -4073.877082 366.890374 
L -4065.829005 366.666729 
L -4057.780929 366.467566 
L -4049.732852 366.241774 
L -4041.684775 365.984288 
L -4033.636698 365.743982 
L -4025.588621 365.462985 
L -4017.540544 365.177435 
L -4009.492467 364.883283 
L -4001.44439 364.572491 
L -3993.396313 364.228181 
L -3985.348236 363.861736 
L -3977.300159 363.473588 
L -3969.252082 363.099152 
L -3961.204005 362.660044 
L -3953.155929 362.242072 
L -3945.107852 361.796875 
L -3937.059775 361.349724 
L -3929.011698 360.868594 
L -3920.963621 360.34817 
L -3912.915544 359.865509 
L -3904.867467 359.328759 
L -3896.81939 358.773669 
L -3888.771313 358.229488 
L -3880.723236 357.69048 
L -3872.675159 357.106336 
L -3864.627082 356.515824 
L -3856.579005 355.926233 
L -3848.530929 355.312587 
L -3840.482852 354.69135 
L -3832.434775 354.071953 
L -3824.386698 353.431712 
L -3816.338621 352.789959 
L -3808.290544 352.15779 
L -3800.242467 351.499846 
L -3792.19439 350.796521 
L -3784.146313 350.114695 
L -3776.098236 349.434489 
L -3768.050159 348.764674 
L -3760.002082 348.067652 
L -3751.954005 347.386605 
L -3743.905929 346.694086 
L -3735.857852 346.068127 
L -3727.809775 345.332181 
L -3719.761698 344.693061 
L -3711.713621 343.993736 
L -3703.665544 343.327118 
L -3695.617467 342.633929 
L -3687.56939 342.015105 
L -3679.521313 341.306285 
L -3671.473236 340.639496 
L -3663.425159 340.015051 
L -3655.377082 339.343239 
L -3647.329005 338.706588 
L -3639.280929 338.041026 
L -3631.232852 337.36661 
L -3623.184775 336.723825 
L -3615.136698 336.093241 
L -3607.088621 335.415034 
L -3599.040544 334.762376 
L -3590.992467 334.105306 
L -3582.94439 333.458847 
L -3574.896313 332.827273 
L -3566.848236 332.17865 
L -3558.800159 331.52386 
L -3550.752082 330.932841 
L -3542.704005 330.265371 
L -3534.655929 329.625233 
L -3526.607852 328.995305 
L -3518.559775 328.364672 
L -3510.511698 327.735661 
L -3502.463621 327.098715 
L -3494.415544 326.490428 
L -3486.367467 325.858242 
L -3478.31939 325.210742 
L -3470.271313 324.556179 
L -3462.223236 323.894683 
L -3454.175159 323.274031 
L -3446.127082 322.592873 
L -3438.079005 321.867826 
L -3430.030929 321.185579 
L -3421.982852 320.46704 
L -3413.934775 319.737734 
L -3405.886698 318.968718 
L -3397.838621 318.186147 
L -3389.790544 317.457269 
L -3381.742467 316.628545 
L -3373.69439 315.839518 
L -3365.646313 314.991815 
L -3357.598236 314.211167 
L -3349.550159 313.297089 
L -3341.502082 312.400457 
L -3333.454005 311.528071 
L -3325.405929 310.640589 
L -3317.357852 309.726156 
L -3309.309775 308.771338 
L -3301.261698 307.874682 
L -3293.213621 306.850963 
L -3285.165544 305.94753 
L -3277.117467 304.894109 
L -3269.06939 303.872202 
L -3261.021313 302.873334 
L -3252.973236 301.913734 
L -3244.925159 300.797886 
L -3236.877082 299.786873 
L -3228.829005 298.508292 
L -3220.780929 297.403962 
L -3212.732852 296.372433 
L -3204.684775 295.210604 
L -3196.636698 294.019138 
L -3188.588621 292.650971 
L -3180.540544 291.366022 
L -3172.492467 290.28757 
L -3164.44439 288.59921 
L -3156.396313 287.235178 
L -3148.348236 285.841029 
L -3140.300159 284.395189 
L -3132.252082 282.752945 
L -3124.204005 281.20485 
L -3116.155929 280.024333 
L -3108.107852 278.530629 
L -3100.059775 276.107553 
L -3092.011698 274.060781 
L -3083.963621 272.533223 
L -3075.915544 270.436906 
L -3067.867467 268.686623 
L -3059.81939 267.153581 
L -3051.771313 264.856634 
L -3043.723236 262.250466 
L -3035.675159 260.721832 
L -3027.627082 259.944192 
L -3019.579005 258.121293 
L -3011.530929 257.509261 
L -3003.482852 256.356976 
L -2995.434775 254.169407 
L -2987.386698 254.313595 
L -2979.338621 255.17289 
L -2971.290544 257.022493 
L -2963.242467 254.90789 
L -2955.19439 259.055574 
L -2947.146313 259.973333 
L -2939.098236 254.364523 
L -2931.050159 255.944126 
L -2923.002082 258.421099 
L -2914.954005 256.955941 
L -2906.905929 256.654876 
L -2898.857852 267.301834 
L -2890.809775 282.445145 
L -2882.761698 289.996047 
L -2874.713621 273.598598 
L -2866.665544 282.064772 
L -2858.617467 293.151812 
L -2850.56939 292.544326 
L -2842.521313 315.082874 
L -2834.473236 312.061502 
L -2826.425159 305.228448 
L -2818.377082 288.224094 
L -2810.329005 304.295673 
L -2802.280929 313.981899 
L -2794.232852 310.005593 
L -2786.184775 312.570448 
L -2778.136698 321.721412 
L -2770.088621 320.570871 
L -2762.040544 312.791348 
L -2753.992467 322.703744 
L -2745.94439 324.724296 
L -2737.896313 321.27649 
L -2729.848236 327.600157 
L -2721.800159 329.96063 
L -2713.752082 329.419567 
L -2705.704005 327.601606 
L -2697.655929 329.736366 
L -2689.607852 327.722095 
L -2681.559775 327.989748 
L -2673.511698 330.032651 
L -2665.463621 328.276334 
L -2657.415544 329.318235 
L -2649.367467 329.456209 
L -2641.31939 328.057377 
L -2633.271313 328.694816 
L -2625.223236 326.641364 
L -2617.175159 326.876891 
L -2609.127082 327.56202 
L -2601.079005 327.685428 
L -2593.030929 326.729559 
L -2584.982852 325.926834 
L -2576.934775 325.787145 
L -2568.886698 324.8883 
L -2560.838621 324.820325 
L -2552.790544 324.716999 
L -2544.742467 323.303798 
L -2536.69439 324.085173 
L -2528.646313 323.168744 
L -2520.598236 322.807177 
L -2512.550159 322.895392 
L -2504.502082 321.985023 
L -2496.454005 321.795591 
L -2488.405929 322.1625 
L -2480.357852 322.721727 
L -2472.309775 321.161016 
L -2464.261698 320.901725 
L -2456.213621 320.387812 
L -2448.165544 323.10321 
L -2440.117467 323.127899 
L -2432.06939 324.120454 
L -2424.021313 321.442655 
L -2415.973236 319.769418 
L -2407.925159 320.207895 
L -2399.877082 321.918091 
L -2391.829005 322.103905 
L -2383.780929 318.824163 
L -2375.732852 321.360373 
L -2367.684775 320.535653 
L -2359.636698 319.926034 
L -2351.588621 318.288449 
L -2343.540544 319.281909 
L -2335.492467 318.361814 
L -2327.44439 318.796406 
L -2319.396313 317.594112 
L -2311.348236 316.576854 
L -2303.300159 314.947443 
L -2295.252082 314.011167 
L -2287.204005 313.12002 
L -2279.155929 311.994709 
L -2271.107852 311.480641 
L -2263.059775 310.37503 
L -2255.011698 309.193415 
L -2246.963621 306.680721 
L -2238.915544 304.674925 
L -2230.867467 303.54824 
L -2222.81939 301.376138 
L -2214.771313 300.599805 
L -2206.723236 298.604332 
L -2198.675159 295.868594 
L -2190.627082 293.508602 
L -2182.579005 291.600536 
L -2174.530929 288.769832 
L -2166.482852 286.838076 
L -2158.434775 284.241952 
L -2150.386698 281.884967 
L -2142.338621 279.039111 
L -2134.290544 276.607382 
L -2126.242467 273.46752 
L -2118.19439 270.897909 
L -2110.146313 268.263323 
L -2102.098236 264.868903 
L -2094.050159 261.684154 
L -2086.002082 259.179317 
L -2077.954005 256.375782 
L -2069.905929 252.997461 
L -2061.857852 250.210214 
L -2053.809775 246.925785 
L -2045.761698 242.561701 
L -2037.713621 240.435825 
L -2029.665544 236.670805 
L -2021.617467 233.609526 
L -2013.56939 230.21812 
L -2005.521313 226.540293 
L -1997.473236 222.785557 
L -1989.425159 219.303023 
L -1981.377082 214.83364 
L -1973.329005 211.941125 
L -1965.280929 207.679247 
L -1957.232852 204.754675 
L -1949.184775 200.395606 
L -1941.136698 196.142066 
L -1933.088621 192.209207 
L -1925.040544 188.950407 
L -1916.992467 183.978333 
L -1908.94439 180.411329 
L -1900.896313 175.985033 
L -1892.848236 172.347611 
L -1884.800159 167.806886 
L -1876.752082 163.745621 
L -1868.704005 162.697587 
L -1860.655929 155.315928 
L -1852.607852 153.642952 
L -1844.559775 148.914569 
L -1836.511698 145.459123 
L -1828.463621 141.497691 
L -1820.415544 137.313643 
L -1812.367467 133.471218 
L -1804.31939 129.741068 
L -1796.271313 126.194306 
L -1788.223236 122.636237 
L -1780.175159 124.17239 
L -1772.127082 115.007585 
L -1764.079005 112.224558 
L -1756.030929 118.523202 
L -1747.982852 107.622873 
L -1739.934775 108.688409 
L -1731.886698 106.928908 
L -1723.838621 100.97592 
L -1715.790544 101.285376 
L -1707.742467 105.891477 
L -1699.69439 101.514702 
L -1691.646313 99.220749 
L -1683.598236 101.937894 
L -1675.550159 100.226424 
L -1667.502082 101.970528 
L -1659.454005 104.525989 
L -1651.405929 109.24096 
L -1643.357852 120.775537 
L -1635.309775 117.638307 
L -1627.261698 123.740231 
L -1619.213621 128.747869 
L -1611.165544 131.291053 
L -1603.117467 139.493165 
L -1595.06939 145.616879 
L -1587.021313 135.65977 
L -1578.973236 146.592222 
L -1570.925159 160.097499 
L -1562.877082 166.679625 
L -1554.829005 169.765816 
L -1546.780929 187.628047 
L -1538.732852 189.196877 
L -1530.684775 194.169353 
L -1522.636698 193.014627 
L -1514.588621 208.114485 
L -1506.540544 203.622764 
L -1498.492467 201.134048 
L -1490.44439 214.048468 
L -1482.396313 223.259982 
L -1474.348236 222.603855 
L -1466.300159 228.123678 
L -1458.252082 230.002867 
L -1450.204005 230.452792 
L -1442.155929 230.569687 
L -1434.107852 233.670307 
L -1426.059775 235.469077 
L -1418.011698 244.857547 
L -1409.963621 240.205121 
L -1401.915544 248.380946 
L -1393.867467 246.65209 
L -1385.81939 245.647223 
L -1377.771313 248.998446 
L -1369.723236 251.987756 
L -1361.675159 248.366026 
L -1353.627082 250.242771 
L -1345.579005 250.411612 
L -1337.530929 254.83841 
L -1329.482852 252.701037 
L -1321.434775 251.709104 
L -1313.386698 252.971799 
L -1305.338621 255.069618 
L -1297.290544 254.004847 
L -1289.242467 251.866317 
L -1281.19439 252.983661 
L -1273.146313 249.727882 
L -1265.098236 249.975088 
L -1257.050159 255.099438 
L -1249.002082 254.661614 
L -1240.954005 251.555836 
L -1232.905929 250.658434 
L -1224.857852 250.814409 
L -1216.809775 247.42662 
L -1208.761698 247.981739 
L -1200.713621 247.738973 
L -1192.665544 246.823979 
L -1184.617467 245.715611 
L -1176.56939 243.491022 
L -1168.521313 244.393868 
L -1160.473236 242.804161 
L -1152.425159 242.244329 
L -1144.377082 241.272243 
L -1136.329005 241.091307 
L -1128.280929 239.319781 
L -1120.232852 236.32582 
L -1112.184775 235.950024 
L -1104.136698 233.480637 
L -1096.088621 230.032489 
L -1088.040544 232.160089 
L -1079.992467 227.562912 
L -1071.94439 229.185229 
L -1063.896313 228.151802 
L -1055.848236 228.273956 
L -1047.800159 225.281598 
L -1039.752082 224.911295 
L -1031.704005 224.34808 
L -1023.655929 220.70083 
L -1015.607852 221.435259 
L -1007.559775 220.994084 
L -999.511698 220.726836 
L -991.463621 218.941582 
L -983.415544 219.60848 
L -975.367467 217.78761 
L -967.31939 216.058619 
L -959.271313 213.389474 
L -951.223236 212.481426 
L -943.175159 211.859837 
L -935.127082 209.991004 
L -927.079005 210.192488 
L -919.030929 209.252956 
L -910.982852 207.597455 
L -902.934775 207.606934 
L -894.886698 205.744365 
L -886.838621 207.209569 
L -878.790544 205.9057 
L -870.742467 205.930501 
L -862.69439 203.64191 
L -854.646313 200.53488 
L -846.598236 203.125821 
L -838.550159 203.015919 
L -830.502082 201.993314 
L -822.454005 200.936626 
L -814.405929 198.777507 
L -806.357852 198.281942 
L -798.309775 197.095999 
L -790.261698 197.268628 
L -782.213621 196.820907 
L -774.165544 194.776878 
L -766.117467 191.877225 
L -758.06939 195.639991 
L -750.021313 194.742986 
L -741.973236 192.285246 
L -733.925159 193.850795 
L -725.877082 189.452289 
L -717.829005 189.990851 
L -709.780929 190.270943 
L -701.732852 187.287161 
L -693.684775 192.360642 
L -685.636698 187.265162 
L -677.588621 184.674694 
L -669.540544 187.988053 
L -661.492467 188.880561 
L -653.44439 187.253326 
L -645.396313 188.536457 
L -637.348236 186.192171 
L -629.300159 190.731761 
L -621.252082 188.40966 
L -613.204005 189.335425 
L -605.155929 186.221251 
L -597.107852 183.428775 
L -589.059775 186.953986 
L -581.011698 193.283938 
L -572.963621 186.036364 
L -564.915544 186.421633 
L -556.867467 183.70105 
L -548.81939 184.955818 
L -540.771313 184.576515 
L -532.723236 182.887264 
L -524.675159 182.246344 
L -516.627082 185.318829 
L -508.579005 183.694798 
L -500.530929 186.505761 
L -492.482852 187.025367 
L -484.434775 178.81507 
L -476.386698 182.202885 
L -468.338621 182.494486 
L -460.290544 183.081377 
L -452.242467 183.605334 
L -444.19439 188.880289 
L -436.146313 191.001546 
L -428.098236 190.788097 
L -420.050159 196.603725 
L -412.002082 206.220415 
L -403.954005 194.831387 
L -395.905929 194.732688 
L -387.857852 195.007444 
L -379.809775 198.839309 
L -371.761698 199.74158 
L -363.713621 199.747356 
L -355.665544 208.038431 
L -347.617467 211.115496 
L -339.56939 201.756056 
L -331.521313 210.275322 
L -323.473236 206.108239 
L -315.425159 203.522603 
L -307.377082 213.877494 
L -299.329005 211.843197 
L -291.280929 218.540066 
L -283.232852 216.533609 
L -275.184775 212.056361 
L -267.136698 216.271017 
L -259.088621 216.310843 
L -251.040544 220.453655 
L -242.992467 217.903187 
L -234.94439 224.711532 
L -226.896313 219.887806 
L -218.848236 223.507222 
L -210.800159 222.82452 
L -202.752082 226.805263 
L -194.704005 220.498979 
L -186.655929 227.338512 
L -178.607852 227.002394 
L -170.559775 231.691667 
L -162.511698 234.186874 
L -154.463621 234.24607 
L -146.415544 233.105417 
L -138.367467 236.141111 
L -130.31939 238.411695 
L -122.271313 236.472029 
L -114.223236 235.773239 
L -106.175159 238.442998 
L -98.127082 240.86635 
L -90.079005 236.77864 
L -82.030929 234.428234 
L -73.982852 243.90247 
L -65.934775 248.211878 
L -57.886698 238.597021 
L -49.838621 241.477736 
L -41.790544 242.941369 
L -33.742467 243.6659 
L -25.69439 248.547813 
L -17.646313 247.953227 
L -9.598236 246.006111 
L -1.550159 248.137378 
L 6.497918 248.745869 
L 14.545995 243.568966 
L 22.594071 246.23136 
L 30.642148 244.626457 
L 38.690225 251.855206 
L 46.738302 260.762539 
L 54.786379 259.530354 
L 62.834456 252.540106 
L 70.882533 251.821659 
L 78.93061 252.833817 
L 86.978687 253.212069 
L 95.026764 259.81435 
L 103.074841 251.528886 
L 111.122918 260.3863 
L 119.170995 267.544844 
L 127.219071 261.696012 
L 135.267148 270.876364 
L 143.315225 265.261503 
L 151.363302 270.292907 
L 159.411379 267.12606 
L 167.459456 269.641304 
L 175.507533 274.640259 
L 183.55561 274.423908 
L 191.603687 276.01816 
L 199.651764 276.530807 
L 207.699841 277.211618 
L 215.747918 265.508322 
L 223.795995 281.000859 
L 231.844071 287.468506 
L 239.892148 281.531383 
L 247.940225 287.283115 
L 255.988302 288.768615 
L 264.036379 285.810753 
L 272.084456 292.289599 
L 280.132533 296.821369 
L 288.18061 294.594953 
L 296.228687 296.513429 
L 304.276764 297.719873 
L 312.324841 299.52403 
L 320.372918 304.612779 
L 328.420995 295.255566 
L 336.469071 307.709026 
L 344.517148 308.477845 
L 352.565225 309.374665 
L 360.613302 302.247613 
L 368.661379 311.807765 
L 376.709456 318.37144 
L 384.757533 312.683601 
L 392.80561 313.881297 
L 400.853687 322.954021 
L 408.901764 308.588154 
L 416.949841 322.968538 
L 424.997918 314.812316 
L 433.045995 327.588682 
L 441.094071 322.578917 
L 449.142148 328.446543 
L 457.190225 330.70792 
L 465.238302 333.637107 
L 473.286379 335.028965 
L 481.334456 332.473423 
L 489.382533 333.264138 
L 497.43061 335.700989 
L 505.478687 341.917685 
L 513.526764 341.974454 
L 521.574841 342.661279 
L 529.622918 346.807643 
L 537.670995 347.732086 
L 545.719071 345.68515 
L 553.767148 346.606035 
L 561.815225 352.537706 
L 569.863302 354.024039 
L 577.911379 356.019224 
L 585.959456 352.736359 
L 594.007533 347.198262 
L 602.05561 354.593587 
L 610.103687 353.204649 
L 618.151764 355.69953 
L 626.199841 359.202398 
L 634.247918 356.069664 
L 642.295995 361.445013 
L 650.344071 358.591128 
L 658.392148 358.588989 
L 666.440225 358.898431 
L 674.488302 363.58725 
L 682.536379 363.086988 
L 690.584456 363.258779 
L 698.632533 360.731611 
L 706.68061 362.81551 
L 714.728687 364.034033 
L 722.776764 363.65573 
L 730.824841 366.83422 
L 738.872918 366.529023 
L 746.920995 368.429394 
L 754.969071 370.526586 
L 763.017148 370.68182 
L 771.065225 369.320249 
L 779.113302 369.958369 
L 787.161379 369.180144 
L 795.209456 370.733113 
L 803.257533 371.24235 
L 811.30561 369.435688 
L 819.353687 371.710392 
L 827.401764 362.159722 
L 835.449841 371.712622 
L 843.497918 375.230899 
L 851.545995 371.507096 
L 859.594071 371.414544 
L 867.642148 374.894502 
L 875.690225 374.894301 
L 883.738302 371.505936 
L 891.786379 371.255727 
L 899.834456 373.340618 
L 907.882533 372.436868 
L 915.93061 376.485935 
L 923.978687 374.874651 
L 932.026764 377.64 
L 940.074841 373.209431 
L 940.074841 364.58825 
L 940.074841 364.58825 
L 932.026764 361.675393 
L 923.978687 357.661043 
L 915.93061 362.590001 
L 907.882533 353.562536 
L 899.834456 356.169185 
L 891.786379 354.93202 
L 883.738302 345.354152 
L 875.690225 357.665934 
L 867.642148 364.294344 
L 859.594071 346.134641 
L 851.545995 353.980233 
L 843.497918 361.374998 
L 835.449841 356.329109 
L 827.401764 296.692875 
L 819.353687 354.355084 
L 811.30561 343.382394 
L 803.257533 354.787552 
L 795.209456 353.679178 
L 787.161379 349.008263 
L 779.113302 349.24771 
L 771.065225 347.95674 
L 763.017148 354.41648 
L 754.969071 354.470259 
L 746.920995 345.57022 
L 738.872918 339.652237 
L 730.824841 344.410732 
L 722.776764 335.889102 
L 714.728687 338.922333 
L 706.68061 333.784866 
L 698.632533 327.39788 
L 690.584456 335.810034 
L 682.536379 336.515469 
L 674.488302 336.306812 
L 666.440225 326.140393 
L 658.392148 323.782968 
L 650.344071 323.260708 
L 642.295995 334.674816 
L 634.247918 318.351295 
L 626.199841 329.014926 
L 618.151764 319.400943 
L 610.103687 312.013213 
L 602.05561 317.542099 
L 594.007533 291.589533 
L 585.959456 314.219247 
L 577.911379 323.202564 
L 569.863302 318.094051 
L 561.815225 315.440428 
L 553.767148 294.410036 
L 545.719071 294.856124 
L 537.670995 301.85261 
L 529.622918 300.941692 
L 521.574841 289.039284 
L 513.526764 289.091683 
L 505.478687 287.651186 
L 497.43061 276.069198 
L 489.382533 265.954428 
L 481.334456 263.469359 
L 473.286379 271.601537 
L 465.238302 268.76823 
L 457.190225 263.487914 
L 449.142148 258.076029 
L 441.094071 241.124619 
L 433.045995 257.359919 
L 424.997918 214.077287 
L 416.949841 242.901401 
L 408.901764 201.771853 
L 400.853687 245.868228 
L 392.80561 221.088605 
L 384.757533 220.394225 
L 376.709456 232.787668 
L 368.661379 217.677172 
L 360.613302 190.355136 
L 352.565225 210.091837 
L 344.517148 209.534151 
L 336.469071 208.469331 
L 328.420995 176.633559 
L 320.372918 192.19352 
L 312.324841 188.287354 
L 304.276764 185.975171 
L 296.228687 182.388535 
L 288.18061 175.648039 
L 280.132533 182.060439 
L 272.084456 170.197421 
L 264.036379 155.525987 
L 255.988302 167.497006 
L 247.940225 157.743164 
L 239.892148 149.100511 
L 231.844071 162.984478 
L 223.795995 147.718385 
L 215.747918 108.614737 
L 207.699841 136.98233 
L 199.651764 135.753208 
L 191.603687 135.76497 
L 183.55561 132.246293 
L 175.507533 132.331278 
L 167.459456 121.61376 
L 159.411379 117.194951 
L 151.363302 125.327077 
L 143.315225 109.828705 
L 135.267148 125.592127 
L 127.219071 104.066525 
L 119.170995 116.372891 
L 111.122918 102.023932 
L 103.074841 84.287505 
L 95.026764 100.505312 
L 86.978687 84.995569 
L 78.93061 86.05041 
L 70.882533 85.350919 
L 62.834456 86.85185 
L 54.786379 101.515844 
L 46.738302 105.001623 
L 38.690225 87.38166 
L 30.642148 69.345831 
L 22.594071 74.42265 
L 14.545995 70.794996 
L 6.497918 82.147639 
L -1.550159 80.986605 
L -9.598236 76.462831 
L -17.646313 82.386862 
L -25.69439 81.957484 
L -33.742467 72.817558 
L -41.790544 73.976378 
L -49.838621 70.474197 
L -57.886698 66.158051 
L -65.934775 86.94702 
L -73.982852 75.364486 
L -82.030929 59.470187 
L -90.079005 67.216975 
L -98.127082 74.151951 
L -106.175159 69.721296 
L -114.223236 66.334263 
L -122.271313 69.150886 
L -130.31939 76.48314 
L -138.367467 68.766114 
L -146.415544 66.001223 
L -154.463621 69.315772 
L -162.511698 64.532306 
L -170.559775 66.234444 
L -178.607852 56.486703 
L -186.655929 60.210252 
L -194.704005 48.29952 
L -202.752082 58.817105 
L -210.800159 54.079267 
L -218.848236 57.122516 
L -226.896313 53.977848 
L -234.94439 60.468522 
L -242.992467 49.830037 
L -251.040544 56.794005 
L -259.088621 50.1514 
L -267.136698 51.641701 
L -275.184775 46.474446 
L -283.232852 49.477692 
L -291.280929 57.348691 
L -299.329005 50.108671 
L -307.377082 52.117256 
L -315.425159 37.688361 
L -323.473236 44.652513 
L -331.521313 48.288731 
L -339.56939 37.233395 
L -347.617467 50.02362 
L -355.665544 51.223656 
L -363.713621 37.189206 
L -371.761698 37.684551 
L -379.809775 36.930689 
L -387.857852 32.051409 
L -395.905929 35.864687 
L -403.954005 34.858763 
L -412.002082 51.911849 
L -420.050159 40.654443 
L -428.098236 32.436258 
L -436.146313 32.996854 
L -444.19439 30.839932 
L -452.242467 26.047592 
L -460.290544 28.262259 
L -468.338621 25.177334 
L -476.386698 29.480984 
L -484.434775 24.84 
L -492.482852 34.823063 
L -500.530929 36.519587 
L -508.579005 34.730898 
L -516.627082 37.280357 
L -524.675159 34.048575 
L -532.723236 37.306191 
L -540.771313 39.372351 
L -548.81939 44.273348 
L -556.867467 41.066341 
L -564.915544 46.494729 
L -572.963621 45.876023 
L -581.011698 55.653183 
L -589.059775 49.680516 
L -597.107852 46.660975 
L -605.155929 51.029694 
L -613.204005 53.189615 
L -621.252082 53.657852 
L -629.300159 59.415964 
L -637.348236 55.008256 
L -645.396313 58.953393 
L -653.44439 57.4691 
L -661.492467 58.605215 
L -669.540544 57.286424 
L -677.588621 55.228617 
L -685.636698 59.834683 
L -693.684775 65.881837 
L -701.732852 60.163479 
L -709.780929 63.775699 
L -717.829005 62.500493 
L -725.877082 64.645071 
L -733.925159 69.338937 
L -741.973236 68.005134 
L -750.021313 71.839915 
L -758.06939 72.990429 
L -766.117467 69.067461 
L -774.165544 71.666976 
L -782.213621 74.540387 
L -790.261698 75.68883 
L -798.309775 75.750619 
L -806.357852 77.838319 
L -814.405929 77.704737 
L -822.454005 80.716877 
L -830.502082 81.674332 
L -838.550159 82.48017 
L -846.598236 83.281118 
L -854.646313 78.375114 
L -862.69439 84.129861 
L -870.742467 86.52527 
L -878.790544 86.045243 
L -886.838621 86.374533 
L -894.886698 86.554958 
L -902.934775 88.329676 
L -910.982852 87.931705 
L -919.030929 90.521545 
L -927.079005 91.511864 
L -935.127082 91.054882 
L -943.175159 92.080389 
L -951.223236 93.423482 
L -959.271313 94.812213 
L -967.31939 99.201212 
L -975.367467 100.331498 
L -983.415544 102.531204 
L -991.463621 101.614407 
L -999.511698 103.744912 
L -1007.559775 104.078405 
L -1015.607852 104.836427 
L -1023.655929 102.814121 
L -1031.704005 108.989248 
L -1039.752082 109.682575 
L -1047.800159 110.25436 
L -1055.848236 114.04918 
L -1063.896313 113.985757 
L -1071.94439 115.685535 
L -1079.992467 114.058204 
L -1088.040544 119.236327 
L -1096.088621 117.983327 
L -1104.136698 122.994327 
L -1112.184775 126.622931 
L -1120.232852 127.836342 
L -1128.280929 132.344346 
L -1136.329005 135.919518 
L -1144.377082 136.033587 
L -1152.425159 138.322496 
L -1160.473236 139.146601 
L -1168.521313 142.072124 
L -1176.56939 141.530632 
L -1184.617467 145.506866 
L -1192.665544 148.53436 
L -1200.713621 150.416792 
L -1208.761698 151.626423 
L -1216.809775 152.626868 
L -1224.857852 156.88267 
L -1232.905929 158.045836 
L -1240.954005 160.747817 
L -1249.002082 164.626928 
L -1257.050159 165.993747 
L -1265.098236 162.891729 
L -1273.146313 164.080091 
L -1281.19439 168.290721 
L -1289.242467 168.937 
L -1297.290544 171.879073 
L -1305.338621 174.048094 
L -1313.386698 173.129297 
L -1321.434775 174.513873 
L -1329.482852 176.204284 
L -1337.530929 179.115852 
L -1345.579005 176.192442 
L -1353.627082 177.671529 
L -1361.675159 177.823805 
L -1369.723236 181.88882 
L -1377.771313 181.540752 
L -1385.81939 179.497798 
L -1393.867467 181.718327 
L -1401.915544 183.999214 
L -1409.963621 178.481877 
L -1418.011698 183.806621 
L -1426.059775 177.301475 
L -1434.107852 177.154481 
L -1442.155929 175.974676 
L -1450.204005 177.70561 
L -1458.252082 178.327556 
L -1466.300159 177.685723 
L -1474.348236 174.684808 
L -1482.396313 177.310897 
L -1490.44439 170.07081 
L -1498.492467 162.94642 
L -1506.540544 165.013704 
L -1514.588621 169.153711 
L -1522.636698 158.912391 
L -1530.684775 159.604813 
L -1538.732852 157.041655 
L -1546.780929 156.479485 
L -1554.829005 142.446879 
L -1562.877082 141.430967 
L -1570.925159 136.39698 
L -1578.973236 125.440683 
L -1587.021313 117.687753 
L -1595.06939 126.560081 
L -1603.117467 122.727028 
L -1611.165544 115.972247 
L -1619.213621 113.127058 
L -1627.261698 108.272073 
L -1635.309775 101.910555 
L -1643.357852 105.500447 
L -1651.405929 93.253197 
L -1659.454005 87.561275 
L -1667.502082 84.550292 
L -1675.550159 82.359109 
L -1683.598236 84.226975 
L -1691.646313 81.131662 
L -1699.69439 84.185564 
L -1707.742467 88.756158 
L -1715.790544 82.942987 
L -1723.838621 82.71705 
L -1731.886698 89.491641 
L -1739.934775 91.421003 
L -1747.982852 89.649503 
L -1756.030929 102.937798 
L -1764.079005 94.704408 
L -1772.127082 98.305072 
L -1780.175159 108.76755 
L -1788.223236 106.555222 
L -1796.271313 110.775262 
L -1804.31939 114.631295 
L -1812.367467 119.074606 
L -1820.415544 123.342419 
L -1828.463621 128.105696 
L -1836.511698 132.567109 
L -1844.559775 136.337066 
L -1852.607852 141.959672 
L -1860.655929 143.524467 
L -1868.704005 150.889372 
L -1876.752082 151.719287 
L -1884.800159 155.778487 
L -1892.848236 160.221904 
L -1900.896313 163.741142 
L -1908.94439 167.974283 
L -1916.992467 171.417633 
L -1925.040544 176.148141 
L -1933.088621 179.235351 
L -1941.136698 182.868507 
L -1949.184775 187.01791 
L -1957.232852 191.228387 
L -1965.280929 194.017404 
L -1973.329005 198.088309 
L -1981.377082 201.03865 
L -1989.425159 205.193015 
L -1997.473236 208.527882 
L -2005.521313 211.837752 
L -2013.56939 215.436812 
L -2021.617467 218.679402 
L -2029.665544 221.507103 
L -2037.713621 225.014529 
L -2045.761698 227.042622 
L -2053.809775 231.237274 
L -2061.857852 234.219517 
L -2069.905929 236.897646 
L -2077.954005 240.056033 
L -2086.002082 242.16469 
L -2094.050159 245.008706 
L -2102.098236 247.910269 
L -2110.146313 251.048813 
L -2118.19439 253.544296 
L -2126.242467 255.995718 
L -2134.290544 258.625029 
L -2142.338621 261.158266 
L -2150.386698 263.850495 
L -2158.434775 266.069488 
L -2166.482852 268.441196 
L -2174.530929 270.437827 
L -2182.579005 273.051841 
L -2190.627082 275.031698 
L -2198.675159 277.217457 
L -2206.723236 279.850959 
L -2214.771313 281.761287 
L -2222.81939 282.520998 
L -2230.867467 284.697218 
L -2238.915544 285.937155 
L -2246.963621 288.026926 
L -2255.011698 290.409009 
L -2263.059775 291.743056 
L -2271.107852 292.989353 
L -2279.155929 293.394148 
L -2287.204005 294.657073 
L -2295.252082 295.470837 
L -2303.300159 296.325465 
L -2311.348236 297.999876 
L -2319.396313 299.025188 
L -2327.44439 300.426341 
L -2335.492467 299.805328 
L -2343.540544 300.598766 
L -2351.588621 299.536519 
L -2359.636698 301.372103 
L -2367.684775 301.694633 
L -2375.732852 303.034484 
L -2383.780929 300.301813 
L -2391.829005 303.661565 
L -2399.877082 303.407045 
L -2407.925159 301.489527 
L -2415.973236 300.990092 
L -2424.021313 302.695622 
L -2432.06939 305.65522 
L -2440.117467 304.465181 
L -2448.165544 304.355107 
L -2456.213621 301.286586 
L -2464.261698 301.171908 
L -2472.309775 301.952801 
L -2480.357852 303.696002 
L -2488.405929 302.997613 
L -2496.454005 302.507757 
L -2504.502082 302.680398 
L -2512.550159 303.683385 
L -2520.598236 303.295798 
L -2528.646313 303.879601 
L -2536.69439 304.932666 
L -2544.742467 303.958661 
L -2552.790544 305.539924 
L -2560.838621 305.66406 
L -2568.886698 305.72931 
L -2576.934775 306.676897 
L -2584.982852 306.81043 
L -2593.030929 307.876904 
L -2601.079005 309.056641 
L -2609.127082 308.937577 
L -2617.175159 308.265828 
L -2625.223236 307.745016 
L -2633.271313 310.403791 
L -2641.31939 309.785486 
L -2649.367467 311.531375 
L -2657.415544 311.43677 
L -2665.463621 310.588277 
L -2673.511698 312.321139 
L -2681.559775 310.466325 
L -2689.607852 310.431272 
L -2697.655929 312.672773 
L -2705.704005 310.857114 
L -2713.752082 312.974478 
L -2721.800159 313.579809 
L -2729.848236 311.589944 
L -2737.896313 305.499227 
L -2745.94439 309.227458 
L -2753.992467 307.297404 
L -2762.040544 298.298147 
L -2770.088621 305.799594 
L -2778.136698 307.269828 
L -2786.184775 298.947151 
L -2794.232852 296.60976 
L -2802.280929 300.946347 
L -2810.329005 291.935023 
L -2818.377082 276.201729 
L -2826.425159 293.395051 
L -2834.473236 300.128818 
L -2842.521313 303.432192 
L -2850.56939 281.850248 
L -2858.617467 282.705284 
L -2866.665544 271.765601 
L -2874.713621 263.205576 
L -2882.761698 280.338851 
L -2890.809775 272.962833 
L -2898.857852 257.63755 
L -2906.905929 246.876955 
L -2914.954005 247.527351 
L -2923.002082 249.390535 
L -2931.050159 247.117539 
L -2939.098236 245.790415 
L -2947.146313 251.946722 
L -2955.19439 251.230966 
L -2963.242467 247.219319 
L -2971.290544 249.691774 
L -2979.338621 248.060909 
L -2987.386698 247.467098 
L -2995.434775 247.668847 
L -3003.482852 250.11404 
L -3011.530929 251.576521 
L -3019.579005 252.438264 
L -3027.627082 254.570918 
L -3035.675159 255.600386 
L -3043.723236 257.33943 
L -3051.771313 260.050271 
L -3059.81939 262.220069 
L -3067.867467 263.69003 
L -3075.915544 265.316421 
L -3083.963621 267.450874 
L -3092.011698 268.810613 
L -3100.059775 270.856535 
L -3108.107852 273.329087 
L -3116.155929 274.825606 
L -3124.204005 275.866199 
L -3132.252082 277.411167 
L -3140.300159 278.995088 
L -3148.348236 280.433558 
L -3156.396313 281.809706 
L -3164.44439 283.135997 
L -3172.492467 284.944224 
L -3180.540544 285.896859 
L -3188.588621 287.225792 
L -3196.636698 288.620775 
L -3204.684775 289.819037 
L -3212.732852 291.001533 
L -3220.780929 291.97801 
L -3228.829005 293.034776 
L -3236.877082 294.431718 
L -3244.925159 295.414566 
L -3252.973236 296.559502 
L -3261.021313 297.491226 
L -3269.06939 298.529221 
L -3277.117467 299.593499 
L -3285.165544 300.676343 
L -3293.213621 301.57683 
L -3301.261698 302.626292 
L -3309.309775 303.548921 
L -3317.357852 304.536905 
L -3325.405929 305.456841 
L -3333.454005 306.405739 
L -3341.502082 307.291046 
L -3349.550159 308.233009 
L -3357.598236 309.238847 
L -3365.646313 310.021217 
L -3373.69439 310.964923 
L -3381.742467 311.77613 
L -3389.790544 312.715782 
L -3397.838621 313.403354 
L -3405.886698 314.277041 
L -3413.934775 315.109738 
L -3421.982852 315.902596 
L -3430.030929 316.709624 
L -3438.079005 317.456197 
L -3446.127082 318.326233 
L -3454.175159 319.109595 
L -3462.223236 319.755524 
L -3470.271313 320.521912 
L -3478.31939 321.287286 
L -3486.367467 322.049066 
L -3494.415544 322.784176 
L -3502.463621 323.469566 
L -3510.511698 324.223719 
L -3518.559775 324.963168 
L -3526.607852 325.706686 
L -3534.655929 326.447863 
L -3542.704005 327.209032 
L -3550.752082 328.000149 
L -3558.800159 328.682334 
L -3566.848236 329.462934 
L -3574.896313 330.229197 
L -3582.94439 330.96514 
L -3590.992467 331.724375 
L -3599.040544 332.499373 
L -3607.088621 333.251656 
L -3615.136698 334.040985 
L -3623.184775 334.761579 
L -3631.232852 335.4966 
L -3639.280929 336.273443 
L -3647.329005 337.024204 
L -3655.377082 337.737256 
L -3663.425159 338.491901 
L -3671.473236 339.181143 
L -3679.521313 339.91771 
L -3687.56939 340.702522 
L -3695.617467 341.377328 
L -3703.665544 342.132041 
L -3711.713621 342.847101 
L -3719.761698 343.596826 
L -3727.809775 344.276078 
L -3735.857852 345.069314 
L -3743.905929 345.727257 
L -3751.954005 346.464779 
L -3760.002082 347.186702 
L -3768.050159 347.926931 
L -3776.098236 348.630691 
L -3784.146313 349.347472 
L -3792.19439 350.067283 
L -3800.242467 350.811157 
L -3808.290544 351.502473 
L -3816.338621 352.152181 
L -3824.386698 352.800907 
L -3832.434775 353.453495 
L -3840.482852 354.083901 
L -3848.530929 354.724781 
L -3856.579005 355.357852 
L -3864.627082 355.962647 
L -3872.675159 356.574229 
L -3880.723236 357.182402 
L -3888.771313 357.736371 
L -3896.81939 358.299402 
L -3904.867467 358.886306 
L -3912.915544 359.442633 
L -3920.963621 359.940927 
L -3929.011698 360.488953 
L -3937.059775 360.99023 
L -3945.107852 361.452501 
L -3953.155929 361.914752 
L -3961.204005 362.347249 
L -3969.252082 362.812844 
L -3977.300159 363.198629 
L -3985.348236 363.605679 
L -3993.396313 363.989109 
L -4001.44439 364.344778 
L -4009.492467 364.669279 
L -4017.540544 364.96457 
L -4025.588621 365.257861 
L -4033.636698 365.548526 
L -4041.684775 365.79008 
L -4049.732852 366.059186 
L -4057.780929 366.28776 
L -4065.829005 366.485359 
L -4073.877082 366.716157 
L -4081.925159 366.918494 
L -4089.973236 367.086613 
L -4098.021313 367.266707 
L -4106.06939 367.441852 
L -4114.117467 367.596248 
L -4122.165544 367.751132 
L -4130.213621 367.8798 
L -4138.261698 368.03453 
L -4146.309775 368.158266 
L -4154.357852 368.28813 
L -4162.405929 368.424218 
L -4170.454005 368.535755 
L -4178.502082 368.653718 
L -4186.550159 368.807111 
L -4194.598236 368.916283 
L -4202.646313 369.049475 
L -4210.69439 369.155443 
L -4218.742467 369.295544 
L -4226.790544 369.406895 
L -4234.838621 369.524449 
L -4242.886698 369.62738 
L -4250.934775 369.720633 
L -4258.982852 369.826922 
L -4267.030929 369.943705 
L -4275.079005 370.057359 
L -4283.127082 370.15426 
L -4291.175159 370.232603 
L -4299.223236 370.344648 
L -4307.271313 370.436648 
L -4315.31939 370.547026 
z
" clip-path="url(#pe35c5cdc31)" style="fill: #008000; fill-opacity: 0.3; stroke: #008000; stroke-opacity: 0.3"/>
   </g>
   <g id="matplotlib.axis_1">
    <g id="xtick_1">
     <g id="line2d_1">
      <defs>
       <path id="m5b566ea73f" d="M 0 0 
L 0 3.5 
" style="stroke: #000000; stroke-width: 0.8"/>
      </defs>
      <g>
       <use xlink:href="#m5b566ea73f" x="103.074841" y="395.28" style="stroke: #000000; stroke-width: 0.8"/>
      </g>
     </g>
     <g id="text_1">
      <!-- 2023-01-01 -->
      <g transform="translate(17.945813 495.213718) rotate(-45) scale(0.2 -0.2)">
       <defs>
        <path id="DejaVuSans-32" d="M 1228 531 
L 3431 531 
L 3431 0 
L 469 0 
L 469 531 
Q 828 903 1448 1529 
Q 2069 2156 2228 2338 
Q 2531 2678 2651 2914 
Q 2772 3150 2772 3378 
Q 2772 3750 2511 3984 
Q 2250 4219 1831 4219 
Q 1534 4219 1204 4116 
Q 875 4013 500 3803 
L 500 4441 
Q 881 4594 1212 4672 
Q 1544 4750 1819 4750 
Q 2544 4750 2975 4387 
Q 3406 4025 3406 3419 
Q 3406 3131 3298 2873 
Q 3191 2616 2906 2266 
Q 2828 2175 2409 1742 
Q 1991 1309 1228 531 
z
" transform="scale(0.015625)"/>
        <path id="DejaVuSans-30" d="M 2034 4250 
Q 1547 4250 1301 3770 
Q 1056 3291 1056 2328 
Q 1056 1369 1301 889 
Q 1547 409 2034 409 
Q 2525 409 2770 889 
Q 3016 1369 3016 2328 
Q 3016 3291 2770 3770 
Q 2525 4250 2034 4250 
z
M 2034 4750 
Q 2819 4750 3233 4129 
Q 3647 3509 3647 2328 
Q 3647 1150 3233 529 
Q 2819 -91 2034 -91 
Q 1250 -91 836 529 
Q 422 1150 422 2328 
Q 422 3509 836 4129 
Q 1250 4750 2034 4750 
z
" transform="scale(0.015625)"/>
        <path id="DejaVuSans-33" d="M 2597 2516 
Q 3050 2419 3304 2112 
Q 3559 1806 3559 1356 
Q 3559 666 3084 287 
Q 2609 -91 1734 -91 
Q 1441 -91 1130 -33 
Q 819 25 488 141 
L 488 750 
Q 750 597 1062 519 
Q 1375 441 1716 441 
Q 2309 441 2620 675 
Q 2931 909 2931 1356 
Q 2931 1769 2642 2001 
Q 2353 2234 1838 2234 
L 1294 2234 
L 1294 2753 
L 1863 2753 
Q 2328 2753 2575 2939 
Q 2822 3125 2822 3475 
Q 2822 3834 2567 4026 
Q 2313 4219 1838 4219 
Q 1578 4219 1281 4162 
Q 984 4106 628 3988 
L 628 4550 
Q 988 4650 1302 4700 
Q 1616 4750 1894 4750 
Q 2613 4750 3031 4423 
Q 3450 4097 3450 3541 
Q 3450 3153 3228 2886 
Q 3006 2619 2597 2516 
z
" transform="scale(0.015625)"/>
        <path id="DejaVuSans-2d" d="M 313 2009 
L 1997 2009 
L 1997 1497 
L 313 1497 
L 313 2009 
z
" transform="scale(0.015625)"/>
        <path id="DejaVuSans-31" d="M 794 531 
L 1825 531 
L 1825 4091 
L 703 3866 
L 703 4441 
L 1819 4666 
L 2450 4666 
L 2450 531 
L 3481 531 
L 3481 0 
L 794 0 
L 794 531 
z
" transform="scale(0.015625)"/>
       </defs>
       <use xlink:href="#DejaVuSans-32"/>
       <use xlink:href="#DejaVuSans-30" x="63.623047"/>
       <use xlink:href="#DejaVuSans-32" x="127.246094"/>
       <use xlink:href="#DejaVuSans-33" x="190.869141"/>
       <use xlink:href="#DejaVuSans-2d" x="254.492188"/>
       <use xlink:href="#DejaVuSans-30" x="290.576172"/>
       <use xlink:href="#DejaVuSans-31" x="354.199219"/>
       <use xlink:href="#DejaVuSans-2d" x="417.822266"/>
       <use xlink:href="#DejaVuSans-30" x="453.90625"/>
       <use xlink:href="#DejaVuSans-31" x="517.529297"/>
      </g>
     </g>
    </g>
    <g id="xtick_2">
     <g id="line2d_2">
      <g>
       <use xlink:href="#m5b566ea73f" x="215.747918" y="395.28" style="stroke: #000000; stroke-width: 0.8"/>
      </g>
     </g>
     <g id="text_2">
      <!-- 2023-01-15 -->
      <g transform="translate(130.61889 495.213718) rotate(-45) scale(0.2 -0.2)">
       <defs>
        <path id="DejaVuSans-35" d="M 691 4666 
L 3169 4666 
L 3169 4134 
L 1269 4134 
L 1269 2991 
Q 1406 3038 1543 3061 
Q 1681 3084 1819 3084 
Q 2600 3084 3056 2656 
Q 3513 2228 3513 1497 
Q 3513 744 3044 326 
Q 2575 -91 1722 -91 
Q 1428 -91 1123 -41 
Q 819 9 494 109 
L 494 744 
Q 775 591 1075 516 
Q 1375 441 1709 441 
Q 2250 441 2565 725 
Q 2881 1009 2881 1497 
Q 2881 1984 2565 2268 
Q 2250 2553 1709 2553 
Q 1456 2553 1204 2497 
Q 953 2441 691 2322 
L 691 4666 
z
" transform="scale(0.015625)"/>
       </defs>
       <use xlink:href="#DejaVuSans-32"/>
       <use xlink:href="#DejaVuSans-30" x="63.623047"/>
       <use xlink:href="#DejaVuSans-32" x="127.246094"/>
       <use xlink:href="#DejaVuSans-33" x="190.869141"/>
       <use xlink:href="#DejaVuSans-2d" x="254.492188"/>
       <use xlink:href="#DejaVuSans-30" x="290.576172"/>
       <use xlink:href="#DejaVuSans-31" x="354.199219"/>
       <use xlink:href="#DejaVuSans-2d" x="417.822266"/>
       <use xlink:href="#DejaVuSans-31" x="453.90625"/>
       <use xlink:href="#DejaVuSans-35" x="517.529297"/>
      </g>
     </g>
    </g>
    <g id="xtick_3">
     <g id="line2d_3">
      <g>
       <use xlink:href="#m5b566ea73f" x="328.420995" y="395.28" style="stroke: #000000; stroke-width: 0.8"/>
      </g>
     </g>
     <g id="text_3">
      <!-- 2023-01-29 -->
      <g transform="translate(243.291967 495.213718) rotate(-45) scale(0.2 -0.2)">
       <defs>
        <path id="DejaVuSans-39" d="M 703 97 
L 703 672 
Q 941 559 1184 500 
Q 1428 441 1663 441 
Q 2288 441 2617 861 
Q 2947 1281 2994 2138 
Q 2813 1869 2534 1725 
Q 2256 1581 1919 1581 
Q 1219 1581 811 2004 
Q 403 2428 403 3163 
Q 403 3881 828 4315 
Q 1253 4750 1959 4750 
Q 2769 4750 3195 4129 
Q 3622 3509 3622 2328 
Q 3622 1225 3098 567 
Q 2575 -91 1691 -91 
Q 1453 -91 1209 -44 
Q 966 3 703 97 
z
M 1959 2075 
Q 2384 2075 2632 2365 
Q 2881 2656 2881 3163 
Q 2881 3666 2632 3958 
Q 2384 4250 1959 4250 
Q 1534 4250 1286 3958 
Q 1038 3666 1038 3163 
Q 1038 2656 1286 2365 
Q 1534 2075 1959 2075 
z
" transform="scale(0.015625)"/>
       </defs>
       <use xlink:href="#DejaVuSans-32"/>
       <use xlink:href="#DejaVuSans-30" x="63.623047"/>
       <use xlink:href="#DejaVuSans-32" x="127.246094"/>
       <use xlink:href="#DejaVuSans-33" x="190.869141"/>
       <use xlink:href="#DejaVuSans-2d" x="254.492188"/>
       <use xlink:href="#DejaVuSans-30" x="290.576172"/>
       <use xlink:href="#DejaVuSans-31" x="354.199219"/>
       <use xlink:href="#DejaVuSans-2d" x="417.822266"/>
       <use xlink:href="#DejaVuSans-32" x="453.90625"/>
       <use xlink:href="#DejaVuSans-39" x="517.529297"/>
      </g>
     </g>
    </g>
    <g id="xtick_4">
     <g id="line2d_4">
      <g>
       <use xlink:href="#m5b566ea73f" x="441.094071" y="395.28" style="stroke: #000000; stroke-width: 0.8"/>
      </g>
     </g>
     <g id="text_4">
      <!-- 2023-02-12 -->
      <g transform="translate(355.965044 495.213718) rotate(-45) scale(0.2 -0.2)">
       <use xlink:href="#DejaVuSans-32"/>
       <use xlink:href="#DejaVuSans-30" x="63.623047"/>
       <use xlink:href="#DejaVuSans-32" x="127.246094"/>
       <use xlink:href="#DejaVuSans-33" x="190.869141"/>
       <use xlink:href="#DejaVuSans-2d" x="254.492188"/>
       <use xlink:href="#DejaVuSans-30" x="290.576172"/>
       <use xlink:href="#DejaVuSans-32" x="354.199219"/>
       <use xlink:href="#DejaVuSans-2d" x="417.822266"/>
       <use xlink:href="#DejaVuSans-31" x="453.90625"/>
       <use xlink:href="#DejaVuSans-32" x="517.529297"/>
      </g>
     </g>
    </g>
    <g id="xtick_5">
     <g id="line2d_5">
      <g>
       <use xlink:href="#m5b566ea73f" x="553.767148" y="395.28" style="stroke: #000000; stroke-width: 0.8"/>
      </g>
     </g>
     <g id="text_5">
      <!-- 2023-02-26 -->
      <g transform="translate(468.638121 495.213718) rotate(-45) scale(0.2 -0.2)">
       <defs>
        <path id="DejaVuSans-36" d="M 2113 2584 
Q 1688 2584 1439 2293 
Q 1191 2003 1191 1497 
Q 1191 994 1439 701 
Q 1688 409 2113 409 
Q 2538 409 2786 701 
Q 3034 994 3034 1497 
Q 3034 2003 2786 2293 
Q 2538 2584 2113 2584 
z
M 3366 4563 
L 3366 3988 
Q 3128 4100 2886 4159 
Q 2644 4219 2406 4219 
Q 1781 4219 1451 3797 
Q 1122 3375 1075 2522 
Q 1259 2794 1537 2939 
Q 1816 3084 2150 3084 
Q 2853 3084 3261 2657 
Q 3669 2231 3669 1497 
Q 3669 778 3244 343 
Q 2819 -91 2113 -91 
Q 1303 -91 875 529 
Q 447 1150 447 2328 
Q 447 3434 972 4092 
Q 1497 4750 2381 4750 
Q 2619 4750 2861 4703 
Q 3103 4656 3366 4563 
z
" transform="scale(0.015625)"/>
       </defs>
       <use xlink:href="#DejaVuSans-32"/>
       <use xlink:href="#DejaVuSans-30" x="63.623047"/>
       <use xlink:href="#DejaVuSans-32" x="127.246094"/>
       <use xlink:href="#DejaVuSans-33" x="190.869141"/>
       <use xlink:href="#DejaVuSans-2d" x="254.492188"/>
       <use xlink:href="#DejaVuSans-30" x="290.576172"/>
       <use xlink:href="#DejaVuSans-32" x="354.199219"/>
       <use xlink:href="#DejaVuSans-2d" x="417.822266"/>
       <use xlink:href="#DejaVuSans-32" x="453.90625"/>
       <use xlink:href="#DejaVuSans-36" x="517.529297"/>
      </g>
     </g>
    </g>
    <g id="xtick_6">
     <g id="line2d_6">
      <g>
       <use xlink:href="#m5b566ea73f" x="666.440225" y="395.28" style="stroke: #000000; stroke-width: 0.8"/>
      </g>
     </g>
     <g id="text_6">
      <!-- 2023-03-12 -->
      <g transform="translate(581.311198 495.213718) rotate(-45) scale(0.2 -0.2)">
       <use xlink:href="#DejaVuSans-32"/>
       <use xlink:href="#DejaVuSans-30" x="63.623047"/>
       <use xlink:href="#DejaVuSans-32" x="127.246094"/>
       <use xlink:href="#DejaVuSans-33" x="190.869141"/>
       <use xlink:href="#DejaVuSans-2d" x="254.492188"/>
       <use xlink:href="#DejaVuSans-30" x="290.576172"/>
       <use xlink:href="#DejaVuSans-33" x="354.199219"/>
       <use xlink:href="#DejaVuSans-2d" x="417.822266"/>
       <use xlink:href="#DejaVuSans-31" x="453.90625"/>
       <use xlink:href="#DejaVuSans-32" x="517.529297"/>
      </g>
     </g>
    </g>
    <g id="xtick_7">
     <g id="line2d_7">
      <g>
       <use xlink:href="#m5b566ea73f" x="779.113302" y="395.28" style="stroke: #000000; stroke-width: 0.8"/>
      </g>
     </g>
     <g id="text_7">
      <!-- 2023-03-26 -->
      <g transform="translate(693.984275 495.213718) rotate(-45) scale(0.2 -0.2)">
       <use xlink:href="#DejaVuSans-32"/>
       <use xlink:href="#DejaVuSans-30" x="63.623047"/>
       <use xlink:href="#DejaVuSans-32" x="127.246094"/>
       <use xlink:href="#DejaVuSans-33" x="190.869141"/>
       <use xlink:href="#DejaVuSans-2d" x="254.492188"/>
       <use xlink:href="#DejaVuSans-30" x="290.576172"/>
       <use xlink:href="#DejaVuSans-33" x="354.199219"/>
       <use xlink:href="#DejaVuSans-2d" x="417.822266"/>
       <use xlink:href="#DejaVuSans-32" x="453.90625"/>
       <use xlink:href="#DejaVuSans-36" x="517.529297"/>
      </g>
     </g>
    </g>
    <g id="xtick_8">
     <g id="line2d_8">
      <g>
       <use xlink:href="#m5b566ea73f" x="891.786379" y="395.28" style="stroke: #000000; stroke-width: 0.8"/>
      </g>
     </g>
     <g id="text_8">
      <!-- 2023-04-09 -->
      <g transform="translate(806.657352 495.213718) rotate(-45) scale(0.2 -0.2)">
       <defs>
        <path id="DejaVuSans-34" d="M 2419 4116 
L 825 1625 
L 2419 1625 
L 2419 4116 
z
M 2253 4666 
L 3047 4666 
L 3047 1625 
L 3713 1625 
L 3713 1100 
L 3047 1100 
L 3047 0 
L 2419 0 
L 2419 1100 
L 313 1100 
L 313 1709 
L 2253 4666 
z
" transform="scale(0.015625)"/>
       </defs>
       <use xlink:href="#DejaVuSans-32"/>
       <use xlink:href="#DejaVuSans-30" x="63.623047"/>
       <use xlink:href="#DejaVuSans-32" x="127.246094"/>
       <use xlink:href="#DejaVuSans-33" x="190.869141"/>
       <use xlink:href="#DejaVuSans-2d" x="254.492188"/>
       <use xlink:href="#DejaVuSans-30" x="290.576172"/>
       <use xlink:href="#DejaVuSans-34" x="354.199219"/>
       <use xlink:href="#DejaVuSans-2d" x="417.822266"/>
       <use xlink:href="#DejaVuSans-30" x="453.90625"/>
       <use xlink:href="#DejaVuSans-39" x="517.529297"/>
      </g>
     </g>
    </g>
    <g id="xtick_9">
     <g id="line2d_9">
      <g>
       <use xlink:href="#m5b566ea73f" x="940.074841" y="395.28" style="stroke: #000000; stroke-width: 0.8"/>
      </g>
     </g>
     <g id="text_9">
      <!-- 2023-04-15 -->
      <g transform="translate(854.945813 495.213718) rotate(-45) scale(0.2 -0.2)">
       <use xlink:href="#DejaVuSans-32"/>
       <use xlink:href="#DejaVuSans-30" x="63.623047"/>
       <use xlink:href="#DejaVuSans-32" x="127.246094"/>
       <use xlink:href="#DejaVuSans-33" x="190.869141"/>
       <use xlink:href="#DejaVuSans-2d" x="254.492188"/>
       <use xlink:href="#DejaVuSans-30" x="290.576172"/>
       <use xlink:href="#DejaVuSans-34" x="354.199219"/>
       <use xlink:href="#DejaVuSans-2d" x="417.822266"/>
       <use xlink:href="#DejaVuSans-31" x="453.90625"/>
       <use xlink:href="#DejaVuSans-35" x="517.529297"/>
      </g>
     </g>
    </g>
   </g>
   <g id="matplotlib.axis_2">
    <g id="ytick_1">
     <g id="line2d_10">
      <defs>
       <path id="m1a70c79e70" d="M 0 0 
L -3.5 0 
" style="stroke: #000000; stroke-width: 0.8"/>
      </defs>
      <g>
       <use xlink:href="#m1a70c79e70" x="103.074841" y="370.65191" style="stroke: #000000; stroke-width: 0.8"/>
      </g>
     </g>
     <g id="text_10">
      <!-- 0.00 -->
      <g transform="translate(51.543591 378.250348) scale(0.2 -0.2)">
       <defs>
        <path id="DejaVuSans-2e" d="M 684 794 
L 1344 794 
L 1344 0 
L 684 0 
L 684 794 
z
" transform="scale(0.015625)"/>
       </defs>
       <use xlink:href="#DejaVuSans-30"/>
       <use xlink:href="#DejaVuSans-2e" x="63.623047"/>
       <use xlink:href="#DejaVuSans-30" x="95.410156"/>
       <use xlink:href="#DejaVuSans-30" x="159.033203"/>
      </g>
     </g>
    </g>
    <g id="ytick_2">
     <g id="line2d_11">
      <g>
       <use xlink:href="#m1a70c79e70" x="103.074841" y="291.169945" style="stroke: #000000; stroke-width: 0.8"/>
      </g>
     </g>
     <g id="text_11">
      <!-- 0.05 -->
      <g transform="translate(51.543591 298.768383) scale(0.2 -0.2)">
       <use xlink:href="#DejaVuSans-30"/>
       <use xlink:href="#DejaVuSans-2e" x="63.623047"/>
       <use xlink:href="#DejaVuSans-30" x="95.410156"/>
       <use xlink:href="#DejaVuSans-35" x="159.033203"/>
      </g>
     </g>
    </g>
    <g id="ytick_3">
     <g id="line2d_12">
      <g>
       <use xlink:href="#m1a70c79e70" x="103.074841" y="211.68798" style="stroke: #000000; stroke-width: 0.8"/>
      </g>
     </g>
     <g id="text_12">
      <!-- 0.10 -->
      <g transform="translate(51.543591 219.286418) scale(0.2 -0.2)">
       <use xlink:href="#DejaVuSans-30"/>
       <use xlink:href="#DejaVuSans-2e" x="63.623047"/>
       <use xlink:href="#DejaVuSans-31" x="95.410156"/>
       <use xlink:href="#DejaVuSans-30" x="159.033203"/>
      </g>
     </g>
    </g>
    <g id="ytick_4">
     <g id="line2d_13">
      <g>
       <use xlink:href="#m1a70c79e70" x="103.074841" y="132.206015" style="stroke: #000000; stroke-width: 0.8"/>
      </g>
     </g>
     <g id="text_13">
      <!-- 0.15 -->
      <g transform="translate(51.543591 139.804453) scale(0.2 -0.2)">
       <use xlink:href="#DejaVuSans-30"/>
       <use xlink:href="#DejaVuSans-2e" x="63.623047"/>
       <use xlink:href="#DejaVuSans-31" x="95.410156"/>
       <use xlink:href="#DejaVuSans-35" x="159.033203"/>
      </g>
     </g>
    </g>
    <g id="ytick_5">
     <g id="line2d_14">
      <g>
       <use xlink:href="#m1a70c79e70" x="103.074841" y="52.724051" style="stroke: #000000; stroke-width: 0.8"/>
      </g>
     </g>
     <g id="text_14">
      <!-- 0.20 -->
      <g transform="translate(51.543591 60.322488) scale(0.2 -0.2)">
       <use xlink:href="#DejaVuSans-30"/>
       <use xlink:href="#DejaVuSans-2e" x="63.623047"/>
       <use xlink:href="#DejaVuSans-32" x="95.410156"/>
       <use xlink:href="#DejaVuSans-30" x="159.033203"/>
      </g>
     </g>
    </g>
   </g>
   <g id="line2d_15">
    <path d="M 0 0 
" clip-path="url(#pe35c5cdc31)" style="fill: none; stroke: #ffa500; stroke-width: 1.5; stroke-linecap: square"/>
   </g>
   <g id="line2d_16">
    <path d="M 103.074841 370.65191 
L 948.274841 370.65191 
" clip-path="url(#pe35c5cdc31)" style="fill: none; stroke-dasharray: 7.4,3.2; stroke-dashoffset: 0; stroke: #000000; stroke-width: 2"/>
   </g>
   <g id="patch_3">
    <path d="M 103.074841 395.28 
L 103.074841 7.2 
" style="fill: none; stroke: #000000; stroke-width: 0.8; stroke-linejoin: miter; stroke-linecap: square"/>
   </g>
   <g id="patch_4">
    <path d="M 940.074841 395.28 
L 940.074841 7.2 
" style="fill: none; stroke: #000000; stroke-width: 0.8; stroke-linejoin: miter; stroke-linecap: square"/>
   </g>
   <g id="patch_5">
    <path d="M 103.074841 395.28 
L 940.074841 395.28 
" style="fill: none; stroke: #000000; stroke-width: 0.8; stroke-linejoin: miter; stroke-linecap: square"/>
   </g>
   <g id="patch_6">
    <path d="M 103.074841 7.2 
L 940.074841 7.2 
" style="fill: none; stroke: #000000; stroke-width: 0.8; stroke-linejoin: miter; stroke-linecap: square"/>
   </g>
  </g>
 </g>
 <defs>
  <clipPath id="pe35c5cdc31">
   <rect x="103.074841" y="7.2" width="837" height="388.08"/>
  </clipPath>
 </defs>
</svg>
