<?xml version="1.0" encoding="utf-8" standalone="no"?>
<!DOCTYPE svg PUBLIC "-//W3C//DTD SVG 1.1//EN"
  "http://www.w3.org/Graphics/SVG/1.1/DTD/svg11.dtd">
<svg xmlns:xlink="http://www.w3.org/1999/xlink" width="947.274841pt" height="505.354841pt" viewBox="0 0 947.274841 505.354841" xmlns="http://www.w3.org/2000/svg" version="1.1">
 <metadata>
  <rdf:RDF xmlns:dc="http://purl.org/dc/elements/1.1/" xmlns:cc="http://creativecommons.org/ns#" xmlns:rdf="http://www.w3.org/1999/02/22-rdf-syntax-ns#">
   <cc:Work>
    <dc:type rdf:resource="http://purl.org/dc/dcmitype/StillImage"/>
    <dc:date>2023-11-15T19:56:20.900617</dc:date>
    <dc:format>image/svg+xml</dc:format>
    <dc:creator>
     <cc:Agent>
      <dc:title>Matplotlib v3.7.2, https://matplotlib.org/</dc:title>
     </cc:Agent>
    </dc:creator>
   </cc:Work>
  </rdf:RDF>
 </metadata>
 <defs>
  <style type="text/css">*{stroke-linejoin: round; stroke-linecap: butt}</style>
 </defs>
 <g id="figure_1">
  <g id="patch_1">
   <path d="M 0 505.354841 
L 947.274841 505.354841 
L 947.274841 -0 
L 0 -0 
z
" style="fill: #ffffff"/>
  </g>
  <g id="axes_1">
   <g id="patch_2">
    <path d="M 103.074841 395.28 
L 940.074841 395.28 
L 940.074841 7.2 
L 103.074841 7.2 
z
" style="fill: #ffffff"/>
   </g>
   <g id="PolyCollection_1">
    <path d="M -393.000769 306.038523 
L -393.000769 306.038988 
L -390.959306 306.035818 
L -388.917842 306.035096 
L -386.876379 306.032845 
L -384.834915 306.033405 
L -382.793452 306.032258 
L -380.751989 306.030448 
L -378.710525 306.028281 
L -376.669062 306.027046 
L -374.627598 306.026647 
L -372.586135 306.025565 
L -370.544672 306.024106 
L -368.503208 306.022637 
L -366.461745 306.019335 
L -364.420281 306.018237 
L -362.378818 306.015586 
L -360.337354 306.014318 
L -358.295891 306.010434 
L -356.254428 306.008769 
L -354.212964 306.007606 
L -352.171501 306.005067 
L -350.130037 306.003024 
L -348.088574 306.00155 
L -346.047111 305.998221 
L -344.005647 305.996696 
L -341.964184 305.993839 
L -339.92272 305.991247 
L -337.881257 305.987669 
L -335.839793 305.984082 
L -333.79833 305.981583 
L -331.756867 305.977459 
L -329.715403 305.971666 
L -327.67394 305.968894 
L -325.632476 305.964587 
L -323.591013 305.958327 
L -321.54955 305.954496 
L -319.508086 305.948217 
L -317.466623 305.942426 
L -315.425159 305.937013 
L -313.383696 305.931176 
L -311.342232 305.923761 
L -309.300769 305.915669 
L -307.259306 305.906937 
L -305.217842 305.900474 
L -303.176379 305.889911 
L -301.134915 305.882406 
L -299.093452 305.873665 
L -297.051989 305.866247 
L -295.010525 305.856812 
L -292.969062 305.84514 
L -290.927598 305.837774 
L -288.886135 305.826798 
L -286.844672 305.815109 
L -284.803208 305.805206 
L -282.761745 305.796598 
L -280.720281 305.785 
L -278.678818 305.773643 
L -276.637354 305.763107 
L -274.595891 305.751205 
L -272.554428 305.739413 
L -270.512964 305.72848 
L -268.471501 305.716432 
L -266.430037 305.704888 
L -264.388574 305.694758 
L -262.347111 305.68306 
L -260.305647 305.668045 
L -258.264184 305.655198 
L -256.22272 305.642778 
L -254.181257 305.631444 
L -252.139793 305.617955 
L -250.09833 305.605846 
L -248.056867 305.592691 
L -246.015403 305.584772 
L -243.97394 305.567788 
L -241.932476 305.558404 
L -239.891013 305.543935 
L -237.84955 305.531901 
L -235.808086 305.517021 
L -233.766623 305.507429 
L -231.725159 305.490476 
L -229.683696 305.47672 
L -227.642232 305.465661 
L -225.600769 305.450178 
L -223.559306 305.437479 
L -221.517842 305.422246 
L -219.476379 305.406248 
L -217.434915 305.39197 
L -215.393452 305.379807 
L -213.351989 305.363728 
L -211.310525 305.349596 
L -209.269062 305.334232 
L -207.227598 305.319807 
L -205.186135 305.307105 
L -203.144672 305.292904 
L -201.103208 305.278062 
L -199.061745 305.267955 
L -197.020281 305.25203 
L -194.978818 305.238586 
L -192.937354 305.225661 
L -190.895891 305.212431 
L -188.854428 305.199083 
L -186.812964 305.186015 
L -184.771501 305.175242 
L -182.730037 305.162474 
L -180.688574 305.148463 
L -178.647111 305.133943 
L -176.605647 305.118999 
L -174.564184 305.107515 
L -172.52272 305.091486 
L -170.481257 305.072313 
L -168.439793 305.057016 
L -166.39833 305.039311 
L -164.356867 305.021298 
L -162.315403 305.000724 
L -160.27394 304.979722 
L -158.232476 304.963686 
L -156.191013 304.940358 
L -154.14955 304.920889 
L -152.108086 304.897442 
L -150.066623 304.88002 
L -148.025159 304.852657 
L -145.983696 304.827412 
L -143.942232 304.804814 
L -141.900769 304.781697 
L -139.859306 304.757143 
L -137.817842 304.730113 
L -135.776379 304.708433 
L -133.734915 304.677392 
L -131.693452 304.656657 
L -129.651989 304.624779 
L -127.610525 304.59619 
L -125.569062 304.570224 
L -123.527598 304.54829 
L -121.486135 304.514723 
L -119.444672 304.490434 
L -117.403208 304.445868 
L -115.361745 304.416188 
L -113.320281 304.393432 
L -111.278818 304.361611 
L -109.237354 304.328882 
L -107.195891 304.283751 
L -105.154428 304.246937 
L -103.112964 304.228242 
L -101.071501 304.163511 
L -99.030037 304.126713 
L -96.988574 304.089973 
L -94.947111 304.051741 
L -92.905647 304.000812 
L -90.864184 303.960333 
L -88.82272 303.951742 
L -86.781257 303.921491 
L -84.739793 303.821535 
L -82.69833 303.754703 
L -80.656867 303.731952 
L -78.615403 303.667908 
L -76.57394 303.634223 
L -74.532476 303.620408 
L -72.491013 303.549559 
L -70.44955 303.457285 
L -68.408086 303.430014 
L -66.366623 303.453216 
L -64.325159 303.398763 
L -62.283696 303.436742 
L -60.242232 303.430345 
L -58.200769 303.363618 
L -56.159306 303.445254 
L -54.117842 303.588653 
L -52.076379 303.805344 
L -50.034915 303.731418 
L -47.993452 304.112541 
L -45.951989 304.264473 
L -43.910525 303.92114 
L -41.869062 304.108919 
L -39.827598 304.36136 
L -37.786135 304.316629 
L -35.744672 304.356267 
L -33.703208 305.200046 
L -31.661745 306.369709 
L -29.620281 306.976756 
L -27.578818 305.809607 
L -25.537354 306.487068 
L -23.495891 307.339458 
L -21.454428 307.332487 
L -19.412964 309.022316 
L -17.371501 308.814661 
L -15.330037 308.342401 
L -13.288574 307.103868 
L -11.247111 308.321162 
L -9.205647 309.052864 
L -7.164184 308.760406 
L -5.12272 308.978073 
L -3.081257 309.65171 
L -1.039793 309.574356 
L 1.00167 309.036209 
L 3.043133 309.759771 
L 5.084597 309.940958 
L 7.12606 309.689626 
L 9.167524 310.19037 
L 11.208987 310.389104 
L 13.25045 310.368155 
L 15.291914 310.232744 
L 17.333377 310.41858 
L 19.374841 310.269992 
L 21.416304 310.309283 
L 23.457768 310.495784 
L 25.499231 310.379948 
L 27.540694 310.484232 
L 29.582158 310.521735 
L 31.623621 310.419663 
L 33.665085 310.499021 
L 35.706548 310.323126 
L 37.748011 310.394165 
L 39.789475 310.479127 
L 41.830938 310.521929 
L 43.872402 310.462752 
L 45.913865 310.414918 
L 47.955328 310.433556 
L 49.996792 310.397791 
L 52.038255 310.426214 
L 54.079719 310.450106 
L 56.121182 310.364972 
L 58.162646 310.473442 
L 60.204109 310.428659 
L 62.245572 310.419299 
L 64.287036 310.483943 
L 66.328499 310.443614 
L 68.369963 310.466048 
L 70.411426 310.537761 
L 72.452889 310.623905 
L 74.494353 310.524501 
L 76.535816 310.49851 
L 78.57728 310.539026 
L 80.618743 310.800608 
L 82.660207 310.835727 
L 84.70167 310.950008 
L 86.743133 310.749482 
L 88.784597 310.643662 
L 90.82606 310.703656 
L 92.867524 310.86866 
L 94.908987 310.905643 
L 96.95045 310.668908 
L 98.991914 310.891007 
L 101.033377 310.804145 
L 103.074841 310.792805 
L 105.116304 310.666586 
L 107.157768 310.757854 
L 109.199231 310.707356 
L 111.240694 310.761319 
L 113.282158 310.660818 
L 115.323621 310.587448 
L 117.365085 310.464241 
L 119.406548 310.401829 
L 121.448011 310.341174 
L 123.489475 310.24547 
L 125.530938 310.212435 
L 127.572402 310.113984 
L 129.613865 310.00725 
L 131.655328 309.820555 
L 133.696792 309.655438 
L 135.738255 309.55356 
L 137.779719 309.380639 
L 139.821182 309.312704 
L 141.862646 309.155532 
L 143.904109 308.9427 
L 145.945572 308.763074 
L 147.987036 308.597758 
L 150.028499 308.384419 
L 152.069963 308.216191 
L 154.111426 308.018748 
L 156.152889 307.831941 
L 158.194353 307.608244 
L 160.235816 307.396787 
L 162.27728 307.176565 
L 164.318743 306.969459 
L 166.360207 306.757643 
L 168.40167 306.495993 
L 170.443133 306.251266 
L 172.484597 306.011383 
L 174.52606 305.826843 
L 176.567524 305.561639 
L 178.608987 305.332123 
L 180.65045 305.078729 
L 182.691914 304.731634 
L 184.733377 304.548324 
L 186.774841 304.252087 
L 188.816304 304.007121 
L 190.857768 303.73 
L 192.899231 303.424882 
L 194.940694 303.1411 
L 196.982158 302.854525 
L 199.023621 302.50457 
L 201.065085 302.245793 
L 203.106548 301.901457 
L 205.148011 301.653974 
L 207.189475 301.298067 
L 209.230938 300.945979 
L 211.272402 300.63223 
L 213.313865 300.359511 
L 215.355328 299.960854 
L 217.396792 299.659642 
L 219.438255 299.2976 
L 221.479719 298.989353 
L 223.521182 298.609904 
L 225.562646 298.259151 
L 227.604109 298.153651 
L 229.645572 297.548787 
L 231.687036 297.386329 
L 233.728499 297.001714 
L 235.769963 296.698645 
L 237.811426 296.356471 
L 239.852889 296.004933 
L 241.894353 295.666373 
L 243.935816 295.352164 
L 245.97728 295.053832 
L 248.018743 294.742967 
L 250.060207 294.830189 
L 252.10167 294.082266 
L 254.143133 293.863018 
L 256.184597 294.253709 
L 258.22606 293.427898 
L 260.267524 293.451483 
L 262.308987 293.286644 
L 264.35045 292.793385 
L 266.391914 292.788308 
L 268.433377 293.047616 
L 270.474841 292.673383 
L 272.516304 292.471859 
L 274.557768 292.63511 
L 276.599231 292.477532 
L 278.640694 292.549653 
L 280.682158 292.711278 
L 282.723621 292.951409 
L 284.765085 293.77783 
L 286.806548 293.466947 
L 288.848011 293.856096 
L 290.889475 294.138925 
L 292.930938 294.274189 
L 294.972402 294.672754 
L 297.013865 294.867314 
L 299.055328 294.191308 
L 301.096792 294.64188 
L 303.138255 295.325769 
L 305.179719 295.597668 
L 307.221182 295.57884 
L 309.262646 296.449152 
L 311.304109 296.399784 
L 313.345572 296.482044 
L 315.387036 296.363479 
L 317.428499 297.034673 
L 319.469963 296.637412 
L 321.511426 296.400518 
L 323.552889 296.878677 
L 325.594353 297.36688 
L 327.635816 297.086371 
L 329.67728 297.244039 
L 331.718743 297.216184 
L 333.760207 297.088313 
L 335.80167 296.872782 
L 337.843133 296.883708 
L 339.884597 296.813303 
L 341.92606 297.239184 
L 343.967524 296.73865 
L 346.008987 297.085825 
L 348.05045 296.821223 
L 350.091914 296.560384 
L 352.133377 296.632584 
L 354.174841 296.571142 
L 356.216304 296.162207 
L 358.257768 296.059379 
L 360.299231 295.851131 
L 362.340694 295.988367 
L 364.382158 295.664545 
L 366.423621 295.442742 
L 368.465085 295.498865 
L 370.506548 295.623008 
L 372.548011 295.485002 
L 374.589475 295.25728 
L 376.630938 295.296503 
L 378.672402 294.973429 
L 380.713865 294.938344 
L 382.755328 295.304424 
L 384.796792 295.209497 
L 386.838255 294.892201 
L 388.879719 294.756609 
L 390.921182 294.706964 
L 392.962646 294.362774 
L 395.004109 294.34434 
L 397.045572 294.258356 
L 399.087036 294.115705 
L 401.128499 293.955923 
L 403.169963 293.702957 
L 405.211426 293.70942 
L 407.252889 293.508467 
L 409.294353 293.392835 
L 411.335816 293.242569 
L 413.37728 293.159135 
L 415.418743 292.944077 
L 417.460207 292.627693 
L 419.50167 292.530312 
L 421.543133 292.25976 
L 423.584597 291.909261 
L 425.62606 292.025363 
L 427.667524 291.582099 
L 429.708987 291.659844 
L 431.75045 291.517917 
L 433.791914 291.474255 
L 435.833377 291.172379 
L 437.874841 291.091683 
L 439.916304 290.996503 
L 441.957768 290.64588 
L 443.999231 290.66406 
L 446.040694 290.586141 
L 448.082158 290.524428 
L 450.123621 290.338136 
L 452.165085 290.358937 
L 454.206548 290.172756 
L 456.248011 289.99667 
L 458.289475 289.743294 
L 460.330938 289.639087 
L 462.372402 289.560261 
L 464.413865 289.378399 
L 466.455328 289.371408 
L 468.496792 289.269704 
L 470.538255 289.108999 
L 472.579719 289.088932 
L 474.621182 288.913157 
L 476.662646 289.017195 
L 478.704109 288.889781 
L 480.745572 288.874345 
L 482.787036 288.665124 
L 484.828499 288.387833 
L 486.869963 288.589657 
L 488.911426 288.56541 
L 490.952889 288.464847 
L 492.994353 288.362123 
L 495.035816 288.167549 
L 497.07728 288.113287 
L 499.118743 288.001642 
L 501.160207 288.004668 
L 503.20167 287.955927 
L 505.243133 287.773342 
L 507.284597 287.519293 
L 509.32606 287.825548 
L 511.367524 287.739736 
L 513.408987 287.522568 
L 515.45045 287.643736 
L 517.491914 287.263265 
L 519.533377 287.298046 
L 521.574841 287.310682 
L 523.616304 287.048202 
L 525.657768 287.462966 
L 527.699231 287.020893 
L 529.740694 286.789128 
L 531.782158 287.053423 
L 533.823621 287.112193 
L 535.865085 286.957597 
L 537.906548 287.046557 
L 539.948011 286.828509 
L 541.989475 287.188231 
L 544.030938 286.968342 
L 546.072402 287.020453 
L 548.113865 286.730608 
L 550.155328 286.466394 
L 552.196792 286.733432 
L 554.238255 287.235644 
L 556.279719 286.591988 
L 558.321182 286.590969 
L 560.362646 286.32762 
L 562.404109 286.399776 
L 564.445572 286.333502 
L 566.487036 286.156954 
L 568.528499 286.069963 
L 570.569963 286.297403 
L 572.611426 286.129477 
L 574.652889 286.337156 
L 576.694353 286.352469 
L 578.735816 285.631648 
L 580.77728 285.893446 
L 582.818743 285.895191 
L 584.860207 285.924135 
L 586.90167 285.950064 
L 588.943133 286.379869 
L 590.984597 286.544548 
L 593.02606 286.51398 
L 595.067524 286.995238 
L 597.108987 287.799255 
L 599.15045 286.826994 
L 601.191914 286.811993 
L 603.233377 286.830343 
L 605.274841 287.150805 
L 607.316304 287.224015 
L 609.357768 287.221926 
L 611.399231 287.920435 
L 613.440694 288.17751 
L 615.482158 287.382131 
L 617.523621 288.099842 
L 619.565085 287.742871 
L 621.606548 287.519062 
L 623.648011 288.388992 
L 625.689475 288.209157 
L 627.730938 288.766692 
L 629.772402 288.586168 
L 631.813865 288.194894 
L 633.855328 288.537646 
L 635.896792 288.525804 
L 637.938255 288.860253 
L 639.979719 288.627204 
L 642.021182 289.185106 
L 644.062646 288.756519 
L 646.104109 289.04244 
L 648.145572 288.962901 
L 650.187036 289.278491 
L 652.228499 288.722461 
L 654.269963 289.280138 
L 656.311426 289.229384 
L 658.352889 289.60426 
L 660.394353 289.792679 
L 662.435816 289.774566 
L 664.47728 289.654309 
L 666.518743 289.888542 
L 668.560207 290.058325 
L 670.60167 289.870388 
L 672.643133 289.788158 
L 674.684597 289.991599 
L 676.72606 290.174742 
L 678.767524 289.805682 
L 680.808987 289.585809 
L 682.85045 290.370123 
L 684.891914 290.71703 
L 686.933377 289.879266 
L 688.974841 290.104517 
L 691.016304 290.209776 
L 693.057768 290.252783 
L 695.099231 290.649509 
L 697.140694 290.582803 
L 699.182158 290.402024 
L 701.223621 290.569833 
L 703.265085 290.606963 
L 705.306548 290.154576 
L 707.348011 290.369555 
L 709.389475 290.223918 
L 711.430938 290.829984 
L 713.472402 291.578554 
L 715.513865 291.466161 
L 717.555328 290.864916 
L 719.596792 290.798858 
L 721.638255 290.879974 
L 723.679719 290.908664 
L 725.721182 291.46959 
L 727.762646 290.758271 
L 729.804109 291.509524 
L 731.845572 292.114904 
L 733.887036 291.616208 
L 735.928499 292.395052 
L 737.969963 291.916027 
L 740.011426 292.344004 
L 742.052889 292.07185 
L 744.094353 292.287472 
L 746.135816 292.709781 
L 748.17728 292.689514 
L 750.218743 292.825509 
L 752.260207 292.867633 
L 754.30167 292.919661 
L 756.343133 291.915715 
L 758.384597 293.228281 
L 760.42606 293.773555 
L 762.467524 293.26233 
L 764.508987 293.744976 
L 766.55045 293.85638 
L 768.591914 293.593321 
L 770.633377 294.137498 
L 772.674841 294.504816 
L 774.716304 294.30374 
L 776.757768 294.45357 
L 778.799231 294.542599 
L 780.840694 294.68163 
L 782.882158 295.098192 
L 784.923621 294.280996 
L 786.965085 295.32219 
L 789.006548 295.356958 
L 791.048011 295.411962 
L 793.089475 294.783344 
L 795.130938 295.5727 
L 797.172402 296.099348 
L 799.213865 295.578944 
L 801.255328 295.644194 
L 803.296792 296.373157 
L 805.338255 295.114848 
L 807.379719 296.297948 
L 809.421182 295.563345 
L 811.462646 296.59605 
L 813.504109 296.110187 
L 815.545572 296.556906 
L 817.587036 296.695569 
L 819.628499 296.889623 
L 821.669963 296.947704 
L 823.711426 296.670353 
L 825.752889 296.676695 
L 827.794353 296.814114 
L 829.835816 297.284094 
L 831.87728 297.223539 
L 833.918743 297.207112 
L 835.960207 297.493552 
L 838.00167 297.512816 
L 840.043133 297.28218 
L 842.084597 297.321998 
L 844.12606 297.759366 
L 846.167524 297.824562 
L 848.208987 297.933569 
L 850.25045 297.584266 
L 852.291914 297.064145 
L 854.333377 297.64572 
L 856.374841 297.471356 
L 858.416304 297.629998 
L 860.457768 297.88208 
L 862.499231 297.56625 
L 864.540694 297.9777 
L 866.582158 297.685301 
L 868.623621 297.643249 
L 870.665085 297.622305 
L 872.706548 297.981913 
L 874.748011 297.887648 
L 876.789475 297.852162 
L 878.830938 297.586327 
L 880.872402 297.722517 
L 882.913865 297.778803 
L 884.955328 297.699791 
L 886.996792 297.931935 
L 889.038255 297.871748 
L 891.079719 298.00183 
L 893.121182 298.147312 
L 895.162646 298.129679 
L 897.204109 297.978787 
L 899.245572 298.01352 
L 901.287036 297.918485 
L 903.328499 298.029054 
L 905.369963 298.048912 
L 907.411426 297.877891 
L 909.452889 298.062161 
L 911.494353 297.241405 
L 913.535816 298.053657 
L 915.57728 298.354487 
L 917.618743 298.022042 
L 919.660207 298.018351 
L 921.70167 298.319448 
L 923.743133 298.327221 
L 925.784597 298.036909 
L 927.82606 298.014648 
L 929.867524 298.205137 
L 931.908987 298.137075 
L 933.95045 298.503393 
L 935.991914 298.377356 
L 938.033377 298.636397 
L 940.074841 298.261957 
L 940.074841 289.857467 
L 940.074841 289.857467 
L 938.033377 289.569277 
L 935.991914 289.172273 
L 933.95045 289.601168 
L 931.908987 288.749691 
L 929.867524 288.970091 
L 927.82606 288.840598 
L 925.784597 287.955345 
L 923.743133 289.074975 
L 921.70167 289.671459 
L 919.660207 288.001169 
L 917.618743 288.714963 
L 915.57728 289.401507 
L 913.535816 288.94289 
L 911.494353 283.484452 
L 909.452889 288.770235 
L 907.411426 287.780438 
L 905.369963 288.847328 
L 903.328499 288.777986 
L 901.287036 288.382451 
L 899.245572 288.440554 
L 897.204109 288.354416 
L 895.162646 288.99222 
L 893.121182 289.042102 
L 891.079719 288.279029 
L 889.038255 287.788724 
L 886.996792 288.277316 
L 884.955328 287.561774 
L 882.913865 287.907815 
L 880.872402 287.511412 
L 878.830938 286.996039 
L 876.789475 287.837331 
L 874.748011 287.978559 
L 872.706548 288.03705 
L 870.665085 287.182678 
L 868.623621 287.043628 
L 866.582158 287.064552 
L 864.540694 288.182127 
L 862.499231 286.782231 
L 860.457768 287.831389 
L 858.416304 287.043887 
L 856.374841 286.467361 
L 854.333377 287.063018 
L 852.291914 284.802687 
L 850.25045 286.941952 
L 848.208987 287.868116 
L 846.167524 287.514352 
L 844.12606 287.383727 
L 842.084597 285.597907 
L 840.043133 285.721564 
L 838.00167 286.456794 
L 835.960207 286.4866 
L 833.918743 285.536783 
L 831.87728 285.671322 
L 829.835816 285.660019 
L 827.794353 284.735618 
L 825.752889 283.951274 
L 823.711426 283.841383 
L 821.669963 284.683305 
L 819.628499 284.542952 
L 817.587036 284.178261 
L 815.545572 283.801179 
L 813.504109 282.393146 
L 811.462646 283.956939 
L 809.421182 280.199816 
L 807.379719 282.863656 
L 805.338255 279.289071 
L 803.296792 283.307407 
L 801.255328 281.195914 
L 799.213865 281.222302 
L 797.172402 282.411284 
L 795.130938 281.149594 
L 793.089475 278.794529 
L 791.048011 280.62082 
L 789.006548 280.644007 
L 786.965085 280.631111 
L 784.923621 277.874361 
L 782.882158 279.325976 
L 780.840694 279.046135 
L 778.799231 278.905466 
L 776.757768 278.650923 
L 774.716304 278.117669 
L 772.674841 278.748122 
L 770.633377 277.766636 
L 768.591914 276.526262 
L 766.55045 277.648961 
L 764.508987 276.852801 
L 762.467524 276.146537 
L 760.42606 277.429724 
L 758.384597 276.137824 
L 756.343133 272.743553 
L 754.30167 275.307721 
L 752.260207 275.256499 
L 750.218743 275.310048 
L 748.17728 275.05117 
L 746.135816 275.112927 
L 744.094353 274.22437 
L 742.052889 273.886727 
L 740.011426 274.659017 
L 737.969963 273.348507 
L 735.928499 274.791471 
L 733.887036 272.955568 
L 731.845572 274.094195 
L 729.804109 272.892698 
L 727.762646 271.393238 
L 725.721182 272.880454 
L 723.679719 271.576649 
L 721.638255 271.7309 
L 719.596792 271.733229 
L 717.555328 271.928925 
L 715.513865 273.280348 
L 713.472402 273.652822 
L 711.430938 272.178514 
L 709.389475 270.668816 
L 707.348011 271.18379 
L 705.306548 270.939846 
L 703.265085 272.006921 
L 701.223621 271.982472 
L 699.182158 271.663645 
L 697.140694 272.2599 
L 695.099231 272.302417 
L 693.057768 271.587408 
L 691.016304 271.771347 
L 688.974841 271.549914 
L 686.933377 271.258426 
L 684.891914 273.153965 
L 682.85045 272.230285 
L 680.808987 270.934313 
L 678.767524 271.694401 
L 676.72606 272.385071 
L 674.684597 272.089393 
L 672.643133 271.885388 
L 670.60167 272.219404 
L 668.560207 272.9449 
L 666.518743 272.365826 
L 664.47728 272.216725 
L 662.435816 272.594134 
L 660.394353 272.270497 
L 658.352889 272.507993 
L 656.311426 271.755723 
L 654.269963 272.167053 
L 652.228499 271.228667 
L 650.187036 272.225187 
L 648.145572 271.905778 
L 646.104109 272.25674 
L 644.062646 272.073539 
L 642.021182 272.718903 
L 639.979719 271.888892 
L 637.938255 272.571524 
L 635.896792 272.083482 
L 633.855328 272.293268 
L 631.813865 271.930112 
L 629.772402 272.266529 
L 627.730938 273.01879 
L 625.689475 272.473781 
L 623.648011 272.720343 
L 621.606548 271.558013 
L 619.565085 272.227136 
L 617.523621 272.610646 
L 615.482158 271.736838 
L 613.440694 272.902933 
L 611.399231 273.07813 
L 609.357768 271.952201 
L 607.316304 272.068181 
L 605.274841 272.078732 
L 603.233377 271.738834 
L 601.191914 272.142306 
L 599.15045 272.137012 
L 597.108987 273.672411 
L 595.067524 272.797867 
L 593.02606 272.184735 
L 590.984597 272.321283 
L 588.943133 272.229469 
L 586.90167 271.916184 
L 584.860207 272.200738 
L 582.818743 272.038004 
L 580.77728 272.504577 
L 578.735816 272.214661 
L 576.694353 273.16604 
L 574.652889 273.416853 
L 572.611426 273.373997 
L 570.569963 273.699009 
L 568.528499 273.536632 
L 566.487036 273.923084 
L 564.445572 274.209423 
L 562.404109 274.734565 
L 560.362646 274.575619 
L 558.321182 275.143708 
L 556.279719 275.201926 
L 554.238255 276.132932 
L 552.196792 275.738644 
L 550.155328 275.591414 
L 548.113865 276.062942 
L 546.072402 276.347314 
L 544.030938 276.488118 
L 541.989475 277.07018 
L 539.948011 276.799287 
L 537.906548 277.225586 
L 535.865085 277.196249 
L 533.823621 277.38461 
L 531.782158 277.366775 
L 529.740694 277.286 
L 527.699231 277.760427 
L 525.657768 278.354113 
L 523.616304 277.966413 
L 521.574841 278.355494 
L 519.533377 278.337315 
L 517.491914 278.603436 
L 515.45045 279.081287 
L 513.408987 279.058171 
L 511.367524 279.464286 
L 509.32606 279.647377 
L 507.284597 279.409657 
L 505.243133 279.71305 
L 503.20167 280.03941 
L 501.160207 280.223131 
L 499.118743 280.317266 
L 497.07728 280.579391 
L 495.035816 280.658347 
L 492.994353 280.997606 
L 490.952889 281.167655 
L 488.911426 281.325669 
L 486.869963 281.483549 
L 484.828499 281.171762 
L 482.787036 281.735142 
L 480.745572 282.020215 
L 478.704109 282.067501 
L 476.662646 282.181669 
L 474.621182 282.288753 
L 472.579719 282.517083 
L 470.538255 282.572306 
L 468.496792 282.867879 
L 466.455328 283.032647 
L 464.413865 283.087805 
L 462.372402 283.245625 
L 460.330938 283.436792 
L 458.289475 283.63654 
L 456.248011 284.081669 
L 454.206548 284.251976 
L 452.165085 284.50605 
L 450.123621 284.522324 
L 448.082158 284.778307 
L 446.040694 284.882742 
L 443.999231 285.024354 
L 441.957768 284.933928 
L 439.916304 285.529236 
L 437.874841 285.659099 
L 435.833377 285.79119 
L 433.791914 286.188728 
L 431.75045 286.24817 
L 429.708987 286.466893 
L 427.667524 286.428257 
L 425.62606 286.939348 
L 423.584597 286.860985 
L 421.543133 287.379161 
L 419.50167 287.736547 
L 417.460207 287.904544 
L 415.418743 288.350496 
L 413.37728 288.679251 
L 411.335816 288.780374 
L 409.294353 289.017692 
L 407.252889 289.159069 
L 405.211426 289.4523 
L 403.169963 289.463526 
L 401.128499 289.828725 
L 399.087036 290.110474 
L 397.045572 290.299098 
L 395.004109 290.44811 
L 392.962646 290.538026 
L 390.921182 290.962525 
L 388.879719 291.077631 
L 386.838255 291.306614 
L 384.796792 291.684411 
L 382.755328 291.831623 
L 380.713865 291.539323 
L 378.672402 291.639558 
L 376.630938 292.020976 
L 374.589475 292.07057 
L 372.548011 292.342275 
L 370.506548 292.544449 
L 368.465085 292.459507 
L 366.423621 292.521749 
L 364.382158 292.690421 
L 362.340694 292.968568 
L 360.299231 292.682821 
L 358.257768 292.789977 
L 356.216304 292.767662 
L 354.174841 293.140965 
L 352.133377 293.059728 
L 350.091914 292.895231 
L 348.05045 293.073373 
L 346.008987 293.2932 
L 343.967524 292.798331 
L 341.92606 293.265731 
L 339.884597 292.700641 
L 337.843133 292.675016 
L 335.80167 292.572749 
L 333.760207 292.700514 
L 331.718743 292.779268 
L 329.67728 292.845083 
L 327.635816 292.56089 
L 325.594353 292.825332 
L 323.552889 292.140204 
L 321.511426 291.3242 
L 319.469963 291.572537 
L 317.428499 291.975646 
L 315.387036 291.024213 
L 313.345572 291.149755 
L 311.304109 290.922013 
L 309.262646 290.878353 
L 307.221182 289.638444 
L 305.179719 289.504495 
L 303.138255 289.044954 
L 301.096792 288.00645 
L 299.055328 287.186008 
L 297.013865 288.052371 
L 294.972402 287.604111 
L 292.930938 286.883797 
L 290.889475 286.59313 
L 288.848011 286.089813 
L 286.806548 285.419122 
L 284.765085 285.698606 
L 282.723621 284.55855 
L 280.682158 283.974567 
L 278.640694 283.733074 
L 276.599231 283.543455 
L 274.557768 283.70738 
L 272.516304 283.472368 
L 270.474841 283.763088 
L 268.433377 284.135615 
L 266.391914 283.657035 
L 264.35045 283.672915 
L 262.308987 284.261393 
L 260.267524 284.45432 
L 258.22606 284.335767 
L 256.184597 285.478796 
L 254.143133 284.823914 
L 252.10167 285.16738 
L 250.060207 286.065291 
L 248.018743 285.936497 
L 245.97728 286.32984 
L 243.935816 286.69452 
L 241.894353 287.106778 
L 239.852889 287.505445 
L 237.811426 287.945015 
L 235.769963 288.360081 
L 233.728499 288.719559 
L 231.687036 289.229065 
L 229.645572 289.433041 
L 227.604109 290.183835 
L 225.562646 290.319516 
L 223.521182 290.750442 
L 221.479719 291.235479 
L 219.438255 291.625262 
L 217.396792 292.094849 
L 215.355328 292.462071 
L 213.313865 292.967114 
L 211.272402 293.315548 
L 209.230938 293.732406 
L 207.189475 294.168822 
L 205.148011 294.620299 
L 203.106548 294.94609 
L 201.065085 295.39149 
L 199.023621 295.710482 
L 196.982158 296.1624 
L 194.940694 296.526916 
L 192.899231 296.916129 
L 190.857768 297.294987 
L 188.816304 297.656374 
L 186.774841 297.981482 
L 184.733377 298.37049 
L 182.691914 298.622807 
L 180.65045 299.061489 
L 178.608987 299.396795 
L 176.567524 299.68991 
L 174.52606 300.033808 
L 172.484597 300.332183 
L 170.443133 300.596785 
L 168.40167 300.924163 
L 166.360207 301.26688 
L 164.318743 301.549132 
L 162.27728 301.815012 
L 160.235816 302.125851 
L 158.194353 302.378722 
L 156.152889 302.665846 
L 154.111426 302.913414 
L 152.069963 303.179587 
L 150.028499 303.392736 
L 147.987036 303.675647 
L 145.945572 303.886219 
L 143.904109 304.131716 
L 141.862646 304.407164 
L 139.821182 304.623812 
L 137.779719 304.741619 
L 135.738255 304.967613 
L 133.696792 305.111265 
L 131.655328 305.323851 
L 129.613865 305.576798 
L 127.572402 305.724515 
L 125.530938 305.865072 
L 123.489475 305.957437 
L 121.448011 306.095796 
L 119.406548 306.21502 
L 117.365085 306.336784 
L 115.323621 306.512424 
L 113.282158 306.639703 
L 111.240694 306.780911 
L 109.199231 306.792007 
L 107.157768 306.907299 
L 105.116304 306.870652 
L 103.074841 307.039654 
L 101.033377 307.127975 
L 98.991914 307.232038 
L 96.95045 307.07135 
L 94.908987 307.366164 
L 92.867524 307.389188 
L 90.82606 307.290315 
L 88.784597 307.288827 
L 86.743133 307.452342 
L 84.70167 307.695284 
L 82.660207 307.650413 
L 80.618743 307.678961 
L 78.57728 307.493949 
L 76.535816 307.559075 
L 74.494353 307.602358 
L 72.452889 307.748688 
L 70.411426 307.728614 
L 68.369963 307.721928 
L 66.328499 307.757493 
L 64.287036 307.849228 
L 62.245572 307.862346 
L 60.204109 307.909325 
L 58.162646 307.999843 
L 56.121182 307.957442 
L 54.079719 308.085785 
L 52.038255 308.112422 
L 49.996792 308.136199 
L 47.955328 308.22502 
L 45.913865 308.254442 
L 43.872402 308.335712 
L 41.830938 308.429672 
L 39.789475 308.439439 
L 37.748011 308.40432 
L 35.706548 308.403583 
L 33.665085 308.581346 
L 31.623621 308.549841 
L 29.582158 308.676862 
L 27.540694 308.683973 
L 25.499231 308.619451 
L 23.457768 308.77283 
L 21.416304 308.628671 
L 19.374841 308.621986 
L 17.333377 308.79345 
L 15.291914 308.640922 
L 13.25045 308.796312 
L 11.208987 308.852086 
L 9.167524 308.680087 
L 7.12606 308.196559 
L 5.084597 308.473879 
L 3.043133 308.32427 
L 1.00167 307.556085 
L -1.039793 308.167449 
L -3.081257 308.262198 
L -5.12272 307.551351 
L -7.164184 307.351611 
L -9.205647 307.661001 
L -11.247111 306.902647 
L -13.288574 305.640964 
L -15.330037 306.958791 
L -17.371501 307.486259 
L -19.412964 307.715641 
L -21.454428 305.945042 
L -23.495891 305.973636 
L -25.537354 305.08484 
L -27.578818 304.394538 
L -29.620281 305.643634 
L -31.661745 305.021214 
L -33.703208 303.796919 
L -35.744672 302.908069 
L -37.786135 302.87789 
L -39.827598 302.937345 
L -41.869062 302.678639 
L -43.910525 302.48727 
L -45.951989 302.861827 
L -47.993452 302.719706 
L -50.034915 302.320029 
L -52.076379 302.407985 
L -54.117842 302.182415 
L -56.159306 302.031519 
L -58.200769 301.934791 
L -60.242232 302.020453 
L -62.283696 302.024548 
L -64.325159 301.985615 
L -66.366623 302.042171 
L -68.408086 302.017073 
L -70.44955 302.048388 
L -72.491013 302.161811 
L -74.532476 302.222849 
L -76.57394 302.243697 
L -78.615403 302.275713 
L -80.656867 302.354724 
L -82.69833 302.370563 
L -84.739793 302.447511 
L -86.781257 302.560877 
L -88.82272 302.60495 
L -90.864184 302.609548 
L -92.905647 302.661902 
L -94.947111 302.717202 
L -96.988574 302.769043 
L -99.030037 302.818379 
L -101.071501 302.865222 
L -103.112964 302.955085 
L -105.154428 302.974721 
L -107.195891 303.031333 
L -109.237354 303.092674 
L -111.278818 303.140417 
L -113.320281 303.189244 
L -115.361745 303.223713 
L -117.403208 303.265036 
L -119.444672 303.338068 
L -121.486135 303.376414 
L -123.527598 303.429547 
L -125.569062 303.465481 
L -127.610525 303.512483 
L -129.651989 303.561756 
L -131.693452 303.612272 
L -133.734915 303.650488 
L -135.776379 303.701895 
L -137.817842 303.744224 
L -139.859306 303.791946 
L -141.900769 303.834353 
L -143.942232 303.880425 
L -145.983696 303.920947 
L -148.025159 303.966804 
L -150.066623 304.018744 
L -152.108086 304.052189 
L -154.14955 304.100986 
L -156.191013 304.139722 
L -158.232476 304.189046 
L -160.27394 304.218465 
L -162.315403 304.263094 
L -164.356867 304.304717 
L -166.39833 304.343402 
L -168.439793 304.383414 
L -170.481257 304.418717 
L -172.52272 304.464032 
L -174.564184 304.50242 
L -176.605647 304.529756 
L -178.647111 304.566603 
L -180.688574 304.603155 
L -182.730037 304.639128 
L -184.771501 304.672592 
L -186.812964 304.70163 
L -188.854428 304.735676 
L -190.895891 304.767995 
L -192.937354 304.800025 
L -194.978818 304.831239 
L -197.020281 304.863418 
L -199.061745 304.897372 
L -201.103208 304.921809 
L -203.144672 304.95359 
L -205.186135 304.983621 
L -207.227598 305.010648 
L -209.269062 305.039028 
L -211.310525 305.068196 
L -213.351989 305.095113 
L -215.393452 305.124632 
L -217.434915 305.148186 
L -219.476379 305.17266 
L -221.517842 305.20019 
L -223.559306 305.225336 
L -225.600769 305.246995 
L -227.642232 305.271766 
L -229.683696 305.290949 
L -231.725159 305.313558 
L -233.766623 305.339689 
L -235.808086 305.356549 
L -237.84955 305.379437 
L -239.891013 305.398698 
L -241.932476 305.420372 
L -243.97394 305.435953 
L -246.015403 305.460368 
L -248.056867 305.47351 
L -250.09833 305.489521 
L -252.139793 305.501864 
L -254.181257 305.5161 
L -256.22272 305.527688 
L -258.264184 305.541013 
L -260.305647 305.55529 
L -262.347111 305.572184 
L -264.388574 305.58536 
L -266.430037 305.596602 
L -268.471501 305.609614 
L -270.512964 305.623574 
L -272.554428 305.636347 
L -274.595891 305.650711 
L -276.637354 305.665157 
L -278.678818 305.677944 
L -280.720281 305.692075 
L -282.761745 305.706719 
L -284.803208 305.717712 
L -286.844672 305.730406 
L -288.886135 305.745985 
L -290.927598 305.759902 
L -292.969062 305.770007 
L -295.010525 305.78543 
L -297.051989 305.79798 
L -299.093452 305.808244 
L -301.134915 305.819996 
L -303.176379 305.830373 
L -305.217842 305.844787 
L -307.259306 305.853816 
L -309.300769 305.865715 
L -311.342232 305.876763 
L -313.383696 305.88662 
L -315.425159 305.894991 
L -317.466623 305.901869 
L -319.508086 305.909608 
L -321.54955 305.917935 
L -323.591013 305.923089 
L -325.632476 305.931418 
L -327.67394 305.936993 
L -329.715403 305.940686 
L -331.756867 305.947991 
L -333.79833 305.953346 
L -335.839793 305.956435 
L -337.881257 305.961179 
L -339.92272 305.965802 
L -341.964184 305.969007 
L -344.005647 305.972644 
L -346.047111 305.974528 
L -348.088574 305.978813 
L -350.130037 305.980721 
L -352.171501 305.983458 
L -354.212964 305.986912 
L -356.254428 305.988545 
L -358.295891 305.990884 
L -360.337354 305.996359 
L -362.378818 305.998362 
L -364.420281 306.002262 
L -366.461745 306.003861 
L -368.503208 306.008686 
L -370.544672 306.011007 
L -372.586135 306.013603 
L -374.627598 306.015137 
L -376.669062 306.016254 
L -378.710525 306.018474 
L -380.751989 306.022081 
L -382.793452 306.025211 
L -384.834915 306.027408 
L -386.876379 306.027595 
L -388.917842 306.031596 
L -390.959306 306.033884 
L -393.000769 306.038523 
z
" clip-path="url(#p4d03d11024)" style="fill: #008000; fill-opacity: 0.3; stroke: #008000; stroke-opacity: 0.3"/>
   </g>
   <g id="matplotlib.axis_1">
    <g id="xtick_1">
     <g id="line2d_1">
      <defs>
       <path id="mc3f420b428" d="M 0 0 
L 0 3.5 
" style="stroke: #000000; stroke-width: 0.8"/>
      </defs>
      <g>
       <use xlink:href="#mc3f420b428" x="103.074841" y="395.28" style="stroke: #000000; stroke-width: 0.8"/>
      </g>
     </g>
     <g id="text_1">
      <!-- 2022-03-01 -->
      <g transform="translate(17.945813 495.213718) rotate(-45) scale(0.2 -0.2)">
       <defs>
        <path id="DejaVuSans-32" d="M 1228 531 
L 3431 531 
L 3431 0 
L 469 0 
L 469 531 
Q 828 903 1448 1529 
Q 2069 2156 2228 2338 
Q 2531 2678 2651 2914 
Q 2772 3150 2772 3378 
Q 2772 3750 2511 3984 
Q 2250 4219 1831 4219 
Q 1534 4219 1204 4116 
Q 875 4013 500 3803 
L 500 4441 
Q 881 4594 1212 4672 
Q 1544 4750 1819 4750 
Q 2544 4750 2975 4387 
Q 3406 4025 3406 3419 
Q 3406 3131 3298 2873 
Q 3191 2616 2906 2266 
Q 2828 2175 2409 1742 
Q 1991 1309 1228 531 
z
" transform="scale(0.015625)"/>
        <path id="DejaVuSans-30" d="M 2034 4250 
Q 1547 4250 1301 3770 
Q 1056 3291 1056 2328 
Q 1056 1369 1301 889 
Q 1547 409 2034 409 
Q 2525 409 2770 889 
Q 3016 1369 3016 2328 
Q 3016 3291 2770 3770 
Q 2525 4250 2034 4250 
z
M 2034 4750 
Q 2819 4750 3233 4129 
Q 3647 3509 3647 2328 
Q 3647 1150 3233 529 
Q 2819 -91 2034 -91 
Q 1250 -91 836 529 
Q 422 1150 422 2328 
Q 422 3509 836 4129 
Q 1250 4750 2034 4750 
z
" transform="scale(0.015625)"/>
        <path id="DejaVuSans-2d" d="M 313 2009 
L 1997 2009 
L 1997 1497 
L 313 1497 
L 313 2009 
z
" transform="scale(0.015625)"/>
        <path id="DejaVuSans-33" d="M 2597 2516 
Q 3050 2419 3304 2112 
Q 3559 1806 3559 1356 
Q 3559 666 3084 287 
Q 2609 -91 1734 -91 
Q 1441 -91 1130 -33 
Q 819 25 488 141 
L 488 750 
Q 750 597 1062 519 
Q 1375 441 1716 441 
Q 2309 441 2620 675 
Q 2931 909 2931 1356 
Q 2931 1769 2642 2001 
Q 2353 2234 1838 2234 
L 1294 2234 
L 1294 2753 
L 1863 2753 
Q 2328 2753 2575 2939 
Q 2822 3125 2822 3475 
Q 2822 3834 2567 4026 
Q 2313 4219 1838 4219 
Q 1578 4219 1281 4162 
Q 984 4106 628 3988 
L 628 4550 
Q 988 4650 1302 4700 
Q 1616 4750 1894 4750 
Q 2613 4750 3031 4423 
Q 3450 4097 3450 3541 
Q 3450 3153 3228 2886 
Q 3006 2619 2597 2516 
z
" transform="scale(0.015625)"/>
        <path id="DejaVuSans-31" d="M 794 531 
L 1825 531 
L 1825 4091 
L 703 3866 
L 703 4441 
L 1819 4666 
L 2450 4666 
L 2450 531 
L 3481 531 
L 3481 0 
L 794 0 
L 794 531 
z
" transform="scale(0.015625)"/>
       </defs>
       <use xlink:href="#DejaVuSans-32"/>
       <use xlink:href="#DejaVuSans-30" x="63.623047"/>
       <use xlink:href="#DejaVuSans-32" x="127.246094"/>
       <use xlink:href="#DejaVuSans-32" x="190.869141"/>
       <use xlink:href="#DejaVuSans-2d" x="254.492188"/>
       <use xlink:href="#DejaVuSans-30" x="290.576172"/>
       <use xlink:href="#DejaVuSans-33" x="354.199219"/>
       <use xlink:href="#DejaVuSans-2d" x="417.822266"/>
       <use xlink:href="#DejaVuSans-30" x="453.90625"/>
       <use xlink:href="#DejaVuSans-31" x="517.529297"/>
      </g>
     </g>
    </g>
    <g id="xtick_2">
     <g id="line2d_2">
      <g>
       <use xlink:href="#mc3f420b428" x="160.235816" y="395.28" style="stroke: #000000; stroke-width: 0.8"/>
      </g>
     </g>
     <g id="text_2">
      <!-- 2022-03-29 -->
      <g transform="translate(75.106789 495.213718) rotate(-45) scale(0.2 -0.2)">
       <defs>
        <path id="DejaVuSans-39" d="M 703 97 
L 703 672 
Q 941 559 1184 500 
Q 1428 441 1663 441 
Q 2288 441 2617 861 
Q 2947 1281 2994 2138 
Q 2813 1869 2534 1725 
Q 2256 1581 1919 1581 
Q 1219 1581 811 2004 
Q 403 2428 403 3163 
Q 403 3881 828 4315 
Q 1253 4750 1959 4750 
Q 2769 4750 3195 4129 
Q 3622 3509 3622 2328 
Q 3622 1225 3098 567 
Q 2575 -91 1691 -91 
Q 1453 -91 1209 -44 
Q 966 3 703 97 
z
M 1959 2075 
Q 2384 2075 2632 2365 
Q 2881 2656 2881 3163 
Q 2881 3666 2632 3958 
Q 2384 4250 1959 4250 
Q 1534 4250 1286 3958 
Q 1038 3666 1038 3163 
Q 1038 2656 1286 2365 
Q 1534 2075 1959 2075 
z
" transform="scale(0.015625)"/>
       </defs>
       <use xlink:href="#DejaVuSans-32"/>
       <use xlink:href="#DejaVuSans-30" x="63.623047"/>
       <use xlink:href="#DejaVuSans-32" x="127.246094"/>
       <use xlink:href="#DejaVuSans-32" x="190.869141"/>
       <use xlink:href="#DejaVuSans-2d" x="254.492188"/>
       <use xlink:href="#DejaVuSans-30" x="290.576172"/>
       <use xlink:href="#DejaVuSans-33" x="354.199219"/>
       <use xlink:href="#DejaVuSans-2d" x="417.822266"/>
       <use xlink:href="#DejaVuSans-32" x="453.90625"/>
       <use xlink:href="#DejaVuSans-39" x="517.529297"/>
      </g>
     </g>
    </g>
    <g id="xtick_3">
     <g id="line2d_3">
      <g>
       <use xlink:href="#mc3f420b428" x="217.396792" y="395.28" style="stroke: #000000; stroke-width: 0.8"/>
      </g>
     </g>
     <g id="text_3">
      <!-- 2022-04-26 -->
      <g transform="translate(132.267765 495.213718) rotate(-45) scale(0.2 -0.2)">
       <defs>
        <path id="DejaVuSans-34" d="M 2419 4116 
L 825 1625 
L 2419 1625 
L 2419 4116 
z
M 2253 4666 
L 3047 4666 
L 3047 1625 
L 3713 1625 
L 3713 1100 
L 3047 1100 
L 3047 0 
L 2419 0 
L 2419 1100 
L 313 1100 
L 313 1709 
L 2253 4666 
z
" transform="scale(0.015625)"/>
        <path id="DejaVuSans-36" d="M 2113 2584 
Q 1688 2584 1439 2293 
Q 1191 2003 1191 1497 
Q 1191 994 1439 701 
Q 1688 409 2113 409 
Q 2538 409 2786 701 
Q 3034 994 3034 1497 
Q 3034 2003 2786 2293 
Q 2538 2584 2113 2584 
z
M 3366 4563 
L 3366 3988 
Q 3128 4100 2886 4159 
Q 2644 4219 2406 4219 
Q 1781 4219 1451 3797 
Q 1122 3375 1075 2522 
Q 1259 2794 1537 2939 
Q 1816 3084 2150 3084 
Q 2853 3084 3261 2657 
Q 3669 2231 3669 1497 
Q 3669 778 3244 343 
Q 2819 -91 2113 -91 
Q 1303 -91 875 529 
Q 447 1150 447 2328 
Q 447 3434 972 4092 
Q 1497 4750 2381 4750 
Q 2619 4750 2861 4703 
Q 3103 4656 3366 4563 
z
" transform="scale(0.015625)"/>
       </defs>
       <use xlink:href="#DejaVuSans-32"/>
       <use xlink:href="#DejaVuSans-30" x="63.623047"/>
       <use xlink:href="#DejaVuSans-32" x="127.246094"/>
       <use xlink:href="#DejaVuSans-32" x="190.869141"/>
       <use xlink:href="#DejaVuSans-2d" x="254.492188"/>
       <use xlink:href="#DejaVuSans-30" x="290.576172"/>
       <use xlink:href="#DejaVuSans-34" x="354.199219"/>
       <use xlink:href="#DejaVuSans-2d" x="417.822266"/>
       <use xlink:href="#DejaVuSans-32" x="453.90625"/>
       <use xlink:href="#DejaVuSans-36" x="517.529297"/>
      </g>
     </g>
    </g>
    <g id="xtick_4">
     <g id="line2d_4">
      <g>
       <use xlink:href="#mc3f420b428" x="274.557768" y="395.28" style="stroke: #000000; stroke-width: 0.8"/>
      </g>
     </g>
     <g id="text_4">
      <!-- 2022-05-24 -->
      <g transform="translate(189.42874 495.213718) rotate(-45) scale(0.2 -0.2)">
       <defs>
        <path id="DejaVuSans-35" d="M 691 4666 
L 3169 4666 
L 3169 4134 
L 1269 4134 
L 1269 2991 
Q 1406 3038 1543 3061 
Q 1681 3084 1819 3084 
Q 2600 3084 3056 2656 
Q 3513 2228 3513 1497 
Q 3513 744 3044 326 
Q 2575 -91 1722 -91 
Q 1428 -91 1123 -41 
Q 819 9 494 109 
L 494 744 
Q 775 591 1075 516 
Q 1375 441 1709 441 
Q 2250 441 2565 725 
Q 2881 1009 2881 1497 
Q 2881 1984 2565 2268 
Q 2250 2553 1709 2553 
Q 1456 2553 1204 2497 
Q 953 2441 691 2322 
L 691 4666 
z
" transform="scale(0.015625)"/>
       </defs>
       <use xlink:href="#DejaVuSans-32"/>
       <use xlink:href="#DejaVuSans-30" x="63.623047"/>
       <use xlink:href="#DejaVuSans-32" x="127.246094"/>
       <use xlink:href="#DejaVuSans-32" x="190.869141"/>
       <use xlink:href="#DejaVuSans-2d" x="254.492188"/>
       <use xlink:href="#DejaVuSans-30" x="290.576172"/>
       <use xlink:href="#DejaVuSans-35" x="354.199219"/>
       <use xlink:href="#DejaVuSans-2d" x="417.822266"/>
       <use xlink:href="#DejaVuSans-32" x="453.90625"/>
       <use xlink:href="#DejaVuSans-34" x="517.529297"/>
      </g>
     </g>
    </g>
    <g id="xtick_5">
     <g id="line2d_5">
      <g>
       <use xlink:href="#mc3f420b428" x="331.718743" y="395.28" style="stroke: #000000; stroke-width: 0.8"/>
      </g>
     </g>
     <g id="text_5">
      <!-- 2022-06-21 -->
      <g transform="translate(246.589716 495.213718) rotate(-45) scale(0.2 -0.2)">
       <use xlink:href="#DejaVuSans-32"/>
       <use xlink:href="#DejaVuSans-30" x="63.623047"/>
       <use xlink:href="#DejaVuSans-32" x="127.246094"/>
       <use xlink:href="#DejaVuSans-32" x="190.869141"/>
       <use xlink:href="#DejaVuSans-2d" x="254.492188"/>
       <use xlink:href="#DejaVuSans-30" x="290.576172"/>
       <use xlink:href="#DejaVuSans-36" x="354.199219"/>
       <use xlink:href="#DejaVuSans-2d" x="417.822266"/>
       <use xlink:href="#DejaVuSans-32" x="453.90625"/>
       <use xlink:href="#DejaVuSans-31" x="517.529297"/>
      </g>
     </g>
    </g>
    <g id="xtick_6">
     <g id="line2d_6">
      <g>
       <use xlink:href="#mc3f420b428" x="388.879719" y="395.28" style="stroke: #000000; stroke-width: 0.8"/>
      </g>
     </g>
     <g id="text_6">
      <!-- 2022-07-19 -->
      <g transform="translate(303.750691 495.213718) rotate(-45) scale(0.2 -0.2)">
       <defs>
        <path id="DejaVuSans-37" d="M 525 4666 
L 3525 4666 
L 3525 4397 
L 1831 0 
L 1172 0 
L 2766 4134 
L 525 4134 
L 525 4666 
z
" transform="scale(0.015625)"/>
       </defs>
       <use xlink:href="#DejaVuSans-32"/>
       <use xlink:href="#DejaVuSans-30" x="63.623047"/>
       <use xlink:href="#DejaVuSans-32" x="127.246094"/>
       <use xlink:href="#DejaVuSans-32" x="190.869141"/>
       <use xlink:href="#DejaVuSans-2d" x="254.492188"/>
       <use xlink:href="#DejaVuSans-30" x="290.576172"/>
       <use xlink:href="#DejaVuSans-37" x="354.199219"/>
       <use xlink:href="#DejaVuSans-2d" x="417.822266"/>
       <use xlink:href="#DejaVuSans-31" x="453.90625"/>
       <use xlink:href="#DejaVuSans-39" x="517.529297"/>
      </g>
     </g>
    </g>
    <g id="xtick_7">
     <g id="line2d_7">
      <g>
       <use xlink:href="#mc3f420b428" x="446.040694" y="395.28" style="stroke: #000000; stroke-width: 0.8"/>
      </g>
     </g>
     <g id="text_7">
      <!-- 2022-08-16 -->
      <g transform="translate(360.911667 495.213718) rotate(-45) scale(0.2 -0.2)">
       <defs>
        <path id="DejaVuSans-38" d="M 2034 2216 
Q 1584 2216 1326 1975 
Q 1069 1734 1069 1313 
Q 1069 891 1326 650 
Q 1584 409 2034 409 
Q 2484 409 2743 651 
Q 3003 894 3003 1313 
Q 3003 1734 2745 1975 
Q 2488 2216 2034 2216 
z
M 1403 2484 
Q 997 2584 770 2862 
Q 544 3141 544 3541 
Q 544 4100 942 4425 
Q 1341 4750 2034 4750 
Q 2731 4750 3128 4425 
Q 3525 4100 3525 3541 
Q 3525 3141 3298 2862 
Q 3072 2584 2669 2484 
Q 3125 2378 3379 2068 
Q 3634 1759 3634 1313 
Q 3634 634 3220 271 
Q 2806 -91 2034 -91 
Q 1263 -91 848 271 
Q 434 634 434 1313 
Q 434 1759 690 2068 
Q 947 2378 1403 2484 
z
M 1172 3481 
Q 1172 3119 1398 2916 
Q 1625 2713 2034 2713 
Q 2441 2713 2670 2916 
Q 2900 3119 2900 3481 
Q 2900 3844 2670 4047 
Q 2441 4250 2034 4250 
Q 1625 4250 1398 4047 
Q 1172 3844 1172 3481 
z
" transform="scale(0.015625)"/>
       </defs>
       <use xlink:href="#DejaVuSans-32"/>
       <use xlink:href="#DejaVuSans-30" x="63.623047"/>
       <use xlink:href="#DejaVuSans-32" x="127.246094"/>
       <use xlink:href="#DejaVuSans-32" x="190.869141"/>
       <use xlink:href="#DejaVuSans-2d" x="254.492188"/>
       <use xlink:href="#DejaVuSans-30" x="290.576172"/>
       <use xlink:href="#DejaVuSans-38" x="354.199219"/>
       <use xlink:href="#DejaVuSans-2d" x="417.822266"/>
       <use xlink:href="#DejaVuSans-31" x="453.90625"/>
       <use xlink:href="#DejaVuSans-36" x="517.529297"/>
      </g>
     </g>
    </g>
    <g id="xtick_8">
     <g id="line2d_8">
      <g>
       <use xlink:href="#mc3f420b428" x="503.20167" y="395.28" style="stroke: #000000; stroke-width: 0.8"/>
      </g>
     </g>
     <g id="text_8">
      <!-- 2022-09-13 -->
      <g transform="translate(418.072643 495.213718) rotate(-45) scale(0.2 -0.2)">
       <use xlink:href="#DejaVuSans-32"/>
       <use xlink:href="#DejaVuSans-30" x="63.623047"/>
       <use xlink:href="#DejaVuSans-32" x="127.246094"/>
       <use xlink:href="#DejaVuSans-32" x="190.869141"/>
       <use xlink:href="#DejaVuSans-2d" x="254.492188"/>
       <use xlink:href="#DejaVuSans-30" x="290.576172"/>
       <use xlink:href="#DejaVuSans-39" x="354.199219"/>
       <use xlink:href="#DejaVuSans-2d" x="417.822266"/>
       <use xlink:href="#DejaVuSans-31" x="453.90625"/>
       <use xlink:href="#DejaVuSans-33" x="517.529297"/>
      </g>
     </g>
    </g>
    <g id="xtick_9">
     <g id="line2d_9">
      <g>
       <use xlink:href="#mc3f420b428" x="560.362646" y="395.28" style="stroke: #000000; stroke-width: 0.8"/>
      </g>
     </g>
     <g id="text_9">
      <!-- 2022-10-11 -->
      <g transform="translate(475.233618 495.213718) rotate(-45) scale(0.2 -0.2)">
       <use xlink:href="#DejaVuSans-32"/>
       <use xlink:href="#DejaVuSans-30" x="63.623047"/>
       <use xlink:href="#DejaVuSans-32" x="127.246094"/>
       <use xlink:href="#DejaVuSans-32" x="190.869141"/>
       <use xlink:href="#DejaVuSans-2d" x="254.492188"/>
       <use xlink:href="#DejaVuSans-31" x="290.576172"/>
       <use xlink:href="#DejaVuSans-30" x="354.199219"/>
       <use xlink:href="#DejaVuSans-2d" x="417.822266"/>
       <use xlink:href="#DejaVuSans-31" x="453.90625"/>
       <use xlink:href="#DejaVuSans-31" x="517.529297"/>
      </g>
     </g>
    </g>
    <g id="xtick_10">
     <g id="line2d_10">
      <g>
       <use xlink:href="#mc3f420b428" x="617.523621" y="395.28" style="stroke: #000000; stroke-width: 0.8"/>
      </g>
     </g>
     <g id="text_10">
      <!-- 2022-11-08 -->
      <g transform="translate(532.394594 495.213718) rotate(-45) scale(0.2 -0.2)">
       <use xlink:href="#DejaVuSans-32"/>
       <use xlink:href="#DejaVuSans-30" x="63.623047"/>
       <use xlink:href="#DejaVuSans-32" x="127.246094"/>
       <use xlink:href="#DejaVuSans-32" x="190.869141"/>
       <use xlink:href="#DejaVuSans-2d" x="254.492188"/>
       <use xlink:href="#DejaVuSans-31" x="290.576172"/>
       <use xlink:href="#DejaVuSans-31" x="354.199219"/>
       <use xlink:href="#DejaVuSans-2d" x="417.822266"/>
       <use xlink:href="#DejaVuSans-30" x="453.90625"/>
       <use xlink:href="#DejaVuSans-38" x="517.529297"/>
      </g>
     </g>
    </g>
    <g id="xtick_11">
     <g id="line2d_11">
      <g>
       <use xlink:href="#mc3f420b428" x="674.684597" y="395.28" style="stroke: #000000; stroke-width: 0.8"/>
      </g>
     </g>
     <g id="text_11">
      <!-- 2022-12-06 -->
      <g transform="translate(589.555569 495.213718) rotate(-45) scale(0.2 -0.2)">
       <use xlink:href="#DejaVuSans-32"/>
       <use xlink:href="#DejaVuSans-30" x="63.623047"/>
       <use xlink:href="#DejaVuSans-32" x="127.246094"/>
       <use xlink:href="#DejaVuSans-32" x="190.869141"/>
       <use xlink:href="#DejaVuSans-2d" x="254.492188"/>
       <use xlink:href="#DejaVuSans-31" x="290.576172"/>
       <use xlink:href="#DejaVuSans-32" x="354.199219"/>
       <use xlink:href="#DejaVuSans-2d" x="417.822266"/>
       <use xlink:href="#DejaVuSans-30" x="453.90625"/>
       <use xlink:href="#DejaVuSans-36" x="517.529297"/>
      </g>
     </g>
    </g>
    <g id="xtick_12">
     <g id="line2d_12">
      <g>
       <use xlink:href="#mc3f420b428" x="731.845572" y="395.28" style="stroke: #000000; stroke-width: 0.8"/>
      </g>
     </g>
     <g id="text_12">
      <!-- 2023-01-03 -->
      <g transform="translate(646.716545 495.213718) rotate(-45) scale(0.2 -0.2)">
       <use xlink:href="#DejaVuSans-32"/>
       <use xlink:href="#DejaVuSans-30" x="63.623047"/>
       <use xlink:href="#DejaVuSans-32" x="127.246094"/>
       <use xlink:href="#DejaVuSans-33" x="190.869141"/>
       <use xlink:href="#DejaVuSans-2d" x="254.492188"/>
       <use xlink:href="#DejaVuSans-30" x="290.576172"/>
       <use xlink:href="#DejaVuSans-31" x="354.199219"/>
       <use xlink:href="#DejaVuSans-2d" x="417.822266"/>
       <use xlink:href="#DejaVuSans-30" x="453.90625"/>
       <use xlink:href="#DejaVuSans-33" x="517.529297"/>
      </g>
     </g>
    </g>
    <g id="xtick_13">
     <g id="line2d_13">
      <g>
       <use xlink:href="#mc3f420b428" x="789.006548" y="395.28" style="stroke: #000000; stroke-width: 0.8"/>
      </g>
     </g>
     <g id="text_13">
      <!-- 2023-01-31 -->
      <g transform="translate(703.877521 495.213718) rotate(-45) scale(0.2 -0.2)">
       <use xlink:href="#DejaVuSans-32"/>
       <use xlink:href="#DejaVuSans-30" x="63.623047"/>
       <use xlink:href="#DejaVuSans-32" x="127.246094"/>
       <use xlink:href="#DejaVuSans-33" x="190.869141"/>
       <use xlink:href="#DejaVuSans-2d" x="254.492188"/>
       <use xlink:href="#DejaVuSans-30" x="290.576172"/>
       <use xlink:href="#DejaVuSans-31" x="354.199219"/>
       <use xlink:href="#DejaVuSans-2d" x="417.822266"/>
       <use xlink:href="#DejaVuSans-33" x="453.90625"/>
       <use xlink:href="#DejaVuSans-31" x="517.529297"/>
      </g>
     </g>
    </g>
    <g id="xtick_14">
     <g id="line2d_14">
      <g>
       <use xlink:href="#mc3f420b428" x="846.167524" y="395.28" style="stroke: #000000; stroke-width: 0.8"/>
      </g>
     </g>
     <g id="text_14">
      <!-- 2023-02-28 -->
      <g transform="translate(761.038496 495.213718) rotate(-45) scale(0.2 -0.2)">
       <use xlink:href="#DejaVuSans-32"/>
       <use xlink:href="#DejaVuSans-30" x="63.623047"/>
       <use xlink:href="#DejaVuSans-32" x="127.246094"/>
       <use xlink:href="#DejaVuSans-33" x="190.869141"/>
       <use xlink:href="#DejaVuSans-2d" x="254.492188"/>
       <use xlink:href="#DejaVuSans-30" x="290.576172"/>
       <use xlink:href="#DejaVuSans-32" x="354.199219"/>
       <use xlink:href="#DejaVuSans-2d" x="417.822266"/>
       <use xlink:href="#DejaVuSans-32" x="453.90625"/>
       <use xlink:href="#DejaVuSans-38" x="517.529297"/>
      </g>
     </g>
    </g>
    <g id="xtick_15">
     <g id="line2d_15">
      <g>
       <use xlink:href="#mc3f420b428" x="903.328499" y="395.28" style="stroke: #000000; stroke-width: 0.8"/>
      </g>
     </g>
     <g id="text_15">
      <!-- 2023-03-28 -->
      <g transform="translate(818.199472 495.213718) rotate(-45) scale(0.2 -0.2)">
       <use xlink:href="#DejaVuSans-32"/>
       <use xlink:href="#DejaVuSans-30" x="63.623047"/>
       <use xlink:href="#DejaVuSans-32" x="127.246094"/>
       <use xlink:href="#DejaVuSans-33" x="190.869141"/>
       <use xlink:href="#DejaVuSans-2d" x="254.492188"/>
       <use xlink:href="#DejaVuSans-30" x="290.576172"/>
       <use xlink:href="#DejaVuSans-33" x="354.199219"/>
       <use xlink:href="#DejaVuSans-2d" x="417.822266"/>
       <use xlink:href="#DejaVuSans-32" x="453.90625"/>
       <use xlink:href="#DejaVuSans-38" x="517.529297"/>
      </g>
     </g>
    </g>
    <g id="xtick_16">
     <g id="line2d_16">
      <g>
       <use xlink:href="#mc3f420b428" x="940.074841" y="395.28" style="stroke: #000000; stroke-width: 0.8"/>
      </g>
     </g>
     <g id="text_16">
      <!-- 2023-04-15 -->
      <g transform="translate(854.945813 495.213718) rotate(-45) scale(0.2 -0.2)">
       <use xlink:href="#DejaVuSans-32"/>
       <use xlink:href="#DejaVuSans-30" x="63.623047"/>
       <use xlink:href="#DejaVuSans-32" x="127.246094"/>
       <use xlink:href="#DejaVuSans-33" x="190.869141"/>
       <use xlink:href="#DejaVuSans-2d" x="254.492188"/>
       <use xlink:href="#DejaVuSans-30" x="290.576172"/>
       <use xlink:href="#DejaVuSans-34" x="354.199219"/>
       <use xlink:href="#DejaVuSans-2d" x="417.822266"/>
       <use xlink:href="#DejaVuSans-31" x="453.90625"/>
       <use xlink:href="#DejaVuSans-35" x="517.529297"/>
      </g>
     </g>
    </g>
   </g>
   <g id="matplotlib.axis_2">
    <g id="ytick_1">
     <g id="line2d_17">
      <defs>
       <path id="md904028059" d="M 0 0 
L -3.5 0 
" style="stroke: #000000; stroke-width: 0.8"/>
      </defs>
      <g>
       <use xlink:href="#md904028059" x="103.074841" y="371.139169" style="stroke: #000000; stroke-width: 0.8"/>
      </g>
     </g>
     <g id="text_17">
      <!-- 0.5 -->
      <g transform="translate(47.509216 378.737607) scale(0.2 -0.2)">
       <defs>
        <path id="DejaVuSans-2212" d="M 678 2272 
L 4684 2272 
L 4684 1741 
L 678 1741 
L 678 2272 
z
" transform="scale(0.015625)"/>
        <path id="DejaVuSans-2e" d="M 684 794 
L 1344 794 
L 1344 0 
L 684 0 
L 684 794 
z
" transform="scale(0.015625)"/>
       </defs>
       <use xlink:href="#DejaVuSans-2212"/>
       <use xlink:href="#DejaVuSans-30" x="83.789062"/>
       <use xlink:href="#DejaVuSans-2e" x="147.412109"/>
       <use xlink:href="#DejaVuSans-35" x="179.199219"/>
      </g>
     </g>
    </g>
    <g id="ytick_2">
     <g id="line2d_18">
      <g>
       <use xlink:href="#md904028059" x="103.074841" y="306.042845" style="stroke: #000000; stroke-width: 0.8"/>
      </g>
     </g>
     <g id="text_18">
      <!-- 0.0 -->
      <g transform="translate(64.268591 313.641282) scale(0.2 -0.2)">
       <use xlink:href="#DejaVuSans-30"/>
       <use xlink:href="#DejaVuSans-2e" x="63.623047"/>
       <use xlink:href="#DejaVuSans-30" x="95.410156"/>
      </g>
     </g>
    </g>
    <g id="ytick_3">
     <g id="line2d_19">
      <g>
       <use xlink:href="#md904028059" x="103.074841" y="240.94652" style="stroke: #000000; stroke-width: 0.8"/>
      </g>
     </g>
     <g id="text_19">
      <!-- 0.5 -->
      <g transform="translate(64.268591 248.544957) scale(0.2 -0.2)">
       <use xlink:href="#DejaVuSans-30"/>
       <use xlink:href="#DejaVuSans-2e" x="63.623047"/>
       <use xlink:href="#DejaVuSans-35" x="95.410156"/>
      </g>
     </g>
    </g>
    <g id="ytick_4">
     <g id="line2d_20">
      <g>
       <use xlink:href="#md904028059" x="103.074841" y="175.850195" style="stroke: #000000; stroke-width: 0.8"/>
      </g>
     </g>
     <g id="text_20">
      <!-- 1.0 -->
      <g transform="translate(64.268591 183.448633) scale(0.2 -0.2)">
       <use xlink:href="#DejaVuSans-31"/>
       <use xlink:href="#DejaVuSans-2e" x="63.623047"/>
       <use xlink:href="#DejaVuSans-30" x="95.410156"/>
      </g>
     </g>
    </g>
    <g id="ytick_5">
     <g id="line2d_21">
      <g>
       <use xlink:href="#md904028059" x="103.074841" y="110.75387" style="stroke: #000000; stroke-width: 0.8"/>
      </g>
     </g>
     <g id="text_21">
      <!-- 1.5 -->
      <g transform="translate(64.268591 118.352308) scale(0.2 -0.2)">
       <use xlink:href="#DejaVuSans-31"/>
       <use xlink:href="#DejaVuSans-2e" x="63.623047"/>
       <use xlink:href="#DejaVuSans-35" x="95.410156"/>
      </g>
     </g>
    </g>
    <g id="ytick_6">
     <g id="line2d_22">
      <g>
       <use xlink:href="#md904028059" x="103.074841" y="45.657545" style="stroke: #000000; stroke-width: 0.8"/>
      </g>
     </g>
     <g id="text_22">
      <!-- 2.0 -->
      <g transform="translate(64.268591 53.255983) scale(0.2 -0.2)">
       <use xlink:href="#DejaVuSans-32"/>
       <use xlink:href="#DejaVuSans-2e" x="63.623047"/>
       <use xlink:href="#DejaVuSans-30" x="95.410156"/>
      </g>
     </g>
    </g>
   </g>
   <g id="line2d_23">
    <path d="M 0 0 
" clip-path="url(#p4d03d11024)" style="fill: none; stroke: #ffa500; stroke-width: 1.5; stroke-linecap: square"/>
   </g>
   <g id="line2d_24">
    <path d="M 103.074841 306.042845 
L 948.274841 306.042845 
" clip-path="url(#p4d03d11024)" style="fill: none; stroke-dasharray: 7.4,3.2; stroke-dashoffset: 0; stroke: #000000; stroke-width: 2"/>
   </g>
   <g id="patch_3">
    <path d="M 103.074841 395.28 
L 103.074841 7.2 
" style="fill: none; stroke: #000000; stroke-width: 0.8; stroke-linejoin: miter; stroke-linecap: square"/>
   </g>
   <g id="patch_4">
    <path d="M 940.074841 395.28 
L 940.074841 7.2 
" style="fill: none; stroke: #000000; stroke-width: 0.8; stroke-linejoin: miter; stroke-linecap: square"/>
   </g>
   <g id="patch_5">
    <path d="M 103.074841 395.28 
L 940.074841 395.28 
" style="fill: none; stroke: #000000; stroke-width: 0.8; stroke-linejoin: miter; stroke-linecap: square"/>
   </g>
   <g id="patch_6">
    <path d="M 103.074841 7.2 
L 940.074841 7.2 
" style="fill: none; stroke: #000000; stroke-width: 0.8; stroke-linejoin: miter; stroke-linecap: square"/>
   </g>
  </g>
 </g>
 <defs>
  <clipPath id="p4d03d11024">
   <rect x="103.074841" y="7.2" width="837" height="388.08"/>
  </clipPath>
 </defs>
</svg>
