<?xml version="1.0" encoding="utf-8" standalone="no"?>
<!DOCTYPE svg PUBLIC "-//W3C//DTD SVG 1.1//EN"
  "http://www.w3.org/Graphics/SVG/1.1/DTD/svg11.dtd">
<svg xmlns:xlink="http://www.w3.org/1999/xlink" width="947.274841pt" height="505.354841pt" viewBox="0 0 947.274841 505.354841" xmlns="http://www.w3.org/2000/svg" version="1.1">
 <metadata>
  <rdf:RDF xmlns:dc="http://purl.org/dc/elements/1.1/" xmlns:cc="http://creativecommons.org/ns#" xmlns:rdf="http://www.w3.org/1999/02/22-rdf-syntax-ns#">
   <cc:Work>
    <dc:type rdf:resource="http://purl.org/dc/dcmitype/StillImage"/>
    <dc:date>2023-11-15T19:57:24.790513</dc:date>
    <dc:format>image/svg+xml</dc:format>
    <dc:creator>
     <cc:Agent>
      <dc:title>Matplotlib v3.7.2, https://matplotlib.org/</dc:title>
     </cc:Agent>
    </dc:creator>
   </cc:Work>
  </rdf:RDF>
 </metadata>
 <defs>
  <style type="text/css">*{stroke-linejoin: round; stroke-linecap: butt}</style>
 </defs>
 <g id="figure_1">
  <g id="patch_1">
   <path d="M 0 505.354841 
L 947.274841 505.354841 
L 947.274841 -0 
L 0 -0 
z
" style="fill: #ffffff"/>
  </g>
  <g id="axes_1">
   <g id="patch_2">
    <path d="M 103.074841 395.28 
L 940.074841 395.28 
L 940.074841 7.2 
L 103.074841 7.2 
z
" style="fill: #ffffff"/>
   </g>
   <g id="PolyCollection_1">
    <path d="M -393.000769 256.912675 
L -393.000769 256.926518 
L -390.959306 256.856042 
L -388.917842 256.79498 
L -386.876379 256.717495 
L -384.834915 256.665794 
L -382.793452 256.603495 
L -380.751989 256.536292 
L -378.710525 256.469791 
L -376.669062 256.407341 
L -374.627598 256.352465 
L -372.586135 256.289056 
L -370.544672 256.222705 
L -368.503208 256.158274 
L -366.461745 256.079343 
L -364.420281 256.013849 
L -362.378818 255.936878 
L -360.337354 255.870998 
L -358.295891 255.782247 
L -356.254428 255.709228 
L -354.212964 255.638879 
L -352.171501 255.55575 
L -350.130037 255.47471 
L -348.088574 255.395474 
L -346.047111 255.299968 
L -344.005647 255.216361 
L -341.964184 255.118576 
L -339.92272 255.019585 
L -337.881257 254.910148 
L -335.839793 254.797737 
L -333.79833 254.687782 
L -331.756867 254.560664 
L -329.715403 254.417297 
L -327.67394 254.289745 
L -325.632476 254.144662 
L -323.591013 253.978913 
L -321.54955 253.824677 
L -319.508086 253.643795 
L -317.466623 253.460261 
L -315.425159 253.271172 
L -313.383696 253.071404 
L -311.342232 252.849913 
L -309.300769 252.614064 
L -307.259306 252.364178 
L -305.217842 252.123531 
L -303.176379 251.840668 
L -301.134915 251.571958 
L -299.093452 251.285632 
L -297.051989 250.998363 
L -295.010525 250.688972 
L -292.969062 250.354126 
L -290.927598 250.044349 
L -288.886135 249.699189 
L -286.844672 249.342186 
L -284.803208 248.992547 
L -282.761745 248.646735 
L -280.720281 248.271317 
L -278.678818 247.891935 
L -276.637354 247.513242 
L -274.595891 247.119156 
L -272.554428 246.720751 
L -270.512964 246.323266 
L -268.471501 245.912033 
L -266.430037 245.499841 
L -264.388574 245.094079 
L -262.347111 244.671441 
L -260.305647 244.219043 
L -258.264184 243.780827 
L -256.22272 243.343719 
L -254.181257 242.913551 
L -252.139793 242.465472 
L -250.09833 242.027852 
L -248.056867 241.582652 
L -246.015403 241.181119 
L -243.97394 240.707663 
L -241.932476 240.297507 
L -239.891013 239.847801 
L -237.84955 239.419552 
L -235.808086 238.972044 
L -233.766623 238.575038 
L -231.725159 238.11878 
L -229.683696 237.690014 
L -227.642232 237.28724 
L -225.600769 236.855332 
L -223.559306 236.446405 
L -221.517842 236.018389 
L -219.476379 235.582379 
L -217.434915 235.169468 
L -215.393452 234.764962 
L -213.351989 234.328952 
L -211.310525 233.909711 
L -209.269062 233.48516 
L -207.227598 233.069953 
L -205.186135 232.664461 
L -203.144672 232.247633 
L -201.103208 231.82663 
L -199.061745 231.447385 
L -197.020281 231.017805 
L -194.978818 230.606059 
L -192.937354 230.200902 
L -190.895891 229.795168 
L -188.854428 229.390388 
L -186.812964 228.98029 
L -184.771501 228.588909 
L -182.730037 228.181733 
L -180.688574 227.764416 
L -178.647111 227.34239 
L -176.605647 226.915753 
L -174.564184 226.515887 
L -172.52272 226.076242 
L -170.481257 225.607811 
L -168.439793 225.167481 
L -166.39833 224.703329 
L -164.356867 224.232138 
L -162.315403 223.734909 
L -160.27394 223.228839 
L -158.232476 222.758084 
L -156.191013 222.221838 
L -154.14955 221.711754 
L -152.108086 221.163241 
L -150.066623 220.659053 
L -148.025159 220.067455 
L -145.983696 219.487603 
L -143.942232 218.923657 
L -141.900769 218.349841 
L -139.859306 217.758391 
L -137.817842 217.140552 
L -135.776379 216.561116 
L -133.734915 215.898539 
L -131.693452 215.314986 
L -129.651989 214.633003 
L -127.610525 213.971867 
L -125.569062 213.326102 
L -123.527598 212.706216 
L -121.486135 211.983966 
L -119.444672 211.330796 
L -117.403208 210.502239 
L -115.361745 209.788196 
L -113.320281 209.122229 
L -111.278818 208.371147 
L -109.237354 207.600753 
L -107.195891 206.714609 
L -105.154428 205.883579 
L -103.112964 205.188464 
L -101.071501 204.093149 
L -99.030037 203.211369 
L -96.988574 202.310174 
L -94.947111 201.375582 
L -92.905647 200.312764 
L -90.864184 199.312292 
L -88.82272 198.553435 
L -86.781257 197.589322 
L -84.739793 196.015771 
L -82.69833 194.689848 
L -80.656867 193.705509 
L -78.615403 192.34859 
L -76.57394 191.219369 
L -74.532476 190.233153 
L -72.491013 188.745771 
L -70.44955 187.056171 
L -68.408086 185.893319 
L -66.366623 185.17098 
L -64.325159 183.989193 
L -62.283696 183.601719 
L -60.242232 182.858267 
L -58.200769 181.434143 
L -56.159306 181.539512 
L -54.117842 182.11128 
L -52.076379 183.328851 
L -50.034915 181.940991 
L -47.993452 184.659365 
L -45.951989 185.251488 
L -43.910525 181.559175 
L -41.869062 182.585015 
L -39.827598 184.196272 
L -37.786135 183.216998 
L -35.744672 183.001324 
L -33.703208 189.968536 
L -31.661745 199.873503 
L -29.620281 204.782952 
L -27.578818 193.966149 
L -25.537354 199.472215 
L -23.495891 206.691168 
L -21.454428 206.225304 
L -19.412964 220.948821 
L -17.371501 218.875781 
L -15.330037 214.300289 
L -13.288574 203.048502 
L -11.247111 213.527484 
L -9.205647 219.804814 
L -7.164184 217.102094 
L -5.12272 218.69708 
L -3.081257 224.613588 
L -1.039793 223.752863 
L 1.00167 218.538448 
L 3.043133 224.948295 
L 5.084597 226.164183 
L 7.12606 223.782419 
L 9.167524 227.822216 
L 11.208987 229.25137 
L 13.25045 228.773385 
L 15.291914 227.452337 
L 17.333377 228.728149 
L 19.374841 227.272825 
L 21.416304 227.315701 
L 23.457768 228.526912 
L 25.499231 227.242624 
L 27.540694 227.8013 
L 29.582158 227.767449 
L 31.623621 226.717169 
L 33.665085 227.009706 
L 35.706548 225.529107 
L 37.748011 225.55826 
L 39.789475 225.889664 
L 41.830938 225.854605 
L 43.872402 225.110395 
L 45.913865 224.466867 
L 47.955328 224.270752 
L 49.996792 223.572956 
L 52.038255 223.426333 
L 54.079719 223.264873 
L 56.121182 222.240411 
L 58.162646 222.679467 
L 60.204109 222.006782 
L 62.245572 221.71221 
L 64.287036 221.726348 
L 66.328499 221.088482 
L 68.369963 220.93811 
L 70.411426 221.176792 
L 72.452889 221.567719 
L 74.494353 220.566096 
L 76.535816 220.439236 
L 78.57728 220.151656 
L 80.618743 222.036923 
L 82.660207 222.178947 
L 84.70167 222.997249 
L 86.743133 221.395507 
L 88.784597 220.451095 
L 90.82606 220.912567 
L 92.867524 222.249157 
L 94.908987 222.614758 
L 96.95045 220.690003 
L 98.991914 222.634146 
L 101.033377 222.389827 
L 103.074841 222.306884 
L 105.116304 221.555153 
L 107.157768 222.566785 
L 109.199231 222.339772 
L 111.240694 223.039959 
L 113.282158 222.686731 
L 115.323621 222.47376 
L 117.365085 221.8706 
L 119.406548 221.739586 
L 121.448011 221.655479 
L 123.489475 221.437222 
L 125.530938 221.653645 
L 127.572402 221.509989 
L 129.613865 221.345509 
L 131.655328 220.318544 
L 133.696792 219.627126 
L 135.738255 219.527906 
L 137.779719 218.750709 
L 139.821182 218.92018 
L 141.862646 218.324702 
L 143.904109 217.255215 
L 145.945572 216.434106 
L 147.987036 215.925683 
L 150.028499 214.811288 
L 152.069963 214.308957 
L 154.111426 213.383547 
L 156.152889 212.623484 
L 158.194353 211.56016 
L 160.235816 210.762498 
L 162.27728 209.526466 
L 164.318743 208.653865 
L 166.360207 207.676552 
L 168.40167 206.225047 
L 170.443133 204.910343 
L 172.484597 204.083335 
L 174.52606 202.977113 
L 176.567524 201.536575 
L 178.608987 200.59705 
L 180.65045 199.344795 
L 182.691914 197.325073 
L 184.733377 196.750925 
L 186.774841 195.120683 
L 188.816304 193.957717 
L 190.857768 192.565478 
L 192.899231 191.078595 
L 194.940694 189.605816 
L 196.982158 188.320279 
L 199.023621 186.39125 
L 201.065085 185.423065 
L 203.106548 183.564096 
L 205.148011 182.579218 
L 207.189475 180.671979 
L 209.230938 178.878696 
L 211.272402 177.402855 
L 213.313865 176.363136 
L 215.355328 174.244365 
L 217.396792 173.022294 
L 219.438255 171.211735 
L 221.479719 169.856159 
L 223.521182 167.91383 
L 225.562646 166.289694 
L 227.604109 166.611919 
L 229.645572 163.019434 
L 231.687036 163.024515 
L 233.728499 161.101499 
L 235.769963 159.976808 
L 237.811426 158.528789 
L 239.852889 156.93611 
L 241.894353 155.548889 
L 243.935816 154.221792 
L 245.97728 152.998794 
L 248.018743 151.755796 
L 250.060207 153.682643 
L 252.10167 148.900438 
L 254.143133 148.089196 
L 256.184597 152.919777 
L 258.22606 146.997311 
L 260.267524 148.506697 
L 262.308987 148.22476 
L 264.35045 145.301056 
L 266.391914 146.238975 
L 268.433377 149.807586 
L 270.474841 147.756812 
L 272.516304 146.961824 
L 274.557768 149.236937 
L 276.599231 148.728809 
L 278.640694 150.329397 
L 280.682158 152.42632 
L 282.723621 155.746397 
L 284.765085 163.29335 
L 286.806548 161.72506 
L 288.848011 165.840844 
L 290.889475 169.246676 
L 292.930938 171.099398 
L 294.972402 175.376062 
L 297.013865 178.0917 
L 299.055328 173.04707 
L 301.096792 177.949841 
L 303.138255 184.571652 
L 305.179719 187.663719 
L 307.221182 188.636768 
L 309.262646 197.096718 
L 311.304109 197.604651 
L 313.345572 199.362431 
L 315.387036 198.951179 
L 317.428499 205.993915 
L 319.469963 203.472791 
L 321.511426 202.096712 
L 323.552889 208.205887 
L 325.594353 213.710994 
L 327.635816 213.035923 
L 329.67728 216.232923 
L 331.718743 217.158207 
L 333.760207 217.194253 
L 335.80167 217.024129 
L 337.843133 218.729458 
L 339.884597 219.623485 
L 341.92606 225.291545 
L 343.967524 222.157149 
L 346.008987 227.084928 
L 348.05045 225.805045 
L 350.091914 224.989419 
L 352.133377 226.922439 
L 354.174841 228.640383 
L 356.216304 226.218994 
L 358.257768 227.26813 
L 360.299231 227.26045 
L 362.340694 229.944325 
L 364.382158 228.519035 
L 366.423621 227.83081 
L 368.465085 228.583117 
L 370.506548 229.876748 
L 372.548011 229.207655 
L 374.589475 227.88286 
L 376.630938 228.630254 
L 378.672402 226.64754 
L 380.713865 226.887767 
L 382.755328 230.220995 
L 384.796792 230.081646 
L 386.838255 228.291487 
L 388.879719 227.90727 
L 390.921182 228.206086 
L 392.962646 226.297651 
L 395.004109 226.882996 
L 397.045572 226.988578 
L 399.087036 226.684642 
L 401.128499 226.274194 
L 403.169963 225.173022 
L 405.211426 226.044054 
L 407.252889 225.361737 
L 409.294353 225.333329 
L 411.335816 225.0482 
L 413.37728 225.25429 
L 415.418743 224.463789 
L 417.460207 222.909485 
L 419.50167 222.987373 
L 421.543133 221.745079 
L 423.584597 219.88233 
L 425.62606 221.496144 
L 427.667524 218.894268 
L 429.708987 220.167398 
L 431.75045 219.770369 
L 433.791914 220.077348 
L 435.833377 218.457727 
L 437.874841 218.497513 
L 439.916304 218.501422 
L 441.957768 216.267806 
L 443.999231 217.155155 
L 446.040694 217.100026 
L 448.082158 217.19838 
L 450.123621 216.319602 
L 452.165085 216.952069 
L 454.206548 216.182406 
L 456.248011 215.563754 
L 458.289475 213.955373 
L 460.330938 213.53065 
L 462.372402 213.279928 
L 464.413865 212.690641 
L 466.455328 212.917711 
L 468.496792 212.584835 
L 470.538255 211.688642 
L 472.579719 211.970024 
L 474.621182 211.22722 
L 476.662646 211.704277 
L 478.704109 211.461068 
L 480.745572 211.819179 
L 482.787036 210.698215 
L 484.828499 208.377467 
L 486.869963 210.719353 
L 488.911426 210.714886 
L 490.952889 210.258168 
L 492.994353 209.929823 
L 495.035816 208.856026 
L 497.07728 208.841554 
L 499.118743 208.084962 
L 501.160207 208.303509 
L 503.20167 208.063664 
L 505.243133 206.822448 
L 507.284597 205.527655 
L 509.32606 207.591273 
L 511.367524 207.186644 
L 513.408987 205.612268 
L 515.45045 206.441395 
L 517.491914 204.174496 
L 519.533377 203.794247 
L 521.574841 204.340335 
L 523.616304 202.603904 
L 525.657768 205.564141 
L 527.699231 202.735075 
L 529.740694 200.914555 
L 531.782158 202.414724 
L 533.823621 203.057111 
L 535.865085 202.469544 
L 537.906548 203.396144 
L 539.948011 201.873797 
L 541.989475 204.280177 
L 544.030938 202.518239 
L 546.072402 202.897638 
L 548.113865 201.649888 
L 550.155328 200.028641 
L 552.196792 202.065094 
L 554.238255 205.684309 
L 556.279719 201.311927 
L 558.321182 201.79599 
L 560.362646 199.994252 
L 562.404109 201.289184 
L 564.445572 200.346736 
L 566.487036 199.502815 
L 568.528499 198.934585 
L 570.569963 200.892687 
L 572.611426 200.022724 
L 574.652889 201.477304 
L 576.694353 201.601675 
L 578.735816 196.706957 
L 580.77728 198.980806 
L 582.818743 198.91716 
L 584.860207 199.36573 
L 586.90167 199.755079 
L 588.943133 203.092177 
L 590.984597 204.446148 
L 593.02606 204.33841 
L 595.067524 207.958765 
L 597.108987 213.92772 
L 599.15045 206.890933 
L 601.191914 206.788555 
L 603.233377 206.909391 
L 605.274841 209.261502 
L 607.316304 209.773124 
L 609.357768 209.743491 
L 611.399231 214.861434 
L 613.440694 216.732085 
L 615.482158 210.925094 
L 617.523621 216.225166 
L 619.565085 213.661542 
L 621.606548 212.096681 
L 623.648011 218.550191 
L 625.689475 217.36506 
L 627.730938 221.571203 
L 629.772402 220.468174 
L 631.813865 217.819396 
L 633.855328 220.550361 
L 635.896792 220.679991 
L 637.938255 223.400821 
L 639.979719 221.973582 
L 642.021182 226.438353 
L 644.062646 223.590137 
L 646.104109 226.00123 
L 648.145572 225.781316 
L 650.187036 228.403633 
L 652.228499 224.654635 
L 654.269963 229.065469 
L 656.311426 229.016378 
L 658.352889 232.095671 
L 660.394353 233.841053 
L 662.435816 234.045498 
L 664.47728 233.480462 
L 666.518743 235.54048 
L 668.560207 237.133141 
L 670.60167 236.06937 
L 672.643133 235.795757 
L 674.684597 237.661501 
L 676.72606 239.323877 
L 678.767524 236.947433 
L 680.808987 235.653982 
L 682.85045 241.702713 
L 684.891914 245.611726 
L 686.933377 238.731083 
L 688.974841 240.654417 
L 691.016304 241.697123 
L 693.057768 242.299707 
L 695.099231 245.484313 
L 697.140694 245.660264 
L 699.182158 244.141115 
L 701.223621 245.611456 
L 703.265085 246.64108 
L 705.306548 242.953732 
L 707.348011 244.681102 
L 709.389475 243.824348 
L 711.430938 250.866702 
L 713.472402 260.976378 
L 715.513865 259.238719 
L 717.555328 251.235115 
L 719.596792 250.586177 
L 721.638255 251.180703 
L 723.679719 250.776853 
L 725.721182 259.658143 
L 727.762646 250.741298 
L 729.804109 260.837546 
L 731.845572 268.947238 
L 733.887036 262.148056 
L 735.928499 274.259642 
L 737.969963 265.53754 
L 740.011426 274.293349 
L 742.052889 269.812805 
L 744.094353 272.387131 
L 746.135816 278.448701 
L 748.17728 278.491627 
L 750.218743 280.574105 
L 752.260207 280.625413 
L 754.30167 281.352599 
L 756.343133 265.574276 
L 758.384597 287.501167 
L 760.42606 296.053883 
L 762.467524 288.317147 
L 764.508987 293.16859 
L 766.55045 298.584354 
L 768.591914 291.816596 
L 770.633377 300.062892 
L 772.674841 306.65112 
L 774.716304 303.081596 
L 776.757768 306.832841 
L 778.799231 308.824557 
L 780.840694 310.061094 
L 782.882158 312.16115 
L 784.923621 303.383469 
L 786.965085 321.061152 
L 789.006548 321.465959 
L 791.048011 321.626211 
L 793.089475 310.468604 
L 795.130938 325.614924 
L 797.172402 333.843914 
L 799.213865 326.730666 
L 801.255328 326.913481 
L 803.296792 340.497722 
L 805.338255 315.591366 
L 807.379719 338.37039 
L 809.421182 322.016688 
L 811.462646 345.953262 
L 813.504109 336.510548 
L 815.545572 345.73016 
L 817.587036 348.459858 
L 819.628499 351.082723 
L 821.669963 352.27836 
L 823.711426 347.329063 
L 825.752889 348.402251 
L 827.794353 353.614188 
L 829.835816 359.668224 
L 831.87728 360.01794 
L 833.918743 359.395958 
L 835.960207 365.497363 
L 838.00167 365.449461 
L 840.043133 361.001917 
L 842.084597 360.32857 
L 844.12606 371.55525 
L 846.167524 372.4057 
L 848.208987 374.600886 
L 850.25045 368.822122 
L 852.291914 355.481927 
L 854.333377 369.572242 
L 856.374841 365.806883 
L 858.416304 369.337381 
L 860.457768 374.147456 
L 862.499231 367.484757 
L 864.540694 376.078358 
L 866.582158 368.923164 
L 868.623621 368.616933 
L 870.665085 369.318038 
L 872.706548 374.432775 
L 874.748011 373.819922 
L 876.789475 372.674376 
L 878.830938 367.159527 
L 880.872402 370.118476 
L 882.913865 372.318808 
L 884.955328 369.834684 
L 886.996792 373.981194 
L 889.038255 370.568921 
L 891.079719 373.262489 
L 893.121182 377.64 
L 895.162646 376.885179 
L 897.204109 372.43619 
L 899.245572 372.512636 
L 901.287036 371.657592 
L 903.328499 373.636491 
L 905.369963 373.532812 
L 907.411426 366.269898 
L 909.452889 371.926349 
L 911.494353 338.058776 
L 913.535816 371.882967 
L 915.57728 374.133663 
L 917.618743 369.123763 
L 919.660207 363.936762 
L 921.70167 373.795508 
L 923.743133 369.295766 
L 925.784597 361.466627 
L 927.82606 366.316368 
L 929.867524 366.364146 
L 931.908987 364.173727 
L 933.95045 368.778463 
L 935.991914 365.224943 
L 938.033377 366.910231 
L 940.074841 367.888603 
L 940.074841 271.569764 
L 940.074841 271.569764 
L 938.033377 275.31912 
L 935.991914 274.334847 
L 933.95045 276.210005 
L 931.908987 274.413813 
L 929.867524 275.834965 
L 927.82606 275.327267 
L 925.784597 276.397854 
L 923.743133 279.428356 
L 921.70167 280.250474 
L 919.660207 278.903063 
L 917.618743 279.773318 
L 915.57728 283.084572 
L 913.535816 281.703967 
L 911.494353 276.529212 
L 909.452889 283.294467 
L 907.411426 282.723869 
L 905.369963 284.730119 
L 903.328499 285.339393 
L 901.287036 285.256091 
L 899.245572 286.665168 
L 897.204109 287.101771 
L 895.162646 288.880825 
L 893.121182 289.690429 
L 891.079719 289.28049 
L 889.038255 288.953106 
L 886.996792 289.984151 
L 884.955328 288.87152 
L 882.913865 290.012128 
L 880.872402 290.136802 
L 878.830938 289.665228 
L 876.789475 292.10421 
L 874.748011 292.88041 
L 872.706548 294.075032 
L 870.665085 291.956738 
L 868.623621 292.543868 
L 866.582158 293.289754 
L 864.540694 295.857425 
L 862.499231 293.304471 
L 860.457768 295.983075 
L 858.416304 294.549341 
L 856.374841 293.755819 
L 854.333377 295.349731 
L 852.291914 291.457811 
L 850.25045 295.498586 
L 848.208987 298.315197 
L 846.167524 297.844146 
L 844.12606 297.647343 
L 842.084597 294.723226 
L 840.043133 294.652692 
L 838.00167 296.493946 
L 835.960207 296.540745 
L 833.918743 294.637898 
L 831.87728 294.885419 
L 829.835816 295.391557 
L 827.794353 292.067052 
L 825.752889 291.120999 
L 823.711426 291.037356 
L 821.669963 293.068384 
L 819.628499 292.681894 
L 817.587036 291.297617 
L 815.545572 290.286346 
L 813.504109 287.015528 
L 811.462646 290.506664 
L 809.421182 283.029789 
L 807.379719 288.315427 
L 805.338255 279.770605 
L 803.296792 288.87739 
L 801.255328 283.639576 
L 799.213865 283.17251 
L 797.172402 286.916905 
L 795.130938 283.164585 
L 793.089475 277.479611 
L 791.048011 282.037728 
L 789.006548 281.688796 
L 786.965085 281.467313 
L 784.923621 273.997337 
L 782.882158 279.906564 
L 780.840694 276.927037 
L 778.799231 275.950332 
L 776.757768 275.302194 
L 774.716304 274.219589 
L 772.674841 275.645626 
L 770.633377 272.983827 
L 768.591914 269.01337 
L 766.55045 270.962391 
L 764.508987 270.165401 
L 762.467524 266.679378 
L 760.42606 270.37968 
L 758.384597 266.467474 
L 756.343133 256.573536 
L 754.30167 264.163293 
L 752.260207 263.790654 
L 750.218743 263.511299 
L 748.17728 262.508901 
L 746.135816 262.637414 
L 744.094353 259.584921 
L 742.052889 257.844892 
L 740.011426 259.990337 
L 737.969963 256.598412 
L 735.928499 260.351378 
L 733.887036 253.864039 
L 731.845572 258.251052 
L 729.804109 253.147395 
L 727.762646 246.766772 
L 725.721182 252.646123 
L 723.679719 246.640503 
L 721.638255 247.011255 
L 719.596792 245.767561 
L 717.555328 246.414005 
L 715.513865 252.13587 
L 713.472402 253.083953 
L 711.430938 246.044273 
L 709.389475 238.582237 
L 707.348011 240.181821 
L 705.306548 237.94193 
L 703.265085 243.101483 
L 701.223621 242.133396 
L 699.182158 240.209286 
L 697.140694 241.727625 
L 695.099231 242.249999 
L 693.057768 237.397687 
L 691.016304 236.981371 
L 688.974841 234.957593 
L 686.933377 232.070255 
L 684.891914 241.844424 
L 682.85045 236.610861 
L 680.808987 226.960129 
L 678.767524 230.459199 
L 676.72606 234.031327 
L 674.684597 231.288307 
L 672.643133 228.770377 
L 670.60167 229.770101 
L 668.560207 232.805734 
L 666.518743 228.785179 
L 664.47728 226.355887 
L 662.435816 227.804339 
L 660.394353 225.090303 
L 658.352889 224.906303 
L 656.311426 218.961609 
L 654.269963 220.35612 
L 652.228499 213.056851 
L 650.187036 218.710981 
L 648.145572 215.473639 
L 646.104109 216.569815 
L 644.062646 213.812987 
L 642.021182 217.517234 
L 639.979719 210.812656 
L 637.938255 213.8904 
L 635.896792 209.711604 
L 633.855328 209.988432 
L 631.813865 206.488068 
L 629.772402 208.360138 
L 627.730938 212.276215 
L 625.689475 207.292045 
L 623.648011 208.24597 
L 621.606548 199.536993 
L 619.565085 203.050684 
L 617.523621 205.172757 
L 615.482158 198.501726 
L 613.440694 206.115961 
L 611.399231 205.81707 
L 609.357768 197.680488 
L 607.316304 197.900353 
L 605.274841 197.15008 
L 603.233377 194.094352 
L 601.191914 195.90387 
L 599.15045 195.359724 
L 597.108987 205.015132 
L 595.067524 197.874963 
L 593.02606 192.855453 
L 590.984597 192.801862 
L 588.943133 191.287281 
L 586.90167 187.789145 
L 584.860207 188.480581 
L 582.818743 186.318976 
L 580.77728 188.043259 
L 578.735816 184.984766 
L 576.694353 190.492277 
L 574.652889 190.774161 
L 572.611426 188.974265 
L 570.569963 189.873304 
L 568.528499 187.084743 
L 566.487036 188.319832 
L 564.445572 188.992128 
L 562.404109 190.727506 
L 560.362646 188.380922 
L 558.321182 190.84735 
L 556.279719 189.880105 
L 554.238255 194.901502 
L 552.196792 190.567167 
L 550.155328 187.996272 
L 548.113865 189.913836 
L 546.072402 190.772062 
L 544.030938 190.341056 
L 541.989475 193.017371 
L 539.948011 189.687652 
L 537.906548 191.543337 
L 535.865085 190.093454 
L 533.823621 190.447314 
L 531.782158 189.152975 
L 529.740694 187.382179 
L 527.699231 189.797875 
L 525.657768 192.963226 
L 523.616304 189.138518 
L 521.574841 191.051 
L 519.533377 189.935888 
L 517.491914 190.736854 
L 515.45045 193.444158 
L 513.408987 192.193168 
L 511.367524 194.251868 
L 509.32606 194.61997 
L 507.284597 191.873809 
L 505.243133 193.243394 
L 503.20167 194.721414 
L 501.160207 195.077654 
L 499.118743 194.873268 
L 497.07728 195.796469 
L 495.035816 195.477043 
L 492.994353 196.987906 
L 490.952889 197.328237 
L 488.911426 197.542162 
L 486.869963 197.715823 
L 484.828499 194.391513 
L 482.787036 197.609754 
L 480.745572 198.828848 
L 478.704109 198.208051 
L 476.662646 198.019316 
L 474.621182 197.740217 
L 472.579719 198.400561 
L 470.538255 197.773423 
L 468.496792 198.904804 
L 466.455328 199.087594 
L 464.413865 198.408969 
L 462.372402 198.59773 
L 460.330938 198.961724 
L 458.289475 199.343275 
L 456.248011 201.486619 
L 454.206548 201.691326 
L 452.165085 202.503943 
L 450.123621 201.458679 
L 448.082158 202.200204 
L 446.040694 201.855669 
L 443.999231 201.743787 
L 441.957768 199.960533 
L 439.916304 203.017024 
L 437.874841 202.792355 
L 435.833377 202.471925 
L 433.791914 204.042639 
L 431.75045 203.297067 
L 429.708987 203.573639 
L 427.667524 201.847642 
L 425.62606 204.154754 
L 423.584597 202.607017 
L 421.543133 204.778309 
L 419.50167 206.109554 
L 417.460207 205.982114 
L 415.418743 207.814292 
L 413.37728 209.084905 
L 411.335816 208.276761 
L 409.294353 208.764785 
L 407.252889 208.373924 
L 405.211426 209.250579 
L 403.169963 208.050812 
L 401.128499 209.576621 
L 399.087036 210.542024 
L 397.045572 210.832496 
L 395.004109 210.730855 
L 392.962646 210.522816 
L 390.921182 212.298771 
L 388.879719 212.226274 
L 386.838255 213.105884 
L 384.796792 214.71922 
L 382.755328 214.838309 
L 380.713865 212.272662 
L 378.672402 212.332668 
L 376.630938 214.247777 
L 374.589475 214.020534 
L 372.548011 215.212184 
L 370.506548 215.954813 
L 368.465085 214.843561 
L 366.423621 215.149675 
L 364.382158 215.663749 
L 362.340694 216.938425 
L 360.299231 214.674819 
L 358.257768 215.108494 
L 356.216304 214.748999 
L 354.174841 216.791406 
L 352.133377 216.154703 
L 350.091914 214.494291 
L 348.05045 215.449174 
L 346.008987 216.451897 
L 343.967524 212.699043 
L 341.92606 215.583012 
L 339.884597 211.242404 
L 337.843133 210.799351 
L 335.80167 209.515636 
L 333.760207 210.173702 
L 331.718743 210.182724 
L 329.67728 209.239674 
L 327.635816 206.739409 
L 325.594353 207.937192 
L 323.552889 202.758346 
L 321.511426 197.142625 
L 319.469963 198.360508 
L 317.428499 200.896114 
L 315.387036 193.598454 
L 313.345572 193.85943 
L 311.304109 191.958855 
L 309.262646 191.316667 
L 307.221182 180.990009 
L 305.179719 179.616034 
L 303.138255 175.821448 
L 301.096792 167.747757 
L 299.055328 161.397957 
L 297.013865 167.751697 
L 294.972402 164.234085 
L 292.930938 158.683148 
L 290.889475 156.326054 
L 288.848011 152.32695 
L 286.806548 147.038524 
L 284.765085 148.878666 
L 282.723621 139.808705 
L 280.682158 134.96832 
L 278.640694 132.710869 
L 276.599231 130.812533 
L 274.557768 131.580845 
L 272.516304 129.250723 
L 270.474841 130.909027 
L 268.433377 133.149268 
L 266.391914 128.801142 
L 264.35045 128.199791 
L 262.308987 131.960278 
L 260.267524 132.631863 
L 258.22606 130.862202 
L 256.184597 138.778715 
L 254.143133 132.787362 
L 252.10167 134.46333 
L 250.060207 140.400026 
L 248.018743 138.361543 
L 245.97728 140.337111 
L 243.935816 142.062777 
L 241.894353 144.138704 
L 239.852889 146.085118 
L 237.811426 148.323593 
L 235.769963 150.359356 
L 233.728499 151.945837 
L 231.687036 154.688419 
L 229.645572 155.038298 
L 227.604109 159.638715 
L 225.562646 159.077803 
L 223.521182 160.534277 
L 221.479719 162.240213 
L 219.438255 163.369222 
L 217.396792 164.956676 
L 215.355328 166.05349 
L 213.313865 167.977124 
L 211.272402 168.870688 
L 209.230938 170.123328 
L 207.189475 171.722445 
L 205.148011 173.377686 
L 203.106548 174.138816 
L 201.065085 175.733402 
L 199.023621 176.62672 
L 196.982158 178.303148 
L 194.940694 179.473335 
L 192.899231 180.644745 
L 190.857768 182.01384 
L 188.816304 183.170741 
L 186.774841 184.074689 
L 184.733377 185.421389 
L 182.691914 185.82864 
L 180.65045 187.640485 
L 178.608987 188.692867 
L 176.567524 189.561521 
L 174.52606 190.751724 
L 172.484597 191.276699 
L 170.443133 192.280213 
L 168.40167 193.325713 
L 166.360207 194.539218 
L 164.318743 195.352018 
L 162.27728 196.155484 
L 160.235816 197.083659 
L 158.194353 197.969128 
L 156.152889 198.963893 
L 154.111426 199.667538 
L 152.069963 200.484455 
L 150.028499 201.070845 
L 147.987036 202.082823 
L 145.945572 202.685505 
L 143.904109 203.441388 
L 141.862646 204.500222 
L 139.821182 205.102684 
L 137.779719 204.981924 
L 135.738255 205.815842 
L 133.696792 206.047348 
L 131.655328 206.852738 
L 129.613865 207.860291 
L 127.572402 208.197009 
L 125.530938 208.504578 
L 123.489475 208.287086 
L 121.448011 208.66149 
L 119.406548 208.760283 
L 117.365085 208.903655 
L 115.323621 209.60332 
L 113.282158 209.892114 
L 111.240694 210.448707 
L 109.199231 209.699313 
L 107.157768 209.910875 
L 105.116304 208.921657 
L 103.074841 209.865563 
L 101.033377 209.825457 
L 98.991914 210.475102 
L 96.95045 208.465887 
L 94.908987 210.49783 
L 92.867524 210.151975 
L 90.82606 208.738415 
L 88.784597 208.286461 
L 86.743133 209.299426 
L 84.70167 211.141394 
L 82.660207 210.25751 
L 80.618743 210.11786 
L 78.57728 208.054955 
L 76.535816 207.970088 
L 74.494353 208.484027 
L 72.452889 209.646298 
L 70.411426 209.207687 
L 68.369963 208.92661 
L 66.328499 209.098722 
L 64.287036 209.827697 
L 62.245572 209.646724 
L 60.204109 210.115706 
L 58.162646 210.903191 
L 56.121182 210.361577 
L 54.079719 211.514121 
L 52.038255 211.707562 
L 49.996792 211.867558 
L 47.955328 212.610691 
L 45.913865 212.817345 
L 43.872402 213.644487 
L 41.830938 214.545759 
L 39.789475 214.593135 
L 37.748011 214.278881 
L 35.706548 214.067095 
L 33.665085 215.947968 
L 31.623621 215.670768 
L 29.582158 216.94902 
L 27.540694 217.012934 
L 25.499231 216.581892 
L 23.457768 217.848445 
L 21.416304 216.757373 
L 19.374841 216.861094 
L 17.333377 218.457642 
L 15.291914 217.384315 
L 13.25045 218.892321 
L 11.208987 219.402951 
L 9.167524 218.206863 
L 7.12606 214.311533 
L 5.084597 216.863539 
L 3.043133 215.694589 
L 1.00167 209.876539 
L -1.039793 214.892467 
L -3.081257 215.946972 
L -5.12272 210.563892 
L -7.164184 209.1061 
L -9.205647 212.029061 
L -11.247111 206.184255 
L -13.288574 195.635706 
L -15.330037 207.275605 
L -17.371501 211.764252 
L -19.412964 213.998801 
L -21.454428 199.667704 
L -23.495891 200.291912 
L -25.537354 193.105321 
L -27.578818 187.49827 
L -29.620281 198.863292 
L -31.661745 194.019074 
L -33.703208 183.933529 
L -35.744672 176.861284 
L -37.786135 177.302863 
L -39.827598 178.540204 
L -41.869062 177.060382 
L -43.910525 176.181959 
L -45.951989 180.2337 
L -47.993452 179.757317 
L -50.034915 177.123585 
L -52.076379 178.743713 
L -54.117842 177.667704 
L -56.159306 177.25726 
L -58.200769 177.356897 
L -60.242232 178.947662 
L -62.283696 179.892412 
L -64.325159 180.441512 
L -66.366623 181.824206 
L -68.408086 182.482244 
L -70.44955 183.605336 
L -72.491013 185.366448 
L -74.532476 186.749919 
L -76.57394 187.692081 
L -78.615403 188.742781 
L -80.656867 190.127452 
L -82.69833 191.004314 
L -84.739793 192.332576 
L -86.781257 193.941583 
L -88.82272 194.910579 
L -90.864184 195.577551 
L -92.905647 196.565838 
L -94.947111 197.581825 
L -96.988574 198.514898 
L -99.030037 199.40768 
L -101.071501 200.268021 
L -103.112964 201.445646 
L -105.154428 202.06157 
L -107.195891 202.924926 
L -109.237354 203.832276 
L -111.278818 204.601582 
L -113.320281 205.355558 
L -115.361745 205.986849 
L -117.403208 206.67369 
L -119.444672 207.583923 
L -121.486135 208.222549 
L -123.527598 208.967895 
L -125.569062 209.573495 
L -127.610525 210.248912 
L -129.651989 210.941899 
L -131.693452 211.630356 
L -133.734915 212.208904 
L -135.776379 212.892682 
L -137.817842 213.493542 
L -139.859306 214.137599 
L -141.900769 214.737117 
L -143.942232 215.355701 
L -145.983696 215.93251 
L -148.025159 216.54635 
L -150.066623 217.201589 
L -152.108086 217.691914 
L -154.14955 218.306429 
L -156.191013 218.836016 
L -158.232476 219.450086 
L -160.27394 219.898684 
L -162.315403 220.46959 
L -164.356867 221.013655 
L -166.39833 221.531608 
L -168.439793 222.058914 
L -170.481257 222.546533 
L -172.52272 223.115231 
L -174.564184 223.627077 
L -176.605647 224.048599 
L -178.647111 224.549179 
L -180.688574 225.049021 
L -182.730037 225.546412 
L -184.771501 226.026174 
L -186.812964 226.473139 
L -188.854428 226.96512 
L -190.895891 227.447286 
L -192.937354 227.931961 
L -194.978818 228.414923 
L -197.020281 228.910839 
L -199.061745 229.426244 
L -201.103208 229.869901 
L -203.144672 230.377996 
L -205.186135 230.876462 
L -207.227598 231.354765 
L -209.269062 231.848256 
L -211.310525 232.351851 
L -213.351989 232.840188 
L -215.393452 233.352784 
L -217.434915 233.819783 
L -219.476379 234.296773 
L -221.517842 234.801081 
L -223.559306 235.288097 
L -225.600769 235.750164 
L -227.642232 236.23935 
L -229.683696 236.685348 
L -231.725159 237.162341 
L -233.766623 237.67083 
L -235.808086 238.106837 
L -237.84955 238.595063 
L -239.891013 239.056926 
L -241.932476 239.541462 
L -243.97394 239.979623 
L -246.015403 240.492353 
L -248.056867 240.916416 
L -250.09833 241.392644 
L -252.139793 241.858524 
L -254.181257 242.336343 
L -256.22272 242.790123 
L -258.264184 243.252504 
L -260.305647 243.716868 
L -262.347111 244.197045 
L -264.388574 244.642697 
L -266.430037 245.052702 
L -268.471501 245.469815 
L -270.512964 245.889572 
L -272.554428 246.294851 
L -274.595891 246.707083 
L -276.637354 247.11464 
L -278.678818 247.503928 
L -280.720281 247.897848 
L -282.761745 248.289761 
L -284.803208 248.646243 
L -286.844672 249.009008 
L -288.886135 249.387684 
L -290.927598 249.746499 
L -292.969062 250.0674 
L -295.010525 250.421246 
L -297.051989 250.744671 
L -299.093452 251.042698 
L -301.134915 251.340994 
L -303.176379 251.619982 
L -305.217842 251.920955 
L -307.259306 252.169715 
L -309.300769 252.432656 
L -311.342232 252.680276 
L -313.383696 252.909839 
L -315.425159 253.119146 
L -317.466623 253.30945 
L -319.508086 253.498572 
L -321.54955 253.686186 
L -323.591013 253.841639 
L -325.632476 254.015354 
L -327.67394 254.162556 
L -329.715403 254.289457 
L -331.756867 254.438196 
L -333.79833 254.568654 
L -335.839793 254.676803 
L -337.881257 254.792907 
L -339.92272 254.905853 
L -341.964184 255.005242 
L -344.005647 255.105018 
L -346.047111 255.187628 
L -348.088574 255.287422 
L -350.130037 255.366907 
L -352.171501 255.450468 
L -354.212964 255.538172 
L -356.254428 255.609796 
L -358.295891 255.6857 
L -360.337354 255.784943 
L -362.378818 255.855188 
L -364.420281 255.94128 
L -366.461745 256.009541 
L -368.503208 256.100292 
L -370.544672 256.172216 
L -372.586135 256.248306 
L -374.627598 256.314914 
L -376.669062 256.375336 
L -378.710525 256.444292 
L -380.751989 256.520482 
L -382.793452 256.594509 
L -384.834915 256.657323 
L -386.876379 256.708052 
L -388.917842 256.781107 
L -390.959306 256.84084 
L -393.000769 256.912675 
z
" clip-path="url(#p7577bf2843)" style="fill: #008000; fill-opacity: 0.3; stroke: #008000; stroke-opacity: 0.3"/>
   </g>
   <g id="matplotlib.axis_1">
    <g id="xtick_1">
     <g id="line2d_1">
      <defs>
       <path id="mb1c8d3bea0" d="M 0 0 
L 0 3.5 
" style="stroke: #000000; stroke-width: 0.8"/>
      </defs>
      <g>
       <use xlink:href="#mb1c8d3bea0" x="103.074841" y="395.28" style="stroke: #000000; stroke-width: 0.8"/>
      </g>
     </g>
     <g id="text_1">
      <!-- 2022-03-01 -->
      <g transform="translate(17.945813 495.213718) rotate(-45) scale(0.2 -0.2)">
       <defs>
        <path id="DejaVuSans-32" d="M 1228 531 
L 3431 531 
L 3431 0 
L 469 0 
L 469 531 
Q 828 903 1448 1529 
Q 2069 2156 2228 2338 
Q 2531 2678 2651 2914 
Q 2772 3150 2772 3378 
Q 2772 3750 2511 3984 
Q 2250 4219 1831 4219 
Q 1534 4219 1204 4116 
Q 875 4013 500 3803 
L 500 4441 
Q 881 4594 1212 4672 
Q 1544 4750 1819 4750 
Q 2544 4750 2975 4387 
Q 3406 4025 3406 3419 
Q 3406 3131 3298 2873 
Q 3191 2616 2906 2266 
Q 2828 2175 2409 1742 
Q 1991 1309 1228 531 
z
" transform="scale(0.015625)"/>
        <path id="DejaVuSans-30" d="M 2034 4250 
Q 1547 4250 1301 3770 
Q 1056 3291 1056 2328 
Q 1056 1369 1301 889 
Q 1547 409 2034 409 
Q 2525 409 2770 889 
Q 3016 1369 3016 2328 
Q 3016 3291 2770 3770 
Q 2525 4250 2034 4250 
z
M 2034 4750 
Q 2819 4750 3233 4129 
Q 3647 3509 3647 2328 
Q 3647 1150 3233 529 
Q 2819 -91 2034 -91 
Q 1250 -91 836 529 
Q 422 1150 422 2328 
Q 422 3509 836 4129 
Q 1250 4750 2034 4750 
z
" transform="scale(0.015625)"/>
        <path id="DejaVuSans-2d" d="M 313 2009 
L 1997 2009 
L 1997 1497 
L 313 1497 
L 313 2009 
z
" transform="scale(0.015625)"/>
        <path id="DejaVuSans-33" d="M 2597 2516 
Q 3050 2419 3304 2112 
Q 3559 1806 3559 1356 
Q 3559 666 3084 287 
Q 2609 -91 1734 -91 
Q 1441 -91 1130 -33 
Q 819 25 488 141 
L 488 750 
Q 750 597 1062 519 
Q 1375 441 1716 441 
Q 2309 441 2620 675 
Q 2931 909 2931 1356 
Q 2931 1769 2642 2001 
Q 2353 2234 1838 2234 
L 1294 2234 
L 1294 2753 
L 1863 2753 
Q 2328 2753 2575 2939 
Q 2822 3125 2822 3475 
Q 2822 3834 2567 4026 
Q 2313 4219 1838 4219 
Q 1578 4219 1281 4162 
Q 984 4106 628 3988 
L 628 4550 
Q 988 4650 1302 4700 
Q 1616 4750 1894 4750 
Q 2613 4750 3031 4423 
Q 3450 4097 3450 3541 
Q 3450 3153 3228 2886 
Q 3006 2619 2597 2516 
z
" transform="scale(0.015625)"/>
        <path id="DejaVuSans-31" d="M 794 531 
L 1825 531 
L 1825 4091 
L 703 3866 
L 703 4441 
L 1819 4666 
L 2450 4666 
L 2450 531 
L 3481 531 
L 3481 0 
L 794 0 
L 794 531 
z
" transform="scale(0.015625)"/>
       </defs>
       <use xlink:href="#DejaVuSans-32"/>
       <use xlink:href="#DejaVuSans-30" x="63.623047"/>
       <use xlink:href="#DejaVuSans-32" x="127.246094"/>
       <use xlink:href="#DejaVuSans-32" x="190.869141"/>
       <use xlink:href="#DejaVuSans-2d" x="254.492188"/>
       <use xlink:href="#DejaVuSans-30" x="290.576172"/>
       <use xlink:href="#DejaVuSans-33" x="354.199219"/>
       <use xlink:href="#DejaVuSans-2d" x="417.822266"/>
       <use xlink:href="#DejaVuSans-30" x="453.90625"/>
       <use xlink:href="#DejaVuSans-31" x="517.529297"/>
      </g>
     </g>
    </g>
    <g id="xtick_2">
     <g id="line2d_2">
      <g>
       <use xlink:href="#mb1c8d3bea0" x="160.235816" y="395.28" style="stroke: #000000; stroke-width: 0.8"/>
      </g>
     </g>
     <g id="text_2">
      <!-- 2022-03-29 -->
      <g transform="translate(75.106789 495.213718) rotate(-45) scale(0.2 -0.2)">
       <defs>
        <path id="DejaVuSans-39" d="M 703 97 
L 703 672 
Q 941 559 1184 500 
Q 1428 441 1663 441 
Q 2288 441 2617 861 
Q 2947 1281 2994 2138 
Q 2813 1869 2534 1725 
Q 2256 1581 1919 1581 
Q 1219 1581 811 2004 
Q 403 2428 403 3163 
Q 403 3881 828 4315 
Q 1253 4750 1959 4750 
Q 2769 4750 3195 4129 
Q 3622 3509 3622 2328 
Q 3622 1225 3098 567 
Q 2575 -91 1691 -91 
Q 1453 -91 1209 -44 
Q 966 3 703 97 
z
M 1959 2075 
Q 2384 2075 2632 2365 
Q 2881 2656 2881 3163 
Q 2881 3666 2632 3958 
Q 2384 4250 1959 4250 
Q 1534 4250 1286 3958 
Q 1038 3666 1038 3163 
Q 1038 2656 1286 2365 
Q 1534 2075 1959 2075 
z
" transform="scale(0.015625)"/>
       </defs>
       <use xlink:href="#DejaVuSans-32"/>
       <use xlink:href="#DejaVuSans-30" x="63.623047"/>
       <use xlink:href="#DejaVuSans-32" x="127.246094"/>
       <use xlink:href="#DejaVuSans-32" x="190.869141"/>
       <use xlink:href="#DejaVuSans-2d" x="254.492188"/>
       <use xlink:href="#DejaVuSans-30" x="290.576172"/>
       <use xlink:href="#DejaVuSans-33" x="354.199219"/>
       <use xlink:href="#DejaVuSans-2d" x="417.822266"/>
       <use xlink:href="#DejaVuSans-32" x="453.90625"/>
       <use xlink:href="#DejaVuSans-39" x="517.529297"/>
      </g>
     </g>
    </g>
    <g id="xtick_3">
     <g id="line2d_3">
      <g>
       <use xlink:href="#mb1c8d3bea0" x="217.396792" y="395.28" style="stroke: #000000; stroke-width: 0.8"/>
      </g>
     </g>
     <g id="text_3">
      <!-- 2022-04-26 -->
      <g transform="translate(132.267765 495.213718) rotate(-45) scale(0.2 -0.2)">
       <defs>
        <path id="DejaVuSans-34" d="M 2419 4116 
L 825 1625 
L 2419 1625 
L 2419 4116 
z
M 2253 4666 
L 3047 4666 
L 3047 1625 
L 3713 1625 
L 3713 1100 
L 3047 1100 
L 3047 0 
L 2419 0 
L 2419 1100 
L 313 1100 
L 313 1709 
L 2253 4666 
z
" transform="scale(0.015625)"/>
        <path id="DejaVuSans-36" d="M 2113 2584 
Q 1688 2584 1439 2293 
Q 1191 2003 1191 1497 
Q 1191 994 1439 701 
Q 1688 409 2113 409 
Q 2538 409 2786 701 
Q 3034 994 3034 1497 
Q 3034 2003 2786 2293 
Q 2538 2584 2113 2584 
z
M 3366 4563 
L 3366 3988 
Q 3128 4100 2886 4159 
Q 2644 4219 2406 4219 
Q 1781 4219 1451 3797 
Q 1122 3375 1075 2522 
Q 1259 2794 1537 2939 
Q 1816 3084 2150 3084 
Q 2853 3084 3261 2657 
Q 3669 2231 3669 1497 
Q 3669 778 3244 343 
Q 2819 -91 2113 -91 
Q 1303 -91 875 529 
Q 447 1150 447 2328 
Q 447 3434 972 4092 
Q 1497 4750 2381 4750 
Q 2619 4750 2861 4703 
Q 3103 4656 3366 4563 
z
" transform="scale(0.015625)"/>
       </defs>
       <use xlink:href="#DejaVuSans-32"/>
       <use xlink:href="#DejaVuSans-30" x="63.623047"/>
       <use xlink:href="#DejaVuSans-32" x="127.246094"/>
       <use xlink:href="#DejaVuSans-32" x="190.869141"/>
       <use xlink:href="#DejaVuSans-2d" x="254.492188"/>
       <use xlink:href="#DejaVuSans-30" x="290.576172"/>
       <use xlink:href="#DejaVuSans-34" x="354.199219"/>
       <use xlink:href="#DejaVuSans-2d" x="417.822266"/>
       <use xlink:href="#DejaVuSans-32" x="453.90625"/>
       <use xlink:href="#DejaVuSans-36" x="517.529297"/>
      </g>
     </g>
    </g>
    <g id="xtick_4">
     <g id="line2d_4">
      <g>
       <use xlink:href="#mb1c8d3bea0" x="274.557768" y="395.28" style="stroke: #000000; stroke-width: 0.8"/>
      </g>
     </g>
     <g id="text_4">
      <!-- 2022-05-24 -->
      <g transform="translate(189.42874 495.213718) rotate(-45) scale(0.2 -0.2)">
       <defs>
        <path id="DejaVuSans-35" d="M 691 4666 
L 3169 4666 
L 3169 4134 
L 1269 4134 
L 1269 2991 
Q 1406 3038 1543 3061 
Q 1681 3084 1819 3084 
Q 2600 3084 3056 2656 
Q 3513 2228 3513 1497 
Q 3513 744 3044 326 
Q 2575 -91 1722 -91 
Q 1428 -91 1123 -41 
Q 819 9 494 109 
L 494 744 
Q 775 591 1075 516 
Q 1375 441 1709 441 
Q 2250 441 2565 725 
Q 2881 1009 2881 1497 
Q 2881 1984 2565 2268 
Q 2250 2553 1709 2553 
Q 1456 2553 1204 2497 
Q 953 2441 691 2322 
L 691 4666 
z
" transform="scale(0.015625)"/>
       </defs>
       <use xlink:href="#DejaVuSans-32"/>
       <use xlink:href="#DejaVuSans-30" x="63.623047"/>
       <use xlink:href="#DejaVuSans-32" x="127.246094"/>
       <use xlink:href="#DejaVuSans-32" x="190.869141"/>
       <use xlink:href="#DejaVuSans-2d" x="254.492188"/>
       <use xlink:href="#DejaVuSans-30" x="290.576172"/>
       <use xlink:href="#DejaVuSans-35" x="354.199219"/>
       <use xlink:href="#DejaVuSans-2d" x="417.822266"/>
       <use xlink:href="#DejaVuSans-32" x="453.90625"/>
       <use xlink:href="#DejaVuSans-34" x="517.529297"/>
      </g>
     </g>
    </g>
    <g id="xtick_5">
     <g id="line2d_5">
      <g>
       <use xlink:href="#mb1c8d3bea0" x="331.718743" y="395.28" style="stroke: #000000; stroke-width: 0.8"/>
      </g>
     </g>
     <g id="text_5">
      <!-- 2022-06-21 -->
      <g transform="translate(246.589716 495.213718) rotate(-45) scale(0.2 -0.2)">
       <use xlink:href="#DejaVuSans-32"/>
       <use xlink:href="#DejaVuSans-30" x="63.623047"/>
       <use xlink:href="#DejaVuSans-32" x="127.246094"/>
       <use xlink:href="#DejaVuSans-32" x="190.869141"/>
       <use xlink:href="#DejaVuSans-2d" x="254.492188"/>
       <use xlink:href="#DejaVuSans-30" x="290.576172"/>
       <use xlink:href="#DejaVuSans-36" x="354.199219"/>
       <use xlink:href="#DejaVuSans-2d" x="417.822266"/>
       <use xlink:href="#DejaVuSans-32" x="453.90625"/>
       <use xlink:href="#DejaVuSans-31" x="517.529297"/>
      </g>
     </g>
    </g>
    <g id="xtick_6">
     <g id="line2d_6">
      <g>
       <use xlink:href="#mb1c8d3bea0" x="388.879719" y="395.28" style="stroke: #000000; stroke-width: 0.8"/>
      </g>
     </g>
     <g id="text_6">
      <!-- 2022-07-19 -->
      <g transform="translate(303.750691 495.213718) rotate(-45) scale(0.2 -0.2)">
       <defs>
        <path id="DejaVuSans-37" d="M 525 4666 
L 3525 4666 
L 3525 4397 
L 1831 0 
L 1172 0 
L 2766 4134 
L 525 4134 
L 525 4666 
z
" transform="scale(0.015625)"/>
       </defs>
       <use xlink:href="#DejaVuSans-32"/>
       <use xlink:href="#DejaVuSans-30" x="63.623047"/>
       <use xlink:href="#DejaVuSans-32" x="127.246094"/>
       <use xlink:href="#DejaVuSans-32" x="190.869141"/>
       <use xlink:href="#DejaVuSans-2d" x="254.492188"/>
       <use xlink:href="#DejaVuSans-30" x="290.576172"/>
       <use xlink:href="#DejaVuSans-37" x="354.199219"/>
       <use xlink:href="#DejaVuSans-2d" x="417.822266"/>
       <use xlink:href="#DejaVuSans-31" x="453.90625"/>
       <use xlink:href="#DejaVuSans-39" x="517.529297"/>
      </g>
     </g>
    </g>
    <g id="xtick_7">
     <g id="line2d_7">
      <g>
       <use xlink:href="#mb1c8d3bea0" x="446.040694" y="395.28" style="stroke: #000000; stroke-width: 0.8"/>
      </g>
     </g>
     <g id="text_7">
      <!-- 2022-08-16 -->
      <g transform="translate(360.911667 495.213718) rotate(-45) scale(0.2 -0.2)">
       <defs>
        <path id="DejaVuSans-38" d="M 2034 2216 
Q 1584 2216 1326 1975 
Q 1069 1734 1069 1313 
Q 1069 891 1326 650 
Q 1584 409 2034 409 
Q 2484 409 2743 651 
Q 3003 894 3003 1313 
Q 3003 1734 2745 1975 
Q 2488 2216 2034 2216 
z
M 1403 2484 
Q 997 2584 770 2862 
Q 544 3141 544 3541 
Q 544 4100 942 4425 
Q 1341 4750 2034 4750 
Q 2731 4750 3128 4425 
Q 3525 4100 3525 3541 
Q 3525 3141 3298 2862 
Q 3072 2584 2669 2484 
Q 3125 2378 3379 2068 
Q 3634 1759 3634 1313 
Q 3634 634 3220 271 
Q 2806 -91 2034 -91 
Q 1263 -91 848 271 
Q 434 634 434 1313 
Q 434 1759 690 2068 
Q 947 2378 1403 2484 
z
M 1172 3481 
Q 1172 3119 1398 2916 
Q 1625 2713 2034 2713 
Q 2441 2713 2670 2916 
Q 2900 3119 2900 3481 
Q 2900 3844 2670 4047 
Q 2441 4250 2034 4250 
Q 1625 4250 1398 4047 
Q 1172 3844 1172 3481 
z
" transform="scale(0.015625)"/>
       </defs>
       <use xlink:href="#DejaVuSans-32"/>
       <use xlink:href="#DejaVuSans-30" x="63.623047"/>
       <use xlink:href="#DejaVuSans-32" x="127.246094"/>
       <use xlink:href="#DejaVuSans-32" x="190.869141"/>
       <use xlink:href="#DejaVuSans-2d" x="254.492188"/>
       <use xlink:href="#DejaVuSans-30" x="290.576172"/>
       <use xlink:href="#DejaVuSans-38" x="354.199219"/>
       <use xlink:href="#DejaVuSans-2d" x="417.822266"/>
       <use xlink:href="#DejaVuSans-31" x="453.90625"/>
       <use xlink:href="#DejaVuSans-36" x="517.529297"/>
      </g>
     </g>
    </g>
    <g id="xtick_8">
     <g id="line2d_8">
      <g>
       <use xlink:href="#mb1c8d3bea0" x="503.20167" y="395.28" style="stroke: #000000; stroke-width: 0.8"/>
      </g>
     </g>
     <g id="text_8">
      <!-- 2022-09-13 -->
      <g transform="translate(418.072643 495.213718) rotate(-45) scale(0.2 -0.2)">
       <use xlink:href="#DejaVuSans-32"/>
       <use xlink:href="#DejaVuSans-30" x="63.623047"/>
       <use xlink:href="#DejaVuSans-32" x="127.246094"/>
       <use xlink:href="#DejaVuSans-32" x="190.869141"/>
       <use xlink:href="#DejaVuSans-2d" x="254.492188"/>
       <use xlink:href="#DejaVuSans-30" x="290.576172"/>
       <use xlink:href="#DejaVuSans-39" x="354.199219"/>
       <use xlink:href="#DejaVuSans-2d" x="417.822266"/>
       <use xlink:href="#DejaVuSans-31" x="453.90625"/>
       <use xlink:href="#DejaVuSans-33" x="517.529297"/>
      </g>
     </g>
    </g>
    <g id="xtick_9">
     <g id="line2d_9">
      <g>
       <use xlink:href="#mb1c8d3bea0" x="560.362646" y="395.28" style="stroke: #000000; stroke-width: 0.8"/>
      </g>
     </g>
     <g id="text_9">
      <!-- 2022-10-11 -->
      <g transform="translate(475.233618 495.213718) rotate(-45) scale(0.2 -0.2)">
       <use xlink:href="#DejaVuSans-32"/>
       <use xlink:href="#DejaVuSans-30" x="63.623047"/>
       <use xlink:href="#DejaVuSans-32" x="127.246094"/>
       <use xlink:href="#DejaVuSans-32" x="190.869141"/>
       <use xlink:href="#DejaVuSans-2d" x="254.492188"/>
       <use xlink:href="#DejaVuSans-31" x="290.576172"/>
       <use xlink:href="#DejaVuSans-30" x="354.199219"/>
       <use xlink:href="#DejaVuSans-2d" x="417.822266"/>
       <use xlink:href="#DejaVuSans-31" x="453.90625"/>
       <use xlink:href="#DejaVuSans-31" x="517.529297"/>
      </g>
     </g>
    </g>
    <g id="xtick_10">
     <g id="line2d_10">
      <g>
       <use xlink:href="#mb1c8d3bea0" x="617.523621" y="395.28" style="stroke: #000000; stroke-width: 0.8"/>
      </g>
     </g>
     <g id="text_10">
      <!-- 2022-11-08 -->
      <g transform="translate(532.394594 495.213718) rotate(-45) scale(0.2 -0.2)">
       <use xlink:href="#DejaVuSans-32"/>
       <use xlink:href="#DejaVuSans-30" x="63.623047"/>
       <use xlink:href="#DejaVuSans-32" x="127.246094"/>
       <use xlink:href="#DejaVuSans-32" x="190.869141"/>
       <use xlink:href="#DejaVuSans-2d" x="254.492188"/>
       <use xlink:href="#DejaVuSans-31" x="290.576172"/>
       <use xlink:href="#DejaVuSans-31" x="354.199219"/>
       <use xlink:href="#DejaVuSans-2d" x="417.822266"/>
       <use xlink:href="#DejaVuSans-30" x="453.90625"/>
       <use xlink:href="#DejaVuSans-38" x="517.529297"/>
      </g>
     </g>
    </g>
    <g id="xtick_11">
     <g id="line2d_11">
      <g>
       <use xlink:href="#mb1c8d3bea0" x="674.684597" y="395.28" style="stroke: #000000; stroke-width: 0.8"/>
      </g>
     </g>
     <g id="text_11">
      <!-- 2022-12-06 -->
      <g transform="translate(589.555569 495.213718) rotate(-45) scale(0.2 -0.2)">
       <use xlink:href="#DejaVuSans-32"/>
       <use xlink:href="#DejaVuSans-30" x="63.623047"/>
       <use xlink:href="#DejaVuSans-32" x="127.246094"/>
       <use xlink:href="#DejaVuSans-32" x="190.869141"/>
       <use xlink:href="#DejaVuSans-2d" x="254.492188"/>
       <use xlink:href="#DejaVuSans-31" x="290.576172"/>
       <use xlink:href="#DejaVuSans-32" x="354.199219"/>
       <use xlink:href="#DejaVuSans-2d" x="417.822266"/>
       <use xlink:href="#DejaVuSans-30" x="453.90625"/>
       <use xlink:href="#DejaVuSans-36" x="517.529297"/>
      </g>
     </g>
    </g>
    <g id="xtick_12">
     <g id="line2d_12">
      <g>
       <use xlink:href="#mb1c8d3bea0" x="731.845572" y="395.28" style="stroke: #000000; stroke-width: 0.8"/>
      </g>
     </g>
     <g id="text_12">
      <!-- 2023-01-03 -->
      <g transform="translate(646.716545 495.213718) rotate(-45) scale(0.2 -0.2)">
       <use xlink:href="#DejaVuSans-32"/>
       <use xlink:href="#DejaVuSans-30" x="63.623047"/>
       <use xlink:href="#DejaVuSans-32" x="127.246094"/>
       <use xlink:href="#DejaVuSans-33" x="190.869141"/>
       <use xlink:href="#DejaVuSans-2d" x="254.492188"/>
       <use xlink:href="#DejaVuSans-30" x="290.576172"/>
       <use xlink:href="#DejaVuSans-31" x="354.199219"/>
       <use xlink:href="#DejaVuSans-2d" x="417.822266"/>
       <use xlink:href="#DejaVuSans-30" x="453.90625"/>
       <use xlink:href="#DejaVuSans-33" x="517.529297"/>
      </g>
     </g>
    </g>
    <g id="xtick_13">
     <g id="line2d_13">
      <g>
       <use xlink:href="#mb1c8d3bea0" x="789.006548" y="395.28" style="stroke: #000000; stroke-width: 0.8"/>
      </g>
     </g>
     <g id="text_13">
      <!-- 2023-01-31 -->
      <g transform="translate(703.877521 495.213718) rotate(-45) scale(0.2 -0.2)">
       <use xlink:href="#DejaVuSans-32"/>
       <use xlink:href="#DejaVuSans-30" x="63.623047"/>
       <use xlink:href="#DejaVuSans-32" x="127.246094"/>
       <use xlink:href="#DejaVuSans-33" x="190.869141"/>
       <use xlink:href="#DejaVuSans-2d" x="254.492188"/>
       <use xlink:href="#DejaVuSans-30" x="290.576172"/>
       <use xlink:href="#DejaVuSans-31" x="354.199219"/>
       <use xlink:href="#DejaVuSans-2d" x="417.822266"/>
       <use xlink:href="#DejaVuSans-33" x="453.90625"/>
       <use xlink:href="#DejaVuSans-31" x="517.529297"/>
      </g>
     </g>
    </g>
    <g id="xtick_14">
     <g id="line2d_14">
      <g>
       <use xlink:href="#mb1c8d3bea0" x="846.167524" y="395.28" style="stroke: #000000; stroke-width: 0.8"/>
      </g>
     </g>
     <g id="text_14">
      <!-- 2023-02-28 -->
      <g transform="translate(761.038496 495.213718) rotate(-45) scale(0.2 -0.2)">
       <use xlink:href="#DejaVuSans-32"/>
       <use xlink:href="#DejaVuSans-30" x="63.623047"/>
       <use xlink:href="#DejaVuSans-32" x="127.246094"/>
       <use xlink:href="#DejaVuSans-33" x="190.869141"/>
       <use xlink:href="#DejaVuSans-2d" x="254.492188"/>
       <use xlink:href="#DejaVuSans-30" x="290.576172"/>
       <use xlink:href="#DejaVuSans-32" x="354.199219"/>
       <use xlink:href="#DejaVuSans-2d" x="417.822266"/>
       <use xlink:href="#DejaVuSans-32" x="453.90625"/>
       <use xlink:href="#DejaVuSans-38" x="517.529297"/>
      </g>
     </g>
    </g>
    <g id="xtick_15">
     <g id="line2d_15">
      <g>
       <use xlink:href="#mb1c8d3bea0" x="903.328499" y="395.28" style="stroke: #000000; stroke-width: 0.8"/>
      </g>
     </g>
     <g id="text_15">
      <!-- 2023-03-28 -->
      <g transform="translate(818.199472 495.213718) rotate(-45) scale(0.2 -0.2)">
       <use xlink:href="#DejaVuSans-32"/>
       <use xlink:href="#DejaVuSans-30" x="63.623047"/>
       <use xlink:href="#DejaVuSans-32" x="127.246094"/>
       <use xlink:href="#DejaVuSans-33" x="190.869141"/>
       <use xlink:href="#DejaVuSans-2d" x="254.492188"/>
       <use xlink:href="#DejaVuSans-30" x="290.576172"/>
       <use xlink:href="#DejaVuSans-33" x="354.199219"/>
       <use xlink:href="#DejaVuSans-2d" x="417.822266"/>
       <use xlink:href="#DejaVuSans-32" x="453.90625"/>
       <use xlink:href="#DejaVuSans-38" x="517.529297"/>
      </g>
     </g>
    </g>
    <g id="xtick_16">
     <g id="line2d_16">
      <g>
       <use xlink:href="#mb1c8d3bea0" x="940.074841" y="395.28" style="stroke: #000000; stroke-width: 0.8"/>
      </g>
     </g>
     <g id="text_16">
      <!-- 2023-04-15 -->
      <g transform="translate(854.945813 495.213718) rotate(-45) scale(0.2 -0.2)">
       <use xlink:href="#DejaVuSans-32"/>
       <use xlink:href="#DejaVuSans-30" x="63.623047"/>
       <use xlink:href="#DejaVuSans-32" x="127.246094"/>
       <use xlink:href="#DejaVuSans-33" x="190.869141"/>
       <use xlink:href="#DejaVuSans-2d" x="254.492188"/>
       <use xlink:href="#DejaVuSans-30" x="290.576172"/>
       <use xlink:href="#DejaVuSans-34" x="354.199219"/>
       <use xlink:href="#DejaVuSans-2d" x="417.822266"/>
       <use xlink:href="#DejaVuSans-31" x="453.90625"/>
       <use xlink:href="#DejaVuSans-35" x="517.529297"/>
      </g>
     </g>
    </g>
   </g>
   <g id="matplotlib.axis_2">
    <g id="ytick_1">
     <g id="line2d_17">
      <defs>
       <path id="m26e21ba932" d="M 0 0 
L -3.5 0 
" style="stroke: #000000; stroke-width: 0.8"/>
      </defs>
      <g>
       <use xlink:href="#m26e21ba932" x="103.074841" y="361.449933" style="stroke: #000000; stroke-width: 0.8"/>
      </g>
     </g>
     <g id="text_17">
      <!-- 0.10 -->
      <g transform="translate(34.784216 369.04837) scale(0.2 -0.2)">
       <defs>
        <path id="DejaVuSans-2212" d="M 678 2272 
L 4684 2272 
L 4684 1741 
L 678 1741 
L 678 2272 
z
" transform="scale(0.015625)"/>
        <path id="DejaVuSans-2e" d="M 684 794 
L 1344 794 
L 1344 0 
L 684 0 
L 684 794 
z
" transform="scale(0.015625)"/>
       </defs>
       <use xlink:href="#DejaVuSans-2212"/>
       <use xlink:href="#DejaVuSans-30" x="83.789062"/>
       <use xlink:href="#DejaVuSans-2e" x="147.412109"/>
       <use xlink:href="#DejaVuSans-31" x="179.199219"/>
       <use xlink:href="#DejaVuSans-30" x="242.822266"/>
      </g>
     </g>
    </g>
    <g id="ytick_2">
     <g id="line2d_18">
      <g>
       <use xlink:href="#m26e21ba932" x="103.074841" y="309.215554" style="stroke: #000000; stroke-width: 0.8"/>
      </g>
     </g>
     <g id="text_18">
      <!-- 0.05 -->
      <g transform="translate(34.784216 316.813992) scale(0.2 -0.2)">
       <use xlink:href="#DejaVuSans-2212"/>
       <use xlink:href="#DejaVuSans-30" x="83.789062"/>
       <use xlink:href="#DejaVuSans-2e" x="147.412109"/>
       <use xlink:href="#DejaVuSans-30" x="179.199219"/>
       <use xlink:href="#DejaVuSans-35" x="242.822266"/>
      </g>
     </g>
    </g>
    <g id="ytick_3">
     <g id="line2d_19">
      <g>
       <use xlink:href="#m26e21ba932" x="103.074841" y="256.981176" style="stroke: #000000; stroke-width: 0.8"/>
      </g>
     </g>
     <g id="text_19">
      <!-- 0.00 -->
      <g transform="translate(51.543591 264.579613) scale(0.2 -0.2)">
       <use xlink:href="#DejaVuSans-30"/>
       <use xlink:href="#DejaVuSans-2e" x="63.623047"/>
       <use xlink:href="#DejaVuSans-30" x="95.410156"/>
       <use xlink:href="#DejaVuSans-30" x="159.033203"/>
      </g>
     </g>
    </g>
    <g id="ytick_4">
     <g id="line2d_20">
      <g>
       <use xlink:href="#m26e21ba932" x="103.074841" y="204.746797" style="stroke: #000000; stroke-width: 0.8"/>
      </g>
     </g>
     <g id="text_20">
      <!-- 0.05 -->
      <g transform="translate(51.543591 212.345235) scale(0.2 -0.2)">
       <use xlink:href="#DejaVuSans-30"/>
       <use xlink:href="#DejaVuSans-2e" x="63.623047"/>
       <use xlink:href="#DejaVuSans-30" x="95.410156"/>
       <use xlink:href="#DejaVuSans-35" x="159.033203"/>
      </g>
     </g>
    </g>
    <g id="ytick_5">
     <g id="line2d_21">
      <g>
       <use xlink:href="#m26e21ba932" x="103.074841" y="152.512418" style="stroke: #000000; stroke-width: 0.8"/>
      </g>
     </g>
     <g id="text_21">
      <!-- 0.10 -->
      <g transform="translate(51.543591 160.110856) scale(0.2 -0.2)">
       <use xlink:href="#DejaVuSans-30"/>
       <use xlink:href="#DejaVuSans-2e" x="63.623047"/>
       <use xlink:href="#DejaVuSans-31" x="95.410156"/>
       <use xlink:href="#DejaVuSans-30" x="159.033203"/>
      </g>
     </g>
    </g>
    <g id="ytick_6">
     <g id="line2d_22">
      <g>
       <use xlink:href="#m26e21ba932" x="103.074841" y="100.27804" style="stroke: #000000; stroke-width: 0.8"/>
      </g>
     </g>
     <g id="text_22">
      <!-- 0.15 -->
      <g transform="translate(51.543591 107.876477) scale(0.2 -0.2)">
       <use xlink:href="#DejaVuSans-30"/>
       <use xlink:href="#DejaVuSans-2e" x="63.623047"/>
       <use xlink:href="#DejaVuSans-31" x="95.410156"/>
       <use xlink:href="#DejaVuSans-35" x="159.033203"/>
      </g>
     </g>
    </g>
    <g id="ytick_7">
     <g id="line2d_23">
      <g>
       <use xlink:href="#m26e21ba932" x="103.074841" y="48.043661" style="stroke: #000000; stroke-width: 0.8"/>
      </g>
     </g>
     <g id="text_23">
      <!-- 0.20 -->
      <g transform="translate(51.543591 55.642099) scale(0.2 -0.2)">
       <use xlink:href="#DejaVuSans-30"/>
       <use xlink:href="#DejaVuSans-2e" x="63.623047"/>
       <use xlink:href="#DejaVuSans-32" x="95.410156"/>
       <use xlink:href="#DejaVuSans-30" x="159.033203"/>
      </g>
     </g>
    </g>
   </g>
   <g id="line2d_24">
    <path d="M 772.674841 24.84 
L 776.757768 24.84 
L 778.799231 153.889842 
L 782.882158 153.889842 
L 782.882158 153.889842 
" clip-path="url(#p7577bf2843)" style="fill: none; stroke: #ffa500; stroke-width: 1.5; stroke-linecap: square"/>
   </g>
   <g id="line2d_25">
    <path d="M 103.074841 256.981176 
L 948.274841 256.981176 
" clip-path="url(#p7577bf2843)" style="fill: none; stroke-dasharray: 7.4,3.2; stroke-dashoffset: 0; stroke: #000000; stroke-width: 2"/>
   </g>
   <g id="patch_3">
    <path d="M 103.074841 395.28 
L 103.074841 7.2 
" style="fill: none; stroke: #000000; stroke-width: 0.8; stroke-linejoin: miter; stroke-linecap: square"/>
   </g>
   <g id="patch_4">
    <path d="M 940.074841 395.28 
L 940.074841 7.2 
" style="fill: none; stroke: #000000; stroke-width: 0.8; stroke-linejoin: miter; stroke-linecap: square"/>
   </g>
   <g id="patch_5">
    <path d="M 103.074841 395.28 
L 940.074841 395.28 
" style="fill: none; stroke: #000000; stroke-width: 0.8; stroke-linejoin: miter; stroke-linecap: square"/>
   </g>
   <g id="patch_6">
    <path d="M 103.074841 7.2 
L 940.074841 7.2 
" style="fill: none; stroke: #000000; stroke-width: 0.8; stroke-linejoin: miter; stroke-linecap: square"/>
   </g>
  </g>
 </g>
 <defs>
  <clipPath id="p7577bf2843">
   <rect x="103.074841" y="7.2" width="837" height="388.08"/>
  </clipPath>
 </defs>
</svg>
