<?xml version="1.0" encoding="utf-8" standalone="no"?>
<!DOCTYPE svg PUBLIC "-//W3C//DTD SVG 1.1//EN"
  "http://www.w3.org/Graphics/SVG/1.1/DTD/svg11.dtd">
<svg xmlns:xlink="http://www.w3.org/1999/xlink" width="947.274841pt" height="505.354841pt" viewBox="0 0 947.274841 505.354841" xmlns="http://www.w3.org/2000/svg" version="1.1">
 <metadata>
  <rdf:RDF xmlns:dc="http://purl.org/dc/elements/1.1/" xmlns:cc="http://creativecommons.org/ns#" xmlns:rdf="http://www.w3.org/1999/02/22-rdf-syntax-ns#">
   <cc:Work>
    <dc:type rdf:resource="http://purl.org/dc/dcmitype/StillImage"/>
    <dc:date>2023-11-12T23:20:03.151376</dc:date>
    <dc:format>image/svg+xml</dc:format>
    <dc:creator>
     <cc:Agent>
      <dc:title>Matplotlib v3.7.2, https://matplotlib.org/</dc:title>
     </cc:Agent>
    </dc:creator>
   </cc:Work>
  </rdf:RDF>
 </metadata>
 <defs>
  <style type="text/css">*{stroke-linejoin: round; stroke-linecap: butt}</style>
 </defs>
 <g id="figure_1">
  <g id="patch_1">
   <path d="M 0 505.354841 
L 947.274841 505.354841 
L 947.274841 -0 
L 0 -0 
z
" style="fill: #ffffff"/>
  </g>
  <g id="axes_1">
   <g id="patch_2">
    <path d="M 103.074841 395.28 
L 940.074841 395.28 
L 940.074841 7.2 
L 103.074841 7.2 
z
" style="fill: #ffffff"/>
   </g>
   <g id="PolyCollection_1">
    <path d="M -393.000769 343.196255 
L -393.000769 343.213491 
L -390.959306 343.12605 
L -388.917842 343.050311 
L -386.876379 342.954127 
L -384.834915 342.889882 
L -382.793452 342.811454 
L -380.751989 342.727745 
L -378.710525 342.644901 
L -376.669062 342.56702 
L -374.627598 342.498473 
L -372.586135 342.419408 
L -370.544672 342.336586 
L -368.503208 342.256021 
L -366.461745 342.157417 
L -364.420281 342.075455 
L -362.378818 341.979183 
L -360.337354 341.896456 
L -358.295891 341.785224 
L -356.254428 341.69344 
L -354.212964 341.604953 
L -352.171501 341.500602 
L -350.130037 341.398805 
L -348.088574 341.299225 
L -346.047111 341.179377 
L -344.005647 341.074259 
L -341.964184 340.951462 
L -339.92272 340.827136 
L -337.881257 340.689745 
L -335.839793 340.548536 
L -333.79833 340.410291 
L -331.756867 340.250524 
L -329.715403 340.069943 
L -327.67394 339.909301 
L -325.632476 339.726956 
L -323.591013 339.518875 
L -321.54955 339.324961 
L -319.508086 339.097881 
L -317.466623 338.867125 
L -315.425159 338.629398 
L -313.383696 338.378399 
L -311.342232 338.100311 
L -309.300769 337.804263 
L -307.259306 337.490573 
L -305.217842 337.188014 
L -303.176379 336.833006 
L -301.134915 336.495134 
L -299.093452 336.135367 
L -297.051989 335.774126 
L -295.010525 335.385456 
L -292.969062 334.964829 
L -290.927598 334.575105 
L -288.886135 334.141462 
L -286.844672 333.692687 
L -284.803208 333.252829 
L -282.761745 332.81744 
L -280.720281 332.34531 
L -278.678818 331.868111 
L -276.637354 331.3918 
L -274.595891 330.895706 
L -272.554428 330.393568 
L -270.512964 329.892927 
L -268.471501 329.375421 
L -266.430037 328.856776 
L -264.388574 328.34598 
L -262.347111 327.81424 
L -260.305647 327.245601 
L -258.264184 326.694524 
L -256.22272 326.144693 
L -254.181257 325.603396 
L -252.139793 325.039937 
L -250.09833 324.489417 
L -248.056867 323.929374 
L -246.015403 323.42337 
L -243.97394 322.828067 
L -241.932476 322.31165 
L -239.891013 321.746233 
L -237.84955 321.207493 
L -235.808086 320.646663 
L -233.766623 320.146817 
L -231.725159 319.573489 
L -229.683696 319.0341 
L -227.642232 318.528928 
L -225.600769 317.985916 
L -223.559306 317.471488 
L -221.517842 316.93342 
L -219.476379 316.387603 
L -217.434915 315.868079 
L -215.393452 315.358527 
L -213.351989 314.81018 
L -211.310525 314.282654 
L -209.269062 313.750959 
L -207.227598 313.228432 
L -205.186135 312.718021 
L -203.144672 312.193729 
L -201.103208 311.664249 
L -199.061745 311.186599 
L -197.020281 310.646745 
L -194.978818 310.1291 
L -192.937354 309.61974 
L -190.895891 309.109691 
L -188.854428 308.600789 
L -186.812964 308.085376 
L -184.771501 307.593254 
L -182.730037 307.081763 
L -180.688574 306.557835 
L -178.647111 306.028105 
L -176.605647 305.492703 
L -174.564184 304.990673 
L -172.52272 304.439443 
L -170.481257 303.85246 
L -168.439793 303.300351 
L -166.39833 302.718779 
L -164.356867 302.128321 
L -162.315403 301.505557 
L -160.27394 300.871672 
L -158.232476 300.281496 
L -156.191013 299.610223 
L -154.14955 298.971395 
L -152.108086 298.284777 
L -150.066623 297.65278 
L -148.025159 296.912233 
L -145.983696 296.185772 
L -143.942232 295.479137 
L -141.900769 294.760278 
L -139.859306 294.019558 
L -137.817842 293.246026 
L -135.776379 292.519867 
L -133.734915 291.69033 
L -131.693452 290.958667 
L -129.651989 290.104961 
L -127.610525 289.277036 
L -125.569062 288.467955 
L -123.527598 287.690987 
L -121.486135 286.786928 
L -119.444672 285.968343 
L -117.403208 284.932112 
L -115.361745 284.038021 
L -113.320281 283.203272 
L -111.278818 282.262612 
L -109.237354 281.297879 
L -107.195891 280.189349 
L -105.154428 279.148594 
L -103.112964 278.276181 
L -101.071501 276.907981 
L -99.030037 275.803932 
L -96.988574 274.675601 
L -94.947111 273.505209 
L -92.905647 272.175305 
L -90.864184 270.922296 
L -88.82272 269.96832 
L -86.781257 268.760035 
L -84.739793 266.795805 
L -82.69833 265.138003 
L -80.656867 263.902919 
L -78.615403 262.205379 
L -76.57394 260.789873 
L -74.532476 259.551439 
L -72.491013 257.691886 
L -70.44955 255.580929 
L -68.408086 254.188492 
L -66.366623 253.564076 
L -64.325159 252.089311 
L -62.283696 251.60021 
L -60.242232 250.671634 
L -58.200769 248.901165 
L -56.159306 249.02846 
L -54.117842 249.738349 
L -52.076379 251.254812 
L -50.034915 249.546068 
L -47.993452 252.934517 
L -45.951989 253.695086 
L -43.910525 249.144837 
L -41.869062 250.443501 
L -39.827598 252.47308 
L -37.786135 251.295504 
L -35.744672 251.065038 
L -33.703208 259.743684 
L -31.661745 272.083493 
L -29.620281 278.248478 
L -27.578818 264.928438 
L -25.537354 271.837047 
L -23.495891 280.879248 
L -21.454428 280.407929 
L -19.412964 298.769318 
L -17.371501 296.338185 
L -15.330037 290.80582 
L -13.288574 276.997099 
L -11.247111 290.095018 
L -9.205647 298.000056 
L -7.164184 294.791766 
L -5.12272 296.904745 
L -3.081257 304.376612 
L -1.039793 303.470446 
L 1.00167 297.172005 
L 3.043133 305.264947 
L 5.084597 306.940523 
L 7.12606 304.169202 
L 9.167524 309.346402 
L 11.208987 311.302 
L 13.25045 310.898663 
L 15.291914 309.457831 
L 17.333377 311.232627 
L 19.374841 309.634189 
L 21.416304 309.892403 
L 23.457768 311.595211 
L 25.499231 310.209213 
L 27.540694 311.099308 
L 29.582158 311.255279 
L 31.623621 310.162956 
L 33.665085 310.727127 
L 35.706548 309.104668 
L 37.748011 309.343988 
L 39.789475 309.949701 
L 41.830938 310.099863 
L 43.872402 309.373827 
L 45.913865 308.773613 
L 47.955328 308.71301 
L 49.996792 308.036855 
L 52.038255 308.037161 
L 54.079719 308.009615 
L 56.121182 306.918829 
L 58.162646 307.611839 
L 60.204109 306.925889 
L 62.245572 306.691216 
L 64.287036 306.822367 
L 66.328499 306.142682 
L 68.369963 306.048729 
L 70.411426 306.405997 
L 72.452889 306.918425 
L 74.494353 305.708842 
L 76.535816 305.555679 
L 78.57728 305.195575 
L 80.618743 307.455809 
L 82.660207 307.528617 
L 84.70167 308.385063 
L 86.743133 306.260495 
L 88.784597 304.951974 
L 90.82606 305.357314 
L 92.867524 306.792829 
L 94.908987 306.988116 
L 96.95045 304.369782 
L 98.991914 306.471262 
L 101.033377 305.842236 
L 103.074841 305.386653 
L 105.116304 304.096069 
L 107.157768 304.939524 
L 109.199231 304.228367 
L 111.240694 304.614815 
L 113.282158 303.671198 
L 115.323621 302.876696 
L 117.365085 301.584652 
L 119.406548 300.854315 
L 121.448011 300.159658 
L 123.489475 299.273763 
L 125.530938 298.88193 
L 127.572402 298.008099 
L 129.613865 297.07066 
L 131.655328 295.052234 
L 133.696792 293.444843 
L 135.738255 292.549825 
L 137.779719 290.805851 
L 139.821182 290.192298 
L 141.862646 288.587267 
L 143.904109 286.380577 
L 145.945572 284.478468 
L 147.987036 282.941726 
L 150.028499 280.656296 
L 152.069963 279.098512 
L 154.111426 277.000802 
L 156.152889 275.096329 
L 158.194353 272.820042 
L 160.235816 270.925956 
L 162.27728 268.494075 
L 164.318743 266.493876 
L 166.360207 264.365542 
L 168.40167 261.619732 
L 170.443133 259.043139 
L 172.484597 257.018229 
L 174.52606 254.766056 
L 176.567524 252.13756 
L 178.608987 249.97845 
L 180.65045 247.429261 
L 182.691914 243.898271 
L 184.733377 242.182115 
L 186.774841 239.135684 
L 188.816304 236.659967 
L 190.857768 233.915874 
L 192.899231 230.95892 
L 194.940694 228.062152 
L 196.982158 225.354789 
L 199.023621 221.835007 
L 201.065085 219.499847 
L 203.106548 216.054066 
L 205.148011 213.692575 
L 207.189475 210.167693 
L 209.230938 206.728028 
L 211.272402 203.548163 
L 213.313865 201.010416 
L 215.355328 197.121299 
L 217.396792 194.349307 
L 219.438255 190.85589 
L 221.479719 187.92211 
L 223.521182 184.255624 
L 225.562646 180.977014 
L 227.604109 180.141621 
L 229.645572 174.171515 
L 231.687036 172.828257 
L 233.728499 169.008141 
L 235.769963 166.219503 
L 237.811426 163.02009 
L 239.852889 159.639824 
L 241.894353 156.535877 
L 243.935816 153.52201 
L 245.97728 150.656339 
L 248.018743 147.780655 
L 250.060207 149.034475 
L 252.10167 141.613744 
L 254.143133 139.364338 
L 256.184597 144.476235 
L 258.22606 135.647474 
L 260.267524 136.515934 
L 262.308987 135.094339 
L 264.35045 130.2726 
L 266.391914 130.525263 
L 268.433377 134.259436 
L 270.474841 130.71264 
L 272.516304 128.852383 
L 274.557768 131.052265 
L 276.599231 129.662078 
L 278.640694 131.071674 
L 280.682158 133.138576 
L 282.723621 136.955656 
L 284.765085 146.301343 
L 286.806548 143.755982 
L 288.848011 148.699283 
L 290.889475 152.756206 
L 292.930938 154.81602 
L 294.972402 160.091203 
L 297.013865 164.364477 
L 299.055328 156.468051 
L 301.096792 165.15382 
L 303.138255 176.115874 
L 305.179719 181.461063 
L 307.221182 183.970295 
L 309.262646 198.474822 
L 311.304109 199.757361 
L 313.345572 203.80474 
L 315.387036 202.880974 
L 317.428499 215.151939 
L 319.469963 211.524146 
L 321.511426 209.523478 
L 323.552889 220.025631 
L 325.594353 227.525261 
L 327.635816 227.019268 
L 329.67728 231.527337 
L 331.718743 233.084411 
L 333.760207 233.484359 
L 335.80167 233.616311 
L 337.843133 236.172122 
L 339.884597 237.674014 
L 341.92606 245.338874 
L 343.967524 241.614251 
L 346.008987 248.302105 
L 348.05045 246.957935 
L 350.091914 246.204476 
L 352.133377 248.98981 
L 354.174841 251.484776 
L 356.216304 248.62077 
L 358.257768 250.221104 
L 360.299231 250.440406 
L 362.340694 254.118664 
L 364.382158 252.478913 
L 366.423621 251.772422 
L 368.465085 252.899831 
L 370.506548 254.708352 
L 372.548011 253.959454 
L 374.589475 252.344356 
L 376.630938 253.374716 
L 378.672402 250.866006 
L 380.713865 251.200189 
L 382.755328 255.494178 
L 384.796792 255.289017 
L 386.838255 252.928266 
L 388.879719 252.35999 
L 390.921182 252.650247 
L 392.962646 250.075413 
L 395.004109 250.69706 
L 397.045572 250.678216 
L 399.087036 250.118921 
L 401.128499 249.405863 
L 403.169963 247.790494 
L 405.211426 248.708508 
L 407.252889 247.611717 
L 409.294353 247.349852 
L 411.335816 246.757156 
L 413.37728 246.800933 
L 415.418743 245.558317 
L 417.460207 243.325737 
L 419.50167 243.208386 
L 421.543133 241.394777 
L 423.584597 238.784408 
L 425.62606 240.675849 
L 427.667524 237.127191 
L 429.708987 238.600346 
L 431.75045 237.92223 
L 433.791914 238.170347 
L 435.833377 235.897844 
L 437.874841 235.737878 
L 439.916304 235.416146 
L 441.957768 232.595572 
L 443.999231 233.307883 
L 446.040694 233.066255 
L 448.082158 232.961204 
L 450.123621 231.622701 
L 452.165085 232.260606 
L 454.206548 230.887651 
L 456.248011 229.579778 
L 458.289475 227.508918 
L 460.330938 226.85534 
L 462.372402 226.430277 
L 464.413865 224.994278 
L 466.455328 225.227227 
L 468.496792 224.536652 
L 470.538255 223.265846 
L 472.579719 223.336185 
L 474.621182 221.891632 
L 476.662646 223.132657 
L 478.704109 222.137585 
L 480.745572 222.212617 
L 482.787036 220.420698 
L 484.828499 217.965644 
L 486.869963 220.106095 
L 488.911426 220.066913 
L 490.952889 219.290702 
L 492.994353 218.484755 
L 495.035816 216.787363 
L 497.07728 216.429481 
L 499.118743 215.511969 
L 501.160207 215.689693 
L 503.20167 215.367142 
L 505.243133 213.755239 
L 507.284597 211.453015 
L 509.32606 214.52407 
L 511.367524 213.838492 
L 513.408987 211.890922 
L 515.45045 213.189937 
L 517.491914 209.682406 
L 519.533377 210.155577 
L 521.574841 210.422948 
L 523.616304 208.060399 
L 525.657768 212.197441 
L 527.699231 208.139732 
L 529.740694 206.100987 
L 531.782158 208.825051 
L 533.823621 209.605594 
L 535.865085 208.363074 
L 537.906548 209.471882 
L 539.948011 207.662543 
L 541.989475 211.411801 
L 544.030938 209.63859 
L 546.072402 210.489617 
L 548.113865 208.090724 
L 550.155328 205.951415 
L 552.196792 208.911333 
L 554.238255 214.139667 
L 556.279719 208.436146 
L 558.321182 208.883854 
L 560.362646 206.829042 
L 562.404109 207.977268 
L 564.445572 207.812579 
L 566.487036 206.587835 
L 568.528499 206.204238 
L 570.569963 208.809782 
L 572.611426 207.628937 
L 574.652889 210.017937 
L 576.694353 210.558138 
L 578.735816 204.065073 
L 580.77728 206.898188 
L 582.818743 207.227715 
L 584.860207 207.79367 
L 586.90167 208.303797 
L 588.943133 212.629959 
L 590.984597 214.419347 
L 593.02606 214.323491 
L 595.067524 219.072332 
L 597.108987 226.879994 
L 599.15045 217.794777 
L 601.191914 217.772063 
L 603.233377 218.045296 
L 605.274841 221.180463 
L 607.316304 221.958864 
L 609.357768 222.009804 
L 611.399231 228.723123 
L 613.440694 231.260558 
L 615.482158 223.799393 
L 617.523621 230.711204 
L 619.565085 227.428471 
L 621.606548 225.422163 
L 623.648011 233.822335 
L 625.689475 232.274038 
L 627.730938 237.757145 
L 629.772402 236.252688 
L 631.813865 232.771674 
L 633.855328 236.26822 
L 635.896792 236.416079 
L 637.938255 239.877879 
L 639.979719 237.96355 
L 642.021182 243.589212 
L 644.062646 239.86828 
L 646.104109 242.931981 
L 648.145572 242.544419 
L 650.187036 245.908223 
L 652.228499 240.999852 
L 654.269963 246.650892 
L 656.311426 246.563443 
L 658.352889 250.499613 
L 660.394353 252.674738 
L 662.435816 252.909289 
L 664.47728 252.164447 
L 666.518743 254.777687 
L 668.560207 256.793354 
L 670.60167 255.438971 
L 672.643133 255.04828 
L 674.684597 257.348539 
L 676.72606 259.468279 
L 678.767524 256.36959 
L 680.808987 254.667308 
L 682.85045 262.442413 
L 684.891914 266.085579 
L 686.933377 258.55657 
L 688.974841 261.048999 
L 691.016304 262.383058 
L 693.057768 263.132906 
L 695.099231 267.210809 
L 697.140694 266.902409 
L 699.182158 265.483259 
L 701.223621 267.363383 
L 703.265085 268.005908 
L 705.306548 264.015567 
L 707.348011 266.29046 
L 709.389475 265.140809 
L 711.430938 271.107027 
L 713.472402 278.380139 
L 715.513865 277.555235 
L 717.555328 272.078029 
L 719.596792 271.622077 
L 721.638255 272.532672 
L 723.679719 272.924062 
L 725.721182 278.317028 
L 727.762646 271.781062 
L 729.804109 278.965007 
L 731.845572 284.802437 
L 733.887036 280.239601 
L 735.928499 287.680497 
L 737.969963 283.304919 
L 740.011426 287.471878 
L 742.052889 284.998862 
L 744.094353 287.138062 
L 746.135816 291.184885 
L 748.17728 291.097342 
L 750.218743 292.480054 
L 752.260207 292.997171 
L 754.30167 293.59454 
L 756.343133 284.265261 
L 758.384597 296.695282 
L 760.42606 301.945173 
L 762.467524 297.294373 
L 764.508987 301.958211 
L 766.55045 303.129202 
L 768.591914 300.738917 
L 770.633377 306.014565 
L 772.674841 309.620218 
L 774.716304 307.949463 
L 776.757768 309.526687 
L 778.799231 310.534414 
L 780.840694 312.032716 
L 782.882158 316.070226 
L 784.923621 308.564981 
L 786.965085 318.498608 
L 789.006548 318.998005 
L 791.048011 319.682582 
L 793.089475 314.034704 
L 795.130938 321.642167 
L 797.172402 326.799135 
L 799.213865 322.183129 
L 801.255328 323.038665 
L 803.296792 330.099579 
L 805.338255 318.599229 
L 807.379719 329.936266 
L 809.421182 323.375974 
L 811.462646 333.310797 
L 813.504109 329.10531 
L 815.545572 333.667988 
L 817.587036 335.346531 
L 819.628499 337.545239 
L 821.669963 338.454404 
L 823.711426 336.238825 
L 825.752889 336.643953 
L 827.794353 338.370403 
L 829.835816 343.133698 
L 831.87728 342.937089 
L 833.918743 342.996609 
L 835.960207 346.49828 
L 838.00167 347.084548 
L 840.043133 344.563167 
L 842.084597 345.025786 
L 844.12606 351.417167 
L 846.167524 352.517393 
L 848.208987 354.176099 
L 850.25045 349.880116 
L 852.291914 343.254575 
L 854.333377 350.740819 
L 856.374841 348.580197 
L 858.416304 350.998341 
L 860.457768 355.882704 
L 862.499231 350.186168 
L 864.540694 359.406351 
L 866.582158 351.735899 
L 868.623621 351.573885 
L 870.665085 352.376142 
L 872.706548 359.337764 
L 874.748011 359.059019 
L 876.789475 358.054618 
L 878.830938 351.467842 
L 880.872402 355.612988 
L 882.913865 359.208473 
L 884.955328 356.365735 
L 886.996792 362.614365 
L 889.038255 358.507115 
L 891.079719 362.794785 
L 893.121182 369.376607 
L 895.162646 368.922842 
L 897.204109 363.40936 
L 899.245572 364.105142 
L 901.287036 363.537481 
L 903.328499 366.815711 
L 905.369963 367.265537 
L 907.411426 357.909896 
L 909.452889 366.26628 
L 911.494353 340.186609 
L 913.535816 367.313147 
L 915.57728 370.989338 
L 917.618743 364.773515 
L 919.660207 358.294206 
L 921.70167 372.340902 
L 923.743133 366.869895 
L 925.784597 356.793423 
L 927.82606 364.011443 
L 929.867524 364.667822 
L 931.908987 362.290226 
L 933.95045 369.159466 
L 935.991914 364.915783 
L 938.033377 368.060483 
L 940.074841 370.452066 
L 940.074841 342.211399 
L 940.074841 342.211399 
L 938.033377 345.935544 
L 935.991914 343.890951 
L 933.95045 345.760565 
L 931.908987 342.978882 
L 929.867524 344.25216 
L 927.82606 343.104126 
L 925.784597 343.916483 
L 923.743133 347.237482 
L 921.70167 347.684941 
L 919.660207 345.436553 
L 917.618743 345.999751 
L 915.57728 349.613658 
L 913.535816 347.304837 
L 911.494353 320.50025 
L 909.452889 348.27599 
L 907.411426 346.966338 
L 905.369963 348.957456 
L 903.328499 349.159522 
L 901.287036 348.508364 
L 899.245572 349.714394 
L 897.204109 349.694112 
L 895.162646 351.380136 
L 893.121182 351.835785 
L 891.079719 350.751316 
L 889.038255 349.757816 
L 886.996792 350.493705 
L 884.955328 348.533173 
L 882.913865 349.421826 
L 880.872402 349.013116 
L 878.830938 347.851375 
L 876.789475 350.450847 
L 874.748011 350.877356 
L 872.706548 351.840946 
L 870.665085 348.576619 
L 868.623621 348.819206 
L 866.582158 349.22246 
L 864.540694 351.953339 
L 862.499231 346.996325 
L 860.457768 351.085867 
L 858.416304 348.408978 
L 856.374841 343.131362 
L 854.333377 347.816036 
L 852.291914 327.79376 
L 850.25045 345.788548 
L 848.208987 351.129512 
L 846.167524 349.406881 
L 844.12606 347.994662 
L 842.084597 331.935919 
L 840.043133 332.322127 
L 838.00167 338.003418 
L 835.960207 337.552885 
L 833.918743 328.579706 
L 831.87728 328.969241 
L 829.835816 328.047527 
L 827.794353 319.133185 
L 825.752889 311.357605 
L 823.711426 309.543765 
L 821.669963 315.986432 
L 819.628499 313.874413 
L 817.587036 309.781542 
L 815.545572 305.587236 
L 813.504109 292.384453 
L 811.462646 305.225946 
L 809.421182 271.549965 
L 807.379719 294.044808 
L 805.338255 261.921204 
L 803.296792 296.354825 
L 801.255328 277.066862 
L 799.213865 276.512683 
L 797.172402 286.168335 
L 795.130938 274.31135 
L 793.089475 252.832994 
L 791.048011 268.110807 
L 789.006548 267.601917 
L 786.965085 266.763507 
L 784.923621 241.730436 
L 782.882158 253.814992 
L 780.840694 250.639867 
L 778.799231 248.624303 
L 776.757768 245.628344 
L 774.716304 240.158393 
L 772.674841 244.936641 
L 770.633377 235.517439 
L 768.591914 223.793906 
L 766.55045 233.085982 
L 764.508987 225.317895 
L 762.467524 218.321551 
L 760.42606 228.961842 
L 758.384597 216.767327 
L 756.343133 185.921318 
L 754.30167 208.003241 
L 752.260207 206.826146 
L 750.218743 206.564762 
L 748.17728 203.546322 
L 746.135816 203.382855 
L 744.094353 194.764066 
L 742.052889 191.0119 
L 740.011426 197.173956 
L 737.969963 184.689823 
L 735.928499 196.797758 
L 733.887036 179.632326 
L 731.845572 189.032463 
L 729.804109 177.498773 
L 727.762646 163.315693 
L 725.721182 175.824295 
L 723.679719 163.37378 
L 721.638255 163.968466 
L 719.596792 163.160172 
L 717.555328 164.058869 
L 715.513865 175.310265 
L 713.472402 177.714285 
L 711.430938 163.52546 
L 709.389475 148.976581 
L 707.348011 152.671155 
L 705.306548 149.497585 
L 703.265085 158.116448 
L 701.223621 156.874179 
L 699.182158 152.9652 
L 697.140694 157.324988 
L 695.099231 156.646033 
L 693.057768 149.098037 
L 691.016304 149.66574 
L 688.974841 146.561227 
L 686.933377 142.788008 
L 684.891914 158.841347 
L 682.85045 149.331287 
L 680.808987 136.417742 
L 678.767524 142.170847 
L 676.72606 147.291438 
L 674.684597 143.43652 
L 672.643133 140.421432 
L 670.60167 142.288733 
L 668.560207 147.697482 
L 666.518743 141.220776 
L 664.47728 138.676084 
L 662.435816 140.947128 
L 660.394353 136.796684 
L 658.352889 137.79618 
L 656.311426 129.727588 
L 654.269963 132.317196 
L 652.228499 122.54946 
L 650.187036 130.555942 
L 648.145572 126.46375 
L 646.104109 128.552737 
L 644.062646 125.740632 
L 642.021182 130.57688 
L 639.979719 121.832974 
L 637.938255 127.073869 
L 635.896792 121.521829 
L 633.855328 122.443695 
L 631.813865 118.088708 
L 629.772402 120.216653 
L 627.730938 126.223194 
L 625.689475 120.238991 
L 623.648011 121.617177 
L 621.606548 109.946739 
L 619.565085 115.278536 
L 617.523621 117.973071 
L 615.482158 108.995308 
L 613.440694 118.969197 
L 611.399231 119.732678 
L 609.357768 108.398714 
L 607.316304 108.613963 
L 605.274841 107.827913 
L 603.233377 103.757802 
L 601.191914 106.599954 
L 599.15045 105.602282 
L 597.108987 118.957494 
L 595.067524 109.786892 
L 593.02606 103.032574 
L 590.984597 103.258119 
L 588.943133 101.312385 
L 586.90167 97.264807 
L 584.860207 98.787219 
L 582.818743 96.084014 
L 580.77728 99.260254 
L 578.735816 95.299058 
L 576.694353 102.982661 
L 574.652889 104.055518 
L 572.611426 102.34617 
L 570.569963 104.094514 
L 568.528499 101.228028 
L 566.487036 103.536306 
L 564.445572 104.893054 
L 562.404109 108.508255 
L 560.362646 105.659597 
L 558.321182 109.705778 
L 556.279719 108.927763 
L 554.238255 116.456546 
L 552.196792 111.416852 
L 550.155328 108.74572 
L 548.113865 111.986577 
L 546.072402 113.4674 
L 544.030938 113.604538 
L 541.989475 117.979198 
L 539.948011 114.238426 
L 537.906548 117.186502 
L 535.865085 115.80132 
L 533.823621 116.51893 
L 531.782158 115.282015 
L 529.740694 113.461481 
L 527.699231 116.975837 
L 525.657768 121.645334 
L 523.616304 116.905583 
L 521.574841 119.636311 
L 519.533377 118.458599 
L 517.491914 120.020765 
L 515.45045 123.625588 
L 513.408987 122.408088 
L 511.367524 125.331074 
L 509.32606 126.103634 
L 507.284597 122.815176 
L 505.243133 124.751585 
L 503.20167 126.907871 
L 501.160207 127.682026 
L 499.118743 127.586569 
L 497.07728 129.114416 
L 495.035816 128.861276 
L 492.994353 131.127941 
L 490.952889 131.747527 
L 488.911426 132.2451 
L 486.869963 132.7392 
L 484.828499 128.658914 
L 482.787036 133.125181 
L 480.745572 134.897831 
L 478.704109 134.365424 
L 476.662646 134.48166 
L 474.621182 134.477698 
L 472.579719 135.753851 
L 470.538255 135.284435 
L 468.496792 137.210734 
L 466.455328 137.852431 
L 464.413865 137.330993 
L 462.372402 137.997829 
L 460.330938 138.916039 
L 458.289475 139.868598 
L 456.248011 143.225972 
L 454.206548 143.963558 
L 452.165085 145.552667 
L 450.123621 144.63669 
L 448.082158 146.164444 
L 446.040694 146.242268 
L 443.999231 146.657249 
L 441.957768 144.833751 
L 439.916304 149.591276 
L 437.874841 149.937061 
L 435.833377 150.179759 
L 433.791914 153.008392 
L 431.75045 152.730854 
L 429.708987 153.864843 
L 427.667524 152.318558 
L 425.62606 156.242495 
L 423.584597 154.988856 
L 421.543133 158.771502 
L 419.50167 161.438567 
L 417.460207 162.160271 
L 415.418743 165.534192 
L 413.37728 168.157881 
L 411.335816 167.996144 
L 409.294353 169.58553 
L 407.252889 169.999252 
L 405.211426 172.109501 
L 403.169963 171.430001 
L 401.128499 174.395497 
L 399.087036 176.60022 
L 397.045572 177.887066 
L 395.004109 178.637343 
L 392.962646 179.225901 
L 390.921182 182.445793 
L 388.879719 183.177959 
L 386.838255 185.158592 
L 384.796792 188.095155 
L 382.755328 189.012303 
L 380.713865 186.331401 
L 378.672402 187.121709 
L 376.630938 190.357641 
L 374.589475 190.722665 
L 372.548011 192.948611 
L 370.506548 194.556082 
L 368.465085 193.676847 
L 366.423621 194.663383 
L 364.382158 195.903448 
L 362.340694 198.13552 
L 360.299231 195.659393 
L 358.257768 196.74632 
L 356.216304 196.765929 
L 354.174841 199.952304 
L 352.133377 199.576404 
L 350.091914 197.834582 
L 348.05045 199.543784 
L 346.008987 201.305672 
L 343.967524 196.767748 
L 341.92606 200.998842 
L 339.884597 195.66935 
L 337.843133 195.484394 
L 335.80167 194.466898 
L 333.760207 195.805574 
L 331.718743 196.249932 
L 329.67728 195.674976 
L 327.635816 193.19519 
L 325.594353 195.267889 
L 323.552889 189.363777 
L 321.511426 183.043741 
L 319.469963 184.881928 
L 317.428499 188.388972 
L 315.387036 179.304626 
L 313.345572 179.828419 
L 311.304109 177.718666 
L 309.262646 177.230825 
L 307.221182 165.841747 
L 305.179719 164.991139 
L 303.138255 160.889275 
L 301.096792 151.995519 
L 299.055328 145.69676 
L 297.013865 152.85468 
L 294.972402 149.726162 
L 292.930938 144.232728 
L 290.889475 141.905415 
L 288.848011 137.58797 
L 286.806548 131.677423 
L 284.765085 134.511391 
L 282.723621 123.534221 
L 280.682158 118.389892 
L 278.640694 115.856455 
L 276.599231 113.948838 
L 274.557768 115.413598 
L 272.516304 112.868016 
L 270.474841 115.356153 
L 268.433377 118.955618 
L 266.391914 114.00619 
L 264.35045 113.800016 
L 262.308987 119.301 
L 260.267524 120.868846 
L 258.22606 119.255448 
L 256.184597 130.198076 
L 254.143133 123.159651 
L 252.10167 126.1003 
L 250.060207 134.586411 
L 248.018743 132.787527 
L 245.97728 136.216093 
L 243.935816 139.348585 
L 241.894353 142.957852 
L 239.852889 146.423846 
L 237.811426 150.291656 
L 235.769963 153.914501 
L 233.728499 156.975649 
L 231.687036 161.540461 
L 229.645572 163.038618 
L 227.604109 170.020341 
L 225.562646 170.816362 
L 223.521182 174.586011 
L 221.479719 178.894763 
L 219.438255 182.243761 
L 217.396792 185.709029 
L 215.355328 188.452845 
L 213.313865 192.23946 
L 211.272402 194.695456 
L 209.230938 197.594149 
L 207.189475 200.911278 
L 205.148011 204.278074 
L 203.106548 206.49384 
L 201.065085 209.748418 
L 199.023621 212.095618 
L 196.982158 215.418268 
L 194.940694 218.077084 
L 192.899231 220.715743 
L 190.857768 223.588917 
L 188.816304 226.173017 
L 186.774841 228.420913 
L 184.733377 231.219912 
L 182.691914 232.820111 
L 180.65045 236.175678 
L 178.608987 238.548138 
L 176.567524 240.673973 
L 174.52606 243.18877 
L 172.484597 244.852656 
L 170.443133 247.112713 
L 168.40167 249.419821 
L 166.360207 251.918669 
L 164.318743 253.895967 
L 162.27728 255.837045 
L 160.235816 257.922318 
L 158.194353 259.929189 
L 156.152889 262.06518 
L 154.111426 263.817164 
L 152.069963 265.692632 
L 150.028499 267.263744 
L 147.987036 269.334462 
L 145.945572 270.891334 
L 143.904109 272.614487 
L 141.862646 274.700582 
L 139.821182 276.199867 
L 137.779719 276.765035 
L 135.738255 278.477545 
L 133.696792 279.430798 
L 131.655328 281.072739 
L 129.613865 282.951687 
L 127.572402 283.980388 
L 125.530938 284.936795 
L 123.489475 285.20967 
L 121.448011 286.177466 
L 119.406548 286.780477 
L 117.365085 287.416274 
L 115.323621 288.716692 
L 113.282158 289.490324 
L 111.240694 290.568271 
L 109.199231 290.004935 
L 107.157768 290.587881 
L 105.116304 289.664564 
L 103.074841 291.091373 
L 101.033377 291.290281 
L 98.991914 292.313957 
L 96.95045 290.03171 
L 94.908987 292.692237 
L 92.867524 292.419756 
L 90.82606 290.796016 
L 88.784597 290.321824 
L 86.743133 291.637019 
L 84.70167 293.970528 
L 82.660207 292.935286 
L 80.618743 292.775235 
L 78.57728 290.21209 
L 76.535816 290.045821 
L 74.494353 290.606974 
L 72.452889 291.949512 
L 70.411426 291.309818 
L 68.369963 290.839218 
L 66.328499 290.906733 
L 64.287036 291.649285 
L 62.245572 291.263352 
L 60.204109 291.667321 
L 58.162646 292.453455 
L 56.121182 291.594024 
L 54.079719 292.811473 
L 52.038255 292.846642 
L 49.996792 292.835254 
L 47.955328 293.542256 
L 45.913865 293.589407 
L 43.872402 294.395795 
L 41.830938 295.295767 
L 39.789475 295.141624 
L 37.748011 294.539592 
L 35.706548 294.061371 
L 33.665085 296.168586 
L 31.623621 295.613504 
L 29.582158 296.981307 
L 27.540694 296.854386 
L 25.499231 296.11569 
L 23.457768 297.476493 
L 21.416304 295.921565 
L 19.374841 295.847253 
L 17.333377 297.625015 
L 15.291914 296.105258 
L 13.25045 297.784571 
L 11.208987 298.235681 
L 9.167524 296.577728 
L 7.12606 291.586746 
L 5.084597 294.581316 
L 3.043133 292.97569 
L 1.00167 285.622683 
L -1.039793 291.689468 
L -3.081257 292.851773 
L -5.12272 286.051097 
L -7.164184 284.119335 
L -9.205647 287.616068 
L -11.247111 280.257369 
L -13.288574 267.435605 
L -15.330037 281.388126 
L -17.371501 286.835832 
L -19.412964 289.493778 
L -21.454428 271.912142 
L -23.495891 272.581407 
L -25.537354 263.630459 
L -27.578818 256.633553 
L -29.620281 270.575739 
L -31.661745 264.533049 
L -33.703208 252.01239 
L -35.744672 243.228138 
L -37.786135 243.740935 
L -39.827598 245.240575 
L -41.869062 243.375478 
L -43.910525 242.280809 
L -45.951989 247.274645 
L -47.993452 246.668742 
L -50.034915 243.385924 
L -52.076379 245.384398 
L -54.117842 244.044694 
L -56.159306 243.549582 
L -58.200769 243.690408 
L -60.242232 245.669375 
L -62.283696 246.849313 
L -64.325159 247.540586 
L -66.366623 249.266345 
L -68.408086 250.094669 
L -70.44955 251.500951 
L -72.491013 253.698101 
L -74.532476 255.45031 
L -76.57394 256.631421 
L -78.615403 257.947089 
L -80.656867 259.676792 
L -82.69833 260.776448 
L -84.739793 262.434691 
L -86.781257 264.440288 
L -88.82272 265.651878 
L -90.864184 266.493276 
L -92.905647 267.744767 
L -94.947111 269.017229 
L -96.988574 270.182951 
L -99.030037 271.297743 
L -101.071501 272.372153 
L -103.112964 273.838958 
L -105.154428 274.610279 
L -107.195891 275.68831 
L -109.237354 276.820129 
L -111.278818 277.791739 
L -113.320281 278.742967 
L -115.361745 279.531216 
L -117.403208 280.387929 
L -119.444672 281.522007 
L -121.486135 282.319157 
L -123.527598 283.248435 
L -125.569062 284.004219 
L -127.610525 284.846704 
L -129.651989 285.710698 
L -131.693452 286.589184 
L -133.734915 287.311015 
L -135.776379 288.163293 
L -137.817842 288.912342 
L -139.859306 289.71461 
L -141.900769 290.46155 
L -143.942232 291.232143 
L -145.983696 291.951065 
L -148.025159 292.716258 
L -150.066623 293.533201 
L -152.108086 294.16146 
L -154.14955 294.925662 
L -156.191013 295.584354 
L -158.232476 296.347781 
L -160.27394 296.906324 
L -162.315403 297.616364 
L -164.356867 298.292878 
L -166.39833 298.936984 
L -168.439793 299.592367 
L -170.481257 300.198647 
L -172.52272 300.905459 
L -174.564184 301.541637 
L -176.605647 302.066003 
L -178.647111 302.688633 
L -180.688574 303.310384 
L -182.730037 303.929104 
L -184.771501 304.526153 
L -186.812964 305.082903 
L -188.854428 305.69559 
L -190.895891 306.296261 
L -192.937354 306.899963 
L -194.978818 307.50156 
L -197.020281 308.119389 
L -199.061745 308.761532 
L -201.103208 309.315062 
L -203.144672 309.948587 
L -205.186135 310.570138 
L -207.227598 311.166988 
L -209.269062 311.782795 
L -211.310525 312.411248 
L -213.351989 313.021144 
L -215.393452 313.66121 
L -217.434915 314.245257 
L -219.476379 314.841091 
L -221.517842 315.470875 
L -223.559306 316.079373 
L -225.600769 316.657009 
L -227.642232 317.268418 
L -229.683696 317.826908 
L -231.725159 318.423994 
L -233.766623 319.06004 
L -235.808086 319.606279 
L -237.84955 320.217575 
L -239.891013 320.796468 
L -241.932476 321.403601 
L -243.97394 321.95336 
L -246.015403 322.595935 
L -248.056867 323.128543 
L -250.09833 323.725772 
L -252.139793 324.310124 
L -254.181257 324.909303 
L -256.22272 325.478769 
L -258.264184 326.058877 
L -260.305647 326.641379 
L -262.347111 327.243508 
L -264.388574 327.802879 
L -266.430037 328.328694 
L -268.471501 328.853162 
L -270.512964 329.380843 
L -272.554428 329.89054 
L -274.595891 330.408795 
L -276.637354 330.920773 
L -278.678818 331.409704 
L -280.720281 331.904262 
L -282.761745 332.396137 
L -284.803208 332.843945 
L -286.844672 333.299271 
L -288.886135 333.774077 
L -290.927598 334.223971 
L -292.969062 334.626741 
L -295.010525 335.070117 
L -297.051989 335.475523 
L -299.093452 335.849333 
L -301.134915 336.223232 
L -303.176379 336.573061 
L -305.217842 336.949851 
L -307.259306 337.261796 
L -309.300769 337.591086 
L -311.342232 337.901214 
L -313.383696 338.188828 
L -315.425159 338.451204 
L -317.466623 338.689948 
L -319.508086 338.927104 
L -321.54955 339.162165 
L -323.591013 339.357275 
L -325.632476 339.574914 
L -327.67394 339.759616 
L -329.715403 339.919126 
L -331.756867 340.105704 
L -333.79833 340.26925 
L -335.839793 340.404997 
L -337.881257 340.550514 
L -339.92272 340.692019 
L -341.964184 340.816643 
L -344.005647 340.941688 
L -346.047111 341.045386 
L -348.088574 341.170325 
L -350.130037 341.270025 
L -352.171501 341.374728 
L -354.212964 341.484505 
L -356.254428 341.574308 
L -358.295891 341.669353 
L -360.337354 341.793231 
L -362.378818 341.881066 
L -364.420281 341.98841 
L -366.461745 342.073596 
L -368.503208 342.186599 
L -370.544672 342.276212 
L -372.586135 342.370906 
L -374.627598 342.453761 
L -376.669062 342.528889 
L -378.710525 342.614569 
L -380.751989 342.70907 
L -382.793452 342.800987 
L -384.834915 342.878996 
L -386.876379 342.942092 
L -388.917842 343.032788 
L -390.959306 343.10693 
L -393.000769 343.196255 
z
" clip-path="url(#pe71e1745e5)" style="fill: #008000; fill-opacity: 0.3; stroke: #008000; stroke-opacity: 0.3"/>
   </g>
   <g id="matplotlib.axis_1">
    <g id="xtick_1">
     <g id="line2d_1">
      <defs>
       <path id="mce61545a93" d="M 0 0 
L 0 3.5 
" style="stroke: #000000; stroke-width: 0.8"/>
      </defs>
      <g>
       <use xlink:href="#mce61545a93" x="103.074841" y="395.28" style="stroke: #000000; stroke-width: 0.8"/>
      </g>
     </g>
     <g id="text_1">
      <!-- 2022-03-01 -->
      <g transform="translate(17.945813 495.213718) rotate(-45) scale(0.2 -0.2)">
       <defs>
        <path id="DejaVuSans-32" d="M 1228 531 
L 3431 531 
L 3431 0 
L 469 0 
L 469 531 
Q 828 903 1448 1529 
Q 2069 2156 2228 2338 
Q 2531 2678 2651 2914 
Q 2772 3150 2772 3378 
Q 2772 3750 2511 3984 
Q 2250 4219 1831 4219 
Q 1534 4219 1204 4116 
Q 875 4013 500 3803 
L 500 4441 
Q 881 4594 1212 4672 
Q 1544 4750 1819 4750 
Q 2544 4750 2975 4387 
Q 3406 4025 3406 3419 
Q 3406 3131 3298 2873 
Q 3191 2616 2906 2266 
Q 2828 2175 2409 1742 
Q 1991 1309 1228 531 
z
" transform="scale(0.015625)"/>
        <path id="DejaVuSans-30" d="M 2034 4250 
Q 1547 4250 1301 3770 
Q 1056 3291 1056 2328 
Q 1056 1369 1301 889 
Q 1547 409 2034 409 
Q 2525 409 2770 889 
Q 3016 1369 3016 2328 
Q 3016 3291 2770 3770 
Q 2525 4250 2034 4250 
z
M 2034 4750 
Q 2819 4750 3233 4129 
Q 3647 3509 3647 2328 
Q 3647 1150 3233 529 
Q 2819 -91 2034 -91 
Q 1250 -91 836 529 
Q 422 1150 422 2328 
Q 422 3509 836 4129 
Q 1250 4750 2034 4750 
z
" transform="scale(0.015625)"/>
        <path id="DejaVuSans-2d" d="M 313 2009 
L 1997 2009 
L 1997 1497 
L 313 1497 
L 313 2009 
z
" transform="scale(0.015625)"/>
        <path id="DejaVuSans-33" d="M 2597 2516 
Q 3050 2419 3304 2112 
Q 3559 1806 3559 1356 
Q 3559 666 3084 287 
Q 2609 -91 1734 -91 
Q 1441 -91 1130 -33 
Q 819 25 488 141 
L 488 750 
Q 750 597 1062 519 
Q 1375 441 1716 441 
Q 2309 441 2620 675 
Q 2931 909 2931 1356 
Q 2931 1769 2642 2001 
Q 2353 2234 1838 2234 
L 1294 2234 
L 1294 2753 
L 1863 2753 
Q 2328 2753 2575 2939 
Q 2822 3125 2822 3475 
Q 2822 3834 2567 4026 
Q 2313 4219 1838 4219 
Q 1578 4219 1281 4162 
Q 984 4106 628 3988 
L 628 4550 
Q 988 4650 1302 4700 
Q 1616 4750 1894 4750 
Q 2613 4750 3031 4423 
Q 3450 4097 3450 3541 
Q 3450 3153 3228 2886 
Q 3006 2619 2597 2516 
z
" transform="scale(0.015625)"/>
        <path id="DejaVuSans-31" d="M 794 531 
L 1825 531 
L 1825 4091 
L 703 3866 
L 703 4441 
L 1819 4666 
L 2450 4666 
L 2450 531 
L 3481 531 
L 3481 0 
L 794 0 
L 794 531 
z
" transform="scale(0.015625)"/>
       </defs>
       <use xlink:href="#DejaVuSans-32"/>
       <use xlink:href="#DejaVuSans-30" x="63.623047"/>
       <use xlink:href="#DejaVuSans-32" x="127.246094"/>
       <use xlink:href="#DejaVuSans-32" x="190.869141"/>
       <use xlink:href="#DejaVuSans-2d" x="254.492188"/>
       <use xlink:href="#DejaVuSans-30" x="290.576172"/>
       <use xlink:href="#DejaVuSans-33" x="354.199219"/>
       <use xlink:href="#DejaVuSans-2d" x="417.822266"/>
       <use xlink:href="#DejaVuSans-30" x="453.90625"/>
       <use xlink:href="#DejaVuSans-31" x="517.529297"/>
      </g>
     </g>
    </g>
    <g id="xtick_2">
     <g id="line2d_2">
      <g>
       <use xlink:href="#mce61545a93" x="160.235816" y="395.28" style="stroke: #000000; stroke-width: 0.8"/>
      </g>
     </g>
     <g id="text_2">
      <!-- 2022-03-29 -->
      <g transform="translate(75.106789 495.213718) rotate(-45) scale(0.2 -0.2)">
       <defs>
        <path id="DejaVuSans-39" d="M 703 97 
L 703 672 
Q 941 559 1184 500 
Q 1428 441 1663 441 
Q 2288 441 2617 861 
Q 2947 1281 2994 2138 
Q 2813 1869 2534 1725 
Q 2256 1581 1919 1581 
Q 1219 1581 811 2004 
Q 403 2428 403 3163 
Q 403 3881 828 4315 
Q 1253 4750 1959 4750 
Q 2769 4750 3195 4129 
Q 3622 3509 3622 2328 
Q 3622 1225 3098 567 
Q 2575 -91 1691 -91 
Q 1453 -91 1209 -44 
Q 966 3 703 97 
z
M 1959 2075 
Q 2384 2075 2632 2365 
Q 2881 2656 2881 3163 
Q 2881 3666 2632 3958 
Q 2384 4250 1959 4250 
Q 1534 4250 1286 3958 
Q 1038 3666 1038 3163 
Q 1038 2656 1286 2365 
Q 1534 2075 1959 2075 
z
" transform="scale(0.015625)"/>
       </defs>
       <use xlink:href="#DejaVuSans-32"/>
       <use xlink:href="#DejaVuSans-30" x="63.623047"/>
       <use xlink:href="#DejaVuSans-32" x="127.246094"/>
       <use xlink:href="#DejaVuSans-32" x="190.869141"/>
       <use xlink:href="#DejaVuSans-2d" x="254.492188"/>
       <use xlink:href="#DejaVuSans-30" x="290.576172"/>
       <use xlink:href="#DejaVuSans-33" x="354.199219"/>
       <use xlink:href="#DejaVuSans-2d" x="417.822266"/>
       <use xlink:href="#DejaVuSans-32" x="453.90625"/>
       <use xlink:href="#DejaVuSans-39" x="517.529297"/>
      </g>
     </g>
    </g>
    <g id="xtick_3">
     <g id="line2d_3">
      <g>
       <use xlink:href="#mce61545a93" x="217.396792" y="395.28" style="stroke: #000000; stroke-width: 0.8"/>
      </g>
     </g>
     <g id="text_3">
      <!-- 2022-04-26 -->
      <g transform="translate(132.267765 495.213718) rotate(-45) scale(0.2 -0.2)">
       <defs>
        <path id="DejaVuSans-34" d="M 2419 4116 
L 825 1625 
L 2419 1625 
L 2419 4116 
z
M 2253 4666 
L 3047 4666 
L 3047 1625 
L 3713 1625 
L 3713 1100 
L 3047 1100 
L 3047 0 
L 2419 0 
L 2419 1100 
L 313 1100 
L 313 1709 
L 2253 4666 
z
" transform="scale(0.015625)"/>
        <path id="DejaVuSans-36" d="M 2113 2584 
Q 1688 2584 1439 2293 
Q 1191 2003 1191 1497 
Q 1191 994 1439 701 
Q 1688 409 2113 409 
Q 2538 409 2786 701 
Q 3034 994 3034 1497 
Q 3034 2003 2786 2293 
Q 2538 2584 2113 2584 
z
M 3366 4563 
L 3366 3988 
Q 3128 4100 2886 4159 
Q 2644 4219 2406 4219 
Q 1781 4219 1451 3797 
Q 1122 3375 1075 2522 
Q 1259 2794 1537 2939 
Q 1816 3084 2150 3084 
Q 2853 3084 3261 2657 
Q 3669 2231 3669 1497 
Q 3669 778 3244 343 
Q 2819 -91 2113 -91 
Q 1303 -91 875 529 
Q 447 1150 447 2328 
Q 447 3434 972 4092 
Q 1497 4750 2381 4750 
Q 2619 4750 2861 4703 
Q 3103 4656 3366 4563 
z
" transform="scale(0.015625)"/>
       </defs>
       <use xlink:href="#DejaVuSans-32"/>
       <use xlink:href="#DejaVuSans-30" x="63.623047"/>
       <use xlink:href="#DejaVuSans-32" x="127.246094"/>
       <use xlink:href="#DejaVuSans-32" x="190.869141"/>
       <use xlink:href="#DejaVuSans-2d" x="254.492188"/>
       <use xlink:href="#DejaVuSans-30" x="290.576172"/>
       <use xlink:href="#DejaVuSans-34" x="354.199219"/>
       <use xlink:href="#DejaVuSans-2d" x="417.822266"/>
       <use xlink:href="#DejaVuSans-32" x="453.90625"/>
       <use xlink:href="#DejaVuSans-36" x="517.529297"/>
      </g>
     </g>
    </g>
    <g id="xtick_4">
     <g id="line2d_4">
      <g>
       <use xlink:href="#mce61545a93" x="274.557768" y="395.28" style="stroke: #000000; stroke-width: 0.8"/>
      </g>
     </g>
     <g id="text_4">
      <!-- 2022-05-24 -->
      <g transform="translate(189.42874 495.213718) rotate(-45) scale(0.2 -0.2)">
       <defs>
        <path id="DejaVuSans-35" d="M 691 4666 
L 3169 4666 
L 3169 4134 
L 1269 4134 
L 1269 2991 
Q 1406 3038 1543 3061 
Q 1681 3084 1819 3084 
Q 2600 3084 3056 2656 
Q 3513 2228 3513 1497 
Q 3513 744 3044 326 
Q 2575 -91 1722 -91 
Q 1428 -91 1123 -41 
Q 819 9 494 109 
L 494 744 
Q 775 591 1075 516 
Q 1375 441 1709 441 
Q 2250 441 2565 725 
Q 2881 1009 2881 1497 
Q 2881 1984 2565 2268 
Q 2250 2553 1709 2553 
Q 1456 2553 1204 2497 
Q 953 2441 691 2322 
L 691 4666 
z
" transform="scale(0.015625)"/>
       </defs>
       <use xlink:href="#DejaVuSans-32"/>
       <use xlink:href="#DejaVuSans-30" x="63.623047"/>
       <use xlink:href="#DejaVuSans-32" x="127.246094"/>
       <use xlink:href="#DejaVuSans-32" x="190.869141"/>
       <use xlink:href="#DejaVuSans-2d" x="254.492188"/>
       <use xlink:href="#DejaVuSans-30" x="290.576172"/>
       <use xlink:href="#DejaVuSans-35" x="354.199219"/>
       <use xlink:href="#DejaVuSans-2d" x="417.822266"/>
       <use xlink:href="#DejaVuSans-32" x="453.90625"/>
       <use xlink:href="#DejaVuSans-34" x="517.529297"/>
      </g>
     </g>
    </g>
    <g id="xtick_5">
     <g id="line2d_5">
      <g>
       <use xlink:href="#mce61545a93" x="331.718743" y="395.28" style="stroke: #000000; stroke-width: 0.8"/>
      </g>
     </g>
     <g id="text_5">
      <!-- 2022-06-21 -->
      <g transform="translate(246.589716 495.213718) rotate(-45) scale(0.2 -0.2)">
       <use xlink:href="#DejaVuSans-32"/>
       <use xlink:href="#DejaVuSans-30" x="63.623047"/>
       <use xlink:href="#DejaVuSans-32" x="127.246094"/>
       <use xlink:href="#DejaVuSans-32" x="190.869141"/>
       <use xlink:href="#DejaVuSans-2d" x="254.492188"/>
       <use xlink:href="#DejaVuSans-30" x="290.576172"/>
       <use xlink:href="#DejaVuSans-36" x="354.199219"/>
       <use xlink:href="#DejaVuSans-2d" x="417.822266"/>
       <use xlink:href="#DejaVuSans-32" x="453.90625"/>
       <use xlink:href="#DejaVuSans-31" x="517.529297"/>
      </g>
     </g>
    </g>
    <g id="xtick_6">
     <g id="line2d_6">
      <g>
       <use xlink:href="#mce61545a93" x="388.879719" y="395.28" style="stroke: #000000; stroke-width: 0.8"/>
      </g>
     </g>
     <g id="text_6">
      <!-- 2022-07-19 -->
      <g transform="translate(303.750691 495.213718) rotate(-45) scale(0.2 -0.2)">
       <defs>
        <path id="DejaVuSans-37" d="M 525 4666 
L 3525 4666 
L 3525 4397 
L 1831 0 
L 1172 0 
L 2766 4134 
L 525 4134 
L 525 4666 
z
" transform="scale(0.015625)"/>
       </defs>
       <use xlink:href="#DejaVuSans-32"/>
       <use xlink:href="#DejaVuSans-30" x="63.623047"/>
       <use xlink:href="#DejaVuSans-32" x="127.246094"/>
       <use xlink:href="#DejaVuSans-32" x="190.869141"/>
       <use xlink:href="#DejaVuSans-2d" x="254.492188"/>
       <use xlink:href="#DejaVuSans-30" x="290.576172"/>
       <use xlink:href="#DejaVuSans-37" x="354.199219"/>
       <use xlink:href="#DejaVuSans-2d" x="417.822266"/>
       <use xlink:href="#DejaVuSans-31" x="453.90625"/>
       <use xlink:href="#DejaVuSans-39" x="517.529297"/>
      </g>
     </g>
    </g>
    <g id="xtick_7">
     <g id="line2d_7">
      <g>
       <use xlink:href="#mce61545a93" x="446.040694" y="395.28" style="stroke: #000000; stroke-width: 0.8"/>
      </g>
     </g>
     <g id="text_7">
      <!-- 2022-08-16 -->
      <g transform="translate(360.911667 495.213718) rotate(-45) scale(0.2 -0.2)">
       <defs>
        <path id="DejaVuSans-38" d="M 2034 2216 
Q 1584 2216 1326 1975 
Q 1069 1734 1069 1313 
Q 1069 891 1326 650 
Q 1584 409 2034 409 
Q 2484 409 2743 651 
Q 3003 894 3003 1313 
Q 3003 1734 2745 1975 
Q 2488 2216 2034 2216 
z
M 1403 2484 
Q 997 2584 770 2862 
Q 544 3141 544 3541 
Q 544 4100 942 4425 
Q 1341 4750 2034 4750 
Q 2731 4750 3128 4425 
Q 3525 4100 3525 3541 
Q 3525 3141 3298 2862 
Q 3072 2584 2669 2484 
Q 3125 2378 3379 2068 
Q 3634 1759 3634 1313 
Q 3634 634 3220 271 
Q 2806 -91 2034 -91 
Q 1263 -91 848 271 
Q 434 634 434 1313 
Q 434 1759 690 2068 
Q 947 2378 1403 2484 
z
M 1172 3481 
Q 1172 3119 1398 2916 
Q 1625 2713 2034 2713 
Q 2441 2713 2670 2916 
Q 2900 3119 2900 3481 
Q 2900 3844 2670 4047 
Q 2441 4250 2034 4250 
Q 1625 4250 1398 4047 
Q 1172 3844 1172 3481 
z
" transform="scale(0.015625)"/>
       </defs>
       <use xlink:href="#DejaVuSans-32"/>
       <use xlink:href="#DejaVuSans-30" x="63.623047"/>
       <use xlink:href="#DejaVuSans-32" x="127.246094"/>
       <use xlink:href="#DejaVuSans-32" x="190.869141"/>
       <use xlink:href="#DejaVuSans-2d" x="254.492188"/>
       <use xlink:href="#DejaVuSans-30" x="290.576172"/>
       <use xlink:href="#DejaVuSans-38" x="354.199219"/>
       <use xlink:href="#DejaVuSans-2d" x="417.822266"/>
       <use xlink:href="#DejaVuSans-31" x="453.90625"/>
       <use xlink:href="#DejaVuSans-36" x="517.529297"/>
      </g>
     </g>
    </g>
    <g id="xtick_8">
     <g id="line2d_8">
      <g>
       <use xlink:href="#mce61545a93" x="503.20167" y="395.28" style="stroke: #000000; stroke-width: 0.8"/>
      </g>
     </g>
     <g id="text_8">
      <!-- 2022-09-13 -->
      <g transform="translate(418.072643 495.213718) rotate(-45) scale(0.2 -0.2)">
       <use xlink:href="#DejaVuSans-32"/>
       <use xlink:href="#DejaVuSans-30" x="63.623047"/>
       <use xlink:href="#DejaVuSans-32" x="127.246094"/>
       <use xlink:href="#DejaVuSans-32" x="190.869141"/>
       <use xlink:href="#DejaVuSans-2d" x="254.492188"/>
       <use xlink:href="#DejaVuSans-30" x="290.576172"/>
       <use xlink:href="#DejaVuSans-39" x="354.199219"/>
       <use xlink:href="#DejaVuSans-2d" x="417.822266"/>
       <use xlink:href="#DejaVuSans-31" x="453.90625"/>
       <use xlink:href="#DejaVuSans-33" x="517.529297"/>
      </g>
     </g>
    </g>
    <g id="xtick_9">
     <g id="line2d_9">
      <g>
       <use xlink:href="#mce61545a93" x="560.362646" y="395.28" style="stroke: #000000; stroke-width: 0.8"/>
      </g>
     </g>
     <g id="text_9">
      <!-- 2022-10-11 -->
      <g transform="translate(475.233618 495.213718) rotate(-45) scale(0.2 -0.2)">
       <use xlink:href="#DejaVuSans-32"/>
       <use xlink:href="#DejaVuSans-30" x="63.623047"/>
       <use xlink:href="#DejaVuSans-32" x="127.246094"/>
       <use xlink:href="#DejaVuSans-32" x="190.869141"/>
       <use xlink:href="#DejaVuSans-2d" x="254.492188"/>
       <use xlink:href="#DejaVuSans-31" x="290.576172"/>
       <use xlink:href="#DejaVuSans-30" x="354.199219"/>
       <use xlink:href="#DejaVuSans-2d" x="417.822266"/>
       <use xlink:href="#DejaVuSans-31" x="453.90625"/>
       <use xlink:href="#DejaVuSans-31" x="517.529297"/>
      </g>
     </g>
    </g>
    <g id="xtick_10">
     <g id="line2d_10">
      <g>
       <use xlink:href="#mce61545a93" x="617.523621" y="395.28" style="stroke: #000000; stroke-width: 0.8"/>
      </g>
     </g>
     <g id="text_10">
      <!-- 2022-11-08 -->
      <g transform="translate(532.394594 495.213718) rotate(-45) scale(0.2 -0.2)">
       <use xlink:href="#DejaVuSans-32"/>
       <use xlink:href="#DejaVuSans-30" x="63.623047"/>
       <use xlink:href="#DejaVuSans-32" x="127.246094"/>
       <use xlink:href="#DejaVuSans-32" x="190.869141"/>
       <use xlink:href="#DejaVuSans-2d" x="254.492188"/>
       <use xlink:href="#DejaVuSans-31" x="290.576172"/>
       <use xlink:href="#DejaVuSans-31" x="354.199219"/>
       <use xlink:href="#DejaVuSans-2d" x="417.822266"/>
       <use xlink:href="#DejaVuSans-30" x="453.90625"/>
       <use xlink:href="#DejaVuSans-38" x="517.529297"/>
      </g>
     </g>
    </g>
    <g id="xtick_11">
     <g id="line2d_11">
      <g>
       <use xlink:href="#mce61545a93" x="674.684597" y="395.28" style="stroke: #000000; stroke-width: 0.8"/>
      </g>
     </g>
     <g id="text_11">
      <!-- 2022-12-06 -->
      <g transform="translate(589.555569 495.213718) rotate(-45) scale(0.2 -0.2)">
       <use xlink:href="#DejaVuSans-32"/>
       <use xlink:href="#DejaVuSans-30" x="63.623047"/>
       <use xlink:href="#DejaVuSans-32" x="127.246094"/>
       <use xlink:href="#DejaVuSans-32" x="190.869141"/>
       <use xlink:href="#DejaVuSans-2d" x="254.492188"/>
       <use xlink:href="#DejaVuSans-31" x="290.576172"/>
       <use xlink:href="#DejaVuSans-32" x="354.199219"/>
       <use xlink:href="#DejaVuSans-2d" x="417.822266"/>
       <use xlink:href="#DejaVuSans-30" x="453.90625"/>
       <use xlink:href="#DejaVuSans-36" x="517.529297"/>
      </g>
     </g>
    </g>
    <g id="xtick_12">
     <g id="line2d_12">
      <g>
       <use xlink:href="#mce61545a93" x="731.845572" y="395.28" style="stroke: #000000; stroke-width: 0.8"/>
      </g>
     </g>
     <g id="text_12">
      <!-- 2023-01-03 -->
      <g transform="translate(646.716545 495.213718) rotate(-45) scale(0.2 -0.2)">
       <use xlink:href="#DejaVuSans-32"/>
       <use xlink:href="#DejaVuSans-30" x="63.623047"/>
       <use xlink:href="#DejaVuSans-32" x="127.246094"/>
       <use xlink:href="#DejaVuSans-33" x="190.869141"/>
       <use xlink:href="#DejaVuSans-2d" x="254.492188"/>
       <use xlink:href="#DejaVuSans-30" x="290.576172"/>
       <use xlink:href="#DejaVuSans-31" x="354.199219"/>
       <use xlink:href="#DejaVuSans-2d" x="417.822266"/>
       <use xlink:href="#DejaVuSans-30" x="453.90625"/>
       <use xlink:href="#DejaVuSans-33" x="517.529297"/>
      </g>
     </g>
    </g>
    <g id="xtick_13">
     <g id="line2d_13">
      <g>
       <use xlink:href="#mce61545a93" x="789.006548" y="395.28" style="stroke: #000000; stroke-width: 0.8"/>
      </g>
     </g>
     <g id="text_13">
      <!-- 2023-01-31 -->
      <g transform="translate(703.877521 495.213718) rotate(-45) scale(0.2 -0.2)">
       <use xlink:href="#DejaVuSans-32"/>
       <use xlink:href="#DejaVuSans-30" x="63.623047"/>
       <use xlink:href="#DejaVuSans-32" x="127.246094"/>
       <use xlink:href="#DejaVuSans-33" x="190.869141"/>
       <use xlink:href="#DejaVuSans-2d" x="254.492188"/>
       <use xlink:href="#DejaVuSans-30" x="290.576172"/>
       <use xlink:href="#DejaVuSans-31" x="354.199219"/>
       <use xlink:href="#DejaVuSans-2d" x="417.822266"/>
       <use xlink:href="#DejaVuSans-33" x="453.90625"/>
       <use xlink:href="#DejaVuSans-31" x="517.529297"/>
      </g>
     </g>
    </g>
    <g id="xtick_14">
     <g id="line2d_14">
      <g>
       <use xlink:href="#mce61545a93" x="846.167524" y="395.28" style="stroke: #000000; stroke-width: 0.8"/>
      </g>
     </g>
     <g id="text_14">
      <!-- 2023-02-28 -->
      <g transform="translate(761.038496 495.213718) rotate(-45) scale(0.2 -0.2)">
       <use xlink:href="#DejaVuSans-32"/>
       <use xlink:href="#DejaVuSans-30" x="63.623047"/>
       <use xlink:href="#DejaVuSans-32" x="127.246094"/>
       <use xlink:href="#DejaVuSans-33" x="190.869141"/>
       <use xlink:href="#DejaVuSans-2d" x="254.492188"/>
       <use xlink:href="#DejaVuSans-30" x="290.576172"/>
       <use xlink:href="#DejaVuSans-32" x="354.199219"/>
       <use xlink:href="#DejaVuSans-2d" x="417.822266"/>
       <use xlink:href="#DejaVuSans-32" x="453.90625"/>
       <use xlink:href="#DejaVuSans-38" x="517.529297"/>
      </g>
     </g>
    </g>
    <g id="xtick_15">
     <g id="line2d_15">
      <g>
       <use xlink:href="#mce61545a93" x="903.328499" y="395.28" style="stroke: #000000; stroke-width: 0.8"/>
      </g>
     </g>
     <g id="text_15">
      <!-- 2023-03-28 -->
      <g transform="translate(818.199472 495.213718) rotate(-45) scale(0.2 -0.2)">
       <use xlink:href="#DejaVuSans-32"/>
       <use xlink:href="#DejaVuSans-30" x="63.623047"/>
       <use xlink:href="#DejaVuSans-32" x="127.246094"/>
       <use xlink:href="#DejaVuSans-33" x="190.869141"/>
       <use xlink:href="#DejaVuSans-2d" x="254.492188"/>
       <use xlink:href="#DejaVuSans-30" x="290.576172"/>
       <use xlink:href="#DejaVuSans-33" x="354.199219"/>
       <use xlink:href="#DejaVuSans-2d" x="417.822266"/>
       <use xlink:href="#DejaVuSans-32" x="453.90625"/>
       <use xlink:href="#DejaVuSans-38" x="517.529297"/>
      </g>
     </g>
    </g>
    <g id="xtick_16">
     <g id="line2d_16">
      <g>
       <use xlink:href="#mce61545a93" x="940.074841" y="395.28" style="stroke: #000000; stroke-width: 0.8"/>
      </g>
     </g>
     <g id="text_16">
      <!-- 2023-04-15 -->
      <g transform="translate(854.945813 495.213718) rotate(-45) scale(0.2 -0.2)">
       <use xlink:href="#DejaVuSans-32"/>
       <use xlink:href="#DejaVuSans-30" x="63.623047"/>
       <use xlink:href="#DejaVuSans-32" x="127.246094"/>
       <use xlink:href="#DejaVuSans-33" x="190.869141"/>
       <use xlink:href="#DejaVuSans-2d" x="254.492188"/>
       <use xlink:href="#DejaVuSans-30" x="290.576172"/>
       <use xlink:href="#DejaVuSans-34" x="354.199219"/>
       <use xlink:href="#DejaVuSans-2d" x="417.822266"/>
       <use xlink:href="#DejaVuSans-31" x="453.90625"/>
       <use xlink:href="#DejaVuSans-35" x="517.529297"/>
      </g>
     </g>
    </g>
   </g>
   <g id="matplotlib.axis_2">
    <g id="ytick_1">
     <g id="line2d_17">
      <defs>
       <path id="mb02765835a" d="M 0 0 
L -3.5 0 
" style="stroke: #000000; stroke-width: 0.8"/>
      </defs>
      <g>
       <use xlink:href="#mb02765835a" x="103.074841" y="343.281238" style="stroke: #000000; stroke-width: 0.8"/>
      </g>
     </g>
     <g id="text_17">
      <!-- 0.00 -->
      <g transform="translate(51.543591 350.879676) scale(0.2 -0.2)">
       <defs>
        <path id="DejaVuSans-2e" d="M 684 794 
L 1344 794 
L 1344 0 
L 684 0 
L 684 794 
z
" transform="scale(0.015625)"/>
       </defs>
       <use xlink:href="#DejaVuSans-30"/>
       <use xlink:href="#DejaVuSans-2e" x="63.623047"/>
       <use xlink:href="#DejaVuSans-30" x="95.410156"/>
       <use xlink:href="#DejaVuSans-30" x="159.033203"/>
      </g>
     </g>
    </g>
    <g id="ytick_2">
     <g id="line2d_18">
      <g>
       <use xlink:href="#mb02765835a" x="103.074841" y="278.58725" style="stroke: #000000; stroke-width: 0.8"/>
      </g>
     </g>
     <g id="text_18">
      <!-- 0.05 -->
      <g transform="translate(51.543591 286.185687) scale(0.2 -0.2)">
       <use xlink:href="#DejaVuSans-30"/>
       <use xlink:href="#DejaVuSans-2e" x="63.623047"/>
       <use xlink:href="#DejaVuSans-30" x="95.410156"/>
       <use xlink:href="#DejaVuSans-35" x="159.033203"/>
      </g>
     </g>
    </g>
    <g id="ytick_3">
     <g id="line2d_19">
      <g>
       <use xlink:href="#mb02765835a" x="103.074841" y="213.893262" style="stroke: #000000; stroke-width: 0.8"/>
      </g>
     </g>
     <g id="text_19">
      <!-- 0.10 -->
      <g transform="translate(51.543591 221.491699) scale(0.2 -0.2)">
       <use xlink:href="#DejaVuSans-30"/>
       <use xlink:href="#DejaVuSans-2e" x="63.623047"/>
       <use xlink:href="#DejaVuSans-31" x="95.410156"/>
       <use xlink:href="#DejaVuSans-30" x="159.033203"/>
      </g>
     </g>
    </g>
    <g id="ytick_4">
     <g id="line2d_20">
      <g>
       <use xlink:href="#mb02765835a" x="103.074841" y="149.199274" style="stroke: #000000; stroke-width: 0.8"/>
      </g>
     </g>
     <g id="text_20">
      <!-- 0.15 -->
      <g transform="translate(51.543591 156.797711) scale(0.2 -0.2)">
       <use xlink:href="#DejaVuSans-30"/>
       <use xlink:href="#DejaVuSans-2e" x="63.623047"/>
       <use xlink:href="#DejaVuSans-31" x="95.410156"/>
       <use xlink:href="#DejaVuSans-35" x="159.033203"/>
      </g>
     </g>
    </g>
    <g id="ytick_5">
     <g id="line2d_21">
      <g>
       <use xlink:href="#mb02765835a" x="103.074841" y="84.505285" style="stroke: #000000; stroke-width: 0.8"/>
      </g>
     </g>
     <g id="text_21">
      <!-- 0.20 -->
      <g transform="translate(51.543591 92.103723) scale(0.2 -0.2)">
       <use xlink:href="#DejaVuSans-30"/>
       <use xlink:href="#DejaVuSans-2e" x="63.623047"/>
       <use xlink:href="#DejaVuSans-32" x="95.410156"/>
       <use xlink:href="#DejaVuSans-30" x="159.033203"/>
      </g>
     </g>
    </g>
    <g id="ytick_6">
     <g id="line2d_22">
      <g>
       <use xlink:href="#mb02765835a" x="103.074841" y="19.811297" style="stroke: #000000; stroke-width: 0.8"/>
      </g>
     </g>
     <g id="text_22">
      <!-- 0.25 -->
      <g transform="translate(51.543591 27.409735) scale(0.2 -0.2)">
       <use xlink:href="#DejaVuSans-30"/>
       <use xlink:href="#DejaVuSans-2e" x="63.623047"/>
       <use xlink:href="#DejaVuSans-32" x="95.410156"/>
       <use xlink:href="#DejaVuSans-35" x="159.033203"/>
      </g>
     </g>
    </g>
   </g>
   <g id="line2d_23">
    <path d="M 691.016304 66.37081 
L 693.057768 58.281265 
L 697.140694 58.281265 
L 699.182158 42.252102 
L 701.223621 24.84 
L 703.265085 24.84 
L 705.306548 107.292083 
L 707.348011 240.608736 
L 711.430938 192.168855 
L 713.472402 258.073721 
L 717.555328 279.057895 
L 719.596792 260.880471 
L 721.638255 252.590552 
L 723.679719 263.987514 
L 725.721182 263.987514 
L 727.762646 259.221288 
L 729.804109 271.758312 
L 731.845572 277.15874 
L 733.887036 271.341879 
L 735.928499 271.731815 
L 737.969963 242.698249 
L 740.011426 265.401789 
L 742.052889 278.782641 
L 744.094353 245.250071 
L 746.135816 248.5661 
L 748.17728 245.715342 
L 750.218743 256.791789 
L 752.260207 241.615309 
L 754.30167 238.307893 
L 756.343133 230.53172 
L 758.384597 230.953093 
L 760.42606 227.31536 
L 762.467524 233.21982 
L 764.508987 237.027029 
L 766.55045 239.965656 
L 768.591914 238.135269 
L 770.633377 230.426361 
L 772.674841 238.757622 
L 774.716304 256.553147 
L 776.757768 252.480611 
L 778.799231 256.278526 
L 780.840694 262.583903 
L 782.882158 271.591416 
L 784.923621 260.190303 
L 786.965085 263.803039 
L 789.006548 263.273581 
L 791.048011 264.046738 
L 793.089475 267.006437 
L 797.172402 260.689493 
L 799.213865 279.598272 
L 801.255328 288.947147 
L 803.296792 287.602476 
L 805.338255 288.344293 
L 807.379719 297.444203 
L 809.421182 294.736594 
L 811.462646 293.970345 
L 813.504109 297.969209 
L 815.545572 309.706147 
L 817.587036 310.437099 
L 819.628499 314.414133 
L 821.669963 313.405366 
L 823.711426 316.479786 
L 825.752889 322.008157 
L 827.794353 317.165672 
L 829.835816 313.733208 
L 831.87728 311.494473 
L 833.918743 316.871762 
L 835.960207 320.305969 
L 838.00167 317.720372 
L 840.043133 322.821758 
L 842.084597 324.067464 
L 844.12606 326.65171 
L 846.167524 326.144577 
L 848.208987 332.643871 
L 850.25045 334.054522 
L 852.291914 352.09638 
L 854.333377 352.449193 
L 856.374841 353.208987 
L 858.416304 361.439639 
L 860.457768 358.445956 
L 862.499231 362.094496 
L 864.540694 362.7749 
L 866.582158 355.114934 
L 868.623621 357.636939 
L 870.665085 356.514598 
L 872.706548 359.33956 
L 874.748011 365.137351 
L 876.789475 367.23779 
L 878.830938 359.184596 
L 880.872402 360.57392 
L 882.913865 350.229419 
L 884.955328 354.897285 
L 886.996792 350.122221 
L 889.038255 351.340126 
L 891.079719 356.080823 
L 893.121182 353.941362 
L 895.162646 357.725722 
L 897.204109 377.64 
L 899.245572 375.802154 
L 901.287036 377.63966 
L 903.328499 374.690342 
L 905.369963 366.14739 
L 907.411426 365.896421 
L 909.452889 374.893439 
L 911.494353 371.791561 
L 913.535816 368.06253 
L 915.57728 355.125183 
L 917.618743 356.284452 
L 919.660207 349.15432 
L 921.70167 336.105843 
L 923.743133 341.978414 
L 925.784597 336.355656 
L 927.82606 325.827854 
L 929.867524 322.081653 
L 931.908987 318.778516 
L 933.95045 319.758053 
L 935.991914 316.982836 
L 938.033377 319.470933 
L 940.074841 315.4603 
L 940.074841 315.4603 
" clip-path="url(#pe71e1745e5)" style="fill: none; stroke: #ffa500; stroke-width: 1.5; stroke-linecap: square"/>
   </g>
   <g id="line2d_24">
    <path d="M 103.074841 343.281238 
L 948.274841 343.281238 
" clip-path="url(#pe71e1745e5)" style="fill: none; stroke-dasharray: 7.4,3.2; stroke-dashoffset: 0; stroke: #000000; stroke-width: 2"/>
   </g>
   <g id="patch_3">
    <path d="M 103.074841 395.28 
L 103.074841 7.2 
" style="fill: none; stroke: #000000; stroke-width: 0.8; stroke-linejoin: miter; stroke-linecap: square"/>
   </g>
   <g id="patch_4">
    <path d="M 940.074841 395.28 
L 940.074841 7.2 
" style="fill: none; stroke: #000000; stroke-width: 0.8; stroke-linejoin: miter; stroke-linecap: square"/>
   </g>
   <g id="patch_5">
    <path d="M 103.074841 395.28 
L 940.074841 395.28 
" style="fill: none; stroke: #000000; stroke-width: 0.8; stroke-linejoin: miter; stroke-linecap: square"/>
   </g>
   <g id="patch_6">
    <path d="M 103.074841 7.2 
L 940.074841 7.2 
" style="fill: none; stroke: #000000; stroke-width: 0.8; stroke-linejoin: miter; stroke-linecap: square"/>
   </g>
  </g>
 </g>
 <defs>
  <clipPath id="pe71e1745e5">
   <rect x="103.074841" y="7.2" width="837" height="388.08"/>
  </clipPath>
 </defs>
</svg>
