<?xml version="1.0" encoding="utf-8" standalone="no"?>
<!DOCTYPE svg PUBLIC "-//W3C//DTD SVG 1.1//EN"
  "http://www.w3.org/Graphics/SVG/1.1/DTD/svg11.dtd">
<svg xmlns:xlink="http://www.w3.org/1999/xlink" width="1040.965466pt" height="509.669557pt" viewBox="0 0 1040.965466 509.669557" xmlns="http://www.w3.org/2000/svg" version="1.1">
 <metadata>
  <rdf:RDF xmlns:dc="http://purl.org/dc/elements/1.1/" xmlns:cc="http://creativecommons.org/ns#" xmlns:rdf="http://www.w3.org/1999/02/22-rdf-syntax-ns#">
   <cc:Work>
    <dc:type rdf:resource="http://purl.org/dc/dcmitype/StillImage"/>
    <dc:date>2023-11-29T15:47:45.302085</dc:date>
    <dc:format>image/svg+xml</dc:format>
    <dc:creator>
     <cc:Agent>
      <dc:title>Matplotlib v3.7.2, https://matplotlib.org/</dc:title>
     </cc:Agent>
    </dc:creator>
   </cc:Work>
  </rdf:RDF>
 </metadata>
 <defs>
  <style type="text/css">*{stroke-linejoin: round; stroke-linecap: butt}</style>
 </defs>
 <g id="figure_1">
  <g id="patch_1">
   <path d="M 0 509.669557 
L 1040.965466 509.669557 
L 1040.965466 0 
L 0 0 
z
" style="fill: #ffffff"/>
  </g>
  <g id="axes_1">
   <g id="patch_2">
    <path d="M 103.074841 399.594717 
L 940.074841 399.594717 
L 940.074841 11.514717 
L 103.074841 11.514717 
z
" style="fill: #ffffff"/>
   </g>
   <g id="PolyCollection_1">
    <path d="M -393.000769 330.126167 
L -393.000769 330.140489 
L -390.959306 330.058054 
L -388.917842 329.989732 
L -386.876379 329.90803 
L -384.834915 329.85399 
L -382.793452 329.795701 
L -380.751989 329.72453 
L -378.710525 329.654428 
L -376.669062 329.589506 
L -374.627598 329.53657 
L -372.586135 329.471549 
L -370.544672 329.399795 
L -368.503208 329.329233 
L -366.461745 329.248584 
L -364.420281 329.181685 
L -362.378818 329.103185 
L -360.337354 329.031754 
L -358.295891 328.939887 
L -356.254428 328.863987 
L -354.212964 328.791093 
L -352.171501 328.702774 
L -350.130037 328.616702 
L -348.088574 328.533892 
L -346.047111 328.433824 
L -344.005647 328.346842 
L -341.964184 328.239507 
L -339.92272 328.13838 
L -337.881257 328.01921 
L -335.839793 327.896015 
L -333.79833 327.779964 
L -331.756867 327.648435 
L -329.715403 327.493049 
L -327.67394 327.358287 
L -325.632476 327.203431 
L -323.591013 327.024667 
L -321.54955 326.854057 
L -319.508086 326.666051 
L -317.466623 326.468331 
L -315.425159 326.267824 
L -313.383696 326.050231 
L -311.342232 325.805398 
L -309.300769 325.557733 
L -307.259306 325.294155 
L -305.217842 325.032869 
L -303.176379 324.733218 
L -301.134915 324.447161 
L -299.093452 324.134945 
L -297.051989 323.836269 
L -295.010525 323.502105 
L -292.969062 323.144751 
L -290.927598 322.8095 
L -288.886135 322.4505 
L -286.844672 322.068866 
L -284.803208 321.69747 
L -282.761745 321.320874 
L -280.720281 320.925168 
L -278.678818 320.526461 
L -276.637354 320.124796 
L -274.595891 319.704821 
L -272.554428 319.279847 
L -270.512964 318.857654 
L -268.471501 318.41985 
L -266.430037 317.981922 
L -264.388574 317.545379 
L -262.347111 317.088125 
L -260.305647 316.61798 
L -258.264184 316.151495 
L -256.22272 315.6866 
L -254.181257 315.226625 
L -252.139793 314.752192 
L -250.09833 314.287032 
L -248.056867 313.812267 
L -246.015403 313.382242 
L -243.97394 312.879321 
L -241.932476 312.446295 
L -239.891013 311.950276 
L -237.84955 311.506887 
L -235.808086 311.023941 
L -233.766623 310.598124 
L -231.725159 310.107529 
L -229.683696 309.64948 
L -227.642232 309.220364 
L -225.600769 308.744347 
L -223.559306 308.315373 
L -221.517842 307.858545 
L -219.476379 307.390994 
L -217.434915 306.941673 
L -215.393452 306.510705 
L -213.351989 306.043772 
L -211.310525 305.596577 
L -209.269062 305.137276 
L -207.227598 304.687307 
L -205.186135 304.257021 
L -203.144672 303.812747 
L -201.103208 303.36287 
L -199.061745 302.962998 
L -197.020281 302.501608 
L -194.978818 302.061303 
L -192.937354 301.628406 
L -190.895891 301.194125 
L -188.854428 300.76031 
L -186.812964 300.319541 
L -184.771501 299.900822 
L -182.730037 299.462834 
L -180.688574 299.01218 
L -178.647111 298.55559 
L -176.605647 298.093216 
L -174.564184 297.663109 
L -172.52272 297.185162 
L -170.481257 296.672561 
L -168.439793 296.189094 
L -166.39833 295.686837 
L -164.356867 295.171945 
L -162.315403 294.625872 
L -160.27394 294.069735 
L -158.232476 293.556709 
L -156.191013 292.96581 
L -154.14955 292.407077 
L -152.108086 291.802783 
L -150.066623 291.252261 
L -148.025159 290.597191 
L -145.983696 289.956708 
L -143.942232 289.33646 
L -141.900769 288.705318 
L -139.859306 288.054063 
L -137.817842 287.371668 
L -135.776379 286.736546 
L -133.734915 286.001955 
L -131.693452 285.363841 
L -129.651989 284.607669 
L -127.610525 283.878068 
L -125.569062 283.168002 
L -123.527598 282.428111 
L -121.486135 281.658102 
L -119.444672 280.971946 
L -117.403208 280.046894 
L -115.361745 279.261307 
L -113.320281 278.535289 
L -111.278818 277.7077 
L -109.237354 276.838206 
L -107.195891 275.860941 
L -105.154428 274.953932 
L -103.112964 274.201839 
L -101.071501 272.972011 
L -99.030037 272.00171 
L -96.988574 271.01137 
L -94.947111 269.984162 
L -92.905647 268.805313 
L -90.864184 267.683827 
L -88.82272 266.88156 
L -86.781257 265.851747 
L -84.739793 264.062261 
L -82.69833 262.564299 
L -80.656867 261.478294 
L -78.615403 260.043124 
L -76.57394 258.690704 
L -74.532476 257.687793 
L -72.491013 256.001748 
L -70.44955 254.169075 
L -68.408086 252.956948 
L -66.366623 252.207801 
L -64.325159 250.636328 
L -62.283696 249.977262 
L -60.242232 248.931102 
L -58.200769 247.342743 
L -56.159306 247.022043 
L -54.117842 247.623249 
L -52.076379 248.87808 
L -50.034915 247.190884 
L -47.993452 250.20267 
L -45.951989 251.11132 
L -43.910525 246.855966 
L -41.869062 247.945807 
L -39.827598 250.20169 
L -37.786135 249.14595 
L -35.744672 249.011706 
L -33.703208 257.422298 
L -31.661745 269.512387 
L -29.620281 275.451328 
L -27.578818 262.514523 
L -25.537354 269.191242 
L -23.495891 278.008572 
L -21.454428 277.55218 
L -19.412964 295.336722 
L -17.371501 292.753528 
L -15.330037 287.371705 
L -13.288574 273.890595 
L -11.247111 286.639664 
L -9.205647 294.116861 
L -7.164184 291.099066 
L -5.12272 292.868624 
L -3.081257 300.057579 
L -1.039793 299.109785 
L 1.00167 292.89247 
L 3.043133 300.624568 
L 5.084597 302.14256 
L 7.12606 299.358856 
L 9.167524 304.313027 
L 11.208987 306.223279 
L 13.25045 305.541125 
L 15.291914 304.020655 
L 17.333377 305.62898 
L 19.374841 303.952006 
L 21.416304 304.085133 
L 23.457768 305.66608 
L 25.499231 304.1382 
L 27.540694 304.864942 
L 29.582158 304.901151 
L 31.623621 303.712262 
L 33.665085 304.128911 
L 35.706548 302.426667 
L 37.748011 302.530941 
L 39.789475 303.001718 
L 41.830938 303.01549 
L 43.872402 302.184577 
L 45.913865 301.477196 
L 47.955328 301.303751 
L 49.996792 300.525325 
L 52.038255 300.407521 
L 54.079719 300.252914 
L 56.121182 299.102171 
L 58.162646 299.661629 
L 60.204109 298.864595 
L 62.245572 298.514866 
L 64.287036 298.537346 
L 66.328499 297.780804 
L 68.369963 297.601629 
L 70.411426 297.847868 
L 72.452889 298.230725 
L 74.494353 296.962221 
L 76.535816 296.741423 
L 78.57728 296.298504 
L 80.618743 298.388552 
L 82.660207 298.418533 
L 84.70167 299.213044 
L 86.743133 297.062968 
L 88.784597 295.724892 
L 90.82606 296.041757 
L 92.867524 297.373545 
L 94.908987 297.508524 
L 96.95045 294.900604 
L 98.991914 296.939913 
L 101.033377 296.249468 
L 103.074841 295.830181 
L 105.116304 294.491356 
L 107.157768 295.284605 
L 109.199231 294.56947 
L 111.240694 294.928024 
L 113.282158 294.005696 
L 115.323621 293.212904 
L 117.365085 291.949627 
L 119.406548 291.227896 
L 121.448011 290.54787 
L 123.489475 289.666846 
L 125.530938 289.327005 
L 127.572402 288.483782 
L 129.613865 287.594974 
L 131.655328 285.623414 
L 133.696792 284.101144 
L 135.738255 283.253328 
L 137.779719 281.590591 
L 139.821182 281.032755 
L 141.862646 279.503997 
L 143.904109 277.382756 
L 145.945572 275.571788 
L 147.987036 274.13938 
L 150.028499 271.975315 
L 152.069963 270.463402 
L 154.111426 268.597713 
L 156.152889 266.8144 
L 158.194353 264.775622 
L 160.235816 262.867345 
L 162.27728 260.662453 
L 164.318743 258.760493 
L 166.360207 256.699716 
L 168.40167 254.187303 
L 170.443133 251.842808 
L 172.484597 249.966016 
L 174.52606 247.963441 
L 176.567524 245.472195 
L 178.608987 243.386234 
L 180.65045 240.83868 
L 182.691914 237.499358 
L 184.733377 235.634795 
L 186.774841 233.209964 
L 188.816304 230.981397 
L 190.857768 228.512301 
L 192.899231 225.495447 
L 194.940694 222.99711 
L 196.982158 220.212622 
L 199.023621 216.870382 
L 201.065085 214.744724 
L 203.106548 211.595562 
L 205.148011 209.375474 
L 207.189475 206.272981 
L 209.230938 202.742819 
L 211.272402 199.997017 
L 213.313865 197.603886 
L 215.355328 194.056396 
L 217.396792 191.27629 
L 219.438255 188.015064 
L 221.479719 185.302691 
L 223.521182 181.760878 
L 225.562646 178.505664 
L 227.604109 177.907593 
L 229.645572 172.236893 
L 231.687036 170.929813 
L 233.728499 167.19477 
L 235.769963 164.804656 
L 237.811426 161.504515 
L 239.852889 158.505285 
L 241.894353 155.621769 
L 243.935816 152.506847 
L 245.97728 150.249738 
L 248.018743 147.584713 
L 250.060207 148.689297 
L 252.10167 141.668886 
L 254.143133 139.982335 
L 256.184597 144.296695 
L 258.22606 136.748152 
L 260.267524 137.546279 
L 262.308987 136.591194 
L 264.35045 132.009549 
L 266.391914 132.303341 
L 268.433377 135.620632 
L 270.474841 132.355426 
L 272.516304 131.029359 
L 274.557768 132.779915 
L 276.599231 132.555241 
L 278.640694 133.057788 
L 280.682158 136.043337 
L 282.723621 139.330053 
L 284.765085 148.04827 
L 286.806548 145.51615 
L 288.848011 150.341035 
L 290.889475 153.519129 
L 292.930938 156.406393 
L 294.972402 160.274156 
L 297.013865 163.124527 
L 299.055328 156.937082 
L 301.096792 161.332824 
L 303.138255 171.708721 
L 305.179719 177.462008 
L 307.221182 179.634544 
L 309.262646 193.025289 
L 311.304109 195.079527 
L 313.345572 198.518892 
L 315.387036 197.156819 
L 317.428499 209.037951 
L 319.469963 205.387781 
L 321.511426 202.503628 
L 323.552889 213.258803 
L 325.594353 219.408151 
L 327.635816 218.987869 
L 329.67728 223.70597 
L 331.718743 225.140602 
L 333.760207 225.016987 
L 335.80167 224.730598 
L 337.843133 226.768571 
L 339.884597 228.856559 
L 341.92606 235.871414 
L 343.967524 231.143619 
L 346.008987 237.452937 
L 348.05045 235.99232 
L 350.091914 235.473633 
L 352.133377 237.534742 
L 354.174841 239.093498 
L 356.216304 235.924933 
L 358.257768 237.999942 
L 360.299231 238.090635 
L 362.340694 241.127847 
L 364.382158 239.331541 
L 366.423621 237.676592 
L 368.465085 239.238074 
L 370.506548 239.218413 
L 372.548011 238.249285 
L 374.589475 236.570379 
L 376.630938 237.268536 
L 378.672402 234.441517 
L 380.713865 234.031704 
L 382.755328 237.548863 
L 384.796792 236.701266 
L 386.838255 234.139118 
L 388.879719 233.301009 
L 390.921182 232.770143 
L 392.962646 229.534705 
L 395.004109 230.108493 
L 397.045572 229.452972 
L 399.087036 228.373983 
L 401.128499 227.262276 
L 403.169963 225.100747 
L 405.211426 225.698711 
L 407.252889 224.2312 
L 409.294353 222.983401 
L 411.335816 221.940583 
L 413.37728 220.944689 
L 415.418743 219.676439 
L 417.460207 216.864628 
L 419.50167 215.704697 
L 421.543133 213.824991 
L 423.584597 210.605511 
L 425.62606 212.28346 
L 427.667524 208.173462 
L 429.708987 208.742372 
L 431.75045 208.132895 
L 433.791914 207.737686 
L 435.833377 205.213952 
L 437.874841 204.560987 
L 439.916304 204.354264 
L 441.957768 200.59927 
L 443.999231 201.285594 
L 446.040694 200.309097 
L 448.082158 200.410137 
L 450.123621 197.921986 
L 452.165085 198.354188 
L 454.206548 197.397185 
L 456.248011 194.479445 
L 458.289475 193.351617 
L 460.330938 192.180396 
L 462.372402 191.662526 
L 464.413865 190.097593 
L 466.455328 189.679419 
L 468.496792 188.791959 
L 470.538255 187.910941 
L 472.579719 187.075684 
L 474.621182 184.965456 
L 476.662646 186.237342 
L 478.704109 186.148466 
L 480.745572 184.406277 
L 482.787036 183.286607 
L 484.828499 181.042676 
L 486.869963 182.546512 
L 488.911426 182.298185 
L 490.952889 181.471667 
L 492.994353 180.304663 
L 495.035816 178.864365 
L 497.07728 177.417542 
L 499.118743 177.507211 
L 501.160207 176.734982 
L 503.20167 176.652922 
L 505.243133 174.76728 
L 507.284597 172.824478 
L 509.32606 174.813369 
L 511.367524 172.740042 
L 513.408987 172.548106 
L 515.45045 173.715104 
L 517.491914 169.212477 
L 519.533377 169.741219 
L 521.574841 170.480998 
L 523.616304 168.309754 
L 525.657768 170.737256 
L 527.699231 167.916614 
L 529.740694 165.707735 
L 531.782158 167.790249 
L 533.823621 168.138055 
L 535.865085 166.355004 
L 537.906548 166.097068 
L 539.948011 165.408024 
L 541.989475 169.460238 
L 544.030938 168.373892 
L 546.072402 168.520073 
L 548.113865 165.512516 
L 550.155328 162.843009 
L 552.196792 165.651036 
L 554.238255 169.287685 
L 556.279719 165.763097 
L 558.321182 164.693632 
L 560.362646 162.256493 
L 562.404109 162.728874 
L 564.445572 163.52285 
L 566.487036 160.832687 
L 568.528499 160.265151 
L 570.569963 162.960061 
L 572.611426 160.81051 
L 574.652889 163.498134 
L 576.694353 163.915932 
L 578.735816 158.456815 
L 580.77728 159.060789 
L 582.818743 158.734269 
L 584.860207 159.619808 
L 586.90167 161.569868 
L 588.943133 166.344123 
L 590.984597 167.789591 
L 593.02606 167.116354 
L 595.067524 171.348604 
L 597.108987 179.780007 
L 599.15045 170.104026 
L 601.191914 167.677105 
L 603.233377 170.715553 
L 605.274841 173.50581 
L 607.316304 173.964272 
L 609.357768 172.699123 
L 611.399231 178.297566 
L 613.440694 181.702627 
L 615.482158 175.712212 
L 617.523621 181.758091 
L 619.565085 178.486093 
L 621.606548 178.259204 
L 623.648011 184.114935 
L 625.689475 184.137902 
L 627.730938 187.633726 
L 629.772402 187.89729 
L 631.813865 182.502663 
L 633.855328 186.70769 
L 635.896792 186.672786 
L 637.938255 190.717502 
L 639.979719 189.369783 
L 642.021182 193.755264 
L 644.062646 190.21297 
L 646.104109 192.601248 
L 648.145572 192.684224 
L 650.187036 195.557093 
L 652.228499 190.379841 
L 654.269963 195.881488 
L 656.311426 196.674201 
L 658.352889 199.243326 
L 660.394353 202.251223 
L 662.435816 201.571265 
L 664.47728 200.411331 
L 666.518743 203.511368 
L 668.560207 206.899009 
L 670.60167 204.515376 
L 672.643133 202.599689 
L 674.684597 205.575786 
L 676.72606 207.586724 
L 678.767524 203.325146 
L 680.808987 202.45479 
L 682.85045 210.11337 
L 684.891914 212.334952 
L 686.933377 204.734117 
L 688.974841 207.628552 
L 691.016304 208.695842 
L 693.057768 209.608499 
L 695.099231 213.789735 
L 697.140694 212.419564 
L 699.182158 210.151312 
L 701.223621 212.690402 
L 703.265085 213.492183 
L 705.306548 209.372953 
L 707.348011 210.715975 
L 709.389475 210.328367 
L 711.430938 217.802932 
L 713.472402 223.316094 
L 715.513865 223.626407 
L 717.555328 218.122133 
L 719.596792 215.369865 
L 721.638255 216.764936 
L 723.679719 217.163307 
L 725.721182 224.244145 
L 727.762646 216.323672 
L 729.804109 223.277379 
L 731.845572 228.014304 
L 733.887036 224.192802 
L 735.928499 231.975933 
L 737.969963 226.669319 
L 740.011426 230.130978 
L 742.052889 228.172759 
L 744.094353 231.243829 
L 746.135816 235.104784 
L 748.17728 233.706368 
L 750.218743 236.200102 
L 752.260207 236.103963 
L 754.30167 237.533662 
L 756.343133 228.702274 
L 758.384597 241.361598 
L 760.42606 246.823035 
L 762.467524 241.284678 
L 764.508987 245.719954 
L 766.55045 247.448495 
L 768.591914 245.288009 
L 770.633377 250.102539 
L 772.674841 254.370903 
L 774.716304 253.624575 
L 776.757768 255.053837 
L 778.799231 255.910202 
L 780.840694 257.712497 
L 782.882158 261.156507 
L 784.923621 254.616695 
L 786.965085 264.61109 
L 789.006548 265.381861 
L 791.048011 264.820999 
L 793.089475 259.606864 
L 795.130938 267.576268 
L 797.172402 274.038853 
L 799.213865 268.044512 
L 801.255328 269.246932 
L 803.296792 277.266443 
L 805.338255 263.967405 
L 807.379719 276.717033 
L 809.421182 270.269007 
L 811.462646 281.442237 
L 813.504109 275.854909 
L 815.545572 281.677903 
L 817.587036 282.584741 
L 819.628499 285.919983 
L 821.669963 286.750222 
L 823.711426 284.422915 
L 825.752889 284.071953 
L 827.794353 287.264761 
L 829.835816 292.122034 
L 831.87728 292.017794 
L 833.918743 292.602844 
L 835.960207 296.057369 
L 838.00167 296.578005 
L 840.043133 295.029931 
L 842.084597 295.251617 
L 844.12606 300.710437 
L 846.167524 301.720858 
L 848.208987 303.288008 
L 850.25045 300.458823 
L 852.291914 295.724879 
L 854.333377 302.466332 
L 856.374841 300.535341 
L 858.416304 302.88711 
L 860.457768 305.742311 
L 862.499231 302.750299 
L 864.540694 306.893496 
L 866.582158 304.454386 
L 868.623621 304.728977 
L 870.665085 304.586706 
L 872.706548 308.676158 
L 874.748011 307.827191 
L 876.789475 307.465067 
L 878.830938 305.898607 
L 880.872402 306.877053 
L 882.913865 307.769255 
L 884.955328 307.675936 
L 886.996792 310.111075 
L 889.038255 309.266824 
L 891.079719 311.347067 
L 893.121182 312.341549 
L 895.162646 312.682786 
L 897.204109 312.254141 
L 899.245572 311.527912 
L 901.287036 311.14751 
L 903.328499 312.334498 
L 905.369963 312.328559 
L 907.411426 310.30825 
L 909.452889 312.528766 
L 911.494353 303.343883 
L 913.535816 312.190237 
L 915.57728 314.872194 
L 917.618743 311.219268 
L 919.660207 310.95362 
L 921.70167 313.533791 
L 923.743133 313.847255 
L 925.784597 309.897387 
L 927.82606 310.349054 
L 929.867524 311.137676 
L 931.908987 310.70376 
L 933.95045 314.32186 
L 935.991914 311.817095 
L 938.033377 314.583677 
L 940.074841 310.864668 
L 940.074841 289.901182 
L 940.074841 289.901182 
L 938.033377 288.264424 
L 935.991914 285.36966 
L 933.95045 289.650274 
L 931.908987 280.248245 
L 929.867524 282.00744 
L 927.82606 281.736977 
L 925.784597 272.720418 
L 923.743133 283.741316 
L 921.70167 288.17165 
L 919.660207 273.666245 
L 917.618743 280.798198 
L 915.57728 287.925768 
L 913.535816 282.708711 
L 911.494353 229.897599 
L 909.452889 281.075405 
L 907.411426 270.744437 
L 905.369963 281.498345 
L 903.328499 280.798369 
L 901.287036 277.126994 
L 899.245572 276.424216 
L 897.204109 276.418747 
L 895.162646 280.873929 
L 893.121182 279.718287 
L 891.079719 274.652482 
L 889.038255 267.490954 
L 886.996792 272.590049 
L 884.955328 264.973147 
L 882.913865 266.128646 
L 880.872402 261.807303 
L 878.830938 258.725136 
L 876.789475 264.394694 
L 874.748011 265.027143 
L 872.706548 266.16711 
L 870.665085 256.387202 
L 868.623621 255.381318 
L 866.582158 254.248323 
L 864.540694 264.043517 
L 862.499231 250.421408 
L 860.457768 260.595135 
L 858.416304 252.546147 
L 856.374841 245.216019 
L 854.333377 252.198401 
L 852.291914 228.648732 
L 850.25045 247.475288 
L 848.208987 255.483834 
L 846.167524 251.222595 
L 844.12606 249.477074 
L 842.084597 229.846398 
L 840.043133 232.228846 
L 838.00167 237.84785 
L 835.960207 237.19418 
L 833.918743 227.571299 
L 831.87728 227.594392 
L 829.835816 226.862104 
L 827.794353 217.629039 
L 825.752889 206.16868 
L 823.711426 207.08942 
L 821.669963 213.946632 
L 819.628499 212.453923 
L 817.587036 205.731813 
L 815.545572 203.786349 
L 813.504109 187.231317 
L 811.462646 204.344314 
L 809.421182 166.727032 
L 807.379719 189.851461 
L 805.338255 153.763205 
L 803.296792 193.959631 
L 801.255328 172.050045 
L 799.213865 170.9419 
L 797.172402 184.791706 
L 795.130938 169.441335 
L 793.089475 147.801824 
L 791.048011 161.835434 
L 789.006548 165.004086 
L 786.965085 163.561486 
L 784.923621 138.057682 
L 782.882158 147.762009 
L 780.840694 147.349263 
L 778.799231 144.46233 
L 776.757768 142.127644 
L 774.716304 137.460944 
L 772.674841 140.244912 
L 770.633377 129.368371 
L 768.591914 117.664505 
L 766.55045 127.666253 
L 764.508987 118.430895 
L 762.467524 111.794512 
L 760.42606 125.498219 
L 758.384597 112.657813 
L 756.343133 80.841186 
L 754.30167 103.358123 
L 752.260207 99.297861 
L 750.218743 100.614866 
L 748.17728 94.782511 
L 746.135816 98.810764 
L 744.094353 90.320101 
L 742.052889 84.37538 
L 740.011426 89.207101 
L 737.969963 79.170478 
L 735.928499 93.970236 
L 733.887036 75.618675 
L 731.845572 83.782993 
L 729.804109 74.682889 
L 727.762646 61.680063 
L 725.721182 77.639499 
L 723.679719 60.96658 
L 721.638255 62.150361 
L 719.596792 59.981329 
L 717.555328 66.252262 
L 715.513865 77.726094 
L 713.472402 78.514651 
L 711.430938 68.107561 
L 709.389475 50.64492 
L 707.348011 52.136017 
L 705.306548 51.772542 
L 703.265085 60.820188 
L 701.223621 59.512437 
L 699.182158 54.290043 
L 697.140694 60.449198 
L 695.099231 62.499716 
L 693.057768 54.908637 
L 691.016304 55.340541 
L 688.974841 52.962449 
L 686.933377 48.370539 
L 684.891914 65.480432 
L 682.85045 58.843197 
L 680.808987 46.483025 
L 678.767524 50.255227 
L 676.72606 58.085381 
L 674.684597 54.741348 
L 672.643133 50.555393 
L 670.60167 56.210462 
L 668.560207 63.373823 
L 666.518743 54.581188 
L 664.47728 50.956293 
L 662.435816 54.656874 
L 660.394353 52.260702 
L 658.352889 51.598122 
L 656.311426 46.972456 
L 654.269963 47.555404 
L 652.228499 38.533323 
L 650.187036 47.377952 
L 648.145572 44.231731 
L 646.104109 45.854675 
L 644.062646 44.581481 
L 642.021182 49.0379 
L 639.979719 42.672742 
L 637.938255 47.210979 
L 635.896792 41.128875 
L 633.855328 42.394802 
L 631.813865 36.98031 
L 629.772402 42.995808 
L 627.730938 46.011466 
L 625.689475 44.228116 
L 623.648011 43.142793 
L 621.606548 36.220577 
L 619.565085 38.58999 
L 617.523621 41.551173 
L 615.482158 34.639501 
L 613.440694 41.790641 
L 611.399231 40.095981 
L 609.357768 32.282796 
L 607.316304 35.939253 
L 605.274841 35.598184 
L 603.233377 32.867794 
L 601.191914 30.888085 
L 599.15045 34.45992 
L 597.108987 49.727844 
L 595.067524 39.713561 
L 593.02606 34.184024 
L 590.984597 35.736586 
L 588.943133 34.467252 
L 586.90167 30.306483 
L 584.860207 29.006113 
L 582.818743 26.687372 
L 580.77728 30.629902 
L 578.735816 31.396865 
L 576.694353 38.135508 
L 574.652889 39.097807 
L 572.611426 37.287984 
L 570.569963 41.412727 
L 568.528499 38.688893 
L 566.487036 41.634648 
L 564.445572 45.181682 
L 562.404109 46.845433 
L 560.362646 46.206284 
L 558.321182 50.952186 
L 556.279719 52.988918 
L 554.238255 57.432831 
L 552.196792 55.326425 
L 550.155328 53.308109 
L 548.113865 57.221435 
L 546.072402 60.159289 
L 544.030938 61.349328 
L 541.989475 64.753399 
L 539.948011 60.824355 
L 537.906548 62.924749 
L 535.865085 63.750017 
L 533.823621 65.549633 
L 531.782158 65.313912 
L 529.740694 64.555837 
L 527.699231 68.852723 
L 525.657768 71.818786 
L 523.616304 69.481826 
L 521.574841 72.800141 
L 519.533377 71.401168 
L 517.491914 73.217153 
L 515.45045 78.290289 
L 513.408987 77.717069 
L 511.367524 78.845074 
L 509.32606 81.397252 
L 507.284597 79.800691 
L 505.243133 81.863476 
L 503.20167 84.936528 
L 501.160207 85.207561 
L 499.118743 86.748296 
L 497.07728 87.111158 
L 495.035816 88.970432 
L 492.994353 90.832896 
L 490.952889 92.306903 
L 488.911426 93.117442 
L 486.869963 94.132409 
L 484.828499 90.851424 
L 482.787036 95.357556 
L 480.745572 96.68555 
L 478.704109 98.569656 
L 476.662646 98.178212 
L 474.621182 98.035264 
L 472.579719 100.490438 
L 470.538255 101.604007 
L 468.496792 103.114739 
L 466.455328 103.901481 
L 464.413865 104.643933 
L 462.372402 105.87053 
L 460.330938 106.950201 
L 458.289475 108.621904 
L 456.248011 110.453116 
L 454.206548 113.986908 
L 452.165085 115.170308 
L 450.123621 114.768267 
L 448.082158 117.836589 
L 446.040694 117.586876 
L 443.999231 119.146861 
L 441.957768 117.633785 
L 439.916304 123.383556 
L 437.874841 123.75164 
L 435.833377 124.851994 
L 433.791914 128.066166 
L 431.75045 128.719869 
L 429.708987 129.845001 
L 427.667524 129.274853 
L 425.62606 134.409129 
L 423.584597 133.268297 
L 421.543133 137.659514 
L 419.50167 140.589481 
L 417.460207 142.603101 
L 415.418743 146.652738 
L 413.37728 149.166859 
L 411.335816 150.391893 
L 409.294353 152.6862 
L 407.252889 154.410714 
L 405.211426 156.901459 
L 403.169963 156.731343 
L 401.128499 160.315667 
L 399.087036 162.822804 
L 397.045572 164.686459 
L 395.004109 166.118455 
L 392.962646 166.69474 
L 390.921182 170.920909 
L 388.879719 172.509528 
L 386.838255 174.880299 
L 384.796792 178.073018 
L 382.755328 179.719708 
L 380.713865 177.781571 
L 378.672402 179.261438 
L 376.630938 182.938422 
L 374.589475 183.711115 
L 372.548011 186.046271 
L 370.506548 187.796379 
L 368.465085 189.059366 
L 366.423621 189.57741 
L 364.382158 191.668036 
L 362.340694 194.120127 
L 360.299231 192.138223 
L 358.257768 193.558959 
L 356.216304 193.126255 
L 354.174841 196.589159 
L 352.133377 197.077193 
L 350.091914 195.92832 
L 348.05045 197.464698 
L 346.008987 199.365833 
L 343.967524 195.218931 
L 341.92606 200.422302 
L 339.884597 195.514213 
L 337.843133 195.102687 
L 335.80167 194.503984 
L 333.760207 196.225619 
L 331.718743 197.142834 
L 329.67728 196.681512 
L 327.635816 193.679533 
L 325.594353 195.618576 
L 323.552889 190.463567 
L 321.511426 183.112415 
L 319.469963 185.956047 
L 317.428499 189.436223 
L 315.387036 180.710963 
L 313.345572 182.04513 
L 311.304109 180.005458 
L 309.262646 178.771338 
L 307.221182 168.21732 
L 305.179719 167.339004 
L 303.138255 162.527041 
L 301.096792 152.82092 
L 299.055328 146.742828 
L 297.013865 154.101974 
L 294.972402 150.330666 
L 292.930938 145.060245 
L 290.889475 141.681116 
L 288.848011 137.403042 
L 286.806548 130.92507 
L 284.765085 133.963512 
L 282.723621 122.798273 
L 280.682158 117.485536 
L 278.640694 114.237775 
L 276.599231 113.167407 
L 274.557768 113.640802 
L 272.516304 111.846528 
L 270.474841 114.044872 
L 268.433377 117.280595 
L 266.391914 112.612965 
L 264.35045 112.56205 
L 262.308987 118.28524 
L 260.267524 119.374762 
L 258.22606 118.025099 
L 256.184597 127.665221 
L 254.143133 121.724871 
L 252.10167 124.202928 
L 250.060207 132.416247 
L 248.018743 131.023776 
L 245.97728 134.301955 
L 243.935816 136.906095 
L 241.894353 140.766638 
L 239.852889 143.993473 
L 237.811426 147.534144 
L 235.769963 151.408244 
L 233.728499 154.061988 
L 231.687036 158.500519 
L 229.645572 160.019051 
L 227.604109 166.527096 
L 225.562646 167.237814 
L 223.521182 170.999405 
L 221.479719 175.179369 
L 219.438255 178.252893 
L 217.396792 182.150533 
L 215.355328 185.312548 
L 213.313865 189.424468 
L 211.272402 192.182101 
L 209.230938 195.472007 
L 207.189475 199.541846 
L 205.148011 203.124658 
L 203.106548 205.800941 
L 201.065085 209.429536 
L 199.023621 211.826633 
L 196.982158 215.560182 
L 194.940694 218.723981 
L 192.899231 221.577856 
L 190.857768 224.978203 
L 188.816304 227.402759 
L 186.774841 229.511948 
L 184.733377 231.879305 
L 182.691914 233.610938 
L 180.65045 236.78562 
L 178.608987 239.108083 
L 176.567524 241.156397 
L 174.52606 243.533023 
L 172.484597 245.096397 
L 170.443133 247.247735 
L 168.40167 249.428499 
L 166.360207 251.788024 
L 164.318743 253.667792 
L 162.27728 255.516995 
L 160.235816 257.411141 
L 158.194353 259.408816 
L 156.152889 261.384057 
L 154.111426 263.077386 
L 152.069963 264.861206 
L 150.028499 266.386582 
L 147.987036 268.359689 
L 145.945572 269.817344 
L 143.904109 271.460303 
L 141.862646 273.478113 
L 139.821182 274.915609 
L 137.779719 275.427442 
L 135.738255 277.061551 
L 133.696792 277.98424 
L 131.655328 279.543408 
L 129.613865 281.368332 
L 127.572402 282.372022 
L 125.530938 283.315446 
L 123.489475 283.528035 
L 121.448011 284.465976 
L 119.406548 285.058865 
L 117.365085 285.69086 
L 115.323621 286.957934 
L 113.282158 287.742347 
L 111.240694 288.776533 
L 109.199231 288.249509 
L 107.157768 288.834873 
L 105.116304 287.966706 
L 103.074841 289.424251 
L 101.033377 289.5854 
L 98.991914 290.650889 
L 96.95045 288.444527 
L 94.908987 291.059848 
L 92.867524 290.849759 
L 90.82606 289.321797 
L 88.784597 288.924533 
L 86.743133 290.243738 
L 84.70167 292.566998 
L 82.660207 291.591703 
L 80.618743 291.463664 
L 78.57728 289.053655 
L 76.535816 288.959289 
L 74.494353 289.545875 
L 72.452889 290.906515 
L 70.411426 290.37254 
L 68.369963 289.993873 
L 66.328499 290.105039 
L 64.287036 290.880625 
L 62.245572 290.572397 
L 60.204109 291.047304 
L 58.162646 291.914379 
L 56.121182 291.1357 
L 54.079719 292.357676 
L 52.038255 292.473329 
L 49.996792 292.532203 
L 47.955328 293.286622 
L 45.913865 293.393864 
L 43.872402 294.243887 
L 41.830938 295.183924 
L 39.789475 295.112005 
L 37.748011 294.588338 
L 35.706548 294.193944 
L 33.665085 296.29565 
L 31.623621 295.828807 
L 29.582158 297.213984 
L 27.540694 297.134277 
L 25.499231 296.495413 
L 23.457768 297.951327 
L 21.416304 296.422611 
L 19.374841 296.397398 
L 17.333377 298.167265 
L 15.291914 296.738151 
L 13.25045 298.401527 
L 11.208987 299.073036 
L 9.167524 297.372174 
L 7.12606 292.529524 
L 5.084597 295.438381 
L 3.043133 293.913553 
L 1.00167 286.843311 
L -1.039793 292.730036 
L -3.081257 293.840019 
L -5.12272 287.258007 
L -7.164184 285.553905 
L -9.205647 288.770285 
L -11.247111 281.306433 
L -13.288574 267.8281 
L -15.330037 282.323246 
L -17.371501 287.909755 
L -19.412964 290.613595 
L -21.454428 272.354183 
L -23.495891 272.961966 
L -25.537354 263.814737 
L -27.578818 256.853514 
L -29.620281 270.699384 
L -31.661745 264.590802 
L -33.703208 252.028836 
L -35.744672 243.374555 
L -37.786135 243.731999 
L -39.827598 245.039364 
L -41.869062 242.857101 
L -43.910525 241.893702 
L -45.951989 246.550094 
L -47.993452 245.746819 
L -50.034915 242.494472 
L -52.076379 244.269275 
L -54.117842 242.752235 
L -56.159306 241.924251 
L -58.200769 242.03826 
L -60.242232 243.650809 
L -62.283696 244.615241 
L -64.325159 245.176178 
L -66.366623 246.708889 
L -68.408086 247.348203 
L -70.44955 248.508198 
L -72.491013 250.385768 
L -74.532476 251.987473 
L -76.57394 252.922864 
L -78.615403 254.205581 
L -80.656867 255.634217 
L -82.69833 256.596506 
L -84.739793 258.115616 
L -86.781257 259.959577 
L -88.82272 260.984589 
L -90.864184 261.684026 
L -92.905647 262.818015 
L -94.947111 263.937238 
L -96.988574 264.965296 
L -99.030037 265.947575 
L -101.071501 266.891855 
L -103.112964 268.231115 
L -105.154428 268.881036 
L -107.195891 269.830008 
L -109.237354 270.827527 
L -111.278818 271.731484 
L -113.320281 272.589312 
L -115.361745 273.280813 
L -117.403208 274.029145 
L -119.444672 275.066581 
L -121.486135 275.705882 
L -123.527598 276.515582 
L -125.569062 277.265842 
L -127.610525 278.023985 
L -129.651989 278.802642 
L -131.693452 279.59463 
L -133.734915 280.254944 
L -135.776379 281.027895 
L -137.817842 281.697415 
L -139.859306 282.418186 
L -141.900769 283.082649 
L -143.942232 283.781276 
L -145.983696 284.422993 
L -148.025159 285.115237 
L -150.066623 285.865089 
L -152.108086 286.429632 
L -154.14955 287.144054 
L -156.191013 287.756602 
L -158.232476 288.471342 
L -160.27394 288.987848 
L -162.315403 289.65245 
L -164.356867 290.285271 
L -166.39833 290.88643 
L -168.439793 291.489503 
L -170.481257 292.064893 
L -172.52272 292.728184 
L -174.564184 293.322717 
L -176.605647 293.808196 
L -178.647111 294.389029 
L -180.688574 294.968513 
L -182.730037 295.544582 
L -184.771501 296.098472 
L -186.812964 296.612417 
L -188.854428 297.179855 
L -190.895891 297.734534 
L -192.937354 298.29105 
L -194.978818 298.84424 
L -197.020281 299.412089 
L -199.061745 300.002549 
L -201.103208 300.504956 
L -203.144672 301.08436 
L -205.186135 301.650919 
L -207.227598 302.19234 
L -209.269062 302.751054 
L -211.310525 303.321122 
L -213.351989 303.872134 
L -215.393452 304.451346 
L -217.434915 304.975156 
L -219.476379 305.509591 
L -221.517842 306.076163 
L -223.559306 306.62062 
L -225.600769 307.127518 
L -227.642232 307.680386 
L -229.683696 308.173248 
L -231.725159 308.70273 
L -233.766623 309.269162 
L -235.808086 309.746584 
L -237.84955 310.286352 
L -239.891013 310.77688 
L -241.932476 311.32817 
L -243.97394 311.804121 
L -246.015403 312.36045 
L -248.056867 312.829286 
L -250.09833 313.349763 
L -252.139793 313.856988 
L -254.181257 314.373916 
L -256.22272 314.87088 
L -258.264184 315.373365 
L -260.305647 315.878256 
L -262.347111 316.382381 
L -264.388574 316.848258 
L -266.430037 317.292337 
L -268.471501 317.738612 
L -270.512964 318.189204 
L -272.554428 318.623124 
L -274.595891 319.067295 
L -276.637354 319.506297 
L -278.678818 319.924044 
L -280.720281 320.342466 
L -282.761745 320.760132 
L -284.803208 321.156681 
L -286.844672 321.547744 
L -288.886135 321.959666 
L -290.927598 322.337868 
L -292.969062 322.691608 
L -295.010525 323.07652 
L -297.051989 323.433192 
L -299.093452 323.747737 
L -301.134915 324.080287 
L -303.176379 324.382842 
L -305.217842 324.707139 
L -307.259306 324.98344 
L -309.300769 325.265865 
L -311.342232 325.529322 
L -313.383696 325.789781 
L -315.425159 326.022648 
L -317.466623 326.226612 
L -319.508086 326.43462 
L -321.54955 326.631799 
L -323.591013 326.807632 
L -325.632476 326.997949 
L -327.67394 327.157118 
L -329.715403 327.292578 
L -331.756867 327.455468 
L -333.79833 327.590698 
L -335.839793 327.706309 
L -337.881257 327.835018 
L -339.92272 327.960146 
L -341.964184 328.061017 
L -344.005647 328.172794 
L -346.047111 328.259055 
L -348.088574 328.364122 
L -350.130037 328.447685 
L -352.171501 328.537281 
L -354.212964 328.631886 
L -356.254428 328.707033 
L -358.295891 328.78678 
L -360.337354 328.890151 
L -362.378818 328.969168 
L -364.420281 329.058778 
L -366.461745 329.129833 
L -368.503208 329.224333 
L -370.544672 329.306357 
L -372.586135 329.392525 
L -374.627598 329.462969 
L -376.669062 329.523677 
L -378.710525 329.599349 
L -380.751989 329.68634 
L -382.793452 329.770137 
L -384.834915 329.837355 
L -386.876379 329.896422 
L -388.917842 329.979357 
L -390.959306 330.044549 
L -393.000769 330.126167 
z
" clip-path="url(#pae4c2fb470)" style="fill: #008000; fill-opacity: 0.3; stroke: #008000; stroke-opacity: 0.3"/>
   </g>
   <g id="matplotlib.axis_1">
    <g id="xtick_1">
     <g id="line2d_1">
      <defs>
       <path id="m0bbe2803e6" d="M 0 0 
L 0 3.5 
" style="stroke: #000000; stroke-width: 0.8"/>
      </defs>
      <g>
       <use xlink:href="#m0bbe2803e6" x="103.074841" y="399.594717" style="stroke: #000000; stroke-width: 0.8"/>
      </g>
     </g>
     <g id="text_1">
      <!-- 2022-03-01 -->
      <g transform="translate(17.945813 499.528435) rotate(-45) scale(0.2 -0.2)">
       <defs>
        <path id="DejaVuSans-32" d="M 1228 531 
L 3431 531 
L 3431 0 
L 469 0 
L 469 531 
Q 828 903 1448 1529 
Q 2069 2156 2228 2338 
Q 2531 2678 2651 2914 
Q 2772 3150 2772 3378 
Q 2772 3750 2511 3984 
Q 2250 4219 1831 4219 
Q 1534 4219 1204 4116 
Q 875 4013 500 3803 
L 500 4441 
Q 881 4594 1212 4672 
Q 1544 4750 1819 4750 
Q 2544 4750 2975 4387 
Q 3406 4025 3406 3419 
Q 3406 3131 3298 2873 
Q 3191 2616 2906 2266 
Q 2828 2175 2409 1742 
Q 1991 1309 1228 531 
z
" transform="scale(0.015625)"/>
        <path id="DejaVuSans-30" d="M 2034 4250 
Q 1547 4250 1301 3770 
Q 1056 3291 1056 2328 
Q 1056 1369 1301 889 
Q 1547 409 2034 409 
Q 2525 409 2770 889 
Q 3016 1369 3016 2328 
Q 3016 3291 2770 3770 
Q 2525 4250 2034 4250 
z
M 2034 4750 
Q 2819 4750 3233 4129 
Q 3647 3509 3647 2328 
Q 3647 1150 3233 529 
Q 2819 -91 2034 -91 
Q 1250 -91 836 529 
Q 422 1150 422 2328 
Q 422 3509 836 4129 
Q 1250 4750 2034 4750 
z
" transform="scale(0.015625)"/>
        <path id="DejaVuSans-2d" d="M 313 2009 
L 1997 2009 
L 1997 1497 
L 313 1497 
L 313 2009 
z
" transform="scale(0.015625)"/>
        <path id="DejaVuSans-33" d="M 2597 2516 
Q 3050 2419 3304 2112 
Q 3559 1806 3559 1356 
Q 3559 666 3084 287 
Q 2609 -91 1734 -91 
Q 1441 -91 1130 -33 
Q 819 25 488 141 
L 488 750 
Q 750 597 1062 519 
Q 1375 441 1716 441 
Q 2309 441 2620 675 
Q 2931 909 2931 1356 
Q 2931 1769 2642 2001 
Q 2353 2234 1838 2234 
L 1294 2234 
L 1294 2753 
L 1863 2753 
Q 2328 2753 2575 2939 
Q 2822 3125 2822 3475 
Q 2822 3834 2567 4026 
Q 2313 4219 1838 4219 
Q 1578 4219 1281 4162 
Q 984 4106 628 3988 
L 628 4550 
Q 988 4650 1302 4700 
Q 1616 4750 1894 4750 
Q 2613 4750 3031 4423 
Q 3450 4097 3450 3541 
Q 3450 3153 3228 2886 
Q 3006 2619 2597 2516 
z
" transform="scale(0.015625)"/>
        <path id="DejaVuSans-31" d="M 794 531 
L 1825 531 
L 1825 4091 
L 703 3866 
L 703 4441 
L 1819 4666 
L 2450 4666 
L 2450 531 
L 3481 531 
L 3481 0 
L 794 0 
L 794 531 
z
" transform="scale(0.015625)"/>
       </defs>
       <use xlink:href="#DejaVuSans-32"/>
       <use xlink:href="#DejaVuSans-30" x="63.623047"/>
       <use xlink:href="#DejaVuSans-32" x="127.246094"/>
       <use xlink:href="#DejaVuSans-32" x="190.869141"/>
       <use xlink:href="#DejaVuSans-2d" x="254.492188"/>
       <use xlink:href="#DejaVuSans-30" x="290.576172"/>
       <use xlink:href="#DejaVuSans-33" x="354.199219"/>
       <use xlink:href="#DejaVuSans-2d" x="417.822266"/>
       <use xlink:href="#DejaVuSans-30" x="453.90625"/>
       <use xlink:href="#DejaVuSans-31" x="517.529297"/>
      </g>
     </g>
    </g>
    <g id="xtick_2">
     <g id="line2d_2">
      <g>
       <use xlink:href="#m0bbe2803e6" x="160.235816" y="399.594717" style="stroke: #000000; stroke-width: 0.8"/>
      </g>
     </g>
     <g id="text_2">
      <!-- 2022-03-29 -->
      <g transform="translate(75.106789 499.528435) rotate(-45) scale(0.2 -0.2)">
       <defs>
        <path id="DejaVuSans-39" d="M 703 97 
L 703 672 
Q 941 559 1184 500 
Q 1428 441 1663 441 
Q 2288 441 2617 861 
Q 2947 1281 2994 2138 
Q 2813 1869 2534 1725 
Q 2256 1581 1919 1581 
Q 1219 1581 811 2004 
Q 403 2428 403 3163 
Q 403 3881 828 4315 
Q 1253 4750 1959 4750 
Q 2769 4750 3195 4129 
Q 3622 3509 3622 2328 
Q 3622 1225 3098 567 
Q 2575 -91 1691 -91 
Q 1453 -91 1209 -44 
Q 966 3 703 97 
z
M 1959 2075 
Q 2384 2075 2632 2365 
Q 2881 2656 2881 3163 
Q 2881 3666 2632 3958 
Q 2384 4250 1959 4250 
Q 1534 4250 1286 3958 
Q 1038 3666 1038 3163 
Q 1038 2656 1286 2365 
Q 1534 2075 1959 2075 
z
" transform="scale(0.015625)"/>
       </defs>
       <use xlink:href="#DejaVuSans-32"/>
       <use xlink:href="#DejaVuSans-30" x="63.623047"/>
       <use xlink:href="#DejaVuSans-32" x="127.246094"/>
       <use xlink:href="#DejaVuSans-32" x="190.869141"/>
       <use xlink:href="#DejaVuSans-2d" x="254.492188"/>
       <use xlink:href="#DejaVuSans-30" x="290.576172"/>
       <use xlink:href="#DejaVuSans-33" x="354.199219"/>
       <use xlink:href="#DejaVuSans-2d" x="417.822266"/>
       <use xlink:href="#DejaVuSans-32" x="453.90625"/>
       <use xlink:href="#DejaVuSans-39" x="517.529297"/>
      </g>
     </g>
    </g>
    <g id="xtick_3">
     <g id="line2d_3">
      <g>
       <use xlink:href="#m0bbe2803e6" x="217.396792" y="399.594717" style="stroke: #000000; stroke-width: 0.8"/>
      </g>
     </g>
     <g id="text_3">
      <!-- 2022-04-26 -->
      <g transform="translate(132.267765 499.528435) rotate(-45) scale(0.2 -0.2)">
       <defs>
        <path id="DejaVuSans-34" d="M 2419 4116 
L 825 1625 
L 2419 1625 
L 2419 4116 
z
M 2253 4666 
L 3047 4666 
L 3047 1625 
L 3713 1625 
L 3713 1100 
L 3047 1100 
L 3047 0 
L 2419 0 
L 2419 1100 
L 313 1100 
L 313 1709 
L 2253 4666 
z
" transform="scale(0.015625)"/>
        <path id="DejaVuSans-36" d="M 2113 2584 
Q 1688 2584 1439 2293 
Q 1191 2003 1191 1497 
Q 1191 994 1439 701 
Q 1688 409 2113 409 
Q 2538 409 2786 701 
Q 3034 994 3034 1497 
Q 3034 2003 2786 2293 
Q 2538 2584 2113 2584 
z
M 3366 4563 
L 3366 3988 
Q 3128 4100 2886 4159 
Q 2644 4219 2406 4219 
Q 1781 4219 1451 3797 
Q 1122 3375 1075 2522 
Q 1259 2794 1537 2939 
Q 1816 3084 2150 3084 
Q 2853 3084 3261 2657 
Q 3669 2231 3669 1497 
Q 3669 778 3244 343 
Q 2819 -91 2113 -91 
Q 1303 -91 875 529 
Q 447 1150 447 2328 
Q 447 3434 972 4092 
Q 1497 4750 2381 4750 
Q 2619 4750 2861 4703 
Q 3103 4656 3366 4563 
z
" transform="scale(0.015625)"/>
       </defs>
       <use xlink:href="#DejaVuSans-32"/>
       <use xlink:href="#DejaVuSans-30" x="63.623047"/>
       <use xlink:href="#DejaVuSans-32" x="127.246094"/>
       <use xlink:href="#DejaVuSans-32" x="190.869141"/>
       <use xlink:href="#DejaVuSans-2d" x="254.492188"/>
       <use xlink:href="#DejaVuSans-30" x="290.576172"/>
       <use xlink:href="#DejaVuSans-34" x="354.199219"/>
       <use xlink:href="#DejaVuSans-2d" x="417.822266"/>
       <use xlink:href="#DejaVuSans-32" x="453.90625"/>
       <use xlink:href="#DejaVuSans-36" x="517.529297"/>
      </g>
     </g>
    </g>
    <g id="xtick_4">
     <g id="line2d_4">
      <g>
       <use xlink:href="#m0bbe2803e6" x="274.557768" y="399.594717" style="stroke: #000000; stroke-width: 0.8"/>
      </g>
     </g>
     <g id="text_4">
      <!-- 2022-05-24 -->
      <g transform="translate(189.42874 499.528435) rotate(-45) scale(0.2 -0.2)">
       <defs>
        <path id="DejaVuSans-35" d="M 691 4666 
L 3169 4666 
L 3169 4134 
L 1269 4134 
L 1269 2991 
Q 1406 3038 1543 3061 
Q 1681 3084 1819 3084 
Q 2600 3084 3056 2656 
Q 3513 2228 3513 1497 
Q 3513 744 3044 326 
Q 2575 -91 1722 -91 
Q 1428 -91 1123 -41 
Q 819 9 494 109 
L 494 744 
Q 775 591 1075 516 
Q 1375 441 1709 441 
Q 2250 441 2565 725 
Q 2881 1009 2881 1497 
Q 2881 1984 2565 2268 
Q 2250 2553 1709 2553 
Q 1456 2553 1204 2497 
Q 953 2441 691 2322 
L 691 4666 
z
" transform="scale(0.015625)"/>
       </defs>
       <use xlink:href="#DejaVuSans-32"/>
       <use xlink:href="#DejaVuSans-30" x="63.623047"/>
       <use xlink:href="#DejaVuSans-32" x="127.246094"/>
       <use xlink:href="#DejaVuSans-32" x="190.869141"/>
       <use xlink:href="#DejaVuSans-2d" x="254.492188"/>
       <use xlink:href="#DejaVuSans-30" x="290.576172"/>
       <use xlink:href="#DejaVuSans-35" x="354.199219"/>
       <use xlink:href="#DejaVuSans-2d" x="417.822266"/>
       <use xlink:href="#DejaVuSans-32" x="453.90625"/>
       <use xlink:href="#DejaVuSans-34" x="517.529297"/>
      </g>
     </g>
    </g>
    <g id="xtick_5">
     <g id="line2d_5">
      <g>
       <use xlink:href="#m0bbe2803e6" x="331.718743" y="399.594717" style="stroke: #000000; stroke-width: 0.8"/>
      </g>
     </g>
     <g id="text_5">
      <!-- 2022-06-21 -->
      <g transform="translate(246.589716 499.528435) rotate(-45) scale(0.2 -0.2)">
       <use xlink:href="#DejaVuSans-32"/>
       <use xlink:href="#DejaVuSans-30" x="63.623047"/>
       <use xlink:href="#DejaVuSans-32" x="127.246094"/>
       <use xlink:href="#DejaVuSans-32" x="190.869141"/>
       <use xlink:href="#DejaVuSans-2d" x="254.492188"/>
       <use xlink:href="#DejaVuSans-30" x="290.576172"/>
       <use xlink:href="#DejaVuSans-36" x="354.199219"/>
       <use xlink:href="#DejaVuSans-2d" x="417.822266"/>
       <use xlink:href="#DejaVuSans-32" x="453.90625"/>
       <use xlink:href="#DejaVuSans-31" x="517.529297"/>
      </g>
     </g>
    </g>
    <g id="xtick_6">
     <g id="line2d_6">
      <g>
       <use xlink:href="#m0bbe2803e6" x="388.879719" y="399.594717" style="stroke: #000000; stroke-width: 0.8"/>
      </g>
     </g>
     <g id="text_6">
      <!-- 2022-07-19 -->
      <g transform="translate(303.750691 499.528435) rotate(-45) scale(0.2 -0.2)">
       <defs>
        <path id="DejaVuSans-37" d="M 525 4666 
L 3525 4666 
L 3525 4397 
L 1831 0 
L 1172 0 
L 2766 4134 
L 525 4134 
L 525 4666 
z
" transform="scale(0.015625)"/>
       </defs>
       <use xlink:href="#DejaVuSans-32"/>
       <use xlink:href="#DejaVuSans-30" x="63.623047"/>
       <use xlink:href="#DejaVuSans-32" x="127.246094"/>
       <use xlink:href="#DejaVuSans-32" x="190.869141"/>
       <use xlink:href="#DejaVuSans-2d" x="254.492188"/>
       <use xlink:href="#DejaVuSans-30" x="290.576172"/>
       <use xlink:href="#DejaVuSans-37" x="354.199219"/>
       <use xlink:href="#DejaVuSans-2d" x="417.822266"/>
       <use xlink:href="#DejaVuSans-31" x="453.90625"/>
       <use xlink:href="#DejaVuSans-39" x="517.529297"/>
      </g>
     </g>
    </g>
    <g id="xtick_7">
     <g id="line2d_7">
      <g>
       <use xlink:href="#m0bbe2803e6" x="446.040694" y="399.594717" style="stroke: #000000; stroke-width: 0.8"/>
      </g>
     </g>
     <g id="text_7">
      <!-- 2022-08-16 -->
      <g transform="translate(360.911667 499.528435) rotate(-45) scale(0.2 -0.2)">
       <defs>
        <path id="DejaVuSans-38" d="M 2034 2216 
Q 1584 2216 1326 1975 
Q 1069 1734 1069 1313 
Q 1069 891 1326 650 
Q 1584 409 2034 409 
Q 2484 409 2743 651 
Q 3003 894 3003 1313 
Q 3003 1734 2745 1975 
Q 2488 2216 2034 2216 
z
M 1403 2484 
Q 997 2584 770 2862 
Q 544 3141 544 3541 
Q 544 4100 942 4425 
Q 1341 4750 2034 4750 
Q 2731 4750 3128 4425 
Q 3525 4100 3525 3541 
Q 3525 3141 3298 2862 
Q 3072 2584 2669 2484 
Q 3125 2378 3379 2068 
Q 3634 1759 3634 1313 
Q 3634 634 3220 271 
Q 2806 -91 2034 -91 
Q 1263 -91 848 271 
Q 434 634 434 1313 
Q 434 1759 690 2068 
Q 947 2378 1403 2484 
z
M 1172 3481 
Q 1172 3119 1398 2916 
Q 1625 2713 2034 2713 
Q 2441 2713 2670 2916 
Q 2900 3119 2900 3481 
Q 2900 3844 2670 4047 
Q 2441 4250 2034 4250 
Q 1625 4250 1398 4047 
Q 1172 3844 1172 3481 
z
" transform="scale(0.015625)"/>
       </defs>
       <use xlink:href="#DejaVuSans-32"/>
       <use xlink:href="#DejaVuSans-30" x="63.623047"/>
       <use xlink:href="#DejaVuSans-32" x="127.246094"/>
       <use xlink:href="#DejaVuSans-32" x="190.869141"/>
       <use xlink:href="#DejaVuSans-2d" x="254.492188"/>
       <use xlink:href="#DejaVuSans-30" x="290.576172"/>
       <use xlink:href="#DejaVuSans-38" x="354.199219"/>
       <use xlink:href="#DejaVuSans-2d" x="417.822266"/>
       <use xlink:href="#DejaVuSans-31" x="453.90625"/>
       <use xlink:href="#DejaVuSans-36" x="517.529297"/>
      </g>
     </g>
    </g>
    <g id="xtick_8">
     <g id="line2d_8">
      <g>
       <use xlink:href="#m0bbe2803e6" x="503.20167" y="399.594717" style="stroke: #000000; stroke-width: 0.8"/>
      </g>
     </g>
     <g id="text_8">
      <!-- 2022-09-13 -->
      <g transform="translate(418.072643 499.528435) rotate(-45) scale(0.2 -0.2)">
       <use xlink:href="#DejaVuSans-32"/>
       <use xlink:href="#DejaVuSans-30" x="63.623047"/>
       <use xlink:href="#DejaVuSans-32" x="127.246094"/>
       <use xlink:href="#DejaVuSans-32" x="190.869141"/>
       <use xlink:href="#DejaVuSans-2d" x="254.492188"/>
       <use xlink:href="#DejaVuSans-30" x="290.576172"/>
       <use xlink:href="#DejaVuSans-39" x="354.199219"/>
       <use xlink:href="#DejaVuSans-2d" x="417.822266"/>
       <use xlink:href="#DejaVuSans-31" x="453.90625"/>
       <use xlink:href="#DejaVuSans-33" x="517.529297"/>
      </g>
     </g>
    </g>
    <g id="xtick_9">
     <g id="line2d_9">
      <g>
       <use xlink:href="#m0bbe2803e6" x="560.362646" y="399.594717" style="stroke: #000000; stroke-width: 0.8"/>
      </g>
     </g>
     <g id="text_9">
      <!-- 2022-10-11 -->
      <g transform="translate(475.233618 499.528435) rotate(-45) scale(0.2 -0.2)">
       <use xlink:href="#DejaVuSans-32"/>
       <use xlink:href="#DejaVuSans-30" x="63.623047"/>
       <use xlink:href="#DejaVuSans-32" x="127.246094"/>
       <use xlink:href="#DejaVuSans-32" x="190.869141"/>
       <use xlink:href="#DejaVuSans-2d" x="254.492188"/>
       <use xlink:href="#DejaVuSans-31" x="290.576172"/>
       <use xlink:href="#DejaVuSans-30" x="354.199219"/>
       <use xlink:href="#DejaVuSans-2d" x="417.822266"/>
       <use xlink:href="#DejaVuSans-31" x="453.90625"/>
       <use xlink:href="#DejaVuSans-31" x="517.529297"/>
      </g>
     </g>
    </g>
    <g id="xtick_10">
     <g id="line2d_10">
      <g>
       <use xlink:href="#m0bbe2803e6" x="617.523621" y="399.594717" style="stroke: #000000; stroke-width: 0.8"/>
      </g>
     </g>
     <g id="text_10">
      <!-- 2022-11-08 -->
      <g transform="translate(532.394594 499.528435) rotate(-45) scale(0.2 -0.2)">
       <use xlink:href="#DejaVuSans-32"/>
       <use xlink:href="#DejaVuSans-30" x="63.623047"/>
       <use xlink:href="#DejaVuSans-32" x="127.246094"/>
       <use xlink:href="#DejaVuSans-32" x="190.869141"/>
       <use xlink:href="#DejaVuSans-2d" x="254.492188"/>
       <use xlink:href="#DejaVuSans-31" x="290.576172"/>
       <use xlink:href="#DejaVuSans-31" x="354.199219"/>
       <use xlink:href="#DejaVuSans-2d" x="417.822266"/>
       <use xlink:href="#DejaVuSans-30" x="453.90625"/>
       <use xlink:href="#DejaVuSans-38" x="517.529297"/>
      </g>
     </g>
    </g>
    <g id="xtick_11">
     <g id="line2d_11">
      <g>
       <use xlink:href="#m0bbe2803e6" x="674.684597" y="399.594717" style="stroke: #000000; stroke-width: 0.8"/>
      </g>
     </g>
     <g id="text_11">
      <!-- 2022-12-06 -->
      <g transform="translate(589.555569 499.528435) rotate(-45) scale(0.2 -0.2)">
       <use xlink:href="#DejaVuSans-32"/>
       <use xlink:href="#DejaVuSans-30" x="63.623047"/>
       <use xlink:href="#DejaVuSans-32" x="127.246094"/>
       <use xlink:href="#DejaVuSans-32" x="190.869141"/>
       <use xlink:href="#DejaVuSans-2d" x="254.492188"/>
       <use xlink:href="#DejaVuSans-31" x="290.576172"/>
       <use xlink:href="#DejaVuSans-32" x="354.199219"/>
       <use xlink:href="#DejaVuSans-2d" x="417.822266"/>
       <use xlink:href="#DejaVuSans-30" x="453.90625"/>
       <use xlink:href="#DejaVuSans-36" x="517.529297"/>
      </g>
     </g>
    </g>
    <g id="xtick_12">
     <g id="line2d_12">
      <g>
       <use xlink:href="#m0bbe2803e6" x="731.845572" y="399.594717" style="stroke: #000000; stroke-width: 0.8"/>
      </g>
     </g>
     <g id="text_12">
      <!-- 2023-01-03 -->
      <g transform="translate(646.716545 499.528435) rotate(-45) scale(0.2 -0.2)">
       <use xlink:href="#DejaVuSans-32"/>
       <use xlink:href="#DejaVuSans-30" x="63.623047"/>
       <use xlink:href="#DejaVuSans-32" x="127.246094"/>
       <use xlink:href="#DejaVuSans-33" x="190.869141"/>
       <use xlink:href="#DejaVuSans-2d" x="254.492188"/>
       <use xlink:href="#DejaVuSans-30" x="290.576172"/>
       <use xlink:href="#DejaVuSans-31" x="354.199219"/>
       <use xlink:href="#DejaVuSans-2d" x="417.822266"/>
       <use xlink:href="#DejaVuSans-30" x="453.90625"/>
       <use xlink:href="#DejaVuSans-33" x="517.529297"/>
      </g>
     </g>
    </g>
    <g id="xtick_13">
     <g id="line2d_13">
      <g>
       <use xlink:href="#m0bbe2803e6" x="789.006548" y="399.594717" style="stroke: #000000; stroke-width: 0.8"/>
      </g>
     </g>
     <g id="text_13">
      <!-- 2023-01-31 -->
      <g transform="translate(703.877521 499.528435) rotate(-45) scale(0.2 -0.2)">
       <use xlink:href="#DejaVuSans-32"/>
       <use xlink:href="#DejaVuSans-30" x="63.623047"/>
       <use xlink:href="#DejaVuSans-32" x="127.246094"/>
       <use xlink:href="#DejaVuSans-33" x="190.869141"/>
       <use xlink:href="#DejaVuSans-2d" x="254.492188"/>
       <use xlink:href="#DejaVuSans-30" x="290.576172"/>
       <use xlink:href="#DejaVuSans-31" x="354.199219"/>
       <use xlink:href="#DejaVuSans-2d" x="417.822266"/>
       <use xlink:href="#DejaVuSans-33" x="453.90625"/>
       <use xlink:href="#DejaVuSans-31" x="517.529297"/>
      </g>
     </g>
    </g>
    <g id="xtick_14">
     <g id="line2d_14">
      <g>
       <use xlink:href="#m0bbe2803e6" x="846.167524" y="399.594717" style="stroke: #000000; stroke-width: 0.8"/>
      </g>
     </g>
     <g id="text_14">
      <!-- 2023-02-28 -->
      <g transform="translate(761.038496 499.528435) rotate(-45) scale(0.2 -0.2)">
       <use xlink:href="#DejaVuSans-32"/>
       <use xlink:href="#DejaVuSans-30" x="63.623047"/>
       <use xlink:href="#DejaVuSans-32" x="127.246094"/>
       <use xlink:href="#DejaVuSans-33" x="190.869141"/>
       <use xlink:href="#DejaVuSans-2d" x="254.492188"/>
       <use xlink:href="#DejaVuSans-30" x="290.576172"/>
       <use xlink:href="#DejaVuSans-32" x="354.199219"/>
       <use xlink:href="#DejaVuSans-2d" x="417.822266"/>
       <use xlink:href="#DejaVuSans-32" x="453.90625"/>
       <use xlink:href="#DejaVuSans-38" x="517.529297"/>
      </g>
     </g>
    </g>
    <g id="xtick_15">
     <g id="line2d_15">
      <g>
       <use xlink:href="#m0bbe2803e6" x="903.328499" y="399.594717" style="stroke: #000000; stroke-width: 0.8"/>
      </g>
     </g>
     <g id="text_15">
      <!-- 2023-03-28 -->
      <g transform="translate(818.199472 499.528435) rotate(-45) scale(0.2 -0.2)">
       <use xlink:href="#DejaVuSans-32"/>
       <use xlink:href="#DejaVuSans-30" x="63.623047"/>
       <use xlink:href="#DejaVuSans-32" x="127.246094"/>
       <use xlink:href="#DejaVuSans-33" x="190.869141"/>
       <use xlink:href="#DejaVuSans-2d" x="254.492188"/>
       <use xlink:href="#DejaVuSans-30" x="290.576172"/>
       <use xlink:href="#DejaVuSans-33" x="354.199219"/>
       <use xlink:href="#DejaVuSans-2d" x="417.822266"/>
       <use xlink:href="#DejaVuSans-32" x="453.90625"/>
       <use xlink:href="#DejaVuSans-38" x="517.529297"/>
      </g>
     </g>
    </g>
    <g id="xtick_16">
     <g id="line2d_16">
      <g>
       <use xlink:href="#m0bbe2803e6" x="940.074841" y="399.594717" style="stroke: #000000; stroke-width: 0.8"/>
      </g>
     </g>
     <g id="text_16">
      <!-- 2023-04-15 -->
      <g transform="translate(854.945813 499.528435) rotate(-45) scale(0.2 -0.2)">
       <use xlink:href="#DejaVuSans-32"/>
       <use xlink:href="#DejaVuSans-30" x="63.623047"/>
       <use xlink:href="#DejaVuSans-32" x="127.246094"/>
       <use xlink:href="#DejaVuSans-33" x="190.869141"/>
       <use xlink:href="#DejaVuSans-2d" x="254.492188"/>
       <use xlink:href="#DejaVuSans-30" x="290.576172"/>
       <use xlink:href="#DejaVuSans-34" x="354.199219"/>
       <use xlink:href="#DejaVuSans-2d" x="417.822266"/>
       <use xlink:href="#DejaVuSans-31" x="453.90625"/>
       <use xlink:href="#DejaVuSans-35" x="517.529297"/>
      </g>
     </g>
    </g>
   </g>
   <g id="matplotlib.axis_2">
    <g id="ytick_1">
     <g id="line2d_17">
      <defs>
       <path id="mab753b35a5" d="M 0 0 
L -3.5 0 
" style="stroke: #000000; stroke-width: 0.8"/>
      </defs>
      <g>
       <use xlink:href="#mab753b35a5" x="103.074841" y="393.286581" style="stroke: #000000; stroke-width: 0.8"/>
      </g>
     </g>
     <g id="text_17">
      <!-- 0.05 -->
      <g transform="translate(34.784216 400.885018) scale(0.2 -0.2)">
       <defs>
        <path id="DejaVuSans-2212" d="M 678 2272 
L 4684 2272 
L 4684 1741 
L 678 1741 
L 678 2272 
z
" transform="scale(0.015625)"/>
        <path id="DejaVuSans-2e" d="M 684 794 
L 1344 794 
L 1344 0 
L 684 0 
L 684 794 
z
" transform="scale(0.015625)"/>
       </defs>
       <use xlink:href="#DejaVuSans-2212"/>
       <use xlink:href="#DejaVuSans-30" x="83.789062"/>
       <use xlink:href="#DejaVuSans-2e" x="147.412109"/>
       <use xlink:href="#DejaVuSans-30" x="179.199219"/>
       <use xlink:href="#DejaVuSans-35" x="242.822266"/>
      </g>
     </g>
    </g>
    <g id="ytick_2">
     <g id="line2d_18">
      <g>
       <use xlink:href="#mab753b35a5" x="103.074841" y="330.205224" style="stroke: #000000; stroke-width: 0.8"/>
      </g>
     </g>
     <g id="text_18">
      <!-- 0.00 -->
      <g transform="translate(51.543591 337.803661) scale(0.2 -0.2)">
       <use xlink:href="#DejaVuSans-30"/>
       <use xlink:href="#DejaVuSans-2e" x="63.623047"/>
       <use xlink:href="#DejaVuSans-30" x="95.410156"/>
       <use xlink:href="#DejaVuSans-30" x="159.033203"/>
      </g>
     </g>
    </g>
    <g id="ytick_3">
     <g id="line2d_19">
      <g>
       <use xlink:href="#mab753b35a5" x="103.074841" y="267.123866" style="stroke: #000000; stroke-width: 0.8"/>
      </g>
     </g>
     <g id="text_19">
      <!-- 0.05 -->
      <g transform="translate(51.543591 274.722304) scale(0.2 -0.2)">
       <use xlink:href="#DejaVuSans-30"/>
       <use xlink:href="#DejaVuSans-2e" x="63.623047"/>
       <use xlink:href="#DejaVuSans-30" x="95.410156"/>
       <use xlink:href="#DejaVuSans-35" x="159.033203"/>
      </g>
     </g>
    </g>
    <g id="ytick_4">
     <g id="line2d_20">
      <g>
       <use xlink:href="#mab753b35a5" x="103.074841" y="204.042509" style="stroke: #000000; stroke-width: 0.8"/>
      </g>
     </g>
     <g id="text_20">
      <!-- 0.10 -->
      <g transform="translate(51.543591 211.640947) scale(0.2 -0.2)">
       <use xlink:href="#DejaVuSans-30"/>
       <use xlink:href="#DejaVuSans-2e" x="63.623047"/>
       <use xlink:href="#DejaVuSans-31" x="95.410156"/>
       <use xlink:href="#DejaVuSans-30" x="159.033203"/>
      </g>
     </g>
    </g>
    <g id="ytick_5">
     <g id="line2d_21">
      <g>
       <use xlink:href="#mab753b35a5" x="103.074841" y="140.961152" style="stroke: #000000; stroke-width: 0.8"/>
      </g>
     </g>
     <g id="text_21">
      <!-- 0.15 -->
      <g transform="translate(51.543591 148.559589) scale(0.2 -0.2)">
       <use xlink:href="#DejaVuSans-30"/>
       <use xlink:href="#DejaVuSans-2e" x="63.623047"/>
       <use xlink:href="#DejaVuSans-31" x="95.410156"/>
       <use xlink:href="#DejaVuSans-35" x="159.033203"/>
      </g>
     </g>
    </g>
    <g id="ytick_6">
     <g id="line2d_22">
      <g>
       <use xlink:href="#mab753b35a5" x="103.074841" y="77.879795" style="stroke: #000000; stroke-width: 0.8"/>
      </g>
     </g>
     <g id="text_22">
      <!-- 0.20 -->
      <g transform="translate(51.543591 85.478232) scale(0.2 -0.2)">
       <use xlink:href="#DejaVuSans-30"/>
       <use xlink:href="#DejaVuSans-2e" x="63.623047"/>
       <use xlink:href="#DejaVuSans-32" x="95.410156"/>
       <use xlink:href="#DejaVuSans-30" x="159.033203"/>
      </g>
     </g>
    </g>
    <g id="ytick_7">
     <g id="line2d_23">
      <g>
       <use xlink:href="#mab753b35a5" x="103.074841" y="14.798437" style="stroke: #000000; stroke-width: 0.8"/>
      </g>
     </g>
     <g id="text_23">
      <!-- 0.25 -->
      <g transform="translate(51.543591 22.396875) scale(0.2 -0.2)">
       <use xlink:href="#DejaVuSans-30"/>
       <use xlink:href="#DejaVuSans-2e" x="63.623047"/>
       <use xlink:href="#DejaVuSans-32" x="95.410156"/>
       <use xlink:href="#DejaVuSans-35" x="159.033203"/>
      </g>
     </g>
    </g>
    <g id="text_24">
     <!-- Relative fitness $\gamma_y$ -->
     <g transform="translate(24.584216 296.154717) rotate(-90) scale(0.2 -0.2)">
      <defs>
       <path id="DejaVuSans-52" d="M 2841 2188 
Q 3044 2119 3236 1894 
Q 3428 1669 3622 1275 
L 4263 0 
L 3584 0 
L 2988 1197 
Q 2756 1666 2539 1819 
Q 2322 1972 1947 1972 
L 1259 1972 
L 1259 0 
L 628 0 
L 628 4666 
L 2053 4666 
Q 2853 4666 3247 4331 
Q 3641 3997 3641 3322 
Q 3641 2881 3436 2590 
Q 3231 2300 2841 2188 
z
M 1259 4147 
L 1259 2491 
L 2053 2491 
Q 2509 2491 2742 2702 
Q 2975 2913 2975 3322 
Q 2975 3731 2742 3939 
Q 2509 4147 2053 4147 
L 1259 4147 
z
" transform="scale(0.015625)"/>
       <path id="DejaVuSans-65" d="M 3597 1894 
L 3597 1613 
L 953 1613 
Q 991 1019 1311 708 
Q 1631 397 2203 397 
Q 2534 397 2845 478 
Q 3156 559 3463 722 
L 3463 178 
Q 3153 47 2828 -22 
Q 2503 -91 2169 -91 
Q 1331 -91 842 396 
Q 353 884 353 1716 
Q 353 2575 817 3079 
Q 1281 3584 2069 3584 
Q 2775 3584 3186 3129 
Q 3597 2675 3597 1894 
z
M 3022 2063 
Q 3016 2534 2758 2815 
Q 2500 3097 2075 3097 
Q 1594 3097 1305 2825 
Q 1016 2553 972 2059 
L 3022 2063 
z
" transform="scale(0.015625)"/>
       <path id="DejaVuSans-6c" d="M 603 4863 
L 1178 4863 
L 1178 0 
L 603 0 
L 603 4863 
z
" transform="scale(0.015625)"/>
       <path id="DejaVuSans-61" d="M 2194 1759 
Q 1497 1759 1228 1600 
Q 959 1441 959 1056 
Q 959 750 1161 570 
Q 1363 391 1709 391 
Q 2188 391 2477 730 
Q 2766 1069 2766 1631 
L 2766 1759 
L 2194 1759 
z
M 3341 1997 
L 3341 0 
L 2766 0 
L 2766 531 
Q 2569 213 2275 61 
Q 1981 -91 1556 -91 
Q 1019 -91 701 211 
Q 384 513 384 1019 
Q 384 1609 779 1909 
Q 1175 2209 1959 2209 
L 2766 2209 
L 2766 2266 
Q 2766 2663 2505 2880 
Q 2244 3097 1772 3097 
Q 1472 3097 1187 3025 
Q 903 2953 641 2809 
L 641 3341 
Q 956 3463 1253 3523 
Q 1550 3584 1831 3584 
Q 2591 3584 2966 3190 
Q 3341 2797 3341 1997 
z
" transform="scale(0.015625)"/>
       <path id="DejaVuSans-74" d="M 1172 4494 
L 1172 3500 
L 2356 3500 
L 2356 3053 
L 1172 3053 
L 1172 1153 
Q 1172 725 1289 603 
Q 1406 481 1766 481 
L 2356 481 
L 2356 0 
L 1766 0 
Q 1100 0 847 248 
Q 594 497 594 1153 
L 594 3053 
L 172 3053 
L 172 3500 
L 594 3500 
L 594 4494 
L 1172 4494 
z
" transform="scale(0.015625)"/>
       <path id="DejaVuSans-69" d="M 603 3500 
L 1178 3500 
L 1178 0 
L 603 0 
L 603 3500 
z
M 603 4863 
L 1178 4863 
L 1178 4134 
L 603 4134 
L 603 4863 
z
" transform="scale(0.015625)"/>
       <path id="DejaVuSans-76" d="M 191 3500 
L 800 3500 
L 1894 563 
L 2988 3500 
L 3597 3500 
L 2284 0 
L 1503 0 
L 191 3500 
z
" transform="scale(0.015625)"/>
       <path id="DejaVuSans-20" transform="scale(0.015625)"/>
       <path id="DejaVuSans-66" d="M 2375 4863 
L 2375 4384 
L 1825 4384 
Q 1516 4384 1395 4259 
Q 1275 4134 1275 3809 
L 1275 3500 
L 2222 3500 
L 2222 3053 
L 1275 3053 
L 1275 0 
L 697 0 
L 697 3053 
L 147 3053 
L 147 3500 
L 697 3500 
L 697 3744 
Q 697 4328 969 4595 
Q 1241 4863 1831 4863 
L 2375 4863 
z
" transform="scale(0.015625)"/>
       <path id="DejaVuSans-6e" d="M 3513 2113 
L 3513 0 
L 2938 0 
L 2938 2094 
Q 2938 2591 2744 2837 
Q 2550 3084 2163 3084 
Q 1697 3084 1428 2787 
Q 1159 2491 1159 1978 
L 1159 0 
L 581 0 
L 581 3500 
L 1159 3500 
L 1159 2956 
Q 1366 3272 1645 3428 
Q 1925 3584 2291 3584 
Q 2894 3584 3203 3211 
Q 3513 2838 3513 2113 
z
" transform="scale(0.015625)"/>
       <path id="DejaVuSans-73" d="M 2834 3397 
L 2834 2853 
Q 2591 2978 2328 3040 
Q 2066 3103 1784 3103 
Q 1356 3103 1142 2972 
Q 928 2841 928 2578 
Q 928 2378 1081 2264 
Q 1234 2150 1697 2047 
L 1894 2003 
Q 2506 1872 2764 1633 
Q 3022 1394 3022 966 
Q 3022 478 2636 193 
Q 2250 -91 1575 -91 
Q 1294 -91 989 -36 
Q 684 19 347 128 
L 347 722 
Q 666 556 975 473 
Q 1284 391 1588 391 
Q 1994 391 2212 530 
Q 2431 669 2431 922 
Q 2431 1156 2273 1281 
Q 2116 1406 1581 1522 
L 1381 1569 
Q 847 1681 609 1914 
Q 372 2147 372 2553 
Q 372 3047 722 3315 
Q 1072 3584 1716 3584 
Q 2034 3584 2315 3537 
Q 2597 3491 2834 3397 
z
" transform="scale(0.015625)"/>
       <path id="DejaVuSans-Oblique-3b3" d="M 1491 2950 
L 1838 788 
L 3456 3500 
L 4066 3500 
L 1972 0 
L 1713 -1331 
L 1138 -1331 
L 1397 0 
L 988 2613 
Q 925 3006 628 3006 
L 475 3006 
L 569 3500 
L 788 3500 
Q 1403 3500 1491 2950 
z
" transform="scale(0.015625)"/>
       <path id="DejaVuSans-Oblique-79" d="M 1588 -325 
Q 1188 -997 936 -1164 
Q 684 -1331 294 -1331 
L -159 -1331 
L -63 -850 
L 269 -850 
Q 509 -850 678 -719 
Q 847 -588 1056 -206 
L 1234 128 
L 459 3500 
L 1069 3500 
L 1650 819 
L 3256 3500 
L 3859 3500 
L 1588 -325 
z
" transform="scale(0.015625)"/>
      </defs>
      <use xlink:href="#DejaVuSans-52" transform="translate(0 0.015625)"/>
      <use xlink:href="#DejaVuSans-65" transform="translate(69.482422 0.015625)"/>
      <use xlink:href="#DejaVuSans-6c" transform="translate(131.005859 0.015625)"/>
      <use xlink:href="#DejaVuSans-61" transform="translate(158.789062 0.015625)"/>
      <use xlink:href="#DejaVuSans-74" transform="translate(220.068359 0.015625)"/>
      <use xlink:href="#DejaVuSans-69" transform="translate(259.277344 0.015625)"/>
      <use xlink:href="#DejaVuSans-76" transform="translate(287.060547 0.015625)"/>
      <use xlink:href="#DejaVuSans-65" transform="translate(346.240234 0.015625)"/>
      <use xlink:href="#DejaVuSans-20" transform="translate(407.763672 0.015625)"/>
      <use xlink:href="#DejaVuSans-66" transform="translate(439.550781 0.015625)"/>
      <use xlink:href="#DejaVuSans-69" transform="translate(474.755859 0.015625)"/>
      <use xlink:href="#DejaVuSans-74" transform="translate(502.539062 0.015625)"/>
      <use xlink:href="#DejaVuSans-6e" transform="translate(541.748047 0.015625)"/>
      <use xlink:href="#DejaVuSans-65" transform="translate(605.126953 0.015625)"/>
      <use xlink:href="#DejaVuSans-73" transform="translate(666.650391 0.015625)"/>
      <use xlink:href="#DejaVuSans-73" transform="translate(718.75 0.015625)"/>
      <use xlink:href="#DejaVuSans-20" transform="translate(770.849609 0.015625)"/>
      <use xlink:href="#DejaVuSans-Oblique-3b3" transform="translate(802.636719 0.015625)"/>
      <use xlink:href="#DejaVuSans-Oblique-79" transform="translate(861.816406 -16.390625) scale(0.7)"/>
     </g>
    </g>
   </g>
   <g id="line2d_24">
    <path d="M 103.074841 330.205224 
L 1041.965466 330.205224 
" clip-path="url(#pae4c2fb470)" style="fill: none; stroke-dasharray: 7.4,3.2; stroke-dashoffset: 0; stroke: #000000; stroke-width: 2"/>
   </g>
   <g id="patch_3">
    <path d="M 103.074841 399.594717 
L 103.074841 11.514717 
" style="fill: none; stroke: #000000; stroke-width: 0.8; stroke-linejoin: miter; stroke-linecap: square"/>
   </g>
   <g id="patch_4">
    <path d="M 940.074841 399.594717 
L 940.074841 11.514717 
" style="fill: none; stroke: #000000; stroke-width: 0.8; stroke-linejoin: miter; stroke-linecap: square"/>
   </g>
   <g id="patch_5">
    <path d="M 103.074841 399.594717 
L 940.074841 399.594717 
" style="fill: none; stroke: #000000; stroke-width: 0.8; stroke-linejoin: miter; stroke-linecap: square"/>
   </g>
   <g id="patch_6">
    <path d="M 103.074841 11.514717 
L 940.074841 11.514717 
" style="fill: none; stroke: #000000; stroke-width: 0.8; stroke-linejoin: miter; stroke-linecap: square"/>
   </g>
  </g>
  <g id="axes_2">
   <g id="matplotlib.axis_3">
    <g id="ytick_8">
     <g id="line2d_25">
      <defs>
       <path id="m82f9b3bdca" d="M 0 0 
L 3.5 0 
" style="stroke: #000000; stroke-width: 0.8"/>
      </defs>
      <g>
       <use xlink:href="#m82f9b3bdca" x="940.074841" y="393.286581" style="stroke: #000000; stroke-width: 0.8"/>
      </g>
     </g>
     <g id="text_25">
      <!-- 0.05 -->
      <g transform="translate(947.074841 400.885018) scale(0.2 -0.2)">
       <use xlink:href="#DejaVuSans-2212"/>
       <use xlink:href="#DejaVuSans-30" x="83.789062"/>
       <use xlink:href="#DejaVuSans-2e" x="147.412109"/>
       <use xlink:href="#DejaVuSans-30" x="179.199219"/>
       <use xlink:href="#DejaVuSans-35" x="242.822266"/>
      </g>
     </g>
    </g>
    <g id="ytick_9">
     <g id="line2d_26">
      <g>
       <use xlink:href="#m82f9b3bdca" x="940.074841" y="330.205224" style="stroke: #000000; stroke-width: 0.8"/>
      </g>
     </g>
     <g id="text_26">
      <!-- 0.00 -->
      <g transform="translate(947.074841 337.803661) scale(0.2 -0.2)">
       <use xlink:href="#DejaVuSans-30"/>
       <use xlink:href="#DejaVuSans-2e" x="63.623047"/>
       <use xlink:href="#DejaVuSans-30" x="95.410156"/>
       <use xlink:href="#DejaVuSans-30" x="159.033203"/>
      </g>
     </g>
    </g>
    <g id="ytick_10">
     <g id="line2d_27">
      <g>
       <use xlink:href="#m82f9b3bdca" x="940.074841" y="267.123866" style="stroke: #000000; stroke-width: 0.8"/>
      </g>
     </g>
     <g id="text_27">
      <!-- 0.05 -->
      <g transform="translate(947.074841 274.722304) scale(0.2 -0.2)">
       <use xlink:href="#DejaVuSans-30"/>
       <use xlink:href="#DejaVuSans-2e" x="63.623047"/>
       <use xlink:href="#DejaVuSans-30" x="95.410156"/>
       <use xlink:href="#DejaVuSans-35" x="159.033203"/>
      </g>
     </g>
    </g>
    <g id="ytick_11">
     <g id="line2d_28">
      <g>
       <use xlink:href="#m82f9b3bdca" x="940.074841" y="204.042509" style="stroke: #000000; stroke-width: 0.8"/>
      </g>
     </g>
     <g id="text_28">
      <!-- 0.10 -->
      <g transform="translate(947.074841 211.640947) scale(0.2 -0.2)">
       <use xlink:href="#DejaVuSans-30"/>
       <use xlink:href="#DejaVuSans-2e" x="63.623047"/>
       <use xlink:href="#DejaVuSans-31" x="95.410156"/>
       <use xlink:href="#DejaVuSans-30" x="159.033203"/>
      </g>
     </g>
    </g>
    <g id="ytick_12">
     <g id="line2d_29">
      <g>
       <use xlink:href="#m82f9b3bdca" x="940.074841" y="140.961152" style="stroke: #000000; stroke-width: 0.8"/>
      </g>
     </g>
     <g id="text_29">
      <!-- 0.15 -->
      <g transform="translate(947.074841 148.559589) scale(0.2 -0.2)">
       <use xlink:href="#DejaVuSans-30"/>
       <use xlink:href="#DejaVuSans-2e" x="63.623047"/>
       <use xlink:href="#DejaVuSans-31" x="95.410156"/>
       <use xlink:href="#DejaVuSans-35" x="159.033203"/>
      </g>
     </g>
    </g>
    <g id="ytick_13">
     <g id="line2d_30">
      <g>
       <use xlink:href="#m82f9b3bdca" x="940.074841" y="77.879795" style="stroke: #000000; stroke-width: 0.8"/>
      </g>
     </g>
     <g id="text_30">
      <!-- 0.20 -->
      <g transform="translate(947.074841 85.478232) scale(0.2 -0.2)">
       <use xlink:href="#DejaVuSans-30"/>
       <use xlink:href="#DejaVuSans-2e" x="63.623047"/>
       <use xlink:href="#DejaVuSans-32" x="95.410156"/>
       <use xlink:href="#DejaVuSans-30" x="159.033203"/>
      </g>
     </g>
    </g>
    <g id="ytick_14">
     <g id="line2d_31">
      <g>
       <use xlink:href="#m82f9b3bdca" x="940.074841" y="14.798437" style="stroke: #000000; stroke-width: 0.8"/>
      </g>
     </g>
     <g id="text_31">
      <!-- 0.25 -->
      <g transform="translate(947.074841 22.396875) scale(0.2 -0.2)">
       <use xlink:href="#DejaVuSans-30"/>
       <use xlink:href="#DejaVuSans-2e" x="63.623047"/>
       <use xlink:href="#DejaVuSans-32" x="95.410156"/>
       <use xlink:href="#DejaVuSans-35" x="159.033203"/>
      </g>
     </g>
    </g>
    <g id="text_32">
     <!-- Change in proportion $\gamma_{prop}$ -->
     <g transform="translate(1027.565466 337.054717) rotate(-90) scale(0.2 -0.2)">
      <defs>
       <path id="DejaVuSans-43" d="M 4122 4306 
L 4122 3641 
Q 3803 3938 3442 4084 
Q 3081 4231 2675 4231 
Q 1875 4231 1450 3742 
Q 1025 3253 1025 2328 
Q 1025 1406 1450 917 
Q 1875 428 2675 428 
Q 3081 428 3442 575 
Q 3803 722 4122 1019 
L 4122 359 
Q 3791 134 3420 21 
Q 3050 -91 2638 -91 
Q 1578 -91 968 557 
Q 359 1206 359 2328 
Q 359 3453 968 4101 
Q 1578 4750 2638 4750 
Q 3056 4750 3426 4639 
Q 3797 4528 4122 4306 
z
" transform="scale(0.015625)"/>
       <path id="DejaVuSans-68" d="M 3513 2113 
L 3513 0 
L 2938 0 
L 2938 2094 
Q 2938 2591 2744 2837 
Q 2550 3084 2163 3084 
Q 1697 3084 1428 2787 
Q 1159 2491 1159 1978 
L 1159 0 
L 581 0 
L 581 4863 
L 1159 4863 
L 1159 2956 
Q 1366 3272 1645 3428 
Q 1925 3584 2291 3584 
Q 2894 3584 3203 3211 
Q 3513 2838 3513 2113 
z
" transform="scale(0.015625)"/>
       <path id="DejaVuSans-67" d="M 2906 1791 
Q 2906 2416 2648 2759 
Q 2391 3103 1925 3103 
Q 1463 3103 1205 2759 
Q 947 2416 947 1791 
Q 947 1169 1205 825 
Q 1463 481 1925 481 
Q 2391 481 2648 825 
Q 2906 1169 2906 1791 
z
M 3481 434 
Q 3481 -459 3084 -895 
Q 2688 -1331 1869 -1331 
Q 1566 -1331 1297 -1286 
Q 1028 -1241 775 -1147 
L 775 -588 
Q 1028 -725 1275 -790 
Q 1522 -856 1778 -856 
Q 2344 -856 2625 -561 
Q 2906 -266 2906 331 
L 2906 616 
Q 2728 306 2450 153 
Q 2172 0 1784 0 
Q 1141 0 747 490 
Q 353 981 353 1791 
Q 353 2603 747 3093 
Q 1141 3584 1784 3584 
Q 2172 3584 2450 3431 
Q 2728 3278 2906 2969 
L 2906 3500 
L 3481 3500 
L 3481 434 
z
" transform="scale(0.015625)"/>
       <path id="DejaVuSans-70" d="M 1159 525 
L 1159 -1331 
L 581 -1331 
L 581 3500 
L 1159 3500 
L 1159 2969 
Q 1341 3281 1617 3432 
Q 1894 3584 2278 3584 
Q 2916 3584 3314 3078 
Q 3713 2572 3713 1747 
Q 3713 922 3314 415 
Q 2916 -91 2278 -91 
Q 1894 -91 1617 61 
Q 1341 213 1159 525 
z
M 3116 1747 
Q 3116 2381 2855 2742 
Q 2594 3103 2138 3103 
Q 1681 3103 1420 2742 
Q 1159 2381 1159 1747 
Q 1159 1113 1420 752 
Q 1681 391 2138 391 
Q 2594 391 2855 752 
Q 3116 1113 3116 1747 
z
" transform="scale(0.015625)"/>
       <path id="DejaVuSans-72" d="M 2631 2963 
Q 2534 3019 2420 3045 
Q 2306 3072 2169 3072 
Q 1681 3072 1420 2755 
Q 1159 2438 1159 1844 
L 1159 0 
L 581 0 
L 581 3500 
L 1159 3500 
L 1159 2956 
Q 1341 3275 1631 3429 
Q 1922 3584 2338 3584 
Q 2397 3584 2469 3576 
Q 2541 3569 2628 3553 
L 2631 2963 
z
" transform="scale(0.015625)"/>
       <path id="DejaVuSans-6f" d="M 1959 3097 
Q 1497 3097 1228 2736 
Q 959 2375 959 1747 
Q 959 1119 1226 758 
Q 1494 397 1959 397 
Q 2419 397 2687 759 
Q 2956 1122 2956 1747 
Q 2956 2369 2687 2733 
Q 2419 3097 1959 3097 
z
M 1959 3584 
Q 2709 3584 3137 3096 
Q 3566 2609 3566 1747 
Q 3566 888 3137 398 
Q 2709 -91 1959 -91 
Q 1206 -91 779 398 
Q 353 888 353 1747 
Q 353 2609 779 3096 
Q 1206 3584 1959 3584 
z
" transform="scale(0.015625)"/>
       <path id="DejaVuSans-Oblique-70" d="M 3175 2156 
Q 3175 2616 2975 2859 
Q 2775 3103 2400 3103 
Q 2144 3103 1911 2972 
Q 1678 2841 1497 2591 
Q 1319 2344 1212 1994 
Q 1106 1644 1106 1300 
Q 1106 863 1306 627 
Q 1506 391 1875 391 
Q 2147 391 2380 519 
Q 2613 647 2778 891 
Q 2956 1147 3065 1494 
Q 3175 1841 3175 2156 
z
M 1394 2969 
Q 1625 3272 1939 3428 
Q 2253 3584 2638 3584 
Q 3175 3584 3472 3232 
Q 3769 2881 3769 2247 
Q 3769 1728 3584 1258 
Q 3400 788 3053 416 
Q 2822 169 2531 39 
Q 2241 -91 1919 -91 
Q 1547 -91 1294 64 
Q 1041 219 916 525 
L 556 -1331 
L -19 -1331 
L 922 3500 
L 1497 3500 
L 1394 2969 
z
" transform="scale(0.015625)"/>
       <path id="DejaVuSans-Oblique-72" d="M 2853 2969 
Q 2766 3016 2653 3041 
Q 2541 3066 2413 3066 
Q 1953 3066 1609 2717 
Q 1266 2369 1153 1784 
L 800 0 
L 225 0 
L 909 3500 
L 1484 3500 
L 1375 2956 
Q 1603 3259 1920 3421 
Q 2238 3584 2597 3584 
Q 2691 3584 2781 3573 
Q 2872 3563 2963 3538 
L 2853 2969 
z
" transform="scale(0.015625)"/>
       <path id="DejaVuSans-Oblique-6f" d="M 1625 -91 
Q 1009 -91 651 289 
Q 294 669 294 1325 
Q 294 1706 417 2101 
Q 541 2497 738 2766 
Q 1047 3184 1428 3384 
Q 1809 3584 2291 3584 
Q 2888 3584 3255 3212 
Q 3622 2841 3622 2241 
Q 3622 1825 3500 1412 
Q 3378 1000 3181 728 
Q 2875 309 2494 109 
Q 2113 -91 1625 -91 
z
M 891 1344 
Q 891 869 1089 633 
Q 1288 397 1691 397 
Q 2269 397 2648 901 
Q 3028 1406 3028 2181 
Q 3028 2634 2825 2865 
Q 2622 3097 2228 3097 
Q 1903 3097 1650 2945 
Q 1397 2794 1197 2484 
Q 1050 2253 970 1956 
Q 891 1659 891 1344 
z
" transform="scale(0.015625)"/>
      </defs>
      <use xlink:href="#DejaVuSans-43" transform="translate(0 0.015625)"/>
      <use xlink:href="#DejaVuSans-68" transform="translate(69.824219 0.015625)"/>
      <use xlink:href="#DejaVuSans-61" transform="translate(133.203125 0.015625)"/>
      <use xlink:href="#DejaVuSans-6e" transform="translate(194.482422 0.015625)"/>
      <use xlink:href="#DejaVuSans-67" transform="translate(257.861328 0.015625)"/>
      <use xlink:href="#DejaVuSans-65" transform="translate(321.337891 0.015625)"/>
      <use xlink:href="#DejaVuSans-20" transform="translate(382.861328 0.015625)"/>
      <use xlink:href="#DejaVuSans-69" transform="translate(414.648438 0.015625)"/>
      <use xlink:href="#DejaVuSans-6e" transform="translate(442.431641 0.015625)"/>
      <use xlink:href="#DejaVuSans-20" transform="translate(505.810547 0.015625)"/>
      <use xlink:href="#DejaVuSans-70" transform="translate(537.597656 0.015625)"/>
      <use xlink:href="#DejaVuSans-72" transform="translate(601.074219 0.015625)"/>
      <use xlink:href="#DejaVuSans-6f" transform="translate(642.1875 0.015625)"/>
      <use xlink:href="#DejaVuSans-70" transform="translate(703.369141 0.015625)"/>
      <use xlink:href="#DejaVuSans-6f" transform="translate(766.845703 0.015625)"/>
      <use xlink:href="#DejaVuSans-72" transform="translate(828.027344 0.015625)"/>
      <use xlink:href="#DejaVuSans-74" transform="translate(869.140625 0.015625)"/>
      <use xlink:href="#DejaVuSans-69" transform="translate(908.349609 0.015625)"/>
      <use xlink:href="#DejaVuSans-6f" transform="translate(936.132812 0.015625)"/>
      <use xlink:href="#DejaVuSans-6e" transform="translate(997.314453 0.015625)"/>
      <use xlink:href="#DejaVuSans-20" transform="translate(1060.693359 0.015625)"/>
      <use xlink:href="#DejaVuSans-Oblique-3b3" transform="translate(1092.480469 0.015625)"/>
      <use xlink:href="#DejaVuSans-Oblique-70" transform="translate(1151.660156 -16.390625) scale(0.7)"/>
      <use xlink:href="#DejaVuSans-Oblique-72" transform="translate(1196.09375 -16.390625) scale(0.7)"/>
      <use xlink:href="#DejaVuSans-Oblique-6f" transform="translate(1224.873047 -16.390625) scale(0.7)"/>
      <use xlink:href="#DejaVuSans-Oblique-70" transform="translate(1267.700195 -16.390625) scale(0.7)"/>
     </g>
    </g>
   </g>
   <g id="line2d_32">
    <path d="M 940.074841 330.205224 
" clip-path="url(#pae4c2fb470)" style="fill: none; stroke: #ffa500; stroke-width: 1.5; stroke-linecap: square"/>
   </g>
   <g id="patch_7">
    <path d="M 103.074841 399.594717 
L 103.074841 11.514717 
" style="fill: none; stroke: #000000; stroke-width: 0.8; stroke-linejoin: miter; stroke-linecap: square"/>
   </g>
   <g id="patch_8">
    <path d="M 940.074841 399.594717 
L 940.074841 11.514717 
" style="fill: none; stroke: #000000; stroke-width: 0.8; stroke-linejoin: miter; stroke-linecap: square"/>
   </g>
   <g id="patch_9">
    <path d="M 103.074841 399.594717 
L 940.074841 399.594717 
" style="fill: none; stroke: #000000; stroke-width: 0.8; stroke-linejoin: miter; stroke-linecap: square"/>
   </g>
   <g id="patch_10">
    <path d="M 103.074841 11.514717 
L 940.074841 11.514717 
" style="fill: none; stroke: #000000; stroke-width: 0.8; stroke-linejoin: miter; stroke-linecap: square"/>
   </g>
  </g>
 </g>
 <defs>
  <clipPath id="pae4c2fb470">
   <rect x="103.074841" y="11.514717" width="837" height="388.08"/>
  </clipPath>
 </defs>
</svg>
