<?xml version="1.0" encoding="utf-8" standalone="no"?>
<!DOCTYPE svg PUBLIC "-//W3C//DTD SVG 1.1//EN"
  "http://www.w3.org/Graphics/SVG/1.1/DTD/svg11.dtd">
<svg xmlns:xlink="http://www.w3.org/1999/xlink" width="1064.23125pt" height="505.354841pt" viewBox="0 0 1064.23125 505.354841" xmlns="http://www.w3.org/2000/svg" version="1.1">
 <metadata>
  <rdf:RDF xmlns:dc="http://purl.org/dc/elements/1.1/" xmlns:cc="http://creativecommons.org/ns#" xmlns:rdf="http://www.w3.org/1999/02/22-rdf-syntax-ns#">
   <cc:Work>
    <dc:type rdf:resource="http://purl.org/dc/dcmitype/StillImage"/>
    <dc:date>2023-11-29T15:30:25.092717</dc:date>
    <dc:format>image/svg+xml</dc:format>
    <dc:creator>
     <cc:Agent>
      <dc:title>Matplotlib v3.7.2, https://matplotlib.org/</dc:title>
     </cc:Agent>
    </dc:creator>
   </cc:Work>
  </rdf:RDF>
 </metadata>
 <defs>
  <style type="text/css">*{stroke-linejoin: round; stroke-linecap: butt}</style>
 </defs>
 <g id="figure_1">
  <g id="patch_1">
   <path d="M 0 505.354841 
L 1064.23125 505.354841 
L 1064.23125 -0 
L 0 -0 
z
" style="fill: #ffffff"/>
  </g>
  <g id="axes_1">
   <g id="patch_2">
    <path d="M 113.615625 395.28 
L 950.615625 395.28 
L 950.615625 7.2 
L 113.615625 7.2 
z
" style="fill: #ffffff"/>
   </g>
   <g id="PolyCollection_1">
    <defs>
     <path id="m39fa6aeda4" d="M 113.615625 -207.976883 
L 113.615625 -207.956789 
L 114.897401 -208.072878 
L 116.179178 -208.16916 
L 117.460954 -208.283957 
L 118.742731 -208.360038 
L 120.024507 -208.441755 
L 121.306283 -208.541704 
L 122.58806 -208.639944 
L 123.869836 -208.730971 
L 125.151613 -208.80475 
L 126.433389 -208.895847 
L 127.715166 -208.996544 
L 128.996942 -209.095346 
L 130.278718 -209.208289 
L 131.560495 -209.301998 
L 132.842271 -209.412006 
L 134.124048 -209.51196 
L 135.405824 -209.640719 
L 136.6876 -209.746986 
L 137.969377 -209.848995 
L 139.251153 -209.972743 
L 140.53293 -210.093285 
L 141.814706 -210.209259 
L 143.096483 -210.349526 
L 144.378259 -210.471129 
L 145.660035 -210.621506 
L 146.941812 -210.763131 
L 148.223588 -210.930133 
L 149.505365 -211.102765 
L 150.787141 -211.265248 
L 152.068917 -211.449444 
L 153.350694 -211.667242 
L 154.63247 -211.856001 
L 155.914247 -212.072989 
L 157.196023 -212.323547 
L 158.4778 -212.562605 
L 159.759576 -212.826128 
L 161.041352 -213.103247 
L 162.323129 -213.38423 
L 163.604905 -213.689211 
L 164.886682 -214.032465 
L 166.168458 -214.379591 
L 167.450234 -214.749015 
L 168.732011 -215.115094 
L 170.013787 -215.535093 
L 171.295564 -215.935848 
L 172.57734 -216.373328 
L 173.859117 -216.791697 
L 175.140893 -217.259945 
L 176.422669 -217.760709 
L 177.704446 -218.230257 
L 178.986222 -218.733167 
L 180.267999 -219.267834 
L 181.549775 -219.787972 
L 182.831551 -220.315371 
L 184.113328 -220.869611 
L 185.395104 -221.428001 
L 186.676881 -221.990494 
L 187.958657 -222.57871 
L 189.240434 -223.173896 
L 190.52221 -223.765114 
L 191.803986 -224.378263 
L 193.085763 -224.991531 
L 194.367539 -225.60278 
L 195.649316 -226.243208 
L 196.931092 -226.901758 
L 198.212868 -227.555119 
L 199.494645 -228.206217 
L 200.776421 -228.850383 
L 202.058198 -229.51491 
L 203.339974 -230.166389 
L 204.621751 -230.831414 
L 205.903527 -231.433583 
L 207.185303 -232.138429 
L 208.46708 -232.744819 
L 209.748856 -233.439988 
L 211.030633 -234.061038 
L 212.312409 -234.737867 
L 213.594185 -235.334409 
L 214.875962 -236.021932 
L 216.157738 -236.663643 
L 217.439515 -237.264635 
L 218.721291 -237.932106 
L 220.003068 -238.532814 
L 221.284844 -239.172817 
L 222.56662 -239.827969 
L 223.848397 -240.457475 
L 225.130173 -241.061526 
L 226.41195 -241.71576 
L 227.693726 -242.342223 
L 228.975502 -242.985782 
L 230.257279 -243.616763 
L 231.539055 -244.219334 
L 232.820832 -244.841659 
L 234.102608 -245.471924 
L 235.384385 -246.031763 
L 236.666161 -246.678339 
L 237.947937 -247.29526 
L 239.229714 -247.901797 
L 240.51149 -248.510341 
L 241.793267 -249.118286 
L 243.075043 -249.736083 
L 244.356819 -250.322869 
L 245.638596 -250.936861 
L 246.920372 -251.568749 
L 248.202149 -252.209047 
L 249.483925 -252.857537 
L 250.765702 -253.4606 
L 252.047478 -254.131117 
L 253.329254 -254.850485 
L 254.611031 -255.528833 
L 255.892807 -256.233686 
L 257.174584 -256.956363 
L 258.45636 -257.722969 
L 259.738136 -258.503739 
L 261.019913 -259.223758 
L 262.301689 -260.05348 
L 263.583466 -260.837862 
L 264.865242 -261.68643 
L 266.147019 -262.459248 
L 267.428795 -263.379347 
L 268.710571 -264.278842 
L 269.992348 -265.149772 
L 271.274124 -266.036018 
L 272.555901 -266.950562 
L 273.837677 -267.90892 
L 275.119453 -268.800661 
L 276.40123 -269.832485 
L 277.683006 -270.728357 
L 278.964783 -271.790499 
L 280.246559 -272.815116 
L 281.528336 -273.812168 
L 282.810112 -274.851187 
L 284.091888 -275.932588 
L 285.373665 -276.895835 
L 286.655441 -278.195572 
L 287.937218 -279.298675 
L 289.218994 -280.317828 
L 290.50077 -281.48008 
L 291.782547 -282.701287 
L 293.064323 -284.074198 
L 294.3461 -285.34801 
L 295.627876 -286.403593 
L 296.909653 -288.132061 
L 298.191429 -289.494677 
L 299.473205 -290.885323 
L 300.754982 -292.327509 
L 302.036758 -293.983237 
L 303.318535 -295.557828 
L 304.600311 -296.68159 
L 305.882087 -298.124712 
L 307.163864 -300.638094 
L 308.44564 -302.740651 
L 309.727417 -304.262478 
L 311.009193 -306.275583 
L 312.29097 -308.171517 
L 313.572746 -309.57337 
L 314.854522 -311.937064 
L 316.136299 -314.507504 
L 317.418075 -316.202598 
L 318.699852 -317.243374 
L 319.981628 -319.441239 
L 321.263404 -320.351845 
L 322.545181 -321.806594 
L 323.826957 -324.023011 
L 325.108734 -324.451977 
L 326.39051 -323.578602 
L 327.672287 -321.779879 
L 328.954063 -324.123252 
L 330.235839 -320.009521 
L 331.517616 -318.684689 
L 332.799392 -324.637567 
L 334.081169 -323.059363 
L 335.362945 -319.833247 
L 336.644721 -321.272766 
L 337.926498 -321.41517 
L 339.208274 -309.510753 
L 340.490051 -292.40487 
L 341.771827 -283.951742 
L 343.053604 -302.093673 
L 344.33538 -292.609489 
L 345.617156 -280.103103 
L 346.898933 -280.658008 
L 348.180709 -255.51181 
L 349.462486 -259.038162 
L 350.744262 -266.502392 
L 352.026038 -285.390643 
L 353.307815 -267.345667 
L 354.589591 -256.718707 
L 355.871368 -260.859222 
L 357.153144 -258.260144 
L 358.434921 -248.023731 
L 359.716697 -249.238781 
L 360.998473 -257.871723 
L 362.28025 -246.869479 
L 363.562026 -244.613205 
L 364.843803 -248.40796 
L 366.125579 -241.308284 
L 367.407355 -238.486386 
L 368.689132 -239.304998 
L 369.970908 -241.304738 
L 371.252685 -238.901762 
L 372.534461 -241.113964 
L 373.816238 -240.783819 
L 375.098014 -238.411624 
L 376.37979 -240.405081 
L 377.661567 -239.224115 
L 378.943343 -239.012929 
L 380.22512 -240.526146 
L 381.506896 -239.782434 
L 382.788672 -242.016487 
L 384.070449 -241.704703 
L 385.352225 -240.867292 
L 386.634002 -240.667887 
L 387.915778 -241.650371 
L 389.197555 -242.454212 
L 390.479331 -242.498766 
L 391.761107 -243.390798 
L 393.042884 -243.343766 
L 394.32466 -243.332259 
L 395.606437 -244.705803 
L 396.888213 -243.67281 
L 398.169989 -244.532535 
L 399.451766 -244.758364 
L 400.733542 -244.455012 
L 402.015319 -245.239357 
L 403.297095 -245.196874 
L 404.578872 -244.542818 
L 405.860648 -243.678991 
L 407.142424 -245.127875 
L 408.424201 -245.096512 
L 409.705977 -245.374149 
L 410.987754 -242.069261 
L 412.26953 -241.631038 
L 413.551306 -240.092209 
L 414.833083 -242.682743 
L 416.114859 -244.144438 
L 417.396636 -243.285589 
L 418.678412 -240.982429 
L 419.960189 -240.328309 
L 421.241965 -243.519933 
L 422.523741 -240.177766 
L 423.805518 -240.638751 
L 425.087294 -240.710227 
L 426.369071 -242.063122 
L 427.650847 -240.411891 
L 428.932623 -240.856382 
L 430.2144 -239.773253 
L 431.496176 -240.465309 
L 432.777953 -240.964163 
L 434.059729 -242.11012 
L 435.341506 -242.487303 
L 436.623282 -242.798186 
L 437.905058 -243.373737 
L 439.186835 -243.16328 
L 440.468611 -243.619032 
L 441.750388 -244.108221 
L 443.032164 -246.054914 
L 444.31394 -247.411298 
L 445.595717 -247.766459 
L 446.877493 -249.28909 
L 448.15927 -249.000085 
L 449.441046 -250.07538 
L 450.722823 -252.092751 
L 452.004599 -253.568066 
L 453.286375 -254.479205 
L 454.568152 -256.570635 
L 455.849928 -257.384312 
L 457.131705 -259.026831 
L 458.413481 -260.384576 
L 459.695257 -262.053796 
L 460.977034 -264.014011 
L 462.25881 -265.423683 
L 463.540587 -267.179881 
L 464.822363 -268.609843 
L 466.10414 -270.880311 
L 467.385916 -272.872218 
L 468.667692 -274.972182 
L 469.949469 -276.309588 
L 471.231245 -278.481942 
L 472.513022 -280.37117 
L 473.794798 -282.587646 
L 475.076574 -285.764276 
L 476.358351 -287.349178 
L 477.640127 -289.599001 
L 478.921904 -291.663774 
L 480.20368 -293.935507 
L 481.485457 -296.876954 
L 482.767233 -299.193097 
L 484.049009 -301.835197 
L 485.330786 -305.126378 
L 486.612562 -306.996905 
L 487.894339 -310.0017 
L 489.176115 -311.877955 
L 490.457891 -315.007138 
L 491.739668 -318.503702 
L 493.021444 -320.973616 
L 494.303221 -323.012047 
L 495.584997 -326.455363 
L 496.866774 -328.953732 
L 498.14855 -331.957083 
L 499.430326 -334.321996 
L 500.712103 -337.716504 
L 501.993879 -340.759847 
L 503.275656 -339.894483 
L 504.557432 -346.334772 
L 505.839208 -346.720182 
L 507.120985 -350.167709 
L 508.402761 -351.99577 
L 509.684538 -354.928684 
L 510.966314 -357.411806 
L 512.248091 -359.928522 
L 513.529867 -362.584136 
L 514.811643 -364.135399 
L 516.09342 -366.382104 
L 517.375196 -363.490031 
L 518.656973 -371.634872 
L 519.938749 -372.514914 
L 521.220525 -365.609745 
L 522.502302 -374.463063 
L 523.784078 -372.285519 
L 525.065855 -372.449131 
L 526.347631 -377.519988 
L 527.629408 -376.151566 
L 528.911184 -370.816825 
L 530.19296 -374.294166 
L 531.474737 -375.236548 
L 532.756513 -372.131174 
L 534.03829 -371.703537 
L 535.320066 -370.354975 
L 536.601842 -365.752215 
L 537.883619 -360.799356 
L 539.165395 -348.679256 
L 540.447172 -351.554377 
L 541.728948 -344.695047 
L 543.010725 -340.064591 
L 544.292501 -335.857016 
L 545.574277 -330.382248 
L 546.856054 -326.290301 
L 548.13783 -334.21695 
L 549.419607 -328.118648 
L 550.701383 -317.500998 
L 551.983159 -312.032373 
L 553.264936 -311.298395 
L 554.546712 -299.47158 
L 555.828489 -298.026473 
L 557.110265 -295.671301 
L 558.392042 -297.168625 
L 559.673818 -287.319278 
L 560.955594 -291.388434 
L 562.237371 -294.62651 
L 563.519147 -286.571431 
L 564.800924 -280.255931 
L 566.0827 -282.923987 
L 567.364476 -279.104588 
L 568.646253 -278.38891 
L 569.928029 -279.497867 
L 571.209806 -281.670301 
L 572.491582 -280.765022 
L 573.773359 -280.105729 
L 575.055135 -273.487672 
L 576.336911 -280.260994 
L 577.618688 -274.64231 
L 578.900464 -277.031533 
L 580.182241 -278.930193 
L 581.464017 -277.266397 
L 582.745793 -277.249612 
L 584.02757 -282.044201 
L 585.309346 -279.662549 
L 586.591123 -279.976187 
L 587.872899 -276.25034 
L 589.154676 -279.11847 
L 590.436452 -281.776144 
L 591.718228 -280.017307 
L 593.000005 -280.400541 
L 594.281781 -282.063688 
L 595.563558 -284.676358 
L 596.845334 -284.014236 
L 598.12711 -288.156918 
L 599.408887 -288.968161 
L 600.690663 -284.384123 
L 601.97244 -285.760095 
L 603.254216 -289.462413 
L 604.535993 -290.780278 
L 605.817769 -291.657834 
L 607.099545 -296.22062 
L 608.381322 -295.54691 
L 609.663098 -296.539738 
L 610.944875 -298.104127 
L 612.226651 -299.698338 
L 613.508427 -302.716034 
L 614.790204 -301.944611 
L 616.07198 -303.995172 
L 617.353757 -305.737486 
L 618.635533 -307.199555 
L 619.91731 -308.587203 
L 621.199086 -310.351127 
L 622.480862 -314.227731 
L 623.762639 -315.843651 
L 625.044415 -318.454315 
L 626.326192 -322.900393 
L 627.607968 -320.64508 
L 628.889744 -326.327965 
L 630.171521 -325.610817 
L 631.453297 -326.517743 
L 632.735074 -327.143504 
L 634.01685 -330.700684 
L 635.298627 -331.706904 
L 636.580403 -332.112706 
L 637.862179 -337.392532 
L 639.143956 -336.595543 
L 640.425732 -338.092078 
L 641.707509 -338.123716 
L 642.989285 -341.712596 
L 644.271061 -341.305089 
L 645.552838 -342.812779 
L 646.834614 -346.938952 
L 648.116391 -348.728445 
L 649.398167 -350.540878 
L 650.679944 -351.452595 
L 651.96172 -353.46225 
L 653.243496 -354.323878 
L 654.525273 -355.643551 
L 655.807049 -357.111753 
L 657.088826 -358.481535 
L 658.370602 -361.497919 
L 659.652378 -360.326694 
L 660.934155 -360.551773 
L 662.215931 -363.072779 
L 663.497708 -364.831484 
L 664.779484 -368.482619 
L 666.061261 -366.38158 
L 667.343037 -367.057182 
L 668.624813 -368.480395 
L 669.90659 -370.34172 
L 671.188366 -372.538829 
L 672.470143 -374.82824 
L 673.751919 -375.087489 
L 675.033695 -376.380403 
L 676.315472 -376.724066 
L 677.597248 -379.548137 
L 678.879025 -382.448736 
L 680.160801 -379.937131 
L 681.442578 -383.009763 
L 682.724354 -383.486838 
L 684.00613 -382.089025 
L 685.287907 -388.489878 
L 686.569683 -387.956962 
L 687.85146 -387.127676 
L 689.133236 -390.294298 
L 690.415012 -387.121559 
L 691.696789 -391.166884 
L 692.978565 -394.356995 
L 694.260342 -391.619571 
L 695.542118 -391.261236 
L 696.823895 -393.822349 
L 698.105671 -394.274506 
L 699.387447 -395.309491 
L 700.669224 -389.801888 
L 701.951 -391.363596 
L 703.232777 -391.206709 
L 704.514553 -395.386289 
L 705.796329 -399.079105 
L 707.078106 -395.220915 
L 708.359882 -390.205707 
L 709.641659 -395.050072 
L 710.923435 -396.503008 
L 712.205212 -399.829882 
L 713.486988 -399.155666 
L 714.768764 -398.043321 
L 716.050541 -401.724303 
L 717.332317 -402.476244 
L 718.614094 -398.752814 
L 719.89587 -401.705147 
L 721.177646 -398.001543 
L 722.459423 -397.435922 
L 723.741199 -404.974344 
L 725.022976 -404.166264 
L 726.304752 -404.662005 
L 727.586529 -403.503036 
L 728.868305 -400.891844 
L 730.150081 -394.403767 
L 731.431858 -392.515005 
L 732.713634 -393.558217 
L 733.995411 -387.854224 
L 735.277187 -376.36715 
L 736.558963 -389.876916 
L 737.84074 -393.390106 
L 739.122516 -389.370552 
L 740.404293 -385.697789 
L 741.686069 -385.249209 
L 742.967846 -387.176255 
L 744.249622 -379.641627 
L 745.531398 -375.136803 
L 746.813175 -383.584042 
L 748.094951 -375.424813 
L 749.376728 -380.104384 
L 750.658504 -380.572951 
L 751.94028 -372.635816 
L 753.222057 -372.744069 
L 754.503833 -368.056451 
L 755.78561 -367.824166 
L 757.067386 -375.384472 
L 758.349163 -369.673171 
L 759.630939 -369.807529 
L 760.912715 -364.315951 
L 762.194492 -366.25099 
L 763.476268 -360.280645 
L 764.758045 -365.240231 
L 766.039821 -362.010194 
L 767.321597 -361.960787 
L 768.603374 -358.057846 
L 769.88515 -365.26737 
L 771.166927 -357.735071 
L 772.448703 -356.707575 
L 773.73048 -353.224936 
L 775.012256 -349.144616 
L 776.294032 -350.155684 
L 777.575809 -351.817321 
L 778.857585 -347.6187 
L 780.139362 -343.016436 
L 781.421138 -346.383182 
L 782.702914 -349.092827 
L 783.984691 -345.054252 
L 785.266467 -342.354244 
L 786.548244 -348.31751 
L 787.83002 -349.585479 
L 789.111797 -339.080613 
L 790.393573 -336.097677 
L 791.675349 -346.687641 
L 792.957126 -342.776232 
L 794.238902 -341.388571 
L 795.520679 -340.218211 
L 796.802455 -334.536174 
L 798.084231 -336.531456 
L 799.366008 -339.759026 
L 800.647784 -336.35187 
L 801.929561 -335.373834 
L 803.211337 -341.192067 
L 804.493114 -339.457356 
L 805.77489 -340.113472 
L 807.056666 -329.904405 
L 808.338443 -322.400119 
L 809.620219 -322.134078 
L 810.901996 -329.887945 
L 812.183772 -333.838313 
L 813.465548 -332.058117 
L 814.747325 -331.662963 
L 816.029101 -322.019695 
L 817.310878 -333.16157 
L 818.592654 -323.713322 
L 819.874431 -317.322186 
L 821.156207 -322.761387 
L 822.437983 -312.161098 
L 823.71976 -319.679588 
L 825.001536 -315.045488 
L 826.283313 -317.96346 
L 827.565089 -313.900544 
L 828.846865 -308.769745 
L 830.128642 -310.914441 
L 831.410418 -307.68186 
L 832.692195 -308.034471 
L 833.973971 -306.301005 
L 835.255748 -318.780943 
L 836.537524 -301.474315 
L 837.8193 -294.154599 
L 839.101077 -302.074036 
L 840.382853 -296.148817 
L 841.66463 -294.034417 
L 842.946406 -297.269859 
L 844.228182 -290.836512 
L 845.509959 -285.167226 
L 846.791735 -286.473958 
L 848.073512 -284.770228 
L 849.355288 -283.85773 
L 850.637065 -281.654179 
L 851.918841 -277.161912 
L 853.200617 -286.523746 
L 854.482394 -272.965537 
L 855.76417 -272.258008 
L 857.045947 -273.391795 
L 858.327723 -280.96855 
L 859.609499 -270.253866 
L 860.891276 -261.690207 
L 862.173052 -270.454278 
L 863.454829 -269.215892 
L 864.736605 -258.514506 
L 866.018382 -277.422437 
L 867.300158 -260.124386 
L 868.581934 -269.521876 
L 869.863711 -254.465577 
L 871.145487 -262.737239 
L 872.427264 -255.130777 
L 873.70904 -254.394574 
L 874.990816 -250.351068 
L 876.272593 -249.826098 
L 877.554369 -253.663487 
L 878.836146 -254.702305 
L 880.117922 -250.856654 
L 881.399699 -244.717258 
L 882.681475 -245.512957 
L 883.963251 -245.377699 
L 885.245028 -241.258148 
L 886.526804 -241.242721 
L 887.808581 -244.121846 
L 889.090357 -244.445384 
L 890.372133 -234.408858 
L 891.65391 -233.063844 
L 892.935686 -228.339691 
L 894.217463 -240.123005 
L 895.499239 -247.493692 
L 896.781016 -235.691925 
L 898.062792 -242.151388 
L 899.344568 -237.16284 
L 900.626345 -227.320314 
L 901.908121 -241.239879 
L 903.189898 -224.637083 
L 904.471674 -238.889911 
L 905.75345 -238.361168 
L 907.035227 -238.001295 
L 908.317003 -225.781829 
L 909.59878 -228.328735 
L 910.880556 -230.21389 
L 912.162333 -238.926189 
L 913.444109 -235.741295 
L 914.725885 -230.857387 
L 916.007662 -233.439143 
L 917.289438 -224.09407 
L 918.571215 -231.997563 
L 919.852991 -223.235109 
L 921.134767 -217.339009 
L 922.416544 -216.776829 
L 923.69832 -223.823223 
L 924.980097 -224.813157 
L 926.261873 -224.813772 
L 927.54365 -220.768803 
L 928.825426 -220.771854 
L 930.107202 -236.401336 
L 931.388979 -223.191668 
L 932.670755 -256.580182 
L 933.952532 -222.589444 
L 935.234308 -216.278552 
L 936.516084 -226.885001 
L 937.797861 -237.486364 
L 939.079637 -218.412659 
L 940.361414 -225.281821 
L 941.64319 -241.202617 
L 942.924967 -229.58368 
L 944.206743 -229.977858 
L 945.488519 -233.155437 
L 946.770296 -220.985922 
L 948.052072 -227.626951 
L 949.333849 -224.374779 
L 950.615625 -222.871491 
L 950.615625 -251.530474 
L 950.615625 -251.530474 
L 949.333849 -245.793345 
L 948.052072 -249.384218 
L 946.770296 -245.477821 
L 945.488519 -250.961131 
L 944.206743 -249.498184 
L 942.924967 -250.083341 
L 941.64319 -252.359142 
L 940.361414 -244.636198 
L 939.079637 -244.428205 
L 937.797861 -250.296747 
L 936.516084 -246.970578 
L 935.234308 -241.178177 
L 933.952532 -244.500223 
L 932.670755 -294.049506 
L 931.388979 -243.436808 
L 930.107202 -247.935325 
L 928.825426 -242.314685 
L 927.54365 -241.759118 
L 926.261873 -243.09491 
L 924.980097 -242.122511 
L 923.69832 -240.743055 
L 922.416544 -238.696198 
L 921.134767 -238.496204 
L 919.852991 -239.901746 
L 918.571215 -243.58159 
L 917.289438 -240.437197 
L 916.007662 -245.498068 
L 914.725885 -243.879934 
L 913.444109 -246.30789 
L 912.162333 -248.087365 
L 910.880556 -242.716687 
L 909.59878 -241.14622 
L 908.317003 -239.178031 
L 907.035227 -247.205928 
L 905.75345 -247.104882 
L 904.471674 -247.445415 
L 903.189898 -238.921961 
L 901.908121 -249.387626 
L 900.626345 -239.914515 
L 899.344568 -246.36897 
L 898.062792 -252.275475 
L 896.781016 -245.486088 
L 895.499239 -268.48594 
L 894.217463 -248.262452 
L 892.935686 -240.545326 
L 891.65391 -243.025392 
L 890.372133 -244.299397 
L 889.090357 -262.605949 
L 887.808581 -259.337647 
L 886.526804 -253.04516 
L 885.245028 -253.05116 
L 883.963251 -262.394421 
L 882.681475 -261.322208 
L 881.399699 -260.963414 
L 880.117922 -271.596635 
L 878.836146 -284.376915 
L 877.554369 -282.819507 
L 876.272593 -273.124707 
L 874.990816 -274.257675 
L 873.70904 -281.931881 
L 872.427264 -283.677149 
L 871.145487 -304.905367 
L 869.863711 -281.722049 
L 868.581934 -330.861229 
L 867.300158 -299.377195 
L 866.018382 -346.835327 
L 864.736605 -292.627837 
L 863.454829 -321.165688 
L 862.173052 -322.001643 
L 860.891276 -302.935997 
L 859.609499 -322.759438 
L 858.327723 -350.996752 
L 857.045947 -331.791247 
L 855.76417 -327.029424 
L 854.482394 -328.404932 
L 853.200617 -361.797577 
L 851.918841 -348.42461 
L 850.637065 -348.490237 
L 849.355288 -351.837888 
L 848.073512 -354.469792 
L 846.791735 -360.198134 
L 845.509959 -356.049084 
L 844.228182 -370.046035 
L 842.946406 -385.135114 
L 841.66463 -371.436489 
L 840.382853 -383.220685 
L 839.101077 -391.599368 
L 837.8193 -373.004647 
L 836.537524 -389.580741 
L 835.255748 -431.300223 
L 833.973971 -401.044846 
L 832.692195 -405.994943 
L 831.410418 -403.85032 
L 830.128642 -411.171008 
L 828.846865 -405.457994 
L 827.565089 -416.306543 
L 826.283313 -423.808953 
L 825.001536 -417.052383 
L 823.71976 -430.011637 
L 822.437983 -410.109671 
L 821.156207 -434.039186 
L 819.874431 -422.93471 
L 818.592654 -434.635691 
L 817.310878 -451.485891 
L 816.029101 -430.071618 
L 814.747325 -451.795463 
L 813.465548 -449.930263 
L 812.183772 -452.50177 
L 810.901996 -443.938345 
L 809.620219 -428.514109 
L 808.338443 -427.189027 
L 807.056666 -440.681059 
L 805.77489 -463.47292 
L 804.493114 -461.260458 
L 803.211337 -461.498155 
L 801.929561 -449.326096 
L 800.647784 -450.817221 
L 799.366008 -457.497047 
L 798.084231 -449.178052 
L 796.802455 -446.275017 
L 795.520679 -456.091195 
L 794.238902 -455.336964 
L 792.957126 -458.292719 
L 791.675349 -464.168653 
L 790.393573 -441.449901 
L 789.111797 -450.034953 
L 787.83002 -466.166609 
L 786.548244 -461.052409 
L 785.266467 -450.585866 
L 783.984691 -454.844039 
L 782.702914 -460.216605 
L 781.421138 -452.635833 
L 780.139362 -443.060742 
L 778.857585 -454.501974 
L 777.575809 -459.13487 
L 776.294032 -454.140666 
L 775.012256 -457.166466 
L 773.73048 -457.908059 
L 772.448703 -463.875944 
L 771.166927 -462.983079 
L 769.88515 -474.736929 
L 768.603374 -462.974866 
L 767.321597 -466.993107 
L 766.039821 -464.730079 
L 764.758045 -466.277485 
L 763.476268 -460.27856 
L 762.194492 -468.504263 
L 760.912715 -462.384907 
L 759.630939 -470.2249 
L 758.349163 -468.395619 
L 757.067386 -475.340461 
L 755.78561 -467.228092 
L 754.503833 -463.046184 
L 753.222057 -465.170042 
L 751.94028 -466.372692 
L 750.658504 -475.24069 
L 749.376728 -471.879659 
L 748.094951 -467.733138 
L 746.813175 -476.552755 
L 745.531398 -466.89215 
L 744.249622 -468.854515 
L 742.967846 -478.864977 
L 741.686069 -473.815762 
L 740.404293 -474.025573 
L 739.122516 -477.388748 
L 737.84074 -479.778757 
L 736.558963 -474.892635 
L 735.277187 -454.660659 
L 733.995411 -467.667288 
L 732.713634 -474.800566 
L 731.431858 -472.658047 
L 730.150081 -474.239639 
L 728.868305 -479.639658 
L 727.586529 -481.308188 
L 726.304752 -484.335886 
L 725.022976 -479.168438 
L 723.741199 -478.196448 
L 722.459423 -469.398512 
L 721.177646 -468.195464 
L 719.89587 -470.646401 
L 718.614094 -465.319982 
L 717.332317 -469.181213 
L 716.050541 -465.530264 
L 714.768764 -460.810259 
L 713.486988 -459.31312 
L 712.205212 -460.307284 
L 710.923435 -454.247417 
L 709.641659 -451.751763 
L 708.359882 -445.992519 
L 707.078106 -449.397542 
L 705.796329 -452.537199 
L 704.514553 -447.515651 
L 703.232777 -443.487656 
L 701.951 -442.19699 
L 700.669224 -437.889659 
L 699.387447 -443.519266 
L 698.105671 -440.855402 
L 696.823895 -440.005146 
L 695.542118 -437.408471 
L 694.260342 -437.908315 
L 692.978565 -439.149806 
L 691.696789 -433.31982 
L 690.415012 -429.309503 
L 689.133236 -432.512927 
L 687.85146 -427.941938 
L 686.569683 -429.790433 
L 685.287907 -427.575784 
L 684.00613 -420.285718 
L 682.724354 -421.271253 
L 681.442578 -419.561407 
L 680.160801 -416.028548 
L 678.879025 -418.274939 
L 677.597248 -415.277751 
L 676.315472 -411.022477 
L 675.033695 -410.53721 
L 673.751919 -408.336875 
L 672.470143 -407.766319 
L 671.188366 -405.192599 
L 669.90659 -402.52437 
L 668.624813 -400.378812 
L 667.343037 -399.144659 
L 666.061261 -397.701224 
L 664.779484 -402.088845 
L 663.497708 -395.860793 
L 662.215931 -393.866887 
L 660.934155 -391.307811 
L 659.652378 -391.640172 
L 658.370602 -391.697666 
L 657.088826 -388.187902 
L 655.807049 -386.537427 
L 654.525273 -384.361773 
L 653.243496 -383.155124 
L 651.96172 -381.996458 
L 650.679944 -380.201211 
L 649.398167 -378.692708 
L 648.116391 -376.582568 
L 646.834614 -374.277766 
L 645.552838 -369.754416 
L 644.271061 -368.334634 
L 642.989285 -369.017299 
L 641.707509 -365.164632 
L 640.425732 -365.688148 
L 639.143956 -363.860094 
L 637.862179 -366.093075 
L 636.580403 -358.810435 
L 635.298627 -358.617931 
L 634.01685 -357.486868 
L 632.735074 -353.602232 
L 631.453297 -353.106274 
L 630.171521 -352.013076 
L 628.889744 -353.168407 
L 627.607968 -346.842267 
L 626.326192 -348.883983 
L 625.044415 -343.50073 
L 623.762639 -340.189746 
L 622.480862 -338.076563 
L 621.199086 -333.241641 
L 619.91731 -330.592756 
L 618.635533 -329.478554 
L 617.353757 -327.176213 
L 616.07198 -325.435031 
L 614.790204 -322.772097 
L 613.508427 -323.694246 
L 612.226651 -319.698757 
L 610.944875 -317.07137 
L 609.663098 -315.368579 
L 608.381322 -314.060981 
L 607.099545 -314.23463 
L 605.817769 -309.005546 
L 604.535993 -307.61208 
L 603.254216 -305.327253 
L 601.97244 -301.408935 
L 600.690663 -299.742594 
L 599.408887 -303.579563 
L 598.12711 -302.290628 
L 596.845334 -297.732373 
L 595.563558 -297.605857 
L 594.281781 -294.8221 
L 593.000005 -292.85591 
L 591.718228 -291.87573 
L 590.436452 -292.424686 
L 589.154676 -289.700741 
L 587.872899 -286.405246 
L 586.591123 -290.073301 
L 585.309346 -288.94455 
L 584.02757 -290.491884 
L 582.745793 -285.790152 
L 581.464017 -286.205342 
L 580.182241 -288.108387 
L 578.900464 -286.6388 
L 577.618688 -284.133076 
L 576.336911 -290.778785 
L 575.055135 -283.740722 
L 573.773359 -292.020076 
L 572.491582 -293.951514 
L 571.209806 -295.856851 
L 569.928029 -294.433655 
L 568.646253 -293.465168 
L 567.364476 -294.487501 
L 566.0827 -300.141724 
L 564.800924 -298.396939 
L 563.519147 -306.414631 
L 562.237371 -319.994161 
L 560.955594 -315.408222 
L 559.673818 -309.841265 
L 558.392042 -324.98504 
L 557.110265 -322.564572 
L 555.828489 -326.502984 
L 554.546712 -328.676004 
L 553.264936 -346.069689 
L 551.983159 -348.257772 
L 550.701383 -355.439423 
L 549.419607 -369.824625 
L 548.13783 -379.431831 
L 546.856054 -369.288443 
L 545.574277 -375.129828 
L 544.292501 -383.209957 
L 543.010725 -387.968923 
L 541.728948 -394.276612 
L 540.447172 -403.874192 
L 539.165395 -399.881335 
L 537.883619 -415.588145 
L 536.601842 -423.576355 
L 535.320066 -428.072235 
L 534.03829 -429.750899 
L 532.756513 -429.276248 
L 531.474737 -431.870656 
L 530.19296 -429.039923 
L 528.911184 -425.17591 
L 527.629408 -431.780571 
L 526.347631 -432.092104 
L 525.065855 -424.638 
L 523.784078 -423.500556 
L 522.502302 -425.714469 
L 521.220525 -413.092674 
L 519.938749 -421.613623 
L 518.656973 -418.781712 
L 517.375196 -408.210629 
L 516.09342 -410.68705 
L 514.811643 -406.87003 
L 513.529867 -403.998015 
L 512.248091 -399.446192 
L 510.966314 -395.777745 
L 509.684538 -391.705126 
L 508.402761 -387.19818 
L 507.120985 -384.366098 
L 505.839208 -379.125501 
L 504.557432 -377.869406 
L 503.275656 -369.843805 
L 501.993879 -369.719793 
L 500.712103 -365.459957 
L 499.430326 -360.63937 
L 498.14855 -357.333776 
L 496.866774 -352.913504 
L 495.584997 -349.499496 
L 494.303221 -344.793084 
L 493.021444 -341.934271 
L 491.739668 -338.351171 
L 490.457891 -333.694987 
L 489.176115 -329.695047 
L 487.894339 -326.934676 
L 486.612562 -322.865454 
L 485.330786 -320.476778 
L 484.049009 -316.255997 
L 482.767233 -312.802762 
L 481.485457 -309.765939 
L 480.20368 -305.976151 
L 478.921904 -302.918825 
L 477.640127 -300.324014 
L 476.358351 -297.418261 
L 475.076574 -295.398647 
L 473.794798 -291.290887 
L 472.513022 -288.328864 
L 471.231245 -286.052094 
L 469.949469 -283.161151 
L 468.667692 -280.856232 
L 467.385916 -279.002661 
L 466.10414 -276.420188 
L 464.822363 -274.245488 
L 463.540587 -272.715983 
L 462.25881 -271.213326 
L 460.977034 -269.639146 
L 459.695257 -267.903372 
L 458.413481 -266.191984 
L 457.131705 -264.85508 
L 455.849928 -263.381905 
L 454.568152 -262.253236 
L 453.286375 -260.482766 
L 452.004599 -259.419709 
L 450.722823 -258.083256 
L 449.441046 -256.217559 
L 448.15927 -255.13926 
L 446.877493 -255.320684 
L 445.595717 -253.920767 
L 444.31394 -253.499267 
L 443.032164 -252.18022 
L 441.750388 -250.480609 
L 440.468611 -249.905923 
L 439.186835 -249.388638 
L 437.905058 -249.865041 
L 436.623282 -249.30681 
L 435.341506 -249.211073 
L 434.059729 -249.047423 
L 432.777953 -247.982088 
L 431.496176 -247.574401 
L 430.2144 -246.800977 
L 428.932623 -248.186491 
L 427.650847 -247.993867 
L 426.369071 -249.814284 
L 425.087294 -248.365157 
L 423.805518 -248.716104 
L 422.523741 -247.788676 
L 421.241965 -251.415587 
L 419.960189 -248.276151 
L 418.678412 -249.083739 
L 417.396636 -251.711375 
L 416.114859 -252.738095 
L 414.833083 -251.356391 
L 413.551306 -248.567455 
L 412.26953 -250.389138 
L 410.987754 -250.996844 
L 409.705977 -254.779907 
L 408.424201 -255.293461 
L 407.142424 -254.845589 
L 405.860648 -253.299635 
L 404.578872 -254.400401 
L 403.297095 -255.265608 
L 402.015319 -255.428837 
L 400.733542 -254.644966 
L 399.451766 -255.373172 
L 398.169989 -254.993435 
L 396.888213 -254.054119 
L 395.606437 -255.412111 
L 394.32466 -253.953061 
L 393.042884 -254.033279 
L 391.761107 -254.179068 
L 390.479331 -253.33803 
L 389.197555 -253.400899 
L 387.915778 -252.411752 
L 386.634002 -251.29006 
L 385.352225 -251.583989 
L 384.070449 -252.50716 
L 382.788672 -253.240227 
L 381.506896 -250.46036 
L 380.22512 -251.288621 
L 378.943343 -249.512736 
L 377.661567 -249.795405 
L 376.37979 -250.861378 
L 375.098014 -248.977712 
L 373.816238 -251.28497 
L 372.534461 -251.473561 
L 371.252685 -249.138355 
L 369.970908 -251.297059 
L 368.689132 -249.104013 
L 367.407355 -248.305041 
L 366.125579 -250.837239 
L 364.843803 -257.784874 
L 363.562026 -253.822086 
L 362.28025 -256.095231 
L 360.998473 -266.171158 
L 359.716697 -258.011394 
L 358.434921 -256.572965 
L 357.153144 -265.9626 
L 355.871368 -268.491028 
L 354.589591 -264.057903 
L 353.307815 -274.637056 
L 352.026038 -293.75726 
L 350.744262 -273.398833 
L 349.462486 -265.720862 
L 348.180709 -262.002896 
L 346.898933 -287.824256 
L 345.617156 -287.059546 
L 344.33538 -300.048703 
L 343.053604 -309.935603 
L 341.771827 -290.5171 
L 340.490051 -299.213062 
L 339.208274 -317.001729 
L 337.926498 -329.251413 
L 336.644721 -328.81146 
L 335.362945 -327.019131 
L 334.081169 -330.143181 
L 332.799392 -331.544567 
L 331.517616 -325.028281 
L 330.235839 -326.206347 
L 328.954063 -330.831792 
L 327.672287 -328.366936 
L 326.39051 -330.552058 
L 325.108734 -331.74657 
L 323.826957 -331.60921 
L 322.545181 -329.359364 
L 321.263404 -328.020032 
L 319.981628 -327.24836 
L 318.699852 -325.105545 
L 317.418075 -324.220045 
L 316.136299 -322.598034 
L 314.854522 -319.970486 
L 313.572746 -317.731069 
L 312.29097 -316.424458 
L 311.009193 -314.626081 
L 309.727417 -312.621472 
L 308.44564 -311.273036 
L 307.163864 -309.139715 
L 305.882087 -306.548862 
L 304.600311 -305.112432 
L 303.318535 -304.133099 
L 302.036758 -302.543703 
L 300.754982 -300.978605 
L 299.473205 -299.534046 
L 298.191429 -298.153424 
L 296.909653 -296.826088 
L 295.627876 -294.941962 
L 294.3461 -294.028785 
L 293.064323 -292.694365 
L 291.782547 -291.291417 
L 290.50077 -290.020099 
L 289.218994 -288.813655 
L 287.937218 -287.852519 
L 286.655441 -286.800289 
L 285.373665 -285.340512 
L 284.091888 -284.441574 
L 282.810112 -283.302552 
L 281.528336 -282.247234 
L 280.246559 -281.180744 
L 278.964783 -280.085316 
L 277.683006 -278.970989 
L 276.40123 -278.04209 
L 275.119453 -276.964696 
L 273.837677 -276.022584 
L 272.555901 -275.008255 
L 271.274124 -274.073179 
L 269.992348 -273.089896 
L 268.710571 -272.186759 
L 267.428795 -271.212334 
L 266.147019 -270.156638 
L 264.865242 -269.361993 
L 263.583466 -268.356163 
L 262.301689 -267.493854 
L 261.019913 -266.4875 
L 259.738136 -265.760419 
L 258.45636 -264.824618 
L 257.174584 -263.933544 
L 255.892807 -263.08703 
L 254.611031 -262.237818 
L 253.329254 -261.427624 
L 252.047478 -260.493576 
L 250.765702 -259.656415 
L 249.483925 -258.972959 
L 248.202149 -258.155165 
L 246.920372 -257.339302 
L 245.638596 -256.528293 
L 244.356819 -255.748583 
L 243.075043 -255.025222 
L 241.793267 -254.226547 
L 240.51149 -253.445919 
L 239.229714 -252.662772 
L 237.947937 -251.884389 
L 236.666161 -251.085423 
L 235.384385 -250.254676 
L 234.102608 -249.548091 
L 232.820832 -248.733058 
L 231.539055 -247.936198 
L 230.257279 -247.174832 
L 228.975502 -246.389168 
L 227.693726 -245.58757 
L 226.41195 -244.812889 
L 225.130173 -243.998539 
L 223.848397 -243.262314 
L 222.56662 -242.51123 
L 221.284844 -241.714931 
L 220.003068 -240.949868 
L 218.721291 -240.23781 
L 217.439515 -239.461081 
L 216.157738 -238.768987 
L 214.875962 -238.02538 
L 213.594185 -237.22979 
L 212.312409 -236.559715 
L 211.030633 -235.801872 
L 209.748856 -235.113487 
L 208.46708 -234.339551 
L 207.185303 -233.67183 
L 205.903527 -232.890908 
L 204.621751 -232.233287 
L 203.339974 -231.503083 
L 202.058198 -230.791597 
L 200.776421 -230.066479 
L 199.494645 -229.369511 
L 198.212868 -228.664789 
L 196.931092 -227.95668 
L 195.649316 -227.252621 
L 194.367539 -226.599869 
L 193.085763 -225.977779 
L 191.803986 -225.352507 
L 190.52221 -224.721072 
L 189.240434 -224.113044 
L 187.958657 -223.490487 
L 186.676881 -222.87512 
L 185.395104 -222.289609 
L 184.113328 -221.703053 
L 182.831551 -221.117465 
L 181.549775 -220.561531 
L 180.267999 -220.013232 
L 178.986222 -219.435424 
L 177.704446 -218.905016 
L 176.422669 -218.408973 
L 175.140893 -217.86891 
L 173.859117 -217.368517 
L 172.57734 -216.927388 
L 171.295564 -216.460818 
L 170.013787 -216.036409 
L 168.732011 -215.581268 
L 167.450234 -215.193658 
L 166.168458 -214.797324 
L 164.886682 -214.427628 
L 163.604905 -214.062074 
L 162.323129 -213.735326 
L 161.041352 -213.44925 
L 159.759576 -213.157422 
L 158.4778 -212.880797 
L 157.196023 -212.634212 
L 155.914247 -212.367184 
L 154.63247 -212.14398 
L 153.350694 -211.954136 
L 152.068917 -211.725627 
L 150.787141 -211.536063 
L 149.505365 -211.374085 
L 148.223588 -211.193593 
L 146.941812 -211.018114 
L 145.660035 -210.876785 
L 144.378259 -210.720071 
L 143.096483 -210.59932 
L 141.814706 -210.451954 
L 140.53293 -210.33487 
L 139.251153 -210.209281 
L 137.969377 -210.076602 
L 136.6876 -209.971328 
L 135.405824 -209.859543 
L 134.124048 -209.714451 
L 132.842271 -209.603658 
L 131.560495 -209.477877 
L 130.278718 -209.378212 
L 128.996942 -209.245538 
L 127.715166 -209.13038 
L 126.433389 -209.009283 
L 125.151613 -208.91038 
L 123.869836 -208.825259 
L 122.58806 -208.718865 
L 121.306283 -208.596479 
L 120.024507 -208.478477 
L 118.742731 -208.383852 
L 117.460954 -208.300603 
L 116.179178 -208.183634 
L 114.897401 -208.091756 
L 113.615625 -207.976883 
z
" style="stroke: #008000; stroke-opacity: 0.3"/>
    </defs>
    <g clip-path="url(#p3aef4486d7)">
     <use xlink:href="#m39fa6aeda4" x="0" y="505.354841" style="fill: #008000; fill-opacity: 0.3; stroke: #008000; stroke-opacity: 0.3"/>
    </g>
   </g>
   <g id="matplotlib.axis_1">
    <g id="xtick_1">
     <g id="line2d_1">
      <defs>
       <path id="m0388cbe871" d="M 0 0 
L 0 3.5 
" style="stroke: #000000; stroke-width: 0.8"/>
      </defs>
      <g>
       <use xlink:href="#m0388cbe871" x="113.615625" y="395.28" style="stroke: #000000; stroke-width: 0.8"/>
      </g>
     </g>
     <g id="text_1">
      <!-- 2021-07-01 -->
      <g transform="translate(28.486598 495.213718) rotate(-45) scale(0.2 -0.2)">
       <defs>
        <path id="DejaVuSans-32" d="M 1228 531 
L 3431 531 
L 3431 0 
L 469 0 
L 469 531 
Q 828 903 1448 1529 
Q 2069 2156 2228 2338 
Q 2531 2678 2651 2914 
Q 2772 3150 2772 3378 
Q 2772 3750 2511 3984 
Q 2250 4219 1831 4219 
Q 1534 4219 1204 4116 
Q 875 4013 500 3803 
L 500 4441 
Q 881 4594 1212 4672 
Q 1544 4750 1819 4750 
Q 2544 4750 2975 4387 
Q 3406 4025 3406 3419 
Q 3406 3131 3298 2873 
Q 3191 2616 2906 2266 
Q 2828 2175 2409 1742 
Q 1991 1309 1228 531 
z
" transform="scale(0.015625)"/>
        <path id="DejaVuSans-30" d="M 2034 4250 
Q 1547 4250 1301 3770 
Q 1056 3291 1056 2328 
Q 1056 1369 1301 889 
Q 1547 409 2034 409 
Q 2525 409 2770 889 
Q 3016 1369 3016 2328 
Q 3016 3291 2770 3770 
Q 2525 4250 2034 4250 
z
M 2034 4750 
Q 2819 4750 3233 4129 
Q 3647 3509 3647 2328 
Q 3647 1150 3233 529 
Q 2819 -91 2034 -91 
Q 1250 -91 836 529 
Q 422 1150 422 2328 
Q 422 3509 836 4129 
Q 1250 4750 2034 4750 
z
" transform="scale(0.015625)"/>
        <path id="DejaVuSans-31" d="M 794 531 
L 1825 531 
L 1825 4091 
L 703 3866 
L 703 4441 
L 1819 4666 
L 2450 4666 
L 2450 531 
L 3481 531 
L 3481 0 
L 794 0 
L 794 531 
z
" transform="scale(0.015625)"/>
        <path id="DejaVuSans-2d" d="M 313 2009 
L 1997 2009 
L 1997 1497 
L 313 1497 
L 313 2009 
z
" transform="scale(0.015625)"/>
        <path id="DejaVuSans-37" d="M 525 4666 
L 3525 4666 
L 3525 4397 
L 1831 0 
L 1172 0 
L 2766 4134 
L 525 4134 
L 525 4666 
z
" transform="scale(0.015625)"/>
       </defs>
       <use xlink:href="#DejaVuSans-32"/>
       <use xlink:href="#DejaVuSans-30" x="63.623047"/>
       <use xlink:href="#DejaVuSans-32" x="127.246094"/>
       <use xlink:href="#DejaVuSans-31" x="190.869141"/>
       <use xlink:href="#DejaVuSans-2d" x="254.492188"/>
       <use xlink:href="#DejaVuSans-30" x="290.576172"/>
       <use xlink:href="#DejaVuSans-37" x="354.199219"/>
       <use xlink:href="#DejaVuSans-2d" x="417.822266"/>
       <use xlink:href="#DejaVuSans-30" x="453.90625"/>
       <use xlink:href="#DejaVuSans-31" x="517.529297"/>
      </g>
     </g>
    </g>
    <g id="xtick_2">
     <g id="line2d_2">
      <g>
       <use xlink:href="#m0388cbe871" x="149.505365" y="395.28" style="stroke: #000000; stroke-width: 0.8"/>
      </g>
     </g>
     <g id="text_2">
      <!-- 2021-07-29 -->
      <g transform="translate(64.376337 495.213718) rotate(-45) scale(0.2 -0.2)">
       <defs>
        <path id="DejaVuSans-39" d="M 703 97 
L 703 672 
Q 941 559 1184 500 
Q 1428 441 1663 441 
Q 2288 441 2617 861 
Q 2947 1281 2994 2138 
Q 2813 1869 2534 1725 
Q 2256 1581 1919 1581 
Q 1219 1581 811 2004 
Q 403 2428 403 3163 
Q 403 3881 828 4315 
Q 1253 4750 1959 4750 
Q 2769 4750 3195 4129 
Q 3622 3509 3622 2328 
Q 3622 1225 3098 567 
Q 2575 -91 1691 -91 
Q 1453 -91 1209 -44 
Q 966 3 703 97 
z
M 1959 2075 
Q 2384 2075 2632 2365 
Q 2881 2656 2881 3163 
Q 2881 3666 2632 3958 
Q 2384 4250 1959 4250 
Q 1534 4250 1286 3958 
Q 1038 3666 1038 3163 
Q 1038 2656 1286 2365 
Q 1534 2075 1959 2075 
z
" transform="scale(0.015625)"/>
       </defs>
       <use xlink:href="#DejaVuSans-32"/>
       <use xlink:href="#DejaVuSans-30" x="63.623047"/>
       <use xlink:href="#DejaVuSans-32" x="127.246094"/>
       <use xlink:href="#DejaVuSans-31" x="190.869141"/>
       <use xlink:href="#DejaVuSans-2d" x="254.492188"/>
       <use xlink:href="#DejaVuSans-30" x="290.576172"/>
       <use xlink:href="#DejaVuSans-37" x="354.199219"/>
       <use xlink:href="#DejaVuSans-2d" x="417.822266"/>
       <use xlink:href="#DejaVuSans-32" x="453.90625"/>
       <use xlink:href="#DejaVuSans-39" x="517.529297"/>
      </g>
     </g>
    </g>
    <g id="xtick_3">
     <g id="line2d_3">
      <g>
       <use xlink:href="#m0388cbe871" x="185.395104" y="395.28" style="stroke: #000000; stroke-width: 0.8"/>
      </g>
     </g>
     <g id="text_3">
      <!-- 2021-08-26 -->
      <g transform="translate(100.266077 495.213718) rotate(-45) scale(0.2 -0.2)">
       <defs>
        <path id="DejaVuSans-38" d="M 2034 2216 
Q 1584 2216 1326 1975 
Q 1069 1734 1069 1313 
Q 1069 891 1326 650 
Q 1584 409 2034 409 
Q 2484 409 2743 651 
Q 3003 894 3003 1313 
Q 3003 1734 2745 1975 
Q 2488 2216 2034 2216 
z
M 1403 2484 
Q 997 2584 770 2862 
Q 544 3141 544 3541 
Q 544 4100 942 4425 
Q 1341 4750 2034 4750 
Q 2731 4750 3128 4425 
Q 3525 4100 3525 3541 
Q 3525 3141 3298 2862 
Q 3072 2584 2669 2484 
Q 3125 2378 3379 2068 
Q 3634 1759 3634 1313 
Q 3634 634 3220 271 
Q 2806 -91 2034 -91 
Q 1263 -91 848 271 
Q 434 634 434 1313 
Q 434 1759 690 2068 
Q 947 2378 1403 2484 
z
M 1172 3481 
Q 1172 3119 1398 2916 
Q 1625 2713 2034 2713 
Q 2441 2713 2670 2916 
Q 2900 3119 2900 3481 
Q 2900 3844 2670 4047 
Q 2441 4250 2034 4250 
Q 1625 4250 1398 4047 
Q 1172 3844 1172 3481 
z
" transform="scale(0.015625)"/>
        <path id="DejaVuSans-36" d="M 2113 2584 
Q 1688 2584 1439 2293 
Q 1191 2003 1191 1497 
Q 1191 994 1439 701 
Q 1688 409 2113 409 
Q 2538 409 2786 701 
Q 3034 994 3034 1497 
Q 3034 2003 2786 2293 
Q 2538 2584 2113 2584 
z
M 3366 4563 
L 3366 3988 
Q 3128 4100 2886 4159 
Q 2644 4219 2406 4219 
Q 1781 4219 1451 3797 
Q 1122 3375 1075 2522 
Q 1259 2794 1537 2939 
Q 1816 3084 2150 3084 
Q 2853 3084 3261 2657 
Q 3669 2231 3669 1497 
Q 3669 778 3244 343 
Q 2819 -91 2113 -91 
Q 1303 -91 875 529 
Q 447 1150 447 2328 
Q 447 3434 972 4092 
Q 1497 4750 2381 4750 
Q 2619 4750 2861 4703 
Q 3103 4656 3366 4563 
z
" transform="scale(0.015625)"/>
       </defs>
       <use xlink:href="#DejaVuSans-32"/>
       <use xlink:href="#DejaVuSans-30" x="63.623047"/>
       <use xlink:href="#DejaVuSans-32" x="127.246094"/>
       <use xlink:href="#DejaVuSans-31" x="190.869141"/>
       <use xlink:href="#DejaVuSans-2d" x="254.492188"/>
       <use xlink:href="#DejaVuSans-30" x="290.576172"/>
       <use xlink:href="#DejaVuSans-38" x="354.199219"/>
       <use xlink:href="#DejaVuSans-2d" x="417.822266"/>
       <use xlink:href="#DejaVuSans-32" x="453.90625"/>
       <use xlink:href="#DejaVuSans-36" x="517.529297"/>
      </g>
     </g>
    </g>
    <g id="xtick_4">
     <g id="line2d_4">
      <g>
       <use xlink:href="#m0388cbe871" x="221.284844" y="395.28" style="stroke: #000000; stroke-width: 0.8"/>
      </g>
     </g>
     <g id="text_4">
      <!-- 2021-09-23 -->
      <g transform="translate(136.155817 495.213718) rotate(-45) scale(0.2 -0.2)">
       <defs>
        <path id="DejaVuSans-33" d="M 2597 2516 
Q 3050 2419 3304 2112 
Q 3559 1806 3559 1356 
Q 3559 666 3084 287 
Q 2609 -91 1734 -91 
Q 1441 -91 1130 -33 
Q 819 25 488 141 
L 488 750 
Q 750 597 1062 519 
Q 1375 441 1716 441 
Q 2309 441 2620 675 
Q 2931 909 2931 1356 
Q 2931 1769 2642 2001 
Q 2353 2234 1838 2234 
L 1294 2234 
L 1294 2753 
L 1863 2753 
Q 2328 2753 2575 2939 
Q 2822 3125 2822 3475 
Q 2822 3834 2567 4026 
Q 2313 4219 1838 4219 
Q 1578 4219 1281 4162 
Q 984 4106 628 3988 
L 628 4550 
Q 988 4650 1302 4700 
Q 1616 4750 1894 4750 
Q 2613 4750 3031 4423 
Q 3450 4097 3450 3541 
Q 3450 3153 3228 2886 
Q 3006 2619 2597 2516 
z
" transform="scale(0.015625)"/>
       </defs>
       <use xlink:href="#DejaVuSans-32"/>
       <use xlink:href="#DejaVuSans-30" x="63.623047"/>
       <use xlink:href="#DejaVuSans-32" x="127.246094"/>
       <use xlink:href="#DejaVuSans-31" x="190.869141"/>
       <use xlink:href="#DejaVuSans-2d" x="254.492188"/>
       <use xlink:href="#DejaVuSans-30" x="290.576172"/>
       <use xlink:href="#DejaVuSans-39" x="354.199219"/>
       <use xlink:href="#DejaVuSans-2d" x="417.822266"/>
       <use xlink:href="#DejaVuSans-32" x="453.90625"/>
       <use xlink:href="#DejaVuSans-33" x="517.529297"/>
      </g>
     </g>
    </g>
    <g id="xtick_5">
     <g id="line2d_5">
      <g>
       <use xlink:href="#m0388cbe871" x="257.174584" y="395.28" style="stroke: #000000; stroke-width: 0.8"/>
      </g>
     </g>
     <g id="text_5">
      <!-- 2021-10-21 -->
      <g transform="translate(172.045556 495.213718) rotate(-45) scale(0.2 -0.2)">
       <use xlink:href="#DejaVuSans-32"/>
       <use xlink:href="#DejaVuSans-30" x="63.623047"/>
       <use xlink:href="#DejaVuSans-32" x="127.246094"/>
       <use xlink:href="#DejaVuSans-31" x="190.869141"/>
       <use xlink:href="#DejaVuSans-2d" x="254.492188"/>
       <use xlink:href="#DejaVuSans-31" x="290.576172"/>
       <use xlink:href="#DejaVuSans-30" x="354.199219"/>
       <use xlink:href="#DejaVuSans-2d" x="417.822266"/>
       <use xlink:href="#DejaVuSans-32" x="453.90625"/>
       <use xlink:href="#DejaVuSans-31" x="517.529297"/>
      </g>
     </g>
    </g>
    <g id="xtick_6">
     <g id="line2d_6">
      <g>
       <use xlink:href="#m0388cbe871" x="293.064323" y="395.28" style="stroke: #000000; stroke-width: 0.8"/>
      </g>
     </g>
     <g id="text_6">
      <!-- 2021-11-18 -->
      <g transform="translate(207.935296 495.213718) rotate(-45) scale(0.2 -0.2)">
       <use xlink:href="#DejaVuSans-32"/>
       <use xlink:href="#DejaVuSans-30" x="63.623047"/>
       <use xlink:href="#DejaVuSans-32" x="127.246094"/>
       <use xlink:href="#DejaVuSans-31" x="190.869141"/>
       <use xlink:href="#DejaVuSans-2d" x="254.492188"/>
       <use xlink:href="#DejaVuSans-31" x="290.576172"/>
       <use xlink:href="#DejaVuSans-31" x="354.199219"/>
       <use xlink:href="#DejaVuSans-2d" x="417.822266"/>
       <use xlink:href="#DejaVuSans-31" x="453.90625"/>
       <use xlink:href="#DejaVuSans-38" x="517.529297"/>
      </g>
     </g>
    </g>
    <g id="xtick_7">
     <g id="line2d_7">
      <g>
       <use xlink:href="#m0388cbe871" x="328.954063" y="395.28" style="stroke: #000000; stroke-width: 0.8"/>
      </g>
     </g>
     <g id="text_7">
      <!-- 2021-12-16 -->
      <g transform="translate(243.825036 495.213718) rotate(-45) scale(0.2 -0.2)">
       <use xlink:href="#DejaVuSans-32"/>
       <use xlink:href="#DejaVuSans-30" x="63.623047"/>
       <use xlink:href="#DejaVuSans-32" x="127.246094"/>
       <use xlink:href="#DejaVuSans-31" x="190.869141"/>
       <use xlink:href="#DejaVuSans-2d" x="254.492188"/>
       <use xlink:href="#DejaVuSans-31" x="290.576172"/>
       <use xlink:href="#DejaVuSans-32" x="354.199219"/>
       <use xlink:href="#DejaVuSans-2d" x="417.822266"/>
       <use xlink:href="#DejaVuSans-31" x="453.90625"/>
       <use xlink:href="#DejaVuSans-36" x="517.529297"/>
      </g>
     </g>
    </g>
    <g id="xtick_8">
     <g id="line2d_8">
      <g>
       <use xlink:href="#m0388cbe871" x="364.843803" y="395.28" style="stroke: #000000; stroke-width: 0.8"/>
      </g>
     </g>
     <g id="text_8">
      <!-- 2022-01-13 -->
      <g transform="translate(279.714775 495.213718) rotate(-45) scale(0.2 -0.2)">
       <use xlink:href="#DejaVuSans-32"/>
       <use xlink:href="#DejaVuSans-30" x="63.623047"/>
       <use xlink:href="#DejaVuSans-32" x="127.246094"/>
       <use xlink:href="#DejaVuSans-32" x="190.869141"/>
       <use xlink:href="#DejaVuSans-2d" x="254.492188"/>
       <use xlink:href="#DejaVuSans-30" x="290.576172"/>
       <use xlink:href="#DejaVuSans-31" x="354.199219"/>
       <use xlink:href="#DejaVuSans-2d" x="417.822266"/>
       <use xlink:href="#DejaVuSans-31" x="453.90625"/>
       <use xlink:href="#DejaVuSans-33" x="517.529297"/>
      </g>
     </g>
    </g>
    <g id="xtick_9">
     <g id="line2d_9">
      <g>
       <use xlink:href="#m0388cbe871" x="400.733542" y="395.28" style="stroke: #000000; stroke-width: 0.8"/>
      </g>
     </g>
     <g id="text_9">
      <!-- 2022-02-10 -->
      <g transform="translate(315.604515 495.213718) rotate(-45) scale(0.2 -0.2)">
       <use xlink:href="#DejaVuSans-32"/>
       <use xlink:href="#DejaVuSans-30" x="63.623047"/>
       <use xlink:href="#DejaVuSans-32" x="127.246094"/>
       <use xlink:href="#DejaVuSans-32" x="190.869141"/>
       <use xlink:href="#DejaVuSans-2d" x="254.492188"/>
       <use xlink:href="#DejaVuSans-30" x="290.576172"/>
       <use xlink:href="#DejaVuSans-32" x="354.199219"/>
       <use xlink:href="#DejaVuSans-2d" x="417.822266"/>
       <use xlink:href="#DejaVuSans-31" x="453.90625"/>
       <use xlink:href="#DejaVuSans-30" x="517.529297"/>
      </g>
     </g>
    </g>
    <g id="xtick_10">
     <g id="line2d_10">
      <g>
       <use xlink:href="#m0388cbe871" x="436.623282" y="395.28" style="stroke: #000000; stroke-width: 0.8"/>
      </g>
     </g>
     <g id="text_10">
      <!-- 2022-03-10 -->
      <g transform="translate(351.494255 495.213718) rotate(-45) scale(0.2 -0.2)">
       <use xlink:href="#DejaVuSans-32"/>
       <use xlink:href="#DejaVuSans-30" x="63.623047"/>
       <use xlink:href="#DejaVuSans-32" x="127.246094"/>
       <use xlink:href="#DejaVuSans-32" x="190.869141"/>
       <use xlink:href="#DejaVuSans-2d" x="254.492188"/>
       <use xlink:href="#DejaVuSans-30" x="290.576172"/>
       <use xlink:href="#DejaVuSans-33" x="354.199219"/>
       <use xlink:href="#DejaVuSans-2d" x="417.822266"/>
       <use xlink:href="#DejaVuSans-31" x="453.90625"/>
       <use xlink:href="#DejaVuSans-30" x="517.529297"/>
      </g>
     </g>
    </g>
    <g id="xtick_11">
     <g id="line2d_11">
      <g>
       <use xlink:href="#m0388cbe871" x="472.513022" y="395.28" style="stroke: #000000; stroke-width: 0.8"/>
      </g>
     </g>
     <g id="text_11">
      <!-- 2022-04-07 -->
      <g transform="translate(387.383994 495.213718) rotate(-45) scale(0.2 -0.2)">
       <defs>
        <path id="DejaVuSans-34" d="M 2419 4116 
L 825 1625 
L 2419 1625 
L 2419 4116 
z
M 2253 4666 
L 3047 4666 
L 3047 1625 
L 3713 1625 
L 3713 1100 
L 3047 1100 
L 3047 0 
L 2419 0 
L 2419 1100 
L 313 1100 
L 313 1709 
L 2253 4666 
z
" transform="scale(0.015625)"/>
       </defs>
       <use xlink:href="#DejaVuSans-32"/>
       <use xlink:href="#DejaVuSans-30" x="63.623047"/>
       <use xlink:href="#DejaVuSans-32" x="127.246094"/>
       <use xlink:href="#DejaVuSans-32" x="190.869141"/>
       <use xlink:href="#DejaVuSans-2d" x="254.492188"/>
       <use xlink:href="#DejaVuSans-30" x="290.576172"/>
       <use xlink:href="#DejaVuSans-34" x="354.199219"/>
       <use xlink:href="#DejaVuSans-2d" x="417.822266"/>
       <use xlink:href="#DejaVuSans-30" x="453.90625"/>
       <use xlink:href="#DejaVuSans-37" x="517.529297"/>
      </g>
     </g>
    </g>
    <g id="xtick_12">
     <g id="line2d_12">
      <g>
       <use xlink:href="#m0388cbe871" x="508.402761" y="395.28" style="stroke: #000000; stroke-width: 0.8"/>
      </g>
     </g>
     <g id="text_12">
      <!-- 2022-05-05 -->
      <g transform="translate(423.273734 495.213718) rotate(-45) scale(0.2 -0.2)">
       <defs>
        <path id="DejaVuSans-35" d="M 691 4666 
L 3169 4666 
L 3169 4134 
L 1269 4134 
L 1269 2991 
Q 1406 3038 1543 3061 
Q 1681 3084 1819 3084 
Q 2600 3084 3056 2656 
Q 3513 2228 3513 1497 
Q 3513 744 3044 326 
Q 2575 -91 1722 -91 
Q 1428 -91 1123 -41 
Q 819 9 494 109 
L 494 744 
Q 775 591 1075 516 
Q 1375 441 1709 441 
Q 2250 441 2565 725 
Q 2881 1009 2881 1497 
Q 2881 1984 2565 2268 
Q 2250 2553 1709 2553 
Q 1456 2553 1204 2497 
Q 953 2441 691 2322 
L 691 4666 
z
" transform="scale(0.015625)"/>
       </defs>
       <use xlink:href="#DejaVuSans-32"/>
       <use xlink:href="#DejaVuSans-30" x="63.623047"/>
       <use xlink:href="#DejaVuSans-32" x="127.246094"/>
       <use xlink:href="#DejaVuSans-32" x="190.869141"/>
       <use xlink:href="#DejaVuSans-2d" x="254.492188"/>
       <use xlink:href="#DejaVuSans-30" x="290.576172"/>
       <use xlink:href="#DejaVuSans-35" x="354.199219"/>
       <use xlink:href="#DejaVuSans-2d" x="417.822266"/>
       <use xlink:href="#DejaVuSans-30" x="453.90625"/>
       <use xlink:href="#DejaVuSans-35" x="517.529297"/>
      </g>
     </g>
    </g>
    <g id="xtick_13">
     <g id="line2d_13">
      <g>
       <use xlink:href="#m0388cbe871" x="544.292501" y="395.28" style="stroke: #000000; stroke-width: 0.8"/>
      </g>
     </g>
     <g id="text_13">
      <!-- 2022-06-02 -->
      <g transform="translate(459.163474 495.213718) rotate(-45) scale(0.2 -0.2)">
       <use xlink:href="#DejaVuSans-32"/>
       <use xlink:href="#DejaVuSans-30" x="63.623047"/>
       <use xlink:href="#DejaVuSans-32" x="127.246094"/>
       <use xlink:href="#DejaVuSans-32" x="190.869141"/>
       <use xlink:href="#DejaVuSans-2d" x="254.492188"/>
       <use xlink:href="#DejaVuSans-30" x="290.576172"/>
       <use xlink:href="#DejaVuSans-36" x="354.199219"/>
       <use xlink:href="#DejaVuSans-2d" x="417.822266"/>
       <use xlink:href="#DejaVuSans-30" x="453.90625"/>
       <use xlink:href="#DejaVuSans-32" x="517.529297"/>
      </g>
     </g>
    </g>
    <g id="xtick_14">
     <g id="line2d_14">
      <g>
       <use xlink:href="#m0388cbe871" x="580.182241" y="395.28" style="stroke: #000000; stroke-width: 0.8"/>
      </g>
     </g>
     <g id="text_14">
      <!-- 2022-06-30 -->
      <g transform="translate(495.053213 495.213718) rotate(-45) scale(0.2 -0.2)">
       <use xlink:href="#DejaVuSans-32"/>
       <use xlink:href="#DejaVuSans-30" x="63.623047"/>
       <use xlink:href="#DejaVuSans-32" x="127.246094"/>
       <use xlink:href="#DejaVuSans-32" x="190.869141"/>
       <use xlink:href="#DejaVuSans-2d" x="254.492188"/>
       <use xlink:href="#DejaVuSans-30" x="290.576172"/>
       <use xlink:href="#DejaVuSans-36" x="354.199219"/>
       <use xlink:href="#DejaVuSans-2d" x="417.822266"/>
       <use xlink:href="#DejaVuSans-33" x="453.90625"/>
       <use xlink:href="#DejaVuSans-30" x="517.529297"/>
      </g>
     </g>
    </g>
    <g id="xtick_15">
     <g id="line2d_15">
      <g>
       <use xlink:href="#m0388cbe871" x="616.07198" y="395.28" style="stroke: #000000; stroke-width: 0.8"/>
      </g>
     </g>
     <g id="text_15">
      <!-- 2022-07-28 -->
      <g transform="translate(530.942953 495.213718) rotate(-45) scale(0.2 -0.2)">
       <use xlink:href="#DejaVuSans-32"/>
       <use xlink:href="#DejaVuSans-30" x="63.623047"/>
       <use xlink:href="#DejaVuSans-32" x="127.246094"/>
       <use xlink:href="#DejaVuSans-32" x="190.869141"/>
       <use xlink:href="#DejaVuSans-2d" x="254.492188"/>
       <use xlink:href="#DejaVuSans-30" x="290.576172"/>
       <use xlink:href="#DejaVuSans-37" x="354.199219"/>
       <use xlink:href="#DejaVuSans-2d" x="417.822266"/>
       <use xlink:href="#DejaVuSans-32" x="453.90625"/>
       <use xlink:href="#DejaVuSans-38" x="517.529297"/>
      </g>
     </g>
    </g>
    <g id="xtick_16">
     <g id="line2d_16">
      <g>
       <use xlink:href="#m0388cbe871" x="651.96172" y="395.28" style="stroke: #000000; stroke-width: 0.8"/>
      </g>
     </g>
     <g id="text_16">
      <!-- 2022-08-25 -->
      <g transform="translate(566.832693 495.213718) rotate(-45) scale(0.2 -0.2)">
       <use xlink:href="#DejaVuSans-32"/>
       <use xlink:href="#DejaVuSans-30" x="63.623047"/>
       <use xlink:href="#DejaVuSans-32" x="127.246094"/>
       <use xlink:href="#DejaVuSans-32" x="190.869141"/>
       <use xlink:href="#DejaVuSans-2d" x="254.492188"/>
       <use xlink:href="#DejaVuSans-30" x="290.576172"/>
       <use xlink:href="#DejaVuSans-38" x="354.199219"/>
       <use xlink:href="#DejaVuSans-2d" x="417.822266"/>
       <use xlink:href="#DejaVuSans-32" x="453.90625"/>
       <use xlink:href="#DejaVuSans-35" x="517.529297"/>
      </g>
     </g>
    </g>
    <g id="xtick_17">
     <g id="line2d_17">
      <g>
       <use xlink:href="#m0388cbe871" x="687.85146" y="395.28" style="stroke: #000000; stroke-width: 0.8"/>
      </g>
     </g>
     <g id="text_17">
      <!-- 2022-09-22 -->
      <g transform="translate(602.722432 495.213718) rotate(-45) scale(0.2 -0.2)">
       <use xlink:href="#DejaVuSans-32"/>
       <use xlink:href="#DejaVuSans-30" x="63.623047"/>
       <use xlink:href="#DejaVuSans-32" x="127.246094"/>
       <use xlink:href="#DejaVuSans-32" x="190.869141"/>
       <use xlink:href="#DejaVuSans-2d" x="254.492188"/>
       <use xlink:href="#DejaVuSans-30" x="290.576172"/>
       <use xlink:href="#DejaVuSans-39" x="354.199219"/>
       <use xlink:href="#DejaVuSans-2d" x="417.822266"/>
       <use xlink:href="#DejaVuSans-32" x="453.90625"/>
       <use xlink:href="#DejaVuSans-32" x="517.529297"/>
      </g>
     </g>
    </g>
    <g id="xtick_18">
     <g id="line2d_18">
      <g>
       <use xlink:href="#m0388cbe871" x="723.741199" y="395.28" style="stroke: #000000; stroke-width: 0.8"/>
      </g>
     </g>
     <g id="text_18">
      <!-- 2022-10-20 -->
      <g transform="translate(638.612172 495.213718) rotate(-45) scale(0.2 -0.2)">
       <use xlink:href="#DejaVuSans-32"/>
       <use xlink:href="#DejaVuSans-30" x="63.623047"/>
       <use xlink:href="#DejaVuSans-32" x="127.246094"/>
       <use xlink:href="#DejaVuSans-32" x="190.869141"/>
       <use xlink:href="#DejaVuSans-2d" x="254.492188"/>
       <use xlink:href="#DejaVuSans-31" x="290.576172"/>
       <use xlink:href="#DejaVuSans-30" x="354.199219"/>
       <use xlink:href="#DejaVuSans-2d" x="417.822266"/>
       <use xlink:href="#DejaVuSans-32" x="453.90625"/>
       <use xlink:href="#DejaVuSans-30" x="517.529297"/>
      </g>
     </g>
    </g>
    <g id="xtick_19">
     <g id="line2d_19">
      <g>
       <use xlink:href="#m0388cbe871" x="759.630939" y="395.28" style="stroke: #000000; stroke-width: 0.8"/>
      </g>
     </g>
     <g id="text_19">
      <!-- 2022-11-17 -->
      <g transform="translate(674.501912 495.213718) rotate(-45) scale(0.2 -0.2)">
       <use xlink:href="#DejaVuSans-32"/>
       <use xlink:href="#DejaVuSans-30" x="63.623047"/>
       <use xlink:href="#DejaVuSans-32" x="127.246094"/>
       <use xlink:href="#DejaVuSans-32" x="190.869141"/>
       <use xlink:href="#DejaVuSans-2d" x="254.492188"/>
       <use xlink:href="#DejaVuSans-31" x="290.576172"/>
       <use xlink:href="#DejaVuSans-31" x="354.199219"/>
       <use xlink:href="#DejaVuSans-2d" x="417.822266"/>
       <use xlink:href="#DejaVuSans-31" x="453.90625"/>
       <use xlink:href="#DejaVuSans-37" x="517.529297"/>
      </g>
     </g>
    </g>
    <g id="xtick_20">
     <g id="line2d_20">
      <g>
       <use xlink:href="#m0388cbe871" x="795.520679" y="395.28" style="stroke: #000000; stroke-width: 0.8"/>
      </g>
     </g>
     <g id="text_20">
      <!-- 2022-12-15 -->
      <g transform="translate(710.391651 495.213718) rotate(-45) scale(0.2 -0.2)">
       <use xlink:href="#DejaVuSans-32"/>
       <use xlink:href="#DejaVuSans-30" x="63.623047"/>
       <use xlink:href="#DejaVuSans-32" x="127.246094"/>
       <use xlink:href="#DejaVuSans-32" x="190.869141"/>
       <use xlink:href="#DejaVuSans-2d" x="254.492188"/>
       <use xlink:href="#DejaVuSans-31" x="290.576172"/>
       <use xlink:href="#DejaVuSans-32" x="354.199219"/>
       <use xlink:href="#DejaVuSans-2d" x="417.822266"/>
       <use xlink:href="#DejaVuSans-31" x="453.90625"/>
       <use xlink:href="#DejaVuSans-35" x="517.529297"/>
      </g>
     </g>
    </g>
    <g id="xtick_21">
     <g id="line2d_21">
      <g>
       <use xlink:href="#m0388cbe871" x="831.410418" y="395.28" style="stroke: #000000; stroke-width: 0.8"/>
      </g>
     </g>
     <g id="text_21">
      <!-- 2023-01-12 -->
      <g transform="translate(746.281391 495.213718) rotate(-45) scale(0.2 -0.2)">
       <use xlink:href="#DejaVuSans-32"/>
       <use xlink:href="#DejaVuSans-30" x="63.623047"/>
       <use xlink:href="#DejaVuSans-32" x="127.246094"/>
       <use xlink:href="#DejaVuSans-33" x="190.869141"/>
       <use xlink:href="#DejaVuSans-2d" x="254.492188"/>
       <use xlink:href="#DejaVuSans-30" x="290.576172"/>
       <use xlink:href="#DejaVuSans-31" x="354.199219"/>
       <use xlink:href="#DejaVuSans-2d" x="417.822266"/>
       <use xlink:href="#DejaVuSans-31" x="453.90625"/>
       <use xlink:href="#DejaVuSans-32" x="517.529297"/>
      </g>
     </g>
    </g>
    <g id="xtick_22">
     <g id="line2d_22">
      <g>
       <use xlink:href="#m0388cbe871" x="867.300158" y="395.28" style="stroke: #000000; stroke-width: 0.8"/>
      </g>
     </g>
     <g id="text_22">
      <!-- 2023-02-09 -->
      <g transform="translate(782.171131 495.213718) rotate(-45) scale(0.2 -0.2)">
       <use xlink:href="#DejaVuSans-32"/>
       <use xlink:href="#DejaVuSans-30" x="63.623047"/>
       <use xlink:href="#DejaVuSans-32" x="127.246094"/>
       <use xlink:href="#DejaVuSans-33" x="190.869141"/>
       <use xlink:href="#DejaVuSans-2d" x="254.492188"/>
       <use xlink:href="#DejaVuSans-30" x="290.576172"/>
       <use xlink:href="#DejaVuSans-32" x="354.199219"/>
       <use xlink:href="#DejaVuSans-2d" x="417.822266"/>
       <use xlink:href="#DejaVuSans-30" x="453.90625"/>
       <use xlink:href="#DejaVuSans-39" x="517.529297"/>
      </g>
     </g>
    </g>
    <g id="xtick_23">
     <g id="line2d_23">
      <g>
       <use xlink:href="#m0388cbe871" x="903.189898" y="395.28" style="stroke: #000000; stroke-width: 0.8"/>
      </g>
     </g>
     <g id="text_23">
      <!-- 2023-03-09 -->
      <g transform="translate(818.06087 495.213718) rotate(-45) scale(0.2 -0.2)">
       <use xlink:href="#DejaVuSans-32"/>
       <use xlink:href="#DejaVuSans-30" x="63.623047"/>
       <use xlink:href="#DejaVuSans-32" x="127.246094"/>
       <use xlink:href="#DejaVuSans-33" x="190.869141"/>
       <use xlink:href="#DejaVuSans-2d" x="254.492188"/>
       <use xlink:href="#DejaVuSans-30" x="290.576172"/>
       <use xlink:href="#DejaVuSans-33" x="354.199219"/>
       <use xlink:href="#DejaVuSans-2d" x="417.822266"/>
       <use xlink:href="#DejaVuSans-30" x="453.90625"/>
       <use xlink:href="#DejaVuSans-39" x="517.529297"/>
      </g>
     </g>
    </g>
    <g id="xtick_24">
     <g id="line2d_24">
      <g>
       <use xlink:href="#m0388cbe871" x="939.079637" y="395.28" style="stroke: #000000; stroke-width: 0.8"/>
      </g>
     </g>
     <g id="text_24">
      <!-- 2023-04-06 -->
      <g transform="translate(853.95061 495.213718) rotate(-45) scale(0.2 -0.2)">
       <use xlink:href="#DejaVuSans-32"/>
       <use xlink:href="#DejaVuSans-30" x="63.623047"/>
       <use xlink:href="#DejaVuSans-32" x="127.246094"/>
       <use xlink:href="#DejaVuSans-33" x="190.869141"/>
       <use xlink:href="#DejaVuSans-2d" x="254.492188"/>
       <use xlink:href="#DejaVuSans-30" x="290.576172"/>
       <use xlink:href="#DejaVuSans-34" x="354.199219"/>
       <use xlink:href="#DejaVuSans-2d" x="417.822266"/>
       <use xlink:href="#DejaVuSans-30" x="453.90625"/>
       <use xlink:href="#DejaVuSans-36" x="517.529297"/>
      </g>
     </g>
    </g>
    <g id="xtick_25">
     <g id="line2d_25">
      <g>
       <use xlink:href="#m0388cbe871" x="950.615625" y="395.28" style="stroke: #000000; stroke-width: 0.8"/>
      </g>
     </g>
     <g id="text_25">
      <!-- 2023-04-15 -->
      <g transform="translate(865.486598 495.213718) rotate(-45) scale(0.2 -0.2)">
       <use xlink:href="#DejaVuSans-32"/>
       <use xlink:href="#DejaVuSans-30" x="63.623047"/>
       <use xlink:href="#DejaVuSans-32" x="127.246094"/>
       <use xlink:href="#DejaVuSans-33" x="190.869141"/>
       <use xlink:href="#DejaVuSans-2d" x="254.492188"/>
       <use xlink:href="#DejaVuSans-30" x="290.576172"/>
       <use xlink:href="#DejaVuSans-34" x="354.199219"/>
       <use xlink:href="#DejaVuSans-2d" x="417.822266"/>
       <use xlink:href="#DejaVuSans-31" x="453.90625"/>
       <use xlink:href="#DejaVuSans-35" x="517.529297"/>
      </g>
     </g>
    </g>
   </g>
   <g id="matplotlib.axis_2">
    <g id="ytick_1">
     <g id="line2d_26">
      <defs>
       <path id="md00f7681a1" d="M 0 0 
L -3.5 0 
" style="stroke: #000000; stroke-width: 0.8"/>
      </defs>
      <g>
       <use xlink:href="#md00f7681a1" x="113.615625" y="386.38993" style="stroke: #000000; stroke-width: 0.8"/>
      </g>
     </g>
     <g id="text_26">
      <!-- 0.050 -->
      <g transform="translate(32.6 393.988368) scale(0.2 -0.2)">
       <defs>
        <path id="DejaVuSans-2212" d="M 678 2272 
L 4684 2272 
L 4684 1741 
L 678 1741 
L 678 2272 
z
" transform="scale(0.015625)"/>
        <path id="DejaVuSans-2e" d="M 684 794 
L 1344 794 
L 1344 0 
L 684 0 
L 684 794 
z
" transform="scale(0.015625)"/>
       </defs>
       <use xlink:href="#DejaVuSans-2212"/>
       <use xlink:href="#DejaVuSans-30" x="83.789062"/>
       <use xlink:href="#DejaVuSans-2e" x="147.412109"/>
       <use xlink:href="#DejaVuSans-30" x="179.199219"/>
       <use xlink:href="#DejaVuSans-35" x="242.822266"/>
       <use xlink:href="#DejaVuSans-30" x="306.445312"/>
      </g>
     </g>
    </g>
    <g id="ytick_2">
     <g id="line2d_27">
      <g>
       <use xlink:href="#md00f7681a1" x="113.615625" y="341.939583" style="stroke: #000000; stroke-width: 0.8"/>
      </g>
     </g>
     <g id="text_27">
      <!-- 0.025 -->
      <g transform="translate(32.6 349.53802) scale(0.2 -0.2)">
       <use xlink:href="#DejaVuSans-2212"/>
       <use xlink:href="#DejaVuSans-30" x="83.789062"/>
       <use xlink:href="#DejaVuSans-2e" x="147.412109"/>
       <use xlink:href="#DejaVuSans-30" x="179.199219"/>
       <use xlink:href="#DejaVuSans-32" x="242.822266"/>
       <use xlink:href="#DejaVuSans-35" x="306.445312"/>
      </g>
     </g>
    </g>
    <g id="ytick_3">
     <g id="line2d_28">
      <g>
       <use xlink:href="#md00f7681a1" x="113.615625" y="297.489235" style="stroke: #000000; stroke-width: 0.8"/>
      </g>
     </g>
     <g id="text_28">
      <!-- 0.000 -->
      <g transform="translate(49.359375 305.087672) scale(0.2 -0.2)">
       <use xlink:href="#DejaVuSans-30"/>
       <use xlink:href="#DejaVuSans-2e" x="63.623047"/>
       <use xlink:href="#DejaVuSans-30" x="95.410156"/>
       <use xlink:href="#DejaVuSans-30" x="159.033203"/>
       <use xlink:href="#DejaVuSans-30" x="222.65625"/>
      </g>
     </g>
    </g>
    <g id="ytick_4">
     <g id="line2d_29">
      <g>
       <use xlink:href="#md00f7681a1" x="113.615625" y="253.038887" style="stroke: #000000; stroke-width: 0.8"/>
      </g>
     </g>
     <g id="text_29">
      <!-- 0.025 -->
      <g transform="translate(49.359375 260.637324) scale(0.2 -0.2)">
       <use xlink:href="#DejaVuSans-30"/>
       <use xlink:href="#DejaVuSans-2e" x="63.623047"/>
       <use xlink:href="#DejaVuSans-30" x="95.410156"/>
       <use xlink:href="#DejaVuSans-32" x="159.033203"/>
       <use xlink:href="#DejaVuSans-35" x="222.65625"/>
      </g>
     </g>
    </g>
    <g id="ytick_5">
     <g id="line2d_30">
      <g>
       <use xlink:href="#md00f7681a1" x="113.615625" y="208.588539" style="stroke: #000000; stroke-width: 0.8"/>
      </g>
     </g>
     <g id="text_30">
      <!-- 0.050 -->
      <g transform="translate(49.359375 216.186976) scale(0.2 -0.2)">
       <use xlink:href="#DejaVuSans-30"/>
       <use xlink:href="#DejaVuSans-2e" x="63.623047"/>
       <use xlink:href="#DejaVuSans-30" x="95.410156"/>
       <use xlink:href="#DejaVuSans-35" x="159.033203"/>
       <use xlink:href="#DejaVuSans-30" x="222.65625"/>
      </g>
     </g>
    </g>
    <g id="ytick_6">
     <g id="line2d_31">
      <g>
       <use xlink:href="#md00f7681a1" x="113.615625" y="164.138191" style="stroke: #000000; stroke-width: 0.8"/>
      </g>
     </g>
     <g id="text_31">
      <!-- 0.075 -->
      <g transform="translate(49.359375 171.736628) scale(0.2 -0.2)">
       <use xlink:href="#DejaVuSans-30"/>
       <use xlink:href="#DejaVuSans-2e" x="63.623047"/>
       <use xlink:href="#DejaVuSans-30" x="95.410156"/>
       <use xlink:href="#DejaVuSans-37" x="159.033203"/>
       <use xlink:href="#DejaVuSans-35" x="222.65625"/>
      </g>
     </g>
    </g>
    <g id="ytick_7">
     <g id="line2d_32">
      <g>
       <use xlink:href="#md00f7681a1" x="113.615625" y="119.687843" style="stroke: #000000; stroke-width: 0.8"/>
      </g>
     </g>
     <g id="text_32">
      <!-- 0.100 -->
      <g transform="translate(49.359375 127.28628) scale(0.2 -0.2)">
       <use xlink:href="#DejaVuSans-30"/>
       <use xlink:href="#DejaVuSans-2e" x="63.623047"/>
       <use xlink:href="#DejaVuSans-31" x="95.410156"/>
       <use xlink:href="#DejaVuSans-30" x="159.033203"/>
       <use xlink:href="#DejaVuSans-30" x="222.65625"/>
      </g>
     </g>
    </g>
    <g id="ytick_8">
     <g id="line2d_33">
      <g>
       <use xlink:href="#md00f7681a1" x="113.615625" y="75.237495" style="stroke: #000000; stroke-width: 0.8"/>
      </g>
     </g>
     <g id="text_33">
      <!-- 0.125 -->
      <g transform="translate(49.359375 82.835933) scale(0.2 -0.2)">
       <use xlink:href="#DejaVuSans-30"/>
       <use xlink:href="#DejaVuSans-2e" x="63.623047"/>
       <use xlink:href="#DejaVuSans-31" x="95.410156"/>
       <use xlink:href="#DejaVuSans-32" x="159.033203"/>
       <use xlink:href="#DejaVuSans-35" x="222.65625"/>
      </g>
     </g>
    </g>
    <g id="ytick_9">
     <g id="line2d_34">
      <g>
       <use xlink:href="#md00f7681a1" x="113.615625" y="30.787147" style="stroke: #000000; stroke-width: 0.8"/>
      </g>
     </g>
     <g id="text_34">
      <!-- 0.150 -->
      <g transform="translate(49.359375 38.385585) scale(0.2 -0.2)">
       <use xlink:href="#DejaVuSans-30"/>
       <use xlink:href="#DejaVuSans-2e" x="63.623047"/>
       <use xlink:href="#DejaVuSans-31" x="95.410156"/>
       <use xlink:href="#DejaVuSans-35" x="159.033203"/>
       <use xlink:href="#DejaVuSans-30" x="222.65625"/>
      </g>
     </g>
    </g>
    <g id="text_35">
     <!-- Relative fitness $\gamma_y$ -->
     <g transform="translate(22.4 291.84) rotate(-90) scale(0.2 -0.2)">
      <defs>
       <path id="DejaVuSans-52" d="M 2841 2188 
Q 3044 2119 3236 1894 
Q 3428 1669 3622 1275 
L 4263 0 
L 3584 0 
L 2988 1197 
Q 2756 1666 2539 1819 
Q 2322 1972 1947 1972 
L 1259 1972 
L 1259 0 
L 628 0 
L 628 4666 
L 2053 4666 
Q 2853 4666 3247 4331 
Q 3641 3997 3641 3322 
Q 3641 2881 3436 2590 
Q 3231 2300 2841 2188 
z
M 1259 4147 
L 1259 2491 
L 2053 2491 
Q 2509 2491 2742 2702 
Q 2975 2913 2975 3322 
Q 2975 3731 2742 3939 
Q 2509 4147 2053 4147 
L 1259 4147 
z
" transform="scale(0.015625)"/>
       <path id="DejaVuSans-65" d="M 3597 1894 
L 3597 1613 
L 953 1613 
Q 991 1019 1311 708 
Q 1631 397 2203 397 
Q 2534 397 2845 478 
Q 3156 559 3463 722 
L 3463 178 
Q 3153 47 2828 -22 
Q 2503 -91 2169 -91 
Q 1331 -91 842 396 
Q 353 884 353 1716 
Q 353 2575 817 3079 
Q 1281 3584 2069 3584 
Q 2775 3584 3186 3129 
Q 3597 2675 3597 1894 
z
M 3022 2063 
Q 3016 2534 2758 2815 
Q 2500 3097 2075 3097 
Q 1594 3097 1305 2825 
Q 1016 2553 972 2059 
L 3022 2063 
z
" transform="scale(0.015625)"/>
       <path id="DejaVuSans-6c" d="M 603 4863 
L 1178 4863 
L 1178 0 
L 603 0 
L 603 4863 
z
" transform="scale(0.015625)"/>
       <path id="DejaVuSans-61" d="M 2194 1759 
Q 1497 1759 1228 1600 
Q 959 1441 959 1056 
Q 959 750 1161 570 
Q 1363 391 1709 391 
Q 2188 391 2477 730 
Q 2766 1069 2766 1631 
L 2766 1759 
L 2194 1759 
z
M 3341 1997 
L 3341 0 
L 2766 0 
L 2766 531 
Q 2569 213 2275 61 
Q 1981 -91 1556 -91 
Q 1019 -91 701 211 
Q 384 513 384 1019 
Q 384 1609 779 1909 
Q 1175 2209 1959 2209 
L 2766 2209 
L 2766 2266 
Q 2766 2663 2505 2880 
Q 2244 3097 1772 3097 
Q 1472 3097 1187 3025 
Q 903 2953 641 2809 
L 641 3341 
Q 956 3463 1253 3523 
Q 1550 3584 1831 3584 
Q 2591 3584 2966 3190 
Q 3341 2797 3341 1997 
z
" transform="scale(0.015625)"/>
       <path id="DejaVuSans-74" d="M 1172 4494 
L 1172 3500 
L 2356 3500 
L 2356 3053 
L 1172 3053 
L 1172 1153 
Q 1172 725 1289 603 
Q 1406 481 1766 481 
L 2356 481 
L 2356 0 
L 1766 0 
Q 1100 0 847 248 
Q 594 497 594 1153 
L 594 3053 
L 172 3053 
L 172 3500 
L 594 3500 
L 594 4494 
L 1172 4494 
z
" transform="scale(0.015625)"/>
       <path id="DejaVuSans-69" d="M 603 3500 
L 1178 3500 
L 1178 0 
L 603 0 
L 603 3500 
z
M 603 4863 
L 1178 4863 
L 1178 4134 
L 603 4134 
L 603 4863 
z
" transform="scale(0.015625)"/>
       <path id="DejaVuSans-76" d="M 191 3500 
L 800 3500 
L 1894 563 
L 2988 3500 
L 3597 3500 
L 2284 0 
L 1503 0 
L 191 3500 
z
" transform="scale(0.015625)"/>
       <path id="DejaVuSans-20" transform="scale(0.015625)"/>
       <path id="DejaVuSans-66" d="M 2375 4863 
L 2375 4384 
L 1825 4384 
Q 1516 4384 1395 4259 
Q 1275 4134 1275 3809 
L 1275 3500 
L 2222 3500 
L 2222 3053 
L 1275 3053 
L 1275 0 
L 697 0 
L 697 3053 
L 147 3053 
L 147 3500 
L 697 3500 
L 697 3744 
Q 697 4328 969 4595 
Q 1241 4863 1831 4863 
L 2375 4863 
z
" transform="scale(0.015625)"/>
       <path id="DejaVuSans-6e" d="M 3513 2113 
L 3513 0 
L 2938 0 
L 2938 2094 
Q 2938 2591 2744 2837 
Q 2550 3084 2163 3084 
Q 1697 3084 1428 2787 
Q 1159 2491 1159 1978 
L 1159 0 
L 581 0 
L 581 3500 
L 1159 3500 
L 1159 2956 
Q 1366 3272 1645 3428 
Q 1925 3584 2291 3584 
Q 2894 3584 3203 3211 
Q 3513 2838 3513 2113 
z
" transform="scale(0.015625)"/>
       <path id="DejaVuSans-73" d="M 2834 3397 
L 2834 2853 
Q 2591 2978 2328 3040 
Q 2066 3103 1784 3103 
Q 1356 3103 1142 2972 
Q 928 2841 928 2578 
Q 928 2378 1081 2264 
Q 1234 2150 1697 2047 
L 1894 2003 
Q 2506 1872 2764 1633 
Q 3022 1394 3022 966 
Q 3022 478 2636 193 
Q 2250 -91 1575 -91 
Q 1294 -91 989 -36 
Q 684 19 347 128 
L 347 722 
Q 666 556 975 473 
Q 1284 391 1588 391 
Q 1994 391 2212 530 
Q 2431 669 2431 922 
Q 2431 1156 2273 1281 
Q 2116 1406 1581 1522 
L 1381 1569 
Q 847 1681 609 1914 
Q 372 2147 372 2553 
Q 372 3047 722 3315 
Q 1072 3584 1716 3584 
Q 2034 3584 2315 3537 
Q 2597 3491 2834 3397 
z
" transform="scale(0.015625)"/>
       <path id="DejaVuSans-Oblique-3b3" d="M 1491 2950 
L 1838 788 
L 3456 3500 
L 4066 3500 
L 1972 0 
L 1713 -1331 
L 1138 -1331 
L 1397 0 
L 988 2613 
Q 925 3006 628 3006 
L 475 3006 
L 569 3500 
L 788 3500 
Q 1403 3500 1491 2950 
z
" transform="scale(0.015625)"/>
       <path id="DejaVuSans-Oblique-79" d="M 1588 -325 
Q 1188 -997 936 -1164 
Q 684 -1331 294 -1331 
L -159 -1331 
L -63 -850 
L 269 -850 
Q 509 -850 678 -719 
Q 847 -588 1056 -206 
L 1234 128 
L 459 3500 
L 1069 3500 
L 1650 819 
L 3256 3500 
L 3859 3500 
L 1588 -325 
z
" transform="scale(0.015625)"/>
      </defs>
      <use xlink:href="#DejaVuSans-52" transform="translate(0 0.015625)"/>
      <use xlink:href="#DejaVuSans-65" transform="translate(69.482422 0.015625)"/>
      <use xlink:href="#DejaVuSans-6c" transform="translate(131.005859 0.015625)"/>
      <use xlink:href="#DejaVuSans-61" transform="translate(158.789062 0.015625)"/>
      <use xlink:href="#DejaVuSans-74" transform="translate(220.068359 0.015625)"/>
      <use xlink:href="#DejaVuSans-69" transform="translate(259.277344 0.015625)"/>
      <use xlink:href="#DejaVuSans-76" transform="translate(287.060547 0.015625)"/>
      <use xlink:href="#DejaVuSans-65" transform="translate(346.240234 0.015625)"/>
      <use xlink:href="#DejaVuSans-20" transform="translate(407.763672 0.015625)"/>
      <use xlink:href="#DejaVuSans-66" transform="translate(439.550781 0.015625)"/>
      <use xlink:href="#DejaVuSans-69" transform="translate(474.755859 0.015625)"/>
      <use xlink:href="#DejaVuSans-74" transform="translate(502.539062 0.015625)"/>
      <use xlink:href="#DejaVuSans-6e" transform="translate(541.748047 0.015625)"/>
      <use xlink:href="#DejaVuSans-65" transform="translate(605.126953 0.015625)"/>
      <use xlink:href="#DejaVuSans-73" transform="translate(666.650391 0.015625)"/>
      <use xlink:href="#DejaVuSans-73" transform="translate(718.75 0.015625)"/>
      <use xlink:href="#DejaVuSans-20" transform="translate(770.849609 0.015625)"/>
      <use xlink:href="#DejaVuSans-Oblique-3b3" transform="translate(802.636719 0.015625)"/>
      <use xlink:href="#DejaVuSans-Oblique-79" transform="translate(861.816406 -16.390625) scale(0.7)"/>
     </g>
    </g>
   </g>
   <g id="line2d_35">
    <path d="M 113.615625 297.489235 
L 1065.23125 297.489235 
" clip-path="url(#p3aef4486d7)" style="fill: none; stroke-dasharray: 7.4,3.2; stroke-dashoffset: 0; stroke: #000000; stroke-width: 2"/>
   </g>
   <g id="patch_3">
    <path d="M 113.615625 395.28 
L 113.615625 7.2 
" style="fill: none; stroke: #000000; stroke-width: 0.8; stroke-linejoin: miter; stroke-linecap: square"/>
   </g>
   <g id="patch_4">
    <path d="M 950.615625 395.28 
L 950.615625 7.2 
" style="fill: none; stroke: #000000; stroke-width: 0.8; stroke-linejoin: miter; stroke-linecap: square"/>
   </g>
   <g id="patch_5">
    <path d="M 113.615625 395.28 
L 950.615625 395.28 
" style="fill: none; stroke: #000000; stroke-width: 0.8; stroke-linejoin: miter; stroke-linecap: square"/>
   </g>
   <g id="patch_6">
    <path d="M 113.615625 7.2 
L 950.615625 7.2 
" style="fill: none; stroke: #000000; stroke-width: 0.8; stroke-linejoin: miter; stroke-linecap: square"/>
   </g>
  </g>
  <g id="axes_2">
   <g id="matplotlib.axis_3">
    <g id="ytick_10">
     <g id="line2d_36">
      <defs>
       <path id="mfd633f14c5" d="M 0 0 
L 3.5 0 
" style="stroke: #000000; stroke-width: 0.8"/>
      </defs>
      <g>
       <use xlink:href="#mfd633f14c5" x="950.615625" y="386.38993" style="stroke: #000000; stroke-width: 0.8"/>
      </g>
     </g>
     <g id="text_36">
      <!-- 0.050 -->
      <g transform="translate(957.615625 393.988368) scale(0.2 -0.2)">
       <use xlink:href="#DejaVuSans-2212"/>
       <use xlink:href="#DejaVuSans-30" x="83.789062"/>
       <use xlink:href="#DejaVuSans-2e" x="147.412109"/>
       <use xlink:href="#DejaVuSans-30" x="179.199219"/>
       <use xlink:href="#DejaVuSans-35" x="242.822266"/>
       <use xlink:href="#DejaVuSans-30" x="306.445312"/>
      </g>
     </g>
    </g>
    <g id="ytick_11">
     <g id="line2d_37">
      <g>
       <use xlink:href="#mfd633f14c5" x="950.615625" y="341.939583" style="stroke: #000000; stroke-width: 0.8"/>
      </g>
     </g>
     <g id="text_37">
      <!-- 0.025 -->
      <g transform="translate(957.615625 349.53802) scale(0.2 -0.2)">
       <use xlink:href="#DejaVuSans-2212"/>
       <use xlink:href="#DejaVuSans-30" x="83.789062"/>
       <use xlink:href="#DejaVuSans-2e" x="147.412109"/>
       <use xlink:href="#DejaVuSans-30" x="179.199219"/>
       <use xlink:href="#DejaVuSans-32" x="242.822266"/>
       <use xlink:href="#DejaVuSans-35" x="306.445312"/>
      </g>
     </g>
    </g>
    <g id="ytick_12">
     <g id="line2d_38">
      <g>
       <use xlink:href="#mfd633f14c5" x="950.615625" y="297.489235" style="stroke: #000000; stroke-width: 0.8"/>
      </g>
     </g>
     <g id="text_38">
      <!-- 0.000 -->
      <g transform="translate(957.615625 305.087672) scale(0.2 -0.2)">
       <use xlink:href="#DejaVuSans-30"/>
       <use xlink:href="#DejaVuSans-2e" x="63.623047"/>
       <use xlink:href="#DejaVuSans-30" x="95.410156"/>
       <use xlink:href="#DejaVuSans-30" x="159.033203"/>
       <use xlink:href="#DejaVuSans-30" x="222.65625"/>
      </g>
     </g>
    </g>
    <g id="ytick_13">
     <g id="line2d_39">
      <g>
       <use xlink:href="#mfd633f14c5" x="950.615625" y="253.038887" style="stroke: #000000; stroke-width: 0.8"/>
      </g>
     </g>
     <g id="text_39">
      <!-- 0.025 -->
      <g transform="translate(957.615625 260.637324) scale(0.2 -0.2)">
       <use xlink:href="#DejaVuSans-30"/>
       <use xlink:href="#DejaVuSans-2e" x="63.623047"/>
       <use xlink:href="#DejaVuSans-30" x="95.410156"/>
       <use xlink:href="#DejaVuSans-32" x="159.033203"/>
       <use xlink:href="#DejaVuSans-35" x="222.65625"/>
      </g>
     </g>
    </g>
    <g id="ytick_14">
     <g id="line2d_40">
      <g>
       <use xlink:href="#mfd633f14c5" x="950.615625" y="208.588539" style="stroke: #000000; stroke-width: 0.8"/>
      </g>
     </g>
     <g id="text_40">
      <!-- 0.050 -->
      <g transform="translate(957.615625 216.186976) scale(0.2 -0.2)">
       <use xlink:href="#DejaVuSans-30"/>
       <use xlink:href="#DejaVuSans-2e" x="63.623047"/>
       <use xlink:href="#DejaVuSans-30" x="95.410156"/>
       <use xlink:href="#DejaVuSans-35" x="159.033203"/>
       <use xlink:href="#DejaVuSans-30" x="222.65625"/>
      </g>
     </g>
    </g>
    <g id="ytick_15">
     <g id="line2d_41">
      <g>
       <use xlink:href="#mfd633f14c5" x="950.615625" y="164.138191" style="stroke: #000000; stroke-width: 0.8"/>
      </g>
     </g>
     <g id="text_41">
      <!-- 0.075 -->
      <g transform="translate(957.615625 171.736628) scale(0.2 -0.2)">
       <use xlink:href="#DejaVuSans-30"/>
       <use xlink:href="#DejaVuSans-2e" x="63.623047"/>
       <use xlink:href="#DejaVuSans-30" x="95.410156"/>
       <use xlink:href="#DejaVuSans-37" x="159.033203"/>
       <use xlink:href="#DejaVuSans-35" x="222.65625"/>
      </g>
     </g>
    </g>
    <g id="ytick_16">
     <g id="line2d_42">
      <g>
       <use xlink:href="#mfd633f14c5" x="950.615625" y="119.687843" style="stroke: #000000; stroke-width: 0.8"/>
      </g>
     </g>
     <g id="text_42">
      <!-- 0.100 -->
      <g transform="translate(957.615625 127.28628) scale(0.2 -0.2)">
       <use xlink:href="#DejaVuSans-30"/>
       <use xlink:href="#DejaVuSans-2e" x="63.623047"/>
       <use xlink:href="#DejaVuSans-31" x="95.410156"/>
       <use xlink:href="#DejaVuSans-30" x="159.033203"/>
       <use xlink:href="#DejaVuSans-30" x="222.65625"/>
      </g>
     </g>
    </g>
    <g id="ytick_17">
     <g id="line2d_43">
      <g>
       <use xlink:href="#mfd633f14c5" x="950.615625" y="75.237495" style="stroke: #000000; stroke-width: 0.8"/>
      </g>
     </g>
     <g id="text_43">
      <!-- 0.125 -->
      <g transform="translate(957.615625 82.835933) scale(0.2 -0.2)">
       <use xlink:href="#DejaVuSans-30"/>
       <use xlink:href="#DejaVuSans-2e" x="63.623047"/>
       <use xlink:href="#DejaVuSans-31" x="95.410156"/>
       <use xlink:href="#DejaVuSans-32" x="159.033203"/>
       <use xlink:href="#DejaVuSans-35" x="222.65625"/>
      </g>
     </g>
    </g>
    <g id="ytick_18">
     <g id="line2d_44">
      <g>
       <use xlink:href="#mfd633f14c5" x="950.615625" y="30.787147" style="stroke: #000000; stroke-width: 0.8"/>
      </g>
     </g>
     <g id="text_44">
      <!-- 0.150 -->
      <g transform="translate(957.615625 38.385585) scale(0.2 -0.2)">
       <use xlink:href="#DejaVuSans-30"/>
       <use xlink:href="#DejaVuSans-2e" x="63.623047"/>
       <use xlink:href="#DejaVuSans-31" x="95.410156"/>
       <use xlink:href="#DejaVuSans-35" x="159.033203"/>
       <use xlink:href="#DejaVuSans-30" x="222.65625"/>
      </g>
     </g>
    </g>
    <g id="text_45">
     <!-- Change in proportion $\gamma_{prop}$ -->
     <g transform="translate(1050.83125 332.74) rotate(-90) scale(0.2 -0.2)">
      <defs>
       <path id="DejaVuSans-43" d="M 4122 4306 
L 4122 3641 
Q 3803 3938 3442 4084 
Q 3081 4231 2675 4231 
Q 1875 4231 1450 3742 
Q 1025 3253 1025 2328 
Q 1025 1406 1450 917 
Q 1875 428 2675 428 
Q 3081 428 3442 575 
Q 3803 722 4122 1019 
L 4122 359 
Q 3791 134 3420 21 
Q 3050 -91 2638 -91 
Q 1578 -91 968 557 
Q 359 1206 359 2328 
Q 359 3453 968 4101 
Q 1578 4750 2638 4750 
Q 3056 4750 3426 4639 
Q 3797 4528 4122 4306 
z
" transform="scale(0.015625)"/>
       <path id="DejaVuSans-68" d="M 3513 2113 
L 3513 0 
L 2938 0 
L 2938 2094 
Q 2938 2591 2744 2837 
Q 2550 3084 2163 3084 
Q 1697 3084 1428 2787 
Q 1159 2491 1159 1978 
L 1159 0 
L 581 0 
L 581 4863 
L 1159 4863 
L 1159 2956 
Q 1366 3272 1645 3428 
Q 1925 3584 2291 3584 
Q 2894 3584 3203 3211 
Q 3513 2838 3513 2113 
z
" transform="scale(0.015625)"/>
       <path id="DejaVuSans-67" d="M 2906 1791 
Q 2906 2416 2648 2759 
Q 2391 3103 1925 3103 
Q 1463 3103 1205 2759 
Q 947 2416 947 1791 
Q 947 1169 1205 825 
Q 1463 481 1925 481 
Q 2391 481 2648 825 
Q 2906 1169 2906 1791 
z
M 3481 434 
Q 3481 -459 3084 -895 
Q 2688 -1331 1869 -1331 
Q 1566 -1331 1297 -1286 
Q 1028 -1241 775 -1147 
L 775 -588 
Q 1028 -725 1275 -790 
Q 1522 -856 1778 -856 
Q 2344 -856 2625 -561 
Q 2906 -266 2906 331 
L 2906 616 
Q 2728 306 2450 153 
Q 2172 0 1784 0 
Q 1141 0 747 490 
Q 353 981 353 1791 
Q 353 2603 747 3093 
Q 1141 3584 1784 3584 
Q 2172 3584 2450 3431 
Q 2728 3278 2906 2969 
L 2906 3500 
L 3481 3500 
L 3481 434 
z
" transform="scale(0.015625)"/>
       <path id="DejaVuSans-70" d="M 1159 525 
L 1159 -1331 
L 581 -1331 
L 581 3500 
L 1159 3500 
L 1159 2969 
Q 1341 3281 1617 3432 
Q 1894 3584 2278 3584 
Q 2916 3584 3314 3078 
Q 3713 2572 3713 1747 
Q 3713 922 3314 415 
Q 2916 -91 2278 -91 
Q 1894 -91 1617 61 
Q 1341 213 1159 525 
z
M 3116 1747 
Q 3116 2381 2855 2742 
Q 2594 3103 2138 3103 
Q 1681 3103 1420 2742 
Q 1159 2381 1159 1747 
Q 1159 1113 1420 752 
Q 1681 391 2138 391 
Q 2594 391 2855 752 
Q 3116 1113 3116 1747 
z
" transform="scale(0.015625)"/>
       <path id="DejaVuSans-72" d="M 2631 2963 
Q 2534 3019 2420 3045 
Q 2306 3072 2169 3072 
Q 1681 3072 1420 2755 
Q 1159 2438 1159 1844 
L 1159 0 
L 581 0 
L 581 3500 
L 1159 3500 
L 1159 2956 
Q 1341 3275 1631 3429 
Q 1922 3584 2338 3584 
Q 2397 3584 2469 3576 
Q 2541 3569 2628 3553 
L 2631 2963 
z
" transform="scale(0.015625)"/>
       <path id="DejaVuSans-6f" d="M 1959 3097 
Q 1497 3097 1228 2736 
Q 959 2375 959 1747 
Q 959 1119 1226 758 
Q 1494 397 1959 397 
Q 2419 397 2687 759 
Q 2956 1122 2956 1747 
Q 2956 2369 2687 2733 
Q 2419 3097 1959 3097 
z
M 1959 3584 
Q 2709 3584 3137 3096 
Q 3566 2609 3566 1747 
Q 3566 888 3137 398 
Q 2709 -91 1959 -91 
Q 1206 -91 779 398 
Q 353 888 353 1747 
Q 353 2609 779 3096 
Q 1206 3584 1959 3584 
z
" transform="scale(0.015625)"/>
       <path id="DejaVuSans-Oblique-70" d="M 3175 2156 
Q 3175 2616 2975 2859 
Q 2775 3103 2400 3103 
Q 2144 3103 1911 2972 
Q 1678 2841 1497 2591 
Q 1319 2344 1212 1994 
Q 1106 1644 1106 1300 
Q 1106 863 1306 627 
Q 1506 391 1875 391 
Q 2147 391 2380 519 
Q 2613 647 2778 891 
Q 2956 1147 3065 1494 
Q 3175 1841 3175 2156 
z
M 1394 2969 
Q 1625 3272 1939 3428 
Q 2253 3584 2638 3584 
Q 3175 3584 3472 3232 
Q 3769 2881 3769 2247 
Q 3769 1728 3584 1258 
Q 3400 788 3053 416 
Q 2822 169 2531 39 
Q 2241 -91 1919 -91 
Q 1547 -91 1294 64 
Q 1041 219 916 525 
L 556 -1331 
L -19 -1331 
L 922 3500 
L 1497 3500 
L 1394 2969 
z
" transform="scale(0.015625)"/>
       <path id="DejaVuSans-Oblique-72" d="M 2853 2969 
Q 2766 3016 2653 3041 
Q 2541 3066 2413 3066 
Q 1953 3066 1609 2717 
Q 1266 2369 1153 1784 
L 800 0 
L 225 0 
L 909 3500 
L 1484 3500 
L 1375 2956 
Q 1603 3259 1920 3421 
Q 2238 3584 2597 3584 
Q 2691 3584 2781 3573 
Q 2872 3563 2963 3538 
L 2853 2969 
z
" transform="scale(0.015625)"/>
       <path id="DejaVuSans-Oblique-6f" d="M 1625 -91 
Q 1009 -91 651 289 
Q 294 669 294 1325 
Q 294 1706 417 2101 
Q 541 2497 738 2766 
Q 1047 3184 1428 3384 
Q 1809 3584 2291 3584 
Q 2888 3584 3255 3212 
Q 3622 2841 3622 2241 
Q 3622 1825 3500 1412 
Q 3378 1000 3181 728 
Q 2875 309 2494 109 
Q 2113 -91 1625 -91 
z
M 891 1344 
Q 891 869 1089 633 
Q 1288 397 1691 397 
Q 2269 397 2648 901 
Q 3028 1406 3028 2181 
Q 3028 2634 2825 2865 
Q 2622 3097 2228 3097 
Q 1903 3097 1650 2945 
Q 1397 2794 1197 2484 
Q 1050 2253 970 1956 
Q 891 1659 891 1344 
z
" transform="scale(0.015625)"/>
      </defs>
      <use xlink:href="#DejaVuSans-43" transform="translate(0 0.015625)"/>
      <use xlink:href="#DejaVuSans-68" transform="translate(69.824219 0.015625)"/>
      <use xlink:href="#DejaVuSans-61" transform="translate(133.203125 0.015625)"/>
      <use xlink:href="#DejaVuSans-6e" transform="translate(194.482422 0.015625)"/>
      <use xlink:href="#DejaVuSans-67" transform="translate(257.861328 0.015625)"/>
      <use xlink:href="#DejaVuSans-65" transform="translate(321.337891 0.015625)"/>
      <use xlink:href="#DejaVuSans-20" transform="translate(382.861328 0.015625)"/>
      <use xlink:href="#DejaVuSans-69" transform="translate(414.648438 0.015625)"/>
      <use xlink:href="#DejaVuSans-6e" transform="translate(442.431641 0.015625)"/>
      <use xlink:href="#DejaVuSans-20" transform="translate(505.810547 0.015625)"/>
      <use xlink:href="#DejaVuSans-70" transform="translate(537.597656 0.015625)"/>
      <use xlink:href="#DejaVuSans-72" transform="translate(601.074219 0.015625)"/>
      <use xlink:href="#DejaVuSans-6f" transform="translate(642.1875 0.015625)"/>
      <use xlink:href="#DejaVuSans-70" transform="translate(703.369141 0.015625)"/>
      <use xlink:href="#DejaVuSans-6f" transform="translate(766.845703 0.015625)"/>
      <use xlink:href="#DejaVuSans-72" transform="translate(828.027344 0.015625)"/>
      <use xlink:href="#DejaVuSans-74" transform="translate(869.140625 0.015625)"/>
      <use xlink:href="#DejaVuSans-69" transform="translate(908.349609 0.015625)"/>
      <use xlink:href="#DejaVuSans-6f" transform="translate(936.132812 0.015625)"/>
      <use xlink:href="#DejaVuSans-6e" transform="translate(997.314453 0.015625)"/>
      <use xlink:href="#DejaVuSans-20" transform="translate(1060.693359 0.015625)"/>
      <use xlink:href="#DejaVuSans-Oblique-3b3" transform="translate(1092.480469 0.015625)"/>
      <use xlink:href="#DejaVuSans-Oblique-70" transform="translate(1151.660156 -16.390625) scale(0.7)"/>
      <use xlink:href="#DejaVuSans-Oblique-72" transform="translate(1196.09375 -16.390625) scale(0.7)"/>
      <use xlink:href="#DejaVuSans-Oblique-6f" transform="translate(1224.873047 -16.390625) scale(0.7)"/>
      <use xlink:href="#DejaVuSans-Oblique-70" transform="translate(1267.700195 -16.390625) scale(0.7)"/>
     </g>
    </g>
   </g>
   <g id="line2d_45">
    <path d="M 950.615625 297.489235 
" clip-path="url(#p3aef4486d7)" style="fill: none; stroke: #ffa500; stroke-width: 1.5; stroke-linecap: square"/>
   </g>
   <g id="patch_7">
    <path d="M 113.615625 395.28 
L 113.615625 7.2 
" style="fill: none; stroke: #000000; stroke-width: 0.8; stroke-linejoin: miter; stroke-linecap: square"/>
   </g>
   <g id="patch_8">
    <path d="M 950.615625 395.28 
L 950.615625 7.2 
" style="fill: none; stroke: #000000; stroke-width: 0.8; stroke-linejoin: miter; stroke-linecap: square"/>
   </g>
   <g id="patch_9">
    <path d="M 113.615625 395.28 
L 950.615625 395.28 
" style="fill: none; stroke: #000000; stroke-width: 0.8; stroke-linejoin: miter; stroke-linecap: square"/>
   </g>
   <g id="patch_10">
    <path d="M 113.615625 7.2 
L 950.615625 7.2 
" style="fill: none; stroke: #000000; stroke-width: 0.8; stroke-linejoin: miter; stroke-linecap: square"/>
   </g>
  </g>
 </g>
 <defs>
  <clipPath id="p3aef4486d7">
   <rect x="113.615625" y="7.2" width="837" height="388.08"/>
  </clipPath>
 </defs>
</svg>
