<?xml version="1.0" encoding="utf-8" standalone="no"?>
<!DOCTYPE svg PUBLIC "-//W3C//DTD SVG 1.1//EN"
  "http://www.w3.org/Graphics/SVG/1.1/DTD/svg11.dtd">
<svg xmlns:xlink="http://www.w3.org/1999/xlink" width="947.274841pt" height="505.354841pt" viewBox="0 0 947.274841 505.354841" xmlns="http://www.w3.org/2000/svg" version="1.1">
 <metadata>
  <rdf:RDF xmlns:dc="http://purl.org/dc/elements/1.1/" xmlns:cc="http://creativecommons.org/ns#" xmlns:rdf="http://www.w3.org/1999/02/22-rdf-syntax-ns#">
   <cc:Work>
    <dc:type rdf:resource="http://purl.org/dc/dcmitype/StillImage"/>
    <dc:date>2023-11-12T22:43:01.426766</dc:date>
    <dc:format>image/svg+xml</dc:format>
    <dc:creator>
     <cc:Agent>
      <dc:title>Matplotlib v3.7.2, https://matplotlib.org/</dc:title>
     </cc:Agent>
    </dc:creator>
   </cc:Work>
  </rdf:RDF>
 </metadata>
 <defs>
  <style type="text/css">*{stroke-linejoin: round; stroke-linecap: butt}</style>
 </defs>
 <g id="figure_1">
  <g id="patch_1">
   <path d="M 0 505.354841 
L 947.274841 505.354841 
L 947.274841 -0 
L 0 -0 
z
" style="fill: #ffffff"/>
  </g>
  <g id="axes_1">
   <g id="patch_2">
    <path d="M 103.074841 395.28 
L 940.074841 395.28 
L 940.074841 7.2 
L 103.074841 7.2 
z
" style="fill: #ffffff"/>
   </g>
   <g id="PolyCollection_1">
    <path d="M -4315.31939 246.870906 
L -4315.31939 246.872264 
L -4307.271313 246.859776 
L -4299.223236 246.852556 
L -4291.175159 246.843183 
L -4283.127082 246.839077 
L -4275.079005 246.832717 
L -4267.030929 246.82456 
L -4258.982852 246.816417 
L -4250.934775 246.809412 
L -4242.886698 246.804279 
L -4234.838621 246.797376 
L -4226.790544 246.789831 
L -4218.742467 246.782682 
L -4210.69439 246.772024 
L -4202.646313 246.764789 
L -4194.598236 246.75485 
L -4186.550159 246.747581 
L -4178.502082 246.734971 
L -4170.454005 246.72628 
L -4162.405929 246.718437 
L -4154.357852 246.707767 
L -4146.309775 246.697838 
L -4138.261698 246.688657 
L -4130.213621 246.675853 
L -4122.165544 246.666232 
L -4114.117467 246.653613 
L -4106.06939 246.641176 
L -4098.021313 246.626657 
L -4089.973236 246.611828 
L -4081.925159 246.598262 
L -4073.877082 246.58122 
L -4065.829005 246.560683 
L -4057.780929 246.544872 
L -4049.732852 246.525748 
L -4041.684775 246.502471 
L -4033.636698 246.482877 
L -4025.588621 246.457959 
L -4017.540544 246.433353 
L -4009.492467 246.408517 
L -4001.44439 246.382274 
L -3993.396313 246.352057 
L -3985.348236 246.319661 
L -3977.300159 246.28518 
L -3969.252082 246.25417 
L -3961.204005 246.214426 
L -3953.155929 246.179404 
L -3945.107852 246.141412 
L -3937.059775 246.104645 
L -3929.011698 246.063771 
L -3920.963621 246.017897 
L -3912.915544 245.979192 
L -3904.867467 245.933132 
L -3896.81939 245.885186 
L -3888.771313 245.839914 
L -3880.723236 245.796446 
L -3872.675159 245.74684 
L -3864.627082 245.697088 
L -3856.579005 245.648308 
L -3848.530929 245.596512 
L -3840.482852 245.544321 
L -3832.434775 245.493176 
L -3824.386698 245.439471 
L -3816.338621 245.386199 
L -3808.290544 245.335093 
L -3800.242467 245.280598 
L -3792.19439 245.219503 
L -3784.146313 245.162167 
L -3776.098236 245.10539 
L -3768.050159 245.050453 
L -3760.002082 244.991374 
L -3751.954005 244.934803 
L -3743.905929 244.876332 
L -3735.857852 244.828019 
L -3727.809775 244.762376 
L -3719.761698 244.711434 
L -3711.713621 244.650795 
L -3703.665544 244.594868 
L -3695.617467 244.533532 
L -3687.56939 244.482431 
L -3679.521313 244.417182 
L -3671.473236 244.358031 
L -3663.425159 244.304768 
L -3655.377082 244.244954 
L -3647.329005 244.190316 
L -3639.280929 244.130931 
L -3631.232852 244.069649 
L -3623.184775 244.013864 
L -3615.136698 243.960225 
L -3607.088621 243.899098 
L -3599.040544 243.841655 
L -3590.992467 243.782298 
L -3582.94439 243.726243 
L -3574.896313 243.672087 
L -3566.848236 243.61508 
L -3558.800159 243.556868 
L -3550.752082 243.508955 
L -3542.704005 243.45048 
L -3534.655929 243.395839 
L -3526.607852 243.342386 
L -3518.559775 243.288443 
L -3510.511698 243.234375 
L -3502.463621 243.178753 
L -3494.415544 243.127239 
L -3486.367467 243.071795 
L -3478.31939 243.013799 
L -3470.271313 242.954596 
L -3462.223236 242.894281 
L -3454.175159 242.840267 
L -3446.127082 242.777076 
L -3438.079005 242.707339 
L -3430.030929 242.644485 
L -3421.982852 242.576424 
L -3413.934775 242.507142 
L -3405.886698 242.432244 
L -3397.838621 242.35581 
L -3389.790544 242.288224 
L -3381.742467 242.205908 
L -3373.69439 242.130335 
L -3365.646313 242.046426 
L -3357.598236 241.973502 
L -3349.550159 241.880768 
L -3341.502082 241.791415 
L -3333.454005 241.70649 
L -3325.405929 241.619957 
L -3317.357852 241.530011 
L -3309.309775 241.434613 
L -3301.261698 241.348916 
L -3293.213621 241.244489 
L -3285.165544 241.159311 
L -3277.117467 241.051936 
L -3269.06939 240.950197 
L -3261.021313 240.852843 
L -3252.973236 240.762427 
L -3244.925159 240.648979 
L -3236.877082 240.55257 
L -3228.829005 240.416204 
L -3220.780929 240.307585 
L -3212.732852 240.211351 
L -3204.684775 240.096531 
L -3196.636698 239.978655 
L -3188.588621 239.835361 
L -3180.540544 239.706577 
L -3172.492467 239.611342 
L -3164.44439 239.425057 
L -3156.396313 239.290686 
L -3148.348236 239.154296 
L -3140.300159 239.012756 
L -3132.252082 238.844218 
L -3124.204005 238.693238 
L -3116.155929 238.6016 
L -3108.107852 238.465558 
L -3100.059775 238.191519 
L -3092.011698 237.978598 
L -3083.963621 237.848519 
L -3075.915544 237.635582 
L -3067.867467 237.479639 
L -3059.81939 237.360014 
L -3051.771313 237.127207 
L -3043.723236 236.851099 
L -3035.675159 236.699432 
L -3027.627082 236.645047 
L -3019.579005 236.439075 
L -3011.530929 236.412987 
L -3003.482852 236.300628 
L -2995.434775 236.07084 
L -2987.386698 236.131799 
L -2979.338621 236.314417 
L -2971.290544 236.642884 
L -2963.242467 236.406879 
L -2955.19439 237.062089 
L -2947.146313 237.274176 
L -2939.098236 236.520856 
L -2931.050159 236.807108 
L -2923.002082 237.222214 
L -2914.954005 237.059481 
L -2906.905929 237.06381 
L -2898.857852 238.645636 
L -2890.809775 240.874173 
L -2882.761698 242.010828 
L -2874.713621 239.677412 
L -2866.665544 240.954457 
L -2858.617467 242.579247 
L -2850.56939 242.525738 
L -2842.521313 245.800854 
L -2834.473236 245.365802 
L -2826.425159 244.412113 
L -2818.377082 241.952707 
L -2810.329005 244.302804 
L -2802.280929 245.705639 
L -2794.232852 245.102901 
L -2786.184775 245.499543 
L -2778.136698 246.791786 
L -2770.088621 246.613382 
L -2762.040544 245.529609 
L -2753.992467 246.91925 
L -2745.94439 247.24734 
L -2737.896313 246.726718 
L -2729.848236 247.676577 
L -2721.800159 248.010479 
L -2713.752082 247.954187 
L -2705.704005 247.67108 
L -2697.655929 247.977669 
L -2689.607852 247.674666 
L -2681.559775 247.713732 
L -2673.511698 248.039815 
L -2665.463621 247.797854 
L -2657.415544 247.965518 
L -2649.367467 248.011169 
L -2641.31939 247.782105 
L -2633.271313 247.908079 
L -2625.223236 247.535618 
L -2617.175159 247.644845 
L -2609.127082 247.779501 
L -2601.079005 247.831329 
L -2593.030929 247.68184 
L -2584.982852 247.553516 
L -2576.934775 247.557726 
L -2568.886698 247.449247 
L -2560.838621 247.469481 
L -2552.790544 247.479432 
L -2544.742467 247.271883 
L -2536.69439 247.444731 
L -2528.646313 247.315598 
L -2520.598236 247.25553 
L -2512.550159 247.338596 
L -2504.502082 247.212714 
L -2496.454005 247.209301 
L -2488.405929 247.30173 
L -2480.357852 247.421455 
L -2472.309775 247.17488 
L -2464.261698 247.070369 
L -2456.213621 247.097177 
L -2448.165544 247.558811 
L -2440.117467 247.573309 
L -2432.06939 247.74253 
L -2424.021313 247.290051 
L -2415.973236 247.023705 
L -2407.925159 247.083747 
L -2399.877082 247.350094 
L -2391.829005 247.362686 
L -2383.780929 246.834444 
L -2375.732852 247.210932 
L -2367.684775 246.975312 
L -2359.636698 246.887904 
L -2351.588621 246.572326 
L -2343.540544 246.685225 
L -2335.492467 246.516984 
L -2327.44439 246.554368 
L -2319.396313 246.284907 
L -2311.348236 246.067769 
L -2303.300159 245.750708 
L -2295.252082 245.55294 
L -2287.204005 245.357712 
L -2279.155929 245.091755 
L -2271.107852 244.948829 
L -2263.059775 244.674851 
L -2255.011698 244.382737 
L -2246.963621 243.930608 
L -2238.915544 243.520295 
L -2230.867467 243.234262 
L -2222.81939 242.806053 
L -2214.771313 242.585318 
L -2206.723236 242.186288 
L -2198.675159 241.675611 
L -2190.627082 241.230146 
L -2182.579005 240.812174 
L -2174.530929 240.297981 
L -2166.482852 239.872592 
L -2158.434775 239.388264 
L -2150.386698 238.92431 
L -2142.338621 238.38598 
L -2134.290544 237.870956 
L -2126.242467 237.337956 
L -2118.19439 236.830402 
L -2110.146313 236.31272 
L -2102.098236 235.694981 
L -2094.050159 235.110596 
L -2086.002082 234.534547 
L -2077.954005 234.069371 
L -2069.905929 233.442818 
L -2061.857852 232.887142 
L -2053.809775 232.283303 
L -2045.761698 231.491491 
L -2037.713621 231.027056 
L -2029.665544 230.335998 
L -2021.617467 229.747445 
L -2013.56939 229.09385 
L -2005.521313 228.38339 
L -1997.473236 227.715274 
L -1989.425159 227.040785 
L -1981.377082 226.238439 
L -1973.329005 225.618157 
L -1965.280929 224.824968 
L -1957.232852 224.225639 
L -1949.184775 223.407486 
L -1941.136698 222.596118 
L -1933.088621 221.86113 
L -1925.040544 221.208112 
L -1916.992467 220.300973 
L -1908.94439 219.589667 
L -1900.896313 218.755433 
L -1892.848236 218.029603 
L -1884.800159 217.16021 
L -1876.752082 216.34872 
L -1868.704005 216.03338 
L -1860.655929 214.710445 
L -1852.607852 214.281593 
L -1844.559775 213.405102 
L -1836.511698 212.694576 
L -1828.463621 211.90627 
L -1820.415544 211.10058 
L -1812.367467 210.322619 
L -1804.31939 209.595668 
L -1796.271313 208.9032 
L -1788.223236 208.187441 
L -1780.175159 208.281017 
L -1772.127082 206.685297 
L -1764.079005 206.163928 
L -1756.030929 206.882911 
L -1747.982852 205.139068 
L -1739.934775 205.121862 
L -1731.886698 204.727175 
L -1723.838621 203.670896 
L -1715.790544 203.610361 
L -1707.742467 204.091433 
L -1699.69439 203.292112 
L -1691.646313 202.848898 
L -1683.598236 203.151844 
L -1675.550159 202.809117 
L -1667.502082 202.938603 
L -1659.454005 203.255722 
L -1651.405929 203.737902 
L -1643.357852 205.416755 
L -1635.309775 204.790859 
L -1627.261698 205.592124 
L -1619.213621 206.182208 
L -1611.165544 206.477192 
L -1603.117467 207.311397 
L -1595.06939 207.735395 
L -1587.021313 206.395493 
L -1578.973236 207.346101 
L -1570.925159 208.773275 
L -1562.877082 209.367088 
L -1554.829005 209.540603 
L -1546.780929 212.39107 
L -1538.732852 212.646453 
L -1530.684775 213.444874 
L -1522.636698 213.267271 
L -1514.588621 215.677827 
L -1506.540544 214.967501 
L -1498.492467 214.576045 
L -1490.44439 216.637781 
L -1482.396313 218.11079 
L -1474.348236 218.011299 
L -1466.300159 218.89467 
L -1458.252082 219.195248 
L -1450.204005 219.265565 
L -1442.155929 219.280834 
L -1434.107852 219.76946 
L -1426.059775 220.048848 
L -1418.011698 221.53422 
L -1409.963621 220.780932 
L -1401.915544 222.068137 
L -1393.867467 221.774752 
L -1385.81939 221.594045 
L -1377.771313 222.103548 
L -1369.723236 222.553175 
L -1361.675159 221.946736 
L -1353.627082 222.212671 
L -1345.579005 222.202999 
L -1337.530929 222.868088 
L -1329.482852 222.482265 
L -1321.434775 222.275501 
L -1313.386698 222.423706 
L -1305.338621 222.701005 
L -1297.290544 222.46902 
L -1289.242467 222.060993 
L -1281.19439 222.167283 
L -1273.146313 221.570351 
L -1265.098236 221.527791 
L -1257.050159 222.258941 
L -1249.002082 222.096588 
L -1240.954005 221.502174 
L -1232.905929 221.256754 
L -1224.857852 221.175468 
L -1216.809775 220.522784 
L -1208.761698 220.497601 
L -1200.713621 220.340732 
L -1192.665544 220.07263 
L -1184.617467 219.770201 
L -1176.56939 219.286282 
L -1168.521313 219.302453 
L -1160.473236 218.916974 
L -1152.425159 218.695797 
L -1144.377082 218.407318 
L -1136.329005 218.247303 
L -1128.280929 217.832411 
L -1120.232852 217.222086 
L -1112.184775 217.035098 
L -1104.136698 216.513361 
L -1096.088621 215.837858 
L -1088.040544 216.064812 
L -1079.992467 215.211469 
L -1071.94439 215.365892 
L -1063.896313 215.096903 
L -1055.848236 215.018992 
L -1047.800159 214.443429 
L -1039.752082 214.296655 
L -1031.704005 214.123404 
L -1023.655929 213.457457 
L -1015.607852 213.505479 
L -1007.559775 213.368986 
L -999.511698 213.265223 
L -991.463621 212.921514 
L -983.415544 212.979194 
L -975.367467 212.638239 
L -967.31939 212.316994 
L -959.271313 211.847388 
L -951.223236 211.666543 
L -943.175159 211.535269 
L -935.127082 211.205319 
L -927.079005 211.213539 
L -919.030929 211.039301 
L -910.982852 210.751418 
L -902.934775 210.735233 
L -894.886698 210.418139 
L -886.838621 210.641696 
L -878.790544 210.418386 
L -870.742467 210.411484 
L -862.69439 210.030741 
L -854.646313 209.518461 
L -846.598236 209.930778 
L -838.550159 209.906797 
L -830.502082 209.735822 
L -822.454005 209.560606 
L -814.405929 209.208043 
L -806.357852 209.12594 
L -798.309775 208.933003 
L -790.261698 208.961032 
L -782.213621 208.889122 
L -774.165544 208.558914 
L -766.117467 208.090666 
L -758.06939 208.702237 
L -750.021313 208.557822 
L -741.973236 208.159763 
L -733.925159 208.413339 
L -725.877082 207.699479 
L -717.829005 207.784977 
L -709.780929 207.827088 
L -701.732852 207.338363 
L -693.684775 208.153751 
L -685.636698 207.31767 
L -677.588621 206.885341 
L -669.540544 207.407664 
L -661.492467 207.533282 
L -653.44439 207.246643 
L -645.396313 207.428199 
L -637.348236 207.017109 
L -629.300159 207.71789 
L -621.252082 207.301372 
L -613.204005 207.407396 
L -605.155929 206.85351 
L -597.107852 206.347674 
L -589.059775 206.863837 
L -581.011698 207.832099 
L -572.963621 206.592779 
L -564.915544 206.590308 
L -556.867467 206.081945 
L -548.81939 206.219307 
L -540.771313 206.090107 
L -532.723236 205.748585 
L -524.675159 205.579157 
L -516.627082 206.015831 
L -508.579005 205.691586 
L -500.530929 206.091554 
L -492.482852 206.122064 
L -484.434775 204.735841 
L -476.386698 205.242955 
L -468.338621 205.250241 
L -460.290544 205.311092 
L -452.242467 205.367397 
L -444.19439 206.203074 
L -436.146313 206.529754 
L -428.098236 206.481516 
L -420.050159 207.420271 
L -412.002082 208.982353 
L -403.954005 207.125763 
L -395.905929 207.112758 
L -387.857852 207.164569 
L -379.809775 207.798668 
L -371.761698 207.957375 
L -363.713621 207.971413 
L -355.665544 209.334321 
L -347.617467 209.84798 
L -339.56939 208.336111 
L -331.521313 209.735675 
L -323.473236 209.066858 
L -315.425159 208.653753 
L -307.377082 210.344249 
L -299.329005 210.014859 
L -291.280929 211.103454 
L -283.232852 210.771512 
L -275.184775 210.033323 
L -267.136698 210.706222 
L -259.088621 210.696431 
L -251.040544 211.352434 
L -242.992467 210.916198 
L -234.94439 212.000761 
L -226.896313 211.187972 
L -218.848236 211.748658 
L -210.800159 211.606403 
L -202.752082 212.223233 
L -194.704005 211.163612 
L -186.655929 212.245408 
L -178.607852 212.157508 
L -170.559775 212.888121 
L -162.511698 213.260627 
L -154.463621 213.236378 
L -146.415544 213.015482 
L -138.367467 213.476233 
L -130.31939 213.813969 
L -122.271313 213.463563 
L -114.223236 213.316397 
L -106.175159 213.718444 
L -98.127082 214.081881 
L -90.079005 213.384071 
L -82.030929 212.972307 
L -73.982852 214.490364 
L -65.934775 215.168692 
L -57.886698 213.570678 
L -49.838621 214.015085 
L -41.790544 214.229063 
L -33.742467 214.323877 
L -25.69439 215.098771 
L -17.646313 214.983424 
L -9.598236 214.648841 
L -1.550159 214.984321 
L 6.497918 215.069382 
L 14.545995 214.214346 
L 22.594071 214.641188 
L 30.642148 214.375708 
L 38.690225 215.554252 
L 46.738302 217.007055 
L 54.786379 216.806987 
L 62.834456 215.668378 
L 70.882533 215.557295 
L 78.93061 215.728861 
L 86.978687 215.799918 
L 95.026764 216.893453 
L 103.074841 215.544464 
L 111.122918 217.003114 
L 119.170995 218.181537 
L 127.219071 217.240987 
L 135.267148 218.752534 
L 143.315225 217.850194 
L 151.363302 218.688141 
L 159.411379 218.182772 
L 167.459456 218.613455 
L 175.507533 219.440775 
L 183.55561 219.418945 
L 191.603687 219.697358 
L 199.651764 219.795429 
L 207.699841 219.9126 
L 215.747918 218.003599 
L 223.795995 220.537338 
L 231.844071 221.600434 
L 239.892148 220.637644 
L 247.940225 221.58023 
L 255.988302 221.811249 
L 264.036379 221.324181 
L 272.084456 222.384253 
L 280.132533 223.105058 
L 288.18061 222.736533 
L 296.228687 223.040885 
L 304.276764 223.228762 
L 312.324841 223.512864 
L 320.372918 224.328044 
L 328.420995 222.778352 
L 336.469071 224.789924 
L 344.517148 224.873323 
L 352.565225 224.995818 
L 360.613302 223.807824 
L 368.661379 225.336501 
L 376.709456 226.363279 
L 384.757533 225.384327 
L 392.80561 225.526331 
L 400.853687 226.93937 
L 408.901764 224.545451 
L 416.949841 226.826949 
L 424.997918 225.435838 
L 433.045995 227.429064 
L 441.094071 226.514272 
L 449.142148 227.385936 
L 457.190225 227.668277 
L 465.238302 228.057388 
L 473.286379 228.18646 
L 481.334456 227.672785 
L 489.382533 227.700759 
L 497.43061 227.979462 
L 505.478687 228.895893 
L 513.526764 228.79795 
L 521.574841 228.783989 
L 529.622918 229.350404 
L 537.670995 229.406463 
L 545.719071 228.983535 
L 553.767148 229.080191 
L 561.815225 229.937135 
L 569.863302 230.083193 
L 577.911379 230.313357 
L 585.959456 229.665814 
L 594.007533 228.691558 
L 602.05561 229.822377 
L 610.103687 229.509163 
L 618.151764 229.832645 
L 626.199841 230.335005 
L 634.247918 229.750965 
L 642.295995 230.55731 
L 650.344071 230.018737 
L 658.392148 229.95814 
L 666.440225 229.937976 
L 674.488302 230.645117 
L 682.536379 230.485126 
L 690.584456 230.437089 
L 698.632533 229.948787 
L 706.68061 230.227998 
L 714.728687 230.352888 
L 722.776764 230.219251 
L 730.824841 230.680237 
L 738.872918 230.582941 
L 746.920995 230.849167 
L 754.969071 231.144842 
L 763.017148 231.129683 
L 771.065225 230.860203 
L 779.113302 230.945012 
L 787.161379 230.781485 
L 795.209456 231.010609 
L 803.257533 231.066069 
L 811.30561 230.756489 
L 819.353687 231.124537 
L 827.401764 229.573524 
L 835.449841 231.137841 
L 843.497918 231.727041 
L 851.545995 231.107642 
L 859.594071 231.114996 
L 867.642148 231.703615 
L 875.690225 231.732122 
L 883.738302 231.191666 
L 891.786379 231.161238 
L 899.834456 231.53645 
L 907.882533 231.418679 
L 915.93061 232.129182 
L 923.978687 231.901026 
L 932.026764 232.463171 
L 940.074841 231.86238 
L 940.074841 211.543049 
L 940.074841 211.543049 
L 932.026764 210.836581 
L 923.978687 209.971864 
L 915.93061 210.757225 
L 907.882533 209.062674 
L 899.834456 209.44422 
L 891.786379 209.147833 
L 883.738302 207.386377 
L 875.690225 209.509679 
L 867.642148 210.619078 
L 859.594071 207.33304 
L 851.545995 208.669445 
L 843.497918 209.953145 
L 835.449841 209.015345 
L 827.401764 198.376179 
L 819.353687 208.584093 
L 811.30561 206.613468 
L 803.257533 208.634664 
L 795.209456 208.449859 
L 787.161379 207.631266 
L 779.113302 207.693772 
L 771.065225 207.47577 
L 763.017148 208.664494 
L 754.969071 208.711326 
L 746.920995 207.178547 
L 738.872918 206.17558 
L 730.824841 207.07587 
L 722.776764 205.634728 
L 714.728687 206.258186 
L 706.68061 205.437257 
L 698.632533 204.383377 
L 690.584456 205.969145 
L 682.536379 206.192723 
L 674.488302 206.255156 
L 666.440225 204.540283 
L 658.392148 204.218189 
L 650.344071 204.20774 
L 642.295995 206.333612 
L 634.247918 203.555169 
L 626.199841 205.548971 
L 618.151764 203.962915 
L 610.103687 202.787986 
L 602.05561 203.898502 
L 594.007533 199.440431 
L 585.959456 203.561703 
L 577.911379 205.317718 
L 569.863302 204.576256 
L 561.815225 204.270612 
L 553.767148 200.735028 
L 545.719071 200.926357 
L 537.670995 202.313591 
L 529.622918 202.323209 
L 521.574841 200.420178 
L 513.526764 200.63563 
L 505.478687 200.566042 
L 497.43061 198.712767 
L 489.382533 197.133567 
L 481.334456 196.872058 
L 473.286379 198.470396 
L 465.238302 198.148055 
L 457.190225 197.387168 
L 449.142148 196.602412 
L 441.094071 193.800856 
L 433.045995 196.813876 
L 424.997918 189.414599 
L 416.949841 194.580728 
L 408.901764 187.535828 
L 400.853687 195.354765 
L 392.80561 191.171763 
L 384.757533 191.174433 
L 376.709456 193.453926 
L 368.661379 190.932903 
L 360.613302 186.269706 
L 352.565225 189.799735 
L 344.517148 189.796018 
L 336.469071 189.721796 
L 328.420995 184.26779 
L 320.372918 187.064991 
L 312.324841 186.466465 
L 304.276764 186.140311 
L 296.228687 185.590974 
L 288.18061 184.494637 
L 280.132533 185.682068 
L 272.084456 183.705855 
L 264.036379 181.220611 
L 255.988302 183.374353 
L 247.940225 181.76028 
L 239.892148 180.322456 
L 231.844071 182.792329 
L 223.795995 180.203455 
L 215.747918 173.482981 
L 207.699841 178.471562 
L 199.651764 178.31976 
L 191.603687 178.374048 
L 183.55561 177.813903 
L 175.507533 177.884618 
L 167.459456 176.086071 
L 159.411379 175.371025 
L 151.363302 176.839953 
L 143.315225 174.210556 
L 135.267148 176.999972 
L 127.219071 173.33556 
L 119.170995 175.526989 
L 111.122918 173.110934 
L 103.074841 170.107328 
L 95.026764 172.986441 
L 86.978687 170.367646 
L 78.93061 170.621834 
L 70.882533 170.576927 
L 62.834456 170.913343 
L 54.786379 173.528298 
L 46.738302 174.214128 
L 38.690225 171.258942 
L 30.642148 168.233823 
L 22.594071 169.202031 
L 14.545995 168.673646 
L 6.497918 170.732096 
L -1.550159 170.637381 
L -9.598236 169.962216 
L -17.646313 171.093575 
L -25.69439 171.13207 
L -33.742467 169.675001 
L -41.790544 169.993242 
L -49.838621 169.511331 
L -57.886698 168.891023 
L -65.934775 172.591137 
L -73.982852 170.721944 
L -82.030929 168.117122 
L -90.079005 169.575216 
L -98.127082 170.895981 
L -106.175159 170.267165 
L -114.223236 169.819742 
L -122.271313 170.436217 
L -130.31939 171.827085 
L -138.367467 170.637517 
L -146.415544 170.298822 
L -154.463621 171.001832 
L -162.511698 170.317532 
L -170.559775 170.743673 
L -178.607852 169.211034 
L -186.655929 169.981444 
L -194.704005 168.079669 
L -202.752082 170.008591 
L -210.800159 169.331214 
L -218.848236 169.980631 
L -226.896313 169.571618 
L -234.94439 170.803438 
L -242.992467 169.11151 
L -251.040544 170.416358 
L -259.088621 169.400225 
L -267.136698 169.766688 
L -275.184775 168.996425 
L -283.232852 169.612358 
L -291.280929 171.052291 
L -299.329005 169.91855 
L -307.377082 170.354433 
L -315.425159 167.994411 
L -323.473236 169.267904 
L -331.521313 169.974486 
L -339.56939 168.184857 
L -347.617467 170.445229 
L -355.665544 170.738531 
L -363.713621 168.448121 
L -371.761698 168.624982 
L -379.809775 168.593058 
L -387.857852 167.865606 
L -395.905929 168.616541 
L -403.954005 168.556159 
L -412.002082 171.560051 
L -420.050159 169.774281 
L -428.098236 168.50999 
L -436.146313 168.738142 
L -444.19439 168.51343 
L -452.242467 167.849723 
L -460.290544 168.377086 
L -468.338621 168.015783 
L -476.386698 168.908044 
L -484.434775 168.295758 
L -492.482852 170.155255 
L -500.530929 170.621234 
L -508.579005 170.503372 
L -516.627082 171.118553 
L -524.675159 170.763435 
L -532.723236 171.501443 
L -540.771313 172.039609 
L -548.81939 173.053252 
L -556.867467 172.703801 
L -564.915544 173.802046 
L -572.963621 173.883451 
L -581.011698 175.703111 
L -589.059775 174.880444 
L -597.107852 174.548821 
L -605.155929 175.449203 
L -613.204005 175.97506 
L -621.252082 176.213173 
L -629.300159 177.329905 
L -637.348236 176.744337 
L -645.396313 177.548331 
L -653.44439 177.442024 
L -661.492467 177.769026 
L -669.540544 177.683295 
L -677.588621 177.470988 
L -685.636698 178.366095 
L -693.684775 179.498335 
L -701.732852 178.670201 
L -709.780929 179.392781 
L -717.829005 179.301253 
L -725.877082 179.777184 
L -733.925159 180.675791 
L -741.973236 180.572785 
L -750.021313 181.327677 
L -758.06939 181.636604 
L -766.117467 181.103962 
L -774.165544 181.653553 
L -782.213621 182.249235 
L -790.261698 182.559688 
L -798.309775 182.691068 
L -806.357852 183.158909 
L -814.405929 183.260284 
L -822.454005 183.883142 
L -830.502082 184.167444 
L -838.550159 184.428021 
L -846.598236 184.688915 
L -854.646313 184.008892 
L -862.69439 185.090419 
L -870.742467 185.618251 
L -878.790544 185.672955 
L -886.838621 185.862608 
L -894.886698 186.029796 
L -902.934775 186.461332 
L -910.982852 186.537569 
L -919.030929 187.107808 
L -927.079005 187.417313 
L -935.127082 187.491597 
L -943.175159 187.812747 
L -951.223236 188.189581 
L -959.271313 188.577324 
L -967.31939 189.461055 
L -975.367467 189.814081 
L -983.415544 190.347137 
L -991.463621 190.3739 
L -999.511698 190.904465 
L -1007.559775 191.146336 
L -1015.607852 191.462406 
L -1023.655929 191.329666 
L -1031.704005 192.541008 
L -1039.752082 192.862302 
L -1047.800159 193.168253 
L -1055.848236 194.004056 
L -1063.896313 194.215812 
L -1071.94439 194.71851 
L -1079.992467 194.684392 
L -1088.040544 195.759694 
L -1096.088621 195.793457 
L -1104.136698 196.846043 
L -1112.184775 197.676257 
L -1120.232852 198.115994 
L -1128.280929 199.089211 
L -1136.329005 199.910852 
L -1144.377082 200.172431 
L -1152.425159 200.784585 
L -1160.473236 201.157929 
L -1168.521313 201.867425 
L -1176.56939 202.015481 
L -1184.617467 202.887387 
L -1192.665544 203.6024 
L -1200.713621 204.128633 
L -1208.761698 204.542103 
L -1216.809775 204.9171 
L -1224.857852 205.808983 
L -1232.905929 206.19992 
L -1240.954005 206.831822 
L -1249.002082 207.646566 
L -1257.050159 208.053343 
L -1265.098236 207.740888 
L -1273.146313 208.107969 
L -1281.19439 208.951681 
L -1289.242467 209.221388 
L -1297.290544 209.851502 
L -1305.338621 210.353419 
L -1313.386698 210.346993 
L -1321.434775 210.690693 
L -1329.482852 211.091572 
L -1337.530929 211.686115 
L -1345.579005 211.307429 
L -1353.627082 211.635623 
L -1361.675159 211.736973 
L -1369.723236 212.492199 
L -1377.771313 212.48282 
L -1385.81939 212.219248 
L -1393.867467 212.63368 
L -1401.915544 213.074821 
L -1409.963621 212.196269 
L -1418.011698 213.122678 
L -1426.059775 212.078296 
L -1434.107852 212.056741 
L -1442.155929 211.874215 
L -1450.204005 212.143526 
L -1458.252082 212.277158 
L -1466.300159 212.347461 
L -1474.348236 211.804781 
L -1482.396313 212.293344 
L -1490.44439 210.977405 
L -1498.492467 209.547415 
L -1506.540544 209.968126 
L -1514.588621 210.690494 
L -1522.636698 208.952916 
L -1530.684775 209.127671 
L -1538.732852 208.744959 
L -1546.780929 208.691337 
L -1554.829005 206.584083 
L -1562.877082 206.421655 
L -1570.925159 205.71822 
L -1578.973236 204.082911 
L -1587.021313 202.653061 
L -1595.06939 204.262197 
L -1603.117467 203.523307 
L -1611.165544 202.236492 
L -1619.213621 201.72419 
L -1627.261698 200.815555 
L -1635.309775 199.591926 
L -1643.357852 200.163986 
L -1651.405929 197.989406 
L -1659.454005 196.949872 
L -1667.502082 196.473848 
L -1675.550159 196.114923 
L -1683.598236 196.438353 
L -1691.646313 195.980801 
L -1699.69439 196.537174 
L -1707.742467 197.289764 
L -1715.790544 196.333257 
L -1723.838621 196.347642 
L -1731.886698 197.486602 
L -1739.934775 197.856289 
L -1747.982852 197.621023 
L -1756.030929 199.857568 
L -1764.079005 198.580584 
L -1772.127082 199.260131 
L -1780.175159 201.027362 
L -1788.223236 200.788997 
L -1796.271313 201.575018 
L -1804.31939 202.307005 
L -1812.367467 203.134633 
L -1820.415544 203.937544 
L -1828.463621 204.822161 
L -1836.511698 205.660703 
L -1844.559775 206.39206 
L -1852.607852 207.418206 
L -1860.655929 207.848587 
L -1868.704005 209.348856 
L -1876.752082 209.647696 
L -1884.800159 210.525478 
L -1892.848236 211.509392 
L -1900.896313 212.307672 
L -1908.94439 213.26236 
L -1916.992467 214.017177 
L -1925.040544 215.041194 
L -1933.088621 215.759285 
L -1941.136698 216.610729 
L -1949.184775 217.499951 
L -1957.232852 218.418024 
L -1965.280929 219.090316 
L -1973.329005 219.995575 
L -1981.377082 220.65347 
L -1989.425159 221.569752 
L -1997.473236 222.315185 
L -2005.521313 223.108104 
L -2013.56939 223.880776 
L -2021.617467 224.618764 
L -2029.665544 225.285549 
L -2037.713621 226.077132 
L -2045.761698 226.602059 
L -2053.809775 227.489797 
L -2061.857852 228.175799 
L -2069.905929 228.779382 
L -2077.954005 229.481446 
L -2086.002082 230.094853 
L -2094.050159 230.643585 
L -2102.098236 231.313472 
L -2110.146313 232.013111 
L -2118.19439 232.594697 
L -2126.242467 233.143766 
L -2134.290544 233.779844 
L -2142.338621 234.302976 
L -2150.386698 234.891961 
L -2158.434775 235.403249 
L -2166.482852 235.950081 
L -2174.530929 236.393208 
L -2182.579005 236.971053 
L -2190.627082 237.407977 
L -2198.675159 237.911935 
L -2206.723236 238.473653 
L -2214.771313 238.920168 
L -2222.81939 239.173429 
L -2230.867467 239.635888 
L -2238.915544 239.937477 
L -2246.963621 240.371884 
L -2255.011698 240.884111 
L -2263.059775 241.190739 
L -2271.107852 241.481449 
L -2279.155929 241.676881 
L -2287.204005 241.960347 
L -2295.252082 242.20521 
L -2303.300159 242.454086 
L -2311.348236 242.806667 
L -2319.396313 243.064118 
L -2327.44439 243.34716 
L -2335.492467 243.375939 
L -2343.540544 243.605853 
L -2351.588621 243.539868 
L -2359.636698 243.871675 
L -2367.684775 244.045828 
L -2375.732852 244.249907 
L -2383.780929 243.937458 
L -2391.829005 244.507964 
L -2399.877082 244.550686 
L -2407.925159 244.355232 
L -2415.973236 244.347783 
L -2424.021313 244.660371 
L -2432.06939 245.127315 
L -2440.117467 245.034623 
L -2448.165544 245.082814 
L -2456.213621 244.715171 
L -2464.261698 244.832301 
L -2472.309775 244.908574 
L -2480.357852 245.182538 
L -2488.405929 245.132848 
L -2496.454005 245.108272 
L -2504.502082 245.16492 
L -2512.550159 245.330124 
L -2520.598236 245.34239 
L -2528.646313 245.42093 
L -2536.69439 245.583036 
L -2544.742467 245.48625 
L -2552.790544 245.720947 
L -2560.838621 245.757514 
L -2568.886698 245.78825 
L -2576.934775 245.94566 
L -2584.982852 245.988184 
L -2593.030929 246.130936 
L -2601.079005 246.298129 
L -2609.127082 246.301409 
L -2617.175159 246.218266 
L -2625.223236 246.202701 
L -2633.271313 246.535218 
L -2641.31939 246.459929 
L -2649.367467 246.693843 
L -2657.415544 246.694864 
L -2665.463621 246.557384 
L -2673.511698 246.844889 
L -2681.559775 246.553589 
L -2689.607852 246.531473 
L -2697.655929 246.856593 
L -2705.704005 246.551222 
L -2713.752082 246.846326 
L -2721.800159 246.947296 
L -2729.848236 246.605614 
L -2737.896313 245.660081 
L -2745.94439 246.197976 
L -2753.992467 245.904523 
L -2762.040544 244.39171 
L -2770.088621 245.603115 
L -2778.136698 245.788054 
L -2786.184775 244.384085 
L -2794.232852 243.986207 
L -2802.280929 244.616622 
L -2810.329005 243.079651 
L -2818.377082 240.483375 
L -2826.425159 243.227943 
L -2834.473236 244.306096 
L -2842.521313 244.771708 
L -2850.56939 241.179949 
L -2858.617467 241.260429 
L -2866.665544 239.467529 
L -2874.713621 238.078443 
L -2882.761698 240.677639 
L -2890.809775 239.444597 
L -2898.857852 236.985561 
L -2906.905929 235.240743 
L -2914.954005 235.244647 
L -2923.002082 235.430387 
L -2931.050159 234.981458 
L -2939.098236 234.67114 
L -2947.146313 235.496305 
L -2955.19439 235.279151 
L -2963.242467 234.551257 
L -2971.290544 234.808707 
L -2979.338621 234.437689 
L -2987.386698 234.220873 
L -2995.434775 234.118045 
L -3003.482852 234.374205 
L -3011.530929 234.472533 
L -3019.579005 234.482512 
L -3027.627082 234.685183 
L -3035.675159 234.722983 
L -3043.723236 234.872099 
L -3051.771313 235.178332 
L -3059.81939 235.384439 
L -3067.867467 235.499791 
L -3075.915544 235.637241 
L -3083.963621 235.863258 
L -3092.011698 235.96582 
L -3100.059775 236.183717 
L -3108.107852 236.47029 
L -3116.155929 236.616459 
L -3124.204005 236.686787 
L -3132.252082 236.845528 
L -3140.300159 237.009899 
L -3148.348236 237.162664 
L -3156.396313 237.304446 
L -3164.44439 237.436717 
L -3172.492467 237.650181 
L -3180.540544 237.726173 
L -3188.588621 237.872392 
L -3196.636698 238.026451 
L -3204.684775 238.153061 
L -3212.732852 238.280713 
L -3220.780929 238.379914 
L -3228.829005 238.491687 
L -3236.877082 238.663875 
L -3244.925159 238.768664 
L -3252.973236 238.901441 
L -3261.021313 239.000878 
L -3269.06939 239.121202 
L -3277.117467 239.245652 
L -3285.165544 239.372201 
L -3293.213621 239.474738 
L -3301.261698 239.602539 
L -3309.309775 239.712595 
L -3317.357852 239.832924 
L -3325.405929 239.942799 
L -3333.454005 240.059563 
L -3341.502082 240.165561 
L -3349.550159 240.281678 
L -3357.598236 240.409306 
L -3365.646313 240.501181 
L -3373.69439 240.622546 
L -3381.742467 240.724425 
L -3389.790544 240.846529 
L -3397.838621 240.930184 
L -3405.886698 241.042914 
L -3413.934775 241.149669 
L -3421.982852 241.250566 
L -3430.030929 241.353878 
L -3438.079005 241.448046 
L -3446.127082 241.56135 
L -3454.175159 241.661278 
L -3462.223236 241.739933 
L -3470.271313 241.836927 
L -3478.31939 241.933456 
L -3486.367467 242.029025 
L -3494.415544 242.119981 
L -3502.463621 242.202692 
L -3510.511698 242.295346 
L -3518.559775 242.385026 
L -3526.607852 242.474555 
L -3534.655929 242.562924 
L -3542.704005 242.653562 
L -3550.752082 242.748001 
L -3558.800159 242.824763 
L -3566.848236 242.91595 
L -3574.896313 243.004163 
L -3582.94439 243.086967 
L -3590.992467 243.172659 
L -3599.040544 243.26013 
L -3607.088621 243.343502 
L -3615.136698 243.432014 
L -3623.184775 243.509328 
L -3631.232852 243.588352 
L -3639.280929 243.673291 
L -3647.329005 243.753665 
L -3655.377082 243.827592 
L -3663.425159 243.907429 
L -3671.473236 243.976541 
L -3679.521313 244.052348 
L -3687.56939 244.134977 
L -3695.617467 244.19991 
L -3703.665544 244.276577 
L -3711.713621 244.346426 
L -3719.761698 244.421018 
L -3727.809775 244.484065 
L -3735.857852 244.564229 
L -3743.905929 244.622909 
L -3751.954005 244.693544 
L -3760.002082 244.761434 
L -3768.050159 244.831988 
L -3776.098236 244.896335 
L -3784.146313 244.95455 
L -3792.19439 245.014335 
L -3800.242467 245.078815 
L -3808.290544 245.135979 
L -3816.338621 245.189055 
L -3824.386698 245.244973 
L -3832.434775 245.302242 
L -3840.482852 245.356848 
L -3848.530929 245.413917 
L -3856.579005 245.470628 
L -3864.627082 245.523805 
L -3872.675159 245.578963 
L -3880.723236 245.634549 
L -3888.771313 245.682712 
L -3896.81939 245.733353 
L -3904.867467 245.788782 
L -3912.915544 245.840555 
L -3920.963621 245.884474 
L -3929.011698 245.937403 
L -3937.059775 245.984262 
L -3945.107852 246.026321 
L -3953.155929 246.069781 
L -3961.204005 246.10988 
L -3969.252082 246.156456 
L -3977.300159 246.191863 
L -3985.348236 246.231815 
L -3993.396313 246.269276 
L -4001.44439 246.303565 
L -4009.492467 246.334107 
L -4017.540544 246.361149 
L -4025.588621 246.388864 
L -4033.636698 246.417087 
L -4041.684775 246.438548 
L -4049.732852 246.46514 
L -4057.780929 246.486137 
L -4065.829005 246.503034 
L -4073.877082 246.525804 
L -4081.925159 246.544656 
L -4089.973236 246.558739 
L -4098.021313 246.575223 
L -4106.06939 246.591323 
L -4114.117467 246.604576 
L -4122.165544 246.618302 
L -4130.213621 246.628273 
L -4138.261698 246.642613 
L -4146.309775 246.652369 
L -4154.357852 246.663348 
L -4162.405929 246.675514 
L -4170.454005 246.684043 
L -4178.502082 246.693752 
L -4186.550159 246.70913 
L -4194.598236 246.717707 
L -4202.646313 246.730106 
L -4210.69439 246.738348 
L -4218.742467 246.752078 
L -4226.790544 246.761366 
L -4234.838621 246.771717 
L -4242.886698 246.779987 
L -4250.934775 246.787112 
L -4258.982852 246.796561 
L -4267.030929 246.808194 
L -4275.079005 246.819699 
L -4283.127082 246.82906 
L -4291.175159 246.835457 
L -4299.223236 246.848532 
L -4307.271313 246.858031 
L -4315.31939 246.870906 
z
" clip-path="url(#pf081fdeb55)" style="fill: #008000; fill-opacity: 0.3; stroke: #008000; stroke-opacity: 0.3"/>
   </g>
   <g id="matplotlib.axis_1">
    <g id="xtick_1">
     <g id="line2d_1">
      <defs>
       <path id="m4691a48ac6" d="M 0 0 
L 0 3.5 
" style="stroke: #000000; stroke-width: 0.8"/>
      </defs>
      <g>
       <use xlink:href="#m4691a48ac6" x="103.074841" y="395.28" style="stroke: #000000; stroke-width: 0.8"/>
      </g>
     </g>
     <g id="text_1">
      <!-- 2023-01-01 -->
      <g transform="translate(17.945813 495.213718) rotate(-45) scale(0.2 -0.2)">
       <defs>
        <path id="DejaVuSans-32" d="M 1228 531 
L 3431 531 
L 3431 0 
L 469 0 
L 469 531 
Q 828 903 1448 1529 
Q 2069 2156 2228 2338 
Q 2531 2678 2651 2914 
Q 2772 3150 2772 3378 
Q 2772 3750 2511 3984 
Q 2250 4219 1831 4219 
Q 1534 4219 1204 4116 
Q 875 4013 500 3803 
L 500 4441 
Q 881 4594 1212 4672 
Q 1544 4750 1819 4750 
Q 2544 4750 2975 4387 
Q 3406 4025 3406 3419 
Q 3406 3131 3298 2873 
Q 3191 2616 2906 2266 
Q 2828 2175 2409 1742 
Q 1991 1309 1228 531 
z
" transform="scale(0.015625)"/>
        <path id="DejaVuSans-30" d="M 2034 4250 
Q 1547 4250 1301 3770 
Q 1056 3291 1056 2328 
Q 1056 1369 1301 889 
Q 1547 409 2034 409 
Q 2525 409 2770 889 
Q 3016 1369 3016 2328 
Q 3016 3291 2770 3770 
Q 2525 4250 2034 4250 
z
M 2034 4750 
Q 2819 4750 3233 4129 
Q 3647 3509 3647 2328 
Q 3647 1150 3233 529 
Q 2819 -91 2034 -91 
Q 1250 -91 836 529 
Q 422 1150 422 2328 
Q 422 3509 836 4129 
Q 1250 4750 2034 4750 
z
" transform="scale(0.015625)"/>
        <path id="DejaVuSans-33" d="M 2597 2516 
Q 3050 2419 3304 2112 
Q 3559 1806 3559 1356 
Q 3559 666 3084 287 
Q 2609 -91 1734 -91 
Q 1441 -91 1130 -33 
Q 819 25 488 141 
L 488 750 
Q 750 597 1062 519 
Q 1375 441 1716 441 
Q 2309 441 2620 675 
Q 2931 909 2931 1356 
Q 2931 1769 2642 2001 
Q 2353 2234 1838 2234 
L 1294 2234 
L 1294 2753 
L 1863 2753 
Q 2328 2753 2575 2939 
Q 2822 3125 2822 3475 
Q 2822 3834 2567 4026 
Q 2313 4219 1838 4219 
Q 1578 4219 1281 4162 
Q 984 4106 628 3988 
L 628 4550 
Q 988 4650 1302 4700 
Q 1616 4750 1894 4750 
Q 2613 4750 3031 4423 
Q 3450 4097 3450 3541 
Q 3450 3153 3228 2886 
Q 3006 2619 2597 2516 
z
" transform="scale(0.015625)"/>
        <path id="DejaVuSans-2d" d="M 313 2009 
L 1997 2009 
L 1997 1497 
L 313 1497 
L 313 2009 
z
" transform="scale(0.015625)"/>
        <path id="DejaVuSans-31" d="M 794 531 
L 1825 531 
L 1825 4091 
L 703 3866 
L 703 4441 
L 1819 4666 
L 2450 4666 
L 2450 531 
L 3481 531 
L 3481 0 
L 794 0 
L 794 531 
z
" transform="scale(0.015625)"/>
       </defs>
       <use xlink:href="#DejaVuSans-32"/>
       <use xlink:href="#DejaVuSans-30" x="63.623047"/>
       <use xlink:href="#DejaVuSans-32" x="127.246094"/>
       <use xlink:href="#DejaVuSans-33" x="190.869141"/>
       <use xlink:href="#DejaVuSans-2d" x="254.492188"/>
       <use xlink:href="#DejaVuSans-30" x="290.576172"/>
       <use xlink:href="#DejaVuSans-31" x="354.199219"/>
       <use xlink:href="#DejaVuSans-2d" x="417.822266"/>
       <use xlink:href="#DejaVuSans-30" x="453.90625"/>
       <use xlink:href="#DejaVuSans-31" x="517.529297"/>
      </g>
     </g>
    </g>
    <g id="xtick_2">
     <g id="line2d_2">
      <g>
       <use xlink:href="#m4691a48ac6" x="215.747918" y="395.28" style="stroke: #000000; stroke-width: 0.8"/>
      </g>
     </g>
     <g id="text_2">
      <!-- 2023-01-15 -->
      <g transform="translate(130.61889 495.213718) rotate(-45) scale(0.2 -0.2)">
       <defs>
        <path id="DejaVuSans-35" d="M 691 4666 
L 3169 4666 
L 3169 4134 
L 1269 4134 
L 1269 2991 
Q 1406 3038 1543 3061 
Q 1681 3084 1819 3084 
Q 2600 3084 3056 2656 
Q 3513 2228 3513 1497 
Q 3513 744 3044 326 
Q 2575 -91 1722 -91 
Q 1428 -91 1123 -41 
Q 819 9 494 109 
L 494 744 
Q 775 591 1075 516 
Q 1375 441 1709 441 
Q 2250 441 2565 725 
Q 2881 1009 2881 1497 
Q 2881 1984 2565 2268 
Q 2250 2553 1709 2553 
Q 1456 2553 1204 2497 
Q 953 2441 691 2322 
L 691 4666 
z
" transform="scale(0.015625)"/>
       </defs>
       <use xlink:href="#DejaVuSans-32"/>
       <use xlink:href="#DejaVuSans-30" x="63.623047"/>
       <use xlink:href="#DejaVuSans-32" x="127.246094"/>
       <use xlink:href="#DejaVuSans-33" x="190.869141"/>
       <use xlink:href="#DejaVuSans-2d" x="254.492188"/>
       <use xlink:href="#DejaVuSans-30" x="290.576172"/>
       <use xlink:href="#DejaVuSans-31" x="354.199219"/>
       <use xlink:href="#DejaVuSans-2d" x="417.822266"/>
       <use xlink:href="#DejaVuSans-31" x="453.90625"/>
       <use xlink:href="#DejaVuSans-35" x="517.529297"/>
      </g>
     </g>
    </g>
    <g id="xtick_3">
     <g id="line2d_3">
      <g>
       <use xlink:href="#m4691a48ac6" x="328.420995" y="395.28" style="stroke: #000000; stroke-width: 0.8"/>
      </g>
     </g>
     <g id="text_3">
      <!-- 2023-01-29 -->
      <g transform="translate(243.291967 495.213718) rotate(-45) scale(0.2 -0.2)">
       <defs>
        <path id="DejaVuSans-39" d="M 703 97 
L 703 672 
Q 941 559 1184 500 
Q 1428 441 1663 441 
Q 2288 441 2617 861 
Q 2947 1281 2994 2138 
Q 2813 1869 2534 1725 
Q 2256 1581 1919 1581 
Q 1219 1581 811 2004 
Q 403 2428 403 3163 
Q 403 3881 828 4315 
Q 1253 4750 1959 4750 
Q 2769 4750 3195 4129 
Q 3622 3509 3622 2328 
Q 3622 1225 3098 567 
Q 2575 -91 1691 -91 
Q 1453 -91 1209 -44 
Q 966 3 703 97 
z
M 1959 2075 
Q 2384 2075 2632 2365 
Q 2881 2656 2881 3163 
Q 2881 3666 2632 3958 
Q 2384 4250 1959 4250 
Q 1534 4250 1286 3958 
Q 1038 3666 1038 3163 
Q 1038 2656 1286 2365 
Q 1534 2075 1959 2075 
z
" transform="scale(0.015625)"/>
       </defs>
       <use xlink:href="#DejaVuSans-32"/>
       <use xlink:href="#DejaVuSans-30" x="63.623047"/>
       <use xlink:href="#DejaVuSans-32" x="127.246094"/>
       <use xlink:href="#DejaVuSans-33" x="190.869141"/>
       <use xlink:href="#DejaVuSans-2d" x="254.492188"/>
       <use xlink:href="#DejaVuSans-30" x="290.576172"/>
       <use xlink:href="#DejaVuSans-31" x="354.199219"/>
       <use xlink:href="#DejaVuSans-2d" x="417.822266"/>
       <use xlink:href="#DejaVuSans-32" x="453.90625"/>
       <use xlink:href="#DejaVuSans-39" x="517.529297"/>
      </g>
     </g>
    </g>
    <g id="xtick_4">
     <g id="line2d_4">
      <g>
       <use xlink:href="#m4691a48ac6" x="441.094071" y="395.28" style="stroke: #000000; stroke-width: 0.8"/>
      </g>
     </g>
     <g id="text_4">
      <!-- 2023-02-12 -->
      <g transform="translate(355.965044 495.213718) rotate(-45) scale(0.2 -0.2)">
       <use xlink:href="#DejaVuSans-32"/>
       <use xlink:href="#DejaVuSans-30" x="63.623047"/>
       <use xlink:href="#DejaVuSans-32" x="127.246094"/>
       <use xlink:href="#DejaVuSans-33" x="190.869141"/>
       <use xlink:href="#DejaVuSans-2d" x="254.492188"/>
       <use xlink:href="#DejaVuSans-30" x="290.576172"/>
       <use xlink:href="#DejaVuSans-32" x="354.199219"/>
       <use xlink:href="#DejaVuSans-2d" x="417.822266"/>
       <use xlink:href="#DejaVuSans-31" x="453.90625"/>
       <use xlink:href="#DejaVuSans-32" x="517.529297"/>
      </g>
     </g>
    </g>
    <g id="xtick_5">
     <g id="line2d_5">
      <g>
       <use xlink:href="#m4691a48ac6" x="553.767148" y="395.28" style="stroke: #000000; stroke-width: 0.8"/>
      </g>
     </g>
     <g id="text_5">
      <!-- 2023-02-26 -->
      <g transform="translate(468.638121 495.213718) rotate(-45) scale(0.2 -0.2)">
       <defs>
        <path id="DejaVuSans-36" d="M 2113 2584 
Q 1688 2584 1439 2293 
Q 1191 2003 1191 1497 
Q 1191 994 1439 701 
Q 1688 409 2113 409 
Q 2538 409 2786 701 
Q 3034 994 3034 1497 
Q 3034 2003 2786 2293 
Q 2538 2584 2113 2584 
z
M 3366 4563 
L 3366 3988 
Q 3128 4100 2886 4159 
Q 2644 4219 2406 4219 
Q 1781 4219 1451 3797 
Q 1122 3375 1075 2522 
Q 1259 2794 1537 2939 
Q 1816 3084 2150 3084 
Q 2853 3084 3261 2657 
Q 3669 2231 3669 1497 
Q 3669 778 3244 343 
Q 2819 -91 2113 -91 
Q 1303 -91 875 529 
Q 447 1150 447 2328 
Q 447 3434 972 4092 
Q 1497 4750 2381 4750 
Q 2619 4750 2861 4703 
Q 3103 4656 3366 4563 
z
" transform="scale(0.015625)"/>
       </defs>
       <use xlink:href="#DejaVuSans-32"/>
       <use xlink:href="#DejaVuSans-30" x="63.623047"/>
       <use xlink:href="#DejaVuSans-32" x="127.246094"/>
       <use xlink:href="#DejaVuSans-33" x="190.869141"/>
       <use xlink:href="#DejaVuSans-2d" x="254.492188"/>
       <use xlink:href="#DejaVuSans-30" x="290.576172"/>
       <use xlink:href="#DejaVuSans-32" x="354.199219"/>
       <use xlink:href="#DejaVuSans-2d" x="417.822266"/>
       <use xlink:href="#DejaVuSans-32" x="453.90625"/>
       <use xlink:href="#DejaVuSans-36" x="517.529297"/>
      </g>
     </g>
    </g>
    <g id="xtick_6">
     <g id="line2d_6">
      <g>
       <use xlink:href="#m4691a48ac6" x="666.440225" y="395.28" style="stroke: #000000; stroke-width: 0.8"/>
      </g>
     </g>
     <g id="text_6">
      <!-- 2023-03-12 -->
      <g transform="translate(581.311198 495.213718) rotate(-45) scale(0.2 -0.2)">
       <use xlink:href="#DejaVuSans-32"/>
       <use xlink:href="#DejaVuSans-30" x="63.623047"/>
       <use xlink:href="#DejaVuSans-32" x="127.246094"/>
       <use xlink:href="#DejaVuSans-33" x="190.869141"/>
       <use xlink:href="#DejaVuSans-2d" x="254.492188"/>
       <use xlink:href="#DejaVuSans-30" x="290.576172"/>
       <use xlink:href="#DejaVuSans-33" x="354.199219"/>
       <use xlink:href="#DejaVuSans-2d" x="417.822266"/>
       <use xlink:href="#DejaVuSans-31" x="453.90625"/>
       <use xlink:href="#DejaVuSans-32" x="517.529297"/>
      </g>
     </g>
    </g>
    <g id="xtick_7">
     <g id="line2d_7">
      <g>
       <use xlink:href="#m4691a48ac6" x="779.113302" y="395.28" style="stroke: #000000; stroke-width: 0.8"/>
      </g>
     </g>
     <g id="text_7">
      <!-- 2023-03-26 -->
      <g transform="translate(693.984275 495.213718) rotate(-45) scale(0.2 -0.2)">
       <use xlink:href="#DejaVuSans-32"/>
       <use xlink:href="#DejaVuSans-30" x="63.623047"/>
       <use xlink:href="#DejaVuSans-32" x="127.246094"/>
       <use xlink:href="#DejaVuSans-33" x="190.869141"/>
       <use xlink:href="#DejaVuSans-2d" x="254.492188"/>
       <use xlink:href="#DejaVuSans-30" x="290.576172"/>
       <use xlink:href="#DejaVuSans-33" x="354.199219"/>
       <use xlink:href="#DejaVuSans-2d" x="417.822266"/>
       <use xlink:href="#DejaVuSans-32" x="453.90625"/>
       <use xlink:href="#DejaVuSans-36" x="517.529297"/>
      </g>
     </g>
    </g>
    <g id="xtick_8">
     <g id="line2d_8">
      <g>
       <use xlink:href="#m4691a48ac6" x="891.786379" y="395.28" style="stroke: #000000; stroke-width: 0.8"/>
      </g>
     </g>
     <g id="text_8">
      <!-- 2023-04-09 -->
      <g transform="translate(806.657352 495.213718) rotate(-45) scale(0.2 -0.2)">
       <defs>
        <path id="DejaVuSans-34" d="M 2419 4116 
L 825 1625 
L 2419 1625 
L 2419 4116 
z
M 2253 4666 
L 3047 4666 
L 3047 1625 
L 3713 1625 
L 3713 1100 
L 3047 1100 
L 3047 0 
L 2419 0 
L 2419 1100 
L 313 1100 
L 313 1709 
L 2253 4666 
z
" transform="scale(0.015625)"/>
       </defs>
       <use xlink:href="#DejaVuSans-32"/>
       <use xlink:href="#DejaVuSans-30" x="63.623047"/>
       <use xlink:href="#DejaVuSans-32" x="127.246094"/>
       <use xlink:href="#DejaVuSans-33" x="190.869141"/>
       <use xlink:href="#DejaVuSans-2d" x="254.492188"/>
       <use xlink:href="#DejaVuSans-30" x="290.576172"/>
       <use xlink:href="#DejaVuSans-34" x="354.199219"/>
       <use xlink:href="#DejaVuSans-2d" x="417.822266"/>
       <use xlink:href="#DejaVuSans-30" x="453.90625"/>
       <use xlink:href="#DejaVuSans-39" x="517.529297"/>
      </g>
     </g>
    </g>
    <g id="xtick_9">
     <g id="line2d_9">
      <g>
       <use xlink:href="#m4691a48ac6" x="940.074841" y="395.28" style="stroke: #000000; stroke-width: 0.8"/>
      </g>
     </g>
     <g id="text_9">
      <!-- 2023-04-15 -->
      <g transform="translate(854.945813 495.213718) rotate(-45) scale(0.2 -0.2)">
       <use xlink:href="#DejaVuSans-32"/>
       <use xlink:href="#DejaVuSans-30" x="63.623047"/>
       <use xlink:href="#DejaVuSans-32" x="127.246094"/>
       <use xlink:href="#DejaVuSans-33" x="190.869141"/>
       <use xlink:href="#DejaVuSans-2d" x="254.492188"/>
       <use xlink:href="#DejaVuSans-30" x="290.576172"/>
       <use xlink:href="#DejaVuSans-34" x="354.199219"/>
       <use xlink:href="#DejaVuSans-2d" x="417.822266"/>
       <use xlink:href="#DejaVuSans-31" x="453.90625"/>
       <use xlink:href="#DejaVuSans-35" x="517.529297"/>
      </g>
     </g>
    </g>
   </g>
   <g id="matplotlib.axis_2">
    <g id="ytick_1">
     <g id="line2d_10">
      <defs>
       <path id="m6f4bf68f61" d="M 0 0 
L -3.5 0 
" style="stroke: #000000; stroke-width: 0.8"/>
      </defs>
      <g>
       <use xlink:href="#m6f4bf68f61" x="103.074841" y="346.036556" style="stroke: #000000; stroke-width: 0.8"/>
      </g>
     </g>
     <g id="text_10">
      <!-- −0.4 -->
      <g transform="translate(47.509216 353.634994) scale(0.2 -0.2)">
       <defs>
        <path id="DejaVuSans-2212" d="M 678 2272 
L 4684 2272 
L 4684 1741 
L 678 1741 
L 678 2272 
z
" transform="scale(0.015625)"/>
        <path id="DejaVuSans-2e" d="M 684 794 
L 1344 794 
L 1344 0 
L 684 0 
L 684 794 
z
" transform="scale(0.015625)"/>
       </defs>
       <use xlink:href="#DejaVuSans-2212"/>
       <use xlink:href="#DejaVuSans-30" x="83.789062"/>
       <use xlink:href="#DejaVuSans-2e" x="147.412109"/>
       <use xlink:href="#DejaVuSans-34" x="179.199219"/>
      </g>
     </g>
    </g>
    <g id="ytick_2">
     <g id="line2d_11">
      <g>
       <use xlink:href="#m6f4bf68f61" x="103.074841" y="296.459946" style="stroke: #000000; stroke-width: 0.8"/>
      </g>
     </g>
     <g id="text_11">
      <!-- −0.2 -->
      <g transform="translate(47.509216 304.058384) scale(0.2 -0.2)">
       <use xlink:href="#DejaVuSans-2212"/>
       <use xlink:href="#DejaVuSans-30" x="83.789062"/>
       <use xlink:href="#DejaVuSans-2e" x="147.412109"/>
       <use xlink:href="#DejaVuSans-32" x="179.199219"/>
      </g>
     </g>
    </g>
    <g id="ytick_3">
     <g id="line2d_12">
      <g>
       <use xlink:href="#m6f4bf68f61" x="103.074841" y="246.883336" style="stroke: #000000; stroke-width: 0.8"/>
      </g>
     </g>
     <g id="text_12">
      <!-- 0.0 -->
      <g transform="translate(64.268591 254.481774) scale(0.2 -0.2)">
       <use xlink:href="#DejaVuSans-30"/>
       <use xlink:href="#DejaVuSans-2e" x="63.623047"/>
       <use xlink:href="#DejaVuSans-30" x="95.410156"/>
      </g>
     </g>
    </g>
    <g id="ytick_4">
     <g id="line2d_13">
      <g>
       <use xlink:href="#m6f4bf68f61" x="103.074841" y="197.306726" style="stroke: #000000; stroke-width: 0.8"/>
      </g>
     </g>
     <g id="text_13">
      <!-- 0.2 -->
      <g transform="translate(64.268591 204.905164) scale(0.2 -0.2)">
       <use xlink:href="#DejaVuSans-30"/>
       <use xlink:href="#DejaVuSans-2e" x="63.623047"/>
       <use xlink:href="#DejaVuSans-32" x="95.410156"/>
      </g>
     </g>
    </g>
    <g id="ytick_5">
     <g id="line2d_14">
      <g>
       <use xlink:href="#m6f4bf68f61" x="103.074841" y="147.730116" style="stroke: #000000; stroke-width: 0.8"/>
      </g>
     </g>
     <g id="text_14">
      <!-- 0.4 -->
      <g transform="translate(64.268591 155.328553) scale(0.2 -0.2)">
       <use xlink:href="#DejaVuSans-30"/>
       <use xlink:href="#DejaVuSans-2e" x="63.623047"/>
       <use xlink:href="#DejaVuSans-34" x="95.410156"/>
      </g>
     </g>
    </g>
    <g id="ytick_6">
     <g id="line2d_15">
      <g>
       <use xlink:href="#m6f4bf68f61" x="103.074841" y="98.153506" style="stroke: #000000; stroke-width: 0.8"/>
      </g>
     </g>
     <g id="text_15">
      <!-- 0.6 -->
      <g transform="translate(64.268591 105.751943) scale(0.2 -0.2)">
       <use xlink:href="#DejaVuSans-30"/>
       <use xlink:href="#DejaVuSans-2e" x="63.623047"/>
       <use xlink:href="#DejaVuSans-36" x="95.410156"/>
      </g>
     </g>
    </g>
    <g id="ytick_7">
     <g id="line2d_16">
      <g>
       <use xlink:href="#m6f4bf68f61" x="103.074841" y="48.576896" style="stroke: #000000; stroke-width: 0.8"/>
      </g>
     </g>
     <g id="text_16">
      <!-- 0.8 -->
      <g transform="translate(64.268591 56.175333) scale(0.2 -0.2)">
       <defs>
        <path id="DejaVuSans-38" d="M 2034 2216 
Q 1584 2216 1326 1975 
Q 1069 1734 1069 1313 
Q 1069 891 1326 650 
Q 1584 409 2034 409 
Q 2484 409 2743 651 
Q 3003 894 3003 1313 
Q 3003 1734 2745 1975 
Q 2488 2216 2034 2216 
z
M 1403 2484 
Q 997 2584 770 2862 
Q 544 3141 544 3541 
Q 544 4100 942 4425 
Q 1341 4750 2034 4750 
Q 2731 4750 3128 4425 
Q 3525 4100 3525 3541 
Q 3525 3141 3298 2862 
Q 3072 2584 2669 2484 
Q 3125 2378 3379 2068 
Q 3634 1759 3634 1313 
Q 3634 634 3220 271 
Q 2806 -91 2034 -91 
Q 1263 -91 848 271 
Q 434 634 434 1313 
Q 434 1759 690 2068 
Q 947 2378 1403 2484 
z
M 1172 3481 
Q 1172 3119 1398 2916 
Q 1625 2713 2034 2713 
Q 2441 2713 2670 2916 
Q 2900 3119 2900 3481 
Q 2900 3844 2670 4047 
Q 2441 4250 2034 4250 
Q 1625 4250 1398 4047 
Q 1172 3844 1172 3481 
z
" transform="scale(0.015625)"/>
       </defs>
       <use xlink:href="#DejaVuSans-30"/>
       <use xlink:href="#DejaVuSans-2e" x="63.623047"/>
       <use xlink:href="#DejaVuSans-38" x="95.410156"/>
      </g>
     </g>
    </g>
   </g>
   <g id="line2d_17">
    <path d="M 940.074841 246.883336 
" clip-path="url(#pf081fdeb55)" style="fill: none; stroke: #ffa500; stroke-width: 1.5; stroke-linecap: square"/>
   </g>
   <g id="line2d_18">
    <path d="M 103.074841 246.883336 
L 948.274841 246.883336 
" clip-path="url(#pf081fdeb55)" style="fill: none; stroke-dasharray: 7.4,3.2; stroke-dashoffset: 0; stroke: #000000; stroke-width: 2"/>
   </g>
   <g id="patch_3">
    <path d="M 103.074841 395.28 
L 103.074841 7.2 
" style="fill: none; stroke: #000000; stroke-width: 0.8; stroke-linejoin: miter; stroke-linecap: square"/>
   </g>
   <g id="patch_4">
    <path d="M 940.074841 395.28 
L 940.074841 7.2 
" style="fill: none; stroke: #000000; stroke-width: 0.8; stroke-linejoin: miter; stroke-linecap: square"/>
   </g>
   <g id="patch_5">
    <path d="M 103.074841 395.28 
L 940.074841 395.28 
" style="fill: none; stroke: #000000; stroke-width: 0.8; stroke-linejoin: miter; stroke-linecap: square"/>
   </g>
   <g id="patch_6">
    <path d="M 103.074841 7.2 
L 940.074841 7.2 
" style="fill: none; stroke: #000000; stroke-width: 0.8; stroke-linejoin: miter; stroke-linecap: square"/>
   </g>
  </g>
 </g>
 <defs>
  <clipPath id="pf081fdeb55">
   <rect x="103.074841" y="7.2" width="837" height="388.08"/>
  </clipPath>
 </defs>
</svg>
