<?xml version="1.0" encoding="utf-8" standalone="no"?>
<!DOCTYPE svg PUBLIC "-//W3C//DTD SVG 1.1//EN"
  "http://www.w3.org/Graphics/SVG/1.1/DTD/svg11.dtd">
<svg xmlns:xlink="http://www.w3.org/1999/xlink" width="1040.965466pt" height="505.354841pt" viewBox="0 0 1040.965466 505.354841" xmlns="http://www.w3.org/2000/svg" version="1.1">
 <metadata>
  <rdf:RDF xmlns:dc="http://purl.org/dc/elements/1.1/" xmlns:cc="http://creativecommons.org/ns#" xmlns:rdf="http://www.w3.org/1999/02/22-rdf-syntax-ns#">
   <cc:Work>
    <dc:type rdf:resource="http://purl.org/dc/dcmitype/StillImage"/>
    <dc:date>2023-12-29T15:33:11.953351</dc:date>
    <dc:format>image/svg+xml</dc:format>
    <dc:creator>
     <cc:Agent>
      <dc:title>Matplotlib v3.7.2, https://matplotlib.org/</dc:title>
     </cc:Agent>
    </dc:creator>
   </cc:Work>
  </rdf:RDF>
 </metadata>
 <defs>
  <style type="text/css">*{stroke-linejoin: round; stroke-linecap: butt}</style>
 </defs>
 <g id="figure_1">
  <g id="patch_1">
   <path d="M 0 505.354841 
L 1040.965466 505.354841 
L 1040.965466 -0 
L 0 -0 
z
" style="fill: #ffffff"/>
  </g>
  <g id="axes_1">
   <g id="patch_2">
    <path d="M 103.074841 395.28 
L 940.074841 395.28 
L 940.074841 7.2 
L 103.074841 7.2 
z
" style="fill: #ffffff"/>
   </g>
   <g id="PolyCollection_1">
    <path d="M -393.000769 320.595382 
L -393.000769 320.607063 
L -390.959306 320.536071 
L -388.917842 320.468936 
L -386.876379 320.416723 
L -384.834915 320.372208 
L -382.793452 320.327721 
L -380.751989 320.273089 
L -378.710525 320.215337 
L -376.669062 320.171463 
L -374.627598 320.12656 
L -372.586135 320.081851 
L -370.544672 320.030032 
L -368.503208 319.978048 
L -366.461745 319.912159 
L -364.420281 319.857981 
L -362.378818 319.791791 
L -360.337354 319.72057 
L -358.295891 319.649514 
L -356.254428 319.576361 
L -354.212964 319.503708 
L -352.171501 319.422874 
L -350.130037 319.343751 
L -348.088574 319.263501 
L -346.047111 319.173582 
L -344.005647 319.087615 
L -341.964184 318.999335 
L -339.92272 318.910456 
L -337.881257 318.808203 
L -335.839793 318.699705 
L -333.79833 318.61386 
L -331.756867 318.505291 
L -329.715403 318.393682 
L -327.67394 318.279451 
L -325.632476 318.160242 
L -323.591013 318.026022 
L -321.54955 317.903884 
L -319.508086 317.766726 
L -317.466623 317.61791 
L -315.425159 317.469428 
L -313.383696 317.308754 
L -311.342232 317.131544 
L -309.300769 316.943411 
L -307.259306 316.739653 
L -305.217842 316.528286 
L -303.176379 316.296118 
L -301.134915 316.066806 
L -299.093452 315.812962 
L -297.051989 315.568341 
L -295.010525 315.284598 
L -292.969062 314.987796 
L -290.927598 314.700286 
L -288.886135 314.38657 
L -286.844672 314.046697 
L -284.803208 313.709389 
L -282.761745 313.361225 
L -280.720281 312.990141 
L -278.678818 312.611411 
L -276.637354 312.226459 
L -274.595891 311.8223 
L -272.554428 311.412494 
L -270.512964 311.005786 
L -268.471501 310.585561 
L -266.430037 310.166689 
L -264.388574 309.750471 
L -262.347111 309.315846 
L -260.305647 308.869322 
L -258.264184 308.426108 
L -256.22272 307.984056 
L -254.181257 307.546329 
L -252.139793 307.094669 
L -250.09833 306.652695 
L -248.056867 306.203675 
L -246.015403 305.800716 
L -243.97394 305.332918 
L -241.932476 304.913582 
L -239.891013 304.486276 
L -237.84955 304.073577 
L -235.808086 303.666928 
L -233.766623 303.267764 
L -231.725159 302.86678 
L -229.683696 302.471871 
L -227.642232 302.098935 
L -225.600769 301.729499 
L -223.559306 301.379087 
L -221.517842 301.006677 
L -219.476379 300.642312 
L -217.434915 300.296137 
L -215.393452 299.941358 
L -213.351989 299.588425 
L -211.310525 299.243411 
L -209.269062 298.896997 
L -207.227598 298.5487 
L -205.186135 298.203064 
L -203.144672 297.862183 
L -201.103208 297.533763 
L -199.061745 297.189288 
L -197.020281 296.814147 
L -194.978818 296.449622 
L -192.937354 296.086051 
L -190.895891 295.716447 
L -188.854428 295.343473 
L -186.812964 294.961943 
L -184.771501 294.599612 
L -182.730037 294.220949 
L -180.688574 293.833628 
L -178.647111 293.444874 
L -176.605647 293.055831 
L -174.564184 292.701076 
L -172.52272 292.290137 
L -170.481257 291.892327 
L -168.439793 291.503352 
L -166.39833 291.103733 
L -164.356867 290.695225 
L -162.315403 290.260474 
L -160.27394 289.817914 
L -158.232476 289.38743 
L -156.191013 288.937509 
L -154.14955 288.486183 
L -152.108086 287.993121 
L -150.066623 287.542576 
L -148.025159 286.991752 
L -145.983696 286.445714 
L -143.942232 285.912016 
L -141.900769 285.347741 
L -139.859306 284.759669 
L -137.817842 284.129451 
L -135.776379 283.529779 
L -133.734915 282.830499 
L -131.693452 282.21393 
L -129.651989 281.493316 
L -127.610525 280.798593 
L -125.569062 280.135614 
L -123.527598 279.463572 
L -121.486135 278.783869 
L -119.444672 278.195895 
L -117.403208 277.425079 
L -115.361745 276.796618 
L -113.320281 276.24053 
L -111.278818 275.607725 
L -109.237354 274.94729 
L -107.195891 274.195204 
L -105.154428 273.507392 
L -103.112964 272.951327 
L -101.071501 271.955335 
L -99.030037 271.175641 
L -96.988574 270.358889 
L -94.947111 269.488005 
L -92.905647 268.45989 
L -90.864184 267.457153 
L -88.82272 266.712118 
L -86.781257 265.775904 
L -84.739793 264.115876 
L -82.69833 262.697713 
L -80.656867 261.631804 
L -78.615403 260.229449 
L -76.57394 258.880107 
L -74.532476 257.830228 
L -72.491013 256.127906 
L -70.44955 254.282757 
L -68.408086 252.984542 
L -66.366623 252.114868 
L -64.325159 250.482661 
L -62.283696 249.704338 
L -60.242232 248.565776 
L -58.200769 246.938849 
L -56.159306 246.515529 
L -54.117842 246.993657 
L -52.076379 248.12286 
L -50.034915 246.474836 
L -47.993452 249.269074 
L -45.951989 249.9247 
L -43.910525 245.911955 
L -41.869062 246.817597 
L -39.827598 248.714911 
L -37.786135 247.653019 
L -35.744672 247.564576 
L -33.703208 255.582893 
L -31.661745 266.759439 
L -29.620281 272.52532 
L -27.578818 260.523609 
L -25.537354 266.743803 
L -23.495891 275.037993 
L -21.454428 274.955068 
L -19.412964 291.369104 
L -17.371501 289.105488 
L -15.330037 284.12344 
L -13.288574 271.636984 
L -11.247111 283.436503 
L -9.205647 290.690303 
L -7.164184 287.698812 
L -5.12272 289.635469 
L -3.081257 296.356196 
L -1.039793 295.436494 
L 1.00167 289.521671 
L 3.043133 296.93613 
L 5.084597 298.403995 
L 7.12606 295.682002 
L 9.167524 300.36497 
L 11.208987 301.974921 
L 13.25045 301.4664 
L 15.291914 299.909887 
L 17.333377 301.384271 
L 19.374841 299.698568 
L 21.416304 299.705117 
L 23.457768 301.078159 
L 25.499231 299.60124 
L 27.540694 300.165956 
L 29.582158 300.070042 
L 31.623621 298.748054 
L 33.665085 299.035293 
L 35.706548 297.268194 
L 37.748011 297.253671 
L 39.789475 297.593435 
L 41.830938 297.482089 
L 43.872402 296.548491 
L 45.913865 295.701204 
L 47.955328 295.519245 
L 49.996792 294.618963 
L 52.038255 294.39268 
L 54.079719 294.217133 
L 56.121182 292.971861 
L 58.162646 293.496664 
L 60.204109 292.613803 
L 62.245572 292.219761 
L 64.287036 292.152932 
L 66.328499 291.255271 
L 68.369963 290.998092 
L 70.411426 291.184105 
L 72.452889 291.46974 
L 74.494353 290.029248 
L 76.535816 289.716106 
L 78.57728 289.042767 
L 80.618743 291.164353 
L 82.660207 291.045736 
L 84.70167 291.724277 
L 86.743133 289.322208 
L 88.784597 287.79742 
L 90.82606 287.990514 
L 92.867524 289.255498 
L 94.908987 289.255995 
L 96.95045 286.439301 
L 98.991914 288.460477 
L 101.033377 287.561946 
L 103.074841 287.123761 
L 105.116304 285.541789 
L 107.157768 286.478154 
L 109.199231 285.835733 
L 111.240694 286.484148 
L 113.282158 285.391454 
L 115.323621 284.573403 
L 117.365085 283.187789 
L 119.406548 282.529206 
L 121.448011 281.869075 
L 123.489475 280.891822 
L 125.530938 280.76757 
L 127.572402 279.823165 
L 129.613865 278.822277 
L 131.655328 276.705562 
L 133.696792 274.920704 
L 135.738255 273.979714 
L 137.779719 272.046289 
L 139.821182 271.684039 
L 141.862646 270.144932 
L 143.904109 267.738632 
L 145.945572 265.734874 
L 147.987036 264.149406 
L 150.028499 261.605341 
L 152.069963 260.07203 
L 154.111426 257.789113 
L 156.152889 255.714519 
L 158.194353 253.368201 
L 160.235816 250.794652 
L 162.27728 248.604858 
L 164.318743 246.147579 
L 166.360207 243.886161 
L 168.40167 240.992962 
L 170.443133 238.292935 
L 172.484597 235.561567 
L 174.52606 233.369571 
L 176.567524 230.561012 
L 178.608987 227.999841 
L 180.65045 225.191969 
L 182.691914 221.602238 
L 184.733377 219.313153 
L 186.774841 216.492368 
L 188.816304 213.811297 
L 190.857768 210.945332 
L 192.899231 207.574859 
L 194.940694 204.659239 
L 196.982158 201.413434 
L 199.023621 197.604228 
L 201.065085 194.785613 
L 203.106548 191.027345 
L 205.148011 188.090471 
L 207.189475 184.180169 
L 209.230938 179.855338 
L 211.272402 176.289149 
L 213.313865 173.029253 
L 215.355328 168.632882 
L 217.396792 165.013726 
L 219.438255 160.98952 
L 221.479719 157.566317 
L 223.521182 153.32658 
L 225.562646 149.367648 
L 227.604109 148.423177 
L 229.645572 141.930773 
L 231.687036 140.185055 
L 233.728499 136.00683 
L 235.769963 133.159092 
L 237.811426 129.323412 
L 239.852889 125.834273 
L 241.894353 122.353695 
L 243.935816 118.714914 
L 245.97728 115.878997 
L 248.018743 112.502073 
L 250.060207 113.133684 
L 252.10167 105.165881 
L 254.143133 102.703097 
L 256.184597 106.650293 
L 258.22606 98.093916 
L 260.267524 98.214837 
L 262.308987 96.602508 
L 264.35045 91.114133 
L 266.391914 90.90231 
L 268.433377 94.071951 
L 270.474841 90.188117 
L 272.516304 88.968708 
L 274.557768 90.722051 
L 276.599231 90.595816 
L 278.640694 91.413277 
L 280.682158 94.674704 
L 282.723621 98.15105 
L 284.765085 107.805798 
L 286.806548 105.562214 
L 288.848011 110.86724 
L 290.889475 114.559255 
L 292.930938 117.296863 
L 294.972402 122.114581 
L 297.013865 125.676782 
L 299.055328 118.760613 
L 301.096792 125.530953 
L 303.138255 136.529776 
L 305.179719 142.180542 
L 307.221182 145.223974 
L 309.262646 159.888411 
L 311.304109 162.206435 
L 313.345572 166.614414 
L 315.387036 165.753619 
L 317.428499 178.43123 
L 319.469963 174.696903 
L 321.511426 172.944554 
L 323.552889 184.145524 
L 325.594353 191.433339 
L 327.635816 190.605563 
L 329.67728 196.112342 
L 331.718743 198.094609 
L 333.760207 198.292357 
L 335.80167 198.110174 
L 337.843133 200.536244 
L 339.884597 202.384969 
L 341.92606 210.260742 
L 343.967524 205.932919 
L 346.008987 213.06176 
L 348.05045 211.559277 
L 350.091914 211.24514 
L 352.133377 213.838824 
L 354.174841 216.189671 
L 356.216304 213.292227 
L 358.257768 215.386267 
L 360.299231 215.060495 
L 362.340694 218.879118 
L 364.382158 217.445016 
L 366.423621 216.379034 
L 368.465085 217.637548 
L 370.506548 218.547679 
L 372.548011 217.78435 
L 374.589475 215.77009 
L 376.630938 216.899139 
L 378.672402 213.433197 
L 380.713865 214.092597 
L 382.755328 217.671004 
L 384.796792 216.680523 
L 386.838255 214.11292 
L 388.879719 212.95117 
L 390.921182 212.755201 
L 392.962646 209.374053 
L 395.004109 210.08864 
L 397.045572 209.771913 
L 399.087036 208.552304 
L 401.128499 207.541188 
L 403.169963 205.532857 
L 405.211426 206.15593 
L 407.252889 204.866902 
L 409.294353 203.953747 
L 411.335816 203.004746 
L 413.37728 202.100145 
L 415.418743 200.950183 
L 417.460207 198.276378 
L 419.50167 197.224149 
L 421.543133 195.589413 
L 423.584597 192.326955 
L 425.62606 194.206509 
L 427.667524 190.491371 
L 429.708987 191.048186 
L 431.75045 190.513721 
L 433.791914 190.348745 
L 435.833377 188.199268 
L 437.874841 187.942389 
L 439.916304 187.802162 
L 441.957768 184.096224 
L 443.999231 185.127488 
L 446.040694 184.324176 
L 448.082158 184.784073 
L 450.123621 182.587459 
L 452.165085 183.268316 
L 454.206548 182.56354 
L 456.248011 179.924733 
L 458.289475 179.187204 
L 460.330938 178.494219 
L 462.372402 177.886737 
L 464.413865 176.812951 
L 466.455328 176.663538 
L 468.496792 175.861927 
L 470.538255 175.118287 
L 472.579719 175.040728 
L 474.621182 173.194935 
L 476.662646 174.77759 
L 478.704109 174.845977 
L 480.745572 173.547174 
L 482.787036 172.366458 
L 484.828499 170.434935 
L 486.869963 172.319757 
L 488.911426 172.360594 
L 490.952889 171.558343 
L 492.994353 170.352805 
L 495.035816 169.51749 
L 497.07728 168.759567 
L 499.118743 168.944611 
L 501.160207 168.458009 
L 503.20167 168.744279 
L 505.243133 167.509687 
L 507.284597 166.169242 
L 509.32606 168.382695 
L 511.367524 167.01142 
L 513.408987 166.870226 
L 515.45045 168.544322 
L 517.491914 164.944632 
L 519.533377 165.749594 
L 521.574841 166.895911 
L 523.616304 165.042872 
L 525.657768 167.418188 
L 527.699231 165.819611 
L 529.740694 164.027063 
L 531.782158 166.452638 
L 533.823621 167.288954 
L 535.865085 165.730689 
L 537.906548 166.366923 
L 539.948011 165.68659 
L 541.989475 170.035094 
L 544.030938 169.375329 
L 546.072402 169.760172 
L 548.113865 166.804159 
L 550.155328 165.28797 
L 552.196792 167.926543 
L 554.238255 170.83644 
L 556.279719 168.811504 
L 558.321182 167.290922 
L 560.362646 165.006956 
L 562.404109 165.04574 
L 564.445572 166.454621 
L 566.487036 164.327604 
L 568.528499 163.249827 
L 570.569963 166.148749 
L 572.611426 163.948261 
L 574.652889 166.83564 
L 576.694353 167.056592 
L 578.735816 162.158732 
L 580.77728 162.498777 
L 582.818743 162.218514 
L 584.860207 163.260251 
L 586.90167 165.7962 
L 588.943133 170.454211 
L 590.984597 171.771294 
L 593.02606 171.791069 
L 595.067524 175.536989 
L 597.108987 183.135345 
L 599.15045 175.49614 
L 601.191914 172.916733 
L 603.233377 175.938052 
L 605.274841 179.058137 
L 607.316304 180.031438 
L 609.357768 178.905291 
L 611.399231 184.738233 
L 613.440694 188.668788 
L 615.482158 182.989506 
L 617.523621 188.615741 
L 619.565085 185.802952 
L 621.606548 186.2404 
L 623.648011 191.251803 
L 625.689475 191.090509 
L 627.730938 195.269402 
L 629.772402 195.011887 
L 631.813865 190.707284 
L 633.855328 194.523285 
L 635.896792 194.899025 
L 637.938255 198.351611 
L 639.979719 197.507019 
L 642.021182 201.770379 
L 644.062646 198.499868 
L 646.104109 201.108995 
L 648.145572 201.2106 
L 650.187036 204.063819 
L 652.228499 199.436738 
L 654.269963 203.983529 
L 656.311426 205.761121 
L 658.352889 207.887021 
L 660.394353 210.173469 
L 662.435816 209.994929 
L 664.47728 208.96545 
L 666.518743 211.730252 
L 668.560207 213.750051 
L 670.60167 212.876562 
L 672.643133 211.091986 
L 674.684597 213.581262 
L 676.72606 215.330571 
L 678.767524 211.613471 
L 680.808987 211.090657 
L 682.85045 217.980164 
L 684.891914 219.66417 
L 686.933377 213.334708 
L 688.974841 215.906643 
L 691.016304 216.447734 
L 693.057768 217.121742 
L 695.099231 220.46933 
L 697.140694 218.927445 
L 699.182158 217.416231 
L 701.223621 219.579228 
L 703.265085 220.056521 
L 705.306548 216.725765 
L 707.348011 217.941853 
L 709.389475 217.418637 
L 711.430938 224.222391 
L 713.472402 228.768851 
L 715.513865 228.773509 
L 717.555328 223.128104 
L 719.596792 222.284586 
L 721.638255 223.377145 
L 723.679719 223.130914 
L 725.721182 229.065927 
L 727.762646 223.592933 
L 729.804109 228.679836 
L 731.845572 233.393525 
L 733.887036 229.785332 
L 735.928499 236.635799 
L 737.969963 232.58459 
L 740.011426 235.869725 
L 742.052889 233.857978 
L 744.094353 236.829051 
L 746.135816 239.77318 
L 748.17728 239.196229 
L 750.218743 240.909721 
L 752.260207 241.877075 
L 754.30167 243.32202 
L 756.343133 235.591215 
L 758.384597 246.390563 
L 760.42606 251.113117 
L 762.467524 246.853899 
L 764.508987 250.03276 
L 766.55045 252.285317 
L 768.591914 249.888167 
L 770.633377 254.754174 
L 772.674841 257.883871 
L 774.716304 257.717219 
L 776.757768 259.025651 
L 778.799231 259.661108 
L 780.840694 261.633144 
L 782.882158 263.608388 
L 784.923621 266.003301 
L 786.965085 266.893259 
L 789.006548 268.444857 
L 791.048011 267.621481 
L 793.089475 264.457044 
L 795.130938 270.656491 
L 797.172402 275.781947 
L 799.213865 271.121032 
L 801.255328 272.336234 
L 803.296792 278.981557 
L 805.338255 267.398869 
L 807.379719 278.696812 
L 809.421182 272.782407 
L 811.462646 282.723225 
L 813.504109 278.580312 
L 815.545572 283.288425 
L 817.587036 283.819892 
L 819.628499 286.521336 
L 821.669963 287.00947 
L 823.711426 285.41856 
L 825.752889 285.02508 
L 827.794353 288.773203 
L 829.835816 291.976057 
L 831.87728 291.538518 
L 833.918743 292.620991 
L 835.960207 294.961256 
L 838.00167 295.286367 
L 840.043133 293.785963 
L 842.084597 293.89854 
L 844.12606 298.978493 
L 846.167524 299.240047 
L 848.208987 300.317361 
L 850.25045 298.923839 
L 852.291914 293.794134 
L 854.333377 300.440022 
L 856.374841 298.474184 
L 858.416304 300.11782 
L 860.457768 301.844105 
L 862.499231 299.615953 
L 864.540694 303.405507 
L 866.582158 301.398366 
L 868.623621 302.073604 
L 870.665085 300.996742 
L 872.706548 304.130729 
L 874.748011 303.7667 
L 876.789475 303.563145 
L 878.830938 301.69214 
L 880.872402 303.252026 
L 882.913865 303.277547 
L 884.955328 303.265539 
L 886.996792 304.402181 
L 889.038255 304.425784 
L 891.079719 305.289903 
L 893.121182 305.918789 
L 895.162646 305.706343 
L 897.204109 305.629794 
L 899.245572 304.665168 
L 901.287036 305.008597 
L 903.328499 305.005251 
L 905.369963 305.358462 
L 907.411426 303.870936 
L 909.452889 305.735488 
L 911.494353 298.769714 
L 913.535816 304.127238 
L 915.57728 306.355565 
L 917.618743 304.671321 
L 919.660207 304.191144 
L 921.70167 305.554979 
L 923.743133 305.729535 
L 925.784597 306.103729 
L 927.82606 304.753428 
L 929.867524 304.156711 
L 931.908987 304.648897 
L 933.95045 305.742757 
L 935.991914 303.811496 
L 938.033377 306.743665 
L 940.074841 305.79787 
L 940.074841 289.103734 
L 940.074841 289.103734 
L 938.033377 290.612718 
L 935.991914 286.857455 
L 933.95045 290.335144 
L 931.908987 288.176995 
L 929.867524 287.090183 
L 927.82606 287.287028 
L 925.784597 287.887014 
L 923.743133 288.925139 
L 921.70167 289.574071 
L 919.660207 276.914467 
L 917.618743 285.34663 
L 915.57728 288.084424 
L 913.535816 273.264538 
L 911.494353 239.3043 
L 909.452889 284.563011 
L 907.411426 275.071487 
L 905.369963 284.137956 
L 903.328499 282.482051 
L 901.287036 282.036969 
L 899.245572 278.122419 
L 897.204109 279.764156 
L 895.162646 282.867801 
L 893.121182 283.082823 
L 891.079719 278.643056 
L 889.038255 274.30584 
L 886.996792 276.873655 
L 884.955328 273.267329 
L 882.913865 272.406329 
L 880.872402 271.564772 
L 878.830938 266.037302 
L 876.789475 273.201155 
L 874.748011 272.83795 
L 872.706548 272.809205 
L 870.665085 264.220655 
L 868.623621 266.898582 
L 866.582158 263.972883 
L 864.540694 272.216367 
L 862.499231 258.943518 
L 860.457768 267.149104 
L 858.416304 261.850191 
L 856.374841 255.665282 
L 854.333377 263.290979 
L 852.291914 239.047112 
L 850.25045 259.083409 
L 848.208987 263.049309 
L 846.167524 259.670901 
L 844.12606 260.051574 
L 842.084597 241.293292 
L 840.043133 242.874995 
L 838.00167 248.215467 
L 835.960207 247.663292 
L 833.918743 241.457847 
L 831.87728 238.8508 
L 829.835816 239.231841 
L 827.794353 232.969155 
L 825.752889 220.062384 
L 823.711426 221.231114 
L 821.669963 226.508147 
L 819.628499 225.04418 
L 817.587036 219.149372 
L 815.545572 218.096321 
L 813.504109 203.848475 
L 811.462646 217.686986 
L 809.421182 183.333889 
L 807.379719 204.190133 
L 805.338255 171.407818 
L 803.296792 207.268321 
L 801.255328 188.563096 
L 799.213865 186.753367 
L 797.172402 197.656849 
L 795.130938 185.042012 
L 793.089475 167.266551 
L 791.048011 176.014978 
L 789.006548 180.21697 
L 786.965085 176.180367 
L 784.923621 172.39236 
L 782.882158 160.074349 
L 780.840694 163.153406 
L 778.799231 159.312801 
L 776.757768 157.312639 
L 774.716304 153.541803 
L 772.674841 154.587707 
L 770.633377 145.842502 
L 768.591914 133.191305 
L 766.55045 143.855049 
L 764.508987 134.338572 
L 762.467524 129.070647 
L 760.42606 139.707596 
L 758.384597 128.431529 
L 756.343133 100.099655 
L 754.30167 120.751908 
L 752.260207 116.267376 
L 750.218743 115.03282 
L 748.17728 110.73394 
L 746.135816 112.968455 
L 744.094353 106.233718 
L 742.052889 99.951772 
L 740.011426 104.944612 
L 737.969963 95.559871 
L 735.928499 107.135005 
L 733.887036 90.443239 
L 731.845572 98.152528 
L 729.804109 88.284466 
L 727.762646 77.82349 
L 725.721182 90.112191 
L 723.679719 76.046517 
L 721.638255 77.60208 
L 719.596792 75.875397 
L 717.555328 78.232071 
L 715.513865 90.134126 
L 713.472402 91.8593 
L 711.430938 82.374959 
L 709.389475 65.59363 
L 707.348011 67.129194 
L 705.306548 66.548482 
L 703.265085 74.39867 
L 701.223621 72.979019 
L 699.182158 68.485103 
L 697.140694 73.036539 
L 695.099231 74.916151 
L 693.057768 68.498294 
L 691.016304 68.703672 
L 688.974841 67.362356 
L 686.933377 63.029511 
L 684.891914 77.553647 
L 682.85045 71.93432 
L 680.808987 60.501854 
L 678.767524 63.359674 
L 676.72606 69.787882 
L 674.684597 66.582202 
L 672.643133 62.826215 
L 670.60167 68.528693 
L 668.560207 72.413654 
L 666.518743 65.68395 
L 664.47728 62.481174 
L 662.435816 65.557482 
L 660.394353 62.148763 
L 658.352889 62.335842 
L 656.311426 58.272481 
L 654.269963 56.641 
L 652.228499 49.314578 
L 650.187036 57.263764 
L 648.145572 53.470096 
L 646.104109 54.530151 
L 644.062646 52.520374 
L 642.021182 56.693338 
L 639.979719 50.155279 
L 637.938255 53.670992 
L 635.896792 48.266965 
L 633.855328 48.769515 
L 631.813865 43.836685 
L 629.772402 48.078952 
L 627.730938 51.236595 
L 625.689475 47.902255 
L 623.648011 47.276256 
L 621.606548 41.321947 
L 619.565085 42.305691 
L 617.523621 44.379378 
L 615.482158 38.098891 
L 613.440694 44.539161 
L 611.399231 41.868643 
L 609.357768 33.577744 
L 607.316304 36.772737 
L 605.274841 35.72425 
L 603.233377 32.025266 
L 601.191914 29.88775 
L 599.15045 33.761179 
L 597.108987 46.101257 
L 595.067524 37.179261 
L 593.02606 32.059043 
L 590.984597 32.520412 
L 588.943133 31.282426 
L 586.90167 27.050463 
L 584.860207 25.042233 
L 582.818743 22.124146 
L 580.77728 26.048491 
L 578.735816 27.067761 
L 576.694353 33.26393 
L 574.652889 34.211395 
L 572.611426 32.011575 
L 570.569963 36.149696 
L 568.528499 33.151219 
L 566.487036 36.528695 
L 564.445572 39.297079 
L 562.404109 40.033139 
L 560.362646 39.970241 
L 558.321182 44.418967 
L 556.279719 46.90646 
L 554.238255 49.371856 
L 552.196792 48.025062 
L 550.155328 46.07887 
L 548.113865 48.459822 
L 546.072402 51.229468 
L 544.030938 51.955488 
L 541.989475 54.723693 
L 539.948011 50.297889 
L 537.906548 52.14919 
L 535.865085 51.800216 
L 533.823621 53.222913 
L 531.782158 52.341873 
L 529.740694 51.000901 
L 527.699231 54.61082 
L 525.657768 56.198521 
L 523.616304 53.719201 
L 521.574841 56.517325 
L 519.533377 54.42615 
L 517.491914 55.731277 
L 515.45045 59.888723 
L 513.408987 58.441447 
L 511.367524 59.468276 
L 509.32606 61.116431 
L 507.284597 59.047745 
L 505.243133 60.457472 
L 503.20167 62.584934 
L 501.160207 62.506954 
L 499.118743 63.676142 
L 497.07728 63.83629 
L 495.035816 64.815476 
L 492.994353 66.080919 
L 490.952889 67.538651 
L 488.911426 68.259795 
L 486.869963 68.879355 
L 484.828499 65.026818 
L 482.787036 69.173133 
L 480.745572 70.514406 
L 478.704109 71.878309 
L 476.662646 71.135871 
L 474.621182 70.51733 
L 472.579719 72.67203 
L 470.538255 72.901935 
L 468.496792 74.161467 
L 466.455328 74.749682 
L 464.413865 75.100247 
L 462.372402 75.583013 
L 460.330938 76.789176 
L 458.289475 77.956233 
L 456.248011 79.358785 
L 454.206548 82.647134 
L 452.165085 83.541761 
L 450.123621 82.741205 
L 448.082158 85.542972 
L 446.040694 84.80899 
L 443.999231 86.198635 
L 441.957768 84.301298 
L 439.916304 90.041408 
L 437.874841 90.112845 
L 435.833377 90.994448 
L 433.791914 93.731637 
L 431.75045 94.272629 
L 429.708987 95.400841 
L 427.667524 94.687734 
L 425.62606 99.481837 
L 423.584597 98.369435 
L 421.543133 102.813568 
L 419.50167 105.598359 
L 417.460207 107.612204 
L 415.418743 111.617179 
L 413.37728 114.153694 
L 411.335816 115.381692 
L 409.294353 117.653464 
L 407.252889 119.136732 
L 405.211426 121.677704 
L 403.169963 121.608272 
L 401.128499 125.296477 
L 399.087036 127.907975 
L 397.045572 130.009746 
L 395.004109 131.444481 
L 392.962646 132.131422 
L 390.921182 136.690935 
L 388.879719 138.200595 
L 386.838255 141.217849 
L 384.796792 144.745701 
L 382.755328 146.662626 
L 380.713865 144.614346 
L 378.672402 145.79734 
L 376.630938 150.214027 
L 374.589475 150.921148 
L 372.548011 153.749519 
L 370.506548 155.563604 
L 368.465085 156.199172 
L 366.423621 157.25871 
L 364.382158 158.961176 
L 362.340694 161.313081 
L 360.299231 158.893747 
L 358.257768 160.76301 
L 356.216304 160.451651 
L 354.174841 163.801586 
L 352.133377 164.042563 
L 350.091914 162.613783 
L 348.05045 164.294226 
L 346.008987 166.475667 
L 343.967524 161.883837 
L 341.92606 166.944697 
L 339.884597 161.684356 
L 337.843133 161.661774 
L 335.80167 161.077993 
L 333.760207 162.895124 
L 331.718743 163.780601 
L 329.67728 163.086675 
L 327.635816 159.974343 
L 325.594353 162.677196 
L 323.552889 156.51652 
L 321.511426 148.871486 
L 319.469963 151.243685 
L 317.428499 154.968449 
L 315.387036 145.547714 
L 313.345572 146.484133 
L 311.304109 143.979296 
L 309.262646 142.441619 
L 307.221182 130.701729 
L 305.179719 129.269265 
L 303.138255 124.523668 
L 301.096792 114.632611 
L 299.055328 107.096235 
L 297.013865 115.514368 
L 294.972402 110.619926 
L 292.930938 104.299318 
L 290.889475 100.916083 
L 288.848011 96.033162 
L 286.806548 88.898368 
L 284.765085 91.378153 
L 282.723621 79.228409 
L 280.682158 73.561714 
L 278.640694 69.900685 
L 276.599231 68.515112 
L 274.557768 68.588971 
L 272.516304 66.751457 
L 270.474841 68.737585 
L 268.433377 72.578039 
L 266.391914 68.017227 
L 264.35045 68.312106 
L 262.308987 74.890568 
L 260.267524 76.461602 
L 258.22606 75.59052 
L 256.184597 86.451825 
L 254.143133 80.322439 
L 252.10167 83.676789 
L 250.060207 92.877171 
L 248.018743 91.913452 
L 245.97728 95.931973 
L 243.935816 99.116408 
L 241.894353 103.589804 
L 239.852889 107.439318 
L 237.811426 111.517015 
L 235.769963 115.982996 
L 233.728499 119.096687 
L 231.687036 124.244258 
L 229.645572 126.10929 
L 227.604109 133.395822 
L 225.562646 134.494163 
L 223.521182 138.930667 
L 221.479719 143.847416 
L 219.438255 147.603145 
L 217.396792 152.231518 
L 215.355328 156.107307 
L 213.313865 161.066215 
L 211.272402 164.542467 
L 209.230938 168.630446 
L 207.189475 173.490174 
L 205.148011 177.771583 
L 203.106548 181.086989 
L 201.065085 185.341704 
L 199.023621 188.235757 
L 196.982158 192.502815 
L 194.940694 196.143534 
L 192.899231 199.388221 
L 190.857768 203.197626 
L 188.816304 206.444964 
L 186.774841 209.261289 
L 184.733377 212.341973 
L 182.691914 214.747794 
L 180.65045 218.829701 
L 178.608987 221.991737 
L 176.567524 224.656218 
L 174.52606 227.840792 
L 172.484597 230.554312 
L 170.443133 232.920123 
L 168.40167 235.947798 
L 166.360207 239.086947 
L 164.318743 241.765405 
L 162.27728 244.173521 
L 160.235816 246.947225 
L 158.194353 249.331719 
L 156.152889 251.866546 
L 154.111426 254.137945 
L 152.069963 256.369009 
L 150.028499 258.394029 
L 147.987036 260.681459 
L 145.945572 262.513631 
L 143.904109 264.508645 
L 141.862646 266.806297 
L 139.821182 268.593055 
L 137.779719 269.495717 
L 135.738255 271.329911 
L 133.696792 272.445847 
L 131.655328 274.173165 
L 129.613865 276.260222 
L 127.572402 277.422027 
L 125.530938 278.476641 
L 123.489475 278.99608 
L 121.448011 280.059057 
L 119.406548 280.844468 
L 117.365085 281.650661 
L 115.323621 283.036681 
L 113.282158 283.883289 
L 111.240694 284.994392 
L 109.199231 284.46041 
L 107.157768 285.116057 
L 105.116304 284.207296 
L 103.074841 285.793935 
L 101.033377 286.071344 
L 98.991914 287.177404 
L 96.95045 284.841685 
L 94.908987 287.792492 
L 92.867524 287.634189 
L 90.82606 286.029613 
L 88.784597 285.663 
L 86.743133 287.162048 
L 84.70167 289.780993 
L 82.660207 288.807454 
L 80.618743 288.759556 
L 78.57728 286.129869 
L 76.535816 286.29603 
L 74.494353 286.851368 
L 72.452889 288.375654 
L 70.411426 287.854854 
L 68.369963 287.43116 
L 66.328499 287.55103 
L 64.287036 288.431105 
L 62.245572 288.175064 
L 60.204109 288.604981 
L 58.162646 289.508532 
L 56.121182 288.684007 
L 54.079719 289.985838 
L 52.038255 290.06677 
L 49.996792 290.20351 
L 47.955328 291.100037 
L 45.913865 291.142934 
L 43.872402 292.114229 
L 41.830938 293.131415 
L 39.789475 293.174583 
L 37.748011 292.756218 
L 35.706548 292.48427 
L 33.665085 294.603011 
L 31.623621 294.236764 
L 29.582158 295.751036 
L 27.540694 295.778501 
L 25.499231 295.296078 
L 23.457768 296.619639 
L 21.416304 295.284729 
L 19.374841 295.384117 
L 17.333377 297.1148 
L 15.291914 295.786714 
L 13.25045 297.461413 
L 11.208987 297.87852 
L 9.167524 296.45962 
L 7.12606 291.881527 
L 5.084597 294.648892 
L 3.043133 293.145911 
L 1.00167 285.935277 
L -1.039793 291.864348 
L -3.081257 292.884096 
L -5.12272 286.241229 
L -7.164184 284.18493 
L -9.205647 287.510841 
L -11.247111 279.855345 
L -13.288574 267.227065 
L -15.330037 280.751236 
L -17.371501 286.053989 
L -19.412964 288.52404 
L -21.454428 271.240415 
L -23.495891 271.417196 
L -25.537354 262.733472 
L -27.578818 256.222007 
L -29.620281 269.072325 
L -31.661745 263.100276 
L -33.703208 251.442826 
L -35.744672 243.152296 
L -37.786135 243.290047 
L -39.827598 244.442417 
L -41.869062 242.359371 
L -43.910525 241.341824 
L -45.951989 245.649887 
L -47.993452 244.913045 
L -50.034915 241.75655 
L -52.076379 243.464313 
L -54.117842 242.081418 
L -56.159306 241.391814 
L -58.200769 241.614765 
L -60.242232 243.236391 
L -62.283696 244.262788 
L -64.325159 244.902991 
L -66.366623 246.44426 
L -68.408086 247.163017 
L -70.44955 248.365503 
L -72.491013 250.209238 
L -74.532476 251.811614 
L -76.57394 252.780759 
L -78.615403 254.050784 
L -80.656867 255.435217 
L -82.69833 256.37826 
L -84.739793 257.788953 
L -86.781257 259.475919 
L -88.82272 260.374893 
L -90.864184 261.014946 
L -92.905647 262.026572 
L -94.947111 263.011267 
L -96.988574 263.903802 
L -99.030037 264.736183 
L -101.071501 265.517533 
L -103.112964 266.641129 
L -105.154428 267.107584 
L -107.195891 267.839105 
L -109.237354 268.604915 
L -111.278818 269.293966 
L -113.320281 269.949554 
L -115.361745 270.479859 
L -117.403208 271.083522 
L -119.444672 271.956458 
L -121.486135 272.513088 
L -123.527598 273.230619 
L -125.569062 273.889629 
L -127.610525 274.575535 
L -129.651989 275.278274 
L -131.693452 276.020109 
L -133.734915 276.637819 
L -135.776379 277.37179 
L -137.817842 278.013051 
L -139.859306 278.691423 
L -141.900769 279.309705 
L -143.942232 279.927946 
L -145.983696 280.519802 
L -148.025159 281.133222 
L -150.066623 281.791879 
L -152.108086 282.276137 
L -154.14955 282.892089 
L -156.191013 283.41962 
L -158.232476 283.953974 
L -160.27394 284.45638 
L -162.315403 285.020858 
L -164.356867 285.557504 
L -166.39833 286.067058 
L -168.439793 286.580242 
L -170.481257 287.078674 
L -172.52272 287.598998 
L -174.564184 288.165606 
L -176.605647 288.590476 
L -178.647111 289.106545 
L -180.688574 289.626284 
L -182.730037 290.147024 
L -184.771501 290.651247 
L -186.812964 291.121167 
L -188.854428 291.639623 
L -190.895891 292.145365 
L -192.937354 292.650124 
L -194.978818 293.148305 
L -197.020281 293.655041 
L -199.061745 294.173526 
L -201.103208 294.654236 
L -203.144672 295.116379 
L -205.186135 295.594819 
L -207.227598 296.061672 
L -209.269062 296.532699 
L -211.310525 297.001506 
L -213.351989 297.46871 
L -215.393452 297.928571 
L -217.434915 298.38729 
L -219.476379 298.829607 
L -221.517842 299.301436 
L -223.559306 299.755868 
L -225.600769 300.177856 
L -227.642232 300.623484 
L -229.683696 301.06221 
L -231.725159 301.516125 
L -233.766623 301.975664 
L -235.808086 302.426337 
L -237.84955 302.88416 
L -239.891013 303.346079 
L -241.932476 303.823181 
L -243.97394 304.287135 
L -246.015403 304.805722 
L -248.056867 305.246214 
L -250.09833 305.73881 
L -252.139793 306.207691 
L -254.181257 306.670109 
L -256.22272 307.116117 
L -258.264184 307.571996 
L -260.305647 308.035059 
L -262.347111 308.505324 
L -264.388574 308.961906 
L -266.430037 309.399947 
L -268.471501 309.842192 
L -270.512964 310.290596 
L -272.554428 310.724381 
L -274.595891 311.168008 
L -276.637354 311.604707 
L -278.678818 312.017991 
L -280.720281 312.426917 
L -282.761745 312.828448 
L -284.803208 313.203606 
L -286.844672 313.566014 
L -288.886135 313.938698 
L -290.927598 314.274242 
L -292.969062 314.582116 
L -295.010525 314.904982 
L -297.051989 315.21097 
L -299.093452 315.470837 
L -301.134915 315.742411 
L -303.176379 315.985364 
L -305.217842 316.235682 
L -307.259306 316.458195 
L -309.300769 316.674352 
L -311.342232 316.871838 
L -313.383696 317.057591 
L -315.425159 317.223203 
L -317.466623 317.374904 
L -319.508086 317.530702 
L -321.54955 317.672953 
L -323.591013 317.796742 
L -325.632476 317.939476 
L -327.67394 318.061967 
L -329.715403 318.179802 
L -331.756867 318.295251 
L -333.79833 318.408917 
L -335.839793 318.493847 
L -337.881257 318.610472 
L -339.92272 318.720858 
L -341.964184 318.812753 
L -344.005647 318.905843 
L -346.047111 318.996757 
L -348.088574 319.093942 
L -350.130037 319.178551 
L -352.171501 319.263178 
L -354.212964 319.351093 
L -356.254428 319.428535 
L -358.295891 319.507894 
L -360.337354 319.58537 
L -362.378818 319.666181 
L -364.420281 319.74154 
L -366.461745 319.798732 
L -368.503208 319.87641 
L -370.544672 319.937019 
L -372.586135 319.997026 
L -374.627598 320.049195 
L -376.669062 320.102933 
L -378.710525 320.154837 
L -380.751989 320.229848 
L -382.793452 320.297467 
L -384.834915 320.351674 
L -386.876379 320.403281 
L -388.917842 320.462294 
L -390.959306 320.525811 
L -393.000769 320.595382 
z
" clip-path="url(#p155f0b18bd)" style="fill: #008000; fill-opacity: 0.3; stroke: #008000; stroke-opacity: 0.3"/>
   </g>
   <g id="matplotlib.axis_1">
    <g id="xtick_1">
     <g id="line2d_1">
      <defs>
       <path id="m4a447af2e8" d="M 0 0 
L 0 3.5 
" style="stroke: #000000; stroke-width: 0.8"/>
      </defs>
      <g>
       <use xlink:href="#m4a447af2e8" x="103.074841" y="395.28" style="stroke: #000000; stroke-width: 0.8"/>
      </g>
     </g>
     <g id="text_1">
      <!-- 2022-03-01 -->
      <g transform="translate(17.945813 495.213718) rotate(-45) scale(0.2 -0.2)">
       <defs>
        <path id="DejaVuSans-32" d="M 1228 531 
L 3431 531 
L 3431 0 
L 469 0 
L 469 531 
Q 828 903 1448 1529 
Q 2069 2156 2228 2338 
Q 2531 2678 2651 2914 
Q 2772 3150 2772 3378 
Q 2772 3750 2511 3984 
Q 2250 4219 1831 4219 
Q 1534 4219 1204 4116 
Q 875 4013 500 3803 
L 500 4441 
Q 881 4594 1212 4672 
Q 1544 4750 1819 4750 
Q 2544 4750 2975 4387 
Q 3406 4025 3406 3419 
Q 3406 3131 3298 2873 
Q 3191 2616 2906 2266 
Q 2828 2175 2409 1742 
Q 1991 1309 1228 531 
z
" transform="scale(0.015625)"/>
        <path id="DejaVuSans-30" d="M 2034 4250 
Q 1547 4250 1301 3770 
Q 1056 3291 1056 2328 
Q 1056 1369 1301 889 
Q 1547 409 2034 409 
Q 2525 409 2770 889 
Q 3016 1369 3016 2328 
Q 3016 3291 2770 3770 
Q 2525 4250 2034 4250 
z
M 2034 4750 
Q 2819 4750 3233 4129 
Q 3647 3509 3647 2328 
Q 3647 1150 3233 529 
Q 2819 -91 2034 -91 
Q 1250 -91 836 529 
Q 422 1150 422 2328 
Q 422 3509 836 4129 
Q 1250 4750 2034 4750 
z
" transform="scale(0.015625)"/>
        <path id="DejaVuSans-2d" d="M 313 2009 
L 1997 2009 
L 1997 1497 
L 313 1497 
L 313 2009 
z
" transform="scale(0.015625)"/>
        <path id="DejaVuSans-33" d="M 2597 2516 
Q 3050 2419 3304 2112 
Q 3559 1806 3559 1356 
Q 3559 666 3084 287 
Q 2609 -91 1734 -91 
Q 1441 -91 1130 -33 
Q 819 25 488 141 
L 488 750 
Q 750 597 1062 519 
Q 1375 441 1716 441 
Q 2309 441 2620 675 
Q 2931 909 2931 1356 
Q 2931 1769 2642 2001 
Q 2353 2234 1838 2234 
L 1294 2234 
L 1294 2753 
L 1863 2753 
Q 2328 2753 2575 2939 
Q 2822 3125 2822 3475 
Q 2822 3834 2567 4026 
Q 2313 4219 1838 4219 
Q 1578 4219 1281 4162 
Q 984 4106 628 3988 
L 628 4550 
Q 988 4650 1302 4700 
Q 1616 4750 1894 4750 
Q 2613 4750 3031 4423 
Q 3450 4097 3450 3541 
Q 3450 3153 3228 2886 
Q 3006 2619 2597 2516 
z
" transform="scale(0.015625)"/>
        <path id="DejaVuSans-31" d="M 794 531 
L 1825 531 
L 1825 4091 
L 703 3866 
L 703 4441 
L 1819 4666 
L 2450 4666 
L 2450 531 
L 3481 531 
L 3481 0 
L 794 0 
L 794 531 
z
" transform="scale(0.015625)"/>
       </defs>
       <use xlink:href="#DejaVuSans-32"/>
       <use xlink:href="#DejaVuSans-30" x="63.623047"/>
       <use xlink:href="#DejaVuSans-32" x="127.246094"/>
       <use xlink:href="#DejaVuSans-32" x="190.869141"/>
       <use xlink:href="#DejaVuSans-2d" x="254.492188"/>
       <use xlink:href="#DejaVuSans-30" x="290.576172"/>
       <use xlink:href="#DejaVuSans-33" x="354.199219"/>
       <use xlink:href="#DejaVuSans-2d" x="417.822266"/>
       <use xlink:href="#DejaVuSans-30" x="453.90625"/>
       <use xlink:href="#DejaVuSans-31" x="517.529297"/>
      </g>
     </g>
    </g>
    <g id="xtick_2">
     <g id="line2d_2">
      <g>
       <use xlink:href="#m4a447af2e8" x="160.235816" y="395.28" style="stroke: #000000; stroke-width: 0.8"/>
      </g>
     </g>
     <g id="text_2">
      <!-- 2022-03-29 -->
      <g transform="translate(75.106789 495.213718) rotate(-45) scale(0.2 -0.2)">
       <defs>
        <path id="DejaVuSans-39" d="M 703 97 
L 703 672 
Q 941 559 1184 500 
Q 1428 441 1663 441 
Q 2288 441 2617 861 
Q 2947 1281 2994 2138 
Q 2813 1869 2534 1725 
Q 2256 1581 1919 1581 
Q 1219 1581 811 2004 
Q 403 2428 403 3163 
Q 403 3881 828 4315 
Q 1253 4750 1959 4750 
Q 2769 4750 3195 4129 
Q 3622 3509 3622 2328 
Q 3622 1225 3098 567 
Q 2575 -91 1691 -91 
Q 1453 -91 1209 -44 
Q 966 3 703 97 
z
M 1959 2075 
Q 2384 2075 2632 2365 
Q 2881 2656 2881 3163 
Q 2881 3666 2632 3958 
Q 2384 4250 1959 4250 
Q 1534 4250 1286 3958 
Q 1038 3666 1038 3163 
Q 1038 2656 1286 2365 
Q 1534 2075 1959 2075 
z
" transform="scale(0.015625)"/>
       </defs>
       <use xlink:href="#DejaVuSans-32"/>
       <use xlink:href="#DejaVuSans-30" x="63.623047"/>
       <use xlink:href="#DejaVuSans-32" x="127.246094"/>
       <use xlink:href="#DejaVuSans-32" x="190.869141"/>
       <use xlink:href="#DejaVuSans-2d" x="254.492188"/>
       <use xlink:href="#DejaVuSans-30" x="290.576172"/>
       <use xlink:href="#DejaVuSans-33" x="354.199219"/>
       <use xlink:href="#DejaVuSans-2d" x="417.822266"/>
       <use xlink:href="#DejaVuSans-32" x="453.90625"/>
       <use xlink:href="#DejaVuSans-39" x="517.529297"/>
      </g>
     </g>
    </g>
    <g id="xtick_3">
     <g id="line2d_3">
      <g>
       <use xlink:href="#m4a447af2e8" x="217.396792" y="395.28" style="stroke: #000000; stroke-width: 0.8"/>
      </g>
     </g>
     <g id="text_3">
      <!-- 2022-04-26 -->
      <g transform="translate(132.267765 495.213718) rotate(-45) scale(0.2 -0.2)">
       <defs>
        <path id="DejaVuSans-34" d="M 2419 4116 
L 825 1625 
L 2419 1625 
L 2419 4116 
z
M 2253 4666 
L 3047 4666 
L 3047 1625 
L 3713 1625 
L 3713 1100 
L 3047 1100 
L 3047 0 
L 2419 0 
L 2419 1100 
L 313 1100 
L 313 1709 
L 2253 4666 
z
" transform="scale(0.015625)"/>
        <path id="DejaVuSans-36" d="M 2113 2584 
Q 1688 2584 1439 2293 
Q 1191 2003 1191 1497 
Q 1191 994 1439 701 
Q 1688 409 2113 409 
Q 2538 409 2786 701 
Q 3034 994 3034 1497 
Q 3034 2003 2786 2293 
Q 2538 2584 2113 2584 
z
M 3366 4563 
L 3366 3988 
Q 3128 4100 2886 4159 
Q 2644 4219 2406 4219 
Q 1781 4219 1451 3797 
Q 1122 3375 1075 2522 
Q 1259 2794 1537 2939 
Q 1816 3084 2150 3084 
Q 2853 3084 3261 2657 
Q 3669 2231 3669 1497 
Q 3669 778 3244 343 
Q 2819 -91 2113 -91 
Q 1303 -91 875 529 
Q 447 1150 447 2328 
Q 447 3434 972 4092 
Q 1497 4750 2381 4750 
Q 2619 4750 2861 4703 
Q 3103 4656 3366 4563 
z
" transform="scale(0.015625)"/>
       </defs>
       <use xlink:href="#DejaVuSans-32"/>
       <use xlink:href="#DejaVuSans-30" x="63.623047"/>
       <use xlink:href="#DejaVuSans-32" x="127.246094"/>
       <use xlink:href="#DejaVuSans-32" x="190.869141"/>
       <use xlink:href="#DejaVuSans-2d" x="254.492188"/>
       <use xlink:href="#DejaVuSans-30" x="290.576172"/>
       <use xlink:href="#DejaVuSans-34" x="354.199219"/>
       <use xlink:href="#DejaVuSans-2d" x="417.822266"/>
       <use xlink:href="#DejaVuSans-32" x="453.90625"/>
       <use xlink:href="#DejaVuSans-36" x="517.529297"/>
      </g>
     </g>
    </g>
    <g id="xtick_4">
     <g id="line2d_4">
      <g>
       <use xlink:href="#m4a447af2e8" x="274.557768" y="395.28" style="stroke: #000000; stroke-width: 0.8"/>
      </g>
     </g>
     <g id="text_4">
      <!-- 2022-05-24 -->
      <g transform="translate(189.42874 495.213718) rotate(-45) scale(0.2 -0.2)">
       <defs>
        <path id="DejaVuSans-35" d="M 691 4666 
L 3169 4666 
L 3169 4134 
L 1269 4134 
L 1269 2991 
Q 1406 3038 1543 3061 
Q 1681 3084 1819 3084 
Q 2600 3084 3056 2656 
Q 3513 2228 3513 1497 
Q 3513 744 3044 326 
Q 2575 -91 1722 -91 
Q 1428 -91 1123 -41 
Q 819 9 494 109 
L 494 744 
Q 775 591 1075 516 
Q 1375 441 1709 441 
Q 2250 441 2565 725 
Q 2881 1009 2881 1497 
Q 2881 1984 2565 2268 
Q 2250 2553 1709 2553 
Q 1456 2553 1204 2497 
Q 953 2441 691 2322 
L 691 4666 
z
" transform="scale(0.015625)"/>
       </defs>
       <use xlink:href="#DejaVuSans-32"/>
       <use xlink:href="#DejaVuSans-30" x="63.623047"/>
       <use xlink:href="#DejaVuSans-32" x="127.246094"/>
       <use xlink:href="#DejaVuSans-32" x="190.869141"/>
       <use xlink:href="#DejaVuSans-2d" x="254.492188"/>
       <use xlink:href="#DejaVuSans-30" x="290.576172"/>
       <use xlink:href="#DejaVuSans-35" x="354.199219"/>
       <use xlink:href="#DejaVuSans-2d" x="417.822266"/>
       <use xlink:href="#DejaVuSans-32" x="453.90625"/>
       <use xlink:href="#DejaVuSans-34" x="517.529297"/>
      </g>
     </g>
    </g>
    <g id="xtick_5">
     <g id="line2d_5">
      <g>
       <use xlink:href="#m4a447af2e8" x="331.718743" y="395.28" style="stroke: #000000; stroke-width: 0.8"/>
      </g>
     </g>
     <g id="text_5">
      <!-- 2022-06-21 -->
      <g transform="translate(246.589716 495.213718) rotate(-45) scale(0.2 -0.2)">
       <use xlink:href="#DejaVuSans-32"/>
       <use xlink:href="#DejaVuSans-30" x="63.623047"/>
       <use xlink:href="#DejaVuSans-32" x="127.246094"/>
       <use xlink:href="#DejaVuSans-32" x="190.869141"/>
       <use xlink:href="#DejaVuSans-2d" x="254.492188"/>
       <use xlink:href="#DejaVuSans-30" x="290.576172"/>
       <use xlink:href="#DejaVuSans-36" x="354.199219"/>
       <use xlink:href="#DejaVuSans-2d" x="417.822266"/>
       <use xlink:href="#DejaVuSans-32" x="453.90625"/>
       <use xlink:href="#DejaVuSans-31" x="517.529297"/>
      </g>
     </g>
    </g>
    <g id="xtick_6">
     <g id="line2d_6">
      <g>
       <use xlink:href="#m4a447af2e8" x="388.879719" y="395.28" style="stroke: #000000; stroke-width: 0.8"/>
      </g>
     </g>
     <g id="text_6">
      <!-- 2022-07-19 -->
      <g transform="translate(303.750691 495.213718) rotate(-45) scale(0.2 -0.2)">
       <defs>
        <path id="DejaVuSans-37" d="M 525 4666 
L 3525 4666 
L 3525 4397 
L 1831 0 
L 1172 0 
L 2766 4134 
L 525 4134 
L 525 4666 
z
" transform="scale(0.015625)"/>
       </defs>
       <use xlink:href="#DejaVuSans-32"/>
       <use xlink:href="#DejaVuSans-30" x="63.623047"/>
       <use xlink:href="#DejaVuSans-32" x="127.246094"/>
       <use xlink:href="#DejaVuSans-32" x="190.869141"/>
       <use xlink:href="#DejaVuSans-2d" x="254.492188"/>
       <use xlink:href="#DejaVuSans-30" x="290.576172"/>
       <use xlink:href="#DejaVuSans-37" x="354.199219"/>
       <use xlink:href="#DejaVuSans-2d" x="417.822266"/>
       <use xlink:href="#DejaVuSans-31" x="453.90625"/>
       <use xlink:href="#DejaVuSans-39" x="517.529297"/>
      </g>
     </g>
    </g>
    <g id="xtick_7">
     <g id="line2d_7">
      <g>
       <use xlink:href="#m4a447af2e8" x="446.040694" y="395.28" style="stroke: #000000; stroke-width: 0.8"/>
      </g>
     </g>
     <g id="text_7">
      <!-- 2022-08-16 -->
      <g transform="translate(360.911667 495.213718) rotate(-45) scale(0.2 -0.2)">
       <defs>
        <path id="DejaVuSans-38" d="M 2034 2216 
Q 1584 2216 1326 1975 
Q 1069 1734 1069 1313 
Q 1069 891 1326 650 
Q 1584 409 2034 409 
Q 2484 409 2743 651 
Q 3003 894 3003 1313 
Q 3003 1734 2745 1975 
Q 2488 2216 2034 2216 
z
M 1403 2484 
Q 997 2584 770 2862 
Q 544 3141 544 3541 
Q 544 4100 942 4425 
Q 1341 4750 2034 4750 
Q 2731 4750 3128 4425 
Q 3525 4100 3525 3541 
Q 3525 3141 3298 2862 
Q 3072 2584 2669 2484 
Q 3125 2378 3379 2068 
Q 3634 1759 3634 1313 
Q 3634 634 3220 271 
Q 2806 -91 2034 -91 
Q 1263 -91 848 271 
Q 434 634 434 1313 
Q 434 1759 690 2068 
Q 947 2378 1403 2484 
z
M 1172 3481 
Q 1172 3119 1398 2916 
Q 1625 2713 2034 2713 
Q 2441 2713 2670 2916 
Q 2900 3119 2900 3481 
Q 2900 3844 2670 4047 
Q 2441 4250 2034 4250 
Q 1625 4250 1398 4047 
Q 1172 3844 1172 3481 
z
" transform="scale(0.015625)"/>
       </defs>
       <use xlink:href="#DejaVuSans-32"/>
       <use xlink:href="#DejaVuSans-30" x="63.623047"/>
       <use xlink:href="#DejaVuSans-32" x="127.246094"/>
       <use xlink:href="#DejaVuSans-32" x="190.869141"/>
       <use xlink:href="#DejaVuSans-2d" x="254.492188"/>
       <use xlink:href="#DejaVuSans-30" x="290.576172"/>
       <use xlink:href="#DejaVuSans-38" x="354.199219"/>
       <use xlink:href="#DejaVuSans-2d" x="417.822266"/>
       <use xlink:href="#DejaVuSans-31" x="453.90625"/>
       <use xlink:href="#DejaVuSans-36" x="517.529297"/>
      </g>
     </g>
    </g>
    <g id="xtick_8">
     <g id="line2d_8">
      <g>
       <use xlink:href="#m4a447af2e8" x="503.20167" y="395.28" style="stroke: #000000; stroke-width: 0.8"/>
      </g>
     </g>
     <g id="text_8">
      <!-- 2022-09-13 -->
      <g transform="translate(418.072643 495.213718) rotate(-45) scale(0.2 -0.2)">
       <use xlink:href="#DejaVuSans-32"/>
       <use xlink:href="#DejaVuSans-30" x="63.623047"/>
       <use xlink:href="#DejaVuSans-32" x="127.246094"/>
       <use xlink:href="#DejaVuSans-32" x="190.869141"/>
       <use xlink:href="#DejaVuSans-2d" x="254.492188"/>
       <use xlink:href="#DejaVuSans-30" x="290.576172"/>
       <use xlink:href="#DejaVuSans-39" x="354.199219"/>
       <use xlink:href="#DejaVuSans-2d" x="417.822266"/>
       <use xlink:href="#DejaVuSans-31" x="453.90625"/>
       <use xlink:href="#DejaVuSans-33" x="517.529297"/>
      </g>
     </g>
    </g>
    <g id="xtick_9">
     <g id="line2d_9">
      <g>
       <use xlink:href="#m4a447af2e8" x="560.362646" y="395.28" style="stroke: #000000; stroke-width: 0.8"/>
      </g>
     </g>
     <g id="text_9">
      <!-- 2022-10-11 -->
      <g transform="translate(475.233618 495.213718) rotate(-45) scale(0.2 -0.2)">
       <use xlink:href="#DejaVuSans-32"/>
       <use xlink:href="#DejaVuSans-30" x="63.623047"/>
       <use xlink:href="#DejaVuSans-32" x="127.246094"/>
       <use xlink:href="#DejaVuSans-32" x="190.869141"/>
       <use xlink:href="#DejaVuSans-2d" x="254.492188"/>
       <use xlink:href="#DejaVuSans-31" x="290.576172"/>
       <use xlink:href="#DejaVuSans-30" x="354.199219"/>
       <use xlink:href="#DejaVuSans-2d" x="417.822266"/>
       <use xlink:href="#DejaVuSans-31" x="453.90625"/>
       <use xlink:href="#DejaVuSans-31" x="517.529297"/>
      </g>
     </g>
    </g>
    <g id="xtick_10">
     <g id="line2d_10">
      <g>
       <use xlink:href="#m4a447af2e8" x="617.523621" y="395.28" style="stroke: #000000; stroke-width: 0.8"/>
      </g>
     </g>
     <g id="text_10">
      <!-- 2022-11-08 -->
      <g transform="translate(532.394594 495.213718) rotate(-45) scale(0.2 -0.2)">
       <use xlink:href="#DejaVuSans-32"/>
       <use xlink:href="#DejaVuSans-30" x="63.623047"/>
       <use xlink:href="#DejaVuSans-32" x="127.246094"/>
       <use xlink:href="#DejaVuSans-32" x="190.869141"/>
       <use xlink:href="#DejaVuSans-2d" x="254.492188"/>
       <use xlink:href="#DejaVuSans-31" x="290.576172"/>
       <use xlink:href="#DejaVuSans-31" x="354.199219"/>
       <use xlink:href="#DejaVuSans-2d" x="417.822266"/>
       <use xlink:href="#DejaVuSans-30" x="453.90625"/>
       <use xlink:href="#DejaVuSans-38" x="517.529297"/>
      </g>
     </g>
    </g>
    <g id="xtick_11">
     <g id="line2d_11">
      <g>
       <use xlink:href="#m4a447af2e8" x="674.684597" y="395.28" style="stroke: #000000; stroke-width: 0.8"/>
      </g>
     </g>
     <g id="text_11">
      <!-- 2022-12-06 -->
      <g transform="translate(589.555569 495.213718) rotate(-45) scale(0.2 -0.2)">
       <use xlink:href="#DejaVuSans-32"/>
       <use xlink:href="#DejaVuSans-30" x="63.623047"/>
       <use xlink:href="#DejaVuSans-32" x="127.246094"/>
       <use xlink:href="#DejaVuSans-32" x="190.869141"/>
       <use xlink:href="#DejaVuSans-2d" x="254.492188"/>
       <use xlink:href="#DejaVuSans-31" x="290.576172"/>
       <use xlink:href="#DejaVuSans-32" x="354.199219"/>
       <use xlink:href="#DejaVuSans-2d" x="417.822266"/>
       <use xlink:href="#DejaVuSans-30" x="453.90625"/>
       <use xlink:href="#DejaVuSans-36" x="517.529297"/>
      </g>
     </g>
    </g>
    <g id="xtick_12">
     <g id="line2d_12">
      <g>
       <use xlink:href="#m4a447af2e8" x="731.845572" y="395.28" style="stroke: #000000; stroke-width: 0.8"/>
      </g>
     </g>
     <g id="text_12">
      <!-- 2023-01-03 -->
      <g transform="translate(646.716545 495.213718) rotate(-45) scale(0.2 -0.2)">
       <use xlink:href="#DejaVuSans-32"/>
       <use xlink:href="#DejaVuSans-30" x="63.623047"/>
       <use xlink:href="#DejaVuSans-32" x="127.246094"/>
       <use xlink:href="#DejaVuSans-33" x="190.869141"/>
       <use xlink:href="#DejaVuSans-2d" x="254.492188"/>
       <use xlink:href="#DejaVuSans-30" x="290.576172"/>
       <use xlink:href="#DejaVuSans-31" x="354.199219"/>
       <use xlink:href="#DejaVuSans-2d" x="417.822266"/>
       <use xlink:href="#DejaVuSans-30" x="453.90625"/>
       <use xlink:href="#DejaVuSans-33" x="517.529297"/>
      </g>
     </g>
    </g>
    <g id="xtick_13">
     <g id="line2d_13">
      <g>
       <use xlink:href="#m4a447af2e8" x="789.006548" y="395.28" style="stroke: #000000; stroke-width: 0.8"/>
      </g>
     </g>
     <g id="text_13">
      <!-- 2023-01-31 -->
      <g transform="translate(703.877521 495.213718) rotate(-45) scale(0.2 -0.2)">
       <use xlink:href="#DejaVuSans-32"/>
       <use xlink:href="#DejaVuSans-30" x="63.623047"/>
       <use xlink:href="#DejaVuSans-32" x="127.246094"/>
       <use xlink:href="#DejaVuSans-33" x="190.869141"/>
       <use xlink:href="#DejaVuSans-2d" x="254.492188"/>
       <use xlink:href="#DejaVuSans-30" x="290.576172"/>
       <use xlink:href="#DejaVuSans-31" x="354.199219"/>
       <use xlink:href="#DejaVuSans-2d" x="417.822266"/>
       <use xlink:href="#DejaVuSans-33" x="453.90625"/>
       <use xlink:href="#DejaVuSans-31" x="517.529297"/>
      </g>
     </g>
    </g>
    <g id="xtick_14">
     <g id="line2d_14">
      <g>
       <use xlink:href="#m4a447af2e8" x="846.167524" y="395.28" style="stroke: #000000; stroke-width: 0.8"/>
      </g>
     </g>
     <g id="text_14">
      <!-- 2023-02-28 -->
      <g transform="translate(761.038496 495.213718) rotate(-45) scale(0.2 -0.2)">
       <use xlink:href="#DejaVuSans-32"/>
       <use xlink:href="#DejaVuSans-30" x="63.623047"/>
       <use xlink:href="#DejaVuSans-32" x="127.246094"/>
       <use xlink:href="#DejaVuSans-33" x="190.869141"/>
       <use xlink:href="#DejaVuSans-2d" x="254.492188"/>
       <use xlink:href="#DejaVuSans-30" x="290.576172"/>
       <use xlink:href="#DejaVuSans-32" x="354.199219"/>
       <use xlink:href="#DejaVuSans-2d" x="417.822266"/>
       <use xlink:href="#DejaVuSans-32" x="453.90625"/>
       <use xlink:href="#DejaVuSans-38" x="517.529297"/>
      </g>
     </g>
    </g>
    <g id="xtick_15">
     <g id="line2d_15">
      <g>
       <use xlink:href="#m4a447af2e8" x="903.328499" y="395.28" style="stroke: #000000; stroke-width: 0.8"/>
      </g>
     </g>
     <g id="text_15">
      <!-- 2023-03-28 -->
      <g transform="translate(818.199472 495.213718) rotate(-45) scale(0.2 -0.2)">
       <use xlink:href="#DejaVuSans-32"/>
       <use xlink:href="#DejaVuSans-30" x="63.623047"/>
       <use xlink:href="#DejaVuSans-32" x="127.246094"/>
       <use xlink:href="#DejaVuSans-33" x="190.869141"/>
       <use xlink:href="#DejaVuSans-2d" x="254.492188"/>
       <use xlink:href="#DejaVuSans-30" x="290.576172"/>
       <use xlink:href="#DejaVuSans-33" x="354.199219"/>
       <use xlink:href="#DejaVuSans-2d" x="417.822266"/>
       <use xlink:href="#DejaVuSans-32" x="453.90625"/>
       <use xlink:href="#DejaVuSans-38" x="517.529297"/>
      </g>
     </g>
    </g>
    <g id="xtick_16">
     <g id="line2d_16">
      <g>
       <use xlink:href="#m4a447af2e8" x="940.074841" y="395.28" style="stroke: #000000; stroke-width: 0.8"/>
      </g>
     </g>
     <g id="text_16">
      <!-- 2023-04-15 -->
      <g transform="translate(854.945813 495.213718) rotate(-45) scale(0.2 -0.2)">
       <use xlink:href="#DejaVuSans-32"/>
       <use xlink:href="#DejaVuSans-30" x="63.623047"/>
       <use xlink:href="#DejaVuSans-32" x="127.246094"/>
       <use xlink:href="#DejaVuSans-33" x="190.869141"/>
       <use xlink:href="#DejaVuSans-2d" x="254.492188"/>
       <use xlink:href="#DejaVuSans-30" x="290.576172"/>
       <use xlink:href="#DejaVuSans-34" x="354.199219"/>
       <use xlink:href="#DejaVuSans-2d" x="417.822266"/>
       <use xlink:href="#DejaVuSans-31" x="453.90625"/>
       <use xlink:href="#DejaVuSans-35" x="517.529297"/>
      </g>
     </g>
    </g>
   </g>
   <g id="matplotlib.axis_2">
    <g id="ytick_1">
     <g id="line2d_17">
      <defs>
       <path id="mfcace770bb" d="M 0 0 
L -3.5 0 
" style="stroke: #000000; stroke-width: 0.8"/>
      </defs>
      <g>
       <use xlink:href="#mfcace770bb" x="103.074841" y="388.496736" style="stroke: #000000; stroke-width: 0.8"/>
      </g>
     </g>
     <g id="text_17">
      <!-- 0.05 -->
      <g transform="translate(34.784216 396.095173) scale(0.2 -0.2)">
       <defs>
        <path id="DejaVuSans-2212" d="M 678 2272 
L 4684 2272 
L 4684 1741 
L 678 1741 
L 678 2272 
z
" transform="scale(0.015625)"/>
        <path id="DejaVuSans-2e" d="M 684 794 
L 1344 794 
L 1344 0 
L 684 0 
L 684 794 
z
" transform="scale(0.015625)"/>
       </defs>
       <use xlink:href="#DejaVuSans-2212"/>
       <use xlink:href="#DejaVuSans-30" x="83.789062"/>
       <use xlink:href="#DejaVuSans-2e" x="147.412109"/>
       <use xlink:href="#DejaVuSans-30" x="179.199219"/>
       <use xlink:href="#DejaVuSans-35" x="242.822266"/>
      </g>
     </g>
    </g>
    <g id="ytick_2">
     <g id="line2d_18">
      <g>
       <use xlink:href="#mfcace770bb" x="103.074841" y="320.664095" style="stroke: #000000; stroke-width: 0.8"/>
      </g>
     </g>
     <g id="text_18">
      <!-- 0.00 -->
      <g transform="translate(51.543591 328.262532) scale(0.2 -0.2)">
       <use xlink:href="#DejaVuSans-30"/>
       <use xlink:href="#DejaVuSans-2e" x="63.623047"/>
       <use xlink:href="#DejaVuSans-30" x="95.410156"/>
       <use xlink:href="#DejaVuSans-30" x="159.033203"/>
      </g>
     </g>
    </g>
    <g id="ytick_3">
     <g id="line2d_19">
      <g>
       <use xlink:href="#mfcace770bb" x="103.074841" y="252.831454" style="stroke: #000000; stroke-width: 0.8"/>
      </g>
     </g>
     <g id="text_19">
      <!-- 0.05 -->
      <g transform="translate(51.543591 260.429892) scale(0.2 -0.2)">
       <use xlink:href="#DejaVuSans-30"/>
       <use xlink:href="#DejaVuSans-2e" x="63.623047"/>
       <use xlink:href="#DejaVuSans-30" x="95.410156"/>
       <use xlink:href="#DejaVuSans-35" x="159.033203"/>
      </g>
     </g>
    </g>
    <g id="ytick_4">
     <g id="line2d_20">
      <g>
       <use xlink:href="#mfcace770bb" x="103.074841" y="184.998813" style="stroke: #000000; stroke-width: 0.8"/>
      </g>
     </g>
     <g id="text_20">
      <!-- 0.10 -->
      <g transform="translate(51.543591 192.597251) scale(0.2 -0.2)">
       <use xlink:href="#DejaVuSans-30"/>
       <use xlink:href="#DejaVuSans-2e" x="63.623047"/>
       <use xlink:href="#DejaVuSans-31" x="95.410156"/>
       <use xlink:href="#DejaVuSans-30" x="159.033203"/>
      </g>
     </g>
    </g>
    <g id="ytick_5">
     <g id="line2d_21">
      <g>
       <use xlink:href="#mfcace770bb" x="103.074841" y="117.166172" style="stroke: #000000; stroke-width: 0.8"/>
      </g>
     </g>
     <g id="text_21">
      <!-- 0.15 -->
      <g transform="translate(51.543591 124.76461) scale(0.2 -0.2)">
       <use xlink:href="#DejaVuSans-30"/>
       <use xlink:href="#DejaVuSans-2e" x="63.623047"/>
       <use xlink:href="#DejaVuSans-31" x="95.410156"/>
       <use xlink:href="#DejaVuSans-35" x="159.033203"/>
      </g>
     </g>
    </g>
    <g id="ytick_6">
     <g id="line2d_22">
      <g>
       <use xlink:href="#mfcace770bb" x="103.074841" y="49.333531" style="stroke: #000000; stroke-width: 0.8"/>
      </g>
     </g>
     <g id="text_22">
      <!-- 0.20 -->
      <g transform="translate(51.543591 56.931969) scale(0.2 -0.2)">
       <use xlink:href="#DejaVuSans-30"/>
       <use xlink:href="#DejaVuSans-2e" x="63.623047"/>
       <use xlink:href="#DejaVuSans-32" x="95.410156"/>
       <use xlink:href="#DejaVuSans-30" x="159.033203"/>
      </g>
     </g>
    </g>
    <g id="text_23">
     <!-- Relative fitness $\gamma_y$ -->
     <g transform="translate(24.584216 291.84) rotate(-90) scale(0.2 -0.2)">
      <defs>
       <path id="DejaVuSans-52" d="M 2841 2188 
Q 3044 2119 3236 1894 
Q 3428 1669 3622 1275 
L 4263 0 
L 3584 0 
L 2988 1197 
Q 2756 1666 2539 1819 
Q 2322 1972 1947 1972 
L 1259 1972 
L 1259 0 
L 628 0 
L 628 4666 
L 2053 4666 
Q 2853 4666 3247 4331 
Q 3641 3997 3641 3322 
Q 3641 2881 3436 2590 
Q 3231 2300 2841 2188 
z
M 1259 4147 
L 1259 2491 
L 2053 2491 
Q 2509 2491 2742 2702 
Q 2975 2913 2975 3322 
Q 2975 3731 2742 3939 
Q 2509 4147 2053 4147 
L 1259 4147 
z
" transform="scale(0.015625)"/>
       <path id="DejaVuSans-65" d="M 3597 1894 
L 3597 1613 
L 953 1613 
Q 991 1019 1311 708 
Q 1631 397 2203 397 
Q 2534 397 2845 478 
Q 3156 559 3463 722 
L 3463 178 
Q 3153 47 2828 -22 
Q 2503 -91 2169 -91 
Q 1331 -91 842 396 
Q 353 884 353 1716 
Q 353 2575 817 3079 
Q 1281 3584 2069 3584 
Q 2775 3584 3186 3129 
Q 3597 2675 3597 1894 
z
M 3022 2063 
Q 3016 2534 2758 2815 
Q 2500 3097 2075 3097 
Q 1594 3097 1305 2825 
Q 1016 2553 972 2059 
L 3022 2063 
z
" transform="scale(0.015625)"/>
       <path id="DejaVuSans-6c" d="M 603 4863 
L 1178 4863 
L 1178 0 
L 603 0 
L 603 4863 
z
" transform="scale(0.015625)"/>
       <path id="DejaVuSans-61" d="M 2194 1759 
Q 1497 1759 1228 1600 
Q 959 1441 959 1056 
Q 959 750 1161 570 
Q 1363 391 1709 391 
Q 2188 391 2477 730 
Q 2766 1069 2766 1631 
L 2766 1759 
L 2194 1759 
z
M 3341 1997 
L 3341 0 
L 2766 0 
L 2766 531 
Q 2569 213 2275 61 
Q 1981 -91 1556 -91 
Q 1019 -91 701 211 
Q 384 513 384 1019 
Q 384 1609 779 1909 
Q 1175 2209 1959 2209 
L 2766 2209 
L 2766 2266 
Q 2766 2663 2505 2880 
Q 2244 3097 1772 3097 
Q 1472 3097 1187 3025 
Q 903 2953 641 2809 
L 641 3341 
Q 956 3463 1253 3523 
Q 1550 3584 1831 3584 
Q 2591 3584 2966 3190 
Q 3341 2797 3341 1997 
z
" transform="scale(0.015625)"/>
       <path id="DejaVuSans-74" d="M 1172 4494 
L 1172 3500 
L 2356 3500 
L 2356 3053 
L 1172 3053 
L 1172 1153 
Q 1172 725 1289 603 
Q 1406 481 1766 481 
L 2356 481 
L 2356 0 
L 1766 0 
Q 1100 0 847 248 
Q 594 497 594 1153 
L 594 3053 
L 172 3053 
L 172 3500 
L 594 3500 
L 594 4494 
L 1172 4494 
z
" transform="scale(0.015625)"/>
       <path id="DejaVuSans-69" d="M 603 3500 
L 1178 3500 
L 1178 0 
L 603 0 
L 603 3500 
z
M 603 4863 
L 1178 4863 
L 1178 4134 
L 603 4134 
L 603 4863 
z
" transform="scale(0.015625)"/>
       <path id="DejaVuSans-76" d="M 191 3500 
L 800 3500 
L 1894 563 
L 2988 3500 
L 3597 3500 
L 2284 0 
L 1503 0 
L 191 3500 
z
" transform="scale(0.015625)"/>
       <path id="DejaVuSans-20" transform="scale(0.015625)"/>
       <path id="DejaVuSans-66" d="M 2375 4863 
L 2375 4384 
L 1825 4384 
Q 1516 4384 1395 4259 
Q 1275 4134 1275 3809 
L 1275 3500 
L 2222 3500 
L 2222 3053 
L 1275 3053 
L 1275 0 
L 697 0 
L 697 3053 
L 147 3053 
L 147 3500 
L 697 3500 
L 697 3744 
Q 697 4328 969 4595 
Q 1241 4863 1831 4863 
L 2375 4863 
z
" transform="scale(0.015625)"/>
       <path id="DejaVuSans-6e" d="M 3513 2113 
L 3513 0 
L 2938 0 
L 2938 2094 
Q 2938 2591 2744 2837 
Q 2550 3084 2163 3084 
Q 1697 3084 1428 2787 
Q 1159 2491 1159 1978 
L 1159 0 
L 581 0 
L 581 3500 
L 1159 3500 
L 1159 2956 
Q 1366 3272 1645 3428 
Q 1925 3584 2291 3584 
Q 2894 3584 3203 3211 
Q 3513 2838 3513 2113 
z
" transform="scale(0.015625)"/>
       <path id="DejaVuSans-73" d="M 2834 3397 
L 2834 2853 
Q 2591 2978 2328 3040 
Q 2066 3103 1784 3103 
Q 1356 3103 1142 2972 
Q 928 2841 928 2578 
Q 928 2378 1081 2264 
Q 1234 2150 1697 2047 
L 1894 2003 
Q 2506 1872 2764 1633 
Q 3022 1394 3022 966 
Q 3022 478 2636 193 
Q 2250 -91 1575 -91 
Q 1294 -91 989 -36 
Q 684 19 347 128 
L 347 722 
Q 666 556 975 473 
Q 1284 391 1588 391 
Q 1994 391 2212 530 
Q 2431 669 2431 922 
Q 2431 1156 2273 1281 
Q 2116 1406 1581 1522 
L 1381 1569 
Q 847 1681 609 1914 
Q 372 2147 372 2553 
Q 372 3047 722 3315 
Q 1072 3584 1716 3584 
Q 2034 3584 2315 3537 
Q 2597 3491 2834 3397 
z
" transform="scale(0.015625)"/>
       <path id="DejaVuSans-Oblique-3b3" d="M 1491 2950 
L 1838 788 
L 3456 3500 
L 4066 3500 
L 1972 0 
L 1713 -1331 
L 1138 -1331 
L 1397 0 
L 988 2613 
Q 925 3006 628 3006 
L 475 3006 
L 569 3500 
L 788 3500 
Q 1403 3500 1491 2950 
z
" transform="scale(0.015625)"/>
       <path id="DejaVuSans-Oblique-79" d="M 1588 -325 
Q 1188 -997 936 -1164 
Q 684 -1331 294 -1331 
L -159 -1331 
L -63 -850 
L 269 -850 
Q 509 -850 678 -719 
Q 847 -588 1056 -206 
L 1234 128 
L 459 3500 
L 1069 3500 
L 1650 819 
L 3256 3500 
L 3859 3500 
L 1588 -325 
z
" transform="scale(0.015625)"/>
      </defs>
      <use xlink:href="#DejaVuSans-52" transform="translate(0 0.015625)"/>
      <use xlink:href="#DejaVuSans-65" transform="translate(69.482422 0.015625)"/>
      <use xlink:href="#DejaVuSans-6c" transform="translate(131.005859 0.015625)"/>
      <use xlink:href="#DejaVuSans-61" transform="translate(158.789062 0.015625)"/>
      <use xlink:href="#DejaVuSans-74" transform="translate(220.068359 0.015625)"/>
      <use xlink:href="#DejaVuSans-69" transform="translate(259.277344 0.015625)"/>
      <use xlink:href="#DejaVuSans-76" transform="translate(287.060547 0.015625)"/>
      <use xlink:href="#DejaVuSans-65" transform="translate(346.240234 0.015625)"/>
      <use xlink:href="#DejaVuSans-20" transform="translate(407.763672 0.015625)"/>
      <use xlink:href="#DejaVuSans-66" transform="translate(439.550781 0.015625)"/>
      <use xlink:href="#DejaVuSans-69" transform="translate(474.755859 0.015625)"/>
      <use xlink:href="#DejaVuSans-74" transform="translate(502.539062 0.015625)"/>
      <use xlink:href="#DejaVuSans-6e" transform="translate(541.748047 0.015625)"/>
      <use xlink:href="#DejaVuSans-65" transform="translate(605.126953 0.015625)"/>
      <use xlink:href="#DejaVuSans-73" transform="translate(666.650391 0.015625)"/>
      <use xlink:href="#DejaVuSans-73" transform="translate(718.75 0.015625)"/>
      <use xlink:href="#DejaVuSans-20" transform="translate(770.849609 0.015625)"/>
      <use xlink:href="#DejaVuSans-Oblique-3b3" transform="translate(802.636719 0.015625)"/>
      <use xlink:href="#DejaVuSans-Oblique-79" transform="translate(861.816406 -16.390625) scale(0.7)"/>
     </g>
    </g>
   </g>
   <g id="line2d_23">
    <path d="M 103.074841 320.664095 
L 1041.965466 320.664095 
" clip-path="url(#p155f0b18bd)" style="fill: none; stroke-dasharray: 7.4,3.2; stroke-dashoffset: 0; stroke: #000000; stroke-width: 2"/>
   </g>
   <g id="patch_3">
    <path d="M 103.074841 395.28 
L 103.074841 7.2 
" style="fill: none; stroke: #000000; stroke-width: 0.8; stroke-linejoin: miter; stroke-linecap: square"/>
   </g>
   <g id="patch_4">
    <path d="M 940.074841 395.28 
L 940.074841 7.2 
" style="fill: none; stroke: #000000; stroke-width: 0.8; stroke-linejoin: miter; stroke-linecap: square"/>
   </g>
   <g id="patch_5">
    <path d="M 103.074841 395.28 
L 940.074841 395.28 
" style="fill: none; stroke: #000000; stroke-width: 0.8; stroke-linejoin: miter; stroke-linecap: square"/>
   </g>
   <g id="patch_6">
    <path d="M 103.074841 7.2 
L 940.074841 7.2 
" style="fill: none; stroke: #000000; stroke-width: 0.8; stroke-linejoin: miter; stroke-linecap: square"/>
   </g>
  </g>
  <g id="axes_2">
   <g id="matplotlib.axis_3">
    <g id="ytick_7">
     <g id="line2d_24">
      <defs>
       <path id="me1e0836265" d="M 0 0 
L 3.5 0 
" style="stroke: #000000; stroke-width: 0.8"/>
      </defs>
      <g>
       <use xlink:href="#me1e0836265" x="940.074841" y="388.496736" style="stroke: #000000; stroke-width: 0.8"/>
      </g>
     </g>
     <g id="text_24">
      <!-- 0.05 -->
      <g transform="translate(947.074841 396.095173) scale(0.2 -0.2)">
       <use xlink:href="#DejaVuSans-2212"/>
       <use xlink:href="#DejaVuSans-30" x="83.789062"/>
       <use xlink:href="#DejaVuSans-2e" x="147.412109"/>
       <use xlink:href="#DejaVuSans-30" x="179.199219"/>
       <use xlink:href="#DejaVuSans-35" x="242.822266"/>
      </g>
     </g>
    </g>
    <g id="ytick_8">
     <g id="line2d_25">
      <g>
       <use xlink:href="#me1e0836265" x="940.074841" y="320.664095" style="stroke: #000000; stroke-width: 0.8"/>
      </g>
     </g>
     <g id="text_25">
      <!-- 0.00 -->
      <g transform="translate(947.074841 328.262532) scale(0.2 -0.2)">
       <use xlink:href="#DejaVuSans-30"/>
       <use xlink:href="#DejaVuSans-2e" x="63.623047"/>
       <use xlink:href="#DejaVuSans-30" x="95.410156"/>
       <use xlink:href="#DejaVuSans-30" x="159.033203"/>
      </g>
     </g>
    </g>
    <g id="ytick_9">
     <g id="line2d_26">
      <g>
       <use xlink:href="#me1e0836265" x="940.074841" y="252.831454" style="stroke: #000000; stroke-width: 0.8"/>
      </g>
     </g>
     <g id="text_26">
      <!-- 0.05 -->
      <g transform="translate(947.074841 260.429892) scale(0.2 -0.2)">
       <use xlink:href="#DejaVuSans-30"/>
       <use xlink:href="#DejaVuSans-2e" x="63.623047"/>
       <use xlink:href="#DejaVuSans-30" x="95.410156"/>
       <use xlink:href="#DejaVuSans-35" x="159.033203"/>
      </g>
     </g>
    </g>
    <g id="ytick_10">
     <g id="line2d_27">
      <g>
       <use xlink:href="#me1e0836265" x="940.074841" y="184.998813" style="stroke: #000000; stroke-width: 0.8"/>
      </g>
     </g>
     <g id="text_27">
      <!-- 0.10 -->
      <g transform="translate(947.074841 192.597251) scale(0.2 -0.2)">
       <use xlink:href="#DejaVuSans-30"/>
       <use xlink:href="#DejaVuSans-2e" x="63.623047"/>
       <use xlink:href="#DejaVuSans-31" x="95.410156"/>
       <use xlink:href="#DejaVuSans-30" x="159.033203"/>
      </g>
     </g>
    </g>
    <g id="ytick_11">
     <g id="line2d_28">
      <g>
       <use xlink:href="#me1e0836265" x="940.074841" y="117.166172" style="stroke: #000000; stroke-width: 0.8"/>
      </g>
     </g>
     <g id="text_28">
      <!-- 0.15 -->
      <g transform="translate(947.074841 124.76461) scale(0.2 -0.2)">
       <use xlink:href="#DejaVuSans-30"/>
       <use xlink:href="#DejaVuSans-2e" x="63.623047"/>
       <use xlink:href="#DejaVuSans-31" x="95.410156"/>
       <use xlink:href="#DejaVuSans-35" x="159.033203"/>
      </g>
     </g>
    </g>
    <g id="ytick_12">
     <g id="line2d_29">
      <g>
       <use xlink:href="#me1e0836265" x="940.074841" y="49.333531" style="stroke: #000000; stroke-width: 0.8"/>
      </g>
     </g>
     <g id="text_29">
      <!-- 0.20 -->
      <g transform="translate(947.074841 56.931969) scale(0.2 -0.2)">
       <use xlink:href="#DejaVuSans-30"/>
       <use xlink:href="#DejaVuSans-2e" x="63.623047"/>
       <use xlink:href="#DejaVuSans-32" x="95.410156"/>
       <use xlink:href="#DejaVuSans-30" x="159.033203"/>
      </g>
     </g>
    </g>
    <g id="text_30">
     <!-- Change in proportion $\gamma_{prop}$ -->
     <g transform="translate(1027.565466 332.74) rotate(-90) scale(0.2 -0.2)">
      <defs>
       <path id="DejaVuSans-43" d="M 4122 4306 
L 4122 3641 
Q 3803 3938 3442 4084 
Q 3081 4231 2675 4231 
Q 1875 4231 1450 3742 
Q 1025 3253 1025 2328 
Q 1025 1406 1450 917 
Q 1875 428 2675 428 
Q 3081 428 3442 575 
Q 3803 722 4122 1019 
L 4122 359 
Q 3791 134 3420 21 
Q 3050 -91 2638 -91 
Q 1578 -91 968 557 
Q 359 1206 359 2328 
Q 359 3453 968 4101 
Q 1578 4750 2638 4750 
Q 3056 4750 3426 4639 
Q 3797 4528 4122 4306 
z
" transform="scale(0.015625)"/>
       <path id="DejaVuSans-68" d="M 3513 2113 
L 3513 0 
L 2938 0 
L 2938 2094 
Q 2938 2591 2744 2837 
Q 2550 3084 2163 3084 
Q 1697 3084 1428 2787 
Q 1159 2491 1159 1978 
L 1159 0 
L 581 0 
L 581 4863 
L 1159 4863 
L 1159 2956 
Q 1366 3272 1645 3428 
Q 1925 3584 2291 3584 
Q 2894 3584 3203 3211 
Q 3513 2838 3513 2113 
z
" transform="scale(0.015625)"/>
       <path id="DejaVuSans-67" d="M 2906 1791 
Q 2906 2416 2648 2759 
Q 2391 3103 1925 3103 
Q 1463 3103 1205 2759 
Q 947 2416 947 1791 
Q 947 1169 1205 825 
Q 1463 481 1925 481 
Q 2391 481 2648 825 
Q 2906 1169 2906 1791 
z
M 3481 434 
Q 3481 -459 3084 -895 
Q 2688 -1331 1869 -1331 
Q 1566 -1331 1297 -1286 
Q 1028 -1241 775 -1147 
L 775 -588 
Q 1028 -725 1275 -790 
Q 1522 -856 1778 -856 
Q 2344 -856 2625 -561 
Q 2906 -266 2906 331 
L 2906 616 
Q 2728 306 2450 153 
Q 2172 0 1784 0 
Q 1141 0 747 490 
Q 353 981 353 1791 
Q 353 2603 747 3093 
Q 1141 3584 1784 3584 
Q 2172 3584 2450 3431 
Q 2728 3278 2906 2969 
L 2906 3500 
L 3481 3500 
L 3481 434 
z
" transform="scale(0.015625)"/>
       <path id="DejaVuSans-70" d="M 1159 525 
L 1159 -1331 
L 581 -1331 
L 581 3500 
L 1159 3500 
L 1159 2969 
Q 1341 3281 1617 3432 
Q 1894 3584 2278 3584 
Q 2916 3584 3314 3078 
Q 3713 2572 3713 1747 
Q 3713 922 3314 415 
Q 2916 -91 2278 -91 
Q 1894 -91 1617 61 
Q 1341 213 1159 525 
z
M 3116 1747 
Q 3116 2381 2855 2742 
Q 2594 3103 2138 3103 
Q 1681 3103 1420 2742 
Q 1159 2381 1159 1747 
Q 1159 1113 1420 752 
Q 1681 391 2138 391 
Q 2594 391 2855 752 
Q 3116 1113 3116 1747 
z
" transform="scale(0.015625)"/>
       <path id="DejaVuSans-72" d="M 2631 2963 
Q 2534 3019 2420 3045 
Q 2306 3072 2169 3072 
Q 1681 3072 1420 2755 
Q 1159 2438 1159 1844 
L 1159 0 
L 581 0 
L 581 3500 
L 1159 3500 
L 1159 2956 
Q 1341 3275 1631 3429 
Q 1922 3584 2338 3584 
Q 2397 3584 2469 3576 
Q 2541 3569 2628 3553 
L 2631 2963 
z
" transform="scale(0.015625)"/>
       <path id="DejaVuSans-6f" d="M 1959 3097 
Q 1497 3097 1228 2736 
Q 959 2375 959 1747 
Q 959 1119 1226 758 
Q 1494 397 1959 397 
Q 2419 397 2687 759 
Q 2956 1122 2956 1747 
Q 2956 2369 2687 2733 
Q 2419 3097 1959 3097 
z
M 1959 3584 
Q 2709 3584 3137 3096 
Q 3566 2609 3566 1747 
Q 3566 888 3137 398 
Q 2709 -91 1959 -91 
Q 1206 -91 779 398 
Q 353 888 353 1747 
Q 353 2609 779 3096 
Q 1206 3584 1959 3584 
z
" transform="scale(0.015625)"/>
       <path id="DejaVuSans-Oblique-70" d="M 3175 2156 
Q 3175 2616 2975 2859 
Q 2775 3103 2400 3103 
Q 2144 3103 1911 2972 
Q 1678 2841 1497 2591 
Q 1319 2344 1212 1994 
Q 1106 1644 1106 1300 
Q 1106 863 1306 627 
Q 1506 391 1875 391 
Q 2147 391 2380 519 
Q 2613 647 2778 891 
Q 2956 1147 3065 1494 
Q 3175 1841 3175 2156 
z
M 1394 2969 
Q 1625 3272 1939 3428 
Q 2253 3584 2638 3584 
Q 3175 3584 3472 3232 
Q 3769 2881 3769 2247 
Q 3769 1728 3584 1258 
Q 3400 788 3053 416 
Q 2822 169 2531 39 
Q 2241 -91 1919 -91 
Q 1547 -91 1294 64 
Q 1041 219 916 525 
L 556 -1331 
L -19 -1331 
L 922 3500 
L 1497 3500 
L 1394 2969 
z
" transform="scale(0.015625)"/>
       <path id="DejaVuSans-Oblique-72" d="M 2853 2969 
Q 2766 3016 2653 3041 
Q 2541 3066 2413 3066 
Q 1953 3066 1609 2717 
Q 1266 2369 1153 1784 
L 800 0 
L 225 0 
L 909 3500 
L 1484 3500 
L 1375 2956 
Q 1603 3259 1920 3421 
Q 2238 3584 2597 3584 
Q 2691 3584 2781 3573 
Q 2872 3563 2963 3538 
L 2853 2969 
z
" transform="scale(0.015625)"/>
       <path id="DejaVuSans-Oblique-6f" d="M 1625 -91 
Q 1009 -91 651 289 
Q 294 669 294 1325 
Q 294 1706 417 2101 
Q 541 2497 738 2766 
Q 1047 3184 1428 3384 
Q 1809 3584 2291 3584 
Q 2888 3584 3255 3212 
Q 3622 2841 3622 2241 
Q 3622 1825 3500 1412 
Q 3378 1000 3181 728 
Q 2875 309 2494 109 
Q 2113 -91 1625 -91 
z
M 891 1344 
Q 891 869 1089 633 
Q 1288 397 1691 397 
Q 2269 397 2648 901 
Q 3028 1406 3028 2181 
Q 3028 2634 2825 2865 
Q 2622 3097 2228 3097 
Q 1903 3097 1650 2945 
Q 1397 2794 1197 2484 
Q 1050 2253 970 1956 
Q 891 1659 891 1344 
z
" transform="scale(0.015625)"/>
      </defs>
      <use xlink:href="#DejaVuSans-43" transform="translate(0 0.015625)"/>
      <use xlink:href="#DejaVuSans-68" transform="translate(69.824219 0.015625)"/>
      <use xlink:href="#DejaVuSans-61" transform="translate(133.203125 0.015625)"/>
      <use xlink:href="#DejaVuSans-6e" transform="translate(194.482422 0.015625)"/>
      <use xlink:href="#DejaVuSans-67" transform="translate(257.861328 0.015625)"/>
      <use xlink:href="#DejaVuSans-65" transform="translate(321.337891 0.015625)"/>
      <use xlink:href="#DejaVuSans-20" transform="translate(382.861328 0.015625)"/>
      <use xlink:href="#DejaVuSans-69" transform="translate(414.648438 0.015625)"/>
      <use xlink:href="#DejaVuSans-6e" transform="translate(442.431641 0.015625)"/>
      <use xlink:href="#DejaVuSans-20" transform="translate(505.810547 0.015625)"/>
      <use xlink:href="#DejaVuSans-70" transform="translate(537.597656 0.015625)"/>
      <use xlink:href="#DejaVuSans-72" transform="translate(601.074219 0.015625)"/>
      <use xlink:href="#DejaVuSans-6f" transform="translate(642.1875 0.015625)"/>
      <use xlink:href="#DejaVuSans-70" transform="translate(703.369141 0.015625)"/>
      <use xlink:href="#DejaVuSans-6f" transform="translate(766.845703 0.015625)"/>
      <use xlink:href="#DejaVuSans-72" transform="translate(828.027344 0.015625)"/>
      <use xlink:href="#DejaVuSans-74" transform="translate(869.140625 0.015625)"/>
      <use xlink:href="#DejaVuSans-69" transform="translate(908.349609 0.015625)"/>
      <use xlink:href="#DejaVuSans-6f" transform="translate(936.132812 0.015625)"/>
      <use xlink:href="#DejaVuSans-6e" transform="translate(997.314453 0.015625)"/>
      <use xlink:href="#DejaVuSans-20" transform="translate(1060.693359 0.015625)"/>
      <use xlink:href="#DejaVuSans-Oblique-3b3" transform="translate(1092.480469 0.015625)"/>
      <use xlink:href="#DejaVuSans-Oblique-70" transform="translate(1151.660156 -16.390625) scale(0.7)"/>
      <use xlink:href="#DejaVuSans-Oblique-72" transform="translate(1196.09375 -16.390625) scale(0.7)"/>
      <use xlink:href="#DejaVuSans-Oblique-6f" transform="translate(1224.873047 -16.390625) scale(0.7)"/>
      <use xlink:href="#DejaVuSans-Oblique-70" transform="translate(1267.700195 -16.390625) scale(0.7)"/>
     </g>
    </g>
   </g>
   <g id="line2d_30">
    <path d="M 0 0 
" clip-path="url(#p155f0b18bd)" style="fill: none; stroke: #ffa500; stroke-width: 1.5; stroke-linecap: square"/>
   </g>
   <g id="patch_7">
    <path d="M 103.074841 395.28 
L 103.074841 7.2 
" style="fill: none; stroke: #000000; stroke-width: 0.8; stroke-linejoin: miter; stroke-linecap: square"/>
   </g>
   <g id="patch_8">
    <path d="M 940.074841 395.28 
L 940.074841 7.2 
" style="fill: none; stroke: #000000; stroke-width: 0.8; stroke-linejoin: miter; stroke-linecap: square"/>
   </g>
   <g id="patch_9">
    <path d="M 103.074841 395.28 
L 940.074841 395.28 
" style="fill: none; stroke: #000000; stroke-width: 0.8; stroke-linejoin: miter; stroke-linecap: square"/>
   </g>
   <g id="patch_10">
    <path d="M 103.074841 7.2 
L 940.074841 7.2 
" style="fill: none; stroke: #000000; stroke-width: 0.8; stroke-linejoin: miter; stroke-linecap: square"/>
   </g>
  </g>
 </g>
 <defs>
  <clipPath id="p155f0b18bd">
   <rect x="103.074841" y="7.2" width="837" height="388.08"/>
  </clipPath>
 </defs>
</svg>
