<?xml version="1.0" encoding="utf-8" standalone="no"?>
<!DOCTYPE svg PUBLIC "-//W3C//DTD SVG 1.1//EN"
  "http://www.w3.org/Graphics/SVG/1.1/DTD/svg11.dtd">
<svg xmlns:xlink="http://www.w3.org/1999/xlink" width="947.274841pt" height="505.354841pt" viewBox="0 0 947.274841 505.354841" xmlns="http://www.w3.org/2000/svg" version="1.1">
 <metadata>
  <rdf:RDF xmlns:dc="http://purl.org/dc/elements/1.1/" xmlns:cc="http://creativecommons.org/ns#" xmlns:rdf="http://www.w3.org/1999/02/22-rdf-syntax-ns#">
   <cc:Work>
    <dc:type rdf:resource="http://purl.org/dc/dcmitype/StillImage"/>
    <dc:date>2023-11-15T19:57:22.390303</dc:date>
    <dc:format>image/svg+xml</dc:format>
    <dc:creator>
     <cc:Agent>
      <dc:title>Matplotlib v3.7.2, https://matplotlib.org/</dc:title>
     </cc:Agent>
    </dc:creator>
   </cc:Work>
  </rdf:RDF>
 </metadata>
 <defs>
  <style type="text/css">*{stroke-linejoin: round; stroke-linecap: butt}</style>
 </defs>
 <g id="figure_1">
  <g id="patch_1">
   <path d="M 0 505.354841 
L 947.274841 505.354841 
L 947.274841 -0 
L 0 -0 
z
" style="fill: #ffffff"/>
  </g>
  <g id="axes_1">
   <g id="patch_2">
    <path d="M 103.074841 395.28 
L 940.074841 395.28 
L 940.074841 7.2 
L 103.074841 7.2 
z
" style="fill: #ffffff"/>
   </g>
   <g id="PolyCollection_1">
    <path d="M -393.000769 196.732965 
L -393.000769 196.751667 
L -390.959306 196.654245 
L -388.917842 196.570243 
L -386.876379 196.46361 
L -384.834915 196.393151 
L -382.793452 196.31305 
L -380.751989 196.222078 
L -378.710525 196.132167 
L -376.669062 196.04798 
L -374.627598 195.974435 
L -372.586135 195.889024 
L -370.544672 195.799557 
L -368.503208 195.712836 
L -366.461745 195.60592 
L -364.420281 195.517789 
L -362.378818 195.413708 
L -360.337354 195.325116 
L -358.295891 195.2047 
L -356.254428 195.106273 
L -354.212964 195.011618 
L -352.171501 194.899215 
L -350.130037 194.789811 
L -348.088574 194.683003 
L -346.047111 194.553619 
L -344.005647 194.440946 
L -341.964184 194.308635 
L -339.92272 194.174789 
L -337.881257 194.026546 
L -335.839793 193.874333 
L -333.79833 193.725753 
L -331.756867 193.553474 
L -329.715403 193.358784 
L -327.67394 193.186403 
L -325.632476 192.989881 
L -323.591013 192.764871 
L -321.54955 192.556257 
L -319.508086 192.310851 
L -317.466623 192.06213 
L -315.425159 191.806062 
L -313.383696 191.535503 
L -311.342232 191.235135 
L -309.300769 190.915228 
L -307.259306 190.576235 
L -305.217842 190.250591 
L -303.176379 189.866614 
L -301.134915 189.50287 
L -299.093452 189.115078 
L -297.051989 188.72646 
L -295.010525 188.307474 
L -292.969062 187.853478 
L -290.927598 187.434864 
L -288.886135 186.967357 
L -286.844672 186.483744 
L -284.803208 186.010769 
L -282.761745 185.543484 
L -280.720281 185.035268 
L -278.678818 184.52184 
L -276.637354 184.009672 
L -274.595891 183.476334 
L -272.554428 182.937241 
L -270.512964 182.399689 
L -268.471501 181.84323 
L -266.430037 181.285672 
L -264.388574 180.737302 
L -262.347111 180.165623 
L -260.305647 179.552639 
L -258.264184 178.959561 
L -256.22272 178.368135 
L -254.181257 177.786443 
L -252.139793 177.179823 
L -250.09833 176.587764 
L -248.056867 175.985093 
L -246.015403 175.443094 
L -243.97394 174.800787 
L -241.932476 174.246513 
L -239.891013 173.636985 
L -237.84955 173.057183 
L -235.808086 172.447556 
L -233.766623 171.911417 
L -231.725159 171.292578 
L -229.683696 170.711899 
L -227.642232 170.164905 
L -225.600769 169.579021 
L -223.559306 169.02604 
L -221.517842 168.446348 
L -219.476379 167.85484 
L -217.434915 167.293103 
L -215.393452 166.746292 
L -213.351989 166.155482 
L -211.310525 165.587926 
L -209.269062 165.008887 
L -207.227598 164.447168 
L -205.186135 163.89886 
L -203.144672 163.334625 
L -201.103208 162.764428 
L -199.061745 162.25225 
L -197.020281 161.669782 
L -194.978818 161.111987 
L -192.937354 160.563195 
L -190.895891 160.013422 
L -188.854428 159.464805 
L -186.812964 158.908612 
L -184.771501 158.378335 
L -182.730037 157.825911 
L -180.688574 157.259237 
L -178.647111 156.685902 
L -176.605647 156.106064 
L -174.564184 155.563463 
L -172.52272 154.965426 
L -170.481257 154.3273 
L -168.439793 153.728343 
L -166.39833 153.096261 
L -164.356867 152.454456 
L -162.315403 151.776504 
L -160.27394 151.086381 
L -158.232476 150.445602 
L -156.191013 149.713783 
L -154.14955 149.018584 
L -152.108086 148.270052 
L -150.066623 147.583437 
L -148.025159 146.775289 
L -145.983696 145.983729 
L -143.942232 145.214553 
L -141.900769 144.431857 
L -139.859306 143.624841 
L -137.817842 142.781329 
L -135.776379 141.991536 
L -133.734915 141.086229 
L -131.693452 140.291219 
L -129.651989 139.359419 
L -127.610525 138.456946 
L -125.569062 137.57616 
L -123.527598 136.731724 
L -121.486135 135.745048 
L -119.444672 134.854872 
L -117.403208 133.720837 
L -115.361745 132.746662 
L -113.320281 131.839814 
L -111.278818 130.81486 
L -109.237354 129.763494 
L -107.195891 128.55152 
L -105.154428 127.416887 
L -103.112964 126.472068 
L -101.071501 124.970794 
L -99.030037 123.767651 
L -96.988574 122.538334 
L -94.947111 121.263473 
L -92.905647 119.811072 
L -90.864184 118.446562 
L -88.82272 117.419644 
L -86.781257 116.108242 
L -84.739793 113.949666 
L -82.69833 112.137172 
L -80.656867 110.801502 
L -78.615403 108.948579 
L -76.57394 107.413956 
L -74.532476 106.07982 
L -72.491013 104.049404 
L -70.44955 101.738668 
L -68.408086 100.162366 
L -66.366623 99.158372 
L -64.325159 97.229359 
L -62.283696 96.374059 
L -60.242232 95.357709 
L -58.200769 93.410532 
L -56.159306 93.592475 
L -54.117842 94.42336 
L -52.076379 96.15245 
L -50.034915 94.253178 
L -47.993452 98.069741 
L -45.951989 98.924039 
L -43.910525 93.812419 
L -41.869062 95.267754 
L -39.827598 97.53681 
L -37.786135 96.197746 
L -35.744672 95.919763 
L -33.703208 105.638681 
L -31.661745 119.444539 
L -29.620281 126.292948 
L -27.578818 111.24796 
L -25.537354 118.922372 
L -23.495891 128.978483 
L -21.454428 128.334307 
L -19.412964 148.829844 
L -17.371501 145.943399 
L -15.330037 139.57329 
L -13.288574 123.907527 
L -11.247111 138.489116 
L -9.205647 147.219365 
L -7.164184 143.449469 
L -5.12272 145.660301 
L -3.081257 153.885728 
L -1.039793 152.675409 
L 1.00167 145.404129 
L 3.043133 154.312851 
L 5.084597 155.988546 
L 7.12606 152.65524 
L 9.167524 158.260156 
L 11.208987 160.229394 
L 13.25045 159.542918 
L 15.291914 157.681067 
L 17.333377 159.432836 
L 19.374841 157.382509 
L 21.416304 157.415916 
L 23.457768 159.075298 
L 25.499231 157.260179 
L 27.540694 158.010015 
L 29.582158 157.93324 
L 31.623621 156.43929 
L 33.665085 156.812967 
L 35.706548 154.716596 
L 37.748011 154.722232 
L 39.789475 155.149029 
L 41.830938 155.064117 
L 43.872402 153.990833 
L 45.913865 153.057193 
L 47.955328 152.746782 
L 49.996792 151.736146 
L 52.038255 151.493645 
L 54.079719 151.232213 
L 56.121182 149.770994 
L 58.162646 150.347261 
L 60.204109 149.375939 
L 62.245572 148.93102 
L 64.287036 148.915345 
L 66.328499 147.990753 
L 68.369963 147.747443 
L 70.411426 148.047794 
L 72.452889 148.562906 
L 74.494353 147.137908 
L 76.535816 146.934073 
L 78.57728 146.505888 
L 80.618743 149.110777 
L 82.660207 149.290433 
L 84.70167 150.41811 
L 86.743133 148.173222 
L 88.784597 146.8423 
L 90.82606 147.470561 
L 92.867524 149.322569 
L 94.908987 149.826923 
L 96.95045 147.138513 
L 98.991914 149.84775 
L 101.033377 149.511431 
L 103.074841 149.401612 
L 105.116304 148.360983 
L 107.157768 149.782552 
L 109.199231 149.480507 
L 111.240694 150.475319 
L 113.282158 150.004659 
L 115.323621 149.731616 
L 117.365085 148.916717 
L 119.406548 148.762187 
L 121.448011 148.674454 
L 123.489475 148.402814 
L 125.530938 148.741464 
L 127.572402 148.582283 
L 129.613865 148.39922 
L 131.655328 147.016427 
L 133.696792 146.10194 
L 135.738255 146.014769 
L 137.779719 144.98413 
L 139.821182 145.27769 
L 141.862646 144.510058 
L 143.904109 143.084484 
L 145.945572 142.005646 
L 147.987036 141.36504 
L 150.028499 139.880409 
L 152.069963 139.252983 
L 154.111426 138.037794 
L 156.152889 137.054154 
L 158.194353 135.650841 
L 160.235816 134.617754 
L 162.27728 132.97805 
L 164.318743 131.845076 
L 166.360207 130.56919 
L 168.40167 128.635043 
L 170.443133 126.892993 
L 172.484597 125.829777 
L 174.52606 124.377181 
L 176.567524 122.460699 
L 178.608987 121.241632 
L 180.65045 119.589992 
L 182.691914 116.873804 
L 184.733377 116.169457 
L 186.774841 113.997506 
L 188.816304 112.476029 
L 190.857768 110.637537 
L 192.899231 108.682337 
L 194.940694 106.733969 
L 196.982158 105.048569 
L 199.023621 102.470821 
L 201.065085 101.230317 
L 203.106548 98.753275 
L 205.148011 97.493805 
L 207.189475 94.95265 
L 209.230938 92.607432 
L 211.272402 90.669304 
L 213.313865 89.338759 
L 215.355328 86.510521 
L 217.396792 84.929616 
L 219.438255 82.532081 
L 221.479719 80.767688 
L 223.521182 78.188971 
L 225.562646 76.05244 
L 227.604109 76.69205 
L 229.645572 71.823068 
L 231.687036 71.950369 
L 233.728499 69.401238 
L 235.769963 67.961056 
L 237.811426 66.072156 
L 239.852889 63.983211 
L 241.894353 62.178776 
L 243.935816 60.456837 
L 245.97728 58.87935 
L 248.018743 57.272516 
L 250.060207 60.067173 
L 252.10167 53.547091 
L 254.143133 52.536445 
L 256.184597 59.355068 
L 258.22606 51.25107 
L 260.267524 53.455544 
L 262.308987 53.172754 
L 264.35045 49.220763 
L 266.391914 50.622316 
L 268.433377 55.670224 
L 270.474841 52.92014 
L 272.516304 51.957378 
L 274.557768 55.275502 
L 276.599231 54.812828 
L 278.640694 57.158421 
L 280.682158 60.275553 
L 282.723621 64.773133 
L 284.765085 75.354 
L 286.806548 73.335304 
L 288.848011 79.066621 
L 290.889475 83.763021 
L 292.930938 86.531659 
L 294.972402 92.389477 
L 297.013865 96.085275 
L 299.055328 89.60314 
L 301.096792 96.129383 
L 303.138255 105.174176 
L 305.179719 109.489689 
L 307.221182 110.898326 
L 309.262646 122.682888 
L 311.304109 123.449447 
L 313.345572 125.94598 
L 315.387036 125.437168 
L 317.428499 135.259058 
L 319.469963 131.831882 
L 321.511426 129.989489 
L 323.552889 138.410177 
L 325.594353 146.129497 
L 327.635816 144.085427 
L 329.67728 147.941713 
L 331.718743 149.255132 
L 333.760207 149.338824 
L 335.80167 149.137078 
L 337.843133 151.536788 
L 339.884597 152.814988 
L 341.92606 160.718059 
L 343.967524 156.416045 
L 346.008987 163.296782 
L 348.05045 161.572785 
L 350.091914 160.495411 
L 352.133377 163.232825 
L 354.174841 165.677613 
L 356.216304 162.387207 
L 358.257768 163.911992 
L 360.299231 163.974216 
L 362.340694 167.774463 
L 364.382158 165.88047 
L 366.423621 165.013102 
L 368.465085 166.145256 
L 370.506548 168.038849 
L 372.548011 167.216323 
L 374.589475 165.498581 
L 376.630938 166.658577 
L 378.672402 164.039406 
L 380.713865 164.510014 
L 382.755328 169.273587 
L 384.796792 169.225109 
L 386.838255 166.897534 
L 388.879719 166.525584 
L 390.921182 167.103064 
L 392.962646 164.626485 
L 395.004109 165.611756 
L 397.045572 165.940292 
L 399.087036 165.703047 
L 401.128499 165.322318 
L 403.169963 163.993113 
L 405.211426 165.393081 
L 407.252889 164.642508 
L 409.294353 164.797159 
L 411.335816 164.591254 
L 413.37728 165.090987 
L 415.418743 164.195835 
L 417.460207 162.24138 
L 419.50167 162.536529 
L 421.543133 161.002483 
L 423.584597 158.606049 
L 425.62606 161.012213 
L 427.667524 157.682073 
L 429.708987 159.620143 
L 431.75045 159.340603 
L 433.791914 160.165217 
L 435.833377 158.122279 
L 437.874841 158.323574 
L 439.916304 158.504268 
L 441.957768 155.548862 
L 443.999231 157.09467 
L 446.040694 157.248254 
L 448.082158 157.682397 
L 450.123621 156.72435 
L 452.165085 157.716809 
L 454.206548 156.772929 
L 456.248011 156.181126 
L 458.289475 154.023255 
L 460.330938 153.607861 
L 462.372402 153.428574 
L 464.413865 153.063899 
L 466.455328 153.566049 
L 468.496792 153.348936 
L 470.538255 152.232431 
L 472.579719 152.740148 
L 474.621182 151.847069 
L 476.662646 152.612268 
L 478.704109 152.526899 
L 480.745572 153.313392 
L 482.787036 152.011969 
L 484.828499 148.72483 
L 486.869963 152.493585 
L 488.911426 152.657494 
L 490.952889 152.278912 
L 492.994353 151.944213 
L 495.035816 150.588049 
L 497.07728 150.682634 
L 499.118743 149.773162 
L 501.160207 150.195649 
L 503.20167 149.980297 
L 505.243133 148.389268 
L 507.284597 146.726168 
L 509.32606 149.681836 
L 511.367524 149.237109 
L 513.408987 147.197258 
L 515.45045 148.464675 
L 517.491914 145.486463 
L 519.533377 145.101935 
L 521.574841 145.976923 
L 523.616304 143.721266 
L 525.657768 147.916739 
L 527.699231 144.17418 
L 529.740694 141.817916 
L 531.782158 144.031047 
L 533.823621 145.081109 
L 535.865085 144.436766 
L 537.906548 145.856265 
L 539.948011 143.919723 
L 541.989475 147.375505 
L 544.030938 145.087632 
L 546.072402 145.7486 
L 548.113865 144.196397 
L 550.155328 142.140958 
L 552.196792 145.057454 
L 554.238255 150.159129 
L 556.279719 144.286022 
L 558.321182 145.071816 
L 560.362646 142.746094 
L 562.404109 144.652088 
L 564.445572 143.489372 
L 566.487036 142.451214 
L 568.528499 141.800576 
L 570.569963 144.564788 
L 572.611426 143.433521 
L 574.652889 145.525268 
L 576.694353 145.755736 
L 578.735816 139.102699 
L 580.77728 142.254866 
L 582.818743 141.502767 
L 584.860207 142.645486 
L 586.90167 142.660147 
L 588.943133 146.828655 
L 590.984597 148.607081 
L 593.02606 148.509349 
L 595.067524 155.21628 
L 597.108987 164.517348 
L 599.15045 151.779948 
L 601.191914 152.936026 
L 603.233377 150.508009 
L 605.274841 154.645891 
L 607.316304 155.662043 
L 609.357768 155.701901 
L 611.399231 167.013206 
L 613.440694 166.468102 
L 615.482158 156.933045 
L 617.523621 165.974611 
L 619.565085 163.590239 
L 621.606548 158.663989 
L 623.648011 170.383624 
L 625.689475 169.371661 
L 627.730938 175.48809 
L 629.772402 169.96286 
L 631.813865 168.282115 
L 633.855328 172.971812 
L 635.896792 172.514505 
L 637.938255 178.326307 
L 639.979719 173.675095 
L 642.021182 182.597438 
L 644.062646 178.298707 
L 646.104109 181.48959 
L 648.145572 179.922444 
L 650.187036 184.376834 
L 652.228499 177.020359 
L 654.269963 186.989881 
L 656.311426 184.917744 
L 658.352889 193.104433 
L 660.394353 192.531082 
L 662.435816 196.916463 
L 664.47728 195.03999 
L 666.518743 197.807756 
L 668.560207 204.374585 
L 670.60167 199.39169 
L 672.643133 197.896143 
L 674.684597 201.161764 
L 676.72606 205.199871 
L 678.767524 200.456741 
L 680.808987 195.126338 
L 682.85045 208.001117 
L 684.891914 217.373596 
L 686.933377 201.95133 
L 688.974841 205.759658 
L 691.016304 208.987118 
L 693.057768 208.609972 
L 695.099231 216.076707 
L 697.140694 216.830228 
L 699.182158 212.756404 
L 701.223621 216.609459 
L 703.265085 217.843927 
L 705.306548 209.49826 
L 707.348011 212.561349 
L 709.389475 209.048889 
L 711.430938 223.029988 
L 713.472402 236.770515 
L 715.513865 234.309004 
L 717.555328 223.300054 
L 719.596792 222.382399 
L 721.638255 223.075224 
L 723.679719 222.383932 
L 725.721182 234.40245 
L 727.762646 222.141086 
L 729.804109 235.736652 
L 731.845572 246.745466 
L 733.887036 237.417425 
L 735.928499 253.844603 
L 737.969963 241.82214 
L 740.011426 253.631008 
L 742.052889 247.368476 
L 744.094353 250.682904 
L 746.135816 258.817549 
L 748.17728 258.67387 
L 750.218743 261.256454 
L 752.260207 261.173715 
L 754.30167 261.970677 
L 756.343133 240.216133 
L 758.384597 269.903668 
L 760.42606 281.380972 
L 762.467524 270.628046 
L 764.508987 277.077207 
L 766.55045 284.206889 
L 768.591914 274.896401 
L 770.633377 285.910632 
L 772.674841 294.679584 
L 774.716304 289.533346 
L 776.757768 294.432555 
L 778.799231 296.891209 
L 780.840694 298.326404 
L 782.882158 300.974725 
L 784.923621 288.718589 
L 786.965085 312.668203 
L 789.006548 312.989984 
L 791.048011 312.916687 
L 793.089475 297.388712 
L 795.130938 317.83936 
L 797.172402 328.838166 
L 799.213865 318.739914 
L 801.255328 318.705856 
L 803.296792 337.033802 
L 805.338255 302.678267 
L 807.379719 333.659742 
L 809.421182 310.992659 
L 811.462646 343.478562 
L 813.504109 330.291792 
L 815.545572 342.600387 
L 817.587036 346.027943 
L 819.628499 349.327799 
L 821.669963 350.688773 
L 823.711426 343.585897 
L 825.752889 344.711275 
L 827.794353 351.554567 
L 829.835816 359.555951 
L 831.87728 359.698657 
L 833.918743 358.623067 
L 835.960207 366.768821 
L 838.00167 366.461789 
L 840.043133 360.047927 
L 842.084597 358.833548 
L 844.12606 373.995555 
L 846.167524 374.882618 
L 848.208987 377.64 
L 850.25045 369.397799 
L 852.291914 350.726218 
L 854.333377 369.889059 
L 856.374841 364.445151 
L 858.416304 369.017695 
L 860.457768 375.343444 
L 862.499231 365.865632 
L 864.540694 377.425539 
L 866.582158 367.278317 
L 868.623621 366.572342 
L 870.665085 367.232815 
L 872.706548 374.039627 
L 874.748011 372.93821 
L 876.789475 371.075371 
L 878.830938 363.164665 
L 880.872402 366.949591 
L 882.913865 369.681101 
L 884.955328 365.982888 
L 886.996792 371.438236 
L 889.038255 366.447811 
L 891.079719 369.93147 
L 893.121182 375.708012 
L 895.162646 374.395455 
L 897.204109 367.94761 
L 899.245572 367.764953 
L 901.287036 366.313752 
L 903.328499 368.774226 
L 905.369963 368.368477 
L 907.411426 358.051002 
L 909.452889 365.619214 
L 911.494353 318.404267 
L 913.535816 365.016282 
L 915.57728 367.881182 
L 917.618743 360.697075 
L 919.660207 353.238262 
L 921.70167 366.650551 
L 923.743133 360.148052 
L 925.784597 349.033293 
L 927.82606 355.512538 
L 929.867524 355.333783 
L 931.908987 352.039462 
L 933.95045 358.178237 
L 935.991914 352.996676 
L 938.033377 355.094854 
L 940.074841 356.216904 
L 940.074841 203.535345 
L 940.074841 203.535345 
L 938.033377 208.752085 
L 935.991914 207.313914 
L 933.95045 209.907704 
L 931.908987 207.344166 
L 929.867524 209.316255 
L 927.82606 208.569032 
L 925.784597 210.047454 
L 923.743133 214.299895 
L 921.70167 215.457041 
L 919.660207 213.552508 
L 917.618743 214.793749 
L 915.57728 219.447441 
L 913.535816 217.51236 
L 911.494353 210.219004 
L 909.452889 219.810612 
L 907.411426 219.041832 
L 905.369963 221.905162 
L 903.328499 222.803193 
L 901.287036 222.747248 
L 899.245572 224.78776 
L 897.204109 225.482649 
L 895.162646 228.082591 
L 893.121182 229.299873 
L 891.079719 228.81771 
L 889.038255 228.419177 
L 886.996792 229.973405 
L 884.955328 228.512252 
L 882.913865 230.217901 
L 880.872402 230.53819 
L 878.830938 230.018508 
L 876.789475 233.601313 
L 874.748011 234.839758 
L 872.706548 236.649884 
L 870.665085 233.787351 
L 868.623621 234.792632 
L 866.582158 236.004152 
L 864.540694 239.782648 
L 862.499231 236.366466 
L 860.457768 240.323343 
L 858.416304 238.512856 
L 856.374841 237.603744 
L 854.333377 240.032231 
L 852.291914 234.717923 
L 850.25045 240.62262 
L 848.208987 244.805411 
L 846.167524 244.347553 
L 844.12606 244.299264 
L 842.084597 240.420785 
L 840.043133 240.561053 
L 838.00167 243.412254 
L 835.960207 243.698442 
L 833.918743 241.243604 
L 831.87728 241.77614 
L 829.835816 242.787881 
L 827.794353 238.409724 
L 825.752889 237.369453 
L 823.711426 237.580928 
L 821.669963 240.724373 
L 819.628499 240.460126 
L 817.587036 238.807776 
L 815.545572 237.699842 
L 813.504109 233.462646 
L 811.462646 238.610542 
L 809.421182 228.478531 
L 807.379719 236.165886 
L 805.338255 224.466247 
L 803.296792 237.465389 
L 801.255328 230.431862 
L 799.213865 230.073714 
L 797.172402 235.693122 
L 795.130938 230.744424 
L 793.089475 223.114566 
L 791.048011 229.786807 
L 789.006548 229.638624 
L 786.965085 229.626689 
L 784.923621 219.469718 
L 782.882158 228.024569 
L 780.840694 224.147277 
L 778.799231 223.095623 
L 776.757768 222.523543 
L 774.716304 221.308917 
L 772.674841 223.643223 
L 770.633377 220.24465 
L 768.591914 215.05967 
L 766.55045 217.950362 
L 764.508987 217.191824 
L 762.467524 212.612231 
L 760.42606 218.068974 
L 758.384597 212.906817 
L 756.343133 199.989693 
L 754.30167 210.337416 
L 752.260207 210.124067 
L 750.218743 209.988132 
L 748.17728 208.949198 
L 746.135816 209.454119 
L 744.094353 205.463727 
L 742.052889 203.606053 
L 740.011426 206.636699 
L 737.969963 202.620516 
L 735.928499 207.699369 
L 733.887036 200.134811 
L 731.845572 205.381656 
L 729.804109 199.510222 
L 727.762646 192.1881 
L 725.721182 199.504166 
L 723.679719 194.014712 
L 721.638255 193.914477 
L 719.596792 193.253994 
L 717.555328 194.016647 
L 715.513865 200.183068 
L 713.472402 201.436988 
L 711.430938 193.959486 
L 709.389475 187.990178 
L 707.348011 189.429007 
L 705.306548 187.30106 
L 703.265085 191.843125 
L 701.223621 191.448802 
L 699.182158 189.728382 
L 697.140694 191.442276 
L 695.099231 192.03765 
L 693.057768 187.932077 
L 691.016304 187.350441 
L 688.974841 186.100284 
L 686.933377 183.55631 
L 684.891914 191.933097 
L 682.85045 188.344878 
L 680.808987 179.72235 
L 678.767524 181.896235 
L 676.72606 185.672935 
L 674.684597 183.497042 
L 672.643133 181.056243 
L 670.60167 181.679752 
L 668.560207 183.455376 
L 666.518743 181.420689 
L 664.47728 178.557759 
L 662.435816 179.707194 
L 660.394353 179.482866 
L 658.352889 177.160719 
L 656.311426 172.54753 
L 654.269963 172.814483 
L 652.228499 165.609521 
L 650.187036 172.084866 
L 648.145572 168.216413 
L 646.104109 169.042618 
L 644.062646 165.314614 
L 642.021182 170.061227 
L 639.979719 163.439833 
L 637.938255 165.763044 
L 635.896792 161.638296 
L 633.855328 161.610197 
L 631.813865 157.360951 
L 629.772402 161.506699 
L 627.730938 164.280959 
L 625.689475 157.749198 
L 623.648011 159.655451 
L 621.606548 149.570108 
L 619.565085 152.581234 
L 617.523621 156.427659 
L 615.482158 148.504301 
L 613.440694 158.053223 
L 611.399231 155.580446 
L 609.357768 147.386219 
L 607.316304 147.804655 
L 605.274841 146.94983 
L 603.233377 143.555809 
L 601.191914 144.23702 
L 599.15045 144.3971 
L 597.108987 155.622288 
L 595.067524 146.756579 
L 593.02606 141.276849 
L 590.984597 141.458955 
L 588.943133 139.729508 
L 586.90167 134.91969 
L 584.860207 134.728163 
L 582.818743 133.356277 
L 580.77728 133.967366 
L 578.735816 130.764694 
L 576.694353 138.099081 
L 574.652889 137.791784 
L 572.611426 135.18967 
L 570.569963 136.434948 
L 568.528499 133.090759 
L 566.487036 133.820885 
L 564.445572 135.054463 
L 562.404109 135.405093 
L 560.362646 133.759777 
L 558.321182 136.076052 
L 556.279719 135.335286 
L 554.238255 141.452025 
L 552.196792 135.664028 
L 550.155328 132.268708 
L 548.113865 134.423683 
L 546.072402 136.623314 
L 544.030938 135.629391 
L 541.989475 137.624807 
L 539.948011 133.419569 
L 537.906548 135.350385 
L 535.865085 133.946923 
L 533.823621 135.116909 
L 531.782158 133.816327 
L 529.740694 131.156255 
L 527.699231 133.46638 
L 525.657768 137.694994 
L 523.616304 132.99331 
L 521.574841 135.416766 
L 519.533377 133.719112 
L 517.491914 134.622713 
L 515.45045 138.133097 
L 513.408987 136.236763 
L 511.367524 138.864544 
L 509.32606 139.200092 
L 507.284597 135.268345 
L 505.243133 136.966967 
L 503.20167 138.816751 
L 501.160207 139.136599 
L 499.118743 138.679063 
L 497.07728 139.747362 
L 495.035816 139.134208 
L 492.994353 141.019518 
L 490.952889 141.304185 
L 488.911426 141.41177 
L 486.869963 141.472079 
L 484.828499 136.7412 
L 482.787036 140.962165 
L 480.745572 142.44743 
L 478.704109 141.407495 
L 476.662646 141.179049 
L 474.621182 140.72374 
L 472.579719 141.708886 
L 470.538255 140.726067 
L 468.496792 142.104038 
L 466.455328 142.182825 
L 464.413865 141.085925 
L 462.372402 141.176462 
L 460.330938 141.509206 
L 458.289475 141.858349 
L 456.248011 144.626038 
L 454.206548 144.734112 
L 452.165085 145.67952 
L 450.123621 144.07139 
L 448.082158 144.909301 
L 446.040694 144.257618 
L 443.999231 143.919143 
L 441.957768 141.275735 
L 439.916304 145.266946 
L 437.874841 144.743165 
L 435.833377 144.093688 
L 433.791914 146.031145 
L 431.75045 144.775406 
L 429.708987 144.925633 
L 427.667524 142.318213 
L 425.62606 145.237966 
L 423.584597 142.85862 
L 421.543133 145.58391 
L 419.50167 147.14509 
L 417.460207 146.691558 
L 415.418743 148.923453 
L 413.37728 150.377224 
L 411.335816 148.959752 
L 409.294353 149.344341 
L 407.252889 148.512781 
L 405.211426 149.424606 
L 403.169963 147.475747 
L 401.128499 149.280777 
L 399.087036 150.320581 
L 397.045572 150.434486 
L 395.004109 150.010281 
L 392.962646 149.447287 
L 390.921182 151.627039 
L 388.879719 151.261837 
L 386.838255 152.214333 
L 384.796792 154.187476 
L 382.755328 154.106775 
L 380.713865 150.323549 
L 378.672402 150.172576 
L 376.630938 152.59184 
L 374.589475 152.060376 
L 372.548011 153.496543 
L 370.506548 154.326072 
L 368.465085 152.601829 
L 366.423621 152.844854 
L 364.382158 153.379117 
L 362.340694 154.969004 
L 360.299231 151.674545 
L 358.257768 152.113142 
L 356.216304 151.459605 
L 354.174841 154.129923 
L 352.133377 153.102763 
L 350.091914 150.666747 
L 348.05045 151.849819 
L 346.008987 153.10295 
L 343.967524 147.785648 
L 341.92606 151.647913 
L 339.884597 145.337933 
L 337.843133 144.396913 
L 335.80167 142.489154 
L 333.760207 143.301056 
L 331.718743 143.215832 
L 329.67728 141.817674 
L 327.635816 138.269007 
L 325.594353 139.842266 
L 323.552889 132.592531 
L 321.511426 123.413748 
L 319.469963 125.717208 
L 317.428499 129.700528 
L 315.387036 117.81604 
L 313.345572 118.770018 
L 311.304109 115.375503 
L 309.262646 114.405563 
L 307.221182 99.68324 
L 305.179719 97.608234 
L 303.138255 92.311425 
L 301.096792 80.966849 
L 299.055328 71.938426 
L 297.013865 80.770245 
L 294.972402 75.815636 
L 292.930938 68.082718 
L 290.889475 64.735666 
L 288.848011 59.034502 
L 286.806548 51.503806 
L 284.765085 54.020935 
L 282.723621 41.397897 
L 280.682158 34.646348 
L 278.640694 31.473113 
L 276.599231 28.798724 
L 274.557768 29.817378 
L 272.516304 26.534976 
L 270.474841 28.783877 
L 268.433377 31.835527 
L 266.391914 25.739419 
L 264.35045 24.84 
L 262.308987 29.990353 
L 260.267524 30.847154 
L 258.22606 28.313079 
L 256.184597 39.218462 
L 254.143133 30.814414 
L 252.10167 33.054058 
L 250.060207 41.206798 
L 248.018743 38.280248 
L 245.97728 40.929246 
L 243.935816 43.227878 
L 241.894353 46.012174 
L 239.852889 48.614286 
L 237.811426 51.619177 
L 235.769963 54.342447 
L 233.728499 56.440745 
L 231.687036 60.143614 
L 229.645572 60.524112 
L 227.604109 66.807445 
L 225.562646 66.387091 
L 223.521182 69.16329 
L 221.479719 71.830289 
L 219.438255 73.278283 
L 217.396792 75.363818 
L 215.355328 76.76962 
L 213.313865 79.324653 
L 211.272402 80.451753 
L 209.230938 82.078968 
L 207.189475 84.190201 
L 205.148011 86.381901 
L 203.106548 87.332977 
L 201.065085 89.444153 
L 199.023621 90.583579 
L 196.982158 92.812225 
L 194.940694 94.340292 
L 192.899231 95.872718 
L 190.857768 97.681473 
L 188.816304 99.197899 
L 186.774841 100.364867 
L 184.733377 102.147924 
L 182.691914 102.627276 
L 180.65045 105.059641 
L 178.608987 106.439558 
L 176.567524 107.566431 
L 174.52606 109.1416 
L 172.484597 109.79362 
L 170.443133 111.110746 
L 168.40167 112.487094 
L 166.360207 114.098887 
L 164.318743 115.15554 
L 162.27728 116.201669 
L 160.235816 117.422395 
L 158.194353 118.586531 
L 156.152889 119.903456 
L 154.111426 120.817738 
L 152.069963 121.890968 
L 150.028499 122.645184 
L 147.987036 123.994768 
L 145.945572 124.775472 
L 143.904109 125.771552 
L 141.862646 127.190213 
L 139.821182 127.976402 
L 137.779719 127.760167 
L 135.738255 128.875852 
L 133.696792 129.154479 
L 131.655328 130.233363 
L 129.613865 131.59463 
L 127.572402 132.02463 
L 125.530938 132.418145 
L 123.489475 132.084364 
L 121.448011 132.577531 
L 119.406548 132.689438 
L 117.365085 132.864663 
L 115.323621 133.815835 
L 113.282158 134.196912 
L 111.240694 134.952598 
L 109.199231 133.893427 
L 107.157768 134.175079 
L 105.116304 132.78794 
L 103.074841 134.094154 
L 101.033377 134.032204 
L 98.991914 134.931592 
L 96.95045 132.134287 
L 94.908987 134.96434 
L 92.867524 134.485221 
L 90.82606 132.524039 
L 88.784597 131.903506 
L 86.743133 133.321228 
L 84.70167 135.891297 
L 82.660207 134.66882 
L 80.618743 134.4861 
L 78.57728 131.630124 
L 76.535816 131.529929 
L 74.494353 132.262503 
L 72.452889 133.898481 
L 70.411426 133.307106 
L 68.369963 132.936552 
L 66.328499 133.197376 
L 64.287036 134.233827 
L 62.245572 134.003566 
L 60.204109 134.676817 
L 58.162646 135.792816 
L 56.121182 135.060175 
L 54.079719 136.683664 
L 52.038255 136.973926 
L 49.996792 137.218245 
L 47.955328 138.273432 
L 45.913865 138.580895 
L 43.872402 139.751 
L 41.830938 141.023232 
L 39.789475 141.106603 
L 37.748011 140.685595 
L 35.706548 140.406662 
L 33.665085 143.037555 
L 31.623621 142.665268 
L 29.582158 144.454485 
L 27.540694 144.552863 
L 25.499231 143.961316 
L 23.457768 145.729821 
L 21.416304 144.218558 
L 19.374841 144.368026 
L 17.333377 146.591968 
L 15.291914 145.101923 
L 13.25045 147.20048 
L 11.208987 147.910258 
L 9.167524 146.245209 
L 7.12606 140.824409 
L 5.084597 144.36955 
L 3.043133 142.738213 
L 1.00167 134.638311 
L -1.039793 141.605605 
L -3.081257 143.062288 
L -5.12272 135.563383 
L -7.164184 133.52285 
L -9.205647 137.57403 
L -11.247111 129.418279 
L -13.288574 114.478912 
L -15.330037 130.906168 
L -17.371501 137.133717 
L -19.412964 140.220411 
L -21.454428 120.059861 
L -23.495891 120.912732 
L -25.537354 110.763089 
L -27.578818 102.89114 
L -29.620281 118.790881 
L -31.661745 111.948159 
L -33.703208 97.80921 
L -35.744672 87.894947 
L -37.786135 88.480535 
L -39.827598 90.16282 
L -41.869062 88.035246 
L -43.910525 86.768523 
L -45.951989 92.373417 
L -47.993452 91.675014 
L -50.034915 87.971838 
L -52.076379 90.187582 
L -54.117842 88.614631 
L -56.159306 87.985014 
L -58.200769 88.083947 
L -60.242232 90.25812 
L -62.283696 91.533523 
L -64.325159 92.258104 
L -66.366623 94.143488 
L -68.408086 94.996491 
L -70.44955 96.501505 
L -72.491013 98.911689 
L -74.532476 100.799256 
L -76.57394 102.07693 
L -78.615403 103.50714 
L -80.656867 105.403636 
L -82.69833 106.594477 
L -84.739793 108.415164 
L -86.781257 110.62158 
L -88.82272 111.930087 
L -90.864184 112.80491 
L -92.905647 114.158445 
L -94.947111 115.551744 
L -96.988574 116.830626 
L -99.030037 118.054454 
L -101.071501 119.23404 
L -103.112964 120.856429 
L -105.154428 121.697421 
L -107.195891 122.869432 
L -109.237354 124.094164 
L -111.278818 125.141043 
L -113.320281 126.177432 
L -115.361745 127.043339 
L -117.403208 127.98698 
L -119.444672 129.242184 
L -121.486135 130.119453 
L -123.527598 131.145633 
L -125.569062 131.97213 
L -127.610525 132.883173 
L -129.651989 133.817323 
L -131.693452 134.765143 
L -133.734915 135.561199 
L -135.776379 136.504049 
L -137.817842 137.331655 
L -139.859306 138.219637 
L -141.900769 139.045824 
L -143.942232 139.898797 
L -145.983696 140.689863 
L -148.025159 141.51408 
L -150.066623 142.404593 
L -152.108086 143.080644 
L -154.14955 143.929866 
L -156.191013 144.660959 
L -158.232476 145.509932 
L -160.27394 146.128563 
L -162.315403 146.917752 
L -164.356867 147.669698 
L -166.39833 148.385399 
L -168.439793 149.114213 
L -170.481257 149.787786 
L -172.52272 150.574331 
L -174.564184 151.281665 
L -176.605647 151.863113 
L -178.647111 152.554611 
L -180.688574 153.244955 
L -182.730037 153.931724 
L -184.771501 154.593739 
L -186.812964 155.209836 
L -188.854428 155.888395 
L -190.895891 156.553005 
L -192.937354 157.220817 
L -194.978818 157.885942 
L -197.020281 158.568805 
L -199.061745 159.278509 
L -201.103208 159.887938 
L -203.144672 160.586839 
L -205.186135 161.272031 
L -207.227598 161.928843 
L -209.269062 162.606541 
L -211.310525 163.298054 
L -213.351989 163.968054 
L -215.393452 164.671607 
L -217.434915 165.311379 
L -219.476379 165.964815 
L -221.517842 166.656066 
L -223.559306 167.322977 
L -225.600769 167.954867 
L -227.642232 168.624285 
L -229.683696 169.233256 
L -231.725159 169.885114 
L -233.766623 170.580576 
L -235.808086 171.174763 
L -237.84955 171.841397 
L -239.891013 172.471021 
L -241.932476 173.131957 
L -243.97394 173.728012 
L -246.015403 174.427707 
L -248.056867 175.00365 
L -250.09833 175.652027 
L -252.139793 176.285842 
L -254.181257 176.936194 
L -256.22272 177.552988 
L -258.264184 178.18175 
L -260.305647 178.813296 
L -262.347111 179.466943 
L -264.388574 180.064155 
L -266.430037 180.616457 
L -268.471501 181.181613 
L -270.512964 181.75075 
L -272.554428 182.300017 
L -274.595891 182.859294 
L -276.637354 183.412389 
L -278.678818 183.940367 
L -280.720281 184.475162 
L -282.761745 185.007534 
L -284.803208 185.490912 
L -286.844672 185.983453 
L -288.886135 186.49859 
L -290.927598 186.986477 
L -292.969062 187.421965 
L -295.010525 187.903824 
L -297.051989 188.343746 
L -299.093452 188.748726 
L -301.134915 189.154545 
L -303.176379 189.533916 
L -305.217842 189.944389 
L -307.259306 190.282528 
L -309.300769 190.640857 
L -311.342232 190.978244 
L -313.383696 191.290862 
L -315.425159 191.575626 
L -317.466623 191.834245 
L -319.508086 192.091548 
L -321.54955 192.347064 
L -323.591013 192.55804 
L -325.632476 192.794753 
L -327.67394 192.994763 
L -329.715403 193.166709 
L -331.756867 193.36931 
L -333.79833 193.546625 
L -335.839793 193.693026 
L -337.881257 193.850682 
L -339.92272 194.004084 
L -341.964184 194.138725 
L -344.005647 194.274028 
L -346.047111 194.385516 
L -348.088574 194.521066 
L -350.130037 194.628401 
L -352.171501 194.741504 
L -354.212964 194.860466 
L -356.254428 194.957093 
L -358.295891 195.059756 
L -360.337354 195.195031 
L -362.378818 195.289958 
L -364.420281 195.407047 
L -366.461745 195.499357 
L -368.503208 195.623104 
L -370.544672 195.720683 
L -372.586135 195.82417 
L -374.627598 195.91455 
L -376.669062 195.99676 
L -378.710525 196.091076 
L -380.751989 196.195484 
L -382.793452 196.297106 
L -384.834915 196.383379 
L -386.876379 196.452009 
L -388.917842 196.552547 
L -390.959306 196.634379 
L -393.000769 196.732965 
z
" clip-path="url(#p3aeb23554b)" style="fill: #008000; fill-opacity: 0.3; stroke: #008000; stroke-opacity: 0.3"/>
   </g>
   <g id="matplotlib.axis_1">
    <g id="xtick_1">
     <g id="line2d_1">
      <defs>
       <path id="m981e2cd0d6" d="M 0 0 
L 0 3.5 
" style="stroke: #000000; stroke-width: 0.8"/>
      </defs>
      <g>
       <use xlink:href="#m981e2cd0d6" x="103.074841" y="395.28" style="stroke: #000000; stroke-width: 0.8"/>
      </g>
     </g>
     <g id="text_1">
      <!-- 2022-03-01 -->
      <g transform="translate(17.945813 495.213718) rotate(-45) scale(0.2 -0.2)">
       <defs>
        <path id="DejaVuSans-32" d="M 1228 531 
L 3431 531 
L 3431 0 
L 469 0 
L 469 531 
Q 828 903 1448 1529 
Q 2069 2156 2228 2338 
Q 2531 2678 2651 2914 
Q 2772 3150 2772 3378 
Q 2772 3750 2511 3984 
Q 2250 4219 1831 4219 
Q 1534 4219 1204 4116 
Q 875 4013 500 3803 
L 500 4441 
Q 881 4594 1212 4672 
Q 1544 4750 1819 4750 
Q 2544 4750 2975 4387 
Q 3406 4025 3406 3419 
Q 3406 3131 3298 2873 
Q 3191 2616 2906 2266 
Q 2828 2175 2409 1742 
Q 1991 1309 1228 531 
z
" transform="scale(0.015625)"/>
        <path id="DejaVuSans-30" d="M 2034 4250 
Q 1547 4250 1301 3770 
Q 1056 3291 1056 2328 
Q 1056 1369 1301 889 
Q 1547 409 2034 409 
Q 2525 409 2770 889 
Q 3016 1369 3016 2328 
Q 3016 3291 2770 3770 
Q 2525 4250 2034 4250 
z
M 2034 4750 
Q 2819 4750 3233 4129 
Q 3647 3509 3647 2328 
Q 3647 1150 3233 529 
Q 2819 -91 2034 -91 
Q 1250 -91 836 529 
Q 422 1150 422 2328 
Q 422 3509 836 4129 
Q 1250 4750 2034 4750 
z
" transform="scale(0.015625)"/>
        <path id="DejaVuSans-2d" d="M 313 2009 
L 1997 2009 
L 1997 1497 
L 313 1497 
L 313 2009 
z
" transform="scale(0.015625)"/>
        <path id="DejaVuSans-33" d="M 2597 2516 
Q 3050 2419 3304 2112 
Q 3559 1806 3559 1356 
Q 3559 666 3084 287 
Q 2609 -91 1734 -91 
Q 1441 -91 1130 -33 
Q 819 25 488 141 
L 488 750 
Q 750 597 1062 519 
Q 1375 441 1716 441 
Q 2309 441 2620 675 
Q 2931 909 2931 1356 
Q 2931 1769 2642 2001 
Q 2353 2234 1838 2234 
L 1294 2234 
L 1294 2753 
L 1863 2753 
Q 2328 2753 2575 2939 
Q 2822 3125 2822 3475 
Q 2822 3834 2567 4026 
Q 2313 4219 1838 4219 
Q 1578 4219 1281 4162 
Q 984 4106 628 3988 
L 628 4550 
Q 988 4650 1302 4700 
Q 1616 4750 1894 4750 
Q 2613 4750 3031 4423 
Q 3450 4097 3450 3541 
Q 3450 3153 3228 2886 
Q 3006 2619 2597 2516 
z
" transform="scale(0.015625)"/>
        <path id="DejaVuSans-31" d="M 794 531 
L 1825 531 
L 1825 4091 
L 703 3866 
L 703 4441 
L 1819 4666 
L 2450 4666 
L 2450 531 
L 3481 531 
L 3481 0 
L 794 0 
L 794 531 
z
" transform="scale(0.015625)"/>
       </defs>
       <use xlink:href="#DejaVuSans-32"/>
       <use xlink:href="#DejaVuSans-30" x="63.623047"/>
       <use xlink:href="#DejaVuSans-32" x="127.246094"/>
       <use xlink:href="#DejaVuSans-32" x="190.869141"/>
       <use xlink:href="#DejaVuSans-2d" x="254.492188"/>
       <use xlink:href="#DejaVuSans-30" x="290.576172"/>
       <use xlink:href="#DejaVuSans-33" x="354.199219"/>
       <use xlink:href="#DejaVuSans-2d" x="417.822266"/>
       <use xlink:href="#DejaVuSans-30" x="453.90625"/>
       <use xlink:href="#DejaVuSans-31" x="517.529297"/>
      </g>
     </g>
    </g>
    <g id="xtick_2">
     <g id="line2d_2">
      <g>
       <use xlink:href="#m981e2cd0d6" x="160.235816" y="395.28" style="stroke: #000000; stroke-width: 0.8"/>
      </g>
     </g>
     <g id="text_2">
      <!-- 2022-03-29 -->
      <g transform="translate(75.106789 495.213718) rotate(-45) scale(0.2 -0.2)">
       <defs>
        <path id="DejaVuSans-39" d="M 703 97 
L 703 672 
Q 941 559 1184 500 
Q 1428 441 1663 441 
Q 2288 441 2617 861 
Q 2947 1281 2994 2138 
Q 2813 1869 2534 1725 
Q 2256 1581 1919 1581 
Q 1219 1581 811 2004 
Q 403 2428 403 3163 
Q 403 3881 828 4315 
Q 1253 4750 1959 4750 
Q 2769 4750 3195 4129 
Q 3622 3509 3622 2328 
Q 3622 1225 3098 567 
Q 2575 -91 1691 -91 
Q 1453 -91 1209 -44 
Q 966 3 703 97 
z
M 1959 2075 
Q 2384 2075 2632 2365 
Q 2881 2656 2881 3163 
Q 2881 3666 2632 3958 
Q 2384 4250 1959 4250 
Q 1534 4250 1286 3958 
Q 1038 3666 1038 3163 
Q 1038 2656 1286 2365 
Q 1534 2075 1959 2075 
z
" transform="scale(0.015625)"/>
       </defs>
       <use xlink:href="#DejaVuSans-32"/>
       <use xlink:href="#DejaVuSans-30" x="63.623047"/>
       <use xlink:href="#DejaVuSans-32" x="127.246094"/>
       <use xlink:href="#DejaVuSans-32" x="190.869141"/>
       <use xlink:href="#DejaVuSans-2d" x="254.492188"/>
       <use xlink:href="#DejaVuSans-30" x="290.576172"/>
       <use xlink:href="#DejaVuSans-33" x="354.199219"/>
       <use xlink:href="#DejaVuSans-2d" x="417.822266"/>
       <use xlink:href="#DejaVuSans-32" x="453.90625"/>
       <use xlink:href="#DejaVuSans-39" x="517.529297"/>
      </g>
     </g>
    </g>
    <g id="xtick_3">
     <g id="line2d_3">
      <g>
       <use xlink:href="#m981e2cd0d6" x="217.396792" y="395.28" style="stroke: #000000; stroke-width: 0.8"/>
      </g>
     </g>
     <g id="text_3">
      <!-- 2022-04-26 -->
      <g transform="translate(132.267765 495.213718) rotate(-45) scale(0.2 -0.2)">
       <defs>
        <path id="DejaVuSans-34" d="M 2419 4116 
L 825 1625 
L 2419 1625 
L 2419 4116 
z
M 2253 4666 
L 3047 4666 
L 3047 1625 
L 3713 1625 
L 3713 1100 
L 3047 1100 
L 3047 0 
L 2419 0 
L 2419 1100 
L 313 1100 
L 313 1709 
L 2253 4666 
z
" transform="scale(0.015625)"/>
        <path id="DejaVuSans-36" d="M 2113 2584 
Q 1688 2584 1439 2293 
Q 1191 2003 1191 1497 
Q 1191 994 1439 701 
Q 1688 409 2113 409 
Q 2538 409 2786 701 
Q 3034 994 3034 1497 
Q 3034 2003 2786 2293 
Q 2538 2584 2113 2584 
z
M 3366 4563 
L 3366 3988 
Q 3128 4100 2886 4159 
Q 2644 4219 2406 4219 
Q 1781 4219 1451 3797 
Q 1122 3375 1075 2522 
Q 1259 2794 1537 2939 
Q 1816 3084 2150 3084 
Q 2853 3084 3261 2657 
Q 3669 2231 3669 1497 
Q 3669 778 3244 343 
Q 2819 -91 2113 -91 
Q 1303 -91 875 529 
Q 447 1150 447 2328 
Q 447 3434 972 4092 
Q 1497 4750 2381 4750 
Q 2619 4750 2861 4703 
Q 3103 4656 3366 4563 
z
" transform="scale(0.015625)"/>
       </defs>
       <use xlink:href="#DejaVuSans-32"/>
       <use xlink:href="#DejaVuSans-30" x="63.623047"/>
       <use xlink:href="#DejaVuSans-32" x="127.246094"/>
       <use xlink:href="#DejaVuSans-32" x="190.869141"/>
       <use xlink:href="#DejaVuSans-2d" x="254.492188"/>
       <use xlink:href="#DejaVuSans-30" x="290.576172"/>
       <use xlink:href="#DejaVuSans-34" x="354.199219"/>
       <use xlink:href="#DejaVuSans-2d" x="417.822266"/>
       <use xlink:href="#DejaVuSans-32" x="453.90625"/>
       <use xlink:href="#DejaVuSans-36" x="517.529297"/>
      </g>
     </g>
    </g>
    <g id="xtick_4">
     <g id="line2d_4">
      <g>
       <use xlink:href="#m981e2cd0d6" x="274.557768" y="395.28" style="stroke: #000000; stroke-width: 0.8"/>
      </g>
     </g>
     <g id="text_4">
      <!-- 2022-05-24 -->
      <g transform="translate(189.42874 495.213718) rotate(-45) scale(0.2 -0.2)">
       <defs>
        <path id="DejaVuSans-35" d="M 691 4666 
L 3169 4666 
L 3169 4134 
L 1269 4134 
L 1269 2991 
Q 1406 3038 1543 3061 
Q 1681 3084 1819 3084 
Q 2600 3084 3056 2656 
Q 3513 2228 3513 1497 
Q 3513 744 3044 326 
Q 2575 -91 1722 -91 
Q 1428 -91 1123 -41 
Q 819 9 494 109 
L 494 744 
Q 775 591 1075 516 
Q 1375 441 1709 441 
Q 2250 441 2565 725 
Q 2881 1009 2881 1497 
Q 2881 1984 2565 2268 
Q 2250 2553 1709 2553 
Q 1456 2553 1204 2497 
Q 953 2441 691 2322 
L 691 4666 
z
" transform="scale(0.015625)"/>
       </defs>
       <use xlink:href="#DejaVuSans-32"/>
       <use xlink:href="#DejaVuSans-30" x="63.623047"/>
       <use xlink:href="#DejaVuSans-32" x="127.246094"/>
       <use xlink:href="#DejaVuSans-32" x="190.869141"/>
       <use xlink:href="#DejaVuSans-2d" x="254.492188"/>
       <use xlink:href="#DejaVuSans-30" x="290.576172"/>
       <use xlink:href="#DejaVuSans-35" x="354.199219"/>
       <use xlink:href="#DejaVuSans-2d" x="417.822266"/>
       <use xlink:href="#DejaVuSans-32" x="453.90625"/>
       <use xlink:href="#DejaVuSans-34" x="517.529297"/>
      </g>
     </g>
    </g>
    <g id="xtick_5">
     <g id="line2d_5">
      <g>
       <use xlink:href="#m981e2cd0d6" x="331.718743" y="395.28" style="stroke: #000000; stroke-width: 0.8"/>
      </g>
     </g>
     <g id="text_5">
      <!-- 2022-06-21 -->
      <g transform="translate(246.589716 495.213718) rotate(-45) scale(0.2 -0.2)">
       <use xlink:href="#DejaVuSans-32"/>
       <use xlink:href="#DejaVuSans-30" x="63.623047"/>
       <use xlink:href="#DejaVuSans-32" x="127.246094"/>
       <use xlink:href="#DejaVuSans-32" x="190.869141"/>
       <use xlink:href="#DejaVuSans-2d" x="254.492188"/>
       <use xlink:href="#DejaVuSans-30" x="290.576172"/>
       <use xlink:href="#DejaVuSans-36" x="354.199219"/>
       <use xlink:href="#DejaVuSans-2d" x="417.822266"/>
       <use xlink:href="#DejaVuSans-32" x="453.90625"/>
       <use xlink:href="#DejaVuSans-31" x="517.529297"/>
      </g>
     </g>
    </g>
    <g id="xtick_6">
     <g id="line2d_6">
      <g>
       <use xlink:href="#m981e2cd0d6" x="388.879719" y="395.28" style="stroke: #000000; stroke-width: 0.8"/>
      </g>
     </g>
     <g id="text_6">
      <!-- 2022-07-19 -->
      <g transform="translate(303.750691 495.213718) rotate(-45) scale(0.2 -0.2)">
       <defs>
        <path id="DejaVuSans-37" d="M 525 4666 
L 3525 4666 
L 3525 4397 
L 1831 0 
L 1172 0 
L 2766 4134 
L 525 4134 
L 525 4666 
z
" transform="scale(0.015625)"/>
       </defs>
       <use xlink:href="#DejaVuSans-32"/>
       <use xlink:href="#DejaVuSans-30" x="63.623047"/>
       <use xlink:href="#DejaVuSans-32" x="127.246094"/>
       <use xlink:href="#DejaVuSans-32" x="190.869141"/>
       <use xlink:href="#DejaVuSans-2d" x="254.492188"/>
       <use xlink:href="#DejaVuSans-30" x="290.576172"/>
       <use xlink:href="#DejaVuSans-37" x="354.199219"/>
       <use xlink:href="#DejaVuSans-2d" x="417.822266"/>
       <use xlink:href="#DejaVuSans-31" x="453.90625"/>
       <use xlink:href="#DejaVuSans-39" x="517.529297"/>
      </g>
     </g>
    </g>
    <g id="xtick_7">
     <g id="line2d_7">
      <g>
       <use xlink:href="#m981e2cd0d6" x="446.040694" y="395.28" style="stroke: #000000; stroke-width: 0.8"/>
      </g>
     </g>
     <g id="text_7">
      <!-- 2022-08-16 -->
      <g transform="translate(360.911667 495.213718) rotate(-45) scale(0.2 -0.2)">
       <defs>
        <path id="DejaVuSans-38" d="M 2034 2216 
Q 1584 2216 1326 1975 
Q 1069 1734 1069 1313 
Q 1069 891 1326 650 
Q 1584 409 2034 409 
Q 2484 409 2743 651 
Q 3003 894 3003 1313 
Q 3003 1734 2745 1975 
Q 2488 2216 2034 2216 
z
M 1403 2484 
Q 997 2584 770 2862 
Q 544 3141 544 3541 
Q 544 4100 942 4425 
Q 1341 4750 2034 4750 
Q 2731 4750 3128 4425 
Q 3525 4100 3525 3541 
Q 3525 3141 3298 2862 
Q 3072 2584 2669 2484 
Q 3125 2378 3379 2068 
Q 3634 1759 3634 1313 
Q 3634 634 3220 271 
Q 2806 -91 2034 -91 
Q 1263 -91 848 271 
Q 434 634 434 1313 
Q 434 1759 690 2068 
Q 947 2378 1403 2484 
z
M 1172 3481 
Q 1172 3119 1398 2916 
Q 1625 2713 2034 2713 
Q 2441 2713 2670 2916 
Q 2900 3119 2900 3481 
Q 2900 3844 2670 4047 
Q 2441 4250 2034 4250 
Q 1625 4250 1398 4047 
Q 1172 3844 1172 3481 
z
" transform="scale(0.015625)"/>
       </defs>
       <use xlink:href="#DejaVuSans-32"/>
       <use xlink:href="#DejaVuSans-30" x="63.623047"/>
       <use xlink:href="#DejaVuSans-32" x="127.246094"/>
       <use xlink:href="#DejaVuSans-32" x="190.869141"/>
       <use xlink:href="#DejaVuSans-2d" x="254.492188"/>
       <use xlink:href="#DejaVuSans-30" x="290.576172"/>
       <use xlink:href="#DejaVuSans-38" x="354.199219"/>
       <use xlink:href="#DejaVuSans-2d" x="417.822266"/>
       <use xlink:href="#DejaVuSans-31" x="453.90625"/>
       <use xlink:href="#DejaVuSans-36" x="517.529297"/>
      </g>
     </g>
    </g>
    <g id="xtick_8">
     <g id="line2d_8">
      <g>
       <use xlink:href="#m981e2cd0d6" x="503.20167" y="395.28" style="stroke: #000000; stroke-width: 0.8"/>
      </g>
     </g>
     <g id="text_8">
      <!-- 2022-09-13 -->
      <g transform="translate(418.072643 495.213718) rotate(-45) scale(0.2 -0.2)">
       <use xlink:href="#DejaVuSans-32"/>
       <use xlink:href="#DejaVuSans-30" x="63.623047"/>
       <use xlink:href="#DejaVuSans-32" x="127.246094"/>
       <use xlink:href="#DejaVuSans-32" x="190.869141"/>
       <use xlink:href="#DejaVuSans-2d" x="254.492188"/>
       <use xlink:href="#DejaVuSans-30" x="290.576172"/>
       <use xlink:href="#DejaVuSans-39" x="354.199219"/>
       <use xlink:href="#DejaVuSans-2d" x="417.822266"/>
       <use xlink:href="#DejaVuSans-31" x="453.90625"/>
       <use xlink:href="#DejaVuSans-33" x="517.529297"/>
      </g>
     </g>
    </g>
    <g id="xtick_9">
     <g id="line2d_9">
      <g>
       <use xlink:href="#m981e2cd0d6" x="560.362646" y="395.28" style="stroke: #000000; stroke-width: 0.8"/>
      </g>
     </g>
     <g id="text_9">
      <!-- 2022-10-11 -->
      <g transform="translate(475.233618 495.213718) rotate(-45) scale(0.2 -0.2)">
       <use xlink:href="#DejaVuSans-32"/>
       <use xlink:href="#DejaVuSans-30" x="63.623047"/>
       <use xlink:href="#DejaVuSans-32" x="127.246094"/>
       <use xlink:href="#DejaVuSans-32" x="190.869141"/>
       <use xlink:href="#DejaVuSans-2d" x="254.492188"/>
       <use xlink:href="#DejaVuSans-31" x="290.576172"/>
       <use xlink:href="#DejaVuSans-30" x="354.199219"/>
       <use xlink:href="#DejaVuSans-2d" x="417.822266"/>
       <use xlink:href="#DejaVuSans-31" x="453.90625"/>
       <use xlink:href="#DejaVuSans-31" x="517.529297"/>
      </g>
     </g>
    </g>
    <g id="xtick_10">
     <g id="line2d_10">
      <g>
       <use xlink:href="#m981e2cd0d6" x="617.523621" y="395.28" style="stroke: #000000; stroke-width: 0.8"/>
      </g>
     </g>
     <g id="text_10">
      <!-- 2022-11-08 -->
      <g transform="translate(532.394594 495.213718) rotate(-45) scale(0.2 -0.2)">
       <use xlink:href="#DejaVuSans-32"/>
       <use xlink:href="#DejaVuSans-30" x="63.623047"/>
       <use xlink:href="#DejaVuSans-32" x="127.246094"/>
       <use xlink:href="#DejaVuSans-32" x="190.869141"/>
       <use xlink:href="#DejaVuSans-2d" x="254.492188"/>
       <use xlink:href="#DejaVuSans-31" x="290.576172"/>
       <use xlink:href="#DejaVuSans-31" x="354.199219"/>
       <use xlink:href="#DejaVuSans-2d" x="417.822266"/>
       <use xlink:href="#DejaVuSans-30" x="453.90625"/>
       <use xlink:href="#DejaVuSans-38" x="517.529297"/>
      </g>
     </g>
    </g>
    <g id="xtick_11">
     <g id="line2d_11">
      <g>
       <use xlink:href="#m981e2cd0d6" x="674.684597" y="395.28" style="stroke: #000000; stroke-width: 0.8"/>
      </g>
     </g>
     <g id="text_11">
      <!-- 2022-12-06 -->
      <g transform="translate(589.555569 495.213718) rotate(-45) scale(0.2 -0.2)">
       <use xlink:href="#DejaVuSans-32"/>
       <use xlink:href="#DejaVuSans-30" x="63.623047"/>
       <use xlink:href="#DejaVuSans-32" x="127.246094"/>
       <use xlink:href="#DejaVuSans-32" x="190.869141"/>
       <use xlink:href="#DejaVuSans-2d" x="254.492188"/>
       <use xlink:href="#DejaVuSans-31" x="290.576172"/>
       <use xlink:href="#DejaVuSans-32" x="354.199219"/>
       <use xlink:href="#DejaVuSans-2d" x="417.822266"/>
       <use xlink:href="#DejaVuSans-30" x="453.90625"/>
       <use xlink:href="#DejaVuSans-36" x="517.529297"/>
      </g>
     </g>
    </g>
    <g id="xtick_12">
     <g id="line2d_12">
      <g>
       <use xlink:href="#m981e2cd0d6" x="731.845572" y="395.28" style="stroke: #000000; stroke-width: 0.8"/>
      </g>
     </g>
     <g id="text_12">
      <!-- 2023-01-03 -->
      <g transform="translate(646.716545 495.213718) rotate(-45) scale(0.2 -0.2)">
       <use xlink:href="#DejaVuSans-32"/>
       <use xlink:href="#DejaVuSans-30" x="63.623047"/>
       <use xlink:href="#DejaVuSans-32" x="127.246094"/>
       <use xlink:href="#DejaVuSans-33" x="190.869141"/>
       <use xlink:href="#DejaVuSans-2d" x="254.492188"/>
       <use xlink:href="#DejaVuSans-30" x="290.576172"/>
       <use xlink:href="#DejaVuSans-31" x="354.199219"/>
       <use xlink:href="#DejaVuSans-2d" x="417.822266"/>
       <use xlink:href="#DejaVuSans-30" x="453.90625"/>
       <use xlink:href="#DejaVuSans-33" x="517.529297"/>
      </g>
     </g>
    </g>
    <g id="xtick_13">
     <g id="line2d_13">
      <g>
       <use xlink:href="#m981e2cd0d6" x="789.006548" y="395.28" style="stroke: #000000; stroke-width: 0.8"/>
      </g>
     </g>
     <g id="text_13">
      <!-- 2023-01-31 -->
      <g transform="translate(703.877521 495.213718) rotate(-45) scale(0.2 -0.2)">
       <use xlink:href="#DejaVuSans-32"/>
       <use xlink:href="#DejaVuSans-30" x="63.623047"/>
       <use xlink:href="#DejaVuSans-32" x="127.246094"/>
       <use xlink:href="#DejaVuSans-33" x="190.869141"/>
       <use xlink:href="#DejaVuSans-2d" x="254.492188"/>
       <use xlink:href="#DejaVuSans-30" x="290.576172"/>
       <use xlink:href="#DejaVuSans-31" x="354.199219"/>
       <use xlink:href="#DejaVuSans-2d" x="417.822266"/>
       <use xlink:href="#DejaVuSans-33" x="453.90625"/>
       <use xlink:href="#DejaVuSans-31" x="517.529297"/>
      </g>
     </g>
    </g>
    <g id="xtick_14">
     <g id="line2d_14">
      <g>
       <use xlink:href="#m981e2cd0d6" x="846.167524" y="395.28" style="stroke: #000000; stroke-width: 0.8"/>
      </g>
     </g>
     <g id="text_14">
      <!-- 2023-02-28 -->
      <g transform="translate(761.038496 495.213718) rotate(-45) scale(0.2 -0.2)">
       <use xlink:href="#DejaVuSans-32"/>
       <use xlink:href="#DejaVuSans-30" x="63.623047"/>
       <use xlink:href="#DejaVuSans-32" x="127.246094"/>
       <use xlink:href="#DejaVuSans-33" x="190.869141"/>
       <use xlink:href="#DejaVuSans-2d" x="254.492188"/>
       <use xlink:href="#DejaVuSans-30" x="290.576172"/>
       <use xlink:href="#DejaVuSans-32" x="354.199219"/>
       <use xlink:href="#DejaVuSans-2d" x="417.822266"/>
       <use xlink:href="#DejaVuSans-32" x="453.90625"/>
       <use xlink:href="#DejaVuSans-38" x="517.529297"/>
      </g>
     </g>
    </g>
    <g id="xtick_15">
     <g id="line2d_15">
      <g>
       <use xlink:href="#m981e2cd0d6" x="903.328499" y="395.28" style="stroke: #000000; stroke-width: 0.8"/>
      </g>
     </g>
     <g id="text_15">
      <!-- 2023-03-28 -->
      <g transform="translate(818.199472 495.213718) rotate(-45) scale(0.2 -0.2)">
       <use xlink:href="#DejaVuSans-32"/>
       <use xlink:href="#DejaVuSans-30" x="63.623047"/>
       <use xlink:href="#DejaVuSans-32" x="127.246094"/>
       <use xlink:href="#DejaVuSans-33" x="190.869141"/>
       <use xlink:href="#DejaVuSans-2d" x="254.492188"/>
       <use xlink:href="#DejaVuSans-30" x="290.576172"/>
       <use xlink:href="#DejaVuSans-33" x="354.199219"/>
       <use xlink:href="#DejaVuSans-2d" x="417.822266"/>
       <use xlink:href="#DejaVuSans-32" x="453.90625"/>
       <use xlink:href="#DejaVuSans-38" x="517.529297"/>
      </g>
     </g>
    </g>
    <g id="xtick_16">
     <g id="line2d_16">
      <g>
       <use xlink:href="#m981e2cd0d6" x="940.074841" y="395.28" style="stroke: #000000; stroke-width: 0.8"/>
      </g>
     </g>
     <g id="text_16">
      <!-- 2023-04-15 -->
      <g transform="translate(854.945813 495.213718) rotate(-45) scale(0.2 -0.2)">
       <use xlink:href="#DejaVuSans-32"/>
       <use xlink:href="#DejaVuSans-30" x="63.623047"/>
       <use xlink:href="#DejaVuSans-32" x="127.246094"/>
       <use xlink:href="#DejaVuSans-33" x="190.869141"/>
       <use xlink:href="#DejaVuSans-2d" x="254.492188"/>
       <use xlink:href="#DejaVuSans-30" x="290.576172"/>
       <use xlink:href="#DejaVuSans-34" x="354.199219"/>
       <use xlink:href="#DejaVuSans-2d" x="417.822266"/>
       <use xlink:href="#DejaVuSans-31" x="453.90625"/>
       <use xlink:href="#DejaVuSans-35" x="517.529297"/>
      </g>
     </g>
    </g>
   </g>
   <g id="matplotlib.axis_2">
    <g id="ytick_1">
     <g id="line2d_17">
      <defs>
       <path id="md9d64eadce" d="M 0 0 
L -3.5 0 
" style="stroke: #000000; stroke-width: 0.8"/>
      </defs>
      <g>
       <use xlink:href="#md9d64eadce" x="103.074841" y="342.463143" style="stroke: #000000; stroke-width: 0.8"/>
      </g>
     </g>
     <g id="text_17">
      <!-- 0.10 -->
      <g transform="translate(34.784216 350.06158) scale(0.2 -0.2)">
       <defs>
        <path id="DejaVuSans-2212" d="M 678 2272 
L 4684 2272 
L 4684 1741 
L 678 1741 
L 678 2272 
z
" transform="scale(0.015625)"/>
        <path id="DejaVuSans-2e" d="M 684 794 
L 1344 794 
L 1344 0 
L 684 0 
L 684 794 
z
" transform="scale(0.015625)"/>
       </defs>
       <use xlink:href="#DejaVuSans-2212"/>
       <use xlink:href="#DejaVuSans-30" x="83.789062"/>
       <use xlink:href="#DejaVuSans-2e" x="147.412109"/>
       <use xlink:href="#DejaVuSans-31" x="179.199219"/>
       <use xlink:href="#DejaVuSans-30" x="242.822266"/>
      </g>
     </g>
    </g>
    <g id="ytick_2">
     <g id="line2d_18">
      <g>
       <use xlink:href="#md9d64eadce" x="103.074841" y="269.645278" style="stroke: #000000; stroke-width: 0.8"/>
      </g>
     </g>
     <g id="text_18">
      <!-- 0.05 -->
      <g transform="translate(34.784216 277.243715) scale(0.2 -0.2)">
       <use xlink:href="#DejaVuSans-2212"/>
       <use xlink:href="#DejaVuSans-30" x="83.789062"/>
       <use xlink:href="#DejaVuSans-2e" x="147.412109"/>
       <use xlink:href="#DejaVuSans-30" x="179.199219"/>
       <use xlink:href="#DejaVuSans-35" x="242.822266"/>
      </g>
     </g>
    </g>
    <g id="ytick_3">
     <g id="line2d_19">
      <g>
       <use xlink:href="#md9d64eadce" x="103.074841" y="196.827413" style="stroke: #000000; stroke-width: 0.8"/>
      </g>
     </g>
     <g id="text_19">
      <!-- 0.00 -->
      <g transform="translate(51.543591 204.42585) scale(0.2 -0.2)">
       <use xlink:href="#DejaVuSans-30"/>
       <use xlink:href="#DejaVuSans-2e" x="63.623047"/>
       <use xlink:href="#DejaVuSans-30" x="95.410156"/>
       <use xlink:href="#DejaVuSans-30" x="159.033203"/>
      </g>
     </g>
    </g>
    <g id="ytick_4">
     <g id="line2d_20">
      <g>
       <use xlink:href="#md9d64eadce" x="103.074841" y="124.009548" style="stroke: #000000; stroke-width: 0.8"/>
      </g>
     </g>
     <g id="text_20">
      <!-- 0.05 -->
      <g transform="translate(51.543591 131.607985) scale(0.2 -0.2)">
       <use xlink:href="#DejaVuSans-30"/>
       <use xlink:href="#DejaVuSans-2e" x="63.623047"/>
       <use xlink:href="#DejaVuSans-30" x="95.410156"/>
       <use xlink:href="#DejaVuSans-35" x="159.033203"/>
      </g>
     </g>
    </g>
    <g id="ytick_5">
     <g id="line2d_21">
      <g>
       <use xlink:href="#md9d64eadce" x="103.074841" y="51.191683" style="stroke: #000000; stroke-width: 0.8"/>
      </g>
     </g>
     <g id="text_21">
      <!-- 0.10 -->
      <g transform="translate(51.543591 58.79012) scale(0.2 -0.2)">
       <use xlink:href="#DejaVuSans-30"/>
       <use xlink:href="#DejaVuSans-2e" x="63.623047"/>
       <use xlink:href="#DejaVuSans-31" x="95.410156"/>
       <use xlink:href="#DejaVuSans-30" x="159.033203"/>
      </g>
     </g>
    </g>
   </g>
   <g id="line2d_22">
    <path d="M 0 0 
" clip-path="url(#p3aeb23554b)" style="fill: none; stroke: #ffa500; stroke-width: 1.5; stroke-linecap: square"/>
   </g>
   <g id="line2d_23">
    <path d="M 103.074841 196.827413 
L 948.274841 196.827413 
" clip-path="url(#p3aeb23554b)" style="fill: none; stroke-dasharray: 7.4,3.2; stroke-dashoffset: 0; stroke: #000000; stroke-width: 2"/>
   </g>
   <g id="patch_3">
    <path d="M 103.074841 395.28 
L 103.074841 7.2 
" style="fill: none; stroke: #000000; stroke-width: 0.8; stroke-linejoin: miter; stroke-linecap: square"/>
   </g>
   <g id="patch_4">
    <path d="M 940.074841 395.28 
L 940.074841 7.2 
" style="fill: none; stroke: #000000; stroke-width: 0.8; stroke-linejoin: miter; stroke-linecap: square"/>
   </g>
   <g id="patch_5">
    <path d="M 103.074841 395.28 
L 940.074841 395.28 
" style="fill: none; stroke: #000000; stroke-width: 0.8; stroke-linejoin: miter; stroke-linecap: square"/>
   </g>
   <g id="patch_6">
    <path d="M 103.074841 7.2 
L 940.074841 7.2 
" style="fill: none; stroke: #000000; stroke-width: 0.8; stroke-linejoin: miter; stroke-linecap: square"/>
   </g>
  </g>
 </g>
 <defs>
  <clipPath id="p3aeb23554b">
   <rect x="103.074841" y="7.2" width="837" height="388.08"/>
  </clipPath>
 </defs>
</svg>
