<?xml version="1.0" encoding="utf-8" standalone="no"?>
<!DOCTYPE svg PUBLIC "-//W3C//DTD SVG 1.1//EN"
  "http://www.w3.org/Graphics/SVG/1.1/DTD/svg11.dtd">
<svg xmlns:xlink="http://www.w3.org/1999/xlink" width="947.274841pt" height="505.354841pt" viewBox="0 0 947.274841 505.354841" xmlns="http://www.w3.org/2000/svg" version="1.1">
 <metadata>
  <rdf:RDF xmlns:dc="http://purl.org/dc/elements/1.1/" xmlns:cc="http://creativecommons.org/ns#" xmlns:rdf="http://www.w3.org/1999/02/22-rdf-syntax-ns#">
   <cc:Work>
    <dc:type rdf:resource="http://purl.org/dc/dcmitype/StillImage"/>
    <dc:date>2023-11-12T23:19:36.783444</dc:date>
    <dc:format>image/svg+xml</dc:format>
    <dc:creator>
     <cc:Agent>
      <dc:title>Matplotlib v3.7.2, https://matplotlib.org/</dc:title>
     </cc:Agent>
    </dc:creator>
   </cc:Work>
  </rdf:RDF>
 </metadata>
 <defs>
  <style type="text/css">*{stroke-linejoin: round; stroke-linecap: butt}</style>
 </defs>
 <g id="figure_1">
  <g id="patch_1">
   <path d="M 0 505.354841 
L 947.274841 505.354841 
L 947.274841 -0 
L 0 -0 
z
" style="fill: #ffffff"/>
  </g>
  <g id="axes_1">
   <g id="patch_2">
    <path d="M 103.074841 395.28 
L 940.074841 395.28 
L 940.074841 7.2 
L 103.074841 7.2 
z
" style="fill: #ffffff"/>
   </g>
   <g id="PolyCollection_1">
    <path d="M -393.000769 178.478643 
L -393.000769 178.495847 
L -390.959306 178.40601 
L -388.917842 178.328593 
L -386.876379 178.230314 
L -384.834915 178.165448 
L -382.793452 178.092206 
L -380.751989 178.008523 
L -378.710525 177.925815 
L -376.669062 177.848393 
L -374.627598 177.7808 
L -372.586135 177.702255 
L -370.544672 177.619973 
L -368.503208 177.540225 
L -366.461745 177.441832 
L -364.420281 177.360778 
L -362.378818 177.265 
L -360.337354 177.183515 
L -358.295891 177.072654 
L -356.254428 176.982087 
L -354.212964 176.895004 
L -352.171501 176.791545 
L -350.130037 176.690857 
L -348.088574 176.592572 
L -346.047111 176.473456 
L -344.005647 176.369768 
L -341.964184 176.247967 
L -339.92272 176.124761 
L -337.881257 175.988277 
L -335.839793 175.848141 
L -333.79833 175.711373 
L -331.756867 175.55275 
L -329.715403 175.373453 
L -327.67394 175.214769 
L -325.632476 175.033827 
L -323.591013 174.826612 
L -321.54955 174.634559 
L -319.508086 174.408576 
L -317.466623 174.179561 
L -315.425159 173.943792 
L -313.383696 173.694683 
L -311.342232 173.418104 
L -309.300769 173.123522 
L -307.259306 172.811354 
L -305.217842 172.511539 
L -303.176379 172.157924 
L -301.134915 171.823018 
L -299.093452 171.465954 
L -297.051989 171.108171 
L -295.010525 170.722397 
L -292.969062 170.304341 
L -290.927598 169.918977 
L -288.886135 169.488518 
L -286.844672 169.04322 
L -284.803208 168.607765 
L -282.761745 168.177589 
L -280.720281 167.709661 
L -278.678818 167.236946 
L -276.637354 166.765415 
L -274.595891 166.274365 
L -272.554428 165.778022 
L -270.512964 165.28312 
L -268.471501 164.770786 
L -266.430037 164.257454 
L -264.388574 163.752625 
L -262.347111 163.226301 
L -260.305647 162.661866 
L -258.264184 162.115809 
L -256.22272 161.571283 
L -254.181257 161.035746 
L -252.139793 160.477203 
L -250.09833 159.9321 
L -248.056867 159.377197 
L -246.015403 158.878279 
L -243.97394 158.286781 
L -241.932476 157.776516 
L -239.891013 157.215246 
L -237.84955 156.681398 
L -235.808086 156.11986 
L -233.766623 155.626318 
L -231.725159 155.056443 
L -229.683696 154.52177 
L -227.642232 154.018173 
L -225.600769 153.478523 
L -223.559306 152.969418 
L -221.517842 152.435652 
L -219.476379 151.890972 
L -217.434915 151.373564 
L -215.393452 150.870151 
L -213.351989 150.326125 
L -211.310525 149.80355 
L -209.269062 149.270137 
L -207.227598 148.752967 
L -205.186135 148.248162 
L -203.144672 147.728649 
L -201.103208 147.203622 
L -199.061745 146.732128 
L -197.020281 146.195754 
L -194.978818 145.682135 
L -192.937354 145.176812 
L -190.895891 144.670569 
L -188.854428 144.165379 
L -186.812964 143.653184 
L -184.771501 143.164893 
L -182.730037 142.656152 
L -180.688574 142.134251 
L -178.647111 141.606193 
L -176.605647 141.072129 
L -174.564184 140.572422 
L -172.52272 140.021553 
L -170.481257 139.433688 
L -168.439793 138.881971 
L -166.39833 138.299688 
L -164.356867 137.708439 
L -162.315403 137.083838 
L -160.27394 136.448015 
L -158.232476 135.857738 
L -156.191013 135.183457 
L -154.14955 134.542984 
L -152.108086 133.853307 
L -150.066623 133.220783 
L -148.025159 132.476121 
L -145.983696 131.746781 
L -143.942232 131.038114 
L -141.900769 130.316986 
L -139.859306 129.573434 
L -137.817842 128.796218 
L -135.776379 128.068595 
L -133.734915 127.234391 
L -131.693452 126.501991 
L -129.651989 125.643379 
L -127.610525 124.81185 
L -125.569062 124.000356 
L -123.527598 123.22243 
L -121.486135 122.313273 
L -119.444672 121.49319 
L -117.403208 120.448096 
L -115.361745 119.550549 
L -113.320281 118.715159 
L -111.278818 117.770813 
L -109.237354 116.802132 
L -107.195891 115.68528 
L -105.154428 114.639839 
L -103.112964 113.769606 
L -101.071501 112.385927 
L -99.030037 111.27742 
L -96.988574 110.144825 
L -94.947111 108.97028 
L -92.905647 107.631975 
L -90.864184 106.374861 
L -88.82272 105.42941 
L -86.781257 104.221583 
L -84.739793 102.232085 
L -82.69833 100.562033 
L -80.656867 99.332097 
L -78.615403 97.624966 
L -76.57394 96.211681 
L -74.532476 94.983574 
L -72.491013 93.113074 
L -70.44955 90.983989 
L -68.408086 89.53275 
L -66.366623 88.609807 
L -64.325159 86.833437 
L -62.283696 86.048056 
L -60.242232 85.058768 
L -58.200769 83.265557 
L -56.159306 83.437277 
L -54.117842 84.208202 
L -52.076379 85.808501 
L -50.034915 84.060814 
L -47.993452 87.588238 
L -45.951989 88.38264 
L -43.910525 83.671685 
L -41.869062 85.020634 
L -39.827598 87.120774 
L -37.786135 85.891484 
L -35.744672 85.641297 
L -33.703208 94.616615 
L -31.661745 107.364604 
L -29.620281 113.693938 
L -27.578818 99.820869 
L -25.537354 106.912076 
L -23.495891 116.201685 
L -21.454428 115.618194 
L -19.412964 134.542138 
L -17.371501 131.892014 
L -15.330037 126.027655 
L -13.288574 111.585182 
L -11.247111 125.051703 
L -9.205647 133.119934 
L -7.164184 129.654973 
L -5.12272 131.708529 
L -3.081257 139.312185 
L -1.039793 138.210492 
L 1.00167 131.516856 
L 3.043133 139.751775 
L 5.084597 141.314046 
L 7.12606 138.255384 
L 9.167524 143.443858 
L 11.208987 145.278914 
L 13.25045 144.664676 
L 15.291914 142.966416 
L 17.333377 144.602418 
L 19.374841 142.731342 
L 21.416304 142.7829 
L 23.457768 144.33512 
L 25.499231 142.682774 
L 27.540694 143.39707 
L 29.582158 143.349359 
L 31.623621 141.994671 
L 33.665085 142.36333 
L 35.706548 140.453896 
L 37.748011 140.484001 
L 39.789475 140.903422 
L 41.830938 140.85155 
L 43.872402 139.888674 
L 45.913865 139.05517 
L 47.955328 138.797316 
L 49.996792 137.894208 
L 52.038255 137.700374 
L 54.079719 137.490019 
L 56.121182 136.1738 
L 58.162646 136.737453 
L 60.204109 135.874474 
L 62.245572 135.497412 
L 64.287036 135.516685 
L 66.328499 134.698099 
L 68.369963 134.508205 
L 70.411426 134.820092 
L 72.452889 135.33036 
L 74.494353 134.051488 
L 76.535816 133.898364 
L 78.57728 133.538265 
L 80.618743 135.975299 
L 82.660207 136.17646 
L 84.70167 137.25159 
L 86.743133 135.216439 
L 88.784597 134.023008 
L 90.82606 134.635468 
L 92.867524 136.376553 
L 94.908987 136.875297 
L 96.95045 134.429851 
L 98.991914 136.960409 
L 101.033377 136.68337 
L 103.074841 136.614908 
L 105.116304 135.687988 
L 107.157768 137.030816 
L 109.199231 136.784908 
L 111.240694 137.734815 
L 113.282158 137.334071 
L 115.323621 137.11502 
L 117.365085 136.396384 
L 119.406548 136.286395 
L 121.448011 136.237967 
L 123.489475 136.020211 
L 125.530938 136.365439 
L 127.572402 136.252081 
L 129.613865 136.116808 
L 131.655328 134.875635 
L 133.696792 134.065574 
L 135.738255 134.017911 
L 137.779719 133.100691 
L 139.821182 133.404306 
L 141.862646 132.730608 
L 143.904109 131.45044 
L 145.945572 130.489618 
L 147.987036 129.932619 
L 150.028499 128.597588 
L 152.069963 128.053125 
L 154.111426 126.967185 
L 156.152889 126.094591 
L 158.194353 124.835798 
L 160.235816 123.917898 
L 162.27728 122.441909 
L 164.318743 121.432483 
L 166.360207 120.292189 
L 168.40167 118.54571 
L 170.443133 116.976557 
L 172.484597 116.032801 
L 174.52606 114.729993 
L 176.567524 113.137814 
L 178.608987 112.051895 
L 180.65045 110.568428 
L 182.691914 108.104978 
L 184.733377 107.493977 
L 186.774841 105.532006 
L 188.816304 104.169269 
L 190.857768 102.612849 
L 192.899231 100.911417 
L 194.940694 99.159067 
L 196.982158 97.649635 
L 199.023621 95.319283 
L 201.065085 94.219918 
L 203.106548 91.983226 
L 205.148011 90.868305 
L 207.189475 88.654194 
L 209.230938 86.636932 
L 211.272402 84.901643 
L 213.313865 83.725972 
L 215.355328 81.172825 
L 217.396792 79.767805 
L 219.438255 77.611645 
L 221.479719 76.038491 
L 223.521182 73.71633 
L 225.562646 71.952567 
L 227.604109 72.64071 
L 229.645572 68.216226 
L 231.687036 68.385853 
L 233.728499 66.094549 
L 235.769963 64.823444 
L 237.811426 63.139285 
L 239.852889 61.272093 
L 241.894353 59.665414 
L 243.935816 58.13325 
L 245.97728 56.733958 
L 248.018743 55.306372 
L 250.060207 57.92905 
L 252.10167 51.983332 
L 254.143133 51.102675 
L 256.184597 57.422398 
L 258.22606 50.020869 
L 260.267524 52.09385 
L 262.308987 51.887316 
L 264.35045 48.341998 
L 266.391914 49.775108 
L 268.433377 54.408538 
L 270.474841 51.98156 
L 272.516304 51.288911 
L 274.557768 54.445236 
L 276.599231 54.162217 
L 278.640694 56.394189 
L 280.682158 59.381442 
L 282.723621 63.487597 
L 284.765085 73.282965 
L 286.806548 71.52006 
L 288.848011 76.84947 
L 290.889475 81.173757 
L 292.930938 83.832568 
L 294.972402 89.240623 
L 297.013865 92.629444 
L 299.055328 86.915503 
L 301.096792 92.85748 
L 303.138255 101.120956 
L 305.179719 105.131608 
L 307.221182 106.280171 
L 309.262646 116.610175 
L 311.304109 117.381883 
L 313.345572 119.610431 
L 315.387036 119.410049 
L 317.428499 128.241206 
L 319.469963 125.133786 
L 321.511426 123.689185 
L 323.552889 131.257035 
L 325.594353 138.388965 
L 327.635816 136.553034 
L 329.67728 140.00604 
L 331.718743 140.097114 
L 333.760207 140.077266 
L 335.80167 139.836404 
L 337.843133 142.07904 
L 339.884597 143.293193 
L 341.92606 150.606226 
L 343.967524 146.69777 
L 346.008987 153.0736 
L 348.05045 151.541279 
L 350.091914 150.606986 
L 352.133377 153.184522 
L 354.174841 155.493373 
L 356.216304 152.531318 
L 358.257768 154.003165 
L 360.299231 154.133732 
L 362.340694 157.70902 
L 364.382158 156.049876 
L 366.423621 155.335706 
L 368.465085 156.468811 
L 370.506548 158.307818 
L 372.548011 157.656494 
L 374.589475 156.191959 
L 376.630938 157.377825 
L 378.672402 155.091421 
L 380.713865 155.650035 
L 382.755328 160.163467 
L 384.796792 160.254277 
L 386.838255 158.265131 
L 388.879719 158.073297 
L 390.921182 158.756277 
L 392.962646 156.643304 
L 395.004109 157.709326 
L 397.045572 158.187326 
L 399.087036 158.136503 
L 401.128499 157.963859 
L 403.169963 156.924966 
L 405.211426 158.389539 
L 407.252889 157.880306 
L 409.294353 158.20725 
L 411.335816 158.200401 
L 413.37728 158.855249 
L 415.418743 158.215424 
L 417.460207 156.612639 
L 419.50167 157.058489 
L 421.543133 155.893135 
L 423.584597 153.808114 
L 425.62606 156.343319 
L 427.667524 153.515906 
L 429.708987 155.448974 
L 431.75045 155.350593 
L 433.791914 156.290507 
L 435.833377 154.609795 
L 437.874841 155.018807 
L 439.916304 155.489603 
L 441.957768 152.764524 
L 443.999231 154.4821 
L 446.040694 154.755507 
L 448.082158 155.291447 
L 450.123621 154.622933 
L 452.165085 155.752303 
L 454.206548 155.140918 
L 456.248011 154.803262 
L 458.289475 152.953273 
L 460.330938 152.69718 
L 462.372402 152.657776 
L 464.413865 152.458145 
L 466.455328 153.096347 
L 468.496792 153.147128 
L 470.538255 152.273365 
L 472.579719 152.987719 
L 474.621182 152.442155 
L 476.662646 153.152226 
L 478.704109 153.346135 
L 480.745572 154.213525 
L 482.787036 153.167661 
L 484.828499 150.317257 
L 486.869963 153.904192 
L 488.911426 154.208751 
L 490.952889 154.032027 
L 492.994353 153.887741 
L 495.035816 152.805894 
L 497.07728 153.05809 
L 499.118743 152.383974 
L 501.160207 152.940175 
L 503.20167 152.915018 
L 505.243133 151.63644 
L 507.284597 150.293092 
L 509.32606 153.163108 
L 511.367524 152.941455 
L 513.408987 151.265199 
L 515.45045 152.606457 
L 517.491914 150.06991 
L 519.533377 149.910108 
L 521.574841 150.897741 
L 523.616304 149.050907 
L 525.657768 153.058796 
L 527.699231 149.951334 
L 529.740694 147.939075 
L 531.782158 150.171259 
L 533.823621 151.476268 
L 535.865085 151.497325 
L 537.906548 153.579844 
L 539.948011 151.829938 
L 541.989475 156.015368 
L 544.030938 153.215284 
L 546.072402 154.162607 
L 548.113865 153.755753 
L 550.155328 151.998498 
L 552.196792 155.411474 
L 554.238255 161.016644 
L 556.279719 155.384482 
L 558.321182 157.204356 
L 560.362646 154.718019 
L 562.404109 158.393082 
L 564.445572 156.277818 
L 566.487036 156.196174 
L 568.528499 155.231396 
L 570.569963 158.835925 
L 572.611426 158.297991 
L 574.652889 160.793701 
L 576.694353 160.771389 
L 578.735816 154.867501 
L 580.77728 159.247636 
L 582.818743 157.236578 
L 584.860207 160.394854 
L 586.90167 159.775007 
L 588.943133 164.026723 
L 590.984597 166.36714 
L 593.02606 166.742887 
L 595.067524 173.225571 
L 597.108987 181.78125 
L 599.15045 170.387556 
L 601.191914 171.679831 
L 603.233377 169.596185 
L 605.274841 173.577844 
L 607.316304 174.645291 
L 609.357768 174.831418 
L 611.399231 185.175154 
L 613.440694 184.845953 
L 615.482158 176.435352 
L 617.523621 184.747309 
L 619.565085 182.766781 
L 621.606548 178.514834 
L 623.648011 189.224022 
L 625.689475 188.458119 
L 627.730938 194.155228 
L 629.772402 189.377329 
L 631.813865 188.02124 
L 633.855328 192.391273 
L 635.896792 192.141485 
L 637.938255 197.563564 
L 639.979719 193.554859 
L 642.021182 201.768273 
L 644.062646 198.088984 
L 646.104109 201.11209 
L 648.145572 199.839253 
L 650.187036 203.980933 
L 652.228499 197.571738 
L 654.269963 206.674385 
L 656.311426 204.940081 
L 658.352889 212.491713 
L 660.394353 212.105726 
L 662.435816 216.178824 
L 664.47728 214.650148 
L 666.518743 217.298346 
L 668.560207 223.314931 
L 670.60167 218.98953 
L 672.643133 217.770821 
L 674.684597 220.795757 
L 676.72606 224.524321 
L 678.767524 220.425832 
L 680.808987 215.788865 
L 682.85045 227.394075 
L 684.891914 235.954167 
L 686.933377 222.274666 
L 688.974841 225.82921 
L 691.016304 228.815978 
L 693.057768 228.581291 
L 695.099231 235.367844 
L 697.140694 236.14572 
L 699.182158 232.563442 
L 701.223621 236.116135 
L 703.265085 237.317832 
L 705.306548 229.968175 
L 707.348011 232.837884 
L 709.389475 229.758417 
L 711.430938 242.434445 
L 713.472402 254.749967 
L 715.513865 252.604919 
L 717.555328 242.814075 
L 719.596792 242.033334 
L 721.638255 242.717913 
L 723.679719 242.210576 
L 725.721182 252.984678 
L 727.762646 242.064779 
L 729.804109 254.301171 
L 731.845572 264.173602 
L 733.887036 255.852273 
L 735.928499 270.560782 
L 737.969963 259.830879 
L 740.011426 270.414367 
L 742.052889 264.834998 
L 744.094353 267.839144 
L 746.135816 275.095639 
L 748.17728 274.973946 
L 750.218743 277.311004 
L 752.260207 277.215693 
L 754.30167 277.923731 
L 756.343133 258.456459 
L 758.384597 285.018643 
L 760.42606 295.275956 
L 762.467524 285.627042 
L 764.508987 291.360195 
L 766.55045 297.742523 
L 768.591914 289.341743 
L 770.633377 299.184629 
L 772.674841 306.975765 
L 774.716304 302.311625 
L 776.757768 306.621074 
L 778.799231 308.757789 
L 780.840694 309.999486 
L 782.882158 312.296831 
L 784.923621 301.266804 
L 786.965085 322.652908 
L 789.006548 322.859635 
L 791.048011 322.758268 
L 793.089475 308.78643 
L 795.130938 327.025002 
L 797.172402 336.801971 
L 799.213865 327.697968 
L 801.255328 327.569141 
L 803.296792 343.891582 
L 805.338255 313.03308 
L 807.379719 340.670106 
L 809.421182 320.273426 
L 811.462646 349.290807 
L 813.504109 337.345422 
L 815.545572 348.267043 
L 817.587036 351.22828 
L 819.628499 354.069255 
L 821.669963 355.164057 
L 823.711426 348.701448 
L 825.752889 349.571036 
L 827.794353 355.595876 
L 829.835816 362.656171 
L 831.87728 362.65389 
L 833.918743 361.517204 
L 835.960207 368.688811 
L 838.00167 368.274256 
L 840.043133 362.391932 
L 842.084597 361.188449 
L 844.12606 374.655211 
L 846.167524 375.310057 
L 848.208987 377.64 
L 850.25045 370.075858 
L 852.291914 353.15187 
L 854.333377 370.169831 
L 856.374841 365.099874 
L 858.416304 369.045759 
L 860.457768 374.572821 
L 862.499231 365.876967 
L 864.540694 376.092559 
L 866.582158 366.798043 
L 868.623621 365.975676 
L 870.665085 366.373448 
L 872.706548 372.290753 
L 874.748011 371.096902 
L 876.789475 369.231532 
L 878.830938 361.911713 
L 880.872402 365.117623 
L 882.913865 367.374427 
L 884.955328 363.832626 
L 886.996792 368.536902 
L 889.038255 363.827072 
L 891.079719 366.735376 
L 893.121182 371.732854 
L 895.162646 370.344269 
L 897.204109 364.325914 
L 899.245572 363.946879 
L 901.287036 362.41298 
L 903.328499 364.40959 
L 905.369963 363.817334 
L 907.411426 354.269707 
L 909.452889 360.870587 
L 911.494353 318.021988 
L 913.535816 359.85391 
L 915.57728 362.213378 
L 917.618743 355.490314 
L 919.660207 348.516384 
L 921.70167 360.396573 
L 923.743133 354.285442 
L 925.784597 343.992306 
L 927.82606 349.607422 
L 929.867524 349.195501 
L 931.908987 345.972722 
L 933.95045 351.281826 
L 935.991914 346.348751 
L 938.033377 348.212026 
L 940.074841 349.41197 
L 940.074841 177.082284 
L 940.074841 177.082284 
L 938.033377 181.42838 
L 935.991914 179.830753 
L 933.95045 182.272572 
L 931.908987 179.927048 
L 929.867524 181.79895 
L 927.82606 181.158365 
L 925.784597 182.58131 
L 923.743133 186.594299 
L 921.70167 187.730686 
L 919.660207 186.028566 
L 917.618743 187.255585 
L 915.57728 191.656996 
L 913.535816 189.939801 
L 911.494353 183.260674 
L 909.452889 192.267455 
L 907.411426 191.651251 
L 905.369963 194.427641 
L 903.328499 195.376925 
L 901.287036 195.444248 
L 899.245572 197.468546 
L 897.204109 198.243574 
L 895.162646 200.786733 
L 893.121182 202.051481 
L 891.079719 201.743248 
L 889.038255 201.540968 
L 886.996792 203.146763 
L 884.955328 201.956629 
L 882.913865 203.71445 
L 880.872402 204.186306 
L 878.830938 203.884475 
L 876.789475 207.393849 
L 874.748011 208.725208 
L 872.706548 210.603004 
L 870.665085 208.161724 
L 868.623621 209.305829 
L 866.582158 210.643379 
L 864.540694 214.351306 
L 862.499231 211.405526 
L 860.457768 215.299309 
L 858.416304 213.839684 
L 856.374841 213.220996 
L 854.333377 215.711494 
L 852.291914 211.061332 
L 850.25045 216.764272 
L 848.208987 220.89028 
L 846.167524 220.716188 
L 844.12606 220.925178 
L 842.084597 217.602918 
L 840.043133 217.973579 
L 838.00167 220.863161 
L 835.960207 221.396798 
L 833.918743 219.398395 
L 831.87728 220.19692 
L 829.835816 221.415693 
L 827.794353 217.651623 
L 825.752889 216.964714 
L 823.711426 217.468711 
L 821.669963 220.636705 
L 819.628499 220.689994 
L 817.587036 219.464601 
L 815.545572 218.73982 
L 813.504109 215.131766 
L 811.462646 220.192749 
L 809.421182 211.152875 
L 807.379719 218.516305 
L 805.338255 208.06351 
L 803.296792 220.314335 
L 801.255328 214.147038 
L 799.213865 214.130723 
L 797.172402 219.58563 
L 795.130938 215.333145 
L 793.089475 208.619429 
L 791.048011 215.04997 
L 789.006548 215.183613 
L 786.965085 215.483958 
L 784.923621 206.44777 
L 782.882158 214.595137 
L 780.840694 211.351361 
L 778.799231 210.671045 
L 776.757768 210.447466 
L 774.716304 209.648056 
L 772.674841 212.094874 
L 770.633377 209.289109 
L 768.591914 204.810651 
L 766.55045 207.779368 
L 764.508987 207.345238 
L 762.467524 203.446808 
L 760.42606 208.732041 
L 758.384597 204.287676 
L 756.343133 192.735697 
L 754.30167 202.4775 
L 752.260207 202.552561 
L 750.218743 202.718955 
L 748.17728 202.022261 
L 746.135816 202.747927 
L 744.094353 199.395171 
L 742.052889 197.942994 
L 740.011426 200.963702 
L 737.969963 197.551039 
L 735.928499 202.438654 
L 733.887036 195.792619 
L 731.845572 200.833696 
L 729.804109 195.73588 
L 727.762646 189.273553 
L 725.721182 196.173753 
L 723.679719 191.431751 
L 721.638255 191.525708 
L 719.596792 191.137924 
L 717.555328 192.065393 
L 715.513865 197.90307 
L 713.472402 199.265747 
L 711.430938 192.718567 
L 709.389475 187.427746 
L 707.348011 188.959712 
L 705.306548 187.192125 
L 703.265085 191.494807 
L 701.223621 191.322928 
L 699.182158 189.92901 
L 697.140694 191.688857 
L 695.099231 192.40526 
L 693.057768 188.844302 
L 691.016304 188.481678 
L 688.974841 187.524284 
L 686.933377 185.465574 
L 684.891914 193.110592 
L 682.85045 189.957685 
L 680.808987 182.720985 
L 678.767524 184.650178 
L 676.72606 187.95105 
L 674.684597 186.197085 
L 672.643133 184.242687 
L 670.60167 184.877167 
L 668.560207 186.469429 
L 666.518743 184.836781 
L 664.47728 182.573591 
L 662.435816 183.531212 
L 660.394353 183.557053 
L 658.352889 181.674622 
L 656.311426 178.087609 
L 654.269963 178.354201 
L 652.228499 173.052782 
L 650.187036 177.907777 
L 648.145572 174.802144 
L 646.104109 175.319176 
L 644.062646 172.494843 
L 642.021182 176.218581 
L 639.979719 170.933419 
L 637.938255 172.86821 
L 635.896792 169.647523 
L 633.855328 169.600836 
L 631.813865 166.320802 
L 629.772402 169.796033 
L 627.730938 171.363559 
L 625.689475 166.241474 
L 623.648011 167.885352 
L 621.606548 159.930006 
L 619.565085 162.001575 
L 617.523621 165.348523 
L 615.482158 158.847672 
L 613.440694 166.227441 
L 611.399231 164.000999 
L 609.357768 157.741544 
L 607.316304 157.88615 
L 605.274841 157.337888 
L 603.233377 154.510937 
L 601.191914 154.41591 
L 599.15045 154.62118 
L 597.108987 163.591233 
L 595.067524 156.259551 
L 593.02606 151.83354 
L 590.984597 152.030213 
L 588.943133 150.389803 
L 586.90167 146.270682 
L 584.860207 145.783766 
L 582.818743 145.223969 
L 580.77728 144.870472 
L 578.735816 142.059264 
L 576.694353 148.190668 
L 574.652889 147.547724 
L 572.611426 145.085947 
L 570.569963 146.03291 
L 568.528499 143.305958 
L 566.487036 143.42444 
L 564.445572 144.316844 
L 562.404109 144.196611 
L 560.362646 142.78885 
L 558.321182 144.455334 
L 556.279719 143.709335 
L 554.238255 148.906389 
L 552.196792 143.554596 
L 550.155328 140.375737 
L 548.113865 142.109581 
L 546.072402 144.146353 
L 544.030938 142.994313 
L 541.989475 144.420941 
L 539.948011 140.510074 
L 537.906548 142.020038 
L 535.865085 140.698004 
L 533.823621 141.661594 
L 531.782158 140.672052 
L 529.740694 137.80222 
L 527.699231 139.553975 
L 525.657768 143.270991 
L 523.616304 139.101671 
L 521.574841 141.1945 
L 519.533377 140.764256 
L 517.491914 140.124336 
L 515.45045 143.355322 
L 513.408987 141.914478 
L 511.367524 143.620284 
L 509.32606 144.101805 
L 507.284597 140.942147 
L 505.243133 142.987246 
L 503.20167 144.360214 
L 501.160207 144.480612 
L 499.118743 144.095 
L 497.07728 144.758633 
L 495.035816 144.876174 
L 492.994353 146.288871 
L 490.952889 146.825927 
L 488.911426 147.309531 
L 486.869963 147.08622 
L 484.828499 144.061078 
L 482.787036 146.843333 
L 480.745572 148.301145 
L 478.704109 147.699557 
L 476.662646 147.288906 
L 474.621182 146.67689 
L 472.579719 147.375243 
L 470.538255 146.409982 
L 468.496792 147.577672 
L 466.455328 147.486455 
L 464.413865 146.3471 
L 462.372402 146.281461 
L 460.330938 146.445191 
L 458.289475 146.623224 
L 456.248011 149.003746 
L 454.206548 148.968157 
L 452.165085 149.6794 
L 450.123621 148.062123 
L 448.082158 148.678741 
L 446.040694 147.935764 
L 443.999231 147.482055 
L 441.957768 144.918834 
L 439.916304 148.393201 
L 437.874841 147.754252 
L 435.833377 146.998116 
L 433.791914 148.596605 
L 431.75045 147.268797 
L 429.708987 147.2303 
L 427.667524 144.671787 
L 425.62606 147.153682 
L 423.584597 144.786861 
L 421.543133 147.076381 
L 419.50167 148.300965 
L 417.460207 147.676174 
L 415.418743 149.484859 
L 413.37728 150.586786 
L 411.335816 149.049204 
L 409.294353 149.172372 
L 407.252889 148.180232 
L 405.211426 148.783621 
L 403.169963 146.76759 
L 401.128499 148.179902 
L 399.087036 148.897441 
L 397.045572 148.776566 
L 395.004109 148.150975 
L 392.962646 147.415514 
L 390.921182 149.18774 
L 388.879719 148.641832 
L 386.838255 149.304199 
L 384.796792 150.904369 
L 382.755328 150.636677 
L 380.713865 146.977061 
L 378.672402 146.655291 
L 376.630938 148.692526 
L 374.589475 148.028234 
L 372.548011 149.174313 
L 370.506548 149.776512 
L 368.465085 148.045706 
L 366.423621 148.124506 
L 364.382158 148.479044 
L 362.340694 149.801983 
L 360.299231 146.648631 
L 358.257768 146.926134 
L 356.216304 146.206528 
L 354.174841 148.540556 
L 352.133377 147.485944 
L 350.091914 145.14194 
L 348.05045 146.121223 
L 346.008987 147.168667 
L 343.967524 141.979249 
L 341.92606 145.640428 
L 339.884597 139.265984 
L 337.843133 138.327423 
L 335.80167 136.504953 
L 333.760207 137.178204 
L 331.718743 137.026497 
L 329.67728 135.674718 
L 327.635816 132.354195 
L 325.594353 133.740525 
L 323.552889 126.373499 
L 321.511426 116.936852 
L 319.469963 119.10819 
L 317.428499 122.901736 
L 315.387036 111.549087 
L 313.345572 112.549036 
L 311.304109 109.20758 
L 309.262646 108.269133 
L 307.221182 94.561842 
L 305.179719 92.49898 
L 303.138255 87.537104 
L 301.096792 77.069223 
L 299.055328 68.755843 
L 297.013865 76.864532 
L 294.972402 72.232805 
L 292.930938 64.92465 
L 290.889475 61.77914 
L 288.848011 56.520825 
L 286.806548 49.577705 
L 284.765085 51.875678 
L 282.723621 40.2448 
L 280.682158 34.018956 
L 278.640694 31.082757 
L 276.599231 28.608581 
L 274.557768 29.526407 
L 272.516304 26.488812 
L 270.474841 28.539346 
L 268.433377 31.32622 
L 266.391914 25.693117 
L 264.35045 24.84 
L 262.308987 29.551722 
L 260.267524 30.308939 
L 258.22606 27.947253 
L 256.184597 37.946267 
L 254.143133 30.176609 
L 252.10167 32.202415 
L 250.060207 39.669159 
L 248.018743 36.934925 
L 245.97728 39.335472 
L 243.935816 41.411645 
L 241.894353 43.93521 
L 239.852889 46.289407 
L 237.811426 49.011799 
L 235.769963 51.476205 
L 233.728499 53.36457 
L 231.687036 56.729582 
L 229.645572 57.038706 
L 227.604109 62.778707 
L 225.562646 62.343604 
L 223.521182 64.856307 
L 221.479719 67.896861 
L 219.438255 69.930203 
L 217.396792 71.781612 
L 215.355328 73.008424 
L 213.313865 75.292779 
L 211.272402 76.264802 
L 209.230938 77.697545 
L 207.189475 79.576993 
L 205.148011 81.531626 
L 203.106548 82.345351 
L 201.065085 84.227505 
L 199.023621 85.216764 
L 196.982158 87.208372 
L 194.940694 88.556173 
L 192.899231 89.909025 
L 190.857768 91.516917 
L 188.816304 92.85654 
L 186.774841 93.875341 
L 184.733377 95.46147 
L 182.691914 95.848377 
L 180.65045 98.03265 
L 178.608987 99.248839 
L 176.567524 100.232918 
L 174.52606 101.629811 
L 172.484597 102.177436 
L 170.443133 103.336935 
L 168.40167 104.551303 
L 166.360207 105.982806 
L 164.318743 106.903571 
L 162.27728 107.81527 
L 160.235816 108.887673 
L 158.194353 109.90848 
L 156.152889 111.069953 
L 154.111426 111.861078 
L 152.069963 112.798639 
L 150.028499 113.442576 
L 147.987036 114.635276 
L 145.945572 115.303828 
L 143.904109 116.170815 
L 141.862646 117.426955 
L 139.821182 118.100693 
L 137.779719 117.851798 
L 135.738255 118.830079 
L 133.696792 119.037296 
L 131.655328 119.981643 
L 129.613865 121.185895 
L 127.572402 121.532341 
L 125.530938 121.845552 
L 123.489475 121.489248 
L 121.448011 121.895297 
L 119.406548 121.950372 
L 117.365085 122.063899 
L 115.323621 122.892426 
L 113.282158 123.195747 
L 111.240694 123.844192 
L 109.199231 122.82088 
L 107.157768 123.033593 
L 105.116304 121.708807 
L 103.074841 122.866146 
L 101.033377 122.762619 
L 98.991914 123.545065 
L 96.95045 120.920986 
L 94.908987 123.483315 
L 92.867524 122.995509 
L 90.82606 121.142115 
L 88.784597 120.524835 
L 86.743133 121.786085 
L 84.70167 124.109092 
L 82.660207 122.936129 
L 80.618743 122.722093 
L 78.57728 120.044449 
L 76.535816 119.907968 
L 74.494353 120.539417 
L 72.452889 122.004019 
L 70.411426 121.415562 
L 68.369963 121.031475 
L 66.328499 121.230319 
L 64.287036 122.14508 
L 62.245572 121.89262 
L 60.204109 122.474098 
L 58.162646 123.464707 
L 56.121182 122.751626 
L 54.079719 124.212259 
L 52.038255 124.44439 
L 49.996792 124.635248 
L 47.955328 125.574865 
L 45.913865 125.825757 
L 43.872402 126.873192 
L 41.830938 128.015621 
L 39.789475 128.062445 
L 37.748011 127.644951 
L 35.706548 127.359403 
L 33.665085 129.75841 
L 31.623621 129.388027 
L 29.582158 131.01204 
L 27.540694 131.077014 
L 25.499231 130.506299 
L 23.457768 132.113242 
L 21.416304 130.695594 
L 19.374841 130.810604 
L 17.333377 132.839768 
L 15.291914 131.443503 
L 13.25045 133.358328 
L 11.208987 133.992586 
L 9.167524 132.436868 
L 7.12606 127.417124 
L 5.084597 130.669539 
L 3.043133 129.1469 
L 1.00167 121.657189 
L -1.039793 128.068567 
L -3.081257 129.396299 
L -5.12272 122.462162 
L -7.164184 120.56454 
L -9.205647 124.287622 
L -11.247111 116.754351 
L -13.288574 102.954342 
L -15.330037 118.097219 
L -17.371501 123.826487 
L -19.412964 126.661058 
L -21.454428 108.046813 
L -23.495891 108.821643 
L -25.537354 99.43409 
L -27.578818 92.155869 
L -29.620281 106.824098 
L -31.661745 100.495451 
L -33.703208 87.431507 
L -35.744672 78.275512 
L -37.786135 78.808953 
L -39.827598 80.350028 
L -41.869062 78.379969 
L -43.910525 77.204604 
L -45.951989 82.370139 
L -47.993452 81.719075 
L -50.034915 78.295841 
L -52.076379 80.330822 
L -54.117842 78.874222 
L -56.159306 78.288656 
L -58.200769 78.375769 
L -60.242232 80.378069 
L -62.283696 81.551133 
L -64.325159 82.216084 
L -66.366623 83.949699 
L -68.408086 84.732217 
L -70.44955 86.118004 
L -72.491013 88.339206 
L -74.532476 90.078182 
L -76.57394 91.254446 
L -78.615403 92.57168 
L -80.656867 94.319335 
L -82.69833 95.415933 
L -84.739793 97.093874 
L -86.781257 99.124009 
L -88.82272 100.3295 
L -90.864184 101.134958 
L -92.905647 102.382356 
L -94.947111 103.666548 
L -96.988574 104.845227 
L -99.030037 105.973197 
L -101.071501 107.060415 
L -103.112964 108.556322 
L -105.154428 109.329639 
L -107.195891 110.408006 
L -109.237354 111.537157 
L -111.278818 112.502219 
L -113.320281 113.457644 
L -115.361745 114.255777 
L -117.403208 115.125674 
L -119.444672 116.283115 
L -121.486135 117.091809 
L -123.527598 118.037942 
L -125.569062 118.796411 
L -127.610525 119.636407 
L -129.651989 120.497748 
L -131.693452 121.371724 
L -133.734915 122.105665 
L -135.776379 122.975092 
L -137.817842 123.738185 
L -139.859306 124.557014 
L -141.900769 125.318834 
L -143.942232 126.10539 
L -145.983696 126.831675 
L -148.025159 127.59179 
L -150.066623 128.413099 
L -152.108086 129.036512 
L -154.14955 129.819748 
L -156.191013 130.493987 
L -158.232476 131.277024 
L -160.27394 131.847508 
L -162.315403 132.575399 
L -164.356867 133.268932 
L -166.39833 133.929027 
L -168.439793 134.601229 
L -170.481257 135.222459 
L -172.52272 135.947946 
L -174.564184 136.600334 
L -176.605647 137.136544 
L -178.647111 137.774306 
L -180.688574 138.410995 
L -182.730037 139.044372 
L -184.771501 139.654891 
L -186.812964 140.223018 
L -188.854428 140.848769 
L -190.895891 141.461628 
L -192.937354 142.07742 
L -194.978818 142.69071 
L -197.020281 143.320346 
L -199.061745 143.97473 
L -201.103208 144.536551 
L -203.144672 145.180923 
L -205.186135 145.812621 
L -207.227598 146.418108 
L -209.269062 147.042849 
L -211.310525 147.680319 
L -213.351989 148.297918 
L -215.393452 148.946462 
L -217.434915 149.536126 
L -219.476379 150.138381 
L -221.517842 150.775515 
L -223.559306 151.390165 
L -225.600769 151.972476 
L -227.642232 152.589399 
L -229.683696 153.150518 
L -231.725159 153.751193 
L -233.766623 154.392085 
L -235.808086 154.939491 
L -237.84955 155.553735 
L -239.891013 156.133801 
L -241.932476 156.742743 
L -243.97394 157.291787 
L -246.015403 157.936461 
L -248.056867 158.466911 
L -250.09833 159.064194 
L -252.139793 159.648026 
L -254.181257 160.247114 
L -256.22272 160.815225 
L -258.264184 161.394379 
L -260.305647 161.976104 
L -262.347111 162.578225 
L -264.388574 163.127861 
L -266.430037 163.636376 
L -268.471501 164.156776 
L -270.512964 164.680871 
L -272.554428 165.18665 
L -274.595891 165.70169 
L -276.637354 166.211048 
L -278.678818 166.69725 
L -280.720281 167.18977 
L -282.761745 167.68008 
L -284.803208 168.125201 
L -286.844672 168.57881 
L -288.886135 169.0533 
L -290.927598 169.502671 
L -292.969062 169.903715 
L -295.010525 170.34759 
L -297.051989 170.752792 
L -299.093452 171.12578 
L -301.134915 171.49958 
L -303.176379 171.849002 
L -305.217842 172.22716 
L -307.259306 172.538592 
L -309.300769 172.868685 
L -311.342232 173.179479 
L -313.383696 173.46744 
L -315.425159 173.729726 
L -317.466623 173.967909 
L -319.508086 174.2049 
L -321.54955 174.440263 
L -323.591013 174.634542 
L -325.632476 174.852593 
L -327.67394 175.036788 
L -329.715403 175.1951 
L -331.756867 175.381718 
L -333.79833 175.54501 
L -335.839793 175.679784 
L -337.881257 175.824957 
L -339.92272 175.966213 
L -341.964184 176.090163 
L -344.005647 176.214733 
L -346.047111 176.31733 
L -348.088574 176.44214 
L -350.130037 176.540916 
L -352.171501 176.64502 
L -354.212964 176.754536 
L -356.254428 176.843441 
L -358.295891 176.937921 
L -360.337354 177.0625 
L -362.378818 177.149844 
L -364.420281 177.257642 
L -366.461745 177.342576 
L -368.503208 177.456528 
L -370.544672 177.546331 
L -372.586135 177.641595 
L -374.627598 177.72477 
L -376.669062 177.800429 
L -378.710525 177.887307 
L -380.751989 177.98348 
L -382.793452 178.077139 
L -384.834915 178.156631 
L -386.876379 178.219759 
L -388.917842 178.31242 
L -390.959306 178.387795 
L -393.000769 178.478643 
z
" clip-path="url(#p16f4d8d182)" style="fill: #008000; fill-opacity: 0.3; stroke: #008000; stroke-opacity: 0.3"/>
   </g>
   <g id="matplotlib.axis_1">
    <g id="xtick_1">
     <g id="line2d_1">
      <defs>
       <path id="mac90a996e1" d="M 0 0 
L 0 3.5 
" style="stroke: #000000; stroke-width: 0.8"/>
      </defs>
      <g>
       <use xlink:href="#mac90a996e1" x="103.074841" y="395.28" style="stroke: #000000; stroke-width: 0.8"/>
      </g>
     </g>
     <g id="text_1">
      <!-- 2022-03-01 -->
      <g transform="translate(17.945813 495.213718) rotate(-45) scale(0.2 -0.2)">
       <defs>
        <path id="DejaVuSans-32" d="M 1228 531 
L 3431 531 
L 3431 0 
L 469 0 
L 469 531 
Q 828 903 1448 1529 
Q 2069 2156 2228 2338 
Q 2531 2678 2651 2914 
Q 2772 3150 2772 3378 
Q 2772 3750 2511 3984 
Q 2250 4219 1831 4219 
Q 1534 4219 1204 4116 
Q 875 4013 500 3803 
L 500 4441 
Q 881 4594 1212 4672 
Q 1544 4750 1819 4750 
Q 2544 4750 2975 4387 
Q 3406 4025 3406 3419 
Q 3406 3131 3298 2873 
Q 3191 2616 2906 2266 
Q 2828 2175 2409 1742 
Q 1991 1309 1228 531 
z
" transform="scale(0.015625)"/>
        <path id="DejaVuSans-30" d="M 2034 4250 
Q 1547 4250 1301 3770 
Q 1056 3291 1056 2328 
Q 1056 1369 1301 889 
Q 1547 409 2034 409 
Q 2525 409 2770 889 
Q 3016 1369 3016 2328 
Q 3016 3291 2770 3770 
Q 2525 4250 2034 4250 
z
M 2034 4750 
Q 2819 4750 3233 4129 
Q 3647 3509 3647 2328 
Q 3647 1150 3233 529 
Q 2819 -91 2034 -91 
Q 1250 -91 836 529 
Q 422 1150 422 2328 
Q 422 3509 836 4129 
Q 1250 4750 2034 4750 
z
" transform="scale(0.015625)"/>
        <path id="DejaVuSans-2d" d="M 313 2009 
L 1997 2009 
L 1997 1497 
L 313 1497 
L 313 2009 
z
" transform="scale(0.015625)"/>
        <path id="DejaVuSans-33" d="M 2597 2516 
Q 3050 2419 3304 2112 
Q 3559 1806 3559 1356 
Q 3559 666 3084 287 
Q 2609 -91 1734 -91 
Q 1441 -91 1130 -33 
Q 819 25 488 141 
L 488 750 
Q 750 597 1062 519 
Q 1375 441 1716 441 
Q 2309 441 2620 675 
Q 2931 909 2931 1356 
Q 2931 1769 2642 2001 
Q 2353 2234 1838 2234 
L 1294 2234 
L 1294 2753 
L 1863 2753 
Q 2328 2753 2575 2939 
Q 2822 3125 2822 3475 
Q 2822 3834 2567 4026 
Q 2313 4219 1838 4219 
Q 1578 4219 1281 4162 
Q 984 4106 628 3988 
L 628 4550 
Q 988 4650 1302 4700 
Q 1616 4750 1894 4750 
Q 2613 4750 3031 4423 
Q 3450 4097 3450 3541 
Q 3450 3153 3228 2886 
Q 3006 2619 2597 2516 
z
" transform="scale(0.015625)"/>
        <path id="DejaVuSans-31" d="M 794 531 
L 1825 531 
L 1825 4091 
L 703 3866 
L 703 4441 
L 1819 4666 
L 2450 4666 
L 2450 531 
L 3481 531 
L 3481 0 
L 794 0 
L 794 531 
z
" transform="scale(0.015625)"/>
       </defs>
       <use xlink:href="#DejaVuSans-32"/>
       <use xlink:href="#DejaVuSans-30" x="63.623047"/>
       <use xlink:href="#DejaVuSans-32" x="127.246094"/>
       <use xlink:href="#DejaVuSans-32" x="190.869141"/>
       <use xlink:href="#DejaVuSans-2d" x="254.492188"/>
       <use xlink:href="#DejaVuSans-30" x="290.576172"/>
       <use xlink:href="#DejaVuSans-33" x="354.199219"/>
       <use xlink:href="#DejaVuSans-2d" x="417.822266"/>
       <use xlink:href="#DejaVuSans-30" x="453.90625"/>
       <use xlink:href="#DejaVuSans-31" x="517.529297"/>
      </g>
     </g>
    </g>
    <g id="xtick_2">
     <g id="line2d_2">
      <g>
       <use xlink:href="#mac90a996e1" x="160.235816" y="395.28" style="stroke: #000000; stroke-width: 0.8"/>
      </g>
     </g>
     <g id="text_2">
      <!-- 2022-03-29 -->
      <g transform="translate(75.106789 495.213718) rotate(-45) scale(0.2 -0.2)">
       <defs>
        <path id="DejaVuSans-39" d="M 703 97 
L 703 672 
Q 941 559 1184 500 
Q 1428 441 1663 441 
Q 2288 441 2617 861 
Q 2947 1281 2994 2138 
Q 2813 1869 2534 1725 
Q 2256 1581 1919 1581 
Q 1219 1581 811 2004 
Q 403 2428 403 3163 
Q 403 3881 828 4315 
Q 1253 4750 1959 4750 
Q 2769 4750 3195 4129 
Q 3622 3509 3622 2328 
Q 3622 1225 3098 567 
Q 2575 -91 1691 -91 
Q 1453 -91 1209 -44 
Q 966 3 703 97 
z
M 1959 2075 
Q 2384 2075 2632 2365 
Q 2881 2656 2881 3163 
Q 2881 3666 2632 3958 
Q 2384 4250 1959 4250 
Q 1534 4250 1286 3958 
Q 1038 3666 1038 3163 
Q 1038 2656 1286 2365 
Q 1534 2075 1959 2075 
z
" transform="scale(0.015625)"/>
       </defs>
       <use xlink:href="#DejaVuSans-32"/>
       <use xlink:href="#DejaVuSans-30" x="63.623047"/>
       <use xlink:href="#DejaVuSans-32" x="127.246094"/>
       <use xlink:href="#DejaVuSans-32" x="190.869141"/>
       <use xlink:href="#DejaVuSans-2d" x="254.492188"/>
       <use xlink:href="#DejaVuSans-30" x="290.576172"/>
       <use xlink:href="#DejaVuSans-33" x="354.199219"/>
       <use xlink:href="#DejaVuSans-2d" x="417.822266"/>
       <use xlink:href="#DejaVuSans-32" x="453.90625"/>
       <use xlink:href="#DejaVuSans-39" x="517.529297"/>
      </g>
     </g>
    </g>
    <g id="xtick_3">
     <g id="line2d_3">
      <g>
       <use xlink:href="#mac90a996e1" x="217.396792" y="395.28" style="stroke: #000000; stroke-width: 0.8"/>
      </g>
     </g>
     <g id="text_3">
      <!-- 2022-04-26 -->
      <g transform="translate(132.267765 495.213718) rotate(-45) scale(0.2 -0.2)">
       <defs>
        <path id="DejaVuSans-34" d="M 2419 4116 
L 825 1625 
L 2419 1625 
L 2419 4116 
z
M 2253 4666 
L 3047 4666 
L 3047 1625 
L 3713 1625 
L 3713 1100 
L 3047 1100 
L 3047 0 
L 2419 0 
L 2419 1100 
L 313 1100 
L 313 1709 
L 2253 4666 
z
" transform="scale(0.015625)"/>
        <path id="DejaVuSans-36" d="M 2113 2584 
Q 1688 2584 1439 2293 
Q 1191 2003 1191 1497 
Q 1191 994 1439 701 
Q 1688 409 2113 409 
Q 2538 409 2786 701 
Q 3034 994 3034 1497 
Q 3034 2003 2786 2293 
Q 2538 2584 2113 2584 
z
M 3366 4563 
L 3366 3988 
Q 3128 4100 2886 4159 
Q 2644 4219 2406 4219 
Q 1781 4219 1451 3797 
Q 1122 3375 1075 2522 
Q 1259 2794 1537 2939 
Q 1816 3084 2150 3084 
Q 2853 3084 3261 2657 
Q 3669 2231 3669 1497 
Q 3669 778 3244 343 
Q 2819 -91 2113 -91 
Q 1303 -91 875 529 
Q 447 1150 447 2328 
Q 447 3434 972 4092 
Q 1497 4750 2381 4750 
Q 2619 4750 2861 4703 
Q 3103 4656 3366 4563 
z
" transform="scale(0.015625)"/>
       </defs>
       <use xlink:href="#DejaVuSans-32"/>
       <use xlink:href="#DejaVuSans-30" x="63.623047"/>
       <use xlink:href="#DejaVuSans-32" x="127.246094"/>
       <use xlink:href="#DejaVuSans-32" x="190.869141"/>
       <use xlink:href="#DejaVuSans-2d" x="254.492188"/>
       <use xlink:href="#DejaVuSans-30" x="290.576172"/>
       <use xlink:href="#DejaVuSans-34" x="354.199219"/>
       <use xlink:href="#DejaVuSans-2d" x="417.822266"/>
       <use xlink:href="#DejaVuSans-32" x="453.90625"/>
       <use xlink:href="#DejaVuSans-36" x="517.529297"/>
      </g>
     </g>
    </g>
    <g id="xtick_4">
     <g id="line2d_4">
      <g>
       <use xlink:href="#mac90a996e1" x="274.557768" y="395.28" style="stroke: #000000; stroke-width: 0.8"/>
      </g>
     </g>
     <g id="text_4">
      <!-- 2022-05-24 -->
      <g transform="translate(189.42874 495.213718) rotate(-45) scale(0.2 -0.2)">
       <defs>
        <path id="DejaVuSans-35" d="M 691 4666 
L 3169 4666 
L 3169 4134 
L 1269 4134 
L 1269 2991 
Q 1406 3038 1543 3061 
Q 1681 3084 1819 3084 
Q 2600 3084 3056 2656 
Q 3513 2228 3513 1497 
Q 3513 744 3044 326 
Q 2575 -91 1722 -91 
Q 1428 -91 1123 -41 
Q 819 9 494 109 
L 494 744 
Q 775 591 1075 516 
Q 1375 441 1709 441 
Q 2250 441 2565 725 
Q 2881 1009 2881 1497 
Q 2881 1984 2565 2268 
Q 2250 2553 1709 2553 
Q 1456 2553 1204 2497 
Q 953 2441 691 2322 
L 691 4666 
z
" transform="scale(0.015625)"/>
       </defs>
       <use xlink:href="#DejaVuSans-32"/>
       <use xlink:href="#DejaVuSans-30" x="63.623047"/>
       <use xlink:href="#DejaVuSans-32" x="127.246094"/>
       <use xlink:href="#DejaVuSans-32" x="190.869141"/>
       <use xlink:href="#DejaVuSans-2d" x="254.492188"/>
       <use xlink:href="#DejaVuSans-30" x="290.576172"/>
       <use xlink:href="#DejaVuSans-35" x="354.199219"/>
       <use xlink:href="#DejaVuSans-2d" x="417.822266"/>
       <use xlink:href="#DejaVuSans-32" x="453.90625"/>
       <use xlink:href="#DejaVuSans-34" x="517.529297"/>
      </g>
     </g>
    </g>
    <g id="xtick_5">
     <g id="line2d_5">
      <g>
       <use xlink:href="#mac90a996e1" x="331.718743" y="395.28" style="stroke: #000000; stroke-width: 0.8"/>
      </g>
     </g>
     <g id="text_5">
      <!-- 2022-06-21 -->
      <g transform="translate(246.589716 495.213718) rotate(-45) scale(0.2 -0.2)">
       <use xlink:href="#DejaVuSans-32"/>
       <use xlink:href="#DejaVuSans-30" x="63.623047"/>
       <use xlink:href="#DejaVuSans-32" x="127.246094"/>
       <use xlink:href="#DejaVuSans-32" x="190.869141"/>
       <use xlink:href="#DejaVuSans-2d" x="254.492188"/>
       <use xlink:href="#DejaVuSans-30" x="290.576172"/>
       <use xlink:href="#DejaVuSans-36" x="354.199219"/>
       <use xlink:href="#DejaVuSans-2d" x="417.822266"/>
       <use xlink:href="#DejaVuSans-32" x="453.90625"/>
       <use xlink:href="#DejaVuSans-31" x="517.529297"/>
      </g>
     </g>
    </g>
    <g id="xtick_6">
     <g id="line2d_6">
      <g>
       <use xlink:href="#mac90a996e1" x="388.879719" y="395.28" style="stroke: #000000; stroke-width: 0.8"/>
      </g>
     </g>
     <g id="text_6">
      <!-- 2022-07-19 -->
      <g transform="translate(303.750691 495.213718) rotate(-45) scale(0.2 -0.2)">
       <defs>
        <path id="DejaVuSans-37" d="M 525 4666 
L 3525 4666 
L 3525 4397 
L 1831 0 
L 1172 0 
L 2766 4134 
L 525 4134 
L 525 4666 
z
" transform="scale(0.015625)"/>
       </defs>
       <use xlink:href="#DejaVuSans-32"/>
       <use xlink:href="#DejaVuSans-30" x="63.623047"/>
       <use xlink:href="#DejaVuSans-32" x="127.246094"/>
       <use xlink:href="#DejaVuSans-32" x="190.869141"/>
       <use xlink:href="#DejaVuSans-2d" x="254.492188"/>
       <use xlink:href="#DejaVuSans-30" x="290.576172"/>
       <use xlink:href="#DejaVuSans-37" x="354.199219"/>
       <use xlink:href="#DejaVuSans-2d" x="417.822266"/>
       <use xlink:href="#DejaVuSans-31" x="453.90625"/>
       <use xlink:href="#DejaVuSans-39" x="517.529297"/>
      </g>
     </g>
    </g>
    <g id="xtick_7">
     <g id="line2d_7">
      <g>
       <use xlink:href="#mac90a996e1" x="446.040694" y="395.28" style="stroke: #000000; stroke-width: 0.8"/>
      </g>
     </g>
     <g id="text_7">
      <!-- 2022-08-16 -->
      <g transform="translate(360.911667 495.213718) rotate(-45) scale(0.2 -0.2)">
       <defs>
        <path id="DejaVuSans-38" d="M 2034 2216 
Q 1584 2216 1326 1975 
Q 1069 1734 1069 1313 
Q 1069 891 1326 650 
Q 1584 409 2034 409 
Q 2484 409 2743 651 
Q 3003 894 3003 1313 
Q 3003 1734 2745 1975 
Q 2488 2216 2034 2216 
z
M 1403 2484 
Q 997 2584 770 2862 
Q 544 3141 544 3541 
Q 544 4100 942 4425 
Q 1341 4750 2034 4750 
Q 2731 4750 3128 4425 
Q 3525 4100 3525 3541 
Q 3525 3141 3298 2862 
Q 3072 2584 2669 2484 
Q 3125 2378 3379 2068 
Q 3634 1759 3634 1313 
Q 3634 634 3220 271 
Q 2806 -91 2034 -91 
Q 1263 -91 848 271 
Q 434 634 434 1313 
Q 434 1759 690 2068 
Q 947 2378 1403 2484 
z
M 1172 3481 
Q 1172 3119 1398 2916 
Q 1625 2713 2034 2713 
Q 2441 2713 2670 2916 
Q 2900 3119 2900 3481 
Q 2900 3844 2670 4047 
Q 2441 4250 2034 4250 
Q 1625 4250 1398 4047 
Q 1172 3844 1172 3481 
z
" transform="scale(0.015625)"/>
       </defs>
       <use xlink:href="#DejaVuSans-32"/>
       <use xlink:href="#DejaVuSans-30" x="63.623047"/>
       <use xlink:href="#DejaVuSans-32" x="127.246094"/>
       <use xlink:href="#DejaVuSans-32" x="190.869141"/>
       <use xlink:href="#DejaVuSans-2d" x="254.492188"/>
       <use xlink:href="#DejaVuSans-30" x="290.576172"/>
       <use xlink:href="#DejaVuSans-38" x="354.199219"/>
       <use xlink:href="#DejaVuSans-2d" x="417.822266"/>
       <use xlink:href="#DejaVuSans-31" x="453.90625"/>
       <use xlink:href="#DejaVuSans-36" x="517.529297"/>
      </g>
     </g>
    </g>
    <g id="xtick_8">
     <g id="line2d_8">
      <g>
       <use xlink:href="#mac90a996e1" x="503.20167" y="395.28" style="stroke: #000000; stroke-width: 0.8"/>
      </g>
     </g>
     <g id="text_8">
      <!-- 2022-09-13 -->
      <g transform="translate(418.072643 495.213718) rotate(-45) scale(0.2 -0.2)">
       <use xlink:href="#DejaVuSans-32"/>
       <use xlink:href="#DejaVuSans-30" x="63.623047"/>
       <use xlink:href="#DejaVuSans-32" x="127.246094"/>
       <use xlink:href="#DejaVuSans-32" x="190.869141"/>
       <use xlink:href="#DejaVuSans-2d" x="254.492188"/>
       <use xlink:href="#DejaVuSans-30" x="290.576172"/>
       <use xlink:href="#DejaVuSans-39" x="354.199219"/>
       <use xlink:href="#DejaVuSans-2d" x="417.822266"/>
       <use xlink:href="#DejaVuSans-31" x="453.90625"/>
       <use xlink:href="#DejaVuSans-33" x="517.529297"/>
      </g>
     </g>
    </g>
    <g id="xtick_9">
     <g id="line2d_9">
      <g>
       <use xlink:href="#mac90a996e1" x="560.362646" y="395.28" style="stroke: #000000; stroke-width: 0.8"/>
      </g>
     </g>
     <g id="text_9">
      <!-- 2022-10-11 -->
      <g transform="translate(475.233618 495.213718) rotate(-45) scale(0.2 -0.2)">
       <use xlink:href="#DejaVuSans-32"/>
       <use xlink:href="#DejaVuSans-30" x="63.623047"/>
       <use xlink:href="#DejaVuSans-32" x="127.246094"/>
       <use xlink:href="#DejaVuSans-32" x="190.869141"/>
       <use xlink:href="#DejaVuSans-2d" x="254.492188"/>
       <use xlink:href="#DejaVuSans-31" x="290.576172"/>
       <use xlink:href="#DejaVuSans-30" x="354.199219"/>
       <use xlink:href="#DejaVuSans-2d" x="417.822266"/>
       <use xlink:href="#DejaVuSans-31" x="453.90625"/>
       <use xlink:href="#DejaVuSans-31" x="517.529297"/>
      </g>
     </g>
    </g>
    <g id="xtick_10">
     <g id="line2d_10">
      <g>
       <use xlink:href="#mac90a996e1" x="617.523621" y="395.28" style="stroke: #000000; stroke-width: 0.8"/>
      </g>
     </g>
     <g id="text_10">
      <!-- 2022-11-08 -->
      <g transform="translate(532.394594 495.213718) rotate(-45) scale(0.2 -0.2)">
       <use xlink:href="#DejaVuSans-32"/>
       <use xlink:href="#DejaVuSans-30" x="63.623047"/>
       <use xlink:href="#DejaVuSans-32" x="127.246094"/>
       <use xlink:href="#DejaVuSans-32" x="190.869141"/>
       <use xlink:href="#DejaVuSans-2d" x="254.492188"/>
       <use xlink:href="#DejaVuSans-31" x="290.576172"/>
       <use xlink:href="#DejaVuSans-31" x="354.199219"/>
       <use xlink:href="#DejaVuSans-2d" x="417.822266"/>
       <use xlink:href="#DejaVuSans-30" x="453.90625"/>
       <use xlink:href="#DejaVuSans-38" x="517.529297"/>
      </g>
     </g>
    </g>
    <g id="xtick_11">
     <g id="line2d_11">
      <g>
       <use xlink:href="#mac90a996e1" x="674.684597" y="395.28" style="stroke: #000000; stroke-width: 0.8"/>
      </g>
     </g>
     <g id="text_11">
      <!-- 2022-12-06 -->
      <g transform="translate(589.555569 495.213718) rotate(-45) scale(0.2 -0.2)">
       <use xlink:href="#DejaVuSans-32"/>
       <use xlink:href="#DejaVuSans-30" x="63.623047"/>
       <use xlink:href="#DejaVuSans-32" x="127.246094"/>
       <use xlink:href="#DejaVuSans-32" x="190.869141"/>
       <use xlink:href="#DejaVuSans-2d" x="254.492188"/>
       <use xlink:href="#DejaVuSans-31" x="290.576172"/>
       <use xlink:href="#DejaVuSans-32" x="354.199219"/>
       <use xlink:href="#DejaVuSans-2d" x="417.822266"/>
       <use xlink:href="#DejaVuSans-30" x="453.90625"/>
       <use xlink:href="#DejaVuSans-36" x="517.529297"/>
      </g>
     </g>
    </g>
    <g id="xtick_12">
     <g id="line2d_12">
      <g>
       <use xlink:href="#mac90a996e1" x="731.845572" y="395.28" style="stroke: #000000; stroke-width: 0.8"/>
      </g>
     </g>
     <g id="text_12">
      <!-- 2023-01-03 -->
      <g transform="translate(646.716545 495.213718) rotate(-45) scale(0.2 -0.2)">
       <use xlink:href="#DejaVuSans-32"/>
       <use xlink:href="#DejaVuSans-30" x="63.623047"/>
       <use xlink:href="#DejaVuSans-32" x="127.246094"/>
       <use xlink:href="#DejaVuSans-33" x="190.869141"/>
       <use xlink:href="#DejaVuSans-2d" x="254.492188"/>
       <use xlink:href="#DejaVuSans-30" x="290.576172"/>
       <use xlink:href="#DejaVuSans-31" x="354.199219"/>
       <use xlink:href="#DejaVuSans-2d" x="417.822266"/>
       <use xlink:href="#DejaVuSans-30" x="453.90625"/>
       <use xlink:href="#DejaVuSans-33" x="517.529297"/>
      </g>
     </g>
    </g>
    <g id="xtick_13">
     <g id="line2d_13">
      <g>
       <use xlink:href="#mac90a996e1" x="789.006548" y="395.28" style="stroke: #000000; stroke-width: 0.8"/>
      </g>
     </g>
     <g id="text_13">
      <!-- 2023-01-31 -->
      <g transform="translate(703.877521 495.213718) rotate(-45) scale(0.2 -0.2)">
       <use xlink:href="#DejaVuSans-32"/>
       <use xlink:href="#DejaVuSans-30" x="63.623047"/>
       <use xlink:href="#DejaVuSans-32" x="127.246094"/>
       <use xlink:href="#DejaVuSans-33" x="190.869141"/>
       <use xlink:href="#DejaVuSans-2d" x="254.492188"/>
       <use xlink:href="#DejaVuSans-30" x="290.576172"/>
       <use xlink:href="#DejaVuSans-31" x="354.199219"/>
       <use xlink:href="#DejaVuSans-2d" x="417.822266"/>
       <use xlink:href="#DejaVuSans-33" x="453.90625"/>
       <use xlink:href="#DejaVuSans-31" x="517.529297"/>
      </g>
     </g>
    </g>
    <g id="xtick_14">
     <g id="line2d_14">
      <g>
       <use xlink:href="#mac90a996e1" x="846.167524" y="395.28" style="stroke: #000000; stroke-width: 0.8"/>
      </g>
     </g>
     <g id="text_14">
      <!-- 2023-02-28 -->
      <g transform="translate(761.038496 495.213718) rotate(-45) scale(0.2 -0.2)">
       <use xlink:href="#DejaVuSans-32"/>
       <use xlink:href="#DejaVuSans-30" x="63.623047"/>
       <use xlink:href="#DejaVuSans-32" x="127.246094"/>
       <use xlink:href="#DejaVuSans-33" x="190.869141"/>
       <use xlink:href="#DejaVuSans-2d" x="254.492188"/>
       <use xlink:href="#DejaVuSans-30" x="290.576172"/>
       <use xlink:href="#DejaVuSans-32" x="354.199219"/>
       <use xlink:href="#DejaVuSans-2d" x="417.822266"/>
       <use xlink:href="#DejaVuSans-32" x="453.90625"/>
       <use xlink:href="#DejaVuSans-38" x="517.529297"/>
      </g>
     </g>
    </g>
    <g id="xtick_15">
     <g id="line2d_15">
      <g>
       <use xlink:href="#mac90a996e1" x="903.328499" y="395.28" style="stroke: #000000; stroke-width: 0.8"/>
      </g>
     </g>
     <g id="text_15">
      <!-- 2023-03-28 -->
      <g transform="translate(818.199472 495.213718) rotate(-45) scale(0.2 -0.2)">
       <use xlink:href="#DejaVuSans-32"/>
       <use xlink:href="#DejaVuSans-30" x="63.623047"/>
       <use xlink:href="#DejaVuSans-32" x="127.246094"/>
       <use xlink:href="#DejaVuSans-33" x="190.869141"/>
       <use xlink:href="#DejaVuSans-2d" x="254.492188"/>
       <use xlink:href="#DejaVuSans-30" x="290.576172"/>
       <use xlink:href="#DejaVuSans-33" x="354.199219"/>
       <use xlink:href="#DejaVuSans-2d" x="417.822266"/>
       <use xlink:href="#DejaVuSans-32" x="453.90625"/>
       <use xlink:href="#DejaVuSans-38" x="517.529297"/>
      </g>
     </g>
    </g>
    <g id="xtick_16">
     <g id="line2d_16">
      <g>
       <use xlink:href="#mac90a996e1" x="940.074841" y="395.28" style="stroke: #000000; stroke-width: 0.8"/>
      </g>
     </g>
     <g id="text_16">
      <!-- 2023-04-15 -->
      <g transform="translate(854.945813 495.213718) rotate(-45) scale(0.2 -0.2)">
       <use xlink:href="#DejaVuSans-32"/>
       <use xlink:href="#DejaVuSans-30" x="63.623047"/>
       <use xlink:href="#DejaVuSans-32" x="127.246094"/>
       <use xlink:href="#DejaVuSans-33" x="190.869141"/>
       <use xlink:href="#DejaVuSans-2d" x="254.492188"/>
       <use xlink:href="#DejaVuSans-30" x="290.576172"/>
       <use xlink:href="#DejaVuSans-34" x="354.199219"/>
       <use xlink:href="#DejaVuSans-2d" x="417.822266"/>
       <use xlink:href="#DejaVuSans-31" x="453.90625"/>
       <use xlink:href="#DejaVuSans-35" x="517.529297"/>
      </g>
     </g>
    </g>
   </g>
   <g id="matplotlib.axis_2">
    <g id="ytick_1">
     <g id="line2d_17">
      <defs>
       <path id="m1cd106b141" d="M 0 0 
L -3.5 0 
" style="stroke: #000000; stroke-width: 0.8"/>
      </defs>
      <g>
       <use xlink:href="#m1cd106b141" x="103.074841" y="380.173673" style="stroke: #000000; stroke-width: 0.8"/>
      </g>
     </g>
     <g id="text_17">
      <!-- 0.15 -->
      <g transform="translate(34.784216 387.772111) scale(0.2 -0.2)">
       <defs>
        <path id="DejaVuSans-2212" d="M 678 2272 
L 4684 2272 
L 4684 1741 
L 678 1741 
L 678 2272 
z
" transform="scale(0.015625)"/>
        <path id="DejaVuSans-2e" d="M 684 794 
L 1344 794 
L 1344 0 
L 684 0 
L 684 794 
z
" transform="scale(0.015625)"/>
       </defs>
       <use xlink:href="#DejaVuSans-2212"/>
       <use xlink:href="#DejaVuSans-30" x="83.789062"/>
       <use xlink:href="#DejaVuSans-2e" x="147.412109"/>
       <use xlink:href="#DejaVuSans-31" x="179.199219"/>
       <use xlink:href="#DejaVuSans-35" x="242.822266"/>
      </g>
     </g>
    </g>
    <g id="ytick_2">
     <g id="line2d_18">
      <g>
       <use xlink:href="#m1cd106b141" x="103.074841" y="312.971019" style="stroke: #000000; stroke-width: 0.8"/>
      </g>
     </g>
     <g id="text_18">
      <!-- 0.10 -->
      <g transform="translate(34.784216 320.569457) scale(0.2 -0.2)">
       <use xlink:href="#DejaVuSans-2212"/>
       <use xlink:href="#DejaVuSans-30" x="83.789062"/>
       <use xlink:href="#DejaVuSans-2e" x="147.412109"/>
       <use xlink:href="#DejaVuSans-31" x="179.199219"/>
       <use xlink:href="#DejaVuSans-30" x="242.822266"/>
      </g>
     </g>
    </g>
    <g id="ytick_3">
     <g id="line2d_19">
      <g>
       <use xlink:href="#m1cd106b141" x="103.074841" y="245.768365" style="stroke: #000000; stroke-width: 0.8"/>
      </g>
     </g>
     <g id="text_19">
      <!-- 0.05 -->
      <g transform="translate(34.784216 253.366802) scale(0.2 -0.2)">
       <use xlink:href="#DejaVuSans-2212"/>
       <use xlink:href="#DejaVuSans-30" x="83.789062"/>
       <use xlink:href="#DejaVuSans-2e" x="147.412109"/>
       <use xlink:href="#DejaVuSans-30" x="179.199219"/>
       <use xlink:href="#DejaVuSans-35" x="242.822266"/>
      </g>
     </g>
    </g>
    <g id="ytick_4">
     <g id="line2d_20">
      <g>
       <use xlink:href="#m1cd106b141" x="103.074841" y="178.56571" style="stroke: #000000; stroke-width: 0.8"/>
      </g>
     </g>
     <g id="text_20">
      <!-- 0.00 -->
      <g transform="translate(51.543591 186.164148) scale(0.2 -0.2)">
       <use xlink:href="#DejaVuSans-30"/>
       <use xlink:href="#DejaVuSans-2e" x="63.623047"/>
       <use xlink:href="#DejaVuSans-30" x="95.410156"/>
       <use xlink:href="#DejaVuSans-30" x="159.033203"/>
      </g>
     </g>
    </g>
    <g id="ytick_5">
     <g id="line2d_21">
      <g>
       <use xlink:href="#m1cd106b141" x="103.074841" y="111.363056" style="stroke: #000000; stroke-width: 0.8"/>
      </g>
     </g>
     <g id="text_21">
      <!-- 0.05 -->
      <g transform="translate(51.543591 118.961493) scale(0.2 -0.2)">
       <use xlink:href="#DejaVuSans-30"/>
       <use xlink:href="#DejaVuSans-2e" x="63.623047"/>
       <use xlink:href="#DejaVuSans-30" x="95.410156"/>
       <use xlink:href="#DejaVuSans-35" x="159.033203"/>
      </g>
     </g>
    </g>
    <g id="ytick_6">
     <g id="line2d_22">
      <g>
       <use xlink:href="#m1cd106b141" x="103.074841" y="44.160401" style="stroke: #000000; stroke-width: 0.8"/>
      </g>
     </g>
     <g id="text_22">
      <!-- 0.10 -->
      <g transform="translate(51.543591 51.758839) scale(0.2 -0.2)">
       <use xlink:href="#DejaVuSans-30"/>
       <use xlink:href="#DejaVuSans-2e" x="63.623047"/>
       <use xlink:href="#DejaVuSans-31" x="95.410156"/>
       <use xlink:href="#DejaVuSans-30" x="159.033203"/>
      </g>
     </g>
    </g>
   </g>
   <g id="line2d_23">
    <path d="M 0 0 
" clip-path="url(#p16f4d8d182)" style="fill: none; stroke: #ffa500; stroke-width: 1.5; stroke-linecap: square"/>
   </g>
   <g id="line2d_24">
    <path d="M 103.074841 178.56571 
L 948.274841 178.56571 
" clip-path="url(#p16f4d8d182)" style="fill: none; stroke-dasharray: 7.4,3.2; stroke-dashoffset: 0; stroke: #000000; stroke-width: 2"/>
   </g>
   <g id="patch_3">
    <path d="M 103.074841 395.28 
L 103.074841 7.2 
" style="fill: none; stroke: #000000; stroke-width: 0.8; stroke-linejoin: miter; stroke-linecap: square"/>
   </g>
   <g id="patch_4">
    <path d="M 940.074841 395.28 
L 940.074841 7.2 
" style="fill: none; stroke: #000000; stroke-width: 0.8; stroke-linejoin: miter; stroke-linecap: square"/>
   </g>
   <g id="patch_5">
    <path d="M 103.074841 395.28 
L 940.074841 395.28 
" style="fill: none; stroke: #000000; stroke-width: 0.8; stroke-linejoin: miter; stroke-linecap: square"/>
   </g>
   <g id="patch_6">
    <path d="M 103.074841 7.2 
L 940.074841 7.2 
" style="fill: none; stroke: #000000; stroke-width: 0.8; stroke-linejoin: miter; stroke-linecap: square"/>
   </g>
  </g>
 </g>
 <defs>
  <clipPath id="p16f4d8d182">
   <rect x="103.074841" y="7.2" width="837" height="388.08"/>
  </clipPath>
 </defs>
</svg>
