<?xml version="1.0" encoding="utf-8" standalone="no"?>
<!DOCTYPE svg PUBLIC "-//W3C//DTD SVG 1.1//EN"
  "http://www.w3.org/Graphics/SVG/1.1/DTD/svg11.dtd">
<svg xmlns:xlink="http://www.w3.org/1999/xlink" width="947.274841pt" height="505.354841pt" viewBox="0 0 947.274841 505.354841" xmlns="http://www.w3.org/2000/svg" version="1.1">
 <metadata>
  <rdf:RDF xmlns:dc="http://purl.org/dc/elements/1.1/" xmlns:cc="http://creativecommons.org/ns#" xmlns:rdf="http://www.w3.org/1999/02/22-rdf-syntax-ns#">
   <cc:Work>
    <dc:type rdf:resource="http://purl.org/dc/dcmitype/StillImage"/>
    <dc:date>2023-11-12T22:42:59.428472</dc:date>
    <dc:format>image/svg+xml</dc:format>
    <dc:creator>
     <cc:Agent>
      <dc:title>Matplotlib v3.7.2, https://matplotlib.org/</dc:title>
     </cc:Agent>
    </dc:creator>
   </cc:Work>
  </rdf:RDF>
 </metadata>
 <defs>
  <style type="text/css">*{stroke-linejoin: round; stroke-linecap: butt}</style>
 </defs>
 <g id="figure_1">
  <g id="patch_1">
   <path d="M 0 505.354841 
L 947.274841 505.354841 
L 947.274841 -0 
L 0 -0 
z
" style="fill: #ffffff"/>
  </g>
  <g id="axes_1">
   <g id="patch_2">
    <path d="M 103.074841 395.28 
L 940.074841 395.28 
L 940.074841 7.2 
L 103.074841 7.2 
z
" style="fill: #ffffff"/>
   </g>
   <g id="PolyCollection_1">
    <path d="M -4315.31939 341.998109 
L -4315.31939 342.001716 
L -4307.271313 341.964572 
L -4299.223236 341.945628 
L -4291.175159 341.91693 
L -4283.127082 341.912587 
L -4275.079005 341.898979 
L -4267.030929 341.875758 
L -4258.982852 341.853561 
L -4250.934775 341.836493 
L -4242.886698 341.829061 
L -4234.838621 341.812213 
L -4226.790544 341.792372 
L -4218.742467 341.776094 
L -4210.69439 341.743632 
L -4202.646313 341.726855 
L -4194.598236 341.698217 
L -4186.550159 341.683027 
L -4178.502082 341.643134 
L -4170.454005 341.622269 
L -4162.405929 341.605859 
L -4154.357852 341.576667 
L -4146.309775 341.551907 
L -4138.261698 341.531094 
L -4130.213621 341.494133 
L -4122.165544 341.474165 
L -4114.117467 341.439899 
L -4106.06939 341.407659 
L -4098.021313 341.367204 
L -4089.973236 341.326813 
L -4081.925159 341.294286 
L -4073.877082 341.247019 
L -4065.829005 341.185009 
L -4057.780929 341.147019 
L -4049.732852 341.0956 
L -4041.684775 341.027302 
L -4033.636698 340.978578 
L -4025.588621 340.907173 
L -4017.540544 340.840117 
L -4009.492467 340.774605 
L -4001.44439 340.705399 
L -3993.396313 340.620648 
L -3985.348236 340.528929 
L -3977.300159 340.430749 
L -3969.252082 340.352345 
L -3961.204005 340.235967 
L -3953.155929 340.144878 
L -3945.107852 340.043392 
L -3937.059775 339.949781 
L -3929.011698 339.840046 
L -3920.963621 339.709884 
L -3912.915544 339.615897 
L -3904.867467 339.489688 
L -3896.81939 339.357341 
L -3888.771313 339.239897 
L -3880.723236 339.133206 
L -3872.675159 338.999634 
L -3864.627082 338.867098 
L -3856.579005 338.74108 
L -3848.530929 338.602956 
L -3840.482852 338.464988 
L -3832.434775 338.333746 
L -3824.386698 338.192349 
L -3816.338621 338.054822 
L -3808.290544 337.929435 
L -3800.242467 337.789021 
L -3792.19439 337.618942 
L -3784.146313 337.467911 
L -3776.098236 337.320424 
L -3768.050159 337.182117 
L -3760.002082 337.024735 
L -3751.954005 336.879268 
L -3743.905929 336.724814 
L -3735.857852 336.617759 
L -3727.809775 336.428674 
L -3719.761698 336.308409 
L -3711.713621 336.142083 
L -3703.665544 335.997579 
L -3695.617467 335.827336 
L -3687.56939 335.70484 
L -3679.521313 335.515572 
L -3671.473236 335.355062 
L -3663.425159 335.218825 
L -3655.377082 335.04212 
L -3647.329005 334.889775 
L -3639.280929 334.716604 
L -3631.232852 334.545474 
L -3623.184775 334.389744 
L -3615.136698 334.24274 
L -3607.088621 334.060498 
L -3599.040544 333.90006 
L -3590.992467 333.735196 
L -3582.94439 333.576092 
L -3574.896313 333.425139 
L -3566.848236 333.26059 
L -3558.800159 333.0969 
L -3550.752082 332.980919 
L -3542.704005 332.806908 
L -3534.655929 332.65056 
L -3526.607852 332.498842 
L -3518.559775 332.354591 
L -3510.511698 332.211212 
L -3502.463621 332.060336 
L -3494.415544 331.928768 
L -3486.367467 331.778812 
L -3478.31939 331.617229 
L -3470.271313 331.450581 
L -3462.223236 331.279553 
L -3454.175159 331.139229 
L -3446.127082 330.956928 
L -3438.079005 330.745409 
L -3430.030929 330.568113 
L -3421.982852 330.368225 
L -3413.934775 330.164676 
L -3405.886698 329.93693 
L -3397.838621 329.704325 
L -3389.790544 329.515641 
L -3381.742467 329.259998 
L -3373.69439 329.038483 
L -3365.646313 328.780098 
L -3357.598236 328.575614 
L -3349.550159 328.280197 
L -3341.502082 328.003005 
L -3333.454005 327.748891 
L -3325.405929 327.489437 
L -3317.357852 327.216158 
L -3309.309775 326.919532 
L -3301.261698 326.670745 
L -3293.213621 326.336221 
L -3285.165544 326.094438 
L -3277.117467 325.750644 
L -3269.06939 325.435831 
L -3261.021313 325.144077 
L -3252.973236 324.887549 
L -3244.925159 324.525413 
L -3236.877082 324.245874 
L -3228.829005 323.781845 
L -3220.780929 323.451623 
L -3212.732852 323.182997 
L -3204.684775 322.8309 
L -3196.636698 322.468844 
L -3188.588621 321.99252 
L -3180.540544 321.589738 
L -3172.492467 321.349807 
L -3164.44439 320.689463 
L -3156.396313 320.279907 
L -3148.348236 319.868368 
L -3140.300159 319.440678 
L -3132.252082 318.894915 
L -3124.204005 318.440507 
L -3116.155929 318.273086 
L -3108.107852 317.906594 
L -3100.059775 316.90402 
L -3092.011698 316.198702 
L -3083.963621 315.891008 
L -3075.915544 315.205082 
L -3067.867467 314.791862 
L -3059.81939 314.557287 
L -3051.771313 313.804464 
L -3043.723236 312.853961 
L -3035.675159 312.492206 
L -3027.627082 312.588715 
L -3019.579005 311.979294 
L -3011.530929 312.210842 
L -3003.482852 312.041746 
L -2995.434775 311.324414 
L -2987.386698 311.957153 
L -2979.338621 313.154526 
L -2971.290544 315.023033 
L -2963.242467 314.252422 
L -2955.19439 317.624999 
L -2947.146313 318.918621 
L -2939.098236 315.709204 
L -2931.050159 317.331698 
L -2923.002082 319.546648 
L -2914.954005 319.061928 
L -2906.905929 319.346491 
L -2898.857852 326.954187 
L -2890.809775 337.540803 
L -2882.761698 343.019415 
L -2874.713621 332.353641 
L -2866.665544 338.471811 
L -2858.617467 346.18836 
L -2850.56939 346.088594 
L -2842.521313 361.437739 
L -2834.473236 359.526095 
L -2826.425159 355.204321 
L -2818.377082 343.897791 
L -2810.329005 354.938687 
L -2802.280929 361.565295 
L -2794.232852 358.872213 
L -2786.184775 360.820726 
L -2778.136698 366.922056 
L -2770.088621 366.188152 
L -2762.040544 361.256108 
L -2753.992467 367.807849 
L -2745.94439 369.424051 
L -2737.896313 367.101546 
L -2729.848236 371.602879 
L -2721.800159 373.240406 
L -2713.752082 373.066918 
L -2705.704005 371.842753 
L -2697.655929 373.350985 
L -2689.607852 372.042437 
L -2681.559775 372.318107 
L -2673.511698 373.86602 
L -2665.463621 372.901419 
L -2657.415544 373.739195 
L -2649.367467 374.050962 
L -2641.31939 373.089493 
L -2633.271313 373.771993 
L -2625.223236 372.179204 
L -2617.175159 372.801495 
L -2609.127082 373.529322 
L -2601.079005 373.87398 
L -2593.030929 373.319867 
L -2584.982852 372.853548 
L -2576.934775 373.038765 
L -2568.886698 372.66481 
L -2560.838621 372.907487 
L -2552.790544 373.114591 
L -2544.742467 372.323554 
L -2536.69439 373.299518 
L -2528.646313 372.877602 
L -2520.598236 372.784298 
L -2512.550159 373.359661 
L -2504.502082 372.973864 
L -2496.454005 373.164022 
L -2488.405929 373.807792 
L -2480.357852 374.588938 
L -2472.309775 373.682763 
L -2464.261698 373.446786 
L -2456.213621 373.822262 
L -2448.165544 376.221244 
L -2440.117467 376.565052 
L -2432.06939 377.64 
L -2424.021313 375.85012 
L -2415.973236 374.924628 
L -2407.925159 375.512889 
L -2399.877082 377.065278 
L -2391.829005 377.460345 
L -2383.780929 375.365013 
L -2375.732852 377.457079 
L -2367.684775 376.740759 
L -2359.636698 376.717889 
L -2351.588621 375.652995 
L -2343.540544 376.576066 
L -2335.492467 376.214734 
L -2327.44439 376.814109 
L -2319.396313 376.014321 
L -2311.348236 375.468012 
L -2303.300159 374.473602 
L -2295.252082 374.038978 
L -2287.204005 373.62592 
L -2279.155929 372.900037 
L -2271.107852 372.753349 
L -2263.059775 372.019711 
L -2255.011698 371.219424 
L -2246.963621 369.697341 
L -2238.915544 368.376428 
L -2230.867467 367.635439 
L -2222.81939 366.251642 
L -2214.771313 365.830457 
L -2206.723236 364.607333 
L -2198.675159 362.884663 
L -2190.627082 361.467587 
L -2182.579005 360.186425 
L -2174.530929 358.471768 
L -2166.482852 357.173897 
L -2158.434775 355.615388 
L -2150.386698 354.157578 
L -2142.338621 352.370576 
L -2134.290544 350.696381 
L -2126.242467 348.949581 
L -2118.19439 347.324841 
L -2110.146313 345.662772 
L -2102.098236 343.55457 
L -2094.050159 341.604841 
L -2086.002082 339.698803 
L -2077.954005 338.296948 
L -2069.905929 336.169389 
L -2061.857852 334.368262 
L -2053.809775 332.355117 
L -2045.761698 329.502225 
L -2037.713621 328.133675 
L -2029.665544 325.747513 
L -2021.617467 323.827617 
L -2013.56939 321.62047 
L -2005.521313 319.165651 
L -1997.473236 316.907666 
L -1989.425159 314.629137 
L -1981.377082 311.78498 
L -1973.329005 309.768246 
L -1965.280929 306.983152 
L -1957.232852 305.07614 
L -1949.184775 302.195122 
L -1941.136698 299.354519 
L -1933.088621 296.864547 
L -1925.040544 294.747287 
L -1916.992467 291.499895 
L -1908.94439 289.133489 
L -1900.896313 286.222224 
L -1892.848236 283.797386 
L -1884.800159 280.734082 
L -1876.752082 277.930619 
L -1868.704005 277.332511 
L -1860.655929 272.246359 
L -1852.607852 271.136293 
L -1844.559775 268.029673 
L -1836.511698 265.654969 
L -1828.463621 262.928116 
L -1820.415544 260.116949 
L -1812.367467 257.420673 
L -1804.31939 254.940985 
L -1796.271313 252.601903 
L -1788.223236 250.146406 
L -1780.175159 251.253071 
L -1772.127082 244.870118 
L -1764.079005 243.221272 
L -1756.030929 247.025874 
L -1747.982852 239.926834 
L -1739.934775 240.426551 
L -1731.886698 239.229263 
L -1723.838621 235.084962 
L -1715.790544 235.300173 
L -1707.742467 237.86623 
L -1699.69439 234.754229 
L -1691.646313 233.176769 
L -1683.598236 234.848297 
L -1675.550159 233.639412 
L -1667.502082 234.47209 
L -1659.454005 236.092237 
L -1651.405929 238.401069 
L -1643.357852 245.934177 
L -1635.309775 243.292722 
L -1627.261698 246.894348 
L -1619.213621 249.534182 
L -1611.165544 250.845228 
L -1603.117467 254.498199 
L -1595.06939 256.319568 
L -1587.021313 250.359857 
L -1578.973236 254.454097 
L -1570.925159 260.623503 
L -1562.877082 263.106716 
L -1554.829005 262.988045 
L -1546.780929 270.800896 
L -1538.732852 270.396251 
L -1530.684775 271.16225 
L -1522.636698 270.131214 
L -1514.588621 276.145657 
L -1506.540544 272.617967 
L -1498.492467 270.519312 
L -1490.44439 274.799814 
L -1482.396313 279.164547 
L -1474.348236 276.663834 
L -1466.300159 278.071211 
L -1458.252082 277.821771 
L -1450.204005 276.678074 
L -1442.155929 274.750352 
L -1434.107852 274.842545 
L -1426.059775 274.206432 
L -1418.011698 277.998013 
L -1409.963621 273.518039 
L -1401.915544 276.603442 
L -1393.867467 274.225508 
L -1385.81939 271.879325 
L -1377.771313 272.504684 
L -1369.723236 271.935295 
L -1361.675159 268.262687 
L -1353.627082 267.321957 
L -1345.579005 265.439169 
L -1337.530929 266.637586 
L -1329.482852 263.719572 
L -1321.434775 261.647718 
L -1313.386698 259.775785 
L -1305.338621 259.513702 
L -1297.290544 257.059235 
L -1289.242467 254.043973 
L -1281.19439 253.804488 
L -1273.146313 250.745785 
L -1265.098236 250.273932 
L -1257.050159 253.403772 
L -1249.002082 252.395053 
L -1240.954005 249.390443 
L -1232.905929 248.019601 
L -1224.857852 247.422304 
L -1216.809775 244.181886 
L -1208.761698 243.868437 
L -1200.713621 242.95017 
L -1192.665544 241.523102 
L -1184.617467 239.943723 
L -1176.56939 237.529003 
L -1168.521313 237.446101 
L -1160.473236 235.499912 
L -1152.425159 234.321487 
L -1144.377082 232.832907 
L -1136.329005 231.945002 
L -1128.280929 229.873749 
L -1120.232852 226.894428 
L -1112.184775 225.88709 
L -1104.136698 223.322579 
L -1096.088621 220.043429 
L -1088.040544 220.964255 
L -1079.992467 216.853022 
L -1071.94439 217.432076 
L -1063.896313 216.034543 
L -1055.848236 215.521795 
L -1047.800159 212.685685 
L -1039.752082 211.84258 
L -1031.704005 210.86979 
L -1023.655929 207.59951 
L -1015.607852 207.651968 
L -1007.559775 206.840104 
L -999.511698 206.175278 
L -991.463621 204.38929 
L -983.415544 204.470402 
L -975.367467 202.688065 
L -967.31939 200.997968 
L -959.271313 198.614112 
L -951.223236 197.576944 
L -943.175159 196.770701 
L -935.127082 195.03725 
L -927.079005 194.881803 
L -919.030929 193.874372 
L -910.982852 192.336677 
L -902.934775 192.06828 
L -894.886698 190.396822 
L -886.838621 191.251253 
L -878.790544 190.018827 
L -870.742467 189.798124 
L -862.69439 187.830969 
L -854.646313 185.251741 
L -846.598236 186.995093 
L -838.550159 186.699875 
L -830.502082 185.717708 
L -822.454005 184.717453 
L -814.405929 182.889578 
L -806.357852 182.328589 
L -798.309775 181.251072 
L -790.261698 181.209626 
L -782.213621 180.702494 
L -774.165544 178.989131 
L -766.117467 176.632047 
L -758.06939 179.33243 
L -750.021313 178.495398 
L -741.973236 176.473957 
L -733.925159 177.506825 
L -725.877082 174.013153 
L -717.829005 174.269449 
L -709.780929 174.326465 
L -701.732852 171.900935 
L -693.684775 175.590176 
L -685.636698 171.54347 
L -677.588621 169.396687 
L -669.540544 171.7301 
L -661.492467 172.207899 
L -653.44439 170.759822 
L -645.396313 171.511542 
L -637.348236 169.491474 
L -629.300159 172.688527 
L -621.252082 170.650229 
L -613.204005 171.068629 
L -605.155929 168.398597 
L -597.107852 165.961039 
L -589.059775 168.321369 
L -581.011698 172.80658 
L -572.963621 166.939656 
L -564.915544 166.878433 
L -556.867467 164.448614 
L -548.81939 165.049997 
L -540.771313 164.400737 
L -532.723236 162.756092 
L -524.675159 161.922004 
L -516.627082 163.928887 
L -508.579005 162.363568 
L -500.530929 164.192289 
L -492.482852 164.284529 
L -484.434775 157.725051 
L -476.386698 160.04766 
L -468.338621 160.02216 
L -460.290544 160.243071 
L -452.242467 160.436785 
L -444.19439 164.281539 
L -436.146313 165.730603 
L -428.098236 165.415574 
L -420.050159 169.727263 
L -412.002082 176.957347 
L -403.954005 168.130037 
L -395.905929 167.958075 
L -387.857852 168.089109 
L -379.809775 170.952221 
L -371.761698 171.580493 
L -363.713621 171.528821 
L -355.665544 177.811532 
L -347.617467 180.101935 
L -339.56939 172.876193 
L -331.521313 179.331859 
L -323.473236 176.069758 
L -315.425159 174.011846 
L -307.377082 181.84468 
L -299.329005 180.183293 
L -291.280929 185.190526 
L -283.232852 183.521997 
L -275.184775 179.947207 
L -267.136698 183.01045 
L -259.088621 182.866042 
L -251.040544 185.852247 
L -242.992467 183.705113 
L -234.94439 188.709975 
L -226.896313 184.791347 
L -218.848236 187.336182 
L -210.800159 186.574571 
L -202.752082 189.387126 
L -194.704005 184.315411 
L -186.655929 189.318064 
L -178.607852 188.816157 
L -170.559775 192.164083 
L -162.511698 193.824832 
L -154.463621 193.615684 
L -146.415544 192.482888 
L -138.367467 194.556546 
L -130.31939 196.046676 
L -122.271313 194.300932 
L -114.223236 193.51211 
L -106.175159 195.308449 
L -98.127082 196.92097 
L -90.079005 193.537173 
L -82.030929 191.50501 
L -73.982852 198.561394 
L -65.934775 201.657634 
L -57.886698 194.03216 
L -49.838621 196.030651 
L -41.790544 196.943395 
L -33.742467 197.293471 
L -25.69439 200.845962 
L -17.646313 200.2049 
L -9.598236 198.533064 
L -1.550159 200.016864 
L 6.497918 200.317543 
L 14.545995 196.187364 
L 22.594071 198.101155 
L 30.642148 196.751213 
L 38.690225 202.208332 
L 46.738302 208.956535 
L 54.786379 207.90844 
L 62.834456 202.434443 
L 70.882533 201.808535 
L 78.93061 202.516098 
L 86.978687 202.749496 
L 95.026764 207.802792 
L 103.074841 201.336426 
L 111.122918 208.115594 
L 119.170995 213.574994 
L 127.219071 209.035772 
L 135.267148 216.066559 
L 143.315225 211.705872 
L 151.363302 215.561623 
L 159.411379 213.075214 
L 167.459456 215.00617 
L 175.507533 218.809611 
L 183.55561 218.604248 
L 191.603687 219.812952 
L 199.651764 220.172167 
L 207.699841 220.620976 
L 215.747918 211.50616 
L 223.795995 223.374992 
L 231.844071 228.291333 
L 239.892148 223.63602 
L 247.940225 227.984698 
L 255.988302 228.969399 
L 264.036379 226.560669 
L 272.084456 231.464985 
L 280.132533 234.76764 
L 288.18061 232.91938 
L 296.228687 234.250007 
L 304.276764 235.029484 
L 312.324841 236.261342 
L 320.372918 240.009594 
L 328.420995 232.579596 
L 336.469071 241.987554 
L 344.517148 242.275401 
L 352.565225 242.745395 
L 360.613302 237.022523 
L 368.661379 244.147329 
L 376.709456 248.888479 
L 384.757533 244.140929 
L 392.80561 244.70044 
L 400.853687 251.274378 
L 408.901764 239.83807 
L 416.949841 250.526784 
L 424.997918 243.833895 
L 433.045995 253.157733 
L 441.094071 248.717513 
L 449.142148 252.727155 
L 457.190225 253.941911 
L 465.238302 255.657401 
L 473.286379 256.138499 
L 481.334456 253.578855 
L 489.382533 253.594759 
L 497.43061 254.799574 
L 505.478687 259.018757 
L 513.526764 258.427074 
L 521.574841 258.238236 
L 529.622918 260.795779 
L 537.670995 260.928825 
L 545.719071 258.798536 
L 553.767148 259.119949 
L 561.815225 263.049876 
L 569.863302 263.604902 
L 577.911379 264.55829 
L 585.959456 261.360253 
L 594.007533 256.615057 
L 602.05561 261.866253 
L 610.103687 260.261988 
L 618.151764 261.680546 
L 626.199841 263.947361 
L 634.247918 261.063834 
L 642.295995 264.777539 
L 650.344071 262.108704 
L 658.392148 261.714693 
L 666.440225 261.512485 
L 674.488302 264.76236 
L 682.536379 263.897721 
L 690.584456 263.568537 
L 698.632533 261.152012 
L 706.68061 262.383267 
L 714.728687 262.891391 
L 722.776764 262.175538 
L 730.824841 264.282724 
L 738.872918 263.738531 
L 746.920995 264.921232 
L 754.969071 266.242492 
L 763.017148 266.085626 
L 771.065225 264.722915 
L 779.113302 265.045628 
L 787.161379 264.194118 
L 795.209456 265.2088 
L 803.257533 265.403127 
L 811.30561 263.869067 
L 819.353687 265.558661 
L 827.401764 258.13584 
L 835.449841 265.5291 
L 843.497918 268.283572 
L 851.545995 265.296445 
L 859.594071 265.292739 
L 867.642148 268.055191 
L 875.690225 268.159067 
L 883.738302 265.562135 
L 891.786379 265.399785 
L 899.834456 267.16682 
L 907.882533 266.590975 
L 915.93061 269.953703 
L 923.978687 268.852533 
L 932.026764 271.512498 
L 940.074841 268.645327 
L 940.074841 189.862034 
L 940.074841 189.862034 
L 932.026764 186.756914 
L 923.978687 182.914088 
L 915.93061 186.814995 
L 907.882533 179.08652 
L 899.834456 181.096395 
L 891.786379 179.930499 
L 883.738302 171.901079 
L 875.690225 182.087892 
L 867.642148 187.525531 
L 859.594071 172.375301 
L 851.545995 178.8839 
L 843.497918 185.147308 
L 835.449841 181.011917 
L 827.401764 131.466066 
L 819.353687 179.511781 
L 811.30561 170.56208 
L 803.257533 180.293633 
L 795.209456 179.708949 
L 787.161379 176.164841 
L 779.113302 176.742401 
L 771.065225 176.013138 
L 763.017148 181.859639 
L 754.969071 182.370219 
L 746.920995 175.501163 
L 738.872918 171.108948 
L 730.824841 175.605655 
L 722.776764 169.17175 
L 714.728687 172.376739 
L 706.68061 168.845253 
L 698.632533 164.236325 
L 690.584456 171.943227 
L 682.536379 173.298078 
L 674.488302 173.904189 
L 666.440225 166.228534 
L 658.392148 165.045682 
L 650.344071 165.315753 
L 642.295995 175.539532 
L 634.247918 162.923619 
L 626.199841 172.528327 
L 618.151764 165.471729 
L 610.103687 160.331165 
L 602.05561 165.825962 
L 594.007533 145.418668 
L 585.959456 164.918203 
L 577.911379 173.416397 
L 569.863302 170.311257 
L 561.815225 169.230696 
L 553.767148 153.144242 
L 545.719071 154.373034 
L 537.670995 161.145011 
L 529.622918 161.52363 
L 521.574841 153.02215 
L 513.526764 154.349409 
L 505.478687 154.35665 
L 497.43061 146.089472 
L 489.382533 139.091992 
L 481.334456 138.206493 
L 473.286379 145.945899 
L 465.238302 144.785748 
L 457.190225 141.591877 
L 449.142148 138.284622 
L 441.094071 125.639033 
L 433.045995 139.904255 
L 424.997918 105.987147 
L 416.949841 130.210118 
L 408.901764 97.949279 
L 400.853687 134.429179 
L 392.80561 115.415682 
L 384.757533 115.755354 
L 376.709456 126.617086 
L 368.661379 115.29785 
L 360.613302 94.083237 
L 352.565225 110.707473 
L 344.517148 111.015731 
L 336.469071 110.996653 
L 328.420995 86.153226 
L 320.372918 99.383486 
L 312.324841 96.950348 
L 304.276764 95.777592 
L 296.228687 93.574556 
L 288.18061 88.850977 
L 280.132533 94.651599 
L 272.084456 85.874315 
L 264.036379 74.757776 
L 255.988302 85.008228 
L 247.940225 77.908464 
L 239.892148 71.62185 
L 231.844071 83.320244 
L 223.795995 71.740257 
L 215.747918 41.158561 
L 207.699841 64.431835 
L 199.651764 64.067971 
L 191.603687 64.651032 
L 183.55561 62.41158 
L 175.507533 63.06866 
L 167.459456 55.140023 
L 159.411379 52.189834 
L 151.363302 59.26634 
L 143.315225 47.528106 
L 135.267148 60.662984 
L 127.219071 44.183725 
L 119.170995 54.569498 
L 111.122918 43.822696 
L 103.074841 30.388053 
L 95.026764 43.922384 
L 86.978687 32.258216 
L 78.93061 33.758811 
L 70.882533 33.888503 
L 62.834456 35.764417 
L 54.786379 48.072839 
L 46.738302 51.545203 
L 38.690225 38.351001 
L 30.642148 24.84 
L 22.594071 29.600358 
L 14.545995 27.51415 
L 6.497918 37.257018 
L -1.550159 37.152911 
L -9.598236 34.393572 
L -17.646313 39.888266 
L -25.69439 40.389731 
L -33.742467 34.061145 
L -41.790544 35.839855 
L -49.838621 33.96389 
L -57.886698 31.456992 
L -65.934775 48.667996 
L -73.982852 40.463782 
L -82.030929 28.904153 
L -90.079005 35.876923 
L -98.127082 42.224018 
L -106.175159 39.682592 
L -114.223236 37.967237 
L -122.271313 41.099325 
L -130.31939 47.757861 
L -138.367467 42.663752 
L -146.415544 41.442772 
L -154.463621 44.962948 
L -162.511698 42.168821 
L -170.559775 44.427172 
L -178.607852 37.77198 
L -186.655929 41.593772 
L -194.704005 33.262751 
L -202.752082 42.35106 
L -210.800159 39.592628 
L -218.848236 42.867999 
L -226.896313 41.334477 
L -234.94439 47.257785 
L -242.992467 39.902573 
L -251.040544 46.15765 
L -259.088621 41.877809 
L -267.136698 43.87558 
L -275.184775 40.718012 
L -283.232852 43.853378 
L -291.280929 50.72854 
L -299.329005 45.933702 
L -307.377082 48.258612 
L -315.425159 37.912035 
L -323.473236 44.035871 
L -331.521313 47.590559 
L -339.56939 39.839843 
L -347.617467 50.429301 
L -355.665544 52.109244 
L -363.713621 42.091868 
L -371.761698 43.238466 
L -379.809775 43.437754 
L -387.857852 40.487612 
L -395.905929 44.218541 
L -403.954005 44.276518 
L -412.002082 58.178816 
L -420.050159 50.426534 
L -428.098236 45.023618 
L -436.146313 46.355423 
L -444.19439 45.63579 
L -452.242467 42.92694 
L -460.290544 45.587664 
L -468.338621 44.230573 
L -476.386698 48.525094 
L -484.434775 46.027252 
L -492.482852 54.675822 
L -500.530929 57.033738 
L -508.579005 56.755536 
L -516.627082 59.778829 
L -524.675159 58.426484 
L -532.723236 61.999653 
L -540.771313 64.674236 
L -548.81939 69.491711 
L -556.867467 68.169088 
L -564.915544 73.369865 
L -572.963621 73.995521 
L -581.011698 82.450991 
L -589.059775 79.014847 
L -597.107852 77.794855 
L -605.155929 82.123954 
L -613.204005 84.773955 
L -621.252082 86.135552 
L -629.300159 91.453493 
L -637.348236 89.120858 
L -645.396313 93.038869 
L -653.44439 92.871051 
L -661.492467 94.6547 
L -669.540544 94.58961 
L -677.588621 93.95983 
L -685.636698 98.306886 
L -693.684775 103.722392 
L -701.732852 100.34086 
L -709.780929 103.920748 
L -717.829005 103.85069 
L -725.877082 106.327922 
L -733.925159 110.702205 
L -741.973236 110.587747 
L -750.021313 114.318161 
L -758.06939 116.050089 
L -766.117467 114.011973 
L -774.165544 116.82043 
L -782.213621 119.834223 
L -790.261698 121.570233 
L -798.309775 122.503577 
L -806.357852 124.940875 
L -814.405929 125.737276 
L -822.454005 128.863712 
L -830.502082 130.474282 
L -838.550159 131.976645 
L -846.598236 133.430355 
L -854.646313 130.652913 
L -862.69439 135.780702 
L -870.742467 138.422721 
L -878.790544 138.897798 
L -886.838621 139.949778 
L -894.886698 140.972822 
L -902.934775 143.100974 
L -910.982852 143.687877 
L -919.030929 146.383734 
L -927.079005 147.884568 
L -935.127082 148.443505 
L -943.175159 149.948919 
L -951.223236 151.742962 
L -959.271313 153.574447 
L -967.31939 157.590244 
L -975.367467 159.193167 
L -983.415544 161.566875 
L -991.463621 161.787185 
L -999.511698 164.109686 
L -1007.559775 165.074597 
L -1015.607852 166.444273 
L -1023.655929 165.737323 
L -1031.704005 171.103288 
L -1039.752082 172.275373 
L -1047.800159 173.537293 
L -1055.848236 177.197671 
L -1063.896313 177.808853 
L -1071.94439 179.788556 
L -1079.992467 179.493318 
L -1088.040544 184.140336 
L -1096.088621 183.548069 
L -1104.136698 188.242803 
L -1112.184775 191.444516 
L -1120.232852 193.004956 
L -1128.280929 197.107028 
L -1136.329005 200.101244 
L -1144.377082 201.073548 
L -1152.425159 203.197063 
L -1160.473236 204.581683 
L -1168.521313 207.321344 
L -1176.56939 207.491498 
L -1184.617467 210.759193 
L -1192.665544 213.329813 
L -1200.713621 215.141438 
L -1208.761698 216.560377 
L -1216.809775 217.373407 
L -1224.857852 221.21951 
L -1232.905929 222.363381 
L -1240.954005 224.52482 
L -1249.002082 227.96423 
L -1257.050159 229.325599 
L -1265.098236 226.777821 
L -1273.146313 227.812886 
L -1281.19439 231.288226 
L -1289.242467 231.762907 
L -1297.290544 234.269951 
L -1305.338621 236.223492 
L -1313.386698 235.559039 
L -1321.434775 236.142381 
L -1329.482852 237.757932 
L -1337.530929 240.394756 
L -1345.579005 237.998741 
L -1353.627082 239.104772 
L -1361.675159 239.053897 
L -1369.723236 242.52976 
L -1377.771313 241.94919 
L -1385.81939 240.623656 
L -1393.867467 242.35077 
L -1401.915544 244.446221 
L -1409.963621 240.167001 
L -1418.011698 244.462512 
L -1426.059775 239.552055 
L -1434.107852 239.446236 
L -1442.155929 238.653829 
L -1450.204005 239.907985 
L -1458.252082 240.722121 
L -1466.300159 241.036893 
L -1474.348236 238.250423 
L -1482.396313 240.334434 
L -1490.44439 234.297897 
L -1498.492467 227.000806 
L -1506.540544 229.335249 
L -1514.588621 233.077385 
L -1522.636698 223.886589 
L -1530.684775 225.138301 
L -1538.732852 222.883176 
L -1546.780929 222.539502 
L -1554.829005 210.332743 
L -1562.877082 208.807022 
L -1570.925159 204.645885 
L -1578.973236 195.448533 
L -1587.021313 187.936449 
L -1595.06939 195.661783 
L -1603.117467 191.664072 
L -1611.165544 185.340798 
L -1619.213621 182.845104 
L -1627.261698 178.441117 
L -1635.309775 172.531689 
L -1643.357852 175.092909 
L -1651.405929 164.970896 
L -1659.454005 159.79693 
L -1667.502082 157.666026 
L -1675.550159 155.984073 
L -1683.598236 157.44372 
L -1691.646313 155.329155 
L -1699.69439 157.890721 
L -1707.742467 161.169095 
L -1715.790544 156.838039 
L -1723.838621 156.90119 
L -1731.886698 162.06209 
L -1739.934775 163.681268 
L -1747.982852 162.505396 
L -1756.030929 172.581334 
L -1764.079005 166.591756 
L -1772.127082 169.50073 
L -1780.175159 177.35324 
L -1788.223236 176.027303 
L -1796.271313 179.353115 
L -1804.31939 182.413194 
L -1812.367467 185.891981 
L -1820.415544 189.242289 
L -1828.463621 192.951817 
L -1836.511698 196.43756 
L -1844.559775 199.420367 
L -1852.607852 203.73939 
L -1860.655929 205.320358 
L -1868.704005 211.787674 
L -1876.752082 212.74769 
L -1884.800159 216.344542 
L -1892.848236 220.422398 
L -1900.896313 223.644727 
L -1908.94439 227.578927 
L -1916.992467 230.59398 
L -1925.040544 234.84228 
L -1933.088621 237.687216 
L -1941.136698 241.143177 
L -1949.184775 244.775163 
L -1957.232852 248.544677 
L -1965.280929 251.186239 
L -1973.329005 254.9011 
L -1981.377082 257.480696 
L -1989.425159 261.253218 
L -1997.473236 264.244655 
L -2005.521313 267.458886 
L -2013.56939 270.580271 
L -2021.617467 273.54706 
L -2029.665544 276.187448 
L -2037.713621 279.400671 
L -2045.761698 281.384438 
L -2053.809775 285.042086 
L -2061.857852 287.776313 
L -2069.905929 290.131744 
L -2077.954005 292.943858 
L -2086.002082 295.347911 
L -2094.050159 297.447612 
L -2102.098236 300.10747 
L -2110.146313 302.907563 
L -2118.19439 305.165572 
L -2126.242467 307.278962 
L -2134.290544 309.796766 
L -2142.338621 311.797668 
L -2150.386698 314.104954 
L -2158.434775 316.058578 
L -2166.482852 318.181165 
L -2174.530929 319.826483 
L -2182.579005 322.108047 
L -2190.627082 323.734804 
L -2198.675159 325.68091 
L -2206.723236 327.897771 
L -2214.771313 329.586247 
L -2222.81939 330.38929 
L -2230.867467 332.179119 
L -2238.915544 333.224084 
L -2246.963621 334.895201 
L -2255.011698 336.93315 
L -2263.059775 338.021426 
L -2271.107852 339.052332 
L -2279.155929 339.653693 
L -2287.204005 340.680775 
L -2295.252082 341.539277 
L -2303.300159 342.42449 
L -2311.348236 343.803219 
L -2319.396313 344.747326 
L -2327.44439 345.822691 
L -2335.492467 345.724146 
L -2343.540544 346.580576 
L -2351.588621 346.064837 
L -2359.636698 347.422328 
L -2367.684775 348.050689 
L -2375.732852 348.827068 
L -2383.780929 347.206157 
L -2391.829005 349.727839 
L -2399.877082 349.783251 
L -2407.925159 348.742606 
L -2415.973236 348.595521 
L -2424.021313 349.949334 
L -2432.06939 352.023886 
L -2440.117467 351.485489 
L -2448.165544 351.625318 
L -2456.213621 349.834457 
L -2464.261698 350.327506 
L -2472.309775 350.629135 
L -2480.357852 351.868648 
L -2488.405929 351.599423 
L -2496.454005 351.459604 
L -2504.502082 351.710001 
L -2512.550159 352.476897 
L -2520.598236 352.533102 
L -2528.646313 352.902649 
L -2536.69439 353.670272 
L -2544.742467 353.234433 
L -2552.790544 354.353179 
L -2560.838621 354.551536 
L -2568.886698 354.728823 
L -2576.934775 355.501606 
L -2584.982852 355.737059 
L -2593.030929 356.446903 
L -2601.079005 357.273664 
L -2609.127082 357.336798 
L -2617.175159 356.995333 
L -2625.223236 356.971028 
L -2633.271313 358.573563 
L -2641.31939 358.273207 
L -2649.367467 359.415648 
L -2657.415544 359.468012 
L -2665.463621 358.871293 
L -2673.511698 360.258312 
L -2681.559775 358.942648 
L -2689.607852 358.880621 
L -2697.655929 360.437409 
L -2705.704005 359.04981 
L -2713.752082 360.462958 
L -2721.800159 360.968885 
L -2729.848236 359.405732 
L -2737.896313 355.014139 
L -2745.94439 357.543523 
L -2753.992467 356.190717 
L -2762.040544 349.217326 
L -2770.088621 354.788305 
L -2778.136698 355.65863 
L -2786.184775 349.20519 
L -2794.232852 347.403343 
L -2802.280929 350.22964 
L -2810.329005 343.350674 
L -2818.377082 331.903983 
L -2826.425159 343.909827 
L -2834.473236 348.71573 
L -2842.521313 350.806973 
L -2850.56939 334.721236 
L -2858.617467 335.001018 
L -2866.665544 326.943012 
L -2874.713621 320.608165 
L -2882.761698 332.079371 
L -2890.809775 326.44212 
L -2898.857852 315.1736 
L -2906.905929 307.009199 
L -2914.954005 306.790211 
L -2923.002082 307.39445 
L -2931.050159 305.093132 
L -2939.098236 303.416012 
L -2947.146313 306.964031 
L -2955.19439 305.727202 
L -2963.242467 302.109125 
L -2971.290544 303.028751 
L -2979.338621 301.038248 
L -2987.386698 299.74766 
L -2995.434775 298.971629 
L -3003.482852 299.869161 
L -3011.530929 300.021619 
L -3019.579005 299.772374 
L -3027.627082 300.412246 
L -3035.675159 300.277576 
L -3043.723236 300.642459 
L -3051.771313 301.751621 
L -3059.81939 302.381431 
L -3067.867467 302.64729 
L -3075.915544 303.013703 
L -3083.963621 303.804374 
L -3092.011698 304.018692 
L -3100.059775 304.78598 
L -3108.107852 305.880904 
L -3116.155929 306.343962 
L -3124.204005 306.447061 
L -3132.252082 306.98186 
L -3140.300159 307.540557 
L -3148.348236 308.065576 
L -3156.396313 308.565926 
L -3164.44439 309.041876 
L -3172.492467 309.906053 
L -3180.540544 310.130512 
L -3188.588621 310.689653 
L -3196.636698 311.290347 
L -3204.684775 311.76643 
L -3212.732852 312.251075 
L -3220.780929 312.604858 
L -3228.829005 313.020194 
L -3236.877082 313.72238 
L -3244.925159 314.109928 
L -3252.973236 314.630503 
L -3261.021313 314.995676 
L -3269.06939 315.460612 
L -3277.117467 315.94617 
L -3285.165544 316.442867 
L -3293.213621 316.827634 
L -3301.261698 317.332096 
L -3309.309775 317.754038 
L -3317.357852 318.225055 
L -3325.405929 318.647685 
L -3333.454005 319.103474 
L -3341.502082 319.509214 
L -3349.550159 319.963217 
L -3357.598236 320.472104 
L -3365.646313 320.81326 
L -3373.69439 321.293746 
L -3381.742467 321.683094 
L -3389.790544 322.168424 
L -3397.838621 322.473363 
L -3405.886698 322.915833 
L -3413.934775 323.330901 
L -3421.982852 323.719058 
L -3430.030929 324.119124 
L -3438.079005 324.476531 
L -3446.127082 324.924466 
L -3454.175159 325.309619 
L -3462.223236 325.594401 
L -3470.271313 325.965295 
L -3478.31939 326.33354 
L -3486.367467 326.696621 
L -3494.415544 327.037124 
L -3502.463621 327.337658 
L -3510.511698 327.683771 
L -3518.559775 328.014454 
L -3526.607852 328.342867 
L -3534.655929 328.664185 
L -3542.704005 328.994546 
L -3550.752082 329.341205 
L -3558.800159 329.602768 
L -3566.848236 329.930652 
L -3574.896313 330.242988 
L -3582.94439 330.528388 
L -3590.992467 330.826181 
L -3599.040544 331.131273 
L -3607.088621 331.41608 
L -3615.136698 331.724441 
L -3623.184775 331.9792 
L -3631.232852 332.241626 
L -3639.280929 332.531533 
L -3647.329005 332.799591 
L -3655.377082 333.036902 
L -3663.425159 333.30156 
L -3671.473236 333.515275 
L -3679.521313 333.759906 
L -3687.56939 334.03627 
L -3695.617467 334.228592 
L -3703.665544 334.475388 
L -3711.713621 334.689362 
L -3719.761698 334.924963 
L -3727.809775 335.105389 
L -3735.857852 335.365793 
L -3743.905929 335.524184 
L -3751.954005 335.738287 
L -3760.002082 335.939189 
L -3768.050159 336.105699 
L -3776.098236 336.246441 
L -3784.146313 336.402279 
L -3792.19439 336.566487 
L -3800.242467 336.754115 
L -3808.290544 336.908431 
L -3816.338621 337.044441 
L -3824.386698 337.195775 
L -3832.434775 337.355189 
L -3840.482852 337.503752 
L -3848.530929 337.665715 
L -3856.579005 337.827893 
L -3864.627082 337.975281 
L -3872.675159 338.133912 
L -3880.723236 338.296452 
L -3888.771313 338.426127 
L -3896.81939 338.569902 
L -3904.867467 338.738848 
L -3912.915544 338.893263 
L -3920.963621 339.013186 
L -3929.011698 339.178525 
L -3937.059775 339.318345 
L -3945.107852 339.438635 
L -3953.155929 339.568374 
L -3961.204005 339.685781 
L -3969.252082 339.83717 
L -3977.300159 339.939117 
L -3985.348236 340.066088 
L -3993.396313 340.184698 
L -4001.44439 340.291582 
L -4009.492467 340.38387 
L -4017.540544 340.462469 
L -4025.588621 340.546969 
L -4033.636698 340.636628 
L -4041.684775 340.696712 
L -4049.732852 340.783401 
L -4057.780929 340.846029 
L -4065.829005 340.891255 
L -4073.877082 340.965972 
L -4081.925159 341.023687 
L -4089.973236 341.060515 
L -4098.021313 341.110454 
L -4106.06939 341.159861 
L -4114.117467 341.197016 
L -4122.165544 341.237285 
L -4130.213621 341.260024 
L -4138.261698 341.305068 
L -4146.309775 341.329104 
L -4154.357852 341.359407 
L -4162.405929 341.396022 
L -4170.454005 341.415846 
L -4178.502082 341.441655 
L -4186.550159 341.494765 
L -4194.598236 341.516085 
L -4202.646313 341.556053 
L -4210.69439 341.576696 
L -4218.742467 341.623127 
L -4226.790544 341.648907 
L -4234.838621 341.680602 
L -4242.886698 341.702272 
L -4250.934775 341.718097 
L -4258.982852 341.745493 
L -4267.030929 341.783431 
L -4275.079005 341.821401 
L -4283.127082 341.84928 
L -4291.175159 341.864656 
L -4299.223236 341.913138 
L -4307.271313 341.947803 
L -4315.31939 341.998109 
z
" clip-path="url(#p4843fb18d6)" style="fill: #008000; fill-opacity: 0.3; stroke: #008000; stroke-opacity: 0.3"/>
   </g>
   <g id="matplotlib.axis_1">
    <g id="xtick_1">
     <g id="line2d_1">
      <defs>
       <path id="m28af2f4d01" d="M 0 0 
L 0 3.5 
" style="stroke: #000000; stroke-width: 0.8"/>
      </defs>
      <g>
       <use xlink:href="#m28af2f4d01" x="103.074841" y="395.28" style="stroke: #000000; stroke-width: 0.8"/>
      </g>
     </g>
     <g id="text_1">
      <!-- 2023-01-01 -->
      <g transform="translate(17.945813 495.213718) rotate(-45) scale(0.2 -0.2)">
       <defs>
        <path id="DejaVuSans-32" d="M 1228 531 
L 3431 531 
L 3431 0 
L 469 0 
L 469 531 
Q 828 903 1448 1529 
Q 2069 2156 2228 2338 
Q 2531 2678 2651 2914 
Q 2772 3150 2772 3378 
Q 2772 3750 2511 3984 
Q 2250 4219 1831 4219 
Q 1534 4219 1204 4116 
Q 875 4013 500 3803 
L 500 4441 
Q 881 4594 1212 4672 
Q 1544 4750 1819 4750 
Q 2544 4750 2975 4387 
Q 3406 4025 3406 3419 
Q 3406 3131 3298 2873 
Q 3191 2616 2906 2266 
Q 2828 2175 2409 1742 
Q 1991 1309 1228 531 
z
" transform="scale(0.015625)"/>
        <path id="DejaVuSans-30" d="M 2034 4250 
Q 1547 4250 1301 3770 
Q 1056 3291 1056 2328 
Q 1056 1369 1301 889 
Q 1547 409 2034 409 
Q 2525 409 2770 889 
Q 3016 1369 3016 2328 
Q 3016 3291 2770 3770 
Q 2525 4250 2034 4250 
z
M 2034 4750 
Q 2819 4750 3233 4129 
Q 3647 3509 3647 2328 
Q 3647 1150 3233 529 
Q 2819 -91 2034 -91 
Q 1250 -91 836 529 
Q 422 1150 422 2328 
Q 422 3509 836 4129 
Q 1250 4750 2034 4750 
z
" transform="scale(0.015625)"/>
        <path id="DejaVuSans-33" d="M 2597 2516 
Q 3050 2419 3304 2112 
Q 3559 1806 3559 1356 
Q 3559 666 3084 287 
Q 2609 -91 1734 -91 
Q 1441 -91 1130 -33 
Q 819 25 488 141 
L 488 750 
Q 750 597 1062 519 
Q 1375 441 1716 441 
Q 2309 441 2620 675 
Q 2931 909 2931 1356 
Q 2931 1769 2642 2001 
Q 2353 2234 1838 2234 
L 1294 2234 
L 1294 2753 
L 1863 2753 
Q 2328 2753 2575 2939 
Q 2822 3125 2822 3475 
Q 2822 3834 2567 4026 
Q 2313 4219 1838 4219 
Q 1578 4219 1281 4162 
Q 984 4106 628 3988 
L 628 4550 
Q 988 4650 1302 4700 
Q 1616 4750 1894 4750 
Q 2613 4750 3031 4423 
Q 3450 4097 3450 3541 
Q 3450 3153 3228 2886 
Q 3006 2619 2597 2516 
z
" transform="scale(0.015625)"/>
        <path id="DejaVuSans-2d" d="M 313 2009 
L 1997 2009 
L 1997 1497 
L 313 1497 
L 313 2009 
z
" transform="scale(0.015625)"/>
        <path id="DejaVuSans-31" d="M 794 531 
L 1825 531 
L 1825 4091 
L 703 3866 
L 703 4441 
L 1819 4666 
L 2450 4666 
L 2450 531 
L 3481 531 
L 3481 0 
L 794 0 
L 794 531 
z
" transform="scale(0.015625)"/>
       </defs>
       <use xlink:href="#DejaVuSans-32"/>
       <use xlink:href="#DejaVuSans-30" x="63.623047"/>
       <use xlink:href="#DejaVuSans-32" x="127.246094"/>
       <use xlink:href="#DejaVuSans-33" x="190.869141"/>
       <use xlink:href="#DejaVuSans-2d" x="254.492188"/>
       <use xlink:href="#DejaVuSans-30" x="290.576172"/>
       <use xlink:href="#DejaVuSans-31" x="354.199219"/>
       <use xlink:href="#DejaVuSans-2d" x="417.822266"/>
       <use xlink:href="#DejaVuSans-30" x="453.90625"/>
       <use xlink:href="#DejaVuSans-31" x="517.529297"/>
      </g>
     </g>
    </g>
    <g id="xtick_2">
     <g id="line2d_2">
      <g>
       <use xlink:href="#m28af2f4d01" x="215.747918" y="395.28" style="stroke: #000000; stroke-width: 0.8"/>
      </g>
     </g>
     <g id="text_2">
      <!-- 2023-01-15 -->
      <g transform="translate(130.61889 495.213718) rotate(-45) scale(0.2 -0.2)">
       <defs>
        <path id="DejaVuSans-35" d="M 691 4666 
L 3169 4666 
L 3169 4134 
L 1269 4134 
L 1269 2991 
Q 1406 3038 1543 3061 
Q 1681 3084 1819 3084 
Q 2600 3084 3056 2656 
Q 3513 2228 3513 1497 
Q 3513 744 3044 326 
Q 2575 -91 1722 -91 
Q 1428 -91 1123 -41 
Q 819 9 494 109 
L 494 744 
Q 775 591 1075 516 
Q 1375 441 1709 441 
Q 2250 441 2565 725 
Q 2881 1009 2881 1497 
Q 2881 1984 2565 2268 
Q 2250 2553 1709 2553 
Q 1456 2553 1204 2497 
Q 953 2441 691 2322 
L 691 4666 
z
" transform="scale(0.015625)"/>
       </defs>
       <use xlink:href="#DejaVuSans-32"/>
       <use xlink:href="#DejaVuSans-30" x="63.623047"/>
       <use xlink:href="#DejaVuSans-32" x="127.246094"/>
       <use xlink:href="#DejaVuSans-33" x="190.869141"/>
       <use xlink:href="#DejaVuSans-2d" x="254.492188"/>
       <use xlink:href="#DejaVuSans-30" x="290.576172"/>
       <use xlink:href="#DejaVuSans-31" x="354.199219"/>
       <use xlink:href="#DejaVuSans-2d" x="417.822266"/>
       <use xlink:href="#DejaVuSans-31" x="453.90625"/>
       <use xlink:href="#DejaVuSans-35" x="517.529297"/>
      </g>
     </g>
    </g>
    <g id="xtick_3">
     <g id="line2d_3">
      <g>
       <use xlink:href="#m28af2f4d01" x="328.420995" y="395.28" style="stroke: #000000; stroke-width: 0.8"/>
      </g>
     </g>
     <g id="text_3">
      <!-- 2023-01-29 -->
      <g transform="translate(243.291967 495.213718) rotate(-45) scale(0.2 -0.2)">
       <defs>
        <path id="DejaVuSans-39" d="M 703 97 
L 703 672 
Q 941 559 1184 500 
Q 1428 441 1663 441 
Q 2288 441 2617 861 
Q 2947 1281 2994 2138 
Q 2813 1869 2534 1725 
Q 2256 1581 1919 1581 
Q 1219 1581 811 2004 
Q 403 2428 403 3163 
Q 403 3881 828 4315 
Q 1253 4750 1959 4750 
Q 2769 4750 3195 4129 
Q 3622 3509 3622 2328 
Q 3622 1225 3098 567 
Q 2575 -91 1691 -91 
Q 1453 -91 1209 -44 
Q 966 3 703 97 
z
M 1959 2075 
Q 2384 2075 2632 2365 
Q 2881 2656 2881 3163 
Q 2881 3666 2632 3958 
Q 2384 4250 1959 4250 
Q 1534 4250 1286 3958 
Q 1038 3666 1038 3163 
Q 1038 2656 1286 2365 
Q 1534 2075 1959 2075 
z
" transform="scale(0.015625)"/>
       </defs>
       <use xlink:href="#DejaVuSans-32"/>
       <use xlink:href="#DejaVuSans-30" x="63.623047"/>
       <use xlink:href="#DejaVuSans-32" x="127.246094"/>
       <use xlink:href="#DejaVuSans-33" x="190.869141"/>
       <use xlink:href="#DejaVuSans-2d" x="254.492188"/>
       <use xlink:href="#DejaVuSans-30" x="290.576172"/>
       <use xlink:href="#DejaVuSans-31" x="354.199219"/>
       <use xlink:href="#DejaVuSans-2d" x="417.822266"/>
       <use xlink:href="#DejaVuSans-32" x="453.90625"/>
       <use xlink:href="#DejaVuSans-39" x="517.529297"/>
      </g>
     </g>
    </g>
    <g id="xtick_4">
     <g id="line2d_4">
      <g>
       <use xlink:href="#m28af2f4d01" x="441.094071" y="395.28" style="stroke: #000000; stroke-width: 0.8"/>
      </g>
     </g>
     <g id="text_4">
      <!-- 2023-02-12 -->
      <g transform="translate(355.965044 495.213718) rotate(-45) scale(0.2 -0.2)">
       <use xlink:href="#DejaVuSans-32"/>
       <use xlink:href="#DejaVuSans-30" x="63.623047"/>
       <use xlink:href="#DejaVuSans-32" x="127.246094"/>
       <use xlink:href="#DejaVuSans-33" x="190.869141"/>
       <use xlink:href="#DejaVuSans-2d" x="254.492188"/>
       <use xlink:href="#DejaVuSans-30" x="290.576172"/>
       <use xlink:href="#DejaVuSans-32" x="354.199219"/>
       <use xlink:href="#DejaVuSans-2d" x="417.822266"/>
       <use xlink:href="#DejaVuSans-31" x="453.90625"/>
       <use xlink:href="#DejaVuSans-32" x="517.529297"/>
      </g>
     </g>
    </g>
    <g id="xtick_5">
     <g id="line2d_5">
      <g>
       <use xlink:href="#m28af2f4d01" x="553.767148" y="395.28" style="stroke: #000000; stroke-width: 0.8"/>
      </g>
     </g>
     <g id="text_5">
      <!-- 2023-02-26 -->
      <g transform="translate(468.638121 495.213718) rotate(-45) scale(0.2 -0.2)">
       <defs>
        <path id="DejaVuSans-36" d="M 2113 2584 
Q 1688 2584 1439 2293 
Q 1191 2003 1191 1497 
Q 1191 994 1439 701 
Q 1688 409 2113 409 
Q 2538 409 2786 701 
Q 3034 994 3034 1497 
Q 3034 2003 2786 2293 
Q 2538 2584 2113 2584 
z
M 3366 4563 
L 3366 3988 
Q 3128 4100 2886 4159 
Q 2644 4219 2406 4219 
Q 1781 4219 1451 3797 
Q 1122 3375 1075 2522 
Q 1259 2794 1537 2939 
Q 1816 3084 2150 3084 
Q 2853 3084 3261 2657 
Q 3669 2231 3669 1497 
Q 3669 778 3244 343 
Q 2819 -91 2113 -91 
Q 1303 -91 875 529 
Q 447 1150 447 2328 
Q 447 3434 972 4092 
Q 1497 4750 2381 4750 
Q 2619 4750 2861 4703 
Q 3103 4656 3366 4563 
z
" transform="scale(0.015625)"/>
       </defs>
       <use xlink:href="#DejaVuSans-32"/>
       <use xlink:href="#DejaVuSans-30" x="63.623047"/>
       <use xlink:href="#DejaVuSans-32" x="127.246094"/>
       <use xlink:href="#DejaVuSans-33" x="190.869141"/>
       <use xlink:href="#DejaVuSans-2d" x="254.492188"/>
       <use xlink:href="#DejaVuSans-30" x="290.576172"/>
       <use xlink:href="#DejaVuSans-32" x="354.199219"/>
       <use xlink:href="#DejaVuSans-2d" x="417.822266"/>
       <use xlink:href="#DejaVuSans-32" x="453.90625"/>
       <use xlink:href="#DejaVuSans-36" x="517.529297"/>
      </g>
     </g>
    </g>
    <g id="xtick_6">
     <g id="line2d_6">
      <g>
       <use xlink:href="#m28af2f4d01" x="666.440225" y="395.28" style="stroke: #000000; stroke-width: 0.8"/>
      </g>
     </g>
     <g id="text_6">
      <!-- 2023-03-12 -->
      <g transform="translate(581.311198 495.213718) rotate(-45) scale(0.2 -0.2)">
       <use xlink:href="#DejaVuSans-32"/>
       <use xlink:href="#DejaVuSans-30" x="63.623047"/>
       <use xlink:href="#DejaVuSans-32" x="127.246094"/>
       <use xlink:href="#DejaVuSans-33" x="190.869141"/>
       <use xlink:href="#DejaVuSans-2d" x="254.492188"/>
       <use xlink:href="#DejaVuSans-30" x="290.576172"/>
       <use xlink:href="#DejaVuSans-33" x="354.199219"/>
       <use xlink:href="#DejaVuSans-2d" x="417.822266"/>
       <use xlink:href="#DejaVuSans-31" x="453.90625"/>
       <use xlink:href="#DejaVuSans-32" x="517.529297"/>
      </g>
     </g>
    </g>
    <g id="xtick_7">
     <g id="line2d_7">
      <g>
       <use xlink:href="#m28af2f4d01" x="779.113302" y="395.28" style="stroke: #000000; stroke-width: 0.8"/>
      </g>
     </g>
     <g id="text_7">
      <!-- 2023-03-26 -->
      <g transform="translate(693.984275 495.213718) rotate(-45) scale(0.2 -0.2)">
       <use xlink:href="#DejaVuSans-32"/>
       <use xlink:href="#DejaVuSans-30" x="63.623047"/>
       <use xlink:href="#DejaVuSans-32" x="127.246094"/>
       <use xlink:href="#DejaVuSans-33" x="190.869141"/>
       <use xlink:href="#DejaVuSans-2d" x="254.492188"/>
       <use xlink:href="#DejaVuSans-30" x="290.576172"/>
       <use xlink:href="#DejaVuSans-33" x="354.199219"/>
       <use xlink:href="#DejaVuSans-2d" x="417.822266"/>
       <use xlink:href="#DejaVuSans-32" x="453.90625"/>
       <use xlink:href="#DejaVuSans-36" x="517.529297"/>
      </g>
     </g>
    </g>
    <g id="xtick_8">
     <g id="line2d_8">
      <g>
       <use xlink:href="#m28af2f4d01" x="891.786379" y="395.28" style="stroke: #000000; stroke-width: 0.8"/>
      </g>
     </g>
     <g id="text_8">
      <!-- 2023-04-09 -->
      <g transform="translate(806.657352 495.213718) rotate(-45) scale(0.2 -0.2)">
       <defs>
        <path id="DejaVuSans-34" d="M 2419 4116 
L 825 1625 
L 2419 1625 
L 2419 4116 
z
M 2253 4666 
L 3047 4666 
L 3047 1625 
L 3713 1625 
L 3713 1100 
L 3047 1100 
L 3047 0 
L 2419 0 
L 2419 1100 
L 313 1100 
L 313 1709 
L 2253 4666 
z
" transform="scale(0.015625)"/>
       </defs>
       <use xlink:href="#DejaVuSans-32"/>
       <use xlink:href="#DejaVuSans-30" x="63.623047"/>
       <use xlink:href="#DejaVuSans-32" x="127.246094"/>
       <use xlink:href="#DejaVuSans-33" x="190.869141"/>
       <use xlink:href="#DejaVuSans-2d" x="254.492188"/>
       <use xlink:href="#DejaVuSans-30" x="290.576172"/>
       <use xlink:href="#DejaVuSans-34" x="354.199219"/>
       <use xlink:href="#DejaVuSans-2d" x="417.822266"/>
       <use xlink:href="#DejaVuSans-30" x="453.90625"/>
       <use xlink:href="#DejaVuSans-39" x="517.529297"/>
      </g>
     </g>
    </g>
    <g id="xtick_9">
     <g id="line2d_9">
      <g>
       <use xlink:href="#m28af2f4d01" x="940.074841" y="395.28" style="stroke: #000000; stroke-width: 0.8"/>
      </g>
     </g>
     <g id="text_9">
      <!-- 2023-04-15 -->
      <g transform="translate(854.945813 495.213718) rotate(-45) scale(0.2 -0.2)">
       <use xlink:href="#DejaVuSans-32"/>
       <use xlink:href="#DejaVuSans-30" x="63.623047"/>
       <use xlink:href="#DejaVuSans-32" x="127.246094"/>
       <use xlink:href="#DejaVuSans-33" x="190.869141"/>
       <use xlink:href="#DejaVuSans-2d" x="254.492188"/>
       <use xlink:href="#DejaVuSans-30" x="290.576172"/>
       <use xlink:href="#DejaVuSans-34" x="354.199219"/>
       <use xlink:href="#DejaVuSans-2d" x="417.822266"/>
       <use xlink:href="#DejaVuSans-31" x="453.90625"/>
       <use xlink:href="#DejaVuSans-35" x="517.529297"/>
      </g>
     </g>
    </g>
   </g>
   <g id="matplotlib.axis_2">
    <g id="ytick_1">
     <g id="line2d_10">
      <defs>
       <path id="m9c6ed5b287" d="M 0 0 
L -3.5 0 
" style="stroke: #000000; stroke-width: 0.8"/>
      </defs>
      <g>
       <use xlink:href="#m9c6ed5b287" x="103.074841" y="342.046691" style="stroke: #000000; stroke-width: 0.8"/>
      </g>
     </g>
     <g id="text_10">
      <!-- 0.00 -->
      <g transform="translate(51.543591 349.645129) scale(0.2 -0.2)">
       <defs>
        <path id="DejaVuSans-2e" d="M 684 794 
L 1344 794 
L 1344 0 
L 684 0 
L 684 794 
z
" transform="scale(0.015625)"/>
       </defs>
       <use xlink:href="#DejaVuSans-30"/>
       <use xlink:href="#DejaVuSans-2e" x="63.623047"/>
       <use xlink:href="#DejaVuSans-30" x="95.410156"/>
       <use xlink:href="#DejaVuSans-30" x="159.033203"/>
      </g>
     </g>
    </g>
    <g id="ytick_2">
     <g id="line2d_11">
      <g>
       <use xlink:href="#m9c6ed5b287" x="103.074841" y="283.205609" style="stroke: #000000; stroke-width: 0.8"/>
      </g>
     </g>
     <g id="text_11">
      <!-- 0.05 -->
      <g transform="translate(51.543591 290.804046) scale(0.2 -0.2)">
       <use xlink:href="#DejaVuSans-30"/>
       <use xlink:href="#DejaVuSans-2e" x="63.623047"/>
       <use xlink:href="#DejaVuSans-30" x="95.410156"/>
       <use xlink:href="#DejaVuSans-35" x="159.033203"/>
      </g>
     </g>
    </g>
    <g id="ytick_3">
     <g id="line2d_12">
      <g>
       <use xlink:href="#m9c6ed5b287" x="103.074841" y="224.364526" style="stroke: #000000; stroke-width: 0.8"/>
      </g>
     </g>
     <g id="text_12">
      <!-- 0.10 -->
      <g transform="translate(51.543591 231.962963) scale(0.2 -0.2)">
       <use xlink:href="#DejaVuSans-30"/>
       <use xlink:href="#DejaVuSans-2e" x="63.623047"/>
       <use xlink:href="#DejaVuSans-31" x="95.410156"/>
       <use xlink:href="#DejaVuSans-30" x="159.033203"/>
      </g>
     </g>
    </g>
    <g id="ytick_4">
     <g id="line2d_13">
      <g>
       <use xlink:href="#m9c6ed5b287" x="103.074841" y="165.523443" style="stroke: #000000; stroke-width: 0.8"/>
      </g>
     </g>
     <g id="text_13">
      <!-- 0.15 -->
      <g transform="translate(51.543591 173.121881) scale(0.2 -0.2)">
       <use xlink:href="#DejaVuSans-30"/>
       <use xlink:href="#DejaVuSans-2e" x="63.623047"/>
       <use xlink:href="#DejaVuSans-31" x="95.410156"/>
       <use xlink:href="#DejaVuSans-35" x="159.033203"/>
      </g>
     </g>
    </g>
    <g id="ytick_5">
     <g id="line2d_14">
      <g>
       <use xlink:href="#m9c6ed5b287" x="103.074841" y="106.682361" style="stroke: #000000; stroke-width: 0.8"/>
      </g>
     </g>
     <g id="text_14">
      <!-- 0.20 -->
      <g transform="translate(51.543591 114.280798) scale(0.2 -0.2)">
       <use xlink:href="#DejaVuSans-30"/>
       <use xlink:href="#DejaVuSans-2e" x="63.623047"/>
       <use xlink:href="#DejaVuSans-32" x="95.410156"/>
       <use xlink:href="#DejaVuSans-30" x="159.033203"/>
      </g>
     </g>
    </g>
    <g id="ytick_6">
     <g id="line2d_15">
      <g>
       <use xlink:href="#m9c6ed5b287" x="103.074841" y="47.841278" style="stroke: #000000; stroke-width: 0.8"/>
      </g>
     </g>
     <g id="text_15">
      <!-- 0.25 -->
      <g transform="translate(51.543591 55.439716) scale(0.2 -0.2)">
       <use xlink:href="#DejaVuSans-30"/>
       <use xlink:href="#DejaVuSans-2e" x="63.623047"/>
       <use xlink:href="#DejaVuSans-32" x="95.410156"/>
       <use xlink:href="#DejaVuSans-35" x="159.033203"/>
      </g>
     </g>
    </g>
   </g>
   <g id="line2d_16">
    <path d="M 940.074841 342.046691 
" clip-path="url(#p4843fb18d6)" style="fill: none; stroke: #ffa500; stroke-width: 1.5; stroke-linecap: square"/>
   </g>
   <g id="line2d_17">
    <path d="M 103.074841 342.046691 
L 948.274841 342.046691 
" clip-path="url(#p4843fb18d6)" style="fill: none; stroke-dasharray: 7.4,3.2; stroke-dashoffset: 0; stroke: #000000; stroke-width: 2"/>
   </g>
   <g id="patch_3">
    <path d="M 103.074841 395.28 
L 103.074841 7.2 
" style="fill: none; stroke: #000000; stroke-width: 0.8; stroke-linejoin: miter; stroke-linecap: square"/>
   </g>
   <g id="patch_4">
    <path d="M 940.074841 395.28 
L 940.074841 7.2 
" style="fill: none; stroke: #000000; stroke-width: 0.8; stroke-linejoin: miter; stroke-linecap: square"/>
   </g>
   <g id="patch_5">
    <path d="M 103.074841 395.28 
L 940.074841 395.28 
" style="fill: none; stroke: #000000; stroke-width: 0.8; stroke-linejoin: miter; stroke-linecap: square"/>
   </g>
   <g id="patch_6">
    <path d="M 103.074841 7.2 
L 940.074841 7.2 
" style="fill: none; stroke: #000000; stroke-width: 0.8; stroke-linejoin: miter; stroke-linecap: square"/>
   </g>
  </g>
 </g>
 <defs>
  <clipPath id="p4843fb18d6">
   <rect x="103.074841" y="7.2" width="837" height="388.08"/>
  </clipPath>
 </defs>
</svg>
