<?xml version="1.0" encoding="utf-8" standalone="no"?>
<!DOCTYPE svg PUBLIC "-//W3C//DTD SVG 1.1//EN"
  "http://www.w3.org/Graphics/SVG/1.1/DTD/svg11.dtd">
<svg xmlns:xlink="http://www.w3.org/1999/xlink" width="947.274841pt" height="505.354841pt" viewBox="0 0 947.274841 505.354841" xmlns="http://www.w3.org/2000/svg" version="1.1">
 <metadata>
  <rdf:RDF xmlns:dc="http://purl.org/dc/elements/1.1/" xmlns:cc="http://creativecommons.org/ns#" xmlns:rdf="http://www.w3.org/1999/02/22-rdf-syntax-ns#">
   <cc:Work>
    <dc:type rdf:resource="http://purl.org/dc/dcmitype/StillImage"/>
    <dc:date>2023-11-15T18:16:44.292785</dc:date>
    <dc:format>image/svg+xml</dc:format>
    <dc:creator>
     <cc:Agent>
      <dc:title>Matplotlib v3.7.2, https://matplotlib.org/</dc:title>
     </cc:Agent>
    </dc:creator>
   </cc:Work>
  </rdf:RDF>
 </metadata>
 <defs>
  <style type="text/css">*{stroke-linejoin: round; stroke-linecap: butt}</style>
 </defs>
 <g id="figure_1">
  <g id="patch_1">
   <path d="M 0 505.354841 
L 947.274841 505.354841 
L 947.274841 -0 
L 0 -0 
z
" style="fill: #ffffff"/>
  </g>
  <g id="axes_1">
   <g id="patch_2">
    <path d="M 103.074841 395.28 
L 940.074841 395.28 
L 940.074841 7.2 
L 103.074841 7.2 
z
" style="fill: #ffffff"/>
   </g>
   <g id="PolyCollection_1">
    <path d="M -4315.31939 325.631743 
L -4315.31939 325.657381 
L -4307.271313 325.536762 
L -4299.223236 325.430484 
L -4291.175159 325.295684 
L -4283.127082 325.202728 
L -4275.079005 325.085246 
L -4267.030929 324.949244 
L -4258.982852 324.820304 
L -4250.934775 324.703311 
L -4242.886698 324.598532 
L -4234.838621 324.479481 
L -4226.790544 324.355182 
L -4218.742467 324.233707 
L -4210.69439 324.08785 
L -4202.646313 323.964125 
L -4194.598236 323.821027 
L -4186.550159 323.69591 
L -4178.502082 323.532376 
L -4170.454005 323.394675 
L -4162.405929 323.26113 
L -4154.357852 323.106039 
L -4146.309775 322.954042 
L -4138.261698 322.804636 
L -4130.213621 322.627655 
L -4122.165544 322.469945 
L -4114.117467 322.287995 
L -4106.06939 322.103378 
L -4098.021313 321.900556 
L -4089.973236 321.691853 
L -4081.925159 321.486244 
L -4073.877082 321.250824 
L -4065.829005 320.986468 
L -4057.780929 320.747671 
L -4049.732852 320.478534 
L -4041.684775 320.173556 
L -4033.636698 319.886167 
L -4025.588621 319.552755 
L -4017.540544 319.212817 
L -4009.492467 318.861769 
L -4001.44439 318.491067 
L -3993.396313 318.082196 
L -3985.348236 317.647228 
L -3977.300159 317.186507 
L -3969.252082 316.738549 
L -3961.204005 316.218097 
L -3953.155929 315.718431 
L -3945.107852 315.187238 
L -3937.059775 314.651906 
L -3929.011698 314.077697 
L -3920.963621 313.458642 
L -3912.915544 312.879111 
L -3904.867467 312.238857 
L -3896.81939 311.576578 
L -3888.771313 310.92463 
L -3880.723236 310.277124 
L -3872.675159 309.578895 
L -3864.627082 308.872507 
L -3856.579005 308.166013 
L -3848.530929 307.431759 
L -3840.482852 306.688228 
L -3832.434775 305.945572 
L -3824.386698 305.179218 
L -3816.338621 304.41033 
L -3808.290544 303.651053 
L -3800.242467 302.862874 
L -3792.19439 302.024428 
L -3784.146313 301.208934 
L -3776.098236 300.394656 
L -3768.050159 299.591536 
L -3760.002082 298.758559 
L -3751.954005 297.943004 
L -3743.905929 297.114906 
L -3735.857852 296.359709 
L -3727.809775 295.485183 
L -3719.761698 294.717149 
L -3711.713621 293.884072 
L -3703.665544 293.095117 
L -3695.617467 292.273483 
L -3687.56939 291.528543 
L -3679.521313 290.685697 
L -3671.473236 289.897208 
L -3663.425159 289.152908 
L -3655.377082 288.3506 
L -3647.329005 287.587697 
L -3639.280929 286.803553 
L -3631.232852 286.004523 
L -3623.184775 285.233863 
L -3615.136698 284.477124 
L -3607.088621 283.676604 
L -3599.040544 282.906432 
L -3590.992467 282.120281 
L -3582.94439 281.346086 
L -3574.896313 280.588748 
L -3566.848236 279.813388 
L -3558.800159 279.031728 
L -3550.752082 278.320414 
L -3542.704005 277.526286 
L -3534.655929 276.762782 
L -3526.607852 276.011214 
L -3518.559775 275.259527 
L -3510.511698 274.510177 
L -3502.463621 273.752843 
L -3494.415544 273.027538 
L -3486.367467 272.276877 
L -3478.31939 271.51009 
L -3470.271313 270.736009 
L -3462.223236 269.954708 
L -3454.175159 269.218569 
L -3446.127082 268.416488 
L -3438.079005 267.566391 
L -3430.030929 266.763092 
L -3421.982852 265.919972 
L -3413.934775 265.064579 
L -3405.886698 264.165322 
L -3397.838621 263.250576 
L -3389.790544 262.393997 
L -3381.742467 261.427682 
L -3373.69439 260.504229 
L -3365.646313 259.515697 
L -3357.598236 258.599749 
L -3349.550159 257.536938 
L -3341.502082 256.492156 
L -3333.454005 255.473086 
L -3325.405929 254.436571 
L -3317.357852 253.369632 
L -3309.309775 252.257513 
L -3301.261698 251.208012 
L -3293.213621 250.018346 
L -3285.165544 248.959172 
L -3277.117467 247.73466 
L -3269.06939 246.543609 
L -3261.021313 245.37664 
L -3252.973236 244.25159 
L -3244.925159 242.954184 
L -3236.877082 241.770328 
L -3228.829005 240.292095 
L -3220.780929 239.003476 
L -3212.732852 237.792937 
L -3204.684775 236.437934 
L -3196.636698 235.048366 
L -3188.588621 233.462963 
L -3180.540544 231.966206 
L -3172.492467 230.693185 
L -3164.44439 228.749716 
L -3156.396313 227.158434 
L -3148.348236 225.530741 
L -3140.300159 223.842329 
L -3132.252082 221.934836 
L -3124.204005 220.126196 
L -3116.155929 218.715034 
L -3108.107852 217.129898 
L -3100.059775 214.564776 
L -3092.011698 212.450296 
L -3083.963621 211.133103 
L -3075.915544 208.896008 
L -3067.867467 207.264585 
L -3059.81939 205.750202 
L -3051.771313 203.643404 
L -3043.723236 200.77525 
L -3035.675159 199.01768 
L -3027.627082 198.027137 
L -3019.579005 195.889339 
L -3011.530929 195.074805 
L -3003.482852 193.666489 
L -2995.434775 191.124279 
L -2987.386698 191.1357 
L -2979.338621 191.930101 
L -2971.290544 193.808779 
L -2963.242467 191.346257 
L -2955.19439 195.746212 
L -2947.146313 196.607654 
L -2939.098236 190.323047 
L -2931.050159 191.920952 
L -2923.002082 194.507183 
L -2914.954005 192.778995 
L -2906.905929 192.333008 
L -2898.857852 203.892197 
L -2890.809775 220.379934 
L -2882.761698 228.547186 
L -2874.713621 210.467738 
L -2866.665544 219.654053 
L -2858.617467 231.716846 
L -2850.56939 230.960678 
L -2842.521313 255.584484 
L -2834.473236 252.181286 
L -2826.425159 244.606076 
L -2818.377082 225.885514 
L -2810.329005 243.445983 
L -2802.280929 254.001876 
L -2794.232852 249.573914 
L -2786.184775 252.322776 
L -2778.136698 262.293493 
L -2770.088621 260.960775 
L -2762.040544 252.359563 
L -2753.992467 263.163186 
L -2745.94439 265.303949 
L -2737.896313 261.443148 
L -2729.848236 268.299223 
L -2721.800159 270.802279 
L -2713.752082 270.121175 
L -2705.704005 268.035243 
L -2697.655929 270.282573 
L -2689.607852 267.973697 
L -2681.559775 268.164123 
L -2673.511698 270.300249 
L -2665.463621 268.267138 
L -2657.415544 269.303748 
L -2649.367467 269.346563 
L -2641.31939 267.695838 
L -2633.271313 268.27819 
L -2625.223236 265.902097 
L -2617.175159 266.036417 
L -2609.127082 266.664427 
L -2601.079005 266.673044 
L -2593.030929 265.493267 
L -2584.982852 264.476958 
L -2576.934775 264.191406 
L -2568.886698 263.066006 
L -2560.838621 262.85086 
L -2552.790544 262.598059 
L -2544.742467 260.901839 
L -2536.69439 261.623212 
L -2528.646313 260.480569 
L -2520.598236 259.952784 
L -2512.550159 259.924146 
L -2504.502082 258.799692 
L -2496.454005 258.47421 
L -2488.405929 258.773938 
L -2480.357852 259.301792 
L -2472.309775 257.502603 
L -2464.261698 257.14623 
L -2456.213621 256.514196 
L -2448.165544 259.463544 
L -2440.117467 259.478595 
L -2432.06939 260.587008 
L -2424.021313 257.662228 
L -2415.973236 255.840172 
L -2407.925159 256.350363 
L -2399.877082 258.28659 
L -2391.829005 258.572688 
L -2383.780929 255.04516 
L -2375.732852 257.94085 
L -2367.684775 257.160375 
L -2359.636698 256.63236 
L -2351.588621 254.980916 
L -2343.540544 256.245196 
L -2335.492467 255.420881 
L -2327.44439 256.112615 
L -2319.396313 255.023291 
L -2311.348236 254.151215 
L -2303.300159 252.616081 
L -2295.252082 251.854871 
L -2287.204005 251.154978 
L -2279.155929 250.212176 
L -2271.107852 249.965546 
L -2263.059775 249.090978 
L -2255.011698 248.155449 
L -2246.963621 245.767537 
L -2238.915544 243.939703 
L -2230.867467 243.088077 
L -2222.81939 241.094293 
L -2214.771313 240.655981 
L -2206.723236 238.904142 
L -2198.675159 236.349575 
L -2190.627082 234.210174 
L -2182.579005 232.579149 
L -2174.530929 229.934002 
L -2166.482852 228.292434 
L -2158.434775 225.930291 
L -2150.386698 223.836382 
L -2142.338621 221.216879 
L -2134.290544 219.048258 
L -2126.242467 216.118774 
L -2118.19439 213.800354 
L -2110.146313 211.2852 
L -2102.098236 207.958257 
L -2094.050159 204.855525 
L -2086.002082 202.584306 
L -2077.954005 199.844563 
L -2069.905929 196.500105 
L -2061.857852 193.852556 
L -2053.809775 190.637319 
L -2045.761698 186.067463 
L -2037.713621 184.154843 
L -2029.665544 180.442082 
L -2021.617467 177.523722 
L -2013.56939 174.205301 
L -2005.521313 170.613825 
L -1997.473236 166.902211 
L -1989.425159 163.520821 
L -1981.377082 158.998924 
L -1973.329005 156.288185 
L -1965.280929 152.072831 
L -1957.232852 149.337382 
L -1949.184775 145.018368 
L -1941.136698 140.849194 
L -1933.088621 136.994017 
L -1925.040544 133.914448 
L -1916.992467 128.929831 
L -1908.94439 125.541877 
L -1900.896313 121.164272 
L -1892.848236 117.695675 
L -1884.800159 113.217654 
L -1876.752082 109.285266 
L -1868.704005 108.678124 
L -1860.655929 101.065649 
L -1852.607852 99.745572 
L -1844.559775 95.011486 
L -1836.511698 91.74113 
L -1828.463621 87.896087 
L -1820.415544 83.884431 
L -1812.367467 80.364693 
L -1804.31939 76.96175 
L -1796.271313 73.752844 
L -1788.223236 70.525037 
L -1780.175159 72.804137 
L -1772.127082 63.493786 
L -1764.079005 61.0815 
L -1756.030929 68.477995 
L -1747.982852 57.266172 
L -1739.934775 58.976165 
L -1731.886698 57.618658 
L -1723.838621 51.715712 
L -1715.790544 52.560696 
L -1707.742467 58.024078 
L -1699.69439 53.77018 
L -1691.646313 51.745237 
L -1683.598236 55.107566 
L -1675.550159 53.673657 
L -1667.502082 55.947598 
L -1659.454005 59.077201 
L -1651.405929 64.514828 
L -1643.357852 77.284093 
L -1635.309775 74.221515 
L -1627.261698 81.098257 
L -1619.213621 86.777074 
L -1611.165544 89.785198 
L -1603.117467 97.050073 
L -1595.06939 103.230645 
L -1587.021313 92.70166 
L -1578.973236 104.244486 
L -1570.925159 118.775781 
L -1562.877082 125.835224 
L -1554.829005 129.117528 
L -1546.780929 148.330829 
L -1538.732852 149.972289 
L -1530.684775 155.280387 
L -1522.636698 153.976769 
L -1514.588621 170.202525 
L -1506.540544 165.297757 
L -1498.492467 162.55114 
L -1490.44439 176.416616 
L -1482.396313 186.286009 
L -1474.348236 185.511421 
L -1466.300159 191.401808 
L -1458.252082 193.373434 
L -1450.204005 193.810501 
L -1442.155929 193.889974 
L -1434.107852 197.191495 
L -1426.059775 199.090902 
L -1418.011698 209.186911 
L -1409.963621 204.141421 
L -1401.915544 212.943962 
L -1393.867467 211.066896 
L -1385.81939 209.977543 
L -1377.771313 213.594748 
L -1369.723236 216.828345 
L -1361.675159 212.936016 
L -1353.627082 214.98723 
L -1345.579005 215.206486 
L -1337.530929 220.029429 
L -1329.482852 217.777981 
L -1321.434775 216.77196 
L -1313.386698 218.213616 
L -1305.338621 220.566306 
L -1297.290544 219.523078 
L -1289.242467 217.333071 
L -1281.19439 218.671169 
L -1273.146313 215.301313 
L -1265.098236 215.72268 
L -1257.050159 221.420277 
L -1249.002082 221.131057 
L -1240.954005 217.984945 
L -1232.905929 217.231539 
L -1224.857852 217.626995 
L -1216.809775 214.213506 
L -1208.761698 215.061666 
L -1200.713621 215.064137 
L -1192.665544 214.346665 
L -1184.617467 213.431569 
L -1176.56939 211.321004 
L -1168.521313 212.584531 
L -1160.473236 211.169703 
L -1152.425159 210.869985 
L -1144.377082 210.124253 
L -1136.329005 210.22626 
L -1128.280929 208.614621 
L -1120.232852 205.689598 
L -1112.184775 205.574504 
L -1104.136698 203.198113 
L -1096.088621 199.765809 
L -1088.040544 202.320062 
L -1079.992467 197.639442 
L -1071.94439 199.633402 
L -1063.896313 198.767801 
L -1055.848236 199.131434 
L -1047.800159 196.140332 
L -1039.752082 195.954112 
L -1031.704005 195.553499 
L -1023.655929 191.824919 
L -1015.607852 192.7935 
L -1007.559775 192.488749 
L -999.511698 192.362775 
L -991.463621 190.597939 
L -983.415544 191.458032 
L -975.367467 189.64158 
L -967.31939 187.906819 
L -959.271313 185.158777 
L -951.223236 184.296042 
L -943.175159 183.731969 
L -935.127082 181.823829 
L -927.079005 182.133743 
L -919.030929 181.214912 
L -910.982852 179.522911 
L -902.934775 179.6157 
L -894.886698 177.694605 
L -886.838621 179.340992 
L -878.790544 178.014906 
L -870.742467 178.110256 
L -862.69439 175.722662 
L -854.646313 172.448859 
L -846.598236 175.286364 
L -838.550159 175.223586 
L -830.502082 174.18015 
L -822.454005 173.097558 
L -814.405929 170.827489 
L -806.357852 170.337413 
L -798.309775 169.10406 
L -790.261698 169.323779 
L -782.213621 168.876521 
L -774.165544 166.714707 
L -766.117467 163.634284 
L -758.06939 167.69764 
L -750.021313 166.765452 
L -741.973236 164.159875 
L -733.925159 165.868028 
L -725.877082 161.181966 
L -717.829005 161.791423 
L -709.780929 162.128031 
L -701.732852 158.96895 
L -693.684775 164.452842 
L -685.636698 159.043678 
L -677.588621 156.323735 
L -669.540544 159.941073 
L -661.492467 160.972889 
L -653.44439 159.306956 
L -645.396313 160.771218 
L -637.348236 158.353817 
L -629.300159 163.328054 
L -621.252082 160.961223 
L -613.204005 162.0856 
L -605.155929 158.888102 
L -597.107852 156.045515 
L -589.059775 159.977527 
L -581.011698 166.921828 
L -572.963621 159.328955 
L -564.915544 159.913173 
L -556.867467 157.172763 
L -548.81939 158.687902 
L -540.771313 158.453541 
L -532.723236 156.813888 
L -524.675159 156.286119 
L -516.627082 159.729831 
L -508.579005 158.136062 
L -500.530929 161.281305 
L -492.482852 161.965054 
L -484.434775 153.295231 
L -476.386698 157.023322 
L -468.338621 157.430728 
L -460.290544 158.130588 
L -452.242467 158.752088 
L -444.19439 164.448217 
L -436.146313 166.755313 
L -428.098236 166.553823 
L -420.050159 172.792508 
L -412.002082 183.090084 
L -403.954005 170.901746 
L -395.905929 170.786192 
L -387.857852 171.059377 
L -379.809775 175.135501 
L -371.761698 176.074429 
L -363.713621 176.054244 
L -355.665544 184.900908 
L -347.617467 188.162742 
L -339.56939 178.123024 
L -331.521313 187.222072 
L -323.473236 182.747743 
L -315.425159 179.976359 
L -307.377082 191.055598 
L -299.329005 188.885786 
L -291.280929 196.065303 
L -283.232852 193.940808 
L -275.184775 189.175599 
L -267.136698 193.720451 
L -259.088621 193.808793 
L -251.040544 198.288201 
L -242.992467 195.620104 
L -234.94439 202.963368 
L -226.896313 197.857365 
L -218.848236 201.784421 
L -210.800159 201.112522 
L -202.752082 205.422972 
L -194.704005 198.726544 
L -186.655929 206.089728 
L -178.607852 205.777252 
L -170.559775 210.834746 
L -162.511698 213.545304 
L -154.463621 213.649284 
L -146.415544 212.464393 
L -138.367467 215.745974 
L -130.31939 218.211793 
L -122.271313 216.169876 
L -114.223236 215.447148 
L -106.175159 218.325886 
L -98.127082 220.942333 
L -90.079005 216.598446 
L -82.030929 214.108522 
L -73.982852 224.254793 
L -65.934775 228.870896 
L -57.886698 218.591275 
L -49.838621 221.668238 
L -41.790544 223.226514 
L -33.742467 224.000112 
L -25.69439 229.203807 
L -17.646313 228.540582 
L -9.598236 226.434606 
L -1.550159 228.680822 
L 6.497918 229.277571 
L 14.545995 223.69865 
L 22.594071 226.490493 
L 30.642148 224.733923 
L 38.690225 232.396573 
L 46.738302 241.832163 
L 54.786379 240.41373 
L 62.834456 232.841138 
L 70.882533 231.979869 
L 78.93061 232.966347 
L 86.978687 233.265748 
L 95.026764 240.234275 
L 103.074841 231.243648 
L 111.122918 240.613074 
L 119.170995 248.120949 
L 127.219071 241.732614 
L 135.267148 251.397123 
L 143.315225 245.237192 
L 151.363302 250.468315 
L 159.411379 246.909197 
L 167.459456 249.454359 
L 175.507533 254.629161 
L 183.55561 254.215864 
L 191.603687 255.756319 
L 199.651764 256.126554 
L 207.699841 256.645517 
L 215.747918 243.901007 
L 223.795995 260.31319 
L 231.844071 267.054659 
L 239.892148 260.505333 
L 247.940225 266.469221 
L 255.988302 267.808212 
L 264.036379 264.431987 
L 272.084456 271.198926 
L 280.132533 275.791384 
L 288.18061 273.191303 
L 296.228687 275.016337 
L 304.276764 276.099633 
L 312.324841 277.796328 
L 320.372918 283.008037 
L 328.420995 272.700733 
L 336.469071 285.817735 
L 344.517148 286.32339 
L 352.565225 287.057208 
L 360.613302 279.173148 
L 368.661379 289.160104 
L 376.709456 295.888682 
L 384.757533 289.482532 
L 392.80561 290.488428 
L 400.853687 299.894737 
L 408.901764 284.226843 
L 416.949841 299.371451 
L 424.997918 290.34558 
L 433.045995 303.692796 
L 441.094071 297.972855 
L 449.142148 303.986385 
L 457.190225 306.148438 
L 465.238302 309.000077 
L 473.286379 310.13747 
L 481.334456 307.058632 
L 489.382533 307.599246 
L 497.43061 309.797365 
L 505.478687 317.64703 
L 513.526764 317.426332 
L 521.574841 317.193551 
L 529.622918 324.392844 
L 537.670995 325.230937 
L 545.719071 320.206293 
L 553.767148 320.50873 
L 561.815225 338.510087 
L 569.863302 340.965477 
L 577.911379 345.951195 
L 585.959456 336.189123 
L 594.007533 318.356031 
L 602.05561 339.202918 
L 610.103687 333.123385 
L 618.151764 340.528342 
L 626.199841 350.350677 
L 634.247918 338.915612 
L 642.295995 355.664118 
L 650.344071 343.402679 
L 658.392148 343.783166 
L 666.440225 345.934035 
L 674.488302 356.298446 
L 682.536379 356.136223 
L 690.584456 355.035272 
L 698.632533 345.867627 
L 706.68061 352.235514 
L 714.728687 357.227158 
L 722.776764 353.713449 
L 730.824841 362.341591 
L 738.872918 357.05003 
L 746.920995 362.963527 
L 754.969071 371.957145 
L 763.017148 371.607732 
L 771.065225 364.423451 
L 779.113302 365.495692 
L 787.161379 364.906723 
L 795.209456 369.488972 
L 803.257533 370.286197 
L 811.30561 357.982457 
L 819.353687 369.199622 
L 827.401764 321.824636 
L 835.449841 370.640901 
L 843.497918 375.633784 
L 851.545995 367.478501 
L 859.594071 358.885851 
L 867.642148 377.64 
L 875.690225 370.297257 
L 883.738302 356.951894 
L 891.786379 366.646245 
L 899.834456 367.62794 
L 907.882533 364.526814 
L 915.93061 373.688205 
L 923.978687 368.099958 
L 932.026764 371.969188 
L 940.074841 374.59378 
L 940.074841 326.885136 
L 940.074841 326.885136 
L 932.026764 332.282955 
L 923.978687 329.753783 
L 915.93061 332.020632 
L 907.882533 328.100421 
L 899.834456 329.574377 
L 891.786379 327.746717 
L 883.738302 328.538734 
L 875.690225 332.719725 
L 867.642148 333.196087 
L 859.594071 329.921183 
L 851.545995 330.476904 
L 843.497918 335.023866 
L 835.449841 331.642487 
L 827.401764 308.038274 
L 819.353687 332.561214 
L 811.30561 330.554778 
L 803.257533 332.948365 
L 795.209456 332.881789 
L 787.161379 331.648067 
L 779.113302 332.959011 
L 771.065225 332.658241 
L 763.017148 334.649072 
L 754.969071 334.891144 
L 746.920995 333.088935 
L 738.872918 331.450144 
L 730.824841 332.187861 
L 722.776764 329.170678 
L 714.728687 329.993303 
L 706.68061 329.157806 
L 698.632533 327.325947 
L 690.584456 330.484439 
L 682.536379 330.743002 
L 674.488302 331.759115 
L 666.440225 327.089633 
L 658.392148 327.188817 
L 650.344071 327.483403 
L 642.295995 330.94736 
L 634.247918 325.588122 
L 626.199841 329.341584 
L 618.151764 325.896608 
L 610.103687 323.620853 
L 602.05561 325.498653 
L 594.007533 311.127519 
L 585.959456 324.143229 
L 577.911379 328.095785 
L 569.863302 326.36859 
L 561.815225 325.152233 
L 553.767148 315.682333 
L 545.719071 316.243112 
L 537.670995 320.927135 
L 529.622918 320.245636 
L 521.574841 311.527924 
L 513.526764 311.942791 
L 505.478687 310.949455 
L 497.43061 299.526524 
L 489.382533 289.315655 
L 481.334456 286.95439 
L 473.286379 295.710575 
L 465.238302 293.03164 
L 457.190225 287.729976 
L 449.142148 282.277225 
L 441.094071 264.820589 
L 433.045995 282.062511 
L 424.997918 237.216629 
L 416.949841 267.47871 
L 408.901764 224.798843 
L 400.853687 270.968557 
L 392.80561 245.394533 
L 384.757533 244.877799 
L 376.709456 258.024806 
L 368.661379 242.508733 
L 360.613302 214.201033 
L 352.565225 234.916555 
L 344.517148 234.481528 
L 336.469071 233.612901 
L 328.420995 200.580837 
L 320.372918 216.975971 
L 312.324841 213.045394 
L 304.276764 210.762558 
L 296.228687 207.121043 
L 288.18061 200.218469 
L 280.132533 206.999795 
L 272.084456 194.788829 
L 264.036379 179.558646 
L 255.988302 192.13468 
L 247.940225 182.117776 
L 239.892148 173.19182 
L 231.844071 187.713803 
L 223.795995 171.876584 
L 215.747918 131.212527 
L 207.699841 160.844985 
L 199.651764 159.639274 
L 191.603687 159.684989 
L 183.55561 156.042397 
L 175.507533 156.167207 
L 167.459456 145.037076 
L 159.411379 140.431888 
L 151.363302 148.916902 
L 143.315225 132.770532 
L 135.267148 149.180435 
L 127.219071 126.764891 
L 119.170995 139.543452 
L 111.122918 124.581092 
L 103.074841 106.042942 
L 95.026764 122.882554 
L 86.978687 106.641726 
L 78.93061 107.660999 
L 70.882533 106.845203 
L 62.834456 108.311802 
L 54.786379 123.487967 
L 46.738302 127.017002 
L 38.690225 108.545466 
L 30.642148 89.607898 
L 22.594071 94.722386 
L 14.545995 90.77669 
L 6.497918 102.426301 
L -1.550159 101.042678 
L -9.598236 96.127095 
L -17.646313 102.096272 
L -25.69439 101.438308 
L -33.742467 91.685363 
L -41.790544 92.651467 
L -49.838621 88.759238 
L -57.886698 84.007854 
L -65.934775 105.4384 
L -73.982852 93.089208 
L -82.030929 76.230776 
L -90.079005 84.029195 
L -98.127082 90.977775 
L -106.175159 86.065974 
L -114.223236 82.242215 
L -122.271313 84.887686 
L -130.31939 92.235351 
L -138.367467 83.864943 
L -146.415544 80.66619 
L -154.463621 83.818675 
L -162.511698 78.501839 
L -170.559775 79.960641 
L -178.607852 69.44692 
L -186.655929 73.012234 
L -194.704005 60.227406 
L -202.752082 70.895676 
L -210.800159 65.605618 
L -218.848236 68.451911 
L -226.896313 64.827768 
L -234.94439 71.290294 
L -242.992467 59.823364 
L -251.040544 66.787539 
L -259.088621 59.519863 
L -267.136698 60.772639 
L -275.184775 55.065951 
L -283.232852 57.930003 
L -291.280929 65.902258 
L -299.329005 58.052182 
L -307.377082 59.902201 
L -315.425159 44.530858 
L -323.473236 51.590067 
L -331.521313 55.171285 
L -339.56939 43.348707 
L -347.617467 56.536933 
L -355.665544 57.573819 
L -363.713621 42.623373 
L -371.761698 42.910445 
L -379.809775 41.88383 
L -387.857852 36.520539 
L -395.905929 40.268725 
L -403.954005 38.9441 
L -412.002082 56.563343 
L -420.050159 44.449156 
L -428.098236 35.508695 
L -436.146313 35.768912 
L -444.19439 33.158009 
L -452.242467 27.758237 
L -460.290544 29.703708 
L -468.338621 26.061833 
L -476.386698 30.15731 
L -484.434775 24.84 
L -492.482852 34.882227 
L -500.530929 36.19864 
L -508.579005 33.837371 
L -516.627082 36.030255 
L -524.675159 32.128061 
L -532.723236 35.051257 
L -540.771313 36.71182 
L -548.81939 41.358284 
L -556.867467 37.464824 
L -564.915544 42.671608 
L -572.963621 41.509829 
L -581.011698 51.314871 
L -589.059775 44.522192 
L -597.107852 40.853543 
L -605.155929 44.98967 
L -613.204005 46.809216 
L -621.252082 46.854111 
L -629.300159 52.500093 
L -637.348236 47.426694 
L -645.396313 51.190576 
L -653.44439 49.228492 
L -661.492467 50.047052 
L -669.540544 48.27797 
L -677.588621 45.738457 
L -685.636698 50.254135 
L -693.684775 56.301689 
L -701.732852 49.915693 
L -709.780929 53.404978 
L -717.829005 51.728729 
L -725.877082 53.675965 
L -733.925159 58.324863 
L -741.973236 56.595336 
L -750.021313 60.338646 
L -758.06939 61.242599 
L -766.117467 56.775031 
L -774.165544 59.215893 
L -782.213621 61.947054 
L -790.261698 62.84976 
L -798.309775 62.600124 
L -806.357852 64.49534 
L -814.405929 64.03438 
L -822.454005 66.906129 
L -830.502082 67.596706 
L -838.550159 68.125645 
L -846.598236 68.648994 
L -854.646313 63.115633 
L -862.69439 68.893574 
L -870.742467 71.102327 
L -878.790544 70.258813 
L -886.838621 70.272074 
L -894.886698 70.125997 
L -902.934775 71.671263 
L -910.982852 70.904641 
L -919.030929 73.310175 
L -927.079005 74.011834 
L -935.127082 73.170627 
L -943.175159 73.900251 
L -951.223236 74.960608 
L -959.271313 76.060533 
L -967.31939 80.344851 
L -975.367467 81.155957 
L -983.415544 83.088775 
L -991.463621 81.696861 
L -999.511698 83.538113 
L -1007.559775 83.454942 
L -1015.607852 83.81258 
L -1023.655929 81.195011 
L -1031.704005 87.298161 
L -1039.752082 87.544662 
L -1047.800159 87.650829 
L -1055.848236 91.179582 
L -1063.896313 90.582978 
L -1071.94439 91.85341 
L -1079.992467 89.564895 
L -1088.040544 94.527936 
L -1096.088621 92.617137 
L -1104.136698 97.386279 
L -1112.184775 100.673941 
L -1120.232852 101.371859 
L -1128.280929 105.585933 
L -1136.329005 108.803825 
L -1144.377082 108.317875 
L -1152.425159 110.155827 
L -1160.473236 110.426309 
L -1168.521313 112.953102 
L -1176.56939 111.773361 
L -1184.617467 115.440126 
L -1192.665544 118.099349 
L -1200.713621 119.542788 
L -1208.761698 120.272295 
L -1216.809775 120.791716 
L -1224.857852 124.817143 
L -1232.905929 125.536486 
L -1240.954005 127.922073 
L -1249.002082 131.586007 
L -1257.050159 132.570778 
L -1265.098236 128.766514 
L -1273.146313 129.587436 
L -1281.19439 133.669995 
L -1289.242467 133.93157 
L -1297.290544 136.677102 
L -1305.338621 138.603461 
L -1313.386698 137.222436 
L -1321.434775 138.329459 
L -1329.482852 139.779133 
L -1337.530929 142.552318 
L -1345.579005 139.051558 
L -1353.627082 140.299559 
L -1361.675159 140.128265 
L -1369.723236 144.180868 
L -1377.771313 143.485857 
L -1385.81939 140.970331 
L -1393.867467 143.054985 
L -1401.915544 145.211317 
L -1409.963621 138.967122 
L -1418.011698 144.418111 
L -1426.059775 137.119096 
L -1434.107852 136.681871 
L -1442.155929 135.132508 
L -1450.204005 136.72588 
L -1458.252082 137.125483 
L -1466.300159 136.167318 
L -1474.348236 132.668396 
L -1482.396313 135.244106 
L -1490.44439 127.167831 
L -1498.492467 119.211839 
L -1506.540544 121.178524 
L -1514.588621 125.382762 
L -1522.636698 114.742723 
L -1530.684775 115.092537 
L -1538.732852 112.43614 
L -1546.780929 111.614137 
L -1554.829005 96.240685 
L -1562.877082 94.92607 
L -1570.925159 89.263974 
L -1578.973236 77.19611 
L -1587.021313 68.582272 
L -1595.06939 77.929419 
L -1603.117467 73.536033 
L -1611.165544 65.973448 
L -1619.213621 62.628115 
L -1627.261698 57.100718 
L -1635.309775 49.929029 
L -1643.357852 53.50932 
L -1651.405929 39.943041 
L -1659.454005 34.980632 
L -1667.502082 31.615708 
L -1675.550159 29.547345 
L -1683.598236 31.029708 
L -1691.646313 27.663536 
L -1699.69439 29.874637 
L -1707.742467 34.589088 
L -1715.790544 29.607212 
L -1723.838621 28.823725 
L -1731.886698 35.212074 
L -1739.934775 36.767779 
L -1747.982852 35.464588 
L -1756.030929 46.814988 
L -1764.079005 40.028245 
L -1772.127082 42.394493 
L -1780.175159 52.274317 
L -1788.223236 49.724316 
L -1796.271313 52.838743 
L -1804.31939 55.779069 
L -1812.367467 58.958184 
L -1820.415544 62.490665 
L -1828.463621 66.213693 
L -1836.511698 69.819659 
L -1844.559775 72.8806 
L -1852.607852 77.119422 
L -1860.655929 78.201662 
L -1868.704005 85.611473 
L -1876.752082 85.893018 
L -1884.800159 89.701498 
L -1892.848236 93.933691 
L -1900.896313 97.161849 
L -1908.94439 101.174353 
L -1916.992467 104.329779 
L -1925.040544 108.897794 
L -1933.088621 111.676914 
L -1941.136698 115.059492 
L -1949.184775 119.017179 
L -1957.232852 123.050768 
L -1965.280929 125.533829 
L -1973.329005 129.428898 
L -1981.377082 132.104018 
L -1989.425159 136.104817 
L -1997.473236 139.218667 
L -2005.521313 142.314993 
L -2013.56939 145.735955 
L -2021.617467 148.775531 
L -2029.665544 151.367763 
L -2037.713621 154.709462 
L -2045.761698 156.434969 
L -2053.809775 160.546286 
L -2061.857852 163.340074 
L -2069.905929 165.808228 
L -2077.954005 168.811334 
L -2086.002082 170.668627 
L -2094.050159 173.336589 
L -2102.098236 176.071876 
L -2110.146313 179.079096 
L -2118.19439 181.389813 
L -2126.242467 183.664559 
L -2134.290544 186.141593 
L -2142.338621 188.526246 
L -2150.386698 191.090637 
L -2158.434775 193.145223 
L -2166.482852 195.378027 
L -2174.530929 197.207797 
L -2182.579005 199.735149 
L -2190.627082 201.567086 
L -2198.675159 203.64032 
L -2206.723236 206.216306 
L -2214.771313 208.00751 
L -2222.81939 208.550263 
L -2230.867467 210.67678 
L -2238.915544 211.77816 
L -2246.963621 213.830515 
L -2255.011698 216.21458 
L -2263.059775 217.454345 
L -2271.107852 218.618538 
L -2279.155929 218.873475 
L -2287.204005 220.0972 
L -2295.252082 220.838781 
L -2303.300159 221.638054 
L -2311.348236 223.356218 
L -2319.396313 224.369273 
L -2327.44439 225.812916 
L -2335.492467 225.040032 
L -2343.540544 225.852769 
L -2351.588621 224.629797 
L -2359.636698 226.628595 
L -2367.684775 226.96506 
L -2375.732852 228.441527 
L -2383.780929 225.43516 
L -2391.829005 229.183064 
L -2399.877082 228.940916 
L -2407.925159 226.882569 
L -2415.973236 226.411738 
L -2424.021313 228.386512 
L -2432.06939 231.750099 
L -2440.117467 230.537419 
L -2448.165544 230.541542 
L -2456.213621 227.297494 
L -2464.261698 227.337461 
L -2472.309775 228.371641 
L -2480.357852 230.477791 
L -2488.405929 229.892635 
L -2496.454005 229.549874 
L -2504.502082 229.947658 
L -2512.550159 231.26619 
L -2520.598236 231.051207 
L -2528.646313 231.911325 
L -2536.69439 233.291948 
L -2544.742467 232.436622 
L -2552.790544 234.402894 
L -2560.838621 234.758186 
L -2568.886698 235.048013 
L -2576.934775 236.308012 
L -2584.982852 236.665834 
L -2593.030929 238.052497 
L -2601.079005 239.559879 
L -2609.127082 239.632655 
L -2617.175159 239.093943 
L -2625.223236 238.720615 
L -2633.271313 241.848051 
L -2641.31939 241.361073 
L -2649.367467 243.476111 
L -2657.415544 243.558995 
L -2665.463621 242.81006 
L -2673.511698 244.902436 
L -2681.559775 243.04343 
L -2689.607852 243.185637 
L -2697.655929 245.830299 
L -2705.704005 244.005563 
L -2713.752082 246.506959 
L -2721.800159 247.340938 
L -2729.848236 245.317475 
L -2737.896313 238.77785 
L -2745.94439 243.040492 
L -2753.992467 241.075227 
L -2762.040544 231.329724 
L -2770.088621 239.73561 
L -2778.136698 241.508435 
L -2786.184775 232.508117 
L -2794.232852 230.090641 
L -2802.280929 235.014938 
L -2810.329005 225.262837 
L -2818.377082 208.603906 
L -2826.425159 227.187419 
L -2834.473236 234.758978 
L -2842.521313 238.563372 
L -2850.56939 215.26767 
L -2858.617467 216.362447 
L -2866.665544 204.927685 
L -2874.713621 195.931444 
L -2882.761698 214.514079 
L -2890.809775 206.750879 
L -2898.857852 190.612037 
L -2906.905929 179.211942 
L -2914.954005 180.120993 
L -2923.002082 182.347689 
L -2931.050159 180.096071 
L -2939.098236 178.852575 
L -2947.146313 185.757178 
L -2955.19439 185.167236 
L -2963.242467 181.052457 
L -2971.290544 183.954692 
L -2979.338621 182.386222 
L -2987.386698 181.943115 
L -2995.434775 182.391111 
L -3003.482852 185.249616 
L -3011.530929 187.062745 
L -3019.579005 188.199147 
L -3027.627082 190.721209 
L -3035.675159 192.033973 
L -3043.723236 194.113238 
L -3051.771313 197.233707 
L -3059.81939 199.791139 
L -3067.867467 201.567007 
L -3075.915544 203.513653 
L -3083.963621 205.992634 
L -3092.011698 207.641149 
L -3100.059775 210.016614 
L -3108.107852 212.851453 
L -3116.155929 214.608251 
L -3124.204005 215.881662 
L -3132.252082 217.682705 
L -3140.300159 219.527687 
L -3148.348236 221.206781 
L -3156.396313 222.813634 
L -3164.44439 224.365626 
L -3172.492467 226.426498 
L -3180.540544 227.573762 
L -3188.588621 229.106974 
L -3196.636698 230.716508 
L -3204.684775 232.107886 
L -3212.732852 233.461699 
L -3220.780929 234.610656 
L -3228.829005 235.852908 
L -3236.877082 237.442814 
L -3244.925159 238.595461 
L -3252.973236 239.916919 
L -3261.021313 241.009346 
L -3269.06939 242.205799 
L -3277.117467 243.431413 
L -3285.165544 244.660494 
L -3293.213621 245.701156 
L -3301.261698 246.915123 
L -3309.309775 247.982928 
L -3317.357852 249.123149 
L -3325.405929 250.191709 
L -3333.454005 251.279387 
L -3341.502082 252.305916 
L -3349.550159 253.387053 
L -3357.598236 254.518478 
L -3365.646313 255.404638 
L -3373.69439 256.475885 
L -3381.742467 257.416313 
L -3389.790544 258.482365 
L -3397.838621 259.29723 
L -3405.886698 260.291507 
L -3413.934775 261.246 
L -3421.982852 262.154383 
L -3430.030929 263.068241 
L -3438.079005 263.905834 
L -3446.127082 264.878347 
L -3454.175159 265.756016 
L -3462.223236 266.483739 
L -3470.271313 267.343867 
L -3478.31939 268.203367 
L -3486.367467 269.059505 
L -3494.415544 269.887383 
L -3502.463621 270.662122 
L -3510.511698 271.513095 
L -3518.559775 272.349112 
L -3526.607852 273.19046 
L -3534.655929 274.030294 
L -3542.704005 274.893274 
L -3550.752082 275.790269 
L -3558.800159 276.569615 
L -3566.848236 277.45771 
L -3574.896313 278.331015 
L -3582.94439 279.172403 
L -3590.992467 280.040463 
L -3599.040544 280.926669 
L -3607.088621 281.789091 
L -3615.136698 282.693139 
L -3623.184775 283.523066 
L -3631.232852 284.369968 
L -3639.280929 285.263592 
L -3647.329005 286.12979 
L -3655.377082 286.955762 
L -3663.425159 287.828325 
L -3671.473236 288.631127 
L -3679.521313 289.487039 
L -3687.56939 290.396597 
L -3695.617467 291.186965 
L -3703.665544 292.065984 
L -3711.713621 292.902838 
L -3719.761698 293.778868 
L -3727.809775 294.579093 
L -3735.857852 295.504954 
L -3743.905929 296.284199 
L -3751.954005 297.150964 
L -3760.002082 298.001095 
L -3768.050159 298.871584 
L -3776.098236 299.702476 
L -3784.146313 300.54774 
L -3792.19439 301.396139 
L -3800.242467 302.270632 
L -3808.290544 303.087372 
L -3816.338621 303.869161 
L -3824.386698 304.662179 
L -3832.434775 305.454111 
L -3840.482852 306.210968 
L -3848.530929 306.971903 
L -3856.579005 307.722956 
L -3864.627082 308.441578 
L -3872.675159 309.166168 
L -3880.723236 309.885519 
L -3888.771313 310.544069 
L -3896.81939 311.210934 
L -3904.867467 311.902102 
L -3912.915544 312.557986 
L -3920.963621 313.148752 
L -3929.011698 313.792006 
L -3937.059775 314.382355 
L -3945.107852 314.928324 
L -3953.155929 315.472396 
L -3961.204005 315.982208 
L -3969.252082 316.526213 
L -3977.300159 316.981372 
L -3985.348236 317.457935 
L -3993.396313 317.907033 
L -4001.44439 318.324262 
L -4009.492467 318.706084 
L -4017.540544 319.054701 
L -4025.588621 319.399762 
L -4033.636698 319.740701 
L -4041.684775 320.026832 
L -4049.732852 320.342025 
L -4057.780929 320.61199 
L -4065.829005 320.847193 
L -4073.877082 321.11776 
L -4081.925159 321.356621 
L -4089.973236 321.557453 
L -4098.021313 321.770677 
L -4106.06939 321.977896 
L -4114.117467 322.161907 
L -4122.165544 322.345957 
L -4130.213621 322.500915 
L -4138.261698 322.683902 
L -4146.309775 322.832655 
L -4154.357852 322.987726 
L -4162.405929 323.149234 
L -4170.454005 323.283626 
L -4178.502082 323.424706 
L -4186.550159 323.6041 
L -4194.598236 323.734854 
L -4202.646313 323.891428 
L -4210.69439 324.017951 
L -4218.742467 324.180937 
L -4226.790544 324.311457 
L -4234.838621 324.44736 
L -4242.886698 324.568902 
L -4250.934775 324.678707 
L -4258.982852 324.801906 
L -4267.030929 324.93431 
L -4275.079005 325.064022 
L -4283.127082 325.176275 
L -4291.175159 325.269821 
L -4299.223236 325.397409 
L -4307.271313 325.504975 
L -4315.31939 325.631743 
z
" clip-path="url(#p522e29c2a3)" style="fill: #008000; fill-opacity: 0.3; stroke: #008000; stroke-opacity: 0.3"/>
   </g>
   <g id="matplotlib.axis_1">
    <g id="xtick_1">
     <g id="line2d_1">
      <defs>
       <path id="maa856545b4" d="M 0 0 
L 0 3.5 
" style="stroke: #000000; stroke-width: 0.8"/>
      </defs>
      <g>
       <use xlink:href="#maa856545b4" x="103.074841" y="395.28" style="stroke: #000000; stroke-width: 0.8"/>
      </g>
     </g>
     <g id="text_1">
      <!-- 2023-01-01 -->
      <g transform="translate(17.945813 495.213718) rotate(-45) scale(0.2 -0.2)">
       <defs>
        <path id="DejaVuSans-32" d="M 1228 531 
L 3431 531 
L 3431 0 
L 469 0 
L 469 531 
Q 828 903 1448 1529 
Q 2069 2156 2228 2338 
Q 2531 2678 2651 2914 
Q 2772 3150 2772 3378 
Q 2772 3750 2511 3984 
Q 2250 4219 1831 4219 
Q 1534 4219 1204 4116 
Q 875 4013 500 3803 
L 500 4441 
Q 881 4594 1212 4672 
Q 1544 4750 1819 4750 
Q 2544 4750 2975 4387 
Q 3406 4025 3406 3419 
Q 3406 3131 3298 2873 
Q 3191 2616 2906 2266 
Q 2828 2175 2409 1742 
Q 1991 1309 1228 531 
z
" transform="scale(0.015625)"/>
        <path id="DejaVuSans-30" d="M 2034 4250 
Q 1547 4250 1301 3770 
Q 1056 3291 1056 2328 
Q 1056 1369 1301 889 
Q 1547 409 2034 409 
Q 2525 409 2770 889 
Q 3016 1369 3016 2328 
Q 3016 3291 2770 3770 
Q 2525 4250 2034 4250 
z
M 2034 4750 
Q 2819 4750 3233 4129 
Q 3647 3509 3647 2328 
Q 3647 1150 3233 529 
Q 2819 -91 2034 -91 
Q 1250 -91 836 529 
Q 422 1150 422 2328 
Q 422 3509 836 4129 
Q 1250 4750 2034 4750 
z
" transform="scale(0.015625)"/>
        <path id="DejaVuSans-33" d="M 2597 2516 
Q 3050 2419 3304 2112 
Q 3559 1806 3559 1356 
Q 3559 666 3084 287 
Q 2609 -91 1734 -91 
Q 1441 -91 1130 -33 
Q 819 25 488 141 
L 488 750 
Q 750 597 1062 519 
Q 1375 441 1716 441 
Q 2309 441 2620 675 
Q 2931 909 2931 1356 
Q 2931 1769 2642 2001 
Q 2353 2234 1838 2234 
L 1294 2234 
L 1294 2753 
L 1863 2753 
Q 2328 2753 2575 2939 
Q 2822 3125 2822 3475 
Q 2822 3834 2567 4026 
Q 2313 4219 1838 4219 
Q 1578 4219 1281 4162 
Q 984 4106 628 3988 
L 628 4550 
Q 988 4650 1302 4700 
Q 1616 4750 1894 4750 
Q 2613 4750 3031 4423 
Q 3450 4097 3450 3541 
Q 3450 3153 3228 2886 
Q 3006 2619 2597 2516 
z
" transform="scale(0.015625)"/>
        <path id="DejaVuSans-2d" d="M 313 2009 
L 1997 2009 
L 1997 1497 
L 313 1497 
L 313 2009 
z
" transform="scale(0.015625)"/>
        <path id="DejaVuSans-31" d="M 794 531 
L 1825 531 
L 1825 4091 
L 703 3866 
L 703 4441 
L 1819 4666 
L 2450 4666 
L 2450 531 
L 3481 531 
L 3481 0 
L 794 0 
L 794 531 
z
" transform="scale(0.015625)"/>
       </defs>
       <use xlink:href="#DejaVuSans-32"/>
       <use xlink:href="#DejaVuSans-30" x="63.623047"/>
       <use xlink:href="#DejaVuSans-32" x="127.246094"/>
       <use xlink:href="#DejaVuSans-33" x="190.869141"/>
       <use xlink:href="#DejaVuSans-2d" x="254.492188"/>
       <use xlink:href="#DejaVuSans-30" x="290.576172"/>
       <use xlink:href="#DejaVuSans-31" x="354.199219"/>
       <use xlink:href="#DejaVuSans-2d" x="417.822266"/>
       <use xlink:href="#DejaVuSans-30" x="453.90625"/>
       <use xlink:href="#DejaVuSans-31" x="517.529297"/>
      </g>
     </g>
    </g>
    <g id="xtick_2">
     <g id="line2d_2">
      <g>
       <use xlink:href="#maa856545b4" x="215.747918" y="395.28" style="stroke: #000000; stroke-width: 0.8"/>
      </g>
     </g>
     <g id="text_2">
      <!-- 2023-01-15 -->
      <g transform="translate(130.61889 495.213718) rotate(-45) scale(0.2 -0.2)">
       <defs>
        <path id="DejaVuSans-35" d="M 691 4666 
L 3169 4666 
L 3169 4134 
L 1269 4134 
L 1269 2991 
Q 1406 3038 1543 3061 
Q 1681 3084 1819 3084 
Q 2600 3084 3056 2656 
Q 3513 2228 3513 1497 
Q 3513 744 3044 326 
Q 2575 -91 1722 -91 
Q 1428 -91 1123 -41 
Q 819 9 494 109 
L 494 744 
Q 775 591 1075 516 
Q 1375 441 1709 441 
Q 2250 441 2565 725 
Q 2881 1009 2881 1497 
Q 2881 1984 2565 2268 
Q 2250 2553 1709 2553 
Q 1456 2553 1204 2497 
Q 953 2441 691 2322 
L 691 4666 
z
" transform="scale(0.015625)"/>
       </defs>
       <use xlink:href="#DejaVuSans-32"/>
       <use xlink:href="#DejaVuSans-30" x="63.623047"/>
       <use xlink:href="#DejaVuSans-32" x="127.246094"/>
       <use xlink:href="#DejaVuSans-33" x="190.869141"/>
       <use xlink:href="#DejaVuSans-2d" x="254.492188"/>
       <use xlink:href="#DejaVuSans-30" x="290.576172"/>
       <use xlink:href="#DejaVuSans-31" x="354.199219"/>
       <use xlink:href="#DejaVuSans-2d" x="417.822266"/>
       <use xlink:href="#DejaVuSans-31" x="453.90625"/>
       <use xlink:href="#DejaVuSans-35" x="517.529297"/>
      </g>
     </g>
    </g>
    <g id="xtick_3">
     <g id="line2d_3">
      <g>
       <use xlink:href="#maa856545b4" x="328.420995" y="395.28" style="stroke: #000000; stroke-width: 0.8"/>
      </g>
     </g>
     <g id="text_3">
      <!-- 2023-01-29 -->
      <g transform="translate(243.291967 495.213718) rotate(-45) scale(0.2 -0.2)">
       <defs>
        <path id="DejaVuSans-39" d="M 703 97 
L 703 672 
Q 941 559 1184 500 
Q 1428 441 1663 441 
Q 2288 441 2617 861 
Q 2947 1281 2994 2138 
Q 2813 1869 2534 1725 
Q 2256 1581 1919 1581 
Q 1219 1581 811 2004 
Q 403 2428 403 3163 
Q 403 3881 828 4315 
Q 1253 4750 1959 4750 
Q 2769 4750 3195 4129 
Q 3622 3509 3622 2328 
Q 3622 1225 3098 567 
Q 2575 -91 1691 -91 
Q 1453 -91 1209 -44 
Q 966 3 703 97 
z
M 1959 2075 
Q 2384 2075 2632 2365 
Q 2881 2656 2881 3163 
Q 2881 3666 2632 3958 
Q 2384 4250 1959 4250 
Q 1534 4250 1286 3958 
Q 1038 3666 1038 3163 
Q 1038 2656 1286 2365 
Q 1534 2075 1959 2075 
z
" transform="scale(0.015625)"/>
       </defs>
       <use xlink:href="#DejaVuSans-32"/>
       <use xlink:href="#DejaVuSans-30" x="63.623047"/>
       <use xlink:href="#DejaVuSans-32" x="127.246094"/>
       <use xlink:href="#DejaVuSans-33" x="190.869141"/>
       <use xlink:href="#DejaVuSans-2d" x="254.492188"/>
       <use xlink:href="#DejaVuSans-30" x="290.576172"/>
       <use xlink:href="#DejaVuSans-31" x="354.199219"/>
       <use xlink:href="#DejaVuSans-2d" x="417.822266"/>
       <use xlink:href="#DejaVuSans-32" x="453.90625"/>
       <use xlink:href="#DejaVuSans-39" x="517.529297"/>
      </g>
     </g>
    </g>
    <g id="xtick_4">
     <g id="line2d_4">
      <g>
       <use xlink:href="#maa856545b4" x="441.094071" y="395.28" style="stroke: #000000; stroke-width: 0.8"/>
      </g>
     </g>
     <g id="text_4">
      <!-- 2023-02-12 -->
      <g transform="translate(355.965044 495.213718) rotate(-45) scale(0.2 -0.2)">
       <use xlink:href="#DejaVuSans-32"/>
       <use xlink:href="#DejaVuSans-30" x="63.623047"/>
       <use xlink:href="#DejaVuSans-32" x="127.246094"/>
       <use xlink:href="#DejaVuSans-33" x="190.869141"/>
       <use xlink:href="#DejaVuSans-2d" x="254.492188"/>
       <use xlink:href="#DejaVuSans-30" x="290.576172"/>
       <use xlink:href="#DejaVuSans-32" x="354.199219"/>
       <use xlink:href="#DejaVuSans-2d" x="417.822266"/>
       <use xlink:href="#DejaVuSans-31" x="453.90625"/>
       <use xlink:href="#DejaVuSans-32" x="517.529297"/>
      </g>
     </g>
    </g>
    <g id="xtick_5">
     <g id="line2d_5">
      <g>
       <use xlink:href="#maa856545b4" x="553.767148" y="395.28" style="stroke: #000000; stroke-width: 0.8"/>
      </g>
     </g>
     <g id="text_5">
      <!-- 2023-02-26 -->
      <g transform="translate(468.638121 495.213718) rotate(-45) scale(0.2 -0.2)">
       <defs>
        <path id="DejaVuSans-36" d="M 2113 2584 
Q 1688 2584 1439 2293 
Q 1191 2003 1191 1497 
Q 1191 994 1439 701 
Q 1688 409 2113 409 
Q 2538 409 2786 701 
Q 3034 994 3034 1497 
Q 3034 2003 2786 2293 
Q 2538 2584 2113 2584 
z
M 3366 4563 
L 3366 3988 
Q 3128 4100 2886 4159 
Q 2644 4219 2406 4219 
Q 1781 4219 1451 3797 
Q 1122 3375 1075 2522 
Q 1259 2794 1537 2939 
Q 1816 3084 2150 3084 
Q 2853 3084 3261 2657 
Q 3669 2231 3669 1497 
Q 3669 778 3244 343 
Q 2819 -91 2113 -91 
Q 1303 -91 875 529 
Q 447 1150 447 2328 
Q 447 3434 972 4092 
Q 1497 4750 2381 4750 
Q 2619 4750 2861 4703 
Q 3103 4656 3366 4563 
z
" transform="scale(0.015625)"/>
       </defs>
       <use xlink:href="#DejaVuSans-32"/>
       <use xlink:href="#DejaVuSans-30" x="63.623047"/>
       <use xlink:href="#DejaVuSans-32" x="127.246094"/>
       <use xlink:href="#DejaVuSans-33" x="190.869141"/>
       <use xlink:href="#DejaVuSans-2d" x="254.492188"/>
       <use xlink:href="#DejaVuSans-30" x="290.576172"/>
       <use xlink:href="#DejaVuSans-32" x="354.199219"/>
       <use xlink:href="#DejaVuSans-2d" x="417.822266"/>
       <use xlink:href="#DejaVuSans-32" x="453.90625"/>
       <use xlink:href="#DejaVuSans-36" x="517.529297"/>
      </g>
     </g>
    </g>
    <g id="xtick_6">
     <g id="line2d_6">
      <g>
       <use xlink:href="#maa856545b4" x="666.440225" y="395.28" style="stroke: #000000; stroke-width: 0.8"/>
      </g>
     </g>
     <g id="text_6">
      <!-- 2023-03-12 -->
      <g transform="translate(581.311198 495.213718) rotate(-45) scale(0.2 -0.2)">
       <use xlink:href="#DejaVuSans-32"/>
       <use xlink:href="#DejaVuSans-30" x="63.623047"/>
       <use xlink:href="#DejaVuSans-32" x="127.246094"/>
       <use xlink:href="#DejaVuSans-33" x="190.869141"/>
       <use xlink:href="#DejaVuSans-2d" x="254.492188"/>
       <use xlink:href="#DejaVuSans-30" x="290.576172"/>
       <use xlink:href="#DejaVuSans-33" x="354.199219"/>
       <use xlink:href="#DejaVuSans-2d" x="417.822266"/>
       <use xlink:href="#DejaVuSans-31" x="453.90625"/>
       <use xlink:href="#DejaVuSans-32" x="517.529297"/>
      </g>
     </g>
    </g>
    <g id="xtick_7">
     <g id="line2d_7">
      <g>
       <use xlink:href="#maa856545b4" x="779.113302" y="395.28" style="stroke: #000000; stroke-width: 0.8"/>
      </g>
     </g>
     <g id="text_7">
      <!-- 2023-03-26 -->
      <g transform="translate(693.984275 495.213718) rotate(-45) scale(0.2 -0.2)">
       <use xlink:href="#DejaVuSans-32"/>
       <use xlink:href="#DejaVuSans-30" x="63.623047"/>
       <use xlink:href="#DejaVuSans-32" x="127.246094"/>
       <use xlink:href="#DejaVuSans-33" x="190.869141"/>
       <use xlink:href="#DejaVuSans-2d" x="254.492188"/>
       <use xlink:href="#DejaVuSans-30" x="290.576172"/>
       <use xlink:href="#DejaVuSans-33" x="354.199219"/>
       <use xlink:href="#DejaVuSans-2d" x="417.822266"/>
       <use xlink:href="#DejaVuSans-32" x="453.90625"/>
       <use xlink:href="#DejaVuSans-36" x="517.529297"/>
      </g>
     </g>
    </g>
    <g id="xtick_8">
     <g id="line2d_8">
      <g>
       <use xlink:href="#maa856545b4" x="891.786379" y="395.28" style="stroke: #000000; stroke-width: 0.8"/>
      </g>
     </g>
     <g id="text_8">
      <!-- 2023-04-09 -->
      <g transform="translate(806.657352 495.213718) rotate(-45) scale(0.2 -0.2)">
       <defs>
        <path id="DejaVuSans-34" d="M 2419 4116 
L 825 1625 
L 2419 1625 
L 2419 4116 
z
M 2253 4666 
L 3047 4666 
L 3047 1625 
L 3713 1625 
L 3713 1100 
L 3047 1100 
L 3047 0 
L 2419 0 
L 2419 1100 
L 313 1100 
L 313 1709 
L 2253 4666 
z
" transform="scale(0.015625)"/>
       </defs>
       <use xlink:href="#DejaVuSans-32"/>
       <use xlink:href="#DejaVuSans-30" x="63.623047"/>
       <use xlink:href="#DejaVuSans-32" x="127.246094"/>
       <use xlink:href="#DejaVuSans-33" x="190.869141"/>
       <use xlink:href="#DejaVuSans-2d" x="254.492188"/>
       <use xlink:href="#DejaVuSans-30" x="290.576172"/>
       <use xlink:href="#DejaVuSans-34" x="354.199219"/>
       <use xlink:href="#DejaVuSans-2d" x="417.822266"/>
       <use xlink:href="#DejaVuSans-30" x="453.90625"/>
       <use xlink:href="#DejaVuSans-39" x="517.529297"/>
      </g>
     </g>
    </g>
    <g id="xtick_9">
     <g id="line2d_9">
      <g>
       <use xlink:href="#maa856545b4" x="940.074841" y="395.28" style="stroke: #000000; stroke-width: 0.8"/>
      </g>
     </g>
     <g id="text_9">
      <!-- 2023-04-15 -->
      <g transform="translate(854.945813 495.213718) rotate(-45) scale(0.2 -0.2)">
       <use xlink:href="#DejaVuSans-32"/>
       <use xlink:href="#DejaVuSans-30" x="63.623047"/>
       <use xlink:href="#DejaVuSans-32" x="127.246094"/>
       <use xlink:href="#DejaVuSans-33" x="190.869141"/>
       <use xlink:href="#DejaVuSans-2d" x="254.492188"/>
       <use xlink:href="#DejaVuSans-30" x="290.576172"/>
       <use xlink:href="#DejaVuSans-34" x="354.199219"/>
       <use xlink:href="#DejaVuSans-2d" x="417.822266"/>
       <use xlink:href="#DejaVuSans-31" x="453.90625"/>
       <use xlink:href="#DejaVuSans-35" x="517.529297"/>
      </g>
     </g>
    </g>
   </g>
   <g id="matplotlib.axis_2">
    <g id="ytick_1">
     <g id="line2d_10">
      <defs>
       <path id="me56ce3de35" d="M 0 0 
L -3.5 0 
" style="stroke: #000000; stroke-width: 0.8"/>
      </defs>
      <g>
       <use xlink:href="#me56ce3de35" x="103.074841" y="369.10209" style="stroke: #000000; stroke-width: 0.8"/>
      </g>
     </g>
     <g id="text_10">
      <!-- −0.025 -->
      <g transform="translate(22.059216 376.700528) scale(0.2 -0.2)">
       <defs>
        <path id="DejaVuSans-2212" d="M 678 2272 
L 4684 2272 
L 4684 1741 
L 678 1741 
L 678 2272 
z
" transform="scale(0.015625)"/>
        <path id="DejaVuSans-2e" d="M 684 794 
L 1344 794 
L 1344 0 
L 684 0 
L 684 794 
z
" transform="scale(0.015625)"/>
       </defs>
       <use xlink:href="#DejaVuSans-2212"/>
       <use xlink:href="#DejaVuSans-30" x="83.789062"/>
       <use xlink:href="#DejaVuSans-2e" x="147.412109"/>
       <use xlink:href="#DejaVuSans-30" x="179.199219"/>
       <use xlink:href="#DejaVuSans-32" x="242.822266"/>
       <use xlink:href="#DejaVuSans-35" x="306.445312"/>
      </g>
     </g>
    </g>
    <g id="ytick_2">
     <g id="line2d_11">
      <g>
       <use xlink:href="#me56ce3de35" x="103.074841" y="325.750053" style="stroke: #000000; stroke-width: 0.8"/>
      </g>
     </g>
     <g id="text_11">
      <!-- 0.000 -->
      <g transform="translate(38.818591 333.34849) scale(0.2 -0.2)">
       <use xlink:href="#DejaVuSans-30"/>
       <use xlink:href="#DejaVuSans-2e" x="63.623047"/>
       <use xlink:href="#DejaVuSans-30" x="95.410156"/>
       <use xlink:href="#DejaVuSans-30" x="159.033203"/>
       <use xlink:href="#DejaVuSans-30" x="222.65625"/>
      </g>
     </g>
    </g>
    <g id="ytick_3">
     <g id="line2d_12">
      <g>
       <use xlink:href="#me56ce3de35" x="103.074841" y="282.398015" style="stroke: #000000; stroke-width: 0.8"/>
      </g>
     </g>
     <g id="text_12">
      <!-- 0.025 -->
      <g transform="translate(38.818591 289.996453) scale(0.2 -0.2)">
       <use xlink:href="#DejaVuSans-30"/>
       <use xlink:href="#DejaVuSans-2e" x="63.623047"/>
       <use xlink:href="#DejaVuSans-30" x="95.410156"/>
       <use xlink:href="#DejaVuSans-32" x="159.033203"/>
       <use xlink:href="#DejaVuSans-35" x="222.65625"/>
      </g>
     </g>
    </g>
    <g id="ytick_4">
     <g id="line2d_13">
      <g>
       <use xlink:href="#me56ce3de35" x="103.074841" y="239.045978" style="stroke: #000000; stroke-width: 0.8"/>
      </g>
     </g>
     <g id="text_13">
      <!-- 0.050 -->
      <g transform="translate(38.818591 246.644415) scale(0.2 -0.2)">
       <use xlink:href="#DejaVuSans-30"/>
       <use xlink:href="#DejaVuSans-2e" x="63.623047"/>
       <use xlink:href="#DejaVuSans-30" x="95.410156"/>
       <use xlink:href="#DejaVuSans-35" x="159.033203"/>
       <use xlink:href="#DejaVuSans-30" x="222.65625"/>
      </g>
     </g>
    </g>
    <g id="ytick_5">
     <g id="line2d_14">
      <g>
       <use xlink:href="#me56ce3de35" x="103.074841" y="195.69394" style="stroke: #000000; stroke-width: 0.8"/>
      </g>
     </g>
     <g id="text_14">
      <!-- 0.075 -->
      <g transform="translate(38.818591 203.292378) scale(0.2 -0.2)">
       <defs>
        <path id="DejaVuSans-37" d="M 525 4666 
L 3525 4666 
L 3525 4397 
L 1831 0 
L 1172 0 
L 2766 4134 
L 525 4134 
L 525 4666 
z
" transform="scale(0.015625)"/>
       </defs>
       <use xlink:href="#DejaVuSans-30"/>
       <use xlink:href="#DejaVuSans-2e" x="63.623047"/>
       <use xlink:href="#DejaVuSans-30" x="95.410156"/>
       <use xlink:href="#DejaVuSans-37" x="159.033203"/>
       <use xlink:href="#DejaVuSans-35" x="222.65625"/>
      </g>
     </g>
    </g>
    <g id="ytick_6">
     <g id="line2d_15">
      <g>
       <use xlink:href="#me56ce3de35" x="103.074841" y="152.341903" style="stroke: #000000; stroke-width: 0.8"/>
      </g>
     </g>
     <g id="text_15">
      <!-- 0.100 -->
      <g transform="translate(38.818591 159.94034) scale(0.2 -0.2)">
       <use xlink:href="#DejaVuSans-30"/>
       <use xlink:href="#DejaVuSans-2e" x="63.623047"/>
       <use xlink:href="#DejaVuSans-31" x="95.410156"/>
       <use xlink:href="#DejaVuSans-30" x="159.033203"/>
       <use xlink:href="#DejaVuSans-30" x="222.65625"/>
      </g>
     </g>
    </g>
    <g id="ytick_7">
     <g id="line2d_16">
      <g>
       <use xlink:href="#me56ce3de35" x="103.074841" y="108.989865" style="stroke: #000000; stroke-width: 0.8"/>
      </g>
     </g>
     <g id="text_16">
      <!-- 0.125 -->
      <g transform="translate(38.818591 116.588303) scale(0.2 -0.2)">
       <use xlink:href="#DejaVuSans-30"/>
       <use xlink:href="#DejaVuSans-2e" x="63.623047"/>
       <use xlink:href="#DejaVuSans-31" x="95.410156"/>
       <use xlink:href="#DejaVuSans-32" x="159.033203"/>
       <use xlink:href="#DejaVuSans-35" x="222.65625"/>
      </g>
     </g>
    </g>
    <g id="ytick_8">
     <g id="line2d_17">
      <g>
       <use xlink:href="#me56ce3de35" x="103.074841" y="65.637828" style="stroke: #000000; stroke-width: 0.8"/>
      </g>
     </g>
     <g id="text_17">
      <!-- 0.150 -->
      <g transform="translate(38.818591 73.236265) scale(0.2 -0.2)">
       <use xlink:href="#DejaVuSans-30"/>
       <use xlink:href="#DejaVuSans-2e" x="63.623047"/>
       <use xlink:href="#DejaVuSans-31" x="95.410156"/>
       <use xlink:href="#DejaVuSans-35" x="159.033203"/>
       <use xlink:href="#DejaVuSans-30" x="222.65625"/>
      </g>
     </g>
    </g>
    <g id="ytick_9">
     <g id="line2d_18">
      <g>
       <use xlink:href="#me56ce3de35" x="103.074841" y="22.28579" style="stroke: #000000; stroke-width: 0.8"/>
      </g>
     </g>
     <g id="text_18">
      <!-- 0.175 -->
      <g transform="translate(38.818591 29.884228) scale(0.2 -0.2)">
       <use xlink:href="#DejaVuSans-30"/>
       <use xlink:href="#DejaVuSans-2e" x="63.623047"/>
       <use xlink:href="#DejaVuSans-31" x="95.410156"/>
       <use xlink:href="#DejaVuSans-37" x="159.033203"/>
       <use xlink:href="#DejaVuSans-35" x="222.65625"/>
      </g>
     </g>
    </g>
   </g>
   <g id="line2d_19">
    <path d="M 0 0 
" clip-path="url(#p522e29c2a3)" style="fill: none; stroke: #ffa500; stroke-width: 1.5; stroke-linecap: square"/>
   </g>
   <g id="line2d_20">
    <path d="M 103.074841 325.750053 
L 948.274841 325.750053 
" clip-path="url(#p522e29c2a3)" style="fill: none; stroke-dasharray: 7.4,3.2; stroke-dashoffset: 0; stroke: #000000; stroke-width: 2"/>
   </g>
   <g id="patch_3">
    <path d="M 103.074841 395.28 
L 103.074841 7.2 
" style="fill: none; stroke: #000000; stroke-width: 0.8; stroke-linejoin: miter; stroke-linecap: square"/>
   </g>
   <g id="patch_4">
    <path d="M 940.074841 395.28 
L 940.074841 7.2 
" style="fill: none; stroke: #000000; stroke-width: 0.8; stroke-linejoin: miter; stroke-linecap: square"/>
   </g>
   <g id="patch_5">
    <path d="M 103.074841 395.28 
L 940.074841 395.28 
" style="fill: none; stroke: #000000; stroke-width: 0.8; stroke-linejoin: miter; stroke-linecap: square"/>
   </g>
   <g id="patch_6">
    <path d="M 103.074841 7.2 
L 940.074841 7.2 
" style="fill: none; stroke: #000000; stroke-width: 0.8; stroke-linejoin: miter; stroke-linecap: square"/>
   </g>
  </g>
 </g>
 <defs>
  <clipPath id="p522e29c2a3">
   <rect x="103.074841" y="7.2" width="837" height="388.08"/>
  </clipPath>
 </defs>
</svg>
