<?xml version="1.0" encoding="utf-8" standalone="no"?>
<!DOCTYPE svg PUBLIC "-//W3C//DTD SVG 1.1//EN"
  "http://www.w3.org/Graphics/SVG/1.1/DTD/svg11.dtd">
<svg xmlns:xlink="http://www.w3.org/1999/xlink" width="1040.965466pt" height="505.354841pt" viewBox="0 0 1040.965466 505.354841" xmlns="http://www.w3.org/2000/svg" version="1.1">
 <metadata>
  <rdf:RDF xmlns:dc="http://purl.org/dc/elements/1.1/" xmlns:cc="http://creativecommons.org/ns#" xmlns:rdf="http://www.w3.org/1999/02/22-rdf-syntax-ns#">
   <cc:Work>
    <dc:type rdf:resource="http://purl.org/dc/dcmitype/StillImage"/>
    <dc:date>2023-11-24T15:26:54.068102</dc:date>
    <dc:format>image/svg+xml</dc:format>
    <dc:creator>
     <cc:Agent>
      <dc:title>Matplotlib v3.7.2, https://matplotlib.org/</dc:title>
     </cc:Agent>
    </dc:creator>
   </cc:Work>
  </rdf:RDF>
 </metadata>
 <defs>
  <style type="text/css">*{stroke-linejoin: round; stroke-linecap: butt}</style>
 </defs>
 <g id="figure_1">
  <g id="patch_1">
   <path d="M 0 505.354841 
L 1040.965466 505.354841 
L 1040.965466 -0 
L 0 -0 
z
" style="fill: #ffffff"/>
  </g>
  <g id="axes_1">
   <g id="patch_2">
    <path d="M 103.074841 395.28 
L 940.074841 395.28 
L 940.074841 7.2 
L 103.074841 7.2 
z
" style="fill: #ffffff"/>
   </g>
   <g id="PolyCollection_1">
    <defs>
     <path id="mb591dced0e" d="M 103.074841 -186.626248 
L 103.074841 -186.610485 
L 104.356617 -186.700858 
L 105.638394 -186.775883 
L 106.92017 -186.864834 
L 108.201946 -186.923809 
L 109.483723 -186.987679 
L 110.765499 -187.067558 
L 112.047276 -187.144145 
L 113.329052 -187.213184 
L 114.610828 -187.270978 
L 115.892605 -187.34192 
L 117.174381 -187.420151 
L 118.456158 -187.49724 
L 119.737934 -187.585644 
L 121.019711 -187.658597 
L 122.301487 -187.744573 
L 123.583263 -187.829666 
L 124.86504 -187.923979 
L 126.146816 -188.006881 
L 127.428593 -188.086337 
L 128.710369 -188.183602 
L 129.992145 -188.277919 
L 131.273922 -188.368442 
L 132.555698 -188.479309 
L 133.837475 -188.572772 
L 135.119251 -188.690202 
L 136.401028 -188.800555 
L 137.682804 -188.931076 
L 138.96458 -189.066143 
L 140.246357 -189.193106 
L 141.528133 -189.337025 
L 142.80991 -189.507503 
L 144.091686 -189.654757 
L 145.373462 -189.824374 
L 146.655239 -190.021545 
L 147.937015 -190.207303 
L 149.218792 -190.413255 
L 150.500568 -190.629855 
L 151.782345 -190.849516 
L 153.064121 -191.093137 
L 154.345897 -191.356389 
L 155.627674 -191.627776 
L 156.90945 -191.916519 
L 158.191227 -192.211966 
L 159.473003 -192.531755 
L 160.754779 -192.844755 
L 162.036556 -193.186761 
L 163.318332 -193.5134 
L 164.600109 -193.879467 
L 165.881885 -194.271102 
L 167.163662 -194.637714 
L 168.445438 -195.03118 
L 169.727214 -195.449253 
L 171.008991 -195.855812 
L 172.290767 -196.268151 
L 173.572544 -196.701306 
L 174.85432 -197.13799 
L 176.136096 -197.577765 
L 177.417873 -198.037733 
L 178.699649 -198.503163 
L 179.981426 -198.965339 
L 181.263202 -199.444748 
L 182.544979 -199.926344 
L 183.826755 -200.402175 
L 185.108531 -200.906767 
L 186.390308 -201.418222 
L 187.672084 -201.928995 
L 188.953861 -202.437957 
L 190.235637 -202.941462 
L 191.517413 -203.46107 
L 192.79919 -203.970311 
L 194.080966 -204.49035 
L 195.362743 -204.961038 
L 196.644519 -205.512004 
L 197.926296 -206.013029 
L 199.208072 -206.530591 
L 200.489848 -207.015689 
L 201.771625 -207.544853 
L 203.053401 -208.047385 
L 204.335178 -208.550287 
L 205.616954 -209.051797 
L 206.89873 -209.544721 
L 208.180507 -210.044218 
L 209.462283 -210.513461 
L 210.74406 -211.013674 
L 212.025836 -211.525921 
L 213.307613 -212.017846 
L 214.589389 -212.490293 
L 215.871165 -213.001591 
L 217.152942 -213.491296 
L 218.434718 -213.994438 
L 219.716495 -214.487786 
L 220.998271 -214.958859 
L 222.280047 -215.445293 
L 223.561824 -215.938118 
L 224.8436 -216.375277 
L 226.125377 -216.881108 
L 227.407153 -217.36346 
L 228.68893 -217.837612 
L 229.970706 -218.31338 
L 231.252482 -218.788614 
L 232.534259 -219.271602 
L 233.816035 -219.730174 
L 235.097812 -220.209992 
L 236.379588 -220.703989 
L 237.661364 -221.204596 
L 238.943141 -221.711418 
L 240.224917 -222.182126 
L 241.506694 -222.706931 
L 242.78847 -223.269127 
L 244.070247 -223.799283 
L 245.352023 -224.349988 
L 246.633799 -224.914638 
L 247.915576 -225.513814 
L 249.197352 -226.124328 
L 250.479129 -226.687 
L 251.760905 -227.335167 
L 253.042681 -227.947491 
L 254.324458 -228.611219 
L 255.606234 -229.214941 
L 256.888011 -229.933959 
L 258.169787 -230.637488 
L 259.451564 -231.317879 
L 260.73334 -232.01015 
L 262.015116 -232.724377 
L 263.296893 -233.473177 
L 264.578669 -234.169551 
L 265.860446 -234.976818 
L 267.142222 -235.676565 
L 268.423998 -236.506971 
L 269.705775 -237.307137 
L 270.987551 -238.086063 
L 272.269328 -238.908672 
L 273.551104 -239.743678 
L 274.832881 -240.495418 
L 276.114657 -241.512399 
L 277.396433 -242.373997 
L 278.67821 -243.169572 
L 279.959986 -244.077114 
L 281.241763 -245.042286 
L 282.523539 -246.105225 
L 283.805315 -247.100759 
L 285.087092 -247.919642 
L 286.368868 -249.275334 
L 287.650645 -250.339483 
L 288.932421 -251.426228 
L 290.214198 -252.551642 
L 291.495974 -253.846805 
L 292.77775 -255.083099 
L 294.059527 -255.950081 
L 295.341303 -257.081119 
L 296.62308 -259.073563 
L 297.904856 -260.693742 
L 299.186632 -261.878638 
L 300.468409 -263.452373 
L 301.750185 -264.935862 
L 303.031962 -266.026302 
L 304.313738 -267.877603 
L 305.595515 -269.929576 
L 306.877291 -271.22834 
L 308.159067 -272.09153 
L 309.440844 -273.805181 
L 310.72262 -274.679458 
L 312.004397 -275.60199 
L 313.286173 -277.651915 
L 314.567949 -277.72807 
L 315.849726 -277.041814 
L 317.131502 -275.808639 
L 318.413279 -277.720914 
L 319.695055 -274.635411 
L 320.976832 -273.396881 
L 322.258608 -277.913104 
L 323.540384 -277.334253 
L 324.822161 -274.652223 
L 326.103937 -275.959329 
L 327.385714 -275.486519 
L 328.66749 -266.143412 
L 329.949266 -253.217167 
L 331.231043 -246.198756 
L 332.512819 -260.94697 
L 333.794596 -253.683984 
L 335.076372 -243.979037 
L 336.358149 -244.029323 
L 337.639925 -224.676676 
L 338.921701 -227.593195 
L 340.203478 -232.726697 
L 341.485254 -248.382197 
L 342.767031 -234.359433 
L 344.048807 -226.104089 
L 345.330583 -229.548378 
L 346.61236 -227.182332 
L 347.894136 -219.135619 
L 349.175913 -220.274498 
L 350.457689 -227.52826 
L 351.739466 -218.854081 
L 353.021242 -217.284665 
L 354.303018 -220.559856 
L 355.584795 -214.983707 
L 356.866571 -212.867357 
L 358.148348 -213.659551 
L 359.430124 -215.33243 
L 360.7119 -213.49872 
L 361.993677 -215.350174 
L 363.275453 -215.196855 
L 364.55723 -213.577165 
L 365.839006 -215.221851 
L 367.120783 -214.430072 
L 368.402559 -214.390706 
L 369.684335 -215.715587 
L 370.966112 -215.222336 
L 372.247888 -217.233725 
L 373.529665 -217.050354 
L 374.811441 -216.522351 
L 376.093217 -216.506214 
L 377.374994 -217.440785 
L 378.65677 -218.255538 
L 379.938547 -218.479848 
L 381.220323 -219.310246 
L 382.502099 -219.442042 
L 383.783876 -219.683306 
L 385.065652 -220.906187 
L 386.347429 -220.261008 
L 387.629205 -221.18481 
L 388.910982 -221.558388 
L 390.192758 -221.52042 
L 391.474534 -222.352943 
L 392.756311 -222.483192 
L 394.038087 -222.149677 
L 395.319864 -221.785205 
L 396.60164 -223.165929 
L 397.883416 -223.434097 
L 399.165193 -223.830185 
L 400.446969 -221.519837 
L 401.728746 -221.498129 
L 403.010522 -220.610314 
L 404.292299 -222.81914 
L 405.574075 -224.241508 
L 406.855851 -223.795756 
L 408.137628 -222.292242 
L 409.419404 -222.058978 
L 410.701181 -224.896261 
L 411.982957 -222.533465 
L 413.264733 -223.320095 
L 414.54651 -223.560692 
L 415.828286 -224.88907 
L 417.110063 -223.960079 
L 418.391839 -224.660644 
L 419.673616 -224.065332 
L 420.955392 -224.858958 
L 422.237168 -225.852703 
L 423.518945 -227.009784 
L 424.800721 -227.566103 
L 426.082498 -228.305777 
L 427.364274 -229.065415 
L 428.64605 -229.18404 
L 429.927827 -230.059262 
L 431.209603 -230.881849 
L 432.49138 -232.699917 
L 433.773156 -234.34733 
L 435.054933 -235.138014 
L 436.336709 -236.816944 
L 437.618485 -237.308413 
L 438.900262 -238.826556 
L 440.182038 -240.850993 
L 441.463815 -242.696079 
L 442.745591 -244.084213 
L 444.027367 -246.280033 
L 445.309144 -247.646638 
L 446.59092 -249.626132 
L 447.872697 -251.589548 
L 449.154473 -253.374595 
L 450.43625 -255.282764 
L 451.718026 -257.440393 
L 452.999802 -259.570484 
L 454.281579 -261.647775 
L 455.563355 -264.168456 
L 456.845132 -266.311277 
L 458.126908 -268.282077 
L 459.408684 -270.404665 
L 460.690461 -272.766574 
L 461.972237 -275.144595 
L 463.254014 -277.561737 
L 464.53579 -280.605469 
L 465.817567 -282.759329 
L 467.099343 -285.173137 
L 468.381119 -287.170452 
L 469.662896 -290.125995 
L 470.944672 -292.968529 
L 472.226449 -295.09399 
L 473.508225 -298.126379 
L 474.790001 -301.324384 
L 476.071778 -303.745948 
L 477.353554 -306.87637 
L 478.635331 -309.157255 
L 479.917107 -312.093233 
L 481.198884 -315.812392 
L 482.48066 -318.778949 
L 483.762436 -320.935804 
L 485.044213 -324.473387 
L 486.325989 -327.351945 
L 487.607766 -330.725294 
L 488.889542 -333.137986 
L 490.171318 -337.037805 
L 491.453095 -340.387685 
L 492.734871 -340.219744 
L 494.016648 -346.555058 
L 495.298424 -347.874648 
L 496.580201 -351.524254 
L 497.861977 -353.406716 
L 499.143753 -357.17344 
L 500.42553 -359.757485 
L 501.707306 -362.714633 
L 502.989083 -365.099762 
L 504.270859 -367.347862 
L 505.552635 -370.116403 
L 506.834412 -368.4249 
L 508.116188 -375.995133 
L 509.397965 -376.902296 
L 510.679741 -373.787436 
L 511.961518 -380.710587 
L 513.243294 -379.568921 
L 514.52507 -380.381322 
L 515.806847 -384.825121 
L 517.088623 -384.356378 
L 518.3704 -379.651604 
L 519.652176 -384.456683 
L 520.933952 -384.995468 
L 522.215729 -383.132902 
L 523.497505 -383.29206 
L 524.779282 -381.489812 
L 526.061058 -378.611759 
L 527.342835 -375.353812 
L 528.624611 -363.206876 
L 529.906387 -368.004862 
L 531.188164 -361.667734 
L 532.46994 -358.045496 
L 533.751717 -355.201015 
L 535.033493 -350.990584 
L 536.315269 -346.839614 
L 537.597046 -353.300695 
L 538.878822 -348.522533 
L 540.160599 -340.048589 
L 541.442375 -336.413797 
L 542.724152 -335.926476 
L 544.005928 -322.180638 
L 545.287704 -321.247412 
L 546.569481 -317.97476 
L 547.851257 -318.896729 
L 549.133034 -306.440643 
L 550.41481 -310.04346 
L 551.696586 -313.21195 
L 552.978363 -301.706402 
L 554.260139 -294.622998 
L 555.541916 -295.267148 
L 556.823692 -290.151748 
L 558.105469 -288.94642 
L 559.387245 -288.573483 
L 560.669021 -288.684747 
L 561.950798 -287.29535 
L 563.232574 -285.405074 
L 564.514351 -277.619272 
L 565.796127 -283.038389 
L 567.077903 -276.378345 
L 568.35968 -277.635842 
L 569.641456 -279.085036 
L 570.923233 -276.606938 
L 572.205009 -274.47938 
L 573.486786 -278.560571 
L 574.768562 -275.74464 
L 576.050338 -276.175499 
L 577.332115 -273.139887 
L 578.613891 -274.724579 
L 579.895668 -276.563817 
L 581.177444 -275.100787 
L 582.45922 -275.231091 
L 583.740997 -276.10947 
L 585.022773 -277.54168 
L 586.30455 -277.079749 
L 587.586326 -279.773072 
L 588.868103 -279.65665 
L 590.149879 -277.024125 
L 591.431655 -277.903178 
L 592.713432 -280.791176 
L 593.995208 -281.161209 
L 595.276985 -282.015452 
L 596.558761 -285.682095 
L 597.840537 -284.933611 
L 599.122314 -283.433356 
L 600.40409 -287.053736 
L 601.685867 -287.9676 
L 602.967643 -290.041161 
L 604.24942 -289.798382 
L 605.531196 -290.753761 
L 606.812972 -292.375455 
L 608.094749 -293.366407 
L 609.376525 -294.421634 
L 610.658302 -295.966682 
L 611.940078 -298.684021 
L 613.221854 -299.932351 
L 614.503631 -301.82694 
L 615.785407 -305.714548 
L 617.067184 -303.603851 
L 618.34896 -307.994669 
L 619.630737 -307.43432 
L 620.912513 -308.144173 
L 622.194289 -308.45806 
L 623.476066 -310.963034 
L 624.757842 -311.081756 
L 626.039619 -311.74258 
L 627.321395 -316.040308 
L 628.603171 -315.348119 
L 629.884948 -316.319404 
L 631.166724 -316.017223 
L 632.448501 -318.898964 
L 633.730277 -318.382847 
L 635.012054 -319.377429 
L 636.29383 -323.366144 
L 637.575606 -323.966889 
L 638.857383 -325.195295 
L 640.139159 -325.811728 
L 641.420936 -327.792732 
L 642.702712 -327.89176 
L 643.984488 -328.959364 
L 645.266265 -329.846811 
L 646.548041 -331.236096 
L 647.829818 -333.394838 
L 649.111594 -331.793649 
L 650.393371 -332.56632 
L 651.675147 -334.282545 
L 652.956923 -335.420044 
L 654.2387 -338.018351 
L 655.520476 -336.334823 
L 656.802253 -337.052844 
L 658.084029 -337.399215 
L 659.365805 -338.959411 
L 660.647582 -340.658338 
L 661.929358 -341.882723 
L 663.211135 -342.096541 
L 664.492911 -342.595429 
L 665.774688 -342.952391 
L 667.056464 -345.02967 
L 668.33824 -346.964195 
L 669.620017 -344.957093 
L 670.901793 -347.792466 
L 672.18357 -347.631949 
L 673.465346 -346.99298 
L 674.747122 -351.256742 
L 676.028899 -350.825119 
L 677.310675 -350.362747 
L 678.592452 -352.003416 
L 679.874228 -350.364412 
L 681.156005 -353.195179 
L 682.437781 -355.338705 
L 683.719557 -352.765815 
L 685.001334 -352.918994 
L 686.28311 -354.833083 
L 687.564887 -354.175413 
L 688.846663 -355.33583 
L 690.128439 -351.431644 
L 691.410216 -352.543145 
L 692.691992 -352.256237 
L 693.973769 -355.905786 
L 695.255545 -358.454517 
L 696.537322 -355.457183 
L 697.819098 -352.087965 
L 699.100874 -356.262317 
L 700.382651 -356.718472 
L 701.664427 -359.744927 
L 702.946204 -359.3234 
L 704.22798 -357.622197 
L 705.509756 -359.931825 
L 706.791533 -362.177073 
L 708.073309 -358.369346 
L 709.355086 -361.051368 
L 710.636862 -357.723133 
L 711.918639 -357.046706 
L 713.200415 -362.626901 
L 714.482191 -361.843037 
L 715.763968 -363.572603 
L 717.045744 -362.009951 
L 718.327521 -359.884353 
L 719.609297 -353.876551 
L 720.891073 -351.634257 
L 722.17285 -354.095013 
L 723.454626 -348.184973 
L 724.736403 -339.12761 
L 726.018179 -349.917438 
L 727.299956 -353.633692 
L 728.581732 -349.737325 
L 729.863508 -346.339182 
L 731.145285 -345.68359 
L 732.427061 -347.686737 
L 733.708838 -340.720849 
L 734.990614 -336.506534 
L 736.27239 -344.231392 
L 737.554167 -337.164739 
L 738.835943 -340.490417 
L 740.11772 -340.455213 
L 741.399496 -334.000257 
L 742.681273 -335.865924 
L 743.963049 -330.707106 
L 745.244825 -330.3146 
L 746.526602 -337.56217 
L 747.808378 -331.824329 
L 749.090155 -332.19468 
L 750.371931 -327.646915 
L 751.653707 -329.51754 
L 752.935484 -324.131961 
L 754.21726 -327.943945 
L 755.499037 -324.780466 
L 756.780813 -324.542757 
L 758.06259 -322.74142 
L 759.344366 -328.137475 
L 760.626142 -322.041552 
L 761.907919 -320.269891 
L 763.189695 -317.847295 
L 764.471472 -313.658233 
L 765.753248 -315.128077 
L 767.035024 -316.255393 
L 768.316801 -312.550352 
L 769.598577 -309.277721 
L 770.880354 -312.590874 
L 772.16213 -314.254597 
L 773.443907 -310.742654 
L 774.725683 -308.370188 
L 776.007459 -313.052813 
L 777.289236 -314.136934 
L 778.571012 -305.642263 
L 779.852789 -302.738525 
L 781.134565 -311.252837 
L 782.416341 -308.785105 
L 783.698118 -307.147164 
L 784.979894 -305.905109 
L 786.261671 -300.697165 
L 787.543447 -302.958153 
L 788.825224 -306.017134 
L 790.107 -302.336704 
L 791.388776 -300.34086 
L 792.670553 -305.968153 
L 793.952329 -304.914999 
L 795.234106 -305.259755 
L 796.515882 -296.618505 
L 797.797658 -291.281521 
L 799.079435 -290.593253 
L 800.361211 -297.524364 
L 801.642988 -300.442041 
L 802.924764 -298.262862 
L 804.206541 -297.772874 
L 805.488317 -289.873255 
L 806.770093 -299.315662 
L 808.05187 -291.358302 
L 809.333646 -286.361659 
L 810.615423 -290.903783 
L 811.897199 -282.461442 
L 813.178975 -287.562539 
L 814.460752 -285.586195 
L 815.742528 -284.678992 
L 817.024305 -282.794401 
L 818.306081 -278.575523 
L 819.587858 -281.180569 
L 820.869634 -278.555681 
L 822.15141 -277.166418 
L 823.433187 -276.99319 
L 824.714963 -286.692602 
L 825.99674 -272.380056 
L 827.278516 -267.312352 
L 828.560292 -272.49353 
L 829.842069 -268.38066 
L 831.123845 -266.722674 
L 832.405622 -269.062349 
L 833.687398 -264.495749 
L 834.969175 -258.596726 
L 836.250951 -260.136106 
L 837.532727 -258.469689 
L 838.814504 -256.249376 
L 840.09628 -255.595739 
L 841.378057 -251.572877 
L 842.659833 -259.306086 
L 843.941609 -247.599893 
L 845.223386 -247.49245 
L 846.505162 -248.263558 
L 847.786939 -253.94446 
L 849.068715 -244.618407 
L 850.350492 -237.410087 
L 851.632268 -244.916696 
L 852.914044 -242.991694 
L 854.195821 -235.139677 
L 855.477597 -249.428266 
L 856.759374 -236.23274 
L 858.04115 -243.56176 
L 859.322926 -230.648067 
L 860.604703 -237.336406 
L 861.886479 -231.156652 
L 863.168256 -230.126326 
L 864.450032 -225.990902 
L 865.731809 -225.976088 
L 867.013585 -227.916734 
L 868.295361 -228.275652 
L 869.577138 -225.645232 
L 870.858914 -220.025685 
L 872.140691 -220.344771 
L 873.422467 -220.865596 
L 874.704243 -216.087224 
L 875.98602 -216.081 
L 877.267796 -217.03132 
L 878.549573 -217.796857 
L 879.831349 -211.952144 
L 881.113126 -211.141026 
L 882.394902 -209.524849 
L 883.676678 -212.572917 
L 884.958455 -217.607192 
L 886.240231 -210.216506 
L 887.522008 -213.234214 
L 888.803784 -210.686453 
L 890.08556 -208.102944 
L 891.367337 -211.09665 
L 892.649113 -206.370184 
L 893.93089 -209.543632 
L 895.212666 -209.662033 
L 896.494443 -208.522861 
L 897.776219 -205.597568 
L 899.057995 -206.884922 
L 900.339772 -207.116448 
L 901.621548 -208.694306 
L 902.903325 -207.970635 
L 904.185101 -207.091066 
L 905.466877 -207.710201 
L 906.748654 -204.887646 
L 908.03043 -205.832126 
L 909.312207 -203.613148 
L 910.593983 -202.630099 
L 911.87576 -202.271648 
L 913.157536 -203.68372 
L 914.439312 -203.999537 
L 915.721089 -204.876436 
L 917.002865 -203.715947 
L 918.284642 -204.016868 
L 919.566418 -205.724189 
L 920.848194 -203.699535 
L 922.129971 -212.596 
L 923.411747 -204.317037 
L 924.693524 -201.966525 
L 925.9753 -205.182207 
L 927.257077 -205.242371 
L 928.538853 -203.373384 
L 929.820629 -203.380252 
L 931.102406 -206.029965 
L 932.384182 -206.571987 
L 933.665959 -205.248815 
L 934.947735 -206.610667 
L 936.229511 -202.802022 
L 937.511288 -205.553732 
L 938.793064 -202.264627 
L 940.074841 -205.082687 
L 940.074841 -211.532596 
L 940.074841 -211.532596 
L 938.793064 -214.603946 
L 937.511288 -218.814852 
L 936.229511 -213.915358 
L 934.947735 -222.506406 
L 933.665959 -219.540527 
L 932.384182 -220.819318 
L 931.102406 -229.221957 
L 929.820629 -219.652498 
L 928.538853 -214.212783 
L 927.257077 -227.396589 
L 925.9753 -221.477755 
L 924.693524 -214.939614 
L 923.411747 -219.082573 
L 922.129971 -271.85632 
L 920.848194 -220.125824 
L 919.566418 -229.442463 
L 918.284642 -219.868733 
L 917.002865 -220.146157 
L 915.721089 -223.261068 
L 914.439312 -223.732201 
L 913.157536 -224.030276 
L 911.87576 -218.032722 
L 910.593983 -218.590346 
L 909.312207 -224.568441 
L 908.03043 -231.869416 
L 906.748654 -227.05174 
L 905.466877 -235.245537 
L 904.185101 -232.869028 
L 902.903325 -237.448979 
L 901.621548 -240.492571 
L 900.339772 -234.399146 
L 899.057995 -234.211895 
L 897.776219 -231.822119 
L 896.494443 -237.854708 
L 895.212666 -243.810529 
L 893.93089 -243.864545 
L 892.649113 -232.291759 
L 891.367337 -247.861424 
L 890.08556 -237.505267 
L 888.803784 -244.771211 
L 887.522008 -251.541855 
L 886.240231 -242.793766 
L 884.958455 -269.099398 
L 883.676678 -249.087976 
L 882.394902 -240.652183 
L 881.113126 -245.500524 
L 879.831349 -246.368445 
L 878.549573 -267.357052 
L 877.267796 -262.559075 
L 875.98602 -258.768228 
L 874.704243 -257.611477 
L 873.422467 -271.044831 
L 872.140691 -268.213459 
L 870.858914 -268.424258 
L 869.577138 -279.146898 
L 868.295361 -288.65175 
L 867.013585 -288.663396 
L 865.731809 -283.318206 
L 864.450032 -283.115375 
L 863.168256 -291.282653 
L 861.886479 -293.360283 
L 860.604703 -311.172041 
L 859.322926 -291.059119 
L 858.04115 -334.041943 
L 856.759374 -308.122875 
L 855.477597 -345.847751 
L 854.195821 -302.962734 
L 852.914044 -323.621807 
L 851.632268 -325.509218 
L 850.350492 -309.895926 
L 849.068715 -327.044021 
L 847.786939 -351.343759 
L 846.505162 -337.056464 
L 845.223386 -332.906155 
L 843.941609 -332.626341 
L 842.659833 -362.994901 
L 841.378057 -351.795026 
L 840.09628 -351.12896 
L 838.814504 -352.269453 
L 837.532727 -357.669858 
L 836.250951 -362.98319 
L 834.969175 -357.334339 
L 833.687398 -373.00273 
L 832.405622 -384.231477 
L 831.123845 -373.734009 
L 829.842069 -382.542027 
L 828.560292 -388.485082 
L 827.278516 -375.669728 
L 825.99674 -387.477021 
L 824.714963 -422.335402 
L 823.433187 -399.006292 
L 822.15141 -400.334077 
L 820.869634 -402.249301 
L 819.587858 -408.471952 
L 818.306081 -401.83398 
L 817.024305 -410.445396 
L 815.742528 -413.930901 
L 814.460752 -416.31912 
L 813.178975 -422.984493 
L 811.897199 -408.716218 
L 810.615423 -427.721929 
L 809.333646 -418.131857 
L 808.05187 -428.008826 
L 806.770093 -442.938457 
L 805.488317 -424.584595 
L 804.206541 -442.297908 
L 802.924764 -441.392773 
L 801.642988 -444.944431 
L 800.361211 -438.665521 
L 799.079435 -424.08488 
L 797.797658 -423.905665 
L 796.515882 -434.399597 
L 795.234106 -454.393886 
L 793.952329 -452.864378 
L 792.670553 -452.670075 
L 791.388776 -440.90433 
L 790.107 -443.724998 
L 788.825224 -451.14146 
L 787.543447 -443.575468 
L 786.261671 -440.114562 
L 784.979894 -449.105956 
L 783.698118 -449.543555 
L 782.416341 -452.684276 
L 781.134565 -456.721643 
L 779.852789 -437.804855 
L 778.571012 -446.186123 
L 777.289236 -459.815542 
L 776.007459 -455.383645 
L 774.725683 -445.909485 
L 773.443907 -450.540401 
L 772.16213 -455.530034 
L 770.880354 -450.571569 
L 769.598577 -441.734585 
L 768.316801 -450.646498 
L 767.035024 -454.950839 
L 765.753248 -451.02915 
L 764.471472 -452.703698 
L 763.189695 -454.914881 
L 761.907919 -457.91124 
L 760.626142 -459.981004 
L 759.344366 -470.003325 
L 758.06259 -460.390179 
L 756.780813 -462.228375 
L 755.499037 -460.779133 
L 754.21726 -462.842577 
L 752.935484 -458.430013 
L 751.653707 -465.612395 
L 750.371931 -460.574511 
L 749.090155 -467.229923 
L 747.808378 -465.211874 
L 746.526602 -473.087075 
L 745.244825 -464.459029 
L 743.963049 -461.215713 
L 742.681273 -465.311171 
L 741.399496 -464.450289 
L 740.11772 -471.549363 
L 738.835943 -469.331315 
L 737.554167 -466.532341 
L 736.27239 -474.802 
L 734.990614 -465.581275 
L 733.708838 -467.915411 
L 732.427061 -477.25399 
L 731.145285 -473.007708 
L 729.863508 -473.353389 
L 728.581732 -475.495515 
L 727.299956 -479.526469 
L 726.018179 -474.863949 
L 724.736403 -457.949248 
L 723.454626 -468.668112 
L 722.17285 -476.400441 
L 720.891073 -472.640239 
L 719.609297 -474.624844 
L 718.327521 -479.662454 
L 717.045744 -481.840135 
L 715.763968 -483.319395 
L 714.482191 -479.271649 
L 713.200415 -478.54605 
L 711.918639 -471.76185 
L 710.636862 -471.148693 
L 709.355086 -473.637376 
L 708.073309 -468.752974 
L 706.791533 -473.088017 
L 705.509756 -467.809825 
L 704.22798 -464.79767 
L 702.946204 -463.85299 
L 701.664427 -464.473489 
L 700.382651 -459.061338 
L 699.100874 -457.9035 
L 697.819098 -452.604587 
L 696.537322 -454.247123 
L 695.255545 -456.359768 
L 693.973769 -452.432718 
L 692.691992 -449.128579 
L 691.410216 -448.059505 
L 690.128439 -444.434032 
L 688.846663 -448.268613 
L 687.564887 -445.674606 
L 686.28311 -445.774002 
L 685.001334 -443.933586 
L 683.719557 -443.819238 
L 682.437781 -444.931355 
L 681.156005 -440.464338 
L 679.874228 -437.686518 
L 678.592452 -439.37623 
L 677.310675 -436.514581 
L 676.028899 -437.807913 
L 674.747122 -435.637854 
L 673.465346 -430.803424 
L 672.18357 -430.875164 
L 670.901793 -430.076955 
L 669.620017 -426.852861 
L 668.33824 -428.490911 
L 667.056464 -426.171565 
L 665.774688 -423.232214 
L 664.492911 -422.777444 
L 663.211135 -421.489806 
L 661.929358 -420.902751 
L 660.647582 -419.294177 
L 659.365805 -417.132707 
L 658.084029 -415.371335 
L 656.802253 -415.19863 
L 655.520476 -413.656318 
L 654.2387 -417.431136 
L 652.956923 -412.368093 
L 651.675147 -411.113952 
L 650.393371 -409.489559 
L 649.111594 -409.199547 
L 647.829818 -409.620834 
L 646.548041 -407.167003 
L 645.266265 -405.555353 
L 643.984488 -404.063141 
L 642.702712 -403.240146 
L 641.420936 -402.882674 
L 640.139159 -401.411672 
L 638.857383 -400.228825 
L 637.575606 -398.559781 
L 636.29383 -397.336782 
L 635.012054 -392.740487 
L 633.730277 -391.617424 
L 632.448501 -392.202351 
L 631.166724 -388.797555 
L 629.884948 -389.394919 
L 628.603171 -387.913447 
L 627.321395 -389.639728 
L 626.039619 -383.241664 
L 624.757842 -382.327255 
L 623.476066 -382.04463 
L 622.194289 -378.971148 
L 620.912513 -378.506473 
L 619.630737 -377.34931 
L 618.34896 -378.007408 
L 617.067184 -372.751403 
L 615.785407 -374.362704 
L 614.503631 -369.246896 
L 613.221854 -366.27668 
L 611.940078 -364.31752 
L 610.658302 -360.497302 
L 609.376525 -357.644748 
L 608.094749 -356.496006 
L 606.812972 -354.286717 
L 605.531196 -352.257886 
L 604.24942 -350.41359 
L 602.967643 -350.255087 
L 601.685867 -346.748366 
L 600.40409 -344.468267 
L 599.122314 -340.203971 
L 597.840537 -340.823002 
L 596.558761 -340.457057 
L 595.276985 -335.918238 
L 593.995208 -334.054228 
L 592.713432 -332.089022 
L 591.431655 -328.665559 
L 590.149879 -327.071915 
L 588.868103 -328.194249 
L 587.586326 -327.025271 
L 586.30455 -323.606074 
L 585.022773 -322.567611 
L 583.740997 -320.639945 
L 582.45922 -318.997562 
L 581.177444 -317.62584 
L 579.895668 -316.930758 
L 578.613891 -314.748977 
L 577.332115 -312.500176 
L 576.050338 -314.580452 
L 574.768562 -312.726755 
L 573.486786 -313.704152 
L 572.205009 -309.527919 
L 570.923233 -309.499745 
L 569.641456 -311.08284 
L 568.35968 -308.713988 
L 567.077903 -307.104183 
L 565.796127 -311.502557 
L 564.514351 -305.855118 
L 563.232574 -311.332217 
L 561.950798 -311.703595 
L 560.669021 -312.062963 
L 559.387245 -310.6526 
L 558.105469 -310.274822 
L 556.823692 -310.962674 
L 555.541916 -314.659493 
L 554.260139 -312.766045 
L 552.978363 -318.828064 
L 551.696586 -326.946388 
L 550.41481 -323.840755 
L 549.133034 -320.378315 
L 547.851257 -330.170089 
L 546.569481 -329.358661 
L 545.287704 -331.475181 
L 544.005928 -331.789657 
L 542.724152 -345.37976 
L 541.442375 -346.5892 
L 540.160599 -351.248599 
L 538.878822 -362.014993 
L 537.597046 -369.311397 
L 536.315269 -361.348452 
L 535.033493 -366.918653 
L 533.751717 -372.669732 
L 532.46994 -376.328319 
L 531.188164 -381.057018 
L 529.906387 -389.712124 
L 528.624611 -383.420025 
L 527.342835 -399.511478 
L 526.061058 -404.94444 
L 524.779282 -407.91502 
L 523.497505 -410.356414 
L 522.215729 -410.062448 
L 520.933952 -411.84256 
L 519.652176 -410.588392 
L 518.3704 -405.138577 
L 517.088623 -411.587374 
L 515.806847 -411.580704 
L 514.52507 -405.866231 
L 513.243294 -404.603403 
L 511.961518 -406.132232 
L 510.679741 -396.944681 
L 509.397965 -401.063043 
L 508.116188 -399.258315 
L 506.834412 -389.993608 
L 505.552635 -391.871682 
L 504.270859 -388.10581 
L 502.989083 -385.076212 
L 501.707306 -381.929973 
L 500.42553 -378.410357 
L 499.143753 -374.956464 
L 497.861977 -370.255124 
L 496.580201 -367.953539 
L 495.298424 -363.267144 
L 494.016648 -361.593106 
L 492.734871 -354.09764 
L 491.453095 -354.130259 
L 490.171318 -350.083322 
L 488.889542 -345.347411 
L 487.607766 -342.510298 
L 486.325989 -338.395603 
L 485.044213 -334.984406 
L 483.762436 -330.774763 
L 482.48066 -328.170733 
L 481.198884 -324.514964 
L 479.917107 -320.127352 
L 478.635331 -316.618836 
L 477.353554 -313.805301 
L 476.071778 -310.034021 
L 474.790001 -307.269819 
L 473.508225 -303.598348 
L 472.226449 -300.095455 
L 470.944672 -297.554455 
L 469.662896 -294.26515 
L 468.381119 -290.824008 
L 467.099343 -288.643933 
L 465.817567 -286.35305 
L 464.53579 -284.465271 
L 463.254014 -281.466295 
L 461.972237 -279.294518 
L 460.690461 -277.021274 
L 459.408684 -274.786951 
L 458.126908 -272.883699 
L 456.845132 -270.953869 
L 455.563355 -268.967944 
L 454.281579 -266.642128 
L 452.999802 -264.798193 
L 451.718026 -262.790736 
L 450.43625 -260.983781 
L 449.154473 -258.994273 
L 447.872697 -257.234697 
L 446.59092 -255.423153 
L 445.309144 -253.570947 
L 444.027367 -252.201466 
L 442.745591 -250.245665 
L 441.463815 -248.844453 
L 440.182038 -247.202143 
L 438.900262 -245.268598 
L 437.618485 -243.860495 
L 436.336709 -243.434105 
L 435.054933 -241.79958 
L 433.773156 -240.94043 
L 432.49138 -239.285646 
L 431.209603 -237.588668 
L 429.927827 -236.638862 
L 428.64605 -235.677588 
L 427.364274 -235.681058 
L 426.082498 -234.836997 
L 424.800721 -234.226914 
L 423.518945 -233.754843 
L 422.237168 -232.555078 
L 420.955392 -231.610568 
L 419.673616 -230.681383 
L 418.391839 -231.430533 
L 417.110063 -230.883517 
L 415.828286 -231.896804 
L 414.54651 -230.423903 
L 413.264733 -230.432806 
L 411.982957 -229.207759 
L 410.701181 -231.812382 
L 409.419404 -228.943711 
L 408.137628 -229.276949 
L 406.855851 -230.971941 
L 405.574075 -231.498335 
L 404.292299 -230.039163 
L 403.010522 -227.676217 
L 401.728746 -228.746099 
L 400.446969 -228.872263 
L 399.165193 -231.566609 
L 397.883416 -231.744094 
L 396.60164 -231.05841 
L 395.319864 -229.565865 
L 394.038087 -230.11883 
L 392.756311 -230.599819 
L 391.474534 -230.536904 
L 390.192758 -229.669285 
L 388.910982 -230.019199 
L 387.629205 -229.502308 
L 386.347429 -228.498785 
L 385.065652 -229.37371 
L 383.783876 -228.083165 
L 382.502099 -227.879316 
L 381.220323 -227.819765 
L 379.938547 -227.014712 
L 378.65677 -226.869046 
L 377.374994 -225.878788 
L 376.093217 -224.825796 
L 374.811441 -224.907423 
L 373.529665 -225.493173 
L 372.247888 -226.019251 
L 370.966112 -223.546029 
L 369.684335 -224.096964 
L 368.402559 -222.564481 
L 367.120783 -222.647942 
L 365.839006 -223.342572 
L 364.55723 -221.794944 
L 363.275453 -223.350564 
L 361.993677 -223.381421 
L 360.7119 -221.427406 
L 359.430124 -223.069817 
L 358.148348 -221.24908 
L 356.866571 -220.460601 
L 355.584795 -222.359875 
L 354.303018 -227.800465 
L 353.021242 -224.410205 
L 351.739466 -225.977772 
L 350.457689 -233.931152 
L 349.175913 -227.001907 
L 347.894136 -225.756059 
L 346.61236 -233.124829 
L 345.330583 -235.445622 
L 344.048807 -231.748424 
L 342.767031 -240.095546 
L 341.485254 -254.952218 
L 340.203478 -238.11885 
L 338.921701 -232.757342 
L 337.639925 -229.66762 
L 336.358149 -249.633791 
L 335.076372 -249.444925 
L 333.794596 -259.52358 
L 332.512819 -267.096602 
L 331.231043 -251.324478 
L 329.949266 -258.554176 
L 328.66749 -271.990928 
L 327.385714 -281.599496 
L 326.103937 -281.877688 
L 324.822161 -280.285614 
L 323.540384 -282.89541 
L 322.258608 -283.307309 
L 320.976832 -278.358347 
L 319.695055 -279.503875 
L 318.413279 -283.005878 
L 317.131502 -280.988387 
L 315.849726 -282.502268 
L 314.567949 -283.438478 
L 313.286173 -283.621747 
L 312.004397 -281.507461 
L 310.72262 -280.702119 
L 309.440844 -279.9151 
L 308.159067 -278.244324 
L 306.877291 -277.495626 
L 305.595515 -276.256946 
L 304.313738 -274.153473 
L 303.031962 -272.401157 
L 301.750185 -271.38364 
L 300.468409 -269.975876 
L 299.186632 -268.407832 
L 297.904856 -267.359405 
L 296.62308 -265.719279 
L 295.341303 -263.661935 
L 294.059527 -262.533412 
L 292.77775 -261.785902 
L 291.495974 -260.5336 
L 290.214198 -259.308892 
L 288.932421 -258.181133 
L 287.650645 -257.101789 
L 286.368868 -256.064379 
L 285.087092 -254.584824 
L 283.805315 -253.881001 
L 282.523539 -252.836546 
L 281.241763 -251.76119 
L 279.959986 -250.746459 
L 278.67821 -249.804135 
L 277.396433 -249.054243 
L 276.114657 -248.233164 
L 274.832881 -247.089672 
L 273.551104 -246.388812 
L 272.269328 -245.520219 
L 270.987551 -244.673143 
L 269.705775 -243.839253 
L 268.423998 -242.984573 
L 267.142222 -242.112936 
L 265.860446 -241.387634 
L 264.578669 -240.544447 
L 263.296893 -239.807846 
L 262.015116 -239.015627 
L 260.73334 -238.28598 
L 259.451564 -237.518034 
L 258.169787 -236.813071 
L 256.888011 -236.049935 
L 255.606234 -235.225218 
L 254.324458 -234.604357 
L 253.042681 -233.816425 
L 251.760905 -233.143991 
L 250.479129 -232.358263 
L 249.197352 -231.790184 
L 247.915576 -231.057887 
L 246.633799 -230.361644 
L 245.352023 -229.700442 
L 244.070247 -229.037115 
L 242.78847 -228.403983 
L 241.506694 -227.674221 
L 240.224917 -227.018034 
L 238.943141 -226.485658 
L 237.661364 -225.846764 
L 236.379588 -225.208881 
L 235.097812 -224.57492 
L 233.816035 -223.965882 
L 232.534259 -223.400898 
L 231.252482 -222.776634 
L 229.970706 -222.16662 
L 228.68893 -221.554498 
L 227.407153 -220.946217 
L 226.125377 -220.321668 
L 224.8436 -219.671934 
L 223.561824 -219.120514 
L 222.280047 -218.483346 
L 220.998271 -217.860741 
L 219.716495 -217.265748 
L 218.434718 -216.651738 
L 217.152942 -216.025189 
L 215.871165 -215.419779 
L 214.589389 -214.783587 
L 213.307613 -214.208013 
L 212.025836 -213.621298 
L 210.74406 -212.998724 
L 209.462283 -212.400941 
L 208.180507 -211.844915 
L 206.89873 -211.264095 
L 205.616954 -210.696388 
L 204.335178 -210.115325 
L 203.053401 -209.533286 
L 201.771625 -208.968222 
L 200.489848 -208.375825 
L 199.208072 -207.838209 
L 197.926296 -207.262777 
L 196.644519 -206.710152 
L 195.362743 -206.09979 
L 194.080966 -205.585755 
L 192.79919 -205.014778 
L 191.517413 -204.458695 
L 190.235637 -203.891752 
L 188.953861 -203.347046 
L 187.672084 -202.79624 
L 186.390308 -202.242685 
L 185.108531 -201.695459 
L 183.826755 -201.179316 
L 182.544979 -200.695999 
L 181.263202 -200.203987 
L 179.981426 -199.710365 
L 178.699649 -199.235133 
L 177.417873 -198.748303 
L 176.136096 -198.267173 
L 174.85432 -197.809474 
L 173.572544 -197.350787 
L 172.290767 -196.893346 
L 171.008991 -196.458755 
L 169.727214 -196.030369 
L 168.445438 -195.578656 
L 167.163662 -195.163663 
L 165.881885 -194.776594 
L 164.600109 -194.354306 
L 163.318332 -193.963172 
L 162.036556 -193.61888 
L 160.754779 -193.254207 
L 159.473003 -192.922779 
L 158.191227 -192.576735 
L 156.90945 -192.263246 
L 155.627674 -191.953522 
L 154.345897 -191.664443 
L 153.064121 -191.384557 
L 151.782345 -191.123236 
L 150.500568 -190.899608 
L 149.218792 -190.671544 
L 147.937015 -190.455357 
L 146.655239 -190.264377 
L 145.373462 -190.053635 
L 144.091686 -189.879204 
L 142.80991 -189.73124 
L 141.528133 -189.552405 
L 140.246357 -189.404433 
L 138.96458 -189.27798 
L 137.682804 -189.136798 
L 136.401028 -188.999736 
L 135.119251 -188.889835 
L 133.837475 -188.767541 
L 132.555698 -188.676115 
L 131.273922 -188.55873 
L 129.992145 -188.467318 
L 128.710369 -188.368961 
L 127.428593 -188.264262 
L 126.146816 -188.182366 
L 124.86504 -188.095152 
L 123.583263 -187.989764 
L 122.301487 -187.894567 
L 121.019711 -187.796271 
L 119.737934 -187.718797 
L 118.456158 -187.61503 
L 117.174381 -187.525268 
L 115.892605 -187.431182 
L 114.610828 -187.354242 
L 113.329052 -187.287692 
L 112.047276 -187.207456 
L 110.765499 -187.112557 
L 109.483723 -187.017229 
L 108.201946 -186.942855 
L 106.92017 -186.878202 
L 105.638394 -186.786986 
L 104.356617 -186.715517 
L 103.074841 -186.626248 
z
" style="stroke: #008000; stroke-opacity: 0.3"/>
    </defs>
    <g clip-path="url(#p485188c30c)">
     <use xlink:href="#mb591dced0e" x="0" y="505.354841" style="fill: #008000; fill-opacity: 0.3; stroke: #008000; stroke-opacity: 0.3"/>
    </g>
   </g>
   <g id="matplotlib.axis_1">
    <g id="xtick_1">
     <g id="line2d_1">
      <defs>
       <path id="mdfe5252028" d="M 0 0 
L 0 3.5 
" style="stroke: #000000; stroke-width: 0.8"/>
      </defs>
      <g>
       <use xlink:href="#mdfe5252028" x="103.074841" y="395.28" style="stroke: #000000; stroke-width: 0.8"/>
      </g>
     </g>
     <g id="text_1">
      <!-- 2021-07-01 -->
      <g transform="translate(17.945813 495.213718) rotate(-45) scale(0.2 -0.2)">
       <defs>
        <path id="DejaVuSans-32" d="M 1228 531 
L 3431 531 
L 3431 0 
L 469 0 
L 469 531 
Q 828 903 1448 1529 
Q 2069 2156 2228 2338 
Q 2531 2678 2651 2914 
Q 2772 3150 2772 3378 
Q 2772 3750 2511 3984 
Q 2250 4219 1831 4219 
Q 1534 4219 1204 4116 
Q 875 4013 500 3803 
L 500 4441 
Q 881 4594 1212 4672 
Q 1544 4750 1819 4750 
Q 2544 4750 2975 4387 
Q 3406 4025 3406 3419 
Q 3406 3131 3298 2873 
Q 3191 2616 2906 2266 
Q 2828 2175 2409 1742 
Q 1991 1309 1228 531 
z
" transform="scale(0.015625)"/>
        <path id="DejaVuSans-30" d="M 2034 4250 
Q 1547 4250 1301 3770 
Q 1056 3291 1056 2328 
Q 1056 1369 1301 889 
Q 1547 409 2034 409 
Q 2525 409 2770 889 
Q 3016 1369 3016 2328 
Q 3016 3291 2770 3770 
Q 2525 4250 2034 4250 
z
M 2034 4750 
Q 2819 4750 3233 4129 
Q 3647 3509 3647 2328 
Q 3647 1150 3233 529 
Q 2819 -91 2034 -91 
Q 1250 -91 836 529 
Q 422 1150 422 2328 
Q 422 3509 836 4129 
Q 1250 4750 2034 4750 
z
" transform="scale(0.015625)"/>
        <path id="DejaVuSans-31" d="M 794 531 
L 1825 531 
L 1825 4091 
L 703 3866 
L 703 4441 
L 1819 4666 
L 2450 4666 
L 2450 531 
L 3481 531 
L 3481 0 
L 794 0 
L 794 531 
z
" transform="scale(0.015625)"/>
        <path id="DejaVuSans-2d" d="M 313 2009 
L 1997 2009 
L 1997 1497 
L 313 1497 
L 313 2009 
z
" transform="scale(0.015625)"/>
        <path id="DejaVuSans-37" d="M 525 4666 
L 3525 4666 
L 3525 4397 
L 1831 0 
L 1172 0 
L 2766 4134 
L 525 4134 
L 525 4666 
z
" transform="scale(0.015625)"/>
       </defs>
       <use xlink:href="#DejaVuSans-32"/>
       <use xlink:href="#DejaVuSans-30" x="63.623047"/>
       <use xlink:href="#DejaVuSans-32" x="127.246094"/>
       <use xlink:href="#DejaVuSans-31" x="190.869141"/>
       <use xlink:href="#DejaVuSans-2d" x="254.492188"/>
       <use xlink:href="#DejaVuSans-30" x="290.576172"/>
       <use xlink:href="#DejaVuSans-37" x="354.199219"/>
       <use xlink:href="#DejaVuSans-2d" x="417.822266"/>
       <use xlink:href="#DejaVuSans-30" x="453.90625"/>
       <use xlink:href="#DejaVuSans-31" x="517.529297"/>
      </g>
     </g>
    </g>
    <g id="xtick_2">
     <g id="line2d_2">
      <g>
       <use xlink:href="#mdfe5252028" x="138.96458" y="395.28" style="stroke: #000000; stroke-width: 0.8"/>
      </g>
     </g>
     <g id="text_2">
      <!-- 2021-07-29 -->
      <g transform="translate(53.835553 495.213718) rotate(-45) scale(0.2 -0.2)">
       <defs>
        <path id="DejaVuSans-39" d="M 703 97 
L 703 672 
Q 941 559 1184 500 
Q 1428 441 1663 441 
Q 2288 441 2617 861 
Q 2947 1281 2994 2138 
Q 2813 1869 2534 1725 
Q 2256 1581 1919 1581 
Q 1219 1581 811 2004 
Q 403 2428 403 3163 
Q 403 3881 828 4315 
Q 1253 4750 1959 4750 
Q 2769 4750 3195 4129 
Q 3622 3509 3622 2328 
Q 3622 1225 3098 567 
Q 2575 -91 1691 -91 
Q 1453 -91 1209 -44 
Q 966 3 703 97 
z
M 1959 2075 
Q 2384 2075 2632 2365 
Q 2881 2656 2881 3163 
Q 2881 3666 2632 3958 
Q 2384 4250 1959 4250 
Q 1534 4250 1286 3958 
Q 1038 3666 1038 3163 
Q 1038 2656 1286 2365 
Q 1534 2075 1959 2075 
z
" transform="scale(0.015625)"/>
       </defs>
       <use xlink:href="#DejaVuSans-32"/>
       <use xlink:href="#DejaVuSans-30" x="63.623047"/>
       <use xlink:href="#DejaVuSans-32" x="127.246094"/>
       <use xlink:href="#DejaVuSans-31" x="190.869141"/>
       <use xlink:href="#DejaVuSans-2d" x="254.492188"/>
       <use xlink:href="#DejaVuSans-30" x="290.576172"/>
       <use xlink:href="#DejaVuSans-37" x="354.199219"/>
       <use xlink:href="#DejaVuSans-2d" x="417.822266"/>
       <use xlink:href="#DejaVuSans-32" x="453.90625"/>
       <use xlink:href="#DejaVuSans-39" x="517.529297"/>
      </g>
     </g>
    </g>
    <g id="xtick_3">
     <g id="line2d_3">
      <g>
       <use xlink:href="#mdfe5252028" x="174.85432" y="395.28" style="stroke: #000000; stroke-width: 0.8"/>
      </g>
     </g>
     <g id="text_3">
      <!-- 2021-08-26 -->
      <g transform="translate(89.725293 495.213718) rotate(-45) scale(0.2 -0.2)">
       <defs>
        <path id="DejaVuSans-38" d="M 2034 2216 
Q 1584 2216 1326 1975 
Q 1069 1734 1069 1313 
Q 1069 891 1326 650 
Q 1584 409 2034 409 
Q 2484 409 2743 651 
Q 3003 894 3003 1313 
Q 3003 1734 2745 1975 
Q 2488 2216 2034 2216 
z
M 1403 2484 
Q 997 2584 770 2862 
Q 544 3141 544 3541 
Q 544 4100 942 4425 
Q 1341 4750 2034 4750 
Q 2731 4750 3128 4425 
Q 3525 4100 3525 3541 
Q 3525 3141 3298 2862 
Q 3072 2584 2669 2484 
Q 3125 2378 3379 2068 
Q 3634 1759 3634 1313 
Q 3634 634 3220 271 
Q 2806 -91 2034 -91 
Q 1263 -91 848 271 
Q 434 634 434 1313 
Q 434 1759 690 2068 
Q 947 2378 1403 2484 
z
M 1172 3481 
Q 1172 3119 1398 2916 
Q 1625 2713 2034 2713 
Q 2441 2713 2670 2916 
Q 2900 3119 2900 3481 
Q 2900 3844 2670 4047 
Q 2441 4250 2034 4250 
Q 1625 4250 1398 4047 
Q 1172 3844 1172 3481 
z
" transform="scale(0.015625)"/>
        <path id="DejaVuSans-36" d="M 2113 2584 
Q 1688 2584 1439 2293 
Q 1191 2003 1191 1497 
Q 1191 994 1439 701 
Q 1688 409 2113 409 
Q 2538 409 2786 701 
Q 3034 994 3034 1497 
Q 3034 2003 2786 2293 
Q 2538 2584 2113 2584 
z
M 3366 4563 
L 3366 3988 
Q 3128 4100 2886 4159 
Q 2644 4219 2406 4219 
Q 1781 4219 1451 3797 
Q 1122 3375 1075 2522 
Q 1259 2794 1537 2939 
Q 1816 3084 2150 3084 
Q 2853 3084 3261 2657 
Q 3669 2231 3669 1497 
Q 3669 778 3244 343 
Q 2819 -91 2113 -91 
Q 1303 -91 875 529 
Q 447 1150 447 2328 
Q 447 3434 972 4092 
Q 1497 4750 2381 4750 
Q 2619 4750 2861 4703 
Q 3103 4656 3366 4563 
z
" transform="scale(0.015625)"/>
       </defs>
       <use xlink:href="#DejaVuSans-32"/>
       <use xlink:href="#DejaVuSans-30" x="63.623047"/>
       <use xlink:href="#DejaVuSans-32" x="127.246094"/>
       <use xlink:href="#DejaVuSans-31" x="190.869141"/>
       <use xlink:href="#DejaVuSans-2d" x="254.492188"/>
       <use xlink:href="#DejaVuSans-30" x="290.576172"/>
       <use xlink:href="#DejaVuSans-38" x="354.199219"/>
       <use xlink:href="#DejaVuSans-2d" x="417.822266"/>
       <use xlink:href="#DejaVuSans-32" x="453.90625"/>
       <use xlink:href="#DejaVuSans-36" x="517.529297"/>
      </g>
     </g>
    </g>
    <g id="xtick_4">
     <g id="line2d_4">
      <g>
       <use xlink:href="#mdfe5252028" x="210.74406" y="395.28" style="stroke: #000000; stroke-width: 0.8"/>
      </g>
     </g>
     <g id="text_4">
      <!-- 2021-09-23 -->
      <g transform="translate(125.615032 495.213718) rotate(-45) scale(0.2 -0.2)">
       <defs>
        <path id="DejaVuSans-33" d="M 2597 2516 
Q 3050 2419 3304 2112 
Q 3559 1806 3559 1356 
Q 3559 666 3084 287 
Q 2609 -91 1734 -91 
Q 1441 -91 1130 -33 
Q 819 25 488 141 
L 488 750 
Q 750 597 1062 519 
Q 1375 441 1716 441 
Q 2309 441 2620 675 
Q 2931 909 2931 1356 
Q 2931 1769 2642 2001 
Q 2353 2234 1838 2234 
L 1294 2234 
L 1294 2753 
L 1863 2753 
Q 2328 2753 2575 2939 
Q 2822 3125 2822 3475 
Q 2822 3834 2567 4026 
Q 2313 4219 1838 4219 
Q 1578 4219 1281 4162 
Q 984 4106 628 3988 
L 628 4550 
Q 988 4650 1302 4700 
Q 1616 4750 1894 4750 
Q 2613 4750 3031 4423 
Q 3450 4097 3450 3541 
Q 3450 3153 3228 2886 
Q 3006 2619 2597 2516 
z
" transform="scale(0.015625)"/>
       </defs>
       <use xlink:href="#DejaVuSans-32"/>
       <use xlink:href="#DejaVuSans-30" x="63.623047"/>
       <use xlink:href="#DejaVuSans-32" x="127.246094"/>
       <use xlink:href="#DejaVuSans-31" x="190.869141"/>
       <use xlink:href="#DejaVuSans-2d" x="254.492188"/>
       <use xlink:href="#DejaVuSans-30" x="290.576172"/>
       <use xlink:href="#DejaVuSans-39" x="354.199219"/>
       <use xlink:href="#DejaVuSans-2d" x="417.822266"/>
       <use xlink:href="#DejaVuSans-32" x="453.90625"/>
       <use xlink:href="#DejaVuSans-33" x="517.529297"/>
      </g>
     </g>
    </g>
    <g id="xtick_5">
     <g id="line2d_5">
      <g>
       <use xlink:href="#mdfe5252028" x="246.633799" y="395.28" style="stroke: #000000; stroke-width: 0.8"/>
      </g>
     </g>
     <g id="text_5">
      <!-- 2021-10-21 -->
      <g transform="translate(161.504772 495.213718) rotate(-45) scale(0.2 -0.2)">
       <use xlink:href="#DejaVuSans-32"/>
       <use xlink:href="#DejaVuSans-30" x="63.623047"/>
       <use xlink:href="#DejaVuSans-32" x="127.246094"/>
       <use xlink:href="#DejaVuSans-31" x="190.869141"/>
       <use xlink:href="#DejaVuSans-2d" x="254.492188"/>
       <use xlink:href="#DejaVuSans-31" x="290.576172"/>
       <use xlink:href="#DejaVuSans-30" x="354.199219"/>
       <use xlink:href="#DejaVuSans-2d" x="417.822266"/>
       <use xlink:href="#DejaVuSans-32" x="453.90625"/>
       <use xlink:href="#DejaVuSans-31" x="517.529297"/>
      </g>
     </g>
    </g>
    <g id="xtick_6">
     <g id="line2d_6">
      <g>
       <use xlink:href="#mdfe5252028" x="282.523539" y="395.28" style="stroke: #000000; stroke-width: 0.8"/>
      </g>
     </g>
     <g id="text_6">
      <!-- 2021-11-18 -->
      <g transform="translate(197.394512 495.213718) rotate(-45) scale(0.2 -0.2)">
       <use xlink:href="#DejaVuSans-32"/>
       <use xlink:href="#DejaVuSans-30" x="63.623047"/>
       <use xlink:href="#DejaVuSans-32" x="127.246094"/>
       <use xlink:href="#DejaVuSans-31" x="190.869141"/>
       <use xlink:href="#DejaVuSans-2d" x="254.492188"/>
       <use xlink:href="#DejaVuSans-31" x="290.576172"/>
       <use xlink:href="#DejaVuSans-31" x="354.199219"/>
       <use xlink:href="#DejaVuSans-2d" x="417.822266"/>
       <use xlink:href="#DejaVuSans-31" x="453.90625"/>
       <use xlink:href="#DejaVuSans-38" x="517.529297"/>
      </g>
     </g>
    </g>
    <g id="xtick_7">
     <g id="line2d_7">
      <g>
       <use xlink:href="#mdfe5252028" x="318.413279" y="395.28" style="stroke: #000000; stroke-width: 0.8"/>
      </g>
     </g>
     <g id="text_7">
      <!-- 2021-12-16 -->
      <g transform="translate(233.284251 495.213718) rotate(-45) scale(0.2 -0.2)">
       <use xlink:href="#DejaVuSans-32"/>
       <use xlink:href="#DejaVuSans-30" x="63.623047"/>
       <use xlink:href="#DejaVuSans-32" x="127.246094"/>
       <use xlink:href="#DejaVuSans-31" x="190.869141"/>
       <use xlink:href="#DejaVuSans-2d" x="254.492188"/>
       <use xlink:href="#DejaVuSans-31" x="290.576172"/>
       <use xlink:href="#DejaVuSans-32" x="354.199219"/>
       <use xlink:href="#DejaVuSans-2d" x="417.822266"/>
       <use xlink:href="#DejaVuSans-31" x="453.90625"/>
       <use xlink:href="#DejaVuSans-36" x="517.529297"/>
      </g>
     </g>
    </g>
    <g id="xtick_8">
     <g id="line2d_8">
      <g>
       <use xlink:href="#mdfe5252028" x="354.303018" y="395.28" style="stroke: #000000; stroke-width: 0.8"/>
      </g>
     </g>
     <g id="text_8">
      <!-- 2022-01-13 -->
      <g transform="translate(269.173991 495.213718) rotate(-45) scale(0.2 -0.2)">
       <use xlink:href="#DejaVuSans-32"/>
       <use xlink:href="#DejaVuSans-30" x="63.623047"/>
       <use xlink:href="#DejaVuSans-32" x="127.246094"/>
       <use xlink:href="#DejaVuSans-32" x="190.869141"/>
       <use xlink:href="#DejaVuSans-2d" x="254.492188"/>
       <use xlink:href="#DejaVuSans-30" x="290.576172"/>
       <use xlink:href="#DejaVuSans-31" x="354.199219"/>
       <use xlink:href="#DejaVuSans-2d" x="417.822266"/>
       <use xlink:href="#DejaVuSans-31" x="453.90625"/>
       <use xlink:href="#DejaVuSans-33" x="517.529297"/>
      </g>
     </g>
    </g>
    <g id="xtick_9">
     <g id="line2d_9">
      <g>
       <use xlink:href="#mdfe5252028" x="390.192758" y="395.28" style="stroke: #000000; stroke-width: 0.8"/>
      </g>
     </g>
     <g id="text_9">
      <!-- 2022-02-10 -->
      <g transform="translate(305.063731 495.213718) rotate(-45) scale(0.2 -0.2)">
       <use xlink:href="#DejaVuSans-32"/>
       <use xlink:href="#DejaVuSans-30" x="63.623047"/>
       <use xlink:href="#DejaVuSans-32" x="127.246094"/>
       <use xlink:href="#DejaVuSans-32" x="190.869141"/>
       <use xlink:href="#DejaVuSans-2d" x="254.492188"/>
       <use xlink:href="#DejaVuSans-30" x="290.576172"/>
       <use xlink:href="#DejaVuSans-32" x="354.199219"/>
       <use xlink:href="#DejaVuSans-2d" x="417.822266"/>
       <use xlink:href="#DejaVuSans-31" x="453.90625"/>
       <use xlink:href="#DejaVuSans-30" x="517.529297"/>
      </g>
     </g>
    </g>
    <g id="xtick_10">
     <g id="line2d_10">
      <g>
       <use xlink:href="#mdfe5252028" x="426.082498" y="395.28" style="stroke: #000000; stroke-width: 0.8"/>
      </g>
     </g>
     <g id="text_10">
      <!-- 2022-03-10 -->
      <g transform="translate(340.95347 495.213718) rotate(-45) scale(0.2 -0.2)">
       <use xlink:href="#DejaVuSans-32"/>
       <use xlink:href="#DejaVuSans-30" x="63.623047"/>
       <use xlink:href="#DejaVuSans-32" x="127.246094"/>
       <use xlink:href="#DejaVuSans-32" x="190.869141"/>
       <use xlink:href="#DejaVuSans-2d" x="254.492188"/>
       <use xlink:href="#DejaVuSans-30" x="290.576172"/>
       <use xlink:href="#DejaVuSans-33" x="354.199219"/>
       <use xlink:href="#DejaVuSans-2d" x="417.822266"/>
       <use xlink:href="#DejaVuSans-31" x="453.90625"/>
       <use xlink:href="#DejaVuSans-30" x="517.529297"/>
      </g>
     </g>
    </g>
    <g id="xtick_11">
     <g id="line2d_11">
      <g>
       <use xlink:href="#mdfe5252028" x="461.972237" y="395.28" style="stroke: #000000; stroke-width: 0.8"/>
      </g>
     </g>
     <g id="text_11">
      <!-- 2022-04-07 -->
      <g transform="translate(376.84321 495.213718) rotate(-45) scale(0.2 -0.2)">
       <defs>
        <path id="DejaVuSans-34" d="M 2419 4116 
L 825 1625 
L 2419 1625 
L 2419 4116 
z
M 2253 4666 
L 3047 4666 
L 3047 1625 
L 3713 1625 
L 3713 1100 
L 3047 1100 
L 3047 0 
L 2419 0 
L 2419 1100 
L 313 1100 
L 313 1709 
L 2253 4666 
z
" transform="scale(0.015625)"/>
       </defs>
       <use xlink:href="#DejaVuSans-32"/>
       <use xlink:href="#DejaVuSans-30" x="63.623047"/>
       <use xlink:href="#DejaVuSans-32" x="127.246094"/>
       <use xlink:href="#DejaVuSans-32" x="190.869141"/>
       <use xlink:href="#DejaVuSans-2d" x="254.492188"/>
       <use xlink:href="#DejaVuSans-30" x="290.576172"/>
       <use xlink:href="#DejaVuSans-34" x="354.199219"/>
       <use xlink:href="#DejaVuSans-2d" x="417.822266"/>
       <use xlink:href="#DejaVuSans-30" x="453.90625"/>
       <use xlink:href="#DejaVuSans-37" x="517.529297"/>
      </g>
     </g>
    </g>
    <g id="xtick_12">
     <g id="line2d_12">
      <g>
       <use xlink:href="#mdfe5252028" x="497.861977" y="395.28" style="stroke: #000000; stroke-width: 0.8"/>
      </g>
     </g>
     <g id="text_12">
      <!-- 2022-05-05 -->
      <g transform="translate(412.73295 495.213718) rotate(-45) scale(0.2 -0.2)">
       <defs>
        <path id="DejaVuSans-35" d="M 691 4666 
L 3169 4666 
L 3169 4134 
L 1269 4134 
L 1269 2991 
Q 1406 3038 1543 3061 
Q 1681 3084 1819 3084 
Q 2600 3084 3056 2656 
Q 3513 2228 3513 1497 
Q 3513 744 3044 326 
Q 2575 -91 1722 -91 
Q 1428 -91 1123 -41 
Q 819 9 494 109 
L 494 744 
Q 775 591 1075 516 
Q 1375 441 1709 441 
Q 2250 441 2565 725 
Q 2881 1009 2881 1497 
Q 2881 1984 2565 2268 
Q 2250 2553 1709 2553 
Q 1456 2553 1204 2497 
Q 953 2441 691 2322 
L 691 4666 
z
" transform="scale(0.015625)"/>
       </defs>
       <use xlink:href="#DejaVuSans-32"/>
       <use xlink:href="#DejaVuSans-30" x="63.623047"/>
       <use xlink:href="#DejaVuSans-32" x="127.246094"/>
       <use xlink:href="#DejaVuSans-32" x="190.869141"/>
       <use xlink:href="#DejaVuSans-2d" x="254.492188"/>
       <use xlink:href="#DejaVuSans-30" x="290.576172"/>
       <use xlink:href="#DejaVuSans-35" x="354.199219"/>
       <use xlink:href="#DejaVuSans-2d" x="417.822266"/>
       <use xlink:href="#DejaVuSans-30" x="453.90625"/>
       <use xlink:href="#DejaVuSans-35" x="517.529297"/>
      </g>
     </g>
    </g>
    <g id="xtick_13">
     <g id="line2d_13">
      <g>
       <use xlink:href="#mdfe5252028" x="533.751717" y="395.28" style="stroke: #000000; stroke-width: 0.8"/>
      </g>
     </g>
     <g id="text_13">
      <!-- 2022-06-02 -->
      <g transform="translate(448.622689 495.213718) rotate(-45) scale(0.2 -0.2)">
       <use xlink:href="#DejaVuSans-32"/>
       <use xlink:href="#DejaVuSans-30" x="63.623047"/>
       <use xlink:href="#DejaVuSans-32" x="127.246094"/>
       <use xlink:href="#DejaVuSans-32" x="190.869141"/>
       <use xlink:href="#DejaVuSans-2d" x="254.492188"/>
       <use xlink:href="#DejaVuSans-30" x="290.576172"/>
       <use xlink:href="#DejaVuSans-36" x="354.199219"/>
       <use xlink:href="#DejaVuSans-2d" x="417.822266"/>
       <use xlink:href="#DejaVuSans-30" x="453.90625"/>
       <use xlink:href="#DejaVuSans-32" x="517.529297"/>
      </g>
     </g>
    </g>
    <g id="xtick_14">
     <g id="line2d_14">
      <g>
       <use xlink:href="#mdfe5252028" x="569.641456" y="395.28" style="stroke: #000000; stroke-width: 0.8"/>
      </g>
     </g>
     <g id="text_14">
      <!-- 2022-06-30 -->
      <g transform="translate(484.512429 495.213718) rotate(-45) scale(0.2 -0.2)">
       <use xlink:href="#DejaVuSans-32"/>
       <use xlink:href="#DejaVuSans-30" x="63.623047"/>
       <use xlink:href="#DejaVuSans-32" x="127.246094"/>
       <use xlink:href="#DejaVuSans-32" x="190.869141"/>
       <use xlink:href="#DejaVuSans-2d" x="254.492188"/>
       <use xlink:href="#DejaVuSans-30" x="290.576172"/>
       <use xlink:href="#DejaVuSans-36" x="354.199219"/>
       <use xlink:href="#DejaVuSans-2d" x="417.822266"/>
       <use xlink:href="#DejaVuSans-33" x="453.90625"/>
       <use xlink:href="#DejaVuSans-30" x="517.529297"/>
      </g>
     </g>
    </g>
    <g id="xtick_15">
     <g id="line2d_15">
      <g>
       <use xlink:href="#mdfe5252028" x="605.531196" y="395.28" style="stroke: #000000; stroke-width: 0.8"/>
      </g>
     </g>
     <g id="text_15">
      <!-- 2022-07-28 -->
      <g transform="translate(520.402169 495.213718) rotate(-45) scale(0.2 -0.2)">
       <use xlink:href="#DejaVuSans-32"/>
       <use xlink:href="#DejaVuSans-30" x="63.623047"/>
       <use xlink:href="#DejaVuSans-32" x="127.246094"/>
       <use xlink:href="#DejaVuSans-32" x="190.869141"/>
       <use xlink:href="#DejaVuSans-2d" x="254.492188"/>
       <use xlink:href="#DejaVuSans-30" x="290.576172"/>
       <use xlink:href="#DejaVuSans-37" x="354.199219"/>
       <use xlink:href="#DejaVuSans-2d" x="417.822266"/>
       <use xlink:href="#DejaVuSans-32" x="453.90625"/>
       <use xlink:href="#DejaVuSans-38" x="517.529297"/>
      </g>
     </g>
    </g>
    <g id="xtick_16">
     <g id="line2d_16">
      <g>
       <use xlink:href="#mdfe5252028" x="641.420936" y="395.28" style="stroke: #000000; stroke-width: 0.8"/>
      </g>
     </g>
     <g id="text_16">
      <!-- 2022-08-25 -->
      <g transform="translate(556.291908 495.213718) rotate(-45) scale(0.2 -0.2)">
       <use xlink:href="#DejaVuSans-32"/>
       <use xlink:href="#DejaVuSans-30" x="63.623047"/>
       <use xlink:href="#DejaVuSans-32" x="127.246094"/>
       <use xlink:href="#DejaVuSans-32" x="190.869141"/>
       <use xlink:href="#DejaVuSans-2d" x="254.492188"/>
       <use xlink:href="#DejaVuSans-30" x="290.576172"/>
       <use xlink:href="#DejaVuSans-38" x="354.199219"/>
       <use xlink:href="#DejaVuSans-2d" x="417.822266"/>
       <use xlink:href="#DejaVuSans-32" x="453.90625"/>
       <use xlink:href="#DejaVuSans-35" x="517.529297"/>
      </g>
     </g>
    </g>
    <g id="xtick_17">
     <g id="line2d_17">
      <g>
       <use xlink:href="#mdfe5252028" x="677.310675" y="395.28" style="stroke: #000000; stroke-width: 0.8"/>
      </g>
     </g>
     <g id="text_17">
      <!-- 2022-09-22 -->
      <g transform="translate(592.181648 495.213718) rotate(-45) scale(0.2 -0.2)">
       <use xlink:href="#DejaVuSans-32"/>
       <use xlink:href="#DejaVuSans-30" x="63.623047"/>
       <use xlink:href="#DejaVuSans-32" x="127.246094"/>
       <use xlink:href="#DejaVuSans-32" x="190.869141"/>
       <use xlink:href="#DejaVuSans-2d" x="254.492188"/>
       <use xlink:href="#DejaVuSans-30" x="290.576172"/>
       <use xlink:href="#DejaVuSans-39" x="354.199219"/>
       <use xlink:href="#DejaVuSans-2d" x="417.822266"/>
       <use xlink:href="#DejaVuSans-32" x="453.90625"/>
       <use xlink:href="#DejaVuSans-32" x="517.529297"/>
      </g>
     </g>
    </g>
    <g id="xtick_18">
     <g id="line2d_18">
      <g>
       <use xlink:href="#mdfe5252028" x="713.200415" y="395.28" style="stroke: #000000; stroke-width: 0.8"/>
      </g>
     </g>
     <g id="text_18">
      <!-- 2022-10-20 -->
      <g transform="translate(628.071388 495.213718) rotate(-45) scale(0.2 -0.2)">
       <use xlink:href="#DejaVuSans-32"/>
       <use xlink:href="#DejaVuSans-30" x="63.623047"/>
       <use xlink:href="#DejaVuSans-32" x="127.246094"/>
       <use xlink:href="#DejaVuSans-32" x="190.869141"/>
       <use xlink:href="#DejaVuSans-2d" x="254.492188"/>
       <use xlink:href="#DejaVuSans-31" x="290.576172"/>
       <use xlink:href="#DejaVuSans-30" x="354.199219"/>
       <use xlink:href="#DejaVuSans-2d" x="417.822266"/>
       <use xlink:href="#DejaVuSans-32" x="453.90625"/>
       <use xlink:href="#DejaVuSans-30" x="517.529297"/>
      </g>
     </g>
    </g>
    <g id="xtick_19">
     <g id="line2d_19">
      <g>
       <use xlink:href="#mdfe5252028" x="749.090155" y="395.28" style="stroke: #000000; stroke-width: 0.8"/>
      </g>
     </g>
     <g id="text_19">
      <!-- 2022-11-17 -->
      <g transform="translate(663.961127 495.213718) rotate(-45) scale(0.2 -0.2)">
       <use xlink:href="#DejaVuSans-32"/>
       <use xlink:href="#DejaVuSans-30" x="63.623047"/>
       <use xlink:href="#DejaVuSans-32" x="127.246094"/>
       <use xlink:href="#DejaVuSans-32" x="190.869141"/>
       <use xlink:href="#DejaVuSans-2d" x="254.492188"/>
       <use xlink:href="#DejaVuSans-31" x="290.576172"/>
       <use xlink:href="#DejaVuSans-31" x="354.199219"/>
       <use xlink:href="#DejaVuSans-2d" x="417.822266"/>
       <use xlink:href="#DejaVuSans-31" x="453.90625"/>
       <use xlink:href="#DejaVuSans-37" x="517.529297"/>
      </g>
     </g>
    </g>
    <g id="xtick_20">
     <g id="line2d_20">
      <g>
       <use xlink:href="#mdfe5252028" x="784.979894" y="395.28" style="stroke: #000000; stroke-width: 0.8"/>
      </g>
     </g>
     <g id="text_20">
      <!-- 2022-12-15 -->
      <g transform="translate(699.850867 495.213718) rotate(-45) scale(0.2 -0.2)">
       <use xlink:href="#DejaVuSans-32"/>
       <use xlink:href="#DejaVuSans-30" x="63.623047"/>
       <use xlink:href="#DejaVuSans-32" x="127.246094"/>
       <use xlink:href="#DejaVuSans-32" x="190.869141"/>
       <use xlink:href="#DejaVuSans-2d" x="254.492188"/>
       <use xlink:href="#DejaVuSans-31" x="290.576172"/>
       <use xlink:href="#DejaVuSans-32" x="354.199219"/>
       <use xlink:href="#DejaVuSans-2d" x="417.822266"/>
       <use xlink:href="#DejaVuSans-31" x="453.90625"/>
       <use xlink:href="#DejaVuSans-35" x="517.529297"/>
      </g>
     </g>
    </g>
    <g id="xtick_21">
     <g id="line2d_21">
      <g>
       <use xlink:href="#mdfe5252028" x="820.869634" y="395.28" style="stroke: #000000; stroke-width: 0.8"/>
      </g>
     </g>
     <g id="text_21">
      <!-- 2023-01-12 -->
      <g transform="translate(735.740607 495.213718) rotate(-45) scale(0.2 -0.2)">
       <use xlink:href="#DejaVuSans-32"/>
       <use xlink:href="#DejaVuSans-30" x="63.623047"/>
       <use xlink:href="#DejaVuSans-32" x="127.246094"/>
       <use xlink:href="#DejaVuSans-33" x="190.869141"/>
       <use xlink:href="#DejaVuSans-2d" x="254.492188"/>
       <use xlink:href="#DejaVuSans-30" x="290.576172"/>
       <use xlink:href="#DejaVuSans-31" x="354.199219"/>
       <use xlink:href="#DejaVuSans-2d" x="417.822266"/>
       <use xlink:href="#DejaVuSans-31" x="453.90625"/>
       <use xlink:href="#DejaVuSans-32" x="517.529297"/>
      </g>
     </g>
    </g>
    <g id="xtick_22">
     <g id="line2d_22">
      <g>
       <use xlink:href="#mdfe5252028" x="856.759374" y="395.28" style="stroke: #000000; stroke-width: 0.8"/>
      </g>
     </g>
     <g id="text_22">
      <!-- 2023-02-09 -->
      <g transform="translate(771.630346 495.213718) rotate(-45) scale(0.2 -0.2)">
       <use xlink:href="#DejaVuSans-32"/>
       <use xlink:href="#DejaVuSans-30" x="63.623047"/>
       <use xlink:href="#DejaVuSans-32" x="127.246094"/>
       <use xlink:href="#DejaVuSans-33" x="190.869141"/>
       <use xlink:href="#DejaVuSans-2d" x="254.492188"/>
       <use xlink:href="#DejaVuSans-30" x="290.576172"/>
       <use xlink:href="#DejaVuSans-32" x="354.199219"/>
       <use xlink:href="#DejaVuSans-2d" x="417.822266"/>
       <use xlink:href="#DejaVuSans-30" x="453.90625"/>
       <use xlink:href="#DejaVuSans-39" x="517.529297"/>
      </g>
     </g>
    </g>
    <g id="xtick_23">
     <g id="line2d_23">
      <g>
       <use xlink:href="#mdfe5252028" x="892.649113" y="395.28" style="stroke: #000000; stroke-width: 0.8"/>
      </g>
     </g>
     <g id="text_23">
      <!-- 2023-03-09 -->
      <g transform="translate(807.520086 495.213718) rotate(-45) scale(0.2 -0.2)">
       <use xlink:href="#DejaVuSans-32"/>
       <use xlink:href="#DejaVuSans-30" x="63.623047"/>
       <use xlink:href="#DejaVuSans-32" x="127.246094"/>
       <use xlink:href="#DejaVuSans-33" x="190.869141"/>
       <use xlink:href="#DejaVuSans-2d" x="254.492188"/>
       <use xlink:href="#DejaVuSans-30" x="290.576172"/>
       <use xlink:href="#DejaVuSans-33" x="354.199219"/>
       <use xlink:href="#DejaVuSans-2d" x="417.822266"/>
       <use xlink:href="#DejaVuSans-30" x="453.90625"/>
       <use xlink:href="#DejaVuSans-39" x="517.529297"/>
      </g>
     </g>
    </g>
    <g id="xtick_24">
     <g id="line2d_24">
      <g>
       <use xlink:href="#mdfe5252028" x="928.538853" y="395.28" style="stroke: #000000; stroke-width: 0.8"/>
      </g>
     </g>
     <g id="text_24">
      <!-- 2023-04-06 -->
      <g transform="translate(843.409826 495.213718) rotate(-45) scale(0.2 -0.2)">
       <use xlink:href="#DejaVuSans-32"/>
       <use xlink:href="#DejaVuSans-30" x="63.623047"/>
       <use xlink:href="#DejaVuSans-32" x="127.246094"/>
       <use xlink:href="#DejaVuSans-33" x="190.869141"/>
       <use xlink:href="#DejaVuSans-2d" x="254.492188"/>
       <use xlink:href="#DejaVuSans-30" x="290.576172"/>
       <use xlink:href="#DejaVuSans-34" x="354.199219"/>
       <use xlink:href="#DejaVuSans-2d" x="417.822266"/>
       <use xlink:href="#DejaVuSans-30" x="453.90625"/>
       <use xlink:href="#DejaVuSans-36" x="517.529297"/>
      </g>
     </g>
    </g>
    <g id="xtick_25">
     <g id="line2d_25">
      <g>
       <use xlink:href="#mdfe5252028" x="940.074841" y="395.28" style="stroke: #000000; stroke-width: 0.8"/>
      </g>
     </g>
     <g id="text_25">
      <!-- 2023-04-15 -->
      <g transform="translate(854.945813 495.213718) rotate(-45) scale(0.2 -0.2)">
       <use xlink:href="#DejaVuSans-32"/>
       <use xlink:href="#DejaVuSans-30" x="63.623047"/>
       <use xlink:href="#DejaVuSans-32" x="127.246094"/>
       <use xlink:href="#DejaVuSans-33" x="190.869141"/>
       <use xlink:href="#DejaVuSans-2d" x="254.492188"/>
       <use xlink:href="#DejaVuSans-30" x="290.576172"/>
       <use xlink:href="#DejaVuSans-34" x="354.199219"/>
       <use xlink:href="#DejaVuSans-2d" x="417.822266"/>
       <use xlink:href="#DejaVuSans-31" x="453.90625"/>
       <use xlink:href="#DejaVuSans-35" x="517.529297"/>
      </g>
     </g>
    </g>
   </g>
   <g id="matplotlib.axis_2">
    <g id="ytick_1">
     <g id="line2d_26">
      <defs>
       <path id="md739099870" d="M 0 0 
L -3.5 0 
" style="stroke: #000000; stroke-width: 0.8"/>
      </defs>
      <g>
       <use xlink:href="#md739099870" x="103.074841" y="388.328761" style="stroke: #000000; stroke-width: 0.8"/>
      </g>
     </g>
     <g id="text_26">
      <!-- 0.05 -->
      <g transform="translate(34.784216 395.927199) scale(0.2 -0.2)">
       <defs>
        <path id="DejaVuSans-2212" d="M 678 2272 
L 4684 2272 
L 4684 1741 
L 678 1741 
L 678 2272 
z
" transform="scale(0.015625)"/>
        <path id="DejaVuSans-2e" d="M 684 794 
L 1344 794 
L 1344 0 
L 684 0 
L 684 794 
z
" transform="scale(0.015625)"/>
       </defs>
       <use xlink:href="#DejaVuSans-2212"/>
       <use xlink:href="#DejaVuSans-30" x="83.789062"/>
       <use xlink:href="#DejaVuSans-2e" x="147.412109"/>
       <use xlink:href="#DejaVuSans-30" x="179.199219"/>
       <use xlink:href="#DejaVuSans-35" x="242.822266"/>
      </g>
     </g>
    </g>
    <g id="ytick_2">
     <g id="line2d_27">
      <g>
       <use xlink:href="#md739099870" x="103.074841" y="318.816374" style="stroke: #000000; stroke-width: 0.8"/>
      </g>
     </g>
     <g id="text_27">
      <!-- 0.00 -->
      <g transform="translate(51.543591 326.414812) scale(0.2 -0.2)">
       <use xlink:href="#DejaVuSans-30"/>
       <use xlink:href="#DejaVuSans-2e" x="63.623047"/>
       <use xlink:href="#DejaVuSans-30" x="95.410156"/>
       <use xlink:href="#DejaVuSans-30" x="159.033203"/>
      </g>
     </g>
    </g>
    <g id="ytick_3">
     <g id="line2d_28">
      <g>
       <use xlink:href="#md739099870" x="103.074841" y="249.303987" style="stroke: #000000; stroke-width: 0.8"/>
      </g>
     </g>
     <g id="text_28">
      <!-- 0.05 -->
      <g transform="translate(51.543591 256.902425) scale(0.2 -0.2)">
       <use xlink:href="#DejaVuSans-30"/>
       <use xlink:href="#DejaVuSans-2e" x="63.623047"/>
       <use xlink:href="#DejaVuSans-30" x="95.410156"/>
       <use xlink:href="#DejaVuSans-35" x="159.033203"/>
      </g>
     </g>
    </g>
    <g id="ytick_4">
     <g id="line2d_29">
      <g>
       <use xlink:href="#md739099870" x="103.074841" y="179.7916" style="stroke: #000000; stroke-width: 0.8"/>
      </g>
     </g>
     <g id="text_29">
      <!-- 0.10 -->
      <g transform="translate(51.543591 187.390038) scale(0.2 -0.2)">
       <use xlink:href="#DejaVuSans-30"/>
       <use xlink:href="#DejaVuSans-2e" x="63.623047"/>
       <use xlink:href="#DejaVuSans-31" x="95.410156"/>
       <use xlink:href="#DejaVuSans-30" x="159.033203"/>
      </g>
     </g>
    </g>
    <g id="ytick_5">
     <g id="line2d_30">
      <g>
       <use xlink:href="#md739099870" x="103.074841" y="110.279213" style="stroke: #000000; stroke-width: 0.8"/>
      </g>
     </g>
     <g id="text_30">
      <!-- 0.15 -->
      <g transform="translate(51.543591 117.877651) scale(0.2 -0.2)">
       <use xlink:href="#DejaVuSans-30"/>
       <use xlink:href="#DejaVuSans-2e" x="63.623047"/>
       <use xlink:href="#DejaVuSans-31" x="95.410156"/>
       <use xlink:href="#DejaVuSans-35" x="159.033203"/>
      </g>
     </g>
    </g>
    <g id="ytick_6">
     <g id="line2d_31">
      <g>
       <use xlink:href="#md739099870" x="103.074841" y="40.766826" style="stroke: #000000; stroke-width: 0.8"/>
      </g>
     </g>
     <g id="text_31">
      <!-- 0.20 -->
      <g transform="translate(51.543591 48.365264) scale(0.2 -0.2)">
       <use xlink:href="#DejaVuSans-30"/>
       <use xlink:href="#DejaVuSans-2e" x="63.623047"/>
       <use xlink:href="#DejaVuSans-32" x="95.410156"/>
       <use xlink:href="#DejaVuSans-30" x="159.033203"/>
      </g>
     </g>
    </g>
    <g id="text_32">
     <!-- Relative fitness $\gamma_y$ -->
     <g transform="translate(24.584216 291.84) rotate(-90) scale(0.2 -0.2)">
      <defs>
       <path id="DejaVuSans-52" d="M 2841 2188 
Q 3044 2119 3236 1894 
Q 3428 1669 3622 1275 
L 4263 0 
L 3584 0 
L 2988 1197 
Q 2756 1666 2539 1819 
Q 2322 1972 1947 1972 
L 1259 1972 
L 1259 0 
L 628 0 
L 628 4666 
L 2053 4666 
Q 2853 4666 3247 4331 
Q 3641 3997 3641 3322 
Q 3641 2881 3436 2590 
Q 3231 2300 2841 2188 
z
M 1259 4147 
L 1259 2491 
L 2053 2491 
Q 2509 2491 2742 2702 
Q 2975 2913 2975 3322 
Q 2975 3731 2742 3939 
Q 2509 4147 2053 4147 
L 1259 4147 
z
" transform="scale(0.015625)"/>
       <path id="DejaVuSans-65" d="M 3597 1894 
L 3597 1613 
L 953 1613 
Q 991 1019 1311 708 
Q 1631 397 2203 397 
Q 2534 397 2845 478 
Q 3156 559 3463 722 
L 3463 178 
Q 3153 47 2828 -22 
Q 2503 -91 2169 -91 
Q 1331 -91 842 396 
Q 353 884 353 1716 
Q 353 2575 817 3079 
Q 1281 3584 2069 3584 
Q 2775 3584 3186 3129 
Q 3597 2675 3597 1894 
z
M 3022 2063 
Q 3016 2534 2758 2815 
Q 2500 3097 2075 3097 
Q 1594 3097 1305 2825 
Q 1016 2553 972 2059 
L 3022 2063 
z
" transform="scale(0.015625)"/>
       <path id="DejaVuSans-6c" d="M 603 4863 
L 1178 4863 
L 1178 0 
L 603 0 
L 603 4863 
z
" transform="scale(0.015625)"/>
       <path id="DejaVuSans-61" d="M 2194 1759 
Q 1497 1759 1228 1600 
Q 959 1441 959 1056 
Q 959 750 1161 570 
Q 1363 391 1709 391 
Q 2188 391 2477 730 
Q 2766 1069 2766 1631 
L 2766 1759 
L 2194 1759 
z
M 3341 1997 
L 3341 0 
L 2766 0 
L 2766 531 
Q 2569 213 2275 61 
Q 1981 -91 1556 -91 
Q 1019 -91 701 211 
Q 384 513 384 1019 
Q 384 1609 779 1909 
Q 1175 2209 1959 2209 
L 2766 2209 
L 2766 2266 
Q 2766 2663 2505 2880 
Q 2244 3097 1772 3097 
Q 1472 3097 1187 3025 
Q 903 2953 641 2809 
L 641 3341 
Q 956 3463 1253 3523 
Q 1550 3584 1831 3584 
Q 2591 3584 2966 3190 
Q 3341 2797 3341 1997 
z
" transform="scale(0.015625)"/>
       <path id="DejaVuSans-74" d="M 1172 4494 
L 1172 3500 
L 2356 3500 
L 2356 3053 
L 1172 3053 
L 1172 1153 
Q 1172 725 1289 603 
Q 1406 481 1766 481 
L 2356 481 
L 2356 0 
L 1766 0 
Q 1100 0 847 248 
Q 594 497 594 1153 
L 594 3053 
L 172 3053 
L 172 3500 
L 594 3500 
L 594 4494 
L 1172 4494 
z
" transform="scale(0.015625)"/>
       <path id="DejaVuSans-69" d="M 603 3500 
L 1178 3500 
L 1178 0 
L 603 0 
L 603 3500 
z
M 603 4863 
L 1178 4863 
L 1178 4134 
L 603 4134 
L 603 4863 
z
" transform="scale(0.015625)"/>
       <path id="DejaVuSans-76" d="M 191 3500 
L 800 3500 
L 1894 563 
L 2988 3500 
L 3597 3500 
L 2284 0 
L 1503 0 
L 191 3500 
z
" transform="scale(0.015625)"/>
       <path id="DejaVuSans-20" transform="scale(0.015625)"/>
       <path id="DejaVuSans-66" d="M 2375 4863 
L 2375 4384 
L 1825 4384 
Q 1516 4384 1395 4259 
Q 1275 4134 1275 3809 
L 1275 3500 
L 2222 3500 
L 2222 3053 
L 1275 3053 
L 1275 0 
L 697 0 
L 697 3053 
L 147 3053 
L 147 3500 
L 697 3500 
L 697 3744 
Q 697 4328 969 4595 
Q 1241 4863 1831 4863 
L 2375 4863 
z
" transform="scale(0.015625)"/>
       <path id="DejaVuSans-6e" d="M 3513 2113 
L 3513 0 
L 2938 0 
L 2938 2094 
Q 2938 2591 2744 2837 
Q 2550 3084 2163 3084 
Q 1697 3084 1428 2787 
Q 1159 2491 1159 1978 
L 1159 0 
L 581 0 
L 581 3500 
L 1159 3500 
L 1159 2956 
Q 1366 3272 1645 3428 
Q 1925 3584 2291 3584 
Q 2894 3584 3203 3211 
Q 3513 2838 3513 2113 
z
" transform="scale(0.015625)"/>
       <path id="DejaVuSans-73" d="M 2834 3397 
L 2834 2853 
Q 2591 2978 2328 3040 
Q 2066 3103 1784 3103 
Q 1356 3103 1142 2972 
Q 928 2841 928 2578 
Q 928 2378 1081 2264 
Q 1234 2150 1697 2047 
L 1894 2003 
Q 2506 1872 2764 1633 
Q 3022 1394 3022 966 
Q 3022 478 2636 193 
Q 2250 -91 1575 -91 
Q 1294 -91 989 -36 
Q 684 19 347 128 
L 347 722 
Q 666 556 975 473 
Q 1284 391 1588 391 
Q 1994 391 2212 530 
Q 2431 669 2431 922 
Q 2431 1156 2273 1281 
Q 2116 1406 1581 1522 
L 1381 1569 
Q 847 1681 609 1914 
Q 372 2147 372 2553 
Q 372 3047 722 3315 
Q 1072 3584 1716 3584 
Q 2034 3584 2315 3537 
Q 2597 3491 2834 3397 
z
" transform="scale(0.015625)"/>
       <path id="DejaVuSans-Oblique-3b3" d="M 1491 2950 
L 1838 788 
L 3456 3500 
L 4066 3500 
L 1972 0 
L 1713 -1331 
L 1138 -1331 
L 1397 0 
L 988 2613 
Q 925 3006 628 3006 
L 475 3006 
L 569 3500 
L 788 3500 
Q 1403 3500 1491 2950 
z
" transform="scale(0.015625)"/>
       <path id="DejaVuSans-Oblique-79" d="M 1588 -325 
Q 1188 -997 936 -1164 
Q 684 -1331 294 -1331 
L -159 -1331 
L -63 -850 
L 269 -850 
Q 509 -850 678 -719 
Q 847 -588 1056 -206 
L 1234 128 
L 459 3500 
L 1069 3500 
L 1650 819 
L 3256 3500 
L 3859 3500 
L 1588 -325 
z
" transform="scale(0.015625)"/>
      </defs>
      <use xlink:href="#DejaVuSans-52" transform="translate(0 0.015625)"/>
      <use xlink:href="#DejaVuSans-65" transform="translate(69.482422 0.015625)"/>
      <use xlink:href="#DejaVuSans-6c" transform="translate(131.005859 0.015625)"/>
      <use xlink:href="#DejaVuSans-61" transform="translate(158.789062 0.015625)"/>
      <use xlink:href="#DejaVuSans-74" transform="translate(220.068359 0.015625)"/>
      <use xlink:href="#DejaVuSans-69" transform="translate(259.277344 0.015625)"/>
      <use xlink:href="#DejaVuSans-76" transform="translate(287.060547 0.015625)"/>
      <use xlink:href="#DejaVuSans-65" transform="translate(346.240234 0.015625)"/>
      <use xlink:href="#DejaVuSans-20" transform="translate(407.763672 0.015625)"/>
      <use xlink:href="#DejaVuSans-66" transform="translate(439.550781 0.015625)"/>
      <use xlink:href="#DejaVuSans-69" transform="translate(474.755859 0.015625)"/>
      <use xlink:href="#DejaVuSans-74" transform="translate(502.539062 0.015625)"/>
      <use xlink:href="#DejaVuSans-6e" transform="translate(541.748047 0.015625)"/>
      <use xlink:href="#DejaVuSans-65" transform="translate(605.126953 0.015625)"/>
      <use xlink:href="#DejaVuSans-73" transform="translate(666.650391 0.015625)"/>
      <use xlink:href="#DejaVuSans-73" transform="translate(718.75 0.015625)"/>
      <use xlink:href="#DejaVuSans-20" transform="translate(770.849609 0.015625)"/>
      <use xlink:href="#DejaVuSans-Oblique-3b3" transform="translate(802.636719 0.015625)"/>
      <use xlink:href="#DejaVuSans-Oblique-79" transform="translate(861.816406 -16.390625) scale(0.7)"/>
     </g>
    </g>
   </g>
   <g id="line2d_32">
    <path d="M 103.074841 318.816374 
L 1041.965466 318.816374 
" clip-path="url(#p485188c30c)" style="fill: none; stroke-dasharray: 7.4,3.2; stroke-dashoffset: 0; stroke: #000000; stroke-width: 2"/>
   </g>
   <g id="patch_3">
    <path d="M 103.074841 395.28 
L 103.074841 7.2 
" style="fill: none; stroke: #000000; stroke-width: 0.8; stroke-linejoin: miter; stroke-linecap: square"/>
   </g>
   <g id="patch_4">
    <path d="M 940.074841 395.28 
L 940.074841 7.2 
" style="fill: none; stroke: #000000; stroke-width: 0.8; stroke-linejoin: miter; stroke-linecap: square"/>
   </g>
   <g id="patch_5">
    <path d="M 103.074841 395.28 
L 940.074841 395.28 
" style="fill: none; stroke: #000000; stroke-width: 0.8; stroke-linejoin: miter; stroke-linecap: square"/>
   </g>
   <g id="patch_6">
    <path d="M 103.074841 7.2 
L 940.074841 7.2 
" style="fill: none; stroke: #000000; stroke-width: 0.8; stroke-linejoin: miter; stroke-linecap: square"/>
   </g>
  </g>
  <g id="axes_2">
   <g id="matplotlib.axis_3">
    <g id="ytick_7">
     <g id="line2d_33">
      <defs>
       <path id="m0bfd76006f" d="M 0 0 
L 3.5 0 
" style="stroke: #000000; stroke-width: 0.8"/>
      </defs>
      <g>
       <use xlink:href="#m0bfd76006f" x="940.074841" y="388.328761" style="stroke: #000000; stroke-width: 0.8"/>
      </g>
     </g>
     <g id="text_33">
      <!-- 0.05 -->
      <g transform="translate(947.074841 395.927199) scale(0.2 -0.2)">
       <use xlink:href="#DejaVuSans-2212"/>
       <use xlink:href="#DejaVuSans-30" x="83.789062"/>
       <use xlink:href="#DejaVuSans-2e" x="147.412109"/>
       <use xlink:href="#DejaVuSans-30" x="179.199219"/>
       <use xlink:href="#DejaVuSans-35" x="242.822266"/>
      </g>
     </g>
    </g>
    <g id="ytick_8">
     <g id="line2d_34">
      <g>
       <use xlink:href="#m0bfd76006f" x="940.074841" y="318.816374" style="stroke: #000000; stroke-width: 0.8"/>
      </g>
     </g>
     <g id="text_34">
      <!-- 0.00 -->
      <g transform="translate(947.074841 326.414812) scale(0.2 -0.2)">
       <use xlink:href="#DejaVuSans-30"/>
       <use xlink:href="#DejaVuSans-2e" x="63.623047"/>
       <use xlink:href="#DejaVuSans-30" x="95.410156"/>
       <use xlink:href="#DejaVuSans-30" x="159.033203"/>
      </g>
     </g>
    </g>
    <g id="ytick_9">
     <g id="line2d_35">
      <g>
       <use xlink:href="#m0bfd76006f" x="940.074841" y="249.303987" style="stroke: #000000; stroke-width: 0.8"/>
      </g>
     </g>
     <g id="text_35">
      <!-- 0.05 -->
      <g transform="translate(947.074841 256.902425) scale(0.2 -0.2)">
       <use xlink:href="#DejaVuSans-30"/>
       <use xlink:href="#DejaVuSans-2e" x="63.623047"/>
       <use xlink:href="#DejaVuSans-30" x="95.410156"/>
       <use xlink:href="#DejaVuSans-35" x="159.033203"/>
      </g>
     </g>
    </g>
    <g id="ytick_10">
     <g id="line2d_36">
      <g>
       <use xlink:href="#m0bfd76006f" x="940.074841" y="179.7916" style="stroke: #000000; stroke-width: 0.8"/>
      </g>
     </g>
     <g id="text_36">
      <!-- 0.10 -->
      <g transform="translate(947.074841 187.390038) scale(0.2 -0.2)">
       <use xlink:href="#DejaVuSans-30"/>
       <use xlink:href="#DejaVuSans-2e" x="63.623047"/>
       <use xlink:href="#DejaVuSans-31" x="95.410156"/>
       <use xlink:href="#DejaVuSans-30" x="159.033203"/>
      </g>
     </g>
    </g>
    <g id="ytick_11">
     <g id="line2d_37">
      <g>
       <use xlink:href="#m0bfd76006f" x="940.074841" y="110.279213" style="stroke: #000000; stroke-width: 0.8"/>
      </g>
     </g>
     <g id="text_37">
      <!-- 0.15 -->
      <g transform="translate(947.074841 117.877651) scale(0.2 -0.2)">
       <use xlink:href="#DejaVuSans-30"/>
       <use xlink:href="#DejaVuSans-2e" x="63.623047"/>
       <use xlink:href="#DejaVuSans-31" x="95.410156"/>
       <use xlink:href="#DejaVuSans-35" x="159.033203"/>
      </g>
     </g>
    </g>
    <g id="ytick_12">
     <g id="line2d_38">
      <g>
       <use xlink:href="#m0bfd76006f" x="940.074841" y="40.766826" style="stroke: #000000; stroke-width: 0.8"/>
      </g>
     </g>
     <g id="text_38">
      <!-- 0.20 -->
      <g transform="translate(947.074841 48.365264) scale(0.2 -0.2)">
       <use xlink:href="#DejaVuSans-30"/>
       <use xlink:href="#DejaVuSans-2e" x="63.623047"/>
       <use xlink:href="#DejaVuSans-32" x="95.410156"/>
       <use xlink:href="#DejaVuSans-30" x="159.033203"/>
      </g>
     </g>
    </g>
    <g id="text_39">
     <!-- Change in proportion $\gamma_{prop}$ -->
     <g transform="translate(1027.565466 332.74) rotate(-90) scale(0.2 -0.2)">
      <defs>
       <path id="DejaVuSans-43" d="M 4122 4306 
L 4122 3641 
Q 3803 3938 3442 4084 
Q 3081 4231 2675 4231 
Q 1875 4231 1450 3742 
Q 1025 3253 1025 2328 
Q 1025 1406 1450 917 
Q 1875 428 2675 428 
Q 3081 428 3442 575 
Q 3803 722 4122 1019 
L 4122 359 
Q 3791 134 3420 21 
Q 3050 -91 2638 -91 
Q 1578 -91 968 557 
Q 359 1206 359 2328 
Q 359 3453 968 4101 
Q 1578 4750 2638 4750 
Q 3056 4750 3426 4639 
Q 3797 4528 4122 4306 
z
" transform="scale(0.015625)"/>
       <path id="DejaVuSans-68" d="M 3513 2113 
L 3513 0 
L 2938 0 
L 2938 2094 
Q 2938 2591 2744 2837 
Q 2550 3084 2163 3084 
Q 1697 3084 1428 2787 
Q 1159 2491 1159 1978 
L 1159 0 
L 581 0 
L 581 4863 
L 1159 4863 
L 1159 2956 
Q 1366 3272 1645 3428 
Q 1925 3584 2291 3584 
Q 2894 3584 3203 3211 
Q 3513 2838 3513 2113 
z
" transform="scale(0.015625)"/>
       <path id="DejaVuSans-67" d="M 2906 1791 
Q 2906 2416 2648 2759 
Q 2391 3103 1925 3103 
Q 1463 3103 1205 2759 
Q 947 2416 947 1791 
Q 947 1169 1205 825 
Q 1463 481 1925 481 
Q 2391 481 2648 825 
Q 2906 1169 2906 1791 
z
M 3481 434 
Q 3481 -459 3084 -895 
Q 2688 -1331 1869 -1331 
Q 1566 -1331 1297 -1286 
Q 1028 -1241 775 -1147 
L 775 -588 
Q 1028 -725 1275 -790 
Q 1522 -856 1778 -856 
Q 2344 -856 2625 -561 
Q 2906 -266 2906 331 
L 2906 616 
Q 2728 306 2450 153 
Q 2172 0 1784 0 
Q 1141 0 747 490 
Q 353 981 353 1791 
Q 353 2603 747 3093 
Q 1141 3584 1784 3584 
Q 2172 3584 2450 3431 
Q 2728 3278 2906 2969 
L 2906 3500 
L 3481 3500 
L 3481 434 
z
" transform="scale(0.015625)"/>
       <path id="DejaVuSans-70" d="M 1159 525 
L 1159 -1331 
L 581 -1331 
L 581 3500 
L 1159 3500 
L 1159 2969 
Q 1341 3281 1617 3432 
Q 1894 3584 2278 3584 
Q 2916 3584 3314 3078 
Q 3713 2572 3713 1747 
Q 3713 922 3314 415 
Q 2916 -91 2278 -91 
Q 1894 -91 1617 61 
Q 1341 213 1159 525 
z
M 3116 1747 
Q 3116 2381 2855 2742 
Q 2594 3103 2138 3103 
Q 1681 3103 1420 2742 
Q 1159 2381 1159 1747 
Q 1159 1113 1420 752 
Q 1681 391 2138 391 
Q 2594 391 2855 752 
Q 3116 1113 3116 1747 
z
" transform="scale(0.015625)"/>
       <path id="DejaVuSans-72" d="M 2631 2963 
Q 2534 3019 2420 3045 
Q 2306 3072 2169 3072 
Q 1681 3072 1420 2755 
Q 1159 2438 1159 1844 
L 1159 0 
L 581 0 
L 581 3500 
L 1159 3500 
L 1159 2956 
Q 1341 3275 1631 3429 
Q 1922 3584 2338 3584 
Q 2397 3584 2469 3576 
Q 2541 3569 2628 3553 
L 2631 2963 
z
" transform="scale(0.015625)"/>
       <path id="DejaVuSans-6f" d="M 1959 3097 
Q 1497 3097 1228 2736 
Q 959 2375 959 1747 
Q 959 1119 1226 758 
Q 1494 397 1959 397 
Q 2419 397 2687 759 
Q 2956 1122 2956 1747 
Q 2956 2369 2687 2733 
Q 2419 3097 1959 3097 
z
M 1959 3584 
Q 2709 3584 3137 3096 
Q 3566 2609 3566 1747 
Q 3566 888 3137 398 
Q 2709 -91 1959 -91 
Q 1206 -91 779 398 
Q 353 888 353 1747 
Q 353 2609 779 3096 
Q 1206 3584 1959 3584 
z
" transform="scale(0.015625)"/>
       <path id="DejaVuSans-Oblique-70" d="M 3175 2156 
Q 3175 2616 2975 2859 
Q 2775 3103 2400 3103 
Q 2144 3103 1911 2972 
Q 1678 2841 1497 2591 
Q 1319 2344 1212 1994 
Q 1106 1644 1106 1300 
Q 1106 863 1306 627 
Q 1506 391 1875 391 
Q 2147 391 2380 519 
Q 2613 647 2778 891 
Q 2956 1147 3065 1494 
Q 3175 1841 3175 2156 
z
M 1394 2969 
Q 1625 3272 1939 3428 
Q 2253 3584 2638 3584 
Q 3175 3584 3472 3232 
Q 3769 2881 3769 2247 
Q 3769 1728 3584 1258 
Q 3400 788 3053 416 
Q 2822 169 2531 39 
Q 2241 -91 1919 -91 
Q 1547 -91 1294 64 
Q 1041 219 916 525 
L 556 -1331 
L -19 -1331 
L 922 3500 
L 1497 3500 
L 1394 2969 
z
" transform="scale(0.015625)"/>
       <path id="DejaVuSans-Oblique-72" d="M 2853 2969 
Q 2766 3016 2653 3041 
Q 2541 3066 2413 3066 
Q 1953 3066 1609 2717 
Q 1266 2369 1153 1784 
L 800 0 
L 225 0 
L 909 3500 
L 1484 3500 
L 1375 2956 
Q 1603 3259 1920 3421 
Q 2238 3584 2597 3584 
Q 2691 3584 2781 3573 
Q 2872 3563 2963 3538 
L 2853 2969 
z
" transform="scale(0.015625)"/>
       <path id="DejaVuSans-Oblique-6f" d="M 1625 -91 
Q 1009 -91 651 289 
Q 294 669 294 1325 
Q 294 1706 417 2101 
Q 541 2497 738 2766 
Q 1047 3184 1428 3384 
Q 1809 3584 2291 3584 
Q 2888 3584 3255 3212 
Q 3622 2841 3622 2241 
Q 3622 1825 3500 1412 
Q 3378 1000 3181 728 
Q 2875 309 2494 109 
Q 2113 -91 1625 -91 
z
M 891 1344 
Q 891 869 1089 633 
Q 1288 397 1691 397 
Q 2269 397 2648 901 
Q 3028 1406 3028 2181 
Q 3028 2634 2825 2865 
Q 2622 3097 2228 3097 
Q 1903 3097 1650 2945 
Q 1397 2794 1197 2484 
Q 1050 2253 970 1956 
Q 891 1659 891 1344 
z
" transform="scale(0.015625)"/>
      </defs>
      <use xlink:href="#DejaVuSans-43" transform="translate(0 0.015625)"/>
      <use xlink:href="#DejaVuSans-68" transform="translate(69.824219 0.015625)"/>
      <use xlink:href="#DejaVuSans-61" transform="translate(133.203125 0.015625)"/>
      <use xlink:href="#DejaVuSans-6e" transform="translate(194.482422 0.015625)"/>
      <use xlink:href="#DejaVuSans-67" transform="translate(257.861328 0.015625)"/>
      <use xlink:href="#DejaVuSans-65" transform="translate(321.337891 0.015625)"/>
      <use xlink:href="#DejaVuSans-20" transform="translate(382.861328 0.015625)"/>
      <use xlink:href="#DejaVuSans-69" transform="translate(414.648438 0.015625)"/>
      <use xlink:href="#DejaVuSans-6e" transform="translate(442.431641 0.015625)"/>
      <use xlink:href="#DejaVuSans-20" transform="translate(505.810547 0.015625)"/>
      <use xlink:href="#DejaVuSans-70" transform="translate(537.597656 0.015625)"/>
      <use xlink:href="#DejaVuSans-72" transform="translate(601.074219 0.015625)"/>
      <use xlink:href="#DejaVuSans-6f" transform="translate(642.1875 0.015625)"/>
      <use xlink:href="#DejaVuSans-70" transform="translate(703.369141 0.015625)"/>
      <use xlink:href="#DejaVuSans-6f" transform="translate(766.845703 0.015625)"/>
      <use xlink:href="#DejaVuSans-72" transform="translate(828.027344 0.015625)"/>
      <use xlink:href="#DejaVuSans-74" transform="translate(869.140625 0.015625)"/>
      <use xlink:href="#DejaVuSans-69" transform="translate(908.349609 0.015625)"/>
      <use xlink:href="#DejaVuSans-6f" transform="translate(936.132812 0.015625)"/>
      <use xlink:href="#DejaVuSans-6e" transform="translate(997.314453 0.015625)"/>
      <use xlink:href="#DejaVuSans-20" transform="translate(1060.693359 0.015625)"/>
      <use xlink:href="#DejaVuSans-Oblique-3b3" transform="translate(1092.480469 0.015625)"/>
      <use xlink:href="#DejaVuSans-Oblique-70" transform="translate(1151.660156 -16.390625) scale(0.7)"/>
      <use xlink:href="#DejaVuSans-Oblique-72" transform="translate(1196.09375 -16.390625) scale(0.7)"/>
      <use xlink:href="#DejaVuSans-Oblique-6f" transform="translate(1224.873047 -16.390625) scale(0.7)"/>
      <use xlink:href="#DejaVuSans-Oblique-70" transform="translate(1267.700195 -16.390625) scale(0.7)"/>
     </g>
    </g>
   </g>
   <g id="line2d_39">
    <path d="M 940.074841 318.816374 
" clip-path="url(#p485188c30c)" style="fill: none; stroke: #ffa500; stroke-width: 1.5; stroke-linecap: square"/>
   </g>
   <g id="patch_7">
    <path d="M 103.074841 395.28 
L 103.074841 7.2 
" style="fill: none; stroke: #000000; stroke-width: 0.8; stroke-linejoin: miter; stroke-linecap: square"/>
   </g>
   <g id="patch_8">
    <path d="M 940.074841 395.28 
L 940.074841 7.2 
" style="fill: none; stroke: #000000; stroke-width: 0.8; stroke-linejoin: miter; stroke-linecap: square"/>
   </g>
   <g id="patch_9">
    <path d="M 103.074841 395.28 
L 940.074841 395.28 
" style="fill: none; stroke: #000000; stroke-width: 0.8; stroke-linejoin: miter; stroke-linecap: square"/>
   </g>
   <g id="patch_10">
    <path d="M 103.074841 7.2 
L 940.074841 7.2 
" style="fill: none; stroke: #000000; stroke-width: 0.8; stroke-linejoin: miter; stroke-linecap: square"/>
   </g>
  </g>
 </g>
 <defs>
  <clipPath id="p485188c30c">
   <rect x="103.074841" y="7.2" width="837" height="388.08"/>
  </clipPath>
 </defs>
</svg>
