<?xml version="1.0" encoding="utf-8" standalone="no"?>
<!DOCTYPE svg PUBLIC "-//W3C//DTD SVG 1.1//EN"
  "http://www.w3.org/Graphics/SVG/1.1/DTD/svg11.dtd">
<svg xmlns:xlink="http://www.w3.org/1999/xlink" width="947.274841pt" height="505.514346pt" viewBox="0 0 947.274841 505.514346" xmlns="http://www.w3.org/2000/svg" version="1.1">
 <metadata>
  <rdf:RDF xmlns:dc="http://purl.org/dc/elements/1.1/" xmlns:cc="http://creativecommons.org/ns#" xmlns:rdf="http://www.w3.org/1999/02/22-rdf-syntax-ns#">
   <cc:Work>
    <dc:type rdf:resource="http://purl.org/dc/dcmitype/StillImage"/>
    <dc:date>2023-11-15T19:56:42.442369</dc:date>
    <dc:format>image/svg+xml</dc:format>
    <dc:creator>
     <cc:Agent>
      <dc:title>Matplotlib v3.7.2, https://matplotlib.org/</dc:title>
     </cc:Agent>
    </dc:creator>
   </cc:Work>
  </rdf:RDF>
 </metadata>
 <defs>
  <style type="text/css">*{stroke-linejoin: round; stroke-linecap: butt}</style>
 </defs>
 <g id="figure_1">
  <g id="patch_1">
   <path d="M 0 505.514346 
L 947.274841 505.514346 
L 947.274841 0 
L 0 0 
z
" style="fill: #ffffff"/>
  </g>
  <g id="axes_1">
   <g id="patch_2">
    <path d="M 103.074841 395.439505 
L 940.074841 395.439505 
L 940.074841 7.359505 
L 103.074841 7.359505 
z
" style="fill: #ffffff"/>
   </g>
   <g id="PolyCollection_1">
    <path d="M -393.000769 224.80178 
L -393.000769 224.816051 
L -390.959306 224.72766 
L -388.917842 224.653968 
L -386.876379 224.574759 
L -384.834915 224.525222 
L -382.793452 224.463784 
L -380.751989 224.3919 
L -378.710525 224.321703 
L -376.669062 224.257372 
L -374.627598 224.203583 
L -372.586135 224.138661 
L -370.544672 224.070122 
L -368.503208 224.004618 
L -366.461745 223.92022 
L -364.420281 223.854158 
L -362.378818 223.773192 
L -360.337354 223.707584 
L -358.295891 223.611859 
L -356.254428 223.537685 
L -354.212964 223.467566 
L -352.171501 223.380862 
L -350.130037 223.29756 
L -348.088574 223.21726 
L -346.047111 223.115961 
L -344.005647 223.031486 
L -341.964184 222.928921 
L -339.92272 222.825772 
L -337.881257 222.70989 
L -335.839793 222.59146 
L -333.79833 222.477738 
L -331.756867 222.342663 
L -329.715403 222.187739 
L -327.67394 222.055843 
L -325.632476 221.902584 
L -323.591013 221.724063 
L -321.54955 221.563413 
L -319.508086 221.369634 
L -317.466623 221.175147 
L -315.425159 220.976092 
L -313.383696 220.765761 
L -311.342232 220.529653 
L -309.300769 220.277685 
L -307.259306 220.010418 
L -305.217842 219.759032 
L -303.176379 219.454786 
L -301.134915 219.173046 
L -299.093452 218.871378 
L -297.051989 218.571754 
L -295.010525 218.245962 
L -292.969062 217.889536 
L -290.927598 217.569729 
L -288.886135 217.205591 
L -286.844672 216.828537 
L -284.803208 216.464026 
L -282.761745 216.1071 
L -280.720281 215.712939 
L -278.678818 215.315741 
L -276.637354 214.921622 
L -274.595891 214.509013 
L -272.554428 214.092542 
L -270.512964 213.679166 
L -268.471501 213.249284 
L -266.430037 212.819905 
L -264.388574 212.400712 
L -262.347111 211.960384 
L -260.305647 211.481583 
L -258.264184 211.022822 
L -256.22272 210.566367 
L -254.181257 210.119677 
L -252.139793 209.649323 
L -250.09833 209.192876 
L -248.056867 208.725977 
L -246.015403 208.316704 
L -243.97394 207.810575 
L -241.932476 207.387995 
L -239.891013 206.91155 
L -237.84955 206.462594 
L -235.808086 205.983783 
L -233.766623 205.56339 
L -231.725159 205.069427 
L -229.683696 204.618355 
L -227.642232 204.1987 
L -225.600769 203.730611 
L -223.559306 203.294845 
L -221.517842 202.844241 
L -219.476379 202.381716 
L -217.434915 201.939122 
L -215.393452 201.507152 
L -213.351989 201.042627 
L -211.310525 200.60309 
L -209.269062 200.149673 
L -207.227598 199.704078 
L -205.186135 199.270594 
L -203.144672 198.833826 
L -201.103208 198.390518 
L -199.061745 198.001822 
L -197.020281 197.54488 
L -194.978818 197.11057 
L -192.937354 196.68387 
L -190.895891 196.25522 
L -188.854428 195.826693 
L -186.812964 195.389971 
L -184.771501 194.977181 
L -182.730037 194.542427 
L -180.688574 194.093401 
L -178.647111 193.6375 
L -176.605647 193.175027 
L -174.564184 192.748 
L -172.52272 192.267923 
L -170.481257 191.749698 
L -168.439793 191.269308 
L -166.39833 190.757793 
L -164.356867 190.237709 
L -162.315403 189.683936 
L -160.27394 189.11954 
L -158.232476 188.603423 
L -156.191013 188.00148 
L -154.14955 187.435849 
L -152.108086 186.820579 
L -150.066623 186.265872 
L -148.025159 185.596413 
L -145.983696 184.944242 
L -143.942232 184.31493 
L -141.900769 183.674229 
L -139.859306 183.011855 
L -137.817842 182.316213 
L -135.776379 181.673529 
L -133.734915 180.922166 
L -131.693452 180.277866 
L -129.651989 179.504648 
L -127.610525 178.761269 
L -125.569062 178.040464 
L -123.527598 177.356265 
L -121.486135 176.538262 
L -119.444672 175.814498 
L -117.403208 174.8602 
L -115.361745 174.061009 
L -113.320281 173.328715 
L -111.278818 172.486567 
L -109.237354 171.622317 
L -107.195891 170.608341 
L -105.154428 169.672061 
L -103.112964 168.92111 
L -101.071501 167.644011 
L -99.030037 166.656489 
L -96.988574 165.649516 
L -94.947111 164.604943 
L -92.905647 163.397563 
L -90.864184 162.280791 
L -88.82272 161.492412 
L -86.781257 160.439499 
L -84.739793 158.587282 
L -82.69833 157.073499 
L -80.656867 156.022391 
L -78.615403 154.486707 
L -76.57394 153.262251 
L -74.532476 152.235661 
L -72.491013 150.553581 
L -70.44955 148.612307 
L -68.408086 147.376566 
L -66.366623 146.689866 
L -64.325159 145.127069 
L -62.283696 144.588041 
L -60.242232 143.551702 
L -58.200769 141.83829 
L -56.159306 141.783804 
L -54.117842 142.426404 
L -52.076379 143.901306 
L -50.034915 142.134809 
L -47.993452 145.480577 
L -45.951989 146.278783 
L -43.910525 141.534392 
L -41.869062 142.760573 
L -39.827598 144.733551 
L -37.786135 143.388647 
L -35.744672 143.009659 
L -33.703208 151.707263 
L -31.661745 164.119434 
L -29.620281 170.369317 
L -27.578818 156.392118 
L -25.537354 163.331889 
L -23.495891 172.737932 
L -21.454428 172.016606 
L -19.412964 191.404283 
L -17.371501 188.479451 
L -15.330037 182.222761 
L -13.288574 167.114283 
L -11.247111 180.837831 
L -9.205647 188.962788 
L -7.164184 185.155614 
L -5.12272 187.043639 
L -3.081257 194.652892 
L -1.039793 193.246559 
L 1.00167 186.054511 
L 3.043133 194.295673 
L 5.084597 195.619002 
L 7.12606 192.153298 
L 9.167524 197.211244 
L 11.208987 198.783014 
L 13.25045 197.806894 
L 15.291914 195.702312 
L 17.333377 197.043927 
L 19.374841 194.745588 
L 21.416304 194.435546 
L 23.457768 195.67291 
L 25.499231 193.581029 
L 27.540694 193.938014 
L 29.582158 193.498232 
L 31.623621 191.698467 
L 33.665085 191.682092 
L 35.706548 189.298354 
L 37.748011 188.924315 
L 39.789475 188.947809 
L 41.830938 188.474432 
L 43.872402 187.049232 
L 45.913865 185.754337 
L 47.955328 185.053312 
L 49.996792 183.676074 
L 52.038255 183.030847 
L 54.079719 182.362079 
L 56.121182 180.537516 
L 58.162646 180.665459 
L 60.204109 179.303376 
L 62.245572 178.446102 
L 64.287036 177.998206 
L 66.328499 176.674171 
L 68.369963 176.00357 
L 70.411426 175.85499 
L 72.452889 175.913928 
L 74.494353 174.107412 
L 76.535816 173.483709 
L 78.57728 172.644156 
L 80.618743 174.72834 
L 82.660207 174.476277 
L 84.70167 175.142528 
L 86.743133 172.564108 
L 88.784597 170.873002 
L 90.82606 171.076822 
L 92.867524 172.462828 
L 94.908987 172.550422 
L 96.95045 169.560927 
L 98.991914 171.790794 
L 101.033377 171.083413 
L 103.074841 170.599011 
L 105.116304 169.219357 
L 107.157768 170.224118 
L 109.199231 169.565409 
L 111.240694 170.15967 
L 113.282158 169.337771 
L 115.323621 168.712353 
L 117.365085 167.56485 
L 119.406548 167.057818 
L 121.448011 166.618652 
L 123.489475 166.002889 
L 125.530938 165.975269 
L 127.572402 165.467399 
L 129.613865 164.939632 
L 131.655328 163.250834 
L 133.696792 162.020768 
L 135.738255 161.597997 
L 137.779719 160.264281 
L 139.821182 160.215278 
L 141.862646 159.133639 
L 143.904109 157.415828 
L 145.945572 156.038715 
L 147.987036 155.087452 
L 150.028499 153.319898 
L 152.069963 152.382074 
L 154.111426 150.875726 
L 156.152889 149.597592 
L 158.194353 147.910287 
L 160.235816 146.589131 
L 162.27728 144.672596 
L 164.318743 143.252784 
L 166.360207 141.694485 
L 168.40167 139.491604 
L 170.443133 137.472133 
L 172.484597 136.118598 
L 174.52606 134.389756 
L 176.567524 132.186102 
L 178.608987 130.551044 
L 180.65045 128.468923 
L 182.691914 125.300446 
L 184.733377 124.162956 
L 186.774841 121.559529 
L 188.816304 119.737978 
L 190.857768 117.607687 
L 192.899231 115.271206 
L 194.940694 112.839895 
L 196.982158 110.685239 
L 199.023621 107.627044 
L 201.065085 105.927065 
L 203.106548 103.016005 
L 205.148011 101.409356 
L 207.189475 98.544815 
L 209.230938 95.809055 
L 211.272402 93.334671 
L 213.313865 91.485208 
L 215.355328 88.125083 
L 217.396792 86.039101 
L 219.438255 83.11612 
L 221.479719 80.9719 
L 223.521182 78.02962 
L 225.562646 75.526311 
L 227.604109 75.665015 
L 229.645572 70.239055 
L 231.687036 69.811583 
L 233.728499 66.675922 
L 235.769963 64.701639 
L 237.811426 62.392625 
L 239.852889 59.931956 
L 241.894353 57.759956 
L 243.935816 55.678155 
L 245.97728 53.74753 
L 248.018743 51.799146 
L 250.060207 54.207276 
L 252.10167 47.438299 
L 254.143133 46.113902 
L 256.184597 52.540047 
L 258.22606 44.252164 
L 260.267524 46.159409 
L 262.308987 45.630278 
L 264.35045 41.49325 
L 266.391914 42.662272 
L 268.433377 47.460944 
L 270.474841 44.579541 
L 272.516304 43.434729 
L 274.557768 46.51531 
L 276.599231 45.79981 
L 278.640694 47.984204 
L 280.682158 50.824055 
L 282.723621 55.461523 
L 284.765085 65.862656 
L 286.806548 63.791989 
L 288.848011 69.524285 
L 290.889475 74.300791 
L 292.930938 76.962533 
L 294.972402 82.9557 
L 297.013865 86.825354 
L 299.055328 80.06952 
L 301.096792 86.941395 
L 303.138255 96.178199 
L 305.179719 100.595203 
L 307.221182 102.42431 
L 309.262646 117.592504 
L 311.304109 118.895832 
L 313.345572 123.087888 
L 315.387036 122.061498 
L 317.428499 134.8738 
L 319.469963 131.013092 
L 321.511426 128.850694 
L 323.552889 139.792495 
L 325.594353 147.594472 
L 327.635816 147.000594 
L 329.67728 151.672963 
L 331.718743 153.260109 
L 333.760207 153.643029 
L 335.80167 153.748131 
L 337.843133 156.397932 
L 339.884597 157.953113 
L 341.92606 165.988156 
L 343.967524 162.085006 
L 346.008987 169.116014 
L 348.05045 167.732435 
L 350.091914 166.982927 
L 352.133377 169.962717 
L 354.174841 172.660558 
L 356.216304 169.756274 
L 358.257768 171.546356 
L 360.299231 171.903865 
L 362.340694 175.907407 
L 364.382158 174.352056 
L 366.423621 173.8045 
L 368.465085 175.196659 
L 370.506548 177.338165 
L 372.548011 176.82324 
L 374.589475 175.432833 
L 376.630938 176.843952 
L 378.672402 174.56644 
L 380.713865 175.300853 
L 382.755328 180.215921 
L 384.796792 180.445911 
L 386.838255 178.446492 
L 388.879719 178.352937 
L 390.921182 179.179005 
L 392.962646 177.014704 
L 395.004109 178.228526 
L 397.045572 178.798634 
L 399.087036 178.825741 
L 401.128499 178.703613 
L 403.169963 177.649951 
L 405.211426 179.256402 
L 407.252889 178.777044 
L 409.294353 179.185596 
L 411.335816 179.227833 
L 413.37728 179.968803 
L 415.418743 179.337893 
L 417.460207 177.668286 
L 419.50167 178.167785 
L 421.543133 176.899953 
L 423.584597 174.790161 
L 425.62606 177.337582 
L 427.667524 174.238164 
L 429.708987 176.317784 
L 431.75045 176.162236 
L 433.791914 176.962293 
L 435.833377 175.123953 
L 437.874841 175.45176 
L 439.916304 175.607175 
L 441.957768 173.152829 
L 443.999231 174.336402 
L 446.040694 174.509899 
L 448.082158 174.808788 
L 450.123621 173.832869 
L 452.165085 174.876833 
L 454.206548 173.827227 
L 456.248011 172.855728 
L 458.289475 171.084145 
L 460.330938 170.807004 
L 462.372402 170.751106 
L 464.413865 169.951472 
L 466.455328 170.535273 
L 468.496792 170.264868 
L 470.538255 169.315533 
L 472.579719 169.786874 
L 474.621182 168.77466 
L 476.662646 170.100561 
L 478.704109 169.575709 
L 480.745572 170.079514 
L 482.787036 168.767575 
L 484.828499 166.186398 
L 486.869963 169.229741 
L 488.911426 169.480032 
L 490.952889 169.050415 
L 492.994353 168.645911 
L 495.035816 167.308353 
L 497.07728 167.292924 
L 499.118743 166.534463 
L 501.160207 166.960129 
L 503.20167 166.828167 
L 505.243133 165.358571 
L 507.284597 163.623382 
L 509.32606 166.648495 
L 511.367524 166.295192 
L 513.408987 164.456297 
L 515.45045 165.810295 
L 517.491914 162.890305 
L 519.533377 162.878047 
L 521.574841 163.657326 
L 523.616304 161.531068 
L 525.657768 165.730066 
L 527.699231 162.046466 
L 529.740694 159.955941 
L 531.782158 162.367804 
L 533.823621 163.35918 
L 535.865085 162.594643 
L 537.906548 163.945434 
L 539.948011 162.136627 
L 541.989475 165.614072 
L 544.030938 163.594513 
L 546.072402 164.303644 
L 548.113865 162.53983 
L 550.155328 160.602377 
L 552.196792 163.486617 
L 554.238255 168.513557 
L 556.279719 162.749864 
L 558.321182 163.513718 
L 560.362646 161.256414 
L 562.404109 163.10523 
L 564.445572 162.006858 
L 566.487036 160.957178 
L 568.528499 160.331182 
L 570.569963 162.997963 
L 572.611426 161.925371 
L 574.652889 163.921318 
L 576.694353 164.225937 
L 578.735816 157.661865 
L 580.77728 160.719506 
L 582.818743 160.195495 
L 584.860207 161.005947 
L 586.90167 161.135889 
L 588.943133 165.272871 
L 590.984597 166.935014 
L 593.02606 166.536212 
L 595.067524 171.551711 
L 597.108987 179.638975 
L 599.15045 169.124334 
L 601.191914 169.084198 
L 603.233377 168.699429 
L 605.274841 171.591735 
L 607.316304 172.054811 
L 609.357768 171.775054 
L 611.399231 179.114206 
L 613.440694 180.788626 
L 615.482158 172.520118 
L 617.523621 179.36756 
L 619.565085 175.827653 
L 621.606548 173.17768 
L 623.648011 181.936807 
L 625.689475 180.023872 
L 627.730938 186.032282 
L 629.772402 182.934121 
L 631.813865 178.969477 
L 633.855328 182.625515 
L 635.896792 182.3192 
L 637.938255 186.04467 
L 639.979719 183.255112 
L 642.021182 189.210581 
L 644.062646 184.758136 
L 646.104109 187.709579 
L 648.145572 186.26324 
L 650.187036 189.766431 
L 652.228499 183.54017 
L 654.269963 189.88249 
L 656.311426 189.300027 
L 658.352889 193.641537 
L 660.394353 195.095747 
L 662.435816 195.686345 
L 664.47728 193.909682 
L 666.518743 196.403296 
L 668.560207 199.239936 
L 670.60167 195.979123 
L 672.643133 194.81103 
L 674.684597 196.751729 
L 676.72606 199.048607 
L 678.767524 194.586652 
L 680.808987 191.715433 
L 682.85045 200.504705 
L 684.891914 205.400712 
L 686.933377 194.556649 
L 688.974841 197.138173 
L 691.016304 198.311813 
L 693.057768 198.708913 
L 695.099231 203.097504 
L 697.140694 202.009203 
L 699.182158 199.705138 
L 701.223621 201.277016 
L 703.265085 201.523408 
L 705.306548 195.537945 
L 707.348011 197.924262 
L 709.389475 195.494521 
L 711.430938 203.371749 
L 713.472402 214.185529 
L 715.513865 211.714122 
L 717.555328 202.339373 
L 719.596792 200.921414 
L 721.638255 201.949691 
L 723.679719 200.832596 
L 725.721182 210.094591 
L 727.762646 199.850344 
L 729.804109 210.224048 
L 731.845572 220.123967 
L 733.887036 210.876709 
L 735.928499 226.547036 
L 737.969963 214.420933 
L 740.011426 225.685494 
L 742.052889 219.108462 
L 744.094353 222.126196 
L 746.135816 229.893707 
L 748.17728 229.410869 
L 750.218743 231.685235 
L 752.260207 231.236936 
L 754.30167 231.69312 
L 756.343133 209.525239 
L 758.384597 238.926541 
L 760.42606 250.07826 
L 762.467524 238.916463 
L 764.508987 244.977116 
L 766.55045 251.798732 
L 768.591914 241.998072 
L 770.633377 252.645818 
L 772.674841 261.032224 
L 774.716304 255.444968 
L 776.757768 259.921539 
L 778.799231 261.963363 
L 780.840694 263.002977 
L 782.882158 265.226835 
L 784.923621 252.454599 
L 786.965085 276.138733 
L 789.006548 276.013501 
L 791.048011 275.553389 
L 793.089475 259.466462 
L 795.130938 279.636064 
L 797.172402 290.295106 
L 799.213865 279.678141 
L 801.255328 279.159384 
L 803.296792 297.178034 
L 805.338255 261.999547 
L 807.379719 292.756879 
L 809.421182 269.339112 
L 811.462646 301.685245 
L 813.504109 287.787885 
L 815.545572 299.704595 
L 817.587036 302.637286 
L 819.628499 305.441143 
L 821.669963 306.276689 
L 823.711426 298.563669 
L 825.752889 299.130424 
L 827.794353 305.551899 
L 829.835816 313.161392 
L 831.87728 312.787029 
L 833.918743 311.124164 
L 835.960207 318.882765 
L 838.00167 318.065166 
L 840.043133 311.070831 
L 842.084597 309.386845 
L 844.12606 324.349222 
L 846.167524 324.811867 
L 848.208987 327.191504 
L 850.25045 318.352494 
L 852.291914 298.891549 
L 854.333377 317.939374 
L 856.374841 311.945344 
L 858.416304 316.203863 
L 860.457768 322.283361 
L 862.499231 312.219965 
L 864.540694 323.644423 
L 866.582158 312.921898 
L 868.623621 311.830349 
L 870.665085 312.132838 
L 872.706548 318.719671 
L 874.748011 317.240809 
L 876.789475 315.01413 
L 878.830938 306.593795 
L 880.872402 310.147156 
L 882.913865 312.638768 
L 884.955328 308.548588 
L 886.996792 313.843084 
L 889.038255 308.446664 
L 891.079719 311.716052 
L 893.121182 317.385692 
L 895.162646 315.814862 
L 897.204109 308.999159 
L 899.245572 308.604637 
L 901.287036 306.909738 
L 903.328499 309.245014 
L 905.369963 308.65602 
L 907.411426 297.900462 
L 909.452889 305.516776 
L 911.494353 256.948014 
L 913.535816 304.612101 
L 915.57728 307.459429 
L 917.618743 300.008393 
L 919.660207 292.28801 
L 921.70167 305.997581 
L 923.743133 299.296017 
L 925.784597 287.860233 
L 927.82606 294.4962 
L 929.867524 294.303079 
L 931.908987 290.93585 
L 933.95045 297.260284 
L 935.991914 291.982128 
L 938.033377 294.183137 
L 940.074841 295.394865 
L 940.074841 186.803912 
L 940.074841 186.803912 
L 938.033377 191.540955 
L 935.991914 189.682406 
L 933.95045 191.839973 
L 931.908987 188.880242 
L 929.867524 190.441076 
L 927.82606 189.320037 
L 925.784597 190.410587 
L 923.743133 194.286502 
L 921.70167 195.083713 
L 919.660207 192.845197 
L 917.618743 193.761521 
L 915.57728 198.087341 
L 913.535816 195.858431 
L 911.494353 188.324263 
L 909.452889 197.650498 
L 907.411426 196.639127 
L 905.369963 199.289592 
L 903.328499 199.982371 
L 901.287036 199.741039 
L 899.245572 201.616794 
L 897.204109 202.157908 
L 895.162646 204.604248 
L 893.121182 205.688735 
L 891.079719 205.093207 
L 889.038255 204.636299 
L 886.996792 206.128751 
L 884.955328 204.618023 
L 882.913865 206.28943 
L 880.872402 206.580558 
L 878.830938 206.052836 
L 876.789475 209.640804 
L 874.748011 210.885279 
L 872.706548 212.731213 
L 870.665085 209.934993 
L 868.623621 211.013492 
L 866.582158 212.307288 
L 864.540694 216.161405 
L 862.499231 212.850648 
L 860.457768 216.926102 
L 858.416304 215.229492 
L 856.374841 214.458668 
L 854.333377 217.058791 
L 852.291914 211.981347 
L 850.25045 218.067366 
L 848.208987 222.456773 
L 846.167524 222.207332 
L 844.12606 222.384031 
L 842.084597 218.768276 
L 840.043133 219.149629 
L 838.00167 222.253493 
L 835.960207 222.833831 
L 833.918743 220.696926 
L 831.87728 221.591996 
L 829.835816 222.934364 
L 827.794353 218.908559 
L 825.752889 218.209586 
L 823.711426 218.820699 
L 821.669963 222.298077 
L 819.628499 222.416955 
L 817.587036 221.163463 
L 815.545572 220.456085 
L 813.504109 216.641228 
L 811.462646 222.180265 
L 809.421182 212.490948 
L 807.379719 220.50224 
L 805.338255 209.312965 
L 803.296792 222.589024 
L 801.255328 216.007176 
L 799.213865 216.053842 
L 797.172402 221.991081 
L 795.130938 217.457129 
L 793.089475 210.278143 
L 791.048011 217.266742 
L 789.006548 217.457832 
L 786.965085 217.841746 
L 784.923621 208.171684 
L 782.882158 217.025169 
L 780.840694 213.602349 
L 778.799231 212.938634 
L 776.757768 212.771697 
L 774.716304 211.991422 
L 772.674841 214.69631 
L 770.633377 211.750453 
L 768.591914 207.041066 
L 766.55045 210.346416 
L 764.508987 209.944333 
L 762.467524 205.847674 
L 760.42606 211.625092 
L 758.384597 206.926026 
L 756.343133 194.586683 
L 754.30167 205.177168 
L 752.260207 205.346253 
L 750.218743 205.625873 
L 748.17728 204.973969 
L 746.135816 205.861846 
L 744.094353 202.369842 
L 742.052889 200.915493 
L 740.011426 204.273277 
L 737.969963 200.723155 
L 735.928499 206.103419 
L 733.887036 199.07778 
L 731.845572 204.622355 
L 729.804109 199.280561 
L 727.762646 192.475411 
L 725.721182 200.050935 
L 723.679719 195.078126 
L 721.638255 195.357892 
L 719.596792 195.072217 
L 717.555328 196.264127 
L 715.513865 202.692546 
L 713.472402 204.321131 
L 711.430938 197.467244 
L 709.389475 185.965453 
L 707.348011 189.816877 
L 705.306548 187.051787 
L 703.265085 195.66456 
L 701.223621 194.757491 
L 699.182158 191.251822 
L 697.140694 195.557482 
L 695.099231 195.267937 
L 693.057768 188.212336 
L 691.016304 188.958954 
L 688.974841 186.133637 
L 686.933377 182.670107 
L 684.891914 198.319409 
L 682.85045 189.299847 
L 680.808987 176.956678 
L 678.767524 182.591278 
L 676.72606 187.628527 
L 674.684597 184.005509 
L 672.643133 181.155002 
L 670.60167 183.013926 
L 668.560207 188.314689 
L 666.518743 182.126776 
L 664.47728 179.698075 
L 662.435816 181.886567 
L 660.394353 177.883088 
L 658.352889 178.816294 
L 656.311426 170.97371 
L 654.269963 173.38263 
L 652.228499 163.83228 
L 650.187036 171.409228 
L 648.145572 167.341754 
L 646.104109 169.211454 
L 644.062646 166.343053 
L 642.021182 170.845875 
L 639.979719 162.239772 
L 637.938255 167.095788 
L 635.896792 161.550121 
L 633.855328 162.230712 
L 631.813865 157.814626 
L 629.772402 159.671811 
L 627.730938 165.298688 
L 625.689475 159.352156 
L 623.648011 160.49297 
L 621.606548 149.027003 
L 619.565085 153.976851 
L 617.523621 156.403903 
L 615.482158 147.5605 
L 613.440694 157.038801 
L 611.399231 157.637935 
L 609.357768 146.500277 
L 607.316304 146.508151 
L 605.274841 145.543136 
L 603.233377 141.381836 
L 601.191914 143.882896 
L 599.15045 142.661919 
L 597.108987 155.33555 
L 595.067524 146.182804 
L 593.02606 139.298284 
L 590.984597 139.117054 
L 588.943133 136.794687 
L 586.90167 132.375508 
L 584.860207 133.308981 
L 582.818743 130.114683 
L 580.77728 132.577073 
L 578.735816 128.071041 
L 576.694353 134.83715 
L 574.652889 135.186604 
L 572.611426 132.783898 
L 570.569963 133.69651 
L 568.528499 130.105433 
L 566.487036 131.517375 
L 564.445572 131.999871 
L 562.404109 134.673449 
L 560.362646 131.036141 
L 558.321182 134.100224 
L 556.279719 132.479366 
L 554.238255 138.979872 
L 552.196792 133.218139 
L 550.155328 129.734306 
L 548.113865 132.039497 
L 546.072402 132.658434 
L 544.030938 131.98139 
L 541.989475 135.475639 
L 539.948011 131.033768 
L 537.906548 133.155316 
L 535.865085 131.040743 
L 533.823621 131.003399 
L 531.782158 129.050179 
L 529.740694 126.528367 
L 527.699231 129.262483 
L 525.657768 133.1687 
L 523.616304 127.830623 
L 521.574841 129.849641 
L 519.533377 128.033518 
L 517.491914 128.932391 
L 515.45045 131.857843 
L 513.408987 130.025022 
L 511.367524 132.288749 
L 509.32606 132.435411 
L 507.284597 128.578028 
L 505.243133 129.881952 
L 503.20167 131.40615 
L 501.160207 131.564086 
L 499.118743 130.852064 
L 497.07728 131.733235 
L 495.035816 130.861896 
L 492.994353 132.490589 
L 490.952889 132.488149 
L 488.911426 132.363126 
L 486.869963 132.23111 
L 484.828499 127.552922 
L 482.787036 131.35115 
L 480.745572 132.479366 
L 478.704109 131.312383 
L 476.662646 130.790544 
L 474.621182 130.15175 
L 472.579719 130.766683 
L 470.538255 129.646077 
L 468.496792 130.907741 
L 466.455328 130.893139 
L 464.413865 129.718339 
L 462.372402 129.717981 
L 460.330938 129.961455 
L 458.289475 130.218613 
L 456.248011 132.866623 
L 454.206548 132.885226 
L 452.165085 133.754812 
L 450.123621 132.095732 
L 448.082158 132.856257 
L 446.040694 132.152203 
L 443.999231 131.758134 
L 441.957768 129.08715 
L 439.916304 132.988811 
L 437.874841 132.432452 
L 435.833377 131.752918 
L 433.791914 133.6393 
L 431.75045 132.368153 
L 429.708987 132.499613 
L 427.667524 129.911245 
L 425.62606 132.797588 
L 423.584597 130.444793 
L 421.543133 133.145752 
L 419.50167 134.693874 
L 417.460207 134.257265 
L 415.418743 136.466392 
L 413.37728 137.902052 
L 411.335816 136.48836 
L 409.294353 136.869009 
L 407.252889 136.039543 
L 405.211426 136.951074 
L 403.169963 135.039567 
L 401.128499 136.850831 
L 399.087036 137.898743 
L 397.045572 138.024435 
L 395.004109 137.628024 
L 392.962646 137.093063 
L 390.921182 139.279364 
L 388.879719 138.933499 
L 386.838255 139.890528 
L 384.796792 141.860014 
L 382.755328 141.791373 
L 380.713865 138.06278 
L 378.672402 137.930415 
L 376.630938 140.343478 
L 374.589475 139.832586 
L 372.548011 141.267317 
L 370.506548 142.099967 
L 368.465085 140.401509 
L 366.423621 140.6561 
L 364.382158 141.193247 
L 362.340694 142.781021 
L 360.299231 139.53446 
L 358.257768 139.981104 
L 356.216304 139.343977 
L 354.174841 141.992053 
L 352.133377 140.983008 
L 350.091914 138.58534 
L 348.05045 139.772274 
L 346.008987 141.03046 
L 343.967524 135.785758 
L 341.92606 139.626327 
L 339.884597 133.584831 
L 337.843133 132.883582 
L 335.80167 131.331404 
L 333.760207 132.225983 
L 331.718743 132.202604 
L 329.67728 131.135179 
L 327.635816 128.103395 
L 325.594353 129.692915 
L 323.552889 122.507454 
L 321.511426 114.744285 
L 319.469963 116.333948 
L 317.428499 119.72397 
L 315.387036 109.767559 
L 313.345572 109.958922 
L 311.304109 107.40788 
L 309.262646 106.533326 
L 307.221182 93.892375 
L 305.179719 92.365923 
L 303.138255 87.43293 
L 301.096792 76.96049 
L 299.055328 68.834783 
L 297.013865 76.927954 
L 294.972402 72.517537 
L 292.930938 65.367217 
L 290.889475 62.16635 
L 288.848011 56.791825 
L 286.806548 49.856502 
L 284.765085 52.389724 
L 282.723621 40.194052 
L 280.682158 34.060791 
L 278.640694 30.959275 
L 276.599231 28.425828 
L 274.557768 29.47315 
L 272.516304 26.281194 
L 270.474841 28.449885 
L 268.433377 31.659307 
L 266.391914 25.827635 
L 264.35045 24.999505 
L 262.308987 30.138242 
L 260.267524 31.06972 
L 258.22606 28.686894 
L 256.184597 39.534831 
L 254.143133 31.417138 
L 252.10167 33.791202 
L 250.060207 41.984121 
L 248.018743 39.301156 
L 245.97728 42.114337 
L 243.935816 44.596544 
L 241.894353 47.564925 
L 239.852889 50.364588 
L 237.811426 53.56957 
L 235.769963 56.505698 
L 233.728499 58.836243 
L 231.687036 62.747903 
L 229.645572 63.405828 
L 227.604109 69.864856 
L 225.562646 69.754508 
L 223.521182 72.782705 
L 221.479719 76.381181 
L 219.438255 78.574632 
L 217.396792 81.187513 
L 215.355328 83.132293 
L 213.313865 86.197779 
L 211.272402 87.8618 
L 209.230938 90.012106 
L 207.189475 92.630011 
L 205.148011 95.319474 
L 203.106548 96.79184 
L 201.065085 99.393251 
L 199.023621 101.039887 
L 196.982158 103.746501 
L 194.940694 105.762392 
L 192.899231 107.778678 
L 190.857768 110.05732 
L 188.816304 112.04756 
L 186.774841 113.695619 
L 184.733377 115.940172 
L 182.691914 116.913342 
L 180.65045 119.786503 
L 178.608987 121.629724 
L 176.567524 123.224891 
L 174.52606 125.255344 
L 172.484597 126.386612 
L 170.443133 128.165012 
L 168.40167 130.000611 
L 166.360207 132.05947 
L 164.318743 133.575511 
L 162.27728 135.080092 
L 160.235816 136.753887 
L 158.194353 138.368442 
L 156.152889 140.132888 
L 154.111426 141.505161 
L 152.069963 143.031426 
L 150.028499 144.248699 
L 147.987036 146.037866 
L 145.945572 147.277817 
L 143.904109 148.724137 
L 141.862646 150.579217 
L 139.821182 151.822241 
L 137.779719 152.093377 
L 135.738255 153.648459 
L 133.696792 154.397225 
L 131.655328 155.919092 
L 129.613865 157.713572 
L 127.572402 158.608844 
L 125.530938 159.46759 
L 123.489475 159.623361 
L 121.448011 160.570789 
L 119.406548 161.149491 
L 117.365085 161.788526 
L 115.323621 163.172191 
L 113.282158 164.006146 
L 111.240694 165.200212 
L 109.199231 164.64689 
L 107.157768 165.378195 
L 105.116304 164.505711 
L 103.074841 166.2196 
L 101.033377 166.619514 
L 98.991914 167.941815 
L 96.95045 165.716778 
L 94.908987 168.890249 
L 92.867524 168.890166 
L 90.82606 167.466904 
L 88.784597 167.32594 
L 86.743133 169.137469 
L 84.70167 172.052476 
L 82.660207 171.335994 
L 80.618743 171.612194 
L 78.57728 169.325992 
L 76.535816 169.67214 
L 74.494353 170.810806 
L 72.452889 172.811815 
L 70.411426 172.679622 
L 68.369963 172.752975 
L 66.328499 173.422838 
L 64.287036 174.826303 
L 62.245572 175.013099 
L 60.204109 176.054422 
L 58.162646 177.511213 
L 56.121182 177.196374 
L 54.079719 179.119784 
L 52.038255 179.763794 
L 49.996792 180.354918 
L 47.955328 181.709986 
L 45.913865 182.344342 
L 43.872402 183.79236 
L 41.830938 185.329736 
L 39.789475 185.726832 
L 37.748011 185.63445 
L 35.706548 185.668454 
L 33.665085 188.463895 
L 31.623621 188.395832 
L 29.582158 190.375532 
L 27.540694 190.739751 
L 25.499231 190.439112 
L 23.457768 192.373232 
L 21.416304 191.181194 
L 19.374841 191.557568 
L 17.333377 193.897177 
L 15.291914 192.699534 
L 13.25045 194.900433 
L 11.208987 195.772916 
L 9.167524 194.372553 
L 7.12606 188.918363 
L 5.084597 192.671838 
L 3.043133 191.158752 
L 1.00167 182.473251 
L -1.039793 190.134077 
L -3.081257 191.699999 
L -5.12272 183.656278 
L -7.164184 181.626691 
L -9.205647 185.85417 
L -11.247111 177.153054 
L -13.288574 162.344426 
L -15.330037 178.784098 
L -17.371501 185.492021 
L -19.412964 188.679701 
L -21.454428 168.071954 
L -23.495891 168.928498 
L -25.537354 158.941446 
L -27.578818 151.293585 
L -29.620281 166.709334 
L -31.661745 159.964021 
L -33.703208 146.193564 
L -35.744672 136.54931 
L -37.786135 136.953778 
L -39.827598 138.383418 
L -41.869062 136.169398 
L -43.910525 134.760234 
L -45.951989 139.918943 
L -47.993452 139.05774 
L -50.034915 135.27454 
L -52.076379 137.15739 
L -54.117842 135.425736 
L -56.159306 134.579052 
L -58.200769 134.394665 
L -60.242232 136.20976 
L -62.283696 137.132816 
L -64.325159 137.540395 
L -66.366623 139.05173 
L -68.408086 139.607175 
L -70.44955 140.790573 
L -72.491013 142.8557 
L -74.532476 144.399491 
L -76.57394 145.391041 
L -78.615403 146.523782 
L -80.656867 148.118774 
L -82.69833 148.993883 
L -84.739793 150.50645 
L -86.781257 152.403115 
L -88.82272 153.47461 
L -90.864184 154.120294 
L -92.905647 155.244987 
L -94.947111 156.404065 
L -96.988574 157.473884 
L -99.030037 158.496767 
L -101.071501 159.48015 
L -103.112964 160.888917 
L -105.154428 161.509086 
L -107.195891 162.503906 
L -109.237354 163.547528 
L -111.278818 164.426957 
L -113.320281 165.303339 
L -115.361745 166.016316 
L -117.403208 166.802506 
L -119.444672 167.909351 
L -121.486135 168.643178 
L -123.527598 169.523437 
L -125.569062 170.183915 
L -127.610525 170.960754 
L -129.651989 171.759403 
L -131.693452 172.568607 
L -133.734915 173.239615 
L -135.776379 174.052314 
L -137.817842 174.763195 
L -139.859306 175.531096 
L -141.900769 176.238288 
L -143.942232 176.983384 
L -145.983696 177.666011 
L -148.025159 178.404659 
L -150.066623 179.207927 
L -152.108086 179.807067 
L -154.14955 180.573126 
L -156.191013 181.227244 
L -158.232476 181.995353 
L -160.27394 182.544003 
L -162.315403 183.256866 
L -164.356867 183.934927 
L -166.39833 184.579009 
L -168.439793 185.236211 
L -170.481257 185.840898 
L -172.52272 186.553911 
L -174.564184 187.191021 
L -176.605647 187.707253 
L -178.647111 188.328338 
L -180.688574 188.947536 
L -182.730037 189.562323 
L -184.771501 190.152224 
L -186.812964 190.696756 
L -188.854428 191.299551 
L -190.895891 191.887274 
L -192.937354 192.476258 
L -194.978818 193.06079 
L -197.020281 193.660398 
L -199.061745 194.283786 
L -201.103208 194.809194 
L -203.144672 195.418347 
L -205.186135 196.01252 
L -207.227598 196.577739 
L -209.269062 197.161287 
L -211.310525 197.756478 
L -213.351989 198.329508 
L -215.393452 198.933203 
L -217.434915 199.474321 
L -219.476379 200.027 
L -221.517842 200.614483 
L -223.559306 201.177172 
L -225.600769 201.704831 
L -227.642232 202.266881 
L -229.683696 202.769402 
L -231.725159 203.311337 
L -233.766623 203.89337 
L -235.808086 204.376603 
L -237.84955 204.927528 
L -239.891013 205.441292 
L -241.932476 205.9834 
L -243.97394 206.46174 
L -246.015403 207.038005 
L -248.056867 207.494312 
L -250.09833 208.018985 
L -252.139793 208.528875 
L -254.181257 209.054052 
L -256.22272 209.546764 
L -258.264184 210.050899 
L -260.305647 210.537709 
L -262.347111 211.032702 
L -264.388574 211.484742 
L -266.430037 211.911653 
L -268.471501 212.352612 
L -270.512964 212.799222 
L -272.554428 213.228659 
L -274.595891 213.669661 
L -276.637354 214.106768 
L -278.678818 214.521906 
L -280.720281 214.945794 
L -282.761745 215.369653 
L -284.803208 215.748847 
L -286.844672 216.139314 
L -288.886135 216.554088 
L -290.927598 216.945408 
L -292.969062 217.289159 
L -295.010525 217.680259 
L -297.051989 218.03401 
L -299.093452 218.357111 
L -301.134915 218.683872 
L -303.176379 218.988178 
L -305.217842 219.325245 
L -307.259306 219.595667 
L -309.300769 219.88824 
L -311.342232 220.163359 
L -313.383696 220.417221 
L -315.425159 220.64676 
L -317.466623 220.853452 
L -319.508086 221.061032 
L -321.54955 221.268965 
L -323.591013 221.43598 
L -325.632476 221.629513 
L -327.67394 221.789467 
L -329.715403 221.923956 
L -331.756867 222.08928 
L -333.79833 222.231651 
L -335.839793 222.34548 
L -337.881257 222.471178 
L -339.92272 222.593806 
L -341.964184 222.699299 
L -344.005647 222.806209 
L -346.047111 222.890934 
L -348.088574 222.99947 
L -350.130037 223.081509 
L -352.171501 223.169632 
L -354.212964 223.26393 
L -356.254428 223.337274 
L -358.295891 223.416927 
L -360.337354 223.528446 
L -362.378818 223.60171 
L -364.420281 223.696818 
L -366.461745 223.768622 
L -368.503208 223.871136 
L -370.544672 223.949081 
L -372.586135 224.033262 
L -374.627598 224.105377 
L -376.669062 224.17026 
L -378.710525 224.247985 
L -380.751989 224.337534 
L -382.793452 224.426175 
L -384.834915 224.500296 
L -386.876379 224.556338 
L -388.917842 224.645358 
L -390.959306 224.715218 
L -393.000769 224.80178 
z
" clip-path="url(#pff161d2def)" style="fill: #008000; fill-opacity: 0.3; stroke: #008000; stroke-opacity: 0.3"/>
   </g>
   <g id="matplotlib.axis_1">
    <g id="xtick_1">
     <g id="line2d_1">
      <defs>
       <path id="m2c1a084fef" d="M 0 0 
L 0 3.5 
" style="stroke: #000000; stroke-width: 0.8"/>
      </defs>
      <g>
       <use xlink:href="#m2c1a084fef" x="103.074841" y="395.439505" style="stroke: #000000; stroke-width: 0.8"/>
      </g>
     </g>
     <g id="text_1">
      <!-- 2022-03-01 -->
      <g transform="translate(17.945813 495.373224) rotate(-45) scale(0.2 -0.2)">
       <defs>
        <path id="DejaVuSans-32" d="M 1228 531 
L 3431 531 
L 3431 0 
L 469 0 
L 469 531 
Q 828 903 1448 1529 
Q 2069 2156 2228 2338 
Q 2531 2678 2651 2914 
Q 2772 3150 2772 3378 
Q 2772 3750 2511 3984 
Q 2250 4219 1831 4219 
Q 1534 4219 1204 4116 
Q 875 4013 500 3803 
L 500 4441 
Q 881 4594 1212 4672 
Q 1544 4750 1819 4750 
Q 2544 4750 2975 4387 
Q 3406 4025 3406 3419 
Q 3406 3131 3298 2873 
Q 3191 2616 2906 2266 
Q 2828 2175 2409 1742 
Q 1991 1309 1228 531 
z
" transform="scale(0.015625)"/>
        <path id="DejaVuSans-30" d="M 2034 4250 
Q 1547 4250 1301 3770 
Q 1056 3291 1056 2328 
Q 1056 1369 1301 889 
Q 1547 409 2034 409 
Q 2525 409 2770 889 
Q 3016 1369 3016 2328 
Q 3016 3291 2770 3770 
Q 2525 4250 2034 4250 
z
M 2034 4750 
Q 2819 4750 3233 4129 
Q 3647 3509 3647 2328 
Q 3647 1150 3233 529 
Q 2819 -91 2034 -91 
Q 1250 -91 836 529 
Q 422 1150 422 2328 
Q 422 3509 836 4129 
Q 1250 4750 2034 4750 
z
" transform="scale(0.015625)"/>
        <path id="DejaVuSans-2d" d="M 313 2009 
L 1997 2009 
L 1997 1497 
L 313 1497 
L 313 2009 
z
" transform="scale(0.015625)"/>
        <path id="DejaVuSans-33" d="M 2597 2516 
Q 3050 2419 3304 2112 
Q 3559 1806 3559 1356 
Q 3559 666 3084 287 
Q 2609 -91 1734 -91 
Q 1441 -91 1130 -33 
Q 819 25 488 141 
L 488 750 
Q 750 597 1062 519 
Q 1375 441 1716 441 
Q 2309 441 2620 675 
Q 2931 909 2931 1356 
Q 2931 1769 2642 2001 
Q 2353 2234 1838 2234 
L 1294 2234 
L 1294 2753 
L 1863 2753 
Q 2328 2753 2575 2939 
Q 2822 3125 2822 3475 
Q 2822 3834 2567 4026 
Q 2313 4219 1838 4219 
Q 1578 4219 1281 4162 
Q 984 4106 628 3988 
L 628 4550 
Q 988 4650 1302 4700 
Q 1616 4750 1894 4750 
Q 2613 4750 3031 4423 
Q 3450 4097 3450 3541 
Q 3450 3153 3228 2886 
Q 3006 2619 2597 2516 
z
" transform="scale(0.015625)"/>
        <path id="DejaVuSans-31" d="M 794 531 
L 1825 531 
L 1825 4091 
L 703 3866 
L 703 4441 
L 1819 4666 
L 2450 4666 
L 2450 531 
L 3481 531 
L 3481 0 
L 794 0 
L 794 531 
z
" transform="scale(0.015625)"/>
       </defs>
       <use xlink:href="#DejaVuSans-32"/>
       <use xlink:href="#DejaVuSans-30" x="63.623047"/>
       <use xlink:href="#DejaVuSans-32" x="127.246094"/>
       <use xlink:href="#DejaVuSans-32" x="190.869141"/>
       <use xlink:href="#DejaVuSans-2d" x="254.492188"/>
       <use xlink:href="#DejaVuSans-30" x="290.576172"/>
       <use xlink:href="#DejaVuSans-33" x="354.199219"/>
       <use xlink:href="#DejaVuSans-2d" x="417.822266"/>
       <use xlink:href="#DejaVuSans-30" x="453.90625"/>
       <use xlink:href="#DejaVuSans-31" x="517.529297"/>
      </g>
     </g>
    </g>
    <g id="xtick_2">
     <g id="line2d_2">
      <g>
       <use xlink:href="#m2c1a084fef" x="160.235816" y="395.439505" style="stroke: #000000; stroke-width: 0.8"/>
      </g>
     </g>
     <g id="text_2">
      <!-- 2022-03-29 -->
      <g transform="translate(75.106789 495.373224) rotate(-45) scale(0.2 -0.2)">
       <defs>
        <path id="DejaVuSans-39" d="M 703 97 
L 703 672 
Q 941 559 1184 500 
Q 1428 441 1663 441 
Q 2288 441 2617 861 
Q 2947 1281 2994 2138 
Q 2813 1869 2534 1725 
Q 2256 1581 1919 1581 
Q 1219 1581 811 2004 
Q 403 2428 403 3163 
Q 403 3881 828 4315 
Q 1253 4750 1959 4750 
Q 2769 4750 3195 4129 
Q 3622 3509 3622 2328 
Q 3622 1225 3098 567 
Q 2575 -91 1691 -91 
Q 1453 -91 1209 -44 
Q 966 3 703 97 
z
M 1959 2075 
Q 2384 2075 2632 2365 
Q 2881 2656 2881 3163 
Q 2881 3666 2632 3958 
Q 2384 4250 1959 4250 
Q 1534 4250 1286 3958 
Q 1038 3666 1038 3163 
Q 1038 2656 1286 2365 
Q 1534 2075 1959 2075 
z
" transform="scale(0.015625)"/>
       </defs>
       <use xlink:href="#DejaVuSans-32"/>
       <use xlink:href="#DejaVuSans-30" x="63.623047"/>
       <use xlink:href="#DejaVuSans-32" x="127.246094"/>
       <use xlink:href="#DejaVuSans-32" x="190.869141"/>
       <use xlink:href="#DejaVuSans-2d" x="254.492188"/>
       <use xlink:href="#DejaVuSans-30" x="290.576172"/>
       <use xlink:href="#DejaVuSans-33" x="354.199219"/>
       <use xlink:href="#DejaVuSans-2d" x="417.822266"/>
       <use xlink:href="#DejaVuSans-32" x="453.90625"/>
       <use xlink:href="#DejaVuSans-39" x="517.529297"/>
      </g>
     </g>
    </g>
    <g id="xtick_3">
     <g id="line2d_3">
      <g>
       <use xlink:href="#m2c1a084fef" x="217.396792" y="395.439505" style="stroke: #000000; stroke-width: 0.8"/>
      </g>
     </g>
     <g id="text_3">
      <!-- 2022-04-26 -->
      <g transform="translate(132.267765 495.373224) rotate(-45) scale(0.2 -0.2)">
       <defs>
        <path id="DejaVuSans-34" d="M 2419 4116 
L 825 1625 
L 2419 1625 
L 2419 4116 
z
M 2253 4666 
L 3047 4666 
L 3047 1625 
L 3713 1625 
L 3713 1100 
L 3047 1100 
L 3047 0 
L 2419 0 
L 2419 1100 
L 313 1100 
L 313 1709 
L 2253 4666 
z
" transform="scale(0.015625)"/>
        <path id="DejaVuSans-36" d="M 2113 2584 
Q 1688 2584 1439 2293 
Q 1191 2003 1191 1497 
Q 1191 994 1439 701 
Q 1688 409 2113 409 
Q 2538 409 2786 701 
Q 3034 994 3034 1497 
Q 3034 2003 2786 2293 
Q 2538 2584 2113 2584 
z
M 3366 4563 
L 3366 3988 
Q 3128 4100 2886 4159 
Q 2644 4219 2406 4219 
Q 1781 4219 1451 3797 
Q 1122 3375 1075 2522 
Q 1259 2794 1537 2939 
Q 1816 3084 2150 3084 
Q 2853 3084 3261 2657 
Q 3669 2231 3669 1497 
Q 3669 778 3244 343 
Q 2819 -91 2113 -91 
Q 1303 -91 875 529 
Q 447 1150 447 2328 
Q 447 3434 972 4092 
Q 1497 4750 2381 4750 
Q 2619 4750 2861 4703 
Q 3103 4656 3366 4563 
z
" transform="scale(0.015625)"/>
       </defs>
       <use xlink:href="#DejaVuSans-32"/>
       <use xlink:href="#DejaVuSans-30" x="63.623047"/>
       <use xlink:href="#DejaVuSans-32" x="127.246094"/>
       <use xlink:href="#DejaVuSans-32" x="190.869141"/>
       <use xlink:href="#DejaVuSans-2d" x="254.492188"/>
       <use xlink:href="#DejaVuSans-30" x="290.576172"/>
       <use xlink:href="#DejaVuSans-34" x="354.199219"/>
       <use xlink:href="#DejaVuSans-2d" x="417.822266"/>
       <use xlink:href="#DejaVuSans-32" x="453.90625"/>
       <use xlink:href="#DejaVuSans-36" x="517.529297"/>
      </g>
     </g>
    </g>
    <g id="xtick_4">
     <g id="line2d_4">
      <g>
       <use xlink:href="#m2c1a084fef" x="274.557768" y="395.439505" style="stroke: #000000; stroke-width: 0.8"/>
      </g>
     </g>
     <g id="text_4">
      <!-- 2022-05-24 -->
      <g transform="translate(189.42874 495.373224) rotate(-45) scale(0.2 -0.2)">
       <defs>
        <path id="DejaVuSans-35" d="M 691 4666 
L 3169 4666 
L 3169 4134 
L 1269 4134 
L 1269 2991 
Q 1406 3038 1543 3061 
Q 1681 3084 1819 3084 
Q 2600 3084 3056 2656 
Q 3513 2228 3513 1497 
Q 3513 744 3044 326 
Q 2575 -91 1722 -91 
Q 1428 -91 1123 -41 
Q 819 9 494 109 
L 494 744 
Q 775 591 1075 516 
Q 1375 441 1709 441 
Q 2250 441 2565 725 
Q 2881 1009 2881 1497 
Q 2881 1984 2565 2268 
Q 2250 2553 1709 2553 
Q 1456 2553 1204 2497 
Q 953 2441 691 2322 
L 691 4666 
z
" transform="scale(0.015625)"/>
       </defs>
       <use xlink:href="#DejaVuSans-32"/>
       <use xlink:href="#DejaVuSans-30" x="63.623047"/>
       <use xlink:href="#DejaVuSans-32" x="127.246094"/>
       <use xlink:href="#DejaVuSans-32" x="190.869141"/>
       <use xlink:href="#DejaVuSans-2d" x="254.492188"/>
       <use xlink:href="#DejaVuSans-30" x="290.576172"/>
       <use xlink:href="#DejaVuSans-35" x="354.199219"/>
       <use xlink:href="#DejaVuSans-2d" x="417.822266"/>
       <use xlink:href="#DejaVuSans-32" x="453.90625"/>
       <use xlink:href="#DejaVuSans-34" x="517.529297"/>
      </g>
     </g>
    </g>
    <g id="xtick_5">
     <g id="line2d_5">
      <g>
       <use xlink:href="#m2c1a084fef" x="331.718743" y="395.439505" style="stroke: #000000; stroke-width: 0.8"/>
      </g>
     </g>
     <g id="text_5">
      <!-- 2022-06-21 -->
      <g transform="translate(246.589716 495.373224) rotate(-45) scale(0.2 -0.2)">
       <use xlink:href="#DejaVuSans-32"/>
       <use xlink:href="#DejaVuSans-30" x="63.623047"/>
       <use xlink:href="#DejaVuSans-32" x="127.246094"/>
       <use xlink:href="#DejaVuSans-32" x="190.869141"/>
       <use xlink:href="#DejaVuSans-2d" x="254.492188"/>
       <use xlink:href="#DejaVuSans-30" x="290.576172"/>
       <use xlink:href="#DejaVuSans-36" x="354.199219"/>
       <use xlink:href="#DejaVuSans-2d" x="417.822266"/>
       <use xlink:href="#DejaVuSans-32" x="453.90625"/>
       <use xlink:href="#DejaVuSans-31" x="517.529297"/>
      </g>
     </g>
    </g>
    <g id="xtick_6">
     <g id="line2d_6">
      <g>
       <use xlink:href="#m2c1a084fef" x="388.879719" y="395.439505" style="stroke: #000000; stroke-width: 0.8"/>
      </g>
     </g>
     <g id="text_6">
      <!-- 2022-07-19 -->
      <g transform="translate(303.750691 495.373224) rotate(-45) scale(0.2 -0.2)">
       <defs>
        <path id="DejaVuSans-37" d="M 525 4666 
L 3525 4666 
L 3525 4397 
L 1831 0 
L 1172 0 
L 2766 4134 
L 525 4134 
L 525 4666 
z
" transform="scale(0.015625)"/>
       </defs>
       <use xlink:href="#DejaVuSans-32"/>
       <use xlink:href="#DejaVuSans-30" x="63.623047"/>
       <use xlink:href="#DejaVuSans-32" x="127.246094"/>
       <use xlink:href="#DejaVuSans-32" x="190.869141"/>
       <use xlink:href="#DejaVuSans-2d" x="254.492188"/>
       <use xlink:href="#DejaVuSans-30" x="290.576172"/>
       <use xlink:href="#DejaVuSans-37" x="354.199219"/>
       <use xlink:href="#DejaVuSans-2d" x="417.822266"/>
       <use xlink:href="#DejaVuSans-31" x="453.90625"/>
       <use xlink:href="#DejaVuSans-39" x="517.529297"/>
      </g>
     </g>
    </g>
    <g id="xtick_7">
     <g id="line2d_7">
      <g>
       <use xlink:href="#m2c1a084fef" x="446.040694" y="395.439505" style="stroke: #000000; stroke-width: 0.8"/>
      </g>
     </g>
     <g id="text_7">
      <!-- 2022-08-16 -->
      <g transform="translate(360.911667 495.373224) rotate(-45) scale(0.2 -0.2)">
       <defs>
        <path id="DejaVuSans-38" d="M 2034 2216 
Q 1584 2216 1326 1975 
Q 1069 1734 1069 1313 
Q 1069 891 1326 650 
Q 1584 409 2034 409 
Q 2484 409 2743 651 
Q 3003 894 3003 1313 
Q 3003 1734 2745 1975 
Q 2488 2216 2034 2216 
z
M 1403 2484 
Q 997 2584 770 2862 
Q 544 3141 544 3541 
Q 544 4100 942 4425 
Q 1341 4750 2034 4750 
Q 2731 4750 3128 4425 
Q 3525 4100 3525 3541 
Q 3525 3141 3298 2862 
Q 3072 2584 2669 2484 
Q 3125 2378 3379 2068 
Q 3634 1759 3634 1313 
Q 3634 634 3220 271 
Q 2806 -91 2034 -91 
Q 1263 -91 848 271 
Q 434 634 434 1313 
Q 434 1759 690 2068 
Q 947 2378 1403 2484 
z
M 1172 3481 
Q 1172 3119 1398 2916 
Q 1625 2713 2034 2713 
Q 2441 2713 2670 2916 
Q 2900 3119 2900 3481 
Q 2900 3844 2670 4047 
Q 2441 4250 2034 4250 
Q 1625 4250 1398 4047 
Q 1172 3844 1172 3481 
z
" transform="scale(0.015625)"/>
       </defs>
       <use xlink:href="#DejaVuSans-32"/>
       <use xlink:href="#DejaVuSans-30" x="63.623047"/>
       <use xlink:href="#DejaVuSans-32" x="127.246094"/>
       <use xlink:href="#DejaVuSans-32" x="190.869141"/>
       <use xlink:href="#DejaVuSans-2d" x="254.492188"/>
       <use xlink:href="#DejaVuSans-30" x="290.576172"/>
       <use xlink:href="#DejaVuSans-38" x="354.199219"/>
       <use xlink:href="#DejaVuSans-2d" x="417.822266"/>
       <use xlink:href="#DejaVuSans-31" x="453.90625"/>
       <use xlink:href="#DejaVuSans-36" x="517.529297"/>
      </g>
     </g>
    </g>
    <g id="xtick_8">
     <g id="line2d_8">
      <g>
       <use xlink:href="#m2c1a084fef" x="503.20167" y="395.439505" style="stroke: #000000; stroke-width: 0.8"/>
      </g>
     </g>
     <g id="text_8">
      <!-- 2022-09-13 -->
      <g transform="translate(418.072643 495.373224) rotate(-45) scale(0.2 -0.2)">
       <use xlink:href="#DejaVuSans-32"/>
       <use xlink:href="#DejaVuSans-30" x="63.623047"/>
       <use xlink:href="#DejaVuSans-32" x="127.246094"/>
       <use xlink:href="#DejaVuSans-32" x="190.869141"/>
       <use xlink:href="#DejaVuSans-2d" x="254.492188"/>
       <use xlink:href="#DejaVuSans-30" x="290.576172"/>
       <use xlink:href="#DejaVuSans-39" x="354.199219"/>
       <use xlink:href="#DejaVuSans-2d" x="417.822266"/>
       <use xlink:href="#DejaVuSans-31" x="453.90625"/>
       <use xlink:href="#DejaVuSans-33" x="517.529297"/>
      </g>
     </g>
    </g>
    <g id="xtick_9">
     <g id="line2d_9">
      <g>
       <use xlink:href="#m2c1a084fef" x="560.362646" y="395.439505" style="stroke: #000000; stroke-width: 0.8"/>
      </g>
     </g>
     <g id="text_9">
      <!-- 2022-10-11 -->
      <g transform="translate(475.233618 495.373224) rotate(-45) scale(0.2 -0.2)">
       <use xlink:href="#DejaVuSans-32"/>
       <use xlink:href="#DejaVuSans-30" x="63.623047"/>
       <use xlink:href="#DejaVuSans-32" x="127.246094"/>
       <use xlink:href="#DejaVuSans-32" x="190.869141"/>
       <use xlink:href="#DejaVuSans-2d" x="254.492188"/>
       <use xlink:href="#DejaVuSans-31" x="290.576172"/>
       <use xlink:href="#DejaVuSans-30" x="354.199219"/>
       <use xlink:href="#DejaVuSans-2d" x="417.822266"/>
       <use xlink:href="#DejaVuSans-31" x="453.90625"/>
       <use xlink:href="#DejaVuSans-31" x="517.529297"/>
      </g>
     </g>
    </g>
    <g id="xtick_10">
     <g id="line2d_10">
      <g>
       <use xlink:href="#m2c1a084fef" x="617.523621" y="395.439505" style="stroke: #000000; stroke-width: 0.8"/>
      </g>
     </g>
     <g id="text_10">
      <!-- 2022-11-08 -->
      <g transform="translate(532.394594 495.373224) rotate(-45) scale(0.2 -0.2)">
       <use xlink:href="#DejaVuSans-32"/>
       <use xlink:href="#DejaVuSans-30" x="63.623047"/>
       <use xlink:href="#DejaVuSans-32" x="127.246094"/>
       <use xlink:href="#DejaVuSans-32" x="190.869141"/>
       <use xlink:href="#DejaVuSans-2d" x="254.492188"/>
       <use xlink:href="#DejaVuSans-31" x="290.576172"/>
       <use xlink:href="#DejaVuSans-31" x="354.199219"/>
       <use xlink:href="#DejaVuSans-2d" x="417.822266"/>
       <use xlink:href="#DejaVuSans-30" x="453.90625"/>
       <use xlink:href="#DejaVuSans-38" x="517.529297"/>
      </g>
     </g>
    </g>
    <g id="xtick_11">
     <g id="line2d_11">
      <g>
       <use xlink:href="#m2c1a084fef" x="674.684597" y="395.439505" style="stroke: #000000; stroke-width: 0.8"/>
      </g>
     </g>
     <g id="text_11">
      <!-- 2022-12-06 -->
      <g transform="translate(589.555569 495.373224) rotate(-45) scale(0.2 -0.2)">
       <use xlink:href="#DejaVuSans-32"/>
       <use xlink:href="#DejaVuSans-30" x="63.623047"/>
       <use xlink:href="#DejaVuSans-32" x="127.246094"/>
       <use xlink:href="#DejaVuSans-32" x="190.869141"/>
       <use xlink:href="#DejaVuSans-2d" x="254.492188"/>
       <use xlink:href="#DejaVuSans-31" x="290.576172"/>
       <use xlink:href="#DejaVuSans-32" x="354.199219"/>
       <use xlink:href="#DejaVuSans-2d" x="417.822266"/>
       <use xlink:href="#DejaVuSans-30" x="453.90625"/>
       <use xlink:href="#DejaVuSans-36" x="517.529297"/>
      </g>
     </g>
    </g>
    <g id="xtick_12">
     <g id="line2d_12">
      <g>
       <use xlink:href="#m2c1a084fef" x="731.845572" y="395.439505" style="stroke: #000000; stroke-width: 0.8"/>
      </g>
     </g>
     <g id="text_12">
      <!-- 2023-01-03 -->
      <g transform="translate(646.716545 495.373224) rotate(-45) scale(0.2 -0.2)">
       <use xlink:href="#DejaVuSans-32"/>
       <use xlink:href="#DejaVuSans-30" x="63.623047"/>
       <use xlink:href="#DejaVuSans-32" x="127.246094"/>
       <use xlink:href="#DejaVuSans-33" x="190.869141"/>
       <use xlink:href="#DejaVuSans-2d" x="254.492188"/>
       <use xlink:href="#DejaVuSans-30" x="290.576172"/>
       <use xlink:href="#DejaVuSans-31" x="354.199219"/>
       <use xlink:href="#DejaVuSans-2d" x="417.822266"/>
       <use xlink:href="#DejaVuSans-30" x="453.90625"/>
       <use xlink:href="#DejaVuSans-33" x="517.529297"/>
      </g>
     </g>
    </g>
    <g id="xtick_13">
     <g id="line2d_13">
      <g>
       <use xlink:href="#m2c1a084fef" x="789.006548" y="395.439505" style="stroke: #000000; stroke-width: 0.8"/>
      </g>
     </g>
     <g id="text_13">
      <!-- 2023-01-31 -->
      <g transform="translate(703.877521 495.373224) rotate(-45) scale(0.2 -0.2)">
       <use xlink:href="#DejaVuSans-32"/>
       <use xlink:href="#DejaVuSans-30" x="63.623047"/>
       <use xlink:href="#DejaVuSans-32" x="127.246094"/>
       <use xlink:href="#DejaVuSans-33" x="190.869141"/>
       <use xlink:href="#DejaVuSans-2d" x="254.492188"/>
       <use xlink:href="#DejaVuSans-30" x="290.576172"/>
       <use xlink:href="#DejaVuSans-31" x="354.199219"/>
       <use xlink:href="#DejaVuSans-2d" x="417.822266"/>
       <use xlink:href="#DejaVuSans-33" x="453.90625"/>
       <use xlink:href="#DejaVuSans-31" x="517.529297"/>
      </g>
     </g>
    </g>
    <g id="xtick_14">
     <g id="line2d_14">
      <g>
       <use xlink:href="#m2c1a084fef" x="846.167524" y="395.439505" style="stroke: #000000; stroke-width: 0.8"/>
      </g>
     </g>
     <g id="text_14">
      <!-- 2023-02-28 -->
      <g transform="translate(761.038496 495.373224) rotate(-45) scale(0.2 -0.2)">
       <use xlink:href="#DejaVuSans-32"/>
       <use xlink:href="#DejaVuSans-30" x="63.623047"/>
       <use xlink:href="#DejaVuSans-32" x="127.246094"/>
       <use xlink:href="#DejaVuSans-33" x="190.869141"/>
       <use xlink:href="#DejaVuSans-2d" x="254.492188"/>
       <use xlink:href="#DejaVuSans-30" x="290.576172"/>
       <use xlink:href="#DejaVuSans-32" x="354.199219"/>
       <use xlink:href="#DejaVuSans-2d" x="417.822266"/>
       <use xlink:href="#DejaVuSans-32" x="453.90625"/>
       <use xlink:href="#DejaVuSans-38" x="517.529297"/>
      </g>
     </g>
    </g>
    <g id="xtick_15">
     <g id="line2d_15">
      <g>
       <use xlink:href="#m2c1a084fef" x="903.328499" y="395.439505" style="stroke: #000000; stroke-width: 0.8"/>
      </g>
     </g>
     <g id="text_15">
      <!-- 2023-03-28 -->
      <g transform="translate(818.199472 495.373224) rotate(-45) scale(0.2 -0.2)">
       <use xlink:href="#DejaVuSans-32"/>
       <use xlink:href="#DejaVuSans-30" x="63.623047"/>
       <use xlink:href="#DejaVuSans-32" x="127.246094"/>
       <use xlink:href="#DejaVuSans-33" x="190.869141"/>
       <use xlink:href="#DejaVuSans-2d" x="254.492188"/>
       <use xlink:href="#DejaVuSans-30" x="290.576172"/>
       <use xlink:href="#DejaVuSans-33" x="354.199219"/>
       <use xlink:href="#DejaVuSans-2d" x="417.822266"/>
       <use xlink:href="#DejaVuSans-32" x="453.90625"/>
       <use xlink:href="#DejaVuSans-38" x="517.529297"/>
      </g>
     </g>
    </g>
    <g id="xtick_16">
     <g id="line2d_16">
      <g>
       <use xlink:href="#m2c1a084fef" x="940.074841" y="395.439505" style="stroke: #000000; stroke-width: 0.8"/>
      </g>
     </g>
     <g id="text_16">
      <!-- 2023-04-15 -->
      <g transform="translate(854.945813 495.373224) rotate(-45) scale(0.2 -0.2)">
       <use xlink:href="#DejaVuSans-32"/>
       <use xlink:href="#DejaVuSans-30" x="63.623047"/>
       <use xlink:href="#DejaVuSans-32" x="127.246094"/>
       <use xlink:href="#DejaVuSans-33" x="190.869141"/>
       <use xlink:href="#DejaVuSans-2d" x="254.492188"/>
       <use xlink:href="#DejaVuSans-30" x="290.576172"/>
       <use xlink:href="#DejaVuSans-34" x="354.199219"/>
       <use xlink:href="#DejaVuSans-2d" x="417.822266"/>
       <use xlink:href="#DejaVuSans-31" x="453.90625"/>
       <use xlink:href="#DejaVuSans-35" x="517.529297"/>
      </g>
     </g>
    </g>
   </g>
   <g id="matplotlib.axis_2">
    <g id="ytick_1">
     <g id="line2d_17">
      <defs>
       <path id="mbfcb938d0a" d="M 0 0 
L -3.5 0 
" style="stroke: #000000; stroke-width: 0.8"/>
      </defs>
      <g>
       <use xlink:href="#mbfcb938d0a" x="103.074841" y="364.944363" style="stroke: #000000; stroke-width: 0.8"/>
      </g>
     </g>
     <g id="text_17">
      <!-- 0.10 -->
      <g transform="translate(34.784216 372.542801) scale(0.2 -0.2)">
       <defs>
        <path id="DejaVuSans-2212" d="M 678 2272 
L 4684 2272 
L 4684 1741 
L 678 1741 
L 678 2272 
z
" transform="scale(0.015625)"/>
        <path id="DejaVuSans-2e" d="M 684 794 
L 1344 794 
L 1344 0 
L 684 0 
L 684 794 
z
" transform="scale(0.015625)"/>
       </defs>
       <use xlink:href="#DejaVuSans-2212"/>
       <use xlink:href="#DejaVuSans-30" x="83.789062"/>
       <use xlink:href="#DejaVuSans-2e" x="147.412109"/>
       <use xlink:href="#DejaVuSans-31" x="179.199219"/>
       <use xlink:href="#DejaVuSans-30" x="242.822266"/>
      </g>
     </g>
    </g>
    <g id="ytick_2">
     <g id="line2d_18">
      <g>
       <use xlink:href="#mbfcb938d0a" x="103.074841" y="294.915178" style="stroke: #000000; stroke-width: 0.8"/>
      </g>
     </g>
     <g id="text_18">
      <!-- 0.05 -->
      <g transform="translate(34.784216 302.513616) scale(0.2 -0.2)">
       <use xlink:href="#DejaVuSans-2212"/>
       <use xlink:href="#DejaVuSans-30" x="83.789062"/>
       <use xlink:href="#DejaVuSans-2e" x="147.412109"/>
       <use xlink:href="#DejaVuSans-30" x="179.199219"/>
       <use xlink:href="#DejaVuSans-35" x="242.822266"/>
      </g>
     </g>
    </g>
    <g id="ytick_3">
     <g id="line2d_19">
      <g>
       <use xlink:href="#mbfcb938d0a" x="103.074841" y="224.885993" style="stroke: #000000; stroke-width: 0.8"/>
      </g>
     </g>
     <g id="text_19">
      <!-- 0.00 -->
      <g transform="translate(51.543591 232.48443) scale(0.2 -0.2)">
       <use xlink:href="#DejaVuSans-30"/>
       <use xlink:href="#DejaVuSans-2e" x="63.623047"/>
       <use xlink:href="#DejaVuSans-30" x="95.410156"/>
       <use xlink:href="#DejaVuSans-30" x="159.033203"/>
      </g>
     </g>
    </g>
    <g id="ytick_4">
     <g id="line2d_20">
      <g>
       <use xlink:href="#mbfcb938d0a" x="103.074841" y="154.856808" style="stroke: #000000; stroke-width: 0.8"/>
      </g>
     </g>
     <g id="text_20">
      <!-- 0.05 -->
      <g transform="translate(51.543591 162.455245) scale(0.2 -0.2)">
       <use xlink:href="#DejaVuSans-30"/>
       <use xlink:href="#DejaVuSans-2e" x="63.623047"/>
       <use xlink:href="#DejaVuSans-30" x="95.410156"/>
       <use xlink:href="#DejaVuSans-35" x="159.033203"/>
      </g>
     </g>
    </g>
    <g id="ytick_5">
     <g id="line2d_21">
      <g>
       <use xlink:href="#mbfcb938d0a" x="103.074841" y="84.827623" style="stroke: #000000; stroke-width: 0.8"/>
      </g>
     </g>
     <g id="text_21">
      <!-- 0.10 -->
      <g transform="translate(51.543591 92.42606) scale(0.2 -0.2)">
       <use xlink:href="#DejaVuSans-30"/>
       <use xlink:href="#DejaVuSans-2e" x="63.623047"/>
       <use xlink:href="#DejaVuSans-31" x="95.410156"/>
       <use xlink:href="#DejaVuSans-30" x="159.033203"/>
      </g>
     </g>
    </g>
    <g id="ytick_6">
     <g id="line2d_22">
      <g>
       <use xlink:href="#mbfcb938d0a" x="103.074841" y="14.798437" style="stroke: #000000; stroke-width: 0.8"/>
      </g>
     </g>
     <g id="text_22">
      <!-- 0.15 -->
      <g transform="translate(51.543591 22.396875) scale(0.2 -0.2)">
       <use xlink:href="#DejaVuSans-30"/>
       <use xlink:href="#DejaVuSans-2e" x="63.623047"/>
       <use xlink:href="#DejaVuSans-31" x="95.410156"/>
       <use xlink:href="#DejaVuSans-35" x="159.033203"/>
      </g>
     </g>
    </g>
   </g>
   <g id="line2d_23">
    <path d="M 427.667524 44.117962 
L 435.833377 44.117962 
L 437.874841 179.203835 
L 439.916304 268.818786 
L 441.957768 268.818786 
L 443.999231 241.052444 
L 446.040694 304.052599 
L 448.082158 304.052599 
L 450.123621 377.799505 
L 454.206548 377.799505 
L 456.248011 300.700707 
L 458.289475 281.824483 
L 466.455328 281.824483 
L 468.496792 254.515391 
L 470.538255 215.487245 
L 472.579719 215.487245 
L 474.621182 294.396446 
L 476.662646 255.859545 
L 478.704109 118.930971 
L 480.745572 62.001479 
L 484.828499 62.001479 
L 486.869963 176.956748 
L 503.20167 176.956748 
L 505.243133 125.81389 
L 507.284597 125.81389 
L 507.284597 125.81389 
" clip-path="url(#pff161d2def)" style="fill: none; stroke: #ffa500; stroke-width: 1.5; stroke-linecap: square"/>
   </g>
   <g id="line2d_24">
    <path d="M 103.074841 224.885993 
L 948.274841 224.885993 
" clip-path="url(#pff161d2def)" style="fill: none; stroke-dasharray: 7.4,3.2; stroke-dashoffset: 0; stroke: #000000; stroke-width: 2"/>
   </g>
   <g id="patch_3">
    <path d="M 103.074841 395.439505 
L 103.074841 7.359505 
" style="fill: none; stroke: #000000; stroke-width: 0.8; stroke-linejoin: miter; stroke-linecap: square"/>
   </g>
   <g id="patch_4">
    <path d="M 940.074841 395.439505 
L 940.074841 7.359505 
" style="fill: none; stroke: #000000; stroke-width: 0.8; stroke-linejoin: miter; stroke-linecap: square"/>
   </g>
   <g id="patch_5">
    <path d="M 103.074841 395.439505 
L 940.074841 395.439505 
" style="fill: none; stroke: #000000; stroke-width: 0.8; stroke-linejoin: miter; stroke-linecap: square"/>
   </g>
   <g id="patch_6">
    <path d="M 103.074841 7.359505 
L 940.074841 7.359505 
" style="fill: none; stroke: #000000; stroke-width: 0.8; stroke-linejoin: miter; stroke-linecap: square"/>
   </g>
  </g>
 </g>
 <defs>
  <clipPath id="pff161d2def">
   <rect x="103.074841" y="7.359505" width="837" height="388.08"/>
  </clipPath>
 </defs>
</svg>
