<?xml version="1.0" encoding="utf-8" standalone="no"?>
<!DOCTYPE svg PUBLIC "-//W3C//DTD SVG 1.1//EN"
  "http://www.w3.org/Graphics/SVG/1.1/DTD/svg11.dtd">
<svg xmlns:xlink="http://www.w3.org/1999/xlink" width="947.274841pt" height="505.354841pt" viewBox="0 0 947.274841 505.354841" xmlns="http://www.w3.org/2000/svg" version="1.1">
 <metadata>
  <rdf:RDF xmlns:dc="http://purl.org/dc/elements/1.1/" xmlns:cc="http://creativecommons.org/ns#" xmlns:rdf="http://www.w3.org/1999/02/22-rdf-syntax-ns#">
   <cc:Work>
    <dc:type rdf:resource="http://purl.org/dc/dcmitype/StillImage"/>
    <dc:date>2023-11-15T18:16:43.309005</dc:date>
    <dc:format>image/svg+xml</dc:format>
    <dc:creator>
     <cc:Agent>
      <dc:title>Matplotlib v3.7.2, https://matplotlib.org/</dc:title>
     </cc:Agent>
    </dc:creator>
   </cc:Work>
  </rdf:RDF>
 </metadata>
 <defs>
  <style type="text/css">*{stroke-linejoin: round; stroke-linecap: butt}</style>
 </defs>
 <g id="figure_1">
  <g id="patch_1">
   <path d="M 0 505.354841 
L 947.274841 505.354841 
L 947.274841 -0 
L 0 -0 
z
" style="fill: #ffffff"/>
  </g>
  <g id="axes_1">
   <g id="patch_2">
    <path d="M 103.074841 395.28 
L 940.074841 395.28 
L 940.074841 7.2 
L 103.074841 7.2 
z
" style="fill: #ffffff"/>
   </g>
   <g id="PolyCollection_1">
    <path d="M -4315.31939 274.849342 
L -4315.31939 274.870852 
L -4307.271313 274.765974 
L -4299.223236 274.674315 
L -4291.175159 274.558008 
L -4283.127082 274.47902 
L -4275.079005 274.378786 
L -4267.030929 274.269165 
L -4258.982852 274.165925 
L -4250.934775 274.068427 
L -4242.886698 273.981826 
L -4234.838621 273.882731 
L -4226.790544 273.779123 
L -4218.742467 273.678113 
L -4210.69439 273.555731 
L -4202.646313 273.452959 
L -4194.598236 273.333214 
L -4186.550159 273.229428 
L -4178.502082 273.091892 
L -4170.454005 272.977253 
L -4162.405929 272.866405 
L -4154.357852 272.736698 
L -4146.309775 272.60987 
L -4138.261698 272.485489 
L -4130.213621 272.336994 
L -4122.165544 272.205703 
L -4114.117467 272.053288 
L -4106.06939 271.898801 
L -4098.021313 271.72859 
L -4089.973236 271.553567 
L -4081.925159 271.381663 
L -4073.877082 271.183916 
L -4065.829005 270.961154 
L -4057.780929 270.761458 
L -4049.732852 270.535584 
L -4041.684775 270.278749 
L -4033.636698 270.038091 
L -4025.588621 269.75757 
L -4017.540544 269.472056 
L -4009.492467 269.177549 
L -4001.44439 268.866574 
L -3993.396313 268.52284 
L -3985.348236 268.157036 
L -3977.300159 267.769498 
L -3969.252082 267.394197 
L -3961.204005 266.95601 
L -3953.155929 266.537159 
L -3945.107852 266.091527 
L -3937.059775 265.643227 
L -3929.011698 265.161627 
L -3920.963621 264.641444 
L -3912.915544 264.156996 
L -3904.867467 263.619871 
L -3896.81939 263.064153 
L -3888.771313 262.518304 
L -3880.723236 261.977084 
L -3872.675159 261.391833 
L -3864.627082 260.800026 
L -3856.579005 260.208729 
L -3848.530929 259.593539 
L -3840.482852 258.970716 
L -3832.434775 258.349189 
L -3824.386698 257.707279 
L -3816.338621 257.063603 
L -3808.290544 256.428815 
L -3800.242467 255.768942 
L -3792.19439 255.065117 
L -3784.146313 254.381801 
L -3776.098236 253.699764 
L -3768.050159 253.027687 
L -3760.002082 252.329355 
L -3751.954005 251.646341 
L -3743.905929 250.952163 
L -3735.857852 250.322034 
L -3727.809775 249.586518 
L -3719.761698 248.944526 
L -3711.713621 248.244891 
L -3703.665544 247.577642 
L -3695.617467 246.888402 
L -3687.56939 246.266372 
L -3679.521313 245.557744 
L -3671.473236 244.889563 
L -3663.425159 244.267948 
L -3655.377082 243.595131 
L -3647.329005 242.956366 
L -3639.280929 242.290934 
L -3631.232852 241.62121 
L -3623.184775 240.976229 
L -3615.136698 240.343243 
L -3607.088621 239.664569 
L -3599.040544 239.017666 
L -3590.992467 238.359063 
L -3582.94439 237.710733 
L -3574.896313 237.076971 
L -3566.848236 236.427038 
L -3558.800159 235.77124 
L -3550.752082 235.177047 
L -3542.704005 234.509569 
L -3534.655929 233.868686 
L -3526.607852 233.237936 
L -3518.559775 232.606697 
L -3510.511698 231.977138 
L -3502.463621 231.340186 
L -3494.415544 230.731085 
L -3486.367467 230.099333 
L -3478.31939 229.453097 
L -3470.271313 228.800194 
L -3462.223236 228.140732 
L -3454.175159 227.520874 
L -3446.127082 226.842852 
L -3438.079005 226.122522 
L -3430.030929 225.443414 
L -3421.982852 224.729334 
L -3413.934775 224.004584 
L -3405.886698 223.241405 
L -3397.838621 222.464825 
L -3389.790544 221.739707 
L -3381.742467 220.918302 
L -3373.69439 220.134969 
L -3365.646313 219.294721 
L -3357.598236 218.518753 
L -3349.550159 217.61392 
L -3341.502082 216.725368 
L -3333.454005 215.859879 
L -3325.405929 214.979499 
L -3317.357852 214.07281 
L -3309.309775 213.126836 
L -3301.261698 212.236478 
L -3293.213621 211.223273 
L -3285.165544 210.325445 
L -3277.117467 209.282645 
L -3269.06939 208.269855 
L -3261.021313 207.278847 
L -3252.973236 206.325322 
L -3244.925159 205.220755 
L -3236.877082 204.216774 
L -3228.829005 202.954466 
L -3220.780929 201.859768 
L -3212.732852 200.834587 
L -3204.684775 199.683184 
L -3196.636698 198.502343 
L -3188.588621 197.150263 
L -3180.540544 195.877362 
L -3172.492467 194.802611 
L -3164.44439 193.139451 
L -3156.396313 191.787681 
L -3148.348236 190.405579 
L -3140.300159 188.971896 
L -3132.252082 187.347484 
L -3124.204005 185.812156 
L -3116.155929 184.628647 
L -3108.107852 183.141355 
L -3100.059775 180.756376 
L -3092.011698 178.732041 
L -3083.963621 177.205952 
L -3075.915544 175.129442 
L -3067.867467 173.571869 
L -3059.81939 172.299306 
L -3051.771313 170.507619 
L -3043.723236 168.047977 
L -3035.675159 166.567431 
L -3027.627082 165.763217 
L -3019.579005 163.95056 
L -3011.530929 163.302877 
L -3003.482852 162.13308 
L -2995.434775 159.965736 
L -2987.386698 160.04454 
L -2979.338621 160.811129 
L -2971.290544 162.529911 
L -2963.242467 160.42815 
L -2955.19439 164.360469 
L -2947.146313 165.177452 
L -2939.098236 159.70666 
L -2931.050159 161.166088 
L -2923.002082 163.491431 
L -2914.954005 162.019091 
L -2906.905929 161.67103 
L -2898.857852 171.876402 
L -2890.809775 186.410673 
L -2882.761698 193.622526 
L -2874.713621 177.749884 
L -2866.665544 185.849832 
L -2858.617467 196.47473 
L -2850.56939 195.823444 
L -2842.521313 217.484874 
L -2834.473236 214.497452 
L -2826.425159 207.838575 
L -2818.377082 191.377471 
L -2810.329005 206.816938 
L -2802.280929 216.094834 
L -2794.232852 212.195384 
L -2786.184775 214.605263 
L -2778.136698 223.364089 
L -2770.088621 222.182298 
L -2762.040544 214.608627 
L -2753.992467 224.098002 
L -2745.94439 225.969258 
L -2737.896313 222.562994 
L -2729.848236 228.580755 
L -2721.800159 230.770587 
L -2713.752082 230.160534 
L -2705.704005 228.315507 
L -2697.655929 230.281557 
L -2689.607852 228.241669 
L -2681.559775 228.400452 
L -2673.511698 230.271067 
L -2665.463621 228.476164 
L -2657.415544 229.381785 
L -2649.367467 229.414395 
L -2641.31939 227.958789 
L -2633.271313 228.468198 
L -2625.223236 226.377278 
L -2617.175159 226.495644 
L -2609.127082 227.04974 
L -2601.079005 227.060589 
L -2593.030929 226.028001 
L -2584.982852 225.140967 
L -2576.934775 224.898444 
L -2568.886698 223.919218 
L -2560.838621 223.742452 
L -2552.790544 223.534515 
L -2544.742467 222.059269 
L -2536.69439 222.711715 
L -2528.646313 221.726687 
L -2520.598236 221.283889 
L -2512.550159 221.281366 
L -2504.502082 220.316501 
L -2496.454005 220.055364 
L -2488.405929 220.344883 
L -2480.357852 220.835595 
L -2472.309775 219.280737 
L -2464.261698 218.994977 
L -2456.213621 218.467186 
L -2448.165544 221.088285 
L -2440.117467 221.129217 
L -2432.06939 222.131086 
L -2424.021313 219.586579 
L -2415.973236 218.01141 
L -2407.925159 218.486459 
L -2399.877082 220.214904 
L -2391.829005 220.492154 
L -2383.780929 217.416496 
L -2375.732852 219.987431 
L -2367.684775 219.326293 
L -2359.636698 218.886911 
L -2351.588621 217.45987 
L -2343.540544 218.59586 
L -2335.492467 217.895755 
L -2327.44439 218.528199 
L -2319.396313 217.594972 
L -2311.348236 216.852485 
L -2303.300159 215.527187 
L -2295.252082 214.882219 
L -2287.204005 214.291092 
L -2279.155929 213.486505 
L -2271.107852 213.293775 
L -2263.059775 212.54892 
L -2255.011698 211.750233 
L -2246.963621 209.67493 
L -2238.915544 208.09181 
L -2230.867467 207.366562 
L -2222.81939 205.637488 
L -2214.771313 205.275318 
L -2206.723236 203.758492 
L -2198.675159 201.53597 
L -2190.627082 199.678275 
L -2182.579005 198.267165 
L -2174.530929 195.964851 
L -2166.482852 194.544493 
L -2158.434775 192.490922 
L -2150.386698 190.672992 
L -2142.338621 188.393236 
L -2134.290544 186.509916 
L -2126.242467 183.958165 
L -2118.19439 181.943417 
L -2110.146313 179.755903 
L -2102.098236 176.855057 
L -2094.050159 174.151379 
L -2086.002082 172.178804 
L -2077.954005 169.794548 
L -2069.905929 166.879026 
L -2061.857852 164.704131 
L -2053.809775 162.058529 
L -2045.761698 158.251807 
L -2037.713621 156.5966 
L -2029.665544 153.360406 
L -2021.617467 150.822368 
L -2013.56939 147.933316 
L -2005.521313 144.80474 
L -1997.473236 141.742472 
L -1989.425159 138.960748 
L -1981.377082 135.204373 
L -1973.329005 132.877043 
L -1965.280929 129.206693 
L -1957.232852 126.836679 
L -1949.184775 123.076905 
L -1941.136698 119.449421 
L -1933.088621 116.121944 
L -1925.040544 113.60842 
L -1916.992467 109.465145 
L -1908.94439 106.665227 
L -1900.896313 102.97538 
L -1892.848236 99.970104 
L -1884.800159 96.07921 
L -1876.752082 92.666675 
L -1868.704005 92.173901 
L -1860.655929 85.533703 
L -1852.607852 84.461088 
L -1844.559775 80.579537 
L -1836.511698 77.908983 
L -1828.463621 74.755758 
L -1820.415544 71.389492 
L -1812.367467 68.34353 
L -1804.31939 65.398797 
L -1796.271313 62.623862 
L -1788.223236 59.831253 
L -1780.175159 61.868068 
L -1772.127082 53.741099 
L -1764.079005 51.660812 
L -1756.030929 58.180996 
L -1747.982852 48.384449 
L -1739.934775 49.914803 
L -1731.886698 48.754781 
L -1723.838621 43.607137 
L -1715.790544 44.373005 
L -1707.742467 49.185263 
L -1699.69439 45.476772 
L -1691.646313 43.719001 
L -1683.598236 46.681231 
L -1675.550159 45.43711 
L -1667.502082 47.441363 
L -1659.454005 50.194315 
L -1651.405929 54.969473 
L -1643.357852 66.172512 
L -1635.309775 63.496544 
L -1627.261698 69.532941 
L -1619.213621 74.518755 
L -1611.165544 77.163204 
L -1603.117467 83.539451 
L -1595.06939 87.556851 
L -1587.021313 79.742075 
L -1578.973236 87.147255 
L -1570.925159 99.67107 
L -1562.877082 105.866793 
L -1554.829005 108.746948 
L -1546.780929 125.619263 
L -1538.732852 127.064414 
L -1530.684775 131.731538 
L -1522.636698 130.594392 
L -1514.588621 144.852209 
L -1506.540544 140.557499 
L -1498.492467 138.159622 
L -1490.44439 150.350407 
L -1482.396313 159.035532 
L -1474.348236 158.377448 
L -1466.300159 163.574361 
L -1458.252082 165.335782 
L -1450.204005 165.753674 
L -1442.155929 165.859564 
L -1434.107852 168.797503 
L -1426.059775 170.506952 
L -1418.011698 179.419548 
L -1409.963621 175.043559 
L -1401.915544 182.829996 
L -1393.867467 181.246283 
L -1385.81939 180.358386 
L -1377.771313 183.608479 
L -1369.723236 186.525195 
L -1361.675159 183.192069 
L -1353.627082 185.082073 
L -1345.579005 185.370419 
L -1337.530929 189.706518 
L -1329.482852 187.841685 
L -1321.434775 187.075214 
L -1313.386698 188.465446 
L -1305.338621 190.659394 
L -1297.290544 189.88438 
L -1289.242467 188.107957 
L -1281.19439 189.435325 
L -1273.146313 186.640408 
L -1265.098236 187.174934 
L -1257.050159 192.347388 
L -1249.002082 192.282171 
L -1240.954005 189.721995 
L -1232.905929 189.262209 
L -1224.857852 189.816868 
L -1216.809775 187.040914 
L -1208.761698 188.003086 
L -1200.713621 188.233427 
L -1192.665544 187.836636 
L -1184.617467 187.271607 
L -1176.56939 185.660294 
L -1168.521313 187.007251 
L -1160.473236 186.01347 
L -1152.425159 185.999482 
L -1144.377082 185.598376 
L -1136.329005 185.931744 
L -1128.280929 184.767678 
L -1120.232852 182.454654 
L -1112.184775 182.597876 
L -1104.136698 180.757167 
L -1096.088621 177.987756 
L -1088.040544 180.446068 
L -1079.992467 176.57405 
L -1071.94439 178.532832 
L -1063.896313 177.987201 
L -1055.848236 178.505467 
L -1047.800159 176.088921 
L -1039.752082 176.117012 
L -1031.704005 175.951725 
L -1023.655929 172.868042 
L -1015.607852 173.882044 
L -1007.559775 173.779567 
L -999.511698 173.830565 
L -991.463621 172.440087 
L -983.415544 173.339841 
L -975.367467 171.90158 
L -967.31939 170.519138 
L -959.271313 168.249746 
L -951.223236 167.622318 
L -943.175159 167.25386 
L -935.127082 165.706729 
L -927.079005 166.094999 
L -919.030929 165.407283 
L -910.982852 164.042018 
L -902.934775 164.233056 
L -894.886698 162.660412 
L -886.838621 164.203959 
L -878.790544 163.152223 
L -870.742467 163.337953 
L -862.69439 161.35699 
L -854.646313 158.597065 
L -846.598236 161.1686 
L -838.550159 161.209429 
L -830.502082 160.394201 
L -822.454005 159.540572 
L -814.405929 157.647773 
L -806.357852 157.303863 
L -798.309775 156.307434 
L -790.261698 156.576755 
L -782.213621 156.265055 
L -774.165544 154.455272 
L -766.117467 151.845175 
L -758.06939 155.463121 
L -750.021313 154.730348 
L -741.973236 152.528359 
L -733.925159 154.092253 
L -725.877082 150.085984 
L -717.829005 150.692339 
L -709.780929 151.066583 
L -701.732852 148.39571 
L -693.684775 153.258753 
L -685.636698 148.636815 
L -677.588621 146.355693 
L -669.540544 149.601588 
L -661.492467 150.608138 
L -653.44439 149.274183 
L -645.396313 150.675322 
L -637.348236 148.700687 
L -629.300159 153.182189 
L -621.252082 151.280907 
L -613.204005 152.42494 
L -605.155929 149.810772 
L -597.107852 147.497908 
L -589.059775 151.105426 
L -581.011698 157.34754 
L -572.963621 150.945573 
L -564.915544 151.658932 
L -556.867467 149.474194 
L -548.81939 150.988623 
L -540.771313 150.984112 
L -532.723236 149.748562 
L -524.675159 149.474602 
L -516.627082 152.657632 
L -508.579005 151.453242 
L -500.530929 154.372479 
L -492.482852 155.145261 
L -484.434775 147.772887 
L -476.386698 151.167016 
L -468.338621 151.656 
L -460.290544 152.40212 
L -452.242467 153.067693 
L -444.19439 158.145132 
L -436.146313 160.27559 
L -428.098236 160.219723 
L -420.050159 165.753392 
L -412.002082 174.822174 
L -403.954005 164.368594 
L -395.905929 164.364195 
L -387.857852 164.689698 
L -379.809775 168.327241 
L -371.761698 169.235637 
L -363.713621 169.309009 
L -355.665544 177.083621 
L -347.617467 180.026941 
L -339.56939 171.433577 
L -331.521313 179.454123 
L -323.473236 175.705793 
L -315.425159 173.441248 
L -307.377082 183.19196 
L -299.329005 181.469964 
L -291.280929 187.867321 
L -283.232852 186.228555 
L -275.184775 182.299657 
L -267.136698 186.436785 
L -259.088621 186.704967 
L -251.040544 190.809163 
L -242.992467 188.728718 
L -234.94439 195.378025 
L -226.896313 191.193563 
L -218.848236 194.846125 
L -210.800159 194.53443 
L -202.752082 198.515541 
L -194.704005 192.954448 
L -186.655929 199.587134 
L -178.607852 199.571159 
L -170.559775 204.216116 
L -162.511698 206.847104 
L -154.463621 207.214267 
L -146.415544 206.450608 
L -138.367467 209.560072 
L -130.31939 211.988391 
L -122.271313 210.481108 
L -114.223236 210.129417 
L -106.175159 212.910407 
L -98.127082 215.452149 
L -90.079005 211.966685 
L -82.030929 210.084175 
L -73.982852 219.139091 
L -65.934775 223.413796 
L -57.886698 214.810513 
L -49.838621 217.744479 
L -41.790544 219.360006 
L -33.742467 220.30252 
L -25.69439 225.073829 
L -17.646313 224.764361 
L -9.598236 223.202981 
L -1.550159 225.39238 
L 6.497918 226.166195 
L 14.545995 221.600082 
L 22.594071 224.238933 
L 30.642148 222.977947 
L 38.690225 229.836948 
L 46.738302 238.186701 
L 54.786379 237.181745 
L 62.834456 230.876833 
L 70.882533 230.339544 
L 78.93061 231.398166 
L 86.978687 231.841302 
L 95.026764 238.030273 
L 103.074841 230.481681 
L 111.122918 238.725775 
L 119.170995 245.362547 
L 127.219071 240.040369 
L 135.267148 248.516331 
L 143.315225 243.400128 
L 151.363302 248.07541 
L 159.411379 245.161895 
L 167.459456 247.536745 
L 175.507533 252.121729 
L 183.55561 251.933037 
L 191.603687 253.433535 
L 199.651764 253.904606 
L 207.699841 254.476673 
L 215.747918 243.654721 
L 223.795995 257.874076 
L 231.844071 263.789049 
L 239.892148 258.301279 
L 247.940225 263.543692 
L 255.988302 264.754232 
L 264.036379 261.901454 
L 272.084456 267.930612 
L 280.132533 272.253408 
L 288.18061 269.882868 
L 296.228687 272.074011 
L 304.276764 273.486129 
L 312.324841 275.016352 
L 320.372918 279.959147 
L 328.420995 270.02646 
L 336.469071 283.835757 
L 344.517148 284.63893 
L 352.565225 285.694806 
L 360.613302 276.269853 
L 368.661379 288.276962 
L 376.709456 296.499594 
L 384.757533 289.087527 
L 392.80561 289.130468 
L 400.853687 306.496996 
L 408.901764 281.060997 
L 416.949841 303.729753 
L 424.997918 287.395584 
L 433.045995 316.020692 
L 441.094071 301.564407 
L 449.142148 316.190779 
L 457.190225 320.715522 
L 465.238302 325.09866 
L 473.286379 327.262276 
L 481.334456 319.864786 
L 489.382533 321.759575 
L 497.43061 330.192484 
L 505.478687 339.937601 
L 513.526764 340.773659 
L 521.574841 340.138828 
L 529.622918 349.991817 
L 537.670995 350.251636 
L 545.719071 343.66706 
L 553.767148 342.993197 
L 561.815225 360.765636 
L 569.863302 362.415893 
L 577.911379 366.171975 
L 585.959456 357.521035 
L 594.007533 337.10354 
L 602.05561 359.276771 
L 610.103687 353.750435 
L 618.151764 359.534816 
L 626.199841 367.30038 
L 634.247918 357.28362 
L 642.295995 370.91762 
L 650.344071 360.142088 
L 658.392148 359.972096 
L 666.440225 361.332641 
L 674.488302 369.575992 
L 682.536379 368.959846 
L 690.584456 367.513666 
L 698.632533 359.280754 
L 706.68061 364.148967 
L 714.728687 367.844478 
L 722.776764 364.322509 
L 730.824841 371.038198 
L 738.872918 366.08428 
L 746.920995 370.571603 
L 754.969071 377.64 
L 763.017148 376.7853 
L 771.065225 370.22628 
L 779.113302 370.651805 
L 787.161379 369.655861 
L 795.209456 373.004285 
L 803.257533 373.149768 
L 811.30561 362.245807 
L 819.353687 371.271705 
L 827.401764 319.335466 
L 835.449841 371.759898 
L 843.497918 375.535279 
L 851.545995 368.133547 
L 859.594071 360.443099 
L 867.642148 375.929363 
L 875.690225 369.329766 
L 883.738302 357.577239 
L 891.786379 365.364624 
L 899.834456 365.734457 
L 907.882533 362.667099 
L 915.93061 370.048275 
L 923.978687 364.877409 
L 932.026764 367.774959 
L 940.074841 369.57767 
L 940.074841 276.909701 
L 940.074841 276.909701 
L 932.026764 282.260424 
L 923.978687 280.583832 
L 915.93061 283.166972 
L 907.882533 280.293073 
L 899.834456 282.193591 
L 891.786379 281.24411 
L 883.738302 282.60699 
L 875.690225 286.916584 
L 867.642148 287.911309 
L 859.594071 285.700333 
L 851.545995 286.800428 
L 843.497918 291.507577 
L 835.449841 289.250565 
L 827.401764 281.346452 
L 819.353687 291.253064 
L 811.30561 290.203393 
L 803.257533 293.001862 
L 795.209456 293.715248 
L 787.161379 293.412142 
L 779.113302 295.299728 
L 771.065225 295.75633 
L 763.017148 298.213559 
L 754.969071 299.230913 
L 746.920995 298.43783 
L 738.872918 297.751469 
L 730.824841 299.094736 
L 722.776764 297.263868 
L 714.728687 298.777426 
L 706.68061 298.79453 
L 698.632533 297.932565 
L 690.584456 301.41444 
L 682.536379 302.394316 
L 674.488302 303.989758 
L 666.440225 300.650272 
L 658.392148 301.392207 
L 650.344071 302.351358 
L 642.295995 306.033223 
L 634.247918 302.067945 
L 626.199841 305.921149 
L 618.151764 303.637501 
L 610.103687 302.310819 
L 602.05561 304.551063 
L 594.007533 298.587143 
L 585.959456 304.520934 
L 577.911379 308.595885 
L 569.863302 307.738177 
L 561.815225 307.313298 
L 553.767148 302.805569 
L 545.719071 302.528267 
L 537.670995 305.156662 
L 529.622918 305.104967 
L 521.574841 302.10095 
L 513.526764 302.331828 
L 505.478687 302.98657 
L 497.43061 297.89015 
L 489.382533 296.34038 
L 481.334456 296.179085 
L 473.286379 299.11177 
L 465.238302 298.437079 
L 457.190225 296.261841 
L 449.142148 294.661437 
L 441.094071 289.688221 
L 433.045995 294.852397 
L 424.997918 278.109683 
L 416.949841 291.503514 
L 408.901764 267.956974 
L 400.853687 292.226342 
L 392.80561 284.208279 
L 384.757533 283.580065 
L 376.709456 289.171523 
L 368.661379 282.010671 
L 360.613302 258.35298 
L 352.565225 275.49933 
L 344.517148 274.976105 
L 336.469071 274.087825 
L 328.420995 246.206741 
L 320.372918 259.702181 
L 312.324841 256.145906 
L 304.276764 253.942533 
L 296.228687 250.593618 
L 288.18061 244.505761 
L 280.132533 249.89241 
L 272.084456 239.395061 
L 264.036379 226.323359 
L 255.988302 236.618964 
L 247.940225 227.934443 
L 239.892148 220.114986 
L 231.844071 231.970869 
L 223.795995 218.351216 
L 215.747918 183.876661 
L 207.699841 208.441841 
L 199.651764 207.100676 
L 191.603687 206.790581 
L 183.55561 203.362178 
L 175.507533 203.114814 
L 167.459456 193.427321 
L 159.411379 189.186439 
L 151.363302 195.993682 
L 143.315225 182.048837 
L 135.267148 195.502803 
L 127.219071 176.284908 
L 119.170995 186.689347 
L 111.122918 173.722874 
L 103.074841 157.735908 
L 95.026764 171.549619 
L 86.978687 157.479425 
L 78.93061 157.956383 
L 70.882533 156.863131 
L 62.834456 157.694846 
L 54.786379 170.080589 
L 46.738302 172.635336 
L 38.690225 156.60547 
L 30.642148 140.144766 
L 22.594071 143.997726 
L 14.545995 140.209314 
L 6.497918 149.586458 
L -1.550159 147.932926 
L -9.598236 143.294469 
L -17.646313 147.854115 
L -25.69439 146.796858 
L -33.742467 138.023275 
L -41.790544 138.327393 
L -49.838621 134.51687 
L -57.886698 129.968248 
L -65.934775 147.609993 
L -73.982852 136.606542 
L -82.030929 121.77235 
L -90.079005 127.865947 
L -98.127082 133.238164 
L -106.175159 128.530936 
L -114.223236 124.738154 
L -122.271313 126.458344 
L -130.31939 132.186252 
L -138.367467 124.524224 
L -146.415544 121.277527 
L -154.463621 123.437386 
L -162.511698 118.380642 
L -170.559775 119.085911 
L -178.607852 109.620053 
L -186.655929 112.149959 
L -194.704005 100.751517 
L -202.752082 109.349518 
L -210.800159 104.339211 
L -218.848236 106.250181 
L -226.896313 102.665044 
L -234.94439 107.693529 
L -242.992467 97.399809 
L -251.040544 102.889684 
L -259.088621 96.248663 
L -267.136698 96.911619 
L -275.184775 91.628941 
L -283.232852 93.66793 
L -291.280929 100.08434 
L -299.329005 93.015078 
L -307.377082 94.251603 
L -315.425159 80.784294 
L -323.473236 86.500113 
L -331.521313 89.252453 
L -339.56939 78.838265 
L -347.617467 89.832035 
L -355.665544 90.437049 
L -363.713621 77.371012 
L -371.761698 77.350362 
L -379.809775 76.199018 
L -387.857852 71.326043 
L -395.905929 74.25934 
L -403.954005 72.833801 
L -412.002082 87.611037 
L -420.050159 76.912694 
L -428.098236 68.93881 
L -436.146313 68.844244 
L -444.19439 66.277894 
L -452.242467 61.312508 
L -460.290544 62.64405 
L -468.338621 59.167491 
L -476.386698 62.326086 
L -484.434775 57.38322 
L -492.482852 65.614894 
L -500.530929 66.33876 
L -508.579005 63.897441 
L -516.627082 65.370085 
L -524.675159 61.597866 
L -532.723236 63.692984 
L -540.771313 64.698106 
L -548.81939 68.264205 
L -556.867467 64.489323 
L -564.915544 68.542044 
L -572.963621 67.114546 
L -581.011698 75.133592 
L -589.059775 68.875647 
L -597.107852 65.324838 
L -605.155929 68.519312 
L -613.204005 69.717085 
L -621.252082 69.395516 
L -629.300159 73.913481 
L -637.348236 69.207431 
L -645.396313 72.142509 
L -653.44439 70.149765 
L -661.492467 70.568452 
L -669.540544 68.767698 
L -677.588621 66.315959 
L -685.636698 69.960804 
L -693.684775 74.930889 
L -701.732852 69.176 
L -709.780929 71.952393 
L -717.829005 70.272931 
L -725.877082 71.72896 
L -733.925159 75.520675 
L -741.973236 73.807312 
L -750.021313 76.828408 
L -758.06939 77.390834 
L -766.117467 73.317292 
L -774.165544 75.217923 
L -782.213621 77.371789 
L -790.261698 77.944798 
L -798.309775 77.523996 
L -806.357852 78.958434 
L -814.405929 78.353988 
L -822.454005 80.631272 
L -830.502082 81.021551 
L -838.550159 81.271543 
L -846.598236 81.518778 
L -854.646313 76.527527 
L -862.69439 81.327215 
L -870.742467 83.036699 
L -878.790544 82.106099 
L -886.838621 81.917982 
L -894.886698 81.592537 
L -902.934775 82.736887 
L -910.982852 81.875846 
L -919.030929 83.762756 
L -927.079005 84.173012 
L -935.127082 83.245011 
L -943.175159 83.6782 
L -951.223236 84.393698 
L -959.271313 85.142268 
L -967.31939 88.64706 
L -975.367467 89.138176 
L -983.415544 90.589183 
L -991.463621 89.156349 
L -999.511698 90.523867 
L -1007.559775 90.213492 
L -1015.607852 90.281849 
L -1023.655929 87.763929 
L -1031.704005 92.804569 
L -1039.752082 92.753535 
L -1047.800159 92.574074 
L -1055.848236 95.358669 
L -1063.896313 94.557129 
L -1071.94439 95.366736 
L -1079.992467 93.080307 
L -1088.040544 97.087128 
L -1096.088621 95.117152 
L -1104.136698 98.944348 
L -1112.184775 101.479684 
L -1120.232852 101.759714 
L -1128.280929 105.095876 
L -1136.329005 107.567071 
L -1144.377082 106.819195 
L -1152.425159 108.088383 
L -1160.473236 107.998803 
L -1168.521313 109.877479 
L -1176.56939 108.535842 
L -1184.617467 111.417647 
L -1192.665544 113.426003 
L -1200.713621 114.382829 
L -1208.761698 114.724202 
L -1216.809775 114.892677 
L -1224.857852 118.122397 
L -1232.905929 118.480837 
L -1240.954005 120.300669 
L -1249.002082 123.241834 
L -1257.050159 123.859564 
L -1265.098236 120.314424 
L -1273.146313 120.813962 
L -1281.19439 124.164937 
L -1289.242467 124.191948 
L -1297.290544 126.395822 
L -1305.338621 127.891946 
L -1313.386698 126.512947 
L -1321.434775 127.31148 
L -1329.482852 128.418978 
L -1337.530929 130.688576 
L -1345.579005 127.490203 
L -1353.627082 128.445233 
L -1361.675159 128.168217 
L -1369.723236 131.58582 
L -1377.771313 130.863515 
L -1385.81939 128.556277 
L -1393.867467 130.272825 
L -1401.915544 132.057256 
L -1409.963621 126.510953 
L -1418.011698 131.184433 
L -1426.059775 124.727031 
L -1434.107852 124.269163 
L -1442.155929 122.84274 
L -1450.204005 124.164927 
L -1458.252082 124.447154 
L -1466.300159 123.547398 
L -1474.348236 120.432667 
L -1482.396313 122.627827 
L -1490.44439 115.519295 
L -1498.492467 107.959618 
L -1506.540544 109.970383 
L -1514.588621 113.81701 
L -1522.636698 103.064595 
L -1530.684775 103.498566 
L -1538.732852 100.855945 
L -1546.780929 100.103472 
L -1554.829005 86.625734 
L -1562.877082 85.448491 
L -1570.925159 80.469571 
L -1578.973236 69.889469 
L -1587.021313 62.333097 
L -1595.06939 70.485544 
L -1603.117467 66.615959 
L -1611.165544 59.973428 
L -1619.213621 57.021014 
L -1627.261698 52.159397 
L -1635.309775 45.858539 
L -1643.357852 48.963413 
L -1651.405929 37.065817 
L -1659.454005 31.922469 
L -1667.502082 28.875573 
L -1675.550159 26.528048 
L -1683.598236 28.032532 
L -1691.646313 24.84 
L -1699.69439 27.504594 
L -1707.742467 31.570155 
L -1715.790544 25.66877 
L -1723.838621 25.1494 
L -1731.886698 31.27659 
L -1739.934775 32.790723 
L -1747.982852 30.780788 
L -1756.030929 42.578273 
L -1764.079005 34.774094 
L -1772.127082 37.854167 
L -1780.175159 47.261907 
L -1788.223236 44.918744 
L -1796.271313 48.378552 
L -1804.31939 51.329286 
L -1812.367467 54.039337 
L -1820.415544 57.057234 
L -1828.463621 60.241173 
L -1836.511698 63.322808 
L -1844.559775 65.927356 
L -1852.607852 69.562706 
L -1860.655929 70.437106 
L -1868.704005 76.847011 
L -1876.752082 77.01952 
L -1884.800159 80.280399 
L -1892.848236 83.911878 
L -1900.896313 86.665183 
L -1908.94439 90.105486 
L -1916.992467 92.796362 
L -1925.040544 96.7243 
L -1933.088621 99.087743 
L -1941.136698 101.980516 
L -1949.184775 105.377966 
L -1957.232852 108.842944 
L -1965.280929 110.951567 
L -1973.329005 114.297493 
L -1981.377082 116.576561 
L -1989.425159 120.016648 
L -1997.473236 122.681268 
L -2005.521313 125.331516 
L -2013.56939 128.266792 
L -2021.617467 130.868704 
L -2029.665544 133.07949 
L -2037.713621 135.947027 
L -2045.761698 137.399749 
L -2053.809775 140.941766 
L -2061.857852 143.330344 
L -2069.905929 145.434211 
L -2077.954005 148.006712 
L -2086.002082 149.575995 
L -2094.050159 151.855371 
L -2102.098236 154.194214 
L -2110.146313 156.771527 
L -2118.19439 158.738992 
L -2126.242467 160.675187 
L -2134.290544 162.788748 
L -2142.338621 164.821639 
L -2150.386698 167.012224 
L -2158.434775 168.756365 
L -2166.482852 170.656692 
L -2174.530929 172.20404 
L -2182.579005 174.362657 
L -2190.627082 175.912041 
L -2198.675159 177.672823 
L -2206.723236 179.874178 
L -2214.771313 181.38789 
L -2222.81939 181.807638 
L -2230.867467 183.615223 
L -2238.915544 184.524527 
L -2246.963621 186.267227 
L -2255.011698 188.300701 
L -2263.059775 189.331403 
L -2271.107852 190.295908 
L -2279.155929 190.463554 
L -2287.204005 191.480471 
L -2295.252082 192.074936 
L -2303.300159 192.720043 
L -2311.348236 194.170776 
L -2319.396313 195.003529 
L -2327.44439 196.213761 
L -2335.492467 195.480939 
L -2343.540544 196.138251 
L -2351.588621 195.010781 
L -2359.636698 196.707998 
L -2367.684775 196.947703 
L -2375.732852 198.18691 
L -2383.780929 195.495176 
L -2391.829005 198.725978 
L -2399.877082 198.457806 
L -2407.925159 196.596678 
L -2415.973236 196.127549 
L -2424.021313 197.803086 
L -2432.06939 200.696678 
L -2440.117467 199.576599 
L -2448.165544 199.523786 
L -2456.213621 196.622048 
L -2464.261698 196.601099 
L -2472.309775 197.452761 
L -2480.357852 199.245449 
L -2488.405929 198.678006 
L -2496.454005 198.32402 
L -2504.502082 198.620731 
L -2512.550159 199.726444 
L -2520.598236 199.488002 
L -2528.646313 200.194161 
L -2536.69439 201.358491 
L -2544.742467 200.562461 
L -2552.790544 202.243762 
L -2560.838621 202.513138 
L -2568.886698 202.726635 
L -2576.934775 203.793021 
L -2584.982852 204.069149 
L -2593.030929 205.249546 
L -2601.079005 206.53719 
L -2609.127082 206.566995 
L -2617.175159 206.061128 
L -2625.223236 205.701381 
L -2633.271313 208.415054 
L -2641.31939 207.957266 
L -2649.367467 209.783876 
L -2657.415544 209.827415 
L -2665.463621 209.141247 
L -2673.511698 210.949399 
L -2681.559775 209.289544 
L -2689.607852 209.386421 
L -2697.655929 211.680075 
L -2705.704005 210.05058 
L -2713.752082 212.218476 
L -2721.800159 212.922511 
L -2729.848236 211.117767 
L -2737.896313 205.347764 
L -2745.94439 209.060156 
L -2753.992467 207.304508 
L -2762.040544 198.717345 
L -2770.088621 206.064647 
L -2778.136698 207.587644 
L -2786.184775 199.650563 
L -2794.232852 197.491097 
L -2802.280929 201.775982 
L -2810.329005 193.172572 
L -2818.377082 178.298951 
L -2826.425159 194.773853 
L -2834.473236 201.374931 
L -2842.521313 204.665529 
L -2850.56939 184.117763 
L -2858.617467 185.026157 
L -2866.665544 174.634585 
L -2874.713621 166.598422 
L -2882.761698 182.997623 
L -2890.809775 176.085235 
L -2898.857852 161.580583 
L -2906.905929 151.352914 
L -2914.954005 152.071002 
L -2923.002082 153.953763 
L -2931.050159 151.872647 
L -2939.098236 150.674571 
L -2947.146313 156.685994 
L -2955.19439 156.073856 
L -2963.242467 152.328758 
L -2971.290544 154.796664 
L -2979.338621 153.319516 
L -2987.386698 152.817067 
L -2995.434775 153.092982 
L -3003.482852 155.524152 
L -3011.530929 157.028466 
L -3019.579005 157.948863 
L -3027.627082 160.077607 
L -3035.675159 161.131572 
L -3043.723236 162.867544 
L -3051.771313 165.538178 
L -3059.81939 167.685711 
L -3067.867467 169.166018 
L -3075.915544 170.812132 
L -3083.963621 172.929694 
L -3092.011698 174.317939 
L -3100.059775 176.334017 
L -3108.107852 178.759064 
L -3116.155929 180.241841 
L -3124.204005 181.283431 
L -3132.252082 182.807782 
L -3140.300159 184.380524 
L -3148.348236 185.816362 
L -3156.396313 187.190674 
L -3164.44439 188.51861 
L -3172.492467 190.288643 
L -3180.540544 191.232316 
L -3188.588621 192.537708 
L -3196.636698 193.905601 
L -3204.684775 195.082865 
L -3212.732852 196.24388 
L -3220.780929 197.227702 
L -3228.829005 198.294481 
L -3236.877082 199.668088 
L -3244.925159 200.643241 
L -3252.973236 201.764506 
L -3261.021313 202.679909 
L -3269.06939 203.697426 
L -3277.117467 204.7399 
L -3285.165544 205.800041 
L -3293.213621 206.69572 
L -3301.261698 207.744513 
L -3309.309775 208.665108 
L -3317.357852 209.644692 
L -3325.405929 210.544491 
L -3333.454005 211.471865 
L -3341.502082 212.337689 
L -3349.550159 213.25787 
L -3357.598236 214.238898 
L -3365.646313 215.004388 
L -3373.69439 215.933303 
L -3381.742467 216.747447 
L -3389.790544 217.672628 
L -3397.838621 218.362232 
L -3405.886698 219.21307 
L -3413.934775 220.023974 
L -3421.982852 220.796317 
L -3430.030929 221.581825 
L -3438.079005 222.309123 
L -3446.127082 223.155304 
L -3454.175159 223.91794 
L -3462.223236 224.548391 
L -3470.271313 225.295258 
L -3478.31939 226.041315 
L -3486.367467 226.78408 
L -3494.415544 227.501561 
L -3502.463621 228.171778 
L -3510.511698 228.908622 
L -3518.559775 229.631745 
L -3526.607852 230.358977 
L -3534.655929 231.084267 
L -3542.704005 231.82932 
L -3550.752082 232.603704 
L -3558.800159 233.273835 
L -3566.848236 234.039131 
L -3574.896313 234.790801 
L -3582.94439 235.513773 
L -3590.992467 236.259672 
L -3599.040544 237.021011 
L -3607.088621 237.76087 
L -3615.136698 238.536873 
L -3623.184775 239.24707 
L -3631.232852 239.971664 
L -3639.280929 240.736878 
L -3647.329005 241.477388 
L -3655.377082 242.181889 
L -3663.425159 242.926837 
L -3671.473236 243.609725 
L -3679.521313 244.33878 
L -3687.56939 245.114466 
L -3695.617467 245.784504 
L -3703.665544 246.532006 
L -3711.713621 247.241739 
L -3719.761698 247.985379 
L -3727.809775 248.661667 
L -3735.857852 249.448138 
L -3743.905929 250.104965 
L -3751.954005 250.838528 
L -3760.002082 251.557126 
L -3768.050159 252.29344 
L -3776.098236 252.994729 
L -3784.146313 253.708629 
L -3792.19439 254.425319 
L -3800.242467 255.16511 
L -3808.290544 255.854177 
L -3816.338621 256.512658 
L -3824.386698 257.173061 
L -3832.434775 257.825519 
L -3840.482852 258.456157 
L -3848.530929 259.09633 
L -3856.579005 259.72848 
L -3864.627082 260.332759 
L -3872.675159 260.943039 
L -3880.723236 261.549471 
L -3888.771313 262.103108 
L -3896.81939 262.664898 
L -3904.867467 263.248963 
L -3912.915544 263.802807 
L -3920.963621 264.300146 
L -3929.011698 264.844668 
L -3937.059775 265.343484 
L -3945.107852 265.804108 
L -3953.155929 266.263983 
L -3961.204005 266.694579 
L -3969.252082 267.156221 
L -3977.300159 267.540424 
L -3985.348236 267.944346 
L -3993.396313 268.324874 
L -4001.44439 268.678089 
L -4009.492467 269.000826 
L -4017.540544 269.294991 
L -4025.588621 269.586675 
L -4033.636698 269.87534 
L -4041.684775 270.116258 
L -4049.732852 270.383334 
L -4057.780929 270.611037 
L -4065.829005 270.808547 
L -4073.877082 271.037658 
L -4081.925159 271.239206 
L -4089.973236 271.407578 
L -4098.021313 271.587197 
L -4106.06939 271.761821 
L -4114.117467 271.916254 
L -4122.165544 272.070965 
L -4130.213621 272.200249 
L -4138.261698 272.354453 
L -4146.309775 272.478668 
L -4154.357852 272.608634 
L -4162.405929 272.744452 
L -4170.454005 272.856533 
L -4178.502082 272.97468 
L -4186.550159 273.126778 
L -4194.598236 273.236163 
L -4202.646313 273.368486 
L -4210.69439 273.47449 
L -4218.742467 273.613231 
L -4226.790544 273.724174 
L -4234.838621 273.840081 
L -4242.886698 273.942367 
L -4250.934775 274.03505 
L -4258.982852 274.140576 
L -4267.030929 274.254659 
L -4275.079005 274.365805 
L -4283.127082 274.461537 
L -4291.175159 274.539707 
L -4299.223236 274.649614 
L -4307.271313 274.740667 
L -4315.31939 274.849342 
z
" clip-path="url(#p9bd49de508)" style="fill: #008000; fill-opacity: 0.3; stroke: #008000; stroke-opacity: 0.3"/>
   </g>
   <g id="matplotlib.axis_1">
    <g id="xtick_1">
     <g id="line2d_1">
      <defs>
       <path id="mfd57f396f0" d="M 0 0 
L 0 3.5 
" style="stroke: #000000; stroke-width: 0.8"/>
      </defs>
      <g>
       <use xlink:href="#mfd57f396f0" x="103.074841" y="395.28" style="stroke: #000000; stroke-width: 0.8"/>
      </g>
     </g>
     <g id="text_1">
      <!-- 2023-01-01 -->
      <g transform="translate(17.945813 495.213718) rotate(-45) scale(0.2 -0.2)">
       <defs>
        <path id="DejaVuSans-32" d="M 1228 531 
L 3431 531 
L 3431 0 
L 469 0 
L 469 531 
Q 828 903 1448 1529 
Q 2069 2156 2228 2338 
Q 2531 2678 2651 2914 
Q 2772 3150 2772 3378 
Q 2772 3750 2511 3984 
Q 2250 4219 1831 4219 
Q 1534 4219 1204 4116 
Q 875 4013 500 3803 
L 500 4441 
Q 881 4594 1212 4672 
Q 1544 4750 1819 4750 
Q 2544 4750 2975 4387 
Q 3406 4025 3406 3419 
Q 3406 3131 3298 2873 
Q 3191 2616 2906 2266 
Q 2828 2175 2409 1742 
Q 1991 1309 1228 531 
z
" transform="scale(0.015625)"/>
        <path id="DejaVuSans-30" d="M 2034 4250 
Q 1547 4250 1301 3770 
Q 1056 3291 1056 2328 
Q 1056 1369 1301 889 
Q 1547 409 2034 409 
Q 2525 409 2770 889 
Q 3016 1369 3016 2328 
Q 3016 3291 2770 3770 
Q 2525 4250 2034 4250 
z
M 2034 4750 
Q 2819 4750 3233 4129 
Q 3647 3509 3647 2328 
Q 3647 1150 3233 529 
Q 2819 -91 2034 -91 
Q 1250 -91 836 529 
Q 422 1150 422 2328 
Q 422 3509 836 4129 
Q 1250 4750 2034 4750 
z
" transform="scale(0.015625)"/>
        <path id="DejaVuSans-33" d="M 2597 2516 
Q 3050 2419 3304 2112 
Q 3559 1806 3559 1356 
Q 3559 666 3084 287 
Q 2609 -91 1734 -91 
Q 1441 -91 1130 -33 
Q 819 25 488 141 
L 488 750 
Q 750 597 1062 519 
Q 1375 441 1716 441 
Q 2309 441 2620 675 
Q 2931 909 2931 1356 
Q 2931 1769 2642 2001 
Q 2353 2234 1838 2234 
L 1294 2234 
L 1294 2753 
L 1863 2753 
Q 2328 2753 2575 2939 
Q 2822 3125 2822 3475 
Q 2822 3834 2567 4026 
Q 2313 4219 1838 4219 
Q 1578 4219 1281 4162 
Q 984 4106 628 3988 
L 628 4550 
Q 988 4650 1302 4700 
Q 1616 4750 1894 4750 
Q 2613 4750 3031 4423 
Q 3450 4097 3450 3541 
Q 3450 3153 3228 2886 
Q 3006 2619 2597 2516 
z
" transform="scale(0.015625)"/>
        <path id="DejaVuSans-2d" d="M 313 2009 
L 1997 2009 
L 1997 1497 
L 313 1497 
L 313 2009 
z
" transform="scale(0.015625)"/>
        <path id="DejaVuSans-31" d="M 794 531 
L 1825 531 
L 1825 4091 
L 703 3866 
L 703 4441 
L 1819 4666 
L 2450 4666 
L 2450 531 
L 3481 531 
L 3481 0 
L 794 0 
L 794 531 
z
" transform="scale(0.015625)"/>
       </defs>
       <use xlink:href="#DejaVuSans-32"/>
       <use xlink:href="#DejaVuSans-30" x="63.623047"/>
       <use xlink:href="#DejaVuSans-32" x="127.246094"/>
       <use xlink:href="#DejaVuSans-33" x="190.869141"/>
       <use xlink:href="#DejaVuSans-2d" x="254.492188"/>
       <use xlink:href="#DejaVuSans-30" x="290.576172"/>
       <use xlink:href="#DejaVuSans-31" x="354.199219"/>
       <use xlink:href="#DejaVuSans-2d" x="417.822266"/>
       <use xlink:href="#DejaVuSans-30" x="453.90625"/>
       <use xlink:href="#DejaVuSans-31" x="517.529297"/>
      </g>
     </g>
    </g>
    <g id="xtick_2">
     <g id="line2d_2">
      <g>
       <use xlink:href="#mfd57f396f0" x="215.747918" y="395.28" style="stroke: #000000; stroke-width: 0.8"/>
      </g>
     </g>
     <g id="text_2">
      <!-- 2023-01-15 -->
      <g transform="translate(130.61889 495.213718) rotate(-45) scale(0.2 -0.2)">
       <defs>
        <path id="DejaVuSans-35" d="M 691 4666 
L 3169 4666 
L 3169 4134 
L 1269 4134 
L 1269 2991 
Q 1406 3038 1543 3061 
Q 1681 3084 1819 3084 
Q 2600 3084 3056 2656 
Q 3513 2228 3513 1497 
Q 3513 744 3044 326 
Q 2575 -91 1722 -91 
Q 1428 -91 1123 -41 
Q 819 9 494 109 
L 494 744 
Q 775 591 1075 516 
Q 1375 441 1709 441 
Q 2250 441 2565 725 
Q 2881 1009 2881 1497 
Q 2881 1984 2565 2268 
Q 2250 2553 1709 2553 
Q 1456 2553 1204 2497 
Q 953 2441 691 2322 
L 691 4666 
z
" transform="scale(0.015625)"/>
       </defs>
       <use xlink:href="#DejaVuSans-32"/>
       <use xlink:href="#DejaVuSans-30" x="63.623047"/>
       <use xlink:href="#DejaVuSans-32" x="127.246094"/>
       <use xlink:href="#DejaVuSans-33" x="190.869141"/>
       <use xlink:href="#DejaVuSans-2d" x="254.492188"/>
       <use xlink:href="#DejaVuSans-30" x="290.576172"/>
       <use xlink:href="#DejaVuSans-31" x="354.199219"/>
       <use xlink:href="#DejaVuSans-2d" x="417.822266"/>
       <use xlink:href="#DejaVuSans-31" x="453.90625"/>
       <use xlink:href="#DejaVuSans-35" x="517.529297"/>
      </g>
     </g>
    </g>
    <g id="xtick_3">
     <g id="line2d_3">
      <g>
       <use xlink:href="#mfd57f396f0" x="328.420995" y="395.28" style="stroke: #000000; stroke-width: 0.8"/>
      </g>
     </g>
     <g id="text_3">
      <!-- 2023-01-29 -->
      <g transform="translate(243.291967 495.213718) rotate(-45) scale(0.2 -0.2)">
       <defs>
        <path id="DejaVuSans-39" d="M 703 97 
L 703 672 
Q 941 559 1184 500 
Q 1428 441 1663 441 
Q 2288 441 2617 861 
Q 2947 1281 2994 2138 
Q 2813 1869 2534 1725 
Q 2256 1581 1919 1581 
Q 1219 1581 811 2004 
Q 403 2428 403 3163 
Q 403 3881 828 4315 
Q 1253 4750 1959 4750 
Q 2769 4750 3195 4129 
Q 3622 3509 3622 2328 
Q 3622 1225 3098 567 
Q 2575 -91 1691 -91 
Q 1453 -91 1209 -44 
Q 966 3 703 97 
z
M 1959 2075 
Q 2384 2075 2632 2365 
Q 2881 2656 2881 3163 
Q 2881 3666 2632 3958 
Q 2384 4250 1959 4250 
Q 1534 4250 1286 3958 
Q 1038 3666 1038 3163 
Q 1038 2656 1286 2365 
Q 1534 2075 1959 2075 
z
" transform="scale(0.015625)"/>
       </defs>
       <use xlink:href="#DejaVuSans-32"/>
       <use xlink:href="#DejaVuSans-30" x="63.623047"/>
       <use xlink:href="#DejaVuSans-32" x="127.246094"/>
       <use xlink:href="#DejaVuSans-33" x="190.869141"/>
       <use xlink:href="#DejaVuSans-2d" x="254.492188"/>
       <use xlink:href="#DejaVuSans-30" x="290.576172"/>
       <use xlink:href="#DejaVuSans-31" x="354.199219"/>
       <use xlink:href="#DejaVuSans-2d" x="417.822266"/>
       <use xlink:href="#DejaVuSans-32" x="453.90625"/>
       <use xlink:href="#DejaVuSans-39" x="517.529297"/>
      </g>
     </g>
    </g>
    <g id="xtick_4">
     <g id="line2d_4">
      <g>
       <use xlink:href="#mfd57f396f0" x="441.094071" y="395.28" style="stroke: #000000; stroke-width: 0.8"/>
      </g>
     </g>
     <g id="text_4">
      <!-- 2023-02-12 -->
      <g transform="translate(355.965044 495.213718) rotate(-45) scale(0.2 -0.2)">
       <use xlink:href="#DejaVuSans-32"/>
       <use xlink:href="#DejaVuSans-30" x="63.623047"/>
       <use xlink:href="#DejaVuSans-32" x="127.246094"/>
       <use xlink:href="#DejaVuSans-33" x="190.869141"/>
       <use xlink:href="#DejaVuSans-2d" x="254.492188"/>
       <use xlink:href="#DejaVuSans-30" x="290.576172"/>
       <use xlink:href="#DejaVuSans-32" x="354.199219"/>
       <use xlink:href="#DejaVuSans-2d" x="417.822266"/>
       <use xlink:href="#DejaVuSans-31" x="453.90625"/>
       <use xlink:href="#DejaVuSans-32" x="517.529297"/>
      </g>
     </g>
    </g>
    <g id="xtick_5">
     <g id="line2d_5">
      <g>
       <use xlink:href="#mfd57f396f0" x="553.767148" y="395.28" style="stroke: #000000; stroke-width: 0.8"/>
      </g>
     </g>
     <g id="text_5">
      <!-- 2023-02-26 -->
      <g transform="translate(468.638121 495.213718) rotate(-45) scale(0.2 -0.2)">
       <defs>
        <path id="DejaVuSans-36" d="M 2113 2584 
Q 1688 2584 1439 2293 
Q 1191 2003 1191 1497 
Q 1191 994 1439 701 
Q 1688 409 2113 409 
Q 2538 409 2786 701 
Q 3034 994 3034 1497 
Q 3034 2003 2786 2293 
Q 2538 2584 2113 2584 
z
M 3366 4563 
L 3366 3988 
Q 3128 4100 2886 4159 
Q 2644 4219 2406 4219 
Q 1781 4219 1451 3797 
Q 1122 3375 1075 2522 
Q 1259 2794 1537 2939 
Q 1816 3084 2150 3084 
Q 2853 3084 3261 2657 
Q 3669 2231 3669 1497 
Q 3669 778 3244 343 
Q 2819 -91 2113 -91 
Q 1303 -91 875 529 
Q 447 1150 447 2328 
Q 447 3434 972 4092 
Q 1497 4750 2381 4750 
Q 2619 4750 2861 4703 
Q 3103 4656 3366 4563 
z
" transform="scale(0.015625)"/>
       </defs>
       <use xlink:href="#DejaVuSans-32"/>
       <use xlink:href="#DejaVuSans-30" x="63.623047"/>
       <use xlink:href="#DejaVuSans-32" x="127.246094"/>
       <use xlink:href="#DejaVuSans-33" x="190.869141"/>
       <use xlink:href="#DejaVuSans-2d" x="254.492188"/>
       <use xlink:href="#DejaVuSans-30" x="290.576172"/>
       <use xlink:href="#DejaVuSans-32" x="354.199219"/>
       <use xlink:href="#DejaVuSans-2d" x="417.822266"/>
       <use xlink:href="#DejaVuSans-32" x="453.90625"/>
       <use xlink:href="#DejaVuSans-36" x="517.529297"/>
      </g>
     </g>
    </g>
    <g id="xtick_6">
     <g id="line2d_6">
      <g>
       <use xlink:href="#mfd57f396f0" x="666.440225" y="395.28" style="stroke: #000000; stroke-width: 0.8"/>
      </g>
     </g>
     <g id="text_6">
      <!-- 2023-03-12 -->
      <g transform="translate(581.311198 495.213718) rotate(-45) scale(0.2 -0.2)">
       <use xlink:href="#DejaVuSans-32"/>
       <use xlink:href="#DejaVuSans-30" x="63.623047"/>
       <use xlink:href="#DejaVuSans-32" x="127.246094"/>
       <use xlink:href="#DejaVuSans-33" x="190.869141"/>
       <use xlink:href="#DejaVuSans-2d" x="254.492188"/>
       <use xlink:href="#DejaVuSans-30" x="290.576172"/>
       <use xlink:href="#DejaVuSans-33" x="354.199219"/>
       <use xlink:href="#DejaVuSans-2d" x="417.822266"/>
       <use xlink:href="#DejaVuSans-31" x="453.90625"/>
       <use xlink:href="#DejaVuSans-32" x="517.529297"/>
      </g>
     </g>
    </g>
    <g id="xtick_7">
     <g id="line2d_7">
      <g>
       <use xlink:href="#mfd57f396f0" x="779.113302" y="395.28" style="stroke: #000000; stroke-width: 0.8"/>
      </g>
     </g>
     <g id="text_7">
      <!-- 2023-03-26 -->
      <g transform="translate(693.984275 495.213718) rotate(-45) scale(0.2 -0.2)">
       <use xlink:href="#DejaVuSans-32"/>
       <use xlink:href="#DejaVuSans-30" x="63.623047"/>
       <use xlink:href="#DejaVuSans-32" x="127.246094"/>
       <use xlink:href="#DejaVuSans-33" x="190.869141"/>
       <use xlink:href="#DejaVuSans-2d" x="254.492188"/>
       <use xlink:href="#DejaVuSans-30" x="290.576172"/>
       <use xlink:href="#DejaVuSans-33" x="354.199219"/>
       <use xlink:href="#DejaVuSans-2d" x="417.822266"/>
       <use xlink:href="#DejaVuSans-32" x="453.90625"/>
       <use xlink:href="#DejaVuSans-36" x="517.529297"/>
      </g>
     </g>
    </g>
    <g id="xtick_8">
     <g id="line2d_8">
      <g>
       <use xlink:href="#mfd57f396f0" x="891.786379" y="395.28" style="stroke: #000000; stroke-width: 0.8"/>
      </g>
     </g>
     <g id="text_8">
      <!-- 2023-04-09 -->
      <g transform="translate(806.657352 495.213718) rotate(-45) scale(0.2 -0.2)">
       <defs>
        <path id="DejaVuSans-34" d="M 2419 4116 
L 825 1625 
L 2419 1625 
L 2419 4116 
z
M 2253 4666 
L 3047 4666 
L 3047 1625 
L 3713 1625 
L 3713 1100 
L 3047 1100 
L 3047 0 
L 2419 0 
L 2419 1100 
L 313 1100 
L 313 1709 
L 2253 4666 
z
" transform="scale(0.015625)"/>
       </defs>
       <use xlink:href="#DejaVuSans-32"/>
       <use xlink:href="#DejaVuSans-30" x="63.623047"/>
       <use xlink:href="#DejaVuSans-32" x="127.246094"/>
       <use xlink:href="#DejaVuSans-33" x="190.869141"/>
       <use xlink:href="#DejaVuSans-2d" x="254.492188"/>
       <use xlink:href="#DejaVuSans-30" x="290.576172"/>
       <use xlink:href="#DejaVuSans-34" x="354.199219"/>
       <use xlink:href="#DejaVuSans-2d" x="417.822266"/>
       <use xlink:href="#DejaVuSans-30" x="453.90625"/>
       <use xlink:href="#DejaVuSans-39" x="517.529297"/>
      </g>
     </g>
    </g>
    <g id="xtick_9">
     <g id="line2d_9">
      <g>
       <use xlink:href="#mfd57f396f0" x="940.074841" y="395.28" style="stroke: #000000; stroke-width: 0.8"/>
      </g>
     </g>
     <g id="text_9">
      <!-- 2023-04-15 -->
      <g transform="translate(854.945813 495.213718) rotate(-45) scale(0.2 -0.2)">
       <use xlink:href="#DejaVuSans-32"/>
       <use xlink:href="#DejaVuSans-30" x="63.623047"/>
       <use xlink:href="#DejaVuSans-32" x="127.246094"/>
       <use xlink:href="#DejaVuSans-33" x="190.869141"/>
       <use xlink:href="#DejaVuSans-2d" x="254.492188"/>
       <use xlink:href="#DejaVuSans-30" x="290.576172"/>
       <use xlink:href="#DejaVuSans-34" x="354.199219"/>
       <use xlink:href="#DejaVuSans-2d" x="417.822266"/>
       <use xlink:href="#DejaVuSans-31" x="453.90625"/>
       <use xlink:href="#DejaVuSans-35" x="517.529297"/>
      </g>
     </g>
    </g>
   </g>
   <g id="matplotlib.axis_2">
    <g id="ytick_1">
     <g id="line2d_10">
      <defs>
       <path id="m732e1ea1ec" d="M 0 0 
L -3.5 0 
" style="stroke: #000000; stroke-width: 0.8"/>
      </defs>
      <g>
       <use xlink:href="#m732e1ea1ec" x="103.074841" y="351.404603" style="stroke: #000000; stroke-width: 0.8"/>
      </g>
     </g>
     <g id="text_10">
      <!-- −0.05 -->
      <g transform="translate(34.784216 359.00304) scale(0.2 -0.2)">
       <defs>
        <path id="DejaVuSans-2212" d="M 678 2272 
L 4684 2272 
L 4684 1741 
L 678 1741 
L 678 2272 
z
" transform="scale(0.015625)"/>
        <path id="DejaVuSans-2e" d="M 684 794 
L 1344 794 
L 1344 0 
L 684 0 
L 684 794 
z
" transform="scale(0.015625)"/>
       </defs>
       <use xlink:href="#DejaVuSans-2212"/>
       <use xlink:href="#DejaVuSans-30" x="83.789062"/>
       <use xlink:href="#DejaVuSans-2e" x="147.412109"/>
       <use xlink:href="#DejaVuSans-30" x="179.199219"/>
       <use xlink:href="#DejaVuSans-35" x="242.822266"/>
      </g>
     </g>
    </g>
    <g id="ytick_2">
     <g id="line2d_11">
      <g>
       <use xlink:href="#m732e1ea1ec" x="103.074841" y="274.951767" style="stroke: #000000; stroke-width: 0.8"/>
      </g>
     </g>
     <g id="text_11">
      <!-- 0.00 -->
      <g transform="translate(51.543591 282.550205) scale(0.2 -0.2)">
       <use xlink:href="#DejaVuSans-30"/>
       <use xlink:href="#DejaVuSans-2e" x="63.623047"/>
       <use xlink:href="#DejaVuSans-30" x="95.410156"/>
       <use xlink:href="#DejaVuSans-30" x="159.033203"/>
      </g>
     </g>
    </g>
    <g id="ytick_3">
     <g id="line2d_12">
      <g>
       <use xlink:href="#m732e1ea1ec" x="103.074841" y="198.498931" style="stroke: #000000; stroke-width: 0.8"/>
      </g>
     </g>
     <g id="text_12">
      <!-- 0.05 -->
      <g transform="translate(51.543591 206.097369) scale(0.2 -0.2)">
       <use xlink:href="#DejaVuSans-30"/>
       <use xlink:href="#DejaVuSans-2e" x="63.623047"/>
       <use xlink:href="#DejaVuSans-30" x="95.410156"/>
       <use xlink:href="#DejaVuSans-35" x="159.033203"/>
      </g>
     </g>
    </g>
    <g id="ytick_4">
     <g id="line2d_13">
      <g>
       <use xlink:href="#m732e1ea1ec" x="103.074841" y="122.046096" style="stroke: #000000; stroke-width: 0.8"/>
      </g>
     </g>
     <g id="text_13">
      <!-- 0.10 -->
      <g transform="translate(51.543591 129.644533) scale(0.2 -0.2)">
       <use xlink:href="#DejaVuSans-30"/>
       <use xlink:href="#DejaVuSans-2e" x="63.623047"/>
       <use xlink:href="#DejaVuSans-31" x="95.410156"/>
       <use xlink:href="#DejaVuSans-30" x="159.033203"/>
      </g>
     </g>
    </g>
    <g id="ytick_5">
     <g id="line2d_14">
      <g>
       <use xlink:href="#m732e1ea1ec" x="103.074841" y="45.59326" style="stroke: #000000; stroke-width: 0.8"/>
      </g>
     </g>
     <g id="text_14">
      <!-- 0.15 -->
      <g transform="translate(51.543591 53.191697) scale(0.2 -0.2)">
       <use xlink:href="#DejaVuSans-30"/>
       <use xlink:href="#DejaVuSans-2e" x="63.623047"/>
       <use xlink:href="#DejaVuSans-31" x="95.410156"/>
       <use xlink:href="#DejaVuSans-35" x="159.033203"/>
      </g>
     </g>
    </g>
   </g>
   <g id="line2d_15">
    <path d="M 0 0 
" clip-path="url(#p9bd49de508)" style="fill: none; stroke: #ffa500; stroke-width: 1.5; stroke-linecap: square"/>
   </g>
   <g id="line2d_16">
    <path d="M 103.074841 274.951767 
L 948.274841 274.951767 
" clip-path="url(#p9bd49de508)" style="fill: none; stroke-dasharray: 7.4,3.2; stroke-dashoffset: 0; stroke: #000000; stroke-width: 2"/>
   </g>
   <g id="patch_3">
    <path d="M 103.074841 395.28 
L 103.074841 7.2 
" style="fill: none; stroke: #000000; stroke-width: 0.8; stroke-linejoin: miter; stroke-linecap: square"/>
   </g>
   <g id="patch_4">
    <path d="M 940.074841 395.28 
L 940.074841 7.2 
" style="fill: none; stroke: #000000; stroke-width: 0.8; stroke-linejoin: miter; stroke-linecap: square"/>
   </g>
   <g id="patch_5">
    <path d="M 103.074841 395.28 
L 940.074841 395.28 
" style="fill: none; stroke: #000000; stroke-width: 0.8; stroke-linejoin: miter; stroke-linecap: square"/>
   </g>
   <g id="patch_6">
    <path d="M 103.074841 7.2 
L 940.074841 7.2 
" style="fill: none; stroke: #000000; stroke-width: 0.8; stroke-linejoin: miter; stroke-linecap: square"/>
   </g>
  </g>
 </g>
 <defs>
  <clipPath id="p9bd49de508">
   <rect x="103.074841" y="7.2" width="837" height="388.08"/>
  </clipPath>
 </defs>
</svg>
