<?xml version="1.0" encoding="utf-8" standalone="no"?>
<!DOCTYPE svg PUBLIC "-//W3C//DTD SVG 1.1//EN"
  "http://www.w3.org/Graphics/SVG/1.1/DTD/svg11.dtd">
<svg xmlns:xlink="http://www.w3.org/1999/xlink" width="1040.965466pt" height="505.354841pt" viewBox="0 0 1040.965466 505.354841" xmlns="http://www.w3.org/2000/svg" version="1.1">
 <metadata>
  <rdf:RDF xmlns:dc="http://purl.org/dc/elements/1.1/" xmlns:cc="http://creativecommons.org/ns#" xmlns:rdf="http://www.w3.org/1999/02/22-rdf-syntax-ns#">
   <cc:Work>
    <dc:type rdf:resource="http://purl.org/dc/dcmitype/StillImage"/>
    <dc:date>2023-11-24T15:26:36.324136</dc:date>
    <dc:format>image/svg+xml</dc:format>
    <dc:creator>
     <cc:Agent>
      <dc:title>Matplotlib v3.7.2, https://matplotlib.org/</dc:title>
     </cc:Agent>
    </dc:creator>
   </cc:Work>
  </rdf:RDF>
 </metadata>
 <defs>
  <style type="text/css">*{stroke-linejoin: round; stroke-linecap: butt}</style>
 </defs>
 <g id="figure_1">
  <g id="patch_1">
   <path d="M 0 505.354841 
L 1040.965466 505.354841 
L 1040.965466 -0 
L 0 -0 
z
" style="fill: #ffffff"/>
  </g>
  <g id="axes_1">
   <g id="patch_2">
    <path d="M 103.074841 395.28 
L 940.074841 395.28 
L 940.074841 7.2 
L 103.074841 7.2 
z
" style="fill: #ffffff"/>
   </g>
   <g id="PolyCollection_1">
    <defs>
     <path id="me2697cbbb8" d="M 103.074841 -168.576366 
L 103.074841 -168.5596 
L 104.356617 -168.635118 
L 105.638394 -168.701413 
L 106.92017 -168.7862 
L 108.201946 -168.850154 
L 109.483723 -168.923104 
L 110.765499 -169.012684 
L 112.047276 -169.102128 
L 113.329052 -169.18096 
L 114.610828 -169.248502 
L 115.892605 -169.326504 
L 117.174381 -169.410481 
L 118.456158 -169.493898 
L 119.737934 -169.586236 
L 121.019711 -169.667139 
L 122.301487 -169.758314 
L 123.583263 -169.849127 
L 124.86504 -169.947349 
L 126.146816 -170.037277 
L 127.428593 -170.125054 
L 128.710369 -170.226968 
L 129.992145 -170.32722 
L 131.273922 -170.425271 
L 132.555698 -170.53962 
L 133.837475 -170.641524 
L 135.119251 -170.762757 
L 136.401028 -170.879718 
L 137.682804 -171.013348 
L 138.96458 -171.151856 
L 140.246357 -171.285766 
L 141.528133 -171.434394 
L 142.80991 -171.605218 
L 144.091686 -171.760421 
L 145.373462 -171.934998 
L 146.655239 -172.133062 
L 147.937015 -172.325045 
L 149.218792 -172.535272 
L 150.500568 -172.756605 
L 151.782345 -172.98346 
L 153.064121 -173.23197 
L 154.345897 -173.49897 
L 155.627674 -173.77582 
L 156.90945 -174.069688 
L 158.191227 -174.372534 
L 159.473003 -174.697907 
L 160.754779 -175.022059 
L 162.036556 -175.372323 
L 163.318332 -175.71476 
L 164.600109 -176.091133 
L 165.881885 -176.490668 
L 167.163662 -176.874551 
L 168.445438 -177.282279 
L 169.727214 -177.711938 
L 171.008991 -178.135711 
L 172.290767 -178.566697 
L 173.572544 -179.01623 
L 174.85432 -179.470926 
L 176.136096 -179.930342 
L 177.417873 -180.407453 
L 178.699649 -180.890877 
L 179.981426 -181.373866 
L 181.263202 -181.872009 
L 182.544979 -182.373669 
L 183.826755 -182.872635 
L 185.108531 -183.395194 
L 186.390308 -183.924338 
L 187.672084 -184.45405 
L 188.953861 -184.983199 
L 190.235637 -185.508706 
L 191.517413 -186.04678 
L 192.79919 -186.576808 
L 194.080966 -187.114705 
L 195.362743 -187.614062 
L 196.644519 -188.1741 
L 197.926296 -188.6946 
L 199.208072 -189.222143 
L 200.489848 -189.722675 
L 201.771625 -190.255808 
L 203.053401 -190.767123 
L 204.335178 -191.281899 
L 205.616954 -191.793969 
L 206.89873 -192.29719 
L 208.180507 -192.802357 
L 209.462283 -193.289229 
L 210.74406 -193.799013 
L 212.025836 -194.318076 
L 213.307613 -194.81616 
L 214.589389 -195.30375 
L 215.871165 -195.823009 
L 217.152942 -196.324351 
L 218.434718 -196.835337 
L 219.716495 -197.338696 
L 220.998271 -197.831518 
L 222.280047 -198.335057 
L 223.561824 -198.842328 
L 224.8436 -199.305499 
L 226.125377 -199.820183 
L 227.407153 -200.3154 
L 228.68893 -200.802882 
L 229.970706 -201.290182 
L 231.252482 -201.775671 
L 232.534259 -202.265787 
L 233.816035 -202.735826 
L 235.097812 -203.221072 
L 236.379588 -203.716225 
L 237.661364 -204.215617 
L 238.943141 -204.719127 
L 240.224917 -205.194332 
L 241.506694 -205.710968 
L 242.78847 -206.256414 
L 244.070247 -206.777381 
L 245.352023 -207.314641 
L 246.633799 -207.86332 
L 247.915576 -208.439485 
L 249.197352 -209.025439 
L 250.479129 -209.57567 
L 251.760905 -210.193179 
L 253.042681 -210.784475 
L 254.324458 -211.416962 
L 255.606234 -212.004753 
L 256.888011 -212.683181 
L 258.169787 -213.351369 
L 259.451564 -214.003462 
L 260.73334 -214.666569 
L 262.015116 -215.348513 
L 263.296893 -216.059091 
L 264.578669 -216.731194 
L 265.860446 -217.490999 
L 267.142222 -218.169871 
L 268.423998 -218.951835 
L 269.705775 -219.71267 
L 270.987551 -220.459403 
L 272.269328 -221.24229 
L 273.551104 -222.037254 
L 274.832881 -222.770491 
L 276.114657 -223.71158 
L 277.396433 -224.535532 
L 278.67821 -225.311662 
L 279.959986 -226.177943 
L 281.241763 -227.092713 
L 282.523539 -228.087401 
L 283.805315 -229.034665 
L 285.087092 -229.850426 
L 286.368868 -231.087394 
L 287.650645 -231.951086 
L 288.932421 -232.851354 
L 290.214198 -233.796908 
L 291.495974 -234.802035 
L 292.77775 -235.842766 
L 294.059527 -236.472219 
L 295.341303 -237.43519 
L 296.62308 -239.095732 
L 297.904856 -240.454398 
L 299.186632 -241.346405 
L 300.468409 -242.663277 
L 301.750185 -243.855717 
L 303.031962 -244.781106 
L 304.313738 -246.226838 
L 305.595515 -247.971377 
L 306.877291 -249.050176 
L 308.159067 -249.764651 
L 309.440844 -251.156338 
L 310.72262 -251.910865 
L 312.004397 -252.655053 
L 313.286173 -254.400457 
L 314.567949 -254.377048 
L 315.849726 -253.823901 
L 317.131502 -252.82381 
L 318.413279 -254.445226 
L 319.695055 -251.950821 
L 320.976832 -251.233154 
L 322.258608 -254.978223 
L 323.540384 -254.763427 
L 324.822161 -252.906642 
L 326.103937 -254.132191 
L 327.385714 -253.964852 
L 328.66749 -246.902127 
L 329.949266 -237.04509 
L 331.231043 -231.759367 
L 332.512819 -243.355918 
L 333.794596 -237.850739 
L 335.076372 -230.436429 
L 336.358149 -230.585065 
L 337.639925 -215.654427 
L 338.921701 -218.00857 
L 340.203478 -222.074096 
L 341.485254 -234.303551 
L 342.767031 -223.470544 
L 344.048807 -217.113324 
L 345.330583 -219.840903 
L 346.61236 -218.050763 
L 347.894136 -211.844983 
L 349.175913 -212.775877 
L 350.457689 -218.457228 
L 351.739466 -211.762493 
L 353.021242 -210.59161 
L 354.303018 -213.188023 
L 355.584795 -208.908733 
L 356.866571 -207.322802 
L 358.148348 -208.001215 
L 359.430124 -209.368644 
L 360.7119 -208.015245 
L 361.993677 -209.531562 
L 363.275453 -209.495311 
L 364.55723 -208.32495 
L 365.839006 -209.698431 
L 367.120783 -209.183425 
L 368.402559 -209.260523 
L 369.684335 -210.406425 
L 370.966112 -210.146027 
L 372.247888 -211.842424 
L 373.529665 -211.840055 
L 374.811441 -211.57829 
L 376.093217 -211.724965 
L 377.374994 -212.6218 
L 378.65677 -213.436147 
L 379.938547 -213.801132 
L 381.220323 -214.64966 
L 382.502099 -214.965177 
L 383.783876 -215.376434 
L 385.065652 -216.56363 
L 386.347429 -216.305404 
L 387.629205 -217.27964 
L 388.910982 -217.833855 
L 390.192758 -218.075422 
L 391.474534 -219.003729 
L 392.756311 -219.389769 
L 394.038087 -219.418122 
L 395.319864 -219.424913 
L 396.60164 -220.79794 
L 397.883416 -221.30371 
L 399.165193 -221.911756 
L 400.446969 -220.401938 
L 401.728746 -220.677579 
L 403.010522 -220.271388 
L 404.292299 -222.285667 
L 405.574075 -223.684632 
L 406.855851 -223.620238 
L 408.137628 -222.723359 
L 409.419404 -222.815906 
L 410.701181 -225.31286 
L 411.982957 -223.731306 
L 413.264733 -224.614289 
L 414.54651 -225.066957 
L 415.828286 -226.371716 
L 417.110063 -225.903604 
L 418.391839 -226.712098 
L 419.673616 -226.500939 
L 420.955392 -227.377636 
L 422.237168 -228.410695 
L 423.518945 -229.571744 
L 424.800721 -230.260658 
L 426.082498 -231.093337 
L 427.364274 -231.940564 
L 428.64605 -232.281486 
L 429.927827 -233.213735 
L 431.209603 -234.100948 
L 432.49138 -235.769073 
L 433.773156 -237.302267 
L 435.054933 -238.159878 
L 436.336709 -239.714673 
L 437.618485 -240.331146 
L 438.900262 -241.751763 
L 440.182038 -243.568281 
L 441.463815 -245.242023 
L 442.745591 -246.553382 
L 444.027367 -248.500345 
L 445.309144 -249.801394 
L 446.59092 -251.650792 
L 447.872697 -253.482277 
L 449.154473 -255.157533 
L 450.43625 -256.932888 
L 451.718026 -258.932931 
L 452.999802 -260.89726 
L 454.281579 -262.844394 
L 455.563355 -265.14525 
L 456.845132 -267.219998 
L 458.126908 -269.126729 
L 459.408684 -271.204771 
L 460.690461 -273.47752 
L 461.972237 -275.73312 
L 463.254014 -278.050384 
L 464.53579 -280.994342 
L 465.817567 -283.046426 
L 467.099343 -285.430205 
L 468.381119 -287.456921 
L 469.662896 -290.363951 
L 470.944672 -293.151375 
L 472.226449 -295.348313 
L 473.508225 -298.307274 
L 474.790001 -301.401396 
L 476.071778 -303.781269 
L 477.353554 -306.960779 
L 478.635331 -309.384646 
L 479.917107 -312.362281 
L 481.198884 -316.038518 
L 482.48066 -319.136637 
L 483.762436 -321.402847 
L 485.044213 -324.92071 
L 486.325989 -327.767773 
L 487.607766 -331.115159 
L 488.889542 -333.538367 
L 490.171318 -337.349094 
L 491.453095 -340.65327 
L 492.734871 -340.905372 
L 494.016648 -346.797621 
L 495.298424 -348.321396 
L 496.580201 -352.067334 
L 497.861977 -354.055236 
L 499.143753 -357.810769 
L 500.42553 -360.528601 
L 501.707306 -363.39864 
L 502.989083 -365.869452 
L 504.270859 -368.323513 
L 505.552635 -371.201504 
L 506.834412 -370.156948 
L 508.116188 -377.05011 
L 509.397965 -378.49659 
L 510.679741 -375.908551 
L 511.961518 -382.553274 
L 513.243294 -381.711233 
L 514.52507 -382.798511 
L 515.806847 -387.021645 
L 517.088623 -387.090972 
L 518.3704 -382.577458 
L 519.652176 -386.873386 
L 520.933952 -387.673911 
L 522.215729 -386.288671 
L 523.497505 -386.326481 
L 524.779282 -383.996038 
L 526.061058 -381.267396 
L 527.342835 -376.373516 
L 528.624611 -362.977054 
L 529.906387 -367.557872 
L 531.188164 -359.851011 
L 532.46994 -355.492408 
L 533.751717 -351.978677 
L 535.033493 -346.482745 
L 536.315269 -341.227353 
L 537.597046 -346.946232 
L 538.878822 -339.854841 
L 540.160599 -330.335984 
L 541.442375 -325.727566 
L 542.724152 -323.636667 
L 544.005928 -310.883478 
L 545.287704 -309.731987 
L 546.569481 -306.732964 
L 547.851257 -307.045323 
L 549.133034 -296.810873 
L 550.41481 -299.242296 
L 551.696586 -301.333367 
L 552.978363 -291.869259 
L 554.260139 -285.896255 
L 555.541916 -286.014324 
L 556.823692 -281.604716 
L 558.105469 -280.276809 
L 559.387245 -279.609106 
L 560.669021 -279.329152 
L 561.950798 -277.876147 
L 563.232574 -276.038249 
L 564.514351 -269.57731 
L 565.796127 -273.496042 
L 567.077903 -267.938191 
L 568.35968 -268.60493 
L 569.641456 -269.431965 
L 570.923233 -267.18932 
L 572.205009 -265.230102 
L 573.486786 -268.148978 
L 574.768562 -265.673084 
L 576.050338 -265.753619 
L 577.332115 -263.131105 
L 578.613891 -264.141158 
L 579.895668 -265.361145 
L 581.177444 -264.008744 
L 582.45922 -263.916944 
L 583.740997 -264.423465 
L 585.022773 -265.376808 
L 586.30455 -264.861806 
L 587.586326 -266.831768 
L 588.868103 -266.617622 
L 590.149879 -264.448574 
L 591.431655 -265.039752 
L 592.713432 -267.216302 
L 593.995208 -267.435213 
L 595.276985 -268.044287 
L 596.558761 -270.866352 
L 597.840537 -270.246042 
L 599.122314 -269.046452 
L 600.40409 -271.861974 
L 601.685867 -272.570915 
L 602.967643 -274.19436 
L 604.24942 -274.012865 
L 605.531196 -274.773628 
L 606.812972 -276.059929 
L 608.094749 -276.858839 
L 609.376525 -277.707086 
L 610.658302 -278.9412 
L 611.940078 -281.092645 
L 613.221854 -282.095476 
L 614.503631 -283.603905 
L 615.785407 -286.666417 
L 617.067184 -285.033691 
L 618.34896 -288.478722 
L 619.630737 -288.047212 
L 620.912513 -288.601075 
L 622.194289 -288.838026 
L 623.476066 -290.780951 
L 624.757842 -290.850406 
L 626.039619 -291.336568 
L 627.321395 -294.66122 
L 628.603171 -294.075066 
L 629.884948 -294.782129 
L 631.166724 -294.486987 
L 632.448501 -296.673357 
L 633.730277 -296.196708 
L 635.012054 -296.895498 
L 636.29383 -299.930573 
L 637.575606 -300.312466 
L 638.857383 -301.181284 
L 640.139159 -301.569739 
L 641.420936 -303.021216 
L 642.702712 -302.999405 
L 643.984488 -303.731733 
L 645.266265 -304.321721 
L 646.548041 -305.302564 
L 647.829818 -306.882978 
L 649.111594 -305.527606 
L 650.393371 -306.026079 
L 651.675147 -307.261162 
L 652.956923 -308.043421 
L 654.2387 -309.967651 
L 655.520476 -308.548654 
L 656.802253 -309.00486 
L 658.084029 -309.170446 
L 659.365805 -310.282835 
L 660.647582 -311.503811 
L 661.929358 -312.35471 
L 663.211135 -312.416542 
L 664.492911 -312.702054 
L 665.774688 -312.878296 
L 667.056464 -314.397753 
L 668.33824 -315.806606 
L 669.620017 -314.142887 
L 670.901793 -316.257917 
L 672.18357 -316.039252 
L 673.465346 -315.450611 
L 674.747122 -318.688738 
L 676.028899 -318.270513 
L 677.310675 -317.83365 
L 678.592452 -319.041003 
L 679.874228 -317.699195 
L 681.156005 -319.847113 
L 682.437781 -321.465361 
L 683.719557 -319.414657 
L 685.001334 -319.49721 
L 686.28311 -320.961151 
L 687.564887 -320.429872 
L 688.846663 -321.326476 
L 690.128439 -318.285071 
L 691.410216 -319.164885 
L 692.691992 -318.961637 
L 693.973769 -321.836974 
L 695.255545 -323.862966 
L 696.537322 -321.575257 
L 697.819098 -319.004933 
L 699.100874 -322.320549 
L 700.382651 -322.743369 
L 701.664427 -325.174343 
L 702.946204 -324.922606 
L 704.22798 -323.674514 
L 705.509756 -325.552553 
L 706.791533 -327.376354 
L 708.073309 -324.479442 
L 709.355086 -326.638592 
L 710.636862 -324.103864 
L 711.918639 -323.631178 
L 713.200415 -328.031219 
L 714.482191 -327.45862 
L 715.763968 -328.839113 
L 717.045744 -327.64277 
L 718.327521 -326.000181 
L 719.609297 -321.320996 
L 720.891073 -319.570565 
L 722.17285 -321.480678 
L 723.454626 -316.852955 
L 724.736403 -309.761954 
L 726.018179 -318.14755 
L 727.299956 -321.005534 
L 728.581732 -317.920682 
L 729.863508 -315.218756 
L 731.145285 -314.655808 
L 732.427061 -316.165127 
L 733.708838 -310.681495 
L 734.990614 -307.346018 
L 736.27239 -313.323083 
L 737.554167 -307.771101 
L 738.835943 -310.322945 
L 740.11772 -310.258234 
L 741.399496 -305.196355 
L 742.681273 -306.631442 
L 743.963049 -302.595357 
L 745.244825 -302.282628 
L 746.526602 -307.933552 
L 747.808378 -303.463131 
L 749.090155 -303.764321 
L 750.371931 -300.240184 
L 751.653707 -301.719358 
L 752.935484 -297.549007 
L 754.21726 -300.556621 
L 755.499037 -298.130081 
L 756.780813 -297.984789 
L 758.06259 -296.626077 
L 759.344366 -300.882064 
L 760.626142 -296.177916 
L 761.907919 -294.851786 
L 763.189695 -293.020199 
L 764.471472 -289.811153 
L 765.753248 -291.017316 
L 767.035024 -291.950244 
L 768.316801 -289.119219 
L 769.598577 -286.623981 
L 770.880354 -289.265987 
L 772.16213 -290.618538 
L 773.443907 -287.930705 
L 774.725683 -286.135032 
L 776.007459 -289.839771 
L 777.289236 -290.73372 
L 778.571012 -284.152603 
L 779.852789 -281.941915 
L 781.134565 -288.634559 
L 782.416341 -286.754999 
L 783.698118 -285.517985 
L 784.979894 -284.587773 
L 786.261671 -280.561611 
L 787.543447 -282.364656 
L 788.825224 -284.777129 
L 790.107 -281.930954 
L 791.388776 -280.403157 
L 792.670553 -284.818993 
L 793.952329 -284.012869 
L 795.234106 -284.290408 
L 796.515882 -277.554662 
L 797.797658 -273.400826 
L 799.079435 -272.879946 
L 800.361211 -278.29392 
L 801.642988 -280.568956 
L 802.924764 -278.859917 
L 804.206541 -278.472229 
L 805.488317 -272.305662 
L 806.770093 -279.660588 
L 808.05187 -273.435905 
L 809.333646 -269.521205 
L 810.615423 -273.050274 
L 811.897199 -266.444249 
L 813.178975 -270.406245 
L 814.460752 -268.846157 
L 815.742528 -268.133501 
L 817.024305 -266.648909 
L 818.306081 -263.341743 
L 819.587858 -265.363368 
L 820.869634 -263.313253 
L 822.15141 -262.223855 
L 823.433187 -262.091721 
L 824.714963 -269.644945 
L 825.99674 -258.461676 
L 827.278516 -254.506976 
L 828.560292 -258.553274 
L 829.842069 -255.343153 
L 831.123845 -254.064171 
L 832.405622 -255.890192 
L 833.687398 -252.33083 
L 834.969175 -247.728976 
L 836.250951 -248.948057 
L 837.532727 -247.667503 
L 838.814504 -245.958304 
L 840.09628 -245.475292 
L 841.378057 -242.352779 
L 842.659833 -248.404481 
L 843.941609 -239.298578 
L 845.223386 -239.238344 
L 846.505162 -239.867998 
L 847.786939 -244.325975 
L 849.068715 -237.086188 
L 850.350492 -231.516988 
L 851.632268 -237.420191 
L 852.914044 -235.96742 
L 854.195821 -229.881159 
L 855.477597 -241.086237 
L 856.759374 -230.844327 
L 858.04115 -236.642255 
L 859.322926 -226.631932 
L 860.604703 -231.932295 
L 861.886479 -227.177221 
L 863.168256 -226.46487 
L 864.450032 -223.361428 
L 865.731809 -223.455663 
L 867.013585 -225.057591 
L 868.295361 -225.411887 
L 869.577138 -223.416044 
L 870.858914 -219.115439 
L 872.140691 -219.455795 
L 873.422467 -219.924052 
L 874.704243 -216.260482 
L 875.98602 -216.33602 
L 877.267796 -217.140589 
L 878.549573 -217.801406 
L 879.831349 -213.25515 
L 881.113126 -212.67618 
L 882.394902 -211.439546 
L 883.676678 -213.815685 
L 884.958455 -217.761597 
L 886.240231 -211.967174 
L 887.522008 -214.303856 
L 888.803784 -212.290047 
L 890.08556 -210.262574 
L 891.367337 -212.582962 
L 892.649113 -208.858032 
L 893.93089 -211.307399 
L 895.212666 -211.343695 
L 896.494443 -210.430361 
L 897.776219 -208.115806 
L 899.057995 -209.066223 
L 900.339772 -209.199021 
L 901.621548 -210.383546 
L 902.903325 -209.759546 
L 904.185101 -208.978119 
L 905.466877 -209.376147 
L 906.748654 -207.105963 
L 908.03043 -207.77669 
L 909.312207 -205.97626 
L 910.593983 -205.132775 
L 911.87576 -204.785143 
L 913.157536 -205.789167 
L 914.439312 -205.960189 
L 915.721089 -206.535487 
L 917.002865 -205.520762 
L 918.284642 -205.63213 
L 919.566418 -206.833104 
L 920.848194 -205.125024 
L 922.129971 -211.94008 
L 923.411747 -205.324813 
L 924.693524 -203.348846 
L 925.9753 -205.70896 
L 927.257077 -205.607634 
L 928.538853 -204.094715 
L 929.820629 -203.815107 
L 931.102406 -205.712288 
L 932.384182 -206.096768 
L 933.665959 -204.766655 
L 934.947735 -205.603509 
L 936.229511 -202.583968 
L 937.511288 -204.604147 
L 938.793064 -201.7755 
L 940.074841 -204.658759 
L 940.074841 -252.093825 
L 940.074841 -252.093825 
L 938.793064 -254.89545 
L 937.511288 -258.608964 
L 936.229511 -254.945532 
L 934.947735 -262.216196 
L 933.665959 -260.121924 
L 932.384182 -261.466613 
L 931.102406 -268.588993 
L 929.820629 -261.11436 
L 928.538853 -256.991866 
L 927.257077 -267.966377 
L 925.9753 -263.419969 
L 924.693524 -258.367337 
L 923.411747 -261.981502 
L 922.129971 -305.112746 
L 920.848194 -263.309819 
L 919.566418 -271.104562 
L 918.284642 -263.543595 
L 917.002865 -263.975413 
L 915.721089 -266.698304 
L 914.439312 -267.266377 
L 913.157536 -267.663721 
L 911.87576 -262.954322 
L 910.593983 -263.547783 
L 909.312207 -268.56038 
L 908.03043 -274.642139 
L 906.748654 -270.860464 
L 905.466877 -277.670389 
L 904.185101 -275.892741 
L 902.903325 -279.77689 
L 901.621548 -282.37095 
L 900.339772 -277.512149 
L 899.057995 -277.462261 
L 897.776219 -275.620788 
L 896.494443 -280.612849 
L 895.212666 -285.542896 
L 893.93089 -285.686332 
L 892.649113 -276.328906 
L 891.367337 -289.079665 
L 890.08556 -280.691391 
L 888.803784 -286.652426 
L 887.522008 -292.218664 
L 886.240231 -285.128219 
L 884.958455 -306.593066 
L 883.676678 -290.282837 
L 882.394902 -283.410992 
L 881.113126 -287.329407 
L 879.831349 -287.978796 
L 878.549573 -305.048286 
L 877.267796 -301.056121 
L 875.98602 -297.888181 
L 874.704243 -296.849459 
L 873.422467 -307.707305 
L 872.140691 -305.321517 
L 870.858914 -305.390275 
L 869.577138 -314.027254 
L 868.295361 -321.694964 
L 867.013585 -321.609447 
L 865.731809 -317.149355 
L 864.450032 -316.857857 
L 863.168256 -323.368673 
L 861.886479 -324.961038 
L 860.604703 -339.381241 
L 859.322926 -322.927564 
L 858.04115 -357.834554 
L 856.759374 -336.667886 
L 855.477597 -367.311991 
L 854.195821 -332.36849 
L 852.914044 -349.138883 
L 851.632268 -350.629924 
L 850.350492 -337.889732 
L 849.068715 -351.79626 
L 847.786939 -371.541922 
L 846.505162 -359.907883 
L 845.223386 -356.51723 
L 843.941609 -356.279758 
L 842.659833 -380.976254 
L 841.378057 -371.867902 
L 840.09628 -371.326286 
L 838.814504 -372.247903 
L 837.532727 -376.640817 
L 836.250951 -380.970022 
L 834.969175 -376.385497 
L 833.687398 -389.159332 
L 832.405622 -398.32019 
L 831.123845 -389.806185 
L 829.842069 -396.990895 
L 828.560292 -401.859625 
L 827.278516 -391.464475 
L 825.99674 -401.110124 
L 824.714963 -429.526763 
L 823.433187 -410.59325 
L 822.15141 -411.708672 
L 820.869634 -413.313015 
L 819.587858 -418.42204 
L 818.306081 -413.074229 
L 817.024305 -420.140329 
L 815.742528 -423.033535 
L 814.460752 -425.02753 
L 813.178975 -430.517924 
L 811.897199 -418.966692 
L 810.615423 -434.500764 
L 809.333646 -426.753651 
L 808.05187 -434.853734 
L 806.770093 -447.066891 
L 805.488317 -432.178951 
L 804.206541 -446.64642 
L 802.924764 -445.957704 
L 801.642988 -448.898609 
L 800.361211 -443.82685 
L 799.079435 -431.986069 
L 797.797658 -431.862547 
L 796.515882 -440.435475 
L 795.234106 -456.748499 
L 793.952329 -455.529772 
L 792.670553 -455.389824 
L 791.388776 -445.816753 
L 790.107 -448.117849 
L 788.825224 -454.164464 
L 787.543447 -448.006541 
L 786.261671 -445.18011 
L 784.979894 -452.49543 
L 783.698118 -452.842599 
L 782.416341 -455.388696 
L 781.134565 -458.659951 
L 779.852789 -443.232645 
L 778.571012 -450.033627 
L 777.289236 -461.115321 
L 776.007459 -457.485678 
L 774.725683 -449.745914 
L 773.443907 -453.490522 
L 772.16213 -457.530238 
L 770.880354 -453.466651 
L 769.598577 -446.242621 
L 768.316801 -453.472608 
L 767.035024 -456.951223 
L 765.753248 -453.735934 
L 764.471472 -455.074155 
L 763.189695 -456.852646 
L 761.907919 -459.27353 
L 760.626142 -460.944518 
L 759.344366 -469.098415 
L 758.06259 -461.268012 
L 756.780813 -462.766876 
L 755.499037 -461.5965 
L 754.21726 -463.289769 
L 752.935484 -459.717441 
L 751.653707 -465.596239 
L 750.371931 -461.533765 
L 749.090155 -466.997265 
L 747.808378 -465.409886 
L 746.526602 -471.89115 
L 745.244825 -464.937594 
L 743.963049 -462.378536 
L 742.681273 -465.806405 
L 741.399496 -465.204617 
L 740.11772 -471.098308 
L 738.835943 -469.409567 
L 737.554167 -467.25127 
L 736.27239 -474.113812 
L 734.990614 -466.72754 
L 733.708838 -468.759171 
L 732.427061 -476.500975 
L 731.145285 -473.168325 
L 729.863508 -473.574912 
L 728.581732 -475.442204 
L 727.299956 -478.84092 
L 726.018179 -475.141502 
L 724.736403 -461.436369 
L 723.454626 -470.258873 
L 722.17285 -476.635041 
L 720.891073 -473.626356 
L 719.609297 -475.292207 
L 718.327521 -479.437042 
L 717.045744 -481.238205 
L 715.763968 -482.459829 
L 714.482191 -479.161576 
L 713.200415 -478.563719 
L 711.918639 -473.013528 
L 710.636862 -472.488998 
L 709.355086 -474.487979 
L 708.073309 -470.466419 
L 706.791533 -473.960888 
L 705.509756 -469.613913 
L 704.22798 -467.113142 
L 702.946204 -466.299894 
L 701.664427 -466.767523 
L 700.382651 -462.32287 
L 699.100874 -461.354959 
L 697.819098 -457.018082 
L 696.537322 -458.350877 
L 695.255545 -460.077473 
L 693.973769 -456.890141 
L 692.691992 -454.222055 
L 691.410216 -453.389317 
L 690.128439 -450.481511 
L 688.846663 -453.672369 
L 687.564887 -451.630989 
L 686.28311 -451.798474 
L 685.001334 -450.393798 
L 683.719557 -450.406774 
L 682.437781 -451.429288 
L 681.156005 -447.906881 
L 679.874228 -445.768741 
L 678.592452 -447.282251 
L 677.310675 -445.088119 
L 676.028899 -446.289901 
L 674.747122 -444.668792 
L 673.465346 -440.875686 
L 672.18357 -441.091014 
L 670.901793 -440.59784 
L 669.620017 -438.124617 
L 668.33824 -439.623412 
L 667.056464 -437.889776 
L 665.774688 -435.648725 
L 664.492911 -435.437351 
L 663.211135 -434.544998 
L 661.929358 -434.224507 
L 660.647582 -433.066977 
L 659.365805 -431.455831 
L 658.084029 -430.170122 
L 656.802253 -430.181235 
L 655.520476 -429.070157 
L 654.2387 -432.306676 
L 652.956923 -428.311953 
L 651.675147 -427.431799 
L 650.393371 -426.245793 
L 649.111594 -426.149101 
L 647.829818 -426.631788 
L 646.548041 -424.759173 
L 645.266265 -423.571372 
L 643.984488 -422.476787 
L 642.702712 -421.924934 
L 641.420936 -421.748052 
L 640.139159 -420.652975 
L 638.857383 -419.786555 
L 637.575606 -418.515211 
L 636.29383 -417.600845 
L 635.012054 -413.913963 
L 633.730277 -413.062523 
L 632.448501 -413.59957 
L 631.166724 -410.856776 
L 629.884948 -411.380111 
L 628.603171 -410.188796 
L 627.321395 -411.613113 
L 626.039619 -406.3684 
L 624.757842 -405.605649 
L 623.476066 -405.348662 
L 622.194289 -402.793609 
L 620.912513 -402.364176 
L 619.630737 -401.356476 
L 618.34896 -401.824828 
L 617.067184 -397.441042 
L 615.785407 -398.672995 
L 614.503631 -394.388959 
L 613.221854 -391.856582 
L 611.940078 -390.150394 
L 610.658302 -386.919046 
L 609.376525 -384.479598 
L 608.094749 -383.436423 
L 606.812972 -381.524566 
L 605.531196 -379.765249 
L 604.24942 -378.161258 
L 602.967643 -377.942213 
L 601.685867 -374.989419 
L 600.40409 -373.048358 
L 599.122314 -369.49334 
L 597.840537 -369.944536 
L 596.558761 -369.59862 
L 595.276985 -365.849074 
L 593.995208 -364.300966 
L 592.713432 -362.681378 
L 591.431655 -359.880412 
L 590.149879 -358.58983 
L 588.868103 -359.533801 
L 587.586326 -358.615571 
L 586.30455 -355.869318 
L 585.022773 -355.084959 
L 583.740997 -353.585013 
L 582.45922 -352.329856 
L 581.177444 -351.306796 
L 579.895668 -350.848004 
L 578.613891 -349.182853 
L 577.332115 -347.471282 
L 576.050338 -349.31358 
L 574.768562 -347.94423 
L 573.486786 -348.901193 
L 572.205009 -345.645407 
L 570.923233 -345.793234 
L 569.641456 -347.265847 
L 568.35968 -345.507457 
L 567.077903 -344.376618 
L 565.796127 -348.174644 
L 564.514351 -343.741376 
L 563.232574 -348.379732 
L 561.950798 -348.755563 
L 560.669021 -349.110949 
L 559.387245 -348.051014 
L 558.105469 -347.84193 
L 556.823692 -348.328824 
L 555.541916 -351.042686 
L 554.260139 -349.467825 
L 552.978363 -354.146814 
L 551.696586 -359.577288 
L 550.41481 -357.616199 
L 549.133034 -355.304237 
L 547.851257 -361.822847 
L 546.569481 -361.483562 
L 545.287704 -362.913991 
L 544.005928 -363.104907 
L 542.724152 -371.859497 
L 541.442375 -372.423847 
L 540.160599 -375.565392 
L 538.878822 -382.674596 
L 537.597046 -386.731426 
L 536.315269 -381.529132 
L 535.033493 -385.038981 
L 533.751717 -388.578725 
L 532.46994 -390.974937 
L 531.188164 -393.989388 
L 529.906387 -399.214217 
L 528.624611 -395.253791 
L 527.342835 -405.208113 
L 526.061058 -407.820912 
L 524.779282 -410.093621 
L 523.497505 -411.453113 
L 522.215729 -411.170476 
L 520.933952 -412.521825 
L 519.652176 -411.869967 
L 518.3704 -407.684213 
L 517.088623 -411.287773 
L 515.806847 -411.381255 
L 514.52507 -407.413155 
L 513.243294 -406.40527 
L 511.961518 -406.978249 
L 510.679741 -400.909503 
L 509.397965 -403.061266 
L 508.116188 -401.892095 
L 506.834412 -395.243574 
L 505.552635 -396.184035 
L 504.270859 -393.460201 
L 502.989083 -391.188725 
L 501.707306 -388.76246 
L 500.42553 -385.873359 
L 499.143753 -383.321123 
L 497.861977 -379.816271 
L 496.580201 -377.787239 
L 495.298424 -374.406249 
L 494.016648 -372.880112 
L 492.734871 -367.170379 
L 491.453095 -366.990236 
L 490.171318 -363.813181 
L 488.889542 -360.279506 
L 487.607766 -357.835829 
L 486.325989 -354.697172 
L 485.044213 -351.906238 
L 483.762436 -348.605123 
L 482.48066 -346.339141 
L 481.198884 -343.536576 
L 479.917107 -340.128542 
L 478.635331 -337.215788 
L 477.353554 -334.90034 
L 476.071778 -332.009078 
L 474.790001 -329.590914 
L 473.508225 -326.652236 
L 472.226449 -323.82132 
L 470.944672 -321.722643 
L 469.662896 -319.019924 
L 468.381119 -316.257181 
L 467.099343 -314.268222 
L 465.817567 -311.927101 
L 464.53579 -309.913749 
L 463.254014 -307.00386 
L 461.972237 -304.764065 
L 460.690461 -302.443538 
L 459.408684 -300.156452 
L 458.126908 -298.138297 
L 456.845132 -296.100713 
L 455.563355 -294.019949 
L 454.281579 -291.666231 
L 452.999802 -289.702713 
L 451.718026 -287.608875 
L 450.43625 -285.678655 
L 449.154473 -283.602799 
L 447.872697 -281.714185 
L 446.59092 -279.785126 
L 445.309144 -277.825071 
L 444.027367 -276.254084 
L 442.745591 -274.212098 
L 441.463815 -272.61728 
L 440.182038 -270.829359 
L 438.900262 -268.808776 
L 437.618485 -267.210298 
L 436.336709 -266.398831 
L 435.054933 -264.618516 
L 433.773156 -263.460743 
L 432.49138 -261.666806 
L 431.209603 -259.840954 
L 429.927827 -258.61432 
L 428.64605 -257.378618 
L 427.364274 -256.914784 
L 426.082498 -255.774161 
L 424.800721 -254.822253 
L 423.518945 -253.982695 
L 422.237168 -252.56408 
L 420.955392 -251.351289 
L 419.673616 -250.152419 
L 418.391839 -250.292549 
L 417.110063 -249.399112 
L 415.828286 -249.749503 
L 414.54651 -248.119269 
L 413.264733 -247.669989 
L 411.982957 -246.238583 
L 410.701181 -247.852998 
L 409.419404 -245.112903 
L 408.137628 -244.919634 
L 406.855851 -245.806386 
L 405.574075 -245.763355 
L 404.292299 -244.144701 
L 403.010522 -241.811071 
L 401.728746 -242.201975 
L 400.446969 -241.843788 
L 399.165193 -243.521347 
L 397.883416 -243.205456 
L 396.60164 -242.210537 
L 395.319864 -240.581788 
L 394.038087 -240.577913 
L 392.756311 -240.52257 
L 391.474534 -240.043909 
L 390.192758 -238.937229 
L 388.910982 -238.802035 
L 387.629205 -237.991842 
L 386.347429 -236.807757 
L 385.065652 -237.116849 
L 383.783876 -235.728066 
L 382.502099 -235.207749 
L 381.220323 -234.811808 
L 379.938547 -233.839027 
L 378.65677 -233.396834 
L 377.374994 -232.299216 
L 376.093217 -231.16236 
L 374.811441 -230.928418 
L 373.529665 -231.100217 
L 372.247888 -231.232776 
L 370.966112 -229.013248 
L 369.684335 -229.180143 
L 368.402559 -227.715427 
L 367.120783 -227.527935 
L 365.839006 -227.826582 
L 364.55723 -226.36822 
L 363.275453 -227.352956 
L 361.993677 -227.144404 
L 360.7119 -225.38164 
L 359.430124 -226.446854 
L 358.148348 -224.796796 
L 356.866571 -223.960567 
L 355.584795 -225.236253 
L 354.303018 -229.29258 
L 353.021242 -226.422524 
L 351.739466 -227.442429 
L 350.457689 -233.469911 
L 349.175913 -227.82765 
L 347.894136 -226.639798 
L 346.61236 -232.201318 
L 345.330583 -233.750027 
L 344.048807 -230.685623 
L 342.767031 -236.532563 
L 341.485254 -246.776563 
L 340.203478 -234.614399 
L 338.921701 -230.483217 
L 337.639925 -227.859769 
L 336.358149 -241.971784 
L 335.076372 -241.560353 
L 333.794596 -248.405338 
L 332.512819 -253.77077 
L 331.231043 -241.958244 
L 329.949266 -246.860826 
L 328.66749 -256.431083 
L 327.385714 -263.203137 
L 326.103937 -263.057615 
L 324.822161 -261.494833 
L 323.540384 -263.083911 
L 322.258608 -263.03166 
L 320.976832 -258.9164 
L 319.695055 -259.416908 
L 318.413279 -261.680606 
L 317.131502 -259.775945 
L 315.849726 -260.518605 
L 314.567949 -260.830447 
L 313.286173 -260.541547 
L 312.004397 -258.555139 
L 310.72262 -257.550777 
L 309.440844 -256.583404 
L 308.159067 -254.933421 
L 306.877291 -254.001309 
L 305.595515 -252.704117 
L 304.313738 -250.761969 
L 303.031962 -249.044578 
L 301.750185 -247.943675 
L 300.468409 -246.542253 
L 299.186632 -245.042315 
L 297.904856 -243.928881 
L 296.62308 -242.401682 
L 295.341303 -240.565487 
L 294.059527 -239.458493 
L 292.77775 -238.626451 
L 291.495974 -237.44974 
L 290.214198 -236.265295 
L 288.932421 -235.190615 
L 287.650645 -234.159782 
L 286.368868 -233.162596 
L 285.087092 -231.858151 
L 283.805315 -231.112123 
L 282.523539 -230.150894 
L 281.241763 -229.161641 
L 279.959986 -228.236969 
L 278.67821 -227.371807 
L 277.396433 -226.629556 
L 276.114657 -225.829204 
L 274.832881 -224.826883 
L 273.551104 -224.128984 
L 272.269328 -223.32621 
L 270.987551 -222.545872 
L 269.705775 -221.791482 
L 268.423998 -221.020729 
L 267.142222 -220.2341 
L 265.860446 -219.566323 
L 264.578669 -218.791762 
L 263.296893 -218.111345 
L 262.015116 -217.38594 
L 260.73334 -216.703654 
L 259.451564 -216.020633 
L 258.169787 -215.37621 
L 256.888011 -214.696539 
L 255.606234 -213.980721 
L 254.324458 -213.408484 
L 253.042681 -212.732669 
L 251.760905 -212.133062 
L 250.479129 -211.464138 
L 249.197352 -210.936279 
L 247.915576 -210.314689 
L 246.633799 -209.718293 
L 245.352023 -209.151062 
L 244.070247 -208.585368 
L 242.78847 -208.042545 
L 241.506694 -207.433566 
L 240.224917 -206.877002 
L 238.943141 -206.406086 
L 237.661364 -205.862336 
L 236.379588 -205.320832 
L 235.097812 -204.785856 
L 233.816035 -204.268513 
L 232.534259 -203.783276 
L 231.252482 -203.250467 
L 229.970706 -202.726473 
L 228.68893 -202.198582 
L 227.407153 -201.671266 
L 226.125377 -201.129001 
L 224.8436 -200.564904 
L 223.561824 -200.07393 
L 222.280047 -199.514647 
L 220.998271 -198.964216 
L 219.716495 -198.432739 
L 218.434718 -197.884465 
L 217.152942 -197.324452 
L 215.871165 -196.778638 
L 214.589389 -196.207177 
L 213.307613 -195.68032 
L 212.025836 -195.142938 
L 210.74406 -194.576 
L 209.462283 -194.026057 
L 208.180507 -193.506071 
L 206.89873 -192.964869 
L 205.616954 -192.43149 
L 204.335178 -191.885544 
L 203.053401 -191.336485 
L 201.771625 -190.798071 
L 200.489848 -190.236281 
L 199.208072 -189.714198 
L 197.926296 -189.160842 
L 196.644519 -188.622862 
L 195.362743 -188.038632 
L 194.080966 -187.526595 
L 192.79919 -186.969448 
L 191.517413 -186.422581 
L 190.235637 -185.866579 
L 188.953861 -185.327151 
L 187.672084 -184.782904 
L 186.390308 -184.236706 
L 185.108531 -183.691299 
L 183.826755 -183.153577 
L 182.544979 -182.643136 
L 181.263202 -182.129313 
L 179.981426 -181.618491 
L 178.699649 -181.124741 
L 177.417873 -180.628281 
L 176.136096 -180.138922 
L 174.85432 -179.669587 
L 173.572544 -179.204359 
L 172.290767 -178.744153 
L 171.008991 -178.304221 
L 169.727214 -177.871951 
L 168.445438 -177.430467 
L 167.163662 -177.014762 
L 165.881885 -176.624277 
L 164.600109 -176.21454 
L 163.318332 -175.829863 
L 162.036556 -175.482244 
L 160.754779 -175.125302 
L 159.473003 -174.797404 
L 158.191227 -174.461881 
L 156.90945 -174.154716 
L 155.627674 -173.853777 
L 154.345897 -173.571845 
L 153.064121 -173.300021 
L 151.782345 -173.04532 
L 150.500568 -172.822218 
L 149.218792 -172.598338 
L 147.937015 -172.385976 
L 146.655239 -172.195172 
L 145.373462 -171.991389 
L 144.091686 -171.817333 
L 142.80991 -171.665339 
L 141.528133 -171.491434 
L 140.246357 -171.34265 
L 138.96458 -171.211724 
L 137.682804 -171.070822 
L 136.401028 -170.934221 
L 135.119251 -170.819434 
L 133.837475 -170.696137 
L 132.555698 -170.597316 
L 131.273922 -170.479443 
L 129.992145 -170.382153 
L 128.710369 -170.280251 
L 127.428593 -170.174145 
L 126.146816 -170.086082 
L 124.86504 -169.994552 
L 123.583263 -169.889712 
L 122.301487 -169.793371 
L 121.019711 -169.695767 
L 119.737934 -169.614116 
L 118.456158 -169.514177 
L 117.174381 -169.425261 
L 115.892605 -169.335725 
L 114.610828 -169.25738 
L 113.329052 -169.18879 
L 112.047276 -169.111335 
L 110.765499 -169.026629 
L 109.483723 -168.941685 
L 108.201946 -168.871756 
L 106.92017 -168.806716 
L 105.638394 -168.725448 
L 104.356617 -168.656753 
L 103.074841 -168.576366 
z
" style="stroke: #008000; stroke-opacity: 0.3"/>
    </defs>
    <g clip-path="url(#p670ed4b3ff)">
     <use xlink:href="#me2697cbbb8" x="0" y="505.354841" style="fill: #008000; fill-opacity: 0.3; stroke: #008000; stroke-opacity: 0.3"/>
    </g>
   </g>
   <g id="matplotlib.axis_1">
    <g id="xtick_1">
     <g id="line2d_1">
      <defs>
       <path id="m361db13a90" d="M 0 0 
L 0 3.5 
" style="stroke: #000000; stroke-width: 0.8"/>
      </defs>
      <g>
       <use xlink:href="#m361db13a90" x="103.074841" y="395.28" style="stroke: #000000; stroke-width: 0.8"/>
      </g>
     </g>
     <g id="text_1">
      <!-- 2021-07-01 -->
      <g transform="translate(17.945813 495.213718) rotate(-45) scale(0.2 -0.2)">
       <defs>
        <path id="DejaVuSans-32" d="M 1228 531 
L 3431 531 
L 3431 0 
L 469 0 
L 469 531 
Q 828 903 1448 1529 
Q 2069 2156 2228 2338 
Q 2531 2678 2651 2914 
Q 2772 3150 2772 3378 
Q 2772 3750 2511 3984 
Q 2250 4219 1831 4219 
Q 1534 4219 1204 4116 
Q 875 4013 500 3803 
L 500 4441 
Q 881 4594 1212 4672 
Q 1544 4750 1819 4750 
Q 2544 4750 2975 4387 
Q 3406 4025 3406 3419 
Q 3406 3131 3298 2873 
Q 3191 2616 2906 2266 
Q 2828 2175 2409 1742 
Q 1991 1309 1228 531 
z
" transform="scale(0.015625)"/>
        <path id="DejaVuSans-30" d="M 2034 4250 
Q 1547 4250 1301 3770 
Q 1056 3291 1056 2328 
Q 1056 1369 1301 889 
Q 1547 409 2034 409 
Q 2525 409 2770 889 
Q 3016 1369 3016 2328 
Q 3016 3291 2770 3770 
Q 2525 4250 2034 4250 
z
M 2034 4750 
Q 2819 4750 3233 4129 
Q 3647 3509 3647 2328 
Q 3647 1150 3233 529 
Q 2819 -91 2034 -91 
Q 1250 -91 836 529 
Q 422 1150 422 2328 
Q 422 3509 836 4129 
Q 1250 4750 2034 4750 
z
" transform="scale(0.015625)"/>
        <path id="DejaVuSans-31" d="M 794 531 
L 1825 531 
L 1825 4091 
L 703 3866 
L 703 4441 
L 1819 4666 
L 2450 4666 
L 2450 531 
L 3481 531 
L 3481 0 
L 794 0 
L 794 531 
z
" transform="scale(0.015625)"/>
        <path id="DejaVuSans-2d" d="M 313 2009 
L 1997 2009 
L 1997 1497 
L 313 1497 
L 313 2009 
z
" transform="scale(0.015625)"/>
        <path id="DejaVuSans-37" d="M 525 4666 
L 3525 4666 
L 3525 4397 
L 1831 0 
L 1172 0 
L 2766 4134 
L 525 4134 
L 525 4666 
z
" transform="scale(0.015625)"/>
       </defs>
       <use xlink:href="#DejaVuSans-32"/>
       <use xlink:href="#DejaVuSans-30" x="63.623047"/>
       <use xlink:href="#DejaVuSans-32" x="127.246094"/>
       <use xlink:href="#DejaVuSans-31" x="190.869141"/>
       <use xlink:href="#DejaVuSans-2d" x="254.492188"/>
       <use xlink:href="#DejaVuSans-30" x="290.576172"/>
       <use xlink:href="#DejaVuSans-37" x="354.199219"/>
       <use xlink:href="#DejaVuSans-2d" x="417.822266"/>
       <use xlink:href="#DejaVuSans-30" x="453.90625"/>
       <use xlink:href="#DejaVuSans-31" x="517.529297"/>
      </g>
     </g>
    </g>
    <g id="xtick_2">
     <g id="line2d_2">
      <g>
       <use xlink:href="#m361db13a90" x="138.96458" y="395.28" style="stroke: #000000; stroke-width: 0.8"/>
      </g>
     </g>
     <g id="text_2">
      <!-- 2021-07-29 -->
      <g transform="translate(53.835553 495.213718) rotate(-45) scale(0.2 -0.2)">
       <defs>
        <path id="DejaVuSans-39" d="M 703 97 
L 703 672 
Q 941 559 1184 500 
Q 1428 441 1663 441 
Q 2288 441 2617 861 
Q 2947 1281 2994 2138 
Q 2813 1869 2534 1725 
Q 2256 1581 1919 1581 
Q 1219 1581 811 2004 
Q 403 2428 403 3163 
Q 403 3881 828 4315 
Q 1253 4750 1959 4750 
Q 2769 4750 3195 4129 
Q 3622 3509 3622 2328 
Q 3622 1225 3098 567 
Q 2575 -91 1691 -91 
Q 1453 -91 1209 -44 
Q 966 3 703 97 
z
M 1959 2075 
Q 2384 2075 2632 2365 
Q 2881 2656 2881 3163 
Q 2881 3666 2632 3958 
Q 2384 4250 1959 4250 
Q 1534 4250 1286 3958 
Q 1038 3666 1038 3163 
Q 1038 2656 1286 2365 
Q 1534 2075 1959 2075 
z
" transform="scale(0.015625)"/>
       </defs>
       <use xlink:href="#DejaVuSans-32"/>
       <use xlink:href="#DejaVuSans-30" x="63.623047"/>
       <use xlink:href="#DejaVuSans-32" x="127.246094"/>
       <use xlink:href="#DejaVuSans-31" x="190.869141"/>
       <use xlink:href="#DejaVuSans-2d" x="254.492188"/>
       <use xlink:href="#DejaVuSans-30" x="290.576172"/>
       <use xlink:href="#DejaVuSans-37" x="354.199219"/>
       <use xlink:href="#DejaVuSans-2d" x="417.822266"/>
       <use xlink:href="#DejaVuSans-32" x="453.90625"/>
       <use xlink:href="#DejaVuSans-39" x="517.529297"/>
      </g>
     </g>
    </g>
    <g id="xtick_3">
     <g id="line2d_3">
      <g>
       <use xlink:href="#m361db13a90" x="174.85432" y="395.28" style="stroke: #000000; stroke-width: 0.8"/>
      </g>
     </g>
     <g id="text_3">
      <!-- 2021-08-26 -->
      <g transform="translate(89.725293 495.213718) rotate(-45) scale(0.2 -0.2)">
       <defs>
        <path id="DejaVuSans-38" d="M 2034 2216 
Q 1584 2216 1326 1975 
Q 1069 1734 1069 1313 
Q 1069 891 1326 650 
Q 1584 409 2034 409 
Q 2484 409 2743 651 
Q 3003 894 3003 1313 
Q 3003 1734 2745 1975 
Q 2488 2216 2034 2216 
z
M 1403 2484 
Q 997 2584 770 2862 
Q 544 3141 544 3541 
Q 544 4100 942 4425 
Q 1341 4750 2034 4750 
Q 2731 4750 3128 4425 
Q 3525 4100 3525 3541 
Q 3525 3141 3298 2862 
Q 3072 2584 2669 2484 
Q 3125 2378 3379 2068 
Q 3634 1759 3634 1313 
Q 3634 634 3220 271 
Q 2806 -91 2034 -91 
Q 1263 -91 848 271 
Q 434 634 434 1313 
Q 434 1759 690 2068 
Q 947 2378 1403 2484 
z
M 1172 3481 
Q 1172 3119 1398 2916 
Q 1625 2713 2034 2713 
Q 2441 2713 2670 2916 
Q 2900 3119 2900 3481 
Q 2900 3844 2670 4047 
Q 2441 4250 2034 4250 
Q 1625 4250 1398 4047 
Q 1172 3844 1172 3481 
z
" transform="scale(0.015625)"/>
        <path id="DejaVuSans-36" d="M 2113 2584 
Q 1688 2584 1439 2293 
Q 1191 2003 1191 1497 
Q 1191 994 1439 701 
Q 1688 409 2113 409 
Q 2538 409 2786 701 
Q 3034 994 3034 1497 
Q 3034 2003 2786 2293 
Q 2538 2584 2113 2584 
z
M 3366 4563 
L 3366 3988 
Q 3128 4100 2886 4159 
Q 2644 4219 2406 4219 
Q 1781 4219 1451 3797 
Q 1122 3375 1075 2522 
Q 1259 2794 1537 2939 
Q 1816 3084 2150 3084 
Q 2853 3084 3261 2657 
Q 3669 2231 3669 1497 
Q 3669 778 3244 343 
Q 2819 -91 2113 -91 
Q 1303 -91 875 529 
Q 447 1150 447 2328 
Q 447 3434 972 4092 
Q 1497 4750 2381 4750 
Q 2619 4750 2861 4703 
Q 3103 4656 3366 4563 
z
" transform="scale(0.015625)"/>
       </defs>
       <use xlink:href="#DejaVuSans-32"/>
       <use xlink:href="#DejaVuSans-30" x="63.623047"/>
       <use xlink:href="#DejaVuSans-32" x="127.246094"/>
       <use xlink:href="#DejaVuSans-31" x="190.869141"/>
       <use xlink:href="#DejaVuSans-2d" x="254.492188"/>
       <use xlink:href="#DejaVuSans-30" x="290.576172"/>
       <use xlink:href="#DejaVuSans-38" x="354.199219"/>
       <use xlink:href="#DejaVuSans-2d" x="417.822266"/>
       <use xlink:href="#DejaVuSans-32" x="453.90625"/>
       <use xlink:href="#DejaVuSans-36" x="517.529297"/>
      </g>
     </g>
    </g>
    <g id="xtick_4">
     <g id="line2d_4">
      <g>
       <use xlink:href="#m361db13a90" x="210.74406" y="395.28" style="stroke: #000000; stroke-width: 0.8"/>
      </g>
     </g>
     <g id="text_4">
      <!-- 2021-09-23 -->
      <g transform="translate(125.615032 495.213718) rotate(-45) scale(0.2 -0.2)">
       <defs>
        <path id="DejaVuSans-33" d="M 2597 2516 
Q 3050 2419 3304 2112 
Q 3559 1806 3559 1356 
Q 3559 666 3084 287 
Q 2609 -91 1734 -91 
Q 1441 -91 1130 -33 
Q 819 25 488 141 
L 488 750 
Q 750 597 1062 519 
Q 1375 441 1716 441 
Q 2309 441 2620 675 
Q 2931 909 2931 1356 
Q 2931 1769 2642 2001 
Q 2353 2234 1838 2234 
L 1294 2234 
L 1294 2753 
L 1863 2753 
Q 2328 2753 2575 2939 
Q 2822 3125 2822 3475 
Q 2822 3834 2567 4026 
Q 2313 4219 1838 4219 
Q 1578 4219 1281 4162 
Q 984 4106 628 3988 
L 628 4550 
Q 988 4650 1302 4700 
Q 1616 4750 1894 4750 
Q 2613 4750 3031 4423 
Q 3450 4097 3450 3541 
Q 3450 3153 3228 2886 
Q 3006 2619 2597 2516 
z
" transform="scale(0.015625)"/>
       </defs>
       <use xlink:href="#DejaVuSans-32"/>
       <use xlink:href="#DejaVuSans-30" x="63.623047"/>
       <use xlink:href="#DejaVuSans-32" x="127.246094"/>
       <use xlink:href="#DejaVuSans-31" x="190.869141"/>
       <use xlink:href="#DejaVuSans-2d" x="254.492188"/>
       <use xlink:href="#DejaVuSans-30" x="290.576172"/>
       <use xlink:href="#DejaVuSans-39" x="354.199219"/>
       <use xlink:href="#DejaVuSans-2d" x="417.822266"/>
       <use xlink:href="#DejaVuSans-32" x="453.90625"/>
       <use xlink:href="#DejaVuSans-33" x="517.529297"/>
      </g>
     </g>
    </g>
    <g id="xtick_5">
     <g id="line2d_5">
      <g>
       <use xlink:href="#m361db13a90" x="246.633799" y="395.28" style="stroke: #000000; stroke-width: 0.8"/>
      </g>
     </g>
     <g id="text_5">
      <!-- 2021-10-21 -->
      <g transform="translate(161.504772 495.213718) rotate(-45) scale(0.2 -0.2)">
       <use xlink:href="#DejaVuSans-32"/>
       <use xlink:href="#DejaVuSans-30" x="63.623047"/>
       <use xlink:href="#DejaVuSans-32" x="127.246094"/>
       <use xlink:href="#DejaVuSans-31" x="190.869141"/>
       <use xlink:href="#DejaVuSans-2d" x="254.492188"/>
       <use xlink:href="#DejaVuSans-31" x="290.576172"/>
       <use xlink:href="#DejaVuSans-30" x="354.199219"/>
       <use xlink:href="#DejaVuSans-2d" x="417.822266"/>
       <use xlink:href="#DejaVuSans-32" x="453.90625"/>
       <use xlink:href="#DejaVuSans-31" x="517.529297"/>
      </g>
     </g>
    </g>
    <g id="xtick_6">
     <g id="line2d_6">
      <g>
       <use xlink:href="#m361db13a90" x="282.523539" y="395.28" style="stroke: #000000; stroke-width: 0.8"/>
      </g>
     </g>
     <g id="text_6">
      <!-- 2021-11-18 -->
      <g transform="translate(197.394512 495.213718) rotate(-45) scale(0.2 -0.2)">
       <use xlink:href="#DejaVuSans-32"/>
       <use xlink:href="#DejaVuSans-30" x="63.623047"/>
       <use xlink:href="#DejaVuSans-32" x="127.246094"/>
       <use xlink:href="#DejaVuSans-31" x="190.869141"/>
       <use xlink:href="#DejaVuSans-2d" x="254.492188"/>
       <use xlink:href="#DejaVuSans-31" x="290.576172"/>
       <use xlink:href="#DejaVuSans-31" x="354.199219"/>
       <use xlink:href="#DejaVuSans-2d" x="417.822266"/>
       <use xlink:href="#DejaVuSans-31" x="453.90625"/>
       <use xlink:href="#DejaVuSans-38" x="517.529297"/>
      </g>
     </g>
    </g>
    <g id="xtick_7">
     <g id="line2d_7">
      <g>
       <use xlink:href="#m361db13a90" x="318.413279" y="395.28" style="stroke: #000000; stroke-width: 0.8"/>
      </g>
     </g>
     <g id="text_7">
      <!-- 2021-12-16 -->
      <g transform="translate(233.284251 495.213718) rotate(-45) scale(0.2 -0.2)">
       <use xlink:href="#DejaVuSans-32"/>
       <use xlink:href="#DejaVuSans-30" x="63.623047"/>
       <use xlink:href="#DejaVuSans-32" x="127.246094"/>
       <use xlink:href="#DejaVuSans-31" x="190.869141"/>
       <use xlink:href="#DejaVuSans-2d" x="254.492188"/>
       <use xlink:href="#DejaVuSans-31" x="290.576172"/>
       <use xlink:href="#DejaVuSans-32" x="354.199219"/>
       <use xlink:href="#DejaVuSans-2d" x="417.822266"/>
       <use xlink:href="#DejaVuSans-31" x="453.90625"/>
       <use xlink:href="#DejaVuSans-36" x="517.529297"/>
      </g>
     </g>
    </g>
    <g id="xtick_8">
     <g id="line2d_8">
      <g>
       <use xlink:href="#m361db13a90" x="354.303018" y="395.28" style="stroke: #000000; stroke-width: 0.8"/>
      </g>
     </g>
     <g id="text_8">
      <!-- 2022-01-13 -->
      <g transform="translate(269.173991 495.213718) rotate(-45) scale(0.2 -0.2)">
       <use xlink:href="#DejaVuSans-32"/>
       <use xlink:href="#DejaVuSans-30" x="63.623047"/>
       <use xlink:href="#DejaVuSans-32" x="127.246094"/>
       <use xlink:href="#DejaVuSans-32" x="190.869141"/>
       <use xlink:href="#DejaVuSans-2d" x="254.492188"/>
       <use xlink:href="#DejaVuSans-30" x="290.576172"/>
       <use xlink:href="#DejaVuSans-31" x="354.199219"/>
       <use xlink:href="#DejaVuSans-2d" x="417.822266"/>
       <use xlink:href="#DejaVuSans-31" x="453.90625"/>
       <use xlink:href="#DejaVuSans-33" x="517.529297"/>
      </g>
     </g>
    </g>
    <g id="xtick_9">
     <g id="line2d_9">
      <g>
       <use xlink:href="#m361db13a90" x="390.192758" y="395.28" style="stroke: #000000; stroke-width: 0.8"/>
      </g>
     </g>
     <g id="text_9">
      <!-- 2022-02-10 -->
      <g transform="translate(305.063731 495.213718) rotate(-45) scale(0.2 -0.2)">
       <use xlink:href="#DejaVuSans-32"/>
       <use xlink:href="#DejaVuSans-30" x="63.623047"/>
       <use xlink:href="#DejaVuSans-32" x="127.246094"/>
       <use xlink:href="#DejaVuSans-32" x="190.869141"/>
       <use xlink:href="#DejaVuSans-2d" x="254.492188"/>
       <use xlink:href="#DejaVuSans-30" x="290.576172"/>
       <use xlink:href="#DejaVuSans-32" x="354.199219"/>
       <use xlink:href="#DejaVuSans-2d" x="417.822266"/>
       <use xlink:href="#DejaVuSans-31" x="453.90625"/>
       <use xlink:href="#DejaVuSans-30" x="517.529297"/>
      </g>
     </g>
    </g>
    <g id="xtick_10">
     <g id="line2d_10">
      <g>
       <use xlink:href="#m361db13a90" x="426.082498" y="395.28" style="stroke: #000000; stroke-width: 0.8"/>
      </g>
     </g>
     <g id="text_10">
      <!-- 2022-03-10 -->
      <g transform="translate(340.95347 495.213718) rotate(-45) scale(0.2 -0.2)">
       <use xlink:href="#DejaVuSans-32"/>
       <use xlink:href="#DejaVuSans-30" x="63.623047"/>
       <use xlink:href="#DejaVuSans-32" x="127.246094"/>
       <use xlink:href="#DejaVuSans-32" x="190.869141"/>
       <use xlink:href="#DejaVuSans-2d" x="254.492188"/>
       <use xlink:href="#DejaVuSans-30" x="290.576172"/>
       <use xlink:href="#DejaVuSans-33" x="354.199219"/>
       <use xlink:href="#DejaVuSans-2d" x="417.822266"/>
       <use xlink:href="#DejaVuSans-31" x="453.90625"/>
       <use xlink:href="#DejaVuSans-30" x="517.529297"/>
      </g>
     </g>
    </g>
    <g id="xtick_11">
     <g id="line2d_11">
      <g>
       <use xlink:href="#m361db13a90" x="461.972237" y="395.28" style="stroke: #000000; stroke-width: 0.8"/>
      </g>
     </g>
     <g id="text_11">
      <!-- 2022-04-07 -->
      <g transform="translate(376.84321 495.213718) rotate(-45) scale(0.2 -0.2)">
       <defs>
        <path id="DejaVuSans-34" d="M 2419 4116 
L 825 1625 
L 2419 1625 
L 2419 4116 
z
M 2253 4666 
L 3047 4666 
L 3047 1625 
L 3713 1625 
L 3713 1100 
L 3047 1100 
L 3047 0 
L 2419 0 
L 2419 1100 
L 313 1100 
L 313 1709 
L 2253 4666 
z
" transform="scale(0.015625)"/>
       </defs>
       <use xlink:href="#DejaVuSans-32"/>
       <use xlink:href="#DejaVuSans-30" x="63.623047"/>
       <use xlink:href="#DejaVuSans-32" x="127.246094"/>
       <use xlink:href="#DejaVuSans-32" x="190.869141"/>
       <use xlink:href="#DejaVuSans-2d" x="254.492188"/>
       <use xlink:href="#DejaVuSans-30" x="290.576172"/>
       <use xlink:href="#DejaVuSans-34" x="354.199219"/>
       <use xlink:href="#DejaVuSans-2d" x="417.822266"/>
       <use xlink:href="#DejaVuSans-30" x="453.90625"/>
       <use xlink:href="#DejaVuSans-37" x="517.529297"/>
      </g>
     </g>
    </g>
    <g id="xtick_12">
     <g id="line2d_12">
      <g>
       <use xlink:href="#m361db13a90" x="497.861977" y="395.28" style="stroke: #000000; stroke-width: 0.8"/>
      </g>
     </g>
     <g id="text_12">
      <!-- 2022-05-05 -->
      <g transform="translate(412.73295 495.213718) rotate(-45) scale(0.2 -0.2)">
       <defs>
        <path id="DejaVuSans-35" d="M 691 4666 
L 3169 4666 
L 3169 4134 
L 1269 4134 
L 1269 2991 
Q 1406 3038 1543 3061 
Q 1681 3084 1819 3084 
Q 2600 3084 3056 2656 
Q 3513 2228 3513 1497 
Q 3513 744 3044 326 
Q 2575 -91 1722 -91 
Q 1428 -91 1123 -41 
Q 819 9 494 109 
L 494 744 
Q 775 591 1075 516 
Q 1375 441 1709 441 
Q 2250 441 2565 725 
Q 2881 1009 2881 1497 
Q 2881 1984 2565 2268 
Q 2250 2553 1709 2553 
Q 1456 2553 1204 2497 
Q 953 2441 691 2322 
L 691 4666 
z
" transform="scale(0.015625)"/>
       </defs>
       <use xlink:href="#DejaVuSans-32"/>
       <use xlink:href="#DejaVuSans-30" x="63.623047"/>
       <use xlink:href="#DejaVuSans-32" x="127.246094"/>
       <use xlink:href="#DejaVuSans-32" x="190.869141"/>
       <use xlink:href="#DejaVuSans-2d" x="254.492188"/>
       <use xlink:href="#DejaVuSans-30" x="290.576172"/>
       <use xlink:href="#DejaVuSans-35" x="354.199219"/>
       <use xlink:href="#DejaVuSans-2d" x="417.822266"/>
       <use xlink:href="#DejaVuSans-30" x="453.90625"/>
       <use xlink:href="#DejaVuSans-35" x="517.529297"/>
      </g>
     </g>
    </g>
    <g id="xtick_13">
     <g id="line2d_13">
      <g>
       <use xlink:href="#m361db13a90" x="533.751717" y="395.28" style="stroke: #000000; stroke-width: 0.8"/>
      </g>
     </g>
     <g id="text_13">
      <!-- 2022-06-02 -->
      <g transform="translate(448.622689 495.213718) rotate(-45) scale(0.2 -0.2)">
       <use xlink:href="#DejaVuSans-32"/>
       <use xlink:href="#DejaVuSans-30" x="63.623047"/>
       <use xlink:href="#DejaVuSans-32" x="127.246094"/>
       <use xlink:href="#DejaVuSans-32" x="190.869141"/>
       <use xlink:href="#DejaVuSans-2d" x="254.492188"/>
       <use xlink:href="#DejaVuSans-30" x="290.576172"/>
       <use xlink:href="#DejaVuSans-36" x="354.199219"/>
       <use xlink:href="#DejaVuSans-2d" x="417.822266"/>
       <use xlink:href="#DejaVuSans-30" x="453.90625"/>
       <use xlink:href="#DejaVuSans-32" x="517.529297"/>
      </g>
     </g>
    </g>
    <g id="xtick_14">
     <g id="line2d_14">
      <g>
       <use xlink:href="#m361db13a90" x="569.641456" y="395.28" style="stroke: #000000; stroke-width: 0.8"/>
      </g>
     </g>
     <g id="text_14">
      <!-- 2022-06-30 -->
      <g transform="translate(484.512429 495.213718) rotate(-45) scale(0.2 -0.2)">
       <use xlink:href="#DejaVuSans-32"/>
       <use xlink:href="#DejaVuSans-30" x="63.623047"/>
       <use xlink:href="#DejaVuSans-32" x="127.246094"/>
       <use xlink:href="#DejaVuSans-32" x="190.869141"/>
       <use xlink:href="#DejaVuSans-2d" x="254.492188"/>
       <use xlink:href="#DejaVuSans-30" x="290.576172"/>
       <use xlink:href="#DejaVuSans-36" x="354.199219"/>
       <use xlink:href="#DejaVuSans-2d" x="417.822266"/>
       <use xlink:href="#DejaVuSans-33" x="453.90625"/>
       <use xlink:href="#DejaVuSans-30" x="517.529297"/>
      </g>
     </g>
    </g>
    <g id="xtick_15">
     <g id="line2d_15">
      <g>
       <use xlink:href="#m361db13a90" x="605.531196" y="395.28" style="stroke: #000000; stroke-width: 0.8"/>
      </g>
     </g>
     <g id="text_15">
      <!-- 2022-07-28 -->
      <g transform="translate(520.402169 495.213718) rotate(-45) scale(0.2 -0.2)">
       <use xlink:href="#DejaVuSans-32"/>
       <use xlink:href="#DejaVuSans-30" x="63.623047"/>
       <use xlink:href="#DejaVuSans-32" x="127.246094"/>
       <use xlink:href="#DejaVuSans-32" x="190.869141"/>
       <use xlink:href="#DejaVuSans-2d" x="254.492188"/>
       <use xlink:href="#DejaVuSans-30" x="290.576172"/>
       <use xlink:href="#DejaVuSans-37" x="354.199219"/>
       <use xlink:href="#DejaVuSans-2d" x="417.822266"/>
       <use xlink:href="#DejaVuSans-32" x="453.90625"/>
       <use xlink:href="#DejaVuSans-38" x="517.529297"/>
      </g>
     </g>
    </g>
    <g id="xtick_16">
     <g id="line2d_16">
      <g>
       <use xlink:href="#m361db13a90" x="641.420936" y="395.28" style="stroke: #000000; stroke-width: 0.8"/>
      </g>
     </g>
     <g id="text_16">
      <!-- 2022-08-25 -->
      <g transform="translate(556.291908 495.213718) rotate(-45) scale(0.2 -0.2)">
       <use xlink:href="#DejaVuSans-32"/>
       <use xlink:href="#DejaVuSans-30" x="63.623047"/>
       <use xlink:href="#DejaVuSans-32" x="127.246094"/>
       <use xlink:href="#DejaVuSans-32" x="190.869141"/>
       <use xlink:href="#DejaVuSans-2d" x="254.492188"/>
       <use xlink:href="#DejaVuSans-30" x="290.576172"/>
       <use xlink:href="#DejaVuSans-38" x="354.199219"/>
       <use xlink:href="#DejaVuSans-2d" x="417.822266"/>
       <use xlink:href="#DejaVuSans-32" x="453.90625"/>
       <use xlink:href="#DejaVuSans-35" x="517.529297"/>
      </g>
     </g>
    </g>
    <g id="xtick_17">
     <g id="line2d_17">
      <g>
       <use xlink:href="#m361db13a90" x="677.310675" y="395.28" style="stroke: #000000; stroke-width: 0.8"/>
      </g>
     </g>
     <g id="text_17">
      <!-- 2022-09-22 -->
      <g transform="translate(592.181648 495.213718) rotate(-45) scale(0.2 -0.2)">
       <use xlink:href="#DejaVuSans-32"/>
       <use xlink:href="#DejaVuSans-30" x="63.623047"/>
       <use xlink:href="#DejaVuSans-32" x="127.246094"/>
       <use xlink:href="#DejaVuSans-32" x="190.869141"/>
       <use xlink:href="#DejaVuSans-2d" x="254.492188"/>
       <use xlink:href="#DejaVuSans-30" x="290.576172"/>
       <use xlink:href="#DejaVuSans-39" x="354.199219"/>
       <use xlink:href="#DejaVuSans-2d" x="417.822266"/>
       <use xlink:href="#DejaVuSans-32" x="453.90625"/>
       <use xlink:href="#DejaVuSans-32" x="517.529297"/>
      </g>
     </g>
    </g>
    <g id="xtick_18">
     <g id="line2d_18">
      <g>
       <use xlink:href="#m361db13a90" x="713.200415" y="395.28" style="stroke: #000000; stroke-width: 0.8"/>
      </g>
     </g>
     <g id="text_18">
      <!-- 2022-10-20 -->
      <g transform="translate(628.071388 495.213718) rotate(-45) scale(0.2 -0.2)">
       <use xlink:href="#DejaVuSans-32"/>
       <use xlink:href="#DejaVuSans-30" x="63.623047"/>
       <use xlink:href="#DejaVuSans-32" x="127.246094"/>
       <use xlink:href="#DejaVuSans-32" x="190.869141"/>
       <use xlink:href="#DejaVuSans-2d" x="254.492188"/>
       <use xlink:href="#DejaVuSans-31" x="290.576172"/>
       <use xlink:href="#DejaVuSans-30" x="354.199219"/>
       <use xlink:href="#DejaVuSans-2d" x="417.822266"/>
       <use xlink:href="#DejaVuSans-32" x="453.90625"/>
       <use xlink:href="#DejaVuSans-30" x="517.529297"/>
      </g>
     </g>
    </g>
    <g id="xtick_19">
     <g id="line2d_19">
      <g>
       <use xlink:href="#m361db13a90" x="749.090155" y="395.28" style="stroke: #000000; stroke-width: 0.8"/>
      </g>
     </g>
     <g id="text_19">
      <!-- 2022-11-17 -->
      <g transform="translate(663.961127 495.213718) rotate(-45) scale(0.2 -0.2)">
       <use xlink:href="#DejaVuSans-32"/>
       <use xlink:href="#DejaVuSans-30" x="63.623047"/>
       <use xlink:href="#DejaVuSans-32" x="127.246094"/>
       <use xlink:href="#DejaVuSans-32" x="190.869141"/>
       <use xlink:href="#DejaVuSans-2d" x="254.492188"/>
       <use xlink:href="#DejaVuSans-31" x="290.576172"/>
       <use xlink:href="#DejaVuSans-31" x="354.199219"/>
       <use xlink:href="#DejaVuSans-2d" x="417.822266"/>
       <use xlink:href="#DejaVuSans-31" x="453.90625"/>
       <use xlink:href="#DejaVuSans-37" x="517.529297"/>
      </g>
     </g>
    </g>
    <g id="xtick_20">
     <g id="line2d_20">
      <g>
       <use xlink:href="#m361db13a90" x="784.979894" y="395.28" style="stroke: #000000; stroke-width: 0.8"/>
      </g>
     </g>
     <g id="text_20">
      <!-- 2022-12-15 -->
      <g transform="translate(699.850867 495.213718) rotate(-45) scale(0.2 -0.2)">
       <use xlink:href="#DejaVuSans-32"/>
       <use xlink:href="#DejaVuSans-30" x="63.623047"/>
       <use xlink:href="#DejaVuSans-32" x="127.246094"/>
       <use xlink:href="#DejaVuSans-32" x="190.869141"/>
       <use xlink:href="#DejaVuSans-2d" x="254.492188"/>
       <use xlink:href="#DejaVuSans-31" x="290.576172"/>
       <use xlink:href="#DejaVuSans-32" x="354.199219"/>
       <use xlink:href="#DejaVuSans-2d" x="417.822266"/>
       <use xlink:href="#DejaVuSans-31" x="453.90625"/>
       <use xlink:href="#DejaVuSans-35" x="517.529297"/>
      </g>
     </g>
    </g>
    <g id="xtick_21">
     <g id="line2d_21">
      <g>
       <use xlink:href="#m361db13a90" x="820.869634" y="395.28" style="stroke: #000000; stroke-width: 0.8"/>
      </g>
     </g>
     <g id="text_21">
      <!-- 2023-01-12 -->
      <g transform="translate(735.740607 495.213718) rotate(-45) scale(0.2 -0.2)">
       <use xlink:href="#DejaVuSans-32"/>
       <use xlink:href="#DejaVuSans-30" x="63.623047"/>
       <use xlink:href="#DejaVuSans-32" x="127.246094"/>
       <use xlink:href="#DejaVuSans-33" x="190.869141"/>
       <use xlink:href="#DejaVuSans-2d" x="254.492188"/>
       <use xlink:href="#DejaVuSans-30" x="290.576172"/>
       <use xlink:href="#DejaVuSans-31" x="354.199219"/>
       <use xlink:href="#DejaVuSans-2d" x="417.822266"/>
       <use xlink:href="#DejaVuSans-31" x="453.90625"/>
       <use xlink:href="#DejaVuSans-32" x="517.529297"/>
      </g>
     </g>
    </g>
    <g id="xtick_22">
     <g id="line2d_22">
      <g>
       <use xlink:href="#m361db13a90" x="856.759374" y="395.28" style="stroke: #000000; stroke-width: 0.8"/>
      </g>
     </g>
     <g id="text_22">
      <!-- 2023-02-09 -->
      <g transform="translate(771.630346 495.213718) rotate(-45) scale(0.2 -0.2)">
       <use xlink:href="#DejaVuSans-32"/>
       <use xlink:href="#DejaVuSans-30" x="63.623047"/>
       <use xlink:href="#DejaVuSans-32" x="127.246094"/>
       <use xlink:href="#DejaVuSans-33" x="190.869141"/>
       <use xlink:href="#DejaVuSans-2d" x="254.492188"/>
       <use xlink:href="#DejaVuSans-30" x="290.576172"/>
       <use xlink:href="#DejaVuSans-32" x="354.199219"/>
       <use xlink:href="#DejaVuSans-2d" x="417.822266"/>
       <use xlink:href="#DejaVuSans-30" x="453.90625"/>
       <use xlink:href="#DejaVuSans-39" x="517.529297"/>
      </g>
     </g>
    </g>
    <g id="xtick_23">
     <g id="line2d_23">
      <g>
       <use xlink:href="#m361db13a90" x="892.649113" y="395.28" style="stroke: #000000; stroke-width: 0.8"/>
      </g>
     </g>
     <g id="text_23">
      <!-- 2023-03-09 -->
      <g transform="translate(807.520086 495.213718) rotate(-45) scale(0.2 -0.2)">
       <use xlink:href="#DejaVuSans-32"/>
       <use xlink:href="#DejaVuSans-30" x="63.623047"/>
       <use xlink:href="#DejaVuSans-32" x="127.246094"/>
       <use xlink:href="#DejaVuSans-33" x="190.869141"/>
       <use xlink:href="#DejaVuSans-2d" x="254.492188"/>
       <use xlink:href="#DejaVuSans-30" x="290.576172"/>
       <use xlink:href="#DejaVuSans-33" x="354.199219"/>
       <use xlink:href="#DejaVuSans-2d" x="417.822266"/>
       <use xlink:href="#DejaVuSans-30" x="453.90625"/>
       <use xlink:href="#DejaVuSans-39" x="517.529297"/>
      </g>
     </g>
    </g>
    <g id="xtick_24">
     <g id="line2d_24">
      <g>
       <use xlink:href="#m361db13a90" x="928.538853" y="395.28" style="stroke: #000000; stroke-width: 0.8"/>
      </g>
     </g>
     <g id="text_24">
      <!-- 2023-04-06 -->
      <g transform="translate(843.409826 495.213718) rotate(-45) scale(0.2 -0.2)">
       <use xlink:href="#DejaVuSans-32"/>
       <use xlink:href="#DejaVuSans-30" x="63.623047"/>
       <use xlink:href="#DejaVuSans-32" x="127.246094"/>
       <use xlink:href="#DejaVuSans-33" x="190.869141"/>
       <use xlink:href="#DejaVuSans-2d" x="254.492188"/>
       <use xlink:href="#DejaVuSans-30" x="290.576172"/>
       <use xlink:href="#DejaVuSans-34" x="354.199219"/>
       <use xlink:href="#DejaVuSans-2d" x="417.822266"/>
       <use xlink:href="#DejaVuSans-30" x="453.90625"/>
       <use xlink:href="#DejaVuSans-36" x="517.529297"/>
      </g>
     </g>
    </g>
    <g id="xtick_25">
     <g id="line2d_25">
      <g>
       <use xlink:href="#m361db13a90" x="940.074841" y="395.28" style="stroke: #000000; stroke-width: 0.8"/>
      </g>
     </g>
     <g id="text_25">
      <!-- 2023-04-15 -->
      <g transform="translate(854.945813 495.213718) rotate(-45) scale(0.2 -0.2)">
       <use xlink:href="#DejaVuSans-32"/>
       <use xlink:href="#DejaVuSans-30" x="63.623047"/>
       <use xlink:href="#DejaVuSans-32" x="127.246094"/>
       <use xlink:href="#DejaVuSans-33" x="190.869141"/>
       <use xlink:href="#DejaVuSans-2d" x="254.492188"/>
       <use xlink:href="#DejaVuSans-30" x="290.576172"/>
       <use xlink:href="#DejaVuSans-34" x="354.199219"/>
       <use xlink:href="#DejaVuSans-2d" x="417.822266"/>
       <use xlink:href="#DejaVuSans-31" x="453.90625"/>
       <use xlink:href="#DejaVuSans-35" x="517.529297"/>
      </g>
     </g>
    </g>
   </g>
   <g id="matplotlib.axis_2">
    <g id="ytick_1">
     <g id="line2d_26">
      <defs>
       <path id="m41382572e9" d="M 0 0 
L -3.5 0 
" style="stroke: #000000; stroke-width: 0.8"/>
      </defs>
      <g>
       <use xlink:href="#m41382572e9" x="103.074841" y="389.968528" style="stroke: #000000; stroke-width: 0.8"/>
      </g>
     </g>
     <g id="text_26">
      <!-- 0.05 -->
      <g transform="translate(34.784216 397.566966) scale(0.2 -0.2)">
       <defs>
        <path id="DejaVuSans-2212" d="M 678 2272 
L 4684 2272 
L 4684 1741 
L 678 1741 
L 678 2272 
z
" transform="scale(0.015625)"/>
        <path id="DejaVuSans-2e" d="M 684 794 
L 1344 794 
L 1344 0 
L 684 0 
L 684 794 
z
" transform="scale(0.015625)"/>
       </defs>
       <use xlink:href="#DejaVuSans-2212"/>
       <use xlink:href="#DejaVuSans-30" x="83.789062"/>
       <use xlink:href="#DejaVuSans-2e" x="147.412109"/>
       <use xlink:href="#DejaVuSans-30" x="179.199219"/>
       <use xlink:href="#DejaVuSans-35" x="242.822266"/>
      </g>
     </g>
    </g>
    <g id="ytick_2">
     <g id="line2d_27">
      <g>
       <use xlink:href="#m41382572e9" x="103.074841" y="336.853812" style="stroke: #000000; stroke-width: 0.8"/>
      </g>
     </g>
     <g id="text_27">
      <!-- 0.00 -->
      <g transform="translate(51.543591 344.45225) scale(0.2 -0.2)">
       <use xlink:href="#DejaVuSans-30"/>
       <use xlink:href="#DejaVuSans-2e" x="63.623047"/>
       <use xlink:href="#DejaVuSans-30" x="95.410156"/>
       <use xlink:href="#DejaVuSans-30" x="159.033203"/>
      </g>
     </g>
    </g>
    <g id="ytick_3">
     <g id="line2d_28">
      <g>
       <use xlink:href="#m41382572e9" x="103.074841" y="283.739096" style="stroke: #000000; stroke-width: 0.8"/>
      </g>
     </g>
     <g id="text_28">
      <!-- 0.05 -->
      <g transform="translate(51.543591 291.337534) scale(0.2 -0.2)">
       <use xlink:href="#DejaVuSans-30"/>
       <use xlink:href="#DejaVuSans-2e" x="63.623047"/>
       <use xlink:href="#DejaVuSans-30" x="95.410156"/>
       <use xlink:href="#DejaVuSans-35" x="159.033203"/>
      </g>
     </g>
    </g>
    <g id="ytick_4">
     <g id="line2d_29">
      <g>
       <use xlink:href="#m41382572e9" x="103.074841" y="230.62438" style="stroke: #000000; stroke-width: 0.8"/>
      </g>
     </g>
     <g id="text_29">
      <!-- 0.10 -->
      <g transform="translate(51.543591 238.222818) scale(0.2 -0.2)">
       <use xlink:href="#DejaVuSans-30"/>
       <use xlink:href="#DejaVuSans-2e" x="63.623047"/>
       <use xlink:href="#DejaVuSans-31" x="95.410156"/>
       <use xlink:href="#DejaVuSans-30" x="159.033203"/>
      </g>
     </g>
    </g>
    <g id="ytick_5">
     <g id="line2d_30">
      <g>
       <use xlink:href="#m41382572e9" x="103.074841" y="177.509664" style="stroke: #000000; stroke-width: 0.8"/>
      </g>
     </g>
     <g id="text_30">
      <!-- 0.15 -->
      <g transform="translate(51.543591 185.108101) scale(0.2 -0.2)">
       <use xlink:href="#DejaVuSans-30"/>
       <use xlink:href="#DejaVuSans-2e" x="63.623047"/>
       <use xlink:href="#DejaVuSans-31" x="95.410156"/>
       <use xlink:href="#DejaVuSans-35" x="159.033203"/>
      </g>
     </g>
    </g>
    <g id="ytick_6">
     <g id="line2d_31">
      <g>
       <use xlink:href="#m41382572e9" x="103.074841" y="124.394948" style="stroke: #000000; stroke-width: 0.8"/>
      </g>
     </g>
     <g id="text_31">
      <!-- 0.20 -->
      <g transform="translate(51.543591 131.993385) scale(0.2 -0.2)">
       <use xlink:href="#DejaVuSans-30"/>
       <use xlink:href="#DejaVuSans-2e" x="63.623047"/>
       <use xlink:href="#DejaVuSans-32" x="95.410156"/>
       <use xlink:href="#DejaVuSans-30" x="159.033203"/>
      </g>
     </g>
    </g>
    <g id="ytick_7">
     <g id="line2d_32">
      <g>
       <use xlink:href="#m41382572e9" x="103.074841" y="71.280232" style="stroke: #000000; stroke-width: 0.8"/>
      </g>
     </g>
     <g id="text_32">
      <!-- 0.25 -->
      <g transform="translate(51.543591 78.878669) scale(0.2 -0.2)">
       <use xlink:href="#DejaVuSans-30"/>
       <use xlink:href="#DejaVuSans-2e" x="63.623047"/>
       <use xlink:href="#DejaVuSans-32" x="95.410156"/>
       <use xlink:href="#DejaVuSans-35" x="159.033203"/>
      </g>
     </g>
    </g>
    <g id="ytick_8">
     <g id="line2d_33">
      <g>
       <use xlink:href="#m41382572e9" x="103.074841" y="18.165515" style="stroke: #000000; stroke-width: 0.8"/>
      </g>
     </g>
     <g id="text_33">
      <!-- 0.30 -->
      <g transform="translate(51.543591 25.763953) scale(0.2 -0.2)">
       <use xlink:href="#DejaVuSans-30"/>
       <use xlink:href="#DejaVuSans-2e" x="63.623047"/>
       <use xlink:href="#DejaVuSans-33" x="95.410156"/>
       <use xlink:href="#DejaVuSans-30" x="159.033203"/>
      </g>
     </g>
    </g>
    <g id="text_34">
     <!-- Relative fitness $\gamma_y$ -->
     <g transform="translate(24.584216 291.84) rotate(-90) scale(0.2 -0.2)">
      <defs>
       <path id="DejaVuSans-52" d="M 2841 2188 
Q 3044 2119 3236 1894 
Q 3428 1669 3622 1275 
L 4263 0 
L 3584 0 
L 2988 1197 
Q 2756 1666 2539 1819 
Q 2322 1972 1947 1972 
L 1259 1972 
L 1259 0 
L 628 0 
L 628 4666 
L 2053 4666 
Q 2853 4666 3247 4331 
Q 3641 3997 3641 3322 
Q 3641 2881 3436 2590 
Q 3231 2300 2841 2188 
z
M 1259 4147 
L 1259 2491 
L 2053 2491 
Q 2509 2491 2742 2702 
Q 2975 2913 2975 3322 
Q 2975 3731 2742 3939 
Q 2509 4147 2053 4147 
L 1259 4147 
z
" transform="scale(0.015625)"/>
       <path id="DejaVuSans-65" d="M 3597 1894 
L 3597 1613 
L 953 1613 
Q 991 1019 1311 708 
Q 1631 397 2203 397 
Q 2534 397 2845 478 
Q 3156 559 3463 722 
L 3463 178 
Q 3153 47 2828 -22 
Q 2503 -91 2169 -91 
Q 1331 -91 842 396 
Q 353 884 353 1716 
Q 353 2575 817 3079 
Q 1281 3584 2069 3584 
Q 2775 3584 3186 3129 
Q 3597 2675 3597 1894 
z
M 3022 2063 
Q 3016 2534 2758 2815 
Q 2500 3097 2075 3097 
Q 1594 3097 1305 2825 
Q 1016 2553 972 2059 
L 3022 2063 
z
" transform="scale(0.015625)"/>
       <path id="DejaVuSans-6c" d="M 603 4863 
L 1178 4863 
L 1178 0 
L 603 0 
L 603 4863 
z
" transform="scale(0.015625)"/>
       <path id="DejaVuSans-61" d="M 2194 1759 
Q 1497 1759 1228 1600 
Q 959 1441 959 1056 
Q 959 750 1161 570 
Q 1363 391 1709 391 
Q 2188 391 2477 730 
Q 2766 1069 2766 1631 
L 2766 1759 
L 2194 1759 
z
M 3341 1997 
L 3341 0 
L 2766 0 
L 2766 531 
Q 2569 213 2275 61 
Q 1981 -91 1556 -91 
Q 1019 -91 701 211 
Q 384 513 384 1019 
Q 384 1609 779 1909 
Q 1175 2209 1959 2209 
L 2766 2209 
L 2766 2266 
Q 2766 2663 2505 2880 
Q 2244 3097 1772 3097 
Q 1472 3097 1187 3025 
Q 903 2953 641 2809 
L 641 3341 
Q 956 3463 1253 3523 
Q 1550 3584 1831 3584 
Q 2591 3584 2966 3190 
Q 3341 2797 3341 1997 
z
" transform="scale(0.015625)"/>
       <path id="DejaVuSans-74" d="M 1172 4494 
L 1172 3500 
L 2356 3500 
L 2356 3053 
L 1172 3053 
L 1172 1153 
Q 1172 725 1289 603 
Q 1406 481 1766 481 
L 2356 481 
L 2356 0 
L 1766 0 
Q 1100 0 847 248 
Q 594 497 594 1153 
L 594 3053 
L 172 3053 
L 172 3500 
L 594 3500 
L 594 4494 
L 1172 4494 
z
" transform="scale(0.015625)"/>
       <path id="DejaVuSans-69" d="M 603 3500 
L 1178 3500 
L 1178 0 
L 603 0 
L 603 3500 
z
M 603 4863 
L 1178 4863 
L 1178 4134 
L 603 4134 
L 603 4863 
z
" transform="scale(0.015625)"/>
       <path id="DejaVuSans-76" d="M 191 3500 
L 800 3500 
L 1894 563 
L 2988 3500 
L 3597 3500 
L 2284 0 
L 1503 0 
L 191 3500 
z
" transform="scale(0.015625)"/>
       <path id="DejaVuSans-20" transform="scale(0.015625)"/>
       <path id="DejaVuSans-66" d="M 2375 4863 
L 2375 4384 
L 1825 4384 
Q 1516 4384 1395 4259 
Q 1275 4134 1275 3809 
L 1275 3500 
L 2222 3500 
L 2222 3053 
L 1275 3053 
L 1275 0 
L 697 0 
L 697 3053 
L 147 3053 
L 147 3500 
L 697 3500 
L 697 3744 
Q 697 4328 969 4595 
Q 1241 4863 1831 4863 
L 2375 4863 
z
" transform="scale(0.015625)"/>
       <path id="DejaVuSans-6e" d="M 3513 2113 
L 3513 0 
L 2938 0 
L 2938 2094 
Q 2938 2591 2744 2837 
Q 2550 3084 2163 3084 
Q 1697 3084 1428 2787 
Q 1159 2491 1159 1978 
L 1159 0 
L 581 0 
L 581 3500 
L 1159 3500 
L 1159 2956 
Q 1366 3272 1645 3428 
Q 1925 3584 2291 3584 
Q 2894 3584 3203 3211 
Q 3513 2838 3513 2113 
z
" transform="scale(0.015625)"/>
       <path id="DejaVuSans-73" d="M 2834 3397 
L 2834 2853 
Q 2591 2978 2328 3040 
Q 2066 3103 1784 3103 
Q 1356 3103 1142 2972 
Q 928 2841 928 2578 
Q 928 2378 1081 2264 
Q 1234 2150 1697 2047 
L 1894 2003 
Q 2506 1872 2764 1633 
Q 3022 1394 3022 966 
Q 3022 478 2636 193 
Q 2250 -91 1575 -91 
Q 1294 -91 989 -36 
Q 684 19 347 128 
L 347 722 
Q 666 556 975 473 
Q 1284 391 1588 391 
Q 1994 391 2212 530 
Q 2431 669 2431 922 
Q 2431 1156 2273 1281 
Q 2116 1406 1581 1522 
L 1381 1569 
Q 847 1681 609 1914 
Q 372 2147 372 2553 
Q 372 3047 722 3315 
Q 1072 3584 1716 3584 
Q 2034 3584 2315 3537 
Q 2597 3491 2834 3397 
z
" transform="scale(0.015625)"/>
       <path id="DejaVuSans-Oblique-3b3" d="M 1491 2950 
L 1838 788 
L 3456 3500 
L 4066 3500 
L 1972 0 
L 1713 -1331 
L 1138 -1331 
L 1397 0 
L 988 2613 
Q 925 3006 628 3006 
L 475 3006 
L 569 3500 
L 788 3500 
Q 1403 3500 1491 2950 
z
" transform="scale(0.015625)"/>
       <path id="DejaVuSans-Oblique-79" d="M 1588 -325 
Q 1188 -997 936 -1164 
Q 684 -1331 294 -1331 
L -159 -1331 
L -63 -850 
L 269 -850 
Q 509 -850 678 -719 
Q 847 -588 1056 -206 
L 1234 128 
L 459 3500 
L 1069 3500 
L 1650 819 
L 3256 3500 
L 3859 3500 
L 1588 -325 
z
" transform="scale(0.015625)"/>
      </defs>
      <use xlink:href="#DejaVuSans-52" transform="translate(0 0.015625)"/>
      <use xlink:href="#DejaVuSans-65" transform="translate(69.482422 0.015625)"/>
      <use xlink:href="#DejaVuSans-6c" transform="translate(131.005859 0.015625)"/>
      <use xlink:href="#DejaVuSans-61" transform="translate(158.789062 0.015625)"/>
      <use xlink:href="#DejaVuSans-74" transform="translate(220.068359 0.015625)"/>
      <use xlink:href="#DejaVuSans-69" transform="translate(259.277344 0.015625)"/>
      <use xlink:href="#DejaVuSans-76" transform="translate(287.060547 0.015625)"/>
      <use xlink:href="#DejaVuSans-65" transform="translate(346.240234 0.015625)"/>
      <use xlink:href="#DejaVuSans-20" transform="translate(407.763672 0.015625)"/>
      <use xlink:href="#DejaVuSans-66" transform="translate(439.550781 0.015625)"/>
      <use xlink:href="#DejaVuSans-69" transform="translate(474.755859 0.015625)"/>
      <use xlink:href="#DejaVuSans-74" transform="translate(502.539062 0.015625)"/>
      <use xlink:href="#DejaVuSans-6e" transform="translate(541.748047 0.015625)"/>
      <use xlink:href="#DejaVuSans-65" transform="translate(605.126953 0.015625)"/>
      <use xlink:href="#DejaVuSans-73" transform="translate(666.650391 0.015625)"/>
      <use xlink:href="#DejaVuSans-73" transform="translate(718.75 0.015625)"/>
      <use xlink:href="#DejaVuSans-20" transform="translate(770.849609 0.015625)"/>
      <use xlink:href="#DejaVuSans-Oblique-3b3" transform="translate(802.636719 0.015625)"/>
      <use xlink:href="#DejaVuSans-Oblique-79" transform="translate(861.816406 -16.390625) scale(0.7)"/>
     </g>
    </g>
   </g>
   <g id="line2d_34">
    <path d="M 103.074841 336.853812 
L 1041.965466 336.853812 
" clip-path="url(#p670ed4b3ff)" style="fill: none; stroke-dasharray: 7.4,3.2; stroke-dashoffset: 0; stroke: #000000; stroke-width: 2"/>
   </g>
   <g id="patch_3">
    <path d="M 103.074841 395.28 
L 103.074841 7.2 
" style="fill: none; stroke: #000000; stroke-width: 0.8; stroke-linejoin: miter; stroke-linecap: square"/>
   </g>
   <g id="patch_4">
    <path d="M 940.074841 395.28 
L 940.074841 7.2 
" style="fill: none; stroke: #000000; stroke-width: 0.8; stroke-linejoin: miter; stroke-linecap: square"/>
   </g>
   <g id="patch_5">
    <path d="M 103.074841 395.28 
L 940.074841 395.28 
" style="fill: none; stroke: #000000; stroke-width: 0.8; stroke-linejoin: miter; stroke-linecap: square"/>
   </g>
   <g id="patch_6">
    <path d="M 103.074841 7.2 
L 940.074841 7.2 
" style="fill: none; stroke: #000000; stroke-width: 0.8; stroke-linejoin: miter; stroke-linecap: square"/>
   </g>
  </g>
  <g id="axes_2">
   <g id="matplotlib.axis_3">
    <g id="ytick_9">
     <g id="line2d_35">
      <defs>
       <path id="m2088455221" d="M 0 0 
L 3.5 0 
" style="stroke: #000000; stroke-width: 0.8"/>
      </defs>
      <g>
       <use xlink:href="#m2088455221" x="940.074841" y="389.968528" style="stroke: #000000; stroke-width: 0.8"/>
      </g>
     </g>
     <g id="text_35">
      <!-- 0.05 -->
      <g transform="translate(947.074841 397.566966) scale(0.2 -0.2)">
       <use xlink:href="#DejaVuSans-2212"/>
       <use xlink:href="#DejaVuSans-30" x="83.789062"/>
       <use xlink:href="#DejaVuSans-2e" x="147.412109"/>
       <use xlink:href="#DejaVuSans-30" x="179.199219"/>
       <use xlink:href="#DejaVuSans-35" x="242.822266"/>
      </g>
     </g>
    </g>
    <g id="ytick_10">
     <g id="line2d_36">
      <g>
       <use xlink:href="#m2088455221" x="940.074841" y="336.853812" style="stroke: #000000; stroke-width: 0.8"/>
      </g>
     </g>
     <g id="text_36">
      <!-- 0.00 -->
      <g transform="translate(947.074841 344.45225) scale(0.2 -0.2)">
       <use xlink:href="#DejaVuSans-30"/>
       <use xlink:href="#DejaVuSans-2e" x="63.623047"/>
       <use xlink:href="#DejaVuSans-30" x="95.410156"/>
       <use xlink:href="#DejaVuSans-30" x="159.033203"/>
      </g>
     </g>
    </g>
    <g id="ytick_11">
     <g id="line2d_37">
      <g>
       <use xlink:href="#m2088455221" x="940.074841" y="283.739096" style="stroke: #000000; stroke-width: 0.8"/>
      </g>
     </g>
     <g id="text_37">
      <!-- 0.05 -->
      <g transform="translate(947.074841 291.337534) scale(0.2 -0.2)">
       <use xlink:href="#DejaVuSans-30"/>
       <use xlink:href="#DejaVuSans-2e" x="63.623047"/>
       <use xlink:href="#DejaVuSans-30" x="95.410156"/>
       <use xlink:href="#DejaVuSans-35" x="159.033203"/>
      </g>
     </g>
    </g>
    <g id="ytick_12">
     <g id="line2d_38">
      <g>
       <use xlink:href="#m2088455221" x="940.074841" y="230.62438" style="stroke: #000000; stroke-width: 0.8"/>
      </g>
     </g>
     <g id="text_38">
      <!-- 0.10 -->
      <g transform="translate(947.074841 238.222818) scale(0.2 -0.2)">
       <use xlink:href="#DejaVuSans-30"/>
       <use xlink:href="#DejaVuSans-2e" x="63.623047"/>
       <use xlink:href="#DejaVuSans-31" x="95.410156"/>
       <use xlink:href="#DejaVuSans-30" x="159.033203"/>
      </g>
     </g>
    </g>
    <g id="ytick_13">
     <g id="line2d_39">
      <g>
       <use xlink:href="#m2088455221" x="940.074841" y="177.509664" style="stroke: #000000; stroke-width: 0.8"/>
      </g>
     </g>
     <g id="text_39">
      <!-- 0.15 -->
      <g transform="translate(947.074841 185.108101) scale(0.2 -0.2)">
       <use xlink:href="#DejaVuSans-30"/>
       <use xlink:href="#DejaVuSans-2e" x="63.623047"/>
       <use xlink:href="#DejaVuSans-31" x="95.410156"/>
       <use xlink:href="#DejaVuSans-35" x="159.033203"/>
      </g>
     </g>
    </g>
    <g id="ytick_14">
     <g id="line2d_40">
      <g>
       <use xlink:href="#m2088455221" x="940.074841" y="124.394948" style="stroke: #000000; stroke-width: 0.8"/>
      </g>
     </g>
     <g id="text_40">
      <!-- 0.20 -->
      <g transform="translate(947.074841 131.993385) scale(0.2 -0.2)">
       <use xlink:href="#DejaVuSans-30"/>
       <use xlink:href="#DejaVuSans-2e" x="63.623047"/>
       <use xlink:href="#DejaVuSans-32" x="95.410156"/>
       <use xlink:href="#DejaVuSans-30" x="159.033203"/>
      </g>
     </g>
    </g>
    <g id="ytick_15">
     <g id="line2d_41">
      <g>
       <use xlink:href="#m2088455221" x="940.074841" y="71.280232" style="stroke: #000000; stroke-width: 0.8"/>
      </g>
     </g>
     <g id="text_41">
      <!-- 0.25 -->
      <g transform="translate(947.074841 78.878669) scale(0.2 -0.2)">
       <use xlink:href="#DejaVuSans-30"/>
       <use xlink:href="#DejaVuSans-2e" x="63.623047"/>
       <use xlink:href="#DejaVuSans-32" x="95.410156"/>
       <use xlink:href="#DejaVuSans-35" x="159.033203"/>
      </g>
     </g>
    </g>
    <g id="ytick_16">
     <g id="line2d_42">
      <g>
       <use xlink:href="#m2088455221" x="940.074841" y="18.165515" style="stroke: #000000; stroke-width: 0.8"/>
      </g>
     </g>
     <g id="text_42">
      <!-- 0.30 -->
      <g transform="translate(947.074841 25.763953) scale(0.2 -0.2)">
       <use xlink:href="#DejaVuSans-30"/>
       <use xlink:href="#DejaVuSans-2e" x="63.623047"/>
       <use xlink:href="#DejaVuSans-33" x="95.410156"/>
       <use xlink:href="#DejaVuSans-30" x="159.033203"/>
      </g>
     </g>
    </g>
    <g id="text_43">
     <!-- Change in proportion $\gamma_{prop}$ -->
     <g transform="translate(1027.565466 332.74) rotate(-90) scale(0.2 -0.2)">
      <defs>
       <path id="DejaVuSans-43" d="M 4122 4306 
L 4122 3641 
Q 3803 3938 3442 4084 
Q 3081 4231 2675 4231 
Q 1875 4231 1450 3742 
Q 1025 3253 1025 2328 
Q 1025 1406 1450 917 
Q 1875 428 2675 428 
Q 3081 428 3442 575 
Q 3803 722 4122 1019 
L 4122 359 
Q 3791 134 3420 21 
Q 3050 -91 2638 -91 
Q 1578 -91 968 557 
Q 359 1206 359 2328 
Q 359 3453 968 4101 
Q 1578 4750 2638 4750 
Q 3056 4750 3426 4639 
Q 3797 4528 4122 4306 
z
" transform="scale(0.015625)"/>
       <path id="DejaVuSans-68" d="M 3513 2113 
L 3513 0 
L 2938 0 
L 2938 2094 
Q 2938 2591 2744 2837 
Q 2550 3084 2163 3084 
Q 1697 3084 1428 2787 
Q 1159 2491 1159 1978 
L 1159 0 
L 581 0 
L 581 4863 
L 1159 4863 
L 1159 2956 
Q 1366 3272 1645 3428 
Q 1925 3584 2291 3584 
Q 2894 3584 3203 3211 
Q 3513 2838 3513 2113 
z
" transform="scale(0.015625)"/>
       <path id="DejaVuSans-67" d="M 2906 1791 
Q 2906 2416 2648 2759 
Q 2391 3103 1925 3103 
Q 1463 3103 1205 2759 
Q 947 2416 947 1791 
Q 947 1169 1205 825 
Q 1463 481 1925 481 
Q 2391 481 2648 825 
Q 2906 1169 2906 1791 
z
M 3481 434 
Q 3481 -459 3084 -895 
Q 2688 -1331 1869 -1331 
Q 1566 -1331 1297 -1286 
Q 1028 -1241 775 -1147 
L 775 -588 
Q 1028 -725 1275 -790 
Q 1522 -856 1778 -856 
Q 2344 -856 2625 -561 
Q 2906 -266 2906 331 
L 2906 616 
Q 2728 306 2450 153 
Q 2172 0 1784 0 
Q 1141 0 747 490 
Q 353 981 353 1791 
Q 353 2603 747 3093 
Q 1141 3584 1784 3584 
Q 2172 3584 2450 3431 
Q 2728 3278 2906 2969 
L 2906 3500 
L 3481 3500 
L 3481 434 
z
" transform="scale(0.015625)"/>
       <path id="DejaVuSans-70" d="M 1159 525 
L 1159 -1331 
L 581 -1331 
L 581 3500 
L 1159 3500 
L 1159 2969 
Q 1341 3281 1617 3432 
Q 1894 3584 2278 3584 
Q 2916 3584 3314 3078 
Q 3713 2572 3713 1747 
Q 3713 922 3314 415 
Q 2916 -91 2278 -91 
Q 1894 -91 1617 61 
Q 1341 213 1159 525 
z
M 3116 1747 
Q 3116 2381 2855 2742 
Q 2594 3103 2138 3103 
Q 1681 3103 1420 2742 
Q 1159 2381 1159 1747 
Q 1159 1113 1420 752 
Q 1681 391 2138 391 
Q 2594 391 2855 752 
Q 3116 1113 3116 1747 
z
" transform="scale(0.015625)"/>
       <path id="DejaVuSans-72" d="M 2631 2963 
Q 2534 3019 2420 3045 
Q 2306 3072 2169 3072 
Q 1681 3072 1420 2755 
Q 1159 2438 1159 1844 
L 1159 0 
L 581 0 
L 581 3500 
L 1159 3500 
L 1159 2956 
Q 1341 3275 1631 3429 
Q 1922 3584 2338 3584 
Q 2397 3584 2469 3576 
Q 2541 3569 2628 3553 
L 2631 2963 
z
" transform="scale(0.015625)"/>
       <path id="DejaVuSans-6f" d="M 1959 3097 
Q 1497 3097 1228 2736 
Q 959 2375 959 1747 
Q 959 1119 1226 758 
Q 1494 397 1959 397 
Q 2419 397 2687 759 
Q 2956 1122 2956 1747 
Q 2956 2369 2687 2733 
Q 2419 3097 1959 3097 
z
M 1959 3584 
Q 2709 3584 3137 3096 
Q 3566 2609 3566 1747 
Q 3566 888 3137 398 
Q 2709 -91 1959 -91 
Q 1206 -91 779 398 
Q 353 888 353 1747 
Q 353 2609 779 3096 
Q 1206 3584 1959 3584 
z
" transform="scale(0.015625)"/>
       <path id="DejaVuSans-Oblique-70" d="M 3175 2156 
Q 3175 2616 2975 2859 
Q 2775 3103 2400 3103 
Q 2144 3103 1911 2972 
Q 1678 2841 1497 2591 
Q 1319 2344 1212 1994 
Q 1106 1644 1106 1300 
Q 1106 863 1306 627 
Q 1506 391 1875 391 
Q 2147 391 2380 519 
Q 2613 647 2778 891 
Q 2956 1147 3065 1494 
Q 3175 1841 3175 2156 
z
M 1394 2969 
Q 1625 3272 1939 3428 
Q 2253 3584 2638 3584 
Q 3175 3584 3472 3232 
Q 3769 2881 3769 2247 
Q 3769 1728 3584 1258 
Q 3400 788 3053 416 
Q 2822 169 2531 39 
Q 2241 -91 1919 -91 
Q 1547 -91 1294 64 
Q 1041 219 916 525 
L 556 -1331 
L -19 -1331 
L 922 3500 
L 1497 3500 
L 1394 2969 
z
" transform="scale(0.015625)"/>
       <path id="DejaVuSans-Oblique-72" d="M 2853 2969 
Q 2766 3016 2653 3041 
Q 2541 3066 2413 3066 
Q 1953 3066 1609 2717 
Q 1266 2369 1153 1784 
L 800 0 
L 225 0 
L 909 3500 
L 1484 3500 
L 1375 2956 
Q 1603 3259 1920 3421 
Q 2238 3584 2597 3584 
Q 2691 3584 2781 3573 
Q 2872 3563 2963 3538 
L 2853 2969 
z
" transform="scale(0.015625)"/>
       <path id="DejaVuSans-Oblique-6f" d="M 1625 -91 
Q 1009 -91 651 289 
Q 294 669 294 1325 
Q 294 1706 417 2101 
Q 541 2497 738 2766 
Q 1047 3184 1428 3384 
Q 1809 3584 2291 3584 
Q 2888 3584 3255 3212 
Q 3622 2841 3622 2241 
Q 3622 1825 3500 1412 
Q 3378 1000 3181 728 
Q 2875 309 2494 109 
Q 2113 -91 1625 -91 
z
M 891 1344 
Q 891 869 1089 633 
Q 1288 397 1691 397 
Q 2269 397 2648 901 
Q 3028 1406 3028 2181 
Q 3028 2634 2825 2865 
Q 2622 3097 2228 3097 
Q 1903 3097 1650 2945 
Q 1397 2794 1197 2484 
Q 1050 2253 970 1956 
Q 891 1659 891 1344 
z
" transform="scale(0.015625)"/>
      </defs>
      <use xlink:href="#DejaVuSans-43" transform="translate(0 0.015625)"/>
      <use xlink:href="#DejaVuSans-68" transform="translate(69.824219 0.015625)"/>
      <use xlink:href="#DejaVuSans-61" transform="translate(133.203125 0.015625)"/>
      <use xlink:href="#DejaVuSans-6e" transform="translate(194.482422 0.015625)"/>
      <use xlink:href="#DejaVuSans-67" transform="translate(257.861328 0.015625)"/>
      <use xlink:href="#DejaVuSans-65" transform="translate(321.337891 0.015625)"/>
      <use xlink:href="#DejaVuSans-20" transform="translate(382.861328 0.015625)"/>
      <use xlink:href="#DejaVuSans-69" transform="translate(414.648438 0.015625)"/>
      <use xlink:href="#DejaVuSans-6e" transform="translate(442.431641 0.015625)"/>
      <use xlink:href="#DejaVuSans-20" transform="translate(505.810547 0.015625)"/>
      <use xlink:href="#DejaVuSans-70" transform="translate(537.597656 0.015625)"/>
      <use xlink:href="#DejaVuSans-72" transform="translate(601.074219 0.015625)"/>
      <use xlink:href="#DejaVuSans-6f" transform="translate(642.1875 0.015625)"/>
      <use xlink:href="#DejaVuSans-70" transform="translate(703.369141 0.015625)"/>
      <use xlink:href="#DejaVuSans-6f" transform="translate(766.845703 0.015625)"/>
      <use xlink:href="#DejaVuSans-72" transform="translate(828.027344 0.015625)"/>
      <use xlink:href="#DejaVuSans-74" transform="translate(869.140625 0.015625)"/>
      <use xlink:href="#DejaVuSans-69" transform="translate(908.349609 0.015625)"/>
      <use xlink:href="#DejaVuSans-6f" transform="translate(936.132812 0.015625)"/>
      <use xlink:href="#DejaVuSans-6e" transform="translate(997.314453 0.015625)"/>
      <use xlink:href="#DejaVuSans-20" transform="translate(1060.693359 0.015625)"/>
      <use xlink:href="#DejaVuSans-Oblique-3b3" transform="translate(1092.480469 0.015625)"/>
      <use xlink:href="#DejaVuSans-Oblique-70" transform="translate(1151.660156 -16.390625) scale(0.7)"/>
      <use xlink:href="#DejaVuSans-Oblique-72" transform="translate(1196.09375 -16.390625) scale(0.7)"/>
      <use xlink:href="#DejaVuSans-Oblique-6f" transform="translate(1224.873047 -16.390625) scale(0.7)"/>
      <use xlink:href="#DejaVuSans-Oblique-70" transform="translate(1267.700195 -16.390625) scale(0.7)"/>
     </g>
    </g>
   </g>
   <g id="line2d_43">
    <path d="M 940.074841 336.853812 
" clip-path="url(#p670ed4b3ff)" style="fill: none; stroke: #ffa500; stroke-width: 1.5; stroke-linecap: square"/>
   </g>
   <g id="patch_7">
    <path d="M 103.074841 395.28 
L 103.074841 7.2 
" style="fill: none; stroke: #000000; stroke-width: 0.8; stroke-linejoin: miter; stroke-linecap: square"/>
   </g>
   <g id="patch_8">
    <path d="M 940.074841 395.28 
L 940.074841 7.2 
" style="fill: none; stroke: #000000; stroke-width: 0.8; stroke-linejoin: miter; stroke-linecap: square"/>
   </g>
   <g id="patch_9">
    <path d="M 103.074841 395.28 
L 940.074841 395.28 
" style="fill: none; stroke: #000000; stroke-width: 0.8; stroke-linejoin: miter; stroke-linecap: square"/>
   </g>
   <g id="patch_10">
    <path d="M 103.074841 7.2 
L 940.074841 7.2 
" style="fill: none; stroke: #000000; stroke-width: 0.8; stroke-linejoin: miter; stroke-linecap: square"/>
   </g>
  </g>
 </g>
 <defs>
  <clipPath id="p670ed4b3ff">
   <rect x="103.074841" y="7.2" width="837" height="388.08"/>
  </clipPath>
 </defs>
</svg>
