<?xml version="1.0" encoding="utf-8" standalone="no"?>
<!DOCTYPE svg PUBLIC "-//W3C//DTD SVG 1.1//EN"
  "http://www.w3.org/Graphics/SVG/1.1/DTD/svg11.dtd">
<svg xmlns:xlink="http://www.w3.org/1999/xlink" width="947.274841pt" height="505.354841pt" viewBox="0 0 947.274841 505.354841" xmlns="http://www.w3.org/2000/svg" version="1.1">
 <metadata>
  <rdf:RDF xmlns:dc="http://purl.org/dc/elements/1.1/" xmlns:cc="http://creativecommons.org/ns#" xmlns:rdf="http://www.w3.org/1999/02/22-rdf-syntax-ns#">
   <cc:Work>
    <dc:type rdf:resource="http://purl.org/dc/dcmitype/StillImage"/>
    <dc:date>2023-11-15T19:56:56.684784</dc:date>
    <dc:format>image/svg+xml</dc:format>
    <dc:creator>
     <cc:Agent>
      <dc:title>Matplotlib v3.7.2, https://matplotlib.org/</dc:title>
     </cc:Agent>
    </dc:creator>
   </cc:Work>
  </rdf:RDF>
 </metadata>
 <defs>
  <style type="text/css">*{stroke-linejoin: round; stroke-linecap: butt}</style>
 </defs>
 <g id="figure_1">
  <g id="patch_1">
   <path d="M 0 505.354841 
L 947.274841 505.354841 
L 947.274841 -0 
L 0 -0 
z
" style="fill: #ffffff"/>
  </g>
  <g id="axes_1">
   <g id="patch_2">
    <path d="M 103.074841 395.28 
L 940.074841 395.28 
L 940.074841 7.2 
L 103.074841 7.2 
z
" style="fill: #ffffff"/>
   </g>
   <g id="PolyCollection_1">
    <path d="M -393.000769 239.470656 
L -393.000769 239.484409 
L -390.959306 239.411937 
L -388.917842 239.349674 
L -386.876379 239.270554 
L -384.834915 239.21945 
L -382.793452 239.161004 
L -380.751989 239.094015 
L -378.710525 239.027853 
L -376.669062 238.965942 
L -374.627598 238.911947 
L -372.586135 238.849185 
L -370.544672 238.783324 
L -368.503208 238.719418 
L -366.461745 238.64041 
L -364.420281 238.575442 
L -362.378818 238.498511 
L -360.337354 238.433022 
L -358.295891 238.343648 
L -356.254428 238.27069 
L -354.212964 238.200578 
L -352.171501 238.117222 
L -350.130037 238.036111 
L -348.088574 237.956969 
L -346.047111 237.860923 
L -344.005647 237.777394 
L -341.964184 237.679169 
L -339.92272 237.579838 
L -337.881257 237.46973 
L -335.839793 237.356641 
L -333.79833 237.246293 
L -331.756867 237.118139 
L -329.715403 236.972818 
L -327.67394 236.844579 
L -325.632476 236.69847 
L -323.591013 236.53113 
L -321.54955 236.376106 
L -319.508086 236.193656 
L -317.466623 236.008592 
L -315.425159 235.8182 
L -313.383696 235.617176 
L -311.342232 235.39394 
L -309.300769 235.156187 
L -307.259306 234.904198 
L -305.217842 234.662174 
L -303.176379 234.376691 
L -301.134915 234.106226 
L -299.093452 233.818 
L -297.051989 233.529138 
L -295.010525 233.217836 
L -292.969062 232.880265 
L -290.927598 232.569198 
L -288.886135 232.22177 
L -286.844672 231.862118 
L -284.803208 231.510423 
L -282.761745 231.162912 
L -280.720281 230.784953 
L -278.678818 230.40312 
L -276.637354 230.022404 
L -274.595891 229.625432 
L -272.554428 229.223704 
L -270.512964 228.823556 
L -268.471501 228.409556 
L -266.430037 227.994903 
L -264.388574 227.587113 
L -262.347111 227.161976 
L -260.305647 226.706056 
L -258.264184 226.265047 
L -256.22272 225.825215 
L -254.181257 225.39264 
L -252.139793 224.941495 
L -250.09833 224.501197 
L -248.056867 224.052836 
L -246.015403 223.649729 
L -243.97394 223.171498 
L -241.932476 222.759328 
L -239.891013 222.305821 
L -237.84955 221.874496 
L -235.808086 221.420907 
L -233.766623 221.022404 
L -231.725159 220.562 
L -229.683696 220.129887 
L -227.642232 219.72296 
L -225.600769 219.287233 
L -223.559306 218.876157 
L -221.517842 218.445093 
L -219.476379 218.005195 
L -217.434915 217.587344 
L -215.393452 217.180367 
L -213.351989 216.740692 
L -211.310525 216.318355 
L -209.269062 215.887463 
L -207.227598 215.46959 
L -205.186135 215.061731 
L -203.144672 214.642049 
L -201.103208 214.217821 
L -199.061745 213.836899 
L -197.020281 213.403558 
L -194.978818 212.988636 
L -192.937354 212.580444 
L -190.895891 212.17145 
L -188.854428 211.763202 
L -186.812964 211.349277 
L -184.771501 210.954707 
L -182.730037 210.543706 
L -180.688574 210.122113 
L -178.647111 209.69552 
L -176.605647 209.264063 
L -174.564184 208.860555 
L -172.52272 208.415724 
L -170.481257 207.940889 
L -168.439793 207.495352 
L -166.39833 207.025161 
L -164.356867 206.547621 
L -162.315403 206.043115 
L -160.27394 205.529444 
L -158.232476 205.052647 
L -156.191013 204.508019 
L -154.14955 203.990848 
L -152.108086 203.433815 
L -150.066623 202.922862 
L -148.025159 202.321096 
L -145.983696 201.731419 
L -143.942232 201.158657 
L -141.900769 200.575929 
L -139.859306 199.975161 
L -137.817842 199.347174 
L -135.776379 198.759236 
L -133.734915 198.084902 
L -131.693452 197.493 
L -129.651989 196.799062 
L -127.610525 196.127107 
L -125.569062 195.471316 
L -123.527598 194.842832 
L -121.486135 194.108129 
L -119.444672 193.445532 
L -117.403208 192.600818 
L -115.361745 191.87581 
L -113.320281 191.201078 
L -111.278818 190.438068 
L -109.237354 189.655469 
L -107.195891 188.752956 
L -105.154428 187.908027 
L -103.112964 187.205086 
L -101.071501 186.087275 
L -99.030037 185.19197 
L -96.988574 184.277353 
L -94.947111 183.328583 
L -92.905647 182.247315 
L -90.864184 181.231837 
L -88.82272 180.46838 
L -86.781257 179.493002 
L -84.739793 177.885414 
L -82.69833 176.536407 
L -80.656867 175.543429 
L -78.615403 174.164388 
L -76.57394 173.023444 
L -74.532476 172.032367 
L -72.491013 170.522152 
L -70.44955 168.802811 
L -68.408086 167.631913 
L -66.366623 166.888877 
L -64.325159 165.455906 
L -62.283696 164.825005 
L -60.242232 164.006808 
L -58.200769 162.562385 
L -56.159306 162.708792 
L -54.117842 163.34204 
L -52.076379 164.649222 
L -50.034915 163.250188 
L -47.993452 166.121944 
L -45.951989 166.787009 
L -43.910525 162.997982 
L -41.869062 164.111163 
L -39.827598 165.83411 
L -37.786135 164.865809 
L -35.744672 164.689356 
L -33.703208 171.97786 
L -31.661745 182.32787 
L -29.620281 187.495035 
L -27.578818 176.324837 
L -25.537354 182.110266 
L -23.495891 189.679318 
L -21.454428 189.268788 
L -19.412964 204.640882 
L -17.371501 202.575622 
L -15.330037 197.909146 
L -13.288574 186.305122 
L -11.247111 197.260576 
L -9.205647 203.858783 
L -7.164184 201.136498 
L -5.12272 202.875548 
L -3.081257 209.10522 
L -1.039793 208.306684 
L 1.00167 202.987444 
L 3.043133 209.735207 
L 5.084597 211.099243 
L 7.12606 208.733174 
L 9.167524 213.032438 
L 11.208987 214.628371 
L 13.25045 214.246304 
L 15.291914 212.993525 
L 17.333377 214.437597 
L 19.374841 213.051823 
L 21.416304 213.223369 
L 23.457768 214.607552 
L 25.499231 213.402746 
L 27.540694 214.10873 
L 29.582158 214.20078 
L 31.623621 213.245013 
L 33.665085 213.681124 
L 35.706548 212.283318 
L 37.748011 212.449663 
L 39.789475 212.926596 
L 41.830938 213.024095 
L 43.872402 212.388279 
L 45.913865 211.859425 
L 47.955328 211.788533 
L 49.996792 211.202218 
L 52.038255 211.186062 
L 54.079719 211.150523 
L 56.121182 210.223836 
L 58.162646 210.802043 
L 60.204109 210.226807 
L 62.245572 210.0362 
L 64.287036 210.158389 
L 66.328499 209.603711 
L 68.369963 209.545561 
L 70.411426 209.874819 
L 72.452889 210.343767 
L 74.494353 209.370296 
L 76.535816 209.289785 
L 78.57728 209.038955 
L 80.618743 211.001624 
L 82.660207 211.139475 
L 84.70167 211.947648 
L 86.743133 210.2552 
L 88.784597 209.246426 
L 90.82606 209.680705 
L 92.867524 210.991692 
L 94.908987 211.273719 
L 96.95045 209.194127 
L 98.991914 211.084464 
L 101.033377 210.694186 
L 103.074841 210.45629 
L 105.116304 209.521735 
L 107.157768 210.386691 
L 109.199231 209.955954 
L 111.240694 210.457445 
L 113.282158 209.852739 
L 115.323621 209.37987 
L 117.365085 208.494755 
L 119.406548 208.086275 
L 121.448011 207.713911 
L 123.489475 207.188139 
L 125.530938 207.087579 
L 127.572402 206.593066 
L 129.613865 206.054926 
L 131.655328 204.615919 
L 133.696792 203.522225 
L 135.738255 203.029874 
L 137.779719 201.829489 
L 139.821182 201.585233 
L 141.862646 200.522937 
L 143.904109 198.961043 
L 145.945572 197.65441 
L 147.987036 196.658942 
L 150.028499 195.036699 
L 152.069963 194.030462 
L 154.111426 192.576633 
L 156.152889 191.309368 
L 158.194353 189.762411 
L 160.235816 188.492755 
L 162.27728 186.781312 
L 164.318743 185.431145 
L 166.360207 183.980112 
L 168.40167 182.019519 
L 170.443133 180.203092 
L 172.484597 178.844701 
L 174.52606 177.404977 
L 176.567524 175.555797 
L 178.608987 174.099853 
L 180.65045 172.322421 
L 182.691914 169.736408 
L 184.733377 168.659512 
L 186.774841 166.480786 
L 188.816304 164.776016 
L 190.857768 162.948654 
L 192.899231 160.927628 
L 194.940694 158.89383 
L 196.982158 157.021396 
L 199.023621 154.481446 
L 201.065085 152.926737 
L 203.106548 150.456209 
L 205.148011 148.886578 
L 207.189475 146.362352 
L 209.230938 144.004507 
L 211.272402 141.897544 
L 213.313865 140.232645 
L 215.355328 137.430257 
L 217.396792 135.552872 
L 219.438255 133.081859 
L 221.479719 131.073418 
L 223.521182 128.461259 
L 225.562646 126.169752 
L 227.604109 125.886781 
L 229.645572 121.37215 
L 231.687036 120.666409 
L 233.728499 117.916873 
L 235.769963 116.012742 
L 237.811426 113.766804 
L 239.852889 111.367448 
L 241.894353 109.190317 
L 243.935816 107.081685 
L 245.97728 105.087633 
L 248.018743 103.092284 
L 250.060207 104.483131 
L 252.10167 98.753769 
L 254.143133 97.36305 
L 256.184597 101.769789 
L 258.22606 95.047406 
L 260.267524 96.045182 
L 262.308987 95.260848 
L 264.35045 91.685743 
L 266.391914 92.302839 
L 268.433377 95.426283 
L 270.474841 92.824067 
L 272.516304 91.72175 
L 274.557768 93.803578 
L 276.599231 93.064265 
L 278.640694 94.376138 
L 280.682158 96.395319 
L 282.723621 99.198609 
L 284.765085 106.916967 
L 286.806548 104.906335 
L 288.848011 108.872957 
L 290.889475 111.951497 
L 292.930938 113.719033 
L 294.972402 117.751315 
L 297.013865 120.055757 
L 299.055328 114.854845 
L 301.096792 119.324705 
L 303.138255 125.779424 
L 305.179719 128.684405 
L 307.221182 129.167137 
L 309.262646 139.660636 
L 311.304109 140.434437 
L 313.345572 143.483171 
L 315.387036 142.422465 
L 317.428499 152.24968 
L 319.469963 148.943085 
L 321.511426 146.976911 
L 323.552889 155.338921 
L 325.594353 161.215549 
L 327.635816 160.470239 
L 329.67728 163.869321 
L 331.718743 164.822725 
L 333.760207 164.815537 
L 335.80167 164.584442 
L 337.843133 166.358136 
L 339.884597 167.257083 
L 341.92606 173.256797 
L 343.967524 169.817045 
L 346.008987 175.003903 
L 348.05045 173.527505 
L 350.091914 172.539206 
L 352.133377 174.482176 
L 354.174841 176.182856 
L 356.216304 173.432436 
L 358.257768 174.387714 
L 360.299231 174.194831 
L 362.340694 176.871975 
L 364.382158 175.123804 
L 366.423621 174.149899 
L 368.465085 174.69981 
L 370.506548 175.815461 
L 372.548011 174.797195 
L 374.589475 173.05598 
L 376.630938 173.514805 
L 378.672402 171.02232 
L 380.713865 170.899198 
L 382.755328 174.071797 
L 384.796792 173.485499 
L 386.838255 171.097076 
L 388.879719 170.205984 
L 390.921182 170.029329 
L 392.962646 167.458852 
L 395.004109 167.55856 
L 397.045572 167.119717 
L 399.087036 166.224593 
L 401.128499 165.201612 
L 403.169963 163.42557 
L 405.211426 163.770334 
L 407.252889 162.427397 
L 409.294353 161.784426 
L 411.335816 160.86144 
L 413.37728 160.478664 
L 415.418743 159.018588 
L 417.460207 156.733825 
L 419.50167 156.230166 
L 421.543133 154.305978 
L 423.584597 151.725442 
L 425.62606 152.934154 
L 427.667524 149.578074 
L 429.708987 150.45213 
L 431.75045 149.526075 
L 433.791914 149.386784 
L 435.833377 147.132763 
L 437.874841 146.664116 
L 439.916304 146.067119 
L 441.957768 143.378993 
L 443.999231 143.674982 
L 446.040694 143.174429 
L 448.082158 142.793415 
L 450.123621 141.384796 
L 452.165085 141.649624 
L 454.206548 140.221896 
L 456.248011 138.859974 
L 458.289475 136.86161 
L 460.330938 136.067994 
L 462.372402 135.472954 
L 464.413865 134.030316 
L 466.455328 134.001689 
L 468.496792 133.19866 
L 470.538255 131.91014 
L 472.579719 131.760541 
L 474.621182 130.339017 
L 476.662646 131.188891 
L 478.704109 130.153278 
L 480.745572 130.027473 
L 482.787036 128.326213 
L 484.828499 126.068709 
L 486.869963 127.701607 
L 488.911426 127.495639 
L 490.952889 126.669171 
L 492.994353 125.822698 
L 495.035816 124.226074 
L 497.07728 123.768184 
L 499.118743 122.840395 
L 501.160207 122.843931 
L 503.20167 122.42793 
L 505.243133 120.92286 
L 507.284597 118.834578 
L 509.32606 121.300382 
L 511.367524 120.587664 
L 513.408987 118.811503 
L 515.45045 119.784138 
L 517.491914 116.683987 
L 519.533377 116.960924 
L 521.574841 117.062067 
L 523.616304 114.93524 
L 525.657768 118.31863 
L 527.699231 114.750139 
L 529.740694 112.894861 
L 531.782158 115.082984 
L 533.823621 115.616694 
L 535.865085 114.427907 
L 537.906548 115.229891 
L 539.948011 113.549188 
L 541.989475 116.574652 
L 544.030938 114.910061 
L 546.072402 115.468827 
L 548.113865 113.264335 
L 550.155328 111.283744 
L 552.196792 113.62427 
L 554.238255 117.893621 
L 556.279719 112.869793 
L 558.321182 113.06922 
L 560.362646 111.145706 
L 562.404109 111.942302 
L 564.445572 111.618807 
L 566.487036 110.401896 
L 568.528499 109.912622 
L 570.569963 111.961767 
L 572.611426 110.799867 
L 574.652889 112.673577 
L 576.694353 112.979794 
L 578.735816 107.314009 
L 580.77728 109.592139 
L 582.818743 109.744776 
L 584.860207 110.101102 
L 586.90167 110.419582 
L 588.943133 113.996232 
L 590.984597 115.41748 
L 593.02606 115.235146 
L 595.067524 119.188419 
L 597.108987 125.753255 
L 599.15045 117.921251 
L 601.191914 117.825393 
L 603.233377 117.988472 
L 605.274841 120.591584 
L 607.316304 121.18518 
L 609.357768 121.163265 
L 611.399231 126.810723 
L 613.440694 128.890221 
L 615.482158 122.455045 
L 617.523621 128.27089 
L 619.565085 125.400006 
L 621.606548 123.614372 
L 623.648011 130.694169 
L 625.689475 129.287816 
L 627.730938 133.863936 
L 629.772402 132.478574 
L 631.813865 129.399394 
L 633.855328 132.276744 
L 635.896792 132.296965 
L 637.938255 135.130619 
L 639.979719 133.381194 
L 642.021182 138.036826 
L 644.062646 134.737588 
L 646.104109 137.212747 
L 648.145572 136.741751 
L 650.187036 139.464611 
L 652.228499 135.137211 
L 654.269963 139.828922 
L 656.311426 139.597796 
L 658.352889 142.815538 
L 660.394353 144.529518 
L 662.435816 144.577697 
L 664.47728 143.809764 
L 666.518743 145.895127 
L 668.560207 147.48169 
L 670.60167 146.1625 
L 672.643133 145.698917 
L 674.684597 147.531308 
L 676.72606 149.200634 
L 678.767524 146.422931 
L 680.808987 144.829945 
L 682.85045 151.333058 
L 684.891914 154.319204 
L 686.933377 147.746674 
L 688.974841 149.730168 
L 691.016304 150.755495 
L 693.057768 151.267381 
L 695.099231 154.623107 
L 697.140694 154.238875 
L 699.182158 152.930732 
L 701.223621 154.428405 
L 703.265085 154.859663 
L 705.306548 151.330114 
L 707.348011 153.181923 
L 709.389475 152.11111 
L 711.430938 157.078926 
L 713.472402 163.204574 
L 715.513865 162.379453 
L 717.555328 157.628335 
L 719.596792 157.169526 
L 721.638255 157.884284 
L 723.679719 158.175303 
L 725.721182 162.737023 
L 727.762646 157.043017 
L 729.804109 163.134551 
L 731.845572 168.040143 
L 733.887036 164.065812 
L 735.928499 170.375565 
L 737.969963 166.560391 
L 740.011426 170.019002 
L 742.052889 167.837353 
L 744.094353 169.588954 
L 746.135816 173.009933 
L 748.17728 172.871374 
L 750.218743 173.991303 
L 752.260207 174.359846 
L 754.30167 174.795985 
L 756.343133 166.741489 
L 758.384597 177.317993 
L 760.42606 181.753803 
L 762.467524 177.699424 
L 764.508987 181.646329 
L 766.55045 182.595908 
L 768.591914 180.567744 
L 770.633377 185.016724 
L 772.674841 188.046634 
L 774.716304 186.51092 
L 776.757768 187.80161 
L 778.799231 188.619281 
L 780.840694 189.834664 
L 782.882158 193.296017 
L 784.923621 186.839908 
L 786.965085 195.314453 
L 789.006548 195.712968 
L 791.048011 196.280926 
L 793.089475 191.341556 
L 795.130938 197.813842 
L 797.172402 202.193184 
L 799.213865 198.17059 
L 801.255328 198.850676 
L 803.296792 204.877943 
L 805.338255 194.960785 
L 807.379719 204.646119 
L 809.421182 198.947883 
L 811.462646 207.448514 
L 813.504109 203.774749 
L 815.545572 207.603138 
L 817.587036 208.992885 
L 819.628499 210.820303 
L 821.669963 211.55384 
L 823.711426 209.590836 
L 825.752889 209.893211 
L 827.794353 211.244715 
L 829.835816 215.270576 
L 831.87728 215.061506 
L 833.918743 215.192739 
L 835.960207 217.735265 
L 838.00167 218.118964 
L 840.043133 216.491252 
L 842.084597 217.043812 
L 844.12606 220.738208 
L 846.167524 221.438781 
L 848.208987 222.473656 
L 850.25045 219.842956 
L 852.291914 215.832565 
L 854.333377 220.60715 
L 856.374841 219.332698 
L 858.416304 220.709123 
L 860.457768 222.819845 
L 862.499231 220.373735 
L 864.540694 223.715089 
L 866.582158 221.432321 
L 868.623621 221.124757 
L 870.665085 220.987025 
L 872.706548 223.876444 
L 874.748011 223.145382 
L 876.789475 222.862936 
L 878.830938 220.732748 
L 880.872402 221.794849 
L 882.913865 222.21961 
L 884.955328 221.542347 
L 886.996792 223.343057 
L 889.038255 222.791172 
L 891.079719 223.745173 
L 893.121182 224.799432 
L 895.162646 224.538678 
L 897.204109 223.201559 
L 899.245572 223.351331 
L 901.287036 222.432136 
L 903.328499 223.128103 
L 905.369963 223.139297 
L 907.411426 221.485551 
L 909.452889 222.742325 
L 911.494353 215.871519 
L 913.535816 222.351902 
L 915.57728 224.590216 
L 917.618743 221.429091 
L 919.660207 220.835001 
L 921.70167 223.716068 
L 923.743133 222.76966 
L 925.784597 219.990802 
L 927.82606 220.016353 
L 929.867524 220.934059 
L 931.908987 219.806614 
L 933.95045 222.754184 
L 935.991914 221.33024 
L 938.033377 222.830701 
L 940.074841 220.910234 
L 940.074841 218.127553 
L 940.074841 218.127553 
L 938.033377 217.580699 
L 935.991914 214.965145 
L 933.95045 218.439182 
L 931.908987 212.402207 
L 929.867524 214.358346 
L 927.82606 213.656653 
L 925.784597 207.228653 
L 923.743133 215.924444 
L 921.70167 220.538518 
L 919.660207 208.240181 
L 917.618743 213.80672 
L 915.57728 219.14301 
L 913.535816 215.818898 
L 911.494353 174.761138 
L 909.452889 214.720709 
L 907.411426 207.325508 
L 905.369963 215.412363 
L 903.328499 214.909825 
L 901.287036 211.922053 
L 899.245572 212.328102 
L 897.204109 211.61735 
L 895.162646 216.367547 
L 893.121182 216.669012 
L 891.079719 210.823062 
L 889.038255 207.01201 
L 886.996792 210.570692 
L 884.955328 205.026605 
L 882.913865 207.483629 
L 880.872402 204.316178 
L 878.830938 200.2471 
L 876.789475 206.403391 
L 874.748011 207.263262 
L 872.706548 207.479977 
L 870.665085 200.797792 
L 868.623621 199.508279 
L 866.582158 199.420886 
L 864.540694 207.599359 
L 862.499231 196.735381 
L 860.457768 204.370088 
L 858.416304 198.090496 
L 856.374841 193.390738 
L 854.333377 197.551377 
L 852.291914 180.070529 
L 850.25045 195.89036 
L 848.208987 202.513439 
L 846.167524 199.426943 
L 844.12606 198.011509 
L 842.084597 184.016638 
L 840.043133 184.47294 
L 838.00167 189.588594 
L 835.960207 189.336236 
L 833.918743 181.622408 
L 831.87728 182.13813 
L 829.835816 181.536907 
L 827.794353 173.998619 
L 825.752889 167.532942 
L 823.711426 166.195891 
L 821.669963 172.102515 
L 819.628499 170.519589 
L 817.587036 167.225946 
L 815.545572 163.84163 
L 813.504109 152.620023 
L 811.462646 164.103709 
L 809.421182 134.957271 
L 807.379719 154.876347 
L 805.338255 127.124895 
L 803.296792 157.430493 
L 801.255328 140.870397 
L 799.213865 140.675883 
L 797.172402 149.383767 
L 795.130938 139.338691 
L 793.089475 120.926133 
L 791.048011 134.561205 
L 789.006548 134.368179 
L 786.965085 133.903704 
L 784.923621 112.405401 
L 782.882158 123.180013 
L 780.840694 120.669294 
L 778.799231 119.242749 
L 776.757768 116.939792 
L 774.716304 112.509714 
L 772.674841 117.021987 
L 770.633377 109.153116 
L 768.591914 99.292212 
L 766.55045 107.585251 
L 764.508987 101.1585 
L 762.467524 95.40968 
L 760.42606 104.976659 
L 758.384597 94.738964 
L 756.343133 68.336429 
L 754.30167 87.798847 
L 752.260207 87.125472 
L 750.218743 87.245336 
L 748.17728 84.961548 
L 746.135816 85.14667 
L 744.094353 78.004857 
L 742.052889 75.114516 
L 740.011426 80.788473 
L 737.969963 70.383934 
L 735.928499 81.197261 
L 733.887036 66.70355 
L 731.845572 75.173947 
L 729.804109 65.573498 
L 727.762646 53.652187 
L 725.721182 64.814751 
L 723.679719 54.387056 
L 721.638255 55.211774 
L 719.596792 54.858893 
L 717.555328 55.987126 
L 715.513865 66.045505 
L 713.472402 68.531972 
L 711.430938 56.699396 
L 709.389475 44.594562 
L 707.348011 48.151516 
L 705.306548 45.806025 
L 703.265085 53.62943 
L 701.223621 52.969054 
L 699.182158 50.01001 
L 697.140694 54.150428 
L 695.099231 53.986229 
L 693.057768 47.92813 
L 691.016304 48.843956 
L 688.974841 46.596753 
L 686.933377 43.80787 
L 684.891914 58.020373 
L 682.85045 50.290507 
L 680.808987 39.66299 
L 678.767524 45.040752 
L 676.72606 49.865994 
L 674.684597 47.00919 
L 672.643133 44.86383 
L 670.60167 46.905865 
L 668.560207 52.008868 
L 666.518743 46.911074 
L 664.47728 45.184046 
L 662.435816 47.567568 
L 660.394353 44.478759 
L 658.352889 45.779338 
L 656.311426 39.337925 
L 654.269963 42.012846 
L 652.228499 34.109861 
L 650.187036 41.385132 
L 648.145572 38.343759 
L 646.104109 40.562091 
L 644.062646 38.59865 
L 642.021182 43.141719 
L 639.979719 36.122811 
L 637.938255 40.993454 
L 635.896792 36.675146 
L 633.855328 37.854338 
L 631.813865 34.541429 
L 629.772402 36.747901 
L 627.730938 42.239254 
L 625.689475 37.531979 
L 623.648011 39.069427 
L 621.606548 29.514689 
L 619.565085 34.399513 
L 617.523621 37.041781 
L 615.482158 29.777049 
L 613.440694 38.600507 
L 611.399231 39.608309 
L 609.357768 30.345661 
L 607.316304 30.875366 
L 605.274841 30.561643 
L 603.233377 27.465705 
L 601.191914 30.230523 
L 599.15045 29.749877 
L 597.108987 41.436153 
L 595.067524 34.043513 
L 593.02606 28.706103 
L 590.984597 29.286214 
L 588.943133 28.032683 
L 586.90167 25.008656 
L 584.860207 26.7057 
L 582.818743 24.84 
L 580.77728 27.944815 
L 578.735816 25.027348 
L 576.694353 31.948797 
L 574.652889 33.29861 
L 572.611426 32.305119 
L 570.569963 34.227956 
L 568.528499 32.267398 
L 566.487036 34.666395 
L 564.445572 36.271765 
L 562.404109 39.782223 
L 560.362646 37.844166 
L 558.321182 41.704998 
L 556.279719 41.506068 
L 554.238255 48.2862 
L 552.196792 44.491413 
L 550.155328 42.687058 
L 548.113865 45.839776 
L 546.072402 47.512451 
L 544.030938 48.049457 
L 541.989475 52.133982 
L 539.948011 49.402746 
L 537.906548 52.269306 
L 535.865085 51.493715 
L 533.823621 52.474358 
L 531.782158 51.809783 
L 529.740694 50.650817 
L 527.699231 53.960006 
L 525.657768 58.23264 
L 523.616304 54.625113 
L 521.574841 57.266001 
L 519.533377 56.635814 
L 517.491914 58.293652 
L 515.45045 61.657667 
L 513.408987 60.988672 
L 511.367524 63.775337 
L 509.32606 64.767096 
L 507.284597 62.368193 
L 505.243133 64.330395 
L 503.20167 66.473954 
L 501.160207 67.463199 
L 499.118743 67.727152 
L 497.07728 69.3447 
L 495.035816 69.476994 
L 492.994353 71.709764 
L 490.952889 72.56944 
L 488.911426 73.327535 
L 486.869963 74.081374 
L 484.828499 71.027016 
L 482.787036 75.085188 
L 480.745572 76.900069 
L 478.704109 76.795805 
L 476.662646 77.230888 
L 474.621182 77.565599 
L 472.579719 78.961539 
L 470.538255 78.909172 
L 468.496792 80.847288 
L 466.455328 81.717648 
L 464.413865 81.622501 
L 462.372402 82.513533 
L 460.330938 83.613987 
L 458.289475 84.743624 
L 456.248011 87.870392 
L 454.206548 88.826229 
L 452.165085 90.491771 
L 450.123621 90.080243 
L 448.082158 91.695321 
L 446.040694 92.114381 
L 443.999231 92.812448 
L 441.957768 91.65995 
L 439.916304 95.956636 
L 437.874841 96.608676 
L 435.833377 97.177496 
L 433.791914 99.885844 
L 431.75045 100.027632 
L 429.708987 101.338054 
L 427.667524 100.437662 
L 425.62606 104.057317 
L 423.584597 103.404225 
L 421.543133 106.90917 
L 419.50167 109.498069 
L 417.460207 110.48041 
L 415.418743 113.648875 
L 413.37728 116.197602 
L 411.335816 116.447034 
L 409.294353 118.137941 
L 407.252889 118.85314 
L 405.211426 120.959934 
L 403.169963 120.765264 
L 401.128499 123.564159 
L 399.087036 125.732882 
L 397.045572 127.141191 
L 395.004109 128.099705 
L 392.962646 128.917854 
L 390.921182 131.891656 
L 388.879719 132.816558 
L 386.838255 134.759386 
L 384.796792 137.48161 
L 382.755328 138.538158 
L 380.713865 136.632746 
L 378.672402 137.564987 
L 376.630938 140.497431 
L 374.589475 141.069481 
L 372.548011 143.159342 
L 370.506548 144.736296 
L 368.465085 144.267639 
L 366.423621 145.321682 
L 364.382158 146.577183 
L 362.340694 148.638971 
L 360.299231 146.838638 
L 358.257768 147.946989 
L 356.216304 148.177022 
L 354.174841 150.992523 
L 352.133377 150.888558 
L 350.091914 149.661637 
L 348.05045 151.249257 
L 346.008987 152.874687 
L 343.967524 149.343552 
L 341.92606 152.972767 
L 339.884597 148.746296 
L 337.843133 148.664214 
L 335.80167 147.792539 
L 333.760207 148.948752 
L 331.718743 149.367413 
L 329.67728 148.747532 
L 327.635816 146.432436 
L 325.594353 148.096656 
L 323.552889 142.886011 
L 321.511426 137.205275 
L 319.469963 138.882457 
L 317.428499 141.97545 
L 315.387036 134.490971 
L 313.345572 135.112749 
L 311.304109 133.382528 
L 309.262646 133.02102 
L 307.221182 122.854278 
L 305.179719 121.79466 
L 303.138255 118.122376 
L 301.096792 109.911789 
L 299.055328 103.536436 
L 297.013865 110.398157 
L 294.972402 107.049187 
L 292.930938 101.526928 
L 290.889475 99.247104 
L 288.848011 95.246635 
L 286.806548 89.964819 
L 284.765085 92.199097 
L 282.723621 82.802179 
L 280.682158 78.104347 
L 278.640694 75.978331 
L 276.599231 74.163509 
L 274.557768 75.204669 
L 272.516304 72.949631 
L 270.474841 74.980803 
L 268.433377 77.658549 
L 266.391914 73.320917 
L 264.35045 73.010745 
L 262.308987 77.381654 
L 260.267524 78.4794 
L 258.22606 76.99151 
L 256.184597 85.861955 
L 254.143133 79.914199 
L 252.10167 82.158005 
L 250.060207 88.95615 
L 248.018743 87.276082 
L 245.97728 89.881478 
L 243.935816 92.232363 
L 241.894353 94.965237 
L 239.852889 97.571572 
L 237.811426 100.501026 
L 235.769963 103.220546 
L 233.728499 105.470452 
L 231.687036 108.953743 
L 229.645572 109.899131 
L 227.604109 115.363093 
L 225.562646 115.719259 
L 223.521182 118.517919 
L 221.479719 121.759466 
L 219.438255 124.205263 
L 217.396792 127.308761 
L 215.355328 129.55656 
L 213.313865 132.947948 
L 211.272402 135.03479 
L 209.230938 137.687982 
L 207.189475 140.508701 
L 205.148011 143.460052 
L 203.106548 145.139063 
L 201.065085 147.409578 
L 199.023621 148.935925 
L 196.982158 151.274175 
L 194.940694 153.07082 
L 192.899231 154.856646 
L 190.857768 156.841071 
L 188.816304 158.592486 
L 186.774841 160.070136 
L 184.733377 162.006485 
L 182.691914 162.953975 
L 180.65045 165.359981 
L 178.608987 166.959188 
L 176.567524 168.357967 
L 174.52606 170.083813 
L 172.484597 171.108276 
L 170.443133 172.62902 
L 168.40167 174.190759 
L 166.360207 175.916968 
L 164.318743 177.215876 
L 162.27728 178.491471 
L 160.235816 179.890585 
L 158.194353 181.231456 
L 156.152889 182.682274 
L 154.111426 183.819806 
L 152.069963 185.065567 
L 150.028499 186.062991 
L 147.987036 187.484694 
L 145.945572 188.480314 
L 143.904109 189.621382 
L 141.862646 191.068993 
L 139.821182 192.033321 
L 137.779719 192.228809 
L 135.738255 193.391128 
L 133.696792 193.923926 
L 131.655328 195.037907 
L 129.613865 196.354153 
L 127.572402 196.966716 
L 125.530938 197.528911 
L 123.489475 197.529856 
L 121.448011 198.121737 
L 119.406548 198.415987 
L 117.365085 198.744465 
L 115.323621 199.635345 
L 113.282158 200.092019 
L 111.240694 200.811039 
L 109.199231 200.166326 
L 107.157768 200.491105 
L 105.116304 199.563341 
L 103.074841 200.610775 
L 101.033377 200.63571 
L 98.991914 201.358052 
L 96.95045 199.32201 
L 94.908987 201.432294 
L 92.867524 201.089285 
L 90.82606 199.624777 
L 88.784597 199.132231 
L 86.743133 200.142714 
L 84.70167 202.007657 
L 82.660207 201.055401 
L 80.618743 200.847263 
L 78.57728 198.635976 
L 76.535816 198.443025 
L 74.494353 198.863297 
L 72.452889 199.943871 
L 70.411426 199.367993 
L 68.369963 198.941586 
L 66.328499 198.972818 
L 64.287036 199.573924 
L 62.245572 199.233365 
L 60.204109 199.559439 
L 58.162646 200.210409 
L 56.121182 199.486323 
L 54.079719 200.507499 
L 52.038255 200.539585 
L 49.996792 200.535599 
L 47.955328 201.13535 
L 45.913865 201.18363 
L 43.872402 201.871388 
L 41.830938 202.638684 
L 39.789475 202.524498 
L 37.748011 202.037128 
L 35.706548 201.655424 
L 33.665085 203.440554 
L 31.623621 202.996016 
L 29.582158 204.163172 
L 27.540694 204.077967 
L 25.499231 203.481442 
L 23.457768 204.643986 
L 21.416304 203.365418 
L 19.374841 203.326822 
L 17.333377 204.838683 
L 15.291914 203.588031 
L 13.25045 205.015706 
L 11.208987 205.413869 
L 9.167524 204.045325 
L 7.12606 199.883865 
L 5.084597 202.408502 
L 3.043133 201.079485 
L 1.00167 194.935396 
L -1.039793 200.027545 
L -3.081257 201.012404 
L -5.12272 195.326306 
L -7.164184 193.714753 
L -9.205647 196.64781 
L -11.247111 190.488355 
L -13.288574 179.394128 
L -15.330037 191.433906 
L -17.371501 195.994645 
L -19.412964 198.217184 
L -21.454428 183.202731 
L -23.495891 183.765335 
L -25.537354 176.107506 
L -27.578818 170.166353 
L -29.620281 181.98269 
L -31.661745 176.811091 
L -33.703208 166.198431 
L -35.744672 158.762867 
L -37.786135 159.16766 
L -39.827598 160.384478 
L -41.869062 158.766007 
L -43.910525 157.792611 
L -45.951989 161.948613 
L -47.993452 161.398463 
L -50.034915 158.610099 
L -52.076379 160.238199 
L -54.117842 159.046619 
L -56.159306 158.562792 
L -58.200769 158.625328 
L -60.242232 160.238512 
L -62.283696 161.181583 
L -64.325159 161.71468 
L -66.366623 163.110353 
L -68.408086 163.739629 
L -70.44955 164.857699 
L -72.491013 166.651665 
L -74.532476 168.055419 
L -76.57394 169.004719 
L -78.615403 170.068049 
L -80.656867 171.480262 
L -82.69833 172.36565 
L -84.739793 173.72122 
L -86.781257 175.359525 
L -88.82272 176.333225 
L -90.864184 176.983863 
L -92.905647 177.991782 
L -94.947111 179.029671 
L -96.988574 179.982152 
L -99.030037 180.893113 
L -101.071501 181.77134 
L -103.112964 182.979865 
L -105.154428 183.602264 
L -107.195891 184.474333 
L -109.237354 185.387163 
L -111.278818 186.167112 
L -113.320281 186.93943 
L -115.361745 187.584225 
L -117.403208 188.28697 
L -119.444672 189.222946 
L -121.486135 189.876616 
L -123.527598 190.641554 
L -125.569062 191.252275 
L -127.610525 191.931509 
L -129.651989 192.627913 
L -131.693452 193.334646 
L -133.734915 193.92819 
L -135.776379 194.63151 
L -137.817842 195.248504 
L -139.859306 195.910445 
L -141.900769 196.526241 
L -143.942232 197.162175 
L -145.983696 197.747425 
L -148.025159 198.362613 
L -150.066623 199.026825 
L -152.108086 199.530804 
L -154.14955 200.163797 
L -156.191013 200.708463 
L -158.232476 201.341284 
L -160.27394 201.80236 
L -162.315403 202.390817 
L -164.356867 202.951313 
L -166.39833 203.484766 
L -168.439793 204.027804 
L -170.481257 204.529694 
L -172.52272 205.115996 
L -174.564184 205.642986 
L -176.605647 206.076054 
L -178.647111 206.591518 
L -180.688574 207.106082 
L -182.730037 207.617901 
L -184.771501 208.111289 
L -186.812964 208.570575 
L -188.854428 209.076516 
L -190.895891 209.572026 
L -192.937354 210.069725 
L -194.978818 210.565279 
L -197.020281 211.074073 
L -199.061745 211.602884 
L -201.103208 212.056918 
L -203.144672 212.577728 
L -205.186135 213.088106 
L -207.227598 213.577387 
L -209.269062 214.082245 
L -211.310525 214.597386 
L -213.351989 215.096618 
L -215.393452 215.620867 
L -217.434915 216.097779 
L -219.476379 216.584271 
L -221.517842 217.098958 
L -223.559306 217.595443 
L -225.600769 218.065702 
L -227.642232 218.563982 
L -229.683696 219.017483 
L -231.725159 219.503033 
L -233.766623 220.020919 
L -235.808086 220.463021 
L -237.84955 220.959373 
L -239.891013 221.428156 
L -241.932476 221.920297 
L -243.97394 222.36393 
L -246.015403 222.885198 
L -248.056867 223.313856 
L -250.09833 223.796541 
L -252.139793 224.26823 
L -254.181257 224.752242 
L -256.22272 225.21123 
L -258.264184 225.679138 
L -260.305647 226.149081 
L -262.347111 226.635568 
L -264.388574 227.082775 
L -266.430037 227.493619 
L -268.471501 227.914094 
L -270.512964 228.33764 
L -272.554428 228.746466 
L -274.595891 229.162877 
L -276.637354 229.574424 
L -278.678818 229.967045 
L -280.720281 230.364841 
L -282.761745 230.760844 
L -284.803208 231.120314 
L -286.844672 231.486598 
L -288.886135 231.869765 
L -290.927598 232.23254 
L -292.969062 232.556283 
L -295.010525 232.914699 
L -297.051989 233.24179 
L -299.093452 233.542918 
L -301.134915 233.844693 
L -303.176379 234.126823 
L -305.217842 234.432164 
L -307.259306 234.683571 
L -309.300769 234.950083 
L -311.342232 235.201003 
L -313.383696 235.433497 
L -315.425159 235.645252 
L -317.466623 235.837592 
L -319.508086 236.029024 
L -321.54955 236.219085 
L -323.591013 236.375942 
L -325.632476 236.552066 
L -327.67394 236.700833 
L -329.715403 236.828727 
L -331.756867 236.979631 
L -333.79833 237.111434 
L -335.839793 237.220105 
L -337.881257 237.337188 
L -339.92272 237.451085 
L -341.964184 237.550966 
L -344.005647 237.651355 
L -346.047111 237.733947 
L -348.088574 237.834515 
L -350.130037 237.913996 
L -352.171501 237.99779 
L -354.212964 238.085952 
L -356.254428 238.157431 
L -358.295891 238.233411 
L -360.337354 238.333713 
L -362.378818 238.403825 
L -364.420281 238.490425 
L -366.461745 238.558505 
L -368.503208 238.650061 
L -370.544672 238.72207 
L -372.586135 238.798463 
L -374.627598 238.865063 
L -376.669062 238.925654 
L -378.710525 238.995422 
L -380.751989 239.07268 
L -382.793452 239.148047 
L -384.834915 239.211906 
L -386.876379 239.262402 
L -388.917842 239.337017 
L -390.959306 239.397486 
L -393.000769 239.470656 
z
" clip-path="url(#pa424637eb3)" style="fill: #008000; fill-opacity: 0.3; stroke: #008000; stroke-opacity: 0.3"/>
   </g>
   <g id="matplotlib.axis_1">
    <g id="xtick_1">
     <g id="line2d_1">
      <defs>
       <path id="m5b45b90fd2" d="M 0 0 
L 0 3.5 
" style="stroke: #000000; stroke-width: 0.8"/>
      </defs>
      <g>
       <use xlink:href="#m5b45b90fd2" x="103.074841" y="395.28" style="stroke: #000000; stroke-width: 0.8"/>
      </g>
     </g>
     <g id="text_1">
      <!-- 2022-03-01 -->
      <g transform="translate(17.945813 495.213718) rotate(-45) scale(0.2 -0.2)">
       <defs>
        <path id="DejaVuSans-32" d="M 1228 531 
L 3431 531 
L 3431 0 
L 469 0 
L 469 531 
Q 828 903 1448 1529 
Q 2069 2156 2228 2338 
Q 2531 2678 2651 2914 
Q 2772 3150 2772 3378 
Q 2772 3750 2511 3984 
Q 2250 4219 1831 4219 
Q 1534 4219 1204 4116 
Q 875 4013 500 3803 
L 500 4441 
Q 881 4594 1212 4672 
Q 1544 4750 1819 4750 
Q 2544 4750 2975 4387 
Q 3406 4025 3406 3419 
Q 3406 3131 3298 2873 
Q 3191 2616 2906 2266 
Q 2828 2175 2409 1742 
Q 1991 1309 1228 531 
z
" transform="scale(0.015625)"/>
        <path id="DejaVuSans-30" d="M 2034 4250 
Q 1547 4250 1301 3770 
Q 1056 3291 1056 2328 
Q 1056 1369 1301 889 
Q 1547 409 2034 409 
Q 2525 409 2770 889 
Q 3016 1369 3016 2328 
Q 3016 3291 2770 3770 
Q 2525 4250 2034 4250 
z
M 2034 4750 
Q 2819 4750 3233 4129 
Q 3647 3509 3647 2328 
Q 3647 1150 3233 529 
Q 2819 -91 2034 -91 
Q 1250 -91 836 529 
Q 422 1150 422 2328 
Q 422 3509 836 4129 
Q 1250 4750 2034 4750 
z
" transform="scale(0.015625)"/>
        <path id="DejaVuSans-2d" d="M 313 2009 
L 1997 2009 
L 1997 1497 
L 313 1497 
L 313 2009 
z
" transform="scale(0.015625)"/>
        <path id="DejaVuSans-33" d="M 2597 2516 
Q 3050 2419 3304 2112 
Q 3559 1806 3559 1356 
Q 3559 666 3084 287 
Q 2609 -91 1734 -91 
Q 1441 -91 1130 -33 
Q 819 25 488 141 
L 488 750 
Q 750 597 1062 519 
Q 1375 441 1716 441 
Q 2309 441 2620 675 
Q 2931 909 2931 1356 
Q 2931 1769 2642 2001 
Q 2353 2234 1838 2234 
L 1294 2234 
L 1294 2753 
L 1863 2753 
Q 2328 2753 2575 2939 
Q 2822 3125 2822 3475 
Q 2822 3834 2567 4026 
Q 2313 4219 1838 4219 
Q 1578 4219 1281 4162 
Q 984 4106 628 3988 
L 628 4550 
Q 988 4650 1302 4700 
Q 1616 4750 1894 4750 
Q 2613 4750 3031 4423 
Q 3450 4097 3450 3541 
Q 3450 3153 3228 2886 
Q 3006 2619 2597 2516 
z
" transform="scale(0.015625)"/>
        <path id="DejaVuSans-31" d="M 794 531 
L 1825 531 
L 1825 4091 
L 703 3866 
L 703 4441 
L 1819 4666 
L 2450 4666 
L 2450 531 
L 3481 531 
L 3481 0 
L 794 0 
L 794 531 
z
" transform="scale(0.015625)"/>
       </defs>
       <use xlink:href="#DejaVuSans-32"/>
       <use xlink:href="#DejaVuSans-30" x="63.623047"/>
       <use xlink:href="#DejaVuSans-32" x="127.246094"/>
       <use xlink:href="#DejaVuSans-32" x="190.869141"/>
       <use xlink:href="#DejaVuSans-2d" x="254.492188"/>
       <use xlink:href="#DejaVuSans-30" x="290.576172"/>
       <use xlink:href="#DejaVuSans-33" x="354.199219"/>
       <use xlink:href="#DejaVuSans-2d" x="417.822266"/>
       <use xlink:href="#DejaVuSans-30" x="453.90625"/>
       <use xlink:href="#DejaVuSans-31" x="517.529297"/>
      </g>
     </g>
    </g>
    <g id="xtick_2">
     <g id="line2d_2">
      <g>
       <use xlink:href="#m5b45b90fd2" x="160.235816" y="395.28" style="stroke: #000000; stroke-width: 0.8"/>
      </g>
     </g>
     <g id="text_2">
      <!-- 2022-03-29 -->
      <g transform="translate(75.106789 495.213718) rotate(-45) scale(0.2 -0.2)">
       <defs>
        <path id="DejaVuSans-39" d="M 703 97 
L 703 672 
Q 941 559 1184 500 
Q 1428 441 1663 441 
Q 2288 441 2617 861 
Q 2947 1281 2994 2138 
Q 2813 1869 2534 1725 
Q 2256 1581 1919 1581 
Q 1219 1581 811 2004 
Q 403 2428 403 3163 
Q 403 3881 828 4315 
Q 1253 4750 1959 4750 
Q 2769 4750 3195 4129 
Q 3622 3509 3622 2328 
Q 3622 1225 3098 567 
Q 2575 -91 1691 -91 
Q 1453 -91 1209 -44 
Q 966 3 703 97 
z
M 1959 2075 
Q 2384 2075 2632 2365 
Q 2881 2656 2881 3163 
Q 2881 3666 2632 3958 
Q 2384 4250 1959 4250 
Q 1534 4250 1286 3958 
Q 1038 3666 1038 3163 
Q 1038 2656 1286 2365 
Q 1534 2075 1959 2075 
z
" transform="scale(0.015625)"/>
       </defs>
       <use xlink:href="#DejaVuSans-32"/>
       <use xlink:href="#DejaVuSans-30" x="63.623047"/>
       <use xlink:href="#DejaVuSans-32" x="127.246094"/>
       <use xlink:href="#DejaVuSans-32" x="190.869141"/>
       <use xlink:href="#DejaVuSans-2d" x="254.492188"/>
       <use xlink:href="#DejaVuSans-30" x="290.576172"/>
       <use xlink:href="#DejaVuSans-33" x="354.199219"/>
       <use xlink:href="#DejaVuSans-2d" x="417.822266"/>
       <use xlink:href="#DejaVuSans-32" x="453.90625"/>
       <use xlink:href="#DejaVuSans-39" x="517.529297"/>
      </g>
     </g>
    </g>
    <g id="xtick_3">
     <g id="line2d_3">
      <g>
       <use xlink:href="#m5b45b90fd2" x="217.396792" y="395.28" style="stroke: #000000; stroke-width: 0.8"/>
      </g>
     </g>
     <g id="text_3">
      <!-- 2022-04-26 -->
      <g transform="translate(132.267765 495.213718) rotate(-45) scale(0.2 -0.2)">
       <defs>
        <path id="DejaVuSans-34" d="M 2419 4116 
L 825 1625 
L 2419 1625 
L 2419 4116 
z
M 2253 4666 
L 3047 4666 
L 3047 1625 
L 3713 1625 
L 3713 1100 
L 3047 1100 
L 3047 0 
L 2419 0 
L 2419 1100 
L 313 1100 
L 313 1709 
L 2253 4666 
z
" transform="scale(0.015625)"/>
        <path id="DejaVuSans-36" d="M 2113 2584 
Q 1688 2584 1439 2293 
Q 1191 2003 1191 1497 
Q 1191 994 1439 701 
Q 1688 409 2113 409 
Q 2538 409 2786 701 
Q 3034 994 3034 1497 
Q 3034 2003 2786 2293 
Q 2538 2584 2113 2584 
z
M 3366 4563 
L 3366 3988 
Q 3128 4100 2886 4159 
Q 2644 4219 2406 4219 
Q 1781 4219 1451 3797 
Q 1122 3375 1075 2522 
Q 1259 2794 1537 2939 
Q 1816 3084 2150 3084 
Q 2853 3084 3261 2657 
Q 3669 2231 3669 1497 
Q 3669 778 3244 343 
Q 2819 -91 2113 -91 
Q 1303 -91 875 529 
Q 447 1150 447 2328 
Q 447 3434 972 4092 
Q 1497 4750 2381 4750 
Q 2619 4750 2861 4703 
Q 3103 4656 3366 4563 
z
" transform="scale(0.015625)"/>
       </defs>
       <use xlink:href="#DejaVuSans-32"/>
       <use xlink:href="#DejaVuSans-30" x="63.623047"/>
       <use xlink:href="#DejaVuSans-32" x="127.246094"/>
       <use xlink:href="#DejaVuSans-32" x="190.869141"/>
       <use xlink:href="#DejaVuSans-2d" x="254.492188"/>
       <use xlink:href="#DejaVuSans-30" x="290.576172"/>
       <use xlink:href="#DejaVuSans-34" x="354.199219"/>
       <use xlink:href="#DejaVuSans-2d" x="417.822266"/>
       <use xlink:href="#DejaVuSans-32" x="453.90625"/>
       <use xlink:href="#DejaVuSans-36" x="517.529297"/>
      </g>
     </g>
    </g>
    <g id="xtick_4">
     <g id="line2d_4">
      <g>
       <use xlink:href="#m5b45b90fd2" x="274.557768" y="395.28" style="stroke: #000000; stroke-width: 0.8"/>
      </g>
     </g>
     <g id="text_4">
      <!-- 2022-05-24 -->
      <g transform="translate(189.42874 495.213718) rotate(-45) scale(0.2 -0.2)">
       <defs>
        <path id="DejaVuSans-35" d="M 691 4666 
L 3169 4666 
L 3169 4134 
L 1269 4134 
L 1269 2991 
Q 1406 3038 1543 3061 
Q 1681 3084 1819 3084 
Q 2600 3084 3056 2656 
Q 3513 2228 3513 1497 
Q 3513 744 3044 326 
Q 2575 -91 1722 -91 
Q 1428 -91 1123 -41 
Q 819 9 494 109 
L 494 744 
Q 775 591 1075 516 
Q 1375 441 1709 441 
Q 2250 441 2565 725 
Q 2881 1009 2881 1497 
Q 2881 1984 2565 2268 
Q 2250 2553 1709 2553 
Q 1456 2553 1204 2497 
Q 953 2441 691 2322 
L 691 4666 
z
" transform="scale(0.015625)"/>
       </defs>
       <use xlink:href="#DejaVuSans-32"/>
       <use xlink:href="#DejaVuSans-30" x="63.623047"/>
       <use xlink:href="#DejaVuSans-32" x="127.246094"/>
       <use xlink:href="#DejaVuSans-32" x="190.869141"/>
       <use xlink:href="#DejaVuSans-2d" x="254.492188"/>
       <use xlink:href="#DejaVuSans-30" x="290.576172"/>
       <use xlink:href="#DejaVuSans-35" x="354.199219"/>
       <use xlink:href="#DejaVuSans-2d" x="417.822266"/>
       <use xlink:href="#DejaVuSans-32" x="453.90625"/>
       <use xlink:href="#DejaVuSans-34" x="517.529297"/>
      </g>
     </g>
    </g>
    <g id="xtick_5">
     <g id="line2d_5">
      <g>
       <use xlink:href="#m5b45b90fd2" x="331.718743" y="395.28" style="stroke: #000000; stroke-width: 0.8"/>
      </g>
     </g>
     <g id="text_5">
      <!-- 2022-06-21 -->
      <g transform="translate(246.589716 495.213718) rotate(-45) scale(0.2 -0.2)">
       <use xlink:href="#DejaVuSans-32"/>
       <use xlink:href="#DejaVuSans-30" x="63.623047"/>
       <use xlink:href="#DejaVuSans-32" x="127.246094"/>
       <use xlink:href="#DejaVuSans-32" x="190.869141"/>
       <use xlink:href="#DejaVuSans-2d" x="254.492188"/>
       <use xlink:href="#DejaVuSans-30" x="290.576172"/>
       <use xlink:href="#DejaVuSans-36" x="354.199219"/>
       <use xlink:href="#DejaVuSans-2d" x="417.822266"/>
       <use xlink:href="#DejaVuSans-32" x="453.90625"/>
       <use xlink:href="#DejaVuSans-31" x="517.529297"/>
      </g>
     </g>
    </g>
    <g id="xtick_6">
     <g id="line2d_6">
      <g>
       <use xlink:href="#m5b45b90fd2" x="388.879719" y="395.28" style="stroke: #000000; stroke-width: 0.8"/>
      </g>
     </g>
     <g id="text_6">
      <!-- 2022-07-19 -->
      <g transform="translate(303.750691 495.213718) rotate(-45) scale(0.2 -0.2)">
       <defs>
        <path id="DejaVuSans-37" d="M 525 4666 
L 3525 4666 
L 3525 4397 
L 1831 0 
L 1172 0 
L 2766 4134 
L 525 4134 
L 525 4666 
z
" transform="scale(0.015625)"/>
       </defs>
       <use xlink:href="#DejaVuSans-32"/>
       <use xlink:href="#DejaVuSans-30" x="63.623047"/>
       <use xlink:href="#DejaVuSans-32" x="127.246094"/>
       <use xlink:href="#DejaVuSans-32" x="190.869141"/>
       <use xlink:href="#DejaVuSans-2d" x="254.492188"/>
       <use xlink:href="#DejaVuSans-30" x="290.576172"/>
       <use xlink:href="#DejaVuSans-37" x="354.199219"/>
       <use xlink:href="#DejaVuSans-2d" x="417.822266"/>
       <use xlink:href="#DejaVuSans-31" x="453.90625"/>
       <use xlink:href="#DejaVuSans-39" x="517.529297"/>
      </g>
     </g>
    </g>
    <g id="xtick_7">
     <g id="line2d_7">
      <g>
       <use xlink:href="#m5b45b90fd2" x="446.040694" y="395.28" style="stroke: #000000; stroke-width: 0.8"/>
      </g>
     </g>
     <g id="text_7">
      <!-- 2022-08-16 -->
      <g transform="translate(360.911667 495.213718) rotate(-45) scale(0.2 -0.2)">
       <defs>
        <path id="DejaVuSans-38" d="M 2034 2216 
Q 1584 2216 1326 1975 
Q 1069 1734 1069 1313 
Q 1069 891 1326 650 
Q 1584 409 2034 409 
Q 2484 409 2743 651 
Q 3003 894 3003 1313 
Q 3003 1734 2745 1975 
Q 2488 2216 2034 2216 
z
M 1403 2484 
Q 997 2584 770 2862 
Q 544 3141 544 3541 
Q 544 4100 942 4425 
Q 1341 4750 2034 4750 
Q 2731 4750 3128 4425 
Q 3525 4100 3525 3541 
Q 3525 3141 3298 2862 
Q 3072 2584 2669 2484 
Q 3125 2378 3379 2068 
Q 3634 1759 3634 1313 
Q 3634 634 3220 271 
Q 2806 -91 2034 -91 
Q 1263 -91 848 271 
Q 434 634 434 1313 
Q 434 1759 690 2068 
Q 947 2378 1403 2484 
z
M 1172 3481 
Q 1172 3119 1398 2916 
Q 1625 2713 2034 2713 
Q 2441 2713 2670 2916 
Q 2900 3119 2900 3481 
Q 2900 3844 2670 4047 
Q 2441 4250 2034 4250 
Q 1625 4250 1398 4047 
Q 1172 3844 1172 3481 
z
" transform="scale(0.015625)"/>
       </defs>
       <use xlink:href="#DejaVuSans-32"/>
       <use xlink:href="#DejaVuSans-30" x="63.623047"/>
       <use xlink:href="#DejaVuSans-32" x="127.246094"/>
       <use xlink:href="#DejaVuSans-32" x="190.869141"/>
       <use xlink:href="#DejaVuSans-2d" x="254.492188"/>
       <use xlink:href="#DejaVuSans-30" x="290.576172"/>
       <use xlink:href="#DejaVuSans-38" x="354.199219"/>
       <use xlink:href="#DejaVuSans-2d" x="417.822266"/>
       <use xlink:href="#DejaVuSans-31" x="453.90625"/>
       <use xlink:href="#DejaVuSans-36" x="517.529297"/>
      </g>
     </g>
    </g>
    <g id="xtick_8">
     <g id="line2d_8">
      <g>
       <use xlink:href="#m5b45b90fd2" x="503.20167" y="395.28" style="stroke: #000000; stroke-width: 0.8"/>
      </g>
     </g>
     <g id="text_8">
      <!-- 2022-09-13 -->
      <g transform="translate(418.072643 495.213718) rotate(-45) scale(0.2 -0.2)">
       <use xlink:href="#DejaVuSans-32"/>
       <use xlink:href="#DejaVuSans-30" x="63.623047"/>
       <use xlink:href="#DejaVuSans-32" x="127.246094"/>
       <use xlink:href="#DejaVuSans-32" x="190.869141"/>
       <use xlink:href="#DejaVuSans-2d" x="254.492188"/>
       <use xlink:href="#DejaVuSans-30" x="290.576172"/>
       <use xlink:href="#DejaVuSans-39" x="354.199219"/>
       <use xlink:href="#DejaVuSans-2d" x="417.822266"/>
       <use xlink:href="#DejaVuSans-31" x="453.90625"/>
       <use xlink:href="#DejaVuSans-33" x="517.529297"/>
      </g>
     </g>
    </g>
    <g id="xtick_9">
     <g id="line2d_9">
      <g>
       <use xlink:href="#m5b45b90fd2" x="560.362646" y="395.28" style="stroke: #000000; stroke-width: 0.8"/>
      </g>
     </g>
     <g id="text_9">
      <!-- 2022-10-11 -->
      <g transform="translate(475.233618 495.213718) rotate(-45) scale(0.2 -0.2)">
       <use xlink:href="#DejaVuSans-32"/>
       <use xlink:href="#DejaVuSans-30" x="63.623047"/>
       <use xlink:href="#DejaVuSans-32" x="127.246094"/>
       <use xlink:href="#DejaVuSans-32" x="190.869141"/>
       <use xlink:href="#DejaVuSans-2d" x="254.492188"/>
       <use xlink:href="#DejaVuSans-31" x="290.576172"/>
       <use xlink:href="#DejaVuSans-30" x="354.199219"/>
       <use xlink:href="#DejaVuSans-2d" x="417.822266"/>
       <use xlink:href="#DejaVuSans-31" x="453.90625"/>
       <use xlink:href="#DejaVuSans-31" x="517.529297"/>
      </g>
     </g>
    </g>
    <g id="xtick_10">
     <g id="line2d_10">
      <g>
       <use xlink:href="#m5b45b90fd2" x="617.523621" y="395.28" style="stroke: #000000; stroke-width: 0.8"/>
      </g>
     </g>
     <g id="text_10">
      <!-- 2022-11-08 -->
      <g transform="translate(532.394594 495.213718) rotate(-45) scale(0.2 -0.2)">
       <use xlink:href="#DejaVuSans-32"/>
       <use xlink:href="#DejaVuSans-30" x="63.623047"/>
       <use xlink:href="#DejaVuSans-32" x="127.246094"/>
       <use xlink:href="#DejaVuSans-32" x="190.869141"/>
       <use xlink:href="#DejaVuSans-2d" x="254.492188"/>
       <use xlink:href="#DejaVuSans-31" x="290.576172"/>
       <use xlink:href="#DejaVuSans-31" x="354.199219"/>
       <use xlink:href="#DejaVuSans-2d" x="417.822266"/>
       <use xlink:href="#DejaVuSans-30" x="453.90625"/>
       <use xlink:href="#DejaVuSans-38" x="517.529297"/>
      </g>
     </g>
    </g>
    <g id="xtick_11">
     <g id="line2d_11">
      <g>
       <use xlink:href="#m5b45b90fd2" x="674.684597" y="395.28" style="stroke: #000000; stroke-width: 0.8"/>
      </g>
     </g>
     <g id="text_11">
      <!-- 2022-12-06 -->
      <g transform="translate(589.555569 495.213718) rotate(-45) scale(0.2 -0.2)">
       <use xlink:href="#DejaVuSans-32"/>
       <use xlink:href="#DejaVuSans-30" x="63.623047"/>
       <use xlink:href="#DejaVuSans-32" x="127.246094"/>
       <use xlink:href="#DejaVuSans-32" x="190.869141"/>
       <use xlink:href="#DejaVuSans-2d" x="254.492188"/>
       <use xlink:href="#DejaVuSans-31" x="290.576172"/>
       <use xlink:href="#DejaVuSans-32" x="354.199219"/>
       <use xlink:href="#DejaVuSans-2d" x="417.822266"/>
       <use xlink:href="#DejaVuSans-30" x="453.90625"/>
       <use xlink:href="#DejaVuSans-36" x="517.529297"/>
      </g>
     </g>
    </g>
    <g id="xtick_12">
     <g id="line2d_12">
      <g>
       <use xlink:href="#m5b45b90fd2" x="731.845572" y="395.28" style="stroke: #000000; stroke-width: 0.8"/>
      </g>
     </g>
     <g id="text_12">
      <!-- 2023-01-03 -->
      <g transform="translate(646.716545 495.213718) rotate(-45) scale(0.2 -0.2)">
       <use xlink:href="#DejaVuSans-32"/>
       <use xlink:href="#DejaVuSans-30" x="63.623047"/>
       <use xlink:href="#DejaVuSans-32" x="127.246094"/>
       <use xlink:href="#DejaVuSans-33" x="190.869141"/>
       <use xlink:href="#DejaVuSans-2d" x="254.492188"/>
       <use xlink:href="#DejaVuSans-30" x="290.576172"/>
       <use xlink:href="#DejaVuSans-31" x="354.199219"/>
       <use xlink:href="#DejaVuSans-2d" x="417.822266"/>
       <use xlink:href="#DejaVuSans-30" x="453.90625"/>
       <use xlink:href="#DejaVuSans-33" x="517.529297"/>
      </g>
     </g>
    </g>
    <g id="xtick_13">
     <g id="line2d_13">
      <g>
       <use xlink:href="#m5b45b90fd2" x="789.006548" y="395.28" style="stroke: #000000; stroke-width: 0.8"/>
      </g>
     </g>
     <g id="text_13">
      <!-- 2023-01-31 -->
      <g transform="translate(703.877521 495.213718) rotate(-45) scale(0.2 -0.2)">
       <use xlink:href="#DejaVuSans-32"/>
       <use xlink:href="#DejaVuSans-30" x="63.623047"/>
       <use xlink:href="#DejaVuSans-32" x="127.246094"/>
       <use xlink:href="#DejaVuSans-33" x="190.869141"/>
       <use xlink:href="#DejaVuSans-2d" x="254.492188"/>
       <use xlink:href="#DejaVuSans-30" x="290.576172"/>
       <use xlink:href="#DejaVuSans-31" x="354.199219"/>
       <use xlink:href="#DejaVuSans-2d" x="417.822266"/>
       <use xlink:href="#DejaVuSans-33" x="453.90625"/>
       <use xlink:href="#DejaVuSans-31" x="517.529297"/>
      </g>
     </g>
    </g>
    <g id="xtick_14">
     <g id="line2d_14">
      <g>
       <use xlink:href="#m5b45b90fd2" x="846.167524" y="395.28" style="stroke: #000000; stroke-width: 0.8"/>
      </g>
     </g>
     <g id="text_14">
      <!-- 2023-02-28 -->
      <g transform="translate(761.038496 495.213718) rotate(-45) scale(0.2 -0.2)">
       <use xlink:href="#DejaVuSans-32"/>
       <use xlink:href="#DejaVuSans-30" x="63.623047"/>
       <use xlink:href="#DejaVuSans-32" x="127.246094"/>
       <use xlink:href="#DejaVuSans-33" x="190.869141"/>
       <use xlink:href="#DejaVuSans-2d" x="254.492188"/>
       <use xlink:href="#DejaVuSans-30" x="290.576172"/>
       <use xlink:href="#DejaVuSans-32" x="354.199219"/>
       <use xlink:href="#DejaVuSans-2d" x="417.822266"/>
       <use xlink:href="#DejaVuSans-32" x="453.90625"/>
       <use xlink:href="#DejaVuSans-38" x="517.529297"/>
      </g>
     </g>
    </g>
    <g id="xtick_15">
     <g id="line2d_15">
      <g>
       <use xlink:href="#m5b45b90fd2" x="903.328499" y="395.28" style="stroke: #000000; stroke-width: 0.8"/>
      </g>
     </g>
     <g id="text_15">
      <!-- 2023-03-28 -->
      <g transform="translate(818.199472 495.213718) rotate(-45) scale(0.2 -0.2)">
       <use xlink:href="#DejaVuSans-32"/>
       <use xlink:href="#DejaVuSans-30" x="63.623047"/>
       <use xlink:href="#DejaVuSans-32" x="127.246094"/>
       <use xlink:href="#DejaVuSans-33" x="190.869141"/>
       <use xlink:href="#DejaVuSans-2d" x="254.492188"/>
       <use xlink:href="#DejaVuSans-30" x="290.576172"/>
       <use xlink:href="#DejaVuSans-33" x="354.199219"/>
       <use xlink:href="#DejaVuSans-2d" x="417.822266"/>
       <use xlink:href="#DejaVuSans-32" x="453.90625"/>
       <use xlink:href="#DejaVuSans-38" x="517.529297"/>
      </g>
     </g>
    </g>
    <g id="xtick_16">
     <g id="line2d_16">
      <g>
       <use xlink:href="#m5b45b90fd2" x="940.074841" y="395.28" style="stroke: #000000; stroke-width: 0.8"/>
      </g>
     </g>
     <g id="text_16">
      <!-- 2023-04-15 -->
      <g transform="translate(854.945813 495.213718) rotate(-45) scale(0.2 -0.2)">
       <use xlink:href="#DejaVuSans-32"/>
       <use xlink:href="#DejaVuSans-30" x="63.623047"/>
       <use xlink:href="#DejaVuSans-32" x="127.246094"/>
       <use xlink:href="#DejaVuSans-33" x="190.869141"/>
       <use xlink:href="#DejaVuSans-2d" x="254.492188"/>
       <use xlink:href="#DejaVuSans-30" x="290.576172"/>
       <use xlink:href="#DejaVuSans-34" x="354.199219"/>
       <use xlink:href="#DejaVuSans-2d" x="417.822266"/>
       <use xlink:href="#DejaVuSans-31" x="453.90625"/>
       <use xlink:href="#DejaVuSans-35" x="517.529297"/>
      </g>
     </g>
    </g>
   </g>
   <g id="matplotlib.axis_2">
    <g id="ytick_1">
     <g id="line2d_17">
      <defs>
       <path id="m8efe87d4f2" d="M 0 0 
L -3.5 0 
" style="stroke: #000000; stroke-width: 0.8"/>
      </defs>
      <g>
       <use xlink:href="#m8efe87d4f2" x="103.074841" y="348.265273" style="stroke: #000000; stroke-width: 0.8"/>
      </g>
     </g>
     <g id="text_17">
      <!-- 0.10 -->
      <g transform="translate(34.784216 355.863711) scale(0.2 -0.2)">
       <defs>
        <path id="DejaVuSans-2212" d="M 678 2272 
L 4684 2272 
L 4684 1741 
L 678 1741 
L 678 2272 
z
" transform="scale(0.015625)"/>
        <path id="DejaVuSans-2e" d="M 684 794 
L 1344 794 
L 1344 0 
L 684 0 
L 684 794 
z
" transform="scale(0.015625)"/>
       </defs>
       <use xlink:href="#DejaVuSans-2212"/>
       <use xlink:href="#DejaVuSans-30" x="83.789062"/>
       <use xlink:href="#DejaVuSans-2e" x="147.412109"/>
       <use xlink:href="#DejaVuSans-31" x="179.199219"/>
       <use xlink:href="#DejaVuSans-30" x="242.822266"/>
      </g>
     </g>
    </g>
    <g id="ytick_2">
     <g id="line2d_18">
      <g>
       <use xlink:href="#m8efe87d4f2" x="103.074841" y="293.903032" style="stroke: #000000; stroke-width: 0.8"/>
      </g>
     </g>
     <g id="text_18">
      <!-- 0.05 -->
      <g transform="translate(34.784216 301.501469) scale(0.2 -0.2)">
       <use xlink:href="#DejaVuSans-2212"/>
       <use xlink:href="#DejaVuSans-30" x="83.789062"/>
       <use xlink:href="#DejaVuSans-2e" x="147.412109"/>
       <use xlink:href="#DejaVuSans-30" x="179.199219"/>
       <use xlink:href="#DejaVuSans-35" x="242.822266"/>
      </g>
     </g>
    </g>
    <g id="ytick_3">
     <g id="line2d_19">
      <g>
       <use xlink:href="#m8efe87d4f2" x="103.074841" y="239.54079" style="stroke: #000000; stroke-width: 0.8"/>
      </g>
     </g>
     <g id="text_19">
      <!-- 0.00 -->
      <g transform="translate(51.543591 247.139227) scale(0.2 -0.2)">
       <use xlink:href="#DejaVuSans-30"/>
       <use xlink:href="#DejaVuSans-2e" x="63.623047"/>
       <use xlink:href="#DejaVuSans-30" x="95.410156"/>
       <use xlink:href="#DejaVuSans-30" x="159.033203"/>
      </g>
     </g>
    </g>
    <g id="ytick_4">
     <g id="line2d_20">
      <g>
       <use xlink:href="#m8efe87d4f2" x="103.074841" y="185.178548" style="stroke: #000000; stroke-width: 0.8"/>
      </g>
     </g>
     <g id="text_20">
      <!-- 0.05 -->
      <g transform="translate(51.543591 192.776985) scale(0.2 -0.2)">
       <use xlink:href="#DejaVuSans-30"/>
       <use xlink:href="#DejaVuSans-2e" x="63.623047"/>
       <use xlink:href="#DejaVuSans-30" x="95.410156"/>
       <use xlink:href="#DejaVuSans-35" x="159.033203"/>
      </g>
     </g>
    </g>
    <g id="ytick_5">
     <g id="line2d_21">
      <g>
       <use xlink:href="#m8efe87d4f2" x="103.074841" y="130.816306" style="stroke: #000000; stroke-width: 0.8"/>
      </g>
     </g>
     <g id="text_21">
      <!-- 0.10 -->
      <g transform="translate(51.543591 138.414743) scale(0.2 -0.2)">
       <use xlink:href="#DejaVuSans-30"/>
       <use xlink:href="#DejaVuSans-2e" x="63.623047"/>
       <use xlink:href="#DejaVuSans-31" x="95.410156"/>
       <use xlink:href="#DejaVuSans-30" x="159.033203"/>
      </g>
     </g>
    </g>
    <g id="ytick_6">
     <g id="line2d_22">
      <g>
       <use xlink:href="#m8efe87d4f2" x="103.074841" y="76.454064" style="stroke: #000000; stroke-width: 0.8"/>
      </g>
     </g>
     <g id="text_22">
      <!-- 0.15 -->
      <g transform="translate(51.543591 84.052501) scale(0.2 -0.2)">
       <use xlink:href="#DejaVuSans-30"/>
       <use xlink:href="#DejaVuSans-2e" x="63.623047"/>
       <use xlink:href="#DejaVuSans-31" x="95.410156"/>
       <use xlink:href="#DejaVuSans-35" x="159.033203"/>
      </g>
     </g>
    </g>
    <g id="ytick_7">
     <g id="line2d_23">
      <g>
       <use xlink:href="#m8efe87d4f2" x="103.074841" y="22.091822" style="stroke: #000000; stroke-width: 0.8"/>
      </g>
     </g>
     <g id="text_23">
      <!-- 0.20 -->
      <g transform="translate(51.543591 29.690259) scale(0.2 -0.2)">
       <use xlink:href="#DejaVuSans-30"/>
       <use xlink:href="#DejaVuSans-2e" x="63.623047"/>
       <use xlink:href="#DejaVuSans-32" x="95.410156"/>
       <use xlink:href="#DejaVuSans-30" x="159.033203"/>
      </g>
     </g>
    </g>
   </g>
   <g id="line2d_24">
    <path d="M 648.145572 131.45828 
L 650.187036 232.266539 
L 652.228499 242.254034 
L 654.269963 242.254034 
L 656.311426 219.468779 
L 658.352889 230.92833 
L 660.394353 215.336876 
L 662.435816 201.168042 
L 664.47728 161.474536 
L 668.560207 161.474536 
L 670.60167 156.135245 
L 674.684597 156.135245 
L 676.72606 150.326853 
L 678.767524 131.043219 
L 680.808987 104.223829 
L 682.85045 141.668665 
L 684.891914 130.784817 
L 686.933377 159.950731 
L 688.974841 170.637269 
L 693.057768 216.579841 
L 695.099231 290.325175 
L 697.140694 290.325175 
L 699.182158 223.928845 
L 701.223621 225.086496 
L 703.265085 216.265688 
L 705.306548 177.418413 
L 707.348011 187.69931 
L 709.389475 187.69931 
L 711.430938 140.409367 
L 713.472402 113.812474 
L 715.513865 128.734301 
L 717.555328 117.177986 
L 719.596792 111.156385 
L 721.638255 98.093919 
L 723.679719 89.177217 
L 725.721182 55.125389 
L 727.762646 43.486973 
L 729.804109 114.795322 
L 731.845572 121.685797 
L 733.887036 132.8592 
L 735.928499 179.625596 
L 737.969963 175.153091 
L 740.011426 175.153091 
L 742.052889 243.44115 
L 744.094353 261.135698 
L 746.135816 238.639944 
L 748.17728 249.519254 
L 750.218743 253.219057 
L 752.260207 266.829709 
L 754.30167 247.93113 
L 756.343133 247.93113 
L 758.384597 274.631787 
L 760.42606 260.654021 
L 762.467524 247.652034 
L 764.508987 245.299439 
L 766.55045 214.255195 
L 768.591914 214.255195 
L 770.633377 209.953777 
L 772.674841 187.100995 
L 774.716304 183.226317 
L 776.757768 207.448874 
L 778.799231 198.585323 
L 780.840694 186.922706 
L 782.882158 179.108939 
L 784.923621 205.191953 
L 786.965085 193.893175 
L 789.006548 173.20222 
L 791.048011 188.697896 
L 793.089475 201.266386 
L 795.130938 201.266386 
L 797.172402 242.552457 
L 799.213865 236.64408 
L 801.255328 245.426718 
L 803.296792 248.657702 
L 805.338255 253.260259 
L 807.379719 252.903075 
L 809.421182 260.190627 
L 811.462646 291.539138 
L 813.504109 291.539138 
L 815.545572 282.220603 
L 817.587036 291.394248 
L 819.628499 299.051974 
L 821.669963 286.749262 
L 823.711426 291.538211 
L 825.752889 291.538211 
L 827.794353 267.769767 
L 829.835816 276.722229 
L 831.87728 272.241008 
L 833.918743 276.530239 
L 835.960207 278.491693 
L 838.00167 261.444274 
L 840.043133 237.347262 
L 842.084597 216.613074 
L 844.12606 216.613074 
L 846.167524 224.294594 
L 848.208987 248.155083 
L 850.25045 259.901899 
L 852.291914 274.755738 
L 854.333377 267.69145 
L 856.374841 258.293431 
L 858.416304 272.354791 
L 860.457768 281.004189 
L 862.499231 281.004189 
L 864.540694 275.338642 
L 866.582158 268.7206 
L 868.623621 300.838972 
L 870.665085 377.64 
L 874.748011 377.64 
L 876.789475 372.09258 
L 878.830938 350.357224 
L 880.872402 336.581397 
L 882.913865 327.600341 
L 884.955328 327.600341 
L 884.955328 327.600341 
" clip-path="url(#pa424637eb3)" style="fill: none; stroke: #ffa500; stroke-width: 1.5; stroke-linecap: square"/>
   </g>
   <g id="line2d_25">
    <path d="M 103.074841 239.54079 
L 948.274841 239.54079 
" clip-path="url(#pa424637eb3)" style="fill: none; stroke-dasharray: 7.4,3.2; stroke-dashoffset: 0; stroke: #000000; stroke-width: 2"/>
   </g>
   <g id="patch_3">
    <path d="M 103.074841 395.28 
L 103.074841 7.2 
" style="fill: none; stroke: #000000; stroke-width: 0.8; stroke-linejoin: miter; stroke-linecap: square"/>
   </g>
   <g id="patch_4">
    <path d="M 940.074841 395.28 
L 940.074841 7.2 
" style="fill: none; stroke: #000000; stroke-width: 0.8; stroke-linejoin: miter; stroke-linecap: square"/>
   </g>
   <g id="patch_5">
    <path d="M 103.074841 395.28 
L 940.074841 395.28 
" style="fill: none; stroke: #000000; stroke-width: 0.8; stroke-linejoin: miter; stroke-linecap: square"/>
   </g>
   <g id="patch_6">
    <path d="M 103.074841 7.2 
L 940.074841 7.2 
" style="fill: none; stroke: #000000; stroke-width: 0.8; stroke-linejoin: miter; stroke-linecap: square"/>
   </g>
  </g>
 </g>
 <defs>
  <clipPath id="pa424637eb3">
   <rect x="103.074841" y="7.2" width="837" height="388.08"/>
  </clipPath>
 </defs>
</svg>
