<?xml version="1.0" encoding="utf-8" standalone="no"?>
<!DOCTYPE svg PUBLIC "-//W3C//DTD SVG 1.1//EN"
  "http://www.w3.org/Graphics/SVG/1.1/DTD/svg11.dtd">
<svg xmlns:xlink="http://www.w3.org/1999/xlink" width="947.274841pt" height="505.354841pt" viewBox="0 0 947.274841 505.354841" xmlns="http://www.w3.org/2000/svg" version="1.1">
 <metadata>
  <rdf:RDF xmlns:dc="http://purl.org/dc/elements/1.1/" xmlns:cc="http://creativecommons.org/ns#" xmlns:rdf="http://www.w3.org/1999/02/22-rdf-syntax-ns#">
   <cc:Work>
    <dc:type rdf:resource="http://purl.org/dc/dcmitype/StillImage"/>
    <dc:date>2023-11-12T22:44:10.023262</dc:date>
    <dc:format>image/svg+xml</dc:format>
    <dc:creator>
     <cc:Agent>
      <dc:title>Matplotlib v3.7.2, https://matplotlib.org/</dc:title>
     </cc:Agent>
    </dc:creator>
   </cc:Work>
  </rdf:RDF>
 </metadata>
 <defs>
  <style type="text/css">*{stroke-linejoin: round; stroke-linecap: butt}</style>
 </defs>
 <g id="figure_1">
  <g id="patch_1">
   <path d="M 0 505.354841 
L 947.274841 505.354841 
L 947.274841 -0 
L 0 -0 
z
" style="fill: #ffffff"/>
  </g>
  <g id="axes_1">
   <g id="patch_2">
    <path d="M 103.074841 395.28 
L 940.074841 395.28 
L 940.074841 7.2 
L 103.074841 7.2 
z
" style="fill: #ffffff"/>
   </g>
   <g id="PolyCollection_1">
    <path d="M -4315.31939 305.22187 
L -4315.31939 305.224552 
L -4307.271313 305.211844 
L -4299.223236 305.200666 
L -4291.175159 305.186488 
L -4283.127082 305.176742 
L -4275.079005 305.164414 
L -4267.030929 305.150138 
L -4258.982852 305.136935 
L -4250.934775 305.124711 
L -4242.886698 305.113779 
L -4234.838621 305.101342 
L -4226.790544 305.088352 
L -4218.742467 305.075662 
L -4210.69439 305.060395 
L -4202.646313 305.047467 
L -4194.598236 305.032493 
L -4186.550159 305.019418 
L -4178.502082 305.002283 
L -4170.454005 304.987879 
L -4162.405929 304.973916 
L -4154.357852 304.957679 
L -4146.309775 304.941771 
L -4138.261698 304.92614 
L -4130.213621 304.9076 
L -4122.165544 304.891098 
L -4114.117467 304.872042 
L -4106.06939 304.85271 
L -4098.021313 304.831459 
L -4089.973236 304.809595 
L -4081.925159 304.788066 
L -4073.877082 304.763396 
L -4065.829005 304.735677 
L -4057.780929 304.71067 
L -4049.732852 304.68247 
L -4041.684775 304.650494 
L -4033.636698 304.620392 
L -4025.588621 304.585441 
L -4017.540544 304.549815 
L -4009.492467 304.513033 
L -4001.44439 304.474192 
L -3993.396313 304.431337 
L -3985.348236 304.385743 
L -3977.300159 304.337446 
L -3969.252082 304.290517 
L -3961.204005 304.235948 
L -3953.155929 304.183596 
L -3945.107852 304.127934 
L -3937.059775 304.071856 
L -3929.011698 304.011691 
L -3920.963621 303.946806 
L -3912.915544 303.886115 
L -3904.867467 303.819026 
L -3896.81939 303.749625 
L -3888.771313 303.68133 
L -3880.723236 303.613519 
L -3872.675159 303.540363 
L -3864.627082 303.466357 
L -3856.579005 303.392352 
L -3848.530929 303.315426 
L -3840.482852 303.237529 
L -3832.434775 303.159736 
L -3824.386698 303.079448 
L -3816.338621 302.998903 
L -3808.290544 302.919382 
L -3800.242467 302.836817 
L -3792.19439 302.748947 
L -3784.146313 302.663507 
L -3776.098236 302.578199 
L -3768.050159 302.494072 
L -3760.002082 302.406792 
L -3751.954005 302.321353 
L -3743.905929 302.234585 
L -3735.857852 302.155515 
L -3727.809775 302.063834 
L -3719.761698 301.983397 
L -3711.713621 301.896082 
L -3703.665544 301.813311 
L -3695.617467 301.727212 
L -3687.56939 301.649208 
L -3679.521313 301.560853 
L -3671.473236 301.4781 
L -3663.425159 301.400164 
L -3655.377082 301.316094 
L -3647.329005 301.236138 
L -3639.280929 301.153863 
L -3631.232852 301.070143 
L -3623.184775 300.989415 
L -3615.136698 300.910153 
L -3607.088621 300.826084 
L -3599.040544 300.745413 
L -3590.992467 300.663049 
L -3582.94439 300.581942 
L -3574.896313 300.502611 
L -3566.848236 300.42137 
L -3558.800159 300.339457 
L -3550.752082 300.264968 
L -3542.704005 300.181724 
L -3534.655929 300.101708 
L -3526.607852 300.022944 
L -3518.559775 299.94416 
L -3510.511698 299.865615 
L -3502.463621 299.78622 
L -3494.415544 299.710201 
L -3486.367467 299.631496 
L -3478.31939 299.551083 
L -3470.271313 299.469895 
L -3462.223236 299.38794 
L -3454.175159 299.310753 
L -3446.127082 299.226598 
L -3438.079005 299.13737 
L -3430.030929 299.053087 
L -3421.982852 298.964598 
L -3413.934775 298.874817 
L -3405.886698 298.780406 
L -3397.838621 298.684363 
L -3389.790544 298.59447 
L -3381.742467 298.492993 
L -3373.69439 298.39605 
L -3365.646313 298.292241 
L -3357.598236 298.196106 
L -3349.550159 298.084467 
L -3341.502082 297.974741 
L -3333.454005 297.867739 
L -3325.405929 297.758904 
L -3317.357852 297.646866 
L -3309.309775 297.530065 
L -3301.261698 297.419887 
L -3293.213621 297.294916 
L -3285.165544 297.183739 
L -3277.117467 297.055109 
L -3269.06939 296.930024 
L -3261.021313 296.807495 
L -3252.973236 296.689406 
L -3244.925159 296.553126 
L -3236.877082 296.428853 
L -3228.829005 296.273502 
L -3220.780929 296.138193 
L -3212.732852 296.011147 
L -3204.684775 295.868861 
L -3196.636698 295.722945 
L -3188.588621 295.556367 
L -3180.540544 295.399176 
L -3172.492467 295.26564 
L -3164.44439 295.061324 
L -3156.396313 294.894236 
L -3148.348236 294.723337 
L -3140.300159 294.546066 
L -3132.252082 294.345698 
L -3124.204005 294.155815 
L -3116.155929 294.007971 
L -3108.107852 293.823437 
L -3100.059775 293.54539 
L -3092.011698 293.323111 
L -3083.963621 293.185103 
L -3075.915544 292.949994 
L -3067.867467 292.778921 
L -3059.81939 292.620295 
L -3051.771313 292.399148 
L -3043.723236 292.097621 
L -3035.675159 291.913446 
L -3027.627082 291.810366 
L -3019.579005 291.586169 
L -3011.530929 291.501807 
L -3003.482852 291.354795 
L -2995.434775 291.088066 
L -2987.386698 291.091095 
L -2979.338621 291.176928 
L -2971.290544 291.377424 
L -2963.242467 291.119503 
L -2955.19439 291.586512 
L -2947.146313 291.679967 
L -2939.098236 291.018674 
L -2931.050159 291.189819 
L -2923.002082 291.465403 
L -2914.954005 291.285347 
L -2906.905929 291.240661 
L -2898.857852 292.463894 
L -2890.809775 294.208053 
L -2882.761698 295.073869 
L -2874.713621 293.167993 
L -2866.665544 294.141328 
L -2858.617467 295.41862 
L -2850.56939 295.342422 
L -2842.521313 297.946497 
L -2834.473236 297.591489 
L -2826.425159 296.795884 
L -2818.377082 294.823163 
L -2810.329005 296.680972 
L -2802.280929 297.799417 
L -2794.232852 297.335997 
L -2786.184775 297.630269 
L -2778.136698 298.68722 
L -2770.088621 298.551078 
L -2762.040544 297.647483 
L -2753.992467 298.792582 
L -2745.94439 299.023397 
L -2737.896313 298.620778 
L -2729.848236 299.34959 
L -2721.800159 299.61911 
L -2713.752082 299.552551 
L -2705.704005 299.337825 
L -2697.655929 299.5806 
L -2689.607852 299.342604 
L -2681.559775 299.36851 
L -2673.511698 299.599813 
L -2665.463621 299.391004 
L -2657.415544 299.506157 
L -2649.367467 299.516367 
L -2641.31939 299.348026 
L -2633.271313 299.415282 
L -2625.223236 299.170427 
L -2617.175159 299.190454 
L -2609.127082 299.262453 
L -2601.079005 299.269016 
L -2593.030929 299.150186 
L -2584.982852 299.048667 
L -2576.934775 299.023972 
L -2568.886698 298.910757 
L -2560.838621 298.893553 
L -2552.790544 298.872218 
L -2544.742467 298.698723 
L -2536.69439 298.77973 
L -2528.646313 298.663918 
L -2520.598236 298.612575 
L -2512.550159 298.61348 
L -2504.502082 298.498577 
L -2496.454005 298.467589 
L -2488.405929 298.501828 
L -2480.357852 298.559304 
L -2472.309775 298.371109 
L -2464.261698 298.334527 
L -2456.213621 298.268557 
L -2448.165544 298.57895 
L -2440.117467 298.578819 
L -2432.06939 298.692708 
L -2424.021313 298.381086 
L -2415.973236 298.185777 
L -2407.925159 298.235916 
L -2399.877082 298.435226 
L -2391.829005 298.459374 
L -2383.780929 298.081361 
L -2375.732852 298.379715 
L -2367.684775 298.289436 
L -2359.636698 298.225082 
L -2351.588621 298.041856 
L -2343.540544 298.165203 
L -2335.492467 298.06751 
L -2327.44439 298.128569 
L -2319.396313 298.000859 
L -2311.348236 297.895426 
L -2303.300159 297.719572 
L -2295.252082 297.624798 
L -2287.204005 297.535916 
L -2279.155929 297.420762 
L -2271.107852 297.377977 
L -2263.059775 297.26798 
L -2255.011698 297.15062 
L -2246.963621 296.87953 
L -2238.915544 296.66739 
L -2230.867467 296.557799 
L -2222.81939 296.327408 
L -2214.771313 296.260265 
L -2206.723236 296.053363 
L -2198.675159 295.76131 
L -2190.627082 295.512961 
L -2182.579005 295.31777 
L -2174.530929 295.015554 
L -2166.482852 294.818609 
L -2158.434775 294.545216 
L -2150.386698 294.299858 
L -2142.338621 293.998474 
L -2134.290544 293.744855 
L -2126.242467 293.410188 
L -2118.19439 293.140136 
L -2110.146313 292.84874 
L -2102.098236 292.471105 
L -2094.050159 292.11693 
L -2086.002082 291.850879 
L -2077.954005 291.535514 
L -2069.905929 291.155884 
L -2061.857852 290.849912 
L -2053.809775 290.495988 
L -2045.761698 290.006719 
L -2037.713621 289.776773 
L -2029.665544 289.356008 
L -2021.617467 289.019443 
L -2013.56939 288.640322 
L -2005.521313 288.231965 
L -1997.473236 287.810728 
L -1989.425159 287.436005 
L -1981.377082 286.949346 
L -1973.329005 286.635046 
L -1965.280929 286.158258 
L -1957.232852 285.838154 
L -1949.184775 285.35001 
L -1941.136698 284.877458 
L -1933.088621 284.437914 
L -1925.040544 284.080549 
L -1916.992467 283.528784 
L -1908.94439 283.153469 
L -1900.896313 282.670363 
L -1892.848236 282.269949 
L -1884.800159 281.76231 
L -1876.752082 281.312622 
L -1868.704005 281.215938 
L -1860.655929 280.375375 
L -1852.607852 280.203524 
L -1844.559775 279.669094 
L -1836.511698 279.291921 
L -1828.463621 278.872091 
L -1820.415544 278.426518 
L -1812.367467 278.020114 
L -1804.31939 277.62646 
L -1796.271313 277.253694 
L -1788.223236 276.879333 
L -1780.175159 277.091 
L -1772.127082 276.070532 
L -1764.079005 275.784301 
L -1756.030929 276.542333 
L -1747.982852 275.320928 
L -1739.934775 275.475491 
L -1731.886698 275.304339 
L -1723.838621 274.650224 
L -1715.790544 274.715429 
L -1707.742467 275.273514 
L -1699.69439 274.797909 
L -1691.646313 274.560803 
L -1683.598236 274.898629 
L -1675.550159 274.726535 
L -1667.502082 274.950544 
L -1659.454005 275.266687 
L -1651.405929 275.829753 
L -1643.357852 277.174945 
L -1635.309775 276.833979 
L -1627.261698 277.55311 
L -1619.213621 278.145517 
L -1611.165544 278.454007 
L -1603.117467 279.474986 
L -1595.06939 280.178652 
L -1587.021313 279.036203 
L -1578.973236 280.290798 
L -1570.925159 281.840069 
L -1562.877082 282.594173 
L -1554.829005 282.946584 
L -1546.780929 284.994527 
L -1538.732852 285.1721 
L -1530.684775 285.740148 
L -1522.636698 285.604601 
L -1514.588621 287.334429 
L -1506.540544 286.815299 
L -1498.492467 286.525903 
L -1490.44439 288.00435 
L -1482.396313 289.057528 
L -1474.348236 288.977876 
L -1466.300159 289.607076 
L -1458.252082 289.818567 
L -1450.204005 289.866114 
L -1442.155929 289.875362 
L -1434.107852 290.227179 
L -1426.059775 290.429474 
L -1418.011698 291.503251 
L -1409.963621 290.965189 
L -1401.915544 291.900093 
L -1393.867467 291.697922 
L -1385.81939 291.578983 
L -1377.771313 291.960215 
L -1369.723236 292.300143 
L -1361.675159 291.881205 
L -1353.627082 292.093841 
L -1345.579005 292.110688 
L -1337.530929 292.616525 
L -1329.482852 292.368716 
L -1321.434775 292.252798 
L -1313.386698 292.396162 
L -1305.338621 292.635604 
L -1297.290544 292.512322 
L -1289.242467 292.265994 
L -1281.19439 292.393995 
L -1273.146313 292.019931 
L -1265.098236 292.048412 
L -1257.050159 292.637389 
L -1249.002082 292.587886 
L -1240.954005 292.23258 
L -1232.905929 292.131234 
L -1224.857852 292.151257 
L -1216.809775 291.764632 
L -1208.761698 291.831089 
L -1200.713621 291.806339 
L -1192.665544 291.704404 
L -1184.617467 291.580582 
L -1176.56939 291.328753 
L -1168.521313 291.436222 
L -1160.473236 291.257658 
L -1152.425159 291.197579 
L -1144.377082 291.089987 
L -1136.329005 291.073175 
L -1128.280929 290.873629 
L -1120.232852 290.533905 
L -1112.184775 290.494742 
L -1104.136698 290.214733 
L -1096.088621 289.822418 
L -1088.040544 290.070008 
L -1079.992467 289.545525 
L -1071.94439 289.734697 
L -1063.896313 289.619025 
L -1055.848236 289.635472 
L -1047.800159 289.294262 
L -1039.752082 289.253645 
L -1031.704005 289.190638 
L -1023.655929 288.773262 
L -1015.607852 288.858699 
L -1007.559775 288.808962 
L -999.511698 288.779022 
L -991.463621 288.574627 
L -983.415544 288.651577 
L -975.367467 288.442837 
L -967.31939 288.243928 
L -959.271313 287.937085 
L -951.223236 287.832333 
L -943.175159 287.760202 
L -935.127082 287.544773 
L -927.079005 287.566974 
L -919.030929 287.458046 
L -910.982852 287.266888 
L -902.934775 287.266903 
L -894.886698 287.051861 
L -886.838621 287.218876 
L -878.790544 287.068003 
L -870.742467 287.069581 
L -862.69439 286.80565 
L -854.646313 286.447485 
L -846.598236 286.743542 
L -838.550159 286.729599 
L -830.502082 286.610911 
L -822.454005 286.488325 
L -814.405929 286.239093 
L -806.357852 286.180722 
L -798.309775 286.043085 
L -790.261698 286.06142 
L -782.213621 286.008624 
L -774.165544 285.772486 
L -766.117467 285.438233 
L -758.06939 285.868875 
L -750.021313 285.764662 
L -741.973236 285.481192 
L -733.925159 285.659706 
L -725.877082 285.153664 
L -717.829005 285.214527 
L -709.780929 285.245977 
L -701.732852 284.902805 
L -693.684775 285.484989 
L -685.636698 284.899958 
L -677.588621 284.602496 
L -669.540544 284.983138 
L -661.492467 285.086146 
L -653.44439 284.900035 
L -645.396313 285.048479 
L -637.348236 284.780693 
L -629.300159 285.303506 
L -621.252082 285.039202 
L -613.204005 285.148032 
L -605.155929 284.793449 
L -597.107852 284.476136 
L -589.059775 284.884259 
L -581.011698 285.614792 
L -572.963621 284.787043 
L -564.915544 284.835479 
L -556.867467 284.527482 
L -548.81939 284.676024 
L -540.771313 284.636891 
L -532.723236 284.44741 
L -524.675159 284.378021 
L -516.627082 284.734897 
L -508.579005 284.552526 
L -500.530929 284.879017 
L -492.482852 284.942462 
L -484.434775 284.003647 
L -476.386698 284.395425 
L -468.338621 284.431576 
L -460.290544 284.500885 
L -452.242467 284.562874 
L -444.19439 285.170059 
L -436.146313 285.415162 
L -428.098236 285.391999 
L -420.050159 286.060531 
L -412.002082 287.16528 
L -403.954005 285.858805 
L -395.905929 285.847674 
L -387.857852 285.879134 
L -379.809775 286.318713 
L -371.761698 286.422139 
L -363.713621 286.422591 
L -355.665544 287.373936 
L -347.617467 287.726821 
L -339.56939 286.652708 
L -331.521313 287.630575 
L -323.473236 287.152971 
L -315.425159 286.856975 
L -307.377082 288.045855 
L -299.329005 287.813567 
L -291.280929 288.583516 
L -283.232852 288.35483 
L -275.184775 287.842582 
L -267.136698 288.328064 
L -259.088621 288.334752 
L -251.040544 288.812692 
L -242.992467 288.52298 
L -234.94439 289.30722 
L -226.896313 288.756575 
L -218.848236 289.174648 
L -210.800159 289.099159 
L -202.752082 289.558577 
L -194.704005 288.837663 
L -186.655929 289.624798 
L -178.607852 289.588789 
L -170.559775 290.129297 
L -162.511698 290.418333 
L -154.463621 290.42812 
L -146.415544 290.299889 
L -138.367467 290.650713 
L -130.31939 290.913838 
L -122.271313 290.692491 
L -114.223236 290.614414 
L -106.175159 290.922927 
L -98.127082 291.203751 
L -90.079005 290.737453 
L -82.030929 290.470293 
L -73.982852 291.558721 
L -65.934775 292.055417 
L -57.886698 290.953884 
L -49.838621 291.285767 
L -41.790544 291.454327 
L -33.742467 291.538601 
L -25.69439 292.099265 
L -17.646313 292.031334 
L -9.598236 291.808363 
L -1.550159 292.053029 
L 6.497918 292.121739 
L 14.545995 291.528008 
L 22.594071 291.832687 
L 30.642148 291.648721 
L 38.690225 292.476955 
L 46.738302 293.497019 
L 54.786379 293.354252 
L 62.834456 292.55052 
L 70.882533 292.465828 
L 78.93061 292.579421 
L 86.978687 292.620408 
L 95.026764 293.376474 
L 103.074841 292.423079 
L 111.122918 293.436559 
L 119.170995 294.253062 
L 127.219071 293.579253 
L 135.267148 294.627841 
L 143.315225 293.979402 
L 151.363302 294.551734 
L 159.411379 294.182402 
L 167.459456 294.467691 
L 175.507533 295.03556 
L 183.55561 295.004657 
L 191.603687 295.182949 
L 199.651764 295.235935 
L 207.699841 295.307326 
L 215.747918 293.956611 
L 223.795995 295.72792 
L 231.844071 296.465333 
L 239.892148 295.777643 
L 247.940225 296.43149 
L 255.988302 296.593454 
L 264.036379 296.246535 
L 272.084456 296.985776 
L 280.132533 297.498035 
L 288.18061 297.234627 
L 296.228687 297.447309 
L 304.276764 297.578461 
L 312.324841 297.776783 
L 320.372918 298.352264 
L 328.420995 297.267373 
L 336.469071 298.689747 
L 344.517148 298.766047 
L 352.565225 298.862239 
L 360.613302 298.035859 
L 368.661379 299.123314 
L 376.709456 299.865709 
L 384.757533 299.204466 
L 392.80561 299.331604 
L 400.853687 300.358418 
L 408.901764 298.699683 
L 416.949841 300.339295 
L 424.997918 299.393998 
L 433.045995 300.845686 
L 441.094071 300.259624 
L 449.142148 300.924209 
L 457.190225 301.172773 
L 465.238302 301.499383 
L 473.286379 301.644507 
L 481.334456 301.338299 
L 489.382533 301.42296 
L 497.43061 301.684353 
L 505.478687 302.384624 
L 513.526764 302.377469 
L 521.574841 302.438509 
L 529.622918 302.904072 
L 537.670995 303.00374 
L 545.719071 302.759156 
L 553.767148 302.863461 
L 561.815225 303.528702 
L 569.863302 303.685604 
L 577.911379 303.901382 
L 585.959456 303.510512 
L 594.007533 302.865033 
L 602.05561 303.705163 
L 610.103687 303.533404 
L 618.151764 303.806383 
L 626.199841 304.197084 
L 634.247918 303.829673 
L 642.295995 304.431517 
L 650.344071 304.090278 
L 658.392148 304.086981 
L 666.440225 304.100954 
L 674.488302 304.625014 
L 682.536379 304.548105 
L 690.584456 304.552254 
L 698.632533 304.246684 
L 706.68061 304.474012 
L 714.728687 304.592121 
L 722.776764 304.535685 
L 730.824841 304.886976 
L 738.872918 304.840443 
L 746.920995 305.043765 
L 754.969071 305.271429 
L 763.017148 305.278003 
L 771.065225 305.101323 
L 779.113302 305.163068 
L 787.161379 305.058402 
L 795.209456 305.220802 
L 803.257533 305.26255 
L 811.30561 305.040889 
L 819.353687 305.285144 
L 827.401764 304.172814 
L 835.449841 305.246805 
L 843.497918 305.648743 
L 851.545995 305.185333 
L 859.594071 305.160413 
L 867.642148 305.796468 
L 875.690225 305.523733 
L 883.738302 305.114991 
L 891.786379 305.063416 
L 899.834456 305.287526 
L 907.882533 305.163995 
L 915.93061 305.61114 
L 923.978687 305.403914 
L 932.026764 305.741149 
L 940.074841 305.850027 
L 940.074841 305.278375 
L 940.074841 305.278375 
L 932.026764 305.457362 
L 923.978687 304.978447 
L 915.93061 305.525784 
L 907.882533 304.527751 
L 899.834456 304.833073 
L 891.786379 304.697026 
L 883.738302 303.61336 
L 875.690225 305.029863 
L 867.642148 305.541562 
L 859.594071 303.728431 
L 851.545995 304.63106 
L 843.497918 305.462896 
L 835.449841 304.921604 
L 827.401764 298.11786 
L 819.353687 304.70338 
L 811.30561 303.467894 
L 803.257533 304.776331 
L 795.209456 304.658794 
L 787.161379 304.133197 
L 779.113302 304.167294 
L 771.065225 304.024314 
L 763.017148 304.768129 
L 754.969071 304.779409 
L 746.920995 303.774766 
L 738.872918 303.107615 
L 730.824841 303.657063 
L 722.776764 302.692549 
L 714.728687 303.048896 
L 706.68061 302.480762 
L 698.632533 301.758944 
L 690.584456 302.73233 
L 682.536379 302.826504 
L 674.488302 302.819786 
L 666.440225 301.670218 
L 658.392148 301.417162 
L 650.344071 301.352339 
L 642.295995 302.666292 
L 634.247918 300.813816 
L 626.199841 302.033749 
L 618.151764 300.944191 
L 610.103687 300.111056 
L 602.05561 300.750765 
L 594.007533 297.791876 
L 585.959456 300.381818 
L 577.911379 301.420422 
L 569.863302 300.849643 
L 561.815225 300.55939 
L 553.767148 298.170301 
L 545.719071 298.215743 
L 537.670995 299.020069 
L 529.622918 298.920829 
L 521.574841 297.573651 
L 513.526764 297.600244 
L 505.478687 297.450156 
L 497.43061 296.142635 
L 489.382533 295.00529 
L 481.334456 294.726039 
L 473.286379 295.667257 
L 465.238302 295.358217 
L 457.190225 294.76442 
L 449.142148 294.157184 
L 441.094071 292.231816 
L 433.045995 294.096703 
L 424.997918 289.174598 
L 416.949841 292.471252 
L 408.901764 287.790803 
L 400.853687 292.830541 
L 392.80561 290.018952 
L 384.757533 289.948611 
L 376.709456 291.368791 
L 368.661379 289.656065 
L 360.613302 286.548034 
L 352.565225 288.805208 
L 344.517148 288.747136 
L 336.469071 288.637253 
L 328.420995 285.011813 
L 320.372918 286.796415 
L 312.324841 286.357884 
L 304.276764 286.100901 
L 296.228687 285.696618 
L 288.18061 284.933212 
L 280.132533 285.669695 
L 272.084456 284.322209 
L 264.036379 282.650469 
L 255.988302 284.021601 
L 247.940225 282.916309 
L 239.892148 281.93439 
L 231.844071 283.520721 
L 223.795995 281.782219 
L 215.747918 277.327765 
L 207.699841 280.567252 
L 199.651764 280.430766 
L 191.603687 280.434136 
L 183.55561 280.033881 
L 175.507533 280.045997 
L 167.459456 278.826359 
L 159.411379 278.322132 
L 151.363302 279.251824 
L 143.315225 277.485371 
L 135.267148 279.282976 
L 127.219071 276.829831 
L 119.170995 278.231526 
L 111.122918 276.59621 
L 103.074841 274.572013 
L 95.026764 276.419317 
L 86.978687 274.647669 
L 78.93061 274.76574 
L 70.882533 274.684009 
L 62.834456 274.852514 
L 54.786379 276.521312 
L 46.738302 276.914966 
L 38.690225 274.902651 
L 30.642148 272.841696 
L 22.594071 273.414909 
L 14.545995 272.996366 
L 6.497918 274.285141 
L -1.550159 274.148142 
L -9.598236 273.626068 
L -17.646313 274.295626 
L -25.69439 274.240452 
L -33.742467 273.191564 
L -41.790544 273.316486 
L -49.838621 272.910069 
L -57.886698 272.409782 
L -65.934775 274.773236 
L -73.982852 273.443325 
L -82.030929 271.622118 
L -90.079005 272.496667 
L -98.127082 273.278588 
L -106.175159 272.763968 
L -114.223236 272.369009 
L -122.271313 272.681702 
L -130.31939 273.510056 
L -138.367467 272.620081 
L -146.415544 272.295141 
L -154.463621 272.663932 
L -162.511698 272.108278 
L -170.559775 272.292941 
L -178.607852 271.171037 
L -186.655929 271.586506 
L -194.704005 270.217588 
L -202.752082 271.40841 
L -210.800159 270.857857 
L -218.848236 271.195419 
L -226.896313 270.826681 
L -234.94439 271.557991 
L -242.992467 270.333655 
L -251.040544 271.119187 
L -259.088621 270.351612 
L -267.136698 270.513054 
L -275.184775 269.914538 
L -283.232852 270.249376 
L -291.280929 271.140166 
L -299.329005 270.305494 
L -307.377082 270.527352 
L -315.425159 268.87235 
L -323.473236 269.660573 
L -331.521313 270.06886 
L -339.56939 268.799407 
L -347.617467 270.2538 
L -355.665544 270.384377 
L -363.713621 268.774546 
L -371.761698 268.824404 
L -379.809775 268.731352 
L -387.857852 268.166854 
L -395.905929 268.595129 
L -403.954005 268.47242 
L -412.002082 270.412562 
L -420.050159 269.117453 
L -428.098236 268.169375 
L -436.146313 268.224031 
L -444.19439 267.967714 
L -452.242467 267.4099 
L -460.290544 267.652584 
L -468.338621 267.289262 
L -476.386698 267.769606 
L -484.434775 267.227201 
L -492.482852 268.355862 
L -500.530929 268.536978 
L -508.579005 268.319532 
L -516.627082 268.597831 
L -524.675159 268.21494 
L -532.723236 268.573985 
L -540.771313 268.79662 
L -548.81939 269.343454 
L -556.867467 268.963055 
L -564.915544 269.570441 
L -572.963621 269.486356 
L -581.011698 270.591475 
L -589.059775 269.895427 
L -597.107852 269.537572 
L -605.155929 270.02517 
L -613.204005 270.260469 
L -621.252082 270.302607 
L -629.300159 270.950339 
L -637.348236 270.435423 
L -645.396313 270.876576 
L -653.44439 270.696649 
L -661.492467 270.816939 
L -669.540544 270.656424 
L -677.588621 270.411543 
L -685.636698 270.92959 
L -693.684775 271.612626 
L -701.732852 270.949139 
L -709.780929 271.35392 
L -717.829005 271.19928 
L -725.877082 271.43627 
L -733.925159 271.965162 
L -741.973236 271.804019 
L -750.021313 272.234632 
L -758.06939 272.357818 
L -766.117467 271.900081 
L -774.165544 272.18915 
L -782.213621 272.5096 
L -790.261698 272.6324 
L -798.309775 272.630742 
L -806.357852 272.861019 
L -814.405929 272.836801 
L -822.454005 273.172713 
L -830.502082 273.273169 
L -838.550159 273.356208 
L -846.598236 273.438643 
L -854.646313 272.867269 
L -862.69439 273.517134 
L -870.742467 273.781895 
L -878.790544 273.717183 
L -886.838621 273.745056 
L -894.886698 273.75576 
L -902.934775 273.949089 
L -910.982852 273.893236 
L -919.030929 274.17969 
L -927.079005 274.282686 
L -935.127082 274.219565 
L -943.175159 274.326188 
L -951.223236 274.468952 
L -959.271313 274.616608 
L -967.31939 275.107985 
L -975.367467 275.225593 
L -983.415544 275.465126 
L -991.463621 275.347108 
L -999.511698 275.578219 
L -1007.559775 275.602967 
L -1015.607852 275.676091 
L -1023.655929 275.430011 
L -1031.704005 276.123753 
L -1039.752082 276.188367 
L -1047.800159 276.238671 
L -1055.848236 276.658256 
L -1063.896313 276.634976 
L -1071.94439 276.813467 
L -1079.992467 276.610086 
L -1088.040544 277.187252 
L -1096.088621 277.02626 
L -1104.136698 277.583911 
L -1112.184775 277.98287 
L -1120.232852 278.104206 
L -1128.280929 278.603697 
L -1136.329005 278.996197 
L -1144.377082 278.991195 
L -1152.425159 279.235824 
L -1160.473236 279.312136 
L -1168.521313 279.629966 
L -1176.56939 279.549738 
L -1184.617467 279.988583 
L -1192.665544 280.318628 
L -1200.713621 280.517394 
L -1208.761698 280.638925 
L -1216.809775 280.736766 
L -1224.857852 281.208977 
L -1232.905929 281.32608 
L -1240.954005 281.620393 
L -1249.002082 282.050351 
L -1257.050159 282.191986 
L -1265.098236 281.82008 
L -1273.146313 281.941675 
L -1281.19439 282.410957 
L -1289.242467 282.470544 
L -1297.290544 282.794449 
L -1305.338621 283.029677 
L -1313.386698 282.910102 
L -1321.434775 283.055551 
L -1329.482852 283.23644 
L -1337.530929 283.558027 
L -1345.579005 283.208428 
L -1353.627082 283.365297 
L -1361.675159 283.369725 
L -1369.723236 283.82448 
L -1377.771313 283.771599 
L -1385.81939 283.52378 
L -1393.867467 283.766545 
L -1401.915544 284.016329 
L -1409.963621 283.368626 
L -1418.011698 283.968876 
L -1426.059775 283.207516 
L -1434.107852 283.178024 
L -1442.155929 283.029527 
L -1450.204005 283.216112 
L -1458.252082 283.274961 
L -1466.300159 283.188354 
L -1474.348236 282.830149 
L -1482.396313 283.119764 
L -1490.44439 282.272959 
L -1498.492467 281.439122 
L -1506.540544 281.663694 
L -1514.588621 282.126882 
L -1522.636698 281.006825 
L -1530.684775 281.058698 
L -1538.732852 280.813301 
L -1546.780929 280.762752 
L -1554.829005 279.135475 
L -1562.877082 279.006653 
L -1570.925159 278.414776 
L -1578.973236 277.140304 
L -1587.021313 276.234116 
L -1595.06939 277.242422 
L -1603.117467 276.78707 
L -1611.165544 275.994617 
L -1619.213621 275.651881 
L -1627.261698 275.077035 
L -1635.309775 274.327822 
L -1643.357852 274.724584 
L -1651.405929 273.295754 
L -1659.454005 272.783863 
L -1667.502082 272.442901 
L -1675.550159 272.240669 
L -1683.598236 272.417545 
L -1691.646313 272.078824 
L -1699.69439 272.334858 
L -1707.742467 272.858476 
L -1715.790544 272.350977 
L -1723.838621 272.291446 
L -1731.886698 272.995974 
L -1739.934775 273.187256 
L -1747.982852 273.074992 
L -1756.030929 274.309716 
L -1764.079005 273.615941 
L -1772.127082 273.89618 
L -1780.175159 274.985276 
L -1788.223236 274.785417 
L -1796.271313 275.166455 
L -1804.31939 275.511844 
L -1812.367467 275.882697 
L -1820.415544 276.291286 
L -1828.463621 276.720243 
L -1836.511698 277.136676 
L -1844.559775 277.495198 
L -1852.607852 277.978694 
L -1860.655929 278.127027 
L -1868.704005 278.947028 
L -1876.752082 279.010545 
L -1884.800159 279.447948 
L -1892.848236 279.930123 
L -1900.896313 280.305548 
L -1908.94439 280.7639 
L -1916.992467 281.131075 
L -1925.040544 281.647673 
L -1933.088621 281.97422 
L -1941.136698 282.364369 
L -1949.184775 282.81494 
L -1957.232852 283.27304 
L -1965.280929 283.566561 
L -1973.329005 284.009202 
L -1981.377082 284.322232 
L -1989.425159 284.775282 
L -1997.473236 285.133861 
L -2005.521313 285.490083 
L -2013.56939 285.880278 
L -2021.617467 286.229618 
L -2029.665544 286.531247 
L -2037.713621 286.911957 
L -2045.761698 287.121333 
L -2053.809775 287.582735 
L -2061.857852 287.904125 
L -2069.905929 288.190691 
L -2077.954005 288.533468 
L -2086.002082 288.754726 
L -2094.050159 289.061581 
L -2102.098236 289.375303 
L -2110.146313 289.717275 
L -2118.19439 289.985126 
L -2126.242467 290.248569 
L -2134.290544 290.533073 
L -2142.338621 290.8072 
L -2150.386698 291.10006 
L -2158.434775 291.338517 
L -2166.482852 291.595303 
L -2174.530929 291.809069 
L -2182.579005 292.095727 
L -2190.627082 292.308783 
L -2198.675159 292.546668 
L -2206.723236 292.837187 
L -2214.771313 293.044318 
L -2222.81939 293.118775 
L -2230.867467 293.359429 
L -2238.915544 293.491558 
L -2246.963621 293.723397 
L -2255.011698 293.989791 
L -2263.059775 294.134896 
L -2271.107852 294.271106 
L -2279.155929 294.310526 
L -2287.204005 294.451144 
L -2295.252082 294.54027 
L -2303.300159 294.634861 
L -2311.348236 294.825699 
L -2319.396313 294.941624 
L -2327.44439 295.102225 
L -2335.492467 295.028317 
L -2343.540544 295.120551 
L -2351.588621 294.997504 
L -2359.636698 295.213214 
L -2367.684775 295.253229 
L -2375.732852 295.412713 
L -2383.780929 295.098908 
L -2391.829005 295.496132 
L -2399.877082 295.472591 
L -2407.925159 295.256696 
L -2415.973236 295.207207 
L -2424.021313 295.415022 
L -2432.06939 295.769027 
L -2440.117467 295.640312 
L -2448.165544 295.638801 
L -2456.213621 295.294055 
L -2464.261698 295.29451 
L -2472.309775 295.399451 
L -2480.357852 295.616943 
L -2488.405929 295.550454 
L -2496.454005 295.508907 
L -2504.502082 295.544931 
L -2512.550159 295.677764 
L -2520.598236 295.648741 
L -2528.646313 295.732784 
L -2536.69439 295.87146 
L -2544.742467 295.774255 
L -2552.790544 295.974279 
L -2560.838621 296.004526 
L -2568.886698 296.027807 
L -2576.934775 296.153421 
L -2584.982852 296.183965 
L -2593.030929 296.322887 
L -2601.079005 296.474618 
L -2609.127082 296.475071 
L -2617.175159 296.411009 
L -2625.223236 296.364361 
L -2633.271313 296.687023 
L -2641.31939 296.628514 
L -2649.367467 296.844518 
L -2657.415544 296.84629 
L -2665.463621 296.76031 
L -2673.511698 296.974141 
L -2681.559775 296.771087 
L -2689.607852 296.779279 
L -2697.655929 297.051659 
L -2705.704005 296.852597 
L -2713.752082 297.110173 
L -2721.800159 297.191946 
L -2729.848236 296.972279 
L -2737.896313 296.276215 
L -2745.94439 296.720293 
L -2753.992467 296.507251 
L -2762.040544 295.473272 
L -2770.088621 296.355154 
L -2778.136698 296.536967 
L -2786.184775 295.581909 
L -2794.232852 295.321833 
L -2802.280929 295.836732 
L -2810.329005 294.802576 
L -2818.377082 293.039457 
L -2826.425159 294.996455 
L -2834.473236 295.790905 
L -2842.521313 296.187741 
L -2850.56939 293.723951 
L -2858.617467 293.835325 
L -2866.665544 292.622738 
L -2874.713621 291.669062 
L -2882.761698 293.628163 
L -2890.809775 292.803513 
L -2898.857852 291.091192 
L -2906.905929 289.880959 
L -2914.954005 289.973916 
L -2923.002082 290.206228 
L -2931.050159 289.96506 
L -2939.098236 289.829651 
L -2947.146313 290.556028 
L -2955.19439 290.490922 
L -2963.242467 290.05321 
L -2971.290544 290.356394 
L -2979.338621 290.187807 
L -2987.386698 290.138817 
L -2995.434775 290.183674 
L -3003.482852 290.483199 
L -3011.530929 290.671437 
L -3019.579005 290.78957 
L -3027.627082 291.054122 
L -3035.675159 291.191017 
L -3043.723236 291.408951 
L -3051.771313 291.736904 
L -3059.81939 292.005172 
L -3067.867467 292.189598 
L -3075.915544 292.393729 
L -3083.963621 292.654206 
L -3092.011698 292.827038 
L -3100.059775 293.076708 
L -3108.107852 293.374943 
L -3116.155929 293.559363 
L -3124.204005 293.692807 
L -3132.252082 293.881042 
L -3140.300159 294.074188 
L -3148.348236 294.250682 
L -3156.396313 294.419593 
L -3164.44439 294.582749 
L -3172.492467 294.79969 
L -3180.540544 294.920165 
L -3188.588621 295.081434 
L -3196.636698 295.250791 
L -3204.684775 295.395651 
L -3212.732852 295.537807 
L -3220.780929 295.658608 
L -3228.829005 295.78928 
L -3236.877082 295.95669 
L -3244.925159 296.077926 
L -3252.973236 296.217008 
L -3261.021313 296.331909 
L -3269.06939 296.457811 
L -3277.117467 296.585271 
L -3285.165544 296.71456 
L -3293.213621 296.824069 
L -3301.261698 296.951894 
L -3309.309775 297.06429 
L -3317.357852 297.184345 
L -3325.405929 297.296841 
L -3333.454005 297.411365 
L -3341.502082 297.51944 
L -3349.550159 297.631761 
L -3357.598236 297.750966 
L -3365.646313 297.844272 
L -3373.69439 297.957139 
L -3381.742467 298.056195 
L -3389.790544 298.168529 
L -3397.838621 298.254338 
L -3405.886698 298.359106 
L -3413.934775 298.459677 
L -3421.982852 298.55505 
L -3430.030929 298.650315 
L -3438.079005 298.738584 
L -3446.127082 298.841107 
L -3454.175159 298.93361 
L -3462.223236 299.010271 
L -3470.271313 299.100916 
L -3478.31939 299.191489 
L -3486.367467 299.2817 
L -3494.415544 299.368919 
L -3502.463621 299.450514 
L -3510.511698 299.540153 
L -3518.559775 299.628201 
L -3526.607852 299.7168 
L -3534.655929 299.805226 
L -3542.704005 299.896086 
L -3550.752082 299.990525 
L -3558.800159 300.072523 
L -3566.848236 300.165998 
L -3574.896313 300.257898 
L -3582.94439 300.346414 
L -3590.992467 300.437737 
L -3599.040544 300.530966 
L -3607.088621 300.621671 
L -3615.136698 300.716763 
L -3623.184775 300.804015 
L -3631.232852 300.893049 
L -3639.280929 300.987007 
L -3647.329005 301.078057 
L -3655.377082 301.164847 
L -3663.425159 301.256547 
L -3671.473236 301.340865 
L -3679.521313 301.430781 
L -3687.56939 301.526352 
L -3695.617467 301.609318 
L -3703.665544 301.701638 
L -3711.713621 301.78949 
L -3719.761698 301.881469 
L -3727.809775 301.965428 
L -3735.857852 302.06265 
L -3743.905929 302.144374 
L -3751.954005 302.235336 
L -3760.002082 302.324535 
L -3768.050159 302.415879 
L -3776.098236 302.503038 
L -3784.146313 302.591714 
L -3792.19439 302.680722 
L -3800.242467 302.772487 
L -3808.290544 302.858154 
L -3816.338621 302.940133 
L -3824.386698 303.023306 
L -3832.434775 303.106369 
L -3840.482852 303.18524 
L -3848.530929 303.265015 
L -3856.579005 303.343759 
L -3864.627082 303.419091 
L -3872.675159 303.495068 
L -3880.723236 303.570507 
L -3888.771313 303.639538 
L -3896.81939 303.709464 
L -3904.867467 303.781974 
L -3912.915544 303.850774 
L -3920.963621 303.912712 
L -3929.011698 303.980214 
L -3937.059775 304.042144 
L -3945.107852 304.099405 
L -3953.155929 304.156485 
L -3961.204005 304.209963 
L -3969.252082 304.267073 
L -3977.300159 304.314812 
L -3985.348236 304.36483 
L -3993.396313 304.411961 
L -4001.44439 304.455742 
L -4009.492467 304.495796 
L -4017.540544 304.532357 
L -4025.588621 304.568555 
L -4033.636698 304.60433 
L -4041.684775 304.634326 
L -4049.732852 304.667403 
L -4057.780929 304.695711 
L -4065.829005 304.720355 
L -4073.877082 304.748745 
L -4081.925159 304.773791 
L -4089.973236 304.794827 
L -4098.021313 304.817178 
L -4106.06939 304.838901 
L -4114.117467 304.858176 
L -4122.165544 304.87746 
L -4130.213621 304.893675 
L -4138.261698 304.912855 
L -4146.309775 304.928421 
L -4154.357852 304.944657 
L -4162.405929 304.961577 
L -4170.454005 304.975635 
L -4178.502082 304.990401 
L -4186.550159 305.009218 
L -4194.598236 305.022898 
L -4202.646313 305.039308 
L -4210.69439 305.052545 
L -4218.742467 305.069667 
L -4226.790544 305.083363 
L -4234.838621 305.097604 
L -4242.886698 305.110326 
L -4250.934775 305.121872 
L -4258.982852 305.134772 
L -4267.030929 305.148705 
L -4275.079005 305.162346 
L -4283.127082 305.174093 
L -4291.175159 305.183866 
L -4299.223236 305.197284 
L -4307.271313 305.208551 
L -4315.31939 305.22187 
z
" clip-path="url(#paad749a197)" style="fill: #008000; fill-opacity: 0.3; stroke: #008000; stroke-opacity: 0.3"/>
   </g>
   <g id="matplotlib.axis_1">
    <g id="xtick_1">
     <g id="line2d_1">
      <defs>
       <path id="m42c844bd9a" d="M 0 0 
L 0 3.5 
" style="stroke: #000000; stroke-width: 0.8"/>
      </defs>
      <g>
       <use xlink:href="#m42c844bd9a" x="103.074841" y="395.28" style="stroke: #000000; stroke-width: 0.8"/>
      </g>
     </g>
     <g id="text_1">
      <!-- 2023-01-01 -->
      <g transform="translate(17.945813 495.213718) rotate(-45) scale(0.2 -0.2)">
       <defs>
        <path id="DejaVuSans-32" d="M 1228 531 
L 3431 531 
L 3431 0 
L 469 0 
L 469 531 
Q 828 903 1448 1529 
Q 2069 2156 2228 2338 
Q 2531 2678 2651 2914 
Q 2772 3150 2772 3378 
Q 2772 3750 2511 3984 
Q 2250 4219 1831 4219 
Q 1534 4219 1204 4116 
Q 875 4013 500 3803 
L 500 4441 
Q 881 4594 1212 4672 
Q 1544 4750 1819 4750 
Q 2544 4750 2975 4387 
Q 3406 4025 3406 3419 
Q 3406 3131 3298 2873 
Q 3191 2616 2906 2266 
Q 2828 2175 2409 1742 
Q 1991 1309 1228 531 
z
" transform="scale(0.015625)"/>
        <path id="DejaVuSans-30" d="M 2034 4250 
Q 1547 4250 1301 3770 
Q 1056 3291 1056 2328 
Q 1056 1369 1301 889 
Q 1547 409 2034 409 
Q 2525 409 2770 889 
Q 3016 1369 3016 2328 
Q 3016 3291 2770 3770 
Q 2525 4250 2034 4250 
z
M 2034 4750 
Q 2819 4750 3233 4129 
Q 3647 3509 3647 2328 
Q 3647 1150 3233 529 
Q 2819 -91 2034 -91 
Q 1250 -91 836 529 
Q 422 1150 422 2328 
Q 422 3509 836 4129 
Q 1250 4750 2034 4750 
z
" transform="scale(0.015625)"/>
        <path id="DejaVuSans-33" d="M 2597 2516 
Q 3050 2419 3304 2112 
Q 3559 1806 3559 1356 
Q 3559 666 3084 287 
Q 2609 -91 1734 -91 
Q 1441 -91 1130 -33 
Q 819 25 488 141 
L 488 750 
Q 750 597 1062 519 
Q 1375 441 1716 441 
Q 2309 441 2620 675 
Q 2931 909 2931 1356 
Q 2931 1769 2642 2001 
Q 2353 2234 1838 2234 
L 1294 2234 
L 1294 2753 
L 1863 2753 
Q 2328 2753 2575 2939 
Q 2822 3125 2822 3475 
Q 2822 3834 2567 4026 
Q 2313 4219 1838 4219 
Q 1578 4219 1281 4162 
Q 984 4106 628 3988 
L 628 4550 
Q 988 4650 1302 4700 
Q 1616 4750 1894 4750 
Q 2613 4750 3031 4423 
Q 3450 4097 3450 3541 
Q 3450 3153 3228 2886 
Q 3006 2619 2597 2516 
z
" transform="scale(0.015625)"/>
        <path id="DejaVuSans-2d" d="M 313 2009 
L 1997 2009 
L 1997 1497 
L 313 1497 
L 313 2009 
z
" transform="scale(0.015625)"/>
        <path id="DejaVuSans-31" d="M 794 531 
L 1825 531 
L 1825 4091 
L 703 3866 
L 703 4441 
L 1819 4666 
L 2450 4666 
L 2450 531 
L 3481 531 
L 3481 0 
L 794 0 
L 794 531 
z
" transform="scale(0.015625)"/>
       </defs>
       <use xlink:href="#DejaVuSans-32"/>
       <use xlink:href="#DejaVuSans-30" x="63.623047"/>
       <use xlink:href="#DejaVuSans-32" x="127.246094"/>
       <use xlink:href="#DejaVuSans-33" x="190.869141"/>
       <use xlink:href="#DejaVuSans-2d" x="254.492188"/>
       <use xlink:href="#DejaVuSans-30" x="290.576172"/>
       <use xlink:href="#DejaVuSans-31" x="354.199219"/>
       <use xlink:href="#DejaVuSans-2d" x="417.822266"/>
       <use xlink:href="#DejaVuSans-30" x="453.90625"/>
       <use xlink:href="#DejaVuSans-31" x="517.529297"/>
      </g>
     </g>
    </g>
    <g id="xtick_2">
     <g id="line2d_2">
      <g>
       <use xlink:href="#m42c844bd9a" x="215.747918" y="395.28" style="stroke: #000000; stroke-width: 0.8"/>
      </g>
     </g>
     <g id="text_2">
      <!-- 2023-01-15 -->
      <g transform="translate(130.61889 495.213718) rotate(-45) scale(0.2 -0.2)">
       <defs>
        <path id="DejaVuSans-35" d="M 691 4666 
L 3169 4666 
L 3169 4134 
L 1269 4134 
L 1269 2991 
Q 1406 3038 1543 3061 
Q 1681 3084 1819 3084 
Q 2600 3084 3056 2656 
Q 3513 2228 3513 1497 
Q 3513 744 3044 326 
Q 2575 -91 1722 -91 
Q 1428 -91 1123 -41 
Q 819 9 494 109 
L 494 744 
Q 775 591 1075 516 
Q 1375 441 1709 441 
Q 2250 441 2565 725 
Q 2881 1009 2881 1497 
Q 2881 1984 2565 2268 
Q 2250 2553 1709 2553 
Q 1456 2553 1204 2497 
Q 953 2441 691 2322 
L 691 4666 
z
" transform="scale(0.015625)"/>
       </defs>
       <use xlink:href="#DejaVuSans-32"/>
       <use xlink:href="#DejaVuSans-30" x="63.623047"/>
       <use xlink:href="#DejaVuSans-32" x="127.246094"/>
       <use xlink:href="#DejaVuSans-33" x="190.869141"/>
       <use xlink:href="#DejaVuSans-2d" x="254.492188"/>
       <use xlink:href="#DejaVuSans-30" x="290.576172"/>
       <use xlink:href="#DejaVuSans-31" x="354.199219"/>
       <use xlink:href="#DejaVuSans-2d" x="417.822266"/>
       <use xlink:href="#DejaVuSans-31" x="453.90625"/>
       <use xlink:href="#DejaVuSans-35" x="517.529297"/>
      </g>
     </g>
    </g>
    <g id="xtick_3">
     <g id="line2d_3">
      <g>
       <use xlink:href="#m42c844bd9a" x="328.420995" y="395.28" style="stroke: #000000; stroke-width: 0.8"/>
      </g>
     </g>
     <g id="text_3">
      <!-- 2023-01-29 -->
      <g transform="translate(243.291967 495.213718) rotate(-45) scale(0.2 -0.2)">
       <defs>
        <path id="DejaVuSans-39" d="M 703 97 
L 703 672 
Q 941 559 1184 500 
Q 1428 441 1663 441 
Q 2288 441 2617 861 
Q 2947 1281 2994 2138 
Q 2813 1869 2534 1725 
Q 2256 1581 1919 1581 
Q 1219 1581 811 2004 
Q 403 2428 403 3163 
Q 403 3881 828 4315 
Q 1253 4750 1959 4750 
Q 2769 4750 3195 4129 
Q 3622 3509 3622 2328 
Q 3622 1225 3098 567 
Q 2575 -91 1691 -91 
Q 1453 -91 1209 -44 
Q 966 3 703 97 
z
M 1959 2075 
Q 2384 2075 2632 2365 
Q 2881 2656 2881 3163 
Q 2881 3666 2632 3958 
Q 2384 4250 1959 4250 
Q 1534 4250 1286 3958 
Q 1038 3666 1038 3163 
Q 1038 2656 1286 2365 
Q 1534 2075 1959 2075 
z
" transform="scale(0.015625)"/>
       </defs>
       <use xlink:href="#DejaVuSans-32"/>
       <use xlink:href="#DejaVuSans-30" x="63.623047"/>
       <use xlink:href="#DejaVuSans-32" x="127.246094"/>
       <use xlink:href="#DejaVuSans-33" x="190.869141"/>
       <use xlink:href="#DejaVuSans-2d" x="254.492188"/>
       <use xlink:href="#DejaVuSans-30" x="290.576172"/>
       <use xlink:href="#DejaVuSans-31" x="354.199219"/>
       <use xlink:href="#DejaVuSans-2d" x="417.822266"/>
       <use xlink:href="#DejaVuSans-32" x="453.90625"/>
       <use xlink:href="#DejaVuSans-39" x="517.529297"/>
      </g>
     </g>
    </g>
    <g id="xtick_4">
     <g id="line2d_4">
      <g>
       <use xlink:href="#m42c844bd9a" x="441.094071" y="395.28" style="stroke: #000000; stroke-width: 0.8"/>
      </g>
     </g>
     <g id="text_4">
      <!-- 2023-02-12 -->
      <g transform="translate(355.965044 495.213718) rotate(-45) scale(0.2 -0.2)">
       <use xlink:href="#DejaVuSans-32"/>
       <use xlink:href="#DejaVuSans-30" x="63.623047"/>
       <use xlink:href="#DejaVuSans-32" x="127.246094"/>
       <use xlink:href="#DejaVuSans-33" x="190.869141"/>
       <use xlink:href="#DejaVuSans-2d" x="254.492188"/>
       <use xlink:href="#DejaVuSans-30" x="290.576172"/>
       <use xlink:href="#DejaVuSans-32" x="354.199219"/>
       <use xlink:href="#DejaVuSans-2d" x="417.822266"/>
       <use xlink:href="#DejaVuSans-31" x="453.90625"/>
       <use xlink:href="#DejaVuSans-32" x="517.529297"/>
      </g>
     </g>
    </g>
    <g id="xtick_5">
     <g id="line2d_5">
      <g>
       <use xlink:href="#m42c844bd9a" x="553.767148" y="395.28" style="stroke: #000000; stroke-width: 0.8"/>
      </g>
     </g>
     <g id="text_5">
      <!-- 2023-02-26 -->
      <g transform="translate(468.638121 495.213718) rotate(-45) scale(0.2 -0.2)">
       <defs>
        <path id="DejaVuSans-36" d="M 2113 2584 
Q 1688 2584 1439 2293 
Q 1191 2003 1191 1497 
Q 1191 994 1439 701 
Q 1688 409 2113 409 
Q 2538 409 2786 701 
Q 3034 994 3034 1497 
Q 3034 2003 2786 2293 
Q 2538 2584 2113 2584 
z
M 3366 4563 
L 3366 3988 
Q 3128 4100 2886 4159 
Q 2644 4219 2406 4219 
Q 1781 4219 1451 3797 
Q 1122 3375 1075 2522 
Q 1259 2794 1537 2939 
Q 1816 3084 2150 3084 
Q 2853 3084 3261 2657 
Q 3669 2231 3669 1497 
Q 3669 778 3244 343 
Q 2819 -91 2113 -91 
Q 1303 -91 875 529 
Q 447 1150 447 2328 
Q 447 3434 972 4092 
Q 1497 4750 2381 4750 
Q 2619 4750 2861 4703 
Q 3103 4656 3366 4563 
z
" transform="scale(0.015625)"/>
       </defs>
       <use xlink:href="#DejaVuSans-32"/>
       <use xlink:href="#DejaVuSans-30" x="63.623047"/>
       <use xlink:href="#DejaVuSans-32" x="127.246094"/>
       <use xlink:href="#DejaVuSans-33" x="190.869141"/>
       <use xlink:href="#DejaVuSans-2d" x="254.492188"/>
       <use xlink:href="#DejaVuSans-30" x="290.576172"/>
       <use xlink:href="#DejaVuSans-32" x="354.199219"/>
       <use xlink:href="#DejaVuSans-2d" x="417.822266"/>
       <use xlink:href="#DejaVuSans-32" x="453.90625"/>
       <use xlink:href="#DejaVuSans-36" x="517.529297"/>
      </g>
     </g>
    </g>
    <g id="xtick_6">
     <g id="line2d_6">
      <g>
       <use xlink:href="#m42c844bd9a" x="666.440225" y="395.28" style="stroke: #000000; stroke-width: 0.8"/>
      </g>
     </g>
     <g id="text_6">
      <!-- 2023-03-12 -->
      <g transform="translate(581.311198 495.213718) rotate(-45) scale(0.2 -0.2)">
       <use xlink:href="#DejaVuSans-32"/>
       <use xlink:href="#DejaVuSans-30" x="63.623047"/>
       <use xlink:href="#DejaVuSans-32" x="127.246094"/>
       <use xlink:href="#DejaVuSans-33" x="190.869141"/>
       <use xlink:href="#DejaVuSans-2d" x="254.492188"/>
       <use xlink:href="#DejaVuSans-30" x="290.576172"/>
       <use xlink:href="#DejaVuSans-33" x="354.199219"/>
       <use xlink:href="#DejaVuSans-2d" x="417.822266"/>
       <use xlink:href="#DejaVuSans-31" x="453.90625"/>
       <use xlink:href="#DejaVuSans-32" x="517.529297"/>
      </g>
     </g>
    </g>
    <g id="xtick_7">
     <g id="line2d_7">
      <g>
       <use xlink:href="#m42c844bd9a" x="779.113302" y="395.28" style="stroke: #000000; stroke-width: 0.8"/>
      </g>
     </g>
     <g id="text_7">
      <!-- 2023-03-26 -->
      <g transform="translate(693.984275 495.213718) rotate(-45) scale(0.2 -0.2)">
       <use xlink:href="#DejaVuSans-32"/>
       <use xlink:href="#DejaVuSans-30" x="63.623047"/>
       <use xlink:href="#DejaVuSans-32" x="127.246094"/>
       <use xlink:href="#DejaVuSans-33" x="190.869141"/>
       <use xlink:href="#DejaVuSans-2d" x="254.492188"/>
       <use xlink:href="#DejaVuSans-30" x="290.576172"/>
       <use xlink:href="#DejaVuSans-33" x="354.199219"/>
       <use xlink:href="#DejaVuSans-2d" x="417.822266"/>
       <use xlink:href="#DejaVuSans-32" x="453.90625"/>
       <use xlink:href="#DejaVuSans-36" x="517.529297"/>
      </g>
     </g>
    </g>
    <g id="xtick_8">
     <g id="line2d_8">
      <g>
       <use xlink:href="#m42c844bd9a" x="891.786379" y="395.28" style="stroke: #000000; stroke-width: 0.8"/>
      </g>
     </g>
     <g id="text_8">
      <!-- 2023-04-09 -->
      <g transform="translate(806.657352 495.213718) rotate(-45) scale(0.2 -0.2)">
       <defs>
        <path id="DejaVuSans-34" d="M 2419 4116 
L 825 1625 
L 2419 1625 
L 2419 4116 
z
M 2253 4666 
L 3047 4666 
L 3047 1625 
L 3713 1625 
L 3713 1100 
L 3047 1100 
L 3047 0 
L 2419 0 
L 2419 1100 
L 313 1100 
L 313 1709 
L 2253 4666 
z
" transform="scale(0.015625)"/>
       </defs>
       <use xlink:href="#DejaVuSans-32"/>
       <use xlink:href="#DejaVuSans-30" x="63.623047"/>
       <use xlink:href="#DejaVuSans-32" x="127.246094"/>
       <use xlink:href="#DejaVuSans-33" x="190.869141"/>
       <use xlink:href="#DejaVuSans-2d" x="254.492188"/>
       <use xlink:href="#DejaVuSans-30" x="290.576172"/>
       <use xlink:href="#DejaVuSans-34" x="354.199219"/>
       <use xlink:href="#DejaVuSans-2d" x="417.822266"/>
       <use xlink:href="#DejaVuSans-30" x="453.90625"/>
       <use xlink:href="#DejaVuSans-39" x="517.529297"/>
      </g>
     </g>
    </g>
    <g id="xtick_9">
     <g id="line2d_9">
      <g>
       <use xlink:href="#m42c844bd9a" x="940.074841" y="395.28" style="stroke: #000000; stroke-width: 0.8"/>
      </g>
     </g>
     <g id="text_9">
      <!-- 2023-04-15 -->
      <g transform="translate(854.945813 495.213718) rotate(-45) scale(0.2 -0.2)">
       <use xlink:href="#DejaVuSans-32"/>
       <use xlink:href="#DejaVuSans-30" x="63.623047"/>
       <use xlink:href="#DejaVuSans-32" x="127.246094"/>
       <use xlink:href="#DejaVuSans-33" x="190.869141"/>
       <use xlink:href="#DejaVuSans-2d" x="254.492188"/>
       <use xlink:href="#DejaVuSans-30" x="290.576172"/>
       <use xlink:href="#DejaVuSans-34" x="354.199219"/>
       <use xlink:href="#DejaVuSans-2d" x="417.822266"/>
       <use xlink:href="#DejaVuSans-31" x="453.90625"/>
       <use xlink:href="#DejaVuSans-35" x="517.529297"/>
      </g>
     </g>
    </g>
   </g>
   <g id="matplotlib.axis_2">
    <g id="ytick_1">
     <g id="line2d_10">
      <defs>
       <path id="m0c52709074" d="M 0 0 
L -3.5 0 
" style="stroke: #000000; stroke-width: 0.8"/>
      </defs>
      <g>
       <use xlink:href="#m0c52709074" x="103.074841" y="351.038252" style="stroke: #000000; stroke-width: 0.8"/>
      </g>
     </g>
     <g id="text_10">
      <!-- −0.25 -->
      <g transform="translate(34.784216 358.63669) scale(0.2 -0.2)">
       <defs>
        <path id="DejaVuSans-2212" d="M 678 2272 
L 4684 2272 
L 4684 1741 
L 678 1741 
L 678 2272 
z
" transform="scale(0.015625)"/>
        <path id="DejaVuSans-2e" d="M 684 794 
L 1344 794 
L 1344 0 
L 684 0 
L 684 794 
z
" transform="scale(0.015625)"/>
       </defs>
       <use xlink:href="#DejaVuSans-2212"/>
       <use xlink:href="#DejaVuSans-30" x="83.789062"/>
       <use xlink:href="#DejaVuSans-2e" x="147.412109"/>
       <use xlink:href="#DejaVuSans-32" x="179.199219"/>
       <use xlink:href="#DejaVuSans-35" x="242.822266"/>
      </g>
     </g>
    </g>
    <g id="ytick_2">
     <g id="line2d_11">
      <g>
       <use xlink:href="#m0c52709074" x="103.074841" y="305.234323" style="stroke: #000000; stroke-width: 0.8"/>
      </g>
     </g>
     <g id="text_11">
      <!-- 0.00 -->
      <g transform="translate(51.543591 312.83276) scale(0.2 -0.2)">
       <use xlink:href="#DejaVuSans-30"/>
       <use xlink:href="#DejaVuSans-2e" x="63.623047"/>
       <use xlink:href="#DejaVuSans-30" x="95.410156"/>
       <use xlink:href="#DejaVuSans-30" x="159.033203"/>
      </g>
     </g>
    </g>
    <g id="ytick_3">
     <g id="line2d_12">
      <g>
       <use xlink:href="#m0c52709074" x="103.074841" y="259.430394" style="stroke: #000000; stroke-width: 0.8"/>
      </g>
     </g>
     <g id="text_12">
      <!-- 0.25 -->
      <g transform="translate(51.543591 267.028831) scale(0.2 -0.2)">
       <use xlink:href="#DejaVuSans-30"/>
       <use xlink:href="#DejaVuSans-2e" x="63.623047"/>
       <use xlink:href="#DejaVuSans-32" x="95.410156"/>
       <use xlink:href="#DejaVuSans-35" x="159.033203"/>
      </g>
     </g>
    </g>
    <g id="ytick_4">
     <g id="line2d_13">
      <g>
       <use xlink:href="#m0c52709074" x="103.074841" y="213.626465" style="stroke: #000000; stroke-width: 0.8"/>
      </g>
     </g>
     <g id="text_13">
      <!-- 0.50 -->
      <g transform="translate(51.543591 221.224902) scale(0.2 -0.2)">
       <use xlink:href="#DejaVuSans-30"/>
       <use xlink:href="#DejaVuSans-2e" x="63.623047"/>
       <use xlink:href="#DejaVuSans-35" x="95.410156"/>
       <use xlink:href="#DejaVuSans-30" x="159.033203"/>
      </g>
     </g>
    </g>
    <g id="ytick_5">
     <g id="line2d_14">
      <g>
       <use xlink:href="#m0c52709074" x="103.074841" y="167.822536" style="stroke: #000000; stroke-width: 0.8"/>
      </g>
     </g>
     <g id="text_14">
      <!-- 0.75 -->
      <g transform="translate(51.543591 175.420973) scale(0.2 -0.2)">
       <defs>
        <path id="DejaVuSans-37" d="M 525 4666 
L 3525 4666 
L 3525 4397 
L 1831 0 
L 1172 0 
L 2766 4134 
L 525 4134 
L 525 4666 
z
" transform="scale(0.015625)"/>
       </defs>
       <use xlink:href="#DejaVuSans-30"/>
       <use xlink:href="#DejaVuSans-2e" x="63.623047"/>
       <use xlink:href="#DejaVuSans-37" x="95.410156"/>
       <use xlink:href="#DejaVuSans-35" x="159.033203"/>
      </g>
     </g>
    </g>
    <g id="ytick_6">
     <g id="line2d_15">
      <g>
       <use xlink:href="#m0c52709074" x="103.074841" y="122.018606" style="stroke: #000000; stroke-width: 0.8"/>
      </g>
     </g>
     <g id="text_15">
      <!-- 1.00 -->
      <g transform="translate(51.543591 129.617044) scale(0.2 -0.2)">
       <use xlink:href="#DejaVuSans-31"/>
       <use xlink:href="#DejaVuSans-2e" x="63.623047"/>
       <use xlink:href="#DejaVuSans-30" x="95.410156"/>
       <use xlink:href="#DejaVuSans-30" x="159.033203"/>
      </g>
     </g>
    </g>
    <g id="ytick_7">
     <g id="line2d_16">
      <g>
       <use xlink:href="#m0c52709074" x="103.074841" y="76.214677" style="stroke: #000000; stroke-width: 0.8"/>
      </g>
     </g>
     <g id="text_16">
      <!-- 1.25 -->
      <g transform="translate(51.543591 83.813115) scale(0.2 -0.2)">
       <use xlink:href="#DejaVuSans-31"/>
       <use xlink:href="#DejaVuSans-2e" x="63.623047"/>
       <use xlink:href="#DejaVuSans-32" x="95.410156"/>
       <use xlink:href="#DejaVuSans-35" x="159.033203"/>
      </g>
     </g>
    </g>
    <g id="ytick_8">
     <g id="line2d_17">
      <g>
       <use xlink:href="#m0c52709074" x="103.074841" y="30.410748" style="stroke: #000000; stroke-width: 0.8"/>
      </g>
     </g>
     <g id="text_17">
      <!-- 1.50 -->
      <g transform="translate(51.543591 38.009186) scale(0.2 -0.2)">
       <use xlink:href="#DejaVuSans-31"/>
       <use xlink:href="#DejaVuSans-2e" x="63.623047"/>
       <use xlink:href="#DejaVuSans-35" x="95.410156"/>
       <use xlink:href="#DejaVuSans-30" x="159.033203"/>
      </g>
     </g>
    </g>
   </g>
   <g id="line2d_18">
    <path d="M 336.469071 305.234323 
L 384.757533 305.234323 
L 392.80561 24.84 
L 400.853687 305.234323 
L 441.094071 305.234323 
L 449.142148 377.64 
L 457.190225 305.234323 
L 505.478687 305.234323 
M 940.074841 305.234323 
" clip-path="url(#paad749a197)" style="fill: none; stroke: #ffa500; stroke-width: 1.5; stroke-linecap: square"/>
   </g>
   <g id="line2d_19">
    <path d="M 103.074841 305.234323 
L 948.274841 305.234323 
" clip-path="url(#paad749a197)" style="fill: none; stroke-dasharray: 7.4,3.2; stroke-dashoffset: 0; stroke: #000000; stroke-width: 2"/>
   </g>
   <g id="patch_3">
    <path d="M 103.074841 395.28 
L 103.074841 7.2 
" style="fill: none; stroke: #000000; stroke-width: 0.8; stroke-linejoin: miter; stroke-linecap: square"/>
   </g>
   <g id="patch_4">
    <path d="M 940.074841 395.28 
L 940.074841 7.2 
" style="fill: none; stroke: #000000; stroke-width: 0.8; stroke-linejoin: miter; stroke-linecap: square"/>
   </g>
   <g id="patch_5">
    <path d="M 103.074841 395.28 
L 940.074841 395.28 
" style="fill: none; stroke: #000000; stroke-width: 0.8; stroke-linejoin: miter; stroke-linecap: square"/>
   </g>
   <g id="patch_6">
    <path d="M 103.074841 7.2 
L 940.074841 7.2 
" style="fill: none; stroke: #000000; stroke-width: 0.8; stroke-linejoin: miter; stroke-linecap: square"/>
   </g>
  </g>
 </g>
 <defs>
  <clipPath id="paad749a197">
   <rect x="103.074841" y="7.2" width="837" height="388.08"/>
  </clipPath>
 </defs>
</svg>
