<?xml version="1.0" encoding="utf-8" standalone="no"?>
<!DOCTYPE svg PUBLIC "-//W3C//DTD SVG 1.1//EN"
  "http://www.w3.org/Graphics/SVG/1.1/DTD/svg11.dtd">
<svg xmlns:xlink="http://www.w3.org/1999/xlink" width="947.274841pt" height="505.354841pt" viewBox="0 0 947.274841 505.354841" xmlns="http://www.w3.org/2000/svg" version="1.1">
 <metadata>
  <rdf:RDF xmlns:dc="http://purl.org/dc/elements/1.1/" xmlns:cc="http://creativecommons.org/ns#" xmlns:rdf="http://www.w3.org/1999/02/22-rdf-syntax-ns#">
   <cc:Work>
    <dc:type rdf:resource="http://purl.org/dc/dcmitype/StillImage"/>
    <dc:date>2023-11-12T23:20:22.926295</dc:date>
    <dc:format>image/svg+xml</dc:format>
    <dc:creator>
     <cc:Agent>
      <dc:title>Matplotlib v3.7.2, https://matplotlib.org/</dc:title>
     </cc:Agent>
    </dc:creator>
   </cc:Work>
  </rdf:RDF>
 </metadata>
 <defs>
  <style type="text/css">*{stroke-linejoin: round; stroke-linecap: butt}</style>
 </defs>
 <g id="figure_1">
  <g id="patch_1">
   <path d="M 0 505.354841 
L 947.274841 505.354841 
L 947.274841 -0 
L 0 -0 
z
" style="fill: #ffffff"/>
  </g>
  <g id="axes_1">
   <g id="patch_2">
    <path d="M 103.074841 395.28 
L 940.074841 395.28 
L 940.074841 7.2 
L 103.074841 7.2 
z
" style="fill: #ffffff"/>
   </g>
   <g id="PolyCollection_1">
    <path d="M -393.000769 377.619826 
L -393.000769 377.64 
L -390.959306 377.550117 
L -388.917842 377.469885 
L -386.876379 377.368178 
L -384.834915 377.296344 
L -382.793452 377.206095 
L -380.751989 377.101865 
L -378.710525 376.995179 
L -376.669062 376.897503 
L -374.627598 376.809906 
L -372.586135 376.714494 
L -370.544672 376.611623 
L -368.503208 376.514501 
L -366.461745 376.399508 
L -364.420281 376.300528 
L -362.378818 376.187323 
L -360.337354 376.087107 
L -358.295891 375.958779 
L -356.254428 375.849147 
L -354.212964 375.74239 
L -352.171501 375.61976 
L -350.130037 375.499193 
L -348.088574 375.38029 
L -346.047111 375.241042 
L -344.005647 375.115552 
L -341.964184 374.972065 
L -339.92272 374.82626 
L -337.881257 374.666768 
L -335.839793 374.502515 
L -333.79833 374.339982 
L -331.756867 374.15513 
L -329.715403 373.948551 
L -327.67394 373.759887 
L -325.632476 373.548335 
L -323.591013 373.309831 
L -321.54955 373.083243 
L -319.508086 372.822153 
L -317.466623 372.555289 
L -315.425159 372.279249 
L -313.383696 371.987734 
L -311.342232 371.667196 
L -309.300769 371.326387 
L -307.259306 370.965518 
L -305.217842 370.612625 
L -303.176379 370.205532 
L -301.134915 369.812228 
L -299.093452 369.39458 
L -297.051989 368.97256 
L -295.010525 368.520883 
L -292.969062 368.035248 
L -290.927598 367.577211 
L -288.886135 367.073749 
L -286.844672 366.553144 
L -284.803208 366.03905 
L -282.761745 365.52723 
L -280.720281 364.977512 
L -278.678818 364.420991 
L -276.637354 363.863585 
L -274.595891 363.28517 
L -272.554428 362.699259 
L -270.512964 362.113292 
L -268.471501 361.509381 
L -266.430037 360.903005 
L -264.388574 360.30306 
L -262.347111 359.681508 
L -260.305647 359.022848 
L -258.264184 358.380574 
L -256.22272 357.738918 
L -254.181257 357.105235 
L -252.139793 356.449709 
L -250.09833 355.806945 
L -248.056867 355.155187 
L -246.015403 354.556877 
L -243.97394 353.871836 
L -241.932476 353.267303 
L -239.891013 352.618456 
L -237.84955 351.997261 
L -235.808086 351.35122 
L -233.766623 350.766877 
L -231.725159 350.110889 
L -229.683696 349.489796 
L -227.642232 348.901494 
L -225.600769 348.275841 
L -223.559306 347.679642 
L -221.517842 347.0611 
L -219.476379 346.433528 
L -217.434915 345.831231 
L -215.393452 345.239421 
L -213.351989 344.609714 
L -211.310525 344.001675 
L -209.269062 343.382316 
L -207.227598 342.772056 
L -205.186135 342.174499 
L -203.144672 341.564203 
L -201.103208 340.949757 
L -199.061745 340.387159 
L -197.020281 339.764583 
L -194.978818 339.164892 
L -192.937354 338.57445 
L -190.895891 337.984455 
L -188.854428 337.396695 
L -186.812964 336.803617 
L -184.771501 336.234423 
L -182.730037 335.647163 
L -180.688574 335.048533 
L -178.647111 334.444933 
L -176.605647 333.836356 
L -174.564184 333.261007 
L -172.52272 332.637643 
L -170.481257 331.979278 
L -168.439793 331.355104 
L -166.39833 330.70176 
L -164.356867 330.039296 
L -162.315403 329.34456 
L -160.27394 328.638216 
L -158.232476 327.974037 
L -156.191013 327.229275 
L -154.14955 326.5154 
L -152.108086 325.753494 
L -150.066623 325.044132 
L -148.025159 324.226908 
L -145.983696 323.422306 
L -143.942232 322.635921 
L -141.900769 321.836187 
L -139.859306 321.013593 
L -137.817842 320.157332 
L -135.776379 319.346176 
L -133.734915 318.431873 
L -131.693452 317.612255 
L -129.651989 316.671039 
L -127.610525 315.753534 
L -125.569062 314.85286 
L -123.527598 313.982023 
L -121.486135 312.984334 
L -119.444672 312.068784 
L -117.403208 310.937043 
L -115.361745 309.942947 
L -113.320281 309.004867 
L -111.278818 307.95996 
L -109.237354 306.888465 
L -107.195891 305.672323 
L -105.154428 304.591082 
L -103.112964 303.887061 
L -101.071501 302.45278 
L -99.030037 301.423442 
L -96.988574 300.340524 
L -94.947111 299.20158 
L -92.905647 297.994996 
L -90.864184 296.782327 
L -88.82272 296.015143 
L -86.781257 294.815375 
L -84.739793 292.876795 
L -82.69833 291.263982 
L -80.656867 290.230236 
L -78.615403 288.520473 
L -76.57394 287.249855 
L -74.532476 286.061221 
L -72.491013 284.436404 
L -70.44955 282.252189 
L -68.408086 280.877344 
L -66.366623 280.060915 
L -64.325159 278.40376 
L -62.283696 277.712603 
L -60.242232 276.586049 
L -58.200769 274.629715 
L -56.159306 274.540912 
L -54.117842 275.024726 
L -52.076379 276.301625 
L -50.034915 274.403669 
L -47.993452 277.527073 
L -45.951989 278.062639 
L -43.910525 273.372386 
L -41.869062 274.453266 
L -39.827598 276.260305 
L -37.786135 274.913427 
L -35.744672 274.508943 
L -33.703208 282.893863 
L -31.661745 294.887724 
L -29.620281 300.791498 
L -27.578818 287.486108 
L -25.537354 294.146144 
L -23.495891 302.914787 
L -21.454428 302.300803 
L -19.412964 320.270292 
L -17.371501 317.719151 
L -15.330037 312.11558 
L -13.288574 298.35544 
L -11.247111 311.166672 
L -9.205647 318.847904 
L -7.164184 315.556158 
L -5.12272 317.520521 
L -3.081257 324.773303 
L -1.039793 323.745844 
L 1.00167 317.393603 
L 3.043133 325.254119 
L 5.084597 326.765745 
L 7.12606 323.878729 
L 9.167524 328.839453 
L 11.208987 330.60696 
L 13.25045 330.037018 
L 15.291914 328.434698 
L 17.333377 330.003949 
L 19.374841 328.23115 
L 21.416304 328.286471 
L 23.457768 329.763089 
L 25.499231 328.178741 
L 27.540694 328.839488 
L 29.582158 328.766205 
L 31.623621 327.447355 
L 33.665085 327.759873 
L 35.706548 325.898648 
L 37.748011 325.872333 
L 39.789475 326.200857 
L 41.830938 326.067602 
L 43.872402 325.055816 
L 45.913865 324.157427 
L 47.955328 323.786594 
L 49.996792 322.792382 
L 52.038255 322.458387 
L 54.079719 322.088365 
L 56.121182 320.65224 
L 58.162646 320.980693 
L 60.204109 319.932803 
L 62.245572 319.328294 
L 64.287036 319.082095 
L 66.328499 318.024303 
L 68.369963 317.547043 
L 70.411426 317.521389 
L 72.452889 317.656102 
L 74.494353 316.076452 
L 76.535816 315.554143 
L 78.57728 314.825535 
L 80.618743 316.723522 
L 82.660207 316.456904 
L 84.70167 316.988893 
L 86.743133 314.55298 
L 88.784597 312.929799 
L 90.82606 313.022179 
L 92.867524 314.159191 
L 94.908987 314.076112 
L 96.95045 311.184704 
L 98.991914 313.02231 
L 101.033377 312.147269 
L 103.074841 311.455083 
L 105.116304 309.933169 
L 107.157768 310.55699 
L 109.199231 309.636409 
L 111.240694 309.827439 
L 113.282158 308.698974 
L 115.323621 307.727701 
L 117.365085 306.264175 
L 119.406548 305.368574 
L 121.448011 304.514879 
L 123.489475 303.478099 
L 125.530938 302.949052 
L 127.572402 301.950957 
L 129.613865 300.903533 
L 131.655328 298.780111 
L 133.696792 297.070906 
L 135.738255 296.082435 
L 137.779719 294.248694 
L 139.821182 293.561831 
L 141.862646 291.896875 
L 143.904109 289.63651 
L 145.945572 287.684168 
L 147.987036 286.106502 
L 150.028499 283.778915 
L 152.069963 282.191512 
L 154.111426 280.068971 
L 156.152889 278.144861 
L 158.194353 275.828594 
L 160.235816 273.84918 
L 162.27728 271.301122 
L 164.318743 269.208084 
L 166.360207 266.966555 
L 168.40167 264.119799 
L 170.443133 261.438212 
L 172.484597 259.377178 
L 174.52606 256.970579 
L 176.567524 254.113269 
L 178.608987 251.775751 
L 180.65045 249.01539 
L 182.691914 245.228361 
L 184.733377 243.329103 
L 186.774841 240.044546 
L 188.816304 237.399442 
L 190.857768 234.389233 
L 192.899231 231.208242 
L 194.940694 227.92011 
L 196.982158 224.885929 
L 199.023621 220.974349 
L 201.065085 218.397438 
L 203.106548 214.536399 
L 205.148011 211.881698 
L 207.189475 207.949221 
L 209.230938 204.170388 
L 211.272402 200.592492 
L 213.313865 197.698648 
L 215.355328 193.293807 
L 217.396792 190.239715 
L 219.438255 186.26523 
L 221.479719 182.998433 
L 223.521182 178.858522 
L 225.562646 175.207102 
L 227.604109 174.321789 
L 229.645572 167.648246 
L 231.687036 166.140795 
L 233.728499 161.773642 
L 235.769963 158.753411 
L 237.811426 155.231413 
L 239.852889 151.561078 
L 241.894353 148.244908 
L 243.935816 144.918405 
L 245.97728 141.866982 
L 248.018743 138.711319 
L 250.060207 140.12756 
L 252.10167 132.224816 
L 254.143133 129.633655 
L 256.184597 135.539873 
L 258.22606 125.786999 
L 260.267524 126.980181 
L 262.308987 125.542812 
L 264.35045 120.476554 
L 266.391914 120.770415 
L 268.433377 125.312164 
L 270.474841 122.083011 
L 272.516304 119.84769 
L 274.557768 122.753394 
L 276.599231 121.742461 
L 278.640694 124.253873 
L 280.682158 127.285106 
L 282.723621 133.720759 
L 284.765085 145.685779 
L 286.806548 143.544228 
L 288.848011 150.842594 
L 290.889475 156.473816 
L 292.930938 159.993095 
L 294.972402 167.772839 
L 297.013865 172.973075 
L 299.055328 165.165071 
L 301.096792 174.261216 
L 303.138255 185.433848 
L 305.179719 191.001417 
L 307.221182 193.739305 
L 309.262646 208.418036 
L 311.304109 209.919648 
L 313.345572 214.170345 
L 315.387036 213.463969 
L 317.428499 225.883389 
L 319.469963 222.468704 
L 321.511426 220.668539 
L 323.552889 231.30116 
L 325.594353 238.935292 
L 327.635816 238.59455 
L 329.67728 243.232797 
L 331.718743 244.925366 
L 333.760207 245.457458 
L 335.80167 245.713164 
L 337.843133 248.368939 
L 339.884597 249.965305 
L 341.92606 257.674541 
L 343.967524 254.049458 
L 346.008987 260.761924 
L 348.05045 259.475684 
L 350.091914 258.76403 
L 352.133377 261.552619 
L 354.174841 264.041551 
L 356.216304 261.191103 
L 358.257768 262.761995 
L 360.299231 262.94557 
L 362.340694 266.547178 
L 364.382158 264.843375 
L 366.423621 264.053383 
L 368.465085 265.068268 
L 370.506548 266.743941 
L 372.548011 265.857487 
L 374.589475 264.092162 
L 376.630938 264.938147 
L 378.672402 262.242791 
L 380.713865 262.358152 
L 382.755328 266.391922 
L 384.796792 265.926801 
L 386.838255 263.297132 
L 388.879719 262.438266 
L 390.921182 262.417929 
L 392.962646 259.527191 
L 395.004109 259.807834 
L 397.045572 259.43595 
L 399.087036 258.510279 
L 401.128499 257.420557 
L 403.169963 255.422827 
L 405.211426 255.945147 
L 407.252889 254.450465 
L 409.294353 253.785083 
L 411.335816 252.780672 
L 413.37728 252.418391 
L 415.418743 250.769465 
L 417.460207 248.135199 
L 419.50167 247.619278 
L 421.543133 245.411897 
L 423.584597 242.42249 
L 425.62606 243.94795 
L 427.667524 240.04394 
L 429.708987 241.177483 
L 431.75045 240.175168 
L 433.791914 240.115588 
L 435.833377 237.546959 
L 437.874841 237.109316 
L 439.916304 236.525342 
L 441.957768 233.456128 
L 443.999231 233.944256 
L 446.040694 233.491319 
L 448.082158 233.187709 
L 450.123621 231.666937 
L 452.165085 232.14008 
L 454.206548 230.606643 
L 456.248011 229.153834 
L 458.289475 226.947514 
L 460.330938 226.174323 
L 462.372402 225.63718 
L 464.413865 224.095542 
L 466.455328 224.235615 
L 468.496792 223.455767 
L 470.538255 222.100431 
L 472.579719 222.097153 
L 474.621182 220.581737 
L 476.662646 221.762776 
L 478.704109 220.704572 
L 480.745572 220.72438 
L 482.787036 218.873592 
L 484.828499 216.360623 
L 486.869963 218.464415 
L 488.911426 218.38356 
L 490.952889 217.566376 
L 492.994353 216.724668 
L 495.035816 214.992669 
L 497.07728 214.60907 
L 499.118743 213.669369 
L 501.160207 213.830597 
L 503.20167 213.490519 
L 505.243133 211.858255 
L 507.284597 209.534742 
L 509.32606 212.605203 
L 511.367524 211.90199 
L 513.408987 209.93334 
L 515.45045 211.221141 
L 517.491914 207.678175 
L 519.533377 208.130167 
L 521.574841 208.369438 
L 523.616304 205.962364 
L 525.657768 210.073884 
L 527.699231 205.946082 
L 529.740694 203.840388 
L 531.782158 206.509832 
L 533.823621 207.210124 
L 535.865085 205.861166 
L 537.906548 206.860356 
L 539.948011 204.912301 
L 541.989475 208.528523 
L 544.030938 206.580889 
L 546.072402 207.25434 
L 548.113865 204.646964 
L 550.155328 202.291854 
L 552.196792 205.044504 
L 554.238255 210.063182 
L 556.279719 204.079282 
L 558.321182 204.27238 
L 560.362646 201.948248 
L 562.404109 202.844455 
L 564.445572 202.414073 
L 566.487036 200.923685 
L 568.528499 200.287536 
L 570.569963 202.665457 
L 572.611426 201.242809 
L 574.652889 203.421563 
L 576.694353 203.750179 
L 578.735816 197.011059 
L 580.77728 199.68638 
L 582.818743 199.859106 
L 584.860207 200.2798 
L 586.90167 200.66159 
L 588.943133 204.907669 
L 590.984597 206.60568 
L 593.02606 206.421701 
L 595.067524 211.136018 
L 597.108987 218.942515 
L 599.15045 209.719318 
L 601.191914 209.660776 
L 603.233377 209.912154 
L 605.274841 213.054031 
L 607.316304 213.822716 
L 609.357768 213.866004 
L 611.399231 220.625202 
L 613.440694 223.152643 
L 615.482158 215.597983 
L 617.523621 222.539049 
L 619.565085 219.189125 
L 621.606548 217.118597 
L 623.648011 225.528613 
L 625.689475 223.891356 
L 627.730938 229.321525 
L 629.772402 227.69019 
L 631.813865 224.047301 
L 633.855328 227.442903 
L 635.896792 227.449097 
L 637.938255 230.778059 
L 639.979719 228.679466 
L 642.021182 234.159348 
L 644.062646 230.200416 
L 646.104109 233.082448 
L 648.145572 232.473464 
L 650.187036 235.642033 
L 652.228499 230.468913 
L 654.269963 235.953186 
L 656.311426 235.618179 
L 658.352889 239.354222 
L 660.394353 241.311673 
L 662.435816 241.295372 
L 664.47728 240.302831 
L 666.518743 242.698181 
L 668.560207 244.480192 
L 670.60167 242.837056 
L 672.643133 242.205303 
L 674.684597 244.307379 
L 676.72606 246.214081 
L 678.767524 242.841407 
L 680.808987 240.883625 
L 682.85045 248.516026 
L 684.891914 251.964197 
L 686.933377 244.101167 
L 688.974841 246.382687 
L 691.016304 247.516258 
L 693.057768 248.056637 
L 695.099231 251.971066 
L 697.140694 251.448557 
L 699.182158 249.834765 
L 701.223621 251.536637 
L 703.265085 251.990837 
L 705.306548 247.766082 
L 707.348011 249.902968 
L 709.389475 248.593932 
L 711.430938 254.447603 
L 713.472402 261.65905 
L 715.513865 260.645229 
L 717.555328 254.96409 
L 719.596792 254.380316 
L 721.638255 255.198293 
L 723.679719 255.507985 
L 725.721182 260.888223 
L 727.762646 254.145816 
L 729.804109 261.344257 
L 731.845572 267.145054 
L 733.887036 262.410774 
L 735.928499 269.858546 
L 737.969963 265.306839 
L 740.011426 269.397949 
L 742.052889 266.81768 
L 744.094353 268.879301 
L 746.135816 272.92197 
L 748.17728 272.739082 
L 750.218743 274.043905 
L 752.260207 274.453828 
L 754.30167 274.971529 
L 756.343133 265.428599 
L 758.384597 277.979269 
L 760.42606 283.214088 
L 762.467524 278.3768 
L 764.508987 283.018548 
L 766.55045 284.140516 
L 768.591914 281.693209 
L 770.633377 286.93728 
L 772.674841 290.520993 
L 774.716304 288.674877 
L 776.757768 290.176914 
L 778.799231 291.106021 
L 780.840694 292.510346 
L 782.882158 296.567399 
L 784.923621 288.874441 
L 786.965085 298.904181 
L 789.006548 299.377135 
L 791.048011 300.03637 
L 793.089475 294.175431 
L 795.130938 301.832232 
L 797.172402 307.009564 
L 799.213865 302.23558 
L 801.255328 303.057802 
L 803.296792 310.223654 
L 805.338255 298.44731 
L 807.379719 309.942479 
L 809.421182 303.174786 
L 811.462646 313.281032 
L 813.504109 308.966615 
L 815.545572 313.527671 
L 817.587036 315.171433 
L 819.628499 317.350611 
L 821.669963 318.236817 
L 823.711426 315.932149 
L 825.752889 316.34588 
L 827.794353 318.012547 
L 829.835816 322.834436 
L 831.87728 322.633082 
L 833.918743 322.880562 
L 835.960207 326.006885 
L 838.00167 326.583227 
L 840.043133 324.777525 
L 842.084597 325.48293 
L 844.12606 330.009175 
L 846.167524 331.00826 
L 848.208987 332.417072 
L 850.25045 329.508467 
L 852.291914 324.917558 
L 854.333377 330.774736 
L 856.374841 329.475289 
L 858.416304 331.321148 
L 860.457768 334.046725 
L 862.499231 331.373311 
L 864.540694 335.569619 
L 866.582158 333.103332 
L 868.623621 333.012913 
L 870.665085 333.099133 
L 872.706548 336.774487 
L 874.748011 336.162439 
L 876.789475 336.105149 
L 878.830938 333.869818 
L 880.872402 335.416735 
L 882.913865 336.198248 
L 884.955328 335.71896 
L 886.996792 338.155628 
L 889.038255 337.79637 
L 891.079719 339.213558 
L 893.121182 340.761198 
L 895.162646 340.7681 
L 897.204109 339.490398 
L 899.245572 339.937922 
L 901.287036 339.153638 
L 903.328499 340.293327 
L 905.369963 340.565439 
L 907.411426 339.007025 
L 909.452889 340.763486 
L 911.494353 332.974535 
L 913.535816 340.591609 
L 915.57728 343.37871 
L 917.618743 340.195176 
L 919.660207 340.068718 
L 921.70167 342.803499 
L 923.743133 342.744663 
L 925.784597 339.868485 
L 927.82606 339.528898 
L 929.867524 341.177623 
L 931.908987 340.365728 
L 933.95045 343.618146 
L 935.991914 342.217808 
L 938.033377 344.704702 
L 940.074841 341.451345 
L 940.074841 293.033703 
L 940.074841 293.033703 
L 938.033377 289.863813 
L 935.991914 285.940724 
L 933.95045 289.850023 
L 931.908987 281.939109 
L 929.867524 283.880992 
L 927.82606 282.574605 
L 925.784597 274.285468 
L 923.743133 284.483877 
L 921.70167 289.843303 
L 919.660207 274.266745 
L 917.618743 280.662365 
L 915.57728 286.774844 
L 913.535816 282.309384 
L 911.494353 231.679429 
L 909.452889 280.216286 
L 907.411426 270.758349 
L 905.369963 280.258822 
L 903.328499 279.238643 
L 901.287036 275.18828 
L 899.245572 275.313946 
L 897.204109 274.091071 
L 895.162646 279.539461 
L 893.121182 279.525027 
L 891.079719 271.977328 
L 889.038255 266.932678 
L 886.996792 270.932716 
L 884.955328 263.745203 
L 882.913865 266.380986 
L 880.872402 262.14118 
L 878.830938 256.782937 
L 876.789475 264.003836 
L 874.748011 264.723687 
L 872.706548 264.6722 
L 870.665085 256.129854 
L 868.623621 254.22515 
L 866.582158 253.788348 
L 864.540694 263.561025 
L 862.499231 249.887842 
L 860.457768 259.009032 
L 858.416304 250.994991 
L 856.374841 244.936467 
L 854.333377 249.802209 
L 852.291914 228.008752 
L 850.25045 247.290405 
L 848.208987 255.208476 
L 846.167524 251.184191 
L 844.12606 249.240448 
L 842.084597 231.80737 
L 840.043133 232.267661 
L 838.00167 238.41656 
L 835.960207 237.951308 
L 833.918743 228.292495 
L 831.87728 228.808631 
L 829.835816 227.98165 
L 827.794353 218.589543 
L 825.752889 210.50766 
L 823.711426 208.768829 
L 821.669963 215.999277 
L 819.628499 213.992409 
L 817.587036 209.876231 
L 815.545572 205.652645 
L 813.504109 191.725775 
L 811.462646 205.817288 
L 809.421182 169.761809 
L 807.379719 194.309104 
L 805.338255 159.982286 
L 803.296792 197.35649 
L 801.255328 176.837891 
L 799.213865 176.531932 
L 797.172402 187.235443 
L 795.130938 174.787872 
L 793.089475 152.00649 
L 791.048011 168.788199 
L 789.006548 168.506107 
L 786.965085 167.881818 
L 784.923621 141.290868 
L 782.882158 154.573578 
L 780.840694 151.456314 
L 778.799231 149.661886 
L 776.757768 146.784738 
L 774.716304 141.265355 
L 772.674841 146.788355 
L 770.633377 137.004159 
L 768.591914 124.773981 
L 766.55045 134.981024 
L 764.508987 126.962206 
L 762.467524 119.807203 
L 760.42606 131.564401 
L 758.384597 118.837112 
L 756.343133 86.101552 
L 754.30167 110.052388 
L 752.260207 109.126244 
L 750.218743 109.204481 
L 748.17728 106.303852 
L 746.135816 106.451178 
L 744.094353 97.535819 
L 742.052889 93.870723 
L 740.011426 100.776749 
L 737.969963 87.820482 
L 735.928499 101.118917 
L 733.887036 83.124768 
L 731.845572 93.512702 
L 729.804109 81.550321 
L 727.762646 66.725862 
L 725.721182 80.424977 
L 723.679719 67.456452 
L 721.638255 68.413201 
L 719.596792 67.906812 
L 717.555328 69.244104 
L 715.513865 81.634785 
L 713.472402 84.65185 
L 711.430938 69.967838 
L 709.389475 54.929183 
L 707.348011 59.277623 
L 705.306548 56.34313 
L 703.265085 65.974934 
L 701.223621 65.128718 
L 699.182158 61.450994 
L 697.140694 66.547584 
L 695.099231 66.321869 
L 693.057768 58.801742 
L 691.016304 59.916286 
L 688.974841 57.130023 
L 686.933377 53.66258 
L 684.891914 71.243061 
L 682.85045 61.679534 
L 680.808987 48.512857 
L 678.767524 55.153765 
L 676.72606 61.12071 
L 674.684597 57.5704 
L 672.643133 54.899947 
L 670.60167 57.424819 
L 668.560207 63.733097 
L 666.518743 57.430473 
L 664.47728 55.281252 
L 662.435816 58.222498 
L 660.394353 54.379725 
L 658.352889 55.967195 
L 656.311426 47.96948 
L 654.269963 51.242045 
L 652.228499 41.428864 
L 650.187036 50.379465 
L 648.145572 46.562604 
L 646.104109 49.249201 
L 644.062646 46.753356 
L 642.021182 52.310107 
L 639.979719 43.528676 
L 637.938255 49.459314 
L 635.896792 44.00619 
L 633.855328 45.348008 
L 631.813865 41.11457 
L 629.772402 43.701409 
L 627.730938 50.347724 
L 625.689475 44.351309 
L 623.648011 46.076123 
L 621.606548 34.053417 
L 619.565085 39.906412 
L 617.523621 42.974112 
L 615.482158 33.755349 
L 613.440694 44.47176 
L 611.399231 45.500644 
L 609.357768 33.792357 
L 607.316304 34.231258 
L 605.274841 33.630505 
L 603.233377 29.58759 
L 601.191914 32.82052 
L 599.15045 32.035674 
L 597.108987 46.356926 
L 595.067524 37.024758 
L 593.02606 30.246666 
L 590.984597 30.818575 
L 588.943133 29.134172 
L 586.90167 25.260981 
L 584.860207 27.257193 
L 582.818743 24.84 
L 580.77728 28.606405 
L 578.735816 24.911552 
L 576.694353 33.442755 
L 574.652889 35.06342 
L 572.611426 33.781525 
L 570.569963 36.127585 
L 568.528499 33.653086 
L 566.487036 36.598235 
L 564.445572 38.550923 
L 562.404109 42.867556 
L 560.362646 40.414867 
L 558.321182 45.162145 
L 556.279719 44.860481 
L 554.238255 53.218882 
L 552.196792 48.435665 
L 550.155328 46.105403 
L 548.113865 49.922194 
L 546.072402 51.885797 
L 544.030938 52.427004 
L 541.989475 57.364386 
L 539.948011 53.818883 
L 537.906548 57.221091 
L 535.865085 56.086977 
L 533.823621 57.125464 
L 531.782158 56.107881 
L 529.740694 54.464484 
L 527.699231 58.365447 
L 525.657768 63.459083 
L 523.616304 58.74515 
L 521.574841 61.797288 
L 519.533377 60.773757 
L 517.491914 62.594341 
L 515.45045 66.534855 
L 513.408987 65.452409 
L 511.367524 68.672568 
L 509.32606 69.654763 
L 507.284597 66.410396 
L 505.243133 68.597019 
L 503.20167 71.01229 
L 501.160207 71.990806 
L 499.118743 72.06474 
L 497.07728 73.826135 
L 495.035816 73.739573 
L 492.994353 76.273246 
L 490.952889 77.097472 
L 488.911426 77.797368 
L 486.869963 78.4948 
L 484.828499 74.441607 
L 482.787036 79.266472 
L 480.745572 81.294212 
L 478.704109 80.929653 
L 476.662646 81.240461 
L 474.621182 81.42983 
L 472.579719 82.948182 
L 470.538255 82.661292 
L 468.496792 84.865531 
L 466.455328 85.742509 
L 464.413865 85.419243 
L 462.372402 86.335788 
L 460.330938 87.522854 
L 458.289475 88.753559 
L 456.248011 92.489582 
L 454.206548 93.522149 
L 452.165085 95.452897 
L 450.123621 94.799686 
L 448.082158 96.692905 
L 446.040694 97.103712 
L 443.999231 97.878384 
L 441.957768 96.352473 
L 439.916304 101.657646 
L 437.874841 102.415154 
L 435.833377 103.082841 
L 433.791914 106.44131 
L 431.75045 106.603434 
L 429.708987 108.240695 
L 427.667524 107.124563 
L 425.62606 111.672026 
L 423.584597 110.883951 
L 421.543133 115.30602 
L 419.50167 118.58643 
L 417.460207 119.861407 
L 415.418743 123.873 
L 413.37728 127.110259 
L 411.335816 127.471862 
L 409.294353 129.638015 
L 407.252889 130.58157 
L 405.211426 133.263528 
L 403.169963 133.062861 
L 401.128499 136.601324 
L 399.087036 139.34319 
L 397.045572 141.124844 
L 395.004109 142.335839 
L 392.962646 143.362207 
L 390.921182 147.074173 
L 388.879719 148.209808 
L 386.838255 150.607116 
L 384.796792 153.966563 
L 382.755328 155.229899 
L 380.713865 152.776512 
L 378.672402 153.861199 
L 376.630938 157.433969 
L 374.589475 158.039228 
L 372.548011 160.531609 
L 370.506548 162.370489 
L 368.465085 161.639937 
L 366.423621 162.804368 
L 364.382158 164.2099 
L 362.340694 166.616549 
L 360.299231 164.179291 
L 358.257768 165.374788 
L 356.216304 165.462448 
L 354.174841 168.780246 
L 352.133377 168.436138 
L 350.091914 166.681548 
L 348.05045 168.447879 
L 346.008987 170.256877 
L 343.967524 165.599356 
L 341.92606 169.915387 
L 339.884597 164.426616 
L 337.843133 164.198236 
L 335.80167 163.108591 
L 333.760207 164.426204 
L 331.718743 164.820723 
L 329.67728 164.164475 
L 327.635816 161.549958 
L 325.594353 163.596153 
L 323.552889 157.46152 
L 321.511426 151.419836 
L 319.469963 152.995819 
L 317.428499 156.290305 
L 315.387036 148.189127 
L 313.345572 148.524626 
L 311.304109 146.722596 
L 309.262646 146.336408 
L 307.221182 136.118264 
L 305.179719 135.423314 
L 303.138255 131.624307 
L 301.096792 123.418435 
L 299.055328 117.720616 
L 297.013865 124.121809 
L 294.972402 121.195065 
L 292.930938 116.091143 
L 290.889475 113.833768 
L 288.848011 110.00767 
L 286.806548 105.053621 
L 284.765085 107.655618 
L 282.723621 98.031962 
L 280.682158 94.74489 
L 278.640694 92.324011 
L 276.599231 90.891524 
L 274.557768 91.960256 
L 272.516304 89.592123 
L 270.474841 91.183144 
L 268.433377 94.662683 
L 266.391914 91.320931 
L 264.35045 90.853872 
L 262.308987 95.687665 
L 260.267524 96.992866 
L 258.22606 96.281533 
L 256.184597 104.78205 
L 254.143133 100.135327 
L 252.10167 102.107928 
L 250.060207 109.826349 
L 248.018743 108.514074 
L 245.97728 111.530969 
L 243.935816 114.424945 
L 241.894353 117.507698 
L 239.852889 120.867021 
L 237.811426 124.377315 
L 235.769963 127.801651 
L 233.728499 130.815079 
L 231.687036 134.726166 
L 229.645572 136.240348 
L 227.604109 142.563142 
L 225.562646 143.475413 
L 223.521182 147.061153 
L 221.479719 150.967091 
L 219.438255 154.108915 
L 217.396792 157.841368 
L 215.355328 160.920027 
L 213.313865 165.062425 
L 211.272402 167.844224 
L 209.230938 171.075986 
L 207.189475 174.734064 
L 205.148011 178.440932 
L 203.106548 180.96969 
L 201.065085 184.556956 
L 199.023621 187.216061 
L 196.982158 190.869026 
L 194.940694 193.845028 
L 192.899231 196.800826 
L 190.857768 199.994741 
L 188.816304 202.895532 
L 186.774841 205.454847 
L 184.733377 208.574071 
L 182.691914 210.4736 
L 180.65045 214.163002 
L 178.608987 216.855637 
L 176.567524 219.299422 
L 174.52606 222.141233 
L 172.484597 224.118834 
L 170.443133 226.702498 
L 168.40167 229.333175 
L 166.360207 232.16197 
L 164.318743 234.463265 
L 162.27728 236.731983 
L 160.235816 239.148415 
L 158.194353 241.489501 
L 156.152889 243.961937 
L 154.111426 246.047674 
L 152.069963 248.261993 
L 150.028499 250.170591 
L 147.987036 252.593504 
L 145.945572 254.49439 
L 143.904109 256.569714 
L 141.862646 259.015743 
L 139.821182 260.871262 
L 137.779719 261.788542 
L 135.738255 263.878849 
L 133.696792 265.201651 
L 131.655328 267.227158 
L 129.613865 269.494677 
L 127.572402 270.904763 
L 125.530938 272.250943 
L 123.489475 272.913262 
L 121.448011 274.287042 
L 119.406548 275.296062 
L 117.365085 276.341658 
L 115.323621 278.062994 
L 113.282158 279.254835 
L 111.240694 280.759571 
L 109.199231 280.612526 
L 107.157768 281.633077 
L 105.116304 281.138596 
L 103.074841 283.025398 
L 101.033377 283.675932 
L 98.991914 285.165114 
L 96.95045 283.329465 
L 94.908987 286.487856 
L 92.867524 286.69015 
L 90.82606 285.542366 
L 88.784597 285.562417 
L 86.743133 287.386643 
L 84.70167 290.234026 
L 82.660207 289.694805 
L 80.618743 290.046531 
L 78.57728 287.991111 
L 76.535816 288.352644 
L 74.494353 289.442145 
L 72.452889 291.316274 
L 70.411426 291.197345 
L 68.369963 291.248361 
L 66.328499 291.836561 
L 64.287036 293.095457 
L 62.245572 293.215191 
L 60.204109 294.118152 
L 58.162646 295.395483 
L 56.121182 295.016362 
L 54.079719 296.706122 
L 52.038255 297.201439 
L 49.996792 297.639955 
L 47.955328 298.784807 
L 45.913865 299.257771 
L 43.872402 300.479852 
L 41.830938 301.783808 
L 39.789475 302.024967 
L 37.748011 301.809108 
L 35.706548 301.708373 
L 33.665085 304.177216 
L 31.623621 303.982528 
L 29.582158 305.696052 
L 27.540694 305.910736 
L 25.499231 305.508699 
L 23.457768 307.190928 
L 21.416304 305.963779 
L 19.374841 306.203656 
L 17.333377 308.279426 
L 15.291914 307.067418 
L 13.25045 309.0311 
L 11.208987 309.766515 
L 9.167524 308.398932 
L 7.12606 303.710786 
L 5.084597 306.955222 
L 3.043133 305.6234 
L 1.00167 298.575808 
L -1.039793 304.857501 
L -3.081257 306.267387 
L -5.12272 299.766495 
L -7.164184 298.09874 
L -9.205647 301.820996 
L -11.247111 294.770229 
L -13.288574 282.650939 
L -15.330037 296.400588 
L -17.371501 302.07041 
L -19.412964 304.976544 
L -21.454428 287.998157 
L -23.495891 288.916937 
L -25.537354 280.865422 
L -27.578818 274.518681 
L -29.620281 287.931494 
L -31.661745 282.579723 
L -33.703208 271.003845 
L -35.744672 263.002306 
L -37.786135 263.81178 
L -39.827598 265.568285 
L -41.869062 264.102583 
L -43.910525 263.36944 
L -45.951989 268.49026 
L -47.993452 268.222024 
L -50.034915 265.414245 
L -52.076379 267.660408 
L -54.117842 266.684979 
L -56.159306 266.526527 
L -58.200769 266.99873 
L -60.242232 269.204617 
L -62.283696 270.670986 
L -64.325159 271.647596 
L -66.366623 273.625916 
L -68.408086 274.71016 
L -70.44955 276.347021 
L -72.491013 278.729171 
L -74.532476 280.719537 
L -76.57394 282.122374 
L -78.615403 283.670083 
L -80.656867 285.578269 
L -82.69833 286.89501 
L -84.739793 288.720493 
L -86.781257 290.876106 
L -88.82272 292.238654 
L -90.864184 293.258034 
L -92.905647 294.647293 
L -94.947111 296.084999 
L -96.988574 297.384677 
L -99.030037 298.625061 
L -101.071501 299.825163 
L -103.112964 301.383878 
L -105.154428 302.290769 
L -107.195891 303.462243 
L -109.237354 304.69176 
L -111.278818 305.760573 
L -113.320281 306.809127 
L -115.361745 307.704258 
L -117.403208 308.666809 
L -119.444672 309.866807 
L -121.486135 310.758327 
L -123.527598 311.767387 
L -125.569062 312.612316 
L -127.610525 313.52529 
L -129.651989 314.45958 
L -131.693452 315.404564 
L -133.734915 316.207128 
L -135.776379 317.134368 
L -137.817842 317.950918 
L -139.859306 318.820675 
L -141.900769 319.639977 
L -143.942232 320.465484 
L -145.983696 321.251578 
L -148.025159 322.069601 
L -150.066623 322.926525 
L -152.108086 323.612529 
L -154.14955 324.42024 
L -156.191013 325.139612 
L -158.232476 325.941053 
L -160.27394 326.574755 
L -162.315403 327.324198 
L -164.356867 328.047907 
L -166.39833 328.731671 
L -168.439793 329.417797 
L -170.481257 330.057773 
L -172.52272 330.786009 
L -174.564184 331.450126 
L -176.605647 332.015436 
L -178.647111 332.666137 
L -180.688574 333.31551 
L -182.730037 333.962179 
L -184.771501 334.590029 
L -186.812964 335.173721 
L -188.854428 335.811252 
L -190.895891 336.438603 
L -192.937354 337.070634 
L -194.978818 337.70238 
L -197.020281 338.351865 
L -199.061745 339.027031 
L -201.103208 339.617157 
L -203.144672 340.287501 
L -205.186135 340.947861 
L -207.227598 341.585714 
L -209.269062 342.243803 
L -211.310525 342.915884 
L -213.351989 343.571334 
L -215.393452 344.257888 
L -217.434915 344.891062 
L -219.476379 345.537342 
L -221.517842 346.218466 
L -223.559306 346.880333 
L -225.600769 347.51363 
L -227.642232 348.181744 
L -229.683696 348.799784 
L -231.725159 349.457444 
L -233.766623 350.155131 
L -235.808086 350.766722 
L -237.84955 351.443882 
L -239.891013 352.091136 
L -241.932476 352.767801 
L -243.97394 353.389932 
L -246.015403 354.104441 
L -248.056867 354.7126 
L -250.09833 355.385143 
L -252.139793 356.045975 
L -254.181257 356.721968 
L -256.22272 357.369272 
L -258.264184 358.027145 
L -260.305647 358.687285 
L -262.347111 359.366343 
L -264.388574 360.003072 
L -266.430037 360.614018 
L -268.471501 361.232802 
L -270.512964 361.850393 
L -272.554428 362.447906 
L -274.595891 363.04793 
L -276.637354 363.639654 
L -278.678818 364.207689 
L -280.720281 364.776387 
L -282.761745 365.338662 
L -284.803208 365.858103 
L -286.844672 366.38131 
L -288.886135 366.914928 
L -290.927598 367.427849 
L -292.969062 367.892305 
L -295.010525 368.389173 
L -297.051989 368.849285 
L -299.093452 369.277518 
L -301.134915 369.702381 
L -303.176379 370.101799 
L -305.217842 370.518961 
L -307.259306 370.877094 
L -309.300769 371.245816 
L -311.342232 371.593997 
L -313.383696 371.92055 
L -315.425159 372.21798 
L -317.466623 372.491989 
L -319.508086 372.760364 
L -321.54955 373.024922 
L -323.591013 373.248774 
L -325.632476 373.493102 
L -327.67394 373.703812 
L -329.715403 373.888582 
L -331.756867 374.098574 
L -333.79833 374.284952 
L -335.839793 374.443147 
L -337.881257 374.60995 
L -339.92272 374.771989 
L -341.964184 374.916763 
L -344.005647 375.061242 
L -346.047111 375.184222 
L -348.088574 375.327358 
L -350.130037 375.445289 
L -352.171501 375.567583 
L -354.212964 375.69434 
L -356.254428 375.801112 
L -358.295891 375.912528 
L -360.337354 376.051046 
L -362.378818 376.15406 
L -364.420281 376.274765 
L -366.461745 376.374572 
L -368.503208 376.499255 
L -370.544672 376.600253 
L -372.586135 376.703861 
L -374.627598 376.799002 
L -376.669062 376.884767 
L -378.710525 376.980191 
L -380.751989 377.0804 
L -382.793452 377.179136 
L -384.834915 377.266366 
L -386.876379 377.341216 
L -388.917842 377.439476 
L -390.959306 377.523228 
L -393.000769 377.619826 
z
" clip-path="url(#pf30d472afe)" style="fill: #008000; fill-opacity: 0.3; stroke: #008000; stroke-opacity: 0.3"/>
   </g>
   <g id="matplotlib.axis_1">
    <g id="xtick_1">
     <g id="line2d_1">
      <defs>
       <path id="m46f0dbe9e8" d="M 0 0 
L 0 3.5 
" style="stroke: #000000; stroke-width: 0.8"/>
      </defs>
      <g>
       <use xlink:href="#m46f0dbe9e8" x="103.074841" y="395.28" style="stroke: #000000; stroke-width: 0.8"/>
      </g>
     </g>
     <g id="text_1">
      <!-- 2022-03-01 -->
      <g transform="translate(17.945813 495.213718) rotate(-45) scale(0.2 -0.2)">
       <defs>
        <path id="DejaVuSans-32" d="M 1228 531 
L 3431 531 
L 3431 0 
L 469 0 
L 469 531 
Q 828 903 1448 1529 
Q 2069 2156 2228 2338 
Q 2531 2678 2651 2914 
Q 2772 3150 2772 3378 
Q 2772 3750 2511 3984 
Q 2250 4219 1831 4219 
Q 1534 4219 1204 4116 
Q 875 4013 500 3803 
L 500 4441 
Q 881 4594 1212 4672 
Q 1544 4750 1819 4750 
Q 2544 4750 2975 4387 
Q 3406 4025 3406 3419 
Q 3406 3131 3298 2873 
Q 3191 2616 2906 2266 
Q 2828 2175 2409 1742 
Q 1991 1309 1228 531 
z
" transform="scale(0.015625)"/>
        <path id="DejaVuSans-30" d="M 2034 4250 
Q 1547 4250 1301 3770 
Q 1056 3291 1056 2328 
Q 1056 1369 1301 889 
Q 1547 409 2034 409 
Q 2525 409 2770 889 
Q 3016 1369 3016 2328 
Q 3016 3291 2770 3770 
Q 2525 4250 2034 4250 
z
M 2034 4750 
Q 2819 4750 3233 4129 
Q 3647 3509 3647 2328 
Q 3647 1150 3233 529 
Q 2819 -91 2034 -91 
Q 1250 -91 836 529 
Q 422 1150 422 2328 
Q 422 3509 836 4129 
Q 1250 4750 2034 4750 
z
" transform="scale(0.015625)"/>
        <path id="DejaVuSans-2d" d="M 313 2009 
L 1997 2009 
L 1997 1497 
L 313 1497 
L 313 2009 
z
" transform="scale(0.015625)"/>
        <path id="DejaVuSans-33" d="M 2597 2516 
Q 3050 2419 3304 2112 
Q 3559 1806 3559 1356 
Q 3559 666 3084 287 
Q 2609 -91 1734 -91 
Q 1441 -91 1130 -33 
Q 819 25 488 141 
L 488 750 
Q 750 597 1062 519 
Q 1375 441 1716 441 
Q 2309 441 2620 675 
Q 2931 909 2931 1356 
Q 2931 1769 2642 2001 
Q 2353 2234 1838 2234 
L 1294 2234 
L 1294 2753 
L 1863 2753 
Q 2328 2753 2575 2939 
Q 2822 3125 2822 3475 
Q 2822 3834 2567 4026 
Q 2313 4219 1838 4219 
Q 1578 4219 1281 4162 
Q 984 4106 628 3988 
L 628 4550 
Q 988 4650 1302 4700 
Q 1616 4750 1894 4750 
Q 2613 4750 3031 4423 
Q 3450 4097 3450 3541 
Q 3450 3153 3228 2886 
Q 3006 2619 2597 2516 
z
" transform="scale(0.015625)"/>
        <path id="DejaVuSans-31" d="M 794 531 
L 1825 531 
L 1825 4091 
L 703 3866 
L 703 4441 
L 1819 4666 
L 2450 4666 
L 2450 531 
L 3481 531 
L 3481 0 
L 794 0 
L 794 531 
z
" transform="scale(0.015625)"/>
       </defs>
       <use xlink:href="#DejaVuSans-32"/>
       <use xlink:href="#DejaVuSans-30" x="63.623047"/>
       <use xlink:href="#DejaVuSans-32" x="127.246094"/>
       <use xlink:href="#DejaVuSans-32" x="190.869141"/>
       <use xlink:href="#DejaVuSans-2d" x="254.492188"/>
       <use xlink:href="#DejaVuSans-30" x="290.576172"/>
       <use xlink:href="#DejaVuSans-33" x="354.199219"/>
       <use xlink:href="#DejaVuSans-2d" x="417.822266"/>
       <use xlink:href="#DejaVuSans-30" x="453.90625"/>
       <use xlink:href="#DejaVuSans-31" x="517.529297"/>
      </g>
     </g>
    </g>
    <g id="xtick_2">
     <g id="line2d_2">
      <g>
       <use xlink:href="#m46f0dbe9e8" x="160.235816" y="395.28" style="stroke: #000000; stroke-width: 0.8"/>
      </g>
     </g>
     <g id="text_2">
      <!-- 2022-03-29 -->
      <g transform="translate(75.106789 495.213718) rotate(-45) scale(0.2 -0.2)">
       <defs>
        <path id="DejaVuSans-39" d="M 703 97 
L 703 672 
Q 941 559 1184 500 
Q 1428 441 1663 441 
Q 2288 441 2617 861 
Q 2947 1281 2994 2138 
Q 2813 1869 2534 1725 
Q 2256 1581 1919 1581 
Q 1219 1581 811 2004 
Q 403 2428 403 3163 
Q 403 3881 828 4315 
Q 1253 4750 1959 4750 
Q 2769 4750 3195 4129 
Q 3622 3509 3622 2328 
Q 3622 1225 3098 567 
Q 2575 -91 1691 -91 
Q 1453 -91 1209 -44 
Q 966 3 703 97 
z
M 1959 2075 
Q 2384 2075 2632 2365 
Q 2881 2656 2881 3163 
Q 2881 3666 2632 3958 
Q 2384 4250 1959 4250 
Q 1534 4250 1286 3958 
Q 1038 3666 1038 3163 
Q 1038 2656 1286 2365 
Q 1534 2075 1959 2075 
z
" transform="scale(0.015625)"/>
       </defs>
       <use xlink:href="#DejaVuSans-32"/>
       <use xlink:href="#DejaVuSans-30" x="63.623047"/>
       <use xlink:href="#DejaVuSans-32" x="127.246094"/>
       <use xlink:href="#DejaVuSans-32" x="190.869141"/>
       <use xlink:href="#DejaVuSans-2d" x="254.492188"/>
       <use xlink:href="#DejaVuSans-30" x="290.576172"/>
       <use xlink:href="#DejaVuSans-33" x="354.199219"/>
       <use xlink:href="#DejaVuSans-2d" x="417.822266"/>
       <use xlink:href="#DejaVuSans-32" x="453.90625"/>
       <use xlink:href="#DejaVuSans-39" x="517.529297"/>
      </g>
     </g>
    </g>
    <g id="xtick_3">
     <g id="line2d_3">
      <g>
       <use xlink:href="#m46f0dbe9e8" x="217.396792" y="395.28" style="stroke: #000000; stroke-width: 0.8"/>
      </g>
     </g>
     <g id="text_3">
      <!-- 2022-04-26 -->
      <g transform="translate(132.267765 495.213718) rotate(-45) scale(0.2 -0.2)">
       <defs>
        <path id="DejaVuSans-34" d="M 2419 4116 
L 825 1625 
L 2419 1625 
L 2419 4116 
z
M 2253 4666 
L 3047 4666 
L 3047 1625 
L 3713 1625 
L 3713 1100 
L 3047 1100 
L 3047 0 
L 2419 0 
L 2419 1100 
L 313 1100 
L 313 1709 
L 2253 4666 
z
" transform="scale(0.015625)"/>
        <path id="DejaVuSans-36" d="M 2113 2584 
Q 1688 2584 1439 2293 
Q 1191 2003 1191 1497 
Q 1191 994 1439 701 
Q 1688 409 2113 409 
Q 2538 409 2786 701 
Q 3034 994 3034 1497 
Q 3034 2003 2786 2293 
Q 2538 2584 2113 2584 
z
M 3366 4563 
L 3366 3988 
Q 3128 4100 2886 4159 
Q 2644 4219 2406 4219 
Q 1781 4219 1451 3797 
Q 1122 3375 1075 2522 
Q 1259 2794 1537 2939 
Q 1816 3084 2150 3084 
Q 2853 3084 3261 2657 
Q 3669 2231 3669 1497 
Q 3669 778 3244 343 
Q 2819 -91 2113 -91 
Q 1303 -91 875 529 
Q 447 1150 447 2328 
Q 447 3434 972 4092 
Q 1497 4750 2381 4750 
Q 2619 4750 2861 4703 
Q 3103 4656 3366 4563 
z
" transform="scale(0.015625)"/>
       </defs>
       <use xlink:href="#DejaVuSans-32"/>
       <use xlink:href="#DejaVuSans-30" x="63.623047"/>
       <use xlink:href="#DejaVuSans-32" x="127.246094"/>
       <use xlink:href="#DejaVuSans-32" x="190.869141"/>
       <use xlink:href="#DejaVuSans-2d" x="254.492188"/>
       <use xlink:href="#DejaVuSans-30" x="290.576172"/>
       <use xlink:href="#DejaVuSans-34" x="354.199219"/>
       <use xlink:href="#DejaVuSans-2d" x="417.822266"/>
       <use xlink:href="#DejaVuSans-32" x="453.90625"/>
       <use xlink:href="#DejaVuSans-36" x="517.529297"/>
      </g>
     </g>
    </g>
    <g id="xtick_4">
     <g id="line2d_4">
      <g>
       <use xlink:href="#m46f0dbe9e8" x="274.557768" y="395.28" style="stroke: #000000; stroke-width: 0.8"/>
      </g>
     </g>
     <g id="text_4">
      <!-- 2022-05-24 -->
      <g transform="translate(189.42874 495.213718) rotate(-45) scale(0.2 -0.2)">
       <defs>
        <path id="DejaVuSans-35" d="M 691 4666 
L 3169 4666 
L 3169 4134 
L 1269 4134 
L 1269 2991 
Q 1406 3038 1543 3061 
Q 1681 3084 1819 3084 
Q 2600 3084 3056 2656 
Q 3513 2228 3513 1497 
Q 3513 744 3044 326 
Q 2575 -91 1722 -91 
Q 1428 -91 1123 -41 
Q 819 9 494 109 
L 494 744 
Q 775 591 1075 516 
Q 1375 441 1709 441 
Q 2250 441 2565 725 
Q 2881 1009 2881 1497 
Q 2881 1984 2565 2268 
Q 2250 2553 1709 2553 
Q 1456 2553 1204 2497 
Q 953 2441 691 2322 
L 691 4666 
z
" transform="scale(0.015625)"/>
       </defs>
       <use xlink:href="#DejaVuSans-32"/>
       <use xlink:href="#DejaVuSans-30" x="63.623047"/>
       <use xlink:href="#DejaVuSans-32" x="127.246094"/>
       <use xlink:href="#DejaVuSans-32" x="190.869141"/>
       <use xlink:href="#DejaVuSans-2d" x="254.492188"/>
       <use xlink:href="#DejaVuSans-30" x="290.576172"/>
       <use xlink:href="#DejaVuSans-35" x="354.199219"/>
       <use xlink:href="#DejaVuSans-2d" x="417.822266"/>
       <use xlink:href="#DejaVuSans-32" x="453.90625"/>
       <use xlink:href="#DejaVuSans-34" x="517.529297"/>
      </g>
     </g>
    </g>
    <g id="xtick_5">
     <g id="line2d_5">
      <g>
       <use xlink:href="#m46f0dbe9e8" x="331.718743" y="395.28" style="stroke: #000000; stroke-width: 0.8"/>
      </g>
     </g>
     <g id="text_5">
      <!-- 2022-06-21 -->
      <g transform="translate(246.589716 495.213718) rotate(-45) scale(0.2 -0.2)">
       <use xlink:href="#DejaVuSans-32"/>
       <use xlink:href="#DejaVuSans-30" x="63.623047"/>
       <use xlink:href="#DejaVuSans-32" x="127.246094"/>
       <use xlink:href="#DejaVuSans-32" x="190.869141"/>
       <use xlink:href="#DejaVuSans-2d" x="254.492188"/>
       <use xlink:href="#DejaVuSans-30" x="290.576172"/>
       <use xlink:href="#DejaVuSans-36" x="354.199219"/>
       <use xlink:href="#DejaVuSans-2d" x="417.822266"/>
       <use xlink:href="#DejaVuSans-32" x="453.90625"/>
       <use xlink:href="#DejaVuSans-31" x="517.529297"/>
      </g>
     </g>
    </g>
    <g id="xtick_6">
     <g id="line2d_6">
      <g>
       <use xlink:href="#m46f0dbe9e8" x="388.879719" y="395.28" style="stroke: #000000; stroke-width: 0.8"/>
      </g>
     </g>
     <g id="text_6">
      <!-- 2022-07-19 -->
      <g transform="translate(303.750691 495.213718) rotate(-45) scale(0.2 -0.2)">
       <defs>
        <path id="DejaVuSans-37" d="M 525 4666 
L 3525 4666 
L 3525 4397 
L 1831 0 
L 1172 0 
L 2766 4134 
L 525 4134 
L 525 4666 
z
" transform="scale(0.015625)"/>
       </defs>
       <use xlink:href="#DejaVuSans-32"/>
       <use xlink:href="#DejaVuSans-30" x="63.623047"/>
       <use xlink:href="#DejaVuSans-32" x="127.246094"/>
       <use xlink:href="#DejaVuSans-32" x="190.869141"/>
       <use xlink:href="#DejaVuSans-2d" x="254.492188"/>
       <use xlink:href="#DejaVuSans-30" x="290.576172"/>
       <use xlink:href="#DejaVuSans-37" x="354.199219"/>
       <use xlink:href="#DejaVuSans-2d" x="417.822266"/>
       <use xlink:href="#DejaVuSans-31" x="453.90625"/>
       <use xlink:href="#DejaVuSans-39" x="517.529297"/>
      </g>
     </g>
    </g>
    <g id="xtick_7">
     <g id="line2d_7">
      <g>
       <use xlink:href="#m46f0dbe9e8" x="446.040694" y="395.28" style="stroke: #000000; stroke-width: 0.8"/>
      </g>
     </g>
     <g id="text_7">
      <!-- 2022-08-16 -->
      <g transform="translate(360.911667 495.213718) rotate(-45) scale(0.2 -0.2)">
       <defs>
        <path id="DejaVuSans-38" d="M 2034 2216 
Q 1584 2216 1326 1975 
Q 1069 1734 1069 1313 
Q 1069 891 1326 650 
Q 1584 409 2034 409 
Q 2484 409 2743 651 
Q 3003 894 3003 1313 
Q 3003 1734 2745 1975 
Q 2488 2216 2034 2216 
z
M 1403 2484 
Q 997 2584 770 2862 
Q 544 3141 544 3541 
Q 544 4100 942 4425 
Q 1341 4750 2034 4750 
Q 2731 4750 3128 4425 
Q 3525 4100 3525 3541 
Q 3525 3141 3298 2862 
Q 3072 2584 2669 2484 
Q 3125 2378 3379 2068 
Q 3634 1759 3634 1313 
Q 3634 634 3220 271 
Q 2806 -91 2034 -91 
Q 1263 -91 848 271 
Q 434 634 434 1313 
Q 434 1759 690 2068 
Q 947 2378 1403 2484 
z
M 1172 3481 
Q 1172 3119 1398 2916 
Q 1625 2713 2034 2713 
Q 2441 2713 2670 2916 
Q 2900 3119 2900 3481 
Q 2900 3844 2670 4047 
Q 2441 4250 2034 4250 
Q 1625 4250 1398 4047 
Q 1172 3844 1172 3481 
z
" transform="scale(0.015625)"/>
       </defs>
       <use xlink:href="#DejaVuSans-32"/>
       <use xlink:href="#DejaVuSans-30" x="63.623047"/>
       <use xlink:href="#DejaVuSans-32" x="127.246094"/>
       <use xlink:href="#DejaVuSans-32" x="190.869141"/>
       <use xlink:href="#DejaVuSans-2d" x="254.492188"/>
       <use xlink:href="#DejaVuSans-30" x="290.576172"/>
       <use xlink:href="#DejaVuSans-38" x="354.199219"/>
       <use xlink:href="#DejaVuSans-2d" x="417.822266"/>
       <use xlink:href="#DejaVuSans-31" x="453.90625"/>
       <use xlink:href="#DejaVuSans-36" x="517.529297"/>
      </g>
     </g>
    </g>
    <g id="xtick_8">
     <g id="line2d_8">
      <g>
       <use xlink:href="#m46f0dbe9e8" x="503.20167" y="395.28" style="stroke: #000000; stroke-width: 0.8"/>
      </g>
     </g>
     <g id="text_8">
      <!-- 2022-09-13 -->
      <g transform="translate(418.072643 495.213718) rotate(-45) scale(0.2 -0.2)">
       <use xlink:href="#DejaVuSans-32"/>
       <use xlink:href="#DejaVuSans-30" x="63.623047"/>
       <use xlink:href="#DejaVuSans-32" x="127.246094"/>
       <use xlink:href="#DejaVuSans-32" x="190.869141"/>
       <use xlink:href="#DejaVuSans-2d" x="254.492188"/>
       <use xlink:href="#DejaVuSans-30" x="290.576172"/>
       <use xlink:href="#DejaVuSans-39" x="354.199219"/>
       <use xlink:href="#DejaVuSans-2d" x="417.822266"/>
       <use xlink:href="#DejaVuSans-31" x="453.90625"/>
       <use xlink:href="#DejaVuSans-33" x="517.529297"/>
      </g>
     </g>
    </g>
    <g id="xtick_9">
     <g id="line2d_9">
      <g>
       <use xlink:href="#m46f0dbe9e8" x="560.362646" y="395.28" style="stroke: #000000; stroke-width: 0.8"/>
      </g>
     </g>
     <g id="text_9">
      <!-- 2022-10-11 -->
      <g transform="translate(475.233618 495.213718) rotate(-45) scale(0.2 -0.2)">
       <use xlink:href="#DejaVuSans-32"/>
       <use xlink:href="#DejaVuSans-30" x="63.623047"/>
       <use xlink:href="#DejaVuSans-32" x="127.246094"/>
       <use xlink:href="#DejaVuSans-32" x="190.869141"/>
       <use xlink:href="#DejaVuSans-2d" x="254.492188"/>
       <use xlink:href="#DejaVuSans-31" x="290.576172"/>
       <use xlink:href="#DejaVuSans-30" x="354.199219"/>
       <use xlink:href="#DejaVuSans-2d" x="417.822266"/>
       <use xlink:href="#DejaVuSans-31" x="453.90625"/>
       <use xlink:href="#DejaVuSans-31" x="517.529297"/>
      </g>
     </g>
    </g>
    <g id="xtick_10">
     <g id="line2d_10">
      <g>
       <use xlink:href="#m46f0dbe9e8" x="617.523621" y="395.28" style="stroke: #000000; stroke-width: 0.8"/>
      </g>
     </g>
     <g id="text_10">
      <!-- 2022-11-08 -->
      <g transform="translate(532.394594 495.213718) rotate(-45) scale(0.2 -0.2)">
       <use xlink:href="#DejaVuSans-32"/>
       <use xlink:href="#DejaVuSans-30" x="63.623047"/>
       <use xlink:href="#DejaVuSans-32" x="127.246094"/>
       <use xlink:href="#DejaVuSans-32" x="190.869141"/>
       <use xlink:href="#DejaVuSans-2d" x="254.492188"/>
       <use xlink:href="#DejaVuSans-31" x="290.576172"/>
       <use xlink:href="#DejaVuSans-31" x="354.199219"/>
       <use xlink:href="#DejaVuSans-2d" x="417.822266"/>
       <use xlink:href="#DejaVuSans-30" x="453.90625"/>
       <use xlink:href="#DejaVuSans-38" x="517.529297"/>
      </g>
     </g>
    </g>
    <g id="xtick_11">
     <g id="line2d_11">
      <g>
       <use xlink:href="#m46f0dbe9e8" x="674.684597" y="395.28" style="stroke: #000000; stroke-width: 0.8"/>
      </g>
     </g>
     <g id="text_11">
      <!-- 2022-12-06 -->
      <g transform="translate(589.555569 495.213718) rotate(-45) scale(0.2 -0.2)">
       <use xlink:href="#DejaVuSans-32"/>
       <use xlink:href="#DejaVuSans-30" x="63.623047"/>
       <use xlink:href="#DejaVuSans-32" x="127.246094"/>
       <use xlink:href="#DejaVuSans-32" x="190.869141"/>
       <use xlink:href="#DejaVuSans-2d" x="254.492188"/>
       <use xlink:href="#DejaVuSans-31" x="290.576172"/>
       <use xlink:href="#DejaVuSans-32" x="354.199219"/>
       <use xlink:href="#DejaVuSans-2d" x="417.822266"/>
       <use xlink:href="#DejaVuSans-30" x="453.90625"/>
       <use xlink:href="#DejaVuSans-36" x="517.529297"/>
      </g>
     </g>
    </g>
    <g id="xtick_12">
     <g id="line2d_12">
      <g>
       <use xlink:href="#m46f0dbe9e8" x="731.845572" y="395.28" style="stroke: #000000; stroke-width: 0.8"/>
      </g>
     </g>
     <g id="text_12">
      <!-- 2023-01-03 -->
      <g transform="translate(646.716545 495.213718) rotate(-45) scale(0.2 -0.2)">
       <use xlink:href="#DejaVuSans-32"/>
       <use xlink:href="#DejaVuSans-30" x="63.623047"/>
       <use xlink:href="#DejaVuSans-32" x="127.246094"/>
       <use xlink:href="#DejaVuSans-33" x="190.869141"/>
       <use xlink:href="#DejaVuSans-2d" x="254.492188"/>
       <use xlink:href="#DejaVuSans-30" x="290.576172"/>
       <use xlink:href="#DejaVuSans-31" x="354.199219"/>
       <use xlink:href="#DejaVuSans-2d" x="417.822266"/>
       <use xlink:href="#DejaVuSans-30" x="453.90625"/>
       <use xlink:href="#DejaVuSans-33" x="517.529297"/>
      </g>
     </g>
    </g>
    <g id="xtick_13">
     <g id="line2d_13">
      <g>
       <use xlink:href="#m46f0dbe9e8" x="789.006548" y="395.28" style="stroke: #000000; stroke-width: 0.8"/>
      </g>
     </g>
     <g id="text_13">
      <!-- 2023-01-31 -->
      <g transform="translate(703.877521 495.213718) rotate(-45) scale(0.2 -0.2)">
       <use xlink:href="#DejaVuSans-32"/>
       <use xlink:href="#DejaVuSans-30" x="63.623047"/>
       <use xlink:href="#DejaVuSans-32" x="127.246094"/>
       <use xlink:href="#DejaVuSans-33" x="190.869141"/>
       <use xlink:href="#DejaVuSans-2d" x="254.492188"/>
       <use xlink:href="#DejaVuSans-30" x="290.576172"/>
       <use xlink:href="#DejaVuSans-31" x="354.199219"/>
       <use xlink:href="#DejaVuSans-2d" x="417.822266"/>
       <use xlink:href="#DejaVuSans-33" x="453.90625"/>
       <use xlink:href="#DejaVuSans-31" x="517.529297"/>
      </g>
     </g>
    </g>
    <g id="xtick_14">
     <g id="line2d_14">
      <g>
       <use xlink:href="#m46f0dbe9e8" x="846.167524" y="395.28" style="stroke: #000000; stroke-width: 0.8"/>
      </g>
     </g>
     <g id="text_14">
      <!-- 2023-02-28 -->
      <g transform="translate(761.038496 495.213718) rotate(-45) scale(0.2 -0.2)">
       <use xlink:href="#DejaVuSans-32"/>
       <use xlink:href="#DejaVuSans-30" x="63.623047"/>
       <use xlink:href="#DejaVuSans-32" x="127.246094"/>
       <use xlink:href="#DejaVuSans-33" x="190.869141"/>
       <use xlink:href="#DejaVuSans-2d" x="254.492188"/>
       <use xlink:href="#DejaVuSans-30" x="290.576172"/>
       <use xlink:href="#DejaVuSans-32" x="354.199219"/>
       <use xlink:href="#DejaVuSans-2d" x="417.822266"/>
       <use xlink:href="#DejaVuSans-32" x="453.90625"/>
       <use xlink:href="#DejaVuSans-38" x="517.529297"/>
      </g>
     </g>
    </g>
    <g id="xtick_15">
     <g id="line2d_15">
      <g>
       <use xlink:href="#m46f0dbe9e8" x="903.328499" y="395.28" style="stroke: #000000; stroke-width: 0.8"/>
      </g>
     </g>
     <g id="text_15">
      <!-- 2023-03-28 -->
      <g transform="translate(818.199472 495.213718) rotate(-45) scale(0.2 -0.2)">
       <use xlink:href="#DejaVuSans-32"/>
       <use xlink:href="#DejaVuSans-30" x="63.623047"/>
       <use xlink:href="#DejaVuSans-32" x="127.246094"/>
       <use xlink:href="#DejaVuSans-33" x="190.869141"/>
       <use xlink:href="#DejaVuSans-2d" x="254.492188"/>
       <use xlink:href="#DejaVuSans-30" x="290.576172"/>
       <use xlink:href="#DejaVuSans-33" x="354.199219"/>
       <use xlink:href="#DejaVuSans-2d" x="417.822266"/>
       <use xlink:href="#DejaVuSans-32" x="453.90625"/>
       <use xlink:href="#DejaVuSans-38" x="517.529297"/>
      </g>
     </g>
    </g>
    <g id="xtick_16">
     <g id="line2d_16">
      <g>
       <use xlink:href="#m46f0dbe9e8" x="940.074841" y="395.28" style="stroke: #000000; stroke-width: 0.8"/>
      </g>
     </g>
     <g id="text_16">
      <!-- 2023-04-15 -->
      <g transform="translate(854.945813 495.213718) rotate(-45) scale(0.2 -0.2)">
       <use xlink:href="#DejaVuSans-32"/>
       <use xlink:href="#DejaVuSans-30" x="63.623047"/>
       <use xlink:href="#DejaVuSans-32" x="127.246094"/>
       <use xlink:href="#DejaVuSans-33" x="190.869141"/>
       <use xlink:href="#DejaVuSans-2d" x="254.492188"/>
       <use xlink:href="#DejaVuSans-30" x="290.576172"/>
       <use xlink:href="#DejaVuSans-34" x="354.199219"/>
       <use xlink:href="#DejaVuSans-2d" x="417.822266"/>
       <use xlink:href="#DejaVuSans-31" x="453.90625"/>
       <use xlink:href="#DejaVuSans-35" x="517.529297"/>
      </g>
     </g>
    </g>
   </g>
   <g id="matplotlib.axis_2">
    <g id="ytick_1">
     <g id="line2d_17">
      <defs>
       <path id="mfeaff75b6e" d="M 0 0 
L -3.5 0 
" style="stroke: #000000; stroke-width: 0.8"/>
      </defs>
      <g>
       <use xlink:href="#mfeaff75b6e" x="103.074841" y="377.708604" style="stroke: #000000; stroke-width: 0.8"/>
      </g>
     </g>
     <g id="text_17">
      <!-- 0.00 -->
      <g transform="translate(51.543591 385.307041) scale(0.2 -0.2)">
       <defs>
        <path id="DejaVuSans-2e" d="M 684 794 
L 1344 794 
L 1344 0 
L 684 0 
L 684 794 
z
" transform="scale(0.015625)"/>
       </defs>
       <use xlink:href="#DejaVuSans-30"/>
       <use xlink:href="#DejaVuSans-2e" x="63.623047"/>
       <use xlink:href="#DejaVuSans-30" x="95.410156"/>
       <use xlink:href="#DejaVuSans-30" x="159.033203"/>
      </g>
     </g>
    </g>
    <g id="ytick_2">
     <g id="line2d_18">
      <g>
       <use xlink:href="#mfeaff75b6e" x="103.074841" y="314.521357" style="stroke: #000000; stroke-width: 0.8"/>
      </g>
     </g>
     <g id="text_18">
      <!-- 0.05 -->
      <g transform="translate(51.543591 322.119795) scale(0.2 -0.2)">
       <use xlink:href="#DejaVuSans-30"/>
       <use xlink:href="#DejaVuSans-2e" x="63.623047"/>
       <use xlink:href="#DejaVuSans-30" x="95.410156"/>
       <use xlink:href="#DejaVuSans-35" x="159.033203"/>
      </g>
     </g>
    </g>
    <g id="ytick_3">
     <g id="line2d_19">
      <g>
       <use xlink:href="#mfeaff75b6e" x="103.074841" y="251.334111" style="stroke: #000000; stroke-width: 0.8"/>
      </g>
     </g>
     <g id="text_19">
      <!-- 0.10 -->
      <g transform="translate(51.543591 258.932548) scale(0.2 -0.2)">
       <use xlink:href="#DejaVuSans-30"/>
       <use xlink:href="#DejaVuSans-2e" x="63.623047"/>
       <use xlink:href="#DejaVuSans-31" x="95.410156"/>
       <use xlink:href="#DejaVuSans-30" x="159.033203"/>
      </g>
     </g>
    </g>
    <g id="ytick_4">
     <g id="line2d_20">
      <g>
       <use xlink:href="#mfeaff75b6e" x="103.074841" y="188.146864" style="stroke: #000000; stroke-width: 0.8"/>
      </g>
     </g>
     <g id="text_20">
      <!-- 0.15 -->
      <g transform="translate(51.543591 195.745302) scale(0.2 -0.2)">
       <use xlink:href="#DejaVuSans-30"/>
       <use xlink:href="#DejaVuSans-2e" x="63.623047"/>
       <use xlink:href="#DejaVuSans-31" x="95.410156"/>
       <use xlink:href="#DejaVuSans-35" x="159.033203"/>
      </g>
     </g>
    </g>
    <g id="ytick_5">
     <g id="line2d_21">
      <g>
       <use xlink:href="#mfeaff75b6e" x="103.074841" y="124.959618" style="stroke: #000000; stroke-width: 0.8"/>
      </g>
     </g>
     <g id="text_21">
      <!-- 0.20 -->
      <g transform="translate(51.543591 132.558055) scale(0.2 -0.2)">
       <use xlink:href="#DejaVuSans-30"/>
       <use xlink:href="#DejaVuSans-2e" x="63.623047"/>
       <use xlink:href="#DejaVuSans-32" x="95.410156"/>
       <use xlink:href="#DejaVuSans-30" x="159.033203"/>
      </g>
     </g>
    </g>
    <g id="ytick_6">
     <g id="line2d_22">
      <g>
       <use xlink:href="#mfeaff75b6e" x="103.074841" y="61.772371" style="stroke: #000000; stroke-width: 0.8"/>
      </g>
     </g>
     <g id="text_22">
      <!-- 0.25 -->
      <g transform="translate(51.543591 69.370809) scale(0.2 -0.2)">
       <use xlink:href="#DejaVuSans-30"/>
       <use xlink:href="#DejaVuSans-2e" x="63.623047"/>
       <use xlink:href="#DejaVuSans-32" x="95.410156"/>
       <use xlink:href="#DejaVuSans-35" x="159.033203"/>
      </g>
     </g>
    </g>
   </g>
   <g id="line2d_23">
    <path d="M 0 0 
" clip-path="url(#pf30d472afe)" style="fill: none; stroke: #ffa500; stroke-width: 1.5; stroke-linecap: square"/>
   </g>
   <g id="line2d_24">
    <path d="M 103.074841 377.708604 
L 948.274841 377.708604 
" clip-path="url(#pf30d472afe)" style="fill: none; stroke-dasharray: 7.4,3.2; stroke-dashoffset: 0; stroke: #000000; stroke-width: 2"/>
   </g>
   <g id="patch_3">
    <path d="M 103.074841 395.28 
L 103.074841 7.2 
" style="fill: none; stroke: #000000; stroke-width: 0.8; stroke-linejoin: miter; stroke-linecap: square"/>
   </g>
   <g id="patch_4">
    <path d="M 940.074841 395.28 
L 940.074841 7.2 
" style="fill: none; stroke: #000000; stroke-width: 0.8; stroke-linejoin: miter; stroke-linecap: square"/>
   </g>
   <g id="patch_5">
    <path d="M 103.074841 395.28 
L 940.074841 395.28 
" style="fill: none; stroke: #000000; stroke-width: 0.8; stroke-linejoin: miter; stroke-linecap: square"/>
   </g>
   <g id="patch_6">
    <path d="M 103.074841 7.2 
L 940.074841 7.2 
" style="fill: none; stroke: #000000; stroke-width: 0.8; stroke-linejoin: miter; stroke-linecap: square"/>
   </g>
  </g>
 </g>
 <defs>
  <clipPath id="pf30d472afe">
   <rect x="103.074841" y="7.2" width="837" height="388.08"/>
  </clipPath>
 </defs>
</svg>
