<?xml version="1.0" encoding="utf-8" standalone="no"?>
<!DOCTYPE svg PUBLIC "-//W3C//DTD SVG 1.1//EN"
  "http://www.w3.org/Graphics/SVG/1.1/DTD/svg11.dtd">
<svg xmlns:xlink="http://www.w3.org/1999/xlink" width="947.274841pt" height="505.354841pt" viewBox="0 0 947.274841 505.354841" xmlns="http://www.w3.org/2000/svg" version="1.1">
 <metadata>
  <rdf:RDF xmlns:dc="http://purl.org/dc/elements/1.1/" xmlns:cc="http://creativecommons.org/ns#" xmlns:rdf="http://www.w3.org/1999/02/22-rdf-syntax-ns#">
   <cc:Work>
    <dc:type rdf:resource="http://purl.org/dc/dcmitype/StillImage"/>
    <dc:date>2023-11-15T19:57:40.802543</dc:date>
    <dc:format>image/svg+xml</dc:format>
    <dc:creator>
     <cc:Agent>
      <dc:title>Matplotlib v3.7.2, https://matplotlib.org/</dc:title>
     </cc:Agent>
    </dc:creator>
   </cc:Work>
  </rdf:RDF>
 </metadata>
 <defs>
  <style type="text/css">*{stroke-linejoin: round; stroke-linecap: butt}</style>
 </defs>
 <g id="figure_1">
  <g id="patch_1">
   <path d="M 0 505.354841 
L 947.274841 505.354841 
L 947.274841 -0 
L 0 -0 
z
" style="fill: #ffffff"/>
  </g>
  <g id="axes_1">
   <g id="patch_2">
    <path d="M 103.074841 395.28 
L 940.074841 395.28 
L 940.074841 7.2 
L 103.074841 7.2 
z
" style="fill: #ffffff"/>
   </g>
   <g id="PolyCollection_1">
    <path d="M -393.000769 370.547026 
L -393.000769 370.56847 
L -390.959306 370.460707 
L -388.917842 370.367085 
L -386.876379 370.248285 
L -384.834915 370.168568 
L -382.793452 370.069006 
L -380.751989 369.964845 
L -378.710525 369.861643 
L -376.669062 369.764536 
L -374.627598 369.678923 
L -372.586135 369.580283 
L -370.544672 369.47709 
L -368.503208 369.376751 
L -366.461745 369.254257 
L -364.420281 369.152145 
L -362.378818 369.0325 
L -360.337354 368.929649 
L -358.295891 368.791912 
L -356.254428 368.678052 
L -354.212964 368.568193 
L -352.171501 368.438818 
L -350.130037 368.312562 
L -348.088574 368.188999 
L -346.047111 368.040585 
L -344.005647 367.910192 
L -341.964184 367.758127 
L -339.92272 367.604118 
L -337.881257 367.434065 
L -335.839793 367.259291 
L -333.79833 367.088118 
L -331.756867 366.890374 
L -329.715403 366.666729 
L -327.67394 366.467566 
L -325.632476 366.241774 
L -323.591013 365.984288 
L -321.54955 365.743982 
L -319.508086 365.462985 
L -317.466623 365.177435 
L -315.425159 364.883283 
L -313.383696 364.572491 
L -311.342232 364.228181 
L -309.300769 363.861736 
L -307.259306 363.473588 
L -305.217842 363.099152 
L -303.176379 362.660044 
L -301.134915 362.242072 
L -299.093452 361.796875 
L -297.051989 361.349724 
L -295.010525 360.868594 
L -292.969062 360.34817 
L -290.927598 359.865509 
L -288.886135 359.328759 
L -286.844672 358.773669 
L -284.803208 358.229488 
L -282.761745 357.69048 
L -280.720281 357.106336 
L -278.678818 356.515824 
L -276.637354 355.926233 
L -274.595891 355.312587 
L -272.554428 354.69135 
L -270.512964 354.071953 
L -268.471501 353.431712 
L -266.430037 352.789959 
L -264.388574 352.15779 
L -262.347111 351.499846 
L -260.305647 350.796521 
L -258.264184 350.114695 
L -256.22272 349.434489 
L -254.181257 348.764674 
L -252.139793 348.067652 
L -250.09833 347.386605 
L -248.056867 346.694086 
L -246.015403 346.068127 
L -243.97394 345.332181 
L -241.932476 344.693061 
L -239.891013 343.993736 
L -237.84955 343.327118 
L -235.808086 342.633929 
L -233.766623 342.015105 
L -231.725159 341.306285 
L -229.683696 340.639496 
L -227.642232 340.015051 
L -225.600769 339.343239 
L -223.559306 338.706588 
L -221.517842 338.041026 
L -219.476379 337.36661 
L -217.434915 336.723825 
L -215.393452 336.093241 
L -213.351989 335.415034 
L -211.310525 334.762376 
L -209.269062 334.105306 
L -207.227598 333.458847 
L -205.186135 332.827273 
L -203.144672 332.17865 
L -201.103208 331.52386 
L -199.061745 330.932841 
L -197.020281 330.265371 
L -194.978818 329.625233 
L -192.937354 328.995305 
L -190.895891 328.364672 
L -188.854428 327.735661 
L -186.812964 327.098715 
L -184.771501 326.490428 
L -182.730037 325.858242 
L -180.688574 325.210742 
L -178.647111 324.556179 
L -176.605647 323.894683 
L -174.564184 323.274031 
L -172.52272 322.592873 
L -170.481257 321.867826 
L -168.439793 321.185579 
L -166.39833 320.46704 
L -164.356867 319.737734 
L -162.315403 318.968718 
L -160.27394 318.186147 
L -158.232476 317.457269 
L -156.191013 316.628545 
L -154.14955 315.839518 
L -152.108086 314.991815 
L -150.066623 314.211167 
L -148.025159 313.297089 
L -145.983696 312.400457 
L -143.942232 311.528071 
L -141.900769 310.640589 
L -139.859306 309.726156 
L -137.817842 308.771338 
L -135.776379 307.874682 
L -133.734915 306.850963 
L -131.693452 305.94753 
L -129.651989 304.894109 
L -127.610525 303.872202 
L -125.569062 302.873334 
L -123.527598 301.913734 
L -121.486135 300.797886 
L -119.444672 299.786873 
L -117.403208 298.508292 
L -115.361745 297.403962 
L -113.320281 296.372433 
L -111.278818 295.210604 
L -109.237354 294.019138 
L -107.195891 292.650971 
L -105.154428 291.366022 
L -103.112964 290.28757 
L -101.071501 288.59921 
L -99.030037 287.235178 
L -96.988574 285.841029 
L -94.947111 284.395189 
L -92.905647 282.752945 
L -90.864184 281.20485 
L -88.82272 280.024333 
L -86.781257 278.530629 
L -84.739793 276.107553 
L -82.69833 274.060781 
L -80.656867 272.533223 
L -78.615403 270.436906 
L -76.57394 268.686623 
L -74.532476 267.153581 
L -72.491013 264.856634 
L -70.44955 262.250466 
L -68.408086 260.721832 
L -66.366623 259.944192 
L -64.325159 258.121293 
L -62.283696 257.509261 
L -60.242232 256.356976 
L -58.200769 254.169407 
L -56.159306 254.313595 
L -54.117842 255.17289 
L -52.076379 257.022493 
L -50.034915 254.90789 
L -47.993452 259.055574 
L -45.951989 259.973333 
L -43.910525 254.364523 
L -41.869062 255.944126 
L -39.827598 258.421099 
L -37.786135 256.955941 
L -35.744672 256.654876 
L -33.703208 267.301834 
L -31.661745 282.445145 
L -29.620281 289.996047 
L -27.578818 273.598598 
L -25.537354 282.064772 
L -23.495891 293.151812 
L -21.454428 292.544326 
L -19.412964 315.082874 
L -17.371501 312.061502 
L -15.330037 305.228448 
L -13.288574 288.224094 
L -11.247111 304.295673 
L -9.205647 313.981899 
L -7.164184 310.005593 
L -5.12272 312.570448 
L -3.081257 321.721412 
L -1.039793 320.570871 
L 1.00167 312.791348 
L 3.043133 322.703744 
L 5.084597 324.724296 
L 7.12606 321.27649 
L 9.167524 327.600157 
L 11.208987 329.96063 
L 13.25045 329.419567 
L 15.291914 327.601606 
L 17.333377 329.736366 
L 19.374841 327.722095 
L 21.416304 327.989748 
L 23.457768 330.032651 
L 25.499231 328.276334 
L 27.540694 329.318235 
L 29.582158 329.456209 
L 31.623621 328.057377 
L 33.665085 328.694816 
L 35.706548 326.641364 
L 37.748011 326.876891 
L 39.789475 327.56202 
L 41.830938 327.685428 
L 43.872402 326.729559 
L 45.913865 325.926834 
L 47.955328 325.787145 
L 49.996792 324.8883 
L 52.038255 324.820325 
L 54.079719 324.716999 
L 56.121182 323.303798 
L 58.162646 324.085173 
L 60.204109 323.168744 
L 62.245572 322.807177 
L 64.287036 322.895392 
L 66.328499 321.985023 
L 68.369963 321.795591 
L 70.411426 322.1625 
L 72.452889 322.721727 
L 74.494353 321.161016 
L 76.535816 320.901725 
L 78.57728 320.387812 
L 80.618743 323.10321 
L 82.660207 323.127899 
L 84.70167 324.120454 
L 86.743133 321.442655 
L 88.784597 319.769418 
L 90.82606 320.207895 
L 92.867524 321.918091 
L 94.908987 322.103905 
L 96.95045 318.824163 
L 98.991914 321.360373 
L 101.033377 320.535653 
L 103.074841 319.926034 
L 105.116304 318.288449 
L 107.157768 319.281909 
L 109.199231 318.361814 
L 111.240694 318.796406 
L 113.282158 317.594112 
L 115.323621 316.576854 
L 117.365085 314.947443 
L 119.406548 314.011167 
L 121.448011 313.12002 
L 123.489475 311.994709 
L 125.530938 311.480641 
L 127.572402 310.37503 
L 129.613865 309.193415 
L 131.655328 306.680721 
L 133.696792 304.674925 
L 135.738255 303.54824 
L 137.779719 301.376138 
L 139.821182 300.599805 
L 141.862646 298.604332 
L 143.904109 295.868594 
L 145.945572 293.508602 
L 147.987036 291.600536 
L 150.028499 288.769832 
L 152.069963 286.838076 
L 154.111426 284.241952 
L 156.152889 281.884967 
L 158.194353 279.039111 
L 160.235816 276.607382 
L 162.27728 273.46752 
L 164.318743 270.897909 
L 166.360207 268.263323 
L 168.40167 264.868903 
L 170.443133 261.684154 
L 172.484597 259.179317 
L 174.52606 256.375782 
L 176.567524 252.997461 
L 178.608987 250.210214 
L 180.65045 246.925785 
L 182.691914 242.561701 
L 184.733377 240.435825 
L 186.774841 236.670805 
L 188.816304 233.609526 
L 190.857768 230.21812 
L 192.899231 226.540293 
L 194.940694 222.785557 
L 196.982158 219.303023 
L 199.023621 214.83364 
L 201.065085 211.941125 
L 203.106548 207.679247 
L 205.148011 204.754675 
L 207.189475 200.395606 
L 209.230938 196.142066 
L 211.272402 192.209207 
L 213.313865 188.950407 
L 215.355328 183.978333 
L 217.396792 180.411329 
L 219.438255 175.985033 
L 221.479719 172.347611 
L 223.521182 167.806886 
L 225.562646 163.745621 
L 227.604109 162.697587 
L 229.645572 155.315928 
L 231.687036 153.642952 
L 233.728499 148.914569 
L 235.769963 145.459123 
L 237.811426 141.497691 
L 239.852889 137.313643 
L 241.894353 133.471218 
L 243.935816 129.741068 
L 245.97728 126.194306 
L 248.018743 122.636237 
L 250.060207 124.17239 
L 252.10167 115.007585 
L 254.143133 112.224558 
L 256.184597 118.523202 
L 258.22606 107.622873 
L 260.267524 108.688409 
L 262.308987 106.928908 
L 264.35045 100.97592 
L 266.391914 101.285376 
L 268.433377 105.891477 
L 270.474841 101.514702 
L 272.516304 99.220749 
L 274.557768 101.937894 
L 276.599231 100.226424 
L 278.640694 101.970528 
L 280.682158 104.525989 
L 282.723621 109.24096 
L 284.765085 120.775537 
L 286.806548 117.638307 
L 288.848011 123.740231 
L 290.889475 128.747869 
L 292.930938 131.291053 
L 294.972402 139.493165 
L 297.013865 145.616879 
L 299.055328 135.65977 
L 301.096792 146.592222 
L 303.138255 160.097499 
L 305.179719 166.679625 
L 307.221182 169.765816 
L 309.262646 187.628047 
L 311.304109 189.196877 
L 313.345572 194.169353 
L 315.387036 193.014627 
L 317.428499 208.114485 
L 319.469963 203.622764 
L 321.511426 201.134048 
L 323.552889 214.048468 
L 325.594353 223.259982 
L 327.635816 222.603855 
L 329.67728 228.123678 
L 331.718743 230.002867 
L 333.760207 230.452792 
L 335.80167 230.569687 
L 337.843133 233.670307 
L 339.884597 235.469077 
L 341.92606 244.857547 
L 343.967524 240.205121 
L 346.008987 248.380946 
L 348.05045 246.65209 
L 350.091914 245.647223 
L 352.133377 248.998446 
L 354.174841 251.987756 
L 356.216304 248.366026 
L 358.257768 250.242771 
L 360.299231 250.411612 
L 362.340694 254.83841 
L 364.382158 252.701037 
L 366.423621 251.709104 
L 368.465085 252.971799 
L 370.506548 255.069618 
L 372.548011 254.004847 
L 374.589475 251.866317 
L 376.630938 252.983661 
L 378.672402 249.727882 
L 380.713865 249.975088 
L 382.755328 255.099438 
L 384.796792 254.661614 
L 386.838255 251.555836 
L 388.879719 250.658434 
L 390.921182 250.814409 
L 392.962646 247.42662 
L 395.004109 247.981739 
L 397.045572 247.738973 
L 399.087036 246.823979 
L 401.128499 245.715611 
L 403.169963 243.491022 
L 405.211426 244.393868 
L 407.252889 242.804161 
L 409.294353 242.244329 
L 411.335816 241.272243 
L 413.37728 241.091307 
L 415.418743 239.319781 
L 417.460207 236.32582 
L 419.50167 235.950024 
L 421.543133 233.480637 
L 423.584597 230.032489 
L 425.62606 232.160089 
L 427.667524 227.562912 
L 429.708987 229.185229 
L 431.75045 228.151802 
L 433.791914 228.273956 
L 435.833377 225.281598 
L 437.874841 224.911295 
L 439.916304 224.34808 
L 441.957768 220.70083 
L 443.999231 221.435259 
L 446.040694 220.994084 
L 448.082158 220.726836 
L 450.123621 218.941582 
L 452.165085 219.60848 
L 454.206548 217.78761 
L 456.248011 216.058619 
L 458.289475 213.389474 
L 460.330938 212.481426 
L 462.372402 211.859837 
L 464.413865 209.991004 
L 466.455328 210.192488 
L 468.496792 209.252956 
L 470.538255 207.597455 
L 472.579719 207.606934 
L 474.621182 205.744365 
L 476.662646 207.209569 
L 478.704109 205.9057 
L 480.745572 205.930501 
L 482.787036 203.64191 
L 484.828499 200.53488 
L 486.869963 203.125821 
L 488.911426 203.015919 
L 490.952889 201.993314 
L 492.994353 200.936626 
L 495.035816 198.777507 
L 497.07728 198.281942 
L 499.118743 197.095999 
L 501.160207 197.268628 
L 503.20167 196.820907 
L 505.243133 194.776878 
L 507.284597 191.877225 
L 509.32606 195.639991 
L 511.367524 194.742986 
L 513.408987 192.285246 
L 515.45045 193.850795 
L 517.491914 189.452289 
L 519.533377 189.990851 
L 521.574841 190.270943 
L 523.616304 187.287161 
L 525.657768 192.360642 
L 527.699231 187.265162 
L 529.740694 184.674694 
L 531.782158 187.988053 
L 533.823621 188.880561 
L 535.865085 187.253326 
L 537.906548 188.536457 
L 539.948011 186.192171 
L 541.989475 190.731761 
L 544.030938 188.40966 
L 546.072402 189.335425 
L 548.113865 186.221251 
L 550.155328 183.428775 
L 552.196792 186.953986 
L 554.238255 193.283938 
L 556.279719 186.036364 
L 558.321182 186.421633 
L 560.362646 183.70105 
L 562.404109 184.955818 
L 564.445572 184.576515 
L 566.487036 182.887264 
L 568.528499 182.246344 
L 570.569963 185.318829 
L 572.611426 183.694798 
L 574.652889 186.505761 
L 576.694353 187.025367 
L 578.735816 178.81507 
L 580.77728 182.202885 
L 582.818743 182.494486 
L 584.860207 183.081377 
L 586.90167 183.605334 
L 588.943133 188.880289 
L 590.984597 191.001546 
L 593.02606 190.788097 
L 595.067524 196.603725 
L 597.108987 206.220415 
L 599.15045 194.831387 
L 601.191914 194.732688 
L 603.233377 195.007444 
L 605.274841 198.839309 
L 607.316304 199.74158 
L 609.357768 199.747356 
L 611.399231 208.038431 
L 613.440694 211.115496 
L 615.482158 201.756056 
L 617.523621 210.275322 
L 619.565085 206.108239 
L 621.606548 203.522603 
L 623.648011 213.877494 
L 625.689475 211.843197 
L 627.730938 218.540066 
L 629.772402 216.533609 
L 631.813865 212.056361 
L 633.855328 216.271017 
L 635.896792 216.310843 
L 637.938255 220.453655 
L 639.979719 217.903187 
L 642.021182 224.711532 
L 644.062646 219.887806 
L 646.104109 223.507222 
L 648.145572 222.82452 
L 650.187036 226.805263 
L 652.228499 220.498979 
L 654.269963 227.338512 
L 656.311426 227.002394 
L 658.352889 231.691667 
L 660.394353 234.186874 
L 662.435816 234.24607 
L 664.47728 233.105417 
L 666.518743 236.141111 
L 668.560207 238.411695 
L 670.60167 236.472029 
L 672.643133 235.773239 
L 674.684597 238.442998 
L 676.72606 240.86635 
L 678.767524 236.77864 
L 680.808987 234.428234 
L 682.85045 243.90247 
L 684.891914 248.211878 
L 686.933377 238.597021 
L 688.974841 241.477736 
L 691.016304 242.941369 
L 693.057768 243.6659 
L 695.099231 248.547813 
L 697.140694 247.953227 
L 699.182158 246.006111 
L 701.223621 248.137378 
L 703.265085 248.745869 
L 705.306548 243.568966 
L 707.348011 246.23136 
L 709.389475 244.626457 
L 711.430938 251.855206 
L 713.472402 260.762539 
L 715.513865 259.530354 
L 717.555328 252.540106 
L 719.596792 251.821659 
L 721.638255 252.833817 
L 723.679719 253.212069 
L 725.721182 259.81435 
L 727.762646 251.528886 
L 729.804109 260.3863 
L 731.845572 267.544844 
L 733.887036 261.696012 
L 735.928499 270.876364 
L 737.969963 265.261503 
L 740.011426 270.292907 
L 742.052889 267.12606 
L 744.094353 269.641304 
L 746.135816 274.640259 
L 748.17728 274.423908 
L 750.218743 276.01816 
L 752.260207 276.530807 
L 754.30167 277.211618 
L 756.343133 265.508322 
L 758.384597 281.000859 
L 760.42606 287.468506 
L 762.467524 281.531383 
L 764.508987 287.283115 
L 766.55045 288.768615 
L 768.591914 285.810753 
L 770.633377 292.289599 
L 772.674841 296.821369 
L 774.716304 294.594953 
L 776.757768 296.513429 
L 778.799231 297.719873 
L 780.840694 299.52403 
L 782.882158 304.612779 
L 784.923621 295.255566 
L 786.965085 307.709026 
L 789.006548 308.477845 
L 791.048011 309.374665 
L 793.089475 302.247613 
L 795.130938 311.807765 
L 797.172402 318.37144 
L 799.213865 312.683601 
L 801.255328 313.881297 
L 803.296792 322.954021 
L 805.338255 308.588154 
L 807.379719 322.968538 
L 809.421182 314.812316 
L 811.462646 327.588682 
L 813.504109 322.578917 
L 815.545572 328.446543 
L 817.587036 330.70792 
L 819.628499 333.637107 
L 821.669963 335.028965 
L 823.711426 332.473423 
L 825.752889 333.264138 
L 827.794353 335.700989 
L 829.835816 341.917685 
L 831.87728 341.974454 
L 833.918743 342.661279 
L 835.960207 346.807643 
L 838.00167 347.732086 
L 840.043133 345.68515 
L 842.084597 346.606035 
L 844.12606 352.537706 
L 846.167524 354.024039 
L 848.208987 356.019224 
L 850.25045 352.736359 
L 852.291914 347.198262 
L 854.333377 354.593587 
L 856.374841 353.204649 
L 858.416304 355.69953 
L 860.457768 359.202398 
L 862.499231 356.069664 
L 864.540694 361.445013 
L 866.582158 358.591128 
L 868.623621 358.588989 
L 870.665085 358.898431 
L 872.706548 363.58725 
L 874.748011 363.086988 
L 876.789475 363.258779 
L 878.830938 360.731611 
L 880.872402 362.81551 
L 882.913865 364.034033 
L 884.955328 363.65573 
L 886.996792 366.83422 
L 889.038255 366.529023 
L 891.079719 368.429394 
L 893.121182 370.526586 
L 895.162646 370.68182 
L 897.204109 369.320249 
L 899.245572 369.958369 
L 901.287036 369.180144 
L 903.328499 370.733113 
L 905.369963 371.24235 
L 907.411426 369.435688 
L 909.452889 371.710392 
L 911.494353 362.159722 
L 913.535816 371.712622 
L 915.57728 375.230899 
L 917.618743 371.507096 
L 919.660207 371.414544 
L 921.70167 374.894502 
L 923.743133 374.894301 
L 925.784597 371.505936 
L 927.82606 371.255727 
L 929.867524 373.340618 
L 931.908987 372.436868 
L 933.95045 376.485935 
L 935.991914 374.874651 
L 938.033377 377.64 
L 940.074841 373.209431 
L 940.074841 364.58825 
L 940.074841 364.58825 
L 938.033377 361.675393 
L 935.991914 357.661043 
L 933.95045 362.590001 
L 931.908987 353.562536 
L 929.867524 356.169185 
L 927.82606 354.93202 
L 925.784597 345.354152 
L 923.743133 357.665934 
L 921.70167 364.294344 
L 919.660207 346.134641 
L 917.618743 353.980233 
L 915.57728 361.374998 
L 913.535816 356.329109 
L 911.494353 296.692875 
L 909.452889 354.355084 
L 907.411426 343.382394 
L 905.369963 354.787552 
L 903.328499 353.679178 
L 901.287036 349.008263 
L 899.245572 349.24771 
L 897.204109 347.95674 
L 895.162646 354.41648 
L 893.121182 354.470259 
L 891.079719 345.57022 
L 889.038255 339.652237 
L 886.996792 344.410732 
L 884.955328 335.889102 
L 882.913865 338.922333 
L 880.872402 333.784866 
L 878.830938 327.39788 
L 876.789475 335.810034 
L 874.748011 336.515469 
L 872.706548 336.306812 
L 870.665085 326.140393 
L 868.623621 323.782968 
L 866.582158 323.260708 
L 864.540694 334.674816 
L 862.499231 318.351295 
L 860.457768 329.014926 
L 858.416304 319.400943 
L 856.374841 312.013213 
L 854.333377 317.542099 
L 852.291914 291.589533 
L 850.25045 314.219247 
L 848.208987 323.202564 
L 846.167524 318.094051 
L 844.12606 315.440428 
L 842.084597 294.410036 
L 840.043133 294.856124 
L 838.00167 301.85261 
L 835.960207 300.941692 
L 833.918743 289.039284 
L 831.87728 289.091683 
L 829.835816 287.651186 
L 827.794353 276.069198 
L 825.752889 265.954428 
L 823.711426 263.469359 
L 821.669963 271.601537 
L 819.628499 268.76823 
L 817.587036 263.487914 
L 815.545572 258.076029 
L 813.504109 241.124619 
L 811.462646 257.359919 
L 809.421182 214.077287 
L 807.379719 242.901401 
L 805.338255 201.771853 
L 803.296792 245.868228 
L 801.255328 221.088605 
L 799.213865 220.394225 
L 797.172402 232.787668 
L 795.130938 217.677172 
L 793.089475 190.355136 
L 791.048011 210.091837 
L 789.006548 209.534151 
L 786.965085 208.469331 
L 784.923621 176.633559 
L 782.882158 192.19352 
L 780.840694 188.287354 
L 778.799231 185.975171 
L 776.757768 182.388535 
L 774.716304 175.648039 
L 772.674841 182.060439 
L 770.633377 170.197421 
L 768.591914 155.525987 
L 766.55045 167.497006 
L 764.508987 157.743164 
L 762.467524 149.100511 
L 760.42606 162.984478 
L 758.384597 147.718385 
L 756.343133 108.614737 
L 754.30167 136.98233 
L 752.260207 135.753208 
L 750.218743 135.76497 
L 748.17728 132.246293 
L 746.135816 132.331278 
L 744.094353 121.61376 
L 742.052889 117.194951 
L 740.011426 125.327077 
L 737.969963 109.828705 
L 735.928499 125.592127 
L 733.887036 104.066525 
L 731.845572 116.372891 
L 729.804109 102.023932 
L 727.762646 84.287505 
L 725.721182 100.505312 
L 723.679719 84.995569 
L 721.638255 86.05041 
L 719.596792 85.350919 
L 717.555328 86.85185 
L 715.513865 101.515844 
L 713.472402 105.001623 
L 711.430938 87.38166 
L 709.389475 69.345831 
L 707.348011 74.42265 
L 705.306548 70.794996 
L 703.265085 82.147639 
L 701.223621 80.986605 
L 699.182158 76.462831 
L 697.140694 82.386862 
L 695.099231 81.957484 
L 693.057768 72.817558 
L 691.016304 73.976378 
L 688.974841 70.474197 
L 686.933377 66.158051 
L 684.891914 86.94702 
L 682.85045 75.364486 
L 680.808987 59.470187 
L 678.767524 67.216975 
L 676.72606 74.151951 
L 674.684597 69.721296 
L 672.643133 66.334263 
L 670.60167 69.150886 
L 668.560207 76.48314 
L 666.518743 68.766114 
L 664.47728 66.001223 
L 662.435816 69.315772 
L 660.394353 64.532306 
L 658.352889 66.234444 
L 656.311426 56.486703 
L 654.269963 60.210252 
L 652.228499 48.29952 
L 650.187036 58.817105 
L 648.145572 54.079267 
L 646.104109 57.122516 
L 644.062646 53.977848 
L 642.021182 60.468522 
L 639.979719 49.830037 
L 637.938255 56.794005 
L 635.896792 50.1514 
L 633.855328 51.641701 
L 631.813865 46.474446 
L 629.772402 49.477692 
L 627.730938 57.348691 
L 625.689475 50.108671 
L 623.648011 52.117256 
L 621.606548 37.688361 
L 619.565085 44.652513 
L 617.523621 48.288731 
L 615.482158 37.233395 
L 613.440694 50.02362 
L 611.399231 51.223656 
L 609.357768 37.189206 
L 607.316304 37.684551 
L 605.274841 36.930689 
L 603.233377 32.051409 
L 601.191914 35.864687 
L 599.15045 34.858763 
L 597.108987 51.911849 
L 595.067524 40.654443 
L 593.02606 32.436258 
L 590.984597 32.996854 
L 588.943133 30.839932 
L 586.90167 26.047592 
L 584.860207 28.262259 
L 582.818743 25.177334 
L 580.77728 29.480984 
L 578.735816 24.84 
L 576.694353 34.823063 
L 574.652889 36.519587 
L 572.611426 34.730898 
L 570.569963 37.280357 
L 568.528499 34.048575 
L 566.487036 37.306191 
L 564.445572 39.372351 
L 562.404109 44.273348 
L 560.362646 41.066341 
L 558.321182 46.494729 
L 556.279719 45.876023 
L 554.238255 55.653183 
L 552.196792 49.680516 
L 550.155328 46.660975 
L 548.113865 51.029694 
L 546.072402 53.189615 
L 544.030938 53.657852 
L 541.989475 59.415964 
L 539.948011 55.008256 
L 537.906548 58.953393 
L 535.865085 57.4691 
L 533.823621 58.605215 
L 531.782158 57.286424 
L 529.740694 55.228617 
L 527.699231 59.834683 
L 525.657768 65.881837 
L 523.616304 60.163479 
L 521.574841 63.775699 
L 519.533377 62.500493 
L 517.491914 64.645071 
L 515.45045 69.338937 
L 513.408987 68.005134 
L 511.367524 71.839915 
L 509.32606 72.990429 
L 507.284597 69.067461 
L 505.243133 71.666976 
L 503.20167 74.540387 
L 501.160207 75.68883 
L 499.118743 75.750619 
L 497.07728 77.838319 
L 495.035816 77.704737 
L 492.994353 80.716877 
L 490.952889 81.674332 
L 488.911426 82.48017 
L 486.869963 83.281118 
L 484.828499 78.375114 
L 482.787036 84.129861 
L 480.745572 86.52527 
L 478.704109 86.045243 
L 476.662646 86.374533 
L 474.621182 86.554958 
L 472.579719 88.329676 
L 470.538255 87.931705 
L 468.496792 90.521545 
L 466.455328 91.511864 
L 464.413865 91.054882 
L 462.372402 92.080389 
L 460.330938 93.423482 
L 458.289475 94.812213 
L 456.248011 99.201212 
L 454.206548 100.331498 
L 452.165085 102.531204 
L 450.123621 101.614407 
L 448.082158 103.744912 
L 446.040694 104.078405 
L 443.999231 104.836427 
L 441.957768 102.814121 
L 439.916304 108.989248 
L 437.874841 109.682575 
L 435.833377 110.25436 
L 433.791914 114.04918 
L 431.75045 113.985757 
L 429.708987 115.685535 
L 427.667524 114.058204 
L 425.62606 119.236327 
L 423.584597 117.983327 
L 421.543133 122.994327 
L 419.50167 126.622931 
L 417.460207 127.836342 
L 415.418743 132.344346 
L 413.37728 135.919518 
L 411.335816 136.033587 
L 409.294353 138.322496 
L 407.252889 139.146601 
L 405.211426 142.072124 
L 403.169963 141.530632 
L 401.128499 145.506866 
L 399.087036 148.53436 
L 397.045572 150.416792 
L 395.004109 151.626423 
L 392.962646 152.626868 
L 390.921182 156.88267 
L 388.879719 158.045836 
L 386.838255 160.747817 
L 384.796792 164.626928 
L 382.755328 165.993747 
L 380.713865 162.891729 
L 378.672402 164.080091 
L 376.630938 168.290721 
L 374.589475 168.937 
L 372.548011 171.879073 
L 370.506548 174.048094 
L 368.465085 173.129297 
L 366.423621 174.513873 
L 364.382158 176.204284 
L 362.340694 179.115852 
L 360.299231 176.192442 
L 358.257768 177.671529 
L 356.216304 177.823805 
L 354.174841 181.88882 
L 352.133377 181.540752 
L 350.091914 179.497798 
L 348.05045 181.718327 
L 346.008987 183.999214 
L 343.967524 178.481877 
L 341.92606 183.806621 
L 339.884597 177.301475 
L 337.843133 177.154481 
L 335.80167 175.974676 
L 333.760207 177.70561 
L 331.718743 178.327556 
L 329.67728 177.685723 
L 327.635816 174.684808 
L 325.594353 177.310897 
L 323.552889 170.07081 
L 321.511426 162.94642 
L 319.469963 165.013704 
L 317.428499 169.153711 
L 315.387036 158.912391 
L 313.345572 159.604813 
L 311.304109 157.041655 
L 309.262646 156.479485 
L 307.221182 142.446879 
L 305.179719 141.430967 
L 303.138255 136.39698 
L 301.096792 125.440683 
L 299.055328 117.687753 
L 297.013865 126.560081 
L 294.972402 122.727028 
L 292.930938 115.972247 
L 290.889475 113.127058 
L 288.848011 108.272073 
L 286.806548 101.910555 
L 284.765085 105.500447 
L 282.723621 93.253197 
L 280.682158 87.561275 
L 278.640694 84.550292 
L 276.599231 82.359109 
L 274.557768 84.226975 
L 272.516304 81.131662 
L 270.474841 84.185564 
L 268.433377 88.756158 
L 266.391914 82.942987 
L 264.35045 82.71705 
L 262.308987 89.491641 
L 260.267524 91.421003 
L 258.22606 89.649503 
L 256.184597 102.937798 
L 254.143133 94.704408 
L 252.10167 98.305072 
L 250.060207 108.76755 
L 248.018743 106.555222 
L 245.97728 110.775262 
L 243.935816 114.631295 
L 241.894353 119.074606 
L 239.852889 123.342419 
L 237.811426 128.105696 
L 235.769963 132.567109 
L 233.728499 136.337066 
L 231.687036 141.959672 
L 229.645572 143.524467 
L 227.604109 150.889372 
L 225.562646 151.719287 
L 223.521182 155.778487 
L 221.479719 160.221904 
L 219.438255 163.741142 
L 217.396792 167.974283 
L 215.355328 171.417633 
L 213.313865 176.148141 
L 211.272402 179.235351 
L 209.230938 182.868507 
L 207.189475 187.01791 
L 205.148011 191.228387 
L 203.106548 194.017404 
L 201.065085 198.088309 
L 199.023621 201.03865 
L 196.982158 205.193015 
L 194.940694 208.527882 
L 192.899231 211.837752 
L 190.857768 215.436812 
L 188.816304 218.679402 
L 186.774841 221.507103 
L 184.733377 225.014529 
L 182.691914 227.042622 
L 180.65045 231.237274 
L 178.608987 234.219517 
L 176.567524 236.897646 
L 174.52606 240.056033 
L 172.484597 242.16469 
L 170.443133 245.008706 
L 168.40167 247.910269 
L 166.360207 251.048813 
L 164.318743 253.544296 
L 162.27728 255.995718 
L 160.235816 258.625029 
L 158.194353 261.158266 
L 156.152889 263.850495 
L 154.111426 266.069488 
L 152.069963 268.441196 
L 150.028499 270.437827 
L 147.987036 273.051841 
L 145.945572 275.031698 
L 143.904109 277.217457 
L 141.862646 279.850959 
L 139.821182 281.761287 
L 137.779719 282.520998 
L 135.738255 284.697218 
L 133.696792 285.937155 
L 131.655328 288.026926 
L 129.613865 290.409009 
L 127.572402 291.743056 
L 125.530938 292.989353 
L 123.489475 293.394148 
L 121.448011 294.657073 
L 119.406548 295.470837 
L 117.365085 296.325465 
L 115.323621 297.999876 
L 113.282158 299.025188 
L 111.240694 300.426341 
L 109.199231 299.805328 
L 107.157768 300.598766 
L 105.116304 299.536519 
L 103.074841 301.372103 
L 101.033377 301.694633 
L 98.991914 303.034484 
L 96.95045 300.301813 
L 94.908987 303.661565 
L 92.867524 303.407045 
L 90.82606 301.489527 
L 88.784597 300.990092 
L 86.743133 302.695622 
L 84.70167 305.65522 
L 82.660207 304.465181 
L 80.618743 304.355107 
L 78.57728 301.286586 
L 76.535816 301.171908 
L 74.494353 301.952801 
L 72.452889 303.696002 
L 70.411426 302.997613 
L 68.369963 302.507757 
L 66.328499 302.680398 
L 64.287036 303.683385 
L 62.245572 303.295798 
L 60.204109 303.879601 
L 58.162646 304.932666 
L 56.121182 303.958661 
L 54.079719 305.539924 
L 52.038255 305.66406 
L 49.996792 305.72931 
L 47.955328 306.676897 
L 45.913865 306.81043 
L 43.872402 307.876904 
L 41.830938 309.056641 
L 39.789475 308.937577 
L 37.748011 308.265828 
L 35.706548 307.745016 
L 33.665085 310.403791 
L 31.623621 309.785486 
L 29.582158 311.531375 
L 27.540694 311.43677 
L 25.499231 310.588277 
L 23.457768 312.321139 
L 21.416304 310.466325 
L 19.374841 310.431272 
L 17.333377 312.672773 
L 15.291914 310.857114 
L 13.25045 312.974478 
L 11.208987 313.579809 
L 9.167524 311.589944 
L 7.12606 305.499227 
L 5.084597 309.227458 
L 3.043133 307.297404 
L 1.00167 298.298147 
L -1.039793 305.799594 
L -3.081257 307.269828 
L -5.12272 298.947151 
L -7.164184 296.60976 
L -9.205647 300.946347 
L -11.247111 291.935023 
L -13.288574 276.201729 
L -15.330037 293.395051 
L -17.371501 300.128818 
L -19.412964 303.432192 
L -21.454428 281.850248 
L -23.495891 282.705284 
L -25.537354 271.765601 
L -27.578818 263.205576 
L -29.620281 280.338851 
L -31.661745 272.962833 
L -33.703208 257.63755 
L -35.744672 246.876955 
L -37.786135 247.527351 
L -39.827598 249.390535 
L -41.869062 247.117539 
L -43.910525 245.790415 
L -45.951989 251.946722 
L -47.993452 251.230966 
L -50.034915 247.219319 
L -52.076379 249.691774 
L -54.117842 248.060909 
L -56.159306 247.467098 
L -58.200769 247.668847 
L -60.242232 250.11404 
L -62.283696 251.576521 
L -64.325159 252.438264 
L -66.366623 254.570918 
L -68.408086 255.600386 
L -70.44955 257.33943 
L -72.491013 260.050271 
L -74.532476 262.220069 
L -76.57394 263.69003 
L -78.615403 265.316421 
L -80.656867 267.450874 
L -82.69833 268.810613 
L -84.739793 270.856535 
L -86.781257 273.329087 
L -88.82272 274.825606 
L -90.864184 275.866199 
L -92.905647 277.411167 
L -94.947111 278.995088 
L -96.988574 280.433558 
L -99.030037 281.809706 
L -101.071501 283.135997 
L -103.112964 284.944224 
L -105.154428 285.896859 
L -107.195891 287.225792 
L -109.237354 288.620775 
L -111.278818 289.819037 
L -113.320281 291.001533 
L -115.361745 291.97801 
L -117.403208 293.034776 
L -119.444672 294.431718 
L -121.486135 295.414566 
L -123.527598 296.559502 
L -125.569062 297.491226 
L -127.610525 298.529221 
L -129.651989 299.593499 
L -131.693452 300.676343 
L -133.734915 301.57683 
L -135.776379 302.626292 
L -137.817842 303.548921 
L -139.859306 304.536905 
L -141.900769 305.456841 
L -143.942232 306.405739 
L -145.983696 307.291046 
L -148.025159 308.233009 
L -150.066623 309.238847 
L -152.108086 310.021217 
L -154.14955 310.964923 
L -156.191013 311.77613 
L -158.232476 312.715782 
L -160.27394 313.403354 
L -162.315403 314.277041 
L -164.356867 315.109738 
L -166.39833 315.902596 
L -168.439793 316.709624 
L -170.481257 317.456197 
L -172.52272 318.326233 
L -174.564184 319.109595 
L -176.605647 319.755524 
L -178.647111 320.521912 
L -180.688574 321.287286 
L -182.730037 322.049066 
L -184.771501 322.784176 
L -186.812964 323.469566 
L -188.854428 324.223719 
L -190.895891 324.963168 
L -192.937354 325.706686 
L -194.978818 326.447863 
L -197.020281 327.209032 
L -199.061745 328.000149 
L -201.103208 328.682334 
L -203.144672 329.462934 
L -205.186135 330.229197 
L -207.227598 330.96514 
L -209.269062 331.724375 
L -211.310525 332.499373 
L -213.351989 333.251656 
L -215.393452 334.040985 
L -217.434915 334.761579 
L -219.476379 335.4966 
L -221.517842 336.273443 
L -223.559306 337.024204 
L -225.600769 337.737256 
L -227.642232 338.491901 
L -229.683696 339.181143 
L -231.725159 339.91771 
L -233.766623 340.702522 
L -235.808086 341.377328 
L -237.84955 342.132041 
L -239.891013 342.847101 
L -241.932476 343.596826 
L -243.97394 344.276078 
L -246.015403 345.069314 
L -248.056867 345.727257 
L -250.09833 346.464779 
L -252.139793 347.186702 
L -254.181257 347.926931 
L -256.22272 348.630691 
L -258.264184 349.347472 
L -260.305647 350.067283 
L -262.347111 350.811157 
L -264.388574 351.502473 
L -266.430037 352.152181 
L -268.471501 352.800907 
L -270.512964 353.453495 
L -272.554428 354.083901 
L -274.595891 354.724781 
L -276.637354 355.357852 
L -278.678818 355.962647 
L -280.720281 356.574229 
L -282.761745 357.182402 
L -284.803208 357.736371 
L -286.844672 358.299402 
L -288.886135 358.886306 
L -290.927598 359.442633 
L -292.969062 359.940927 
L -295.010525 360.488953 
L -297.051989 360.99023 
L -299.093452 361.452501 
L -301.134915 361.914752 
L -303.176379 362.347249 
L -305.217842 362.812844 
L -307.259306 363.198629 
L -309.300769 363.605679 
L -311.342232 363.989109 
L -313.383696 364.344778 
L -315.425159 364.669279 
L -317.466623 364.96457 
L -319.508086 365.257861 
L -321.54955 365.548526 
L -323.591013 365.79008 
L -325.632476 366.059186 
L -327.67394 366.28776 
L -329.715403 366.485359 
L -331.756867 366.716157 
L -333.79833 366.918494 
L -335.839793 367.086613 
L -337.881257 367.266707 
L -339.92272 367.441852 
L -341.964184 367.596248 
L -344.005647 367.751132 
L -346.047111 367.8798 
L -348.088574 368.03453 
L -350.130037 368.158266 
L -352.171501 368.28813 
L -354.212964 368.424218 
L -356.254428 368.535755 
L -358.295891 368.653718 
L -360.337354 368.807111 
L -362.378818 368.916283 
L -364.420281 369.049475 
L -366.461745 369.155443 
L -368.503208 369.295544 
L -370.544672 369.406895 
L -372.586135 369.524449 
L -374.627598 369.62738 
L -376.669062 369.720633 
L -378.710525 369.826922 
L -380.751989 369.943705 
L -382.793452 370.057359 
L -384.834915 370.15426 
L -386.876379 370.232603 
L -388.917842 370.344648 
L -390.959306 370.436648 
L -393.000769 370.547026 
z
" clip-path="url(#p4e1b151c14)" style="fill: #008000; fill-opacity: 0.3; stroke: #008000; stroke-opacity: 0.3"/>
   </g>
   <g id="matplotlib.axis_1">
    <g id="xtick_1">
     <g id="line2d_1">
      <defs>
       <path id="m0a6c3d192f" d="M 0 0 
L 0 3.5 
" style="stroke: #000000; stroke-width: 0.8"/>
      </defs>
      <g>
       <use xlink:href="#m0a6c3d192f" x="103.074841" y="395.28" style="stroke: #000000; stroke-width: 0.8"/>
      </g>
     </g>
     <g id="text_1">
      <!-- 2022-03-01 -->
      <g transform="translate(17.945813 495.213718) rotate(-45) scale(0.2 -0.2)">
       <defs>
        <path id="DejaVuSans-32" d="M 1228 531 
L 3431 531 
L 3431 0 
L 469 0 
L 469 531 
Q 828 903 1448 1529 
Q 2069 2156 2228 2338 
Q 2531 2678 2651 2914 
Q 2772 3150 2772 3378 
Q 2772 3750 2511 3984 
Q 2250 4219 1831 4219 
Q 1534 4219 1204 4116 
Q 875 4013 500 3803 
L 500 4441 
Q 881 4594 1212 4672 
Q 1544 4750 1819 4750 
Q 2544 4750 2975 4387 
Q 3406 4025 3406 3419 
Q 3406 3131 3298 2873 
Q 3191 2616 2906 2266 
Q 2828 2175 2409 1742 
Q 1991 1309 1228 531 
z
" transform="scale(0.015625)"/>
        <path id="DejaVuSans-30" d="M 2034 4250 
Q 1547 4250 1301 3770 
Q 1056 3291 1056 2328 
Q 1056 1369 1301 889 
Q 1547 409 2034 409 
Q 2525 409 2770 889 
Q 3016 1369 3016 2328 
Q 3016 3291 2770 3770 
Q 2525 4250 2034 4250 
z
M 2034 4750 
Q 2819 4750 3233 4129 
Q 3647 3509 3647 2328 
Q 3647 1150 3233 529 
Q 2819 -91 2034 -91 
Q 1250 -91 836 529 
Q 422 1150 422 2328 
Q 422 3509 836 4129 
Q 1250 4750 2034 4750 
z
" transform="scale(0.015625)"/>
        <path id="DejaVuSans-2d" d="M 313 2009 
L 1997 2009 
L 1997 1497 
L 313 1497 
L 313 2009 
z
" transform="scale(0.015625)"/>
        <path id="DejaVuSans-33" d="M 2597 2516 
Q 3050 2419 3304 2112 
Q 3559 1806 3559 1356 
Q 3559 666 3084 287 
Q 2609 -91 1734 -91 
Q 1441 -91 1130 -33 
Q 819 25 488 141 
L 488 750 
Q 750 597 1062 519 
Q 1375 441 1716 441 
Q 2309 441 2620 675 
Q 2931 909 2931 1356 
Q 2931 1769 2642 2001 
Q 2353 2234 1838 2234 
L 1294 2234 
L 1294 2753 
L 1863 2753 
Q 2328 2753 2575 2939 
Q 2822 3125 2822 3475 
Q 2822 3834 2567 4026 
Q 2313 4219 1838 4219 
Q 1578 4219 1281 4162 
Q 984 4106 628 3988 
L 628 4550 
Q 988 4650 1302 4700 
Q 1616 4750 1894 4750 
Q 2613 4750 3031 4423 
Q 3450 4097 3450 3541 
Q 3450 3153 3228 2886 
Q 3006 2619 2597 2516 
z
" transform="scale(0.015625)"/>
        <path id="DejaVuSans-31" d="M 794 531 
L 1825 531 
L 1825 4091 
L 703 3866 
L 703 4441 
L 1819 4666 
L 2450 4666 
L 2450 531 
L 3481 531 
L 3481 0 
L 794 0 
L 794 531 
z
" transform="scale(0.015625)"/>
       </defs>
       <use xlink:href="#DejaVuSans-32"/>
       <use xlink:href="#DejaVuSans-30" x="63.623047"/>
       <use xlink:href="#DejaVuSans-32" x="127.246094"/>
       <use xlink:href="#DejaVuSans-32" x="190.869141"/>
       <use xlink:href="#DejaVuSans-2d" x="254.492188"/>
       <use xlink:href="#DejaVuSans-30" x="290.576172"/>
       <use xlink:href="#DejaVuSans-33" x="354.199219"/>
       <use xlink:href="#DejaVuSans-2d" x="417.822266"/>
       <use xlink:href="#DejaVuSans-30" x="453.90625"/>
       <use xlink:href="#DejaVuSans-31" x="517.529297"/>
      </g>
     </g>
    </g>
    <g id="xtick_2">
     <g id="line2d_2">
      <g>
       <use xlink:href="#m0a6c3d192f" x="160.235816" y="395.28" style="stroke: #000000; stroke-width: 0.8"/>
      </g>
     </g>
     <g id="text_2">
      <!-- 2022-03-29 -->
      <g transform="translate(75.106789 495.213718) rotate(-45) scale(0.2 -0.2)">
       <defs>
        <path id="DejaVuSans-39" d="M 703 97 
L 703 672 
Q 941 559 1184 500 
Q 1428 441 1663 441 
Q 2288 441 2617 861 
Q 2947 1281 2994 2138 
Q 2813 1869 2534 1725 
Q 2256 1581 1919 1581 
Q 1219 1581 811 2004 
Q 403 2428 403 3163 
Q 403 3881 828 4315 
Q 1253 4750 1959 4750 
Q 2769 4750 3195 4129 
Q 3622 3509 3622 2328 
Q 3622 1225 3098 567 
Q 2575 -91 1691 -91 
Q 1453 -91 1209 -44 
Q 966 3 703 97 
z
M 1959 2075 
Q 2384 2075 2632 2365 
Q 2881 2656 2881 3163 
Q 2881 3666 2632 3958 
Q 2384 4250 1959 4250 
Q 1534 4250 1286 3958 
Q 1038 3666 1038 3163 
Q 1038 2656 1286 2365 
Q 1534 2075 1959 2075 
z
" transform="scale(0.015625)"/>
       </defs>
       <use xlink:href="#DejaVuSans-32"/>
       <use xlink:href="#DejaVuSans-30" x="63.623047"/>
       <use xlink:href="#DejaVuSans-32" x="127.246094"/>
       <use xlink:href="#DejaVuSans-32" x="190.869141"/>
       <use xlink:href="#DejaVuSans-2d" x="254.492188"/>
       <use xlink:href="#DejaVuSans-30" x="290.576172"/>
       <use xlink:href="#DejaVuSans-33" x="354.199219"/>
       <use xlink:href="#DejaVuSans-2d" x="417.822266"/>
       <use xlink:href="#DejaVuSans-32" x="453.90625"/>
       <use xlink:href="#DejaVuSans-39" x="517.529297"/>
      </g>
     </g>
    </g>
    <g id="xtick_3">
     <g id="line2d_3">
      <g>
       <use xlink:href="#m0a6c3d192f" x="217.396792" y="395.28" style="stroke: #000000; stroke-width: 0.8"/>
      </g>
     </g>
     <g id="text_3">
      <!-- 2022-04-26 -->
      <g transform="translate(132.267765 495.213718) rotate(-45) scale(0.2 -0.2)">
       <defs>
        <path id="DejaVuSans-34" d="M 2419 4116 
L 825 1625 
L 2419 1625 
L 2419 4116 
z
M 2253 4666 
L 3047 4666 
L 3047 1625 
L 3713 1625 
L 3713 1100 
L 3047 1100 
L 3047 0 
L 2419 0 
L 2419 1100 
L 313 1100 
L 313 1709 
L 2253 4666 
z
" transform="scale(0.015625)"/>
        <path id="DejaVuSans-36" d="M 2113 2584 
Q 1688 2584 1439 2293 
Q 1191 2003 1191 1497 
Q 1191 994 1439 701 
Q 1688 409 2113 409 
Q 2538 409 2786 701 
Q 3034 994 3034 1497 
Q 3034 2003 2786 2293 
Q 2538 2584 2113 2584 
z
M 3366 4563 
L 3366 3988 
Q 3128 4100 2886 4159 
Q 2644 4219 2406 4219 
Q 1781 4219 1451 3797 
Q 1122 3375 1075 2522 
Q 1259 2794 1537 2939 
Q 1816 3084 2150 3084 
Q 2853 3084 3261 2657 
Q 3669 2231 3669 1497 
Q 3669 778 3244 343 
Q 2819 -91 2113 -91 
Q 1303 -91 875 529 
Q 447 1150 447 2328 
Q 447 3434 972 4092 
Q 1497 4750 2381 4750 
Q 2619 4750 2861 4703 
Q 3103 4656 3366 4563 
z
" transform="scale(0.015625)"/>
       </defs>
       <use xlink:href="#DejaVuSans-32"/>
       <use xlink:href="#DejaVuSans-30" x="63.623047"/>
       <use xlink:href="#DejaVuSans-32" x="127.246094"/>
       <use xlink:href="#DejaVuSans-32" x="190.869141"/>
       <use xlink:href="#DejaVuSans-2d" x="254.492188"/>
       <use xlink:href="#DejaVuSans-30" x="290.576172"/>
       <use xlink:href="#DejaVuSans-34" x="354.199219"/>
       <use xlink:href="#DejaVuSans-2d" x="417.822266"/>
       <use xlink:href="#DejaVuSans-32" x="453.90625"/>
       <use xlink:href="#DejaVuSans-36" x="517.529297"/>
      </g>
     </g>
    </g>
    <g id="xtick_4">
     <g id="line2d_4">
      <g>
       <use xlink:href="#m0a6c3d192f" x="274.557768" y="395.28" style="stroke: #000000; stroke-width: 0.8"/>
      </g>
     </g>
     <g id="text_4">
      <!-- 2022-05-24 -->
      <g transform="translate(189.42874 495.213718) rotate(-45) scale(0.2 -0.2)">
       <defs>
        <path id="DejaVuSans-35" d="M 691 4666 
L 3169 4666 
L 3169 4134 
L 1269 4134 
L 1269 2991 
Q 1406 3038 1543 3061 
Q 1681 3084 1819 3084 
Q 2600 3084 3056 2656 
Q 3513 2228 3513 1497 
Q 3513 744 3044 326 
Q 2575 -91 1722 -91 
Q 1428 -91 1123 -41 
Q 819 9 494 109 
L 494 744 
Q 775 591 1075 516 
Q 1375 441 1709 441 
Q 2250 441 2565 725 
Q 2881 1009 2881 1497 
Q 2881 1984 2565 2268 
Q 2250 2553 1709 2553 
Q 1456 2553 1204 2497 
Q 953 2441 691 2322 
L 691 4666 
z
" transform="scale(0.015625)"/>
       </defs>
       <use xlink:href="#DejaVuSans-32"/>
       <use xlink:href="#DejaVuSans-30" x="63.623047"/>
       <use xlink:href="#DejaVuSans-32" x="127.246094"/>
       <use xlink:href="#DejaVuSans-32" x="190.869141"/>
       <use xlink:href="#DejaVuSans-2d" x="254.492188"/>
       <use xlink:href="#DejaVuSans-30" x="290.576172"/>
       <use xlink:href="#DejaVuSans-35" x="354.199219"/>
       <use xlink:href="#DejaVuSans-2d" x="417.822266"/>
       <use xlink:href="#DejaVuSans-32" x="453.90625"/>
       <use xlink:href="#DejaVuSans-34" x="517.529297"/>
      </g>
     </g>
    </g>
    <g id="xtick_5">
     <g id="line2d_5">
      <g>
       <use xlink:href="#m0a6c3d192f" x="331.718743" y="395.28" style="stroke: #000000; stroke-width: 0.8"/>
      </g>
     </g>
     <g id="text_5">
      <!-- 2022-06-21 -->
      <g transform="translate(246.589716 495.213718) rotate(-45) scale(0.2 -0.2)">
       <use xlink:href="#DejaVuSans-32"/>
       <use xlink:href="#DejaVuSans-30" x="63.623047"/>
       <use xlink:href="#DejaVuSans-32" x="127.246094"/>
       <use xlink:href="#DejaVuSans-32" x="190.869141"/>
       <use xlink:href="#DejaVuSans-2d" x="254.492188"/>
       <use xlink:href="#DejaVuSans-30" x="290.576172"/>
       <use xlink:href="#DejaVuSans-36" x="354.199219"/>
       <use xlink:href="#DejaVuSans-2d" x="417.822266"/>
       <use xlink:href="#DejaVuSans-32" x="453.90625"/>
       <use xlink:href="#DejaVuSans-31" x="517.529297"/>
      </g>
     </g>
    </g>
    <g id="xtick_6">
     <g id="line2d_6">
      <g>
       <use xlink:href="#m0a6c3d192f" x="388.879719" y="395.28" style="stroke: #000000; stroke-width: 0.8"/>
      </g>
     </g>
     <g id="text_6">
      <!-- 2022-07-19 -->
      <g transform="translate(303.750691 495.213718) rotate(-45) scale(0.2 -0.2)">
       <defs>
        <path id="DejaVuSans-37" d="M 525 4666 
L 3525 4666 
L 3525 4397 
L 1831 0 
L 1172 0 
L 2766 4134 
L 525 4134 
L 525 4666 
z
" transform="scale(0.015625)"/>
       </defs>
       <use xlink:href="#DejaVuSans-32"/>
       <use xlink:href="#DejaVuSans-30" x="63.623047"/>
       <use xlink:href="#DejaVuSans-32" x="127.246094"/>
       <use xlink:href="#DejaVuSans-32" x="190.869141"/>
       <use xlink:href="#DejaVuSans-2d" x="254.492188"/>
       <use xlink:href="#DejaVuSans-30" x="290.576172"/>
       <use xlink:href="#DejaVuSans-37" x="354.199219"/>
       <use xlink:href="#DejaVuSans-2d" x="417.822266"/>
       <use xlink:href="#DejaVuSans-31" x="453.90625"/>
       <use xlink:href="#DejaVuSans-39" x="517.529297"/>
      </g>
     </g>
    </g>
    <g id="xtick_7">
     <g id="line2d_7">
      <g>
       <use xlink:href="#m0a6c3d192f" x="446.040694" y="395.28" style="stroke: #000000; stroke-width: 0.8"/>
      </g>
     </g>
     <g id="text_7">
      <!-- 2022-08-16 -->
      <g transform="translate(360.911667 495.213718) rotate(-45) scale(0.2 -0.2)">
       <defs>
        <path id="DejaVuSans-38" d="M 2034 2216 
Q 1584 2216 1326 1975 
Q 1069 1734 1069 1313 
Q 1069 891 1326 650 
Q 1584 409 2034 409 
Q 2484 409 2743 651 
Q 3003 894 3003 1313 
Q 3003 1734 2745 1975 
Q 2488 2216 2034 2216 
z
M 1403 2484 
Q 997 2584 770 2862 
Q 544 3141 544 3541 
Q 544 4100 942 4425 
Q 1341 4750 2034 4750 
Q 2731 4750 3128 4425 
Q 3525 4100 3525 3541 
Q 3525 3141 3298 2862 
Q 3072 2584 2669 2484 
Q 3125 2378 3379 2068 
Q 3634 1759 3634 1313 
Q 3634 634 3220 271 
Q 2806 -91 2034 -91 
Q 1263 -91 848 271 
Q 434 634 434 1313 
Q 434 1759 690 2068 
Q 947 2378 1403 2484 
z
M 1172 3481 
Q 1172 3119 1398 2916 
Q 1625 2713 2034 2713 
Q 2441 2713 2670 2916 
Q 2900 3119 2900 3481 
Q 2900 3844 2670 4047 
Q 2441 4250 2034 4250 
Q 1625 4250 1398 4047 
Q 1172 3844 1172 3481 
z
" transform="scale(0.015625)"/>
       </defs>
       <use xlink:href="#DejaVuSans-32"/>
       <use xlink:href="#DejaVuSans-30" x="63.623047"/>
       <use xlink:href="#DejaVuSans-32" x="127.246094"/>
       <use xlink:href="#DejaVuSans-32" x="190.869141"/>
       <use xlink:href="#DejaVuSans-2d" x="254.492188"/>
       <use xlink:href="#DejaVuSans-30" x="290.576172"/>
       <use xlink:href="#DejaVuSans-38" x="354.199219"/>
       <use xlink:href="#DejaVuSans-2d" x="417.822266"/>
       <use xlink:href="#DejaVuSans-31" x="453.90625"/>
       <use xlink:href="#DejaVuSans-36" x="517.529297"/>
      </g>
     </g>
    </g>
    <g id="xtick_8">
     <g id="line2d_8">
      <g>
       <use xlink:href="#m0a6c3d192f" x="503.20167" y="395.28" style="stroke: #000000; stroke-width: 0.8"/>
      </g>
     </g>
     <g id="text_8">
      <!-- 2022-09-13 -->
      <g transform="translate(418.072643 495.213718) rotate(-45) scale(0.2 -0.2)">
       <use xlink:href="#DejaVuSans-32"/>
       <use xlink:href="#DejaVuSans-30" x="63.623047"/>
       <use xlink:href="#DejaVuSans-32" x="127.246094"/>
       <use xlink:href="#DejaVuSans-32" x="190.869141"/>
       <use xlink:href="#DejaVuSans-2d" x="254.492188"/>
       <use xlink:href="#DejaVuSans-30" x="290.576172"/>
       <use xlink:href="#DejaVuSans-39" x="354.199219"/>
       <use xlink:href="#DejaVuSans-2d" x="417.822266"/>
       <use xlink:href="#DejaVuSans-31" x="453.90625"/>
       <use xlink:href="#DejaVuSans-33" x="517.529297"/>
      </g>
     </g>
    </g>
    <g id="xtick_9">
     <g id="line2d_9">
      <g>
       <use xlink:href="#m0a6c3d192f" x="560.362646" y="395.28" style="stroke: #000000; stroke-width: 0.8"/>
      </g>
     </g>
     <g id="text_9">
      <!-- 2022-10-11 -->
      <g transform="translate(475.233618 495.213718) rotate(-45) scale(0.2 -0.2)">
       <use xlink:href="#DejaVuSans-32"/>
       <use xlink:href="#DejaVuSans-30" x="63.623047"/>
       <use xlink:href="#DejaVuSans-32" x="127.246094"/>
       <use xlink:href="#DejaVuSans-32" x="190.869141"/>
       <use xlink:href="#DejaVuSans-2d" x="254.492188"/>
       <use xlink:href="#DejaVuSans-31" x="290.576172"/>
       <use xlink:href="#DejaVuSans-30" x="354.199219"/>
       <use xlink:href="#DejaVuSans-2d" x="417.822266"/>
       <use xlink:href="#DejaVuSans-31" x="453.90625"/>
       <use xlink:href="#DejaVuSans-31" x="517.529297"/>
      </g>
     </g>
    </g>
    <g id="xtick_10">
     <g id="line2d_10">
      <g>
       <use xlink:href="#m0a6c3d192f" x="617.523621" y="395.28" style="stroke: #000000; stroke-width: 0.8"/>
      </g>
     </g>
     <g id="text_10">
      <!-- 2022-11-08 -->
      <g transform="translate(532.394594 495.213718) rotate(-45) scale(0.2 -0.2)">
       <use xlink:href="#DejaVuSans-32"/>
       <use xlink:href="#DejaVuSans-30" x="63.623047"/>
       <use xlink:href="#DejaVuSans-32" x="127.246094"/>
       <use xlink:href="#DejaVuSans-32" x="190.869141"/>
       <use xlink:href="#DejaVuSans-2d" x="254.492188"/>
       <use xlink:href="#DejaVuSans-31" x="290.576172"/>
       <use xlink:href="#DejaVuSans-31" x="354.199219"/>
       <use xlink:href="#DejaVuSans-2d" x="417.822266"/>
       <use xlink:href="#DejaVuSans-30" x="453.90625"/>
       <use xlink:href="#DejaVuSans-38" x="517.529297"/>
      </g>
     </g>
    </g>
    <g id="xtick_11">
     <g id="line2d_11">
      <g>
       <use xlink:href="#m0a6c3d192f" x="674.684597" y="395.28" style="stroke: #000000; stroke-width: 0.8"/>
      </g>
     </g>
     <g id="text_11">
      <!-- 2022-12-06 -->
      <g transform="translate(589.555569 495.213718) rotate(-45) scale(0.2 -0.2)">
       <use xlink:href="#DejaVuSans-32"/>
       <use xlink:href="#DejaVuSans-30" x="63.623047"/>
       <use xlink:href="#DejaVuSans-32" x="127.246094"/>
       <use xlink:href="#DejaVuSans-32" x="190.869141"/>
       <use xlink:href="#DejaVuSans-2d" x="254.492188"/>
       <use xlink:href="#DejaVuSans-31" x="290.576172"/>
       <use xlink:href="#DejaVuSans-32" x="354.199219"/>
       <use xlink:href="#DejaVuSans-2d" x="417.822266"/>
       <use xlink:href="#DejaVuSans-30" x="453.90625"/>
       <use xlink:href="#DejaVuSans-36" x="517.529297"/>
      </g>
     </g>
    </g>
    <g id="xtick_12">
     <g id="line2d_12">
      <g>
       <use xlink:href="#m0a6c3d192f" x="731.845572" y="395.28" style="stroke: #000000; stroke-width: 0.8"/>
      </g>
     </g>
     <g id="text_12">
      <!-- 2023-01-03 -->
      <g transform="translate(646.716545 495.213718) rotate(-45) scale(0.2 -0.2)">
       <use xlink:href="#DejaVuSans-32"/>
       <use xlink:href="#DejaVuSans-30" x="63.623047"/>
       <use xlink:href="#DejaVuSans-32" x="127.246094"/>
       <use xlink:href="#DejaVuSans-33" x="190.869141"/>
       <use xlink:href="#DejaVuSans-2d" x="254.492188"/>
       <use xlink:href="#DejaVuSans-30" x="290.576172"/>
       <use xlink:href="#DejaVuSans-31" x="354.199219"/>
       <use xlink:href="#DejaVuSans-2d" x="417.822266"/>
       <use xlink:href="#DejaVuSans-30" x="453.90625"/>
       <use xlink:href="#DejaVuSans-33" x="517.529297"/>
      </g>
     </g>
    </g>
    <g id="xtick_13">
     <g id="line2d_13">
      <g>
       <use xlink:href="#m0a6c3d192f" x="789.006548" y="395.28" style="stroke: #000000; stroke-width: 0.8"/>
      </g>
     </g>
     <g id="text_13">
      <!-- 2023-01-31 -->
      <g transform="translate(703.877521 495.213718) rotate(-45) scale(0.2 -0.2)">
       <use xlink:href="#DejaVuSans-32"/>
       <use xlink:href="#DejaVuSans-30" x="63.623047"/>
       <use xlink:href="#DejaVuSans-32" x="127.246094"/>
       <use xlink:href="#DejaVuSans-33" x="190.869141"/>
       <use xlink:href="#DejaVuSans-2d" x="254.492188"/>
       <use xlink:href="#DejaVuSans-30" x="290.576172"/>
       <use xlink:href="#DejaVuSans-31" x="354.199219"/>
       <use xlink:href="#DejaVuSans-2d" x="417.822266"/>
       <use xlink:href="#DejaVuSans-33" x="453.90625"/>
       <use xlink:href="#DejaVuSans-31" x="517.529297"/>
      </g>
     </g>
    </g>
    <g id="xtick_14">
     <g id="line2d_14">
      <g>
       <use xlink:href="#m0a6c3d192f" x="846.167524" y="395.28" style="stroke: #000000; stroke-width: 0.8"/>
      </g>
     </g>
     <g id="text_14">
      <!-- 2023-02-28 -->
      <g transform="translate(761.038496 495.213718) rotate(-45) scale(0.2 -0.2)">
       <use xlink:href="#DejaVuSans-32"/>
       <use xlink:href="#DejaVuSans-30" x="63.623047"/>
       <use xlink:href="#DejaVuSans-32" x="127.246094"/>
       <use xlink:href="#DejaVuSans-33" x="190.869141"/>
       <use xlink:href="#DejaVuSans-2d" x="254.492188"/>
       <use xlink:href="#DejaVuSans-30" x="290.576172"/>
       <use xlink:href="#DejaVuSans-32" x="354.199219"/>
       <use xlink:href="#DejaVuSans-2d" x="417.822266"/>
       <use xlink:href="#DejaVuSans-32" x="453.90625"/>
       <use xlink:href="#DejaVuSans-38" x="517.529297"/>
      </g>
     </g>
    </g>
    <g id="xtick_15">
     <g id="line2d_15">
      <g>
       <use xlink:href="#m0a6c3d192f" x="903.328499" y="395.28" style="stroke: #000000; stroke-width: 0.8"/>
      </g>
     </g>
     <g id="text_15">
      <!-- 2023-03-28 -->
      <g transform="translate(818.199472 495.213718) rotate(-45) scale(0.2 -0.2)">
       <use xlink:href="#DejaVuSans-32"/>
       <use xlink:href="#DejaVuSans-30" x="63.623047"/>
       <use xlink:href="#DejaVuSans-32" x="127.246094"/>
       <use xlink:href="#DejaVuSans-33" x="190.869141"/>
       <use xlink:href="#DejaVuSans-2d" x="254.492188"/>
       <use xlink:href="#DejaVuSans-30" x="290.576172"/>
       <use xlink:href="#DejaVuSans-33" x="354.199219"/>
       <use xlink:href="#DejaVuSans-2d" x="417.822266"/>
       <use xlink:href="#DejaVuSans-32" x="453.90625"/>
       <use xlink:href="#DejaVuSans-38" x="517.529297"/>
      </g>
     </g>
    </g>
    <g id="xtick_16">
     <g id="line2d_16">
      <g>
       <use xlink:href="#m0a6c3d192f" x="940.074841" y="395.28" style="stroke: #000000; stroke-width: 0.8"/>
      </g>
     </g>
     <g id="text_16">
      <!-- 2023-04-15 -->
      <g transform="translate(854.945813 495.213718) rotate(-45) scale(0.2 -0.2)">
       <use xlink:href="#DejaVuSans-32"/>
       <use xlink:href="#DejaVuSans-30" x="63.623047"/>
       <use xlink:href="#DejaVuSans-32" x="127.246094"/>
       <use xlink:href="#DejaVuSans-33" x="190.869141"/>
       <use xlink:href="#DejaVuSans-2d" x="254.492188"/>
       <use xlink:href="#DejaVuSans-30" x="290.576172"/>
       <use xlink:href="#DejaVuSans-34" x="354.199219"/>
       <use xlink:href="#DejaVuSans-2d" x="417.822266"/>
       <use xlink:href="#DejaVuSans-31" x="453.90625"/>
       <use xlink:href="#DejaVuSans-35" x="517.529297"/>
      </g>
     </g>
    </g>
   </g>
   <g id="matplotlib.axis_2">
    <g id="ytick_1">
     <g id="line2d_17">
      <defs>
       <path id="mc6026f2744" d="M 0 0 
L -3.5 0 
" style="stroke: #000000; stroke-width: 0.8"/>
      </defs>
      <g>
       <use xlink:href="#mc6026f2744" x="103.074841" y="370.65191" style="stroke: #000000; stroke-width: 0.8"/>
      </g>
     </g>
     <g id="text_17">
      <!-- 0.00 -->
      <g transform="translate(51.543591 378.250348) scale(0.2 -0.2)">
       <defs>
        <path id="DejaVuSans-2e" d="M 684 794 
L 1344 794 
L 1344 0 
L 684 0 
L 684 794 
z
" transform="scale(0.015625)"/>
       </defs>
       <use xlink:href="#DejaVuSans-30"/>
       <use xlink:href="#DejaVuSans-2e" x="63.623047"/>
       <use xlink:href="#DejaVuSans-30" x="95.410156"/>
       <use xlink:href="#DejaVuSans-30" x="159.033203"/>
      </g>
     </g>
    </g>
    <g id="ytick_2">
     <g id="line2d_18">
      <g>
       <use xlink:href="#mc6026f2744" x="103.074841" y="291.169945" style="stroke: #000000; stroke-width: 0.8"/>
      </g>
     </g>
     <g id="text_18">
      <!-- 0.05 -->
      <g transform="translate(51.543591 298.768383) scale(0.2 -0.2)">
       <use xlink:href="#DejaVuSans-30"/>
       <use xlink:href="#DejaVuSans-2e" x="63.623047"/>
       <use xlink:href="#DejaVuSans-30" x="95.410156"/>
       <use xlink:href="#DejaVuSans-35" x="159.033203"/>
      </g>
     </g>
    </g>
    <g id="ytick_3">
     <g id="line2d_19">
      <g>
       <use xlink:href="#mc6026f2744" x="103.074841" y="211.68798" style="stroke: #000000; stroke-width: 0.8"/>
      </g>
     </g>
     <g id="text_19">
      <!-- 0.10 -->
      <g transform="translate(51.543591 219.286418) scale(0.2 -0.2)">
       <use xlink:href="#DejaVuSans-30"/>
       <use xlink:href="#DejaVuSans-2e" x="63.623047"/>
       <use xlink:href="#DejaVuSans-31" x="95.410156"/>
       <use xlink:href="#DejaVuSans-30" x="159.033203"/>
      </g>
     </g>
    </g>
    <g id="ytick_4">
     <g id="line2d_20">
      <g>
       <use xlink:href="#mc6026f2744" x="103.074841" y="132.206015" style="stroke: #000000; stroke-width: 0.8"/>
      </g>
     </g>
     <g id="text_20">
      <!-- 0.15 -->
      <g transform="translate(51.543591 139.804453) scale(0.2 -0.2)">
       <use xlink:href="#DejaVuSans-30"/>
       <use xlink:href="#DejaVuSans-2e" x="63.623047"/>
       <use xlink:href="#DejaVuSans-31" x="95.410156"/>
       <use xlink:href="#DejaVuSans-35" x="159.033203"/>
      </g>
     </g>
    </g>
    <g id="ytick_5">
     <g id="line2d_21">
      <g>
       <use xlink:href="#mc6026f2744" x="103.074841" y="52.724051" style="stroke: #000000; stroke-width: 0.8"/>
      </g>
     </g>
     <g id="text_21">
      <!-- 0.20 -->
      <g transform="translate(51.543591 60.322488) scale(0.2 -0.2)">
       <use xlink:href="#DejaVuSans-30"/>
       <use xlink:href="#DejaVuSans-2e" x="63.623047"/>
       <use xlink:href="#DejaVuSans-32" x="95.410156"/>
       <use xlink:href="#DejaVuSans-30" x="159.033203"/>
      </g>
     </g>
    </g>
   </g>
   <g id="line2d_22">
    <path d="M 0 0 
" clip-path="url(#p4e1b151c14)" style="fill: none; stroke: #ffa500; stroke-width: 1.5; stroke-linecap: square"/>
   </g>
   <g id="line2d_23">
    <path d="M 103.074841 370.65191 
L 948.274841 370.65191 
" clip-path="url(#p4e1b151c14)" style="fill: none; stroke-dasharray: 7.4,3.2; stroke-dashoffset: 0; stroke: #000000; stroke-width: 2"/>
   </g>
   <g id="patch_3">
    <path d="M 103.074841 395.28 
L 103.074841 7.2 
" style="fill: none; stroke: #000000; stroke-width: 0.8; stroke-linejoin: miter; stroke-linecap: square"/>
   </g>
   <g id="patch_4">
    <path d="M 940.074841 395.28 
L 940.074841 7.2 
" style="fill: none; stroke: #000000; stroke-width: 0.8; stroke-linejoin: miter; stroke-linecap: square"/>
   </g>
   <g id="patch_5">
    <path d="M 103.074841 395.28 
L 940.074841 395.28 
" style="fill: none; stroke: #000000; stroke-width: 0.8; stroke-linejoin: miter; stroke-linecap: square"/>
   </g>
   <g id="patch_6">
    <path d="M 103.074841 7.2 
L 940.074841 7.2 
" style="fill: none; stroke: #000000; stroke-width: 0.8; stroke-linejoin: miter; stroke-linecap: square"/>
   </g>
  </g>
 </g>
 <defs>
  <clipPath id="p4e1b151c14">
   <rect x="103.074841" y="7.2" width="837" height="388.08"/>
  </clipPath>
 </defs>
</svg>
