<?xml version="1.0" encoding="utf-8" standalone="no"?>
<!DOCTYPE svg PUBLIC "-//W3C//DTD SVG 1.1//EN"
  "http://www.w3.org/Graphics/SVG/1.1/DTD/svg11.dtd">
<svg xmlns:xlink="http://www.w3.org/1999/xlink" width="947.274841pt" height="505.354841pt" viewBox="0 0 947.274841 505.354841" xmlns="http://www.w3.org/2000/svg" version="1.1">
 <metadata>
  <rdf:RDF xmlns:dc="http://purl.org/dc/elements/1.1/" xmlns:cc="http://creativecommons.org/ns#" xmlns:rdf="http://www.w3.org/1999/02/22-rdf-syntax-ns#">
   <cc:Work>
    <dc:type rdf:resource="http://purl.org/dc/dcmitype/StillImage"/>
    <dc:date>2023-11-12T22:44:08.045735</dc:date>
    <dc:format>image/svg+xml</dc:format>
    <dc:creator>
     <cc:Agent>
      <dc:title>Matplotlib v3.7.2, https://matplotlib.org/</dc:title>
     </cc:Agent>
    </dc:creator>
   </cc:Work>
  </rdf:RDF>
 </metadata>
 <defs>
  <style type="text/css">*{stroke-linejoin: round; stroke-linecap: butt}</style>
 </defs>
 <g id="figure_1">
  <g id="patch_1">
   <path d="M 0 505.354841 
L 947.274841 505.354841 
L 947.274841 -0 
L 0 -0 
z
" style="fill: #ffffff"/>
  </g>
  <g id="axes_1">
   <g id="patch_2">
    <path d="M 103.074841 395.28 
L 940.074841 395.28 
L 940.074841 7.2 
L 103.074841 7.2 
z
" style="fill: #ffffff"/>
   </g>
   <g id="PolyCollection_1">
    <path d="M -4315.31939 370.213816 
L -4315.31939 370.23524 
L -4307.271313 370.12758 
L -4299.223236 370.034049 
L -4291.175159 369.915363 
L -4283.127082 369.835723 
L -4275.079005 369.736256 
L -4267.030929 369.632196 
L -4258.982852 369.529093 
L -4250.934775 369.43208 
L -4242.886698 369.346549 
L -4234.838621 369.248004 
L -4226.790544 369.144911 
L -4218.742467 369.044669 
L -4210.69439 368.922293 
L -4202.646313 368.820279 
L -4194.598236 368.70075 
L -4186.550159 368.597997 
L -4178.502082 368.460393 
L -4170.454005 368.346643 
L -4162.405929 368.23689 
L -4154.357852 368.10764 
L -4146.309775 367.981506 
L -4138.261698 367.858062 
L -4130.213621 367.709791 
L -4122.165544 367.579524 
L -4114.117467 367.427605 
L -4106.06939 367.273745 
L -4098.021313 367.103855 
L -4089.973236 366.92925 
L -4081.925159 366.758242 
L -4073.877082 366.560688 
L -4065.829005 366.337259 
L -4057.780929 366.138288 
L -4049.732852 365.912713 
L -4041.684775 365.655475 
L -4033.636698 365.415402 
L -4025.588621 365.134675 
L -4017.540544 364.849401 
L -4009.492467 364.555532 
L -4001.44439 364.24504 
L -3993.396313 363.901061 
L -3985.348236 363.53497 
L -3977.300159 363.147196 
L -3969.252082 362.773121 
L -3961.204005 362.334436 
L -3953.155929 361.916867 
L -3945.107852 361.472099 
L -3937.059775 361.025379 
L -3929.011698 360.544712 
L -3920.963621 360.02479 
L -3912.915544 359.542594 
L -3904.867467 359.006362 
L -3896.81939 358.451806 
L -3888.771313 357.90815 
L -3880.723236 357.369662 
L -3872.675159 356.786081 
L -3864.627082 356.196138 
L -3856.579005 355.607115 
L -3848.530929 354.994061 
L -3840.482852 354.373422 
L -3832.434775 353.754622 
L -3824.386698 353.114999 
L -3816.338621 352.473865 
L -3808.290544 351.842305 
L -3800.242467 351.184995 
L -3792.19439 350.482347 
L -3784.146313 349.801179 
L -3776.098236 349.121628 
L -3768.050159 348.452459 
L -3760.002082 347.756109 
L -3751.954005 347.075718 
L -3743.905929 346.383867 
L -3735.857852 345.758511 
L -3727.809775 345.023274 
L -3719.761698 344.38477 
L -3711.713621 343.686119 
L -3703.665544 343.020144 
L -3695.617467 342.327623 
L -3687.56939 341.709395 
L -3679.521313 341.001259 
L -3671.473236 340.335113 
L -3663.425159 339.711269 
L -3655.377082 339.040105 
L -3647.329005 338.404067 
L -3639.280929 337.739147 
L -3631.232852 337.065381 
L -3623.184775 336.423215 
L -3615.136698 335.793239 
L -3607.088621 335.115686 
L -3599.040544 334.463657 
L -3590.992467 333.807221 
L -3582.94439 333.161385 
L -3574.896313 332.530419 
L -3566.848236 331.882421 
L -3558.800159 331.228262 
L -3550.752082 330.637813 
L -3542.704005 329.970987 
L -3534.655929 329.331466 
L -3526.607852 328.702145 
L -3518.559775 328.072119 
L -3510.511698 327.443714 
L -3502.463621 326.807382 
L -3494.415544 326.199682 
L -3486.367467 325.568105 
L -3478.31939 324.921229 
L -3470.271313 324.267297 
L -3462.223236 323.606439 
L -3454.175159 322.986385 
L -3446.127082 322.305884 
L -3438.079005 321.581535 
L -3430.030929 320.899946 
L -3421.982852 320.182099 
L -3413.934775 319.453497 
L -3405.886698 318.685222 
L -3397.838621 317.903405 
L -3389.790544 317.17523 
L -3381.742467 316.347304 
L -3373.69439 315.559038 
L -3365.646313 314.712152 
L -3357.598236 313.932257 
L -3349.550159 313.019059 
L -3341.502082 312.123291 
L -3333.454005 311.251746 
L -3325.405929 310.36512 
L -3317.357852 309.451569 
L -3309.309775 308.49767 
L -3301.261698 307.601878 
L -3293.213621 306.579147 
L -3285.165544 305.676585 
L -3277.117467 304.624178 
L -3269.06939 303.603256 
L -3261.021313 302.605351 
L -3252.973236 301.646677 
L -3244.925159 300.531904 
L -3236.877082 299.521866 
L -3228.829005 298.244517 
L -3220.780929 297.141251 
L -3212.732852 296.110716 
L -3204.684775 294.950007 
L -3196.636698 293.759689 
L -3188.588621 292.392841 
L -3180.540544 291.109131 
L -3172.492467 290.031718 
L -3164.44439 288.344985 
L -3156.396313 286.982268 
L -3148.348236 285.589463 
L -3140.300159 284.145016 
L -3132.252082 282.504355 
L -3124.204005 280.957752 
L -3116.155929 279.778373 
L -3108.107852 278.286109 
L -3100.059775 275.865368 
L -3092.011698 273.820569 
L -3083.963621 272.294483 
L -3075.915544 270.200187 
L -3067.867467 268.451591 
L -3059.81939 266.920027 
L -3051.771313 264.625294 
L -3043.723236 262.021637 
L -3035.675159 260.494477 
L -3027.627082 259.717586 
L -3019.579005 257.896444 
L -3011.530929 257.285003 
L -3003.482852 256.133828 
L -2995.434775 253.948368 
L -2987.386698 254.092416 
L -2979.338621 254.950883 
L -2971.290544 256.798704 
L -2963.242467 254.686139 
L -2955.19439 258.829825 
L -2947.146313 259.746699 
L -2939.098236 254.143296 
L -2931.050159 255.721376 
L -2923.002082 258.195961 
L -2914.954005 256.732216 
L -2906.905929 256.431441 
L -2898.857852 267.068137 
L -2890.809775 282.196852 
L -2882.761698 289.740476 
L -2874.713621 273.358832 
L -2866.665544 281.816846 
L -2858.617467 292.8932 
L -2850.56939 292.286299 
L -2842.521313 314.803123 
L -2834.473236 311.784663 
L -2826.425159 304.958196 
L -2818.377082 287.970231 
L -2810.329005 304.02632 
L -2802.280929 313.703209 
L -2794.232852 309.730736 
L -2786.184775 312.293119 
L -2778.136698 321.435263 
L -2770.088621 320.28583 
L -2762.040544 312.513806 
L -2753.992467 322.416647 
L -2745.94439 324.435252 
L -2737.896313 320.99077 
L -2729.848236 327.308341 
L -2721.800159 329.666539 
L -2713.752082 329.125998 
L -2705.704005 327.309789 
L -2697.655929 329.442492 
L -2689.607852 327.430162 
L -2681.559775 327.697557 
L -2673.511698 329.738491 
L -2665.463621 327.983867 
L -2657.415544 329.024764 
L -2649.367467 329.162605 
L -2641.31939 327.765121 
L -2633.271313 328.401945 
L -2625.223236 326.350472 
L -2617.175159 326.585772 
L -2609.127082 327.270241 
L -2601.079005 327.39353 
L -2593.030929 326.438583 
L -2584.982852 325.636631 
L -2576.934775 325.497077 
L -2568.886698 324.599098 
L -2560.838621 324.531189 
L -2552.790544 324.427962 
L -2544.742467 323.016123 
L -2536.69439 323.796745 
L -2528.646313 322.881199 
L -2520.598236 322.519981 
L -2512.550159 322.608111 
L -2504.502082 321.698619 
L -2496.454005 321.50937 
L -2488.405929 321.875926 
L -2480.357852 322.434613 
L -2472.309775 320.875406 
L -2464.261698 320.616366 
L -2456.213621 320.102948 
L -2448.165544 322.815728 
L -2440.117467 322.840394 
L -2432.06939 323.831993 
L -2424.021313 321.156774 
L -2415.973236 319.48515 
L -2407.925159 319.923204 
L -2399.877082 321.631752 
L -2391.829005 321.817386 
L -2383.780929 318.540807 
L -2375.732852 321.074571 
L -2367.684775 320.250646 
L -2359.636698 319.641615 
L -2351.588621 318.005608 
L -2343.540544 318.998111 
L -2335.492467 318.078903 
L -2327.44439 318.513076 
L -2319.396313 317.311941 
L -2311.348236 316.295663 
L -2303.300159 314.667823 
L -2295.252082 313.732449 
L -2287.204005 312.842161 
L -2279.155929 311.717935 
L -2271.107852 311.204362 
L -2263.059775 310.099817 
L -2255.011698 308.91934 
L -2246.963621 306.409068 
L -2238.915544 304.405206 
L -2230.867467 303.279607 
L -2222.81939 301.109599 
L -2214.771313 300.334013 
L -2206.723236 298.340464 
L -2198.675159 295.607363 
L -2190.627082 293.249645 
L -2182.579005 291.343418 
L -2174.530929 288.515443 
L -2166.482852 286.585548 
L -2158.434775 283.991927 
L -2150.386698 281.637214 
L -2142.338621 278.794101 
L -2134.290544 276.364716 
L -2126.242467 273.22788 
L -2118.19439 270.660746 
L -2110.146313 268.028699 
L -2102.098236 264.637551 
L -2094.050159 261.455872 
L -2086.002082 258.953449 
L -2077.954005 256.152616 
L -2069.905929 252.777551 
L -2061.857852 249.992991 
L -2053.809775 246.711727 
L -2045.761698 242.35185 
L -2037.713621 240.228022 
L -2029.665544 236.466632 
L -2021.617467 233.408304 
L -2013.56939 230.020166 
L -2005.521313 226.345884 
L -1997.473236 222.594767 
L -1989.425159 219.11559 
L -1981.377082 214.650514 
L -1973.329005 211.760787 
L -1965.280929 207.503017 
L -1957.232852 204.581264 
L -1949.184775 200.226397 
L -1941.136698 195.976956 
L -1933.088621 192.047888 
L -1925.040544 188.792229 
L -1916.992467 183.824947 
L -1908.94439 180.261381 
L -1900.896313 175.839352 
L -1892.848236 172.205436 
L -1884.800159 167.669087 
L -1876.752082 163.611737 
L -1868.704005 162.564713 
L -1860.655929 155.190168 
L -1852.607852 153.518805 
L -1844.559775 148.794979 
L -1836.511698 145.342864 
L -1828.463621 141.38525 
L -1820.415544 137.205235 
L -1812.367467 133.366513 
L -1804.31939 129.639959 
L -1796.271313 126.096615 
L -1788.223236 122.541976 
L -1780.175159 124.076648 
L -1772.127082 114.920677 
L -1764.079005 112.140332 
L -1756.030929 118.432905 
L -1747.982852 107.543083 
L -1739.934775 108.607592 
L -1731.886698 106.849787 
L -1723.838621 100.902537 
L -1715.790544 101.211694 
L -1707.742467 105.813356 
L -1699.69439 101.440799 
L -1691.646313 99.149057 
L -1683.598236 101.863584 
L -1675.550159 100.153763 
L -1667.502082 101.896186 
L -1659.454005 104.449184 
L -1651.405929 109.15961 
L -1643.357852 120.683069 
L -1635.309775 117.548864 
L -1627.261698 123.644906 
L -1619.213621 128.647718 
L -1611.165544 131.18845 
L -1603.117467 139.382656 
L -1595.06939 145.500468 
L -1587.021313 135.552956 
L -1578.973236 146.474871 
L -1570.925159 159.967131 
L -1562.877082 166.542913 
L -1554.829005 169.626129 
L -1546.780929 187.471144 
L -1538.732852 189.038462 
L -1530.684775 194.006145 
L -1522.636698 192.852532 
L -1514.588621 207.937836 
L -1506.540544 203.450444 
L -1498.492467 200.964127 
L -1490.44439 213.8661 
L -1482.396313 223.068735 
L -1474.348236 222.41324 
L -1466.300159 227.927743 
L -1458.252082 229.805121 
L -1450.204005 230.254612 
L -1442.155929 230.371394 
L -1434.107852 233.469026 
L -1426.059775 235.266062 
L -1418.011698 244.645482 
L -1409.963621 239.997541 
L -1401.915544 248.165486 
L -1393.867467 246.438296 
L -1385.81939 245.434398 
L -1377.771313 248.78239 
L -1369.723236 251.76882 
L -1361.675159 248.15058 
L -1353.627082 250.025516 
L -1345.579005 250.194195 
L -1337.530929 254.616725 
L -1329.482852 252.481413 
L -1321.434775 251.490436 
L -1313.386698 252.751914 
L -1305.338621 254.847711 
L -1297.290544 253.783966 
L -1289.242467 251.647497 
L -1281.19439 252.763764 
L -1273.146313 249.511124 
L -1265.098236 249.758091 
L -1257.050159 254.877502 
L -1249.002082 254.4401 
L -1240.954005 251.337316 
L -1232.905929 250.440779 
L -1224.857852 250.596603 
L -1216.809775 247.21208 
L -1208.761698 247.766664 
L -1200.713621 247.524131 
L -1192.665544 246.610019 
L -1184.617467 245.502719 
L -1176.56939 243.280275 
L -1168.521313 244.182251 
L -1160.473236 242.594076 
L -1152.425159 242.034783 
L -1144.377082 241.063634 
L -1136.329005 240.882873 
L -1128.280929 239.113054 
L -1120.232852 236.121979 
L -1112.184775 235.746545 
L -1104.136698 233.279538 
L -1096.088621 229.834714 
L -1088.040544 231.960263 
L -1079.992467 227.367517 
L -1071.94439 228.988271 
L -1063.896313 227.95584 
L -1055.848236 228.077876 
L -1047.800159 225.088402 
L -1039.752082 224.718456 
L -1031.704005 224.155784 
L -1023.655929 220.51205 
L -1015.607852 221.245771 
L -1007.559775 220.805021 
L -999.511698 220.53803 
L -991.463621 218.754497 
L -983.415544 219.420752 
L -975.367467 217.601637 
L -967.31939 215.874313 
L -959.271313 213.20774 
L -951.223236 212.300568 
L -943.175159 211.679577 
L -935.127082 209.812546 
L -927.079005 210.013836 
L -919.030929 209.075209 
L -910.982852 207.421304 
L -902.934775 207.430774 
L -894.886698 205.570001 
L -886.838621 207.033792 
L -878.790544 205.73118 
L -870.742467 205.755957 
L -862.69439 203.469571 
L -854.646313 200.365536 
L -846.598236 202.95398 
L -838.550159 202.844184 
L -830.502082 201.822565 
L -822.454005 200.766895 
L -814.405929 198.609857 
L -806.357852 198.11477 
L -798.309775 196.92997 
L -790.261698 197.102432 
L -782.213621 196.655143 
L -774.165544 194.613085 
L -766.117467 191.716226 
L -758.06939 195.475365 
L -750.021313 194.579224 
L -741.973236 192.123854 
L -733.925159 193.687894 
L -725.877082 189.293628 
L -717.829005 189.83167 
L -709.780929 190.111493 
L -701.732852 187.130586 
L -693.684775 192.199177 
L -685.636698 187.108608 
L -677.588621 184.520638 
L -669.540544 187.830803 
L -661.492467 188.722451 
L -653.44439 187.096784 
L -645.396313 188.378678 
L -637.348236 186.036651 
L -629.300159 190.571866 
L -621.252082 188.252003 
L -613.204005 189.176876 
L -605.155929 186.065704 
L -597.107852 183.275919 
L -589.059775 186.797733 
L -581.011698 193.121583 
L -572.963621 185.880995 
L -564.915544 186.265893 
L -556.867467 183.547931 
L -548.81939 184.80149 
L -540.771313 184.422553 
L -532.723236 182.73493 
L -524.675159 182.094627 
L -516.627082 185.164151 
L -508.579005 183.541686 
L -500.530929 186.349939 
L -492.482852 186.869044 
L -484.434775 178.666661 
L -476.386698 182.05121 
L -468.338621 182.342531 
L -460.290544 182.928856 
L -452.242467 183.452308 
L -444.19439 188.722179 
L -436.146313 190.841391 
L -428.098236 190.628147 
L -420.050159 196.43817 
L -412.002082 206.045591 
L -403.954005 194.667541 
L -395.905929 194.568937 
L -387.857852 194.843428 
L -379.809775 198.671599 
L -371.761698 199.573001 
L -363.713621 199.578771 
L -355.665544 207.861855 
L -347.617467 210.935955 
L -339.56939 201.585536 
L -331.521313 210.09659 
L -323.473236 205.933524 
L -315.425159 203.35038 
L -307.377082 213.69529 
L -299.329005 211.662953 
L -291.280929 218.353368 
L -283.232852 216.348845 
L -275.184775 211.875913 
L -267.136698 216.086506 
L -259.088621 216.126293 
L -251.040544 220.265113 
L -242.992467 217.717102 
L -234.94439 224.518885 
L -226.896313 219.699809 
L -218.848236 223.315736 
L -210.800159 222.633692 
L -202.752082 226.610599 
L -194.704005 220.310393 
L -186.655929 227.143333 
L -178.607852 226.80754 
L -170.559775 231.492293 
L -162.511698 233.985095 
L -154.463621 234.044234 
L -146.415544 232.90468 
L -138.367467 235.937448 
L -130.31939 238.205844 
L -122.271313 236.268047 
L -114.223236 235.569931 
L -106.175159 238.237117 
L -98.127082 240.658133 
L -90.079005 236.574362 
L -82.030929 234.226222 
L -73.982852 243.691327 
L -65.934775 247.996581 
L -57.886698 238.390991 
L -49.838621 241.26893 
L -41.790544 242.731151 
L -33.742467 243.454985 
L -25.69439 248.332192 
L -17.646313 247.738179 
L -9.598236 245.79294 
L -1.550159 247.922152 
L 6.497918 248.530057 
L 14.545995 243.358143 
L 22.594071 246.017971 
L 30.642148 244.414616 
L 38.690225 251.636397 
L 46.738302 260.535145 
L 54.786379 259.304147 
L 62.834456 252.320637 
L 70.882533 251.602883 
L 78.93061 252.614065 
L 86.978687 252.991953 
L 95.026764 259.587869 
L 103.074841 251.310391 
L 111.122918 260.159268 
L 119.170995 267.310913 
L 127.219071 261.467718 
L 135.267148 270.639221 
L 143.315225 265.029773 
L 151.363302 270.056327 
L 159.411379 266.892532 
L 167.459456 269.405352 
L 175.507533 274.399489 
L 183.55561 274.183346 
L 191.603687 275.776062 
L 199.651764 276.288215 
L 207.699841 276.96837 
L 215.747918 265.276354 
L 223.795995 280.753958 
L 231.844071 287.215371 
L 239.892148 281.283971 
L 247.940225 287.030159 
L 255.988302 288.514227 
L 264.036379 285.559216 
L 272.084456 292.031818 
L 280.132533 296.559219 
L 288.18061 294.334949 
L 296.228687 296.251576 
L 304.276764 297.456857 
L 312.324841 299.259276 
L 320.372918 304.343119 
L 328.420995 294.994925 
L 336.469071 307.436382 
L 344.517148 308.20446 
L 352.565225 309.100416 
L 360.613302 301.980234 
L 368.661379 311.531171 
L 376.709456 318.088519 
L 384.757533 312.406162 
L 392.80561 313.602704 
L 400.853687 322.666684 
L 408.901764 308.314663 
L 416.949841 322.681187 
L 424.997918 314.532826 
L 433.045995 327.296877 
L 441.094071 322.291941 
L 449.142148 328.153911 
L 457.190225 330.413109 
L 465.238302 333.339472 
L 473.286379 334.729989 
L 481.334456 332.17691 
L 489.382533 332.966863 
L 497.43061 335.401365 
L 505.478687 341.61207 
L 513.526764 341.668784 
L 521.574841 342.354947 
L 529.622918 346.497315 
L 537.670995 347.420866 
L 545.719071 345.375903 
L 553.767148 346.2959 
L 561.815225 352.221854 
L 569.863302 353.706755 
L 577.911379 355.700016 
L 585.959456 352.420316 
L 594.007533 346.887557 
L 602.05561 354.275754 
L 610.103687 352.888155 
L 618.151764 355.38063 
L 626.199841 358.880123 
L 634.247918 355.750408 
L 642.295995 361.120576 
L 650.344071 358.269442 
L 658.392148 358.267305 
L 666.440225 358.576449 
L 674.488302 363.260748 
L 682.536379 362.760969 
L 690.584456 362.932594 
L 698.632533 360.407861 
L 706.68061 362.489752 
L 714.728687 363.7071 
L 722.776764 363.329162 
L 730.824841 366.504589 
L 738.872918 366.199686 
L 746.920995 368.098225 
L 754.969071 370.193395 
L 763.017148 370.34848 
L 771.065225 368.988222 
L 779.113302 369.625726 
L 787.161379 368.848251 
L 795.209456 370.399723 
L 803.257533 370.90847 
L 811.30561 369.103549 
L 819.353687 371.376061 
L 827.401764 361.834596 
L 835.449841 371.378288 
L 843.497918 374.893174 
L 851.545995 371.172961 
L 859.594071 371.080498 
L 867.642148 374.557102 
L 875.690225 374.556901 
L 883.738302 371.171802 
L 891.786379 370.921834 
L 899.834456 373.004715 
L 907.882533 372.101836 
L 915.93061 376.147001 
L 923.978687 374.53727 
L 932.026764 377.64 
L 940.074841 373.826504 
L 940.074841 365.131756 
L 940.074841 365.131756 
L 932.026764 361.637263 
L 923.978687 357.340253 
L 915.93061 362.264461 
L 907.882533 353.245696 
L 899.834456 355.849833 
L 891.786379 354.61386 
L 883.738302 345.045224 
L 875.690225 357.345139 
L 867.642148 363.967161 
L 859.594071 345.824961 
L 851.545995 353.662991 
L 843.497918 361.050628 
L 835.449841 356.009603 
L 827.401764 296.430849 
L 819.353687 354.037481 
L 811.30561 343.075367 
L 803.257533 354.469532 
L 795.209456 353.362226 
L 787.161379 348.695813 
L 779.113302 348.935029 
L 771.065225 347.645304 
L 763.017148 354.098818 
L 754.969071 354.152545 
L 746.920995 345.261084 
L 738.872918 339.348805 
L 730.824841 344.102713 
L 722.776764 335.589297 
L 714.728687 338.619604 
L 706.68061 333.487089 
L 698.632533 327.10626 
L 690.584456 335.510305 
L 682.536379 336.21506 
L 674.488302 336.006604 
L 666.440225 325.849984 
L 658.392148 323.494831 
L 650.344071 322.973075 
L 642.295995 334.376181 
L 634.247918 318.068394 
L 626.199841 328.721747 
L 618.151764 319.11703 
L 610.103687 311.736421 
L 602.05561 317.259978 
L 594.007533 291.332426 
L 585.959456 313.940328 
L 577.911379 322.914987 
L 569.863302 317.811398 
L 561.815225 315.160332 
L 553.767148 294.150211 
L 545.719071 294.595869 
L 537.670995 301.585611 
L 529.622918 300.675571 
L 521.574841 288.784635 
L 513.526764 288.836984 
L 505.478687 287.397876 
L 497.43061 275.827051 
L 489.382533 265.722029 
L 481.334456 263.239356 
L 473.286379 271.363696 
L 465.238302 268.53312 
L 457.190225 263.257893 
L 449.142148 257.851225 
L 441.094071 240.916153 
L 433.045995 257.135805 
L 424.997918 213.894891 
L 416.949841 242.691222 
L 408.901764 201.601317 
L 400.853687 245.65519 
L 392.80561 220.899451 
L 384.757533 220.20574 
L 376.709456 232.587237 
L 368.661379 217.491305 
L 360.613302 190.195604 
L 352.565225 209.913281 
L 344.517148 209.356134 
L 336.469071 208.29234 
L 328.420995 176.487252 
L 320.372918 192.032217 
L 312.324841 188.129816 
L 304.276764 185.819861 
L 296.228687 182.236681 
L 288.18061 175.502682 
L 280.132533 181.908902 
L 272.084456 170.057318 
L 264.036379 155.400025 
L 255.988302 167.359506 
L 247.940225 157.615065 
L 239.892148 148.980743 
L 231.844071 162.851327 
L 223.795995 147.599949 
L 215.747918 108.533991 
L 207.699841 136.874242 
L 199.651764 135.646304 
L 191.603687 135.658055 
L 183.55561 132.142769 
L 175.507533 132.227672 
L 167.459456 121.520485 
L 159.411379 117.105935 
L 151.363302 125.230223 
L 143.315225 109.746788 
L 135.267148 125.495017 
L 127.219071 103.990162 
L 119.170995 116.284667 
L 111.122918 101.949538 
L 103.074841 84.230207 
L 95.026764 100.432382 
L 86.978687 84.937588 
L 78.93061 85.991412 
L 70.882533 85.292595 
L 62.834456 86.79208 
L 54.786379 101.44194 
L 46.738302 104.924359 
L 38.690225 87.321379 
L 30.642148 69.302934 
L 22.594071 74.37486 
L 14.545995 70.750702 
L 6.497918 82.092403 
L -1.550159 80.932488 
L -9.598236 76.413074 
L -17.646313 82.331395 
L -25.69439 81.902431 
L -33.742467 72.771315 
L -41.790544 73.929018 
L -49.838621 70.430212 
L -57.886698 66.118226 
L -65.934775 86.887158 
L -73.982852 75.315788 
L -82.030929 59.436809 
L -90.079005 67.17613 
L -98.127082 74.104421 
L -106.175159 69.678037 
L -114.223236 66.294269 
L -122.271313 69.108177 
L -130.31939 76.433364 
L -138.367467 68.723776 
L -146.415544 65.961549 
L -154.463621 69.272904 
L -162.511698 64.494049 
L -170.559775 66.194546 
L -178.607852 56.4562 
L -186.655929 60.176161 
L -194.704005 48.276908 
L -202.752082 58.784356 
L -210.800159 54.051084 
L -218.848236 57.091401 
L -226.896313 53.949764 
L -234.94439 60.434182 
L -242.992467 49.80595 
L -251.040544 56.763206 
L -259.088621 50.127004 
L -267.136698 51.615868 
L -275.184775 46.453594 
L -283.232852 49.453945 
L -291.280929 57.317357 
L -299.329005 50.084316 
L -307.377082 52.090965 
L -315.425159 37.675977 
L -323.473236 44.633416 
L -331.521313 48.26613 
L -339.56939 37.22145 
L -347.617467 49.999347 
L -355.665544 51.198226 
L -363.713621 37.177303 
L -371.761698 37.67217 
L -379.809775 36.919036 
L -387.857852 32.044458 
L -395.905929 35.85406 
L -403.954005 34.849107 
L -412.002082 51.885756 
L -420.050159 40.639201 
L -428.098236 32.428936 
L -436.146313 32.988992 
L -444.19439 30.834149 
L -452.242467 26.046428 
L -460.290544 28.25896 
L -468.338621 25.177008 
L -476.386698 29.47651 
L -484.434775 24.84 
L -492.482852 34.813441 
L -500.530929 36.50833 
L -508.579005 34.721365 
L -516.627082 37.268366 
L -524.675159 34.039699 
L -532.723236 37.294175 
L -540.771313 39.358344 
L -548.81939 44.254617 
L -556.867467 41.050702 
L -564.915544 46.473857 
L -572.963621 45.855747 
L -581.011698 55.623483 
L -589.059775 49.656573 
L -597.107852 46.639943 
L -605.155929 51.004451 
L -613.204005 53.16229 
L -621.252082 53.630076 
L -629.300159 59.382638 
L -637.348236 54.979179 
L -645.396313 58.920512 
L -653.44439 57.43765 
L -661.492467 58.572671 
L -669.540544 57.25515 
L -677.588621 55.199327 
L -685.636698 59.800953 
L -693.684775 65.842279 
L -701.732852 60.129432 
L -709.780929 63.738171 
L -717.829005 62.464194 
L -725.877082 64.606705 
L -733.925159 69.296046 
L -741.973236 67.963529 
L -750.021313 71.794614 
L -758.06939 72.944019 
L -766.117467 69.024833 
L -774.165544 71.621842 
L -782.213621 74.492483 
L -790.261698 75.639819 
L -798.309775 75.701549 
L -806.357852 77.787237 
L -814.405929 77.653784 
L -822.454005 80.66302 
L -830.502082 81.619552 
L -838.550159 82.424614 
L -846.598236 83.224789 
L -854.646313 78.323514 
L -862.69439 84.072714 
L -870.742467 86.465815 
L -878.790544 85.986251 
L -886.838621 86.315223 
L -894.886698 86.495474 
L -902.934775 88.268482 
L -910.982852 87.870894 
L -919.030929 90.458238 
L -927.079005 91.447602 
L -935.127082 90.991061 
L -943.175159 92.015579 
L -951.223236 93.357378 
L -959.271313 94.74477 
L -967.31939 99.129539 
L -975.367467 100.258736 
L -983.415544 102.456321 
L -991.463621 101.540408 
L -999.511698 103.66886 
L -1007.559775 104.002031 
L -1015.607852 104.759323 
L -1023.655929 102.738965 
L -1031.704005 108.908141 
L -1039.752082 109.600799 
L -1047.800159 110.172034 
L -1055.848236 113.963195 
L -1063.896313 113.899834 
L -1071.94439 115.597974 
L -1079.992467 113.972211 
L -1088.040544 119.145343 
L -1096.088621 117.89355 
L -1104.136698 122.899721 
L -1112.184775 126.524828 
L -1120.232852 127.737069 
L -1128.280929 132.240728 
L -1136.329005 135.812454 
L -1144.377082 135.926413 
L -1152.425159 138.213116 
L -1160.473236 139.036426 
L -1168.521313 141.95913 
L -1176.56939 141.41816 
L -1184.617467 145.390561 
L -1192.665544 148.415137 
L -1200.713621 150.295754 
L -1208.761698 151.50422 
L -1216.809775 152.5037 
L -1224.857852 156.7554 
L -1232.905929 157.917445 
L -1240.954005 160.616822 
L -1249.002082 164.492194 
L -1257.050159 165.857696 
L -1265.098236 162.758667 
L -1273.146313 163.945884 
L -1281.19439 168.152456 
L -1289.242467 168.798112 
L -1297.290544 171.73735 
L -1305.338621 173.90428 
L -1313.386698 172.986368 
L -1321.434775 174.36961 
L -1329.482852 176.058391 
L -1337.530929 178.967153 
L -1345.579005 176.046561 
L -1353.627082 177.524222 
L -1361.675159 177.676351 
L -1369.723236 181.737448 
L -1377.771313 181.389716 
L -1385.81939 179.348731 
L -1393.867467 181.567119 
L -1401.915544 183.845808 
L -1409.963621 178.333789 
L -1418.011698 183.653401 
L -1426.059775 177.154524 
L -1434.107852 177.007673 
L -1442.155929 175.829005 
L -1450.204005 177.55827 
L -1458.252082 178.179617 
L -1466.300159 177.538403 
L -1474.348236 174.54038 
L -1482.396313 177.163938 
L -1490.44439 169.93083 
L -1498.492467 162.813306 
L -1506.540544 164.878597 
L -1514.588621 169.014615 
L -1522.636698 158.783165 
L -1530.684775 159.474919 
L -1538.732852 156.914232 
L -1546.780929 156.352604 
L -1554.829005 142.333524 
L -1562.877082 141.318591 
L -1570.925159 136.289456 
L -1578.973236 125.343719 
L -1587.021313 117.598262 
L -1595.06939 126.462038 
L -1603.117467 122.632679 
L -1611.165544 115.884409 
L -1619.213621 113.041963 
L -1627.261698 108.191657 
L -1635.309775 101.83627 
L -1643.357852 105.422702 
L -1651.405929 93.187257 
L -1659.454005 87.500821 
L -1667.502082 84.49274 
L -1675.550159 82.303669 
L -1683.598236 84.169735 
L -1691.646313 81.077405 
L -1699.69439 84.128363 
L -1707.742467 88.694553 
L -1715.790544 82.886985 
L -1723.838621 82.661265 
L -1731.886698 89.429327 
L -1739.934775 91.356828 
L -1747.982852 89.587036 
L -1756.030929 102.862524 
L -1764.079005 94.637069 
L -1772.127082 98.234263 
L -1780.175159 108.686657 
L -1788.223236 106.47646 
L -1796.271313 110.692434 
L -1804.31939 114.54475 
L -1812.367467 118.983778 
L -1820.415544 123.247478 
L -1828.463621 128.006163 
L -1836.511698 132.463276 
L -1844.559775 136.229599 
L -1852.607852 141.846787 
L -1860.655929 143.410073 
L -1868.704005 150.76788 
L -1876.752082 151.596994 
L -1884.800159 155.652282 
L -1892.848236 160.091416 
L -1900.896313 163.607262 
L -1908.94439 167.836323 
L -1916.992467 171.276354 
L -1925.040544 176.002303 
L -1933.088621 179.086537 
L -1941.136698 182.716191 
L -1949.184775 186.861595 
L -1957.232852 191.068013 
L -1965.280929 193.854342 
L -1973.329005 197.921324 
L -1981.377082 200.868821 
L -1989.425159 205.019182 
L -1997.473236 208.350834 
L -2005.521313 211.657514 
L -2013.56939 215.253105 
L -2021.617467 218.49257 
L -2029.665544 221.317545 
L -2037.713621 224.821591 
L -2045.761698 226.847729 
L -2053.809775 231.038338 
L -2061.857852 234.017706 
L -2069.905929 236.693254 
L -2077.954005 239.848597 
L -2086.002082 241.955222 
L -2094.050159 244.796496 
L -2102.098236 247.695263 
L -2110.146313 250.830781 
L -2118.19439 253.323859 
L -2126.242467 255.772918 
L -2134.290544 258.399695 
L -2142.338621 260.93049 
L -2150.386698 263.620124 
L -2158.434775 265.836979 
L -2166.482852 268.206401 
L -2174.530929 270.201108 
L -2182.579005 272.812602 
L -2190.627082 274.79055 
L -2198.675159 276.974203 
L -2206.723236 279.605166 
L -2214.771313 281.513653 
L -2222.81939 282.272632 
L -2230.867467 284.446754 
L -2238.915544 285.685496 
L -2246.963621 287.773253 
L -2255.011698 290.15304 
L -2263.059775 291.485801 
L -2271.107852 292.730897 
L -2279.155929 293.135302 
L -2287.204005 294.39701 
L -2295.252082 295.209989 
L -2303.300159 296.063793 
L -2311.348236 297.736591 
L -2319.396313 298.760914 
L -2327.44439 300.160717 
L -2335.492467 299.540302 
L -2343.540544 300.332976 
L -2351.588621 299.271753 
L -2359.636698 301.105567 
L -2367.684775 301.427787 
L -2375.732852 302.766346 
L -2383.780929 300.036309 
L -2391.829005 303.392822 
L -2399.877082 303.138548 
L -2407.925159 301.222878 
L -2415.973236 300.723925 
L -2424.021313 302.427811 
L -2432.06939 305.384556 
L -2440.117467 304.195664 
L -2448.165544 304.085696 
L -2456.213621 301.020132 
L -2464.261698 300.905565 
L -2472.309775 301.685706 
L -2480.357852 303.427226 
L -2488.405929 302.72951 
L -2496.454005 302.240126 
L -2504.502082 302.412601 
L -2512.550159 303.414622 
L -2520.598236 303.027408 
L -2528.646313 303.610648 
L -2536.69439 304.662698 
L -2544.742467 303.689632 
L -2552.790544 305.269371 
L -2560.838621 305.393388 
L -2568.886698 305.458574 
L -2576.934775 306.405249 
L -2584.982852 306.538653 
L -2593.030929 307.604099 
L -2601.079005 308.782699 
L -2609.127082 308.663749 
L -2617.175159 307.992648 
L -2625.223236 307.472338 
L -2633.271313 310.12855 
L -2641.31939 309.510841 
L -2649.367467 311.255047 
L -2657.415544 311.160533 
L -2665.463621 310.312858 
L -2673.511698 312.04405 
L -2681.559775 310.191024 
L -2689.607852 310.156004 
L -2697.655929 312.395345 
L -2705.704005 310.581436 
L -2713.752082 312.696759 
L -2721.800159 313.301507 
L -2729.848236 311.31356 
L -2737.896313 305.228713 
L -2745.94439 308.953351 
L -2753.992467 307.025158 
L -2762.040544 298.034574 
L -2770.088621 305.528791 
L -2778.136698 306.997608 
L -2786.184775 298.682952 
L -2794.232852 296.347814 
L -2802.280929 300.680222 
L -2810.329005 291.677584 
L -2818.377082 275.959454 
L -2826.425159 293.136204 
L -2834.473236 299.863481 
L -2842.521313 303.16367 
L -2850.56939 281.602528 
L -2858.617467 282.456741 
L -2866.665544 271.527602 
L -2874.713621 262.975827 
L -2882.761698 280.092589 
L -2890.809775 272.72368 
L -2898.857852 257.413168 
L -2906.905929 246.662945 
L -2914.954005 247.312714 
L -2923.002082 249.174102 
L -2931.050159 246.903296 
L -2939.098236 245.577452 
L -2947.146313 251.727825 
L -2955.19439 251.012759 
L -2963.242467 247.004978 
L -2971.290544 249.475051 
L -2979.338621 247.845758 
L -2987.386698 247.252518 
L -2995.434775 247.454073 
L -3003.482852 249.896909 
L -3011.530929 251.357981 
L -3019.579005 252.218893 
L -3027.627082 254.349492 
L -3035.675159 255.377968 
L -3043.723236 257.115335 
L -3051.771313 259.823563 
L -3059.81939 261.99127 
L -3067.867467 263.459814 
L -3075.915544 265.084637 
L -3083.963621 267.217033 
L -3092.011698 268.575462 
L -3100.059775 270.619412 
L -3108.107852 273.089581 
L -3116.155929 274.584658 
L -3124.204005 275.624247 
L -3132.252082 277.167726 
L -3140.300159 278.75012 
L -3148.348236 280.187204 
L -3156.396313 281.562025 
L -3164.44439 282.887038 
L -3172.492467 284.693522 
L -3180.540544 285.645239 
L -3188.588621 286.972892 
L -3196.636698 288.36653 
L -3204.684775 289.563637 
L -3212.732852 290.744993 
L -3220.780929 291.720529 
L -3228.829005 292.776276 
L -3236.877082 294.171872 
L -3244.925159 295.153773 
L -3252.973236 296.297605 
L -3261.021313 297.228431 
L -3269.06939 298.265426 
L -3277.117467 299.328678 
L -3285.165544 300.410478 
L -3293.213621 301.310096 
L -3301.261698 302.358548 
L -3309.309775 303.280287 
L -3317.357852 304.267319 
L -3325.405929 305.186369 
L -3333.454005 306.134352 
L -3341.502082 307.018805 
L -3349.550159 307.95986 
L -3357.598236 308.964729 
L -3365.646313 309.746345 
L -3373.69439 310.689142 
L -3381.742467 311.499566 
L -3389.790544 312.438312 
L -3397.838621 313.125222 
L -3405.886698 313.998067 
L -3413.934775 314.829961 
L -3421.982852 315.622055 
L -3430.030929 316.428305 
L -3438.079005 317.174159 
L -3446.127082 318.043356 
L -3454.175159 318.825963 
L -3462.223236 319.471269 
L -3470.271313 320.236919 
L -3478.31939 321.001555 
L -3486.367467 321.762601 
L -3494.415544 322.497002 
L -3502.463621 323.181731 
L -3510.511698 323.935158 
L -3518.559775 324.673894 
L -3526.607852 325.416696 
L -3534.655929 326.157158 
L -3542.704005 326.917593 
L -3550.752082 327.707948 
L -3558.800159 328.389475 
L -3566.848236 329.169323 
L -3574.896313 329.934847 
L -3582.94439 330.670081 
L -3590.992467 331.428584 
L -3599.040544 332.202836 
L -3607.088621 332.954393 
L -3615.136698 333.742962 
L -3623.184775 334.462861 
L -3631.232852 335.197174 
L -3639.280929 335.973267 
L -3647.329005 336.723305 
L -3655.377082 337.43567 
L -3663.425159 338.189588 
L -3671.473236 338.878165 
L -3679.521313 339.614022 
L -3687.56939 340.398078 
L -3695.617467 341.072234 
L -3703.665544 341.826218 
L -3711.713621 342.54059 
L -3719.761698 343.289592 
L -3727.809775 343.968189 
L -3735.857852 344.76066 
L -3743.905929 345.41797 
L -3751.954005 346.15478 
L -3760.002082 346.876007 
L -3768.050159 347.615524 
L -3776.098236 348.318605 
L -3784.146313 349.034695 
L -3792.19439 349.753812 
L -3800.242467 350.49697 
L -3808.290544 351.187619 
L -3816.338621 351.836701 
L -3824.386698 352.484802 
L -3832.434775 353.136761 
L -3840.482852 353.766559 
L -3848.530929 354.406822 
L -3856.579005 355.039282 
L -3864.627082 355.643494 
L -3872.675159 356.254487 
L -3880.723236 356.862073 
L -3888.771313 357.415508 
L -3896.81939 357.977997 
L -3904.867467 358.564336 
L -3912.915544 359.120126 
L -3920.963621 359.61794 
L -3929.011698 360.165437 
L -3937.059775 360.666232 
L -3945.107852 361.128057 
L -3953.155929 361.589862 
L -3961.204005 362.021942 
L -3969.252082 362.487089 
L -3977.300159 362.872501 
L -3985.348236 363.27916 
L -3993.396313 363.66222 
L -4001.44439 364.017546 
L -4009.492467 364.341734 
L -4017.540544 364.636741 
L -4025.588621 364.929749 
L -4033.636698 365.220134 
L -4041.684775 365.461455 
L -4049.732852 365.730301 
L -4057.780929 365.958656 
L -4065.829005 366.156064 
L -4073.877082 366.386639 
L -4081.925159 366.588782 
L -4089.973236 366.756738 
L -4098.021313 366.936659 
L -4106.06939 367.111635 
L -4114.117467 367.265882 
L -4122.165544 367.420616 
L -4130.213621 367.549161 
L -4138.261698 367.703742 
L -4146.309775 367.827358 
L -4154.357852 367.957098 
L -4162.405929 368.093054 
L -4170.454005 368.204483 
L -4178.502082 368.322333 
L -4186.550159 368.475578 
L -4194.598236 368.584644 
L -4202.646313 368.717708 
L -4210.69439 368.823574 
L -4218.742467 368.96354 
L -4226.790544 369.074784 
L -4234.838621 369.192224 
L -4242.886698 369.295057 
L -4250.934775 369.38822 
L -4258.982852 369.494406 
L -4267.030929 369.611076 
L -4275.079005 369.724621 
L -4283.127082 369.821428 
L -4291.175159 369.899696 
L -4299.223236 370.011633 
L -4307.271313 370.103544 
L -4315.31939 370.213816 
z
" clip-path="url(#pa70aef413c)" style="fill: #008000; fill-opacity: 0.3; stroke: #008000; stroke-opacity: 0.3"/>
   </g>
   <g id="matplotlib.axis_1">
    <g id="xtick_1">
     <g id="line2d_1">
      <defs>
       <path id="mf07e59cbc9" d="M 0 0 
L 0 3.5 
" style="stroke: #000000; stroke-width: 0.8"/>
      </defs>
      <g>
       <use xlink:href="#mf07e59cbc9" x="103.074841" y="395.28" style="stroke: #000000; stroke-width: 0.8"/>
      </g>
     </g>
     <g id="text_1">
      <!-- 2023-01-01 -->
      <g transform="translate(17.945813 495.213718) rotate(-45) scale(0.2 -0.2)">
       <defs>
        <path id="DejaVuSans-32" d="M 1228 531 
L 3431 531 
L 3431 0 
L 469 0 
L 469 531 
Q 828 903 1448 1529 
Q 2069 2156 2228 2338 
Q 2531 2678 2651 2914 
Q 2772 3150 2772 3378 
Q 2772 3750 2511 3984 
Q 2250 4219 1831 4219 
Q 1534 4219 1204 4116 
Q 875 4013 500 3803 
L 500 4441 
Q 881 4594 1212 4672 
Q 1544 4750 1819 4750 
Q 2544 4750 2975 4387 
Q 3406 4025 3406 3419 
Q 3406 3131 3298 2873 
Q 3191 2616 2906 2266 
Q 2828 2175 2409 1742 
Q 1991 1309 1228 531 
z
" transform="scale(0.015625)"/>
        <path id="DejaVuSans-30" d="M 2034 4250 
Q 1547 4250 1301 3770 
Q 1056 3291 1056 2328 
Q 1056 1369 1301 889 
Q 1547 409 2034 409 
Q 2525 409 2770 889 
Q 3016 1369 3016 2328 
Q 3016 3291 2770 3770 
Q 2525 4250 2034 4250 
z
M 2034 4750 
Q 2819 4750 3233 4129 
Q 3647 3509 3647 2328 
Q 3647 1150 3233 529 
Q 2819 -91 2034 -91 
Q 1250 -91 836 529 
Q 422 1150 422 2328 
Q 422 3509 836 4129 
Q 1250 4750 2034 4750 
z
" transform="scale(0.015625)"/>
        <path id="DejaVuSans-33" d="M 2597 2516 
Q 3050 2419 3304 2112 
Q 3559 1806 3559 1356 
Q 3559 666 3084 287 
Q 2609 -91 1734 -91 
Q 1441 -91 1130 -33 
Q 819 25 488 141 
L 488 750 
Q 750 597 1062 519 
Q 1375 441 1716 441 
Q 2309 441 2620 675 
Q 2931 909 2931 1356 
Q 2931 1769 2642 2001 
Q 2353 2234 1838 2234 
L 1294 2234 
L 1294 2753 
L 1863 2753 
Q 2328 2753 2575 2939 
Q 2822 3125 2822 3475 
Q 2822 3834 2567 4026 
Q 2313 4219 1838 4219 
Q 1578 4219 1281 4162 
Q 984 4106 628 3988 
L 628 4550 
Q 988 4650 1302 4700 
Q 1616 4750 1894 4750 
Q 2613 4750 3031 4423 
Q 3450 4097 3450 3541 
Q 3450 3153 3228 2886 
Q 3006 2619 2597 2516 
z
" transform="scale(0.015625)"/>
        <path id="DejaVuSans-2d" d="M 313 2009 
L 1997 2009 
L 1997 1497 
L 313 1497 
L 313 2009 
z
" transform="scale(0.015625)"/>
        <path id="DejaVuSans-31" d="M 794 531 
L 1825 531 
L 1825 4091 
L 703 3866 
L 703 4441 
L 1819 4666 
L 2450 4666 
L 2450 531 
L 3481 531 
L 3481 0 
L 794 0 
L 794 531 
z
" transform="scale(0.015625)"/>
       </defs>
       <use xlink:href="#DejaVuSans-32"/>
       <use xlink:href="#DejaVuSans-30" x="63.623047"/>
       <use xlink:href="#DejaVuSans-32" x="127.246094"/>
       <use xlink:href="#DejaVuSans-33" x="190.869141"/>
       <use xlink:href="#DejaVuSans-2d" x="254.492188"/>
       <use xlink:href="#DejaVuSans-30" x="290.576172"/>
       <use xlink:href="#DejaVuSans-31" x="354.199219"/>
       <use xlink:href="#DejaVuSans-2d" x="417.822266"/>
       <use xlink:href="#DejaVuSans-30" x="453.90625"/>
       <use xlink:href="#DejaVuSans-31" x="517.529297"/>
      </g>
     </g>
    </g>
    <g id="xtick_2">
     <g id="line2d_2">
      <g>
       <use xlink:href="#mf07e59cbc9" x="215.747918" y="395.28" style="stroke: #000000; stroke-width: 0.8"/>
      </g>
     </g>
     <g id="text_2">
      <!-- 2023-01-15 -->
      <g transform="translate(130.61889 495.213718) rotate(-45) scale(0.2 -0.2)">
       <defs>
        <path id="DejaVuSans-35" d="M 691 4666 
L 3169 4666 
L 3169 4134 
L 1269 4134 
L 1269 2991 
Q 1406 3038 1543 3061 
Q 1681 3084 1819 3084 
Q 2600 3084 3056 2656 
Q 3513 2228 3513 1497 
Q 3513 744 3044 326 
Q 2575 -91 1722 -91 
Q 1428 -91 1123 -41 
Q 819 9 494 109 
L 494 744 
Q 775 591 1075 516 
Q 1375 441 1709 441 
Q 2250 441 2565 725 
Q 2881 1009 2881 1497 
Q 2881 1984 2565 2268 
Q 2250 2553 1709 2553 
Q 1456 2553 1204 2497 
Q 953 2441 691 2322 
L 691 4666 
z
" transform="scale(0.015625)"/>
       </defs>
       <use xlink:href="#DejaVuSans-32"/>
       <use xlink:href="#DejaVuSans-30" x="63.623047"/>
       <use xlink:href="#DejaVuSans-32" x="127.246094"/>
       <use xlink:href="#DejaVuSans-33" x="190.869141"/>
       <use xlink:href="#DejaVuSans-2d" x="254.492188"/>
       <use xlink:href="#DejaVuSans-30" x="290.576172"/>
       <use xlink:href="#DejaVuSans-31" x="354.199219"/>
       <use xlink:href="#DejaVuSans-2d" x="417.822266"/>
       <use xlink:href="#DejaVuSans-31" x="453.90625"/>
       <use xlink:href="#DejaVuSans-35" x="517.529297"/>
      </g>
     </g>
    </g>
    <g id="xtick_3">
     <g id="line2d_3">
      <g>
       <use xlink:href="#mf07e59cbc9" x="328.420995" y="395.28" style="stroke: #000000; stroke-width: 0.8"/>
      </g>
     </g>
     <g id="text_3">
      <!-- 2023-01-29 -->
      <g transform="translate(243.291967 495.213718) rotate(-45) scale(0.2 -0.2)">
       <defs>
        <path id="DejaVuSans-39" d="M 703 97 
L 703 672 
Q 941 559 1184 500 
Q 1428 441 1663 441 
Q 2288 441 2617 861 
Q 2947 1281 2994 2138 
Q 2813 1869 2534 1725 
Q 2256 1581 1919 1581 
Q 1219 1581 811 2004 
Q 403 2428 403 3163 
Q 403 3881 828 4315 
Q 1253 4750 1959 4750 
Q 2769 4750 3195 4129 
Q 3622 3509 3622 2328 
Q 3622 1225 3098 567 
Q 2575 -91 1691 -91 
Q 1453 -91 1209 -44 
Q 966 3 703 97 
z
M 1959 2075 
Q 2384 2075 2632 2365 
Q 2881 2656 2881 3163 
Q 2881 3666 2632 3958 
Q 2384 4250 1959 4250 
Q 1534 4250 1286 3958 
Q 1038 3666 1038 3163 
Q 1038 2656 1286 2365 
Q 1534 2075 1959 2075 
z
" transform="scale(0.015625)"/>
       </defs>
       <use xlink:href="#DejaVuSans-32"/>
       <use xlink:href="#DejaVuSans-30" x="63.623047"/>
       <use xlink:href="#DejaVuSans-32" x="127.246094"/>
       <use xlink:href="#DejaVuSans-33" x="190.869141"/>
       <use xlink:href="#DejaVuSans-2d" x="254.492188"/>
       <use xlink:href="#DejaVuSans-30" x="290.576172"/>
       <use xlink:href="#DejaVuSans-31" x="354.199219"/>
       <use xlink:href="#DejaVuSans-2d" x="417.822266"/>
       <use xlink:href="#DejaVuSans-32" x="453.90625"/>
       <use xlink:href="#DejaVuSans-39" x="517.529297"/>
      </g>
     </g>
    </g>
    <g id="xtick_4">
     <g id="line2d_4">
      <g>
       <use xlink:href="#mf07e59cbc9" x="441.094071" y="395.28" style="stroke: #000000; stroke-width: 0.8"/>
      </g>
     </g>
     <g id="text_4">
      <!-- 2023-02-12 -->
      <g transform="translate(355.965044 495.213718) rotate(-45) scale(0.2 -0.2)">
       <use xlink:href="#DejaVuSans-32"/>
       <use xlink:href="#DejaVuSans-30" x="63.623047"/>
       <use xlink:href="#DejaVuSans-32" x="127.246094"/>
       <use xlink:href="#DejaVuSans-33" x="190.869141"/>
       <use xlink:href="#DejaVuSans-2d" x="254.492188"/>
       <use xlink:href="#DejaVuSans-30" x="290.576172"/>
       <use xlink:href="#DejaVuSans-32" x="354.199219"/>
       <use xlink:href="#DejaVuSans-2d" x="417.822266"/>
       <use xlink:href="#DejaVuSans-31" x="453.90625"/>
       <use xlink:href="#DejaVuSans-32" x="517.529297"/>
      </g>
     </g>
    </g>
    <g id="xtick_5">
     <g id="line2d_5">
      <g>
       <use xlink:href="#mf07e59cbc9" x="553.767148" y="395.28" style="stroke: #000000; stroke-width: 0.8"/>
      </g>
     </g>
     <g id="text_5">
      <!-- 2023-02-26 -->
      <g transform="translate(468.638121 495.213718) rotate(-45) scale(0.2 -0.2)">
       <defs>
        <path id="DejaVuSans-36" d="M 2113 2584 
Q 1688 2584 1439 2293 
Q 1191 2003 1191 1497 
Q 1191 994 1439 701 
Q 1688 409 2113 409 
Q 2538 409 2786 701 
Q 3034 994 3034 1497 
Q 3034 2003 2786 2293 
Q 2538 2584 2113 2584 
z
M 3366 4563 
L 3366 3988 
Q 3128 4100 2886 4159 
Q 2644 4219 2406 4219 
Q 1781 4219 1451 3797 
Q 1122 3375 1075 2522 
Q 1259 2794 1537 2939 
Q 1816 3084 2150 3084 
Q 2853 3084 3261 2657 
Q 3669 2231 3669 1497 
Q 3669 778 3244 343 
Q 2819 -91 2113 -91 
Q 1303 -91 875 529 
Q 447 1150 447 2328 
Q 447 3434 972 4092 
Q 1497 4750 2381 4750 
Q 2619 4750 2861 4703 
Q 3103 4656 3366 4563 
z
" transform="scale(0.015625)"/>
       </defs>
       <use xlink:href="#DejaVuSans-32"/>
       <use xlink:href="#DejaVuSans-30" x="63.623047"/>
       <use xlink:href="#DejaVuSans-32" x="127.246094"/>
       <use xlink:href="#DejaVuSans-33" x="190.869141"/>
       <use xlink:href="#DejaVuSans-2d" x="254.492188"/>
       <use xlink:href="#DejaVuSans-30" x="290.576172"/>
       <use xlink:href="#DejaVuSans-32" x="354.199219"/>
       <use xlink:href="#DejaVuSans-2d" x="417.822266"/>
       <use xlink:href="#DejaVuSans-32" x="453.90625"/>
       <use xlink:href="#DejaVuSans-36" x="517.529297"/>
      </g>
     </g>
    </g>
    <g id="xtick_6">
     <g id="line2d_6">
      <g>
       <use xlink:href="#mf07e59cbc9" x="666.440225" y="395.28" style="stroke: #000000; stroke-width: 0.8"/>
      </g>
     </g>
     <g id="text_6">
      <!-- 2023-03-12 -->
      <g transform="translate(581.311198 495.213718) rotate(-45) scale(0.2 -0.2)">
       <use xlink:href="#DejaVuSans-32"/>
       <use xlink:href="#DejaVuSans-30" x="63.623047"/>
       <use xlink:href="#DejaVuSans-32" x="127.246094"/>
       <use xlink:href="#DejaVuSans-33" x="190.869141"/>
       <use xlink:href="#DejaVuSans-2d" x="254.492188"/>
       <use xlink:href="#DejaVuSans-30" x="290.576172"/>
       <use xlink:href="#DejaVuSans-33" x="354.199219"/>
       <use xlink:href="#DejaVuSans-2d" x="417.822266"/>
       <use xlink:href="#DejaVuSans-31" x="453.90625"/>
       <use xlink:href="#DejaVuSans-32" x="517.529297"/>
      </g>
     </g>
    </g>
    <g id="xtick_7">
     <g id="line2d_7">
      <g>
       <use xlink:href="#mf07e59cbc9" x="779.113302" y="395.28" style="stroke: #000000; stroke-width: 0.8"/>
      </g>
     </g>
     <g id="text_7">
      <!-- 2023-03-26 -->
      <g transform="translate(693.984275 495.213718) rotate(-45) scale(0.2 -0.2)">
       <use xlink:href="#DejaVuSans-32"/>
       <use xlink:href="#DejaVuSans-30" x="63.623047"/>
       <use xlink:href="#DejaVuSans-32" x="127.246094"/>
       <use xlink:href="#DejaVuSans-33" x="190.869141"/>
       <use xlink:href="#DejaVuSans-2d" x="254.492188"/>
       <use xlink:href="#DejaVuSans-30" x="290.576172"/>
       <use xlink:href="#DejaVuSans-33" x="354.199219"/>
       <use xlink:href="#DejaVuSans-2d" x="417.822266"/>
       <use xlink:href="#DejaVuSans-32" x="453.90625"/>
       <use xlink:href="#DejaVuSans-36" x="517.529297"/>
      </g>
     </g>
    </g>
    <g id="xtick_8">
     <g id="line2d_8">
      <g>
       <use xlink:href="#mf07e59cbc9" x="891.786379" y="395.28" style="stroke: #000000; stroke-width: 0.8"/>
      </g>
     </g>
     <g id="text_8">
      <!-- 2023-04-09 -->
      <g transform="translate(806.657352 495.213718) rotate(-45) scale(0.2 -0.2)">
       <defs>
        <path id="DejaVuSans-34" d="M 2419 4116 
L 825 1625 
L 2419 1625 
L 2419 4116 
z
M 2253 4666 
L 3047 4666 
L 3047 1625 
L 3713 1625 
L 3713 1100 
L 3047 1100 
L 3047 0 
L 2419 0 
L 2419 1100 
L 313 1100 
L 313 1709 
L 2253 4666 
z
" transform="scale(0.015625)"/>
       </defs>
       <use xlink:href="#DejaVuSans-32"/>
       <use xlink:href="#DejaVuSans-30" x="63.623047"/>
       <use xlink:href="#DejaVuSans-32" x="127.246094"/>
       <use xlink:href="#DejaVuSans-33" x="190.869141"/>
       <use xlink:href="#DejaVuSans-2d" x="254.492188"/>
       <use xlink:href="#DejaVuSans-30" x="290.576172"/>
       <use xlink:href="#DejaVuSans-34" x="354.199219"/>
       <use xlink:href="#DejaVuSans-2d" x="417.822266"/>
       <use xlink:href="#DejaVuSans-30" x="453.90625"/>
       <use xlink:href="#DejaVuSans-39" x="517.529297"/>
      </g>
     </g>
    </g>
    <g id="xtick_9">
     <g id="line2d_9">
      <g>
       <use xlink:href="#mf07e59cbc9" x="940.074841" y="395.28" style="stroke: #000000; stroke-width: 0.8"/>
      </g>
     </g>
     <g id="text_9">
      <!-- 2023-04-15 -->
      <g transform="translate(854.945813 495.213718) rotate(-45) scale(0.2 -0.2)">
       <use xlink:href="#DejaVuSans-32"/>
       <use xlink:href="#DejaVuSans-30" x="63.623047"/>
       <use xlink:href="#DejaVuSans-32" x="127.246094"/>
       <use xlink:href="#DejaVuSans-33" x="190.869141"/>
       <use xlink:href="#DejaVuSans-2d" x="254.492188"/>
       <use xlink:href="#DejaVuSans-30" x="290.576172"/>
       <use xlink:href="#DejaVuSans-34" x="354.199219"/>
       <use xlink:href="#DejaVuSans-2d" x="417.822266"/>
       <use xlink:href="#DejaVuSans-31" x="453.90625"/>
       <use xlink:href="#DejaVuSans-35" x="517.529297"/>
      </g>
     </g>
    </g>
   </g>
   <g id="matplotlib.axis_2">
    <g id="ytick_1">
     <g id="line2d_10">
      <defs>
       <path id="md63a0d33cc" d="M 0 0 
L -3.5 0 
" style="stroke: #000000; stroke-width: 0.8"/>
      </defs>
      <g>
       <use xlink:href="#md63a0d33cc" x="103.074841" y="370.318599" style="stroke: #000000; stroke-width: 0.8"/>
      </g>
     </g>
     <g id="text_10">
      <!-- 0.00 -->
      <g transform="translate(51.543591 377.917037) scale(0.2 -0.2)">
       <defs>
        <path id="DejaVuSans-2e" d="M 684 794 
L 1344 794 
L 1344 0 
L 684 0 
L 684 794 
z
" transform="scale(0.015625)"/>
       </defs>
       <use xlink:href="#DejaVuSans-30"/>
       <use xlink:href="#DejaVuSans-2e" x="63.623047"/>
       <use xlink:href="#DejaVuSans-30" x="95.410156"/>
       <use xlink:href="#DejaVuSans-30" x="159.033203"/>
      </g>
     </g>
    </g>
    <g id="ytick_2">
     <g id="line2d_11">
      <g>
       <use xlink:href="#md63a0d33cc" x="103.074841" y="290.913243" style="stroke: #000000; stroke-width: 0.8"/>
      </g>
     </g>
     <g id="text_11">
      <!-- 0.05 -->
      <g transform="translate(51.543591 298.51168) scale(0.2 -0.2)">
       <use xlink:href="#DejaVuSans-30"/>
       <use xlink:href="#DejaVuSans-2e" x="63.623047"/>
       <use xlink:href="#DejaVuSans-30" x="95.410156"/>
       <use xlink:href="#DejaVuSans-35" x="159.033203"/>
      </g>
     </g>
    </g>
    <g id="ytick_3">
     <g id="line2d_12">
      <g>
       <use xlink:href="#md63a0d33cc" x="103.074841" y="211.507887" style="stroke: #000000; stroke-width: 0.8"/>
      </g>
     </g>
     <g id="text_12">
      <!-- 0.10 -->
      <g transform="translate(51.543591 219.106324) scale(0.2 -0.2)">
       <use xlink:href="#DejaVuSans-30"/>
       <use xlink:href="#DejaVuSans-2e" x="63.623047"/>
       <use xlink:href="#DejaVuSans-31" x="95.410156"/>
       <use xlink:href="#DejaVuSans-30" x="159.033203"/>
      </g>
     </g>
    </g>
    <g id="ytick_4">
     <g id="line2d_13">
      <g>
       <use xlink:href="#md63a0d33cc" x="103.074841" y="132.102531" style="stroke: #000000; stroke-width: 0.8"/>
      </g>
     </g>
     <g id="text_13">
      <!-- 0.15 -->
      <g transform="translate(51.543591 139.700968) scale(0.2 -0.2)">
       <use xlink:href="#DejaVuSans-30"/>
       <use xlink:href="#DejaVuSans-2e" x="63.623047"/>
       <use xlink:href="#DejaVuSans-31" x="95.410156"/>
       <use xlink:href="#DejaVuSans-35" x="159.033203"/>
      </g>
     </g>
    </g>
    <g id="ytick_5">
     <g id="line2d_14">
      <g>
       <use xlink:href="#md63a0d33cc" x="103.074841" y="52.697174" style="stroke: #000000; stroke-width: 0.8"/>
      </g>
     </g>
     <g id="text_14">
      <!-- 0.20 -->
      <g transform="translate(51.543591 60.295612) scale(0.2 -0.2)">
       <use xlink:href="#DejaVuSans-30"/>
       <use xlink:href="#DejaVuSans-2e" x="63.623047"/>
       <use xlink:href="#DejaVuSans-32" x="95.410156"/>
       <use xlink:href="#DejaVuSans-30" x="159.033203"/>
      </g>
     </g>
    </g>
   </g>
   <g id="line2d_15">
    <path d="M 843.497918 370.318599 
L 940.074841 370.318599 
L 940.074841 370.318599 
" clip-path="url(#pa70aef413c)" style="fill: none; stroke: #ffa500; stroke-width: 1.5; stroke-linecap: square"/>
   </g>
   <g id="line2d_16">
    <path d="M 103.074841 370.318599 
L 948.274841 370.318599 
" clip-path="url(#pa70aef413c)" style="fill: none; stroke-dasharray: 7.4,3.2; stroke-dashoffset: 0; stroke: #000000; stroke-width: 2"/>
   </g>
   <g id="patch_3">
    <path d="M 103.074841 395.28 
L 103.074841 7.2 
" style="fill: none; stroke: #000000; stroke-width: 0.8; stroke-linejoin: miter; stroke-linecap: square"/>
   </g>
   <g id="patch_4">
    <path d="M 940.074841 395.28 
L 940.074841 7.2 
" style="fill: none; stroke: #000000; stroke-width: 0.8; stroke-linejoin: miter; stroke-linecap: square"/>
   </g>
   <g id="patch_5">
    <path d="M 103.074841 395.28 
L 940.074841 395.28 
" style="fill: none; stroke: #000000; stroke-width: 0.8; stroke-linejoin: miter; stroke-linecap: square"/>
   </g>
   <g id="patch_6">
    <path d="M 103.074841 7.2 
L 940.074841 7.2 
" style="fill: none; stroke: #000000; stroke-width: 0.8; stroke-linejoin: miter; stroke-linecap: square"/>
   </g>
  </g>
 </g>
 <defs>
  <clipPath id="pa70aef413c">
   <rect x="103.074841" y="7.2" width="837" height="388.08"/>
  </clipPath>
 </defs>
</svg>
