<?xml version="1.0" encoding="utf-8" standalone="no"?>
<!DOCTYPE svg PUBLIC "-//W3C//DTD SVG 1.1//EN"
  "http://www.w3.org/Graphics/SVG/1.1/DTD/svg11.dtd">
<svg xmlns:xlink="http://www.w3.org/1999/xlink" width="947.274841pt" height="505.354841pt" viewBox="0 0 947.274841 505.354841" xmlns="http://www.w3.org/2000/svg" version="1.1">
 <metadata>
  <rdf:RDF xmlns:dc="http://purl.org/dc/elements/1.1/" xmlns:cc="http://creativecommons.org/ns#" xmlns:rdf="http://www.w3.org/1999/02/22-rdf-syntax-ns#">
   <cc:Work>
    <dc:type rdf:resource="http://purl.org/dc/dcmitype/StillImage"/>
    <dc:date>2023-11-21T19:32:49.266436</dc:date>
    <dc:format>image/svg+xml</dc:format>
    <dc:creator>
     <cc:Agent>
      <dc:title>Matplotlib v3.7.2, https://matplotlib.org/</dc:title>
     </cc:Agent>
    </dc:creator>
   </cc:Work>
  </rdf:RDF>
 </metadata>
 <defs>
  <style type="text/css">*{stroke-linejoin: round; stroke-linecap: butt}</style>
 </defs>
 <g id="figure_1">
  <g id="patch_1">
   <path d="M 0 505.354841 
L 947.274841 505.354841 
L 947.274841 -0 
L 0 -0 
z
" style="fill: #ffffff"/>
  </g>
  <g id="axes_1">
   <g id="patch_2">
    <path d="M 103.074841 395.28 
L 940.074841 395.28 
L 940.074841 7.2 
L 103.074841 7.2 
z
" style="fill: #ffffff"/>
   </g>
   <g id="PolyCollection_1">
    <path d="M -393.000769 228.786937 
L -393.000769 228.804805 
L -390.959306 228.714838 
L -388.917842 228.637939 
L -386.876379 228.53938 
L -384.834915 228.467938 
L -382.793452 228.390707 
L -380.751989 228.30218 
L -378.710525 228.216584 
L -376.669062 228.13788 
L -374.627598 228.069671 
L -372.586135 227.988669 
L -370.544672 227.900517 
L -368.503208 227.813337 
L -366.461745 227.715311 
L -364.420281 227.631744 
L -362.378818 227.535635 
L -360.337354 227.440227 
L -358.295891 227.335862 
L -356.254428 227.242108 
L -354.212964 227.151354 
L -352.171501 227.04336 
L -350.130037 226.937828 
L -348.088574 226.835486 
L -346.047111 226.713363 
L -344.005647 226.60731 
L -341.964184 226.477858 
L -339.92272 226.354466 
L -337.881257 226.211181 
L -335.839793 226.062792 
L -333.79833 225.921186 
L -331.756867 225.762443 
L -329.715403 225.577352 
L -327.67394 225.413113 
L -325.632476 225.226297 
L -323.591013 225.011917 
L -321.54955 224.806883 
L -319.508086 224.58105 
L -317.466623 224.343412 
L -315.425159 224.101009 
L -313.383696 223.833946 
L -311.342232 223.546255 
L -309.300769 223.248786 
L -307.259306 222.932721 
L -305.217842 222.608115 
L -303.176379 222.258186 
L -301.134915 221.912474 
L -299.093452 221.536959 
L -297.051989 221.173824 
L -295.010525 220.771069 
L -292.969062 220.341998 
L -290.927598 219.934777 
L -288.886135 219.500153 
L -286.844672 219.040414 
L -284.803208 218.59001 
L -282.761745 218.132542 
L -280.720281 217.653804 
L -278.678818 217.170342 
L -276.637354 216.682611 
L -274.595891 216.174395 
L -272.554428 215.65981 
L -270.512964 215.147153 
L -268.471501 214.616977 
L -266.430037 214.083654 
L -264.388574 213.554813 
L -262.347111 212.997688 
L -260.305647 212.433281 
L -258.264184 211.868923 
L -256.22272 211.305813 
L -254.181257 210.747564 
L -252.139793 210.173831 
L -250.09833 209.610008 
L -248.056867 209.036118 
L -246.015403 208.509636 
L -243.97394 207.907135 
L -241.932476 207.35283 
L -239.891013 206.783437 
L -237.84955 206.245706 
L -235.808086 205.671869 
L -233.766623 205.125557 
L -231.725159 204.571112 
L -229.683696 204.018661 
L -227.642232 203.479729 
L -225.600769 202.939592 
L -223.559306 202.417727 
L -221.517842 201.866809 
L -219.476379 201.308274 
L -217.434915 200.776169 
L -215.393452 200.253996 
L -213.351989 199.692446 
L -211.310525 199.152056 
L -209.269062 198.607942 
L -207.227598 198.072604 
L -205.186135 197.549585 
L -203.144672 197.012483 
L -201.103208 196.469909 
L -199.061745 195.981105 
L -197.020281 195.427477 
L -194.978818 194.896998 
L -192.937354 194.375098 
L -190.895891 193.852406 
L -188.854428 193.330949 
L -186.812964 192.802792 
L -184.771501 192.298584 
L -182.730037 191.774673 
L -180.688574 191.237718 
L -178.647111 190.694851 
L -176.605647 190.146344 
L -174.564184 189.632485 
L -172.52272 189.06703 
L -170.481257 188.465785 
L -168.439793 187.894926 
L -166.39833 187.304102 
L -164.356867 186.699491 
L -162.315403 186.061324 
L -160.27394 185.411655 
L -158.232476 184.806937 
L -156.191013 184.119723 
L -154.14955 183.465865 
L -152.108086 182.761982 
L -150.066623 182.11447 
L -148.025159 181.355816 
L -145.983696 180.610958 
L -143.942232 179.88718 
L -141.900769 179.150977 
L -139.859306 178.392697 
L -137.817842 177.600259 
L -135.776379 176.856782 
L -133.734915 176.006129 
L -131.693452 175.257048 
L -129.651989 174.381839 
L -127.610525 173.534259 
L -125.569062 172.705678 
L -123.527598 171.833971 
L -121.486135 170.948998 
L -119.444672 170.142133 
L -117.403208 169.080043 
L -115.361745 168.16482 
L -113.320281 167.310903 
L -111.278818 166.347868 
L -109.237354 165.327472 
L -107.195891 164.211093 
L -105.154428 163.156481 
L -103.112964 162.267887 
L -101.071501 160.862402 
L -99.030037 159.732292 
L -96.988574 158.576673 
L -94.947111 157.379826 
L -92.905647 156.015951 
L -90.864184 154.703538 
L -88.82272 153.739514 
L -86.781257 152.517325 
L -84.739793 150.464639 
L -82.69833 148.762471 
L -80.656867 147.47114 
L -78.615403 145.801344 
L -76.57394 144.211956 
L -74.532476 142.993283 
L -72.491013 141.039923 
L -70.44955 138.888755 
L -68.408086 137.563422 
L -66.366623 136.860767 
L -64.325159 135.323789 
L -62.283696 134.577334 
L -60.242232 133.845307 
L -58.200769 131.875992 
L -56.159306 132.09303 
L -54.117842 132.963681 
L -52.076379 134.384815 
L -50.034915 132.563493 
L -47.993452 135.823845 
L -45.951989 136.884713 
L -43.910525 132.427233 
L -41.869062 132.854175 
L -39.827598 135.301827 
L -37.786135 133.935704 
L -35.744672 134.281219 
L -33.703208 143.132054 
L -31.661745 155.424488 
L -29.620281 162.067707 
L -27.578818 147.86462 
L -25.537354 154.758198 
L -23.495891 163.999587 
L -21.454428 163.900919 
L -19.412964 182.402726 
L -17.371501 179.571999 
L -15.330037 174.624225 
L -13.288574 159.597203 
L -11.247111 173.016567 
L -9.205647 180.912246 
L -7.164184 177.59871 
L -5.12272 179.856655 
L -3.081257 187.560497 
L -1.039793 186.461668 
L 1.00167 179.504661 
L 3.043133 187.812153 
L 5.084597 189.310082 
L 7.12606 186.164466 
L 9.167524 191.501795 
L 11.208987 193.52265 
L 13.25045 192.757095 
L 15.291914 191.146017 
L 17.333377 192.894312 
L 19.374841 191.109332 
L 21.416304 191.243102 
L 23.457768 192.781298 
L 25.499231 191.191621 
L 27.540694 191.936637 
L 29.582158 191.95979 
L 31.623621 190.671636 
L 33.665085 191.12489 
L 35.706548 189.173757 
L 37.748011 189.324553 
L 39.789475 189.805779 
L 41.830938 189.794831 
L 43.872402 188.870241 
L 45.913865 188.056734 
L 47.955328 187.809569 
L 49.996792 186.977682 
L 52.038255 186.81369 
L 54.079719 186.544531 
L 56.121182 185.33081 
L 58.162646 185.910902 
L 60.204109 184.986564 
L 62.245572 184.590973 
L 64.287036 184.592164 
L 66.328499 183.758836 
L 68.369963 183.601902 
L 70.411426 183.896434 
L 72.452889 184.22903 
L 74.494353 182.889225 
L 76.535816 182.619959 
L 78.57728 182.230125 
L 80.618743 184.452303 
L 82.660207 184.493194 
L 84.70167 185.379828 
L 86.743133 183.298068 
L 88.784597 181.968359 
L 90.82606 182.434559 
L 92.867524 183.929509 
L 94.908987 184.219943 
L 96.95045 181.563303 
L 98.991914 183.908571 
L 101.033377 183.242468 
L 103.074841 183.107703 
L 105.116304 181.93252 
L 107.157768 182.933205 
L 109.199231 182.379296 
L 111.240694 183.082392 
L 113.282158 182.463924 
L 115.323621 181.659739 
L 117.365085 180.702841 
L 119.406548 180.327589 
L 121.448011 179.782673 
L 123.489475 179.225832 
L 125.530938 179.296901 
L 127.572402 178.655026 
L 129.613865 178.075224 
L 131.655328 176.546639 
L 133.696792 175.182773 
L 135.738255 174.644426 
L 137.779719 173.257956 
L 139.821182 173.021437 
L 141.862646 171.815672 
L 143.904109 170.129662 
L 145.945572 168.61715 
L 147.987036 167.548626 
L 150.028499 165.705559 
L 152.069963 164.653366 
L 154.111426 162.937619 
L 156.152889 161.245912 
L 158.194353 159.746373 
L 160.235816 158.123167 
L 162.27728 156.233318 
L 164.318743 154.386009 
L 166.360207 152.564949 
L 168.40167 150.31872 
L 170.443133 148.347512 
L 172.484597 146.577771 
L 174.52606 144.663382 
L 176.567524 142.602663 
L 178.608987 140.53552 
L 180.65045 138.415942 
L 182.691914 135.584502 
L 184.733377 133.764796 
L 186.774841 131.570381 
L 188.816304 129.768973 
L 190.857768 127.120502 
L 192.899231 124.623029 
L 194.940694 122.794545 
L 196.982158 120.113793 
L 199.023621 117.271245 
L 201.065085 115.185288 
L 203.106548 112.298367 
L 205.148011 110.216123 
L 207.189475 107.558437 
L 209.230938 104.248974 
L 211.272402 101.637234 
L 213.313865 99.823846 
L 215.355328 96.684659 
L 217.396792 94.179181 
L 219.438255 91.178343 
L 221.479719 89.126933 
L 223.521182 85.61438 
L 225.562646 82.673842 
L 227.604109 83.171877 
L 229.645572 77.502343 
L 231.687036 76.579281 
L 233.728499 73.356842 
L 235.769963 71.897441 
L 237.811426 68.549122 
L 239.852889 66.292953 
L 241.894353 63.761557 
L 243.935816 61.74692 
L 245.97728 59.711442 
L 248.018743 57.250871 
L 250.060207 58.998328 
L 252.10167 51.994373 
L 254.143133 51.079477 
L 256.184597 54.346063 
L 258.22606 47.706427 
L 260.267524 49.054089 
L 262.308987 48.3128 
L 264.35045 44.158088 
L 266.391914 44.546757 
L 268.433377 49.719188 
L 270.474841 45.088863 
L 272.516304 44.62129 
L 274.557768 46.322754 
L 276.599231 46.249886 
L 278.640694 48.253683 
L 280.682158 50.915777 
L 282.723621 54.718621 
L 284.765085 67.044577 
L 286.806548 62.406674 
L 288.848011 69.021706 
L 290.889475 72.999861 
L 292.930938 75.884211 
L 294.972402 80.393667 
L 297.013865 84.976019 
L 299.055328 78.764025 
L 301.096792 84.373011 
L 303.138255 93.18776 
L 305.179719 97.140071 
L 307.221182 98.249387 
L 309.262646 113.019589 
L 311.304109 114.074915 
L 313.345572 117.33909 
L 315.387036 116.648351 
L 317.428499 128.566484 
L 319.469963 125.357089 
L 321.511426 122.570406 
L 323.552889 133.605869 
L 325.594353 140.47432 
L 327.635816 140.071217 
L 329.67728 145.097013 
L 331.718743 146.459869 
L 333.760207 147.052626 
L 335.80167 147.191591 
L 337.843133 148.7522 
L 339.884597 150.78321 
L 341.92606 158.390079 
L 343.967524 153.586648 
L 346.008987 160.153896 
L 348.05045 159.292023 
L 350.091914 158.268028 
L 352.133377 160.954544 
L 354.174841 163.299728 
L 356.216304 159.825312 
L 358.257768 162.865207 
L 360.299231 162.873656 
L 362.340694 166.166362 
L 364.382158 165.140084 
L 366.423621 163.87611 
L 368.465085 165.760283 
L 370.506548 166.137939 
L 372.548011 165.852668 
L 374.589475 165.045049 
L 376.630938 166.056316 
L 378.672402 164.13174 
L 380.713865 164.836529 
L 382.755328 167.945173 
L 384.796792 167.824377 
L 386.838255 165.847835 
L 388.879719 166.204256 
L 390.921182 166.141494 
L 392.962646 163.500146 
L 395.004109 164.95127 
L 397.045572 167.161636 
L 399.087036 164.597713 
L 401.128499 164.58129 
L 403.169963 163.455035 
L 405.211426 164.519419 
L 407.252889 164.490518 
L 409.294353 163.870049 
L 411.335816 163.844474 
L 413.37728 163.65991 
L 415.418743 163.097999 
L 417.460207 161.439787 
L 419.50167 161.131891 
L 421.543133 160.198293 
L 423.584597 157.402055 
L 425.62606 160.136095 
L 427.667524 156.79315 
L 429.708987 158.097163 
L 431.75045 158.19884 
L 433.791914 158.603208 
L 435.833377 157.007868 
L 437.874841 157.596639 
L 439.916304 157.654896 
L 441.957768 154.318907 
L 443.999231 155.557894 
L 446.040694 155.275887 
L 448.082158 156.156892 
L 450.123621 154.051316 
L 452.165085 155.082291 
L 454.206548 154.728547 
L 456.248011 151.509084 
L 458.289475 151.445823 
L 460.330938 150.797044 
L 462.372402 150.712047 
L 464.413865 149.329053 
L 466.455328 149.705698 
L 468.496792 149.162449 
L 470.538255 148.771872 
L 472.579719 147.933909 
L 474.621182 146.364298 
L 476.662646 148.294834 
L 478.704109 148.017293 
L 480.745572 146.91288 
L 482.787036 146.351985 
L 484.828499 144.233082 
L 486.869963 146.404606 
L 488.911426 146.147985 
L 490.952889 146.238978 
L 492.994353 145.253792 
L 495.035816 144.117134 
L 497.07728 143.365068 
L 499.118743 143.443659 
L 501.160207 143.310168 
L 503.20167 143.34942 
L 505.243133 141.775772 
L 507.284597 140.382531 
L 509.32606 142.4171 
L 511.367524 140.189517 
L 513.408987 140.499665 
L 515.45045 141.33114 
L 517.491914 137.863212 
L 519.533377 138.442065 
L 521.574841 139.223232 
L 523.616304 138.062215 
L 525.657768 139.922401 
L 527.699231 137.741852 
L 529.740694 136.149175 
L 531.782158 138.89771 
L 533.823621 139.217432 
L 535.865085 137.90771 
L 537.906548 139.005667 
L 539.948011 138.463385 
L 541.989475 142.567763 
L 544.030938 142.124367 
L 546.072402 142.943391 
L 548.113865 140.236489 
L 550.155328 138.503045 
L 552.196792 141.84592 
L 554.238255 145.586284 
L 556.279719 142.497894 
L 558.321182 142.751511 
L 560.362646 140.593353 
L 562.404109 141.635649 
L 564.445572 143.860296 
L 566.487036 142.383701 
L 568.528499 140.864013 
L 570.569963 144.970243 
L 572.611426 143.162903 
L 574.652889 146.738725 
L 576.694353 147.936308 
L 578.735816 143.364398 
L 580.77728 144.520891 
L 582.818743 143.429014 
L 584.860207 145.310424 
L 586.90167 147.622893 
L 588.943133 153.489046 
L 590.984597 155.890103 
L 593.02606 154.046837 
L 595.067524 159.694167 
L 597.108987 168.193124 
L 599.15045 158.850416 
L 601.191914 155.802804 
L 603.233377 159.547065 
L 605.274841 162.856301 
L 607.316304 163.786084 
L 609.357768 162.302156 
L 611.399231 168.889065 
L 613.440694 173.166441 
L 615.482158 166.537681 
L 617.523621 173.191984 
L 619.565085 170.530239 
L 621.606548 170.918227 
L 623.648011 177.121934 
L 625.689475 175.846859 
L 627.730938 181.080903 
L 629.772402 181.891687 
L 631.813865 175.828239 
L 633.855328 181.408997 
L 635.896792 181.632391 
L 637.938255 186.222671 
L 639.979719 185.168766 
L 642.021182 190.558098 
L 644.062646 187.702994 
L 646.104109 191.137844 
L 648.145572 191.934301 
L 650.187036 194.113292 
L 652.228499 189.880075 
L 654.269963 195.826221 
L 656.311426 198.000017 
L 658.352889 200.756833 
L 660.394353 205.072985 
L 662.435816 204.331826 
L 664.47728 203.874914 
L 666.518743 207.748991 
L 668.560207 211.114876 
L 670.60167 208.646323 
L 672.643133 207.708519 
L 674.684597 211.26519 
L 676.72606 213.892955 
L 678.767524 210.272261 
L 680.808987 209.815922 
L 682.85045 217.78342 
L 684.891914 220.858345 
L 686.933377 213.870284 
L 688.974841 216.579531 
L 691.016304 218.512766 
L 693.057768 220.132252 
L 695.099231 225.176899 
L 697.140694 223.546158 
L 699.182158 221.335131 
L 701.223621 225.015765 
L 703.265085 227.137507 
L 705.306548 222.641281 
L 707.348011 223.986146 
L 709.389475 224.122025 
L 711.430938 232.043825 
L 713.472402 236.954846 
L 715.513865 237.810821 
L 717.555328 232.01829 
L 719.596792 229.823359 
L 721.638255 232.140712 
L 723.679719 232.830163 
L 725.721182 239.981676 
L 727.762646 232.141338 
L 729.804109 239.351182 
L 731.845572 243.918783 
L 733.887036 240.14231 
L 735.928499 247.671153 
L 737.969963 243.403316 
L 740.011426 245.360012 
L 742.052889 246.321429 
L 744.094353 248.128911 
L 746.135816 251.916474 
L 748.17728 249.786323 
L 750.218743 252.207846 
L 752.260207 253.58984 
L 754.30167 253.778069 
L 756.343133 245.491146 
L 758.384597 258.12013 
L 760.42606 263.05128 
L 762.467524 258.395195 
L 764.508987 261.845245 
L 766.55045 264.085911 
L 768.591914 261.7671 
L 770.633377 266.781012 
L 772.674841 273.658729 
L 774.716304 271.454425 
L 776.757768 274.1072 
L 778.799231 277.292326 
L 780.840694 277.824941 
L 782.882158 280.684339 
L 784.923621 272.298918 
L 786.965085 290.737372 
L 789.006548 290.939749 
L 791.048011 288.053784 
L 793.089475 278.822596 
L 795.130938 296.271206 
L 797.172402 309.377001 
L 799.213865 297.789725 
L 801.255328 299.211346 
L 803.296792 315.264315 
L 805.338255 282.895761 
L 807.379719 311.791027 
L 809.421182 292.082153 
L 811.462646 325.823463 
L 813.504109 309.881755 
L 815.545572 324.236094 
L 817.587036 326.052145 
L 819.628499 332.754857 
L 821.669963 332.598467 
L 823.711426 328.259158 
L 825.752889 328.297829 
L 827.794353 336.197607 
L 829.835816 344.975031 
L 831.87728 345.061681 
L 833.918743 342.683017 
L 835.960207 353.560879 
L 838.00167 352.446116 
L 840.043133 349.192503 
L 842.084597 345.151765 
L 844.12606 362.188579 
L 846.167524 362.656125 
L 848.208987 366.373101 
L 850.25045 359.212965 
L 852.291914 342.59316 
L 854.333377 363.94948 
L 856.374841 356.534044 
L 858.416304 361.854619 
L 860.457768 367.531329 
L 862.499231 358.739695 
L 864.540694 371.21462 
L 866.582158 361.401327 
L 868.623621 361.15603 
L 870.665085 365.749615 
L 872.706548 370.367035 
L 874.748011 368.074622 
L 876.789475 367.569096 
L 878.830938 362.201093 
L 880.872402 364.348665 
L 882.913865 367.801642 
L 884.955328 365.510574 
L 886.996792 371.87322 
L 889.038255 367.528797 
L 891.079719 373.138125 
L 893.121182 377.64 
L 895.162646 377.637057 
L 897.204109 372.239194 
L 899.245572 372.029169 
L 901.287036 371.974072 
L 903.328499 374.088847 
L 905.369963 373.844977 
L 907.411426 365.4779 
L 909.452889 372.730143 
L 911.494353 329.528336 
L 913.535816 372.809613 
L 915.57728 375.780854 
L 917.618743 369.900947 
L 919.660207 364.531753 
L 921.70167 374.983603 
L 923.743133 370.007113 
L 925.784597 361.5904 
L 927.82606 368.096207 
L 929.867524 368.673625 
L 931.908987 365.730619 
L 933.95045 372.379953 
L 935.991914 367.792419 
L 938.033377 370.778311 
L 940.074841 372.810342 
L 940.074841 255.133905 
L 940.074841 255.133905 
L 938.033377 259.738143 
L 935.991914 257.596452 
L 933.95045 261.182802 
L 931.908987 258.833834 
L 929.867524 261.019301 
L 927.82606 260.681787 
L 925.784597 262.35092 
L 923.743133 265.782296 
L 921.70167 266.670033 
L 919.660207 266.138852 
L 917.618743 267.231538 
L 915.57728 271.213806 
L 913.535816 270.142481 
L 911.494353 263.634235 
L 909.452889 272.679802 
L 907.411426 271.915209 
L 905.369963 274.527109 
L 903.328499 275.902866 
L 901.287036 275.95156 
L 899.245572 277.826909 
L 897.204109 279.217829 
L 895.162646 281.585833 
L 893.121182 282.395826 
L 891.079719 282.613663 
L 889.038255 281.702448 
L 886.996792 283.599687 
L 884.955328 282.142048 
L 882.913865 283.715928 
L 880.872402 283.909411 
L 878.830938 284.289589 
L 876.789475 286.731712 
L 874.748011 287.969237 
L 872.706548 290.11681 
L 870.665085 288.522328 
L 868.623621 288.481622 
L 866.582158 289.532419 
L 864.540694 293.325803 
L 862.499231 290.089317 
L 860.457768 293.691698 
L 858.416304 292.349528 
L 856.374841 290.975699 
L 854.333377 294.530228 
L 852.291914 288.833319 
L 850.25045 294.122719 
L 848.208987 297.685483 
L 846.167524 297.142256 
L 844.12606 297.308656 
L 842.084597 292.938047 
L 840.043133 294.321787 
L 838.00167 295.916287 
L 835.960207 296.693783 
L 833.918743 293.224522 
L 831.87728 294.350495 
L 829.835816 295.327661 
L 827.794353 291.003126 
L 825.752889 289.167671 
L 823.711426 290.024629 
L 821.669963 292.257123 
L 819.628499 292.803746 
L 817.587036 289.737177 
L 815.545572 289.287133 
L 813.504109 284.275643 
L 811.462646 290.537624 
L 809.421182 279.603751 
L 807.379719 286.390539 
L 805.338255 275.153338 
L 803.296792 287.905983 
L 801.255328 281.357783 
L 799.213865 279.982776 
L 797.172402 286.821017 
L 795.130938 280.865967 
L 793.089475 272.93775 
L 791.048011 278.06898 
L 789.006548 278.927042 
L 786.965085 279.077157 
L 784.923621 264.031901 
L 782.882158 272.846675 
L 780.840694 272.541422 
L 778.799231 271.860788 
L 776.757768 267.082306 
L 774.716304 262.369756 
L 772.674841 266.73005 
L 770.633377 253.515974 
L 768.591914 243.870185 
L 766.55045 252.007188 
L 764.508987 244.322869 
L 762.467524 239.054012 
L 760.42606 249.103857 
L 758.384597 238.948192 
L 756.343133 209.710436 
L 754.30167 228.354247 
L 752.260207 226.837898 
L 750.218743 224.70487 
L 748.17728 219.068944 
L 746.135816 224.042325 
L 744.094353 216.477837 
L 742.052889 213.078349 
L 740.011426 210.564517 
L 737.969963 204.463335 
L 735.928499 215.731553 
L 733.887036 199.518931 
L 731.845572 206.900328 
L 729.804109 198.157659 
L 727.762646 185.140997 
L 725.721182 199.522752 
L 723.679719 184.229893 
L 721.638255 184.331416 
L 719.596792 180.576978 
L 717.555328 185.058098 
L 715.513865 196.543206 
L 713.472402 196.091148 
L 711.430938 186.764933 
L 709.389475 169.374928 
L 707.348011 169.783856 
L 705.306548 169.101085 
L 703.265085 178.044691 
L 701.223621 174.904476 
L 699.182158 167.831241 
L 697.140694 173.249355 
L 695.099231 175.351952 
L 693.057768 166.907944 
L 691.016304 165.54814 
L 688.974841 161.956921 
L 686.933377 157.560672 
L 684.891914 172.446082 
L 682.85045 164.431767 
L 680.808987 152.049747 
L 678.767524 154.800156 
L 676.72606 161.775873 
L 674.684597 156.869039 
L 672.643133 151.73571 
L 670.60167 154.891781 
L 668.560207 161.3952 
L 666.518743 152.872419 
L 664.47728 148.090374 
L 662.435816 150.317649 
L 660.394353 147.769306 
L 658.352889 144.719127 
L 656.311426 140.997423 
L 654.269963 138.077344 
L 652.228499 128.474086 
L 650.187036 135.513961 
L 648.145572 132.794804 
L 646.104109 132.866695 
L 644.062646 129.915039 
L 642.021182 132.574157 
L 639.979719 125.279612 
L 637.938255 128.414365 
L 635.896792 121.643281 
L 633.855328 122.29134 
L 631.813865 114.581957 
L 629.772402 121.054185 
L 627.730938 122.825049 
L 625.689475 118.147595 
L 623.648011 118.000166 
L 621.606548 110.974268 
L 619.565085 112.052408 
L 617.523621 113.667359 
L 615.482158 105.713141 
L 613.440694 112.844656 
L 611.399231 109.785074 
L 609.357768 100.872419 
L 607.316304 103.720589 
L 605.274841 102.573813 
L 603.233377 99.959752 
L 601.191914 95.706096 
L 599.15045 98.913259 
L 597.108987 112.656245 
L 595.067524 102.415669 
L 593.02606 94.779712 
L 590.984597 97.07144 
L 588.943133 94.333818 
L 586.90167 88.851731 
L 584.860207 85.918054 
L 582.818743 83.502205 
L 580.77728 85.911901 
L 578.735816 85.431051 
L 576.694353 90.207507 
L 574.652889 89.432059 
L 572.611426 85.952546 
L 570.569963 88.882648 
L 568.528499 83.693402 
L 566.487036 87.097813 
L 564.445572 88.382548 
L 562.404109 87.767474 
L 560.362646 85.824324 
L 558.321182 89.272257 
L 556.279719 88.872145 
L 554.238255 92.105387 
L 552.196792 89.228062 
L 550.155328 86.022374 
L 548.113865 88.214663 
L 546.072402 89.838263 
L 544.030938 89.532951 
L 541.989475 91.491193 
L 539.948011 86.855195 
L 537.906548 87.990905 
L 535.865085 86.765772 
L 533.823621 87.348966 
L 531.782158 86.377203 
L 529.740694 84.378409 
L 527.699231 87.41226 
L 525.657768 88.909747 
L 523.616304 86.456976 
L 521.574841 88.110592 
L 519.533377 86.029274 
L 517.491914 87.068892 
L 515.45045 90.519395 
L 513.408987 89.581036 
L 511.367524 89.495176 
L 509.32606 91.567335 
L 507.284597 89.224414 
L 505.243133 90.46604 
L 503.20167 92.257115 
L 501.160207 91.796183 
L 499.118743 92.109421 
L 497.07728 91.825307 
L 495.035816 92.432327 
L 492.994353 93.550314 
L 490.952889 94.291085 
L 488.911426 93.588967 
L 486.869963 94.122918 
L 484.828499 89.848272 
L 482.787036 93.59407 
L 480.745572 93.886951 
L 478.704109 94.519386 
L 476.662646 93.929453 
L 474.621182 92.674959 
L 472.579719 94.100964 
L 470.538255 94.743525 
L 468.496792 95.295558 
L 466.455328 95.231514 
L 464.413865 94.718762 
L 462.372402 95.256326 
L 460.330938 95.485083 
L 458.289475 96.167104 
L 456.248011 96.440879 
L 454.206548 99.821327 
L 452.165085 99.914141 
L 450.123621 98.461665 
L 448.082158 100.656263 
L 446.040694 99.136663 
L 443.999231 99.510388 
L 441.957768 96.967296 
L 439.916304 101.820825 
L 437.874841 101.615494 
L 435.833377 100.799922 
L 433.791914 102.530418 
L 431.75045 101.890003 
L 429.708987 101.814935 
L 427.667524 100.054533 
L 425.62606 103.798912 
L 423.584597 101.151473 
L 421.543133 104.675948 
L 419.50167 106.205143 
L 417.460207 106.779189 
L 415.418743 109.066496 
L 413.37728 110.464999 
L 411.335816 110.366343 
L 409.294353 111.138008 
L 407.252889 111.768692 
L 405.211426 112.2662 
L 403.169963 111.229816 
L 401.128499 113.334793 
L 399.087036 114.275094 
L 397.045572 117.093744 
L 395.004109 115.378784 
L 392.962646 114.639496 
L 390.921182 117.765894 
L 388.879719 118.457512 
L 386.838255 119.277034 
L 384.796792 121.443451 
L 382.755328 121.93495 
L 380.713865 119.955572 
L 378.672402 120.169634 
L 376.630938 122.491001 
L 374.589475 122.610069 
L 372.548011 123.608637 
L 370.506548 124.337564 
L 368.465085 124.851516 
L 366.423621 124.721897 
L 364.382158 126.044158 
L 362.340694 127.433143 
L 360.299231 124.779287 
L 358.257768 125.856915 
L 356.216304 124.295337 
L 354.174841 127.621009 
L 352.133377 127.053812 
L 350.091914 124.959816 
L 348.05045 126.611934 
L 346.008987 127.571444 
L 343.967524 122.883497 
L 341.92606 127.681559 
L 339.884597 122.06059 
L 337.843133 121.376983 
L 335.80167 120.721629 
L 333.760207 121.708989 
L 331.718743 121.724828 
L 329.67728 120.954363 
L 327.635816 117.503885 
L 325.594353 118.919165 
L 323.552889 112.806673 
L 321.511426 105.044436 
L 319.469963 107.483057 
L 317.428499 110.307713 
L 315.387036 101.293738 
L 313.345572 101.613981 
L 311.304109 99.501138 
L 309.262646 98.996586 
L 307.221182 87.195127 
L 305.179719 86.209925 
L 303.138255 81.99811 
L 301.096792 72.675294 
L 299.055328 66.573351 
L 297.013865 73.611151 
L 294.972402 68.513673 
L 292.930938 63.077545 
L 290.889475 59.589303 
L 288.848011 55.044328 
L 286.806548 46.861275 
L 284.765085 52.589083 
L 282.723621 37.483158 
L 280.682158 32.28095 
L 278.640694 29.283531 
L 276.599231 26.804505 
L 274.557768 27.017324 
L 272.516304 25.234762 
L 270.474841 26.27269 
L 268.433377 31.353216 
L 266.391914 25.054085 
L 264.35045 24.84 
L 262.308987 30.014591 
L 260.267524 30.970536 
L 258.22606 29.287313 
L 256.184597 37.729955 
L 254.143133 33.57828 
L 252.10167 35.030219 
L 250.060207 43.537934 
L 248.018743 41.48903 
L 245.97728 44.784312 
L 243.935816 47.379217 
L 241.894353 50.084171 
L 239.852889 53.134911 
L 237.811426 56.118039 
L 235.769963 60.283622 
L 233.728499 62.170812 
L 231.687036 66.317305 
L 229.645572 67.610443 
L 227.604109 73.549693 
L 225.562646 72.777228 
L 223.521182 75.525689 
L 221.479719 78.695184 
L 219.438255 80.589725 
L 217.396792 83.30575 
L 215.355328 85.620397 
L 213.313865 88.543524 
L 211.272402 90.257774 
L 209.230938 92.61325 
L 207.189475 95.696115 
L 205.148011 98.208042 
L 203.106548 100.024301 
L 201.065085 102.532626 
L 199.023621 104.493038 
L 196.982158 107.078308 
L 194.940694 109.547831 
L 192.899231 111.161007 
L 190.857768 113.498095 
L 188.816304 115.915967 
L 186.774841 117.42401 
L 184.733377 119.354978 
L 182.691914 120.902644 
L 180.65045 123.521378 
L 178.608987 125.352603 
L 176.567524 127.28684 
L 174.52606 129.187197 
L 172.484597 130.773257 
L 170.443133 132.385734 
L 168.40167 134.054931 
L 166.360207 136.057324 
L 164.318743 137.601919 
L 162.27728 139.311391 
L 160.235816 140.830723 
L 158.194353 142.533042 
L 156.152889 144.015642 
L 154.111426 145.554297 
L 152.069963 147.137314 
L 150.028499 148.260753 
L 147.987036 149.958829 
L 145.945572 151.123997 
L 143.904109 152.529186 
L 141.862646 154.219997 
L 139.821182 155.410808 
L 137.779719 155.666583 
L 135.738255 157.098798 
L 133.696792 157.78713 
L 131.655328 159.24937 
L 129.613865 160.756734 
L 127.572402 161.550055 
L 125.530938 162.365823 
L 123.489475 162.261613 
L 121.448011 162.986923 
L 119.406548 163.493651 
L 117.365085 163.873666 
L 115.323621 164.962722 
L 113.282158 165.811128 
L 111.240694 166.652306 
L 109.199231 165.883274 
L 107.157768 166.378083 
L 105.116304 165.374475 
L 103.074841 166.78119 
L 101.033377 166.762106 
L 98.991914 167.942521 
L 96.95045 165.43452 
L 94.908987 168.222755 
L 92.867524 167.921647 
L 90.82606 166.317639 
L 88.784597 165.852906 
L 86.743133 167.309587 
L 84.70167 169.640153 
L 82.660207 168.66211 
L 80.618743 168.607983 
L 78.57728 166.086706 
L 76.535816 166.006265 
L 74.494353 166.761526 
L 72.452889 168.298981 
L 70.411426 167.865281 
L 68.369963 167.507585 
L 66.328499 167.679518 
L 64.287036 168.629883 
L 62.245572 168.406365 
L 60.204109 169.020432 
L 58.162646 170.104529 
L 56.121182 169.37719 
L 54.079719 170.739119 
L 52.038255 171.050852 
L 49.996792 171.222931 
L 47.955328 172.112041 
L 45.913865 172.363036 
L 43.872402 173.427795 
L 41.830938 174.550313 
L 39.789475 174.577805 
L 37.748011 174.118534 
L 35.706548 173.716639 
L 33.665085 176.202905 
L 31.623621 175.7733 
L 29.582158 177.349686 
L 27.540694 177.367327 
L 25.499231 176.796124 
L 23.457768 178.384246 
L 21.416304 176.984366 
L 19.374841 177.052135 
L 17.333377 179.029417 
L 15.291914 177.543264 
L 13.25045 179.390595 
L 11.208987 180.243463 
L 9.167524 178.509985 
L 7.12606 173.368082 
L 5.084597 176.726169 
L 3.043133 175.312742 
L 1.00167 167.754787 
L -1.039793 174.518917 
L -3.081257 175.816115 
L -5.12272 168.826482 
L -7.164184 166.761368 
L -9.205647 170.3589 
L -11.247111 163.009991 
L -13.288574 149.706015 
L -15.330037 165.019844 
L -17.371501 169.914077 
L -19.412964 172.952374 
L -21.454428 155.11244 
L -23.495891 155.41999 
L -25.537354 146.281559 
L -27.578818 139.2967 
L -29.620281 154.177155 
L -31.661745 147.6224 
L -33.703208 135.169806 
L -35.744672 126.224672 
L -37.786135 126.135443 
L -39.827598 127.838813 
L -41.869062 125.554808 
L -43.910525 125.359403 
L -45.951989 130.264738 
L -47.993452 129.365661 
L -50.034915 126.216607 
L -52.076379 128.333715 
L -54.117842 127.109472 
L -56.159306 126.449094 
L -58.200769 126.50261 
L -60.242232 128.718631 
L -62.283696 129.692235 
L -64.325159 130.640541 
L -66.366623 132.435617 
L -68.408086 133.344275 
L -70.44955 134.715987 
L -72.491013 136.908364 
L -74.532476 138.800329 
L -76.57394 139.94562 
L -78.615403 141.464416 
L -80.656867 143.124519 
L -82.69833 144.292143 
L -84.739793 146.006024 
L -86.781257 148.112506 
L -88.82272 149.322399 
L -90.864184 150.176008 
L -92.905647 151.495892 
L -94.947111 152.80469 
L -96.988574 153.996309 
L -99.030037 155.137621 
L -101.071501 156.23741 
L -103.112964 157.745057 
L -105.154428 158.526788 
L -107.195891 159.61211 
L -109.237354 160.732294 
L -111.278818 161.785073 
L -113.320281 162.762392 
L -115.361745 163.567904 
L -117.403208 164.443655 
L -119.444672 165.606148 
L -121.486135 166.361115 
L -123.527598 167.265038 
L -125.569062 168.148131 
L -127.610525 169.010706 
L -129.651989 169.893704 
L -131.693452 170.795018 
L -133.734915 171.535352 
L -135.776379 172.409089 
L -137.817842 173.175766 
L -139.859306 173.996741 
L -141.900769 174.759898 
L -143.942232 175.548166 
L -145.983696 176.283341 
L -148.025159 177.067906 
L -150.066623 177.904045 
L -152.108086 178.550307 
L -154.14955 179.334144 
L -156.191013 180.006927 
L -158.232476 180.787003 
L -160.27394 181.358603 
L -162.315403 182.086213 
L -164.356867 182.778789 
L -166.39833 183.437394 
L -168.439793 184.097609 
L -170.481257 184.728747 
L -172.52272 185.451979 
L -174.564184 186.105055 
L -176.605647 186.640239 
L -178.647111 187.277425 
L -180.688574 187.914204 
L -182.730037 188.547948 
L -184.771501 189.158761 
L -186.812964 189.72853 
L -188.854428 190.355946 
L -190.895891 190.970973 
L -192.937354 191.589276 
L -194.978818 192.205248 
L -197.020281 192.83811 
L -199.061745 193.496391 
L -201.103208 194.062282 
L -203.144672 194.71128 
L -205.186135 195.34771 
L -207.227598 195.959074 
L -209.269062 196.589767 
L -211.310525 197.233579 
L -213.351989 197.858371 
L -215.393452 198.513591 
L -217.434915 199.112071 
L -219.476379 199.722187 
L -221.517842 200.367554 
L -223.559306 200.990381 
L -225.600769 201.574489 
L -227.642232 202.18336 
L -229.683696 202.780911 
L -231.725159 203.392403 
L -233.766623 204.006084 
L -235.808086 204.604854 
L -237.84955 205.230947 
L -239.891013 205.806069 
L -241.932476 206.418434 
L -243.97394 207.010197 
L -246.015403 207.658024 
L -248.056867 208.214974 
L -250.09833 208.826963 
L -252.139793 209.425375 
L -254.181257 210.034546 
L -256.22272 210.62276 
L -258.264184 211.216814 
L -260.305647 211.813366 
L -262.347111 212.409217 
L -264.388574 212.995959 
L -266.430037 213.544378 
L -268.471501 214.084487 
L -270.512964 214.624844 
L -272.554428 215.146349 
L -274.595891 215.677506 
L -276.637354 216.201805 
L -278.678818 216.702293 
L -280.720281 217.202157 
L -282.761745 217.69922 
L -284.803208 218.172842 
L -286.844672 218.638795 
L -288.886135 219.125139 
L -290.927598 219.574659 
L -292.969062 219.995647 
L -295.010525 220.44815 
L -297.051989 220.868983 
L -299.093452 221.243172 
L -301.134915 221.634661 
L -303.176379 221.992463 
L -305.217842 222.362148 
L -307.259306 222.698898 
L -309.300769 223.030157 
L -311.342232 223.339939 
L -313.383696 223.63921 
L -315.425159 223.919138 
L -317.466623 224.161606 
L -319.508086 224.406765 
L -321.54955 224.639219 
L -323.591013 224.846371 
L -325.632476 225.071086 
L -327.67394 225.260128 
L -329.715403 225.422926 
L -331.756867 225.614104 
L -333.79833 225.775037 
L -335.839793 225.914683 
L -337.881257 226.067599 
L -339.92272 226.215944 
L -341.964184 226.337851 
L -344.005647 226.470991 
L -346.047111 226.574261 
L -348.088574 226.701788 
L -350.130037 226.804204 
L -352.171501 226.91284 
L -354.212964 227.027163 
L -356.254428 227.119472 
L -358.295891 227.21653 
L -360.337354 227.33058 
L -362.378818 227.434662 
L -364.420281 227.54142 
L -366.461745 227.628078 
L -368.503208 227.73941 
L -370.544672 227.837121 
L -372.586135 227.938595 
L -374.627598 228.023309 
L -376.669062 228.097331 
L -378.710525 228.183411 
L -380.751989 228.281657 
L -382.793452 228.379491 
L -384.834915 228.457058 
L -386.876379 228.526968 
L -388.917842 228.619928 
L -390.959306 228.695295 
L -393.000769 228.786937 
z
" clip-path="url(#p863b7b67cb)" style="fill: #008000; fill-opacity: 0.3; stroke: #008000; stroke-opacity: 0.3"/>
   </g>
   <g id="matplotlib.axis_1">
    <g id="xtick_1">
     <g id="line2d_1">
      <defs>
       <path id="m7845654aa3" d="M 0 0 
L 0 3.5 
" style="stroke: #000000; stroke-width: 0.8"/>
      </defs>
      <g>
       <use xlink:href="#m7845654aa3" x="103.074841" y="395.28" style="stroke: #000000; stroke-width: 0.8"/>
      </g>
     </g>
     <g id="text_1">
      <!-- 2022-03-01 -->
      <g transform="translate(17.945813 495.213718) rotate(-45) scale(0.2 -0.2)">
       <defs>
        <path id="DejaVuSans-32" d="M 1228 531 
L 3431 531 
L 3431 0 
L 469 0 
L 469 531 
Q 828 903 1448 1529 
Q 2069 2156 2228 2338 
Q 2531 2678 2651 2914 
Q 2772 3150 2772 3378 
Q 2772 3750 2511 3984 
Q 2250 4219 1831 4219 
Q 1534 4219 1204 4116 
Q 875 4013 500 3803 
L 500 4441 
Q 881 4594 1212 4672 
Q 1544 4750 1819 4750 
Q 2544 4750 2975 4387 
Q 3406 4025 3406 3419 
Q 3406 3131 3298 2873 
Q 3191 2616 2906 2266 
Q 2828 2175 2409 1742 
Q 1991 1309 1228 531 
z
" transform="scale(0.015625)"/>
        <path id="DejaVuSans-30" d="M 2034 4250 
Q 1547 4250 1301 3770 
Q 1056 3291 1056 2328 
Q 1056 1369 1301 889 
Q 1547 409 2034 409 
Q 2525 409 2770 889 
Q 3016 1369 3016 2328 
Q 3016 3291 2770 3770 
Q 2525 4250 2034 4250 
z
M 2034 4750 
Q 2819 4750 3233 4129 
Q 3647 3509 3647 2328 
Q 3647 1150 3233 529 
Q 2819 -91 2034 -91 
Q 1250 -91 836 529 
Q 422 1150 422 2328 
Q 422 3509 836 4129 
Q 1250 4750 2034 4750 
z
" transform="scale(0.015625)"/>
        <path id="DejaVuSans-2d" d="M 313 2009 
L 1997 2009 
L 1997 1497 
L 313 1497 
L 313 2009 
z
" transform="scale(0.015625)"/>
        <path id="DejaVuSans-33" d="M 2597 2516 
Q 3050 2419 3304 2112 
Q 3559 1806 3559 1356 
Q 3559 666 3084 287 
Q 2609 -91 1734 -91 
Q 1441 -91 1130 -33 
Q 819 25 488 141 
L 488 750 
Q 750 597 1062 519 
Q 1375 441 1716 441 
Q 2309 441 2620 675 
Q 2931 909 2931 1356 
Q 2931 1769 2642 2001 
Q 2353 2234 1838 2234 
L 1294 2234 
L 1294 2753 
L 1863 2753 
Q 2328 2753 2575 2939 
Q 2822 3125 2822 3475 
Q 2822 3834 2567 4026 
Q 2313 4219 1838 4219 
Q 1578 4219 1281 4162 
Q 984 4106 628 3988 
L 628 4550 
Q 988 4650 1302 4700 
Q 1616 4750 1894 4750 
Q 2613 4750 3031 4423 
Q 3450 4097 3450 3541 
Q 3450 3153 3228 2886 
Q 3006 2619 2597 2516 
z
" transform="scale(0.015625)"/>
        <path id="DejaVuSans-31" d="M 794 531 
L 1825 531 
L 1825 4091 
L 703 3866 
L 703 4441 
L 1819 4666 
L 2450 4666 
L 2450 531 
L 3481 531 
L 3481 0 
L 794 0 
L 794 531 
z
" transform="scale(0.015625)"/>
       </defs>
       <use xlink:href="#DejaVuSans-32"/>
       <use xlink:href="#DejaVuSans-30" x="63.623047"/>
       <use xlink:href="#DejaVuSans-32" x="127.246094"/>
       <use xlink:href="#DejaVuSans-32" x="190.869141"/>
       <use xlink:href="#DejaVuSans-2d" x="254.492188"/>
       <use xlink:href="#DejaVuSans-30" x="290.576172"/>
       <use xlink:href="#DejaVuSans-33" x="354.199219"/>
       <use xlink:href="#DejaVuSans-2d" x="417.822266"/>
       <use xlink:href="#DejaVuSans-30" x="453.90625"/>
       <use xlink:href="#DejaVuSans-31" x="517.529297"/>
      </g>
     </g>
    </g>
    <g id="xtick_2">
     <g id="line2d_2">
      <g>
       <use xlink:href="#m7845654aa3" x="160.235816" y="395.28" style="stroke: #000000; stroke-width: 0.8"/>
      </g>
     </g>
     <g id="text_2">
      <!-- 2022-03-29 -->
      <g transform="translate(75.106789 495.213718) rotate(-45) scale(0.2 -0.2)">
       <defs>
        <path id="DejaVuSans-39" d="M 703 97 
L 703 672 
Q 941 559 1184 500 
Q 1428 441 1663 441 
Q 2288 441 2617 861 
Q 2947 1281 2994 2138 
Q 2813 1869 2534 1725 
Q 2256 1581 1919 1581 
Q 1219 1581 811 2004 
Q 403 2428 403 3163 
Q 403 3881 828 4315 
Q 1253 4750 1959 4750 
Q 2769 4750 3195 4129 
Q 3622 3509 3622 2328 
Q 3622 1225 3098 567 
Q 2575 -91 1691 -91 
Q 1453 -91 1209 -44 
Q 966 3 703 97 
z
M 1959 2075 
Q 2384 2075 2632 2365 
Q 2881 2656 2881 3163 
Q 2881 3666 2632 3958 
Q 2384 4250 1959 4250 
Q 1534 4250 1286 3958 
Q 1038 3666 1038 3163 
Q 1038 2656 1286 2365 
Q 1534 2075 1959 2075 
z
" transform="scale(0.015625)"/>
       </defs>
       <use xlink:href="#DejaVuSans-32"/>
       <use xlink:href="#DejaVuSans-30" x="63.623047"/>
       <use xlink:href="#DejaVuSans-32" x="127.246094"/>
       <use xlink:href="#DejaVuSans-32" x="190.869141"/>
       <use xlink:href="#DejaVuSans-2d" x="254.492188"/>
       <use xlink:href="#DejaVuSans-30" x="290.576172"/>
       <use xlink:href="#DejaVuSans-33" x="354.199219"/>
       <use xlink:href="#DejaVuSans-2d" x="417.822266"/>
       <use xlink:href="#DejaVuSans-32" x="453.90625"/>
       <use xlink:href="#DejaVuSans-39" x="517.529297"/>
      </g>
     </g>
    </g>
    <g id="xtick_3">
     <g id="line2d_3">
      <g>
       <use xlink:href="#m7845654aa3" x="217.396792" y="395.28" style="stroke: #000000; stroke-width: 0.8"/>
      </g>
     </g>
     <g id="text_3">
      <!-- 2022-04-26 -->
      <g transform="translate(132.267765 495.213718) rotate(-45) scale(0.2 -0.2)">
       <defs>
        <path id="DejaVuSans-34" d="M 2419 4116 
L 825 1625 
L 2419 1625 
L 2419 4116 
z
M 2253 4666 
L 3047 4666 
L 3047 1625 
L 3713 1625 
L 3713 1100 
L 3047 1100 
L 3047 0 
L 2419 0 
L 2419 1100 
L 313 1100 
L 313 1709 
L 2253 4666 
z
" transform="scale(0.015625)"/>
        <path id="DejaVuSans-36" d="M 2113 2584 
Q 1688 2584 1439 2293 
Q 1191 2003 1191 1497 
Q 1191 994 1439 701 
Q 1688 409 2113 409 
Q 2538 409 2786 701 
Q 3034 994 3034 1497 
Q 3034 2003 2786 2293 
Q 2538 2584 2113 2584 
z
M 3366 4563 
L 3366 3988 
Q 3128 4100 2886 4159 
Q 2644 4219 2406 4219 
Q 1781 4219 1451 3797 
Q 1122 3375 1075 2522 
Q 1259 2794 1537 2939 
Q 1816 3084 2150 3084 
Q 2853 3084 3261 2657 
Q 3669 2231 3669 1497 
Q 3669 778 3244 343 
Q 2819 -91 2113 -91 
Q 1303 -91 875 529 
Q 447 1150 447 2328 
Q 447 3434 972 4092 
Q 1497 4750 2381 4750 
Q 2619 4750 2861 4703 
Q 3103 4656 3366 4563 
z
" transform="scale(0.015625)"/>
       </defs>
       <use xlink:href="#DejaVuSans-32"/>
       <use xlink:href="#DejaVuSans-30" x="63.623047"/>
       <use xlink:href="#DejaVuSans-32" x="127.246094"/>
       <use xlink:href="#DejaVuSans-32" x="190.869141"/>
       <use xlink:href="#DejaVuSans-2d" x="254.492188"/>
       <use xlink:href="#DejaVuSans-30" x="290.576172"/>
       <use xlink:href="#DejaVuSans-34" x="354.199219"/>
       <use xlink:href="#DejaVuSans-2d" x="417.822266"/>
       <use xlink:href="#DejaVuSans-32" x="453.90625"/>
       <use xlink:href="#DejaVuSans-36" x="517.529297"/>
      </g>
     </g>
    </g>
    <g id="xtick_4">
     <g id="line2d_4">
      <g>
       <use xlink:href="#m7845654aa3" x="274.557768" y="395.28" style="stroke: #000000; stroke-width: 0.8"/>
      </g>
     </g>
     <g id="text_4">
      <!-- 2022-05-24 -->
      <g transform="translate(189.42874 495.213718) rotate(-45) scale(0.2 -0.2)">
       <defs>
        <path id="DejaVuSans-35" d="M 691 4666 
L 3169 4666 
L 3169 4134 
L 1269 4134 
L 1269 2991 
Q 1406 3038 1543 3061 
Q 1681 3084 1819 3084 
Q 2600 3084 3056 2656 
Q 3513 2228 3513 1497 
Q 3513 744 3044 326 
Q 2575 -91 1722 -91 
Q 1428 -91 1123 -41 
Q 819 9 494 109 
L 494 744 
Q 775 591 1075 516 
Q 1375 441 1709 441 
Q 2250 441 2565 725 
Q 2881 1009 2881 1497 
Q 2881 1984 2565 2268 
Q 2250 2553 1709 2553 
Q 1456 2553 1204 2497 
Q 953 2441 691 2322 
L 691 4666 
z
" transform="scale(0.015625)"/>
       </defs>
       <use xlink:href="#DejaVuSans-32"/>
       <use xlink:href="#DejaVuSans-30" x="63.623047"/>
       <use xlink:href="#DejaVuSans-32" x="127.246094"/>
       <use xlink:href="#DejaVuSans-32" x="190.869141"/>
       <use xlink:href="#DejaVuSans-2d" x="254.492188"/>
       <use xlink:href="#DejaVuSans-30" x="290.576172"/>
       <use xlink:href="#DejaVuSans-35" x="354.199219"/>
       <use xlink:href="#DejaVuSans-2d" x="417.822266"/>
       <use xlink:href="#DejaVuSans-32" x="453.90625"/>
       <use xlink:href="#DejaVuSans-34" x="517.529297"/>
      </g>
     </g>
    </g>
    <g id="xtick_5">
     <g id="line2d_5">
      <g>
       <use xlink:href="#m7845654aa3" x="331.718743" y="395.28" style="stroke: #000000; stroke-width: 0.8"/>
      </g>
     </g>
     <g id="text_5">
      <!-- 2022-06-21 -->
      <g transform="translate(246.589716 495.213718) rotate(-45) scale(0.2 -0.2)">
       <use xlink:href="#DejaVuSans-32"/>
       <use xlink:href="#DejaVuSans-30" x="63.623047"/>
       <use xlink:href="#DejaVuSans-32" x="127.246094"/>
       <use xlink:href="#DejaVuSans-32" x="190.869141"/>
       <use xlink:href="#DejaVuSans-2d" x="254.492188"/>
       <use xlink:href="#DejaVuSans-30" x="290.576172"/>
       <use xlink:href="#DejaVuSans-36" x="354.199219"/>
       <use xlink:href="#DejaVuSans-2d" x="417.822266"/>
       <use xlink:href="#DejaVuSans-32" x="453.90625"/>
       <use xlink:href="#DejaVuSans-31" x="517.529297"/>
      </g>
     </g>
    </g>
    <g id="xtick_6">
     <g id="line2d_6">
      <g>
       <use xlink:href="#m7845654aa3" x="388.879719" y="395.28" style="stroke: #000000; stroke-width: 0.8"/>
      </g>
     </g>
     <g id="text_6">
      <!-- 2022-07-19 -->
      <g transform="translate(303.750691 495.213718) rotate(-45) scale(0.2 -0.2)">
       <defs>
        <path id="DejaVuSans-37" d="M 525 4666 
L 3525 4666 
L 3525 4397 
L 1831 0 
L 1172 0 
L 2766 4134 
L 525 4134 
L 525 4666 
z
" transform="scale(0.015625)"/>
       </defs>
       <use xlink:href="#DejaVuSans-32"/>
       <use xlink:href="#DejaVuSans-30" x="63.623047"/>
       <use xlink:href="#DejaVuSans-32" x="127.246094"/>
       <use xlink:href="#DejaVuSans-32" x="190.869141"/>
       <use xlink:href="#DejaVuSans-2d" x="254.492188"/>
       <use xlink:href="#DejaVuSans-30" x="290.576172"/>
       <use xlink:href="#DejaVuSans-37" x="354.199219"/>
       <use xlink:href="#DejaVuSans-2d" x="417.822266"/>
       <use xlink:href="#DejaVuSans-31" x="453.90625"/>
       <use xlink:href="#DejaVuSans-39" x="517.529297"/>
      </g>
     </g>
    </g>
    <g id="xtick_7">
     <g id="line2d_7">
      <g>
       <use xlink:href="#m7845654aa3" x="446.040694" y="395.28" style="stroke: #000000; stroke-width: 0.8"/>
      </g>
     </g>
     <g id="text_7">
      <!-- 2022-08-16 -->
      <g transform="translate(360.911667 495.213718) rotate(-45) scale(0.2 -0.2)">
       <defs>
        <path id="DejaVuSans-38" d="M 2034 2216 
Q 1584 2216 1326 1975 
Q 1069 1734 1069 1313 
Q 1069 891 1326 650 
Q 1584 409 2034 409 
Q 2484 409 2743 651 
Q 3003 894 3003 1313 
Q 3003 1734 2745 1975 
Q 2488 2216 2034 2216 
z
M 1403 2484 
Q 997 2584 770 2862 
Q 544 3141 544 3541 
Q 544 4100 942 4425 
Q 1341 4750 2034 4750 
Q 2731 4750 3128 4425 
Q 3525 4100 3525 3541 
Q 3525 3141 3298 2862 
Q 3072 2584 2669 2484 
Q 3125 2378 3379 2068 
Q 3634 1759 3634 1313 
Q 3634 634 3220 271 
Q 2806 -91 2034 -91 
Q 1263 -91 848 271 
Q 434 634 434 1313 
Q 434 1759 690 2068 
Q 947 2378 1403 2484 
z
M 1172 3481 
Q 1172 3119 1398 2916 
Q 1625 2713 2034 2713 
Q 2441 2713 2670 2916 
Q 2900 3119 2900 3481 
Q 2900 3844 2670 4047 
Q 2441 4250 2034 4250 
Q 1625 4250 1398 4047 
Q 1172 3844 1172 3481 
z
" transform="scale(0.015625)"/>
       </defs>
       <use xlink:href="#DejaVuSans-32"/>
       <use xlink:href="#DejaVuSans-30" x="63.623047"/>
       <use xlink:href="#DejaVuSans-32" x="127.246094"/>
       <use xlink:href="#DejaVuSans-32" x="190.869141"/>
       <use xlink:href="#DejaVuSans-2d" x="254.492188"/>
       <use xlink:href="#DejaVuSans-30" x="290.576172"/>
       <use xlink:href="#DejaVuSans-38" x="354.199219"/>
       <use xlink:href="#DejaVuSans-2d" x="417.822266"/>
       <use xlink:href="#DejaVuSans-31" x="453.90625"/>
       <use xlink:href="#DejaVuSans-36" x="517.529297"/>
      </g>
     </g>
    </g>
    <g id="xtick_8">
     <g id="line2d_8">
      <g>
       <use xlink:href="#m7845654aa3" x="503.20167" y="395.28" style="stroke: #000000; stroke-width: 0.8"/>
      </g>
     </g>
     <g id="text_8">
      <!-- 2022-09-13 -->
      <g transform="translate(418.072643 495.213718) rotate(-45) scale(0.2 -0.2)">
       <use xlink:href="#DejaVuSans-32"/>
       <use xlink:href="#DejaVuSans-30" x="63.623047"/>
       <use xlink:href="#DejaVuSans-32" x="127.246094"/>
       <use xlink:href="#DejaVuSans-32" x="190.869141"/>
       <use xlink:href="#DejaVuSans-2d" x="254.492188"/>
       <use xlink:href="#DejaVuSans-30" x="290.576172"/>
       <use xlink:href="#DejaVuSans-39" x="354.199219"/>
       <use xlink:href="#DejaVuSans-2d" x="417.822266"/>
       <use xlink:href="#DejaVuSans-31" x="453.90625"/>
       <use xlink:href="#DejaVuSans-33" x="517.529297"/>
      </g>
     </g>
    </g>
    <g id="xtick_9">
     <g id="line2d_9">
      <g>
       <use xlink:href="#m7845654aa3" x="560.362646" y="395.28" style="stroke: #000000; stroke-width: 0.8"/>
      </g>
     </g>
     <g id="text_9">
      <!-- 2022-10-11 -->
      <g transform="translate(475.233618 495.213718) rotate(-45) scale(0.2 -0.2)">
       <use xlink:href="#DejaVuSans-32"/>
       <use xlink:href="#DejaVuSans-30" x="63.623047"/>
       <use xlink:href="#DejaVuSans-32" x="127.246094"/>
       <use xlink:href="#DejaVuSans-32" x="190.869141"/>
       <use xlink:href="#DejaVuSans-2d" x="254.492188"/>
       <use xlink:href="#DejaVuSans-31" x="290.576172"/>
       <use xlink:href="#DejaVuSans-30" x="354.199219"/>
       <use xlink:href="#DejaVuSans-2d" x="417.822266"/>
       <use xlink:href="#DejaVuSans-31" x="453.90625"/>
       <use xlink:href="#DejaVuSans-31" x="517.529297"/>
      </g>
     </g>
    </g>
    <g id="xtick_10">
     <g id="line2d_10">
      <g>
       <use xlink:href="#m7845654aa3" x="617.523621" y="395.28" style="stroke: #000000; stroke-width: 0.8"/>
      </g>
     </g>
     <g id="text_10">
      <!-- 2022-11-08 -->
      <g transform="translate(532.394594 495.213718) rotate(-45) scale(0.2 -0.2)">
       <use xlink:href="#DejaVuSans-32"/>
       <use xlink:href="#DejaVuSans-30" x="63.623047"/>
       <use xlink:href="#DejaVuSans-32" x="127.246094"/>
       <use xlink:href="#DejaVuSans-32" x="190.869141"/>
       <use xlink:href="#DejaVuSans-2d" x="254.492188"/>
       <use xlink:href="#DejaVuSans-31" x="290.576172"/>
       <use xlink:href="#DejaVuSans-31" x="354.199219"/>
       <use xlink:href="#DejaVuSans-2d" x="417.822266"/>
       <use xlink:href="#DejaVuSans-30" x="453.90625"/>
       <use xlink:href="#DejaVuSans-38" x="517.529297"/>
      </g>
     </g>
    </g>
    <g id="xtick_11">
     <g id="line2d_11">
      <g>
       <use xlink:href="#m7845654aa3" x="674.684597" y="395.28" style="stroke: #000000; stroke-width: 0.8"/>
      </g>
     </g>
     <g id="text_11">
      <!-- 2022-12-06 -->
      <g transform="translate(589.555569 495.213718) rotate(-45) scale(0.2 -0.2)">
       <use xlink:href="#DejaVuSans-32"/>
       <use xlink:href="#DejaVuSans-30" x="63.623047"/>
       <use xlink:href="#DejaVuSans-32" x="127.246094"/>
       <use xlink:href="#DejaVuSans-32" x="190.869141"/>
       <use xlink:href="#DejaVuSans-2d" x="254.492188"/>
       <use xlink:href="#DejaVuSans-31" x="290.576172"/>
       <use xlink:href="#DejaVuSans-32" x="354.199219"/>
       <use xlink:href="#DejaVuSans-2d" x="417.822266"/>
       <use xlink:href="#DejaVuSans-30" x="453.90625"/>
       <use xlink:href="#DejaVuSans-36" x="517.529297"/>
      </g>
     </g>
    </g>
    <g id="xtick_12">
     <g id="line2d_12">
      <g>
       <use xlink:href="#m7845654aa3" x="731.845572" y="395.28" style="stroke: #000000; stroke-width: 0.8"/>
      </g>
     </g>
     <g id="text_12">
      <!-- 2023-01-03 -->
      <g transform="translate(646.716545 495.213718) rotate(-45) scale(0.2 -0.2)">
       <use xlink:href="#DejaVuSans-32"/>
       <use xlink:href="#DejaVuSans-30" x="63.623047"/>
       <use xlink:href="#DejaVuSans-32" x="127.246094"/>
       <use xlink:href="#DejaVuSans-33" x="190.869141"/>
       <use xlink:href="#DejaVuSans-2d" x="254.492188"/>
       <use xlink:href="#DejaVuSans-30" x="290.576172"/>
       <use xlink:href="#DejaVuSans-31" x="354.199219"/>
       <use xlink:href="#DejaVuSans-2d" x="417.822266"/>
       <use xlink:href="#DejaVuSans-30" x="453.90625"/>
       <use xlink:href="#DejaVuSans-33" x="517.529297"/>
      </g>
     </g>
    </g>
    <g id="xtick_13">
     <g id="line2d_13">
      <g>
       <use xlink:href="#m7845654aa3" x="789.006548" y="395.28" style="stroke: #000000; stroke-width: 0.8"/>
      </g>
     </g>
     <g id="text_13">
      <!-- 2023-01-31 -->
      <g transform="translate(703.877521 495.213718) rotate(-45) scale(0.2 -0.2)">
       <use xlink:href="#DejaVuSans-32"/>
       <use xlink:href="#DejaVuSans-30" x="63.623047"/>
       <use xlink:href="#DejaVuSans-32" x="127.246094"/>
       <use xlink:href="#DejaVuSans-33" x="190.869141"/>
       <use xlink:href="#DejaVuSans-2d" x="254.492188"/>
       <use xlink:href="#DejaVuSans-30" x="290.576172"/>
       <use xlink:href="#DejaVuSans-31" x="354.199219"/>
       <use xlink:href="#DejaVuSans-2d" x="417.822266"/>
       <use xlink:href="#DejaVuSans-33" x="453.90625"/>
       <use xlink:href="#DejaVuSans-31" x="517.529297"/>
      </g>
     </g>
    </g>
    <g id="xtick_14">
     <g id="line2d_14">
      <g>
       <use xlink:href="#m7845654aa3" x="846.167524" y="395.28" style="stroke: #000000; stroke-width: 0.8"/>
      </g>
     </g>
     <g id="text_14">
      <!-- 2023-02-28 -->
      <g transform="translate(761.038496 495.213718) rotate(-45) scale(0.2 -0.2)">
       <use xlink:href="#DejaVuSans-32"/>
       <use xlink:href="#DejaVuSans-30" x="63.623047"/>
       <use xlink:href="#DejaVuSans-32" x="127.246094"/>
       <use xlink:href="#DejaVuSans-33" x="190.869141"/>
       <use xlink:href="#DejaVuSans-2d" x="254.492188"/>
       <use xlink:href="#DejaVuSans-30" x="290.576172"/>
       <use xlink:href="#DejaVuSans-32" x="354.199219"/>
       <use xlink:href="#DejaVuSans-2d" x="417.822266"/>
       <use xlink:href="#DejaVuSans-32" x="453.90625"/>
       <use xlink:href="#DejaVuSans-38" x="517.529297"/>
      </g>
     </g>
    </g>
    <g id="xtick_15">
     <g id="line2d_15">
      <g>
       <use xlink:href="#m7845654aa3" x="903.328499" y="395.28" style="stroke: #000000; stroke-width: 0.8"/>
      </g>
     </g>
     <g id="text_15">
      <!-- 2023-03-28 -->
      <g transform="translate(818.199472 495.213718) rotate(-45) scale(0.2 -0.2)">
       <use xlink:href="#DejaVuSans-32"/>
       <use xlink:href="#DejaVuSans-30" x="63.623047"/>
       <use xlink:href="#DejaVuSans-32" x="127.246094"/>
       <use xlink:href="#DejaVuSans-33" x="190.869141"/>
       <use xlink:href="#DejaVuSans-2d" x="254.492188"/>
       <use xlink:href="#DejaVuSans-30" x="290.576172"/>
       <use xlink:href="#DejaVuSans-33" x="354.199219"/>
       <use xlink:href="#DejaVuSans-2d" x="417.822266"/>
       <use xlink:href="#DejaVuSans-32" x="453.90625"/>
       <use xlink:href="#DejaVuSans-38" x="517.529297"/>
      </g>
     </g>
    </g>
    <g id="xtick_16">
     <g id="line2d_16">
      <g>
       <use xlink:href="#m7845654aa3" x="940.074841" y="395.28" style="stroke: #000000; stroke-width: 0.8"/>
      </g>
     </g>
     <g id="text_16">
      <!-- 2023-04-15 -->
      <g transform="translate(854.945813 495.213718) rotate(-45) scale(0.2 -0.2)">
       <use xlink:href="#DejaVuSans-32"/>
       <use xlink:href="#DejaVuSans-30" x="63.623047"/>
       <use xlink:href="#DejaVuSans-32" x="127.246094"/>
       <use xlink:href="#DejaVuSans-33" x="190.869141"/>
       <use xlink:href="#DejaVuSans-2d" x="254.492188"/>
       <use xlink:href="#DejaVuSans-30" x="290.576172"/>
       <use xlink:href="#DejaVuSans-34" x="354.199219"/>
       <use xlink:href="#DejaVuSans-2d" x="417.822266"/>
       <use xlink:href="#DejaVuSans-31" x="453.90625"/>
       <use xlink:href="#DejaVuSans-35" x="517.529297"/>
      </g>
     </g>
    </g>
   </g>
   <g id="matplotlib.axis_2">
    <g id="ytick_1">
     <g id="line2d_17">
      <defs>
       <path id="mc9f69105a3" d="M 0 0 
L -3.5 0 
" style="stroke: #000000; stroke-width: 0.8"/>
      </defs>
      <g>
       <use xlink:href="#mc9f69105a3" x="103.074841" y="361.10758" style="stroke: #000000; stroke-width: 0.8"/>
      </g>
     </g>
     <g id="text_17">
      <!-- 0.10 -->
      <g transform="translate(34.784216 368.706018) scale(0.2 -0.2)">
       <defs>
        <path id="DejaVuSans-2212" d="M 678 2272 
L 4684 2272 
L 4684 1741 
L 678 1741 
L 678 2272 
z
" transform="scale(0.015625)"/>
        <path id="DejaVuSans-2e" d="M 684 794 
L 1344 794 
L 1344 0 
L 684 0 
L 684 794 
z
" transform="scale(0.015625)"/>
       </defs>
       <use xlink:href="#DejaVuSans-2212"/>
       <use xlink:href="#DejaVuSans-30" x="83.789062"/>
       <use xlink:href="#DejaVuSans-2e" x="147.412109"/>
       <use xlink:href="#DejaVuSans-31" x="179.199219"/>
       <use xlink:href="#DejaVuSans-30" x="242.822266"/>
      </g>
     </g>
    </g>
    <g id="ytick_2">
     <g id="line2d_18">
      <g>
       <use xlink:href="#mc9f69105a3" x="103.074841" y="294.991554" style="stroke: #000000; stroke-width: 0.8"/>
      </g>
     </g>
     <g id="text_18">
      <!-- 0.05 -->
      <g transform="translate(34.784216 302.589992) scale(0.2 -0.2)">
       <use xlink:href="#DejaVuSans-2212"/>
       <use xlink:href="#DejaVuSans-30" x="83.789062"/>
       <use xlink:href="#DejaVuSans-2e" x="147.412109"/>
       <use xlink:href="#DejaVuSans-30" x="179.199219"/>
       <use xlink:href="#DejaVuSans-35" x="242.822266"/>
      </g>
     </g>
    </g>
    <g id="ytick_3">
     <g id="line2d_19">
      <g>
       <use xlink:href="#mc9f69105a3" x="103.074841" y="228.875528" style="stroke: #000000; stroke-width: 0.8"/>
      </g>
     </g>
     <g id="text_19">
      <!-- 0.00 -->
      <g transform="translate(51.543591 236.473965) scale(0.2 -0.2)">
       <use xlink:href="#DejaVuSans-30"/>
       <use xlink:href="#DejaVuSans-2e" x="63.623047"/>
       <use xlink:href="#DejaVuSans-30" x="95.410156"/>
       <use xlink:href="#DejaVuSans-30" x="159.033203"/>
      </g>
     </g>
    </g>
    <g id="ytick_4">
     <g id="line2d_20">
      <g>
       <use xlink:href="#mc9f69105a3" x="103.074841" y="162.759502" style="stroke: #000000; stroke-width: 0.8"/>
      </g>
     </g>
     <g id="text_20">
      <!-- 0.05 -->
      <g transform="translate(51.543591 170.357939) scale(0.2 -0.2)">
       <use xlink:href="#DejaVuSans-30"/>
       <use xlink:href="#DejaVuSans-2e" x="63.623047"/>
       <use xlink:href="#DejaVuSans-30" x="95.410156"/>
       <use xlink:href="#DejaVuSans-35" x="159.033203"/>
      </g>
     </g>
    </g>
    <g id="ytick_5">
     <g id="line2d_21">
      <g>
       <use xlink:href="#mc9f69105a3" x="103.074841" y="96.643475" style="stroke: #000000; stroke-width: 0.8"/>
      </g>
     </g>
     <g id="text_21">
      <!-- 0.10 -->
      <g transform="translate(51.543591 104.241913) scale(0.2 -0.2)">
       <use xlink:href="#DejaVuSans-30"/>
       <use xlink:href="#DejaVuSans-2e" x="63.623047"/>
       <use xlink:href="#DejaVuSans-31" x="95.410156"/>
       <use xlink:href="#DejaVuSans-30" x="159.033203"/>
      </g>
     </g>
    </g>
    <g id="ytick_6">
     <g id="line2d_22">
      <g>
       <use xlink:href="#mc9f69105a3" x="103.074841" y="30.527449" style="stroke: #000000; stroke-width: 0.8"/>
      </g>
     </g>
     <g id="text_22">
      <!-- 0.15 -->
      <g transform="translate(51.543591 38.125886) scale(0.2 -0.2)">
       <use xlink:href="#DejaVuSans-30"/>
       <use xlink:href="#DejaVuSans-2e" x="63.623047"/>
       <use xlink:href="#DejaVuSans-31" x="95.410156"/>
       <use xlink:href="#DejaVuSans-35" x="159.033203"/>
      </g>
     </g>
    </g>
   </g>
   <g id="line2d_23">
    <path d="M 940.074841 228.875528 
" clip-path="url(#p863b7b67cb)" style="fill: none; stroke: #ffa500; stroke-width: 1.5; stroke-linecap: square"/>
   </g>
   <g id="line2d_24">
    <path d="M 103.074841 228.875528 
L 948.274841 228.875528 
" clip-path="url(#p863b7b67cb)" style="fill: none; stroke-dasharray: 7.4,3.2; stroke-dashoffset: 0; stroke: #000000; stroke-width: 2"/>
   </g>
   <g id="patch_3">
    <path d="M 103.074841 395.28 
L 103.074841 7.2 
" style="fill: none; stroke: #000000; stroke-width: 0.8; stroke-linejoin: miter; stroke-linecap: square"/>
   </g>
   <g id="patch_4">
    <path d="M 940.074841 395.28 
L 940.074841 7.2 
" style="fill: none; stroke: #000000; stroke-width: 0.8; stroke-linejoin: miter; stroke-linecap: square"/>
   </g>
   <g id="patch_5">
    <path d="M 103.074841 395.28 
L 940.074841 395.28 
" style="fill: none; stroke: #000000; stroke-width: 0.8; stroke-linejoin: miter; stroke-linecap: square"/>
   </g>
   <g id="patch_6">
    <path d="M 103.074841 7.2 
L 940.074841 7.2 
" style="fill: none; stroke: #000000; stroke-width: 0.8; stroke-linejoin: miter; stroke-linecap: square"/>
   </g>
  </g>
 </g>
 <defs>
  <clipPath id="p863b7b67cb">
   <rect x="103.074841" y="7.2" width="837" height="388.08"/>
  </clipPath>
 </defs>
</svg>
