<?xml version="1.0" encoding="utf-8" standalone="no"?>
<!DOCTYPE svg PUBLIC "-//W3C//DTD SVG 1.1//EN"
  "http://www.w3.org/Graphics/SVG/1.1/DTD/svg11.dtd">
<svg xmlns:xlink="http://www.w3.org/1999/xlink" width="947.274841pt" height="505.354841pt" viewBox="0 0 947.274841 505.354841" xmlns="http://www.w3.org/2000/svg" version="1.1">
 <metadata>
  <rdf:RDF xmlns:dc="http://purl.org/dc/elements/1.1/" xmlns:cc="http://creativecommons.org/ns#" xmlns:rdf="http://www.w3.org/1999/02/22-rdf-syntax-ns#">
   <cc:Work>
    <dc:type rdf:resource="http://purl.org/dc/dcmitype/StillImage"/>
    <dc:date>2023-11-15T19:57:41.106585</dc:date>
    <dc:format>image/svg+xml</dc:format>
    <dc:creator>
     <cc:Agent>
      <dc:title>Matplotlib v3.7.2, https://matplotlib.org/</dc:title>
     </cc:Agent>
    </dc:creator>
   </cc:Work>
  </rdf:RDF>
 </metadata>
 <defs>
  <style type="text/css">*{stroke-linejoin: round; stroke-linecap: butt}</style>
 </defs>
 <g id="figure_1">
  <g id="patch_1">
   <path d="M 0 505.354841 
L 947.274841 505.354841 
L 947.274841 -0 
L 0 -0 
z
" style="fill: #ffffff"/>
  </g>
  <g id="axes_1">
   <g id="patch_2">
    <path d="M 103.074841 395.28 
L 940.074841 395.28 
L 940.074841 7.2 
L 103.074841 7.2 
z
" style="fill: #ffffff"/>
   </g>
   <g id="PolyCollection_1">
    <path d="M -393.000769 321.449386 
L -393.000769 321.474586 
L -390.959306 321.355691 
L -388.917842 321.250993 
L -386.876379 321.1182 
L -384.834915 321.026734 
L -382.793452 320.911098 
L -380.751989 320.777219 
L -378.710525 320.651576 
L -376.669062 320.536644 
L -374.627598 320.433784 
L -372.586135 320.31684 
L -370.544672 320.194736 
L -368.503208 320.075439 
L -366.461745 319.932097 
L -364.420281 319.810601 
L -362.378818 319.670004 
L -360.337354 319.547179 
L -358.295891 319.386471 
L -356.254428 319.251269 
L -354.212964 319.120179 
L -352.171501 318.967841 
L -350.130037 318.818572 
L -348.088574 318.671876 
L -346.047111 318.497996 
L -344.005647 318.343151 
L -341.964184 318.164419 
L -339.92272 317.983082 
L -337.881257 317.783818 
L -335.839793 317.578791 
L -333.79833 317.37686 
L -331.756867 317.145581 
L -329.715403 316.885881 
L -327.67394 316.651414 
L -325.632476 316.387046 
L -323.591013 316.087368 
L -321.54955 315.805102 
L -319.508086 315.477491 
L -317.466623 315.143542 
L -315.425159 314.798705 
L -313.383696 314.434541 
L -311.342232 314.032794 
L -309.300769 313.605384 
L -307.259306 313.152663 
L -305.217842 312.712653 
L -303.176379 312.201196 
L -301.134915 311.710379 
L -299.093452 311.188533 
L -297.051989 310.662722 
L -295.010525 310.098624 
L -292.969062 309.490394 
L -290.927598 308.921254 
L -288.886135 308.292268 
L -286.844672 307.641663 
L -284.803208 307.001335 
L -282.761745 306.365484 
L -280.720281 305.679643 
L -278.678818 304.985817 
L -276.637354 304.291927 
L -274.595891 303.570777 
L -272.554428 302.840616 
L -270.512964 302.111324 
L -268.471501 301.358657 
L -266.430037 300.603513 
L -264.388574 299.857893 
L -262.347111 299.083779 
L -260.305647 298.260089 
L -258.264184 297.459065 
L -256.22272 296.659269 
L -254.181257 295.870503 
L -252.139793 295.052273 
L -250.09833 294.251234 
L -248.056867 293.437823 
L -246.015403 292.696342 
L -243.97394 291.837123 
L -241.932476 291.082914 
L -239.891013 290.264498 
L -237.84955 289.488926 
L -235.808086 288.68183 
L -233.766623 287.95035 
L -231.725159 287.122237 
L -229.683696 286.346959 
L -227.642232 285.616151 
L -225.600769 284.828027 
L -223.559306 284.078348 
L -221.517842 283.307585 
L -219.476379 282.522722 
L -217.434915 281.765826 
L -215.393452 281.022702 
L -213.351989 280.235304 
L -211.310525 279.478972 
L -209.269062 278.706834 
L -207.227598 277.946462 
L -205.186135 277.202692 
L -203.144672 276.441094 
L -201.103208 275.673256 
L -199.061745 274.97479 
L -197.020281 274.194561 
L -194.978818 273.444504 
L -192.937354 272.706179 
L -190.895891 271.967701 
L -188.854428 271.231502 
L -186.812964 270.487387 
L -184.771501 269.774834 
L -182.730037 269.037212 
L -180.688574 268.283639 
L -178.647111 267.522845 
L -176.605647 266.754903 
L -174.564184 266.031485 
L -172.52272 265.242983 
L -170.481257 264.407109 
L -168.439793 263.617403 
L -166.39833 262.788405 
L -164.356867 261.947323 
L -162.315403 261.062981 
L -160.27394 260.163391 
L -158.232476 259.321221 
L -156.191013 258.370792 
L -154.14955 257.462676 
L -152.108086 256.490393 
L -150.066623 255.589796 
L -148.025159 254.544354 
L -145.983696 253.516793 
L -143.942232 252.514628 
L -141.900769 251.495286 
L -139.859306 250.445961 
L -137.817842 249.352109 
L -135.776379 248.320104 
L -133.734915 247.149888 
L -131.693452 246.108472 
L -129.651989 244.903975 
L -127.610525 243.732541 
L -125.569062 242.584937 
L -123.527598 241.478731 
L -121.486135 240.202548 
L -119.444672 239.038466 
L -117.403208 237.584027 
L -115.361745 236.316701 
L -113.320281 235.126505 
L -111.278818 233.793895 
L -109.237354 232.42728 
L -107.195891 230.86757 
L -105.154428 229.395476 
L -103.112964 228.144241 
L -101.071501 226.231604 
L -99.030037 224.666622 
L -96.988574 223.065874 
L -94.947111 221.405449 
L -92.905647 219.5291 
L -90.864184 217.750497 
L -88.82272 216.364319 
L -86.781257 214.668781 
L -84.739793 212.142867 
L -82.69833 210.061833 
L -80.656867 208.767774 
L -78.615403 206.566387 
L -76.57394 204.962814 
L -74.532476 203.475011 
L -72.491013 201.402832 
L -70.44955 198.579709 
L -68.408086 196.852521 
L -66.366623 195.882203 
L -64.325159 193.780027 
L -62.283696 192.98355 
L -60.242232 191.601254 
L -58.200769 189.100099 
L -56.159306 189.118354 
L -54.117842 189.908909 
L -52.076379 191.768984 
L -50.034915 189.345656 
L -47.993452 193.692529 
L -45.951989 194.547871 
L -43.910525 188.352674 
L -41.869062 189.934146 
L -39.827598 192.490211 
L -37.786135 190.789165 
L -35.744672 190.352903 
L -33.703208 201.760504 
L -31.661745 218.029554 
L -29.620281 226.088905 
L -27.578818 208.252851 
L -25.537354 217.316503 
L -23.495891 229.217341 
L -21.454428 228.470589 
L -19.412964 252.762883 
L -17.371501 249.403049 
L -15.330037 241.926925 
L -13.288574 223.454738 
L -11.247111 240.777465 
L -9.205647 251.189141 
L -7.164184 246.817403 
L -5.12272 249.526393 
L -3.081257 259.36017 
L -1.039793 258.041471 
L 1.00167 249.551863 
L 3.043133 260.207107 
L 5.084597 262.315333 
L 7.12606 258.5023 
L 9.167524 265.262819 
L 11.208987 267.728608 
L 13.25045 267.053284 
L 15.291914 264.991973 
L 17.333377 267.206057 
L 19.374841 264.925001 
L 21.416304 265.109917 
L 23.457768 267.214931 
L 25.499231 265.207228 
L 27.540694 266.228748 
L 29.582158 266.270487 
L 31.623621 264.641398 
L 33.665085 265.216232 
L 35.706548 262.872458 
L 37.748011 263.006241 
L 39.789475 263.628193 
L 41.830938 263.640071 
L 43.872402 262.480245 
L 45.913865 261.482289 
L 47.955328 261.206835 
L 49.996792 260.10338 
L 52.038255 259.898955 
L 54.079719 259.658745 
L 56.121182 257.995102 
L 58.162646 258.718887 
L 60.204109 257.604971 
L 62.245572 257.099372 
L 64.287036 257.088018 
L 66.328499 255.996779 
L 68.369963 255.695308 
L 70.411426 256.013085 
L 72.452889 256.558677 
L 74.494353 254.809602 
L 76.535816 254.485574 
L 78.57728 253.890712 
L 80.618743 256.832893 
L 82.660207 256.883566 
L 84.70167 258.016523 
L 86.743133 255.171454 
L 88.784597 253.413985 
L 90.82606 253.958399 
L 92.867524 255.912702 
L 94.908987 256.24252 
L 96.95045 252.810611 
L 98.991914 255.717203 
L 101.033377 255.000498 
L 103.074841 254.534773 
L 105.116304 252.962061 
L 107.157768 254.267712 
L 109.199231 253.515807 
L 111.240694 254.262346 
L 113.282158 253.254948 
L 115.323621 252.463803 
L 117.365085 251.020207 
L 119.406548 250.341411 
L 121.448011 249.724915 
L 123.489475 248.870843 
L 125.530938 248.706239 
L 127.572402 247.925226 
L 129.613865 247.086846 
L 131.655328 244.81781 
L 133.696792 243.101268 
L 135.738255 242.348498 
L 137.779719 240.470502 
L 139.821182 240.128496 
L 141.862646 238.494854 
L 143.904109 236.071023 
L 145.945572 234.056594 
L 147.987036 232.5446 
L 150.028499 230.032916 
L 152.069963 228.512166 
L 154.111426 226.28224 
L 156.152889 224.317392 
L 158.194353 221.835997 
L 160.235816 219.798308 
L 162.27728 217.012884 
L 164.318743 214.829371 
L 166.360207 212.453685 
L 168.40167 209.279444 
L 170.443133 206.326488 
L 172.484597 204.191399 
L 174.52606 201.594261 
L 176.567524 198.402418 
L 178.608987 195.897056 
L 180.65045 192.833113 
L 182.691914 188.540868 
L 184.733377 186.766905 
L 186.774841 183.221616 
L 188.816304 180.457816 
L 190.857768 177.300892 
L 192.899231 173.87618 
L 194.940694 170.333586 
L 196.982158 167.116855 
L 199.023621 162.881618 
L 201.065085 160.359059 
L 203.106548 156.33173 
L 205.148011 153.760873 
L 207.189475 149.633159 
L 209.230938 145.653847 
L 211.272402 141.984321 
L 213.313865 139.077875 
L 215.355328 134.298744 
L 217.396792 131.124375 
L 219.438255 127.078144 
L 221.479719 123.798233 
L 223.521182 119.526038 
L 225.562646 115.789886 
L 227.604109 115.320447 
L 229.645572 107.965772 
L 231.687036 106.79341 
L 233.728499 102.265082 
L 235.769963 99.17362 
L 237.811426 95.605 
L 239.852889 91.916607 
L 241.894353 88.586093 
L 243.935816 85.368439 
L 245.97728 82.339285 
L 248.018743 79.289339 
L 250.060207 81.644156 
L 252.10167 72.61562 
L 254.143133 70.35748 
L 256.184597 77.725756 
L 258.22606 66.820444 
L 260.267524 68.596939 
L 262.308987 67.357035 
L 264.35045 61.650151 
L 266.391914 62.561856 
L 268.433377 68.000877 
L 270.474841 63.896079 
L 272.516304 61.973264 
L 274.557768 65.331793 
L 276.599231 63.977277 
L 278.640694 66.255646 
L 280.682158 69.367749 
L 282.723621 74.738939 
L 284.765085 87.299223 
L 286.806548 84.317624 
L 288.848011 91.084395 
L 290.889475 96.67042 
L 292.930938 99.630862 
L 294.972402 106.763852 
L 297.013865 111.252258 
L 299.055328 102.492431 
L 301.096792 111.094252 
L 303.138255 125.319671 
L 305.179719 132.201114 
L 307.221182 135.369241 
L 309.262646 154.193223 
L 311.304109 155.747052 
L 313.345572 160.903938 
L 315.387036 159.561925 
L 317.428499 175.449729 
L 319.469963 170.567651 
L 321.511426 167.806757 
L 323.552889 181.375705 
L 325.594353 191.016872 
L 327.635816 190.194909 
L 329.67728 195.925936 
L 331.718743 197.805586 
L 333.760207 198.177543 
L 335.80167 198.198884 
L 337.843133 201.389248 
L 339.884597 203.202347 
L 341.92606 213.076745 
L 343.967524 208.063773 
L 346.008987 216.669656 
L 348.05045 214.775254 
L 350.091914 213.657086 
L 352.133377 217.169453 
L 354.174841 220.306668 
L 356.216304 216.43802 
L 358.257768 218.416962 
L 360.299231 218.596456 
L 362.340694 223.306015 
L 364.382158 221.060082 
L 366.423621 220.041559 
L 368.465085 221.4334 
L 370.506548 223.723844 
L 372.548011 222.677064 
L 374.589475 220.505152 
L 376.630938 221.806654 
L 378.672402 218.480119 
L 380.713865 218.885769 
L 382.755328 224.484513 
L 384.796792 224.197277 
L 386.838255 221.102715 
L 388.879719 220.364432 
L 390.921182 220.758843 
L 392.962646 217.409006 
L 395.004109 218.253475 
L 397.045572 218.268329 
L 399.087036 217.577147 
L 401.128499 216.693355 
L 403.169963 214.635211 
L 405.211426 215.897185 
L 407.252889 214.5259 
L 409.294353 214.252259 
L 411.335816 213.540364 
L 413.37728 213.662362 
L 415.418743 212.098909 
L 417.460207 209.243718 
L 419.50167 209.151617 
L 421.543133 206.834966 
L 423.584597 203.478824 
L 425.62606 206.009426 
L 427.667524 201.423461 
L 429.708987 203.40009 
L 431.75045 202.562883 
L 433.791914 202.932814 
L 435.833377 200.001846 
L 437.874841 199.827601 
L 439.916304 199.440692 
L 441.957768 195.77903 
L 443.999231 196.735071 
L 446.040694 196.437361 
L 448.082158 196.314087 
L 450.123621 194.577703 
L 452.165085 195.421403 
L 454.206548 193.631911 
L 456.248011 191.921413 
L 458.289475 189.213644 
L 460.330938 188.359114 
L 462.372402 187.797617 
L 464.413865 185.913596 
L 466.455328 186.21022 
L 468.496792 185.297903 
L 470.538255 183.624959 
L 472.579719 183.706816 
L 474.621182 181.807629 
L 476.662646 183.416658 
L 478.704109 182.101945 
L 480.745572 182.184729 
L 482.787036 179.825256 
L 484.828499 176.594152 
L 486.869963 179.373108 
L 488.911426 179.299204 
L 490.952889 178.260469 
L 492.994353 177.182634 
L 495.035816 174.936727 
L 497.07728 174.441132 
L 499.118743 173.214425 
L 501.160207 173.416534 
L 503.20167 172.96238 
L 505.243133 170.821867 
L 507.284597 167.777925 
L 509.32606 171.760408 
L 511.367524 170.829448 
L 513.408987 168.252851 
L 515.45045 169.919836 
L 517.491914 165.297816 
L 519.533377 165.88536 
L 521.574841 166.205377 
L 523.616304 163.087675 
L 525.657768 168.471155 
L 527.699231 163.14186 
L 529.740694 160.459269 
L 531.782158 164.011801 
L 533.823621 165.022526 
L 535.865085 163.380758 
L 537.906548 164.819687 
L 539.948011 162.442082 
L 541.989475 167.337145 
L 544.030938 165.011888 
L 546.072402 166.123496 
L 548.113865 162.984705 
L 550.155328 160.196835 
L 552.196792 164.074328 
L 554.238255 170.91554 
L 556.279719 163.45951 
L 558.321182 164.047343 
L 560.362646 161.365191 
L 562.404109 162.867266 
L 564.445572 162.648712 
L 566.487036 161.047486 
L 568.528499 160.540045 
L 570.569963 163.937389 
L 572.611426 162.379559 
L 574.652889 165.481597 
L 576.694353 166.160909 
L 578.735816 157.639134 
L 580.77728 161.309428 
L 582.818743 161.710866 
L 584.860207 162.398852 
L 586.90167 163.007363 
L 588.943133 168.605605 
L 590.984597 170.868328 
L 593.02606 170.660996 
L 595.067524 176.785431 
L 597.108987 186.89967 
L 599.15045 174.896649 
L 601.191914 174.766996 
L 603.233377 175.01972 
L 605.274841 179.012783 
L 607.316304 179.918783 
L 609.357768 179.881031 
L 611.399231 188.563303 
L 613.440694 191.754418 
L 615.482158 181.861265 
L 617.523621 190.792926 
L 619.565085 186.374029 
L 621.606548 183.632082 
L 623.648011 194.51508 
L 625.689475 192.364098 
L 627.730938 199.413983 
L 629.772402 197.313266 
L 631.813865 192.615599 
L 633.855328 197.076669 
L 635.896792 197.154287 
L 637.938255 201.54921 
L 639.979719 198.916429 
L 642.021182 206.133503 
L 644.062646 201.103096 
L 646.104109 204.960717 
L 648.145572 204.295353 
L 650.187036 208.529676 
L 652.228499 201.936155 
L 654.269963 209.172604 
L 656.311426 208.857796 
L 658.352889 213.825869 
L 660.394353 216.484961 
L 662.435816 216.577009 
L 664.47728 215.402031 
L 666.518743 218.618813 
L 668.560207 221.031223 
L 670.60167 219.012101 
L 672.643133 218.290496 
L 674.684597 221.110441 
L 676.72606 223.670607 
L 678.767524 219.384122 
L 680.808987 216.924308 
L 682.85045 226.896702 
L 684.891914 231.423198 
L 686.933377 221.296704 
L 688.974841 224.312587 
L 691.016304 225.833725 
L 693.057768 226.582489 
L 695.099231 231.687447 
L 697.140694 231.019134 
L 699.182158 228.933168 
L 701.223621 231.128539 
L 703.265085 231.697155 
L 705.306548 226.191136 
L 707.348011 228.9207 
L 709.389475 227.178539 
L 711.430938 234.700998 
L 713.472402 243.959427 
L 715.513865 242.535837 
L 717.555328 235.061488 
L 719.596792 234.192882 
L 721.638255 235.143166 
L 723.679719 235.415873 
L 725.721182 242.245886 
L 727.762646 233.372778 
L 729.804109 242.567027 
L 731.845572 249.926857 
L 733.887036 243.613624 
L 735.928499 253.093462 
L 737.969963 247.002738 
L 740.011426 252.121169 
L 742.052889 248.582043 
L 744.094353 251.054509 
L 746.135816 256.109645 
L 748.17728 255.66955 
L 750.218743 257.149568 
L 752.260207 257.478239 
L 754.30167 257.944921 
L 756.343133 245.36428 
L 758.384597 261.482851 
L 760.42606 268.076044 
L 762.467524 261.588336 
L 764.508987 267.416375 
L 766.55045 268.680146 
L 768.591914 265.312938 
L 770.633377 271.935574 
L 772.674841 276.406779 
L 774.716304 273.800351 
L 776.757768 275.547211 
L 778.799231 276.565365 
L 780.840694 278.18287 
L 782.882158 283.260345 
L 784.923621 273.055365 
L 786.965085 285.909782 
L 789.006548 286.333799 
L 791.048011 286.990466 
L 793.089475 279.167372 
L 795.130938 288.936712 
L 797.172402 295.484351 
L 799.213865 289.095745 
L 801.255328 290.004749 
L 803.296792 299.184077 
L 805.338255 283.682215 
L 807.379719 298.51336 
L 809.421182 289.545432 
L 811.462646 302.737477 
L 813.504109 296.863038 
L 815.545572 302.720076 
L 817.587036 305.437518 
L 819.628499 308.772298 
L 821.669963 309.988821 
L 823.711426 305.28069 
L 825.752889 306.428027 
L 827.794353 309.340938 
L 829.835816 319.175322 
L 831.87728 320.053389 
L 833.918743 319.464144 
L 835.960207 331.187345 
L 838.00167 331.718479 
L 840.043133 324.219649 
L 842.084597 323.559195 
L 844.12606 344.618702 
L 846.167524 346.8614 
L 848.208987 351.582615 
L 850.25045 341.836402 
L 852.291914 318.244432 
L 854.333377 344.501654 
L 856.374841 338.392004 
L 858.416304 345.511739 
L 860.457768 354.999039 
L 862.499231 343.63169 
L 864.540694 359.918701 
L 866.582158 347.729362 
L 868.623621 347.952244 
L 870.665085 349.916342 
L 872.706548 359.945283 
L 874.748011 359.640148 
L 876.789475 358.410932 
L 878.830938 349.255781 
L 880.872402 355.35925 
L 882.913865 360.117412 
L 884.955328 356.512891 
L 886.996792 364.842136 
L 889.038255 359.49899 
L 891.079719 365.168124 
L 893.121182 373.856308 
L 895.162646 373.359936 
L 897.204109 366.162158 
L 899.245572 367.072262 
L 901.287036 366.352651 
L 903.328499 370.719536 
L 905.369963 371.360532 
L 907.411426 359.130853 
L 909.452889 370.032247 
L 911.494353 314.217587 
L 913.535816 371.233177 
L 915.57728 376.028034 
L 917.618743 367.883765 
L 919.660207 359.308325 
L 921.70167 377.64 
L 923.743133 370.296367 
L 925.784597 357.045596 
L 927.82606 366.467304 
L 929.867524 367.31553 
L 931.908987 364.153178 
L 933.95045 373.062943 
L 935.991914 367.452885 
L 938.033377 371.155985 
L 940.074841 373.624993 
L 940.074841 317.885917 
L 940.074841 317.885917 
L 938.033377 323.314196 
L 935.991914 320.889366 
L 933.95045 323.215764 
L 931.908987 319.419121 
L 929.867524 320.960266 
L 927.82606 319.24446 
L 925.784597 320.121855 
L 923.743133 324.356322 
L 921.70167 324.928497 
L 919.660207 321.794369 
L 917.618743 322.451572 
L 915.57728 327.05942 
L 913.535816 323.821982 
L 911.494353 308.0302 
L 909.452889 324.920276 
L 907.411426 323.05514 
L 905.369963 325.53574 
L 903.328499 325.60229 
L 901.287036 324.510253 
L 899.245572 325.935528 
L 897.204109 325.773901 
L 895.162646 327.863559 
L 893.121182 328.247751 
L 891.079719 326.611969 
L 889.038255 325.12578 
L 886.996792 325.98596 
L 884.955328 323.141487 
L 882.913865 324.093974 
L 880.872402 323.400328 
L 878.830938 321.730867 
L 876.789475 324.98973 
L 874.748011 325.383009 
L 872.706548 326.520588 
L 870.665085 322.047237 
L 868.623621 322.278149 
L 866.582158 322.703876 
L 864.540694 326.26257 
L 862.499231 321.115003 
L 860.457768 324.94664 
L 858.416304 321.685581 
L 856.374841 319.56998 
L 854.333377 321.545635 
L 852.291914 313.58591 
L 850.25045 320.450289 
L 848.208987 324.495296 
L 846.167524 322.94156 
L 844.12606 321.89031 
L 842.084597 316.197178 
L 840.043133 315.531347 
L 838.00167 318.09659 
L 835.960207 317.559674 
L 833.918743 313.6549 
L 831.87728 313.47597 
L 829.835816 313.902456 
L 827.794353 306.320294 
L 825.752889 297.667127 
L 823.711426 294.919616 
L 821.669963 303.444927 
L 819.628499 301.025112 
L 817.587036 296.321178 
L 815.545572 291.480509 
L 813.504109 274.497386 
L 811.462646 291.505713 
L 809.421182 247.695899 
L 807.379719 277.432344 
L 805.338255 235.739891 
L 803.296792 281.045705 
L 801.255328 256.108593 
L 799.213865 255.70402 
L 797.172402 268.673637 
L 795.130938 253.575611 
L 793.089475 225.943636 
L 791.048011 246.301497 
L 789.006548 245.959155 
L 786.965085 245.195941 
L 784.923621 212.937694 
L 782.882158 229.054351 
L 780.840694 225.273497 
L 778.799231 223.103205 
L 776.757768 219.599304 
L 774.716304 212.904808 
L 772.674841 219.599245 
L 770.633377 207.709304 
L 768.591914 192.857195 
L 766.55045 205.219718 
L 764.508987 195.48016 
L 762.467524 186.797596 
L 760.42606 201.056003 
L 758.384597 185.610459 
L 756.343133 145.870146 
L 754.30167 174.908292 
L 752.260207 173.778787 
L 750.218743 173.86593 
L 748.17728 170.344481 
L 746.135816 170.506494 
L 744.094353 159.660833 
L 742.052889 155.193273 
L 740.011426 163.532954 
L 737.969963 147.771716 
L 735.928499 163.855757 
L 733.887036 141.962352 
L 731.845572 154.490551 
L 729.804109 139.884503 
L 727.762646 121.778101 
L 725.721182 138.274499 
L 723.679719 122.414431 
L 721.638255 123.432012 
L 719.596792 122.653281 
L 717.555328 124.107181 
L 715.513865 138.970858 
L 713.472402 142.444967 
L 711.430938 124.397703 
L 709.389475 105.886907 
L 707.348011 110.897031 
L 705.306548 107.048412 
L 703.265085 118.451105 
L 701.223621 117.107382 
L 699.182158 112.305673 
L 697.140694 118.148408 
L 695.099231 117.51039 
L 693.057768 107.975858 
L 691.016304 108.922068 
L 688.974841 105.116197 
L 686.933377 100.469385 
L 684.891914 121.429185 
L 682.85045 109.353127 
L 680.808987 92.862822 
L 678.767524 100.487104 
L 676.72606 107.282037 
L 674.684597 102.477763 
L 672.643133 98.735621 
L 670.60167 101.318732 
L 668.560207 108.500165 
L 666.518743 100.310984 
L 664.47728 97.177631 
L 662.435816 100.253664 
L 660.394353 95.046623 
L 658.352889 96.463987 
L 656.311426 86.171641 
L 654.269963 89.648933 
L 652.228499 77.134848 
L 650.187036 87.557924 
L 648.145572 82.373421 
L 646.104109 85.145855 
L 644.062646 81.591484 
L 642.021182 87.904344 
L 639.979719 76.681286 
L 637.938255 83.486978 
L 635.896792 76.375983 
L 633.855328 77.597403 
L 631.813865 72.013158 
L 629.772402 74.812726 
L 627.730938 82.6102 
L 625.689475 74.934593 
L 623.648011 76.74968 
L 621.606548 61.720517 
L 619.565085 68.630617 
L 617.523621 72.14053 
L 615.482158 60.585139 
L 613.440694 73.490696 
L 611.399231 74.511207 
L 609.357768 59.896211 
L 607.316304 60.182252 
L 605.274841 59.182267 
L 603.233377 53.938868 
L 601.191914 57.605611 
L 599.15045 56.309481 
L 597.108987 73.53889 
L 595.067524 61.685409 
L 593.02606 52.932124 
L 590.984597 53.173761 
L 588.943133 50.603469 
L 586.90167 45.302106 
L 584.860207 47.182192 
L 582.818743 43.593957 
L 580.77728 47.571173 
L 578.735816 42.33803 
L 576.694353 52.125893 
L 574.652889 53.37675 
L 572.611426 51.028075 
L 570.569963 53.132536 
L 568.528499 49.27372 
L 566.487036 52.090224 
L 564.445572 53.671432 
L 562.404109 58.173334 
L 560.362646 54.320766 
L 558.321182 59.370241 
L 556.279719 58.189882 
L 554.238255 67.740477 
L 552.196792 61.054477 
L 550.155328 57.426339 
L 548.113865 61.436703 
L 546.072402 63.182787 
L 544.030938 63.194115 
L 541.989475 68.688981 
L 539.948011 63.69665 
L 537.906548 67.35393 
L 535.865085 65.410409 
L 533.823621 66.189839 
L 531.782158 64.438762 
L 529.740694 61.935556 
L 527.699231 66.337983 
L 525.657768 72.241169 
L 523.616304 65.979083 
L 521.574841 69.380808 
L 519.533377 67.728521 
L 517.491914 69.623026 
L 515.45045 74.162177 
L 513.408987 72.459846 
L 511.367524 76.113768 
L 509.32606 76.98932 
L 507.284597 72.608252 
L 505.243133 74.987804 
L 503.20167 77.651444 
L 501.160207 78.525588 
L 499.118743 78.271666 
L 497.07728 80.116362 
L 495.035816 79.654965 
L 492.994353 82.45466 
L 490.952889 83.119417 
L 488.911426 83.625366 
L 486.869963 84.125409 
L 484.828499 78.697391 
L 482.787036 84.338987 
L 480.745572 86.487242 
L 478.704109 85.647773 
L 476.662646 85.646167 
L 474.621182 85.48798 
L 472.579719 86.984508 
L 470.538255 86.217522 
L 468.496792 88.554365 
L 466.455328 89.22276 
L 464.413865 88.379953 
L 462.372402 89.073275 
L 460.330938 90.088877 
L 458.289475 91.141705 
L 456.248011 95.309714 
L 454.206548 96.076353 
L 452.165085 97.938614 
L 450.123621 96.544404 
L 448.082158 98.312485 
L 446.040694 98.194221 
L 443.999231 98.50482 
L 441.957768 95.900088 
L 439.916304 101.829382 
L 437.874841 102.022275 
L 435.833377 102.074764 
L 433.791914 105.47507 
L 431.75045 104.833703 
L 429.708987 106.017388 
L 427.667524 103.713852 
L 425.62606 108.507862 
L 423.584597 106.569205 
L 421.543133 111.169569 
L 419.50167 114.317633 
L 417.460207 114.928413 
L 415.418743 118.981483 
L 413.37728 122.058517 
L 411.335816 121.507615 
L 409.294353 123.232418 
L 407.252889 123.422114 
L 405.211426 125.822439 
L 403.169963 124.592997 
L 401.128499 128.112149 
L 399.087036 130.645826 
L 397.045572 131.990214 
L 395.004109 132.637131 
L 392.962646 133.080318 
L 390.921182 136.960774 
L 388.879719 137.604387 
L 386.838255 139.883104 
L 384.796792 143.417062 
L 382.755328 144.328609 
L 380.713865 140.550024 
L 378.672402 141.306475 
L 376.630938 145.261895 
L 374.589475 145.475508 
L 372.548011 148.126081 
L 370.506548 149.976378 
L 368.465085 148.587804 
L 366.423621 149.639661 
L 364.382158 151.02964 
L 362.340694 153.71874 
L 360.299231 150.260619 
L 358.257768 151.458401 
L 356.216304 151.266768 
L 354.174841 155.216768 
L 352.133377 154.514941 
L 350.091914 152.029955 
L 348.05045 154.055179 
L 346.008987 156.151709 
L 343.967524 150.014996 
L 341.92606 155.342648 
L 339.884597 148.173376 
L 337.843133 147.730747 
L 335.80167 146.198477 
L 333.760207 147.747103 
L 331.718743 148.125888 
L 329.67728 147.17403 
L 327.635816 143.731821 
L 325.594353 146.244054 
L 323.552889 138.314142 
L 321.511426 130.501221 
L 319.469963 132.414411 
L 317.428499 136.520424 
L 315.387036 125.292639 
L 313.345572 125.819047 
L 311.304109 122.893608 
L 309.262646 122.08385 
L 307.221182 107.001415 
L 305.179719 105.70591 
L 303.138255 100.144817 
L 301.096792 88.299165 
L 299.055328 79.839004 
L 297.013865 88.992158 
L 294.972402 84.666038 
L 292.930938 77.228601 
L 290.889475 73.923892 
L 288.848011 68.475191 
L 286.806548 61.409271 
L 284.765085 64.885087 
L 282.723621 51.537294 
L 280.682158 46.623946 
L 278.640694 43.272268 
L 276.599231 41.186927 
L 274.557768 42.579015 
L 272.516304 39.209422 
L 270.474841 41.305504 
L 268.433377 45.852128 
L 266.391914 40.87954 
L 264.35045 40.020172 
L 262.308987 46.192459 
L 260.267524 47.617653 
L 258.22606 46.232047 
L 256.184597 57.259591 
L 254.143133 50.483443 
L 252.10167 52.685775 
L 250.060207 62.348471 
L 248.018743 59.873605 
L 245.97728 62.784279 
L 243.935816 65.522525 
L 241.894353 68.493783 
L 239.852889 71.81079 
L 237.811426 75.313881 
L 235.769963 78.701513 
L 233.728499 81.553367 
L 231.687036 85.561606 
L 229.645572 86.469388 
L 227.604109 93.591935 
L 225.562646 93.712815 
L 223.521182 97.297887 
L 221.479719 101.299949 
L 219.438255 104.316405 
L 217.396792 108.104272 
L 215.355328 111.051151 
L 213.313865 115.387518 
L 211.272402 117.967409 
L 209.230938 121.141959 
L 207.189475 124.883915 
L 205.148011 128.702596 
L 203.106548 130.998598 
L 201.065085 134.684727 
L 199.023621 137.173133 
L 196.982158 140.966905 
L 194.940694 143.890449 
L 192.899231 146.798707 
L 190.857768 150.027735 
L 188.816304 152.883471 
L 186.774841 155.300668 
L 184.733377 158.456043 
L 182.691914 160.022696 
L 180.65045 163.938037 
L 178.608987 166.559205 
L 176.567524 168.861271 
L 174.52606 171.691181 
L 172.484597 173.394807 
L 170.443133 175.896971 
L 168.40167 178.46615 
L 166.360207 181.304664 
L 164.318743 183.45934 
L 162.27728 185.580758 
L 160.235816 187.902616 
L 158.194353 190.135666 
L 156.152889 192.546679 
L 154.111426 194.457584 
L 152.069963 196.54571 
L 150.028499 198.238544 
L 147.987036 200.62092 
L 145.945572 202.31918 
L 143.904109 204.257273 
L 141.862646 206.692139 
L 139.821182 208.3558 
L 137.779719 208.792465 
L 135.738255 210.792576 
L 133.696792 211.783988 
L 131.655328 213.714623 
L 129.613865 215.973713 
L 127.572402 217.10713 
L 125.530938 218.169153 
L 123.489475 218.337955 
L 121.448011 219.464742 
L 119.406548 220.118589 
L 117.365085 220.831542 
L 115.323621 222.452504 
L 113.282158 223.380401 
L 111.240694 224.735302 
L 109.199231 223.907659 
L 107.157768 224.646508 
L 105.116304 223.38058 
L 103.074841 225.293981 
L 101.033377 225.569901 
L 98.991914 226.972162 
L 96.95045 223.956474 
L 94.908987 227.603973 
L 92.867524 227.317653 
L 90.82606 225.243114 
L 88.784597 224.73685 
L 86.743133 226.643949 
L 84.70167 229.921545 
L 82.660207 228.687294 
L 80.618743 228.656472 
L 78.57728 225.424889 
L 76.535816 225.435444 
L 74.494353 226.427962 
L 72.452889 228.479533 
L 70.411426 227.878 
L 68.369963 227.517938 
L 66.328499 227.8904 
L 64.287036 229.172552 
L 62.245572 228.94339 
L 60.204109 229.776324 
L 58.162646 231.124214 
L 56.121182 230.267834 
L 54.079719 232.196402 
L 52.038255 232.536617 
L 49.996792 232.81339 
L 47.955328 234.048026 
L 45.913865 234.393401 
L 43.872402 235.75482 
L 41.830938 237.235911 
L 39.789475 237.302562 
L 37.748011 236.766836 
L 35.706548 236.395031 
L 33.665085 239.477066 
L 31.623621 238.993933 
L 29.582158 241.078054 
L 27.540694 241.157694 
L 25.499231 240.417304 
L 23.457768 242.480121 
L 21.416304 240.645551 
L 19.374841 240.785291 
L 17.333377 243.393602 
L 15.291914 241.593076 
L 13.25045 244.060103 
L 11.208987 244.882293 
L 9.167524 242.885935 
L 7.12606 236.434494 
L 5.084597 240.638986 
L 3.043133 238.699775 
L 1.00167 229.085467 
L -1.039793 237.376545 
L -3.081257 239.124402 
L -5.12272 230.244575 
L -7.164184 227.858134 
L -9.205647 232.713975 
L -11.247111 223.091764 
L -13.288574 206.655838 
L -15.330037 224.985281 
L -17.371501 232.451636 
L -19.412964 236.201524 
L -21.454428 213.217266 
L -23.495891 214.292917 
L -25.537354 202.96927 
L -27.578818 194.091634 
L -29.620281 212.439631 
L -31.661745 204.757752 
L -33.703208 188.808376 
L -35.744672 177.539463 
L -37.786135 178.428431 
L -39.827598 180.619524 
L -41.869062 178.392127 
L -43.910525 177.148776 
L -45.951989 183.953814 
L -47.993452 183.364985 
L -50.034915 179.298345 
L -52.076379 182.149342 
L -54.117842 180.588637 
L -56.159306 180.143488 
L -58.200769 180.577275 
L -60.242232 183.389155 
L -62.283696 185.159353 
L -64.325159 186.272302 
L -66.366623 188.752473 
L -68.408086 190.039631 
L -70.44955 192.083113 
L -72.491013 195.154041 
L -74.532476 197.669742 
L -76.57394 199.405112 
L -78.615403 201.318255 
L -80.656867 203.757381 
L -82.69833 205.37747 
L -84.739793 207.715121 
L -86.781257 210.506262 
L -88.82272 212.234035 
L -90.864184 213.4851 
L -92.905647 215.255322 
L -94.947111 217.063327 
L -96.988574 218.715627 
L -99.030037 220.296945 
L -101.071501 221.824306 
L -103.112964 223.85399 
L -105.154428 224.982284 
L -107.195891 226.491485 
L -109.237354 228.076182 
L -111.278818 229.439298 
L -113.320281 230.769593 
L -115.361745 231.900388 
L -117.403208 233.123341 
L -119.444672 234.689311 
L -121.486135 235.823942 
L -123.527598 237.125205 
L -125.569062 238.200571 
L -127.610525 239.378596 
L -129.651989 240.578068 
L -131.693452 241.787509 
L -133.734915 242.812116 
L -135.776379 244.007761 
L -137.817842 245.059291 
L -139.859306 246.182351 
L -141.900769 247.234753 
L -143.942232 248.306049 
L -145.983696 249.317031 
L -148.025159 250.374046 
L -150.066623 251.488821 
L -152.108086 252.361667 
L -154.14955 253.41724 
L -156.191013 254.343796 
L -158.232476 255.394333 
L -160.27394 256.19703 
L -162.315403 257.176791 
L -164.356867 258.117354 
L -166.39833 259.012448 
L -168.439793 259.906073 
L -170.481257 260.731545 
L -172.52272 261.690144 
L -174.564184 262.555179 
L -176.605647 263.272236 
L -178.647111 264.11989 
L -180.688574 264.9669 
L -182.730037 265.810564 
L -184.771501 266.626292 
L -186.812964 267.389509 
L -188.854428 268.227892 
L -190.895891 269.051457 
L -192.937354 269.880246 
L -194.978818 270.707491 
L -197.020281 271.557504 
L -199.061745 272.441008 
L -201.103208 273.208339 
L -203.144672 274.082908 
L -205.186135 274.94284 
L -207.227598 275.771197 
L -209.269062 276.625809 
L -211.310525 277.498265 
L -213.351989 278.34717 
L -215.393452 279.237099 
L -217.434915 280.0538 
L -219.476379 280.887293 
L -221.517842 281.766832 
L -223.559306 282.619246 
L -225.600769 283.431914 
L -227.642232 284.290485 
L -229.683696 285.080099 
L -231.725159 285.922049 
L -233.766623 286.816889 
L -235.808086 287.594062 
L -237.84955 288.458619 
L -239.891013 289.281488 
L -241.932476 290.142954 
L -243.97394 290.929566 
L -246.015403 291.840066 
L -248.056867 292.605873 
L -250.09833 293.458014 
L -252.139793 294.293722 
L -254.181257 295.149494 
L -256.22272 295.966173 
L -258.264184 296.797032 
L -260.305647 297.630989 
L -262.347111 298.490696 
L -264.388574 299.293418 
L -266.430037 300.06166 
L -268.471501 300.841005 
L -270.512964 301.619285 
L -272.554428 302.359309 
L -274.595891 303.106943 
L -276.637354 303.844941 
L -278.678818 304.55104 
L -280.720281 305.2631 
L -282.761745 305.970073 
L -284.803208 306.617131 
L -286.844672 307.27249 
L -288.886135 307.951923 
L -290.927598 308.596641 
L -292.969062 309.177189 
L -295.010525 309.809626 
L -297.051989 310.38996 
L -299.093452 310.926587 
L -301.134915 311.461443 
L -303.176379 311.962578 
L -305.217842 312.497557 
L -307.259306 312.944947 
L -309.300769 313.41355 
L -311.342232 313.855133 
L -313.383696 314.265344 
L -315.425159 314.640686 
L -317.466623 314.983324 
L -319.508086 315.322519 
L -321.54955 315.657718 
L -323.591013 315.93889 
L -325.632476 316.248791 
L -327.67394 316.514109 
L -329.715403 316.745167 
L -331.756867 317.011157 
L -333.79833 317.245938 
L -335.839793 317.443238 
L -337.881257 317.652803 
L -339.92272 317.856473 
L -341.964184 318.037274 
L -344.005647 318.218138 
L -346.047111 318.37032 
L -348.088574 318.550184 
L -350.130037 318.696289 
L -352.171501 318.848649 
L -354.212964 319.007381 
L -356.254428 319.139374 
L -358.295891 319.277985 
L -360.337354 319.454426 
L -362.378818 319.582895 
L -364.420281 319.736869 
L -366.461745 319.861207 
L -368.503208 320.021677 
L -370.544672 320.150115 
L -372.586135 320.283771 
L -374.627598 320.403263 
L -376.669062 320.511424 
L -378.710525 320.632564 
L -380.751989 320.763027 
L -382.793452 320.890822 
L -384.834915 321.001181 
L -386.876379 321.093101 
L -388.917842 321.218777 
L -390.959306 321.324581 
L -393.000769 321.449386 
z
" clip-path="url(#pd647ff82d3)" style="fill: #008000; fill-opacity: 0.3; stroke: #008000; stroke-opacity: 0.3"/>
   </g>
   <g id="matplotlib.axis_1">
    <g id="xtick_1">
     <g id="line2d_1">
      <defs>
       <path id="m9d399d0e2c" d="M 0 0 
L 0 3.5 
" style="stroke: #000000; stroke-width: 0.8"/>
      </defs>
      <g>
       <use xlink:href="#m9d399d0e2c" x="103.074841" y="395.28" style="stroke: #000000; stroke-width: 0.8"/>
      </g>
     </g>
     <g id="text_1">
      <!-- 2022-03-01 -->
      <g transform="translate(17.945813 495.213718) rotate(-45) scale(0.2 -0.2)">
       <defs>
        <path id="DejaVuSans-32" d="M 1228 531 
L 3431 531 
L 3431 0 
L 469 0 
L 469 531 
Q 828 903 1448 1529 
Q 2069 2156 2228 2338 
Q 2531 2678 2651 2914 
Q 2772 3150 2772 3378 
Q 2772 3750 2511 3984 
Q 2250 4219 1831 4219 
Q 1534 4219 1204 4116 
Q 875 4013 500 3803 
L 500 4441 
Q 881 4594 1212 4672 
Q 1544 4750 1819 4750 
Q 2544 4750 2975 4387 
Q 3406 4025 3406 3419 
Q 3406 3131 3298 2873 
Q 3191 2616 2906 2266 
Q 2828 2175 2409 1742 
Q 1991 1309 1228 531 
z
" transform="scale(0.015625)"/>
        <path id="DejaVuSans-30" d="M 2034 4250 
Q 1547 4250 1301 3770 
Q 1056 3291 1056 2328 
Q 1056 1369 1301 889 
Q 1547 409 2034 409 
Q 2525 409 2770 889 
Q 3016 1369 3016 2328 
Q 3016 3291 2770 3770 
Q 2525 4250 2034 4250 
z
M 2034 4750 
Q 2819 4750 3233 4129 
Q 3647 3509 3647 2328 
Q 3647 1150 3233 529 
Q 2819 -91 2034 -91 
Q 1250 -91 836 529 
Q 422 1150 422 2328 
Q 422 3509 836 4129 
Q 1250 4750 2034 4750 
z
" transform="scale(0.015625)"/>
        <path id="DejaVuSans-2d" d="M 313 2009 
L 1997 2009 
L 1997 1497 
L 313 1497 
L 313 2009 
z
" transform="scale(0.015625)"/>
        <path id="DejaVuSans-33" d="M 2597 2516 
Q 3050 2419 3304 2112 
Q 3559 1806 3559 1356 
Q 3559 666 3084 287 
Q 2609 -91 1734 -91 
Q 1441 -91 1130 -33 
Q 819 25 488 141 
L 488 750 
Q 750 597 1062 519 
Q 1375 441 1716 441 
Q 2309 441 2620 675 
Q 2931 909 2931 1356 
Q 2931 1769 2642 2001 
Q 2353 2234 1838 2234 
L 1294 2234 
L 1294 2753 
L 1863 2753 
Q 2328 2753 2575 2939 
Q 2822 3125 2822 3475 
Q 2822 3834 2567 4026 
Q 2313 4219 1838 4219 
Q 1578 4219 1281 4162 
Q 984 4106 628 3988 
L 628 4550 
Q 988 4650 1302 4700 
Q 1616 4750 1894 4750 
Q 2613 4750 3031 4423 
Q 3450 4097 3450 3541 
Q 3450 3153 3228 2886 
Q 3006 2619 2597 2516 
z
" transform="scale(0.015625)"/>
        <path id="DejaVuSans-31" d="M 794 531 
L 1825 531 
L 1825 4091 
L 703 3866 
L 703 4441 
L 1819 4666 
L 2450 4666 
L 2450 531 
L 3481 531 
L 3481 0 
L 794 0 
L 794 531 
z
" transform="scale(0.015625)"/>
       </defs>
       <use xlink:href="#DejaVuSans-32"/>
       <use xlink:href="#DejaVuSans-30" x="63.623047"/>
       <use xlink:href="#DejaVuSans-32" x="127.246094"/>
       <use xlink:href="#DejaVuSans-32" x="190.869141"/>
       <use xlink:href="#DejaVuSans-2d" x="254.492188"/>
       <use xlink:href="#DejaVuSans-30" x="290.576172"/>
       <use xlink:href="#DejaVuSans-33" x="354.199219"/>
       <use xlink:href="#DejaVuSans-2d" x="417.822266"/>
       <use xlink:href="#DejaVuSans-30" x="453.90625"/>
       <use xlink:href="#DejaVuSans-31" x="517.529297"/>
      </g>
     </g>
    </g>
    <g id="xtick_2">
     <g id="line2d_2">
      <g>
       <use xlink:href="#m9d399d0e2c" x="160.235816" y="395.28" style="stroke: #000000; stroke-width: 0.8"/>
      </g>
     </g>
     <g id="text_2">
      <!-- 2022-03-29 -->
      <g transform="translate(75.106789 495.213718) rotate(-45) scale(0.2 -0.2)">
       <defs>
        <path id="DejaVuSans-39" d="M 703 97 
L 703 672 
Q 941 559 1184 500 
Q 1428 441 1663 441 
Q 2288 441 2617 861 
Q 2947 1281 2994 2138 
Q 2813 1869 2534 1725 
Q 2256 1581 1919 1581 
Q 1219 1581 811 2004 
Q 403 2428 403 3163 
Q 403 3881 828 4315 
Q 1253 4750 1959 4750 
Q 2769 4750 3195 4129 
Q 3622 3509 3622 2328 
Q 3622 1225 3098 567 
Q 2575 -91 1691 -91 
Q 1453 -91 1209 -44 
Q 966 3 703 97 
z
M 1959 2075 
Q 2384 2075 2632 2365 
Q 2881 2656 2881 3163 
Q 2881 3666 2632 3958 
Q 2384 4250 1959 4250 
Q 1534 4250 1286 3958 
Q 1038 3666 1038 3163 
Q 1038 2656 1286 2365 
Q 1534 2075 1959 2075 
z
" transform="scale(0.015625)"/>
       </defs>
       <use xlink:href="#DejaVuSans-32"/>
       <use xlink:href="#DejaVuSans-30" x="63.623047"/>
       <use xlink:href="#DejaVuSans-32" x="127.246094"/>
       <use xlink:href="#DejaVuSans-32" x="190.869141"/>
       <use xlink:href="#DejaVuSans-2d" x="254.492188"/>
       <use xlink:href="#DejaVuSans-30" x="290.576172"/>
       <use xlink:href="#DejaVuSans-33" x="354.199219"/>
       <use xlink:href="#DejaVuSans-2d" x="417.822266"/>
       <use xlink:href="#DejaVuSans-32" x="453.90625"/>
       <use xlink:href="#DejaVuSans-39" x="517.529297"/>
      </g>
     </g>
    </g>
    <g id="xtick_3">
     <g id="line2d_3">
      <g>
       <use xlink:href="#m9d399d0e2c" x="217.396792" y="395.28" style="stroke: #000000; stroke-width: 0.8"/>
      </g>
     </g>
     <g id="text_3">
      <!-- 2022-04-26 -->
      <g transform="translate(132.267765 495.213718) rotate(-45) scale(0.2 -0.2)">
       <defs>
        <path id="DejaVuSans-34" d="M 2419 4116 
L 825 1625 
L 2419 1625 
L 2419 4116 
z
M 2253 4666 
L 3047 4666 
L 3047 1625 
L 3713 1625 
L 3713 1100 
L 3047 1100 
L 3047 0 
L 2419 0 
L 2419 1100 
L 313 1100 
L 313 1709 
L 2253 4666 
z
" transform="scale(0.015625)"/>
        <path id="DejaVuSans-36" d="M 2113 2584 
Q 1688 2584 1439 2293 
Q 1191 2003 1191 1497 
Q 1191 994 1439 701 
Q 1688 409 2113 409 
Q 2538 409 2786 701 
Q 3034 994 3034 1497 
Q 3034 2003 2786 2293 
Q 2538 2584 2113 2584 
z
M 3366 4563 
L 3366 3988 
Q 3128 4100 2886 4159 
Q 2644 4219 2406 4219 
Q 1781 4219 1451 3797 
Q 1122 3375 1075 2522 
Q 1259 2794 1537 2939 
Q 1816 3084 2150 3084 
Q 2853 3084 3261 2657 
Q 3669 2231 3669 1497 
Q 3669 778 3244 343 
Q 2819 -91 2113 -91 
Q 1303 -91 875 529 
Q 447 1150 447 2328 
Q 447 3434 972 4092 
Q 1497 4750 2381 4750 
Q 2619 4750 2861 4703 
Q 3103 4656 3366 4563 
z
" transform="scale(0.015625)"/>
       </defs>
       <use xlink:href="#DejaVuSans-32"/>
       <use xlink:href="#DejaVuSans-30" x="63.623047"/>
       <use xlink:href="#DejaVuSans-32" x="127.246094"/>
       <use xlink:href="#DejaVuSans-32" x="190.869141"/>
       <use xlink:href="#DejaVuSans-2d" x="254.492188"/>
       <use xlink:href="#DejaVuSans-30" x="290.576172"/>
       <use xlink:href="#DejaVuSans-34" x="354.199219"/>
       <use xlink:href="#DejaVuSans-2d" x="417.822266"/>
       <use xlink:href="#DejaVuSans-32" x="453.90625"/>
       <use xlink:href="#DejaVuSans-36" x="517.529297"/>
      </g>
     </g>
    </g>
    <g id="xtick_4">
     <g id="line2d_4">
      <g>
       <use xlink:href="#m9d399d0e2c" x="274.557768" y="395.28" style="stroke: #000000; stroke-width: 0.8"/>
      </g>
     </g>
     <g id="text_4">
      <!-- 2022-05-24 -->
      <g transform="translate(189.42874 495.213718) rotate(-45) scale(0.2 -0.2)">
       <defs>
        <path id="DejaVuSans-35" d="M 691 4666 
L 3169 4666 
L 3169 4134 
L 1269 4134 
L 1269 2991 
Q 1406 3038 1543 3061 
Q 1681 3084 1819 3084 
Q 2600 3084 3056 2656 
Q 3513 2228 3513 1497 
Q 3513 744 3044 326 
Q 2575 -91 1722 -91 
Q 1428 -91 1123 -41 
Q 819 9 494 109 
L 494 744 
Q 775 591 1075 516 
Q 1375 441 1709 441 
Q 2250 441 2565 725 
Q 2881 1009 2881 1497 
Q 2881 1984 2565 2268 
Q 2250 2553 1709 2553 
Q 1456 2553 1204 2497 
Q 953 2441 691 2322 
L 691 4666 
z
" transform="scale(0.015625)"/>
       </defs>
       <use xlink:href="#DejaVuSans-32"/>
       <use xlink:href="#DejaVuSans-30" x="63.623047"/>
       <use xlink:href="#DejaVuSans-32" x="127.246094"/>
       <use xlink:href="#DejaVuSans-32" x="190.869141"/>
       <use xlink:href="#DejaVuSans-2d" x="254.492188"/>
       <use xlink:href="#DejaVuSans-30" x="290.576172"/>
       <use xlink:href="#DejaVuSans-35" x="354.199219"/>
       <use xlink:href="#DejaVuSans-2d" x="417.822266"/>
       <use xlink:href="#DejaVuSans-32" x="453.90625"/>
       <use xlink:href="#DejaVuSans-34" x="517.529297"/>
      </g>
     </g>
    </g>
    <g id="xtick_5">
     <g id="line2d_5">
      <g>
       <use xlink:href="#m9d399d0e2c" x="331.718743" y="395.28" style="stroke: #000000; stroke-width: 0.8"/>
      </g>
     </g>
     <g id="text_5">
      <!-- 2022-06-21 -->
      <g transform="translate(246.589716 495.213718) rotate(-45) scale(0.2 -0.2)">
       <use xlink:href="#DejaVuSans-32"/>
       <use xlink:href="#DejaVuSans-30" x="63.623047"/>
       <use xlink:href="#DejaVuSans-32" x="127.246094"/>
       <use xlink:href="#DejaVuSans-32" x="190.869141"/>
       <use xlink:href="#DejaVuSans-2d" x="254.492188"/>
       <use xlink:href="#DejaVuSans-30" x="290.576172"/>
       <use xlink:href="#DejaVuSans-36" x="354.199219"/>
       <use xlink:href="#DejaVuSans-2d" x="417.822266"/>
       <use xlink:href="#DejaVuSans-32" x="453.90625"/>
       <use xlink:href="#DejaVuSans-31" x="517.529297"/>
      </g>
     </g>
    </g>
    <g id="xtick_6">
     <g id="line2d_6">
      <g>
       <use xlink:href="#m9d399d0e2c" x="388.879719" y="395.28" style="stroke: #000000; stroke-width: 0.8"/>
      </g>
     </g>
     <g id="text_6">
      <!-- 2022-07-19 -->
      <g transform="translate(303.750691 495.213718) rotate(-45) scale(0.2 -0.2)">
       <defs>
        <path id="DejaVuSans-37" d="M 525 4666 
L 3525 4666 
L 3525 4397 
L 1831 0 
L 1172 0 
L 2766 4134 
L 525 4134 
L 525 4666 
z
" transform="scale(0.015625)"/>
       </defs>
       <use xlink:href="#DejaVuSans-32"/>
       <use xlink:href="#DejaVuSans-30" x="63.623047"/>
       <use xlink:href="#DejaVuSans-32" x="127.246094"/>
       <use xlink:href="#DejaVuSans-32" x="190.869141"/>
       <use xlink:href="#DejaVuSans-2d" x="254.492188"/>
       <use xlink:href="#DejaVuSans-30" x="290.576172"/>
       <use xlink:href="#DejaVuSans-37" x="354.199219"/>
       <use xlink:href="#DejaVuSans-2d" x="417.822266"/>
       <use xlink:href="#DejaVuSans-31" x="453.90625"/>
       <use xlink:href="#DejaVuSans-39" x="517.529297"/>
      </g>
     </g>
    </g>
    <g id="xtick_7">
     <g id="line2d_7">
      <g>
       <use xlink:href="#m9d399d0e2c" x="446.040694" y="395.28" style="stroke: #000000; stroke-width: 0.8"/>
      </g>
     </g>
     <g id="text_7">
      <!-- 2022-08-16 -->
      <g transform="translate(360.911667 495.213718) rotate(-45) scale(0.2 -0.2)">
       <defs>
        <path id="DejaVuSans-38" d="M 2034 2216 
Q 1584 2216 1326 1975 
Q 1069 1734 1069 1313 
Q 1069 891 1326 650 
Q 1584 409 2034 409 
Q 2484 409 2743 651 
Q 3003 894 3003 1313 
Q 3003 1734 2745 1975 
Q 2488 2216 2034 2216 
z
M 1403 2484 
Q 997 2584 770 2862 
Q 544 3141 544 3541 
Q 544 4100 942 4425 
Q 1341 4750 2034 4750 
Q 2731 4750 3128 4425 
Q 3525 4100 3525 3541 
Q 3525 3141 3298 2862 
Q 3072 2584 2669 2484 
Q 3125 2378 3379 2068 
Q 3634 1759 3634 1313 
Q 3634 634 3220 271 
Q 2806 -91 2034 -91 
Q 1263 -91 848 271 
Q 434 634 434 1313 
Q 434 1759 690 2068 
Q 947 2378 1403 2484 
z
M 1172 3481 
Q 1172 3119 1398 2916 
Q 1625 2713 2034 2713 
Q 2441 2713 2670 2916 
Q 2900 3119 2900 3481 
Q 2900 3844 2670 4047 
Q 2441 4250 2034 4250 
Q 1625 4250 1398 4047 
Q 1172 3844 1172 3481 
z
" transform="scale(0.015625)"/>
       </defs>
       <use xlink:href="#DejaVuSans-32"/>
       <use xlink:href="#DejaVuSans-30" x="63.623047"/>
       <use xlink:href="#DejaVuSans-32" x="127.246094"/>
       <use xlink:href="#DejaVuSans-32" x="190.869141"/>
       <use xlink:href="#DejaVuSans-2d" x="254.492188"/>
       <use xlink:href="#DejaVuSans-30" x="290.576172"/>
       <use xlink:href="#DejaVuSans-38" x="354.199219"/>
       <use xlink:href="#DejaVuSans-2d" x="417.822266"/>
       <use xlink:href="#DejaVuSans-31" x="453.90625"/>
       <use xlink:href="#DejaVuSans-36" x="517.529297"/>
      </g>
     </g>
    </g>
    <g id="xtick_8">
     <g id="line2d_8">
      <g>
       <use xlink:href="#m9d399d0e2c" x="503.20167" y="395.28" style="stroke: #000000; stroke-width: 0.8"/>
      </g>
     </g>
     <g id="text_8">
      <!-- 2022-09-13 -->
      <g transform="translate(418.072643 495.213718) rotate(-45) scale(0.2 -0.2)">
       <use xlink:href="#DejaVuSans-32"/>
       <use xlink:href="#DejaVuSans-30" x="63.623047"/>
       <use xlink:href="#DejaVuSans-32" x="127.246094"/>
       <use xlink:href="#DejaVuSans-32" x="190.869141"/>
       <use xlink:href="#DejaVuSans-2d" x="254.492188"/>
       <use xlink:href="#DejaVuSans-30" x="290.576172"/>
       <use xlink:href="#DejaVuSans-39" x="354.199219"/>
       <use xlink:href="#DejaVuSans-2d" x="417.822266"/>
       <use xlink:href="#DejaVuSans-31" x="453.90625"/>
       <use xlink:href="#DejaVuSans-33" x="517.529297"/>
      </g>
     </g>
    </g>
    <g id="xtick_9">
     <g id="line2d_9">
      <g>
       <use xlink:href="#m9d399d0e2c" x="560.362646" y="395.28" style="stroke: #000000; stroke-width: 0.8"/>
      </g>
     </g>
     <g id="text_9">
      <!-- 2022-10-11 -->
      <g transform="translate(475.233618 495.213718) rotate(-45) scale(0.2 -0.2)">
       <use xlink:href="#DejaVuSans-32"/>
       <use xlink:href="#DejaVuSans-30" x="63.623047"/>
       <use xlink:href="#DejaVuSans-32" x="127.246094"/>
       <use xlink:href="#DejaVuSans-32" x="190.869141"/>
       <use xlink:href="#DejaVuSans-2d" x="254.492188"/>
       <use xlink:href="#DejaVuSans-31" x="290.576172"/>
       <use xlink:href="#DejaVuSans-30" x="354.199219"/>
       <use xlink:href="#DejaVuSans-2d" x="417.822266"/>
       <use xlink:href="#DejaVuSans-31" x="453.90625"/>
       <use xlink:href="#DejaVuSans-31" x="517.529297"/>
      </g>
     </g>
    </g>
    <g id="xtick_10">
     <g id="line2d_10">
      <g>
       <use xlink:href="#m9d399d0e2c" x="617.523621" y="395.28" style="stroke: #000000; stroke-width: 0.8"/>
      </g>
     </g>
     <g id="text_10">
      <!-- 2022-11-08 -->
      <g transform="translate(532.394594 495.213718) rotate(-45) scale(0.2 -0.2)">
       <use xlink:href="#DejaVuSans-32"/>
       <use xlink:href="#DejaVuSans-30" x="63.623047"/>
       <use xlink:href="#DejaVuSans-32" x="127.246094"/>
       <use xlink:href="#DejaVuSans-32" x="190.869141"/>
       <use xlink:href="#DejaVuSans-2d" x="254.492188"/>
       <use xlink:href="#DejaVuSans-31" x="290.576172"/>
       <use xlink:href="#DejaVuSans-31" x="354.199219"/>
       <use xlink:href="#DejaVuSans-2d" x="417.822266"/>
       <use xlink:href="#DejaVuSans-30" x="453.90625"/>
       <use xlink:href="#DejaVuSans-38" x="517.529297"/>
      </g>
     </g>
    </g>
    <g id="xtick_11">
     <g id="line2d_11">
      <g>
       <use xlink:href="#m9d399d0e2c" x="674.684597" y="395.28" style="stroke: #000000; stroke-width: 0.8"/>
      </g>
     </g>
     <g id="text_11">
      <!-- 2022-12-06 -->
      <g transform="translate(589.555569 495.213718) rotate(-45) scale(0.2 -0.2)">
       <use xlink:href="#DejaVuSans-32"/>
       <use xlink:href="#DejaVuSans-30" x="63.623047"/>
       <use xlink:href="#DejaVuSans-32" x="127.246094"/>
       <use xlink:href="#DejaVuSans-32" x="190.869141"/>
       <use xlink:href="#DejaVuSans-2d" x="254.492188"/>
       <use xlink:href="#DejaVuSans-31" x="290.576172"/>
       <use xlink:href="#DejaVuSans-32" x="354.199219"/>
       <use xlink:href="#DejaVuSans-2d" x="417.822266"/>
       <use xlink:href="#DejaVuSans-30" x="453.90625"/>
       <use xlink:href="#DejaVuSans-36" x="517.529297"/>
      </g>
     </g>
    </g>
    <g id="xtick_12">
     <g id="line2d_12">
      <g>
       <use xlink:href="#m9d399d0e2c" x="731.845572" y="395.28" style="stroke: #000000; stroke-width: 0.8"/>
      </g>
     </g>
     <g id="text_12">
      <!-- 2023-01-03 -->
      <g transform="translate(646.716545 495.213718) rotate(-45) scale(0.2 -0.2)">
       <use xlink:href="#DejaVuSans-32"/>
       <use xlink:href="#DejaVuSans-30" x="63.623047"/>
       <use xlink:href="#DejaVuSans-32" x="127.246094"/>
       <use xlink:href="#DejaVuSans-33" x="190.869141"/>
       <use xlink:href="#DejaVuSans-2d" x="254.492188"/>
       <use xlink:href="#DejaVuSans-30" x="290.576172"/>
       <use xlink:href="#DejaVuSans-31" x="354.199219"/>
       <use xlink:href="#DejaVuSans-2d" x="417.822266"/>
       <use xlink:href="#DejaVuSans-30" x="453.90625"/>
       <use xlink:href="#DejaVuSans-33" x="517.529297"/>
      </g>
     </g>
    </g>
    <g id="xtick_13">
     <g id="line2d_13">
      <g>
       <use xlink:href="#m9d399d0e2c" x="789.006548" y="395.28" style="stroke: #000000; stroke-width: 0.8"/>
      </g>
     </g>
     <g id="text_13">
      <!-- 2023-01-31 -->
      <g transform="translate(703.877521 495.213718) rotate(-45) scale(0.2 -0.2)">
       <use xlink:href="#DejaVuSans-32"/>
       <use xlink:href="#DejaVuSans-30" x="63.623047"/>
       <use xlink:href="#DejaVuSans-32" x="127.246094"/>
       <use xlink:href="#DejaVuSans-33" x="190.869141"/>
       <use xlink:href="#DejaVuSans-2d" x="254.492188"/>
       <use xlink:href="#DejaVuSans-30" x="290.576172"/>
       <use xlink:href="#DejaVuSans-31" x="354.199219"/>
       <use xlink:href="#DejaVuSans-2d" x="417.822266"/>
       <use xlink:href="#DejaVuSans-33" x="453.90625"/>
       <use xlink:href="#DejaVuSans-31" x="517.529297"/>
      </g>
     </g>
    </g>
    <g id="xtick_14">
     <g id="line2d_14">
      <g>
       <use xlink:href="#m9d399d0e2c" x="846.167524" y="395.28" style="stroke: #000000; stroke-width: 0.8"/>
      </g>
     </g>
     <g id="text_14">
      <!-- 2023-02-28 -->
      <g transform="translate(761.038496 495.213718) rotate(-45) scale(0.2 -0.2)">
       <use xlink:href="#DejaVuSans-32"/>
       <use xlink:href="#DejaVuSans-30" x="63.623047"/>
       <use xlink:href="#DejaVuSans-32" x="127.246094"/>
       <use xlink:href="#DejaVuSans-33" x="190.869141"/>
       <use xlink:href="#DejaVuSans-2d" x="254.492188"/>
       <use xlink:href="#DejaVuSans-30" x="290.576172"/>
       <use xlink:href="#DejaVuSans-32" x="354.199219"/>
       <use xlink:href="#DejaVuSans-2d" x="417.822266"/>
       <use xlink:href="#DejaVuSans-32" x="453.90625"/>
       <use xlink:href="#DejaVuSans-38" x="517.529297"/>
      </g>
     </g>
    </g>
    <g id="xtick_15">
     <g id="line2d_15">
      <g>
       <use xlink:href="#m9d399d0e2c" x="903.328499" y="395.28" style="stroke: #000000; stroke-width: 0.8"/>
      </g>
     </g>
     <g id="text_15">
      <!-- 2023-03-28 -->
      <g transform="translate(818.199472 495.213718) rotate(-45) scale(0.2 -0.2)">
       <use xlink:href="#DejaVuSans-32"/>
       <use xlink:href="#DejaVuSans-30" x="63.623047"/>
       <use xlink:href="#DejaVuSans-32" x="127.246094"/>
       <use xlink:href="#DejaVuSans-33" x="190.869141"/>
       <use xlink:href="#DejaVuSans-2d" x="254.492188"/>
       <use xlink:href="#DejaVuSans-30" x="290.576172"/>
       <use xlink:href="#DejaVuSans-33" x="354.199219"/>
       <use xlink:href="#DejaVuSans-2d" x="417.822266"/>
       <use xlink:href="#DejaVuSans-32" x="453.90625"/>
       <use xlink:href="#DejaVuSans-38" x="517.529297"/>
      </g>
     </g>
    </g>
    <g id="xtick_16">
     <g id="line2d_16">
      <g>
       <use xlink:href="#m9d399d0e2c" x="940.074841" y="395.28" style="stroke: #000000; stroke-width: 0.8"/>
      </g>
     </g>
     <g id="text_16">
      <!-- 2023-04-15 -->
      <g transform="translate(854.945813 495.213718) rotate(-45) scale(0.2 -0.2)">
       <use xlink:href="#DejaVuSans-32"/>
       <use xlink:href="#DejaVuSans-30" x="63.623047"/>
       <use xlink:href="#DejaVuSans-32" x="127.246094"/>
       <use xlink:href="#DejaVuSans-33" x="190.869141"/>
       <use xlink:href="#DejaVuSans-2d" x="254.492188"/>
       <use xlink:href="#DejaVuSans-30" x="290.576172"/>
       <use xlink:href="#DejaVuSans-34" x="354.199219"/>
       <use xlink:href="#DejaVuSans-2d" x="417.822266"/>
       <use xlink:href="#DejaVuSans-31" x="453.90625"/>
       <use xlink:href="#DejaVuSans-35" x="517.529297"/>
      </g>
     </g>
    </g>
   </g>
   <g id="matplotlib.axis_2">
    <g id="ytick_1">
     <g id="line2d_17">
      <defs>
       <path id="m8435090b8f" d="M 0 0 
L -3.5 0 
" style="stroke: #000000; stroke-width: 0.8"/>
      </defs>
      <g>
       <use xlink:href="#m8435090b8f" x="103.074841" y="321.565967" style="stroke: #000000; stroke-width: 0.8"/>
      </g>
     </g>
     <g id="text_17">
      <!-- 0.00 -->
      <g transform="translate(51.543591 329.164404) scale(0.2 -0.2)">
       <defs>
        <path id="DejaVuSans-2e" d="M 684 794 
L 1344 794 
L 1344 0 
L 684 0 
L 684 794 
z
" transform="scale(0.015625)"/>
       </defs>
       <use xlink:href="#DejaVuSans-30"/>
       <use xlink:href="#DejaVuSans-2e" x="63.623047"/>
       <use xlink:href="#DejaVuSans-30" x="95.410156"/>
       <use xlink:href="#DejaVuSans-30" x="159.033203"/>
      </g>
     </g>
    </g>
    <g id="ytick_2">
     <g id="line2d_18">
      <g>
       <use xlink:href="#m8435090b8f" x="103.074841" y="236.002574" style="stroke: #000000; stroke-width: 0.8"/>
      </g>
     </g>
     <g id="text_18">
      <!-- 0.05 -->
      <g transform="translate(51.543591 243.601012) scale(0.2 -0.2)">
       <use xlink:href="#DejaVuSans-30"/>
       <use xlink:href="#DejaVuSans-2e" x="63.623047"/>
       <use xlink:href="#DejaVuSans-30" x="95.410156"/>
       <use xlink:href="#DejaVuSans-35" x="159.033203"/>
      </g>
     </g>
    </g>
    <g id="ytick_3">
     <g id="line2d_19">
      <g>
       <use xlink:href="#m8435090b8f" x="103.074841" y="150.439182" style="stroke: #000000; stroke-width: 0.8"/>
      </g>
     </g>
     <g id="text_19">
      <!-- 0.10 -->
      <g transform="translate(51.543591 158.03762) scale(0.2 -0.2)">
       <use xlink:href="#DejaVuSans-30"/>
       <use xlink:href="#DejaVuSans-2e" x="63.623047"/>
       <use xlink:href="#DejaVuSans-31" x="95.410156"/>
       <use xlink:href="#DejaVuSans-30" x="159.033203"/>
      </g>
     </g>
    </g>
    <g id="ytick_4">
     <g id="line2d_20">
      <g>
       <use xlink:href="#m8435090b8f" x="103.074841" y="64.87579" style="stroke: #000000; stroke-width: 0.8"/>
      </g>
     </g>
     <g id="text_20">
      <!-- 0.15 -->
      <g transform="translate(51.543591 72.474227) scale(0.2 -0.2)">
       <use xlink:href="#DejaVuSans-30"/>
       <use xlink:href="#DejaVuSans-2e" x="63.623047"/>
       <use xlink:href="#DejaVuSans-31" x="95.410156"/>
       <use xlink:href="#DejaVuSans-35" x="159.033203"/>
      </g>
     </g>
    </g>
   </g>
   <g id="line2d_21">
    <path d="M 807.379719 237.467772 
L 811.462646 237.467772 
L 813.504109 181.291484 
L 815.545572 138.492984 
L 817.587036 110.34055 
L 819.628499 110.34055 
L 821.669963 68.013743 
L 823.711426 36.075039 
L 825.752889 36.075039 
L 827.794353 24.84 
L 829.835816 100.991996 
L 831.87728 147.55612 
L 835.960207 147.55612 
L 838.00167 101.335749 
L 840.043133 101.335749 
L 842.084597 81.794883 
L 844.12606 138.478014 
L 846.167524 191.806177 
L 848.208987 219.374779 
L 850.25045 207.667573 
L 852.291914 267.742421 
L 854.333377 321.424632 
L 856.374841 297.619083 
L 858.416304 255.881155 
L 860.457768 246.641654 
L 862.499231 272.029127 
L 864.540694 236.464189 
L 868.623621 236.464189 
L 870.665085 196.216812 
L 872.706548 224.146253 
L 874.748011 183.450178 
L 876.789475 167.434775 
L 878.830938 171.85167 
L 880.872402 187.772306 
L 882.913865 170.024266 
L 884.955328 114.46895 
L 886.996792 137.767063 
L 889.038255 189.020092 
L 891.079719 189.020092 
L 893.121182 177.034283 
L 895.162646 224.643408 
L 897.204109 224.643408 
L 899.245572 218.254801 
L 901.287036 270.539695 
L 903.328499 248.662512 
L 905.369963 309.133656 
L 907.411426 300.896986 
L 909.452889 297.063922 
L 911.494353 262.833115 
L 913.535816 241.880393 
L 915.57728 240.723954 
L 917.618743 244.412197 
L 919.660207 244.17138 
L 921.70167 244.17138 
L 923.743133 198.827446 
L 925.784597 186.783259 
L 927.82606 186.783259 
L 929.867524 191.844262 
L 931.908987 176.964432 
L 933.95045 189.258894 
L 935.991914 166.42437 
L 938.033377 185.900726 
L 940.074841 185.900726 
L 940.074841 185.900726 
" clip-path="url(#pd647ff82d3)" style="fill: none; stroke: #ffa500; stroke-width: 1.5; stroke-linecap: square"/>
   </g>
   <g id="line2d_22">
    <path d="M 103.074841 321.565967 
L 948.274841 321.565967 
" clip-path="url(#pd647ff82d3)" style="fill: none; stroke-dasharray: 7.4,3.2; stroke-dashoffset: 0; stroke: #000000; stroke-width: 2"/>
   </g>
   <g id="patch_3">
    <path d="M 103.074841 395.28 
L 103.074841 7.2 
" style="fill: none; stroke: #000000; stroke-width: 0.8; stroke-linejoin: miter; stroke-linecap: square"/>
   </g>
   <g id="patch_4">
    <path d="M 940.074841 395.28 
L 940.074841 7.2 
" style="fill: none; stroke: #000000; stroke-width: 0.8; stroke-linejoin: miter; stroke-linecap: square"/>
   </g>
   <g id="patch_5">
    <path d="M 103.074841 395.28 
L 940.074841 395.28 
" style="fill: none; stroke: #000000; stroke-width: 0.8; stroke-linejoin: miter; stroke-linecap: square"/>
   </g>
   <g id="patch_6">
    <path d="M 103.074841 7.2 
L 940.074841 7.2 
" style="fill: none; stroke: #000000; stroke-width: 0.8; stroke-linejoin: miter; stroke-linecap: square"/>
   </g>
  </g>
 </g>
 <defs>
  <clipPath id="pd647ff82d3">
   <rect x="103.074841" y="7.2" width="837" height="388.08"/>
  </clipPath>
 </defs>
</svg>
