<?xml version="1.0" encoding="utf-8" standalone="no"?>
<!DOCTYPE svg PUBLIC "-//W3C//DTD SVG 1.1//EN"
  "http://www.w3.org/Graphics/SVG/1.1/DTD/svg11.dtd">
<svg xmlns:xlink="http://www.w3.org/1999/xlink" width="947.274841pt" height="505.354841pt" viewBox="0 0 947.274841 505.354841" xmlns="http://www.w3.org/2000/svg" version="1.1">
 <metadata>
  <rdf:RDF xmlns:dc="http://purl.org/dc/elements/1.1/" xmlns:cc="http://creativecommons.org/ns#" xmlns:rdf="http://www.w3.org/1999/02/22-rdf-syntax-ns#">
   <cc:Work>
    <dc:type rdf:resource="http://purl.org/dc/dcmitype/StillImage"/>
    <dc:date>2023-11-15T18:16:06.439267</dc:date>
    <dc:format>image/svg+xml</dc:format>
    <dc:creator>
     <cc:Agent>
      <dc:title>Matplotlib v3.7.2, https://matplotlib.org/</dc:title>
     </cc:Agent>
    </dc:creator>
   </cc:Work>
  </rdf:RDF>
 </metadata>
 <defs>
  <style type="text/css">*{stroke-linejoin: round; stroke-linecap: butt}</style>
 </defs>
 <g id="figure_1">
  <g id="patch_1">
   <path d="M 0 505.354841 
L 947.274841 505.354841 
L 947.274841 -0 
L 0 -0 
z
" style="fill: #ffffff"/>
  </g>
  <g id="axes_1">
   <g id="patch_2">
    <path d="M 103.074841 395.28 
L 940.074841 395.28 
L 940.074841 7.2 
L 103.074841 7.2 
z
" style="fill: #ffffff"/>
   </g>
   <g id="PolyCollection_1">
    <path d="M -4315.31939 210.242459 
L -4315.31939 210.253688 
L -4307.271313 210.194883 
L -4299.223236 210.144274 
L -4291.175159 210.079987 
L -4283.127082 210.037841 
L -4275.079005 209.990125 
L -4267.030929 209.935509 
L -4258.982852 209.881586 
L -4250.934775 209.831116 
L -4242.886698 209.787068 
L -4234.838621 209.735875 
L -4226.790544 209.682199 
L -4218.742467 209.630151 
L -4210.69439 209.565892 
L -4202.646313 209.51302 
L -4194.598236 209.450484 
L -4186.550159 209.397234 
L -4178.502082 209.324682 
L -4170.454005 209.265432 
L -4162.405929 209.208481 
L -4154.357852 209.140809 
L -4146.309775 209.074954 
L -4138.261698 209.010675 
L -4130.213621 208.932716 
L -4122.165544 208.864888 
L -4114.117467 208.785156 
L -4106.06939 208.70452 
L -4098.021313 208.615169 
L -4089.973236 208.52342 
L -4081.925159 208.433867 
L -4073.877082 208.3299 
L -4065.829005 208.212083 
L -4057.780929 208.10805 
L -4049.732852 207.989522 
L -4041.684775 207.8538 
L -4033.636698 207.72807 
L -4025.588621 207.580105 
L -4017.540544 207.430042 
L -4009.492467 207.275605 
L -4001.44439 207.112514 
L -3993.396313 206.931475 
L -3985.348236 206.738669 
L -3977.300159 206.53432 
L -3969.252082 206.337995 
L -3961.204005 206.106487 
L -3953.155929 205.88713 
L -3945.107852 205.653362 
L -3937.059775 205.419047 
L -3929.011698 205.166515 
L -3920.963621 204.892734 
L -3912.915544 204.640404 
L -3904.867467 204.358608 
L -3896.81939 204.066941 
L -3888.771313 203.781714 
L -3880.723236 203.499879 
L -3872.675159 203.193369 
L -3864.627082 202.883722 
L -3856.579005 202.574958 
L -3848.530929 202.253067 
L -3840.482852 201.927381 
L -3832.434775 201.602935 
L -3824.386698 201.267243 
L -3816.338621 200.93099 
L -3808.290544 200.600285 
L -3800.242467 200.25554 
L -3792.19439 199.885855 
L -3784.146313 199.528242 
L -3776.098236 199.171582 
L -3768.050159 198.820777 
L -3760.002082 198.454931 
L -3751.954005 198.09787 
L -3743.905929 197.734297 
L -3735.857852 197.407308 
L -3727.809775 197.019536 
L -3719.761698 196.685206 
L -3711.713621 196.317414 
L -3703.665544 195.967586 
L -3695.617467 195.599845 
L -3687.56939 195.276588 
L -3679.521313 194.903238 
L -3671.473236 194.552831 
L -3663.425159 194.2228 
L -3655.377082 193.869523 
L -3647.329005 193.536118 
L -3639.280929 193.186527 
L -3631.232852 192.829791 
L -3623.184775 192.491004 
L -3615.136698 192.160954 
L -3607.088621 191.804419 
L -3599.040544 191.461926 
L -3590.992467 191.112585 
L -3582.94439 190.773721 
L -3574.896313 190.442963 
L -3566.848236 190.102628 
L -3558.800159 189.758625 
L -3550.752082 189.449688 
L -3542.704005 189.098299 
L -3534.655929 188.76183 
L -3526.607852 188.430814 
L -3518.559775 188.099155 
L -3510.511698 187.768109 
L -3502.463621 187.43247 
L -3494.415544 187.112499 
L -3486.367467 186.77921 
L -3478.31939 186.437336 
L -3470.271313 186.09141 
L -3462.223236 185.741543 
L -3454.175159 185.414285 
L -3446.127082 185.053552 
L -3438.079005 184.668522 
L -3430.030929 184.307203 
L -3421.982852 183.9259 
L -3413.934775 183.538638 
L -3405.886698 183.129532 
L -3397.838621 182.713004 
L -3389.790544 182.326326 
L -3381.742467 181.884696 
L -3373.69439 181.465276 
L -3365.646313 181.013566 
L -3357.598236 180.59916 
L -3349.550159 180.11121 
L -3341.502082 179.633078 
L -3333.454005 179.16863 
L -3325.405929 178.696086 
L -3317.357852 178.208913 
L -3309.309775 177.699694 
L -3301.261698 177.222896 
L -3293.213621 176.676144 
L -3285.165544 176.196122 
L -3277.117467 175.633465 
L -3269.06939 175.0886 
L -3261.021313 174.556814 
L -3252.973236 174.047129 
L -3244.925159 173.45142 
L -3236.877082 172.914059 
L -3228.829005 172.229227 
L -3220.780929 171.641303 
L -3212.732852 171.09406 
L -3204.684775 170.4753 
L -3196.636698 169.840624 
L -3188.588621 169.108846 
L -3180.540544 168.423698 
L -3172.492467 167.853431 
L -3164.44439 166.947159 
L -3156.396313 166.221071 
L -3148.348236 165.479292 
L -3140.300159 164.709821 
L -3132.252082 163.833004 
L -3124.204005 163.009411 
L -3116.155929 162.389799 
L -3108.107852 161.598393 
L -3100.059775 160.294955 
L -3092.011698 159.200914 
L -3083.963621 158.395083 
L -3075.915544 157.276545 
L -3067.867467 156.350636 
L -3059.81939 155.545899 
L -3051.771313 154.320634 
L -3043.723236 152.925865 
L -3035.675159 151.975183 
L -3027.627082 151.370714 
L -3019.579005 150.207273 
L -3011.530929 149.692856 
L -3003.482852 149.045556 
L -2995.434775 147.87145 
L -2987.386698 147.984569 
L -2979.338621 148.490514 
L -2971.290544 149.539894 
L -2963.242467 148.396418 
L -2955.19439 150.709221 
L -2947.146313 151.23174 
L -2939.098236 148.147357 
L -2931.050159 149.032649 
L -2923.002082 150.410617 
L -2914.954005 149.608085 
L -2906.905929 149.446301 
L -2898.857852 155.327742 
L -2890.809775 163.682413 
L -2882.761698 167.832714 
L -2874.713621 158.749608 
L -2866.665544 163.399918 
L -2858.617467 169.491057 
L -2850.56939 169.11464 
L -2842.521313 181.517146 
L -2834.473236 179.789003 
L -2826.425159 175.954724 
L -2818.377082 166.50109 
L -2810.329005 175.32753 
L -2802.280929 180.618341 
L -2794.232852 178.355256 
L -2786.184775 179.706056 
L -2778.136698 184.693058 
L -2770.088621 183.979156 
L -2762.040544 179.601167 
L -2753.992467 185.001971 
L -2745.94439 186.032428 
L -2737.896313 184.036306 
L -2729.848236 187.441491 
L -2721.800159 188.65008 
L -2713.752082 188.252785 
L -2705.704005 187.145872 
L -2697.655929 188.222827 
L -2689.607852 187.002741 
L -2681.559775 187.042014 
L -2673.511698 188.062901 
L -2665.463621 186.98249 
L -2657.415544 187.451029 
L -2649.367467 187.418555 
L -2641.31939 186.531077 
L -2633.271313 186.770377 
L -2625.223236 185.517711 
L -2617.175159 185.533668 
L -2609.127082 185.801555 
L -2601.079005 185.758145 
L -2593.030929 185.116678 
L -2584.982852 184.55941 
L -2576.934775 184.37467 
L -2568.886698 183.767079 
L -2560.838621 183.622091 
L -2552.790544 183.462711 
L -2544.742467 182.578648 
L -2536.69439 182.918714 
L -2528.646313 182.321642 
L -2520.598236 182.038515 
L -2512.550159 182.010406 
L -2504.502082 181.431283 
L -2496.454005 181.260411 
L -2488.405929 181.410825 
L -2480.357852 181.683052 
L -2472.309775 180.782389 
L -2464.261698 180.615273 
L -2456.213621 180.310637 
L -2448.165544 181.824708 
L -2440.117467 181.864622 
L -2432.06939 182.4667 
L -2424.021313 181.03259 
L -2415.973236 180.153645 
L -2407.925159 180.454395 
L -2399.877082 181.483867 
L -2391.829005 181.688161 
L -2383.780929 179.966242 
L -2375.732852 181.496666 
L -2367.684775 181.178165 
L -2359.636698 180.991456 
L -2351.588621 180.240334 
L -2343.540544 180.968902 
L -2335.492467 180.648642 
L -2327.44439 181.102156 
L -2319.396313 180.662977 
L -2311.348236 180.337719 
L -2303.300159 179.681619 
L -2295.252082 179.420501 
L -2287.204005 179.194106 
L -2279.155929 178.850512 
L -2271.107852 178.866141 
L -2263.059775 178.572179 
L -2255.011698 178.255466 
L -2246.963621 177.210072 
L -2238.915544 176.448266 
L -2230.867467 176.182401 
L -2222.81939 175.3429 
L -2214.771313 175.295172 
L -2206.723236 174.593745 
L -2198.675159 173.491327 
L -2190.627082 172.599795 
L -2182.579005 171.967321 
L -2174.530929 170.824202 
L -2166.482852 170.192758 
L -2158.434775 169.201444 
L -2150.386698 168.347608 
L -2142.338621 167.23339 
L -2134.290544 166.346786 
L -2126.242467 165.082249 
L -2118.19439 164.125364 
L -2110.146313 163.075212 
L -2102.098236 161.618956 
L -2094.050159 160.27772 
L -2086.002082 159.35536 
L -2077.954005 158.266411 
L -2069.905929 156.908758 
L -2061.857852 155.878587 
L -2053.809775 154.583635 
L -2045.761698 152.629196 
L -2037.713621 151.903218 
L -2029.665544 150.277581 
L -2021.617467 149.075847 
L -2013.56939 147.758389 
L -2005.521313 146.291288 
L -1997.473236 144.787603 
L -1989.425159 143.4406 
L -1981.377082 141.543357 
L -1973.329005 140.460401 
L -1965.280929 138.616436 
L -1957.232852 137.518589 
L -1949.184775 135.736304 
L -1941.136698 134.019284 
L -1933.088621 132.485734 
L -1925.040544 131.324159 
L -1916.992467 129.240479 
L -1908.94439 127.920539 
L -1900.896313 126.096078 
L -1892.848236 124.662804 
L -1884.800159 122.756863 
L -1876.752082 121.195023 
L -1868.704005 121.278453 
L -1860.655929 117.933936 
L -1852.607852 117.661885 
L -1844.559775 115.748645 
L -1836.511698 114.520744 
L -1828.463621 113.018592 
L -1820.415544 111.402126 
L -1812.367467 109.966421 
L -1804.31939 108.576265 
L -1796.271313 107.283067 
L -1788.223236 105.974474 
L -1780.175159 107.404882 
L -1772.127082 103.080536 
L -1764.079005 102.166506 
L -1756.030929 106.108574 
L -1747.982852 100.839222 
L -1739.934775 101.951138 
L -1731.886698 101.546173 
L -1723.838621 98.876703 
L -1715.790544 99.536128 
L -1707.742467 102.464866 
L -1699.69439 100.574301 
L -1691.646313 99.781604 
L -1683.598236 101.637657 
L -1675.550159 101.124363 
L -1667.502082 102.422855 
L -1659.454005 104.144994 
L -1651.405929 106.985312 
L -1643.357852 113.466654 
L -1635.309775 112.12863 
L -1627.261698 115.678978 
L -1619.213621 118.63597 
L -1611.165544 120.275247 
L -1603.117467 124.004351 
L -1595.06939 126.406106 
L -1587.021313 122.125171 
L -1578.973236 126.379326 
L -1570.925159 132.138754 
L -1562.877082 134.895818 
L -1554.829005 135.831287 
L -1546.780929 143.207676 
L -1538.732852 143.844677 
L -1530.684775 146.485932 
L -1522.636698 145.871019 
L -1514.588621 153.981612 
L -1506.540544 151.602718 
L -1498.492467 150.287622 
L -1490.44439 157.210933 
L -1482.396313 162.173196 
L -1474.348236 161.848346 
L -1466.300159 164.86415 
L -1458.252082 165.935134 
L -1450.204005 166.274295 
L -1442.155929 166.425443 
L -1434.107852 168.173799 
L -1426.059775 169.248121 
L -1418.011698 174.41079 
L -1409.963621 172.074977 
L -1401.915544 176.610701 
L -1393.867467 175.865946 
L -1385.81939 175.542516 
L -1377.771313 177.577257 
L -1369.723236 179.403444 
L -1361.675159 177.718995 
L -1353.627082 179.013133 
L -1345.579005 179.402729 
L -1337.530929 182.11714 
L -1329.482852 181.320194 
L -1321.434775 181.172326 
L -1313.386698 182.249726 
L -1305.338621 183.830978 
L -1297.290544 183.732399 
L -1289.242467 183.106436 
L -1281.19439 184.256467 
L -1273.146313 183.081726 
L -1265.098236 183.820927 
L -1257.050159 187.196615 
L -1249.002082 187.627039 
L -1240.954005 186.698726 
L -1232.905929 186.951902 
L -1224.857852 187.781545 
L -1216.809775 186.732787 
L -1208.761698 187.840481 
L -1200.713621 188.561175 
L -1192.665544 188.907602 
L -1184.617467 189.213034 
L -1176.56939 188.90481 
L -1168.521313 190.281722 
L -1160.473236 190.371791 
L -1152.425159 191.026499 
L -1144.377082 191.393831 
L -1136.329005 192.300989 
L -1128.280929 192.243333 
L -1120.232852 191.559941 
L -1112.184775 192.21867 
L -1104.136698 191.773741 
L -1096.088621 190.838338 
L -1088.040544 192.777599 
L -1079.992467 191.214034 
L -1071.94439 192.89213 
L -1063.896313 193.201505 
L -1055.848236 194.114625 
L -1047.800159 193.349144 
L -1039.752082 193.938673 
L -1031.704005 194.467724 
L -1023.655929 193.339736 
L -1015.607852 194.469111 
L -1007.559775 194.947735 
L -999.511698 195.542165 
L -991.463621 195.357543 
L -983.415544 196.417466 
L -975.367467 196.180983 
L -967.31939 196.02186 
L -959.271313 195.355565 
L -951.223236 195.609441 
L -943.175159 195.972743 
L -935.127082 195.707528 
L -927.079005 196.510434 
L -919.030929 196.750624 
L -910.982852 196.62682 
L -902.934775 197.35675 
L -894.886698 197.124621 
L -886.838621 198.552559 
L -878.790544 198.610239 
L -870.742467 199.332254 
L -862.69439 198.874352 
L -854.646313 198.010068 
L -846.598236 200.010083 
L -838.550159 200.646895 
L -830.502082 200.812368 
L -822.454005 200.963174 
L -814.405929 200.544794 
L -806.357852 200.983199 
L -798.309775 201.082012 
L -790.261698 201.806997 
L -782.213621 202.226492 
L -774.165544 201.840841 
L -766.117467 201.016401 
L -758.06939 203.559872 
L -750.021313 203.792854 
L -741.973236 203.195486 
L -733.925159 204.649699 
L -725.877082 203.069534 
L -717.829005 203.991927 
L -709.780929 204.79194 
L -701.732852 203.98221 
L -693.684775 207.189706 
L -685.636698 205.332612 
L -677.588621 204.760066 
L -669.540544 207.09342 
L -661.492467 208.238871 
L -653.44439 208.109396 
L -645.396313 209.451064 
L -637.348236 209.002 
L -629.300159 211.961331 
L -621.252082 211.559745 
L -613.204005 212.753436 
L -605.155929 211.970029 
L -597.107852 211.397348 
L -589.059775 213.919438 
L -581.011698 217.734032 
L -572.963621 214.917885 
L -564.915544 215.859089 
L -556.867467 215.323421 
L -548.81939 216.610759 
L -540.771313 217.154166 
L -532.723236 216.993431 
L -524.675159 217.375633 
L -516.627082 219.515666 
L -508.579005 219.351455 
L -500.530929 221.267431 
L -492.482852 222.031637 
L -484.434775 218.597945 
L -476.386698 220.737541 
L -468.338621 221.319379 
L -460.290544 221.969319 
L -452.242467 222.62682 
L -444.19439 225.538687 
L -436.146313 226.857402 
L -428.098236 227.019791 
L -420.050159 230.063609 
L -412.002082 234.936611 
L -403.954005 229.581242 
L -395.905929 229.739219 
L -387.857852 230.076877 
L -379.809775 232.0781 
L -371.761698 232.658361 
L -363.713621 232.797764 
L -355.665544 237.291439 
L -347.617467 238.973553 
L -339.56939 234.317021 
L -331.521313 238.848852 
L -323.473236 236.994767 
L -315.425159 235.879141 
L -307.377082 241.563914 
L -299.329005 240.812866 
L -291.280929 244.818712 
L -283.232852 243.664153 
L -275.184775 241.640323 
L -267.136698 244.281956 
L -259.088621 244.598353 
L -251.040544 247.288843 
L -242.992467 246.29637 
L -234.94439 250.472442 
L -226.896313 247.998337 
L -218.848236 250.484604 
L -210.800159 250.194484 
L -202.752082 252.722833 
L -194.704005 249.243352 
L -186.655929 253.898698 
L -178.607852 253.906647 
L -170.559775 257.224984 
L -162.511698 258.642123 
L -154.463621 259.586092 
L -146.415544 258.97217 
L -138.367467 261.140604 
L -130.31939 263.485946 
L -122.271313 261.970194 
L -114.223236 261.721546 
L -106.175159 263.510721 
L -98.127082 265.51725 
L -90.079005 263.123008 
L -82.030929 261.619358 
L -73.982852 268.194316 
L -65.934775 272.073306 
L -57.886698 265.210049 
L -49.838621 267.420613 
L -41.790544 268.976604 
L -33.742467 269.618926 
L -25.69439 273.205895 
L -17.646313 272.987242 
L -9.598236 271.98217 
L -1.550159 273.635593 
L 6.497918 274.532587 
L 14.545995 270.706888 
L 22.594071 272.59094 
L 30.642148 271.632646 
L 38.690225 277.626025 
L 46.738302 284.39478 
L 54.786379 283.447618 
L 62.834456 278.321034 
L 70.882533 277.939478 
L 78.93061 278.944671 
L 86.978687 278.731721 
L 95.026764 284.672794 
L 103.074841 279.137916 
L 111.122918 285.594942 
L 119.170995 291.324083 
L 127.219071 286.669994 
L 135.267148 295.294255 
L 143.315225 289.618397 
L 151.363302 295.560079 
L 159.411379 292.413869 
L 167.459456 294.614307 
L 175.507533 299.243933 
L 183.55561 299.524323 
L 191.603687 300.985135 
L 199.651764 301.23114 
L 207.699841 301.70431 
L 215.747918 290.485633 
L 223.795995 306.407611 
L 231.844071 312.65861 
L 239.892148 307.245673 
L 247.940225 310.785443 
L 255.988302 314.687876 
L 264.036379 310.16632 
L 272.084456 316.373246 
L 280.132533 321.179423 
L 288.18061 318.594343 
L 296.228687 321.447045 
L 304.276764 323.008464 
L 312.324841 324.046371 
L 320.372918 325.828108 
L 328.420995 319.171066 
L 336.469071 332.933565 
L 344.517148 333.379872 
L 352.565225 333.640285 
L 360.613302 325.164106 
L 368.661379 336.979379 
L 376.709456 343.455479 
L 384.757533 338.005295 
L 392.80561 338.238599 
L 400.853687 348.809997 
L 408.901764 329.732513 
L 416.949841 347.412856 
L 424.997918 334.91296 
L 433.045995 353.438607 
L 441.094071 346.216002 
L 449.142148 353.350545 
L 457.190225 355.486083 
L 465.238302 357.555395 
L 473.286379 358.520441 
L 481.334456 354.77997 
L 489.382533 355.594522 
L 497.43061 359.651163 
L 505.478687 364.355538 
L 513.526764 364.635005 
L 521.574841 364.208431 
L 529.622918 368.981819 
L 537.670995 369.009841 
L 545.719071 365.615892 
L 553.767148 365.163272 
L 561.815225 373.860031 
L 569.863302 374.5528 
L 577.911379 376.293749 
L 585.959456 371.849338 
L 594.007533 361.589415 
L 602.05561 372.45459 
L 610.103687 369.547065 
L 618.151764 372.265103 
L 626.199841 375.963641 
L 634.247918 370.795507 
L 642.295995 377.391282 
L 650.344071 371.853393 
L 658.392148 371.573525 
L 666.440225 372.048513 
L 674.488302 375.95137 
L 682.536379 375.429913 
L 690.584456 374.491776 
L 698.632533 370.166241 
L 706.68061 372.36472 
L 714.728687 373.96939 
L 722.776764 371.972494 
L 730.824841 375.090935 
L 738.872918 372.363405 
L 746.920995 374.354927 
L 754.969071 377.64 
L 763.017148 376.967195 
L 771.065225 373.432875 
L 779.113302 373.372158 
L 787.161379 372.588358 
L 795.209456 373.984133 
L 803.257533 373.773473 
L 811.30561 368.014608 
L 819.353687 372.248687 
L 827.401764 345.890425 
L 835.449841 371.884862 
L 843.497918 373.470236 
L 851.545995 369.439956 
L 859.594071 365.250627 
L 867.642148 372.70359 
L 875.690225 369.037455 
L 883.738302 362.779941 
L 891.786379 366.346063 
L 899.834456 366.186138 
L 907.882533 364.286727 
L 915.93061 367.649369 
L 923.978687 364.682941 
L 932.026764 365.777238 
L 940.074841 366.321373 
L 940.074841 214.100634 
L 940.074841 214.100634 
L 932.026764 217.405707 
L 923.978687 216.693329 
L 915.93061 218.426778 
L 907.882533 217.046079 
L 899.834456 218.412371 
L 891.786379 218.148074 
L 883.738302 219.231217 
L 875.690225 222.006785 
L 867.642148 222.908452 
L 859.594071 221.971113 
L 851.545995 222.940824 
L 843.497918 225.974837 
L 835.449841 225.038737 
L 827.401764 220.89149 
L 819.353687 226.938466 
L 811.30561 226.724631 
L 803.257533 228.726483 
L 795.209456 229.541238 
L 787.161379 229.789484 
L 779.113302 231.311602 
L 771.065225 232.025976 
L 763.017148 233.875117 
L 754.969071 234.905125 
L 746.920995 234.92237 
L 738.872918 235.018462 
L 730.824841 236.291132 
L 722.776764 235.752721 
L 714.728687 237.131952 
L 706.68061 237.682839 
L 698.632533 237.739155 
L 690.584456 240.258197 
L 682.536379 241.370961 
L 674.488302 242.844276 
L 666.440225 241.530208 
L 658.392148 242.539855 
L 650.344071 243.679215 
L 642.295995 246.341402 
L 634.247918 244.719903 
L 626.199841 247.517143 
L 618.151764 246.852112 
L 610.103687 246.735021 
L 602.05561 248.638791 
L 594.007533 245.950151 
L 585.959456 249.904908 
L 577.911379 252.856551 
L 569.863302 253.030147 
L 561.815225 253.459509 
L 553.767148 251.624104 
L 545.719071 252.154119 
L 537.670995 254.322868 
L 529.622918 254.976073 
L 521.574841 254.006341 
L 513.526764 254.841214 
L 505.478687 255.950611 
L 497.43061 253.866255 
L 489.382533 253.762222 
L 481.334456 254.44365 
L 473.286379 256.789056 
L 465.238302 257.169137 
L 457.190225 256.725512 
L 449.142148 256.614343 
L 441.094071 254.666498 
L 433.045995 258.261944 
L 424.997918 252.843755 
L 416.949841 257.881614 
L 408.901764 251.571541 
L 400.853687 259.712448 
L 392.80561 256.134572 
L 384.757533 256.468987 
L 376.709456 260.317808 
L 368.661379 257.953961 
L 360.613302 254.03386 
L 352.565225 258.464201 
L 344.517148 258.887701 
L 336.469071 259.429279 
L 328.420995 254.016059 
L 320.372918 259.535648 
L 312.324841 257.828223 
L 304.276764 257.740711 
L 296.228687 257.949783 
L 288.18061 257.791717 
L 280.132533 259.685991 
L 272.084456 258.244655 
L 264.036379 255.778784 
L 255.988302 258.018813 
L 247.940225 258.056913 
L 239.892148 255.921214 
L 231.844071 259.602054 
L 223.795995 257.110651 
L 215.747918 250.13381 
L 207.699841 256.616469 
L 199.651764 256.957276 
L 191.603687 257.381163 
L 183.55561 257.254972 
L 175.507533 258.033612 
L 167.459456 256.218403 
L 159.411379 255.587268 
L 151.363302 257.754109 
L 143.315225 255.887891 
L 135.267148 259.246663 
L 127.219071 255.317743 
L 119.170995 258.735915 
L 111.122918 255.79096 
L 103.074841 251.977434 
L 95.026764 256.585389 
L 86.978687 253.846831 
L 78.93061 254.12218 
L 70.882533 254.102043 
L 62.834456 254.891031 
L 54.786379 258.737444 
L 46.738302 259.812917 
L 38.690225 255.907773 
L 30.642148 252.762691 
L 22.594071 253.915357 
L 14.545995 252.962263 
L 6.497918 255.813841 
L -1.550159 255.858349 
L -9.598236 255.13407 
L -17.646313 256.371982 
L -25.69439 256.927118 
L -33.742467 254.850321 
L -41.790544 254.747156 
L -49.838621 254.250987 
L -57.886698 252.167046 
L -65.934775 257.907169 
L -73.982852 254.789499 
L -82.030929 247.004423 
L -90.079005 249.60568 
L -98.127082 251.896979 
L -106.175159 249.178892 
L -114.223236 246.891487 
L -122.271313 247.336167 
L -130.31939 249.786445 
L -138.367467 245.495238 
L -146.415544 243.467087 
L -154.463621 244.110636 
L -162.511698 241.142815 
L -170.559775 241.125563 
L -178.607852 235.926228 
L -186.655929 236.695836 
L -194.704005 230.454009 
L -202.752082 234.283907 
L -210.800159 231.29165 
L -218.848236 231.78938 
L -226.896313 229.469844 
L -234.94439 231.487212 
L -242.992467 225.810184 
L -251.040544 228.033759 
L -259.088621 224.146545 
L -267.136698 223.934113 
L -275.184775 220.690349 
L -283.232852 221.175638 
L -291.280929 223.954213 
L -299.329005 219.870866 
L -307.377082 219.981474 
L -315.425159 212.621058 
L -323.473236 214.982563 
L -331.521313 215.882285 
L -339.56939 210.128896 
L -347.617467 215.265387 
L -355.665544 215.196339 
L -363.713621 208.075798 
L -371.761698 207.629111 
L -379.809775 206.612371 
L -387.857852 203.7043 
L -395.905929 204.718057 
L -403.954005 203.524645 
L -412.002082 210.673109 
L -420.050159 204.787329 
L -428.098236 200.273116 
L -436.146313 199.741198 
L -444.19439 197.927436 
L -452.242467 194.828193 
L -460.290544 194.910759 
L -468.338621 192.578352 
L -476.386698 193.573402 
L -484.434775 190.359028 
L -492.482852 193.847533 
L -500.530929 193.574711 
L -508.579005 191.633841 
L -516.627082 191.614727 
L -524.675159 188.89741 
L -532.723236 189.160879 
L -540.771313 188.907376 
L -548.81939 189.930054 
L -556.867467 187.211239 
L -564.915544 188.416741 
L -572.963621 186.856732 
L -581.011698 190.2165 
L -589.059775 186.211817 
L -597.107852 183.506364 
L -605.155929 184.299195 
L -613.204005 184.12312 
L -621.252082 183.183282 
L -629.300159 184.763843 
L -637.348236 181.569108 
L -645.396313 182.363159 
L -653.44439 180.592282 
L -661.492467 180.108997 
L -669.540544 178.437134 
L -677.588621 176.442835 
L -685.636698 177.62161 
L -693.684775 179.549122 
L -701.732852 175.847398 
L -709.780929 176.648256 
L -717.829005 175.135044 
L -725.877082 175.296782 
L -733.925159 176.729153 
L -741.973236 175.209619 
L -750.021313 176.238611 
L -758.06939 175.929562 
L -766.117467 173.220134 
L -774.165544 173.708272 
L -782.213621 174.326512 
L -790.261698 174.114561 
L -798.309775 173.384262 
L -806.357852 173.582949 
L -814.405929 172.726204 
L -822.454005 173.432584 
L -830.502082 173.1321 
L -838.550159 172.768342 
L -846.598236 172.400683 
L -854.646313 169.253508 
L -862.69439 171.305309 
L -870.742467 171.731199 
L -878.790544 170.746018 
L -886.838621 170.156527 
L -894.886698 169.539478 
L -902.934775 169.672688 
L -910.982852 168.732996 
L -919.030929 169.277955 
L -927.079005 169.044697 
L -935.127082 168.1258 
L -943.175159 167.950822 
L -951.223236 167.930881 
L -959.271313 167.89075 
L -967.31939 169.351786 
L -975.367467 169.169743 
L -983.415544 169.541482 
L -991.463621 168.335216 
L -999.511698 168.618534 
L -1007.559775 168.005605 
L -1015.607852 167.615494 
L -1023.655929 165.773467 
L -1031.704005 167.987293 
L -1039.752082 167.391927 
L -1047.800159 166.769659 
L -1055.848236 167.734744 
L -1063.896313 166.682626 
L -1071.94439 166.513046 
L -1079.992467 164.683087 
L -1088.040544 166.277054 
L -1096.088621 164.605728 
L -1104.136698 166.041595 
L -1112.184775 166.792941 
L -1120.232852 166.285393 
L -1128.280929 167.396214 
L -1136.329005 168.015901 
L -1144.377082 166.732043 
L -1152.425159 166.683866 
L -1160.473236 165.799146 
L -1168.521313 166.010723 
L -1176.56939 164.483941 
L -1184.617467 165.296069 
L -1192.665544 165.590765 
L -1200.713621 165.36468 
L -1208.761698 164.767278 
L -1216.809775 164.108395 
L -1224.857852 165.1928 
L -1232.905929 164.678459 
L -1240.954005 164.971015 
L -1249.002082 165.885758 
L -1257.050159 165.564175 
L -1265.098236 162.945914 
L -1273.146313 162.59763 
L -1281.19439 163.865756 
L -1289.242467 163.290115 
L -1297.290544 163.956212 
L -1305.338621 164.265705 
L -1313.386698 162.977179 
L -1321.434775 162.951301 
L -1329.482852 163.109468 
L -1337.530929 163.939365 
L -1345.579005 161.718747 
L -1353.627082 161.85019 
L -1361.675159 161.297813 
L -1369.723236 162.833216 
L -1377.771313 162.074993 
L -1385.81939 160.411144 
L -1393.867467 161.014922 
L -1401.915544 161.690281 
L -1409.963621 158.196841 
L -1418.011698 160.58573 
L -1426.059775 156.319905 
L -1434.107852 155.642576 
L -1442.155929 154.381221 
L -1450.204005 154.804171 
L -1458.252082 154.655511 
L -1466.300159 153.716475 
L -1474.348236 151.433444 
L -1482.396313 152.3606 
L -1490.44439 147.802938 
L -1498.492467 142.892002 
L -1506.540544 143.853427 
L -1514.588621 145.938483 
L -1522.636698 139.633762 
L -1530.684775 139.72346 
L -1538.732852 138.115454 
L -1546.780929 137.537536 
L -1554.829005 129.558772 
L -1562.877082 128.500819 
L -1570.925159 125.300277 
L -1578.973236 118.537022 
L -1587.021313 113.270499 
L -1595.06939 118.530417 
L -1603.117467 115.61759 
L -1611.165544 111.001977 
L -1619.213621 108.942241 
L -1627.261698 105.507941 
L -1635.309775 101.080639 
L -1643.357852 102.668539 
L -1651.405929 94.907476 
L -1659.454005 90.954294 
L -1667.502082 89.045098 
L -1675.550159 87.471989 
L -1683.598236 88.116727 
L -1691.646313 86.125215 
L -1699.69439 87.565209 
L -1707.742467 89.524855 
L -1715.790544 85.843443 
L -1723.838621 85.387432 
L -1731.886698 88.689185 
L -1739.934775 89.342129 
L -1747.982852 87.926086 
L -1756.030929 94.819599 
L -1764.079005 89.799249 
L -1772.127082 91.375653 
L -1780.175159 96.614151 
L -1788.223236 95.008003 
L -1796.271313 96.871938 
L -1804.31939 98.522742 
L -1812.367467 100.486879 
L -1820.415544 102.335543 
L -1828.463621 104.437984 
L -1836.511698 106.378115 
L -1844.559775 107.937892 
L -1852.607852 110.490274 
L -1860.655929 111.008149 
L -1868.704005 115.162546 
L -1876.752082 115.176116 
L -1884.800159 117.185095 
L -1892.848236 119.500648 
L -1900.896313 120.752734 
L -1908.94439 122.397288 
L -1916.992467 123.619995 
L -1925.040544 125.544639 
L -1933.088621 126.588961 
L -1941.136698 127.938139 
L -1949.184775 129.57924 
L -1957.232852 131.263993 
L -1965.280929 132.182557 
L -1973.329005 133.807981 
L -1981.377082 134.833373 
L -1989.425159 136.519471 
L -1997.473236 137.771687 
L -2005.521313 139.021346 
L -2013.56939 140.436358 
L -2021.617467 141.666062 
L -2029.665544 142.678317 
L -2037.713621 144.065857 
L -2045.761698 144.653313 
L -2053.809775 146.430168 
L -2061.857852 147.555531 
L -2069.905929 148.524855 
L -2077.954005 149.763398 
L -2086.002082 150.434758 
L -2094.050159 151.509361 
L -2102.098236 152.621547 
L -2110.146313 153.873065 
L -2118.19439 154.780566 
L -2126.242467 155.676117 
L -2134.290544 156.675104 
L -2142.338621 157.632473 
L -2150.386698 158.682632 
L -2158.434775 159.482971 
L -2166.482852 160.375992 
L -2174.530929 161.071553 
L -2182.579005 162.121482 
L -2190.627082 162.825652 
L -2198.675159 163.654264 
L -2206.723236 164.737889 
L -2214.771313 165.433956 
L -2222.81939 165.513217 
L -2230.867467 166.39128 
L -2238.915544 166.759554 
L -2246.963621 167.607923 
L -2255.011698 168.625366 
L -2263.059775 169.074939 
L -2271.107852 169.494259 
L -2279.155929 169.46527 
L -2287.204005 169.92829 
L -2295.252082 170.154961 
L -2303.300159 170.414636 
L -2311.348236 171.139142 
L -2319.396313 171.51468 
L -2327.44439 172.110799 
L -2335.492467 171.602508 
L -2343.540544 171.896079 
L -2351.588621 171.174445 
L -2359.636698 172.073952 
L -2367.684775 172.143446 
L -2375.732852 172.788781 
L -2383.780929 171.192579 
L -2391.829005 172.989804 
L -2399.877082 172.787201 
L -2407.925159 171.679848 
L -2415.973236 171.374924 
L -2424.021313 172.298391 
L -2432.06939 173.918632 
L -2440.117467 173.245774 
L -2448.165544 173.19143 
L -2456.213621 171.513912 
L -2464.261698 171.491033 
L -2472.309775 171.968789 
L -2480.357852 172.988298 
L -2488.405929 172.660006 
L -2496.454005 172.458377 
L -2504.502082 172.632452 
L -2512.550159 173.271949 
L -2520.598236 173.143943 
L -2528.646313 173.557827 
L -2536.69439 174.235615 
L -2544.742467 173.794327 
L -2552.790544 174.771478 
L -2560.838621 174.942889 
L -2568.886698 175.084261 
L -2576.934775 175.714178 
L -2584.982852 175.891944 
L -2593.030929 176.587937 
L -2601.079005 177.345158 
L -2609.127082 177.383145 
L -2617.175159 177.114651 
L -2625.223236 176.930196 
L -2633.271313 178.502678 
L -2641.31939 178.26106 
L -2649.367467 179.324236 
L -2657.415544 179.366505 
L -2665.463621 178.990747 
L -2673.511698 180.04012 
L -2681.559775 179.106744 
L -2689.607852 179.176414 
L -2697.655929 180.499886 
L -2705.704005 179.579789 
L -2713.752082 180.828327 
L -2721.800159 181.238169 
L -2729.848236 180.212501 
L -2737.896313 176.917851 
L -2745.94439 179.041167 
L -2753.992467 178.037021 
L -2762.040544 173.124676 
L -2770.088621 177.317969 
L -2778.136698 178.180768 
L -2786.184775 173.632806 
L -2794.232852 172.384317 
L -2802.280929 174.817021 
L -2810.329005 169.879832 
L -2818.377082 160.850517 
L -2826.425159 170.746144 
L -2834.473236 174.491695 
L -2842.521313 176.341965 
L -2850.56939 164.157361 
L -2858.617467 164.659023 
L -2866.665544 158.50352 
L -2874.713621 153.730505 
L -2882.761698 163.334361 
L -2890.809775 159.184329 
L -2898.857852 150.622439 
L -2906.905929 144.622637 
L -2914.954005 144.969988 
L -2923.002082 145.976634 
L -2931.050159 144.683822 
L -2939.098236 143.912243 
L -2947.146313 147.294423 
L -2955.19439 146.865749 
L -2963.242467 144.621102 
L -2971.290544 145.952677 
L -2979.338621 144.997401 
L -2987.386698 144.612842 
L -2995.434775 144.669254 
L -3003.482852 145.980291 
L -3011.530929 146.748707 
L -3019.579005 147.184264 
L -3027.627082 148.319499 
L -3035.675159 148.831863 
L -3043.723236 149.73964 
L -3051.771313 151.194762 
L -3059.81939 152.333716 
L -3067.867467 153.10458 
L -3075.915544 153.967537 
L -3083.963621 155.112744 
L -3092.011698 155.831282 
L -3100.059775 156.93042 
L -3108.107852 158.260392 
L -3116.155929 159.050311 
L -3124.204005 159.578371 
L -3132.252082 160.395613 
L -3140.300159 161.237063 
L -3148.348236 162.009305 
L -3156.396313 162.747904 
L -3164.44439 163.459926 
L -3172.492467 164.439454 
L -3180.540544 164.946079 
L -3188.588621 165.652915 
L -3196.636698 166.392775 
L -3204.684775 167.025069 
L -3212.732852 167.651116 
L -3220.780929 168.173864 
L -3228.829005 168.743503 
L -3236.877082 169.501965 
L -3244.925159 170.031855 
L -3252.973236 170.651782 
L -3261.021313 171.148486 
L -3269.06939 171.698959 
L -3277.117467 172.263327 
L -3285.165544 172.836055 
L -3293.213621 173.317126 
L -3301.261698 173.887056 
L -3309.309775 174.387117 
L -3317.357852 174.923565 
L -3325.405929 175.422654 
L -3333.454005 175.938033 
L -3341.502082 176.413867 
L -3349.550159 176.91235 
L -3357.598236 177.450597 
L -3365.646313 177.859101 
L -3373.69439 178.372077 
L -3381.742467 178.813531 
L -3389.790544 179.326349 
L -3397.838621 179.700065 
L -3405.886698 180.176931 
L -3413.934775 180.631172 
L -3421.982852 181.063517 
L -3430.030929 181.50363 
L -3438.079005 181.910405 
L -3446.127082 182.385528 
L -3454.175159 182.812636 
L -3462.223236 183.163683 
L -3470.271313 183.581424 
L -3478.31939 183.998443 
L -3486.367467 184.413246 
L -3494.415544 184.81312 
L -3502.463621 185.185364 
L -3510.511698 185.595386 
L -3518.559775 185.996971 
L -3526.607852 186.400348 
L -3534.655929 186.802006 
L -3542.704005 187.214394 
L -3550.752082 187.643007 
L -3558.800159 188.011066 
L -3566.848236 188.433197 
L -3574.896313 188.84691 
L -3582.94439 189.24354 
L -3590.992467 189.652784 
L -3599.040544 190.070365 
L -3607.088621 190.475069 
L -3615.136698 190.900038 
L -3623.184775 191.286667 
L -3631.232852 191.681081 
L -3639.280929 192.098333 
L -3647.329005 192.500858 
L -3655.377082 192.882149 
L -3663.425159 193.286132 
L -3671.473236 193.65383 
L -3679.521313 194.047461 
L -3687.56939 194.467314 
L -3695.617467 194.825835 
L -3703.665544 195.228254 
L -3711.713621 195.608362 
L -3719.761698 196.007387 
L -3727.809775 196.367141 
L -3735.857852 196.78972 
L -3743.905929 197.137346 
L -3751.954005 197.528671 
L -3760.002082 197.911106 
L -3768.050159 198.303521 
L -3776.098236 198.675669 
L -3784.146313 199.055021 
L -3792.19439 199.436021 
L -3800.242467 199.830416 
L -3808.290544 200.191898 
L -3816.338621 200.525057 
L -3824.386698 200.86601 
L -3832.434775 201.209436 
L -3840.482852 201.540931 
L -3848.530929 201.878561 
L -3856.579005 202.212279 
L -3864.627082 202.530684 
L -3872.675159 202.853269 
L -3880.723236 203.1744 
L -3888.771313 203.465938 
L -3896.81939 203.762994 
L -3904.867467 204.073717 
L -3912.915544 204.367931 
L -3920.963621 204.630521 
L -3929.011698 204.921178 
L -3937.059775 205.186465 
L -3945.107852 205.430697 
L -3953.155929 205.675431 
L -3961.204005 205.904237 
L -3969.252082 206.151827 
L -3977.300159 206.355735 
L -3985.348236 206.571848 
L -3993.396313 206.775323 
L -4001.44439 206.963868 
L -4009.492467 207.135623 
L -4017.540544 207.291629 
L -4025.588621 207.446873 
L -4033.636698 207.60101 
L -4041.684775 207.728247 
L -4049.732852 207.87109 
L -4057.780929 207.991775 
L -4065.829005 208.095544 
L -4073.877082 208.21793 
L -4081.925159 208.324871 
L -4089.973236 208.413079 
L -4098.021313 208.508092 
L -4106.06939 208.600533 
L -4114.117467 208.681627 
L -4122.165544 208.76313 
L -4130.213621 208.830222 
L -4138.261698 208.911869 
L -4146.309775 208.976446 
L -4154.357852 209.044512 
L -4162.405929 209.116119 
L -4170.454005 209.174225 
L -4178.502082 209.23598 
L -4186.550159 209.317446 
L -4194.598236 209.374487 
L -4202.646313 209.444896 
L -4210.69439 209.500321 
L -4218.742467 209.574767 
L -4226.790544 209.633395 
L -4234.838621 209.695588 
L -4242.886698 209.749856 
L -4250.934775 209.799226 
L -4258.982852 209.855972 
L -4267.030929 209.918797 
L -4275.079005 209.980038 
L -4283.127082 210.031983 
L -4291.175159 210.073172 
L -4299.223236 210.133793 
L -4307.271313 210.183015 
L -4315.31939 210.242459 
z
" clip-path="url(#pbf7dcaf280)" style="fill: #008000; fill-opacity: 0.3; stroke: #008000; stroke-opacity: 0.3"/>
   </g>
   <g id="matplotlib.axis_1">
    <g id="xtick_1">
     <g id="line2d_1">
      <defs>
       <path id="mdeb0a9b250" d="M 0 0 
L 0 3.5 
" style="stroke: #000000; stroke-width: 0.8"/>
      </defs>
      <g>
       <use xlink:href="#mdeb0a9b250" x="103.074841" y="395.28" style="stroke: #000000; stroke-width: 0.8"/>
      </g>
     </g>
     <g id="text_1">
      <!-- 2023-01-01 -->
      <g transform="translate(17.945813 495.213718) rotate(-45) scale(0.2 -0.2)">
       <defs>
        <path id="DejaVuSans-32" d="M 1228 531 
L 3431 531 
L 3431 0 
L 469 0 
L 469 531 
Q 828 903 1448 1529 
Q 2069 2156 2228 2338 
Q 2531 2678 2651 2914 
Q 2772 3150 2772 3378 
Q 2772 3750 2511 3984 
Q 2250 4219 1831 4219 
Q 1534 4219 1204 4116 
Q 875 4013 500 3803 
L 500 4441 
Q 881 4594 1212 4672 
Q 1544 4750 1819 4750 
Q 2544 4750 2975 4387 
Q 3406 4025 3406 3419 
Q 3406 3131 3298 2873 
Q 3191 2616 2906 2266 
Q 2828 2175 2409 1742 
Q 1991 1309 1228 531 
z
" transform="scale(0.015625)"/>
        <path id="DejaVuSans-30" d="M 2034 4250 
Q 1547 4250 1301 3770 
Q 1056 3291 1056 2328 
Q 1056 1369 1301 889 
Q 1547 409 2034 409 
Q 2525 409 2770 889 
Q 3016 1369 3016 2328 
Q 3016 3291 2770 3770 
Q 2525 4250 2034 4250 
z
M 2034 4750 
Q 2819 4750 3233 4129 
Q 3647 3509 3647 2328 
Q 3647 1150 3233 529 
Q 2819 -91 2034 -91 
Q 1250 -91 836 529 
Q 422 1150 422 2328 
Q 422 3509 836 4129 
Q 1250 4750 2034 4750 
z
" transform="scale(0.015625)"/>
        <path id="DejaVuSans-33" d="M 2597 2516 
Q 3050 2419 3304 2112 
Q 3559 1806 3559 1356 
Q 3559 666 3084 287 
Q 2609 -91 1734 -91 
Q 1441 -91 1130 -33 
Q 819 25 488 141 
L 488 750 
Q 750 597 1062 519 
Q 1375 441 1716 441 
Q 2309 441 2620 675 
Q 2931 909 2931 1356 
Q 2931 1769 2642 2001 
Q 2353 2234 1838 2234 
L 1294 2234 
L 1294 2753 
L 1863 2753 
Q 2328 2753 2575 2939 
Q 2822 3125 2822 3475 
Q 2822 3834 2567 4026 
Q 2313 4219 1838 4219 
Q 1578 4219 1281 4162 
Q 984 4106 628 3988 
L 628 4550 
Q 988 4650 1302 4700 
Q 1616 4750 1894 4750 
Q 2613 4750 3031 4423 
Q 3450 4097 3450 3541 
Q 3450 3153 3228 2886 
Q 3006 2619 2597 2516 
z
" transform="scale(0.015625)"/>
        <path id="DejaVuSans-2d" d="M 313 2009 
L 1997 2009 
L 1997 1497 
L 313 1497 
L 313 2009 
z
" transform="scale(0.015625)"/>
        <path id="DejaVuSans-31" d="M 794 531 
L 1825 531 
L 1825 4091 
L 703 3866 
L 703 4441 
L 1819 4666 
L 2450 4666 
L 2450 531 
L 3481 531 
L 3481 0 
L 794 0 
L 794 531 
z
" transform="scale(0.015625)"/>
       </defs>
       <use xlink:href="#DejaVuSans-32"/>
       <use xlink:href="#DejaVuSans-30" x="63.623047"/>
       <use xlink:href="#DejaVuSans-32" x="127.246094"/>
       <use xlink:href="#DejaVuSans-33" x="190.869141"/>
       <use xlink:href="#DejaVuSans-2d" x="254.492188"/>
       <use xlink:href="#DejaVuSans-30" x="290.576172"/>
       <use xlink:href="#DejaVuSans-31" x="354.199219"/>
       <use xlink:href="#DejaVuSans-2d" x="417.822266"/>
       <use xlink:href="#DejaVuSans-30" x="453.90625"/>
       <use xlink:href="#DejaVuSans-31" x="517.529297"/>
      </g>
     </g>
    </g>
    <g id="xtick_2">
     <g id="line2d_2">
      <g>
       <use xlink:href="#mdeb0a9b250" x="215.747918" y="395.28" style="stroke: #000000; stroke-width: 0.8"/>
      </g>
     </g>
     <g id="text_2">
      <!-- 2023-01-15 -->
      <g transform="translate(130.61889 495.213718) rotate(-45) scale(0.2 -0.2)">
       <defs>
        <path id="DejaVuSans-35" d="M 691 4666 
L 3169 4666 
L 3169 4134 
L 1269 4134 
L 1269 2991 
Q 1406 3038 1543 3061 
Q 1681 3084 1819 3084 
Q 2600 3084 3056 2656 
Q 3513 2228 3513 1497 
Q 3513 744 3044 326 
Q 2575 -91 1722 -91 
Q 1428 -91 1123 -41 
Q 819 9 494 109 
L 494 744 
Q 775 591 1075 516 
Q 1375 441 1709 441 
Q 2250 441 2565 725 
Q 2881 1009 2881 1497 
Q 2881 1984 2565 2268 
Q 2250 2553 1709 2553 
Q 1456 2553 1204 2497 
Q 953 2441 691 2322 
L 691 4666 
z
" transform="scale(0.015625)"/>
       </defs>
       <use xlink:href="#DejaVuSans-32"/>
       <use xlink:href="#DejaVuSans-30" x="63.623047"/>
       <use xlink:href="#DejaVuSans-32" x="127.246094"/>
       <use xlink:href="#DejaVuSans-33" x="190.869141"/>
       <use xlink:href="#DejaVuSans-2d" x="254.492188"/>
       <use xlink:href="#DejaVuSans-30" x="290.576172"/>
       <use xlink:href="#DejaVuSans-31" x="354.199219"/>
       <use xlink:href="#DejaVuSans-2d" x="417.822266"/>
       <use xlink:href="#DejaVuSans-31" x="453.90625"/>
       <use xlink:href="#DejaVuSans-35" x="517.529297"/>
      </g>
     </g>
    </g>
    <g id="xtick_3">
     <g id="line2d_3">
      <g>
       <use xlink:href="#mdeb0a9b250" x="328.420995" y="395.28" style="stroke: #000000; stroke-width: 0.8"/>
      </g>
     </g>
     <g id="text_3">
      <!-- 2023-01-29 -->
      <g transform="translate(243.291967 495.213718) rotate(-45) scale(0.2 -0.2)">
       <defs>
        <path id="DejaVuSans-39" d="M 703 97 
L 703 672 
Q 941 559 1184 500 
Q 1428 441 1663 441 
Q 2288 441 2617 861 
Q 2947 1281 2994 2138 
Q 2813 1869 2534 1725 
Q 2256 1581 1919 1581 
Q 1219 1581 811 2004 
Q 403 2428 403 3163 
Q 403 3881 828 4315 
Q 1253 4750 1959 4750 
Q 2769 4750 3195 4129 
Q 3622 3509 3622 2328 
Q 3622 1225 3098 567 
Q 2575 -91 1691 -91 
Q 1453 -91 1209 -44 
Q 966 3 703 97 
z
M 1959 2075 
Q 2384 2075 2632 2365 
Q 2881 2656 2881 3163 
Q 2881 3666 2632 3958 
Q 2384 4250 1959 4250 
Q 1534 4250 1286 3958 
Q 1038 3666 1038 3163 
Q 1038 2656 1286 2365 
Q 1534 2075 1959 2075 
z
" transform="scale(0.015625)"/>
       </defs>
       <use xlink:href="#DejaVuSans-32"/>
       <use xlink:href="#DejaVuSans-30" x="63.623047"/>
       <use xlink:href="#DejaVuSans-32" x="127.246094"/>
       <use xlink:href="#DejaVuSans-33" x="190.869141"/>
       <use xlink:href="#DejaVuSans-2d" x="254.492188"/>
       <use xlink:href="#DejaVuSans-30" x="290.576172"/>
       <use xlink:href="#DejaVuSans-31" x="354.199219"/>
       <use xlink:href="#DejaVuSans-2d" x="417.822266"/>
       <use xlink:href="#DejaVuSans-32" x="453.90625"/>
       <use xlink:href="#DejaVuSans-39" x="517.529297"/>
      </g>
     </g>
    </g>
    <g id="xtick_4">
     <g id="line2d_4">
      <g>
       <use xlink:href="#mdeb0a9b250" x="441.094071" y="395.28" style="stroke: #000000; stroke-width: 0.8"/>
      </g>
     </g>
     <g id="text_4">
      <!-- 2023-02-12 -->
      <g transform="translate(355.965044 495.213718) rotate(-45) scale(0.2 -0.2)">
       <use xlink:href="#DejaVuSans-32"/>
       <use xlink:href="#DejaVuSans-30" x="63.623047"/>
       <use xlink:href="#DejaVuSans-32" x="127.246094"/>
       <use xlink:href="#DejaVuSans-33" x="190.869141"/>
       <use xlink:href="#DejaVuSans-2d" x="254.492188"/>
       <use xlink:href="#DejaVuSans-30" x="290.576172"/>
       <use xlink:href="#DejaVuSans-32" x="354.199219"/>
       <use xlink:href="#DejaVuSans-2d" x="417.822266"/>
       <use xlink:href="#DejaVuSans-31" x="453.90625"/>
       <use xlink:href="#DejaVuSans-32" x="517.529297"/>
      </g>
     </g>
    </g>
    <g id="xtick_5">
     <g id="line2d_5">
      <g>
       <use xlink:href="#mdeb0a9b250" x="553.767148" y="395.28" style="stroke: #000000; stroke-width: 0.8"/>
      </g>
     </g>
     <g id="text_5">
      <!-- 2023-02-26 -->
      <g transform="translate(468.638121 495.213718) rotate(-45) scale(0.2 -0.2)">
       <defs>
        <path id="DejaVuSans-36" d="M 2113 2584 
Q 1688 2584 1439 2293 
Q 1191 2003 1191 1497 
Q 1191 994 1439 701 
Q 1688 409 2113 409 
Q 2538 409 2786 701 
Q 3034 994 3034 1497 
Q 3034 2003 2786 2293 
Q 2538 2584 2113 2584 
z
M 3366 4563 
L 3366 3988 
Q 3128 4100 2886 4159 
Q 2644 4219 2406 4219 
Q 1781 4219 1451 3797 
Q 1122 3375 1075 2522 
Q 1259 2794 1537 2939 
Q 1816 3084 2150 3084 
Q 2853 3084 3261 2657 
Q 3669 2231 3669 1497 
Q 3669 778 3244 343 
Q 2819 -91 2113 -91 
Q 1303 -91 875 529 
Q 447 1150 447 2328 
Q 447 3434 972 4092 
Q 1497 4750 2381 4750 
Q 2619 4750 2861 4703 
Q 3103 4656 3366 4563 
z
" transform="scale(0.015625)"/>
       </defs>
       <use xlink:href="#DejaVuSans-32"/>
       <use xlink:href="#DejaVuSans-30" x="63.623047"/>
       <use xlink:href="#DejaVuSans-32" x="127.246094"/>
       <use xlink:href="#DejaVuSans-33" x="190.869141"/>
       <use xlink:href="#DejaVuSans-2d" x="254.492188"/>
       <use xlink:href="#DejaVuSans-30" x="290.576172"/>
       <use xlink:href="#DejaVuSans-32" x="354.199219"/>
       <use xlink:href="#DejaVuSans-2d" x="417.822266"/>
       <use xlink:href="#DejaVuSans-32" x="453.90625"/>
       <use xlink:href="#DejaVuSans-36" x="517.529297"/>
      </g>
     </g>
    </g>
    <g id="xtick_6">
     <g id="line2d_6">
      <g>
       <use xlink:href="#mdeb0a9b250" x="666.440225" y="395.28" style="stroke: #000000; stroke-width: 0.8"/>
      </g>
     </g>
     <g id="text_6">
      <!-- 2023-03-12 -->
      <g transform="translate(581.311198 495.213718) rotate(-45) scale(0.2 -0.2)">
       <use xlink:href="#DejaVuSans-32"/>
       <use xlink:href="#DejaVuSans-30" x="63.623047"/>
       <use xlink:href="#DejaVuSans-32" x="127.246094"/>
       <use xlink:href="#DejaVuSans-33" x="190.869141"/>
       <use xlink:href="#DejaVuSans-2d" x="254.492188"/>
       <use xlink:href="#DejaVuSans-30" x="290.576172"/>
       <use xlink:href="#DejaVuSans-33" x="354.199219"/>
       <use xlink:href="#DejaVuSans-2d" x="417.822266"/>
       <use xlink:href="#DejaVuSans-31" x="453.90625"/>
       <use xlink:href="#DejaVuSans-32" x="517.529297"/>
      </g>
     </g>
    </g>
    <g id="xtick_7">
     <g id="line2d_7">
      <g>
       <use xlink:href="#mdeb0a9b250" x="779.113302" y="395.28" style="stroke: #000000; stroke-width: 0.8"/>
      </g>
     </g>
     <g id="text_7">
      <!-- 2023-03-26 -->
      <g transform="translate(693.984275 495.213718) rotate(-45) scale(0.2 -0.2)">
       <use xlink:href="#DejaVuSans-32"/>
       <use xlink:href="#DejaVuSans-30" x="63.623047"/>
       <use xlink:href="#DejaVuSans-32" x="127.246094"/>
       <use xlink:href="#DejaVuSans-33" x="190.869141"/>
       <use xlink:href="#DejaVuSans-2d" x="254.492188"/>
       <use xlink:href="#DejaVuSans-30" x="290.576172"/>
       <use xlink:href="#DejaVuSans-33" x="354.199219"/>
       <use xlink:href="#DejaVuSans-2d" x="417.822266"/>
       <use xlink:href="#DejaVuSans-32" x="453.90625"/>
       <use xlink:href="#DejaVuSans-36" x="517.529297"/>
      </g>
     </g>
    </g>
    <g id="xtick_8">
     <g id="line2d_8">
      <g>
       <use xlink:href="#mdeb0a9b250" x="891.786379" y="395.28" style="stroke: #000000; stroke-width: 0.8"/>
      </g>
     </g>
     <g id="text_8">
      <!-- 2023-04-09 -->
      <g transform="translate(806.657352 495.213718) rotate(-45) scale(0.2 -0.2)">
       <defs>
        <path id="DejaVuSans-34" d="M 2419 4116 
L 825 1625 
L 2419 1625 
L 2419 4116 
z
M 2253 4666 
L 3047 4666 
L 3047 1625 
L 3713 1625 
L 3713 1100 
L 3047 1100 
L 3047 0 
L 2419 0 
L 2419 1100 
L 313 1100 
L 313 1709 
L 2253 4666 
z
" transform="scale(0.015625)"/>
       </defs>
       <use xlink:href="#DejaVuSans-32"/>
       <use xlink:href="#DejaVuSans-30" x="63.623047"/>
       <use xlink:href="#DejaVuSans-32" x="127.246094"/>
       <use xlink:href="#DejaVuSans-33" x="190.869141"/>
       <use xlink:href="#DejaVuSans-2d" x="254.492188"/>
       <use xlink:href="#DejaVuSans-30" x="290.576172"/>
       <use xlink:href="#DejaVuSans-34" x="354.199219"/>
       <use xlink:href="#DejaVuSans-2d" x="417.822266"/>
       <use xlink:href="#DejaVuSans-30" x="453.90625"/>
       <use xlink:href="#DejaVuSans-39" x="517.529297"/>
      </g>
     </g>
    </g>
    <g id="xtick_9">
     <g id="line2d_9">
      <g>
       <use xlink:href="#mdeb0a9b250" x="940.074841" y="395.28" style="stroke: #000000; stroke-width: 0.8"/>
      </g>
     </g>
     <g id="text_9">
      <!-- 2023-04-15 -->
      <g transform="translate(854.945813 495.213718) rotate(-45) scale(0.2 -0.2)">
       <use xlink:href="#DejaVuSans-32"/>
       <use xlink:href="#DejaVuSans-30" x="63.623047"/>
       <use xlink:href="#DejaVuSans-32" x="127.246094"/>
       <use xlink:href="#DejaVuSans-33" x="190.869141"/>
       <use xlink:href="#DejaVuSans-2d" x="254.492188"/>
       <use xlink:href="#DejaVuSans-30" x="290.576172"/>
       <use xlink:href="#DejaVuSans-34" x="354.199219"/>
       <use xlink:href="#DejaVuSans-2d" x="417.822266"/>
       <use xlink:href="#DejaVuSans-31" x="453.90625"/>
       <use xlink:href="#DejaVuSans-35" x="517.529297"/>
      </g>
     </g>
    </g>
   </g>
   <g id="matplotlib.axis_2">
    <g id="ytick_1">
     <g id="line2d_10">
      <defs>
       <path id="m49db107b48" d="M 0 0 
L -3.5 0 
" style="stroke: #000000; stroke-width: 0.8"/>
      </defs>
      <g>
       <use xlink:href="#m49db107b48" x="103.074841" y="386.387094" style="stroke: #000000; stroke-width: 0.8"/>
      </g>
     </g>
     <g id="text_10">
      <!-- −0.20 -->
      <g transform="translate(34.784216 393.985532) scale(0.2 -0.2)">
       <defs>
        <path id="DejaVuSans-2212" d="M 678 2272 
L 4684 2272 
L 4684 1741 
L 678 1741 
L 678 2272 
z
" transform="scale(0.015625)"/>
        <path id="DejaVuSans-2e" d="M 684 794 
L 1344 794 
L 1344 0 
L 684 0 
L 684 794 
z
" transform="scale(0.015625)"/>
       </defs>
       <use xlink:href="#DejaVuSans-2212"/>
       <use xlink:href="#DejaVuSans-30" x="83.789062"/>
       <use xlink:href="#DejaVuSans-2e" x="147.412109"/>
       <use xlink:href="#DejaVuSans-32" x="179.199219"/>
       <use xlink:href="#DejaVuSans-30" x="242.822266"/>
      </g>
     </g>
    </g>
    <g id="ytick_2">
     <g id="line2d_11">
      <g>
       <use xlink:href="#m49db107b48" x="103.074841" y="342.365176" style="stroke: #000000; stroke-width: 0.8"/>
      </g>
     </g>
     <g id="text_11">
      <!-- −0.15 -->
      <g transform="translate(34.784216 349.963613) scale(0.2 -0.2)">
       <use xlink:href="#DejaVuSans-2212"/>
       <use xlink:href="#DejaVuSans-30" x="83.789062"/>
       <use xlink:href="#DejaVuSans-2e" x="147.412109"/>
       <use xlink:href="#DejaVuSans-31" x="179.199219"/>
       <use xlink:href="#DejaVuSans-35" x="242.822266"/>
      </g>
     </g>
    </g>
    <g id="ytick_3">
     <g id="line2d_12">
      <g>
       <use xlink:href="#m49db107b48" x="103.074841" y="298.343257" style="stroke: #000000; stroke-width: 0.8"/>
      </g>
     </g>
     <g id="text_12">
      <!-- −0.10 -->
      <g transform="translate(34.784216 305.941694) scale(0.2 -0.2)">
       <use xlink:href="#DejaVuSans-2212"/>
       <use xlink:href="#DejaVuSans-30" x="83.789062"/>
       <use xlink:href="#DejaVuSans-2e" x="147.412109"/>
       <use xlink:href="#DejaVuSans-31" x="179.199219"/>
       <use xlink:href="#DejaVuSans-30" x="242.822266"/>
      </g>
     </g>
    </g>
    <g id="ytick_4">
     <g id="line2d_13">
      <g>
       <use xlink:href="#m49db107b48" x="103.074841" y="254.321338" style="stroke: #000000; stroke-width: 0.8"/>
      </g>
     </g>
     <g id="text_13">
      <!-- −0.05 -->
      <g transform="translate(34.784216 261.919775) scale(0.2 -0.2)">
       <use xlink:href="#DejaVuSans-2212"/>
       <use xlink:href="#DejaVuSans-30" x="83.789062"/>
       <use xlink:href="#DejaVuSans-2e" x="147.412109"/>
       <use xlink:href="#DejaVuSans-30" x="179.199219"/>
       <use xlink:href="#DejaVuSans-35" x="242.822266"/>
      </g>
     </g>
    </g>
    <g id="ytick_5">
     <g id="line2d_14">
      <g>
       <use xlink:href="#m49db107b48" x="103.074841" y="210.299419" style="stroke: #000000; stroke-width: 0.8"/>
      </g>
     </g>
     <g id="text_14">
      <!-- 0.00 -->
      <g transform="translate(51.543591 217.897856) scale(0.2 -0.2)">
       <use xlink:href="#DejaVuSans-30"/>
       <use xlink:href="#DejaVuSans-2e" x="63.623047"/>
       <use xlink:href="#DejaVuSans-30" x="95.410156"/>
       <use xlink:href="#DejaVuSans-30" x="159.033203"/>
      </g>
     </g>
    </g>
    <g id="ytick_6">
     <g id="line2d_15">
      <g>
       <use xlink:href="#m49db107b48" x="103.074841" y="166.2775" style="stroke: #000000; stroke-width: 0.8"/>
      </g>
     </g>
     <g id="text_15">
      <!-- 0.05 -->
      <g transform="translate(51.543591 173.875937) scale(0.2 -0.2)">
       <use xlink:href="#DejaVuSans-30"/>
       <use xlink:href="#DejaVuSans-2e" x="63.623047"/>
       <use xlink:href="#DejaVuSans-30" x="95.410156"/>
       <use xlink:href="#DejaVuSans-35" x="159.033203"/>
      </g>
     </g>
    </g>
    <g id="ytick_7">
     <g id="line2d_16">
      <g>
       <use xlink:href="#m49db107b48" x="103.074841" y="122.255581" style="stroke: #000000; stroke-width: 0.8"/>
      </g>
     </g>
     <g id="text_16">
      <!-- 0.10 -->
      <g transform="translate(51.543591 129.854018) scale(0.2 -0.2)">
       <use xlink:href="#DejaVuSans-30"/>
       <use xlink:href="#DejaVuSans-2e" x="63.623047"/>
       <use xlink:href="#DejaVuSans-31" x="95.410156"/>
       <use xlink:href="#DejaVuSans-30" x="159.033203"/>
      </g>
     </g>
    </g>
    <g id="ytick_8">
     <g id="line2d_17">
      <g>
       <use xlink:href="#m49db107b48" x="103.074841" y="78.233662" style="stroke: #000000; stroke-width: 0.8"/>
      </g>
     </g>
     <g id="text_17">
      <!-- 0.15 -->
      <g transform="translate(51.543591 85.832099) scale(0.2 -0.2)">
       <use xlink:href="#DejaVuSans-30"/>
       <use xlink:href="#DejaVuSans-2e" x="63.623047"/>
       <use xlink:href="#DejaVuSans-31" x="95.410156"/>
       <use xlink:href="#DejaVuSans-35" x="159.033203"/>
      </g>
     </g>
    </g>
    <g id="ytick_9">
     <g id="line2d_18">
      <g>
       <use xlink:href="#m49db107b48" x="103.074841" y="34.211743" style="stroke: #000000; stroke-width: 0.8"/>
      </g>
     </g>
     <g id="text_18">
      <!-- 0.20 -->
      <g transform="translate(51.543591 41.81018) scale(0.2 -0.2)">
       <use xlink:href="#DejaVuSans-30"/>
       <use xlink:href="#DejaVuSans-2e" x="63.623047"/>
       <use xlink:href="#DejaVuSans-32" x="95.410156"/>
       <use xlink:href="#DejaVuSans-30" x="159.033203"/>
      </g>
     </g>
    </g>
   </g>
   <g id="line2d_19">
    <path d="M 0 0 
" clip-path="url(#pbf7dcaf280)" style="fill: none; stroke: #ffa500; stroke-width: 1.5; stroke-linecap: square"/>
   </g>
   <g id="line2d_20">
    <path d="M 103.074841 210.299419 
L 948.274841 210.299419 
" clip-path="url(#pbf7dcaf280)" style="fill: none; stroke-dasharray: 7.4,3.2; stroke-dashoffset: 0; stroke: #000000; stroke-width: 2"/>
   </g>
   <g id="patch_3">
    <path d="M 103.074841 395.28 
L 103.074841 7.2 
" style="fill: none; stroke: #000000; stroke-width: 0.8; stroke-linejoin: miter; stroke-linecap: square"/>
   </g>
   <g id="patch_4">
    <path d="M 940.074841 395.28 
L 940.074841 7.2 
" style="fill: none; stroke: #000000; stroke-width: 0.8; stroke-linejoin: miter; stroke-linecap: square"/>
   </g>
   <g id="patch_5">
    <path d="M 103.074841 395.28 
L 940.074841 395.28 
" style="fill: none; stroke: #000000; stroke-width: 0.8; stroke-linejoin: miter; stroke-linecap: square"/>
   </g>
   <g id="patch_6">
    <path d="M 103.074841 7.2 
L 940.074841 7.2 
" style="fill: none; stroke: #000000; stroke-width: 0.8; stroke-linejoin: miter; stroke-linecap: square"/>
   </g>
  </g>
 </g>
 <defs>
  <clipPath id="pbf7dcaf280">
   <rect x="103.074841" y="7.2" width="837" height="388.08"/>
  </clipPath>
 </defs>
</svg>
